<?xml version="1.0" encoding="utf-8"?>
<!-- Generator: Adobe Illustrator 22.1.0, SVG Export Plug-In . SVG Version: 6.00 Build 0)  -->
<svg version="1.1" id="Layer_1" xmlns="http://www.w3.org/2000/svg" xmlns:xlink="http://www.w3.org/1999/xlink" x="0px" y="0px"
	 viewBox="0 0 512 512" style="enable-background:new 0 0 512 512;" xml:space="preserve">
<pattern  width="90.3" height="90.8" patternUnits="userSpaceOnUse" id="g" viewBox="0 -90.8 90.3 90.8" style="overflow:visible;">
	<g>
		<rect y="-90.8" style="fill:none;" width="90.3" height="90.8"/>
	</g>
</pattern>
<pattern  width="90.3" height="90.8" patternUnits="userSpaceOnUse" id="h" viewBox="0 -90.8 90.3 90.8" style="overflow:visible;">
	<g>
		<rect y="-90.8" style="fill:none;" width="90.3" height="90.8"/>
	</g>
</pattern>
<pattern  width="90.3" height="90.8" patternUnits="userSpaceOnUse" id="i" viewBox="0 -90.8 90.3 90.8" style="overflow:visible;">
	<g>
		<rect y="-90.8" style="fill:none;" width="90.3" height="90.8"/>
	</g>
</pattern>
<g transform="translate(3.7367 -942.76)">
	<pattern  id="SVGID_1_" xlink:href="#g" patternTransform="matrix(3.4425 0 0 -4.05 19258.2266 -35250.5078)">
	</pattern>
	<path style="fill:url(#SVGID_1_);stroke:#FF0000;stroke-width:0.3543;" d="M94.4,1222.5l-8.6,17.2c-12.5-8.7-18.4-21.4-25.1-33.6
		l-3.2,21.1c-13.3-19.9-12.9-40.1-15.9-57.7c-6.9,8.6-8.6,16.4-9.2,24c-6.1-16.2-6.6-35.7-3.2-56.2l-12.5,7.2
		c5.5-19.9,11.1-39.7,26.8-57.3l-21.8,10c6.9-14.6,14.1-29.1,35.4-40.1c-3-4.2-6.8-6.2-11.5-6.1l-15.8,4.3c9.4-15,27.2-21,48-23.6
		l-0.7-15.8c-1.1-4.6-5.6-5.7-9.3-7.5c3.3-1.6,4.8-4.3,12.5-3.2l22.6,5l22.2-8.9c9.5-1.6,20.2-0.1,32.6,5l-1.4-8.9l-10.1-3.8
		l-16.9,0c5.9-2.5,4.1-6.4,24.1-8c18.2,2.1,27.1,13.5,38.7,22.2c9.5-8.4,20-14.4,31.9-16.8c13.4-0.1,24.2,2.1,32.2,6.8
		c-11.6,0.4-20.3,1.9-26.5,4.7c-7.6,2.7-12.1,5.1-15.8,7.5c12.8-1,24.7,0.9,36.5,2.9c10.6,4.2,19.3,9.2,23.3,16.1
		c-6.7,2.6-15,2.9-24.7,1.1c16.3,8.3,28,18.8,36.9,30.8c-8.3-3.3-16.6-6.7-23.6-5.4c11.5,14.1,22.3,28.2,22.2,43l-12.9-9.7l-9.3,1.8
		c7,8.1,8.9,15.8,12.2,23.6c3.9,12.2,6.8,24.2,5,34.7l-13.2-21.8c-0.7,9.3-1.7,18.3-6.1,24l7.2,12.5c7.5,10.4,5.4,19.9,3.6,26.5
		l-9.1,18.6l-8.8-19.7c-7,21.6-19.2,43.8-29,55.5c-0.2-7.1,0.2-15-2.5-18.3c-7.6,20.4-17.3,27.2-26.1,39.4l-1.4-11
		c-3.9-4.2-6.6-2.5-8.6-0.8c-5.1,4-11.1,9.7-14,10c-10.4-1.1-18.7-4.9-26.5-9.3c-7.1-4.1-11.3-10.4-15.8-16.5
		c0.8,8.7-0.3,15,2.9,26.7c-17.4-9.5-23.9-17.4-28.3-24.9L94.4,1222.5z"/>
	<path color-rendering="auto" shape-rendering="auto" image-rendering="auto" d="M223.1,1074.7c-1.3,1.2-3.7,4.6-2.9,9.3
		c0.8,4.7,5.7,5,6.7,6.7c3-1.5,4.3-1.7,6.4-4.6c1-1.4,3.6-9.2,3.7-10.9c-1.3-1.2-2.3-2-3.7-2.5c-1.6-0.4-3.3-1-5.9-0.7
		C224.8,1072.3,224.2,1073.8,223.1,1074.7L223.1,1074.7z M232.7,1082.2c-0.6,1.2-2.8,3.7-4.5,4.6c-0.9,0.4-4.8,2.3-5.8-1.8
		c-0.8-6.5,0.1-9.2,5-10.1c1.2-0.2,6.4,0.7,7.2,1.7C233.5,1079.2,233.2,1081.2,232.7,1082.2L232.7,1082.2z"/>
	<path color-rendering="auto" shape-rendering="auto" image-rendering="auto" d="M177.1,1084.5c3.3,2.8,8.5,6.1,18.9,2.6
		c6.1-2,1.8-5,2.1-8.7c-2.9-3.7-7.2-7.6-10.2-7.7c-3.1-0.1-6.7,0.7-9.4,1.9c-1.8,0.8-4.9,3.3-8.8,2.1
		C170.1,1078.3,173.3,1081.3,177.1,1084.5L177.1,1084.5z M196.8,1080.9c0.6,2.4-4.5,5.9-10.2,5s-8.7-4.7-11.4-7.5
		c4.9-2.6,6.3-4.7,11.6-4.5C190.3,1074,196.2,1078.5,196.8,1080.9L196.8,1080.9z"/>
	<g>
		<pattern  id="SVGID_2_" xlink:href="#i" patternTransform="matrix(1.2903 2.1024 -5.4246 3.329 -38849.5508 36863.7852)">
		</pattern>
		<path style="fill:url(#SVGID_2_);" d="M243.2,1254.9c0,0,23.5-10.2,35.2-8.1c12.4,2.2,32.1,19.3,32.1,19.3
			c-1.8-8.5-4.7-16.6-11.1-31.1c0,0-9.8-9.6-15.9-10.1c-12.1-1-33.9,11.9-33.9,11.9L243.2,1254.9z"/>
		<pattern  id="SVGID_3_" xlink:href="#i" patternTransform="matrix(1.2903 2.1024 -5.4246 3.329 -38849.5508 36863.7852)">
		</pattern>
		<path style="fill:url(#SVGID_3_);" d="M115.2,1266.7c8.5,14.7,30.4,19.7,40.8,15.9c11.2-4.1,18.2-6.8,18.2-6.8l-2-12.4
			c-15.1-3.1-30.5-4.8-43-26.8l3,27.6c-11.9-5-18.8-13.4-26.8-21L115.2,1266.7z"/>
	</g>
	<path color-rendering="auto" shape-rendering="auto" image-rendering="auto" d="M152.5,983.6c-12.1,0.5-19.6,5.4-27.2,11.4
		c7.9,0.2,22-1.9,28.5,2.8c1.5,1.1,2.3,3.1,0.1,4.5c-7.5-3.3-16.6-5.1-28-3.7c-4.7,0.5-20.1,8.5-25.3,8.6
		c-6.3,0.1-14.4-3.6-21.9-3.8c-5.7-0.1-11.1,2.7-14.3,5.6c2,1.6,6.4,1.9,8.4,2.9c2.2,1,2.6,4.1,2.6,5.4c-0.1,3.4-2.5,10.1-1.6,11.6
		c-6.3,0.6-6.3,1.2-10.7,1.8c-10.8,1.4-20.5,7.4-28,15c-3.4,3.5-11.5,11.4-13.7,15.8c8-3.2,12.8-6,15.5-6.7c8.2-2.2,13.6-0.2,15,2.1
		c-1,0.7-8.5,5.7-9.5,6.5c-5.5,4.2-10.1,9.2-13.9,14.9c-5,7.3-8.6,15.6-11,24.1c5.9-3.2,11.8-8.3,17.8-8.9
		c-9.1,11.9-15.5,25.6-19.3,40.1c-1.3,4.9-2.4,14.4-3,19.4c6.2-7.4,9.2-9.5,14.4-12.2c-0.9,3.5-3.7,13.9-3.9,17.4
		c-1,16.1,4.3,32,11,46.5c1.8-7.9,0.4-18.8,5.7-26c-0.8,9.1,1.2,19.5,4.9,29.3c3.7,9.8,9,19,14.6,25.7c1.3-4,2.6-13,2.8-19.2
		c3,4.7,4.3,9.6,9.5,17c4.3,6,9.4,10.6,17.1,13.5c0.1-3.5,0.8-9.4,4.5-17.3c7.7,16.2,23.7,32.8,40.4,39.5c-2.5-8-2.6-14.8-3.2-24.3
		c3.4,7,12.3,13.7,20.5,17.4c7.9,3.5,16.6,5.4,23.4,5.3c3.7-5.2,10.1-11.7,14.1-11.5c2.5,0.1,4,1.4,3.9,8.5c0,3.9-0.4,6.6-1.8,10.6
		c2.8-3.3,8.2-8.9,10.2-11.7c7.5-10.2,15.9-18,20.1-30.1c2.4,7.6-0.8,13.6-1.5,21.3c14.1-16.2,27-38.1,33.6-58.7
		c-0.3,7.4,7.1,12.7,7.9,19.8c1.2-1.5,6.4-12.5,7.4-14.2c5.3-9,6.9-19.9,4.1-30.4c-1.7-6.4-6-13-9.6-18.2c2.2-3.5,4.7-7.5,5.6-15.3
		c4,5.5,7.5,12.4,12.3,21.3c3.9-19.5-4.2-48.3-15.4-64c2.6-1.1,6.4-0.8,9.1,0.7c5.2,3,9,9.4,11.4,10.3c1.1-8.9-0.6-16.7-4-23.6
		c-2.8-5.8-11.3-18.3-15.9-23c7.4,1.3,17.3,3.7,23.2,8.4c0.5-4.2-6.5-14.9-11.1-18.3c-5.6-4.2-13.1-10.4-20.1-14.1
		c6.3,0.7,17.3-0.2,21.3-1.6c-7.9-10.3-17-17.3-29.1-21.8c-4.1-1.5-19.4-3.7-31.1-1.6c5-1,13.5-6.5,22.9-7.6
		c10-1.2,18.3-0.4,25.3,0.9c-7.1-4.2-14.8-8.1-22.8-10.5c-9.2-2.8-19.1-3.2-28.6-0.6c-9,2.5-20.2,11.4-23.4,11.8
		c-3.3,0.4-12-7.7-18.4-11.5C168.6,987,159.2,983.3,152.5,983.6L152.5,983.6z M148.9,988.9c4.1-0.1,7.8,0.2,8.5,0.3
		c8,1.2,14.5,5.2,20.5,10c4.9,4,9.5,8.6,14.3,12.9c5.7-5.1,18.8-13.9,26-16.8c9-3.7,19.1-1.4,28.8,1.4c-6.9,0.5-19.7,3.3-25.6,6.3
		c-5.1,2.6-10.1,5.9-15.4,9.6c10.2-2,14.2-1.6,16.8-1.6c5.8-0.1,9.6,0.5,18.6,2.8c10.9,2.9,21.6,7.9,28.7,13.7
		c-8.9,1.6-25.6,0.1-32.6-2.9c12,8.4,16.4,11.8,25,18c4.7,3.4,13,8.8,16.6,13.1c-10.5-3.7-16.9-4-21.4-2.4
		c2.2,4.2,7.8,12.7,11.9,18.9c4.5,6.7,9.7,13,10,19.4c-11.6-11.2-13.1-4.1-15.3-4.8c-4.6-1.4-7-2.5-13.7-5.6
		c3.5,4.4,6.4,6.4,11,12.2c3.9,5.5,7.2,11.5,9.7,17.8c3.5,8.7,7,21.2,7.5,30.9c-4.1-6-8.7-14.7-12-19.2c-4.1-5.7-8.4-9.7-15.3-11.1
		c2.1,2.8,6,4.9,8.5,9c2,3.3,2.9,8.3,3.1,13.2c0.2,5.4-1.8,9.2-3.7,12c-2.1-0.8-4.6-1.5-6.2-3.4c-0.9-1-4.5-5.2-6.6-7.3
		c-0.9,1.9,2.7,7.7,4.4,9.9c2.2,2.7,4.6,3.1,4.5,6c0,1.4-2,4.4-2.9,5.6c-3.1,4.2-5,6.9-6.9,8.7c-1-4.1,0.6-12.7-1-15.8
		c-1.3-2.4-1.2-3.2-5.8-7.9c1.6,4.6,3.2,9.2,3.5,11.7c0.9,7.1-1.4,18.1,0.3,18.4c2,0.4,6.7-4.7,9.5-8.2c3-3.7,6.4-6.5,7.6-7.2
		c5.5,8.3,11.6,15.6,10.1,25.3c-0.7,4.5-5.3,18.7-8.4,22.6c-0.5-5.9-4-12.5-5.4-16.3c-2.9-8-4.3-10.7-6.1-12.6
		c0.2,3.8,1.4,6.2,0.6,9.9c-1.3,5.9-4.8,12.8-6.9,17.5c-2.9,6.8-6.2,14.9-9.1,20.9c-1.2,2.6-5.3,11.5-8.7,14.9
		c-0.2-4.3-2.7-14.5-3.2-17c-1.6-7.3,2.6-14.9,1.6-22.5c-0.6-4.3-4.4-6.1-7.3-10.9c-4-6.6-3.1-8.9-3.3-14.4c-2.9,6.7-2.3,8-1,12.8
		c1.4,5.1,3.8,5.7,5.8,10.8c1.8,4.5,3,9.2,1.7,14.2c-4,5.5-2.9,4.7-2,12.8c-1.1,1.2-1.4,6.8-4.2,11.8c-2.7,4.9-8,10-9,11.6
		c-1.8,2.9-5.1,7.4-8.1,11.2c-0.8-5.2-0.4-7-4.5-9.2c1.1-3.9,5.5-11.7,8-16.6c3.6-7,6.6-15,1.1-22.3c-5-6.7-8.7-14.5-9.9-22.6
		c-0.7-4.8,0.6-10.5-0.2-14.2c-2.3,4.5-4.2,8.1-3.3,14.3c1.1,7.5,4.4,15.7,7.7,20.4c7.7,11.1-0.3,29.9-7.8,37.5
		c-4.7,4.7-8.8,13.6-14.1,13.6c-1.9,0-3.5-4.9-6.3-8.9c-2.6-3.7-8.3-8.1-10-11.5c-1.9-3.8-2.8-7.9-2.4-12.2
		c0.5-5.5,0.6-9.1,2.6-14.9c3-8.7,8.3-11.1,6-18.7c-0.7,6.7-6.3,11.7-8.8,18.4c-2.2,5.9-3.7,10.3-4.4,14.6c-0.6,3.6,1,8.1,2.9,12.4
		c2.2,4.9,6.1,9.5,10.7,13.6c1.3,1.8,4.8,7.1,4.3,8.1c-1.6-0.8-14.7-4.1-16.5-4.9c-7.7-3.7-16-12-18.7-19.3
		c-1.1-2.9,0.5-5.6,1.5-9.6c1.5-5.8,4.4-14.4,5.8-19.2c-2.6,3.3-7.8,12.4-9.4,15.8c-2,4.4-4.4,10-4.6,14.8c-0.2,5,2.3,16.2,3.3,21.4
		c-6-0.6-15.3-9.3-22.1-19.4c-4-5.9-6.6-12.8-8.6-17.3c-4.3-10.1-5-19.1-4-30.1c0.8-8.8,4.1-20.1,3.9-26.9c-4,6.1-7,15.3-8.8,24.8
		c-1.8,10.1-0.9,24.1,0.9,31.7c-2.2,3.3-4,4.5-8,12c-11.7-10.3-17.8-28.2-20-40.5c-1.5-8.7-1.9-18.6,0.9-27.3
		c1.7-5.4,4.9-10.2,9.4-14.3c7-6.4,13.1-19.2,12.7-30c-4,9.1-9.1,22.3-18.6,30.1c-4,3.3-6.1,7.9-7.8,12.4
		c-3.2,8.7-3.5,18.4-3.4,27.5c0,3.6,2.2,21.6,0.8,25.7c-2.5-2.1-6.7-12.9-7.8-19.4c-1.8-9.8-3.7-33.9-2.7-40.2
		c1.3-7.8,1.5-16.1,5.4-23.5c2.5-4.7,6-8.5,8.6-13.1c-6.1,4.8-10.6,8.5-13.3,14.8c-2.9,6.6-5.4,14.1-6.2,20
		c-0.9,6.7-1.1,10.2-3.7,13.9c-1.9,2.8-3.1,4-5.7,7.8c-3.1-13.2-1.3-32.5,1.1-47.2c-5.2,4.1-6.6,6.4-11,7.1
		c0.5-1.6,4.2-13.1,4.8-14.7c3.1-8.3,7.5-16.8,12.7-24.5c4.4-6.5,9.3-12.5,14.4-17.6c-4.9-0.4-23.3,8.2-28.1,11.8
		c5-6.6,6.9-10.9,10.7-15.4c7.8-9.2,14.3-15.6,23.9-20.6c3.6-1.9,9.4-5,13.3-4.5c0.1-2.3,3.2-5.4,5.6-7.2c6-4.6,14.4-6.7,22.3-8.9
		c7.2-1.9,14.5-3,20.7-3.6c-4.8-1.2-15.2-0.5-23.7,1c-13.4,2.3-21.6,6.5-28.5,14.1c-4.5,0.8-8.2,2.3-11.4,4.9
		c-5.2-5.7-10.4-5.5-20.9-3.1c10.1-10.9,43.2-17.2,43.2-17.2s-1.9-6-1-11c0.7-4-2.1-11.1-6.7-13.6c1.2-0.2,7.6-1.5,11.8-0.3
		c6.7,2,10.5,3.9,15.1,5c4.2,1,8.5,1.6,12.3,2.1c6.5,0.8,12.7,2.4,17,3.1c4,0.6,7.7,2.4,10.6,4.7c-5.2-0.5-10.4-0.3-15.6,0.9
		c-1.3,0.3-7.3,2.1-9,4.8c9.5-2.5,18.6-2.3,25.5-2.1c2.9,0.1,12.4,2.9,17.7,5.3c1.4,0.6,5.9,2.4,9.7,3.8
		c-4.9-5.2-14.9-10.9-19.1-12.2c-4.9-3.7-9.1-6.8-14.8-9.1c-6.8-2.7-14-3.9-21.3-4.6c1.1-1,9.4-5.2,11.1-5.7
		c15.7-4.5,21.1-0.1,35.7,5.8c3.7,1.5,19.1,10.3,23.2,7.3c-5.3-1.2-12.8-5.9-16.3-8c-3.5-2.2-5.9-4.3-6.8-10.4
		c-1.2-3.8-7.4-6.8-13.5-7.4c-3.1-0.3-8.2,1-11.6,0.6C137.4,990.4,144.8,989,148.9,988.9L148.9,988.9z M221.1,1016.4
		c-7.6,0.5-10.8,0.4-17.6,3.9c-6.3,3.2-6.2,7.2-5.7,8.9c2.1-5.4,10.6-8.3,14.6-9.4c6.5-1.8,9.6-0.8,16.2-1.6
		c11.4-1.3,17.7,5.2,27.4,4.7c-7-2.5-12.3-4.9-19.5-6.8C233,1015.2,229,1016,221.1,1016.4L221.1,1016.4z M112.4,1045.3
		c-4.4-0.1-8.7,0.2-12.9,0.9c-7.3,1.3-13.9,4.5-20.3,9.4c-5.5,4.3-13.8,4.9-18.2,10.3c-2,2.4-5.7,6-12.3,12.2
		c9.6-5.1,10-7.2,16.6-11.9c5.4-3.9,12.2-5.6,17-8.2c7-3.8,11.7-7.8,17.4-8.5c5.2-0.6,12.3-1.3,17.2-4.1
		C115.4,1045.4,113.9,1045.3,112.4,1045.3L112.4,1045.3z M98.8,1064.7c-4.1,1.7-15.1,10.1-18.5,13c-4.7,4.1-9,8.8-13.8,12.5
		c-4,3.1-8.5,5.5-13.9,6.6c-5.4,1.1-9.1,5.5-12.8,9.7c-4.7,5.4-5.4,14.3-6.2,20.2c3.4-7.5,6.3-13.4,10.8-18.8
		c3.5-4.3,6.9-6.2,9.7-6.9c9.8-2.3,17.2-8.4,23.9-15.3C83.6,1080.1,92.5,1071,98.8,1064.7z M117.9,1065c-6.2,1.7-9.3,5.2-11.6,9.2
		c-3.4,6.2-5,13.2-12.5,17.9c-5.1,3.1-11.8,5.7-16.2,9.6c-5.2,4.6-8.2,10.6-13,15.6c11.5-3.2,14.3-12.9,18.4-14.4
		c5.5-2.1,14.1-6.9,17.5-10.8c5.2-6,3.8-8,8.2-15.1C111.3,1072.8,114.7,1069.2,117.9,1065L117.9,1065z M125.4,1077.4
		c-6.4,5.8-12.5,10.9-17.3,17c-3.6,4.6-6.9,9.8-7.8,16.5c-1.2,9.4,7.1,14.8,10.7,23.1c1.5,3.6,1.5,9.1,0.5,13.4
		c-1.2,4.8-4.4,12.2-4.7,18.8c1.4-4.2,8.5-11.6,9.2-16.1c0.6-4.4,1.1-8.8,0.2-13c-1-4.4-3.5-8.7-6.8-12.4c-9.9-11.3-1.1-25.5,7-34.7
		C120.4,1085.1,121.8,1083.3,125.4,1077.4L125.4,1077.4z M143.3,1087.7c-6.9,4.3-11.1,11.1-13.9,15.2c-3.6,5.4-4.8,15.4-3.3,22.2
		c2.2,9.5,6.7,17.5,11.6,25.4c3.3,5.3,6.1,8.9,8.4,15.2c1.5,4.1,2.5,7.8,1.8,12.5c-1.8,13.6-3.4,17.1-6.1,24.5
		c6.4-2,11.5-9.5,14.9-17.3c2.7-6.3,4.2-12.6,4.3-16.5c0.4-17.6-7.5-27-10.9-42.8c1,0.2,4.3,4,8.2,9.4c6.6,9.3,8.4,14.3,11.6,23
		c2.1,5.6,4.9,14.9,4.5,24.5c-0.4,9.2-1.6,22.4-1.8,30c3.6-7.5,6.4-24.4,5.9-34c-0.5-9.9-1.7-16.8-4.5-23.9
		c-3.2-8.1-10.4-23.3-17.2-29.5c-4.9-1.8-11.2-6.1-13.7-12.4c-3.2,17.4,4.4,24.6,10.6,38.6c0.8,1.9,3.5,8.3,3.5,14.5
		c0,4.5-1.4,14.2-2.4,16.4c-2.6,5.7-5.4,10.5-9.2,15.1c0.8-3.8,3.9-9.8,5.2-16.5c1.1-5.7,0.6-12.3,0.1-14.7
		c-1.5-6.7-6.4-12.8-10.5-19.2c-3.3-5.2-6.4-10.5-8-16c-3.2-11.4-2.6-18.2,0.7-25.5C136.2,1098.8,138.3,1094.5,143.3,1087.7
		L143.3,1087.7z M124.6,1154.7c-0.1,6.8,2.5,21.4-6.4,28.8c-3.6,3-5.7,7.9-6.9,12.2c-1.8,6.7-1.3,12.8,0.9,17.2
		c2.5,5,3.8,7.6,8.7,14.8c-1.9-5-2.8-7.2-4.4-12.9c-2.2-7.8-3.1-10.5-1.4-18c1-4.6,5.1-8.9,7.9-13.1
		C127.9,1176.4,131.3,1165.1,124.6,1154.7L124.6,1154.7z"/>
	<path color-rendering="auto" shape-rendering="auto" image-rendering="auto" d="M302.2,1106.1c-8.3,0.1-19.3,1.8-25.8,6.4
		c0,1,0.1,2,0.6,3.4c10.2-2,19.8-3,32-1.1c16.6,2.7,25.3,12.1,38.4,24.5c10.8,10.2,16.6,30.5,16.2,41.9c-0.5,16.7,4,29,3.3,45.4
		c-0.7,17.3-4.6,30.6-9,47.2c-0.9,3.3-2.7,6-4.7,8.5c2.9,2.9,6.6,5.8,7.6,10.6c0.4,2-0.8,7.5-1.4,10.3c-2.8,13.6-1.7,30.1,1,43.9
		c-2.3,2.5-3.5,4.8-3.9,7c-0.6,3.5,0.8,6.7,2.5,9.9c1.9,3.8,7.5,8.6,7.1,13.3c-0.5,5.3-5,7.7-6.7,8.8c-1.7,1.2-3.8,0.5-6.3-1.7
		c0.5-2.6,0.6-6.2,0.2-8.1c-0.7-3.1-1.2-5.8-3.1-8.6c-1.1,1.7,0.3,3.5,0.5,6.9c0.2,3.3,0.7,7-0.2,9.7c-2.2,3-4,3.1-7.2,3.3
		c-1.4,0.1-3.2-0.5-5-2c0.3-0.9-1.2-5.3-1.1-7.5c0.4-4.7,2.1-7.2,0-11.5c-0.6,2.3-1.3,4.4-1.9,7.5c-0.7,3.9-1,8.1,0,11.2
		c-2.7,2.2-4.8,2.8-7.4,2c-2-0.6-3.6-1.8-4.8-3.2c-0.4-3.4-0.9-4-0.3-8.8c0.4-3.5,3.3-7.5,3.6-9.1c-2.4,1.1-4.1,3.6-5,6.1
		c-1.2,3.5-1.6,7.7-1,10.7c-2.5,2.3-5.7-0.9-6.6-1.8c-2.1-2.2-2.4-5.3-1.8-8.7c1.7-9.8,11.6-14.2,18.3-10.1
		c7.2-7.5,10.5-16,9.2-26.8c-1.9-15.3-3-28.1-8.9-41.3c1.7-2.9,3.6-8.3,2.9-10.5c-1.7-5.1-10.7-8-14.7-13.5
		c-3.6-5.1-6.1-10.2-8.3-15.1c-4-9-5.3-18.6-12.3-26.1c-1.5-1.6-7.4-4.6-9.2-5.4c3.9-1.9,6.7-3.4,10.6-7.6
		c4.4-4.7,5.5-17.5,4.6-18.4c-5.3,14-11.2,17.5-19.4,20.4c-2.1,0.7-4.3,1.9-6.9,2.2c-6.4,0.6-13,2.7-18.6,6.5
		c-2.9,1.9-5.5,4.1-7.8,6.4c0.1-1,0.1-1.9,0.1-2.8c-0.2-3.6-0.1-5.9-1-8c-2.1-5.4-4.9-6.9-8.7-9.6c0,0,3.5,5.8,4.9,9.3
		c1.4,3.5,1,6.2,0.5,8.5c-0.6,3.1-2.2,6.9-3.4,10.8c-0.9,3.1-1.8,5-2.2,7c-1.2,6.1-3.8,18.2-3.6,28.6c0.6,22.7-5.8,45.2-11.9,66.9
		c0.3,6,1.2,13.8,2.1,19.3c-0.6,2.6-2.5,4.1-2.8,7.9c-3.4-2.4-7.2-4.1-11.1-4c-4.4,0.1-10.1,1.6-15.6,4.4c4.1-0.8,11-0.4,15,0.2
		c3.1,0.4,6.8,1.8,10.9,5c4.7,3.6,8,11.6,7.9,18.4c-0.1,4.9-2,8.7-5.9,10.4c-3,1.3-6.8,1.5-10.4-2c-1.3-3.5-1.5-6.8-1.5-11.2
		c0-2.4-0.3-5-1.6-7.3c-1.2,1.6-0.6,4.9-0.9,7.8c-0.4,3.5,0.3,6.9,1.1,9.6c-1.2,3.2-3,4.9-6,5.1c-2.3,0.2-5.6-1-7.9-2.9
		c-1.7-2.6-1.4-5.8-1.7-8.7c-0.2-2,0.1-6.1-0.1-9.9c-1.5,2.5-2.5,6.5-2.6,10.4c-0.1,2.5-0.3,5.9,0.5,7.9c-1.7,2.1-3,2.6-5,2.3
		c-3.4-0.5-5.4-1.5-7.1-2.9c-0.8-3.1-1.2-4.7-1.5-7.3c-0.3-2.2,1.5-8.2,3.1-12c-3,2.2-4.9,7-5.4,10.8c-0.3,2.7-0.2,5.5,0.5,7.8
		c-0.5,1-0.3,3.1-3.1,2.9c-6.1-0.4-6.1-4.8-6.4-8.3c-0.6-8,9.8-19.3,16.5-23.2c4-0.4,5.9-2,6.8-4.2c1.2-3.2-1.7-7.4-2.2-11.7
		c-0.9-6.7-0.6-13.7,0-20.3c4.1-11.3,5.8-24.6,4.2-37.3c-1.9-16-7.3-31.2-15.4-44.9c-5.9,5.8-3.3,7.7-11.3,6.6
		c2,13.5,5.1,27.6,0.1,40.9c7.2,13.1,3.9,29,9.3,42.7c-6,9.3,10.1,20.7-1.9,27.6c-5,7.2-13.5,15.7-21.8,18.9
		c-5.2,2-10.5,2.2-14.7-1.6c-2.3-2.2-4.8-7.4-4.4-11.4c0.4-3.2,3-6.7,4.5-9.2c-5.1,1.9-7.3,7.3-7,12.5c0.2,3.6,1.6,7.1,4,9.5
		c-5.4,2-12,1-16.6-2.3c-1-3.5-0.6-8.2,1.2-11.7c2.1-4.1,4.7-5.9,7.7-8.7c-4.5,1-7.6,3.4-9.4,6.3c-1.9,3.1-3.7,6.7-2.7,12.3
		c-3-0.4-4.4-4.8-3.5-9.4c0.6-3.5,3-7.4,5.1-9.2c4.8-4.4,14.4-5.1,20.6-1.8c3.7,0.3,4.8-0.9,6.4-1.1c3.6-0.1,7.2,1.6,10.7,2.2
		c3.4,0.6,7.5,1.5,11.4-0.1c3.2-1.3,5.8-5.4,4.1-8.5c-0.7,2.9-2.5,4.7-4.7,5.6c-2.6,1.1-5.9,1-9,0c-2.1-0.7-5.1-3.3-8.9-3.5
		c3.1-6.5,1.2-17.4,0.5-23.8c-2-17.8-14.5-32-19.2-49.4c-3.9-14.7-17.3-24.9-21.4-39.9c-4.1-3.9-6.6-6.9-10.2-11.7
		c6.3,15.1,11,30.6,21.4,43.7c7.8,9.7,7.4,23.1,13.4,33.9c4.5,8.1,9.9,16.5,11.2,25.6c0.5,3.6,1.2,8.9,0.3,13.2
		c-0.6,3.3-2.7,5.6-3.2,8.3c-4.6-1.1-10.7-2.9-15.3-2.4c-9.7,1.2-17.2,7.9-19,19.4c-1.8,10.8,7.6,17.6,17.4,19
		c5,0.7,10.3-1.1,14-2.4c5.4,4.4,8.9,5.9,14.5,5.2c5-0.7,10-5.8,13.6-10.9c-4.1,10.8-1.2,16.1-0.5,16.9c1.8,1.7,3.3,3.7,6.2,4.6
		c2,0.6,6.6,0.4,10.2-2.3c1.3,2.3,3,3.7,5.3,3.7c4.5,0,5.3-0.2,9.9-4.6c1.9,3.7,5.5,5.2,9.8,5.6c2.7,0.2,5.2-1.2,7.3-3.9
		c3.8,3.5,9.9,4,13.7,2.7c7.8-2.7,11.1-13.1,10.4-21.5c-0.9-10.1-13.6-15.9-7.1-26.2c-1.6-15.4,3.2-29.8,7.8-44.8
		c6-19.7,3.9-41.1,3.6-61.6c0-1.9,2-2.4,3-2.3c1.2,0.1,2.4,1.1,3.6,2.6c4.1,5.1,8.9,16,10.8,20.5c3.4,7.7,10.6,13,16.7,18.8
		c5.6,5.4,9.8,11.2,10.2,19.9c0.4,8.2,5.7,19.7,1.1,26.8c-1.1,1.7-2.6,5.6-5.4,6.9c-2.9,1.4-7.1-1.4-10.4-1.9
		c-6.1-1.1-15.7,1-19.1,5.2c-5.3,6.3-9.7,21.7-3.9,28.6c1.5,1.7,5.2,4.3,8.9,4.4c3.5,0.1,6.9-2.1,9.1-3.7c1.8,3.2,5,5.5,7.9,5.6
		c2.7,0.1,6.9-0.6,8.8-3.5c1.7,1.5,7.6,5,9.8,5.3c2.7,0.3,9.9-1.6,12.7-8.3c0,1.7,1,5.1,3.6,7c1.9,1.3,6,2.8,8.6,0
		c2.8,6.2,11.4,9,16.3,3.9c4.4,3.5,10.3,5.9,15-0.5c5,2.3,9.2,1.7,12.4-0.5c4.3-2.9,7.1-8.5,8.4-13.8c2.9-11.8-10.3-19.2-7.8-30.6
		c2.5-7.7-1.2-20.8-0.1-33.8c0.7-8.2,3.7-16.6,5.4-21.5c-3.5-6.3-6.8-8.8-11.4-12.1c6.4-11.4,12.5-30.9,14.5-45
		c2.8-20.2-2.3-37.6-3.9-58c-1.1-13.3-3.8-23.2-7.2-30.1c-3-6-7.6-14.1-13.6-20.6c-7.3-8-15.6-12.6-22.5-16.9
		C320.8,1108.2,311.7,1106,302.2,1106.1L302.2,1106.1z M281.3,1226.6c3.7,0.1,6.8,1.2,9.6,3c8.6,5.8,12.7,18.9,15,29.5
		c1.8,8,8.4,14.5,13.7,20.8c1.9,2.2,4.9,4.2,5.4,7.1c0.5,3.3-1.8,7.6-3.3,12.6c-3.6,12.2-7.5,25.5-7.2,37.8c2.9,8,2.2,15.6-2.1,21.5
		c-4.3,5.8-7.7,10-7.4,17.7c0.3,7-5.9,10.2-11.4,8.8c-3.8-1-7.1-2-9.2-4.6c-1.4-1.8-2.1-4.7-2-7.1c0.1-1.3,0.6-5,1.1-8.3
		c-2,1.5-3.4,4.6-3.8,7.2c-0.5,3.4,0.5,6.7,1.9,9.1c-1.4,1.1-4,1.2-5.5,1.1c-2.8-0.3-6.3-1.3-7-7.9c-0.5-4.5,0.9-6.6,1.9-10.8
		c-3,2.4-4,5.3-4.5,7.9c-0.6,3.6-0.3,5.9,0.3,9c-2.2,2.3-8.3,2.1-9.7,1.1c-6.1-4.4-0.5-16,2.3-19.9c5.1-6.9,13-5.6,18.5-4.6
		c3.1,0.6,6.6,1.9,8.9,0.3c2.6-1.8,5.6-1.6,8.6-1.2c2.5,0.4,6.8,2.9,9.2,4c-1-2.8-3.6-4.6-6.2-6.3c-1-0.6-4.7-0.9-5.6-1.2
		c1.3-3,3.6-7.7,4.2-11.9c1.4-9.6-0.6-20.1-1.7-29.3c-1-8.8-7.3-14.5-13.4-20.1c-6-5.5-12.3-10.8-15.2-18.7
		c-2.1-5.6-4.2-11.8-7.8-15.6c-3.2-3.3-7.7-4.4-12.1-7.2c0.4-1.3,1.7-5.2,2.3-7c0.4-1.2,0.7-2.5,1-3.8c1.8-1.5,4-2.7,5-3.3
		c5.7-3.1,10.8-5.4,17.9-8.1C274.9,1227.8,280.2,1226.6,281.3,1226.6L281.3,1226.6z M176.9,1261.6c7.3,12.1,13.6,27.2,14.3,41.5
		c0.6,11.9-2.2,24-4.7,35.3c1,6,0.7,15.3,2.9,27.1c0.3,1.4,0,3.8-2.5,3.2c-1.9-3.9-6-15.2-3-22c-3.1-6.4-1.5-21.3-3.2-28.8
		c-2.1-9-5-9.8-5.7-14.5c4.6-12,6.3-20.6,0.9-34.6l-0.5-5.2L176.9,1261.6z M327.1,1301.8c0.1,6.1,3.5,18.8,4.2,26.4
		c1.1,10.8,3.9,21.1-3.7,29.7c-3.3-0.9-7.5,0.9-10,1.5c3-5.7,6.3-20.3,1.8-25C322.6,1327.2,322.5,1308.2,327.1,1301.8L327.1,1301.8z
		"/>
	<pattern  id="SVGID_4_" xlink:href="#h" patternTransform="matrix(4.0585 0 0 -2.9844 24454.4316 -27372.3398)">
	</pattern>
	<path style="fill:url(#SVGID_4_);" d="M379,1032.4c0.7,4.5,3.2,6.4,8.2,4.7c11.8,1.8,21.2,2.6,23.4,0.2c1.6,0,6.8-5.1,17.9-18.4
		c3.4-5.1,7.9-7.2,10-16.1c1.6-5.5,0.3-7.5,0.2-10.9c-1.4,4.9-6.3,6.8-10.4,9.5c-8.2-0.4-16.3,4.6-24.5,7.2
		c-8,0.9-14.8,2.5-20.4,4.8C378.9,1017.4,375.7,1022.6,379,1032.4L379,1032.4z"/>
	<path color-rendering="auto" shape-rendering="auto" image-rendering="auto" d="M428.5,998.9c-4.9-0.6-15.5,3.6-20.6,6.1
		c-6.6,3.3-14.2,1.1-20.9,3.6c-7.4,2.7-16.9,13.3-9.6,23.7c-7.5,2.8-13.5,8.8-17.3,13.9c-6.2,8.4-13.7,18.7-12.4,29.5
		c0.8,7.1,6,15.6,11.7,20.5c8.1,6.9,13.8,15.7,19.1,25.3c4.5,8.1,6.3,13.6,2.3,23c-1.5,3.7-3.8,7.6-8.9,7.3c-3.6-0.2-6.5,0-10.2-4.1
		c1.8,3.3,2.4,5.7,3.3,7.7c4.9,5.6,7.5,8.9,14.8,4.2c8.6-5.6,12.7-14.4,10.5-24.4c-1.7-7.8-2.4-11-5.9-18.2
		c-2.8-5.8-6.6-11.9-11.4-16.3c-4.6-4.3-12.3-13.5-15.7-18.6c-4.2-6.2-1.9-15.4,1.9-22.2c5.3-9.5,12.5-22.5,20.5-24.4
		c3.7-2.1-2.5-12,1.7-16.5c7.4-7.9,16.2-7.7,21-7.6c6.8,0.2,8.9-5.1,18.9-6.2c5.1-0.6,11-0.4,15.8-7.1c-2.2,7.5-7.1,17.3-10.5,19.2
		c-5.6,2.9-9.8,8.2-12.2,14.1c-2.4,5.7-12.7,4.5-18.4,4.5c-4.9,0-9.4-2.5-11.8,3.1c-4.5,11.8-8,15-11.9,22.4
		c-4.2,8-0.4,14.9,4.9,21.9c8.3,11.1,18.9,17.1,25.8,29.3c5.3,9.4,7.9,20.7,5.5,31.4c-2.6,11.8-10.8,20.8-21.3,26.6
		c-5.8,3.2-12.6,2.3-18.1,3.8c0.1,2.1,0.4,3.7,0.8,4.8c4.5,1.4,9.6,1.1,14.6-0.3c4.6-1.3,9.1-3.5,12.9-6.1
		c9-6.2,15.1-15.7,17.7-26.1c2.8-10.9,1.9-22.7-3.1-32.9c-5-10.3-13.4-18-22.4-24.7c-6.1-4.5-13-10.4-14-17.9
		c-1-7.2,4.4-14.2,8.3-20.2c3.6-5.6,3.8-7.6,4.5-11.7c4.6-1.3,12.1,4.8,17.9,3.6c8.1-1.7,13.8-9.5,18.6-16.1
		c4.1-5.7,8-7.3,12.5-15.1c1.9-2.6,4-6.5,4.4-11.1c0.3-4,0.8-11.4-3-14C438.1,990.5,433.3,995.9,428.5,998.9L428.5,998.9z"/>
	<path color-rendering="auto" shape-rendering="auto" image-rendering="auto" d="M158.3,1017.7c-2,0.1-8.7,0.3-8.2,1.5
		c7.7,3.6,12,5.3,20.1,11.2c3.3,2.4,5.8,4.1,7.7,6.6c-2.5-0.2-6.2-0.5-9.5,0.7c-3,1.1-5.6,3.6-6.4,4.3c-3.6-8.8-14.6-12.1-23-11
		c-14,1.8-22.5,14.1-21.1,27.1c0.5,4.6,6.5,15,13.9,13.8c-5.2-3.5-8.3-9.6-8.2-15.9c0.1-10.1,6.4-18.6,17.5-19.3
		c7.6-0.5,16.1,1.9,18.4,10c0.7,2.3,1.9,6.5,2.8,7.4c1.4-4.4,3-11.6,8.7-12.7c4.9-1,11,0.2,14.8,0.3c-1.4-7.3-19.1-16.8-25.8-20.3
		c6,0.2,11.2,1.4,13.8,2.2c4.9,1.6,16.2,5.8,23.2,9.9c-4.7-5-12.1-9.4-15.9-11.4C174.2,1018.5,166,1017.3,158.3,1017.7L158.3,1017.7
		z M218.7,1039.3c-3.8-4.1-15-4.6-18.6-3.9c2.3,2.9,5,6.9,6.6,10.4c1.8,3.8,0.1,7.3-2.1,12.1c3.4-2.3,6-7.7,5.9-10
		c-0.2-5.1-1.7-5-4.3-8.7c4.7-0.1,9.3,0.7,13.3,3.7c5-3.7,6.6-9.1,13.7-9.3c4.6-0.1,12.6,1.4,15.3,9.3c1.4,4-0.2,9.5-1.7,12.9
		c-2,4.6-12.4,9.9-18.1,4c-2.9-3-3.5-6.7-2.7-9.7c0.7-2.5,3-5,8.1-4.1c2.3,0.4,4.4,0.6,5.9,5.4c2.3-4.4-1.7-7.8-3.3-8.5
		c-4.7-2.1-9.7-0.7-12.1,1.3c-3.1,2.6-4.7,8.1-3.3,12.1c2.2,6.2,8.2,10.2,13.5,12.7c3.9,1.8,7.1,7,7.3,10.3c0.2,3,0.6,13.9-2.2,17.8
		c1.6,2,0.6,8.4,2.4,10.1c3.2,3.1,6,11.8-2.9,20.2c-2.5,2.4-5,2.5-7.5,0.8c-1-0.7-1-4.2-0.6-5.6c0.9-2.7,0.5-3.1-3.3-2.9
		c-1.6-0.2-3.8-0.4-4,1.9c-0.2,1.3-0.8,6.4-1.4,6.9c-11.3,4.8-18.1,5.5-28.5,3.9c-4.4-0.7-9.3-2.7-13.3-6.1c-2.3-1.9-4.4-4.5-4-7.8
		c0.5-3.8,10.8-6.8,10.4-9c-2.1,0.2-6,0.3-7.1-0.9c-1.9-2-4.5-5.8-5.8-8.2c-0.8,2.1-0.7,4,0.1,6.7c0.4,1.2,1.4,3,1.2,4.1
		c-0.1,1-1,1.4-2.1,2.4c-2.4,2.2-3,4.8-2.4,7.4c0.8,4.1,3.1,9.3,7.1,11.2c9.1,4.4,20.3,8.6,30.6,7.6c6.8-0.7,13.4-6,18.4-7.4
		c0.8,2.1,4.6,5.3,7.3,3.8c1.1,1.4,2,10.5-1.1,12.5c6.6,7.9,2.7,13.7-0.6,19.3c0.1-5.5-3.3-7.3-6.2-12.6c-2.4-4.3-5.2-7.8-7.4-9.4
		c0,2.8,1.1,3.7,2.1,6c0.7,1.7,0.9,3.1,1,4.7c0.1,1.4-1.3,4.8-2.4,7.5c-0.5,1.4-1.2,3-2.1,4.9c-3.8-1.3-6.6-4.3-8.9-8.3
		c-3-5.2-0.6-12-1.9-15c-0.7,3.1,0.3,5.2-2.8,9.5c-0.4,6.1-2.7,8.3-4.4,11.6c-2.7-1.8-4.8-5.7-5.7-9.3c-0.5-2.2-0.6-4.2-0.9-6
		c-0.1-0.6,0.8-2.5,0.8-4.2c0-1.8-0.3-3.4,0.7-5c-1.9,1.4-2.4,3.1-3.2,4.4c-0.6,1-2,1.4-2.4,1.3c-5.7-0.8-12.5-4.8-15-8.4
		c-1.4-2.1-3.6-10-6.2-12.4c-1-0.9-6.3-7.1-6.9-11.8c-0.8,1.5-2.1,5.6,1.6,9c-5.7-2.2-12.8-5.6-14.9-12.1c-0.7-2.2-1.2-7.2-1.2-9.9
		c0-3.8,3.9-8.9,3.7-11.6c-2.9,1.7-7.2,5.6-7.9,11.2c-1.1,8.1-0.3,13.3,3.5,16.8c5.2,4.9,13.1,10,20,11.8c2.1,4.2,1.2,9,6.8,13.2
		c4.3,3.3,13.1,7.2,16.2,8.9c-0.1,3.4-2.4,8.9,4.3,12.8c2.4,1.5,6.7,8.1,8.8,6.2l4.6-9.3c2.1,5.7,7,9.8,12.9,11.3
		c1.8-4.2,3.5-13.3,5.5-14.8c5.4,4.7,6,10.5,6.1,16.8c2.7-3.3,5.3-6.5,7-10.5c1.2-2.7,4.1-11.8,0.2-16.5c1.1-5.5,2.8-7.8,1-13.7
		c4-0.9,10.7-8.9,11.7-16.6c1.1-8.6-3.8-14.6-7.6-21.8c2-4.2,3.2-10.9,2.6-17.1c-0.5-5-2.3-9.5-4.2-13c7-2.2,10.7-7.9,11.4-12.2
		c1-5.7,1.9-16.5-7.5-22.4c-5.9-3.7-11.3-4.6-16.2-2.9C224.7,1030.8,220.9,1033.8,218.7,1039.3L218.7,1039.3z M131.1,1058.3
		c1.3,4.1,7.2,8.2,9.3,4.7c-4.6-0.7-6.2-4.8-5.5-8.7c0.6-3.5,3.1-7.2,6.8-6.7c7,0.8,11,11,7.7,17.5c-2.2,4.3-9.1,11.4-16.5,15.8
		c7.8-0.2,16.4-6.9,18.7-10.3c3.9-5.8,4.9-9.3,4.7-12.1c-0.7-7.9-5.5-14.2-14.1-14.9S128.2,1049.5,131.1,1058.3L131.1,1058.3z
		 M181.6,1070.6c7.8,2.9,14.1,1.7,15.3,11.3c0.6,4.7-4.7,3.5-2,7.7c-3.4,0.1-6.8,2-12.6,1.5c-3.7-0.4-13.7-4.8-14.7-7.8
		c-1.8,3.4,9.3,11.7,14.2,11.7c3.8,0,9.1,0.4,12.8-0.2c3-0.4,6.8-1.3,7.5-2.4c1.2-3.1-2-2.3-3.7-4.1c0-1.6,2.7-5.3,2.9-7.8
		c0.2-3.8-2.8-6.2-6-9.2c-5.1-4.9-20-5.9-25.5-6.4C171,1067.7,179.7,1069.9,181.6,1070.6L181.6,1070.6z M227.7,1070.5
		c-3.2,1.3-6.5,3.3-7.7,6.3c-1.7,4.1-1.7,10.4,1.7,13.6c2.7,2.6,6.7,4.7,11.9,5.7c-3.3-2.6-4.6-4-7.5-7c-2.4-2.4-3.6-5.3-3.5-8.3
		C222.7,1075.3,225.8,1073.8,227.7,1070.5L227.7,1070.5z"/>
	<path style="stroke:#FF0000;stroke-width:0.3543;" d="M229.5,1102.5c-4.9,0.1-11.3-4-15.8-2c-2.2,1-3.9,3.4-4.3,5.8
		c-0.3,1.8,0.3,4,1.5,5.3c2.8,3.1,8.4,2,11.6,4.6c1.4,1.1,1.6,3.4,3,4.3c2,1.2,4.6,2,6.8,1.3c2.7-0.9,3.5-4.6,5.8-6.3
		c2.4-1.8,5.7-1.5,7.3-4c1.6-2.6,2.4-6.4,0.8-8.9c-1.1-1.7-2.5-2-4.5-2.3C237.6,1099.7,233.7,1102.4,229.5,1102.5L229.5,1102.5z"/>
	<path color-rendering="auto" shape-rendering="auto" image-rendering="auto" d="M229.5,1101.2c-1.9,0-6.7-1.9-8.5-2.4
		c-4.2-1-7.1-0.2-10.8,1.9c-2.1,1.2-2.9,3.5-3.2,6.2c-0.3,2.3,0.8,4.4,2.6,5.8c2.5,1.8,7.9,3.1,10.7,4c1.9,0.6,1.9,4.1,3.4,5.3
		c3.2,2.5,5.6,2.8,9.5,1.4c1.9-0.7,3.6-4.8,5.3-5.9c3-2,6.6-2.4,8.6-5.5c1.8-2.9,2-7.1,0.5-10.2c-1.4-2.8-4.7-4.1-8-3.4
		C236.3,1099.2,232.8,1101.2,229.5,1101.2L229.5,1101.2z M243.7,1103.1c1.7,1.3,1.7,4.5,0.9,6c-1.5,3-7,3.7-8.6,5
		c-1.3,1.1-4.2,4.5-6.1,4.6c-1.9,0.1-4.3-1.8-5.4-3.2c-2-2.6-6.1-1.6-9-3.1c-2.3-1.2-4.4-4.9-3.5-6.9c1.4-3.1,9-3,11.2-2.2
		c3.9,1.4,7.9,0.8,12.3-0.9C237.5,1101.7,241.3,1101.3,243.7,1103.1L243.7,1103.1z"/>
	<path d="M192.2,1079.8c0,2.5-1.7,4.8-4.1,5.5c-2.4,0.7-5-0.3-6.4-2.4c-1.4-2.1-1.1-4.9,0.6-6.8c1.7-1.9,4.4-2.5,6.7-1.4
		c-1.6,1.5-2.9,3-3.6,6.3C186.5,1080,187.9,1078.2,192.2,1079.8L192.2,1079.8z"/>
	<path d="M232.9,1080.9c-0.6,2.8-2.8,5.2-4.1,5.5c-1.8,0.4-4.3,0.2-5.7-2c-0.7-1.8-0.6-4.7,0.1-7c1.7-1.9,4.2-2.7,6.5-1.6
		c-1.6,1.5-2,1.8-2.8,5.1C228,1079.8,228.5,1079.2,232.9,1080.9L232.9,1080.9z"/>
	<path color-rendering="auto" shape-rendering="auto" image-rendering="auto" d="M414.2,1012c-2.9,2.4-8.6,4.2-12,4.6
		c-3.4,0.4-7.3,0.6-11.1,2.9c-2.3,1.4-3.9,3.9-5.2,6c-1.3,2.2-3.2,7.1-3.2,7.1c3-3,3.2-4.7,5.6-7.1c1.9-1.8,3.5-3.5,4.4-4.1
		c2.8-1.7,6.1-2.1,9.5-3C407.6,1017,412.2,1017.4,414.2,1012L414.2,1012z"/>
	<path color-rendering="auto" shape-rendering="auto" image-rendering="auto" d="M421,1013.8c-3.5,1.8-4.3,1-7.4,3.4
		c-3.8,3-5.6,8.7-9.6,11.3c-5.3,3.5-12.4,0.4-19.6,5.1c3-0.3,5.8-1,8.3-1.3c2.3-0.3,9.4,1.1,13.1-0.9c4.5-2.4,4.8-9.8,9.4-12
		c5.6-2.7,14.7-9.9,13.7-11.4C428.9,1008.1,423,1012.8,421,1013.8L421,1013.8z"/>
</g>
</svg>
