<?xml version="1.0" encoding="utf-8"?>
<!-- Generator: Adobe Illustrator 22.1.0, SVG Export Plug-In . SVG Version: 6.00 Build 0)  -->
<svg version="1.1" id="Layer_1" xmlns="http://www.w3.org/2000/svg" xmlns:xlink="http://www.w3.org/1999/xlink" x="0px" y="0px"
	 viewBox="0 0 512 512" style="enable-background:new 0 0 512 512;" xml:space="preserve">
<style type="text/css">
	.st0{fill:none;stroke:#000000;stroke-width:3;stroke-miterlimit:10;}
</style>
<path class="st0" d="M169.3,222.9v2.4c0,21.2-17.3,38.5-38.5,38.5H88.3c-5.8,0-11.2-1.3-16.2-3.6c0-7.4,0-14.8,0.1-22.2
	c-3.2,0-6.3-0.4-9.5-0.4c0,5.5,0,10.9,0,16.4c-5.2-4.7-9.2-10.7-11.2-17.6h40c21.2,0,38.5-17.3,38.5-38.5v-2.4
	c0-3.8-0.6-7.6-1.7-11.1h2.5C152,184.4,169.3,201.7,169.3,222.9z"/>
<path class="st0" d="M1.5,452.1c0-6.1,0-12.1,0-18.2c1.3-0.6,1.1-2,1.4-3.1c2.1-9.6,6.5-18.1,13-25.4c8.3-9.4,18.8-15.1,30.9-18.2
	c4.3-0.1,8.7-0.2,13-0.2c114.1,0,228.1,0,342.2,0c4.3,0,8.7,0.1,13,0.2c1,0.3,2,0.6,3,0.9c25.7,7,42.9,29.8,42.3,56.2
	c-0.6,26.2-18.9,48.3-45,54.1c-1.2,0.3-2.7-0.1-3.6,1.3c-120.6,0-241.3,0-361.9,0c-0.8-1.3-2.3-1.1-3.5-1.4
	c-22.9-6-37.4-20.3-43.4-43.2C2.7,454,2.9,452.6,1.5,452.1z M82.3,438.5c-10.1,0-20.3,0-30.4,0c-3.2,0-5.8,0.8-5.7,4.4
	c0.1,3.5,2.7,4.3,5.9,4.3c20,0,40.1,0,60.1,0c3.1,0,5.8-0.8,5.7-4.4c0-3.6-2.8-4.3-5.9-4.2C102.1,438.6,92.2,438.5,82.3,438.5z
	 M223.2,438.5c-10,0-20,0-30,0c-3.1,0-5.8,0.6-5.9,4.2c-0.1,3.5,2.5,4.5,5.7,4.5c20.1,0,40.3,0,60.4,0c3,0,5.4-0.9,5.5-4.2
	c0.1-3.7-2.5-4.4-5.7-4.4C243.2,438.6,233.2,438.5,223.2,438.5z M364.2,438.5c-10.1,0-20.3,0-30.4,0c-3.1,0-5.8,0.7-5.8,4.3
	c0,3.5,2.7,4.4,5.8,4.4c20,0,40.1,0,60.1,0c3.1,0,5.8-0.8,5.8-4.3c0-3.6-2.7-4.3-5.8-4.3C384,438.6,374.1,438.5,364.2,438.5z"/>
<path class="st0" d="M483.7,206.5c-1.4,0.7-1.2,2.2-1.6,3.4c-4.7,15.7-18.8,26.5-35.2,26.9c-7.1,0.2-14.2,0.1-21.3,0
	c-2.7,0-5.2,0.2-7.6,1.6c-0.8-2.2-2.7-1.7-4.4-1.7c-8.8,0-17.7,0-26.5,0c-17.9,0-33.8-14.6-35.8-32.3c-1.3-10.9-0.4-21.9-0.7-32.8
	c-0.1-4,0.6-7.9,1.4-11.7c1.7-8.7,7-15.2,12.9-21.4c3-1.6,5.9-3.4,9.1-4.7c5.8-2.4,11.9-3.2,18.1-3.2c20.8,0.2,41.6-0.8,62.3,0.7
	c1.3,0.5,2.6,1.1,4,1.6c12.2,4.6,20.2,13.1,24,25.7c0.4,1.5,0.1,3.2,1.3,4.4C483.7,177.5,483.7,192,483.7,206.5z"/>
<path class="st0" d="M1.5,452.1c1.4,0.6,1.1,2,1.4,3c5.9,22.9,20.4,37.2,43.4,43.1c1.2,0.3,2.7,0,3.5,1.4c-15.2,0-30.5-0.1-45.7,0.1
	c-2.2,0-2.6-0.4-2.6-2.6C1.6,482,1.5,467,1.5,452.1z"/>
<path class="st0" d="M420.4,370.4c1.6,3,3.9,5.6,2.9,9.7c-1.2,4.6-3.9,6.6-8.3,7c-4.3-0.1-8.7-0.2-13-0.2c-114.1,0-228.1,0-342.2,0
	c-4.3,0-8.7,0.2-13,0.2c-3.9-1.6-8-0.4-12-0.7c-3-0.3-6.5,1-8.2-2.9c-1.8-4-1.7-7.9,1.2-11.5c0.4-0.5,0.8-1,1.2-1.6
	C159.3,370.4,289.8,370.4,420.4,370.4z"/>
<path class="st0" d="M82.3,438.5c9.9,0,19.8,0,29.6,0c3.1,0,5.8,0.6,5.9,4.2c0,3.6-2.6,4.4-5.7,4.4c-20,0-40.1,0-60.1,0
	c-3.1,0-5.8-0.8-5.9-4.3c-0.1-3.5,2.6-4.4,5.7-4.4C62,438.6,72.2,438.5,82.3,438.5z"/>
<path class="st0" d="M223.2,438.5c10,0,20,0,30,0c3.1,0,5.7,0.7,5.7,4.4c-0.1,3.4-2.5,4.2-5.5,4.2c-20.2,0-40.3,0-60.4,0
	c-3.2,0-5.8-1-5.7-4.5c0.1-3.6,2.8-4.2,5.9-4.2C203.2,438.6,213.2,438.5,223.2,438.5z"/>
<path class="st0" d="M364.2,438.5c9.9,0,19.8,0,29.6,0c3.1,0,5.8,0.8,5.8,4.3s-2.7,4.3-5.8,4.3c-20,0-40.1,0-60.1,0
	c-3.1,0-5.8-0.8-5.8-4.4s2.7-4.3,5.8-4.3C344,438.6,354.1,438.5,364.2,438.5z"/>
<path class="st0" d="M420.4,370.4c-130.5,0-261,0-391.5,0c-4.8-1.3-9.6-2.8-13.1-6.7c-5.4-6.1-6.7-13-3.9-20.5
	c2.8-7.4,8.5-11.4,16.3-12.4c1.2-0.1,2.4,0,3.4-0.7c0.3-0.1,0.6-0.1,0.8-0.2c2.2,0.1,4.5,0.3,6.7,0.3c118.1,0,236.2,0,354.3,0
	c8.4,0,16.9,0,25.3,0.1c0,4.2,0,8.4,0.1,12.6c0.1,4.4,2.8,7.4,6.6,7.4c3.7,0,6.1-2.8,6.2-7.2c0.1-4.2,0-8.4,0-12.6
	c3.6-0.1,7.3-0.2,10.9-0.2c3.6,1.3,7.2,2.2,10.3,4.7c6.4,5.3,9,13.8,6.3,21.7c-2.7,7.8-9.6,12.8-18,13.1
	C434.3,370,427.3,369.1,420.4,370.4z"/>
<path class="st0" d="M419.2,237.6c4.2-0.4,8.4-0.8,12.6-1.2c0.1,13.9,0.2,27.9,0.2,41.8c0,9.9,0,19.7,0.1,29.6c0,7.6,0,15.1,0,22.7
	c0,4.2,0.1,8.4,0,12.6c-0.1,4.4-2.5,7.2-6.2,7.2c-3.8,0.1-6.5-2.9-6.6-7.4c-0.1-4.2-0.1-8.4-0.1-12.6c0-0.3,0-0.7,0-1
	c0-7.1,0-14.3,0-21.4C419.1,284.5,419.1,261,419.2,237.6z"/>
<path class="st0" d="M418.9,329.3c0,0.3,0,0.7,0,1c-8.4,0-16.9-0.1-25.3-0.1c-118.1,0-236.2,0-354.3,0c-2.2,0-4.5-0.2-6.7-0.3
	c1.8-1.1,3.9-0.6,5.8-0.6C165.2,329.3,292,329.3,418.9,329.3z"/>
<path class="st0" d="M72.2,238c0,7.4,0,14.8-0.1,22.2c0,23.2,0,46.4,0,69.6c-12.9,0.4-12.4,2.1-9.4-27.1c-0.1-16.3,0-32.5,0-48.8
	c0-5.5,0-10.9,0-16.4C65.9,237.6,69,238,72.2,238z"/>
<path class="st0" d="M130,195.5v2.4c0,21.2-17.3,38.5-38.5,38.5H49c-21.2,0-38.5-17.3-38.5-38.5v-2.4c0-21.2,17.3-38.5,38.5-38.5
	h42.5c17.3,0,32.1,11.6,36.8,27.4C129.4,187.9,130,191.7,130,195.5z"/>
<rect x="95" y="263.8" class="st0" width="9" height="65.4"/>
</svg>
