<?xml version="1.0" encoding="utf-8"?>
<!-- Generator: Adobe Illustrator 22.1.0, SVG Export Plug-In . SVG Version: 6.00 Build 0)  -->
<svg version="1.1" id="Layer_1" xmlns="http://www.w3.org/2000/svg" xmlns:xlink="http://www.w3.org/1999/xlink" x="0px" y="0px"
	 viewBox="0 0 512 512" style="enable-background:new 0 0 512 512;" xml:space="preserve">
<path d="M238.7,115.6c-15.2,0.6-25.1,11.2-35.6,20.3c-10.5,9.1-21.8,16.6-34.9,20.3c-13.3,4.5-23.7,13.3-33.4,23.1
	c-13.8,5.8-30.3,15-46,19.9c-7.8,2.8-14,8.2-19.9,13.8c-5.7,6.3-10,14-10,21.8l0.5,0.5c0-6.4,7.1-13.8,12.4-19.7
	c5.2-5.8,11.9-12.8,17.8-15c13-3.1,24.9-6.9,36.7-13c-7.7,9.3-9.8,18.6-16.9,28.4c-12.2,16.2-24.4,32.1-34,50
	c-3.3,5.6-11.9,18.2-20.9,29.8c-6.6,8.8-12.7,20.1-21.7,26.3l0.4,0.7c10.1-5.7,17.2-15.7,24.3-24.7c9.1-11.7,17.3-25,20.7-31
	c7.6-18.2,21.3-34,32.8-50.3c16.8-23.1,30.9-46.7,58-56.5c13.9-4,24.7-14.5,35.4-23.7c12.3-10.8,26.6-19,42.1-9.4
	c8.1,2.1,14.9,1.7,18.8,9.7c6,6.6,11.2,13.7,15.8,21.1c0.4,0.7-11.8,14.7-18.1,34c-6.7,20.4-7.7,46.1-7.3,46.8
	c0.3,0.4,1.4-14.1,3.7-26c0.3-1.5,6.7,10,7,8.5c0.3-1.1-5.9-11.4-5.6-12.5c1.3-5,2.7-10,4.5-14.5c7.3-18,18.1-33,18.5-32.3
	c7.8,13.9,16.7,33.4,23.2,48h0.1v0.1c24.7,41.7,36.4,84.2,36.1,132.5c1.1,16.8,7.9,40,15.6,54.7l2.3-1.8c-5.8-7-12.1-24.1-12.3-36
	c0-1.1,6.6,1.1,18.3,3.8c1.3,0.3-1.7,16.3-0.5,16.6c3.2,0.7,3-16.2,5.8-15.6c7.2,1.6,12.6,2.6,12.5,1.9c-0.3-2.8-22.8-5.1-36.3-11.9
	c-3.8-1.9-1.6-11-1.7-11.7c1.3-48.4-15.8-91.5-38.1-133.3c-10.8-26.5-22.3-52.2-40.5-74.2c6.2,2.2,12.2,4.8,18.3,7.1
	c17.8,1,34.5,5.3,51,11.6c0.8,0.1,4.9,12.3,15.7,23.2c17.2,17.4,43.7,36.5,44.9,36.7c1.1,0.2-28.1-20.8-43.3-38
	c-8.4-9.6-11.9-20.8-11.3-20.7c28.7,5.8,59,21.7,83.9,36.8c-0.9,5.3-3.3,14-5.8,23.2c-2.6,9.6-5.2,19.7-5.8,27.6
	c1.8,17.9-3.4,35.2-8,52.3l0.8,0.2c4.3-17,13-33.7,11-52.2c0.6-7.4,3.2-17.4,5.7-26.9c2.3-8.3,5.2-13.1,6.3-18.8
	c4.9,4.8,6.8,8.2,9.3,14.4c2.4,6.3,5,13,10.5,18.9c3.9,2.8,7.8,5.7,11.4,8.9c1.3,1.1-3.5,18-2.3,19.2c1,0.9,4.5-18.4,5.5-17.4
	c3.1,3.2,9.3,10.9,11.8,14.5l0.8-0.6c-6.5-10.6-14.4-19.5-24.5-27.2c-4.8-5-7.3-11.4-9.8-17.8c-2.4-6.3-5-13-10.5-18.7
	c-27.7-22.1-61-32-95-39.6c-17.3-7.8-36-11.4-54.6-14.7c-10.2-3.7-19.4-9.1-28.4-15.3L238.7,115.6L238.7,115.6z M177.8,196.2
	l2.6,2.6c-8.2,7.3-16.1,14.7-25.5,21.3c-3.8,5-5.5,10.8-7.5,16.4c-14.7,18.6-27.2,42.5-40.8,63.9c1.7,13.1-0.7,25.2,5.5,39.4l-4.5,1
	l-7.3-16.8l1.2-25.9l42.7-68.7c3.9-6.6,5-14.1,12.9-19.5L177.8,196.2L177.8,196.2z M69.8,323.8c7,0.2,10.9,5,14.9,10.2
	c7.6,4.3,27.8,8.7,13.2,16.1c-6.5,0.1-14.5,0.9-18.7-1.2H79c-7.7-2.4-19.3-1.7-23.6-8.5C55.2,333.3,62.8,325.7,69.8,323.8z
	 M222.1,329.7c-1.1,0-2.3,0-3.5,0.1c-15.5,12-14.4,26.1-6.9,42.5c8.5,4.9,19.1,5.8,28.8,6.4h0.4c10.1-2.4,16.4-0.7,23,1.7
	c6.6,2.4,10.8,4.5,21.2,4.6c20.2-3.1,32.6-10.2,24.9-30.6c-5.8-8.1-10.2-12-15.7-13.8s-19.9,7.3-29.3,7.4
	C248.3,342.6,238.8,329.9,222.1,329.7L222.1,329.7z M222.9,333.4c16.1-0.5,25.7,11.8,41.8,16.4c4.4,0.1,17.1-6.7,21.6-6.6
	c-9.3,6.5-7.2,13.4-38.6,22.3l0.5,0.5c16.5-1.8,34.3-15.6,44.9-21.8c4.5,1.4,8.2,4.7,13.8,12.5c10.2,15.2-1.9,24.6-16.7,26.2
	c-8,0-17.6-3.3-25-6.1c-6.7-2.4-14.1-4.1-24.7-1.8c-9.1-0.3-18.2-3.2-27.5-3.7c-9.6-13.6-4.6-26.9,6.6-37.8
	C220.8,333.5,221.9,333.5,222.9,333.4L222.9,333.4z"/>
<path style="fill:none;stroke:#000000;stroke-miterlimit:10;" d="M218.3,162.8c-5.4,5.4-8.2,13.8-14.7,16.4
	c-0.8,1.9-10.2,12.8-12.5,10.6c-3.5-3.4-0.5-20.9-2.9-19.1c1.5,6.2-2.5,23.5-4.9,27c-2.8-2-4.9-2.8-9.4-2.7c-4.9,5.2-11,9.6-18,12.6
	c-8.3,3.8-11.8,11.5-14.8,19.7c-8.5,24.7-29,42.5-41.2,66.4c-0.2,0.5-4,0.5-8.5,0.4c-0.9,0-2.1-9.2-3-9.2c-1.2,0,0.8,9.1-0.5,9.1
	c-5.2-0.1-12.9-0.2-13.1,0.4c-0.1,1.3,23.8,2.2,23.7,3.5c-0.3,7.4-1,18.2-1,25.6c0.2,4.7,0.9,9.2,2.4,13c-4.4-2.3-9.4-4-12.6-5
	c-3.3-5.5-8-9.7-13.5-11c-12.8-0.8-19.6,8.4-19.9,19.4c3.4,9.1,15.2,9.6,23.6,12.6c6.4,2.5,13.9,1.7,20.9,1.4c4.6-0.8,6.9-4,9.7-7.4
	c0.2-0.7-0.2-3.1-0.4-3.8c8.4-2.3,17.6,0.1,26.2,1.8c7.6,2.4,15.1,6.6,23,10.6l36.6,5.4l4.8,8.1l-5.5,11l6.7-9.8l16.6,24.2
	c0.2-0.4-3.7-7.9-6.9-14.2c-0.5-0.9,8.5,0.8,8-0.2c-0.4-0.8-8.8-2.1-9.3-2.9c-4.6-7-9.5-17-9.3-18.9c2.7-24.4,5.6-46,4.3-68.9
	c3.4-24.8-2.5-48.8-9.5-72.3c-0.8-5.2-1.2-3.9-3.6-8.7c-0.2-3.5,3.3-12.6,6.2-14.9c1.6-1.2,1.6-4.1,3.2-5.5
	c20.8,3.6,42.8-2.4,60.9-13.2l-2.3-0.7c-15.6,11.4-38.1,13.8-54,12.4c1-1.3,2-2.7,2.7-4.3h0.1c0.1-0.2,0.2-0.3,0.2-0.5
	c2.3-3.2,4.3-6.7,6.2-9.5L218.3,162.8L218.3,162.8z"/>
</svg>
