<?xml version="1.0" encoding="utf-8"?>
<!-- Generator: Adobe Illustrator 22.1.0, SVG Export Plug-In . SVG Version: 6.00 Build 0)  -->
<svg version="1.1" id="Layer_1" xmlns="http://www.w3.org/2000/svg" xmlns:xlink="http://www.w3.org/1999/xlink" x="0px" y="0px"
	 viewBox="0 0 512 512" style="enable-background:new 0 0 512 512;" xml:space="preserve">
<g transform="translate(-107.34 -116.37)">
	<path style="fill:none;stroke:#000000;stroke-width:4;" d="M189.9,561.6l0.9-3l2.8,1.3l0.4-15.1l-1.8-1h0l0.6-3.5l-2.4-1.8V537
		l-29.7-6.2l11.5-316v0l62.8-6.2l21.3,13.2l0,0l-9.5,307.6l-21.7,14h0l-9.8-0.3l-0.3,2.1l-2.2-0.4l-0.1,16.6"/>
	<path style="fill:none;stroke:#000000;stroke-width:4;" d="M168.8,521.1l48,9l3.7-98.6l0,0l-50-5.6l0,0L168.8,521.1L168.8,521.1z"
		/>
	<path style="fill:none;stroke:#000000;stroke-width:4;" d="M243.1,520.5l-13.2,8.7l0.6-74.5l1-24.2l11.7-3.8L243.1,520.5
		L243.1,520.5z"/>
	<path style="fill:none;stroke:#000000;stroke-width:4;" d="M232.5,423.8l2.8-97.7l12.9,1.6l-2.8,93L232.5,423.8L232.5,423.8z"/>
	<path style="fill:none;stroke:#000000;stroke-width:4;" d="M236.3,319.4l3.1-98.3l13.2,8.7l-3.7,92.4L236.3,319.4L236.3,319.4z"/>
	<path style="fill:none;stroke:#000000;stroke-width:4;" d="M173.3,318.4l50.7,0.7l4.1-99.6l-51.1,4.4L173.3,318.4L173.3,318.4z"/>
	<path style="fill:none;stroke:#000000;stroke-width:4;" d="M173.5,324.5l-3.1,95.6l51,5.9l2.8-100.7L173.5,324.5L173.5,324.5z"/>
	<path style="fill:none;stroke:#000000;stroke-width:4;" d="M315.1,463.9l3.8-162.4l-64-27.6"/>
	<path style="fill:none;stroke:#000000;stroke-width:4;" d="M324.8,464.3l3-163.9l105.2-1.6l-32.2-114.9l-165.1,16.3l-8.4,9.5"/>
	<path style="fill:none;stroke:#000000;stroke-width:4;" d="M256.6,230.9l151.2-10.1"/>
	<path style="fill:none;stroke:#000000;stroke-width:4;" d="M256.6,234.3l153.1-9.8l-2.1-4"/>
	<path style="fill:none;stroke:#000000;stroke-width:4;" d="M256.3,223.4h0.7l149.9-7.4l0.7,5.5"/>
	<path style="fill:none;stroke:#000000;stroke-width:4;" d="M388,216.6l-12.7-30.3"/>
	<path style="fill:#212121;stroke:#000000;stroke-width:4;" d="M393.3,226.2l30.2,72.6"/>
	<path style="fill:none;stroke:#000000;stroke-width:4;" d="M314.5,294.6l-7.2-3.3l-52.4-24.4"/>
	<path style="fill:none;stroke:#000000;stroke-width:4;" d="M255.8,255.6l10.6,6.4c28.4-20.3,45.4-21.9,64-26"/>
	<path style="fill:none;stroke:#000000;stroke-width:4;" d="M272.5,265.6c19.9-15.9,41.4-21.4,63.3-24.4h0.1l17.3,18.5
		c-14-0.4-29.4,1.5-54.7,19.4L272.5,265.6L272.5,265.6z"/>
	<path style="fill:none;stroke:#000000;stroke-width:4;" d="M304.9,282.5c18.8-15.2,36.7-17.7,51.7-19.5l10.6,10.5
		c-13.1,0.4-27.6,3.2-44.8,15.7H318L304.9,282.5L304.9,282.5z"/>
	<path style="fill:none;stroke:#000000;stroke-width:4;" d="M326,230.9l0.9,0.9l3.8,4"/>
	<path style="fill:none;stroke:#000000;stroke-width:4;" d="M314.4,220.5l-11.2-13.7c-16.1,0.6-31.8,7.3-47.4,14"/>
	<path style="fill:none;stroke:#000000;stroke-width:4;" d="M248.6,215.7c14.1-7.5,29.6-13.4,48.5-15.4l-3.8-5.6"/>
	<path style="fill:none;stroke:#000000;stroke-width:4;" d="M300.5,194.5l0.7,0.6l3.3,4c23.7-2.1,48.1-0.1,74.5,12L368,187.6"/>
	<path style="fill:none;stroke:#000000;stroke-width:4;" d="M310.2,207.1c16,0.1,23.2-5.6,63.4,10.3"/>
	<path style="fill:none;stroke:#000000;stroke-width:4;" d="M332.5,229.9l4,5.3c20.3-2,40,1.8,59.1,10.1"/>
	<path style="fill:none;stroke:#000000;stroke-width:4;" d="M399.3,253.8c-19.7-9.9-38.2-14.2-55.6-12.7l14.9,16.9
		c13.7-0.3,28.2,0.7,47.7,9.8L399.3,253.8z"/>
	<path style="fill:none;stroke:#000000;stroke-width:4;" d="M362.8,262.5l9.6,10.2c10.3-1.9,23.8,1.6,39.2,8.4l-1.6-7.2
		C388.8,263.4,375.1,262.1,362.8,262.5L362.8,262.5z"/>
	<path style="fill:none;stroke:#000000;stroke-width:4;" d="M313.6,294.2l4.6,6.8"/>
	<path style="fill:none;stroke:#000000;stroke-width:4;" d="M395.5,245.5l-8.4-19.7"/>
	<path style="fill:none;stroke:#000000;stroke-width:4;" d="M310.7,207.2l11.8,12.4"/>
	<path style="fill:none;stroke:#000000;stroke-width:4;" d="M327.5,294.5l89.1-1.8C402,275.3,356.8,268,327.5,294.5z"/>
	<path style="fill:none;stroke:#000000;stroke-width:4;" d="M400.8,162.9h-20.4C332,138.5,234,106.5,137.7,193.1l-14.5,1.8"/>
	<path style="fill:none;stroke:#000000;stroke-width:4;" d="M380.1,162.6l-22.2,1.2c-56.5-21.7-116-36-206.6,26.9l-14.2,2.4"/>
	<path style="fill:none;stroke:#000000;stroke-width:4;" d="M122.3,193.6V214l49.7,21.9"/>
	<path style="fill:none;stroke:#000000;stroke-width:4;" d="M171.7,224.4L141,212.6l49.7-7.1"/>
	<path style="fill:none;stroke:#000000;stroke-width:4;" d="M179.1,214.3l-10.6-5.6"/>
	<path style="fill:none;stroke:#000000;stroke-width:4;" d="M122.3,213.7l19.8-1.5"/>
	<path style="fill:none;stroke:#000000;stroke-width:4;" d="M316,463.3c4.5,4.2,6.6,1.9,8.9,0"/>
	<path style="fill:none;stroke:#000000;stroke-width:4;" d="M400.2,184.5l0.6-22.2l31,121.8l1.5,13.9"/>
	<path style="fill:none;stroke:#000000;stroke-width:4;" d="M356.5,164.4l-117.1,13.3"/>
	<path style="fill:none;stroke:#000000;stroke-width:4;" d="M149.5,191l39.3-5.9"/>
	<path style="fill:none;stroke:#000000;stroke-width:4;" d="M198,211.2c-6.8-4.6-10.8-12.9-9.7-22.3c1.6-14.5,14.5-26.2,28.7-26.2
		s24.5,11.7,22.9,26.2c-0.8,7.5-4.6,14.2-10.1,19"/>
	<path style="fill:none;stroke:#000000;stroke-width:4;" d="M292,474.8l0.1-14l2.4-3l8.9-6v-2.3l-11.5-0.2l0.5-6.7l-5.9-10.9
		c-2.4-3.8-4.9-3.7-7.5-3.7l-29.8,16.2"/>
	<path style="fill:none;stroke:#000000;stroke-width:4;" d="M289.1,475.2l0.4-14.9l-41,23.8"/>
	<path style="fill:none;stroke:#000000;stroke-width:4;" d="M249.5,447.9l28.1-16c2.5-2,4.5-1.6,6.1,0.9l6.1,12l0.1,3.2l-1.2,0.4
		l-0.4,1.6L248.7,473"/>
	<path style="fill:none;stroke:#000000;stroke-width:4;" d="M212.9,561l-0.2,53.4"/>
	<path style="fill:none;stroke:#000000;stroke-width:4;" d="M189.8,561.4l-0.1,55.2"/>
	<path style="fill:none;stroke:#000000;stroke-width:4;" d="M237.9,210.2l0.1-0.7l-2.2-3.8c4.5-2.1,4.4-3.8,4.7-5.5"/>
	<path style="fill:none;stroke:#000000;stroke-width:4;" d="M192.7,213.3c-1.7-1.9-2.9-0.2-5.3-7.4"/>
	<path style="fill:none;stroke:#000000;stroke-width:4;" d="M189.2,616.1c20.8,12.7,23.6-3.3,23.7-3.5"/>
	<path style="fill:none;stroke:#000000;stroke-width:4;" d="M289.1,474.8c3.8,0.3,3.8-0.3,3.8-0.3"/>
</g>
</svg>
