<?xml version="1.0" encoding="utf-8"?>
<!-- Generator: Adobe Illustrator 22.1.0, SVG Export Plug-In . SVG Version: 6.00 Build 0)  -->
<svg version="1.1" id="Layer_1" xmlns="http://www.w3.org/2000/svg" xmlns:xlink="http://www.w3.org/1999/xlink" x="0px" y="0px"
	 viewBox="0 0 89 90.5" style="enable-background:new 0 0 89 90.5;" xml:space="preserve">
<path shape-rendering="auto" image-rendering="auto" color-rendering="auto" d="M71.3,32.4c0.2,0.8,0.3,1.9-0.8,2.2
	c0,0.8,0.2,1.8-0.2,2.2c-0.3,0.3-1.2,0.3-1.7,0.4c-0.2,0.6-0.1,1.2-0.2,1.9c-0.1,0.5-0.9,0.5-1.4,0.4c-0.3,0.7-0.5,1.6-0.9,1.8
	c-0.5,0.2-1.5,0.1-2,0.3c0,0.5-0.1,1.3-0.7,1.4c-0.7,0.2-1.4,0-2.1,0.3c1.8,0.7,2.2,0.6,3,0.3c0.5-0.2,0.4-0.9,0.6-1.2
	c0.8-0.1,1.6-0.2,2.1-0.8c0.4-0.4,0.3-0.8,0.5-1.2c0.4,0,1.2-0.2,1.4-0.4c0.2-0.3,0.6-1.2,0.1-2.2c1.5,0.2,1.9,0.2,2.2-1
	c0.1-0.5-0.1-1-0.4-1.7c0.5-0.2,1-0.8,1-1C71.9,33.4,71.7,33,71.3,32.4L71.3,32.4z"/>
<g shape-rendering="auto" transform="matrix(1.0886 0 0 1.0886 -3.5562 -86.592)">
	<path image-rendering="auto" color-rendering="auto" d="M47.5,120.8c1,1,2.5,2.1,2.6,3.7c0,0.7-0.7,1.3-1.2,1.8
		c-0.1,0.7-0.2,1.7-0.6,2.3c-0.6,0.9-1.5,1.3-1.7,1.5c0.1,0.9,0.4,1.4,0.2,2.2c-0.2,0.8-0.8,1.9-0.9,2.5c-0.2,1.2-1.2,2.7-2.3,2.6
		c0,0.8-0.4,1.4-0.7,2c-0.5,0.9-1.2,1.5-1.9,1.9c1.5-0.2,2.7-1.6,3.1-3.4c0.7,0.3,1.3-0.5,1.7-1.2c0.4-0.6,0.7-1.5,0.9-2.2
		c0.4-1.3,1.1-2.8,0.6-4.2c0.6-0.2,1.4-0.6,1.8-1.4c0.4-0.7,0.4-1.8,0.5-2.5c0.7-0.4,1.2-0.9,1.3-1.6
		C51,123.6,49.7,121.9,47.5,120.8L47.5,120.8z"/>
	<path image-rendering="auto" color-rendering="auto" d="M39.5,122c-0.8,0.4-1.6,0.7-2.5,0.6c-0.3,0-0.7-0.1-1-0.2
		c0.8,0.8,2.4,1,3.1,0.7c0.3-0.1,0.6-0.3,1.3-0.5c1.4-0.3,2.8,0.2,3.5-0.6c-0.6-0.1-1.2,0-1.9-0.1C41.2,121.9,40.3,121.6,39.5,122
		L39.5,122z"/>
</g>
<path shape-rendering="auto" image-rendering="auto" color-rendering="auto" d="M39.9,41.8c-0.6,0-1.2,0.3-1.7,0.6
	c-0.7,0.4-1.3,0.9-1.8,1.5c-1,1.1-1.5,1-2.3,1.8c0.9-0.2,2-0.6,2.8-1.1c0.5,0.7,1.3,1.1,2.1,1.1c1.4-0.1,2.7-1.1,3.4-1.5
	c0.7-0.3,1.4-0.4,1.6-0.3c0.9,0.5,1.4,1.3,2.5,1.1c-0.9-0.6-1.4-1-2.3-1.8c-0.2-0.2-0.8-0.1-1.1,0c-0.3,0.1-0.6-0.1-0.7-0.2
	C41.9,42.2,40.9,41.9,39.9,41.8L39.9,41.8z M39.7,42.5c0.8-0.1,2,0.5,2.6,1c-0.8,0.4-2.1,1.2-3.1,1.4c-0.6,0.1-1.2-0.5-1.6-1
	C38.3,43.4,38.9,42.7,39.7,42.5L39.7,42.5z"/>
<path shape-rendering="auto" image-rendering="auto" color-rendering="auto" d="M11.8,44.6c-0.7,0.5-0.3,0.5-0.8,1.2
	c-0.2,0.4-0.6,0.5-0.6,1c0,0.6,0.4,0.9,0.8,1.1c-0.3-0.5,0.6-2.4,1.1-2.6c0.2-0.2,0.1-0.8,0.4-1.1c0.3-0.3,1-0.3,1.3-0.5
	C12.9,43,12.6,43.1,11.8,44.6L11.8,44.6z"/>
<g shape-rendering="auto" transform="matrix(1.0886 0 0 1.0886 -3.5562 -86.592)">
	<path image-rendering="auto" color-rendering="auto" d="M34.5,130.4c-1.2,0.2-2,1.1-2.7,2c-0.9,1.3-1.9,2.6-3.3,3.5
		c-0.5,0.3-1,0.6-1.5,0.8c1.1,0.5,3-0.9,3.7-1.6c0.8-0.8,1.3-1.7,2-2.6c0.5-0.7,0.9-1.1,1.8-1.4c1-0.3,1.5-0.4,2.3-0.5
		C36,130.6,35.3,130.3,34.5,130.4z"/>
	<path image-rendering="auto" color-rendering="auto" d="M34.1,133.4c-0.6,0.4-1,1.1-1.5,1.6c-0.5,0.6-1.5,1.6-1.7,2.4
		c0.8-1,1.3-1.3,2.2-2.1c0.4-0.3,0.9-1.2,1.3-1.5c0.6-0.3,1.2-0.3,1.8-0.4C35.2,133.3,34.7,132.9,34.1,133.4L34.1,133.4z"/>
</g>
<g shape-rendering="auto" transform="matrix(1.0886 0 0 1.0886 -3.5562 -86.592)">
	<path image-rendering="auto" color-rendering="auto" d="M36.1,118.4c-0.4,0.4-1.2-0.1-1.7,0.2c-1.2,0.6-3,1-3.1,1.3
		c0,0.2,0.8,0.3,1.1,0.3c1,0,1.5-1,2.5-1c0.4,0,1.2,0.5,1.4,0.2c0.7-0.8,1.4-1.9,2.4-2.2c1-0.3,1.9,0.4,2.9,0.7
		c0.4,0.1,0.8,0.7,1.2,0.5c0.8-0.3,1.8-0.5,2.6-0.1c0.8,0.3,1.5,0.8,2.3,1.1c0.7,0.3,1.4,0.4,2.1,0.6c-1.2-0.8-2.3-1.5-3.2-2.1
		c-0.5-0.3-1-0.4-1.5-0.6c-0.8-0.2-1.6-0.1-2.4,0.2c-1.1-0.6-2.3-1.2-3.6-1.3c-0.2,0-0.5,0-1.1,0.2
		C37.6,116.7,36.9,117.6,36.1,118.4L36.1,118.4z"/>
	<path image-rendering="auto" color-rendering="auto" d="M57.3,86.9c-0.8-0.2-1.4,0.2-1.4,0.8c0.5-0.3,0.9-0.4,1.2-0.3
		c0.3,0.1,0.6,0.8,0.6,1.2c0.4-0.2,1.1-0.2,1.6,0c0.4,0.1,0.9,0.2,0.5,0.9c0.9,0.5,1.1,0.3,1.9,1.1c-0.1,0.3-0.2,0.8-0.1,0.9
		c0.2,0.3,0.5,0.1,0.9,0.3c0.2,0.4-0.2,0.9-0.5,1c0.2,0.2,0.9,0.9,0.8,1c-0.1,0.2-0.7,0.3-0.7,0.8c0,0.4,0.5,1.2,0.4,1.4
		c-0.2,0.6-1.2,0.5-1.8,1c-0.6,0.4-0.3,1.5-0.6,1.8c-0.1,0.1-0.9,0-1.2,0.1c-1,0.4-0.9,0.7-1.3,1.3c-0.2,0.1-1.4,0.4-1.6,0.5
		c-0.4,0.3-0.4,0.7-0.7,1.4c-0.4,0.1-1.3,0.2-1.6,0.4c-0.7,0.5-0.7,1.2-0.7,1.7c-0.5,0.1-1.5,0.5-1.8,0.7c-0.5,0.5-0.6,1.3-0.8,1.9
		c-0.5,0.2-1.6,0.4-2,0.9c-0.3,0.4-0.3,1.3-0.2,1.9c-0.6,0.5-1,0.7-1.4,1.6c-0.2,0.5,0,1.7,0.5,2.5c0-1.2-0.4-1.7,0.2-2.4
		c0.4-0.5,1-1,1.5-1.3c-0.2-0.6-0.4-1.5,0-1.8c0.4-0.3,1.6-0.6,2-0.7c0.3-0.8,0.2-1.1,0.6-1.9c0.4-0.7,1.2-0.6,1.8-0.7
		c0.1-0.6,0.1-1.4,0.5-1.8c0.3-0.3,1.4-0.4,1.8-0.4c0.1-0.6,0.2-1.1,0.6-1.4c0.2-0.1,1.3-0.5,1.6-0.4c0.6-0.5,0.1-0.8,0.9-1.2
		c0.6-0.3,1.8,0.2,2.1-0.1c-0.1-0.6-0.2-1.5,0.3-1.9c0.5-0.5,1-0.7,1.8-1.1c0.2-0.4-0.5-1.1-0.4-1.6c0.1-0.2,0.7-0.7,0.8-1
		c0.1-0.2-0.4-0.8-0.9-0.9c0.3-0.4,0.6-1,0.5-1.3c-0.1-0.4-0.7-0.4-1-0.6c0.1-0.5,0-1-0.3-1.3c-0.5-0.3-1.3-0.2-1.3-0.6
		c0.1-0.4-0.1-0.8-0.5-1c-0.6-0.3-1.5-0.5-2.2-0.2C58.1,87.3,57.7,86.9,57.3,86.9L57.3,86.9z"/>
	<path image-rendering="auto" color-rendering="auto" d="M65.4,91.4c0.3,0.4,0,1.4,0.2,1.7c0.2,0.2,0.5,0.6,0.5,0.8
		c0.1,0.5-0.3,0.8-0.9,1.1c0.5,0.6,1.1,0.9,1.1,1.9c-0.1,1.4-1.7,1.5-2.2,2.2c-0.7,0.9-0.1,1.4,0.2,2.1c-0.6-0.1-1.4-0.3-1.8,0.4
		c-0.3,0.6-0.3,1.3,0.1,1.9c-0.7,0.1-1.1-0.5-1.7,0.4c-0.5,0.7-0.2,1.2,0,1.7c-0.7,0-1.1-0.8-2,0.2c-0.7,0.8-0.1,1.6,0.1,2.1
		c-0.5-0.2-1-0.8-1.9,0.1c-0.6,0.6-0.3,1-0.1,1.6c-0.6-0.2-1.1-0.4-2,0.5c-0.8,0.8-0.7,1.7-0.4,2.4c-0.4-0.1-1.7-0.6-2.3-0.2
		c-0.7,0.5-0.9,1.7-0.5,2.4c0.3-0.9,0.5-1.2,0.9-1.7c0.5-0.6,1.7,0,2.4,0.1c0.1-0.9-0.2-2.3,0.9-2.4c0.7-0.2,0.9-0.5,1.5-0.6
		c0.1-0.4-0.2-1.1,0-1.5c0.3-0.4,1.2-0.4,1.7-0.3c0.5,0,0.1-1.3,0.3-1.7c0.5-0.7,0.9-0.3,1.9-0.8c0.1-0.4-0.1-1,0.1-1.4
		c0.2-0.3,1.2-0.5,1.7-0.5c-0.4-0.5-0.3-1.6-0.1-1.9c0.3-0.4,1.3-0.3,1.8-0.5c-0.4-0.8-0.5-1.2-0.1-1.8c0.3-0.5,0.9-0.4,1.4-0.9
		c0.5-0.6,1-0.8,0.9-1.7c-0.1-1.2-0.4-1.8-0.9-2c0.3-0.3,0.9-0.9,0.9-1.5c0-0.3-0.2-0.7-0.7-1c-1-3.5-2.4-2.5-2.8-2.4
		C64.6,90.4,65,90.7,65.4,91.4L65.4,91.4z"/>
	<path image-rendering="auto" color-rendering="auto" d="M43.3,105.5c-0.5,0.5-0.4,1.3-0.4,2c-0.6,0.2-1.4,0.3-1.7,1
		c-0.2,0.3,0,1.2,0.2,1.9c-0.6,0.2-1.6,0.1-1.8,0.9c-0.2,0.7,0.2,1.5,0.7,2.5c-0.2-1-0.4-1.7-0.2-2.3c0.2-0.8,1.2-0.7,1.7-0.9
		c-0.1-0.6-0.2-1.5,0.2-2c0.3-0.5,0.9-0.6,1.4-0.8c-0.1-0.7,0.1-1.3,0.5-1.8c0.4-0.4,1.2-0.5,1.6-0.6c0.1-0.7,0.3-1.4,0.9-1.8
		c0.4-0.2,0.9-0.3,1.1-0.1c-0.7-0.6-1.3-0.3-1.7-0.1c-0.6,0.3-0.7,1.1-0.6,1.6C44.5,105,43.8,105,43.3,105.5L43.3,105.5z"/>
	<path image-rendering="auto" color-rendering="auto" d="M49.2,114.3c-0.4,0-0.7,0.4-1.1,0.4c-0.6,0-1.2-0.4-1.8-0.2
		c-0.4,0.1-0.7,0.6-1.1,0.7c-0.6,0.1-1.3-0.2-1.8,0.1c-0.4,0.2-0.7,0.6-1,1c0.9-0.5,1.4-0.7,1.9-0.6c0.4,0.1,0.8,0.6,1.2,0.4
		c0.5-0.3,0.6-1.1,1.2-1c0.4,0,1.1,0.6,1.5,0.6c0.3,0,0.7-0.6,0.9-0.7c1.1-0.4,0.9-0.3,1.8-0.2C50.4,114.4,49.8,114.3,49.2,114.3
		L49.2,114.3z"/>
	<path image-rendering="auto" color-rendering="auto" d="M71.4,112.4c-1.2,1.6-0.1,3.1-0.8,4.6c-0.6,1.5-1.9,2.4-2.5,2.8l-1.8,1.3
		c2.2-0.5,3.7-1.6,4.6-3.1c0.5-0.9,0.1-2.6,0.3-4.2L71.4,112.4z"/>
</g>
<path shape-rendering="auto" image-rendering="auto" color-rendering="auto" d="M15.9,42.1c-0.2,0.7,0.4,0.9,0.9,1.4
	c0.7,0.8,1.1,0.9,2.3,1.1c0.8,0.1,0.8-0.4,0.9-1.1c0.1-0.8-0.3-1.4-0.9-1.8c-0.8-0.6-1.5-0.4-2.4-0.2C16.3,41.5,16,41.7,15.9,42.1
	L15.9,42.1z M17,42.3c0.1-0.4,0.6-0.1,1-0.1c0.6,0,0.9,0.3,1.2,0.9c0.1,0.3,0,0.4-0.3,0.6c-0.6,0.3-0.8-0.1-1.3-0.5
	C17.1,42.9,16.8,42.7,17,42.3L17,42.3z"/>
<path d="M40.8,43.7c0,0.5-0.4,1-0.9,1.1c-0.5,0.1-1-0.2-1.2-0.7c-0.2-0.5,0-1.1,0.4-1.4c0.4-0.3,1-0.3,1.4,0.1
	c-0.9,0.3-0.9,0.6-1,0.9C40,43.6,40.4,43.4,40.8,43.7L40.8,43.7z"/>
<path shape-rendering="auto" image-rendering="auto" color-rendering="auto" d="M47.3,2.8c-0.2,1.2,0.2,3-0.3,3.4
	c-0.7-0.5-1.8-2.8-3.6-2.6c-0.2,1.3,0.1,2.4-0.2,3.2c-1.2-1.5-3.3-3.1-3.6-2.8c0.5,0.9,0.1,2.6,0.2,3.3c-1-0.7-3.8-2.3-4.4-2
	c0.6,1,0.5,2.6,0.8,3.5c-0.8-1.3-4.5-2.2-5.2-1.4c0.3,0.7,2.2,2.5,2.2,3.4c-1.3-2.3-5.2-2.5-6-1.7c0.6,0.8,0.8,1.4,1.8,2.7
	c-0.4-0.9-4.6-1.8-5.6-1.2c0.3,1,2,1.9,2.1,2.6c-1.3-0.3-4.8-2-5.6-1c0.9,1.1,1.6,1.8,2,2.7c-0.9,0.2-3.9-1.7-5.9-1.1
	c0.3,0.4,1.9,3.1,1.9,3.2c-1.3-0.3-3.9-2.6-4.8-2c0.7,0.7,0.9,2,1.1,2.8c-0.6-0.7-2.9-1.7-4.1-1.5c0.1,0.8-0.5,0.6-0.8,1.9
	c-0.5-0.1-2.2-1.7-3.7-1.7c0,0.4-0.5,2.3-0.7,2.3c-0.8,0.3-1-0.2-2.3-0.4c-0.3,2.7,1.5,4.9,2.6,5.4c2.1,1,5.4,0.9,7.8,2
	c3.8,2,8.5,0.9,12.7,0.3c4.2-0.6,6.3-6.1,10.9-6.2c4.2-0.1,7.6-2.5,11.8-1.8c2.1-0.6,6.6,0.1,6.8,1.2c0.1,0.5-0.9,1.4-2.6,2
	c-1.6-1-3.9-1.3-5.5-0.7c-2.1,0.8-3.3,3-3.9,4.7c-2.7,1.2-4.6,3.4-6.1,5.8c-1.1,1.8-1.7,2.8-2.4,4.8c-0.1,0.4-0.6,1.7-0.8,1.9
	c-0.6,0.3-1.8,0-2.9,0.2c-0.7,0.1-1.5,0.4-1.9,1.3c-1.5,2.8-6.7,3.3-8.6,0.6c-0.2-0.3-2.4-1.4-4.5-1.3c-1.5,0.1-2.9,0.9-3.5,2
	c-2.8,1-2.9,2-3.7,3.2c-2.4,1.6-1,3.5,0.1,4.2c1.2,0.7,3.1,1.2,3.9,1.8c1.7,1.7,4.9,0.3,7.6,0.9c1.1,0.3,2.7-1,3.7-1.4
	c0.8-0.3,1.5-0.1,1.5,0.2c-0.5,0.6-0.6,1.2-1,1.6c-0.7-0.1-1.3-0.5-1.9,0c-0.1,0.2-0.5,0.3-0.6,0.3c-0.6,0-1.5-0.2-2.1-0.1
	c-1,0.3-2.1,0.6-2.7,1.7c0.3,0.1,1.6,0,1.9,0.1c-1.2,0.3-3.3,0.9-3.9,2.3c1.2-0.1,3.4-0.2,3.6-0.2c-0.5,0.4-1.8,1.8-1.6,2.5
	c0.9-0.2,2.4-0.4,3.7-0.6c-2,1.3-3.1,3.1-4.9,4.7c-2.5,2.1-6.6,3.9-5.8,7.8c0.6,1.2,1.4,2.5,2.4,3.3c1.7,1.3,3.9,1.7,6.1,1.6
	c3.6-0.2,6.7-2.5,10.4-1.7c3.6,0.9,7-0.6,10.4-1.2c2.9-2.3,5.1-2.2,8.9-1.9c4.3,0.4,6.9-4,10-6.1c1.6,0.8,5.1-2.2,5.4-2.1
	c2,0.2-0.8,1.6-1.5,2.6c-0.9,2.1-0.4,4.5-1,6.3c-0.3,0.9-1.2,1.5-2.1,2.1c-2.1,1.6-5.2,6.2-3.1,8.4c0.9-1.3,2.5-1.5,3.9-1.9
	c1-0.3,2-1,2.7-1.2c-0.4,2-0.3,2.3-0.5,4.3c0.2,2.3,1.1,3.9,1.4,5.5c0.6-0.8,2.4-2.5,3.4-4.1c1-1.6,1.2-3.6,1.5-4.4
	c1.6,0.9,2.1,0.9,3.1,2.3c0.9,0.8,3,3.1,3.9,4c1.3-2.1,0.5-4.9,0.5-5.6c1.7,0.1,2.1,1.1,3.7,1.5c0.1-2-1.3-4.7-2.6-5.6
	c0.4-0.2,0.6-0.3,1.2-0.2c0.7,0.1,2.1,0.9,2.5,0.9c-0.3-2.6-2.8-4.9-5.2-5.3c-2.9-1.4-0.4-2.8,0.7-4.5c2.4-3.3,3.2-7.7,2-11.6
	c0.3-3.4-2.9-5.5-4.7-6.8c2.6-1.3,3.7-4.2,3.7-7c0.5,0.8,1.3,1.6,1.6,1.5c0.2-0.8,0.2-1,0.5-2.8c0.6,0.9,2.3,1.7,2.7,1.5
	c0.6-0.3,0.2-2.9-0.3-4.1c1.6,0.1,2.8,0.7,4,1c0.1-1.1-1-2.8-1.5-3.3c-0.8-1-3.3-1.7-4.7-1.7c0.2-0.9,0.6-2.4,0.5-3.5
	c-0.3-3.2-3-4.3-5.6-5.1c0.5-1.9-0.1-3.8-0.6-5.8c-0.5-2.3-0.8-6-2.5-7.8c-0.4-0.4-1.2-0.2-1.9-0.4c0.3-1.8-0.1-2.3-0.8-2.9
	c-0.6-0.5-1.2-0.4-2.2,0.4C67.2,7,66.2,6,65.3,5.7c-0.5-0.2-1.7,0.1-2.1,1.3c-0.1-1-1-2-1.9-2.2c-0.9-0.2-1.9,0.6-2.1,1.6
	C59,5,57.6,3.9,56.6,4c-0.9,0.1-0.8,1.3-1.1,2.1c-0.5-1.1-2.1-2-2.8-2c-0.9,0.1-0.9,1.3-1.2,1.9C50.8,5.1,48.9,2.7,47.3,2.8
	L47.3,2.8z M48.4,4.5C49.7,5,51,6.8,51.7,7.6c0.7-0.7,0.6-1.7,1.2-1.8c1.3,0,2.1,1.3,3,1.3c0.5-0.5,0.6-1.7,1.3-1.8
	c0.9-0.1,1.5,2,2,2c0.7-0.5,1.2-1.6,1.8-1.5c0.4,0,1.1,1.4,1.2,2.4C63.4,8.9,64.4,6.8,65,7c1.1,0.4,1.5,0.8,1.6,2.4
	c0.5-0.3,1.3-1.2,1.8-0.8c0.5,0.3,0.6,1.9,0.3,3.3c1.1-0.4,1.8-0.3,2.3,0.2c0.6,0.6,0.8,1.7,0.5,3.1c-0.4,0.7-0.5,1.8-0.2,2.6
	c0.4,1.1-0.1,2.5-1.1,3.2c-1.2,0.8-0.1,2.5-1.2,3.5c-0.6,0.6-0.3,1.6-0.6,2.7c-0.2,0.6-0.7,0.8-0.9,1.4c-0.2,0.4-0.3,1.2-0.4,1.8
	c-0.6,0-1.6,0.4-1.8,0.9c-0.2,0.5-0.2,1.1,0.1,1.6c-0.6,0-1.4,0.1-1.7,0.4c-0.4,0.6-0.3,1.5-0.3,2c-0.7-0.1-1.5,0.2-1.9,0.6
	c-0.6,0.6-0.7,1.4-0.9,2c-0.5-0.2-1.3-0.3-1.7,0c-0.5,0.4-0.7,1.2-0.9,1.7c-0.8-0.4-0.8-0.7-1.7-0.7c-0.7,0-1,0.4-1.6,1.2
	c-0.7-0.2-1.5-0.8-2.4-0.6c-0.9,0.2-1.9,1.3-2.2,2.1c0.9-0.7,1.5-1.2,2.5-1.4c0.9-0.1,1.4,0.4,2.4,1c0.4-0.8,0.8-1.2,1.5-1.5
	c0.7-0.3,1.1,0.4,1.7,0.9c0.3-0.5,0.7-1.7,1.2-2.1c0.5-0.4,1.1,0,1.8,0.4c0-0.8,0.7-1.7,1.1-2.4c0.6-0.4,1.6-0.6,2.3-0.4
	c-0.4-0.9-0.2-1.9-0.1-2.2c0.3-0.6,0.7-0.7,1.8-0.4c-0.4-0.9-0.6-1.1-0.3-1.8c0.4-0.9,1.5-0.5,2.2-0.5c-0.3-0.6-0.6-1.1,0-1.8
	c0.4-0.4,0.3-1,0.6-1.5c0.6-0.9,0.1-1.7,0.4-2.7c0.2-0.7,1.4-1.1,1.3-1.8c-0.1-1,0-1.9,0.9-2.5c1-0.7,1.1-2.4,0.8-3.6
	c-0.1-0.4,0-1.7,0.3-2.2c1.1,1.9,0.1,5,1.1,6.8c0.5,1,0,1.5-0.3,2.2c-1-0.1-2.2,0.6-2.9,1.2c-1,0.9-0.3,2.3-0.2,3.5
	c0.6-0.9,0.1-1.6,0.5-2.2c0.2-0.3,0.4-0.8,0.7-0.9c0.7-0.2,0.7-0.3,1.4-0.2c0.2,0,0.8-0.2,1.2-0.3c1.4,2.1,4.5,0.4,4.7,3.4
	c1.8,1.5-0.3,5.1,0,5.6c1.2-0.4,2.5-0.3,3.5,0.1c-0.1,0.1-0.3,0.3-0.4,0.5c-0.1,0.4-0.3,0.7-0.3,1.1c-0.5-0.3-2-0.8-2-0.6
	c0.2,0.4,0.6,0.5,0.9,0.6c0.3,0.2,0.5,0.4,0.6,0.5c-0.7,0-1.4,0.6-1.5,1.3c0,0-0.8-0.5-0.9-0.8c-0.3-0.1-0.4-0.1-0.4,0.1
	c0.1,0.3,0.9,1.1,0.8,1.3c-0.2-0.2-0.3-0.3-0.6-0.3c-0.6-0.1-1.1,0.3-1.5,0.9c0-0.1,0-0.3,0-0.4c0.2-1.1-0.4-2.8-1.4-3.9
	c0.6,0.6,1.8,0.3,2-0.1l-1,0c-0.5,0-1.2-0.6-1.5-0.9c-0.4-0.6-0.5-1-1.1-1.5c-0.4-0.3-1.5-0.9-2.5-1.5c1,1.1,2.4,2.5,3.2,3.7
	c0.6,0.9,0.8,1.9,1.1,2.9c0.2,0.5,0.5,1.1,0.4,1.6c0,0.5-0.4,1.3-0.3,2c0.4,3.4-2.6,4-3.8,6.6c-2.2-0.6-3.8-1-6.1-0.9
	c-0.9,0-2.5,0.3-3.4,0.7c-0.8-0.4-1.5-0.6-2.3-0.7c-0.8-1.1-1.6-2.2-2.6-3.1c-0.6-0.5-1.3-0.9-2-1.1c-1.2-0.2-2-0.5-3.9,0.6
	c1.4-0.2,2.8-0.2,4,0.4c0.7,0.4,1.4,0.8,1.9,1.4c0.6,0.6,1.1,1.3,1.6,2c-0.2,0.1-0.3,0.2-0.5,0.4c-0.6,0.6-0.4,1-0.1,2.3
	c0.2-1.2,0.8-1.8,1.3-2c1,0,2.2,0.3,2.7,1c1.5-0.7,3.2-1,4.8-0.7c1.6,0.4,3.3,0.7,4.8,1.3c0.9,0.4,2.3,0.9,2.9,1.8
	c2.1,2.8,2.9,6.9,2.1,10.4c-0.7,3-2.6,5.6-5,7.5c-1.3-0.3-2.7-1.3-4-1.1c-1.4,0.2-2.3-0.1-4,1.9c1.3-0.8,2.7-1.3,4.1-1.1
	c1.2,0.1,2.5,0.7,3.6,1.1c1.7,0.6,2.3,2.2,4.1,2.6c-0.2,0.4-0.4,2,0.3,2.7c-0.4-0.2-2.1-0.4-2.4-0.6c0-1.5-1-2.1-2-1.6
	c0.2,0.2,0.8,0.4,1,0.5c0.3,0.2,0.4,1.1,0.5,1.4c0.8,0.4,2,0.4,2.6,0.9c0.2,0.3,0.6,1,0.8,1.4c-0.6,0.1-0.9,0.2-1.1,0.8
	c-0.1,0.5-0.4,1.1-0.5,1.3c-0.3-0.2-0.6-1-0.9-1.1c-0.4-0.7-1-1.4-1.7-1.8c-0.2-0.1-0.5,0-0.7-0.2c-0.7-0.5-0.9-1.3-1.8-2.1
	c0.4,0.7,0.6,1.6,1.1,2.2c0.1,0.2,0.3,0.4,0.5,0.6c0.4,0.3,0.7,0.3,1.1,0.8c0.3,0.3,1,0.8,1.2,1.1c-0.8,0.3-1.7,1-1.7,1.9
	c-1.6-1.1-3.1-2.8-4.6-1.7c0,0.8-0.3,1.6-0.7,2.3c-0.3-0.7-0.7-1.3-1.5-1.5c-0.6-0.1-1.5,0.1-2,0.4c-0.4-0.5-0.1-2.4,0.3-3.3
	c-1.2,0.1-1.9,0.8-3.5,1.4c0-0.7-1-2.3-1.4-2.7c0.4-0.3,1.1-0.9,1-1.3c2.8-0.5,1.6-3,3.2-4.6c-1.4-2.9,1.2-5.3,2-6.8
	c0.8-1.5,1.9-2.4,3.1-3.4c0.4-0.3,2.1-0.9,2.5-1.1c-1.7-0.8-3.7,1.1-4.3,1.7c-0.4,0.5-0.8,1-1.1,1.5c-0.6-0.5-1.1-0.6-1.7-0.4
	c-0.2-1.1-0.3-2.1-0.4-3.2c-0.1-0.7-1.1-1.3-0.8-2c0.1-0.3,0.4-1.8,0.2-1.9c-0.1-0.1-0.6,1.1-0.7,1.2c-0.7,0.8,0.3,1.9,0.6,2.8
	c0.2,0.5-0.1,0.9,0,1.4c0,0.3,0.2,1.2,0,1.2c-0.8-0.3-1.2-0.4-1.5-1.1c-0.3-0.6-0.2-2-0.5-3.1c0,0.7-0.5,2.4-0.3,3.2
	c0.5,1,1.3,1.5,2.1,2.1c-1.1,0.7-2.2,1.5-3.6,1.2c0.2-0.8,0.3-1.6,0-2.4c-0.2-0.6,0.2-1,0.5-1.4c0.5-0.8,0.4-1.7,0.6-2.6
	c0.1-0.6,0.8-1.1,0.8-1.8c0-1.5-0.6-1.7-1.5-2.9c0,1,0.9,1.9,0.6,2.9c-0.1,0.5-0.6,0.9-0.8,1.4c-0.2,0.7,0.2,1.6-0.3,2.3
	c-0.3,0.4-0.7,0.7-0.9,1.2c-0.3,0.8,0.4,1.2,0.3,2c0,0.4-0.9,1.3-0.8,2.2c-2.5,1.5-4,4-7.2,4.8c-3.1,0.7-6.6-1.7-9.2,1.1
	c-3.3,1.7-7.3,2.7-11,2.3c-0.7-0.3-1.4-0.4-2.2-0.3c0.3-0.4,0.6-0.7,0.9-1c0.4-0.3,1.4-0.1,1.9-0.6c0.5-0.6,1.2-1.1,2-1.3
	c0.9-0.3,2-0.1,2.8-0.3c0.9-0.3,2.7-0.9,3.8-1.7c1.4-1.1,1.7-2.6,1.7-2.6s1.3,0,1.8-0.6c0.7-1.2,1.7-3,1.1-3.9
	c-0.1,0.9-0.7,2.4-1.4,3.2c-0.6,0.7-1.3,0.7-2,1c-0.3,0.6-0.4,1.3-0.8,1.6c-1.3,1.2-2.6,1.8-4.3,2.3c-1.3,0.4-3,0.3-4.2,1
	c-0.8,0.4-1.4,1.2-2.3,1.4c-1.1,0.2-1.4,1.7-2.6,1.9c-1.3,0.3-2.7,0.6-4.2,0.1c-2.5,2.6-6,1.6-8.5,0.2c-1.4-0.8-2.1-3.2-1.3-4.4
	c0.2,0.6,0.7,1.4,1.1,1.7c0.5,0.9,1.1-0.3,1.8,0.2c1.2,0.3,2.4,0.9,3.5,1.5c0.2-1,1.4-1.2,2.2-0.6c0.7-1,0.7-1.5,1.4-2.6
	c0.9-0.7,2.8,0.7,3.6-0.6c0.8-0.1,1.9,0.2,2.3-0.8c0.9-1.3,2.2-0.2,3.3-0.7c1.3-0.2,2.4-1,3.2-1.9c1.1-1.3,2.1-3,4-3.2
	c0.9-1.3,1.3-2.9,2.8-3.7c0.8-0.2,1.1-1.9,1.1-2.7c0.6-1,1.2-0.7,2.1-1.1c0.5-0.5,2.1-0.7,2.8-0.7c-0.8-0.5-2.2-0.4-3.5-0.2
	c-0.3,0.2-0.9,0.2-1.3,0.5c0.1-0.4,0-0.6-0.2-1c0.5-0.1,1-0.5,1.3-0.8c0.8-0.6,1.2-1.5,1.9-1.8c0.4-0.1,0.8,0.1,1.4,0.4
	c0.5,0.2,0.8,0.6,2,1.5c-0.1-0.9-0.7-1.6-1.1-1.9c-0.5-0.4-1.3-0.8-2.3-0.9c-1-0.1-1.3,1-1.9,1.6C43,50.1,42,50.2,41.2,50
	c-1.8,0.4-1.8,0-3.1,0.1c-1,0-2.2-0.6-3-1c-0.7,0.4-1.5,1-2.2,1.4c-0.8,0.3-1.2,0.7-2,0.1c-0.2-0.2-1.3-1.1-1.9-1.3
	c-0.4-0.1-1.5-0.1-2-0.2c-1.6-1.1-4.7-1.4-6,0.6c-3-0.4-5.4,0.4-7.6-1.4c-1.7,0.1-4.3-1-4.5-2.1c-0.1-0.4,1.1-0.9,1.7-1.5
	c0.6-2.1,3.2-2.9,4.7-4.1c2.2,0,5.5-0.1,6.1,2.7c1.6,0.6,4.2,0.1,5.8-0.7c2.4,0.7,3.1-2.4,4.6-3.1c0.6-0.3,1.3-0.2,2.3,0.6
	c0.7-0.5,1.4-0.7,2.2-0.8c0.8-0.1,1.8,0.1,2.3,0.5c0.4-0.6,0.9-1.1,1.7-1.2c0.9-0.2,2,0.4,2.5,0.5c0-0.5,0.1-1.1,0.4-1.4
	c0.3-0.2,1.1-0.3,1.4-0.3c-0.1-0.7-0.4-2.3,0-3.2c0.2-0.6,1.2-0.9,1.4-1.4c0-0.6-0.3-1.3,0-1.9c0.3-0.5,1.1-0.5,1.4-0.9
	c0-0.7-0.1-1.4,0.3-2c0.4-0.5,1.2-0.7,1.6-1.1c0.2-0.7,0.3-1.6,1-2c0.6-0.3,1.2-0.3,1.9-0.4c-0.1-0.5,0-1.4,0.8-1.7
	c0.6-0.7,1.7-1.3,3-2.1c1.2-0.8,2.3-1.9,2.9-3.3c-0.2-0.7,0.2-1.2,0.4-1.8c0.2-0.5,0.3-0.7,0.4-1.2c0.3-1.4-0.5-2.7-1.1-4
	c-0.3,0.4-0.5,0.8-0.8,1.2c-0.3-1-1-2.2-2.3-2.2c-0.4,0-0.8,0-0.6,0.5c0.3,1.1-0.7-0.4-1.1-0.6c-0.6-0.5-1.4-1.3-2.2-0.9
	c-0.6,0.3,0.2,1.9-0.6,1.2C50.1,9,49.2,8.3,48.1,8c-0.5-0.1-1.5,0.1-1.3,0.7c0.1,0.5,0,0.8,0,1.1c-1.1-0.7-1.7-1.1-3-1.3
	c-0.4-0.1-2,0.2-1.5,0.5c0.4,0.3,1.2,1.6,0.3,1c-1.3-0.6-2.4-1-3.8-0.9c-0.1,0.9-0.5,1.9-0.6,2.1c-0.4-0.1-0.9-1-1.2-1.3
	c0.6-0.6,0.4-2,0-3c1-0.1,2,0.7,2.8,1.5c1.3-0.3,1.2-2.3,1-2.9c0.9,0.3,1.6,1.9,2.4,2.7c1.1-0.3,0.7-2.9,1.1-3.1
	c0.7,0,1.4,1.5,3.3,2.4C48.4,6.7,48.5,5.8,48.4,4.5L48.4,4.5z M32.6,7.9c1.5,0.5,2.7,1.2,3.6,2.2c0.7,0.8,1.5,1.8,2.6,2
	c0.4-0.8,0.8-1.7,0.7-2.3c0.8,0.1,3.3,0.9,4.1,1.2c-0.7,0.4-1.4,0.5-1.9,1.2c-0.2,0.3,0,1.6-0.1,2c0,1-0.9,1.8-0.5,2.7
	c0.1,0.3,0.3,0.6,0.4,0.9c-1.8,0.6-3.8,0.8-5.8,1c0.3-1.2,0.5-2.5,0.2-3.8c-0.1-0.4-0.1-0.9-0.4-1.2c-0.6-0.7-1.3-1.5-1.1-2.4
	C34.4,10.6,34,9,32.6,7.9L32.6,7.9z M48,8.6c0.3,0,0.7,0.3,0.9,0.4c1,0.4,1.3,1.2,2.2,1.7c0,1-0.5,2-1.1,2.8
	c-0.2,0.3-0.4,0.5-0.6,0.8c-0.4,0.6-0.5,1.5-0.2,2.1c0,0.1,0.1,0.2,0.2,0.3c-1.8,0.1-3.6,0.4-5.5,0c-0.5,0.3-1.1,0.6-1.7,0.8
	c-0.1-0.5-0.5-1-0.6-1.5c-0.1-0.7,0.6-1.2,0.5-1.9c-0.1-0.8-0.3-1.4-0.1-1.6c0.1-0.2,2-1.1,2.2-1.5c-0.1-0.6-0.2-0.6-0.6-1
	c-0.2-0.2-0.6-0.4-0.7-0.8c1.5-0.4,3.6,1.3,4.4,1.7c0.2-0.4,0.1-0.4,0.2-1.1c-0.1-0.4-0.4-1,0-1.2C47.8,8.6,47.9,8.6,48,8.6L48,8.6z
	 M52.5,9.3c0.9,0.5,1.5,1.5,2.3,2.1c0.6,0.5,1.3-0.2,1.1-0.9c0.9,0.3,0.8,1.5,1.4,2c0.6,0.6,1.1-0.9,1.3,0.2
	c0.4,0.7,0.2,1.5-0.1,2.2c-0.2,0.6-0.2,0.7-0.5,1.2c-0.1,0.9-0.2,1.7-0.8,2.4c-0.2,0.3-0.4,0.5-0.6,0.7c0-0.6-0.5-1.3-1.8-1.7
	c-1.4-0.7-2.9-0.8-4.3-0.7c-0.2-0.3-0.4-0.6-0.5-0.9c-0.1-0.5,0.2-1,0.5-1.4c-0.1,0.1,0.2-0.2,0.3-0.3c0.7-0.9,1.3-2.1,1.3-3.3
	C52.5,10.5,52.3,9.4,52.5,9.3L52.5,9.3z M30.1,9.8c0.2,0,0.5,0,0.9,0.2c0.8,0.4,1.3,0.8,2,1.7c0.5,0.8,1,2,1.4,2.4
	c0.3,0.4,0.5,1.2,0.6,1.2c0.4,1.5,0.1,2.6-0.3,3.8c-1.9,0.5-3.4,1.8-5,3c-0.1-0.2-0.2-0.4-0.3-0.5c-0.2-0.4-0.4-0.9-0.5-1.4
	c-0.2-1,0.3-1.9,0.2-2.9c0-1-0.8-1.9-1.5-2.5c-0.7-0.6-1.4-2.2-1.9-3c0.9-0.2,4,1,4.8,1.8c0.5-1.1-0.9-2.5-1.4-3.7
	C29.6,9.9,29.9,9.8,30.1,9.8L30.1,9.8z M22.6,13.3c0.5,0,2.6,0.6,3.3,0.9c0.7,0.3,1.3,1.4,1.6,1.8c0.4,0.4,0.7,0.8,0.7,1.4
	c0,1-0.5,2.1-0.1,3.1c0.2,0.7,0.4,1.5,0.9,2.2c-0.9,0.7-1.6,1.7-2.7,1.9c-2.4,0.6-5.2,0.8-7.6,0.6c0.3-0.6,0.8-1.9,0.7-2.6
	c0-0.7-0.3-1.3-0.6-1.9c-0.4-0.9,0-1.7,0.3-2.6c0.3-0.7-0.3-1.6-0.9-3.1c1.4,0.1,3.8,1.3,5.7,1.5C23.8,15.8,23.2,14.2,22.6,13.3
	L22.6,13.3z M15.4,16.5c0.6,0.8,2.2,1.4,2.9,1.5c-0.2,0.7-0.4,1.4-0.4,2.1c0,0.4,0.2,0.9,0.4,1.2c0.5,0.8,0.3,1.8,0.1,2.5
	c-0.2,0.7-0.9,0.9-1.4,1.2c-1.7,0.1-3.1-0.4-4.4-0.9c-1.8-0.7-3.6-1-6-1.5c-1-0.2-2.8-1.2-2.3-2.4c0.2-0.4,2.3,0.3,2.3,0.1
	c0.1-0.8,0.1-1.8,0.6-1.9c0.8-0.1,2.4,1.6,3.1,1.5c0.9-0.2,0.8-1.2,1.1-2.5c1.3,0.7,2.6,1.3,4.2,2.1C15.5,18.8,15.6,17.6,15.4,16.5
	L15.4,16.5z M49.3,21.5c1.1,0,2.2,0.4,3.1,0.6c-0.4,0.6-0.6,0.8-0.8,1.8c-0.5,0.1-2,0.2-2.2,0.6c-1.5-0.2-3.4-0.1-4.5,0.5
	c0.2-0.6,0.8-1.4,1.2-1.8C46.7,22.4,48.3,21.6,49.3,21.5L49.3,21.5z M48.1,25.4c0.3,0,0.6,0,0.8,0.1c-0.1,0.3-0.2,0.6-0.2,0.8
	c-0.6,0.3-1.3,0.7-1.6,1.3c-0.2,0.3-0.3,1.2-0.2,1.8c-0.5,0.2-1,0.6-1.4,1.2c-0.3,0.5-0.1,1.3-0.1,1.9c-0.8,0.5-1.1,1.1-1.2,1.3
	c-0.4,0.9-0.3,1.9-0.2,2.9c-0.4,0-0.7,0.1-0.9,0.3c-0.3,0.2-0.6,0.6-0.7,1c-0.6-0.3-1.2-0.5-1.8-0.4c-0.9,0.1-0.8,0.4-1.8,1.4
	c-0.5-0.8-1.7-1.3-2.9-0.8c1-1.8,1.3-4.1,2.8-5.7c0.7-3.2,3.4-5,5.2-6C44.8,25.7,47.1,25.4,48.1,25.4L48.1,25.4z M83,35
	C83.1,35,83.1,35,83,35c0.4,0.2,0.6,0.3,0.9,0.5c0.3,0.3,1,1.2,0.9,1.6c-0.3-0.2-1.6-0.7-2.6-0.9c0-0.3,0.2-0.6,0.3-0.9
	C82.5,35,82.8,35,83,35L83,35z M80.9,37.3c0.2-0.1,0.6,0.2,0.7,0.6c0.3,0.5,0.4,1.3,0.3,2.4c-0.4,0.3-1.5-0.5-2-1.4
	c-0.1-0.4,0.1-1.1,0.5-1.3C80.5,37.5,80.6,37.4,80.9,37.3L80.9,37.3z M78.8,39.4c-0.1,0.7-0.1,1.5-0.3,2c-0.3-0.1-0.9-0.9-1.2-1.5
	c0.1-0.4,0-0.9,0.6-1C78.4,38.8,78.5,39.2,78.8,39.4L78.8,39.4z M28.1,50.4c0.7,0.1,1.4,0.6,1.9,1.1c1,0.8,2.4,0.6,3.5,0.2
	c0.6-0.2,1.1-0.6,1.7-1c0.5-0.4,1,0.4,1.5,0.4c0.8,0.3,1.8,0.2,2.6,0.2c0.5-0.3,1.1,0.1,1.8,0.1c0,0.3,0.3,0.3,0.4,0.7
	c0.1,0.6,0,0.1-0.4,0.8c-0.2,0.4-0.3,0.8-0.3,1.2c-0.1,0.9-0.5,1.7-1.1,1.9c-1,0.8-1.4,2.1-2.1,3.1c-1.8,0.4-3.1,1.9-4.2,3.3
	c-0.5,0.4-1.6,1.7-2.7,1.8c-1.3-0.3-2.9,0.1-4.1,1.4c-1.3-0.4-2.2,0.9-3.4,0.3c-0.2-0.1-0.8,0.3-1.5,0.3c-0.7,0-1.3,1.6-1.4,2.2
	c-0.9-0.7-1.8,0.4-2.4,0.4c-0.4-0.2-0.8-0.5-1.2-0.7c0.4-1.2,1.5-2,2.4-2.9c1.1-1.1,2.5-2.3,3.7-3.2c2.1-1.5,3.6-2.9,6-4.1
	c1.1-0.5,2.2-1.4,1.6-3.5c-0.2,0.3-0.3,1.7-0.9,2c-0.7,0.3-1.5,0.8-2.1,1.1c-2.1,1.1-3.8,2.8-5.7,4.1c-2.1,1.4-4.2,3-5.5,5.2
	c-0.1,0.2-0.3,0.5-0.4,0.7c-0.1,0-0.2-0.1-0.3-0.1c-0.5-0.1-1.1,0.2-1.6,0.3c-0.7-0.3-0.7-1-0.9-1.4c0.2-0.1,0.9-0.6,1.5-1.3
	c1.5-1.7,3.2-2.5,4.6-4.2c0.8-1,4.6-3.8,5-4.6C26.5,55.2,28.3,52.8,28.1,50.4L28.1,50.4z M26.8,50.9c0.7,1.7-2.1,4.1-3.8,5.5
	c-1,0.1-2.8,0.1-3.8,0.3c0.8-0.8,1.9-1.5,2.8-2.1c-1.1,0.1-3.2-0.1-4.4,0.4c0.8-1.1,4.5-1.5,5-1.6c-0.9,0-2.6-0.2-3.4-0.5
	c1-0.6,2.2-0.7,3.5-0.4c0.7-0.4,1.4-0.5,2.2,0C25.4,51.9,26.3,51,26.8,50.9L26.8,50.9z M76.8,72.5c1.1,0.2,2.8,1.3,3.1,2.9
	c-1.2-0.6-2.4-0.6-2.9-0.5C76.5,74.5,76.5,73.1,76.8,72.5L76.8,72.5z M58.4,75.8c0.5,0.4,1.4,1.8,1.3,2.4c-0.6,0.2-2.1,0.4-2.7,1.4
	C55.9,78.9,57.3,76.5,58.4,75.8z M77.3,77.3c0.9,0.5,1.4,1.4,1.5,2.7c-1.1-1.1-2.2-0.4-2.7-0.7C75.9,78.8,76.4,77.4,77.3,77.3
	L77.3,77.3z M74.5,79c0.7,0.7,1.8,3.8,0.9,5.1c-0.2-0.2-1.8-1.5-2.7-3.1C72.4,79.9,73.9,79,74.5,79z M64.8,80.1c0.1,0,0.3,0,0.4,0
	c0.2,0,0.3,0.1,0.5,0.1c0.5,0.2,0.9,0.8,1,1.3c-0.3,1-1.8,3.3-2.5,3.9c-0.3-1.1-1.1-3.6-0.7-4.9C63.9,80.3,64.3,80.1,64.8,80.1
	L64.8,80.1z"/>
<g transform="matrix(1.0886 0 0 1.0886 -3.5562 -86.592)">
	<path style="fill:#FFFFFF;stroke:#000000;" d="M13.5,141c-0.1-1.2,0.4-1.6,0.9-1.9c0.3,0.9,1,2.4,0.5,3C14,142.2,13.9,142,13.5,141
		L13.5,141z"/>
	<path style="fill:#FFFFFF;stroke:#000000;" d="M16.2,139.7c-0.8-0.1-0.9-0.7-1-1.8c0-0.7-0.9-2.3,0.1-3c0.8,0,0.9,1.5,1.3,2.1
		c0.5,0.6,1.1,1.4,1.1,1.4C17.7,139.3,17.2,139.7,16.2,139.7L16.2,139.7z"/>
	<path style="fill:#FFFFFF;stroke:#000000;" d="M32.1,126.7c-0.1,0.7-0.1,1.7,0.8,2.3c0.6-0.9,1.1-1.9,1-2.5L32.1,126.7z"/>
	<path style="fill:#FFFFFF;stroke:#000000;" d="M28.7,125.3c-0.1,1.2,0.1,2.2,0.9,2.7c0.5-0.6,0.5-1.5,0.5-2.3L28.7,125.3z"/>
	<path style="fill:#FFFFFF;stroke:#000000;" d="M13.6,124.3c0,1.3,0.2,1.7,0.8,2.6c0.7-0.6,1.6-1.1,0.9-2.4
		C14.5,124.3,13.6,124.3,13.6,124.3L13.6,124.3z"/>
	<path style="fill:#FFFFFF;stroke:#000000;" d="M16.6,125.5c0,0.8,0.5,1.7,1.1,2.4c0.3-0.7,0.9-0.9,0.9-2.2
		C18,125,17.3,125.4,16.6,125.5L16.6,125.5z"/>
	<path style="fill:#FFFFFF;stroke:#000000;" d="M23.8,125.3c-0.3,1.5,0.1,3.4,0.7,3.6c0.6,0,1.1-2,1.9-4.5
		C25.6,124,23.7,125,23.8,125.3L23.8,125.3z"/>
	<path style="fill:#FFFFFF;stroke:#000000;" d="M11.4,123c-0.9,1.1-1.3,3.4,0.1,4.3c0.4,0.2,0.8-2.7,1.3-3.6L11.4,123z"/>
	<path style="fill:#FFFFFF;stroke:#000000;" d="M15.4,143c0-0.7-0.1-1.3,1-2c0.8,1.1,1,2,0.8,2.8C16.7,143.8,15.8,144.3,15.4,143z"
		/>
	<path style="fill:#FFFFFF;stroke:#000000;" d="M18.2,143.9c-0.2-0.6,0.1-1.5,0.8-2.5c1.2,0.9,1.4,1.6,1.1,2.8
		C19.5,144.5,18.7,144.6,18.2,143.9z"/>
	<path style="fill:#FFFFFF;stroke:#000000;" d="M21.4,143.8c-0.4-0.7-0.1-1.5,0.2-2.4c0.8,0.4,1.4,1,1.6,1.8
		C22.9,143.6,22.6,144.2,21.4,143.8L21.4,143.8z"/>
	<path style="fill:#FFFFFF;stroke:#000000;" d="M35.3,125.7c0.2,1,0.3,1.7,1,2.6c0.8-0.8,0.9-1.4,0.6-2.5L35.3,125.7z"/>
	<path style="fill:#FFFFFF;stroke:#000000;" d="M38.4,126c-0.3,1.1,0.4,2,0.6,2.3c1.2-0.7,1-1.3,1.1-2.3H38.4z"/>
	<path style="fill:#FFFFFF;stroke:#000000;" d="M29.4,141.1c-0.3-0.3-0.7-0.7,0.1-1.9c1.2,0.1,1.4,0.8,1.5,1.6
		C30.4,141.1,29.9,141.3,29.4,141.1L29.4,141.1z"/>
	<path style="fill:#FFFFFF;stroke:#000000;" d="M23.4,141.2c-0.4-0.6-1-2.8,0.1-3.7c0.9,0.3,1.1,1.9,1.7,2.5c0.4,0.4,1.1,1.1,1,1.4
		c-0.2,0.4,0,0.7-1.1,1C24.3,142.7,23.9,142.2,23.4,141.2L23.4,141.2z"/>
	<path style="fill:#FFFFFF;stroke:#000000;" d="M19.8,125.9c0,0.8,0.2,1.3,0.8,2.3c1-0.6,1.2-0.8,1.2-2.1
		C21.2,125.3,20.5,125.8,19.8,125.9L19.8,125.9z"/>
	<path style="fill:#FFFFFF;stroke:#000000;" d="M33.7,139.7c-0.4-0.3-1.5-1.8-1.1-3.2c1.2-0.2,2.3,1.8,2.5,2.5
		C34.8,139.5,34.3,139.8,33.7,139.7L33.7,139.7z"/>
	<path style="fill:#FFFFFF;stroke:#000000;" d="M37.1,137.8c-0.4-0.2-0.8-0.5-0.4-1.9c1.2-0.2,1.6,0.4,1.8,1.1
		C38.2,137.5,37.7,137.8,37.1,137.8L37.1,137.8z"/>
	<path style="fill:#FFFFFF;stroke:#000000;" d="M39.9,135.6c-0.5-0.2-0.9-0.4-0.7-1.8c1.1-0.4,1.6,0.1,2,0.8
		C40.8,135.2,40.4,135.6,39.9,135.6L39.9,135.6z"/>
	<path style="fill:#FFFFFF;stroke:#000000;" d="M42,132.4c-0.5-0.1-0.9-0.3-0.8-1.7c1.1-0.5,1.6,0,2,0.7C43,132,42.6,132.4,42,132.4
		L42,132.4z"/>
	<path style="fill:#FFFFFF;stroke:#000000;" d="M19.2,137.3c-0.4-0.2-0.8-0.5-0.4-1.9c1.2-0.2,1.6,0.4,1.8,1.2
		C20.2,137.1,19.7,137.4,19.2,137.3L19.2,137.3z"/>
	<path style="fill:#FFFFFF;stroke:#000000;" d="M22,134.9c-0.4-0.2-1.4-1.5-1-2.9c1.2-0.2,2.2,1.4,2.5,2.1
		C23,134.7,22.6,135,22,134.9z"/>
	<path style="fill:#FFFFFF;stroke:#000000;" d="M24.8,132.7c-0.4-0.2-0.8-0.5-0.4-1.9c1.2-0.2,1.6,0.4,1.8,1.1
		C25.8,132.4,25.3,132.7,24.8,132.7L24.8,132.7z"/>
	<path style="fill:#FFFFFF;stroke:#000000;" d="M27.5,130.2c-0.4-0.2-0.8-0.5-0.4-1.9c1.2-0.2,1.6,0.4,1.8,1.1
		C28.5,129.9,28,130.2,27.5,130.2z"/>
</g>
</svg>
