<?xml version="1.0" encoding="utf-8"?>
<!-- Generator: Adobe Illustrator 22.1.0, SVG Export Plug-In . SVG Version: 6.00 Build 0)  -->
<svg version="1.1" id="Layer_1" xmlns="http://www.w3.org/2000/svg" xmlns:xlink="http://www.w3.org/1999/xlink" x="0px" y="0px"
	 viewBox="0 0 640 480" style="enable-background:new 0 0 640 480;" xml:space="preserve">
<path style="fill:none;stroke:#000000;stroke-miterlimit:10;" d="M549.3,334c-0.3,0-0.8,0.4-1.5,1.2c-0.8,0.9-1.7,2.4-2.8,4.3
	c-1,2-2.2,4.4-3.3,7.4c-1.1,3-2.1,6.5-2.9,10.5c-0.7,3.6-1.2,7.6-1.5,12c-0.3,4.3-0.3,8.9,0,13.8c0.5,7.1,1.5,14.7,3.1,22.6
	s3.8,14.2,6.4,22.4c0.5,1.7,1-1.6,1.6,0c0.2,0.6,0.4-0.6,0.6,0h10.4c-0.5-1.6-1,1.7-1.6,0c-0.5-1.6-1,1.6-1.5,0
	c-2.5-8-4.7-17.1-6.5-24.5c-1.8-7.5-3.1-14.5-3.9-21.2c-0.5-4.5-0.9-8.8-0.9-12.8c-0.1-4,0.1-7.8,0.3-11.2
	c0.6-7.5,1.9-13.5,2.9-17.6c0.5-2.1,0.8-3.7,1-4.8c0.2-1.1,0.2-1.8-0.1-1.9C549.4,334,549.3,334,549.3,334L549.3,334z"/>
<path style="fill:none;stroke:#000000;stroke-miterlimit:10;" d="M577,356.5c-0.7,0-1.4,2.1-2.1,5.8c-0.7,3.7-1.4,9-2,15.6
	c-0.7,6.6-1.3,14.4-1.8,23.2c-0.5,8.8-0.8,16.9-0.6,27.1c0,0.3,0-0.3,0,0c0,1.8,0.1-1.7,0.2,0h10.7c-0.1-1.8-0.1,1.9-0.2,0
	c0-0.3,0,0.3,0,0c-0.2-10-0.2-18.1-0.2-26.8c-0.1-8.7-0.2-16.6-0.5-23.2c-0.3-6.6-0.8-12-1.4-15.7
	C578.5,358.6,577.8,356.5,577,356.5L577,356.5z"/>
<path style="fill:none;stroke:#000000;stroke-miterlimit:10;" d="M586.9,364.8c-0.7,0.2-0.6,2.4-0.2,6.3c0.4,3.8,1.3,9.3,2.2,16.1
	c0.9,6.8,1.8,14.8,2.5,23.8c0.6,7.9,1.1,8,1.5,17.1h10c-0.4-9.4-1.2-9.9-2.3-18.1c-1.3-9.2-2.9-17.4-4.8-24.2
	c-1.8-6.8-3.8-12.1-5.4-15.8C588.8,366.4,587.5,364.6,586.9,364.8L586.9,364.8z"/>
<path style="fill:none;stroke:#000000;stroke-miterlimit:10;" d="M549.3,334c-0.3,0-0.8,0.4-1.5,1.2c-0.8,0.9-1.7,2.4-2.8,4.3
	c-1,2-2.2,4.4-3.3,7.4c-1.1,3-2.1,6.5-2.9,10.5c-0.7,3.6-1.2,7.6-1.5,12c-0.3,4.3-0.3,8.9,0,13.8c0.5,7.1,1.5,14.7,3.1,22.6
	s3.8,14.2,6.4,22.4c0.5,1.7,1-1.6,1.6,0c0.2,0.6,0.4-0.6,0.6,0h10.4c-0.5-1.6-1,1.7-1.6,0c-0.5-1.6-1,1.6-1.5,0
	c-2.5-8-4.7-17.1-6.5-24.5c-1.8-7.5-3.1-14.5-3.9-21.2c-0.5-4.5-0.9-8.8-0.9-12.8c-0.1-4,0.1-7.8,0.3-11.2
	c0.6-7.5,1.9-13.5,2.9-17.6c0.5-2.1,0.8-3.7,1-4.8c0.2-1.1,0.2-1.8-0.1-1.9C549.4,334,549.3,334,549.3,334L549.3,334z"/>
<path style="fill:none;stroke:#000000;stroke-miterlimit:10;" d="M577,356.5c-0.7,0-1.4,2.1-2.1,5.8c-0.7,3.7-1.4,9-2,15.6
	c-0.7,6.6-1.3,14.4-1.8,23.2c-0.5,8.8-0.8,16.9-0.6,27.1c0,0.3,0-0.3,0,0c0,1.8,0.1-1.7,0.2,0h10.7c-0.1-1.8-0.1,1.9-0.2,0
	c0-0.3,0,0.3,0,0c-0.2-10-0.2-18.1-0.2-26.8c-0.1-8.7-0.2-16.6-0.5-23.2c-0.3-6.6-0.8-12-1.4-15.7
	C578.5,358.6,577.8,356.5,577,356.5L577,356.5z"/>
<path style="fill:none;stroke:#000000;stroke-miterlimit:10;" d="M563.9,321.2c-0.3,0-0.8,0.4-1.5,1.2c-0.8,0.9-1.8,2.4-2.8,4.5
	s-2.2,4.6-3.3,7.6s-2.1,6.7-3,10.8c-0.7,3.7-1.3,7.9-1.5,12.3c-0.3,4.4-0.3,9.2,0,14.2c0.5,7.3,1.5,15.1,3.2,23.2
	c1.7,8.1,4,24.8,6.5,33.2c0.5,1.7,1.1-1.7,1.6,0c0.2,0.7,0.4-0.7,0.6,0h10.7c-0.5-1.7-1.1,1.7-1.6,0c-0.5-1.7-1-9.8-1.5-11.5
	c-2.5-8.3-4.8-16.3-6.6-23.9c-1.8-7.7-3.2-14.9-4-21.8c-0.5-4.6-0.9-9.1-1-13.2c-0.1-4.1,0.1-8,0.4-11.5c0.6-7.7,2-13.8,3-18.1
	c0.5-2.1,0.9-3.8,1.1-5c0.2-1.2,0.2-1.8-0.1-2C564,321.2,563.9,321.2,563.9,321.2L563.9,321.2z"/>
<path style="fill:none;stroke:#000000;stroke-miterlimit:10;" d="M511.9,321.9c-0.1,0-0.3,0-0.4,0.2c-0.1,0.2-0.2,0.5-0.2,0.7
	c-0.1,0.4-0.1,0.9,0,1.5c0.1,1.2,0.5,2.8,1,4.7c1,3.8,2.8,9.1,4.8,15.5c4.1,12.6,9.7,29.9,14,50.4c2.1,9.9,3.9,22,5.1,33.2h12.4
	c-1.3-12.2-3.5-25.2-6.2-35.8c-2.7-10.5-5.8-20.1-9-28.6c-3.2-8.5-6.5-15.9-9.5-21.9c-3-6.2-5.8-11-7.8-14.3c-1.1-1.7-1.9-3-2.6-3.9
	c-0.4-0.5-0.6-0.8-0.9-1.1c-0.2-0.2-0.3-0.3-0.5-0.3C512.1,322,512.1,321.9,511.9,321.9L511.9,321.9z"/>
<path style="fill:none;stroke:#000000;stroke-miterlimit:10;" d="M592.3,344.3c-0.8,0-1.5,2.1-2.2,5.9c-0.7,3.8-1.4,9.2-2.1,16
	c-0.7,6.8-1.3,14.8-1.8,23.8c-0.5,9-0.9,27.6-0.7,38c0,0.3,0-0.3,0,0c0,1.8,0.1-1.8,0.2,0h11c-0.1-1.9-0.1,1.9-0.2,0
	c0-0.3,0,0.3,0,0c-0.2-10.2-0.2-28.9-0.2-37.8c-0.1-9-0.2-17-0.5-23.9c-0.3-6.8-0.8-12.3-1.4-16.2S593.1,344.3,592.3,344.3
	L592.3,344.3z"/>
<path style="fill:none;stroke:#000000;stroke-miterlimit:10;" d="M602.4,352.8c-0.7,0.2-0.6,2.5-0.2,6.5c0.5,4,1.3,9.6,2.2,16.5
	c0.9,6.9,1.8,15.2,2.6,24.5c0.7,8.1,1.1,18.5,1.5,27.8h10.3c-0.4-9.7-1.2-20.4-2.4-28.9c-1.3-9.5-3-17.9-4.9-24.9
	c-1.9-7-3.9-12.5-5.5-16.2C604.4,354.5,603.1,352.6,602.4,352.8L602.4,352.8z"/>
<path style="fill:none;stroke:#000000;stroke-miterlimit:10;" d="M573.8,344.4c0.1,0,0.2,0,0.3,0.2c0.1,0.1,0.1,0.4,0.2,0.6
	c0,0.3,0.1,0.8,0,1.3c-0.1,1-0.4,2.4-0.9,4.1c-0.9,3.3-2.4,7.8-4.2,13.3c-3.5,10.9-8.4,25.8-12.1,43.4c-1.8,8.6-3.3,11.2-4.4,20.8
	h-10.7c1.1-10.5,3-13.9,5.4-23.1c2.3-9.1,5-17.3,7.8-24.7c2.8-7.3,5.6-13.7,8.2-18.9c2.6-5.3,5-9.4,6.8-12.3
	c0.9-1.5,1.7-2.6,2.3-3.4c0.3-0.4,0.6-0.7,0.8-0.9c0.1-0.2,0.3-0.2,0.4-0.3C573.7,344.5,573.7,344.4,573.8,344.4L573.8,344.4z"/>
<path style="fill:none;stroke:#000000;stroke-miterlimit:10;" d="M619.3,356.9c0.6,0.2,0.4,2.5-0.4,6.4c-0.7,4-2,9.6-3.4,16.7
	c-1.5,7-3.1,15.3-4.4,24.6c-1.1,7.8-1.8,14.6-1.9,23.5h-8.8c0.2-9.4,1.3-16.7,2.8-24.8c1.8-9.6,4.1-18,6.3-25
	c2.3-6.9,4.5-12.4,6.2-16.1C617.5,358.7,618.7,356.7,619.3,356.9L619.3,356.9z"/>
<path style="fill:none;stroke:#000000;stroke-miterlimit:10;" d="M530.7,355.7c-0.7,0-1.3,1.8-1.9,5.1c-0.6,3.3-1.2,8-1.8,13.8
	c-0.6,5.8-1.1,12.8-1.6,20.5c-0.4,7.8-0.7,23.9-0.6,33c0,0.3,0-0.3,0,0c0,1.6,0.1-1.5,0.1,0h9.5c0-1.6-0.1,1.6-0.1,0
	c0-0.3,0,0.3,0,0c-0.2-8.8-0.2-25.1-0.2-32.8c0-7.7-0.1-14.7-0.4-20.6c-0.3-5.9-0.7-10.6-1.2-13.9
	C532,357.5,531.4,355.7,530.7,355.7L530.7,355.7z"/>
<path style="fill:none;stroke:#000000;stroke-miterlimit:10;" d="M249.1,399.1c-0.5,1.9-1.1,3.9-1.6,5.9c-0.4,1.6-0.8,3.2-1.2,4.9
	c-0.8,3.4-1.5,14.7-2.1,18.2c-1.4-4.9-2.6-17.6-3.6-22.4c-1.6-7.8-2.7-15.4-3.1-22.6c-0.2-3-0.3-6-0.2-8.9c0,0,0,0,0,0
	c0-1.7,0.1-3.3,0.2-4.9c0.3-4.3,0.8-8.3,1.5-12c0.8-4,1.8-7.5,2.9-10.5c1.1-3,2.2-5.5,3.3-7.4c1-2,2-3.4,2.8-4.3
	c0.7-0.8,1.2-1.2,1.5-1.2c0,0,0.1,0,0.1,0c0.3,0.1,0.3,0.8,0.1,1.9c-0.2,1.1-0.5,2.8-1,4.8c-1,4.1-2.3,10.1-2.9,17.6
	c-0.3,3.4-0.4,7.2-0.3,11.2c0.1,4,0.4,8.3,0.9,12.9C246.8,387.7,247.8,393.3,249.1,399.1z"/>
<path style="fill:none;stroke:#000000;stroke-miterlimit:10;" d="M259.6,428.1h-10.4c-0.2-0.6-0.4,0.7-0.6,0c0,0,0,0,0,0h4.3
	c0.5-4.8,1.2,4.5,1.9,0c0.6,2,1.2-2.1,1.8,0c0.5,1.6,1-1.6,1.5,0C258.6,429.8,259.1,426.5,259.6,428.1z"/>
<path style="fill:none;stroke:#000000;stroke-miterlimit:10;" d="M198.8,334.7c-0.1,0-0.3,0-0.4,0.2c-0.1,0.2-0.2,0.5-0.2,0.7
	c-0.1,0.4-0.1,0.9,0,1.5c0.1,1.2,0.5,2.7,1,4.6c1,3.7,2.7,8.8,4.7,15.1c4,12.3,9.4,29.2,13.7,49.1c2.1,9.7,3.8,11.5,4.9,22.3h12.1
	c-1.3-11.9-3.4-14.6-6.1-24.9c-2.6-10.3-5.6-19.6-8.8-27.9c-3.1-8.3-6.3-15.4-9.2-21.3c-3-6-5.6-10.7-7.6-13.9
	c-1-1.7-1.9-2.9-2.5-3.8c-0.3-0.5-0.6-0.8-0.9-1c-0.2-0.2-0.3-0.3-0.4-0.3C198.9,334.8,198.9,334.7,198.8,334.7L198.8,334.7z"/>
<path style="fill:none;stroke:#000000;stroke-miterlimit:10;" d="M176.8,354.5c-0.6,0.2-0.4,2.8,0.4,7.3s2.2,10.9,3.9,18.8
	c1.6,7.9,3.5,17.3,4.9,27.8c1.2,8.8,2.1,9.7,2.2,19.7h9.9c-0.3-10.6-1.5-12.1-3.2-21.2c-2-10.8-4.6-20.3-7.2-28.2
	c-2.6-7.8-5-14-7-18.2C178.8,356.4,177.4,354.3,176.8,354.5L176.8,354.5z"/>
<path style="fill:none;stroke:#000000;stroke-miterlimit:10;" d="M277,356.5c-0.7,0-1.4,2.1-2.1,5.8c-0.7,3.7-1.4,9-2,15.6
	c-0.7,6.6-1.3,14.4-1.8,23.2c-0.5,8.8-0.8,16.9-0.6,27.1c0,0.3,0-0.3,0,0c0,1.8,0.1-1.7,0.2,0h10.7c-0.1-1.8-0.1,1.9-0.2,0
	c0-0.3,0,0.3,0,0c-0.2-10-0.2-18.1-0.2-26.8c-0.1-8.7-0.2-16.6-0.5-23.2c-0.3-6.6-0.8-12-1.4-15.7
	C278.5,358.6,277.8,356.5,277,356.5L277,356.5z"/>
<path style="fill:none;stroke:#000000;stroke-miterlimit:10;" d="M288.2,365.8c0,0.1,0,0.3,0,0.5c-0.3,2.8-0.6,5.9-0.8,9.2
	c-0.2-1.6-0.4-3.1-0.6-4.4c-0.5-3.8-0.5-6.1,0.2-6.3C287.2,364.7,287.6,365,288.2,365.8z"/>
<path style="fill:none;stroke:#000000;stroke-miterlimit:10;" d="M302.9,428.1L302.9,428.1h-10l0,0c-0.2-3.7-0.3,3.5-0.5,0
	c0-0.8-0.1,0.8-0.1,0h4.5c0-1.1-0.1,1.1-0.1,0c0-0.3,0,0.3,0,0c-0.2-10.2-0.2-28.8-0.2-37.8c0-0.8,0-1.5,0-2.3
	c1.6,6.3,3,13.8,4.2,22c0.6,4.4,1.1,13.4,1.5,18.1C302.4,432.3,302.7,423.7,302.9,428.1z"/>
<path style="fill:none;stroke:#000000;stroke-miterlimit:10;" d="M8.3,428.1C8.4,426.2,8.4,430.1,8.3,428.1c0-1.4-0.1,1.4-0.2,0
	C7.8,419.4,6.8,408.7,5,401s-4.3-14.6-7.3-20.7c-2.8-5.6-6-10.5-9.3-14.5s-6.5-7.2-9.4-9.7c-6.6-4.4-10.3-7.4-10-8.2
	c0.4-0.8,4.9,0.6,12.6,3.9c3.6,2.1,7.6,5.1,11.8,9.1c4.1,4,8.2,9.2,11.8,15.3c3.8,6.5,6.9,14.1,9.1,22.4c2.2,8.3,3.5,20.1,3.9,29.4
	c0.1,1.5,0.1-1.5,0.1,0c0,2,0-2-0.1,0H8.3L8.3,428.1z"/>
<path style="fill:none;stroke:#000000;stroke-miterlimit:10;" d="M40.9,428.1c0.2-1.9,0.4,2,0.6,0c1.1-11.7,1.4-21.1,1.1-31.8
	c-0.3-12.6-1.6-24.2-3.2-34.7c-1.7-10.4-3.7-19.5-5.7-27.1c-1.9-7.6-3.7-13.6-4.7-17.8c-1.1-4.2-1.5-6.6-0.8-7
	c0.7-0.3,2.4,1.5,4.7,5.3s5.4,9.5,8.5,17s6.2,16.8,8.7,27.5c2.6,10.8,4.5,23,5.3,36.2c0.7,11.3,0.5,20.1-0.6,32.3
	c-0.1,1.6-0.3-1.6-0.5,0H40.9L40.9,428.1z"/>
<path style="fill:none;stroke:#000000;stroke-miterlimit:10;" d="M113,428.1c0.1-1.5,0.1,1.5,0.2,0c0-0.1,0,0.1,0,0
	c0.4-12.6,0.6-21.6,0.9-32.6c0.2-11,0.5-21,1-29.3c0.4-8.4,1-15.1,1.7-19.8c0.7-4.7,1.5-7.3,2.3-7.3s1.6,2.6,2.4,7.2
	c0.7,4.7,1.4,11.4,2.1,19.7c0.7,8.3,1.2,18.3,1.6,29.4c0.4,11.1,0.5,19.9,0.1,32.7c0,0.2,0-0.2,0,0c0,1.4-0.1-1.3-0.2,0H113
	L113,428.1z"/>
<path style="fill:none;stroke:#000000;stroke-miterlimit:10;" d="M249.1,399.1c-0.5,1.9-1.1,3.9-1.6,5.9c-0.4,1.6-0.8,3.2-1.2,4.9
	c-0.8,3.4-1.5,14.7-2.1,18.2c-1.4-4.9-2.6-17.6-3.6-22.4c-1.6-7.8-2.7-15.4-3.1-22.6c-0.2-3-0.3-6-0.2-8.9c0,0,0,0,0,0
	c0-1.7,0.1-3.3,0.2-4.9c0.3-4.3,0.8-8.3,1.5-12c0.8-4,1.8-7.5,2.9-10.5c1.1-3,2.2-5.5,3.3-7.4c1-2,2-3.4,2.8-4.3
	c0.7-0.8,1.2-1.2,1.5-1.2c0,0,0.1,0,0.1,0c0.3,0.1,0.3,0.8,0.1,1.9c-0.2,1.1-0.5,2.8-1,4.8c-1,4.1-2.3,10.1-2.9,17.6
	c-0.3,3.4-0.4,7.2-0.3,11.2c0.1,4,0.4,8.3,0.9,12.9C246.8,387.7,247.8,393.3,249.1,399.1z"/>
<path style="fill:none;stroke:#000000;stroke-miterlimit:10;" d="M259.6,428.1h-10.4c-0.2-0.6-0.4,0.7-0.6,0c0,0,0,0,0,0h4.3
	c0.5-4.8,1.2,4.5,1.9,0c0.6,2,1.2-2.1,1.8,0c0.5,1.6,1-1.6,1.5,0C258.6,429.8,259.1,426.5,259.6,428.1z"/>
<path style="fill:none;stroke:#000000;stroke-miterlimit:10;" d="M198.8,334.7c-0.1,0-0.3,0-0.4,0.2c-0.1,0.2-0.2,0.5-0.2,0.7
	c-0.1,0.4-0.1,0.9,0,1.5c0.1,1.2,0.5,2.7,1,4.6c1,3.7,2.7,8.8,4.7,15.1c4,12.3,9.4,29.2,13.7,49.1c2.1,9.7,3.8,11.5,4.9,22.3h12.1
	c-1.3-11.9-3.4-14.6-6.1-24.9c-2.6-10.3-5.6-19.6-8.8-27.9c-3.1-8.3-6.3-15.4-9.2-21.3c-3-6-5.6-10.7-7.6-13.9
	c-1-1.7-1.9-2.9-2.5-3.8c-0.3-0.5-0.6-0.8-0.9-1c-0.2-0.2-0.3-0.3-0.4-0.3C198.9,334.8,198.9,334.7,198.8,334.7L198.8,334.7z"/>
<path style="fill:none;stroke:#000000;stroke-miterlimit:10;" d="M176.8,354.5c-0.6,0.2-0.4,2.8,0.4,7.3s2.2,10.9,3.9,18.8
	c1.6,7.9,3.5,17.3,4.9,27.8c1.2,8.8,2.1,9.7,2.2,19.7h9.9c-0.3-10.6-1.5-12.1-3.2-21.2c-2-10.8-4.6-20.3-7.2-28.2
	c-2.6-7.8-5-14-7-18.2C178.8,356.4,177.4,354.3,176.8,354.5L176.8,354.5z"/>
<path style="fill:none;stroke:#000000;stroke-miterlimit:10;" d="M277,356.5c-0.7,0-1.4,2.1-2.1,5.8c-0.7,3.7-1.4,9-2,15.6
	c-0.7,6.6-1.3,14.4-1.8,23.2c-0.5,8.8-0.8,16.9-0.6,27.1c0,0.3,0-0.3,0,0c0,1.8,0.1-1.7,0.2,0h10.7c-0.1-1.8-0.1,1.9-0.2,0
	c0-0.3,0,0.3,0,0c-0.2-10-0.2-18.1-0.2-26.8c-0.1-8.7-0.2-16.6-0.5-23.2c-0.3-6.6-0.8-12-1.4-15.7
	C278.5,358.6,277.8,356.5,277,356.5L277,356.5z"/>
<path style="fill:none;stroke:#000000;stroke-miterlimit:10;" d="M288.2,365.8c0,0.1,0,0.3,0,0.5c-0.3,2.8-0.6,5.9-0.8,9.2
	c-0.2-1.6-0.4-3.1-0.6-4.4c-0.5-3.8-0.5-6.1,0.2-6.3C287.2,364.7,287.6,365,288.2,365.8z"/>
<path style="fill:none;stroke:#000000;stroke-miterlimit:10;" d="M302.9,428.1L302.9,428.1h-10l0,0c-0.2-3.7-0.3,3.5-0.5,0
	c0-0.8-0.1,0.8-0.1,0h4.5c0-1.1-0.1,1.1-0.1,0c0-0.3,0,0.3,0,0c-0.2-10.2-0.2-28.8-0.2-37.8c0-0.8,0-1.5,0-2.3
	c1.6,6.3,3,13.8,4.2,22c0.6,4.4,1.1,13.4,1.5,18.1C302.4,432.3,302.7,423.7,302.9,428.1z"/>
<path style="fill:none;stroke:#000000;stroke-miterlimit:10;" d="M16.4,428.1C16.4,426.1,16.4,430.2,16.4,428.1
	c0-1.4-0.1-11.2-0.2-12.6c-0.4-9-1.5-17.6-3.3-25.4s-4.4-15-7.5-21.3C2.6,363-0.7,358-4,353.9s-6.7-7.4-9.7-9.9
	c-6.7-4.5-10.6-7.6-10.2-8.4c0.4-0.9,5,0.6,13,4c3.7,2.1,7.9,5.2,12.1,9.4c4.2,4.2,8.4,9.4,12.1,15.7c3.9,6.7,7.1,14.5,9.4,23
	s3.6,17.8,4,27.4c0.1,1.6,0.1,11.5,0.1,13c0,2.1,0-2.1-0.1,0H16.4L16.4,428.1z"/>
<path style="fill:none;stroke:#000000;stroke-miterlimit:10;" d="M65.1,403.3L65.1,403.3C65.1,403.3,65.1,403.3,65.1,403.3
	c-2.2,6.8-4.5,18.1-7,24.8h5.8c-0.1,0.8-0.2-0.8-0.2,0H49.9c0.1-0.8,0.2,0.8,0.3,0c0.1-1.3,0.3,1.3,0.4,0c1.1-12,1.4-31.9,1.1-42.9
	c-0.3-10.5-1.2-20.5-2.5-29.6c-0.3-2-0.6-4.1-0.9-6c-1.7-10.7-3.8-20.1-5.8-27.9c-2-7.8-3.8-14-4.9-18.3c-1.1-4.3-1.5-6.8-0.8-7.1
	c0.7-0.3,2.5,1.5,4.9,5.4c2.4,3.9,5.5,9.8,8.7,17.5c3.2,7.7,6.4,17.2,9,28.3c2.6,11.1,4.6,23.6,5.4,37.2
	C65.1,390.7,65.2,397,65.1,403.3z"/>
<path style="fill:none;stroke:#000000;stroke-miterlimit:10;" d="M105.9,358.3c-0.1,3.3-0.3,6.9-0.9,10.7c-0.5,3.8-1.3,8-2.2,12.3
	c-1.6,7.3-3.8,15.3-6.3,23.6c-1.8,6-3.9,16.8-6,23.2c-0.2,0.8-0.5-0.8-0.7,0H79c0.1-0.2,0.2,0.2,0.2,0c0.2-0.5,0.3,0.5,0.5,0
	c2.5-7.6,5.1-19.3,7.4-26.2c0.5-1.4,0.9-2.7,1.4-4.1c2.3-6.6,4.3-12.8,6-18.6c1.2-4.1,2.3-7.9,3.1-11.5c0.8-3.6,1.5-6.9,2-9.9
	c0.5-3,0.8-5.7,1-8.1c0.2-2.4,0.3-4.4,0.4-6.1c0.1-1.7,0.1-3,0.2-3.9c0.1-0.9,0.3-1.4,0.5-1.5c0.3-0.1,0.7,0.3,1.1,1.2
	c0.4,0.8,1,2.1,1.4,3.9c0.5,1.7,0.9,3.8,1.2,6.4C105.8,352.2,106,355.1,105.9,358.3z"/>
<g>
	<path style="fill:none;stroke:#000000;stroke-miterlimit:10;" d="M123.9,428.1c0.1-1.5,0.1,1.5,0.2,0c0-0.2,0,0.2,0,0
		c0.4-12.9,0.6-32.4,0.9-43.7c0.2-11.3,0.6-21.5,1-30.1c0.4-8.6,1-15.5,1.7-20.3c0.7-4.8,1.5-7.5,2.4-7.5c0.9,0,1.7,2.6,2.4,7.4
		c0.8,4.8,1.5,11.7,2.2,20.3c0.7,8.6,1.3,18.8,1.7,30.2c0.4,11.4,0.5,30.6,0.1,43.8c0,0.2,0-0.2,0,0c0,1.4-0.1-1.4-0.2,0H123.9
		L123.9,428.1z"/>
	<path style="fill:none;stroke:#000000;stroke-miterlimit:10;" d="M156.2,428.1c0.3-6.5,0.8-14.8,1.7-20.5c1-6.9,2.5-13,4.1-18
		c1.6-5,3.4-8.9,4.8-11.5s2.6-3.8,3.1-3.6c0.5,0.2,0.4,1.9-0.1,4.7c-0.5,2.8-1.3,6.8-2.1,11.8c-0.8,5-1.6,10.9-2.1,17.5
		c-0.4,5.4-0.7,13.5-0.9,19.6H156.2L156.2,428.1z"/>
</g>
<path style="fill:none;stroke:#000000;stroke-miterlimit:10;" d="M260.3,367.9c-1.7,3.8-3.4,7.9-5.1,12.5c-0.7,1.7-1.3,3.5-1.9,5.4
	c-0.8-4.8-1.3-9.5-1.6-14c-0.3-5-0.3-9.7,0-14.1c0.3-4.4,0.8-8.5,1.5-12.3c0.8-4.1,1.8-7.7,3-10.8c1.1-3.1,2.3-5.6,3.3-7.6
	c1.1-2,2-3.5,2.8-4.5c0.7-0.8,1.2-1.2,1.5-1.2c0,0,0.1,0,0.1,0c0.3,0.1,0.3,0.8,0.1,2c-0.2,1.2-0.6,2.8-1.1,5
	c-1,4.3-2.4,10.4-3,18.1c-0.3,3.5-0.4,7.4-0.4,11.5C259.8,361,260,364.4,260.3,367.9z"/>
<path style="fill:none;stroke:#000000;stroke-miterlimit:10;" d="M274.5,428.1h-10.7c-0.2-0.7-0.4,0.7-0.6,0c-0.5-1.7-1.1,1.7-1.6,0
	c-1.4-4.7-2.8-17.7-4-22.3c1.7-7.6,3.5-14.8,5.4-21.2c0.5,2.7,1.1,5.4,1.8,8.1c1.6,6.9,3.7,14.1,5.9,21.5c0.2,0.8,0.5,1.6,0.7,2.4
	c0.5,1.7,1,9.8,1.5,11.5C273.4,429.8,273.9,426.4,274.5,428.1z"/>
<path style="fill:none;stroke:#000000;stroke-miterlimit:10;" d="M246.3,409.9c-0.8,3.4-1.5,14.7-2.1,18.2c-0.4,2.1-0.7-2.2-1,0
	h-6.8c-0.2-1.7-0.4,1.7-0.6,0c-1.2-9.3-2.7-24.8-4.5-33.2c-4.3-20.4-9.9-37.8-14-50.4c-2.1-6.4-3.8-11.6-4.9-15.5
	c-0.5-1.9-0.9-3.5-1-4.7c-0.1-0.6,0-1.1,0-1.5c0-0.2,0.1-0.6,0.2-0.7c0.1-0.2,0.3-0.2,0.4-0.2c0.1,0,0.2,0.1,0.3,0.2
	c0.1,0.1,0.3,0.1,0.5,0.4c0.2,0.3,0.5,0.6,0.9,1.1c0.7,0.9,1.6,2.2,2.6,3.9c2.1,3.3,4.8,8.1,7.8,14.3c3,6.1,6.3,13.4,9.5,21.9
	c1.3,3.4,2.5,6.9,3.8,10.6c0,0,0,0,0,0c1.9,5.6,3.6,11.6,5.2,18C243.9,397.9,245.2,403.8,246.3,409.9z"/>
<path style="fill:none;stroke:#000000;stroke-miterlimit:10;" d="M189.4,342.3c-0.7,0.2-0.4,2.9,0.4,7.5s2.3,11.2,4,19.3
	c1.7,8.1,3.6,17.8,5.1,28.6c1.2,9,2.1,20.2,2.2,30.5h10.2c-0.3-10.9-1.5-22.6-3.2-32c-2-11.1-4.7-20.9-7.3-28.9
	c-2.6-8.1-5.2-14.4-7.2-18.6C191.5,344.3,190,342.1,189.4,342.3L189.4,342.3z"/>
<path style="fill:none;stroke:#000000;stroke-miterlimit:10;" d="M293.4,361c-1.4-1.4-2.9-2.7-4.3-3.8c0.3-2.7,0.7-5,1-6.9
	c0.2-0.8,0.3-1.6,0.5-2.3c1.4,1.4,2.8,2.8,4.1,4.5c0.4,3,0.7,6.6,1,11C295,362.6,294.2,361.7,293.4,361z"/>
<path style="fill:none;stroke:#000000;stroke-miterlimit:10;" d="M296.8,428.1h-4.5c-0.3-4.4-0.5-13.1-0.8-17.1
	c-0.7-9-1.6-17.1-2.5-23.8c-0.6-4.5-1.2-8.5-1.6-11.7c0,0,0,0,0,0c0.3-3.3,0.5-6.3,0.8-9.2c0-0.2,0-0.3,0-0.5c0-0.1,0-0.2,0-0.3
	c0.1,0.1,0.2,0.2,0.2,0.3c2.7,3.4,5.4,7.3,7.8,11.8c0.1,3.3,0.1,6.8,0.1,10.4c0,0,0,0,0,0c0,0.8,0,1.5,0,2.3c0,9,0,27.6,0.2,37.8
	c0,0.3,0-0.3,0,0C296.7,429.3,296.7,427,296.8,428.1z"/>
<path style="fill:none;stroke:#000000;stroke-miterlimit:10;" d="M296.8,428.1h-11c0-0.8-0.1,0.8-0.1,0c0-1-0.1,1-0.1,0
	c0-0.3,0,0.3,0,0c-0.2-10.5,0.2-29,0.7-38c0.3-5.2,0.6-10.1,1-14.6c0.5,3.3,1,7.2,1.6,11.7c0.9,6.8,1.8,14.8,2.5,23.8
	c0.3,4,0.6,12.7,0.8,17.1H296.8C296.8,428.9,296.8,427.4,296.8,428.1z"/>
<path style="fill:none;stroke:#000000;stroke-miterlimit:10;" d="M313,390.1c0.8,3.7,1.5,7.5,2,11.5c-0.2-0.9-0.5-1.9-0.7-2.8
	c-2.2-8.3-5.4-15.9-9.1-22.4c-0.3-0.4-0.5-0.9-0.8-1.3c-0.5-4.2-1.1-7.9-1.5-11c0.9,1.5,1.7,3.1,2.5,4.8
	C308.6,375,311.1,382.2,313,390.1z"/>
<path style="fill:none;stroke:#000000;stroke-miterlimit:10;" d="M318.9,428.1h-10.3c0-1-0.1,1-0.1,0h7.9c0-1.3,0,1.3,0,0
	c0-1.4-0.1-11.1-0.2-12.6c-0.2-4.8-0.6-9.5-1.2-14c1.7,7,2.7,18.9,3.1,26.6h0.6C318.8,428.9,318.8,427.4,318.9,428.1
	C318.8,428.4,318.8,427.9,318.9,428.1z"/>
<path style="fill:none;stroke:#000000;stroke-miterlimit:10;" d="M36.5,428.1C36.5,426.4,36.5,429.9,36.5,428.1c0-1.2-0.1,1.3-0.1,0
	c-0.3-7.7-1.3-23.2-2.8-30c-1.6-6.8-3.8-13-6.5-18.3c-2.5-5-5.3-9.3-8.2-12.9c-2.9-3.6-5.8-6.4-8.4-8.5c-5.8-3.9-9.1-6.5-8.8-7.3
	c0.3-0.7,4.3,0.5,11.2,3.5c3.2,1.8,6.8,4.5,10.4,8.1s7.3,8.1,10.4,13.6c3.3,5.8,6.1,12.5,8.1,19.9c2,7.4,3.1,23.8,3.5,32.1
	c0.1,1.3,0.1-1.3,0.1,0c0,1.8,0-1.8-0.1,0H36.5L36.5,428.1z"/>
<path style="fill:none;stroke:#000000;stroke-miterlimit:10;" d="M79.7,385.6c-0.5,2.1-1.1,4.2-1.7,6.4c-2.8,10.7-6,25.7-9.5,36.2
	H58.1c2.5-6.7,4.8-17.9,7-24.8c0,0,0,0,0,0v0c0.6-1.9,1.2-3.8,1.8-5.7c3-9.6,5.7-19.3,8.1-29.1c1.6-6.5,3.1-13,4.5-19.5
	C80.1,361.2,80.2,373.4,79.7,385.6z"/>
<path style="fill:none;stroke:#000000;stroke-miterlimit:10;" d="M66.8,394c-0.3-11.1-1.4-21.5-2.9-30.7c-1.5-9.2-3.3-17.3-5-24
	c-1.7-6.7-3.3-12-4.2-15.8c-1-3.7-1.3-5.9-0.7-6.2c0.6-0.3,2.1,1.3,4.2,4.6c2.1,3.3,4.8,8.4,7.5,15c2.7,6.6,5.5,14.8,7.8,24.4
	c0.6,2.3,1.1,4.7,1.6,7.2c-2.4,9.8-5.1,19.4-8.1,29.1C66.9,396.4,66.9,395.2,66.8,394z"/>
<path style="fill:none;stroke:#000000;stroke-miterlimit:10;" d="M78.5,406.5c0,5.6-0.3,15.8-0.8,21.6c0,0.4-0.1-0.4-0.1,0
	c0,0.1,0-0.1,0,0c-0.1,1.3-0.3-1.3-0.4,0H65.3c0.2-1.7,0.4,1.8,0.5,0c0-0.1,0,0.1,0,0h2.7c3.5-10.5,6.7-25.5,9.5-36.2
	c0,0.5,0.1,1,0.1,1.5C78.4,397.7,78.5,402.1,78.5,406.5z"/>
<path style="fill:none;stroke:#000000;stroke-miterlimit:10;" d="M90.5,428.1c2.4-7.3,4.8-13.3,7.1-19.8c2.4-7,4.6-13.6,6.4-19.6
	c1-3.5,1.9-6.8,2.7-9.9c0.7-3.1,1.3-5.9,1.7-8.5c0.4-2.6,0.7-4.9,0.9-7c0.2-2,0.3-3.8,0.3-5.2c0.1-1.4,0.1-2.6,0.2-3.4
	c0.1-0.8,0.2-1.2,0.5-1.3c0.2-0.1,0.6,0.3,1,1c0.4,0.7,0.8,1.8,1.2,3.3c0.4,1.5,0.8,3.3,1,5.5s0.3,4.7,0.3,7.5
	c-0.1,2.8-0.3,5.9-0.7,9.2c-0.4,3.3-1.1,6.9-1.9,10.6c-1.4,6.3-3.3,13.1-5.4,20.3c-1.8,5.8-3.8,11-5.8,17.2H90.5L90.5,428.1z"/>
<path style="fill:none;stroke:#000000;stroke-miterlimit:10;" d="M129.1,428.1c0.1-1.3,0.1,1.3,0.2,0c0-0.1,0,0.1,0,0
	c0.4-11.2,0.6-25.2,0.8-34.9c0.2-9.7,0.5-18.6,0.9-26s0.9-13.4,1.5-17.5c0.6-4.1,1.3-6.4,2.1-6.4s1.4,2.3,2.1,6.4
	c0.7,4.1,1.3,10.1,1.9,17.5c0.6,7.4,1.1,16.2,1.4,26c0.3,9.8,0.4,23.6,0.1,35c0,0.1,0-0.1,0,0c0,1.2-0.1-1.2-0.2,0H129.1
	L129.1,428.1z"/>
<path style="fill:none;stroke:#000000;stroke-miterlimit:10;" d="M205,339.4c-0.1,0-0.2,0-0.3,0.2c-0.1,0.1-0.1,0.4-0.2,0.6
	c0,0.3-0.1,0.8,0,1.3c0.1,1,0.4,2.4,0.9,4.1c0.9,3.3,2.4,7.8,4.2,13.3c3.5,10.9,8.4,25.8,12.1,43.4c1.8,8.6,3.3,16.2,4.4,25.8h10.7
	c-1.1-10.5-3-18.9-5.4-28.1c-2.3-9.1-5-17.3-7.8-24.7c-2.8-7.3-5.6-13.7-8.2-18.9c-2.6-5.3-5-9.4-6.8-12.3c-0.9-1.5-1.7-2.6-2.3-3.4
	c-0.3-0.4-0.6-0.7-0.8-0.9c-0.1-0.2-0.3-0.2-0.4-0.3C205.2,339.5,205.1,339.4,205,339.4L205,339.4z"/>
<path style="fill:none;stroke:#000000;stroke-miterlimit:10;" d="M185.6,356.9c-0.6,0.2-0.4,2.5,0.4,6.4c0.7,4,2,9.6,3.4,16.7
	c1.5,7,3.1,15.3,4.4,24.6c1.1,7.8,1.8,14.6,1.9,23.5h8.8c-0.2-9.4-1.3-16.7-2.8-24.8c-1.8-9.6-4.1-18-6.3-25
	c-2.3-6.9-4.5-12.4-6.2-16.1C187.4,358.7,186.1,356.7,185.6,356.9L185.6,356.9z"/>
<path style="fill:none;stroke:#000000;stroke-miterlimit:10;" d="M179.5,428.1c-0.2-1.7-0.4,1.7-0.6,0c-0.9-10.4-1.2-24.7-1-34.2
	c0.3-11.1,1.4-21.5,2.9-30.7c1.5-9.2,3.3-17.3,5-24c1.7-6.7,3.3-12,4.2-15.8c1-3.7,1.3-5.9,0.7-6.2c-0.6-0.3-2.1,1.3-4.2,4.6
	c-2.1,3.3-4.8,8.4-7.5,15c-2.7,6.6-5.5,14.8-7.7,24.4c-2.3,9.5-4,20.4-4.7,32.1c-0.6,10-0.5,23.8,0.5,34.6c0.1,1.4,0.3-1.4,0.4,0
	H179.5L179.5,428.1z"/>
<path style="fill:none;stroke:#000000;stroke-miterlimit:10;" d="M144.1,338.8c0.3,0,0.7,0.3,1.3,1.1c0.7,0.8,1.5,2.1,2.4,3.8
	c0.9,1.7,1.9,3.9,2.9,6.6c1,2.7,1.9,5.8,2.5,9.3c0.6,3.2,1.1,6.8,1.3,10.6c0.2,3.8,0.2,7.9,0,12.2c-0.4,6.3-1.3,13-2.8,20
	c-1.4,6.9-3.4,18.6-5.6,25.8c-0.5,1.5-0.9-1.4-1.4,0c-0.2,0.6-0.4-0.6-0.6,0H135c0.5-1.5,0.9,1.5,1.4,0c0.4-1.4,0.9,1.5,1.3,0
	c2.2-7.1,4.2-21.1,5.7-27.7c1.6-6.6,2.7-12.9,3.4-18.8c0.5-4,0.8-7.8,0.8-11.4c0.1-3.6-0.1-6.9-0.3-9.9c-0.5-6.6-1.7-11.9-2.6-15.6
	c-0.4-1.8-0.8-3.3-0.9-4.3c-0.2-1-0.1-1.6,0.1-1.7C144,338.8,144,338.8,144.1,338.8L144.1,338.8z"/>
<path style="fill:none;stroke:#000000;stroke-miterlimit:10;" d="M273.1,352c-0.9,3.1-2.2,7.2-3.8,11.9c-1.9,5.8-4.1,12.8-6.4,20.7
	c-1.8,6.5-3.7,13.6-5.4,21.2c-0.1,0.5-0.2,1-0.3,1.5c-0.9,4.3-1.8,16.2-2.5,20.8c-0.7,4.5-1.4-4.8-1.9,0h-10.7c0.3-2.7,0.6,2.6,1,0
	c0.3-2.2,0.7,2.1,1,0c0.6-3.6,1.3-14.8,2.1-18.2c0.4-1.6,0.8-3.3,1.2-4.9c0.5-2,1-4,1.6-5.9c1.3-4.7,2.8-9.2,4.2-13.4
	c0.6-1.8,1.3-3.6,1.9-5.4c1.7-4.5,3.5-8.7,5.1-12.5c1-2.3,2.1-4.5,3-6.5c2.5-5.2,4.8-9.2,6.6-12.1C270.7,350.1,271.7,351,273.1,352z
	"/>
<path style="fill:none;stroke:#000000;stroke-miterlimit:10;" d="M274.3,346.5c-0.1,0.6-0.2,1.4-0.4,2.3c-0.1,0.6-0.3,1.2-0.5,1.8
	c-0.1,0.4-0.3,0.9-0.4,1.4c-1.4-1-2.4-1.9-3.1-2.6c0-0.1,0.1-0.2,0.2-0.3c0.3-0.5,0.6-0.9,0.8-1.3c0.6-0.8,1-1.5,1.4-2.1
	c0.3-0.4,0.6-0.7,0.8-0.9c0.1-0.2,0.3-0.2,0.4-0.3c0.1-0.1,0.2-0.1,0.3-0.2c0.1,0,0.2,0,0.3,0.2c0.1,0.1,0.1,0.4,0.2,0.6
	C274.4,345.5,274.4,346,274.3,346.5z"/>
<path style="fill:none;stroke:#000000;stroke-miterlimit:10;" d="M163.8,362c0.6,0.2,0.5,2.2,0.1,5.6c-0.4,3.4-1.2,8.3-1.9,14.2
	c-0.8,6-1.6,13.1-2.2,21.1c-0.6,7-1,17.1-1.3,25.2h-8.9c0.4-8.4,1-18.8,2-26.1c1.1-8.2,2.6-15.4,4.2-21.4c1.6-6,3.3-10.8,4.8-13.9
	C162.1,363.5,163.2,361.8,163.8,362L163.8,362z"/>
<path style="fill:none;stroke:#000000;stroke-miterlimit:10;" d="M318.3,428.1C318.3,430.2,318.3,426.1,318.3,428.1h-10c0-2,0,2,0,0
	c0-1.4-0.1,1.4-0.2,0c0-0.7-0.1,0.7-0.1,0h8.3c0-1.3,0,1.3,0,0c0-1.4-0.1-11.1-0.2-12.6c-0.2-4.8-0.6-9.5-1.2-14
	c1.7,7,2.7,18.9,3.1,26.6C318.2,428.7,318.2,427.5,318.3,428.1C318.2,428.3,318.2,427.9,318.3,428.1
	C318.2,428.4,318.3,427.9,318.3,428.1C318.3,429.2,318.3,427,318.3,428.1z"/>
<path style="fill:none;stroke:#000000;stroke-miterlimit:10;" d="M340.9,428.1c0.2-1.9,0.4,2,0.6,0c1.1-11.7,1.4-21.1,1.1-31.8
	c-0.3-12.6-1.6-24.2-3.2-34.7c-1.7-10.4-3.7-19.5-5.7-27.1c-1.9-7.6-3.7-13.6-4.7-17.8c-1.1-4.2-1.5-6.6-0.8-7
	c0.7-0.3,2.4,1.5,4.7,5.2s5.4,9.5,8.5,17c3.1,7.5,6.2,16.8,8.7,27.5s4.5,23,5.3,36.2c0.7,11.3,0.5,20.1-0.6,32.3
	c-0.1,1.6-0.3-1.6-0.5,0H340.9L340.9,428.1z"/>
<path style="fill:none;stroke:#000000;stroke-miterlimit:10;" d="M369.3,428.1c2.7-8.2,5.4-8.2,8-15.6c2.7-7.9,5.2-15.3,7.2-22.1
	c1.2-4,2.2-7.7,3-11.2c0.8-3.5,1.5-6.7,1.9-9.7c0.5-2.9,0.8-5.6,1-7.9s0.3-4.3,0.3-5.9c0.1-1.6,0.1-2.9,0.2-3.8
	c0.1-0.9,0.3-1.4,0.5-1.4c0.3-0.1,0.7,0.3,1.1,1.1c0.4,0.8,0.9,2.1,1.4,3.8s0.9,3.7,1.1,6.2s0.4,5.3,0.3,8.5
	c-0.1,3.2-0.3,6.7-0.8,10.4c-0.5,3.7-1.2,7.8-2.2,11.9c-1.6,7.1-3.7,14.9-6.2,23c-2,6.6-4.3,5.6-6.5,12.6H369.3L369.3,428.1z"/>
<path style="fill:none;stroke:#000000;stroke-miterlimit:10;" d="M516.2,428.1c-0.1-1.5-0.1,1.5-0.2,0c0-0.1,0,0.1,0,0
	c-0.4-12.6-0.6-21.6-0.9-32.6s-0.5-21-1-29.3c-0.4-8.4-1-15.1-1.7-19.8c-0.7-4.7-1.5-7.3-2.3-7.3c-0.8,0-1.6,2.6-2.4,7.2
	c-0.7,4.7-1.4,11.4-2.1,19.7c-0.7,8.3-1.2,18.3-1.6,29.4c-0.4,11.1-0.5,19.9-0.1,32.7c0,0.2,0-0.2,0,0c0,1.4,0.1-1.3,0.2,0H516.2
	L516.2,428.1z"/>
<path style="fill:none;stroke:#000000;stroke-miterlimit:10;" d="M484.8,428.1c-0.3-6.3-0.8-4.5-1.6-10c-1-6.7-2.4-12.7-4-17.6
	s-3.3-8.7-4.7-11.2c-1.4-2.5-2.5-3.7-3-3.5c-0.5,0.2-0.4,1.9,0.1,4.6c0.5,2.8,1.3,6.6,2.1,11.4c0.8,4.8,1.5,10.6,2.1,17.1
	c0.4,5.3,0.7,3.1,0.9,9.2H484.8L484.8,428.1z"/>
<path style="fill:none;stroke:#000000;stroke-miterlimit:10;" d="M430.5,334.7c0.1,0,0.3,0,0.4,0.2c0.1,0.2,0.2,0.5,0.2,0.7
	c0.1,0.4,0.1,0.9,0,1.5c-0.1,1.2-0.5,2.7-1,4.6c-1,3.7-2.7,8.8-4.7,15.1c-4,12.3-9.4,29.2-13.7,49.1c-2.1,9.7-3.8,11.5-4.9,22.3
	h-12.1c1.3-11.9,3.4-14.6,6.1-24.9c2.6-10.3,5.6-19.6,8.8-27.9c3.1-8.3,6.3-15.4,9.2-21.3c3-6,5.6-10.7,7.6-13.9
	c1-1.7,1.9-2.9,2.5-3.8c0.3-0.5,0.6-0.8,0.9-1c0.2-0.2,0.3-0.3,0.4-0.3C430.3,334.8,430.4,334.7,430.5,334.7L430.5,334.7z"/>
<path style="fill:none;stroke:#000000;stroke-miterlimit:10;" d="M452.5,354.5c0.6,0.2,0.4,2.8-0.4,7.3c-0.8,4.5-2.2,10.9-3.9,18.8
	c-1.6,7.9-3.5,17.3-4.9,27.8c-1.2,8.8-2.1,9.7-2.2,19.7h-9.9c0.3-10.6,1.5-12.1,3.2-21.2c2-10.8,4.6-20.3,7.2-28.2
	c2.6-7.8,5-14,7-18.2C450.4,356.4,451.8,354.3,452.5,354.5L452.5,354.5z"/>
<path style="fill:none;stroke:#000000;stroke-miterlimit:10;" d="M316.4,428.1h-8.3c-0.4-8-1.4-20-3.1-27.1
	c-1.8-7.7-4.3-14.6-7.3-20.7c-0.5-0.9-0.9-1.8-1.4-2.7c-2.4-4.5-5.1-8.5-7.8-11.8c-0.1-0.1-0.1-0.2-0.2-0.3c-3.2-3.9-6.4-7-9.2-9.4
	c-2.3-1.6-4.3-3-5.9-4.1c-1.4-1-2.4-1.9-3.1-2.6c-0.8-0.7-1.1-1.2-1-1.5c0.1-0.3,0.8-0.3,1.9,0c0.8,0.2,1.8,0.5,3,0.9
	c2,0.7,4.6,1.7,7.7,3.1c2.3,1.4,4.9,3.1,7.5,5.3c1.4,1.2,2.8,2.4,4.3,3.8c0.8,0.8,1.6,1.6,2.4,2.5c3,3.3,6,7.2,8.6,11.6
	c0.3,0.4,0.5,0.8,0.8,1.3c3.8,6.5,6.9,14.1,9.1,22.4c0.3,0.9,0.5,1.9,0.7,2.8c0.6,4.5,1,9.2,1.2,14
	C316.3,417,316.4,426.7,316.4,428.1C316.4,429.4,316.4,426.9,316.4,428.1z"/>
<path style="fill:none;stroke:#000000;stroke-miterlimit:10;" d="M318.3,428.1C318.3,430.2,318.3,426.1,318.3,428.1h-10c0-2,0,2,0,0
	c0-1.4-0.1,1.4-0.2,0c0-0.7-0.1,0.7-0.1,0h8.3c0-1.3,0,1.3,0,0c0-1.4-0.1-11.1-0.2-12.6c-0.2-4.8-0.6-9.5-1.2-14
	c1.7,7,2.7,18.9,3.1,26.6C318.2,428.7,318.2,427.5,318.3,428.1C318.2,428.3,318.2,427.9,318.3,428.1
	C318.2,428.4,318.3,427.9,318.3,428.1C318.3,429.2,318.3,427,318.3,428.1z"/>
<path style="fill:none;stroke:#000000;stroke-miterlimit:10;" d="M340.9,428.1c0.2-1.9,0.4,2,0.6,0c1.1-11.7,1.4-21.1,1.1-31.8
	c-0.3-12.6-1.6-24.2-3.2-34.7c-1.7-10.4-3.7-19.5-5.7-27.1c-1.9-7.6-3.7-13.6-4.7-17.8c-1.1-4.2-1.5-6.6-0.8-7
	c0.7-0.3,2.4,1.5,4.7,5.2s5.4,9.5,8.5,17c3.1,7.5,6.2,16.8,8.7,27.5s4.5,23,5.3,36.2c0.7,11.3,0.5,20.1-0.6,32.3
	c-0.1,1.6-0.3-1.6-0.5,0H340.9L340.9,428.1z"/>
<path style="fill:none;stroke:#000000;stroke-miterlimit:10;" d="M369.3,428.1c2.7-8.2,5.4-8.2,8-15.6c2.7-7.9,5.2-15.3,7.2-22.1
	c1.2-4,2.2-7.7,3-11.2c0.8-3.5,1.5-6.7,1.9-9.7c0.5-2.9,0.8-5.6,1-7.9s0.3-4.3,0.3-5.9c0.1-1.6,0.1-2.9,0.2-3.8
	c0.1-0.9,0.3-1.4,0.5-1.4c0.3-0.1,0.7,0.3,1.1,1.1c0.4,0.8,0.9,2.1,1.4,3.8s0.9,3.7,1.1,6.2s0.4,5.3,0.3,8.5
	c-0.1,3.2-0.3,6.7-0.8,10.4c-0.5,3.7-1.2,7.8-2.2,11.9c-1.6,7.1-3.7,14.9-6.2,23c-2,6.6-4.3,5.6-6.5,12.6H369.3L369.3,428.1z"/>
<path style="fill:none;stroke:#000000;stroke-miterlimit:10;" d="M516.2,428.1c-0.1-1.5-0.1,1.5-0.2,0c0-0.1,0,0.1,0,0
	c-0.4-12.6-0.6-21.6-0.9-32.6s-0.5-21-1-29.3c-0.4-8.4-1-15.1-1.7-19.8c-0.7-4.7-1.5-7.3-2.3-7.3c-0.8,0-1.6,2.6-2.4,7.2
	c-0.7,4.7-1.4,11.4-2.1,19.7c-0.7,8.3-1.2,18.3-1.6,29.4c-0.4,11.1-0.5,19.9-0.1,32.7c0,0.2,0-0.2,0,0c0,1.4,0.1-1.3,0.2,0H516.2
	L516.2,428.1z"/>
<path style="fill:none;stroke:#000000;stroke-miterlimit:10;" d="M430.5,334.7c0.1,0,0.3,0,0.4,0.2c0.1,0.2,0.2,0.5,0.2,0.7
	c0.1,0.4,0.1,0.9,0,1.5c-0.1,1.2-0.5,2.7-1,4.6c-1,3.7-2.7,8.8-4.7,15.1c-4,12.3-9.4,29.2-13.7,49.1c-2.1,9.7-3.8,11.5-4.9,22.3
	h-12.1c1.3-11.9,3.4-14.6,6.1-24.9c2.6-10.3,5.6-19.6,8.8-27.9c3.1-8.3,6.3-15.4,9.2-21.3c3-6,5.6-10.7,7.6-13.9
	c1-1.7,1.9-2.9,2.5-3.8c0.3-0.5,0.6-0.8,0.9-1c0.2-0.2,0.3-0.3,0.4-0.3C430.3,334.8,430.4,334.7,430.5,334.7L430.5,334.7z"/>
<path style="fill:none;stroke:#000000;stroke-miterlimit:10;" d="M452.5,354.5c0.6,0.2,0.4,2.8-0.4,7.3c-0.8,4.5-2.2,10.9-3.9,18.8
	c-1.6,7.9-3.5,17.3-4.9,27.8c-1.2,8.8-2.1,9.7-2.2,19.7h-9.9c0.3-10.6,1.5-12.1,3.2-21.2c2-10.8,4.6-20.3,7.2-28.2
	c2.6-7.8,5-14,7-18.2C450.4,356.4,451.8,354.3,452.5,354.5L452.5,354.5z"/>
<path style="fill:none;stroke:#000000;stroke-miterlimit:10;" d="M326.6,428.1C326.6,429.4,326.6,426.8,326.6,428.1h-8.5
	c-0.4-7.7-1.5-19.6-3.1-26.6c-0.5-4-1.2-7.8-2-11.5c-1.8-7.9-4.4-15-7.5-21.3c-0.8-1.7-1.7-3.2-2.5-4.8c-2.2-3.8-4.6-7.2-7-10.2
	c-0.4-0.5-0.8-0.9-1.2-1.4c-1.4-1.6-2.8-3.1-4.1-4.5c-1.5-1.5-3-2.8-4.4-4c-6.7-4.5-10.6-7.6-10.2-8.4c0.4-0.9,5,0.6,13,4
	c3.7,2.1,7.9,5.2,12.1,9.4c0.7,0.7,1.3,1.4,2,2.1c-0.8-0.2-1.3-0.1-1.4,0.1c-0.3,0.6,1.9,2.5,5.9,5.3l0,0c1.9,2.5,3.8,5.3,5.5,8.2
	c3.9,6.7,7.1,14.5,9.4,23c2.3,8.5,3.6,17.9,4,27.4C326.6,416.7,326.6,426.6,326.6,428.1z"/>
<path style="fill:none;stroke:#000000;stroke-miterlimit:10;" d="M303,351c1.5,1.7,3.1,3.5,4.6,5.4c-4-2.8-6.2-4.7-5.9-5.3
	C301.8,350.9,302.2,350.8,303,351z"/>
<path style="fill:none;stroke:#000000;stroke-miterlimit:10;" d="M326.6,428.1C326.6,428.9,326.6,427.4,326.6,428.1h-10.2
	c0-0.8,0,0.8,0,0c0-1.3,0,1.3,0,0c0-1.4-0.1-11.1-0.2-12.6c-0.2-4.8-0.6-9.5-1.2-14c1.7,7,2.7,18.9,3.1,26.6H326.6z"/>
<path style="fill:none;stroke:#000000;stroke-miterlimit:10;" d="M346.7,428.1c0.3-2.3,0.6,2.3,0.8,0c1.3-13.7,1.7-36,1.3-48.5
	c-0.4-14.7-2-28.4-4-40.5c-2.1-12.2-4.6-22.9-7-31.7c-2.4-8.9-4.6-15.9-5.9-20.9c-1.3-4.9-1.8-7.8-1-8.1s3,1.7,5.9,6.1
	c2.9,4.4,6.7,11.1,10.5,19.9c3.8,8.8,7.7,19.6,10.9,32.2c3.2,12.6,5.6,26.9,6.6,42.4c0.8,13.2,0.6,34.8-0.7,49.2
	c-0.2,1.8-0.4-1.8-0.6,0H346.7L346.7,428.1z"/>
<path style="fill:none;stroke:#000000;stroke-miterlimit:10;" d="M379,428.1c2.7-8.5,5.6-18.7,8.2-26.2c2.8-8.1,5.3-15.7,7.4-22.7
	c1.2-4.1,2.3-7.9,3.1-11.5c0.9-3.6,1.5-6.9,2-9.9c0.5-3,0.8-5.7,1-8.1c0.2-2.4,0.3-4.4,0.4-6.1c0.1-1.7,0.1-3,0.2-3.9
	c0.1-0.9,0.3-1.4,0.5-1.5c0.3-0.1,0.7,0.3,1.1,1.2c0.4,0.8,0.9,2.1,1.4,3.9c0.5,1.7,0.9,3.8,1.2,6.4s0.4,5.5,0.3,8.7
	c-0.1,3.3-0.3,6.9-0.9,10.7c-0.5,3.8-1.3,8-2.2,12.3c-1.6,7.3-3.8,15.3-6.3,23.6c-2.1,6.8-4.4,16-6.7,23.2H379L379,428.1z"/>
<path style="fill:none;stroke:#000000;stroke-miterlimit:10;" d="M505.3,428.1c-0.1-1.5-0.1,1.5-0.2,0c0-0.2,0,0.2,0,0
	c-0.4-12.9-0.6-32.4-0.9-43.7s-0.6-21.5-1-30.1c-0.4-8.6-1-15.5-1.7-20.3c-0.7-4.8-1.5-7.5-2.4-7.5c-0.9,0-1.7,2.6-2.4,7.4
	c-0.8,4.8-1.5,11.7-2.2,20.3c-0.7,8.6-1.3,18.8-1.7,30.2c-0.4,11.4-0.5,30.6-0.1,43.8c0,0.2,0-0.2,0,0c0,1.4,0.1-1.4,0.2,0H505.3
	L505.3,428.1z"/>
<path style="fill:none;stroke:#000000;stroke-miterlimit:10;" d="M473.1,428.1c-0.3-6.5-0.8-14.8-1.7-20.5c-1-6.9-2.5-13-4.1-18
	c-1.6-5-3.4-8.9-4.8-11.5c-1.5-2.6-2.6-3.8-3.1-3.6c-0.5,0.2-0.4,1.9,0.1,4.7c0.5,2.8,1.3,6.8,2.1,11.8c0.8,5,1.6,10.9,2.1,17.5
	c0.4,5.4,0.7,13.5,0.9,19.6H473.1L473.1,428.1z"/>
<path style="fill:none;stroke:#000000;stroke-miterlimit:10;" d="M439.9,342.3c0.7,0.2,0.4,2.9-0.4,7.5c-0.8,4.6-2.3,11.2-4,19.3
	c-1.7,8.1-3.6,17.8-5.1,28.6c-1.2,9-2.1,20.2-2.2,30.5H418c0.3-10.9,1.5-22.6,3.2-32c2-11.1,4.7-20.9,7.3-28.9
	c2.6-8.1,5.2-14.4,7.2-18.6C437.8,344.3,439.2,342.1,439.9,342.3L439.9,342.3z"/>
<path style="fill:none;stroke:#000000;stroke-miterlimit:10;" d="M345.3,428.1L345.3,428.1C345.3,429.9,345.3,426.3,345.3,428.1
	h-8.8c0-1.7,0,1.8,0,0l0,0c0-1.2-0.1,1.2-0.1,0c-0.3-7.7-1.3-23.2-2.8-30c-1.6-6.8-3.8-13-6.5-18.3c-2.5-5-5.3-9.3-8.2-12.9
	s-5.8-6.3-8.4-8.5c-1-0.7-2-1.3-2.9-2l0,0c-4-2.8-6.2-4.7-5.9-5.3c0.1-0.2,0.6-0.3,1.4-0.1c1.7,0.3,5.1,1.6,9.8,3.6
	c3.2,1.8,6.8,4.5,10.4,8.1c3.6,3.6,7.3,8.1,10.4,13.6c3.3,5.8,6.1,12.5,8.1,19.9C343.7,403.4,344.9,419.9,345.3,428.1
	C345.3,429.5,345.3,426.8,345.3,428.1z"/>
<path style="fill:none;stroke:#000000;stroke-miterlimit:10;" d="M366.3,428.1c0.2-1.7,0.4,1.7,0.6,0c0.9-10.4,1.2-24.7,1-34.2
	c-0.3-11.1-1.4-21.5-2.9-30.7c-1.5-9.2-3.3-17.3-5-24c-1.7-6.7-3.3-12-4.2-15.8c-1-3.7-1.3-5.9-0.7-6.2s2.1,1.3,4.2,4.6
	c2.1,3.3,4.8,8.4,7.5,15c2.7,6.6,5.5,14.8,7.7,24.4c2.3,9.5,4,20.4,4.7,32.1c0.6,10,0.5,23.8-0.5,34.6c-0.1,1.4-0.3-1.4-0.4,0H366.3
	L366.3,428.1z"/>
<path style="fill:none;stroke:#000000;stroke-miterlimit:10;" d="M500.1,428.1c-0.1-1.3-0.1,1.3-0.2,0c0-0.1,0,0.1,0,0
	c-0.4-11.2-0.6-25.2-0.8-34.9c-0.2-9.7-0.5-18.6-0.9-26c-0.4-7.4-0.9-13.4-1.5-17.5c-0.6-4.1-1.3-6.4-2.1-6.4
	c-0.7,0-1.4,2.3-2.1,6.4c-0.7,4.1-1.3,10.1-1.9,17.5c-0.6,7.4-1.1,16.2-1.4,26c-0.3,9.8-0.4,23.6-0.1,35c0,0.1,0-0.1,0,0
	c0,1.2,0.1-1.2,0.2,0H500.1L500.1,428.1z"/>
<path style="fill:none;stroke:#000000;stroke-miterlimit:10;" d="M505,339.4c-0.1,0-0.2,0-0.3,0.2c-0.1,0.1-0.1,0.4-0.2,0.6
	c0,0.3-0.1,0.8,0,1.3c0.1,1,0.4,2.4,0.9,4.1c0.9,3.3,2.4,7.8,4.2,13.3c3.5,10.9,8.4,25.8,12.1,43.4c1.8,8.6,3.3,16.2,4.4,25.8h10.7
	c-1.1-10.5-3-18.9-5.4-28.1c-2.3-9.1-5-17.3-7.8-24.7c-2.8-7.3-5.6-13.7-8.2-18.9c-2.6-5.3-5-9.4-6.8-12.3c-0.9-1.5-1.7-2.6-2.3-3.4
	c-0.3-0.4-0.6-0.7-0.8-0.9c-0.1-0.2-0.3-0.2-0.4-0.3C505.2,339.5,505.1,339.4,505,339.4L505,339.4z"/>
<path style="fill:none;stroke:#000000;stroke-miterlimit:10;" d="M443.6,356.9c0.6,0.2,0.4,2.5-0.4,6.4c-0.7,4-2,9.6-3.4,16.7
	c-1.5,7-3.1,15.3-4.4,24.6c-1.1,7.8-1.8,14.6-1.9,23.5h-8.8c0.2-9.4,1.3-16.7,2.8-24.8c1.8-9.6,4.1-18,6.3-25
	c2.3-6.9,4.5-12.4,6.2-16.1C441.8,358.7,443.1,356.7,443.6,356.9L443.6,356.9z"/>
<path style="fill:none;stroke:#000000;stroke-miterlimit:10;" d="M449.7,428.1c0.2-1.7,0.4,1.7,0.6,0c0.9-10.4,1.2-24.7,1-34.2
	c-0.3-11.1-1.4-21.5-2.9-30.7c-1.5-9.2-3.3-17.3-5-24c-1.7-6.7-3.3-12-4.2-15.8c-1-3.7-1.3-5.9-0.7-6.2c0.6-0.3,2.1,1.3,4.2,4.6
	c2.1,3.3,4.8,8.4,7.5,15c2.7,6.6,5.5,14.8,7.7,24.4c2.3,9.5,4,20.4,4.7,32.1c0.6,10,0.5,23.8-0.5,34.6c-0.1,1.4-0.3-1.4-0.4,0H449.7
	L449.7,428.1z"/>
<path style="fill:none;stroke:#000000;stroke-miterlimit:10;" d="M485.1,338.8c-0.3,0-0.7,0.3-1.3,1.1c-0.7,0.8-1.5,2.1-2.4,3.8
	c-0.9,1.7-1.9,3.9-2.9,6.6c-1,2.7-1.8,5.8-2.5,9.3c-0.6,3.2-1.1,6.8-1.3,10.6c-0.2,3.8-0.2,7.9,0,12.2c0.4,6.3,1.3,13,2.8,20
	c1.4,6.9,3.4,18.6,5.6,25.8c0.5,1.5,0.9-1.4,1.4,0c0.2,0.6,0.4-0.6,0.6,0h9.2c-0.5-1.5-0.9,1.5-1.4,0c-0.4-1.4-0.9,1.5-1.3,0
	c-2.2-7.1-4.2-21.1-5.7-27.7c-1.6-6.6-2.7-12.9-3.4-18.8c-0.5-4-0.8-7.8-0.8-11.4c-0.1-3.6,0.1-6.9,0.3-9.9
	c0.5-6.6,1.7-11.9,2.6-15.6c0.4-1.8,0.8-3.3,0.9-4.3c0.2-1,0.1-1.6-0.1-1.7C485.2,338.8,485.2,338.8,485.1,338.8L485.1,338.8z"/>
<path style="fill:none;stroke:#000000;stroke-miterlimit:10;" d="M13.3,243.1C13.3,243.1,13.4,243.1,13.3,243.1
	c-11.5,6-21.8,12.8-23.4,16.7c3.9,1.7,15.9,0.5,28.4-2.2c10.1,20,32.9,50.7,43.5,53.4c4.7,0.9,9.3,1.9,13.8,3.7l0.3,0.1l0.2,0
	c0.8-1.7-1.6-13.5-0.8-16.1C73.2,285.9,25.1,243.1,13.3,243.1L13.3,243.1L13.3,243.1z"/>
<path style="fill:none;stroke:#000000;stroke-miterlimit:10;" d="M66,297.3c-1.8,0.4-3.6,1.1-5.2,1.8c8.4,9.6,16.3,19.8,22.7,30.8
	c2.3-0.9,4.3-2.1,6-3.5C82.9,316,74.8,306.3,66,297.3L66,297.3z"/>
<path style="fill:none;stroke:#000000;stroke-miterlimit:10;" d="M108.1,255.3c1.5,0.4,2.9,0.9,4.2,1.5C105.5,264.7,99,273,93.8,282
	c-1.8-0.7-3.5-1.7-4.9-2.8C94.3,270.6,100.9,262.6,108.1,255.3L108.1,255.3z"/>
<path style="fill:none;stroke:#000000;stroke-miterlimit:10;" d="M102.7,269.7c2.7-1.7,5.7-2.9,8.6-4c8.8-3.9,25.9-42.1,24.2-50.1
	c-7.7,1.4-34.5,34.9-34.4,43.6c0.8,1.6,0.5,9.7,1.3,10.7l0.2-0.1L102.7,269.7L102.7,269.7z"/>
<g>
	<path style="fill:none;stroke:#000000;stroke-miterlimit:10;" d="M68.6,428.1c-0.6,1.8-1.2-1.8-1.8,0c-0.1,0.4-0.3-0.4-0.4,0
		c0,8.6-6.8,0.8-11,0c0.7-1.7,1.3,1.7,1.9,0c0.3-0.8,0.6,0.8,0.8,0H68.6z"/>
	<path style="fill:none;stroke:#000000;stroke-miterlimit:10;" d="M126.7,59.1c-24.8,35.4-34,78.6-34.2,121.3
		c0,5.5,0.1,11.1,0.4,16.6c0.1,2.7,0.3,5.5,0.5,8.2c5.3,47.9,3,96.3-5.6,143.6c-0.7-9.6-1.7-19.2-3-28.7c3.8-25.3,5.8-50.9,5.6-76.5
		c-1.2-25.4-2.9-51.1-1.3-76.5c0-0.1,0-0.1,0-0.2c0.8-13.1,2.5-26.2,5.6-39C104.1,81.9,133.5,43.5,166,11
		C152,26.2,138.2,41.8,126.7,59.1z"/>
	<path style="fill:none;stroke:#000000;stroke-miterlimit:10;" d="M88.6,397.8c-0.5,1.3-0.9,2.7-1.4,4.1c-2.4,6.9-4.9,18.6-7.4,26.2
		h-2c0.5-5.8,0.7-16,0.8-21.6c0.6-7,1-13.9,1.2-20.9c0.4-12.2,0.4-24.4-0.2-36.5c-1.6-33.1-7-65.9-16.5-97.4c0-0.1,0-0.1-0.1-0.2
		c0.3,0.3,0.6,0.7,1,1c0.8-0.8,1.5-1.7,2-2.7c-1.6-1.6-3.2-3.1-4.8-4.6c-0.1-2.7-1-7-2.5-7.8c-0.6-1-1.1-2-1.7-3.1
		c-6-17-11.7-34.1-15.3-51.7c0.3,0.1,0.5,0.1,0.8,0.2c0.1,0.1,0.2,0.2,0.3,0.3c1.4,2,2.9,4,4.5,5.9c2.5,9.6,5.5,19.1,9.1,28.4
		c6.5,15,12,30.5,16.6,46.2c-0.7,1.9-1.3,3.7-1.9,5.6c0.8,0.7,1.7,1.3,2.7,1.7c0.2-0.7,0.4-1.5,0.6-2.2c4.6,16.9,8.1,34,10.5,51.4
		c1.3,9.5,2.3,19.1,3,28.7C89,365,89.2,381.4,88.6,397.8z"/>
	<path style="fill:none;stroke:#000000;stroke-miterlimit:10;" d="M40.6,135.6c0,1.4,0,2.8,0,4.3c0,10.7,1.1,21.4,2.9,32
		c0.5,2.8,1,5.6,1.6,8.3c0.2,1.2,0.5,2.3,0.8,3.5c0.4,1.8,0.8,3.5,1.3,5.3c-1.6-1.9-3.1-3.9-4.5-5.9c-0.1-0.1-0.2-0.1-0.3-0.3
		c-0.3,0-0.6-0.1-0.8-0.2c-1.2-5.7-2.1-11.4-2.8-17.2c-0.6-5.2-1-10.5-1.1-15.8c-0.5-8.9,0-17.8,1.4-26.5c0.2-1.1,0.3-2.2,0.5-3.3
		c2.2-12.5,6-24.8,10.7-37c0.4,0.2,0.1-0.1,0.5,0.1c-1.6,4.2-3,8.5-4.2,12.7c-0.1,0.3-0.2,0.6-0.3,0.9
		C42.7,109.4,40.9,122.5,40.6,135.6z"/>
	<path style="fill:none;stroke:#000000;stroke-miterlimit:10;" d="M61.1,245.2c1.6,1.5,3.3,3,4.8,4.6c-0.5,1-1.2,1.9-2,2.7
		c-0.3-0.4-0.6-0.7-1-1c-2-5.7-4.1-11.5-6.1-17.2c0.6,1,1.1,2.1,1.7,3.1C60.1,238.2,61,242.5,61.1,245.2z"/>
	<path style="fill:none;stroke:#000000;stroke-miterlimit:10;" d="M72.8,263.5c0.5,1.7,1,3.4,1.4,5.1c-0.2,0.7-0.4,1.5-0.6,2.2
		c-1-0.4-1.9-1-2.7-1.7C71.5,267.2,72.1,265.4,72.8,263.5z"/>
	<path style="fill:none;stroke:#000000;stroke-miterlimit:10;" d="M87.2,428.1c0.3,1,0.4-0.6,0.3,0c-0.4,3.1-4.6,0.4-8.3,0
		c-0.6-0.1-1.1,0-1.6,0c-0.4,0-0.7,0-1,0c0.1-0.5,0.1,0.5,0.2,0c0.7-5.7,1.3-15.9,1.7-21.6c0,5.6-0.3,15.8-0.8,21.6h2
		c2.5-7.6,5.1-19.3,7.4-26.2c0.5-1.4,0.9-2.7,1.4-4.1C88.3,405.6,87.9,420.3,87.2,428.1z"/>
</g>
<path style="fill:none;stroke:#000000;stroke-miterlimit:10;" d="M86.3,203.5c0.1-0.1,0.1-0.2,0.2-0.4c-0.1,0.1-0.2,0.2-0.2,0.2
	c-0.1-0.2-0.1-0.4-0.2-0.6c0,0.3,0,0.5,0.1,0.7c-10.7,10.5-13,31.7-14,50.2c-0.9,1.5,0,6,1,8.7c-0.1,0.4-0.3,0.7-0.4,1.1
	c-0.7,1.9-1.3,3.7-1.9,5.6c0.8,0.7,1.7,1.3,2.7,1.7c0.2-0.7,0.4-1.5,0.6-2.2c0.5-1.8,1.1-3.6,1.7-5.4c1.5-0.6,2.2-2.4,4.2-5.3
	C86.2,240.3,92.4,218.7,86.3,203.5z M86.2,203.8c0.8,8.4-0.4,13-5.3,28C81.8,215.8,82.4,211.2,86.2,203.8z"/>
<path style="fill:none;stroke:#000000;stroke-miterlimit:10;" d="M62,104.1c-0.6,2.8-1.9,5.7-4.7,10c-6.4,5.1-17.2,10.4-15.1,18.9
	c-0.1,0.1-0.1,0.2-0.1,0.3c-1.2,1.9-2.3,3.8-3.4,5.8c0.5,0.5,1.1,0.9,1.7,1.2c0.9-1.9,1.9-3.7,3-5.5c10.3-1.7,12-12.3,15.4-19.5
	c3.4-4,5.8-6,8.4-7.4c-2,0.8-4.6,2.3-7.2,4.2C61,109.1,61.8,106.2,62,104.1L62,104.1z"/>
<path style="fill:none;stroke:#000000;stroke-miterlimit:10;" d="M23.7,83.9c2,2.1,3.6,4.8,5.5,9.6c0.5,8.2-1.3,20,6.8,23.2
	c0.1,0.1,0.1,0.2,0.2,0.3c0.9,2.1,1.8,4.1,2.8,6.1c0.7-0.1,1.4-0.4,2-0.7c-1-1.8-1.9-3.7-2.8-5.6c4.5-9.4-3.2-16.8-7.1-23.7
	c-1.3-5.1-1.6-8.3-1.2-11.1c-0.5,2.1-0.7,5.1-0.7,8.3C27.2,87.6,25.3,85.4,23.7,83.9L23.7,83.9z"/>
<path style="fill:none;stroke:#000000;stroke-miterlimit:10;" d="M49.3,187.8c-0.6,0.6-1.3,1-2,1.3l-0.1-0.2
	c-1.6-1.9-3.1-3.9-4.5-5.9c-0.1-0.1-0.2-0.1-0.3-0.3c-0.3,0-0.6-0.1-0.8-0.2c-9.1-2.1-10.1-15.3-12.7-24.1c-3.3-4.9-5.9-7.5-8.6-9.4
	c2.2,1.2,4.9,3.2,7.6,5.7c-0.8-3.6-1.3-6.9-1.3-9.5c0.3,3.3,1.4,6.8,4.2,12.1c2.4,2.6,5.3,5.1,8,7.9c1.9,2,3.6,4.1,4.7,6.4
	c1.2,2.5,1.9,5.2,1.6,8.3c-0.1,0.7-0.2,1.4-0.3,2.1c0.4,0.5,0.7,0.9,1.1,1.4C47,185.1,48.2,186.5,49.3,187.8z"/>
<path style="fill:none;stroke:#000000;stroke-miterlimit:10;" d="M57.1,86.1c-3.9,3.4-7.8,6.8-11.6,10.4c0.1,0.1,0.3,0.2,0.5,0.2
	C49.6,93.1,53.4,89.6,57.1,86.1L57.1,86.1z"/>
<path style="fill:none;stroke:#000000;stroke-miterlimit:10;" d="M61.1,245.2c-0.1-2.7-1-7-2.5-7.8c-0.6-1-1.1-2-1.7-3.1
	c-8-14.3-18.2-29.2-31.7-32.9c-0.1-0.2-0.2-0.4-0.2-0.6c0,0.2,0,0.4,0,0.6c-0.1,0-0.2-0.1-0.3-0.1c0.1,0.1,0.2,0.1,0.3,0.2
	c0.1,15.7,14.7,31,27.6,43.1c3.1,1.5,4.5,2.7,6.2,2.5c1.5,1.4,2.9,2.9,4.3,4.4c0.3,0.3,0.6,0.7,1,1c0.8-0.8,1.5-1.7,2-2.7
	C64.3,248.2,62.7,246.7,61.1,245.2z M25.3,201.7c6.6,4.5,9,8.2,16.3,21.2C30.8,212.5,27.9,209.1,25.3,201.7z"/>
<path style="fill:none;stroke:#000000;stroke-miterlimit:10;" d="M172.1,57.5c-31.5,26.6-60.9,59-73.4,100.1
	c-4.2,12.3-7,25-8.9,37.8c1.1,0.6,2.2,1.2,3.3,1.7c4.9-36.2,16.9-71.5,40.2-99.4C145,83,158.4,70,172.1,57.5L172.1,57.5z"/>
<g>
	<path style="fill:none;stroke:#000000;stroke-miterlimit:10;" d="M155.4,22.1L155.4,22.1c3.2,2.4,3.9,6.9,1.5,10.1l-28.8,39
		c-2.4,3.2-6.9,3.9-10.1,1.5l0,0c-3.2-2.4-3.9-6.9-1.5-10.1l28.8-39C147.7,20.5,152.2,19.8,155.4,22.1z"/>
	<path style="fill:none;stroke:#000000;stroke-miterlimit:10;" d="M161,66.4L161,66.4c2.4,2.3,2.6,6.1,0.3,8.5l-27.6,29.4
		c-2.3,2.4-6.1,2.6-8.5,0.3l0,0c-2.4-2.3-2.6-6.1-0.3-8.5l27.6-29.4C154.8,64.2,158.6,64.1,161,66.4z"/>
</g>
</svg>
