<?xml version="1.0" encoding="utf-8"?>
<!-- Generator: Adobe Illustrator 22.1.0, SVG Export Plug-In . SVG Version: 6.00 Build 0)  -->
<svg version="1.1" id="Layer_1" xmlns="http://www.w3.org/2000/svg" xmlns:xlink="http://www.w3.org/1999/xlink" x="0px" y="0px"
	 viewBox="0 0 512 512" style="enable-background:new 0 0 512 512;" xml:space="preserve">
<g>
	<path d="M314.9,171.2c3.2-0.9,7.2-0.7,8.9-3.1c0-0.6-1.1-0.2-1.2-0.8c-2.2,1.2-5.3,1.4-6.9,3.1c-1.7,0-3.4-0.1-3.5,1.5
		C313.3,172.6,314,171.4,314.9,171.2z"/>
	<path d="M311.9,172.7c0.2-1.2-0.8-1.2-1.9-1.2C309.4,173.1,310.8,172.7,311.9,172.7z"/>
	<path d="M319.6,171.9c-0.2-0.9-1.9-0.2-2.7-0.4c-0.3,1.6-3.2,0.7-3.5,2.3C315,174.3,318.5,173.3,319.6,171.9z"/>
	<polygon points="313.8,176.2 313.8,176.2 313.8,176.2 	"/>
	<path d="M313.8,176.2c-5.3,0.2-8.8,2.6-13.1,3.9c-2.6,0.8-6,0.6-8.9,2.3c2.3,0.9,5.4-0.5,7.7-0.8c-1.4,1.1,1.9,1.8,1.9,0.4
		c-0.2-0.5-1.5-0.1-1.5-0.8c4-1,7.9-2.2,11.2-3.5C312.2,177.3,313.9,177.9,313.8,176.2z"/>
	<path d="M304.5,181.2c-0.3-0.7-2.8-0.2-2.7,0.8C302.7,181.7,304.8,182.7,304.5,181.2z"/>
	<path d="M372.8,184.7c1.3-0.6,3.9-0.8,3.5-2.7h0c-0.5,0-0.5-0.5-1.2-0.4c-7.5,2.9-17,6.5-25.5,8.5c-1.3,0.3-2.9,0.4-4.2,0.8
		c-1,0.3-3.3,0-3.5,1.9c7.5,0.2,13.8-3.6,20.4-5C366.9,186.8,369.7,186.1,372.8,184.7z"/>
	<path d="M286.4,183.9c1.6-0.2,2.4-1.2,4.6-0.8C290.6,181.6,285.9,182,286.4,183.9z"/>
	<path d="M298.7,184.7c2.5,0.6,2.6-1.2,5-0.8c0.3-2.2-3.6,0.2-2.7,0C300.3,184.1,298.4,183,298.7,184.7z"/>
	<path d="M293.3,188.1c3.6,0.8,7.4-1.9,12.3-1.9c-0.2-1.2,1.9-0.1,1.5-1.5c-3.1-0.2-7.9,1.1-10.8,1.9
		C295.3,186.9,293.9,187.3,293.3,188.1z"/>
	<path d="M291.4,185.4c-1.1,0.2-4.9,1.2-4.6,2.7c1.5,0.2,2.9-0.8,4.2-1.2c1.5-0.4,3.5-0.1,4.2-1.5
		C294.5,185,292.6,185.2,291.4,185.4z"/>
	<path d="M198.5,186.6c-3.2,0.3-8.4,1.9-10.8,4.2C192.4,190.5,196.2,189.3,198.5,186.6z"/>
	<path d="M289.1,189.3c1,0.7,3.2-0.2,3.9-1.2C292,187.3,289.4,188.2,289.1,189.3z"/>
	<path d="M415.2,189.3L415.2,189.3H414c0.1,1-0.6,1.2-1.2,1.5c-0.9,0.2-0.8-0.7-1.9-0.4c-3.2,2-9.1,3.8-14.3,4.6
		c-3.1,0.5-6.2,0.2-6.2,3.1c6.7-1.2,16.8-4.3,23.9-5C414.6,191.8,415.3,190.9,415.2,189.3z"/>
	<path d="M195.8,190.1c-2.5-0.2-3.1,1.5-5.8,1.2c-0.9,2.3-5.9,0.6-5.8,3.9c2.9-0.2,4.2-1.9,7.3-1.9
		C192,191.1,195.6,192.3,195.8,190.1z"/>
	<path d="M187.3,190.8h-1.9v0.8C186.1,191.4,187.7,192.1,187.3,190.8z"/>
	<path d="M185,192.4c0.4-1.5-2.3-1.5-2.3-0.4C183.1,192.4,184,192.4,185,192.4z"/>
	<path d="M368.2,194.7c1.7,1.4,5-0.5,7.7-1.2c2-0.5,5.1-0.1,5.4-2.3c-3.6,0.7-7.4,0.9-10.8,1.9C369.8,193.3,368.5,193.9,368.2,194.7
		z"/>
	<path d="M316.5,199.7c4.7-1.5,10.6-2.1,15-3.5c0.6-0.2,1-0.9,1.5-1.2c0.8-0.3,1.9,0.4,1.9-0.8c1.7,0.5,5.5-0.2,6.2-1.9
		c-0.5,0-0.5-0.5-1.2-0.4c-5.7,2.2-12.7,3.2-18.5,4.6C319.7,197.1,316.3,197.5,316.5,199.7z"/>
	<path d="M191.9,194.3c1.5-0.2,3.2-0.1,3.5-1.5c-1.2-0.6-2.1,0.5-3.1,0.8c-3.1,0.9-7.4,1.1-8.5,3.9
		C187.3,197.1,189.5,195.6,191.9,194.3z"/>
	<path d="M169.6,195.5c2.9-1.7,8.7,1.5,10-1.2c-3.1-1.2-8.3-1.3-11.6,0c-2,0.8-4.4,2.4-4.2,4.6C166.4,198.5,167.5,196.5,169.6,195.5
		z"/>
	<path d="M197.7,193.5c-1.4,0.8-3,1.6-4.6,2.3c-1.6,0.6-3.8,0.7-4.6,2.3c3.6,0.3,8.6-1.4,10.8-3.9c-0.3-0.1-0.4-0.3-0.4-0.8H197.7z"
		/>
	<path d="M203.9,196.2v-1.9c-1.9,0.8-4.3,1.1-5,3.1C201.2,197.7,201.9,196.3,203.9,196.2z"/>
	<path d="M336.5,195.9c-3.4,1.1-7.7,1.9-11.2,2.7c-1.6,0.4-3.9-0.3-4.6,1.5c5.3,0.2,11.4-1.8,15.4-3.1c2.1-0.7,4.3-0.6,5.4-2.3
		C340.1,194.1,337.8,195.4,336.5,195.9z"/>
	<path d="M362,197.4c1.1-0.5,3.1-1.2,2.7-2.7c-3.2,0.3-5.1,1.5-7.3,2.3c-1.5,0.5-3.8,0.1-4.2,1.9c1,0.6,2.7,0,4.2-0.4
		C358.8,198.2,361,197.8,362,197.4z"/>
	<path d="M183.8,198.9c-0.5-1.9-1.2-3.7-3.5-3.9C180.4,197.5,181.1,199.2,183.8,198.9z"/>
	<path d="M208.1,195.9c-1.2-0.7-3.6,0.1-3.5,1.9C206.4,197.7,208,197.5,208.1,195.9z"/>
	<path d="M340,197.4c-3.9,0.9-8.4,1-10.8,3.5c1,1,2.1-0.2,3.1-0.4c5.2-1.1,11.8-2.1,15-4.2C344.9,195.3,342.4,196.8,340,197.4z"/>
	<path d="M387.1,196.6c-1.7-0.4-6.3-0.3-6.2,2.3C383.3,198.5,386.2,198.6,387.1,196.6z"/>
	<path d="M365.1,198.9c1.5,1.5,9.6,0.1,10.4-1.9c-2.2-0.8-5,0.9-7.3,1.2c0-0.7-0.1-1.2-0.4-1.5h-1.2c-1.9,1-5.1,1.7-7.7,2.3
		c-1.3,0.3-3.7-0.3-3.9,1.5C357.5,202,361.6,198.9,365.1,198.9z"/>
	<path d="M352.3,199.3c-0.1-0.7-0.7-0.9-1.5-0.8c-2.7,1.3-7.9,0.1-8.5,3.5c2.2,0,4.4-1.1,6.6-1.5C350,200.2,351.9,201,352.3,199.3z"
		/>
	<path d="M18,216.3c0.1-0.9,2.9-1.2,3.5-0.4c-0.1,0.9-1.7,0.4-1.5,1.5c3.6,0.9,6.4-4.2,10-2.3c-0.9,1-3,0.9-3.5,2.3
		c1.6,0.8,4.9-2.1,6.9-0.8c-1.1,0.3-2.3,0.5-2.7,1.5c1.6,0.2,5.2-0.6,5.8-2.7c-7.1-2.8-13.4-1.7-20.8-1.5
		C16.4,214.8,17.1,215.6,18,216.3z"/>
	<path d="M100.5,219c-0.9,1.4,0.2,2.6,0.4,3.9c0.4,2.8-0.8,8.2,2.3,7.7c-1.1-2.6-1.5-7.2-1.2-10c2.2-1.4,8-1.3,10.4-1.2
		c-1.3,0-1.7,0.9-2.3,1.5c-0.2-0.9-1.5-0.9-2.3-1.2c0,2.5,0.3,4.8,1.2,6.6c0.7-0.6,0.5-2.1,1.2-2.7c0.3,2.3,1.9,1.8,1.2,4.6
		c2.6-1.1,5.3-2.2,6.9-4.2c-2.2-0.6-2.9,2.2-4.6,0.8c3-1.4,7.5-3.3,10-3.9c-0.9,1-3.3,0.6-3.1,2.7c1.9-0.4,3-1.6,5.4-1.5
		c-0.5,2.1-3.7,1.4-4.2,3.5c1.5,1,2-1.7,4.2-1.2c0.1,1.2-2.2,0.2-1.5,1.9c1.1,1,1.9-0.4,3.1-0.4c-0.1,1.5,0.7,2.1,0.4,3.9
		c-1.9-1.8-4.4,0.8-5,2.7c1.4,1.3,0.5,0.5,0.4,2.7c1,1.8,4.4,2.6,6.9,1.5c0-3.1-2.6-3.6-5-4.2c1.2-1.8,4.2-0.3,5.4,0.4
		c1.8-0.9,3.7-0.6,6.2-0.8c1.6-0.1,3.5-0.8,5-0.8c1.7,0,3.4,0.7,5,0.8c4.5,0.3,9.5-1,13.1,1.2c-1.3,0.5-3.3,0.3-3.9,1.5
		c1.4-0.1,12.3,0.9,8.5-1.9c3.1,0.3,5.3-0.7,7.3,0.4c-0.7-0.1-0.9,0.4-0.8,1.2c0.9,0.2,1.8,0.6,3.1,0.4c-0.6-2,1.7-2.3,2.7-1.5
		c0,0.8-1.1,0.5-0.8,1.5c2.7-0.8,1.1,2.7,3.9,1.9c1.3-0.8-1-1.6,0-1.9c1.9-0.1,3.5,0.1,5,0.4c0.8-2.2-2-0.8-1.9-2.3
		c1.3,0.1,2.5-0.1,3.1-0.8c-0.6-0.3-2.4-1.1-1.5-1.5c1.4-0.6,0.8-0.7,2.7-0.8c-0.7-2.8-2.8,0.6-4.6,0.8c-1.9,0.2-3.7-1-4.6-1.2
		c-1.9,0.9-4.8,0.8-7.7,0.8c-0.1,0.6,0.1,1.4-0.4,1.5c-10,0.1-18-0.9-23.9-1.5c0.6-0.9,1.6-1.4,3.1-1.5c0-0.7-0.1-1.2-0.4-1.5
		c0.7,0.2,0.7,1.1,1.9,0.8c-0.1-1-0.1-1.9,0.8-1.9c0.9-0.2-0.2,1.8,1.2,1.2c1.7-0.4,1.1-2.4,0.8-3.9c-0.6-0.2-2,0.5-1.9-0.4
		c2.4-0.1,4.4-0.8,6.2-1.5c-1.7-3.7-5.2,1.6-8.5,1.2c-4.1,4.6-13.5-0.2-15.4,6.9c4.8-1.2,9.8-3.9,14.1-4.6c-1.1,0.3-1.1,1.8-1.8,2.6
		c-4.9,1.3-9.7,4.7-16.2,3.1v0c1.6-2.9,4.5-4.5,7.7-5.8v-1.2c-1.6-0.1-2.2,1-1.9-1.2c-2.5-0.2-2.6,2-4.6,2.3c1.4,1.6-1.6,4-2.3,2.3
		c0.3-0.9,2.2-0.1,1.9-1.5c0-1.6-2.4,0.7-2.7-1.2c0.3-2,2.4-2.2,4.6-2.3c-0.5-2-3.5-1.5-4.2-0.4c-0.6-0.9-0.9-2.2-1.2-3.5
		c-2.2-0.4-1.2,2.4-3.5,1.9c-1.1-4.8-7.5-3.1-10-2.7c-4.1,0.6-8.3,0.4-11.6,1.2c0.3-1.2-0.4-1.4-0.4-2.3c-1.6,0.7-2-0.6-3.1,0v1.9
		C99.3,218.4,100.2,218.4,100.5,219z M181.1,232.9c-0.1,0.8-1,0.8-1.9,0.8C178.8,232.3,180.4,233,181.1,232.9z M149.5,223.2
		c0.8,0.2,0.8,0.6,0.4,1.2h-0.8C149.3,224.1,149.5,223.8,149.5,223.2z M144.5,229.4c-0.3,0.4-0.7,0.6-1.2,0.8
		C142.4,230,144,229.3,144.5,229.4z M114.8,220.1c0,0.8-1.1,0.5-0.8,1.5c0.4,1,0.7-1,1.9-0.4c0-0.7-0.3-1-0.8-1.2
		c0.8-0.7,1.8-1.2,3.1-1.5c-0.3,0.3-0.4,0.9-0.4,1.5c1.3-0.1,1.7-1.1,3.5-0.8c-3.1,1.6-5.6,3.7-9.6,4.2c-0.4-1.2,0.9-0.7,1.5-0.8
		v-1.5c-0.8-0.2-1,0.3-1.5,0.4C111.3,221.2,113.7,220.3,114.8,220.1z"/>
	<path d="M15.3,220.5c-0.2-2.9-2.9,0.7-3.9-0.8c1.1-1.1,3.6-0.8,3.5-3.1c-2.8,0.7-7.6,1.4-6.6,4.6c0.5-0.4,2.1-1.8,2.7-0.8
		c-0.9,0.5-2.3,0.5-3.1,1.2C10,223.9,12.5,220.1,15.3,220.5z"/>
	<path d="M61.2,219.4c2-2,8.8,0.8,10-1.9c-3,0.4-6.3-0.4-8.9-0.4c-0.8,0-2.7-0.3-2.7,0.8C59.3,219.2,61.4,218.2,61.2,219.4z"/>
	<path d="M466.1,219.4c-0.5,0.3-1.4-0.2-1.2,0.8c2.5,0.1,3.9-0.6,6.2-1.5v-1.2C468.3,217.4,467.6,218.6,466.1,219.4z"/>
	<path d="M414.8,220.9c-1.3-1.4-4.6-0.8-6.9-1.2c-2.3-2.5-9.1-2.5-12-0.4c-5,1-10.6,2.6-16.2,3.1c-5,0.5-11,0.5-13.1,5
		c5.5-2,10-3.1,15.8-4.2c-0.4,0.6-0.4,1,0,1.5c2.1-0.3,3.5-1.3,5.8-1.5c0,0.6-1,0.3-0.8,1.2c1,0.4,2,0.8,3.5,0.8
		c0.2-0.7-0.6-1,0-1.2c1.2,1.4,5-0.4,5.4-2.3c-1.9-1.5-2.7,2.1-4.2,0h0c3.7-0.9,6-2.4,9.3-2.3c2.3,0,4.5,1.5,6.9,1.9
		C410.5,221.7,414.1,222,414.8,220.9z M389,223.2c-1-0.5,1.3-1,1.9-1.2C391.5,223.7,388.9,222.1,389,223.2z"/>
	<path d="M165.3,220.1c-0.7,1.3-2.7,1.4-3.1,3.1c2.8-0.1,3.4-2.5,5.8-3.1c2.4,0.1,5,2,6.6-0.4c-4.3-0.2-6.7-0.8-10.8-1.5
		c-0.9,1.5-2.8,2.1-3.9,3.5C162,223,162.8,219.7,165.3,220.1z"/>
	<path d="M96.3,220.5c0.1-1.1-1.4-1.4-1.9-0.8C94,221.1,95.6,220.4,96.3,220.5z"/>
	<path d="M414.8,228.2c2.1-0.3,3.4-1.5,5-2.3c0.1,0.7-0.4,0.9-0.4,1.5h0c4.3-0.1,5-3.8,9.3-3.9c0.2-3.2,5.5-1.4,6.2-4.2
		c-4.2,0.1-7.4,2.3-11.6,1.2c0,1.5,0.3,2.8,1.2,3.5c-1.3,0-2.9,1.7-3.5,1.2c0.3-1,0.5-0.8,0.8-2.3c-2.2-0.3-3.1,1.2-3.1,1.9
		c-0.8-1.1-2.7,0.1-3.5,0.4C415.8,227,414.9,226.4,414.8,228.2z"/>
	<path d="M94.4,223.6c1.5-1.4,5.1-0.8,5-3.9C97.8,221.1,95,221.3,94.4,223.6z"/>
	<path d="M489.2,221.3c0.2-1.4-1.1-1.2-2.3-1.2c0,0.4-0.1,0.6-0.4,0.8c-1.9,0.9-4.6,1.9-6.9,2.7c-2.6,0.9-5.6,1.1-6.9,2.7
		c1.5,0.8,4.4-0.2,5.8-0.8c0.6,0.3-0.1,1.9,1.2,1.5c1.2,0.5,0.3-1.2,1.5-0.8c0.4-1.2-0.6-0.9-0.8-1.5
		C483.7,223.9,485.4,221.6,489.2,221.3L489.2,221.3z"/>
	<path d="M418.7,220.9c-0.2-0.8-2.4-0.4-2.7,0C415.5,222.1,419.2,222.1,418.7,220.9z"/>
	<path d="M213.5,222.5c0.9,0.9,0.7-0.6,1.9-0.4c0-0.7-0.3-1-0.8-1.2C214.6,221.7,213.6,221.7,213.5,222.5z"/>
	<path d="M167.6,221.3c-1.4,0.5-4.1,1.4-3.1,3.1C166.2,223.9,167.5,223.2,167.6,221.3z"/>
	<path d="M485.8,224c2.3-0.1,3.8-0.8,4.6-2.3C488.2,221.8,486.3,222.2,485.8,224z"/>
	<path d="M394.8,225.2c2.6-0.5,5.2-1,6.6-2.7C399.6,222.3,395.6,223.1,394.8,225.2z"/>
	<path d="M42.7,222.5c-0.9,0.1-1.8,0.2-1.5,1.5C42.3,224.2,42.9,223.7,42.7,222.5z"/>
	<path d="M8.4,224h3.5C12.1,222.1,8.3,222.7,8.4,224z"/>
	<path d="M32.3,222.8c-1.2,0.2-2.4,0.5-2.7,1.5C30.4,225.3,32.7,224.5,32.3,222.8z"/>
	<path d="M51.6,222.8c-2.9,0.1-4.5,2.6-6.6,3.9c-1.5,0.9-3.6,1-4.6,2.7c2.3,0.7,5-1.7,7.3-2.3C48.2,224.9,51.2,225.2,51.6,222.8z"/>
	<path d="M282.5,223.2c-1.3,0-1.9,3.4,0,3.1C282.2,224.8,283.4,224.1,282.5,223.2z"/>
	<path d="M409.8,225.2c1.4-0.1,3.1,0,2.7-1.9C411.3,223.5,409.8,223.6,409.8,225.2z"/>
	<path d="M3,226.3c0.9-1.2-0.3-2.8-1.9-2.7C0.9,225.3,1.3,226.5,3,226.3z"/>
	<path d="M55,223.6c-1.6,0.3-3,0.8-3.1,2.7C53.4,225.9,54.9,225.4,55,223.6z"/>
	<path d="M169.2,224L169.2,224L169.2,224l1.2,0C170.9,222.9,168.6,222.9,169.2,224c-1.4-1.3-4.7,3.6-5.4,0.4c-1.6,0.1-1.3,2-2.7,2.3
		c-1.3,1.4-5.4,0-5,3.1c2.1-0.2,3.1-1.8,5.4-0.8c0.9-1.2,5,0.4,5.8-1.9c0.2-1.1-2.1,0.3-1.9-0.8C166.7,225.6,168.9,225.8,169.2,224z
		"/>
	<polygon points="169.2,224 169.2,224 169.2,224 	"/>
	<path d="M484.2,227.5c2.1,0,3.4-0.7,4.2-1.9c0.3-0.6,3.2,0.4,3.1-1.9c-2.5,0.1-5.5,1.7-6.9,1.5c0.2-0.6,1.2-0.3,0.8-1.5h0
		c-1.3,0.3-2.7,0.4-3.1,1.5C484.1,225.6,483.9,225.8,484.2,227.5z"/>
	<path d="M230.9,224c-1-0.1-1.9-0.1-1.9,0.8C229.5,225.4,231,225.1,230.9,224z"/>
	<path d="M287.2,224.4c-0.5-0.5-2.7-0.7-2.7,0.4C285,225.3,287.2,225.5,287.2,224.4z"/>
	<path d="M436.4,224c-1.2,1.6-4.6,1-5.4,3.1c0,0.5,0.7,0.4,0.8,0.8c2.6-0.5,3.6-2.6,6.6-2.7h0C438.5,224,437.5,223.9,436.4,224z"/>
	<path d="M169.2,226.3c1.1,0.8,2.3-0.8,3.9-0.8C172.8,223.2,169.2,224.9,169.2,226.3z"/>
	<path d="M23.8,230.2c2.4-0.6,6.8-2.4,8.9-4.6c-0.1-0.6-0.9-0.4-1.5-0.4C29.2,227.4,25.3,227.5,23.8,230.2z"/>
	<path d="M344.2,227.5c0.2-1.5-1.1-1.4-1.5-2.3c-2.7,1.2-5.9-1-7.7,1.9C337.1,226.9,341.7,227.9,344.2,227.5z"/>
	<path d="M344.6,226.7c0.5,0.3,3.3,0.5,3.5-0.8C347.1,225.4,344.4,224.4,344.6,226.7z"/>
	<path d="M68.1,230.2c3-0.5,4.7-2.3,7.3-3.1c-0.1,0.5-0.5,0.7-0.4,1.5c1.5-0.9,4.4-0.4,4.2-3.1c-1.9-0.3-2.3,1.1-3.5,1.5v-1.5
		C72.9,226.7,69.8,227.7,68.1,230.2z"/>
	<path d="M121.4,225.5c-0.9,0.4-2.4,0.1-2.3,1.5C120.5,227.3,121.1,226.6,121.4,225.5z"/>
	<path d="M414.8,225.5c-1.4-0.1-1.6,1-1.9,1.9C414.3,227.6,414.9,226.9,414.8,225.5z"/>
	<path d="M436.4,228.2c1.8-0.5,3.9-0.7,4.6-2.3C439.3,225,436.7,226.5,436.4,228.2z"/>
	<path d="M78.2,229c1.4,0.3,2.1-0.3,2.7-0.8c0.4,0.4,0.1,1.4,1.2,1.2c1-0.7,2.8-0.6,2.3-2.7C82.4,227.3,79.2,226.6,78.2,229z"/>
	<path d="M107.1,230.2c1.2,0.2,1.7,1.1,1.9,2.3c3.3,0.4,7.5,0.5,10.4,0.4c1,0,2.7,1.3,2.7-0.8c-1.2-1.2-3.5-1.5-4.2-1.2v-1.5
		c-1.4-0.3-2.6,1.7-3.9,0.4c1-1.5,4.6-0.6,4.6-3.1c-3.4,0.6-5.6,3-8.9,2.7c-0.1-1.1,0.3-2.6-0.8-2.7
		C109.9,229.4,107.8,229,107.1,230.2z"/>
	<path d="M289.9,226.7c-0.2,0.6-0.6,1-0.8,1.5c1.4,0.7,2.9,0.9,4.6,0.4C293.1,226.5,291,227.9,289.9,226.7z"/>
	<path d="M283.7,227.1c-0.1,1.7,2.3,1,3.5,1.5C286.9,227.2,285.5,226.9,283.7,227.1z"/>
	<path d="M473.4,227.5c-0.4,1.4,1.5,0.5,2.3,0.8C476.1,226.8,474,226.9,473.4,227.5z"/>
	<path d="M171.1,227.9c-0.9-1-3.4-0.3-3.1,1.2C169.4,228.9,171,229.2,171.1,227.9z"/>
	<path d="M212.7,229.4c0.8,0.6,3.5,0.4,3.5-1.2C214.8,227.8,213.2,227.6,212.7,229.4z"/>
	<path d="M87.4,228.2c-1.5,0.3-3.4,0.2-3.5,1.9C85.3,229.7,86.9,229.5,87.4,228.2z"/>
	<path d="M149.1,229.4c0.6,0.9,2.5-0.3,2.7-1.2C150.6,228.3,148.9,227.9,149.1,229.4z"/>
	<path d="M37.7,230.9c0.8-0.3,2.3,0,1.9-1.5h-1.2C38.9,230.6,37.2,229.7,37.7,230.9z"/>
	<path d="M104.8,230.6c0.7-0.1,1.9,0.4,1.5-0.8h-1.5V230.6z"/>
	<path d="M456.9,231.3c-0.2,0.7-1.1,0.7-0.8,1.9h1.9C458.1,232.2,458.1,231.2,456.9,231.3z"/>
	<path d="M299.1,234c-0.1-0.7,0.4-0.9,0.4-1.5c-2-0.4-2.8,0.5-2.7,1.2c-1.7-1.6-3.8-0.6-6.6-0.8c-1.1,0.6,0.7,1.6-0.4,1.9
		c-2,0.4-4-0.1-6.2,0.8c1.6,3,6.5-0.4,8.9,0.8c-0.1,0.9,0.1,1.5,0.8,1.5c3.6-1.3,8.4,0.6,11.2-1.2c-1.4-1-3.6-0.3-5.4-1.5
		c3.5-0.9,6.4,0.9,8.9-0.8C305.6,233.7,301.1,234,299.1,234z"/>
	<path d="M95.1,236c-0.4,2.7,3.5,1.2,3.1,3.9c2.6-0.2,6.1,0.5,8.1-0.4C106.7,234.4,98.7,235.8,95.1,236z"/>
	<path d="M150.7,236.7c-3.1-0.1-6.8-0.1-9.6,0c-3.6,0.1-8.4-1.1-9.6,1.5c2.7-0.1,8.2-0.4,13.1-0.4
		C146.7,237.9,149.9,238.8,150.7,236.7z"/>
	<path d="M67,237.1v1.5c3,0,8.5,0.6,10-1.2C74.1,236.9,70.4,237.2,67,237.1z"/>
	<path d="M79.7,241.4c1.1-0.1,3,0.7,3.5-0.8c-0.9-1.7-3.6-0.6-5.4-0.4c-1.9,0.2-5.1-0.2-5.4,1.5C74.8,242,77.4,241.6,79.7,241.4z"/>
	<path d="M60.8,241c-0.1-0.4-0.4-0.6-0.8-0.8c-3.6,0.8-9.9,0.3-13.9,0.4c-1.3,0-3.4-0.7-3.9,0.8c0,1.8,2.4,1.1,3.5,1.2
		c3.4,0.2,6-0.6,8.1-0.8C56.4,241.5,59.3,242.7,60.8,241z"/>
	<path d="M421,254.1v1.9c1-0.2,6.1,1.2,5.4-1.9H421z"/>
	<path d="M460.3,255.2c1,0.7,4.5,0.7,4.6-0.8C464,253.8,460.2,253.6,460.3,255.2z"/>
	<path d="M478.8,257.9v1.5c3.8-0.8,9.6,2.4,10.8-0.8C487.2,257.5,481.5,257.6,478.8,257.9z"/>
	<path d="M377.8,263.3c-0.8,0.9-0.3,2.5,0.8,2.7C378.9,265.1,379.3,263.4,377.8,263.3z"/>
	<path d="M434.1,266.8c1-0.1,1.8-0.5,2.3-1.2c-0.1-1.6-1.9-1.4-3.1-1.9C432.3,264.9,433.5,266.1,434.1,266.8z"/>
	<polygon points="433.3,263.7 433.3,263.7 433.3,263.7 	"/>
	<path d="M448.4,265.3c1.3,1.1,2.3,0.3,4.2,0.4C453.1,264,448.4,264,448.4,265.3z"/>
	<path d="M458.8,264.9c-0.1,0.9,0.1,1.5,0.4,1.9c1-0.4,3,0.2,2.7-1.5C461.6,264.4,459.7,265.1,458.8,264.9z"/>
	<path d="M481.1,267.2c0.9,2.1,4.1,1.9,6.6,2.3C487.2,267.1,484,267.3,481.1,267.2z"/>
	<path d="M379.7,270.7c0-1.4,0.3-3.1-1.5-2.7C378,269.6,378.2,270.8,379.7,270.7z"/>
	<path d="M373.9,269.5v1.5c1.5-0.1,1.8-1.3,3.5-1.2v-1.5C375.3,267.8,376.1,270.1,373.9,269.5z"/>
	<path d="M429.9,272.2c1.4-0.4,4.5,0.9,4.6-0.8c-1.6-1.1-2.9-0.9-4.6-1.2V272.2z"/>
	<path d="M124.8,272.6v1.5c1.7,0.4,7.8,1.9,8.9-0.4C132.4,271.7,127.9,272.9,124.8,272.6z"/>
	<path d="M178,274.5c-4.5-1.2-11.9,0.1-18.1-0.4c-2.3-0.2-4.5-1.3-6.6-0.8c-0.1-0.5-0.4-0.2-0.8,0v1.2c4.7,0.7,10.2,0.8,16.6,0.8
		C172.8,275.3,176.8,276.3,178,274.5z"/>
	<path d="M228.2,275.3c0.7-0.1,1.2-0.7,1.9-0.8c2.4-0.3,5.7,1.4,7.3-0.8h0c-1.4-1.7-3.7-0.2-5.4,0c-3.3,0.3-6.5,0.5-8.9,0.8
		c-4.7,0.5-11-0.7-15.4,0c-0.7,0.1-2.5,0.1-2.7,1.2c1.4,2.7,4.3,0.6,6.2,0.4C216.1,275.6,222.3,275.7,228.2,275.3z"/>
	<path d="M448.8,275.3c3.1-0.2,6.1,2.9,8.1,0.4C455.9,273.9,449.3,273.8,448.8,275.3z"/>
	<path d="M406.3,277.2c-0.5-0.8-3.3-0.5-3.9,0v1.2C403.9,278.1,406.5,279.1,406.3,277.2z"/>
	<path d="M51.9,278.8c-1.9-1.3-6-0.4-8.5-1.2c-0.1,1-0.1,1.9,0.4,2.3C45.6,280.1,51.9,281.6,51.9,278.8z"/>
	<path d="M363.5,289.2c0.2-3.6,0.1-6.6,0.8-10.4c-0.1-0.3-0.3-0.4-0.8-0.4c-1.9,7.4-3.7,14.8-5,22.8c2.9-2.2,2.2-8.1,3.5-12H363.5z"
		/>
	<path d="M461.1,279.9c2.2,0,4.4,1.8,5.4,0C465,279.2,462.2,278,461.1,279.9z"/>
	<path d="M382,282.2c0-1.1,0-2.3-1.2-2.3C380.9,281.1,380.7,282.5,382,282.2z"/>
	<path d="M83.6,280.7c-4.3-0.7-9,0.9-13.1,0.8c-2-0.1-4.7-1.8-5.8,0.4c0.9,2.1,4.1,0.9,5.8,0.8c3.2-0.3,7.7,0.4,10,0
		C81.6,282.4,83.5,282.4,83.6,280.7z"/>
	<path d="M382.4,288.4c1.3-1.6,0.4-5.2-1.5-5.8C380.9,285,380.4,288,382.4,288.4z"/>
	<path d="M456.9,288.4c1.9-0.6,4.1,1.5,4.2-0.8C460.1,286.8,456.3,285.4,456.9,288.4z"/>
	<path d="M200.8,292.3c3.2,0.4,8.6,2.5,9.6-0.4C207.8,291.8,202.3,289.8,200.8,292.3z"/>
	<path d="M413.7,323.1c-0.7-1.5-4.6-0.8-4.2,1.2C410.9,324,413.8,325.1,413.7,323.1z"/>
	<path d="M400.5,323.5c-1.5-0.1-2.4,0.4-2.7,1.5c1.3,0,3.2,3,4.2,0.8C401,325.6,400.9,324.4,400.5,323.5z"/>
	<path d="M254.8,328.5c2.4-0.2,5.4,0.8,6.6-0.8h0c0-2-2.4-0.8-3.1-0.8c-5.6,0.2-10.3,1-15.4,1.2c-3.9,0.1-7.8-1.1-11.6-0.8
		c-1.5,0.1-3.1,1.2-4.6,1.2c-1.3,0-2.5-0.9-3.9-1.2c-5.8-0.9-12.5-1.7-18.5-1.5c-3.4,0.1-6.5,1.3-10,1.5c-2.9,0.2-5.9-0.7-8.9-0.4
		c-1.6,0.2-3.1,1-4.6,1.2c-3.8,0.4-7.7-0.4-11.6,0c-2.6,0.3-6.2,1-10,0.8c-2.2-0.1-4.5-1.1-6.6-0.8c-1.2,0.2-2.2,1.3-3.5,1.5
		c-3.5,0.8-7.1-0.4-10.4,0c-0.4,1.4,1.5,0.5,2.3,0.8c0.4,1-1.3,2,0.4,1.9c5.2,0.8,10.4,0,15-0.4c1.6-0.1,3.8,0.8,5-0.8
		c-1.9-0.8-5.3-0.1-6.6-1.5c13.3,0.2,26.8-0.9,38.9-0.8c3.8,0,7.4-1.4,11.2-1.5c6.3-0.3,12.8,1.4,19.3,1.9
		C234.7,330.1,246.7,329.2,254.8,328.5z M145.3,331.6c0.8-2.3,5.6-0.8,7.7-0.8C151.7,332.3,147.8,331.3,145.3,331.6z"/>
	<path d="M137.9,330.4c-0.1-2.4-3.6-1.4-5.8-1.2c-2.2,0.3-4.8,0.6-5.8,1.5C129.7,331.9,133.1,329.9,137.9,330.4z"/>
	<path d="M123.7,330.8c0.5,0.5,2.3,0.7,2.3-0.4C125.5,329.9,123.7,329.8,123.7,330.8z"/>
	<path d="M138.7,331.6c-1.1,0.3-3.6-0.8-3.5,0.8C136.3,332,138.9,333.2,138.7,331.6z"/>
	<path d="M350.4,332.4c-1.5,0.2-3.7-0.8-3.9,1.2c1.1,1.7,3.4,0.5,5,0.4c3.5-0.2,7.5-0.4,11.2-0.4h0c0-0.5-0.2-0.8-0.4-1.2
		C358.1,331.6,354.6,331.9,350.4,332.4z"/>
	<path d="M78.5,333.1c-5.2-0.6-14.5-0.4-19.7-1.2c0,0.8,0,1.5,0,2.3c4.4-0.4,8.4-0.2,12.3-0.4C73.6,333.8,76.6,334.6,78.5,333.1z"/>
	<path d="M92.8,333.9c0.2-1.5-1.2-1.4-2.7-1.5c-2.3-0.2-9,0.3-9.6,1.5C82.8,334.7,88.4,333.5,92.8,333.9z"/>
	<path d="M94,333.9c2.4-0.6,8.2,1.3,8.5-1.2C99.8,332.8,95.6,331.9,94,333.9z"/>
	<path d="M104.4,332.4c-0.2,1,2.8,1.9,2.7,0.4C106.9,331.9,105.2,332.6,104.4,332.4z"/>
	<path d="M416,340.8c2.3-0.4,6.1,1.2,6.9-1.2c-4.3-2.1-9.1,1.6-14.3,1.2C410.5,343.7,414.2,341.1,416,340.8z"/>
	<path d="M375.9,342.8c-0.1,0.5-0.5,0.7-0.4,1.5h1.5C377.1,343.3,376.9,342.7,375.9,342.8z"/>
	<path d="M398.2,343.2v1.2c4.8,0,12,0.1,15.4,0.4c-2.2-2.7-7-1.6-9.3-1.5C402,343.2,399.6,342.8,398.2,343.2z"/>
	<path d="M380.1,345.5c-3.1-0.4-6,0.8-8.9,0.8h0c0.9,2.1,4,2.2,4.6,4.6c1.7,0,2.3,1.1,4.2,0.8c0,0.5-0.5,0.5-0.4,1.2
		c1.3-0.4,4.2,0.9,4.2-0.8c-0.7-1.6-2.8-1.9-4.2-2.7h5.4c0.2-0.7-0.6-1,0-1.2c0.7,1.1,3.8,1.4,3.1-1.2
		C385.1,347.9,382.5,345.8,380.1,345.5z"/>
	<path d="M215.4,348.2c-5.1,0.5-11.7,2.1-17.4,1.2c-3.4-0.5-11.4-2.1-12.3,1.5c7.4-0.2,15.9-0.7,24.3-1.2c3.9-0.2,7.9,0.5,11.6,0
		c0.3,0,2.1-0.1,2.3-1.2h0C221.7,347.3,218.5,347.9,215.4,348.2z"/>
	<path d="M427.5,348.2c-0.2,1.6,0.1,2.7,1.5,2.7c1-0.3,1.3-1.2,1.2-2.7C429.7,347.6,428.1,347.6,427.5,348.2z"/>
	<path d="M156.8,350.1c0,2.2,2.5,0.8,3.9,0.8h6.9c0.6,0,0.3-1,1.2-0.8c1.7,0.1,4.5,1.2,5-0.8C167.6,349.6,163.7,350.3,156.8,350.1z"
		/>
	<path d="M185.4,350.9c-2.3-3.8-8.2,0.3-12,0C175.7,353.4,181.2,350.2,185.4,350.9z"/>
	<path d="M156.4,350.1c-2.3-0.2-6.7-0.1-8.9,0C148.8,351.7,155.4,352,156.4,350.1z"/>
	<path d="M372,353.2c0.7,1.2,3.3,0.5,4.2,1.5h-2.3c-0.3,1.1,0.5,1,0.4,1.9c2.4,0.3,5.3,0.1,7.3,0.8c-0.9,1.2-3.7,0.5-5,1.2
		c0.4,2.1-0.4,3-1.2,3.9c-0.3,2,1,2.4,1.5,3.5c-0.2,0.7-1.1,0.7-0.8,1.9c0.5,1,1.2,1.8,3.1,1.5c-0.1-2.3,2.6-1.8,4.2-2.3
		c0.3-2.4-2.4-1.7-2.7-3.5c2.2-0.7,4.1,0.3,6.9,0c-0.5-3.3-7.2-1.7-9.6-1.9c0-3.3,4.9-1.8,6.2-3.9c-0.4-2-2.6-1.2-1.5-3.9
		c-1.1-0.5-2.3-1-4.2-0.8c0-0.5,0.5-0.5,0.4-1.2h0C376.3,351.6,372.8,349.5,372,353.2z"/>
	<path d="M390.9,372.1v-0.8c-6.7-1.4-10.7-0.6-16.6-1.2c0.1,0.7-0.4,0.9-0.4,1.5c2.7,2,5.8-0.4,8.9,0
		C385.4,372.1,388.9,374.9,390.9,372.1z"/>
	<path d="M379.3,375.9c0.1-1.1,0-2.1-1.2-1.9c-0.5,0.7-1,1.6-1.2,2.7c2.3,1.1,0.4,4.1,1.9,5.8c2.6,0.2,2.5-2.2,4.6-2.3
		c-0.2-1.9-0.2-2,0-3.9C381.9,376.5,380.7,376.1,379.3,375.9z"/>
	<path d="M426.4,395.6c2.4,0.7,4.7,1.2,6.2-0.4c1.2,0.7,3,1.3,3.1-0.8c-2.4-0.9-6.3-0.2-9.3-0.4V395.6z"/>
	<path d="M444.9,396c0,0.5,0.2,0.8,0.4,1.2c1.3,0.3,6.1,1.3,6.2-0.8h0C449.1,395.8,446.7,395.5,444.9,396z"/>
	<path d="M462.3,396.8c-1.1,0.1-3.2-0.7-3.9,0.8c1,1.5,4.6,0.6,6.9,0.8c1.6,0.1,4.3,0.6,4.6-0.8
		C467.7,395.9,464.5,396.6,462.3,396.8z"/>
	<path d="M245.1,401.8c-1.7-1.4-7.4-0.6-7.7,1.9C239.6,404.1,244.5,404.1,245.1,401.8z"/>
	<path d="M219.3,403.3c-1.6,0.1-4.3-0.4-6.2-0.4c-1.2,0-3.5-1.5-3.9,0.8c3.6,2.6,11.4,0.4,14.7,0.8c-0.2-0.9,0.7-0.8,0.4-1.9v0
		C222.5,401.7,221.3,403.2,219.3,403.3z"/>
	<path d="M292.2,403.7c-6.1-0.4-13.8-1.1-19.3-1.2c-1.7,0-3.6,0.8-5.4,0.8c-2.3,0-4.7-1-6.9-1.2c-2.6-0.2-5.1,0.2-6.9,0
		c-1.1-0.1-2.5,0.5-2.7,1.9c5.1-0.4,10.4,0.1,15,0.4c7.7,0.5,15.8,0.2,23.1,0.8c2.9,0.2,6,0.5,8.5-0.4v0
		C296.7,402.9,293.9,403.8,292.2,403.7z"/>
	<path d="M36.5,426.5c2.6,0.7,3.5,3.2,6.6,3.5C46.3,426.4,36.5,419.9,36.5,426.5z"/>
	<path d="M378.6,436.5L378.6,436.5c-4.9-0.9-10.2-1.1-15-1.9c-0.6,0.1-0.4,0.9-0.4,1.5c2.6,0.9,6.4,0.5,9.6,0.8
		C374.9,437,377.6,438.4,378.6,436.5z"/>
	<path d="M431,437.6c-1.2,0.2-3.5-0.8-3.9,0.8c2.2,1.4,5.7-0.4,9.3-0.4c0.9,0,1.6,0.3,2.7,0.4c2.5,0.2,7.7,0.6,7.7-1.5h0
		C442.3,436.2,434.5,437.1,431,437.6z"/>
	<path d="M296,439.6c-0.5,0.1-0.4,0.6-0.8,0.8c-0.6,0.2-2.7-0.6-2.3,0.8c4.1-0.6,9.6,0.1,12-2.3C302.6,439.3,299,439,296,439.6z"/>
	<path d="M24.9,440.7c-3.7-1.8-8.5-1-13.1-0.8c-2.6,0.1-6.1-1-7.3,1.2c0.3,2.7,3.2,1,5,0.8c3.2-0.3,7-0.3,10.4-0.4
		C21.6,441.5,24.1,442.2,24.9,440.7z"/>
	<path d="M287.6,441.9c2.8,0.4,5.4,3.2,7.3,1.2c-1-1-2.4-1.4-3.5-2.3c-5.9-0.1-13.2-0.9-18.5-0.4v1.2
		C277.3,442.7,282.9,441.2,287.6,441.9z"/>
	<path d="M310.7,443v1.2c5.2,0.2,10.4,0.5,15.4,1.2c2.2,0.3,5.6,2.4,6.9,0c-2.7-1.9-7-0.7-10.8-1.5c-3.1-0.7-7.8-0.9-10.8-1.2
		C311.1,442.7,311,443,310.7,443z"/>
	<polygon points="333.1,445.4 333.1,445.4 333.1,445.4 	"/>
	<path d="M12.2,445c2.6-0.4,6.6,0,7.3-1.5c-4.8-1-9.8,0.5-13.5,0v1.9C7.9,446.4,10.1,445.3,12.2,445z"/>
	<path d="M333.5,447.3c0.3,0.8,1.8,1.1,2.7,1.2c1.7,0.1,5.4-0.7,5.8-1.5C340.3,445.8,334.5,445.5,333.5,447.3z"/>
	<path d="M122.1,446.9v1.5h1.5C123.8,447.2,123.3,446.7,122.1,446.9z"/>
	<path d="M461.1,449.6c-4.1,0.3-9-0.5-13.1-0.4c-1.1,0-3.1-0.4-3.9,0.8c7.1,0.8,18.1,1.9,26.2,0.4c1.8,1,6.4,1.6,5.8-1.9
		C471.5,446.1,466,449.2,461.1,449.6z"/>
	<path d="M377,449.6c-0.8-0.1-2-2-2.7,0c0.1,0.3,0.3,0.4,0.8,0.4c7.1,1,19.7,1.5,28.9,1.2c1.1,0,4.1,0.9,4.2-1.2h0
		C399.9,450,387.2,450.6,377,449.6z"/>
	<path d="M443.7,449.6c-1.1-1.1-3.1-0.1-5,0c-2.1,0.1-5.8-1-6.2,1.2c1.6,0.4,3.8-0.2,6.2-0.4C440.3,450.3,442.7,451.1,443.7,449.6z"
		/>
	<path d="M19.9,451.9c-2.1-3.5-9.5-0.7-12.7-2.3c-0.1,0.5-0.8,0.4-1.2,0.8c-0.3,1.1,0.5,1,0.4,1.9C11.2,453,15.8,451.7,19.9,451.9z"
		/>
	<path d="M428.3,450.4c-2-0.1-4-0.6-5.4,0c1.5,1.7,6.1,0.3,8.9,0.8C431.8,449,429.4,450.4,428.3,450.4z"/>
	<path d="M244.4,455c1.4,0,2.7,0.5,4.2,0.4c1.4-0.1,2.7-0.7,4.2-0.8c4.8-0.1,10.9,0.3,15.4,0.8c1.8,0.2,3.7-0.6,4.6,1.2
		c-2.1,0.1-3.7-1.3-4.6,0.8c1,0,5.8,0.7,6.2-1.2c5,0.6,7.8-0.9,11.6-1.5c0.9,0.2-0.2,2.3,1.5,1.5c1.2,0,1.1-1.2,1.2-2.3l0,0
		c-2-0.3-4.8-0.7-7.3,0c-0.6,0.2-1.3,1.1-1.9,1.2c0,0-0.6-0.8-1.2-0.8c-0.5,0-1.2,0.8-1.5,0.8c-1.1,0-2.3-0.7-3.5-0.8
		c-11.5-1-22.4-0.6-33.5,0C240.3,456.6,242.9,455,244.4,455z"/>
	<path d="M301.4,457.7c-2.5-2.2-9.7-0.6-12.7-1.2c-0.5,0.9,1,1.4,0,1.5c-1.3,0.1-0.7-1.6-1.9-1.5l0,0c-1.6,0.8-2.8,2.1-5.8,1.5
		c0.1,1.4,1.9,0.7,2.7,0.8c1.3,0.1,2.7,0.1,3.9,0c3.2-0.3,7.9,0.3,11.6,0C299.9,458.8,301.1,458.8,301.4,457.7z"/>
	<path d="M132.5,457.7c-0.3,1.5,2.5,0.8,1.9-0.4C133.6,457.2,133,457.4,132.5,457.7z"/>
	<path d="M419.8,458.1c0,0.5,0.2,0.8,0.4,1.2c1.2-0.2,3.3,0.5,3.5-0.8h0C422.6,458.1,420.6,457.5,419.8,458.1z"/>
	<path d="M280.6,458.9c-1.1-0.9-2.3-0.1-3.5,0c-1.7,0.1-4.4-0.2-5.4,1.2c1.5,0.4,4.1,0.6,5.4-0.8
		C277.9,459.9,280.3,459.8,280.6,458.9z"/>
	<path d="M427.9,458.9c-0.2,1.8,2.2,0.6,2.3,1.2c0.1,1.4-2.6,0-1.9,1.9c2.4,0.1,6.7-0.1,9.6-0.8c1.3-0.3,3.3-0.7,3.5-1.9
		C437.2,458.7,430.9,458.4,427.9,458.9z"/>
	<path d="M267.1,462.3c2.3,0.1,6.5,0.8,7.7-1.2h0c-4.2-0.4-12.7-0.5-17-0.8v1.2C261,461.3,264.2,462.2,267.1,462.3z"/>
	<path d="M289.1,461.9c0.8,0,1.7,0.7,2.7,0.8c0.9,0.1,2.1-0.1,3.1,0c2.1,0.2,4.6,1.2,5.8-0.8c-3.8,1-7.9-1-12-1.2
		c-0.6,0-1.3,0.7-1.9,0.8c-1.4,0.1-3.4-0.3-5-0.4c-2.3-0.1-4.9-0.6-5.4,0.4C280,463.5,284.8,461.7,289.1,461.9z"/>
	<path d="M309.2,464.3c9.4-0.4,16.4-0.6,27-1.2c1.2,1.5,6.4,2,6.2-1.2l0,0c-10-0.7-22.2,1.2-31.6,0
		C311.3,463.8,308.7,462.5,309.2,464.3z"/>
	<path d="M400.9,467.3c-0.5-1-1.2-1.9-2.3-2.3c-7.1-0.2-16.4-0.9-24.3,0c-0.5,0.1-0.4,0.6-0.4,1.2c1.4,1.7,3.6,0.5,5.4,0.4
		c4.1-0.2,8.8-0.6,12.7,0c-1.7,0.2-4.5-0.7-4.2,1.5c3.3,1.2,6.8-0.1,10,0c2.1,0.1,4.3,1,6.2,1.2c1.1,0.1,3-0.9,3.5,0.8h-9.6
		c-3.2,0-6.7-0.6-8.9,0.8c0.5,2.4,2.7,0.7,4.2,0.8c4.4,0.2,10.6,1.3,15.8,0.8c0.3-1.8-3.2,0.1-3.5-1.2c2.7,0.3,4.4-0.5,6.9-0.4
		c0.9-0.2-0.1-2.1,1.2-1.9c1.2,0.2,3.3-0.5,3.9,0.4c0,0.6-1,0.3-0.8,1.2c2.5-0.1,5.9,0.7,5.4-2.3v0
		C415.7,466.2,408.3,469.4,400.9,467.3z"/>
	<path d="M75.1,473.5c-0.3-0.8-2.2-0.1-2.3-1.2c2.7-1.3,9,1,9.6-2.3c-0.7-1-1.8-1.6-3.5-1.5c0.1,0.5-0.1,1.1,0.4,1.2
		c-1.8,0.8-4.8,1-7.7,1.2c-4,0.3-8.3-0.3-11.6,0.8c-0.7,2.7,1.9,2.2,1.9,4.2c2.6-0.3,4.5,0.2,5.8,1.2
		C69.9,475.5,74.1,476.1,75.1,473.5z"/>
	<path d="M195.4,471.6c1.6,0.1,3.3,1,5,1.2c2.7,0.2,5.3-0.4,7.7,0c1.1,0.2,1.7,0.8,2.7,0.8c1.4,0,3.1-1.1,4.6-1.2
		c1.7-0.1,4.7,2.5,4.6-0.8c-3.8-1.8-7.5-0.1-11.2,0c-6.8,0.2-13.7-1.6-21.6-1.2C189.2,472.8,192.7,471.4,195.4,471.6z"/>
	<path d="M409.8,474.3c0.5,0.4,1.2,0.6,1.5,1.2c3.5-1.3,8.8-0.1,12.3-0.4c0.8-0.1,2.2-0.1,2.3-1.2c-2.1-1.9-8.3,1-10.8-1.2
		c0.8-0.2,2.7,0.6,2.3-0.8c-1.7-0.9-5-0.1-7.3-0.4l0,0C410.4,472.8,409.5,472.9,409.8,474.3z"/>
	<path d="M233.6,472.7L233.6,472.7c-0.6,0.2-1,0.6-1.5,0.8c0.8,2.8,5.3,1.2,7.3,1.2c16.5-0.5,30.9,1.4,44.7,1.2
		c6.5-0.1,13.1,0.4,19.3,0c5-0.3,9.8-1.2,14.7-0.8c3.5,0.3,7.8,2.5,9.3,0c-3.4-1.9-7.6-1.5-11.6-1.5c-4.5,0-9.2,0.2-13.9,0.4
		C276.9,474.9,257.4,472.2,233.6,472.7z"/>
	<path d="M174.6,477c-0.3-1.5-2.2-0.7-3.1-0.8c-3.5-0.5-8.2-1.4-11.6-1.9c0,0.5,0,1,0,1.5C163.8,477.7,169.3,477.4,174.6,477z"/>
	<path d="M215.1,477.7c0.4,0.5,0.4,1.4,0.8,1.9c3.4-0.4,9.6,2.2,10-1.9c-5.2,0.5-12.5-2.2-20.1-1.5c-1.9,0.2-5,0.4-5.8,2.3
		C204.2,477.5,210.3,477,215.1,477.7z"/>
	<path d="M85.1,477c-4,0-10.6-1.4-13.9,0.4c1.8,0.3,4.3,0.7,6.6,0.8C80.6,478.2,84.2,478.6,85.1,477z"/>
	<path d="M98.6,478.9c0-2.1-2.8-1.3-4.6-1.5c-2.5-0.3-6.4-1.2-7.7,0.4c1.3,0.9,4.4-0.1,5.4,1.2c-1.5,0.4-3.4,0.4-3.9,1.9
		C90.9,481.2,97.1,481.4,98.6,478.9z"/>
	<polygon points="98.6,478.9 98.6,478.9 98.6,478.9 	"/>
	<path d="M349.6,477.4h-1.9C347.4,479,349.8,478.7,349.6,477.4z"/>
	<polygon points="351.6,477.4 351.6,477.4 351.6,477.4 	"/>
	<path d="M370.5,478.5c2.5,0.1,7.5,1.3,8.9-0.4c-8.2-1.7-19.3-0.3-27.8-0.8c0.8,1.3,2.3,1.4,3.5,1.5
		C359.6,479.4,365,478.2,370.5,478.5z"/>
	<path d="M432.6,477.7c-0.6-0.4-4.2-1.1-4.2,0.4C430.3,477.7,431.7,479.2,432.6,477.7z"/>
	<path d="M438,478.1c-0.9,0-3-1.4-3.1,0.4c1.5,0.9,4.8,0.1,6.9,0.4C441.7,477.1,439.4,478.2,438,478.1z"/>
	<polygon points="441.8,478.9 441.8,478.9 441.8,478.9 	"/>
	<path d="M483.1,479.7c-4-1.8-9.4-1.8-13.9-1.9c-9.6-0.2-19.4,0.4-27,0.4c0.2,1.5,2.2,0.7,3.1,0.8c5.9,0.5,11.4-0.4,15.8,0.8
		c-0.2,1.2-3.5-0.6-3.1,1.2h4.6c0.2-0.7-0.6-1,0-1.2c0.7,0.2,0.3,1.5,1.5,1.2c4.3-0.2,8.4-0.6,13.1-0.4
		C478.7,481.2,483.1,482.8,483.1,479.7z"/>
	<path d="M315.7,480.4c0.1,3.9-7,0.5-7.7,3.5c3.4,0.3,7.2,0.2,11.6,0.4c0.6-1.7-2.5,0.2-1.9-1.5c6-0.8,11.1-1.2,16.2,0
		c-0.7,0.1-1.9-0.4-1.5,0.8c2.9,0.5,4.1-0.8,5.4-1.9c1.4,1.5,3.4,0,5.8,0.4c-0.1-1.5-0.5-1.5,0.8-1.9c1.6-0.1,0.9,2.2,3.1,1.5
		c0.2-0.7,1.1-0.7,0.8-1.9h0C338.2,477.6,328.1,481.6,315.7,480.4z"/>
	<path d="M457.6,480.1h-3.9C453.4,481.8,458,481.8,457.6,480.1z"/>
	<path d="M441,481.6c1.5-0.4,4.7,0.9,5-0.8C445.7,480.8,441.3,480.2,441,481.6z"/>
	<path d="M361.2,481.6c-0.4,1.3,1.2,0.6,1.9,0.8C363.4,481,361.8,481,361.2,481.6z"/>
	<path d="M364.3,481.6c-0.1,1.6,2.4,0.4,3.5,0.8C367.7,481,365.1,480.9,364.3,481.6z"/>
	<path d="M424.1,484.3c2.8,0.7,5.9-0.5,9.3,0.4v-1.5c-2-0.6-6-1.5-7.7,0c0.6-1.4-1.3-0.2-1.2-1.2c-3.1-0.5-6.4,0.4-9.3,0.8
		c-1.6,0.2-4.5-1.1-5,1.2c3.6,1.2,10-1.5,14.7-0.4C424.4,483.6,423.9,483.6,424.1,484.3z"/>
	<path d="M67.4,482.4H60C60.6,484.2,67,484.9,67.4,482.4z"/>
	<path d="M82,483.1c0.8-0.2,2.7,0.6,2.3-0.8H82V483.1z"/>
	<path d="M323.4,483.5c1.9-0.4,4.2,1.4,4.6-0.8C326.6,482.5,323.8,481.8,323.4,483.5z"/>
	<path d="M323,482.8c-1.5,0-2.8,0.3-3.1,1.5C321.7,484.5,322.8,484.1,323,482.8z"/>
	<path d="M96.7,483.9h-1.5C94.5,485.7,97.1,485.3,96.7,483.9z"/>
	<path d="M331.1,488.5c-1.6-1-4-1-5.8-1.2c-4.6-0.3-8.6-0.5-11.2-0.4c-11.5,0.7-23.9,0.2-35.5-0.8c-2.6-0.2-5.7,0.8-6.9-0.8
		c3.8-1.6,8.4,1.1,11.2-0.4h0c-0.8-1.8-3.2-1.1-5-1.2c-1.9-0.1-4.7-0.3-6.6,0c-0.9,0.2-1.7,0.8-2.7,0.8c-1.2,0-4.3-1.2-4.6-0.8
		c-0.9,1.2-0.9,0.1-1.5,0.4c-0.9,0.3-1.2,1.3-2.3,1.5c-1.4-0.6-1.8,0.1-3.1-0.8c-4.3,1.3-10.3-0.2-15.4,0c-1.1,0-2.4,0.4-3.5,0.4
		c-3.3,0.1-7.2-1.2-10.4,0.4c1.7,2.8,5.8,1.5,8.1,1.5c2.9,0,6-0.1,8.9,0c5.6,0.2,11.4-0.3,17,0c1.2,0.1,2,0.7,3.1,0.8
		c0.8,0,1.9-0.4,2.7-0.4c9.6,0.1,19.5,1.8,28.9,1.5c7.4-0.2,15.6-0.8,23.5-0.8C324.1,488.6,327.9,490.1,331.1,488.5z"/>
	<path d="M286.8,484.3c-0.9,0-1.1-0.7-2.3-0.4C283.9,485.1,286.8,484.9,286.8,484.3z"/>
	<path d="M89.3,487.8c5.4-0.4,11.5,0.9,16.6,0.4c1.5-0.2,3.7-0.4,4.2-2.3c0.3-1.5-1.5-1.1-2.7-1.2v0c0,0.5,0.2,0.8,0.4,1.2
		c-2.1,2-4.7,0.1-7.3,0c-5.1-0.2-10.5,1.1-15,1.5c-1.7,0.1-4.4-1.5-5,1.2C83.4,489.5,86,488,89.3,487.8z"/>
	<path d="M419.1,485.1c-0.2,2.3,3.4,2.4,3.9,1.2C421.4,486.1,420.7,483.8,419.1,485.1z"/>
	<path d="M124.4,486.6c0.5,1,5,1.5,5.4,0C128.6,486.5,125,484.9,124.4,486.6z"/>
	<path d="M453.8,491.6c1.6,0,3.6,1.3,5-0.4c-0.7-2.1-3.4-1.1-5-1.2c-2.2,0-4.7,0.1-6.9,0c-5.3-0.2-14.5-0.6-18.5-2.7
		c4.1,0.4,5.6,0.5,9.3,0c-1.7-2.4-5.7-0.7-8.9-0.8c-1.8,0-3.3-0.4-4.6-0.8c-1,3-2.8,1.2-6.6,1.9c-1.3,0.2-2.2,1.1-3.1,1.2
		c-6.4,0.6-14.5-1.5-22.8-1.9c-2.5-0.1-5.1,0.1-7.7,0c-8.2-0.4-17-1.1-23.9,0c-1,0.2-2.2,0.7-3.1,0.8c-2.2,0.2-5.2-0.8-6.2,0.8
		c4,2.4,8.7,0.7,13.1,0.4c11.4-0.8,24-0.1,32,0.8c4.9,0.5,10.9,0.4,15.8,0.8c3.6,2.9,7.5,0.8,12,0.4c2.5-0.2,5.4-0.2,8.1,0
		C438.9,491.4,446.8,491.4,453.8,491.6z"/>
	<polygon points="437.6,487.4 437.6,487.4 437.6,487.4 	"/>
	<path d="M131.8,487c0.3,1.4,2.7,0.6,3.5,1.5c-0.1-1,2.2,0.4,1.5-1.2C135.3,486.4,133.1,486.8,131.8,487z"/>
	<path d="M331.9,488.9c2.4,0.6,5.3,0.6,7.7,1.2C340.2,486.8,332.2,487.8,331.9,488.9z"/>
	<path d="M296.4,493.9c4.6,0,9.7-1.2,13.5-0.8c1,0.1,2.1,0.8,3.1,0.8c2.4,0,5.4-1.3,8.1-1.2l0,0c-0.9-2.4-3.9-1.1-5.8-1.2
		c-7.4-0.1-13.7,0.9-21.2,0.8c-6.1-0.1-12.6-0.6-18.9-0.4c-4.9,0.2-9.8,0.4-14.7,1.5c-1.8-0.1-5.9-1.6-6.9,0
		c0.5,1.4,2.5,0.8,3.5,0.8c5.5,0.1,12.5,0.2,17-0.8c3.1,2.2,6.3,0.3,10,0C287.6,493.3,292,493.9,296.4,493.9z"/>
	<path d="M33.4,496.3c-5.9-0.4-10.9-1.5-17-1.5c3-1.8,12.2,0.8,15-2.3c-7.8,0.1-19.1,1-25.8,0.8c-1.4,0-4.2-0.9-4.6,1.2
		c0.8,1.3,2.5,0.9,3.9,1.2c11.9,2,25.3,2.1,36.6,1.9C39.8,495.4,36.3,496.4,33.4,496.3z"/>
	<path d="M42.3,492c-1.7,0.1-4.8-0.1-5.4,1.5c3.2,0.9,8.7,0.4,10-1.2C45.8,491.9,43.9,491.9,42.3,492z"/>
	<path d="M360.1,495.9c1.1,1.3,5-0.1,6.6-0.8c2.4,0.8,6.2-0.2,9.6-0.4c1.8-0.1,4.5,1.4,5-1.2c-7.1-0.5-13.8-0.1-20.4-0.4
		c-3.2-0.1-6.1,0.1-8.9,0c-2.4-0.1-6-2.6-7.7,0.8c1.7,0.1,3.8,0.3,5.4,0.4c4.6,0.4,10.6-0.8,14.1,0.6
		C362.5,494.5,360,494.4,360.1,495.9z"/>
	<path d="M357.4,496.6c0.8-0.2,2.7,0.6,2.3-0.8h-2.3V496.6z"/>
	<path d="M353.5,498.2c1.5-0.6,3.8,1.2,3.9-0.4c-0.2-1.3-2.4-1.5-3.9-1.5c-1.2,0-3.9,0.2-4.2,1.2
		C349.8,498.6,351.9,498.1,353.5,498.2z"/>
	<path d="M267.9,498.2c2,0,4.8-0.3,7.3-0.4c1.6,0,4,0.7,4.6-0.8c-5.6-0.3-10-0.5-16.2,0C264,498.4,266.3,498.2,267.9,498.2z"/>
	<path d="M468.4,502.4c2.7,0,6.6,1.1,7.7-1.5c-5.7-2.6-11.6-1.9-18.9-2.3c-0.8-0.1-0.1-1.7-0.8-1.9h0c-5.1,0.1-10.2,0.3-15.8,0.4
		c-3.7,0.1-8-0.9-9.6,1.2c2.2-0.5,4.3,0.5,6.6,0.8c6.1,0.7,14-0.2,20.1,0.4c1.3,0.1,3.6,0,4.2,1.5c-4.9,0.7-11.5-0.1-15.8,1.2
		C452.2,503.4,461.6,502.4,468.4,502.4z"/>
	<path d="M311.9,499.3c2.8-0.3,6.6-0.1,9.6,0c2,0.1,5.5,1.8,6.2-1.2c-2-1.5-4.4,0-6.9,0c-12.1,0.2-28.6,0.3-40.1-1.2
		c-1.3,0.2,1,1.5-0.8,1.2c-2.6-0.3-5,0.6-7.7,0.8c-2,0.1-4.5-0.7-6.2,0.8c0.6,1,3.3-0.2,3.9,0.8c-13,0-25,1.7-35.9,0
		c10-0.5,16.4-1.5,24.7-0.8c1.3,0.1,0.6-1.7,2.3-1.2c1.1,0,2.3,0,2.3-1.2v0c-3.3-0.6-6.4,0.5-9.6,0.8c-6.2,0.5-12.7-0.5-18.9,0
		c-1.7,0.1-3.3,0.7-5,0.8c-6.2,0.1-12.2-0.8-18.1-0.4c-4.5,0.3-8.6,0.5-13.1,0.4c-5.5-0.1-11.3-0.1-16.2,0.4
		c-1.2,0.1-2.7,0.8-3.9,0.8c-1.4,0-3-1.2-4.6-1.2c-1.5,0-4.7-0.1-5,2.7c15.5-1.1,35.7-1.3,50.5-1.5c0.2,0.7-0.5,2.3,0.8,1.9
		c18.5-0.8,34.4,2.7,53.2-0.8c0.5-1.7-2.3,0-2.3-1.2C282,498.1,301.8,500.5,311.9,499.3z"/>
	<path d="M425.2,497.8c0.4,1.8,4.5,1.4,5.4,0C428.8,497,427.5,498.5,425.2,497.8z"/>
	<path d="M261.3,499.7c1.2-0.4,3.2,1.5,3.5-0.4C264.2,498.5,261.6,498.9,261.3,499.7z"/>
	<path d="M313,502.8c9.8-0.5,24.4,0.4,33.5-0.4c1.2-0.1,3.7,0.5,4.2-0.8c0.4-2.2-3.2-0.4-3.9-1.5c1.2-0.7,2.4,0.8,2.7-0.8
		c-6.4,0-13-0.1-17,2.3c-1.6-0.9-4.2,0-5.8,0.4c-0.3-0.1-0.4-0.3-0.4-0.8C324,502.6,316.2,500.2,313,502.8z"/>
	<path d="M407.9,503.6c1.9,0.5,3.5-0.6,5.4-0.8c2.6-0.2,7.9,0.8,8.9-1.2c-3.1-0.1-8.9-0.4-12.3,0.4
		C409,502.2,407.8,502.4,407.9,503.6z"/>
	<path d="M307.6,503.2c1.7-0.3,2.2,0.7,3.9,0.4c-0.1-0.7,0.4-0.9,0.4-1.5C310.3,502.3,308.7,502.5,307.6,503.2z"/>
	<path d="M403.6,503.2c0.7,0.7,2.5,0.3,3.9,0.4C407.3,502.5,403.9,501.9,403.6,503.2z"/>
	<path d="M271.7,504.7c-0.7,0.4-0.9,1.2-0.8,2.3c2.2,0.7,4.9,0.2,7.3,0c1.5-0.1,4.3,1.1,4.6-1.2
		C280.9,503.2,275.8,504.8,271.7,504.7z"/>
	<polygon points="259,507.1 259,507.1 259,507.1 	"/>
	<path d="M233.6,508.2c2.3,0.3,5.1,0.2,7.3,0.6c-0.9,0-1.7,0.9-2.7,0.9c-3.2,0.2-8-1.9-9.6,0.8c4-0.4,9.6,0.8,12.3-0.8
		c2.2,0.3,5.5-0.1,9.3-0.4c3.4-0.2,8-0.3,8.9-2.3c-7.2,0.4-15.1,0.1-21.6,0.4C236,507.5,234.7,507.3,233.6,508.2z"/>
	<path d="M214.3,193.5c-0.1-2.4,1.4-3.2,2.3-4.6c3.1-1.6,6.4-3.1,11.6-2.7c1.4,0.2,1.4,1.9,3.5,1.5c0.2-1.2-0.8-1.5,0-2.3
		c8.6-1.6,14.6-5.7,22-8.5c-0.3-1.2,1-0.8,1.2-1.5c-8.9,2.8-16.5,6.9-25.8,9.3c2.9-2.3,7.5-2.8,11.2-4.2c0.9-1.3,2.6-1.7,3.9-2.7
		c-2.8-1-5.4,2.5-8.1,1.5c1.8-0.6,3.4-1.2,4.6-2.3c0.7,1.2,1.8-0.4,3.1,0c2.7-1.8,6.7-3,10.4-4.2c1.8-0.6,5.2-0.4,5.4-3.1
		c-6.6,1.1-11,4.4-17.7,5.4c-0.2,1-1.7,0.6-1.9,1.5h-2.3c-0.6,0.8-1.4,1.5-2.3,1.9c-5.1,1-10.5,3.6-14.7,5c-1,0.3-3.3-0.3-3.5,1.5
		c3.1,0.6,5.9-1.9,9.3-2.3c0.1-0.5-0.1-1.1,0.4-1.2c2.2,1.4,4.9-2,6.9-0.8c-3.4,1.2-7,2.3-9.6,4.2c-1.4,0.4-3.9,0.1-4.6,0.4
		c-0.3,0.1-0.9,1.2-1.9,1.5c-1.1,0.4-3.2,1.6-3.5,1.9C213.5,189.6,212,192.8,214.3,193.5z"/>
	<path d="M260.9,174.6c-5.5,2.5-11.9,4-16.2,7.7c-1.1-0.6-3.6,0.1-3.9,1.5c5.2-1.2,12.9-1.8,13.5,3.9c-0.5,0.3-1.7,3.1,0,3.1
		c4.1-3.5-0.8-7.1-2.3-8.9c2.4-0.7,3.1,0.5,4.6,1.5c0.1-0.3,0.3-0.4,0.8-0.4c0.1-0.8-0.5-0.8-0.8-1.2c2.7,1.7,6.6-2.1,9.3-1.5
		c-1,2.6-5.8,1.4-6.2,4.6c4.1-1.9,11.9-4.6,18.1-3.1c3.6,0.9,5.2,3.8,3.5,8.5c2.3,0.2,2.5-1.9,2.7-3.9c2.5-1.1,5.2-2,8.9-1.9
		c0-2.2-3.3-0.4-4.2,0c-1.6-0.9-2.2,0.4-3.9,0.4c-2-1.1-3-3.5-5.8-4.2c-2.2-0.5-4.5,0.4-6.6-0.4c1.3-1.1,3.9-1,4.6-2.7
		c-1.7-1.4-3.9,2-5.4,0.8c1-0.9,2-3.9,3.9-2.7h0c-1.2,0.3-2,1.1-2.7,1.9c2.9,0,3.3-2.3,6.2-2.3c-0.1-1-0.1-1.9,0.8-1.9
		c0.9,0,1.1-0.7,2.3-0.4c1-1.1,2.1-1.9,3.5-2.7c2.9-1.7,7.6-2.3,8.9-5.4c-5.4,0.5-9.9,5.3-15.8,6.6c-0.6,0.5-1.1,1-1.5,1.5
		c-2.4,0.4-3.4,2.2-6.2,2.3c-0.8,0.5-1,1.6-1.9,1.9c-4.2,0-6.6,3.9-10,3.5c1.2-0.6,2.9-0.7,2.3-3.1c-3.1-0.1-6.4,2.5-10,3.1
		c-0.9,0.5,0.4,1.4-0.4,1.5c-1.5,0.2-2-0.6-2.7-1.2c2.9-0.1,5.4-2.7,8.1-3.5C258.5,177.1,260.6,176.8,260.9,174.6z M269.8,179.3
		c1.2,0.7-0.4,1.8-1.5,1.5C267.9,179.4,270,180.5,269.8,179.3z"/>
	<path d="M190.8,222.8c-0.6,1.7-2.7,0.6-3.5,2.7c1.6,0.5,1.7-0.6,2.7-0.8c0.1,0.7-0.4,1.9,0.8,1.5c1-0.5-0.4-1.9,0.4-1.9
		c0.9-0.2,0.8,0.7,1.9,0.4c0.2-0.7-0.6-1,0-1.2c0.1,0.5,0.8,0.4,1.2,0.8c2.3-1.3,4.9-3.5,8.1-4.2c1.7-0.4,4,0.3,5.8,0
		c0.3-0.1,0.4-0.7,1.2-0.8c2.1-0.2,3.1-0.9,4.6-0.8c1.1-0.8,0.8-2.3,1.2-3.1c0.7,0.8,0.9,2.1,1.5,3.1c2.2,0.5,5.8,1.3,7.7,0.8
		c-0.1-2.8-4.5-1.2-6.6-1.9c-0.3-2.2-1.5-3.4-1.9-5.4c-1,0-2.2-0.1-2.7,0.4c-0.3,1.9,0.4,3,0.4,4.6c-4.2,2.1-11.7-0.7-14.3,3.5
		c-6.9,0.2-14.3,2.3-21.6-0.4c-0.7,0.7,0,1,0,1.9c-1.3,0.8-3.1,1.1-3.9,2.3c2.8,1,5.6-3.3,8.9-1.9c-4.3,1-7.1,3.4-11.2,4.6
		c-0.1,0.7,0.4,0.9,0.4,1.5c3.8-0.7,6.3-2.5,8.9-2.7c-0.1,1.1-1.8,0.5-1.5,1.9c2.2,0,0.1,0.3,0,1.2c1.7,0.6,4.2-0.2,4.2-2.3
		c-1.2-0.5-0.3,1.2-1.5,0.8C184,225.1,187.4,224,190.8,222.8z M185.4,223.6c-0.2,0.3-0.4,0.6-0.4,1.2c-0.8,0.2-0.7-0.6-0.8-1.2
		H185.4z"/>
	<path d="M23.8,236c0.1-0.6-0.1-1.4,0.4-1.5c2.6,0.3,4-0.6,6.6-0.4c0-0.7-0.3-1.2-0.7-1.5c1.3,0.2,3.2,0.7,3.8-0.8
		c-1.7,0.3-3.5-1.2-3.8,0.7c-0.6-0.5-1.3-0.7-1.9-1.1c1.7-0.4,2.5-1.7,4.6-1.5c0.4-0.7,0.3-2,1.9-1.5c-0.6,0.8-1.9,0.9-1.9,2.3
		c0.1,0.3,0.3,0.4,0.8,0.4c4.8-3,10.8-4.9,15.4-8.1c0.3-1.4-1-2,0.4-2.3c0.8,1.4,3.7-0.3,5.4-0.4c1.9-0.1,3.8,0.9,5.8,1.2
		c1.2,0.2,2.5-0.2,3.9,0c1.8,0.2,3.7,1.1,5.4,1.2c5.6,0.1,10.9-3.5,16.6-2.3c-2.6,0.9-5.6,1.4-6.6,3.9c1-0.6,2.6-0.6,3.9-1.2
		c2.2-1,4.5-3.6,6.2-2.3c-0.4,0.8-1.5,0.8-1.5,1.9c1.5,0.2,1.4-1.5,2.3,0c-0.6,1.6-2,6.6,1.2,6.6c1.3-0.9-0.8-2.7,0.4-3.5
		c1,0.7,0.1,3.2,1.9,3.1c0.5-1-1.1-1.6,0-1.9c0.6,0.6,0.8,1.5,0.8,2.7c-1.3-0.4-1.3,0.5-1.2,1.5c-1.6-0.3-2,1.8-3.1,0.8
		c-0.2,1.5-0.5,1.8,0.4,2.7c2.4,0.3,2.6-1.5,4.2-1.9c0,1-0.1,2.2,0.4,2.7c5.7-0.1,7.9,0,12.3-0.4c0.3-2-2.7-0.6-2.7-2.3
		c1.2,0.6,2.8,0.5,2.3-1.5c-2.9,0-3.6,0.2-6.2,0c-1.2-0.3-1.1-2-2.3-2.3c-0.8,0.3,0.1,2.5-0.8,2.7c-0.7,0.7-2.2,0.2-2.7-0.4
		c0.2-1.9-0.5-2.7,0-3.9c1.4-0.2,3-0.3,2.7-2.3c-1.8,0-1.8,1.8-3.5,1.9c-0.6-1.5,1.1-0.7,0.8-1.9c-1-0.5-2.3,0.7-2.3,0
		c0-0.8,1.1-0.5,0.8-1.5c-1,0.1-1.7-0.1-1.5-1.2c-0.3-1.2,0.4-1.4,0.4-2.3c-2.1-1.2-0.9-5.8-2.7-7.3c-1.1,1.2,0.4,5-0.8,6.2
		c-4.7,0.3-8.4-0.3-12.7-1.2c-0.9,2.3,1.4,1.4,1.5,2.7c-7.7,1-13.7,0.1-21.2-0.8c0.3-1.2-1.1-0.7-0.8-1.9c-2.2-0.6-8-3.1-8.1,0
		c0.4-0.7,3.2-0.7,3.1,0.4c-1,0.8-2.1,1.5-3.9,1.5c-0.6,0.7-0.2,2.4-1.2,2.7c-0.8-1.4-1.2-1.4-0.8-3.5c-2,0.8-4.6,1-5.4,3.1
		c1.7,0.9,3.9-0.7,5.4,0.8c-1.3,1.3-4.5,2.7-5.8,2.7c0.2-0.7,1.8,0,1.2-1.5c-5.1,1.1-7.7,4.7-12.7,5.8c-0.6,0.7-1.1,1.5-1.5,2.3
		c-2.5,0.3-6.8,0.9-9.3,0c3-1.5,6.2-2.8,8.9-4.6c1.2-0.2,3.8-1,2.3-2.7c-3.4,2.6-7.5,4-11.2,6.6c-3.7,2.6-10.1,2.3-15.4,1.2
		c-0.3,0.9-0.9,1.7-0.8,3.1C7.7,236.1,17.1,236.4,23.8,236z M38.1,225.5h0.8v0.8h-0.8V225.5z"/>
	<path d="M304.5,230.2c-5.5-0.6-14.4,0.6-20.1-1.2c-1.4,1.4-6.1,1.6-8.5,0.8c1.6,0,2.7-0.6,4.6-0.4c-1.8-2.4-5.7,0-10-0.8
		c-0.4,1.6,2.5,0,2.3,1.5c-1.8-0.2-2.2,0.7-3.5,0c0-0.8,1.1-0.5,0.8-1.5c-2.3,0.7-4.3,1.9-6.6,1.5h0c1.3-1.3,3.8-1.3,5-2.7
		c-0.9-1.3-2-0.3-3.5,0c1.1-1.7,3.3-2.3,4.6-3.9c3.9,0.2,5.5,0.9,9.3,1.5c1.2-1.6-2.7-2.6-4.2-1.5c-0.7-1.5-3.3-1-4.6-1.9
		c-2.5,1.7-6.6,6.2-8.9,1.5c-10.6-2.2-18.6-2.5-32-2.7c-1.2,1-2.9,1.5-4.6,1.9c0-0.5,0.5-0.5,0.4-1.2c-5.3-1.8-9.4,2.1-13.5,3.9
		c0.5,1,2.3-0.3,2.3,0.4c-0.7,0.3-1.4,0.6-2.3,0.8c0.7-1.7-1.4-0.7-1.5-1.5c0.5-0.6,1.5-0.6,1.9-1.2c-0.6-1.1-2,0.6-2.3-0.4
		c1.1-0.2,1.8-0.8,1.9-1.9c-3.3-1-5.9,1.8-8.9,2.3c0.9-1.4-1.9-1.5-2.3-1.5c-3-0.1-8.7,4-10,5.8c-1-0.8-2.7,0.1-3.1,1.2
		c1,0.2,1.2,0.1,2.3,0.8c1.1-0.2,1.2-1.4,2.7-1.2c0,0.5-0.5,0.5-0.4,1.2c1.1,0.3,2.3-1.2,2.7-0.4c-1.5,1.4-3,0.4-4.6,0.4
		c1.4,2.1-1.7,1.5-2.3,2.7c1.9-0.1,3.5,0.1,3.9,1.5c5.1,0.1,8.2,0,13.5,0c0.4-1.9-1.9-0.6-1.9-1.2c1.4-1,3.3-0.6,4.2,0.8
		c1.5-0.3,4.1-2.7,5.4-0.8c-0.8-0.1-1.2,0.3-1.2,1.2c2.5-0.4,6.9-0.7,8.9-0.4c0.9-0.6-0.5-0.9,0.4-1.2c5.4-0.5,11.6,0.3,15.4,0.8
		c2.6-1.4,7.5-1.6,10.8-0.4c-9,0.4-18.2,1.5-26.2,1.9c-1.2,0.1-3.4-1.6-3.9,0.8c0.3,0.1,0.4,0.3,0.4,0.8c2.1-1.3,4.7-0.3,7.3-0.4
		c10.5-0.3,23.6-2.3,35.1-1.5c0.4-0.4,0.8-0.8,1.2-1.2c0.3,0.1,0.4,0.3,0.4,0.8c1.2,0.5,0.3-1.2,1.5-0.8c1.5,1.6,4.1,0.5,6.6,0.4
		c3.1-0.2,6.7-0.1,9.6,0c2.2,0.1,5.3,1.5,5.8-0.8c-2.3-1.2-5.7,0.9-7.3-1.2c8.2,0.4,14.9,0.2,24.3,0c-0.4,0.6-0.4,1,0,1.5
		c1.2-1.4,3.1,1.1,3.1-0.4c0.5-1.9-3.2,0.4-2.7-1.5h3.5v-3.1C304.1,227.7,305.6,230.2,304.5,230.2z M193.1,228.2
		c0.7-0.8,1.8-1.3,3.1-1.5C195.5,227.6,194.4,228.1,193.1,228.2z M197.7,225.9c0.9-0.4,1.4-1.2,2.7-1.2c0,0.8-1.1,0.5-0.8,1.5
		C198.5,226.6,198.6,225.8,197.7,225.9z M199.3,230.9c0.4-1.2,1.8-1.3,3.1-1.5C202.3,230.9,200.7,230.8,199.3,230.9z M252.9,222.8
		c-0.7,0.6-1.4,1.2-2.7,1.2C250.9,223.4,251.3,222.6,252.9,222.8z M250.2,225.2c-0.4,0.4-0.1,1.4-1.2,1.2
		C248.9,225.5,249.3,225.1,250.2,225.2z M207.7,224.4c-0.2,0.5-0.5,0.8-1.2,0.8C206.7,224.7,207.1,224.4,207.7,224.4z M205,225.5
		c1.9-1,0.3,0.6,0,0.4C204.7,225.7,204.7,225.7,205,225.5z M206.2,229c-1.1,0.1-0.8-1.3-2.3-0.8c0.5-1.3,2.9-0.7,3.5-1.9
		c0.6,0.3,1.2,0.6,1.2,1.5C207.8,228.3,206.5,228.1,206.2,229z M228.2,229.8c-1.2,0-6.6,1.2-8.9-0.4c-3.6,1-8.5,1.5-12.7,0.8
		c0.5-0.7,1.8-0.5,1.9-1.5c1.4,0.6,2.4,1.8,3.5,0c-0.1-0.5-0.7-0.3-1.2-0.4c2.9-3.4,6.2-0.2,10-1.5c1.2-0.4,2.7-1.2,4.2-1.9
		c2.4-1.1,4.2-3,8.5-2.7c0,0.7-1.3,0.3-1.2,1.2c1.6,1,2.8-1.5,5.4-0.8c0.2,1.2-1.8,0.3-1.9,1.2c1.7,2,4.5-1.4,6.9-1.2
		c-2.2,1.4-5.3,2.7-7.3,3.1c0,2,2.1,0.9,2.3,0c4.6-0.4,6.5-3.6,12-3.1c-5.9,1.6-9.5,5.5-16.6,5.8c0.4-0.9,1.9-0.7,2.3-1.5
		c-2.6-1.3-4.4,2.5-7.3,1.5C228.5,229,227,229.5,228.2,229.8z M232.4,230.9c-0.8-0.1-2.5,0-2.7-1.2h0c6.1,0,10.7,0,15.4-2.3
		c-0.8,0.8-1.8,1.6-3.1,1.9c0.2,0.5,0.5,0.8,1.2,0.8C240.6,230,235.9,231.2,232.4,230.9z M250.5,229.4c1.6-2,5.8-1.4,7.3-3.5
		c-2.9-1.6-5.8,1.8-9.3,2.7c-1.1,0.3-2.3,0.1-3.5,0.4c0.4-0.6,3.2-0.8,1.9-1.9c0.1-0.4,0.4-0.2,0.4,0c3,1,4.8-2.3,8.1-2.3
		c0.2-1.4-2.3,0-1.9-1.5c2.3,0.4,3.7,1.7,6.9,1.2c0,1,0.7,1.3,1.2,1.9C257.9,227.2,255,229.1,250.5,229.4z M259,229.4
		c0.9-0.6,4-1.1,3.1-2.3c0.7-1.2,1.2,1.1,2.7,0.4C263,228.6,261.7,230.2,259,229.4z M276,232.1C275.1,233.3,273.5,231.7,276,232.1
		L276,232.1z"/>
	<path d="M232,225.9c-3.4-0.3-5.2,2-8.9,2.7c0,1.4,2.5,0.3,3.1,1.2C227.3,227.6,230.6,227.7,232,225.9z"/>
	<path d="M223.5,227.1c-1.9,0.3-4,0.4-4.6,1.9c1.2,0.5,3.5,0.7,4.2-0.4C223.1,227.9,223.6,227.8,223.5,227.1z"/>
	<path d="M58.5,225.2c0.6-0.5,2.5,0.1,2.3-1.2c-1.1-1.2-2.3,0.7-3.1,1.2c-2.4,0.7-5.4,0.8-5.8,3.5C54.7,228.1,57,227,58.5,225.2z"/>
	<path d="M66.2,224.4c-1.8,0.1-3.4,1.9-5.4,2.3c-2.8,0.6-5.6,0.8-6.2,3.1c3.5-1.1,5.9-0.1,9.3-1.2c0.1,0.7-0.4,0.9-0.4,1.5
		c1.7-0.1,2.7-0.9,3.5-1.9c1,0.2,3.7-0.8,4.2-2.3c-2.4,0-3.3,1.6-5.4,1.9c0-1,1.2-0.8,1.2-1.9C65.8,226.3,66.3,225.1,66.2,224.4z"/>
	<polygon points="252.1,338.9 252.1,338.9 252.1,338.9 	"/>
	<path d="M269.8,340.5c-5.5,0-13-1.3-17.7-1.5c1.9,2.1,5.2,0.9,8.5,1.9c0.1,0.7-2.2,1.5-0.4,1.5c6.4,0.1,11.9-0.7,18.5-0.4
		C277.3,339,273.1,340.4,269.8,340.5z"/>
	<path d="M293.3,177.3c-4.4,1.3-9.3,1.2-11.6,3.9c-0.3,1.2,1.3,0.5,1.2,1.5c1.8-0.5,4.9-0.3,5.8-1.5c-1.2-1.5-3.8,0.8-4.2,0h0
		c1.6-1.1,4.3-1.1,6.2-1.9v1.5c5.3-2,11.9-2.5,17.4-4.2c0.6-0.2,1-0.9,1.5-1.2c1.1-0.4,3.2,0,3.5-1.5c-5.6,0.7-10.5,2.1-15,3.9
		c0.1-1.5,2.4-1,2.7-2.3l0,0c0.8-0.2,2.7,0.6,2.3-0.8c1.9,0.8,4.7-0.6,5.8-1.9c-2.3,0.3-4.7,0.5-5.8,1.9c0,0,0,0,0,0
		c-0.8,0.2-2.7-0.6-2.3,0.8C298.2,174.5,295.9,176.6,293.3,177.3z"/>
	<path d="M8.7,230.6c2.8-2.1,6.1-3.5,9.3-5.4c2.2-1.4,4.7-3.7,7.7-2.7c-1.9,2.1-5.7,2.3-6.9,5c6.5-1.1,10-8.2,17.7-4.6
		c-1,0.3-2.1,0.5-1.9,1.9c1.7-1.1,4.4-1.3,5-3.5c0-0.6-1.1-0.2-1.2-0.8c0.7-0.2,1-0.8,1.9-0.8c0.5-1.2-1.2-0.3-0.8-1.5
		c0.9-1.2,4.9,0.7,4.6-1.5c-7.6-1.8-11.8,5.4-18.1,3.9c1.3,0.2,2.2-0.1,1.9-1.5c-3.1,0.7-6.8,2.8-9.6,2.3c1.7-1.3,5.3-0.6,5.8-3.1
		c-3.4,0.2-3,2-6.6,1.9c-0.5,2.3-2.8,1.4-3.5,2.7c0,1.6,3.3-0.6,4.2,0.8c-3.2,1.5-6.2,3-8.9,5c-1.8,0.2-3.3,0.6-3.5,2.3
		C7.4,231.3,7.5,230.4,8.7,230.6z"/>
	<path d="M507,230.6L507,230.6c-5.2-1.3-12.1,1.2-17-0.8c1.4-0.4,4.5,0.9,4.6-0.8c-0.3-1.8-3.8-0.6-3.5-3.1
		c-1.8,0.1-1.7,2.2-3.5,2.3c-6.1-0.8-8.5,1-14.7,0.8v-1.2c-5.6,0.1-9-0.4-14.7,0.4c-1.6-1.8-3.8-2.1-6.2-2.3c0.6-2,5.4,0.2,5-2.7
		c-1.8,0-3.1,0.5-4.2,1.2c0.3-2,1.5-3.1,2.3-4.6c3.9-0.9,6.9-4.6,12-3.1c-2.9,0.7-5.3,2.6-7.7,3.5c-1,0.3-2.7-0.7-2.7,1.2
		c0.6,1.2,1.7-0.3,2.7,0c0,0.6-0.1,1.3,0.8,1.2c2-0.1,2.7-1.4,4.6-1.5c0.3-1.2-1-0.8-1.2-1.5c2.7-0.9,6.2-3.1,8.9-2.7
		c-0.5,0-0.9,0.1-0.8,0.8c1.4,0.8,2.5-0.4,3.1,0c-3.9,2.5-9.7,3.1-13.1,6.2c-0.7-1-2.5,0-2.3,1.2c0.8,1.9,3.4,0.8,4.2-0.4
		c1,1.5,2.7-1.4,3.5,0c-1.4,0.6-3.4,0.7-4.2,1.9c0.7,0.5,2.9,0.6,4.2,0.4c2.4-0.4,4.7-2.1,6.9-2.3c0.2-0.9,0.3-2,1.5-1.9
		c0,0.5-0.5,0.5-0.4,1.2c2.1-0.6,4.9-0.5,5.8-2.3c-1.4-1.5-3.5,1.6-4.6,0.4c1.9-1.4,5.9-2.6,7.7-2.7c-1,0.7-2.6,0.7-2.7,2.3
		c3.2-0.7,5.5-2.8,8.1-4.2c0.5-0.3,1.9,0.6,1.5-0.8c-1.8-2.5-5.5-0.8-8.1-0.8c-8.5,0-18.5-1.4-27.4-1.2c-0.7,0.5-1.6,1-2.7,1.2
		c-1.5-2.6-1.1-7-1.5-9.6c-3.9,0.3-1,7.5-1.9,10.8c-1.5,0.9-3.1-0.1-4.6,0c-0.5,0-1.2,0.8-1.9,0.8c-1.8,0-5.8,0.1-6.9,1.9
		c4.6,0.5,8.8-2.1,13.5-0.4c-0.2,2.2-0.1,4.5-1.5,5.4c-1.6-0.6,0.6-2.6,0-4.6c-1.7,1.1-2.6,5.2-0.8,6.6c-1.9,0.1-3.5-0.1-5-0.4
		c-0.8,0.3,0.1,2.5-0.8,2.7c-5.3,0.1-10.5,0.5-15.4-0.8c-0.2-1-0.5-1.3,0.4-1.9c0.7,0.7,0.7,0.3,0.4,1.5c2.9-0.4,4.5-2.2,7.3-2.7
		c-0.5-2.1-0.1-1.9,0.8-3.1c-1.2-0.3-1.1,0.7-2.3,0.4c-0.4,1.2,0.6,0.9,0.8,1.5c-2.1,0.1-2.8,1.6-4.6,1.9c-0.7-0.1-0.2-1.3-0.8-1.5
		c-1.6,1-3.4,1.7-4.2,3.5c0.9,0.5,1.4-1,1.5,0c-1.9,1.7-4.7,0.7-7.3,1.2c-0.4,0.7,1.2,1.3,0,1.5c-2-3.1-5.8,0.7-7.7,0
		c0.5-0.9,1.2-1.7,1.5-2.7c-1.6-0.2-3,1.9-4.2,0.8c1-1,3.6-0.5,3.9-2.3c-2.3-1.9-7.1-0.7-7.7,2.3c0.7-0.4,2.7-1.4,3.1-0.8
		c-0.2,2.2-5.9,1-7.3,0.8c1.3-1.1,3.7,0.1,3.9-2.7c-2.5,0-3.8,3.1-6.2,1.9c2.4-1.1,5.3-1.6,6.6-3.9c-4.1-0.1-7.4,3.9-12.3,4.2
		c0.1-1.3,2.4-0.5,1.9-2.3c-3.8,0.5-7.2,4.5-10.4,2.3c2.2-0.2,3.2-1.7,5.4-1.9c0.3-1.4-1.5-0.8-1.5-1.9c-3.7,0.6-7.6,4.9-11.2,3.1
		c2.1,0.1,3.4-0.7,4.2-1.9c-1.8-0.2-2.4,0.7-4.2,0.4c-0.7,0.8-0.6,1.8-0.8,2.3c-7.2-0.5-13.9,1-20.1,0c-1.4-0.2-2.4-1.2-3.9-1.2
		c-2.2,0.1-4.2,2.3-6.2,0.8c-1.2,0.7-2.1,1.8-4.2,1.5c0-0.5,0.5-0.5,0.4-1.2c-1.9-0.4-2.1,1-3.5,1.2c0-0.6,0.1-1.3-0.8-1.2
		c-1.1,0.9-4,1.8-5.4,1.2c0-0.6,1-0.3,0.8-1.2c-1.7-0.3-5.1,0.3-6.6,1.5c0.5-0.5,0.5-1.4,0-1.9c-1.6-0.5-0.7,1.6-1.5,1.9
		c-1.7-0.4-4.7,0.8-5.8-0.8c0.9-1.5,3.2,0.5,3.5-1.2c-2.1-1.2-6-0.6-8.1-1.9c-1.4,1.8,0.5,1.5,0.4,3.9c1.6,0.6,0.1-2,1.2-1.9
		c1.1,0.2,1.8,0.8,1.9,1.9c-1.6-0.3-2,0.6-3.5,0.4c0.1-0.9-0.1-1.5-0.4-1.9c-1.7,0.7-1.7,1.1-3.9,0.8c1,3-3.6,0.3-3.1,2.7
		c3.6,0.1,7.3-0.1,10.4,0c2.3,0.1,6.1-0.3,7.3,1.2c-1.1,1.4-3.9-1.3-3.9,1.2c2.1,0.2,5.8,0.3,7.3,0c-0.2-1.2-1.9-0.9-2.7-1.5
		c4.4-0.8,9.4-0.5,12.7,0.4c1-0.5,1.4-1.7,2.3-2.3c8.1,0.4,14.7-2.1,21.6-0.2c0.2-0.1,0.4-0.2,0.6-0.2c0.7,0,1.5,0,2.2,0.2
		c0.1-0.1,0.2-0.1,0.3-0.2c7.6-0.4,12.8-0.1,21.2,0c-0.1,0.9-0.8,1.6,0,2.3c3.9,0.8,8.3,0.3,12.3,0c4-0.3,7.4-0.3,11.6,0
		c5.6,0.4,11.4,0.5,17.4,0.4c0.8-0.6,1.1-1.8,1.5-2.7c1.2,0.2,3.3-0.5,3.9,0.4c-1.5,0.1-3.8-0.5-3.9,1.2c0.8,2,2.8,0.4,4.2,0.4
		c8.7-0.3,16,1.5,23.5,0c0.5-1-0.9-1.9,0-1.9c4.3,0.2,7.8-0.1,10.4-0.8c0.1,2,1.3,0.9,2.3,1.5c-0.4,0.9-2.4,0.1-1.9,1.9
		c12.4-1.9,26.5,0.2,39.7,0.8C507.1,232.8,507,231.6,507,230.6z M470.7,222.8c-0.9-0.1,0.5-1,0-1.9c0.4,0,0.3,0.5,0.4,0.8h1.5
		C472.4,222.5,470.9,221.9,470.7,222.8z M473.8,221.3c0.3-0.5,0.8-0.7,1.5-0.8C475.3,221.2,474.7,221.4,473.8,221.3z M483.5,216.3
		c0.9,1,2.6-0.3,3.1,0.4c-0.6,1.2-3.1,0.5-4.2,1.2C481.7,216.4,484,217.8,483.5,216.3z M476.1,217.4c1.9,0.3,3-0.4,4.6-0.4
		c-2.3,0.8-3,1.8-6.2,2.3C474.7,218.3,476.4,218.9,476.1,217.4z M390.9,230.2c-0.8,0.1-0.7,0.4-1.9,0.4
		C389.9,229,394.1,229.8,390.9,230.2z M395.5,228.6c-0.8-0.1,0.3-0.3,0.4-0.4c0.1-0.1-0.1-0.7,0-0.8
		C396.7,227.1,396.5,228.8,395.5,228.6z M408.6,226.3c-0.2,0.5-0.5,0.8-1.2,0.8C407.7,226.6,408,226.3,408.6,226.3z M449.5,225.2
		h0.8v0.8h-0.8V225.2z M448.8,229.8c1,0,2.1,0,3.1,0C449.3,230.7,443,229.9,448.8,229.8z M450.7,222.1c0.2-1.4,0.7-2.6,0-3.9
		c3.8-0.3,4.5-3.7,9.6-2.7c-1.8,1.7-3.8,3.1-6.9,3.5C452.7,220.3,452.4,221.9,450.7,222.1z"/>
	<path d="M308.4,229.8c0.7-1.1-0.6-2.8-0.8-4.2c-2.2-0.4-3.2,0.3-4.6-0.8v-1.9c-2.1-1.3-6.2-0.5-8.5-1.5c1.6-5.9-6.6-3.8-6.9-0.8
		c-1.6,0.2-4.4-0.8-3.9,1.5c2.3-0.3,3.5,0.2,5.8-0.4c0.4,1.8-0.5,2.3-1.2,3.1c0.6,0.3,1.2,0.6,1.2,1.5c1.4,0,2.2-0.6,3.5-0.8
		c-0.1,1.3,0.5,1.9,1.5,1.9c-0.1-1-0.1-1.9,0.8-1.9c-0.3,1.1,0.5,1,0.4,1.9c1.7-0.7,2.2,2,3.5,0.4c0.2,1.4,2.6,0.5,3.1,1.5
		c0.8-0.3-0.1-2.2,0.8-2.3C306.3,226.5,305.7,229.7,308.4,229.8z M290.6,220.9c-0.1,0.7-0.5-0.2-0.4-0.8
		C290.4,219.4,290.8,220.4,290.6,220.9z M292.2,222.1c-0.5,1-1-3.9,0.8-3.1C292.6,219.9,291.8,220.4,292.2,222.1z M293.7,223.6
		c0.3-0.4,1.5-0.4,2.7,0C296.2,224.4,294.1,224,293.7,223.6z M298.7,223.2c0.5,0.2,0.8,0.5,0.8,1.2
		C298.2,224.7,298.2,223.8,298.7,223.2z"/>
	<path d="M36.1,231.7c-1.4,0.2-2.1,1.5-3.5,1.2c1.1,4.7,10.2-0.7,10.8,4.6c4.1,0.5,11.8,0.5,16.6,0c1.6-0.2,4.7,1.3,3.9-1.9
		c-2-0.7-4.8,0.7-6.9-0.4c2.4-0.7,5.7-0.6,9.3,0c-0.6,0-1.3-0.1-1.2,0.8c1.1,0.5,2,0.8,3.1,0.4c0.5-0.9-1-1.4,0-1.5
		c4.4-0.2,9,0.2,12.7,0c1.8-0.1,5.9-0.1,6.6-1.5c0.3-1-1.8,0.3-1.5-0.8c1.3-0.4,4.2,0.9,4.2-0.8c-1,0.2-1.5-0.7-2.7-0.8
		c-2.3-0.1-5.8,1-6.9,1.2c-7.9,0.7-17.2-0.4-24.3-0.4c-0.5,0.5,0,2-1.5,1.5c-1.5,0.6-0.1-1.7-1.5-1.2c-2.2-0.7-6.3,0.8-8.9-0.4
		c1-1.4,3-1.9,3.9-3.5c-0.5,0-0.5-0.5-1.2-0.4c0,0.4-0.1,0.6-0.4,0.8c-1.4,0.9-3.2,2.6-5,3.1C39.9,232.1,37.9,231.4,36.1,231.7z
		 M71.6,233.3c0.1,0.8-1.4,0.2-1.9,0.4C69.6,232.8,71,233.5,71.6,233.3z M68.9,233.3c-0.7,0.9-2.9,0.1-4.2,0.4
		C65.3,232.8,67.6,233.5,68.9,233.3z M60,233.3c0.1,0.8-1.4,0.2-1.9,0.4C58,232.8,59.5,233.5,60,233.3z M55.8,235.2
		c0,0.9-1.6,0.2-2.3,0.4C53.5,234.7,55.1,235.4,55.8,235.2z M47.7,235.2c0.9,0,1.4,0,2.3,0C47.8,236.1,42.9,235.3,47.7,235.2z"/>
	<path d="M183.8,244.4c1.9,1.7,6.8,0.4,10,0.8c0.6,0,0.2-1.1,0.8-1.2c2.9,0.2,6.3,0.8,10.4,0.8c0.5-0.9-1-1.5,0-1.5
		c8.7,0.6,17.1,0.3,25.8-0.4c2.6-0.2,5.7,0.8,6.9-0.8c-0.8-1.5-4.1-0.5-5.4-1.5c1.2-0.4,3.9,0.8,3.9-0.8c-3.8-0.9-9.6-1.5-12,1.2
		c-1.8,0.3-5.5-1.8-7.3,0c1.6,0.8,4.3,0.5,5.8,1.5c-7.3-0.6-13.5-0.5-19.3-0.8c-3.3-0.2-6.3,1.1-9.6,1.2c-2.2,0-5.3-1.6-7.3,0
		c0.2,0.5,1.5,0.1,1.5,0.8C186.6,243.9,184.1,243,183.8,244.4z"/>
	<path d="M357.7,322c-1,0.1-2.9-0.5-2.3,1.2c2.7,1.6,3.6-2,5.8-2.3v2.3c2,0,2.8-1.1,4.2-1.5c1,1.9,4.2,1.5,6.9,1.5
		c1.4-3.2,6.5-6.4,4.2-10.8c-4.7,1.2-7-1.9-11.2-2.3c-1.3,2.9,0.8,6.9-0.4,9.6c-1-2.6-0.6-6.6-1.2-9.6c4-0.5,5.9-3.1,10.4-3.1
		c0.7-0.4,0.5-1.8,1.2-2.3c3.4,0,7.3-1.1,10.8-1.5c2.2-0.3,5.9,0.8,6.2-1.9c-1.5-2-3.4,0.1-5-0.4c-3.8-1.2-4.1-6-2.3-9.6
		c-0.7-0.2-1.6-0.2-1.9-0.8c-2.4,1.4-6.1,3.3-9.6,2.3v-3.9c1.5,0.3,1.8-0.5,3.1-0.4c-0.1-2.2-3.4,0.1-1.5-2.3c-1,0-2.3,0.2-2.3-0.8
		v-5.8c3.7,0.2,5.6-1.9,8.5-0.4c-0.1-1,0.6-1.2,1.2-1.5c-1.6-1.4-1.3-4.8-3.1-6.2c-0.3,1.9,0.5,2.6,0.8,3.9c-1.2,2-4.5,2-7.3,2.3
		c-0.9-7.2-1.5-13.7-1.5-22.4c0.9-0.6,1.9-1,3.5-0.8c0.9,1.8,1.5,3.9,1.9,6.2c-1.3,0.1-3.3-0.5-3.1,1.2c0.9,1.9,3.7-0.5,4.6,1.2
		c-0.7-8.8-5.4-13.7-7.3-21.2h-1.2l0,0c-1.1,9.2-2.2,21.7-3.1,30.9c-2.2-0.3-1.5,2.4-1.9,3.9c1.8,0.2,0.5-2.6,1.9-2.7
		c-0.4,7.1-1,14.3-1.9,20.1c-0.2,0.9,0.7,2.6-0.8,2.7c0.1-2.2,0.3-4.4-1.9-4.2c1,1.3,0.8,3.8,0.8,6.2c0.3,0.6,1.9-0.1,1.5,1.2
		c-0.7,2.1-1.1,4.5-1.5,6.9c-1.4-0.9-4.6,0-5.4-0.4c0.7-2-0.1-4.1-2.3-4.2c-2.3,2-0.4,8.2,1.2,10c-0.8,0.5-1.8,0.7-2.7,1.2
		C353.3,317.4,357,319.8,357.7,322z M367.4,318.9C367.5,317.1,370.2,320.3,367.4,318.9L367.4,318.9z M370.9,317.3
		C368.3,317.9,367.3,315.7,370.9,317.3L370.9,317.3z M373.2,315.4c-2,0.9-4.8-0.8-6.6-1.5C368.6,313,370.9,315.3,373.2,315.4z
		 M374.3,296.1c1.5-2.1,5.4-1.8,8.1-2.7c0.8,2.3,1,5.2,1.9,7.3c-2.8,0.8-5.5,1.7-9.3,1.5C374.8,300.6,373.7,297.5,374.3,296.1z
		 M373.2,297.7c-0.1,1.4,0.1,2.5,0.4,3.5c-1.2-0.3-3.9-0.3-5,1.5c0.9,1.9,2.5-0.4,4.2,0c0.1,0,0.1-0.1,0.1-0.1
		c-0.2,0.1-1.4,1.2-0.1,2c-0.5,0.5-2,0.7-1.5-0.8c-1.6,0.2-2.3,1.3-3.9,1.5c0.2-0.9,0.6-1.8,0.4-3.1
		C370.3,301.4,370.5,298.3,373.2,297.7z M372,291.9c1.3,0.4-0.4,0.8-0.4,1.2C370.5,292.8,372.2,292.4,372,291.9z M369.7,285.3
		c-0.8-0.2,0.3-1.7,1.5-1.2C371.4,285.2,369.8,284.5,369.7,285.3z M370.9,247.5c0.8,1.9,3,2.4,3.1,5c-0.7,0.3-1.4,0.6-2.3,0.8
		C371,251.7,370.7,249.8,370.9,247.5z M370.9,274.1c-0.2,0.5-0.5,0.8-1.2,0.8C369.9,274.4,370.2,274.1,370.9,274.1z M370.5,279.9
		c1,0.2,0,1.5-0.8,1.2C369.8,280.6,370.4,280.5,370.5,279.9z M370.1,281.8c1.3,0.2,0.6,1.5-0.8,1.2
		C369.4,282.5,370,282.4,370.1,281.8z M368.2,285.7c-0.2,0.5-0.5,0.8-1.2,0.8C366.8,285.7,367.6,285.7,368.2,285.7z M371.2,286.5
		c-0.9,1.5-2.8,2-4.6,2.7C367.8,287.9,369.3,287,371.2,286.5z M370.9,290.7c-0.1,0.7-0.7,0.9-1.5,0.8
		C369.6,291,370.1,290.8,370.9,290.7z M368.9,289.9C370.7,287.7,370.9,290.9,368.9,289.9L368.9,289.9z M369.7,293.4
		c-0.2,0.3-0.4,0.6-0.4,1.2c1.3,0.2,2.2-0.2,3.1-0.4c-0.3,1.2,0.4,1.4,0.4,2.3c-0.9,1-2.5,1.4-4.2,1.5c1-1.8,0.7-1.4,0.8-3.1l0,0
		c-0.2-0.3-0.3-0.7-0.8-0.8c-1.6-0.3-0.9,1.6-2.3,1.5C365.1,294,368,293.5,369.7,293.4z M366.6,296.1c1.2,0.1,0.8,2.1-0.4,1.9
		C365.3,297.1,366.8,297.3,366.6,296.1z M366.2,300c0.6-0.1,0.7,0.4,1.2,0.4c-1.8,1.4,0.3,6.8-2.7,6.9
		C366,305,364.2,302.5,366.2,300z M358.9,320c-0.5-0.3-0.7-0.8-0.8-1.5c1.6,0.1,1.6-1.5,3.1-1.5C360.3,317.9,359.3,318.6,358.9,320z
		 M361.2,314.2c0.9-0.8-0.3-1.7,0.4-2.3c1.3,0,1.1,1.4,1.2,2.7C362.1,314.7,361.9,314.2,361.2,314.2z M363.9,307.7
		c-0.4,1-1.2,1.6-1.9,2.3c-1.7,0.4-1.3-1.3-2.7-1.2C360.7,308.3,362.4,308.1,363.9,307.7z M359.7,312.7c0.7,0.7-3.2,2.1-3.5,1.9
		C356.5,313.1,358.6,313.5,359.7,312.7z"/>
	<path d="M370.1,335.1L370.1,335.1c-1.7,0-3.9,1.3-5.2-0.2c-0.4,0.3-0.9,0.4-1.3,0.2c0,0.1,0,0.3,0,0.4c-1.4-0.1-3.4,0.6-5.4,0.8
		c-2,0.2-4.6-0.8-5.8,0.8c1.5,2.4,8,0.8,10.8,0.8c0,0,0,0.1,0,0.1h1.9c0-0.1,0-0.1,0-0.1c2.8-1,6,0.6,9.3,0.4
		c-0.3,1.2-1.5,1.3-1.2,3.1c-1.3-1.4-4.9-0.5-7.3-0.8l-0.1-0.1h-2.3c0,0.4,0.1,0.8,0.1,1.2l0,0c0.6,0.4,1.2,0.5,1.9,0.5
		c0.1,0,0.1,0,0.2,0c0.1-0.1,0.1-0.3,0.2-0.4c2.1-0.6,1.7,1.4,3.1,1.5c3.2-1.3,6.2-0.4,9.6-1.5c-0.6,0.6-0.4,1.7,0.8,1.5
		c2.1,0.2,1.7-2.2,4.2-1.5c-0.3-1.6,0.7-1.8,0.8-3.1c-0.7-0.2-1.6-0.2-1.9-0.8c1-0.9,4.1,0.3,4.6-1.2c-1.3-0.4,1.1-0.1,0.4-1.2
		C381.8,335.5,375.6,335,370.1,335.1z M377.4,340.5c-0.1-0.8,1.4-0.2,1.9-0.4C379.4,340.9,378,340.3,377.4,340.5z"/>
	<path d="M345.4,325.4c-1.7,0.6-3.7-0.6-5.4-0.8c-4.5-0.5-10.6,0.4-13.9,0.8c-2.7,0.3-6.4-0.9-7.3,1.5c1.2,2,5.7,0.3,7.7-0.4
		c4.6,0.3,7.2-1.3,12-0.8c-0.3,1.2,0.6,1.2,0.8,1.9c7.4,0.7,15.1-1.1,24.1,0c0.4-0.4,1.2-0.4,1.7,0c0-0.1,0.1-0.2,0.1-0.3
		c1.4-0.3,2.8-0.5,4.6-0.4c-0.8,4.7,3.5,2.9,5.4,4.2c-0.7,0.1-1.9-0.4-1.5,0.8c0.4,0.9,2.8-0.2,3.1,0.8c-2.2,0.5-6.4-1-7.3,0.8
		c4.7-0.2,13.5,1.4,16.6-1.9c-0.5-0.2-0.9-0.4-1.2-0.8c1.4-0.4,3.4-0.2,3.9-1.5c-6.6-0.1-11.3,0.2-16.6-1.2c5.8,0.3,9.5,0.2,15.4,0
		c1.5-1.6,3.7-2.5,5.8-3.5c1.6-0.4,3.4,1.4,3.5-0.8c-1.8-2.6-5.2-0.6-7.3-0.4c-3.8,0.5-7.4,0.6-11.6,0.8c0.1-1.1,0-2.1-1.2-1.9
		c-1.2,1.4-2.7,1.7-4.6,1.9c-1.3,0.1-3-0.2-4.2,0c-0.8,0.1-1.3,0.7-1.9,0.8c-1.2,0.1-2.3-0.4-3.5-0.4c-4.3,0.1-8.9,1.8-13.1,0.4
		c0.6-1,2.4-0.7,2.3-2.3c-1.6-0.4-2.9-0.2-5.4-0.4C345.2,323.5,346.7,324.7,345.4,325.4z M377,326.6c-0.5-0.6-2.2-0.1-2.7-0.8
		C374.7,325,377.5,325.2,377,326.6z"/>
	<path d="M156.4,463.1c1,2.4,6.5,0.2,8.1,1.9c-0.5,3.4,3.3,4.3,5.4,3.9c0,1.7,1.8,1.5,2.3,2.7c1.3,0.3,1.5-0.6,2.7-0.4
		c0.5,0.5,0.2,1.8,0.8,2.3c2.9,0.8,4.6-0.8,7.7-0.8c-0.6-2.9,1.5-0.8,1.9-2.7c-5.2-2.5-11.8-1.9-17.4-3.5c5-1.9,9.4,0.3,15.4,0
		c-1-2.9-5.9-2.7-9.6-3.1c-2.6-0.3-5.3,0-7.3-0.8c6.1,0,12,0.9,18.5,0c-1.1-2.8-5.1-0.4-7.3-1.9c1.4-0.4,4.5,0.9,4.6-0.8
		c-1.1-1.6-4.3-1.1-6.6-1.5c-0.4,1.6,0.1,2.4,0,2.7h-2.3c1.2-1.3-0.9-1.4-1.2-2.3c2.8-0.6,5.7-1,8.5-1.5c1.3,0.5,3.4,1.4,3.5-0.8
		c-1-1.1-3.4-0.7-4.2-2.7c1.2-0.4,3.9,0.8,3.9-0.8c0-1.6-3-0.1-3.5-1.2c1.9-0.4,4.2-0.4,6.9,0c-0.5-1.9,2.2-0.6,1.5-2.7
		c-3.3-0.3-8,0.8-9.6-1.2c-1.7-0.3-6.7,0.3-8.1-1.5c1.6,0.3,3-0.4,4.6-0.4c1.3,0,3.5,1.5,4.2-0.4c-1.1-1.8-4.9-1-6.9-1.9
		c-1.1-1.1-2.6-1.8-3.9-2.7c1.3,0.2,2.2-0.1,1.9-1.5c-0.2-1.3-2.1-0.8-2.7-1.5c4.6-4.4,9.5-8.5,12.3-14.7c2.9-2.8,5-6.3,6.6-10.4
		c-3.2-1.4-6.5,0.4-7.3,2.7c-0.9,0.3-1.5,0.8-2.7,0.8c-2.3,2.5-6.1,3.9-9.6,5c-5.3,1.6-12,2.8-18.1,3.5c-5.6,0.6-8.9,1.3-13.9,1.5
		c-2.4,0.1-4.5,0.1-6.2,0.4c-2.3-5.9-4.7-11.8-9.3-15.4c-2-0.2-3.4-1-4.2-2.3c1.2-1.1,0.6-4,0.8-6.2c-3.4-1.8-7.7-0.8-10.4,1.2
		c-0.6,6.3,1.4,9.9,6.9,10c-2.2,5.5-7.1,8.3-13.1,10c-2-0.1-4-0.1-4.2,1.5v1.2c0.1,1.1,1.9,0.4,2.3,1.2c-6-1.1-11.5,0.7-16.6,0
		c-1.4-0.2-2.1-1.7-3.5-1.9c-3-0.5-4.7,1.7-7.7,1.9c-4.4-1.3-1.3-4.9-1.9-8.1c-0.3-1.7-1.7-1.1-1.9-3.1c0.1-2.2,2.7-1.9,3.1-3.9
		c-0.4-3.2-1-6.2-2.3-8.5c-4.2,0.3-8.3,0.7-11.2,2.3v2.7c1.9,0,2.1,1.8,3.5,2.3c1.9-2.2,2.2-6,6.6-5.8c-1.6,1.8-2.8,4.1-4.2,6.2
		c0,0.6,1.1,0.2,1.2,0.8c-1.3,3.8-9.1-0.7-10.4,3.5c-0.1,0.7,0.4,0.9,0.4,1.5c1.5,0.9,5.3-0.1,6.2,0.4c-0.9,3.6-1.5,7.5-2.7,10.8
		H44.2c-0.3,3.1,4,1.7,6.2,1.9c14.3,1.2,28.4-1.8,43.6-1.2c2.5,0.1,6.3-1.2,8.1,1.5c-12.4,0.1-30.5,0.8-44,0.8c-2,0-6.3-1.9-6.9,1.2
		c4.8,0.9,10.2,0.3,13.5,0c3.7-0.4,6.9,0.4,10.4,0.4c0.5,0,1-0.8,1.5-0.8c2.4,0,5,1,7.3,0.8c1-0.1,2-0.8,3.1-0.8
		c1.3,0,2.9,0.8,4.2,0.8c2.5,0,5.2-0.4,8.1-0.4c2.1,0,5-0.8,6.2,1.2c-4.6,0.4-10.5-0.3-15.8,0.4c-0.5,1,0.9,1.9,0,1.9h-1.9
		c0.1-0.5,0.5-0.7,0.4-1.5c-2.2,0-4.4-1.1-6.2-0.4c1,3,4.2-0.4,5.4,1.9c-9.3-0.1-16.5,1-25.1,0.8c0.2-1.1-1.4-0.4-1.5-1.2
		c2.9-0.2,7,0.4,10.4,0.4c2.4,0,6.1,0.2,6.9-1.9c-5.5,0.3-12.7,0.2-17.7,0.4c-1.1,0.6,0.8,1.7-0.8,1.5c-1.2,0.4-0.7-0.9-0.8-1.5
		c-6.8-0.2-11.5-1.2-17.4-0.8c-0.3-0.4-0.5-1-0.4-1.9c-3-1.5-3.9-5.1-6.2-7.3c1.2,0.2,1.2-0.8,1.2-1.9c-1.4,0.1-3.4-0.3-4.2,0.4
		c0.9,6,5.2,8.7,6.9,13.9c0.4,1.5-1.2,1.2-0.8,2.7c0.2,0.5,1.5,0.1,1.5,0.8c-2.4,0.2-6.2,0.7-8.9,0.4c-0.9,3.2-7.3,1.3-9.3,2.3
		c-0.3,1.1,0.5,1,0.4,1.9c4.3-0.7,10.4-1.7,14.7-1.2c-2.3-0.4-2.3,3.2-1.5,4.6c3-0.3,8.5,0.1,11.2,0c-3.4,0.8-9,0.9-13.1,0.8
		c-0.6,0.8-0.6,3.5,0,4.2c4-1.4,8.9-0.2,14.3-0.8c0.7-0.1,1.3-0.7,1.9-0.8c4.3-0.8,6.4,0.2,8.9,1.2c-2.5-0.2-3.9,0.8-5.8,1.2
		c-1.4-0.6-4.7-0.9-4.2,1.5c5.3,0.6,13.5-0.9,18.5,0.4c-0.6,0.7-2.5,0-3.1,0.8c-0.2,0.7,1.1,1.6,0,1.9c-1.7,0-3.3,0.1-3.1,1.9
		c1.5,1.5,4,1.9,6.6,2.3c-0.6,1.9-5.4-0.5-5,2.3c1,2.6,5.2,1.2,8.5,1.5c2,0.2,3.9,1.4,5.8,0.8c0.5-1.2,1.1-2.3,1.9-3.1
		c3.3-0.8,9.9,1.7,10.8-1.5c-1.3-0.8-3.3-0.8-5.4-0.8c-0.3-2.8-3.4-2.8-5.8-3.5c2.5-0.4,3.6-2.1,6.2-2.3c0.4-1.5-0.9-2.2,0-3.1
		c3-0.7,7.2,1.5,8.1-0.8c-2.9-2.1-7.5-1.3-11.6-1.5c-2.8-0.2-6.7-0.1-8.1-2.3c2,0.1,4.3-0.5,3.9,1.2c1.5-0.2,4.1,0,6.6,0
		c2.4,0,6.1,0.6,6.9-0.8c-2.3-1.3-8,0.8-9.6-1.2c3-2,6.4-0.4,9.6-0.4c0.3,0.7,1.1,1,0.8,2.3c4.3-0.5,7,0.8,10.8,0.8
		c0.2-1.5-1.4-1.2-1.9-1.9c3.3-0.9,10.1-1.6,12.7,0.4v2.3c-1.2,0.6-2.8,0.8-2.7,2.7c0.4,1.7,3.6,0.8,4.6,1.9c-2.5,0.4,0,2.2-0.4,3.9
		c-1.3,0.6-3.3,0.6-2.7,3.1c4.3,2.1,8.9-4.2,11.6-0.4c-1,0.6-3,0.1-3.9,0.8v1.5c0.3,1.1,2.4,0.5,3.1,1.2c-0.6,3.1,3.5,1.6,3.5,4.2
		c-1.9,2.4-7.3,1.2-10,2.7v2.7c0.7,0.7,2.5,0.3,3.9,0.4c1.3-2.7,5.9-3,8.5-2.3c-2.1,0.7-5.7-0.1-5.4,3.1c3.6-0.8,8.2-1,12.7-1.2
		c1.5-0.1,4.2,0.9,4.6-1.2c-1-2.1-6.7,0.5-7.7-1.5c2.3,0,4.8,0.1,5-1.9c-1,0-2.2-0.1-2.7,0.4c-0.9-1.5-2-2.9-3.1-4.2
		c0.7-0.2,2.3,0.5,1.9-0.8c-0.6-2.3-5.4-0.3-6.2-2.3c1.7-0.4,4-0.2,5.4-0.8c0.3-1.7-2.2-0.6-2.7-1.5c2.2,0.1,3.7-0.4,5-1.2
		c-0.9-2.3-3.5-2.9-4.2-5.4c-1.7-0.2-4.6,0.7-4.6-1.2c2.1,0.9,4.8-0.5,7.7,0c-1-2.1-4.1,0.2-5.4-1.5c2.1-2.5,7.7-0.5,9.6,0.8
		c1.3-0.1,2.4-0.8,3.1,0.4c-1.1,1.2-2.7-0.3-3.9,1.2c0.2,2.4,3.7,0.8,2.3,3.9c2.5,0.2,3.7-0.9,6.2-0.8c0.5-1-1.5-1.2-0.4-1.5
		c1.5,0.1,3.4-0.3,3.9,0.8H146c-0.2,1.9,0.5,2.8,1.9,3.1c0.6-1,1.9-1.4,3.9-1.2c1.8,2.8,4.4,1.1,7.7,1.9
		C159.3,463.2,156.1,461.3,156.4,463.1z M182.7,470.8c-0.9,0.7-4,0.4-4.2-0.8C179.6,470.5,181.5,470.3,182.7,470.8z M58.9,428
		c0.7,0.2,1,0.8,1.9,0.8C60.6,429.5,58.1,429.5,58.9,428z M59.3,425.3c0.6-1.3,0.1-3.7,0.8-5c1.5-0.2,1.8,0.8,2.3,1.5
		C61.7,423.4,61.4,425.2,59.3,425.3z M62.7,426.5c-1.1-0.2,0.6-0.6,0.4-1.2C64.4,425.7,62.7,426.1,62.7,426.5z M78.2,455.4h0.8v0.8
		h-0.8V455.4z M50.8,443.4c-0.7,1.2-1.8,0.5-3.1,0.4C48,442.9,49.9,443.7,50.8,443.4z M46.5,436.9c-1.9,0.5-4.2,2.3-5.4,2.3
		C41.6,437.1,43.9,436.8,46.5,436.9z M46.5,443.4c-1.5,0.9-6,1.8-9.6,1.2C38.9,443,43.1,443.6,46.5,443.4z M45.8,451.5
		c0.5-1.9,3.1,0.1,4.6-0.4C49.6,452,47.2,451.3,45.8,451.5z M53.1,450.4c0.6-1.1,2.1,0.2,2.7,0.4C55.2,451.9,53.7,450.6,53.1,450.4z
		 M36.5,447.3c5.6-2.9,15,0.7,21.2-1.2c0.6-0.2,1.8-0.8,1.9-1.9c-0.6,0.1-0.7-0.4-1.2-0.4c1.7-0.7,3.9,0.3,6.2-0.4
		c-0.5,1.2-2.6,1.8-0.4,2.7c-1.3,0.6-3.4,0.4-3.9,1.9C54.2,445.2,43.3,448.2,36.5,447.3z M58.5,453.8c-0.1-0.8,1.4-0.2,1.9-0.4
		C60.5,454.3,59.1,453.6,58.5,453.8z M63.5,451.5c0.5,0.6,1.3,0.7,2.3,0.8c-0.9,0.7-3.2,0.1-3.9,1.2v-1.2c-3.4-0.3,0.6-0.1,1.2-0.8
		c-0.7-0.9-2.9-0.1-4.2-0.4c1.5-2.3,4.9-1.8,8.1-1.5C67,452.2,64.4,449.8,63.5,451.5z M67.4,453.8C69.1,452.6,69.9,454.8,67.4,453.8
		L67.4,453.8z M72.4,462.3C71.5,463.5,69.9,461.9,72.4,462.3L72.4,462.3z M70.5,455.4c1.2,0.8,2.4-0.4,3.5,0.8
		C73.1,456.3,70.8,457,70.5,455.4z M74.3,460c0.9-0.2,0.8,0.7,1.9,0.4C76.3,461,73.7,461.2,74.3,460z M75.1,458.1
		c0.4-0.7,1.4-1,1.9-0.4C77.1,458.5,75.6,457.9,75.1,458.1z M79.7,463.9c0,0.9-1.6,0.2-2.3,0.4C77.4,463.4,79,464.1,79.7,463.9z
		 M77,452.7c-2.1,1.4-4.3,0.8-6.9,1.2C71.2,452.3,75.1,453.5,77,452.7z M68.1,448.1c1.5-1.9,4.3-0.3,7.3-0.8
		C73.9,448.7,70.2,448.2,68.1,448.1z M164.2,458.5c0.6-0.5,1.4-0.4,2.3-0.4v0c1.5,0.1,4,0.7,4.6,1.5
		C169.3,458.7,165.2,460.1,164.2,458.5z M176.9,450c0.5-0.5,1.8-0.5,2.3,0c-0.3,0.8-1,1.4-2.3,1.2V450z M164.5,455
		c3.5,0,9.5-2.7,11.6-0.4C172.3,455.4,168.1,455.4,164.5,455z M174.6,450.4c-1.2,1.4-6.7,1.2-6.9-0.8c-4.9,0.4-10.6,1.4-16.2,0.8
		c-0.8-0.1-2.7,0-3.1-1.2c3.6-0.5,7.1-0.2,10.4-0.4c1.4-0.1,2.9-0.8,4.2-0.8c1.7,0,3.1,1.1,4.6,1.2
		C169.7,449.3,172.7,448.2,174.6,450.4z M164.9,435.3c-0.2,2.9-1.7,2-3.9,1.5c-7.3,1.6-16.1,0.3-22.8,1.5c0.6-1.1,2.6-1,3.5-1.2
		C148.5,436.4,156.9,436.7,164.9,435.3z M154.9,434.2c0.7-0.8,3-0.1,3.9-0.8c-0.1,0.4-0.8,0.3-0.8,0.8H154.9z M176.5,426.1
		c1.8-4.2,4.9-7.2,6.9-11.2c1.2,0.6-0.2,2.3-0.8,3.5c-0.6,1.3-2.1,2.4-1.9,3.9c-0.8,0.2-1.2,0.8-1.9,1.2c-2.3,4.3-5.4,8.3-8.9,11.6
		c-1,0.9-2.3,1.8-3.5,2.3c2.1-4.2,7-5.6,8.5-10.4C175.5,426.6,175.9,426.3,176.5,426.1z M101.7,428c1.5-0.8,2.8-1.9,5.4-1.5
		c4.6-2.9,10.7-4.2,10.8-11.6c0.2-1-2.6-1-1.5-1.5c1.2-1,2.9,0.3,4.2,0.4c0.6,2,2.4,2.9,3.5,4.6c0.3,0.5,0.1,1.4,0.4,1.9
		c0.7,1.3,2.6,2.1,1.9,4.2c-3.6,1.1-6.1,2-8.9-0.4c-0.4-1.7,1.3-1.3,1.2-2.7c-1.1-1.2-1.7,1.4-3.5,0.8c-0.4,1.6,1,2.5,0,3.5
		C109.9,424.6,108.4,429.5,101.7,428z M104.4,429.5c23.5,0.1,48.9-1.9,69.8-7.3c0.3-0.1,0.4,0.2,0.4,0.4c-2.9,3.7-5.2,7.9-8.5,11.2
		c-1.8,0.2-2.4-0.7-4.2-0.4c1.1-1.7,4.9-0.8,5-3.5c-1.5-1.2-3.2,0.5-4.6,0.8c-1.5,0.3-3.3,0.4-5,0.8c-3.5,0.7-8.7,1.4-12.7,1.9
		c-2.5,0.3-5.1-0.1-7.7,0c-5.2,0.3-10.6,1.3-15.8,1.2c-1,0-2.1-0.4-3.1-0.4c-3.1,0.1-7.7,2.1-9.6-1.2c10.8-1,24.4-0.1,37-1.2
		c7.9-0.7,15.8-1.2,21.6-4.2c-1.3-1-3.4,0-5,0.4c-4.4,1-10.5,1.4-15.4,1.9c-7.1,0.7-15.3,0.4-24.3,0.8c-4.3,0.2-9,1.3-14.3,0.8
		C106.2,431.3,104.5,432.1,104.4,429.5z M128.3,436.1c1.3-0.6,3.3-0.5,5-0.8C132.2,436.2,130.3,436.1,128.3,436.1z M130.6,437.6
		c-0.1,0.8-1,0.8-1.9,0.8C128.3,437.1,129.9,437.8,130.6,437.6z M127.1,436.1c-0.8,0.4-1.4,0.9-1.5,1.9c-5.3-0.2-9.8,1-13.5-1.2
		c3-1.8,7.8-0.3,10.8-0.8c0.7-0.1,0.6-0.4,1.2-0.4C125.1,435.7,126.4,436,127.1,436.1z M92.4,437.6c0.8-1.5-3-0.3-1.5-1.2
		c0.6-0.6,2.4-0.1,3.1,0.4c1.5-0.9,4-0.3,6.9-0.4c2.8-0.1,6.6-1.4,7.7,0.8c-5.5,0.1-10.4,1.4-14.7,0c-0.5,0.1-0.3,1-0.4,1.5
		c-4,0.2-5.9,0.2-10.8,0.4C85.3,438,89.7,438.6,92.4,437.6z M113.6,452.3c1-1.4,6.5-2.6,6.9,0C118.7,451.6,115.2,452.8,113.6,452.3z
		 M116.3,461.2c-0.3-1.5,1.8-0.5,2.7-0.8C118.7,461.2,117.6,461.2,116.3,461.2z M119.4,457.3C118.9,458.8,117.2,457.1,119.4,457.3
		L119.4,457.3z M120.6,457.7c0,0,1.8-1,3.5-0.4C122.5,457.9,121.4,457.9,120.6,457.7z M120.2,454.6c-0.7,0.1-0.8-0.4-0.4-0.4
		c1-0.5,4.4-0.7,5.4,0C123.1,453.9,122.2,454.8,120.2,454.6z M141.8,451.9c-4.2,0.2-10.8-0.9-15.8-1.5c-2.3-0.1-2,2.4-4.6,1.9
		c-0.1-1.2,1-1.3,0.8-2.7c-2.5-1.8-5.8-1.3-9.6-1.2c-0.3-1.2,1-0.8,1.2-1.5c-2.6-1-7.5,1.9-9.6-0.8c-9.6,0.9-18.2,0.6-25.8-0.4
		c3.4-1,9.2-4.1,12.3-0.8c8.5-1.6,17.9,0.8,26.6,0c-0.1-1.4-2.5-0.6-1.9-2.7c2.7,1.5,3.9,4.8,8.1,3.9c0.5-3-2.8-2.1-3.1-4.2
		c3.4-0.6,7.2-0.7,9.3,1.2v0c4-1.3,9-0.5,14.3-1.2c-4.5,1.6-13.5,2.2-18.1,1.2c0.8,5.2,4.5,5.3,10.4,5c0.5-1.5-1.1-1-1.5-1.5
		c1.7-1.6,2.6,0.9,3.9,1.2c1.6,0,1-2.1,2.3-2.3c6.3,0,10.6,0.4,16.6,1.2c-4.4,0.2-8,1.2-12.3,1.5c-1.5-0.1-1.3-2.1-3.5-1.5
		c-1.5,0.3-1.6,2-2.3,3.1c1.1,1.6,4.4,1,6.9,1.2C145.8,452.7,143.2,451.8,141.8,451.9z M134.5,444.6c0.1,0.8-1.4,0.2-1.9,0.4
		C132.5,444.1,133.9,444.8,134.5,444.6z M152.2,455.4c-2.2-1.2-6.3-0.4-8.9-1.2c-0.2-0.3-0.5-0.7,0-0.8c-0.1-0.4,0.1-0.7,0.4-0.8
		c4.9,0.5,10.1,0.6,16.2,0.4C158,454.5,153.6,453.5,152.2,455.4z M153.7,458.5c2.1-1.4,6.4-1.5,8.5,0
		C160.2,460.5,156.2,458.5,153.7,458.5z"/>
	<path d="M181.5,479.3c2.9-0.2,7,1.2,8.1-1.5c-3.4-1-8-1-10.8-1.5c-1.3,1.3,1.5,0.8,1.5,1.9c-1.5-0.3-3.3,0.3-5,0.4
		c-2.6,0.2-5.7-0.7-6.9,1.2C171.2,481.1,178.7,479.5,181.5,479.3z"/>
	<path d="M379,481.6c4-0.1,8.6,0.2,12.7,0c3.5-0.2,6.9-0.9,10-0.8c2.6,0.1,5.1,1.7,6.9-0.8c-8.2-1.4-19.9-0.9-28.5-1.9
		c0.7,2.2,5,1,6.9,1.9c-4.2,1.2-9.6,0.1-15.4,0.8C373.4,482.7,376,481.7,379,481.6z"/>
	<polygon points="380.1,478.1 380.1,478.1 380.1,478.1 	"/>
	<path d="M126.4,494.7c1.5-0.2,3.5-0.4,5-0.4c25.2,0.4,51.5-4.2,74-1.5c6-1.4,14-0.6,19.7-1.5c1.3-0.2,3.2,0.3,3.9-1.2
		c-1.5-0.7-3.5-0.8-5.8-0.8c-1.3-0.3-0.5,1.6-1.9,1.2c-10-1.9-20,1.5-30.9,0.4c-12.2-1.2-27.3-0.1-37.4,0.8
		c-2.4,0.2-5.1,0.6-7.3-0.4c0.4-1.4,3.2-0.4,2.7-2.7c-3.1-0.7-7.7-1.8-10.8-1.2c-0.2,0.6-0.5,0.6,0,1.2c1.4,0.9,4.8-0.2,6.2,0.8
		c-2.5,0.2-4.6,0.8-5,3.1c-22.9,1.8-47,0.4-71.7,1.5c-4.8,0.2-12.9-0.2-17.7,0.4c-1.4,0.2-4.2,0.1-4.2,2.3c1,2.1,4.3-1.1,5.8,0.4
		c-0.3,1.8-4.5-0.3-3.9,2.3c4.1,0.1,10.9-0.7,15.8-0.4c0.8-0.3-0.1-2.5,0.8-2.7C84.9,495,107,496.9,126.4,494.7z M56.6,496.6
		C55.7,497.8,54.1,496.2,56.6,496.6L56.6,496.6z"/>
	<path d="M229.7,507.1c-3.4-0.2-6.3-0.8-10.8-0.8c0,0.7-0.2,0.6-0.8,0.8c-12.3,3.2-27-0.6-38.9,1.2c-1.2-0.2-0.1,1.9-1.5,1.5
		c-2.5,0.3-5-0.4-7.7,0c-1,0.1-2,0.9-3.1,1.2c-2.3,0.5-4.6-0.1-6.9,0c-8.5,0.3-17.3-0.5-25.5,1.2c-7.4-1.9-16.6-0.6-25.5,0
		c-6.5,0.4-12.9-0.3-17.7-0.4c-1.5,0-4.4-1.6-5,1.2c1.8,3.4,6.2,0.7,9.6,0.4c6.1-0.6,13.8,0.4,20.1,0c6.7,2.9,15.8-0.1,25.1-0.8
		c8.2-0.6,15.5,0.9,22.4,0c0.7,1.6,2.3,2.4,5,1.9c1.8,0-0.5-2.3,1.2-1.9c10.9-1.5,23.5-1.3,35.1-1.9c3.2-0.2,6.2-0.8,9.3-0.8
		c0.9,0,2.2,0.8,3.1,0.8c1,0,1.7-0.8,2.7-0.8c2.7,0.1,6.1,2.1,8.5,0c-1.7-0.9-5.3,0.2-6.6-1.2C224.6,508.4,228.8,509.4,229.7,507.1z
		"/>
	<path d="M484.2,507.4c-2.1,2.7-5.9,1-8.9,0.8c-3.1-0.2-6.4,0.2-9.6,0c-11.8-0.7-24.4-2.3-36.2-2.7c-10.6-0.3-20.7-0.1-30.9-1.5
		c1.7-0.2,4.1,0.2,4.6-1.2l0,0c-26.2-3.7-53.5,3.1-79.8,1.9c-1.2,0-2.3-0.7-3.5-0.8c-3.9-0.3-8,0-11.6,0c-1.6,0.2-0.7-2.1-2.7-1.5
		c-4.2,0.2-8.5-0.8-11.6,0c-1.4,0.4-4.4,1.1-5,2.3c2.1,1.6,4.7-0.3,7.3-0.4c4.5-0.1,9.4,1.9,13.5,0.4c9,1.1,20,1.5,30.8,1.9
		c6.3,0.2,12.2-0.9,18.5-1.5c4.5-0.5,10.1,0.1,13.9,0c0.9,0,1.6-0.8,2.3-0.8c1.6,0,3.3,0.7,5,0.8c2.2,0.1,4.6-0.2,6.6,0
		c3.3,0.4,6.3,1.4,9.6,1.5c2.6,0.1,5.4-0.2,8.1,0c0.9,0.1,1.7,0.7,2.7,0.8c5.5,0.6,11.5-0.2,17.4,0c15.8,0.6,33.7,2.2,48.6,2.7
		c1-0.1-1,1.5,0.8,1.2c3.7-0.7,8.4,1,10.8-1.5c-0.2,1,0.2,1.4,1.2,1.2C486.9,509.4,485.8,507.8,484.2,507.4z M390.9,504
		c-0.9-0.1-1.4-0.6-2.7-0.4C388.3,503,391.4,502.7,390.9,504z"/>
</g>
</svg>
