<?xml version="1.0" encoding="utf-8"?>
<!-- Generator: Adobe Illustrator 22.1.0, SVG Export Plug-In . SVG Version: 6.00 Build 0)  -->
<svg version="1.1" id="Layer_1" xmlns="http://www.w3.org/2000/svg" xmlns:xlink="http://www.w3.org/1999/xlink" x="0px" y="0px"
	 viewBox="0 0 512 512" style="enable-background:new 0 0 512 512;" xml:space="preserve">
<style type="text/css">
	.st0{fill:#FFFFFF;}
</style>
<path d="M271,577c-9.7,0-19.3,0-29,0c-1.6-0.3-3.2-0.7-4.9-0.8c-29.2-1.7-57.5-7.6-84.9-18C71,527.3,12.6,471.9-24.2,393.4
	c-14.1-30.1-23-61.7-26.9-94.8c-1.1-8.9-1.9-17.8-2.9-26.7c0-10,0-20,0-30c0.3-1.8,0.6-3.5,0.8-5.3c1.4-11.7,2.3-23.5,4.1-35.1
	c8.3-52.3,29.2-99.4,60.7-141.6C34.3,29.6,62.2,4.4,94.5-15.8c37.6-23.6,78.3-38.6,122.4-44.3c8.4-1.1,16.8-2,25.2-2.9
	c9.7,0,19.3,0,29,0c1.8,0.3,3.6,0.6,5.4,0.9c17.9,2.5,36.3,3,53.6,7.8c92.1,25.6,160.8,80.6,203.9,166.5
	c16.7,33.3,27.1,68.7,31.3,105.7c1,8.7,1.9,17.5,2.9,26.2c0,7.3,0,14.7,0,22c-0.6,6.6-1.3,13.2-1.8,19.8c-2.5,29.4-8.6,58-19.1,85.5
	c-27.8,73.2-75.4,129.5-143.8,167.8c-33.2,18.5-68.8,30.2-106.5,35C288.1,575.2,279.6,576,271,577z M332.1,217.9
	c-1.8,0.1-3.7,0.2-5.5,0.4c-34.4,4.7-67.6,13.8-100.6,24.4c-12,3.9-19.1,10.9-23.3,22.8c-12,34.4-21.5,69.5-29.7,105
	c-1.3,5.7-0.1,10.3,3.5,14.8c23.9,29.4,51.6,54.7,81.1,78.2c2.4,1.9,7,2.6,10.2,1.9c21.6-4.7,43.2-9.4,64.5-15.1
	c16.5-4.4,32.7-10.1,48.9-15.6c2.3-0.8,5.2-3,5.9-5.2c11.9-36.6,23.4-73.4,35.2-110.1c1.6-5.1,0.6-8.7-2.9-12.5
	c-25.4-28-50.8-56-76.1-84.1C340.4,219.2,336.8,217.4,332.1,217.9z M73,395.3c0,0.2,0.1,0.4,0.1,0.7c17.8-2.4,35.7-4.2,53.3-7.3
	c13.5-2.4,26.8-6.4,40.1-9.9c1.4-0.4,3-2,3.4-3.3c4.9-19.7,9-39.5,14.6-59c5.9-20.4,12.8-40.5,20.2-60.4c2.3-6.1,2.5-10.3-1.5-15.4
	c-10.2-13.1-20.4-26.3-30-39.9c-11.7-16.6-22.6-33.6-34.2-50.3c-1-1.5-4.2-2.6-6.1-2.2c-12.3,2.2-24.3,5.5-36.7,7.2
	c-20.7,3-41.6,5.3-62.4,7.4c-4.2,0.4-6.4,1.2-7.9,5.3c-13.6,37-24.5,74.8-32.9,113.3c-1.3,5.9-0.6,11.3,2.9,16.6
	c20.4,30.4,40.7,60.9,60.7,91.5c3.4,5.3,7.4,7.2,13.2,6.2C71,395.4,72,395.4,73,395.3z M341.2,169.5c-0.4,0-0.8,0-1.2,0
	c0,13.8-0.1,27.6,0.1,41.5c0,2.5,1.1,5.5,2.8,7.3c25.6,28.5,51.4,56.8,77,85.3c6.5,7.2,6.6,8,15.6,4.4
	c25.3-10.2,50.4-20.8,75.4-31.5c1.4-0.6,2.7-2.9,3-4.6c1.6-9.5,3.5-19,4.3-28.6c2.2-28.9,4.1-57.8,5.8-86.7c0.2-2.9-0.9-6.3-2.6-8.7
	C504,123.3,485,99.9,463.8,78.4c-6.1-6.1-12.8-11.7-19.7-16.9c-2.2-1.6-6.2-2.6-8.7-1.8c-27.1,9.2-53.9,19-81,28
	c-7.4,2.5-9.3,6.8-9.6,13.9C343.9,124.3,342.4,146.9,341.2,169.5z M39.6,160.4c29.5-2.5,58.8-7,87.7-13.2c6.4-1.4,11.3-4.4,15.6-9
	c19-20.3,38.2-40.4,56.9-61c6.8-7.5,12.4-16,18.6-24c2.9-3.8,3.4-7.9,1.9-12.2c-4.7-13.8-9.2-27.7-14.2-41.4
	c-1.9-5.3-4.8-10.2-7.4-15.2c-1.9-3.7-5-5.6-9.4-5.2c-3.6,0.3-7.4-0.1-11,0.4c-24.4,3.5-48.7,7-73,10.8c-6.5,1-14,1.3-19,4.9
	C64.3,10.9,42.9,28,24.4,48.3c-7.1,7.8-12.8,16.9-18.6,25.8c-1.7,2.6-2.3,6.9-1.5,10c5.4,21.4,11.1,42.8,17.1,64
	C25.2,161.4,25.6,161.3,39.6,160.4z M198.3-22.5c2.7,5.1,5.4,9.3,7.2,13.9c6.3,16.3,12.1,32.7,18.3,49c0.8,2,2.6,4.4,4.5,5.2
	c23.3,10.1,46.6,20.4,70.2,29.8c12.9,5.1,26.4,8.9,39.8,12.9c2.7,0.8,6.1,1,8.7,0.1c16.6-5.8,33.1-12.1,49.7-18
	c9.8-3.5,19.8-6.8,29.7-10.2c9.2-3.2,10.1-4,7.3-13.2c-5.8-18.7-12-37.3-18.5-55.8c-1.2-3.5-4-7.1-7-9.1
	c-31-19.6-64.3-33.3-100.7-38.8c-5.1-0.8-10.9-1.2-15.8,0.4c-15.3,5-30.2,11.1-45.4,16.6C230.4-33.9,214.5-28.3,198.3-22.5z
	 M452.4,472.9c-5.9-3.1-11.4-5.6-16.5-8.7c-13.7-8.5-27.3-17.2-40.7-26.2c-3.9-2.6-7-2.9-11.4-1.4c-37,12.4-74.1,25-112.9,30.6
	c-9.5,1.4-15.9,5.5-21.5,12.5c-4.2,5.2-8.8,10-12.8,15.4c-8.3,11.2-16.2,22.8-24.3,34.1c-3.8,5.3-4.2,10.4-0.3,15.9
	c5.2,7.3,10.2,14.8,14.9,22.4c3.1,4.9,7.1,6.5,12.8,6.6c27.5,0.7,54.4-2.7,81.3-8.1c47.3-9.6,89.4-29.8,126.5-60.5
	c1.4-1.2,3-3,3.1-4.7C451.5,491.4,451.9,481.9,452.4,472.9z M-49.9,289.3c2.2,11.5,3.8,21.1,5.9,30.7c7.4,33.7,16.8,66.8,34.3,96.8
	c18.4,31.7,42.8,58.5,69.8,83c12.9,11.8,12.9,11.7,26.6,0.6c2.8-2.3,3.8-4.3,2.6-8c-9.9-31.3-19.6-62.7-29.5-94
	c-0.6-2-2.1-3.7-3.3-5.5C34.8,360,13.1,327.1-8.6,294.2c-0.8-1.3-2.4-2.8-3.7-2.9C-24.4,290.5-36.4,290-49.9,289.3z M542.6,137.5
	c-4.7,3.8-8.6,7.1-12.8,10.1c-2.6,1.9-3.2,4.1-3.4,7.2c-1.6,39.7-3.4,79.5-9.9,118.8c-0.2,1.2,0.1,2.6,0.6,3.6
	c13.4,28.4,19.3,58.2,16.7,89.5c-0.2,2.3-0.8,4.7-1.3,7.1c9.8-2.5,14.9-8.1,17.5-17.5c8.8-32.2,14.6-64.9,15.2-98.3
	C566.2,216.7,555.3,177.3,542.6,137.5z M227.2,571.8c-1.2-1.6-2.3-3-3.3-4.5c-4.7-6.8-10.9-13.1-13.8-20.6
	c-3.3-8.4-8.4-10.7-16.5-12.3c-34.5-6.9-67.7-17.6-99.3-33.3c-1.2-0.6-3.4-0.8-4.4-0.1c-4.6,3.5-9,7.3-13.4,11
	C98.9,535,195.6,573.3,227.2,571.8z M542.1,373.4c-9.7,3.7-9.6,3.7-15.5,11.7c-21.6,29.2-43.1,58.4-68.6,84.4
	c-1,1.1-1.8,2.8-1.9,4.3c-0.2,8.1-0.1,16.1-0.1,22.9C494.2,463.6,525.4,423.5,542.1,373.4z M99.8,395.6c-12.2,0.9-24.3,1.7-37,2.7
	c1.9,5.5,3.6,10.6,5.3,15.4C79.7,408.9,86.2,396,99.8,395.6z M1.8,80.1c-3.1,8.9-5.7,16.6-8.4,24.4c4-2.9,7.8-5.6,12.1-8.6
	C4.5,91.7,3.2,86.4,1.8,80.1z M415.3-16.5c1.9,11.7,5.9,14.3,12.7,9.2C423.9-10.2,420-13,415.3-16.5z"/>
<path class="st0" d="M99.8,395.6c-13.5,0.5-20,13.3-31.7,18.1c-1.6-4.8-3.4-9.9-5.3-15.4C75.4,397.3,87.6,396.4,99.8,395.6z"/>
<path class="st0" d="M1.8,80.1c1.5,6.3,2.7,11.5,3.7,15.8c-4.2,3-8.1,5.7-12.1,8.6C-3.9,96.7-1.3,89,1.8,80.1z"/>
<path class="st0" d="M415.3-16.5c4.7,3.4,8.7,6.3,12.7,9.2C421.1-2.2,417.2-4.8,415.3-16.5z"/>
</svg>
