<?xml version="1.0" encoding="utf-8"?>
<!-- Generator: Adobe Illustrator 22.1.0, SVG Export Plug-In . SVG Version: 6.00 Build 0)  -->
<svg version="1.1" id="Layer_1" xmlns="http://www.w3.org/2000/svg" xmlns:xlink="http://www.w3.org/1999/xlink" x="0px" y="0px"
	 viewBox="0 0 773.4 194.1" style="enable-background:new 0 0 773.4 194.1;" xml:space="preserve">
<path d="M748.9,192.4c-1.3-0.9-5.2-4.2-8.5-7.4s-8.4-7.2-11.1-9c-2.8-1.8-8-5.8-11.7-9c-3.7-3.2-7.1-5.8-7.7-5.8s-3.4-2.1-6.3-4.7
	c-2.9-2.6-5.9-4.7-6.5-4.7s-2.4-1-3.8-2.2c-4.8-4-7.1-4.7-13.7-4.5c-4,0.2-8.3-0.3-11.4-1.3c-5.5-1.7-8-1.4-7.9,1.2
	c0,2.1,5.3,8,6.6,7.3c1.8-1.1,0.9-2.9-2.4-4.6c-2.6-1.4-5.1-5.4-2.6-4.1c0.4,0.2,2.3,1.1,4.2,1.9c1.9,0.9,4,2.4,4.7,3.4
	s2.8,2.4,4.8,3.2c1.9,0.8,3.5,1.9,3.5,2.5c0,2.3,9.4,10.2,14.2,12c5.3,2,7,4,3.4,3.9c-2.7,0-11.8-3.7-15.4-6.2
	c-1.5-1-3.8-2.2-5.1-2.5c-1.3-0.3-3.8-1.9-5.4-3.4c-1.6-1.6-3.5-2.8-4.2-2.8c-0.7,0-2.8-1.9-4.7-4.2c-1.9-2.3-4.1-4.2-4.8-4.2
	c-1.1,0-3.1-2-8.3-8.4c-1-1.2-2.3-1.9-3.1-1.6c-0.8,0.3-4.4-0.1-8.1-0.9c-8.3-1.7-8.4-1.6-2.6,2.7c2.6,1.9,4.7,3.8,4.7,4.3
	s1.9,1.8,4.3,3c2.3,1.2,5,3.5,5.9,5.1c1.8,2.9,15.5,11.7,18.4,11.7c0.9,0,1.4,0.5,1.2,1.2c-0.9,2.7-16.4-1.7-19.6-5.5
	c-0.6-0.7-2-1.3-3.2-1.3c-1.4,0-3.5-1.5-5.9-4.2c-2.4-2.8-4.2-4-5.2-3.7c-0.9,0.4-2-0.4-3.2-2.1c-2.9-4.4-6.1-7.7-7.2-7.3
	c-0.6,0.2-2.8-2.3-4.9-5.5c-3.1-4.6-4.4-5.9-6.6-6.1c-5.4-0.6-12.3-3-14.7-5.3c-1.4-1.3-2.7-2-2.9-1.6c-0.3,0.4,1,2.1,2.8,3.7
	c1.8,1.6,3.3,3.5,3.3,4.3c0,1.6,5.3,6.2,7.1,6.2c0.7,0,1.3,0.8,1.3,1.8c0,2.1,3.3,4.7,5.9,4.7c0.9,0,2.2,1.1,2.8,2.3
	c0.6,1.3,1.4,2.3,1.9,2.3s2.4,1.4,4.3,3.2c1.9,1.7,5.8,4.1,8.7,5.3c6.3,2.6,6.3,2.7,4.8,3.6c-1.8,1.1-8.8-0.5-14.4-3.3
	c-2.7-1.4-5.7-2.6-6.7-2.7s-3.9-2.3-6.6-5c-2.7-2.7-5.3-4.8-5.8-4.8s-2.6-2.3-4.6-5.1c-2-2.8-4-4.9-4.4-4.6
	c-0.9,0.6-5.8-4.8-7.9-8.6c-1.3-2.4-2.5-3.1-7-4c-3.1-0.6-6.6-2.1-8.2-3.4c-3.7-3.1-6.5-3.2-4.4-0.2c0.8,1.1,1.5,2.7,1.5,3.5
	c0,1.5,12,13.2,13.6,13.2c0.5,0,3.8,3.2,7.3,7c4.4,4.9,7.9,7.8,11.5,9.4c5.6,2.7,6.5,4.1,2.4,4.1c-3.9,0-9.7-2.7-15.5-7.3
	c-1.5-1.2-4.1-2.7-5.7-3.4c-1.7-0.7-4.4-3-6.1-5.1c-1.7-2.1-3.6-3.6-4.2-3.3c-1.2,0.5-4.9-3.4-7.7-8.2c-0.9-1.6-2.5-3-3.6-3.3
	c-1.2-0.3-2.8-2.3-4.1-5.2c-1.7-3.7-2.9-5-5.6-6c-1.9-0.7-5.4-2.4-7.9-3.6c-5.9-3.1-8.9-2.2-5.9,1.8c0.8,1,1.4,2.4,1.4,3.2
	c0,1.5,5.5,7,11.9,12.1c2.1,1.7,4.1,4,4.4,5.2c0.7,2.6,6.9,7.5,14.6,11.5c7.6,4,5.8,4.9-3.4,1.8c-7.4-2.5-13.9-6.8-13.2-8.9
	c0.2-0.7,1.4-0.3,3.3,1.3c4.1,3.5,4.8,3.1,0.8-0.5c-2.9-2.6-3.7-2.8-5.6-1.9c-2,0.9-2.6,0.6-6-3.2c-2.1-2.3-4.1-4-4.5-3.8
	c-1.2,0.7-2.3-0.3-5.3-5c-1.5-2.3-3.9-5.3-5.4-6.7c-1.5-1.4-3.3-4-4.1-5.9c-0.9-2.2-2-3.4-3.2-3.4c-1,0-4.1-0.9-7-2
	c-3.3-1.3-6.1-1.8-7.6-1.4l-2.4,0.6l2.9,4.1c1.6,2.3,4.4,5.5,6.1,7.2s3.2,3.5,3.2,4.1c0,0.5,1.3,1.8,2.8,2.9c1.6,1,4.3,3.8,6.2,6.1
	c1.9,2.4,7.4,6.9,12.6,10.4c9.1,6.1,10.6,7.9,5.7,6.8c-7.2-1.5-21.1-10.1-27.8-17.2c-1.5-1.6-4.2-3.6-5.9-4.4c-1.7-0.8-3-1.8-3-2.3
	c0-0.4-2.5-3.7-5.5-7.2c-3-3.5-6-7.3-6.6-8.5c-0.7-1.2-2-2.1-3.3-2.1c-1.2,0-4.2-1.1-6.8-2.3c-5.7-2.9-8.1-3.1-5.3-0.4
	c1.1,1.1,2.1,2.7,2.1,3.6c0,1,1.6,2.8,3.7,4.2c2.1,1.4,3.7,3.1,3.7,3.9c0,0.8,2.3,2.9,5.1,4.7c2.8,1.8,5.4,4.1,5.7,5.1
	c1.1,3.6,14.5,12.9,22.3,15.4c3.3,1.1,0.6,2.6-3.4,1.9c-4.5-0.8-9.6-3.2-15.7-7.5c-2.4-1.7-5.2-3.3-6.2-3.6c-1.1-0.3-4-2.5-6.4-4.8
	c-2.5-2.3-5-4.2-5.5-4.2c-1.5,0-6.9-5.5-8.5-8.6c-0.7-1.4-2-2.6-2.7-2.6c-0.8,0-2.4-1.6-3.6-3.5c-1.8-2.9-3.1-3.7-7-4.6
	c-2.6-0.6-6.1-2.1-7.6-3.2c-6-4.4-7.7-1-1.9,3.9c2.7,2.3,6.8,5.9,9.2,7.9c4.1,3.6,5.5,5,14.3,14.3c2.1,2.2,6.7,5.4,10.2,7.2
	c8.3,4.2,8.6,4.3,8,5.3c-0.3,0.5-2.2,0.2-4.4-0.5c-2.1-0.7-4.7-1.4-5.8-1.4c-1.1,0-4.1-1.4-6.8-3c-8.6-5.5-14.9-9.8-17.4-12.1
	c-3.5-3.1-12-10.5-15.6-13.5c-1.7-1.4-3.7-3.7-4.6-5.2c-1.2-2.1-2.5-2.8-5.9-3.2c-2.4-0.3-5.9-1.3-7.8-2.1c-2.5-1.1-3.8-1.2-4.5-0.5
	c-0.7,0.7-0.5,1.2,0.9,1.6c1,0.3,2.4,1.9,3,3.4c0.6,1.6,2.9,4.2,5,5.8c2.1,1.6,4.7,3.8,5.7,4.7c1,0.9,4.5,3.6,7.7,5.9
	c3.2,2.3,5.9,4.7,5.9,5.3c0,0.7,1.2,1.9,2.6,2.8c1.4,0.9,3.8,2.6,5.3,4c1.5,1.3,4.5,2.9,6.6,3.5c6.7,2,10.9,5.9,5,4.8
	c-9.5-1.9-19.5-6.7-31.1-15c-2-1.4-4.8-3.2-6.1-3.9c-1.3-0.7-6.7-5.7-12-11c-5.4-5.4-10.3-9.7-11.3-9.7c-1,0-4-0.7-6.7-1.5
	c-3.8-1.1-5.2-1.2-6.3-0.4c-1.9,1.6-1.7,2,1.7,5.2c1.7,1.6,4.8,4.5,6.9,6.5c2.1,2,5.9,4.7,8.3,6c3,1.6,4.9,3.4,5.7,5.4
	c1.4,3.2,14.8,10.7,21.7,12.1c5.9,1.2,3.3,2.5-3.8,2c-5.7-0.4-8.3-1.2-15.3-4.8c-4.6-2.4-8.8-4.3-9.3-4.3c-0.5,0-4.7-3.6-9.3-7.9
	c-4.6-4.4-8.8-8-9.3-8c-1.2,0-6-5.6-6.7-7.8c-0.4-1.3-1.6-1.6-5.4-1.6c-2.7,0-6-0.6-7.4-1.4c-2.2-1.1-3-1.1-4.9-0.1l-2.4,1.2
	l4.2,3.5c2.3,2,4.2,4.3,4.2,5.2c0,0.9,1.1,2.3,2.4,3.2c1.3,0.9,3.8,2.9,5.5,4.6s4.7,4.2,6.6,5.7c3.9,3,7.8,6.7,8.2,7.9
	c0.7,1.8,13.2,9.6,17.4,10.8c5.9,1.7,6.3,3.5,0.8,3.5c-5.8,0-12.9-3-19-8c-2.8-2.3-5.7-4.2-6.4-4.2c-2.6,0-23.2-18.9-29-26.5
	c-2.3-3.1-3.1-3.5-6.7-3.5c-2.2,0-5.1-0.4-6.3-0.9c-1.8-0.7-2.9-0.4-5.1,1.1l-2.8,2l3.7,4.9c2,2.7,4.9,5.4,6.4,6
	c1.5,0.6,3.7,2.3,4.8,3.6c1.1,1.4,3.6,3.1,5.3,3.8c1.8,0.7,5,3,7,5c4.2,4.1,11.6,7.9,16.5,8.4c4,0.4,4.7,2.1,1.2,2.9
	c-3.6,0.8-12.1-0.9-15.8-3.2c-1.7-1-3.8-1.9-4.7-1.9c-2.5,0-9.8-4.6-9.8-6.1c0-0.8-0.8-1.4-1.8-1.4c-1,0-4.5-2.4-7.8-5.4
	c-3.3-3-7.5-6.7-9.4-8.3c-1.9-1.6-4.1-4.1-5-5.5c-1.4-2.1-2.2-2.4-4.5-2.1c-1.6,0.3-4.6,0-6.6-0.7c-3.4-1-4.1-0.9-7.7,1.1l-4,2.2
	l4.9,4.6c2.7,2.6,7.3,6.9,10.1,9.6c2.8,2.7,6.6,5.7,8.4,6.7c1.8,0.9,5.2,3.5,7.5,5.8c3.7,3.6,10.1,7.4,15.2,9.1
	c0.9,0.3,1.6,1,1.6,1.6c0,3.7-22.5-5.1-29.8-11.7c-2.1-1.9-4.2-3.4-4.7-3.4c-0.5,0-3.4-2.3-6.2-5.2c-2.9-2.8-5.8-5.2-6.4-5.2
	c-1.4,0-6.2-4.8-6.2-6.3c0-4.1-13.2-5.2-18.6-1.6c-1.8,1.2-3.7,2.2-4.2,2.2c-0.5,0-0.1,0.9,1,2.1c1.1,1.2,2.5,3.2,3.2,4.5
	c1.4,2.6,12,12.7,16.1,15.4c1.4,0.9,2.5,2.2,2.5,2.8c0,2.5,9.6,9.2,14.8,10.3c3.5,0.7,4.2,3.3,0.9,3.3c-5,0-17.5-5.9-17.5-8.2
	c0-0.8,0.9-0.6,2.8,0.8c1.5,1.1,3,1.8,3.3,1.5c1.2-1.2-5.2-4.7-6.6-3.6c-0.7,0.6-1.9,0.8-2.5,0.4c-5.8-3.4-21.7-18.6-24.7-23.6
	c-1-1.7-2-3-2.3-3.1c-10.3-1.2-19.7,2.2-15.5,5.7c0.8,0.6,1.4,2.2,1.4,3.4c0,1.4,1.5,3.7,4.2,6.3c2.3,2.2,4.2,4.4,4.2,4.9
	c0,0.5,1.9,2.8,4.2,5s4.2,4.7,4.2,5.4c0,3,12,16.2,14.8,16.2c0.6,0,1.2,0.6,1.2,1.4c0,6.2-24.1-12.6-26.7-20.9
	c-0.4-1.2-1-2.1-1.4-2.1c-0.4,0-2.9-2.7-5.6-6.1c-2.6-3.4-5.3-6.1-6-6.1c-0.7,0-2.2-2.1-3.4-4.6c-2.5-5.4-7.5-6.9-14.5-4.4
	c-2.1,0.7-5,1.6-6.4,1.9c-3,0.6-3.2,2-0.7,5.2c1,1.3,1.9,3,1.9,3.7c0,0.8,1.7,3.2,3.8,5.5c2,2.2,3.7,4.4,3.7,4.9
	c0,0.5,1.7,2.6,3.7,4.7c2.2,2.3,3.7,4.8,3.7,6c0,2.9,9.3,13.8,13.1,15.4c3.6,1.5,3.7,2.8,0.3,2.8c-3.2,0-7.1-2.4-12-7.3
	c-2.1-2.1-5.5-5.6-7.7-7.9c-2.2-2.2-4-4.6-4-5.2c0-0.6-0.8-1.9-1.7-2.9s-3.1-4.1-4.7-7c-1.7-2.9-3.6-5.6-4.4-6.1
	c-0.8-0.4-2.2-2.9-3.1-5.4c-2.1-5.6-7.7-7.4-14.1-4.8c-1.8,0.8-4.1,1.6-5.1,1.9c-1.2,0.4-1.5,1.1-1.1,2.2c0.4,0.9,1.2,4.6,1.9,8.2
	c0.7,3.6,1.7,7.8,2.3,9.2c0.5,1.4,1,3.6,1,4.8s1.3,3.7,2.8,5.7c1.5,1.9,2.8,4,2.8,4.6c0,1.4,6.6,7.9,12.7,12.3
	c1.5,1.1,1.6,1.5,0.6,2.2c-4.1,2.7-19-9-22.1-17.3c-0.9-2.5-2.2-5.2-2.8-6c-0.6-0.8-1.6-3.8-2.3-6.8c-0.6-3-1.5-5.6-2-5.9
	c-0.4-0.3-1.1-2.8-1.4-5.6c-0.7-5.7-5.2-8.5-9.7-6.1c-1,0.5-2.6,1-3.6,1c-1.3,0-2,0.8-2.4,2.8c-1.6,7.8-6,14.1-11.6,16.5
	c-1.7,0.7-3,1.7-3,2.2c0,0.5-1.6,1.6-3.5,2.5c-1.9,0.9-3.7,1.9-4,2.2c-1.4,1.7-19.8,7.8-22.2,7.3c-2.5-0.5-2.1-2.9,0.6-3.3
	c1.3-0.2,4.5-1.4,7.2-2.7c2.7-1.3,5.3-2.3,5.7-2.3c0.5,0,1.9-1.1,3.1-2.5s4.2-3.3,6.5-4.3c4.9-2.2,12.2-8.8,11.6-10.6
	c-0.3-0.7-0.1-2.7,0.4-4.4l0.9-3.2l-4.6-0.5c-5.7-0.7-8.2,0.2-11.2,4.1c-1.3,1.7-3.1,4-4.2,5.2c-2,2.3-13.6,7-17.4,7
	c-1.3,0-4.2,0.7-6.5,1.5c-6.5,2.3-24.7,2.9-26.7,1c-0.8-0.8-1.4-1.6-1.2-1.6c0.2,0,3.5-0.2,7.5-0.4c4-0.2,8-0.8,9.1-1.3
	c1-0.6,3.2-1,4.7-1c1.6,0,3-0.4,3.3-0.8c0.3-0.4,2.3-1,4.6-1.3c10-1.1,24.6-12,16.2-12c-0.7,0-1.5-0.6-1.8-1.3
	c-0.9-2.2-5.5-0.3-8,3.3c-4.1,6-24.4,8.6-37.4,4.8c-7-2.1-4.3-2.8,11.9-3.1c14.7-0.3,16.1-0.5,17.9-2.3l2-2l-3.3-0.6
	c-1.8-0.3-4-1.3-4.8-2.1c-1.2-1.2-2-1.3-4.4-0.4c-3.5,1.2-9.8,1.3-10.5,0.2c-0.3-0.4-2.8-0.9-5.7-0.9c-3.5-0.1-5.7-0.6-6.8-1.8
	c-0.9-0.9-3.2-2.9-5.2-4.4c-2.9-2.3-4.6-5.2-3-5.2c1.2,0,8.9,4.2,8.9,4.9c0,1.1-0.7,0.9-3.5-0.8c-2.4-1.4-2.4-1.4,0.3,0.9
	c2.9,2.5,4.8,3.2,3.7,1.3c-0.5-0.8-0.1-0.9,1.1-0.4c7,2.9,11.3,1.6,5.7-1.7c-4.7-2.7-10-7.9-10-9.7c0-1.7-3.2-1.5-6.8,0.3
	c-1.6,0.8-3.9,1.6-5.2,1.8c-1.2,0.1-3.1,1.1-4.1,2.2c-1,1.1-2.7,2-3.7,2c-1,0-2.5,1.1-3.4,2.3c-0.8,1.3-2.2,2.3-2.9,2.3
	c-0.8,0-4.2,3-7.7,6.6c-3.5,3.6-6.6,6.6-7.1,6.6c-0.4,0-2,1.3-3.5,2.9c-1.5,1.6-3.1,2.7-3.5,2.4c-0.5-0.3-1.8,0.5-3,1.8
	c-1.2,1.3-2.6,2.3-3.1,2.3c-0.5,0-2,1.3-3.4,2.9c-2.2,2.6-2.7,2.8-4.4,1.7c-2.2-1.4-7.5,1.1-6.3,3c0.4,0.6,1.4,0.2,2.7-1
	c3.3-3.1,3.5-2.3,0.4,2.3c-1.7,2.5-3.4,4.1-4.1,3.8c-0.7-0.3-1.9,0.6-2.7,1.8c-1.6,2.5-3.8,3-4.6,1.1c-0.3-0.8-0.5-0.7-0.5,0.3
	c-0.1,1.9-4.2,5.8-6.4,6c-0.9,0.1-2.8,0.5-4.3,0.9c-1.4,0.4-2.9,0.5-3.2,0.2c-0.8-0.8,4.6-5.3,6.3-5.3c0.8,0,3-1.7,5-3.8
	s4.5-4,5.7-4.3c1.2-0.3,2.7-1.6,3.4-2.8c0.7-1.2,1.5-2.3,1.8-2.3c0.3,0,2-1.3,3.7-2.8c1.7-1.5,3.7-2.8,4.4-2.8
	c0.7,0,2.1-1.1,3.2-2.5c1.1-1.4,3.5-3.6,5.4-4.8c3.4-2.3,4.8-3.4,9.5-7.5c1.4-1.2,3.7-2.9,5.1-3.7c1.4-0.9,2.6-2.1,2.6-2.7
	c0-1,1.8-2.4,9.9-7.4c1.7-1,3.8-2.6,4.8-3.4c0.9-0.8,2.8-1.8,4-2.2c1.3-0.4,3.8-1.5,5.6-2.5c1.8-1,4.5-1.7,5.9-1.7h2.7l-1.9-2.7
	c-3.1-4.3-2.1-8.9,2.7-13c1.2-1,1.2-1.3,0.1-1.8c-0.7-0.3-2.2-1.5-3.3-2.6c-1.1-1.1-2.9-2.6-4-3.2c-1.2-0.6-1.9-1.7-1.6-2.4
	c0.3-0.8-0.8-2.2-2.6-3.4c-1.7-1.2-3.3-2.3-3.5-2.5c-0.2-0.2,0.2-0.8,0.9-1.3c1.1-0.7,0.8-1.4-1.9-3.7c-2.6-2.2-3-3-1.9-3.7
	c1.1-0.7,0.8-1.4-1.7-3.4c-2.4-2-2.8-2.8-1.9-3.9c0.9-1.1,0.6-1.9-1.6-4.1c-2.1-2.1-2.4-3-1.6-3.9c0.9-0.9,0.4-1.7-1.9-3.7
	c-2.8-2.4-2.9-2.7-1.5-3.9c1.4-1.1,1.1-1.5-2.8-4c-4-2.5-4.2-2.8-2.1-3.1c2.1-0.3,1.9-0.6-2.2-3.1c-4.4-2.8-4.5-2.8-2.7-4.8
	c1-1.1,1.3-1.7,0.7-1.4c-0.6,0.3-1.8,0-2.8-0.7c-1-0.7-2.7-1.4-3.8-1.4c-2.7,0-3.6-1.6-1.5-2.7c1.4-0.8,1.2-1.1-1.8-2.5
	c-1.9-0.9-3.6-2.4-3.9-3.4c-0.3-1-1.8-2.2-3.4-2.8c-1.6-0.6-2.9-1.6-2.9-2.2c0-0.7-0.6-1.5-1.4-1.8C29.5,1.7,29.6,0,31.7,0
	C34,0,44.8,7.5,49.4,12.3c7,7.3,9.7,10.6,9.7,11.8c0,0.6,0.8,1.7,1.7,2.4c2,1.5,8.6,12,8.6,13.8c0,0.7,0.8,2.3,1.9,3.6
	c1,1.3,1.9,3,1.9,3.8c0,1.9,4.5,11.4,5.4,11.4c0.4,0,1.4,1.6,2.2,3.6c2.1,4.8,12.7,16.2,14.5,15.5c1.2-0.4,1.1-0.7-0.2-1.7
	c-5-3.7,13.2-7.1,19.7-3.8c1.5,0.8,4,1.4,5.7,1.4c2,0,3.9,0.9,5.8,2.7c2.5,2.5,10.7,4.8,10.7,3.1c0-4.5-12.4-10.8-23.4-11.9
	c-7.3-0.8-9.3-1.4-7-2.2c4.4-1.6,15.3-2,18-0.6c1.5,0.8,4.2,1.7,6.1,2c3.6,0.7,11.2,7.5,15,13.5c1.4,2.3,2.1,2.7,3.4,2
	c0.9-0.5,2.6-0.6,3.7-0.3c2.3,0.6,2.4,0.6,1-3.2c-0.6-1.6-2.9-4.4-5.2-6.3c-2.3-1.9-4-3.7-3.7-4.1c0.2-0.4-1.2-1.3-3.3-1.9
	c-2-0.7-5.8-2.8-8.3-4.7c-2.5-1.9-7.4-4.7-10.8-6.2c-5.6-2.4-8.7-5-4.6-3.8c0.9,0.3,4.6,1.2,8.2,2.1c3.6,0.9,7.8,2.4,9.4,3.3
	c1.5,0.9,3.7,1.7,4.7,1.7c1.8,0,7.9,5,7.9,6.6c0,0.4,1.2,0.9,2.6,1.2c1.7,0.3,3.4,1.8,4.9,4.3c1.3,2.1,2.9,3.8,3.5,3.8
	c1.4,0,3,3.8,3,7.1c0,2.7,3.3,3.9,7.2,2.6c2.3-0.8,2.6-1.3,2.3-4.4c-0.2-1.9,0.2-4.1,0.8-4.8c0.8-1,0.5-2.4-1.4-6.1
	c-1.9-3.8-2.2-5.2-1.4-6.7c1.1-2.1-0.8-6.1-3.4-7.1c-2.5-1-2.5,0.5,0,2.8c4.2,3.9,2.7,4.7-1.8,1c-2.3-1.9-4-3.7-3.8-4
	c0.3-0.3-1.1-1.2-3-2.1c-1.9-0.9-4.8-2.8-6.4-4.3c-1.6-1.5-4.9-3.9-7.3-5.3c-4.3-2.5-5.7-4.5-3.1-4.5c3.2,0,20.7,9.5,21.5,11.8
	c0.3,0.8,1.3,1.4,2.2,1.4c2.2,0,5,2.5,7.6,6.7c1.2,1.9,2.7,3.6,3.4,3.9c0.7,0.3,1.8,3,2.4,6c0.6,3,1.5,6.2,2,7.1
	c0.5,0.9,0.9,2.8,0.9,4.3c0,2.4,0.4,2.8,3.4,3.3c7.6,1.2,8.3-1.6,6.5-26.3c-0.5-7-0.3-9.1,0.8-10.8c0.8-1.1,1.4-2.8,1.4-3.6
	c0-4.5,8.2-16.7,11.1-16.7c1.7,0,1.2,1.6-1.1,4.1c-3.8,4.1-7,24.4-4.8,30.7c1.1,3,1.1,4.1,0,6.6c-1.1,2.5-1.1,3.2,0,4.3
	c0.7,0.7,1.3,2.5,1.3,3.9c0,4.5,3.8,5,9.4,1.3c2.8-1.9,3.7-3.1,3.7-5c0-1.4,0.6-3.3,1.4-4.3c0.8-1,1.4-3.9,1.4-6.6
	c0-3.2,0.5-5.2,1.5-6c0.8-0.7,1.2-1.8,0.9-2.5c-0.3-0.7,0.1-2.5,0.8-3.8c2.8-5.5,4.3-9.3,5.7-14.2c1.4-5.2,6.5-12.2,8.8-12.2
	c1.5,0,1.5,0.3-0.7,4.2c-1.9,3.4-5.6,15.9-5.6,19c0,0.9-0.7,2.9-1.5,4.5c-0.8,1.5-1.6,4.8-1.8,7.2c-0.1,2.4-0.6,4.9-1,5.5
	c-0.4,0.6-0.8,3.4-0.9,6.1l-0.2,4.9l5.3,0.5c4.3,0.4,5.6,0.2,7.2-1.1c1-0.9,2.6-1.9,3.4-2.2c0.9-0.3,1.7-2.1,2-4.5
	c0.3-2.2,1.3-5.1,2.3-6.4c1-1.3,2.5-4.9,3.4-7.8c0.9-3,2.1-5.4,2.6-5.4c0.5,0,1.9-2.3,3.1-5c1.2-2.8,2.7-5.3,3.3-5.7
	c0.6-0.4,1-1.6,1-2.8c0-3.6,15.5-16.3,17.5-14.3c0.3,0.3-1,1.8-2.9,3.4c-3.8,3.3-9.9,13.9-12.3,21.4c-0.9,2.7-2.2,5.2-2.9,5.5
	c-0.7,0.3-1.3,1.3-1.3,2.4c0,1-0.8,3.4-1.8,5.3c-1.9,3.7-3.8,9.1-3.8,10.9c0,2.6,7.7,2.1,11.2-0.6c1.8-1.4,4.4-2.9,5.8-3.2
	c2.7-0.7,3-1.3,4-7.7c0.3-2.2,1-4,1.4-4c0.4,0,1.3-2.2,1.8-5c0.6-2.7,1.9-6.5,2.9-8.4c1-1.9,1.8-4,1.8-4.8c0-0.7,0.9-2,2-2.7
	c1.1-0.8,3-3,4.4-5c3.3-4.9,4.9-6.4,9.6-8.6c4.7-2.3,6.7-1.7,3.3,1c-2.9,2.3-9.8,12.5-9.8,14.6c0,0.8-1.5,3.1-3.2,5
	c-1.8,2-3.7,5.4-4.2,7.6c-0.6,2.2-1.4,4.7-1.8,5.5c-1,1.8-0.2,10.2,1,10.3c4.7,0.4,8.3,0,10.2-1.3c1.3-0.8,3.5-2,4.9-2.6
	c1.7-0.8,3.4-2.9,4.9-6.2c1.3-2.8,3.8-6.8,5.6-8.9s3.3-4.4,3.3-5c0-0.6,2-2.7,4.5-4.7c2.4-2,5.5-4.6,6.7-5.7
	c1.2-1.2,2.5-2.2,2.8-2.2c2.9-0.4,4.4-1.1,6.5-3.1c3.6-3.4,9.3-6,14.6-6.8c5.3-0.8,5.3,0.6,0.1,2.8c-1.8,0.7-5,3.2-7.2,5.5
	s-4.9,4.4-5.9,4.7c-1,0.3-3.5,2.1-5.5,3.9c-2,1.8-4.2,3.3-4.8,3.3s-2.3,1.9-3.6,4.3c-1.4,2.3-3.5,4.7-4.7,5.3
	c-1.6,0.7-2.5,2.2-3,4.9l-0.8,3.8l5,0.7c4.4,0.6,5.4,0.4,8.4-1.6c1.9-1.3,4.1-2.3,4.9-2.3c2.7,0,5.3-2.6,6.5-6.5
	c0.6-2.1,1.5-3.8,2-3.8c0.5,0,2.8-2,5.1-4.5c4.1-4.4,5.8-5.5,10.8-7.7c1.3-0.5,4.7-2.4,7.5-4.2c7.9-4.8,13-7.1,19.2-8.5
	c7.8-1.7,8.3-0.3,1.3,3.7c-8.2,4.7-14.9,9-18.4,11.7c-1.6,1.3-3.7,2.4-4.5,2.5c-0.8,0.1-1.8,0.6-2.1,1.1c-0.8,1.1-10.4,7.7-11.4,7.7
	c-0.4,0-1.2,1.2-1.7,2.7l-0.9,2.7l4.4,0.2c7.8,0.4,9,0.3,14.2-1.1c4-1.1,5.5-2,6.6-4.1c1.7-3.3,9.5-10.9,12.9-12.6
	c1.4-0.7,3.4-2,4.4-2.9c6.1-5.2,22.4-11.1,30.6-11.1c3.2,0,3.6,1.5,0.6,2.4c-4.2,1.3-17.6,8.1-17.6,8.9c0,1.1-7.7,5.6-9.6,5.6
	c-0.8,0-2.1,1-2.9,2.2c-0.8,1.2-2.8,2.8-4.5,3.7c-2,1-3.4,2.6-4.2,4.8l-1.2,3.4l3.2,0.6c2.2,0.4,4.6,0,7.8-1.4c2.5-1.1,5.7-2,7-2
	c1.5,0,2.8-0.8,3.6-2.2c1.8-3.3,15.7-15.6,17.6-15.6c0.9,0,2-0.4,2.3-0.9s3-1.6,5.9-2.5c2.9-0.8,7.6-2.5,10.3-3.8
	c5.5-2.5,18.8-4.3,17.7-2.4c-0.4,0.6-1.2,1.1-1.9,1.1c-1.7,0-12.4,5.4-18.3,9.2c-3,1.9-6.4,3.4-8.2,3.4c-2.3,0.1-4.2,1.2-7.3,4.1
	c-2.3,2.2-4.6,4-5.2,4c-0.6,0-1.6,1.4-2.3,3c-1.7,4,1.7,6.6,5.4,4.1c1.2-0.8,5.2-1.7,8.9-2.1c5.7-0.6,7-1,8.6-3.1
	c1-1.3,2.9-3.1,4-3.9c9.1-6.2,11.5-7.6,13.3-7.6c1.1,0,3.6-1.3,5.6-2.8c1.9-1.5,4.2-2.8,5-2.8c0.8,0,3-1.1,5-2.4
	c4.1-2.9,8.8-4.1,15.6-4.1c5.6,0,6.6,1.5,1.6,2.4c-1.8,0.3-5.8,2.3-8.9,4.3c-3.1,2-6.4,3.6-7.4,3.6c-1,0-2.4,1-3.2,2.2
	c-0.9,1.3-3.2,2.7-5.7,3.4c-2.4,0.7-4.3,1.5-4.3,1.9c0,0.4-2.4,2.2-5.4,4.1c-5.4,3.4-9.9,8.3-6.2,6.7c1-0.4,5.1-0.9,9.2-1.2
	c6.6-0.4,7.9-0.8,11.6-3.6c2.3-1.7,4.8-3.2,5.6-3.2s3.3-1.3,5.6-2.8s4.9-2.8,5.9-2.8c0.9,0,2.7-0.8,3.9-1.7c3.4-2.7,8-4.8,10.3-4.8
	c1.1,0,4.2-1,6.8-2.2c5.1-2.4,17.8-4.1,18.7-2.6c0.3,0.5-1.4,1.4-3.8,2c-2.4,0.6-6.8,2.3-9.8,3.9c-3,1.5-6.1,2.8-6.9,2.8
	c-0.8,0-1.4,0.4-1.4,0.9c0,0.9-20.2,11.3-22,11.3c-1,0-5.1,4.2-5.1,5.2c0,1.9,18.6-0.4,22.4-2.7c2.2-1.4,5-2.8,6-3
	c1.1-0.2,2.2-0.7,2.5-1.1c0.3-0.4,3.3-2,6.6-3.5c3.4-1.5,7.3-3.6,8.7-4.6c1.4-1,4.2-2,6.1-2.1c1.9-0.1,4.8-0.7,6.3-1.3
	c4.2-1.7,16.6-3.2,19.8-2.4l2.7,0.7l-3.5,0.8c-1.9,0.4-8.6,3.1-14.8,6c-6.2,2.8-11.8,5.2-12.4,5.2c-0.6,0-2.2,0.6-3.5,1.2
	c-1.3,0.7-4.6,2-7.3,2.9c-5.2,1.7-11.9,7.3-11.1,9.3c1.6,4.2,19.6-0.1,26-6.2c2.6-2.5,10.6-6.2,13.3-6.2c1.5,0,5.3-1.1,8.5-2.4
	c3.4-1.4,8.2-2.5,11.5-2.7c3.1-0.2,7.3-0.8,9.2-1.4c2.7-0.9,4.5-0.9,8.1,0c5.8,1.4,5.9,2.4,0.2,3.1c-2.4,0.3-6.4,1.4-8.7,2.5
	c-2.3,1.1-5.4,1.9-6.7,1.9c-1.4,0-2.8,0.4-3.1,0.9c-0.7,1.1-7.2,2.9-10.9,3c-1.5,0-2.7,0.4-2.7,0.7c0,1-6,3.6-9.7,4.3
	c-1.9,0.3-3.4,1-3.4,1.3c0,0.4-1.1,1.8-2.4,3.1c-4,4-2.4,5.1,6,4.7c4.5-0.3,8.1,0,9.3,0.7c1.6,0.9,2.7,0.7,5.5-0.8
	c5.4-2.8,21.4-9.5,22.8-9.5c0.7,0,3.8-1,6.9-2.2c14.5-5.7,19-6.5,26.5-4.6c7.1,1.9,7.4,2.6,0.9,3.3c-2.7,0.3-8.7,2-13.4,3.8
	c-4.6,1.8-10.9,4-13.9,4.9c-3,0.9-6.1,2.3-6.9,3.1c-0.8,0.8-4,2.3-7.1,3.4c-6.5,2.2-8.3,4.2-6.5,7.1c0.7,1.1,1,2.2,0.8,2.6
	c-1.1,1.8,15.9,0,20-2.1c2.3-1.2,4.8-1.9,5.4-1.7c0.7,0.2,2.6-0.7,4.4-2c1.8-1.3,4.6-2.7,6.3-3c1.7-0.3,3.9-1.1,5-1.7
	c6.3-3.7,19.1-4.8,31.2-2.6c11.2,2.1,6.7,3.9-9.7,3.9c-4.6,0-8,0.4-8.4,1c-0.7,1.2-8.4,4.6-10.4,4.6c-2.4,0-14.4,6-14.4,7.3
	c0,0.7-0.5,1.2-1.1,1.2c-0.8,0-0.8,0.3,0,1.3c1.9,2.3,14.6,2.8,18.6,0.6c1.9-1,3.7-1.6,4.1-1.4c0.4,0.2,2.7-0.5,5.2-1.5
	c19.3-8.4,34.8-10.2,44.6-5.3c2.9,1.4,1.8,2.5-2.1,1.9c-4.1-0.5-19.9,2.9-23,5c-1,0.7-3,1.3-4.3,1.3c-2.6,0-13.5,3.8-16.7,5.8
	c-2.5,1.6-0.8,3.6,3,3.6c2.8,0,7.6,1.3,11.5,3c1.3,0.6,3.3,0.4,6.1-0.6c2.3-0.8,4.9-1.5,5.8-1.5c0.9,0,3.9-1.1,6.8-2.4
	c3.2-1.5,6.7-2.3,9.2-2.2c2.2,0.1,5.2-0.3,6.6-0.9c6.5-2.6,32.1,1.6,33.3,5.4c0.3,1-0.2,1.1-2.7,0.5c-6.5-1.7-27.9,0-37.3,3
	c-2.3,0.7-5.1,1.3-6.2,1.3s-2.6,0.6-3.2,1.4c-0.6,0.8-2,1.4-3.1,1.4c-3.5,0-0.2,2,5.6,3.4c3,0.7,7.6,2.3,10.1,3.5
	c3.9,1.9,5.2,2.1,8.4,1.4c2.1-0.5,5-0.7,6.5-0.5c1.5,0.2,6.3,0.1,10.6-0.3c4.6-0.4,10-0.3,12.8,0.2c2.7,0.5,7.9,1.3,11.7,1.8
	c7.2,0.9,17,5,17,7c0,0.9-1.1,0.9-4.9-0.1c-4.2-1.1-26.9-1.2-35.4-0.3c-0.8,0.1-2.8-0.2-4.5-0.5c-4.9-1.1-3.7,1,2.2,3.7
	c2.9,1.4,7.1,4.1,9.4,6.1c3,2.6,5.1,3.7,7.2,3.7c1.6,0,4.5,0.6,6.4,1.2c1.9,0.7,6.3,1.3,9.8,1.4c3.6,0.1,6.9,0.5,7.4,0.9
	c0.5,0.4,3.2,0.8,6,0.9c4.9,0.2,8.8,0.9,16.5,2.8c2.1,0.5,9.8,1.2,17.3,1.5c12.6,0.5,17.2,1.5,15.3,3.4c-1.6,1.6-28.2,1.3-48.6-0.5
	c-14-1.3-19.1-1.2-19.7,0.3c-0.4,1.1-1.1,0.8-3.3-1.2c-1.7-1.6-3.3-2.4-4.2-2c-0.8,0.3-2.5,0.1-3.8-0.5c-2.9-1.3-4.2-0.3-4.4,3.5
	c-0.2,2.5,0.1,2.8,4.1,3.7c2.5,0.5,4.1,1.4,3.9,2c-0.4,1.3,2.8,2.2,5.9,1.7c2.3-0.4,3.1,0.9,1.3,2c-1.8,1.1-0.9,2.2,4.2,5.3
	c2.8,1.7,5.3,3.8,5.5,4.7c0.2,0.9,2.2,2.5,4.4,3.6c3.9,2,8.3,6.2,8.4,8c0,1,6.9,7,8,7c1.1,0,14.6,13.6,14.6,14.8
	c0,0.6,0.4,1.2,0.9,1.2c0.9,0,2.4,3.6,1.8,4.2C751.5,193.8,750.2,193.3,748.9,192.4L748.9,192.4z M744.1,184
	c-1.4-1.4-1.6-1.4-1.6-0.1c0,0.8,0.5,1.7,1.2,1.9C745.6,186.6,745.8,185.7,744.1,184L744.1,184z M738.7,179.5
	c-1.2-1.3-2.4-2.1-2.7-1.8c-0.3,0.3,0.5,1.4,1.7,2.3C740.8,182.6,741.4,182.3,738.7,179.5L738.7,179.5z M732.7,174.4
	c-1.8-2-3.3-2.4-3.3-1.1c0,0.4,0.9,1.3,2.1,1.8C734.5,176.5,734.6,176.5,732.7,174.4L732.7,174.4z M727.5,170.7
	c0-1.1-1.8-2.3-2.5-1.6c-0.7,0.7,0.5,2.5,1.6,2.5C727.1,171.6,727.5,171.2,727.5,170.7L727.5,170.7z M216.9,167.6
	c-1.5-1.2-3.6-3.2-4.8-4.5s-2.1-1.9-2.1-1.3c0,1.3,7.1,7.8,8.5,7.8C219.2,169.7,218.4,168.7,216.9,167.6z M723.6,165.4
	c-0.3-1.6-9.8-7.6-10.7-6.8c-0.9,0.9,0.8,3.2,5.1,6.5C722.3,168.5,724.2,168.6,723.6,165.4L723.6,165.4z M249.8,160.5
	c-0.5-0.4-2.1-2.1-3.5-3.8c-1.4-1.7-2.6-2.7-2.6-2.1c0,1.4,5.8,7.8,6.4,7.1C250.5,161.4,250.3,160.9,249.8,160.5L249.8,160.5z
	 M208.7,159c0.6-1.6-4.2-9.2-5.3-8.5c-0.4,0.3-0.2,1.8,0.5,3.5c0.7,1.7,1.5,3.7,1.8,4.7C206.3,160.6,208,160.8,208.7,159L208.7,159z
	 M677.3,156.8c-1.1-1.7-7.9-4.4-7.9-3.1c0,1.7,6.9,6.6,7.9,5.6C677.9,158.7,677.9,157.9,677.3,156.8L677.3,156.8z M710.6,158
	c0-0.2,0.2-1,0.5-1.8c0.6-1.5-10.5-7.9-11.6-6.7c-0.7,0.7,8.3,8.9,9.9,8.9C710.1,158.4,710.6,158.3,710.6,158L710.6,158z
	 M147.9,154.6c2.2-0.9,4-1.9,4-2.2c0-0.6-2.5,0.4-8.4,3.1C138.5,157.8,142.1,157.1,147.9,154.6L147.9,154.6z M279.8,152.3
	c-2.6-3.4-3.2-3.9-3.2-2.5c0,0.8,4.6,5.8,5.3,5.8C282.1,155.6,281.2,154.1,279.8,152.3L279.8,152.3z M623.9,151.9
	c-2.7-2.8-4.2-3.5-4.2-2c0,0.7,5.4,4.7,6.5,4.8C626.4,154.7,625.4,153.4,623.9,151.9L623.9,151.9z M646.9,152.8
	c0-1.1-0.9-2.3-2.1-2.8c-1.2-0.5-3.2-1.6-4.5-2.6l-2.3-1.7l1.7,2.8C643.1,154,646.9,156.3,646.9,152.8L646.9,152.8z M19.5,150.2
	c0.2-0.7-0.2-0.9-1.1-0.5c-0.8,0.3-1.5,1-1.5,1.5C16.9,152.3,19,151.6,19.5,150.2z M243.1,151.3c0.3-0.3-0.7-2.5-2.3-4.8
	c-3.7-5.3-5.8-4.2-3.2,1.6C239.2,151.6,241.5,152.9,243.1,151.3z M159.2,149.5c5.4-2.7,5.2-5-0.2-3.2c-3.6,1.2-4.7,2.3-3.8,3.8
	C155.9,151.2,155.8,151.2,159.2,149.5L159.2,149.5z M617.8,148.1c0-2.3-0.5-2.9-2.6-3.4c-1.4-0.3-3.6-1.3-4.9-2.1
	c-2.9-1.8-1.6,0.1,3.5,5.3C617.5,151.6,617.8,151.7,617.8,148.1L617.8,148.1z M697.4,147.1c-0.2-1.1-1.7-2.7-3.5-3.7
	c-1.8-0.9-3.6-2.1-4.2-2.7c-1.4-1.4-3.1-1.2-3.7,0.4c-0.4,0.9,0.5,1.9,2.6,2.9c1.7,0.8,3.9,2.3,4.8,3.3
	C695.6,149.7,697.7,149.6,697.4,147.1L697.4,147.1z M203.9,147.3c0.6-1-2.3-8.6-3.3-8.6c-0.7,0-0.3,5.3,0.6,8.2
	C201.6,148.3,203.1,148.5,203.9,147.3L203.9,147.3z M594.4,147.7c0-0.8-6.1-6.1-7-6.1c-0.5,0,0.5,1.5,2.3,3.2
	C592.7,147.7,594.4,148.8,594.4,147.7L594.4,147.7z M275.2,146.3c0.3-0.5-1.1-2.7-3.2-4.9c-3.3-3.5-3.8-3.7-3.8-2
	C268.1,143,273.8,148.6,275.2,146.3L275.2,146.3z M636.6,144.9c0-1.2-6.6-7.1-8-7.1c-0.8,0,1.9,4.4,4.5,7.2
	C635,147.2,636.6,147.1,636.6,144.9L636.6,144.9z M119.6,143.4c0.7-1.1-2.1-1.1-4.7,0c-1.6,0.7-1.4,0.8,1.1,0.9
	C117.6,144.3,119.2,143.9,119.6,143.4z M172.5,139.7c0.9-1.7,0.4-2.8-1.4-2.8c-1.5,0-5.4,5.5-4.7,6.6
	C167.1,144.6,171.3,142,172.5,139.7L172.5,139.7z M657.7,143.3c0.8-1.3-3.1-5.1-6.1-6c-2.2-0.7-2.2-0.5,0.8,3.2
	C655.6,144.5,656.7,145.1,657.7,143.3L657.7,143.3z M128.6,141.6c2.9-1.3,3.5-1.9,2-1.9c-2.8,0-6.9,1.6-6.9,2.8
	C123.8,143.7,123.9,143.7,128.6,141.6z M680.1,142.4c4-1.5,6.9-7.3,4.6-9c-1.4-1.1-1.4-1.2,0.5-1.2c6.3,0,1.1-4.2-10.6-8.4
	c-11.8-4.3-12.8-4.7-8.9-4.1c1.8,0.3,6.8,1.9,11.2,3.6c7.3,2.9,7.7,2.9,5.2,0.9c-1.5-1.2-5.1-3.2-7.9-4.3c-6-2.4-8.3-4.1-3.7-2.6
	c1.8,0.5,4.1,1.2,5.1,1.5c1,0.3,3.7,1.8,5.9,3.4c4.3,3,6.3,2.8,3.4-0.4c-1.9-2.1-10.7-6.8-16.6-8.8c-4.4-1.5-9.2,4.3-10.5,12.8
	c-0.3,1.7-0.7,4.8-1.1,6.9l-0.6,3.8l6.3,2.7C672.2,143.4,675.7,144,680.1,142.4L680.1,142.4z M677.7,139.6c-2.1-1.8-2.1-1.9-0.2-0.9
	c1.1,0.5,2.3,1.4,2.6,1.9C681.1,142.1,680.1,141.7,677.7,139.6L677.7,139.6z M678.8,135.5c-1.4-0.8-1.8-1.3-0.9-1.3
	c0.8,0,2.5,0.6,3.7,1.3c1.4,0.8,1.8,1.3,0.9,1.3C681.7,136.8,680.1,136.2,678.8,135.5z M677.4,129.9c-2.6-1.2-4.4-2.3-4.1-2.3
	c0.9-0.1,9.3,3.7,9.3,4.2C682.5,132.4,682.5,132.4,677.4,129.9L677.4,129.9z M235.6,141c0.3-0.3-0.9-2.4-2.8-4.7
	c-4.1-5.1-4.8-4.7-2,1C232.8,141.3,234.2,142.4,235.6,141L235.6,141z M585.7,140c0.3-0.9,0.1-1.7-0.5-1.9c-0.6-0.2-2.6-1.4-4.4-2.6
	c-5.3-3.6-5.9-2.4-1.3,2.8C582.7,141.9,584.7,142.4,585.7,140L585.7,140z M33.2,139.3c0.3-0.9,0.1-1.2-0.8-0.8
	c-0.7,0.3-1.4,0.9-1.4,1.4C31,141.1,32.6,140.7,33.2,139.3z M142.4,137.9c2.9-1.6,2.5-3.2-0.6-2.5c-3.1,0.8-6.8,3-6.8,4.2
	C135,140.6,139.2,139.6,142.4,137.9L142.4,137.9z M535.5,137.3c-2.7-1.8-5.2-3.2-5.4-2.9c-0.7,0.7,7.3,6.3,9,6.3
	C539.8,140.6,538.2,139.1,535.5,137.3L535.5,137.3z M607.9,139.8c0.5-0.8-6.8-7.2-7.5-6.5c-0.2,0.2,0.7,1.9,2,3.8
	C604.7,140.5,606.9,141.5,607.9,139.8z M301.1,133.9c-2.4-2.1-3.4-2.6-4.2-1.7c-0.8,0.8-0.3,1.8,2.1,3.9c2.4,2.1,3.4,2.6,4.2,1.7
	C304,137,303.5,136,301.1,133.9z M345.1,135.9c-3.2-2.8-5.4-3.7-4.2-1.8c0.6,1,6.1,4.6,7,4.6C348.1,138.7,346.9,137.4,345.1,135.9z
	 M406.4,133.5c-4-2.9-7.4-5-7.6-4.8c-0.6,0.6,7,6.6,10.5,8.4C414.5,139.8,413.7,138.8,406.4,133.5L406.4,133.5z M262.7,130
	c-2.1-2.1-4.1-3.6-4.4-3.2c-0.8,0.8,3.8,7.9,5.9,9.1C267.5,137.7,266.5,133.9,262.7,130z M627.7,135.9c0.7-1.2-4.5-6.6-6.5-6.6
	c-2.2,0-1.8,1.9,1,4.9C624.9,137,626.7,137.5,627.7,135.9L627.7,135.9z M200,132.9c0.5-3.4-1-7.5-2.5-7c-1.3,0.4-1.3,8.4-0.1,9.3
	C199,136.4,199.5,136,200,132.9L200,132.9z M751,135c-1.7-1.1-5-1.3-4.3-0.2c0.2,0.4,1.6,0.8,3.1,0.9
	C751.8,135.9,752.1,135.7,751,135z M759.1,134.7c0.4-0.4-0.7-0.6-2.4-0.6c-1.7,0-2.8,0.4-2.5,0.8
	C754.7,135.7,758.1,135.7,759.1,134.7z M42.2,131.9c0.8-0.3,0.4-0.5-0.9-0.4c-1.5,0.1-2.4,0.9-2.6,2.1c-0.3,1.7-0.1,1.7,0.9,0.4
	C40.3,133.2,41.5,132.2,42.2,131.9z M150.6,132.4c3.4-4.6,3.4-4.9,1-4.9c-2.6,0-5.8,4-5,6.2C147.4,135.6,148.5,135.3,150.6,132.4
	L150.6,132.4z M175.3,133.2c1.7-3.1,1.2-6.6-0.9-6.6c-1.3,0-2,0.9-2.4,3.2C171.1,134.7,173.3,136.9,175.3,133.2L175.3,133.2z
	 M648.3,134.1c2.7,0,2.9-0.3,5.9-10l3.1-10l-2.2-1.7c-1.2-0.9-4.8-2.6-8-3.8c-3.2-1.1-5.6-2.3-5.4-2.5c0.5-0.5,13.4,4.3,15.1,5.7
	c0.7,0.5,1.3,0.5,1.7-0.1c0.7-1.1-8.8-5.7-16.6-7.9c-6-1.7-8.6-1-9.6,2.7c-0.3,1.1-1.4,3-2.4,4.2s-1.9,2.9-1.9,3.7
	c0,0.8-0.6,2.6-1.3,4c-2.7,5.1-2.3,10.4,0.9,11.9c4.5,2.2,13.9,4.7,15.9,4.2C644.7,134.3,646.8,134.1,648.3,134.1L648.3,134.1z
	 M636.6,110.2c-4.4-1.7-2.5-1.7,2.8,0c2.3,0.7,3.4,1.3,2.3,1.3C640.7,111.4,638.4,110.8,636.6,110.2L636.6,110.2z M655.3,129.9
	c0-3.3-1.6-2.1-1.9,1.4c-0.3,3.6,0,4.3,1,2.8C654.9,133.3,655.3,131.4,655.3,129.9z M733.6,134.4c3.6-1.4,1.3-3-5.2-3.6
	c-9.6-0.9-10.5,0.6-1.6,2.7c2.7,0.7,5.1,1.3,5.2,1.3S732.7,134.7,733.6,134.4L733.6,134.4z M125.2,132.1c0.5-0.5-0.1-0.8-1.6-0.8
	c-3,0-5.4,0.9-5.4,2C118.2,134.2,123.9,133.2,125.2,132.1L125.2,132.1z M337.9,130.5c-1.5-2.4-8.5-6.5-9.4-5.6
	c-0.8,0.8,2.6,4.8,5.8,7C337.4,134.1,339.6,133.2,337.9,130.5L337.9,130.5z M112.8,132.5c-1.2-0.2-3.1-0.2-4.2,0
	c-1.2,0.2-0.2,0.4,2.1,0.4S114,132.7,112.8,132.5z M378.3,132c-1-0.6-2.8-1.9-4-2.9c-1.8-1.6-2.1-1.7-2.1-0.4c0,1.6,4.1,4.3,6.6,4.3
	C379.8,133.1,379.6,132.7,378.3,132L378.3,132z M574.7,130.9c0-0.6-1.7-2.8-3.7-4.8c-4.7-4.6-5.4-1.9-0.9,3.5
	C572.9,133,574.7,133.5,574.7,130.9L574.7,130.9z M718.2,131.2c0-1.4-2.1-2.1-7.6-2.4c-6-0.4-7.3,0.8-2.4,2.4
	C713.9,133,718.2,133,718.2,131.2L718.2,131.2z M523.5,126.4c-2.3-2.3-4.3-3.6-5-3.2c-0.7,0.5,0.2,2,2.9,4.8c2.6,2.7,4.4,3.8,5,3.2
	C527,130.6,526,128.9,523.5,126.4L523.5,126.4z M553.2,130.9c0-1.8-6.5-6.6-7.6-5.6c-1,1,4.3,6.9,6.2,6.9
	C552.6,132.2,553.2,131.6,553.2,130.9L553.2,130.9z M293.6,127.7c-1-1.8-5.8-5.8-7-5.8c-1.9,0,0,4.1,2.9,6.5
	C293.2,131.4,295.4,131,293.6,127.7L293.6,127.7z M596.2,125.9c-2.9-3-6.4-4.2-6.4-2.2c0,2.3,6.6,7.7,8.1,6.5
	C599,129.2,598.8,128.7,596.2,125.9z M133.3,126.3c0.9-1.6,0.7-1.6-1.9,0.3c-1.6,1.2-2.6,2.5-2.3,2.9
	C129.7,130.6,132,128.8,133.3,126.3L133.3,126.3z M227.4,129.4c0.7-1.1-1.6-5.8-3.6-7.4c-2.3-1.9-2.9,0.6-1,4.6
	C224.4,130.2,226.2,131.3,227.4,129.4L227.4,129.4z M480.3,126.5c-4.4-4.1-4.9-4.3-4.9-2.4c0,0.7,1.8,2.4,4,3.7
	C484.8,131,484.9,130.9,480.3,126.5L480.3,126.5z M701.3,129c0-1.6-1.5-2.2-7.5-3c-7-0.9-5.5,1.9,1.7,3.2c2.9,0.5,5.4,1,5.6,1
	C701.2,130.3,701.3,129.7,701.3,129L701.3,129z M47.7,127.4c1.1-1.8,1.1-1.9-0.7-0.9c-1.1,0.6-1.9,1.4-1.9,1.9
	C45.1,130,46.4,129.5,47.7,127.4L47.7,127.4z M457.6,127.4c-3.3-2.6-5.6-3.9-5.6-3c0,0.9,5.7,5,7,4.9
	C459.5,129.3,458.9,128.5,457.6,127.4z M369.4,126.5c0-2.6-8.1-6.7-9.4-4.7c-1,1.6,0.2,3.2,3.6,5.1
	C367.4,128.9,369.4,128.7,369.4,126.5L369.4,126.5z M432.3,128c0-0.2-1.4-1.1-3-2c-1.7-0.8-4-2.4-5.2-3.5c-1.6-1.5-2.1-1.6-2.1-0.6
	c0,0.8,2.2,2.5,4.9,3.9C432.5,128.7,432.3,128.6,432.3,128z M397.6,125.7c0-1.3-8.3-6.7-8.9-5.8c-1,1.5,1.1,4.4,4.4,5.9
	C396,127.3,397.6,127.3,397.6,125.7L397.6,125.7z M501.6,125.2c0-1.4-8.4-8.4-9.1-7.6c-1.1,1.1,1.2,4.6,4.3,6.7
	C500.7,126.9,501.6,127.1,501.6,125.2L501.6,125.2z M621.7,125.2c0.1-0.8,0.2-1.7,0.3-2.1c0.1-0.4,0.5-2.8,0.9-5.4
	c0.4-2.6,1.6-6.2,2.5-8.2c3.1-6,1.6-7.3-12.2-11c-2.2-0.6-3.9-1.2-3.7-1.4c0.5-0.5,10.3,1.9,14.3,3.6c2,0.8,4.1,1.5,4.7,1.5
	c1.4,0-3.1-3.5-5.5-4.3c-1-0.3-3.7-1.4-5.9-2.4c-9-4-11.4-3-14.3,6.2c-0.7,2.1-1.5,4.2-1.9,4.7c-0.4,0.5-1,1.8-1.2,2.8
	c-0.3,1-0.4,0.5-0.3-1.2c0.3-3.5-0.8-4.1-1.6-0.9c-0.9,3.5-0.6,9.1,0.3,6.8c0.6-1.5,0.8-1.1,0.9,1.9c0,2.1,0.4,4.2,0.8,4.8
	C602.4,124.5,621.5,128.4,621.7,125.2L621.7,125.2z M614.1,121.2c-1.3-0.2-2.8-0.8-3.3-1.3c-0.9-0.9,3.2-0.3,7.9,1.1l2.3,0.7l-2.3,0
	C617.5,121.6,615.4,121.4,614.1,121.2L614.1,121.2z M619.8,104.1c-1.9-0.6-2-0.8-0.5-0.8c1,0,2.5,0.3,3.3,0.8
	C624.2,105.1,623.1,105.1,619.8,104.1L619.8,104.1z M257.9,123c0-1.3-3.8-4.8-5.2-4.8c-1.7,0-1.7,1.3,0.1,4.7
	C254.1,125.5,257.9,125.6,257.9,123L257.9,123z M327.2,123c0-1.7-3-4.9-6.3-6.6c-5.6-2.9-5.4,0.4,0.3,5.4
	C325.6,125.6,327.3,125.9,327.2,123z M541,119.8c-4.6-4.1-6.2-3.3-2.4,1.2c1.3,1.6,2.4,3.3,2.4,3.8c0,0.5,0.9,0.4,2.1-0.2
	C545.1,123.5,545.1,123.4,541,119.8L541,119.8z M54.3,122.7c1.1-1.7,1-1.9-0.5-1.6c-0.9,0.2-1.8,1.1-2,2
	C51.4,125.3,52.8,125.1,54.3,122.7L54.3,122.7z M160.8,122.7c0.5-0.4,0.3-2.5-0.3-5c-0.7-2.3-1.3-7.8-1.4-12.2
	c-0.2-9.2-0.1-9.1-5.2-9.1c-2.1,0-3.6-0.3-3.3-0.6c0.3-0.3,2.7-0.6,5.4-0.6c3.2,0,4.9-0.4,5.2-1.3c0.3-1-0.6-1.2-4.8-0.9
	c-2.9,0.2-5.3,0.1-5.3-0.3c0-0.4,2.5-0.8,5.6-0.8c4.4,0,5.6-0.3,5.6-1.4c0-1-1-1.4-3.7-1.4c-2.1,0-3.7-0.4-3.7-0.8s1.8-0.6,4-0.4
	c2.9,0.4,3.7,0.2,3-0.5c-3.8-4.1-11.7-1.3-11.7,4c0,0.5-1.5,3.1-3.3,5.6c-3.8,5.3-3.9,6-1.5,13.1c1.4,4.1,1.6,6.2,0.9,9.1
	c-0.5,2.1-0.6,4.1-0.3,4.6C146.5,124.7,159.6,123.8,160.8,122.7L160.8,122.7z M153.1,118.4c0.9-0.2,2.2-0.2,2.8,0
	c0.6,0.3-0.1,0.5-1.7,0.4S152.2,118.6,153.1,118.4L153.1,118.4z M154.1,115.6c0.9-0.2,2.4-0.2,3.3,0c0.9,0.2,0.2,0.4-1.6,0.4
	C153.9,116,153.2,115.8,154.1,115.6L154.1,115.6z M148.7,100.3c0.3-0.5,1.8-0.9,3.3-0.9c1.5,0,2.8,0.4,2.8,0.9
	c0,0.5-1.5,0.9-3.3,0.9C149.4,101.2,148.3,100.9,148.7,100.3z M179.7,122.5l2.9-0.9l-0.8-4.8c-0.4-2.6-0.9-8.3-1-12.5
	c-0.2-8.2-0.4-8.5-6.1-7.8c-0.6,0.1-1.2-0.3-1.2-0.9c0-0.7,1.3-1,3.6-0.7c3.4,0.3,3.6,0.2,5.6-4.1c2-4.4,2-4.5,0.1-4.5
	c-1,0-1.6,0.4-1.3,0.9c0.4,0.6-0.7,0.8-2.8,0.7c-1.8-0.1-3.3-0.5-3.3-0.9c0-0.4-1.2,0-2.6,0.7s-3.1,1.3-3.6,1.4
	c-4.5,0-8.1,19.4-5.7,31.2l0.7,3.6l6.3-0.2C173.9,123.5,178.1,123,179.7,122.5L179.7,122.5z M168.1,117.5c0.9-0.2,2.4-0.2,3.3,0
	c0.9,0.2,0.2,0.4-1.6,0.4C168,117.9,167.2,117.7,168.1,117.5L168.1,117.5z M170.1,99.6c0.2-0.4,1.9-0.8,3.6-0.9
	c2.8-0.1,2.9-0.1,0.8,0.6C171.3,100.4,169.6,100.5,170.1,99.6L170.1,99.6z M167.9,96.7c0-1,3.9-2.3,4.6-1.5c0.6,0.6,0,1-2.5,1.8
	C168.8,97.3,167.9,97.2,167.9,96.7L167.9,96.7z M167.9,92.9c0-1.9,8.4-3.3,11.7-1.9c1.3,0.6,0.5,0.8-3.1,0.8c-2.7,0-5.8,0.5-6.8,1
	C168.6,93.5,167.9,93.5,167.9,92.9L167.9,92.9z M450.8,121.6c0.3-1.7-7.8-7.7-9.2-6.8c-1.9,1.2-0.8,3.2,3.1,6
	C448.9,123.8,450.4,124,450.8,121.6L450.8,121.6z M139.1,122.2c5.3-0.9,6.1-6,2.4-15c-1-2.4-1-3.6,0.2-7.3c1.6-4.9,1.5-5.1-4.7-6.2
	l-4.4-0.7l4-0.1c2.2-0.1,4.8,0.3,5.8,0.8c1.2,0.7,2,0.6,2.4-0.1c0.9-1.4-1-2.5-7.1-3.8c-2.8-0.6-4.4-1.3-3.5-1.5
	c0.9-0.2,4,0.4,6.8,1.2c4.8,1.5,10.3,0.6,5.9-1c-15.6-5.7-22.3-4.4-19.6,3.9c1.1,3.4,0.8,8.4-0.8,12.5c-0.5,1.3-0.9,2.6-0.8,2.9
	c0.1,0.3-0.4,1.2-1,2C117,119.5,123.1,124.8,139.1,122.2L139.1,122.2z M132.3,115.5c0-0.4,1.3-0.6,2.8-0.4c1.5,0.2,2.8,0.6,2.8,0.8
	c0,0.2-1.3,0.4-2.8,0.4S132.3,115.9,132.3,115.5z M135.5,95.6c-0.3-0.5,0.3-0.9,1.3-0.9c1,0,2.1,0.4,2.5,0.9
	c0.3,0.5-0.3,0.9-1.3,0.9C137,96.6,135.9,96.1,135.5,95.6z M201.7,121.3c5.8-1.9,5.7-1.7,3.5-7.9c-1-2.8-2.3-8.6-2.8-12.9l-1-7.7
	l-4.3,0.5c-2.4,0.3-5.5,0.9-7,1.3c-2,0.6-2.5,0.5-2.3-0.3c0.4-1.3,4.2-2.3,9.8-2.4c3.1-0.1,4-0.5,4-1.8c0-0.9,0.3-2.5,0.5-3.6
	c0.6-2.1-4.3-2-9.4,0.1c-1.3,0.5-1.6,0.4-1.1-0.3c0.4-0.7,0.2-0.9-0.6-0.6c-0.7,0.3-1.8,1.4-2.5,2.6c-1.2,1.8-1.1,2,0.1,0.9
	c0.8-0.6,3.9-1.4,6.9-1.6l5.5-0.4l-4.2,1c-2.3,0.5-5.1,1.3-6.1,1.7c-1,0.4-2.2,0.7-2.7,0.6c-3.2-0.4-4.6,15.5-2.1,24
	c0.8,2.9,1.5,5.6,1.4,6c-0.1,0.4-0.1,1.1,0,1.4C187.7,123.4,197,122.8,201.7,121.3L201.7,121.3z M191.4,115c0.2-0.2,3.3-0.6,7-0.9
	c5-0.4,5.7-0.3,2.8,0.3C197.4,115.2,190.7,115.6,191.4,115z M191.4,97.2c1.1-1,7.4-1.5,7.4-0.6c0,0.5-1.8,1-3.9,1
	C192.8,97.5,191.2,97.3,191.4,97.2L191.4,97.2z M111.8,120.7c-0.9-0.9-1.4-0.9-2.2,0c-0.9,0.9-0.6,1.1,1.1,1.1
	S112.7,121.6,111.8,120.7z M517,121.2c0.4-0.4-0.5-1.7-2-3c-1.4-1.3-3.3-3.4-4.1-4.7c-0.9-1.4-1.9-2-2.6-1.6
	c-0.9,0.5-0.8,1.3,0.4,3.2C512.3,120.8,515.2,122.9,517,121.2z M566.6,118.7c-1.6-2.9-3.7-4.3-6.2-4.3c-2.7,0-2.7,0.1-1.3,1.7
	c0.9,0.9,1.6,2.1,1.6,2.6c0,0.5,0.5,1.4,1.1,2C563.1,122,567.5,120.2,566.6,118.7L566.6,118.7z M102.7,120c-1-0.4-3.1-0.8-4.7-0.8
	c-2.4,0-2.5,0.1-0.9,0.8c1,0.4,3.1,0.8,4.7,0.8C104.2,120.8,104.3,120.7,102.7,120z M184.4,114.3c-0.8-2.8-1.4-4.1-1.4-2.9
	c-0.1,2.6,2.1,10.2,2.5,8.8C185.6,119.8,185.1,117.1,184.4,114.3z M285.8,119.4c0.7-2.1-4.7-6.9-7-6.3l-2.1,0.6l2.6,3.6
	C281.7,120.9,284.9,121.9,285.8,119.4L285.8,119.4z M358.2,119.6c0-1.5-7.2-7.1-9.1-7.1c-2.6,0-0.9,2.9,3.5,6.1
	C356.3,121.2,358.2,121.5,358.2,119.6L358.2,119.6z M420.6,119.8c0.4-0.6-0.3-1.8-1.6-2.9c-1.2-1-3-2.4-3.9-3.1
	c-4.2-3.5-5.5,0.6-1.4,4.3C416.9,121.1,419.5,121.7,420.6,119.8L420.6,119.8z M473.9,120.1c1.2-1.9-5.9-7.2-7.5-5.6
	c-1.4,1.4-1.3,1.7,1.1,3.9C470,120.9,472.9,121.7,473.9,120.1z M386.6,118.6c0.6-1.5-8.3-9.9-10.4-9.9c-1.9,0-1.5,0.8,3.6,6.1
	C385,120.3,385.8,120.8,386.6,118.6L386.6,118.6z M593.2,119.3c0.6-0.4,1.5-3.5,2-6.9c0.5-3.4,2.2-8.7,3.8-11.9l2.9-5.7l-4.4-2.1
	c-2.4-1.2-7-2.9-10-3.8c-3.1-0.9-4.7-1.7-3.6-1.7c2.6-0.1,11.2,2.6,15,4.8c2.5,1.4,3.2,1.4,4,0.4c1.2-1.5,0.7-1.9-6.1-4.9
	c-2.6-1.1-4-2.1-3.2-2.1c0.8,0,3.5,0.8,5.9,1.9c4.2,1.8,6.6,1.8,4.7,0c-3-2.8-10.9-5.8-14.6-5.5l-4.1,0.3l3.3,1.5l3.3,1.5l-4.7-0.5
	c-5.9-0.6-6.7,0.1-10.7,9.6c-7.4,17.8-5.7,22.5,8.9,24.8C592.1,120,592,120,593.2,119.3L593.2,119.3z M585.3,111.5
	c-3-1.2-2.6-1.9,0.5-0.9c5.3,1.7,5.4,1.8,3.5,1.8C588.3,112.4,586.5,112,585.3,111.5L585.3,111.5z M577.6,109.7
	c-1.9-0.6-2-0.8-0.5-0.8c1,0,2.7,0.3,3.7,0.8C583.2,110.7,580.8,110.7,577.6,109.7L577.6,109.7z M589.3,109.2
	c-0.5-0.2-2.8-0.8-5-1.4c-2.2-0.6-3.9-1.2-3.6-1.5c0.6-0.6,9.3,1.6,10.5,2.6C592,109.7,591.1,109.8,589.3,109.2L589.3,109.2z
	 M586.9,92.8c-3.2-0.7-3.2-0.7-0.5-0.8c1.5-0.1,3.4,0.3,4.2,0.8C592.3,93.8,591.7,93.8,586.9,92.8L586.9,92.8z M231.9,117
	c3.1-1.2,3.1-1,0.3-5.8c-1.3-2.2-2.5-5.4-2.7-7.2s-0.9-6-1.5-9.4c-0.6-3.4-0.8-7.8-0.5-9.9l0.6-3.9l-5,0.4
	c-16,1.3-18.6,4.3-16.7,18.6c1.5,11,3.9,17.6,6.7,18.4C216.1,119.1,228.7,118.3,231.9,117L231.9,117z M215,113.7
	c0.9-0.2,2.2-0.2,2.8,0c0.6,0.3-0.1,0.5-1.7,0.4C214.6,114.2,214.1,114,215,113.7L215,113.7z M220.6,112.8c0.9-0.2,2.2-0.2,2.8,0
	c0.6,0.3-0.1,0.5-1.7,0.4S219.7,113,220.6,112.8L220.6,112.8z M208.2,88.3c0-1.2,5-2.6,12.6-3.4c7.7-0.8,5.7,0.6-2.6,1.9
	c-3.7,0.6-7.5,1.4-8.4,1.7C208.9,89,208.2,88.9,208.2,88.3L208.2,88.3z M116.7,117.6c0.8-0.3,1.5-0.9,1.5-1.3c0-0.4,1.5-3.2,3.3-6.2
	c3.7-6.1,3.7-7.1,0.4-8c-2-0.6-2-0.6,0.8-0.7c3.7-0.1,4.4-2.9,0.7-2.9c-1.3,0-2.3-0.5-2.3-1c0-0.6,0.9-0.8,2.3-0.5
	c1.7,0.4,2.3,0.2,2.3-0.8c0-0.8-0.7-1.4-1.6-1.4c-0.9,0-2.3-0.5-3-1c-1.1-0.8-0.6-0.9,1.9-0.5c3.1,0.5,3.2,0.4,1.5-0.9
	c-1-0.8-2.6-1.4-3.5-1.4s-1.9-0.3-2.1-0.8c-0.3-0.4,0.9-0.6,2.5-0.3c4.8,0.7,2.1-1-3.8-2.3l-5.4-1.2l6.1,0.4
	c4.7,0.3,5.7,0.2,4.4-0.6c-1.1-0.6-5.5-0.9-11.5-0.7c-6.1,0.2-9.4,0-8.8-0.5c1.1-1.1,16.4-1.3,19.9-0.3c3.6,1,3.3-0.8-0.4-2
	c-4.6-1.6-15.5-1.2-23.3,0.9c-6.7,1.8-10.5,3.7-7.5,3.7c0.9,0,0.5,0.7-1,1.9L87.7,91l2.8-0.5l2.8-0.5l-2.1,1.6
	c-2.6,1.9-2.8,5.1-0.2,5.7c1,0.3,1.9,0.9,1.9,1.3c0,0.5,0.8,0.8,1.9,0.8s1.9,0.4,1.9,0.9c0,0.5-0.6,0.9-1.4,0.9
	c-5.7,0,1.4,8.5,11.2,13.5C113.2,118.2,114.2,118.5,116.7,117.6L116.7,117.6z M114.9,112.5c-1.9-0.8-1.9-0.8,0-0.9
	c1,0,2.5,0.4,3.3,0.9C120.1,113.7,117.7,113.7,114.9,112.5z M104.4,106.1c-2.1-0.9-4.3-1.9-4.7-2.4c-1-1,7.3,2.2,8.5,3.3
	C109.5,108.1,109,108,104.4,106.1L104.4,106.1z M96.4,93.1c-2.3-0.6-1.1-2.2,1.7-2.2c2.7,0,3.9,1.5,1.8,2.2
	c-0.8,0.3-1.5,0.5-1.6,0.5C98.1,93.6,97.3,93.3,96.4,93.1L96.4,93.1z M92.9,88.1c0-0.5,1.5-0.9,3.3-0.9c1.8,0,3.3,0.4,3.3,0.9
	s-1.5,0.9-3.3,0.9C94.4,89.1,92.9,88.6,92.9,88.1z M490.4,115.8c0-1.9-6.8-8-9-8c-1.5,0,0.1,2.8,3.5,6.3
	C489.5,118.7,490.4,119,490.4,115.8L490.4,115.8z M255.5,115c7.3-1,6.1-7.4-1.3-6.7c-3.8,0.4-3.9,0.3-1.2-0.4
	c4.2-1.1,4.4-1.4,2.8-5.4c-2.1-5.4-3.8-16.9-3.2-21.6l0.6-4.2l-5.6,0.5c-17.4,1.6-20.1,7.2-13,26.9c3.8,10.6,7.1,12.9,16.7,11.5
	C252.6,115.4,254.5,115.2,255.5,115L255.5,115z M243.6,109c1.2-0.2,3.1-0.2,4.2,0c1.2,0.2,0.2,0.4-2.1,0.4S242.4,109.2,243.6,109
	L243.6,109z M245.8,105.6c0.2-0.2,2.1-0.6,4.1-0.9c2.6-0.4,3.3-0.3,2.3,0.3C251,105.8,244.9,106.4,245.8,105.6L245.8,105.6z
	 M238.4,86.7c0.3-0.3,2.1-0.7,4.1-0.9c2.6-0.3,3.2-0.2,2.2,0.5C243.3,87.2,237.5,87.6,238.4,86.7L238.4,86.7z M236.4,83.1
	c1-1.1,3.5-1.7,8-2l6.5-0.4l-6.1,1.2c-3.4,0.7-6.9,1.6-8,2C235.1,84.6,235,84.5,236.4,83.1L236.4,83.1z M438.8,113
	c0-1.7-7.2-7.4-8.4-6.6c-1.5,1,0.3,4.1,3.7,6.5C437.5,115.2,438.8,115.2,438.8,113L438.8,113z M235.4,110.9c-1-1.6-1-1.6-0.5,0
	c0.3,0.9,0.6,2.2,0.6,2.8c0.1,0.8,0.2,0.8,0.5,0C236.3,113.1,236,111.8,235.4,110.9z M315.7,112.9c0.4-1-0.6-2.4-2.6-4.2
	c-5.5-4.7-8.2-3-3.6,2.3C312.7,114.6,314.8,115.3,315.7,112.9L315.7,112.9z M464.1,112.2c0-3.3-7.1-8.8-8.3-6.5
	c-1.2,2.2,0.2,4.5,3.9,6.8C463.6,114.9,464.1,114.8,464.1,112.2L464.1,112.2z M536.3,113.5c1.8-1.2-1.1-4.2-4.9-5.1
	c-3.1-0.7-3.2-0.3-0.6,3.3C532.8,114.5,534,114.9,536.3,113.5L536.3,113.5z M409.4,111.1c0.2-1.1-3.1-4.2-6.8-6.4
	c-3-1.8-1.8,1.7,1.7,5C408.2,113.4,409,113.6,409.4,111.1z M70.4,109c0-0.2-0.3-0.1-0.7,0.1c-0.4,0.2-1.5,0.7-2.4,1
	c-0.9,0.3-1.4,1-1.1,1.5C66.6,112.3,70.4,110,70.4,109L70.4,109z M568.8,105.4c0.6-3.6,2.4-9.4,4-12.9c1.6-3.5,2.9-6.6,2.9-6.7
	c0-0.6-13.4-5.1-21.3-7c-2.9-0.7-3-0.6-5.1,4.1c-3.6,8.2-7.3,22-6.1,23c2.4,1.8,21.1,6.8,23.5,6.3C567.3,112,568.2,109,568.8,105.4
	L568.8,105.4z M554.6,103.6c-6.3-1.6-2.4-1.7,4.7-0.1c3.5,0.8,4.6,1.3,2.8,1.3C560.5,104.8,557.2,104.3,554.6,103.6z M554.6,100.5
	c-3.1-0.8-5.2-1.6-4.7-1.8c0.5-0.2,4.1,0.5,8,1.5c3.8,1,5.9,1.8,4.7,1.8C561.3,102,557.7,101.3,554.6,100.5z M562.6,84.3
	c-1-0.7-0.6-0.8,1.4-0.3c3.4,0.8,4.2,1.3,1.8,1.3C564.8,85.3,563.3,84.9,562.6,84.3L562.6,84.3z M556.3,82.8c0.9-0.2,2.2-0.2,2.8,0
	c0.6,0.3-0.1,0.5-1.7,0.4C555.9,83.2,555.3,83,556.3,82.8z M283.5,108.3c3-1.3,5.2-2.8,4.9-3.3c-2.6-4.3-6.1-17.2-6.1-22.8
	c0-7.5-0.7-7.6-21.1-3.9c-2.2,0.4-2.5,0.3-1.2-0.5c1.5-1,19.7-3.9,21.7-3.5c0.5,0.1,1.1-0.6,1.4-1.6c0.8-3.5-21.4-0.5-24.3,3.4
	c-3.4,4.4-1.9,18.6,2.9,29.1l2.9,6.3l6.8-0.4C275.8,110.8,279.9,109.9,283.5,108.3L283.5,108.3z M269.4,99.7c0.9-0.2,2.2-0.2,2.8,0
	c0.6,0.3-0.1,0.5-1.7,0.4S268.5,99.9,269.4,99.7L269.4,99.7z M277.1,98.4c1.5-0.4,3.9-0.7,5.2-0.7l2.3,0l-2.3,0.8
	c-1.3,0.4-3.6,0.7-5.2,0.7l-2.8,0L277.1,98.4L277.1,98.4z M265.4,80.6c0-0.7,5.6-1.8,9.3-1.8c1.4,0,1.9,0.3,1.4,0.8
	C275,80.6,265.4,81.5,265.4,80.6L265.4,80.6z M346.9,109.3c0-2.4-5.9-7.1-8.9-7.1l-2.8,0l4.4,4.2
	C344.1,110.7,346.9,111.8,346.9,109.3L346.9,109.3z M507.2,109c0-1.1-2.8-4.9-3.6-4.9c-4.1,0.1-2.8,5.6,1.3,5.6
	C506.2,109.7,507.2,109.4,507.2,109L507.2,109z M659.1,108.2c-2.1-2.6-11.7-6.8-16.8-7.5c-5.7-0.8-6,0.9-0.2,1.8
	c1.9,0.3,6.5,2,10.1,3.8C659.5,110,660.8,110.3,659.1,108.2L659.1,108.2z M571.8,104.8c0.5-2.2,1.2-5,1.6-6.3c1-3.5-0.7-1.4-2.1,2.6
	c-1.2,3.4-1.7,7.7-0.9,7.7C570.7,108.7,571.3,107,571.8,104.8L571.8,104.8z M671.1,107.1c-0.4-2.1-8.3-3-8.3-0.9c0,2,1,2.6,4.9,2.6
	C670.8,108.7,671.4,108.4,671.1,107.1L671.1,107.1z M683.7,107.2c3.2-2.9,2.2-4.3-2.7-3.6c-6.4,0.9-7.7,1.4-7.7,2.8
	C673.2,108.8,681.2,109.4,683.7,107.2L683.7,107.2z M698.2,107.2c0.5-1.5-4.9-3.4-7.4-2.6c-4.1,1.3-3.8,2.7,0.9,3.3
	C697,108.5,697.8,108.5,698.2,107.2L698.2,107.2z M374.9,106.6c1.5-1.8-5.8-9.3-8.2-8.4c-1.7,0.6-1.6,1,2,5.1
	C372.7,108.1,373.3,108.5,374.9,106.6z M76.5,105.9c0.3-0.5-0.1-0.9-0.9-0.9c-0.8,0-1.5,0.4-1.5,0.9c0,0.5,0.4,0.9,0.9,0.9
	C75.5,106.9,76.1,106.5,76.5,105.9z M704.4,106.3c-0.6-0.3-1.9-0.3-2.8,0c-0.9,0.2-0.4,0.4,1.2,0.5
	C704.3,106.7,705,106.5,704.4,106.3L704.4,106.3z M232.5,102.3c-0.6-1.7-1.2-2.8-1.4-2.6c-0.2,0.2,0.1,1.7,0.7,3.4s1.2,2.8,1.4,2.6
	C233.3,105.5,233,103.9,232.5,102.3z M427.6,102.9c0-3.9-7.1-9.2-8.8-6.5c-0.6,1,7.1,9.4,8.1,8.9C427.2,105.1,427.6,104,427.6,102.9
	L427.6,102.9z M452.6,101.2c-2.1-2.7-5.3-4.2-7.3-3.5c-0.6,0.2,0.7,2.2,2.8,4.4C452.9,106.9,456.6,106.2,452.6,101.2L452.6,101.2z
	 M480.2,103.6c-0.5-2.8-1.5-3.5-4.2-2.8c-2.4,0.6-2.4,0.7-0.9,2.9C476.9,106.6,480.7,106.5,480.2,103.6L480.2,103.6z M538.7,104
	c0.8-0.6,1.4-2.6,1.4-4.4c0-3.8,5-19,7.7-23.5c1.8-3,1.8-3.1,0.1-4.4c-4.7-3.4-23.5-8.8-25.9-7.3c-1.4,0.9,0.4,2.2,3,2.2
	c1.5,0,4.1,0.6,5.8,1.4c4,1.7,2.8,1.7-4.3,0c-8.3-2-10.8,1.7-12.7,19.5c-1.2,11-2.8,16.4-2,6.7c0.2-3,0-5.1-0.5-5.1
	c-0.5,0-1,2.5-1,5.6c-0.1,5,0.1,5.6,1.8,5.6c1,0,2.8,0.5,3.9,1.1C522.8,105.1,535.6,106.5,538.7,104L538.7,104z M526.9,96.6
	c-3.2-1,0.3-1,4.2,0c2.5,0.6,2.6,0.7,0.5,0.7C530.3,97.3,528.2,97,526.9,96.6L526.9,96.6z M526.9,92.6c-1.8-0.5-2.8-1.1-2.3-1.3
	c0.5-0.2,2.7,0.2,4.7,1C533.6,93.8,531.8,94.1,526.9,92.6L526.9,92.6z M527.9,75.9c-1.9-0.6-2-0.8-0.5-0.8c1,0,2.5,0.3,3.3,0.8
	C532.3,77,531.2,77,527.9,75.9L527.9,75.9z M531.6,74c-7.6-2.2-8.8-2.7-8.3-3.2c0.6-0.6,13.2,3.2,14.3,4.3c0.5,0.5,0.7,0.8,0.5,0.7
	C537.9,75.8,535,74.9,531.6,74L531.6,74z M540.6,72.6c-1-0.8-1.4-1.4-0.9-1.4c0.5,0,1.8,0.6,2.8,1.4c1,0.8,1.4,1.4,0.9,1.4
	C542.8,74,541.6,73.4,540.6,72.6z M305.5,103.6c5.6-0.8,11.6-4.6,11-7.1c-0.3-1-0.8-2.7-1.1-3.8c-0.3-1.1-1.1-1.7-1.8-1.5
	c-0.7,0.3-2.9,0.7-4.8,1l-3.6,0.5l4.1-1.4c5.3-1.8,5-0.9,3.4-9c-0.8-4-1.1-9.3-0.8-12.4l0.5-5.4h-3.2c-3,0-12.2,1.8-18.2,3.5
	c-6.4,1.9-6.2,18.8,0.3,32l2.5,5l3.8-0.5C299.8,104.4,303.3,103.9,305.5,103.6L305.5,103.6z M301.1,97.2c0.2-0.2,2.1-0.6,4.1-0.9
	c2.6-0.4,3.2-0.3,1.9,0.3C305.3,97.3,300.3,97.9,301.1,97.2z M297.7,93.7c5-1,8.4-1,5.2,0.1c-1.3,0.4-3.8,0.7-5.6,0.7l-3.3,0
	L297.7,93.7L297.7,93.7z M294.1,74c0.6-0.6,4.1-1.3,8-1.5c6.2-0.3,6.4-0.2,2.2,0.5c-2.6,0.4-6.2,1.1-8,1.5
	C293.7,75,293.3,75,294.1,74z M288.8,72.4c0-2,19.2-5.8,20.9-4.1c0.8,0.8,0.1,1.1-2.7,1.1c-3.5,0-12.9,1.9-16.6,3.3
	C289.5,73,288.8,72.9,288.8,72.4L288.8,72.4z M85.9,103.2c0.5-0.5,1.9-1.1,3.2-1.3c1.3-0.2,0.5-0.4-1.8-0.3
	c-2.4,0.1-4.3,0.6-4.5,1.3C82.3,104.2,84.6,104.5,85.9,103.2L85.9,103.2z M399.4,102.7c0-2.2-3-5.2-5.4-5.2c-2,0-2.1,0.2-1,2.1
	C395.1,103.5,399.4,105.6,399.4,102.7z M506.5,100.4c2.5-1,2.6-1.3,2.6-7.6c0-5.1,0.3-6.5,1.2-5.9c0.9,0.5,0.9,0.4,0.1-0.6
	c-0.8-1-0.6-3,0.7-7.9c2.7-10.4,2.7-10.4-12.3-13.9c-5.9-1.4-6-1.4-1.4-1c2.6,0.2,7.5,1.2,11,2.2c5.1,1.4,6.4,1.5,6.8,0.5
	c0.8-2.2-11.4-6-19.2-6c-7.6,0-15.3,34.6-8.6,39C491.8,102,500.8,102.6,506.5,100.4L506.5,100.4z M499.7,93.1
	c-10.3-2.7-11.2-3.1-7-2.5c5.2,0.6,12,2.4,13.1,3.3C506.9,94.9,506.2,94.8,499.7,93.1L499.7,93.1z M496.9,88
	c-5.1-1.5-5.4-1.7-2.1-1.3c2.2,0.3,5.4,1.1,7,1.8C506,90.3,504.2,90.1,496.9,88L496.9,88z M504.4,70.3c-1.8-0.4-4.9-1-6.9-1.4
	c-2-0.3-3.4-0.8-3.2-1.1c0.6-0.6,12.9,1.5,14.7,2.5C510.9,71.4,509.2,71.4,504.4,70.3L504.4,70.3z M335.8,99.3
	c8.7-1.2,10.2-1.9,10.2-5.1c0-3.6-1-5.2-2.7-4.3c-0.9,0.4-3.4,1.1-5.8,1.4c-10.4,1.5-10.8,1.6-8.9,0.7c1-0.5,4.4-1.1,7.6-1.5
	c7.7-0.9,8.2-1.3,7.2-5.8c-0.4-2-0.7-8.8-0.5-15.1l0.3-11.4l-6.3,0.5c-20.2,1.5-23.9,6-19.7,23.8
	C321.2,100.1,322.3,101.1,335.8,99.3L335.8,99.3z M332.2,87.5c1.4-0.2,3.5-0.2,4.7,0c1.2,0.2,0,0.4-2.6,0.4
	C331.7,87.8,330.8,87.7,332.2,87.5L332.2,87.5z M331.2,66.8c1.4-0.2,3.5-0.2,4.7,0c1.2,0.2,0,0.4-2.6,0.4
	C330.8,67.2,329.8,67,331.2,66.8L331.2,66.8z M323.7,63.8c0.9-0.5,4.9-1.2,8.9-1.4c8.4-0.5,5.1,0.8-4.6,1.8
	C323.8,64.5,322.5,64.4,323.7,63.8L323.7,63.8z M631.5,98.4c0-1.7-14.9-9.4-18.3-9.4c-4.8,0-3.2,2.4,3.1,4.8
	c3.2,1.2,7.5,3.1,9.6,4.3C629.8,100.4,631.5,100.5,631.5,98.4L631.5,98.4z M544.7,90.6c0.5-2,0.5-3.3,0.1-2.8
	c-0.8,0.9-2.9,9-2.8,10.8C542.1,100,543.4,96.1,544.7,90.6L544.7,90.6z M476.8,97.4l4.2-1V86c0-6.8,0.4-11.3,1.3-13.2
	c2.2-4.9,3.3-9,2.6-9.4c-1.6-1-13.3-3.6-18.9-4.3l-6.1-0.7l5.8-0.1c3.4-0.1,8.8,0.7,13,1.8c7.2,2,9.8,1.8,6.7-0.5
	c-1.7-1.3-10.2-3-19.1-4l-4.9-0.5l-2.2,5.1C448.1,85.3,456.3,102.6,476.8,97.4L476.8,97.4z M468.4,89.2c-0.3-0.4,0.5-0.6,1.8-0.4
	s2.3,0.6,2.3,0.8C472.6,90.4,468.9,90,468.4,89.2L468.4,89.2z M462.7,88.1c-2.6-0.7-2.6-0.7-0.5-0.8c1.3-0.1,3,0.3,3.7,0.8
	C467.6,89.2,466.8,89.2,462.7,88.1L462.7,88.1z M470.2,86.2c-3.1-1-7-1.8-8.7-1.8c-1.7,0-3-0.4-3-0.8s1.2-0.6,2.6-0.4
	c5,0.8,15.7,3.4,17.1,4.1C480.7,88.7,476.2,88.1,470.2,86.2L470.2,86.2z M472.6,63.7l-4.2-0.7l3.7-0.1c2.1-0.1,4.4,0.3,5.2,0.8
	c0.8,0.5,1,0.9,0.5,0.8C477.2,64.5,474.9,64.1,472.6,63.7L472.6,63.7z M184.1,94.7c0.3-1,0.2-1.7-0.2-1.4c-0.4,0.3-1,1.3-1.2,2.3
	c-0.3,1-0.2,1.7,0.2,1.4C183.3,96.8,183.8,95.7,184.1,94.7z M371.5,90.4c-0.2-1.5-0.4-8.9-0.5-16.4l-0.2-13.6h-6.6
	c-3.6,0-8.2,0.3-10.3,0.7c-3.1,0.6-3.4,0.5-1.9-0.4c1-0.6,5.8-1.3,10.8-1.6c8.9-0.5,13-2,7.8-3c-2.7-0.5-17,0.5-19.8,1.4
	c-1.6,0.5-2.7,5-4.3,17.3c-0.6,4.4,1.7,16.7,3.6,19.3C353.7,99.1,372.1,95.9,371.5,90.4L371.5,90.4z M356.6,88.4
	c0.9-0.2,2.4-0.2,3.3,0c0.9,0.2,0.2,0.4-1.6,0.4S355.6,88.7,356.6,88.4z M354.9,85.3c1.8-0.7,14.3-1.3,13.5-0.6
	c-0.2,0.2-3.8,0.6-7.9,0.8C356.2,85.8,353.8,85.7,354.9,85.3L354.9,85.3z M359.8,63.1c1.7-0.2,4.4-0.2,6.1,0c1.7,0.2,0.3,0.4-3,0.4
	C359.5,63.4,358.2,63.3,359.8,63.1z M397.8,92.1c1.1-0.9,1.2-2.1,0.6-5.2c-1.3-6.5-1-19.7,0.5-24.7c0.8-2.5,1.4-4.7,1.4-4.8
	c0-0.6-14.9-0.1-18,0.6c-1.9,0.4-3.5,0.5-3.5,0.1c0-1.2,4.3-1.8,13.9-2c8.4-0.2,10.8-0.8,8.5-2.2c-2-1.3-21.1-0.4-23.5,1.1
	c-3.8,2.3-4.1,34.9-0.4,38.6C379.6,95.7,394.6,94.7,397.8,92.1L397.8,92.1z M389.4,81.8c1.4-0.2,3.5-0.2,4.7,0
	c1.2,0.2,0,0.4-2.6,0.4C388.9,82.2,388,82,389.4,81.8L389.4,81.8z M385.6,60.3c1.4-0.2,3.7-0.2,5.2,0c1.4,0.2,0.3,0.4-2.6,0.4
	S384.2,60.5,385.6,60.3z M422.9,91.5c1.1-0.5,1.4-3.1,1.6-13.5c0.2-9.9,0.6-14.2,2.1-18.5c2.2-6.8,2.8-6.2-7.3-6.8
	c-13.9-0.8-16.8,2.8-17.4,20.7c-0.3,8.8-0.4,8.6,6.9,8.3c3.5-0.2,7.8,0.1,9.6,0.6c2.5,0.7,1.2,0.8-5.2,0.5
	c-10.1-0.5-10.8-0.1-10.1,5C403.7,94,413,95.7,422.9,91.5L422.9,91.5z M412.8,85.6c1.4-0.2,3.5-0.2,4.7,0c1.2,0.2,0,0.4-2.6,0.4
	C412.3,86,411.4,85.8,412.8,85.6L412.8,85.6z M408,61c2.4-1.5,9.3-2.4,9.3-1.2c0,0.6-1.4,1.1-3,1.1c-1.7,0-4.1,0.2-5.4,0.5
	C407,61.9,406.8,61.8,408,61L408,61z M409.8,56.3c3.3-1.1,16.8-1.1,15.1-0.1c-0.7,0.5-4.9,0.8-9.4,0.8
	C410.1,57,408.2,56.8,409.8,56.3L409.8,56.3z M451.4,93c-0.1-0.6-0.2-3-0.2-5.3c-0.2-4.7-1.6-5.3-13-5.5c-4.3-0.1-4.9-0.2-2.8-0.8
	c1.5-0.4,3.1-0.6,3.7-0.4s3.5,0.6,6.5,0.9l5.4,0.6l0-4.9c0-4.7,1.1-10.3,2.7-14.3c2.5-6,2.9-7.3,2.4-8c-1.4-2.3-19.2-4.1-21.1-2.1
	c-0.6,0.6,1.9,1.3,7.8,2.1c4.8,0.6,9.6,1.6,10.6,2c1.4,0.7,0.9,0.8-1.9,0.4c-2.1-0.3-6.9-0.8-10.9-1.1l-7.1-0.6l-1.9,4.1
	c-1.9,4-2.5,8.3-3.6,23.4c-0.4,5.6-0.2,7.4,0.9,8.3C432,94.4,451.6,95.5,451.4,93L451.4,93z M444.9,86.5c-1.5-0.2-3.2-0.8-3.7-1.2
	c-1.1-1.1,6.2,0,7.4,1.1c0.6,0.5,0.6,0.8,0,0.7C448.1,87,446.5,86.7,444.9,86.5L444.9,86.5z M434,85c0.5-0.5,2-0.7,3.5-0.5
	c2.5,0.3,2.4,0.4-0.8,0.8C434.7,85.7,433.5,85.5,434,85L434,85z M442.1,60l-2.8-0.7l3.3,0c1.8,0,4.3,0.3,5.6,0.7
	C451.5,61,446.2,61,442.1,60L442.1,60z M635.3,92.8c3.4-1.3,1.4-4.2-2.3-3.3c-3.4,0.8-4.6,2.2-2.9,3.3C631.8,94,632.2,94,635.3,92.8
	L635.3,92.8z M401,85.5c-0.2-0.9-0.4-0.2-0.4,1.6c0,1.8,0.2,2.5,0.4,1.6C401.3,87.9,401.3,86.4,401,85.5z M647.5,88.9
	c5.3-1.3,5.6-4.3,0.4-3.8c-4.6,0.5-9.1,2.9-7.4,4C642.2,90.2,642.5,90.2,647.5,88.9L647.5,88.9z M665,85.6c1.1-0.7-1.2-3.1-2.9-3.1
	c-2.8,0-7.7,2.3-7.7,3.6C654.4,87.3,662.8,86.9,665,85.6L665,85.6z M676,84.4c1.8-0.6,1.3-0.8-2.6-0.8c-2.7-0.1-4.9,0.3-4.9,0.8
	C668.5,85.5,672.6,85.5,676,84.4z M201,83.4c1.4,0,2.4-0.4,2.1-0.8c-0.6-0.9-7.7,0.2-8.8,1.3c-0.4,0.4,0.4,0.5,1.7,0.1
	C197.3,83.7,199.5,83.5,201,83.4L201,83.4z M577.5,83.1c1.9-2.3-1.6-3.8-13.5-5.8c-2.1-0.4-3.2-0.8-2.6-1c1.7-0.6,11.2,1.3,14.9,3.1
	c1.8,0.9,3.5,1.3,3.8,1c3-3-19.9-8.5-25.3-6c-3.3,1.5-3.3,3.5,0.1,3.5c1.4,0,3.1,0.5,3.7,1.1s1.1,0.9,1.1,0.5
	c0-0.7,11.4,2.5,13.8,3.8C575.8,84.6,576.2,84.6,577.5,83.1L577.5,83.1z M134.4,82.8c-0.6-0.3-1.9-0.3-2.8,0
	c-0.9,0.2-0.4,0.4,1.2,0.5C134.3,83.3,135,83.1,134.4,82.8z M159.8,80.9c-0.8-3.5-1.2-4-2.8-4c-1.8,0-1.7,1.9,0.1,4.5
	C159.2,84.2,160.5,84,159.8,80.9L159.8,80.9z M178.6,82.5c1.1-1.7-0.6-5.7-2.4-5.7c-1.8,0-2.6,4.5-1.1,5.9
	C176,83.7,178,83.6,178.6,82.5L178.6,82.5z M220.7,80.1c7.6-0.9,9.2-1.3,8.5-2.5c-1.3-2.1-16-0.5-18.7,2c-3.4,3.2-2.9,3.9,1.4,2.3
	C214.1,81.3,218,80.4,220.7,80.1L220.7,80.1z M400.1,74.3c-0.2-1.9-0.4-0.6-0.4,3c0,3.6,0.2,5.2,0.4,3.5
	C400.3,79.2,400.3,76.3,400.1,74.3L400.1,74.3z M453.2,76.9c0.4-3.9,0.3-5.4-0.3-4.2c-0.8,1.8-1.4,11.5-0.6,10.7
	C452.5,83.1,452.9,80.2,453.2,76.9L453.2,76.9z M113.5,79.6c1.9-0.1,0.5-0.5-3.3-0.9C103.3,78,96.9,79,96.9,81
	c0,0.8,1.6,0.8,6.6-0.1C107.2,80.3,111.7,79.7,113.5,79.6L113.5,79.6z M143.3,80.2c-1-2.2-4.5-3.4-4.5-1.5c0,1.3,2.8,3.8,4.3,3.8
	C144.2,82.5,144.2,82.1,143.3,80.2L143.3,80.2z M92.3,80.2c-0.6-1.5-2.2-1.9-2.2-0.5c0,0.7,0.7,1.2,2.5,1.9
	C92.7,81.5,92.6,80.9,92.3,80.2L92.3,80.2z M605.8,80.6c1-0.5,1.6-1.4,1.3-1.9c-0.8-1.3-4.7-1.1-5.9,0.4
	C599.2,81.4,602.3,82.4,605.8,80.6L605.8,80.6z M124.9,77.7c-2.2-1.8-4.8-2.4-4.8-1.1c0,0.8,5.9,3.7,6.5,3.2
	C126.9,79.7,126.1,78.7,124.9,77.7z M197.2,78c0.5-2.6-0.3-5.7-1.7-6.2c-1-0.4-1.3,0.5-1.3,3.7C194.1,79.7,196.4,81.7,197.2,78
	L197.2,78z M239.9,77.3c2.7-0.8,6.8-1.6,9.3-1.8c8.1-0.6,6.6-3.4-1.8-3.2c-5.5,0.1-6.1,0.2-3.1,0.7l3.7,0.6l-3.9,0.7
	c-2.1,0.4-4.7,0.9-5.6,1.2c-1.6,0.5-1.6,0.4,0.1-0.9c1-0.8,1.4-1.5,0.9-1.5c-1.1,0-3.3,1.7-5,4C233,79.1,233.7,79.1,239.9,77.3
	L239.9,77.3z M616.7,76.8c2.4-0.9,2.9-3.6,0.7-3.6c-1.2,0-6.6,2.3-7.8,3.3c-0.2,0.2,0,0.8,0.3,1.3C610.5,78.8,611.9,78.6,616.7,76.8
	L616.7,76.8z M87.8,74.1c-0.3-0.6-1.1-0.7-1.6-0.4c-0.6,0.4-0.5,0.9,0.3,1.4C87.9,76,88.6,75.5,87.8,74.1L87.8,74.1z M116.7,75
	c-1.4-1.4-7.8-2.3-7.8-1.1c0,0.9,1.5,1.2,7.5,1.9C117.2,75.9,117.3,75.6,116.7,75L116.7,75z M136.1,72.3c-1-1.8-5.2-3.7-6.2-2.7
	c-0.5,0.5,6.4,5.4,6.9,4.9C137,74.3,136.6,73.3,136.1,72.3L136.1,72.3z M218.9,71c0.7-3.3,0.3-4-1.7-3.2c-0.9,0.4-1.4,1.7-1.4,3.8
	C215.7,75.8,218,75.3,218.9,71L218.9,71z M629.3,72.5c1.5-1.4,1.5-1.7,0.3-2.4c-2-1.1-8,1.6-8,3.6C621.6,75.6,626.7,74.9,629.3,72.5
	z M153.6,72c-1.7-2.5-4.2-4.2-5-3.3c-0.7,0.7,4.2,5.3,5.6,5.4C154.6,74,154.4,73.1,153.6,72L153.6,72z M174.9,65.9
	c-2.7-4.1-3.6-1.1-1.2,3.9l2.2,4.5l0.3-3C176.3,69.6,175.8,67.3,174.9,65.9L174.9,65.9z M578.9,73.5c1.9-0.7,1.9-2.6,0.1-4.1
	c-1.7-1.4-7.2,1.4-6.4,3.4C573.1,74.1,576.4,74.5,578.9,73.5L578.9,73.5z M267.7,71.3c2.1-0.5,6.3-1,9.4-1.1c5.1-0.2,7-1,7-2.8
	c0-0.6-1.6-0.5-14,1.1c-3.8,0.5-7.2,0.7-7.4,0.4c-0.6-0.6-3,1.3-3,2.4C259.8,72.4,262.9,72.4,267.7,71.3L267.7,71.3z M549.2,69
	c-5.9-4.7-14.5-8.1-19.6-7.8c-5.3,0.3-6.7,2-2.1,2.4c4.3,0.4,17.4,4.6,20.6,6.6C551.7,72.5,552.5,71.7,549.2,69L549.2,69z
	 M83.1,69.4c-0.3-0.5-1.3-1-2.2-0.9c-1.4,0.1-1.4,0.2,0.1,0.5c0.9,0.2,1.6,0.9,1.6,1.5c0,0.6,0.3,0.8,0.6,0.5
	C83.5,70.7,83.4,70,83.1,69.4L83.1,69.4z M640.6,69.7c1.9-0.3,3.5-1,3.5-1.4c0-1.1-5.9-1-8.8,0.1c-3,1.1-3.3,3.3-0.3,2.5
	C636.2,70.6,638.7,70,640.6,69.7L640.6,69.7z M245.2,66.8c0.3-1.4,0.8-3.3,1.1-4.2c1-3.2-2.4-1.7-3.8,1.8c-1.8,4.4-1.8,5,0.4,5
	C243.9,69.4,244.8,68.5,245.2,66.8L245.2,66.8z M590.5,66.3c2-1.6,1.4-3.4-0.9-2.8c-2.6,0.6-7.3,3.8-7.3,4.9
	C582.3,69.4,588.8,67.7,590.5,66.3L590.5,66.3z M124.3,67c-3.3-1.5-5.2-1.7-5.2-0.5c0,1.2,1.8,1.8,5.2,1.8l2.8,0L124.3,67L124.3,67z
	 M197,63.7c0-1.9-2.4-5.4-3.2-4.6c-0.3,0.3-0.3,2.6,0.1,5.1C194.4,68.7,197,68.3,197,63.7L197,63.7z M281.8,65.6
	c3.4-0.7,3.2-0.7-2.3-0.8c-3.4,0-7.8,0.6-9.8,1.3l-3.7,1.3l6.1-0.5C275.3,66.6,279.7,66,281.8,65.6z M297.9,65.2
	c6.2-1.2,11.6-2,14.6-2.3c0.4,0,0.7-0.5,0.7-1.1c0-2.1-20.2,1.4-22.9,4C289.1,66.8,289.2,66.8,297.9,65.2L297.9,65.2z M144.9,64.8
	c0.7-1.1-3.1-3.8-5.3-3.8c-3,0-2.8,1.9,0.3,3.3C143.7,65.8,144.2,65.9,144.9,64.8L144.9,64.8z M78.9,62.9C77.6,60.6,76,59.5,76,61
	c0,0.6,0.7,1.7,1.6,2.4C79.9,65.1,80,65,78.9,62.9L78.9,62.9z M221.3,57.4c0-1.2-0.4-2.1-0.9-2.1c-1.4,0-2.8,3.3-2.8,6.7l0,3.1
	l1.9-2.8C220.5,60.8,221.3,58.6,221.3,57.4L221.3,57.4z M600.8,62.8c2.6-0.7,4-1.5,4-2.5c0-1.9-5.5-1.2-9,1.1
	c-2.2,1.5-2.3,3.6-0.1,2.8C596.3,64,598.6,63.4,600.8,62.8z M548.9,63.2c2.3-0.9,1.8-3.1-0.9-3.7c-3-0.8-5.6,1.2-4.1,3
	C545.1,63.9,546.6,64.1,548.9,63.2L548.9,63.2z M274.2,60c0.7-3.4-0.1-5.6-1.8-5.6c-1.8,0-2.9,6.5-1.2,7.6
	C273.2,63.3,273.6,63,274.2,60L274.2,60z M303.6,60.8c10.1-1.3,10.8-1.5,10-2.8c-1.3-2.1-21,1.7-21,4c0,0.6,0.6,0.8,1.4,0.5
	S299.1,61.4,303.6,60.8L303.6,60.8z M518.3,61.2c1-3.2-17.7-7.6-20.8-4.9c-2.4,2-1.6,2.8,2.6,2.8c2.2,0,6.5,0.8,9.6,1.8
	C515.8,62.9,517.7,63,518.3,61.2L518.3,61.2z M504.7,58.4c-1.2-0.2-2.1-0.8-2.1-1.2c0-0.7,6.5,0.6,7.4,1.5
	C510.5,59.1,507.7,59,504.7,58.4L504.7,58.4z M135.1,59.5c0-0.8-6.7-3.4-7.2-2.9c-0.3,0.3,0.9,1.1,2.7,1.9
	C134.1,60,135.1,60.2,135.1,59.5L135.1,59.5z M250,54.7c1.4-3,1.4-3.5,0.1-4.8c-1.6-1.6-2.4-0.3-3.8,6.1
	C245.3,60.2,247.8,59.3,250,54.7L250,54.7z M335,57.6c9.6-0.6,12.3-1.5,8.2-2.5c-3.5-0.9-21.2,1.7-22.2,3.3
	c-0.4,0.6,0.2,0.8,1.7,0.4C323.9,58.5,329.5,57.9,335,57.6L335,57.6z M488.9,57.1c-0.3-0.5-1.5-0.9-2.6-0.9c-1.1,0-4-0.6-6.3-1.3
	c-4.7-1.4-16.7-3-15.8-2.1c0.3,0.3,3.9,1.3,8,2.1c4.1,0.8,9,1.8,11,2.2s3.8,1,4.1,1.3C488.1,59.3,489.6,58.1,488.9,57.1L488.9,57.1z
	 M558.6,57.6c3-0.9,5.3-2.3,6.3-3.7c2-3,1-2.9-7.4,0.6C547.5,58.7,548.3,60.7,558.6,57.6L558.6,57.6z M617.9,58.1
	c-5.9-1.1-8.4-1-8.4,0c0,0.5,2.7,0.9,6.3,0.8C622,58.8,622,58.8,617.9,58.1z M74.1,55.4c0-0.5-0.4-1.1-0.9-1.5
	c-0.5-0.3-0.9,0.1-0.9,0.9s0.4,1.5,0.9,1.5C73.7,56.2,74.1,55.9,74.1,55.4z M303.5,52.7c1.8-2.7,2.1-6.8,0.5-6.8c-1,0-3.5,4-4.6,7.3
	C297.9,57.5,300.5,57.1,303.5,52.7L303.5,52.7z M364.1,54.7c13.2-0.9,12.8-2.5-0.7-2.4l-6.6,0l5.2-0.9c2.8-0.5,6.7-0.7,8.7-0.5
	c1.9,0.2,3.5,0.1,3.5-0.4c0-1.2-7.7-2.1-12.3-1.5c-2.2,0.3-4.9,0.5-6,0.6c-1.7,0-2.7,1.3-4.9,6c-0.2,0.5,0.6,0.6,1.9,0.3
	S359.1,55.1,364.1,54.7L364.1,54.7z M490.4,55.4c0-2-10.7-5.9-15.8-5.8c-6.8,0.2-8.1,1.6-2.3,2.4c3.4,0.5,15.4,3.3,17.9,4.2
	C490.3,56.2,490.4,55.9,490.4,55.4L490.4,55.4z M195.4,53.2c1-3.6,0.7-6.5-0.6-6.1c-1.4,0.4-2.2,8.2-0.9,8.2
	C194.5,55.3,195.1,54.4,195.4,53.2L195.4,53.2z M339.9,53.5c6.9-0.6,8.9-2.2,3.2-2.7c-4.1-0.3-16.8,2.2-18.1,3.7
	c-0.7,0.8,0.2,0.9,3.7,0.3C331.3,54.4,336.3,53.8,339.9,53.5L339.9,53.5z M519.1,52.6c2.1-1.6,2.1-1.9,0.7-2.7
	c-1.6-0.9-7.8,2.1-7.8,3.8C511.9,55.1,516.9,54.3,519.1,52.6L519.1,52.6z M458,52.6c0.8-1.2-11.9-3.3-18.2-3
	c-4.4,0.2-0.1,1.7,5.5,1.8c2.9,0.1,6.6,0.5,8.1,1C457.1,53.6,457.4,53.6,458,52.6L458,52.6z M224.4,46.8c0.4-3-0.9-3.8-1.7-1.1
	c-0.3,0.9-0.9,2.4-1.4,3.3c-1.5,2.8-1,3.9,0.9,2.2C223.2,50.3,224.1,48.3,224.4,46.8L224.4,46.8z M403,51.1
	c0.3-0.3-4.5-0.5-10.5-0.5c-6,0-10.8,0.3-10.5,0.8C382.5,52.2,402.2,51.9,403,51.1z M431.4,48.4c-1.2-1.2-21.2,0.3-23.1,1.7
	c-1.3,1,0.3,1.2,9.4,1.3c6.1,0,11.3,0.3,11.6,0.6c0.3,0.3,1-0.2,1.7-1.1C431.6,49.9,431.8,48.9,431.4,48.4L431.4,48.4z M575.9,50.2
	c3.6-0.6,5.1-3.4,1.9-3.3c-2.7,0-9.8,3.6-9.1,4.7c0.4,0.6,1.2,0.6,2.2,0.1C571.7,51.2,574,50.6,575.9,50.2L575.9,50.2z M159.4,50.3
	c-0.8-0.7-3.5-2.5-6.1-3.9l-4.7-2.6l3.3,3.3c3.3,3.3,5,4.3,7.5,4.4C160.6,51.6,160.6,51.4,159.4,50.3L159.4,50.3z M276.5,45.4
	c1.3-4.6,1.3-5,0.2-5c-1.1,0-2.9,5.2-2.9,8.3C273.8,51.8,275.1,50.2,276.5,45.4L276.5,45.4z M460.4,49.6c0-1-5.4-1.9-13.1-2.3
	c-4.7-0.2-6.4-0.1-5.2,0.5c1,0.5,3.8,0.9,6.1,1c2.3,0.1,5.1,0.5,6.1,0.9C456.4,50.6,460.4,50.5,460.4,49.6L460.4,49.6z M403.2,48.3
	c-1.3-1.3-17.5-1.2-18.7,0c-0.8,0.8,1.7,1,9.3,0.9C400.1,49.3,403.7,48.9,403.2,48.3L403.2,48.3z M492.5,46.9
	c2.7-2.4,2.9-2.8,1.4-3.4c-2.9-1.1-10.5,3.7-8.1,5.2C488,50.2,489.2,49.9,492.5,46.9z M71,46.4c-0.3-0.8-1-1.2-1.5-0.9
	c-0.6,0.4-0.5,1,0.2,1.8C71.1,48.9,71.8,48.4,71,46.4L71,46.4z M335.2,46.7c1.8-2.6,1.9-4.5,0.1-4.5c-1.6,0-1.9,0.5-2.8,4
	C331.8,49.3,333.2,49.5,335.2,46.7L335.2,46.7z M255.8,42.6c2-6.4-1.1-6-3.4,0.5c-1.5,4.3-1.4,5,0.6,3.9
	C254,46.5,255.2,44.5,255.8,42.6L255.8,42.6z M530.3,45.9c5.7-2.1,6.4-4.1,1.4-4.2c-2.7,0-11.3,4.2-11.3,5.6
	C520.4,48.4,525.3,47.7,530.3,45.9L530.3,45.9z M587.7,46c2.4-1,5-2,5.8-2.3c0.8-0.3,0.1-0.5-1.4-0.5c-4.3-0.1-9.8,1.7-9.8,3.2
	C582.3,48.2,582.5,48.2,587.7,46L587.7,46z M370.2,42.8c0.5-2.4-2.7-3.2-4.2-1.1c-0.7,1-1.3,2.3-1.3,2.9
	C364.8,46.4,369.9,44.7,370.2,42.8L370.2,42.8z M463.9,41.5c0.6-1.7-2.7-1.4-5.3,0.6c-3.3,2.6-1.7,4.4,2,2.2
	C462.2,43.4,463.7,42.1,463.9,41.5L463.9,41.5z M312.1,39.4c3.3-4.5,2.5-6.2-1.4-3.1c-1.8,1.4-5,6.7-5,8.2
	C305.7,45.6,310.1,42.1,312.1,39.4z M197,41.7c0-1.3-0.2-2.3-0.4-2.3s-0.6,1.1-0.8,2.3c-0.2,1.3-0.1,2.3,0.4,2.3
	C196.6,44.1,197,43,197,41.7L197,41.7z M400,42.7c1.1-1.1,1.1-1.5-0.1-2.4c-1.8-1.5-3.8-0.7-4.5,1.8C394.8,44.4,397.8,44.9,400,42.7
	L400,42.7z M433.2,42.7c1.3-1.5,0.6-3.3-1.4-3.3c-1.5,0-4.2,2.5-4.2,3.8C427.6,44.6,431.9,44.2,433.2,42.7L433.2,42.7z M502.1,40.6
	c5.8-2,5.9-2.1,4.3-3.1c-0.9-0.5-2.9,0-5.8,1.5C493.7,42.5,494.4,43.2,502.1,40.6L502.1,40.6z M547.7,40.7c1.9-0.6,3-4.1,1.3-4.1
	c-2.2,0-11.7,4-11.7,4.9C537.3,42.3,543.8,41.8,547.7,40.7L547.7,40.7z M67.4,39.2c-0.2-0.6-0.9-1.3-1.5-1.5
	c-0.7-0.2-0.9,0.2-0.5,1.1C66,40.5,67.9,40.9,67.4,39.2L67.4,39.2z M346.2,35.8c4.5-3.4,5-4.9,1.5-4.9c-1.7,0-9.2,7-9.2,8.6
	C338.5,40.7,341.6,39.2,346.2,35.8z M475.1,36.3l3.1-2.1l-2.7-0.3c-2.7-0.3-9.4,3.2-9.4,4.9C466,40.1,471.8,38.6,475.1,36.3
	L475.1,36.3z M283.2,35.2c1.6-1.9,0.7-2.7-2.3-2c-1.8,0.4-2.4,1.2-2.4,3C278.5,38.7,280.6,38.3,283.2,35.2L283.2,35.2z M377.7,35
	c3-2.3,3.9-4.1,2-4.1c-2.4,0-9.3,5-9.3,6.8C370.4,39,374.2,37.6,377.7,35z M441.6,35.9c2.1-1.4,3.8-2.9,3.8-3.3
	c0-1.6-4.2-0.7-7.2,1.6C432.4,38.7,435.2,40.1,441.6,35.9L441.6,35.9z M559.6,36.4c4.8-1.4,2.9-1.9-2.1-0.6c-2.4,0.6-4.3,1.5-4.3,2
	c0,0.5,0.7,0.5,1.6,0.2C555.7,37.6,557.9,36.9,559.6,36.4L559.6,36.4z M408.2,34.1c4.4-3.4,5.4-5,3.2-5c-2,0-6.1,3.1-9,6.8
	C400.1,38.8,403.5,37.8,408.2,34.1L408.2,34.1z M518.7,34.6l2-1.1l-2.2-1.2c-2.4-1.3-4.8-0.5-8.8,2.8
	C507.3,37,515.1,36.5,518.7,34.6L518.7,34.6z M261.5,29.8l2.1-4l-3.3,3.7c-1.8,2-3.3,4.3-3.3,5C257,36.6,259,34.5,261.5,29.8
	L261.5,29.8z M322.6,30c3.3-2.8,3.3-2.8,0.9-2.8c-1.5,0-3.3,1-4.9,2.8C315.1,33.9,318,33.9,322.6,30z M486.1,31.4
	c3.3-1.4,4.7-4.2,2-4.2c-2.4,0-8,3.1-8,4.4C480.1,33.2,481.9,33.1,486.1,31.4L486.1,31.4z M527.2,30.6c0.9-0.7,1.6-1.5,1.6-1.8
	c0-0.8-5.5,1.2-6.2,2.3C521.9,32.3,525.3,32,527.2,30.6L527.2,30.6z M355.4,30.1c0-0.5,1.5-1.7,3.4-2.9c4.8-2.8,3.3-3.4-2.1-0.8
	c-4.9,2.3-6.4,4.5-3.3,4.5C354.5,30.9,355.4,30.6,355.4,30.1L355.4,30.1z M452.3,29.6c4-1.7,5.1-3.4,2.2-3.3c-1.2,0-3.4,1.1-5,2.3
	C446.5,31.2,447.6,31.6,452.3,29.6z M287.5,26.2c2.6-4.1,2.7-5.1,0.4-3.4c-1.2,0.9-3.7,5.5-3.7,6.8
	C284.1,30.8,285.3,29.6,287.5,26.2L287.5,26.2z M388.9,28.1c3.1-1.9,3.8-3.2,2.1-4.2c-1.3-0.8-9.5,4.1-8.8,5.2
	C383,30.5,385.6,30.1,388.9,28.1L388.9,28.1z M423.2,26.1c2.9-1.5,3.5-2.2,2.3-2.4c-2.2-0.5-10.2,2.6-9.5,3.7
	C416.8,28.6,419,28.3,423.2,26.1L423.2,26.1z M331.1,23.8c2-2.1,2-2.4,0.5-2.1c-1.8,0.3-5.2,4.6-3.7,4.6
	C328.4,26.2,329.8,25.1,331.1,23.8z M464.8,22.5c4-2.5,3.9-3.2-0.3-1.4c-1.9,0.8-3.6,1.4-3.7,1.4c-0.2,0-0.4,0.4-0.4,0.9
	C460.4,24.8,461.4,24.6,464.8,22.5L464.8,22.5z M369.7,20.5c5.3-3.1,5.2-3.1-1.4-0.5c-2.4,1-4.4,2.1-4.4,2.6
	C363.8,23.9,364.5,23.7,369.7,20.5L369.7,20.5z M399,21.6c2.2-1,3-1.8,2.1-1.8c-1.7-0.1-7.2,2.4-7.2,3.2
	C393.8,23.7,395,23.4,399,21.6L399,21.6z M434.8,19.1c-0.6-0.6-5.4,1.7-5.4,2.6c0,0.4,1.3,0.1,2.9-0.7
	C434,20.2,435.1,19.4,434.8,19.1L434.8,19.1z"/>
</svg>
