<?xml version="1.0" encoding="utf-8"?>
<!-- Generator: Adobe Illustrator 22.1.0, SVG Export Plug-In . SVG Version: 6.00 Build 0)  -->
<svg version="1.1" id="Layer_1" xmlns="http://www.w3.org/2000/svg" xmlns:xlink="http://www.w3.org/1999/xlink" x="0px" y="0px"
	 viewBox="0 0 512 512" style="enable-background:new 0 0 512 512;" xml:space="preserve">
<g id="_x38_">
	<path style="fill:none;stroke:#000000;stroke-miterlimit:10;" d="M252.6,156.6c0,8.1,6.4,14.6,14.5,15c18.5,0.9,36.7,8.3,50.7,22.4
		c14.1,14.1,21.5,32.2,22.4,50.7c0.4,8.1,6.9,14.5,15,14.5h0.1c8.6,0,15.5-7.2,15-15.8c-1.2-25.7-11.7-51.1-31.3-70.7
		c-19.6-19.6-45-30-70.7-31.3C259.8,141.1,252.6,147.9,252.6,156.6L252.6,156.6z"/>
	<path style="fill:none;stroke:#000000;stroke-miterlimit:10;" d="M271.4,99.5c0,8.1,6.5,14.8,14.6,15c28.2,1,56.1,12.2,77.6,33.7
		c21.5,21.5,32.7,49.4,33.7,77.6c0.3,8.1,6.9,14.6,15,14.6h0c8.5,0,15.3-7,15.1-15.5c-1.2-35.6-15.3-70.9-42.4-98
		c-27.1-27.1-62.4-41.3-98-42.4C278.5,84.2,271.4,91,271.4,99.5L271.4,99.5z"/>
	<path style="fill:none;stroke:#000000;stroke-miterlimit:10;" d="M287.8,44.1c0,8.1,6.4,14.8,14.5,15c38.3,0.9,76.2,16,105.3,45.1
		c29.1,29.1,44.1,67.1,45.1,105.3c0.2,8.1,6.9,14.5,15,14.5h0c8.5,0,15.3-7.1,15-15.6c-1.2-45.6-19.2-90.8-53.9-125.6
		C394.2,48.2,349,30.2,303.3,29C294.8,28.8,287.8,35.5,287.8,44.1L287.8,44.1z"/>
	<g>
		<g>
			<path style="fill:none;stroke:#000000;stroke-miterlimit:10;" d="M188.9,309.2"/>
		</g>
		<g>
			<path style="fill:none;stroke:#000000;stroke-miterlimit:10;" d="M300.9,483c-80.9,0-174.5-89.5-178.8-93.7l-0.5-0.5
				c-9.9-10.8-35.2-39.7-56.7-75.6c-28.6-47.8-39.1-89.1-31.1-122.5c20.2-85.3,68-100.2,70-100.8c17-4.9,54.9-3.5,77.7,37
				c12.5,22.3,18.4,42,17.6,58.6c-0.8,16.6-8.2,30-21.4,38.8c-9.3,6.2-20.8,16.3-22.7,29.4c-1.5,10.1,2.8,21.3,12.8,33.5
				c17.1,20.8,39.1,43,59,59.3c12.2,10,23.4,14.3,33.5,12.8c13.1-2,23.2-13.4,29.4-22.7c8.8-13.2,22.2-20.6,38.8-21.4
				c16.6-0.8,36.4,5.1,58.6,17.6l0,0c40.5,22.7,41.9,60.7,37,77.6c-0.6,2.1-15.5,49.9-100.8,70.1C316,482.2,308.5,483,300.9,483z
				 M139,372.3c5.7,5.4,108.3,101.5,178.8,84.8c69.5-16.5,82.7-51.8,83.3-53.3c0.2-0.9,2-8.6,0-18.2c-2.8-13.1-11.5-23.8-25.7-31.8
				l0,0c-18.6-10.4-51.8-24.7-65.7-3.8c-12.7,19.1-28.6,30.6-45.9,33.2c-17,2.5-34.6-3.5-52.3-18c-21-17.2-44.3-40.6-62.3-62.6
				c-14.5-17.6-20.5-35.2-18-52.3c2.6-17.3,14-33.1,33.2-45.9c20.9-14,6.6-47.2-3.8-65.7c-8-14.2-18.7-22.8-31.8-25.7
				c-9.4-2-17-0.3-18.2-0.1c-3,1-37.1,14.3-53.4,83.3c-6.3,26.8,3.5,63,28.4,104.7C106.1,335.4,131.3,363.9,139,372.3z M110.4,112.9
				C110.4,112.9,110.4,112.9,110.4,112.9l-0.2,0L110.4,112.9z"/>
		</g>
	</g>
</g>
</svg>
