<?xml version="1.0" encoding="utf-8"?>
<!-- Generator: Adobe Illustrator 22.1.0, SVG Export Plug-In . SVG Version: 6.00 Build 0)  -->
<svg version="1.1" id="Layer_1" xmlns="http://www.w3.org/2000/svg" xmlns:xlink="http://www.w3.org/1999/xlink" x="0px" y="0px"
	 viewBox="0 0 512 512" style="enable-background:new 0 0 512 512;" xml:space="preserve">
<path d="M388.4,432.3c-3.2,5.8-6.2,6-10.4,0.7c0-0.3-0.1-0.7-0.1-1l0.4,0.1c2.3-0.7,1.6-2.6,1.6-4.2c0-49.9,0-99.8,0-149.8
	c0-1.5,0.7-3.5-1.7-4c-0.1-0.4-0.2-0.7-0.2-1.1c-0.5-2.8-2.7-2-4.4-2c-30.1,0-60.2,0-90.3,0c-1.5,0-3.5-0.8-4.3,1.5
	c-3,0.4-1.9,2.9-2.4,4.7c-0.7,2.8-2.4,4.3-5.4,4.1c-2.7-0.2-4.1-1.9-4.4-4.6c-0.1-1.5-0.1-3-0.1-4.5c-0.1-19.4-0.1-38.9-0.2-58.3
	c0.9-3.6-0.3-5-4.2-4.8c-9,0.3-17.9,0.1-26.9,0.1c-7.4,0-7.4,0-7.9,7c-2.2,0.5-1.6,2.2-1.6,3.6c0,17.5,0,35.1,0,52.6
	c0,1.4-0.5,3.1,1.6,3.6c0,1.7,0,3.4,0,5.1c-2.1,0.6-1.6,2.3-1.6,3.7c0,61.4,0,122.9,0,184.3c0,1.6-0.5,3.5,1.9,4c1,0,2.1,0,3.1-0.1
	c0.3,0,0.7,0,1,0l0,0.5c0.4,1.5,1.5,1.5,2.7,1.5c9.5,0,19,0,28.5,0c1.2,0,2.4-0.1,2.7-1.6c1.6-1.7,0.8-3.8,0.8-5.7
	c0-43.6,0-87.2,0-130.8c0-1.3,0-2.7,0-4c0-2.4,0.9-4.3,3.2-5.1c2.5-0.9,4.5-0.2,5.7,2.3c-1,0.9-0.8,2.1-0.8,3.3
	c0,45.2,0,90.4,0,135.6c0,1.6-0.6,3.5,1.8,4c1.3,0,2.7,0,4,0l0.1,0.4c0.7,2.3,2.6,1.6,4.2,1.6c27.6,0,55.2,0,82.8,0
	c1.6,0,3.5,0.6,4.1-1.7l-0.1-0.4c4.5-0.9,6.3-4,6.1-8.3c-0.1-3.7,0.8-7,5.1-7c4.4,0.1,4.9,3.5,4.9,7.1c0,11.2-3.3,16-13.2,18.6
	c-28.8,0-57.6-0.1-86.4-0.1c-52.5,0-104.9,0.1-157.4,0.1c-0.4,0-0.8,0-1.2,0c-2.3,0-4.7-0.1-7-0.1c-10.8-0.1-16.7-5.8-16.7-16.6
	c-0.1-24.5,0-48.9,0-73.4c0-8,0-16,0-24c0-3.5,1.6-6.1,5.2-6c3.1,0.1,5.2,2.1,4.6,5.7c-1.5,1.1-1,2.7-1,4.2c0,30.2,0,60.3,0,90.5
	c0,1.5-0.7,3.5,1.5,4.3c1.3,2.8,3.5,4.7,6.5,5.4c0.6,2.4,2.6,1.6,4.1,1.6c28.5,0,57.1,0,85.6,0c1.5,0,3.5,0.8,4.2-1.6
	c1.6-1.7,0.8-3.8,0.8-5.7c0-60.1,0-120.2,0-180.3c0-1.8-0.1-3.7-0.2-5.5c0-1.9,0-3.9,0.1-5.8c0.2-1.3,0.5-2.6-0.7-3.5
	c-0.7-2.4-2.7-1.5-4.2-1.5c-30.5-0.1-60.9,0-91.4,0c-1.5,0-3.5-0.9-4.2,1.5c-0.4,0.5-1,0.8-0.6,1.6c-0.1,0.7-0.2,1.3-0.3,2
	c-0.6,3.3-3.1,4.9-5.9,4.9c-3.3-0.1-4.3-3-4-5.8c0.4-4.1-0.8-5.6-5.2-5.9c-7-0.5-11.7-5.9-11.8-13.1c-0.2-14.5-0.3-29,0-43.4
	c0.2-8.3,6.1-13.5,14.8-13.6c24.3-0.1,48.6,0,72.9,0c3.8,0,7,1,6.9,5.3c-0.1,4-3.2,4.8-6.7,4.8c-22.5-0.1-44.9,0-67.4-0.1
	c-4.8,0-8.4,1.5-10.4,6c-1.4,0.6-1.3,1.8-1.3,3c0,11,0,22,0,33c0,1.2,0,2.4,1.4,2.9c1.5,1.7,1.8,4.9,5.2,4.4c0,0,0.1,0,0.1,0
	l-0.1,0.5l0.4,0.2c0,0.2,0,0.3,0.1,0.5c1.2,2.5,3.5,1.4,5.3,1.4c33.8,0.1,67.7,0.1,101.5,0c1.7,0,3.7,0.8,5.1-1.1
	c0.7-0.8,0.9-1.7,0.8-2.8c-0.1-13.7-0.1-27.4-0.2-41.2c0.3-6.8,0.3-6.8-6.2-6.8c-1,0-2,0-3,0c-3-0.1-4.6-1.8-4.7-4.7
	c-0.1-3,1.7-4.8,4.4-5.1c3.1-0.3,6.3-0.1,9.8-0.1c-0.9-2.4-3-2.4-4.5-3c-17.4-7-34.6-14.7-50.3-25.2c-6.5-4.4-12.6-9.2-17.7-15.3
	c-10.8-13.1-9.9-26.8,2.9-37.8c11.2-9.6,23.8-16.1,39.2-13c10.3,2.1,18.4,8,25.2,15.9c14,16.2,21.8,35.6,28.2,55.6
	c2.3,7.1,4.1,14.3,6.4,22.4c4.2-17.8,9.3-34.2,16.6-49.8c5-10.7,10.9-20.9,19.1-29.7c20.1-21.5,50.6-19.7,68.3,4
	c6.1,8.2,6.6,16.8,2.1,25.8c-4,7.8-10.3,13.4-17.2,18.5c-17.3,12.7-36.8,21.1-56.5,29.2c-2,0.8-2,0.8-2.6,2.5
	c0.5,2.1,2.2,1.6,3.6,1.7c12.9,0,25.8,0,38.7,0c1.4,0,3.1,0.5,3.7-1.6c3.5,0.4,4.9,2.6,4.4,5.8c-0.6,3.2-3,4-6,4
	c-13.3-0.1-26.5,0.1-39.8-0.1c-4-0.1-5.5,1-4.5,4.9c-0.2,0-0.4,0-0.5,0c-1.2,0.3-1.5,1.1-1.5,2.2c0,13.4,0,26.7,0,40.1
	c0,1.2,0.2,2.3,1.7,2.6c0.8,0.3,1.5,0.7,2.3,1c1.2,1.6,3,1.1,4.6,1.1c33.6,0,67.3,0,100.9,0c1.5,0,3.4,0.7,4.4-1.3
	c3.5-1.5,6.2-3.8,6.2-8.1c-0.1-11.9-0.1-23.8-0.2-35.6c-0.8-5.1-4.3-6.8-8.9-6.8c-3.7,0-7-0.4-7-5c0.1-4.5,3.5-5.1,7.1-5
	c3.8,0.1,7.7-0.3,11.3,1.4c7,3.4,8,9.6,7.9,16.4c-0.1,12.9-0.1,25.9-0.2,38.8c-0.1,7.4-4.7,13.3-11.8,13.6c-5.6,0.2-5.6,2.8-5,6.8
	c0,2.3,0.1,4.6,0.1,6.9c-0.1,2-0.2,4-0.2,6c0,43.5,0,87,0,130.5C388.2,423.7,388.3,428,388.4,432.3z M235.6,193.8
	c-2.2-7.2-3.8-13.2-5.8-19.1c-5.9-17-12.7-33.6-24.8-47.3c-5-5.7-10.7-10.4-18.3-12.3c-12.3-3-22.1,2.5-31,9.8
	c-9.6,7.9-10,15.3-2.2,24.9c3.4,4.1,7.5,7.5,11.9,10.6C186.5,175.3,210.3,184.5,235.6,193.8z M259.2,192.8c0.9,0.1,1.4,0.3,1.8,0.1
	c23.5-8.4,46.6-17.6,67.3-32c5.9-4.1,11.4-8.7,15.3-14.8c2.7-4.3,3.8-8.8,1.5-13.7c-5-10.6-24-20.1-35.4-17.9
	c-9.6,1.9-16.5,7.7-22.2,15C272.7,148.2,265.5,170.2,259.2,192.8z"/>
<path d="M442,489c2.5,1.2,3.3,3.1,2.4,5.7c-0.9,2.5-2.8,3.5-5.5,3.4c-0.8,0-1.7,0-2.5,0c-124.8,0-249.6,0-374.4,0
	c-0.8,0-1.7,0-2.5,0c-2.4,0.2-4.4-0.6-5.3-2.9c-0.9-2.3-0.8-4.6,1.8-6c0.6,0.5,0.8,0.2,0.9-0.4c0.5-0.7,1.3-0.8,2.1-0.5
	c0.9,2.9,3.4,1.6,5.1,1.6c124.2,0.1,248.4,0.1,372.7,0C438.5,490,440.5,490.7,442,489z"/>
<path d="M442,489c-1.5,1.6-3.4,0.9-5.2,0.9c-124.2,0-248.4,0-372.7,0c-1.7,0-4.2,1.2-5.1-1.6c24.2-0.1,48.3-0.1,72.5-0.2
	c1.8,0,3.7-0.1,5.5-0.2c1.2,0.1,2.3,0.2,3.5,0.2c81,0,162.1,0,243.1,0c1.2,0,2.3-0.1,3.5-0.2c16.4,0.1,32.8,0.1,49.2,0.2
	C438.2,488.2,440.3,487.6,442,489z"/>
<path d="M131.1,483.4c52.5,0,104.9-0.1,157.4-0.1c28.8,0,57.6,0.1,86.4,0.1c-1.5,2.8-4.1,1.6-6.2,1.6c-77.4,0.1-154.8,0.1-232.2,0.1
	c-1.5,0-3,0-4.5,0c-0.3-0.3-0.6-0.6-0.9-0.8C131.1,483.9,131.1,483.6,131.1,483.4z"/>
<path d="M473.6,498.1c-5.8,0-11.6-0.1-17.4,0c-3.4,0.1-5.7-1.5-5.9-4.7c-0.2-3.6,2.3-5.3,5.8-5.4c11.6,0,23.3,0,34.9,0
	c3.4,0,6,1.3,6.1,5.1c0,3.8-2.5,5-6,5C485.2,498.1,479.4,498.1,473.6,498.1z"/>
<path d="M353.6,209.2c-5.3,0-10.6,0-15.9,0c-3.3,0-5.6-1.4-5.6-4.8c-0.1-3.5,2.2-5.1,5.4-5.2c10.5-0.1,20.9-0.1,31.4,0
	c3.3,0,5.6,1.6,5.6,5c0,3.6-2.3,5.1-5.9,5.1C363.5,209.1,358.6,209.2,353.6,209.2z"/>
<path d="M235,117.1c-7.6-0.1-13.5-6.3-13.3-13.8c0.2-7.6,6.2-13.4,13.9-13.3c7.5,0.1,13.6,6.4,13.4,13.9
	C248.8,111.3,242.6,117.2,235,117.1z M235.4,95.3c-4.3-0.1-8.4,3.8-8.4,8.2c0,4.2,3.5,8.1,7.7,8.3c4.4,0.3,8.4-3.4,8.5-7.9
	C243.5,99.3,239.9,95.5,235.4,95.3z"/>
<path d="M110,342c-0.9,0.1-1.5-0.2-2-1c0.1-0.1,0.2-0.2,0.2-0.3c0,0-0.2-0.2-0.2-0.2c-0.1,0-0.3,0.1-0.4,0.2c0,0-0.3-0.3-0.3-0.3
	c1-17.2,0.7-34.5,0.1-51.7c0,0,0.1-0.1,0.1-0.1c0.7,0,1.1-0.4,1.2-1c2.6-1.2,5-1.7,6.3,1.9c0,15-0.1,29.9-0.1,44.9
	c0,1.3-0.3,2.7,1,3.7c0.2,0.8,0.1,1.6-0.7,2.1c-0.4,0.4-0.8,0.8-1.1,1.2c0,0,0.1-0.1,0.1-0.1C112.7,341.1,111.2,340.5,110,342z"/>
<path d="M52.7,109.7c3.2,8.8,9.2,14.3,18.9,17.8c-9.7,3.6-15.9,8.9-18.8,17.9c-3.6-8.7-9.2-14.7-18-17.8
	C43.5,124.1,49.3,118.4,52.7,109.7z M43.8,127.5c4.6,1.8,7,4.5,8.9,8.6c1.8-4.1,4.3-6.8,9.1-8.7c-5.1-1.1-7-4.6-9.3-8.2
	C50.8,123.1,48.4,125.7,43.8,127.5z"/>
<path d="M14.9,498.1c-3.8,0-7.6-0.1-11.5,0c-3.6,0.1-6-1.4-6.1-5c0-3.3,2.4-5,5.6-5.1c7.8-0.1,15.6-0.1,23.4,0c3.3,0,5.5,2,5.3,5.3
	c-0.1,2.9-2.1,4.7-5.4,4.7C22.5,498.1,18.7,498.1,14.9,498.1z"/>
<path d="M388.4,432.3c-0.1-4.3-0.2-8.7-0.2-13c0-43.5,0-87,0-130.5c0-2,0.1-4,0.2-6c0.6,0,1.1,0.1,1.7,0.1c0,47.6,0,95.3-0.1,142.9
	C389.9,428.1,391,430.7,388.4,432.3z"/>
<path d="M447.9,269.8c2.5,0.3,3.3,1.8,3.1,3.8c-0.3,3,0.8,4.3,3.9,3.9c2-0.2,3.8,0.6,3.9,2.8c0.1,2.2-1.6,3.3-3.6,3.2
	c-3.2-0.2-4.6,0.7-4.2,4.1c0.2,2.1-0.8,3.7-3.1,3.6c-2.3-0.1-3.1-1.8-2.8-3.9c0.4-3.2-1-4.1-3.9-3.8c-2,0.2-3.8-0.6-3.9-2.9
	c-0.1-2.6,2-3.4,4.1-3.1c3.2,0.3,4.1-1.2,3.8-4.1C444.8,271.5,445.7,270,447.9,269.8z"/>
<path d="M60.8,45.6c-0.1,4.2-3.9,7.9-8,8c-4.5,0.1-8.2-3.7-8.2-8.2c0.1-4.5,4-8.2,8.4-8C57.2,37.6,60.9,41.5,60.8,45.6z"/>
<path d="M134.7,67c-0.3,2.6-2,3.3-4.2,3.1c-2.8-0.3-3.9,0.7-3.6,3.6c0.2,2.1-0.3,4.2-3,4.3c-2.7,0.1-3.2-2-3-4.1
	c0.4-3.3-1.3-4-4.1-3.7c-2,0.2-3.8-0.5-3.8-2.9c0-2.3,1.7-3.3,3.7-3.1c3.8,0.5,4.5-1.3,4.2-4.5c-0.2-1.9,1-3.2,2.9-3.2
	c1.7,0,3,1.3,2.9,2.8c-0.3,3.8,1,5.4,4.9,5C133.3,64.1,134.3,65.5,134.7,67z"/>
<path d="M35,286.1c4.6,0.1,8,3.7,8,8.4c-0.1,4.4-4,8.2-8.4,8c-4.4-0.2-7.9-4.1-7.7-8.6C27.2,289.5,30.8,286,35,286.1z"/>
<path d="M126,473c19.5,0.1,39,0.2,58.5,0.2c10.8,0,21.7,0.1,32.5,0.1c-0.7,2.4-2.7,1.6-4.2,1.6c-28.5,0-57.1,0-85.6,0
	c-1.5,0-3.5,0.7-4.1-1.6C124,473.2,125,473.1,126,473z"/>
<path d="M497.2,267.3c-2.4-7-6.1-10.9-13.3-13.1c6.9-2.5,11.1-5.7,13.1-11.7c2.7,5.4,6.3,9.4,12,11.6
	C503.3,256.5,499.5,260.3,497.2,267.3z M502.5,253.9c-2.7-0.9-3.8-3.2-5.8-5.3c-0.7,3.1-3.1,4-5.2,6c3.2,0.4,3.9,2.9,6,4.7
	C498.3,256.8,500.5,255.8,502.5,253.9z"/>
<path d="M366.6,71c-0.5,3.5-2.3,5.7-5.8,5.6c-3.2-0.1-5.3-2.2-5.3-5.5c0-3.2,1.9-5.4,5.2-5.5C364.1,65.5,366.1,67.6,366.6,71z"/>
<path d="M474.8,218.1c-3.4-0.3-5.6-2.3-5.5-5.7c0.1-3.4,2.2-5.5,5.7-5.4c3.6,0.1,5.6,2.2,5.6,5.6
	C480.6,215.9,478.4,217.9,474.8,218.1z"/>
<path d="M516.8,96.8c0,3.7-3.5,7-7.2,6.9c-3.6-0.2-6.6-3.3-6.6-6.9c0-3.8,3.2-6.9,7.1-6.8C513.7,90.1,516.8,93.3,516.8,96.8z
	 M509.9,92.8c-2.6,0.2-4,1.5-4,4.1c0,2.4,1.5,3.8,3.7,3.9c2.5,0.1,4.2-1.3,4.3-3.8C514,94.4,512.4,93,509.9,92.8z"/>
<path d="M107.6,288.7c0.6,17.2,0.8,34.5-0.1,51.7c-1.4-1.5-1.3-3.3-1.3-5.2c0-13.8,0-27.6,0-41.5C106.1,291.9,106,290.1,107.6,288.7
	z"/>
<path d="M116.5,467.9c-2.2-0.8-1.5-2.7-1.5-4.3c0-30.2,0-60.3,0-90.5c0-1.4-0.5-3.1,1-4.2c0.1,30.8,0.1,61.6,0.2,92.4
	C116.2,463.6,116.4,465.8,116.5,467.9z"/>
<path d="M195,209.2c-4.7,0.1-6.8-1.7-6.7-5c0-3.3,2.4-5.1,5.6-5c3,0.1,5.1,1.6,5.2,4.8C199.2,207.5,197.1,209.1,195,209.2z"/>
<path d="M42.8,488c3.1,0.4,5.4,1.7,5.3,5.2c-0.1,3.2-2,4.7-5.1,4.8c-3.4,0.1-5.6-1.6-5.7-4.8C37.2,490,39.5,488.3,42.8,488z"/>
<path d="M323,199.4c-0.6,2.1-2.3,1.6-3.7,1.6c-12.9,0-25.8,0-38.7,0c-1.4,0-3.1,0.4-3.6-1.7C292.3,199.4,307.7,199.4,323,199.4z"/>
<path d="M116.2,353c-0.3,3.1-1.9,5-5.1,4.9c-3.1-0.1-4.9-2.2-4.9-5.2c0.1-3,1.9-5,5.1-4.9C114.6,347.9,116.1,349.8,116.2,353z"/>
<path d="M116,338c-1.3-1-1-2.4-1-3.7c0-15,0-29.9,0.1-44.9c1.2,0.5,1.1,1.6,1.1,2.5C116.1,307.3,116,322.6,116,338z"/>
<path d="M385.9,32.8c-1.5-0.4-4.1,1-4.2-2c-0.1-3.5,2.8-2.1,4.4-2.1c1.5,0,4.1-1.2,4.2,1.8C390.5,33.8,387.6,32.4,385.9,32.8z"/>
<path d="M406.7,28.5c1.7,0.7,4.3-1.1,4.5,1.9c0.2,3.4-2.6,2.3-4.3,2.3c-1.7,0-4.6,1-4.4-2.3C402.7,27.4,405.4,29.3,406.7,28.5z"/>
<path d="M398.6,20.2c-0.5,1.7,1,4.6-2.4,4.4c-2.7-0.2-1.8-2.8-1.8-4.4c0-1.7-1.2-4.5,2.3-4.3C399.7,16.1,398,18.7,398.6,20.2z"/>
<path d="M394.3,40.9c0.4-1.6-0.9-4.2,2.1-4.1c3.4,0,1.9,2.9,2,4.5c0.1,1.6,1,4.2-1.9,4.1C393.2,45.4,394.8,42.5,394.3,40.9z"/>
<path d="M84,330.7c-1.4-0.8-2.9-1.6-2.3-2.7c1.2-2.3,3-4.4,5.5-5.3c1-0.4,2.5,1.1,2.1,2.1C88.3,327.4,85.8,328.8,84,330.7z"/>
<path d="M99.4,253.9c-1.4-0.5-1.4-1.7-1.4-2.9c0-11,0-22,0-33c0-1.2-0.1-2.4,1.3-3C99.3,228,99.4,241,99.4,253.9z"/>
<path d="M89.5,342.4c-0.4,1.7-1.3,3-2.4,2.5c-2.5-1-4.3-3.1-5.4-5.5c-0.3-0.7,1-2.5,2.2-2.1C86.4,338.3,87.7,340.8,89.5,342.4z"/>
<path d="M407.9,39.6c-0.6,1.3-1.6,2.8-2.5,2.2c-2.3-1.4-4.8-2.9-5.2-5.9c-0.1-0.8,1.1-2.1,2-1.7C404.7,35.3,406.3,37.6,407.9,39.6z"
	/>
<path d="M393.1,36.4c-1.4,2.1-3.2,4.1-5.5,5.4c-1.1,0.6-2.6-0.9-2.3-1.9c0.7-2.6,3-4.3,5.2-5.7C391.6,33.6,392.5,35.1,393.1,36.4z"
	/>
<path d="M68.8,322.2c2.4,1.5,4.4,3.4,5.7,5.6c0.7,1.2-1,2.5-1.8,2.3c-2.7-0.6-4.3-2.9-5.7-5.1C66.3,323.8,67.9,323.2,68.8,322.2z"/>
<path d="M80.2,323.1c-0.7,1.8,1.2,4.7-2.2,4.7c-2.9,0-1.9-2.6-1.9-4.2c0.1-1.7-1.3-4.5,2-4.5C81.3,319.1,79.3,321.9,80.2,323.1z"/>
<path d="M80.1,344.4c-0.5,1.6,1,4.2-1.9,4.3c-3.3,0-2-2.8-2-4.5c0-1.5-1.1-4.1,1.8-4.2C81.4,340,79.4,342.9,80.1,344.4z"/>
<path d="M67.4,336c-1.7-0.3-4.3,0.8-4.1-2.1c0.1-3.2,3-1.8,4.6-1.9c1.5-0.1,4.1-1.2,4,1.9C71.8,337.2,68.9,335.4,67.4,336z"/>
<path d="M88.4,331.7c1.7,0.7,4.3-1,4.5,1.9c0.2,3.4-2.7,2.2-4.4,2.2c-1.7,0-4.6,1.2-4.3-2.2C84.4,330.7,87.1,332.6,88.4,331.7z"/>
<path d="M390.4,27.2c-1.9-1.6-4.3-3.1-5.1-5.6c-0.4-1.1,1.5-2.5,2.2-2.1c2.3,1.3,4.5,3,5.4,5.5C393.2,26.1,391.8,26.8,390.4,27.2z"
	/>
<path d="M407.7,21.9c-1.7,1.8-3.1,4.1-5.6,5c-1,0.4-2.5-1.1-2-2.1c1-2.4,3.1-4.3,5.4-5.4C406.2,19.2,407.5,20.4,407.7,21.9z"/>
<path d="M74.8,339.4c-1.8,2.3-3.3,4.6-5.8,5.5c-1.1,0.4-2.5-1.2-2-2.2c1.2-2.3,3-4.4,5.6-5.2C73.1,337.4,74,338.7,74.8,339.4z"/>
<path d="M110,342c1.2-1.5,2.7-0.9,4.2-0.8C113,342.5,111.6,342.5,110,342z"/>
<path d="M107.7,340.7c0.1-0.1,0.2-0.2,0.4-0.2c0.1,0,0.2,0.2,0.2,0.2c0,0.1-0.2,0.2-0.2,0.3C107.8,341,107.7,340.9,107.7,340.7z"/>
<path d="M114.1,341.2c0.4-0.4,0.8-0.8,1.1-1.2C114.8,340.5,114.5,340.8,114.1,341.2z"/>
<path d="M108.8,287.6c-0.1,0.7-0.5,1-1.2,1C108,288.3,108.4,287.9,108.8,287.6z"/>
<path d="M116.5,274.2c-0.4-0.8,0.2-1.1,0.6-1.6l0.2,0.3l-0.3,0.2c0.1,0.2,0.1,0.5,0.2,0.7c-0.2,0.2-0.3,0.3-0.4,0.5
	C116.7,274.3,116.5,274.2,116.5,274.2z"/>
<path d="M57,488.8c-0.1,0.5-0.3,0.9-0.9,0.4C56.4,489.1,56.7,489,57,488.8z"/>
<path d="M131.1,483.4c0,0.3-0.1,0.5-0.1,0.8c-0.4-0.3-0.7-0.6-1.1-0.8C130.3,483.3,130.7,483.3,131.1,483.4z"/>
<path d="M377.9,282c0-2,0-4,0.1-5.9c0-0.7,0-1.4,0-2.1l0.3,0.1c2.5,0.5,1.7,2.5,1.7,4c0,49.9,0,99.8,0,149.8c0,1.5,0.6,3.5-1.6,4.2
	c-0.1-12.1-0.2-24.3-0.2-36.4c0-35.7,0-71.5,0-107.2c0-1.8-0.1-3.6-0.2-5.5C377.9,282.6,377.9,282.3,377.9,282z"/>
<path d="M280.9,473c0-0.3,0.1-0.7,0.1-1c28.4,0,56.8,0,85.2,0.1c1.9,0,4-0.7,5.7,0.8l0.1,0.4c-30.4,0-60.7,0.1-91.1,0.1L280.9,473z"
	/>
<path d="M383.3,452.2c-3.1-0.2-5-1.9-5.1-4.9c-0.1-3.1,1.7-5.1,4.8-5.2c3.1-0.1,5,1.8,5,4.9C388.1,450.1,386.4,451.8,383.3,452.2z"
	/>
<path d="M377.9,432c0,0.3,0.1,0.7,0.1,1C377.4,432.7,377.2,432.4,377.9,432z"/>
<path d="M377.9,282c0,0.3,0,0.7,0,1c-0.3-0.3-0.6-0.7-0.9-1C377.3,282,377.6,282,377.9,282z"/>
<path d="M227.9,473c-2.4-0.5-1.9-2.4-1.9-4c0-61.4,0-122.9,0-184.3c0-1.4-0.5-3.1,1.6-3.7c0.1,0.3,0.3,0.6,0.4,1
	c-0.1,0.7-0.2,1.3-0.2,2C227.8,347,227.9,410,227.9,473z"/>
<path d="M275.8,330.1c1.4,2.1,1,4.5,1,6.8c0,45.4,0.1,90.8,0.1,136.1c-2.4-0.5-1.8-2.5-1.8-4c0-45.2,0-90.4,0-135.6
	C275,332.2,274.8,331,275.8,330.1z"/>
<path d="M266.6,213.9c-10.3,0-20.6,0.1-31,0c-2.1,0-4.1-0.1-4.1,2.8c-1.2-0.2-2.4-0.5-3.6-0.7l-0.3,0.1c0.5-7,0.5-7,7.9-7
	c9,0,18,0.2,26.9-0.1C266.4,208.9,267.5,210.3,266.6,213.9z"/>
<path d="M281,473.4c30.4,0,60.7-0.1,91.1-0.1c-0.6,2.3-2.5,1.7-4.1,1.7c-27.6,0-55.2,0-82.8,0C283.6,475,281.7,475.7,281,473.4z"/>
<path d="M105.1,259.5c30.5,0.1,60.9,0.1,91.4,0.2c6.8,0,13.7,0.1,20.5,0.1c-1.3,1.9-3.4,1.1-5.1,1.1c-33.8,0-67.7,0.1-101.5,0
	C108.6,261,106.3,262,105.1,259.5z"/>
<path d="M279,259.9c0.7-0.1,1.3-0.3,2-0.4c23.1,0.1,46.1,0.2,69.2,0.2c12.9,0,25.9,0,38.8,0c-1,2-2.9,1.3-4.4,1.3
	c-33.6,0-67.3,0-100.9,0C282,261,280.2,261.5,279,259.9z"/>
<path d="M276.5,214c0.1,15,0.1,29.9,0.2,44.9c-1.5-0.3-1.7-1.3-1.7-2.6c0-13.4,0-26.7,0-40.1C275,215.2,275.4,214.3,276.5,214z"/>
<path d="M232,473.5c11.3,0,22.6,0,33.9-0.1c-0.3,1.5-1.4,1.6-2.7,1.6c-9.5,0-19,0-28.5,0C233.5,475,232.4,474.9,232,473.5z"/>
<path d="M104.7,258.3c0.3,0,0.5,0,0.8,0c-0.2,0.2-0.3,0.4-0.5,0.7c0,0-0.4-0.2-0.4-0.2L104.7,258.3z"/>
<path d="M231,473c0-0.3,0-0.6,0-1c0.2,0,0.5,0,0.7-0.1c0.1,0.3,0.2,0.7,0.2,1C231.7,473,231.3,473,231,473z"/>
<path d="M502.5,253.9c-2.1,1.9-4.2,2.9-4.9,5.4c-2.2-1.7-2.9-4.3-6-4.7c2.1-2.1,4.5-3,5.2-6C498.7,250.7,499.8,253,502.5,253.9z"/>
<path d="M509.9,92.8c2.5,0.2,4.1,1.6,3.9,4.1c-0.1,2.5-1.8,4-4.3,3.8c-2.2-0.1-3.7-1.5-3.7-3.9C505.9,94.3,507.4,93,509.9,92.8z"/>
<path d="M266.8,304.4c0-3.8,0-7.7,0-11.5c0-3.4,1.1-6,5-6c3.6,0,5,2.4,5,5.6c0.1,8,0.1,16,0,24c0,3.2-1.6,5.6-5.1,5.5
	c-3.5,0-4.9-2.3-4.9-5.6C266.8,312.4,266.8,308.4,266.8,304.4z"/>
</svg>
