<?xml version="1.0" encoding="utf-8"?>
<!-- Generator: Adobe Illustrator 22.1.0, SVG Export Plug-In . SVG Version: 6.00 Build 0)  -->
<svg version="1.1" id="Layer_1" xmlns="http://www.w3.org/2000/svg" xmlns:xlink="http://www.w3.org/1999/xlink" x="0px" y="0px"
	 viewBox="0 0 512 512" style="enable-background:new 0 0 512 512;" xml:space="preserve">
<path d="M188.1,449.5c0.7-0.8,1.5-1.3,1.7-1.1c0.7,0.7-0.7,2.6-1.9,2.6C187.3,451.1,187.3,450.5,188.1,449.5L188.1,449.5z
	 M196.5,449.6c1.1-0.9,3.7-1.6,5.8-1.6c5.3,0,4.8-1.1-2.4-5.8c-3.5-2.3-8-6.4-10.3-9.3c-2.2-2.9-6.1-7.7-8.6-10.6
	c-8.4-9.6-21.9-35.2-21.9-41.5c0-0.9-0.5-2.7-1.1-4l-1.1-2.3l-8.2-1.1c-4.5-0.6-10-0.8-12.2-0.4l-4,0.7l4.8,2.1
	c7.4,3.3,14.9,5,17.7,4c2.8-1,4.2-0.2,2,1.3s-9.7,0.3-17-2.6c-3.5-1.4-6.4-2.5-6.5-2.5c-1.4,0-4.6,11.2-4.2,14.6
	c0.6,5.8,5.3,12,8.6,11.5c1.3-0.2,3.4,0.2,4.7,0.9s3.4,1,4.9,0.7s2.6-0.1,2.6,0.4c0,1.3-9.8,1-10.2-0.3c-0.2-0.7-1.2-0.9-2.6-0.4
	l-2.3,0.7l1.2,1.4c1.5,1.9,1.1,1.8-3.4-0.5c-4.3-2.2-6.6-1.9-9.8,1.5c-1.2,1.3-3,2.4-3.8,2.4c-1,0-0.3-1,1.7-2.8l3.3-2.8l-2.5-1.2
	l-2.5-1.2l0,1.7l0,1.7l-1-1.5c-1.3-2-1.3-3.3,0-2.5c0.6,0.3,1-0.1,1-0.9s-0.4-1.6-0.9-1.6c-1.5,0-1.9-3.5-0.5-4.8l1.3-1.3l0.1,1.8
	c0.1,1,0.1,2.1,0,2.5s0.3,1.9,0.9,3.3c1.2,3.1,3.4,3.5,2.5,0.4c-0.5-1.4-0.3-1.9,0.4-1.4c0.6,0.4,1.1,1.4,1.1,2.4l0,1.7l4.5,0
	c5.3,0,5.2,0.3,1.9-4.1l-2.6-3.4l-0.1-5.3c-0.1-4,0.6-6.5,2.5-9.9l2.6-4.6l-1.6-0.7c-0.9-0.4-3.1-0.8-4.9-0.9s-4.6-1.2-6.2-2.3
	c-3.6-2.7-4.4-2.7-3-0.2l1,1.9l-2.6-0.3c-1.4-0.2-2.9-0.7-3.2-1.2s-1.5-0.9-2.6-0.9c-1.3,0-2.1-0.8-2.3-2.3
	c-0.2-1.3,0.2-2.3,0.9-2.3c0.9,0,0.9-0.4-0.1-1.5c-0.8-0.9-0.9-1.5-0.2-1.5c0.6,0,1.3,0.5,1.7,1s1.1,1,1.7,1s0.3-0.9-0.7-2
	c-1.4-1.5-2.6-1.9-4.7-1.4c-1.9,0.4-2.8,0.2-2.8-0.6c0-1.8-5,3.1-6.1,6c-0.6,1.7-0.6,2.6,0.2,3.1c0.8,0.5,0.8,0.9,0,1.4
	c-0.6,0.4-1.4-0.1-1.8-1l-0.6-1.7l-1.3,2.4c-1.6,2.9-1.8,6.9-0.3,6.9c0.6,0,0.8-0.5,0.4-1s-0.1-1,0.5-1c0.6,0,1,1.2,0.8,2.8
	c-0.2,1.9,0.1,2.8,1.2,2.8c0.8,0,1.4-0.8,1.4-1.7s0.3-1.5,0.8-1.2c2,1.2-2.3,7.4-5.2,7.4c-0.9,0-0.7-0.5,0.5-1.3l1.8-1.3l-1.4-2.2
	c-2.1-3.3-4.2-2.8-3.7,0.8c0.3,1.9,0,3-0.8,3c-1.4,0-2.8,2.8-2.5,5l0.2,1.5l-0.9-1.3l-0.9-1.3l-1.3,1.5c-0.7,0.8-1,2.3-0.6,3.2
	l0.6,1.7l2.3-2.1c2.6-2.5,3.8-2.8,3.1-0.7c-0.3,0.8-1.4,1.6-2.5,1.9c-2,0.5-2.7,3.7-0.9,3.7c0.6,0,0.8,0.4,0.5,0.9
	c-0.5,0.8,2,8.1,2.8,8.1c0.2,0,0.2-2.7,0-6l-0.3-6h3.2l-1.2,1.5l-1.2,1.5l1.6,0.6c3.4,1.3,4.9-2.2,2.2-4.9l-1.5-1.5l2-0.6
	c1.1-0.3,2-1.4,2-2.4c0-2.3,0.9-3.1,2.5-2.4c1,0.4,0.6,1.3-1.4,3.2l-2.8,2.7l1.3,3.2l1.3,3.2h-1.5c-0.8,0-1.5,0.5-1.5,1.1
	c0,0.7,0.7,0.8,1.8,0.3c1-0.4,3.3-0.7,5.1-0.6c2.3,0.1,3.2-0.2,2.9-1.1c-0.2-0.7-1.4-1.2-2.5-1c-1.4,0.2-2-0.3-1.8-1.5
	c0.2-0.9-0.2-2.3-0.7-2.9c-0.7-0.8-0.3-2,1.1-3.8c1.4-1.8,1.9-3.6,1.6-6.3c-0.2-2-0.2-2.9,0.1-2s0.9,1.8,1.4,1.8s0.6,0.7,0.3,1.5
	c-0.9,2.2,0.6,3.9,2,2.3c0.6-0.7,1-1.1,0.9-0.9c-0.6,1,2,2.9,3.3,2.4l1.5-0.6l-1.2-1.4l-1.2-1.4l1.6,0.6c1.9,0.7,2.1,1.6,0.5,3.2
	c-0.9,0.9-0.9,1.5,0,2.5c1.1,1.4,0.6,2.7-1.1,2.7c-0.5,0-0.6-0.5-0.2-1.1c0.7-1.1-2.2-4.9-3.6-4.9c-0.4,0-0.2,1.2,0.6,2.7
	s1.2,3,0.9,3.5s0.1,0.8,0.8,0.8s0.2,0.8-1.1,1.8l-2.4,1.8l1.7,0.7c0.9,0.4,2.7,0.7,3.9,0.8l2.2,0.1l-2.5,0.7c-1.4,0.4-3,0.4-3.6-0.1
	c-2-1.6-3.5,1.5-1.9,3.9c1.5,2.2,5.4,2.1,5.5-0.1c0-0.6,0.6-0.4,1.3,0.4s2.1,1.9,3.2,2.4c1.3,0.5,1.6,1,0.7,1.3
	c-0.7,0.3-1.9-0.1-2.7-0.7c-1.1-0.9-2.2-0.9-4.6-0.1c-1.8,0.6-3.2,1-3.3,0.9c-1.7-5-5.9-8.8-7.7-7l-1.2,1.2l1.2,1.5
	c0.7,0.8,1,2,0.6,2.5c-0.4,0.6,0.2,1,1.4,1c1.1,0,2.3,0.5,2.7,1.2c0.5,0.8,0.2,0.9-1.2,0.4c-1.1-0.4-6.2-1-11.4-1.2
	c-6.7-0.3-10-0.9-11.2-2c-1.3-1.2-2.8-1.4-6-0.9c-2.4,0.4-7.1,0.6-10.5,0.6s-8,0.3-10.3,0.8s-4.1,0.5-4.1,0.1
	c0-1.3,6.5-2.1,26.6-3.2l4.1-0.2l-0.5-1.8c-0.8-3,2.7-10.5,6.4-13.7c2.4-2.1,4-4.8,5-8.3c2.3-7.6,4.9-12.4,9.9-17.7l4.4-4.7
	l-1.8-1.7c-1-0.9-6-3-11.1-4.7c-10.3-3.3-16.9-6.8-18.8-9.9c-0.7-1.1-1.7-2-2.2-2s-4.2-2.1-8.2-4.6l-7.2-4.6l-6.5-0.9
	c-17.7-2.3-21.6-3.3-22.4-5.4c-0.3-0.8-1.4-1.5-2.5-1.5s-2.2-0.7-2.5-1.5s-1.7-1.9-3.1-2.5l-2.5-1v-14.9L19,298
	c2.7-2.3,6-5.8,7.4-7.9c2.3-3.4,7.6-6.7,18.2-11.3c1.8-0.8,6-0.6,20,0.6c1.7,0.1,6.2,1.2,10,2.4c3.8,1.2,8.2,2.4,9.7,2.7
	c3.3,0.7,17.5,14.1,23.8,22.4c4.3,5.7,8.4,9.2,12.4,10.8l1.9,0.7l-0.9-1.6c-0.5-0.9-3.7-4.6-7.1-8.2c-7.2-7.7-7.4-8.3-3-12.9
	c1.8-1.9,4.6-5.1,6.2-7.1c3.6-4.5,11.6-9.2,17-10c5.1-0.8,9.6-2.5,9.6-3.6c0-2.5,7.7-16.9,14.7-27.4c3.1-4.7,14-14.7,20.7-19
	l2.9-1.9l-4.7-1.2c-2.6-0.7-6.9-1.5-9.6-1.9s-4.9-1.1-4.9-1.6c0-1,4.2-0.5,13,1.8c7.3,1.8,8.2,1.8,17.5-1.2l8-2.6l9.8,0.7l9.8,0.7
	l4.4-4c17.2-15.8,61.9-22.2,78-11.2c2.3,1.6,5.5,3.1,7.1,3.3l2.9,0.4l-3.3,0.1c-2.3,0.1-4.7-0.8-7.5-2.9
	c-15.7-11.3-60.4-4.1-76.9,12.4c-1.5,1.5-3.8,2.6-5.2,2.6c-3.3,0-3.2,0.6,0.6,3.8c4.3,3.6,7,5.1,9.4,5.1c2.6,0,5.8,3.5,5.1,5.4
	c-0.6,1.5-2.9,2.9-11.3,7c-9.9,4.7-23,14.6-37.8,28.6c-9.4,8.9-15.7,14.1-17,14.1c-4.1,0-14.1-3.1-17.6-5.5c-2-1.3-4.8-2.5-6.4-2.5
	h-2.8l6.9,3.6c16.1,8.3,16.2,11.1,0.6,17.8c-12.3,5.3-15.7,5.6-25.3,2.8c-3.5-1-7.6-2.2-9.1-2.5s-2.8-1.1-2.8-1.7
	c0-0.7-0.5-0.7-1.5,0.1c-2,1.7-1.9,4,0.2,5.6c1.2,0.9,2.1,1,2.9,0.3c0.8-0.7,2.9-0.4,6.5,0.7c2.9,0.9,6.9,2.1,8.8,2.7
	c6.2,1.8,7.6,3.3,10,11c2.6,8.2,6,12.5,14.8,18.6c3.4,2.3,5.5,4.6,5.8,6.2c1.4,6.7,4.4,10.7,27.1,35.3c4.3,4.7,12.8,10.6,21.3,14.9
	l6.5,3.2l20.5,0.1c11.3,0.1,25.2,0.5,31,0.9c6.8,0.5,12.1,0.4,15-0.3c3.3-0.8,7.3-0.8,14.7,0.1l10.2,1.2l7.5-1.9l7.5-1.9l4.8,1.7
	c7.5,2.7,30.4,2,47.7-1.4c5.6-1.1,7.2-0.5,3,1.1c-7.9,3.1-48.1,4.6-50.7,2c-1.5-1.5-6.4-1.3-14.3,0.5l-6.8,1.6l-9.2-1.1
	c-6.7-0.8-10.8-0.9-15.1-0.1c-4.3,0.8-9.3,0.8-18.3-0.1c-6.8-0.7-14.4-1.1-16.9-1s-10.3,0.2-17.5,0.1l-13-0.1l-7.4-3.4
	c-4-1.9-8.6-4.4-10-5.5s-5-3.8-7.9-6s-6.4-5.7-7.8-7.9c-2.4-3.6-6.4-4.8-6.4-1.9c0,0.5-1.5,1.6-3.3,2.3l-3.3,1.4l-3.8-3.6l-3.8-3.6
	l-1.7,1.7c-1.3,1.3-1.4,2-0.6,2.8c0.6,0.6,0.9,1.8,0.6,2.6s-0.2,1.8,0.3,2.1c1.3,0.9,3.5,10.1,2.8,11.3c-0.3,0.5,0.4,1.3,1.6,1.6
	c1.5,0.4,1.8,0.8,1,1.3c-0.9,0.5-0.1,2.7,2.8,7.6c2.2,3.8,5.1,8.9,6.5,11.4s4.7,7,7.4,10.1s6.4,7.6,8.3,10.1
	c1.9,2.5,5.1,5.7,7.1,7.1l3.6,2.6l4.4-0.8l4.4-0.8l-2.8-1.2c-1.8-0.7-3.4-0.8-4.5-0.2c-1.7,0.9-5.2-0.7-5.2-2.5
	c0-0.5,0.5-0.3,1.2,0.4c1.4,1.4,3.8,1.6,3.8,0.2c0-0.5-1.1-1.3-2.5-1.6s-2.5-1.1-2.5-1.6s-0.4-0.7-0.8-0.4c-1.3,0.8-5.2-2.3-5.1-4.2
	c0-1.2,0.3-1.1,1,0.6c0.8,2.1,4,3.3,3.9,1.5c-0.1-1.3-2.6-4.3-3.7-4.3c-0.6,0-1-0.8-0.9-1.8s-0.3-1.7-0.9-1.6s-1.9-1-3-2.5l-2-2.7
	l1.7,1.4c2,1.6,3.2,0.9,2.3-1.5c-0.4-1.1-1.3-1.5-2.8-1.1l-2.1,0.6l1.2-1.2l1.2-1.2l2,1.2l2,1.2v-1.5c0-0.8,0.5-1.5,1-1.5
	s1.4-1,1.8-2.2l0.8-2.2l0.6,1.7c0.4,0.9,0.2,1.7-0.2,1.7s0,1.7,1,3.7c1.8,3.6,1.7,6.4-0.2,3.2c-0.9-1.6-4.9-1.5-4.9,0.2
	c0,0.9,2,2.3,3.5,2.5l2.3,0.3c1.5,0.2,1.7,3.8,0.2,4.7c-0.6,0.3-0.8,1.1-0.4,1.6s1.1,0.7,1.6,0.3c0.7-0.4,0.8,0.1,0.4,1.5l-0.7,2.1
	h2.1c2.4,0,2.6-1,0.8-2.9l-1.3-1.3l1.8,0.7c1.2,0.4,1.7,1.4,1.3,2.6c-0.5,2.1,0.8,3.5,1.8,1.8c0.4-0.6,1.6-0.9,2.8-0.8l2.2,0.3
	l0-3.8c0-2.1,0.2-3.7,0.5-3.7c0.9,0,2.5,1.4,4,3.5l1.5,2l-1.4-1.3c-2.1-1.9-3-1.5-3,1.3c0,1.4,0.5,2.5,1.1,2.5s0.8-0.5,0.4-1
	s-0.1-1,0.4-1s1.1,0.7,1.1,1.6c0,1.2-0.7,1.5-2.5,1.1c-1.9-0.4-2.5-0.1-2.5,1.3c0,2.2,2.6,4.4,4.1,3.4c0.8-0.5,0.8-1-0.2-1.6
	c-1-0.7-0.9-0.8,0.6-0.6c1.1,0.2,2,1.1,2,2.1c0,1,0.7,2.2,1.5,2.7c0.9,0.6,1,1,0.3,1c-0.7,0-1.5-0.4-1.8-1c-1.2-2-2.6-1-1.5,1.1
	c0.6,1.1,1.9,1.9,2.9,1.8c1-0.2,1.9,0.1,2,0.7s0.7,1.6,1.3,2.3c0.7,0.9,0.7,1.3,0,1.3c-0.6,0-1.3-0.4-1.6-0.9
	c-1.1-1.7-6.7-2.1-10.9-0.7c-2.3,0.8-5.6,1.3-7.2,1.3s-3.9,0.3-5,0.7l-2,0.8L196.5,449.6L196.5,449.6z M213.1,445
	c0-1.5-4.6-3.3-6.5-2.6l-1.7,0.6l1.2,1.5C207.5,446.2,213.1,446.6,213.1,445L213.1,445z M208.9,436.9c-0.6-1.9-2.8-2.2-2.8-0.4
	c0,0.9,0.7,1.6,1.6,1.6S209.1,437.5,208.9,436.9L208.9,436.9z M198.1,426.1c0-0.5-0.4-1.2-1-1.6s-1,0.1-1,0.9s0.4,1.6,1,1.6
	S198.1,426.6,198.1,426.1z M195.2,417.6c0-0.5-0.5-1.1-1.1-1.3s-1.1,0.4-1.1,1.3s0.5,1.5,1.1,1.3S195.2,418.1,195.2,417.6z
	 M96.1,406.5c0-1.1-3.3-5.5-4.1-5.5c-1,0-1.2,4.3-0.2,5.3C92.6,407.2,96.1,407.3,96.1,406.5L96.1,406.5z M86.1,405.1
	c0-2.1-2.4-6-3.7-6c-1.8,0-1.7-1.7,0.1-2.7l1.4-0.8l-1.4-1.3l-1.4-1.3l-1,2.6c-1.1,3-1.3,6.6-0.4,8.9
	C80.4,406.2,86.1,406.8,86.1,405.1L86.1,405.1z M106.6,396.1c0.3-0.5,0.1-1.2-0.5-1.6s-0.9-1.2-0.6-1.9s-0.2-2.1-0.9-3.1l-1.4-1.9
	l-1.7,1.7l-1.7,1.7l1.5,0.9c0.8,0.5,1.1,1,0.7,1s-0.3,0.9,0.3,2C103.2,397.2,105.6,397.7,106.6,396.1L106.6,396.1z M170.9,373.9
	c-0.6-1.8-5.6-5.3-6.4-4.5c-0.9,0.9,3.6,5.7,5.4,5.7C170.6,375.1,171.1,374.5,170.9,373.9z M171.7,369.2c-1.9-1.9-2.9-2.3-3.7-1.5
	s-0.1,1.9,2.2,3.8C174.3,375,175.5,373,171.7,369.2z M114.9,367.3c-0.5-0.7-1.7-1.3-2.5-1.3s-1.3,0.6-1,1.3s1,1.1,1.7,1
	s0.9,0.2,0.6,0.8s-0.3,1.6,0.1,2.2c0.5,0.8,1,0.6,1.4-0.8C115.5,369.4,115.4,368,114.9,367.3L114.9,367.3z M133.6,370.8
	c1.1-0.1,6,0.2,10.9,0.6l8.9,0.8l-0.8-1.3l-0.8-1.3l1.8,1.4l1.8,1.4l3.3-1.8c2.2-1.2,3.2-2.3,2.8-3.3l-0.6-1.5l2.2,1.2l2.2,1.2
	l3-1.8c4.4-2.6,0.3-11.4-4.6-9.8c-1.4,0.5-1.5,0.4-0.5-0.4l1.4-1l-1.1-2.1c-2-3.7-3.5-2.4-3.3,2.6c0.1,1.6-0.5,1.6-2.1,0.1l-1.3-1.2
	l2.2-2.4l2.2-2.4l-1.1-2.4c-1.2-2.6-1.9-2.9-3.3-1.5c-0.6,0.6-1-0.1-1.1-2c-0.1-1.6,0.3-2.9,0.8-2.9s0.9,0.7,0.9,1.5s0.4,1.5,1,1.5
	c1.7,0,1.1-2.1-1.3-4.1c-3-2.5-5.1-2.5-4.5,0.1c0.6,2.5-0.1,2.6-1.9,0.3l-1.4-1.8l-1,1.8c-1.7,2.9-2.9,2-1.6-1.3c0.6-1.6,1.5-3,2-3
	s0.6,0.5,0.2,1s0.1,1,0.9,1c2.4,0,1.9-0.9-3.8-6.9l-5.3-5.6l-1.8-6.8l-1.8-6.8l-3.9-2c-3.5-1.8-7.1-2.8-16.2-4.6l-2.9-0.6l1.1,1.9
	c0.6,1,3.3,4.3,6.1,7.3l5,5.4l5.8,0l5.8,0l-4.8,1.2c-3,0.7-4.5,1.5-4,2.1c0.5,0.5-0.1,0.3-1.2-0.6s-4.3-2.3-7-3.2
	c-5.7-1.8-8.4-4.1-14.8-12.3c-2.5-3.2-7.7-8.9-11.5-12.6l-7-6.8l-9.8-2.8c-5.4-1.5-14.2-3.3-19.5-3.9l-9.7-1.1l-3.3,1.4
	c-1.8,0.8-4.9,2-6.8,2.7c-2,0.7-7.5,5.3-12.9,10.6l-9.4,9.3l-0.4,5.9c-0.3,4.4,0,6.3,1.2,7.5l1.6,1.6l10.7-0.7
	c6.1-0.4,11-0.3,11.3,0.2c0.3,0.5-3.4,0.9-8.4,1c-5.3,0-9.4,0.5-10.1,1.2c-0.9,0.9-0.5,1.2,1.5,1.2c1.7,0,3.1,0.8,3.8,2.1l1.1,2.1
	l5.3-0.3c2.9-0.2,5.1,0,4.9,0.3c-0.8,1.2,6.6,3,9.7,2.3l3.1-0.7l8.2,5c4.5,2.8,9.4,5.5,10.9,6.1s2.7,1.5,2.7,2.1
	c0,2.2,8.3,6.9,16.7,9.5c6.2,1.9,10.5,4.1,14.7,7.3c3.3,2.5,6.5,4.6,7.2,4.6s1.1,0.4,1,1s2.2,3,5.2,5.4l5.4,4.5l4.1-0.6
	C129.8,371.3,132.5,370.9,133.6,370.8L133.6,370.8z M129.4,369.4c0.4-0.4,1-0.4,1.3,0s0.1,0.7-0.7,0.7S129.1,369.8,129.4,369.4
	L129.4,369.4z M124.5,367.5l-1.9-1.6l2.5,1.2c3.1,1.5,3.6,1.9,2.4,1.9C126.9,369.1,125.6,368.4,124.5,367.5L124.5,367.5z
	 M144.4,368.4c0.4-0.4,1-0.4,1.3,0s0.1,0.7-0.7,0.7S144.1,368.8,144.4,368.4L144.4,368.4z M142.1,366c0-0.6,0.4-0.8,1-0.4
	s1,0.8,1,1.1s-0.4,0.4-1,0.4S142.1,366.6,142.1,366z M150.3,365.8c-0.7-0.7-1.2-1.6-1.2-2.1s0.7-0.1,1.6,0.7s1.4,1.8,1.2,2.1
	S150.9,366.5,150.3,365.8z M154.9,366.4c0.7-0.3,1.6-0.3,1.9,0.1s-0.3,0.6-1.3,0.5C154.4,366.9,154.1,366.7,154.9,366.4L154.9,366.4
	z M117.5,363.9c-0.4-0.7-0.3-0.9,0.4-0.4c1.2,0.7,1.5,1.6,0.7,1.6C118.4,365.1,117.9,364.5,117.5,363.9z M160.6,364.1
	c0.3-0.5,0.8-1,1.1-1s0.2,0.5-0.1,1s-0.8,1-1.1,1S160.3,364.6,160.6,364.1z M155.1,362.3c0-1,0.3-1.3,0.8-0.8
	c0.4,0.5,1.2,1.3,1.7,1.8s0.2,0.8-0.8,0.8C155.8,364.1,155.1,363.3,155.1,362.3L155.1,362.3z M164.1,362.6c-0.7-0.8-0.9-1.5-0.6-1.5
	s1.4,0.7,2.2,1.5s1.1,1.5,0.6,1.5S164.8,363.4,164.1,362.6L164.1,362.6z M129.1,362.1c0-0.7,0.3-1,0.7-0.7s0.4,1,0,1.3
	S129.1,362.8,129.1,362.1z M118,360.3l-1.4-1.8l2,1.5c1.1,0.8,2.2,1.6,2.4,1.8s-0.1,0.3-0.6,0.3S118.7,361.3,118,360.3L118,360.3z
	 M138.1,360.1c0-0.7,0.3-1,0.7-0.7s0.4,1,0,1.3S138.1,360.8,138.1,360.1z M159.1,360.1c0-0.7,0.3-1,0.7-0.7s0.4,1,0,1.3
	S159.1,360.8,159.1,360.1z M144.2,357.8l-0.8-2.3l2.3-1.2c1.2-0.7,2.5-2.1,2.8-3.1l0.5-1.9l-1.9,0.5c-1.2,0.3-1.9,0-1.9-1
	c0-0.8-0.7-2.1-1.5-2.7l-1.5-1.2l-2.5,1.6c-3.3,2.1-3.8,2-2.5-0.5c0.6-1.1,0.9-2.3,0.6-2.6c-1-1-2.6,0.8-2.8,3l-0.1,2.2l-0.5-1.8
	c-0.6-2.1-1.7-2.2-3.2-0.3l-1.2,1.4l1.8,1.2l1.8,1.2l-1.8-0.6c-1-0.3-2-0.6-2.3-0.6s-0.4-0.6-0.4-1.4s-1-1.6-2.3-1.9
	c-1.4-0.3-0.9-0.5,1.4-0.6c3.6-0.1,5.9-1.6,3.6-2.4c-0.7-0.2-0.3-1.2,1.2-2.6c2.6-2.4,4-2.2,2,0.3c-0.7,0.9-1,1.9-0.6,2.3
	s1.1,0,1.7-1c1.2-2.1,4-1.2,3.2,0.9c-0.4,1-0.1,1.4,0.8,1.1c0.8-0.3,1.6-1.3,1.8-2.4c0.6-3.5,1.8-3.5,1.3,0.1
	c-0.5,3.9,0.6,4.4,4.2,2l2.3-1.5l0.6,1.7c0.8,2.1-0.2,3.3-1.3,1.5c-0.5-0.7-1.3-1-1.9-0.7c-1.6,1-1.3,3.6,0.4,3.6
	c1.7,0,3.5,3.8,2.7,5.8c-0.3,0.7-1,1.2-1.6,1.1c-2.7-0.3-3.6,0.2-3.6,2c0,1.1,0.8,2.1,1.8,2.4l1.8,0.5l-1.8,0.1
	C145.8,360,144.7,359.1,144.2,357.8L144.2,357.8z M152.1,358c0-1.4,0.5-3.1,1.2-3.8l1.2-1.2l-1.2-0.7c-0.8-0.5-0.9-1.3-0.3-2.2
	l0.9-1.4l0.6,1.6c0.3,0.9-0.1,3.6-0.9,6l-1.5,4.3L152.1,358L152.1,358z M128.7,358.3c0.6-0.4,1.3-1.3,1.5-2c0.3-0.8,0.8-0.6,1.7,0.8
	l1.3,2l-2.8,0C128.8,359,128.1,358.7,128.7,358.3L128.7,358.3z M136.2,357.7c0.2-0.2,1.8-0.7,3.4-1c2.2-0.5,2.6-0.4,1.5,0.3
	C139.7,357.9,135.2,358.6,136.2,357.7z M120.7,356.3c0.5-0.4,1.2-1.2,1.7-1.8c0.4-0.6,0.8-0.2,0.8,0.8c0,1-0.7,1.8-1.7,1.8
	C120.5,357.1,120.2,356.7,120.7,356.3L120.7,356.3z M110.6,355.1c-0.4-0.6,0.1-0.7,0.9-0.4c1.7,0.7,2,1.4,0.6,1.4
	C111.6,356.1,110.9,355.6,110.6,355.1L110.6,355.1z M136.1,355.1c0-0.5,0.7-0.7,1.5-0.4s1.5,0.8,1.5,1s-0.7,0.4-1.5,0.4
	S136.1,355.6,136.1,355.1z M113.1,353.1c-0.8-0.5-1.1-1-0.5-1s1.7,0.4,2.5,1s1.1,1,0.5,1S113.9,353.6,113.1,353.1z M128.7,352.2
	c-0.3-0.5,0.3-0.7,1.4-0.4c2.3,0.6,2.6,1.3,0.6,1.3C129.9,353.1,129,352.7,128.7,352.2L128.7,352.2z M143.6,352.1
	c0.3-0.5,0.8-1,1.1-1s0.4,0.5,0.4,1s-0.5,1-1.1,1S143.3,352.6,143.6,352.1z M119.6,351.1c-0.4-0.6,0.1-0.7,0.9-0.4
	c1.7,0.7,2,1.4,0.6,1.4C120.6,352.1,119.9,351.6,119.6,351.1L119.6,351.1z M125.2,350.5c0-1.2,0.3-1.4,0.6-0.6
	c0.3,0.7,0.3,1.6-0.1,1.9S125.1,351.5,125.2,350.5L125.2,350.5z M135.8,350.9c0.7-0.7,1.5-1,1.8-0.7s-0.2,0.9-1.2,1.2l-1.8,0.7
	L135.8,350.9z M140.1,350.1c0-1.1,0.4-2.2,0.9-2.5s0.8,0.6,0.8,1.9C141.6,352.5,140.1,353,140.1,350.1z M98.1,348.5
	c-1.4-0.8-1.8-1.4-1-1.4c0.8,0,2.4,0.7,3.4,1.5C102.9,350.4,101.5,350.3,98.1,348.5z M111.4,349.4c0.4-0.4,1-0.4,1.3,0
	s0.1,0.7-0.7,0.7S111.1,349.8,111.4,349.4L111.4,349.4z M108.4,348.4c0.4-0.4,1-0.4,1.3,0s0.1,0.7-0.7,0.7S108.1,348.8,108.4,348.4
	L108.4,348.4z M117.8,348.4c-0.9-0.9-0.8-2.3,0.2-2.3c0.5,0,0.8,0.7,0.8,1.5C118.8,349.3,118.7,349.3,117.8,348.4L117.8,348.4z
	 M110.4,346.5c-0.3-0.8-0.4-1.8-0.1-2s0.7,0.4,1,1.5C112,348.4,111.3,348.8,110.4,346.5L110.4,346.5z M151.4,347.4
	c0.4-0.4,1-0.4,1.3,0s0.1,0.7-0.7,0.7S151.1,347.8,151.4,347.4L151.4,347.4z M99.6,345.5c-1.7-0.8-2.3-1.4-1.5-1.4s2.6,0.6,4,1.4
	C105.3,347.4,103.6,347.3,99.6,345.5z M122.4,345.4c0.4-0.4,1-0.4,1.3,0s0.1,0.7-0.7,0.7S122.1,345.8,122.4,345.4L122.4,345.4z
	 M87.5,342.9c-0.4-0.7-0.3-0.9,0.4-0.4c0.6,0.4,1.2,0.9,1.2,1.2C89.1,344.5,88.2,344.1,87.5,342.9z M121.2,341.5
	c0-1.2,0.3-1.4,0.6-0.6c0.3,0.7,0.3,1.6-0.1,1.9S121.1,342.5,121.2,341.5L121.2,341.5z M89.6,341.1c-0.4-0.6,0.1-0.7,0.9-0.4
	c1.7,0.7,2,1.4,0.6,1.4C90.6,342.1,89.9,341.6,89.6,341.1L89.6,341.1z M102.1,341.1c-0.9-0.6-1-1-0.3-1c0.7,0,1.5,0.4,1.8,1
	C104.4,342.3,104,342.3,102.1,341.1L102.1,341.1z M114.1,340.1c0-0.7,0.3-1,0.7-0.7s0.4,1,0,1.3S114.1,340.8,114.1,340.1z
	 M125.3,340.4c-0.7-0.3-1.3-1.2-1.3-2.1v-1.6l1.4,1.9l1.4,1.9l1.6-2l1.6-2l-0.6,1.8c-0.3,1-0.6,2-0.6,2.3
	C129.1,341.2,126.9,341,125.3,340.4L125.3,340.4z M77.6,336.5l-3-2.6l3.3,2.2c1.8,1.2,3.3,2.3,3.3,2.6
	C81.1,339.4,80.7,339.1,77.6,336.5L77.6,336.5z M131.1,337.6c0-0.8,0.4-1.5,1-1.5s0.7,0.7,0.4,1.5s-0.8,1.5-1,1.5
	S131.1,338.4,131.1,337.6z M137.5,337.6c-0.8-2.1-0.1-4.8,1.4-5.3l1.3-0.4l-1,2.7c-1.4,3.6-1.3,3.8,1,3.2c1.1-0.3,1.7-0.1,1.4,0.4
	C140.7,339.6,138.1,339.2,137.5,337.6L137.5,337.6z M84.7,336.5c-1.1-0.8-1.5-1.5-0.9-1.5s1.6,0.7,2.3,1.5
	C87.7,338.4,87.2,338.4,84.7,336.5L84.7,336.5z M104.6,337.1c-0.3-0.5-0.2-1.2,0.3-1.5s0.8,0.1,0.8,0.9
	C105.8,338.3,105.4,338.4,104.6,337.1L104.6,337.1z M127.9,334.6l-1.7-1.3l1-3.7c1.3-4.7,2.1-4.7,1.3,0c-0.4,2.4-0.2,3.9,0.7,4.4
	c0.7,0.4,1.1,1,0.8,1.3S128.8,335.3,127.9,334.6L127.9,334.6z M118.1,333.6c-0.7-0.9-0.9-2.2-0.5-3.3l0.8-1.8l0.5,2
	c0.2,1.1,0.9,2.6,1.5,3.3c0.7,0.8,0.7,1.3,0,1.3C119.8,335.1,118.8,334.4,118.1,333.6L118.1,333.6z M134.2,333.4
	c0.7-1.2,1.5-2,1.8-1.7s-0.3,1.3-1.3,2.2l-1.8,1.7L134.2,333.4z M142.4,333.1c-0.3-1.1-0.9-2-1.5-2s-0.7-0.5-0.3-1
	c0.7-1.2,3.5,1.2,3.5,3c0,0.6,0.5,0.8,1.2,0.4c0.7-0.4,0.9-0.3,0.4,0.4C144.6,335.7,143,335.3,142.4,333.1L142.4,333.1z
	 M123.2,332.4c0.7-1.2,1.5-2,1.8-1.7s-0.3,1.3-1.3,2.2l-1.8,1.7L123.2,332.4z M131.1,333.1c0-0.7,0.3-1,0.7-0.7s0.4,1,0,1.3
	S131.1,333.8,131.1,333.1z M79.5,331.9c-0.4-0.7-0.3-0.9,0.4-0.4c0.6,0.4,1.2,0.9,1.2,1.2C81.1,333.5,80.2,333.1,79.5,331.9z
	 M112.6,332.1c-0.3-0.5-0.2-1,0.4-1s1.3,0.5,1.6,1s0.2,1-0.4,1S112.9,332.6,112.6,332.1z M106.4,330.4c0.4-0.4,1-0.4,1.3,0
	s0.1,0.7-0.7,0.7S106.1,330.8,106.4,330.4L106.4,330.4z M136.1,328.6c-0.7-0.8-1-2.3-0.7-3.3c0.3-1.3,0.5-1.2,0.6,0.6l0.1,2.4
	l2.1-0.5l2.1-0.5l-1.2,1.4C137.6,330.4,137.6,330.4,136.1,328.6L136.1,328.6z M115.1,326.1c0-1.1,0.4-2.2,1-2.6s1,0.3,1,1.4
	s0.6,2.2,1.3,2.5s0.2,0.5-1,0.6C115.8,328,115.1,327.5,115.1,326.1L115.1,326.1z M97.7,325.5c-1.1-0.8-1.5-1.5-1-1.4
	s1.8,0.7,2.9,1.5s1.5,1.5,1,1.4S98.7,326.3,97.7,325.5z M107.6,326.1c0.3-0.5,0.8-1,1.1-1s0.2,0.5-0.1,1s-0.8,1-1.1,1
	S107.3,326.6,107.6,326.1z M120.8,324.4c0.7-0.3,1.8-0.3,2.5,0s0.1,0.5-1.3,0.5S120.2,324.7,120.8,324.4z M34.4,323.4
	c0.4-0.4,1-0.4,1.3,0s0.1,0.7-0.7,0.7S34.1,323.8,34.4,323.4L34.4,323.4z M131.6,323c0.3-0.6,1-0.8,1.6-0.4c1.4,0.9,1.1,1.5-0.6,1.5
	C131.7,324.1,131.3,323.6,131.6,323L131.6,323z M136.4,322.4c0.4-0.4,1-0.4,1.3,0s0.1,0.7-0.7,0.7S136.1,322.8,136.4,322.4
	L136.4,322.4z M97,315.3l-1.4-1.8l1.8,1.4c1,0.8,1.8,1.5,1.8,1.8C99.1,317.5,98.3,317,97,315.3z M74.5,313.9
	c-0.4-0.7-0.3-0.9,0.4-0.4c1.2,0.7,1.5,1.6,0.7,1.6C75.4,315.1,74.9,314.5,74.5,313.9L74.5,313.9z M75,310.3l-1.4-1.8l1.8,1.4
	c1,0.8,1.8,1.5,1.8,1.8C77.1,312.5,76.3,312,75,310.3z M31.3,305.8c-1.2-0.6-2.3-1.5-2.3-2s-0.4-0.7-0.9-0.3s-0.7-0.4-0.4-1.5
	c1.2-4.5,7.5-4.8,9.4-0.4l1.2,2.5l-1.9,1.5C34.3,307.3,34.3,307.3,31.3,305.8L31.3,305.8z M35.9,302.3c0.6-1.8-2.8-2.8-3.8-1.1
	c-0.5,0.8-0.9,1.8-0.9,2.2C31.1,304.7,35.4,303.7,35.9,302.3L35.9,302.3z M65.5,305.9c-0.4-0.7-0.3-0.9,0.4-0.4
	c1.2,0.7,1.5,1.6,0.7,1.6C66.4,307.1,65.9,306.5,65.5,305.9L65.5,305.9z M37.6,298.1c0.3-0.6,0.8-1,1.1-1s0.2,0.4-0.1,1
	s-0.8,1-1.1,1S37.3,298.6,37.6,298.1z M64.4,294.4c0.4-0.4,1-0.4,1.3,0c0.4,0.4,0.1,0.7-0.7,0.7S64.1,294.8,64.4,294.4L64.4,294.4z
	 M178.1,370.4c0-1.3-4.3-5.3-5.7-5.3c-2,0-1.6,2,0.9,4.1C175.6,371,178.1,371.7,178.1,370.4L178.1,370.4z M110.9,368.9
	c-0.6-1.9-2.8-2.2-2.8-0.4c0,0.9,0.7,1.6,1.6,1.6S111.1,369.5,110.9,368.9L110.9,368.9z M104.8,358.9c-0.3-0.8-0.6-0.6-0.6,0.6
	c0,1.1,0.2,1.6,0.5,1.3S105.1,359.6,104.8,358.9L104.8,358.9z M150.1,298c4.1-1.8,8.3-4,9.3-4.8l1.8-1.5l-2.6-2.8
	c-2.9-3-13-8.2-18.2-9.4c-7.4-1.6-22.9,7.6-24.7,14.8c-0.9,3.7-0.4,4,14,7.5C134.2,303.1,141.9,301.6,150.1,298L150.1,298z
	 M131.4,299.4c0.4-0.4,1-0.4,1.3,0s0.1,0.7-0.7,0.7S131.1,299.8,131.4,299.4L131.4,299.4z M125.4,297.4c0.4-0.4,1-0.4,1.3,0
	c0.4,0.4,0.1,0.7-0.7,0.7S125.1,297.8,125.4,297.4L125.4,297.4z M173.3,282.4c1.8-1.5,6.9-6.1,11.3-10.4
	c17.8-17.1,26-23.2,41.3-30.9c9.6-4.8,10.1-6.4,2.9-9.1c-2.6-1-6.5-3.1-8.5-4.6c-13.2-10.2-29.4-7-49.3,9.5l-8.6,7.1l-6.3,10.5
	c-7.6,12.7-11.1,20.6-9.4,21.2c0.6,0.2,3.1,1.7,5.6,3.3c3.8,2.5,12.7,5.7,16.4,5.9C169.4,285,171.4,283.9,173.3,282.4L173.3,282.4z
	 M45.2,449c0.7-0.5,2.1-0.9,3-0.9s2.4-0.9,3.4-2c2.3-2.6,4.7-2.5,7.1,0.2l1.9,2.2l-2.6-1.6l-2.6-1.6l-2.2,1.6
	c-1.2,0.9-2,1.9-1.8,2.3s-1.4,0.7-3.6,0.8C45.3,449.8,44.4,449.5,45.2,449L45.2,449z M181.9,448.4c-1.5-0.2-2.8-0.9-2.8-1.5
	c0-0.7,1.3-0.8,3.7-0.4l3.7,0.7l1.6-2c1.8-2.3,5.6-3.2,8.6-2.1l2,0.8l-3.4,0.1c-2,0-4.5,1-6.3,2.6c-1.6,1.4-3.3,2.4-3.6,2.4
	S183.4,448.6,181.9,448.4L181.9,448.4z M156.1,446.6c-0.8-1-0.9-1.5-0.2-1.5c1.2,0,2.6,1.9,1.9,2.6
	C157.6,447.9,156.8,447.4,156.1,446.6L156.1,446.6z M228.1,446.1c1.4-1.1,2.8-2,3.1-2s0.6-1.2,0.6-2.6s0.6-3,1.4-3.5l1.4-0.9
	l-1.9-1.5c-2.5-1.9-0.6-2,2-0.1l1.9,1.4l-1.7,1.9c-2.9,3.2,2.1,8,5.2,4.9c0.8-0.8,1.1-0.6,1.1,0.5c0,2.4-0.9,2.7-4,1.6l-2.9-1.1
	l-3.6,1.7C225.9,448.6,225,448.5,228.1,446.1L228.1,446.1z M247.7,445.2l-1.9-0.8l1.6-0.6c0.9-0.3,2.1,0,2.8,0.8
	C251.4,446.2,250.7,446.4,247.7,445.2L247.7,445.2z M269.7,444.6c-0.3-0.8-0.1-1.5,0.4-1.5s1,0.7,1,1.5s-0.2,1.5-0.4,1.5
	S270.1,445.4,269.7,444.6z M278.4,445.4c0.4-0.4,1-0.4,1.3,0s0.1,0.7-0.7,0.7S278.1,445.8,278.4,445.4z M148.6,444.4
	c-1.1-0.2-2.9-0.8-4-1.3s-2.7-1.1-3.5-1.4c-0.9-0.3-0.6-0.5,0.8-0.6c1.2,0,3,0.3,4,0.8s3.3,1.4,5.2,1.9
	C154.5,444.8,152.5,445.3,148.6,444.4L148.6,444.4z M220.8,441.5c-1.1-1.5-1.3-2.4-0.6-2.4c0.8,0,0.8-0.4-0.1-1.5l-1.3-1.5l1.3-1.2
	l1.3-1.2l-0.6,1.7c-0.5,1.5,1,2.8,3.4,2.8c1.3,0,1.2-3.7-0.1-4.3c-0.6-0.3-0.5-0.4,0.3-0.3c2.4,0.5,1.5,5.1-1,5.4l-2.3,0.3l1.2,1.4
	c0.6,0.8,1,1.8,0.8,2.3S221.8,442.8,220.8,441.5L220.8,441.5z M225.4,443.4c-0.7-0.3-1.3-1-1.3-1.5c0-0.6,0.6-0.6,1.5,0.2
	c1.5,1.2,3.5,0.7,3.5-0.9c0-0.5-0.8-1.1-1.8-1.3c-1.3-0.3-1.2-0.5,0.5-0.6c2.7-0.1,3.2,3.3,0.7,4.3c-0.9,0.3-1.7,0.6-1.8,0.5
	S226,443.7,225.4,443.4L225.4,443.4z M253,443.2c2.2-1.4,0.5-5.8-2.9-7.6c-1.6-0.8-3.6-2.8-4.4-4.3s-4.4-5.5-8-9
	c-8.3-7.8-18.6-23.3-15.6-23.3c0.6,0,1,0.7,1,1.5c0,2.5,5,3.7,14,3.2c4.7-0.2,6.7-0.2,4.5,0l-4,0.5l2,0.8l2,0.8l-3.5,0
	c-1.9,0-5.2,0.3-7.2,0.7l-3.7,0.6l3,4.4c1.7,2.4,6,7.2,9.6,10.6s7.2,7.4,8,9s2.1,2.8,2.8,2.8c2,0,5.5,4.9,5.5,7.6
	c0,1.8-0.5,2.4-2.3,2.3C252.2,444,252,443.8,253,443.2L253,443.2z M231.8,405.4c-0.4-0.4-1-0.4-1.3,0s-0.1,0.7,0.7,0.7
	S232.1,405.8,231.8,405.4L231.8,405.4z M259.1,443.1c0-0.5,0.5-1,1-1s1,0.5,1,1s-0.5,1-1,1S259.1,443.6,259.1,443.1z M134.6,441.1
	c-0.4-0.6,0.1-0.7,0.9-0.4c1.7,0.7,2,1.4,0.6,1.4C135.7,442.1,135,441.6,134.6,441.1L134.6,441.1z M237.4,441.4c0.4-0.4,1-0.4,1.3,0
	s0.1,0.7-0.7,0.7S237.1,441.8,237.4,441.4L237.4,441.4z M125.1,438.1c0-0.7,0.3-1,0.7-0.7s0.4,1,0,1.3S125.1,438.8,125.1,438.1z
	 M229.1,436.6c0-0.8,0.2-1.5,0.4-1.5s0.7,0.7,1,1.5s0.1,1.5-0.4,1.5S229.1,437.4,229.1,436.6z M91.9,436.4c0.7-0.3,1.6-0.3,1.9,0.1
	s-0.3,0.6-1.3,0.5C91.4,436.9,91.1,436.7,91.9,436.4L91.9,436.4z M105.4,436.4c0.4-0.4,1-0.4,1.3,0s0.1,0.7-0.7,0.7
	S105.1,436.8,105.4,436.4L105.4,436.4z M111.1,436.1c0-0.7,0.3-1,0.7-0.7s0.4,1,0,1.3S111.1,436.8,111.1,436.1z M71.9,435.4
	c0.7-0.3,1.6-0.3,1.9,0.1s-0.3,0.6-1.3,0.5C71.4,435.9,71.1,435.7,71.9,435.4L71.9,435.4z M80.4,435.4c0.4-0.4,1-0.4,1.3,0
	s0.1,0.7-0.7,0.7S80.1,435.8,80.4,435.4L80.4,435.4z M116.4,435.4c0.4-0.4,1-0.4,1.3,0s0.1,0.7-0.7,0.7S116.1,435.8,116.4,435.4
	L116.4,435.4z M255.1,435.1c0-0.5,0.5-1,1-1s1,0.5,1,1s-0.5,1-1,1S255.1,435.6,255.1,435.1z M62.6,432.5c-2.2-1.9-3.7-2.4-5.5-2
	c-1.9,0.4-2.2,0.3-1-0.4c2.5-1.7,4.5-1.2,8.5,2c2.1,1.6,3.2,3,2.4,3S64.3,433.9,62.6,432.5z M227.7,433.2c-0.7-1.1,0.3-4.1,1.4-4.1
	c1.8,0,3,2.4,1.9,3.7C229.7,434.3,228.5,434.4,227.7,433.2L227.7,433.2z M230.1,432.1c0-0.5-0.4-1-1-1s-1,0.5-1,1s0.4,1,1,1
	S230.1,432.6,230.1,432.1z M255.1,432.1c0-0.5,0.5-1,1-1s1,0.5,1,1s-0.5,1-1,1S255.1,432.6,255.1,432.1z M205.1,429.6
	c0-1.4,0.4-2.5,1-2.5s0.7,0.7,0.4,1.6s0,2,0.8,2.5l1.4,0.9l-1.8,0C205.7,432.1,205.1,431.3,205.1,429.6L205.1,429.6z M220.8,430.4
	c0.2-0.6-0.6-1.9-1.9-2.8s-1.8-1.6-1.2-1.6s1-1,1-2.3c-0.1-1.6,0.5-2.3,1.9-2.3c2.8,0,3.2,3.3,0.5,4.3l-2.2,0.8l1.6,1.3l1.6,1.3
	l1.4-1.2c1-0.8,1.6-0.8,2.1-0.1c0.4,0.6,0.2,1-0.4,1s-0.8,0.6-0.5,1.4c0.4,1-0.2,1.4-1.9,1.3C221.4,431.6,220.6,431.1,220.8,430.4
	L220.8,430.4z M220.7,422.3c-1-1-1.9,0.5-1,1.9l0.8,1.3l0.4-1.3C221.1,423.5,221,422.7,220.7,422.3L220.7,422.3z M382.6,426.6
	c-7-2.8-10.3-3-15-1.1c-1.9,0.8-3.7,1.1-4,0.8c-0.9-0.9,5.3-3.2,8.5-3.2c1.8,0,2.9-0.5,2.9-1.4c0-0.8,0.8-2.4,1.9-3.8
	c2-2.6,3.4-10.9,2.1-13c-0.4-0.7-0.1-2.3,0.8-3.6c2.1-3.2,2.1-3.2-8.2-1.8l-9,1.2l2.8,0.8c1.5,0.4,4.7,0.5,7,0.2
	c2.9-0.4,3.6-0.3,2.1,0.3c-1.2,0.5-5.7,0.9-10,0.8s-11.6,0.7-16.2,1.7s-8.5,1.5-8.8,1.3s3.5-1.2,8.3-2.1c13-2.4,13.1-2.4,9.7-2.5
	c-1.7-0.1-5.7,0.4-8.9,1c-4.3,0.8-8.4,0.8-15.9-0.2c-12.8-1.6-14.8-1.6-27.5,0c-5.7,0.7-10.8,0.9-11.2,0.4s2-0.9,5.4-1.1
	s9.3-0.7,13-1.4c5.1-0.8,8.4-0.8,13.1,0.1c9.1,1.7,16.9,1.6,35.6-0.3c19.8-2.1,19.9-2.1,20.5-5.5c0.3-1.5,1.4-4.3,2.5-6.4
	s2-4.8,2-6.1v-2.4l-5,2.5c-9.8,4.9-20.3,3.1-17.2-3c2.6-5,6.1-17.2,6.7-23.1c0.7-6.9,2.4-14.7,3.6-16.3c1-1.3,24.7-1.3,26.7,0
	c3.5,2.2-1.5,23-7.4,31.2l-1.5,2.1l7.3-0.3c7.8-0.3,8.3-0.4,16.8-4.3c3-1.4,8.2-3.1,11.5-3.9s7.7-2.5,9.7-3.9s4.6-2.5,5.6-2.5
	c2.9,0,13.3-5.7,17-9.2l3.3-3.2l-0.7-3c-1.1-4.9-5.4-12.8-9.2-16.8c-2-2.1-3.1-3.8-2.4-3.8c2,0,7.8,6.7,10.2,12
	c2.4,5.2,4.3,6,4.8,2.2c0.4-3-1.9-6.4-11-16l-7.7-8.2l-5,2.6c-2.8,1.4-5,2.2-5,1.7s2-1.9,4.5-3.1c5.1-2.6,5.1-2.4,3-14.7
	c-2.5-14.2-7.5-31.5-10.9-37.4c-8.1-14.1-21-25.1-33.6-28.6l-4.5-1.2l3-0.1c9.7-0.3,27.6,14.1,36.6,29.3c2.8,4.7,7.7,21.4,10.6,36.1
	l2.6,13l2.9,4.2c1.6,2.3,4.2,5.1,5.8,6.3c7.9,5.6,12.8,16.3,9.2,19.9c-1.2,1.2-1.8,2.8-1.5,3.9c0.7,2.7-2.9,6.8-9.4,10.6l-5.6,3.3
	l0.3,5.5l0.3,5.5l-2.3,3.5c-2.9,4.3-10.8,9.7-16.4,11.2l-4.2,1.1l-0.7,4.8c-0.4,2.6-0.4,5.2,0,5.8s0.8,2.3,1,3.8s0.7,3.6,1.1,4.5
	s0.2,1.8-0.3,1.8c-1.3,0-2.2-2.3-3.2-8.7l-0.9-5.2l2-8.3c1.1-4.6,1.8-9.5,1.5-11.1s-0.1-2.8,0.3-2.8c1.4,0,2,4.2,1.2,8.8
	c-0.9,4.9-0.4,5.1,5.6,2.7c9.2-3.8,13.4-9.1,13.4-17v-4.7l-3.3,0.6c-1.8,0.3-5.9,2-9.1,3.6s-7,3-8.3,3s-5.3,1.3-8.8,2.9
	c-8.3,3.8-12.9,5.1-19.1,5.1l-5.1,0l-3.1,2.7c-3.5,3.1-4.1,6.8-1.4,9l1.8,1.4l-2.2-0.5c-2.6-0.6-5.3,2.9-5.3,6.8v2.6l6.9-0.7
	c5.1-0.5,7.1-0.3,7.6,0.6c0.6,0.9,0.1,1.1-2.1,0.7c-6.3-1.2-15,1.9-13.9,5c0.3,0.7,0.1,1.3-0.3,1.3s-0.9,2.8-1,6.2
	c-0.1,3.4-0.8,6.9-1.6,7.8c-0.7,0.8-1.6,2.5-2,3.6l-0.6,2.1l2.6,1.2c3.7,1.7,4.5,1.5,4.5-1.3c0-2.3,3.8-6.1,4.9-5
	c0.3,0.3-0.2,1-1.1,1.5c-4.8,2.7-2.9,7.9,2.9,7.9l3.3,0l0.1-2.8l0.1-2.8l1,2.8c0.7,2,1.7,2.8,3.6,2.8c4.4,0,2.1,0.7-4.3,1.3l-6,0.6
	L382.6,426.6L382.6,426.6z M378.5,381.3c11.8-4.2,21.6-22.2,21.6-39.7v-1.3l-12.4,0l-12.4,0l-1.1,4.6c-0.6,2.5-1.4,7.5-1.7,11.1
	c-0.6,5.8-4.2,18.7-6.7,23.3C363.8,383.4,370,384.4,378.5,381.3L378.5,381.3z M21,426.3l-1.4-1.8l1.8,1.4c1.7,1.3,2.2,2.1,1.4,2.1
	C22.5,428.1,21.7,427.3,21,426.3z M29.4,427.4c0.4-0.4,1-0.4,1.3,0s0.1,0.7-0.7,0.7S29.1,427.8,29.4,427.4L29.4,427.4z M251.3,426.9
	c0.2-0.7,0.9-1.3,1.6-1.4s0.7,0,0.2,0.3s-0.8,0.9-0.5,1.4s0.1,0.9-0.6,0.9S251.1,427.5,251.3,426.9z M200.6,426.1
	c-0.3-0.5-0.3-1.5,0-2c0.8-1.3,3.2-1.3,4.1,0.1c0.5,0.7,0,0.9-1.4,0.4c-1.2-0.4-2.1-0.2-2.1,0.3c0,0.5,0.8,1.2,1.8,1.5l1.8,0.5
	l-1.7,0.1C202,427,201,426.6,200.6,426.1z M359.4,426.4c0.4-0.4,1-0.4,1.3,0s0.1,0.7-0.7,0.7S359.1,426.8,359.4,426.4z M326.4,425.4
	c0.4-0.4,1-0.4,1.3,0s0.1,0.7-0.7,0.7S326.1,425.8,326.4,425.4z M339.1,425.1c0-0.7,0.3-1,0.7-0.7s0.4,1,0,1.3
	S339.1,425.8,339.1,425.1z M350.5,424.9c1.3-0.8,2.5-0.8,4,0l2.1,1l-4,0l-4,0L350.5,424.9L350.5,424.9z M206.5,423l-1.9-2.1l3.2,1.8
	c3.4,1.9,5.4,1.3,3.4-1l-1.2-1.4l1.8-0.8c1-0.5,3.1-0.8,4.8-0.9l3,0l-0.3-2.8c-0.4-3.2,0-3.4,2.3-1.1l1.6,1.6l-1.8,1.7
	c-2,1.8-6.6,3.4-5.7,2c0.3-0.5,0.1-0.9-0.4-0.9s-1.4,1.4-2,3C212,425.6,209.3,426,206.5,423L206.5,423z M220.8,415.4
	c-0.4-0.4-0.7-0.1-0.7,0.7s0.3,1,0.7,0.7S221.2,415.8,220.8,415.4z M257.9,424.4c0.7-0.3,1.6-0.3,1.9,0.1s-0.3,0.6-1.3,0.5
	C257.4,424.9,257.1,424.7,257.9,424.4L257.9,424.4z M263.9,424.4c0.7-0.3,1.8-0.3,2.5,0s0.1,0.5-1.3,0.5S263.2,424.7,263.9,424.4z
	 M271.9,424.4c0.7-0.3,1.6-0.3,1.9,0.1s-0.3,0.6-1.3,0.5C271.4,424.9,271.1,424.7,271.9,424.4L271.9,424.4z M330.5,424.4
	c0.4-0.4,1-0.4,1.3,0s0.1,0.7-0.7,0.7S330.1,424.8,330.5,424.4z M334.5,424.4c0.4-0.4,1-0.4,1.3,0s0.1,0.7-0.7,0.7
	S334.1,424.8,334.5,424.4z M343.6,424.1c0.3-0.5,0.8-1,1.1-1s0.4,0.5,0.4,1s-0.5,1-1.1,1S343.3,424.6,343.6,424.1z M417.1,423.1
	c0-0.7,0.3-1,0.7-0.7s0.4,1,0,1.3S417.1,423.8,417.1,423.1z M420.1,423c0-0.6,0.5-0.8,1-0.4s1,0.8,1,1.1s-0.5,0.4-1,0.4
	S420.1,423.6,420.1,423z M407.1,422.1c0-0.5,0.5-1,1.1-1s0.8,0.5,0.4,1s-0.8,1-1.1,1S407.1,422.6,407.1,422.1z M424.1,420.3
	c0-1.7,0.4-3.4,0.9-3.7s1.2-2.6,1.6-5.1c0.6-3.9,2.5-6.5,2.4-3.2C428.9,415,424.1,426.5,424.1,420.3L424.1,420.3z M201.7,420.7
	c0.3-0.8,0.1-1.7-0.4-2.1s-0.7-1.5-0.5-2.6c0.3-1.2,0-2-0.7-2c-0.6,0-0.9-0.5-0.5-1s0-1.8-0.7-2.7l-1.3-1.6l1.4,0.5
	c0.8,0.3,2,2,2.6,3.9s1.9,3.6,2.8,3.8c2,0.4,2.2-1.8,0.4-3.8c-0.7-0.8-0.3-0.6,0.9,0.4c2.5,2.1,2,4.6-0.8,4.6c-1,0-1.9,0.6-1.9,1.4
	s-0.4,1.7-1,2.1C201.6,421.9,201.4,421.5,201.7,420.7L201.7,420.7z M392.9,419.3c-0.4-2.3,5.7-4.6,8.3-3.2c1,0.5,2.9,0.7,4.2,0.4
	c1.4-0.3,2.7-0.1,3.1,0.5c1.1,1.8,0.4,1.9-5.3,1c-5.8-0.9-8.2-0.5-8.2,1.7C395.1,421.7,393.3,421.4,392.9,419.3L392.9,419.3z
	 M29.5,418.4c0.4-0.4,1-0.4,1.3,0s0.1,0.7-0.7,0.7S29.1,418.8,29.5,418.4L29.5,418.4z M416.6,417.1c-0.3-0.5-0.1-1,0.4-1
	s1.1,0.5,1.1,1s-0.2,1-0.4,1S417,417.6,416.6,417.1z M429.1,417.1c0-0.7,0.3-1,0.7-0.7s0.4,1,0,1.3S429.1,417.8,429.1,417.1z
	 M442.1,417.1c0-0.5,0.4-1,0.9-1s1.2,0.5,1.6,1s-0.1,1-0.9,1S442.1,417.6,442.1,417.1z M43.5,416.4c0.4-0.4,1-0.4,1.3,0
	s0.1,0.7-0.7,0.7S43.1,416.8,43.5,416.4L43.5,416.4z M433.3,416c1-0.6,2.5-0.6,4,0l2.3,0.9l-4,0l-4,0L433.3,416L433.3,416z
	 M184.1,414.5c0-1.1-0.5-1.5-1.5-1.1c-1,0.4-1.7-0.2-2.1-1.9c-0.7-2.7-1.9-3.2-2.7-1.2c-0.3,0.7-0.5,0.5-0.6-0.5
	c-0.1-2.6,1.6-2.1,5.5,1.7c2.1,2,3.1,3.7,2.5,4.1C184.6,415.9,184.1,415.4,184.1,414.5L184.1,414.5z M208.8,414.5
	c-0.8-2,2.3-3.2,3.4-1.4c0.5,0.7,0.6,1.7,0.3,2.1C211.7,416.6,209.4,416.2,208.8,414.5L208.8,414.5z M212.1,414.6
	c0-0.2-0.4-0.7-1-1.1s-1-0.1-1,0.4s0.4,1.1,1,1.1S212.1,414.9,212.1,414.6z M214.6,415c-0.4-0.6-0.3-1.5,0.2-2
	c1.2-1.2,3.8,0.5,2.9,1.9C216.8,416.4,215.4,416.4,214.6,415L214.6,415z M412.1,415.1c0-0.5,0.5-1,1-1s1,0.5,1,1s-0.5,1-1,1
	S412.1,415.6,412.1,415.1z M189.5,414.4c0.4-0.4,1-0.4,1.3,0s0.1,0.7-0.7,0.7S189.1,414.8,189.5,414.4L189.5,414.4z M77.1,413.1
	c0-0.7,0.3-1,0.7-0.7s0.4,1,0,1.3S77.1,413.8,77.1,413.1z M186.6,412.1c0.3-0.5,0.8-1,1.1-1s0.2,0.5-0.1,1s-0.8,1-1.1,1
	S186.3,412.6,186.6,412.1z M192.1,412.1c0-0.7,0.3-1,0.7-0.7s0.4,1,0,1.3S192.1,412.8,192.1,412.1z M80.5,411.4c0.4-0.4,1-0.4,1.3,0
	s0.1,0.7-0.7,0.7S80.1,411.8,80.5,411.4L80.5,411.4z M190.5,409.6c0-0.8,0.4-1.2,0.8-0.9s0.6,0.9,0.3,1.5
	C190.8,411.4,190.5,411.3,190.5,409.6L190.5,409.6z M185.5,409.4c0.3-0.6-0.1-1.7-0.9-2.4l-1.6-1.3l-1,1.4l-1,1.4l0.4-1.4
	c0.6-2.1,2.1-2.3,4.3-0.6l2,1.4l-1.4,1.3C185.5,410,185.1,410.1,185.5,409.4L185.5,409.4z M208.5,408.5c-1-2.5,1.1-3.8,3-1.9
	c0.9,0.9,1.4,2.1,1.1,2.6C211.7,410.6,209.1,410.2,208.5,408.5L208.5,408.5z M211.1,408.1c0-0.5-0.4-1-1-1s-1,0.5-1,1s0.4,1,1,1
	S211.1,408.6,211.1,408.1z M215.6,408.2l0.7-2.4l-1.7,0.7c-1.1,0.4-1.6,0.2-1.3-0.6c0.6-1.9,3.2-1.5,3.6,0.6c0.2,1-0.2,2.4-0.8,3
	l-1.2,1.1L215.6,408.2L215.6,408.2z M301.4,409.4c1-0.3,2.5-0.3,3.5,0s0.2,0.5-1.8,0.5S300.4,409.6,301.4,409.4z M192.7,407.1
	c-0.4-1.4-0.7-3.7-0.6-5.3c0.2-3-1.6-3.8-2.3-1c-0.3,1.3-0.5,1.2-0.6-0.5c-0.1-1.3-0.8-2.3-1.7-2.3c-0.9,0-1.3,0.4-1.1,0.8
	s-0.3,1.3-1.2,1.9l-1.7,1.1V400c0-1,0.4-1.6,0.8-1.3s0.8,0,0.8-0.6c0-1.4,6.1-0.9,7.7,0.7c0.7,0.6,1,1.9,0.6,2.9
	c-0.6,1.6,1.8,4.4,3.9,4.4c1.2,0,1-2.7-0.2-3.3c-0.6-0.3-0.5-0.4,0.3-0.3s1.4,1.3,1.6,2.6l0.3,2.3l-2.5-0.6
	c-1.9-0.5-2.6-0.2-2.9,1.1l-0.4,1.8L192.7,407.1L192.7,407.1z M201.5,407.5c-0.8-2.1,0.8-3.6,2.6-2.5c1.5,0.9,0.8,4.1-0.9,4.1
	C202.5,409.1,201.8,408.4,201.5,407.5L201.5,407.5z M204.1,407.1c0-0.5-0.4-1-1-1s-1,0.5-1,1s0.4,1,1,1S204.1,407.6,204.1,407.1z
	 M253.9,408.3c2.3-0.2,6.2-0.2,8.5,0s0.4,0.4-4.3,0.4S251.5,408.5,253.9,408.3L253.9,408.3z M292.9,408.4c0.7-0.3,1.8-0.3,2.5,0
	s0.1,0.5-1.3,0.5S292.2,408.7,292.9,408.4z M311.4,408.4c1-0.3,2.3-0.2,3,0s-0.1,0.5-1.8,0.5S310.4,408.6,311.4,408.4z M326.5,408.4
	c0.4-0.4,1-0.4,1.3,0s0.1,0.7-0.7,0.7S326.1,408.8,326.5,408.4z M333.9,408.3c1.8-0.2,4.5-0.2,6,0s0,0.4-3.3,0.4
	S332.1,408.6,333.9,408.3z M402.5,406.3c-1.2-3.3-0.5-5.7,1.1-3.8c0.6,0.6,0.8,2.4,0.5,4l-0.5,2.9L402.5,406.3L402.5,406.3z
	 M155.5,407.4c0.4-0.4,1-0.4,1.3,0s0.1,0.7-0.7,0.7S155.1,407.8,155.5,407.4L155.5,407.4z M244.1,407.1l-2.5-0.8l2,0
	c1.1,0,2.9,0.4,4,0.8C250.2,408.2,247.5,408.2,244.1,407.1z M268.1,407.1c-0.8-0.5-4.6-1-8.5-1.1s-7.9-0.5-9-0.9
	c-2.4-1,7.5-0.4,19.8,1.1c4.8,0.6,9.1,0.8,9.4,0.5s-1-0.6-3-0.6s-3.7-0.4-3.7-0.9s-3-1.2-6.8-1.5c-10-1-21.4-2.8-20.9-3.2
	c0.2-0.2,5.8,0.3,12.3,1.2c15.7,2.1,27.8,2.1,31,0c1.3-0.9,2.4-1.1,2.4-0.6c0,1.6-3.6,3.1-7.6,3.1c-4.8,0-3.9,0.9,2.8,2.5l5.3,1.3
	l-11,0.1C274.6,408,268.9,407.6,268.1,407.1L268.1,407.1z M318.4,407.4c1.5-0.2,3.8-0.2,5,0s0,0.4-2.8,0.4S316.9,407.6,318.4,407.4
	L318.4,407.4z M349.1,406.6c3.1-0.8,9.4-1.4,14.5-1.3l9,0.1l-10.5,0.7c-5.8,0.4-12.3,1-14.5,1.3
	C344.9,407.9,345.4,407.6,349.1,406.6L349.1,406.6z M42.1,406.1c0-0.7,0.3-1,0.7-0.7s0.4,1,0,1.3S42.1,406.8,42.1,406.1z
	 M177.9,405.4c2.4-0.5,2.8-1.4,1.3-2.9c-0.6-0.6-0.6-1.5,0-2.5l1-1.5l0.9,1.4c1.4,2.2-0.3,5.6-3,5.8l-2.4,0.2L177.9,405.4
	L177.9,405.4z M288.6,405.1c0.3-0.5,1.1-1,1.6-1s0.7,0.5,0.4,1s-1.1,1-1.6,1S288.3,405.6,288.6,405.1z M292.9,405.5
	c-0.3-0.5,2.2-0.9,5.6-1s10.4-0.4,15.7-0.8c5.2-0.4,10.5-0.4,11.8,0.1c1.6,0.6-0.5,0.9-7,0.9c-5.1,0-12.9,0.4-17.4,0.8
	C296.8,406,293.2,406,292.9,405.5L292.9,405.5z M329.1,405.3c0-0.4,1.6-0.6,3.5-0.4s3.5,0.6,3.5,0.8s-1.6,0.4-3.5,0.4
	S329.1,405.7,329.1,405.3z M386.9,405.4c0.7-0.3,1.6-0.3,1.9,0.1s-0.3,0.6-1.3,0.5C386.4,405.9,386.1,405.7,386.9,405.4L386.9,405.4
	z M162.2,403.9c0-0.9,0.4-2,1-2.4c1.8-1.1,2,0.1,0.5,2.1l-1.5,1.9L162.2,403.9L162.2,403.9z M186.1,404.1c0-0.7,0.3-1,0.7-0.7
	s0.4,1,0,1.3S186.1,404.8,186.1,404.1z M374.1,404.7c0-0.2,0.7-0.7,1.6-1c0.9-0.3,1.3-0.2,0.9,0.4C376,405,374.1,405.5,374.1,404.7z
	 M113.1,402.6c0-0.8,0.4-1.5,1-1.5s0.7,0.7,0.4,1.5s-0.8,1.5-1,1.5S113.1,403.4,113.1,402.6z M394.5,403.4c0.4-0.4,1-0.4,1.3,0
	s0.1,0.7-0.7,0.7S394.1,403.8,394.5,403.4z M175.9,402.5c-0.4-0.4-0.2-1.5,0.4-2.6c0.7-1.4,0.7-2.3-0.2-3.4
	c-1.6-1.9-2.7-1.8-3.3,0.3c-0.3,1.3-0.5,1.2-0.6-0.5c-0.1-2.5-1.1-2.9-2.9-1.1c-0.9,0.9-1,0.6-0.6-0.9c0.3-1.3,1.1-1.9,1.9-1.5
	c1.7,0.7,1.9-1.8,0.2-3.5c-0.8-0.8-0.8-1.2-0.1-1.2c0.6,0,1.1-1.2,1.1-2.7c0-1.5,0.9-3.3,2.1-4.3c1.5-1.1,1.8-2,1.2-3.1
	c-1-1.6-0.5-3,1-3c1.5,0,1.1,5.2-0.6,7.1l-1.6,1.8l2.3,3.1c3.6,4.9,5.4,4,1.9-0.9c-2.3-3.2-1.2-4.7,2-2.8c2.4,1.5,2.6,3.6,0.6,6.4
	l-1.4,1.9l1.7,2l1.7,2l-2.1-1.8c-2.6-2.2-3.8-2.2-3-0.2c0.3,0.9,0.2,1.3-0.3,1s-1.1-2.3-1.5-4.5s-1.2-4.3-1.8-4.7
	c-0.8-0.5-1-0.2-0.5,0.9c0.4,0.9,0.3,1.7-0.2,1.7c-1.7,0,0.3,5.4,3,7.9l2.8,2.6l-1.3,2.3C177.1,402.1,176.2,402.8,175.9,402.5
	L175.9,402.5z M180.3,384.9c-0.7-0.7-1.2-0.8-1.2-0.1c0,1.3,1.2,2.5,1.9,1.9C181.3,386.3,181,385.5,180.3,384.9L180.3,384.9z
	 M201.2,401.6c-0.7-0.8-1.8-1.2-2.5-0.9c-1.5,0.6-3-3-1.9-4.8c0.5-0.8-0.2-1-2.5-0.5c-2.4,0.5-3.3,0.2-3.8-0.9
	c-0.8-2.1,0.2-2.9,2.4-1.9c1,0.4,2.3,0.7,3,0.6s1.9,1.5,2.8,3.5c1.1,2.7,1.9,3.4,2.7,2.6c0.8-0.8,1.8-0.8,3.5,0
	c2.6,1.2,3,2.3,1.2,3.4c-0.7,0.4-0.9,0.3-0.5-0.4c0.4-0.6-0.3-1.6-1.4-2.2l-2.1-1.1l0.7,2.1C203.4,403.4,202.8,403.7,201.2,401.6
	L201.2,401.6z M191.8,393.4c-0.4-0.4-0.7-0.1-0.7,0.7s0.3,1,0.7,0.7S192.2,393.8,191.8,393.4z M411.5,402.4c0.4-0.4,1-0.4,1.3,0
	s0.1,0.7-0.7,0.7S411.1,402.8,411.5,402.4z M26.1,400.1c0-0.5,0.5-1,1.1-1s0.8,0.5,0.4,1s-0.8,1-1.1,1S26.1,400.6,26.1,400.1z
	 M224.9,400.4c0.7-0.3,1.8-0.3,2.5,0s0.1,0.5-1.3,0.5S224.2,400.7,224.9,400.4z M232.2,400.7c0.2-0.2,2.4-0.6,4.9-0.9
	c2.9-0.4,3.9-0.2,3,0.3C238.7,401,231.3,401.5,232.2,400.7L232.2,400.7z M437.1,400.1c0-0.5,0.7-1,1.5-1s1.5,0.5,1.5,1s-0.7,1-1.5,1
	S437.1,400.6,437.1,400.1z M444.5,400.4c0.4-0.4,1-0.4,1.3,0s0.1,0.7-0.7,0.7S444.1,400.8,444.5,400.4z M34.5,399.4
	c0.4-0.4,1-0.4,1.3,0s0.1,0.7-0.7,0.7S34.1,399.8,34.5,399.4L34.5,399.4z M48.9,399.4c0.7-0.3,1.6-0.3,1.9,0.1s-0.3,0.6-1.3,0.5
	C48.4,399.9,48.1,399.7,48.9,399.4L48.9,399.4z M58.8,399c1.8-0.5,3.5-1.4,3.8-1.9c1.1-1.8,8.5-0.9,8.5,1.1c0,0.5-1.1,0.3-2.6-0.3
	l-2.6-1.2l-2.9,1.7c-1.6,0.9-3.9,1.6-5.2,1.6l-2.3-0.1L58.8,399L58.8,399z M431.5,399.4c0.4-0.4,1-0.4,1.3,0s0.1,0.7-0.7,0.7
	S431.1,399.8,431.5,399.4z M42.5,398.4c0.4-0.4,1-0.4,1.3,0s0.1,0.7-0.7,0.7S42.1,398.8,42.5,398.4L42.5,398.4z M111.6,397.2
	c-0.3-0.9-0.3-1.2,0.1-0.8s1.2,0,1.8-0.8l1.1-1.5l0.1,2.3C114.9,399,112.6,399.6,111.6,397.2L111.6,397.2z M407.6,397.1
	c-0.3-0.5-0.2-1,0.4-1s1.3,0.5,1.6,1s0.2,1-0.4,1S408,397.6,407.6,397.1z M122,395.8l1.4-1.8l-1.9-1.5l-1.9-1.5l2.3,1.1
	c2.7,1.3,2.8,2.3,0.5,4.1l-1.8,1.4L122,395.8z M402.5,396.4c0.4-0.4,1-0.4,1.3,0s0.1,0.7-0.7,0.7S402.1,396.8,402.5,396.4z
	 M187.7,393.7c0.6-1.6-2.1-4.1-3.5-3.2c-0.6,0.3-0.7,1.4-0.4,2.3c0.4,1.1,0.2,1.4-0.5,0.9c-1.4-0.9-1.6-3.6-0.2-3.6
	c0.6,0,1-0.7,1-1.5s0.4-1.5,1-1.5s1,0.6,1,1.4s0.7,1.7,1.5,2c1,0.4,1.5-0.1,1.5-1.4c0-1.1-0.4-2-0.9-2s-1.1-0.9-1.4-2
	c-0.7-2.7,0.4-2.5,2.7,0.7l1.9,2.6l-1.2,1.8c-0.6,1-1.2,2.5-1.2,3.4s-0.4,1.5-1,1.5S187.4,394.5,187.7,393.7L187.7,393.7z
	 M226.8,391.8c-2.5-1.9-4.7-8-5.7-16.4c-0.5-4.2-1.8-10.6-2.9-14.2c-2.6-9.1-3.3-17.5-1.6-19.8l1.3-1.8l14.8-0.6
	c8.2-0.3,15.4-0.4,16.1-0.2c3.4,1.3,0.1,1.7-11.6,1.6c-7.1-0.1-14.3,0.4-16.3,1l-3.4,1.1l0.3,6.5c0.2,3.6,1.2,9.2,2.3,12.4
	s2.2,8.5,2.5,11.5c0.9,9.2,3.4,16.7,6.1,18.1l2.4,1.3l3.9-1.2c2.4-0.7,5.6-3,8.4-6l4.6-4.9l2.5-7.9c5.2-16.4,5.9-26.3,2.1-30.5
	c-2.4-2.7-1.1-3.6,1.5-1C267.3,354.2,241.3,402.7,226.8,391.8L226.8,391.8z M267.6,391c-2.2-1-4.7-3-5.4-4.3l-1.3-2.5l0.9-20.8
	l0.9-20.8l3.8-1.8c4.2-2,14.1-3.3,18.1-2.3c4.9,1.2,2.6,2.1-5.7,2.1c-5.4,0-9.3,0.5-11.2,1.5l-3,1.5l-0.8,12.5
	c-1,17.2-0.8,29.2,0.5,30.8c8.9,10.7,24.1,0.4,29.2-19.8c3.8-14.9,3.8-20.2,0-24.3c-1.4-1.5-2.3-3.1-1.9-3.5s2,0.9,3.6,2.8l2.9,3.5
	v4.8c0,7.5-3.8,22.6-7.3,29.1l-3.2,6l-5.9,3.8C275.1,393.5,273.4,393.7,267.6,391L267.6,391z M113.2,389.9c0.1-1.7,0.2-1.8,0.6-0.6
	c0.8,3.2,3.5,2.1,3-1.3c-0.3-1.7-0.1-2.8,0.3-2.5c1.9,1.1,0.6,6-1.7,6.4l-2.3,0.3L113.2,389.9L113.2,389.9z M299.4,389.5l-2.6-2.6
	l0.7-4.7c0.4-2.6,1.2-8,1.8-12.2c1.4-9.1,1.5-15.9,0.5-22.6l-0.8-5.1l3.8-1.6c4.4-1.9,23.8-3.4,24.7-2c0.4,0.6-3.8,1.2-10.5,1.7
	c-12.1,0.8-15.9,1.9-15.9,4.8c0,1,0.3,1.7,0.8,1.4c0.9-0.6,0.8,15-0.1,17.8c-1.4,4.4-2.6,21.7-1.7,23.4
	c8.6,16.1,38.3-26.4,31.6-45.2c-0.9-2.6-1-3.7-0.2-3.4c0.6,0.2,1.8,2.5,2.6,5l1.4,4.6l-1.5,7c-1.1,4.9-3.5,10.5-8.3,18.9l-6.8,11.9
	l-4.1,2.6c-2.8,1.8-5.4,2.6-8.4,2.6H302L299.4,389.5L299.4,389.5z M330.5,391c-6-1.4-6.7-2.7-3.8-7.4c9.9-16.5,13.1-29.6,9.9-40.7
	c-0.3-0.9,0.4-2.6,1.6-3.8l2.1-2.1h11.4c6.3,0,12.1,0.3,13,0.6c4.1,1.6-0.7,26.3-8.2,42.5l-4,8.6L349,390
	C344.2,391.7,335.3,392.1,330.5,391L330.5,391z M349.3,387.8c5-3.3,14.8-32.1,14.8-43.5V339l-12.3,0.3l-12.3,0.3l0.2,5
	c0.4,12.9-3.6,28.1-9.8,37.2c-1.6,2.3-2.9,4.6-2.9,5.2C327.1,390.1,344.7,390.9,349.3,387.8L349.3,387.8z M336.9,386.4
	c0.7-0.3,1.6-0.3,1.9,0.1s-0.3,0.6-1.3,0.5C336.4,386.9,336.1,386.7,336.9,386.4L336.9,386.4z M341.7,386.1c0.5-0.5,2.3-1.2,4-1.5
	l3-0.6l-3.4,1.5C341.4,387.3,340.3,387.5,341.7,386.1z M333.7,380.8c0.4-1,0.9-1.5,1.2-1.2s0,1.1-0.7,1.8l-1.2,1.2L333.7,380.8z
	 M336.1,376.1c0-0.7,0.3-1,0.7-0.7s0.4,1,0,1.3S336.1,376.8,336.1,376.1z M339.1,369.1c0-0.7,0.3-1,0.7-0.7s0.4,1,0,1.3
	S339.1,369.8,339.1,369.1z M342.8,354.4c-0.4-0.4-0.7-1.4-0.6-2.3l0-1.6l1.1,1.8C344.3,354.2,344,355.6,342.8,354.4L342.8,354.4z
	 M167.2,389.5c0-1.2,0.3-1.4,0.6-0.6c0.3,0.7,0.3,1.6-0.1,1.9S167.1,390.5,167.2,389.5L167.2,389.5z M90.8,389.4
	c-0.4-0.4-0.7-1.1-0.7-1.7c0-0.6,0.5-0.6,1.2,0.1c0.7,0.7,1,1.4,0.7,1.7S91.1,389.8,90.8,389.4L90.8,389.4z M120,388.3l-1.4-1.8
	l2,1.5c1.1,0.8,2.2,1.6,2.4,1.8s-0.1,0.3-0.6,0.3S120.7,389.3,120,388.3L120,388.3z M164.6,385.9c-0.5-2.1-0.3-3.4,0.6-3.9l1.3-0.8
	l-1.8-0.7c-1.1-0.4-1.5-1.3-1.2-2.2c0.3-0.9-0.4-2.6-1.6-3.9c-1.2-1.3-1.7-2.3-1-2.3s1.2,0.4,1.2,0.9c0,1.4,6.8,5.3,8,4.6
	c0.6-0.3,1,0.3,1,1.4s-0.4,2.3-0.9,2.6s-0.7,1.4-0.4,2.4c0.3,1.2-0.4,2.4-2,3.5l-2.5,1.6L164.6,385.9L164.6,385.9z M169.1,385.6
	c0-0.2-0.3-1.1-0.6-2c-0.9-2.2-2.4-2-2.4,0.4c0,1.1,0.7,2,1.5,2C168.4,386.1,169.1,385.9,169.1,385.6z M168.9,379.8
	c-0.2-0.7-1.3-1.4-2.3-1.6l-1.9-0.4l1.3,1.6C167.6,381.4,169.5,381.6,168.9,379.8L168.9,379.8z M300.6,387.1c-0.3-0.5-0.1-1,0.4-1
	s1.1,0.5,1.1,1s-0.2,1-0.4,1S301,387.6,300.6,387.1z M228.1,386.1c0-0.7,0.3-1,0.7-0.7s0.4,1,0,1.3S228.1,386.8,228.1,386.1z
	 M276.4,386.4c0.4-0.4,1-0.4,1.3,0s0.1,0.7-0.7,0.7S276.1,386.8,276.4,386.4z M120.6,385.3c-0.6-0.4-1.1-1.3-1.3-2l-0.3-1.3l2,1.2
	c3.7,2.3,3.5-0.4-0.2-3.8l-3.8-3.4l2.8,0.7l2.8,0.7l-2-2.4l-2-2.4l2.3,1.9c1.5,1.2,2.1,2.6,1.7,3.8c-0.4,1.2-0.1,1.8,1,1.8
	c0.9,0,1.6,0.5,1.6,1.1s0.7,0.8,1.5,0.5c0.8-0.3,1.5-0.1,1.5,0.4s-0.5,1-1.1,1s-1.7,0.7-2.6,1.5
	C122.8,386.2,122.1,386.4,120.6,385.3L120.6,385.3z M183.6,385.1c-0.3-0.5-0.3-1.5,0-2s-0.3-1-1.4-1s-2.3-0.4-2.6-0.9
	s0.5-0.7,1.7-0.4l2.3,0.5l-2-1.8c-2-1.9-3.3-7-1.5-5.8c0.5,0.3,1,1.3,1,2.2s0.7,2.1,1.5,2.7s1.7,2.6,2,4.4
	C185.1,386.1,184.8,386.9,183.6,385.1L183.6,385.1z M394.1,385.1c0-0.5,0.5-1,1-1s1,0.5,1,1s-0.5,1-1,1S394.1,385.6,394.1,385.1z
	 M97.6,384.1c0.3-0.5,0.8-1,1.1-1s0.2,0.5-0.1,1s-0.8,1-1.1,1S97.3,384.6,97.6,384.1L97.6,384.1z M113.5,384.4
	c1.3-0.3,1.7-1.1,1.4-2.9l-0.5-2.4l1.3,1.1c0.9,0.7,1.4,0.7,1.8-0.2c0.4-0.9,0.5-0.8,0.6,0.3c0.1,1.9-3,4.9-5,4.8
	C112.2,384.9,112.4,384.6,113.5,384.4L113.5,384.4z M399.4,384.4c0.4-0.4,1-0.4,1.3,0s0.1,0.7-0.7,0.7S399.1,384.8,399.4,384.4z
	 M105.4,383.5c0.4-0.4,0.2-1.4-0.4-2.1l-1.1-1.4l1.6,0.6c1.1,0.4,1.6,0.1,1.6-1c0-1.7,1.7-2.1,3.8-0.7c1,0.6,0.3,1.4-2.5,3.1
	C106.3,383.3,104.9,383.9,105.4,383.5L105.4,383.5z M108.8,379.4c-0.4-0.4-0.7-0.1-0.7,0.7s0.3,1,0.7,0.7S109.1,379.8,108.8,379.4z
	 M196.3,379.2c-13.8-14.8-18.8-20.7-19.6-23.2c-1.3-4.3,3.5-19.1,7.1-21.9l2.7-2.1l6,0.4c6.4,0.4,15.9,3.7,18.5,6.3l1.5,1.6l0,15.7
	c0,21-1.4,24.7-9.8,26.6l-2.8,0.7L196.3,379.2L196.3,379.2z M206.6,378.8c3.4-3,4.6-9.6,4.6-25.4v-12.4l-2-2c-1.1-1.1-2.8-2-3.8-2
	s-3-0.7-4.6-1.5c-1.7-0.9-5.5-1.5-9.1-1.5h-6.3l-1.7,2.6c-2,3-5.5,14.7-5.5,18.2c0,1.5,2.6,5.1,7.3,10.1c4,4.3,8.7,9.7,10.6,11.9
	C199.7,381.7,202.7,382.2,206.6,378.8L206.6,378.8z M199.4,376.4c1-0.3,2.3-0.2,3,0s-0.1,0.5-1.8,0.5S198.4,376.6,199.4,376.4z
	 M193.7,371.4l-0.7-1.8l1.2,1.2c0.7,0.7,1,1.5,0.7,1.8S194.1,372.3,193.7,371.4z M190.1,366.1c-0.6-1.1-0.8-2-0.6-2s1,0.9,1.6,2
	s0.8,2,0.6,2S190.7,367.2,190.1,366.1z M184,359.3l-1.4-1.8l1.8,1.4c1,0.8,1.8,1.5,1.8,1.8C186.1,361.5,185.3,361,184,359.3z
	 M180.8,354c0.4-1.4,0.8-1.8,1.1-1.1c0.2,0.7,0,1.8-0.6,2.4C180.5,356,180.4,355.7,180.8,354L180.8,354z M183.2,346.1
	c0-0.3,0.6-2.3,1.4-4.5s1.4-3.1,1.4-2C186,341.2,183.2,347.6,183.2,346.1z M203.4,341.4c0.4-0.4,1-0.4,1.3,0s0.1,0.7-0.7,0.7
	S203.1,341.8,203.4,341.4L203.4,341.4z M301.1,382.1c0-0.7,0.3-1,0.7-0.7s0.4,1,0,1.3S301.1,382.8,301.1,382.1z M227.1,380.1
	c0-0.7,0.3-1,0.7-0.7s0.4,1,0,1.3S227.1,380.8,227.1,380.1z M127.9,378.9l1.2-1.2l-1.2-1.6l-1.2-1.6l1.7,1.3
	c1.8,1.4,1.4,4.2-0.5,4.2C127.1,380.1,127.1,379.7,127.9,378.9L127.9,378.9z M124.5,377.5c-0.3-0.8-0.4-1.8-0.1-2s0.7,0.4,1,1.5
	C126,379.4,125.3,379.8,124.5,377.5L124.5,377.5z M104.8,376.3c-0.3-0.4,0.1-1.9,0.9-3.3l1.3-2.5l1,2.5c1.1,2.9,0.5,4.2-0.9,2
	c-0.8-1.3-1.4-0.7-1.1,1.3C106.1,377.3,105.4,377.3,104.8,376.3L104.8,376.3z M110.4,376.1c0.4-1.7,5.7-2.5,5.7-0.9
	c0,0.5-0.4,0.7-1,0.4s-1,0-1,0.7c0,1-0.3,0.9-1-0.2l-1-1.5l-1.1,1.5l-1.1,1.5L110.4,376.1L110.4,376.1z M98.1,374.6
	c0-0.8,0.2-1.5,0.4-1.5s0.7,0.7,1,1.5s0.1,1.5-0.4,1.5S98.1,375.4,98.1,374.6z M302.2,374.5c0-1.2,0.3-1.4,0.6-0.6
	c0.3,0.7,0.3,1.6-0.1,1.9S302.1,375.5,302.2,374.5L302.2,374.5z M101.4,373.1c0.4-1.4,0.1-1.8-0.9-1.4c-1,0.4-1.4-0.4-1.3-3.3
	l0.1-3.9l0.9,2.3c1,2.4,3,3.1,3,1c0-0.7-0.5-1.8-1.1-2.4c-0.7-0.7-0.7-1.3-0.1-1.7c1.1-0.7,2.5,1,2.8,3.4c0.1,0.8-0.2,1.8-0.8,2.1
	s-1.1,1.8-1.2,3.3s-0.5,2.6-1,2.6S101.1,374.2,101.4,373.1L101.4,373.1z M94.1,373.1c0-0.7,0.3-1,0.7-0.7s0.4,1,0,1.3
	S94.1,373.8,94.1,373.1z M265.4,369.6c0-7.5,1.2-19.2,1.8-17.5c0.3,0.8,0,6.2-0.6,12C265.9,370.2,265.4,372.5,265.4,369.6
	L265.4,369.6z M225.3,370.1c0-1.9,0.2-2.7,0.5-1.8s0.3,2.5,0,3.5S225.3,372,225.3,370.1z M303.8,361.1c0.3-4.1,0.7-7.7,0.9-7.9
	c0.7-0.8,0.1,9.4-0.7,12.4C303.6,367.4,303.5,365.6,303.8,361.1L303.8,361.1z M401.8,365.8c-0.2-0.7,0.2-2.5,1-4s1.7-7.3,2-12.8
	c0.4-6.5,1.1-10.4,2-11.1l1.3-1.1l-0.5,2.9c-0.2,1.6-0.7,6.4-1,10.6s-1.2,9.3-2,11.2c-1.7,4.1-1.3,4.6,2.8,3.9
	c9.4-1.6,23.6-7.5,25.5-10.5l1.3-2.1l-1.2-9.2c-1.8-13.1-3.2-14-15.5-9.1c-3.6,1.4-6.8,2.3-7.1,2c-1.2-1.2,9.3-5,14.8-5.4l5.6-0.4
	l1.7,1.7c1,1,1.7,3.3,1.7,5.4c0,2.1,0.5,6.3,1.1,9.4l1.1,5.6l-1.6,2.5C430.8,361.5,403.3,370.1,401.8,365.8L401.8,365.8z
	 M223.8,361.4c-0.4-0.4-0.7-1.1-0.7-1.7c0-0.6,0.5-0.6,1.2,0.1c0.7,0.7,1,1.4,0.7,1.7S224.2,361.8,223.8,361.4z M439.8,352.4
	c-0.4-0.4-0.7-2-0.7-3.5s-0.9-5.8-2.1-9.3c-2.9-9-2.5-10,4.8-13.5c3.4-1.6,6.3-2.6,6.3-2.1s-2.5,2-5.5,3.4c-6.3,3-6.4,3.3-3.5,12.6
	c1.1,3.6,2,7.5,2,8.7c0,3.4,1.4,3.5,7.7,0.8c11.4-5,11.9-9,2.7-21.2c-1.6-2.2-2-3.3-1.1-3.3c1.3,0,6.3,7.5,8.8,13.2
	C462.1,344.8,444.8,357.4,439.8,352.4L439.8,352.4z M221.1,351.1c0-0.7,0.3-1,0.7-0.7s0.4,1,0,1.3S221.1,351.8,221.1,351.1z
	 M165.2,346.7c-2.3-3.7-2.7-10-0.8-13.2c2.9-4.9,10.2-13.6,10.5-12.6c0.2,0.6-1.7,3.8-4.3,7.2s-5.1,7.6-5.6,9.5l-1,3.5l2.2,3.9
	c2.9,5.2,7.6,1.2,11.8-10c0.5-1.4,2.2-4,3.6-5.8l2.7-3.2l-2.3-2c-1.3-1.1-3.1-2.2-4.1-2.6s-1.8-1.1-1.8-1.6c0-1.3,8.1,3.4,9.4,5.5
	c0.7,1.1,0.1,2.4-2.2,5.1c-1.7,2-4,5.6-5.1,8.1C173.3,349.6,168.8,352.5,165.2,346.7L165.2,346.7z M251.2,348.5
	c0-1.2,0.3-1.4,0.6-0.6c0.3,0.7,0.3,1.6-0.1,1.9S251.2,349.5,251.2,348.5L251.2,348.5z M225.7,344.9c0.3-0.4,1.1-0.5,1.9-0.2
	c2,0.8,1.8,1.3-0.5,1.1C226.1,345.7,225.5,345.3,225.7,344.9L225.7,344.9z M233.9,344.4c1.2-0.2,3-0.2,4,0s-0.1,0.4-2.3,0.4
	S232.6,344.6,233.9,344.4z M242.9,343.4c0.7-0.3,1.6-0.3,1.9,0.1s-0.3,0.6-1.3,0.5C242.4,343.9,242.1,343.7,242.9,343.4L242.9,343.4
	z M267.4,343.4c0.4-0.4,1-0.4,1.3,0s0.1,0.7-0.7,0.7S267.1,343.8,267.4,343.4z M170.1,332.1c0.6-1.1,1.3-2,1.6-2s0,0.9-0.6,2
	s-1.3,2-1.6,2S169.5,333.2,170.1,332.1z M226.6,332.1c-14.9-2.1-30.5-7.7-40.9-15c-8.4-5.8-16.5-19.3-10.6-17.8
	c1.3,0.4,1.7,0,1.3-1.4c-0.8-3.2,0.6-6.5,4.5-10.5c2.1-2.1,5.6-6.1,7.8-8.8c11.5-14.2,24.7-24.4,48.2-37.5l11.2-6.2l4.8,0.7
	c6.6,1,8,2,9.2,6.3c2.2,7.8,0.2,31.2-4.6,53.7c-1.4,6.6-3,14.9-3.6,18.5c-0.6,3.6-1.7,7.3-2.6,8.3l-1.6,1.8h-10.5
	c-12.3,0-12.9,0.6-1.7,1.5c9.1,0.7,10.8,1.7,8,4.5C243.2,332.3,235,333.2,226.6,332.1L226.6,332.1z M243.9,329.8
	c2.2-1.8,0-2.5-9.4-3.1c-16.2-1-24.2-3.7-36.9-12.3c-3.3-2.2-8.5-5.3-11.5-6.8s-6.5-3.6-7.7-4.7c-4.4-4.1-4.4-0.7,0.1,5.1
	C190.2,323.1,233.9,337.7,243.9,329.8L243.9,329.8z M218.7,320.9c-7-4.4-18.1-9.8-20-9.8c-0.9,0-3.1-0.7-4.8-1.6
	c-4.3-2.2-2.5-0.6,5,4.4c8,5.4,18.7,10.1,22.8,10.2C223,324,222,323,218.7,320.9L218.7,320.9z M250.7,318.4c0.6-2.1,1.6-6.3,2.3-9.3
	s2-9.5,3-14.5c6.6-31.9,6.8-55.5,0.5-57.1c-10.9-2.7-47.1,19.1-63,38c-2.7,3.2-7.2,8.5-10.1,11.9c-5.6,6.5-6.7,10.3-3.5,13
	c2.3,2,18.1,9.8,19.9,9.8c1.7,0,13,5.4,19.9,9.5l5.1,3l12.4-0.2l12.4-0.2L250.7,318.4L250.7,318.4z M243.6,318.1
	c0.3-0.6,0.8-1,1.1-1s0.2,0.4-0.1,1s-0.8,1-1.1,1S243.3,318.6,243.6,318.1z M247.1,314.1c0-0.7,0.3-1,0.7-0.7c0.4,0.4,0.4,1,0,1.3
	S247.1,314.8,247.1,314.1L247.1,314.1z M245.5,310.7c0.3-1,1.1-5.1,1.6-9s2.1-11.4,3.4-16.7s2.9-13,3.6-17.3s1.6-7.8,2-7.8
	c0.8,0-1.4,12.2-4.1,23c-1,4.1-2.6,11.7-3.4,16.8c-0.8,5.1-2,10-2.6,11l-1.1,1.7L245.5,310.7L245.5,310.7z M248.3,310.6
	c0-1.1,0.4-2.9,0.8-4c1.1-2.5,1.1,0.1,0,3.5l-0.8,2.5L248.3,310.6z M214.1,307.1c0-0.7,0.3-1,0.7-0.7c0.4,0.4,0.4,1,0,1.3
	S214.1,307.8,214.1,307.1L214.1,307.1z M250.6,300.6c1.1-7.9,2.6-16,3.1-16.5c0.8-0.8-0.6,8.5-2.3,15
	C250.5,303.1,250.3,303.5,250.6,300.6L250.6,300.6z M215.4,302.4c0.4-0.4,1-0.4,1.3,0c0.4,0.4,0.1,0.7-0.7,0.7
	S215.1,302.8,215.4,302.4L215.4,302.4z M220.4,292.4c0.4-0.4,1-0.4,1.3,0c0.4,0.4,0.1,0.7-0.7,0.7S220.1,292.8,220.4,292.4
	L220.4,292.4z M190.1,284.1c0-0.5,0.4-1.2,1-1.6c0.6-0.4,0.7,0.1,0.4,0.9C190.8,285.2,190.1,285.6,190.1,284.1L190.1,284.1z
	 M223.6,281.1c0.3-0.6,0.8-1,1.1-1s0.4,0.4,0.4,1c0,0.5-0.5,1-1.1,1S223.3,281.6,223.6,281.1z M195.1,276.2c0-0.5,0.7-1.5,1.7-2.3
	l1.7-1.4l-1.2,2.3C196,277.1,195.1,277.7,195.1,276.2z M227.1,275.1c0-0.7,0.3-1,0.7-0.7s0.4,1,0,1.3
	C227.4,276.1,227.1,275.8,227.1,275.1L227.1,275.1z M257.9,262.1c0.4-3.6,0.6-9.1,0.6-12.2c-0.1-3.7,0.2-5.5,0.9-5.1
	c1.1,0.7,0.3,14.5-1.2,20.3C257.4,267.6,257.4,266.8,257.9,262.1L257.9,262.1z M205.6,266.1c0.3-0.6,0.8-1,1.1-1s0.2,0.4-0.1,1
	c-0.3,0.5-0.8,1-1.1,1S205.3,266.6,205.6,266.1z M214.8,258.9c0.7-0.7,1.5-1,1.8-0.7c0.3,0.3-0.2,0.9-1.2,1.2l-1.8,0.7L214.8,258.9z
	 M234.6,247.1c0.3-0.6,0.8-1,1.1-1s0.2,0.4-0.1,1s-0.8,1-1.1,1S234.3,247.6,234.6,247.1z M190.1,307.7c0-0.2-0.7-0.7-1.6-1
	c-0.9-0.3-1.3-0.2-0.9,0.4C188.2,308,190.1,308.5,190.1,307.7L190.1,307.7z M263.2,330.1l-3.4-2.9l0.7-5.8c0.4-3.2,1.6-9.3,2.6-13.5
	c1.3-5.1,2-11.3,2-18.5c0-6,0.5-13.3,1-16.3s1.4-9.5,2-14.5c2.6-21.7,6-24.1,36.7-25.2l17.1-0.6l4.4,1.7c2.4,0.9,6,2.9,8,4.2
	l3.7,2.5l4.6,10.9c3.9,9.4,6.4,17.4,10.6,33.9c0.5,1.9,1.2,10.9,1.5,20l0.6,16.5l-1.8,3.5l-1.8,3.5l-8,1.1
	c-4.4,0.6-23.5,1.4-42.5,1.7l-34.5,0.6L263.2,330.1L263.2,330.1z M321.1,331c6.3,0,15.5-0.6,20.5-1.3l9-1.2l1.3-2.5l1.3-2.5l-0.6-18
	c-0.3-9.9-1.1-19.6-1.7-21.5s-1.5-5.1-1.9-7c-2-8.8-4.3-16-7-22c-1.6-3.6-3.4-7.9-4-9.6c-1.4-3.7-5.2-6.7-11.9-9.3l-5-2l-14.8,0.4
	c-28.7,0.7-34.1,3.9-35.8,20.6c-0.4,3.5-1.3,9.5-2.1,13.4s-1.6,13.1-1.8,20.5c-0.2,7.7-1.1,16.1-1.9,19.5c-0.9,3.3-1.6,7.1-1.6,8.5
	s-0.3,3.9-0.7,5.6l-0.6,3.1l2.4,2.6c2.9,3.2,4.6,3.4,27.3,3C301.5,331.2,314.8,331.1,321.1,331L321.1,331z M276.6,324.1
	c0.3-0.5,0.8-1,1.1-1s0.4,0.5,0.4,1s-0.5,1-1.1,1S276.3,324.6,276.6,324.1z M299.4,324.4c0.4-0.4,1-0.4,1.3,0s0.1,0.7-0.7,0.7
	S299.1,324.8,299.4,324.4z M281.4,323.4c0.4-0.4,1-0.4,1.3,0s0.1,0.7-0.7,0.7S281.1,323.8,281.4,323.4z M287.4,323.4
	c0.4-0.4,1-0.4,1.3,0s0.1,0.7-0.7,0.7S287.1,323.8,287.4,323.4z M293.4,323.4c0.4-0.4,1-0.4,1.3,0s0.1,0.7-0.7,0.7
	S293.1,323.8,293.4,323.4z M305.4,321.6c0-1,0.9-1.5,2.6-1.4c1.7,0.1,2,0.3,0.8,0.6c-1,0.3-1.5,0.9-1.2,1.4s-0.1,0.9-0.8,0.9
	S305.4,322.4,305.4,321.6L305.4,321.6z M318.9,322.4c0.7-0.3,1.8-0.3,2.5,0s0.1,0.5-1.3,0.5S318.2,322.7,318.9,322.4z M294.1,321.1
	c1.5-1,7.8-1.4,6.9-0.5c-0.3,0.3-2.3,0.7-4.4,1C293.8,321.9,293.1,321.7,294.1,321.1z M326.2,321.7c0.2-0.2,2.7-0.6,5.4-0.9
	c3.2-0.4,4.3-0.3,3,0.3C332.7,321.9,325.3,322.5,326.2,321.7L326.2,321.7z M318.1,320.1c0-0.5,0.7-0.7,1.5-0.4s1.5,0.8,1.5,1
	s-0.7,0.4-1.5,0.4S318.1,320.6,318.1,320.1z M272.2,318.5c0-1.2,0.3-1.4,0.6-0.6c0.3,0.7,0.3,1.6-0.1,1.9S272.1,319.5,272.2,318.5
	L272.2,318.5z M286.4,319.4c0.4-0.4,1-0.4,1.3,0s0.1,0.7-0.7,0.7S286.1,319.8,286.4,319.4z M325.1,319.4c1.4-0.2,4.2-0.8,6.4-1.3
	c2.2-0.5,3.5-0.5,3,0c-0.5,0.5-3.4,1.1-6.4,1.3S323.7,319.6,325.1,319.4L325.1,319.4z M283.4,318.4c0.4-0.4,1-0.4,1.3,0
	s0.1,0.7-0.7,0.7S283.1,318.8,283.4,318.4z M312.4,316.4c1-0.3,2.5-0.3,3.5,0s0.2,0.5-1.8,0.5S311.4,316.6,312.4,316.4z
	 M287.4,315.4c1-0.3,2.5-0.3,3.5,0s0.2,0.5-1.8,0.5S286.4,315.6,287.4,315.4z M293.4,315.4c0.4-0.4,1-0.4,1.3,0
	c0.4,0.4,0.1,0.7-0.7,0.7S293.1,315.8,293.4,315.4z M321.4,315.4c1.5-0.2,4-0.2,5.5,0s0.3,0.4-2.8,0.4S319.9,315.6,321.4,315.4z
	 M336.4,314.4c0.4-0.4,1-0.4,1.3,0c0.4,0.4,0.1,0.7-0.7,0.7S336.1,314.8,336.4,314.4z M342.6,311.1c-0.3-0.6-0.1-1,0.4-1
	s1.1,0.4,1.1,1s-0.2,1-0.4,1S343,311.6,342.6,311.1z M273.1,308.1c0-0.7,0.3-1,0.7-0.7c0.4,0.4,0.4,1,0,1.3S273.1,308.8,273.1,308.1
	L273.1,308.1z M273.4,301.4c0.4-0.4,1-0.4,1.3,0c0.4,0.4,0.1,0.7-0.7,0.7S273.1,301.8,273.4,301.4z M281.2,299.5
	c0-1.2,0.3-1.4,0.6-0.6c0.3,0.7,0.3,1.6-0.1,1.9S281.1,300.5,281.2,299.5L281.2,299.5z M274.1,297.1c0-0.7,0.3-1,0.7-0.7
	s0.4,1,0,1.3C274.4,298.1,274.1,297.8,274.1,297.1L274.1,297.1z M337.7,293.4l-0.7-1.8l1.2,1.2c0.7,0.7,1,1.5,0.7,1.8
	S338.1,294.3,337.7,293.4z M275.1,289.1c0-0.7,0.3-1,0.7-0.7s0.4,1,0,1.3C275.4,290.1,275.1,289.8,275.1,289.1L275.1,289.1z
	 M287.7,283.8c0.4-1,0.9-1.5,1.2-1.2s0,1.1-0.7,1.8l-1.2,1.2L287.7,283.8z M334.1,283.1c0-0.7,0.3-1,0.7-0.7s0.4,1,0,1.3
	C334.4,284.1,334.1,283.8,334.1,283.1L334.1,283.1z M276.1,280.1c0-0.7,0.3-1,0.7-0.7s0.4,1,0,1.3
	C276.4,281.1,276.1,280.8,276.1,280.1L276.1,280.1z M302.9,278.4c0.7-0.3,1.6-0.3,1.9,0.1s-0.3,0.6-1.3,0.5
	C302.4,278.9,302.1,278.7,302.9,278.4L302.9,278.4z M321.4,278.4c0.4-0.4,1-0.4,1.3,0s0.1,0.7-0.7,0.7S321.1,278.8,321.4,278.4z
	 M292.1,271.1c0-0.7,0.3-1,0.7-0.7s0.4,1,0,1.3C292.4,272.1,292.1,271.8,292.1,271.1L292.1,271.1z M331.1,271.1c0-0.7,0.3-1,0.7-0.7
	s0.4,1,0,1.3C331.4,272.1,331.1,271.8,331.1,271.1L331.1,271.1z M276.1,270.1c0-0.6,0.5-1,1-1s1,0.4,1,1c0,0.5-0.5,1-1,1
	S276.1,270.6,276.1,270.1z M278.1,262.1c0-0.7,0.3-1,0.7-0.7s0.4,1,0,1.3C278.4,263.1,278.1,262.8,278.1,262.1L278.1,262.1z
	 M332.2,260.5c0-1.2,0.3-1.4,0.6-0.6c0.3,0.7,0.3,1.6-0.1,1.9S332.1,261.5,332.2,260.5L332.2,260.5z M284.8,254.4
	c-0.4-0.4-0.7-1.1-0.7-1.7c0-0.6,0.5-0.6,1.2,0.1c0.7,0.7,1,1.4,0.7,1.7S285.1,254.8,284.8,254.4z M281.1,246.5c0-0.9,0.5-1.3,1-0.9
	s1,1,1,1.6s-0.5,0.9-1,0.9S281.1,247.4,281.1,246.5z M151.9,331.2c-1.6-0.6-11.8-13.8-11.8-15.2c0-1.4,6-8.8,8.8-10.8
	c3.6-2.5,9.2-3.9,9.2-2.2c0,0.6-1.1,1.1-2.4,1.1c-3.3,0-9.8,5-12.1,9.2l-1.9,3.6l5,6.4c2.7,3.5,5.8,6.5,6.7,6.7
	c1.9,0.4,15.9-11.6,17.8-15.2l1.1-2.1l-6.4-5.9c-3.5-3.3-5.8-5.7-5.1-5.5c1.9,0.6,10.7,8,12.1,10.2l1.2,1.8l-1.8,2.9
	c-2,3.1-16.5,16-17.9,15.9C154,332,152.8,331.6,151.9,331.2L151.9,331.2z M373.3,331.1c-4.8-0.4-7.9-1.2-9-2.4l-1.7-1.7l-0.6-12.2
	c-0.3-6.7-1.4-16.5-2.3-21.7s-2.3-13.3-3.1-18c-1.3-8-6.9-21.7-12.2-30.1c-1-1.6-1.4-3.5-1-5.1l0.6-2.6l8.8-0.7
	c10.6-0.8,30.7,0.7,35.4,2.7c7.7,3.2,21.6,22.2,27.8,37.9c10.5,26.7,12.6,35.6,10.5,43.5C424.6,328,397.3,333.3,373.3,331.1
	L373.3,331.1z M405,328.6c6.8-1.3,14-3.3,16-4.3l3.6-1.9l0.7-5.3c0.8-6.4-0.3-11.1-7.1-29.3c-2.8-7.5-5.1-13.8-5.1-14.2
	c0-2.1-14.2-23.7-18.2-27.7c-6.9-6.9-25.1-10.4-40.4-7.8c-3.3,0.6-6.7,0.9-7.5,0.7c-2.2-0.5-2.4,3.9-0.3,7c1,1.5,3.7,6.9,6.1,12.1
	l4.3,9.4l1.9,13.2c1,7.2,2.6,16.2,3.5,19.9s1.6,10.9,1.6,16c0,11.8,0.1,12,10.2,13.3C387.2,331.4,391.7,331.2,405,328.6L405,328.6z
	 M399.8,326c0.4-0.4,3.9-1,7.8-1.3s6.5-0.4,6-0.2C411.7,325.4,399.1,326.7,399.8,326L399.8,326z M386.9,325.3c2.4-0.2,6-0.2,8,0
	s0.1,0.4-4.3,0.4S384.5,325.5,386.9,325.3L386.9,325.3z M376.4,324.4c0.4-0.4,1-0.4,1.3,0s0.1,0.7-0.7,0.7S376.1,324.8,376.4,324.4z
	 M380.4,324.4c0.4-0.4,1-0.4,1.3,0s0.1,0.7-0.7,0.7S380.1,324.8,380.4,324.4z M388.9,323.4c0.7-0.3,1.6-0.3,1.9,0.1
	s-0.3,0.6-1.3,0.5C388.4,323.9,388.1,323.7,388.9,323.4L388.9,323.4z M393.9,323.4c0.7-0.3,1.6-0.3,1.9,0.1s-0.3,0.6-1.3,0.5
	C393.4,323.9,393.1,323.7,393.9,323.4L393.9,323.4z M400.1,323.7c0-0.2,0.7-0.7,1.6-1c0.9-0.3,1.3-0.2,0.9,0.4
	C402,324,400.1,324.5,400.1,323.7z M373.4,322.4c0.4-0.4,1-0.4,1.3,0s0.1,0.7-0.7,0.7S373.1,322.8,373.4,322.4z M376.4,321.5
	l-1.3-1.4l6.3,0.6l6.3,0.6l1.5-1.5c1-1,3-1.4,5.4-1.3c3.4,0.2,11.6-1,20.4-2.9l2.5-0.6l-2.5,1.1c-1.4,0.6-5.4,1.7-9,2.4l-6.5,1.3
	l4.4,0.1c8.3,0.2,3.2,1.3-7.1,1.6c-5.7,0.2-12.3,0.5-14.8,0.8C379,322.7,377.2,322.5,376.4,321.5L376.4,321.5z M395.8,319.4
	c-0.4-0.4-1-0.4-1.3,0s-0.1,0.7,0.7,0.7S396.1,319.8,395.8,319.4z M370.1,321.1c0-0.7,0.3-1,0.7-0.7s0.4,1,0,1.3
	S370.1,321.8,370.1,321.1z M412.6,319.1c2.7-1.2,4.3-1.2,2.5,0c-0.8,0.5-2.2,0.9-3,0.9C411.1,319.9,411.3,319.6,412.6,319.1z
	 M377.7,318.2c-0.3-0.5,0.6-0.6,1.9-0.4s2.5,0.6,2.5,0.9C382.1,319.5,378.2,319,377.7,318.2L377.7,318.2z M369.4,316.4
	c0.4-0.4,1-0.4,1.3,0s0.1,0.7-0.7,0.7S369.1,316.8,369.4,316.4z M369.1,310.5c0-0.9,0.5-1.3,1-0.9c0.6,0.3,0.8,1,0.4,1.6
	C369.7,312.5,369.1,312.3,369.1,310.5L369.1,310.5z M374.4,307.6c0-2.8,0.2-3.8,0.4-2.2c0.2,1.5,0.2,3.8,0,5
	C374.6,311.6,374.4,310.3,374.4,307.6L374.4,307.6z M369.1,305.1c0-0.5,0.5-1,1.1-1s0.8,0.5,0.4,1c-0.3,0.6-0.8,1-1.1,1
	S369.1,305.6,369.1,305.1z M368.1,298.6c0-0.8,0.4-1.5,1-1.5s0.7,0.7,0.4,1.5c-0.3,0.8-0.8,1.5-1,1.5S368.1,299.4,368.1,298.6z
	 M375.2,294.5c0-1.2,0.3-1.4,0.6-0.6c0.3,0.7,0.3,1.6-0.1,1.9S375.1,295.5,375.2,294.5L375.2,294.5z M366.1,284c0-0.6,0.5-0.8,1-0.4
	c0.5,0.3,1,0.8,1,1.1s-0.5,0.4-1,0.4S366.1,284.6,366.1,284z M397.9,278.4c0.7-0.3,1.6-0.3,1.9,0.1c0.3,0.3-0.3,0.6-1.3,0.5
	C397.4,278.9,397.1,278.7,397.9,278.4L397.9,278.4z M364.1,276.1c0-0.7,0.3-1,0.7-0.7c0.4,0.4,0.4,1,0,1.3S364.1,276.8,364.1,276.1
	L364.1,276.1z M362.1,269.1c0-0.7,0.3-1,0.7-0.7c0.4,0.4,0.4,1,0,1.3S362.1,269.8,362.1,269.1L362.1,269.1z M359.1,262.1
	c0-0.6,0.5-1,1-1s1,0.4,1,1s-0.5,1-1,1S359.1,262.6,359.1,262.1z M357.1,255.1c0-0.7,0.3-1,0.7-0.7s0.4,1,0,1.3
	C357.4,256.1,357.1,255.8,357.1,255.1L357.1,255.1z M360,250.3l-1.4-1.8l1.8,1.4c1.7,1.3,2.2,2.1,1.4,2.1
	C361.5,252.1,360.7,251.3,360,250.3z M356.6,246.1c-1-1.1-1.4-2-0.9-2s1.5,0.9,2.2,2s1.1,2,0.9,2S357.6,247.2,356.6,246.1z
	 M148.1,322.1c0-0.7,0.3-1,0.7-0.7s0.4,1,0,1.3S148.1,322.8,148.1,322.1z M431.3,314.3c-0.6-1.5-1.3-6-1.6-10
	c-0.4-5.3-1.8-10.1-5-18c-2.4-5.9-5.4-13.7-6.6-17.3c-3.2-9.6-8.4-19-14.1-25.4c-4.4-5-6.3-10.2-2.8-8.1c0.6,0.3,0.8,1.1,0.4,1.6
	s1.5,3.3,4,6.2c5.3,6,12.4,19.4,15.1,28.2c1,3.3,2.4,6.9,3,8s1.8,3.8,2.4,6s1.6,4.4,2,5c1.3,1.7,2.8,8.6,3.4,15.5
	c0.3,3.5,1.2,7.5,2.1,8.8l1.5,2.3h-1.4C433,317.1,431.9,315.8,431.3,314.3L431.3,314.3z M103.1,248.1c0-0.7,0.3-1,0.7-0.7
	s0.4,1,0,1.3S103.1,248.8,103.1,248.1L103.1,248.1z M107.1,248.3c0.5-0.2,0.7-0.9,0.4-1.7s1.4-3.3,3.7-5.6c2.9-2.9,3.8-4.4,2.9-4.7
	c-0.8-0.3-2.3-1.5-3.5-2.7c-1.9-2.1-4.2-2.9-7.1-2.6c-0.6,0.1-1.6,1.2-2.2,2.6c-0.8,1.9-1.9,2.5-4.2,2.5h-3l0,2.3
	c0,1.7-0.2,1.9-0.9,0.8c-1.3-2.1-0.2-3.9,2.7-4.3c1.4-0.2,3-1.1,3.6-2l1.1-1.7l-3.5-3.6c-8.7-9-20.4-13.5-24-9.2
	c-2.2,2.6-2.6,1.1-0.6-1.8c3.2-4.4,14.6,0,24,9.1l3.8,3.7l4.7,0.4c3.1,0.3,5.4,1.1,6.9,2.6c3.8,3.9,5.2,4.7,7.3,4.7
	c2.9,0,6,1.8,6,3.4c0,0.7,1.1,1.6,2.5,2c2.8,0.7,3.5,3.6,0.8,3.6c-0.9,0-1.4-0.2-1.1-0.5s-0.9-2-2.6-3.7c-3.8-3.8-9-4.4-11.2-1.2
	c-0.7,1.1-2.4,3-3.6,4.2l-2.3,2.3h6.2c3.4,0,6.2,0.4,6.2,0.9s-3.1,0.8-7,0.8S106.5,248.4,107.1,248.3L107.1,248.3z M121.4,247.4
	c0.4-0.4,1-0.4,1.3,0s0.1,0.7-0.7,0.7S121.1,247.8,121.4,247.4L121.4,247.4z M124.1,247.1c0-0.6,0.5-1,1.1-1s0.8,0.4,0.4,1
	s-0.8,1-1.1,1S124.1,247.6,124.1,247.1z M53.8,241.1c-2.2-1-3.4-2.1-2.8-2.5c0.6-0.4,1.1-3.3,1.1-6.5v-5.8l3.3-2.5
	c4.4-3.4,9.3-5.8,11.4-5.7c1,0-0.1,0.9-2.5,2s-5.8,3.1-7.8,4.6l-3.5,2.7l0.1,6.3l0.1,6.3l2,0.9c1.2,0.5,3.9,0.5,6.8-0.1
	c3.2-0.7,5.6-0.6,7.1,0l2.3,1l-3.5-0.1c-1.9,0-5,0.2-7,0.6C58.7,242.7,56.4,242.3,53.8,241.1L53.8,241.1z M93.1,242.1
	c1.4-0.9,12.9-1.5,11.9-0.6c-0.2,0.2-3.3,0.6-6.9,1C93.7,242.8,92.1,242.7,93.1,242.1L93.1,242.1z M416.1,236.3c0-1,14-4.9,21.3-5.9
	l4.8-0.6l-0.7-5.3c-0.8-6.3,1.4-13.9,5.3-18.5l2.5-3l-1.9-2.1l-1.9-2.1l0.1-6.2l0.1-6.2l2.9-5.4c1.6-3,5.1-7.7,7.9-10.6l5-5.2l4-0.6
	c7.8-1.2,8.5-1.5,8.5-3.5c0-1.1,1-2.6,2.2-3.5c6.3-4.4,12.1,4.5,6.3,9.8l-2.4,2.3l0.6,4.4c0.3,2.4,1.1,4.8,1.7,5.2
	c0.8,0.5,0.7,0.7-0.1,0.8c-0.7,0-1.5,1.6-1.9,3.5s-1.9,5.5-3.5,7.9l-2.8,4.4l5,2.6c6,3.1,5.5,3.1,6.1,0.2c0.3-1.5-0.2-3-1.4-4
	c-4.3-3.7-0.5-11,5.4-10.4c2.4,0.2,3.3,0.9,3.7,2.7l0.6,2.4l3.2,0.3c1.8,0.1,3.7-0.4,4.4-1.1c0.6-0.8,1.9-1.4,2.7-1.4
	c1.2,0,1,0.4-0.6,1.6l-2.2,1.6l1.5,2.9c0.8,1.6,1.5,4.3,1.5,5.9c0,2,0.5,3,1.5,3c0.8,0,1.5,0.5,1.5,1.1s-0.6,0.9-1.4,0.6
	c-0.9-0.4-1.6,0.4-2,2.3c-0.9,4.4-5.7,9.2-9.3,9.4l-3.1,0.1l-0.6,6.5c-0.3,3.6-0.8,7.4-1.2,8.5l-0.6,2l6.3,0.2
	c8.8,0.3,14.8,1.3,14.8,2.5c0,0.6-0.7,0.7-1.8,0.3c-1-0.4-11.9-1.1-24.3-1.5s-25.6-1.2-29.5-1.8c-10.9-1.6-20.7-0.4-36.8,4.4
	C416.9,237,416.1,236.8,416.1,236.3L416.1,236.3z M480.8,232.4l6-0.6l1.4-3.1c5.5-12.5-6.5-34.8-16.7-30.9c-1.2,0.5-0.9-0.4,1.1-2.8
	c6.7-8,8.7-19.9,4.5-26.8l-2.1-3.4l-5.4,0.4c-17.4,1.4-30.5,32.1-15.9,37.3l3.9,1.4l-3.3,0c-7,0.1-12.4,10.8-10.8,21.5l0.7,4.4
	l7.7,0.6c4.2,0.4,9.5,1,11.7,1.5C468.8,233.1,473.4,233.2,480.8,232.4L480.8,232.4z M472.4,170.4c0.4-0.4,1-0.4,1.3,0
	c0.4,0.4,0.1,0.7-0.7,0.7S472.1,170.8,472.4,170.4z M498.9,211.7c6.1-5.5,4.4-20.7-2.3-20.7c-7,0-11.2,8.9-7.9,17
	C491.5,215.3,493.9,216.2,498.9,211.7L498.9,211.7z M489.9,192.1c3.8-3.2,2.3-7.2-2.3-6.3c-2.6,0.5-4.1,3.9-3.1,6.7
	C485.2,194.6,487.1,194.4,489.9,192.1L489.9,192.1z M482.1,165.6c2.6-3.2-0.6-8.7-4.3-7.2c-2.2,0.9-2.2,6.3,0.1,7.6
	C480.2,167.4,480.7,167.3,482.1,165.6L482.1,165.6z M380.6,233.9c-4.4-0.4-10.2-1.2-12.9-1.8s-11.9-1.5-20.5-2s-17.5-1.2-19.8-1.5
	l-4.2-0.5l-2.9-6.2c-3.1-6.6-4.6-10.7-3.8-10.7c0.5,0,5,9.1,6.6,13.3c0.7,1.9,1.7,2.8,3.3,2.8c5.8,0,40,3,43.9,3.9
	c2.4,0.5,8.3,1.3,13.1,1.6l8.7,0.7l0.6-1.5c3-7.8-16.7-19.5-41.7-24.7l-10.3-2.1l-8.4,1.1c-4.6,0.6-10.3,1.8-12.5,2.5
	c-4.8,1.7-5.9,1.8-5.2,0.6c1.3-2.2,13.4-4.5,23.6-4.5c22.9,0,52.2,12.5,56,23.9C396,234.3,394,235.1,380.6,233.9L380.6,233.9z
	 M245,230.9c-6.5-0.8-19-5.6-20.3-7.8c-0.9-1.5,0.5-1.4,2.4,0.3c5.4,4.7,23.2,7.8,32.8,5.8c2.8-0.6,15.2-1.6,27.5-2.2
	c28.4-1.4,30.1-2.1,23.4-10.2c-1.4-1.6-2.2-3.4-1.9-4c0.4-0.6,1-0.3,1.7,0.8c0.6,1,1.8,2.7,2.9,3.7c2.1,2,2.5,7,0.6,8.5
	c-0.7,0.6-10.9,1.5-22.8,2.1c-18.5,0.9-24.8,1.5-37.5,3.5C252.5,231.6,248.6,231.4,245,230.9L245,230.9z M493.6,228.1
	c-0.3-0.6-0.1-1,0.4-1s1.1,0.4,1.1,1s-0.2,1-0.4,1S494,228.6,493.6,228.1z M369.3,224.4c-5.8-2-5-2.3,2.3-0.9
	c4.1,0.8,5.4,1.4,4.2,1.9c-1,0.4-1.9,0.6-1.9,0.6S371.7,225.2,369.3,224.4L369.3,224.4z M69.1,223.8c0-0.9,0.7-1.8,1.6-2.2l1.6-0.6
	l-1.4,1.8c-0.7,1-1.5,2-1.6,2.2S69.1,224.7,69.1,223.8L69.1,223.8z M241.4,224.4c0.4-0.4,1-0.4,1.3,0s0.1,0.7-0.7,0.7
	S241.1,224.8,241.4,224.4L241.4,224.4z M238.4,223.4c0.4-0.4,1-0.4,1.3,0s0.1,0.7-0.7,0.7S238.1,223.8,238.4,223.4L238.4,223.4z
	 M494.1,223.1c0-0.6,0.5-1,1-1s1,0.4,1,1s-0.5,1-1,1S494.1,223.6,494.1,223.1z M152.6,222c-3.3-0.4-10.4-1.3-15.8-1.9
	s-11.9-1.8-14.5-2.6s-5.9-1.4-7.3-1.4s-4.6-0.6-7-1.4s-7.8-2.3-11.9-3.5l-7.5-2.1l-28.5-0.7c-15.9-0.4-26.7-1-24.5-1.4
	c4.2-0.7,7.3-0.7,36,0.5c17.6,0.7,24.9,1.9,37,6.2c2.2,0.8,5.1,1.4,6.3,1.4s4.6,0.7,7.5,1.5c4.7,1.3,13.5,2.5,31.9,4.2
	c3.7,0.3,7,1,7.3,1.5C162.3,223.2,161.4,223.1,152.6,222L152.6,222z M253.4,222.4c0.4-0.4,1-0.4,1.3,0c0.4,0.4,0.1,0.7-0.7,0.7
	S253.1,222.8,253.4,222.4L253.4,222.4z M339.4,222.4c0.4-0.4,1-0.4,1.3,0s0.1,0.7-0.7,0.7S339.1,222.8,339.4,222.4z M283.9,221.4
	c0.7-0.3,1.6-0.3,1.9,0.1s-0.3,0.6-1.3,0.5C283.4,221.9,283.1,221.7,283.9,221.4L283.9,221.4z M347.1,221.1
	c-1.4-0.5,0.9-0.6,5.5-0.3c4.4,0.3,8.2,0.7,8.4,0.9C361.9,222.4,349.6,221.9,347.1,221.1L347.1,221.1z M241.4,220.4
	c0.4-0.4,1-0.4,1.3,0s0.1,0.7-0.7,0.7S241.1,220.8,241.4,220.4L241.4,220.4z M249.1,220.1c0.8-0.5,2.2-0.9,3-0.9
	c1,0,0.8,0.3-0.5,0.9C248.9,221.3,247.3,221.3,249.1,220.1z M366.9,220.4c0.7-0.3,1.8-0.3,2.5,0s0.1,0.5-1.3,0.5
	S366.2,220.7,366.9,220.4z M237.9,219.4c0.7-0.3,1.6-0.3,1.9,0.1s-0.3,0.6-1.3,0.5C237.4,219.9,237.1,219.7,237.9,219.4L237.9,219.4
	z M335.4,219.4c0.4-0.4,1-0.4,1.3,0s0.1,0.7-0.7,0.7S335.1,219.8,335.4,219.4z M340.4,219.4c1-0.3,2.3-0.2,3,0s-0.1,0.5-1.8,0.5
	S339.4,219.6,340.4,219.4L340.4,219.4z M355.9,219.4c0.7-0.3,1.8-0.3,2.5,0s0.1,0.5-1.3,0.5S355.2,219.7,355.9,219.4z M496.8,219.4
	c-0.4-0.4-0.7-1.1-0.7-1.7c0-0.6,0.5-0.6,1.2,0.1c0.7,0.7,1,1.4,0.7,1.7S497.1,219.8,496.8,219.4z M234.4,218.4c0.4-0.4,1-0.4,1.3,0
	s0.1,0.7-0.7,0.7S234.1,218.8,234.4,218.4L234.4,218.4z M266.4,218.4c0.4-0.4,1-0.4,1.3,0s0.1,0.7-0.7,0.7S266.1,218.8,266.4,218.4z
	 M297.9,218.4c0.7-0.3,1.8-0.3,2.5,0s0.1,0.5-1.3,0.5S297.2,218.7,297.9,218.4z M438.4,218.4c0.4-0.4,1-0.4,1.3,0s0.1,0.7-0.7,0.7
	S438.1,218.8,438.4,218.4z M231.4,217.4c0.4-0.4,1-0.4,1.3,0s0.1,0.7-0.7,0.7S231.1,217.8,231.4,217.4L231.4,217.4z M240.1,217.1
	l-1.5-1l1.8,0c1,0,1.8,0.4,1.8,1C242.1,218.3,242,218.3,240.1,217.1z M277.4,217.4c1.5-0.2,4-0.2,5.5,0s0.3,0.4-2.8,0.4
	S275.8,217.6,277.4,217.4z M344.4,217.4c0.4-0.4,1-0.4,1.3,0s0.1,0.7-0.7,0.7S344.1,217.8,344.4,217.4z M338.4,216.4
	c1-0.3,2.5-0.3,3.5,0s0.2,0.5-1.8,0.5S337.4,216.6,338.4,216.4z M324.3,213.4l-1.3-2.9l1.7,1.7c0.9,0.9,1.5,2.2,1.3,2.9
	S325,215,324.3,213.4z M502.1,214.1c0-0.7,0.3-1,0.7-0.7s0.4,1,0,1.3S502.1,214.8,502.1,214.1L502.1,214.1z M438.9,212.4
	c0.7-0.3,1.6-0.3,1.9,0.1s-0.3,0.6-1.3,0.5C438.4,212.9,438.1,212.7,438.9,212.4L438.9,212.4z M505.1,209c0-0.6,0.5-0.8,1-0.4
	s1,0.8,1,1.1s-0.5,0.4-1,0.4S505.1,209.6,505.1,209z M15.2,208c-4.8-0.9-13.5-4.8-12.7-5.7c0.3-0.3,1.6,0.2,2.8,1s5.6,2.3,9.5,3.3
	C24.6,209,24.9,209.9,15.2,208L15.2,208z M440.1,208c0-0.6,0.5-0.8,1-0.4s1,0.8,1,1.1s-0.5,0.4-1,0.4S440.1,208.6,440.1,208z
	 M24.9,207.4c1.2-0.2,3.3-0.2,4.5,0s0.2,0.4-2.3,0.4S23.6,207.6,24.9,207.4z M440.8,200.6c0.3-0.8,1-1.5,1.4-1.5s0.6,0.7,0.3,1.5
	s-1,1.5-1.4,1.5S440.4,201.4,440.8,200.6z M505.4,196.4c0.4-0.4,1-0.4,1.3,0s0.1,0.7-0.7,0.7S505.1,196.8,505.4,196.4L505.4,196.4z
	 M440.1,194.5c0.7-0.8,1.5-1.3,1.7-1.1c0.7,0.7-0.7,2.6-1.9,2.6C439.3,196.1,439.3,195.5,440.1,194.5z M504.1,192.1
	c0-0.6,0.7-1,1.6-1s1.3,0.4,0.9,1s-1,1-1.6,1S504.1,192.6,504.1,192.1z M442.1,187.1c0-0.6,0.5-1,1.1-1s0.8,0.4,0.4,1s-0.8,1-1.1,1
	S442.1,187.6,442.1,187.1z M39.1,186.1c0-0.7,0.3-1,0.7-0.7s0.4,1,0,1.3S39.1,186.8,39.1,186.1L39.1,186.1z M497.1,186.1
	c0-0.6,0.5-1,1.1-1s0.8,0.4,0.4,1s-0.8,1-1.1,1S497.1,186.6,497.1,186.1z M44.6,185.1c0.3-0.6,0.8-1,1.1-1s0.4,0.4,0.4,1
	s-0.5,1-1.1,1S44.3,185.6,44.6,185.1L44.6,185.1z M49,184.9c-1.5-0.4-1.7-0.7-0.7-0.8c2.2-0.1,3.3-2,1.9-3.4
	c-0.6-0.6-1.1-2.1-1.1-3.2c0-2.8-1-3.7-2.7-2.3c-0.9,0.8-1.3,0.8-1.3,0c0-0.6,0.6-1.4,1.3-1.9c1.9-1.1,2.9-4.3,1.4-4.4
	c-0.7,0-0.2-0.5,1-1c2.3-0.9,3.1-3,1.3-3c-0.5,0-1-0.5-1-1.2v-1.2l1.2,1.2c2,2,3,1.3,2.4-1.6l-0.6-2.8l1.4,1.8
	c0.8,1,2.2,1.8,3.3,1.8l1.9,0l-3,1.8c-9.3,5.7-6.4,19.2,4.2,19.2h4.3l1.4-2.3c0.8-1.2,1.7-3.7,2.1-5.6l0.7-3.3l-2.6-3.9
	c-1.4-2.1-3.5-4.2-4.6-4.5s-1.8-1-1.6-1.4c0.3-0.4-0.6-1.8-1.9-3s-2.7-3.7-3-5.6s-1.2-3.6-1.8-3.8c-0.7-0.3-0.5-0.5,0.5-0.6
	c2-0.1,2.4-2.6,0.5-3.5c-0.8-0.4-0.7-0.5,0.3-0.4c1.9,0.2,8-3.4,8-4.7c0-1,3.4-4.5,5.7-5.9c0.7-0.4,2.1-0.3,3.2,0.3
	c1.4,0.8,2.1,0.7,2.5-0.2c0.3-0.7,0.3,0,0,1.4l-0.5,2.7l2.1,0.7c4.6,1.5,2.9,9.5-2,9.5h-1.8l1.1,3.5l1.1,3.5l-2.2,3
	c-1.4,2-1.8,3-0.9,3c0.7,0,1.9-0.9,2.6-2.1c0.7-1.2,1.6-1.8,1.9-1.5c0.3,0.3,0,1.3-0.7,2.1c-1,1.2-1,1.8-0.1,2.7
	c0.6,0.6,1.2,2,1.2,3.1c0,2.2,4.1,6.4,5.9,6c0.7-0.1,0.7,0,0.2,0.3c-0.6,0.3-1,1.7-1,3.2c0,5.1-3.9,7.8-8.9,6
	c-3.4-1.2-5.5-0.4-3,1.2c0.8,0.5,1.2,1,1,1.1C67.3,185.7,51,185.5,49,184.9L49,184.9z M77.5,180.5c2.7-2.7,0.6-9.4-2.9-9.4
	c-3.2,0-7,8.2-4.8,10.3C71,182.7,76,182.1,77.5,180.5L77.5,180.5z M69.8,171.1c-0.3-1.3,0-2,0.9-2c2,0,3-3,1.3-4.1
	c-2.3-1.4-2.9-1.1-2.9,1.6c0,1.6-0.4,2.3-1.1,1.9c-0.6-0.4-0.9-1.8-0.6-3.1c0.4-1.8,0.1-2.3-1-1.9c-0.8,0.3-1.6,0.6-1.8,0.6
	c-0.5,0,4.9,8.9,5.4,9C70.2,173.1,70.1,172.2,69.8,171.1L69.8,171.1z M69.1,160.1c4.3-4.3-0.6-16-6.8-16c-2.7,0-6.2,4.8-6.2,8.5
	C56.1,159.8,64.5,164.7,69.1,160.1z M74.9,147.9c1.7-1.7,1.5-5.5-0.3-6.2c-3.9-1.5-7.2,3.6-3.9,6C72.9,149.4,73.4,149.4,74.9,147.9z
	 M68.5,142.6c0.3-0.8,0.2-1.5-0.3-1.5s-1.1,0.7-1.4,1.5s-0.2,1.5,0.3,1.5S68.2,143.4,68.5,142.6z M65.1,141.1c0-0.6-0.2-1-0.4-1
	s-0.7,0.4-1.1,1s-0.1,1,0.4,1S65.1,141.6,65.1,141.1z M70.7,139c0.9-1.4-1.7-3.1-2.9-1.9c-1,1,0,3,1.4,3
	C69.6,140.1,70.3,139.6,70.7,139z M95.6,183.1c-1-0.3-1.1-1-0.5-1.9l0.9-1.4l1.7,1.4l1.7,1.4l-0.5-4.4c-0.3-2.4-1-5.9-1.7-7.7
	c-2.2-6.1,0.6-12.3,7.6-16.9l2.5-1.6l-1.6-2.4L104,147l1.5-2.9c1.1-2.1,1.1-3,0.3-3.4c-0.6-0.3-0.2-0.4,0.9-0.3
	c1.5,0.2,1.9-0.3,1.7-1.8l-0.3-2l1.4,1.8c2,2.5,4.4,2.2,7.1-0.9c1.7-2,3.2-2.7,6-2.7s3.6-0.4,3.4-1.6c-0.7-4.8,4.2-9.2,8-7.1
	c5.3,2.8,4.5,9.1-1.4,11.3l-3.3,1.2l0.9,1.8c0.5,1,0.9,2.9,0.9,4.2v2.4l2.8,0.6c4.7,1,6.6,3.1,6.6,7.2v3.7l-2.8,2.4
	c-1.9,1.6-4,2.4-6.7,2.4h-3.9v2.5c0,3.8-2,7.6-6.5,12.6l-4.1,4.5L114,182c-1.3-0.3-2.9-0.3-3.4,0.1c-2.9,2-6,1.9-7.7-0.3l-1.7-2.2
	l0.5,2l0.5,2h-2.6C98.2,183.6,96.4,183.3,95.6,183.1L95.6,183.1z M107.8,177.1c1,0,1.2,0.6,0.8,2c-0.7,2.3,0.2,2.5,2.9,0.5
	c1.5-1.1,2.3-1.2,3.3-0.3l1.4,1.1l3.1-2.9c9.1-8.7,7-21.4-4.1-24.4l-3.9-1.1l-3.3,1.4c-10.4,4.4-12.5,16.8-4.5,26.5l1.2,1.4l0.9-2.1
	C106,178,107.1,177.1,107.8,177.1L107.8,177.1z M110.4,175.4c0.4-0.4,1-0.4,1.3,0s0.1,0.7-0.7,0.7S110.1,175.8,110.4,175.4
	L110.4,175.4z M115.4,165.4c0.4-0.4,1-0.4,1.3,0s0.1,0.7-0.7,0.7S115.1,165.8,115.4,165.4L115.4,165.4z M115.4,158.4
	c0.4-0.4,1-0.4,1.3,0s0.1,0.7-0.7,0.7S115.1,158.8,115.4,158.4L115.4,158.4z M134.6,161.1c3.1-1.2,5-5,4.2-8.3
	c-1.3-5.3-11.7-5.3-13.7,0C122.7,159,127.9,163.6,134.6,161.1L134.6,161.1z M130.1,158.1c0-0.7,0.3-1,0.7-0.7c0.4,0.4,0.4,1,0,1.3
	C130.4,159.1,130.1,158.8,130.1,158.1L130.1,158.1z M123.1,153.6c0-2.6-0.3-3-3.7-4.1l-3.2-1.1l-0.6,1.5c-0.3,0.8-0.5,1.6-0.3,1.6
	c0.2,0.1,1.6,0.9,3.3,1.8C122.5,155.4,123.1,155.4,123.1,153.6L123.1,153.6z M114.9,146.4c0.8-5.5-5.7-6.8-8.1-1.7l-1.2,2.5l2.4,1.9
	l2.4,1.9l2.1-1.4C113.7,149,114.7,147.5,114.9,146.4L114.9,146.4z M127.2,148c4.6-2.5,1-12-4.6-12c-1.4,0-3.4,0.9-4.5,2
	C112.5,143.7,119.9,151.9,127.2,148L127.2,148z M134.6,134.1l1.8-2l-1.1-2.5c-1.7-3.7-8.2-2.4-8.2,1.6
	C127.1,135.7,131.6,137.4,134.6,134.1L134.6,134.1z M484.1,183.1c0-0.7,0.3-1,0.7-0.7s0.4,1,0,1.3S484.1,183.8,484.1,183.1
	L484.1,183.1z M495.5,183.4c0.4-0.4,1-0.4,1.3,0s0.1,0.7-0.7,0.7S495.1,183.8,495.5,183.4z M488.1,181.5c0-0.9,0.5-1.3,1-0.9
	s0.8,1,0.4,1.6C488.7,183.5,488.1,183.3,488.1,181.5L488.1,181.5z M491.1,182.1c0-0.5,0.5-1,1-1s1,0.5,1,1c0,0.6-0.5,1-1,1
	S491.1,182.6,491.1,182.1z M45.1,181.2c0-0.6,0.5-1.3,1-1.6s1-0.2,1,0.4s-0.5,1.3-1,1.6S45.1,181.7,45.1,181.2z M444.1,181
	c0-0.5,0.7-1,1.5-1s1.5,0.2,1.5,0.4s-0.7,0.7-1.5,1S444.1,181.6,444.1,181z M125.1,180.1c0-0.7,10.4-4,21-6.6c3-0.7,7.5-1.9,10-2.5
	c2.5-0.6,6.1-0.9,8.1-0.6c5.7,0.9,18-1.8,30-6.6c2.6-1,8.2-2.3,12.5-2.9s9.9-1.5,12.6-2.1l4.8-1.1v-4.4c0-2.4-0.4-4.4-1-4.4
	s-1-1.3-1-3c0-2.1,0.5-3,1.6-3h1.6l-0.2-4.8c-0.3-7.1-0.1-8.3,1.5-8.3c0.8,0,1.5-0.8,1.5-1.8v-1.8l-6.8-1.7
	c-3.7-0.9-11.3-2.1-16.8-2.6c-5.5-0.5-15-2.2-21-3.9c-6-1.6-15.6-3.9-21.4-5.1c-24.3-4.9-32.8-6.9-35-8.1c-4.9-2.6-14-4.1-28.5-4.6
	l-15-0.5l-9.5,3.7c-16.9,6.6-23.4,7.3-32.7,3.4l-3.2-1.3l-9.8,3.8c-9.5,3.7-12.9,4.6-22.1,6c-2.8,0.4-4.1,0.3-3.7-0.4
	c0.3-0.6,2.1-1,3.8-1c4.3,0,11.5-2,21-5.8c8.6-3.4,13.3-3.9,16.2-1.7c1.2,0.9,4.3,1.5,8.4,1.5l6.5,0l11.5-4.6l11.5-4.6L93.8,99
	c14.9,0.1,23.1,1.3,34.3,5.1c4.7,1.6,10.5,3.2,13,3.6s8,1.5,12.4,2.6c4.3,1.1,12.4,2.8,18,3.9c5.6,1.1,14.2,3.1,19.1,4.4
	c5.7,1.6,11.6,2.5,16,2.5c3.9,0,10,0.8,13.7,1.9c7.9,2.2,7.8,2.3,7.8-4.5c0-9.5,3.5-8.1,5.9,2.3l1.3,6l7.7,2.1
	c4.2,1.2,9.3,2.4,11.3,2.8l3.7,0.6l0.4-2.3c0.7-4.2-1-9-4.3-12.4l-3.2-3.3l-0.7-11.8c-0.8-13.6,0.3-17.6,3.8-14.1l1.2,1.2v-2.2
	c0-2.6,2.8-4.1,4-2.2c0.4,0.7,0.6,6.6,0.3,13c-0.6,12.2,0.3,15.2,3.1,10.8c1-1.6,1.6-6.8,1.9-18.5l0.5-16.2l-1.3-1.1
	c-2.7-2.3-8.2-2.3-11-0.1c-1.8,1.4-3.5,1.9-5.1,1.5c-1.7-0.4-3.4,0.2-5.8,2l-3.4,2.6l-4.6-1c-2.6-0.6-7.9-2.8-11.8-5
	c-3.9-2.2-9.1-4.6-11.6-5.5l-4.4-1.6l-1.8,1.6c-1.2,1.1-2.9,1.5-5.1,1.2c-2.1-0.3-5,0.3-8.2,1.8l-4.9,2.3l-3.6-1.3
	c-2-0.7-4.8-1.8-6.2-2.5l-2.6-1.2l-9,4.5c-5,2.5-9.9,4.5-10.9,4.5s-4.7,0.8-8.1,1.7l-6.2,1.7l-5.6-2.7c-3.1-1.5-6.9-3.9-8.6-5.3
	l-3-2.6l-3.9,1.3l-3.9,1.3l-3.4-2.1c-3.4-2.1-7.6-6.2-6.4-6.2c0.4,0,2.7,1.6,5.2,3.5l4.6,3.5l4-1.6l4-1.6l2.7,2.5
	c7.7,7.2,15.4,9.2,23.7,6.2c2.2-0.8,4.9-1.4,5.9-1.5s5.6-2,10.2-4.5l8.3-4.5l5.3,2.5c6.5,3,7.3,3,12.3,0.4c2.6-1.3,5.1-1.9,7.1-1.6
	c2,0.3,3.6,0,4.4-0.9c2.4-2.9,11.2-0.3,22.9,6.7c2.5,1.5,6.4,3,8.8,3.4l4.3,0.7l3.2-2.7c2.2-1.9,3.8-2.5,5.5-2.1
	c1.6,0.4,3.4-0.1,5.4-1.6l3-2.2l3.7,1.1c2.1,0.6,4.4,1.3,5.2,1.7c1,0.4,2-0.4,3-2.5c3.3-7,7.2-6.1,7.4,1.7l0.1,4.7l2.4,1.9
	c3,2.4,6.3,2.4,13.9-0.1l6.1-2l3.9,0.9c2.2,0.5,5.4,2,7.3,3.4c12.2,9.2,19.6,12.1,23.4,9.3c1.1-0.8,3.4-1.5,5.1-1.5
	c1.8,0,3.5-0.5,3.8-1s2.3-1.7,4.3-2.6l3.7-1.5l6.1,3.3l6.1,3.3l4.4-2.3l4.4-2.3l6.2,3.2c3.4,1.8,6.2,3.7,6.2,4.2s-2.5-0.4-5.5-2.1
	c-6.4-3.6-8.5-3.8-10.9-1.2l-1.7,1.9l1.3,0.5c0.7,0.3,1,0.8,0.6,1.2s-4.5-1.1-9.1-3.4c-8.9-4.3-9.9-4.4-15-0.8
	c-1.5,1.1-3.4,1.7-4.2,1.4c-1.4-0.6-8.3,2.8-9.7,4.8c-0.5,0.7-1.1,0.4-1.8-0.7c-0.6-1-1.5-1.8-2-1.8c-1,0-9.5-5.2-16.5-10
	c-5.7-3.9-10-4.5-17-2c-7,2.4-9.1,2.5-12.9,0.5c-3.9-2.1-4-1.9-4.4,10.8c-0.2,7.9,0,10.7,0.7,9.7c0.6-0.8,1.1-3.5,1.1-6
	c0-5.4,1.2-7.5,3.5-6.6l1.7,0.7l-0.5,7.2c-0.5,7.6-2.9,13.7-5.3,13.7c-1,0-1.5,1.1-1.5,3.4c0,4.4,1.7,5.5,3,2c1.2-3.1,3.2-2.8,4,0.6
	c1,4.2-0.1,7.1-3.2,8.3c-2.8,1-3.9,2.6-1.9,2.6c1.7,0,1.1,2.2-1.1,4.6c-3.4,3.6-1.5,4.7,10.6,6c2.8,0.3,7.8,1.2,11.2,2
	s10.3,1.9,15.4,2.3l9.3,0.9l8.6-2.3c4.7-1.3,10.6-2.6,13.1-3c2.5-0.4,7.9-1.5,12-2.5s10.2-2.1,13.5-2.5c9.4-1,31.9-4.3,44-6.4
	c6.9-1.2,18.2-2.1,30.5-2.5l19.5-0.6l13,2.4c7.1,1.3,17.7,3.1,23.5,4s10.9,2.1,11.5,2.7c0.7,0.7,0.1,0.9-2,0.5
	c-1.6-0.3-7-1.3-12-2.1s-15.3-2.7-22.9-4.1l-13.9-2.5l-8.9,1.2c-4.9,0.6-11.3,0.9-14.1,0.6c-5.6-0.7-13.2,0.1-33.1,3.3
	c-26.4,4.3-32.1,5.1-35.3,5.1c-1.8,0-7,0.9-11.5,1.9c-10.4,2.5-28.9,6.7-39.2,9c-4.4,1-10.9,2.1-14.5,2.5s-12.4,2.1-19.5,3.7
	c-15.8,3.7-29.6,5.8-39,5.8c-4.2,0-11.6,1.2-18.5,2.9c-6.3,1.6-14.2,3.2-17.5,3.5s-8.5,1.5-11.5,2.6c-14.3,4.9-20.8,6.4-29,6.6
	c-8.6,0.2-18.7,2.1-29.5,5.7C129.5,180,125.1,181,125.1,180.1L125.1,180.1z M232.4,146.8l0.5-9.1l2.6-1.9c1.4-1,2.6-2.4,2.6-3.1
	c0-0.6-0.5-0.4-1,0.6c-2.5,4.2-5,1.3-4.3-4.9c0.2-2.1-0.2-6.1-1-8.9l-1.4-5l-0.1,9.9l-0.1,9.9l-1.8-0.5l-1.8-0.5l0.3,6.3l0.3,6.3
	h-1.6c-1.8,0-2.1,1.5-0.6,2.5c0.6,0.3,1,2.1,1,3.9c0,4,0.4,4.4,3.4,3.9l2.3-0.4L232.4,146.8L232.4,146.8z M256.5,153.7
	c1.2-0.3,1.5-9.4,0.5-13.1c-0.5-1.8-0.4-3.4,0.3-4.2c1.7-2.1,0.1-3.4-4.2-3.4c-2.2,0-4.8-0.4-5.7-0.9s-2.9-1.2-4.4-1.5l-2.8-0.7v2
	c0,1.1-1.4,3.4-3,5.1l-3,3.1v14.6l10.8-0.4C250.8,154.1,256,153.8,256.5,153.7L256.5,153.7z M267.6,152.1c0.9,0,1.3-2.4,1.2-9l0-9
	l2.6-2.7l2.6-2.7l-1.7-1.1l-1.7-1.1l1.1-1.8c0.6-1,2.2-2.1,3.5-2.4c1.7-0.4,2.5-1.4,2.7-3.4l0.3-2.9l-1.7,1.7l-1.7,1.7l-1.9-1
	l-1.9-1v-9.9h2c1.9,0,4-2.7,4-5c0-0.8-0.6-0.8-1.9-0.1c-1.1,0.6-2.5,1-3.2,1h-1.2l0.6-18.8l0.6-18.8l-1.9,2.2
	c-2.4,2.9-4.1,14.4-4.1,27.9c0,13.6-2.8,19.5-7.5,16.1l-1.7-1.2l0.3-10l0.3-10l-2.9,0.1l-2.9,0.1l0.2,9.8c0.2,11.1,1,13.9,5.2,18
	l3,2.9l-0.5,14.5c-0.5,17-0.4,17.6,3.6,16.8C265,152.3,266.9,152.1,267.6,152.1L267.6,152.1z M278,149.5c3.1-1,16.2-3.4,24.1-4.4
	c9.3-1.2,10.5-1.6,6.9-2.3c-1.3-0.3-6-1.2-10.4-2s-11.2-2-15-2.6c-3.8-0.5-8.2-1.3-9.6-1.6l-2.6-0.6l-0.6,2.8c-0.3,1.6-0.3,5,0,7.6
	l0.6,4.7l2.6-0.6C275.4,150.2,277.2,149.7,278,149.5L278,149.5z M236.6,129.2c-0.6-0.6-2.4,1.9-2.4,3.4c0,0.5,0.7,0.1,1.5-0.9
	C236.4,130.6,236.9,129.5,236.6,129.2L236.6,129.2z M278,95.3c-0.1-5.2-0.6-4.8-1.1,1c-0.2,2.1,0,3.8,0.4,3.8S278.1,97.9,278,95.3
	L278,95.3z M447.4,176.4c0.4-0.4,1-0.4,1.3,0s0.1,0.7-0.7,0.7S447.1,176.8,447.4,176.4z M92.6,174.1c0.3-0.6,0.8-1,1.1-1
	s0.4,0.4,0.4,1s-0.5,1-1.1,1S92.3,174.6,92.6,174.1z M482.4,174.4c0.4-0.4,1-0.4,1.3,0s0.1,0.7-0.7,0.7S482.1,174.8,482.4,174.4z
	 M92.6,169.1c0.3-0.6,1.1-1,1.6-1s0.7,0.4,0.4,1s-1.1,1-1.6,1S92.3,169.6,92.6,169.1L92.6,169.1z M455.1,167.1c0-0.7,0.3-1,0.7-0.7
	s0.4,1,0,1.3S455.1,167.8,455.1,167.1L455.1,167.1z M76.4,166.4c0.4-0.4,1-0.4,1.3,0s0.1,0.7-0.7,0.7S76.1,166.8,76.4,166.4
	L76.4,166.4z M486.1,166c0-0.6,0.5-0.8,1-0.4s1,0.8,1,1.1c0,0.2-0.5,0.4-1,0.4S486.1,166.6,486.1,166z M459.1,164
	c0-0.6,0.5-0.8,1-0.4s1,0.8,1,1.1c0,0.2-0.5,0.4-1,0.4S459.1,164.6,459.1,164z M141.2,162.5c0-1.2,0.3-1.4,0.6-0.6
	c0.3,0.7,0.3,1.6-0.1,1.9S141.2,163.5,141.2,162.5L141.2,162.5z M94.1,162.1c0-0.7,0.3-1,0.7-0.7c0.4,0.4,0.4,1,0,1.3
	C94.4,163.1,94.1,162.8,94.1,162.1L94.1,162.1z M463.1,162c0-0.6,0.5-0.8,1-0.4c0.5,0.3,1,0.8,1,1.1s-0.5,0.4-1,0.4
	S463.1,162.6,463.1,162z M467.1,162.1c0-0.7,0.3-1,0.7-0.7c0.4,0.4,0.4,1,0,1.3C467.4,163.1,467.1,162.8,467.1,162.1L467.1,162.1z
	 M470.5,159.4c0.4-0.4,1-0.4,1.3,0s0.1,0.7-0.7,0.7S470.1,159.8,470.5,159.4z M486.6,159.1c-0.3-0.5-0.2-1,0.4-1s1.3,0.5,1.6,1
	c0.3,0.6,0.2,1-0.4,1S487,159.6,486.6,159.1z M52.1,156.1c0-0.5,0.5-1,1.1-1s0.8,0.5,0.4,1c-0.3,0.6-0.8,1-1.1,1
	S52.1,156.6,52.1,156.1L52.1,156.1z M142.6,155.1c-0.3-0.5-0.2-1,0.4-1s1.3,0.5,1.6,1c0.3,0.6,0.2,1-0.4,1S143,155.6,142.6,155.1z
	 M474.7,155.1c-0.3-0.5-0.1-1.2,0.4-1.6s1,0.1,1,0.9C476.1,156.3,475.5,156.5,474.7,155.1L474.7,155.1z M99.1,153.6
	c-0.8-1-0.9-1.5-0.2-1.5c1.2,0,2.6,1.9,1.9,2.6C100.6,154.9,99.8,154.4,99.1,153.6L99.1,153.6z M483.9,154.4
	c0.7-0.3,1.6-0.3,1.9,0.1s-0.3,0.6-1.3,0.5C483.4,154.9,483.1,154.7,483.9,154.4L483.9,154.4z M480.6,153.1c0.3-0.6,0.8-1,1.1-1
	s0.4,0.4,0.4,1c0,0.5-0.5,1-1.1,1S480.3,153.6,480.6,153.1z M140.6,149.1c-0.3-0.6-0.2-1,0.4-1s1.3,0.4,1.6,1c0.3,0.5,0.2,1-0.4,1
	S141,149.6,140.6,149.1z M135.6,145.1c0.3-0.6,1.1-1,1.6-1s0.7,0.4,0.4,1c-0.3,0.5-1.1,1-1.6,1S135.3,145.6,135.6,145.1z
	 M55.4,142.4c0.4-0.4,1-0.4,1.3,0s0.1,0.7-0.7,0.7S55.1,142.8,55.4,142.4L55.4,142.4z M58.6,141.1c-0.3-0.6-0.1-1,0.4-1
	s1.1,0.4,1.1,1c0,0.5-0.2,1-0.4,1S59,141.6,58.6,141.1L58.6,141.1z M133.6,139.1c0.3-0.6,1.1-1,1.6-1s0.7,0.4,0.4,1
	c-0.3,0.5-1.1,1-1.6,1S133.3,139.6,133.6,139.1z M137.1,137.1c0-0.7,0.3-1,0.7-0.7c0.4,0.4,0.4,1,0,1.3
	C137.4,138.1,137.1,137.8,137.1,137.1L137.1,137.1z M114.3,135.1c0-1.4,0.2-1.9,0.5-1.3s0.3,1.8,0,2.5S114.3,136.4,114.3,135.1z
	 M71.1,134.1c0-0.7,0.3-1,0.7-0.7c0.4,0.4,0.4,1,0,1.3C71.4,135.1,71.1,134.8,71.1,134.1L71.1,134.1z M118.1,133.1
	c0-0.7,0.3-1,0.7-0.7c0.4,0.4,0.4,1,0,1.3C118.4,134.1,118.1,133.8,118.1,133.1L118.1,133.1z M139.1,133c0-0.6,0.4-0.8,1-0.4
	c0.6,0.3,1,0.8,1,1.1s-0.4,0.4-1,0.4S139.1,133.6,139.1,133z M66.4,132.4c0.4-0.4,1-0.4,1.3,0s0.1,0.7-0.7,0.7
	S66.1,132.8,66.4,132.4L66.4,132.4z M121.1,132.1c0-0.7,0.3-1,0.7-0.7c0.4,0.4,0.4,1,0,1.3C121.4,133.1,121.1,132.8,121.1,132.1
	L121.1,132.1z M139.4,127.4c0.4-0.4,1-0.4,1.3,0s0.1,0.7-0.7,0.7S139.1,127.8,139.4,127.4L139.4,127.4z M124.1,125.5
	c0-0.9,0.4-1.3,1-0.9s1,1,1,1.6s-0.4,0.9-1,0.9S124.1,126.4,124.1,125.5z M135.6,124.1c0.3-0.6,0.8-1,1.1-1s0.4,0.4,0.4,1
	s-0.5,1-1.1,1S135.3,124.6,135.6,124.1z M130.1,123.1c0-0.6,0.5-1,1.1-1s0.8,0.4,0.4,1s-0.8,1-1.1,1S130.1,123.6,130.1,123.1z
	 M347,112.7c0.6-0.8,3.2-2.2,5.7-3.1c2.5-1,8-3.7,12.2-6.1l7.6-4.3l2.8,1.6l2.8,1.6l3.3-1.7c1.8-0.9,4.5-2.5,6.1-3.4l2.8-1.8l9,4.8
	c4.9,2.6,9.4,4.5,9.9,4.2s1-0.1,1,0.5s-0.7,1.1-1.5,1.1s-1.5,0.4-1.5,0.9c0,1-4.1,2.3-4.9,1.6c-0.2-0.2,0.6-0.8,1.9-1.3l2.3-0.8
	l-3.4-2c-1.9-1.1-5.5-3.2-8-4.6l-4.6-2.5l-5.8,3.5l-5.8,3.5l-3.2-1.7l-3.2-1.7l-6.9,4c-3.8,2.2-9,4.8-11.4,5.7s-4.9,2.1-5.5,2.6
	C347.1,114.6,345.8,114.2,347,112.7L347,112.7z M348.1,108c0-0.6,0.5-0.8,1-0.4s1,0.8,1,1.1s-0.5,0.4-1,0.4S348.1,108.6,348.1,108z
	 M343.1,104c0-0.6,0.5-0.8,1-0.4s1,0.8,1,1.1s-0.5,0.4-1,0.4S343.1,104.6,343.1,104z M413.6,103.1c0.3-0.5,3.4-2.4,6.8-4.1l6.2-3.1
	l4.1,0.6c7.8,1.2,10.3,0.9,17.9-2.7c10.5-5,10.2-5.9-3.4-9.7l-7.3-2l-4.5,2c-6.1,2.7-16.5,1.6-20.7-2.2c-1.6-1.5-3.5-1-7.2,1.8
	l-3.5,2.7l-3.2-1.7l-3.2-1.7l3.3,0.6l3.3,0.6l3.4-2.6c3.9-3,4.8-3.1,7.8-1.1c1.2,0.8,4.8,2.1,8.1,3l5.8,1.5l3.9-2
	c6-3.1,18.9-1,25.1,3.9l2.3,1.9l6.7-3.4c8.6-4.3,10-4.3,18.3,0.8l6.9,4.2l6-3.1c10.2-5.2,13.5-6.2,13.5-4.3c0,0.6-0.8,1-1.9,1
	c-3.4,0-14,6.1-13.4,7.7l0.6,1.5l-2.4-0.7c-1.3-0.4-5.9-2.7-10.3-5.1c-9.7-5.4-6.6-5.8-25.7,3.6c-16.8,8.3-18.2,8.7-25.2,6.9
	l-4.3-1.1l-6.8,3.6C413.7,104.3,412.6,104.7,413.6,103.1L413.6,103.1z M337.4,99.4c0.4-0.4,1-0.4,1.3,0s0.1,0.7-0.7,0.7
	S337.1,99.8,337.4,99.4z M497.4,94.4c0.4-0.4,1-0.4,1.3,0s0.1,0.7-0.7,0.7S497.1,94.8,497.4,94.4L497.4,94.4z M384.1,91.2
	c0-1,8.5-7.1,10-7.1c0.6,0,0.9,0.4,0.6,0.8C393.9,86.2,384.1,92,384.1,91.2L384.1,91.2z M4.1,83.1c-3-2.4-1.4-2.7,1.9-0.4l2.3,1.6
	l2.7-1.2c1.5-0.7,6.1-3.5,10.4-6.2c5.4-3.5,8.4-4.9,9.9-4.5c1.2,0.3,3,0,4-0.6c1.4-0.8,2.1-0.9,2.6-0.1c0.4,0.6,3.1,2.4,6,3.9
	l5.3,2.8l2.5-1.2c1.4-0.6,6.6-3.9,11.5-7.2c4.9-3.3,9.5-6,10.2-6c1.4,0-19.5,13.8-22.7,15c-1.5,0.5-3.6-0.1-7.4-2.2
	c-3.5-2-6.9-3.1-10-3.2l-4.6-0.2l-6.4,4.4C10.7,85.7,8.4,86.4,4.1,83.1L4.1,83.1z M326.8,82.6l-0.6-1.5l3.7,0l3.7,0l-1.9,1.5
	C329.2,84.5,327.5,84.5,326.8,82.6z M322.3,78.8c-1.8-1.8-1.4-2.6,1.3-2.3c3.4,0.4,4,1.2,1.7,2.5C324,79.7,323.1,79.6,322.3,78.8
	L322.3,78.8z M459.3,74.9c-1.9-1.9-1.4-3,0.7-1.8c1.3,0.7,2.1,0.7,2.6,0c0.3-0.6,1.3-1,2.2-1h1.6l-1.8,2
	C462.6,76.4,461,76.6,459.3,74.9L459.3,74.9z M93.6,65.5l-3-1.3l4.7,0.2c2.6,0.1,4.6,0.2,4.5,0.2c-0.1,0-0.8,0.5-1.7,1.1
	C97,66.5,95.8,66.4,93.6,65.5L93.6,65.5z M82.9,64.4c0.7-0.3,1.8-0.3,2.5,0c0.7,0.3,0.1,0.5-1.3,0.5S82.2,64.7,82.9,64.4z"/>
</svg>
