<?xml version="1.0" encoding="utf-8"?>
<!-- Generator: Adobe Illustrator 22.1.0, SVG Export Plug-In . SVG Version: 6.00 Build 0)  -->
<svg version="1.1" id="Layer_1" xmlns="http://www.w3.org/2000/svg" xmlns:xlink="http://www.w3.org/1999/xlink" x="0px" y="0px"
	 viewBox="0 0 512 512" style="enable-background:new 0 0 512 512;" xml:space="preserve">
<g transform="matrix(2.083 0 0 2.083 -1940.1 -934.13)">
	<path style="fill:none;stroke:#000000;stroke-miterlimit:10;" d="M1151.3,573.8c-0.2,0.2-0.4,0.4-0.6,0.6c-0.5,0.4-0.9,0.9-1.3,1.3
		c-1.1,1-1.9,1.8-1.9,1.8"/>
	<path style="fill:none;stroke:#000000;stroke-miterlimit:10;" d="M1152.3,561c1.3-2.2,4.2-6.3,6.6-8.4c1.7-1.5,3.6-2.8,5.8-3.3
		c1.2-0.3,2.7-0.5,3.5,0.3c1,1,1,2.8,0.6,4.2c-0.7,3.1-3.3,5.6-5.4,8c-0.9,1.1-1.9,2.2-2.9,3.2"/>
	<path style="fill:none;stroke:#000000;stroke-miterlimit:10;" d="M946.7,529c-1.4,26.6,4.6,23.4-7.2,78.5l3.7-5.8
		c0,5.4-0.9,9.2-2.6,11.6c1.6-2.2,3.2-4.1,4.8-7.1c1.6,2.6-0.2,9.7-0.5,15c9-33.3,10.9-60.6,4.2-91"/>
	<path style="fill:none;stroke:#000000;stroke-miterlimit:10;" d="M1150,562.4l-3.8,2l1.6,0.4c-0.7,0.6-1.5,1.5-2.3,2.4
		c-7.7-9.6-17.2-17.8-26-26.4c-10.1-9.9-20.4-19.8-31.8-28l-0.9-2.6c0,0,2.9,2.7,3.5,3.6c-0.1-0.6,0.1-2.3,0.1-2.3l2.2,3.4l1-2.2
		l3.6,5.6l0.8-3.2c0,0,3,6.5,3.1,6.2c0.2-0.3,1.1-4.7,1.1-3.9c0,0.8,1.3,7.6,1.5,7.2c0.2-0.5,2.6-5.9,2.6-5.9s1.5,7.7,1.4,7.2
		c-0.1-0.6,2.3-5.7,2.3-5.7l1.3,9.3l3.7-6.1l-1.9,8.1l7.6-4.3l-4.5,6.8l7.6-2.4l-3.6,4.5l6.1-0.9c0,0-6.8,3.7-5.5,3.7
		c1.4,0,10-0.3,10-0.3l-6.6,3l11.4-0.8l-6.6,2.7l7.2,0.8c0,0-6.9,2.6-6,2.6s10.7,1,10.7,1l-6.3,2.9l11.8,1.9l-7.5,2.8l8.7,0.6
		c0,0-5.8,2.3-5.2,2.4c0.6,0.2,9.4,1.1,9.4,1.1l-6.1,2.5L1150,562.4z"/>
	<path style="fill:none;stroke:#000000;stroke-miterlimit:10;" d="M1159.3,576l-7.7-0.3l-2.2-0.1l-1.3,0c0.7-0.6,1.6-1.1,2.5-1.5
		c0.3-0.1,0.5-0.2,0.8-0.3l0,0c0.7-0.6,1.3-1.3,1.9-1.8l0.8,0.6L1159.3,576z"/>
	<path style="fill:none;stroke:#000000;stroke-miterlimit:10;" d="M1156.4,612.7c-0.2-6.8,2.1-13.7,1.1-20.5
		c-0.7-5.3-2.5-10.6-5.2-15.3c-0.2-0.4-0.5-0.8-0.7-1.2l-2.2-0.1l-1.3,0c-0.2,0.2-0.4,0.4-0.6,0.6c-1.1,1.2-0.6,4.1-2.2,4.5
		c-2.1,0.6-4.3,1.4-3.9-3c0.1-1.2,0.8-4.1,1.8-6.6c0.3-0.8,0.7-1.6,1.1-2.3c0.3-0.5,0.7-1.1,1.2-1.6c-7.7-9.6-17.2-17.8-26-26.4
		c-10.1-9.9-20.4-19.8-31.8-28c-1.3-0.9-2.6-1.8-3.9-2.7c-4.3-2.9-8.8-5.8-13.9-6.9c-17.6-3.8-35.9,1.7-53.8,1.9
		c-12.9,0.1-25.9-2.6-38.6-0.6c-12.5,2-28,9.9-30.7,24.6c-0.2,1.2-0.3,2.4-0.1,3.7v0c0,0,0,0,0,0v0c0.4,4.5,2.8,9.3,5.5,14.4
		c2.5,4.6,5.2,9.4,7.1,14.3c0.6,0.6,1.1,1.2,1.6,1.7c2.4,2.2,5,4.5,8.1,5.3c2.7,0.7,6,0.9,8.3-0.6c2.5-1.7,3.2-5.2,4-8.1
		c0.3-1.1,0.3-3.3,0.3-3.3s3.4,5.2,6.1,6.5c4.4,2.2,9.8,1.8,14.7,1.4c5.6-0.4,10.9-2.7,16.4-3.8c8.5-1.7,17.4-1.8,25.5-4.6
		c3.4-1.2,9.4-5.1,9.4-5.1s-3.2,5-4,7.8c-0.7,2.5-1.3,5.1-0.8,7.7c0.4,1.7,2.5,4.6,2.5,4.6s5.7,0,8.4-0.5c3-0.5,5.7-2,8.6-2.7
		c3.5-0.8,7-1.6,10.5-1.6c3.7,0,8.9,1.2,11,1.4c0.3,0,1.3,0.5,2.3,1c10.5-1.5,20.7,14.2,30.5,19.5c0,0-2.6,3.4-3,5.5
		c-0.8,4.4,0,9.2,2,13.2c1.4,2.7,4.8,3.8,6.4,6.4c1.5,2.3,1.2,5.4,2.7,7.7c1.2,1.8,4.8,4.6,4.8,4.6s-0.7,3.3-0.1,4.6
		c1,2,3.4,2.6,5.6,3.2c2.9,0.8,6.3,0.7,9.1-0.5c3.2-1.3,6.3-3.8,7.5-7.1C1159.2,621.4,1156.5,616.9,1156.4,612.7z M1150.8,601.7
		c0,0,0,0.1,0,0.1c0,0.1,0,0.2,0,0.2c0,0,0,0.1,0,0.1c0,0,0,0,0,0c0,0.1,0,0.2,0,0.3v0c0,0.1,0,0.1,0,0.2c0,0.2,0.1,0.4,0.1,0.6
		c0,0,0,0.1,0,0.1c0,0,0,0,0,0c0,0.1,0,0.1,0,0.1c0,0,0,0,0-0.1s0-0.1,0-0.1c0,0,0-0.1,0-0.2c0-0.1,0-0.1-0.1-0.2
		c0-0.1,0-0.1-0.1-0.2c0,0,0-0.1,0-0.1c0,0,0-0.1,0-0.1c0-0.1-0.1-0.2-0.1-0.3c0-0.1-0.1-0.2-0.1-0.3c-0.1-0.1-0.1-0.3-0.2-0.4
		c0-0.1-0.1-0.2-0.1-0.2c-0.1-0.3-0.3-0.6-0.5-0.8c0,0,0-0.1-0.1-0.1c0,0,0,0,0,0c0,0-0.1-0.1-0.1-0.1c-1.1-0.9-2.9-0.5-4.1-1.2
		c-0.8-0.5-2-2.1-2-2.1s1.6,0.6,2.5,0.9c1.7,0.5,4.2-0.2,5.2,1.2c0.5,0.7-0.2,1.6-0.2,2.4C1150.8,601.5,1150.8,601.6,1150.8,601.7z"
		/>
	<path style="fill:none;stroke:#000000;stroke-miterlimit:10;" d="M1106.7,641.1h-11.8c-2.8-5.6-4.6-5.2-1.2-10c0,0-2.4-0.3-3.8-1
		c-0.2-0.1-0.4-0.3-0.6-0.4c-1.9-2-1.9-5.2-2-8c-0.1-1.6,0.5-3.1,0.6-4.7c0.1-3.8,0.2-7.7-0.6-11.4c-0.7-3.2-2.8-6-3.6-9.2
		c-0.6-2.3-0.1-4.8-0.9-7.1c-1.3-3.6-4.3-6.3-6.3-9.6c-1-1.8-2.8-5.5-2.8-5.5l0,0l-2.8,0.4l-1.7,0.3c0,0,0,0,0,0
		c-0.1,0.3-5.2,11.9-7.3,17.9c-2,5.9-1.9,12.6-5,18c-0.5,0.9-1.9,1.2-2,2.2c-1.3,6.7-2.1,11.7-2.2,17.3c0,1.9,0.9,5.7,0.9,5.7
		c3.5,1.8,5.2,5.6,6.9,9.1h-16.1c0,0-0.6-3.2-0.3-5c0.2-1.5,1.5-4.3,1.5-4.3s-2.5-1.7-3.9-3.5c-0.3-0.4-0.6-0.9-0.8-1.3
		c-1.4-3.6,5.2-11.4,5.9-17.5c0.5-4-1.6-8.1-1-12.2c0.7-4.7,4.3-8.6,5.1-13.2c0.6-3.4-0.3-10.2-0.3-10.2c0,0,0,0,0,0
		c-10,1.6-17.9,2.1-25.2,1.7c-0.9,0-1.7-0.1-2.5-0.2c-0.5,0-1.1-0.1-1.6-0.1c-0.8-0.1-1.7-0.2-2.5-0.3c-0.7-0.1-1.4-0.2-2.2-0.3
		c0,0,0,0-0.1,0c-7.4-1.1-14.9-2.9-24.5-5.4c-0.2,0-0.3-0.1-0.4,0c-0.1,0-0.1,0-0.2,0c-1,0.3-1.4,2-1.8,2.8
		c-4.1,7.2-7.5,14.4-11.6,21.6c-0.2,3.1-1.4,5.1-3.1,7.6c1.5,8.1,2.9,16.3,4.8,24c1.5,1.4,2.9,2.7,4,4.1c1.8,2.2,3.2,4.6,3.8,7.7
		h-14.2v-3.4c-1.4-1.9-1.9-5.2-2-7.6c0-0.6,0-1.2,0-1.6c0.4-8.8-4.5-14.9-7-24.7c0,0,0,0,0,0c-0.2,0.2-1.4,1.5-1.6,2.4
		c-1,6.8,6.2,12.8,6.3,19.7c0,1.7-1.5,4.9-1.5,4.9c0.2,2.3-0.1,4.4-0.7,6.3c-1.1,3.2-3.1,5.9-5.3,8c0,0,0,0,0,0c-2-3.9-4-7.2-6-11
		c1-1.3,1.5-2,2.7-2.2c0.1,0,0.2,0,0.3,0c0.1,0,0.2,0,0.3,0c0,0,0,0,0,0c0.1,0,0.2,0,0.3,0c0,0,0,0,0.1,0h0.2c0,0-1.2-2.5-1.4-3.9
		c-0.2-1.7,0.2-3.3,0.6-5c0.4-1.5,0.7-3,0.5-4.5c-0.8-6.7-4.9-12.6-7.5-18.9c-0.3-0.8-0.6-1.6-0.9-2.4c-0.5-1.5-0.9-3-1.1-4.5
		c-0.2-1.6-0.5-3.5,0.5-4.8c0.6-0.8,1.4-1.5,2.3-2.2c1.5-1.3,3.3-2.5,4.9-4.1c2-1.9,3.6-4.3,4.1-7.9c0.6-4.1-0.3-8.2-1.9-12.3
		c0.6,0.6,1.1,1.2,1.6,1.7c2.4,2.2,5,4.5,8.1,5.3c2.7,0.7,6,0.9,8.3-0.6c2.5-1.7,3.2-5.2,4-8.1c0.3-1.1,0.3-3.3,0.3-3.3
		s3.4,5.2,6.1,6.5c4.4,2.2,9.8,1.8,14.7,1.4c5.6-0.4,10.9-2.7,16.4-3.8c8.5-1.7,17.4-1.8,25.5-4.6c3.4-1.2,9.4-5.1,9.4-5.1
		s-3.2,5-4,7.8c-0.7,2.5-1.3,5.1-0.8,7.7c0.4,1.7,2.5,4.6,2.5,4.6s5.7,0,8.4-0.5c3-0.5,5.7-2,8.6-2.7c3.5-0.8,7-1.6,10.5-1.6
		c3.7,0,8.9,1.2,11,1.4c0.3,0,1.3,0.5,2.3,1c-0.1,0-0.1,0-0.2,0c-0.1,0-0.2,0-0.4,0.1c0,0-0.8,5.9-0.4,8.8c0.7,5.1,3.6,9.7,4.6,14.7
		c0.6,3,0.6,6.1,0.7,9.2c0.2,5.5-0.9,11,0.2,16.4c0.3,1.4,1.3,2.7,1.6,4.1c0.2,0.9-0.2,1.9,0.1,2.7c0.7,2.3,3.8,6.1,3.8,6.1
		c0,0,0,0,0,0C1105.7,632.2,1106.3,637.6,1106.7,641.1z"/>
	<path style="fill:none;stroke:#000000;stroke-miterlimit:10;" d="M1151.5,575.7l-2.2-0.1l-1.3,0c0.7-0.6,1.6-1.1,2.5-1.5
		c0.1,0.1,0.1,0.2,0.2,0.2C1151,574.8,1151.3,575.2,1151.5,575.7z"/>
	<path style="fill:none;stroke:#000000;stroke-miterlimit:10;" d="M1150.8,601.5c0,0.7,0.2,1.9,0.2,2.1c-0.1-0.2-0.7-2.5-1.6-3.2
		c-1.1-0.9-2.9-0.5-4.1-1.2c-0.8-0.5-2-2.1-2-2.1s1.6,0.6,2.5,0.9c1.7,0.5,4.2-0.2,5.2,1.2C1151.5,599.8,1150.8,600.7,1150.8,601.5z
		"/>
	<path style="fill:none;stroke:#000000;stroke-miterlimit:10;" d="M1150.8,601.5c0,0.7,0.2,1.9,0.2,2.1c-0.1-0.2-0.7-2.5-1.6-3.2
		c-1.1-0.9-2.9-0.5-4.1-1.2c-0.8-0.5-2-2.1-2-2.1s1.6,0.6,2.5,0.9c1.7,0.5,4.2-0.2,5.2,1.2C1151.5,599.8,1150.8,600.7,1150.8,601.5z
		"/>
	<path style="fill:none;stroke:#000000;stroke-miterlimit:10;" d="M1093.2,621.7c-0.1,2.4-0.6,5-2.1,6.9c-0.4,0.5-0.8,1-1.2,1.5
		c0,0,0,0,0,0c-0.2-0.1-0.4-0.3-0.6-0.5c-1.9-2-1.9-5.2-2-8c-0.1-1.6,0.5-3.1,0.6-4.7c0.1-3.8,0.2-7.7-0.6-11.4
		c-0.7-3.2-2.8-6-3.6-9.2c-0.6-2.3-0.1-4.8-0.9-7.1c-1.3-3.6-4.3-6.3-6.3-9.6c-1-1.7-2.7-5.2-2.8-5.5c0,0,0,0,0,0l-2.8,0.4l-1.7,0.3
		l0,0c0,0-1.6,3.5-3.3,7.6l-0.5-0.1c-3.1,1.5-5.8,0.8-9.1,0.3c0,0-0.9,5.7-1.4,6.7c-1,2-4.1,7-5.6,10.8c-0.7,1.7-1.3,3.4-1.4,5.3
		c-0.2,2.1,0.5,4.2,0.6,6.4c0.2,2.7,0.7,5.5,0.2,8.1c-0.5,2.7-3.2,7.5-3.2,7.5c-0.4,0.8-0.6,3.5-3.7,4.6c0,0-0.1,0-0.1,0
		c0,0,0,0,0,0c-0.3-0.4-0.6-0.9-0.8-1.3c-1.4-3.6,5.2-11.4,5.9-17.5c0.5-4-1.6-8.1-1-12.2c0.7-4.7,4.3-8.6,5.1-13.2
		c0.6-3.3-0.3-9.9-0.4-10.2c0,0,0,0,0,0c-10,1.6-17.9,2.1-25.2,1.7c-0.9,0-1.7-0.1-2.5-0.2c-0.5,0-1.1-0.1-1.6-0.1
		c-0.8-0.1-1.7-0.2-2.5-0.3c-0.7-0.1-1.4-0.2-2.2-0.3c0,0,0,0-0.1,0c-7.4-1.1-14.9-2.9-24.5-5.4c-0.2,0-0.3-0.1-0.4,0
		c-0.1,0-0.1,0-0.2,0c-1,0.3-1.4,2-1.9,2.8c-4.1,7.2-7.5,14.4-11.6,21.6c-0.2,3.1-1.4,5.1-3.1,7.6c1.5,8.1,2.9,16.3,4.8,24
		c0.3,0.2,0.5,0.5,0.8,0.7c-3,0.6-5.9,0.5-9.1,0.1h0c0-0.6,0-1.2,0-1.6c0.4-8.8-4.5-14.9-7-24.7c0,0,0,0,0,0c0,0-1.5,1.4-1.6,2.4
		c-1,6.8,6.2,12.8,6.3,19.7c0,0.3,0,0.5-0.1,0.8c-1-3.3-6.4-2-10.4-3.8c0,0,0,0,0,0c0.4-1.5,0.7-3,0.5-4.5
		c-0.8-6.7-4.9-12.6-7.5-18.8c0,0,0,0,0,0c0.7-1.3,1.3-2.5,1.8-3.4c1.6-2.8,4.8-5.1,5.3-8.3c0.3-2.1-0.6-4.2-1.5-6.3v0
		c2-1.9,3.6-4.3,4.1-7.9c0.6-4.1-0.4-8.3-1.9-12.4c0,0,0,0.1,0.1,0.1c0.6,0.6,1.1,1.2,1.6,1.7c2.4,2.2,5,4.5,8.1,5.3
		c2.7,0.7,6,0.9,8.3-0.6c2.5-1.7,3.2-5.2,4-8.1c0.3-1.1,0.3-3.3,0.3-3.3s3.4,5.2,6.1,6.5c4.4,2.2,9.8,1.8,14.7,1.4
		c5.6-0.4,10.9-2.7,16.4-3.8c8.5-1.7,17.4-1.8,25.5-4.6c3.4-1.2,9.4-5.1,9.4-5.1s-3.2,5-4,7.8c-0.7,2.5-1.3,5.1-0.8,7.7
		c0.4,1.7,2.5,4.6,2.5,4.6s5.7,0,8.4-0.5c3-0.5,5.7-2,8.6-2.7c3.5-0.8,7-1.6,10.5-1.6c3.7,0,8.9,1.2,11,1.4c0.3,0,1.3,0.5,2.3,1
		c0,0,0,0,0,0c-0.1,0-0.2,0-0.2,0c-0.1,0-0.2,0-0.4,0.1c0,0,0,0,0,0c0,0-0.8,5.9-0.4,8.8c0.3,2.2,1,4.3,1.8,6.4
		c-0.2,0.8-0.5,1.6-0.9,2.3c-0.9,1.7-2.9,2.7-3.7,4.5c-1,2.3-1.1,5-0.8,7.5c0.2,2.1,1.1,4,1.9,5.9c0.6,1.4,1.7,2.7,2.1,4.1
		c0.6,2.3,0.2,4.8,0.5,7.2C1092.3,617.4,1093.3,619.5,1093.2,621.7z"/>
	<path style="fill:none;stroke:#000000;stroke-miterlimit:10;" d="M1160.7,564.2c-0.1,0.3-0.1,0.5-0.2,0.8v0
		c-2.1,2.1-4.4,4.1-6.5,6.2c-0.2,0.2-0.5,0.5-0.8,0.8c-0.6,0.6-1.2,1.2-1.9,1.8l0,0c-0.3,0.1-0.5,0.2-0.8,0.3
		c-0.9,0.4-1.8,0.9-2.5,1.5c-0.2,0.2-0.4,0.4-0.6,0.6c-1.1,1.2-0.6,4.1-2.2,4.5c-2.1,0.6-4.3,1.4-3.9-3c0.1-1.2,0.8-4.1,1.8-6.6
		c0.3-0.8,0.7-1.6,1.1-2.3c0.3-0.5,0.7-1.1,1.2-1.6c0.7-0.9,1.6-1.8,2.3-2.4c0.3-0.3,0.6-0.5,0.8-0.6c0.6-0.4,2.1-1.9,3.8-3.1
		c0.9-0.6,1.8-1.2,2.7-1.5c1.5-0.5,3.6-1.2,4.8-0.2C1161.1,560.3,1161.1,562.6,1160.7,564.2z"/>
	<path style="fill:none;stroke:#000000;stroke-miterlimit:10;" d="M1160.5,565c-0.9,2.6-3,4.7-5,6.5c-0.4,0.4-0.9,0.7-1.4,1
		c-0.9,0.5-1.8,0.9-2.7,1.3c0.7-0.6,1.3-1.3,1.9-1.8c0.3-0.3,0.6-0.5,0.8-0.8C1156.2,569.1,1158.4,567.1,1160.5,565z"/>
	<path style="fill:none;stroke:#000000;stroke-miterlimit:10;" d="M1093.6,631.2c-3.2,4.6-1.4,4.3,1.3,9.8h11.8
		c-0.5-3.5-1-8.9-4.5-10.4C1099.4,631.5,1096.2,631.2,1093.6,631.2L1093.6,631.2z M958.8,631.8c-1.8,0-2.4,0.7-3.6,2.3
		c2,3.9,4,7.2,6,11.1c2.2-2.1,4.2-4.8,5.3-8c-1.3-4.1-3.2-4-7.1-4.9L958.8,631.8z M983.5,633.4c-2.9,3.1-7.1,3.8-10.4,4.6v3h14.2
		C986.7,638,985.3,635.6,983.5,633.4L983.5,633.4z M1045.5,635.8c0,0-1.3,2.8-1.5,4.3c-0.2,1.8,0.3,5,0.3,5h16.1
		c-1.7-3.5-3.5-7.3-7-9.1C1051.5,636.9,1046.6,635.4,1045.5,635.8L1045.5,635.8z"/>
</g>
</svg>
