<?xml version="1.0" encoding="utf-8"?>
<!-- Generator: Adobe Illustrator 22.1.0, SVG Export Plug-In . SVG Version: 6.00 Build 0)  -->
<svg version="1.1" id="Layer_1" xmlns="http://www.w3.org/2000/svg" xmlns:xlink="http://www.w3.org/1999/xlink" x="0px" y="0px"
	 viewBox="0 0 512 512" style="enable-background:new 0 0 512 512;" xml:space="preserve">
<path style="fill:none;stroke:#000000;stroke-miterlimit:10;" d="M1.6,92L1.6,92C167.1-13.6,346.8,73.2,510.9,60.6"/>
<path style="fill:none;stroke:#000000;stroke-miterlimit:10;" d="M2.3,94.6L2.3,94.6c165-97.6,344.7,22.7,508.2,11"/>
<path style="fill:none;stroke:#000000;stroke-miterlimit:10;" d="M1.7,135.2L1.7,135.2c168.2-78.6,342.6-19.1,509.2-28.5"/>
<path style="fill:none;stroke:#000000;stroke-miterlimit:10;" d="M454.4,350.6v139.5h30.2V350.6H454.4z M475.7,457.1l-1.6,4.5
	l-4.7,0.9l-3.1-3.6l1.6-4.5l4.7-0.9L475.7,457.1z M474.8,404.9l-1.6,4.5l-4.7,0.9l-3.1-3.6l1.6-4.5l4.7-0.9L474.8,404.9z"/>
<polygon style="fill:none;stroke:#000000;stroke-miterlimit:10;" points="468.5,410.2 465.4,406.6 467,402.1 471.7,401.2 
	474.8,404.9 473.2,409.4 "/>
<polygon style="fill:none;stroke:#000000;stroke-miterlimit:10;" points="475.7,457.1 474.1,461.6 469.4,462.5 466.3,458.8 
	467.9,454.3 472.5,453.5 "/>
<path style="fill:none;stroke:#000000;stroke-miterlimit:10;" d="M129.9,446c-0.7,8.7-2.1,17.3-4.2,26c-1.3,5.4-2.9,10.9-4.9,16.4
	V348.9c2.8,14.8,5.4,29.1,7.2,43.1c0.4,3.2,0.8,6.4,1.1,9.6l-3,0.6l-1.6,4.5l3.1,3.6l2.2-0.4c0.2,2.7,0.4,5.4,0.5,8.1
	C130.8,427.4,130.8,436.7,129.9,446z"/>
<polygon style="fill:none;stroke:#000000;stroke-miterlimit:10;" points="130.4,457.8 135.1,456.9 138.2,460.5 136.6,465 
	131.9,465.9 128.8,462.3 "/>
<path style="fill:none;stroke:#000000;stroke-miterlimit:10;" d="M151,472v16.4h-30.2c2-5.5,3.6-10.9,4.9-16.4H151z"/>
<path style="fill:none;stroke:#000000;stroke-miterlimit:10;" d="M120.8,348.9c2.8,14.8,5.4,29.1,7.2,43.1c0.4,3.2,0.8,6.4,1.1,9.6
	l1.7-0.3l3.1,3.6l-1.6,4.5l-2.5,0.5c0.2,2.7,0.4,5.4,0.5,8.1c0.5,9.4,0.4,18.8-0.4,28.1c-0.7,8.7-2.1,17.3-4.2,26H151V348.9H120.8z
	 M136.6,465l-4.7,0.9l-3.1-3.6l1.6-4.5l4.7-0.9l3.1,3.6L136.6,465z"/>
<polygon style="fill:none;stroke:#000000;stroke-miterlimit:10;" points="131.9,465.9 128.8,462.3 130.4,457.8 135.1,456.9 
	138.2,460.5 136.6,465 "/>
<path style="fill:none;stroke:#000000;stroke-miterlimit:10;" d="M151,472v16.4h-30.2c2-5.5,3.6-10.9,4.9-16.4H151z"/>
<g transform="translate(-87.529 1.357)">
	<polygon style="fill:none;stroke:#000000;stroke-miterlimit:10;" points="149,455.5 152.1,459.2 150.5,463.7 145.8,464.5 
		142.7,460.9 144.3,456.4 	"/>
	<polygon style="fill:none;stroke:#000000;stroke-miterlimit:10;" points="151.5,399 154.7,402.6 153.1,407.1 148.4,408 
		145.3,404.4 146.9,399.9 151.3,399.1 	"/>
	<path style="fill:none;stroke:#000000;stroke-miterlimit:10;" d="M156.8,387c-0.2,1.3-0.4,2.5-0.7,3.6h-4.4c-1.4,2.5-3.5,3.7-5.5,3
		c-1.2-0.4-2.3-1.5-3.2-3c-1.7-3-2.6-7.7-2.1-12.2c0.9-7.8,5.2-12.5,9.4-10.8C155,369.5,157.8,378.5,156.8,387z"/>
	<path style="fill:none;stroke:#000000;stroke-miterlimit:10;" d="M163.6,348.7v139.5c-1.5-5.9-2.7-11.8-3.6-17.5
		c-1.4-8.9-2-17.5-2.2-26c-0.2-9.5,0.2-18.8,0.9-28.1c0.6-8.7,1.5-17.3,2.3-26C162.4,376.8,163.6,363,163.6,348.7z"/>
	<path style="fill:none;stroke:#000000;stroke-miterlimit:10;" d="M157.8,444.7c-0.2-9.5,0.2-18.8,0.9-28.1c0.6-8.7,1.5-17.3,2.3-26
		c1.3-13.8,2.6-27.7,2.6-41.9h-30.2v139.5h30.2c-1.5-5.9-2.7-11.8-3.6-17.5C158.7,461.8,158,453.1,157.8,444.7z M150.5,463.7
		l-4.7,0.9l-3.1-3.6l1.6-4.5l4.7-0.9l3.1,3.6L150.5,463.7z M153.1,407.1l-4.7,0.9l-3.1-3.6l1.6-4.5l4.4-0.8l0.3,0l3.1,3.6
		L153.1,407.1z M156.8,387c-0.2,1.3-0.4,2.5-0.7,3.6h-4.4c-1.4,2.5-3.5,3.7-5.5,3c-1.2-0.4-2.3-1.5-3.2-3c-1.7-3-2.6-7.7-2.1-12.2
		c0.9-7.8,5.2-12.5,9.4-10.8C155,369.5,157.8,378.5,156.8,387z"/>
	<polygon style="fill:none;stroke:#000000;stroke-miterlimit:10;" points="149,455.5 152.1,459.2 150.5,463.7 145.8,464.5 
		142.7,460.9 144.3,456.4 	"/>
	<polygon style="fill:none;stroke:#000000;stroke-miterlimit:10;" points="151.5,399 154.7,402.6 153.1,407.1 148.4,408 
		145.3,404.4 146.9,399.9 151.3,399.1 	"/>
	<path style="fill:none;stroke:#000000;stroke-miterlimit:10;" d="M156.8,387c-0.2,1.3-0.4,2.5-0.7,3.6h-4.4c-1.4,2.5-3.5,3.7-5.5,3
		c-1.2-0.4-2.3-1.5-3.2-3c-1.7-3-2.6-7.7-2.1-12.2c0.9-7.8,5.2-12.5,9.4-10.8C155,369.5,157.8,378.5,156.8,387z"/>
</g>
<g transform="translate(93.636 1.357)">
	<path style="fill:none;stroke:#000000;stroke-miterlimit:10;" d="M107.4,470.6v17.5c0-5.6,0.1-11.5,0.3-17.5H107.4z M126.3,399.9
		l-4.7,0.9l-1.6,4.5l3.1,3.6l4.7-0.9l1.6-4.5L126.3,399.9z M124.2,456.2L124.2,456.2l-0.5-0.6l-4.7,0.9l-1.6,4.5l3.1,3.6l3.4-0.6
		l1.3-0.3l1.6-4.5L124.2,456.2z"/>
	<path style="fill:none;stroke:#000000;stroke-miterlimit:10;" d="M111.1,390.6c-0.1,8.2-0.4,17-0.8,26c-0.4,9.2-0.9,18.7-1.4,28.1
		c-0.5,8.8-0.9,17.6-1.2,26h-0.3v-122C110.4,358.2,111.2,373.2,111.1,390.6z"/>
	<path style="fill:none;stroke:#000000;stroke-miterlimit:10;" d="M126.3,399.9l-4.7,0.9l-1.6,4.5l3.1,3.6l4.7-0.9l1.6-4.5
		L126.3,399.9z M124.2,456.2L124.2,456.2l-0.5-0.6l-4.7,0.9l-1.6,4.5l3.1,3.6l3.4-0.6l1.3-0.3l1.6-4.5L124.2,456.2z"/>
	<path style="fill:none;stroke:#000000;stroke-miterlimit:10;" d="M107.4,348.7c3,9.5,3.9,24.5,3.7,41.9c-0.1,8.2-0.4,17-0.8,26
		c-0.4,9.2-0.9,18.7-1.4,28.1c-0.5,8.8-0.9,17.6-1.2,26c-0.2,6-0.3,11.9-0.3,17.5h30.2V348.7H107.4z M125.2,463.7l-1.3,0.3
		c-0.2,2.5-0.4,4.8-0.7,6.7c-0.7,5-1.8,8.2-3,8.2c-1.2,0-2.3-3.2-3-8.2c-0.6-4.3-1-10-1-16.2c0-3.5,0.1-6.8,0.3-9.8
		c0.6-8.6,2.1-14.6,3.7-14.6c1.7,0,3.1,6,3.7,14.6c0.2,3,0.3,6.3,0.3,9.8c0,0.6,0,1.1,0,1.7v0l2.6,3L125.2,463.7z M127.8,408
		l-4.7,0.9l-3.1-3.6l1.6-4.5l4.7-0.9l3.1,3.6L127.8,408z M130,381.8c0,3.3-0.4,6.3-1,8.8c-1,3.8-2.6,6.3-4.5,6.3
		c-1.8,0-3.5-2.5-4.5-6.3c-0.7-2.5-1-5.5-1-8.8v0c0-8.4,2.5-15.1,5.5-15.1C127.6,366.7,130,373.5,130,381.8
		C130,381.8,130,381.8,130,381.8z"/>
</g>
<g transform="translate(194.74 .67852)">
	<polygon style="fill:none;stroke:#000000;stroke-miterlimit:10;" points="116.5,460.7 114.9,465.2 110.2,466.1 107.1,462.5 
		108.7,458 113.4,457.1 	"/>
	<path style="fill:none;stroke:#000000;stroke-miterlimit:10;" d="M123.1,391.3v97c-2.1-4.6-3.7-10.3-4.8-16.9
		c-1.3-7.5-1.9-16.2-2.1-26c-0.2-8.6,0-18,0.5-28.1c0.4-8.2,1-16.9,1.8-26H123.1z"/>
	<path style="fill:none;stroke:#000000;stroke-miterlimit:10;" d="M123.1,348.8v42.5h-4.5C119.7,377.9,121.3,363.6,123.1,348.8z"/>
	<path style="fill:none;stroke:#000000;stroke-miterlimit:10;" d="M116.2,445.3c-0.2-8.6,0-18,0.5-28.1c0.4-8.2,1-16.9,1.8-26
		c1.2-13.4,2.7-27.7,4.5-42.5H92.9v139.5h30.2c-2.1-4.6-3.7-10.3-4.8-16.9C117,463.8,116.4,455.1,116.2,445.3z M102.8,405.9l0.3-0.8
		c-1.9-2.1-3.2-6.6-3.3-11.9c0,0,0,0,0,0c0-0.7,0-1.3,0.1-1.9c0.4-6.3,2.7-11.1,5.5-11.2c2.8,0,5.1,4.8,5.5,11.2
		c0,0.6,0.1,1.3,0.1,1.9v0c0,3-0.4,5.8-1.2,8l2.5,2.9l-1.6,4.5l-4.7,0.9L102.8,405.9z M114.9,465.2l-4.7,0.9l-3.1-3.6l1.6-4.5
		l4.7-0.9l3.1,3.6L114.9,465.2z"/>
	<polygon style="fill:none;stroke:#000000;stroke-miterlimit:10;" points="116.5,460.7 114.9,465.2 110.2,466.1 107.1,462.5 
		108.7,458 113.4,457.1 	"/>
</g>
<g transform="translate(284.98 .67852)">
	<path style="fill:none;stroke:#000000;stroke-miterlimit:10;" d="M87.1,417.3c-0.7,9.4-1.7,18.7-2.8,28.1c-1,8.7-2,17.3-2.9,26
		c-0.6,5.6-1.1,11.3-1.4,16.9V348.8h2.3c3.9,14.2,5.5,28.4,5.7,42.5C88.1,400,87.7,408.6,87.1,417.3z"/>
	<polygon style="fill:none;stroke:#000000;stroke-miterlimit:10;" points="95.7,408.7 91.1,409.6 87.9,405.9 89.5,401.4 94.2,400.6 
		97.3,404.2 	"/>
	<polygon style="fill:none;stroke:#000000;stroke-miterlimit:10;" points="102.5,457.3 100.9,461.8 100.5,461.9 96.2,462.7 
		93.1,459 94.7,454.5 99.4,453.7 101.8,456.5 	"/>
	<path style="fill:none;stroke:#000000;stroke-miterlimit:10;" d="M82.2,348.8c3.9,14.2,5.5,28.4,5.7,42.5c0.1,8.7-0.2,17.3-0.9,26
		c-0.7,9.4-1.7,18.7-2.8,28.1c-1,8.7-2,17.3-2.9,26c-0.6,5.6-1.1,11.3-1.4,16.9h30.2V348.8H82.2z M87.9,405.9l1.6-4.5l4.7-0.9
		l3.1,3.6l-1.6,4.5l-4.7,0.9L87.9,405.9z M100.9,461.8l-0.4,0.1c-1,2.4-2.2,3.8-3.7,3.8c-2.9,0-5.3-5.8-5.3-13v-0.2
		c0-2.7,0.3-5.1,0.8-7.2c0.9-3.6,2.5-6,4.4-6c1.9,0,3.5,2.4,4.4,6c0.5,2,0.8,4.4,0.8,7v0.2c0,1.4-0.1,2.7-0.2,3.9l0.7,0.8
		L100.9,461.8z"/>
	<polygon style="fill:none;stroke:#000000;stroke-miterlimit:10;" points="95.7,408.7 91.1,409.6 87.9,405.9 89.5,401.4 94.2,400.6 
		97.3,404.2 	"/>
	<polygon style="fill:none;stroke:#000000;stroke-miterlimit:10;" points="102.5,457.3 100.9,461.8 100.5,461.9 96.2,462.7 
		93.1,459 94.7,454.5 99.4,453.7 101.8,456.5 	"/>
</g>
<path style="fill:none;stroke:#000000;stroke-miterlimit:10;" d="M59.3,401.9c1.5,0.1,3-0.4,4.4-1.5c2.1-1.7,3.8-4.6,4.8-8.4"/>
<path style="fill:none;stroke:#000000;stroke-miterlimit:10;" d="M60.4,383.6c-0.5-0.3,0-1.4,0.3-1.6c0.8-0.5,1.5,1.2,1.5,2.6
	c0,2.5-1.3,4.1-2.5,3.9c-1.8-0.3-3-3.6-2.8-6.8c0.3-4.2,2.6-6.9,4.8-6.2c2.8,0.8,4.5,6,4,11c-0.2,2.2-0.8,4.1-1.6,5.5"/>
<path style="fill:none;stroke:#000000;stroke-miterlimit:10;" d="M223.7,383.2C223.7,383.2,223.7,383.2,223.7,383.2
	c0,3.3-0.4,6.4-1,8.8c-1,3.8-2.6,6.3-4.5,6.3c-1.8,0-3.5-2.5-4.5-6.3c-0.7-2.5-1-5.5-1-8.8v0c0-8.4,2.5-15.1,5.5-15.1
	C221.2,368,223.7,374.8,223.7,383.2z"/>
<path style="fill:none;stroke:#000000;stroke-miterlimit:10;" d="M212.6,457.8l-1.6,4.5l3.1,3.6l3.4-0.6c-0.2,2.5-0.4,4.8-0.7,6.7
	c-0.7,5-1.8,8.2-3,8.2c-1.2,0-2.3-3.2-3-8.2c-0.6-4.3-1-10-1-16.2c0-3.5,0.1-6.8,0.3-9.8c0.6-8.6,2.1-14.6,3.7-14.6
	c1.7,0,3.1,6,3.7,14.6c0.2,3,0.3,6.3,0.3,9.8c0,0.6,0,1.1,0,1.7l-0.5-0.6L212.6,457.8z"/>
<path style="fill:none;stroke:#000000;stroke-miterlimit:10;" d="M217.8,457.5L217.8,457.5c0,2.8-0.1,5.3-0.3,7.8l-3.4,0.6l-3.1-3.6
	l1.6-4.5l4.7-0.9L217.8,457.5z"/>
<path style="fill:none;stroke:#000000;stroke-miterlimit:10;" d="M305.6,393.9L305.6,393.9c0,3-0.4,5.8-1.2,8l-0.6-0.7l-4.7,0.9
	l-1.3,3.7c-1.9-2.1-3.2-6.6-3.3-11.9c0,0,0,0,0,0c0-0.7,0-1.3,0.1-1.9c0.4-6.3,2.7-11.1,5.5-11.2c2.8,0,5.1,4.8,5.5,11.2
	C305.6,392.6,305.6,393.3,305.6,393.9z"/>
<path style="fill:none;stroke:#000000;stroke-miterlimit:10;" d="M387,453v0.2c0,1.4-0.1,2.7-0.2,3.9l-2.4-2.8l-4.7,0.9l-1.6,4.5
	l3.1,3.6l4.3-0.8c-1,2.4-2.2,3.8-3.7,3.8c-2.9,0-5.3-5.8-5.3-13v-0.2c0-2.7,0.3-5.1,0.8-7.2c0.9-3.6,2.5-6,4.4-6
	c1.9,0,3.5,2.4,4.4,6C386.7,448,387,450.4,387,453z"/>
<path style="fill:none;stroke:#000000;stroke-miterlimit:10;" d="M386.7,457.1c-0.3,2.1-0.7,3.9-1.3,5.4l-4.3,0.8l-3.1-3.6l1.6-4.5
	l4.7-0.9L386.7,457.1z"/>
<rect x="7" y="392" style="fill:none;stroke:#000000;stroke-miterlimit:10;" width="38.8" height="26"/>
<path style="fill:none;stroke:#000000;stroke-miterlimit:10;" d="M58.6,395c-1.2-0.4-2.3-1.5-3.2-3h8.7
	C62.7,394.5,60.6,395.7,58.6,395z"/>
<polygon style="fill:none;stroke:#000000;stroke-miterlimit:10;" points="64,400.4 67.1,404 65.5,408.5 60.8,409.4 57.8,405.8 
	59.3,401.3 63.7,400.4 "/>
<rect x="76.1" y="392" style="fill:none;stroke:#000000;stroke-miterlimit:10;" width="44.7" height="26"/>
<rect x="151" y="392" style="fill:none;stroke:#000000;stroke-miterlimit:10;" width="50" height="26"/>
<polygon style="fill:none;stroke:#000000;stroke-miterlimit:10;" points="223,404.9 221.4,409.4 216.7,410.2 213.6,406.6 
	215.2,402.1 219.9,401.2 "/>
<rect x="231.2" y="392" style="fill:none;stroke:#000000;stroke-miterlimit:10;" width="56.4" height="26"/>
<rect x="317.8" y="392" style="fill:none;stroke:#000000;stroke-miterlimit:10;" width="47.1" height="26"/>
<polygon style="fill:none;stroke:#000000;stroke-miterlimit:10;" points="379.2,401.2 382.3,404.9 380.7,409.4 376,410.2 
	372.9,406.6 374.5,402.1 "/>
<rect x="395.1" y="392" style="fill:none;stroke:#000000;stroke-miterlimit:10;" width="59.3" height="26"/>
<polygon style="fill:none;stroke:#000000;stroke-miterlimit:10;" points="471.7,401.2 474.8,404.9 473.2,409.4 468.5,410.2 
	465.4,406.6 467,402.1 "/>
<rect x="484.6" y="392" style="fill:none;stroke:#000000;stroke-miterlimit:10;" width="15" height="26"/>
<rect x="4.1" y="446" style="fill:none;stroke:#000000;stroke-miterlimit:10;" width="41.8" height="26"/>
<polygon style="fill:none;stroke:#000000;stroke-miterlimit:10;" points="61.5,456.9 64.6,460.5 63,465 58.3,465.9 55.2,462.3 
	56.8,457.8 "/>
<rect x="76.1" y="446" style="fill:none;stroke:#000000;stroke-miterlimit:10;" width="44.7" height="26"/>
<polygon style="fill:none;stroke:#000000;stroke-miterlimit:10;" points="135.1,456.9 138.2,460.5 136.6,465 131.9,465.9 
	128.8,462.3 130.4,457.8 "/>
<rect x="151" y="446" style="fill:none;stroke:#000000;stroke-miterlimit:10;" width="50" height="26"/>
<polygon style="fill:none;stroke:#000000;stroke-miterlimit:10;" points="220.4,460.5 218.8,465 217.5,465.3 214.2,465.9 211,462.3 
	212.6,457.8 217.3,456.9 217.8,457.5 217.8,457.5 "/>
<rect x="231.2" y="446" style="fill:none;stroke:#000000;stroke-miterlimit:10;" width="56.4" height="26"/>
<polygon style="fill:none;stroke:#000000;stroke-miterlimit:10;" points="311.2,461.4 309.6,465.9 304.9,466.8 301.8,463.1 
	303.4,458.6 308.1,457.8 "/>
<rect x="317.8" y="446" style="fill:none;stroke:#000000;stroke-miterlimit:10;" width="47.1" height="26"/>
<polygon style="fill:none;stroke:#000000;stroke-miterlimit:10;" points="387.4,458 385.8,462.5 385.5,462.5 381.2,463.3 
	378.1,459.7 379.6,455.2 384.3,454.3 386.7,457.1 "/>
<rect x="395.1" y="446" style="fill:none;stroke:#000000;stroke-miterlimit:10;" width="59.3" height="26"/>
<polygon style="fill:none;stroke:#000000;stroke-miterlimit:10;" points="472.5,453.5 475.7,457.1 474.1,461.6 469.4,462.5 
	466.3,458.8 467.9,454.3 "/>
<rect x="484.6" y="446" style="fill:none;stroke:#000000;stroke-miterlimit:10;" width="15.6" height="26"/>
<rect x="7" y="392" style="fill:none;stroke:#000000;stroke-miterlimit:10;" width="38.8" height="26"/>
<path style="fill:none;stroke:#000000;stroke-miterlimit:10;" d="M58.6,395c-1.2-0.4-2.3-1.5-3.2-3h8.7
	C62.7,394.5,60.6,395.7,58.6,395z"/>
<polygon style="fill:none;stroke:#000000;stroke-miterlimit:10;" points="64,400.4 67.1,404 65.5,408.5 60.8,409.4 57.8,405.8 
	59.3,401.3 63.7,400.4 "/>
<rect x="76.1" y="392" style="fill:none;stroke:#000000;stroke-miterlimit:10;" width="44.7" height="26"/>
<rect x="151" y="392" style="fill:none;stroke:#000000;stroke-miterlimit:10;" width="50" height="26"/>
<polygon style="fill:none;stroke:#000000;stroke-miterlimit:10;" points="223,404.9 221.4,409.4 216.7,410.2 213.6,406.6 
	215.2,402.1 219.9,401.2 "/>
<rect x="231.2" y="392" style="fill:none;stroke:#000000;stroke-miterlimit:10;" width="56.4" height="26"/>
<rect x="317.8" y="392" style="fill:none;stroke:#000000;stroke-miterlimit:10;" width="47.1" height="26"/>
<polygon style="fill:none;stroke:#000000;stroke-miterlimit:10;" points="379.2,401.2 382.3,404.9 380.7,409.4 376,410.2 
	372.9,406.6 374.5,402.1 "/>
<rect x="395.1" y="392" style="fill:none;stroke:#000000;stroke-miterlimit:10;" width="59.3" height="26"/>
<polygon style="fill:none;stroke:#000000;stroke-miterlimit:10;" points="471.7,401.2 474.8,404.9 473.2,409.4 468.5,410.2 
	465.4,406.6 467,402.1 "/>
<rect x="484.6" y="392" style="fill:none;stroke:#000000;stroke-miterlimit:10;" width="15" height="26"/>
<rect x="4.1" y="446" style="fill:none;stroke:#000000;stroke-miterlimit:10;" width="41.8" height="26"/>
<polygon style="fill:none;stroke:#000000;stroke-miterlimit:10;" points="61.5,456.9 64.6,460.5 63,465 58.3,465.9 55.2,462.3 
	56.8,457.8 "/>
<rect x="76.1" y="446" style="fill:none;stroke:#000000;stroke-miterlimit:10;" width="44.7" height="26"/>
<polygon style="fill:none;stroke:#000000;stroke-miterlimit:10;" points="135.1,456.9 138.2,460.5 136.6,465 131.9,465.9 
	128.8,462.3 130.4,457.8 "/>
<rect x="151" y="446" style="fill:none;stroke:#000000;stroke-miterlimit:10;" width="50" height="26"/>
<polygon style="fill:none;stroke:#000000;stroke-miterlimit:10;" points="220.4,460.5 218.8,465 217.5,465.3 214.2,465.9 211,462.3 
	212.6,457.8 217.3,456.9 217.8,457.5 217.8,457.5 "/>
<rect x="231.2" y="446" style="fill:none;stroke:#000000;stroke-miterlimit:10;" width="56.4" height="26"/>
<polygon style="fill:none;stroke:#000000;stroke-miterlimit:10;" points="311.2,461.4 309.6,465.9 304.9,466.8 301.8,463.1 
	303.4,458.6 308.1,457.8 "/>
<rect x="317.8" y="446" style="fill:none;stroke:#000000;stroke-miterlimit:10;" width="47.1" height="26"/>
<polygon style="fill:none;stroke:#000000;stroke-miterlimit:10;" points="387.4,458 385.8,462.5 385.5,462.5 381.2,463.3 
	378.1,459.7 379.6,455.2 384.3,454.3 386.7,457.1 "/>
<rect x="395.1" y="446" style="fill:none;stroke:#000000;stroke-miterlimit:10;" width="59.3" height="26"/>
<polygon style="fill:none;stroke:#000000;stroke-miterlimit:10;" points="472.5,453.5 475.7,457.1 474.1,461.6 469.4,462.5 
	466.3,458.8 467.9,454.3 "/>
<rect x="484.6" y="446" style="fill:none;stroke:#000000;stroke-miterlimit:10;" width="15.6" height="26"/>
<polygon style="fill:#FFFFFF;stroke:#000000;stroke-miterlimit:10;" points="64.6,460.5 63,465 58.3,465.9 55.2,462.3 56.8,457.8 
	61.5,456.9 "/>
<polygon style="fill:none;stroke:#000000;stroke-miterlimit:10;" points="67.1,404 65.5,408.5 60.8,409.4 57.8,405.8 59.3,401.3 
	63.7,400.4 64,400.4 "/>
<polygon style="fill:#FFFFFF;stroke:#000000;stroke-miterlimit:10;" points="138.2,460.5 136.6,465 131.9,465.9 128.8,462.3 
	130.4,457.8 135.1,456.9 "/>
<polygon style="fill:#FFFFFF;stroke:#000000;stroke-miterlimit:10;" points="220.4,460.5 218.8,465 217.5,465.3 214.2,465.9 
	211,462.3 212.6,457.8 217.3,456.9 217.8,457.5 217.8,457.5 "/>
<polygon style="fill:none;stroke:#000000;stroke-miterlimit:10;" points="133.9,404.9 132.3,409.4 129.9,409.8 127.7,410.2 
	124.5,406.6 126.1,402.1 129.1,401.5 130.8,401.2 "/>
<polygon style="fill:none;stroke:#000000;stroke-miterlimit:10;" points="223,404.9 221.4,409.4 216.7,410.2 213.6,406.6 
	215.2,402.1 219.9,401.2 "/>
<polygon style="fill:none;stroke:#000000;stroke-miterlimit:10;" points="306.9,404.9 305.3,409.4 300.7,410.2 297.5,406.6 
	297.8,405.8 299.1,402.1 303.8,401.2 304.5,402 "/>
<polygon style="fill:none;stroke:#000000;stroke-miterlimit:10;" points="382.3,404.9 380.7,409.4 376,410.2 372.9,406.6 
	374.5,402.1 379.2,401.2 "/>
<polygon style="fill:none;stroke:#000000;stroke-miterlimit:10;" points="474.8,404.9 473.2,409.4 468.5,410.2 465.4,406.6 
	467,402.1 471.7,401.2 "/>
<polygon style="fill:none;stroke:#000000;stroke-miterlimit:10;" points="475.7,457.1 474.1,461.6 469.4,462.5 466.3,458.8 
	467.9,454.3 472.5,453.5 "/>
<polygon style="fill:none;stroke:#000000;stroke-miterlimit:10;" points="387.4,458 385.8,462.5 385.5,462.5 381.2,463.3 
	378.1,459.7 379.6,455.2 384.3,454.3 386.7,457.1 "/>
<polygon style="fill:#FFFFFF;stroke:#000000;stroke-miterlimit:10;" points="311.2,461.4 309.6,465.9 304.9,466.8 301.8,463.1 
	303.4,458.6 308.1,457.8 "/>
</svg>
