<?xml version="1.0" encoding="utf-8"?>
<!-- Generator: Adobe Illustrator 22.1.0, SVG Export Plug-In . SVG Version: 6.00 Build 0)  -->
<svg version="1.1" xmlns="http://www.w3.org/2000/svg" xmlns:xlink="http://www.w3.org/1999/xlink" x="0px" y="0px"
	 viewBox="0 0 566.8 896.2" style="enable-background:new 0 0 566.8 896.2;" xml:space="preserve">
<g id="Layer_1">
	<path style="fill:none;stroke:#000000;stroke-width:3;stroke-linecap:round;stroke-linejoin:round;stroke-miterlimit:10;" d="
		M536.2,360.9c0,5.7-2.5,46.7-7.4,46.7c-4.9,0-40.9,7.4-44.2,3.3c-3.3-4.1-6.6-5.7-6.6-5.7s-13.1,6.5-25.4,18.8
		c-10.5,10.5-30.6,28.2-36.2,33.1c-0.1-2.3-0.2-5.3-0.1-6.6c0.8-10.5,11.7-25.7,11.7-25.7l-0.7-0.5c16.9-9,48.2-28.1,48.2-30.6
		c0-3.3-6.6-36-1.6-40.9c4.9-4.9,24.6,3.3,24.6,3.3s3.3-8.2,10.6-11.5C516.6,341.3,536.2,355.2,536.2,360.9z"/>
	<path style="fill:none;stroke:#000000;stroke-width:3;stroke-linecap:round;stroke-linejoin:round;stroke-miterlimit:10;" d="
		M416.5,457.1c0.1,1.6,0.2,2.9,0.2,2.9c-4.7,0.2-8.4-3.2-11.8-7.9c0,0,0-0.1,0.1-0.1c3.8-5.5,2.6-10.8-2.1-15
		c-0.6-0.5-1.3-1.9-2.3-4c6.8-3.1,14.8-7.1,17.8-9.7c1.1-1,2.1-2.1,2.8-3.4l6.2,4.4l0.7,0.5c0,0-11,15.2-11.7,25.7
		C416.3,451.8,416.4,454.8,416.5,457.1z"/>
	<path style="fill:none;stroke:#000000;stroke-width:3;stroke-linecap:round;stroke-linejoin:round;stroke-miterlimit:10;" d="
		M393.6,462.3C393.6,462.3,393.6,462.3,393.6,462.3c0-1.2,0-2.4,0-3.5C393.6,459.9,393.6,461.1,393.6,462.3z"/>
	<path style="fill:none;stroke:#000000;stroke-width:3;stroke-linecap:round;stroke-linejoin:round;stroke-miterlimit:10;" d="
		M456.7,669L456.7,669"/>
	<path style="fill:none;stroke:#000000;stroke-width:3;stroke-linecap:round;stroke-linejoin:round;stroke-miterlimit:10;" d="
		M559.8,621.5c0,0-5.8,16.2-17.4,22.6c-9.1,5-41,20.9-65.4,25c0,0,0,0,0,0c2.3-6.7,4.9-13.8,7.7-21.1h0c0,0,0,0,0,0s0,0,0,0
		c17.4-13.1,38.5-26.9,46.7-27.6c12.9-1.1,26.2,0.8,28.1,1.1c0,0,0.1,0,0.1,0C559.7,621.5,559.8,621.5,559.8,621.5z"/>
	<path style="fill:none;stroke:#000000;stroke-width:3;stroke-linecap:round;stroke-linejoin:round;stroke-miterlimit:10;" d="
		M359.8,337.6c-1.1,0.5-2.3,0.9-3.4,1.3c-3.2,1.2-6.4,2.2-9.6,3.3c-0.4,0.2-0.9,0.3-1.3,0.5c-4.5,1.6-8.9,3.4-13.1,6
		c-5.9,3.7-14.1-5.7-5.3-9l13.5-5.1l1.5-0.6l11.3-4.3l0.8-0.3C359.9,327.2,364,335.9,359.8,337.6z"/>
	<path style="fill:none;stroke:#000000;stroke-width:3;stroke-linecap:round;stroke-linejoin:round;stroke-miterlimit:10;" d="
		M337.6,330.1l-4.3-1.8l0,0l-0.4-0.2c-0.1-0.2-0.2-0.3-0.3-0.5c0,0,0,0,0,0l-1.5-1.3c0.4,0.3,0.7,0.5,1.1,0.7h0
		C333.9,328.2,335.6,329.2,337.6,330.1L337.6,330.1C337.5,330,337.6,330.1,337.6,330.1z"/>
	<path style="fill:none;stroke:#000000;stroke-width:3;stroke-linecap:round;stroke-linejoin:round;stroke-miterlimit:10;" d="
		M123.6,389.9c-13.6,7.1-32.9,17.3-41,21.8c-13.1,7.4-6.5,32.8-6.5,39.3s-21.3,11.5-21.3,11.5l-3.3-12.3c0,0-4.1-9-17.2-9
		c-6.9,0-5.8,6.6-7.4,10.3c-0.8,2-3.6,3.5-5.9,2.7c0,0-10.5-3.2-15.4-7.3c-4.9-4.1,4.9-31.9,2.5-36.8c-2.5-4.9-4.9-10.6,0.8-15.6
		c5.7-4.9,28.7-3.3,40.1-4.9c11.5-1.6,19.7,8.2,28.7,6.5c5.9-1.1,27.4-11.9,42.6-19.5c0.1,1.8,0.4,3.6,0.8,5.6
		C121.7,384.8,122.5,387.4,123.6,389.9z"/>
	<path style="fill:none;stroke:#000000;stroke-width:3;stroke-linecap:round;stroke-linejoin:round;stroke-miterlimit:10;" d="
		M151.9,396c-5,1.8-10.2,3.7-13.6,5.1c-6.2,2.5-11.5-3.5-14.7-11.2c-1-2.5-1.9-5.1-2.5-7.7c-0.5-2-0.7-3.8-0.8-5.6
		c-0.4-7.8,2.7-13.6,7.4-14.9c2.1-0.6,5.5-1.8,8.9-3c-0.4,1.6-0.7,3.1-0.7,4.6C135.8,373,146.1,392.9,151.9,396z"/>
	<path style="fill:none;stroke:#000000;stroke-width:3;stroke-linecap:round;stroke-linejoin:round;stroke-miterlimit:10;" d="
		M456.7,669c1,0.2,2,0.4,2.9,0.5h0c-0.8,1-2.1,1.9-3.8,2.7c0,0,0,0,0,0C456.1,671.2,456.3,670.1,456.7,669"/>
	<path style="fill:none;stroke:#000000;stroke-width:3;stroke-linecap:round;stroke-linejoin:round;stroke-miterlimit:10;" d="
		M143.2,778.1c-0.1,0.1-0.2,0.2-0.4,0.4c-1.8,3.1-3.2,21.3-2.2,30.4c0,0.2,0,0.5,0.1,0.7c-14.3,19.7-17.6,55.7-22.9,71.2
		s-29.1,5.7-25.4,1.2c10.9-13,36.1-76.8,36.8-83.1c0.7-5.9,4.5-23.3,6.6-25.4C137.9,771.5,145.3,776.9,143.2,778.1z"/>
	<path style="fill:none;stroke:#000000;stroke-width:3;stroke-linecap:round;stroke-linejoin:round;stroke-miterlimit:10;" d="
		M203.8,705.7c-0.3,0.3-0.5,0.6-0.8,0.9C203.2,706.3,203.5,706,203.8,705.7C203.7,705.7,203.7,705.7,203.8,705.7z"/>
	<path style="fill:none;stroke:#000000;stroke-width:3;stroke-linecap:round;stroke-linejoin:round;stroke-miterlimit:10;" d="
		M221.5,712.4c-5.2,4.5-10.1,9.3-14.8,14.3c-25.5,27.1-44.6,59.6-66,82.2c-1-9.1,0.4-27.3,2.2-30.4h6.1c0,0,20.9-30.3,42.2-57.3
		c2-2.6,4.1-5.1,6.1-7.6c0.9-1.1,1.9-2.3,2.8-3.4c0.1-0.1,0.2-0.3,0.3-0.4c0.6-0.8,1.3-1.5,1.9-2.3c0.3-0.3,0.5-0.6,0.8-1
		c0.3-0.3,0.5-0.6,0.8-0.9C209.4,707.8,215.6,710.2,221.5,712.4z"/>
	<path style="fill:none;stroke:#000000;stroke-width:3;stroke-linecap:round;stroke-linejoin:round;stroke-miterlimit:10;" d="
		M221.5,712.4c-5.2,4.5-10.1,9.3-14.8,14.3l-0.1,0C211.4,721.7,216.3,716.9,221.5,712.4C221.5,712.4,221.5,712.4,221.5,712.4z"/>
	<path style="fill:none;stroke:#000000;stroke-width:3;stroke-linecap:round;stroke-linejoin:round;stroke-miterlimit:10;" d="
		M484.7,648c-2.8,7.3-5.4,14.4-7.7,21.1c-1.2,3.5-2.3,6.9-3.4,10.3c-9.3,29.1-13.3,51.7-10.9,66.6v0c-4.7,5-11.7,12.4-15.9,16.6
		c3.1-30.1,1.8-59.8,9-90.3c0,0,0,0,0,0c1.7-0.8,3-1.7,3.8-2.7C462.5,665.7,472.7,657,484.7,648z"/>
	<path style="fill:none;stroke:#000000;stroke-width:3;stroke-linecap:round;stroke-linejoin:round;stroke-miterlimit:10;" d="
		M459.6,669.5c-0.8,1-2.1,1.9-3.8,2.7c0.3-1.1,0.5-2.2,0.8-3.2C457.7,669.2,458.7,669.3,459.6,669.5L459.6,669.5z"/>
	<path style="fill:none;stroke:#000000;stroke-width:3;stroke-linecap:round;stroke-linejoin:round;stroke-miterlimit:10;" d="
		M484.7,648c-2.8,7.4-5.4,14.4-7.7,21.1c-1.2,3.5-2.3,6.9-3.4,10.3c0,0,0,0,0,0c1.1-3.3,2.2-6.8,3.4-10.3
		C479.3,662.3,481.9,655.3,484.7,648L484.7,648z"/>
	<path style="fill:none;stroke:#000000;stroke-width:3;stroke-linecap:round;stroke-linejoin:round;stroke-miterlimit:10;" d="
		M456.7,669c1,0.2,2,0.4,2.9,0.5h0c2.8-3.8,13-12.5,25-21.6h0c0,0,0,0,0,0s0,0,0,0c17.4-13.1,38.5-26.9,46.7-27.6
		c12.9-1.1,26.2,0.8,28.1,1.1c0,0,0.1,0,0.1,0c0,0,0.1,0,0.1,0c-0.6-1-38.8-63.8-42.8-74.1c-4-10.4-19.7-26.1-40-31.8
		c-20.3-5.8-77.6-36.5-84-44.6c0.2-2.4,0.4-4.5,0.5-6.5c-1-0.1-2.1-0.2-3.1-0.3c-1.7-0.1-3.2-0.2-4.3-0.2c-4.1,0-4.6-7-4.6-7
		s0,8.7-2.9,9.9c-2.9,1.1-19.1,0-39.4,2.3c-13.2,1.5-25.6,7.9-32.7,12.2c-1.1,0.7-2.1,1.3-2.9,1.8c0.1-0.4,0.1-0.9,0.2-1.3h0
		c-1.3,8-2.9,15.6-4.5,18c-4,5.8-114.6,62-122.2,64.3c-7.5,2.3-79.3,29-87.4,33.6c-8.1,4.6-8.1,13.3-2.3,15.1
		c5.8,1.7,13.3,6.4,14.5,10.4c1.2,4-2.9,6.9,5.2,12.7c8.1,5.8,66,61.4,76.4,63.1c3.6,0.6,11.3,3.4,20.3,6.7c0,0,0,0,0,0
		c5.7,2.1,11.8,4.5,17.7,6.7c0,0,0,0,0,0c11.6,4.3,22.1,8,25.6,8c4,0,8.4-1.3,11.1-3.4l2.7-3.8l10-14c0.7,0.1,1.4,0.3,2.2,0.4
		c12.7,2.9,68.3,22.6,88,16.8c17.1-5,40-17.5,39.1-23.3v0l7.4-16.4c15.1,0.2,38.3,0,48.1-4.4C456.1,671.2,456.3,670.1,456.7,669"/>
	<path style="fill:none;stroke:#000000;stroke-width:3;stroke-linecap:round;stroke-linejoin:round;stroke-miterlimit:10;" d="
		M306.5,481.4c-1.1,0.7-2.1,1.3-2.9,1.8c0.1-0.4,0.1-0.9,0.2-1.3c0,0,0.1,0,0.1,0L306.5,481.4z"/>
	<path style="fill:none;stroke:#000000;stroke-width:3;stroke-linecap:round;stroke-linejoin:round;stroke-miterlimit:10;" d="
		M393.6,462.3c0,0.3,0,0.7,0,1c0,0.1,0,0.2,0,0.3c0,0.3,0,0.6,0,0.9c-1-0.1-2.1-0.2-3.1-0.3C391.5,463.6,392.5,463,393.6,462.3
		c0-1.2,0-2.4,0-3.5C393.6,459.9,393.6,461.1,393.6,462.3z"/>
	<path style="fill:none;stroke:#000000;stroke-width:3;stroke-linecap:round;stroke-linejoin:round;stroke-miterlimit:10;" d="
		M261,713.2c-0.3,1.5-1.3,2.8-2.7,3.8L261,713.2z"/>
	<path style="fill:none;stroke:#000000;stroke-width:3;stroke-linecap:round;stroke-linejoin:round;stroke-miterlimit:10;" d="
		M306.5,481.4c-1.1,0.7-2.1,1.3-2.9,1.8c0.1-0.4,0.1-0.9,0.2-1.3c0,0,0.1,0,0.1,0L306.5,481.4z"/>
	<path style="fill:none;stroke:#000000;stroke-width:3;stroke-linecap:round;stroke-linejoin:round;stroke-miterlimit:10;" d="
		M393.6,462.3c0,0.3,0,0.6,0,1c0,0.1,0,0.2,0,0.3c0,0.3,0,0.6,0,0.9c-1-0.1-2.1-0.2-3.1-0.3C391.5,463.6,392.5,463,393.6,462.3z"/>
	<path style="fill:none;stroke:#000000;stroke-width:3;stroke-linecap:round;stroke-linejoin:round;stroke-miterlimit:10;" d="
		M332.6,327.6c0.1,0.1,0.2,0.3,0.3,0.5l0.4,0.2L332.6,327.6z M332.6,327.6c0.1,0.1,0.2,0.3,0.3,0.5l0.4,0.2L332.6,327.6z
		 M332.6,327.6c0.1,0.1,0.2,0.3,0.3,0.5l0.4,0.2L332.6,327.6z M332.6,327.6c0.1,0.1,0.2,0.3,0.3,0.5l0.4,0.2L332.6,327.6z
		 M332.6,327.6c0.1,0.1,0.2,0.3,0.3,0.5l0.4,0.2L332.6,327.6z M332.6,327.6c0.1,0.1,0.2,0.3,0.3,0.5l0.4,0.2L332.6,327.6z
		 M332.6,327.6c0.1,0.1,0.2,0.3,0.3,0.5l0.4,0.2L332.6,327.6z M332.6,327.6c0.1,0.1,0.2,0.3,0.3,0.5l0.4,0.2L332.6,327.6z
		 M332.6,327.6c0.1,0.1,0.2,0.3,0.3,0.5l0.4,0.2L332.6,327.6z M332.6,327.6c0.1,0.1,0.2,0.3,0.3,0.5l0.4,0.2L332.6,327.6z
		 M332.6,327.6c0.1,0.1,0.2,0.3,0.3,0.5l0.4,0.2L332.6,327.6z M332.6,327.6c0.1,0.1,0.2,0.3,0.3,0.5l0.4,0.2L332.6,327.6z
		 M332.6,327.6c0.1,0.1,0.2,0.3,0.3,0.5l0.4,0.2L332.6,327.6z M332.6,327.6c0.1,0.1,0.2,0.3,0.3,0.5l0.4,0.2L332.6,327.6z
		 M332.6,327.6c0.1,0.1,0.2,0.3,0.3,0.5l0.4,0.2L332.6,327.6z M332.6,327.6c0.1,0.1,0.2,0.3,0.3,0.5l0.4,0.2L332.6,327.6z
		 M332.6,327.6c0.1,0.1,0.2,0.3,0.3,0.5l0.4,0.2L332.6,327.6z"/>
	<path style="fill:none;stroke:#000000;stroke-width:3;stroke-linecap:round;stroke-linejoin:round;stroke-miterlimit:10;" d="
		M276.2,356.6L257,338.8c-9.7-0.7-19.9-3.5-27.5-6.4c1.8,0.9,3,1.3,2,1.3c-7.1-0.2-16.7-6.8-25.8-14.8l0,0c-2.7-2.4-5.4-4.9-8-7.4
		c-13.1-2.4-25.3-3.9-29.1-2.2c-9,4.1-22.1,20.5-22.1,27c0,5.5-7.6,14-9.9,22.4c-0.4,1.6-0.7,3.1-0.7,4.6c0,9.6,10.2,29.5,16,32.6h0
		c0.1,0.1,0.2,0.1,0.3,0.2c5.7,2.5,1.6,9.8,9,13.9c7.4,4.1,15.6,5.7,15.6,5.7s10.6,11.5,17.2,11.5c6.6,0,32.8-5.7,42.6-13.9
		c3.5-2.9,10-10.4,16.9-19c0,0,0,0,0,0c3.9-4.9,8-10.1,11.8-14.9c8.1-10.5,14.7-19.3,14.7-19.3L276.2,356.6z"/>
	<path style="fill:none;stroke:#000000;stroke-width:3;stroke-linecap:round;stroke-linejoin:round;stroke-miterlimit:10;" d="
		M429.8,376.5c-4.1-11.8-23.1-22.9-37.4-29.7c3.9-1,7.8-1.4,11.6-1c2.6,0.3-7.5-13.8-12.7-19.6c-7-7.8-21.1-18.4-29.1-24.2
		c-4.8,0.7-10,6.2-14.4,12.2c-4.2,5.7-7.6,11.8-9.1,14.6v0c-0.5,1-0.8,1.6-0.8,1.6c-0.2-0.1-0.4-0.1-0.5-0.2c0,0,0,0.1,0.1,0.1
		l-4.3-1.8l0,0l-0.4-0.2c-0.1-0.2-0.2-0.3-0.3-0.5c0,0,0,0,0,0l-1.5-1.3c0.4,0.3,0.7,0.5,1.1,0.7c-4-5.5-7.1-8.9-14-13
		c-1.7-1-3.7-2.1-6-3.3c-2.8-1.4-10.3-2.6-17.6-4l-0.3-0.9c-17-1.1-28.4-1.6-38.2,1.4c-3.6,1.1-7,2.7-10.4,4.8
		c-5.4,3.5-10.5,5.4-15.3,6.3h0c-5.3,0.9-10.3,0.4-14.7-1.2c2.8,4.2,5.8,8,8.2,11c1.5,1.9,3.9,3.3,5.6,4.2c0,0,0,0,0,0
		c7.6,2.9,17.8,5.7,27.5,6.4l19.2,17.7l3.8,3.5c0,0-6.5,8.8-14.7,19.3c-3.8,4.8-7.9,10-11.8,14.9c0,0,0,0,0,0
		c6.3,10.8,12.4,20,16.3,22.7c11,7.5,19.7,20.9,20.2,32.4c0.5,9.9-7.5,24.9-2.9,28.4c2.8,2.1,8.1,3.1,12,3.6c-0.3,0-0.6-0.1-0.9-0.2
		c1.5,0.2,3.4,0.4,5.6,0.6h0c0,0,0.1,0,0.1,0l2.6-0.5c7.1-4.3,19.5-10.7,32.7-12.2c20.3-2.3,36.5-1.1,39.4-2.3
		c2.9-1.2,2.9-9.9,2.9-9.9s0.5,7,4.6,7c1.1,0,2.6,0.1,4.3,0.2c1.1-0.6,2.1-1.3,3.2-1.9c0-1.2,0-2.4,0-3.5c0,1.1,0.1,2.3,0,3.5
		c4.6-2.8,8.8-6,11.3-10.2c0,0,0-0.1,0.1-0.1c3.8-5.5,2.6-10.8-2.1-15c-0.6-0.5-1.3-1.9-2.3-4c6.8-3.1,14.8-7.1,17.8-9.7
		c1.1-1,2.1-2.1,2.8-3.4c3.1-5.1,3.6-11.5,3.6-11.5S433.7,387.8,429.8,376.5z M327,339.6l13.5-5.1l1.5-0.6l11.3-4.3l0.8-0.3
		c5.9-2.2,10,6.5,5.7,8.2c-1.1,0.5-2.3,0.9-3.4,1.3c-3.2,1.2-6.4,2.2-9.6,3.3c-0.4,0.2-0.9,0.3-1.3,0.5c-4.5,1.6-8.9,3.4-13.1,6
		C326.4,352.3,318.2,343,327,339.6z M365.7,351.9c-1.6,0.4-3.1,0.9-4.5,1.3c-1.6,0.6-3.2,1.1-4.6,1.8c-0.6,0.3-1.2,0.5-1.8,0.8
		c-0.4,0.2-0.8,0.4-1.3,0.6c-3.5,1.8-6.9,3.9-11.2,6.5c-5.9,3.7-13.9-5.2-5.3-9l11.9-5.3l1.3-0.6l8-3.6l2.3-1c2.6-1.1,5.4,0.1,7,1.9
		C369.5,347.7,369.8,350.9,365.7,351.9z"/>
	<path style="fill:none;stroke:#000000;stroke-width:3;stroke-linecap:round;stroke-linejoin:round;stroke-miterlimit:10;" d="
		M391.3,30.8c-10.6-6.6-21.9-11.8-36.4-13.7c11.8-2.1,21.9-3.6,27.6-3.5c0,0,0.1,0,0.1,0c0,0,0,0,0,0c0,0,5.8,1.2,7.5,11
		C390.4,25.7,390.7,27.9,391.3,30.8z"/>
	<path style="fill:none;stroke:#000000;stroke-width:3;stroke-linecap:round;stroke-linejoin:round;stroke-miterlimit:10;" d="
		M327.3,237.9c0.8,0,1.5,0,2.3,0c10.9-0.1,22.8-4,34.2-6.1c-11.7,3.9-23.5,6-34.5,7.2c-10.3,1.1-19.8,1.4-27.7,1.8l23.2-2.3"/>
	<path style="fill:none;stroke:#000000;stroke-width:3;stroke-linecap:round;stroke-linejoin:round;stroke-miterlimit:10;" d="
		M262.8,200.5c-6.8,6.2-11,11.8-11.6,22.3c1.8-5.7,4.6-12,9.5-15.7c0.2-0.2,0.5-0.4,0.7-0.5c1.5-1,3.2-1.8,5.1-2.3L262.8,200.5z
		 M279.9,173.4c15.8-5.2,32.3-19.5,51.2-6.8l2.9,3.5l4.9-6.5C309.8,148.7,291.8,161.5,279.9,173.4z M370,168.9
		c3.1,11.9-3.7,15-23.3,13.1C364.1,191,380,184.3,370,168.9z M372.5,151.7c0.3,2.7-3.3,6.6,2.9,7.4l2-6.5c4.5-6.6,22.1-14.5,36-6.6
		C406.8,140.7,391,129.6,372.5,151.7z M262.8,200.5c-6.8,6.2-11,11.8-11.6,22.3c1.8-5.7,4.6-12,9.5-15.7c0.2-0.2,0.5-0.4,0.7-0.5
		c1.5-1,3.2-1.8,5.1-2.3L262.8,200.5z M279.9,173.4c15.8-5.2,32.3-19.5,51.2-6.8l2.9,3.5l4.9-6.5
		C309.8,148.7,291.8,161.5,279.9,173.4z M370,168.9c3.1,11.9-3.7,15-23.3,13.1C364.1,191,380,184.3,370,168.9z M372.5,151.7
		c0.3,2.7-3.3,6.6,2.9,7.4l2-6.5c4.5-6.6,22.1-14.5,36-6.6C406.8,140.7,391,129.6,372.5,151.7z M262.8,200.5
		c-6.8,6.2-11,11.8-11.6,22.3c1.8-5.7,4.6-12,9.5-15.7c0.2-0.2,0.5-0.4,0.7-0.5c1.5-1,3.2-1.8,5.1-2.3L262.8,200.5z M279.9,173.4
		c15.8-5.2,32.3-19.5,51.2-6.8l2.9,3.5l4.9-6.5C309.8,148.7,291.8,161.5,279.9,173.4z M370,168.9c3.1,11.9-3.7,15-23.3,13.1
		C364.1,191,380,184.3,370,168.9z M372.5,151.7c0.3,2.7-3.3,6.6,2.9,7.4l2-6.5c4.5-6.6,22.1-14.5,36-6.6
		C406.8,140.7,391,129.6,372.5,151.7z M372.5,151.7c0.3,2.7-3.3,6.6,2.9,7.4l2-6.5c4.5-6.6,22.1-14.5,36-6.6
		C406.8,140.7,391,129.6,372.5,151.7z M370,168.9c3.1,11.9-3.7,15-23.3,13.1C364.1,191,380,184.3,370,168.9z M279.9,173.4
		c15.8-5.2,32.3-19.5,51.2-6.8l2.9,3.5l4.9-6.5C309.8,148.7,291.8,161.5,279.9,173.4z M262.8,200.5c-6.8,6.2-11,11.8-11.6,22.3
		c1.8-5.7,4.6-12,9.5-15.7c0.2-0.2,0.5-0.4,0.7-0.5c1.5-1,3.2-1.8,5.1-2.3L262.8,200.5z M372.5,151.7c0.3,2.7-3.3,6.6,2.9,7.4l2-6.5
		c4.5-6.6,22.1-14.5,36-6.6C406.8,140.7,391,129.6,372.5,151.7z M370,168.9c3.1,11.9-3.7,15-23.3,13.1
		C364.1,191,380,184.3,370,168.9z M279.9,173.4c15.8-5.2,32.3-19.5,51.2-6.8l2.9,3.5l4.9-6.5C309.8,148.7,291.8,161.5,279.9,173.4z
		 M262.8,200.5c-6.8,6.2-11,11.8-11.6,22.3c1.8-5.7,4.6-12,9.5-15.7c0.2-0.2,0.5-0.4,0.7-0.5c1.5-1,3.2-1.8,5.1-2.3L262.8,200.5z"/>
	<path style="fill:none;stroke:#000000;stroke-width:3;stroke-linecap:round;stroke-linejoin:round;stroke-miterlimit:10;" d="
		M370,168.9c3.1,11.9-3.7,15-23.3,13.1C364.1,191,380,184.3,370,168.9z M329.6,237.9l-0.3,1.1c11-1.2,22.8-3.3,34.5-7.2
		C352.4,233.9,340.5,237.8,329.6,237.9z"/>
	<path style="fill:none;stroke:#000000;stroke-width:3;stroke-linecap:round;stroke-linejoin:round;stroke-miterlimit:10;" d="
		M294.1,306c-17-1.1-28.4-1.6-38.2,1.4c-3.6,1.1-7,2.7-10.4,4.8c-5.4,3.5-10.5,5.4-15.3,6.3h0c-5.3,0.9-10.3,0.4-14.7-1.2
		c-0.5-0.8-1.1-1.7-1.6-2.5c-2.2-3.6-4-7.5-4.8-11.3c-0.1-0.6-0.2-1.1-0.3-1.7c-3.1-21.2-1.9-46.6,1.8-73c1.7,3.4,3.6,6.5,5.7,9.5
		c23.3,32.2,45.3,46.5,71.2,51.7h0L294.1,306z"/>
	<path style="fill:none;stroke:#000000;stroke-width:3;stroke-linecap:round;stroke-linejoin:round;stroke-miterlimit:10;" d="
		M455.6,255.5c-2.9,12.7-22.6,51.5-34.7,56.2c-12.2,4.6-46.9-10.4-57.9-9.8c-0.2,0-0.4,0-0.7,0.1c-4.8,0.7-10,6.2-14.4,12.2
		c-4.2,5.7-7.6,11.8-9.1,14.6v0c-0.5,1-0.8,1.6-0.8,1.6c-0.2-0.1-0.4-0.1-0.5-0.2h0c-3.4-5.1-6.6-10.6-9.7-16.5
		c-2.7-5.2-5.2-10.7-7.5-16.5c-0.6-1.6-1.2-3.1-1.8-4.8c9.3-0.2,19.3-0.9,29.9-2c46.6-4.8,78.4-36.1,87-74.8v0
		c1.9-8.4,2.6-17.1,2.2-26c-0.9-20-13.1-45.8-27.3-69.6c0.8-0.1,2.6-0.5,5-1c2.8,6.2,5.8,11.7,9,16.1
		C444.6,162.9,458.5,242.8,455.6,255.5z"/>
	<path style="fill:none;stroke:#000000;stroke-width:3;stroke-linecap:round;stroke-linejoin:round;stroke-miterlimit:10;" d="
		M337.5,330c-1.9-0.8-3.6-1.8-5.3-2.9h0c-4-5.5-7.1-8.9-14-13c-1.7-1-3.7-2.1-6-3.3c-2.8-1.4-10.3-2.6-17.6-4l-0.3-0.9l-6.5-16.1
		c2.5,0.5,5.1,0.9,7.7,1.3c5.9,0.8,12,1.1,18.4,1.2c1.6,0,3.1,0,4.8,0c0.6,1.6,1.2,3.2,1.8,4.8c2.3,5.8,4.8,11.3,7.5,16.5
		C330.9,319.4,334.2,324.9,337.5,330z"/>
	<path style="fill:none;stroke:#000000;stroke-width:3;stroke-linecap:round;stroke-linejoin:round;stroke-miterlimit:10;" d="
		M327.3,237.9c0.8,0,1.5,0,2.3,0c10.9-0.1,22.8-4,34.2-6.1c-11.7,3.9-23.5,6-34.5,7.2c-10.3,1.1-19.8,1.4-27.7,1.8l23.2-2.3"/>
	<path style="fill:none;stroke:#000000;stroke-width:3;stroke-linecap:round;stroke-linejoin:round;stroke-miterlimit:10;" d="
		M262.8,200.5c-6.8,6.2-11,11.8-11.6,22.3c1.8-5.7,4.6-12,9.5-15.7c0.2-0.2,0.5-0.4,0.7-0.5c1.5-1,3.2-1.8,5.1-2.3L262.8,200.5z
		 M372.5,151.7c0.3,2.7-3.3,6.6,2.9,7.4l2-6.5c4.5-6.6,22.1-14.5,36-6.6C406.8,140.7,391,129.6,372.5,151.7z M370,168.9
		c3.1,11.9-3.7,15-23.3,13.1C364.1,191,380,184.3,370,168.9z M279.9,173.4c15.8-5.2,32.3-19.5,51.2-6.8l2.9,3.5l4.9-6.5
		C309.8,148.7,291.8,161.5,279.9,173.4z"/>
	<path style="fill:none;stroke:#000000;stroke-width:3;stroke-linecap:round;stroke-linejoin:round;stroke-miterlimit:10;" d="
		M437.6,189.5c-0.9-20-13.1-45.8-27.3-69.6c-0.3,0-0.5,0.1-0.5,0.1l-9.3-13.9c0,0-44-4.6-69.5-9.3c-25.5-4.6-48.5-22.4-48.5-22.4
		s1.8,11.4-9.4,32c-7.7,14.2-28.3,31.5-45.5,44.3c-4,14.3-7.8,29.4-11,44.6c-2.3,11.1-4.4,22.3-5.9,33.3c1.7,3.4,3.6,6.5,5.7,9.5
		c23.3,32.2,45.3,46.5,71.2,51.7h0c2.5,0.5,5.1,0.9,7.7,1.3c5.9,0.8,12,1.1,18.4,1.2c1.6,0,3.1,0,4.8,0c9.3-0.2,19.3-0.9,29.9-2
		c46.6-4.8,78.4-36.1,87-74.8v0C437.3,207.1,438,198.4,437.6,189.5z M372.5,151.7c18.5-22.1,34.3-11.1,40.9-5.7
		c-13.9-8-31.6-0.1-36,6.6l-2,6.5C369.2,158.4,372.8,154.4,372.5,151.7z M370,168.9c10,15.4-6,22.1-23.3,13.1
		C366.3,183.9,373.2,180.8,370,168.9z M338.9,163.6l-4.9,6.5l-2.9-3.5c-18.9-12.7-35.4,1.5-51.2,6.8
		C291.8,161.5,309.8,148.7,338.9,163.6z M382.7,267.2c-20.5,7.1-41.9,6.8-61.5-0.3c-25-9.1-47-29.3-60.5-59.7
		c-4.8,3.7-7.7,10-9.5,15.7c0.5-10.5,4.8-16.1,11.6-22.3l3.8,3.8c-1.9,0.5-3.6,1.3-5.1,2.3c12.8,10.5,6.7,9.4,19,10.2
		c5.3,0.3,30.8-5.2,58.9-11.8v0c39.3-9.2,83.6-20.5,83.6-20.5l4.1-3.3C426.9,181.2,419.9,254.3,382.7,267.2z"/>
	<path style="fill:none;stroke:#000000;stroke-width:3;stroke-linecap:round;stroke-linejoin:round;stroke-miterlimit:10;" d="
		M443.4,106.2c-3.3,6.7-19.5,11-28.1,12.8c-2.4,0.5-4.2,0.8-5,1c-0.3,0-0.5,0.1-0.5,0.1l-9.3-13.9c0,0-44-4.6-69.5-9.3
		c-25.5-4.6-48.5-22.4-48.5-22.4s1.8,11.4-9.4,32c-7.7,14.2-28.3,31.5-45.5,44.3c13.6-48.4,30-88.1,36.3-95.5
		c3.6-4.4,0.3-3.6-0.9-6.5c-0.3-0.7-0.4-1.6-0.3-2.8c0.6-6.4,6.5-17.2,18-16.8c12.2,0.4,47.5-7.4,74.2-12.1
		c14.4,1.9,25.8,7.1,36.4,13.7c9.7,6,18.8,13.1,29,19.8C446.9,67.9,448,96.9,443.4,106.2z"/>
	<path style="fill:none;stroke:#000000;stroke-width:3;stroke-linecap:round;stroke-linejoin:round;stroke-miterlimit:10;" d="
		M338.9,163.6l-4.9,6.5l-2.9-3.5c-18.9-12.7-35.4,1.5-51.2,6.8C291.8,161.5,309.8,148.7,338.9,163.6z"/>
	<path style="fill:none;stroke:#000000;stroke-width:3;stroke-linecap:round;stroke-linejoin:round;stroke-miterlimit:10;" d="
		M413.4,146c-13.9-8-31.6-0.1-36,6.6l-2,6.5c-6.2-0.7-2.5-4.7-2.9-7.4C391,129.6,406.8,140.7,413.4,146z"/>
	<path style="fill:none;stroke:#000000;stroke-width:3;stroke-linecap:round;stroke-linejoin:round;stroke-miterlimit:10;" d="
		M266.5,204.3c-1.9,0.5-3.6,1.3-5.1,2.3c-0.3,0.2-0.5,0.3-0.7,0.5c-4.8,3.7-7.7,10-9.5,15.7c0.5-10.5,4.8-16.1,11.6-22.3
		L266.5,204.3z"/>
	<path style="fill:none;stroke:#000000;stroke-width:3;stroke-linecap:round;stroke-linejoin:round;stroke-miterlimit:10;" d="
		M327.3,237.9c0.8,0,1.5,0,2.3,0c10.9-0.1,22.8-4,34.2-6.1c-11.7,3.9-23.5,6-34.5,7.2c-10.3,1.1-19.8,1.4-27.7,1.8l23.2-2.3"/>
	<path style="fill:none;stroke:#000000;stroke-width:3;stroke-linecap:round;stroke-linejoin:round;stroke-miterlimit:10;" d="
		M259.9,205.3c0.3,0.6,0.5,1.2,0.8,1.8c0.2-0.2,0.5-0.4,0.7-0.5C260.9,206.2,260.4,205.8,259.9,205.3z"/>
	<path style="fill:none;stroke:#000000;stroke-width:3;stroke-linecap:round;stroke-linejoin:round;stroke-miterlimit:10;" d="
		M422.8,184.5c0,0-44.3,11.3-83.6,20.5v0c-28,6.6-53.6,12.1-58.9,11.8c-12.2-0.8-6.2,0.3-19-10.2c-0.3,0.2-0.5,0.3-0.7,0.5
		c13.5,30.5,35.6,50.6,60.5,59.7c19.6,7.1,41,7.4,61.5,0.3c37.2-12.8,44.2-86,44.2-86L422.8,184.5z M327.3,237.9c0.8,0,1.5,0,2.3,0
		c10.9-0.1,22.8-4,34.2-6.1c-11.7,3.9-23.5,6-34.5,7.2c-10.3,1.1-19.8,1.4-27.7,1.8l23.2-2.3"/>
	<path style="fill:none;stroke:#000000;stroke-width:3;stroke-linecap:round;stroke-linejoin:round;stroke-miterlimit:10;" d="
		M327.3,237.9c0.8,0,1.5,0,2.3,0c10.9-0.1,22.8-4,34.2-6.1c-11.7,3.9-23.5,6-34.5,7.2c-10.3,1.1-19.8,1.4-27.7,1.8l23.2-2.3"/>
	<path style="fill:none;stroke:#000000;stroke-width:3;stroke-linecap:round;stroke-linejoin:round;stroke-miterlimit:10;" d="
		M346.7,182c19.6,1.9,26.5-1.2,23.3-13.1C380,184.3,364.1,191,346.7,182z"/>
	<path style="fill:none;stroke:#000000;stroke-width:3;stroke-linecap:round;stroke-linejoin:round;stroke-miterlimit:10;" d="
		M327.3,237.9c0.8,0,1.5,0,2.3,0c10.9-0.1,22.8-4,34.2-6.1c-11.7,3.9-23.5,6-34.5,7.2c-10.3,1.1-19.8,1.4-27.7,1.8l23.2-2.3"/>
	<path style="fill:none;stroke:#000000;stroke-width:3;stroke-linecap:round;stroke-linejoin:round;stroke-miterlimit:10;" d="
		M326.5,7.7c-19.1,3.5-100.2,2.3-139.5,38.8C172.6,59.8,72.8,191.3,64.2,201.7c-8.7,10.4-24.3,26.6-31.8,29
		c-7.5,2.3-17.4,9.3-5.2,12.2c12.2,2.9,24.9,0,31.9,1.2c6.9,1.2,15,2.9,23.7,0.6c4.6-1.2,9.6-1.5,13.4-1.5c0.3,0,0.5,0,0.8,0
		c0.2,0,0.3,0,0.5,0c0.8,0,1.6,0.1,2.2,0.1c0.2,0,0.3,0,0.5,0c0.1,0,0.3,0,0.4,0c0.9,0.1,1.3,0.1,1.3,0.1s0,0,0,0c0,0,0,0,0,0
		s0,0.1-0.1,0.3c0,0,0,0,0,0c-0.1,0.3-0.3,0.8-0.5,1.4c-1,2.9-2,8.6,3.5,9.8c7.5,1.7,12.7-1.7,12.7-1.7c0,0,0,0,0,0
		c-0.1,0.5-0.7,4.8,7,7.5c8.1,2.9,13.2,0.8,19.1,3.5c13.3,5.9,29.5,20.9,34.7,26.6c2.4,2.6,10.1,11.6,19.4,20.7c2.6,2.5,5.3,5,8,7.4
		l0,0c9.2,8,18.8,14.5,25.8,14.8c1,0-0.2-0.4-2-1.3c0,0,0,0,0,0c-1.8-0.9-4.1-2.2-5.6-4.2c-2.4-3-5.5-6.8-8.2-11
		c-0.5-0.8-1.1-1.7-1.6-2.5c-2.2-3.6-4-7.5-4.8-11.3c-0.1-0.6-0.2-1.1-0.3-1.7c-3.1-21.2-1.9-46.6,1.8-73c1.6-11,3.6-22.2,5.9-33.3
		c3.2-15.2,7-30.3,11-44.6c13.6-48.4,30-88.1,36.3-95.5c3.6-4.4,0.3-3.6-0.9-6.5c-0.3-0.7-0.4-1.6-0.3-2.8c0.6-6.4,6.5-17.2,18-16.8
		c12.2,0.4,47.5-7.4,74.2-12.1c11.8-2.1,21.9-3.6,27.6-3.5h0.1C381.6,13.3,345.3,4.3,326.5,7.7z"/>
	<path style="fill:none;stroke:#000000;stroke-width:3;stroke-linecap:round;stroke-linejoin:round;stroke-miterlimit:10;" d="
		M101.7,243.7c-0.1,0.3-0.3,0.8-0.5,1.4C101.3,244.5,101.5,244,101.7,243.7z"/>
	<path style="fill:none;stroke:#000000;stroke-width:3;stroke-linecap:round;stroke-linejoin:round;stroke-miterlimit:10;" d="
		M101.8,243.4c0,0,0,0.1-0.1,0.3C101.7,243.6,101.8,243.5,101.8,243.4C101.8,243.4,101.8,243.4,101.8,243.4z"/>
	<path style="fill:none;stroke:#000000;stroke-width:3;stroke-linecap:round;stroke-linejoin:round;stroke-miterlimit:10;" d="
		M382.6,13.5L382.6,13.5C382.6,13.5,382.6,13.5,382.6,13.5L382.6,13.5z"/>
	<path style="fill:none;stroke:#000000;stroke-width:3;stroke-linecap:round;stroke-linejoin:round;stroke-miterlimit:10;" d="
		M365.7,351.9c-1.6,0.4-3.1,0.9-4.5,1.3c-1.6,0.6-3.2,1.1-4.6,1.8c-0.6,0.3-1.2,0.5-1.8,0.8c-0.4,0.2-0.8,0.4-1.3,0.6
		c-3.5,1.8-6.9,3.9-11.2,6.5c-5.9,3.7-13.9-5.2-5.3-9l11.9-5.3l1.3-0.6l8-3.6l2.3-1c2.6-1.1,5.4,0.1,7,1.9
		C369.5,347.7,369.8,350.9,365.7,351.9z"/>
	<path style="fill:none;stroke:#000000;stroke-width:3;stroke-linecap:round;stroke-linejoin:round;stroke-miterlimit:10;" d="
		M552.6,728.2c-5.7,6.1-38.1,10.4-55.7,19.2c-17.5,8.8-43.8,34-48.7,33.2c-4.9-0.8-4.9-14.7-4.9-14.7c0.4-0.3,1.7-1.5,3.5-3.3
		c4.2-4.2,11.2-11.6,15.9-16.6v0c2.8-3,4.8-5.1,4.8-5.1l3.7,2.5c0,0,47.9-34.8,58.1-35.6C539.5,706.9,558.3,722,552.6,728.2z"/>
	<path style="fill:none;stroke:#000000;stroke-width:3;stroke-linecap:round;stroke-linejoin:round;stroke-miterlimit:10;" d="
		M100.5,243.3c0.7,0.1,1.2,0.1,1.3,0.1c0,0,0,0,0,0S101.3,243.3,100.5,243.3z"/>
</g>
<g id="Layer_2" style="display:none;">
	<path style="display:inline;" d="M334.2,0c-3.1,0.1-6,0.3-8.9,0.9c-7.7,1.4-33.9,2.2-62.1,7s-59.5,13.6-80.9,33.5
		c-4.8,4.5-13.1,14.7-24.7,29.1C146,85,131.9,103,118,120.9s-27.7,35.8-38.5,49.8s-18.9,24.5-20.6,26.6c-4.2,5-10.1,11.5-15.8,16.9
		c-5.7,5.4-12.1,9.6-12.8,9.8c-4.8,1.5-9.7,3.4-13.4,8.2c-0.9,1.2-1.9,2.7-2.3,4.7c-0.4,2.1,0.1,4.8,1.2,6.7c2.4,3.9,5.8,5,9.7,5.9
		c7.1,1.7,14.1,1.6,19.8,1.4c5.8-0.2,10.7-0.5,12.5-0.2c6.7,1.1,16.1,3.3,26.7,0.5c2.8-0.8,6.1-0.9,9.1-1c0,0.5-0.1,0.9,0,1.4
		c0.6,3.9,4.4,8.9,9.5,10c4.2,1,7.6,0.7,10.6,0.1c2,2.2,4.6,4.2,8.3,5.5c5,1.8,9.3,2.1,12.3,2.2c3.1,0.2,4.6,0.3,6.3,1.1
		c11.3,5,28,20.1,32.4,24.9c0.7,0.7,4.4,4.6,6,6.4c-4.8-0.5-8.5-1.1-13.3,1.1c-6.5,3-12.1,8.5-16.9,14.5c-2.4,3-4.6,6.1-6.2,9.1
		c-1.6,3-3,5.8-3,9.7c0-0.4-1,2.9-3.2,6.6c-1.6,2.9-3.5,6.4-5.1,10.2c-2.1,0.7-4.4,1.5-5.6,1.8c-4.5,1.3-7.9,4.7-9.8,8.6
		c-1.3,2.6-1.9,5.5-2.2,8.5c-6.8,3.4-14.3,7.2-21.1,10.4c-3.9,1.9-7.6,3.5-10.5,4.7s-5.4,2-5.6,2c-1.5,0.3-3.9-0.4-7.7-2
		c-2.8-1.2-10.2-2.8-16.3-2.8c-13.6,0.9-36.6,1.9-44.4,5.1c-12.8,5.2-6,14.6-5.3,25c0.9,12.9-4.7,22-2.3,31.4
		c2.8,10.6,16.2,10.9,23.1,12.8c6.1,1.7,8.8-11.3,9.7-12.1c3.3-2.9,12.5,2.5,13.7,6.2c2.4,7.3,2.5,14.9,5.1,15.5s5.7-0.5,8.2-0.4
		c2.2-0.6,3.7-0.8,7.5-2.3c3-1.1,6-2.5,8.8-4.4S83,456.4,83,451c0-2.8-0.5-5.4-0.9-8.7c-0.4-3.3-0.8-7.1-0.8-10.6
		c0-3.6,0.4-6.9,1.2-9.3c0.8-2.4,1.8-3.7,3.4-4.6c7.4-4.2,22.3-12,34.8-18.5c1.3,1.9,2.7,3.7,4.5,5.3c3.8,3.3,10,5.2,15.6,3
		c2.1-0.8,5.5-2,8.7-3.2c0.7,3,2.8,8.7,8.4,11.8c7,3.9,12.9,5.4,15.4,5.9c1,1,2.2,2.4,5.2,4.8c3.9,3.2,8.2,7.4,15.5,7.4
		c5.3,0,12.9-1.6,21.9-4.1c9-2.6,18.4-5.9,25.1-11.4c3.3-2.7,7.3-7.3,11.6-12.5c1.4,2.2,2.8,4.7,4.1,6.6c3,4.3,5.4,7.6,9.1,10
		c9.2,6.3,16.8,18.6,17.2,27c0.1,2.9-1.3,8.9-2.8,14.6c-0.7,2.8-1.4,5.6-1.6,8.7c-0.1,3,0.4,7.5,4.3,10.4c4.3,3.2,8.7,4,12.6,4.5
		c-0.3,1.3-0.5,2.9-0.8,3.9c-0.6,2.4-1.3,3.9-1.1,3.7c-0.1,0.1-0.2,0.2-0.4,0.3c-0.8,0.6-2.1,1.4-3.7,2.4c-3.3,2-7.9,4.7-13.4,7.7
		c-11,6.1-25.3,13.6-39.9,21.1c-14.5,7.5-29.1,15-40.6,20.6c-5.7,2.8-10.7,5.2-14.4,7c-3.7,1.7-6.8,3-6.3,2.8
		c-5,1.5-24,8.5-43.9,16.1c-10,3.8-19.9,7.6-28,10.8c-8,3.2-13.6,5.4-16.9,7.3c-5.7,3.2-9.3,8.3-9.8,13.9c-0.6,5.6,3,12,9,13.8
		c2.1,0.6,4.9,2,7,3.5c2.1,1.4,3.1,3.4,2.8,2.2c-0.1-0.5-0.5,0.4-0.3,4.3c0.3,4,3.1,8.6,8.1,12.1c0.9,0.7,6.6,5.5,13.3,11.6
		c6.7,6,15.1,13.6,23.5,21.1s16.9,14.8,24.2,20.5c3.6,2.8,6.9,5.3,9.8,7.2s4.8,3.4,8.6,4c0.9,0.2,6.2,2.1,9.8,3.3
		c-21.2,26.1-41.6,55.1-45.8,61.1c-0.5-0.4-0.9-1-1.4-1.4c-1.5-1-3-1.8-5.1-2.3c-2.1-0.5-5.8-0.9-8.9,2.2c-1.6,1.6-1.8,2.5-2.3,3.5
		c-0.5,1-0.8,2.1-1.2,3.2c-0.8,2.3-1.5,5-2.2,7.7c-1.4,5.6-2.5,11.3-2.9,15c0.1-0.9-0.3,1.2-1.1,3.5s-1.8,5.2-3.1,8.7
		c-2.6,7-6.1,15.9-10,25c-3.8,9.1-8,18.3-11.8,26.1s-7.6,14.1-9.3,16.2c-2,2.4-2.3,6.9-1.2,9.3s2.6,3.6,4.1,4.7
		c3,2.2,6.5,3.6,10.6,4.3c4,0.7,8.6,0.7,13.1-1.2c4.5-1.9,8.8-6,10.7-11.6c3.1-8.9,5.1-21.6,8.3-34.7c3.2-13.1,7.6-26.3,13.7-34.7
		c0.4-0.6,0.7-1.2,0.9-1.8c21.5-23.3,40.1-54.4,64.2-80l0.2-0.2c0,0,0,0,0-0.1h0.1c2-2.1,3.9-4.2,5.9-6.2c-0.1,0.1,0.2-0.1,0.8-0.7
		c1-1,1.9-2,2.8-2.8c0,0,0.3-0.2,0.7-0.5l1.2-1.1c4.3,1.6,8.6,3.2,12.1,4.3c4.7,1.5,7.7,2.8,11.9,2.8c4.2,0,8.3-0.9,11.9-2.7
		c3.2-1.5,6.3-4,7.9-7.9l6.9-9.7c6.2,1.6,21.7,6.6,39,11c9.1,2.3,18.5,4.4,27.1,5.5s16.4,1.6,23.2-0.4c9.2-2.7,19.5-7.3,27.8-12.1
		c4.1-2.4,7.8-4.8,10.6-7.4c1.4-1.3,2.7-2.6,3.8-4.3c0.7-1.1,1.2-2.5,1.5-4.1l5.3-11.6c6.9,0,14.4,0,22.1-0.5
		c4.5-0.3,8.8-0.7,12.9-1.4c-4.8,26.8-4.7,52.5-7.1,77.7c-0.1,0.1-0.1,0.2-0.2,0.2c-0.5,0.5-1.6,1.1-0.1,0.2c-2.1,1.2-3.4,3.6-3.4,6
		c0,0,0,3.9,0.7,8.3c0.4,2.2,0.9,4.5,2.1,6.9c1.2,2.4,3.6,5.7,7.9,6.4c4,0.7,5.4-0.6,7.1-1.4c1.7-0.9,3.3-2,5.2-3.3
		c3.7-2.6,8.1-5.9,12.7-9.6c9.4-7.3,20.3-15.6,27.9-19.4c7.6-3.8,20-7.2,31-10.2c5.5-1.5,10.8-2.9,15.2-4.4c4.5-1.5,8-2.6,11.4-6.2
		c1.8-2,2.9-4.8,3-7.3c0-2.5-0.7-4.6-1.6-6.4c-1.8-3.6-4.5-6.5-7.6-9.1c-6.3-5.3-13.8-9.9-22.6-9.2c-3,0.2-5.1,1.1-7.7,2.3
		c-2.6,1.2-5.5,2.7-8.6,4.5c-6.2,3.5-13.2,8-19.9,12.4c-11.3,7.5-18.6,12.8-21.5,14.9c-0.6-0.4-1.2-0.6-1.9-0.8
		c0.5-12.9,4.2-30.9,11.2-52.7c0.7-2.1,1.4-4.4,2.2-6.6c25.4-5.3,54.1-19.6,63.4-24.7c15.1-8.3,20.6-26.3,20.6-26.3
		c0.7-2,0.4-4.2-0.7-6c0,0-9.6-15.9-19.8-33c-5.1-8.6-10.3-17.5-14.5-24.9s-7.4-13.7-7.9-15c-2.7-6.9-8.3-13.9-15.9-20.4
		c-7.6-6.5-17.4-12.4-28.7-15.6c-8.7-2.5-28.4-11.6-45.8-20.9c-8.7-4.7-17-9.4-23.4-13.4c-5.4-3.4-8.4-5.8-9.5-6.7
		c0-0.6,0.2-1.3,0.2-1.9c1.6-1.1,3.3-2.2,4.8-3.6c3.2,2.7,6.9,4.8,11.8,4.6c3.5-0.1,6.7-3.4,6.7-6.9c5.1-4.5,23-20.2,34-31.2
		c8.5-8.5,15.8-13,19.8-15.3c0.7,0.6,0.8,0.4,1.8,1.6c2.7,3.3,5.1,3.3,7.1,3.5s4,0.3,6.2,0.3c4.4-0.1,9.5-0.7,14.6-1.4
		s10.2-1.5,14.3-2.1c4.1-0.6,8-1,7.5-1c2.7,0,4.8-1.5,5.9-2.6c1.1-1.1,1.6-2.2,2.1-3.2c0.9-2,1.4-3.9,2-6.1c1-4.4,1.8-9.9,2.4-15.5
		c1.3-11.2,1.9-22.4,1.9-26.3c0-5.4-2.7-7.6-5.1-10.2c-2.5-2.6-5.5-5-8.8-7.2s-6.9-4-10.6-5.3c-3.7-1.2-7.7-2.2-12.3-0.1
		c-5.3,2.4-8.9,6.2-11.1,9.5c-2-0.7-2.5-1-5.4-1.8c-3.1-0.8-6.4-1.5-9.8-1.6c-3.4-0.1-7.5,0.1-11,3.6c-2.3,2.3-2.8,4.5-3.2,6.5
		c-0.4,2-0.5,4.1-0.6,6.3c-0.1,4.4,0.3,9.2,0.8,14c0.5,4.8,1.2,9.4,1.8,13.1c0.2,1.4,0.4,2.5,0.5,3.5c-0.6,0.5-1,0.8-1.9,1.4
		c-3,2.1-7.4,5-12.3,8.1c-7.6,4.7-15.8,9.4-23.2,13.5c0.6-2.6,0.8-4,0.8-4.5c0.4-1,2.2-5,3.8-11.3c1.8-7.1,3.7-15.8,0.8-24.2
		c-2.9-8.4-9.8-14.6-17.3-20.1c-2.7-2-5.7-3.6-8.6-5.4c0.9-1.8,1.1-3.3,1-4.2c-0.2-2.1-0.8-2.9-1.2-3.9c-1-2-2.2-4.1-3.7-6.3
		c-3-4.5-6.9-9.5-9.8-12.9c-1.9-2.2-4.8-4.4-7.3-6.6l0.4,0.1c5.9,1.6,11.9,3.1,17.5,3.9c5.6,0.8,10.9,1.3,16.2-0.7
		c5.5-2.1,9.1-6.2,13.1-11.1c3.9-4.9,7.8-10.9,11.3-17c7.1-12.3,12.8-24.8,14.6-33c1.3-5.9,0.6-12.7-0.7-22.6
		c-1.2-10-3.4-22.3-6.2-35c-5.7-25.5-13.9-52.6-25.5-68.4c-8.8-12.1-17.2-37-22.9-59.6s-9.1-43-10-48.1c-1.1-6.2-3.7-10.6-6.6-13.1
		c-2.6-2.4-5.6-3.3-6.1-3.4V6.7L384,6.7C383.5,6.5,355.7-0.6,334.2,0L334.2,0z M148.6,782l0.1,0.1c-0.2,0.4-0.5,1.1-2,2
		C147.4,783.7,148,782.8,148.6,782L148.6,782z"/>
</g>
</svg>
