<?xml version="1.0" encoding="utf-8"?>
<!-- Generator: Adobe Illustrator 22.1.0, SVG Export Plug-In . SVG Version: 6.00 Build 0)  -->
<svg version="1.1" id="Layer_1" xmlns="http://www.w3.org/2000/svg" xmlns:xlink="http://www.w3.org/1999/xlink" x="0px" y="0px"
	 viewBox="0 0 512 512" style="enable-background:new 0 0 512 512;" xml:space="preserve">
<style type="text/css">
	.st0{fill:#0D0D0D;}
	.st1{fill:#FDFDFD;}
</style>
<path class="st0" d="M161.2,209.6c13.9-1.6,23.9-10.1,32.3-20c15.6-18.4,25.2-21.9,47.2-13.5c9,3.4,17.9,11.9,25.2,13.2
	c11.9,2.2,11.9,12.4,19,16.6c4.4,2.6,7.7,9,14.3,3.9c1.9-1.5,4.6-0.6,5.1,1.1c2.7,9.9,11.9,9.8,19,13c1.3,1.4,2.7,2.9,3.3-0.5
	c1-1.1,0.6-6.4,3.7-1.7c6.5,9.9,16.5,12.4,27.2,13.8c2.3,0.3,4.7,1.1,6.7,2.2c27.4,15.5,58.3,14.8,87.5,13.2
	c33-1.8,56.6,38.4,51.7,66.6c-6.5,37.7-36.3,56.2-68.5,64.8c-10.2,2.7-19.2,4.2-27.5,11.4c-6.6,5.6-16.3,5.1-24.9,6.2
	c-4.6,0.6-9.2,0.8-12.4,4.8c-9.5,0-19.1,0-28.6,0c-3.5-4.3-8.2-12.2-12.7-8.3c-7.4,6.5-15.3,4.9-23.1,6.3c-8.6-1-17.3-1.7-25.8-3.1
	c-3.6-0.6-7.4-0.7-10.2-4.6c-10.1-13.8-23.9-18.6-40.9-17.3c-7.6,0.6-12.6,4.6-17.4,8.8c-11.9,10.3-25.1,10.8-39,6.2
	c-7.7-2.6-14.4-3.9-20.7,2.5c-1.3,1.3-3.4,2.2-5.2,2.3c-26.5,0.6-53.3,1.8-79-5.1c-33.9-9.2-48.9-42.2-35.6-75.3
	c1.6-4,0.7-6.9-0.3-10.1c-7.9-25.4-0.5-49.7,4-74.5c5-27.8,25.7-38.5,47.9-48.1c7.2-3.1,14.7,0.1,21.5,3.2
	c10.1,4.5,18.9,11.3,28,17.5c3.5,2.4,6.6,5.5,11.3,5.2C150,211.8,155.7,213,161.2,209.6z M490.4,326.1
	c-23.4,19.7-51.5,25.6-80.9,28.5c-30.9,3-62.2,5.2-92.2-2.8c-37.6-10-75.3-16.3-114.1-16.5c-1.9,0-3.9-0.7-5.8-1.2
	c-29.1-7-47.6-6.3-73.3,2.3c-8.6,2.9-17.2,6.1-26,7.5c-18.1,2.8-36.2,1.5-53.9-3.2c-2.4-0.6-5.7-1.5-3.8-5.2c1.2-2.4,3.3-2.6,6-1.4
	c12.8,5.8,26.5,3.1,39.9,3.8c12.6,0.7,23.6-4.8,35.1-8.6c-27.7-0.7-55.3,0.4-81.8-8.1c-0.9,3.9-2.3,7.3-2.5,10.7
	c-1,15-3.1,31.8,9.7,41.9c11.7,9.2,26.3,15.6,42.3,15.9c11.1,0.2,22.1,0.7,33.2,1.8c9.1,0.9,19,2,27.5-3.7c7.5-5,15-5.5,23.5-2.3
	c12,4.5,23.6,4.6,34.2-4.8c16-14.2,33.3-12.3,51.7-3.9c11.8,5.5,19,19.2,35.1,17.4c10.5-1.1,21.6,4.2,31.2-4.7
	c4.4-4.1,8.9-0.7,13,1.7c3,1.8,4.6,5.8,8.5,6c19.5,0.9,39.5-1.5,56.2-10.1c11.1-5.7,21.7-8.7,33.2-12.3
	c23.7-7.4,47.5-18.3,56.3-45.7c1.5-1.4,2.2-3.5,0.9-4.8C492.3,323.2,491.2,325,490.4,326.1z M100.2,220.4c-2.3-9.6-8.7-15.9-13-23.3
	c-1.2-2.1-2.8-4-5.7-3c-11.8,4.5-26.1,8.1-31.1,20c-10.7,25.3-19.1,52-15.2,80.2c1.5,10.8,4.9,22.6,19.6,24.2
	c14.9,1.7,29.8,3,44.9,2.9c21-0.3,42,0.6,63,1.3c20.8,0.7,40.9,8.9,61.9,5c0.1-0.6,0.3-1.2,0.1-1.3c-27.9-17.7-58.7-30.6-83.2-53.5
	c-1.6-1.5-3.3-1.7-5.4-1.2c-23.6,5.4-47.7,5.2-71.7,6.6c-13.8,0.9-16.9-3.6-13.6-17C56.7,236.8,72.7,223.5,100.2,220.4z
	 M311.1,256.2c-0.5-15.6-0.5-15.4-15.9-13.6c-4.7,0.5-9.5,0.1-14.3,0.2c-28.4,0.9-53.4,11.8-77.3,25.9c-8.1,4.8-8.3,10.7-0.7,16.7
	c5.9,4.6,11.9,8.6,18.5,12.3c18.7,10.4,39.1,15.6,59.1,22.1c17.6,5.8,35.5,9.6,54.2,7.4c-6.4-3.3-13-5.5-19.4-8.3
	c-14.1-6.1-18.2-13.7-14.1-28.2c3-10.4,11.1-18.1,16.6-27.1c2.6-4.3,10.3-8.5,6.1-13.2c-3.9-4.4-5.7,6-10.6,5.6
	C312.6,256.1,311.8,256.2,311.1,256.2z M418.1,299.9c1.1-4,4.3-4.1,6.3-5.7c13.7-10.3,32.4-10.1,45.4-21.7c2.5-2.2,8.5-2.3,6.8-6.6
	c-1.4-3.5-6.2-6.1-10.6-6.3c-19.2-1-38.4-4.5-57.8-2c3.7,17,2.6,18.3-14.9,18.5c-4.4,0-8.7,0-13.1,0.1c-13,0.2-24.6,5.1-35.8,11.2
	c-5.4,2.9-7.6,7.4-7.9,13.6c-0.3,7.2,5.8,6.3,9.5,8.4c15.5,8.9,32.9,9.5,49.9,12.9c20.4,4.1,40.9,8.4,61.3,12.7
	c7.4,1.6,13.6-2,16.1-7c2.6-5.2-5.1-6-8.4-8.7c-4.3-3.6-9.9-4.8-14.5-7.6C440.5,305.6,427.9,306.2,418.1,299.9z M186.2,217.2
	c14.6,1.5,26,2.9,37.3,3.8c5,0.4,8.7,2,9,7.4c0.3,4.8-3.2,6.2-7.4,7.6c-23.5,7.8-47.7,13.2-70.4,23.3c-3.6,1.6-9.3,1.8-9.8,5.4
	c-0.6,4.2,4.7,6.7,7.9,9.3c20.9,17,45.6,28,68.1,42.4c24.7,15.7,53.8,16.5,81,23.8c7.5,2,14.7,4.7,22.2,6.9c7.9,2.3,11.9-4.6,17.4-8
	c1-0.6,1.8-3.6,1.3-4.1c-4.3-4-8.6,2.2-13.2,0.4c-1.7-0.7-3.9,0.1-5.9,0c-19-0.9-37.1-6.4-55.1-11.9c-25.6-7.8-51-16.1-71.6-34.2
	c-8.6-7.5-8.7-19.1,0.6-25.2c20.9-13.6,43.9-22.6,68.6-26.8c11.4-2,23.4,1.7,36.2-4.6c-4.8-2.7-6.3-8.9-12.2-2.9
	c-2.4,2.4-8,2-7.9-0.8c0.3-8.7-7.5-4.6-10.4-7.8c-4.9-5.5-13.6,1.2-18.8-6.9c-9-14.2-30.3-18.4-45.7-11.2
	C200.6,206.3,195.2,211.4,186.2,217.2z M445,341.3c-2-4.2-5.2-2.6-7.7-3.3c-30.9-9-64.1-7.9-94-21.9c-7-3.3-14.1-5.2-13.8-14.9
	c0.2-9.6,4.6-16.3,13.2-20.7c10.8-5.4,21.6-10.4,35.7-10.4c-18.7-7.2-1.3-12.7-1-19.3c-12.7-8.1-27.8-8.9-44.8-14.2
	c4.2,4,6.2,5.6,7.9,7.5c3.3,3.8,5.3,8.3,3,13.1c-2.6,5.5-6.2,2.2-9.7,0.4c-2.2-1.2-3.3,0.3-4.5,2.2c-6.6,9.8-14.1,19.2-19.9,29.4
	c-6,10.5-2.5,18.7,8.5,23.7c4.3,2,8.6,4.3,13.1,5.2c7.3,1.4,14.2,3.1,17.2,10.6c3,7.4,0.7,14.2-4.9,20.6c17.9,0.9,34.5,1.4,51.2-0.3
	C411.4,347.2,428.3,346.3,445,341.3z M224.9,228.1c-13.5-1.7-24.9-2.7-36.1-4.6c-6.2-1.1-11.1-0.8-16.1,3.6
	c-19.8,17.2-40.8,15.8-62,2.9c-3.3-2-6.4-2.4-10-2.3c-23.3,1.1-39.1,14.5-44,37.1c-0.7,3.4-1.6,6.9,3.3,6.7c24-1,48.2-1.5,71.9-5.6
	c6.1-1,8.3-9.3,14.7-11.4C172.1,246,197.6,237.4,224.9,228.1z M433.6,297.8c16.9,5.9,32.2,11.7,45,22.1c1.9,1.6,3.1,3,6,1.2
	c11.5-7.3,15.1-18.1,9.4-30.8c-1.9-4.3-4.8-8.1-6.7-12.4c-2.2-4.9-4.3-5.6-8.8-2.1c-9.3,7.3-19.7,12.7-31.6,14.9
	C442.6,291.5,438.9,294.9,433.6,297.8z M176.7,214.1c-2.9,0-4.7-0.5-6,0.1c-18.4,8.4-34,3.7-49.3-8.4c-8.1-6.4-16.8-13.3-28.7-14.8
	C114.6,240.7,149,243.6,176.7,214.1z M197.2,200c13.6-12.4,33.3-1.8,47.6-13.4C223.4,173.3,210,176.9,197.2,200z M403.1,268.9
	c-0.5-7.8-2.9-13.9-10.2-13.5c-7,0.4-7.3,8.4-11.7,13.5C389.2,268.9,395.7,268.9,403.1,268.9z"/>
<path class="st1" d="M305.8,402.7c7.8-1.4,15.7,0.1,23.1-6.3c4.5-3.9,9.2,4,12.7,8.3c-11.9,0-23.8,0-35.8,0
	C305.8,404,305.8,403.4,305.8,402.7z"/>
<path class="st1" d="M161.2,209.6c-5.5,3.4-11.2,2.2-16.9,0.8C149.8,206.3,155.4,206,161.2,209.6z"/>
<path class="st1" d="M326.7,223.5c-0.6,3.3-2,1.8-3.3,0.5C324.5,223.8,325.6,223.7,326.7,223.5z"/>
<path class="st0" d="M87.7,379.6c-4.9-0.7-12.7-1-20.5-3c-11.6-2.9-12.4-11.3-10.7-20.1c1.8-9.8,9.6-9.9,17.8-8.4
	c5.4,1,10.9,1.4,16.4,1.6c13.3,0.4,19.6,4.7,19.3,13.5C109.4,378.8,106.8,381,87.7,379.6z M90.4,373.6c5.4-0.4,12.3,2.6,12.6-7.5
	c0.3-9.3-5.4-8.8-11.6-9.2c-6.7-0.4-13.3-1.7-20-2c-3.1-0.1-7.8-2.1-8.6,3.4c-0.7,4.8-0.6,9.5,5.6,11.4
	C75.7,371.8,82.9,373.7,90.4,373.6z"/>
</svg>
