<?xml version="1.0" encoding="utf-8"?>
<!-- Generator: Adobe Illustrator 22.1.0, SVG Export Plug-In . SVG Version: 6.00 Build 0)  -->
<svg version="1.1" xmlns="http://www.w3.org/2000/svg" xmlns:xlink="http://www.w3.org/1999/xlink" x="0px" y="0px"
	 viewBox="0 0 1122 1122" style="enable-background:new 0 0 1122 1122;" xml:space="preserve">
<style type="text/css">
	.st0{fill:none;stroke:#272525;stroke-width:8;stroke-miterlimit:10;}
</style>
<g id="BG">
</g>
<g id="Icon">
	<g>
		<path class="st0" d="M522.1,475h-357c-18.5,0-33.6,13.8-33.6,30.6V831c0,16.9,15.1,30.6,33.6,30.6h357c18.5,0,33.6-13.8,33.6-30.6
			V505.6C555.8,488.8,540.6,475,522.1,475z M367.8,667.4v70.7c0,13.3-10.9,24.2-24.2,24.2c-13.3,0-24.2-10.9-24.2-24.2v-70.7
			c-18.3-8.9-30.9-27.7-30.9-49.4c0-30.4,24.7-55,55-55c30.4,0,55.1,24.7,55.1,55C398.7,639.7,386.1,658.4,367.8,667.4z"/>
		<path class="st0" d="M236.5,447.6v-99.5c0-58,47.2-105.2,105.2-105.2c58,0,105.2,47.2,105.2,105.2v99.5h66.8v-99.5
			c0-94.8-77.1-172-172-172s-172,77.1-172,172v99.5H236.5z"/>
	</g>
	<g>
		<path class="st0" d="M825,220.8c-26.6,1.8-51.7,15.6-68.2,37.4c-5.1,6.8-8.1,11.9-12.8,22c-2.6,5.5-5.6,16.4-7,25.6
			c-0.7,4.3-1.1,14.1-0.8,19.3c1.3,22.8,9.1,42.9,23.3,60.2c10,12.1,24.1,22.4,38.1,27.7c2.7,1,5.2,2,5.7,2.2
			c0.8,0.4,0.8,0.7-1.5,197.5l-2.3,197.2l0.9,1.8c1.1,2.1,3.5,4,6.1,4.8c1.3,0.4,6.3,0.5,17.8,0.6c15.4,0.1,16,0,17.7-0.9
			c3.5-1.8,5-4.4,5.3-9.1l0.3-3.3l27.3,0.3l27.4,0.3l0.2-15.9l0.2-15.9l-12.3-0.1l-12.3-0.1l0.2-9.1l0.2-9l7.8,0l7.7,0L894,743
			l0.1-11.3l-23-0.3l-23-0.3l2-157.1l2-157.1l3.8-1.1c31.6-9.1,56.4-34.4,65.8-67c3.6-12.5,4.9-27.1,3.5-39.9
			c-3.6-33.4-23-62.6-51.7-77.8c-10.5-5.6-22.2-8.9-34.8-10.1C832.9,220.4,831.6,220.4,825,220.8z M842,260.7
			c20.2,4.6,36.5,19.3,43.4,39.1c10,28.7-1.8,60.9-27.6,75.3c-23.7,13.2-53.2,7.9-70.9-12.8c-10.3-11.9-15.4-26.1-15.3-41.8
			c0.2-17,6.6-32.3,18.2-43.7c5.2-5.1,8.9-7.8,14.4-10.6c6.5-3.3,11.6-5,18.6-6C827,259.3,837.6,259.7,842,260.7z"/>
	</g>
</g>
</svg>
