<?xml version="1.0" encoding="utf-8"?>
<!-- Generator: Adobe Illustrator 22.1.0, SVG Export Plug-In . SVG Version: 6.00 Build 0)  -->
<svg version="1.1" id="Layer_1" xmlns="http://www.w3.org/2000/svg" xmlns:xlink="http://www.w3.org/1999/xlink" x="0px" y="0px"
	 viewBox="0 0 223.1 275.3" style="enable-background:new 0 0 223.1 275.3;" xml:space="preserve">
<style type="text/css">
	.st0{fill:none;stroke:#010101;stroke-width:4;stroke-linecap:round;stroke-linejoin:round;}
	.st1{fill:none;stroke:#010101;stroke-width:4;stroke-linejoin:round;}
</style>
<g>
	<path class="st0" d="M56.9,138.9c-3.9-8-3-17.1,1.8-20.5c4.9-3.3,12,0.4,15.8,8.3c3.9,8,3,17.1-1.8,20.5
		C67.9,150.6,60.8,146.9,56.9,138.9z"/>
	<path class="st0" d="M78.3,77.8c0-4.2,3.4-7.6,7.6-7.6c4.2,0,7.5,3.4,7.5,7.6c0,4.2-3.4,7.6-7.5,7.6C81.6,85.4,78.3,82,78.3,77.8z"
		/>
	<path class="st0" d="M120.3,77.8c0-4.2,3.4-7.6,7.6-7.6c4.2,0,7.5,3.4,7.5,7.6c0,4.2-3.4,7.6-7.5,7.6
		C123.7,85.4,120.3,82,120.3,77.8z"/>
	<path class="st0" d="M149.7,184.9c-1,2.4-9.4,6.6-11.9,6.3c-2.6-0.4-17.8-12.9-11.4-14c6.8-1.1,15.3-5.9,18.7-10
		C148.7,163.1,150.8,182.3,149.7,184.9z"/>
	<path class="st0" d="M144.4,126.8c3.9-8,11-11.7,15.8-8.3c4.9,3.3,5.7,12.5,1.8,20.5c-3.9,8-11,11.7-15.8,8.4
		C141.4,143.9,140.5,134.7,144.4,126.8z"/>
	<path class="st0" d="M220.1,147.3c0,24.7-8.2,47.5-22,65.8c-17,22.6-42.5,38.4-71.7,42.6c-5.2,0.8-10.5,1.1-15.8,1.1
		c-5.4,0-10.7-0.4-15.9-1.1c-29.3-4.2-54.8-20-71.7-42.6C9.2,194.8,1,172,1,147.3c0-28.7,11-54.9,29.1-74.4
		c-1.5,6.1-2.5,12.5-3,19.1c-10.5,11-16.6,24.3-16.6,38.5c0,38.4,44.3,69.5,99,69.5c54.7,0,99-31.1,99-69.5
		c0-14.3-6.1-27.5-16.6-38.5c-0.6-7.6-1.8-15-3.8-22.1C207.9,89.7,220.1,117.1,220.1,147.3z"/>
</g>
<g>
	<g>
		<path class="st0" d="M94.7,255.7c-4,15.5-20.4,17.6-40.1,17.6h-1c-0.4,0-0.8,0-1.3,0c-21.6-0.2-38.8-3.6-38.8-25.6
			c0-12.4,2.1-26.1,9.5-34.7C39.9,235.7,65.4,251.5,94.7,255.7z"/>
		<path class="st0" d="M86.5,260.6c1.6,6.1-3.3,8.3-9.5,10s-11.6,2.3-13.2-3.9c-1.6-6.1,2.1-12.5,8.4-14.1
			C78.4,250.8,84.9,254.4,86.5,260.6z"/>
		<path class="st0" d="M45.1,267.2c-1.6,6.1-7,5.5-13.2,3.9c-6.3-1.7-11.2-3.8-9.5-10c1.6-6.1,8.1-9.7,14.4-8
			C42.9,254.7,46.7,261.1,45.1,267.2z"/>
		<path class="st0" d="M65.3,266.2c0,6.3-5.3,7.2-11.8,7.2c-6.5,0-11.8-0.8-11.8-7.2c0-6.3,5.3-11.5,11.8-11.5
			C60.1,254.7,65.3,259.8,65.3,266.2z"/>
	</g>
	<path class="st0" d="M207.6,247.8c0,22.3-17.7,25.5-39.8,25.6c-0.4,0-0.8,0-1.2,0c-0.4,0-0.8,0-1.2,0c-19.2-0.1-35-2.5-39-17.6
		c29.3-4.2,54.8-20,71.7-42.6C205.5,221.6,207.6,235.4,207.6,247.8z"/>
	<g>
		<path class="st0" d="M199.5,260.6c1.6,6.1-3.3,8.3-9.5,10s-11.6,2.3-13.2-3.9c-1.6-6.1,2.1-12.5,8.4-14.1
			C191.4,250.8,197.9,254.4,199.5,260.6z"/>
		<path class="st0" d="M158.1,267.2c-1.6,6.1-7,5.5-13.2,3.9c-6.3-1.7-11.2-3.8-9.5-10c1.6-6.1,8.1-9.7,14.4-8
			C155.9,254.7,159.7,261.1,158.1,267.2z"/>
		<path class="st0" d="M178.3,266.2c0,6.3-5.3,7.2-11.8,7.2c-6.5,0-11.8-0.8-11.8-7.2c0-6.3,5.3-11.5,11.8-11.5
			C173.1,254.7,178.3,259.8,178.3,266.2z"/>
	</g>
</g>
<path class="st0" d="M191.9,92c-0.6-7.6-1.8-15-3.8-22.1c-1.7-6.2-3.9-12.2-6.6-17.8c6.4-4.8,10.7-13.3,10.7-23
	c0-15-10.2-27.1-22.8-27.1c-8.1,0-15.2,5.1-19.3,12.7C138.1,6.6,124.3,2,109.5,2C94.7,2,80.9,6.6,68.8,14.7C64.8,7.1,57.7,2,49.6,2
	C37,2,26.8,14.1,26.8,29.1c0,9.7,4.3,18.2,10.7,23c-3.1,6.5-5.6,13.5-7.4,20.8c-1.5,6.1-2.5,12.5-3,19.1
	c-10.5,11-16.6,24.3-16.6,38.5c0,38.4,44.3,69.5,99,69.5c54.7,0,99-31.1,99-69.5C208.5,116.3,202.4,103,191.9,92z M41.6,43
	c-3.6-2.7-6-7.5-6-12.9c0-8.4,5.8-15.3,12.8-15.3c4.6,0,8.6,2.9,10.8,7.1C52.3,27.6,46.3,34.7,41.6,43z M72.8,147.2
	c-4.9,3.3-12-0.4-15.8-8.4c-3.9-8-3-17.1,1.8-20.5c4.9-3.3,12,0.4,15.8,8.3C78.5,134.7,77.6,143.9,72.8,147.2z M85.8,85.4
	c-4.2,0-7.6-3.4-7.6-7.6c0-4.2,3.4-7.6,7.6-7.6c4.2,0,7.5,3.4,7.5,7.6C93.4,82,90,85.4,85.8,85.4z M120.3,77.8
	c0-4.2,3.4-7.6,7.6-7.6c4.2,0,7.5,3.4,7.5,7.6c0,4.2-3.4,7.6-7.5,7.6C123.7,85.4,120.3,82,120.3,77.8z M149.7,184.9
	c-1,2.4-9.4,6.6-11.9,6.3c-2.6-0.4-17.8-12.9-11.4-14c6.8-1.1,15.3-5.9,18.7-10C148.7,163.1,150.8,182.3,149.7,184.9z M162.1,138.9
	c-3.9,8-11,11.7-15.8,8.4c-4.9-3.4-5.7-12.5-1.8-20.5c3.9-8,11-11.7,15.8-8.3C165.1,121.8,165.9,130.9,162.1,138.9z M175.5,43
	c-4.7-8.3-10.7-15.5-17.7-21.1c2.3-4.3,6.3-7.1,10.8-7.1c7.1,0,12.9,6.8,12.9,15.3C181.5,35.5,179.1,40.3,175.5,43z"/>
<path class="st0" d="M59.3,21.9c-7,5.6-13,12.8-17.7,21.1c-3.6-2.7-6-7.5-6-12.9c0-8.4,5.8-15.3,12.8-15.3
	C53.1,14.8,57.1,17.7,59.3,21.9z"/>
<path class="st0" d="M74.6,126.8c3.9,8,3,17.1-1.8,20.5c-4.9,3.3-12-0.4-15.8-8.4c-3.9-8-3-17.1,1.8-20.5
	C63.7,115.1,70.7,118.8,74.6,126.8z"/>
<path class="st0" d="M93.4,77.8c0,4.2-3.4,7.6-7.5,7.6c-4.2,0-7.6-3.4-7.6-7.6c0-4.2,3.4-7.6,7.6-7.6C90,70.2,93.4,73.6,93.4,77.8z"
	/>
<path class="st0" d="M127.8,85.4c-4.2,0-7.6-3.4-7.6-7.6c0-4.2,3.4-7.6,7.6-7.6c4.2,0,7.5,3.4,7.5,7.6C135.4,82,132,85.4,127.8,85.4
	z"/>
<path class="st0" d="M149.7,184.9c-1,2.4-9.4,6.6-11.9,6.3c-2.6-0.4-17.8-12.9-11.4-14c6.8-1.1,15.3-5.9,18.7-10
	C148.7,163.1,150.8,182.3,149.7,184.9z"/>
<path class="st0" d="M162.1,138.9c-3.9,8-11,11.7-15.8,8.4c-4.9-3.4-5.7-12.5-1.8-20.5c3.9-8,11-11.7,15.8-8.3
	C165.1,121.8,165.9,130.9,162.1,138.9z"/>
<path class="st0" d="M181.5,30.1c0,5.4-2.4,10.2-6,12.9c-4.7-8.3-10.7-15.5-17.7-21.1c2.3-4.3,6.3-7.1,10.8-7.1
	C175.8,14.8,181.5,21.6,181.5,30.1z"/>
<g>
	<path class="st0" d="M162.1,138.9c-3.9,8-11,11.7-15.8,8.4c-4.9-3.4-5.7-12.5-1.8-20.5c3.9-8,11-11.7,15.8-8.3
		C165.1,121.8,165.9,130.9,162.1,138.9z"/>
	<path class="st0" d="M72.8,147.2c-4.9,3.3-12-0.4-15.8-8.4c-3.9-8-3-17.1,1.8-20.5c4.9-3.3,12,0.4,15.8,8.3
		C78.5,134.7,77.6,143.9,72.8,147.2z"/>
</g>
<g>
	<path class="st0" d="M181.5,30.1c0,5.4-2.4,10.2-6,12.9c-4.7-8.3-10.7-15.5-17.7-21.1c2.3-4.3,6.3-7.1,10.8-7.1
		C175.8,14.8,181.5,21.6,181.5,30.1z"/>
	<path class="st0" d="M59.3,21.9c-7,5.6-13,12.8-17.7,21.1c-3.6-2.7-6-7.5-6-12.9c0-8.4,5.8-15.3,12.8-15.3
		C53.1,14.8,57.1,17.7,59.3,21.9z"/>
</g>
<path class="st0" d="M135.4,77.8c0,4.2-3.4,7.6-7.5,7.6c-4.2,0-7.6-3.4-7.6-7.6c0-4.2,3.4-7.6,7.6-7.6
	C132,70.2,135.4,73.6,135.4,77.8z"/>
<path class="st0" d="M93.4,77.8c0,4.2-3.4,7.6-7.5,7.6c-4.2,0-7.6-3.4-7.6-7.6c0-4.2,3.4-7.6,7.6-7.6C90,70.2,93.4,73.6,93.4,77.8z"
	/>
<path class="st1" d="M149.7,184.9c-1,2.4-9.4,6.6-11.9,6.3c-2.6-0.4-17.8-12.9-11.4-14c6.8-1.1,15.3-5.9,18.7-10
	C148.7,163.1,150.8,182.3,149.7,184.9z"/>
</svg>
