<?xml version="1.0" encoding="utf-8"?>
<!-- Generator: Adobe Illustrator 22.1.0, SVG Export Plug-In . SVG Version: 6.00 Build 0)  -->
<svg version="1.1" id="Layer_1" xmlns="http://www.w3.org/2000/svg" xmlns:xlink="http://www.w3.org/1999/xlink" x="0px" y="0px"
	 viewBox="0 0 841.9 297.6" style="enable-background:new 0 0 841.9 297.6;" xml:space="preserve">
<path style="fill:#333333;" d="M152.6,61.1l5.3-7.1l-9.8-0.3c-12.4,0.1-24.3,2.6-35.7,7.4c-9.1,3.8-17.3,9-24.8,15.4l7.8,2.5
	C95.5,79,152.6,61.1,152.6,61.1z M66.1,118.3l-4.4-6.1L61,114v0.1c-4.4,11.4-6.5,23.3-6.3,35.7c0.2,12,2.5,23.5,7,34.5l3.5-4.7
	C65.2,179.5,66.1,118.3,66.1,118.3z M76.3,77.2l5-4.8c0.1,0,0.1,0,0.1-0.1c8.5-7.5,17.9-13.4,28.2-17.8v-0.1
	c12.2-5.1,25-7.8,38.4-7.9c4.2-0.1,8.5,0.1,12.8,0.5c8.8,1,17.3,3.1,25.6,6.2c5.1,2,10,4.4,14.7,7.1c7.1,4.2,13.7,9.1,19.6,14.9
	c9.9,9.7,17.5,20.9,22.8,33.6v-0.1c2.6,6.4,4.6,12.9,6,19.7c1.2,6,1.8,12.2,2,18.6c0.1,8.4-0.8,16.6-2.6,24.6
	c-1,4.7-2.5,9.4-4.3,13.9v0.1c-5,12.6-12.3,23.9-22,33.8c-6.8,6.9-14.3,12.8-22.5,17.6c-3.5,2-7,3.8-10.7,5.4
	c-10.3,4.2-20.9,6.8-31.9,7.7l-6.7,0.2c-13.4,0.2-26.2-2.1-38.5-6.9h-0.1C101.1,239.1,91,232.9,82,225h-0.1l-3.6-3.3
	c-9.7-9.4-17.2-20.3-22.4-32.7l-0.2-0.5v-0.2l-0.2-0.2c-5.1-12.1-7.7-24.8-8-38.2c-0.1-13.4,2.1-26.2,6.8-38.5v-0.1l1.8-4h-0.1
	C60.8,96.1,67.6,86.1,76.3,77.2L76.3,77.2z M153.5,125l11.8-35.9L151.1,69l-50,15.8l-0.4,24.4l29.9,23.2L153.5,125L153.5,125z
	 M195.4,84l-23.2,7.3l-12,36l13.9,19.5l37.9-0.8l14.7-19.7L195.4,84L195.4,84z M199.2,67.6l-0.2,9.6l35.9,48.2l7.1,2.4
	c-1.3-5.5-3-10.9-5.2-16.1v-0.1c-4.9-11.8-12-22.2-21.1-31.2C210.6,75.4,205.1,71.2,199.2,67.6L199.2,67.6z M73.2,122.2l-0.8,53.7
	l23.1,7.8l31-21.8l0.1-23.7l-30-23.3L73.2,122.2L73.2,122.2z M238,183.1h0.1c1.3-3.7,2.5-7.4,3.4-11l-7.6,2.4l-35.3,50.1l-0.1,5.3
	c6.9-4.3,13.2-9.4,18.9-15.2v-0.1C226.4,205.3,233.2,194.8,238,183.1z M211.9,153l-37.8,0.8L160.1,173l11.9,36.1l23.2,7.8l31-43.8
	L211.9,153L211.9,153z M93.3,219.7l-4.8,1.5c7.9,6.7,16.8,11.9,26.5,15.7c11.4,4.4,23.4,6.6,35.8,6.5l4.1-0.1l-3.2-4.6L93.3,219.7
	L93.3,219.7z M153.2,175.2l-22.6-7.5l-31,21.9l-0.3,24.6l51.1,16.7l14.8-19.7L153.2,175.2L153.2,175.2z"/>
</svg>
