<?xml version="1.0" encoding="utf-8"?>
<!-- Generator: Adobe Illustrator 22.1.0, SVG Export Plug-In . SVG Version: 6.00 Build 0)  -->
<svg version="1.1" id="Layer_1" xmlns="http://www.w3.org/2000/svg" xmlns:xlink="http://www.w3.org/1999/xlink" x="0px" y="0px"
	 viewBox="0 0 564.4 199.1" style="enable-background:new 0 0 564.4 199.1;" xml:space="preserve">
<path style="fill:#231F20;" d="M146.5,195.7c0,0,67.9,4.3,92.3,0.7c24.4-3.6-2.5-6-15.8-10.1c-13.2-4.1,51-6.7,73.6-8.7
	c22.6-1.9,72-9.6,72-9.6l8.9-0.4c0,0-70.2,11.3-85.9,11.8c-15.6,0.5-73.5,4.3-66.1,6.1c7.4,1.9,33.3,5.3,24.2,10.1
	C242.7,201.3,165.3,198.9,146.5,195.7"/>
<path style="fill:none;stroke:#231F20;stroke-miterlimit:10;" d="M213.4,163.6c-10.3-1.3-14,2.2-24.3,3.2
	c-16.1,3.2-30.9-6.4-46.9-3.9l-13.1-4.4l-1.5-9.1c-1.1-1.6-2.1-2.8-1.5-4.8c-3.2-2.1-3.1-4.9-0.6-7.3c1.8-2,1-3.4,3-5.2
	c4.6-2.9,13.7,0.1,8.8,5.9c1,1.5,4.6,1,3.4,4l0,14.7c2.9-0.4,7.5-1.3,10.3-1.5l-1.2-16.1l-4.1-0.9c1.3-3,5.1-6.1,6.4-8.7
	c-0.8-3.4-1.3-7.9-1.8-11.2c1.8-0.5,6.7-2.6,8.2-1.8c-0.1,0.6,0.8,3.5,1,4.3c7-7.6,11-5.5,20.5-5.5l19.9,0.9l20.2,17.8l-3.7,1.4
	c-0.4,1.2-0.3,24.8,0.1,26.2C216.6,161.8,215.2,163.8,213.4,163.6"/>
<path style="fill:none;stroke:#231F20;stroke-miterlimit:10;" d="M367.6,167.2c-3.5,2.4-6.7,4.4-10.3,6.9
	c-9.6,2.1-20.5-0.3-28.9,2.4c-2.3,1.3-4.7,0.7-6.8,0.3c-2.8-0.4-5-0.1-7.7,0.9c-5.1-1.4-10.7-4.8-15.7-6.6
	c-7.7,0.8-11.4-0.3-17.2,0.9v-1.2c3.7-0.9,7-1.9,9.7-3c3-1.5,8.4,2.3,12,1.6c4.6-0.8,8-5.6,13-5.6c-0.9-6.9,0-31.2,0.7-38.1
	l-1.6-0.6c-2.3-5.4,2.1-10.9,5.4-14.9c4.3-4.3,10.8-4.2,16-1.7c6,4.6,9.8,9,10.5,17.6l-2.7,0.6c0.5,7.4,0.9,23,1,30.6
	c2.7-0.2,6.7-2.6,9.3-2.7c0.5-4.6,0.2-14.8,0.9-19.4c-1-1.4-2.8-1.1-4.3-1.3c3.2-10.2,9.3-18.2,16.7-25.7l-0.1-0.2
	c1.8-1.8,38.3,5.8,41.7,6.4c8.5,3.4,15,16.1,15,24.6c-1.6,0.1-2.6,1.2-4.2,1c-0.2,5.7,0,9.1,0.3,14.7c12,2.8-34,3.2-26.4,5.8
	C358.4,158.6,377,166.4,367.6,167.2"/>
<path style="fill:#231F20;" d="M526.6,93.5c-7.8-2.2-6.1-6-9.7-10.2c-1.1,0-1.1,0-1.9,0.3c-2.8,14.1-30.7,10.3-34.8-1.1
	c-0.8,0-1.3,1.4-1.7,2c-4.9,2.9-8.6,0.7-11.1-2.8c-6,0-7.4-0.4-11.3-3.7c-7.4,0-17.6,7-22.6-2c-0.7-2.2-0.3-4-0.7-5.5
	c-7.3,0-7.3-2.1-13.4,2c-7.5,1.4-11.9,1.4-17.7-2.4c-4.3-3.9-3.9-1.3-8.5,1c-6.4,1.6-14.1,1.4-19-2.3h-0.6
	c-4.8,4.8-8.4,0.6-10.6,1.7c-2.7,3.4-6.6,0.8-9.2,0.8c-4.8,5.6-14.1,6.3-16.9-0.9c-2.9,0-4,1.9-6.9-0.6c-5.2,0-5.7,1.6-8.5-4.2
	c-2.6,0-7.9,4.3-10.2,2c-21.4-5.6-6.6-30.9,6.6-24.3c0.2,0.3,0.5,0.3,1,0.3c2.3-3.2,3.3-1.4,6-1.9c0.7-6.1,8.4-9.8,12.9-4.6
	c0.6,0,3.7-6.4,4.7-7.6c5.2-3.9,11.5-2.8,16.4,1.7c0.1,0.2,4.2,6.1,1.5,6.1c-3.2-3.9-1.6-6.1-7.3-8c-10.9-1-10.9,2.3-12.5,11.5
	c-3,1.8-4.7-8-12.3-2.5c-0.5,0.7-2.6,11.9-4.8,5.3c-4.7,0-0.8,2.8-4,3.3c-4.2-6.9-13.4-0.7-15.9,4.4c-1.7,8.5,2.9,14.7,13.2,13.7
	c0.9-0.3,3.1-1.4,4.7-1.2c0.3,0.7,0.3,0.8,1.7,1c1.5,6,4.4,1.9,7.3,1.9c5.8,6.7,4.7-2.7,6.6-2.7c1.7,2.9,0.1,5.3,3.6,8.3
	c5.1,1.9,10.7,1.6,12.4-4.6c2.9-0.2,5.3,5.5,10.1-0.6c2.8,0,6,4.5,10-1.1h0.7c8.4,5.5,16,5.3,24.6-1h0.8c4.2,6.5,16.9,7.6,23.4,3.4
	c1.3-1.1,2.1-2,3.7-2.6c0,0.7,0,1.3,0.1,2.1c4.4,1.2,5.6-2.5,10-0.7c2.4,3.5,12-1.3,14.6-1.9c0,6.4-13.2,3.8-15.9,3.8
	c-1.9,7.5,4.5,12,11.6,8.2c0-1.3-1.5-2-1.5-3.2c0.7-0.7,5.7,5.5,10.4,0.8h0.8c2,2.9,5.5,6.2,10.3,3.8c0.4-2.1,0.5-3.2,1.7-4.7
	c1.1,4-1.7,7,3.8,9.2c3.9,0,5.7-0.4,6.9-4.2c0.6-0.1,1.2-0.1,1.8-0.1c4.3,7.5,4,7.6,14.2,10.3c4.2,0.6,18.6,0.7,18.2-6.9
	c-2.4-1-4.6-4.8-1.7-4.8c1.2,2,0.2,3.4,4.2,3.4c1.8-0.5,2.1-0.7,3.3,1.4c2,0,2.5,0.2,3.8-1.6c0.8,0,1,0.7,1,1.9
	c-2.9,2.9-6,0.3-2.3,6c5.1,3.9,9.8,3,14.6-1.9h0.3c3.3,4.3,11.2,5.8,15.5,0.5c-0.8-1.5-1.7-2.7,0.2-2.7c2.9,2.1,8.8,1.8,12.2-0.2V87
	c-6.2,1.9-8.8-0.4-13.3,4c-3.6,2.4-8.5,2-12.1,1.3C534.6,88.6,532.1,93.5,526.6,93.5"/>
<path style="fill:none;stroke:#231F20;stroke-miterlimit:10;" d="M421.1,137.2c-4.9,0.3-9.5,0.2-14.4,0.7l-18.9,1.2
	c-1.1,0-1.9-0.4-2.9-0.8c-0.4-1.5,3.6-1.8,4.5-1.8c6.4,0.3,12.3,0.5,18.7-0.1l-0.1,0.2l12-1.2l0.1,0.2c0.7,0,1.7,0.4,1.7,1.2
	C421.6,136.9,421.4,137,421.1,137.2"/>
<path style="fill:none;stroke:#231F20;stroke-miterlimit:10;" d="M415.3,133c-9,1.3-18.2,0.3-27.2,2c-1.3-0.2-3.3,0.3-3.3-1.6
	c5.5-1.7,9.6-2.6,15.5-2.3l18.3,0.8C418.3,133.1,416.1,133,415.3,133"/>
<path style="fill:none;stroke:#231F20;stroke-miterlimit:10;" d="M417,129.4c-10-1.2-20-1.1-30,0c-1.1-0.2-2,0.1-2.8-0.7
	c0.6-4.8,28.9-1.7,33-0.4l0.4,0.3l-0.1,0.9L417,129.4"/>
<path style="fill:none;stroke:#231F20;stroke-miterlimit:10;" d="M412.1,124.5c-5.4,0-10.5-1.2-16.1-0.8c-3.9,0-9.6,1.4-13.1,0.7
	c-0.5-0.2-1-0.5-1.4-0.9c1.6-3.8,22.3-2.1,25.7-1.7l9,3C414.5,125.5,413.7,124.8,412.1,124.5"/>
<path style="fill:none;stroke:#231F20;stroke-miterlimit:10;" d="M411.4,120.6c-7.5-1.1-15.3-2.3-22.8-1.6l-10.3-0.3
	c1.2-4.2,26.8-1,30.3-0.3c1.3,0.3,2.7,0.4,3.3,1.7L411.4,120.6"/>
<path style="fill:none;stroke:#231F20;stroke-miterlimit:10;" d="M394.7,114.2l-0.2-0.1l-0.4,0.1h-0.3l-0.3-0.2l-0.1,0.1l-0.1-0.1
	L393,114l-0.2,0.1l-0.2,0.1l-1-0.1l-1.9-0.1c-2.1,0-4.2,0-6.3,0.2c-4.2,0.1-5.7,1.6-9.5-0.4v-0.3l0.1-0.3l0.3-0.1l0.4-0.1l1.3-0.2
	c2.3-0.3,4.6-0.5,6.9-0.4c4.6,0,9.1,0.5,13.6,1.4l0.1,0.4l-0.4,0.1l-0.4,0l-0.4,0.1L394.7,114.2"/>
<path style="fill:#FFFFFF;" d="M394.7,150.1c-1.1,0.4-2.5,0.3-3.7,0.5l-0.1-0.7l-0.1-0.7l-0.1-0.7l0.1-0.7c1.3,0.1,2.6,0.3,3.9,0
	l0.1,0.6v0.6v0.6L394.7,150.1"/>
<path style="fill:none;stroke:#231F20;stroke-miterlimit:10;" d="M372.6,134l-4.3-0.1l0.2-3.6c1.4,0,2.4,0.2,3.9-0.1L372.6,134"/>
<path style="fill:none;stroke:#231F20;stroke-miterlimit:10;" d="M372.5,128.4c-1.1-0.3-2.7-0.4-3.9-0.4l0.1-4.1
	C372.9,125,372.1,123.8,372.5,128.4"/>
<path style="fill:none;stroke:#231F20;stroke-miterlimit:10;" d="M367,127.8l-3.1,0.1l0.4-3.5c1.2-0.5,1.9,0.1,2.9-0.1
	C367.5,124.9,367.1,127,367,127.8"/>
<path style="fill:none;stroke:#231F20;stroke-miterlimit:10;" d="M366.9,133.7c-0.9,0-2.3-0.2-3.2-0.4c-0.4-1.3,0.2-2.1,0.1-3.5
	l3,0.2C366.8,131.2,366.8,132.5,366.9,133.7"/>
<path style="fill:none;stroke:#231F20;stroke-miterlimit:10;" d="M252.5,158.5c-1.6,0-3.5,0.2-3.5-1.9c0.8-0.5,2.8-0.4,3.6,0
	l0.6,0.2l0.5,0.4l0.1,0.6l-0.3,0.4l-0.4,0.2L252.5,158.5"/>
<path style="fill:none;stroke:#231F20;stroke-miterlimit:10;" d="M232.9,145.7L232.9,145.7l-0.2,0.1v-0.1H232.9"/>
<path style="fill:none;stroke:#231F20;stroke-miterlimit:10;" d="M229,149.7l-0.6-0.2l-0.4-0.4l-0.2-0.4l-0.1-0.5
	c1.8-1.6,2.1-1,2.9,1l-0.3,0.3l-0.4,0.1l-0.4,0.1L229,149.7"/>
<path style="fill:none;stroke:#231F20;stroke-miterlimit:10;" d="M229,123.4l-0.2,0.5l-0.4,0.4l-0.4,0.3l-0.4,0.4
	c-1.7-0.7-0.9-1.5-3.5-2.8c-1-0.8-3.2-1.8-4.5-1.9c2.2-2.1,5.9-0.7,7.7,1.3l2.3-1.3l0.7-0.1l0.8-0.1l0.7-0.1l0.7-0.2l0.7-0.1
	l0.7-0.1l0.7,0.1l0.7,0.2C233.3,121,231.2,122.2,229,123.4"/>
<path style="fill:none;stroke:#231F20;stroke-miterlimit:10;" d="M202.8,134.4c-0.2-1.3,0.1-1.3,0-2.1c1-0.4,1.6,0.1,2.6,0.3
	l0.2,1.5C204.6,134.5,203.7,134.3,202.8,134.4"/>
<path style="fill:none;stroke:#231F20;stroke-miterlimit:10;" d="M203,130.7l-0.1-2c1,0,1.7,0.2,2.5,0.7l-0.1,1L203,130.7"/>
<path style="fill:none;stroke:#231F20;stroke-miterlimit:10;" d="M204.4,146l-0.6-0.1l-0.6,0.1l-0.7,0.1l-0.7,0.1h-0.6l-0.5-0.1
	l-0.4-0.4l-0.2-0.7l-0.1-2.6l0.3-0.3l0.4-0.1l0.4-0.1c0.7,0,1.4,0.2,2.1,0.1l0.1-0.2l0.3,0l0.3,0.1l0.3,0.1l0.1,0.8l0.1,0.8l0.1,0.9
	l0.1,0.9L204.4,146"/>
<path style="fill:none;stroke:#231F20;stroke-miterlimit:10;" d="M197.8,134.4l-0.1-0.4v-0.5l0.1-0.4l0.1-0.3
	c1.1-0.4,2.3-0.1,3.4-0.1l0.1,0.4l0.1,0.4l0.1,0.4l0.1,0.5C200.4,134.7,198.9,135.4,197.8,134.4"/>
<path style="fill:none;stroke:#231F20;stroke-miterlimit:10;" d="M174.3,162.2c-1.5-2.2,3.3-1.5,2.4,0.5l0.2,0.1
	C176,163.5,175.2,162.4,174.3,162.2"/>
<path style="fill:none;stroke:#231F20;stroke-miterlimit:10;" d="M167.6,162.3c-2.1,0.2-3.8,0.1-2.7-2.6c0.8,0,1.6-0.1,2.4,0.3
	l0.3,0.1l0.2,0.3l0.2,0.5l0.1,0.5l-0.1,0.4L167.6,162.3"/>
<path style="fill:none;stroke:#231F20;stroke-miterlimit:10;" d="M164.3,147.8c-1.2,0-2.3,0.3-3.5,0.4l-0.1-2.6
	c0.9-0.2,2.3-0.3,3.2-0.7l0.1,0.7l0.1,0.7l0.1,0.7L164.3,147.8"/>
<path style="fill:none;stroke:#231F20;stroke-miterlimit:10;" d="M159.1,161.7c-0.8-0.4-2.1-0.3-1.5-1.8l0.3-0.7l0.4-0.4l0.6-0.4
	l0.3-0.1l0.3,0.1l0.2,0.1l0.3-0.2l0.5,0.2l0.5,0.4l0.4,0.3l0.4,0.4C161.4,161.2,160.2,161.1,159.1,161.7"/>
<path style="fill:none;stroke:#231F20;stroke-miterlimit:10;" d="M157.5,148l-0.1-0.5l-0.1-0.6l-0.1-0.5v-0.6h0.4l0.4-0.1h0.4l0.4,0
	l0.1,0.5l0,0.7l-0.1,0.6l0.1,0.6L157.5,148"/>
<path style="fill:none;stroke:#231F20;stroke-miterlimit:10;" d="M156.9,143.9l0-2.6c1.5,0.6,2.5-0.8,1.9,2.4L156.9,143.9"/>
<path style="fill:none;stroke:#231F20;stroke-miterlimit:10;" d="M135,143.8l-0.2,0.1l-0.2,0.1h-0.2l-0.2-0.1l-0.4-0.9l0.1-0.9
	l0.7-1.6l0.3-0.1l0.2,0.1l0.2,0.2l0.2,0.1l0.1,0.7l-0.1,0.7l-0.2,0.8L135,143.8"/>
<path style="fill:none;stroke:#231F20;stroke-miterlimit:10;" d="M133.5,138.3l-0.4,0.1l-0.3-0.1l-0.3-0.2l-0.4-0.1l-0.3-0.7v-0.8
	l0.2-0.7l0.4-0.7l0.2-0.1h0.2l0.2,0.1l0.2,0.1l0.5,0.7l0.2,1l-0.1,0.9L133.5,138.3"/>
<path style="fill:none;stroke:#231F20;stroke-miterlimit:10;" d="M136.7,148.8l-0.4,0.1l-0.3-0.1l-0.3-0.2l-0.4-0.1l-0.3-0.7v-0.8
	l0.2-0.7l0.4-0.7l0.2-0.1h0.2l0.2,0.1l0.2,0.1l0.5,0.7l0.2,1l-0.1,0.9L136.7,148.8"/>
<path style="fill:none;stroke:#231F20;stroke-miterlimit:10;" d="M131,144.9l-0.5-0.1l-0.3-0.4l-0.3-0.4l-0.1-0.4l0.1-0.3l0.2-0.3
	l0.2-0.2l0.4,0.1l0.4,0.1l0.3,0.3l0.2,0.3l0.1,0.4l-0.1,0.3l-0.1,0.3l-0.2,0.2L131,144.9"/>
<path style="fill:none;stroke:#231F20;stroke-miterlimit:10;" d="M130.1,140.8l-0.7-0.1l-0.6-0.3l-0.4-0.4l-0.3-0.6v-0.3l0.1-0.2
	l0.1-0.2l0.1-0.3l0.2-0.1l0.2-0.1h0.3h0.3l0.6,0.5l0.5,0.7l0.1,0.7L130.1,140.8"/>
<path style="fill:none;stroke:#231F20;stroke-miterlimit:10;" d="M435.5,163.5l0.5-0.4l-0.2-2.7l-14.5,0.4l-4.8,0.6l-0.2,0.8
	l0.4,2.2l7-0.3L435.5,163.5L435.5,163.5z"/>
<path style="fill:none;stroke:#231F20;stroke-miterlimit:10;" d="M435.5,163.5l0.5-0.4l-0.2-2.7l-14.5,0.4l-4.8,0.6l-0.2,0.8
	l0.4,2.2l7-0.3L435.5,163.5L435.5,163.5z"/>
<path style="fill:none;stroke:#231F20;stroke-miterlimit:10;" d="M411.6,163.4l0.1-1.1l-0.1-0.9l-0.6-0.3l-3.8,0l-6.1,0.4l-3.6,0.1
	l-1.5-0.3l-0.7,0.4l-1.2,0l-0.5,0.7l-0.3,0.8l-0.4,1.6l18.4-0.2L411.6,163.4L411.6,163.4z"/>
<path style="fill:none;stroke:#231F20;stroke-miterlimit:10;" d="M411.6,163.4l0.1-1.1l-0.1-0.9l-0.6-0.3l-3.8,0l-6.1,0.4l-3.6,0.1
	l-1.5-0.3l-0.7,0.4l-1.2,0l-0.5,0.7l-0.3,0.8l-0.4,1.6l18.4-0.2L411.6,163.4L411.6,163.4z"/>
<path style="fill:none;stroke:#231F20;stroke-miterlimit:10;" d="M503.2,133.3c0.7-3.7,1.1-5.9-1.8-8.6c0.1-2.2-1.2-4.3-3.5-3.1
	c-0.4-1.4,0.6-3.4-1.8-5.2c-3.1-1.2-3-1.2-5.3,0c-0.5-2.2-2-8-6.5-4.1l-0.3,1c-1.6-0.1-1.1,0-1.6-1.5c-1.1-12.3-17.9-6.9-14.5-0.5
	l0.1,0.6l-1,0.3c-2.2-1.8-4.2-0.2-4.1,2.3c0.2,0.8,0.7,1.7,0.2,2.4c-0.7,0.1-1.9-0.1-2.7,0c-2.3,2.7-0.2,5.5-1.8,7.9
	c-1.3,0-1-0.1-1.8-1.2c-3.9-1.6-5.6,3.7-5.8,6.7c-8.5,0.5-5.4,8.4-0.1,12.1c-1.2,2.8-2.5,4-0.6,6.4c2,0.9,2.5,0.7,4.1-0.7l5.6,0.1
	l-2.3-2.9l1.2-0.4l2.8,2.8l-2.7-7.6l0.6,0l3.1,5.3c1.5-3.5,5.2-5.3,1.3-9.4l0.1-0.9l1.6,1.8l0.6-0.4l-0.7-5.7
	c-1.5-1.1-2.4-1.4-2-3.3l0.8,0.1c1.3,2.4,1.7,2.6,4.5,2.8l0.8,1c-0.4,1.6-0.9,2.4,0.7,3.7l0.5-0.7l1.1,0.5l1.1,3.9
	c1.5,0.2,3.1,1,4.1-0.3l-1.3-2.2l0.8-0.1c2.1,1.7,2.7,1.2,5.3,1.2c1.4,2.8,1.6,3.1,4.7,2.5c-1.1,1.2-2.8,0.5-4.3,0.2l-0.9-1.6
	c-3.4,0.9-4.2,2.7-2,5.4c2.7,0.2,2.9-1.4,6.1,0.1c3.9,0.7,5.7-1.5,9.4,1.2c4.5,0.2,5.1-2.3,4.4-6.2
	C502.2,136.7,502.1,136.7,503.2,133.3L503.2,133.3z"/>
<path style="fill:none;stroke:#231F20;stroke-miterlimit:10;" d="M447.7,171.8l-0.4,0.6l-0.7-0.3l0.4-0.6l0.9-0.3L447.7,171.8
	L447.7,171.8z"/>
<path style="fill:none;stroke:#231F20;stroke-miterlimit:10;" d="M447.7,171.8l-0.4,0.6l-0.7-0.3l0.4-0.6l0.9-0.3L447.7,171.8
	L447.7,171.8z"/>
<path style="fill:none;stroke:#231F20;stroke-miterlimit:10;" d="M470.2,171.1l0.2,0.2l0,0.3l-0.3,0l-0.2,0l0-0.2l-0.2-0.1l0.2-0.1
	l0-0.2l0.2,0.1L470.2,171.1L470.2,171.1z"/>
<path style="fill:none;stroke:#231F20;stroke-miterlimit:10;" d="M470.2,171.1l0.2,0.2l0,0.3l-0.3,0l-0.2,0l0-0.2l-0.2-0.1l0.2-0.1
	l0-0.2l0.2,0.1L470.2,171.1L470.2,171.1z"/>
<path style="fill:none;stroke:#231F20;stroke-miterlimit:10;" d="M472.4,172.6l-0.6-0.3l-0.2-0.5l0.5-0.5l0.6,0.1l0.4,0.5l0,0.7
	L472.4,172.6L472.4,172.6z"/>
<path style="fill:none;stroke:#231F20;stroke-miterlimit:10;" d="M472.4,172.6l-0.6-0.3l-0.2-0.5l0.5-0.5l0.6,0.1l0.4,0.5l0,0.7
	L472.4,172.6L472.4,172.6z"/>
<path style="fill:none;stroke:#231F20;stroke-miterlimit:10;" d="M484.4,172.1l-0.1-0.1l-0.2,0l0.9-0.9l1-0.2l0.2,0.3l-0.3,0.4
	l-0.5,0.4l-0.5,0.3l-0.3,0L484.4,172.1L484.4,172.1z"/>
<path style="fill:none;stroke:#231F20;stroke-miterlimit:10;" d="M484.4,172.1l-0.1-0.1l-0.2,0l0.9-0.9l1-0.2l0.2,0.3l-0.3,0.4
	l-0.5,0.4l-0.5,0.3l-0.3,0L484.4,172.1L484.4,172.1z"/>
<path style="fill:none;stroke:#231F20;stroke-miterlimit:10;" d="M487.3,172.2l-0.2-0.3l0-0.4l0.6-0.3l0.6,0.1l0,0.4l-0.4,0.4
	l-0.3,0L487.3,172.2L487.3,172.2z"/>
<path style="fill:none;stroke:#231F20;stroke-miterlimit:10;" d="M487.3,172.2l-0.2-0.3l0-0.4l0.6-0.3l0.6,0.1l0,0.4l-0.4,0.4
	l-0.3,0L487.3,172.2L487.3,172.2z"/>
<path style="fill:none;stroke:#231F20;stroke-miterlimit:10;" d="M493.8,172.1l-0.4-0.6l0.1-0.7l0.3-0.1l0.3,0.1l0.2,0.3l0.2,0.4
	l-0.1,0.5L493.8,172.1z"/>
<path style="fill:none;stroke:#231F20;stroke-miterlimit:10;" d="M493.8,172.1l-0.4-0.6l0.1-0.7l0.3-0.1l0.3,0.1l0.2,0.3l0.2,0.4
	l-0.1,0.5L493.8,172.1z"/>
<path style="fill:#231F20;" d="M492,137.5l-0.3,0.7l-2.2,0.8l-0.7-0.1l-1-0.8l-0.8-1.1l-0.2-0.7l0.2-0.6l0.7,0l0.8,0.6l0.7,1.9
	L492,137.5L492,137.5z"/>
<path style="fill:none;stroke:#231F20;stroke-width:0.214;stroke-linejoin:bevel;stroke-miterlimit:2.613;" d="M492,137.5l-0.3,0.7
	l-2.2,0.8l-0.7-0.1l-1-0.8l-0.8-1.1l-0.2-0.7l0.2-0.6l0.7,0l0.8,0.6l0.7,1.9L492,137.5L492,137.5z"/>
<path style="fill:#231F20;" d="M484,125.2l-1.1,0.1l-0.5-0.8l-0.1-1l-0.1-1.1l-0.7-0.8l-1.2,0.2l-1.2,1.1l-1,0l-0.7-0.9l-0.8-2
	l-0.7-0.6l-1.5-0.1l-1.5,0.5l-1.3,1l-1.1,1.3l-0.5,0c1.4-4.1,7.6-5.6,9.5-0.7l0.8-0.4l1.4-0.1l1.3,0.5l0.8,1.1l0.2,1.6l1.5-0.7
	l0.9,0.2l1.6,1.4l-1.8-0.8l-1.3,0.3L484,125.2L484,125.2z"/>
<path style="fill:none;stroke:#231F20;stroke-width:0.214;stroke-linejoin:bevel;stroke-miterlimit:2.613;" d="M484,125.2l-1.1,0.1
	l-0.5-0.8l-0.1-1l-0.1-1.1l-0.7-0.8l-1.2,0.2l-1.2,1.1l-1,0l-0.7-0.9l-0.8-2l-0.7-0.6l-1.5-0.1l-1.5,0.5l-1.3,1l-1.1,1.3l-0.5,0
	c1.4-4.1,7.6-5.6,9.5-0.7l0.8-0.4l1.4-0.1l1.3,0.5l0.8,1.1l0.2,1.6l1.5-0.7l0.9,0.2l1.6,1.4l-1.8-0.8l-1.3,0.3L484,125.2L484,125.2z
	"/>
<path style="fill:none;stroke:#231F20;stroke-miterlimit:10;" d="M470.9,145.1l-0.1-0.5l-0.2-2.4l0.6-2.7l-0.3-0.2l-1.2,1.9
	l-1.2-2.6l-1-1.1l-0.3,0.5l2,4.1l0.9,3.2l-0.1,0.8l0.3,1.8l1.3,1.6l2.8,5.1l0.5,1.9l2.7,0.2l0.5-0.7l0.3-0.7l0.3-1.7l0.4-0.8
	l0.7,0.4l0.6-0.1l0.5-1l2.1-1.8l2.6-2.4l1.4-2.7l-2.1-0.3l-1,1.9l-1.1,1.7l-2.3,1.9l-2.6,1.4l-0.5-0.5L477,149l0.2-3.7l0.6-2.2
	l-0.7-0.7l-0.6-1.4l-0.8,3.8l-0.2,2l-0.5,1.9l-1.4-0.2l-1.2-0.8l-0.9-1.2L470.9,145.1L470.9,145.1z"/>
<path style="fill:none;stroke:#231F20;stroke-miterlimit:10;" d="M470.9,145.1l-0.1-0.5l-0.2-2.4l0.6-2.7l-0.3-0.2l-1.2,1.9
	l-1.2-2.6l-1-1.1l-0.3,0.5l2,4.1l0.9,3.2l-0.1,0.8l0.3,1.8l1.3,1.6l2.8,5.1l0.5,1.9l2.7,0.2l0.5-0.7l0.3-0.7l0.3-1.7l0.4-0.8
	l0.7,0.4l0.6-0.1l0.5-1l2.1-1.8l2.6-2.4l1.4-2.7l-2.1-0.3l-1,1.9l-1.1,1.7l-2.3,1.9l-2.6,1.4l-0.5-0.5L477,149l0.2-3.7l0.6-2.2
	l-0.7-0.7l-0.6-1.4l-0.8,3.8l-0.2,2l-0.5,1.9l-1.4-0.2l-1.2-0.8l-0.9-1.2L470.9,145.1L470.9,145.1z"/>
<path style="fill:none;stroke:#231F20;stroke-miterlimit:10;" d="M497.3,163.7l0.5,0.8l-0.1,1l0,3.3l0.9,2.9l1,0.2l1.1-0.1l1-0.4
	l-0.4-1.9l-0.7-1.9l-0.1-2.3l0-2.4l-0.4-1.4l-0.3-1.4l0.3-0.8l-0.5-4.5l-0.5-1.4l-2.2,0l-0.3,0.3L497.3,163.7L497.3,163.7z"/>
<path style="fill:none;stroke:#231F20;stroke-miterlimit:10;" d="M497.3,163.7l0.5,0.8l-0.1,1l0,3.3l0.9,2.9l1,0.2l1.1-0.1l1-0.4
	l-0.4-1.9l-0.7-1.9l-0.1-2.3l0-2.4l-0.4-1.4l-0.3-1.4l0.3-0.8l-0.5-4.5l-0.5-1.4l-2.2,0l-0.3,0.3L497.3,163.7L497.3,163.7z"/>
<path style="fill:none;stroke:#231F20;stroke-miterlimit:10;" d="M491.9,159.1l1.4,0.1l3.3-0.1l-0.1-2.3l-3.8-0.1l-3.4,0l-6.2,0.4
	l-0.5,2.4l3.9,0L491.9,159.1L491.9,159.1z"/>
<path style="fill:none;stroke:#231F20;stroke-miterlimit:10;" d="M491.9,159.1l1.4,0.1l3.3-0.1l-0.1-2.3l-3.8-0.1l-3.4,0l-6.2,0.4
	l-0.5,2.4l3.9,0L491.9,159.1L491.9,159.1z"/>
<path style="fill:none;stroke:#231F20;stroke-miterlimit:10;" d="M496.3,167.2l0.4-2.7l-6.4,0.1l-5.7-0.1l-2.7,0.4l-0.1,2.2l5.8,0.1
	l3.4-0.1L496.3,167.2z"/>
<path style="fill:none;stroke:#231F20;stroke-miterlimit:10;" d="M496.3,167.2l0.4-2.7l-6.4,0.1l-5.7-0.1l-2.7,0.4l-0.1,2.2l5.8,0.1
	l3.4-0.1L496.3,167.2z"/>
<path style="fill:none;stroke:#231F20;stroke-miterlimit:10;" d="M477.5,171.1l1.4,0.4l1.3-0.3l0.9-16l0.6-1.2l-1.7-0.2l-0.9,1.3
	l-0.2,4.3l-0.5,7.3L477.5,171.1z"/>
<path style="fill:none;stroke:#231F20;stroke-miterlimit:10;" d="M477.5,171.1l1.4,0.4l1.3-0.3l0.9-16l0.6-1.2l-1.7-0.2l-0.9,1.3
	l-0.2,4.3l-0.5,7.3L477.5,171.1z"/>
<path style="fill:none;stroke:#231F20;stroke-miterlimit:10;" d="M477.9,163.6l-0.3-2.5l-1.8,0l0.4,2.5L477.9,163.6L477.9,163.6z"/>
<path style="fill:none;stroke:#231F20;stroke-miterlimit:10;" d="M477.9,163.6l-0.3-2.5l-1.8,0l0.4,2.5L477.9,163.6L477.9,163.6z"/>
<path style="fill:none;stroke:#231F20;stroke-miterlimit:10;" d="M478,159.2l0-1.9l-10.8-0.1l-2.4-0.2l-0.2,0l-2.1-0.2l-0.5,0.4
	l0,1.6l0.3,0.3l11.5,0.5L478,159.2L478,159.2z"/>
<path style="fill:none;stroke:#231F20;stroke-miterlimit:10;" d="M478,159.2l0-1.9l-10.8-0.1l-2.4-0.2l-0.2,0l-2.1-0.2l-0.5,0.4
	l0,1.6l0.3,0.3l11.5,0.5L478,159.2L478,159.2z"/>
<path style="fill:none;stroke:#231F20;stroke-miterlimit:10;" d="M477.4,167.2l0.1-2.3l-1.3-0.3l-2.6,0l-6.8-0.3l-3.7,0.2l0.1,2.4
	l3.1,0.2L477.4,167.2L477.4,167.2z"/>
<path style="fill:none;stroke:#231F20;stroke-miterlimit:10;" d="M477.4,167.2l0.1-2.3l-1.3-0.3l-2.6,0l-6.8-0.3l-3.7,0.2l0.1,2.4
	l3.1,0.2L477.4,167.2L477.4,167.2z"/>
<path style="fill:none;stroke:#231F20;stroke-miterlimit:10;" d="M461.6,166.1l-0.8-9.4l-0.7-0.8l0.1-2.1l-1.4-0.8l-0.2,0l0.5,5.6
	l0.7,0.5l0,2.9l0.3,2.9l0.4,2.8l0.4,3.2l2,0.3L461.6,166.1z"/>
<path style="fill:none;stroke:#231F20;stroke-miterlimit:10;" d="M461.6,166.1l-0.8-9.4l-0.7-0.8l0.1-2.1l-1.4-0.8l-0.2,0l0.5,5.6
	l0.7,0.5l0,2.9l0.3,2.9l0.4,2.8l0.4,3.2l2,0.3L461.6,166.1z"/>
<path style="fill:none;stroke:#231F20;stroke-miterlimit:10;" d="M459.4,166.6l-0.1-1.5l-0.6-0.7l-3.1-0.2l-3.5,0.2l-11.5,0.4
	l-0.1,1l0.4,1.2l0.1,0.1l0.7-0.4l8.5,0.1l8.7,0.2L459.4,166.6z"/>
<path style="fill:none;stroke:#231F20;stroke-miterlimit:10;" d="M459.4,166.6l-0.1-1.5l-0.6-0.7l-3.1-0.2l-3.5,0.2l-11.5,0.4
	l-0.1,1l0.4,1.2l0.1,0.1l0.7-0.4l8.5,0.1l8.7,0.2L459.4,166.6z"/>
<path style="fill:none;stroke:#231F20;stroke-miterlimit:10;" d="M458,158.7l0.1-1l-0.3-0.6l-2.8-0.4l-8.8-0.3l-5.9,0.2l0.3,2.4
	l10.5-0.2l5.9,0.2L458,158.7L458,158.7z"/>
<path style="fill:none;stroke:#231F20;stroke-miterlimit:10;" d="M458,158.7l0.1-1l-0.3-0.6l-2.8-0.4l-8.8-0.3l-5.9,0.2l0.3,2.4
	l10.5-0.2l5.9,0.2L458,158.7L458,158.7z"/>
<path style="fill:none;stroke:#231F20;stroke-miterlimit:10;" d="M435.8,158.4l0.5-1L436,156l-13.6,0.2l-5.9,0.4l-0.3,0.5l0,1.3
	l0.4,1l7.4-0.2L435.8,158.4L435.8,158.4z"/>
<path style="fill:none;stroke:#231F20;stroke-miterlimit:10;" d="M435.8,158.4l0.5-1L436,156l-13.6,0.2l-5.9,0.4l-0.3,0.5l0,1.3
	l0.4,1l7.4-0.2L435.8,158.4L435.8,158.4z"/>
<path style="fill:none;stroke:#231F20;stroke-miterlimit:10;" d="M436.9,165.4l-0.5,4.7l0.2,1.4l1.5,0.1l1-0.9l0.1-1l-0.3-1.9
	l-0.3-1.6l0.1-6.4l0.1-6.6l-1.1,0.5l-0.4-0.8l-0.7,0.4l0.5,1.6l-0.3,5.6L436.9,165.4z"/>
<path style="fill:none;stroke:#231F20;stroke-miterlimit:10;" d="M436.9,165.4l-0.5,4.7l0.2,1.4l1.5,0.1l1-0.9l0.1-1l-0.3-1.9
	l-0.3-1.6l0.1-6.4l0.1-6.6l-1.1,0.5l-0.4-0.8l-0.7,0.4l0.5,1.6l-0.3,5.6L436.9,165.4z"/>
<path style="fill:none;stroke:#231F20;stroke-miterlimit:10;" d="M435.6,166.9l0.2-0.3l-0.1-1.9l-8.3-0.1l-9,0.5l-1.3,0.1l-0.4,0.4
	l-0.2,1.1l-0.1,0.9l1.5,0.3l14.7-0.5L435.6,166.9L435.6,166.9z"/>
<path style="fill:none;stroke:#231F20;stroke-miterlimit:10;" d="M435.6,166.9l0.2-0.3l-0.1-1.9l-8.3-0.1l-9,0.5l-1.3,0.1l-0.4,0.4
	l-0.2,1.1l-0.1,0.9l1.5,0.3l14.7-0.5L435.6,166.9L435.6,166.9z"/>
<path style="fill:none;stroke:#231F20;stroke-miterlimit:10;" d="M414.9,169.2c0-4.7-1.4-9.7,0.2-14.3c-1-0.7,0.4-1.4-2.5-2.7
	l-0.3,1.3l0,1.2l0.5,2.3l-0.1,2.2l-0.1,3.2l0,3.2l0.1,3.2l0.4,3.2l0.2,0.1l0.5-0.1l0.6-0.4l0.4-0.5l0-0.9L414.9,169.2z"/>
<path style="fill:none;stroke:#231F20;stroke-miterlimit:10;" d="M414.9,169.2c0-4.7-1.4-9.7,0.2-14.3c-1-0.7,0.4-1.4-2.5-2.7
	l-0.3,1.3l0,1.2l0.5,2.3l-0.1,2.2l-0.1,3.2l0,3.2l0.1,3.2l0.4,3.2l0.2,0.1l0.5-0.1l0.6-0.4l0.4-0.5l0-0.9L414.9,169.2z"/>
<path style="fill:none;stroke:#231F20;stroke-miterlimit:10;" d="M409.9,159.6l1.6-0.4l0.5-1.8l-0.4-0.7l-3.6,0l-8.9,0.1l-2.3-0.2
	l-1,0l-0.6,0.6l-0.6,2.6l1.7,0.2l11.6-0.5L409.9,159.6L409.9,159.6z"/>
<path style="fill:none;stroke:#231F20;stroke-miterlimit:10;" d="M409.9,159.6l1.6-0.4l0.5-1.8l-0.4-0.7l-3.6,0l-8.9,0.1l-2.3-0.2
	l-1,0l-0.6,0.6l-0.6,2.6l1.7,0.2l11.6-0.5L409.9,159.6L409.9,159.6z"/>
<path style="fill:none;stroke:#231F20;stroke-miterlimit:10;" d="M391.1,165.5l0.6-2.1l0.7-2.2l0.9-2.7l1-2.8l-0.2-0.3l-0.3-0.2
	l-0.2-0.3l0.1-0.5l0-0.4l-0.3-0.3l-0.6-0.2l-0.6-0.1l-0.6,0l-0.5,0.4c0.3,2.9-1.2,3.8-1.1,6.5c0.2,2.5,0.1,2.1-0.6,4.5
	c-0.7,2-1,4.2-1.7,6.2c-0.4,2.6,1.1,1.7,2.5,1.3l-0.1-1.7l0.1-1.7l0.3-1.7L391.1,165.5L391.1,165.5z"/>
<path style="fill:none;stroke:#231F20;stroke-miterlimit:10;" d="M391.1,165.5l0.6-2.1l0.7-2.2l0.9-2.7l1-2.8l-0.2-0.3l-0.3-0.2
	l-0.2-0.3l0.1-0.5l0-0.4l-0.3-0.3l-0.6-0.2l-0.6-0.1l-0.6,0l-0.5,0.4c0.3,2.9-1.2,3.8-1.1,6.5c0.2,2.5,0.1,2.1-0.6,4.5
	c-0.7,2-1,4.2-1.7,6.2c-0.4,2.6,1.1,1.7,2.5,1.3l-0.1-1.7l0.1-1.7l0.3-1.7L391.1,165.5L391.1,165.5z"/>
<path style="fill:none;stroke:#231F20;stroke-miterlimit:10;" d="M388,160.2l0.8-0.1l0.7-0.9l0.3-1.3l-0.1-0.5l-0.5-0.5l-8.1,0.4
	l-2.1-0.1l-0.1,2.9l8.1-0.2L388,160.2L388,160.2z"/>
<path style="fill:none;stroke:#231F20;stroke-miterlimit:10;" d="M388,160.2l0.8-0.1l0.7-0.9l0.3-1.3l-0.1-0.5l-0.5-0.5l-8.1,0.4
	l-2.1-0.1l-0.1,2.9l8.1-0.2L388,160.2L388,160.2z"/>
<path style="fill:none;stroke:#231F20;stroke-miterlimit:10;" d="M387.5,168.6l1.1-2.7l-8.9,0.4l-0.5,0.6l0.2,1.4l2,0.6L387.5,168.6
	L387.5,168.6z"/>
<path style="fill:none;stroke:#231F20;stroke-miterlimit:10;" d="M387.5,168.6l1.1-2.7l-8.9,0.4l-0.5,0.6l0.2,1.4l2,0.6L387.5,168.6
	L387.5,168.6z"/>
<path style="fill:none;stroke:#231F20;stroke-miterlimit:10;" d="M411.7,167l-0.1-1.5l-0.6-0.4l-2,0.2l-7.5-0.2l-8.6,0.5l-0.6,0.8
	l-0.2,1.1l0.2,0.8l14.2-0.2l4.8-0.4L411.7,167L411.7,167z"/>
<path style="fill:none;stroke:#231F20;stroke-miterlimit:10;" d="M411.7,167l-0.1-1.5l-0.6-0.4l-2,0.2l-7.5-0.2l-8.6,0.5l-0.6,0.8
	l-0.2,1.1l0.2,0.8l14.2-0.2l4.8-0.4L411.7,167L411.7,167z"/>
<path style="fill:#231F20;" d="M396.1,173.7l0.9-0.2l1.1,0.2l-0.1,0.3l-0.5,0l-0.5-0.1l-1.1,0.2L396.1,173.7L396.1,173.7z"/>
<path style="fill:none;stroke:#231F20;stroke-width:0.214;stroke-linejoin:bevel;stroke-miterlimit:2.613;" d="M396.1,173.7l0.9-0.2
	l1.1,0.2l-0.1,0.3l-0.5,0l-0.5-0.1l-1.1,0.2L396.1,173.7L396.1,173.7z"/>
<path style="fill:none;stroke:#231F20;stroke-miterlimit:10;" d="M215.2,165.3l0.5-0.4l-0.2-2.7l-14.5,0.4l-4.8,0.6L196,164l0.4,2.2
	l7-0.2L215.2,165.3L215.2,165.3z"/>
<path style="fill:none;stroke:#231F20;stroke-miterlimit:10;" d="M215.2,165.3l0.5-0.4l-0.2-2.7l-14.5,0.4l-4.8,0.6L196,164l0.4,2.2
	l7-0.2L215.2,165.3L215.2,165.3z"/>
<path style="fill:none;stroke:#231F20;stroke-miterlimit:10;" d="M191.3,165.2l0.1-1.1l-0.1-0.9l-0.6-0.3l-3.8,0l-6.1,0.4l-3.6,0.1
	l-1.5-0.3l-0.7,0.4l-1.2,0l-0.5,0.7L173,165l-0.4,1.6l18.4-0.2L191.3,165.2L191.3,165.2z"/>
<path style="fill:none;stroke:#231F20;stroke-miterlimit:10;" d="M191.3,165.2l0.1-1.1l-0.1-0.9l-0.6-0.3l-3.8,0l-6.1,0.4l-3.6,0.1
	l-1.5-0.3l-0.7,0.4l-1.2,0l-0.5,0.7L173,165l-0.4,1.6l18.4-0.2L191.3,165.2L191.3,165.2z"/>
<path style="fill:none;stroke:#231F20;stroke-miterlimit:10;" d="M282.2,135c0.7-3.2,1-6.6-2-8.8l0-1l-0.2-0.8l-1-0.7l-1,0l-0.8,0.7
	l0.4,0.8l-1.2,0.2l-1.1-0.7l-0.5-1.4l0.7-2.7l0.2-1.3l-0.3-1.4l-1.4-0.5l-1.6,0.5l-2,1.4l-0.9,0.2l-0.9-0.7l-0.6-1.9l-0.1-1.3
	l-0.2-1.2l-1.2-1.1l-1.3,0l-0.9,0.8l-0.9,1l-0.2,0.8c-4.7,0.3-0.5-4.9-5.9-8.6l-2-0.7l-2.3-0.3l-2.5,0.2l-2.9,1.1l-1.2,1.2l-0.3,1.3
	l0.6,1.4l0,0.6l-0.7,0l-0.5,0.3l-1-0.8l-1.1-0.1l-1.1,0.4l-0.9,0.7l-0.2,0.5l-0.2,0.5l-0.1,0.7l0.1,0.6l0.1,0.7l-0.1,0.7l-0.2,0.2
	l-0.4,0.1l-0.6-0.1l-0.5-0.2l-1.5-0.2l-0.7,1.3l-0.8,1.8l-0.4,1.8l0,1.5l-0.7,0.6l-0.3,0l-0.3,0l-0.7-0.4l-1-0.3l-0.5,0.4l-0.4,0.5
	l-0.7,1.9l-0.2,2.4l0.3,2.7l-0.1,1.9l-1.8,0.1l-1.8,0.5l-1.1,1.2l-1,2.5l0.9,2.8l1.1,1.8l1.3,1.5l1.6,1.1l-1.5,3.3l-0.1,1.7l1.1,1.3
	l1.4,0.7l1.5-0.4l1.1-0.9l1.1,1.1l1.4,0.7l1.6-0.5l1.3-1.3l-2.3-2.8l1.1-0.3l1.4,1.6l1.3,1.2l-1.1-4l-1.5-3.4l0.6,0l3.1,5.1l1-2.2
	l1.6-1.4l0.3-0.7l-0.3-3.6l-1.2-1.3l1.7,0.9l0.6-0.4c2-0.7,7.3,7.7,5.7,0.2l0.8,1.9l2.6,0.4l0.9-0.1l0.5-0.6l-1.3-1.5l0-0.7l0.8-0.1
	l1.6,1.3l1.8-0.1l1.8,0l1,2l0.8,0.6l1.2,0.1l1.5-0.3l-0.5,0.5L264,142l-2.1-0.5l-0.9-1.6l-1.4,0.4l-1.4,1.1l-0.4,1.1l0.1,1.2
	l1.2,1.4l1.3,0.1l1.4-0.8l1.8,0.1l1.5,0.7l2,0.3l2.7-0.7l2.7,0.2l1.8,1.3l2.3,0.1l1.6-1.2l0.7-1.5l0.1-1.7l-0.3-1.8l1.3-1l1.2-1.1
	l0.3-0.5L282.2,135L282.2,135z"/>
<path style="fill:#231F20;" d="M227.3,173.6l-0.4,0.6l-0.7-0.3l0.4-0.6l0.9-0.3L227.3,173.6L227.3,173.6z"/>
<path style="fill:none;stroke:#231F20;stroke-width:0.214;stroke-linejoin:bevel;stroke-miterlimit:2.613;" d="M227.3,173.6
	l-0.4,0.6l-0.7-0.3l0.4-0.6l0.9-0.3L227.3,173.6L227.3,173.6z"/>
<path style="fill:#231F20;" d="M249.9,172.9l0.2,0.2l0,0.3l-0.3,0l-0.2,0l0-0.2l-0.2-0.1l0.2-0.1l0-0.2l0.2,0.1L249.9,172.9
	L249.9,172.9z"/>
<path style="fill:none;stroke:#231F20;stroke-width:0.214;stroke-linejoin:bevel;stroke-miterlimit:2.613;" d="M249.9,172.9l0.2,0.2
	l0,0.3l-0.3,0l-0.2,0l0-0.2l-0.2-0.1l0.2-0.1l0-0.2l0.2,0.1L249.9,172.9L249.9,172.9z"/>
<path style="fill:#231F20;" d="M252.1,174.4l-0.6-0.3l-0.2-0.5l0.5-0.5l0.6,0.1l0.4,0.5l0,0.7l-0.4,0L252.1,174.4L252.1,174.4z"/>
<path style="fill:none;stroke:#231F20;stroke-width:0.214;stroke-linejoin:bevel;stroke-miterlimit:2.613;" d="M252.1,174.4
	l-0.6-0.3l-0.2-0.5l0.5-0.5l0.6,0.1l0.4,0.5l0,0.7l-0.4,0L252.1,174.4L252.1,174.4z"/>
<path style="fill:#231F20;" d="M264.1,173.9l-0.1-0.1l-0.2,0l0.9-0.9l1-0.2l0.2,0.3l-0.3,0.4l-0.5,0.4l-0.5,0.3l-0.3,0L264.1,173.9
	L264.1,173.9z"/>
<path style="fill:none;stroke:#231F20;stroke-width:0.214;stroke-linejoin:bevel;stroke-miterlimit:2.613;" d="M264.1,173.9
	l-0.1-0.1l-0.2,0l0.9-0.9l1-0.2l0.2,0.3l-0.3,0.4l-0.5,0.4l-0.5,0.3l-0.3,0L264.1,173.9L264.1,173.9z"/>
<path style="fill:#231F20;" d="M267,174l-0.2-0.3l0-0.4l0.6-0.3l0.6,0.1l0,0.4l-0.4,0.4l-0.3,0L267,174L267,174z"/>
<path style="fill:none;stroke:#231F20;stroke-width:0.214;stroke-linejoin:bevel;stroke-miterlimit:2.613;" d="M267,174l-0.2-0.3
	l0-0.4l0.6-0.3l0.6,0.1l0,0.4l-0.4,0.4l-0.3,0L267,174L267,174z"/>
<path style="fill:#231F20;" d="M273.5,173.9l-0.4-0.6l0.1-0.7l0.3-0.1l0.3,0.1l0.2,0.3l0.2,0.4l-0.1,0.5L273.5,173.9z"/>
<path style="fill:none;stroke:#231F20;stroke-width:0.214;stroke-linejoin:bevel;stroke-miterlimit:2.613;" d="M273.5,173.9
	l-0.4-0.6l0.1-0.7l0.3-0.1l0.3,0.1l0.2,0.3l0.2,0.4l-0.1,0.5L273.5,173.9z"/>
<path style="fill:none;stroke:#231F20;stroke-miterlimit:10;" d="M271.7,139.3l-0.3,0.7l-2.2,0.8l-0.7-0.1l-1-0.8l-0.8-1.1l-0.2-0.7
	l0.2-0.6l0.7,0l0.8,0.6l0.7,1.9L271.7,139.3L271.7,139.3z"/>
<path style="fill:none;stroke:#231F20;stroke-miterlimit:10;" d="M271.7,139.3l-0.3,0.7l-2.2,0.8l-0.7-0.1l-1-0.8l-0.8-1.1l-0.2-0.7
	l0.2-0.6l0.7,0l0.8,0.6l0.7,1.9L271.7,139.3L271.7,139.3z"/>
<path style="fill:none;stroke:#231F20;stroke-miterlimit:10;" d="M250.6,146.9l-0.1-0.5l-0.2-2.4l0.6-2.7l-0.3-0.2l-1.2,1.9
	l-1.2-2.6l-1-1.1l-0.3,0.5l2,4.1l0.9,3.2l-0.1,0.8l0.3,1.8l1.3,1.6l2.8,5.1l0.5,1.9l2.7,0.2l0.5-0.7l0.3-0.7l0.3-1.7l0.3-0.8
	l0.7,0.4l0.6-0.1l0.5-1l2.1-1.8l1.6-2.4l1.4-2.7l-1.1-0.3l-1,1.9l-1.1,1.7l-2.3,1.9l-2.6,1.4l-0.5-0.5l-0.5-2.2l0.2-3.7l0.6-2.2
	l-0.7-0.7l-0.6-1.4l-0.8,3.8l-0.2,2l-0.5,1.9l-1.4-0.2l-1.2-0.8l-0.9-1.2L250.6,146.9L250.6,146.9z"/>
<path style="fill:none;stroke:#231F20;stroke-miterlimit:10;" d="M250.6,146.9l-0.1-0.5l-0.2-2.4l0.6-2.7l-0.3-0.2l-1.2,1.9
	l-1.2-2.6l-1-1.1l-0.3,0.5l2,4.1l0.9,3.2l-0.1,0.8l0.3,1.8l1.3,1.6l2.8,5.1l0.5,1.9l2.7,0.2l0.5-0.7l0.3-0.7l0.3-1.7l0.3-0.8
	l0.7,0.4l0.6-0.1l0.5-1l2.1-1.8l1.6-2.4l1.4-2.7l-1.1-0.3l-1,1.9l-1.1,1.7l-2.3,1.9l-2.6,1.4l-0.5-0.5l-0.5-2.2l0.2-3.7l0.6-2.2
	l-0.7-0.7l-0.6-1.4l-0.8,3.8l-0.2,2l-0.5,1.9l-1.4-0.2l-1.2-0.8l-0.9-1.2L250.6,146.9L250.6,146.9z"/>
<path style="fill:none;stroke:#231F20;stroke-miterlimit:10;" d="M277,165.5l0.5,0.8l-0.1,1l0,3.3l0.9,2.9l1,0.2l1.1-0.1l1-0.4
	l-0.4-1.9l-0.7-1.9l0-2.3l-0.1-2.4l-0.4-1.4l-0.3-1.4l0.3-0.8l-0.5-4.5l-0.5-1.4l-2.2,0l-0.3,0.4L277,165.5z"/>
<path style="fill:none;stroke:#231F20;stroke-miterlimit:10;" d="M277,165.5l0.5,0.8l-0.1,1l0,3.3l0.9,2.9l1,0.2l1.1-0.1l1-0.4
	l-0.4-1.9l-0.7-1.9l0-2.3l-0.1-2.4l-0.4-1.4l-0.3-1.4l0.3-0.8l-0.5-4.5l-0.5-1.4l-2.2,0l-0.3,0.4L277,165.5z"/>
<path style="fill:none;stroke:#231F20;stroke-miterlimit:10;" d="M271.6,160.9l1.4,0.1l3.3-0.1l-0.1-2.3l-3.8-0.1l-3.4,0l-6.2,0.4
	l-0.5,2.4l3.9,0L271.6,160.9L271.6,160.9z"/>
<path style="fill:none;stroke:#231F20;stroke-miterlimit:10;" d="M271.6,160.9l1.4,0.1l3.3-0.1l-0.1-2.3l-3.8-0.1l-3.4,0l-6.2,0.4
	l-0.5,2.4l3.9,0L271.6,160.9L271.6,160.9z"/>
<path style="fill:none;stroke:#231F20;stroke-miterlimit:10;" d="M276,169l0.4-2.6l-6.4,0.1l-5.7-0.1l-2.7,0.5l-0.1,2.2l5.8,0.1
	l3.4-0.1L276,169L276,169z"/>
<path style="fill:none;stroke:#231F20;stroke-miterlimit:10;" d="M276,169l0.4-2.6l-6.4,0.1l-5.7-0.1l-2.7,0.5l-0.1,2.2l5.8,0.1
	l3.4-0.1L276,169L276,169z"/>
<path style="fill:none;stroke:#231F20;stroke-miterlimit:10;" d="M257.1,172.9l1.4,0.4l1.3-0.3l0.9-16l0.6-1.2l-1.7-0.2l-0.9,1.3
	l-0.2,4.3l-0.5,7.3L257.1,172.9L257.1,172.9z"/>
<path style="fill:none;stroke:#231F20;stroke-miterlimit:10;" d="M257.1,172.9l1.4,0.4l1.3-0.3l0.9-16l0.6-1.2l-1.7-0.2l-0.9,1.3
	l-0.2,4.3l-0.5,7.3L257.1,172.9L257.1,172.9z"/>
<path style="fill:none;stroke:#231F20;stroke-miterlimit:10;" d="M257.6,165.4l-0.3-2.5l-1.8,0l0.4,2.5L257.6,165.4z"/>
<path style="fill:none;stroke:#231F20;stroke-miterlimit:10;" d="M257.6,165.4l-0.3-2.5l-1.8,0l0.4,2.5L257.6,165.4z"/>
<path style="fill:none;stroke:#231F20;stroke-miterlimit:10;" d="M257.7,161l0-1.9l-10.8-0.1l-2.4-0.2l-0.2,0l-2.1-0.2l-0.5,0.4
	l0,1.6l0.3,0.3l11.5,0.5L257.7,161z"/>
<path style="fill:none;stroke:#231F20;stroke-miterlimit:10;" d="M257.7,161l0-1.9l-10.8-0.1l-2.4-0.2l-0.2,0l-2.1-0.2l-0.5,0.4
	l0,1.6l0.3,0.3l11.5,0.5L257.7,161z"/>
<path style="fill:none;stroke:#231F20;stroke-miterlimit:10;" d="M257.1,169l0.1-2.3l-1.3-0.3l-2.6,0l-6.8-0.3l-3.7,0.2l0.1,2.4
	l3.1,0.2L257.1,169L257.1,169z"/>
<path style="fill:none;stroke:#231F20;stroke-miterlimit:10;" d="M257.1,169l0.1-2.3l-1.3-0.3l-2.6,0l-6.8-0.3l-3.7,0.2l0.1,2.4
	l3.1,0.2L257.1,169L257.1,169z"/>
<path style="fill:none;stroke:#231F20;stroke-miterlimit:10;" d="M241.3,167.9l-0.8-9.4l-0.7-0.8l0.1-2.1l-1.4-0.8l-0.2,0l0.5,5.6
	l0.7,0.5l0,2.9l0.3,2.9l0.4,2.9l0.4,3.2l2,0.3L241.3,167.9L241.3,167.9z"/>
<path style="fill:none;stroke:#231F20;stroke-miterlimit:10;" d="M241.3,167.9l-0.8-9.4l-0.7-0.8l0.1-2.1l-1.4-0.8l-0.2,0l0.5,5.6
	l0.7,0.5l0,2.9l0.3,2.9l0.4,2.9l0.4,3.2l2,0.3L241.3,167.9L241.3,167.9z"/>
<path style="fill:none;stroke:#231F20;stroke-miterlimit:10;" d="M239.1,168.4l-0.1-1.5l-0.6-0.7l-3.1-0.2l-3.5,0.2l-11.6,0.4
	l-0.1,1l0.4,1.2l0.1,0.1l0.7-0.4l8.5,0.1l8.7,0.2L239.1,168.4L239.1,168.4z"/>
<path style="fill:none;stroke:#231F20;stroke-miterlimit:10;" d="M239.1,168.4l-0.1-1.5l-0.6-0.7l-3.1-0.2l-3.5,0.2l-11.6,0.4
	l-0.1,1l0.4,1.2l0.1,0.1l0.7-0.4l8.5,0.1l8.7,0.2L239.1,168.4L239.1,168.4z"/>
<path style="fill:none;stroke:#231F20;stroke-miterlimit:10;" d="M237.7,160.5l0.1-1l-0.3-0.6l-2.8-0.4l-8.8-0.3l-5.9,0.2l0.2,2.4
	l10.5-0.2l5.9,0.2L237.7,160.5L237.7,160.5z"/>
<path style="fill:none;stroke:#231F20;stroke-miterlimit:10;" d="M237.7,160.5l0.1-1l-0.3-0.6l-2.8-0.4l-8.8-0.3l-5.9,0.2l0.2,2.4
	l10.5-0.2l5.9,0.2L237.7,160.5L237.7,160.5z"/>
<path style="fill:none;stroke:#231F20;stroke-miterlimit:10;" d="M215.4,160.2l0.5-1l-0.2-1.5l-13.6,0.2l-5.9,0.4l-0.3,0.5l0,1.3
	l0.4,1l7.4-0.2L215.4,160.2L215.4,160.2z"/>
<path style="fill:none;stroke:#231F20;stroke-miterlimit:10;" d="M215.4,160.2l0.5-1l-0.2-1.5l-13.6,0.2l-5.9,0.4l-0.3,0.5l0,1.3
	l0.4,1l7.4-0.2L215.4,160.2L215.4,160.2z"/>
<path style="fill:none;stroke:#231F20;stroke-miterlimit:10;" d="M216.6,167.2l-0.5,4.7l0.2,1.4l1.5,0.1l1-0.9l0.1-1l-0.3-1.9
	l-0.3-1.6l0.1-6.4l0.1-6.7l-1.1,0.5l-0.4-0.8l-0.7,0.4l0.4,1.6l-0.3,5.6L216.6,167.2L216.6,167.2z"/>
<path style="fill:none;stroke:#231F20;stroke-miterlimit:10;" d="M216.6,167.2l-0.5,4.7l0.2,1.4l1.5,0.1l1-0.9l0.1-1l-0.3-1.9
	l-0.3-1.6l0.1-6.4l0.1-6.7l-1.1,0.5l-0.4-0.8l-0.7,0.4l0.4,1.6l-0.3,5.6L216.6,167.2L216.6,167.2z"/>
<path style="fill:none;stroke:#231F20;stroke-miterlimit:10;" d="M215.3,168.7l0.2-0.3l-0.1-1.9l-8.3-0.1l-9,0.5l-1.3,0.1l-0.4,0.4
	l-0.2,1.1l-0.1,0.9l1.5,0.3l14.7-0.5L215.3,168.7L215.3,168.7z"/>
<path style="fill:none;stroke:#231F20;stroke-miterlimit:10;" d="M215.3,168.7l0.2-0.3l-0.1-1.9l-8.3-0.1l-9,0.5l-1.3,0.1l-0.4,0.4
	l-0.2,1.1l-0.1,0.9l1.5,0.3l14.7-0.5L215.3,168.7L215.3,168.7z"/>
<path style="fill:none;stroke:#231F20;stroke-miterlimit:10;" d="M194.6,171c0-4.7-1.4-9.7,0.2-14.3c-1-0.7,0.3-1.4-2.5-2.7
	l-0.3,1.3l0.1,1.2l0.5,2.3l0,2.2l-0.1,3.2l0,3.2l0.1,3.2l0.4,3.2l0.2,0.1l0.5-0.1l0.6-0.4l0.4-0.5l0-0.9L194.6,171L194.6,171z"/>
<path style="fill:none;stroke:#231F20;stroke-miterlimit:10;" d="M194.6,171c0-4.7-1.4-9.7,0.2-14.3c-1-0.7,0.3-1.4-2.5-2.7
	l-0.3,1.3l0.1,1.2l0.5,2.3l0,2.2l-0.1,3.2l0,3.2l0.1,3.2l0.4,3.2l0.2,0.1l0.5-0.1l0.6-0.4l0.4-0.5l0-0.9L194.6,171L194.6,171z"/>
<path style="fill:none;stroke:#231F20;stroke-miterlimit:10;" d="M189.6,161.4l1.6-0.4l0.5-1.8l-0.4-0.7l-3.6,0l-8.9,0.1l-2.3-0.2
	l-1,0l-0.6,0.6l-0.6,2.6l1.7,0.2l11.5-0.5L189.6,161.4L189.6,161.4z"/>
<path style="fill:none;stroke:#231F20;stroke-miterlimit:10;" d="M189.6,161.4l1.6-0.4l0.5-1.8l-0.4-0.7l-3.6,0l-8.9,0.1l-2.3-0.2
	l-1,0l-0.6,0.6l-0.6,2.6l1.7,0.2l11.5-0.5L189.6,161.4L189.6,161.4z"/>
<path style="fill:none;stroke:#231F20;stroke-miterlimit:10;" d="M191.4,168.8l-0.1-1.5l-0.6-0.5l-2,0.2l-7.5-0.2l-8.6,0.5l-0.6,0.8
	l-0.2,1.1l0.2,0.8l14.2-0.2l4.8-0.4L191.4,168.8L191.4,168.8z"/>
<path style="fill:none;stroke:#231F20;stroke-miterlimit:10;" d="M191.4,168.8l-0.1-1.5l-0.6-0.5l-2,0.2l-7.5-0.2l-8.6,0.5l-0.6,0.8
	l-0.2,1.1l0.2,0.8l14.2-0.2l4.8-0.4L191.4,168.8L191.4,168.8z"/>
<path style="fill:#231F20;" d="M175.8,175.5l0.9-0.2l1.1,0.2l-0.1,0.3l-0.5,0l-0.5-0.1l-1.1,0.2L175.8,175.5z"/>
<path style="fill:none;stroke:#231F20;stroke-width:0.214;stroke-linejoin:bevel;stroke-miterlimit:2.613;" d="M175.8,175.5l0.9-0.2
	l1.1,0.2l-0.1,0.3l-0.5,0l-0.5-0.1l-1.1,0.2L175.8,175.5z"/>
<path style="fill:none;stroke:#231F20;stroke-miterlimit:10;" d="M114.6,162.9l-0.5-0.4c0-0.9,0-1.9,0-2.8c4.9,0.2,9.8,0.4,14.8,0.6
	l5,0.7c0.1,0.3,0.1,0.6,0.2,0.9c-0.1,0.8-0.2,1.6-0.3,2.4l-7.2-0.4C126.5,163.8,114.6,162.9,114.6,162.9z"/>
<path style="fill:none;stroke:#231F20;stroke-miterlimit:10;" d="M114.6,162.9l-0.5-0.4c0-0.9,0-1.9,0-2.8c4.9,0.2,9.8,0.4,14.8,0.6
	l5,0.7c0.1,0.3,0.1,0.6,0.2,0.9c-0.1,0.8-0.2,1.6-0.3,2.4l-7.2-0.4C126.5,163.8,114.6,162.9,114.6,162.9z"/>
<path style="fill:none;stroke:#231F20;stroke-miterlimit:10;" d="M139,163.2c-0.1-0.4-0.1-0.8-0.1-1.1c0-0.3,0-0.6,0.1-0.9
	c0.2-0.1,0.4-0.2,0.7-0.3c1.3,0,2.6,0,3.9,0l6.4,0.5l1.6,0.1c0.7,0,1.5,0.1,2.2,0.1l1.6-0.3l0.7,0.4c0.4,0,0.8,0,1.2,0
	c0.2,0.3,0.4,0.5,0.5,0.8c0.1,0.3,0.2,0.6,0.4,0.9c0.2,0.6,0.3,1.2,0.5,1.7c-6.5-0.2-12.9-0.4-19.3-0.6
	C139.3,164,139.1,163.6,139,163.2L139,163.2z"/>
<path style="fill:none;stroke:#231F20;stroke-miterlimit:10;" d="M139,163.2c-0.1-0.4-0.1-0.8-0.1-1.1c0-0.3,0-0.6,0.1-0.9
	c0.2-0.1,0.4-0.2,0.7-0.3c1.3,0,2.6,0,3.9,0l6.4,0.5l1.6,0.1c0.7,0,1.5,0.1,2.2,0.1l1.6-0.3l0.7,0.4c0.4,0,0.8,0,1.2,0
	c0.2,0.3,0.4,0.5,0.5,0.8c0.1,0.3,0.2,0.6,0.4,0.9c0.2,0.6,0.3,1.2,0.5,1.7c-6.5-0.2-12.9-0.4-19.3-0.6
	C139.3,164,139.1,163.6,139,163.2L139,163.2z"/>
<path style="fill:none;stroke:#231F20;stroke-miterlimit:10;" d="M48.7,131.4c-0.2-0.7-0.3-1.3-0.5-2c0-0.7-0.1-1.4-0.1-2
	c0.1-0.7,0.1-1.4,0.2-2c0.3-0.6,0.6-1.1,0.9-1.7c0.3-0.3,0.6-0.6,0.9-1c0-0.3,0-0.7-0.1-1c0.1-0.3,0.1-0.6,0.2-0.9
	c0.3-0.2,0.6-0.4,0.9-0.7c0.3,0,0.6,0,0.9,0c0.3,0.2,0.5,0.5,0.8,0.7c-0.1,0.3-0.3,0.6-0.4,0.9l1.1,0.2l1-0.7
	c0.1-0.5,0.3-0.9,0.4-1.4c-0.3-0.9-0.5-1.8-0.8-2.7c-0.1-0.4-0.1-0.9-0.2-1.3c0.1-0.5,0.2-0.9,0.2-1.4c0.4-0.2,0.8-0.3,1.2-0.5
	c0.5,0.2,1,0.3,1.5,0.5c0.6,0.5,1.2,0.9,1.9,1.4c0.3,0.1,0.6,0.1,0.9,0.1c0.3-0.2,0.5-0.5,0.8-0.7c0.1-0.6,0.3-1.3,0.5-1.9
	c0-0.4,0-0.8,0-1.3c0-0.4,0.1-0.8,0.1-1.2c0.4-0.4,0.8-0.7,1.1-1.1l1.3-0.1c0.3,0.3,0.6,0.5,0.9,0.7c0.3,0.3,0.6,0.7,0.9,1
	c0.1,0.3,0.1,0.6,0.2,0.8l1.1-0.1c0.3-0.2,0.6-0.5,1-0.7c0.1-0.3,0.2-0.7,0.3-1.1c0-0.5,0-1,0.1-1.5c0.1-0.5,0.2-1,0.3-1.5
	c0.2-0.5,0.3-1,0.5-1.4c0.3-0.4,0.5-0.9,0.8-1.4c0.4-0.4,0.8-0.7,1.1-1.1c0.5-0.1,1.1-0.3,1.7-0.4h2c0.7,0.2,1.5,0.4,2.2,0.5
	l2.6,1.6c0.4,0.4,0.7,0.9,1.1,1.3c0.1,0.5,0.1,0.9,0.2,1.4c-0.3,0.5-0.5,1.1-0.7,1.6c0,0.2,0,0.4,0,0.6l0.6,0
	c0.1,0.1,0.3,0.2,0.4,0.3l0.8-0.8l1-0.1c0.3,0.2,0.6,0.3,1,0.5l0.8,0.7c0.1,0.2,0.1,0.4,0.2,0.5c0.1,0.2,0.1,0.4,0.2,0.5
	c0,0.3,0,0.5,0,0.8c-0.1,0.2-0.1,0.4-0.2,0.7c-0.1,0.3-0.1,0.5-0.1,0.7c0,0.3,0,0.5,0,0.7c0.1,0.1,0.1,0.2,0.2,0.3
	c0.1,0,0.3,0.1,0.4,0.1c0.2,0,0.3,0,0.5,0l0.4-0.1c0.4,0,0.8,0,1.2,0c0.3,0.4,0.6,0.7,0.9,1c0.2,1,0.3,2,0.5,3c0.1,1,0.1,2,0.2,3.1
	c0.2,0.2,0.3,0.5,0.5,0.7l0.8,0c0.1-0.2,0.3-0.4,0.4-0.6c0.1-0.2,0.2-0.4,0.4-0.6l0.5-0.2l0.7-0.1c0.2,0.1,0.5,0.1,0.7,0.1
	c0.2,0.1,0.4,0.2,0.6,0.2c0.5,0.4,0.9,0.8,1.4,1.1c0.4,0.6,0.7,1.1,1.1,1.7c0.2,0.6,0.4,1.3,0.6,1.9l0.2,1.9c0.6,0,1.1,0.1,1.7,0.1
	c0.6,0.2,1.2,0.3,1.8,0.5c0.4,0.4,0.8,0.8,1.2,1.2c0.4,0.9,0.7,1.7,1.1,2.6c-0.2,1-0.5,2-0.7,3c-0.3,0.6-0.6,1.3-0.9,1.9
	c-0.4,0.5-0.8,1.1-1.2,1.6c-0.5,0.4-1,0.8-1.5,1.2c0.5,1.1,1.1,2.3,1.6,3.4c0.1,0.6,0.1,1.2,0.2,1.7c-0.3,0.5-0.6,0.9-1,1.4
	c-0.4,0.2-0.9,0.4-1.3,0.7c-0.5-0.1-1-0.3-1.5-0.4l-1.2-1l-1.1,1.1l-1.4,0.7c-0.5-0.2-1-0.3-1.6-0.5c-0.4-0.4-0.9-0.9-1.4-1.3
	l2.1-2.9l-1.1-0.4c-0.4,0.5-0.9,1.1-1.3,1.6c-0.4,0.4-0.8,0.8-1.2,1.2c0.3-1.4,0.6-2.8,0.9-4.2c0.4-1.2,0.8-2.3,1.3-3.5l-0.6,0
	c-0.9,1.8-1.8,3.5-2.7,5.3c-0.3-0.8-0.7-1.5-1-2.3c-0.5-0.5-1.1-1-1.6-1.5c-0.1-0.2-0.2-0.5-0.3-0.7c0-1.2,0-2.4,0.1-3.7
	c0.4-0.4,0.7-0.9,1.1-1.3c-0.1-0.3-0.1-0.6-0.2-0.9c-0.5,0.6-0.9,1.2-1.4,1.8l-0.6-0.4c0-1.3,0-2.6,0-4c0.1-0.6,0.3-1.2,0.4-1.7
	c0.5-0.4,1-0.9,1.6-1.3c0.1-0.3,0.2-0.7,0.4-1c-0.1-0.3-0.2-0.6-0.2-1c-0.3,0-0.5,0-0.8,0.1c-0.1,0.2-0.2,0.4-0.3,0.6
	c-0.1,0.3-0.1,0.6-0.2,0.8c-0.5,0.3-0.9,0.7-1.3,1l-0.7,0.2c-0.5,0-1,0.1-1.5,0.1c-0.2,0.3-0.5,0.7-0.7,1c0,0.1,0.1,0.3,0.1,0.4
	l0.5,0.9c-0.1,0.6-0.2,1.1-0.3,1.7l-0.7,0.6c-0.2-0.2-0.3-0.5-0.5-0.7l-1,0.5c0,0.6-0.1,1.3-0.1,1.9l-0.7,2
	c-0.8,0.2-1.7,0.3-2.5,0.4c-0.3,0-0.6-0.1-0.8-0.1c-0.2-0.2-0.3-0.4-0.5-0.6l1.1-1.5c0-0.2,0-0.5,0-0.7c-0.3,0-0.5-0.1-0.8-0.1
	c-0.5,0.4-1,0.9-1.4,1.3c-0.6,0-1.1-0.1-1.7-0.1c-0.6,0-1.1,0-1.7,0l-0.9,2c-0.2,0.2-0.5,0.4-0.8,0.6l-1.2,0.1l-1.4-0.3
	c0.2,0.2,0.3,0.4,0.5,0.5l1.5,0.2l1.9-0.5c0.3-0.5,0.5-1.1,0.8-1.6l1.4,0.4c0.4,0.4,0.9,0.8,1.3,1.1c0.2,0.4,0.3,0.8,0.5,1.1
	c0,0.4,0,0.8,0,1.3l-1,1.5c-0.4,0-0.9,0.1-1.3,0.1c-0.4-0.3-0.9-0.6-1.3-0.8c-0.6,0-1.1,0.1-1.7,0.1c-0.4,0.2-0.9,0.4-1.3,0.7
	c-0.6,0.1-1.2,0.2-1.8,0.4c-0.9-0.2-1.7-0.5-2.6-0.7c-0.8,0.1-1.7,0.2-2.5,0.2c-0.5,0.4-1.1,0.8-1.6,1.3l-2.1,0.1l-1.5-1.2
	c-0.2-0.5-0.5-1-0.7-1.5c-0.1-0.6-0.1-1.2-0.2-1.7c0.1-0.6,0.2-1.2,0.2-1.8c-0.4-0.3-0.8-0.6-1.3-1c-0.4-0.4-0.8-0.7-1.1-1.1
	c-0.1-0.2-0.2-0.4-0.3-0.5C49.3,133.2,49,132.3,48.7,131.4L48.7,131.4z"/>
<path style="fill:none;stroke:#231F20;stroke-miterlimit:10;" d="M48.7,131.4c-0.2-0.7-0.3-1.3-0.5-2c0-0.7-0.1-1.4-0.1-2
	c0.1-0.7,0.1-1.4,0.2-2c0.3-0.6,0.6-1.1,0.9-1.7c0.3-0.3,0.6-0.6,0.9-1c0-0.3,0-0.7-0.1-1c0.1-0.3,0.1-0.6,0.2-0.9
	c0.3-0.2,0.6-0.4,0.9-0.7c0.3,0,0.6,0,0.9,0c0.3,0.2,0.5,0.5,0.8,0.7c-0.1,0.3-0.3,0.6-0.4,0.9l1.1,0.2l1-0.7
	c0.1-0.5,0.3-0.9,0.4-1.4c-0.3-0.9-0.5-1.8-0.8-2.7c-0.1-0.4-0.1-0.9-0.2-1.3c0.1-0.5,0.2-0.9,0.2-1.4c0.4-0.2,0.8-0.3,1.2-0.5
	c0.5,0.2,1,0.3,1.5,0.5c0.6,0.5,1.2,0.9,1.9,1.4c0.3,0.1,0.6,0.1,0.9,0.1c0.3-0.2,0.5-0.5,0.8-0.7c0.1-0.6,0.3-1.3,0.5-1.9
	c0-0.4,0-0.8,0-1.3c0-0.4,0.1-0.8,0.1-1.2c0.4-0.4,0.8-0.7,1.1-1.1l1.3-0.1c0.3,0.3,0.6,0.5,0.9,0.7c0.3,0.3,0.6,0.7,0.9,1
	c0.1,0.3,0.1,0.6,0.2,0.8l1.1-0.1c0.3-0.2,0.6-0.5,1-0.7c0.1-0.3,0.2-0.7,0.3-1.1c0-0.5,0-1,0.1-1.5c0.1-0.5,0.2-1,0.3-1.5
	c0.2-0.5,0.3-1,0.5-1.4c0.3-0.4,0.5-0.9,0.8-1.4c0.4-0.4,0.8-0.7,1.1-1.1c0.5-0.1,1.1-0.3,1.7-0.4h2c0.7,0.2,1.5,0.4,2.2,0.5
	l2.6,1.6c0.4,0.4,0.7,0.9,1.1,1.3c0.1,0.5,0.1,0.9,0.2,1.4c-0.3,0.5-0.5,1.1-0.7,1.6c0,0.2,0,0.4,0,0.6l0.6,0
	c0.1,0.1,0.3,0.2,0.4,0.3l0.8-0.8l1-0.1c0.3,0.2,0.6,0.3,1,0.5l0.8,0.7c0.1,0.2,0.1,0.4,0.2,0.5c0.1,0.2,0.1,0.4,0.2,0.5
	c0,0.3,0,0.5,0,0.8c-0.1,0.2-0.1,0.4-0.2,0.7c-0.1,0.3-0.1,0.5-0.1,0.7c0,0.3,0,0.5,0,0.7c0.1,0.1,0.1,0.2,0.2,0.3
	c0.1,0,0.3,0.1,0.4,0.1c0.2,0,0.3,0,0.5,0l0.4-0.1c0.4,0,0.8,0,1.2,0c0.3,0.4,0.6,0.7,0.9,1c0.2,1,0.3,2,0.5,3c0.1,1,0.1,2,0.2,3.1
	c0.2,0.2,0.3,0.5,0.5,0.7l0.8,0c0.1-0.2,0.3-0.4,0.4-0.6c0.1-0.2,0.2-0.4,0.4-0.6l0.5-0.2l0.7-0.1c0.2,0.1,0.5,0.1,0.7,0.1
	c0.2,0.1,0.4,0.2,0.6,0.2c0.5,0.4,0.9,0.8,1.4,1.1c0.4,0.6,0.7,1.1,1.1,1.7c0.2,0.6,0.4,1.3,0.6,1.9l0.2,1.9c0.6,0,1.1,0.1,1.7,0.1
	c0.6,0.2,1.2,0.3,1.8,0.5c0.4,0.4,0.8,0.8,1.2,1.2c0.4,0.9,0.7,1.7,1.1,2.6c-0.2,1-0.5,2-0.7,3c-0.3,0.6-0.6,1.3-0.9,1.9
	c-0.4,0.5-0.8,1.1-1.2,1.6c-0.5,0.4-1,0.8-1.5,1.2c0.5,1.1,1.1,2.3,1.6,3.4c0.1,0.6,0.1,1.2,0.2,1.7c-0.3,0.5-0.6,0.9-1,1.4
	c-0.4,0.2-0.9,0.4-1.3,0.7c-0.5-0.1-1-0.3-1.5-0.4l-1.2-1l-1.1,1.1l-1.4,0.7c-0.5-0.2-1-0.3-1.6-0.5c-0.4-0.4-0.9-0.9-1.4-1.3
	l2.1-2.9l-1.1-0.4c-0.4,0.5-0.9,1.1-1.3,1.6c-0.4,0.4-0.8,0.8-1.2,1.2c0.3-1.4,0.6-2.8,0.9-4.2c0.4-1.2,0.8-2.3,1.3-3.5l-0.6,0
	c-0.9,1.8-1.8,3.5-2.7,5.3c-0.3-0.8-0.7-1.5-1-2.3c-0.5-0.5-1.1-1-1.6-1.5c-0.1-0.2-0.2-0.5-0.3-0.7c0-1.2,0-2.4,0.1-3.7
	c0.4-0.4,0.7-0.9,1.1-1.3c-0.1-0.3-0.1-0.6-0.2-0.9c-0.5,0.6-0.9,1.2-1.4,1.8l-0.6-0.4c0-1.3,0-2.6,0-4c0.1-0.6,0.3-1.2,0.4-1.7
	c0.5-0.4,1-0.9,1.6-1.3c0.1-0.3,0.2-0.7,0.4-1c-0.1-0.3-0.2-0.6-0.2-1c-0.3,0-0.5,0-0.8,0.1c-0.1,0.2-0.2,0.4-0.3,0.6
	c-0.1,0.3-0.1,0.6-0.2,0.8c-0.5,0.3-0.9,0.7-1.3,1l-0.7,0.2c-0.5,0-1,0.1-1.5,0.1c-0.2,0.3-0.5,0.7-0.7,1c0,0.1,0.1,0.3,0.1,0.4
	l0.5,0.9c-0.1,0.6-0.2,1.1-0.3,1.7l-0.7,0.6c-0.2-0.2-0.3-0.5-0.5-0.7l-1,0.5c0,0.6-0.1,1.3-0.1,1.9l-0.7,2
	c-0.8,0.2-1.7,0.3-2.5,0.4c-0.3,0-0.6-0.1-0.8-0.1c-0.2-0.2-0.3-0.4-0.5-0.6l1.1-1.5c0-0.2,0-0.5,0-0.7c-0.3,0-0.5-0.1-0.8-0.1
	c-0.5,0.4-1,0.9-1.4,1.3c-0.6,0-1.1-0.1-1.7-0.1c-0.6,0-1.1,0-1.7,0l-0.9,2c-0.2,0.2-0.5,0.4-0.8,0.6l-1.2,0.1l-1.4-0.3
	c0.2,0.2,0.3,0.4,0.5,0.5l1.5,0.2l1.9-0.5c0.3-0.5,0.5-1.1,0.8-1.6l1.4,0.4c0.4,0.4,0.9,0.8,1.3,1.1c0.2,0.4,0.3,0.8,0.5,1.1
	c0,0.4,0,0.8,0,1.3l-1,1.5c-0.4,0-0.9,0.1-1.3,0.1c-0.4-0.3-0.9-0.6-1.3-0.8c-0.6,0-1.1,0.1-1.7,0.1c-0.4,0.2-0.9,0.4-1.3,0.7
	c-0.6,0.1-1.2,0.2-1.8,0.4c-0.9-0.2-1.7-0.5-2.6-0.7c-0.8,0.1-1.7,0.2-2.5,0.2c-0.5,0.4-1.1,0.8-1.6,1.3l-2.1,0.1l-1.5-1.2
	c-0.2-0.5-0.5-1-0.7-1.5c-0.1-0.6-0.1-1.2-0.2-1.7c0.1-0.6,0.2-1.2,0.2-1.8c-0.4-0.3-0.8-0.6-1.3-1c-0.4-0.4-0.8-0.7-1.1-1.1
	c-0.1-0.2-0.2-0.4-0.3-0.5C49.3,133.2,49,132.3,48.7,131.4L48.7,131.4z"/>
<path style="fill:#231F20;" d="M102.9,171.4l0.4,0.7l0.7-0.3c-0.2-0.2-0.3-0.4-0.4-0.7c-0.3-0.1-0.6-0.2-0.9-0.3
	C102.7,171,102.8,171.2,102.9,171.4L102.9,171.4z"/>
<path style="fill:none;stroke:#231F20;stroke-width:0.214;stroke-linejoin:bevel;stroke-miterlimit:2.613;" d="M102.9,171.4l0.4,0.7
	l0.7-0.3c-0.2-0.2-0.3-0.4-0.4-0.7c-0.3-0.1-0.6-0.2-0.9-0.3C102.7,171,102.8,171.2,102.9,171.4L102.9,171.4z"/>
<path style="fill:#231F20;" d="M80.9,170.1l-0.2,0.2l0,0.3l0.3,0l0.2,0c0-0.1,0-0.2,0-0.3l0.2-0.1c-0.1,0-0.1-0.1-0.2-0.1
	c0-0.1,0-0.2,0-0.3c-0.1,0-0.1,0.1-0.2,0.1C81,170.1,80.9,170.1,80.9,170.1z"/>
<path style="fill:none;stroke:#231F20;stroke-width:0.214;stroke-linejoin:bevel;stroke-miterlimit:2.613;" d="M80.9,170.1l-0.2,0.2
	l0,0.3l0.3,0l0.2,0c0-0.1,0-0.2,0-0.3l0.2-0.1c-0.1,0-0.1-0.1-0.2-0.1c0-0.1,0-0.2,0-0.3c-0.1,0-0.1,0.1-0.2,0.1
	C81,170.1,80.9,170.1,80.9,170.1z"/>
<path style="fill:#231F20;" d="M78.8,171.6c0.2-0.1,0.4-0.2,0.6-0.3c0.1-0.2,0.1-0.4,0.2-0.5c-0.2-0.2-0.4-0.3-0.5-0.5
	c-0.2,0-0.4,0-0.6,0c-0.1,0.2-0.3,0.4-0.4,0.5c0,0.2,0,0.5,0.1,0.7l0.4,0L78.8,171.6z"/>
<path style="fill:none;stroke:#231F20;stroke-width:0.214;stroke-linejoin:bevel;stroke-miterlimit:2.613;" d="M78.8,171.6
	c0.2-0.1,0.4-0.2,0.6-0.3c0.1-0.2,0.1-0.4,0.2-0.5c-0.2-0.2-0.4-0.3-0.5-0.5c-0.2,0-0.4,0-0.6,0c-0.1,0.2-0.3,0.4-0.4,0.5
	c0,0.2,0,0.5,0.1,0.7l0.4,0L78.8,171.6z"/>
<path style="fill:#231F20;" d="M67.3,170.9c0,0,0.1-0.1,0.1-0.1c0.1,0,0.1,0,0.2,0c-0.3-0.3-0.6-0.6-0.9-0.9
	c-0.3-0.1-0.6-0.1-0.9-0.2c-0.1,0.1-0.1,0.2-0.2,0.3c0.1,0.1,0.2,0.3,0.3,0.4c0.2,0.1,0.3,0.3,0.5,0.4c0.1,0.1,0.3,0.2,0.4,0.3
	l0.3,0C67.1,171,67.2,171,67.3,170.9L67.3,170.9z"/>
<path style="fill:none;stroke:#231F20;stroke-width:0.214;stroke-linejoin:bevel;stroke-miterlimit:2.613;" d="M67.3,170.9
	c0,0,0.1-0.1,0.1-0.1c0.1,0,0.1,0,0.2,0c-0.3-0.3-0.6-0.6-0.9-0.9c-0.3-0.1-0.6-0.1-0.9-0.2c-0.1,0.1-0.1,0.2-0.2,0.3
	c0.1,0.1,0.2,0.3,0.3,0.4c0.2,0.1,0.3,0.3,0.5,0.4c0.1,0.1,0.3,0.2,0.4,0.3l0.3,0C67.1,171,67.2,171,67.3,170.9L67.3,170.9z"/>
<path style="fill:#231F20;" d="M64.6,171c0.1-0.1,0.1-0.2,0.2-0.3c0-0.1,0-0.3,0-0.4c-0.2-0.1-0.4-0.2-0.6-0.3l-0.6,0.1
	c0,0.1,0,0.3,0,0.4c0.1,0.2,0.2,0.3,0.3,0.5l0.3,0L64.6,171z"/>
<path style="fill:none;stroke:#231F20;stroke-width:0.214;stroke-linejoin:bevel;stroke-miterlimit:2.613;" d="M64.6,171
	c0.1-0.1,0.1-0.2,0.2-0.3c0-0.1,0-0.3,0-0.4c-0.2-0.1-0.4-0.2-0.6-0.3l-0.6,0.1c0,0.1,0,0.3,0,0.4c0.1,0.2,0.2,0.3,0.3,0.5l0.3,0
	L64.6,171z"/>
<path style="fill:#231F20;" d="M58.5,170.7c0.1-0.2,0.2-0.4,0.4-0.6c0-0.2-0.1-0.4-0.1-0.7c-0.1,0-0.2-0.1-0.3-0.1
	c-0.1,0-0.2,0.1-0.3,0.1l-0.2,0.3c0,0.1-0.1,0.3-0.1,0.4c0,0.2,0.1,0.4,0.1,0.5L58.5,170.7L58.5,170.7z"/>
<path style="fill:none;stroke:#231F20;stroke-width:0.214;stroke-linejoin:bevel;stroke-miterlimit:2.613;" d="M58.5,170.7
	c0.1-0.2,0.2-0.4,0.4-0.6c0-0.2-0.1-0.4-0.1-0.7c-0.1,0-0.2-0.1-0.3-0.1c-0.1,0-0.2,0.1-0.3,0.1l-0.2,0.3c0,0.1-0.1,0.3-0.1,0.4
	c0,0.2,0.1,0.4,0.1,0.5L58.5,170.7L58.5,170.7z"/>
<path style="fill:none;stroke:#231F20;stroke-miterlimit:10;" d="M58.6,135.6c0.1,0.2,0.2,0.5,0.3,0.7c0.7,0.3,1.4,0.5,2.1,0.8
	l0.7-0.1l0.9-0.8l0.6-1.1c0.1-0.2,0.1-0.4,0.2-0.7c-0.1-0.2-0.2-0.4-0.2-0.6c-0.2,0-0.4,0-0.6,0l-0.7,0.6c-0.2,0.6-0.4,1.3-0.6,1.9
	L58.6,135.6L58.6,135.6z"/>
<path style="fill:none;stroke:#231F20;stroke-miterlimit:10;" d="M58.6,135.6c0.1,0.2,0.2,0.5,0.3,0.7c0.7,0.3,1.4,0.5,2.1,0.8
	l0.7-0.1l0.9-0.8l0.6-1.1c0.1-0.2,0.1-0.4,0.2-0.7c-0.1-0.2-0.2-0.4-0.2-0.6c-0.2,0-0.4,0-0.6,0l-0.7,0.6c-0.2,0.6-0.4,1.3-0.6,1.9
	L58.6,135.6L58.6,135.6z"/>
<path style="fill:none;stroke:#231F20;stroke-miterlimit:10;" d="M65.5,123.2l1,0.1c0.1-0.3,0.3-0.5,0.5-0.8c0-0.4,0-0.7,0.1-1.1
	c0-0.4,0.1-0.7,0.1-1.1c0.2-0.3,0.4-0.5,0.6-0.8c0.4,0.1,0.7,0.1,1.1,0.2l1.2,1c0.3,0,0.6,0,1,0c0.2-0.3,0.4-0.6,0.6-0.9
	c0.2-0.7,0.4-1.4,0.6-2c0.2-0.2,0.4-0.4,0.6-0.6l1.4-0.1l1.5,0.5c0.5,0.3,0.9,0.6,1.3,1c0.4,0.4,0.8,0.9,1.1,1.3h0.5
	c-0.2-0.5-0.5-1-0.7-1.5c-0.6-0.5-1.1-0.9-1.7-1.4c-0.6-0.3-1.2-0.5-1.8-0.8l-1.7-0.1c-0.5,0.2-1,0.4-1.6,0.7
	c-0.3,0.5-0.7,0.9-1,1.3c-0.2,0.4-0.4,0.7-0.5,1.1l-0.8-0.4l-1.4-0.1l-1.2,0.5c-0.3,0.4-0.5,0.8-0.7,1.1c0,0.5-0.1,1.1-0.1,1.6
	c-0.5-0.2-1-0.4-1.5-0.7l-0.9,0.2l-1.4,1.4l1.6-0.8c0.4,0.1,0.8,0.2,1.2,0.3C64.9,122.8,65.2,123,65.5,123.2z"/>
<path style="fill:none;stroke:#231F20;stroke-miterlimit:10;" d="M65.5,123.2l1,0.1c0.1-0.3,0.3-0.5,0.5-0.8c0-0.4,0-0.7,0.1-1.1
	c0-0.4,0.1-0.7,0.1-1.1c0.2-0.3,0.4-0.5,0.6-0.8c0.4,0.1,0.7,0.1,1.1,0.2l1.2,1c0.3,0,0.6,0,1,0c0.2-0.3,0.4-0.6,0.6-0.9
	c0.2-0.7,0.4-1.4,0.6-2c0.2-0.2,0.4-0.4,0.6-0.6l1.4-0.1l1.5,0.5c0.5,0.3,0.9,0.6,1.3,1c0.4,0.4,0.8,0.9,1.1,1.3h0.5
	c-0.2-0.5-0.5-1-0.7-1.5c-0.6-0.5-1.1-0.9-1.7-1.4c-0.6-0.3-1.2-0.5-1.8-0.8l-1.7-0.1c-0.5,0.2-1,0.4-1.6,0.7
	c-0.3,0.5-0.7,0.9-1,1.3c-0.2,0.4-0.4,0.7-0.5,1.1l-0.8-0.4l-1.4-0.1l-1.2,0.5c-0.3,0.4-0.5,0.8-0.7,1.1c0,0.5-0.1,1.1-0.1,1.6
	c-0.5-0.2-1-0.4-1.5-0.7l-0.9,0.2l-1.4,1.4l1.6-0.8c0.4,0.1,0.8,0.2,1.2,0.3C64.9,122.8,65.2,123,65.5,123.2z"/>
<path style="fill:none;stroke:#231F20;stroke-miterlimit:10;" d="M78.8,143.4l0.1-0.5c0-0.8,0.1-1.7,0.1-2.5
	c-0.2-0.9-0.5-1.8-0.7-2.7c0.1-0.1,0.2-0.1,0.3-0.2c0.4,0.6,0.8,1.3,1.3,1.9c0.3-0.9,0.7-1.8,1-2.6c0.3-0.4,0.6-0.7,0.9-1.1
	c0.1,0.2,0.2,0.3,0.3,0.5l-1.7,4.2c-0.2,1.1-0.5,2.2-0.7,3.3c0,0.3,0.1,0.5,0.1,0.8c-0.1,0.6-0.2,1.2-0.2,1.8
	c-0.4,0.5-0.8,1.1-1.2,1.6c-0.8,1.7-1.7,3.5-2.5,5.2c-0.2,0.7-0.3,1.3-0.4,2c-0.8,0.1-1.7,0.1-2.5,0.1c-0.2-0.3-0.4-0.5-0.6-0.8
	c-0.1-0.2-0.2-0.5-0.3-0.8c-0.1-0.6-0.3-1.2-0.4-1.8c-0.1-0.3-0.2-0.5-0.4-0.8l-0.7,0.4c-0.2,0-0.4,0-0.6-0.1
	c-0.2-0.3-0.3-0.7-0.5-1c-0.7-0.6-1.4-1.2-2.1-1.9c-0.5-0.8-1.1-1.7-1.6-2.5l-1.5-2.8c0.3-0.1,0.7-0.2,1-0.3c0.3,0.7,0.7,1.3,1,2
	c0.4,0.6,0.8,1.2,1.1,1.7c0.7,0.6,1.5,1.3,2.2,1.9l2.5,1.5l0.5-0.5c0.1-0.7,0.2-1.5,0.4-2.2c-0.1-1.3-0.2-2.5-0.4-3.8
	c-0.2-0.8-0.4-1.5-0.7-2.3c0.2-0.2,0.4-0.4,0.7-0.7c0.2-0.5,0.4-0.9,0.5-1.4c0.3,1.3,0.6,2.6,1,3.9c0.1,0.7,0.2,1.3,0.3,2
	c0.2,0.6,0.4,1.3,0.6,1.9l1.3-0.2c0.4-0.3,0.7-0.6,1.1-0.8c0.3-0.4,0.5-0.8,0.8-1.2C78.6,144.3,78.7,143.9,78.8,143.4L78.8,143.4z"
	/>
<path style="fill:none;stroke:#231F20;stroke-miterlimit:10;" d="M78.8,143.4l0.1-0.5c0-0.8,0.1-1.7,0.1-2.5
	c-0.2-0.9-0.5-1.8-0.7-2.7c0.1-0.1,0.2-0.1,0.3-0.2c0.4,0.6,0.8,1.3,1.3,1.9c0.3-0.9,0.7-1.8,1-2.6c0.3-0.4,0.6-0.7,0.9-1.1
	c0.1,0.2,0.2,0.3,0.3,0.5l-1.7,4.2c-0.2,1.1-0.5,2.2-0.7,3.3c0,0.3,0.1,0.5,0.1,0.8c-0.1,0.6-0.2,1.2-0.2,1.8
	c-0.4,0.5-0.8,1.1-1.2,1.6c-0.8,1.7-1.7,3.5-2.5,5.2c-0.2,0.7-0.3,1.3-0.4,2c-0.8,0.1-1.7,0.1-2.5,0.1c-0.2-0.3-0.4-0.5-0.6-0.8
	c-0.1-0.2-0.2-0.5-0.3-0.8c-0.1-0.6-0.3-1.2-0.4-1.8c-0.1-0.3-0.2-0.5-0.4-0.8l-0.7,0.4c-0.2,0-0.4,0-0.6-0.1
	c-0.2-0.3-0.3-0.7-0.5-1c-0.7-0.6-1.4-1.2-2.1-1.9c-0.5-0.8-1.1-1.7-1.6-2.5l-1.5-2.8c0.3-0.1,0.7-0.2,1-0.3c0.3,0.7,0.7,1.3,1,2
	c0.4,0.6,0.8,1.2,1.1,1.7c0.7,0.6,1.5,1.3,2.2,1.9l2.5,1.5l0.5-0.5c0.1-0.7,0.2-1.5,0.4-2.2c-0.1-1.3-0.2-2.5-0.4-3.8
	c-0.2-0.8-0.4-1.5-0.7-2.3c0.2-0.2,0.4-0.4,0.7-0.7c0.2-0.5,0.4-0.9,0.5-1.4c0.3,1.3,0.6,2.6,1,3.9c0.1,0.7,0.2,1.3,0.3,2
	c0.2,0.6,0.4,1.3,0.6,1.9l1.3-0.2c0.4-0.3,0.7-0.6,1.1-0.8c0.3-0.4,0.5-0.8,0.8-1.2C78.6,144.3,78.7,143.9,78.8,143.4L78.8,143.4z"
	/>
<path style="fill:none;stroke:#231F20;stroke-miterlimit:10;" d="M54.8,162.1c-0.2,0.3-0.3,0.5-0.5,0.8c0,0.3,0.1,0.7,0.1,1
	c0,1.1,0.1,2.2,0.1,3.4c-0.2,1-0.5,1.9-0.8,2.9c-0.3,0.1-0.6,0.1-0.9,0.2l-1-0.1l-0.9-0.5c0.1-0.6,0.2-1.3,0.3-1.9
	c0.2-0.6,0.4-1.2,0.6-1.9c0-0.8,0-1.6-0.1-2.4c0-0.8,0-1.6-0.1-2.4c0.1-0.5,0.2-1,0.4-1.4c0.1-0.5,0.1-1,0.2-1.4
	c-0.1-0.3-0.2-0.6-0.3-0.8c0.1-1.5,0.2-3,0.3-4.5c0.1-0.5,0.2-1,0.4-1.4c0.7,0,1.4,0.1,2,0.1c0.1,0.1,0.2,0.2,0.3,0.4
	C55,155.4,54.9,158.7,54.8,162.1L54.8,162.1z"/>
<path style="fill:none;stroke:#231F20;stroke-miterlimit:10;" d="M54.8,162.1c-0.2,0.3-0.3,0.5-0.5,0.8c0,0.3,0.1,0.7,0.1,1
	c0,1.1,0.1,2.2,0.1,3.4c-0.2,1-0.5,1.9-0.8,2.9c-0.3,0.1-0.6,0.1-0.9,0.2l-1-0.1l-0.9-0.5c0.1-0.6,0.2-1.3,0.3-1.9
	c0.2-0.6,0.4-1.2,0.6-1.9c0-0.8,0-1.6-0.1-2.4c0-0.8,0-1.6-0.1-2.4c0.1-0.5,0.2-1,0.4-1.4c0.1-0.5,0.1-1,0.2-1.4
	c-0.1-0.3-0.2-0.6-0.3-0.8c0.1-1.5,0.2-3,0.3-4.5c0.1-0.5,0.2-1,0.4-1.4c0.7,0,1.4,0.1,2,0.1c0.1,0.1,0.2,0.2,0.3,0.4
	C55,155.4,54.9,158.7,54.8,162.1L54.8,162.1z"/>
<path style="fill:none;stroke:#231F20;stroke-miterlimit:10;" d="M59.7,157.5c-0.5,0-0.9,0.1-1.4,0.1l-3.1-0.2c0-0.8,0-1.6,0-2.3
	l3.5,0c1.1,0,2.1,0,3.2,0.1c2,0.1,3.9,0.3,5.8,0.4c0.2,0.8,0.4,1.6,0.6,2.4c-1.2,0-2.5,0-3.7,0C63,157.8,61.4,157.6,59.7,157.5
	L59.7,157.5z"/>
<path style="fill:none;stroke:#231F20;stroke-miterlimit:10;" d="M59.7,157.5c-0.5,0-0.9,0.1-1.4,0.1l-3.1-0.2c0-0.8,0-1.6,0-2.3
	l3.5,0c1.1,0,2.1,0,3.2,0.1c2,0.1,3.9,0.3,5.8,0.4c0.2,0.8,0.4,1.6,0.6,2.4c-1.2,0-2.5,0-3.7,0C63,157.8,61.4,157.6,59.7,157.5
	L59.7,157.5z"/>
<path style="fill:none;stroke:#231F20;stroke-miterlimit:10;" d="M55.9,165.7c-0.2-0.9-0.3-1.8-0.5-2.7c2,0.1,4,0.1,6,0.2
	c1.8,0,3.6,0,5.4,0l2.6,0.5c0.1,0.8,0.2,1.5,0.2,2.3c-1.8,0-3.7,0-5.5,0c-1.1,0-2.1-0.1-3.2-0.1L55.9,165.7L55.9,165.7z"/>
<path style="fill:none;stroke:#231F20;stroke-miterlimit:10;" d="M55.9,165.7c-0.2-0.9-0.3-1.8-0.5-2.7c2,0.1,4,0.1,6,0.2
	c1.8,0,3.6,0,5.4,0l2.6,0.5c0.1,0.8,0.2,1.5,0.2,2.3c-1.8,0-3.7,0-5.5,0c-1.1,0-2.1-0.1-3.2-0.1L55.9,165.7L55.9,165.7z"/>
<path style="fill:none;stroke:#231F20;stroke-miterlimit:10;" d="M73.9,170.1c-0.4,0.1-0.9,0.2-1.3,0.4l-1.2-0.4
	c-0.6-5.5-1.1-10.9-1.7-16.3c-0.2-0.4-0.4-0.8-0.6-1.2c0.5-0.1,1.1-0.1,1.6-0.2c0.3,0.4,0.6,0.9,0.9,1.3c0.1,1.5,0.3,2.9,0.4,4.4
	c0.3,2.5,0.6,5,0.9,7.5L73.9,170.1z"/>
<path style="fill:none;stroke:#231F20;stroke-miterlimit:10;" d="M73.9,170.1c-0.4,0.1-0.9,0.2-1.3,0.4l-1.2-0.4
	c-0.6-5.5-1.1-10.9-1.7-16.3c-0.2-0.4-0.4-0.8-0.6-1.2c0.5-0.1,1.1-0.1,1.6-0.2c0.3,0.4,0.6,0.9,0.9,1.3c0.1,1.5,0.3,2.9,0.4,4.4
	c0.3,2.5,0.6,5,0.9,7.5L73.9,170.1z"/>
<path style="fill:none;stroke:#231F20;stroke-miterlimit:10;" d="M73.1,162.3c0-0.9,0.1-1.7,0.2-2.6l1.7,0.1
	c-0.1,0.8-0.2,1.7-0.3,2.5C74.2,162.3,73.6,162.3,73.1,162.3z"/>
<path style="fill:none;stroke:#231F20;stroke-miterlimit:10;" d="M73.1,162.3c0-0.9,0.1-1.7,0.2-2.6l1.7,0.1
	c-0.1,0.8-0.2,1.7-0.3,2.5C74.2,162.3,73.6,162.3,73.1,162.3z"/>
<path style="fill:none;stroke:#231F20;stroke-miterlimit:10;" d="M72.8,157.8c0-0.6,0-1.3-0.1-1.9l10.3,0l2.3-0.2c0.1,0,0.2,0,0.2,0
	c0.7-0.1,1.3-0.1,2-0.2c0.1,0.1,0.3,0.3,0.5,0.4c0,0.5,0,1.1,0.1,1.6l-0.3,0.3c-3.7,0.1-7.4,0.3-11,0.4
	C76.7,158.2,72.8,157.8,72.8,157.8z"/>
<path style="fill:none;stroke:#231F20;stroke-miterlimit:10;" d="M72.8,157.8c0-0.6,0-1.3-0.1-1.9l10.3,0l2.3-0.2c0.1,0,0.2,0,0.2,0
	c0.7-0.1,1.3-0.1,2-0.2c0.1,0.1,0.3,0.3,0.5,0.4c0,0.5,0,1.1,0.1,1.6l-0.3,0.3c-3.7,0.1-7.4,0.3-11,0.4
	C76.7,158.2,72.8,157.8,72.8,157.8z"/>
<path style="fill:none;stroke:#231F20;stroke-miterlimit:10;" d="M73.7,166c-0.1-0.8-0.2-1.5-0.3-2.3c0.4-0.1,0.8-0.2,1.2-0.3
	c0.8,0,1.6,0,2.4,0.1l6.5-0.2c1.2,0.1,2.4,0.2,3.6,0.3c0,0.8,0,1.6,0,2.5c-1,0-2,0.1-3,0.1L73.7,166z"/>
<path style="fill:none;stroke:#231F20;stroke-miterlimit:10;" d="M73.7,166c-0.1-0.8-0.2-1.5-0.3-2.3c0.4-0.1,0.8-0.2,1.2-0.3
	c0.8,0,1.6,0,2.4,0.1l6.5-0.2c1.2,0.1,2.4,0.2,3.6,0.3c0,0.8,0,1.6,0,2.5c-1,0-2,0.1-3,0.1L73.7,166z"/>
<path style="fill:none;stroke:#231F20;stroke-miterlimit:10;" d="M88.9,165.2c0.1-3.2,0.2-6.5,0.3-9.7c0.2-0.3,0.4-0.6,0.7-0.9
	c-0.1-0.7-0.1-1.4-0.2-2.1l1.3-0.8l0.2,0c-0.1,1.9-0.2,3.9-0.2,5.8l-0.6,0.5c0.1,1,0.1,2,0.1,3c0,1-0.1,2-0.1,3c-0.1,1-0.2,2-0.3,3
	c-0.1,1.1-0.2,2.2-0.3,3.3c-0.6,0.1-1.3,0.2-1.9,0.3C88.2,168.6,88.5,166.9,88.9,165.2L88.9,165.2z"/>
<path style="fill:none;stroke:#231F20;stroke-miterlimit:10;" d="M88.9,165.2c0.1-3.2,0.2-6.5,0.3-9.7c0.2-0.3,0.4-0.6,0.7-0.9
	c-0.1-0.7-0.1-1.4-0.2-2.1l1.3-0.8l0.2,0c-0.1,1.9-0.2,3.9-0.2,5.8l-0.6,0.5c0.1,1,0.1,2,0.1,3c0,1-0.1,2-0.1,3c-0.1,1-0.2,2-0.3,3
	c-0.1,1.1-0.2,2.2-0.3,3.3c-0.6,0.1-1.3,0.2-1.9,0.3C88.2,168.6,88.5,166.9,88.9,165.2L88.9,165.2z"/>
<path style="fill:none;stroke:#231F20;stroke-miterlimit:10;" d="M91.1,165.7c0-0.5,0-1,0.1-1.5l0.5-0.7c1,0,2-0.1,3-0.1l3.5,0.3
	c3.8,0.2,7.6,0.4,11.5,0.7c0.1,0.3,0.1,0.7,0.2,1c-0.1,0.4-0.2,0.9-0.3,1.3c0,0-0.1,0.1-0.1,0.1l-0.7-0.4l-8.4,0c-2.8,0-5.7,0-8.5,0
	C91.6,166.2,91.3,166,91.1,165.7L91.1,165.7z"/>
<path style="fill:none;stroke:#231F20;stroke-miterlimit:10;" d="M91.1,165.7c0-0.5,0-1,0.1-1.5l0.5-0.7c1,0,2-0.1,3-0.1l3.5,0.3
	c3.8,0.2,7.6,0.4,11.5,0.7c0.1,0.3,0.1,0.7,0.2,1c-0.1,0.4-0.2,0.9-0.3,1.3c0,0-0.1,0.1-0.1,0.1l-0.7-0.4l-8.4,0c-2.8,0-5.7,0-8.5,0
	C91.6,166.2,91.3,166,91.1,165.7L91.1,165.7z"/>
<path style="fill:none;stroke:#231F20;stroke-miterlimit:10;" d="M92,157.5c0-0.3-0.1-0.7-0.1-1c0.1-0.2,0.1-0.4,0.2-0.6l2.7-0.4
	l8.7-0.2c1.9,0.1,3.9,0.1,5.9,0.2c0,0.8-0.1,1.7-0.1,2.6l-4.2-0.2c-2.1-0.1-4.1-0.1-6.2-0.2c-1.9,0-3.9,0.1-5.8,0.1L92,157.5
	L92,157.5z"/>
<path style="fill:none;stroke:#231F20;stroke-miterlimit:10;" d="M92,157.5c0-0.3-0.1-0.7-0.1-1c0.1-0.2,0.1-0.4,0.2-0.6l2.7-0.4
	l8.7-0.2c1.9,0.1,3.9,0.1,5.9,0.2c0,0.8-0.1,1.7-0.1,2.6l-4.2-0.2c-2.1-0.1-4.1-0.1-6.2-0.2c-1.9,0-3.9,0.1-5.8,0.1L92,157.5
	L92,157.5z"/>
<path style="fill:none;stroke:#231F20;stroke-miterlimit:10;" d="M114,157.5c-0.2-0.3-0.3-0.7-0.5-1c0-0.5,0.1-1,0.1-1.5l13.8,0.4
	c2,0.2,4,0.3,6.1,0.5c0.1,0.2,0.3,0.4,0.4,0.6c0,0.5,0,1,0,1.4c-0.1,0.3-0.2,0.7-0.3,1.1l-7.6-0.3C122,158.3,118,157.9,114,157.5
	L114,157.5z"/>
<path style="fill:none;stroke:#231F20;stroke-miterlimit:10;" d="M114,157.5c-0.2-0.3-0.3-0.7-0.5-1c0-0.5,0.1-1,0.1-1.5l13.8,0.4
	c2,0.2,4,0.3,6.1,0.5c0.1,0.2,0.3,0.4,0.4,0.6c0,0.5,0,1,0,1.4c-0.1,0.3-0.2,0.7-0.3,1.1l-7.6-0.3C122,158.3,118,157.9,114,157.5
	L114,157.5z"/>
<path style="fill:none;stroke:#231F20;stroke-miterlimit:10;" d="M113.3,164.8c0.2,1.7,0.5,3.3,0.7,4.9c0,0.5-0.1,1-0.1,1.5
	l-1.5,0.1c-0.3-0.3-0.7-0.6-1-0.9c-0.1-0.4-0.1-0.7-0.2-1.1c0.1-0.7,0.1-1.4,0.2-2c0.1-0.6,0.1-1.1,0.2-1.7l-0.4-6.7
	c-0.2-2.3-0.3-4.7-0.5-7c0.4,0.2,0.7,0.4,1.1,0.5l0.3-0.9c0.2,0.1,0.5,0.3,0.7,0.4c-0.1,0.6-0.3,1.1-0.4,1.7c0.2,2,0.4,3.9,0.6,5.9
	C113.2,161.3,113.2,163.1,113.3,164.8L113.3,164.8z"/>
<path style="fill:none;stroke:#231F20;stroke-miterlimit:10;" d="M113.3,164.8c0.2,1.7,0.5,3.3,0.7,4.9c0,0.5-0.1,1-0.1,1.5
	l-1.5,0.1c-0.3-0.3-0.7-0.6-1-0.9c-0.1-0.4-0.1-0.7-0.2-1.1c0.1-0.7,0.1-1.4,0.2-2c0.1-0.6,0.1-1.1,0.2-1.7l-0.4-6.7
	c-0.2-2.3-0.3-4.7-0.5-7c0.4,0.2,0.7,0.4,1.1,0.5l0.3-0.9c0.2,0.1,0.5,0.3,0.7,0.4c-0.1,0.6-0.3,1.1-0.4,1.7c0.2,2,0.4,3.9,0.6,5.9
	C113.2,161.3,113.2,163.1,113.3,164.8L113.3,164.8z"/>
<path style="fill:none;stroke:#231F20;stroke-miterlimit:10;" d="M114.7,166.5c-0.1-0.1-0.2-0.2-0.2-0.3c0-0.7,0-1.3,0-2
	c2.8,0,5.6,0,8.4,0c3.1,0.2,6.1,0.5,9.2,0.7l1.4,0.1c0.1,0.1,0.3,0.3,0.4,0.4c0.1,0.4,0.2,0.8,0.3,1.2c0.1,0.3,0.1,0.7,0.2,1
	c-0.5,0.1-1,0.2-1.5,0.3c-5-0.3-10-0.6-15-0.9L114.7,166.5L114.7,166.5z"/>
<path style="fill:none;stroke:#231F20;stroke-miterlimit:10;" d="M114.7,166.5c-0.1-0.1-0.2-0.2-0.2-0.3c0-0.7,0-1.3,0-2
	c2.8,0,5.6,0,8.4,0c3.1,0.2,6.1,0.5,9.2,0.7l1.4,0.1c0.1,0.1,0.3,0.3,0.4,0.4c0.1,0.4,0.2,0.8,0.3,1.2c0.1,0.3,0.1,0.7,0.2,1
	c-0.5,0.1-1,0.2-1.5,0.3c-5-0.3-10-0.6-15-0.9L114.7,166.5L114.7,166.5z"/>
<path style="fill:none;stroke:#231F20;stroke-miterlimit:10;" d="M135.9,169.4c0-1.2,0-2.4,0-3.5c0-1.2,0.1-2.3,0.1-3.5
	c0-1-0.1-2-0.1-3c-0.2-1-0.3-2-0.5-3c-0.1-0.4-0.1-0.7-0.2-1.1c-0.1-0.4-0.3-0.7-0.4-1.1c0-0.1,0.1-0.1,0.2-0.2
	c0-0.1,0.1-0.1,0.2-0.2c0-0.3,0.1-0.6,0.2-0.9c0.2-0.2,0.3-0.5,0.5-0.7l0.6-0.5l0.7-0.3c0.1,0.5,0.3,0.9,0.4,1.4c0,0.4,0,0.9,0,1.3
	c-0.1,0.8-0.2,1.6-0.3,2.4c0.1,0.8,0.1,1.5,0.2,2.3c0.1,1.1,0.2,2.3,0.3,3.4c0.1,1.2,0.1,2.3,0.2,3.4c0,1.1,0,2.3,0.1,3.4
	c-0.1,1.1-0.2,2.3-0.2,3.4l-0.2,0.1l-0.5-0.1c-0.2-0.1-0.4-0.3-0.6-0.4l-0.4-0.6c0-0.3-0.1-0.7-0.1-1
	C135.9,170,135.9,169.7,135.9,169.4L135.9,169.4z"/>
<path style="fill:none;stroke:#231F20;stroke-miterlimit:10;" d="M135.9,169.4c0-1.2,0-2.4,0-3.5c0-1.2,0.1-2.3,0.1-3.5
	c0-1-0.1-2-0.1-3c-0.2-1-0.3-2-0.5-3c-0.1-0.4-0.1-0.7-0.2-1.1c-0.1-0.4-0.3-0.7-0.4-1.1c0-0.1,0.1-0.1,0.2-0.2
	c0-0.1,0.1-0.1,0.2-0.2c0-0.3,0.1-0.6,0.2-0.9c0.2-0.2,0.3-0.5,0.5-0.7l0.6-0.5l0.7-0.3c0.1,0.5,0.3,0.9,0.4,1.4c0,0.4,0,0.9,0,1.3
	c-0.1,0.8-0.2,1.6-0.3,2.4c0.1,0.8,0.1,1.5,0.2,2.3c0.1,1.1,0.2,2.3,0.3,3.4c0.1,1.2,0.1,2.3,0.2,3.4c0,1.1,0,2.3,0.1,3.4
	c-0.1,1.1-0.2,2.3-0.2,3.4l-0.2,0.1l-0.5-0.1c-0.2-0.1-0.4-0.3-0.6-0.4l-0.4-0.6c0-0.3-0.1-0.7-0.1-1
	C135.9,170,135.9,169.7,135.9,169.4L135.9,169.4z"/>
<path style="fill:none;stroke:#231F20;stroke-miterlimit:10;" d="M140.5,159.2c-0.6-0.2-1.1-0.3-1.7-0.5c-0.2-0.7-0.4-1.3-0.6-2
	c0.1-0.2,0.3-0.5,0.4-0.7l3.8,0c3.1,0.1,6.2,0.1,9.3,0.2c0.8-0.1,1.6-0.1,2.4-0.2l1.1,0c0.2,0.2,0.5,0.5,0.7,0.7
	c0.3,0.9,0.6,1.9,0.8,2.8l-1.8,0.2l-12.1-0.7C142,159.1,141.3,159.2,140.5,159.2L140.5,159.2z"/>
<path style="fill:none;stroke:#231F20;stroke-miterlimit:10;" d="M140.5,159.2c-0.6-0.2-1.1-0.3-1.7-0.5c-0.2-0.7-0.4-1.3-0.6-2
	c0.1-0.2,0.3-0.5,0.4-0.7l3.8,0c3.1,0.1,6.2,0.1,9.3,0.2c0.8-0.1,1.6-0.1,2.4-0.2l1.1,0c0.2,0.2,0.5,0.5,0.7,0.7
	c0.3,0.9,0.6,1.9,0.8,2.8l-1.8,0.2l-12.1-0.7C142,159.1,141.3,159.2,140.5,159.2L140.5,159.2z"/>
<path style="fill:none;stroke:#231F20;stroke-miterlimit:10;" d="M160.7,165.8c-0.3-0.7-0.5-1.5-0.8-2.3c-0.3-0.8-0.6-1.6-0.9-2.4
	c-0.4-1-0.8-2-1.1-3c-0.4-1-0.9-2-1.3-3c0.1-0.1,0.1-0.2,0.2-0.3c0.1-0.1,0.2-0.1,0.3-0.2c0.1-0.1,0.1-0.2,0.2-0.4
	c0-0.2-0.1-0.4-0.1-0.5c0-0.1,0-0.3,0-0.4c0.1-0.1,0.1-0.2,0.2-0.3l0.6-0.2l0.6-0.1l0.6,0c0.2,0.1,0.3,0.3,0.5,0.4
	c0,0.3,0,0.5,0,0.8c0,0.3,0,0.6,0,0.8c0.3,0.8,0.5,1.6,0.8,2.4c0.2,0.8,0.4,1.7,0.7,2.5c0,0.2,0,0.4,0,0.6c0,0.2,0,0.4,0,0.7
	c0,0.4-0.1,0.7-0.1,1.1c0.1,0.4,0.2,0.7,0.2,1c0.1,0.4,0.2,0.7,0.3,1.1c0.1,0.4,0.3,0.7,0.4,1.1c0.2,0.4,0.3,0.8,0.5,1.2
	c0.1,0.4,0.2,0.8,0.3,1.2c0.1,0.5,0.3,1,0.4,1.5l0.6,1.4c0.2,0.5,0.3,0.9,0.5,1.4c0,0.5,0.1,1,0.1,1.4c-0.1,0.2-0.2,0.3-0.4,0.4
	l-0.7,0c-0.3-0.1-0.6-0.2-0.8-0.2c-0.3-0.1-0.5-0.2-0.8-0.3c0-0.6,0-1.2,0-1.8c-0.1-0.6-0.2-1.2-0.2-1.9c-0.2-0.6-0.3-1.2-0.5-1.8
	C161.1,167,160.9,166.4,160.7,165.8L160.7,165.8z"/>
<path style="fill:none;stroke:#231F20;stroke-miterlimit:10;" d="M160.7,165.8c-0.3-0.7-0.5-1.5-0.8-2.3c-0.3-0.8-0.6-1.6-0.9-2.4
	c-0.4-1-0.8-2-1.1-3c-0.4-1-0.9-2-1.3-3c0.1-0.1,0.1-0.2,0.2-0.3c0.1-0.1,0.2-0.1,0.3-0.2c0.1-0.1,0.1-0.2,0.2-0.4
	c0-0.2-0.1-0.4-0.1-0.5c0-0.1,0-0.3,0-0.4c0.1-0.1,0.1-0.2,0.2-0.3l0.6-0.2l0.6-0.1l0.6,0c0.2,0.1,0.3,0.3,0.5,0.4
	c0,0.3,0,0.5,0,0.8c0,0.3,0,0.6,0,0.8c0.3,0.8,0.5,1.6,0.8,2.4c0.2,0.8,0.4,1.7,0.7,2.5c0,0.2,0,0.4,0,0.6c0,0.2,0,0.4,0,0.7
	c0,0.4-0.1,0.7-0.1,1.1c0.1,0.4,0.2,0.7,0.2,1c0.1,0.4,0.2,0.7,0.3,1.1c0.1,0.4,0.3,0.7,0.4,1.1c0.2,0.4,0.3,0.8,0.5,1.2
	c0.1,0.4,0.2,0.8,0.3,1.2c0.1,0.5,0.3,1,0.4,1.5l0.6,1.4c0.2,0.5,0.3,0.9,0.5,1.4c0,0.5,0.1,1,0.1,1.4c-0.1,0.2-0.2,0.3-0.4,0.4
	l-0.7,0c-0.3-0.1-0.6-0.2-0.8-0.2c-0.3-0.1-0.5-0.2-0.8-0.3c0-0.6,0-1.2,0-1.8c-0.1-0.6-0.2-1.2-0.2-1.9c-0.2-0.6-0.3-1.2-0.5-1.8
	C161.1,167,160.9,166.4,160.7,165.8L160.7,165.8z"/>
<path style="fill:none;stroke:#231F20;stroke-miterlimit:10;" d="M163.6,160.2l-0.8-0.1c-0.3-0.3-0.6-0.7-0.8-1
	c-0.2-0.4-0.3-0.9-0.5-1.4c0-0.2,0.1-0.4,0.1-0.5c0.2-0.2,0.3-0.4,0.5-0.6l8.7,0.5c0.7,0,1.5-0.1,2.3-0.1c0.1,1.1,0.2,2.1,0.3,3.2
	c-2.9-0.1-5.8-0.2-8.7-0.3L163.6,160.2L163.6,160.2z"/>
<path style="fill:none;stroke:#231F20;stroke-miterlimit:10;" d="M163.6,160.2l-0.8-0.1c-0.3-0.3-0.6-0.7-0.8-1
	c-0.2-0.4-0.3-0.9-0.5-1.4c0-0.2,0.1-0.4,0.1-0.5c0.2-0.2,0.3-0.4,0.5-0.6l8.7,0.5c0.7,0,1.5-0.1,2.3-0.1c0.1,1.1,0.2,2.1,0.3,3.2
	c-2.9-0.1-5.8-0.2-8.7-0.3L163.6,160.2L163.6,160.2z"/>
<path style="fill:none;stroke:#231F20;stroke-miterlimit:10;" d="M164.8,169.3c-0.5-1-0.9-2-1.4-3l9.6,0.6c0.2,0.2,0.4,0.5,0.5,0.7
	c0,0.5-0.1,1-0.1,1.5c-0.7,0.2-1.4,0.4-2.1,0.6L164.8,169.3L164.8,169.3z"/>
<path style="fill:none;stroke:#231F20;stroke-miterlimit:10;" d="M164.8,169.3c-0.5-1-0.9-2-1.4-3l9.6,0.6c0.2,0.2,0.4,0.5,0.5,0.7
	c0,0.5-0.1,1-0.1,1.5c-0.7,0.2-1.4,0.4-2.1,0.6L164.8,169.3L164.8,169.3z"/>
<path style="fill:none;stroke:#231F20;stroke-miterlimit:10;" d="M139.1,167.1c0-0.5,0-1,0-1.6c0.2-0.2,0.4-0.3,0.6-0.5
	c0.7,0.1,1.4,0.2,2.1,0.2l7.8-0.1c3,0.2,6,0.5,9.1,0.7c0.2,0.3,0.4,0.6,0.7,0.9c0.1,0.4,0.2,0.8,0.3,1.2c0,0.3-0.1,0.6-0.1,0.9
	c-5-0.2-10-0.4-15-0.6c-1.7-0.2-3.3-0.4-5-0.6C139.4,167.5,139.3,167.3,139.1,167.1z"/>
<path style="fill:none;stroke:#231F20;stroke-miterlimit:10;" d="M139.1,167.1c0-0.5,0-1,0-1.6c0.2-0.2,0.4-0.3,0.6-0.5
	c0.7,0.1,1.4,0.2,2.1,0.2l7.8-0.1c3,0.2,6,0.5,9.1,0.7c0.2,0.3,0.4,0.6,0.7,0.9c0.1,0.4,0.2,0.8,0.3,1.2c0,0.3-0.1,0.6-0.1,0.9
	c-5-0.2-10-0.4-15-0.6c-1.7-0.2-3.3-0.4-5-0.6C139.4,167.5,139.3,167.3,139.1,167.1z"/>
<path style="fill:#231F20;" d="M156,174.7c-0.3-0.1-0.6-0.1-1-0.2c-0.4,0.1-0.8,0.2-1.1,0.2c0,0.1,0.1,0.2,0.2,0.4l0.6,0l0.5-0.1
	l1.1,0.2C156.1,175,156,174.8,156,174.7L156,174.7z"/>
<path style="fill:none;stroke:#231F20;stroke-width:0.214;stroke-linejoin:bevel;stroke-miterlimit:2.613;" d="M156,174.7
	c-0.3-0.1-0.6-0.1-1-0.2c-0.4,0.1-0.8,0.2-1.1,0.2c0,0.1,0.1,0.2,0.2,0.4l0.6,0l0.5-0.1l1.1,0.2C156.1,175,156,174.8,156,174.7
	L156,174.7z"/>
<path style="fill:none;stroke:#231F20;stroke-miterlimit:10;" d="M246.5,124.4c0.8,0,1.5,0.5,1.5,1.3c0,0.7-0.6,1.3-1.4,1.4
	s-1.5-0.5-1.5-1.3C245,125,245.7,124.4,246.5,124.4"/>
<path style="fill:none;stroke:#231F20;stroke-miterlimit:10;" d="M231.7,134.3c0.8,0,1.5,0.5,1.5,1.3c0,0.7-0.6,1.3-1.4,1.4
	s-1.5-0.5-1.5-1.3C230.3,135,230.9,134.4,231.7,134.3"/>
<path style="fill:none;stroke:#231F20;stroke-miterlimit:10;" d="M235.7,128.2c0.8,0,1.5,0.5,1.5,1.3c0,0.7-0.6,1.3-1.4,1.4
	c-0.8,0-1.5-0.5-1.5-1.3C234.3,128.8,234.9,128.2,235.7,128.2"/>
<path style="fill:none;stroke:#231F20;stroke-miterlimit:10;" d="M240.4,134.4c0.8,0,1.5,0.5,1.5,1.3c0,0.7-0.6,1.3-1.4,1.4
	c-0.8,0-1.5-0.5-1.5-1.3C238.9,135.1,239.6,134.5,240.4,134.4"/>
<path style="fill:none;stroke:#231F20;stroke-miterlimit:10;" d="M235.8,136.4c0.8,0,1.5,0.5,1.5,1.3c0,0.7-0.6,1.3-1.4,1.4
	c-0.8,0-1.5-0.5-1.5-1.3S235.1,136.5,235.8,136.4"/>
<path style="fill:none;stroke:#231F20;stroke-miterlimit:10;" d="M241.7,128c0.8,0,1.5,0.5,1.5,1.3c0,0.7-0.6,1.3-1.4,1.4
	c-0.8,0-1.5-0.5-1.5-1.3C240.3,128.6,240.9,128,241.7,128"/>
<path style="fill:none;stroke:#231F20;stroke-miterlimit:10;" d="M240.9,122c0.8,0,1.5,0.5,1.5,1.3c0,0.7-0.6,1.3-1.4,1.4
	s-1.5-0.5-1.5-1.3C239.5,122.6,240.1,122,240.9,122"/>
<path style="fill:none;stroke:#231F20;stroke-miterlimit:10;" d="M256,124.1c0.8,0,1.5,0.5,1.5,1.3c0,0.7-0.6,1.3-1.4,1.4
	c-0.8,0-1.5-0.5-1.5-1.3C254.6,124.7,255.2,124.1,256,124.1"/>
<path style="fill:none;stroke:#231F20;stroke-miterlimit:10;" d="M255.5,133.8c0.8,0,1.5,0.5,1.5,1.3c0,0.7-0.6,1.3-1.4,1.4
	s-1.5-0.5-1.5-1.3C254.1,134.4,254.7,133.8,255.5,133.8"/>
<path style="fill:none;stroke:#231F20;stroke-miterlimit:10;" d="M253.4,120.7c0.8,0,1.5,0.5,1.5,1.3c0,0.7-0.6,1.3-1.4,1.4
	c-0.8,0-1.5-0.5-1.5-1.3C252,121.3,252.6,120.7,253.4,120.7"/>
<path style="fill:none;stroke:#231F20;stroke-miterlimit:10;" d="M267.8,135.4c0.8,0,1.5,0.5,1.5,1.3c0,0.7-0.6,1.3-1.4,1.4
	s-1.5-0.5-1.5-1.3S267,135.4,267.8,135.4"/>
<path style="fill:none;stroke:#231F20;stroke-miterlimit:10;" d="M265.6,128.5c0.8,0,1.5,0.5,1.5,1.3c0,0.7-0.6,1.3-1.4,1.4
	c-0.8,0-1.5-0.5-1.5-1.3C264.2,129.1,264.8,128.5,265.6,128.5"/>
<path style="fill:none;stroke:#231F20;stroke-miterlimit:10;" d="M260.2,140.5c0.8,0,1.5,0.5,1.5,1.3c0,0.7-0.6,1.3-1.4,1.4
	s-1.5-0.5-1.5-1.3C258.8,141.1,259.4,140.5,260.2,140.5"/>
<path style="fill:none;stroke:#231F20;stroke-miterlimit:10;" d="M262.1,134.8c0.8,0,1.5,0.5,1.5,1.3c0,0.7-0.6,1.3-1.4,1.4
	c-0.8,0-1.5-0.5-1.5-1.3C260.7,135.4,261.3,134.8,262.1,134.8"/>
<path style="fill:none;stroke:#231F20;stroke-miterlimit:10;" d="M278.1,145.9c0.8,0,1.5,0.5,1.5,1.3c0,0.7-0.6,1.3-1.4,1.4
	s-1.5-0.5-1.5-1.3C276.6,146.6,277.3,146,278.1,145.9"/>
<path style="fill:none;stroke:#231F20;stroke-miterlimit:10;" d="M278.8,137.1c0.8,0,1.5,0.5,1.5,1.3c0,0.7-0.6,1.3-1.4,1.4
	c-0.8,0-1.5-0.5-1.5-1.3C277.4,137.7,278,137.1,278.8,137.1"/>
<path style="fill:none;stroke:#231F20;stroke-miterlimit:10;" d="M272,140.4c0.8,0,1.5,0.5,1.5,1.3c0,0.7-0.6,1.3-1.4,1.4
	s-1.5-0.5-1.5-1.3C270.6,141,271.2,140.4,272,140.4"/>
<path style="fill:none;stroke:#231F20;stroke-miterlimit:10;" d="M272.6,130c0.8,0,1.5,0.5,1.5,1.3c0,0.7-0.6,1.3-1.4,1.4
	c-0.8,0-1.5-0.5-1.5-1.3S271.8,130,272.6,130"/>
<path style="fill:none;stroke:#231F20;stroke-miterlimit:10;" d="M248.1,133.9c0.8,0,1.5,0.5,1.5,1.3c0,0.7-0.6,1.3-1.4,1.4
	c-0.8,0-1.5-0.5-1.5-1.3C246.7,134.6,247.3,134,248.1,133.9"/>
<path style="fill:none;stroke:#231F20;stroke-miterlimit:10;" d="M235.2,140.9c0.8,0,1.5,0.5,1.5,1.3c0,0.7-0.6,1.3-1.4,1.4
	c-0.8,0-1.5-0.5-1.5-1.3C233.8,141.5,234.4,140.9,235.2,140.9"/>
<path style="fill:none;stroke:#231F20;stroke-miterlimit:10;" d="M244.7,114.8c0.8,0,1.5,0.5,1.5,1.3c0,0.7-0.6,1.3-1.4,1.4
	c-0.8,0-1.5-0.5-1.5-1.3C243.3,115.4,243.9,114.8,244.7,114.8"/>
<path style="fill:none;stroke:#231F20;stroke-miterlimit:10;" d="M253,131.7c0.8,0,1.5,0.5,1.5,1.3c0,0.7-0.6,1.3-1.4,1.4
	c-0.8,0-1.5-0.5-1.5-1.3C251.6,132.3,252.2,131.7,253,131.7"/>
<path style="fill:#231F20;" d="M51.3,168.8L0,170.4l51.4,0.3L51.3,168.8"/>
<path style="fill:none;stroke:#231F20;stroke-miterlimit:10;" d="M272,94.7h13.7v10.5H272V94.7z"/>
</svg>
