<?xml version="1.0" encoding="utf-8"?>
<!-- Generator: Adobe Illustrator 22.1.0, SVG Export Plug-In . SVG Version: 6.00 Build 0)  -->
<svg version="1.1" id="Layer_1" xmlns="http://www.w3.org/2000/svg" xmlns:xlink="http://www.w3.org/1999/xlink" x="0px" y="0px"
	 viewBox="0 0 1417.3 1417.3" style="enable-background:new 0 0 1417.3 1417.3;" xml:space="preserve">
<style type="text/css">
	.st0{fill:none;stroke:#000000;stroke-width:3;stroke-miterlimit:10;}
</style>
<g>
	<path class="st0" d="M231,776.3c83-97,106-85,106-85s3.3-2.2,5-3.1c92-47.9,125,3.1,125,3.1s3.4,2.3,4.7,2.5
		C627.4,722.4,613,768.3,613,768.3s3.5,4.8,4.9,4.1C661,751.3,720,856.3,720,856.3s20.2-91.5,73.8-91.3c3.6,0,7.6,3.1,11.2,1.3
		c88-44,154-21,154-21s5.9-3.7,8.7-5.5c63.3-40.5,117.8,19.1,117.8,19.1s3.4,6,5.5,6.4c72,14,81,91,81,91s84-102-136-288
		c-3.4-2.9,8.6-11.6,8-16c-0.2-1.5-3.4-2.5-6.2-0.5c-27.8,19.5-157,92.1-298.8,80.9C628.4,624.1,532.1,528.5,483,486.3
		c-1.5-1.3-7.3-1.9-8,0c-1,2.6,7.5,8.8,5,10C265.3,598.3,210,800.9,231,776.3L231,776.3z"/>
	<path class="st0" d="M1187.5,792c1.5,3.9-1.1-12.7-2.8-16.6c-26.1-60.3-159.7-208.8-159.7-208.8l-3.6,2.3
		C1021.4,568.9,1167.9,739.6,1187.5,792L1187.5,792z"/>
	<path class="st0" d="M691.1,514.1c-6,10.3-14.5,84.8,13.6,80.8v26.5c0,0-28.4,6.8-38.1,7.8c-14.8,1.5-46.6,0-58.8-8.4
		c-37.9-26.2-97.1-105-124.7-132.7c-1.4-1.4-9.3-0.5-8,1c28.8,31.9,125,144.6,125,144.6l76.9,15.5c0,0-22,45.8,0,67.8
		c2.4,2.4-0.5,11-3.2,12.9c-8.9,6.3-34,0.7-43.3,6.5c-8.1,4.9-17.3,32.4-17.3,32.4s-10.8,12.7-9.8,17.4c1.5,7.3,24.8-16.4,24.8-16.4
		s1.2-20.7,9.4-21.3c19.8-1.6,38.8-9.8,44.7,0.3c12.1,20.7,26.9,31.9,33.5,109.4c0.2,1.8,7.1,1.8,7.1,0c0-17.4-8-62.4-1.6-81.3
		c2.3-6.8,12.4-18.7,19.1-21c10.4-3.6,44.9-7.1,48.3,3.4c4.3,13.4,24.2,26.9,25.2,24.7c6.8-14.8-8.2-16.1-8.6-17.4
		c-3.8-11.8-3.6-15.7-4.1-17c-4-9.7-55.1-9.5-46.5-15.5c48.4-34.1,31-78.2,31-78.2l93.7,5.8c0,0,164.3-104.6,164.4-105.1
		c0.5-2.3-1.3-4.6-5.7-2.7c-16.7,7-117.7,80.9-161.9,94.9c-21.3,6.8-87.9-16.2-87.9-16.2s-4.4-27,1.9-29
		c33.3-10.2,31.9-54,31.9-80.3c0-1.6-41.9,37-50,27.9c-17.5-19.5-48.5-5.8-48.5-5.8S694.7,507.7,691.1,514.1L691.1,514.1z"/>
	<path class="st0" d="M732.7,591.5c0,0-23.8-3.2-23.8,11.5c0,6,3.1,15.5,18,15.7c6.8,0.1,12.3-7.3,12.3-7.3s5.5,7.3,18.3,7.3
		c12.8,0,14.8-8.7,15.2-13.6c1-13.1-23.8-13.6-23.8-13.6s9-4,9-8.8c0-12-12.6-10.5-16.1-10.6c-3.8-0.1-15.9-2.5-15.9,8.8
		C726.1,585.8,732.7,591.5,732.7,591.5L732.7,591.5z"/>
	<path class="st0" d="M738.9,594.7c-5.1-0.1-25-2-25.8,7.2c-0.4,5,7.8,10.5,17.2,10.6c5.7,0.1,8.8-4.9,8.8-4.9s4,4.5,9.7,4.9
		c10.4,0.6,19.4-3.3,19.4-8.6C768.3,595.7,742.8,594.8,738.9,594.7z"/>
	<path class="st0" d="M721.5,602.3c0,0,12.9-4.6,17.4-4.4c5.3,0.2,20.3,6.6,20.3,6.6s-15.1,1.2-20.1,0.9
		C734.7,605.1,721.5,602.3,721.5,602.3L721.5,602.3z"/>
	<path class="st0" d="M774.9,565.7c-4.5-1.6-12.3,9.8-12.3,14.6c-0.1,5,7.4,16.9,12.3,15.9C782.3,594.6,784.8,569.2,774.9,565.7
		L774.9,565.7z"/>
	<path class="st0" d="M712.5,562.3c4.5-1.6,12.3,9.8,12.3,14.6c0.1,5-7.4,16.9-12.3,15.9C705.1,591.2,702.6,565.8,712.5,562.3
		L712.5,562.3z"/>
	<path class="st0" d="M713.1,568.3c-4.2,1.6-4.4,17,0,18.1c3,0.8,8.4-5.9,8.4-9C721.5,574.4,716,567.2,713.1,568.3z"/>
	<path class="st0" d="M774.5,571.9c4.2,1.6,4.4,17,0,18.1c-3,0.8-8.4-5.9-8.4-9C766.1,577.9,771.7,570.7,774.5,571.9z"/>
	<ellipse class="st0" cx="773.8" cy="579.6" rx="4" ry="4.9"/>
	<ellipse class="st0" cx="713.9" cy="577.5" rx="4" ry="4.9"/>
	<ellipse class="st0" cx="713.9" cy="575.7" rx="2" ry="3.1"/>
	<ellipse class="st0" cx="773.8" cy="577.8" rx="2" ry="3.1"/>
	<ellipse class="st0" cx="733.8" cy="582.3" rx="2.3" ry="2.7"/>
	<ellipse class="st0" cx="748.1" cy="582.9" rx="2.3" ry="2.7"/>
	<path class="st0" d="M818.1,530.2c0,0-34.9,31.9-30.2,56.3c3.1,16.2,23.5-5.6,26.7-19.9C816.7,556.7,818.1,530.2,818.1,530.2z"/>
	<path class="st0" d="M693.1,522.9c-11.2,48.8,9.8,76,8.2,61.5c-1.5-13.9,8.7-34.4,8.7-34.4S695.1,513.9,693.1,522.9z"/>
	<path class="st0" d="M465,688.7c0.1,2.1,7,7.2,6.8,5.1c-10-114.8,23-184.4,23-184.4l-3.3-3.9C491.5,505.5,458,548.6,465,688.7
		L465,688.7z"/>
	<path class="st0" d="M485.3,512.9c0,0-112.6,122.3-140.1,172.9c-1.1,2.1-9.2,6.1-8.3,3.9c24.7-55.4,150.9-188.3,150.9-188.3
		l3.6,4.2L485.3,512.9L485.3,512.9z"/>
	<polygon class="st0" points="487.4,501.3 484.3,497.2 287.3,650.2 278.9,666 	"/>
	<path class="st0" d="M227.1,771.7c37.2-171,252.7-279,252.7-279l2.3,2.6c0,0-203.2,104.3-245.9,273.3c-0.9,3.4-9.4,10.5-9.4,10.5
		S225.9,777.6,227.1,771.7L227.1,771.7z"/>
	<path class="st0" d="M1013,574.3c0,0,9.3,80.7-54,171c-1.5,2.1,7.3-3.4,8.7-5.5c66.2-95.1,53.6-170.9,53.6-170.9L1013,574.3
		L1013,574.3z"/>
	<path class="st0" d="M1085.5,758.9c-0.4,1.4,3.3,4.7,3.3,4.7s5.4,4,5.7,2.4c11.7-65.8-67-201.1-67-201.1l-5.3,3.4
		C1022.2,568.4,1100.9,711.2,1085.5,758.9L1085.5,758.9z"/>
	<path class="st0" d="M1169.1,842.7c-1.6,3.1,1.1,16.6,2.9,13.6c74-123.8-141.3-293.3-141.3-293.3l-5.7,3.7
		C1025,566.6,1229.2,726.2,1169.1,842.7L1169.1,842.7z"/>
	<path class="st0" d="M694.9,725.4c2.5,8.1,12.6,27.2,21,26.4c29.5-2.5,63.3-53.2,61.9-100.8c-0.3-9.3-1.6-40.5-9.5-35.6
		c-15,9.3-28.9-4.1-28.9-4.1s-9.8,13.4-24.6,3.9C713.9,614.6,679.3,675.3,694.9,725.4L694.9,725.4z"/>
	<polygon class="st0" points="735.8,603.6 738.9,597.9 733.8,598.6 	"/>
	<polygon class="st0" points="741.2,598.2 740.7,603.6 744.8,599.1 	"/>
</g>
</svg>
