<?xml version="1.0" encoding="utf-8"?>
<!-- Generator: Adobe Illustrator 22.1.0, SVG Export Plug-In . SVG Version: 6.00 Build 0)  -->
<svg version="1.1" xmlns="http://www.w3.org/2000/svg" xmlns:xlink="http://www.w3.org/1999/xlink" x="0px" y="0px"
	 viewBox="0 0 512 512" style="enable-background:new 0 0 512 512;" xml:space="preserve">
<g id="Layer_3">
</g>
<g id="Layer_2">
	<g>
		<path d="M303.1,162.5c-0.2-0.2-0.3-0.4-0.5-0.5c-3,1.5-4.6,2.3-6.2,3.1c0.3,0.4,0.5,0.9,0.8,1.3
			C299.1,165.1,301.1,163.8,303.1,162.5z"/>
		<path d="M549.3,206.8c1.8,0,5.4-1.1,6.7,0.2c3.9,3.8,7,8.6,10.9,13.8c-3.4-0.2-5.4-0.3-7.1-0.4c0.7,5.6-4.3,6.3-7.2,8.7
			c1.3,0.5,2.2,0.8,3.1,1.1c-1.5,1.1-3.8,1.5-4.1,0.9c-0.6-1.2-0.2-3-0.2-5c-3.2-3.4-5.1,0.9-7.5,2.3c-3.2-3.4-6.3-6.6-9.5-10
			c1.2-1.1,2.3-2.1,3.4-3.1c-0.2-0.2-0.4-0.5-0.6-0.7c-3.5,2.4-7,4.9-10.5,7.3l0.3,0.3c4.7-2.9,8.1-1.2,10.8,2.9
			c2,3,3.8,6.1,5.7,9.1c-0.6,0.3-1.1,0.6-1.7,0.9c-0.3-0.6-0.6-1.2-1-2.1c-1.6,1-3.2,2-5.6,3.5c0.8-1.4,1.2-2.1,1.6-2.8
			c-2.5-0.3-4.9-0.7-7.8-1.1c0.7,1.5,1.3,2.9,2.4,5.4c-5.2,3.8-10.7,7.6-16.1,11.6c-3.8,2.9-9,4.4-10.5,10c-0.2,0.7-2.8,0.7-4.7-0.1
			c1.1-1,2.1-2,3.2-2.9c-0.1-0.2-0.3-0.4-0.4-0.6c-8.9,5.7-17.8,11.3-27.5,17.5c4.6-1.1,8.4-2,12.2-3c0.1,0.4,0.2,0.7,0.4,1.1
			c-4.6,2.9-9.2,5.9-14,8.9c-2.9-6.1-5.9-12.3-8.8-18.5c-0.3,0.1-0.6,0.3-0.9,0.4c2.4,6,4.9,12,7.3,18c-0.7,0.3-1.4,0.6-2,0.9
			c-2.5-5.4-4.9-10.8-7.4-16.2c-0.2,0.1-0.5,0.2-0.7,0.3c0.1,1.1,0.2,2.1,0.4,3.6c-1.7-0.2-3.1-0.4-4.4-0.6
			c-0.6-7.5,1.1-9.2,9.4-13.1c10.8-5,21.5-10.6,32.2-15.9c1.1-0.6,2-1.6,3-2.4L502,237c-2.7,1.2-5.5,2.3-8.2,3.5
			c-13.6,6.1-27.2,12.2-40.9,18.2c-1.2,0.5-3.3,1.1-3.7,0.6c-3-4-6.5-1.7-9.8-0.6c-1.5-1.6-2.7-3.3-4.3-4.4c-2.9-2-6-3.7-9.5-5.9
			c1.6-1.4,2.1-1.8,2.6-2.2c6.2-4.9,5.3-11.3-2-14.5c-0.9-0.4-1.8-2.5-1.6-3.6c1-5.2-1-9.1-4-12.9c0.9,2.9,1.7,5.8,2.6,8.8
			c-0.5,0.2-1.1,0.3-1.6,0.5c-0.9-3.2-1.5-6.6-2.7-9.7c-1-2.6-2.5-5.1-3.8-7.6c0,0,0.1,0.1,0.1,0.1c-0.1-0.1-0.1-0.1-0.2-0.2
			c0,0,0,0,0,0c0,0,0,0,0,0c-2.1-2-4-4.5-6.5-6c-4.3-2.6-8-5.1-8-10.9c0-1.3-1-3-2-3.7c-5.1-3.3-10.3-6.5-15.5-9.5
			c-1.1-0.6-2.6-0.7-3.8-0.5c-3.1,0.5-4.1-0.5-4-3.7c0.2-7.4-4.9-11-12.1-9.6c-2.7,0.5-5.8-0.8-8.6-1.6c-2.8-0.8-5.5-3.1-8.1-3
			c-5.1,0.3-10.7,0.9-15.2,3.2c-7.6,3.8-15.4-0.7-22.6,2.4c-2.7-7.9-3.5-8.4-11.2-10.6c-6.1-1.8-12.4-3.4-16.9-8.8
			c-1.6-1.9-4.7-3-7.4-3.6c-5.7-1.4-11.5-2.3-17.2-3.4c-0.4-0.1-0.8-0.6-1.2-0.8c-6.5-4.2-14-3.5-19.1,1.5c-2.3-0.9-4.7-2.9-6.5-2.4
			c-6.5,1.7-12.8,4-19.1,6.4c-3.3,1.2-6.4,3-9.6,4.5c-1.8,0.8-3.8,1.2-5.6,2c-2.6,1.1-4.8,2.5-3.3,6.1c0.2,0.6-0.3,2-0.9,2.2
			c-0.8,0.4-2.3,0.6-2.9,0.1c-3.7-3-7.7-2.3-11.9-1.8c-1.8,0.2-3.7-0.5-5.6-0.7c-3.3-0.3-6.6-0.7-10-0.8c-1.4,0-2.8,0.9-4.2,0.9
			c-4.1,0-8.2-0.7-12.3-0.5c-10.3,0.7-20.3,11.8-20.3,22.1c0,1.6,0,3.8,1,4.8c4.7,4.5,2.6,9.8,2.3,15c-0.4,7.7,0.9,14.7,6.5,20.7
			c3.3,3.6,6.2,8.1,7.9,12.8c1.7,4.7,3.1,9,8.6,10.9c-2.3,5.4-4.3,10.3-6.7,15.9c6.2,2.5,12.3,5,18.5,7.4c-0.3,0.8-0.6,1.6-1,2.4
			c-6-2.4-12.1-4.7-18.1-7.2c-0.5-0.2-1.2-1.1-1.1-1.5c1.3-6.9-4.7-7.5-8.1-7c-5.8,0.8-9.4-2.3-13.6-4.7
			c-7.3-4.2-14.7-8.4-22.1-12.5c-0.3-0.2-0.8,0.1-1.4,0.1c1.1,1.4,2,2.6,3.2,4.1c-1,0.2-1.7,0.3-1.8,0.4c0,2.6,0,5,0,8.3
			c-5.7-3.6-4.4-7.1-2.3-10.3c-5.6-4.5-11-8.8-16.3-13.1c0.3-0.4,0.6-0.7,0.9-1.1c4.7,3.5,9.3,7,14,10.5c-7-8.9-16.8-15.6-20.4-15.2
			c2.1,3.4,4.3,6.9,6.8,10.9c-2.6-1.1-4.6-2-6.7-2.8c-0.8,0.1-1.5,0.2-2.3,0.2c8,5.5-4.4,5.7-1,9.5c4.1,0.4,7.6,0.7,11,1
			c0.1,0.3,0.1,0.7,0.2,1c-6.4,3.6-12.9,7.2-18.7,10.4c1.8-11.2,3.4-21.7,5.3-32.3c0.2-1,2.1-1.7,3.4-2.8c0.2,0.3-0.1-0.2-0.5-0.7
			c-9.8-9.7-19.5-19.4-29.4-29c-5.5-5.3-11.9-8.9-19.8-7.7c-7.2,1.1-14.5,2.2-21.2,4.8c-14.2,5.6-24.3,16.7-33.9,28
			c-11.8,13.9-22.4,28.6-27.1,46.7c-0.8,3.2-1.7,6.4-2.5,9.6c0,5,0,10,0,15c2.4,7.8,4.8,15.7,11.8,20.8c3.2,2.3,6.8,4.2,10,6.5
			c31.7,22.3,65.9,39.5,102.5,51.9c30.4,10.3,62,15,93.6,19c34.3,4.4,68.6,3.1,102.6-1.9c53.9-8.1,106.1-22.7,156.4-43.5
			c16.7-6.9,33.2-14.9,48.4-24.6c32.6-20.8,64.1-43.1,92.9-69.2c8.9-8.1,17.4-16.4,21.7-28.1c0-2,0-4,0-6
			C571,198.7,555.2,200.7,549.3,206.8z M461.9,271.4c-1.5,2.7-2.7,4.8-4.3,7.7c-1.2-3.1-2.1-5.3-3.1-7.7
			C456.8,271.4,458.7,271.4,461.9,271.4z M419.7,241.3c2,6.6,10.4,9.1,10.6,17.7c-4.3-6.1-8.2-11.4-12-16.8
			C418.8,241.9,419.3,241.6,419.7,241.3z M397.8,193.1c2.8,3.4,5.6,6.7,8.7,10.4c4.1-2.3,6,1.5,8.6,3.7c0.6,1.7,1.5,3.3,1.7,5
			c0.2,1.8-0.3,3.6-0.5,5.4c-0.6,0-1.2-0.1-1.8-0.1c-0.1-1.4-0.1-2.7-0.3-4c-0.5-4.5-3.7-7.3-8.2-7.6c-0.9-0.1-2.2-0.4-2.6-1.1
			c-2.4-3.5-4.6-7.1-6.8-10.7C397,193.7,397.4,193.4,397.8,193.1z M411.2,214.6c1.8,4.7,3.6,9.2,5.6,14.3
			C411.9,226.6,409.4,219.7,411.2,214.6z M404.4,209.6c3.9-3.5,4.9-3.1,7.2,1.9c-0.3,0.5-0.6,1.1-0.9,1.6
			C408.7,212,406.7,210.9,404.4,209.6z M393.1,189.1c0.8-0.1,2.5,1.4,2.5,2.2c0,1.4-1,2.7-1.6,4.1c-0.7-0.4-1.3-0.8-2-1.2
			c-0.7-1-1.4-1.9-2.1-2.9C390.9,190.4,391.9,189.2,393.1,189.1z M376.3,178c-15.2-1.3-15.2-1.3-15.8-4.9
			C365.7,174.8,371,176.4,376.3,178z M364.9,164.3c2.3,0.9,5.1,1.3,6.9,2.9c1.4,1.3,1.7,3.9,1.6,6.5c-3-2.8-3.2-8.4-9.6-6.7
			C364.1,166.1,364.5,165.2,364.9,164.3z M364.3,169.8c-4.8-1.1-9-2.1-12.9-3C353.8,164,360.5,165.1,364.3,169.8z M353.4,169.1
			c-6.5,6.4-14,6.2-16.1-0.2C342.6,174.1,347.4,171.6,353.4,169.1z M341.1,169.7c2.2-1.6,1.5-6.9,6.5-4.8c0.7,0.3,1.4,2.5,1.3,2.6
			c-2.2,1.5-4.5,2.7-6.8,4C341.7,170.9,341.4,170.3,341.1,169.7z M341,164.1c0,0,0-0.1,0-0.1c0.1,0,0.2,0,0.2,0
			c1.3-4.8,6.6-5.3,11.4-1.1c-3.8,0.4-7.6,0.8-11.4,1.1c0,0.1,0,0.1-0.1,0.2C341.2,164.2,341.1,164.1,341,164.1c0,0.7,0,1.5,0,1.6
			c-4.5-0.3-8.9-0.6-13.4-0.9C331.7,161.8,336.4,162.7,341,164.1z M321.8,174.1c-6.5-1.1-13-2.3-19.5-3.4c0.1-0.6,0.2-1.2,0.2-1.8
			c3.4,0.5,6.9,0.6,10.2,1.4C315.8,171.1,318.8,172.5,321.8,174.1z M272.6,145.2c1.7,1.5,3.3,3.1,5,4.6c-1,0.7-2.2,2.2-2.8,2
			c-2.2-0.9-4.3-2.1-6-3.7c-0.4-0.4,0.8-2.6,1.3-4C270.9,144.5,271.8,144.8,272.6,145.2z M251.1,138.3c2.4,0.4,4.8,1,7.3,1.2
			c3.9,0.4,7.6,1.1,10.9,5.7c-7.3-4.5-11-4.6-16.4-0.3c2.4,0.7,4.7,2.3,6.3,1.7c4.1-1.4,5.9,0.8,8.2,3.3c2.8,3.1,6.3,4.8,10.6,3
			c0.5-0.1,1.1-0.2,1.6-0.3c3.1-2.8,10.6-1.7,13.6,2.7c1.7,2.5,3.1,4.8,6.5,5c0.7,0,1.4,0.6,2.7,1.3c-1.7-1.8-3.4-3.6-4.9-5.2
			c5.8-1.2,9.2,1.9,7.5,8c2.7,0.6,5.4,1.3,8.1,1.9c-0.1,0.4-0.1,0.8-0.2,1.2c-1,0-2,0-3,0c-3.7,0-7.3,0-11,0c-0.5,0-1,0.1-1.5,0.1
			c-4-0.1-16.3-7-18.7-10.5c-10.4-3.1-19.3-9.6-30.7-11.5C253.4,143.9,252.1,140.7,251.1,138.3z M233.2,140.1
			c2.6,2.3,4.7,4.7,8.7,2.5c-3.5,5.5-9.8,4.6-13.3,6.4c-0.3,0.4-0.6,0.7-1,0.7c0.3-0.3,0.7-0.5,1-0.7c1.1-1.8,1.5-6.5,6.8-3.3
			c-3.8-7.5-6-7.3-15.9,0.1C220.4,138.9,228,135.6,233.2,140.1z M223.7,146.2c-1.6,4.9-7.7,9.2-12.8,9.4
			C215,152.6,219.3,149.5,223.7,146.2z M214.8,145.4c3.5,3.7,1.6,5.2-0.7,6c-1.2,0.4-2.7-0.3-4.1-0.5
			C211.5,149.2,213,147.4,214.8,145.4z M204.6,153.1c0.4,0.4-0.2,2.9-1,3.7c-3,2.9-5.2,1.2-7.3-2.1
			C199,152.7,201.5,150.4,204.6,153.1z M208.4,153.2c0,6.4-5.2,9.8-12.3,7.8C201.3,160.2,206.2,158.9,208.4,153.2z M161.6,164.5
			c0.4-0.5,0.8-1,1.2-1.5c-0.7-2.3-1.3-4.5-2-6.8c5.3-2.4,9.1-0.7,12.6,7.4c-1.8-0.2-3.6-0.4-5.4-0.6c0.2-1.3,0.4-2.7,0.7-4.7
			c-0.9-0.4-2.5-1-4.7-1.8c0.8,3.1,1.4,5.4,2.3,9.1c-4.2-0.5-7.8-0.9-11.3-1.3c0-0.6-0.1-1.1-0.1-1.7c0.8-0.8,1.5-1.7,2.7-2.9
			c-2.1-1.2-4-2.1-6.4-3.5C157.6,155.2,159.4,160.2,161.6,164.5z M145.9,161.5c2,4,1.6,8.3-1.3,10.4c-3.3,2.3-6.5,1.7-10.2-1.6
			C142.8,172,143,171.8,145.9,161.5z M144.6,158.8c-1.2,4-2.3,7.7-3.4,11.4c-0.7-0.1-1.4-0.2-2.1-0.4c-1.5-3-3-5.9-4.5-8.9
			C137.9,160.2,140.6,159.6,144.6,158.8z M131.5,165c1.3-0.5,3.1,0.6,4.6,1.7c-6,0.1-6.5,0.5-7.3,6.8c-0.3,2.5-0.8,5-1.3,8.1
			C123.9,176,126.3,167,131.5,165z M132,179.3c0,3.8,0,7.6,0,11.3c-0.5,0-0.9,0-1.4,0c0-3.8,0-7.6,0-11.4
			C131.1,179.3,131.6,179.3,132,179.3z M138.7,218.2c-2.2-1.8-5-3.2-6.6-5.4c-3.3-4.6-4.5-15-2.5-19.2c1.2,3.2,2.3,6.2,3.4,9.1
			c0.2,0.5,0.6,1.1,0.5,1.4c-4,7.1,1.3,9.6,6.1,12.3C139.3,217,139,217.6,138.7,218.2z M137.7,206.7c0.4,0.2,0.9,0.4,1.3,0.6
			c-0.3,1.8-0.7,3.6-1,5.5c-1.5-0.8-3-1.6-5.4-2.9C135.1,208.2,136.4,207.4,137.7,206.7z M144.7,229.3c0.1,1.4,0.2,3,0.2,4.5
			c-1.6-2.7-4.6-5.4,0.9-7.3c0.9-0.3,1.7-4,1-5.2c-1.6-2.9-4.1-5.3-6.1-7.8c4.5-0.6,6.3,1.5,8.7,8.7
			C151,226.8,148.2,228,144.7,229.3z M158.7,250.8c-2.1,1.7-5.5,1.8-9.4,2.8c2.9,0.8,5.3,1.3,7.4,2.2c0.8,0.4,1.2,1.9,1.7,2.8
			c-0.9,0.3-2,1.1-2.8,0.9c-2.2-0.6-4.6-1.2-6.5-2.4c-1.1-0.7-2.3-2.9-1.9-3.8c1-2.4,2.8-4.5,4.3-6.8c0.5,0.4,1.1,0.8,1.6,1.2
			c-0.4,0.9-0.9,1.8-1.4,2.9c6.8,0.3,7.8-3.9,7.5-9.9C162.4,245.1,161.4,248.7,158.7,250.8z M150.9,245.7c1.3-6.2,2.6-12.5,3.7-17.9
			C157.8,231.9,156.3,241.9,150.9,245.7z M157.3,238c1.7-6.4,1.1-11.7-4.8-16c-2.6-1.9-3.9-5.7-5.7-8.7c-4.1-7.1-8.5-14-12.1-21.3
			c-1.3-2.7-0.4-6,0.8-9.6c2.4-7,11.3-6.2,13.2-12.9c0.1-0.5,1.7-0.8,2.7-0.9c7.5-0.3,14.9-3.1,22.7,1c3.9,2,9.2,1.5,12.5-3
			c0,0-0.1,0-0.1,0c0,0,0,0,0,0c0,0,0,0,0,0c-2.8,0.7-5.6,1.7-8.4,2c-1.8,0.2-3.7-0.8-5.6-1.2c0.1-0.7,0.2-1.3,0.3-2
			c4.6,0.4,9.2,0.8,13.7,1.2c0,0,0,0,0.1,0c1.8-1.6,3.6-3.1,5.4-4.6c-2.9,0.5-5.7,1-8.6,1.5c-0.1-0.4-0.2-0.7-0.3-1.1
			c4.1-1.6,8.2-3.2,12.4-4.8c0.2,0.3,0.4,0.7,0.6,1c-1.4,1.2-2.8,2.4-4.2,3.6c6.4,3.4,11.8,1,17.7-2.2c11.4-6.1,23.4-10.8,36.5-11.8
			c1.4-0.1,3,0,4.4,0.5c8.2,3,16.4,5.8,24.5,9.2c4.4,1.9,8.6,4.5,12.8,6.9c14.6,8.5,29.8,13.6,47,10.5c1.6-0.3,3.3,0.3,4.9,0.5
			c5.7,0.8,11,0.4,15.5-5.1c1.3,1.5,2.8,2.5,3.3,4c1.5,4.5,5.2,6.3,9,5.3c4.7-1.1,7.3,2,10,4c3,2.2,5.2,5.8,7.4,9
			c3.7,5.6,6.4,7,13.9,5.8c0.4,2.5,0.5,5.2,1.3,7.6c1.3,3.7,3,7.2,4.8,10.6c1.4,2.6,3.5,4.7,4.9,7.3c1.7,3.3,2.9,6.6,7.1,7.8
			c1,0.3,2,4.7,1.2,5.9c-2.4,3.5-2.3,6.4,0.3,9.5c0.2,0.3,0.6,0.5,0.6,0.8c-0.7,5.7-0.8,11.3,1.5,16.8c0.1,0.3-2.7,1.9-4.2,2.9
			c-3.3,2.2-8.9,1-9.6,7c-0.1,0.6-2.6,1.1-4.1,1.4c-42.2,10.8-85.2,15.3-128.7,13.4c-27.8-1.2-55.4-4.7-82.4-11.8
			c-1.4-0.4-2.7-1.2-4.2-1.6c-3.6-0.9-7.2-1.7-11.3-2.7c-0.5-1.8-0.6-5.5-2.4-7.3c-2-2-5.7-2.3-7.6-3.9c-1.1-3.5-2.3-7-3.3-10.6
			c-0.3-0.9-0.2-2,0-2.9C163.8,243.9,162.5,240.1,157.3,238z M398.9,294.2c-0.1,0.3-0.1,0.7-0.3,0.7c-70,23.6-141.7,27.6-214.5,20.3
			c-0.1-0.8-0.2-1.6-0.3-2.4c1.7-0.1,3.5-0.5,5.2-0.4c22.9,1.1,45.8,2.3,68.8,3.5c0.6,0,1.2-0.2,2.7-0.5
			c-25.5-1.5-50.2-2.9-75.6-4.4c0.6-3.2,0.9-4.6,1.3-6.2c71.9,10.9,142.7,7.3,212.3-14.7c0.1,0.4,0.2,0.8,0.4,1.1
			c-0.9,0.7-1.8,1.4-2.9,2.3C397,293.8,397.9,294,398.9,294.2z M170.4,309L170.4,309c-0.3,0-1.1,0.1-2.4,0.2
			c2.5-7.8,4.8-14.8,7-21.9c0.5-1.7,1.1-4,0.4-5.3c-2-3.8,1.3-4.5,3.1-4.8c1-0.2,3.3,2.1,3.7,3.6c0.6,2-0.1,4.3-0.6,6.5
			c-1.1-3.1,1-7.3-4.3-8.7c3.8,6.1-0.5,9.6-2.9,14.3C172.1,297.3,171.8,302.9,170.4,309C170.6,309,170.6,309,170.4,309z M174,298.5
			c0.3,0,0.6,0,0.9,0c0.1,1.2,0.3,2.4,0.4,4c1.8-3.5,3.5-6.5,5.7-10.6c1.4,6.8-1.7,10.9-4,15.1c-1.2-0.2-2.4-0.3-3.9-0.5
			C173.3,303.8,173.6,301.2,174,298.5z M184.8,278.2c2,23.9-6.1,45.2-17.3,65.7C175.6,322.6,185.8,301.8,184.8,278.2z M278,324.9
			c-26,0.2-51.9,0.4-77.9,0.6c-4.5,0-9-0.1-13.5-0.5c-4.6-0.4-5.6-2.1-4.2-6.7c74.1,7.2,147.2,2.7,218.3-21.9c1.5,7.2-3.9,7-7.4,8.2
			c-29.7,9.6-60,16.3-90.8,20.7c-28.1,4.1-56.3,5.3-84.7,5.3c-10.5,0-21-1-31.4-1.6c-2.3-0.1-4.5-0.7-6.8-1c0-0.5-0.1-1.1-0.1-1.6
			c1.6-0.2,3.3-0.6,4.9-0.5c32.9,3.4,65.8,3,98.8-0.1c0.9-0.1,1.8-0.4,2.7-1.6C283.2,324.4,280.6,324.9,278,324.9z M186.1,299.5
			c20.3,2,39.4,4,58.6,5.9c0.1-0.5,0.1-1.1,0.2-1.6c-1.6-0.3-3.3-0.6-4.9-0.8c-16.2-1.7-32.4-3.4-48.7-5c-2.3-0.2-4.5-0.4-3.6-3.7
			c0.8-3.1,2.6-2.2,5-1.8c16.1,2.2,32.2,4.2,48.3,5.9c11,1.2,22.1,2.5,33.1,2.3c35.3-0.5,70.6-2.3,105-11.5c3.1-0.8,6.1-1.6,9.1-2.6
			c2.8-1,5.5-2.2,8.8-3.7c-1.5,3.8-2.2,4.1-16.9,8c-6.1,1.6-12.3,3.1-18.5,4.7c0.1,0.5,0.3,0.9,0.4,1.4c11.7-3.1,23.4-6.2,35.2-9.4
			C362.3,306.9,207.5,315.9,186.1,299.5z M393.1,282.3c-31.4,17.9-181.5,21.5-204.9,4.4C256.8,300.3,325,300.5,393.1,282.3z
			 M188.4,279.4c60.9,15.4,122.3,16.7,184,5.7c0,0.6,0,1.1,0,1.7c-15.8,2.1-31.5,4.5-47.3,6.1c-27.2,2.7-54.6,2.7-81.8,0
			c-17.2-1.7-34.2-5-51.2-7.6C189.1,284.8,187.6,283.4,188.4,279.4z M161.9,279.3c1.7,0.3,3.5,0.7,6.3,1.2c-2.3,2.5-3.5,3.9-4.4,4.9
			c1,2.2,2.2,4.1,2.7,6.2c0.1,0.5-2,1.9-3.3,2.2c-1.1,0.3-2.9,0-3.5-0.7c-0.6-0.7-0.2-2.4,0.1-3.6c0.3-1.7,0.9-3.3,1.3-5
			C161.4,282.7,161.6,281,161.9,279.3z M141.7,261.3c6.2,2.5,12.5,4.9,18.7,7.4c-0.1,0.5-0.2,1-0.3,1.5c-7-0.9-13.3-3.3-19-7.3
			C141.3,262.3,141.5,261.8,141.7,261.3z M155.7,272.3c-0.2,0.5-0.4,1-0.6,1.5c-4.2-1.6-8.4-3.1-12.6-4.7c0.2-0.5,0.3-1,0.5-1.5
			C147.3,269.2,151.5,270.8,155.7,272.3z M137.4,278.7c0.6-2.5,0.5-5.2,0.7-8.3c2.7,7.4-2.3,29.2-8.9,40.8
			c-5.1,12.3-10.9,24-22.6,31.5c9.4-9.2,16.3-20.2,22.1-31.9C131.7,300.1,134.6,289.5,137.4,278.7z M117.9,247.3
			c4.1,2.3,8.9,3.6,8.3,8.3c-0.3,2.2-4.3,3.9-6.7,5.9c-0.5-0.4-0.9-0.8-1.4-1.2c1.3-2.7,2.7-5.4,4-8.1c-0.3-0.2-0.6-0.3-0.9-0.5
			c-1.4,1.8-2.8,3.7-4.1,5.5c-0.4-0.2-0.8-0.4-1.2-0.5C116.5,253.8,117.1,251,117.9,247.3z M119.4,270.5c-2,2.3-3.7,4.3-5.5,6.3
			c-0.4-0.2-0.8-0.4-1.1-0.7c0.5-2.2,1.1-4.4,1.7-6.9C116.1,269.6,117.4,270,119.4,270.5z M102.2,239.8c7.7,1.5,9.6,4.4,8.2,13.1
			C100.5,249.5,98.9,246.9,102.2,239.8z M74.3,244.1c-2.7,2.4-4.8,4.2-8.2,7.2c5.6,0.4,9.8,0.8,14.6,1.1c-0.6,1.3-0.8,2.5-1.5,2.8
			c-4.1,2.3-8.2,5-12.6,6.4c-2.3,0.7-5.3-1-7.8-1.6C61,251.4,65.9,246.7,74.3,244.1z M59.4,270.9c5.2,1.3,7.3,3.4,6.3,7.5
			c-0.3,1.1-2.2,1.9-3.1,2.5c0,1.3,0,3,0,5.4c-2.9-1.6-4.7-2.6-6.6-3.6C57.1,278.7,58.2,274.8,59.4,270.9z M50.5,269.9
			c1.5-2.7,3.5-6,5.4-9.4c0.5,0.1,1,0.1,1.5,0.2c0.4,1.5,0.8,3,1.5,5.7c0.5,0.3,2.2,1.5,3.7,2.5C58.7,269.2,54.7,269.5,50.5,269.9z
			 M64.5,265.8c-0.4-0.1-0.8-0.4-1.3-0.7c3.7-1.6,7.3-3,11.5-4.8c0.7,0.7,1.7,1.6,2.3,2.7c0.2,0.5-0.7,1.5-1.1,2.3
			C71.8,261.1,68.3,266.8,64.5,265.8z M44.5,193.8c2.5,7,1.2,14-0.5,20.8c-7,27.5-21.8,50.1-43.7,68.1c-1.5,1.2-3.1,2.1-4.7,3.2
			C23.4,261.2,44.2,233.1,44.5,193.8z M-40.4,221.4c-19.4,34.2-17.1,31.1-19,58.3C-63.6,265.5-54.3,236.6-40.4,221.4z M-50.4,297.9
			c-14.7-10.2-8.5-44.6,13.9-76.9c16.7-24.1,37.6-40.2,53.3-42.6c-12.5,1-24.3,7.6-40.3,23.5c9.6-14.8,37.2-32.3,58.1-21.9
			c-3.5-0.8-6.8-1.3-10-1.6c2.2,0.4,4.3,1.3,6.1,2.5c14.7,10.2,8.5,44.6-13.9,76.9C-5.6,290.1-35.7,308.1-50.4,297.9z M5,306.5
			c3.7-2.5,7.4-4.9,11-7.5c1.1-0.8,2.1-1.9,2.9-3c0.8-1.1,1-2.6,1.8-3.5c5.2-5.4,10.5-10.6,15.7-15.9c0.8-0.9,1.4-2,2.1-3
			c2.3-3.3,4.7-6.5,7-9.8c0.8-1.2,1.3-2.6,2.2-3.7c5-5.9,5.1-13.9,8.5-20.5c0.5-1,0.6-2.2,0.9-3.3c0.8-2.9,1.6-5.9,2.7-9.7
			c-0.1-0.1-1.2-0.8-2.3-1.5c-0.4,1.1-0.9,2.2-1.3,3.3c-1.9,6.1-3.2,12.6-5.8,18.4c-7.9,18-19.9,33-34.2,46.3c-3,2.8-3,2.8-8.5-0.2
			c1.3,0,1.8,0,2.3,0c0.5,0,0.9,0.1,1.1,0.1c0-1.2-0.5-2.8,0.1-3.3c11.6-11.1,22.8-25.4,30.7-40.2c0.4-0.8,0.7-1.8,1.5-3.7
			c-6.8,9.4-12.7,18-19,26.3c-6.3,8.3-13.5,15.8-20.1,19.5c4.2-4.7,10.6-11.2,16.3-18.2c5-6.2,9.1-13,13.6-19.5
			c-2.2,2.6-4.3,5.2-6.6,7.7c-7.6,8.3-15.1,16.8-23.1,24.8c-2.7,2.7-6.6,4.1-9.9,6.2c-0.3-0.4-0.5-0.7-0.8-1.1
			c0.7-0.7,1.3-1.6,2.1-2.2c22-15.5,36.2-36.8,45.8-61.6c0.9-2.2,1.9-4.4,2.9-6.6c0-0.1-0.1-0.2-0.1-0.4c0.1-0.1,0.2-0.2,0.2-0.2
			c0.9-5.6,1.8-11.2,2.7-16.8c0.6,0.1,1.1,0.2,1.7,0.4c-0.7,4.6-1.2,9.2-2.2,13.7c-0.2,1-1.4,1.8-2.3,2.7c0,0.1,0,0.3-0.1,0.4
			c0,0.1-0.1,0.1-0.1,0.2c0.3,1.4,1,2.9,0.6,4c-3.2,8.4-6.8,16.8-10.2,25.2c-0.5,1.2-0.8,2.4-1.1,3.6c9.1-11.2,13.1-24.5,15.9-38.2
			c1-5.2,1.6-10.4,3.3-15.7c0,2.7-0.1,5.4,0,8.1c0.1,2.5-1.6,5.8,3.1,6.9c-0.5-1.3-0.9-2.2-1.3-3.1c0.5-0.2,0.9-0.4,1.4-0.6
			c0.9,2.4,1.8,4.8,3.2,8.5c0.9-2.9,2.1-4.8,2-6.7c-0.1-2.2-1.2-4.3-2.2-7.2c3.9,1.4,5.5,2.6,4.8,6.4c-0.8,4.4-0.2,9.1-0.3,13.6
			c0,1.1-0.2,2.5-0.8,3.3c-2.2,2.8-2.8,5.6-2.3,9.2c0.2,1.6-2.1,3.4-3,5.2c-0.8,1.6-1.2,3.4-1.8,5.1c0.6,0.3,1.3,0.6,1.9,0.8
			c-2.3,2.9-4.7,5.7-6.9,8.6c-0.6,0.9-1.1,2.1-1.1,3.2c0,4-0.5,7.4-5.4,8c-0.8,0.1-1.5,1.5-2,2.5c-0.4,0.7-0.1,1.8-0.5,2.4
			c-2.3,3.3-5.8,6.2-6.9,9.8c-1.5,4.8-4.1,7.2-8.8,8.3c-1.1,0.3-1.7,2.4-2.5,3.8c-1.1,1.8-1.7,4.4-3.2,5.2c-4.8,2.4-9.9,4.1-14.8,6
			C5.5,307.2,5.3,306.8,5,306.5z M33.4,325.1c-3.7,0.2-7.4,0.6-11.1,0.6c-4.1,0-8.2-0.2-12.2-0.9c-1.5-0.3-2.6-2.2-3.6-3.8
			c5.5,3.2,10.9,4,17.1,2.7c3.2-0.7,6.8,0.3,10.2,0.5C33.7,324.4,33.5,324.7,33.4,325.1z M39.7,324.9c-5.2-0.6-10.1-3.3-15.2-5.1
			c-0.6-0.8-1.2-1.5-1.8-2.3c1.8-0.9,3.6-1.8,5.5-2.7c-2.1-1.2-4.1-2.4-6.2-3.6c7.9,1.6,7.9,1.6,12.8,0.3c-0.8-1.3-1.5-2.6-2.2-3.9
			c0.5-0.3,1.1-0.6,1.6-0.9c0.7,1.9,1.2,3.8,2,5.6c1.1,2.3,2.4,4.5,4.6,6.4c-0.2-1.1-0.3-2.3-0.7-4.7c2.5,1.4,4.3,2.4,6.2,3.5
			c1.3-1.4,2.9-3.1,4.6-4.8c0.5,0.2,1,0.4,1.5,0.6c-5.2,3.3-3.2,6,0.9,8.8C48.2,323.3,43.8,325.4,39.7,324.9z M76,336.6
			c-0.7,1.3-1.7,2.5-2.6,3.7c-0.4-0.4-0.9-0.7-1.3-1.1c1-1.2,1.9-2.5,2.9-3.7c-0.2-0.2-0.3-0.4-0.5-0.7c-3.7,2.3-7.4,4.7-11.2,7
			c-0.2-0.3-0.4-0.6-0.6-0.8c1-0.9,2.1-1.8,3.4-2.9c-3.5-0.9-6.7-1.8-9.4-2.5c4.2-0.6,8.4-1.2,12.5-1.9c-3-1-6.1-1.6-8.9-2.9
			c-2.6-1.3-4.9-3.2-7.9-5.3c0.1,1.6,0.1,2.6,0.2,4.2c-2.3-1-4.3-1.8-7.3-3.1c4-1.3,7-2.3,10.6-3.5c-2-2.2-3.1-3.5-4.4-5
			c1.7-2.2,3.3-4.3,5.6-7.2c-5.6,0.5-11.1,1.1-15.1,1.5c-3-3.5-5.2-6.1-7.6-9c-2.6,1.3-7.7-1.1-7.9,5.1c-2-2.7-1.9-4.7,1.1-5.2
			c6.1-1,6.7-5.5,7.5-10.1c0.5-2.9,1.7-4.6,5.3-3.7c-2.4,5.6-3.7,11.2-2.5,16.6c1.7-3.3,3.1-6.7,5.3-9.7c4.2-5.8,5.4-12.3,5.3-19.2
			c0,0,0,0,0,0c-1,2.3-2.4,4.5-2.8,6.9c-0.5,3.3-2,3.5-6.2,2.2c3.5-3.5,6.3-6.3,9-9c0,0,0-0.1,0-0.1c0,0,0,0,0,0.1c0,0,0,0,0,0
			c1.4-0.9,2.7-1.7,4.6-2.9c0.4,0.1,1.7,0.5,3,0.9c-1.9,4.7-3.9,9.5-5.7,13.9c2,0.4,4.1,0.8,7.1,1.4c-2.9,4.3-5.2,7.6-7.7,11.2
			c-3.1-2.4-5.9-4.3-1.3-7.7c-3.7,0.6-4.9,3.6-4.1,6.1c1.8,5.8,6.7,3.7,11,2.7c-2.4,4.8-5.3,4.4-13.9-1.2c-0.1,5.2,4.6,8.1,10.8,6.6
			c9.3-2.2,13.2,2.1,10.4,11.3c-0.2,0.8-0.5,1.6-0.9,2.6c-1.5-0.4-2.8-0.7-4.3-1.1c0.3,0.5,0.3,0.9,0.5,1c3.5,1.7,7.1,3.3,11.2,4.8
			c-5-4.2-5-8.6-1.5-13.5c0.4-0.6-1.8-4.1-3.4-4.8c-9.5-4.1-10.7-9-3.7-16.8c3.5-4,7.7-7.5,7.6-12.8c4.2-2.4,8.3-4.2,11.8-6.8
			c4.6-3.5,8.7-3.2,13,2.7c-2.2-0.6-3.8-1-5.3-1.4c-0.2,0.3-0.4,0.5-0.6,0.8c4.9,4.2,9.9,8.3,14.8,12.5c-0.1,0.3-0.2,0.5-0.2,0.8
			c-6.3-2.8-12.6-5.6-18.9-8.4c2.5,4.9,0.1,8.7-3.1,11.6c-3,2.7-6.7,4.6-11.4,7.6c1.1-2.3,1.4-3.1,1.8-3.9c-4.9,2.1-7,9-3.2,11.9
			c4.5,3.5,3.3,6.7,1.6,10.8c-0.6,1.5-0.5,4,0.4,5.3c1.1,1.5,3.3,2.1,5.1,3.2c0.3-0.6,0.7-1.1,1-1.7c-1.6-1.1-3.3-2.3-5.3-3.7
			c1.3-2.8,2.7-5.7,4.1-8.7c11.5,0.7,17.8-4.4,14.8-12.7c2.3,0.2,4.3,0.4,8.1,0.7c-4.5,6.4-8,12.1-12.3,17.1c-0.9,1-4.7-0.5-7.9-1
			c2.3,1.5,4.1,2.6,6.9,4.4c-4.3,3.4-8.1,6.4-12.1,9.6c-0.2-0.2,0.5,0.6,1.2,1.4c2-1.2,4.5-2,6-3.6c13.5-15.8,25.2-32.7,31-52.9
			c1.5-5.1,2.3-10.4,3.4-15.6c-0.6-0.1-1.2-0.3-1.7-0.4c-0.6,2.1-1.4,4.1-1.7,6.3c-0.7,4.8-3.7,6.4-8.5,6.5
			c-5.9,0.2-10-2.4-14.3-5.7c-2.9-2.2-6.8-3.3-9.3-4.4c2.4-2.8,4.2-5,6.1-7.1c-3.3-1.8-6.7-3.6-9.3-5c2.4-2.6,5.3-6.4,8.8-9.5
			c1.2-1.1,4.2-0.9,6.1-0.2c1.2,0.4,1.8,2.6,2.6,4.1c0.4,0.8,0.5,2,1.2,2.4c6.2,3.8,12.5,7.4,19.8,11.7c0.4-4.7,0.7-8,1-11.4
			c0.3-0.1,0.6-0.2,0.8-0.2c0.3,1.4,0.8,2.7,0.8,4.1c-0.7,13.4-3,26.4-8.7,38.7c-7,15.2-16.8,28.6-27.3,41.5
			C77.5,331.7,77.1,334.4,76,336.6z M105.4,274.4c-2.8,0.5-5.6,0.8-8.4,1c-0.8,0.1-1.6-0.6-2.4-0.9c0.7-0.6,1.4-1.7,2.2-1.8
			c3.6-0.4,7.2-0.5,10.8-0.7c0.3,0.2,0.5,0.4,0.8,0.6C107.3,273.2,106.4,274.2,105.4,274.4z M107.3,276.7c-1.8,2.7-2.7,3.9-3.1,4.6
			c-2.9-0.8-5.4-1.6-8-2.3c-0.1-0.5-0.1-0.9-0.2-1.4C99.3,277.4,102.6,277.1,107.3,276.7z M85.3,289.1c-0.2-0.4-0.3-0.8-0.5-1.1
			c1.5-0.9,3.2-2.8,4.3-2.5c3.7,1.1,7.5,2.5,10.5,4.8c0.7,0.5-1.6,4.9-2.8,8.6c-4.9-4.9-2.9-7,0.5-9.7
			C93.3,289.1,89.3,289.1,85.3,289.1z M85,301.6c-1.2-0.7-2.5-1.4-4.2-2.3c1.6-2.4,3.2-4.8,5.2-7.9c2.4-0.2,3,0.5,1.8,3.7
			C87.1,297.2,86.1,299.2,85,301.6z M85.2,304.9c-6.5,5.5-11.3,4.4-17.1-2.9c0.1-0.6,0.2-1.2,0.2-1.8c2.6,0.6,6.5,0.3,7.4,1.9
			C78,305.8,80.8,306.2,85.2,304.9z M102.5,317.2c-2.1-0.9-4.5-3.1-5.1-5.1c-0.5-1.6,1.7-3.9,2.6-5.9c0.5,0.2,0.9,0.3,1.4,0.5
			c0,2.6-0.9,5.8,0.3,7.6c1,1.5,4.5,1.3,6.9,1.8c0.1,0.2,0.2,0.4,0.3,0.7C106.7,317,104.2,318,102.5,317.2z M103.8,319.7
			c-0.2,0.7-0.4,1.4-0.6,2.1c-4.2-0.3-8.4-0.7-13.6-1.1c1-2.1,2.1-4.4,3.7-7.9C95.8,317.5,97.8,321.6,103.8,319.7z M100.1,304.1
			c2.4-4.4,4.5-8.3,6.6-12.1c0.5,6.3,3,12.9-2.2,18.4C101.1,309.1,107.8,302.7,100.1,304.1z M88.2,338.4c-1.8,2.3-4.4,2.2-6.8,0
			c-2.7-2.5-1.8-5.7,0.6-7.3c3.6-2.2,7.8-3.3,11.8-4.8c0.2,0.5,0.4,1,0.6,1.6c-2.7,0.7-5.6,0.9-7.9,2.4c-1.9,1.2-2.9,3.7-4.3,5.7
			C84.2,336.7,86.1,337.5,88.2,338.4z M128.4,255.3c6.5,15.6-13.8,66-32.3,80.1C117.6,313.3,126.5,286.1,128.4,255.3z M99.3,344.8
			c-0.4-0.2-0.8-0.4-1.1-0.6c0.8-6,1.2-10.3,5.5-10.2c3-3.5,5.2-6,7.3-8.6c0.7-0.9,1-2,1.6-3c3.4-4.9,7.9-9.1,9.4-15.2
			c0.3-1.4,1.8-2.6,1.8-3.9c0.3-5,0.6-5.9,5.3-8.9c0.3-3.6-2.6-7.8,2-10.8c0.4-0.3-0.9-2.7-0.8-4.1c0.1-1.7,0.7-3.4,1.5-4.9
			c0.2-0.4,2.9-0.2,2.9,0.1c0.3,1.5,0.4,3.1,0.2,4.7c-0.3,3-0.9,6-1.3,8.9c-0.1,0.5,0.2,1.2-0.1,1.5c-3,2.9-3.4,6.9-4.6,10.6
			c-1.9,5.7-4,11.7-7.6,16.3c-3.3,4.1-6.2,8.4-9.4,12.6c-0.7,0.9-2.3,1.2-3.8,1.9c-0.1,8.1-0.3,8.3-6.6,9
			C100.8,342,100,343.4,99.3,344.8z M108.3,350.1c2.5,0.3,5.1,0.5,7.6,0.8c0-0.2,0.1-0.4,0.1-0.5c-3.1-0.9-6.2-1.9-9.7-2.9
			c4.8-5,9.7-0.6,14.5-1.8c-2.8-0.7-5.6-1.5-9.2-2.4c18.2-20.5,27.7-44.3,30.1-71.1c1.2,0,1.5-0.1,1.8,0c11.3,3,11.6,3.2,9.2,14.5
			c-5,24.2-14.1,46.4-31.7,64.5c-0.9,0.9-1.9,1.8-2.7,2.5c-1.9-0.6-3.6-1.1-5.3-1.6C111.4,351.5,109.8,351.1,108.3,350.1z
			 M116.3,359.9c-0.2,0.1-0.6-0.1-1.3-0.3c12.2-9.8,19.6-23.1,27.8-35.8c6.8-14.5,11.3-29.7,13.9-45.5c-1,16.3-5.3,31.7-13.4,45.9
			C136.8,338,128.7,350.6,116.3,359.9z M140.5,343.8c1.7,5.9-1.5,8-6.8,8.2c-1.4-4.9-0.9-5.7,5.3-8.8c-1-4.1,0.6-6.9,4-8.7
			c1.7-2.4,3.4-4.8,5.1-7.1c0.5-0.7,1.5-1.7,1.3-2.3c-1.2-4.5,1.8-6.3,4.8-8.3c-0.4-0.2-0.9-0.5-1.3-0.7c1.2-2.4,2.8-4.8,3.5-7.4
			c0.7-2.7,0.3-5.8,0.9-8.6c0.3-1.4,1.7-2.5,2.6-3.7c1.2,0.8,2.9,1.5,3.3,2.6c0.4,1.2-0.2,3.1-1,4.3c-0.6,1-2.1,1.5-3.5,2.4
			c3,3.8,2.7,6.9-1.4,9.6c-0.6,0.4-1.2,1.8-0.9,2.6c1,3.2-0.1,5-3.2,6.2c-0.6,0.2-1.4,1.7-1.2,2.3c1.6,5.1-1.8,6.4-5.8,7.5
			C147.9,341,147.5,341.7,140.5,343.8z M152.1,339.3c4.3-10.3,9.1-20.1,12.3-30.4c3.2-10.2,4.7-21,7.2-32.2
			C172.3,293.1,160.4,331.2,152.1,339.3z M167.3,317.6c0.9-3,1.9-6.6,5.6-7.1c-1.4,4.1-2.8,8-4.2,11.9c-0.3,0.3-0.6,0.6-0.9,0.8
			C167.6,321.4,166.8,319.3,167.3,317.6z M203.7,360C203.7,360,203.7,359.9,203.7,360c-7.3,0-14.6,0-21.9,0c0-0.6,0-1.2,0-1.8
			c12.5-0.3,25.1-0.1,37.6,0.9c-5.2,0-10.4,0-15.7,0C203.7,359.3,203.7,359.6,203.7,360c8.3,0,16.6,0,24.9,0c0,0,0,0,0,0
			C220.3,360,212,360,203.7,360z M247.1,352.7c-24.1,2.7-47.7,1.4-71.5,0c1.7,0.2,3.3,0.5,5,0.7c0,0.2-0.1,0.5-0.1,0.7
			c-4.3-0.2-8.5-0.4-12.8-0.6c-0.1-0.5-0.2-1.1-0.2-1.6c2.2-0.5,4.4-1.6,6.6-1.5c33.3,2,66.6,1.7,99.8-2.5
			c13.4-1.7,26.6-4.2,39.9-6.4c1.3-0.2,2.6-0.4,3.9-0.5C294.3,346.8,270.8,350,247.1,352.7z M250.7,345.3c7-0.5,13.9-0.9,20.9-1.4
			c0,0.4,0,0.7,0.1,1.1c-10,0.6-20,1.2-31,1.9c2.2-0.5,3.4-0.8,4.7-1c0-0.1-0.1-0.3-0.1-0.4c-11.3,0-22.6,0-33.9,0
			c0,0.4,0,0.8-0.1,1.2c6.4,0,12.8,0,19.2,0c0.1,0.4,0.1,0.9,0.2,1.3c-2,0.6-4.1,1.6-6.1,1.7c-15.8,0.1-31.5,0.1-47.3,0.1
			c0-0.5,0-1.1,0-1.6c2.6,0,5.3,0,7.9,0c2.5,0,5,0,7.5,0c0.1-0.3,0.1-0.7,0.2-1c-6.2-1.3-12.5-2.7-18.5-4c27.1,0,54.3,0,81.4,0
			c0,0.1,0,0.3,0.1,0.4c-1.7,0.2-3.4,0.5-5.1,0.7C250.7,344.6,250.7,345,250.7,345.3z M282.5,341.4c0.3,0.2,0.6,0.5,1,0.7
			c0.4,0.2,0.8,0.2,1.6,0.4c-9.3,1.7-9.3,1.7-12.5-1.6c1.8,0.5,3.7,0.9,5.5,1.4c-0.1-0.3-0.3-0.7-0.4-1c3.8-0.7,7.5-1.7,11.4-2.1
			c4.4-0.3,8.8,0.3,13.1-0.1c4.3-0.3,8.5-1.2,12.8-2.2c3.8-0.8,7.6-2,11.7-1.9C312.3,338.7,298.3,345.8,282.5,341.4z M173.4,338.2
			c2.3-0.8,3.6-1.7,4.7-1.6c40.6,4.8,81.1,2.7,121.4-3.5c18.2-2.8,36.2-6.8,54.3-10.3c1.1-0.2,2.1-0.3,4.1-0.6
			C330,336.7,199.4,348.2,173.4,338.2z M371.1,333.6c-0.2-0.5-0.3-1-0.5-1.5c6.2-2.1,12.3-4.1,18.5-6.2c0.2,0.5,0.3,1,0.5,1.5
			C383.4,329.5,377.2,331.5,371.1,333.6z M368.6,329.5c-0.1-0.4-0.3-0.9-0.4-1.3c10.3-3.3,20.6-6.7,30.8-10c0.1,0.5,0.3,0.9,0.4,1.4
			C389.2,322.8,378.9,326.2,368.6,329.5z M391.2,311.1c3.4-1.1,6.8-2.2,10.1-3.2c0.1,0.4,0.3,0.8,0.4,1.2
			c-12.5,4.2-24.9,8.4-37.4,12.5c-0.2-0.5-0.3-0.9-0.5-1.4c2.1-0.8,4.2-1.7,6.3-2.5c-63.4,16.4-127.5,23.5-192.8,17.1
			c-0.2-0.9-0.3-1.8-0.5-2.7c1.5-0.5,3-1.4,4.5-1.3c32.7,3.2,65.5,3.4,98.1-0.7c20-2.5,40.1-4.4,59.7-8.6
			c19.6-4.2,38.7-10.8,58.1-16.3c1.7-0.5,3.3-1.1,4.9-1.7c0.2,0.5,0.4,0.9,0.6,1.4c-3.9,1.8-7.8,3.6-11.7,5.4
			C391,310.6,391.1,310.9,391.2,311.1z M398.3,280.9c5.8,9.6,8.7,20.1,8.6,31.3C404,301.8,401.1,291.4,398.3,280.9z M408.8,303.1
			c-1.3-6.3-2.6-12.5-3.9-18.8c-0.1-0.7-0.2-1.5-0.2-2.2c0.7,0.3,1.4,0.7,2.1,1c1.4,0.6,2.8,1.1,3.9,1.5c-1.6,2.5-2.8,4.4-3.7,5.8
			c2.4,2.6,5.2,4.4,6,6.9C413.3,299,410.9,301.5,408.8,303.1z M421.1,305.5c-1.6-6-3.2-12-4.9-18.2c-1.7,1.6-2.9,2.7-3.7,3.6
			c-0.9-3.7-1.7-7.1-2.6-11.1c1.3,1.5,2.5,2.9,3.9,4.5c0.2-0.6,0.5-1.3,0.7-1.9c0.5-0.1,1-0.3,1.4-0.4c2.3,7.7,4.7,15.3,7,23
			C422.3,305.1,421.7,305.3,421.1,305.5z M432,303.3c-2.8-9.3-5.4-18-8-27C428.6,281.3,433.2,296.6,432,303.3z M441.9,288.8
			c-2.2,0.1-4.4,0.3-6.6,0.4c0,0.5,0,0.9-0.1,1.4c0.7,0.2,1.5,0.4,3.2,0.8c-1.9,1-3.1,1.7-4.5,2.5c-1.7-4.3-3.2-8.1-4.8-11.9
			c-2-4.5,1.2-5.7,4.2-7.4c3.3-1.8,4.8-0.4,5.9,2.6c1.4,3.9,2.9,7.8,4.3,11.7C443,288.8,442.4,288.8,441.9,288.8z M437.2,268.5
			c-4.2,1.6-7.2,2.8-10.2,4c-0.2-0.4-0.4-0.8-0.5-1.3c3.3-1.4,6.6-2.8,10.1-4.3c8.1,8.6,9.9,19.5,11.5,30.2
			C444.5,287.6,440.9,278.1,437.2,268.5z M457.2,288.1c-3.5-8-6.9-16-10.6-24.7c2.9-0.5,5.4-0.9,7.9-1.4c0.3,0.7,0.6,1.4,0.8,2
			c-1.2,1-2.5,2.1-4,3.4c2.1,5.9,4.5,13.1,7,20.2C457.9,287.8,457.6,288,457.2,288.1z M460.2,280.9c0.8-2.3,1.6-4.5,2.4-6.7
			c0.5-0.1,1-0.1,1.4-0.2c1,2.5,2.1,4.9,3.1,7.3C464.8,281.2,462.8,281.1,460.2,280.9z M478,280.9c-0.2-0.3-0.3-0.6-0.5-0.9
			c4.8-3,9.6-6.1,14.3-9.1c0.4,0.7,0.8,1.4,1.2,2.1C488,275.7,483,278.3,478,280.9z M500,265.4c1.9-1.5,4.1-2.7,5.7-4.5
			c2.1-2.3,6.7-2.1,6.5-7.1c-0.1-1.4,3.8-2.9,5.9-4.4c0.5,0.6,1,1.2,1.6,1.8C514.8,258,507.7,262.1,500,265.4z M567.4,216.8
			c-3.2-3.8-6.5-7.7-10.3-12.1c3.4-0.7,6.8-1.5,10.9-2.3c-2.8,3.7-1.5,6.5,3.1,8.9C569.7,213.4,568.5,215.1,567.4,216.8z"/>
		<path d="M97.5,238L97.5,238C97.4,238.1,97.4,238.1,97.5,238z"/>
	</g>
</g>
</svg>
