<?xml version="1.0" encoding="utf-8"?>
<!-- Generator: Adobe Illustrator 22.1.0, SVG Export Plug-In . SVG Version: 6.00 Build 0)  -->
<svg version="1.1" id="Layer_1" xmlns="http://www.w3.org/2000/svg" xmlns:xlink="http://www.w3.org/1999/xlink" x="0px" y="0px"
	 viewBox="0 0 268.4 362.1" style="enable-background:new 0 0 268.4 362.1;" xml:space="preserve">
<g transform="translate(-275.85 -398.76)">
	<path d="M330.1,742.3c-0.3-0.5-1.9-1.1-3.6-1.5c-1.8-0.4-3-1.2-3-2.2c0-1-0.7-1.5-1.8-1.3c-1,0.2-1.9-0.1-2-0.7
		c-0.1-0.5,0.7-1.1,1.8-1.3s2-0.8,2-1.4c0-0.7-1.5-0.8-4-0.4c-3.2,0.5-4,0.3-4-0.9c0-1.1-0.6-1.4-2.5-0.9c-1.4,0.4-2.5,0.2-2.5-0.4
		c0-0.6,1.9-1.3,4.3-1.7c6.1-1,8.4-2.7,2.8-2.1c-2.5,0.3-6,0.8-7.8,1.2c-1.9,0.4-3.3,0.3-3.3-0.3c0-0.5,2.8-1.6,6.3-2.3
		c7.6-1.5,10.2-3.3,3.8-2.5l-4.5,0.6l4-1.6c2.2-0.9,4.8-1.4,5.8-1.1c1,0.3,1.8-0.1,1.8-0.9c0-1-1.3-1.2-5.5-0.8
		c-3,0.3-5.5,0.3-5.5,0c0-0.3,2.5-1.1,5.5-1.7s5.5-1.6,5.5-2.1s-1-0.7-2.3-0.4c-9.7,2.2-21.9,4-23,3.4c-0.7-0.4-0.8-0.9-0.3-0.9
		c4.4-0.4,27.3-5.7,29.1-6.8c2.9-1.7-5.4-1.5-10.8,0.2c-5.5,1.8-21.6,4.1-22.5,3.3c-0.4-0.4,0.3-0.7,1.4-0.7s6.3-1.1,11.4-2.4
		c5.1-1.3,11.9-2.7,14.9-3c3-0.4,7.3-1.3,9.5-2.1l4-1.4l-4.5,0c-2.5,0-6.3,0.4-8.5,1c-6.3,1.5-27.8,5-28.3,4.6
		c-0.2-0.2,2.2-0.9,5.4-1.5c3.2-0.6,8.1-1.8,10.8-2.6c2.8-0.8,10.4-1.9,17-2.5c13.6-1.2,16.6-1.8,14.4-3c-1.5-0.8-24.3,0.5-25.9,1.5
		c-0.8,0.5-18.9,3.5-21.2,3.5c-0.5,0-0.8-0.5-0.8-1s1.8-1,3.9-1s8.8-1.2,14.8-2.6c6-1.4,13.8-2.8,17.3-3.1c11.5-1,10.1-2.3-2-1.8
		c-8.3,0.3-10.3,0.2-7-0.4c2.5-0.5,6.8-0.9,9.5-1c5.9-0.1,9.5-0.9,9.5-2.2c0-1.5-10.8-1-25,1.2c-7.4,1.1-15.2,2.3-17.3,2.6
		c-3.5,0.5-3.8,0.4-3.8-1.9c0-2.3,0.5-2.6,5.3-3.2c3.9-0.5,32-1.5,46-1.6c0.4,0,0.8-0.6,0.8-1.4c0-0.9-1.7-1.6-4.7-2.1
		c-6.9-1-16.4-5.7-20.9-10.2c-4.8-4.8-6.6-11.7-6.5-24.8c0.1-6.9,0.7-10.6,2.6-16c3.5-9.9,4.5-17.2,4.3-31.4l-0.2-12.4l-4.8-1.2
		c-2.6-0.7-6.3-2.4-8.3-3.9c-3.3-2.5-3.5-3-3.5-8.7c0-6.3,0.8-8.6,4.6-13.2c2.2-2.7,2.3-3,0.7-5.9c-1.4-2.7-1.4-3.9-0.3-9
		c0.7-3.3,1.8-6.5,2.4-7.1c0.6-0.6,2.1-2.6,3.3-4.3c2-2.9,6.2-5.2,6.2-3.4c0,0.4-1.5,2.3-3.4,4.3c-3.1,3.2-3.5,4.2-4.1,11.5
		c-0.8,8.7,0.6,15.3,3.1,15.3c2.2,0,2.8-2.9,1.5-6.6c-1-2.8-0.9-4.2,0.5-8.6c1.7-5.2,6.9-12.7,8.7-12.7c0.5,0,0.3,0.8-0.6,1.8
		c-3.9,4.3-6.7,11.6-6.6,16.6c0.1,2.8,0.3,4,0.5,2.6c0.8-5.1,4.5-13.6,6.4-14.8c1.2-0.7,2-0.8,2-0.2c0,0.6-0.4,1-0.8,1
		c-1.9,0-4.2,7.3-4.1,12.8c0.1,4.9,0.2,5.2,0.8,2.2c0.6-3.4,0.7-3.4,1.3,1.7c0.4,2.9,1.2,6.2,2,7.5l1.3,2.3l0.3-2.8
		c0.3-2.8,0.3-2.8,2.4,1.3c2.2,4.5,4.4,5.5,3.4,1.6c-0.4-1.4-0.2-2.5,0.4-2.5c0.6,0,1-0.8,1.1-1.8c0-1.3,0.4-1.1,1.2,0.8
		c1,2.2,1.2,1.5,1.9-5.5c0.5-5.2,1.5-8.8,2.7-10.5c1-1.4,2.2-3.7,2.7-5c0.8-2.5,0.8-2.5-1.4-0.6c-1.9,1.7-2.1,1.7-2.1,0.3
		c0-1.9-1.5-2.2-2.6-0.5c-0.5,0.8-1,0.6-1.5-0.8c-0.6-1.7-1-1.4-2.4,1.9c-0.9,2.1-1.9,3.6-2.2,3.3s0.3-2.2,1.2-4.2
		c1.6-3.4,1.6-3.8,0.1-5.3c-1.4-1.4-2-1.5-3.9-0.3c-1.8,1.1-2,1.1-1,0c1.8-1.9,1.6-3-1.6-6.8c-1.7-2-3.1-2.9-3.5-2.3
		c-1.2,1.9-7.4-2.7-9.4-7.2c-4-8.5-4.6-11.3-3.4-15.4c1.2-4.1,9-17.6,10.4-18.1c0.5-0.2,1.4-0.9,2.1-1.6c2.3-2.3,8.9-3.8,14.1-3.3
		c3.4,0.3,5.5,0.1,6.3-0.7c0.6-0.7,3-1.5,5.3-1.9c2.3-0.4,4.1-0.9,4.1-1.1s-1.8-2.3-3.9-4.4c-3-3-4.1-5-4.6-8.5
		c-1-6.4,0.3-17.3,2.1-17.9c0.8-0.3,1.4-1.2,1.4-1.9c0-2.1,5-6.2,9.4-7.6c4.8-1.6,13-0.7,18.2,1.9c2.1,1.1,4,1.7,4.2,1.5
		s0.8-2.5,1.3-5c1.8-9.8,8.6-20.4,13.1-20.4c0.9,0,1.9-0.4,2.2-0.9s3.2-1.4,6.5-2.1c5.5-1.2,6.5-1.1,12.8,1.1
		c8.9,3.1,14.8,7.2,16.6,11.8c2.2,5.6,2.9,9.9,1.7,10.6c-0.6,0.4-1.1,0-1.1-0.9s-2.8-4.4-6.3-8c-5.2-5.4-7.2-6.7-12.2-8.1
		c-12.3-3.5-22.9,1.4-29,13.4c-3.3,6.5-3.9,14.4-1.2,14.9c1,0.2,2.3-0.2,2.8-1c0.6-0.9,0.7,0.3,0.3,3.3c-0.4,2.8-0.2,4.9,0.4,5.3
		c0.6,0.4,1.1-0.6,1.2-2.7c0.1-3,0.2-3.1,0.6-0.6c0.6,3.8,1.8,3.4,3.1-1.1c0.6-2.1,2.3-4.9,3.8-6.3c2.4-2.2,2.5-2.2,1.6-0.4
		c-0.6,1.1-1.8,2.6-2.6,3.3c-0.8,0.7-1.8,2.7-2.1,4.4c-0.4,1.7-0.9,4.1-1.1,5.2c-0.4,1.7-0.2,1.6,1.6-0.5l2.1-2.5l-0.7,3
		c-0.6,2.6-3.6,7.9-5.3,9.5c-0.3,0.3-1.2,1.8-2,3.3c-0.8,1.6-1.6,2.3-1.8,1.7c-0.2-0.6,1.2-3.2,3.2-5.8c5.2-6.7,4.6-8.1-1.3-2.9
		l-2.4,2.1l1.8-2.8c1-1.5,1.6-3,1.3-3.3c-0.9-0.9-5.2,4.3-8.2,9.7c-2.5,4.6-3,6.5-3,13c0,4.2-0.4,7.1-0.8,6.5
		c-1.3-2.1-0.8-12.5,0.8-16.7c2.4-6,0.9-6-2.2,0.1c-2.6,5.2-3,11.2-1,16c0.6,1.4-0.1,1.5-4.7,1.1c-4-0.3-6.1,0-8.1,1.3
		c-1.5,1-2.9,1.5-3.1,1.3s1.9-1.7,4.8-3.1l5.3-2.6l-4,0c-4.3,0-8.6,2.9-12,8.2c-1,1.5-2,2.6-2.3,2.3c-1.3-1.3,5.6-9.6,9.5-11.5
		c4.5-2.2,5.9-4.8,2-3.5c-6.9,2.2-12.9,8.3-14.3,14.7c-0.7,3.3,0.2,4.9,1.6,2.7c0.6-1,0.9-1.1,0.9-0.2c0,2.1,1.5,1.4,3.4-1.8
		c1-1.6,2.2-3,2.8-3c0.6,0,0.7,0.5,0.4,1c-0.8,1.3-0.1,1.3,3.8-0.3c1.8-0.7,4.1-1.1,5.1-0.9c1.3,0.3,0.2,1-3.4,2.3
		c-6.1,2.1-8.4,3.9-10.6,8.3c-2.2,4.2-3,13.7-1.4,16.5c0.8,1.4,0.8,2,0.1,1.6c-2.7-1.7-2.9-7.7-0.6-18.6l0.8-3.5l-2.3,2.9
		c-3.2,3.9-4.1,10-2.4,15c1.6,4.6,1.3,5.5-1,3.2c-0.9-0.9-1.6-3.3-1.6-5.5c0-4.9-1.8-5.1-4.5-0.7c-3,4.9-4.4,8.9-4.4,12.7
		c-0.1,6,1.6,6.7,2.3,1c0.7-5.2,2.3-9,4-9c0.5,0,0.4,0.6-0.2,1.3c-2.1,2.5-2.9,9-1.6,12.7l1.3,3.5l-0.1-5c-0.1-3.5,0.4-5.8,1.7-7.5
		l1.8-2.5l-0.7,2.5c-1,3.4-0.7,8.9,0.6,11.2c1.4,2.7,2.1,1.6,1-1.5c-0.6-1.5-0.6-3.7-0.1-5.4c0.8-2.7,0.9-2.6,0.9,1.3
		c0.1,3.3,0.6,4.5,2.6,5.8c2.1,1.4,2.9,1.4,4.8,0.4c1.2-0.7,4-1.5,6.2-1.8c3.6-0.5,4-0.9,4.3-3.6c0.2-1.7,0.8-3.5,1.3-4.2
		c0.7-0.8,0.4-1.5-1-2.2c-2.5-1.3-5.2-7-5.2-10.9c0-3.9,9-17.7,12.2-18.7c1.3-0.4,4.5-0.7,7.2-0.8c4.2-0.1,5.3,0.4,7.3,2.7
		c1.3,1.5,2.1,3,1.8,3.4c-0.3,0.3-1.4-0.4-2.4-1.7c-1.5-1.9-2.7-2.4-7-2.4c-3.6,0-5.8,0.6-7.2,1.8c-2.4,2.2-2.5,3.5-0.2,3.5
		c1.8,0,4.2,1.8,4.2,3.1c0,0.4-1.9,0.5-4.3,0.2c-6.6-0.7-8.3,1.1-8.3,9c0,5,0.4,7,1.9,8.6c1.7,1.9,2.1,2,3.6,0.6
		c0.9-0.9,4.1-2.5,7-3.5c5-1.9,5.3-1.9,7.9-0.2l2.6,1.8l-6.2,0.5c-7.1,0.6-9.9,2.6-12.9,9.1c-1.7,3.8-1.7,4,0.1,5.4
		c2.5,1.8,1.2,3.1-1.6,1.6c-3.6-1.9-13.7,1.7-17.7,6.4c-5.4,6.2-7.2,16.6-4.4,24.9c1.1,3.2,2.5,4.2,2.6,1.8
		c0.5-7.4,5.9-15.2,10.6-15.2c1.9,0,1.8,0.3-1.1,2.3c-2.3,1.5-4.1,4.1-5.6,8c-3.1,7.8-3.4,11.6-1.7,20.6c1,5.5,1.5,14.7,1.5,32.2
		c0,13.5,0.5,27.4,1.1,31c1,5.9,4.5,13.9,7.2,16.6c3.5,3.3,7.8,5.4,11.7,5.7l4.4,0.3l0.3-3.9c0.3-4.1,4.3-11.3,6.7-12.3
		c0.8-0.3,3.1,0.7,5.2,2.3c5.6,4.3,12.2,8.4,13.5,8.4c0.7,0,2.5-0.9,4.1-1.9l2.9-1.9l-3.5-1.5c-7.4-3.1-9.7-9.6-10.5-28.9
		c-0.8-19.9,1.8-33.3,8.2-41.3c5.6-7,9.3-14.5,13.7-27.6c2.7-8.1,4.9-15.8,4.9-17.2c0-3.4,2.7-15.2,4.6-20.1
		c1.7-4.5,7.1-10.6,9.3-10.6c0.9,0-0.1,1.6-2.6,4.3c-4.3,4.4-6.3,9.1-8.3,19.3c-3,15.1-4,19.3-5.5,23.4c-1.9,5.2-1.9,5.4-0.6,4.6
		c2.2-1.4,6.2-11.1,7.5-18.4c1.5-8.6,4.7-18.3,7-21.5c0.8-1.2,2.3-3.2,3.3-4.6c1-1.4,2.5-3.4,3.5-4.4c2.3-2.5,2.2-3.5-0.2-2.9
		c-1.1,0.3-2,0-2-0.6c0-0.6,1.7-1.4,3.8-1.7l3.8-0.6l1.2-7.3c0.8-4.8,1.9-7.9,3.2-9.1c1.1-1,2-2.3,2-2.9c0-2,6.6-7.5,11.5-9.7
		c6.2-2.8,15.7-2.3,20.2,1c3.4,2.5,9.2,12.5,8,13.8c-0.9,0.9-4.6-3.2-4.6-5.2c0-2.3-6.8-6.5-12.1-7.5c-7.3-1.4-11.8,0.1-17.3,5.6
		c-5.1,5.1-9.6,14.1-9.6,19.1c0,4.4,1.2,4.3,3.6-0.3c2.7-5.2,6.2-8,11.6-9.3c6.7-1.6,12.5-0.5,14.2,2.9c1.8,3.6,3.1,12.1,1.8,12.1
		c-0.5,0-1.3-2-1.7-4.4s-1.3-5-2.1-5.6c-2.2-1.8-7.7,2.9-10.9,9.2c-3.4,6.8-3.4,13.9-0.1,31.7c2.3,12.3,2.5,18.1,0.5,18.1
		c-0.4,0-1-3.3-1.3-7.3c-0.3-4-1.2-10.8-2.1-15.3c-2.5-12.2-3-18.3-1.8-20.8c1.7-3.4,3.5-9.8,2.9-10.3c-1.1-1.1-4.9,7-6.1,13.3
		c-1.2,6-1.4,6.3-1.5,2.8c-0.3-9.1,6.2-20.4,12.9-22.4c4.2-1.3,5.4-3.1,2-3.1c-3.3,0-11.5,5.7-13.4,9.2c-3.6,6.7-4.6,8.3-4.6,6.8
		c0-1.6,1.6-4.9,4.5-9.4c1.9-2.9,1.9-2.9-0.2-1.8c-1.1,0.6-3.8,4.6-6,8.9c-3.8,7.5-3.9,8-3.7,17.4c0.1,7.5,0.8,11.9,3.3,20
		c4.3,14.4,4.9,22,2.1,28.4c-1.2,2.8-1.9,3.9-1.6,2.5c2-9.2,1.2-25.2-1.4-28.5c-1.1-1.3-2.8-10.3-3.6-18.3c-0.3-3.5-0.8-7.2-1-8.2
		s0-3.3,0.5-4.9c0.7-2.4,0.6-3-0.6-3c-1,0-1.5,1.3-1.5,4.8c-0.2,9.6,0.3,18.8,1.3,22.8c3.3,13.4,4.2,20.8,3.1,26.1
		c-1,4.7-1.9,6.1-7.4,11.4c-8.8,8.4-9.6,9-11.2,9c-0.8,0-1.7,0.5-2.1,1s-1.4,1-2.3,1c-3.4,0-18.2,19.8-18.2,24.3
		c0,0.8-0.7,2-1.5,2.7c-1.2,1-1.5,1-1.5-0.3c0-0.9,0.4-1.8,0.9-2.1s1.2-1.8,1.6-3.3s2.2-5.1,4.1-7.9s3.4-5.5,3.4-6
		c0-0.5,1.5-2.1,3.3-3.5s5.1-4.3,7.4-6.3s5-3.5,6.1-3.5c2.7,0,11.9-8.4,14.3-13.1c2.2-4.3,2.6-12.4,0.9-17.9
		c-1.7-5.6-3.9-21.9-3.9-29.2c0-3.8-0.5-6.8-1-6.8c-0.5,0-1,0.6-1,1.3c0,0.8-0.3,0.8-0.9-0.2c-0.8-1.2-1-1.2-1.6,0.5
		c-0.4,1.1-1.5,3.1-2.4,4.5s-2,4.2-2.4,6.4s-1.1,4.6-1.6,5.5s-1.6,5.2-2.5,9.6c-1.6,7.6-4.6,14.9-8.4,20.5
		c-15.2,21.9-22.5,36.8-21.8,44.8l0.3,3.6l4-7.4c2.9-5.4,7.1-10.6,15.2-18.9c14.3-14.6,13.5-13.6,16.3-19.5
		c2.2-4.6,2.5-6.5,2.9-23.5l0.5-18.5l0.8,16.7c0.5,9.2,1.2,18.2,1.6,20c0.5,2.1,0.3,4.2-0.5,5.7l-1.2,2.4l-0.3-2.3
		c-0.3-2-0.7-1.7-2.6,2.2c-2,4-13.5,16.2-18.8,19.9c-1.1,0.8-3.9,3.9-6.3,6.9s-4.7,6.1-5.2,6.8c-0.6,0.7-2.1,4.2-3.5,7.8
		c-3.5,9.2-3.3,23.6,0.3,28.4c0.2,0.3,0.8-0.2,1.3-1c0.8-1.2,0.9-1.2,0.9,0.3c0,1,0.5,1.8,1,1.8s1,0.6,1,1.4c0,2.3,2.6,6.5,5.4,8.7
		c3.5,2.8,3.4,0.9-0.4-5.7c-4.3-7.6-3.7-8,1-0.5c2.2,3.5,4.5,6,5,5.7c0.6-0.3,0.7-1.2,0.3-1.8c-0.4-0.6-1.7-2.8-2.8-4.7
		c-2.6-4.2-4.7-12.2-3.6-13.3c0.4-0.4,1.3,1.8,2,5c0.6,3.2,2.4,7.6,3.9,9.8s2.8,4.2,2.8,4.3s1.9-0.6,4.1-1.7
		c7.7-3.7,14.4-5.9,14.3-4.7c0,1-3.5,2.9-15.2,8.1c-2,0.9-4,2.1-4.3,2.6c-1.4,2.3-5.3,0.6-11.5-5.1c-8.3-7.6-9.7-8-5.9-1.6
		c1.1,1.9,2.9,3.8,4,4.1c1.1,0.3,1.9,1,1.9,1.4s1.4,1.4,3,2.1s3,1.6,3,2c0,0.9-16.2,10-17.9,10c-0.6,0-6.1,3.4-12.3,7.5
		c-6.2,4.1-11.8,7.5-12.5,7.5c-0.7,0-1.3,0.4-1.3,0.8s-2,1.9-4.5,3.2s-5,2.9-5.6,3.7c-0.6,0.7-1.7,1.3-2.5,1.3
		c-0.8,0-1.4,0.4-1.4,0.8s-1.1,1.4-2.5,2s-3.1,1.6-3.8,2.2c-0.7,0.6-2.4,1.9-3.9,3c-2.4,1.8-2.6,2.3-1.7,4.9c1.4,4,0.8,9.6-1.1,9.6
		c-1,0-1.4-0.8-1.2-2.5c0.5-3.6-1.2-1.4-3.4,4.3c-1,2.6-2.2,5-2.6,5.3c-1.4,0.8-1-2.9,0.6-5.6c3-5.2,3.6-7.3,2.6-8.4
		c-0.7-0.7-1-0.5-1,0.7c0,0.9-0.5,1.7-1.1,1.7c-0.6,0-0.8-0.7-0.4-1.8c0.5-1.3,0.4-1.5-0.5-0.6c-0.6,0.6-1.7,1-2.3,0.7
		c-0.7-0.3-1.2,1.2-1.3,4.2c-0.2,4.1,0,4.4,1.2,2.8c0.8-1,1.4-2.4,1.4-3.1s0.4-1.3,0.9-1.3s0.4,1.6-0.2,3.5s-1.7,3.5-2.4,3.5
		s-1.3,0.5-1.3,1s0.5,1,1,1s1,0.9,1,1.9c0,1,0.7,2.2,1.6,2.5c2.5,1,7.6,0.7,7-0.3c-0.3-0.5,0.4-2.7,1.5-4.8c2.8-5,3.2-5.4,2.4-2.1
		c-0.6,2.3-0.4,2.6,0.9,2.2c0.9-0.3,1.9-2.3,2.3-4.3s0.9-3.1,1.1-2.4c0.2,0.7-0.1,2.9-0.8,4.9c-1,3.1-1,3.8,0.5,5.3
		c1.6,1.5,1.7,1.5,1.1-0.5c-0.3-1.2,0-3.3,0.8-4.8c1.2-2.4,1.5-2.5,2.1-0.9c0.7,1.7,0.8,1.7,1.6-0.2c0.5-1.1,0.9-3.5,0.9-5.3
		c0.1-4.7,2.1-4,2.1,0.8c0,3.8,0.1,3.9,2,2.8c1.1-0.7,1.6-1.4,1-1.6c-1.2-0.4-1.4-10.2-0.1-10.2c0.5,0,1.2,1.2,1.6,2.8l0.8,2.8
		l0.8-2.5c0.7-2.2,0.8-2.1,0.8,1c-0.1,5,0.2,5.8,1.2,3.5c0.5-1.1,0.9-4,1-6.5c0.1-3.4,0.3-4,1-2.5c0.5,1.1,0.6,3.3,0.3,4.9
		c-0.4,2-0.2,2.7,0.6,2.2c0.6-0.4,1.4-2.5,1.8-4.7s1.1-4.2,1.6-4.6c0.6-0.4,0.8,0.6,0.5,2.5c-0.3,1.7-0.1,3.1,0.3,3.1
		c1,0,1.9-2.7,1.9-5.5c0-1.3,0.5-2.7,1.1-3.1c0.8-0.5,1,0.4,0.7,2.9c-0.2,2-0.1,3.6,0.3,3.6s1-2.5,1.4-5.5s1.1-5.5,1.7-5.5
		c0.6,0,0.7,1.6,0.3,4c-0.4,2.6-0.3,4,0.4,4c0.6,0,1.4-2.3,1.7-5s1.1-5,1.6-5c0.5,0,0.7,1.1,0.4,2.5c-0.3,1.4-0.2,2.5,0.3,2.5
		c1,0,2.1-3.4,2.1-6.8c0-1.2,0.5-2.3,1-2.3s1,0.9,1,2.1s0.5,1.8,1,1.4s1-2.2,1-4.1s0.5-3.4,1.1-3.4c0.7,0,0.9,1.1,0.5,3
		c-0.3,1.7-0.2,3,0.3,3c1,0,2.1-3.5,2.1-6.9c0-1.3,0.3-2.1,0.7-1.7s0.6,2.3,0.5,4.2c-0.2,2.2,0.1,3.3,0.8,2.9c0.6-0.4,1-2.4,1-4.6
		s0.4-3.7,0.9-3.4s0.8,2.2,0.6,4.2c-0.3,3.3-0.2,3.5,1.1,1.8c0.8-1,1.4-3,1.4-4.4c0-1.4,0.5-3.5,0.9-4.6c0.7-1.6,0.9-1.3,0.9,1.8
		c0.1,5.4,1.6,4.6,2.8-1.5l1-5.3l0.2,4c0.2,3.2,0.4,3.6,1.1,2c0.5-1.1,0.9-3.3,0.9-5c0.1-3.9,1.8-2.1,2.3,2.5
		c0.3,2.7,0.4,2.3,0.6-1.8c0.2-5.9,2.2-7.3,2.2-1.5c0,2.8,0.3,3.4,1,2.3c0.5-0.8,1-2.5,1-3.7c0-1.6,0.5-2,1.5-1.6
		c1.1,0.4,1.4,0,1.3-1.7c-0.1-1.2,0.3-2.4,1-2.7c0.8-0.3,1.3,0.6,1.3,2.4c0.1,2.5,0.2,2.6,0.9,0.8c0.8-1.8,0.9-1.8,0.9,0.5
		c0.1,3.8,2,0.3,2-3.8c0-1.8,0.4-3.1,0.9-2.8c0.5,0.3,0.7,1.9,0.5,3.6c-0.5,4.2,1.4,2.8,2.2-1.6c0.8-4.5,2.8-4.5,2.2,0
		c-0.2,1.9-0.1,3.2,0.4,3c0.4-0.3,1.1-2.7,1.4-5.4s1.1-5,1.7-5c0.6,0,0.7,1.2,0.4,2.9c-0.3,1.6-0.3,3.2,0.1,3.6s1.2-1.7,1.8-4.6
		c0.7-3.5,1.2-4.4,1.3-2.6c0.1,3.3,1.5,3.5,3.5,0.6c0.8-1.2,1.8-1.9,2.2-1.5c1,1-2.4,7.5-4.4,8.6c-3.1,1.7-0.3,2.5,4.6,1.3
		c6.7-1.8,16.4-8.6,20-14.2c6.6-10,10.2-21.5,10.2-32.2c0-1.9,0.3-3.8,0.6-4.1c0.3-0.3,0.7-4.4,0.7-9.1c0-4.8,0.5-8.2,1-7.9
		c1.5,0.9-0.1,26.9-2.2,34.2c-2.9,10.6-6.2,16.8-12.3,23.5c-5.8,6.3-3.3,6.2,3.7-0.2c5.4-4.9,5.3-3.2-0.1,2.1
		c-2.5,2.5-6,4.9-7.8,5.3l-3.1,0.7l3.5,0.6c3.9,0.7,3,1.8-2.4,3.2c-3.1,0.8-3,0.8,0.6,0.6c2-0.1,4,0.2,4.4,0.6s0,0.7-1,0.7
		s-1.7,0.5-1.7,1s1,0.9,2.3,0.8c3.4-0.4,3.6,1.6,0.2,2.3c-2.6,0.6-2.4,0.6,1.4,0.8c5.8,0.2,4.4,2.1-1.4,2.1c-4.1,0-4.4-0.2-3.9-2
		c1.1-3.5-1.5-2.2-3.1,1.5c-1.6,3.9-1.7,3.9-4.5,2.5c-2.7-1.5-2.4-3,0.6-3c1.7,0,2.8-0.7,3.4-2.3c1.1-2.9,0.5-3.8-2.5-3.8
		c-2.1,0-2.9,1-4.9,5.5c-1.3,3-2.4,5.9-2.4,6.4c0,0.5,1.9,1.2,4.2,1.6c3.8,0.6,4.5,0.4,6.8-2.2c2.3-2.6,2.9-2.8,7.5-2.3l15,0.5
		l-15.2,0.9c-7.3,0.4-5.6,2.6,3,2.6c3,0,18.9-0.6,19.8-0.5c1.9,0.3-14.9,1.6-22.1,2c-10.2,0.6-13.9,1.3-13.9,2.6c0,1,2,0.9,21.5-1
		c5-0.5,31.3-1.3,31.6-1.1c1.1,1-24.9,2.9-29.1,3.1l-4.5,0.1l5,0.9c2.8,0.5,34.2-0.7,37.5-1c3.8-0.3,5.2-0.2,3.9,0.4
		c-1.1,0.5-5,1.1-8.5,1.3s-33.6,2.1-34.4,2.4s-3.6,0.8-6.3,1.2c-2.6,0.4-4.5,1.1-4.2,1.6c0.3,0.5,1,0.7,1.5,0.4s3.5-0.8,6.7-1
		s9.3-0.8,13.7-1.2c9.2-0.9,19.3-0.8,35,0.5c10.9,0.8,10.7,0.9-13,1.5c-27,0.8-37.5,1.6-39,3c-0.7,0.7,0.3,0.8,3,0.4
		c8-1.1,54.5-2,54.5-1c0,0.6-7.3,1-18.5,1.1c-16.6,0.1-35.8,2.1-37.5,3.9c-0.3,0.3,5,0.4,11.7,0.1s12.3,0,12.3,0.4
		c0,0.4-2.9,0.8-6.3,0.8s-6.7,0.3-7,0.7c-0.4,0.4-1.9,0.9-3.4,1.1s-3.2,0.8-3.7,1.3c-0.7,0.7,0.5,0.7,3.5,0.2
		c2.5-0.4,14.9-0.8,27.5-0.8c23.4,0,28.5,0.6,28.5,3.8c0,1.2-0.8,1.1-4.8-0.3c-6.7-2.5-17.5-3.2-33.8-2.1
		c-21.9,1.4-22.1,2.9-0.4,2.3c18.2-0.5,24.6,0.1,32.2,3c1.9,0.7,2.5,1.4,1.8,2.1c-0.7,0.7-1.4,0.7-2.3-0.1
		c-3.5-2.9-34.7-4.5-41.8-2.1c-1.5,0.5,1.8,0.7,8.3,0.4c11.4-0.5,20.8,0.6,26.5,3c5,2.1,3.5,2.6-2.3,0.9c-5.6-1.7-28.2-2.1-33-0.6
		c-2.2,0.7,0.6,1,10.7,1c10.1,0.1,14.8,0.5,17.8,1.7c3.9,1.6,5.8,4,2.3,3c-8.5-2.5-12.5-2.9-24-2.7c-6.3,0.1-7,1.8-1,2.4l4.3,0.4
		l-4.8,0.2c-2.6,0.1-4.8,0.6-4.8,1.1c0,0.7,9.6,0.8,14,0.1c0.3,0-0.2-0.5-1-1.1c-1.1-0.7-0.4-1,2.7-1c4.1,0,11.3,2.6,11.3,4.1
		c0,0.4-1.3,0.1-2.8-0.7s-4.3-1.7-6.1-2.1c-2.6-0.5-3.2-0.4-2.8,0.7c0.3,0.8,1.7,2,3.2,2.7c3.4,1.7,2.8,2.6-0.8,1.2
		c-3.3-1.2-22.6-1.4-22.6-0.2c0,0.5,3.9,1.2,8.6,1.5c10.1,0.8,13.4,1.5,13.4,2.9c0,0.7-2.4,0.8-6.8,0.4c-9.5-0.9-27.7-0.9-41.2-0.1
		c-8.1,0.5-11.2,0.4-10.7-0.3c0.4-0.6,3.2-1.4,6.4-1.7s8-0.9,10.7-1.3c5-0.7,4.9-0.7-3-1.2c-15.3-1.1-75.5-0.1-88,1.4
		c-13.5,1.6-25.4,4-28.4,5.5C331.3,743.4,330.8,743.5,330.1,742.3L330.1,742.3z M368.2,733.3c3.1-1,6.4-1.4,23.9-3
		c17.8-1.6,22.9-1.8,25.5-1c1.6,0.5-0.7,0.8-6.3,0.8c-5.1,0.1-8.8,0.5-8.8,1.1c0,0.6,2.9,1,6.8,1c16.1,0.1,42.4,0.9,43.2,1.4
		c1.1,0.7,4.1-0.4,4.1-1.4c0-0.4-3.7-1.2-8.3-1.6l-8.3-0.9l5.9-0.3c5.6-0.3,5.8-0.4,3.7-1.8c-1.2-0.8-3.8-1.4-5.9-1.3
		c-6.4,0.4-21.6,0-21-0.6c0.3-0.3,5.1-0.5,10.7-0.6c5.6,0,10.1-0.4,10.1-0.9c0-1.5-5.4-2.7-8.6-2c-1.7,0.4-10.5,0.7-19.5,0.8
		c-17.4,0.2-44.4,2.4-49.4,4.1c-3.1,1,4.4,0.8,20.5-0.5c4.6-0.4,6-0.3,4.9,0.5c-0.9,0.6-5.1,1.3-9.5,1.7c-7,0.6-11.5,1.2-24.2,3.2
		c-1.8,0.3-3.3,0.9-3.3,1.4C354.6,734.5,364.5,734.5,368.2,733.3L368.2,733.3z M435.6,729.2c-1.2-0.8-1.1-1,0.7-1
		c1.2,0,2.5,0.4,2.8,1C439.9,730.5,437.5,730.5,435.6,729.2L435.6,729.2z M396.1,726.2c3.1-0.8,20.2-1.3,19.4-0.6
		c-0.2,0.2-5.4,0.6-11.4,0.9C398,726.8,394.4,726.7,396.1,726.2L396.1,726.2z M472.6,729.4c0-1.5-0.9-3.7-2-4.8
		c-1.1-1.1-3.8-3.7-5.9-5.9c-3.6-3.6-4.2-3.8-6.5-2.8c-3.5,1.6-4.4,5.7-1.9,9.1c2.4,3.2,9.8,7.1,13.5,7.2
		C472.2,732.2,472.6,731.8,472.6,729.4L472.6,729.4z M453.4,723c-1.5-5.5-0.7-7.6,3.1-9.1c1.6-0.6,3-1.4,3-1.7c0-0.8-6.9-6.3-10-7.9
		c-1.4-0.7-5.9-3.8-10-6.9c-13.2-9.9-19.2-12.9-22.6-11.1c-1.4,0.7-2.1,1.8-1.7,2.7c0.4,1,0,1.4-1.3,1.2c-2.9-0.4-5.4,1.1-5.4,3.1
		c0,2.8,1.9,3.3,2.9,0.8c0.8-2.1,0.9-1.9,1,1.4c0,2,0.5,4,1.1,4.3c0.6,0.4,1-0.6,1-2.4c0-1.7,0.5-3.3,1-3.6c0.6-0.4,1,1,1,3.4
		c0,2.2,0.5,4.1,1,4.1s1-1,1-2.3c0-2.7,1.5-5.3,2.3-4.1c0.3,0.5,0.1,1.6-0.4,2.4s-0.9,2.7-0.9,4.3c0,3.5,2.3,3.1,2.8-0.4
		c0.7-5.4,2-3.7,1.4,2c-0.4,4.4-0.2,6.1,0.7,6.1c0.8,0,1-0.8,0.6-2c-0.4-1.1-0.2-2,0.4-2c0.6,0,1.1,0.9,1.1,2s0.5,2,1,2s1-1.1,1-2.5
		c0-1.7,0.6-2.5,1.7-2.5c1.3,0,1.4,0.3,0.5,1.2c-2,2-1.5,5.8,0.7,5.8c1.1,0,2.1,0.8,2.4,1.8c0.3,1,0.5,0.3,0.6-1.4s0.6-3.5,1.3-3.9
		c0.8-0.5,1,0,0.5,1.7c-0.3,1.3-0.2,3,0.2,3.8c0.6,1,1.1,0.6,1.9-1.5c1-2.7,1-2.6,1.1,1.9c0.1,4.9,2.1,6.8,2.1,2
		c0-2.2,0.2-2.5,1.1-1.3c0.8,1.1,1.2,1.2,1.6,0.3c1.1-2.8,2.1-1,1.6,3c-0.4,3.2-0.1,4.6,1.1,5.6c1.4,1.2,1.6,1,1.7-1.5
		c0-1.6,0.3-2.2,0.6-1.4c0.7,2,4.7,8,5.1,7.6C454.5,727.6,454.1,725.5,453.4,723L453.4,723z M382.1,722.7c6.6-0.9,35.3-2.4,45.8-2.4
		c5.4,0,9.6-0.4,9.3-0.9c-0.3-0.5-6.8-0.6-14.4-0.4c-9.1,0.3-14.6,0.1-15.8-0.6c-1.5-0.9-0.8-1.1,4.1-1.3c3.3-0.1,9.5-0.1,13.8,0.1
		c4.7,0.2,7.8-0.1,7.8-0.7c0-0.5-1-1.3-2.3-1.6c-3.7-1-27.5-0.7-39.3,0.5c-15.6,1.6-16.1,3.3-0.8,2.4c7.4-0.4,12.3-0.3,12.3,0.3
		c0,0.5-4.7,1.3-10.5,1.6c-5.8,0.4-11.7,0.9-13.3,1.1c-7.9,1.3-9.2,1.6-9.2,2.5C369.6,724.1,372.2,724,382.1,722.7L382.1,722.7z
		 M358.3,720c-0.3-0.8-0.6-0.6-0.6,0.6c0,1.1,0.2,1.6,0.5,1.3S358.5,720.8,358.3,720L358.3,720z M424.5,711.6
		c-1.1-1.4-3.7-1.5-18.1-1.3c-11.7,0.2-17.1,0.7-18,1.6c-1,1,2.6,1.3,18.1,1.3C424.1,713.2,425.7,713.1,424.5,711.6z M418.6,708
		c0-1.8-4.2-2.4-13.9-1.9c-6.9,0.4-10.6,1-10.8,1.8c-0.3,0.9,2.6,1.2,12.2,1C412.9,708.9,418.6,708.5,418.6,708L418.6,708z
		 M411.6,703.3c-0.8-0.5-3.5-0.5-6-0.1l-4.5,0.8l6,0.1C410.8,704.1,412.5,703.8,411.6,703.3z M407.6,700.2c0-1.3-3-1.3-5,0
		c-1.1,0.7-0.7,1,1.8,1C406.1,701.2,407.6,700.8,407.6,700.2z M457.4,698.1c2.9-0.1,5.2-0.6,5.2-1.1c0-1-2.2-1-8.3-0.2
		c-2.5,0.3-4.4,1-4.1,1.5c0.3,0.5,0.9,0.7,1.3,0.4S454.5,698.2,457.4,698.1L457.4,698.1z M356.1,694.8c0.8-0.8,1.4-2.2,1.4-3.1
		c0-1.2,0.3-1.4,1.3-0.7c2.1,1.8,4.7-1,4.7-5.1c0-2-0.4-3.9-1-4.2c-0.6-0.4-0.7,0.6-0.3,2.6c0.5,2.3,0.3,3-0.5,2.5
		c-0.6-0.4-1.2-1.3-1.2-2s-0.7-1.9-1.5-2.6c-1.2-1-1.5-1-1.5,0.4c0,0.9-0.5,1.6-1,1.6s-1-0.5-1-1c0-1.8-3.9-1.1-6.1,1.1
		c-2.1,2.1-2.2,5.8-0.4,10.2C349.9,696.6,354.1,696.8,356.1,694.8L356.1,694.8z M351.6,691.3c-1.2-2.3-0.4-5.1,1.6-5.1
		c0.9,0,1.4,1.2,1.4,3.5C354.6,693.6,353.2,694.3,351.6,691.3z M438.6,685c0-1,0.6-2.6,1.2-3.7c1.7-2.8,0.5-3.4-3.4-1.7
		c-1.9,0.8-5.6,1.7-8.3,2.2l-4.9,0.7l2.5,1.9c1.3,1,3.2,1.6,4.1,1.4c0.9-0.3,1.9-0.1,2.3,0.5s1.3,0.7,2.1,0.4
		c0.8-0.3,1.7,0.2,2.1,1.1c0.5,1.3,0.8,1.4,1.5,0.4C438.2,687.3,438.5,685.9,438.6,685L438.6,685z M367.8,683.7
		c-0.3-1.3-1.1-2.4-1.8-2.4c-1,0-1.1,0.8-0.4,3.2c0.5,1.8,0.9,3.5,0.9,3.8c0,0.3,0.4-0.1,0.8-0.8C367.9,686.7,368.1,685,367.8,683.7
		L367.8,683.7z M372.6,683.2c0-1.1-0.7-1.9-1.6-1.9c-1.1,0-1.4,0.5-1,1.6c0.3,0.9,0.6,2,0.6,2.6c0,0.5,0.5,0.7,1,0.4
		S372.6,684.2,372.6,683.2z M345.6,684.2c0-1.4,4.7-4.3,7.3-4.6c1.2-0.1,4.3-0.3,7-0.3c8.6-0.1,4-2.1-5.1-2.1
		c-4.9,0-9.6-0.6-10.8-1.3c-1.2-0.7-4.9-3.8-8.3-7c-7.5-7-10.6-13.4-11.6-23.5c-0.4-4-1.1-7.5-1.6-7.8c-0.5-0.3-0.9-1.6-0.9-3
		s-0.4-2.4-0.9-2.4c-3.1,0-4.4,28.6-1.6,34c0.8,1.6,1.5,3.5,1.5,4.3c0,3,8.7,10,15.2,12.3C342.8,685.3,345.6,685.7,345.6,684.2
		L345.6,684.2z M376.6,682.4c0-1.3-1.2-2.2-2.2-1.6c-1,0.6-0.1,2.4,1.2,2.4C376.1,683.2,376.6,682.8,376.6,682.4z M435.1,677.7
		l4-1.4l-4.1,0c-2.2,0-4.9,0.6-6,1.4c-1.9,1.4-1.9,1.5,0.1,1.5C430.2,679.2,432.9,678.5,435.1,677.7L435.1,677.7z M379.4,669.7
		c0.4,0.4,0.5,2.2,0.3,4.1c-0.4,4.1,1.3,4.5,2.7,0.7l1-2.8l0.1,2.8c0,1.5,0.5,2.8,1,2.8s1.4-1.2,1.9-2.8c0.9-2.5,1-2.5,1.1-0.5
		c0.1,2.8,2.4,2.9,5.6,0.4l2.4-1.9l-2.7-1.4c-1.5-0.8-4.8-3.1-7.3-5.1s-5-3.8-5.5-3.8c-0.5,0-1.9,2.3-3.2,5.2
		c-2,4.4-2.2,5.5-1.1,7.7c1.3,2.6,1.3,2.6,2.2-1.7C378.3,671,379,669.3,379.4,669.7L379.4,669.7z M350.7,670.5
		c-2.2-2.6-4.5-6.1-5.1-7.7c-2.2-5.8-3.5-16.1-2.9-23c0.5-6.5,0.6-6.6,0.8-2c0.6,11.7,1.2,17.2,2.1,20c1.8,5.4,5.9,12.8,8,14.2
		c2.6,1.8,2.5,1.1-0.5-3.7c-1.4-2.2-3.1-6.6-3.9-9.9s-1.8-6.5-2.2-7.3c-0.5-0.7-0.9-13.9-0.9-29.3c0-28.6-0.3-31.5-2.9-34.5
		c-0.8-0.9-1.3-1.9-1-2.2c0.3-0.3,0.1-1.8-0.5-3.3c-0.6-1.5-1.3-2.5-1.7-2.1s-1.6-0.2-2.7-1.3c-1.1-1.1-3.4-2.1-5.1-2.3
		c-1.6-0.2-3.8-1.2-4.7-2.3c-1.5-1.7-1.9-1.8-2.8-0.5c-1.2,1.7-1.1,9.7,0.2,12.3c1.5,3,2.6,1.9,1.8-1.7c-0.5-2.4-0.4-4,0.6-5.3
		c1.2-1.6,1.4-1.4,1.4,2c0,4.1,1.5,7.7,3.1,7.7c0.6,0,0.6-0.8-0.1-2.1c-0.6-1.1-0.9-2.6-0.7-3.3s1.1,0.2,2,1.8c1.6,3,1.6,3,1.7,0.5
		c0.1-2.2,0.2-2.3,1.1-0.8c1.5,2.6,2.9,2.1,3-1c0-2.5,0.1-2.6,1.1-0.8c0.8,1.4,0.9,8.3,0.4,23.5c-1,29.9-1.3,34.5-2.5,34.9
		c-0.6,0.2-1,3.7-1,8.2c0,9.7,3.1,20.1,6.6,22.4c2.9,1.9,2.9,2-0.1-4.9c-3.4-7.6-3.1-9.6,0.3-2.4c1.6,3.4,4.1,6.8,6.1,8.3
		C354.7,676.5,355.1,675.7,350.7,670.5L350.7,670.5z M334.2,656.4c-2.6-8-2.7-13.9-0.6-27.2c0.7-4.5,1-12.5,0.7-20
		c-0.3-7.7-0.2-11.4,0.3-9.6c1.7,5.9,2,19.1,0.6,29.1c-0.8,5.5-1.2,10.2-1,10.4c0.8,1,1.4-1.1,2.4-8.5c1.4-10.4,1.3-20.2-0.5-29.2
		c-1.4-7.3-2.6-10.2-2.6-6.6c0,1.9-0.1,1.9-1.5,0c-1.8-2.4-1.9-1.1-0.5,6.4c1,5.5,1.4,15.2,0.7,21.1c-0.2,1.9-0.9,7.5-1.5,12.5
		c-0.6,5-1.3,10.6-1.5,12.5s-0.4,0.6-0.5-3c-0.1-3.6,0.5-12,1.3-18.6c1.4-11.8,1.2-22.3-0.6-25.4c-0.6-1.1-0.9-0.5-1,2l-0.1,3.5
		l-0.8-3c-0.4-1.7-0.8-4.1-0.8-5.5c-0.1-2.4,0-2.4,1.4-0.6c1.2,1.6,1.5,1.6,1.5,0.4c0-1.3-3.9-4.8-5.4-4.8c-0.3,0-0.5,10-0.4,22.3
		c0.1,19.7,0.2,21.7,1.3,17.8c1.2-4.4,1.3-4.2,1.1,5.5c-0.1,10.4,1.7,19,3.8,18.1c0.6-0.2,2.2,1.9,3.5,4.7
		C336.8,667.6,337.1,665.3,334.2,656.4L334.2,656.4z M329.6,652.6c0-1.2,0.3-1.4,0.6-0.6c0.3,0.7,0.3,1.6-0.1,1.9
		C329.8,654.3,329.6,653.7,329.6,652.6L329.6,652.6z M325.6,626.3c0-0.5,0.5-1.2,1-1.6s1,0.1,1,0.9s-0.5,1.6-1,1.6
		S325.6,626.8,325.6,626.3z M334.3,641c-0.3-0.8-0.6-0.6-0.6,0.6c0,1.1,0.2,1.6,0.5,1.3S334.5,641.8,334.3,641L334.3,641z
		 M338.1,592.5c-1.3-1.3-1.8,0.9-1,4.5l0.8,3.8l0.3-3.9C338.5,594.8,338.4,592.8,338.1,592.5z M322.5,584.2c-2.1-4.9-2.1-5.3-0.6-8
		c1.8-3,2.2-8,0.7-8c-1.4,0-3.4,6.9-3.5,12.1c-0.1,3.6,0.5,5.2,2.4,7.2c1.4,1.4,2.6,2.4,2.8,2.2S323.7,587.1,322.5,584.2
		L322.5,584.2z M312.6,581c0-2.3,0.5-4.9,1-5.8c0.7-1.1,1,0.2,1,4.3c0,3.4,0.4,5.8,1.1,5.8c0.6,0,1-1.6,0.9-3.8
		c-0.1-2.1,0.5-5.4,1.4-7.5c0.9-2,1.6-4.5,1.6-5.5c0-1.5-0.4-1.3-1.9,0.7c-2.1,2.7-2.1,2.7-3.8-1.2c-2.1-4.8-3.8-3.3-5.2,4.3
		c-1.1,6.2-1.1,7.3,0.3,8.8c0.9,1,1.6,2.3,1.6,2.9s0.5,1.2,1,1.2S312.6,583.3,312.6,581L312.6,581z M333.6,529.5
		c0-1.3-2.7-4.3-3.9-4.3c-1,0-0.1,5.1,1.2,6.8c0.8,1.1,1.2,1.1,1.9,0C333.2,531.3,333.5,530.2,333.6,529.5L333.6,529.5z M326,509
		c0.4-1,0.3-1.8-0.3-1.8c-1.6,0-2.8,7.8-2.3,14l0.5,5.5l0.6-8C325,514.3,325.6,509.9,326,509z M333.5,519c-1.3-4.6-2.9-5.8-2.9-2.1
		c0,2.4,2.7,7,3.6,6.1C334.4,522.7,334.1,521,333.5,519L333.5,519z M320.6,516.3c0-3.1,0.5-5.3,1.5-6.1c0.8-0.7,1.5-2,1.5-2.9
		c0-3.1,8.9-11.1,12.3-11.1c0.9,0,1.9-0.5,2.3-1.1c0.5-0.8-0.4-0.9-3.2-0.4c-3.6,0.7-11.1,6-11.3,8c0,0.5-0.7,1.6-1.4,2.5
		c-2.7,3.1-4.8,16.1-2.6,16.1C320.1,521.2,320.6,519,320.6,516.3L320.6,516.3z M328.8,516.2c0.4-4.2,1.2-5.7,4.3-9
		c4.5-4.6,4-6.3-0.8-2.7c-3.5,2.7-5.7,7.9-5.7,13.6C326.6,523.1,328.3,521.7,328.8,516.2L328.8,516.2z M336.6,517.5
		c0-2.7-1.5-6.1-2.3-5.2c-0.2,0.3-0.2,2.2,0.1,4.2C334.9,520.8,336.6,521.6,336.6,517.5z M318.4,508.7c2.8-8.7,9.2-14.8,18.2-17.6
		c2.2-0.7,2-0.8-1.3-0.8c-4.8-0.1-7.2,1.2-12,6.3c-4.3,4.6-7.1,10.3-8,16C314.4,518,316,516,318.4,508.7L318.4,508.7z M339.7,511.8
		c-0.3-3.5,1.6-8.3,4.3-10.5c1.9-1.6,4.6-6.8,4.6-8.9c0-2.4-6.3,4.2-8.8,9.3c-2.1,4.1-2.9,12.5-1.5,13.9
		C339.4,516.7,340,515.2,339.7,511.8L339.7,511.8z M344.6,508.7c1.8-5.4,0.6-6.5-1.9-1.7c-1.2,2.4-1.9,4.7-1.6,5.3
		C342,513.8,343.3,512.5,344.6,508.7z M331.1,503.3c1.8-1.6,3.9-3.1,4.6-3.4s1-0.8,0.7-1.2c-0.8-0.9-9,4.4-9.6,6.2
		C326.2,507,327.6,506.4,331.1,503.3L331.1,503.3z M343.6,493.3c0-0.4,2.5-2,5.5-3.6s5.5-3.3,5.5-3.7c0-1-5,0.2-7.5,1.8
		c-4.9,3.1-8.6,8.2-5,6.8C342.9,494.3,343.6,493.7,343.6,493.3z M371,487.3c0.3-0.5,0.1-1.2-0.5-1.6c-1.5-0.9,0-13.4,2-16.7
		c1.5-2.5,6.5-6.9,10.5-9.3c1.5-0.9,1.4-1.5-1-6.7c-2.3-5-3-5.8-6.2-6.4c-10.3-1.9-25.2,4.4-25.3,10.8c0,0.9-0.7,2.4-1.5,3.2
		c-2,2-1.9,8,0.1,12.2c2.3,4.9,4.2,5.1,5.4,0.7c1.1-4.1,5.3-8.3,8.3-8.3c1.4,0,0.8,0.9-2.4,3.3c-3.5,2.7-4.4,4-4.6,7
		c-0.2,2.1,0.1,3.7,0.8,3.7c0.6,0,1.1-1,1.1-2.3c0-2.5,2.6-6.7,4.1-6.7c0.6,0,0.1,1.2-1.1,2.6c-2,2.6-2.8,6.4-1.3,6.4
		c0.4,0,1.2-1,1.8-2.2s1.8-2.3,2.8-2.4c1.2-0.1,1.3,0,0.3,0.3c-3,0.9-1.9,5.2,2.7,10.5C369.3,488.3,370.2,488.7,371,487.3L371,487.3
		z M376.1,472.4c1.5-2.2,3.3-4.2,4.1-4.5c1.8-0.7,1.9-2.6,0.2-2.6c-3.7,0-10.9,15.1-8.9,18.5c0.3,0.5,0.9-0.9,1.3-3.2
		C373.1,478.3,374.6,474.6,376.1,472.4L376.1,472.4z M334.3,732.6c-0.9-1.4,0.8-6.3,2.3-6.3c1.3,0,1.3,1.3,0.1,2.5
		c-0.5,0.5-1.1,1.8-1.3,3C335.2,733,334.8,733.3,334.3,732.6L334.3,732.6z M305.6,725.2c0.8-0.5,2.4-0.9,3.5-0.9c2,0.1,2,0.1,0,0.9
		c-1.1,0.5-2.7,0.9-3.5,0.9C304.2,726.2,304.2,726.1,305.6,725.2z M301.6,722.2c0-1.1,0.2-1.1,6.5-1.5l4-0.3l-3.5,1.3
		C304.3,723.4,301.6,723.6,301.6,722.2z M506.1,710.2l-17-0.6l18.2-0.2c11.3-0.1,18.4,0.2,18.8,0.8c0.3,0.5-0.2,0.9-1.2,0.8
		S515.4,710.5,506.1,710.2L506.1,710.2z M521.8,705.5c1-0.3,2.5-0.3,3.5,0s0.2,0.5-1.8,0.5S520.9,705.8,521.8,705.5z M293.6,701.4
		c0-0.8,7.5-2.4,16.5-3.6c3.5-0.5,3.7-0.4,1.5,0.6c-2.2,1-15.2,3.9-17.3,3.9C293.9,702.2,293.6,701.9,293.6,701.4L293.6,701.4z
		 M365.5,667.8c-2.7-2.3-6.4-11.8-6.1-15.4c0.1-1.3,0.9-3.3,1.8-4.5c1.5-2.1,1.5-1.9,0.9,2.4c-1.2,8.3,1.2,13.4,8.1,17.5
		c1.7,1,1.7,1.1-0.2,1.6C368.7,669.7,367,669.1,365.5,667.8L365.5,667.8z M447.8,665c0.2-0.7,1.5-1.8,2.8-2.5
		c4.6-2.3,7.7-6.7,10.3-15c2.3-7.4,2.6-10.3,3.2-32.3c0.4-15.6,1.1-25.8,2-28.9c1.3-4.3,1.3-3.4,0.9,11.8c-1.3,44.3-2.6,52-10,60.8
		C454.2,662.4,447.2,667,447.8,665L447.8,665z M449.3,657.2c5-4.7,8.2-11.3,8.4-17.8l0.2-4.7l0.4,4c0.8,7.6-0.5,11.8-5.4,17.3
		c-2.5,2.9-5.3,5.2-6.2,5.2C445.6,661.2,446.5,659.9,449.3,657.2L449.3,657.2z M376.3,646c-0.3-7.3-1.1-14.9-1.8-17
		c-1.1-3.2-1-4.3,0.4-7.3c2.3-4.8,3.7-4.5,2.6,0.5c-0.6,2.5-0.5,5.7,0.1,8.5c1.2,5.3,1.2,28.5,0.1,28.5
		C377.2,659.2,376.6,653.3,376.3,646L376.3,646z M468.6,655.1c0-0.8,0.7-2.4,1.5-3.4c1.1-1.5,1.5-1.6,1.5-0.4c0,0.8-0.7,2.4-1.5,3.4
		C468.9,656.1,468.6,656.2,468.6,655.1z M379.6,654.9c0-1.9,2.4-10.3,3.1-11.1c0.5-0.6,0.6,1.2,0.2,4c-0.3,2.7-1.3,5.6-2,6.4
		C380.2,655,379.6,655.3,379.6,654.9L379.6,654.9z M413.6,654.2c0-0.6,0.5-0.8,1-0.4s1,0.8,1,1.1s-0.5,0.4-1,0.4
		S413.6,654.7,413.6,654.2z M412.6,652.1c0-0.2-0.4-1.9-0.9-3.7s-0.5-3.2-0.1-3.2c1,0,2.4,5.9,1.6,6.7
		C412.8,652.3,412.6,652.4,412.6,652.1z M402.9,642.7c0-3.8,0.2-5.3,0.4-3.2c0.2,2.1,0.2,5.2,0,7
		C403.1,648.3,402.9,646.6,402.9,642.7L402.9,642.7z M381.6,641c0-0.7,0.5-2,1-2.8c0.8-1.2,1-1.1,1,0.7c0,1.2-0.4,2.5-1,2.8
		S381.6,641.7,381.6,641z M474.7,637c-0.1-2.1,0.4-3.8,0.9-3.8c1.1,0,1.1,1.4,0,5C474.9,640.4,474.8,640.3,474.7,637z M475.6,628.8
		c0-2,0.2-3.6,0.4-3.6c0.8,0,1.2,6.1,0.4,6.6C475.9,632.1,475.6,630.7,475.6,628.8z M361.9,629.6c-0.4-1-1.2-2.3-1.9-2.9
		s-1.5-2.3-1.9-4c-0.4-1.6-1.2-3.3-1.8-3.6c-1.7-1.1-1.2-27.6,0.6-29.4c2.4-2.4,3.7-1.8,2.4,1.3c-0.7,1.6-1.1,7.4-1,13.8
		c0.1,9,0.6,12.4,2.7,18.4c1.4,4.1,2.3,7.6,2.1,7.9C362.8,631.3,362.3,630.7,361.9,629.6L361.9,629.6z M475.5,616
		c0-4.5-0.3-16.6-0.6-26.8c-0.5-16.6-0.4-18.7,1.1-19.9c1.6-1.3,1.6-0.5,1.1,11.4c-0.7,15,0.7,24.5,3.4,22.4c1-0.8,0.8,0-0.6,2.3
		c-1.6,2.6-2.2,5.5-2.4,11.3c-0.2,4.3-0.6,7.8-1.1,7.8S475.6,620.5,475.5,616L475.5,616z M411.7,617.6c0-1.2,0.3-1.4,0.6-0.6
		c0.3,0.7,0.3,1.6-0.1,1.9C411.8,619.3,411.6,618.7,411.7,617.6L411.7,617.6z M438.6,610.1c0-0.9,0.9-2.4,2-3.4
		c2.6-2.3,8-11.7,8-13.8c0-0.9,0.4-1.6,0.9-1.6c1.2,0,0.3,5.7-1.5,9.6C446.1,604.8,438.6,612.2,438.6,610.1L438.6,610.1z
		 M375.3,603.7c-2.3-3.1-3.7-10.9-3.7-20c0-7.8,2.5-17.5,4.6-17.5c0.9,0,0.8,1.6-0.6,6.3c-2.8,9.4-2.6,21.7,0.5,28.5
		C378.6,606.5,378.3,607.8,375.3,603.7L375.3,603.7z M471.7,602.2c0-1.4,0.2-1.9,0.5-1.3s0.3,1.8,0,2.5S471.7,603.6,471.7,602.2z
		 M484.7,599.6c0.8-0.9,3.2-2.5,5.4-3.5c8.1-3.6,19.1-16.6,22.5-26.5c2.6-7.4,2.5-8-1.1-11.6c-2.7-2.7-3.5-3-7-2.4l-4,0.6l1.6-2.5
		c2.5-3.7,5.9-3.3,10.7,1.5c3.9,3.9,4,4.1,3.4,9.3c-1.1,9-2.7,12.8-7.2,17.7c-2.4,2.6-4.4,5.2-4.4,5.7c0,1.5-7.6,7.3-11.3,8.5
		c-1.8,0.6-4.3,1.9-5.6,2.9C484.7,601.7,482.9,601.8,484.7,599.6L484.7,599.6z M378,595.9c-0.3-1.8-0.4-4.7-0.2-6.3
		c0.4-2.6,0.4-2.5,0.6,0.8c0.1,2,0.6,4.8,1.1,6.3c0.6,1.5,0.6,2.6,0,2.6C379.1,599.2,378.4,597.7,378,595.9L378,595.9z M383.1,595.5
		c-2.4-6.1-1.1-32.4,1.5-30.8c0.5,0.3,1.4-1.2,2.1-3.2c1.1-3.4,5.7-11.3,6.5-11.3c0.5,0-0.8,3.4-1.9,4.8c-0.6,0.7-2,3.4-3.2,6
		c-2,4.3-2.6,6.2-4.3,13.2c-0.9,3.7-0.4,17.4,0.8,20.4c0.5,1.4,0.6,2.6,0.1,2.6S383.5,596.4,383.1,595.5L383.1,595.5z M480.2,592.2
		c0.4-3,0.8-11.1,0.9-18s0.6-13.6,1.2-15c1.3-3,5-6.6,5.9-5.7c0.3,0.3-0.4,1.5-1.8,2.6c-2.3,1.8-2.4,2.7-3,17.3
		c-0.6,15.6-1.2,20-3,22.8C479.8,597.2,479.7,596,480.2,592.2L480.2,592.2z M484.1,589.2c0.4-1.4,1.2-3,1.7-3.5
		c0.7-0.7,0.8-0.2,0.3,1.5c-0.4,1.4-1.2,3-1.7,3.5C483.7,591.4,483.6,590.9,484.1,589.2z M431.6,585.5c0-0.4,0.5-1.5,1-2.3
		c0.8-1.3,1-1.3,1,0.2c0,0.9-0.4,2-1,2.3S431.6,586,431.6,585.5z M385.6,580.3c0-1.8,0.5-5.3,1.2-7.9c1.3-5.2,5-11.3,5.6-9.3
		c0.3,0.8,0.9,0.7,1.9-0.6c1.3-1.6,1.3-1.6,0.3,0.7c-0.6,1.4-2.3,3.9-3.6,5.7s-2.8,5.6-3.4,8.4C386.4,583.6,385.6,584.8,385.6,580.3
		L385.6,580.3z M486.5,582.7c-0.1-0.5-0.1-1.5,0-2c0.1-0.5,0.2-5.2,0.1-10.3c-0.1-6.1,0.2-9.1,0.9-8.7c1.2,0.8,1.2,17.2,0,20
		C487.1,582.8,486.6,583.3,486.5,582.7L486.5,582.7z M457.6,577.7c0-0.5,0.4-1.7,1-2.5s1-1,1-0.5s-0.4,1.7-1,2.5
		S457.6,578.3,457.6,577.7z M457.6,570.7c-0.2-0.5-0.3-1.3-0.2-1.7c0.1-0.4-0.4-3.2-0.9-6.2s-1.2-6.8-1.5-8.3
		c-0.2-1.5-0.9-4.8-1.4-7.3s-0.9-6.1-0.9-8c0.1-2.6,0.2-2.9,0.5-1c0.2,1.4,1.5,6.8,2.9,12.1c1.7,6.6,2.4,11.4,2.1,15.5
		C458.1,569.1,457.8,571.3,457.6,570.7L457.6,570.7z M395.3,568c1.1-1.2,4.4-7.1,7.2-13c4.2-8.8,5.1-11.5,4.8-15
		c-0.3-4.1-0.4-4.2-1.1-1.2c-2.4,9.2-4.1,13.8-5.8,15.8l-2,2.2l1.7-3.4c3-6.1,5.5-16.8,4.7-20.3c-0.7-3.2-0.7-3.2-1.4-0.8
		c-0.5,1.8-0.7,1.1-0.8-2.8c-0.1-7.2-3-6.7-3.2,0.6c0,1.5-0.5,3.6-0.9,4.7c-0.6,1.3-0.7-0.1-0.3-3.8c0.4-4,0.2-5.8-0.6-5.8
		c-0.7,0-1.1,1.7-1.1,4.1c0,4.3-4.4,18.3-6.6,20.9c-0.7,0.8-1.6,2.7-1.9,4.3c-0.7,3-2.5,4.7-2.5,2.5c0-0.8,0.7-3.6,1.5-6.3
		c0.8-2.7,2-9,2.5-13.9c2.1-18.9,3.8-28.6,5.2-30.3c0.8-0.9,1.8-2.6,2.1-3.7c1.2-3.9,7.3-12.3,11.4-15.8c4.6-3.9,8.7-5.2,13.2-4.2
		c3.3,0.7,8,5.7,6,6.3c-0.6,0.2-1.8-0.6-2.6-1.7c-1.8-2.6-8.9-2.9-13.3-0.6c-2.9,1.5-7.2,6.6-10.3,12.2c-2.1,3.9-2.2,4.7-0.3,4
		c1.7-0.7,1.8-0.4,0.6,4.7c-0.7,3.2-0.7,3.6,0.5,2.6c1.2-1,1.4-0.6,1.5,2.2l0.1,3.4l0.7-3c2.1-8.9,9.2-15.3,19.9-18.1
		c4.7-1.2,5.7-1.2,7.7,0.1c3.3,2.1,4.5,6.5,2.9,10.1l-1.3,2.9l-0.1-3.7c-0.1-2.9-0.7-4.1-3-5.8c-1.6-1.1-3.8-2.1-4.9-2.1
		c-2.9,0-13.4,5-15.5,7.3c-2.9,3.3-6,16.7-3.9,16.7c0.6,0,1.1-1.2,1.1-2.8c0-2.8,3.4-11.3,4.5-11.3c0.3,0-0.1,1.2-0.9,2.8
		c-1.3,2.5-3.6,12.7-3.6,15.9c0,0.7,0.4,1.3,0.9,1.3s1.1-2,1.5-4.5c0.3-2.5,1.4-6,2.3-7.8c2.2-4.3,7.2-8.7,9.8-8.7
		c1.9,0.1,1.9,0.1-0.3,1c-2.7,1.1-5.8,4.4-7.3,7.9c-1.8,4-4.8,19.1-4.8,24.1c0,5.3-2.5,13.4-5.2,16.8c-1,1.3-1.8,2.8-1.8,3.3
		c0,1.7-7,11.8-8.2,11.8C393.8,570.2,394.2,569.2,395.3,568L395.3,568z M394.6,528.6c1-12.9,1.1-16.8,0.4-16.2
		c-1,1-2.6,11.4-3.2,20.3c-0.5,7.1-0.3,8.8,0.6,7.8C393.3,539.9,394.2,534.8,394.6,528.6L394.6,528.6z M378.6,565.8
		c-0.1-3.3,2.9-10.6,4.2-10.6c1,0,0.4,2.3-2.3,9C378.8,568.3,378.7,568.5,378.6,565.8z M333.4,564.6c-0.8-2.9,0.6-11.3,2.1-12.7
		c1-1,1.1-0.8,0.5,0.8c-0.4,1.1-1.1,4.7-1.4,8C334.3,564.5,333.8,566,333.4,564.6L333.4,564.6z M336.7,559.6
		c-0.1-3.6,1.7-9.4,2.9-9.4c0.5,0,0.2,1.9-0.5,4.3s-1.6,5.2-1.8,6.3C337,562,336.8,561.6,336.7,559.6L336.7,559.6z M466.3,560
		c-1-2.6,2.4-12.3,5.4-15.3c6.5-6.7,20.6-7.2,25.2-0.8c2.6,3.6,1.5,3.9-2.9,1c-9.2-6.3-23.7,0.4-25.2,11.5
		C468.3,560.4,467.1,562.1,466.3,560L466.3,560z M325.6,554.3c0-1.6,3.6-7.7,6.2-10.6c2.3-2.5,2.3-1.2-0.1,2.2c-1,1.5-2.8,4.3-4,6.2
		C326.6,554.1,325.6,555.1,325.6,554.3L325.6,554.3z M398.7,547.2c0-0.3,0.9-3,1.9-6c1.3-3.6,1.9-4.6,1.9-3
		C402.5,540.2,398.7,549.1,398.7,547.2L398.7,547.2z M507.7,540.5c0-3.3-0.8-6.2-2.6-9.4c-2.7-4.9-4.8-5.9-12.3-5.9
		c-3.4,0-9.3,2.7-9.3,4.2c0,0.4-0.7,0.8-1.5,0.8s-1.5-0.4-1.5-0.9c0-1.4,5.1-5.1,7.1-5.1c1,0,2.1-0.4,2.4-0.9c1.1-1.7,9-1,13.2,1.2
		c3.6,1.8,4.4,2.9,5.8,7.4c1.1,3.5,1.4,6.6,1,9.3C509.2,546.7,507.7,546.3,507.7,540.5L507.7,540.5z M478.7,532.6
		c0-1.2,0.3-1.4,0.6-0.6c0.3,0.7,0.3,1.6-0.1,1.9C478.9,534.3,478.6,533.7,478.7,532.6L478.7,532.6z M472.8,526.8
		c1.2-1.9,2.4-3.1,2.6-2.6c0.4,1.2-2.8,6-3.9,6C471,530.2,471.6,528.7,472.8,526.8L472.8,526.8z M356.8,526.2c-1.5-2.4-1.6-4-0.2-4
		c0.5,0,1,0.7,1,1.5s0.5,1.5,1,1.5s1,0.7,1,1.5C359.6,528.8,358.3,528.6,356.8,526.2L356.8,526.2z M352.8,525.2
		c-1.6-2.6-1.6-6.6,0.3-12.6c1.9-6.2,2.4-7,5.5-7.9c2.4-0.7,2.4-0.7-0.7,2.6c-4.5,4.8-5.9,10.2-4,15.6
		C355.4,527.5,354.9,528.6,352.8,525.2L352.8,525.2z M480.6,521.1c0-0.9,1-3.1,2.3-4.9c1.7-2.5,3.4-3.6,6.8-4.5
		c7.7-1.9,13.8,0.8,15.4,6.9c0.9,3.5,0,3.4-1.8-0.2c-3.4-6.7-13.9-6.3-19.6,0.7C481.7,521.3,480.6,522.1,480.6,521.1L480.6,521.1z
		 M355.6,514.3c0-1.1,0.5-2.1,1-2.1s1,0.6,1,1.4s-0.5,1.7-1,2.1S355.6,515.4,355.6,514.3z M358.3,510.1c0.7-0.7,1.5-1,1.8-0.7
		s-0.2,0.9-1.2,1.2C357.5,511.2,357.3,511.1,358.3,510.1L358.3,510.1z M403.7,505.7c-0.1-3.1,10.4-13.1,14.1-13.6
		c5.1-0.7,5,1.6-0.1,2.4c-3.8,0.6-8.1,4-12.3,9.8C404.4,505.7,403.7,506.3,403.7,505.7L403.7,505.7z M415.6,503.3
		c1.4-1.1,2.7-1.7,3-1.4c0.6,0.6-3,3.4-4.4,3.3C413.6,505.2,414.2,504.3,415.6,503.3L415.6,503.3z M403.9,498.7
		c3.3-6.6,13.4-13.2,16.1-10.5c0.6,0.6-0.6,1.2-3.4,1.6c-4.5,0.7-5.3,1.3-10.9,7.9C402.8,501.2,402.6,501.3,403.9,498.7L403.9,498.7
		z M393.5,498.1c-0.6-1.1-1.3-4.6-1.5-7.8l-0.4-5.7l0.9,4.8c0.5,2.7,1.4,6.1,1.9,7.8C395.6,500.7,395.1,501.1,393.5,498.1
		L393.5,498.1z M389.1,498.3c-0.3-0.5-0.8-3.4-1-6.3c-0.4-4.8-0.3-4.9,0.4-1.1c0.4,2.3,1.3,4.8,2,5.7c0.8,0.9,0.9,1.7,0.3,2.1
		C390.2,499,389.4,498.8,389.1,498.3L389.1,498.3z M384.7,494.4c-1.3-2.4-1.3-7.9,0-10.7c0.7-1.5,0.9-1.1,0.6,2
		c-0.2,2.2,0,5.3,0.5,6.9C386.7,496.2,386.1,497.1,384.7,494.4L384.7,494.4z M395.9,493.5c-1-3.9,1.2-13.2,3.8-16
		c2.5-2.7,4-2.3,1.6,0.4c-2.6,2.8-3.9,7.4-3.9,13C397.5,496.8,397,497.7,395.9,493.5L395.9,493.5z M380.5,492.5
		c-1.7-4.3-0.3-13.6,2.7-18.3c3.3-5.3,4.2-4.4,1.2,1.2c-1.9,3.5-2.3,5.9-2.2,12.1c0,4.3-0.1,7.8-0.3,7.8
		C381.7,495.2,381.1,494,380.5,492.5L380.5,492.5z M387.7,484.2c0-1.4,0.4-3.2,0.9-4c0.8-1.2,1-1.2,0.9,0.5c0,1.1-0.4,2.9-0.9,4
		C387.8,486.6,387.7,486.5,387.7,484.2z M385.7,479.6c0-1.2,0.3-1.4,0.6-0.6c0.3,0.7,0.3,1.6-0.1,1.9
		C385.9,481.3,385.6,480.7,385.7,479.6L385.7,479.6z M466.2,470.3c-1.6-4.5-3.7-8.7-4.6-9.4c-1-0.7-2.1-2.2-2.4-3.5
		c-1.2-3.9-10.5-7.4-20-7.5c-10.3-0.1-13.8,1.4-21.6,9.4c-3.9,4-6,5.5-6,4.4c0-4.9,7-12.4,14.8-15.8c7.1-3.2,22-3,28.2,0.2
		c5,2.7,6.4,3.9,10.2,9c2.9,3.9,5.2,12.7,4.7,17.8C469.1,478.1,468.8,477.6,466.2,470.3L466.2,470.3z M390.6,476.6
		c0-1.2,5.6-7.4,6.7-7.3c0.4,0,0.1,0.6-0.7,1.3s-2.5,2.5-3.8,4.1S390.6,477.1,390.6,476.6L390.6,476.6z M399.1,473.2
		c0.7-1.1,4.5-3.3,4.5-2.6c0,0.3-0.7,1.2-1.6,2C400.3,474.4,398.1,474.8,399.1,473.2z M404.6,469.2c0-0.6,0.5-0.8,1-0.4s1,0.8,1,1.1
		s-0.5,0.4-1,0.4S404.6,469.7,404.6,469.2z M397.7,465.4c-0.2-5.1,7.1-16,10-15c1,0.4,0.7,0.8-1.1,1.7c-2.7,1.3-6.9,7.8-8.1,12.6
		C397.9,467.1,397.8,467.3,397.7,465.4L397.7,465.4z M402.6,461.3c0-1.3,5.1-7.3,5.8-6.7c0.3,0.3-0.9,2.1-2.6,4.1
		C404,460.7,402.6,461.9,402.6,461.3L402.6,461.3z M385.1,449.9c0.4-1,0.9-1.5,1.2-1.2c0.3,0.3,0,1.1-0.7,1.8
		C384.7,451.5,384.6,451.4,385.1,449.9L385.1,449.9z M392.2,449.6c0.3-1.2,1.9-3.4,3.7-5c2.7-2.5,2.6-1.9-0.6,2.1
		c-0.4,0.6-1.4,1.9-2.2,3C391.7,451.7,391.7,451.7,392.2,449.6L392.2,449.6z M388.6,448.9c0-1.4,6.3-9.8,8.1-10.7
		c2.6-1.4,2.5,0.5,0,2.3c-1.1,0.8-3.3,3.1-5,5.2S388.6,449.2,388.6,448.9L388.6,448.9z M385.6,446.8c0-2,4.3-9.7,5.9-10.5
		c2.4-1.3,2.8,0.1,0.5,2c-0.9,0.7-2.4,3-3.5,5.1C386.8,446.7,385.6,448.1,385.6,446.8L385.6,446.8z"/>
</g>
</svg>
