<?xml version="1.0" encoding="utf-8"?>
<!-- Generator: Adobe Illustrator 22.1.0, SVG Export Plug-In . SVG Version: 6.00 Build 0)  -->
<svg version="1.1" id="Layer_1" xmlns="http://www.w3.org/2000/svg" xmlns:xlink="http://www.w3.org/1999/xlink" x="0px" y="0px"
	 viewBox="0 0 512 512" style="enable-background:new 0 0 512 512;" xml:space="preserve">
<style type="text/css">
	.st0{fill:none;stroke:#000000;stroke-width:3;stroke-miterlimit:10;}
</style>
<path class="st0" d="M260,358.6c-7.4,4.8-15.2,10.1-28.5,7.4c-28.7-5.7-15.8,5.7-53.1,0s-10-10-20.1-21.5c-10-11.5-23-10-23-10
	s-1.4-11.5-21.5-31.6c-20.1-20.1-12.9-21.5-14.4-28.7c0,0,8.6,4.3-25.8-20.1c-23-16.3-12.7-17.9,2.6-22.2
	c3.4,25.7,30.2,21.5,34.1,29.4c4.3,8.6-2.9,15.8,0,23s5.7,15.8,40.2,21.5s25.8,15.8,31.6,38.7c5.7,23,68.9-8.6,68.9-8.6
	s2.6-15.5,7.7-11C259.5,334.7,259.9,346.2,260,358.6z"/>
<path class="st0" d="M285.3,316.9c-7.2-5.7-11.5-12.2-11.5-12.2l6.7-1.8C282.4,305.6,281.5,310.3,285.3,316.9z"/>
<path class="st0" d="M409.2,347.1c-0.9,0.6-37.1,23.2-65.8,34.9c-28.7,11.7-23-11.7-51.6-26.2c-5.2-2.6-9.5-3.8-13.3-4
	c-0.4-5-0.7-9.6-1-13.6c17,10.2,39.6,22.1,39.6,22.1s43.1,0,58.8-7.4c9.9-4.7,25.6-14.8,36.2-23
	C414.9,334.8,409.9,346.7,409.2,347.1z"/>
<path class="st0" d="M278.4,351.8c3.7,47.2,10.4,129.5,13.5,140.1h-37.5c0,0,6-75.7,5.6-133.3c-0.1-12.4-0.5-23.9-1.3-33.7
	c-0.7-8.7-1.8-16.1-3.2-21.3l-3.4-2.4c20.5-2.1,26.3-1.5,28.4,1.6l-6.7,1.8c0,0,4.3,6.5,11.5,12.2c2.6,4.4,7.2,9.6,16.2,15.7
	c-7.2-1.7-15.7-5.9-25.6-13.8c0,0,0.5,7.5,1.4,19.3h0C277.7,342.2,278,346.8,278.4,351.8z"/>
<path class="st0" d="M340.5,301.5c-0.2,1.1-8.9,38.1-39,31.1c-9-6.1-13.7-11.3-16.2-15.7C297.7,326.7,318.7,334.2,340.5,301.5z"/>
<path class="st0" d="M313.4,293.9l-32.9,8.9c-2.1-3.1-7.9-3.7-28.4-1.6l-58.8-40.7c1.7,0.9,54.8,30.2,64.4,36.6
	C267,303.4,310.4,294.5,313.4,293.9z"/>
<path class="st0" d="M280.5,302.8l-6.7,1.8c0,0,4.3,6.5,11.5,12.2C281.5,310.3,282.4,305.6,280.5,302.8z M285.3,316.9
	c2.6,4.4,7.2,9.6,16.2,15.7c30.1,7,38.7-30.1,39-31.1C318.7,334.2,297.7,326.7,285.3,316.9z M257.6,297.1
	c-9.5-6.4-62.7-35.7-64.4-36.6l58.8,40.7c20.5-2.1,26.3-1.5,28.4,1.6l32.9-8.9C310.4,294.5,267,303.4,257.6,297.1z M357.2,260.5
	c-4.3-0.7-18.7-12.2-33-25.1c-14.3-12.9-10,5.7-21.5,15.8c-5.7,5-9.7,9.3-13.3,12.4c-3.6,3-6.8,4.8-11.1,4.8l23,10
	c0,0,10-5.7,14.4-5.7c4.3,0,24.4,5.7,41.6,5.7c17.2,0,11.5-4.3,17.2-17.9C380.2,246.9,361.5,261.3,357.2,260.5z"/>
<path class="st0" d="M437.5,199.5c0-4.3-14.3-48.8-14.3-56c0-7.2,7.2-50.2,7.2-50.2s-20.1-5.7-47.3-35.9c-27.3-30.1,0,0-14.4-23
	c-14.3-23-21.5-7.2-64.6-22.5c-43.1-15.4-23-0.4-30.1,1c-7.2,1.4-28.7-2.9-41.6,0c-12.9,2.9-40.2,23-53.1,23
	c-12.9,0-50.2,15.8-64.6,24.4c-14.3,8.6-23,43-33,45.9c-10,2.9-21.5,23-21.5,30.1c0,3.8,4.8,18.3,9.1,36.1
	c1.8,7.4,3.5,15.4,4.7,23.4c1.5,9.5,2.4,19.1,2,28c-0.1,2.9,0,5.5,0.3,7.9c3.4,25.7,30.2,21.5,34.1,29.4c4.3,8.6-2.9,15.8,0,23
	s5.7,15.8,40.2,21.5s25.8,15.8,31.6,38.7c5.7,23,68.9-8.6,68.9-8.6s2.6-15.5,7.7-11c-0.7-8.7-1.8-16.1-3.2-21.3l-3.4-2.4l-58.8-40.7
	c1.7,0.9,54.8,30.2,64.4,36.6c9.3,6.2,52.8-2.6,55.8-3.2l-32.9,8.9c1.9,2.7,1,7.4,4.8,14c12.4,9.9,33.4,17.3,55.2-15.4
	c-0.2,1.1-8.9,38.1-39,31.1c-7.2-1.7-15.7-5.9-25.6-13.8c0,0,0.5,7.5,1.4,19.3h0c17,10.2,39.6,22.1,39.6,22.1s43.1,0,58.8-7.4
	c9.9-4.7,25.6-14.8,36.2-23c6.2-4.8,10.6-9.1,11.2-11.2c1.4-5.7,0-11.5,1.4-31.6c1.4-20.1,8.6-24.4,12.9-31.6
	C441.8,248.3,437.5,203.8,437.5,199.5z M267.5,196c-9,7.7-17.9,5-31,0c-13-5-11.4-2.2-11.4-13.3s-20.1-13.3-18.7-27.6
	c0.1-0.5,0.1-1.1,0.2-1.6c2.1-12.8,12.7-12.8,12.7-12.8l30.4,10l28.5,20c0,0-0.9,9.4-5,17.5C271.8,191.2,269.9,193.9,267.5,196z
	 M315.6,272.7c-4.3,0-14.4,5.7-14.4,5.7l-23-10c4.3,0,7.5-1.8,11.1-4.8c3.6-3,7.5-7.4,13.3-12.4c11.5-10,7.2-28.7,21.5-15.8
	c14.4,12.9,28.7,24.4,33,25.1c4.3,0.7,23-13.6,17.2,0c-5.7,13.6,0,17.9-17.2,17.9C340,278.5,319.9,272.7,315.6,272.7z"/>
<path class="st0" d="M374.4,260.5c-5.7,13.6,0,17.9-17.2,17.9c-17.2,0-37.3-5.7-41.6-5.7c-4.3,0-14.4,5.7-14.4,5.7l-23-10
	c4.3,0,7.5-1.8,11.1-4.8c3.6-3,7.5-7.4,13.3-12.4c11.5-10,7.2-28.7,21.5-15.8c14.4,12.9,28.7,24.4,33,25.1
	C361.5,261.3,380.2,246.9,374.4,260.5z"/>
<path class="st0" d="M278.3,170.8c0,0-0.9,9.4-5,17.5c-1.5,2.9-3.4,5.7-5.8,7.7c-9,7.7-17.9,5-31,0c-13-5-11.4-2.2-11.4-13.3
	s-20.1-13.3-18.7-27.6c0.1-0.5,0.1-1.1,0.2-1.6c2.1-12.8,12.7-12.8,12.7-12.8l30.4,10L278.3,170.8z"/>
<path class="st0" d="M370.8,176.6c11.5,25.8-41.6,21.5-51.7,11.8c-10-9.7-17.2-9-24.4-5.7c-3.8,1.7-11.7,4.8-21.5,5.5
	c4.1-8.1,5-17.5,5-17.5l-28.5-20l-30.4-10c0,0-10.6,0-12.7,12.8c-11.4-8.8-21-22.2-18.1-32.9c4.3-15.8-5.7-8.6-15.8-11.5
	c-10-2.9-8.6-25.8,0-28.7s34.4-23,33-30.1c-1.4-7.2,31.8-11.5,31.8-11.5c33.2-30.1,74.4-4.3,80.1,0c5.7,4.3,24.4,0,41.2,5.3
	c16.8,5.4,10.5,37.7,10.5,37.7s10.1,14.3,18.7,27.3c8.6,12.9-4.3,18.7-31.6,33C329.2,156.5,359.4,150.8,370.8,176.6z"/>
</svg>
