<?xml version="1.0" encoding="utf-8"?>
<!-- Generator: Adobe Illustrator 22.1.0, SVG Export Plug-In . SVG Version: 6.00 Build 0)  -->
<svg version="1.1" id="Layer_1" xmlns="http://www.w3.org/2000/svg" xmlns:xlink="http://www.w3.org/1999/xlink" x="0px" y="0px"
	 viewBox="0 0 512 512" style="enable-background:new 0 0 512 512;" xml:space="preserve">
<path style="fill:none;stroke:#000000;stroke-width:2;stroke-linecap:round;stroke-linejoin:round;" d="M326.5,103.3
	c-45.4,0-84.2,30.2-100,73.1c-11.3-5-23.9-7.7-37.2-7.7c-44.6,0-81.6,31.6-89.7,73.4c-5.7-1.4-11.7-2.1-17.9-2.1
	c-40.1,0-72.6,32-72.6,71.4s32.5,71.4,72.6,71.4c12.6,0,24.5-3.2,34.8-8.7c17.8,17.9,46.8,29.6,79.5,29.6c26.3,0,50.2-7.6,67.8-19.8
	c15.1,15.9,36.4,25.7,59.8,25.7c30.5,0,57.2-16.6,71.7-41.5c10,5.6,21.3,8.9,33.2,8.9c41.6,0,75.3-38.6,75.3-86.2
	c0-45.9-31.3-83.3-70.7-86C426.6,147.4,381.3,103.3,326.5,103.3L326.5,103.3z"/>
</svg>
