<?xml version="1.0" standalone="no"?>
<!DOCTYPE svg PUBLIC "-//W3C//DTD SVG 20010904//EN"
 "http://www.w3.org/TR/2001/REC-SVG-20010904/DTD/svg10.dtd">
<svg version="1.0" xmlns="http://www.w3.org/2000/svg"
 width="1280.000000pt" height="960.000000pt" viewBox="0 0 1280.000000 960.000000"
 preserveAspectRatio="xMidYMid meet">
<g transform="translate(0.000000,960.000000) scale(0.100000,-0.100000)"
fill="#000000" stroke="none">
<path d="M2694 8331 c-65 -30 -107 -106 -119 -217 -9 -81 14 -175 70 -281 32
-61 45 -97 45 -126 0 -53 25 -94 86 -143 143 -117 163 -165 127 -311 -24 -101
-22 -305 5 -404 35 -130 110 -257 206 -348 43 -41 44 -57 21 -258 -18 -147
-23 -168 -94 -378 -94 -274 -189 -697 -242 -1080 -24 -178 -30 -397 -11 -460
7 -23 8 -43 3 -48 -5 -5 -45 -13 -90 -17 -115 -12 -267 -74 -486 -200 -55 -31
-163 -93 -240 -137 -228 -131 -185 -115 -650 -232 -256 -65 -351 -99 -469
-171 -116 -70 -130 -86 -134 -169 -3 -54 0 -76 17 -109 29 -58 57 -72 161 -87
103 -14 129 -28 84 -46 -47 -18 -164 -5 -234 27 -74 33 -151 112 -174 180 -20
60 -21 188 -1 274 9 36 45 137 80 226 84 207 99 276 91 419 -7 137 -16 170
-63 224 -65 76 -151 94 -203 42 -33 -32 -45 -69 -36 -106 6 -25 20 -41 66 -79
21 -17 22 -23 17 -115 -6 -109 -18 -149 -102 -331 -82 -179 -108 -284 -108
-440 -1 -110 2 -134 25 -197 129 -360 553 -481 962 -276 38 19 146 77 238 129
93 51 177 95 186 96 14 3 18 -10 24 -73 5 -48 28 -135 62 -237 29 -89 51 -164
48 -167 -3 -3 -67 -3 -142 1 -142 7 -201 0 -317 -37 -73 -24 -113 -63 -113
-112 0 -61 83 -209 197 -352 186 -234 250 -325 257 -364 7 -47 29 -57 98 -48
29 4 49 1 66 -11 30 -19 123 -22 145 -4 9 7 38 11 74 10 33 -2 71 2 84 9 13 7
37 17 53 23 27 10 28 13 23 51 -7 54 -32 78 -119 114 -45 19 -92 48 -127 80
-31 28 -91 79 -133 114 -77 62 -128 117 -128 139 0 17 8 15 41 -9 16 -11 53
-28 81 -37 49 -16 53 -20 59 -54 3 -21 14 -47 24 -58 36 -40 177 -70 330 -70
56 0 171 -3 255 -7 140 -6 155 -8 180 -30 31 -26 109 -32 155 -11 19 9 31 8
49 -1 24 -14 81 -11 191 8 74 12 98 36 84 84 -12 44 -49 74 -117 93 -31 8 -97
32 -147 51 -90 36 -91 36 -299 44 -118 5 -213 12 -219 18 -13 13 19 51 42 51
35 0 141 61 207 118 113 98 189 174 216 218 23 36 33 42 84 53 112 24 199 53
309 104 102 46 116 50 191 51 66 1 86 5 104 21 19 17 24 18 43 5 83 -53 155
-65 212 -34 17 9 46 25 66 35 20 10 51 37 69 59 25 31 38 40 63 40 54 1 103
31 206 128 55 50 106 92 113 92 8 0 21 -15 30 -33 39 -81 101 -124 248 -172
30 -10 63 -24 72 -32 25 -22 41 -98 39 -186 -3 -94 18 -170 66 -236 18 -25 47
-65 64 -89 30 -42 30 -44 13 -63 -10 -11 -49 -43 -87 -71 -43 -32 -67 -57 -65
-67 4 -22 153 -71 239 -78 48 -4 88 0 140 13 52 13 107 18 184 17 120 -1 189
-18 357 -87 56 -23 124 -41 187 -51 56 -8 142 -26 193 -39 121 -31 316 -50
383 -37 28 5 82 22 120 37 67 26 81 28 300 35 180 5 252 11 330 28 55 12 205
40 333 61 128 22 275 53 327 69 56 18 133 34 191 40 85 7 101 12 142 42 125
89 212 144 257 165 28 12 92 55 143 95 52 41 103 79 115 86 17 9 76 8 252 -2
127 -8 244 -17 261 -20 21 -5 42 -1 62 9 17 9 43 16 58 16 70 0 150 84 123
129 -8 12 -7 28 4 61 14 41 14 47 0 63 -9 9 -22 17 -30 17 -7 0 -13 3 -14 8
-6 67 -27 85 -85 76 -26 -4 -44 -2 -48 5 -10 16 -62 14 -96 -4 -44 -23 -119
-47 -129 -41 -4 3 -11 22 -14 43 -3 21 -8 46 -12 55 -7 18 -3 21 46 32 14 3
43 19 63 36 21 16 55 32 75 36 50 9 68 20 126 75 27 26 74 63 104 83 47 32 60
36 117 36 56 0 67 3 98 31 77 67 63 167 -33 233 -30 21 -42 39 -56 81 -23 75
-49 103 -120 136 -33 15 -72 38 -85 52 -38 38 -208 473 -192 489 17 17 243
-67 450 -166 549 -263 1006 -386 1492 -403 582 -19 894 120 1036 462 27 65 29
79 28 195 -1 143 -26 244 -90 372 -74 147 -274 420 -383 521 -40 37 -57 47
-84 47 -67 0 -84 -75 -30 -132 52 -56 186 -239 248 -338 101 -164 162 -350
153 -468 -13 -168 -183 -331 -393 -377 -115 -26 -366 -30 -540 -11 -435 50
-842 184 -1288 424 -176 95 -299 149 -462 203 -71 23 -136 47 -142 52 -8 6
-13 33 -13 71 0 134 -56 262 -161 368 -133 133 -367 289 -497 332 -97 31 -107
33 -282 51 -80 8 -183 22 -230 30 -176 29 -312 38 -481 32 l-167 -7 -158 44
c-167 46 -231 70 -459 168 -77 33 -187 78 -245 100 -273 102 -809 231 -1090
263 -137 15 -124 7 -171 102 -24 48 -68 120 -98 160 -81 109 -164 157 -321
187 -63 12 -65 13 -64 42 1 16 9 67 19 114 21 102 17 241 -11 371 -15 71 -16
93 -6 125 12 41 79 118 144 167 47 34 67 73 75 140 3 29 21 82 39 118 77 156
85 283 23 406 -28 57 -42 72 -79 91 -38 20 -56 23 -115 19 -101 -6 -166 -36
-342 -153 -85 -57 -165 -104 -177 -104 -11 0 -55 9 -96 20 -167 44 -553 52
-715 14 -38 -9 -96 -18 -128 -21 -62 -6 -62 -6 -289 149 -141 96 -284 130
-374 89z m3628 -4595 c5 -25 5 -43 -2 -50 -15 -15 -118 -45 -175 -51 -27 -3
-69 -8 -92 -11 -39 -5 -43 -3 -58 26 -33 63 4 82 230 120 80 13 88 10 97 -34z
m496 -41 c91 -55 201 -87 385 -110 38 -5 48 -10 45 -23 -3 -13 -19 -19 -73
-25 -39 -4 -94 -14 -123 -23 -52 -17 -53 -17 -120 11 -147 61 -192 101 -192
166 0 22 5 39 11 39 6 0 36 -16 67 -35z m2142 -47 c0 -7 -14 -33 -30 -58 -35
-52 -65 -127 -74 -186 -8 -44 10 -102 41 -136 9 -10 13 -21 10 -24 -11 -12
-257 -5 -402 10 -77 8 -202 21 -278 27 l-138 13 -34 42 c-19 23 -35 46 -35 51
0 4 12 21 26 37 27 31 79 48 203 67 42 6 114 24 161 39 89 30 480 123 538 129
6 0 12 -5 12 -11z m-3215 -268 c25 -47 48 -55 200 -60 125 -4 140 -7 140 -23
0 -26 -242 -265 -297 -293 -63 -32 -72 -31 -91 14 -9 20 -23 53 -31 72 -9 19
-25 46 -36 60 -11 14 -24 48 -28 75 -10 57 -27 90 -56 103 -16 7 -4 15 70 44
49 20 95 36 101 37 7 1 19 -12 28 -29z m-369 -79 c-3 -5 -26 -21 -49 -35 -38
-22 -51 -24 -103 -19 -57 6 -84 16 -84 34 0 5 17 10 38 10 20 1 51 5 67 9 43
11 137 12 131 1z"/>
</g>
</svg>
