<?xml version="1.0" encoding="utf-8"?>
<!-- Generator: Adobe Illustrator 22.1.0, SVG Export Plug-In . SVG Version: 6.00 Build 0)  -->
<svg version="1.1" id="Layer_1" xmlns="http://www.w3.org/2000/svg" xmlns:xlink="http://www.w3.org/1999/xlink" x="0px" y="0px"
	 viewBox="0 0 1280 960" style="enable-background:new 0 0 1280 960;" xml:space="preserve">
<style type="text/css">
	.st0{fill:none;stroke:#000000;stroke-width:7;stroke-miterlimit:10;}
</style>
<g transform="translate(0.000000,960.000000) scale(0.100000,-0.100000)">
	<path class="st0" d="M2694,8331c-65-30-107-106-119-217c-9-81,14-175,70-281c32-61,45-97,45-126c0-53,25-94,86-143
		c143-117,163-165,127-311c-24-101-22-305,5-404c35-130,110-257,206-348c43-41,44-57,21-258c-18-147-23-168-94-378
		c-94-274-189-697-242-1080c-24-178-30-397-11-460c7-23,8-43,3-48s-45-13-90-17c-115-12-267-74-486-200c-55-31-163-93-240-137
		c-228-131-185-115-650-232c-256-65-351-99-469-171c-116-70-130-86-134-169c-3-54,0-76,17-109c29-58,57-72,161-87
		c103-14,129-28,84-46c-47-18-164-5-234,27c-74,33-151,112-174,180c-20,60-21,188-1,274c9,36,45,137,80,226c84,207,99,276,91,419
		c-7,137-16,170-63,224c-65,76-151,94-203,42c-33-32-45-69-36-106c6-25,20-41,66-79c21-17,22-23,17-115c-6-109-18-149-102-331
		c-82-179-108-284-108-440c-1-110,2-134,25-197c129-360,553-481,962-276c38,19,146,77,238,129c93,51,177,95,186,96c14,3,18-10,24-73
		c5-48,28-135,62-237c29-89,51-164,48-167s-67-3-142,1c-142,7-201,0-317-37c-73-24-113-63-113-112c0-61,83-209,197-352
		c186-234,250-325,257-364c7-47,29-57,98-48c29,4,49,1,66-11c30-19,123-22,145-4c9,7,38,11,74,10c33-2,71,2,84,9s37,17,53,23
		c27,10,28,13,23,51c-7,54-32,78-119,114c-45,19-92,48-127,80c-31,28-91,79-133,114c-77,62-128,117-128,139c0,17,8,15,41-9
		c16-11,53-28,81-37c49-16,53-20,59-54c3-21,14-47,24-58c36-40,177-70,330-70c56,0,171-3,255-7c140-6,155-8,180-30
		c31-26,109-32,155-11c19,9,31,8,49-1c24-14,81-11,191,8c74,12,98,36,84,84c-12,44-49,74-117,93c-31,8-97,32-147,51
		c-90,36-91,36-299,44c-118,5-213,12-219,18c-13,13,19,51,42,51c35,0,141,61,207,118c113,98,189,174,216,218c23,36,33,42,84,53
		c112,24,199,53,309,104c102,46,116,50,191,51c66,1,86,5,104,21c19,17,24,18,43,5c83-53,155-65,212-34c17,9,46,25,66,35s51,37,69,59
		c25,31,38,40,63,40c54,1,103,31,206,128c55,50,106,92,113,92c8,0,21-15,30-33c39-81,101-124,248-172c30-10,63-24,72-32
		c25-22,41-98,39-186c-3-94,18-170,66-236c18-25,47-65,64-89c30-42,30-44,13-63c-10-11-49-43-87-71c-43-32-67-57-65-67
		c4-22,153-71,239-78c48-4,88,0,140,13s107,18,184,17c120-1,189-18,357-87c56-23,124-41,187-51c56-8,142-26,193-39
		c121-31,316-50,383-37c28,5,82,22,120,37c67,26,81,28,300,35c180,5,252,11,330,28c55,12,205,40,333,61c128,22,275,53,327,69
		c56,18,133,34,191,40c85,7,101,12,142,42c125,89,212,144,257,165c28,12,92,55,143,95c52,41,103,79,115,86c17,9,76,8,252-2
		c127-8,244-17,261-20c21-5,42-1,62,9c17,9,43,16,58,16c70,0,150,84,123,129c-8,12-7,28,4,61c14,41,14,47,0,63c-9,9-22,17-30,17
		c-7,0-13,3-14,8c-6,67-27,85-85,76c-26-4-44-2-48,5c-10,16-62,14-96-4c-44-23-119-47-129-41c-4,3-11,22-14,43s-8,46-12,55
		c-7,18-3,21,46,32c14,3,43,19,63,36c21,16,55,32,75,36c50,9,68,20,126,75c27,26,74,63,104,83c47,32,60,36,117,36c56,0,67,3,98,31
		c77,67,63,167-33,233c-30,21-42,39-56,81c-23,75-49,103-120,136c-33,15-72,38-85,52c-38,38-208,473-192,489c17,17,243-67,450-166
		c549-263,1006-386,1492-403c582-19,894,120,1036,462c27,65,29,79,28,195c-1,143-26,244-90,372c-74,147-274,420-383,521
		c-40,37-57,47-84,47c-67,0-84-75-30-132c52-56,186-239,248-338c101-164,162-350,153-468c-13-168-183-331-393-377
		c-115-26-366-30-540-11c-435,50-842,184-1288,424c-176,95-299,149-462,203c-71,23-136,47-142,52c-8,6-13,33-13,71
		c0,134-56,262-161,368c-133,133-367,289-497,332c-97,31-107,33-282,51c-80,8-183,22-230,30c-176,29-312,38-481,32l-167-7l-158,44
		c-167,46-231,70-459,168c-77,33-187,78-245,100c-273,102-809,231-1090,263c-137,15-124,7-171,102c-24,48-68,120-98,160
		c-81,109-164,157-321,187c-63,12-65,13-64,42c1,16,9,67,19,114c21,102,17,241-11,371c-15,71-16,93-6,125c12,41,79,118,144,167
		c47,34,67,73,75,140c3,29,21,82,39,118c77,156,85,283,23,406c-28,57-42,72-79,91c-38,20-56,23-115,19c-101-6-166-36-342-153
		c-85-57-165-104-177-104c-11,0-55,9-96,20c-167,44-553,52-715,14c-38-9-96-18-128-21c-62-6-62-6-289,149
		C2927,8338,2784,8372,2694,8331z M6322,3736c5-25,5-43-2-50c-15-15-118-45-175-51c-27-3-69-8-92-11c-39-5-43-3-58,26
		c-33,63,4,82,230,120C6305,3783,6313,3780,6322,3736z M6818,3695c91-55,201-87,385-110c38-5,48-10,45-23s-19-19-73-25
		c-39-4-94-14-123-23c-52-17-53-17-120,11c-147,61-192,101-192,166c0,22,5,39,11,39S6787,3714,6818,3695z M8960,3648
		c0-7-14-33-30-58c-35-52-65-127-74-186c-8-44,10-102,41-136c9-10,13-21,10-24c-11-12-257-5-402,10c-77,8-202,21-278,27l-138,13
		l-34,42c-19,23-35,46-35,51c0,4,12,21,26,37c27,31,79,48,203,67c42,6,114,24,161,39c89,30,480,123,538,129
		C8954,3659,8960,3654,8960,3648z M5745,3380c25-47,48-55,200-60c125-4,140-7,140-23c0-26-242-265-297-293c-63-32-72-31-91,14
		c-9,20-23,53-31,72c-9,19-25,46-36,60s-24,48-28,75c-10,57-27,90-56,103c-16,7-4,15,70,44c49,20,95,36,101,37
		C5724,3410,5736,3397,5745,3380z M5376,3301c-3-5-26-21-49-35c-38-22-51-24-103-19c-57,6-84,16-84,34c0,5,17,10,38,10
		c20,1,51,5,67,9C5288,3311,5382,3312,5376,3301z"/>
</g>
</svg>
