<?xml version="1.0" encoding="utf-8"?>
<!-- Generator: Adobe Illustrator 22.1.0, SVG Export Plug-In . SVG Version: 6.00 Build 0)  -->
<svg version="1.1" id="Layer_1" xmlns="http://www.w3.org/2000/svg" xmlns:xlink="http://www.w3.org/1999/xlink" x="0px" y="0px"
	 viewBox="0 0 600 976" style="enable-background:new 0 0 600 976;" xml:space="preserve">
<style type="text/css">
	.st0{fill:none;stroke:#000000;stroke-width:4;stroke-miterlimit:10;}
</style>
<g id="layer1">
	<g>
		<path class="st0" d="M426.8,218.5c1,0,3.5,2.7,5.2,5.8c0.6,1,1.1,1.9,1.3,2c0.2,0.1,0.3,0.3,0.3,0.5c0,0.2,0.6,1.5,1.2,2.9
			c0.7,1.3,1.2,2.8,1.2,3.2s0.2,0.8,0.4,0.9c0.2,0.2,0.5,0.9,0.6,1.8c0.2,0.8,0.4,1.5,0.6,1.5c0,0,0,0,0,0c0,0,0,0,0,0
			c0.2,0,0.4,0.6,0.6,1.4c0.2,0.8,0.4,1.6,0.6,1.8c0.2,0.2,0.6,1.5,1,2.9c0.4,1.4,0.9,2.8,1.1,3.2c0.2,0.4,0.5,1.6,0.7,2.7
			c0.7,3.1,1.5,5.9,1.8,6.2c0.2,0.2,0.3,0.7,0.3,1.2c0,0.5,0.2,1.2,0.4,1.6c0.4,0.7,0.8,2.4,1.7,7.3c0.3,1.4,0.6,2.8,0.8,3.1
			c0.2,0.3,0.5,1.9,0.6,3.5c0.2,1.6,0.5,3,0.6,3c0,0,0,0,0,0c0,0,0,0,0,0c0.2,0,0.4,0.6,0.5,1.4c0.1,0.8,0.6,2.9,0.9,4.7
			c0.4,1.8,0.9,4.6,1.1,6.1c0.3,1.6,0.6,3.4,0.8,4.1c0.2,0.6,0.6,3,0.8,5.3c0.2,2.3,0.4,4.1,0.6,4.1c0,0,0,0,0,0s0,0,0,0
			c0.2,0,0.5,1.9,0.7,4.2c0.2,2.3,0.5,4.3,0.7,4.4c0.5,0.3,0.6,5.8,0.1,6.6c-0.2,0.3-0.4,1.8-0.5,3.2c-0.1,1.5-0.4,2.6-0.6,2.6
			c-0.2,0-0.3,0.3-0.3,0.7c0,0.3-1,2.3-2.2,4.4c-1.2,2.1-2.2,4-2.2,4.2s-0.1,0.4-0.4,0.4c-0.2,0-0.4,0.2-0.4,0.5
			c0,0.4-2.1,4.1-2.6,4.6c-0.3,0.3-0.9,1.4-2.1,3.8c-0.6,1.1-1.3,2.4-1.7,2.8c-0.4,0.4-0.7,1-0.7,1.2c0,0.2-0.2,0.6-0.4,0.9
			c-0.3,0.3-0.8,1.1-1.2,1.9c-1.4,2.8-1.9,3.7-2.4,4.2c-0.3,0.3-0.5,0.8-0.5,1.1c0,0.3-0.1,0.5-0.3,0.5c-0.2,0-0.4,0.3-0.6,0.7
			c-0.1,0.4-0.4,1-0.7,1.5c-1.5,2.4-2.4,4-3.1,5.3c-0.4,0.8-0.9,1.5-1,1.5c-0.2,0-0.3,0.2-0.3,0.5c0,0.2-0.7,1.7-1.7,3.3
			c-0.9,1.5-1.7,3-1.7,3.2c0,0.2-0.1,0.5-0.3,0.5c-0.2,0.1-0.9,1.2-1.5,2.5c-0.7,1.3-1.3,2.4-1.5,2.5c-0.3,0.3-1.1,1.6-1.5,2.6
			c-0.2,0.5-0.8,1.5-1.3,2.2c-0.5,0.7-0.9,1.5-0.9,1.7c0,0.3-0.1,0.5-0.4,0.5c-0.2,0-0.4,0.2-0.4,0.5c0,0.3-0.2,0.8-0.5,1.1
			c-0.3,0.3-0.6,0.8-0.7,1.2c-0.3,0.8-4.4,7.4-4.8,7.7c-0.1,0.1-0.3,0.6-0.5,1c-0.1,0.5-0.4,0.9-0.6,0.9c-0.2,0-0.3,0.2-0.3,0.4
			c0,0.7-2,2.7-2.7,2.7c0,0,0,0,0,0c-0.5,0-0.7-0.3-0.7-1.3c0-0.8-0.3-1.7-0.8-2.1c-0.4-0.4-0.7-0.6-1.8-0.6c-0.6,0-1.6,0.1-3,0.2
			c-2.2,0.2-4.1,0.5-4.3,0.7c-0.7,0.6-4.6,0.9-8.1,0.9c-2.8,0-5.3-0.2-5.5-0.7c-0.1-0.2-0.5-0.4-0.9-0.4c0,0,0,0,0,0c0,0,0,0,0,0
			c-0.8,0-2.5-0.6-4.7-1.7c-0.6-0.3-1.3-0.5-1.7-0.5c0,0,0,0,0,0c0,0,0,0,0,0c-0.3,0-0.5-0.1-0.5-0.3c0-0.2-0.6-0.4-1.4-0.6
			c-0.7-0.1-1.4-0.4-1.4-0.6c0-0.2-0.7-0.4-1.5-0.5c-0.8-0.1-1.6-0.4-1.8-0.6c-0.1-0.2-0.5-0.3-0.8-0.3c0,0,0,0,0,0c0,0,0,0,0,0
			c-0.6,0-3.5-1.1-4.9-1.8c-0.4-0.2-0.9-0.4-1.3-0.4c0,0,0,0,0,0c0,0,0,0,0,0c-0.3,0-0.6-0.1-0.6-0.4c0-0.2-0.6-0.4-1.4-0.6
			c-0.7-0.1-1.4-0.4-1.4-0.5c0-0.2-0.7-0.4-1.4-0.5c-0.8-0.1-1.6-0.4-1.9-0.5c-0.2-0.2-1.3-0.6-2.4-1c-1.1-0.4-2.1-0.8-2.1-1
			c0-0.2-0.5-0.4-1.2-0.5c-0.7-0.1-1.6-0.5-2.2-0.8c-0.6-0.3-1.3-0.5-1.7-0.5c0,0,0,0,0,0c0,0,0,0,0,0c-0.4,0-0.7-0.2-0.7-0.4
			c0-0.2-0.3-0.4-0.6-0.4c0,0,0,0,0,0c0,0,0,0,0,0c-0.7,0-3.4-1.2-3.8-1.7c-0.2-0.2-1.4-0.3-2.9-0.3c-2.1,0-4.5,0.2-4.6,0.6
			c-0.1,0.3-0.5,0.5-0.8,0.5c-0.6,0-4.1,1.1-5.1,1.6c-0.3,0.2-1.6,0.5-2.8,0.6c-1.2,0.2-2.2,0.5-2.2,0.7c0,0.2-0.2,0.4-0.5,0.4
			c-0.3,0-0.7,0.3-1,0.6c-0.7,0.9,0.1,1.6,2.1,1.8c1.7,0.2,5.9,0.8,11.5,1.8c1.8,0.3,3.9,0.7,4.7,0.8c0.8,0.1,1.4,0.3,1.4,0.5
			c0,0.2,0.6,0.3,1.3,0.3c0,0,0.1,0,0.1,0c0,0,0,0,0,0c0.9,0,2.7,0.6,5.1,1.7c2,1,3.8,1.9,3.9,2c0.4,0.3,3.7,1.8,4.2,1.8
			c0,0,0,0,0,0c0,0,0,0,0,0c0.2,0,0.5,0.1,0.5,0.3c0.1,0.2,1.4,0.9,2.8,1.6c1.5,0.7,2.8,1.4,2.8,1.6c0.1,0.2,0.3,0.3,0.5,0.3
			c0,0,0,0,0,0c0,0,0,0,0,0c0.7,0,5.3,2.3,5.4,2.6c0,0.2,0.2,0.3,0.4,0.3c0,0,0,0,0,0c0,0,0,0,0,0c0.3,0,1.7,0.6,3.3,1.3
			c1.5,0.7,3,1.3,3.2,1.3c0,0,0,0,0,0c0,0,0,0,0,0c0.2,0,0.4,0.1,0.4,0.4c0,0.2,0.3,0.4,0.6,0.4c0,0,0,0,0,0c0,0,0,0,0,0
			c0.3,0,0.6,0.1,0.6,0.3c0,0.2,0.5,0.5,1.2,0.6c0.7,0.1,1.2,0.4,1.2,0.6c0,0.2,0.2,0.3,0.4,0.3c0,0,0,0,0,0c0,0,0,0,0,0
			c0.5,0,7.9,3.4,8.1,3.7c0.1,0.2,0.6,0.4,1.2,0.6c0.5,0.1,1.2,0.5,1.5,0.8c0.3,0.3,0.8,0.5,1.1,0.5c0,0,0,0,0,0c0,0,0,0,0,0
			c0.3,0,0.5,0.1,0.5,0.4c0,0.2,0.3,0.4,0.6,0.4c0,0,0,0,0,0c0,0,0,0,0,0c0.7,0,3.4,1.2,3.8,1.7c0.2,0.2,1.5,0.3,3.1,0.3
			c2.2,0,4.7-0.2,4.9-0.5c0.1-0.2,1.1-1,2.2-1.7c1.1-0.8,2-1.5,2-1.7c0.1-0.2,0.3-0.3,0.6-0.3c0.3,0,1.1-0.5,1.7-1.1
			c0.7-0.6,1.8-1.5,2.6-1.9c1.4-0.8,1.6-0.9,3-2.1c0.5-0.4,1-0.8,1.1-0.8s0.7-0.4,1.3-1c0.6-0.6,1.3-1,1.6-1c0.3,0,0.5-0.1,0.6-0.3
			c0.1-0.3,2.5-2,2.8-2.1c0.1,0,0.7-0.4,1.3-1c0.6-0.5,1.2-1,1.5-1s0.5-0.2,0.5-0.4c0-0.2,0.2-0.4,0.4-0.4c0.4,0,2.6-1.5,3-2
			c0.3-0.4,3.7-2.7,4-2.7c0.2,0,0.7-0.4,1.9-1.5c0.3-0.2,0.7-0.5,0.9-0.5c0.2,0,0.5-0.1,0.5-0.3c0.2-0.4,2.5-2,3-2.1
			c0.2,0,0.4-0.2,0.4-0.4c0-0.2,0.4-0.5,0.9-0.6c0.5-0.1,1-0.4,1-0.5c0-0.3,3.3-2.8,3.8-2.8c0.2,0,0.4-0.1,0.5-0.3
			c0.2-0.4,2.5-2,3-2.1c0.2,0,0.4-0.2,0.4-0.3c0-0.2,0.6-0.7,1.3-1.1c0.7-0.4,1.3-0.9,1.3-1c0-0.2,0.2-0.3,0.4-0.3
			c0.5,0,2.8-1.6,3-2.1c0.1-0.2,0.4-0.3,0.6-0.3c0.3,0,0.6-0.2,0.6-0.4c0.1-0.2,1.4-1.2,3-2.2c1.6-1,3-2.1,3.1-2.4
			c0.1-0.3,0.5-0.5,0.7-0.5c0.2,0,1.1-0.6,1.9-1.2c0.8-0.7,1.7-1.2,1.9-1.2c0.2,0,0.6-0.3,1-0.7c1.3-1.3,2.3-2,3-2.2
			c0.4-0.2,0.9-0.5,1-0.8c0.1-0.3,0.4-0.6,0.6-0.6c0.5,0,5.7-3.9,6.8-5.1c2.2-2.3,3.6-4.9,4-7c0.1-0.9,0.4-1.7,0.5-1.8
			c0.2-0.1,0.4-1,0.6-1.9c0.1-1,0.3-1.9,0.5-1.9c0.2-0.1,0.4-1,0.5-2c0.1-1,0.3-2,0.5-2.2c0.3-0.4,0.9-3.4,1.3-6
			c0.1-0.7,0.3-1.5,0.5-1.7c0.2-0.2,0.4-1.5,0.6-2.9c0.1-1.4,0.3-2.7,0.4-2.9c0.2-0.4,0.8-3.7,1.5-8.3c0.2-1.4,0.5-2.9,0.7-3.3
			c0.2-0.4,0.4-1.5,0.5-2.5c0.1-1,0.4-3.7,0.7-6.2c0.3-2.4,0.7-6.4,0.9-8.9c0.2-2.4,0.5-4.4,0.5-4.4c0.1,0,0.9-8.1,1.2-11.8
			c0.1-1.4,0.3-2.6,0.4-2.7c0.2-0.1,0.4-3.5,0.6-7.5c0.2-4,0.5-10.9,0.7-15.2c0.6-9.5,0.6-10.6-0.1-16c-0.2-2.3-0.3-4.4-0.2-4.5
			c0.2-0.2,0.4-0.3,0.7-0.3c0.6,0,1.2,0.5,1.5,1.3c0.2,0.7,0.5,1.2,0.6,1.3c0.4,0.4,1.6,3.1,1.6,3.7c0,0.4,0.2,0.9,0.4,1.1
			c0.2,0.2,0.5,1.8,0.7,3.4c0.1,1.7,0.5,3.3,0.7,3.6c0.6,0.7,0.9,23.4,0.3,24c-0.3,0.3-0.4,3.3-0.3,8.7c0.1,4.5,0,10.2-0.1,12.5
			c-0.1,2.3-0.4,6.4-0.5,9.1c-0.2,2.7-0.5,6-0.7,7.4c-0.2,1.4-0.3,3.4-0.3,4.5c0,1-0.1,2-0.3,2.1c-0.2,0.1-0.4,2.5-0.5,5.2
			c-0.1,2.7-0.3,5-0.4,5c-0.2,0-0.5,2.4-0.6,5.3c-0.5,7.4-1.5,15.7-2.1,16.5c-0.2,0.2-0.4,1.7-0.5,3.3c-0.1,1.6-0.4,3-0.5,3.3
			c-0.2,0.2-0.4,1.2-0.5,2.1c-0.1,0.9-0.4,1.9-0.5,2.1c-0.2,0.2-0.4,0.8-0.6,1.4c-0.4,1.5-4.7,6.6-5.6,6.6c-0.2,0-0.7,0.4-1.1,0.9
			c-0.4,0.5-1.5,1.5-2.5,2.3c-0.9,0.7-1.7,1.5-1.8,1.7c-0.1,0.2-0.3,0.3-0.6,0.3c-0.3,0-1,0.6-1.6,1.2c-0.6,0.7-1.2,1.2-1.4,1.2
			c-0.2,0-0.6,0.3-1,0.7c-0.9,0.9-2,1.9-4.2,3.7c-0.9,0.7-1.9,1.6-2.2,1.9c-0.3,0.3-0.6,0.5-0.8,0.5c-0.2,0-0.8,0.5-1.4,1.1
			c-1.5,1.6-3.6,3.3-4,3.3c-0.2,0-1,0.7-1.8,1.6c-0.8,0.9-1.7,1.6-1.9,1.6c-0.2,0-0.4,0.1-0.4,0.3c0,0.2-0.6,0.7-1.4,1.3
			c-0.8,0.6-1.8,1.3-2.2,1.8c-1.1,1.1-1.6,1.4-3.1,2.6c-0.7,0.6-1.6,1.3-2.1,1.7c-0.4,0.4-1.4,1.3-2.3,2c-0.8,0.7-1.7,1.4-1.9,1.4
			c-0.2,0-0.7,0.4-1.1,1c-0.4,0.5-0.9,1-1.2,1c-0.3,0-0.5,0.2-0.6,0.3c0,0.2-0.9,0.9-1.8,1.7c-0.9,0.7-1.8,1.5-1.9,1.6
			c-0.1,0.1-0.7,0.6-1.3,1.1c-0.6,0.5-1.6,1.3-2.3,1.9c-0.6,0.6-1.8,1.5-2.7,2.2c-0.8,0.7-2,1.6-2.7,2.2c-1.6,1.4-4,3.3-5.5,4.5
			c-0.7,0.6-1.8,1.5-2.5,2c-0.7,0.6-1.3,1.1-1.4,1.1c-0.1,0-0.8,0.6-1.6,1.3c-0.8,0.7-2.3,2-3.4,2.8c-1.1,0.8-2.1,1.6-2.1,1.8
			c0,0.2-0.2,0.3-0.5,0.3c-0.3,0-0.9,0.4-1.4,0.8c-0.5,0.4-1.3,1-1.9,1.3s-1.1,0.6-1.1,0.8c0,0.1-0.5,0.4-1.1,0.5
			c-0.6,0.2-1.1,0.4-1.1,0.5c0,0.2-0.9,0.7-2,1.2c-1.1,0.5-2.4,1.1-2.9,1.4c-0.3,0.1-0.5,0.2-0.8,0.2c-0.8,0-1.4-0.8-1.1-1.9
			c0.1-0.8,0-1.3-0.5-1.6c-0.4-0.3-1.8-0.5-3.2-0.5c-1.2,0-2.5,0.1-3.1,0.4c-0.2,0.1-0.5,0.1-0.9,0.1c-2.3,0-7.1-1.2-7.2-1.9
			c0-0.2-0.2-0.3-0.5-0.3c0,0,0,0,0,0c0,0,0,0,0,0c-0.3,0-0.8-0.2-1.1-0.5c-0.3-0.2-1.5-0.9-2.6-1.5c-2.7-1.3-5.2-2.6-5.4-2.9
			c-0.1-0.2-0.6-0.3-1-0.5c-0.5-0.1-0.9-0.4-0.9-0.6c0-0.2-0.2-0.3-0.5-0.3c0,0,0,0,0,0c0,0,0,0,0,0c-0.5,0-1-0.3-4.7-2.2
			c-1.3-0.7-3.2-1.7-4.3-2.2c-1-0.5-2-1-2.1-1.2c-0.1-0.1-1.1-0.6-2.1-1.1c-1-0.5-2-1-2.1-1.1c-0.2-0.2-1.7-1-5.2-2.7
			c-1.3-0.6-2.4-1.2-2.5-1.3c-0.2-0.2-3.3-1.8-4.5-2.4c-0.5-0.2-0.9-0.5-0.9-0.7c0-0.1-0.5-0.3-1.2-0.5c-0.6-0.1-1.2-0.4-1.2-0.6
			c0-0.2-0.2-0.3-0.5-0.3c0,0,0,0,0,0c0,0,0,0,0,0c-0.5,0-5.4-2.2-5.7-2.6c-0.1-0.1-0.9-0.3-1.7-0.5c-0.8-0.1-1.7-0.4-2-0.6
			c-0.2-0.2-1-0.2-2.1-0.2c-4,0-12.3,0.8-12.9,1.5c-0.1,0.1,0.2,0.3,0.5,0.4c0.4,0.1,1.3,0.4,2,0.7c0.7,0.3,1.3,0.5,1.6,0.5
			c0,0,0,0,0,0c0,0,0,0,0,0c0.2,0,0.9,0.3,1.5,0.5c0.6,0.3,1.4,0.5,1.8,0.5c0,0,0,0,0,0c0,0,0,0,0,0c0.4,0,0.9,0.1,1.3,0.3
			c0.3,0.2,1.4,0.6,2.4,1c1,0.4,2.3,0.9,3,1.1c0.7,0.3,1.4,0.5,1.6,0.5c0,0,0,0,0,0c0,0,0,0,0,0c0.2,0,0.5,0.1,0.5,0.3
			c0.1,0.2,0.8,0.6,1.7,1c2.4,1.1,6.3,4,9.2,6.6c0.6,0.6,1.2,1.1,1.4,1.1c0,0,0,0,0,0c0,0,0,0,0,0c0.2,0,1.1,0.7,2.1,1.6
			c2.9,2.5,7.1,6.1,8.6,7.3c1.7,1.4,3.9,3.3,9.5,8.5c2.4,2.3,4.5,4.1,4.6,4.1c0,0,0,0,0,0c0,0,0,0,0,0c0.2,0,15.4,14.6,17.8,17.1
			c0.7,0.7,2.9,2.9,4.9,5.1c3.8,3.8,7.3,7.6,10.1,10.6c2.2,2.5,3.1,3.4,5.1,5.5c1,1,2.3,2.5,2.9,3.2c0.6,0.7,1.7,2,2.5,2.8
			c0.8,0.8,1.5,1.6,1.5,1.8c0,0.1,0.6,0.8,1.3,1.6c1.9,2,4.3,4.8,5.1,6c0.4,0.6,0.9,1.1,1.1,1.1c0,0,0,0,0,0c0,0,0,0,0,0
			c0.2,0,0.3,0.2,0.3,0.4c0,0.3,0.4,0.8,0.9,1.3c0.5,0.4,1.2,1.3,1.6,1.9c0.8,1.2,0.9,1.3,2.6,3.2c0.6,0.7,1.2,1.4,1.2,1.6
			c0,0.1,0.4,0.6,0.8,1.1c0.4,0.5,1.2,1.4,1.7,2c0.5,0.6,1.1,1.3,1.4,1.6c0.2,0.3,0.5,0.7,0.5,0.9c0,0.2,0.2,0.5,0.5,0.7
			c0.3,0.1,1.1,1.1,1.9,2.2c0.7,1,1.4,2,1.5,2.1c1.8,1.6,4,5.5,4,7.2c0,0.6,0.2,1.2,0.4,1.3c0.2,0.1,0.4,1.8,0.5,3.8
			c0,2-0.1,3.7-0.3,3.9c-0.2,0.2-0.2,9.2,0.1,25.7c0.5,28.6,0.7,63.9,0.3,73.2c-0.1,4.5-0.4,6.8-1,8.5c-0.4,1.3-0.8,2.6-0.8,2.9
			s-0.2,1-0.5,1.6c-0.3,0.6-0.6,1.6-0.8,2.3c-0.3,1.3-0.9,2.3-1.5,2.3c-0.1,0-0.1,0-0.2,0c-0.3-0.1-0.5-3.8-0.8-10.3
			c-0.2-5.7-0.5-10.3-0.7-10.4c-0.2-0.1-0.5-1.5-0.6-2.9c-0.1-1.5-0.6-5.3-1-8.4c-0.4-3.2-1-8.4-1.2-11.5c-0.3-3.2-0.7-6.1-0.9-6.5
			c-0.2-0.4-0.6-3.8-0.9-7.5c-0.6-7.2-1.2-12.4-1.6-14.6c-0.1-0.7-0.4-3.3-0.7-5.8c-0.2-2.4-0.7-7-1.2-10.2c-0.6-5.1-1-8.9-2.5-22.1
			c-0.7-6.1-1.3-9.9-1.9-11c-0.3-0.6-0.6-1.4-0.6-1.8c0-0.3-0.1-0.6-0.3-0.6c0,0,0,0,0,0c0,0,0,0,0,0c-0.2,0-0.9-1-1.7-2.3
			c-0.8-1.3-1.5-2.3-1.7-2.3c0,0,0,0,0,0c0,0,0,0,0,0c-0.2,0-0.4-0.3-0.5-0.7c-0.2-0.3-0.8-1.2-1.4-1.9c-0.7-0.7-1.2-1.4-1.2-1.6
			c0-0.2-0.3-0.6-0.7-1c-0.9-0.8-3-3.4-3.4-4.1c-0.2-0.3-0.8-1-1.4-1.6c-1.6-1.7-4.6-5-4.9-5.6c-0.2-0.3-1.1-1.2-2-2.2
			c-0.9-0.9-2.3-2.4-3.2-3.3c-4.8-5.3-13.3-14-21.6-22.1c-3.9-3.8-7.5-7.4-8.1-7.9c-0.6-0.6-1.6-1.5-2.2-2.1
			c-0.6-0.5-1.6-1.5-2.1-2.1c-0.6-0.6-1.8-1.8-2.7-2.7c-0.9-0.9-1.9-1.8-2.2-2.1c-0.3-0.3-3-2.8-6-5.6c-3.1-2.8-8.9-8.2-13-12.1
			c-4-3.8-8-7.5-8.7-8.1c-0.7-0.6-1.6-1.5-1.9-1.9c-0.7-0.9-3.7-2.9-5.3-3.4c-0.6-0.2-2-0.5-3.1-0.6c-1-0.1-2.1-0.3-2.3-0.5
			c-0.2-0.2-1.5-0.4-2.8-0.5c-1.3-0.1-2.5-0.4-2.6-0.6c-0.1-0.2-1-0.3-1.9-0.3c-1.2,0-2.5,0.2-2.5,0.4c0,0.2,0.2,0.4,0.4,0.4
			c0,0,0,0,0,0c0,0,0,0,0,0c0.4,0,3.7,2,4.6,2.9c0.3,0.3,0.8,0.5,1.1,0.5c0,0,0,0,0,0c0,0,0,0,0,0c0.3,0,0.5,0.1,0.5,0.3
			c0,0.2,1,0.9,2.1,1.6c1.2,0.7,2.1,1.4,2.1,1.6c0,0.2,0.3,0.3,0.6,0.3c0,0,0,0,0,0c0,0,0,0,0,0c0.3,0,0.8,0.3,1.2,0.7
			c0.4,0.4,1.4,1.2,2.2,1.8c2,1.4,6.9,5.8,6.9,6.2c0,0.2,0.5,0.8,1.1,1.4c1.8,1.8,3.2,3.6,3.2,4.2c0,0.3,0.2,0.5,0.4,0.5
			c0,0,0,0,0,0c0,0,0,0,0,0c0.2,0,0.5,0.5,0.6,1c0.1,0.6,0.4,1.1,0.6,1.3c0.4,0.3,4,7.2,4,7.8c0,0.3,0.2,0.6,0.3,0.6
			c0.2,0.1,1.6,2.5,3.1,5.4c1.6,2.9,3.4,6.4,4.1,7.6c0.7,1.3,1.2,2.5,1.2,2.7c0,0.3,0.1,0.5,0.3,0.5c0,0,0,0,0,0c0,0,0,0,0,0
			c0.2,0,0.6,0.8,1,1.8c0.4,1,0.9,2,1.1,2.2c0.7,0.8,3.9,7.1,3.9,7.5c0,0.3,0.2,0.6,0.3,0.6c0.4,0.1,3.3,5.6,3.3,6.2
			c0,0.3,0.1,0.6,0.3,0.6c0.3,0.1,4.1,7.2,4.1,7.8c0,0.2,0.1,0.5,0.3,0.6c0.5,0.2,1.7,2.5,1.7,3.3c0,0.5,0.2,0.8,0.4,0.8
			c0,0,0,0,0,0c0,0,0,0,0,0c0.2,0,0.5,0.6,0.6,1.2c0.2,0.7,0.5,1.4,0.6,1.6c0.2,0.2,0.4,1,0.6,1.7c0.2,0.7,0.5,1.7,0.7,2.1
			c1,2.3,1.7,9.6,2.9,31.9c0.3,6.1,0.8,11.4,0.9,11.7c0.1,0.3,0.5,4.2,0.9,8.6c0.4,4.4,0.9,10.4,1.2,13.3c0.9,8.7,1,29.8,0.2,31
			c-0.2,0.2-0.4,2.1-0.5,4.2c-0.1,2.1-0.3,4.1-0.5,4.4c-0.2,0.3-0.5,2.4-0.6,4.5c-0.2,2.1-0.6,5.4-0.9,7.3c-0.3,1.9-0.6,4.2-0.7,5.2
			s-0.3,1.9-0.5,2.1c-0.2,0.2-0.4,1.5-0.5,2.9c-0.1,1.4-0.4,2.7-0.5,2.9c-0.2,0.2-0.4,1.5-0.5,2.8c-0.1,1.3-0.4,2.5-0.6,2.6
			s-0.3,1-0.3,2c0,1-0.2,2.5-0.5,3.4c-0.3,0.9-0.5,2-0.5,2.6s-0.1,1.1-0.3,1.2c-0.2,0.1-0.4,1.2-0.6,2.4c-0.1,1.2-0.3,2.2-0.5,2.3
			c-0.2,0.1-0.4,1.1-0.5,2.1c-0.1,1.1-0.3,1.9-0.5,1.9c-0.2,0-0.4,0.8-0.5,1.8c-0.1,1-0.3,2.1-0.5,2.4c-0.1,0.3-0.4,1-0.7,1.6
			c-0.2,0.5-1.4,3.2-2.7,5.9c-2.3,4.9-4.9,8.5-6.1,8.5c0,0,0,0,0,0c-1,0-1.5-2.4-0.6-3.2c0.2-0.2,0.3-0.8,0.3-1.2
			c0-0.5,0.1-1,0.3-1.1s0.4-1.2,0.6-2.4c0.1-1.2,0.3-2.4,0.5-2.6c0.1-0.2,0.4-1.7,0.5-3.3c0.1-1.6,0.3-3.1,0.5-3.3
			c0.1-0.2,0.4-1.6,0.5-3.1c0.4-4.7,0.9-9.2,1.2-10c0.1-0.4,0.4-2.5,0.5-4.6c0.1-2.1,0.3-4,0.5-4.2c0.1-0.2,0.4-2.1,0.6-4.2
			c0.2-2.1,0.6-5.9,0.9-8.3c0.3-2.4,0.6-5.9,0.7-7.7c0.1-1.8,0.2-3.5,0.4-3.9c0.3-0.7,0.9-9.8,1.3-19.4c0.2-5.4,0.1-8.5-0.2-12.5
			c-0.7-6.4-1.6-13.5-2-14.3c-0.1-0.3-0.3-1.7-0.5-3.1c-0.1-1.4-0.5-4.2-0.9-6.3c-1.7-9.2-2.1-11.4-2.6-14.8c-0.3-2-0.7-3.9-0.8-4.2
			c-0.3-0.8-1.7-9.9-1.7-11.4c0-0.7-0.2-1.3-0.4-1.4c-0.2-0.1-0.5-1.8-0.7-3.8c-0.2-2-0.5-3.8-0.7-4.1c-0.2-0.3-0.5-2.4-0.8-4.6
			c-0.6-5.5-2-11.9-2.6-11.9c0,0,0,0,0,0c0,0,0,0,0,0c-0.2,0-0.4-0.5-0.6-1.1c-0.2-0.6-0.4-1.1-0.6-1.1c0,0,0,0,0,0c0,0,0,0,0,0
			c-0.2,0-0.3-0.2-0.4-0.5c0-0.3-0.4-1.1-0.8-1.9c-0.4-0.8-0.8-1.7-0.8-2c0-0.3-0.2-0.6-0.3-0.6c0,0,0,0,0,0c0,0,0,0,0,0
			c-0.2,0-0.6-0.6-0.9-1.4c-0.3-0.8-1.2-2.6-2-4.1c-0.8-1.4-2.2-4-3-5.5c-0.8-1.6-1.6-2.9-1.8-3c-0.2-0.1-0.4-0.6-0.6-1.1
			c-0.2-0.5-0.4-1-0.6-1.1c-0.5-0.4-1.6-2.6-1.6-3.2c0-0.3-0.2-0.6-0.4-0.6c0,0,0,0,0,0c0,0,0,0,0,0c-0.2,0-0.5-0.5-0.6-1.1
			c-0.2-0.6-0.4-1.1-0.6-1.1c0,0,0,0,0,0c0,0,0,0,0,0c-0.2,0-0.5-0.5-0.7-1.1c-0.2-0.6-1-2.1-1.8-3.3c-0.8-1.3-1.4-2.6-1.4-3
			c0-0.3-0.2-0.6-0.4-0.6c0,0,0,0,0,0c0,0,0,0,0,0c-0.2,0-0.5-0.5-0.6-1.1c-0.2-0.6-0.4-1.1-0.6-1.1c0,0,0,0,0,0c0,0,0,0,0,0
			c-0.2,0-0.4-0.5-0.6-1.1c-0.2-0.6-0.4-1.1-0.6-1.1c0,0,0,0,0,0c0,0,0,0,0,0c-0.4,0-2.8-4.6-2.8-5.4c0-0.3-0.2-0.6-0.4-0.6
			c0,0,0,0,0,0c0,0,0,0,0,0c-0.2,0-0.5-0.4-0.6-0.9c-0.1-0.5-0.4-1-0.5-1c0,0,0,0,0,0c0,0,0,0,0,0c-0.2,0-0.6-0.8-1-1.7
			c-0.4-1-0.9-1.7-1-1.7c0,0,0,0,0,0c0,0,0,0,0,0c-0.2,0-0.4-0.4-0.5-1c-0.3-1.2-2.2-3.1-3.4-3.4c-1-0.3-1.2-0.4-5.1-2
			c-1.5-0.6-2.8-1.1-3-1.1c0,0,0,0,0,0c0,0,0,0,0,0c-0.2,0-0.3-0.1-0.3-0.3c0-0.2-0.5-0.5-1.2-0.6c-0.6-0.1-1.2-0.4-1.2-0.6
			c0-0.2-0.3-0.3-0.7-0.3c0,0,0,0,0,0c-0.4,0-0.8,0.1-0.8,0.2c0,0.2,1.3,1.6,4.9,5.3c1.4,1.4,2.6,2.9,2.6,3.1c0,0.3,0.2,0.5,0.4,0.5
			c0,0,0,0,0,0c0,0,0,0,0,0c0.2,0,0.5,0.4,0.6,0.9c0.1,0.5,0.4,1,0.6,1c0,0,0,0,0,0c0,0,0,0,0,0c0.2,0,0.4,0.5,0.6,1.1
			c0.2,0.6,0.4,1.1,0.6,1.1c0,0,0,0,0,0c0,0,0,0,0,0c0.5,0,0.8,4,0.5,6.3c-0.2,1.3-0.5,4.5-0.6,7.1c-0.1,2.7-0.4,5.1-0.6,5.4
			c-0.2,0.3-0.4,2.1-0.5,3.9c-0.1,1.8-0.4,3.4-0.5,3.7c-0.2,0.2-0.4,1.6-0.4,3c-0.1,1.4-0.4,3.2-0.5,3.9c-0.5,2-1.2,5-1.4,6.3
			c-0.1,0.7-0.3,1.3-0.4,1.3c-0.2,0-0.4,0.8-0.5,1.8c-0.1,1-0.3,2-0.5,2.2c-0.2,0.2-0.4,1.1-0.5,1.9c-0.1,0.8-0.3,2-0.5,2.5
			c-0.1,0.5-0.6,2-0.9,3.3c-0.4,1.3-0.8,2.5-0.9,2.7c-0.2,0.2-0.4,1-0.5,1.9c-0.1,0.8-0.4,1.5-0.5,1.6c-0.2,0.1-0.4,0.9-0.5,1.7
			c-0.1,0.8-0.4,1.5-0.5,1.5c-0.2,0-0.4,0.6-0.5,1.2c-0.2,1.7-1.1,4.2-1.4,4.2c-0.1,0-0.3,0.7-0.5,1.5c-0.1,0.8-0.4,1.5-0.6,1.6
			c-0.2,0-0.3,0.3-0.3,0.7c0,0.4-0.3,1.4-0.7,2.2c-0.4,0.9-0.7,1.7-0.7,1.8c0,0.3-0.7,2.1-2.4,6c-0.3,0.7-0.5,1.4-0.5,1.6
			c0,0.2-0.1,0.4-0.3,0.4c-0.2,0-0.5,0.5-0.6,1.2c-0.1,0.6-0.4,1.2-0.6,1.2c-0.2,0-0.3,0.4-0.3,0.7c0,0.4-0.1,0.8-0.3,1
			c-0.2,0.1-0.4,0.7-0.6,1.4c-0.1,0.7-0.4,1.2-0.6,1.2c-0.2,0-0.4,0.5-0.6,1.2c-0.1,0.6-0.4,1.2-0.6,1.2s-0.3,0.3-0.3,0.7
			c0,0.4-0.2,0.9-0.5,1.2c-0.3,0.2-0.8,1.2-1.2,2.2c-0.4,1-0.8,1.7-1,1.7c-0.2,0-0.3,0.2-0.3,0.4c0,0.5-2.6,5.2-3.1,5.3
			c-0.2,0.1-0.3,0.4-0.3,0.7c0,0.3-0.1,0.5-0.3,0.5c-0.2,0-0.5,0.4-0.6,0.9c-0.1,0.5-0.6,1.3-1.1,1.8c-0.5,0.5-0.9,1-0.9,1.2
			s-0.7,1.1-1.7,2c-1.4,1.4-1.9,1.7-3.1,1.7c0,0,0,0-0.1,0c-1.3,0-2.8-0.8-2.8-1.6c0-0.2-0.6-0.9-1.2-1.5c-1-0.9-2-1.4-3-1.4
			c-1.6,0-3.3,1.1-4.7,3.2c-0.9,1.3-1.2,1.5-2.6,1.5c-0.1,0-0.1,0-0.1,0c-1.2,0-1.7-0.3-3.2-1.8c-1.1-1-2.3-2.4-2.9-3.1
			c-1.6-2.2-5.9-9-5.9-9.5c0-0.2-0.2-0.4-0.3-0.4c0,0,0,0,0,0c0,0,0,0,0,0c-0.2,0-0.5-0.5-0.6-1c-0.1-0.6-0.4-1.1-0.6-1.3
			c-0.2-0.1-0.9-1.4-1.6-2.9c-0.8-1.5-1.5-2.7-1.7-2.8c-0.2-0.1-0.3-0.3-0.3-0.5c0-0.2-0.5-1.5-1.2-2.9c-0.6-1.3-1.2-2.6-1.2-2.8
			c0-0.2-0.2-0.3-0.4-0.3c0,0,0,0,0,0c0,0,0,0,0,0c-0.2,0-0.4-0.3-0.4-0.6c0-0.3-0.4-1.2-0.8-2c-0.4-0.8-0.8-1.8-0.8-2.1
			c0-0.4-0.2-0.7-0.4-0.7c0,0,0,0,0,0c0,0,0,0,0,0c-0.2,0-0.5-0.7-0.6-1.6c-0.2-0.9-0.5-1.7-0.6-1.8c-0.4-0.3-1.6-2.9-1.6-3.6
			c0-0.3-0.2-0.6-0.4-0.6c0,0,0,0,0,0c0,0,0,0,0,0c-0.2,0-0.5-0.7-0.6-1.5c-0.2-0.8-0.4-1.5-0.6-1.5c0,0,0,0,0,0c0,0,0,0,0,0
			c-0.2,0-0.4-0.7-0.6-1.5c-0.2-0.8-0.5-1.5-0.6-1.5c0,0,0,0,0,0c0,0,0,0,0,0c-0.2,0-0.4-0.5-0.4-1.1c0-0.7-0.2-1.3-0.4-1.4
			c-0.2-0.1-0.4-0.5-0.4-0.9c0-0.3-0.3-1.1-0.6-1.7c-0.3-0.6-0.7-1.6-0.9-2.4c-0.1-0.7-0.4-1.4-0.6-1.5c-0.2-0.1-0.4-1-0.6-1.9
			c-0.1-1-0.4-1.7-0.6-1.7c0,0,0,0,0,0c0,0,0,0,0,0c-0.2,0-0.4-0.4-0.4-0.9c0-1-1.3-5.6-1.7-6.2c-0.2-0.2-0.4-1.2-0.6-2.1
			c-0.2-0.9-0.4-1.9-0.6-2.1c-0.2-0.2-0.4-1.3-0.6-2.4c-0.2-1.1-0.5-2.1-0.6-2.2c-0.2-0.1-0.4-0.6-0.4-1.1c0-0.5-0.3-1.9-0.6-3.1
			c-0.3-1.2-0.6-3.1-0.7-4.2c0-1.1-0.2-2.1-0.4-2.2c-0.2-0.2-0.5-1.9-0.7-4c-0.2-2-0.5-3.9-0.7-4.1c-0.2-0.2-0.5-2.5-0.7-5.1
			c-0.2-2.6-0.5-4.7-0.7-4.7c0,0,0,0,0,0c0,0,0,0,0,0c-0.5,0-0.5-4.1-0.1-4.4c0.2-0.1,0.4-0.9,0.6-1.7c0.1-0.8,0.4-1.5,0.5-1.7
			c0.1-0.1,0.7-0.9,1.2-1.8c0.6-0.9,1.6-2.2,2.3-3c2.3-2.5,5-5.9,5.3-6.5c0.2-0.4,0.1-0.5-0.4-0.5c0,0,0,0,0,0c-0.4,0-0.8,0.2-1,0.4
			c-0.1,0.2-0.7,0.5-1.3,0.6c-0.6,0.1-1.1,0.4-1.3,0.6c-0.3,0.4-7.7,4-8.2,4c-0.4,0-3.2,2.8-3.2,3.3c0,0.4-1.5,3.8-1.8,4.2
			c-0.1,0.1-0.5,0.9-0.9,1.8c-0.4,0.9-0.9,1.7-1,1.7c-0.2,0-0.3,0.2-0.3,0.5c0,0.6-2.7,6.3-3,6.4c-0.2,0.1-0.3,0.4-0.3,0.7
			c0,0.3-0.1,0.5-0.3,0.5s-0.5,0.5-0.6,1.2c-0.1,0.6-0.4,1.2-0.6,1.2c-0.2,0-0.4,0.5-0.6,1.2c-0.1,0.6-0.4,1.2-0.6,1.2
			c-0.2,0-0.3,0.3-0.3,0.7s-0.1,0.8-0.3,1.1c-0.4,0.4-3.5,6.6-7.7,15.5c-1.3,2.8-2.5,5.1-2.6,5.2c-0.1,0.1-0.5,0.8-0.9,1.6
			c-0.3,0.7-1.4,3-2.3,5.1c-0.9,2.1-1.7,3.9-1.7,4.2c0,0.2-0.1,0.4-0.4,0.4c-0.2,0-0.4,0.2-0.4,0.5c0,0.3-0.2,1-0.5,1.5
			c-0.3,0.5-0.6,1.9-0.8,2.9c-0.1,1-0.4,2-0.5,2.3c-0.2,0.2-0.4,1.6-0.5,3.1c-0.2,4-0.9,10.8-1.2,11.2c-0.2,0.2-0.4,1.8-0.5,3.4
			c-0.1,1.7-0.4,3.4-0.5,3.7c-0.1,0.3-0.5,2.5-0.6,4.9c-0.5,6.6-0.7,7.7-1,8.1c-0.2,0.2-0.4,2.1-0.5,4.1c-0.1,2.1-0.3,3.9-0.5,4
			c-0.2,0.1-0.4,1.9-0.5,3.9c-0.1,2-0.4,3.7-0.5,3.7c-0.2,0-0.4,1.7-0.5,3.7c-0.1,2-0.4,3.8-0.5,3.9c-0.2,0.1-0.3,1.4-0.3,2.8
			c0,1.4-0.2,4-0.5,5.7c-0.3,1.7-0.5,3.9-0.5,4.9c0,1-0.2,1.9-0.3,2.1c-0.8,0.8,0.5,22.4,1.4,25.9c0.2,0.5,0.5,3.3,0.7,6.1
			c0.7,8.1,1.5,14.2,1.8,14.2c0,0,0,0,0,0c0,0,0,0,0,0c0.2,0,0.5,1.9,0.7,4.2c0.2,2.3,0.5,4.3,0.7,4.4c0.2,0.1,0.5,2,0.7,4.1
			c0.2,2.2,0.5,4.1,0.7,4.3c0.3,0.4,0.4,0.9,1.3,8.4c0.3,2.3,0.7,4.5,0.9,4.8c0.2,0.3,0.5,2,0.7,3.8c0.2,1.7,0.5,3.2,0.6,3.3
			s0.4,1.4,0.6,2.9c0.2,1.5,0.5,2.8,0.7,2.9s0.4,0.6,0.4,1.1c0,0.5,0.3,1.4,0.6,2c0.8,1.5,0.8,3.6,0,3.9c0,0-0.1,0-0.1,0
			c-0.9,0-4.6-3.6-5-5c-0.1-0.5-0.4-1-0.5-1c0,0,0,0,0,0c0,0,0,0,0,0c-0.2,0-0.6-0.8-1-1.7c-0.4-1-0.9-1.7-1.1-1.7c0,0,0,0,0,0
			c0,0,0,0,0,0c-0.2,0-0.4-0.6-0.6-1.3c-0.1-0.7-0.4-1.3-0.6-1.3c0,0,0,0,0,0c0,0,0,0,0,0c-0.2,0-0.4-0.6-0.6-1.3
			c-0.1-0.7-0.4-1.3-0.5-1.3c0,0,0,0,0,0c0,0,0,0,0,0c-0.2,0-0.6-1.3-1.1-2.9c-0.5-1.6-0.9-3.2-1.1-3.4c-0.2-0.2-0.4-1.2-0.6-2.1
			c-0.2-1-0.4-1.9-0.6-2.1c-0.2-0.2-0.4-1.3-0.6-2.4c-0.2-1.1-0.4-2.1-0.6-2.2c-0.2-0.1-0.5-1.4-0.6-2.9c-0.1-1.5-0.5-2.7-0.6-2.7
			c0,0,0,0,0,0c0,0,0,0,0,0c-0.2,0-0.4-0.8-0.4-1.9c0-1.1-0.2-2-0.4-2.1c-0.2-0.1-0.5-1.4-0.7-2.9c-0.1-1.5-0.4-2.7-0.6-2.7
			c0,0,0,0,0,0c0,0,0,0,0,0c-0.2,0-0.4-1.4-0.6-3.1c-0.2-1.7-0.5-3.1-0.6-3.1c0,0,0,0,0,0c0,0,0,0,0,0c-0.2,0-0.5-1.5-0.6-3.4
			c-0.2-1.8-0.5-3.5-0.6-3.7c-0.2-0.2-0.4-1.1-0.5-2.1c-0.7-6.1-1.4-10.2-1.7-10.4c-0.9-0.6-2.7-34.8-1.8-35.9
			c0.2-0.2,0.4-3.9,0.5-8.1c0.1-4.2,0.3-7.9,0.4-8.3c0.2-0.3,0.4-5.4,0.6-11.4c0.2-5.9,0.4-13.1,0.5-15.8c0.1-2.8,0.3-8.4,0.5-12.6
			c0.1-4.2,0.4-7.9,0.6-8.1c0.2-0.3,0.5-1.4,0.6-2.4c0.1-1.1,0.3-2.1,0.5-2.3c0.1-0.2,0.4-1,0.5-1.7c0.1-0.7,0.4-1.2,0.6-1.2
			c0.2,0,0.3-0.4,0.3-1c0-0.5,0.2-1,0.4-1c0.2,0,0.4-0.2,0.4-0.5c0-0.3,0.6-1.7,1.3-3.2c0.7-1.4,1.3-2.9,1.3-3.1
			c0-0.2,0.2-0.5,0.4-0.5c0.2,0,0.4-0.2,0.4-0.4c0-0.4,3.3-7.8,3.7-8.1c0.1-0.1,0.7-1.4,1.4-2.9c2.5-5.5,4.1-8.8,4.5-9.1
			c0.2-0.1,0.3-0.6,0.5-1.2c0.3-1,1.4-3.6,1.7-3.9c0.1-0.1,0.5-0.9,0.9-1.8c0.4-0.9,0.9-1.7,1-1.7c0.1,0,0.3-0.5,0.5-1.2
			c0.1-0.7,0.4-1.2,0.6-1.2c0.2,0,0.3-0.3,0.3-0.6c0-0.6,2.2-5.3,2.7-5.6c0.1-0.1,0.4-0.7,0.5-1.3c0.1-0.6,0.4-1,0.6-1.1
			s0.3-0.2,0.3-0.5c0-0.6,3.3-7.8,3.7-8.1c0.2-0.1,0.4-0.7,0.5-1.3c0.1-0.6,0.4-1,0.6-1.1s0.3-0.2,0.3-0.5c0-0.3,0.2-0.8,0.5-1.1
			c0.3-0.3,0.6-0.7,0.7-1c0.7-2.1,10.7-12.2,12-12.3c0.2,0,0.5-0.3,0.6-0.6c0.1-0.3,0.4-0.6,0.6-0.6c0.3,0,2.7-1.7,3.4-2.4
			c0.6-0.6,2.7-2,3-2c0.2,0,0.4-0.2,0.4-0.4c0-0.2,0.4-0.5,0.9-0.7c0.5-0.2,0.9-0.4,1-0.6c0.1-0.1,0.9-0.7,1.7-1.3l1.5-1.1l-2.4,0
			c-1.3,0-2.5,0.2-2.6,0.4c-0.1,0.2-1.3,0.5-2.6,0.7c-1.3,0.2-2.6,0.5-2.8,0.6c-0.2,0.2-1.3,0.4-2.5,0.6c-1.2,0.2-2.3,0.5-2.7,0.6
			c-2.5,1.2-3.9,2.5-9.4,8.1c-3.4,3.5-7.1,7.2-8.1,8.1c-2.4,2.2-40.6,41.8-43.2,44.8c-1.1,1.3-3,3.5-4.3,4.9
			c-2.4,2.5-7.1,7.9-7.4,8.5c-0.1,0.3-4.6,5.5-6,7c-0.3,0.4-1.2,1.4-1.9,2.4c-0.7,1-1.7,2.2-2.1,2.7c-0.5,0.5-0.9,1.1-0.9,1.2
			c0,0.2-0.5,0.8-1.1,1.4c-0.6,0.7-1.1,1.3-1.1,1.5c0,0.2-0.5,0.9-1.1,1.7c-0.6,0.7-1.3,1.6-1.5,1.8c-0.2,0.3-0.4,0.6-0.4,0.8
			c0,0.2-0.5,0.9-1.1,1.7c-0.6,0.7-1.1,1.6-1.1,1.8s-0.1,0.5-0.3,0.5c-0.4,0-1.9,3.7-1.9,4.5c0,0.3-0.1,0.6-0.3,0.7
			c-0.2,0.1-0.4,1.7-0.5,3.4c-0.1,1.8-0.3,4.7-0.5,6.7c-0.2,1.9-0.5,5.7-0.6,8.5c-0.2,2.7-0.5,6.5-0.6,8.3c-0.2,1.8-0.5,5.9-0.7,9.1
			c-0.2,3.2-0.5,5.8-0.5,5.8c-0.1,0-0.5,5.1-1.4,18.1c-0.2,3.8-0.6,8.6-0.8,10.6c-0.2,2-0.5,6.2-0.6,9.4c-0.1,3.2-0.4,6-0.5,6.4
			c-0.1,0.3-0.4,3-0.6,6c-0.2,3-0.6,8.4-0.8,12.1c-0.3,3.7-0.4,8.5-0.3,10.8c0.3,4.3,0.2,5-0.6,5c0,0,0,0,0,0
			c-0.7,0-1.6-1.6-1.9-3.5c-0.2-0.8-0.5-1.5-0.6-1.6c-0.2-0.1-0.4-1-0.6-2c-0.2-1-0.5-1.9-0.7-2c-1.1-0.7-1.6-9.3-3.7-74.7
			c-1.2-39.2-1.3-40.8-0.6-42.8c0.4-1.2,0.8-2.1,1-2.1c0.2,0,0.4-0.4,0.6-0.9c0.1-0.5,0.6-1.2,1-1.6c0.5-0.4,1.2-1.4,1.6-2.1
			c0.4-0.7,1.1-1.7,1.5-2.1c0.4-0.4,1.1-1.4,1.6-2.3c0.4-0.8,1-1.4,1.2-1.4s0.3-0.2,0.3-0.4c0-0.5,2-3.2,3.3-4.5
			c0.5-0.5,0.8-1,0.8-1.2c0-0.2,0.5-0.9,1-1.6c0.6-0.7,1.4-1.7,1.8-2.3c0.4-0.6,1.2-1.6,1.7-2.3c0.5-0.7,1.1-1.4,1.2-1.6
			c0.1-0.2,0.6-0.8,0.9-1.2c0.3-0.5,1.6-2.1,2.7-3.5c1.1-1.5,2.7-3.4,3.5-4.2c0.8-0.8,1.4-1.6,1.4-1.8c0-0.1,0.7-1.1,1.7-2.1
			c0.9-1.1,1.7-2,1.7-2.1c0-0.1,0.4-0.7,1.1-1.3c0.6-0.6,1.7-2,2.5-3c0.8-1.1,2.3-2.7,3.2-3.7c0.9-1,2.2-2.5,2.7-3.2
			c4.8-6.1,34.2-36.6,38.9-40.4c0.6-0.5,1.8-1.6,2.8-2.6c0.9-0.9,1.9-1.7,2.2-1.7s0.6-0.2,0.6-0.4c0-0.4,1.5-2,3.6-3.9
			c0.8-0.7,2.2-2,3.1-2.8c2.4-2.2,5.5-4.8,5.9-5.1c0.2-0.2,1.1-0.9,1.9-1.6c0.9-0.7,1.7-1.3,2-1.3c0.2,0,0.5-0.1,0.5-0.3
			c0.1-0.3,2.4-1.5,3.7-1.9c0.5-0.2,1-0.4,1.1-0.6c0.3-0.4,6.9-2.8,7.8-2.8c0.3,0,0.7-0.2,0.6-0.4c0-0.2,0.6-0.5,1.3-0.6
			c0.7-0.1,1.5-0.4,1.6-0.6c0.1-0.2,0.5-0.4,1-0.4c1.3,0,0.8-0.7-0.7-0.9c-0.8-0.1-2-0.3-2.7-0.5c-0.6-0.2-2.5-0.3-4.5-0.3
			c-2.9,0-6,0.2-6.2,0.4c-0.2,0.2-0.9,0.5-1.8,0.6c-0.8,0.2-1.6,0.5-1.8,0.6c-0.1,0.2-0.5,0.4-1,0.4c-0.4,0-0.7,0.2-0.7,0.4
			c0,0.2-0.5,0.5-1,0.6c-0.6,0.1-1.1,0.4-1.3,0.5c-0.1,0.2-1.1,0.8-2.3,1.4c-1.1,0.6-3.3,1.8-4.8,2.7c-3.4,2-6.5,3.6-7,3.6
			c-0.2,0-0.4,0.2-0.4,0.4c0,0.2-0.3,0.4-0.6,0.4c-0.3,0-0.6,0.2-0.6,0.4c0,0.2-0.4,0.5-0.8,0.7c-0.5,0.2-1,0.4-1.1,0.5
			c-0.1,0.1-1,0.7-2.1,1.2c-1,0.6-2,1.1-2.1,1.2c-0.1,0.1-0.9,0.6-1.7,1c-0.8,0.4-1.6,0.9-1.7,1c-0.1,0.1-1,0.6-2.1,1.2
			c-1,0.6-2,1.1-2.1,1.2c-0.1,0.1-0.9,0.6-1.7,1c-0.8,0.4-1.6,0.9-1.7,1c-0.1,0.1-1,0.6-2.1,1.2c-1,0.5-2,1-2.1,1.2
			c-0.1,0.1-1.2,0.8-2.5,1.4c-1.3,0.7-3.1,1.8-4.2,2.4c-1,0.6-2.4,1.4-3,1.8c-0.9,0.5-2.1,0.7-6.1,0.7c0,0,0,0-0.1,0
			c-0.1,0-0.1,0-0.2,0c-3.7,0-5,0.1-5.9,0.6c-0.9,0.5-1,0.7-0.7,1.1c0.6,0.7,0.2,2.5-0.5,2.5c0,0,0,0,0,0c-0.3,0-0.9-0.1-1.3-0.4
			c-0.3-0.2-1.6-0.8-2.8-1.3c-2.9-1.3-6.3-3.1-6.8-3.7c-0.2-0.3-0.8-0.6-1.3-0.7c-0.5-0.1-0.9-0.4-0.9-0.6c0-0.2-0.2-0.3-0.4-0.3
			c0,0,0,0,0,0c0,0,0,0,0,0c-0.5,0-3.2-2-4.5-3.3c-0.5-0.5-1-0.8-1.2-0.8c0,0,0,0,0,0c0,0,0,0,0,0c-0.4,0-2-1.2-4.3-3.3
			c-0.8-0.6-1.6-1.2-1.8-1.2c0,0,0,0,0,0c0,0,0,0,0,0c-0.2,0-0.8-0.4-1.3-0.9c-0.5-0.5-1.1-0.9-1.3-0.9c0,0,0,0,0,0c0,0,0,0,0,0
			c-0.2,0-0.4-0.1-0.5-0.3c0-0.2-1-1-2.1-1.8c-1.1-0.7-2-1.5-2.1-1.7c-0.1-0.1-1.2-1-2.5-1.9c-1.3-0.9-2.5-1.9-2.7-2.1
			c-0.2-0.2-1.5-1.2-2.9-2.3c-1.4-1-2.6-2-2.7-2.1c-0.1-0.1-1-0.8-2-1.5c-1-0.7-1.8-1.4-1.9-1.6c-0.1-0.2-0.3-0.3-0.5-0.3
			c0,0,0,0,0,0c0,0,0,0,0,0c-0.2,0-1-0.6-1.8-1.2c-2.2-1.8-3.2-2.6-4.8-3.6c-0.8-0.5-1.6-1.2-1.7-1.6c-0.1-0.3-0.4-0.6-0.7-0.6
			c0,0,0,0,0,0c0,0,0,0,0,0c-0.3,0-0.9-0.3-1.4-0.7c-0.5-0.4-1-0.7-1.1-0.7c0,0,0,0,0,0c0,0,0,0,0,0c-0.1,0-1-0.7-2-1.5
			c-1-0.8-2.3-1.9-2.9-2.4c-0.6-0.5-1.2-0.9-1.4-0.9c0,0,0,0,0,0c0,0,0,0,0,0c-0.2,0-0.9-0.5-1.6-1.1c-0.7-0.6-1.4-1.1-1.7-1.1
			c0,0,0,0,0,0c0,0,0,0,0,0c-0.2,0-0.3-0.1-0.3-0.3c0-0.2-1-0.9-2.1-1.8c-1.2-0.8-2.1-1.6-2.1-1.7c0-0.1-0.5-0.5-1.1-0.9
			c-1.1-0.6-1.9-1.2-4.5-3.4c-0.7-0.6-1.3-1-1.5-1c0,0,0,0,0,0c0,0,0,0,0,0c-0.1,0-0.7-0.4-1.2-0.9c-0.5-0.5-1.7-1.4-2.5-2
			c-0.8-0.6-2-1.5-2.7-2.1c-0.7-0.5-1.4-1.1-1.8-1.3c-0.6-0.4-2.7-2.5-3.5-3.4c-1.1-1.2-2.4-4.9-2.8-7.7c-0.2-1.1-0.4-2.1-0.6-2.3
			c-0.2-0.2-0.5-1.5-0.6-2.9c-0.2-1.4-0.5-2.7-0.7-2.9c-0.2-0.2-0.5-1.9-0.6-3.7c-0.2-1.8-0.5-3.6-0.7-4c-0.4-0.8-0.5-2-1.5-10.6
			c-0.3-2.8-0.7-5.4-0.8-5.6c-0.1-0.2-0.4-2.5-0.6-5c-0.2-2.5-0.4-4.9-0.6-5.2c-0.1-0.3-0.5-3.2-0.9-6.3c-0.3-3.2-0.8-7.4-1-9.4
			c-0.8-6.8-1.4-17.1-1.6-25.1c-0.1-4.8-0.3-8-0.6-8.2c-0.2-0.1-0.4-2.6-0.5-6.1c-0.1-3.5,0-6,0.3-6.2c0.2-0.1,0.4-1.4,0.4-2.8
			c0-2.3,0.1-3.6,0.9-7.5c0.1-0.6,0.3-1,0.5-1c0.2,0,0.4-0.7,0.5-1.5c0.1-0.8,0.4-1.5,0.5-1.5c0.2,0,0.4-0.5,0.6-1.2
			c0.1-0.7,0.4-1.2,0.6-1.2c0.2,0,0.3-0.3,0.3-0.6c0-0.4,0.5-0.6,0.9-0.6c0.3,0,0.6,0.1,0.7,0.4c0.1,0.2,0,2.6-0.1,5.4
			c-0.3,6.9,1.3,25.3,3.9,44c0.4,2.7,0.9,7,1.3,9.4c0.3,2.4,0.7,4.7,0.8,5c0.2,0.3,0.4,1.5,0.5,2.7c0.7,5.5,2.5,16.2,2.9,16.7
			c0.2,0.2,0.4,1.5,0.6,3c0.2,1.4,0.5,2.6,0.6,2.8c0.2,0.1,0.4,1.4,0.6,2.9c0.2,1.5,0.5,2.8,0.7,2.9s0.4,0.6,0.4,1
			c0,1.1,1.2,6,1.7,6.8c0.2,0.3,0.5,1.5,0.6,2.5c0.2,1,0.5,2,0.6,2.3c0.2,0.2,0.4,1,0.6,1.7c0.2,0.7,0.5,1.7,0.7,2.1
			c0.2,0.4,0.7,1.8,1.1,3.1c0.4,1.3,0.9,2.4,1,2.4c0,0,0,0,0,0c0,0,0,0,0,0c0.2,0,0.3,0.3,0.3,0.6c0,0.8,5.8,6.4,6.9,6.7
			c0.4,0.1,1.1,0.5,1.6,0.9c0.7,0.6,4.4,3.1,6,4c0.3,0.2,0.7,0.4,0.8,0.6c0.1,0.1,0.9,0.6,1.8,1.1c0.9,0.5,1.6,1,1.8,1.1
			c0.5,0.6,3.1,2.2,3.5,2.2c0,0,0,0,0,0c0,0,0,0,0,0c0.2,0,0.5,0.3,0.6,0.6c0.2,0.3,0.4,0.6,0.7,0.6c0,0,0,0,0,0c0,0,0,0,0,0
			c0.5,0,1.7,0.8,3.1,2.1c0.5,0.4,1.7,1.2,2.7,1.7c1,0.5,2.3,1.3,2.8,1.7c0.5,0.5,1.1,0.9,1.2,0.9c1,0.4,8.5,5.4,8.8,5.8
			c0.2,0.3,0.6,0.5,0.8,0.5c0,0,0,0,0,0c0,0,0,0,0,0c0.3,0,0.6,0.1,0.6,0.4c0,0.2,0.4,0.5,1,0.6c0.5,0.1,1,0.3,1,0.5
			c0,0.2,0.6,0.6,1.3,1c0.7,0.4,1.4,0.9,1.7,1.1c1.3,1.1,1.6,1.3,2.4,1.5c0.5,0.1,0.9,0.4,0.9,0.6c0,0.2,0.2,0.3,0.5,0.3
			c0,0,0,0,0,0c0,0,0,0,0,0c0.3,0,0.8,0.3,1.2,0.7c0.4,0.4,1.8,1.4,3.3,2.2c1.4,0.8,3.1,1.9,3.7,2.4c0.6,0.5,1.4,1,1.6,1
			c0,0,0,0,0,0c0,0,0,0,0,0c0.3,0,0.5,0.1,0.6,0.3c0.2,0.5,2.6,2,3,2c0,0,0,0,0,0c0,0,0,0,0,0c0.2,0,0.4,0.1,0.4,0.3
			c0,0.2,0.6,0.6,1.4,1.1c0.7,0.4,1.4,0.8,1.4,1c0,0.2,0.2,0.3,0.4,0.3c0,0,0,0,0,0c0,0,0,0,0,0c0.5,0,2.8,1.5,3,1.9
			c0.1,0.2,0.3,0.3,0.5,0.3c0,0,0,0,0,0c0,0,0,0,0,0c0.3,0,4.4,2.7,5.7,3.7c0.3,0.2,0.6,0.4,0.8,0.4c0,0,0,0,0,0c0,0,0,0,0,0
			c0.2,0,0.8,0.4,1.4,1c1,0.9,1.5,1,3.9,1.1c0.4,0,0.8,0,1.1,0c1.6,0,2.4-0.2,4-1c3.7-1.8,5.7-2.8,5.9-3.1c0.1-0.1,0.7-0.4,1.3-0.5
			c0.6-0.2,1-0.4,1-0.6c0-0.2,0.2-0.3,0.4-0.4c0.5,0,5.5-2.5,5.7-2.8c0.1-0.1,0.6-0.4,1.1-0.6c0.5-0.2,1-0.4,1.1-0.6
			c0.3-0.4,5-2.8,5.6-2.8c0.2,0,0.5-0.1,0.6-0.3c0.1-0.2,1-0.7,2-1.3c1.1-0.6,2-1.1,2.1-1.2c0.3-0.4,5.2-2.8,5.6-2.8
			c0.3,0,0.5-0.2,0.5-0.4s0.5-0.5,1.1-0.6c0.7-0.2,1.1-0.4,1.1-0.6c0-0.1,0.8-0.6,1.7-1c1-0.4,1.7-0.9,1.7-1.1
			c0-0.2,0.2-0.3,0.5-0.3c0.2,0,1.1-0.4,2-0.8c0.8-0.4,1.8-0.8,2-0.8c0.2,0,0.5-0.1,0.5-0.3c0-0.2,0.4-0.5,0.9-0.7
			c0.5-0.2,2-1.1,3.5-1.9c1.7-0.9,3.2-1.4,4.1-1.5c0.8,0,1.5-0.2,1.5-0.4c0-0.2,0.6-0.4,1.5-0.6c0.8-0.1,2.9-0.6,4.7-0.9
			c1.8-0.4,4.7-0.9,6.5-1.3c1.8-0.3,4-0.8,5-1c1-0.2,1.8-0.4,2-0.5c0.2,0,0.3-0.3,0.3-0.7c-0.1-0.8-2.2-1.8-4.5-2.1
			c-0.8-0.1-1.9-0.3-2.3-0.5c-0.4-0.2-1.8-0.6-3.1-0.9c-1.3-0.4-2.6-0.8-2.9-1.1c-0.3-0.3-1.6-0.4-3.1-0.4c-1.9,0-4.1,0.2-4.2,0.5
			c-0.1,0.3-0.4,0.5-0.7,0.5c-0.3,0-1.4,0.5-2.5,1c-1.1,0.5-2.5,1.1-3.2,1.3c-0.7,0.1-1.3,0.4-1.3,0.6c0,0.2-0.6,0.4-1.3,0.6
			c-0.7,0.1-1.3,0.4-1.3,0.6c0,0.2-0.3,0.4-0.6,0.4c-0.3,0-0.9,0.2-1.3,0.4c-1.6,0.9-4.3,2-5,2c-0.5,0-0.8,0.2-0.8,0.4
			c0,0.2-0.7,0.5-1.5,0.6c-0.8,0.2-1.5,0.4-1.5,0.5c0,0.3-4.5,2.4-7.6,3.5c-1.1,0.4-2.5,1-3.1,1.3c-0.5,0.3-1.3,0.5-1.6,0.5
			c-0.4,0-0.7,0.1-0.7,0.3c0,0.2-0.8,0.6-1.8,1.1c-1,0.4-2.3,1-3,1.3c-0.6,0.3-1.5,0.6-2,0.6c-0.4,0-0.8,0.2-0.9,0.4
			c-0.2,0.6-3.4,0.9-6.8,0.9c-0.9,0-1.9,0-2.7-0.1c-2.2-0.2-4.1-0.4-4.2-0.6c-0.1-0.2-1.9-0.3-3.9-0.5c-0.9,0-1.6-0.1-2.2-0.1
			c-2.6,0-3,0.5-3.1,2.4c-0.1,1.3-0.2,1.7-0.9,1.7c-0.1,0-0.1,0-0.2,0c-0.5,0-1-0.3-1.5-0.9c-0.4-0.6-1-1.3-1.2-1.5
			c-0.2-0.3-0.4-0.6-0.4-0.9c0-0.2-0.2-0.4-0.4-0.4c0,0,0,0,0,0c0,0,0,0,0,0c-0.2,0-0.5-0.3-0.7-0.7c-0.3-0.6-2.3-3.7-4.3-6.6
			c-1.1-1.5-2.6-4.1-3.4-5.6c-0.2-0.5-0.6-1-0.7-1.1c-0.5-0.5-2.8-4.1-2.8-4.5c0-0.3-0.2-0.5-0.4-0.5c0,0,0,0,0,0c0,0,0,0,0,0
			c-0.2,0-0.5-0.4-0.6-0.9c-0.1-0.5-0.4-1-0.6-1c0,0,0,0,0,0c0,0,0,0,0,0c-0.2,0-0.3-0.2-0.3-0.4c0-0.2-0.4-1-0.9-1.6
			c-1.1-1.4-2.2-3.2-2.5-4.2c-0.1-0.3-0.4-0.6-0.6-0.6c0,0,0,0,0,0c0,0,0,0,0,0c-0.2,0-0.3-0.2-0.3-0.4c0-0.2-0.5-1.2-1.2-2.1
			c-0.6-0.9-1.2-1.7-1.2-1.8c0-0.1-0.7-1.3-1.6-2.7c-0.9-1.4-1.6-2.7-1.6-2.9c0-0.2-0.2-0.4-0.4-0.4c0,0,0,0,0,0c0,0,0,0,0,0
			c-0.2,0-0.5-0.4-0.6-0.9c-0.1-0.5-0.4-1-0.6-1c0,0,0,0,0,0s0,0,0,0c-0.2,0-0.4-0.4-0.6-1c-0.2-0.5-0.4-0.9-0.6-0.9c0,0,0,0,0,0
			c0,0,0,0,0,0c-0.2,0-0.4-0.2-0.4-0.5c0-0.3-0.2-0.8-0.5-1.1c-0.2-0.3-0.8-1.2-1.3-2c-0.4-0.8-1-1.6-1.1-1.7
			c-0.2-0.1-0.7-0.9-1.1-1.7c-0.4-0.8-0.9-1.6-1.1-1.7c-0.1-0.1-0.6-0.9-1-1.8c-0.4-0.9-0.9-1.6-1-1.6c0,0,0,0,0,0c0,0,0,0,0,0
			c-0.1,0-0.7-0.8-1.2-1.8c-0.6-1-1.1-1.9-1.2-2c-0.3-0.3-1.1-1.7-1.5-2.5c-0.2-0.4-0.8-1.4-1.4-2.2c-0.6-0.8-1-1.6-1-1.8
			c0-0.2-0.4-0.7-0.8-1.2c-1-1.1-2.4-3.6-2.4-4.4c0-0.4-0.2-0.9-0.5-1.2c-0.7-0.6-1-15.8-0.4-16.6c0.2-0.3,0.5-2.4,0.6-4.7
			c0.1-2.3,0.3-4.5,0.5-4.9c0.2-0.4,0.4-1.4,0.3-2.4c0-0.9,0.2-2.7,0.5-4c0.3-1.3,0.5-2.9,0.5-3.6c0-0.7,0.1-1.2,0.3-1.2
			c0.2,0,0.4-1.3,0.6-2.8c0.1-1.5,0.3-3,0.5-3.2c0.2-0.2,0.4-1.4,0.5-2.7c0.1-1.3,0.3-3.1,0.5-4.1c0.2-1,0.6-3.1,0.9-4.8
			c0.3-1.7,0.7-3.4,0.9-3.7c0.1-0.3,0.4-1.6,0.5-2.8c0.1-1.2,0.4-2.2,0.5-2.2c0.2,0,0.4-1,0.5-2.1c0.1-1.2,0.4-2.1,0.6-2.1
			c0.2,0,0.3-0.5,0.3-1.2c0-1.1,0.7-4.2,1.4-6.3c0.6-1.7,1.8-6.2,1.8-6.7c0-0.2,0.1-0.5,0.3-0.5c0.2,0,0.4-0.7,0.6-1.6
			c0.1-0.8,0.4-1.6,0.6-1.8c0.2-0.1,0.3-0.6,0.3-1.2c0-0.5,0.1-0.9,0.3-0.9c0.2,0,0.4-0.7,0.6-1.6c0.1-0.8,0.4-1.5,0.6-1.6
			c0.2,0,0.3-0.3,0.3-0.6c0-0.8,2.2-5.4,3.5-7.3c1.2-1.7,3.2-3.6,3.7-3.6c0,0,0,0,0,0c0.2,0.1,0.5,0.4,0.8,0.7
			c0.3,0.4,0.1,1.2-0.6,2.7c-0.6,1.2-1,2.5-1,2.9c0,0.5-0.1,0.8-0.3,0.9c-0.2,0-0.5,1.2-0.7,2.6c-0.2,1.5-0.7,4.1-0.9,5.9
			c-0.3,1.8-0.6,4-0.8,4.9c-0.1,0.9-0.3,1.7-0.5,1.7c-0.2,0-0.4,1.4-0.5,3.1c-0.1,1.7-0.4,3.2-0.6,3.3c-0.2,0.1-0.4,1.5-0.5,3
			c-0.1,1.5-0.3,3-0.5,3.2c-0.3,0.5-1.1,6.3-1.2,9.5c-0.1,1.4-0.3,2.9-0.5,3.3s-0.5,2.7-0.7,5c-0.6,8.1-1.2,13.9-1.3,13.9
			c-0.2,0-1,11.9-1.6,24.6c-0.1,1.3,0,2.6,0.2,2.9c0.4,0.8,1.3,2.6,2.3,4.2c0.4,0.7,1,1.5,1.2,1.8c0.2,0.3,0.5,0.6,0.5,0.8
			c0,0.2,0.4,0.7,0.9,1.2c1.3,1.5,3.4,4.1,3.4,4.3c0,0.2,0.4,0.6,2.4,2.9c0.5,0.5,1.1,1.4,1.5,1.9c0.6,0.9,1.3,1.7,3.3,3.9
			c0.6,0.6,1.1,1.3,1.1,1.4c0,0.2,0.2,0.5,0.5,0.8c0.9,0.9,2.8,3.2,3.4,4.1c0.3,0.5,0.9,1.3,1.3,1.7c0.4,0.5,1.2,1.4,1.8,2.2
			c0.6,0.7,1.3,1.5,1.5,1.6c0.3,0.1,0.5,0.5,0.5,0.8c0,0.3,0.2,0.6,0.3,0.6c0.2,0,0.9,0.9,1.7,1.8c0.7,0.9,1.6,1.9,1.9,2
			c0.2,0.1,0.5,0.5,0.5,0.7c0,0.4,0.1,0.5,2.1,2.6c0.7,0.7,1.7,2,2.3,2.8c1.1,1.5,2.7,3.4,4.6,5.4c0.5,0.5,0.9,1.1,0.9,1.3
			c0,0.2,0.5,0.8,1.1,1.4c1,1.1,1.7,1.9,3.7,4.4c0.5,0.6,1.1,1.3,1.3,1.6c0.2,0.2,0.8,0.9,1.4,1.6c0.6,0.7,1.2,1.5,1.5,1.7
			c0.2,0.3,0.5,0.7,0.5,0.9c0,0.5,1.4,0.7,2.9,0.7c1.6,0,3.4-0.3,3.5-0.8c0.1-0.2,0.4-0.4,0.7-0.4c0.3,0,0.8-0.2,1.2-0.4
			c0.3-0.2,1.5-0.8,2.6-1.2c1.1-0.5,2.4-1.1,3.1-1.4c0.6-0.3,1.5-0.6,2-0.6c0.4,0,0.8-0.2,0.9-0.3c0.1-0.3,3.6-2.1,6.2-3.3
			c2.7-1.2,4.1-1.8,6.3-2.9c1.4-0.6,2.8-1.4,3.2-1.5c0.4-0.2,1.9-0.9,3.4-1.6c1.4-0.7,2.9-1.2,3.2-1.3s0.5-0.2,0.5-0.4
			c0-0.2,0.2-0.4,0.4-0.4c0.2,0,1.6-0.6,2.9-1.2c1.4-0.7,3-1.3,3.6-1.5c0.6-0.1,1.2-0.4,1.3-0.6c0.2-0.3,3.6-0.5,6.3-0.5
			c1.9,0,3.5,0.1,3.6,0.3c0.1,0.2,1,0.4,2,0.5c0.9,0.1,1.8,0.4,1.9,0.6c0.1,0.2,1.1,0.4,2.1,0.5c1.1,0.1,1.9,0.3,1.9,0.5
			c0,0.2,0.8,0.4,1.7,0.5c0.9,0.1,2,0.4,2.4,0.6c0.8,0.4,5.7,1.4,6.8,1.4c0,0,0,0,0,0c0,0,0,0,0,0c0.3,0,0.6,0.1,0.6,0.3
			c0,0.3,2.5,0.7,4.1,0.7c0.5,0,0.9,0,1.1-0.1c0.4-0.1,1.5-1.5,2.6-3c1-1.5,2-2.7,2.1-2.7s0.3-0.6,0.3-1.4c0-0.7-0.2-1.3-0.4-1.3
			c0,0,0,0,0,0c0,0,0,0,0,0c-0.2,0-0.5-0.7-0.6-1.5c-0.2-0.8-0.4-1.5-0.6-1.5c0,0,0,0,0,0s0,0,0,0c-0.2,0-0.4-0.7-0.6-1.5
			c-0.2-0.8-0.5-1.5-0.6-1.5c0,0,0,0,0,0c0,0,0,0,0,0c-0.2,0-0.4-0.4-0.4-0.9c0-0.5-0.2-1-0.4-1.2c-0.2-0.1-0.5-0.7-0.6-1.3
			c-0.2-0.6-0.4-1.1-0.6-1.1c0,0,0,0,0,0c0,0,0,0,0,0c-0.2,0-0.3-0.3-0.4-0.6c0-0.3-0.3-1.3-0.7-2.3c-0.4-1.3-0.5-2-0.3-2.6
			c0.2-0.5,0.5-1.3,0.6-1.8c0.2-1.1,1.4-2.5,5.5-6.2c3.5-3.2,6.1-5.7,8.1-7.7c3.1-3.1,5.2-4.9,5.7-4.9c0.3,0,0.5-0.2,0.5-0.3
			c0-0.6,2.3-1.6,3.3-1.6c0,0,0.1,0,0.1,0c0.9,0.1,1,0.3,1,2.8c0,1.8-0.1,2.7-0.4,2.9c-0.2,0.1-0.5,0.4-0.5,0.6
			c0,0.6-2.3,5.5-2.7,5.6c-0.2,0.1-0.3,0.4-0.3,0.7c0,0.3-0.2,0.8-0.4,1c-0.7,0.7-1.3,1.9-1.9,3.3c-0.3,0.7-0.8,1.4-1.2,1.5
			c-0.3,0.1-0.6,0.5-0.6,0.7s-0.5,1.1-1.1,1.8c-1.1,1.3-1.5,3.4-0.7,3.4c0,0,0,0,0,0c0,0,0,0,0,0c0.2,0,0.4,0.2,0.4,0.5
			c0,0.3,0.2,0.7,0.6,1c0.3,0.3,0.7,1,0.9,1.7c0.1,0.7,0.5,1.4,0.8,1.7c0.3,0.3,1.1,0.5,1.8,0.5c0.6,0,1.1-0.1,1.1-0.4
			c0-0.2,1-0.5,2.2-0.7c1.2-0.1,2.4-0.5,2.7-0.7c0.5-0.4,11.1-0.7,18.1-0.7c3.4,0,6,0.1,6.1,0.3c0.2,0.2,1.3,0.5,2.6,0.6
			c1.3,0.1,2.4,0.4,2.4,0.6c0.1,0.2,0.8,0.4,1.5,0.4c0.8,0,1.7-0.2,1.7-0.5c0-0.7,1.8-4.5,2.2-4.8c0.9-0.6,0.3-2-2-5.1
			c-1.3-1.7-2.4-3.4-2.4-3.7c0-0.3-0.2-0.5-0.4-0.5c0,0,0,0,0,0c0,0,0,0,0,0c-0.2,0-0.5-0.4-0.6-0.9c-0.1-0.5-0.4-1-0.6-1
			c0,0,0,0,0,0s0,0,0,0c-0.2,0-0.4-0.4-0.6-1c-0.2-0.5-0.4-1-0.6-1c0,0,0,0,0,0c0,0,0,0,0,0c-0.2,0-0.5-0.5-0.6-1.1
			c-0.2-0.6-0.4-1.1-0.5-1.1c0,0,0,0,0,0c0,0,0,0,0,0c-0.3,0-1.7-2.9-1.7-3.6c0-0.3-0.2-0.6-0.4-0.6c0,0,0,0,0,0c0,0,0,0,0,0
			c-0.6,0-1-2.9-0.5-3.8c0.3-0.5,0.7-0.8,1.3-0.8c0.5,0,1.2,0.2,2.1,0.6c1.7,0.7,1.6,0.7,4,2.7c1,0.8,1.9,1.5,2.1,1.5c0,0,0,0,0,0
			c0,0,0,0,0,0c0.2,0,0.3,0.3,0.3,0.6c0,0.3,0.2,0.6,0.5,0.6c0,0,0,0,0,0c0,0,0,0,0,0c0.2,0,2.1,1.5,4,3.3c2,1.8,4.6,4.1,5.9,5.2
			c3.1,2.6,4.3,3.8,5.1,5.2c0.8,1.5,0.8,4.5,0.1,5.9c-0.3,0.6-0.5,1.4-0.5,1.8c0,0.3-0.1,0.7-0.3,0.9c-0.2,0.1-0.4,0.7-0.6,1.4
			c-0.1,0.7-0.4,1.2-0.6,1.2c-0.2,0-0.3,0.4-0.3,0.8c0,0.5-0.2,1.4-0.5,2.1c-0.3,0.7-0.8,1.9-1.1,2.7c-0.9,2.1-0.5,4.9,0.9,5.9
			c0.5,0.4,1,0.9,1,1.1c0,0.2,0.6,0.9,1.4,1.7l1.4,1.4l2.4-0.3c1.3-0.2,2.6-0.5,2.8-0.6c0.2-0.2,1.8-0.6,3.4-1
			c1.7-0.4,3.3-0.9,3.7-1.1c0.3-0.2,1.3-0.5,2.1-0.7c0.8-0.1,1.7-0.4,1.9-0.6c0.2-0.2,1.1-0.4,2.1-0.6c1-0.2,1.9-0.5,2.1-0.6
			c0.2-0.2,1.1-0.4,2-0.6c0.9-0.2,1.7-0.5,1.9-0.7c0.2-0.3,3.6-0.5,6.3-0.5c1.9,0,3.5,0.1,3.6,0.3c0.1,0.2,0.9,0.4,1.8,0.5
			c0.8,0.1,1.5,0.4,1.5,0.5c0,0.2,0.5,0.5,1.2,0.6c0.7,0.1,1.2,0.4,1.2,0.6c0,0.2,0.6,0.4,1.4,0.5c0.7,0.1,1.4,0.4,1.4,0.6
			c0,0.2,0.4,0.4,0.9,0.5c1.7,0.4,3.8,1.2,3.8,1.4c0,0.1,0.5,0.3,1.2,0.5c0.7,0.1,1.2,0.4,1.2,0.6c0,0.2,0.6,0.4,1.4,0.5
			c0.7,0.1,1.4,0.4,1.4,0.6c0,0.2,0.2,0.4,0.4,0.4c0,0,0,0,0,0c0,0,0,0,0,0c0.2,0,1,0.3,1.8,0.6c0.8,0.3,1.8,0.7,2.2,0.9
			c0.4,0.2,1.6,0.7,2.6,1.1c1,0.4,2,0.8,2.2,0.8c0,0,0,0,0,0c0,0,0,0,0,0c0.2,0,0.4,0.1,0.4,0.4c0,0.2,0.3,0.4,0.6,0.4c0,0,0,0,0,0
			c0,0,0,0,0,0c0.7,0,3.4,1.2,3.6,1.5c0.1,0.2,0.4,0.3,0.7,0.3c0,0,0,0,0,0c0,0,0,0,0,0c0.3,0,1.2,0.3,2,0.6c4,1.7,5,2.1,5.6,2.4
			c0.4,0.2,0.9,0.3,1.2,0.3c0,0,0,0,0,0c0,0,0,0,0,0c0.3,0,0.6,0.2,0.7,0.4c0.1,0.2,1.4,0.5,2.8,0.6l2.7,0.1l1.1-1.5
			c0.6-0.8,1.6-2,2.1-2.5c0.5-0.5,1.4-1.7,1.8-2.5c0.5-0.8,1-1.4,1.2-1.4s0.3-0.2,0.3-0.4c0-0.2,0.2-0.6,0.5-0.9
			c1.4-1.5,2.5-3,2.5-3.3c0-0.2,0.2-0.5,0.5-0.7c0.2-0.2,0.9-0.9,1.4-1.7c0.6-0.7,1.3-1.8,1.7-2.2c0.4-0.5,1.1-1.3,1.5-1.9
			c0.7-1,1.4-1.9,3.3-4.3c0.8-0.9,3.2-4.1,3.6-4.7c0.1-0.2,0.5-0.8,0.9-1.4c0.3-0.5,1.1-1.5,1.7-2.2c0.6-0.7,1.3-1.4,1.5-1.8
			c0.2-0.3,1.2-1.6,2.3-3c1.1-1.4,2-2.6,2.1-2.7c0.1-0.1,1.1-1.3,2.1-2.7c1-1.4,2.2-2.9,2.7-3.4c0.5-0.5,0.9-1.1,0.9-1.2
			c0-0.2,0.5-0.9,1.1-1.6c0.6-0.7,1.1-1.4,1.1-1.6c0-0.2,0.1-0.4,0.3-0.4c0.2,0,0.7-0.7,1.2-1.5c0.5-0.8,1-1.5,1.1-1.6
			c0.1-0.1,0.9-1.2,1.8-2.5c0.9-1.3,1.9-2.5,2.1-2.7c0.2-0.2,0.7-1.1,1.1-1.9c0.4-0.8,0.9-1.4,1-1.4c0.2,0,0.4-0.5,0.5-1.2
			c0.1-0.7,0.4-1.2,0.6-1.2c0.7,0-0.9-25.2-1.7-26.6c-0.2-0.4-0.4-1.8-0.4-3.1c0-1.3-0.2-2.6-0.3-2.7c-0.2-0.2-0.5-2.2-0.9-4.6
			c-1.2-9.7-1.7-13.2-2-13.5c-0.2-0.2-0.4-2.2-0.6-4.5c-0.2-2.3-0.5-4.1-0.7-4.1c0,0,0,0,0,0c0,0,0,0,0,0c-0.2,0-0.4-0.7-0.5-1.6
			c-0.5-3.6-1.2-7-1.6-7.6c-0.2-0.3-0.5-1.8-0.6-3.1c-0.2-1.4-0.5-2.6-0.6-2.8c-0.2-0.1-0.5-1.5-0.6-3.2c-0.2-1.6-0.5-3.1-0.6-3.3
			c-0.2-0.2-0.4-1.1-0.5-2.1c-0.2-1.8-1-4.6-1.5-5.9c-0.2-0.4-0.5-1.2-0.6-1.7c-0.2-0.5-0.5-1.1-0.8-1.4c-0.5-0.5-0.8-2.4-0.4-2.4
			c0.1,0,0.4-0.1,0.8-0.2C426.7,218.5,426.8,218.5,426.8,218.5z"/>
	</g>
</g>
</svg>
