<?xml version="1.0" encoding="utf-8"?>
<!-- Generator: Adobe Illustrator 22.1.0, SVG Export Plug-In . SVG Version: 6.00 Build 0)  -->
<svg version="1.1" id="Layer_1" xmlns="http://www.w3.org/2000/svg" xmlns:xlink="http://www.w3.org/1999/xlink" x="0px" y="0px"
	 viewBox="0 0 1920 1920" style="enable-background:new 0 0 1920 1920;" xml:space="preserve">
<path style="fill:none;stroke:#000000;stroke-width:8;stroke-miterlimit:10;" d="M999.8,642.4c1.8,4.9,2.9,9.1,3.4,12.4
	c-2.2-2.6-4.1-5.6-5.2-9c-0.3-0.7-0.7-1.5-1-2.4L999.8,642.4z"/>
<path style="fill:none;stroke:#000000;stroke-width:8;stroke-miterlimit:10;" d="M1062.3,808.9v0.4c0,53.9-13.4,94.7-25.5,128.6
	c-12.3,34.2-22.4,61-22.4,92.7v0.2c0,7.2,0.5,14.8,1.7,23c0.5,3.1,1,6.2,1.6,9.4c2.4,11.8,6.1,24.7,11.7,39.2l0,0l-50,19.3
	c-8.7-22.4-14-43.1-16.6-62.3c-1.4-9.9-2-19.4-2-28.6c0.1-43.7,13.8-78,25.5-110.9c5.9-16.6,11.5-33,15.6-50.9
	c4.1-17.9,6.8-37.4,6.8-60.1c0-19.8-2.1-42.2-7.3-68.1c-3.7-18.5-9-38.7-16.3-61.1c8.3-1.7,19-10.3,18.3-20.3c0.1-1.3,0-2.8-0.2-4.5
	c8.9,10.4,24,14.2,28.4,9.1c1.1-1.4,2.2-2.8,3.4-4.1C1054.7,719.4,1062.3,767.8,1062.3,808.9z"/>
<path style="fill:none;stroke:#000000;stroke-width:8;stroke-miterlimit:10;" d="M1220.2,1314c0,97.1-43.3,181.9-107.6,226.7
	c0.1-2.9,0.1-5.8,0.1-8.8c0-1,0-2,0-3.1c0-2-0.1-4.1-0.1-6.2c0-0.9,0-1.7-0.1-2.6c-0.1-2.3-0.2-4.6-0.3-6.9
	c-0.1-1.1-0.1-2.1-0.2-3.2c-0.1-1.1-0.1-2.1-0.2-3.2c-0.1-1.1-0.2-2.2-0.3-3.2c-0.1-0.8-0.1-1.5-0.2-2.2c-0.2-1.9-0.4-3.9-0.6-5.9
	c-0.2-1.5-0.3-3-0.5-4.6c-0.2-1.3-0.3-2.5-0.5-3.8c-0.3-2.2-0.6-4.5-1-6.8c0-0.1,0-0.2,0-0.3c-0.2-1-0.3-2.1-0.5-3.1
	c-0.2-1.1-0.4-2.3-0.6-3.4c-0.8-4.6-1.7-9.3-2.7-14c-0.2-1.1-0.5-2.3-0.8-3.4c-0.3-1.3-0.6-2.6-0.9-4c-0.3-1.1-0.5-2.2-0.8-3.3
	c-0.3-1.2-0.6-2.4-0.9-3.6c0-0.1,0-0.1,0-0.2c-1.2-4.6-2.4-9.3-3.8-14.1c-0.5-1.6-0.9-3.2-1.4-4.8c-0.3-1-0.6-2.1-1-3.2
	c0,0,0-0.1,0-0.1c-0.6-2.1-1.3-4.3-2-6.4v0c-6.2-19.3-14.1-39.5-23.8-60.6c-5.5,75.8-29.4,140.6-43.2,181c4,9.1,6,21.5,6.1,35.9
	c0.5-0.1,1.1-0.1,1.6-0.2c-0.5,0.1-1.1,0.2-1.6,0.2c-0.2,0-0.3,0-0.5,0.1c-0.7,0.1-1.3,0.2-2,0.3c-0.1,0-0.1,0-0.2,0
	c-0.7,0.1-1.4,0.2-2.2,0.3c-0.3,0.1-0.7,0.1-1,0.1c-0.7,0.1-1.3,0.1-2,0.2c-1.8,0.2-3.7,0.3-5.5,0.4c-0.9,0.1-1.9,0.1-2.8,0.2
	c-2.7,0.1-5.4,0.2-8.1,0.2c-117.3,0-212.3-116.6-212.3-260.5c0-124.9,71.6-229.3,167.3-254.6c14.5-3.8,29.6-5.9,45.1-5.9
	c2.7,0,5.5,0.1,8.2,0.2C1129.6,1059,1220.2,1173.5,1220.2,1314z"/>
<path style="fill:none;stroke:#000000;stroke-width:8;stroke-miterlimit:10;" d="M1016,1574.3L1016,1574.3c0-7.2,4.1-20.1,10.1-37.4
	"/>
<path style="fill:none;stroke:#000000;stroke-width:8;stroke-miterlimit:10;" d="M1069.4,1355.9c1.2-17.1,1.6-34.7,0.6-52.7
	c0-0.1,0-0.1,0-0.2c-2.2-42.7-11.5-87.7-32.1-132.8c38.4,64.6,57,159,55.4,245.1c0,0.4,0,0.8,0,1.2"/>
<path style="fill:none;stroke:#000000;stroke-width:8;stroke-miterlimit:10;" d="M1026.1,1536.9c4,9.1,6,21.5,6.1,35.9
	c-0.2,0-0.3,0.1-0.5,0.1c-0.7,0.1-1.3,0.2-2,0.3c-0.1,0-0.1,0-0.2,0c-0.7,0.1-1.4,0.2-2.2,0.3c-0.3,0.1-0.7,0.1-1,0.1
	c-0.7,0.1-1.3,0.1-2,0.2c-1.8,0.2-3.7,0.3-5.5,0.4c-0.9,0.1-1.9,0.1-2.8,0.2v0C1016,1567.1,1020.2,1554.3,1026.1,1536.9z"/>
<path style="fill:none;stroke:#000000;stroke-width:8;stroke-miterlimit:10;" d="M1093.2,1415.3c0,0.4,0,0.8,0,1.2
	c-6.2-19.3-14.1-39.5-23.8-60.6c1.2-17.1,1.6-34.7,0.6-52.7c0-0.1,0-0.1,0-0.2c-2.2-42.7-11.5-87.7-32.1-132.8
	C1076.3,1234.9,1094.8,1329.3,1093.2,1415.3z"/>
<path style="fill:none;stroke:#000000;stroke-width:8;stroke-miterlimit:10;" d="M1032.2,1572.8c0.5-0.1,1.1-0.1,1.6-0.2
	C1033.3,1572.7,1032.8,1572.7,1032.2,1572.8L1032.2,1572.8z"/>
<path style="fill:none;stroke:#000000;stroke-width:8;stroke-miterlimit:10;" d="M1069.2,1355.7c0,0.1,0.1,0.2,0.1,0.3
	c-5.5,75.8-29.4,140.6-43.2,181c0-0.1,0-0.1-0.1-0.2C1039.9,1496.3,1063.8,1431.4,1069.2,1355.7z"/>
<path style="fill:none;stroke:#000000;stroke-width:8;stroke-miterlimit:10;" d="M1097.6,1431c1.4,4.7,2.6,9.4,3.8,14.1
	C1100.2,1440.4,1099,1435.7,1097.6,1431z"/>
<path style="fill:none;stroke:#000000;stroke-width:8;stroke-miterlimit:10;" d="M1475.7,396.9c-5.7,134.7-355,165.7-440.7,262.8
	c-1.2,1.4-2.4,2.7-3.4,4.1c-4.4,5.1-19.5,1.3-28.4-9.1c-0.5-3.3-1.6-7.5-3.4-12.4c-1.7-4.9-4.1-10.4-7-16.6
	c-15.4-100.8,15.2-476.3,257-484.3C1362.7,143.2,1487.2,291.8,1475.7,396.9z"/>
<path style="fill:none;stroke:#000000;stroke-width:8;stroke-miterlimit:10;" d="M1003.2,654.8c-2.2-2.6-4.1-5.6-5.2-9
	c-0.3-0.7-0.7-1.5-1-2.4c-1.6-4.2-3-10.2-4.1-17.7c2.9,6.2,5.3,11.7,7,16.6C1001.6,647.3,1002.7,651.5,1003.2,654.8z"/>
<path style="fill:none;stroke:#000000;stroke-width:8;stroke-miterlimit:10;" d="M1003.4,659.3c0.8,10.1-10,18.6-18.3,20.3
	c-2.2,0.5-4.3,0.4-5.9-0.2C868,630.1,525,694.4,467.8,603.2c-50.6-68.5,7.9-198.5,111.4-226.1c209.5-47.7,371.6,160.5,413.6,248.7
	c1.1,7.5,2.5,13.5,4.1,17.7c0.3,0.9,0.7,1.7,1,2.4c1.2,3.4,3,6.4,5.2,9C1003.5,656.6,1003.5,658.1,1003.4,659.3z"/>
<path style="fill:none;stroke:#000000;stroke-width:8;stroke-miterlimit:10;" d="M1003.2,654.8c-2.2-2.6-4.1-5.6-5.2-9
	c-0.3-0.7-0.7-1.5-1-2.4c-1.6-4.2-3-10.2-4.1-17.7c2.9,6.2,5.3,11.7,7,16.6C1001.6,647.3,1002.7,651.5,1003.2,654.8z"/>
<path style="fill:none;stroke:#000000;stroke-width:8;stroke-miterlimit:10;" d="M1112.7,1528.8c0-2-0.1-4.1-0.1-6.2
	c0-0.9,0-1.7-0.1-2.6c-0.1-2.3-0.2-4.6-0.3-6.9c-0.1-1.1-0.1-2.1-0.2-3.2c-0.1-1.1-0.1-2.1-0.2-3.2c-0.1-1.1-0.2-2.2-0.3-3.2
	c-0.1-0.8-0.1-1.5-0.2-2.2c-0.2-1.9-0.4-3.9-0.6-5.9c-0.2-1.5-0.3-3-0.5-4.6c-0.2-1.3-0.3-2.5-0.5-3.8c-0.3-2.2-0.6-4.5-1-6.8
	c0-0.1,0-0.2,0-0.3c-0.2-1-0.3-2.1-0.5-3.1c-0.2-1.1-0.4-2.3-0.6-3.4c-0.8-4.6-1.7-9.3-2.7-14c-0.2-1.1-0.5-2.3-0.8-3.4
	c-0.3-1.3-0.6-2.6-0.9-4c-0.3-1.1-0.5-2.2-0.8-3.3c-0.3-1.2-0.6-2.4-0.9-3.6c0-0.1,0-0.1,0-0.2c-1.2-4.6-2.4-9.3-3.8-14.1
	c-0.5-1.6-0.9-3.2-1.4-4.8c-0.3-1-0.6-2.1-1-3.2c0,0,0-0.1,0-0.1c-0.6-2.1-1.3-4.3-2-6.4v0c-6.2-19.3-14.1-39.5-23.8-60.6
	c-5.5,75.8-29.4,140.6-43.2,181c4,9.1,6,21.5,6.1,35.9c0.5-0.1,1.1-0.1,1.6-0.2c-0.5,0.1-1.1,0.2-1.6,0.2
	c0.6,63.1-33.1,164.5-73.5,193c-9.5,7.2-4.3,15.3,5.8,8.8c0,0,143.2-66.5,148-233.9c0.1-2.9,0.1-5.8,0.1-8.8
	C1112.8,1530.9,1112.7,1529.9,1112.7,1528.8z"/>
<path style="fill:none;stroke:#000000;stroke-width:8;stroke-miterlimit:10;" d="M1032.2,1572.8c0.5-0.1,1.1-0.1,1.6-0.2
	C1033.3,1572.7,1032.8,1572.7,1032.2,1572.8L1032.2,1572.8z"/>
<path style="fill:none;stroke:#000000;stroke-width:8;stroke-miterlimit:10;" d="M1093.2,1416.5L1093.2,1416.5
	c-6.2-19.3-14.1-39.5-23.8-60.6c-5.5,75.8-29.4,140.6-43.2,181c0-0.1,0-0.1-0.1-0.2c13.9-40.4,37.7-105.3,43.2-181l0.6-55.2
	c0,0.8,0.1,1.7,0.2,2.7c0,0.1,0,0.1,0,0.2c1.8,21.7,15.6,82.8,23.2,112.1c0.7,2.8,1.4,5.4,2,7.6
	C1094.5,1420.8,1093.9,1418.6,1093.2,1416.5z"/>
</svg>
