<?xml version="1.0" encoding="utf-8"?>
<!-- Generator: Adobe Illustrator 22.1.0, SVG Export Plug-In . SVG Version: 6.00 Build 0)  -->
<svg version="1.1" id="Layer_1" xmlns="http://www.w3.org/2000/svg" xmlns:xlink="http://www.w3.org/1999/xlink" x="0px" y="0px"
	 viewBox="0 0 512 512" style="enable-background:new 0 0 512 512;" xml:space="preserve">
<g transform="translate(249.33 654.37)">
	<g transform="translate(937.5 -14.764)">
		<path style="fill:none;stroke:#000000;stroke-miterlimit:10;" d="M-947.7-621.9c-5,0-8.8,5.5-7.4,10.2c0.1,1.9,0.6,4.3-1.1,5.7
			c-0.8,1.1-1.6,2.2-2.1,3.4c-3.3,0.2-5.7,3.6-5.3,6.8c-0.1,1.4,0.5,2.8,0.9,4c-1.8,4.8-0.6,9.9-0.9,14.9c0.1,8.8-0.3,17.5,0.3,26.3
			c1.3,6,7.6,10.2,13.6,9.3c4.7,0,10,0.7,13.9-2.6c3.7-2.9,5.1-7.9,4.5-12.4c-0.1-11.2,0.3-22.4-0.3-33.5c-0.3-1-1.1-2.1-0.2-3.1
			c1.3-3.4,0.2-8.3-3.7-9.3c-0.8,0-1.3-0.4-1.5-1.2c-1.2-2-3.5-3.7-2.9-6.3c0.3-3,0.8-6.5-1.4-9C-942.9-620.7-945.3-622-947.7-621.9
			L-947.7-621.9z"/>
		<g transform="matrix(.25976 0 0 .25976 -248.74 -522.93)">
			<path style="fill:none;stroke:#000000;stroke-miterlimit:10;" d="M-2705.7-284.3h31.2c20.5,0,37.1,16.6,37.1,37.1v129.8
				c0,20.5-16.6,37.1-37.1,37.1h-31.2c-20.5,0-37.1-16.6-37.1-37.1v-129.8C-2742.9-267.7-2726.2-284.3-2705.7-284.3z"/>
			<path style="fill:none;stroke:#000000;stroke-miterlimit:10;" d="M-2690.1-371.4c-11.5,0-20.8,9.9-20.8,22c0,2.4,0.4,4.7,1.1,7
				v19.5l-13,18.4h-0.1v7.3h65.6v-7.3h-0.1l-13-18.4v-19.5c0.7-2.3,1.1-4.6,1.1-7C-2669.3-361.5-2678.6-371.4-2690.1-371.4
				L-2690.1-371.4z"/>
			<path style="fill:none;stroke:#000000;stroke-miterlimit:10;" d="M-2707.5-225.9h34.7c1.3,0,2.3,1,2.3,2.3v0c0,1.3-1,2.3-2.3,2.3
				h-34.7c-1.3,0-2.3-1-2.3-2.3v0C-2709.8-224.9-2708.7-225.9-2707.5-225.9z"/>
			<path style="fill:none;stroke:#000000;stroke-miterlimit:10;" d="M-2707.5-212.6h34.7c1.3,0,2.3,1,2.3,2.3v0c0,1.3-1,2.3-2.3,2.3
				h-34.7c-1.3,0-2.3-1-2.3-2.3v0C-2709.8-211.6-2708.7-212.6-2707.5-212.6z"/>
			<path style="fill:none;stroke:#000000;stroke-miterlimit:10;" d="M-2707.5-199.3h34.7c1.3,0,2.3,1,2.3,2.3v0c0,1.3-1,2.3-2.3,2.3
				h-34.7c-1.3,0-2.3-1-2.3-2.3v0C-2709.8-198.3-2708.7-199.3-2707.5-199.3z"/>
			<path style="fill:none;stroke:#000000;stroke-miterlimit:10;" d="M-2707.5-186.1h34.7c1.3,0,2.3,1,2.3,2.3v0c0,1.3-1,2.3-2.3,2.3
				h-34.7c-1.3,0-2.3-1-2.3-2.3v0C-2709.8-185-2708.7-186.1-2707.5-186.1z"/>
			<path style="fill:none;stroke:#000000;stroke-miterlimit:10;" d="M-2707.5-172.8h34.7c1.3,0,2.3,1,2.3,2.3v0c0,1.3-1,2.3-2.3,2.3
				h-34.7c-1.3,0-2.3-1-2.3-2.3v0C-2709.8-171.8-2708.7-172.8-2707.5-172.8z"/>
			<path style="fill:none;stroke:#000000;stroke-miterlimit:10;" d="M-2707.5-160h34.7c1.3,0,2.3,1,2.3,2.3v0c0,1.3-1,2.3-2.3,2.3
				h-34.7c-1.3,0-2.3-1-2.3-2.3v0C-2709.8-159-2708.7-160-2707.5-160z"/>
			<path style="fill:none;stroke:#000000;stroke-miterlimit:10;" d="M-2707.5-146.8h34.7c1.3,0,2.3,1,2.3,2.3v0c0,1.3-1,2.3-2.3,2.3
				h-34.7c-1.3,0-2.3-1-2.3-2.3v0C-2709.8-145.7-2708.7-146.8-2707.5-146.8z"/>
			<path style="fill:none;stroke:#000000;stroke-miterlimit:10;" d="M-2707.5-133.5h34.7c1.3,0,2.3,1,2.3,2.3v0c0,1.3-1,2.3-2.3,2.3
				h-34.7c-1.3,0-2.3-1-2.3-2.3v0C-2709.8-132.5-2708.7-133.5-2707.5-133.5z"/>
			<path style="fill:none;stroke:#000000;stroke-miterlimit:10;" d="M-2695.5-284.3c20.6,0,37.1,16.5,37.1,37.1v129.7
				c0,20.6-16.6,37.1-37.1,37.1h20.5c20.6,0,37.1-16.5,37.1-37.1v-129.7c0-20.6-16.6-37.1-37.1-37.1
				C-2675.1-284.3-2695.5-284.3-2695.5-284.3z"/>
			<path style="fill:none;stroke:#000000;stroke-miterlimit:10;" d="M-2729.9-297h79.5c6.9,0,12.6,5.6,12.6,12.6v7
				c0,6.9-5.6,12.6-12.6,12.6h-79.5c-6.9,0-12.6-5.6-12.6-12.6v-7C-2742.5-291.3-2736.8-297-2729.9-297z"/>
			<path style="fill:none;stroke:#000000;stroke-miterlimit:10;" d="M-2668.3-297c7,0,12.6,5.5,12.6,12.4v6.9
				c0,6.9-5.6,12.4-12.6,12.4h17.4c7,0,12.6-5.5,12.6-12.4v-6.9c0-6.9-5.6-12.4-12.6-12.4H-2668.3z"/>
			<path style="fill:none;stroke:#000000;stroke-miterlimit:10;" d="M-2690.7-371.4c-0.9,0-1.8,0.1-2.7,0.2
				c8.8,1.4,15.4,10.7,15.4,21.7c0,2.4-0.3,4.7-0.9,7v19.4l11.1,18.3h0.1v7.2h9.9v-7.2h-0.1l-13-18.3v-19.4c0.7-2.2,1.1-4.6,1.1-7
				C-2669.9-361.6-2679.2-371.4-2690.7-371.4L-2690.7-371.4z"/>
			
				<ellipse transform="matrix(0.3787 -0.9255 0.9255 0.3787 -1349.4553 -2722.4646)" style="fill:none;stroke:#000000;stroke-miterlimit:10;" cx="-2702.4" cy="-356.2" rx="9.5" ry="6.1"/>
		</g>
	</g>
	<g transform="translate(1074.1 1581.6)">
		<path style="fill:none;stroke:#000000;stroke-miterlimit:10;" d="M-958.6-1779.6c-3.9-0.1-7.2,3.9-6.5,7.7
			c-0.3,1.1-1.1,2.5-2.1,2.9c-2.6-1.1-5.7-3.5-8.6-1.8c-2.7,1.7-3,6.2-0.1,7.8c0.8,0.6,2.1,0.8,2.7,1.3c-5.3,0.2-10.3,5.3-9.4,10.8
			c0.9,7,7.8,11.9,14.6,12.4c5,0.5,10.7-2.3,12-7.5c0.9-3-0.3-6.4-1.7-8.7c2,1.3,4.8,2.2,6.9,0.5c2.5-1.9,2.2-6.2-0.6-7.7
			c-1.6-0.7-3.2-1.3-4.8-2.2c-0.1-1.7,0.6-3.5,2.2-4.3c3.3-3,2.4-9.1-1.8-10.8C-956.7-1779.5-957.7-1779.7-958.6-1779.6
			L-958.6-1779.6z M-971.4-1754.9c1.7,2.3,4.6,3.5,7.4,3.5c1.7,1.9,1.1,5.5-1.6,6c-4.2,1.3-9.5-1.7-9.8-6.2
			C-975.4-1753.6-973.3-1754.9-971.4-1754.9L-971.4-1754.9z"/>
		<g transform="matrix(.62865 0 0 .62865 -128.06 -742.33)">
			<path style="fill:none;stroke:#000000;stroke-miterlimit:10;" d="M-1332.1-1615.9c-9.3-4.3-19.5-2-22.8,5.1c0,0,0,0,0,0
				c-3.3,7.1,1.5,16.4,10.8,20.7c0,0,0,0,0,0c9.3,4.3,19.5,2,22.8-5.1c0,0,0,0,0,0C-1318-1602.3-1322.8-1611.6-1332.1-1615.9
				C-1332.1-1615.9-1332.1-1615.9-1332.1-1615.9L-1332.1-1615.9z M-1333.6-1612.7c7,3.2,10.7,10.2,8.2,15.6c0,0,0,0,0,0
				c-2.5,5.4-10.2,7.1-17.2,3.9c-7-3.2-10.7-10.2-8.2-15.6C-1348.3-1614.2-1340.6-1615.9-1333.6-1612.7L-1333.6-1612.7z"/>
			<path style="fill:none;stroke:#000000;stroke-miterlimit:10;" d="M-1318.2-1645.9c-3.5-1.6-7.6-0.1-9.3,3.4
				c-0.7,1.6-0.8,3.4-0.3,5c-1.5,3.7-3.3,6.9-6.9,8.6c-1.5,0.7,2.4,3.8,4.2,4.6l4,1.9c1.8,0.8,6.4,1.6,5.9,0.1
				c-1.1-3.8,0.1-7.3,1.9-10.7c1.7-0.7,3-1.9,3.8-3.6C-1313.2-1640.1-1314.7-1644.2-1318.2-1645.9L-1318.2-1645.9z"/>
			<path style="fill:none;stroke:#000000;stroke-miterlimit:10;" d="M-1339.7-1623.8c-2.5,5.4-0.3,11.6,4.7,14
				c5.1,2.4,11.2-0.1,13.7-5.4L-1339.7-1623.8z"/>
			<path style="fill:none;stroke:#000000;stroke-miterlimit:10;" d="M-1318.2-1645.9c-0.2-0.1-0.5-0.2-0.7-0.3
				c2.5,1.6,3.3,5.2,1.8,8.5c-0.8,1.6-2,3-3.5,3.7c-1.8,3.4-3.1,6.9-2.3,10.5c0.3,1.5-3.6,1-5.1,0.3l1.6,0.7
				c1.8,0.8,6.4,1.6,5.9,0.1c-1.1-3.8,0.1-7.3,1.9-10.7c1.7-0.7,3-1.9,3.8-3.6C-1313.2-1640.1-1314.7-1644.2-1318.2-1645.9
				L-1318.2-1645.9z"/>
			
				<ellipse transform="matrix(0.7723 -0.6353 0.6353 0.7723 742.8992 -1215.3827)" style="fill:none;stroke:#000000;stroke-miterlimit:10;" cx="-1323.9" cy="-1644" rx="2.3" ry="1.3"/>
			<path style="fill:none;stroke:#000000;stroke-miterlimit:10;" d="M-1325.6-1616.7c-2.2,4.6-6.6,7.3-10.4,6.3
				c0.4,0.2,0.8,0.5,1.2,0.6c5.1,2.4,11.1,0.2,13.5-4.9L-1325.6-1616.7L-1325.6-1616.7z"/>
			<path style="fill:none;stroke:#000000;stroke-miterlimit:10;" d="M-1343.2-1633.1l31.5,14.6c1.8,0.8,2.6,2.9,1.7,4.7l-0.2,0.4
				c-0.8,1.8-2.9,2.6-4.7,1.7l-31.5-14.6c-1.8-0.8-2.6-2.9-1.7-4.7l0.2-0.4C-1347.1-1633.2-1345-1634-1343.2-1633.1z"/>
			<path style="fill:none;stroke:#000000;stroke-miterlimit:10;" d="M-1323.3-1623.9c1.7,0.8,2.4,2.8,1.5,4.6l-0.2,0.4
				c-0.8,1.8-2.8,2.6-4.5,1.8l11.8,5.5c1.7,0.8,3.7,0,4.5-1.8l0.2-0.4c0.8-1.8,0.1-3.9-1.5-4.6L-1323.3-1623.9z"/>
		</g>
	</g>
	<g transform="translate(204.53 -133.99)">
		<path style="fill:none;stroke:#000000;stroke-miterlimit:10;" d="M-216.6-152c-7.6,0-14.6,6.6-14.9,14.3
			c-0.5,6.8,4.1,13.5,10.6,15.4c1.6,0.1,0.4,2.3,0.8,3.4c0,10.6,0.1,21.3-0.1,31.8c-4.2,2.3-5.3,8.7-1.8,12
			c2.9,3.2,8.4,3.3,11.2,0.1c3.3-3.1,2.7-8.9-0.9-11.5c-1.6-0.6-0.6-2.5-0.9-3.8c0-10.6,0-21.2,0-31.8c7.3-1.8,12.6-9.6,11.2-17.1
			c-1-6.7-6.9-12.3-13.6-12.8C-215.4-152-216-152-216.6-152L-216.6-152z M-216.2-80.8c0.8,0.1,0.2,1.4-0.4,0.7
			C-216.8-80.3-216.5-80.8-216.2-80.8z"/>
		<g transform="matrix(.2424 0 0 .2424 29.507 911.19)">
			<circle style="fill:none;stroke:#000000;stroke-miterlimit:10;" cx="-1013.8" cy="-4323.3" r="55.4"/>
			<path style="fill:none;stroke:#000000;stroke-miterlimit:10;" d="M-1014.3-4297.8c-4.3,0-7.7,3.4-7.7,7.7v176.7
				c-9.8,3.5-16.3,12.7-16.3,23c0,13.5,11,24.5,24.5,24.5c13.5,0,24.5-11,24.5-24.5l0,0c0-10.4-6.5-19.6-16.3-23v-176.7
				c0-4.3-3.4-7.7-7.7-7.7L-1014.3-4297.8L-1014.3-4297.8z M-1013.8-4099.7c5.1,0,9.3,4.2,9.3,9.3c0,0,0,0,0,0
				c0,5.1-4.2,9.3-9.3,9.3c-5.1,0-9.3-4.2-9.3-9.3C-1023.2-4095.5-1019-4099.7-1013.8-4099.7L-1013.8-4099.7z"/>
			<path style="fill:none;stroke:#000000;stroke-miterlimit:10;" d="M-1005.7-4268.6c-2.1,0.3-4.3,0.5-6.4,0.6v153.2
				c2.2,0.2,4.4,0.6,6.4,1.4V-4268.6L-1005.7-4268.6z M-1012.1-4114.3v0.1c0.3,0,0.7,0.1,1,0.1
				C-1011.5-4114.2-1011.8-4114.3-1012.1-4114.3z"/>
			<path style="fill:none;stroke:#000000;stroke-miterlimit:10;" d="M-1063.8-4347c-3.6,7.4-5.4,15.5-5.4,23.8
				c0,8.2,1.9,16.3,5.4,23.8h99.9c3.6-7.4,5.4-15.5,5.4-23.8c0-8.2-1.9-16.3-5.4-23.8H-1063.8L-1063.8-4347z"/>
			<path style="fill:none;stroke:#000000;stroke-miterlimit:10;" d="M-1065.8-4342.2c-2.2,6.1-3.4,12.5-3.4,19
				c0,6.5,1.2,12.9,3.4,19h103.9c2.2-6.1,3.4-12.5,3.4-19c0-6.5-1.2-12.9-3.4-19H-1065.8L-1065.8-4342.2z"/>
			<g transform="matrix(.65158 0 0 .65158 726.52 13.008)">
				<path style="fill:none;stroke:#000000;stroke-miterlimit:10;" d="M-2727.5-6682l-2.2,3.8l-2.2,3.8h8.8l-2.2-3.8L-2727.5-6682z
					 M-2740.6-6678.5v8.8l3.8-2.2l3.8-2.2l-3.8-2.2L-2740.6-6678.5z M-2714.3-6678.5l-3.8,2.2l-3.8,2.2l3.8,2.2l3.8,2.2V-6678.5z
					 M-2750.2-6668.9l2.2,3.8l2.2,3.8l2.2-3.8l2.2-3.8H-2750.2z M-2713.5-6668.9l2.2,3.8l2.2,3.8l2.2-3.8l2.2-3.8H-2713.5z
					 M-2746.1-6660.1l-3.8,2.2l-3.8,2.2l3.8,2.2l3.8,2.2V-6660.1z M-2708.8-6660.1v8.8l3.8-2.2l3.8-2.2l-3.8-2.2L-2708.8-6660.1z
					 M-2745.8-6650.2l-2.2,3.8l-2.2,3.8h8.8l-2.2-3.8L-2745.8-6650.2z M-2709.1-6650.2l-2.2,3.8l-2.2,3.8h8.8l-2.2-3.8
					L-2709.1-6650.2z M-2740.6-6641.8v8.8l3.8-2.2l3.8-2.2l-3.8-2.2L-2740.6-6641.8z M-2714.3-6641.8l-3.8,2.2l-3.8,2.2l3.8,2.2
					l3.8,2.2C-2714.3-6632.9-2714.3-6641.8-2714.3-6641.8z M-2731.9-6637.1l2.2,3.8l2.2,3.8l2.2-3.8l2.2-3.8H-2731.9z"/>
				<circle style="fill:none;stroke:#000000;stroke-miterlimit:10;" cx="-2727.5" cy="-6655.7" r="16.5"/>
			</g>
			<g transform="matrix(.65158 0 0 .65158 867.9 13.008)">
				<path style="fill:none;stroke:#000000;stroke-miterlimit:10;" d="M-2886.8-6682l-2.2,3.8l-2.2,3.8h8.8l-2.2-3.8L-2886.8-6682z
					 M-2900-6678.5v8.8l3.8-2.2l3.8-2.2l-3.8-2.2L-2900-6678.5z M-2873.7-6678.5l-3.8,2.2l-3.8,2.2l3.8,2.2l3.8,2.2V-6678.5z
					 M-2909.6-6668.9l2.2,3.8l2.2,3.8l2.2-3.8l2.2-3.8H-2909.6z M-2872.9-6668.9l2.2,3.8l2.2,3.8l2.2-3.8l2.2-3.8H-2872.9z
					 M-2905.5-6660.1l-3.8,2.2l-3.8,2.2l3.8,2.2l3.8,2.2V-6660.1z M-2868.2-6660.1v8.8l3.8-2.2l3.8-2.2l-3.8-2.2L-2868.2-6660.1z
					 M-2905.2-6650.2l-2.2,3.8l-2.2,3.8h8.8l-2.2-3.8L-2905.2-6650.2z M-2868.5-6650.2l-2.2,3.8l-2.2,3.8h8.8l-2.2-3.8
					C-2866.3-6646.4-2868.5-6650.2-2868.5-6650.2z M-2900-6641.8v8.8l3.8-2.2l3.8-2.2l-3.8-2.2L-2900-6641.8z M-2873.7-6641.8
					l-3.8,2.2l-3.8,2.2l3.8,2.2l3.8,2.2C-2873.7-6632.9-2873.7-6641.8-2873.7-6641.8z M-2891.3-6637.1l2.2,3.8l2.2,3.8l2.2-3.8
					l2.2-3.8H-2891.3z"/>
				<circle style="fill:none;stroke:#000000;stroke-miterlimit:10;" cx="-2886.9" cy="-6655.7" r="16.5"/>
			</g>
			<g transform="matrix(.65158 0 0 .65158 1005.2 13.008)">
				<path style="fill:none;stroke:#000000;stroke-miterlimit:10;" d="M-3041.6-6682l-2.2,3.8l-2.2,3.8h8.8l-2.2-3.8L-3041.6-6682z
					 M-3054.8-6678.5v8.8l3.8-2.2l3.8-2.2l-3.8-2.2L-3054.8-6678.5z M-3028.5-6678.5l-3.8,2.2l-3.8,2.2l3.8,2.2l3.8,2.2V-6678.5z
					 M-3064.4-6668.9l2.2,3.8l2.2,3.8l2.2-3.8l2.2-3.8H-3064.4z M-3027.7-6668.9l2.2,3.8l2.2,3.8l2.2-3.8l2.2-3.8H-3027.7z
					 M-3060.2-6660.1l-3.8,2.2l-3.8,2.2l3.8,2.2l3.8,2.2V-6660.1z M-3023-6660.1v8.8l3.8-2.2l3.8-2.2l-3.8-2.2L-3023-6660.1z
					 M-3060-6650.2l-2.2,3.8l-2.2,3.8h8.8l-2.2-3.8L-3060-6650.2z M-3023.3-6650.2l-2.2,3.8l-2.2,3.8h8.8l-2.2-3.8
					C-3021-6646.4-3023.3-6650.2-3023.3-6650.2z M-3054.8-6641.8v8.8l3.8-2.2l3.8-2.2l-3.8-2.2L-3054.8-6641.8z M-3028.5-6641.8
					l-3.8,2.2l-3.8,2.2l3.8,2.2l3.8,2.2C-3028.5-6632.9-3028.5-6641.8-3028.5-6641.8z M-3046-6637.1l2.2,3.8l2.2,3.8l2.2-3.8
					l2.2-3.8H-3046z"/>
				<circle style="fill:none;stroke:#000000;stroke-miterlimit:10;" cx="-3041.6" cy="-6655.7" r="16.5"/>
			</g>
			<path style="fill:none;stroke:#000000;stroke-miterlimit:10;" d="M-1013.8-4378.6c-1.6,0-3.3,0.1-4.9,0.3
				c23.8,2.6,42,26.5,42,55.1c0,28.7-18.3,52.6-42.2,55.1c1.7,0.2,3.4,0.2,5.1,0.3c30.6,0,55.4-24.8,55.4-55.4
				S-983.3-4378.6-1013.8-4378.6L-1013.8-4378.6z"/>
			<path style="fill:none;stroke:#000000;stroke-miterlimit:10;" d="M-1013.8-4114.8c-0.4,0-0.8,0-1.1,0.1
				c11.5,0.8,20.4,11.5,20.4,24.4c0,13.1-9.2,23.8-20.9,24.4c0.5,0,1.1,0.1,1.6,0.1c13.5,0,24.5-11,24.5-24.5c0,0,0,0,0,0
				C-989.4-4103.9-1000.3-4114.8-1013.8-4114.8L-1013.8-4114.8L-1013.8-4114.8z M-1016.4-4099.7c-4.6,0-8.3,4.2-8.3,9.3c0,0,0,0,0,0
				c0,5.1,3.7,9.3,8.3,9.3c0.4,0,0.8,0,1.2-0.1c-4.6-0.7-8-4.6-8-9.2c0-4.6,3.4-8.5,7.9-9.2
				C-1015.6-4099.7-1016-4099.7-1016.4-4099.7L-1016.4-4099.7z"/>
			
				<ellipse transform="matrix(0.7396 -0.6731 0.6731 0.7396 2657.8591 -1838.9998)" style="fill:none;stroke:#000000;stroke-miterlimit:10;" cx="-1047.5" cy="-4354" rx="13.1" ry="8"/>
		</g>
	</g>
	<g transform="matrix(.86338 -.50455 .50455 .86338 415.44 1963.4)">
		<path style="fill:none;stroke:#000000;stroke-miterlimit:10;" d="M887-2118c-5.1,0.4-10.3,0-15.4,0.5c-2.7,0.9-4.1,3.6-6.3,5.2
			c-7.6,7.1-15,14.5-22.8,21.5c-2.2,1-3.4,3.3-5.3,4.7c-1.7,1.7-1.5,4.8,0.6,6.2c7.9,7.8,15.5,15.9,23.7,23.4
			c2.5,1.2,4.8-1.1,6.3-2.9c1.2-1.6,1.5-0.9,1.3,0.9c-0.1,18.4,0.2,36.9-0.1,55.3c-0.3,5.1,2,9.9,3.9,14.6
			c4.9,10.5,12.3,19.8,20.9,27.6c1.7,1.6,4.1,2.4,6.4,1.9c9.4-0.2,18.7,0.2,28.1-0.2c3.2-1.4,5.3-4.5,7.8-6.7
			c8.7-9.1,16.2-19.9,19.6-32.1c1.1-5.6,0.1-11.2,0.4-16.9c0-15.2,0-30.4,0-45.6c1.8,1.6,3.5,4.6,6.3,4.2c2.9-0.6,4.2-3.6,6.4-5.3
			c6.6-6.7,13.4-13.1,19.7-20c1.2-2.4-0.8-4.7-2.6-6.1c-2-2.4-4.9-3.6-6.9-6c-8.2-7.8-16.2-15.9-24.7-23.5
			c-3.5-1.3-7.3-0.2-10.8-0.6c-2.7,0-5.6-0.7-8.1,0.5c-2.2,1.5-3.6,3.9-5.9,5.4c-5.8,4.6-13.7,6.8-21,4.7
			c-7.3-1.7-13.4-6.3-19.5-10.5C888.4-2118,887.7-2118,887-2118L887-2118z M912.5-2094.3c0.6,0.9,1.2,1.8,1.2,2.8
			c-0.8-0.1-2,0.2-2.6-0.3c0.1-1,0.7-1.9,1.3-2.7L912.5-2094.3L912.5-2094.3z"/>
		<path style="fill:none;stroke:#000000;stroke-miterlimit:10;" d="M873.9-2000.1c0.3,0.1,0.7,0.2,1,0.3c0.8,0.3,1.6,0.7,2.4,1
			c0.8,0.4,1.6,0.8,2.4,1.3c0.8,0.5,1.6,1,2.3,1.5c0.8,0.5,1.5,1.1,2.2,1.7c0.7,0.6,1.4,1.2,2.1,1.9c0.7,0.7,1.4,1.4,2,2.1
			c0.6,0.7,1.3,1.5,1.9,2.2c0.6,0.8,1.2,1.5,1.7,2.3c0.5,0.8,1,1.6,1.5,2.4c0.4,0.6,0.7,1.3,1,1.9c0.4,0.8,0.8,1.7,1.1,2.6
			c0.3,0.9,0.6,1.7,0.9,2.6c0.3,0.9,0.5,1.7,0.7,2.6s0.3,1.7,0.4,2.6c0.1,0.9,0.2,1.7,0.2,2.6c0,0.8,0,1.7,0,2.5
			c-0.1,0.8-0.2,1.6-0.3,2.4c0,0.2-0.1,0.3-0.1,0.5l0.3,0.4H927l0.2-0.3c-0.1-0.7-0.3-1.4-0.3-2.1c-0.1-0.8-0.1-1.6-0.1-2.4
			c0-0.8,0-1.7,0.1-2.5c0.1-0.9,0.2-1.7,0.3-2.6c0.2-0.9,0.3-1.7,0.6-2.6c0.2-0.9,0.5-1.7,0.8-2.6c0.3-0.9,0.7-1.7,1-2.6
			c0.2-0.3,0.3-0.7,0.5-1c0.4-0.8,0.9-1.7,1.4-2.5c0.5-0.8,1-1.6,1.5-2.4c0.5-0.8,1.1-1.6,1.7-2.3c0.6-0.8,1.2-1.5,1.9-2.2
			c0.7-0.7,1.3-1.4,2-2c0.7-0.6,1.4-1.3,2.2-1.9c0.7-0.6,1.5-1.1,2.3-1.7c0.8-0.5,1.6-1,2.4-1.5c0.8-0.4,1.6-0.9,2.4-1.2
			s1.6-0.7,2.4-1c0.1,0,0.2-0.1,0.3-0.1L873.9-2000.1L873.9-2000.1z"/>
		<path style="fill:none;stroke:#000000;stroke-miterlimit:10;" d="M887.7-2114.2c0,0.2,0,0.5,0,0.7c0,0.7,0,1.4,0.1,2.1
			c0.1,1,0.2,1.9,0.3,2.9c0.1,1,0.3,1.9,0.5,2.8c0.2,0.9,0.5,1.9,0.8,2.8s0.6,1.8,1,2.7c0.4,0.9,0.8,1.7,1.2,2.5
			c0.4,0.8,0.9,1.6,1.4,2.4c0.5,0.8,1.1,1.5,1.6,2.2c0.6,0.7,1.2,1.4,1.8,2c0.6,0.6,1.3,1.2,2,1.8c0.7,0.5,1.4,1.1,2.1,1.5
			c0.7,0.5,1.5,0.9,2.2,1.3c0.8,0.4,1.5,0.7,2.3,1c0.8,0.3,1.6,0.5,2.4,0.7s1.6,0.3,2.5,0.4c0.8,0.1,1.7,0.1,2.5,0.1
			c0.6,0,1.2,0,1.8-0.1c0.8-0.1,1.6-0.2,2.5-0.3c0.8-0.2,1.6-0.4,2.4-0.6c0.8-0.3,1.6-0.6,2.4-0.9c0.8-0.4,1.5-0.7,2.3-1.2
			c0.7-0.4,1.5-0.9,2.2-1.4c0.7-0.5,1.4-1.1,2-1.7c0.6-0.6,1.3-1.2,1.9-1.9c0.6-0.7,1.2-1.4,1.7-2.1c0.5-0.7,1-1.5,1.5-2.3
			c0.5-0.8,0.9-1.6,1.3-2.5s0.8-1.7,1.1-2.6c0.3-0.9,0.6-1.8,0.9-2.7c0.2-0.9,0.4-1.9,0.6-2.8c0.2-0.9,0.3-1.9,0.4-2.9
			s0.1-1.9,0.1-2.9c0-0.2,0-0.4,0-0.6c-4.5,8.6-14.1,14-24.7,14c-10.6,0-20.2-5.5-24.7-14.1L887.7-2114.2L887.7-2114.2z M912.4-2100
			c0,0,5.2,5.4,4.8,9c-0.3,2.7-2.6,5.5-4.8,5.5c-2.2,0-4.6-2.8-4.8-5.5C907.2-2094.6,912.4-2100,912.4-2100z"/>
		<path style="fill:none;stroke:#000000;stroke-miterlimit:10;" d="M912.6-2103v3.7c9,0.8,17.9-2.3,24-11.2c0.3-1.8-0.3-0.1,0.6-3.9
			C929.4-2106,921.2-2102.4,912.6-2103L912.6-2103z"/>
		<path style="fill:none;stroke:#000000;stroke-miterlimit:10;" d="M887.8-2114.5c0,0-0.2,0.9,0,3.7c6.7,6.2,16.8,11.1,25.8,11.6
			c0.1-1.2,0-2.5-0.1-3.7C905.6-2103.2,896.3-2107.7,887.8-2114.5L887.8-2114.5z"/>
		<path style="fill:none;stroke:#000000;stroke-miterlimit:10;" d="M952.5-2114.4l-15.2,0.1c0,0.3,0,0.5,0,0.8c0,16-11.1,29-24.8,29
			c-13.7,0-24.8-13-24.8-29c0-0.3,0-0.5,0-0.8l-15.2,0l-29.1,27.6l22.5,23.3l6.5-6.3v69.1c9,2.5,17.5,9.9,22.1,19.2
			c3.1,6.4,4.1,13.1,2.8,18.8h29.8c-1.3-5.7-0.3-12.4,2.8-18.8c4.6-9.5,13.3-16.9,22.4-19.3v-68.8l6.4,6.2l22.5-23.3L952.5-2114.4z"
			/>
		<path style="fill:none;stroke:#000000;stroke-miterlimit:10;" d="M950.8-2000.1l1.4-0.5c-5.7,16.1-14.7,27.3-25,38
			c0,0.6-0.4-2.9-0.4-3.3c-0.1-0.8-0.1-1.6,0-2.5c0-0.8,0.1-1.7,0.2-2.6c0.1-0.9,0.3-1.7,0.4-2.6c0.2-0.9,0.4-1.7,0.7-2.6
			c0.3-0.9,0.6-1.7,0.9-2.6c0.3-0.9,0.7-1.7,1.1-2.6c0.3-0.6,0.6-1.3,1-1.9c0.5-0.8,1-1.6,1.5-2.4c0.5-0.8,1.1-1.6,1.7-2.3
			c0.6-0.8,1.2-1.5,1.9-2.2c0.6-0.7,1.3-1.4,2-2.1c0.7-0.7,1.4-1.3,2.1-1.9c0.7-0.6,1.5-1.2,2.2-1.7s1.5-1,2.3-1.5
			c0.8-0.5,1.6-0.9,2.4-1.3c0.8-0.4,1.6-0.7,2.4-1C950.1-1999.9,950.5-2000,950.8-2000.1L950.8-2000.1z"/>
		<path style="fill:none;stroke:#000000;stroke-miterlimit:10;" d="M873.9-2000.1l-1.4-0.5c5.7,16.1,14.7,27.3,25,38
			c0,0.6,0.4-2.9,0.4-3.3c0.1-0.8,0.1-1.6,0-2.5c0-0.8-0.1-1.7-0.2-2.6c-0.1-0.9-0.3-1.7-0.4-2.6s-0.4-1.7-0.7-2.6
			c-0.3-0.9-0.6-1.7-0.9-2.6c-0.3-0.9-0.7-1.7-1.1-2.6c-0.3-0.6-0.6-1.3-1-1.9c-0.5-0.8-1-1.6-1.5-2.4c-0.5-0.8-1.1-1.6-1.7-2.3
			s-1.2-1.5-1.9-2.2c-0.6-0.7-1.3-1.4-2-2.1c-0.7-0.7-1.4-1.3-2.1-1.9c-0.7-0.6-1.5-1.2-2.2-1.7c-0.8-0.5-1.5-1-2.3-1.5
			c-0.8-0.5-1.6-0.9-2.4-1.3c-0.8-0.4-1.6-0.7-2.4-1C874.6-1999.9,874.3-2000,873.9-2000.1L873.9-2000.1z"/>
		<path style="fill:none;stroke:#000000;stroke-miterlimit:10;" d="M872.5-2114.2L872.5-2114.2L872.5-2114.2L872.5-2114.2z"/>
		<path style="fill:none;stroke:#000000;stroke-miterlimit:10;" d="M949.9-2001.1c-5.8,17.5-9.1,23-23,34.8c0,0-0.4,0.4,0.4,3.7
			c8.2-6.5,22.4-23.4,24.9-36.9C952.6-2001.8,951.8-1999.2,949.9-2001.1L949.9-2001.1z"/>
		<path style="fill:none;stroke:#000000;stroke-miterlimit:10;" d="M875-2001c5.8,17.5,9.1,23,23,34.8c0,0,0,0.4-0.7,3.7
			c-8.2-6.5-22-23.4-24.6-36.9C872.3-2001.7,873.1-1999.1,875-2001L875-2001z"/>
		<path style="fill:none;stroke:#000000;stroke-miterlimit:10;" d="M923-1968.1l3.8-1.2c0.4,1.8,0.5,4.2,0.5,6.7h-3.8
			C923.7-1964.3,923.5-1966.1,923-1968.1L923-1968.1z"/>
		<path style="fill:none;stroke:#000000;stroke-miterlimit:10;" d="M901.5-1968.1l-3.8-1.2c-0.4,1.8-0.5,4.2-0.5,6.7h3.8
			C900.9-1964.3,901-1966.1,901.5-1968.1L901.5-1968.1z"/>
		<path style="fill:none;stroke:#000000;stroke-miterlimit:10;" d="M872.3-2003.6c-0.2,3.7,0.8,5.9,0.8,5.9
			c8.8,9,24.1,18.6,24.5,28.9c10.1,2.8,19.9,2.7,29.3-0.1c0-0.1,0-0.1,0-0.2c6.3-14.7,14.2-20.9,24.6-28.6c0,0,1.4-2.4,0.9-5.9
			c-8.3,6.3-23.5,15.2-26.5,28.5c-10.3,3-16.8,2.8-26.3-0.5C894.6-1989.2,880.7-1997.3,872.3-2003.6L872.3-2003.6z"/>
		
			<rect x="954.6" y="-2076.7" transform="matrix(-0.7071 0.7071 -0.7071 -0.7071 191.9066 -4226.7485)" style="fill:none;stroke:#000000;stroke-miterlimit:10;" width="33.4" height="6.2"/>
		
			<rect x="850.2" y="-2090.4" transform="matrix(-0.7071 0.7071 -0.7071 -0.7071 -9.5592 -4143.3022)" style="fill:none;stroke:#000000;stroke-miterlimit:10;" width="6.2" height="33.4"/>
		<path style="fill:none;stroke:#000000;stroke-miterlimit:10;" d="M887.9-2114.5c11.9,36.3,39.8,34.6,49.3,0h4.2
			c-10.3,37.7-44.4,43-58,0H887.9z"/>
		<g transform="matrix(.45446 0 0 .45446 842.38 -616.37)">
			<circle style="fill:none;stroke:#000000;stroke-miterlimit:10;" cx="136.2" cy="-2979.4" r="3.9"/>
			<circle style="fill:none;stroke:#000000;stroke-miterlimit:10;" cx="153.9" cy="-2978.3" r="3.9"/>
			<circle style="fill:none;stroke:#000000;stroke-miterlimit:10;" cx="171.6" cy="-2979.4" r="3.9"/>
		</g>
		<circle style="fill:none;stroke:#000000;stroke-miterlimit:10;" cx="912.3" cy="-2101.3" r="0.9"/>
		<g transform="matrix(.45446 0 0 .45446 857.08 -603.51)">
			<path style="fill:none;stroke:#000000;stroke-miterlimit:10;" d="M78.5-3186.7c-1.1-2.7,4.8-2.1,7.4-3c4-9.5,23.7-13.6,46.8-2.5
				c4.6-2.8,8.4-1.1,11.9,1c-1.8,0.9-4.1,1.5-4.2,5.1c12.9,17.8,12.2,36.9,10.4,49.7c4.6,4.1,10.7,8.3,11.2,14.8
				c-4-5-10.3-3.2-13.4-8.1c-2.6,1-7.9-2-10,1c-0.1-1.9-1.8-6,7.3-8.6c-3.2-3.4-4.5-17.6-9.7-22.8c-6.6-6.7-10.8-11.5-23.7-16.7
				c-2.8,3.5-3.4,7.3-3.2,11.1c-5.2-2.3-5.1-8-5.4-13.6c-7.6-2.8-10.4-3.3-14.4-4.3C85-3184.3,77.6-3184.2,78.5-3186.7L78.5-3186.7z
				"/>
			
				<ellipse transform="matrix(-0.8682 -0.4962 0.4962 -0.8682 1769.7725 -5910.8892)" style="fill:none;stroke:#000000;stroke-miterlimit:10;" cx="99.9" cy="-3190.5" rx="1" ry="0.9"/>
			<path style="fill:none;stroke:#000000;stroke-miterlimit:10;" d="M78.8-3186.6c3.6,1.7,17-0.1,25.1,2.2c9.9,2.8,20,7.6,27.4,14
				c16.5,13.4,11.1,28.2,16.7,34.1c-6-3.7-4.6-16.6-12-24.5c-12.6-15.3-30.8-19.6-47.5-23.1C84.1-3184.8,78.4-3184.4,78.8-3186.6
				L78.8-3186.6z"/>
			<path style="fill:none;stroke:#000000;stroke-miterlimit:10;" d="M116.9-3180c2.6,5.1,7.2,8.4,14.4,13.3
				c-6.6-9.2-6.2-10.1-7.4-13.8C122.4-3179.7,120.1-3180,116.9-3180L116.9-3180z"/>
			<path style="fill:none;stroke:#000000;stroke-miterlimit:10;" d="M138.8-3129.5c0,0,0.8-1.3,1.5-1.6c2.7-1.2,6,0.4,8.8,0
				c3.9,4.8,9.1,3.4,12.1,7c0.3,0.4,0.5,1.4,0.5,1.4c-2.1-3.4-10.4-3.1-12.9-7.5C147.5-3129,141.8-3131.9,138.8-3129.5L138.8-3129.5
				z"/>
			<path style="fill:none;stroke:#000000;stroke-miterlimit:10;" d="M140.2-3186.3c0.1-2.3,1.1-3.4,2.4-4c0.8-0.4,1.8-0.9,1.8-0.9
				c-1.2-0.7-4.9-2.6-7,2C137.7-3189.1,139.5-3187.6,140.2-3186.3L140.2-3186.3z"/>
			
				<ellipse transform="matrix(-0.8682 -0.4962 0.4962 -0.8682 1769.7216 -5910.9102)" style="fill:none;stroke:#000000;stroke-miterlimit:10;" cx="99.8" cy="-3190.5" rx="0.8" ry="0.7"/>
			
				<ellipse transform="matrix(-0.8682 -0.4962 0.4962 -0.8682 1770.5032 -5911.2637)" style="fill:none;stroke:#000000;stroke-miterlimit:10;" cx="100.2" cy="-3190.8" rx="0.4" ry="0.3"/>
		</g>
	</g>
	<g transform="translate(686.52 -1557.6)">
		<path style="fill:none;stroke:#000000;stroke-miterlimit:10;" d="M-560,905.2c-5.5,0-9.7,5.1-10.5,10.2
			c-5.3-2.3-12.8-0.2-14.7,5.6c-1.8,4.6,0.7,9.8,4.1,12.8c-4.4,3.4-6.4,10.4-2.8,15.1c3,4.1,8.9,5,13.5,3.3
			c0.8,5.6,5.9,10.9,11.8,10c5-0.6,8.7-5.3,9.4-10c5.2,2.1,12.3,0.4,14.6-5.1c2.1-4.7-0.2-10.2-4-13.3c4.4-3.4,6.5-10.4,2.9-15.1
			c-3-4.1-8.9-5-13.5-3.2C-550,910.1-554.4,905.1-560,905.2L-560,905.2z"/>
		<g transform="matrix(.23345 0 0 .23345 -434.7 1270.8)">
			<path style="fill:none;stroke:#000000;stroke-miterlimit:10;" d="M-536.1-1556.1c-20.1,0-36.4,19.7-36.4,44c0,2,0.1,3.9,0.4,5.8
				c-1.6-1.2-3.2-2.2-4.9-3.2c-21-12.2-46.3-7.9-56.3,9.5c0,0,0,0,0,0c-10.1,17.4-1.1,41.4,19.9,53.5c1.7,1,3.4,1.8,5.2,2.6
				c-1.8,0.8-3.5,1.6-5.2,2.6c-21,12.2-30,36.1-19.9,53.5c0,0,0,0,0,0c10.1,17.4,35.3,21.7,56.3,9.5c0,0,0,0,0,0
				c1.7-1,3.3-2.1,4.9-3.2c-0.2,1.9-0.3,3.9-0.4,5.8c0,24.3,16.3,44,36.4,44s36.4-19.7,36.4-44c0-2-0.1-3.9-0.4-5.8
				c1.6,1.2,3.2,2.2,4.9,3.2c21,12.2,46.3,7.9,56.3-9.5c0,0,0,0,0,0c10.1-17.4,1.1-41.4-19.9-53.5c0,0,0,0,0,0
				c-1.7-1-3.4-1.8-5.2-2.6c1.8-0.8,3.5-1.6,5.2-2.6c21-12.2,30-36.1,19.9-53.5c-10.1-17.4-35.3-21.7-56.3-9.5c0,0,0,0,0,0
				c-1.7,1-3.3,2.1-4.9,3.2c0.2-1.9,0.3-3.9,0.4-5.8C-499.7-1536.4-516-1556.1-536.1-1556.1L-536.1-1556.1z M-553-1473.1
				c5.2,3.3,11,5.1,17,5.1c5.9,0,11.7-1.8,17-5.1c-0.3,6.2,1.1,12.1,4.1,17.2c3,5.1,7.4,9.3,12.9,12.1c-5.5,2.9-9.9,7-12.9,12.1
				c-2.9,5.1-4.3,11-4.1,17.2c-5.2-3.3-11-5.1-17-5.1c-5.9,0-11.7,1.8-17,5.1c0.3-6.2-1.1-12.1-4.1-17.2c-3-5.1-7.4-9.3-12.9-12.1
				c5.5-2.9,9.9-7,12.9-12.1C-554.2-1461-552.8-1467-553-1473.1L-553-1473.1z"/>
			<circle style="fill:none;stroke:#000000;stroke-miterlimit:10;" cx="-536.1" cy="-1444.5" r="41.7"/>
		</g>
	</g>
	<g transform="translate(383.86 -33.218)">
		<path style="fill:none;stroke:#000000;stroke-miterlimit:10;" d="M-549.7-556.7c-4.6,0.3-7.8,4.1-11.6,6.2
			c-4.9,3.3-10.1,6.2-14.5,10.1c-2.6,3.4-2,8.4,0.8,11.5c1.5,2.2,3.9,4.1,6.6,4.2c2,3.1,4.8,6.6,3.7,10.6
			c-1.7,4.9-6.9,7.1-10.7,10.2c-3.9,2.8-7.4,7.3-6.7,12.4c0.6,6.3,4.7,12.5,10.9,14.4c6.1,1.9,13,0.9,18.3-2.4
			c3.9-2.5,5.9-6.9,9.2-10.1c2.2-2.3,4.6-4.6,6.9-6.5c-1.5,5.3,0.7,11,4.1,15c5,5.3,13.2,6,19.8,3.8c4.3-1.3,8-4.1,10.3-7.9
			c5.3-7,12.4-12.3,18.9-18.1c5.8-6.6,6.3-17.4,0.4-24.1c-4-5.6-7.8-11.3-11.6-17c0.8-4.6-2.3-9.3-6.2-11.5
			c-3.6-1.7-7.8-0.2-10.6,2.2c-6.4,4.4-13.2,8.2-19.2,13.2c-1.5,1.9-2.1,4.5-1.6,6.9c-2.4-3.6-5.1-7.2-7.2-10.9
			c0.6-4.5-2.3-9-6.1-11.2C-547-556.5-548.4-556.8-549.7-556.7L-549.7-556.7z M-526.7-525.7c1,0.6,2.1,0.9,3.2,1
			c2,3,4.7,6.5,3.7,10.4c-0.9,3.1-3.6,5.2-6.1,7C-523-513-523.2-520.3-526.7-525.7L-526.7-525.7z"/>
		<g transform="matrix(.31059 0 0 .31059 -501.44 -3.9972)">
			<path style="fill:none;stroke:#000000;stroke-miterlimit:10;" d="M-228.5-1706.3c0,0,32.6,34.3,34.7,56.2
				c-0.4,46.3-82.4,42.8-49.7,101.1c16.9,30,66.8,21.9,81.8,3.1c20.6-28,41.1-45.3,61.6-61.3c24.4-19,23-56,9.4-69.6l-54.9-80.6
				L-228.5-1706.3z"/>
			<path style="fill:none;stroke:#000000;stroke-miterlimit:10;" d="M-227.7-1726.2l62.9-41.5c8.7-5.7,20.3-3.3,26,5.3l4.4,6.7
				c5.7,8.7,3.3,20.3-5.3,26l-62.9,41.5c-8.7,5.7-20.3,3.3-26-5.3l-4.4-6.7C-238.8-1708.9-236.4-1720.5-227.7-1726.2z"/>
			<path style="fill:none;stroke:#000000;stroke-miterlimit:10;" d="M-91.6-1678.1c-21.6,13.3-28.7,41.1-15.8,62c0,0,0,0,0,0
				c2,3.3,4.5,6.3,7.3,8.9c24.4-19,22.9-56,9.4-69.6L-91.6-1678.1C-91.6-1678.1-91.6-1678.1-91.6-1678.1L-91.6-1678.1z"/>
			<path style="fill:none;stroke:#000000;stroke-miterlimit:10;" d="M-241.2-1595.5c-10.4,10.5-15,23.9-2.3,46.5
				c9.7,17.4,30.5,22,49.3,19.1c4.3-13.7,2.3-28.9-5.5-41.5C-208.9-1586.1-224.6-1595.2-241.2-1595.5L-241.2-1595.5z"/>
			<path style="fill:none;stroke:#000000;stroke-miterlimit:10;" d="M-83.9-1706.3c0,0,32.6,34.3,34.7,56.2
				c-0.4,46.3-82.4,42.8-49.7,101.1c16.9,30,66.8,21.9,81.8,3.1c20.6-28,41.1-45.3,61.6-61.3c24.4-19,23-56,9.4-69.6l-54.9-80.6
				L-83.9-1706.3z"/>
			<path style="fill:none;stroke:#000000;stroke-miterlimit:10;" d="M-83.2-1726.2l62.9-41.5c8.7-5.7,20.3-3.3,26,5.3l4.4,6.7
				c5.7,8.7,3.3,20.3-5.3,26l-62.9,41.5c-8.7,5.7-20.3,3.3-26-5.3l-4.4-6.7C-94.2-1708.9-91.8-1720.5-83.2-1726.2z"/>
			<path style="fill:none;stroke:#000000;stroke-miterlimit:10;" d="M52.9-1678.1c-21.6,13.3-28.7,41.1-15.8,62c0,0,0,0,0,0
				c2,3.3,4.5,6.3,7.3,8.9c24.4-19,22.9-56,9.4-69.6L52.9-1678.1C53-1678.1,52.9-1678.1,52.9-1678.1L52.9-1678.1z"/>
			<path style="fill:none;stroke:#000000;stroke-miterlimit:10;" d="M-96.7-1595.5c-10.4,10.5-15,23.9-2.3,46.5
				c9.7,17.4,30.5,22,49.3,19.1c4.3-13.7,2.3-28.9-5.5-41.5C-64.3-1586.1-80-1595.2-96.7-1595.5L-96.7-1595.5z"/>
		</g>
	</g>
	<g transform="matrix(.26524 0 0 .26524 23.297 1054.1)">
		<path style="fill:none;stroke:#000000;stroke-miterlimit:10;" d="M-511-4735.9c-11.5,0.1-22.1,6.1-30.6,13.5
			c-10.3,7.8-17.3,20.2-17.1,33.3c-0.1,11.5,5,22.6,12.8,30.8c7.3,9.1,13.5,19.5,22.9,26.8c2.5,1.7,5.3,3.1,8.2,3.9
			c15.7,19.5,30.6,39.7,46.8,58.9c13.7,12.7,36.9,13.6,51.3,1.5c13.9-10.9,19.2-31.9,11-47.8c-4.8-9.8-12.7-17.6-18.8-26.5
			c-9.2-12.1-18.5-24.2-27.8-36.2c-0.6-10.1-6.6-18.8-12.9-26.3c-7.3-9.2-13.5-20-23.9-26.3C-495.6-4734.1-503.3-4736.1-511-4735.9
			L-511-4735.9z M-459.9-4653.9c4.3,5.5,8.6,11,12.7,16.5c-13.3,2-25.4,11.2-30.7,23.7c-4.8-6.3-9.8-12.6-14.5-18.9
			c5.4-3.4,10-9.2,9.7-15.9c-0.1-1.5-0.3-2.9-0.7-4.3c4.7,3.1,11,3.2,16,0.6c2.1-1,4.1-2.4,5.7-4.1
			C-461.2-4655.5-460.6-4654.7-459.9-4653.9L-459.9-4653.9z M-441.1-4617.6c11.4-0.1,21.3,11.7,18.8,22.9
			c-1.7,9.6-11.4,17.4-21.3,15.9c-9-1-17.1-8.8-17.3-18.1c-0.6-8.2,4.7-16.9,12.8-19.5C-445.8-4617.2-443.4-4617.6-441.1-4617.6
			L-441.1-4617.6z"/>
		<path style="fill:none;stroke:#000000;stroke-miterlimit:10;" d="M-529.5-4712.4c-14.8,11.4-16.7,33.5-4.3,49.5
			c20.4,27.5,48.3,61.6,66,85c11.2,14.5,32.1,17.2,46.6,6c14.5-11.2,17.2-32.1,6-46.6c-21.5-29.1-44.3-58.1-65.4-85.5
			C-492.9-4719.9-514.7-4723.7-529.5-4712.4L-529.5-4712.4z M-523.5-4704.6c11.3-8.7,29.3-4.2,40.4,10.2l49.3,63.9
			c-9.7-2.3-20-0.1-27.9,6c-7.9,6.1-12.6,15.4-12.9,25.4l-49.3-63.9C-535-4677.3-534.8-4695.9-523.5-4704.6L-523.5-4704.6z
			 M-457.2-4618.5c11.3-8.7,27.5-6.6,36.2,4.7c8.7,11.3,6.6,27.5-4.7,36.2c-11.3,8.7-27.5,6.6-36.2-4.7
			C-470.5-4593.7-468.4-4609.8-457.2-4618.5L-457.2-4618.5z"/>
		<path style="fill:none;stroke:#000000;stroke-miterlimit:10;" d="M-538.6-4716.5c-15.3,11.8-18.1,33.6-6.3,48.9l15.5,20.1
			c6.6,8.5,17,22.3,35.5,8c19.9-15.3-28.4-36.8-15.4-46.8c13-10,21.9,41.8,41.4,26.8c18.4-14.2,5.2-31,1.3-36.4l-15.5-20.1
			c-11.8-15.3-33.6-18.1-48.9-6.3L-538.6-4716.5z"/>
		<path style="fill:none;stroke:#000000;stroke-miterlimit:10;" d="M-509.5-4729.5c-7.5-0.1-15.2,2.3-21.6,7.3l-7.5,5.8
			c-9.6,7.4-14.3,18.7-13.5,29.9c0.6-8.9,4.9-17.4,12.5-23.3l6.9-5.3c14.1-10.9,34.2-8.3,45,5.8l14.2,18.5c3.6,5,15.8,20.4-1.2,33.5
			c-0.3,0.2-0.6,0.4-0.9,0.6c2.3,0.2,4.9-0.6,7.6-2.7c18.4-14.2,5.2-31,1.3-36.4l-15.5-20.1C-489-4724.8-499.2-4729.4-509.5-4729.5
			L-509.5-4729.5z M-511.6-4682.8c-0.4,0.2-0.8,0.4-1.2,0.7c-12,9.2,32.5,29,14.2,43.1c-4.6,3.5-8.7,5.2-12.2,5.6
			c4.7,0.5,10.3-1,16.9-6.1C-476.1-4653.2-513.1-4671.9-511.6-4682.8L-511.6-4682.8z"/>
		
			<ellipse transform="matrix(0.9864 -0.1643 0.1643 0.9864 763.0543 -152.577)" style="fill:none;stroke:#000000;stroke-miterlimit:10;" cx="-540.6" cy="-4688.2" rx="5.8" ry="9.9"/>
	</g>
	<path style="fill:none;stroke:#000000;stroke-miterlimit:10;" d="M134.9-420.1c-26.7,0-53.4,0-80,0c-0.3,3,0.4,6.1-0.3,9.1
		c-1.5,2.9-0.8,6.2-0.8,9.3c0.3,1.7,1.5,3.2,1.1,5.1c0.1,7.4-0.3,14.9,0.2,22.3c1.2,8.8,7.1,15.9,12.4,22.6
		c4.3,5.1,9.4,10.3,16.2,11.7c5.3,0.9,10.6,0.1,15.9,0.4c6.5-0.1,13,0.3,19.5-0.4c7.6-1.8,13-8,17.7-13.9
		c4.6-6.1,9.8-12.5,10.8-20.3c0.6-5.8,0.1-11.6,0.2-17.5c0.1-2.6-0.2-5.4,0.4-8c1.2-2.9,0.6-6.1,0.6-9.2c-0.4-1.5-1.2-3-0.9-4.7
		c-0.2-2,0.6-4.3-0.5-6.1c-1.4-0.9-3.3-0.1-4.9-0.4C139.8-420.2,137.3-420.1,134.9-420.1L134.9-420.1z"/>
	<path style="fill:none;stroke:#000000;stroke-miterlimit:10;" d="M57.9-377.1c18.4,3.7,29,17.2,29,34.2l0,0.2
		c-6.8,0-12.9-5.2-19.4-13.8C61.8-363.8,57.9-370,57.9-377.1L57.9-377.1z"/>
	<path style="fill:none;stroke:#000000;stroke-miterlimit:10;" d="M144.7-377.1c-18.4,3.7-29.3,17.2-29.3,34.2l0,0.2
		c6.8,0,12.9-5.2,19.4-13.8C140.4-363.8,144.7-370,144.7-377.1L144.7-377.1z"/>
	<g transform="matrix(.35826 0 0 .35826 957.11 92.936)">
		<path style="fill:none;stroke:#000000;stroke-miterlimit:10;" d="M-2510.3-1423.8v112.2c47.5,13.9,79.4,52,79.5,95
			c0,0.3,0,0.5,0,0.8h82.1c0-0.3,0-0.5,0-0.8c0.1-43.5,32.8-82,81.2-95.4v-111.7H-2510.3L-2510.3-1423.8z"/>
		<path style="fill:none;stroke:#000000;stroke-miterlimit:10;" d="M-2310.7-1407.6h36.1c5.4,0,9.8,4.4,9.8,9.8v14.2
			c0,5.4-4.4,9.8-9.8,9.8h-36.1c-5.4,0-9.8-4.4-9.8-9.8v-14.2C-2320.5-1403.2-2316.1-1407.6-2310.7-1407.6z"/>
		<g transform="matrix(.46189 0 0 .46189 412.49 71.573)">
			<path style="fill:none;stroke:#000000;stroke-miterlimit:10;" d="M-6137.1-3159.5c-47.1,43.3,0.8,76,18.3,81.8
				c-17.4,5.8-65.4,38.5-18.3,81.8c39.8-38.2-0.4-60.8,18.4-81.7c0,0,0.1,0,0.1,0c0,0,0-0.1-0.1-0.1c0,0,0-0.1,0.1-0.1
				c0,0-0.1,0-0.1,0C-6137.5-3098.7-6097.3-3121.3-6137.1-3159.5L-6137.1-3159.5z"/>
			<path style="fill:none;stroke:#000000;stroke-miterlimit:10;" d="M-6119-3077.7c14.6,12.3,30.5,23.1,47.4,32.2
				c17.1,9.2,36,16.7,55.3,14.7c9.6-1,19.1-4.5,26.6-10.6c7.5-6.2,12.8-15.1,13.7-24.8c0.9-8.7-1.9-17.7-7-24.8
				c-5.2-7.1-12.7-12.3-21-15.2c-15.2-5.3-32.1-2.6-47.3,2.7c-15.2,5.4-29.3,13.3-44.4,19C-6103.4-3081.7-6111.1-3079.4-6119-3077.7
				L-6119-3077.7z"/>
			<path style="fill:none;stroke:#000000;stroke-miterlimit:10;" d="M-6028.7-3056.4c-12.7,9.7-47.7,65.2-26.1,51.3
				c16.6-10.7,3.7,14.6,18.4,1c14.6-7.4,5.1,17.7,18.9,3.9c11.8-13.3,2.9-45.7-1.6-57.5"/>
			<ellipse style="fill:none;stroke:#000000;stroke-miterlimit:10;" cx="-5995.1" cy="-3075" rx="8.4" ry="10"/>
			<path style="fill:none;stroke:#000000;stroke-miterlimit:10;" d="M-6012.2-3138.6c-0.2,0-0.4,0-0.7,0c-6.6,0.6-6.7,12.8-6.7,15
				s-6.7-8.3-12.3-7.2c-5.5,1.1-2.5,13-7.8,15c-3.4,1.3-6.6-4.9-10-3.9c-4.8,1.4-4.1,10.6-8.9,12.3c-4.2,1.4-9-6.2-12.8-3.9
				c-4.5,2.7-4.4,13-4.1,17.9c7.9-3.7,15.9-7.3,24.1-10.2c15.2-5.4,32.1-8,47.3-2.7c4.5,1.6,8.8,3.8,12.7,6.7
				c7.5-3.4,17-28.1,5.8-34.5c-6.5-3.8-8.7,12.2-16.2,11.1C-6009.1-3124-6005.5-3138.3-6012.2-3138.6L-6012.2-3138.6z"/>
			<path style="fill:none;stroke:#000000;stroke-miterlimit:10;" d="M-5987.3-3060.2l10.4,4.4c0.8,0.3,1.2,1.3,0.9,2.1l0,0
				c-0.3,0.8-1.3,1.2-2.1,0.9l-10.4-4.4c-0.8-0.3-1.2-1.3-0.9-2.1l0,0C-5989-3060.2-5988.1-3060.6-5987.3-3060.2z"/>
			<path style="fill:none;stroke:#000000;stroke-miterlimit:10;" d="M-5988.4-3057.4l10.4,4.4c0.8,0.3,1.2,1.3,0.9,2.1l0,0
				c-0.3,0.8-1.3,1.2-2.1,0.9l-10.4-4.4c-0.8-0.3-1.2-1.3-0.9-2.1l0,0C-5990.2-3057.4-5989.2-3057.8-5988.4-3057.4z"/>
			<ellipse style="fill:none;stroke:#000000;stroke-miterlimit:10;" cx="-5995" cy="-3075" rx="6.6" ry="7.9"/>
			<circle style="fill:none;stroke:#000000;stroke-miterlimit:10;" cx="-5997.4" cy="-3078.6" r="2.4"/>
		</g>
		<path style="fill:none;stroke:#000000;stroke-miterlimit:10;" d="M-2503.6-1407.6h36.1c5.4,0,9.8,4.4,9.8,9.8v14.2
			c0,5.4-4.4,9.8-9.8,9.8h-36.1c-5.4,0-9.8-4.4-9.8-9.8v-14.2C-2513.5-1403.2-2509.1-1407.6-2503.6-1407.6z"/>
	</g>
	<g transform="matrix(.8 0 0 .8 822.4 -580.88)">
		
			<path color-rendering="auto" shape-rendering="auto" image-rendering="auto" style="fill:none;stroke:#000000;stroke-miterlimit:10;" d="
			M-855.5-75.6c-3.2,0.1-5.2,3.7-4.6,6.6c-0.1,21.8,0,43.6-0.1,65.5c-1.6,1.1-2.8,2.7-3.5,4.5h-94.9c-4.5-7.6-4.5-17.1-9.9-24.3
			c-2.7-3.7-7.3-6.2-11.9-5.3c-4.3,0.7-8.2,4.2-8.6,8.7c-0.7,5.1,2.8,10.6,8,11.4c1.7,0.4,3.5,0.3,5.2-0.2c1.9,6,3.4,12.2,7,17.5
			c0.8,15.8,8.1,30.9,18.9,42.4c13.6,14.7,31.9,24.4,50.9,30.1c2.3,0.7,4.6,1.3,6.9,1.9c-2.8,7.1-5.4,14.3-8.2,21.3
			c-13.4-1.8-27.4,7.8-30.2,21.1c-2.9,11.9,3,25.5,14.1,31c10.3,5.5,24.3,3.6,32.4-4.9c3.5-3.5,6.1-8,7.3-12.8
			c17.3,0,34.7-0.1,52,0.1c3.1,13,16.9,22.6,30.2,20.7c12.3-1.4,23.1-12,24.2-24.4c1.4-11.4-5.2-23.5-15.8-28.1
			c-5-2.3-10.7-3.2-16.1-2.3c-3.5-7.9-7.1-15.7-10.6-23.5c19.9-6,38.9-16.4,52.6-32.3c10.8-12.5,17.6-28.8,16.8-45.4
			c-0.8-17.5-9.4-34-22-45.9c-15.2-14.8-35-24.1-55.5-28.9C-832.1-74.2-843.8-75.5-855.5-75.6L-855.5-75.6z M-825.6,84.3
			c3.8,8.5,7.6,16.9,11.4,25.4c-5.2,3.9-9,9.6-10.5,15.9c-17.3-0.1-34.6,0.1-51.9-0.1c-1.6-6.6-5.7-12.6-11.3-16.4
			c3-7.8,6-15.6,9-23.4C-861.2,88.2-843.1,87.7-825.6,84.3L-825.6,84.3z M-810.2,137.4"/>
		
			<path color-rendering="auto" shape-rendering="auto" image-rendering="auto" style="fill:none;stroke:#000000;stroke-miterlimit:10;" d="
			M-979-24.1c-3.6,0.1-6.2,4.2-4.8,7.5c1.1,3.3,5.8,4.7,8.5,2.4c0.8-0.6,1.4-1.4,1.8-2.3c3.6,7.5,4.3,16.3,9.2,23.2
			c2,2.6,5.4,4.4,8.7,3.7c0.7-0.4,0-1.3,0.2-2c0.1-0.7-0.6-1.6-1.4-1.2c-3.1,0.2-5.3-2.7-6.5-5.3c-3.6-7.1-4.3-15.4-8.5-22.2
			C-973.5-22.7-976.1-24.2-979-24.1L-979-24.1z"/>
		<path style="fill:none;stroke:#000000;stroke-miterlimit:10;" d="M-1021.5,5.9V6h0.1L-1021.5,5.9z"/>
		
			<path color-rendering="auto" shape-rendering="auto" image-rendering="auto" style="fill:none;stroke:#000000;stroke-miterlimit:10;" d="
			M-854.5,2.1c-0.8,0-1.5,0.4-1.8,1.2l-49.2,128.2c-0.4,0.9,0.1,2,1.1,2.4c0.2,0.1,0.4,0.1,0.7,0.1h106.9c1,0,1.8-0.8,1.8-1.8
			c0-0.3-0.1-0.5-0.2-0.7L-852.9,3.2C-853.2,2.5-853.8,2.1-854.5,2.1L-854.5,2.1z M-854.5,8.6l54.7,121.6h-101.4L-854.5,8.6z"/>
		
			<path color-rendering="auto" shape-rendering="auto" image-rendering="auto" style="fill:none;stroke:#000000;stroke-miterlimit:10;" d="
			M-978.8-24.1c-0.1,0-0.1,0-0.2,0c2.4,0.1,4.6,1.6,5.9,3.9c3.9,6.8,4.5,15.1,7.7,22.2c1.1,2.6,3.1,5.4,5.9,5.3
			c0.7-0.4,1.3,0.4,1.2,1.2c-0.2,0.6,0.5,1.5-0.1,2c-0.1,0-0.2,0-0.2,0.1c0.9,0.2,1.9,0.2,2.8-0.1c0.7-0.4,0-1.3,0.2-2
			c0.1-0.7-0.6-1.6-1.4-1.2c-3.1,0.2-5.3-2.7-6.5-5.3c-3.6-7.1-4.3-15.4-8.5-22.2C-973.5-22.6-976-24.1-978.8-24.1L-978.8-24.1z
			 M-974.6-16.5c-0.4,0.9-0.9,1.7-1.6,2.3c-0.8,0.7-1.7,1-2.7,1.1c1.2,0.1,2.5-0.3,3.5-1.1c0.5-0.4,0.9-0.8,1.2-1.3
			C-974.3-15.9-974.4-16.2-974.6-16.5L-974.6-16.5z"/>
		<path style="fill:none;stroke:#000000;stroke-miterlimit:10;" d="M-856,5.6L-856,5.6l-108.2,0c0,3.5,0.4,6.9,1.1,10.4
			c0.2,1.3,0.5,2.5,0.8,3.8c0.4,1.3,0.7,2.5,1.2,3.7c0,0,0,0,0,0c0.4,1.2,0.8,2.5,1.3,3.7c0.5,1.2,1.1,2.4,1.7,3.6
			c0.6,1.2,1.2,2.4,1.9,3.6c0,0,0,0,0,0c0.7,1.2,1.4,2.4,2.2,3.5c0,0,0,0,0,0c0.7,1.2,1.5,2.3,2.4,3.5c0.9,1.1,1.8,2.2,2.7,3.3
			c0.9,1.1,1.8,2.2,2.8,3.3c1,1.1,2.1,2.1,3.1,3.1c1.1,1,2.1,2.1,3.3,3.1c1.2,1,2.3,1.9,3.6,2.9c0,0,0,0,0,0c1.2,1,2.4,1.9,3.7,2.8
			c1.3,0.9,2.6,1.8,4,2.6c1.3,0.9,2.7,1.7,4.1,2.5c0,0,0,0,0,0c1.4,0.8,2.8,1.6,4.3,2.3c0,0,0,0,0,0c1.4,0.8,2.9,1.5,4.4,2.2
			c1.5,0.7,3.1,1.4,4.6,2c1.5,0.7,3.1,1.3,4.7,1.9c2.3,0.8,4.6,1.6,6.9,2.4c0.6,0.2,1.1,0.4,1.7,0.6c1.7,0.5,3.4,0.9,5.1,1.3
			c1.7,0.5,3.4,0.9,5.1,1.3c1.7,0.3,3.5,0.7,5.2,1c1.7,0.3,3.5,0.6,5.2,0.9c1.8,0.2,3.6,0.4,5.4,0.6c0,0,0,0,0,0
			c1.8,0.2,3.5,0.4,5.3,0.5c1.8,0.1,3.6,0.2,5.4,0.2c1.8,0.1,3.6,0.1,5.5,0.2c0,0,0,0,0,0c0.5,0,1,0,1.5,0c0,0,0,0,0,0
			c2.6,0,5.1-0.1,7.7-0.3c0,0,0,0,0,0c1.8-0.1,3.6-0.3,5.4-0.5c1.8-0.2,3.6-0.4,5.3-0.6c1.8-0.2,3.5-0.5,5.3-0.8c0,0,0,0,0,0
			c1.8-0.3,3.5-0.6,5.2-1c1.7-0.4,3.4-0.8,5.1-1.2c0,0,0,0,0,0c1.7-0.4,3.4-0.9,5.1-1.3c12.2-3.5,23.3-8.6,32.9-15
			c0.7-0.4,1.3-0.8,1.9-1.3c1.3-0.9,2.5-1.9,3.8-2.9c1.2-0.9,2.4-1.9,3.6-2.8c1.1-1,2.2-2,3.3-3.1c0,0,0,0,0,0c1.1-1,2.2-2,3.2-3.1
			c1-1.1,1.9-2.2,2.8-3.3c1-1.1,1.9-2.2,2.8-3.3c0.8-1.1,1.6-2.3,2.4-3.5c0,0,0,0,0,0c0.8-1.1,1.6-2.3,2.3-3.5
			c0.7-1.2,1.3-2.4,1.9-3.6c0,0,0,0,0,0c0.6-1.2,1.2-2.4,1.8-3.6c0.5-1.2,0.9-2.5,1.3-3.7c0.5-1.2,0.9-2.5,1.3-3.7
			c0.3-1.3,0.6-2.5,0.8-3.8c0.3-1.3,0.5-2.5,0.7-3.8c0.1-1.3,0.2-2.6,0.3-3.8c0,0,0,0,0,0c0.1-1.1,0.1-2.2,0.2-3.3L-856,5.6
			L-856,5.6z"/>
		<path style="fill:none;stroke:#000000;stroke-miterlimit:10;" d="M-854.4,5.3h106.5c-0.2-8.5-2.2-17-6-24.6
			c-1.8-4-4.3-7.6-6.8-11.1c-3-3.8-6.2-7.4-9.8-10.6c-0.8-1-1.6-1.7-2.7-0.6C-800.2-26-827.3-10.4-854.4,5.3L-854.4,5.3z"/>
		<path style="fill:none;stroke:#000000;stroke-miterlimit:10;" d="M-854.3,4.4c27.3-15.8,54.6-31.5,81.9-47.3
			c-4-3.4-8.3-6.5-12.8-9.3c-3.8-2.4-7.8-4.4-11.8-6.3c-5.4-2.5-10.9-4.5-16.6-6.3c-1.2-0.6-1.3,1.5-2,2.2
			C-828.6-40.3-841.5-17.9-854.3,4.4L-854.3,4.4z"/>
		<path style="fill:none;stroke:#000000;stroke-miterlimit:10;" d="M-855.3,4.6c13.4-23.3,26.9-46.5,40.3-69.8c-6-1.6-12-3-18.2-3.9
			c-4.9-0.8-9.9-1.2-14.9-1.5c-2.4-0.1-4.8-0.2-7.2-0.3L-855.3,4.6L-855.3,4.6z"/>
		<circle style="fill:none;stroke:#000000;stroke-miterlimit:10;" cx="-854.7" cy="4.3" r="4.8"/>
		<path style="fill:none;stroke:#000000;stroke-miterlimit:10;" d="M-903.5,108.9c-12.7,0-22.9,10.3-22.9,22.9
			c0,12.7,10.3,22.9,22.9,22.9c0,0,0,0,0,0c12.7,0,22.9-10.3,22.9-22.9l0,0C-880.5,119.2-890.8,108.9-903.5,108.9z M-904.4,114.4
			v15.3l-10.8-10.8C-912.2,116.2-908.4,114.6-904.4,114.4L-904.4,114.4z M-902.6,114.4c4,0.2,7.8,1.8,10.8,4.5l-10.8,10.8V114.4
			L-902.6,114.4z M-916.5,120.1l10.8,10.8h-15.3C-920.7,126.9-919.2,123.1-916.5,120.1z M-890.5,120.1c2.7,3,4.3,6.8,4.5,10.8h-15.3
			L-890.5,120.1z M-921,132.8h15.3l-10.8,10.8C-919.2,140.6-920.7,136.8-921,132.8z M-901.3,132.8h15.3c-0.2,4-1.8,7.8-4.5,10.8
			L-901.3,132.8L-901.3,132.8z M-904.4,134.1v15.3c-4-0.2-7.8-1.8-10.8-4.5L-904.4,134.1L-904.4,134.1z M-902.6,134.1l10.8,10.8
			c-3,2.7-6.8,4.3-10.8,4.5V134.1L-902.6,134.1z"/>
		<path style="fill:none;stroke:#000000;stroke-miterlimit:10;" d="M-797.8,108.9c-12.7,0-22.9,10.3-22.9,22.9
			c0,12.7,10.3,22.9,22.9,22.9c0,0,0,0,0,0c12.7,0,22.9-10.3,22.9-22.9C-774.8,119.2-785.1,108.9-797.8,108.9z M-798.7,114.4v15.3
			l-10.8-10.8C-806.5,116.2-802.7,114.6-798.7,114.4L-798.7,114.4z M-796.8,114.4c4,0.2,7.8,1.8,10.8,4.5l-10.8,10.8V114.4
			L-796.8,114.4z M-810.8,120.1l10.8,10.8h-15.3C-815,126.9-813.4,123.1-810.8,120.1z M-784.7,120.1c2.7,3,4.3,6.8,4.5,10.8h-15.3
			L-784.7,120.1z M-815.2,132.8h15.3l-10.8,10.8C-813.4,140.6-815,136.8-815.2,132.8z M-795.5,132.8h15.3c-0.2,4-1.8,7.8-4.5,10.8
			L-795.5,132.8z M-798.7,134.1v15.3c-4-0.2-7.8-1.8-10.8-4.5L-798.7,134.1L-798.7,134.1z M-796.8,134.1l10.8,10.8
			c-3,2.7-6.8,4.3-10.8,4.5V134.1z"/>
		<path style="fill:none;stroke:#000000;stroke-miterlimit:10;" d="M-854.9-70.6c-0.3,0-0.5,0-0.7,0.2c11.3,0.5,22.4,2.4,33.3,5.6
			c-0.1,0.2-0.2,0.4-0.3,0.5c0.2-0.2,0.4-0.3,0.6-0.3c0.7,0.1,1.3,0.4,2,0.6c1.3,0.4,2.6,0.9,3.9,1.4c0.1-0.2,0.2-0.3,0.3-0.5
			c-0.1,0.2-0.1,0.3-0.2,0.5c12.3,4.6,24,11.3,33.9,20.3c-0.2,0.1-0.3,0.2-0.5,0.3c0.1,0,0.1,0,0.2,0c0.3,0,0.6,0.1,0.9,0.3
			c4.3,4.2,8.3,8.7,11.6,13.8c6.7,9.8,10.5,21.8,10.7,33.9h-0.4c0,1.1-0.1,2.2-0.2,3.3c0,0,0,0,0,0c0,1.3-0.1,2.6-0.3,3.8
			c-0.2,1.3-0.4,2.5-0.7,3.8c-0.2,1.3-0.5,2.5-0.8,3.8c-0.4,1.2-0.8,2.5-1.2,3.7c-0.4,1.2-0.8,2.5-1.3,3.7c-0.5,1.2-1.1,2.4-1.7,3.6
			c0,0,0,0,0,0c-0.5,1.2-1.1,2.4-1.8,3.6c-0.7,1.2-1.4,2.3-2.1,3.5c0,0,0,0,0,0c-0.7,1.2-1.4,2.3-2.2,3.5c-0.8,1.1-1.7,2.2-2.6,3.3
			c-0.8,1.1-1.7,2.2-2.7,3.3c-1,1-2,2.1-3,3.1c0,0,0,0,0,0c-1,1-2,2-3.1,3c-1.1,1-2.2,1.9-3.4,2.8c-1.2,1-2.3,1.9-3.6,2.9
			c-0.6,0.4-1.2,0.8-1.8,1.3c-9,6.4-19.5,11.4-31,15c-1.6,0.5-3.2,0.9-4.8,1.3c0,0,0,0,0,0c-1.6,0.4-3.2,0.8-4.8,1.2
			c-1.6,0.4-3.3,0.7-4.9,1c0,0,0,0,0,0c-1.6,0.3-3.3,0.6-5,0.8c-1.7,0.2-3.4,0.4-5,0.6c-1.7,0.2-3.4,0.3-5.1,0.5c0,0,0,0,0,0
			c-2,0.1-4,0.2-6,0.3c1,0,1.9,0.1,2.9,0.1c0,0,0,0,0,0c0.5,0,1,0,1.4,0c0,0,0,0,0,0c2.5,0,5.1-0.1,7.6-0.3c0,0,0,0,0,0
			c1.8-0.1,3.6-0.3,5.3-0.5c1.8-0.2,3.5-0.4,5.3-0.6c1.8-0.2,3.5-0.5,5.2-0.8c0,0,0,0,0,0c1.7-0.3,3.5-0.6,5.2-1
			c1.7-0.4,3.4-0.8,5.1-1.2c0,0,0,0,0,0c1.7-0.4,3.4-0.9,5-1.3c12.1-3.5,23.1-8.6,32.7-15c0.6-0.4,1.3-0.8,1.9-1.3
			c1.3-0.9,2.5-1.9,3.7-2.9c1.2-0.9,2.4-1.9,3.6-2.8c1.1-1,2.2-2,3.2-3c0,0,0,0,0,0c1.1-1,2.2-2,3.2-3.1c1-1.1,1.9-2.2,2.8-3.3
			c1-1.1,1.9-2.2,2.7-3.3c0.8-1.1,1.6-2.3,2.3-3.5c0,0,0,0,0,0c0.8-1.1,1.5-2.3,2.3-3.5c0.7-1.2,1.3-2.4,1.8-3.6c0,0,0,0,0,0
			c0.6-1.2,1.2-2.4,1.8-3.6c0.5-1.2,0.9-2.5,1.3-3.7c0.5-1.2,0.9-2.5,1.3-3.7c0.3-1.3,0.6-2.5,0.8-3.8c0.3-1.3,0.5-2.5,0.7-3.8
			c0.1-1.3,0.2-2.5,0.3-3.8c0,0,0,0,0,0c0.1-1.1,0.1-2.2,0.2-3.3h0.4c-0.2-12.1-4.2-24.1-11.2-33.9c-3.5-5.1-7.7-9.6-12.2-13.8
			c-0.3-0.2-0.6-0.3-1-0.3c-0.1,0-0.1,0-0.2,0c0.2-0.1,0.3-0.2,0.5-0.3c-11.6-10-25.4-17.1-39.9-21.7c-0.7-0.2-1.4-0.5-2.1-0.6
			c-0.3,0-0.5,0.2-0.7,0.3c0.1-0.2,0.2-0.4,0.3-0.5c-12.4-3.5-25.2-5.5-38.1-5.7C-853.4-70.4-854.3-70.6-854.9-70.6L-854.9-70.6z
			 M-823.2-63.1c-0.2,0.4-0.4,0.7-0.6,1.1C-823.6-62.3-823.4-62.7-823.2-63.1z M-784-41.2c-0.3,0.2-0.7,0.4-1,0.6
			C-784.7-40.7-784.3-40.9-784-41.2z M-774.5-41.2c-0.3,0.3-0.7,0.5-1.1,0.6C-775.2-40.7-774.8-41-774.5-41.2z"/>
		<path style="fill:none;stroke:#000000;stroke-miterlimit:10;" d="M-854.7-0.5c-0.2,0-0.3,0-0.5,0c2,0.3,3.4,2.3,3.4,4.8
			c0,2.5-1.5,4.5-3.5,4.8c0.2,0,0.3,0,0.5,0c2.6,0,4.8-2.1,4.8-4.8v0C-849.9,1.7-852-0.5-854.7-0.5L-854.7-0.5L-854.7-0.5z"/>
		<path style="fill:none;stroke:#000000;stroke-miterlimit:10;" d="M-797.8,108.9c-0.1,0-0.2,0-0.4,0c12,0.3,21.6,10.5,21.6,22.9
			c0,12.5-9.7,22.7-21.7,22.9c0.2,0,0.3,0,0.5,0c12.7,0,22.9-10.3,22.9-22.9C-774.8,119.2-785.1,108.9-797.8,108.9L-797.8,108.9z
			 M-799.5,114.4c-3.9,0.2-7.5,1.8-10.4,4.5l10.4,10.8v-0.8l-10-10C-806.7,116.4-803.2,114.8-799.5,114.4L-799.5,114.4L-799.5,114.4
			z M-797.7,114.4v15.3l0.9-0.9v-14.3C-797.1,114.4-797.4,114.4-797.7,114.4L-797.7,114.4z M-811.1,120.1c-2.6,3-4.1,6.8-4.3,10.8
			h0.2c0.2-3.9,1.7-7.6,4.3-10.6L-811.1,120.1L-811.1,120.1z M-786.1,120.1l-10.4,10.8h0.9l10.1-10.1
			C-785.7,120.6-785.9,120.4-786.1,120.1L-786.1,120.1z M-815.4,132.8c0.2,4,1.7,7.8,4.3,10.8l0.2-0.2c-2.6-2.9-4.1-6.7-4.3-10.6
			L-815.4,132.8L-815.4,132.8z M-796.5,132.8l10.4,10.8c0.2-0.2,0.4-0.5,0.6-0.7l-10.1-10.1L-796.5,132.8L-796.5,132.8z
			 M-799.5,134.1l-10.4,10.8c2.9,2.7,6.5,4.3,10.4,4.5v-0.1c-3.7-0.4-7.2-1.9-10-4.4l10-10V134.1L-799.5,134.1z M-797.7,134.1v15.3
			c0.3,0,0.6,0,0.9-0.1V135L-797.7,134.1L-797.7,134.1z"/>
		<path style="fill:none;stroke:#000000;stroke-miterlimit:10;" d="M-903.5,108.9c-0.1,0-0.1,0-0.2,0c12.3,0.2,22.1,10.4,22.1,22.9
			c0,12.6-9.9,22.8-22.2,22.9c0.1,0,0.2,0,0.3,0c12.7,0,22.9-10.3,22.9-22.9C-880.5,119.2-890.8,108.9-903.5,108.9L-903.5,108.9z
			 M-904.9,114.4c-3.9,0.2-7.6,1.8-10.5,4.5l10.5,10.8v-0.5l-10.3-10.3C-912.3,116.3-908.7,114.7-904.9,114.4L-904.9,114.4
			L-904.9,114.4z M-903.1,114.4v15.3l0.5-0.6v-14.6C-902.7,114.4-902.9,114.4-903.1,114.4L-903.1,114.4z M-916.7,120.1
			c-2.6,3-4.2,6.8-4.4,10.8h0.1c0.2-3.9,1.7-7.7,4.4-10.7L-916.7,120.1L-916.7,120.1z M-891.3,120.1l-10.5,10.8h0.6l10.3-10.3
			C-891,120.4-891.2,120.3-891.3,120.1L-891.3,120.1z M-921.1,132.8c0.2,4,1.8,7.8,4.4,10.8l0.1-0.1c-2.6-3-4.2-6.7-4.4-10.7
			L-921.1,132.8L-921.1,132.8z M-901.8,132.8l10.5,10.8c0.1-0.2,0.2-0.3,0.4-0.5l-10.3-10.3L-901.8,132.8L-901.8,132.8z
			 M-904.9,134.1l-10.5,10.8c2.9,2.7,6.6,4.3,10.5,4.5v-0.1c-3.8-0.3-7.4-1.9-10.3-4.4l10.3-10.3V134.1L-904.9,134.1z M-903.1,134.1
			v15.3c0.2,0,0.4,0,0.5-0.1v-14.7L-903.1,134.1L-903.1,134.1z"/>
	</g>
	<g transform="matrix(.52331 0 0 .51905 -273.36 774.01)">
		<path style="fill:none;stroke:#000000;stroke-miterlimit:10;" d="M231.8-2319.8c-6.4,0.3-11,7.2-9.9,13.3c-0.1,4.7,0,9.3,0,14
			c-46.8,46.8-93.6,93.6-140.4,140.4c-4.1-4.6-10.6-7.8-16.7-6.1c-5.3,2-7.9,8.3-7,13.7c-0.2,25.7,0.1,51.4-0.1,77.1
			c-3.4,1-4.8,4.6-6.9,7.1c-1.7,2.5-1.9,5.9-0.5,8.6c12.5,35.8,38.1,67.2,71.7,85.3c13.2,6.8,28.4,11.1,43.2,8.4
			c10-2,19.1-8.1,24.8-16.6c2.6-2.8,3.9-7.2,2-10.7c-1.2-3.6-2.4-7.6-5.5-9.9c0.2-2.4-1.1-5.4,1.2-7
			c39.3-39.2,78.5-78.5,117.8-117.7c12.5,3.3,26.8,2.5,37.8-4.7c5.6-4,10.3-9.3,13.5-15.4c0.9-4.4-1.5-8.5-3.1-12.4
			c-0.8-1.5-1.9-2.8-3.3-3.8c-0.1-30,0.5-60-0.3-90c-1.4-8.3-9.1-14.9-17.3-15.8c-2.2-0.1-4.5,0.4-6.4,1.7
			c-14-13.3-28.3-27.3-46.2-35.3c-9.5-4.2-19.7-6.5-29.9-8.2C248.6-2312.5,240.6-2319.5,231.8-2319.8L231.8-2319.8z M117.6-2019.5
			c5.8,3.3,11.9,6.8,17.5,10.1c-7.1-1.7-13.4-5.8-19-10.4c-0.4-0.4-2.9-2.4-1.3-1.4C115.7-2020.6,116.6-2020,117.6-2019.5
			L117.6-2019.5z"/>
		<g transform="translate(2233 -129)">
			<g transform="matrix(1 .57735 0 1 -678.82 -313.57)">
				<path style="fill:none;stroke:#000000;stroke-miterlimit:10;" d="M-1219.1-1106.7h1.9c3,0,5.4,2.4,5.4,5.4v91
					c0,3-2.4,5.4-5.4,5.4h-1.9c-3,0-5.4-2.4-5.4-5.4v-91C-1224.6-1104.3-1222.1-1106.7-1219.1-1106.7z"/>
				<path style="fill:none;stroke:#000000;stroke-miterlimit:10;" d="M-1318.8-1106.8h1.7c3,0,5.4,2.4,5.4,5.4v91
					c0,3-2.4,5.4-5.4,5.4h-1.7c-3,0-5.4-2.4-5.4-5.4v-91C-1324.3-1104.3-1321.8-1106.8-1318.8-1106.8z"/>
				<g transform="translate(4)">
					<path style="fill:none;stroke:#000000;stroke-miterlimit:10;" d="M-1309.3-1065.5h0.4c0.9,0,1.7,0.8,1.7,1.7v32.2
						c0,0.9-0.8,1.7-1.7,1.7h-0.4c-0.9,0-1.7-0.8-1.7-1.7v-32.2C-1311-1064.8-1310.3-1065.5-1309.3-1065.5z"/>
					<path style="fill:none;stroke:#000000;stroke-miterlimit:10;" d="M-1291.3-1068.9L-1291.3-1068.9c1.1,0,1.9,0.8,1.9,1.9v35.3
						c0,1-0.8,1.9-1.9,1.9h0c-1,0-1.9-0.8-1.9-1.9v-35.3C-1293.2-1068.1-1292.3-1068.9-1291.3-1068.9z"/>
					<path style="fill:none;stroke:#000000;stroke-miterlimit:10;" d="M-1251.9-1068.9L-1251.9-1068.9c1.1,0,1.9,0.8,1.9,1.9v35.3
						c0,1-0.8,1.9-1.9,1.9h0c-1,0-1.9-0.8-1.9-1.9v-35.3C-1253.7-1068.1-1252.9-1068.9-1251.9-1068.9z"/>
					<path style="fill:none;stroke:#000000;stroke-miterlimit:10;" d="M-1235.3-1065.9h0.3c1,0,1.7,0.8,1.7,1.7v32.6
						c0,1-0.8,1.7-1.7,1.7h-0.3c-1,0-1.7-0.8-1.7-1.7v-32.6C-1237-1065.1-1236.3-1065.9-1235.3-1065.9z"/>
					<path style="fill:none;stroke:#000000;stroke-miterlimit:10;" d="M-1271.2-1070.1L-1271.2-1070.1c1,0,1.9,0.9,1.9,1.9v36.3
						c0,1.1-0.8,1.9-1.9,1.9l0,0c-1,0-1.9-0.9-1.9-1.9v-36.3C-1273.1-1069.2-1272.2-1070.1-1271.2-1070.1z"/>
				</g>
				<path style="fill:none;stroke:#000000;stroke-miterlimit:10;" d="M-1330.3-1009.5c-0.8,1.7-1.6,3.5-2.3,5.2
					c9.2,0.3,18.5-0.1,27.7,0.2c0,0,0.1,0,0.1,0c1.3-1.9,2.8-3.7,4.5-5.4H-1330.3L-1330.3-1009.5z M-1237.7-1009.5
					c1.4,1.8,2.9,3.5,4.2,5.3h28c-0.7-1.8-1.5-3.6-2.3-5.3H-1237.7z"/>
				<path style="fill:none;stroke:#000000;stroke-miterlimit:10;" d="M-1304.8-1004.5c-9.2,0.3-18.5-0.1-27.7,0.2
					c7.8,20.7,26.7,36.3,48.2,41c21.5,4.9,45.3-1,61.7-16c7.6-6.9,13.6-15.5,17.2-25h-28c-9.9,15-30,22.1-47.2,17
					c-9.7-2.7-18.3-8.9-24-17.1C-1304.7-1004.5-1304.8-1004.5-1304.8-1004.5L-1304.8-1004.5z"/>
				<path style="fill:none;stroke:#000000;stroke-miterlimit:10;" d="M-1300.3-1009.5c16.8,25.7,50.6,20.1,62.6,0l4.2,5.1
					c-13.4,22.5-51.9,27.5-71.2-0.1L-1300.3-1009.5z"/>
				<polygon style="fill:none;stroke:#000000;stroke-miterlimit:10;" points="-1316.8,-1033 -1224.2,-1033 -1224.2,-1015.6 
					-1316.8,-1015.6 				"/>
				<path style="fill:none;stroke:#000000;stroke-miterlimit:10;" d="M-1269.2-1109.1c-20.1,0.1-45.3,13.7-45.3,13.7v28.8
					c35.3-10.1,65.3-8.1,92.6,0v-28.8c0,0-30.5-13.4-46.3-13.7C-1268.6-1109.1-1268.9-1109.1-1269.2-1109.1L-1269.2-1109.1z
					 M-1273.8-1100.1c2.6,0,5.2,1.7,5.5,6c0.8-9,11.4-6.4,11.4-1.1c0,10.1-11.4,14.1-11.4,14.1s-11.3-4-11.3-14.1
					C-1279.6-1098.1-1276.7-1100.2-1273.8-1100.1z"/>
				<path style="fill:none;stroke:#000000;stroke-miterlimit:10;" d="M-1319.1-1104.2L-1319.1-1104.2c2.9,0,5.3,2.4,5.3,5.3v88.8
					c0,2.9-2.4,5.3-5.3,5.3l0,0c-2.9,0-5.3-2.4-5.3-5.3v-88.8C-1324.4-1101.8-1322-1104.2-1319.1-1104.2z"/>
				<path style="fill:none;stroke:#000000;stroke-miterlimit:10;" d="M-1218.9-1104.2L-1218.9-1104.2c2.9,0,5.3,2.4,5.3,5.3v88.8
					c0,2.9-2.4,5.3-5.3,5.3l0,0c-2.9,0-5.3-2.4-5.3-5.3v-88.8C-1224.2-1101.8-1221.9-1104.2-1218.9-1104.2z"/>
				<polygon style="fill:none;stroke:#000000;stroke-miterlimit:10;" points="-1316.8,-1029.9 -1224.2,-1029.9 -1224.2,-1012.4 
					-1316.8,-1012.4 				"/>
				<path style="fill:none;stroke:#000000;stroke-miterlimit:10;" d="M-1269.2-1105.7c-20.1,0.1-45.3,13.7-45.3,13.7v28.8
					c35.3-10.1,65.3-8.1,92.6,0v-28.8c0,0-30.5-13.4-46.3-13.7C-1268.6-1105.7-1268.9-1105.7-1269.2-1105.7L-1269.2-1105.7z
					 M-1273.8-1096.8c2.6,0,5.2,1.7,5.5,6c0.8-9,11.4-6.4,11.4-1.1c0,10.1-11.4,14.1-11.4,14.1s-11.3-4-11.3-14.1
					C-1279.6-1094.8-1276.7-1096.8-1273.8-1096.8z"/>
				<g>
					<path style="fill:none;stroke:#000000;stroke-miterlimit:10;" d="M-1306.4-1065.5h0.4c0.9,0,1.7,0.8,1.7,1.7v32.2
						c0,0.9-0.8,1.7-1.7,1.7h-0.4c-0.9,0-1.7-0.8-1.7-1.7v-32.2C-1308.1-1064.8-1307.3-1065.5-1306.4-1065.5z"/>
					<path style="fill:none;stroke:#000000;stroke-miterlimit:10;" d="M-1288.4-1068.9L-1288.4-1068.9c1.1,0,1.9,0.8,1.9,1.9v35.3
						c0,1-0.8,1.9-1.9,1.9h0c-1,0-1.9-0.8-1.9-1.9v-35.3C-1290.3-1068.1-1289.4-1068.9-1288.4-1068.9z"/>
					<path style="fill:none;stroke:#000000;stroke-miterlimit:10;" d="M-1248.9-1068.9L-1248.9-1068.9c1.1,0,1.9,0.8,1.9,1.9v35.3
						c0,1-0.8,1.9-1.9,1.9h0c-1,0-1.9-0.8-1.9-1.9v-35.3C-1250.8-1068.1-1250-1068.9-1248.9-1068.9z"/>
					<path style="fill:none;stroke:#000000;stroke-miterlimit:10;" d="M-1232.4-1065.9h0.3c1,0,1.7,0.8,1.7,1.7v32.6
						c0,1-0.8,1.7-1.7,1.7h-0.3c-1,0-1.7-0.8-1.7-1.7v-32.6C-1234.1-1065.1-1233.3-1065.9-1232.4-1065.9z"/>
					<path style="fill:none;stroke:#000000;stroke-miterlimit:10;" d="M-1268.2-1070.1L-1268.2-1070.1c1,0,1.9,0.9,1.9,1.9v36.3
						c0,1.1-0.8,1.9-1.9,1.9l0,0c-1,0-1.9-0.9-1.9-1.9v-36.3C-1270.1-1069.2-1269.3-1070.1-1268.2-1070.1z"/>
				</g>
			</g>
			<g transform="matrix(1 -1 0 1 -1838.5 -392.86)">
				<polygon style="fill:none;stroke:#000000;stroke-miterlimit:10;" points="-320.8,-1871.5 -162.3,-1871.5 -162.3,-1854 
					-320.8,-1854 				"/>
				<polygon style="fill:none;stroke:#000000;stroke-miterlimit:10;" points="-320.9,-1876.2 -162.3,-1876.2 -162.3,-1870.5 
					-320.9,-1870.5 				"/>
				<g transform="translate(6)">
					<path style="fill:none;stroke:#000000;stroke-miterlimit:10;" d="M-317.1-1909.7h0.1c1,0,1.8,0.8,1.8,1.8v34.7
						c0,1-0.8,1.8-1.8,1.8h-0.1c-1,0-1.8-0.8-1.8-1.8v-34.7C-318.9-1908.9-318.1-1909.7-317.1-1909.7z"/>
					<path style="fill:none;stroke:#000000;stroke-miterlimit:10;" d="M-298.3-1909.7h0.1c1,0,1.8,0.8,1.8,1.8v34.7
						c0,1-0.8,1.8-1.8,1.8h-0.1c-1,0-1.8-0.8-1.8-1.8v-34.7C-300.1-1908.9-299.3-1909.7-298.3-1909.7z"/>
					<path style="fill:none;stroke:#000000;stroke-miterlimit:10;" d="M-280-1909.7h0.1c1,0,1.8,0.8,1.8,1.8v34.7
						c0,1-0.8,1.8-1.8,1.8h-0.1c-1,0-1.8-0.8-1.8-1.8v-34.7C-281.9-1908.9-281.1-1909.7-280-1909.7z"/>
					<path style="fill:none;stroke:#000000;stroke-miterlimit:10;" d="M-261.3-1909.7h0.1c1,0,1.8,0.8,1.8,1.8v34.7
						c0,1-0.8,1.8-1.8,1.8h-0.1c-1,0-1.8-0.8-1.8-1.8v-34.7C-263.1-1908.9-262.3-1909.7-261.3-1909.7z"/>
					<path style="fill:none;stroke:#000000;stroke-miterlimit:10;" d="M-242.5-1909.7h0.1c1,0,1.8,0.8,1.8,1.8v34.7
						c0,1-0.8,1.8-1.8,1.8h-0.1c-1,0-1.8-0.8-1.8-1.8v-34.7C-244.3-1908.9-243.5-1909.7-242.5-1909.7z"/>
					<path style="fill:none;stroke:#000000;stroke-miterlimit:10;" d="M-223.7-1909.7h0.1c1,0,1.8,0.8,1.8,1.8v34.7
						c0,1-0.8,1.8-1.8,1.8h-0.1c-1,0-1.8-0.8-1.8-1.8v-34.7C-225.6-1908.9-224.7-1909.7-223.7-1909.7z"/>
					<path style="fill:none;stroke:#000000;stroke-miterlimit:10;" d="M-204.9-1909.7h0.1c1,0,1.8,0.8,1.8,1.8v34.7
						c0,1-0.8,1.8-1.8,1.8h-0.1c-1,0-1.8-0.8-1.8-1.8v-34.7C-206.8-1908.9-205.9-1909.7-204.9-1909.7z"/>
					<path style="fill:none;stroke:#000000;stroke-miterlimit:10;" d="M-187.8-1909.7h0.1c1,0,1.8,0.8,1.8,1.8v34.7
						c0,1-0.8,1.8-1.8,1.8h-0.1c-1,0-1.8-0.8-1.8-1.8v-34.7C-189.6-1908.9-188.8-1909.7-187.8-1909.7z"/>
					<path style="fill:none;stroke:#000000;stroke-miterlimit:10;" d="M-171.7-1909.7h0.1c1,0,1.8,0.8,1.8,1.8v34.7
						c0,1-0.8,1.8-1.8,1.8h-0.1c-1,0-1.8-0.8-1.8-1.8v-34.7C-173.5-1908.9-172.7-1909.7-171.7-1909.7z"/>
				</g>
				<g>
					<path style="fill:none;stroke:#000000;stroke-miterlimit:10;" d="M-312.6-1909.7h0.1c1,0,1.8,0.8,1.8,1.8v34.7
						c0,1-0.8,1.8-1.8,1.8h-0.1c-1,0-1.8-0.8-1.8-1.8v-34.7C-314.5-1908.9-313.7-1909.7-312.6-1909.7z"/>
					<path style="fill:none;stroke:#000000;stroke-miterlimit:10;" d="M-293.9-1909.7h0.1c1,0,1.8,0.8,1.8,1.8v34.7
						c0,1-0.8,1.8-1.8,1.8h-0.1c-1,0-1.8-0.8-1.8-1.8v-34.7C-295.7-1908.9-294.9-1909.7-293.9-1909.7z"/>
					<path style="fill:none;stroke:#000000;stroke-miterlimit:10;" d="M-275.6-1909.7h0.1c1,0,1.8,0.8,1.8,1.8v34.7
						c0,1-0.8,1.8-1.8,1.8h-0.1c-1,0-1.8-0.8-1.8-1.8v-34.7C-277.5-1908.9-276.6-1909.7-275.6-1909.7z"/>
					<path style="fill:none;stroke:#000000;stroke-miterlimit:10;" d="M-256.9-1909.7h0.1c1,0,1.8,0.8,1.8,1.8v34.7
						c0,1-0.8,1.8-1.8,1.8h-0.1c-1,0-1.8-0.8-1.8-1.8v-34.7C-258.7-1908.9-257.9-1909.7-256.9-1909.7z"/>
					<path style="fill:none;stroke:#000000;stroke-miterlimit:10;" d="M-238.1-1909.7h0.1c1,0,1.8,0.8,1.8,1.8v34.7
						c0,1-0.8,1.8-1.8,1.8h-0.1c-1,0-1.8-0.8-1.8-1.8v-34.7C-239.9-1908.9-239.1-1909.7-238.1-1909.7z"/>
					<path style="fill:none;stroke:#000000;stroke-miterlimit:10;" d="M-219.3-1909.7h0.1c1,0,1.8,0.8,1.8,1.8v34.7
						c0,1-0.8,1.8-1.8,1.8h-0.1c-1,0-1.8-0.8-1.8-1.8v-34.7C-221.1-1908.9-220.3-1909.7-219.3-1909.7z"/>
					<path style="fill:none;stroke:#000000;stroke-miterlimit:10;" d="M-200.5-1909.7h0.1c1,0,1.8,0.8,1.8,1.8v34.7
						c0,1-0.8,1.8-1.8,1.8h-0.1c-1,0-1.8-0.8-1.8-1.8v-34.7C-202.4-1908.9-201.5-1909.7-200.5-1909.7z"/>
					<path style="fill:none;stroke:#000000;stroke-miterlimit:10;" d="M-183.4-1909.7h0.1c1,0,1.8,0.8,1.8,1.8v34.7
						c0,1-0.8,1.8-1.8,1.8h-0.1c-1,0-1.8-0.8-1.8-1.8v-34.7C-185.2-1908.9-184.4-1909.7-183.4-1909.7z"/>
					<path style="fill:none;stroke:#000000;stroke-miterlimit:10;" d="M-167.3-1909.7h0.1c1,0,1.8,0.8,1.8,1.8v34.7
						c0,1-0.8,1.8-1.8,1.8h-0.1c-1,0-1.8-0.8-1.8-1.8v-34.7C-169.1-1908.9-168.3-1909.7-167.3-1909.7z"/>
				</g>
				<polygon style="fill:none;stroke:#000000;stroke-miterlimit:10;" points="-320.1,-1932 -161.5,-1932 -161.5,-1926.3 
					-320.1,-1926.3 				"/>
				<g>
					<path style="fill:none;stroke:#000000;stroke-miterlimit:10;" d="M-312.6-1909.7h0.1c1,0,1.8,0.8,1.8,1.8v34.7
						c0,1-0.8,1.8-1.8,1.8h-0.1c-1,0-1.8-0.8-1.8-1.8v-34.7C-314.5-1908.9-313.7-1909.7-312.6-1909.7z"/>
					<path style="fill:none;stroke:#000000;stroke-miterlimit:10;" d="M-293.9-1909.7h0.1c1,0,1.8,0.8,1.8,1.8v34.7
						c0,1-0.8,1.8-1.8,1.8h-0.1c-1,0-1.8-0.8-1.8-1.8v-34.7C-295.7-1908.9-294.9-1909.7-293.9-1909.7z"/>
					<path style="fill:none;stroke:#000000;stroke-miterlimit:10;" d="M-275.6-1909.7h0.1c1,0,1.8,0.8,1.8,1.8v34.7
						c0,1-0.8,1.8-1.8,1.8h-0.1c-1,0-1.8-0.8-1.8-1.8v-34.7C-277.5-1908.9-276.6-1909.7-275.6-1909.7z"/>
					<path style="fill:none;stroke:#000000;stroke-miterlimit:10;" d="M-256.9-1909.7h0.1c1,0,1.8,0.8,1.8,1.8v34.7
						c0,1-0.8,1.8-1.8,1.8h-0.1c-1,0-1.8-0.8-1.8-1.8v-34.7C-258.7-1908.9-257.9-1909.7-256.9-1909.7z"/>
					<path style="fill:none;stroke:#000000;stroke-miterlimit:10;" d="M-238.1-1909.7h0.1c1,0,1.8,0.8,1.8,1.8v34.7
						c0,1-0.8,1.8-1.8,1.8h-0.1c-1,0-1.8-0.8-1.8-1.8v-34.7C-239.9-1908.9-239.1-1909.7-238.1-1909.7z"/>
					<path style="fill:none;stroke:#000000;stroke-miterlimit:10;" d="M-219.3-1909.7h0.1c1,0,1.8,0.8,1.8,1.8v34.7
						c0,1-0.8,1.8-1.8,1.8h-0.1c-1,0-1.8-0.8-1.8-1.8v-34.7C-221.1-1908.9-220.3-1909.7-219.3-1909.7z"/>
					<path style="fill:none;stroke:#000000;stroke-miterlimit:10;" d="M-200.5-1909.7h0.1c1,0,1.8,0.8,1.8,1.8v34.7
						c0,1-0.8,1.8-1.8,1.8h-0.1c-1,0-1.8-0.8-1.8-1.8v-34.7C-202.4-1908.9-201.5-1909.7-200.5-1909.7z"/>
					<path style="fill:none;stroke:#000000;stroke-miterlimit:10;" d="M-183.4-1909.7h0.1c1,0,1.8,0.8,1.8,1.8v34.7
						c0,1-0.8,1.8-1.8,1.8h-0.1c-1,0-1.8-0.8-1.8-1.8v-34.7C-185.2-1908.9-184.4-1909.7-183.4-1909.7z"/>
					<path style="fill:none;stroke:#000000;stroke-miterlimit:10;" d="M-167.3-1909.7h0.1c1,0,1.8,0.8,1.8,1.8v34.7
						c0,1-0.8,1.8-1.8,1.8h-0.1c-1,0-1.8-0.8-1.8-1.8v-34.7C-169.1-1908.9-168.3-1909.7-167.3-1909.7z"/>
				</g>
				<polygon style="fill:none;stroke:#000000;stroke-miterlimit:10;" points="-320.1,-1926.9 -161.5,-1926.9 -161.5,-1909.4 
					-320.1,-1909.4 				"/>
			</g>
			<path style="fill:none;stroke:#000000;stroke-miterlimit:10;" d="M-1995.8-2096.3l91.9,53.1l-157.5,157.5l-94.5-54.6l157.7-157.7
				L-1995.8-2096.3z"/>
			<g transform="matrix(1 .57735 0 1 -1297 292.52)">
				<path style="fill:none;stroke:#000000;stroke-miterlimit:10;" d="M-765.1-1814h1.9c3,0,5.4,2.4,5.4,5.4v91c0,3-2.4,5.4-5.4,5.4
					h-1.9c-3,0-5.4-2.4-5.4-5.4v-91C-770.5-1811.6-768.1-1814-765.1-1814z"/>
				<path style="fill:none;stroke:#000000;stroke-miterlimit:10;" d="M-864.8-1814h1.7c3,0,5.4,2.4,5.4,5.4v91c0,3-2.4,5.4-5.4,5.4
					h-1.7c-3,0-5.4-2.4-5.4-5.4v-91C-870.3-1811.6-867.8-1814-864.8-1814z"/>
				<g transform="translate(4)">
					<path style="fill:none;stroke:#000000;stroke-miterlimit:10;" d="M-855.3-1772.8h0.4c0.9,0,1.7,0.8,1.7,1.7v32.2
						c0,0.9-0.8,1.7-1.7,1.7h-0.4c-0.9,0-1.7-0.8-1.7-1.7v-32.2C-857-1772-856.2-1772.8-855.3-1772.8z"/>
					<path style="fill:none;stroke:#000000;stroke-miterlimit:10;" d="M-837.3-1776.2L-837.3-1776.2c1.1,0,1.9,0.8,1.9,1.9v35.3
						c0,1-0.8,1.9-1.9,1.9h0c-1,0-1.9-0.8-1.9-1.9v-35.3C-839.2-1775.4-838.3-1776.2-837.3-1776.2z"/>
					<path style="fill:none;stroke:#000000;stroke-miterlimit:10;" d="M-797.8-1776.2L-797.8-1776.2c1.1,0,1.9,0.8,1.9,1.9v35.3
						c0,1-0.8,1.9-1.9,1.9h0c-1,0-1.9-0.8-1.9-1.9v-35.3C-799.7-1775.4-798.9-1776.2-797.8-1776.2z"/>
					<path style="fill:none;stroke:#000000;stroke-miterlimit:10;" d="M-781.3-1773.2h0.3c1,0,1.7,0.8,1.7,1.7v32.6
						c0,1-0.8,1.7-1.7,1.7h-0.3c-1,0-1.7-0.8-1.7-1.7v-32.6C-783-1772.4-782.2-1773.2-781.3-1773.2z"/>
					<path style="fill:none;stroke:#000000;stroke-miterlimit:10;" d="M-817.2-1777.4L-817.2-1777.4c1,0,1.9,0.9,1.9,1.9v36.3
						c0,1.1-0.8,1.9-1.9,1.9l0,0c-1,0-1.9-0.9-1.9-1.9v-36.3C-819.1-1776.5-818.2-1777.4-817.2-1777.4z"/>
				</g>
				<path style="fill:none;stroke:#000000;stroke-miterlimit:10;" d="M-876.3-1716.8c-0.8,1.7-1.6,3.5-2.3,5.2
					c9.2,0.3,18.5-0.1,27.7,0.2c0,0,0.1,0,0.1,0c1.3-1.9,2.8-3.7,4.5-5.4H-876.3L-876.3-1716.8z M-783.7-1716.8
					c1.4,1.8,2.9,3.5,4.2,5.3h28c-0.7-1.8-1.5-3.6-2.3-5.3H-783.7z"/>
				<path style="fill:none;stroke:#000000;stroke-miterlimit:10;" d="M-850.8-1711.8c-9.2,0.3-18.5-0.1-27.7,0.2
					c7.8,20.7,26.7,36.3,48.2,41c21.5,4.9,45.3-1,61.7-16c7.6-6.9,13.6-15.5,17.2-25h-28c-9.9,15-30,22.1-47.2,17
					c-9.7-2.7-18.3-8.9-24-17.1C-850.7-1711.8-850.8-1711.8-850.8-1711.8L-850.8-1711.8z"/>
				<path style="fill:none;stroke:#000000;stroke-miterlimit:10;" d="M-846.3-1716.8c16.8,25.7,50.6,20.1,62.6,0l4.2,5.1
					c-13.4,22.5-51.9,27.5-71.2-0.1L-846.3-1716.8z"/>
				<polygon style="fill:none;stroke:#000000;stroke-miterlimit:10;" points="-862.8,-1740.3 -770.2,-1740.3 -770.2,-1722.9 
					-862.8,-1722.9 				"/>
				<path style="fill:none;stroke:#000000;stroke-miterlimit:10;" d="M-815.2-1816.4c-20.1,0.1-45.3,13.7-45.3,13.7v28.8
					c35.3-10.1,65.3-8.1,92.6,0v-28.8c0,0-30.5-13.4-46.3-13.7C-814.5-1816.4-814.9-1816.4-815.2-1816.4L-815.2-1816.4z
					 M-819.8-1807.4c2.6,0,5.2,1.7,5.5,6c0.8-9,11.4-6.4,11.4-1.1c0,10.1-11.4,14.1-11.4,14.1s-11.3-4-11.3-14.1
					C-825.6-1805.4-822.7-1807.4-819.8-1807.4z"/>
				<path style="fill:none;stroke:#000000;stroke-miterlimit:10;" d="M-865.1-1811.5L-865.1-1811.5c2.9,0,5.3,2.4,5.3,5.3v88.8
					c0,2.9-2.4,5.3-5.3,5.3l0,0c-2.9,0-5.3-2.4-5.3-5.3v-88.8C-870.4-1809.1-868-1811.5-865.1-1811.5z"/>
				<path style="fill:none;stroke:#000000;stroke-miterlimit:10;" d="M-764.9-1811.5L-764.9-1811.5c2.9,0,5.3,2.4,5.3,5.3v88.8
					c0,2.9-2.4,5.3-5.3,5.3l0,0c-2.9,0-5.3-2.4-5.3-5.3v-88.8C-770.2-1809.1-767.8-1811.5-764.9-1811.5z"/>
				<polygon style="fill:none;stroke:#000000;stroke-miterlimit:10;" points="-862.8,-1737.1 -770.2,-1737.1 -770.2,-1719.7 
					-862.8,-1719.7 				"/>
				<path style="fill:none;stroke:#000000;stroke-miterlimit:10;" d="M-815.2-1813c-20.1,0.1-45.3,13.7-45.3,13.7v28.8
					c35.3-10.1,65.3-8.1,92.6,0v-28.8c0,0-30.5-13.4-46.3-13.7C-814.5-1813-814.9-1813-815.2-1813L-815.2-1813z M-819.8-1804.1
					c2.6,0,5.2,1.7,5.5,6c0.8-9,11.4-6.4,11.4-1.1c0,10.1-11.4,14.1-11.4,14.1s-11.3-4-11.3-14.1
					C-825.6-1802.1-822.7-1804.1-819.8-1804.1z"/>
				<g>
					<path style="fill:none;stroke:#000000;stroke-miterlimit:10;" d="M-852.3-1772.8h0.4c0.9,0,1.7,0.8,1.7,1.7v32.2
						c0,0.9-0.8,1.7-1.7,1.7h-0.4c-0.9,0-1.7-0.8-1.7-1.7v-32.2C-854-1772-853.3-1772.8-852.3-1772.8z"/>
					<path style="fill:none;stroke:#000000;stroke-miterlimit:10;" d="M-834.3-1776.2L-834.3-1776.2c1.1,0,1.9,0.8,1.9,1.9v35.3
						c0,1-0.8,1.9-1.9,1.9h0c-1,0-1.9-0.8-1.9-1.9v-35.3C-836.2-1775.4-835.4-1776.2-834.3-1776.2z"/>
					<path style="fill:none;stroke:#000000;stroke-miterlimit:10;" d="M-794.9-1776.2L-794.9-1776.2c1.1,0,1.9,0.8,1.9,1.9v35.3
						c0,1-0.8,1.9-1.9,1.9h0c-1,0-1.9-0.8-1.9-1.9v-35.3C-796.8-1775.4-795.9-1776.2-794.9-1776.2z"/>
					<path style="fill:none;stroke:#000000;stroke-miterlimit:10;" d="M-778.3-1773.2h0.3c1,0,1.7,0.8,1.7,1.7v32.6
						c0,1-0.8,1.7-1.7,1.7h-0.3c-1,0-1.7-0.8-1.7-1.7v-32.6C-780.1-1772.4-779.3-1773.2-778.3-1773.2z"/>
					<path style="fill:none;stroke:#000000;stroke-miterlimit:10;" d="M-814.2-1777.4L-814.2-1777.4c1,0,1.9,0.9,1.9,1.9v36.3
						c0,1.1-0.8,1.9-1.9,1.9l0,0c-1,0-1.9-0.9-1.9-1.9v-36.3C-816.1-1776.5-815.3-1777.4-814.2-1777.4z"/>
				</g>
			</g>
			<g transform="matrix(1 -1 0 1 -1447 -198.57)">
				<polygon style="fill:none;stroke:#000000;stroke-miterlimit:10;" points="-608.4,-2301.7 -449.8,-2301.7 -449.8,-2284.3 
					-608.4,-2284.3 				"/>
				<polygon style="fill:none;stroke:#000000;stroke-miterlimit:10;" points="-608.4,-2306.5 -449.9,-2306.5 -449.9,-2300.8 
					-608.4,-2300.8 				"/>
				<g transform="translate(6)">
					<path style="fill:none;stroke:#000000;stroke-miterlimit:10;" d="M-604.6-2340h0.1c1,0,1.8,0.8,1.8,1.8v34.7
						c0,1-0.8,1.8-1.8,1.8h-0.1c-1,0-1.8-0.8-1.8-1.8v-34.7C-606.4-2339.2-605.6-2340-604.6-2340z"/>
					<path style="fill:none;stroke:#000000;stroke-miterlimit:10;" d="M-585.8-2340h0.1c1,0,1.8,0.8,1.8,1.8v34.7
						c0,1-0.8,1.8-1.8,1.8h-0.1c-1,0-1.8-0.8-1.8-1.8v-34.7C-587.7-2339.2-586.8-2340-585.8-2340z"/>
					<path style="fill:none;stroke:#000000;stroke-miterlimit:10;" d="M-567.6-2340h0.1c1,0,1.8,0.8,1.8,1.8v34.7
						c0,1-0.8,1.8-1.8,1.8h-0.1c-1,0-1.8-0.8-1.8-1.8v-34.7C-569.4-2339.2-568.6-2340-567.6-2340z"/>
					<path style="fill:none;stroke:#000000;stroke-miterlimit:10;" d="M-548.8-2340h0.1c1,0,1.8,0.8,1.8,1.8v34.7
						c0,1-0.8,1.8-1.8,1.8h-0.1c-1,0-1.8-0.8-1.8-1.8v-34.7C-550.6-2339.2-549.8-2340-548.8-2340z"/>
					<path style="fill:none;stroke:#000000;stroke-miterlimit:10;" d="M-530-2340h0.1c1,0,1.8,0.8,1.8,1.8v34.7c0,1-0.8,1.8-1.8,1.8
						h-0.1c-1,0-1.8-0.8-1.8-1.8v-34.7C-531.9-2339.2-531-2340-530-2340z"/>
					<path style="fill:none;stroke:#000000;stroke-miterlimit:10;" d="M-511.3-2340h0.1c1,0,1.8,0.8,1.8,1.8v34.7
						c0,1-0.8,1.8-1.8,1.8h-0.1c-1,0-1.8-0.8-1.8-1.8v-34.7C-513.1-2339.2-512.3-2340-511.3-2340z"/>
					<path style="fill:none;stroke:#000000;stroke-miterlimit:10;" d="M-492.5-2340h0.1c1,0,1.8,0.8,1.8,1.8v34.7
						c0,1-0.8,1.8-1.8,1.8h-0.1c-1,0-1.8-0.8-1.8-1.8v-34.7C-494.3-2339.2-493.5-2340-492.5-2340z"/>
					<path style="fill:none;stroke:#000000;stroke-miterlimit:10;" d="M-475.3-2340h0.1c1,0,1.8,0.8,1.8,1.8v34.7
						c0,1-0.8,1.8-1.8,1.8h-0.1c-1,0-1.8-0.8-1.8-1.8v-34.7C-477.2-2339.2-476.3-2340-475.3-2340z"/>
					<path style="fill:none;stroke:#000000;stroke-miterlimit:10;" d="M-459.2-2340h0.1c1,0,1.8,0.8,1.8,1.8v34.7
						c0,1-0.8,1.8-1.8,1.8h-0.1c-1,0-1.8-0.8-1.8-1.8v-34.7C-461.1-2339.2-460.2-2340-459.2-2340z"/>
				</g>
				<g>
					<path style="fill:none;stroke:#000000;stroke-miterlimit:10;" d="M-600.2-2340h0.1c1,0,1.8,0.8,1.8,1.8v34.7
						c0,1-0.8,1.8-1.8,1.8h-0.1c-1,0-1.8-0.8-1.8-1.8v-34.7C-602-2339.2-601.2-2340-600.2-2340z"/>
					<path style="fill:none;stroke:#000000;stroke-miterlimit:10;" d="M-581.4-2340h0.1c1,0,1.8,0.8,1.8,1.8v34.7
						c0,1-0.8,1.8-1.8,1.8h-0.1c-1,0-1.8-0.8-1.8-1.8v-34.7C-583.3-2339.2-582.4-2340-581.4-2340z"/>
					<path style="fill:none;stroke:#000000;stroke-miterlimit:10;" d="M-563.2-2340h0.1c1,0,1.8,0.8,1.8,1.8v34.7
						c0,1-0.8,1.8-1.8,1.8h-0.1c-1,0-1.8-0.8-1.8-1.8v-34.7C-565-2339.2-564.2-2340-563.2-2340z"/>
					<path style="fill:none;stroke:#000000;stroke-miterlimit:10;" d="M-544.4-2340h0.1c1,0,1.8,0.8,1.8,1.8v34.7
						c0,1-0.8,1.8-1.8,1.8h-0.1c-1,0-1.8-0.8-1.8-1.8v-34.7C-546.2-2339.2-545.4-2340-544.4-2340z"/>
					<path style="fill:none;stroke:#000000;stroke-miterlimit:10;" d="M-525.6-2340h0.1c1,0,1.8,0.8,1.8,1.8v34.7
						c0,1-0.8,1.8-1.8,1.8h-0.1c-1,0-1.8-0.8-1.8-1.8v-34.7C-527.5-2339.2-526.6-2340-525.6-2340z"/>
					<path style="fill:none;stroke:#000000;stroke-miterlimit:10;" d="M-506.8-2340h0.1c1,0,1.8,0.8,1.8,1.8v34.7
						c0,1-0.8,1.8-1.8,1.8h-0.1c-1,0-1.8-0.8-1.8-1.8v-34.7C-508.7-2339.2-507.9-2340-506.8-2340z"/>
					<path style="fill:none;stroke:#000000;stroke-miterlimit:10;" d="M-488.1-2340h0.1c1,0,1.8,0.8,1.8,1.8v34.7
						c0,1-0.8,1.8-1.8,1.8h-0.1c-1,0-1.8-0.8-1.8-1.8v-34.7C-489.9-2339.2-489.1-2340-488.1-2340z"/>
					<path style="fill:none;stroke:#000000;stroke-miterlimit:10;" d="M-470.9-2340h0.1c1,0,1.8,0.8,1.8,1.8v34.7
						c0,1-0.8,1.8-1.8,1.8h-0.1c-1,0-1.8-0.8-1.8-1.8v-34.7C-472.7-2339.2-471.9-2340-470.9-2340z"/>
					<path style="fill:none;stroke:#000000;stroke-miterlimit:10;" d="M-454.8-2340h0.1c1,0,1.8,0.8,1.8,1.8v34.7
						c0,1-0.8,1.8-1.8,1.8h-0.1c-1,0-1.8-0.8-1.8-1.8v-34.7C-456.6-2339.2-455.8-2340-454.8-2340z"/>
				</g>
				<polygon style="fill:none;stroke:#000000;stroke-miterlimit:10;" points="-607.6,-2362.3 -449.1,-2362.3 -449.1,-2356.6 
					-607.6,-2356.6 				"/>
				<g>
					<path style="fill:none;stroke:#000000;stroke-miterlimit:10;" d="M-600.2-2340h0.1c1,0,1.8,0.8,1.8,1.8v34.7
						c0,1-0.8,1.8-1.8,1.8h-0.1c-1,0-1.8-0.8-1.8-1.8v-34.7C-602-2339.2-601.2-2340-600.2-2340z"/>
					<path style="fill:none;stroke:#000000;stroke-miterlimit:10;" d="M-581.4-2340h0.1c1,0,1.8,0.8,1.8,1.8v34.7
						c0,1-0.8,1.8-1.8,1.8h-0.1c-1,0-1.8-0.8-1.8-1.8v-34.7C-583.3-2339.2-582.4-2340-581.4-2340z"/>
					<path style="fill:none;stroke:#000000;stroke-miterlimit:10;" d="M-563.2-2340h0.1c1,0,1.8,0.8,1.8,1.8v34.7
						c0,1-0.8,1.8-1.8,1.8h-0.1c-1,0-1.8-0.8-1.8-1.8v-34.7C-565-2339.2-564.2-2340-563.2-2340z"/>
					<path style="fill:none;stroke:#000000;stroke-miterlimit:10;" d="M-544.4-2340h0.1c1,0,1.8,0.8,1.8,1.8v34.7
						c0,1-0.8,1.8-1.8,1.8h-0.1c-1,0-1.8-0.8-1.8-1.8v-34.7C-546.2-2339.2-545.4-2340-544.4-2340z"/>
					<path style="fill:none;stroke:#000000;stroke-miterlimit:10;" d="M-525.6-2340h0.1c1,0,1.8,0.8,1.8,1.8v34.7
						c0,1-0.8,1.8-1.8,1.8h-0.1c-1,0-1.8-0.8-1.8-1.8v-34.7C-527.5-2339.2-526.6-2340-525.6-2340z"/>
					<path style="fill:none;stroke:#000000;stroke-miterlimit:10;" d="M-506.8-2340h0.1c1,0,1.8,0.8,1.8,1.8v34.7
						c0,1-0.8,1.8-1.8,1.8h-0.1c-1,0-1.8-0.8-1.8-1.8v-34.7C-508.7-2339.2-507.9-2340-506.8-2340z"/>
					<path style="fill:none;stroke:#000000;stroke-miterlimit:10;" d="M-488.1-2340h0.1c1,0,1.8,0.8,1.8,1.8v34.7
						c0,1-0.8,1.8-1.8,1.8h-0.1c-1,0-1.8-0.8-1.8-1.8v-34.7C-489.9-2339.2-489.1-2340-488.1-2340z"/>
					<path style="fill:none;stroke:#000000;stroke-miterlimit:10;" d="M-470.9-2340h0.1c1,0,1.8,0.8,1.8,1.8v34.7
						c0,1-0.8,1.8-1.8,1.8h-0.1c-1,0-1.8-0.8-1.8-1.8v-34.7C-472.7-2339.2-471.9-2340-470.9-2340z"/>
					<path style="fill:none;stroke:#000000;stroke-miterlimit:10;" d="M-454.8-2340h0.1c1,0,1.8,0.8,1.8,1.8v34.7
						c0,1-0.8,1.8-1.8,1.8h-0.1c-1,0-1.8-0.8-1.8-1.8v-34.7C-456.6-2339.2-455.8-2340-454.8-2340z"/>
				</g>
				<polygon style="fill:none;stroke:#000000;stroke-miterlimit:10;" points="-607.6,-2357.1 -449.1,-2357.1 -449.1,-2339.7 
					-607.6,-2339.7 				"/>
			</g>
		</g>
	</g>
</g>
</svg>
