<?xml version="1.0" encoding="utf-8"?>
<!-- Generator: Adobe Illustrator 22.1.0, SVG Export Plug-In . SVG Version: 6.00 Build 0)  -->
<svg version="1.1" id="Layer_1" xmlns="http://www.w3.org/2000/svg" xmlns:xlink="http://www.w3.org/1999/xlink" x="0px" y="0px"
	 viewBox="0 0 1256 1280" style="enable-background:new 0 0 1256 1280;" xml:space="preserve">
<g transform="translate(0.000000,1280.000000) scale(0.100000,-0.100000)">
	<path d="M8940,12791c-382-42-805-196-1209-443l-74-46l-146,49c-574,193-815,245-1091,236c-177-5-292-27-578-108
		c-389-111-530-135-739-126c-141,6-205,17-518,92c-237,56-372,70-535,56c-375-33-751-131-1029-270l-77-38l-129,79
		c-747,454-1542,612-2150,427c-379-116-591-337-651-681c-28-160-6-379,56-545c47-127,127-266,342-593c210-320,328-537,416-760
		c44-114,44-115,27-145c-98-167-197-384-264-578c-113-327-139-492-171-1060c-18-322-31-482-45-572c-3-16-32-178-64-360
		c-100-555-121-727-121-1000c0-570,151-1080,434-1463c109-147,325-363,388-387c39-14,51-15,63-5c41,34,4,118-104,236
		c-232,253-399,539-510,871c-110,329-123,499-76,1013c35,382,91,758,174,1175c50,249,57,307,76,680c24,455,43,573,131,794
		c139,349,369,744,670,1149c940,1261,1350,1588,2279,1818c307,77,411,73,821-26c327-80,420-93,609-87c191,5,252,19,566,133
		c398,144,515,169,749,161c220-8,356-40,805-189c132-44,241-81,242-82s-16-29-37-61c-22-33-40-72-40-87c0-51,70-89,125-68
		c14,5,78,63,143,128c233,235,497,365,834,411c66,9,83,8,132-9c93-32,225-97,311-155c89-59,195-165,195-195c0-11-27-39-65-69
		c-36-28-65-55-65-60c0-4,9-16,20-26c16-14,45-19,147-24c133-7,153-13,191-54l23-24l-113-39c-228-78-448-203-610-346
		c-112-99-241-266-307-395l-21-42l67-47c205-146,361-353,447-592c63-175,89-432,67-655l-11-117l46-83c135-239,174-260,197-104
		c10,68,8,82-16,174c-31,114-34,165-11,208c8,16,94,106,191,200c375,362,587,635,752,966c223,447,250,871,80,1225
		c-73,153-169,263-308,352c-117,75-284,137-447,167C9321,12794,9049,12802,8940,12791z M1780,12509c280-55,618-177,950-344l92-46
		l-140-95c-185-126-376-280-527-425c-67-66-126-119-129-119c-4,0-19,15-34,32c-215,259-465,439-743,533c-152,52-225,146-169,217
		c22,29,136,90,257,137c108,43,172,85,186,121c10,27,13,28,61,23C1612,12540,1700,12525,1780,12509z M870,11995
		c246-38,472-138,705-313c91-67,311-274,347-325l21-29l-75-76c-243-249-512-593-764-976c-57-87-80-115-86-105c-5,8-43,77-85,154
		c-41,77-155,275-253,440c-97,165-215,370-263,456c-154,278-247,517-247,634c0,61-4,58,145,100C504,12008,696,12022,870,11995z
		 M10095,11700c-1-164-16-255-71-420c-90-270-281-564-556-857c-117-125-356-353-369-353c-5,0-9,45-9,99c0,337-139,676-386,939
		c-85,91-86,94-73,120c8,15,73,86,144,158c174,175,314,268,525,349c193,74,429,114,660,112l135-2V11700z"/>
	<path d="M5934,12095c-259-38-584-152-728-255c-44-32-46-32-138-28c-65,3-132,16-223,41c-188,52-242,58-520,58
		c-564,0-946-97-1308-334c-165-108-322-250-315-285c7-32,63-17,170,48c231,138,521,272,743,343c248,80,407,98,815,93
		c332-3,330-3,409-65c18-14,84-62,145-106c116-84,156-129,156-176c0-64-93-77-232-33c-234,74-522,73-908-5c-80-16-174-32-210-36
		c-87-9-160-30-239-69c-36-19-129-57-206-86c-214-80-278-113-340-171c-85-80-92-141-22-193c24-18,42-21,108-20c43,1,79-2,79-7
		c0-4-17-21-37-36c-104-77-197-193-174-216c19-19,118,20,170,66c25,23,56,50,68,60c12,11,54,25,93,33c81,15,145,48,185,95
		c14,18,48,75,75,128c71,142,110,172,257,192c77,11,149,34,317,104c125,52,255,78,396,78c120,0,171-9,265-44c112-42,155-104,155-229
		c0-137-28-158-228-171c-209-13-351-41-571-114c-108-35-234-71-281-79s-104-21-128-30c-62-22-170-95-264-179c-46-40-120-103-164-140
		c-89-73-122-123-104-157c20-36,87-21,170,39c47,34,71,39,89,17c10-11,3-33-33-104c-75-149-82-222-21-222c77,0,134,56,181,178
		c66,173,91,198,185,182c65-10,187,4,244,29c22,10,78,48,125,85c108,86,153,109,287,145c59,16,142,43,185,60c42,17,95,31,117,31
		c35,0,43-4,51-26c7-18,7-39-1-67c-25-96-92-172-216-246c-58-34-83-43-147-50c-79-9-85-12-156-78c-20-18-63-44-97-57
		c-160-62-446-339-529-512c-37-78-42-105-19-124c22-18,102,14,139,56c18,21,54,43,97,59c55,21,83,41,149,105c45,43,101,89,126,101
		c43,20,46,21,64,4c11-10,20-28,20-39c1-31,52-99,83-110c35-13,68,17,109,99c46,92,85,135,146,163c49,22,64,24,140,19l86-5l70,61
		c120,105,127,123,76,172c-41,39-55,85-40,130c6,19,20,40,30,45c53,28,146-3,230-78c53-46,101-72,213-113c93-34,153-67,215-116
		c49-40,65-68,81-142c8-37,26-73,56-113c45-59,45-61,45-141c1-47,6-92,13-105c15-27,101-80,172-108c67-25,170-26,208,0
		c60,41,44,104-54,212c-55,60-69,83-67,103c5,41,43,53,125,40c53-8,87-8,153,3l85,14l57-29c73-36,117-34,136,6c11,23,11,34,2,58
		c-37,89-239,192-409,208c-84,8-88,10-186,73c-123,81-194,117-310,158c-49,17-109,44-133,60c-26,17-78,37-133,49
		c-104,24-149,45-240,112c-37,27-71,49-76,49c-17,0-43,35-43,58c0,11,12,34,26,51c22,26,33,31,72,31c26,0,94-9,152-20
		c97-19,116-20,237-9c120,11,139,10,200-6c112-30,193-72,255-131c51-49,143-104,176-104c25,0,11,35-31,74c-51,47-67,74-67,110
		c0,33,32,50,86,43c70-7,126-48,194-140c63-84,297-347,310-347s30,51,30,94c0,180-220,442-488,579c-204,105-490,174-834,202
		c-96,8-123,26-123,82c0,51,42,122,94,157c89,62,338,124,531,133c158,7,278-18,415-86c184-91,309-212,532-509c71-94,125-157,141-163
		c86-33,178,67,151,164c-42,152-389,493-644,632c-193,106-363,149-585,148c-171,0-281-18-450-73c-105-34-151-37-199-12
		c-51,25-76,65-75,117c1,51,24,92,62,107c15,6,54,23,87,39c34,16,125,41,210,59c150,31,185,44,358,136c120,64,219,64,543-1
		c97-19,242-42,323-50c166-17,230-28,338-56c92-23,183-26,183-5c0,49-35,71-205,126c-71,23-175,63-230,87c-149,68-248,83-555,82
		C6123,12108,5989,12103,5934,12095z"/>
	<path d="M7120,11527c-46-23-38-55,43-173c131-192,232-378,336-621c150-351,209-630,266-1246c38-419,33-526-32-637
		c-35-60-117-145-165-172c-21-12-38-27-38-34s20-37,45-67c25-31,45-66,45-78c0-69-276-331-407-386c-77-32-340-104-403-110
		c-83-8-115-36-106-91c9-60,102-241,128-251c35-13,57-2,86,43c38,61,63,86,84,86c10,0,51,22,91,49c39,27,104,67,142,89
		c71,41,84,51,144,116c40,44,97,74,211,111c47,15,120,43,162,61c72,33,79,34,110,21c18-8,48-32,66-53c68-80,73-84,108-84
		c55,0,68,49,38,150c-13,45-14,62-3,116c11,57,10,74-10,169c-20,93-22,122-16,238c6,101,3,153-9,225c-31,179-16,241,57,242
		c35,0,77-40,77-73c0-31,36-77,60-77c42,0,48,47,24,197c-57,358-125,544-429,1158c-222,449-337,649-548,952c-68,98-108,143-127,143
		C7147,11540,7134,11534,7120,11527z"/>
	<path d="M2644,10736c-9-15-27-80-40-145s-35-154-48-197c-14-44-48-159-76-257s-76-245-106-325c-86-227-94-264-104-522
		c-5-130-16-263-25-315c-28-147-5-299,70-475c39-90,40-108,23-209c-10-56-9-77,2-111c17-50,39-66,105-75c71-11,81-18,132-98
		c80-125,118-164,176-183c63-20,82-37,157-134c75-98,100-120,143-127c42-6,59,13,78,92c6,28,18,60,26,73c23,37,29,152,10,188
		c-23,45-37,53-117,70c-92,19-259,108-341,182c-33,30-94,95-136,145c-42,51-91,107-110,126c-37,38-44,82-18,131c22,43,53,60,111,60
		c46,0,58-5,118-51c38-28,82-72,99-97c62-90,128-151,201-187s175-58,250-54c53,3,89-20,124-80c30-50,28-19,20-391l-3-125l-43-77
		l-42-77l27-18c81-53,218,29,289,172c64,133,46,391-52,734c-19,69-47,145-62,170c-47,81-152,175-249,223l-87,43h-180
		c-225,0-236,4-350,132c-99,112-161,212-198,320c-28,80-30,94-26,192c6,120,19,170,129,484c121,345,169,548,169,713c0,59-4,85-14,93
		C2664,10759,2658,10756,2644,10736z M3026,8728c-31-100-6-180,70-224c38-23,54-26,104-22c41,3,70,11,90,26c16,12,32,22,35,22
		c14,0,46-92,51-148l7-59l-39-6c-22-4-75-7-119-7c-233,0-381,118-409,325l-7,51l39,22c44,24,99,39,151,41
		C3029,8750,3032,8748,3026,8728z"/>
	<path d="M2173,10595c-80-68-295-355-392-522c-59-103-52-168,15-133c22,12,308,425,396,573C2260,10627,2252,10662,2173,10595z"/>
	<path d="M8305,10166c-38-28-24-85,90-361c119-288,188-469,247-655c22-69,59-161,83-205c49-91,81-196,125-403c93-441,94-774,4-1367
		c-82-546-156-847-249-1020c-29-54-54-121-75-205c-49-188-67-220-250-436c-87-103-103-118-219-197c-47-33-106-78-131-101
		c-25-24-58-51-75-61c-91-55-349-326-397-416c-31-57-36-127-15-189c31-91,105-20,228,220c42,83,70,121,129,181
		c91,93,161,128,322,165c358,82,394,108,447,315c27,108,35,125,119,255c406,632,552,1074,552,1674c1,226-15,318-136,815
		c-159,657-210,843-313,1147c-104,306-278,713-336,785C8404,10171,8344,10195,8305,10166z"/>
	<path d="M5034,10075c-28-43-13-96,49-178c91-121,175-205,277-278c91-64,160-130,186-174c17-30,48,83,41,150c-7,73-37,125-134,237
		c-82,94-134,138-165,138c-8,0-41,23-74,51C5122,10102,5063,10120,5034,10075z"/>
	<path d="M1610,9803c-42-42-51-60-74-138c-44-146-52-164-137-295c-106-163-136-228-155-333c-8-48-40-167-70-264
		c-72-230-93-329-104-482c-11-155,0-334,37-586c21-149,27-221,25-331c-2-136-1-144,25-200l28-59v-345c1-331,2-351,28-490
		c15-80,31-212,37-295c25-369,43-478,103-647c44-122,91-207,169-304c100-125,275-267,416-338c40-20,180-56,220-56c2,0,28-25,57-55
		c44-46,58-55,87-55c39,0,78,33,78,67c0,11-11,45-24,75c-18,41-24,72-24,120c2,105-17,132-144,198c-192,100-483,362-551,495
		c-19,39-51,96-70,128c-38,62-50,115-67,287c-6,58-26,177-45,265c-73,346-84,496-96,1420c-5,385-12,800-15,922
		c-12,411,14,527,185,815c126,213,186,372,179,475c-3,41-6,48-26,51C1665,9851,1645,9838,1610,9803z"/>
	<path d="M4849,9767c-24-13-71-40-103-60c-33-20-65-37-70-37c-50,0-95-28-185-114c-94-90-98-93-153-99c-114-11-253-109-279-195
		c-14-50-6-64,77-128c69-54,83-75,84-129c1-82,28-135,70-135c7,0,44,33,84,73c39,39,104,101,144,136c62,54,79,76,117,154
		c44,89,44,91,27,115c-52,74-53,75-35,94c9,10,59,32,112,48c59,19,119,46,155,70c62,43,95,49,120,24c23-22,20-102-5-159l-21-47
		l21-21c21-21,34-23,148-16c27,2,42-7,87-49c30-29,60-52,65-52c6,0,33-45,61-100c27-54,59-104,69-110c26-14,53,21,81,105
		c12,36,26,67,30,70c11,7,59-17,111-55c58-42,96-55,114-40c20,17,36,79,26,99c-5,9-47,38-93,66c-45,27-100,67-121,88
		c-29,30-43,38-60,33c-65-19-75-18-94,4c-45,56-52,60-105,60h-53l-150,153c-82,85-160,159-172,166C4921,9795,4899,9793,4849,9767z"
		/>
	<path d="M3053,9365c-29-8-88-33-132-55c-51-25-94-40-118-40c-65,0-112-18-128-50c-15-28-14-29,37-74c29-25,84-63,123-83
		c61-33,79-38,140-38c58,0,86,6,165,39c77,31,104,37,143,33c66-6,137-57,249-179c50-54,97-98,104-98c17,0,28,42,21,80
		c-7,32-78,162-158,288c-64,101-107,139-168,148c-25,4-62,13-82,20C3188,9377,3109,9381,3053,9365z"/>
	<path d="M6689,9243c-130-135-203-232-280-368l-33-59l63,52c88,74,152,104,231,110c87,6,254-22,324-54c74-34,106-28,182,34
		c33,26,100,65,152,87c115,49,162,85,162,125c0,49-29,60-155,60c-61,0-141,7-180,16c-130,28-300,62-345,68l-46,7L6689,9243z"/>
	<path d="M9157,9193c-18-17,3-45,121-162c334-329,467-575,528-976c9-66,133-169,180-151c15,6,16,19,11,99c-13,221-105,457-265,681
		c-83,116-259,294-406,412C9206,9192,9174,9211,9157,9193z"/>
	<path d="M1793,9080c-47-28-64-62-91-174c-21-91-24-131-29-394c-8-423,18-822,67-1044c41-183,99-324,201-490
		c116-189,147-283,134-411c-9-99-32-163-71-207c-52-57-105-74-212-67c-104,6-148-7-158-49c-4-15-3-34,3-42c5-8,49-32,99-52
		c49-20,238-105,420-188c182-84,338-152,346-152s27,9,42,21c36,28,36,99,1,169c-46,90-95,340-95,481c0,72,25,206,50,263
		c24,58,76,114,172,188c104,81,208,199,208,238c0,53-52,81-113,61c-18-6-56-31-84-54c-125-107-214-158-309-178
		c-270-55-444,297-495,1006c-11,157-6,853,7,992c5,53,3,64-15,82C1845,9105,1834,9105,1793,9080z"/>
	<path d="M5997,9059c-22-13-47-61-47-92c0-13-18-52-40-88c-93-148-104-178-104-259c0-87,24-148,85-212c29-31,43-39,66-36l28,3l-4,79
		c-5,119,6,179,39,221c17,22,33,59,40,93c7,31,26,83,42,114l30,57l-17,50C6092,9060,6046,9087,5997,9059z"/>
	<path d="M3871,8989c-22-39-23-47-16-157c4-65,16-144,26-177c22-70,130-258,162-280c41-29,82-13,101,40c9,25-11,214-29,280
		c-11,38-30,66-79,116c-50,52-68,79-80,120c-17,55-41,99-54,99C3897,9030,3883,9012,3871,8989z"/>
	<path d="M8423,8863c-21-16-78-69-126-119c-83-87-87-93-87-136c0-27,10-68,25-100c52-114,67-199,72-405c8-296-13-435-111-743
		c-31-96-63-213-72-260c-50-275-119-397-245-434c-149-45-292,12-404,161c-7,9-10-9-10-59c-1-131-57-255-164-363
		c-92-93-160-105-255-45l-47,30l7-37c16-92,92-183,153-183c14,0,53,18,86,41c108,72,133,82,194,76c111-12,258-112,313-214
		c51-94,57-221,16-353c-40-130-112-237-305-454c-62-70-113-135-113-146s9-24,20-30c34-18,94,6,174,70c168,136,296,308,375,503
		c20,51,57,126,82,167c69,114,84,161,83,260c0,47-6,126-13,175c-25,190-27,169,19,219c34,37,43,55,55,117c8,41,32,115,54,165
		c54,125,80,213,87,298c9,101,18,135,84,281c63,143,89,218,120,345c35,141,74,963,54,1113c-7,50-34,87-63,87
		C8471,8890,8445,8878,8423,8863z"/>
	<path d="M6725,8771c-147-42-247-115-356-260c-145-193-222-377-222-533c-1-71,3-84,41-161c44-90,133-187,171-187c42,0,58,31,65,126
		c9,105,41,323,56,376c12,41,51,92,83,110c12,6,64,12,117,14c156,4,301,46,434,127c67,40,198,141,238,184l28,29l-53,39
		c-75,57-208,121-287,139C6949,8795,6802,8793,6725,8771z M7084,8686c28-13,69-39,91-58l39-35l-18-27c-63-97-166-172-290-212
		c-114-37-277-38-386-2l-75,24l3,35c5,73,34,131,91,191c60,61,81,71,81,38c0-56,58-118,126-135c121-30,224,44,224,163v55l32-7
		C7019,8713,7057,8699,7084,8686z"/>
	<path d="M2104,7946c-14-56,31-129,91-149c35-11,44-21,71-76c27-56,38-68,106-111c42-27,87-63,99-79c25-35,92-71,130-71
		c39,0,69,27,69,61c0,72-75,146-173,173c-34,9-94,34-132,55c-67,35-72,41-106,111c-42,85-68,110-115,110
		C2117,7970,2109,7965,2104,7946z"/>
	<path d="M10207,7963c-25-6-39-47-27-78c5-14,26-36,47-50s86-57,146-96c493-326,847-868,946-1449c78-453,0-893-257-1460l-57-125
		l-3-140c-5-215,22-265,103-194c43,38,98,118,217,314c47,77,120,194,162,260c190,294,249,471,249,750c1,77-5,176-12,220
		c-13,81-54,266-66,298c-12,28,9,20,102-42s301-266,359-351c43-62,79-158,101-265c14-72,18-138,18-335c0-213-3-261-23-365
		c-78-411-218-788-491-1321c-95-185-136-254-207-345c-210-272-265-327-617-614c-466-379-558-438-1257-790c-448-226-562-288-800-438
		c-496-312-654-437-844-667c-138-166-186-218-257-275c-94-78-142-161-118-206c20-37,61-23,196,68c79,53,197,120,308,173
		c268,129,359,210,553,492c122,178,189,257,270,317c94,71,332,211,567,334c110,57,299,156,420,219c350,183,538,298,705,430
		c130,103,519,460,665,609c153,157,226,248,279,349l35,66l64-6c54-4,70-10,102-39c35-30,42-33,84-27c98,13,192,105,275,266
		c157,305,293,722,356,1085c11,66,30,146,42,178c23,64,21,101-13,241c-23,97-24,151-4,271c22,133,19,172-19,279
		c-56,156-141,291-290,456c-114,128-347,339-441,401c-49,33-121,83-159,112c-63,48-73,61-123,161c-204,406-540,787-1048,1190
		C10276,7957,10249,7973,10207,7963z"/>
	<path d="M7973,7850c-44-26-60-54-75-131c-11-52-32-94-103-210c-116-187-166-258-234-331l-55-60l29-25c37-32,77-28,183,21
		c42,19,95,40,118,46c22,5,51,21,63,34c13,14,45,82,71,153c26,70,67,178,90,238c52,133,60,185,36,230c-17,31-52,55-79,55
		C8010,7870,7991,7861,7973,7850z"/>
	<path d="M9867,7612c-16-7-15-11,9-46c114-168,169-436,145-715c-28-341-100-595-257-910c-130-261-289-504-525-797
		c-159-199-169-224-144-365c28-161,17-405-29-604c-71-311-270-694-535-1034c-44-58-81-114-81-126c0-39,28-117,51-141
		c16-17,34-24,58-24c33,0,45,10,141,110c58,61,125,124,149,140c43,28,48,29,127,23c107-8,157,10,214,74c31,35,47,67,66,132
		c14,47,43,133,65,191c97,261,139,482,139,734c0,123-18,314-32,340c-6,10-10,44-11,76c0,63,26,121,84,189c56,64,278,440,364,616
		c138,280,227,533,299,845c122,534,114,745-44,1078c-60,125-97,174-153,201C9922,7621,9898,7624,9867,7612z"/>
	<path d="M3325,7050c-38-15-63-55-125-195c-202-457-393-1006-599-1715c-69-239-101-428-101-597c0-420,147-803,429-1113
		c67-74,82-85,184-134c62-30,121-64,132-76c29-32,25-123-11-230c-25-74-29-100-28-200c0-130,15-196,70-300c71-136,185-245,359-345
		c201-114,390-127,850-55c275,43,350,46,610,22c339-32,385-34,497-22c196,20,303,64,408,170c107,107,160,232,180,424
		c9,78,9,132,0,213c-29,271-32,260,82,273c87,10,157,27,282,69c342,117,607,435,692,833c33,159,33,481-1,665c-39,211-87,368-255,838
		c-119,333-138,396-239,771c-116,432-152,524-203,524c-26,0-51-44-45-82c9-68,371-1308,426-1463c128-359,210-730,211-945
		c0-180-57-400-148-573c-56-106-216-323-271-366c-110-87-281-140-523-161c-217-18-361,14-695,159c-191,82-232,103-303,151
		c-127,87-175,165-210,340c-11,58-32,147-45,198c-50,187-27,256,123,369c40,30,84,67,98,81c25,26,104,175,104,196c0,7,38,11,103,12
		c89,1,115,6,211,38c140,47,315,138,380,197c28,26,75,57,104,69c57,24,64,40,30,64c-31,22-50,20-164-14c-129-39-175-39-223-1
		c-74,59-311,162-403,176c-63,10-135-6-294-65c-243-91-287-90-526,7c-139,56-146,58-238,58c-88,0-103-3-195-40c-95-38-101-42-123-85
		c-12-25-30-51-39-57c-26-19-92-16-128,7c-52,32-60,65-60,245c1,205,16,287,104,558c51,158,76,252,95,367c14,85,24,155,22,157
		c-7,8-70-135-110-253c-24-71-71-188-104-259c-68-150-106-261-123-359c-23-135,13-356,65-397c57-45,21-119-59-119c-39,0-52,6-89,40
		c-101,93-214,86-173-12c23-54,69-89,164-124c48-17,134-53,190-79c140-64,188-68,282-25c66,31,76,32,143,27c111-9,149-50,166-174
		c7-50,16-71,47-109c45-54,150-125,238-161c155-62,162-78,162-358v-200l-33-67c-35-72-88-125-162-163c-103-52-740-328-824-356
		c-82-28-198-27-291,2c-150,46-309,148-391,250c-247,309-374,617-374,902c0,317,107,716,442,1647c298,827,319,895,286,928
		C3354,7062,3352,7062,3325,7050z M5504,5197c33-18,68-44,79-59c19-26,19-28,3-53c-20-30-88-63-197-96c-96-28-157-87-218-211
		c-34-71-56-100-117-157c-45-42-102-84-142-103c-57-28-77-33-142-33c-104,0-170,33-271,135c-63,63-81,89-100,141
		c-20,55-37,78-119,160c-102,102-92,97-252,139c-86,23-112,81-55,124c26,19,41,21,175,20c164-1,231-11,362-55c160-52,231-50,495,17
		c179,46,271,62,365,63C5436,5229,5452,5226,5504,5197z M4370,3262c25-11,64-15,134-14c104,2,394-34,551-68c119-26,214-25,365,5
		c150,30,255,31,401,6c121-21,146-34,189-100c48-76,64-141,64-266c-2-306-146-504-423-577c-110-29-308-34-491-14
		c-213,24-419,31-525,17c-49-7-171-28-270-48c-233-46-388-51-505-14c-250,78-436,258-496,481c-24,90-24,277,1,388
		c22,99,13,93,223,146C3895,3281,4264,3308,4370,3262z"/>
	<path d="M5635,6410c-4-6,12-61,35-121c97-261,135-485,166-992c7-119,28-152,70-110c15,15,16,32,10,148c-14,277-62,584-124,785
		c-41,130-91,261-110,283C5665,6422,5644,6425,5635,6410z"/>
	<path d="M3019,4911c-16-16-29-36-29-44s37-53,83-99c70-72,98-92,192-140c110-56,198-83,355-109c41-7,102-25,135-41
		c170-79,330,33,193,135c-21,16-51,22-130,28c-60,4-153,20-222,38c-65,17-140,31-168,31c-55,0-91,16-128,55c-14,15-52,45-85,68
		c-33,22-77,55-98,74C3071,4948,3057,4948,3019,4911z"/>
	<path d="M6442,4704c-156-52-209-56-349-25c-57,13-128,21-183,21c-83,0-93-2-115-25c-31-30-31-49-1-80c27-27,44-30,271-44
		c169-11,218-8,389,28c54,12,123,21,152,21c87,0,135,27,149,82c5,19,1,32-14,47c-17,17-33,21-93,21S6551,4741,6442,4704z"/>
	<path d="M2850,4630c-27-27-27-60,1-60c53,0,80,48,39,70C2875,4648,2866,4646,2850,4630z"/>
	<path d="M3094,4425c-51-51-1-111,68-82c64,27,74,72,22,95C3146,4456,3122,4452,3094,4425z"/>
	<path d="M5668,4430c-21-13-24-50-6-68c16-16,100-15,123,2c35,25,0,59-75,72C5696,4438,5677,4435,5668,4430z"/>
	<path d="M6860,4358c-33-55-22-108,23-108c34,0,62,101,35,128C6898,4398,6881,4392,6860,4358z"/>
	<path d="M6090,4360c-37-37-19-100,28-100c16,0,33,5,40,12c18,18,14,73-6,91C6128,4385,6114,4384,6090,4360z"/>
	<path d="M6428,4360c-22-18-22-20-8-47c19-34,53-40,104-19c24,10,36,21,36,35C6560,4369,6465,4391,6428,4360z"/>
	<path d="M3532,4310c-45-19-36-67,18-95c36-19,45-19,64,1c22,21,20,60-4,84C3588,4322,3568,4324,3532,4310z"/>
	<path d="M1275,4240c-8-26,10-58,95-170c218-286,425-485,823-795c268-208,311-230,565-289c140-33,157-28,150,44c-7,68-59,175-98,199
		c-18,10-87,38-153,62c-251,88-566,268-807,462c-142,114-347,304-449,415C1317,4260,1287,4277,1275,4240z"/>
	<path d="M2966,4218c-41-58,4-120,62-87c15,8,31,27,37,43c8,24,6,31-14,47C3020,4246,2985,4245,2966,4218z"/>
	<path d="M5464,4209c-21-23-14-41,27-71c36-27,59-15,59,31c0,20-5,42-12,49C5520,4236,5485,4232,5464,4209z"/>
	<path d="M4043,4209c-24-24,16-79,57-79c32,0,50,17,50,47C4150,4213,4070,4236,4043,4209z"/>
	<path d="M6030,4110c-11-11-20-24-20-30c0-16,48-42,72-38c33,4,37,51,6,72C6059,4134,6054,4134,6030,4110z"/>
	<path d="M990,4111c0-28,32-222,46-276c36-142,95-299,219-580c73-165,149-347,170-405c20-58,44-114,54-125c34-37,41-63,41-152
		c0-185,67-488,148-674c20-46,58-110,206-348c82-133,238-309,305-346c49-27,240-28,354-2c118,28,118,29-131,276
		c-114,113-231,238-260,276c-29,39-92,149-141,246c-122,242-170,394-186,584c-3,44-13,103-21,132c-19,68-102,191-264,388
		c-158,193-238,308-250,361c-5,21-10,70-10,107c0,74-14,118-56,172c-21,28-28,53-38,134c-13,106-43,174-96,212
		C1049,4114,990,4127,990,4111z"/>
	<path d="M5756,4103c-3-3-6-23-6-43c0-63,57-92,95-50c18,20,18,21-3,43C5815,4082,5765,4111,5756,4103z"/>
	<path d="M6555,4070c-9-10-15-26-11-35c7-20,55-38,84-30c31,8,38,30,18,60C6626,4096,6581,4098,6555,4070z"/>
	<path d="M3353,4048c-11-13-30-39-43-58s-43-56-67-81c-46-48-49-72-11-85c29-9,57,1,125,45c89,57,120,134,73,181
		C3404,4076,3378,4075,3353,4048z"/>
	<path d="M4413,4001c-43-27-51-56-22-87c29-30,83-33,99-5c14,28,12,63-6,89C4465,4025,4454,4025,4413,4001z"/>
	<path d="M5221,3994c-35-29-39-54-13-76c21-20,59-31,65-21c2,4,8,34,11,66c7,53,6,57-13,57C5261,4020,5238,4008,5221,3994z"/>
	<path d="M3952,3989c-18-7-23-15-20-36c7-59,128-86,128-30C4060,3968,3996,4007,3952,3989z"/>
	<path d="M8398,3900c-69-21-233-153-299-240c-71-94-119-198-200-435c-105-308-175-434-296-530c-113-89-203-131-499-230
		c-267-90-443-184-697-374c-127-95-326-270-416-367c-113-121-114-125-121-409c-6-226-8-245-33-318c-34-99-35-140-2-173
		c23-23,26-24,53-10c49,25,117,127,282,420c51,90,159,214,349,399c289,281,344,322,686,518c303,173,409,246,543,373
		c106,101,167,182,181,241c22,92,73,239,126,365c125,293,196,427,299,562c33,45,73,97,88,117c31,40,36,86,12,95
		C8436,3911,8434,3911,8398,3900z"/>
	<path d="M5540,3872c0-49,85-131,253-244c100-67,149-91,171-82c42,16,2,60-175,196c-67,51-139,105-162,121
		C5579,3895,5540,3899,5540,3872z"/>
	<path d="M6134,3807c-35-30-27-57,16-57c22,0,30,5,30,18c0,9,3,27,6,40C6194,3838,6170,3837,6134,3807z"/>
	<path d="M3550,3787c-33-16-36-37-10-70s54-35,74-5c24,34,20,67-10,78C3574,3802,3580,3802,3550,3787z"/>
	<path d="M6597,3769c-9-5-24-23-32-38c-13-26-13-30,4-45c18-16,66-21,95-10c22,9,20,46-5,78C6637,3782,6625,3785,6597,3769z"/>
	<path d="M10157,3702c-30-52-70-102-121-149c-67-63-87-75-158-99c-90-30-77-20-328-254c-260-243-510-456-630-537
		c-25-17-118-67-206-112c-89-44-206-113-260-153c-55-39-169-117-254-174c-85-56-209-149-275-206c-306-264-794-798-875-958
		c-25-49-73-115-139-190c-120-136-204-287-223-401c-29-171,59-286,163-216c33,22,56,51,184,227c37,51,100,119,163,174
		c106,93,177,174,423,481c352,441,545,628,1088,1055c683,538,868,696,1182,1009c219,219,288,304,335,405c39,86,34,176-11,176
		C10208,3780,10182,3745,10157,3702z"/>
	<path d="M4113,3730c-25-10-30-39-11-58s56-14,73,11c15,21,14,23-6,40C4145,3742,4144,3742,4113,3730z"/>
	<path d="M6250,3562c0-30,26-62,51-62c20,0,59,37,59,55s-6,21-62,29C6250,3591,6250,3591,6250,3562z"/>
	<path d="M2490,2479c-1-252,117-533,340-814c35-44,240-258,455-475c216-217,427-439,470-494c90-113,136-143,209-132
		c92,14,151,80,192,215c142,467,502,732,1074,789l74,7l-59,48c-81,65-223,134-315,153c-91,19-253,14-350-11c-99-26-236-97-320-168
		c-151-127-264-286-417-585c-2-6-118,74-227,157c-451,339-802,749-1042,1214l-84,162V2479z"/>
	<path d="M4770,997c-44-15-52-48-18-84c33-35,82-58,167-77c180-40,432-219,621-440c102-120,206-211,301-262c52-28,127-70,167-94
		c62-37,77-42,100-34c35,12,46,55,37,138c-8,75-23,101-133,230c-113,131-313,295-442,361c-25,12-106,44-180,70
		c-74,25-188,71-252,102c-103,48-274,103-318,102C4812,1009,4789,1004,4770,997z"/>
</g>
</svg>
