<?xml version="1.0" encoding="utf-8"?>
<!-- Generator: Adobe Illustrator 22.1.0, SVG Export Plug-In . SVG Version: 6.00 Build 0)  -->
<svg version="1.1" id="Layer_1" xmlns="http://www.w3.org/2000/svg" xmlns:xlink="http://www.w3.org/1999/xlink" x="0px" y="0px"
	 viewBox="0 0 512 512" style="enable-background:new 0 0 512 512;" xml:space="preserve">
<g>
	<g>
		<path style="fill:none;stroke:#000000;stroke-miterlimit:10;" d="M365.8,425.3c0,0-0.9-0.6-1.4-0.4c-0.7,0.2-1.1,0.9-0.9,1.6
			l4.5,16.6l-97.6,26.4l-4.5-16.6c-0.2-0.7-0.8-1.1-1.5-0.9c-0.4,0.1-0.6,0.4-0.8,0.7c0,0,0,0,0,0c-1,1.4-2.8,19.3-8,20.7
			c-5.2,1.4-89.7,24.2-89.7,24.2c-3.5,1-5.3,2.7-4.7,4.7c0.7,2.6,4.2,1.8,8.7,1c4.5-0.8,83.7-17.1,104.2-21.3
			c21.3-3.8,97.5-26.3,97.5-26.3c3.5-1,5.6-4.6,4.7-8.1C376.2,447,368.8,427.2,365.8,425.3z"/>
	</g>
	<g>
		<g>
			<path style="fill:none;stroke:#000000;stroke-miterlimit:10;" d="M267.4,451.4c-0.1-0.2-0.3-0.3-0.5-0.3
				c-0.2,0.1-0.3,0.3-0.3,0.5l5,20.7c0.1,0.2,0.8,0.1,1,0.1c0.2-0.1,0.9-0.5,0.8-0.7L267.4,451.4z"/>
		</g>
		<g>
			<path style="fill:none;stroke:#000000;stroke-miterlimit:10;" d="M269.2,450.9c-0.1-0.2-0.3-0.3-0.5-0.3
				c-0.2,0.1-0.3,0.3-0.3,0.5l5,20.7c0.1,0.2,0.8,0.1,1,0.1c0.2-0.1,0.9-0.5,0.8-0.7L269.2,450.9z"/>
		</g>
		<g>
			<path style="fill:none;stroke:#000000;stroke-miterlimit:10;" d="M271.1,450.4c-0.1-0.2-0.3-0.3-0.5-0.3
				c-0.2,0.1-0.3,0.3-0.3,0.5l5,20.7c0.1,0.2,0.8,0.1,1,0.1c0.2-0.1,0.9-0.5,0.8-0.7L271.1,450.4z"/>
		</g>
		<g>
			<path style="fill:none;stroke:#000000;stroke-miterlimit:10;" d="M272.9,449.9c-0.1-0.2-0.3-0.3-0.5-0.3
				c-0.2,0.1-0.3,0.3-0.3,0.5l5,20.7c0.1,0.2,0.8,0.1,1,0.1c0.2-0.1,0.9-0.5,0.8-0.7L272.9,449.9z"/>
		</g>
		<g>
			<path style="fill:none;stroke:#000000;stroke-miterlimit:10;" d="M274.7,449.5c-0.1-0.2-0.3-0.3-0.5-0.3
				c-0.2,0.1-0.3,0.3-0.3,0.5l5,20.7c0.1,0.2,0.8,0.1,1,0.1c0.2-0.1,0.9-0.5,0.8-0.7L274.7,449.5z"/>
		</g>
		<g>
			<path style="fill:none;stroke:#000000;stroke-miterlimit:10;" d="M276.5,449c-0.1-0.2-0.3-0.3-0.5-0.3c-0.2,0.1-0.3,0.3-0.3,0.5
				l5,20.7c0.1,0.2,0.8,0.1,1,0.1c0.2-0.1,0.9-0.5,0.8-0.7L276.5,449z"/>
		</g>
		<g>
			<path style="fill:none;stroke:#000000;stroke-miterlimit:10;" d="M278.4,448.5c-0.1-0.2-0.3-0.3-0.5-0.3
				c-0.2,0.1-0.3,0.3-0.3,0.5l5,20.7c0.1,0.2,0.8,0.1,1,0.1c0.2-0.1,0.9-0.5,0.8-0.7L278.4,448.5z"/>
		</g>
		<g>
			<path style="fill:none;stroke:#000000;stroke-miterlimit:10;" d="M280.2,448c-0.1-0.2-0.3-0.3-0.5-0.3c-0.2,0.1-0.3,0.3-0.3,0.5
				l5,20.7c0.1,0.2,0.8,0.1,1,0.1c0.2-0.1,0.9-0.5,0.8-0.7L280.2,448z"/>
		</g>
		<g>
			<path style="fill:none;stroke:#000000;stroke-miterlimit:10;" d="M282,447.5c-0.1-0.2-0.3-0.3-0.5-0.3c-0.2,0.1-0.3,0.3-0.3,0.5
				l5,20.7c0.1,0.2,0.8,0.1,1,0.1c0.2-0.1,0.9-0.5,0.8-0.7L282,447.5z"/>
		</g>
		<g>
			<path style="fill:none;stroke:#000000;stroke-miterlimit:10;" d="M283.9,447c-0.1-0.2-0.3-0.3-0.5-0.3c-0.2,0.1-0.3,0.3-0.3,0.5
				l5,20.7c0.1,0.2,0.8,0.1,1,0.1c0.2-0.1,0.9-0.5,0.8-0.7L283.9,447z"/>
		</g>
		<g>
			<path style="fill:none;stroke:#000000;stroke-miterlimit:10;" d="M285.7,446.5c-0.1-0.2-0.3-0.3-0.5-0.3
				c-0.2,0.1-0.3,0.3-0.3,0.5l5,20.7c0.1,0.2,0.8,0.1,1,0.1c0.2-0.1,0.9-0.5,0.8-0.7L285.7,446.5z"/>
		</g>
		<g>
			<path style="fill:none;stroke:#000000;stroke-miterlimit:10;" d="M287.5,446c-0.1-0.2-0.3-0.3-0.5-0.3c-0.2,0.1-0.3,0.3-0.3,0.5
				l5,20.7c0.1,0.2,0.8,0.1,1,0.1c0.2-0.1,0.9-0.5,0.8-0.7L287.5,446z"/>
		</g>
		<g>
			<path style="fill:none;stroke:#000000;stroke-miterlimit:10;" d="M289.3,445.5c-0.1-0.2-0.3-0.3-0.5-0.3
				c-0.2,0.1-0.3,0.3-0.3,0.5l5,20.7c0.1,0.2,0.8,0.1,1,0.1c0.2-0.1,0.9-0.5,0.8-0.7L289.3,445.5z"/>
		</g>
		<g>
			<path style="fill:none;stroke:#000000;stroke-miterlimit:10;" d="M291.2,445c-0.1-0.2-0.3-0.3-0.5-0.3c-0.2,0.1-0.3,0.3-0.3,0.5
				l5,20.7c0.1,0.2,0.8,0.1,1,0.1c0.2-0.1,0.9-0.5,0.8-0.7L291.2,445z"/>
		</g>
		<g>
			<path style="fill:none;stroke:#000000;stroke-miterlimit:10;" d="M293,444.5c-0.1-0.2-0.3-0.3-0.5-0.3c-0.2,0.1-0.3,0.3-0.3,0.5
				l5,20.7c0.1,0.2,0.8,0.1,1,0.1c0.2-0.1,0.9-0.5,0.8-0.7L293,444.5z"/>
		</g>
		<g>
			<path style="fill:none;stroke:#000000;stroke-miterlimit:10;" d="M294.8,444c-0.1-0.2-0.3-0.3-0.5-0.3c-0.2,0.1-0.3,0.3-0.3,0.5
				l5,20.7c0.1,0.2,0.8,0.1,1,0.1c0.2-0.1,0.9-0.5,0.8-0.7L294.8,444z"/>
		</g>
		<g>
			<path style="fill:none;stroke:#000000;stroke-miterlimit:10;" d="M296.7,443.5c-0.1-0.2-0.3-0.3-0.5-0.3
				c-0.2,0.1-0.3,0.3-0.3,0.5l5,20.7c0.1,0.2,0.8,0.1,1,0.1c0.2-0.1,0.9-0.5,0.8-0.7L296.7,443.5z"/>
		</g>
		<g>
			<path style="fill:none;stroke:#000000;stroke-miterlimit:10;" d="M298.5,443c-0.1-0.2-0.3-0.3-0.5-0.3c-0.2,0.1-0.3,0.3-0.3,0.5
				l5,20.7c0.1,0.2,0.8,0.1,1,0.1c0.2-0.1,0.9-0.5,0.8-0.7L298.5,443z"/>
		</g>
		<g>
			<path style="fill:none;stroke:#000000;stroke-miterlimit:10;" d="M300.3,442.5c-0.1-0.2-0.3-0.3-0.5-0.3
				c-0.2,0.1-0.3,0.3-0.3,0.5l5,20.7c0.1,0.2,0.8,0.1,1,0.1c0.2-0.1,0.9-0.5,0.8-0.7L300.3,442.5z"/>
		</g>
		<g>
			<path style="fill:none;stroke:#000000;stroke-miterlimit:10;" d="M302.1,442c-0.1-0.2-0.3-0.3-0.5-0.3c-0.2,0.1-0.3,0.3-0.3,0.5
				l5,20.7c0.1,0.2,0.8,0.1,1,0.1c0.2-0.1,0.9-0.5,0.8-0.7L302.1,442z"/>
		</g>
		<g>
			<path style="fill:none;stroke:#000000;stroke-miterlimit:10;" d="M304,441.6c-0.1-0.2-0.3-0.3-0.5-0.3c-0.2,0.1-0.3,0.3-0.3,0.5
				l5,20.7c0.1,0.2,0.8,0.1,1,0.1c0.2-0.1,0.9-0.5,0.8-0.7L304,441.6z"/>
		</g>
		<g>
			<path style="fill:none;stroke:#000000;stroke-miterlimit:10;" d="M305.8,441.1c-0.1-0.2-0.3-0.3-0.5-0.3
				c-0.2,0.1-0.3,0.3-0.3,0.5l5,20.7c0.1,0.2,0.8,0.1,1,0.1c0.2-0.1,0.9-0.5,0.8-0.7L305.8,441.1z"/>
		</g>
		<g>
			<path style="fill:none;stroke:#000000;stroke-miterlimit:10;" d="M307.6,440.6c-0.1-0.2-0.3-0.3-0.5-0.3
				c-0.2,0.1-0.3,0.3-0.3,0.5l5,20.7c0.1,0.2,0.8,0.1,1,0.1c0.2-0.1,0.9-0.5,0.8-0.7L307.6,440.6z"/>
		</g>
		<g>
			<path style="fill:none;stroke:#000000;stroke-miterlimit:10;" d="M309.5,440.1c-0.1-0.2-0.3-0.3-0.5-0.3
				c-0.2,0.1-0.3,0.3-0.3,0.5l5,20.7c0.1,0.2,0.8,0.1,1,0.1c0.2-0.1,0.9-0.5,0.8-0.7L309.5,440.1z"/>
		</g>
		<g>
			<path style="fill:none;stroke:#000000;stroke-miterlimit:10;" d="M311.3,439.6c-0.1-0.2-0.3-0.3-0.5-0.3
				c-0.2,0.1-0.3,0.3-0.3,0.5l5,20.7c0.1,0.2,0.8,0.1,1,0.1c0.2-0.1,0.9-0.5,0.8-0.7L311.3,439.6z"/>
		</g>
		<g>
			<path style="fill:none;stroke:#000000;stroke-miterlimit:10;" d="M313.1,439.1c-0.1-0.2-0.3-0.3-0.5-0.3
				c-0.2,0.1-0.3,0.3-0.3,0.5l5,20.7c0.1,0.2,0.8,0.1,1,0.1c0.2-0.1,0.9-0.5,0.8-0.7L313.1,439.1z"/>
		</g>
		<g>
			<path style="fill:none;stroke:#000000;stroke-miterlimit:10;" d="M314.9,438.6c-0.1-0.2-0.3-0.3-0.5-0.3
				c-0.2,0.1-0.3,0.3-0.3,0.5l5,20.7c0.1,0.2,0.8,0.1,1,0.1c0.2-0.1,0.9-0.5,0.8-0.7L314.9,438.6z"/>
		</g>
		<g>
			<path style="fill:none;stroke:#000000;stroke-miterlimit:10;" d="M316.8,438.1c-0.1-0.2-0.3-0.3-0.5-0.3
				c-0.2,0.1-0.3,0.3-0.3,0.5l5,20.7c0.1,0.2,0.8,0.1,1,0.1c0.2-0.1,0.9-0.5,0.8-0.7L316.8,438.1z"/>
		</g>
		<g>
			<path style="fill:none;stroke:#000000;stroke-miterlimit:10;" d="M318.6,437.6c-0.1-0.2-0.3-0.3-0.5-0.3
				c-0.2,0.1-0.3,0.3-0.3,0.5l5,20.7c0.1,0.2,0.8,0.1,1,0.1c0.2-0.1,0.9-0.5,0.8-0.7L318.6,437.6z"/>
		</g>
		<g>
			<path style="fill:none;stroke:#000000;stroke-miterlimit:10;" d="M320.4,437.1c-0.1-0.2-0.3-0.3-0.5-0.3
				c-0.2,0.1-0.3,0.3-0.3,0.5l5,20.7c0.1,0.2,0.8,0.1,1,0.1c0.2-0.1,0.9-0.5,0.8-0.7L320.4,437.1z"/>
		</g>
		<g>
			<path style="fill:none;stroke:#000000;stroke-miterlimit:10;" d="M322.3,436.6c-0.1-0.2-0.3-0.3-0.5-0.3
				c-0.2,0.1-0.3,0.3-0.3,0.5l5,20.7c0.1,0.2,0.8,0.1,1,0.1c0.2-0.1,0.9-0.5,0.8-0.7L322.3,436.6z"/>
		</g>
		<g>
			<path style="fill:none;stroke:#000000;stroke-miterlimit:10;" d="M324.1,436.1c-0.1-0.2-0.3-0.3-0.5-0.3
				c-0.2,0.1-0.3,0.3-0.3,0.5l5,20.7c0.1,0.2,0.8,0.1,1,0.1c0.2-0.1,0.9-0.5,0.8-0.7L324.1,436.1z"/>
		</g>
		<g>
			<path style="fill:none;stroke:#000000;stroke-miterlimit:10;" d="M325.9,435.6c-0.1-0.2-0.3-0.3-0.5-0.3
				c-0.2,0.1-0.3,0.3-0.3,0.5l5,20.7c0.1,0.2,0.8,0.1,1,0.1c0.2-0.1,0.9-0.5,0.8-0.7L325.9,435.6z"/>
		</g>
		<g>
			<path style="fill:none;stroke:#000000;stroke-miterlimit:10;" d="M327.7,435.1c-0.1-0.2-0.3-0.3-0.5-0.3
				c-0.2,0.1-0.3,0.3-0.3,0.5l5,20.7c0.1,0.2,0.8,0.1,1,0.1c0.2-0.1,0.9-0.5,0.8-0.7L327.7,435.1z"/>
		</g>
		<g>
			<path style="fill:none;stroke:#000000;stroke-miterlimit:10;" d="M329.6,434.6c-0.1-0.2-0.3-0.3-0.5-0.3
				c-0.2,0.1-0.3,0.3-0.3,0.5l5,20.7c0.1,0.2,0.8,0.1,1,0.1c0.2-0.1,0.9-0.5,0.8-0.7L329.6,434.6z"/>
		</g>
		<g>
			<path style="fill:none;stroke:#000000;stroke-miterlimit:10;" d="M331.4,434.1c-0.1-0.2-0.3-0.3-0.5-0.3
				c-0.2,0.1-0.3,0.3-0.3,0.5l5,20.7c0.1,0.2,0.8,0.1,1,0.1c0.2-0.1,0.9-0.5,0.8-0.7L331.4,434.1z"/>
		</g>
		<g>
			<path style="fill:none;stroke:#000000;stroke-miterlimit:10;" d="M333.2,433.7c-0.1-0.2-0.3-0.3-0.5-0.3
				c-0.2,0.1-0.3,0.3-0.3,0.5l5,20.7c0.1,0.2,0.8,0.1,1,0.1c0.2-0.1,0.9-0.5,0.8-0.7L333.2,433.7z"/>
		</g>
		<g>
			<path style="fill:none;stroke:#000000;stroke-miterlimit:10;" d="M335.1,433.2c-0.1-0.2-0.3-0.3-0.5-0.3
				c-0.2,0.1-0.3,0.3-0.3,0.5l5,20.7c0.1,0.2,0.8,0.1,1,0.1c0.2-0.1,0.9-0.5,0.8-0.7L335.1,433.2z"/>
		</g>
		<g>
			<path style="fill:none;stroke:#000000;stroke-miterlimit:10;" d="M336.9,432.7c-0.1-0.2-0.3-0.3-0.5-0.3
				c-0.2,0.1-0.3,0.3-0.3,0.5l5,20.7c0.1,0.2,0.8,0.1,1,0.1c0.2-0.1,0.9-0.5,0.8-0.7L336.9,432.7z"/>
		</g>
		<g>
			<path style="fill:none;stroke:#000000;stroke-miterlimit:10;" d="M338.7,432.2c-0.1-0.2-0.3-0.3-0.5-0.3
				c-0.2,0.1-0.3,0.3-0.3,0.5l5,20.7c0.1,0.2,0.8,0.1,1,0.1c0.2-0.1,0.9-0.5,0.8-0.7L338.7,432.2z"/>
		</g>
		<g>
			<path style="fill:none;stroke:#000000;stroke-miterlimit:10;" d="M340.5,431.7c-0.1-0.2-0.3-0.3-0.5-0.3
				c-0.2,0.1-0.3,0.3-0.3,0.5l5,20.7c0.1,0.2,0.8,0.1,1,0.1c0.2-0.1,0.9-0.5,0.8-0.7L340.5,431.7z"/>
		</g>
		<g>
			<path style="fill:none;stroke:#000000;stroke-miterlimit:10;" d="M342.4,431.2c-0.1-0.2-0.3-0.3-0.5-0.3
				c-0.2,0.1-0.3,0.3-0.3,0.5l5,20.7c0.1,0.2,0.8,0.1,1,0.1c0.2-0.1,0.9-0.5,0.8-0.7L342.4,431.2z"/>
		</g>
		<g>
			<path style="fill:none;stroke:#000000;stroke-miterlimit:10;" d="M344.2,430.7c-0.1-0.2-0.3-0.3-0.5-0.3
				c-0.2,0.1-0.3,0.3-0.3,0.5l5,20.7c0.1,0.2,0.8,0.1,1,0.1c0.2-0.1,0.9-0.5,0.8-0.7L344.2,430.7z"/>
		</g>
		<g>
			<path style="fill:none;stroke:#000000;stroke-miterlimit:10;" d="M346,430.2c-0.1-0.2-0.3-0.3-0.5-0.3c-0.2,0.1-0.3,0.3-0.3,0.5
				l5,20.7c0.1,0.2,0.8,0.1,1,0.1c0.2-0.1,0.9-0.5,0.8-0.7L346,430.2z"/>
		</g>
		<g>
			<path style="fill:none;stroke:#000000;stroke-miterlimit:10;" d="M347.9,429.7c-0.1-0.2-0.3-0.3-0.5-0.3
				c-0.2,0.1-0.3,0.3-0.3,0.5l5,20.7c0.1,0.2,0.8,0.1,1,0.1c0.2-0.1,0.9-0.5,0.8-0.7L347.9,429.7z"/>
		</g>
		<g>
			<path style="fill:none;stroke:#000000;stroke-miterlimit:10;" d="M349.7,429.2c-0.1-0.2-0.3-0.3-0.5-0.3
				c-0.2,0.1-0.3,0.3-0.3,0.5l5,20.7c0.1,0.2,0.8,0.1,1,0.1c0.2-0.1,0.9-0.5,0.8-0.7L349.7,429.2z"/>
		</g>
		<g>
			<path style="fill:none;stroke:#000000;stroke-miterlimit:10;" d="M351.5,428.7c-0.1-0.2-0.3-0.3-0.5-0.3
				c-0.2,0.1-0.3,0.3-0.3,0.5l5,20.7c0.1,0.2,0.8,0.1,1,0.1c0.2-0.1,0.9-0.5,0.8-0.7L351.5,428.7z"/>
		</g>
		<g>
			<path style="fill:none;stroke:#000000;stroke-miterlimit:10;" d="M353.3,428.2c-0.1-0.2-0.3-0.3-0.5-0.3
				c-0.2,0.1-0.3,0.3-0.3,0.5l5,20.7c0.1,0.2,0.8,0.1,1,0.1c0.2-0.1,0.9-0.5,0.8-0.7L353.3,428.2z"/>
		</g>
		<g>
			<path style="fill:none;stroke:#000000;stroke-miterlimit:10;" d="M355.2,427.7c-0.1-0.2-0.3-0.3-0.5-0.3
				c-0.2,0.1-0.3,0.3-0.3,0.5l5,20.7c0.1,0.2,0.8,0.1,1,0.1c0.2-0.1,0.9-0.5,0.8-0.7L355.2,427.7z"/>
		</g>
		<g>
			<path style="fill:none;stroke:#000000;stroke-miterlimit:10;" d="M357,427.2c-0.1-0.2-0.3-0.3-0.5-0.3c-0.2,0.1-0.3,0.3-0.3,0.5
				l5,20.7c0.1,0.2,0.8,0.1,1,0.1c0.2-0.1,0.9-0.5,0.8-0.7L357,427.2z"/>
		</g>
		<g>
			<path style="fill:none;stroke:#000000;stroke-miterlimit:10;" d="M358.8,426.7c-0.1-0.2-0.3-0.3-0.5-0.3
				c-0.2,0.1-0.3,0.3-0.3,0.5l5,20.7c0.1,0.2,0.8,0.1,1,0.1c0.2-0.1,0.9-0.5,0.8-0.7L358.8,426.7z"/>
		</g>
		<g>
			<path style="fill:none;stroke:#000000;stroke-miterlimit:10;" d="M360.6,426.2c-0.1-0.2-0.3-0.3-0.5-0.3
				c-0.2,0.1-0.3,0.3-0.3,0.5l5,20.7c0.1,0.2,0.8,0.1,1,0.1c0.2-0.1,0.9-0.5,0.8-0.7L360.6,426.2z"/>
		</g>
		<g>
			<path style="fill:none;stroke:#000000;stroke-miterlimit:10;" d="M362.5,425.7c-0.1-0.2-0.3-0.3-0.5-0.3
				c-0.2,0.1-0.3,0.3-0.3,0.5l5,20.7c0.1,0.2,0.8,0.1,1,0.1c0.2-0.1,0.9-0.5,0.8-0.7L362.5,425.7z"/>
		</g>
	</g>
	<g>
		<path style="fill:none;stroke:#000000;stroke-miterlimit:10;" d="M279,472.3c0,0-63.8,18.2-63.5,19.3c0.3,1.1,64.6-15.3,64.6-15.3
			c1.3-0.3,2-1.5,1.7-2.6C281.5,472.5,280.2,471.9,279,472.3z"/>
	</g>
	<g>
		<path style="fill:none;stroke:#000000;stroke-miterlimit:10;" d="M331.1,458.9c0,0-21.3,6.4-21.1,7c0.2,0.7,21.8-4.5,21.8-4.5
			c0.4-0.1,0.6-0.8,0.4-1.5C332,459.3,331.6,458.8,331.1,458.9z"/>
	</g>
	<g>
		<path style="fill:none;stroke:#000000;stroke-miterlimit:10;" d="M369,449.2c0,0-10.6,3.3-10.5,3.7c0.1,0.4,10.9-2.1,10.9-2.1
			c0.2-0.1,0.3-0.5,0.2-0.9C369.5,449.4,369.3,449.1,369,449.2z"/>
	</g>
</g>
<g>
	<g>
		<g>
			<path style="fill:none;stroke:#000000;stroke-miterlimit:10;" d="M210.8,50.5c-10.3-3.7-33.6-3.7-43.9,0
				c-3.1,1.1-5.2,1.3-6.5,0.7l-0.6,11.5c8.6-4,22-4.6,29.1-4.5c7,0,20.5,0.5,29.1,4.5l-0.6-11.6C216.1,51.8,213.9,51.7,210.8,50.5z"
				/>
		</g>
		<g>
			<path style="fill:none;stroke:#000000;stroke-miterlimit:10;" d="M217.2,51c-1.2,0.6-3.4,0.4-6.3-0.7c-4.9-1.8-13.1-2.8-22-2.8
				c-8.9,0-17.2,1-22,2.8c-2.9,1.1-5.1,1.3-6.3,0.7l-0.3-0.2l-0.7,12.3l0.4-0.2c8.3-3.9,21.4-4.5,28.4-4.5l0.6,0l0.6,0
				c7,0,20.1,0.6,28.4,4.5l0.4,0.2l-0.6-12.4L217.2,51z M189.4,58l-0.6,0l-0.6,0c-7,0-19.8,0.6-28.2,4.4l0.6-10.8
				c1.4,0.5,3.5,0.2,6.3-0.8c4.8-1.7,13-2.8,21.8-2.8c8.9,0,17,1,21.9,2.8c2.9,1,5,1.3,6.4,0.8l0.6,10.8
				C209.3,58.6,196.4,58,189.4,58z"/>
		</g>
	</g>
	<g>
		<g>
			<path style="fill:none;stroke:#000000;stroke-miterlimit:10;" d="M210.6,29.5c-10.3-3.7-33.5-3.7-43.9,0c-5.3,1.9-8.1,6-8.1,9
				v10.3c0,3,2.7,3.8,8,1.9c10.3-3.7,33.7-3.7,44,0c5.3,1.9,7.7,1.1,7.7-1.9V38.5C218.4,35.4,215.9,31.3,210.6,29.5z"/>
		</g>
		<g>
			<path style="fill:none;stroke:#000000;stroke-miterlimit:10;" d="M210.7,29.3c-4.9-1.7-13.1-2.8-22-2.8c-8.9,0-17.1,1-22,2.8
				c-5.3,1.9-8.1,6-8.1,9.1v10.3c0,1,0.3,1.8,0.8,2.3c0.6,0.5,1.4,0.8,2.5,0.8c1.3,0,2.9-0.4,4.8-1c4.8-1.7,13-2.8,21.9-2.8
				c8.9,0,17.1,1,22,2.8c1.9,0.7,3.5,1,4.8,1c2.1,0,3.2-1,3.2-3.1V38.5C218.7,35.3,215.9,31.2,210.7,29.3z M218.4,48.7
				c0,1.9-1,2.8-3,2.8c-1.2,0-2.8-0.3-4.7-1c-4.9-1.7-13.1-2.8-22.1-2.8c-8.9,0-17.2,1-22,2.8c-3.5,1.2-5.9,1.4-7,0.3
				c-0.5-0.5-0.8-1.2-0.8-2.1V38.5c0-3,2.7-7,7.9-8.9c4.8-1.7,13-2.7,21.9-2.7c8.9,0,17.1,1,21.9,2.7c5.1,1.8,7.8,5.8,7.8,8.9V48.7z
				"/>
		</g>
	</g>
	<g>
		<g>
			<path style="fill:none;stroke:#000000;stroke-miterlimit:10;" d="M218.3,63.1c-8.5-4.2-22.3-4.7-29.5-4.7
				c-7.1,0-20.9,0.5-29.5,4.7c-1.4,0.9,3.9,54.8,3.8,56.6c0,1.8-0.1,46.2,0,47.9c0.1,1.7,1.5,4.5,4.9,6c2.2,1,12.8,3.1,20.7,2.9
				c7.9,0.2,18.5-2,20.7-2.9c3-1.2,4.8-4.4,4.9-6c0.1-1.7,0-46,0-47.9C214.5,117.8,219.8,64,218.3,63.1z"/>
		</g>
	</g>
	<g>
		<defs>
			<path id="SVGID_1_" d="M218.3,63.1c-8.5-4.2-22.3-4.7-29.5-4.7c-7.1,0-20.9,0.5-29.5,4.7c-1.4,0.9,3.9,54.8,3.8,56.6
				c0,1.8-0.1,46.2,0,47.9c0.1,1.7,1.5,4.5,4.9,6c2.2,1,12.8,3.1,20.7,2.9c7.9,0.2,18.5-2,20.7-2.9c3-1.2,4.8-4.4,4.9-6
				c0.1-1.7,0-46,0-47.9C214.5,117.8,219.8,64,218.3,63.1z"/>
		</defs>
		<clipPath id="SVGID_2_">
			<use xlink:href="#SVGID_1_"  style="overflow:visible;"/>
		</clipPath>
		<g style="clip-path:url(#SVGID_2_);">
			<g>
				<rect x="158.1" y="75.7" style="fill:none;stroke:#000000;stroke-miterlimit:10;" width="61.3" height="56.5"/>
			</g>
		</g>
		<use xlink:href="#SVGID_1_"  style="overflow:visible;fill:none;stroke:#000000;stroke-miterlimit:10;"/>
	</g>
	<defs>
		<filter id="Adobe_OpacityMaskFilter" filterUnits="userSpaceOnUse" x="206.7" y="30.7" width="10.7" height="19">
			<feColorMatrix  type="matrix" values="1 0 0 0 0  0 1 0 0 0  0 0 1 0 0  0 0 0 1 0"/>
		</filter>
	</defs>
	<mask maskUnits="userSpaceOnUse" x="206.7" y="30.7" width="10.7" height="19" id="SVGID_3_">
		<g style="filter:url(#Adobe_OpacityMaskFilter);">
			<linearGradient id="SVGID_4_" gradientUnits="userSpaceOnUse" x1="208.6049" y1="40.2069" x2="216.2335" y2="40.2069">
				<stop  offset="0" style="stop-color:#000000"/>
				<stop  offset="1" style="stop-color:#FFFFFF"/>
			</linearGradient>
			<path style="fill:url(#SVGID_4_);" d="M208.1,31.6c0,0,7.4,1.9,8.4,4.5c1,2.6,0,12.8,0,12.8s-3.9-2.1-6.9-2
				C209.5,44.2,209,32.6,208.1,31.6z"/>
		</g>
	</mask>
	<g style="mask:url(#SVGID_3_);">
		<g>
			<path style="fill:none;stroke:#000000;stroke-miterlimit:10;" d="M208.1,31.6c0.8,1,1.3,12.6,1.5,15.3c3-0.1,6.9,2,6.9,2
				s1-10.2,0-12.8C215.5,33.5,208.1,31.6,208.1,31.6z"/>
		</g>
	</g>
	<defs>
		<filter id="Adobe_OpacityMaskFilter_1_" filterUnits="userSpaceOnUse" x="160.6" y="29.3" width="7.6" height="21.6">
			<feColorMatrix  type="matrix" values="1 0 0 0 0  0 1 0 0 0  0 0 1 0 0  0 0 0 1 0"/>
		</filter>
	</defs>
	<mask maskUnits="userSpaceOnUse" x="160.6" y="29.3" width="7.6" height="21.6" id="SVGID_5_">
		<g style="filter:url(#Adobe_OpacityMaskFilter_1_);">
			
				<linearGradient id="SVGID_6_" gradientUnits="userSpaceOnUse" x1="-373.5538" y1="40.1802" x2="-367.7661" y2="40.1802" gradientTransform="matrix(-1 0 0 1 -206.1191 0)">
				<stop  offset="0" style="stop-color:#000000"/>
				<stop  offset="1" style="stop-color:#FFFFFF"/>
			</linearGradient>
			<path style="fill:url(#SVGID_6_);" d="M167.7,30c0,0-5.5,2.2-6.3,5.3c-0.7,3,0,15.1,0,15.1s4.6,0,5.2-2.3
				C166.7,44.8,168.2,31.8,167.7,30z"/>
		</g>
	</mask>
	<g style="mask:url(#SVGID_5_);">
		<g>
			<path style="fill:none;stroke:#000000;stroke-miterlimit:10;" d="M161.4,35.3c-0.7,3,0,15.1,0,15.1s4.5,0,5.2-2.3
				c0.1-3.2,1.1-15.8,1.1-18C167.7,30,162.1,32.2,161.4,35.3z"/>
		</g>
	</g>
	<defs>
		<filter id="Adobe_OpacityMaskFilter_2_" filterUnits="userSpaceOnUse" x="160.6" y="68.5" width="6.6" height="73.3">
			<feColorMatrix  type="matrix" values="1 0 0 0 0  0 1 0 0 0  0 0 1 0 0  0 0 0 1 0"/>
		</filter>
	</defs>
	<mask maskUnits="userSpaceOnUse" x="160.6" y="68.5" width="6.6" height="73.3" id="SVGID_7_">
		<g style="filter:url(#Adobe_OpacityMaskFilter_2_);">
			<linearGradient id="SVGID_8_" gradientUnits="userSpaceOnUse" x1="163.5649" y1="65.1935" x2="164.2404" y2="146.0256">
				<stop  offset="0" style="stop-color:#000000"/>
				<stop  offset="0.3739" style="stop-color:#FFFFFF"/>
				<stop  offset="0.6884" style="stop-color:#FFFFFF"/>
				<stop  offset="0.9999" style="stop-color:#000000"/>
			</linearGradient>
			<path style="fill:url(#SVGID_8_);" d="M162.6,69.3c0,0-1.4,19.3,1.5,29.8c2.9,10.4,2.8,39.4,2.1,42c-0.6,2.6-1.1-34.7-2.8-40.5
				c-1.7-5.8-3.2-30.5-2.1-31.3C162.5,68.6,162.6,69.3,162.6,69.3z"/>
		</g>
	</mask>
	<g style="opacity:0.84;mask:url(#SVGID_7_);">
		<g>
			<path style="fill:none;stroke:#000000;stroke-miterlimit:10;" d="M162.6,69.3c0,0-0.2-0.8-1.2,0c-1.1,0.8,0.5,25.5,2.1,31.3
				c1.7,5.8,2.1,43.1,2.8,40.5c0.6-2.6,0.8-31.6-2.1-42C161.3,88.7,162.6,69.3,162.6,69.3z"/>
		</g>
	</g>
	<defs>
		<filter id="Adobe_OpacityMaskFilter_3_" filterUnits="userSpaceOnUse" x="202.2" y="64.5" width="10.7" height="101.8">
			<feColorMatrix  type="matrix" values="1 0 0 0 0  0 1 0 0 0  0 0 1 0 0  0 0 0 1 0"/>
		</filter>
	</defs>
	<mask maskUnits="userSpaceOnUse" x="202.2" y="64.5" width="10.7" height="101.8" id="SVGID_9_">
		<g style="filter:url(#Adobe_OpacityMaskFilter_3_);">
			<linearGradient id="SVGID_10_" gradientUnits="userSpaceOnUse" x1="208.3796" y1="64.272" x2="206.6444" y2="172.6922">
				<stop  offset="0" style="stop-color:#000000"/>
				<stop  offset="0.3739" style="stop-color:#FFFFFF"/>
				<stop  offset="0.6884" style="stop-color:#FFFFFF"/>
				<stop  offset="0.9999" style="stop-color:#000000"/>
			</linearGradient>
			<path style="fill:url(#SVGID_10_);" d="M207.6,68.2c-0.2-1,3.7-1.5,4.7-2.5c1,14.6-2,40.9-3.3,50c-1.2,9.1-0.8,44.2-0.4,48.7
				c-2.5-0.1-3.4,0.5-4.9,1.3c-2.2,1.2,0-40.5,0.9-50.6C206.1,98.1,207,85.8,207.6,68.2z"/>
		</g>
	</mask>
	<g style="opacity:0.68;mask:url(#SVGID_9_);">
		<g>
			<path style="fill:none;stroke:#000000;stroke-miterlimit:10;" d="M207.6,68.2c-0.5,17.6-1.5,29.9-3,47
				c-0.9,10.1-3.1,51.8-0.9,50.6c1.5-0.8,2.4-1.5,4.9-1.3c-0.5-4.5-0.8-39.6,0.4-48.7c1.2-9.1,4.3-35.4,3.3-50
				C211.3,66.7,207.3,67.2,207.6,68.2z"/>
		</g>
	</g>
	<g>
		<g>
			<path style="fill:none;stroke:#000000;stroke-miterlimit:10;" d="M218.5,62.7c-8.4-4.1-21.8-4.8-29.1-4.8l-0.5,0l-0.6,0
				c-7.3,0-20.7,0.6-29.1,4.8c-0.3,0.2-0.9,0.5,0.4,17.3c0.7,9.3,1.7,20.5,2.4,28.7c0.5,5.8,0.9,10.4,0.9,10.9
				c-0.1,2.7-0.1,46.5,0,47.9c0.1,2,1.8,4.8,5.1,6.4c2.3,1,12.2,3,19.9,3c0.3,0,0.6,0.1,0.9,0.1c0.3,0,0.6,0.1,0.9,0.1h0
				c7.9,0,17.7-2.1,19.9-3.1c3.2-1.3,5.1-4.7,5.1-6.4c0.1-1.4,0.1-45.2,0-47.9c0-0.5,0.4-5.1,0.9-10.9c0.7-8.2,1.7-19.4,2.4-28.7
				C219.4,63.3,218.9,63,218.5,62.7z M215.1,108.7c-0.6,6.3-0.9,10.5-0.9,11c0.1,2.7,0.1,46.5,0,47.8c-0.1,1.6-1.9,4.6-4.7,5.7
				c-2.1,0.9-12,2.9-19.7,2.9c-0.3,0-0.6,0-0.9,0c-0.3,0-0.6,0-0.9,0c-8,0-17.7-2.1-19.6-2.9c-3.6-1.6-4.6-4.5-4.7-5.7
				c-0.1-1.4-0.1-45.2,0-47.8c0-0.5-0.4-4.7-0.9-11c-1.2-14.1-3.8-43.3-3-45.4c8.3-4,21.5-4.6,28.7-4.6l0.6,0l0.5,0
				c7.2,0,20.4,0.6,28.7,4.6C218.9,65.3,216.3,94.6,215.1,108.7z"/>
		</g>
	</g>
</g>
<g>
	<g>
		<path style="fill:none;stroke:#000000;stroke-miterlimit:10;" d="M473.1,113.5l-17.3-6c0,0-2.3-0.7-3,1.5
			c-2.3,7.1-7.3,22.4-7.4,23.5c-0.1,1.4,2.3,5.3,8.4,7.6c6,2.2,10.4,0.8,11.3-0.3c0.7-0.8,7.2-16.4,9.9-23.1
			C475.7,115.2,473.1,113.5,473.1,113.5z"/>
		<path style="fill:none;stroke:#000000;stroke-miterlimit:10;" d="M473.2,113.4L473.2,113.4l-17.3-6c0,0-0.4-0.1-0.8-0.1
			c-0.7,0-1.9,0.2-2.4,1.7c-2.7,8.3-7.3,22.4-7.4,23.5c-0.1,1.5,2.4,5.5,8.5,7.7c2.1,0.8,4.2,1.1,6.2,1.1h0c2.7,0,4.7-0.7,5.3-1.5
			c0.7-0.9,7.6-17.5,9.9-23.1C475.9,115.1,473.3,113.4,473.2,113.4z M474.9,116.6c-3.1,7.6-9.3,22.3-9.9,23c-0.4,0.5-2.2,1.4-5,1.4
			h0c-1.9,0-4-0.4-6.1-1.2c-6-2.2-8.3-6.1-8.2-7.4c0-0.7,2.7-9.3,7.3-23.4c0.4-1.2,1.3-1.5,2.1-1.5c0.4,0,0.7,0.1,0.7,0.1l17.2,6
			C473.3,113.8,475.4,115.3,474.9,116.6z"/>
	</g>
	<g>
		<path style="fill:none;stroke:#000000;stroke-miterlimit:10;" d="M473.3,113.8c-5.7-0.7-12.2-3.1-17-6.3c-1.6,0-2.6,0.4-2.9,1.2
			c-0.7,1.8,3.6,5.1,9.5,7.3c5.9,2.2,11.3,2.5,11.9,0.7C475,115.8,474.5,114.8,473.3,113.8z"/>
		<path style="fill:none;stroke:#000000;stroke-miterlimit:10;" d="M473.4,113.6L473.4,113.6L473.4,113.6c-5.8-0.8-12.3-3.2-17-6.3
			l0,0l-0.1,0c-1.7,0.1-2.8,0.5-3.1,1.3c-0.4,1,0.5,2.3,2.3,3.7c1.8,1.4,4.4,2.7,7.3,3.8c3.2,1.2,6.4,1.8,8.8,1.8h0
			c1.9,0,3.1-0.4,3.4-1.3C475.2,115.8,474.7,114.8,473.4,113.6z M474.6,116.5c-0.3,0.7-1.3,1.1-3.1,1.1h0c-2.3,0-5.5-0.7-8.6-1.9
			c-2.8-1.1-5.4-2.4-7.2-3.7c-1.7-1.3-2.5-2.5-2.2-3.3c0.2-0.6,1.2-1,2.7-1.1c4.8,3.1,11.3,5.5,17,6.3
			C474.3,115,474.8,115.9,474.6,116.5z"/>
	</g>
	<g>
		<g>
			<path style="fill:none;stroke:#000000;stroke-miterlimit:10;" d="M455.6,109.9c-1.3,3.5,15.2,9.6,16.5,6.1
				c0.3-0.8,0.6-1.5,0.8-2.2c-5.8-1.4-11-3.3-16.5-6.1C456.2,108.4,455.9,109.2,455.6,109.9z"/>
		</g>
		<g>
			<path style="fill:none;stroke:#000000;stroke-miterlimit:10;" d="M456.5,107.5l-0.3-0.1l-0.9,2.5c-0.7,2,3.2,4.5,7.4,6
				c4.2,1.6,8.8,2.3,9.6,0.3l0.9-2.5l-0.3-0.1C467.2,112.2,462.1,110.3,456.5,107.5z M471.8,115.9c-0.5,1.4-4.3,1.1-8.9-0.6
				c-4.6-1.7-7.6-4-7.1-5.3l0.7-1.9c5.4,2.7,10.4,4.6,16,5.9L471.8,115.9z"/>
		</g>
	</g>
	<g>
		<g>
			<g>
				<path style="fill:none;stroke:#000000;stroke-miterlimit:10;" d="M472.7,113.9c-5.8-0.3-11.7-2.5-16.3-6c-0.1-0.1-0.2-0.1-0.3,0
					c-0.1,0.1-0.1,0.2,0,0.3c2.3,1.8,5,3.2,7.8,4.3c2.8,1,5.8,1.7,8.7,1.9c0.1,0,0.2-0.1,0.2-0.2C472.9,114,472.8,113.9,472.7,113.9
					z"/>
			</g>
		</g>
		<g>
			<g>
				<path style="fill:none;stroke:#000000;stroke-miterlimit:10;" d="M472.5,114.6c-5.7-0.3-11.6-2.5-16.1-6c-0.1-0.1-0.2-0.1-0.3,0
					c-0.1,0.1-0.1,0.2,0,0.3c2.3,1.7,4.9,3.2,7.7,4.2c2.8,1,5.7,1.7,8.6,1.8c0.1,0,0.2-0.1,0.2-0.2
					C472.7,114.7,472.6,114.6,472.5,114.6z"/>
			</g>
		</g>
		<g>
			<g>
				<path style="fill:none;stroke:#000000;stroke-miterlimit:10;" d="M472.2,115.2c-5.6-0.3-11.7-2.6-16.2-6c-0.1-0.1-0.2-0.1-0.3,0
					c-0.1,0.1-0.1,0.2,0,0.3c2.3,1.7,5.1,3.2,7.9,4.3c2.8,1,5.7,1.7,8.5,1.8c0.1,0,0.2-0.1,0.2-0.2
					C472.4,115.3,472.3,115.2,472.2,115.2z"/>
			</g>
		</g>
		<g>
			<g>
				<path style="fill:none;stroke:#000000;stroke-miterlimit:10;" d="M471.9,115.9c-5.6-0.3-11.4-2.5-15.9-5.9
					c-0.1-0.1-0.2-0.1-0.3,0c-0.1,0.1-0.1,0.2,0,0.3c2.2,1.7,4.9,3.1,7.6,4.2c2.8,1,5.7,1.7,8.5,1.8c0.1,0,0.2-0.1,0.2-0.2
					C472.1,116,472,115.9,471.9,115.9z"/>
			</g>
		</g>
		<g>
			<g>
				<path style="fill:none;stroke:#000000;stroke-miterlimit:10;" d="M471.4,116.5c-5.5-0.3-11.1-2.4-15.5-5.7
					c-0.1-0.1-0.2-0.1-0.3,0c-0.1,0.1-0.1,0.2,0,0.3c2.2,1.7,5,3.1,7.6,4.1c2.6,1,5.3,1.5,8.2,1.7c0.1,0,0.2-0.1,0.2-0.2
					C471.6,116.6,471.5,116.5,471.4,116.5z"/>
			</g>
		</g>
	</g>
	<g>
		<g>
			<polyline style="fill:none;stroke:#000000;stroke-miterlimit:10;" points="479.7,0 512,0 512,48.5 			"/>
			<path style="fill:none;stroke:#000000;stroke-miterlimit:10;" d="M485.2,110.6c0.2-0.4,13.1-30.1,26.8-62V0h-32.4
				c-13.2,42.1-30.4,97.1-30.4,97.5C447.4,108.8,480.1,120.3,485.2,110.6z"/>
		</g>
		<g>
			<g>
				<path style="fill:none;stroke:#000000;stroke-miterlimit:10;" d="M471.7,116.6"/>
			</g>
		</g>
	</g>
	<defs>
		<filter id="Adobe_OpacityMaskFilter_4_" filterUnits="userSpaceOnUse" x="473.8" y="29.8" width="38.7" height="84.6">
			<feColorMatrix  type="matrix" values="1 0 0 0 0  0 1 0 0 0  0 0 1 0 0  0 0 0 1 0"/>
		</filter>
	</defs>
	<mask maskUnits="userSpaceOnUse" x="473.8" y="29.8" width="38.7" height="84.6" id="SVGID_11_">
		<g style="filter:url(#Adobe_OpacityMaskFilter_4_);">
			
				<linearGradient id="SVGID_12_" gradientUnits="userSpaceOnUse" x1="734.3549" y1="214.7973" x2="740.2623" y2="215.216" gradientTransform="matrix(0.9376 0.3477 -0.3477 0.9376 -106.3869 -413.9172)">
				<stop  offset="0" style="stop-color:#231F20"/>
				<stop  offset="1" style="stop-color:#FFFFFF"/>
			</linearGradient>
			<path style="fill:url(#SVGID_12_);" d="M474.6,113.8l59.4-129.6l8.5-11.5l-59.1,139.6C483.4,112.3,480.9,114.3,474.6,113.8z"/>
		</g>
	</mask>
	<g style="opacity:0.5;mask:url(#SVGID_11_);">
		<line style="fill:none;stroke:#000000;stroke-miterlimit:10;" x1="512" y1="32.3" x2="512" y2="44.8"/>
		<path style="fill:none;stroke:#000000;stroke-miterlimit:10;" d="M483.4,112.3L512,44.7V32.1l-37.4,81.7
			C480.9,114.3,483.4,112.3,483.4,112.3z"/>
	</g>
	<g style="opacity:0.5;">
		<path style="fill:none;stroke:#000000;stroke-miterlimit:10;" d="M483.4,112.3"/>
	</g>
	<defs>
		<filter id="Adobe_OpacityMaskFilter_5_" filterUnits="userSpaceOnUse" x="465.6" y="0.8" width="39.5" height="85.6">
			<feColorMatrix  type="matrix" values="1 0 0 0 0  0 1 0 0 0  0 0 1 0 0  0 0 0 1 0"/>
		</filter>
	</defs>
	<mask maskUnits="userSpaceOnUse" x="465.6" y="0.8" width="39.5" height="85.6" id="SVGID_13_">
		<g style="filter:url(#Adobe_OpacityMaskFilter_5_);">
			
				<linearGradient id="SVGID_14_" gradientUnits="userSpaceOnUse" x1="710.8385" y1="177.7347" x2="708.7185" y2="271.6239" gradientTransform="matrix(0.9376 0.3477 -0.3477 0.9376 -106.3869 -413.9172)">
				<stop  offset="0" style="stop-color:#231F20"/>
				<stop  offset="0.273" style="stop-color:#FFFFFF"/>
				<stop  offset="0.7329" style="stop-color:#FFFFFF"/>
				<stop  offset="0.9881" style="stop-color:#000000"/>
			</linearGradient>
			<polygon style="fill:url(#SVGID_14_);" points="485.7,15.2 503.9,2.3 466.1,86.2 			"/>
		</g>
	</mask>
	<g style="mask:url(#SVGID_13_);">
		<polygon style="fill:none;stroke:#000000;stroke-miterlimit:10;" points="466.1,86.2 503.9,2.3 485.7,15.2 		"/>
	</g>
	<g>
		<g>
			<path style="fill:none;stroke:#000000;stroke-miterlimit:10;" d="M473.1,117.5c-0.7,0.1-1.5,0.2-2.5,0.1c-0.7,0-1.5-0.1-2.3-0.3
				c-0.7-0.1-1.5-0.3-2.2-0.5c-0.7-0.2-1.4-0.4-2.2-0.7c-0.7-0.2-1.4-0.5-2.1-0.8c-0.7-0.3-1.4-0.6-2.1-0.9c-0.7-0.3-1.4-0.7-2-1.1
				c-0.7-0.4-1.4-0.8-1.9-1.3c-0.8-0.6-1.4-1.1-1.8-1.7c-0.4-0.5-0.7-1.1-0.5-1.7l0,0c0,0,0,0,0,0l-0.3-0.1c0,0.1,0,0.2-0.1,0.2
				l-0.4,0.1c-2.7,8.3-7.3,22.5-7.4,23.5c0,0.4,0.2,1,0.5,1.6l0,0l0,0.1l0.2,0.4l0,0c0.3,0.5,0.8,1.1,1.3,1.6l0,0l0.1,0.1l0.2,0.2
				l0,0c0.4,0.4,0.9,0.8,1.4,1.2l0,0l0.1,0.1l0.2,0.1l0,0c0.5,0.3,1,0.7,1.5,1l0,0l0.1,0.1l0.2,0.1l0,0c0.5,0.3,1,0.5,1.6,0.8l0,0
				l0.2,0.1l0.2,0.1l0,0c0.3,0.1,0.5,0.2,0.8,0.3c0.3,0.1,0.6,0.2,0.8,0.3l0,0l0.2,0.1c0,0,0,0,0,0l0.2,0.1l0,0
				c0.6,0.2,1.1,0.3,1.7,0.4l0,0l0.2,0l0.1,0l0,0c0.6,0.1,1.2,0.2,1.8,0.2l0,0l0.2,0l0.1,0l0,0c0.6,0,1.3,0,1.9,0l0,0l0.3,0l0.1,0
				l0,0c0.7-0.1,1.4-0.2,2-0.4l0,0l0.4-0.2l0.1,0l0,0c0.6-0.3,1.1-0.6,1.3-0.9c0.7-0.8,6.5-14.8,9.9-23.1l-0.6-0.2
				C474.4,117.2,473.7,117.4,473.1,117.5z M446,133.7c-0.2-0.4-0.3-0.8-0.3-1.1c0-0.7,2.7-9.3,7.3-23.4c0-0.1,0-0.1,0.1-0.2
				c0,0.5,0.2,1,0.6,1.6L446,133.7z M447.4,135.9c-0.5-0.6-0.9-1.1-1.3-1.7l7.8-23.2c0.4,0.5,0.9,0.9,1.5,1.4l-3.2,9.3L447.4,135.9z
				 M449.1,137.4c-0.5-0.4-1-0.8-1.4-1.2l8.1-23.5c0.5,0.4,1,0.7,1.6,1.1L449.1,137.4z M450.9,138.6c-0.5-0.3-1-0.6-1.5-1l8.3-23.8
				c0.5,0.3,1.1,0.6,1.7,0.9L450.9,138.6z M452.8,139.5c-0.5-0.2-1.1-0.5-1.6-0.8l0.5-1.4l8.1-22.5c0.6,0.3,1.1,0.5,1.7,0.8
				L452.8,139.5z M454.7,140.3c-0.5-0.2-1.1-0.4-1.6-0.6l8.7-23.8c0.6,0.2,1.2,0.5,1.8,0.7l-2.5,6.8L454.7,140.3z M456.8,140.8
				c-0.6-0.1-1.1-0.3-1.7-0.4l8.9-23.8c0.6,0.2,1.2,0.4,1.8,0.6l-3.6,9.3L456.8,140.8z M458.9,141.1c-0.6,0-1.2-0.1-1.8-0.2
				l9.1-23.6c0.6,0.2,1.3,0.3,1.9,0.4L458.9,141.1z M461.1,141.1c-0.6,0.1-1.2,0.1-1.9,0l1.7-4.3l7.5-19.1c0.7,0.1,1.3,0.2,2,0.3
				L461.1,141.1z M463.6,140.6c-0.6,0.2-1.3,0.4-2.1,0.5l9.2-23c0.8,0,1.5,0,2.1-0.1L463.6,140.6z M474.7,117.1
				c-5.6,13.6-9.3,22.1-9.7,22.7c-0.2,0.2-0.5,0.4-0.9,0.6l5.9-14.5l3.3-8C473.9,117.7,474.4,117.5,474.7,117.1z"/>
		</g>
	</g>
	<defs>
		<filter id="Adobe_OpacityMaskFilter_6_" filterUnits="userSpaceOnUse" x="460.3" y="116.6" width="14.1" height="23.5">
			<feColorMatrix  type="matrix" values="1 0 0 0 0  0 1 0 0 0  0 0 1 0 0  0 0 0 1 0"/>
		</filter>
	</defs>
	<mask maskUnits="userSpaceOnUse" x="460.3" y="116.6" width="14.1" height="23.5" id="SVGID_15_">
		<g style="filter:url(#Adobe_OpacityMaskFilter_6_);">
			
				<linearGradient id="SVGID_16_" gradientUnits="userSpaceOnUse" x1="726.5469" y1="321.6809" x2="726.5469" y2="297.0557" gradientTransform="matrix(0.9376 0.3477 -0.3477 0.9376 -106.3869 -413.9172)">
				<stop  offset="0" style="stop-color:#000000"/>
				<stop  offset="0.2671" style="stop-color:#FFFFFF"/>
				<stop  offset="0.6973" style="stop-color:#FFFFFF"/>
				<stop  offset="1" style="stop-color:#000000"/>
			</linearGradient>
			<path style="opacity:0.92;fill:url(#SVGID_16_);" d="M473.4,117.9c0,0-7,17.9-8,20.4c-1,1-2.6,1.3-4.3,1.3c1.6-3.9,6.8-17.2,8-21
				C470.6,119.4,472.3,118.7,473.4,117.9z"/>
		</g>
	</mask>
	<g style="opacity:0.92;mask:url(#SVGID_15_);">
		<path style="fill:none;stroke:#000000;stroke-miterlimit:10;" d="M469.1,118.6c-1.3,3.8-6.5,17.1-8,21c1.7,0,3.4-0.3,4.3-1.3
			c1-2.4,8-20.4,8-20.4C472.3,118.7,470.6,119.4,469.1,118.6z"/>
	</g>
	<defs>
		<filter id="Adobe_OpacityMaskFilter_7_" filterUnits="userSpaceOnUse" x="447.6" y="112.8" width="9.6" height="22.7">
			<feColorMatrix  type="matrix" values="1 0 0 0 0  0 1 0 0 0  0 0 1 0 0  0 0 0 1 0"/>
		</filter>
	</defs>
	<mask maskUnits="userSpaceOnUse" x="447.6" y="112.8" width="9.6" height="22.7" id="SVGID_17_">
		<g style="filter:url(#Adobe_OpacityMaskFilter_7_);">
			
				<linearGradient id="SVGID_18_" gradientUnits="userSpaceOnUse" x1="711.123" y1="321.2147" x2="711.123" y2="299.8149" gradientTransform="matrix(0.9376 0.3477 -0.3477 0.9376 -106.3869 -413.9172)">
				<stop  offset="0" style="stop-color:#000000"/>
				<stop  offset="0.2671" style="stop-color:#FFFFFF"/>
				<stop  offset="0.6973" style="stop-color:#FFFFFF"/>
				<stop  offset="1" style="stop-color:#000000"/>
			</linearGradient>
			<path style="fill:url(#SVGID_18_);" d="M454.9,114c0,0,0.9,1.4,1.7,2c-0.8,3.3-5.8,16.9-6.8,18.9c-1.4-0.5-1.6-1.1-1.6-1.1
				L454.9,114z"/>
		</g>
	</mask>
	<g style="mask:url(#SVGID_17_);">
		<path style="fill:none;stroke:#000000;stroke-miterlimit:10;" d="M454.9,114l-6.7,19.9c0,0,0.2,0.5,1.6,1.1c1-2,6-15.7,6.8-18.9
			C455.8,115.4,454.9,114,454.9,114z"/>
	</g>
</g>
<g>
	<g>
		<g>
			<polyline style="fill:none;stroke:#000000;stroke-miterlimit:10;" points="512,470.9 512,512 479.7,512 			"/>
			<path style="fill:none;stroke:#000000;stroke-miterlimit:10;" d="M512,471l-17.5-6.5c0,0-6.7,21.2-14.9,47.4H512V471z"/>
		</g>
	</g>
	<g>
		<line style="fill:none;stroke:#000000;stroke-miterlimit:10;" x1="512" y1="461.9" x2="512" y2="470.7"/>
		<polygon style="fill:none;stroke:#000000;stroke-miterlimit:10;" points="494.9,455.6 494.6,464.3 512,470.8 512,461.9 		"/>
	</g>
	<g style="opacity:0.69;">
		<line style="fill:none;stroke:#000000;stroke-miterlimit:10;" x1="512" y1="470.7" x2="512" y2="471.5"/>
		<polygon style="fill:none;stroke:#000000;stroke-miterlimit:10;" points="494.6,464.3 494.4,465 512,471.5 512,470.8 		"/>
	</g>
</g>
<g>
	<g>
		<g>
			<polyline style="fill:none;stroke:#000000;stroke-miterlimit:10;" points="21.1,512 0,512 0,470.9 			"/>
			<path style="fill:none;stroke:#000000;stroke-miterlimit:10;" d="M0,471v41h20.9c7.2-16.8,12.3-28.6,12.3-28.6L0,471z"/>
		</g>
	</g>
	<g>
		<line style="fill:none;stroke:#000000;stroke-miterlimit:10;" x1="0" y1="470.7" x2="0" y2="461.9"/>
		<polygon style="fill:none;stroke:#000000;stroke-miterlimit:10;" points="38.6,476.2 0,461.9 0,470.8 33.4,483.1 		"/>
	</g>
	<defs>
		<filter id="Adobe_OpacityMaskFilter_8_" filterUnits="userSpaceOnUse" x="13.9" y="481.1" width="18.6" height="31.4">
			<feColorMatrix  type="matrix" values="1 0 0 0 0  0 1 0 0 0  0 0 1 0 0  0 0 0 1 0"/>
		</filter>
	</defs>
	<mask maskUnits="userSpaceOnUse" x="13.9" y="481.1" width="18.6" height="31.4" id="SVGID_19_">
		<g style="filter:url(#Adobe_OpacityMaskFilter_8_);">
			
				<linearGradient id="SVGID_20_" gradientUnits="userSpaceOnUse" x1="432.3228" y1="872.8781" x2="438.2302" y2="873.2968" gradientTransform="matrix(0.9376 0.3477 -0.3477 0.9376 -106.3869 -413.9172)">
				<stop  offset="0" style="stop-color:#231F20"/>
				<stop  offset="1" style="stop-color:#FFFFFF"/>
			</linearGradient>
			<path style="fill:url(#SVGID_20_);" d="M-37.4,625.8l59.4-129.6l8.5-11.5l-59.1,139.6C-28.6,624.3-31.1,626.3-37.4,625.8z"/>
		</g>
	</mask>
	<g style="opacity:0.5;mask:url(#SVGID_19_);">
		<line style="fill:none;stroke:#000000;stroke-miterlimit:10;" x1="18.9" y1="512" x2="14.7" y2="512"/>
		<polygon style="fill:none;stroke:#000000;stroke-miterlimit:10;" points="21.9,496.2 14.7,512 18.9,512 30.5,484.8 		"/>
	</g>
	<g style="opacity:0.5;">
		<path style="fill:none;stroke:#000000;stroke-miterlimit:10;" d="M30.5,484.8"/>
	</g>
	<g style="opacity:0.69;">
		<line style="fill:none;stroke:#000000;stroke-miterlimit:10;" x1="0" y1="471.5" x2="0" y2="470.7"/>
		<polygon style="fill:none;stroke:#000000;stroke-miterlimit:10;" points="33.4,483.1 0,470.8 0,471.5 33.1,483.8 		"/>
	</g>
</g>
<g>
	<g>
		<g>
			<line style="fill:none;stroke:#000000;stroke-miterlimit:10;" x1="0" y1="321.1" x2="0" y2="263.2"/>
			<polygon style="fill:none;stroke:#000000;stroke-miterlimit:10;" points="82.2,356.6 19.3,250.6 0,263.1 0,321 43.5,381.8 			"/>
		</g>
		<g>
			<line style="fill:none;stroke:#000000;stroke-miterlimit:10;" x1="0" y1="321.3" x2="0" y2="320.5"/>
			<line style="fill:none;stroke:#000000;stroke-miterlimit:10;" x1="0" y1="263.5" x2="0" y2="262.9"/>
			<polygon style="fill:none;stroke:#000000;stroke-miterlimit:10;" points="43.4,382.2 82.5,356.7 19.6,250.4 19.4,250.2 0,262.8 
				0,263.5 19.3,250.9 81.8,356.6 43.6,381.5 0,320.5 0,321.4 43.3,382 			"/>
		</g>
	</g>
	<g>
		<g>
			<polygon style="fill:none;stroke:#000000;stroke-miterlimit:10;" points="43.5,381.8 44.7,382.8 82.5,357.9 82.4,356.5 			"/>
		</g>
	</g>
	<g>
		<g>
			<path style="fill:none;stroke:#000000;stroke-miterlimit:10;" d="M82.1,356.1l-17,11.1l-5.1,3.3l-17,11.1
				c0,0,14.6,21.2,19.8,27.9c2.4,3.1,7,1.7,9.3,1.2c3-0.7,22.8-13.6,24.7-16.1c1.4-1.9,4.5-5.7,2.7-9
				C95.5,378,82.1,356.1,82.1,356.1z"/>
		</g>
		<g>
			<path style="fill:none;stroke:#000000;stroke-miterlimit:10;" d="M82.3,355.9l-0.1-0.2l-39.5,25.8l0.2,0.2
				c0.1,0.2,14.7,21.3,19.8,27.9c1.1,1.4,2.7,2.1,4.8,2.1h0c1.6,0,3.2-0.4,4.3-0.7c0.2,0,0.4-0.2,0.5-0.2
				c3.2-0.7,22.9-13.6,24.8-16.2l0.2-0.3c1.5-2,4.3-5.7,2.5-9C95.8,378,82.5,356.1,82.3,355.9z M96.9,394l-0.2,0.3
				c-1.8,2.5-21.5,15.3-24.5,16c-0.2,0-0.3,0.1-0.5,0.1c-1.1,0.3-2.7,0.6-4.2,0.6h0c-2,0-3.4-0.6-4.4-1.8
				c-4.9-6.2-18.1-25.3-19.7-27.6L82,356.4c1.5,2.4,13.6,22.2,17.3,29.2C101,388.6,98.3,392.1,96.9,394z"/>
		</g>
	</g>
	<defs>
		<filter id="Adobe_OpacityMaskFilter_9_" filterUnits="userSpaceOnUse" x="77.2" y="355.4" width="23.4" height="42.2">
			<feColorMatrix  type="matrix" values="1 0 0 0 0  0 1 0 0 0  0 0 1 0 0  0 0 0 1 0"/>
		</filter>
	</defs>
	<mask maskUnits="userSpaceOnUse" x="77.2" y="355.4" width="23.4" height="42.2" id="SVGID_21_">
		<g style="filter:url(#Adobe_OpacityMaskFilter_9_);">
			
				<linearGradient id="SVGID_22_" gradientUnits="userSpaceOnUse" x1="107.1921" y1="711.8808" x2="112.2237" y2="712.5354" gradientTransform="matrix(0.838 -0.5457 0.5457 0.838 -390.1982 -161.8383)">
				<stop  offset="0" style="stop-color:#000000"/>
				<stop  offset="1" style="stop-color:#FFFFFF"/>
			</linearGradient>
			<path style="fill:url(#SVGID_22_);" d="M77.9,358.8c2.7,4.4,14.4,23.7,18.3,30.8c1.1,2,0.5,4.1-0.4,6c0.6-0.5,0.9-0.8,1.1-1.1
				c1.4-1.9,4.5-5.7,2.7-9c-4-7.4-17.5-29.4-17.5-29.4L77.9,358.8z"/>
		</g>
	</mask>
	<g style="mask:url(#SVGID_21_);">
		<g>
			<path style="fill:none;stroke:#000000;stroke-miterlimit:10;" d="M82.1,356.1l-4.2,2.8c2.6,4.3,14.4,23.7,18.3,30.8
				c1.1,2,0.5,4.1-0.4,6c0.6-0.5,0.9-0.8,1.1-1.1c1.4-1.9,4.5-5.7,2.7-9C95.5,378,82.1,356.1,82.1,356.1z"/>
		</g>
	</g>
	<defs>
		<filter id="Adobe_OpacityMaskFilter_10_" filterUnits="userSpaceOnUse" x="67.5" y="362.2" width="23.6" height="35.5">
			<feColorMatrix  type="matrix" values="1 0 0 0 0  0 1 0 0 0  0 0 1 0 0  0 0 0 1 0"/>
		</filter>
	</defs>
	<mask maskUnits="userSpaceOnUse" x="67.5" y="362.2" width="23.6" height="35.5" id="SVGID_23_">
		<g style="filter:url(#Adobe_OpacityMaskFilter_10_);">
			
				<linearGradient id="SVGID_24_" gradientUnits="userSpaceOnUse" x1="96.556" y1="728.8936" x2="99.1619" y2="693.0168" gradientTransform="matrix(0.838 -0.5457 0.5457 0.838 -390.1982 -161.8383)">
				<stop  offset="0" style="stop-color:#000000"/>
				<stop  offset="0.2671" style="stop-color:#FFFFFF"/>
				<stop  offset="0.6973" style="stop-color:#FFFFFF"/>
				<stop  offset="1" style="stop-color:#000000"/>
			</linearGradient>
			<path style="fill:url(#SVGID_24_);" d="M68.2,367.6c0,0,14.9,26.5,16.3,28.5c1.7,2.6,6.8-0.2,6.2-2.3
				c-0.6-2.1-16.2-30.9-16.2-30.9L68.2,367.6z"/>
		</g>
	</mask>
	<g style="mask:url(#SVGID_23_);">
		<g>
			<path style="fill:none;stroke:#000000;stroke-miterlimit:10;" d="M74.5,362.9l-6.3,4.7c0,0,14.9,26.5,16.3,28.5
				c1.7,2.6,6.8-0.2,6.2-2.3C90.1,391.8,74.5,362.9,74.5,362.9z"/>
		</g>
	</g>
	<g>
		<g>
			<line style="fill:none;stroke:#000000;stroke-miterlimit:10;" x1="0" y1="314.4" x2="0" y2="311.7"/>
			<polygon style="fill:none;stroke:#000000;stroke-miterlimit:10;" points="53.7,373.6 0,311.8 0,314.5 48.8,376.2 			"/>
		</g>
	</g>
	<g>
		<g>
			<polygon style="fill:none;stroke:#000000;stroke-miterlimit:10;" points="20.5,261.5 64.6,366.6 75.4,359.2 22.1,256.7 			"/>
		</g>
	</g>
	<g>
		<g>
			<line style="fill:none;stroke:#000000;stroke-miterlimit:10;" x1="0" y1="263.2" x2="0" y2="256.8"/>
			<path style="fill:none;stroke:#000000;stroke-miterlimit:10;" d="M16.2,245.4c0,0-5.8,2.8-10.9,7.5c-1.3,1.2-3.2,2.6-5.3,4v6.2
				l19.5-12.7L16.2,245.4z"/>
		</g>
		<g>
			<line style="fill:none;stroke:#000000;stroke-miterlimit:10;" x1="0" y1="263.5" x2="0" y2="262.9"/>
			<line style="fill:none;stroke:#000000;stroke-miterlimit:10;" x1="0" y1="257.3" x2="0" y2="256.5"/>
			<path style="fill:none;stroke:#000000;stroke-miterlimit:10;" d="M16.3,245.1l-0.2,0.1c-0.1,0-5.9,2.9-11,7.5
				c-1.2,1.1-3.1,2.5-5.1,3.9v0.6c2.2-1.5,4.2-3,5.5-4.1c4.5-4,9.5-6.8,10.6-7.3l3,4.6L0,262.8v0.6l19.8-12.9L16.3,245.1z"/>
		</g>
	</g>
	<g>
		<g>
			<g>
				<g>
					<path style="fill:none;stroke:#000000;stroke-miterlimit:10;" d="M5,252.9c-0.4,0.3-0.9,0.8-1.4,1.2l-0.2,0.1l3.2,5l2-1.3
						l-3.4-5.2L5,252.9z M6.8,258.4l-2.7-4.2c0.4-0.3,0.6-0.5,1-0.9l2.8,4.3L6.8,258.4z"/>
				</g>
			</g>
		</g>
		<g>
			<g>
				<g>
					<path style="fill:none;stroke:#000000;stroke-miterlimit:10;" d="M12.2,247.5c-0.5,0.3-1,0.6-1.5,1l-0.1,0.1l3.7,5.6L16,253
						l-3.7-5.6L12.2,247.5z M14.2,253.6l-3.2-4.8c0.4-0.3,0.7-0.4,1.1-0.7l3.2,4.8L14.2,253.6z"/>
				</g>
			</g>
		</g>
		<g>
			<g>
				<g>
					<path style="fill:none;stroke:#000000;stroke-miterlimit:10;" d="M6.3,251.7c-0.4,0.4-0.8,0.7-1.2,1.1c0,0,0,0-0.1,0.1L4.9,253
						l3.3,5.1l1.8-1.2l-3.5-5.4L6.3,251.7z M9.5,256.6l-1.1,0.7L5.5,253c0.2-0.2,0.6-0.6,1-0.9L9.5,256.6z"/>
				</g>
			</g>
		</g>
		<g>
			<g>
				<g>
					<path style="fill:none;stroke:#000000;stroke-miterlimit:10;" d="M7.8,250.5c-0.5,0.4-0.9,0.7-1.4,1.1l-0.1,0.1l3.5,5.3
						l1.8-1.2L8,250.4L7.8,250.5z M9.7,256.5l-3-4.6c0.4-0.3,0.8-0.7,1-0.8l3.1,4.7L9.7,256.5z"/>
				</g>
			</g>
		</g>
		<g>
			<g>
				<g>
					<path style="fill:none;stroke:#000000;stroke-miterlimit:10;" d="M9.1,249.6c-0.5,0.3-0.9,0.7-1.4,1l-0.2,0.1l3.6,5.5l1.8-1.2
						l-3.7-5.6L9.1,249.6z M12.4,254.7l-1.1,0.7l-3.1-4.7c0.4-0.3,0.6-0.5,1.1-0.8L12.4,254.7z"/>
				</g>
			</g>
		</g>
		<g>
			<g>
				<g>
					<path style="fill:none;stroke:#000000;stroke-miterlimit:10;" d="M16,245.3c0,0-0.3,0.1-0.9,0.4l-0.2,0.1l3.6,5.5l1.1-0.7
						l-3.5-5.4L16,245.3z M18.7,250.7l-3-4.7c0.2-0.1,0.5-0.3,0.5-0.2l3,4.6L18.7,250.7z"/>
				</g>
			</g>
		</g>
		<g>
			<g>
				<g>
					<path style="fill:none;stroke:#000000;stroke-miterlimit:10;" d="M15.2,245.7c-0.5,0.3-1,0.6-1.6,0.9l-0.1,0.1l3.7,5.6l1.8-1.2
						l-3.6-5.5L15.2,245.7z M17.1,251.7l-3.1-4.8c0.5-0.3,0.9-0.5,1.2-0.7l3.1,4.7L17.1,251.7z"/>
				</g>
			</g>
		</g>
		<g>
			<g>
				<g>
					<path style="fill:none;stroke:#000000;stroke-miterlimit:10;" d="M13.6,246.7c-0.5,0.3-1,0.6-1.5,0.9l-0.2,0.1l3.7,5.6l1.8-1.2
						l-3.6-5.6L13.6,246.7z M15.8,252.6l-3.1-4.8c0.2-0.1,0.7-0.4,1.1-0.7l3.1,4.8L15.8,252.6z"/>
				</g>
			</g>
		</g>
		<g>
			<g>
				<g>
					<path style="fill:none;stroke:#000000;stroke-miterlimit:10;" d="M10.6,248.5c-0.5,0.3-1,0.7-1.5,1l-0.1,0.1l3.6,5.6l1.8-1.2
						l-3.7-5.6L10.6,248.5z M14,253.7l-1.3,0.9l-3.1-4.8c0.4-0.3,0.9-0.6,1.3-0.9L14,253.7z"/>
				</g>
			</g>
		</g>
		<g>
			<g>
				<g>
					<line style="fill:none;stroke:#000000;stroke-miterlimit:10;" x1="0" y1="263.5" x2="0" y2="262.9"/>
					<line style="fill:none;stroke:#000000;stroke-miterlimit:10;" x1="0" y1="261.6" x2="0" y2="261.1"/>
					<polygon style="fill:none;stroke:#000000;stroke-miterlimit:10;" points="0,261.1 0,261.6 0.6,262.5 0,262.8 0,263.5 
						1.1,262.8 					"/>
				</g>
			</g>
		</g>
		<g>
			<g>
				<g>
					<path style="fill:none;stroke:#000000;stroke-miterlimit:10;" d="M3.7,254c-0.4,0.3-0.9,0.7-1.4,1.1l-0.1,0.1l3.2,4.9l1.8-1.2
						l-3.3-5L3.7,254z M5.3,259.4l-2.7-4.1c0.4-0.3,0.9-0.6,1.1-0.8l2.7,4.2L5.3,259.4z"/>
				</g>
			</g>
		</g>
		<g>
			<g>
				<g>
					<path style="fill:none;stroke:#000000;stroke-miterlimit:10;" d="M2.2,255.1c-0.4,0.3-0.9,0.6-1.4,1l-0.2,0.1l3.1,4.8l1.8-1.2
						L2.4,255L2.2,255.1z M5,259.6l-1.1,0.7l-2.6-4c0.4-0.3,0.7-0.5,1.1-0.8L5,259.6z"/>
				</g>
			</g>
		</g>
		<g>
			<g>
				<g>
					<line style="fill:none;stroke:#000000;stroke-miterlimit:10;" x1="0" y1="261.6" x2="0" y2="261.1"/>
					<line style="fill:none;stroke:#000000;stroke-miterlimit:10;" x1="0" y1="258.1" x2="0" y2="257.6"/>
					<polygon style="fill:none;stroke:#000000;stroke-miterlimit:10;" points="2.6,261.7 0,257.7 0,258.2 2.1,261.4 0.8,262.3 
						0,261.1 0,261.6 0.9,262.9 					"/>
				</g>
			</g>
		</g>
		<g>
			<g>
				<g>
					<line style="fill:none;stroke:#000000;stroke-miterlimit:10;" x1="0" y1="258.1" x2="0" y2="257.6"/>
					<line style="fill:none;stroke:#000000;stroke-miterlimit:10;" x1="0" y1="257.1" x2="0" y2="256.8"/>
					<path style="fill:none;stroke:#000000;stroke-miterlimit:10;" d="M4.2,260.7l-3.1-4.8L0.9,256c-0.3,0.2-0.6,0.4-0.9,0.6v0.5
						c0.4-0.2,0.7-0.5,0.9-0.6l2.6,4l-1.1,0.7L0,257.7v0.5l2.4,3.7L4.2,260.7z"/>
				</g>
			</g>
		</g>
	</g>
	<defs>
		<filter id="Adobe_OpacityMaskFilter_11_" filterUnits="userSpaceOnUse" x="62.2" y="382.3" width="38.5" height="29.4">
			<feColorMatrix  type="matrix" values="1 0 0 0 0  0 1 0 0 0  0 0 1 0 0  0 0 0 1 0"/>
		</filter>
	</defs>
	<mask maskUnits="userSpaceOnUse" x="62.2" y="382.3" width="38.5" height="29.4" id="SVGID_25_">
		<g style="filter:url(#Adobe_OpacityMaskFilter_11_);">
			
				<linearGradient id="SVGID_26_" gradientUnits="userSpaceOnUse" x1="69.7431" y1="722.3525" x2="106.0261" y2="732.0999" gradientTransform="matrix(0.838 -0.5457 0.5457 0.838 -390.1982 -161.8383)">
				<stop  offset="0" style="stop-color:#000000"/>
				<stop  offset="1" style="stop-color:#FFFFFF"/>
			</linearGradient>
			<path style="fill:url(#SVGID_26_);" d="M63.1,409.3c2.6,3.1,7.4,1.6,9.5,1.1c3-0.7,22.5-13.1,24.4-15.6c1.4-1.8,4.8-6.8,2.4-9.7
				C101.4,390.3,71.2,408.3,63.1,409.3z"/>
		</g>
	</mask>
	<g style="mask:url(#SVGID_25_);">
		<g>
			<path style="fill:none;stroke:#000000;stroke-miterlimit:10;" d="M63.1,409.3c2.6,3.1,7.4,1.6,9.5,1.1c3-0.7,22.5-13.1,24.4-15.6
				c1.4-1.8,4.8-6.8,2.4-9.7C101.4,390.3,71.2,408.3,63.1,409.3z"/>
		</g>
	</g>
	<g>
		<g>
			<polygon style="fill:none;stroke:#000000;stroke-miterlimit:10;" points="52.9,382.4 68.3,404.5 54.8,378.7 			"/>
		</g>
	</g>
	<g>
		<g>
			<path style="fill:none;stroke:#000000;stroke-miterlimit:10;" d="M74.5,362.9l-6.3,4.7c0,0,14.9,26.5,16.3,28.5
				c1.7,2.6,6.8-0.2,6.2-2.3C90.1,391.8,74.5,362.9,74.5,362.9z"/>
		</g>
	</g>
</g>
<g>
	<g>
		<g>
			<line style="fill:none;stroke:#000000;stroke-miterlimit:10;" x1="512" y1="263.2" x2="512" y2="321.1"/>
			<polygon style="fill:none;stroke:#000000;stroke-miterlimit:10;" points="483.8,281.5 512,321 512,263.1 			"/>
		</g>
		<g>
			<line style="fill:none;stroke:#000000;stroke-miterlimit:10;" x1="512" y1="320.5" x2="512" y2="321.3"/>
			<line style="fill:none;stroke:#000000;stroke-miterlimit:10;" x1="512" y1="262.9" x2="512" y2="263.5"/>
			<polygon style="fill:none;stroke:#000000;stroke-miterlimit:10;" points="484.2,281.6 512,263.5 512,262.8 483.7,281.3 
				483.4,281.4 512,321.4 512,320.5 			"/>
		</g>
	</g>
	<g>
		<g>
			<line style="fill:none;stroke:#000000;stroke-miterlimit:10;" x1="512" y1="311.7" x2="512" y2="314.4"/>
			<polygon style="fill:none;stroke:#000000;stroke-miterlimit:10;" points="487.7,283.9 512,314.5 512,311.8 			"/>
		</g>
	</g>
	<g>
		<g>
			<line style="fill:none;stroke:#000000;stroke-miterlimit:10;" x1="512" y1="256.8" x2="512" y2="263.2"/>
			<path style="fill:none;stroke:#000000;stroke-miterlimit:10;" d="M480.5,276.5c0.5,0.8,3.3,5,3.3,5l28.2-18.4v-6.2
				c-5.8,3.9-13.3,8.2-15.6,9.2C490,268.9,480.1,275.7,480.5,276.5z"/>
		</g>
		<g>
			<line style="fill:none;stroke:#000000;stroke-miterlimit:10;" x1="512" y1="256.5" x2="512" y2="257.3"/>
			<line style="fill:none;stroke:#000000;stroke-miterlimit:10;" x1="512" y1="262.9" x2="512" y2="263.5"/>
			<path style="fill:none;stroke:#000000;stroke-miterlimit:10;" d="M480.3,276.3c-0.1,0.2,0,0.3,0,0.4c0.5,0.8,3.2,4.9,3.3,5.1
				l0.1,0.2l28.3-18.4v-0.6l-28.1,18.3c-0.6-0.9-2.6-4-3.1-4.8c0.4-1.1,9.5-7.3,15.7-10c2.4-1,9.8-5.3,15.5-9.2v-0.6
				c-5.7,3.9-13.3,8.3-15.7,9.3C490.4,268.4,480.7,274.9,480.3,276.3z"/>
		</g>
	</g>
	<g>
		<g>
			<g>
				<g>
					<path style="fill:none;stroke:#000000;stroke-miterlimit:10;" d="M496.2,266c-0.5,0.2-1,0.5-1.6,0.7l-0.2,0.1l3.7,5.7l1.8-1.2
						l-3.5-5.4L496.2,266z M498.3,271.8l-3.1-4.8c0.3-0.1,0.7-0.3,1-0.4l3,4.7L498.3,271.8z"/>
				</g>
			</g>
		</g>
		<g>
			<g>
				<g>
					<path style="fill:none;stroke:#000000;stroke-miterlimit:10;" d="M493,267.6c-0.5,0.3-1,0.5-1.5,0.8l-0.2,0.1l3.9,5.9l1.8-1.2
						l-3.8-5.8L493,267.6z M495.1,273.8l-3.3-5.1c0.5-0.3,0.9-0.5,1.2-0.6l3.3,5L495.1,273.8z"/>
				</g>
			</g>
		</g>
		<g>
			<g>
				<g>
					<path style="fill:none;stroke:#000000;stroke-miterlimit:10;" d="M497.8,265.2c-0.6,0.3-1.2,0.6-1.6,0.8l-0.4,0.2l3.6,5.5
						l2-1.3l-3.4-5.2L497.8,265.2z M499.6,270.9l-3-4.6c0.3-0.1,0.7-0.3,1.2-0.6l2.9,4.5L499.6,270.9z"/>
				</g>
			</g>
		</g>
		<g>
			<g>
				<g>
					<path style="fill:none;stroke:#000000;stroke-miterlimit:10;" d="M494.7,266.7c-0.5,0.3-1.1,0.6-1.7,0.9l-0.2,0.1l3.8,5.8
						l2-1.3l-3.7-5.6L494.7,266.7z M496.7,272.8l-3.2-5c0.5-0.3,0.7-0.4,1.2-0.6l3.2,4.9L496.7,272.8z"/>
				</g>
			</g>
		</g>
		<g>
			<g>
				<g>
					<path style="fill:none;stroke:#000000;stroke-miterlimit:10;" d="M502.5,262.6c-0.5,0.3-1.1,0.7-1.6,0.9l-0.2,0.1l3.3,5l2-1.3
						l-3.2-4.9L502.5,262.6z M504.1,268l-2.7-4.2c0.2-0.1,0.7-0.4,1.2-0.7l2.7,4.1L504.1,268z"/>
				</g>
			</g>
		</g>
		<g>
			<g>
				<g>
					<path style="fill:none;stroke:#000000;stroke-miterlimit:10;" d="M499.3,264.4c-0.6,0.3-1.1,0.6-1.5,0.8l-0.2,0.1l3.4,5.3
						l1.8-1.2l-3.3-5.1L499.3,264.4z M501.2,269.9l-2.9-4.4c0.2-0.1,0.7-0.4,1.2-0.6l2.8,4.3L501.2,269.9z"/>
				</g>
			</g>
		</g>
		<g>
			<g>
				<g>
					<path style="fill:none;stroke:#000000;stroke-miterlimit:10;" d="M500.9,263.5c-0.5,0.3-1,0.6-1.5,0.8l-0.2,0.1l3.3,5.1
						l1.8-1.2l-3.3-5L500.9,263.5z M502.5,269l-2.8-4.3c0.5-0.3,0.9-0.5,1.2-0.7l2.7,4.2L502.5,269z"/>
				</g>
			</g>
		</g>
		<g>
			<g>
				<g>
					<path style="fill:none;stroke:#000000;stroke-miterlimit:10;" d="M486.9,271.2c-0.5,0.3-1,0.6-1.5,1l-0.2,0.1l4,6.1l1.8-1.2
						l-4-6.1L486.9,271.2z M490.4,276.9l-1.1,0.7l-3.4-5.3c0.2-0.1,0.7-0.4,1.1-0.7L490.4,276.9z"/>
				</g>
			</g>
		</g>
		<g>
			<g>
				<g>
					<path style="fill:none;stroke:#000000;stroke-miterlimit:10;" d="M482.6,274.1c-0.6,0.4-1.1,0.9-1.5,1.2l-0.2,0.1l3.8,5.8
						l2-1.3l-3.9-6L482.6,274.1z M484.9,280.5l-3.3-5c0.4-0.3,0.6-0.5,1-0.9l3.3,5.1L484.9,280.5z"/>
				</g>
			</g>
		</g>
		<g>
			<g>
				<g>
					<path style="fill:none;stroke:#000000;stroke-miterlimit:10;" d="M483.9,273.2c-0.5,0.4-1,0.7-1.4,1l-0.2,0.1l3.9,5.9l1.8-1.2
						l-3.9-6L483.9,273.2z M486.4,279.5l-3.4-5.2c0.2-0.2,0.6-0.5,0.9-0.6l3.4,5.2L486.4,279.5z"/>
				</g>
			</g>
		</g>
		<g>
			<g>
				<g>
					<path style="fill:none;stroke:#000000;stroke-miterlimit:10;" d="M485.4,272.1c-0.5,0.3-1.1,0.7-1.5,1.1l-0.2,0.2l3.9,6l2-1.3
						l-4-6.1L485.4,272.1z M487.8,278.6l-3.4-5.2c0.4-0.3,0.9-0.6,1.1-0.8l3.4,5.3L487.8,278.6z"/>
				</g>
			</g>
		</g>
		<g>
			<g>
				<g>
					<path style="fill:none;stroke:#000000;stroke-miterlimit:10;" d="M481.2,275.3c-0.7,0.7-1,1-0.8,1.3c0.5,0.8,3.2,4.9,3.3,5.1
						l0.1,0.2l1.4-0.9l-3.8-5.8L481.2,275.3z M483.8,281.2c-0.4-0.7-2.7-4-3.2-4.8c0-0.1,0.1-0.2,0.5-0.5l3.2,4.9L483.8,281.2z"/>
				</g>
			</g>
		</g>
		<g>
			<g>
				<g>
					<path style="fill:none;stroke:#000000;stroke-miterlimit:10;" d="M491.4,268.4c-0.5,0.3-1,0.6-1.5,0.9l-0.2,0.1l3.9,6l1.8-1.2
						l-3.8-5.9L491.4,268.4z M493.8,274.7l-3.4-5.2c0.2-0.1,0.7-0.4,1.2-0.7l3.3,5.1L493.8,274.7z"/>
				</g>
			</g>
		</g>
		<g>
			<g>
				<g>
					<path style="fill:none;stroke:#000000;stroke-miterlimit:10;" d="M504,261.8c-0.5,0.3-1,0.6-1.5,0.9l-0.2,0.1l3.2,4.9l1.8-1.2
						l-3.2-4.9L504,261.8z M505.6,267l-2.7-4.1c0.2-0.1,0.7-0.4,1.2-0.7l2.6,4.1L505.6,267z"/>
				</g>
			</g>
		</g>
		<g>
			<g>
				<g>
					<path style="fill:none;stroke:#000000;stroke-miterlimit:10;" d="M489.9,269.3c-0.5,0.3-1.1,0.7-1.6,1l-0.2,0.1l3.9,6.1l2-1.3
						l-3.9-6L489.9,269.3z M492.2,275.7l-3.4-5.2c0.5-0.3,0.7-0.4,1.1-0.7l3.4,5.2L492.2,275.7z"/>
				</g>
			</g>
		</g>
		<g>
			<g>
				<g>
					<path style="fill:none;stroke:#000000;stroke-miterlimit:10;" d="M488.4,270.2c-0.5,0.3-1,0.6-1.5,0.9l-0.2,0.1l4,6.1l1.8-1.2
						l-3.9-6L488.4,270.2z M490.7,276.7l-3.4-5.3c0.4-0.3,0.9-0.6,1.1-0.7l3.4,5.3L490.7,276.7z"/>
				</g>
			</g>
		</g>
		<g>
			<g>
				<g>
					<path style="fill:none;stroke:#000000;stroke-miterlimit:10;" d="M505.5,260.8c-0.5,0.3-1,0.6-1.5,0.9l-0.1,0.1l3.2,4.9
						l1.8-1.2l-3.1-4.8L505.5,260.8z M507,266.1l-2.6-4c0.5-0.3,0.7-0.4,1.1-0.7l2.6,4L507,266.1z"/>
				</g>
			</g>
		</g>
		<g>
			<g>
				<g>
					<line style="fill:none;stroke:#000000;stroke-miterlimit:10;" x1="512" y1="261.1" x2="512" y2="261.6"/>
					<line style="fill:none;stroke:#000000;stroke-miterlimit:10;" x1="512" y1="262.9" x2="512" y2="263.5"/>
					<path style="fill:none;stroke:#000000;stroke-miterlimit:10;" d="M509.8,258.1c-0.5,0.3-0.9,0.6-1.4,0.9l-0.2,0.1l3.1,4.8
						l0.7-0.5v-0.6l-0.6,0.4l-2.6-3.9c0.4-0.3,0.7-0.4,1.1-0.7l2,3.1v-0.5l-2-3.1L509.8,258.1z"/>
				</g>
			</g>
		</g>
		<g>
			<g>
				<g>
					<path style="fill:none;stroke:#000000;stroke-miterlimit:10;" d="M508.5,259c-0.5,0.3-1,0.6-1.5,0.9l-0.2,0.1l3.1,4.8l1.8-1.2
						l-3.1-4.7L508.5,259z M509.9,264.2l-2.6-4c0.5-0.3,0.9-0.6,1.1-0.7l2.6,3.9L509.9,264.2z"/>
				</g>
			</g>
		</g>
		<g>
			<g>
				<g>
					<path style="fill:none;stroke:#000000;stroke-miterlimit:10;" d="M506.9,260c-0.5,0.3-1,0.6-1.5,0.9l-0.2,0.1l3.1,4.8l1.8-1.2
						l-3.1-4.8L506.9,260z M509.7,264.4l-1.1,0.7l-2.6-4c0.2-0.1,0.7-0.4,1.1-0.7L509.7,264.4z"/>
				</g>
			</g>
		</g>
		<g>
			<g>
				<g>
					<line style="fill:none;stroke:#000000;stroke-miterlimit:10;" x1="512" y1="261.1" x2="512" y2="261.6"/>
					<line style="fill:none;stroke:#000000;stroke-miterlimit:10;" x1="512" y1="257.6" x2="512" y2="258.1"/>
					<path style="fill:none;stroke:#000000;stroke-miterlimit:10;" d="M510.2,258.4c0.4-0.3,0.9-0.6,1.3-0.9l0.4,0.7v-0.5l-0.5-0.7
						l-0.2,0.1c-0.5,0.3-1,0.6-1.5,1l-0.2,0.1l2.2,3.4v-0.5L510.2,258.4z"/>
				</g>
			</g>
		</g>
		<g>
			<g>
				<g>
					<line style="fill:none;stroke:#000000;stroke-miterlimit:10;" x1="512" y1="257.6" x2="512" y2="258.1"/>
					<line style="fill:none;stroke:#000000;stroke-miterlimit:10;" x1="512" y1="256.8" x2="512" y2="257.1"/>
					<path style="fill:none;stroke:#000000;stroke-miterlimit:10;" d="M511.8,257.3c0.1-0.1,0.2-0.1,0.2-0.2v-0.5
						c-0.2,0.1-0.4,0.3-0.6,0.4l-0.1,0.1l0.7,1v-0.5L511.8,257.3z"/>
				</g>
			</g>
		</g>
	</g>
</g>
</svg>
