<?xml version="1.0" encoding="utf-8"?>
<!-- Generator: Adobe Illustrator 22.1.0, SVG Export Plug-In . SVG Version: 6.00 Build 0)  -->
<svg version="1.1" id="Layer_1" xmlns="http://www.w3.org/2000/svg" xmlns:xlink="http://www.w3.org/1999/xlink" x="0px" y="0px"
	 viewBox="0 0 1151 1280" style="enable-background:new 0 0 1151 1280;" xml:space="preserve">
<style type="text/css">
	.st0{fill:none;stroke:#000000;stroke-width:4;stroke-miterlimit:10;}
</style>
<g transform="translate(0.000000,1280.000000) scale(0.100000,-0.100000)">
	<path class="st0" d="M2660,12793c-192-32-432-202-516-365c-42-81-28-133,61-228c18-19,46-54,63-77l30-43l17,28
		c43,66,132,165,195,217c209,171,429,226,609,152c35-15,66-26,67-24c7,6-24,104-45,145c-48,94-156,170-270,192
		C2818,12800,2710,12801,2660,12793z"/>
	<path class="st0" d="M3055,12070c-199-21-216-29-352-166c-56-56-123-117-149-134c-68-47-85-100-104-315c-5-61-16-132-24-158l-14-47
		l26,20c87,68,114,85,174,116c131,66,271,117,456,165c98,25,300,36,361,19c53-14,109-66,117-109c4-17,13-31,20-31c17,0,18,89,4,230
		c-31,293-111,400-315,423C3233,12085,3143,12079,3055,12070z"/>
	<path class="st0" d="M7644,12071c-62-28-108-75-139-140l-28-58l-44,33c-111,84-333,140-603,150c-198,8-297-12-453-92
		c-62-31-141-77-177-102c-98-70-231-202-345-345c-89-111-118-157-203-325c-113-221-155-333-178-466c-9-50-18-94-21-98c-2-5-2-8,1-8
		s20,28,37,63c140,279,466,618,754,784c199,115,253,134,435,153c58,5,142,19,188,30s113,20,150,20c86,0,312-44,369-71
		c63-30,154-142,177-217c7-22,7-22-31,4c-73,50-189,95-348,135c-104,27-366,37-469,19c-101-18-235-63-325-110
		c-220-115-386-290-648-685c-245-370-362-653-363-882c0-56,26-60,36-5c16,87,65,168,178,296c132,147,196,227,218,269
		c12,25,112,133,247,267c266,265,296,286,443,301c51,5,142,21,203,35c294,68,383,69,520,9c36-16,96-30,176-40c142-17,188-35,281-111
		c83-69,168-168,168-198c0-3-33,12-72,34c-146,78-318,113-543,113c-264,0-456-49-615-156c-125-85-238-207-315-343
		c-51-89-67-139-89-279c-33-201-59-272-117-318c-53-42-27-48,68-15c135,46,201,81,289,155c95,80,121,110,193,221c29,45,56,82,60,82
		c3,0,28,18,54,39c26,22,86,60,134,86c49,26,100,58,115,70c78,65,435,53,585-20c28-14,90-62,137-105c79-73,84-80,58-80
		c-15-1-106,0-202,0c-181,1-326-15-418-47c-69-23-277-129-352-178c-36-24-93-72-127-107c-81-85-89-121-77-346c8-153,6-189-12-161
		c-12,20-137,95-194,117c-392,149-477,175-615,188c-38,3-117,15-175,26c-59,11-171,22-255,25l-151,6l-86-38c-83-35-87-38-108-87
		c-34-80-30-168,15-307c66-202,178-450,237-528c70-91,188-202,243-230c52-27,94-60,199-154c42-38,97-73,167-106c57-28,118-62,135-76
		l31-27l61,74c33,40,63,82,66,94c8,25-12,67-46,99c-32,30-139,78-240,107c-99,28-132,46-258,140c-241,180-349,323-415,552
		c-18,63-25,110-25,174c0,124,0,125,159,116c199-10,338-46,520-132c181-85,321-196,370-292c21-42,29-136,13-146c-5-3-25,15-45,39
		c-80,95-293,230-452,286c-35,12-96,23-145,26c-73,4-89,2-117-16c-51-32-66-72-61-161c5-88,35-152,88-190c42-30,256-110,294-110
		c16,0,79,5,138,12c127,14,127,14,144-70c7-31,36-105,64-164c61-125,40-132,170,57c146,211,179,253,243,299c34,24,80,63,102,86
		c49,51,113,97,148,106c37,9,33,25-11,51c-22,12-71,48-111,79l-72,57l76,73c95,89,146,117,355,189c183,63,328,99,468,116
		c114,14,175,1,322-68c82-38,108-57,190-137c102-100,159-136,214-136c37,0,45,8,85,80c9,16,43,69,76,119s85,134,115,187
		c89,156,189,229,388,281c119,31,327,42,437,23c92-16,202-59,295-114c41-25,76-44,77-43c1,2-4,34-12,72c-29,135-109,271-223,377
		c-118,109-225,139-497,142c-111,0-191-4-230-12c-89-20-196-75-239-122s-44-41-20,78c22,112,82,229,153,302c101,103,223,142,373,120
		c154-22,297-89,426-197c34-30,62-52,62-49c0,2-12,30-27,62c-125,277-379,454-673,470c-83,5-106,2-185-21c-235-69-427-201-490-336
		l-23-51l-6,39c-7,44,13,132,45,196c117,230,195,304,377,357c151,43,291,64,371,56c36-4,73-7,81-7c72-3,140-54,140-105
		c0-16,6-24,16-24c14,0,16,8,11,54c-9,85-42,149-111,214c-91,84-189,128-352,156c-342,60-707-61-805-267l-27-58l-7,67
		c-9,82-1,195,16,226c7,13,16,43,19,68c5,40,10,47,64,85l60,40l135-1c137-2,177-8,433-62c75-17,139-27,142-24c14,13,3,21-46,38
		c-29,9-114,46-188,82c-401,191-553,242-718,242C7709,12090,7674,12084,7644,12071z M5580,10960c-37-78-52-90-19-14
		c11,27,25,60,30,73s12,21,15,18C5610,11034,5597,10999,5580,10960z"/>
	<path class="st0" d="M2280,10896c-129-29-233-113-415-336c-56-69-109-131-119-139c-9-8-26-26-36-41l-20-28l73,28
		c197,77,502,53,717-55c85-43,163-102,211-160c34-41,39-54,39-96c0-27,4-49,8-49c5,0,88,80,183,178c138,140,182,191,207,241
		c48,96,46,102-61,207c-139,138-254,205-412,240C2561,10907,2351,10913,2280,10896z"/>
	<path class="st0" d="M5155,10548c-62-32-192-171-275-293c-40-60-90-131-110-156c-116-148-287-534-338-764c-43-193-47-223-47-375
		c0-183,14-248,125-585c38-115,78-246,90-290c26-95,43-130,80-170c33-35,55-88,69-167c6-32,17-68,25-80c17-26,70-222,86-319
		c11-63,11-67-14-104c-91-134-140-523-102-810c26-196,67-337,150-511c178-371,472-641,820-753c37-12,70-20,72-19
		c9,10-183,277-264,368c-127,143-174,217-306,485c-142,286-159,327-198,473c-29,107-32,130-32,272c0,177,4,196,94,485
		c76,244,94,334,88,443c-4,83-6,88-91,256c-58,116-88,187-92,221c-10,74-47,178-121,336c-84,181-96,241-98,494c-1,239,8,289,119,620
		c46,138,100,315,120,394s47,171,61,203c14,33,43,109,64,170c22,61,51,126,65,145c15,18,23,38,20,43
		C5207,10573,5201,10572,5155,10548z M4958,8170c0-9-3-7-8,5c-5,11-8,29-8,40c0,16,2,15,8-5C4954,8196,4958,8178,4958,8170z"/>
	<path class="st0" d="M10800,10273c-87-10-261-44-320-63c-36-12-87-36-115-54c-155-101-302-176-347-176c-15,0-209-117-298-179
		c-110-76-280-219-280-234c0-3,47-30,105-61c126-66,326-191,410-254c172-131,385-378,385-448c1-46,15-48,76-9
		c218,137,467,506,554,820c14,53,40,347,39,460c0,50-6,115-13,145l-12,55l-75,1C10868,10277,10819,10275,10800,10273z M10710,9993
		c62-42,89-105,90-204c0-64-6-90-40-178c-89-228-224-425-307-446c-57-14-107,60-108,160c0,115,40,157,189,195c95,24,139,50,174,102
		c50,77,28,196-47,245c-70,47-182,18-273-70c-23-23-94-97-155-164c-116-125-181-171-223-158c-23,7-35,44-26,79
		c16,66,155,233,259,313C10380,9973,10638,10042,10710,9993z M10816,9924c8-18,14-48,13-66c-1-30-2-29-10,11c-5,24-15,54-24,67
		c-18,27-19,38-4,28C10797,9961,10808,9943,10816,9924z"/>
	<path class="st0" d="M1383,9955c-69-22-108-55-312-267c-141-147-205-221-228-265c-18-33-33-64-33-68c0-10,50,1,109,24
		c90,36,189,53,321,55c210,2,294-25,460-149c187-140,216-149,292-90c25,19,81,78,124,132c42,54,97,122,121,152c24,29,43,56,43,60
		s-14,20-31,37c-17,16-60,68-95,115c-82,111-125,149-225,199c-123,63-206,80-368,79C1479,9968,1408,9963,1383,9955z"/>
	<path class="st0" d="M8915,9575c-227-18-258-29-394-142c-46-37-116-133-156-213c-39-78-98-258-116-355l-13-70l-17,90
		c-10,50-37,169-61,265l-42,176l-57,27c-291,140-609,146-742,13c-17-18-44-51-59-74c-31-47-62-65-233-133c-127-51-117-44-238-183
		c-27-30-101-95-165-143s-151-121-192-161c-80-78-79-79,15-21c33,20,114,56,180,79c65,23,158,62,207,86c90,46,160,74,185,74
		c8,0-15-35-51-80c-36-44-73-94-82-112c-24-47-54-162-54-210c0-53,37-133,79-173c30-28,38-30,117-32c47-1,84,2,82,5
		c-56,105-75,194-58,270c14,62,56,116,103,130c34,11,127,24,127,18c0-2-22-45-49-97c-103-194-125-383-61-510c45-87,154-151,261-153
		c56-1,72,3,107,27c23,15,48,27,57,27c8,0,69-51,134-114s128-119,139-125c19-10,19-13,5-58c-10-34-17-125-23-305
		c-4-141-11-261-14-267c-11-17,1-13,42,13c102,64,212,80,515,74c130-3,237-3,237-2c0,2-11,29-25,60c-56,126-81,251-90,449
		c-6,130-6,130,24,190c17,33,43,75,58,94l29,33l47-21c53-24,62-22,132,34c22,17,69,49,104,70c181,108,294,269,277,393
		c-14,105-91,214-187,266c-44,25-59,28-115,24c-35-2-64-1-64,3c0,23,57,70,101,83c43,13,55,13,102-1c127-37,345-179,368-240
		c15-41,10-121-10-161c-30-59-97-128-161-167c-33-20-60-38-60-40s60-4,133-4c273-3,383,31,527,163c25,23,59,48,77,55
		c29,12,36,11,65-6c20-11,43-38,58-68c23-47,25-59,24-200c-1-215-49-439-107-504c-34-36-61-43-217-51c-350-20-585-82-687-182
		c-24-23-48-57-54-76c-11-33-11-33-26-13c-7,12-59,53-114,92s-116,91-136,115c-20,25-38,43-40,41s40-109,92-237
		c93-226,145-384,145-445c1-88,34-103,43-19c11,106,79,204,194,281c89,60,143,70,623,114c223,20,358,63,434,136c47,46,66,81,85,160
		l16,62l24-35c16-23,26-54,29-89c11-135-138-310-349-409c-147-70-263-88-559-90c-201-1-230-3-272-21c-27-11-48-22-48-25s19-13,43-22
		c23-10,78-43,122-75c168-118,269-138,570-112c223,19,364,72,502,188c311,261,369,673,174,1241l-29,85l-20-47c-27-61-57-165-72-250
		l-12-68l-48,80c-26,43-62,97-80,120l-32,41l21,65c36,111,23,263-37,418c-54,137-99,200-259,356c-174,171-248,234-362,308
		c-46,29-116,80-157,112c-102,81-158,100-331,114C9086,9586,8997,9582,8915,9575z M8782,8404c5-8-24-23-88-45
		c-162-56-164-57-285-280c-59-107-117-222-130-256l-23-62l-27,73c-47,130-130,242-249,338c-108,88-177,118-267,118h-73v40
		c0,45-30,133-56,161c-16,18-16,19,12,19c51,0,176-39,269-85c227-111,365-244,365-352c0-67,16-69,29-4c20,103,82,210,179,312
		c97,103,110,110,236,148l91,26l5-70C8773,8447,8778,8410,8782,8404z"/>
	<path class="st0" d="M813,9035c-307-41-441-120-592-344C121,8540,22,8318,4,8200l-7-45l51,47c87,81,228,161,377,214
		c72,26,93,29,205,29c140-1,214-16,316-66c76-38,170-120,214-189c18-27,36-50,40-50s13,14,19,30c5,17,58,102,115,189
		c153,229,180,300,150,400c-11,37-31,69-76,116C1278,9014,1072,9070,813,9035z"/>
	<path class="st0" d="M10592,8720c-42-26-77-99-68-144c12-56,54-105,140-160c135-88,271-234,361-390c16-28,23-46,15-41s-33,20-55,34
		c-68,45-117,63-182,69c-35,2-63,3-63,0s27-22,59-42c131-81,239-251,346-547l24-67l-87,54c-99,63-198,97-266,92l-47-3l64-42
		c78-51,152-130,191-204c16-30,39-65,52-79c42-46,77-138,82-217c3-40,1-73-4-73s-35,40-66,88c-71,107-145,192-206,234
		c-48,33-47,27,4-37c75-95,117-229,117-380c0-55-3-111-7-124c-8-22-9-22-26,15c-10,22-34,55-54,73l-36,35v-92c0-240-49-465-121-552
		l-21-25l7,30c17,73,24,171,24,315l1,155l-35-65c-44-80-121-160-245-253c-52-39-124-94-160-122c-36-29-73-55-83-58c-9-4-16-11-15-16
		c2-6-31-35-72-65c-73-54-75-55-78-31c-3,25-4,25-116,25c-100,0-204,11-361,39c-338,59-582,90-605,76c-9-6-393-55-420-54
		c-8,0-1,6,15,13c17,8,75,16,130,20c56,3,124,13,152,21c69,21,171,90,207,142c43,62,39,99-26,239c-32,69-61,149-69,189l-14,70l-7-40
		c-4-22-7-63-7-91c-1-67-35-131-83-156c-63-33-120-33-271,1c-76,17-163,31-193,31c-68,0-220-48-431-136c-172-72-231-81-312-44
		c-24,11-47,20-51,20c-14,0-50-98-50-135c0-71,75-114,226-131c38-4,65-8,59-10c-5-1-73-17-150-34c-77-18-227-54-333-81
		c-107-27-239-58-295-70c-56-11-103-22-105-24c-2-1,0-19,3-39c7-35,8-35,49-30c139,19,396,49,396,48c0-5-298-214-305-214
		c-14,0-105,83-129,119c-29,41-35,109-13,148c23,41,80,95,172,164c123,90,232,201,331,334c75,99,82,114,103,198c13,51,30,114,38,140
		c23,73,4,78-42,10c-21-32-195-213-386-403c-328-327-348-349-385-423c-32-67-38-90-41-160c-3-51,1-102,10-134c16-61,19-60-75-38
		c-241,56-506,182-735,351c-12,9-27,13-32,9c-18-11,177-233,228-259c52-27,178-153,228-229c42-64,96-177,88-185
		c-8-9-248,151-370,247c-204,161-478,427-684,664c-51,59-95,107-96,107c-6,0,8-88,26-168c57-249,237-480,669-859
		c192-168,255-217,430-333c85-56,175-116,200-133s88-61,140-97c113-77,222-161,216-167c-2-3-25,3-51,11c-104,36-292,69-790,141
		c-298,43-465,86-546,140c-44,29-71,25-42-7c31-34,135-86,299-149c87-33,179-73,204-89s90-45,145-65s147-57,205-82
		c371-163,558-230,685-248c154-21,272-81,311-157c9-16,40-114,69-216c48-165,78-259,100-313c16-42-133,7-665,218
		c-229,91-286,122-394,213c-82,69-185,140-202,140c-4,0,8-16,25-35c44-50,57-81,69-157c16-100,69-206,129-256c35-30,54-56,67-92
		c12-33,31-61,53-78c19-15,69-56,111-90c152-126,186-142,404-188c68-14,155-39,193-55c39-15,95-35,125-43c100-26,127-43,144-91
		c4-11,12-96,17-190c5-93,13-227,18-297c6-77,6-155,0-200c-21-164-28-297-21-363l7-70l18,69c22,83,59,158,146,296
		c94,147,115,186,142,260c23,65,46,109,111,210c92,144,193,373,218,496c22,113,71,212,151,307c56,66,139,187,322,471
		c99,154,172,241,357,427c238,239,358,324,617,439c29,13,103,63,165,112c182,143,323,249,473,353c155,109,321,237,465,360
		c52,44,125,104,161,132c91,72,136,123,199,228c87,145,143,275,231,533c86,253,78,448-35,930c-55,232-91,343-155,478
		c-80,168-144,252-414,548C10735,8736,10666,8765,10592,8720z M11428,7415c0-16-2-15-8,5c-4,14-8,36-8,50c0,22,1,22,8-5
		C11424,7449,11428,7426,11428,7415z M8050,6138l55-25l-35-6c-34-6-151-21-275-33l-60-7l70,52c69,52,71,52,130,48
		C7968,6164,8020,6151,8050,6138z M9339,6115c47-8,87-17,89-20c3-3-53-5-125-5c-249,0-702-13-698-20c3-4,26-11,52-14
		c27-4,68-11,93-16s97-18,160-30c201-37,518-116,507-126c-2-2-30,1-63,6c-211,35-508,79-511,76c-2-2-6-19-9-37c-6-34-5-34,60-63
		c80-34,99-55,24-25c-29,12-109,43-178,69s-159,61-200,77c-41,17-84,33-95,37c-17,6-14,10,21,31c34,20,79,29,270,54
		C8992,6143,9180,6145,9339,6115z M8270,6036l45-13l3-178l2-178l-32,25c-174,130-298,198-360,198c-54,0-130-20-203-54l-56-25l20,27
		c11,15,47,56,79,92l59,65l199,26c110,15,199,27,199,28C8225,6049,8245,6044,8270,6036z M9982,5982c-26-27-60-63-77-82
		c-16-18-50-45-74-61l-43-28l-47,23c-105,53-349,148-436,169c-11,2,0,6,25,7c87,5,447,16,572,18l128,2L9982,5982z M8675,5849
		c401-155,570-221,595-234c24-13,24-13-20-25c-75-21-192-39-246-40c-38,0-77,11-148,40c-84,35-106,40-174,40c-43,0-103-4-133-9
		s-75-11-101-14l-48-5v179v179l33-15C8450,5937,8560,5894,8675,5849z M7634,5898c-11-13-69-79-129-148s-118-136-131-149l-22-24
		l-64,38c-112,68-110,56-16,118c106,69,241,142,310,167S7658,5925,7634,5898z M9262,5825c165-26,324-51,388-61l35-6l-38-20
		c-36-18-256-108-265-108c-2,0-2,6,1,14c4,9-12,20-51,35c-65,25-274,170-245,171C9093,5850,9172,5839,9262,5825z M7961,5799
		c19-7,97-53,173-103l140-91l-40-7c-21-4-69-7-105-7c-90-1-210-23-354-66c-134-39-219-45-285-19c-22,9-40,19-40,23
		c1,9,142,119,218,171c55,37,216,108,248,110C7922,5810,7942,5805,7961,5799z M8633,5368c69,0,87-3,87-14c0-8,22-72,49-142
		s52-144,56-164c9-49,21-41,30,19c4,27,20,83,36,125c17,42,33,93,36,113c3,19,8,35,12,35c7-1,58-69,86-116l20-34l-24-45
		c-31-59-146-177-190-195c-67-27-89,22-90,199c-1,63-4,111-7,108c-4-3-15-55-24-114c-30-177-51-237-103-291c-47-48-105-61-289-64
		c-146-3-159-2-177,17c-25,26-94,184-129,292l-27,87l-5-177l-5-177l-85,57c-109,72-194,157-225,225c-14,29-25,59-25,66
		c0,17,80,132,91,132c5,0,20-21,33-47c33-65,81-130,144-197c29-31,55-56,57-56s-7,30-20,67c-35,100-41,181-19,243l18,51l51-6
		c89-12,197-11,275,2c44,7,116,9,175,6C8500,5370,8584,5368,8633,5368z M8420,4490c140-6,259-12,263-13c5-2-69-77-165-167
		c-95-90-206-201-247-245c-71-77-170-215-172-239c-2-30-18,35-18,76c-1,74-47,321-86,462c-19,70-35,133-35,138c0,7,34,9,103,5
		C8119,4503,8280,4496,8420,4490z M7061,4325l44-14l-40,6c-22,3-58,12-80,19l-40,14l36-5C7000,4342,7036,4333,7061,4325z M8689,3978
		c-22-42-210-317-221-324c-13-8-13-9,50,91c52,82,173,255,179,255C8699,4000,8695,3990,8689,3978z M8174,3006c-31-64-59-115-62-112
		c-2,3,21,57,53,121s59,114,62,112C8229,3125,8205,3070,8174,3006z"/>
	<path class="st0" d="M6499,8513c-40-37-89-118-89-149c0-11-5-14-17-9c-43,16-76,16-118,0c-25-9-45-21-45-25c0-5-17-29-39-54
		c-51-59-104-147-133-221c-19-49-23-79-23-160c0-111,7-129,108-301c43-72,50-94,71-210c25-137,76-280,132-369
		c70-114,207-197,332-204c67-3,79,0,137,29c35,18,105,69,155,114c51,44,120,102,153,128c116,89,227,90,342,3c34-27,34-28,37-113
		l3-87l18,52c10,29,43,86,73,127c84,115,97,152,102,281c7,174-29,441-71,525c-17,35-27,45-47,45s-31-10-51-48c-22-41-28-46-38-33
		c-21,25-116,68-184,82c-92,20-221,17-312-6s-128-24-170-5l-30,13l45,1c25,1,91,12,148,26s128,25,158,25s54,4,54,9s-21,27-46,49
		c-50,45-106,62-204,62c-32,0-66,3-75,6c-23,9-51,69-65,139c-30,152-51,207-99,258c-37,41-73,57-125,57
		C6547,8550,6534,8544,6499,8513z M6480,8078c57-24,96-62,110-104c13-39,8-52-27-65c-39-15-87,6-133,58c-22,25-40,49-40,53
		s-7,24-16,45l-15,37l-40-57c-77-110-97-182-68-238c21-38,198-245,232-270c48-37,101-62,94-46c-18,40-76,187-82,207
		c-6,21-4,22,59,22h64l13-37c35-108,126-199,265-264c161-76,325-90,434-37c64,30,123,48,164,48h29l-6-127c-4-71-10-145-13-166l-7-38
		l-22,56c-28,69-37,80-94,113c-44,26-51,27-196,27c-143,0-153-1-210-28c-33-15-73-41-90-56c-76-71-206-67-287,9
		c-26,25-59,81-107,181c-55,115-79,155-123,199c-67,68-99,111-131,175c-25,49-25,51-13,152c13,114,24,133,91,164
		C6361,8113,6409,8109,6480,8078z M6975,7664c112-90,162-96,281-34c76,39,124,45,124,15c0-19-104-116-158-147c-27-16-62-28-82-28
		c-43,0-122,44-172,97c-38,40-88,125-88,151C6880,7735,6906,7720,6975,7664z M7070,7263c-8-3-44-17-80-30s-60-19-53-12
		c13,13,111,49,133,48C7083,7268,7083,7268,7070,7263z"/>
	<path class="st0" d="M4015,8298l-26-23l47-55c148-172,262-412,316-664c17-82,22-135,22-286c0-172-2-193-28-290
		c-15-58-30-114-33-126c-4-16,2-22,32-31c27-9,37-9,40,0c57,174,79,330,72,502c-15,352-146,695-361,947c-23,27-44,48-48,48
		S4029,8310,4015,8298z"/>
	<path class="st0" d="M5307,8281c-79-70-84-164-20-364c41-129,51-234,34-354c-6-43-13-114-17-158l-7-80l37,47c23,30,77,73,148,121
		c62,40,130,93,151,116l37,41l-1,90c-1,106,10,130,88,189c53,40,119,69,218,97l59,17l-69,27c-39,15-137,64-220,109
		c-189,102-243,123-331,129C5346,8312,5342,8311,5307,8281z M5595,8085c61-24,108-44,105-45c-6,0-188-64-212-75c-16-6-18,1-18,79
		c0,47,4,86,8,86S5535,8110,5595,8085z"/>
	<path class="st0" d="M9776,8221l-69-36h-266c-298,0-284,3-418-81c-85-53-148-120-186-197c-29-59-80-236-69-238c4,0,30,0,57,1
		c28,0,118-8,200-20c225-30,296-25,405,30c90,45,138,107,226,286c66,136,87,169,142,227c36,37,61,67,56,66S9814,8241,9776,8221z
		 M9448,8054c51-36,5-167-94-265c-46-45-61-54-114-65c-103-21-231,6-285,60c-27,27-33,72-15,107c10,17,15,14,68-40
		c77-78,129-105,199-99c65,6,116,42,150,109c19,36,23,58,22,119c-1,41-1,78,0,83C9381,8076,9425,8071,9448,8054z"/>
	<path class="st0" d="M3574,7882c-277-165-391-259-437-360c-18-39-22-66-22-157c0-130,20-208,92-350c126-249,302-451,461-527
		c56-27,71-30,123-25c76,7,139,42,292,163c65,52,138,105,162,120l45,26l-33,37c-17,21-81,91-140,156c-144,156-195,231-284,412
		c-67,137-77,162-94,265c-25,148-24,240,1,297c11,24,19,46,17,47C3755,7988,3673,7942,3574,7882z"/>
	<path class="st0" d="M564,7876c-115-19-211-73-322-180C79,7539,15,7428,22,7315c3-52,19-91,111-284c107-224,163-324,243-433l41-57
		l6,197c4,169,8,208,28,272c22,71,29,81,124,177c80,81,115,109,170,135c65,30,77,33,165,32c79,0,110-6,185-31c50-17,92-29,94-27
		s-4,19-13,37c-8,19-34,103-57,188c-83,314-140,370-373,368C685,7888,603,7883,564,7876z"/>
	<path class="st0" d="M5780,7665c0-626,141-968,465-1128c161-80,290-106,530-108l167-1l71,35c126,63,310,240,388,375
		c15,24,42,54,60,66l34,21l-34,3c-26,3-39-2-50-17c-41-53-427-200-582-221c-224-31-400,30-555,193c-144,151-201,250-259,448
		c-37,126-66,187-139,294c-22,33-53,83-68,110l-28,50V7665z"/>
	<path class="st0" d="M5590,7436c-56-16-128-52-159-80c-43-39-224-334-240-391c-15-55-13-177,4-257c25-119,24-119,113,63
		c123,253,235,410,341,478c35,23,54,44,65,72c26,65,21,96-21,118C5667,7452,5648,7452,5590,7436z"/>
	<path class="st0" d="M2770,7306c-306-106-545-304-634-526c-28-70-32-202-8-270c11-30,47-133,79-228c62-179,89-226,153-269
		c46-32,85-29,198,17c55,22,175,58,268,80c176,43,334,87,334,95c0,3-33,37-73,77c-84,84-152,184-213,313c-57,120-80,211-98,385
		c-21,202-9,255,73,327c20,18,32,32,26,32C2870,7339,2822,7325,2770,7306z"/>
	<path class="st0" d="M10657,7223c-4-3-7-18-7-33c0-53-49-128-137-208c-46-42-106-106-132-142c-56-76-125-121-221-146
		c-55-14-98-16-280-11c-383,11-589,67-802,220c-43,31-78,54-78,52c0-9,67-126,109-189c64-96,190-227,270-281
		c171-113,386-175,610-175c187,0,313,49,431,169c44,45,92,107,117,151c79,140,143,379,143,533C10680,7225,10674,7241,10657,7223z"/>
	<path class="st0" d="M1210,7118c-50-17-139-112-177-188c-56-114-135-303-149-355c-19-69-18-238,2-304c8-29,30-69,49-89
		c62-69,308-177,495-217c100-21,305-32,314-16c5,7-16,37-53,76c-103,111-161,269-161,441c0,78,5,107,31,181c68,195,123,277,231,349
		c37,25,68,46,68,47s-62,2-137,2c-134,0-141,1-248,39C1356,7126,1268,7137,1210,7118z"/>
	<path class="st0" d="M5647,7044c-109-57-174-159-184-287c-9-122,19-247,110-481c61-160,68-154,78,69c3,88,10,169,14,180
		c5,11,32,58,61,105c51,81,84,172,84,230c0,69-69,211-103,210C5701,7069,5673,7058,5647,7044z"/>
	<path class="st0" d="M5816,6472c-31-93-35-190-8-242c45-90,147-126,402-140c329-19,388-36,410-122c7-23,15-37,20-32
		c20,21,58,112,64,154c5,38,2,53-23,95c-57,100-150,137-376,154c-200,15-280,29-337,57c-49,25-91,76-103,127c-4,15-11,27-15,27
		C5845,6550,5830,6515,5816,6472z"/>
	<path class="st0" d="M11357,5853c-10-228-47-378-115-461c-22-26-50-66-63-90c-23-42-85-91-160-127c-20-10-44-32-54-51
		c-23-43-49-59-211-132c-71-32-146-70-167-84c-109-75-290-124-637-172c-199-27-305-61-395-128c-22-16-81-55-131-88
		c-173-112-336-289-448-485c-50-88-48-120,4-61c70,79,223,140,597,236c106,28,290,68,410,90c275,51,382,77,581,145
		c88,29,224,70,303,91c79,20,163,45,187,55c124,53,168,126,212,351c23,119,47,175,100,235c117,133,135,314,62,608
		c-17,66-33,139-37,163s-12,42-19,42C11366,5990,11361,5954,11357,5853z"/>
	<path class="st0" d="M11389,4759c-46-45-78-92-189-275c-77-127-223-282-340-361c-101-69-243-143-370-194c-97-39-441-130-620-165
		c-84-16-462-68-615-84c-162-17-241-38-410-108c-157-66-160-68-235-144c-42-43-82-78-88-78c-7,0-27-24-46-52c-50-81-190-358-182-365
		c3-3,32,18,63,48c105,100,222,166,400,225c202,68,312,84,683,100c419,18,498,30,636,102l72,39l-23-64c-12-35-47-100-76-144
		c-30-45-76-124-104-177c-77-146-38-135-472-134c-380,1-433-3-508-41c-61-30-269-171-370-251c-49-39-110-85-135-101
		c-59-39-239-213-300-291c-27-33-70-96-96-140l-47-79l82,78c170,162,379,268,685,347c122,31,421,93,531,109c161,24,365,39,365,27
		c0-18-142-238-191-297c-34-41-100-132-147-204c-47-71-116-165-154-208s-117-151-177-240s-146-205-191-257c-77-88-140-175-140-191
		c0-3,69-9,153-12c165-5,213-16,258-58l29-27l36,41c19,23,75,105,124,182s117,172,152,210c119,133,373,461,588,760
		c51,72,184,252,295,400c178,238,370,517,573,833c34,53,103,142,152,197c166,183,271,363,305,520c10,44,28,112,41,150
		c40,124,73,350,56,395l-9,24L11389,4759z M9658,2893c-16-2-40-2-55,0c-16,2-3,4,27,4S9673,2895,9658,2893z"/>
	<path class="st0" d="M5960,3675c-201-40-404-147-565-298l-80-75l30-6c35-7,122-29,250-62c110-29,187-30,308-4c166,35,280,50,422,56
		c77,3,150,7,163,10c31,6,28,38-8,77c-17,18-45,52-63,77c-18,26-65,66-108,95c-42,28-91,63-110,79C6134,3680,6061,3695,5960,3675z"
		/>
	<path class="st0" d="M6560,2227c-136-49-277-138-303-192c-14-29-22-35-47-35c-37,0-117-39-162-79c-18-16-69-47-113-69
		c-115-57-155-108-155-193c0-26,1-27,83-32c45-2,160-13,255-23c186-19,294-13,376,21c55,23,114,82,147,147s48,76,116,84
		c96,12,115,43,136,220l14,117l-56,26C6771,2256,6651,2259,6560,2227z"/>
	<path class="st0" d="M7145,1939c-83-19-133-46-249-132c-65-49-178-121-250-161c-73-40-157-89-188-109c-73-49-144-126-170-184
		c-21-47-37-173-23-173c4,0,22,9,39,19c86,53,288,109,426,117c80,5,112,2,208-20c197-45,300-44,322,4c8,17,11,23,131,240
		c100,179,135,234,187,292c22,24,32,45,30,60c-3,21-12,24-118,40C7364,1950,7208,1953,7145,1939z"/>
	<path class="st0" d="M8606,1046c-65-32-70-39-62-80c10-51,29-66,86-66c27,0,61-5,75-10c15-6,84-19,154-30c209-34,279-84,302-219
		c10-52,9-84-5-175c-9-61-19-119-21-130c-6-27,36-63,96-81c30-8,115-29,189-46c281-62,387-101,434-161c14-18,26-29,26-24
		c0,23-89,255-142,366c-126,268-316,499-469,572c-95,46-203,75-349,93C8749,1077,8665,1074,8606,1046z M8610,930c13-8,13-10-2-10
		c-9,0-20,5-23,10C8577,943,8590,943,8610,930z M9447,234c-3-3-12-4-19-1c-8,3-5,6,6,6C9445,240,9451,237,9447,234z M9520,220
		c20-6,21-8,5-8c-11,0-31,4-45,8c-20,6-21,8-5,8C9486,228,9506,224,9520,220z M9577,204c-3-3-12-4-19-1c-8,3-5,6,6,6
		C9575,210,9581,207,9577,204z"/>
	<path class="st0" d="M8036,953c-11-11-6-63,9-93s39-47,150-105c86-45,111-68,126-113c28-86,1-178-110-367c-23-38-41-72-41-75
		s60-6,133-7c282-5,533-68,639-161c19-18,38-32,42-32c12,0,6,125-10,189c-34,136-142,325-278,484c-108,125-205,191-347,236
		C8250,940,8051,968,8036,953z"/>
</g>
</svg>
