<?xml version="1.0" encoding="utf-8"?>
<!-- Generator: Adobe Illustrator 22.1.0, SVG Export Plug-In . SVG Version: 6.00 Build 0)  -->
<svg version="1.1" id="Layer_1" xmlns="http://www.w3.org/2000/svg" xmlns:xlink="http://www.w3.org/1999/xlink" x="0px" y="0px"
	 viewBox="0 0 1190.6 1686" style="enable-background:new 0 0 1190.6 1686;" xml:space="preserve">
<path style="fill:none;stroke:#000000;stroke-width:6;stroke-miterlimit:10;" d="M215.3,847.3c-14.6-73.6-44-171.9-7.4-239.9
	c29.7-55.2,88.1-28,116.1,43.5c21.3,54.5,21.5,113.6,37.3,169.2c57.3,201.6,91.2,216.1,174.7,316.7
	c99.1,119.3-26.8,216.7-14.5,345.5c8.8,91.8,16.7,99.1-12.2,118.9c-62.7,43.1-130.7,50.8-202.3,31.9
	c-215.9-56.9-27.3-133.2-134.7-401.9C120.5,1101.9-15.5,989.9,46,766.6c19.3-70,32.7-141.6,50.7-212
	c15.8-61.8,207.2-431.1,279.1-499.2c38.3-36.3,91.9,12.3,56.2,103.6c-84.9,217-88.9,152.5-174.2,358.8c-18.9,45.8-139,40.3-69.9,263
	C194.9,803.8,197.3,828.9,215.3,847.3L215.3,847.3z"/>
<path style="fill:none;stroke:#000000;stroke-width:6;stroke-miterlimit:10;" d="M962.1,878.6c38.6-36,118.8-274.6,14-331.2
	c-23.2-12.5-35.9-31.3-43.6-53.5c-44.8-128.5-114.1-195.2-165.7-363.2C747.6,68,797.3,14.6,837.9,59.9
	c12.2,13.6,20.7,29.6,30.8,44.6c63.3,94.2,112.8,196,166.7,295.5c80.4,148.3,124.2,403.3,124.8,453.2
	c2.4,190.4-125.7,267.9-170.8,432.8c-41.8,152.7,26.8,254.2-25.4,294c-83.4,63.5-167.9,85.3-265.3,35.7
	c-44.8-22.8-48.3-29.1-41.7-78.3c6.3-46.7,10.9-93.2-1.5-139.7c-20.2-75.4-79.7-169.2,3.6-265.8c39.5-45.7,81.6-89.6,111-143.9
	c82.2-152,69.8-250.5,102.5-330c67.4-164.1,187.3-72,101.8,174.5C969.1,847.5,966.1,863.2,962.1,878.6L962.1,878.6z"/>
<path style="fill:none;stroke:#000000;stroke-width:6;stroke-miterlimit:10;" d="M307.7,531.5c-7.4,9-16.8,17.5-28.6,9.1
	c-10.8-7.6-6.3-18.9-1.4-28.4c131.9-256.3,170.1-379.8,212.6-268.5C516.2,311.8,455.5,352.1,307.7,531.5L307.7,531.5z"/>
<path style="fill:none;stroke:#000000;stroke-width:6;stroke-miterlimit:10;" d="M919.4,539.4c-9.8,3-18-0.4-24.4-8
	c0,0-159.8-193.1-160.1-193.6c-63.2-84.3,8.4-184.4,46.9-109.1c41.5,81.3,82.7,162.7,120.5,245.8
	C904.8,479.7,940.9,532.9,919.4,539.4L919.4,539.4z"/>
<path style="fill:none;stroke:#000000;stroke-width:6;stroke-miterlimit:10;" d="M726.2,365.8c52.4,54.8,100.6,113.3,147.9,172.6
	c10.1,12.7,15.2,26.1,9.8,42.7c-6.9,21.3-16.7,24-35,11c-34.5-24.4-133.2-125.5-151.4-145.9C651.2,394.5,678.1,315.6,726.2,365.8
	L726.2,365.8z"/>
<path style="fill:none;stroke:#000000;stroke-width:6;stroke-miterlimit:10;" d="M511.4,439C462.7,491.9,409.6,540.2,355,586.8
	c-8,6.8-17.3,22.1-29.7,11c-34.9-31.2,7.1-67.4,141-221.4C526.3,307.4,549.9,397.2,511.4,439L511.4,439z"/>
<path style="fill:none;stroke:#000000;stroke-width:6;stroke-miterlimit:10;" d="M342.1,655.6c-4.3-25.6,6.1-41.6,19.1-55.3
	c192.2-202.4,179.1-73.6,160.1-52.3c-39.3,44-141.6,112.8-152.4,118.3C346.2,678,343.8,677.9,342.1,655.6L342.1,655.6z"/>
<path style="fill:none;stroke:#000000;stroke-width:6;stroke-miterlimit:10;" d="M740.1,514.4c170.2,125.1,107.8,159.8,97.1,151.2
	c-51.5-41.8-179.1-104.5-164.9-161.1C682.8,462.8,729.9,506.9,740.1,514.4L740.1,514.4z"/>
</svg>
