<?xml version="1.0" encoding="utf-8"?>
<!-- Generator: Adobe Illustrator 22.1.0, SVG Export Plug-In . SVG Version: 6.00 Build 0)  -->
<svg version="1.1" id="Layer_1" xmlns="http://www.w3.org/2000/svg" xmlns:xlink="http://www.w3.org/1999/xlink" x="0px" y="0px"
	 viewBox="0 0 512 512" style="enable-background:new 0 0 512 512;" xml:space="preserve">
<path d="M223.1,118.1c0.7,0.2,1.2,0.3,1.7,0.3c1.3,0,2.7-0.2,4-0.7c-0.9,0.2-1.8,0.3-2.7,0.3L223.1,118.1L223.1,118.1z M231.1,115.1
	c-0.2,0-0.3,0.1-0.3,0.3h1.3c0.4-0.2,0.8-0.6,1-1h-4c-1.1,0.2-2.9,0.3-5.3,0.3h-1.3c2.3,0.3,5.1,0.2,8.3-0.3L231.1,115.1
	L231.1,115.1z M220.8,117.1c-0.2-0.2-0.3-0.4-0.3-0.7c-0.8-0.2-1.6-0.5-2.3-0.8c0.4,0.2,0.7,0.4,1,0.5
	C219.8,116.6,220.3,116.9,220.8,117.1z M216.4,114.5v0.3c0.5,0.3,1,0.5,1.5,0.7C217.3,115.2,216.8,114.9,216.4,114.5z M211.4,106.5
	c-0.2-0.2-0.3-0.4-0.3-0.7c-1.3-2.4-2.4-4.4-3.3-6c-1.3-2.4-3.8-5-7.3-7.7c-0.2,0-0.7-0.1-1.3-0.3c-4.9-1.6-8.4-2.6-10.7-3h-2
	c-5.1,0.9-10,1.9-14.7,3h-0.3c-1.3,0.4-2.4,0.8-3.3,1c-0.4,0.2-0.9,0.3-1.3,0.3c-4.2,1.8-9.7,2.9-16.3,3.3
	c-1.8,0.2-5.2,0.3-10.3,0.3h-2.3c-4.9-0.2-9.4-0.4-13.7-0.7c-1.1-0.2-2.1-0.3-3-0.3h-0.3c-6.9-2.2-12.5-4.8-17-7.7
	c-5.3-3.3-8.9-9.1-10.7-17.3c-0.2,1.3-0.6,3.2-1,5.7h0.3c0.2,2,0.3,4.2,0.3,6.7c0,0.4-0.1,1.1-0.3,2c-0.2,1.1-0.3,2-0.3,2.7h-0.3
	v-2.3c-0.2-1.1-0.3-1.8-0.3-2v-3c-0.4,1.8-0.8,3.3-1,4.7c0.2-0.2,0.4-0.4,0.7-0.7c0.2,0,0.3,0.2,0.3,0.7c0,0.4-0.6,1.7-1.7,3.7
	c0,0.9-0.2,2.1-0.7,3.7c-0.7,3.1-1.2,5-1.7,5.7h-0.3v-2c-0.2,0.9-0.3,1.7-0.3,2.3c-0.2,0.9-0.3,1.9-0.3,3v5.7h-0.3
	c-0.2-0.9-0.3-2.2-0.3-4c-0.2,2.2-0.3,4-0.3,5.3h-0.3v1.3h-0.3c0-0.2-0.1-0.8-0.3-1.7c-0.2-0.4-0.3-1-0.3-1.7
	c-0.2,1.6-0.4,3-0.7,4.3c0.7,1.1,1,1.8,1,2c0,0.7-0.2,0.8-0.7,0.3v1.3l-0.7,0.7c-0.7-2-1.2-3.6-1.7-4.7c-0.2-0.2-0.4-0.7-0.7-1.3
	c-0.4-2-0.8-3.1-1-3.3v-0.3h-0.3c0.2,1.1,0.7,2.6,1.3,4.3v0.3c0.4,1.6,0.9,3.2,1.3,5c0.9,4.2,1.8,8.9,2.7,14
	c0.9,5.8,2.3,11.1,4.3,16c2.4,5.8,5.2,9.7,8.3,11.7c0.4,0.2,0.9,0.4,1.3,0.7h0.7c-0.2-0.2-0.4-0.3-0.7-0.3c-3.8-3.8-5.7-5.9-5.7-6.3
	c0-0.2,0.1-0.6,0.3-1c-0.4-0.7-0.7-1.3-0.7-2v-0.7h0.7c0.4,2,2.6,4.7,6.3,8c1.3,1.1,3,2.6,5,4.3h1c-2.4-1.6-4.8-3.4-7-5.7
	c-1.8-2-3.9-5-6.3-9v-0.3l0.3-0.3c0.4,0.4,2.7,3.2,6.7,8.3v-0.3l0.3-0.3c0.7,0.4,1.3,1,2,1.7c0.2,0.2,0.6,0.4,1,0.7
	c-1.1-1.8-2.1-3.3-3-4.7c-0.2,0-0.3-0.1-0.3-0.3c-1.6-2.2-2.8-3.9-3.7-5c0.2,0.2,0.6,0.4,1,0.7c-1.1-2.2-2-4.1-2.7-5.7l0.3-0.3
	c0.2,0.4,1.3,2.3,3.3,5.7v-0.3c0.2-0.2,0.6-0.3,1-0.3c1.1,1.8,2.4,4.1,4,7c0.2,0,0.3,0.1,0.3,0.3h0.7l-1-1.7c2,1.1,3,1.8,3,2
	c0.7,0.7,2.1,2.7,4.3,6c1.1,1.6,2.3,3,3.7,4.3c1.6,1.6,3.1,3,4.7,4.3v0.3c2,1.3,3.3,4.8,4,10.3c0.4,4,0.9,7.4,1.3,10.3v3.7
	c-0.4,2.7-0.7,5-0.7,7v1.3l1,1.3c0,0.2,0.1,0.4,0.3,0.7h0.3c0.2,1.1,0.8,6.4,1.7,16v0.3l-0.3,0.3v0.3c-0.7,1.3-1.9,3.9-3.7,7.7v0.3
	c-1.3,2.9-2.3,4.8-3,5.7c0.7,0.4,1.2,0.8,1.7,1l1.7-3c-0.2,2.4,0.6,3.7,2.3,3.7c0.4-0.2,1-0.3,1.7-0.3v-0.3c-0.2,0-0.3-0.2-0.3-0.7
	c0-0.9,0.6-1.4,1.7-1.7c0-0.7,0.1-1.2,0.3-1.7c0.2-0.7,0.4-1.2,0.7-1.7c-0.2-0.2-0.4-0.3-0.7-0.3c-0.4-0.2-0.9-0.3-1.5-0.3h-0.8V226
	h-0.3v-1c0-0.4,0.9-0.9,2.7-1.3c0.7-0.2,1.2-0.3,1.7-0.3V223c-0.2-0.7-0.3-1.4-0.3-2.3c-0.2-0.4-0.4-1.1-0.7-2
	c0-0.7-0.1-1.2-0.3-1.7v-1c-0.2-0.7-0.4-1.7-0.7-3c-0.4-2.4-0.7-4-0.7-4.7c0-1.3,0.1-2.8,0.3-4.3v-5.3c0.2-0.9,0.6-1.4,1-1.7
	c0,0.7,0.1,1.3,0.3,2l0.3-0.3c0.4-0.2,0.8-0.4,1-0.7c0.2-0.7,0.4-1.3,0.7-2c-0.2-0.4-0.3-1-0.3-1.7c-0.2-1.1-0.3-2.1-0.3-3
	c-0.4-1.8-0.7-2.9-0.7-3.3v-1c0-1.3,0.1-2.7,0.3-4v-2c0.2-0.4,0.4-1.3,0.7-2.7c0.2-0.4,0.3-0.9,0.3-1.3c0.2-0.7,0.4-1.7,0.7-3
	c0-0.2-0.1-0.4-0.3-0.7c-1.3,2.2-2,4.3-2,6.3h-0.3c-0.4-0.7-0.7-1.4-0.7-2.3c0-0.9,0.6-2.3,1.7-4.3c0.2-0.2,0.4-0.4,0.7-0.7
	l-0.3-0.3c0-0.4,0.1-0.8,0.3-1c0.7-2.2,1.3-3.8,2-4.7c0.7-2.2,1.3-3.9,2-5l0.3-0.3v3.3c0.7-2.2,1.1-4,1.3-5.3
	c-0.2-0.4-0.3-1-0.3-1.7c-0.4-1.6-0.7-2.6-0.7-3l0.3-10h0.3c0.2,1.6,0.4,4.1,0.7,7.7c0,2.9,0.3,5.2,1,7c0-0.4,0.1-0.9,0.3-1.3
	c0-0.2,0.1-0.6,0.3-1c-0.4-0.7-0.8-2.1-1-4.3c-0.2-2.7-0.3-4.1-0.3-4.3v-0.3c0.2-1.3,0.3-2.1,0.3-2.3v-4c0.9,2.9,1.2,5.1,1,6.7
	c0.4-1.6,1-2.4,1.7-2.7l0.7,0.3l0.3,0.3c0.2-0.4,0.4-0.9,0.7-1.3h0.7c0,0,0.3,0.2,0.3,0.7c0,0.4-0.6,1.9-1.7,4.3
	c-0.9,2.4-1.6,4.1-2,5c0,0.2,0.1,0.4,0.3,0.7v-0.3c0-0.2,0.1-0.6,0.3-1c0-0.4,0.1-0.9,0.3-1.3c0.4-0.7,0.9-1.4,1.3-2.3
	c0.9-1.6,1.6-2.4,2-2.7h0.7c0,0,0.3,0.2,0.3,0.7l-1.3,2.7h0.3c0.2,0,0.3,0.2,0.3,0.7c1.1-2,2-3.3,2.7-4h0.7c0.2,0,0.3,0.2,0.3,0.7
	c0,0.2-0.1,0.6-0.3,1c0.2-0.2,0.4-0.4,0.7-0.7c0.2,0.2,0.4,0.3,0.7,0.3l0.3,0.3c0.4-0.2,0.9-0.4,1.3-0.7h0.3c0.2,0,0.3,0.2,0.3,0.7
	c0,0.4-1.1,1.9-3.3,4.3c0,0.2-0.1,0.4-0.3,0.7h0.3c0.2-0.4,0.6-1,1-1.7c2.4-2.7,4-4.1,4.7-4.3l0.3-0.3v1.7c0.9-1.1,1.4-1.7,1.7-1.7
	c-0.9,1.8-2,3.9-3.3,6.3c0.9-0.4,1.4-0.7,1.7-0.7v0.7c0.2,0,0.4-0.1,0.7-0.3c0.2-0.4,0.4-0.9,0.7-1.3c1.8-2.9,2.9-4.6,3.3-5h0.3
	c0.2,0,0.3,0.2,0.3,0.7c0,0.4-0.6,1.8-1.8,4.2l0.2,0.2c1.1-2.2,2-3.6,2.7-4h0.3v0.3c0,0.4-0.3,1.4-1,3h0.3c0.9-0.9,1.8-1.6,2.7-2
	v0.3c0.2,0,0.3,0.2,0.3,0.7v0.3c0,0.4-0.2,1-0.7,1.7c1.6-2,2.9-3.6,4-4.7h0.3v1.7c0.4-0.2,0.7-0.4,0.7-0.7l0.3,1
	c-0.7,1.3-1.6,2.7-2.7,4c-1.3,1.6-2.6,2.9-3.7,4c-1.3,1.6-2.3,2.4-3,2.7c-0.2,0-0.3-0.1-0.3-0.3c-0.2,0-0.3-0.2-0.3-0.7
	c0-0.2,0.6-1.1,1.7-2.7c-1.6,1.8-2.7,2.8-3.3,3h-1v-1.3c-0.4,0.2-0.8,0.6-1,1c-0.4,0-0.7-0.1-0.7-0.3c-0.2,0-0.3-0.2-0.3-0.7
	l0.3-0.7c-0.2,0.2-0.4,0.4-0.7,0.7c-0.7,0.4-1.2,0.8-1.7,1c0.9,0.2,1.8,0.6,2.7,1c3.6,0.9,6.9,1.3,10,1.3h2.3
	c2.4-0.2,4.9-0.7,7.3-1.3c2-0.9,5-2.6,9-5c0-2,0.2-4.1,0.7-6.3c-0.2,0.7-0.6,1.3-1,2c-0.4,0.7-0.8,1.3-1,2c-0.7,1.6-1.2,2.6-1.7,3
	h-0.3c0.2-0.2,0.4-0.6,0.7-1h-0.3c-0.7,1.6-1.1,2.4-1.3,2.7l-0.3,0.3c-0.2,0-0.3-0.2-0.3-0.7c0-0.9,0.3-2.4,1-4.7
	c-0.7,1.1-1.4,1.8-2.3,2c0.4-0.9,1-2.1,1.7-3.7c-1.8,3.3-3,5.2-3.7,5.7v-0.7c-0.7,1.1-1.4,1.8-2.3,2c0.4-0.9,1-2.2,1.7-4
	c-1.3,2-2.7,3.2-4,3.7c0.4-0.4,0.9-1,1.3-1.7c-0.9,0.7-1.8,1.1-2.7,1.3c1.3-1.1,2.6-3,3.7-5.7c-0.2,0.4-0.4,0.9-0.7,1.3
	c-1.6,2.4-2.8,3.8-3.7,4c1.1-2.2,2-3.9,2.7-5c0.2-0.4,0.4-1,0.7-1.7c-0.4,1.1-1,2.1-1.7,3c-1.8,2.7-4.2,4.8-7.3,6.3
	c-0.2,0.2-0.3,0-0.3-0.7c0-0.4,1.2-2.1,3.7-5c1.3-1.3,3.4-3.6,6.3-6.7v-0.7h1c0.2,0.4,0.3,1.2,0.3,2.3c0.7-1.3,1.2-2.2,1.7-2.7h0.3
	v1c0.9-1.6,1.7-2.7,2.3-3.3c0.2,0,0.3,0.2,0.3,0.7c0,0.7-0.2,1.6-0.7,2.7c1.1-2.2,1.8-3.7,2-4.3l0.3,0.3v1.7c0.4-0.9,0.9-2,1.3-3.3
	c0.4,0.2,0.7,0.4,0.7,0.7l0.3,0.3c0-0.2,0.1-0.3,0.3-0.3c0.9-2.9,1.8-4.9,2.7-6h0.7v1.3c0.4-0.4,0.8-0.9,1-1.3h0.7
	c1.6-4.2,2.9-7.8,4-10.7c-0.4,3.6-1.7,8.1-3.7,13.7c-2,6.4-3,11.9-3,16.3v0.7c0,0.7,0.3,2.1,1,4.3c0.2,1.3,0.6,2.9,1,4.7h0.3l1.7,3
	c2.2,3.8,3.9,6.8,5,9h0.3v6c0,5.3-0.1,9.9-0.3,13.7c0,1.6-0.1,3-0.3,4.3c-0.4,3.1-1.1,6.7-2,10.7v0.3h-0.3c-0.7,0.9-1.7,2.9-3,6
	c-0.9,2-1.8,3.8-2.7,5.3h0.3c0.4,0.2,1.3-0.9,2.7-3.3c-0.4,2.4-0.4,3.7,0,3.7c0.7,0.2,1.4,0.3,2.3,0.3h0.7c0.4-0.2,1.1-0.4,2-0.7
	c0.9-0.2,1.7-0.4,2.3-0.7c0-0.7,0.2-1.6,0.7-2.7c0-1.3-0.8-2.1-2.3-2.3l-0.7-0.3h-0.3c-0.7,0.7-1.2,1-1.7,1
	c-0.2,0.4-0.3,0.3-0.3-0.3v-1c0-0.4,0.4-1,1.3-1.7c0.2-0.2,0.4-0.3,0.7-0.3v-0.3c0.2-2,1.3-6.4,3.3-13.3c1.1-6,2.1-9.7,3-11
	c1.1-3.6,2.1-6.1,3-7.7c-0.2-0.4-0.3-0.9-0.3-1.3v-6c-0.2-1.3-0.3-3.1-0.3-5.3c-0.2-0.2-0.3-0.6-0.3-1c-0.2-0.4-0.3-1.2-0.3-2.3
	c-0.2,0-0.4-0.1-0.7-0.3c0,2.4-0.3,4.4-1,6h-0.3c0-1.3-0.1-3-0.3-5c-0.2-1.6-0.3-2.7-0.3-3.3c0-1.8,0.7-5.3,2-10.7
	c-0.4,0.7-0.9,1.3-1.3,2h-0.3l2.7-5.3c0.2-0.4,0.3-0.9,0.3-1.3c-1.6,3.1-2.8,5.1-3.7,6v-0.3c1.1-2,2.7-5.2,4.7-9.7
	c-2.2,4-4.7,7.4-7.3,10.3c0.4-0.9,2.8-5.8,7-14.7c2.9-6,4.9-9.1,6-9.3c-1.2,3.1-2.2,5.6-3,7.5c2.5-5.5,3.9-8.4,4.3-8.8v-0.3
	c0.2,0,0.3,0.2,0.3,0.7c0,1-0.9,3.4-2.7,7.3c1.8-3.8,3.2-6.7,4-8.7c-0.4,2.2-0.9,4.2-1.3,6c1.6-4.9,2.6-7.8,3-8.7
	c-0.6,2.6-1.2,6.2-2,10.7c0.2-0.4,0.4-0.8,0.7-1c0.7-1.8,1.2-3.3,1.7-4.7c0.7-2.9,1.1-5.7,1.3-8.3h0.3c0.2,0.4,0.3,1.2,0.3,2.3
	c0,2.4-0.7,6.1-2,11c-0.2,0.7-0.3,1.3-0.3,2c1.8-5.1,3.1-7.8,4-8c-0.7,1.8-1.2,3.3-1.7,4.7c0.4-0.7,0.8-1.2,1-1.7c-0.9,2-1.9,5-3,9
	c0.4-0.9,0.9-1.8,1.3-2.7h0.3c2-4.4,3-9.5,3-15.3c0-3.6-0.1-6-0.3-7.3c-0.2-0.2-0.3-0.4-0.3-0.7c-0.2-0.4-0.4-0.9-0.7-1.3l-0.3-0.3
	c-0.2-0.7-0.3-1.4-0.3-2.3C213.4,110.7,212.3,108.5,211.4,106.5L211.4,106.5z M216.8,110.8c0-0.9,0.3-1.4,1-1.7
	c1.8,2.9,4.1,4.4,7,4.7c1.6,0.2,3.2,0,5-0.7c0.4-0.7,1.3-1.4,2.7-2.3h-1.7l-2-0.7l1.7-1.7h-4c1.8-1.6,2.9-2.9,3.3-4
	c-1.1,0.9-2.1,1.6-3,2c-1.8,0.7-4.2,1-7.3,1c-0.4,0-1.7-0.1-3.7-0.3c-1.3-0.2-2.2-0.3-2.7-0.3c0.7,1.3,1.3,2.8,2,4.3
	c0.2,0.2,0.4,0.4,0.7,0.7c0.9,0.7,1.8,1.2,2.7,1.7c0.2,0.1,0.4,0.2,0.7,0.3c-0.5-0.3-1-0.6-1.3-1
	C217.1,112.1,216.8,111.5,216.8,110.8L216.8,110.8z M216.1,105.8c1.8,0.2,2.9,0.3,3.3,0.3c2.9,0,5.1-0.3,6.7-1
	c1.1-0.4,2.2-1.2,3.3-2.3l2.3-2c-0.2,1.8-0.4,3-0.7,3.7c-0.2,0.9-0.6,1.7-1,2.3c1.8-0.7,2.8-1.2,3-1.7l2.7-1.7l-1,2.3l-2.3,2.3
	c-0.4,0.4-0.9,0.9-1.3,1.3h3l3,0.3l-2.3,1c-1.3,0.9-2.3,1.7-3,2.3c1.1,0,2.1,0.1,3,0.3l1,0.3l-0.7,0.7c-1.8,2-3,3.2-3.7,3.7
	c-1.8,1.1-4,1.7-6.7,1.7c-1.1,0-3.2-0.8-6.3-2.3c-0.2-0.2-0.6-0.3-1-0.3l0.3,0.3c0.2,1.6,0.3,4.1,0.3,7.7c0,6-1.1,11.3-3.3,16
	c-1.8,3.3-3.6,6.5-5.3,9.7c-0.4,0.7-0.9,1.4-1.3,2.3c-0.9,1.8-1.7,3.3-2.3,4.7c-0.4,2.7-0.7,5.8-0.7,9.3c0,3.1,0.2,6,0.7,8.7
	c0.2,1.6,0.6,3.3,1,5.3v0.7c0.4,1.6,0.8,2.8,1,3.7v0.3l-0.3,0.3v0.3c0,0.7-0.1,1.1-0.3,1.3c0,0.2-0.2,0.3-0.7,0.3v-0.3
	c-0.7,1.1-1.4,2.4-2.3,4c-0.4,1.1-1,2.3-1.7,3.7c-0.2,0-0.3,0.1-0.3,0.3c-0.2,0.7-0.4,1.4-0.7,2.3v-0.3c-0.7,2-1.3,4.2-2,6.7
	c-0.9,3.3-1.3,5.3-1.3,6c0.2,0.4,0.4,1.2,0.7,2.3h0.3v0.3c0,2.7-0.7,4.2-2,4.7h-0.3c0,0.9-0.1,2.1-0.3,3.7c-0.4,1.3-0.7,2.3-0.7,3
	v0.3h-0.7c-0.7,0.4-1.4,0.8-2.3,1h-0.3c-0.9,0.2-1.6,0.4-2,0.7h-3.3c-1.1-0.2-2.1-0.4-3-0.7c-0.4-0.2-0.8-0.3-1-0.3l-1-0.3l0.3-0.7
	c0.9-1.6,1.9-3.6,3-6c1.3-3.1,2.4-5.1,3.3-6c0.9-4,1.6-7.4,2-10.3c0-1.3,0.1-2.8,0.3-4.3c0.2-3.8,0.3-8.3,0.3-13.7l-0.3-5.7
	c-1.1-2-2.7-4.9-4.7-8.7l-1-1.3c-0.2,0.2-0.3,0.6-0.3,1v5c0,2.4,0.4,5.2,1.3,8.3c0.9,2.7,1.4,4.5,1.7,5.7v0.3h-0.3
	c-0.4,0.7-2.1,2.7-5,6l-5,13c0,1.6,0.2,3,0.7,4.3v0.3l-0.3,0.3h-0.3c-0.7,0.2-1.3,0.4-2,0.7v0.3l-0.3,0.3l-2.3,6
	c-0.2,0.2-0.4,0.4-0.7,0.7c-0.2,0.7-0.8,1-1.7,1c-0.2,0-0.4-0.1-0.7-0.3h-9.7v-3l0.7-0.3c0.7-0.4,2.1-1.9,4.3-4.3c1.8-2,3-3.3,3.7-4
	c0.4-1.6,1-3.6,1.7-6c0.7-2.4,1.2-4.6,1.7-6.3c0.4-2.9,0.8-4.8,1-5.7v-0.3c0.2-2.7-1.1-7.8-4-15.3c-2.4-6.7-4-10.7-4.7-12h-1.7
	c-3.3,0-6.8-0.6-10.3-1.7c-3.6-1.1-5.8-1.7-6.7-1.7c-2,0-3.8,0.1-5.3,0.3c-0.9,0.2-1.8,0.6-2.7,1c-0.7,2-1.3,4.7-2,8
	c-0.9,6-1.2,11.2-1,15.7v1c-0.2,2-0.6,5.4-1,10.3v1.3c-0.2,0.7-0.4,2-0.7,4c-0.2,2.7-0.3,5.1-0.3,7.3c0,3.6,0.1,6.9,0.3,10
	c0.2,1.6,0.4,2.8,0.7,3.7c0.2,0.9,0.3,1.6,0.3,2v0.3h-0.3v0.3c-0.4,0.2-0.8,0.6-1,1v0.3c0,2-0.1,3.8-0.3,5.3v0.7h-0.7
	c-0.4,0-1,0.1-1.7,0.3h-1.3c-1.8,0.9-3,1.3-3.7,1.3h-0.3c-2,0-3.6-0.3-4.7-1c-0.4-0.2-1.2-0.8-2.3-1.7l-0.3-0.3l0.3-0.7
	c0.4-0.4,1.4-2.4,3-6c1.8-4,3-6.7,3.7-8V217c-0.7-9.1-1.1-14.2-1.3-15.3c-0.2-0.2-0.4-0.4-0.7-0.7c-0.9-1.1-1.2-1.8-1-2v-1.3
	c0-2.7,0.3-5.4,1-8.3c-0.4-3.3-1-7.5-1.7-12.7c-0.7-4.2-1.6-7.1-2.7-8.7c-0.4,2-1,4.9-1.7,8.7c-0.9,6.9-1.4,11.5-1.7,14h0.3v0.3
	c0,0.2,0.1,0.4,0.3,0.7c0.4,1.6,0.7,2.4,0.7,2.7c0,0.4-0.1,1.6-0.3,3.3c-0.2,0.9-0.4,2-0.7,3.3c0.7,6,1,10.9,1,14.6
	c0,0.2-0.1,0.3-0.3,0.3c0,0.4-0.1,0.9-0.3,1.3c-0.2,0.2-0.3,0.4-0.3,0.7c-0.2,0.2-0.3,0.4-0.3,0.7h-0.3c-0.4,0.4-0.9,1.3-1.3,2.7
	c-0.2,0.9-0.4,1.6-0.7,2c-0.2,0.4-0.4,0.6-0.7,0.3c-1.1,0.9-2.7,1.3-4.7,1.3c-1.3,0-2.6-0.2-3.7-0.7c-0.4,0-1.4-0.4-3-1.3l-1-0.3
	l0.7-0.7c1.3-1.3,2.7-3,4-5c0.7-0.9,1.6-1.9,2.7-3v-0.3c0.2-0.7,0.4-1.1,0.7-1.3c0.2-0.7,0.3-2,0.3-4c0-1.8-0.2-4.3-0.7-7.7v0.3
	c-0.2-0.2-0.3-0.4-0.3-0.7c0-0.7-0.1-1.4-0.3-2.3v-0.3c-0.2-0.4-0.3-0.9-0.3-1.3c-0.2-0.4-0.4-0.8-0.7-1c-0.9-2.2-1.4-3.6-1.7-4
	h-0.3v-6.3h0.3v-2c0-3.6-0.2-7.2-0.7-11c-0.2-2.2-0.9-4.7-2-7.3c-1.3-2.4-2.9-4.7-4.7-6.7c0-0.2-0.1-0.3-0.3-0.3
	c-3.1-2-6-6.1-8.7-12.3c-2-4.9-3.4-10.3-4.3-16.3c-0.9-4.9-1.8-9.4-2.7-13.7c-0.4-1.8-0.9-3.4-1.3-5c-1.1-3.8-1.8-6-2-6.7
	c0-0.4-0.4-1.4-1.3-3c-0.2-0.2-0.3-0.4-0.3-0.7c-1.3,0-2.3-0.3-3-1c-1.1-0.7-2-2.3-2.7-5v-0.3h-0.3c-0.9-1.6-1.9-3.7-3-6.3
	c-0.7-1.6-1.2-2.9-1.7-4c-0.2-0.7-0.3-1.2-0.3-1.7h-0.3c-0.9-1.8-1.7-3.8-2.3-6c-0.2-1.3-0.4-2.3-0.7-3v-0.3l-0.3-2.3
	c0-0.2-0.1-0.4-0.3-0.7v-2c-0.9,0.4-1.6,0.8-2,1c-1.1,0.7-1.8,1.3-2,2l-0.3,0.3v0.3c-0.2,1.3-1,2.7-2.3,4c-2,2-4.2,3-6.7,3
	c-0.2,0-0.8-0.1-1.7-0.3c-0.2-0.2-0.4-0.3-0.7-0.3H45l-0.3-0.3v-0.3C44.2,76.4,44,76,44,75.5c0-0.4,0.6-1.3,1.7-2.7
	c1.3-1.6,2.3-3,3-4.3c2.7-4.4,4.9-7.8,6.7-10c0.2,0,0.3-0.1,0.3-0.3c1.6-1.8,3-2.7,4.3-2.7c0.4,0,1.2,0.3,2.3,1
	c0.2-0.4,0.4-0.8,0.7-1c0.9-2.2,1.1-4,0.7-5.3c-0.7-1.3-0.6-2.7,0.3-4c0.9-1.1,2-0.9,3.3,0.7c1.3,1.6,2.3,2.4,3,2.7h5
	c0.2,0,1.9-0.1,5-0.3h2c0-0.2,0.1-0.3,0.3-0.3c0.2,0,0.4-0.1,0.7-0.3h0.7c0.2-0.2,0.7-0.6,1.3-1c1.3-0.9,2.2-1.6,2.7-2l0.3-0.3
	c2.2-1.1,3.1,0.2,2.7,4c-0.2,0.7-0.4,1.6-0.7,2.7c-0.2,0.9-0.4,1.6-0.7,2c0.4,0.4,0.9,1,1.3,1.7c0.2,0.2,0.4,0.4,0.7,0.7
	c0.7,0,1.1-0.1,1.3-0.3c0.7-0.4,1.4-0.7,2.3-0.7c2,0,5.3,2,10,6c7.8,7.1,12.3,11.2,13.7,12.3l0.7,0.3l-0.3,0.7
	c-0.2,0.4-0.7,0.9-1.3,1.3c-1.1,0.7-2.7,1-4.7,1c-4.9,0-8.9-1.8-12-5.3c-1.1-1.8-1.9-3-2.3-3.7c-0.7-0.9-1.2-1.3-1.7-1.3h-0.7v0.3
	l-1.7,1.7c-0.2,0.4-0.4,0.8-0.7,1c1.6,8.4,5,14.2,10.3,17.3c4.4,2.9,10.1,5.4,17,7.7h2.7c4.2,0.4,8.8,0.8,13.7,1h2.3
	c5.1,0,8.5-0.1,10.3-0.3c6.4-0.4,11.7-1.4,15.6-3v-0.3c0.7,0,1.3-0.1,2-0.3c0.9-0.2,2-0.6,3.3-1c4.7-1.3,9.5-2.4,14.6-3.3h2.7
	c2,0.4,5.5,1.6,10.7,3.3c2,0.7,3.8,1.3,5.3,2h0.3c1.1,1.6,2.4,3.8,4,6.7c0.9,1.6,1.9,3.6,3,6c0.2,0,0.3,0.1,0.3,0.3
	C212.9,105.5,214.1,105.6,216.1,105.8L216.1,105.8z M186.8,101.2c3.8,1.1,5.8,1.7,6,1.7c-0.4,0.2-1,0.3-1.7,0.3
	c-4.4-0.9-7.3-1.9-8.7-3C182.9,100.2,184.4,100.5,186.8,101.2L186.8,101.2z M180.5,103.8c1.1,1.1,3.6,2.3,7.3,3.7
	c3.6,1.6,5.6,2.6,6,3c-0.2,0-0.8,0.1-1.7,0.3h-2c-2.7,0-5.1-1.1-7.3-3.3c-1.3-1.1-2.3-2.3-3-3.7L180.5,103.8L180.5,103.8z
	 M177.1,105.5c1.3,0.2,3.1,1.2,5.3,3c3.1,2.4,5.4,4.1,7,5c-0.2,0.2-0.6,0.3-1,0.3c-2.9-0.4-5.3-1.7-7.3-3.7c-2-2.2-3.3-3.7-4-4.3
	L177.1,105.5L177.1,105.5z M179.5,102.2c1.3-0.2,2.8,0,4.3,0.7c-0.9-0.9-1.3-1.4-1.3-1.7c0.7,0,2,0.4,4,1.3c2.2,0.9,4.3,2,6.3,3.3
	c0,0.2-0.2,0.3-0.7,0.3c-0.2,0.2-0.4,0.3-0.7,0.3c0.7,0.2,1.4,0.6,2.3,1c-0.2,0.2-0.8,0.3-1.7,0.3c-2.7,0-5.1-0.7-7.3-2
	c-2.2-1.6-4-2.7-5.3-3.3L179.5,102.2L179.5,102.2z M204.1,142.8c-0.1,0.2-0.2,0.4-0.3,0.7c-0.1,0.2-0.1,0.4-0.2,0.5
	C203.8,143.6,204,143.2,204.1,142.8z M204.9,146.4l-0.2-0.7c0,0.2-0.1,0.3-0.3,0.3l0.3,0.7C204.9,146.7,204.9,146.6,204.9,146.4z
	 M203.4,149.1c0.4-0.9,0.9-1.7,1.3-2.3c-0.4,0.4-0.9,1-1.3,1.7V149.1L203.4,149.1z M190.8,154.1c1.3-1.8,3.4-5,6.3-9.7
	c2.4-3.8,4.4-6.4,6-8c-2.9,5.6-4.4,8.4-4.7,8.7C196.5,148.7,193.9,151.7,190.8,154.1z M86.6,69.2c0.4-0.7,0.8-1.1,1-1.3
	c0.4-0.7,1.1-1,2-1c0.9,0,1.4,0.1,1.7,0.3c0.2,0.2,0.4,0.4,0.7,0.7l0.3,0.3l-0.7-0.3c0.2,0.9,0.2,1.7,0,2.3h-0.3
	c-0.4,0.9-1.1,1.3-2,1.3c-0.7,0-1.2-0.2-1.7-0.7c-0.2,0-0.3-0.1-0.3-0.3c-0.2,0.2-0.7,0.4-1.3,0.7C86.1,70.1,86.4,69.4,86.6,69.2z
	 M64.3,69.5c-0.4,0-0.7,0.2-0.7,0.7l0.7,0.7C64.9,70.4,64.9,70,64.3,69.5z M59.9,56.9c-0.9,0.2-2,1-3.3,2.3l-0.3,0.3
	c-1.8,2-3.9,5.2-6.3,9.7c-0.9,1.3-2,2.9-3.3,4.7c-0.7,0.9-1.1,1.4-1.3,1.7c0,0.2,0.1,0.4,0.3,0.7c0.2,0,0.4,0.1,0.7,0.3h1.3
	c2,0,3.8-0.7,5.3-2c0-0.2,0.1-0.3,0.3-0.3c1.1-1.1,1.8-2.2,2-3.3c0-0.2,0.1-0.4,0.3-0.7c0.4-1.1,1.3-2.1,2.7-3
	c0.7-0.4,1.7-0.9,3-1.3l0.3-0.3v-3.7c0.2-1.8,0.3-3.1,0.3-4C61.1,57.2,60.4,56.9,59.9,56.9L59.9,56.9z M116.9,74.8
	c0.4-0.2,0.7-0.4,0.7-0.7c-1.8-1.6-6.2-5.5-13.3-12c-4.2-3.8-7.2-5.7-9-5.7c-0.7,0-1.1,0.1-1.3,0.3c-0.7,0.4-1.6,0.7-2.7,0.7h-0.3
	c-0.4-0.2-0.8-0.7-1-1.3c-0.4-0.7-0.9-1.1-1.3-1.3h-0.3v-0.3h-0.3c-0.4-1.1-0.9-2-1.3-2.7c-0.7-1.1-1.6-1.8-2.7-2
	c-0.2,0.2-0.4,0.3-0.7,0.3l-0.3,0.3h-2.7c-3.1,0.4-4.8,0.7-5,0.7h-0.3c-1.3-0.2-2.6-0.2-3.7,0h-1c-0.7-0.4-1.1-0.7-1.3-0.7
	c-1.1,0-2.2,1-3.3,3c-0.7,0.9-1.1,1.7-1.3,2.3c-0.2,0-0.3,0.1-0.3,0.3c-0.2,0.4-0.3,0.9-0.3,1.3v0.3c-0.2,0.7-0.3,2.1-0.3,4.3
	c-0.2,0.2-0.2,0.4,0,0.7c-0.2,0.9,0.1,0.9,1,0c-1.1,2.4-1.7,3.8-1.7,4v0.3c-0.2,0.2-0.3,0.4-0.3,0.7c0.2-0.2,0.6-0.3,1-0.3
	c0.4,0,1.2,0.6,2.3,1.7c0.2,0.2,0.4,0.4,0.7,0.7c0.4,0.4,0.7,0.9,0.7,1.3c0.2,0.4,0.7,1.9,1.3,4.3c0.9,2.9,1.3,4.8,1.3,5.7
	c0,0.7-0.1,1.4-0.3,2.3h-0.3c-0.2-1.6-0.6-3.6-1-6l-1-5.3c-0.2,0-0.6-0.3-1-1l-0.7,0.7c-0.4,0.4-1.1,0.7-2,0.7h-0.3
	c0.2,0.7,0.4,1.7,0.7,3c0.7,2,1.4,3.8,2.3,5.3c0,0.2,0.1,0.4,0.3,0.7c0,0.4,0.1,0.9,0.3,1.3v0.3c0.4,0.9,1,2.2,1.7,4
	c1.1,2.4,2.1,4.4,3,6c0.2,0,0.3,0.1,0.3,0.3l0.7,0.7v0.3h0.3c0.2,0,0.4,0.1,0.7,0.3c0.4,0.2,1,0.3,1.7,0.3c0-0.7,0.2-1.9,0.7-3.7
	c0,1.8,0.2,2.9,0.7,3.3c2,0.2,3.7-0.7,5-2.7c0.7-0.7,1.8-1.6,3.3-2.7c-0.7,1.6-1.4,2.8-2.3,3.7c-0.7,0.9-1.4,1.6-2.3,2
	c-0.7,0.9-1.2,1.4-1.7,1.7c-0.4,0.4-1.1,0.7-2,0.7s-1.6-0.1-2-0.3h-0.3v-0.3c-0.4-0.2-0.9-0.4-1.3-0.7c0-0.2-0.1-0.3-0.3-0.3
	c0.4,1.1,1,1.9,1.7,2.3c0.4,0.4,1.2,0.7,2.3,0.7h1c0.4-0.2,1-0.4,1.7-0.7c0.7-0.4,1.1-0.7,1.3-0.7c0.2-0.4,0.8-1.3,1.7-2.7
	c0-0.2,0.2-0.6,0.7-1c0.4-0.7,1.1-1.6,2-2.7c0.2-0.2,0.4-0.4,0.7-0.7v-0.3c0.2-0.9,0.8-2.1,1.7-3.7c1.1-1.3,1.8-2,2-2
	c0.2,0,0.3,0.1,0.3,0.3c0.2-0.9,0.4-1.9,0.7-3c-0.9,1.3-2.2,3.1-4,5.3c-0.4,0-0.8-0.1-1-0.3c1.6-2.4,2.6-3.8,3-4
	c0.7-1.1,1.4-2,2.3-2.7c0.2-0.7,0.3-1.2,0.3-1.7v-0.7c-0.2,0.4-0.7,1-1.3,1.7c-1.6,2-2.8,3.2-3.7,3.7c0.7-0.7,1.6-2,2.7-4
	c0.9-1.8,1.8-2.9,2.7-3.3c0.4-3.6,0.8-5.7,1-6.3v-0.7h0.7c0.2,0,0.4-0.1,0.7-0.3c0.2-0.2,0.4-0.4,0.7-0.7c0.4-0.4,0.9-1,1.3-1.7
	c0.2-0.4,0.6-0.8,1-1v-0.3h1c0.7,0,1.6,0.7,2.7,2c0.4,0.7,1.3,1.9,2.7,3.7c2.7,3.3,6.2,5,10.7,5C114.8,75.5,116,75.3,116.9,74.8
	L116.9,74.8z M80.3,78.8c0-2.2,0.2-4.2,0.7-6c0.7-1.8,1.6-3.7,2.7-5.7c-0.7,5.5-1.7,9.8-3,12.7c0-0.2-0.1-0.3-0.3-0.3L80.3,78.8
	L80.3,78.8z M82.6,76.5h-0.3c0.4-2.4,1.1-4.5,2-6.3c1.1-2.4,2.4-4.2,4-5.3c-0.7,1.6-1.7,3.6-3,6C83.9,73.3,83,75.2,82.6,76.5z
	 M89.6,69.2c0,0.4,0.2,0.6,0.7,0.3c0.4,0,0.6-0.2,0.3-0.7C90.1,68.4,89.8,68.5,89.6,69.2z M90.9,74.2c0,0.7-0.4,1.6-1.3,2.7
	c-0.7,1.1-1.4,1.8-2.3,2c0.4-0.7,1-1.4,1.7-2.3C89.8,75.2,90.5,74.4,90.9,74.2z M81.9,81.5c0.2,0.4,0.3,1.1,0.3,2
	c0,0.7-0.1,1.9-0.3,3.7h-0.3c-0.2-0.9-0.3-2.1-0.3-3.7v-2H81.9L81.9,81.5z M78.9,99.8l-1.3,0.7c0.4,0.7,0.8,1.2,1,1.7v-0.7
	C78.6,101,78.7,100.5,78.9,99.8z M77.6,88.2c0.9-0.9,1.2-1,1-0.3c-1.1,2.9-1.8,4.3-2,4.3L77.6,88.2L77.6,88.2z M72.3,88.5
	c-0.2-0.7,0-0.8,0.7-0.3l1.7,3C73.9,90.7,73.2,89.8,72.3,88.5L72.3,88.5z M71.6,85.2c2.4-0.4,4.9-0.4,7.3,0c2,0.4,2.8,1.1,2.3,2
	c-0.4,1.8-1.2,3.1-2.3,4h-0.7c1.8-2.4,2.3-3.9,1.7-4.3c-3.1-1.3-6-1.4-8.7-0.3c-0.7,0.7,0.1,2.4,2.3,5.3c-1.8-1.6-3-2.8-3.7-3.7
	C69.5,86.6,70,85.6,71.6,85.2L71.6,85.2z M83.3,95.2v0.3c-0.4,0.7-0.9,1.3-1.3,2c0,0.2,0.1,0.6,0.3,1c0.2-1.6,0.6-2.3,1-2.3
	c0.2-0.2,0.3-0.7,0.3-1.3C83.6,95,83.5,95.2,83.3,95.2z M102.6,162.1c-0.4-0.2-0.9-0.2-1.3,0c0.2,0,0.8,0.7,1.7,2
	c1.3,2.9,2.1,5.6,2.3,8c0.2,3.6,0.3,7.2,0.3,11v8c0.2,0.4,0.8,1.7,1.7,3.7c0.2,0.4,0.3,0.8,0.3,1h0.3c0,0.7,0.1,1.2,0.3,1.7v0.3
	c0.2,0.9,0.4,1.8,0.7,2.7v0.3c0.4,3.3,0.7,5.9,0.7,7.7c0,2.2-0.1,3.7-0.3,4.3c-0.2,0.4-0.4,1-0.7,1.7h-0.3v0.3
	c-0.9,1.3-1.8,2.4-2.7,3.3c-1.1,1.8-2.2,3.2-3.3,4.3c1.1,0.4,2.4-0.2,4-2l-1.7,2.7c0.7,0.4,1.7,0.7,3,0.7c1.8,0,3.1-0.4,4-1.3
	l0.3-0.3c0.2-0.2,0.3-0.6,0.3-1c0.7-1.8-0.9-2.6-4.7-2.3c4.4-1.1,6.8-1.9,7-2.3c0.2-0.2,0.3-0.4,0.3-0.7c-0.2,0.4-0.6,0.8-1,1
	c-0.4,0-0.8-0.1-1-0.3V213c-0.2-1.3-0.4-2.8-0.7-4.3v-7c0-0.7,0.1-1.2,0.3-1.7c0-0.9-0.1-1.6-0.3-2c0-0.4-0.1-0.9-0.3-1.3
	c-1.3-4-2-6.4-2-7.3v-0.3h0.7l1.3,3v-1.3c-1.1-2.7-1.7-4.2-1.7-4.7v-1.3h0.7c0.3,0.9,0.6,1.8,1,2.8v-0.2c-0.7-2.2-1-5-1-8.3v-1.7
	c0-0.4,0.2-0.8,0.7-1v-1.3c0-0.7,0.1-1.3,0.3-2c-0.4-1.6-1-3.2-1.7-5c-0.2-0.2-0.3-0.6-0.3-1c-0.7-1.1-1.3-2.1-2-3l-0.3-0.3
	c0.4,0.9,1.1,2.2,2,4l-0.3,0.3c-0.4-0.4-1.2-1.4-2.3-3c0.2,0.9,0.6,1.8,1,2.7v0.3c-1.8-1.3-3.3-3-4.7-5
	C103,162.6,102.8,162.3,102.6,162.1L102.6,162.1z M104.7,152.1l0.2,0.2v-0.2H104.7z M80.3,100.8c-0.2-0.4-0.3-1-0.3-1.7l-0.3,0.3
	c0.2,0.7,0.4,1.3,0.7,2C80.3,101.3,80.3,101,80.3,100.8z M156.2,99.5c-2-0.2-3.1-0.3-3.3-0.3c3.6-0.2,7.7-0.8,12.3-1.7
	c1.1-0.2,2.1-0.4,3-0.7c1.1-0.2,2.1-0.4,3-0.7c-0.4,0.4-1.4,0.9-3,1.3c-0.4,0.2-0.8,0.4-1,0.7c-2.9,0.9-5.2,1.3-7,1.3H156.2
	L156.2,99.5z M167.8,101.2c-0.7,0.2-1.7,0.6-3,1c-1.1,0.4-3.1,0.7-6,0.7c-4.4,0-7-0.3-7.7-1c-0.2-0.4-0.4-0.7-0.7-0.7h-2.7
	c2-0.4,5-0.6,9-0.3c4.7,0.4,8,0.6,10,0.3H167.8z M136.9,160.1v1.7c0-0.5,0.1-0.9,0.3-1.3L136.9,160.1z M139.5,159.1
	c0-0.2,0.1-0.4,0.3-0.7v-0.3C139.6,158.3,139.5,158.6,139.5,159.1z M148.2,156.4h0.3v-0.3C148.5,156.3,148.4,156.4,148.2,156.4z
	 M132.2,186.4c0.2-0.8,0.3-1.7,0.3-2.8c-0.1,0.7-0.2,1.4-0.3,2.2V186.4L132.2,186.4z M127.9,202.7h-0.3c-0.2,0-0.3-0.1-0.3-0.3
	C127.4,202.6,127.6,202.7,127.9,202.7L127.9,202.7z M133.2,197l-0.3,0.3c0,0.8-0.2,2.1-0.7,3.7c0.1-0.1,0.2-0.2,0.3-0.3
	c0.4-0.9,0.7-2,0.7-3.3L133.2,197L133.2,197z M131.5,232v-0.3c-0.2,0.2-0.6,0.3-1,0.3v0.3C131,232.1,131.3,232,131.5,232z
	 M131.9,215.9v1.5c0,0.2,0.1,0.4,0.3,0.7C132,217.4,131.9,216.7,131.9,215.9z M170.5,210.7c-0.7,0.4-2,1.8-4,4
	c-2,2.4-3.4,3.9-4.3,4.3v0.7c1.1,0.2,3.8,0.3,8,0.3h1.3c0-0.2,0.1-0.4,0.3-0.7l1-4l-3.3-0.7l4.7-1.7l0.3-0.3c0.2,0,0.4-0.1,0.7-0.3
	c-0.2-0.2-0.4-0.3-0.7-0.3v-0.7c0-0.4,0.1-1,0.3-1.7c-0.2-0.7-0.3-1.4-0.3-2.3c0-3.1,0.3-5.4,1-7c0.2-1.3,0.7-3,1.3-5
	c0.2-0.9,0.3-1.8,0.3-2.7c0.7-3.1,1.2-5.7,1.7-7.7c-0.2-0.7-0.4-2.1-0.7-4.3c-0.2,0-0.3-0.1-0.3-0.3v0.3c-0.4-1.1-0.7-2.4-0.7-4
	c-0.2-1.1-0.3-2-0.3-2.7c-0.2,1.6-0.7,3.4-1.3,5.7h-0.3c0-0.4-0.1-0.9-0.3-1.3c0,0.7-0.1,1.2-0.3,1.7c0.2,1.1,0.3,2,0.3,2.7v0.3
	c0,0.2-0.1,0.4-0.3,0.7c-0.4-0.4-0.9-1.2-1.3-2.3c0-0.2-0.1-0.4-0.3-0.7c1.6,5.1,2.2,8.8,2,11v0.3c0,0.9-0.3,2.8-1,5.7
	c-0.4,1.8-1,3.9-1.7,6.3c-0.7,2.2-1.2,4.2-1.7,6L170.5,210.7L170.5,210.7z M204.1,174.1c-0.2-0.6-0.3-1.2-0.3-1.8v1.2
	C203.8,173.6,203.9,173.8,204.1,174.1z M175.5,212.4c0.4-0.4,1-0.8,1.7-1c-0.2-0.7-0.4-1.3-0.7-2C176,210.7,175.7,211.7,175.5,212.4
	L175.5,212.4z"/>
<path d="M80.3,94.5c2.7,0.2,6.9,1.1,12.7,2.7l-2.7,0.3c-5.1-1.6-8.8-2.4-11-2.7C79.7,94.6,80,94.5,80.3,94.5L80.3,94.5z M71.6,96.2
	v-0.3l-1.3,0.7h-0.3c-0.4,0.2-1,0.7-1.7,1.3c-0.7,0.4-1.7,1.2-3,2.3l-0.7-0.7c1.3-0.9,2.4-1.7,3.3-2.3c0.2-0.2,0.4-0.4,0.7-0.7
	c-0.4,0-1-0.2-1.7-0.7c-0.7-0.2-1.7-0.7-3-1.3l0.3-1c1.3,0.9,2.3,1.4,3,1.7c0.9,0.4,1.8,0.7,2.7,0.7c0.2-0.2,1-0.4,2.3-0.7l1.3,0.3
	c-0.7,0.2-1.2,0.7-1.7,1.3c-0.7,0.9-1.1,1.7-1.3,2.3v3l-0.3-0.3c-0.2-1.6-0.3-2.4-0.3-2.7C69.9,98.3,70.5,97.3,71.6,96.2L71.6,96.2z
	"/>
<g>
	<path d="M70.3,99.8v2.7c0,1.8-0.4,3.9-1.3,6.3c1.6-3.6,2.2-6.4,2-8.7c0.4,0.2,1,0.6,1.7,1c0.9,0.9,1.4,2.2,1.7,4
		c-0.2-0.2-0.4-0.4-0.7-0.7v1.7c-0.2-0.2-0.4-0.4-0.7-0.7c0.2,1.1-0.1,2-1,2.7v-1c-0.2,0.7-0.8,1.2-1.7,1.7c-1.1,0.7-1.8,1.2-2,1.7
		c0-0.4-0.1-0.9-0.3-1.3v-2h-0.7l0.3-1c0-0.4,0.1-0.8,0.3-1l-0.7,0.3c-0.2-0.2-0.1-0.7,0.3-1.3c0-0.7,0.1-1.1,0.3-1.3
		c-0.2,0-0.4,0.1-0.7,0.3c-0.2-0.4-0.1-1,0.3-1.7C67.8,101,68.7,100.5,70.3,99.8L70.3,99.8z M65.9,94.5c-0.7-0.4-1.6-0.9-2.7-1.3
		c-1.8-0.7-3.7-0.8-5.7-0.3c1.6-0.2,3.6,0.2,6,1.3c0.9,0.4,1.6,0.8,2,1c-0.9,0.9-1.7,1.3-2.3,1.3c-0.9,0.2-1.4,0.2-1.7,0
		c0.4-0.2,0.7-0.4,0.7-0.7h-3l0.7-0.7h-0.7l-1.3-0.3c0.2,0,0.3-0.2,0.3-0.7c-0.4,0-1.1-0.2-2-0.7c-0.4-0.2-0.8-0.4-1-0.7
		c0.4-0.2,1.1-0.7,2-1.3c1.1-0.7,1.9-1,2.3-1c-0.2,0-0.6-0.1-1-0.3c0.9-0.4,1.9-0.3,3,0.3c-0.2-0.4-0.4-0.8-0.7-1h0.3
		c0.7,0.4,1.1,0.7,1.3,0.7c0-0.4-0.1-0.8-0.3-1c1.8,0.9,2.8,1.9,3,3C65.5,93,65.7,93.8,65.9,94.5L65.9,94.5z M66.6,98.2
		c-3.1,1.1-5.7,3.6-7.7,7.3c2.7-3.8,5.3-6.1,8-7c0.4,2,0.4,3.4,0,4.3c-0.7,0.9-1.1,1.3-1.3,1.3c0-0.4-0.1-0.8-0.3-1
		c-0.2,0.4-0.6,1-1,1.7c-0.9,0.7-1.4,1.1-1.7,1.3l0.3-1c-0.4,0.2-0.8,0.4-1,0.7c-0.7,0.7-1.1,1.1-1.3,1.3v-1
		c-0.4,0.4-1.2,0.9-2.3,1.3c-0.7,0.4-1.2,0.8-1.7,1v-3.7c0-1.3,0.2-2.3,0.7-2.8c-0.2,0.2-0.4,0.4-0.7,0.5c0.2-1.3,1-2.3,2.3-3h-1.3
		c0.9-0.7,1.4-1,1.7-1c-0.2-0.4-0.6-0.7-1-0.7c2.2-1.1,4-1.3,5.3-0.7C64.9,97.4,65.9,97.7,66.6,98.2L66.6,98.2z"/>
	<path d="M70.9,100.2c0.2,2.2-0.4,5.1-2,8.7c0.9-2.4,1.3-4.6,1.3-6.3v-2.7C70.5,99.8,70.7,99.9,70.9,100.2z M66.9,98.5
		c-2.7,0.9-5.3,3.2-8,7c2-3.8,4.5-6.2,7.7-7.3C66.8,98.2,66.9,98.3,66.9,98.5L66.9,98.5z M65.9,94.5v0.3c0,0.2-0.1,0.3-0.3,0.3
		c-0.4-0.2-1.1-0.6-2-1c-2.4-1.1-4.4-1.6-6-1.3c2-0.4,3.9-0.3,5.7,0.3C64.4,93.6,65.3,94.1,65.9,94.5z"/>
</g>
<path style="fill:none;stroke:#000000;stroke-miterlimit:10;" d="M184.5,289.7c1.5-6.1,4.9-12.1,10.2-15.6c1.1-0.3,1.7,1.1,2.5,1.6
	c0,5.5,0,11,0,16.5c0.2,0,0.7,0,0.9-0.1c2.8-2.8,5.6-5.5,8.5-8.2c0.3,0.3,0.5,0.6,0.8,0.9c-1.8,3.9-3.8,7.9-4.3,12.3
	c2.3,2.4,4.5,4.9,6.3,7.6c1,1.6,2,3.3,2.2,5.2c-0.1,1.3-0.6,2.5-0.8,3.7c3.1,3.1,6.3,6.1,9.4,9.2c1.6,1.4,2.9,3.1,4.1,4.9
	c0,0.2,0,0.6,0,0.8c-2,2.7-4.4,5.2-7.2,7.1c-1.7,1.1-3.6,2.1-5.7,1.9c-3-0.7-6-1.5-9-2.3c-1.7-0.4-3.5-1.1-5.3-0.9
	c-1.6,7.3-3.4,14.6-5,21.9c0.2,3.8,1.2,7.6,1.6,11.4c0,6.8-2.2,13.6-5.7,19.4c-0.5,0.8-1.2,1.6-1.1,2.7c0.1,2.7-0.5,5.6,1,8.1
	c2.8,5,6.7,9.4,10.5,13.7c4.4,4.4,9,8.7,12.4,13.9c1.2,1.8,2.1,4.2,1.1,6.3c-2,4.1-5.2,7.3-8.1,10.8c-1.5,3-3,6-4.6,8.9
	c-1.1,1.8-2.1,3.7-3.8,5.1c-2-1.1-3.9-2.6-5-4.7c-0.7-1.4-0.9-2.9-1-4.4c0.3-0.3,0.6-0.5,0.9-0.8c-0.6-0.6-1.2-1.1-1.7-1.8
	c0.2-2.1,1.7-3.8,3-5.3c1.4-1.7,3.1-3,4.6-4.6c1.2-1.8,2.2-3.8,3.4-5.7c-6.1-4.4-12.1-8.8-18-13.4c-1.7-1.3-3.3-2.7-5.1-4l0.2,0.1
	c-3.6-2.9-7-5.8-10.2-9.1c-0.6,0-1.1,0-1.7,0c-1.2,4.2-1.6,8.6-2,12.9c-0.8,9.6-1.1,19.2-1.4,28.8c-0.2,6,0.9,12.2,3.8,17.6
	c2.5,4.7,6.3,8.6,10.7,11.6c0.2,1.2-0.7,2.2-1.7,2.6c-3.4,1.4-7.2,1.8-10.9,2.3c-1.4-1.9-4-1.9-6.1-2.5c-1.4-5.8-2.7-11.7-4.1-17.5
	c-0.1-0.7-0.6-1.1-1.1-1.5c-1.1-1.1-2.2-2.1-3.3-3.2c0.5-2,1-3.9,1.5-5.9c0.3-1,0-2.1-0.1-3.1c-1.3-12.2-2.8-24.5-6.1-36.3
	c-0.4-1.9-1.5-3.7-1.3-5.8c-8.9-0.5-17.8-1.1-26.8-1.6c-2,0.2-3.9,0.8-5.8,1.3c-3.2,0.9-6.5,1.9-9.2,3.9c-1.2,0.9-2.2,2.2-2.4,3.7
	c-2,0.6-2.8,2.6-3.5,4.3c-0.8,1.8-1,3.8-1.7,5.7c-5.1,4.1-10.3,8-15.4,12c-1.9,1.3-3.3,3.2-4.7,5c-1.9,2.6-3.6,5.6-4.2,8.8
	c-0.8,5.7,0.8,11.8,4.6,16.1c1.3,1.6,2.9,2.9,4.5,4.2c0,1,0.1,2.3-0.9,2.9c-1.7,1.1-3.9,1.1-5.9,1.2c-2.7-0.1-5.6,0.4-8-1.2
	c-2.3-1.6-3-4.6-3.1-7.3c0-5.4,0-10.9,0-16.3c-0.2-3.3-0.6-6.5-0.8-9.8c-4.2,3.4-8.2,7.3-10.5,12.3c-1,2.1-1.5,4.4-1.4,6.8
	c0.1,2.9-0.3,5.8,0.6,8.6c1.3,4.2,4.1,7.8,7,11.1c0,0.7,0.1,1.4-0.1,2.1c-0.5,0.8-1.5,1.2-2.3,1.5c-2.8,0.9-5.7,1.1-8.6,1.3
	c-2.1-1.8-4.7-3.6-5.1-6.6c0.2-6.4,0.4-12.8,0.6-19.2c0-2.8,0.5-5.7-0.1-8.5c-0.5-2.9-0.9-5.8-1.4-8.6c2.5-2.9,5.1-5.8,7.6-8.7
	c0.8-0.9,1.7-1.7,2.2-2.8c2.7-5.6,3.9-11.8,4.7-18c0.6-4.9,0.8-9.9,0.8-14.9c0-0.6,0.1-1.2,0.4-1.8c1.6-3,3.1-6,4.7-9.1
	c-5.7,0-11.5-1.7-15.9-5.3c-5.3-4.3-8.6-10.6-10.7-17c-0.7-1.9-0.9-3.9-1.3-5.9c-0.3-1.9-0.7-3.8-0.9-5.8
	c-0.1-5.2,0.7-10.7,3.8-15.1c2.5-3.6,6.5-5.8,10.7-6.6c1.9-0.5,3.9-0.3,5.8-0.3c0.7,0.8,1.9,1.3,1.7,2.5c0,1.1,0.1,2.2-0.3,3.2
	c-1.7,4.2-3.3,8.4-4.2,12.8c-0.6,2.8-0.6,5.7-0.5,8.5c0.1,3.5,2,6.7,4.6,9c3.6,3.2,8.1,5.1,12.6,6.6c0.7,0.3,1.4,0.1,2.1,0
	c8.7-1,17.5-2.4,25.9-5c4.2-1.3,8.2-3.1,11.8-5.6c11.9-4.7,23.8-10.1,33.8-18.2c1-1,2.5-1.3,3.8-2c3.8-1.9,7.3-4.7,9.3-8.5
	c0.9-1.3,1-3.1,2.1-4.2c7.3-7.4,13.3-16,18.4-25c0.2-0.5,0.6-0.8,1-1.1C176.5,295.4,180.5,292.5,184.5,289.7L184.5,289.7z"/>
<path style="fill:none;stroke:#000000;stroke-miterlimit:10;" d="M501.1,324.3c2,6.1,1.6,13-1.3,18.6c-0.1-2-0.2-4-0.3-6
	c0-0.9-0.1-1.8-0.4-2.6c-0.6-1.6-2.2-2.7-3.6-3.7c-14.5-10.6-16.7-29.7-16.2-46.4c0.4-10.7-1.1-21.2-5.1-31.3
	c-0.3-0.7-0.7-1.4-1.3-2.4c-0.4,0.8-0.7,1.1-0.8,1.5c-2.5,9.4-4.4,19-4.9,28.8c-0.4,6.9-0.1,13.8-0.1,20.7c0,6.1,1.8,11.8,5,16.9
	c1.2,2,1.3,3.9,0.7,6c-0.6,1.8-1,3.7-1.1,5.5c-0.2,3-0.2,5.9-0.2,8.9c0,6.5-0.2,13,0,19.5c0.1,4,1,7.9,3.3,11.4c1,1.5,0.3,2.4-1.5,2
	c-1.4-0.4-2,0.2-2,1.5c0,1.1,0,2.3,0.4,3.4c1.3,3.5,0.2,6.1-3.5,6.5c-3.5,0.4-7,0.1-10.5-0.2c-1.7-0.1-2-1.3-1.3-2.8
	c0.5-1,1.2-1.8,1.7-2.8c1.3-2.9,3-5.8,3.8-8.9c2.1-8.3,1.7-16.8,1.5-25.3c0-1-0.6-2-1-3.1c-1-2.4-2.5-4.6-3-7.1
	c-0.8-4-2-7.9-3.7-11.6c-0.7-1.5-1-3.1-1.6-4.6c-0.4-1-0.9-1.9-1.4-2.9c-2.4,1.4-1.8,3.3-1.5,5c0.2,1.2,0.8,2.4,0.7,3.5
	c-0.4,5.9-1.1,11.7-1.3,17.6c-0.2,6.3-0.1,12.6,0,18.9c0,1.2,0.4,2.4,0.9,3.5c0.9,2-0.2,3.7-2.2,3.8c-0.6,0-1.4,0.4-1.6,0.8
	c-0.4,1.1-0.8,2.4-0.8,3.5c0,3-1.1,5.1-3.9,5.5c-3.4,0.4-6.8,0.1-10.3-0.1c-1.4-0.1-1.9-1.1-0.8-2.3c0.8-0.9,1.7-1.8,2.5-2.6
	c3.2-3.2,6.1-6.5,6.2-11.4c0-0.4,0.2-0.8,0.2-1.2c0.6-5,1.4-10.1,0.9-15.1c-0.4-4.3-1.8-7.3-1.3-11.7c0.3-3.1,0.5-6.1,0.7-9.2
	c0.1-1.3,0.4-2.5,0.5-3.8c0-0.8-0.7-3.7-0.4-4.2c-0.4,0.8-0.9,1.5-1.3,2.3c-1.3,2.2-2.7,4.6-4.8,6.1c-0.9,0.7-2,1.2-2.4,2.4
	c-0.2,0.6-0.1,1.3-0.1,2c0,2.2-0.4,4.5-1.3,6.5c-0.5,0.3-1.3,0-1.6-0.5c-0.3-0.5-0.3-1.2-0.3-1.8c0-2,0.1-4,0.1-6.1
	c-0.9,0.2-1.4,1.1-1.5,2s0,1.8,0.1,2.6c0.1,1.3,0.1,2.6-0.1,3.9c-1.1,0.1-2.5,0-2.9-1c-0.2-0.3-0.2-0.7-0.2-1.1v-3.7
	c0-0.8,0-1.7-0.5-2.4c-0.4-0.7-1.5-1-2.1-0.4c-0.3,0.4-0.4,0.9-0.4,1.4c0,1.9,0,3.8,0,5.7c-0.9,0.2-2.2,0.3-2.5-0.6
	c-0.1-0.2-0.1-0.5-0.1-0.8v-6c-0.4-0.1-0.8,0-1.2,0.2c0,2-0.1,3.9-0.1,5.9c-0.6,0.7-1.9,0.2-2.2-0.7c-0.4-0.9-0.2-1.8-0.1-2.8
	c0-4.9-5.5-5.4-7.9-9c-1.3-2-2-3.7-5-2.4c-11.5,5.5-24.5,1.8-36.3-0.1c-5-0.8-10-1.4-14.4-4.5c-3.1-2.2-7.3-0.3-8.4,3.3
	c-1.9,6.1-3.6,12.2-5.4,18.3c-1.4,4.6-2.9,9.3-4.3,13.9c-0.7,2.4-1.8,4.8-2,7.2c-0.4,3.7-0.7,7.6-0.4,11.4c0.4,4.1,0,8.4,2.4,12.2
	c0.9,1.5,0.2,2.9-1.2,3.8c-0.5,0.3-1.3,0.2-1.9,0c-0.3-0.2-0.3-1-0.3-1.6c0-0.5,0.2-1,0.2-1.5c-0.8,0.2-1.3,0.7-1.6,1.1
	c-1.3,2-0.2,3.7,0.6,5.4c1.6,3.5-0.6,8.3-4.5,8.7c-4.4,0.4-8.8,0.2-13.1,0c-1.7-0.1-2.2-1.1-1.3-2.7c0.7-1.3,1.5-2.4,2.6-4.1
	c-1.7,0-3.1,0-4.4,0c-1.4,0-2.9,0-4.2-0.4c-1.9-0.4-2.3-1.6-1.1-3.1c0.9-1.2,2-2.2,3.1-3.2c1.9-1.7,4.2-2.9,5-5.5
	c0.6-1.9,1.3-3.8,1.7-5.7c1-4.4,2-8.7,2.8-13.1c0.6-3.5,0.5-6.8-1-10.3c-1.1-2.6-1.4-5.7-1.7-8.7c-0.4-4.4-0.3-8.8-0.5-13.2
	c0-0.7-0.7-1.7-1.3-1.9c-2.7-1.1-5-2.8-6.4-5.4c-1.7-3.2-3.3-6.6-4.8-9.8c-2.8-5.7-3.7-9.9-10.7-10.8c-1.1-0.1-2.1-0.2-3.1-0.5
	c-2.2-0.7-3.5-2.8-4.5-4.8c-2.3-4.9-3.1-10.3-3.8-15.6c-0.4-3.2-0.2-7.8-1.5-10.8c-1.4-3.1-4.6-5.6-6.2-8.7c-0.3-0.5-1.4-1.1-2-1
	c-3.8,0.8-7.6,0.2-11.3-0.2c-3.8-0.4-7.5-1-10.9-3.1c-0.7-0.4-2-0.6-2.7-0.2c-3.3,1.5-6.6,1.3-9.8,0c-1.3-0.6-2.6-1.1-4-1.4
	c-3-0.7-3.9-2-3.5-5c0.2-1.3,0.2-2.7-0.1-4c-0.4-2.2-0.1-3.3,1.8-4.4c0.9-0.5,2-1,2.8-1.6c4.8-3.6,7.9-8.7,11.6-13.2
	c0.5-0.7,0.9-1.7,0.9-2.6c0.1-1.8-0.1-3.7-0.1-5.5c0-2.3,0.7-4.4,2.6-5.7c4.8-3.2,4.6-3.3,4.9-9.2c0-0.7,0.1-1.4,0.4-1.9
	c0.6-0.9,1.8-1.1,2.9-1.1c4.6,0,7.7,4.3,10.3-0.7c0.6-1.1,2.9-2,4.3-1.9c3.8,0.4,6.8,2.3,8.7,5.8c0.5,1,1.5,1.9,2.5,2.6
	c1.4,1,3.1,1.8,4.6,2.6c1.4,0.8,2.7,0.9,4.2,0c2.4-1.6,4.8-3.3,7.4-4.6c3.5-1.9,7.2-2.6,11.1-0.9c1.7,0.7,2.2,2.1,1.8,3.8
	c-0.9,4.2-3.1,7.8-6,10.9c-1.7,1.8-3.8,2.8-6.4,2.4c-0.8-0.1-1.6-0.2-2.4-0.4c-0.8-0.1-1.5-0.3-2.3-0.4c7,5,14.4,4.3,21.6,1.6
	c3.2-1.2,6.4-1.7,9.5-1.4c7.6,0.7,15.1,1.9,22.7,2.9c5.6,0.7,11.3,1.5,16.9,2.2c5.9,0.8,11.8,1.9,17.7,2.3
	c5.9,0.4,11.6,0.4,17.3,1.6c3.5,0.7,6.6,0.4,10.1,0.3c3.6-0.1,7.4,0.9,10.9,1.6c7.2,1.5,14.6,3.4,22.1,2.4c4.7-0.6,10.2-3,14.8-0.9
	c4.1,1.8,8.6,4.1,12.5,6.4c2.6,1.6,4.8,3.7,5.3,7c0.3,2,1.1,3.9,1.8,5.8c1.1,2.9,2.6,5.7,3.6,8.6c2.8,8.2,3.2,16.7,3.3,25.3
	c0,3.4-0.2,6.8,0.1,10.1c0.6,8.9,2.1,14.1,8.5,20.2c2.5,2.3,5,4.6,7.1,7.3C499.3,319.9,500.4,322,501.1,324.3L501.1,324.3z"/>
</svg>
