<?xml version="1.0" encoding="utf-8"?>
<!-- Generator: Adobe Illustrator 22.1.0, SVG Export Plug-In . SVG Version: 6.00 Build 0)  -->
<svg version="1.1" id="Layer_1" xmlns="http://www.w3.org/2000/svg" xmlns:xlink="http://www.w3.org/1999/xlink" x="0px" y="0px"
	 viewBox="0 0 512 512" style="enable-background:new 0 0 512 512;" xml:space="preserve">
<path style="fill:none;stroke:#000000;stroke-miterlimit:10;" d="M46.4,198.9c0,0-5-7.2,4.2-7.5c9.1-0.3,23,0.3,25.5-1.7
	c2.5-1.9,13.6-12.7,24.9-14.7c11.4-1.9,26.9-0.8,32.4-1.9c4.9-1,23.9-9.4,35.4-9.5c1.3,0,1.8,1.7,0.8,2.4
	c-5.6,3.7-16.7,11.7-17.1,16.5c0,0,24.9-11.1,28.5-7.5l-20.8,21.1c0,0,8,5.4,20.5,6.7c0,0,15.4-1.4,21.8,0.8s38.8,13,50.2,12.7
	c11.4-0.3,11.8,0.6,33-5.3c0,0,15.5-3.9,26.6,1.1s30.5,15.2,58.2,0.6s47.4-21.9,88.9-80c0,0,8.6,36.3-9.7,54.8c0,0,4.2,2.8,13.8-8
	c0,0-10.5,30.2-23.3,36.3c0,0,9.7,2.5,19.4-5c0,0-17.2,21.3-38.8,25.8c0,0,11.1,3.9,19.9-1.7c0,0-17.5,18.3-46.5,15.2
	c0,0,4.4,6.1,11.4,6.9c0,0-20.2,6.8-57.1-11.6c0,0-20.8,0.8-13.6,26c6,21.1,14.3,37.6,27.9,48.4c4.8,3.8,6.6,10.3,4.3,16
	c-5.1,12.7-12.2,33.5-8.1,40.1l-28.5,3c0,0-5,0.6-6.4-3.9c-1.4-4.4,1.4-16.1,15.2-14.7c0,0,8.9-21.6,7.2-24.4
	c-1.7-2.8-11.1-5-11.1-5s3,2.8,2.8,4.4c-0.3,1.7,1.1,2.5-0.6,4.4c-1.7,1.9-28.8,25.2-33.2,37.4l-29.6,1.7c0,0-1.9-6.1-0.8-9.7
	s5.3-10,17.5-9.1c12.2,0.8,15.2-21.1,15.5-25.5c0.3-4.4-7.2-28.8-12.2-31.9c-5-3-47.4-42.9-100.3-6.9c0,0,8.7,19.7,17.7,27.7
	c0,0,1.9,0.6,2.8,6.6c0.8,6.1,2.5,14.7,5,18c2.5,3.3-13,18.8-13,18.8l-20.5,1.7c0,0-8.9-13.6,8.9-13.6c0,0,8.6-2.8,5.8-11.4
	c-2.8-8.6-24.7-31-24.7-31s-39.8,20.2-46.3,43.8c0,0-2.8,3.6-7.8,5.8c-5,2.2-5,6.4-5,6.4l-30.2-0.8c0,0-8-15.2,16.9-15.2
	c0,0,40.7-44,42.1-47.9c1.4-3.9,7.2-18.3,4.4-21.9c-2.8-3.6-10.8-12.5-15-28s-57.6-32.7-57.6-32.7s-18-2.2-17.5-9.4
	C60.8,212.8,45.3,210.6,46.4,198.9L46.4,198.9z"/>
<path style="fill:none;stroke:#000000;stroke-miterlimit:10;" d="M57.2,191.4l-9.6,0.7l-2.5,2.2l0.3,2.7l1,1.9l1.2,0.4
	c0,0,7,1.1,9.6-6.1L57.2,191.4"/>
<path style="fill:none;stroke:#000000;stroke-miterlimit:10;" d="M335.6,331.1c0,0-20.8-27.7-1.4-50.4c0,0,3.9-1.1,0.8-9.1"/>
<path style="fill:none;stroke:#000000;stroke-miterlimit:10;" d="M176.6,312.8c-5-2.5-25.8-29.9-25.8-29.9"/>
<path style="fill:none;stroke:#000000;stroke-miterlimit:10;" d="M185.2,243.5c0,0,7.5,10.3,4.7,25.2c-2.8,15,4.7,27.1,4.7,27.1"/>
<path style="fill:none;stroke:#000000;stroke-miterlimit:10;" d="M153,182.6c0,0-10.8,23.2-27.4,18.6"/>
<path style="fill:none;stroke:#000000;stroke-miterlimit:10;" d="M90.4,188c-2.1,1.2-3.4,3.3-3.1,5.8c0.3,2.5,1.9,3.7,2.6,4
	c6.2,2.5,13.2-2.6,14.3-3.4C100,189.1,92.7,186.7,90.4,188L90.4,188z"/>
<path style="fill:none;stroke:#000000;stroke-miterlimit:10;" d="M78.3,222.4c45.1,13.6,56.4,29.9,56.4,29.9s9.2,25.7,16.7,31.8
	c1.5,1.2,1.6-40.4,1.6-40.4c-2.1-22.4-22.2-26.4-33.3-27.3c-7.5-0.6-23-4.4-28.4-3.4c-7.8,1.4-13.8,1.6-13.8,1.6L60.9,213
	C60.9,213,60,220.2,78.3,222.4"/>
<path style="fill:none;stroke:#000000;stroke-miterlimit:10;" d="M91.3,212.8c-10,3.6-30.5,0-30.5,0"/>
<path style="fill:none;stroke:#000000;stroke-miterlimit:10;" d="M273.9,256.7c0,0,1.9,18.6,20.9,46.1"/>
<path style="fill:none;stroke:#000000;stroke-miterlimit:10;" d="M89.6,190.5c0,0-0.2-1.4,1.2-1.7c0,0,0.4-0.1,0.4,0.3
	s-0.7,0.5-0.8,0.9C90.3,190.5,90.1,190.9,89.6,190.5L89.6,190.5z"/>
</svg>
