<?xml version="1.0" encoding="utf-8"?>
<!-- Generator: Adobe Illustrator 22.1.0, SVG Export Plug-In . SVG Version: 6.00 Build 0)  -->
<svg version="1.1" id="Layer_1" xmlns="http://www.w3.org/2000/svg" xmlns:xlink="http://www.w3.org/1999/xlink" x="0px" y="0px"
	 viewBox="0 0 283.5 283.5" style="enable-background:new 0 0 283.5 283.5;" xml:space="preserve">
<style type="text/css">
	.st0{fill:none;stroke:#000000;stroke-miterlimit:10;}
</style>
<g>
	<path class="st0" d="M229.1,116.9c-0.3-0.8-0.7-1.6-1.1-2.4c-2.7-5.5-6.2-10.5-10.5-14.8c-4.3-4.3-9.3-7.8-14.8-10.5
		c-0.8-0.4-1.6-0.7-2.4-1.1c-2.8-1.2-5.8-2.2-8.8-2.9c-3.9-0.9-8-1.4-12.2-1.4h-75.2c-7.5,0-14.6,1.5-21,4.3
		c-0.8,0.3-1.6,0.7-2.4,1.1c-5.5,2.6-10.5,6.2-14.8,10.5c-4.3,4.3-7.8,9.3-10.5,14.8c-0.4,0.8-0.7,1.6-1.1,2.4
		c-2.7,6.5-4.3,13.6-4.3,21v7.6c0,29.9,24.2,54,54,54h75.2c29.8,0,54-24.2,54-54v-7.6C233.4,130.5,231.9,123.4,229.1,116.9z
		 M213.3,144.2c0,0.3,0,0.7,0,1c-0.4,21.5-17.9,38.8-39.5,38.8h-64.1c-21.6,0-39.1-17.3-39.5-38.8c0-0.3,0-0.7,0-1v-5.6
		c0-0.2,0-0.5,0-0.7c0.2-10.7,4.6-20.3,11.6-27.3c7.2-7.2,17-11.6,28-11.6h64.1c10.9,0,20.8,4.4,28,11.6c7,7,11.4,16.6,11.6,27.3
		c0,0.2,0,0.5,0,0.7V144.2z"/>
	<path class="st0" d="M213.3,137.9c0,0.2,0,0.5,0,0.7v5.6c0,0.3,0,0.7,0,1c-0.4,21.5-17.9,38.8-39.5,38.8h-64.1
		c-21.6,0-39.1-17.3-39.5-38.8c0-0.3,0-0.7,0-1v-5.6c0-0.2,0-0.5,0-0.7c0.2-10.7,4.6-20.3,11.6-27.3c7.2-7.2,17-11.6,28-11.6h64.1
		c10.9,0,20.8,4.4,28,11.6C208.8,117.7,213.1,127.3,213.3,137.9z"/>
	<path class="st0" d="M213.3,138.6v5.6c0,0.3,0,0.7,0,1c-0.4,21.5-17.9,38.8-39.5,38.8h-64.1c-21.6,0-39.1-17.3-39.5-38.8
		c0-0.3,0-0.7,0-1v-5.6c0-0.2,0-0.5,0-0.7c0.5-21.4,18-38.5,39.5-38.5h64.1c21.5,0,39,17.2,39.5,38.5
		C213.3,138.2,213.3,138.4,213.3,138.6z"/>
	<path class="st0" d="M213.3,138.6v5.6c0,0.3,0,0.7,0,1c-0.4,21.5-17.9,38.8-39.5,38.8h-64.1c-21.6,0-39.1-17.3-39.5-38.8
		c0-0.3,0-0.7,0-1v-5.6c0-0.2,0-0.5,0-0.7c0.5-21.4,18-38.5,39.5-38.5h64.1c21.5,0,39,17.2,39.5,38.5
		C213.3,138.2,213.3,138.4,213.3,138.6z"/>
	<path class="st0" d="M70.1,145.3c0.3,10.5,4.6,20,11.6,26.9c7.2,7.1,17,11.6,28,11.6H138h35.8c10.9,0,20.8-4.4,28-11.6
		c6.9-6.9,11.3-16.4,11.6-26.9"/>
</g>
<path class="st0" d="M191.9,82.4c0,1-0.1,2-0.4,2.9c-3.9-0.9-8-1.4-12.2-1.4H168c-0.1-0.5-0.1-1-0.1-1.5c0-6.6,5.4-12,12-12
	S191.9,75.7,191.9,82.4z"/>
<circle class="st0" cx="208.9" cy="78.4" r="8"/>
<circle class="st0" cx="197" cy="51" r="5.1"/>
</svg>
