<?xml version="1.0" encoding="utf-8"?>
<!-- Generator: Adobe Illustrator 22.1.0, SVG Export Plug-In . SVG Version: 6.00 Build 0)  -->
<svg version="1.1" id="Layer_1" xmlns="http://www.w3.org/2000/svg" xmlns:xlink="http://www.w3.org/1999/xlink" x="0px" y="0px"
	 viewBox="0 0 512 512" style="enable-background:new 0 0 512 512;" xml:space="preserve">
<path style="fill:#FFFFFF;stroke:#000000;stroke-width:2;stroke-miterlimit:10;" d="M110.6,274.3c0,0-2.9-1.7-6.2-1.3
	c0,0-2-1-4.8-0.8c-2.8,0.2-6.9,1.8-9.4,9.3c0,0-7.5,3.5-10.9,5.8c-3.5,2.4-10.5,3.5-17.7,9.9c-7.2,6.4-17.9,10.2-17.1,13.7
	c0.8,3.5,13-4,23.1-6.8c10.1-2.8,10.9-0.4,10.9-0.4s-0.2,2.1,1.1,3.6c1.3,1.5,4.7,2.8,6.1,4.1c1.4,1.3,3.8,1.3,3.8,1.3
	s-5.7-3.8-6.9-5.5c-1.2-1.7,0.8-3.8,0.8-3.8s12.1-1.1,15.6-6.7c3.5-5.6,4.6-11.1,3.7-16.1C101.6,275.7,110.6,274.3,110.6,274.3z"/>
<path style="fill:#FFFFFF;stroke:#000000;stroke-width:2;stroke-miterlimit:10;" d="M255.4,369.8c0,0,2.7-1.6,5.9-1.3
	c0,0,1.9-1,4.5-0.8c2.6,0.2,6.5,1.7,8.9,8.7c0,0,7.1,3.3,10.3,5.5c3.3,2.2,9.9,3.3,16.7,9.4c6.8,6,16.9,9.6,16.1,13
	c-0.8,3.3-12.2-3.8-21.8-6.4c-9.5-2.6-10.2-0.4-10.2-0.4s0.2,2-1,3.4c-1.2,1.4-4.4,2.6-5.8,3.9c-1.3,1.3-3.6,1.3-3.6,1.3
	s5.4-3.6,6.5-5.2c1.1-1.6-0.7-3.6-0.7-3.6s-11.4-1-14.7-6.4c-3.3-5.3-4.4-10.5-3.5-15.2C263.9,371.1,255.4,369.8,255.4,369.8z"/>
<g>
	<g>
		<path style="fill:#FFFFFF;stroke:#000000;stroke-width:2;stroke-miterlimit:10;" d="M314.7,497.6c3.2,1.3,7.4,1.5,12.1,1.3
			c-2-2.8-1.1-8.5-3.5-10.9c-15.4-1.2-26-7.2-44.7-5.2c-1.9-2.9-3.3-6.4-7.2-7.3c-0.5,0-0.9,0-1.4,0c-1.2,2.4-2.6,4.7-4.2,6.8
			c-0.4,1.5,3.4,1.8,5.2,1.1c0.3-0.4,0.6-0.8,0.9-1.1c0.1,0.5-0.2,0.9-0.9,1.1c-6.3,8.1-19.3,17.6-24.9,29.7h19.7
			c0.6-2.8,0.7-5.8,0-9.1c5.2,0.9,3.6,4.9,2.2,9.1h67c-3-4-6.2-8-9.5-11.7C321,501,314.7,502.4,314.7,497.6z"/>
		<path style="fill:#FFFFFF;stroke:#000000;stroke-width:2;stroke-miterlimit:10;" d="M232.5,506.5c-1.2-12.8-13.8-21.5-17.6-31.9
			L207,478l-5.6-4.2l-13.8,3.5l-8.2,2c1,1,2.1,1.9,3.1,2.9c-18.9,2.1-30.2,11.7-37.5,25.4c10.6,1,14.6,1.1,21.8,1.2
			c3.1-0.9,4.2-3.9,3.6-8.5c4.4,1.5,2.6,4.6,8.5,2.4c2.6-1,1.9-5.3,3.6-7.3c5,10.3-11.6,9.4-13.3,16.9c0.1,0.2,0.1,0.4,0.2,0.6h72.1
			C239.8,509.5,235.4,508.7,232.5,506.5z"/>
		<path style="fill:#FFFFFF;stroke:#000000;stroke-width:2;stroke-miterlimit:10;" d="M21.7,377.7c-3,2.1-5.8,4.1-7.2,5.3
			c-5.4,4.6-3.4,7.1-14.1,13l-0.1-0.1v3.7C6.4,392.1,16.2,385.8,21.7,377.7z"/>
		<path style="fill:#FFFFFF;stroke:#000000;stroke-width:2;stroke-miterlimit:10;" d="M31.5,371c2.9-0.4,4.4-2,8.4-1.2
			c2.1-1.1,2.2-4.2,3.6-6c0,0,0,0,0,0c-4,2.1-7.5,4.1-8.4,4.8C34.5,368.9,33.2,369.8,31.5,371z"/>
		<path style="fill:#FFFFFF;stroke:#000000;stroke-width:2;stroke-miterlimit:10;" d="M43.5,368.6c3.8,0.2,4-3.2,8.5-2.4
			c-1,6.5-4.6,13.2,1.2,16.9c4.1-9.1,1.3-16.2-2.8-23c-1.9,1-4,2.1-6,3.2C44.2,364.9,43.7,367.4,43.5,368.6z"/>
		<path style="fill:#FFFFFF;stroke:#000000;stroke-width:2;stroke-miterlimit:10;" d="M52.2,359.2c1.9,3.1,3.7,6.3,4.6,9.4
			c4.6-1.2,3.4-8.1,3.6-13.7c-1.1,0.9-2.1,1.5-2.6,1.6C57,356.8,54.9,357.8,52.2,359.2z"/>
		<path style="fill:#FFFFFF;stroke:#000000;stroke-width:2;stroke-miterlimit:10;" d="M11.6,380.9c2.7-4.9,8.8-9.1,13.9-11.8
			c0.5-2.4,0.5-4.9-0.1-7.7c2.6-0.2,0.5,4.3,1.2,6c4.5-0.3,3.3-6.4,8.5-6c-0.5,1.8-1.5,3.1-2.6,4.3c0.6-0.2,0.9-0.4,0.9-0.4
			l15.3-7.9c-2.7-4.1-5.5-8.1-7.3-12.5c-4.2,1.9-8.6,3.2-8.6,3.2s-9.9-1.9-15.7-2.7c-2.4,3.6-5.8,9.3-5.4,12
			c0.6,4-3.5,12.9-3.5,12.9s-2.6,2.3-3.9,4.5c-0.6,1.1-2.5,3-4,5.1v8.5C4,387.9,8.8,386,11.6,380.9z"/>
		<path style="fill:#FFFFFF;stroke:#000000;stroke-width:2;stroke-miterlimit:10;" d="M220.5,405.9c2.4-2.2,4.5-4.7,6.4-7.4
			l-26.9-2.7l-19.4,2.8l-14.8,4.3l-12.8-8.1l-7.7,0.4c-2,1.7-6.4,0.9-9.9,1.1c-7.1,7.8-13.4,16.4-19.3,25.4c6.7,2.3,15.8-3.5,21.8-6
			c-1.3,3.2-4.8,4.1-6,7.3c-22.7-1.3-28,14.7-33.8,30.2c16.5-4,50.6-1,48.3-27.8c6.3,3.4,5.3-9.7,8.5-13.3c2,3.6-6,12.9-1.2,19.3
			c6.1-3.1,4-14.5,12.1-15.7c-5.1,7-6.4,17.7-16.9,19.3c-0.7,6.7,4,8.1,4.8,13.3c7.4-5.5,11.4-14.4,21.8-16.9
			c3.7-11.2,19.4-10.4,24.2-20.5c4.1,0.5,0.7,5.7,0,8.5c-8.4,0.9-16.4,2.1-18.1,9.7c13.3-7.4,28.3-13,39.1-22.9l-0.1,0L220.5,405.9z
			"/>
		<path style="fill:#FFFFFF;stroke:#000000;stroke-width:2;stroke-miterlimit:10;" d="M129.3,389.1c2.1-11.4-7.8-21-9.7-30.2
			c-11.7-1.6-20.6-6-23-16.9c-12.8,7.6-20.2,18.1-23,33.8c-0.5,3.1,1.7,6.7,1.2,9.7c-1.4,8.3-12.9,10.3-13.3,19.3
			c3.9,8.6,7.1,17.9,9.7,27.8c3.7-7.6,7.6-15,18.1-15.7c6.8-12.1-13.4-26.6,0-33.8c-6.8,8.9,3.6,15.9,2.4,26.6
			c5.3-1.2,2.7-10.2,8.5-10.9c1.4,3.2-3.7,5.2,1.2,4.8c10-1.1-0.6-13.8,3.6-19.3c1.9,3.8,1.9,9.4,2.4,14.5c4.5,3.6,4.4-5.5,8.5-6
			c-0.4,10.9-10.7,11.8-19.3,14.5c-1.6,9.6-9.4,13.2-18.1,15.7c-3.3,8.7-9.6,15.5-7.3,26.6c12.4,8.1,17.9-5.9,23-13.3
			C103.2,423.1,126.8,402.9,129.3,389.1z"/>
		<path style="fill:#FFFFFF;stroke:#000000;stroke-width:2;stroke-miterlimit:10;" d="M76.1,361.3c-16.9,1.6-26.1,26.5-14.5,38.7
			C73,391,70.7,375.6,76.1,361.3z"/>
		<path style="fill:#FFFFFF;stroke:#000000;stroke-width:2;stroke-miterlimit:10;" d="M48.3,369.8c-7-0.6-9,3.9-10.9,8.5
			c2.3,1.2,4-3.6,4.8,0c-14.4,1.3-18.1,13.3-27.8,19.3C32.3,399.6,49.6,390.8,48.3,369.8z"/>
		<path style="fill:#FFFFFF;stroke:#000000;stroke-width:2;stroke-miterlimit:10;" d="M35.1,372.2c-4.6,1.8-14.1,5.1-9.7,12.1
			C26.6,379,37.5,377.1,35.1,372.2z"/>
		<path style="fill:#FFFFFF;stroke:#000000;stroke-width:2;stroke-miterlimit:10;" d="M21.8,381.9c-9.7,5.4-14.2,16-21.5,23.8v0.1
			C8.1,398.4,20.6,395.8,21.8,381.9z"/>
		<path style="fill:#FFFFFF;stroke:#000000;stroke-width:2;stroke-miterlimit:10;" d="M39.9,396.4c2.2,0.2,0.7,4.1,2.4,4.8
			c8.7-1.4,15.3-13.5,6-19.3C48.2,389.3,41.7,390.5,39.9,396.4z"/>
		<path style="fill:#FFFFFF;stroke:#000000;stroke-width:2;stroke-miterlimit:10;" d="M49.6,436.2c6.1-2.3,5.5-11.4,12.1-13.3
			c-0.9,8.4-8.4,10.1-9.7,18.1c5.5,6,11.5-2.2,16.9-3.6c-2.7-16.2-6.7-31.2-14.5-42.3C49.4,404.3,46.6,426.9,49.6,436.2z"/>
		<path style="fill:#FFFFFF;stroke:#000000;stroke-width:2;stroke-miterlimit:10;" d="M38.7,396.4c-4.3,0.1-8.3,0.6-9.7,3.6
			c3.1,2.9,5.1,7,8.5,9.7C40.1,406.8,40.7,400.5,38.7,396.4z"/>
		<path style="fill:#FFFFFF;stroke:#000000;stroke-width:2;stroke-miterlimit:10;" d="M27.8,400c-11.7,0.8-19.8-1.5-23,8.5
			c4.7,1.8,5.5,7.4,10.9,8.5c3.1-4.4-2.6-9.1,2.4-10.9c-0.1,13.4,10.4,24.5,18.1,33.8C37,429.2,35.3,409.3,27.8,400z"/>
		<path style="fill:#FFFFFF;stroke:#000000;stroke-width:2;stroke-miterlimit:10;" d="M45.9,402.4c-7.8,4.3-12.3,17.8-7.3,27.8
			C46,426.6,44.1,407.4,45.9,402.4z"/>
		<path style="fill:#FFFFFF;stroke:#000000;stroke-width:2;stroke-miterlimit:10;" d="M0.3,471.3V482c0.9-1.3,1.7-2.9,2.1-4.7
			C2.3,475.6,1.2,473.4,0.3,471.3z"/>
		<path style="fill:#FFFFFF;stroke:#000000;stroke-width:2;stroke-miterlimit:10;" d="M7.3,470.1c-1.6,2.4-2.3,5.8-3.6,8.5
			c8.3-3.3,23.3-5.2,20.5-15.7c9.7-0.4,8.2-11.9,10.9-19.3c-5.8-7.5-10.6-16-15.7-24.2c-10.2,1.7-9.4-7.6-16.9-8.5
			c-0.8,1-1.5,2.1-2.1,3.2v51.9C2.6,471.3,2.6,469.4,7.3,470.1z"/>
		<path style="fill:#FFFFFF;stroke:#000000;stroke-width:2;stroke-miterlimit:10;" d="M47.1,449.5c0.5-3.9,2.3-6.5,2.4-10.9
			c-2.3-0.5-2.2-3.5-6-2.4c-0.3,4.9-3.7,6.8-3.6,12.1C43.6,447.5,43.4,450.4,47.1,449.5z"/>
		<path style="fill:#FFFFFF;stroke:#000000;stroke-width:2;stroke-miterlimit:10;" d="M145,437.5c-3,10.7-16.7,10.7-16.9,24.2
			c9.4-2.3,13.3-10,21.8-13.3C148.4,444.5,147.7,440.1,145,437.5z"/>
		<path style="fill:#FFFFFF;stroke:#000000;stroke-width:2;stroke-miterlimit:10;" d="M66.5,441.1c-3.2,3.1-11.5,7.5-15.7,2.4
			c0.5,2.9-2.2,2.6-1.2,6C54,446.5,73.4,447.6,66.5,441.1z"/>
		<path style="fill:#FFFFFF;stroke:#000000;stroke-width:2;stroke-miterlimit:10;" d="M62.9,449.5c-4.3,0.1-9.7-0.9-9.7,3.6
			c0.1,2.3,4,0.8,3.6,3.6C60.3,455.8,63.7,454.8,62.9,449.5z"/>
		<path style="fill:#FFFFFF;stroke:#000000;stroke-width:2;stroke-miterlimit:10;" d="M128.1,450.7c-12.3-2.7-20.7,6.9-33.8,7.3
			c-2.4,2.5-4,12.1-1.2,15.7C95.7,456.4,132.9,477.3,128.1,450.7z"/>
		<path style="fill:#FFFFFF;stroke:#000000;stroke-width:2;stroke-miterlimit:10;" d="M38.7,450.7c-0.9,3.9-1.7,8-3.6,10.9
			c7.7,0.5,10.1-4.4,12.1-9.7C43.3,452.5,42.9,449.8,38.7,450.7z"/>
		<path style="fill:#FFFFFF;stroke:#000000;stroke-width:2;stroke-miterlimit:10;" d="M66.5,450.7c-1.9,5.8-11.6,9.4-2.4,13.3
			C65.4,460.9,70.2,454.9,66.5,450.7z"/>
		<path style="fill:#FFFFFF;stroke:#000000;stroke-width:2;stroke-miterlimit:10;" d="M49.6,454.4c-1.2,3.3-4.3,4.5-6,7.3
			c5.5-0.6,6.8,2.1,10.9,0C54.9,457.1,51.8,456.1,49.6,454.4z"/>
		<path style="fill:#FFFFFF;stroke:#000000;stroke-width:2;stroke-miterlimit:10;" d="M136.6,485.8c2.8-9.9,14.3-21.9,10.9-30.2
			c-5.8-0.6-13.1,7.8-20.5,9.7c-1.4,18.9-9.1,35.1-16.8,47.8h9.2C123,501.9,125.3,489.3,136.6,485.8z"/>
		<path style="fill:#FFFFFF;stroke:#000000;stroke-width:2;stroke-miterlimit:10;" d="M70.1,458c-0.2,3.4-2.2,5-2.4,8.5
			c4.1,4.3,7.4,9.5,15.7,9.7C84.2,464.8,79.1,459.5,70.1,458z"/>
		<path style="fill:#FFFFFF;stroke:#000000;stroke-width:2;stroke-miterlimit:10;" d="M44.7,489.4c3.3,1.6,5.5,4.2,9.7,4.8
			c1.5-6.6,2.7-18-4.8-23c3.1,0.5,3.6,3.6,7.3,3.6c0.9-3.5,5.7-3.1,4.8-8.5c-4.2-6-19.2-1.4-26.6-2.4c-6.2,8.7-7.3,22.5-12.1,32.6
			c8.2,0.2,8-8.1,15.7-8.5c-3.8,5.5-9.3,9.3-16.9,10.9c-0.4,5.2-2.7,9.7-5.2,13.9h8.7C34.5,505.4,43.8,498,44.7,489.4z"/>
		<path style="fill:#FFFFFF;stroke:#000000;stroke-width:2;stroke-miterlimit:10;" d="M114.8,468.9c-7,3.5-3.9,19.1,3.6,25.4
			C120.5,485.6,128.8,461.8,114.8,468.9z"/>
		<path style="fill:#FFFFFF;stroke:#000000;stroke-width:2;stroke-miterlimit:10;" d="M101.5,468.9c-0.6,6,8.9,6.2,9.7,1.2
			C109.4,468.2,105,469,101.5,468.9z"/>
		<path style="fill:#FFFFFF;stroke:#000000;stroke-width:2;stroke-miterlimit:10;" d="M97.9,470.1c-8.1,10.4-6.7,30.4-0.7,42.9h10.9
			c2.9-5.6,4-13,7.9-17.5C109.5,487.4,108.2,474.3,97.9,470.1z"/>
		<path style="fill:#FFFFFF;stroke:#000000;stroke-width:2;stroke-miterlimit:10;" d="M10.9,512.4c3.6-13.8,12.8-28.3,13.3-41.1
			c-7.4,5.2-15.9,9.3-23.9,13.9V513h6.5c-0.2-2.4-0.6-4.9-0.7-6.7C8.7,507.3,7.6,512,10.9,512.4z"/>
		<path style="fill:#FFFFFF;stroke:#000000;stroke-width:2;stroke-miterlimit:10;" d="M64.1,484.6c1.4-3.9,7.8-2.7,10.9-4.8
			c-2.6-3.1-5-6.3-9.7-7.3C65.4,476.3,60.8,481.6,64.1,484.6z"/>
		<path style="fill:#FFFFFF;stroke:#000000;stroke-width:2;stroke-miterlimit:10;" d="M61.6,499.1c10.3-0.2,14.6-6.4,18.1-13.3
			C72.3,480.3,60.8,488.4,61.6,499.1z"/>
		<path style="fill:#FFFFFF;stroke:#000000;stroke-width:2;stroke-miterlimit:10;" d="M76.1,499.1c1.1,6.9-0.8,10.7-3.4,13.9h7
			c2.2-1.7,4.1-3.6,7.3-4.2C88.2,496.6,83.1,491.2,76.1,499.1z"/>
		<path style="fill:#FFFFFF;stroke:#000000;stroke-width:2;stroke-miterlimit:10;" d="M35.1,508.8c7.5-3,18.2-2.7,19.3-12.1
			C44.8,493.4,37.8,501.4,35.1,508.8z"/>
		<path style="fill:#FFFFFF;stroke:#000000;stroke-width:2;stroke-miterlimit:10;" d="M31.3,513h11.4c1.6-1.6,3.1-3.4,4.4-5.5
			C41.5,509,36.2,510.8,31.3,513z"/>
		<path style="fill:#FFFFFF;stroke:#000000;stroke-width:2;stroke-miterlimit:10;" d="M121.4,513h44.8c-0.4-0.8-0.6-1.8-0.6-3
			C154.9,513.5,131,504.5,121.4,513z"/>
		<path style="fill:#FFFFFF;stroke:#000000;stroke-width:2;stroke-miterlimit:10;" d="M84.1,513h3.3C86.4,512.4,85.2,512.5,84.1,513
			z"/>
		<path style="fill:#FFFFFF;stroke:#000000;stroke-width:2;stroke-miterlimit:10;" d="M271.9,482.2c-0.3,0.4-0.6,0.8-0.9,1.1
			C271.7,483.1,272.1,482.7,271.9,482.2z"/>
		<path style="fill:#FFFFFF;stroke:#000000;stroke-width:2;stroke-miterlimit:10;" d="M48.7,357.4l1.8-0.9c-0.7-1.2-1.5-2.4-2.1-3.6
			c-1.6-2.9-2.9-6.5-4.5-9.2c-0.8,0.4-1.6,0.8-2.5,1.2C43.2,349.3,46,353.3,48.7,357.4z"/>
		<path style="fill:#FFFFFF;stroke:#000000;stroke-width:2;stroke-miterlimit:10;" d="M26.6,367.4c-0.7-1.8,1.4-6.2-1.2-6
			c0.5,2.8,0.5,5.3,0.1,7.7c3-1.7,5.7-2.8,7-3.4c1.1-1.2,2.1-2.6,2.6-4.3C29.9,361,31.1,367,26.6,367.4z"/>
		<path style="fill:#FFFFFF;stroke:#000000;stroke-width:2;stroke-miterlimit:10;" d="M246.5,358.9c3.2,10.9-5.5,15.8-10.9,21.8
			c-0.6-2.3,3.7-5.2-1.2-4.8c-0.6,8.9-3.1,16-6.9,21.7l1.8,0.4C233.9,383.4,251.9,374.2,246.5,358.9z"/>
		<path style="fill:#FFFFFF;stroke:#000000;stroke-width:2;stroke-miterlimit:10;" d="M171.6,444.7c-0.4,0.6-1.2,1.3-2.1,1.9
			c1.4-0.5,3.1-1,4.8-1.6C173.5,444.9,172.6,444.8,171.6,444.7z"/>
		<path style="fill:#FFFFFF;stroke:#000000;stroke-width:2;stroke-miterlimit:10;" d="M197,441.1c7.1-1,18,3.7,19.3-3.6
			c-4.2,2.4-9.6,0.8-14.7,0.2l-8.1,4.1C194.7,441.5,195.8,441.2,197,441.1z"/>
		<path style="fill:#FFFFFF;stroke:#000000;stroke-width:2;stroke-miterlimit:10;" d="M193.7,437.8c2.5-5.1,11.1-4.2,14.1-8.8
			c-9.4,0.2-13.3,6-18.4,10.6c0.3-0.1,0.5-0.2,0.7-0.2C190.8,439.1,192.1,438.6,193.7,437.8z"/>
		<path style="fill:#FFFFFF;stroke:#000000;stroke-width:2;stroke-miterlimit:10;" d="M182.5,495.5c-1.7,1.9-1,6.2-3.6,7.3
			c-5.9,2.1-4.1-1-8.5-2.4c0.6,4.6-0.5,7.5-3.6,8.5c-7.1-0.1-11.2-0.2-21.8-1.2c7.3-13.6,18.6-23.3,37.5-25.4
			c-0.9-1-2.1-1.9-3.1-2.9l-3.5,0.9l2.5-2.1c-1.1-1.7-1.5-3.7,0.4-6.8c-6.3,0.6-2.9,10.8-8.5,12.1c-7.2-1.5-10.9,6.8-14.5,4.8
			c1.5-3.8,2.4-8.1,3.6-12.1c-7.1,9-7.9,24.4-18.1,30.2c-5.6,0.1-11.8-0.5-15.7,1.2c-2.4-10.5,6.5-9.6,6-18.1c2.8,0.4,4.6-0.2,6-1.2
			c6.2-14.4,12.7-28.5,24.8-37c-8.1,1-12.4,8.6-12.4,8.6l-3-8.4c7.7-3.7,10.5-3.3,13.8-3.3c-0.5-0.2-1-0.6-1.5-1
			c12-15.8,37.1-18.4,50.8-32.6c7.7,0.8,11.7-2,19.3-1.2c0.6-5.9-11.2,0-10.9-2.4c0.4-2.5,1.7-3.9,3.5-5l-1.9,0.2
			c-10.7,9.9-25.8,15.5-39.1,22.9c1.7-7.6,9.7-8.8,18.1-9.7c0.7-2.7,4.1-8,0-8.5c-4.8,10.1-20.4,9.4-24.2,20.5
			c-10.4,2.5-14.3,11.4-21.8,16.9c-0.9-5.2-5.5-6.6-4.8-13.3c10.5-1.6,11.8-12.4,16.9-19.3c-8.1,1.2-6,12.6-12.1,15.7
			c-4.8-6.4,3.2-15.8,1.2-19.3c-3.1,3.6-2.1,16.7-8.5,13.3c2.2,26.8-31.8,23.8-48.3,27.8c5.9-15.5,11.1-31.6,33.8-30.2
			c1.3-3.2,4.8-4.1,6-7.3c-5.9,2.5-15,8.3-21.8,6c5.9-9,12.3-17.5,19.3-25.4c3.5-0.2,7.9,0.6,9.9-1.1l-16.8,1l4.5-3.4l1.9-0.1
			c1.2-3,0.8-7.6,3-9.7c15.4-1.1,26.1-7,44.7-4.8c2-2.9,3.3-6.3,7.3-7.3c26,0.3,32.8-18.8,54.4-23c-0.2-3.8,3.2-4,2.4-8.5
			c-4.5,7.5-16.1,14.5-25.4,13.3c1.4-3.4,6.5-12,1.2-14.5c-0.7,9.4-2.8,17.3-7.3,23c-5.9-1.4-7.6-6.9-12.1-9.7
			c0.6,6.7,6.6,7.9,9.7,12.1c-18,2.5-28,13.1-49.5,12.1c1.2-3.6,4.9-4.8,6-8.5c-7.7,5.6-17.4,15.6-30.2,12.1
			c0.2-14.4,15-13.8,23-14.5c-2-1.6-7.7,0.4-7.3-3.6l9.7-10.9c1.5-1.4,1-5-2.4-4.8c1.4,10.7-10.9,14-15.7,14.5
			c3.1-10.6,13.9-13.5,19.3-21.8c-4-2.7-5.5,7.3-13.3,4.8c-4.4,10.9-9.4,21.2-16.9,29l-3.6-4.8c-3.5-10.7-15-18.2-12.1-31.4
			c-2.1,0.1-3.8-0.3-4.8-1.2c-3.2,6.3,6.3,16,3.6,21.8c-11.3-1.6-19.4-6.4-18.1-20.5c-9.4,6.7-17.1,15.1-26.6,21.8
			c-3.1-0.1-1.7-4.7-4.8-4.8c3.9,7.1-4.4,13.5-7.3,13.3c2.8-12.9,13.7-17.7,16.9-30.2c-5.1,5.8-9.5,12.3-14.5,18.1
			c0.1-0.9,0.1-1.6,0-2.3c-1.3,1.2-2.6,2.3-3.7,3.1c-0.1,5.6,1,12.5-3.6,13.7c-0.9-3.1-2.7-6.2-4.6-9.4c-0.6,0.3-1.2,0.6-1.8,0.9
			c4.1,6.8,6.9,13.8,2.8,23c-5.8-3.7-2.2-10.4-1.2-16.9c-4.4-0.8-4.6,2.6-8.5,2.4c0.2-1.1,0.6-3.7,0.8-5.3c-0.3,0.1-0.6,0.3-0.8,0.4
			c0,0,0,0,0,0c-1.4,1.8-1.5,4.9-3.6,6c-4-0.8-5.6,0.9-8.4,1.2c-2.7,1.9-6.5,4.4-9.8,6.7c-5.5,8.1-15.3,14.4-21.4,21.9v6.1
			c7.2-7.9,11.8-18.4,21.5-23.8c-1.1,14-13.7,16.5-21.5,23.9v8.3c0.7-1.1,1.3-2.2,2.1-3.2c7.6,0.9,6.8,10.2,16.9,8.5
			c5.1,8.2,9.9,16.7,15.7,24.2c-2.7,7.4-1.2,19-10.9,19.3C27,473.4,12,475.2,3.6,478.5c1.3-2.7,2-6.1,3.6-8.5
			c-4.7-0.7-4.6,1.3-7-4.1v5.4c0.9,2.1,2,4.2,2.1,6c-0.4,1.8-1.2,3.4-2.1,4.7v3.1c7.9-4.6,16.5-8.7,23.9-13.9
			c-0.5,12.8-9.7,27.3-13.3,41.1c-3.3-0.4-2.2-5.1-4.8-6c0.1,1.8,0.5,4.2,0.7,6.7h9.8c2.4-4.2,4.8-8.8,5.2-13.9
			c7.7-1.6,13.1-5.4,16.9-10.9c-7.7,0.4-7.5,8.6-15.7,8.5c4.8-10.1,5.9-24,12.1-32.6c7.4,1,22.3-3.5,26.6,2.4
			c0.9,5.3-3.9,4.9-4.8,8.5c-3.6,0-4.1-3.1-7.3-3.6c7.5,5,6.3,16.4,4.8,23c-4.2-0.6-6.4-3.3-9.7-4.8c-0.9,8.5-10.2,16-19.4,23.6h6
			c4.9-2.2,10.2-4,15.8-5.5c-1.3,2-2.8,3.8-4.4,5.5h12.4c4.6-3.7,11.8-7.1,17.4-9.1c0.1,4.4-1.5,7.2-4,9.1h4.2
			c2.6-3.2,4.5-7,3.4-13.9c7-7.8,12.1-2.5,10.9,9.7c-3.2,0.7-5.1,2.6-7.3,4.2h4.3c1.1-0.5,2.4-0.6,3.3,0h9.9
			c-6-12.5-7.4-32.5,0.7-42.9c10.3,4.2,11.6,17.4,18.1,25.4c-3.9,4.6-5,11.9-7.9,17.5h2c7.7-12.7,15.4-28.9,16.8-47.8
			c7.4-1.9,14.7-10.2,20.5-9.7c3.5,8.3-8.1,20.3-10.9,30.2c-11.3,3.6-13.6,16.1-17.3,27.2h2.1c9.6-8.5,33.5,0.5,44.2-3
			c0,1.2,0.3,2.2,0.6,3h3.2c-0.1-0.2-0.1-0.4-0.2-0.6C170.9,504.8,187.5,505.8,182.5,495.5z M35.1,508.8c2.8-7.4,9.8-15.3,19.3-12.1
			C53.3,506,42.5,505.8,35.1,508.8z M76.1,361.3C70.7,375.6,73,391,61.6,400C50.1,387.9,59.3,362.9,76.1,361.3z M54.4,395.2
			c7.8,11.1,11.8,26.1,14.5,42.3c-5.4,1.4-11.4,9.6-16.9,3.6c1.2-8,8.8-9.7,9.7-18.1c-6.6,1.9-5.9,11-12.1,13.3
			C46.6,426.9,49.4,404.3,54.4,395.2z M45.9,402.4c-1.9,5,0,24.2-7.3,27.8C33.7,420.2,38.2,406.7,45.9,402.4z M29,400
			c1.4-3.1,5.4-3.5,9.7-3.6c2,4.1,1.4,10.4-1.2,13.3C34.1,407,32.1,402.9,29,400z M43.5,436.2c3.9-1,3.7,1.9,6,2.4
			c-0.1,4.3-1.9,7-2.4,10.9c-3.7,0.9-3.6-2.1-7.3-1.2C39.8,443,43.2,441.2,43.5,436.2z M50.8,443.5c4.2,5.1,12.5,0.7,15.7-2.4
			c6.9,6.5-12.5,5.5-16.9,8.5C48.6,446.1,51.3,446.4,50.8,443.5z M42.3,401.2c-1.7-0.7-0.2-4.7-2.4-4.8c1.8-5.8,8.3-7,8.5-14.5
			C57.6,387.7,51,399.8,42.3,401.2z M35.1,372.2c2.5,4.9-8.5,6.8-9.7,12.1C20.9,377.3,30.4,374,35.1,372.2z M42.3,378.2
			c-0.8-3.6-2.6,1.2-4.8,0c1.9-4.5,3.8-9,10.9-8.5c1.2,21-16.1,29.8-33.8,27.8C24.2,391.6,27.9,379.5,42.3,378.2z M18.1,406
			c-5,1.8,0.7,6.5-2.4,10.9c-5.3-1.1-6.2-6.7-10.9-8.5c3.2-10,11.2-7.7,23-8.5c7.5,9.4,9.1,29.2,8.5,39.9
			C28.5,430.6,18.1,419.4,18.1,406z M35.1,461.6c2-2.9,2.7-7,3.6-10.9c4.2-1,4.6,1.8,8.5,1.2C45.2,457.3,42.8,462.1,35.1,461.6z
			 M54.4,461.6c-4,2.1-5.4-0.6-10.9,0c1.7-2.7,4.9-4,6-7.3C51.8,456.1,54.9,457.1,54.4,461.6z M53.2,453.2c-0.1-4.5,5.4-3.5,9.7-3.6
			c0.9,5.3-2.6,6.3-6,7.3C57.2,454,53.3,455.4,53.2,453.2z M66.5,450.7c3.7,4.2-1.1,10.1-2.4,13.3C54.9,460.2,64.6,456.5,66.5,450.7
			z M65.3,472.5c4.7,1,7.1,4.2,9.7,7.3c-3.1,2.1-9.5,1-10.9,4.8C60.8,481.6,65.4,476.3,65.3,472.5z M61.6,499.1
			c-0.9-10.6,10.6-18.7,18.1-13.3C76.2,492.7,72,498.9,61.6,499.1z M83.4,476.1c-8.3-0.2-11.6-5.3-15.7-9.7c0.2-3.4,2.2-5,2.4-8.5
			C79.1,459.5,84.2,464.8,83.4,476.1z M71.3,449.5c-2.4-11.1,4-17.9,7.3-26.6c8.8-2.5,16.5-6.1,18.1-15.7
			c8.6-2.7,18.9-3.6,19.3-14.5c-4.1,0.6-4,9.6-8.5,6c-0.5-5.1-0.6-10.7-2.4-14.5c-4.2,5.5,6.4,18.2-3.6,19.3
			c-4.9,0.4,0.2-1.7-1.2-4.8c-5.8,0.7-3.2,9.7-8.5,10.9c1.2-10.7-9.2-17.7-2.4-26.6c-13.4,7.2,6.8,21.8,0,33.8
			c-10.5,0.7-14.4,8.1-18.1,15.7c-2.6-9.9-5.7-19.2-9.7-27.8c0.4-9,11.9-11.1,13.3-19.3c0.5-3-1.7-6.6-1.2-9.7
			c2.8-15.8,10.1-26.2,23-33.8c2.3,11,11.3,15.3,23,16.9c1.9,9.2,11.8,18.8,9.7,30.2c-2.5,13.8-26.1,34-35,47.1
			C89.3,443.6,83.7,457.6,71.3,449.5z M101.5,468.9c3.5,0.1,7.9-0.7,9.7,1.2C110.5,475.1,101,474.9,101.5,468.9z M118.4,494.3
			c-7.5-6.2-10.6-21.9-3.6-25.4C128.8,461.8,120.5,485.6,118.4,494.3z M93.1,473.7c-2.8-3.6-1.2-13.2,1.2-15.7
			c13.1-0.3,21.5-9.9,33.8-7.3C132.9,477.3,95.7,456.4,93.1,473.7z M128.1,461.6c0.2-13.5,14-13.4,16.9-24.2
			c2.6,2.6,3.4,7.1,4.8,10.9C141.4,451.6,137.5,459.3,128.1,461.6z"/>
		<path style="fill:#FFFFFF;stroke:#000000;stroke-width:2;stroke-miterlimit:10;" d="M220.5,405.9l8.2-5.2c0.1-0.7,0.3-1.3,0.5-2
			l-2.2-0.2C225,401.3,222.9,403.7,220.5,405.9z"/>
		<path style="fill:#FFFFFF;stroke:#000000;stroke-width:2;stroke-miterlimit:10;" d="M39.9,339.6c0.2,1.1,0.4,2.2,0.8,3.3
			c0.7-0.3,1.4-0.7,2-1C41.9,340.7,40.9,339.9,39.9,339.6z"/>
		<path style="fill:#FFFFFF;stroke:#000000;stroke-width:2;stroke-miterlimit:10;" d="M271.1,483.3c-1.8,0.7-5.6,0.3-5.2-1.1
			c1.6-2.1,2.9-4.4,4.2-6.8c-1.1,0-2.2-0.1-3.3-0.2c-7.2,10.4-11.6,23.5-20.2,32.4c-2.3-0.1-0.8-4-3.6-3.6c0,2.8,0,5.6,0,8.4
			c0.3,0.2,0.5,0.5,0.8,0.7h2.4C251.8,500.9,264.8,491.4,271.1,483.3z"/>
		<path style="fill:#FFFFFF;stroke:#000000;stroke-width:2;stroke-miterlimit:10;" d="M61.6,349.2c-0.3,0.5-0.6,1.1-0.8,1.8
			c0.5-0.3,1.2-0.8,2-1.4C62.5,349.4,62.1,349.3,61.6,349.2z"/>
		<path style="fill:#FFFFFF;stroke:#000000;stroke-width:2;stroke-miterlimit:10;" d="M265.9,503.9c0.7,3.3,0.6,6.3,0,9.1h2.3
			C269.5,508.8,271.1,504.9,265.9,503.9z"/>
		<path style="fill:#FFFFFF;stroke:#000000;stroke-width:2;stroke-miterlimit:10;" d="M273.1,467.7c-2,1.9-3.8,3.9-5.4,6.2
			c0.8,0.3,1.7,0.7,2.5,1C271.4,472.6,272.3,470.2,273.1,467.7z"/>
		<path style="fill:#FFFFFF;stroke:#000000;stroke-width:2;stroke-miterlimit:10;" d="M72.5,503.9c-5.6,2-12.8,5.4-17.4,9.1h13.4
			C71,511.1,72.6,508.4,72.5,503.9z"/>
		<path style="fill:#FFFFFF;stroke:#000000;stroke-width:2;stroke-miterlimit:10;" d="M14.6,340.5l-1.1,2.6c2.1-2.7,4.1-6.2,5.4-9
			C15.3,339.3,14.6,340.5,14.6,340.5z"/>
		<path style="fill:#FFFFFF;stroke:#000000;stroke-width:2;stroke-miterlimit:10;" d="M17.7,343.2l0.8,0.2c0.5-0.7,0.7-1,0.7-1
			l8.6-14.5c27.2-42.1,23.9-47.7,23.9-47.7s6.7-5.9,9.5-11.1c2.8-5.1,12.2-9.6,12.2-9.6s-6.4,1.8-14.9,10.9
			c-13.8,14.7-8.4,14.8-10.3,18.8c-2.2,4.9-14.1,23.2-22.8,35.5l-1.5,6.6C24.1,331.3,21.1,336.8,17.7,343.2z"/>
		<path style="fill:#FFFFFF;stroke:#000000;stroke-width:2;stroke-miterlimit:10;" d="M8.2,370.4c0,0,4.1-8.9,3.5-12.9
			c-0.4-2.7,3-8.4,5.4-12c-0.2,0-0.4-0.1-0.6-0.1c-1.8,3.3-3.5,6.7-5,9.7c-3.4,7-3.2,14.4-3.2,14.4l-5.8,1.7
			c0.4-1.6,0.7-3.3,0.9-4.9c-1,1.8-2,3.2-2.8,3.7c-0.1,0.1-0.3,0.2-0.4,0.2v9.8c1.5-2,3.4-3.9,4-5.1C5.5,372.6,8.2,370.4,8.2,370.4z
			"/>
		<path style="fill:#FFFFFF;stroke:#000000;stroke-width:2;stroke-miterlimit:10;" d="M14.5,383.1c1.4-1.2,4.1-3.2,7.2-5.3
			c3.3-2.3,7.1-4.9,9.8-6.7c1.7-1.2,3.1-2.1,3.7-2.5c0.9-0.7,4.4-2.6,8.4-4.8c0.3-0.1,0.6-0.3,0.8-0.4c2-1.1,4.1-2.2,6-3.2
			c0.6-0.3,1.2-0.6,1.8-0.9c2.7-1.4,4.9-2.4,5.6-2.7c0.5-0.2,1.5-0.8,2.6-1.6c1.1-0.8,2.3-1.9,3.7-3.1c4-3.6,8.5-8.2,9.6-10.2
			c1.9-3.4,7.2-9.4,7.2-9.4l9.7-8.8l6.2-7.1l-0.1,0.1l-0.6-0.2c-5.4,3.7-20.6,14.4-24.2,22.1c-2.7,5.6-6.5,9.3-9.1,11.3
			c-0.8,0.6-1.4,1-2,1.4c-0.7,0.4-1.1,0.7-1.1,0.7l-9.3,4.8l-1.8,0.9l-15.3,7.9c0,0-0.3,0.1-0.9,0.4c-1.3,0.6-4,1.7-7,3.4
			c-5.1,2.8-11.2,6.9-13.9,11.8c-2.8,5.1-7.6,7-11.3,7.6v7.4l0.1,0.1C11.1,390.2,9.1,387.7,14.5,383.1z"/>
		<polygon style="fill:#FFFFFF;stroke:#000000;stroke-width:2;stroke-miterlimit:10;" points="0.3,363.8 0.3,364.2 0.4,363.9 		"/>
		<path style="fill:#FFFFFF;stroke:#000000;stroke-width:2;stroke-miterlimit:10;" d="M16.5,345.4c0.2,0,0.4,0.1,0.6,0.1
			c5.7,0.8,15.7,2.7,15.7,2.7s4.4-1.4,8.6-3.2c0.9-0.4,1.7-0.8,2.5-1.2c1.9-1,3.6-2.1,4.2-3.2c2.3-3.7,17.4-11.7,17.4-11.7
			s-14.3,6.5-17.6,9.7c-1,1-3,2.3-5.3,3.5c-0.7,0.4-1.3,0.7-2,1c-3.9,2-7.8,3.6-7.8,3.6l-14.3-3l-0.8-0.2
			C17.3,343.9,16.9,344.6,16.5,345.4z"/>
		<path style="fill:#FFFFFF;stroke:#000000;stroke-width:2;stroke-miterlimit:10;" d="M8.3,369.4c0,0-0.2-7.4,3.2-14.4
			c1.4-2.9,3.2-6.3,5-9.7c0.4-0.7,0.8-1.5,1.2-2.2c3.4-6.4,6.4-11.9,6.4-11.9l1.5-6.6l5.1-22.5c0,0,1.8-8.5,9.8-15.2
			c8-6.7,16.1-31.3,16.1-31.3l-6.4,9.4l-6,11.6c0,0-4.4,6.7-7.2,9.4c-2.8,2.7-10.3,16.5-10.5,19.2c-0.2,2.7-4.9,22.4-5.9,25.1
			c-0.3,0.7-0.9,2.1-1.7,3.7c-1.3,2.8-3.3,6.3-5.4,9c-1.5,1.9-3.1,3.4-4.6,3.8c-4.2,1.1-4,10-5.4,19.3c-0.2,1.6-0.5,3.3-0.9,4.9
			L8.3,369.4z"/>
		<path style="fill:#FFFFFF;stroke:#000000;stroke-width:2;stroke-miterlimit:10;" d="M147.2,451.4l3,8.4c0,0,4.3-7.6,12.4-8.6
			c1.1-0.1,2.4-0.2,3.7,0c10.4,1.3,25.6-8.6,25.6-8.6l1.8-0.9l8.1-4.1l16.8-8.5c0,0,7.7-4,18.1-2.1c10.4,1.9,34.6-7.5,34.6-7.5
			l-11.4,1.1l-12.9,2.8c0,0-8,0.9-11.9,0.4c-3.9-0.5-19.5,2.6-21.6,4.2c-1.7,1.3-13.3,7-19.6,9.9c-1.7,0.8-3,1.3-3.6,1.5
			c-0.2,0.1-0.4,0.1-0.7,0.2c-2.6,0.9-9.4,3.4-15.2,5.4c-1.7,0.6-3.4,1.2-4.8,1.6c-1.4,0.4-2.5,0.8-3.4,1c-2.1,0.5-3.7,0.6-5.1,0.6
			C157.7,448.1,154.9,447.7,147.2,451.4z"/>
		<path style="fill:#FFFFFF;stroke:#000000;stroke-width:2;stroke-miterlimit:10;" d="M219.3,472.5c0,0,2.2-0.1,4.6,2.2
			c2.4,2.3,15.5-4,15.5-4s-10.8,2.8-12.6,2.5c-1.7-0.3-7.8-1-11.8-0.8c0.2,0.6,0.5,1.1,0.8,1.6L219.3,472.5z"/>
		<path style="fill:#FFFFFF;stroke:#000000;stroke-width:2;stroke-miterlimit:10;" d="M179.4,479.3l8.2-2l13.8-3.5l5.6,4.2l7.9-3.5
			c-0.2-0.7-0.4-1.3-0.6-2c-1.6,0.4-6.1,3.3-6.1,3.3s-5.6-4.2-9.5-3.5c-3.9,0.7-12.1,3.3-12.1,3.3l-5.7,0.4l-2.5,2l-2.5,2.1
			L179.4,479.3z"/>
		<path style="fill:#FFFFFF;stroke:#000000;stroke-width:2;stroke-miterlimit:10;" d="M62.6,316.2c0,0,0.1,0,0.2,0
			C62.6,316.2,62.5,316.2,62.6,316.2z"/>
		<path style="fill:#FFFFFF;stroke:#000000;stroke-width:2;stroke-miterlimit:10;" d="M96.8,316.3l5.7-3l-6.2,1.4l-17.8-5.1
			c0,0-3.3-0.6-9.3,3.1c0,0-5.3,3.2-6.4,3.5c0.9,0.1,4.1,0.6,4.1,0.6l4.8-4.9l5.8-1.2l18.6,5.6l0.6,0.2L96.8,316.3z"/>
		<path style="fill:#FFFFFF;stroke:#000000;stroke-width:2;stroke-miterlimit:10;" d="M220.3,406.1L220.3,406.1l2-0.2l17-2l22.4-2.7
			l8,7.7l20.5-6.1c0,0,3.5,0.2,6.8,4.4c3.3,4.2,25.2-3.2,25.2-3.2s-17.6,2.3-20.3,1.5c-2.7-0.8-13.1-3.4-19.3-3.8
			c-2.1-0.1-10.7,4-10.7,4s-8-7.7-14.3-7.5c-6.3,0.3-19.7,2.8-19.7,2.8l-9-0.5l-0.2,0.1l-8.2,5.2L220.3,406.1z"/>
		<polygon style="fill:#FFFFFF;stroke:#000000;stroke-width:2;stroke-miterlimit:10;" points="128.4,396.2 145.2,395.3 153,394.8 
			165.8,402.9 180.6,398.6 200,395.8 226.9,398.5 229.1,398.8 236,399.5 229.3,398 227.6,397.6 216.5,395.1 199.3,392.5 
			180.4,396.5 166.2,400.5 154.1,392.2 134.8,392.7 133,392.8 		"/>
		<path style="fill:#FFFFFF;stroke:#000000;stroke-width:2;stroke-miterlimit:10;" d="M2.6,187.2c-0.7,0.2-1.5,0.3-2.3,0.4V202
			c2.9-0.1,5.8-0.8,8.7-2.2C8.4,194.3,2.3,193.6,2.6,187.2z"/>
		<path style="fill:#FFFFFF;stroke:#000000;stroke-width:2;stroke-miterlimit:10;" d="M28.2,202.3c5,3.2,8.7-0.7,12.3-2.8
			C35.2,197.4,30.5,197.9,28.2,202.3z"/>
		<path style="fill:#FFFFFF;stroke:#000000;stroke-width:2;stroke-miterlimit:10;" d="M34.3,236.6c-2-3.6-10.9-5.8-7.8-10.2
			c3.6,3.7,6.9,7.6,12.7,9.3c7.3-11.2,31.9-2.4,34-19.5c-17.5,4.7-20-13.6-37-8.6c7.1,5.7,0.6,15.5-1.4,20.5
			c-4.9-7.4,7.5-14.8-2.2-20.7c-2.7,3-2.3,9.5-6.8,10.4c0.3-5.3,3.8-6.9,4.4-11.8c-9.6-5.5-21.4-5.3-30.1-0.1v53.2
			C9.8,249.5,27.5,249.3,34.3,236.6z"/>
		<path style="fill:#FFFFFF;stroke:#000000;stroke-width:2;stroke-miterlimit:10;" d="M110.6,166.7c-0.3,0.4-0.6,0.7-0.9,1.1
			C110.3,167.6,110.7,167.3,110.6,166.7z"/>
		<path style="fill:#FFFFFF;stroke:#000000;stroke-width:2;stroke-miterlimit:10;" d="M18.5,149.6c-6.3,0.2-3.6,10.6-9.3,11.5
			c-3.6-1-6.5,0.6-8.9,2.1v2.8c5.9-3.1,12.8-5,21-5.3C18.8,157.7,14.4,155.1,18.5,149.6z"/>
		<path style="fill:#FFFFFF;stroke:#000000;stroke-width:2;stroke-miterlimit:10;" d="M38.6,120.7c7.1-0.6,17.7,4.9,19.5-2.3
			c-6.9,3.3-15.7-3.5-23-0.4c2.4-6,11.6-4,15.1-8.7c-16.9-0.7-17.2,17.6-37.2,13.2c-1.9,2.2-8.8,5.4-12.2,1.6
			c13-15,38.3-15.9,52.9-29.1c7.6,1.4,11.8-1.2,19.4,0.1c1-5.8-11.2-0.8-10.7-3.2c1.1-5.2,6.6-5.5,10.2-7.8
			c2.9-17.1,25.8-25,21-42.2c2.4,11.1-6.6,15.4-12.3,21c-0.4-2.3,4.1-4.9-0.9-4.9C75.8,91,47.3,96.4,23.8,107.5
			c2.2-7.4,10.3-8.1,18.7-8.4c0.9-2.7,4.6-7.7,0.6-8.4c-5.4,9.8-21,8-25.5,18.9c-7.8,1.3-12.3,6.4-17.3,11v10.1
			c1.2-0.9,2.5-1.8,3.9-2.6C14.8,127.6,26.7,121.6,38.6,120.7z"/>
		<path style="fill:#FFFFFF;stroke:#000000;stroke-width:2;stroke-miterlimit:10;" d="M0.3,103.1v3.2c3.3-3.9,5.4-9.2,8.7-13.1
			C3.6,93.6,2.4,98.8,0.3,103.1z"/>
		<path style="fill:#FFFFFF;stroke:#000000;stroke-width:2;stroke-miterlimit:10;" d="M14.3,16c-3.8-3-6,6.9-13.6,3.9
			c-0.1,0.2-0.2,0.5-0.4,0.7v6.7C5,23.6,10.6,20.9,14.3,16z"/>
		<path style="fill:#FFFFFF;stroke:#000000;stroke-width:2;stroke-miterlimit:10;" d="M8.8,42.3c-1.9-1.7-7.7-0.1-7-4.1
			c11.9-4.6,21.3-13.7,36.8-7.2c-0.4-5-8.5-3.2-10.4-6.8c1.2-4.7,12.1-3.7,9.1-9.1C27.2,17.4,21,24.2,12.2,28c1.6-1.3,1.3-4.9-2.1-5
			c0.4,7.1-4.8,10.6-9.8,12.2v7.3C3.4,42.2,6.4,42.3,8.8,42.3z"/>
		<path style="fill:#FFFFFF;stroke:#000000;stroke-width:2;stroke-miterlimit:10;" d="M28.4,57c2.1-2.7,3.7-6.1,7.7-6.7
			c26,2,34-16.5,55.8-19.2c0.1-3.8,3.5-3.8,3-8.3c-5,7.2-17,13.4-26.2,11.5c1.6-3.3,7.3-11.6,2.2-14.4c-1.3,9.3-4,17.1-8.8,22.4
			c-5.8-1.8-7.1-7.4-11.4-10.5c0.1,6.7,6,8.4,8.8,12.7c-18.1,1.3-28.8,11.1-50.3,8.7c1.4-3.6,5.2-4.4,6.6-8c-4.5,2.8-9.7,7-15.6,9.3
			v2.7C8.7,56,17.2,54.9,28.4,57z"/>
		<path style="fill:#FFFFFF;stroke:#000000;stroke-width:2;stroke-miterlimit:10;" d="M8.7,257.9c10.9-6.8,25.6-8.6,35.2-18.2
			c6.4,4.2,10.5,10.5,14.6,16.7c1.3-5.7-3.9-5.6-2.9-11.1c4.1-3,7.9,1.5,13.3,0.9c-2.2-6.1-12-3.7-16.8-2.4
			c-2.1-3.1-6.5-4.1-6.7-8.9c6.5-5.1,18.1-4.4,26-7.9c2-3.3,2.6-8.2,6.7-9.2c5,1.7,13.1-0.4,17.9,3.6c1-5.4-8.2-1.9-6.7-7.7
			c6.6-7.6,22.6-4.4,26.5-15.2c-5.8-0.1-5.1,7.2-12.5,5.2c-0.8-5.9,7.8-13.8-0.1-15.8c2,15.1-10.8,23.8-21.3,28.8
			c-6.4-3-13.3-5.7-20.4-2.6c-3-8-16.6-6.7-23.5-11.3c18.9,3.1,35.1-1,50.9-0.2c0.8-4.5-6.2-2.2-6.9-5.3c6-12.6,20.6-21.7,27.8-29.7
			c-1.8,0.6-5.6-0.1-5.1-1.5c3.4-3.9,6.1-8.6,8.2-14c-12.2,9.8-17.5,27.5-29.2,38c-2.3-0.3-0.6-4-3.4-3.9c-0.2,2.8-0.4,5.6-0.6,8.4
			c-11,12.6-30.5,3.9-47.3,0.4c-3.7,3.2-13.4,8.6-18.3,2.4c-0.6-3.8,3.5-2.1,2.8-5.9C12.4,194,7.6,197,6,189.9
			c2.2-7.4,18.7-5.4,14.4-16c-1.8,1.8-1.4,6.1-4.1,7c-6,1.7-4-1.2-8.3-3c0.3,4.6-1,7.5-4.2,8.2c-1.3-0.1-2.4-0.2-3.6-0.3v1.8
			c0.8-0.1,1.6-0.2,2.3-0.4c-0.3,6.3,5.8,7,6.4,12.6c-2.9,1.4-5.8,2-8.7,2.2v4c8.6-5.2,20.5-5.3,30.1,0.1c-0.6,4.9-4.1,6.5-4.4,11.8
			c4.5-0.9,4.1-7.4,6.8-10.4c9.7,5.9-2.7,13.3,2.2,20.7c2-5,8.5-14.8,1.4-20.5c17-5,19.5,13.3,37,8.6c-2.1,17.1-26.8,8.3-34,19.5
			c-5.7-1.8-9.1-5.7-12.7-9.3c-3.1,4.4,5.7,6.7,7.8,10.2c-6.8,12.7-24.5,12.9-34,22.5v8.3c0.2-0.1,0.3-0.2,0.5-0.3
			C4,264.5,5,260.2,8.7,257.9z M28.2,202.3c2.3-4.4,7-4.9,12.3-2.8C36.9,201.6,33.2,205.5,28.2,202.3z"/>
		<path style="fill:#FFFFFF;stroke:#000000;stroke-width:2;stroke-miterlimit:10;" d="M345,497.8"/>
		<path style="fill:#FFFFFF;stroke:#000000;stroke-width:2;stroke-miterlimit:10;" d="M341.6,464c-2,9.2-11.9,18.7-9.9,30.1
			c1,5.5,5.3,12.1,10.7,18.9"/>
		<path style="fill:#FFFFFF;stroke:#000000;stroke-width:2;stroke-miterlimit:10;" d="M345,497.8"/>
		<path style="fill:#FFFFFF;stroke:#000000;stroke-width:2;stroke-miterlimit:10;" d="M342.9,461.6c-2.6-5.8,6.9-15.4,3.8-21.7
			c-1.1,0.9-2.7,1.3-4.8,1.2c2.8,13.3-8.7,20.7-12.4,31.3c-0.6-7-4.6-23.1,1.4-25.4c-2.2-3.1-8.5,1.2-10.8-6.1
			c-4.6,4.6,13.9,13.1,2.3,16.9c5.2,4.6,4.4,10.9,3.4,19.4c-7.4-7.9-12.4-18.2-16.7-29.2c-7.8,2.4-9.2-7.6-13.2-5
			c5.4,8.3,16.1,11.3,19.1,21.9c-4.8-0.5-17.1-4-15.6-14.6c-3.4-0.2-4,3.4-2.5,4.8c-8.5-4.4-14.1-11.7-24-14.7
			c-3.4,5.1,7.5,4.9,8.4,9.7c-2.2,3.4-10.2,1-10.9,5.9c16-5.3,24.7,4.5,36.2,10c0.4,4.1-5.3,2-7.3,3.6c8,0.8,22.7,0.3,22.8,14.7
			c-12.9,3.4-22.4-6.7-30.1-12.4c1.1,3.7,4.8,4.9,6,8.5c-11.6,0.4-19.8-2.5-27.7-5.6c-0.8-0.3-1.7-0.7-2.5-1
			c-5.9-2.4-11.9-4.8-19.2-5.9c3.1-4.1,9.1-5.3,9.8-12c-4.5,2.7-6.3,8.2-12.2,9.6c-4.4-5.7-6.4-13.6-7-23
			c-5.3,2.4-0.3,11.1,1.1,14.5c-9.3,1.2-20.8-5.9-25.3-13.5c-0.8,4.4,2.6,4.7,2.3,8.5c20.2,4.1,27.2,21.2,49.5,23.2
			c1.1,0.1,2.2,0.2,3.3,0.2c0.5,0,0.9,0,1.4,0c3.9,0.9,5.3,4.4,7.2,7.3c18.7-2,29.2,4,44.7,5.2c2.5,2.4,1.5,8.1,3.5,10.9
			c-4.7,0.2-8.9,0-12.1-1.3c-0.1,4.9,6.3,3.4,10.8,3.7c3.3,3.8,6.5,7.7,9.5,11.7h7.3c-5.4-6.8-9.8-13.4-10.7-18.9
			c-2-11.5,8-20.9,9.9-30.1"/>
		<path style="fill:#FFFFFF;stroke:#000000;stroke-width:2;stroke-miterlimit:10;" d="M226.7,479.8c-4.9-0.4-0.7,2.5-1.3,4.8
			c-3-3.4-7.2-6.5-9.5-10.6c-0.3-0.5-0.6-1.1-0.8-1.6c-1.1-2.7-1.5-5.8-0.3-9.6c-1.3,3.5-1.3,6.7-0.5,9.7c0.2,0.7,0.4,1.3,0.6,2
			c3.9,10.5,16.4,19.1,17.6,31.9c3,2.2,7.3,3,9,6.5h2.3c-0.3-0.2-0.5-0.4-0.8-0.7C234.1,504.9,227.6,495.1,226.7,479.8z"/>
	</g>
</g>
</svg>
