<?xml version="1.0" encoding="utf-8"?>
<!-- Generator: Adobe Illustrator 22.1.0, SVG Export Plug-In . SVG Version: 6.00 Build 0)  -->
<svg version="1.1" id="Layer_1" xmlns="http://www.w3.org/2000/svg" xmlns:xlink="http://www.w3.org/1999/xlink" x="0px" y="0px"
	 viewBox="0 0 90.3 90.8" style="enable-background:new 0 0 90.3 90.8;" xml:space="preserve">
<style type="text/css">
	.st0{fill:none;}
	.st1{fill:url(#SVGID_1_);stroke:#FF0000;stroke-width:0.3543;}
	.st2{fill:url(#SVGID_2_);}
	.st3{fill:url(#SVGID_3_);}
	.st4{fill:url(#SVGID_4_);}
</style>
<pattern  y="90.8" width="90.3" height="90.8" patternUnits="userSpaceOnUse" id="g" viewBox="0 -90.8 90.3 90.8" style="overflow:visible;">
	<g>
		<rect y="-90.8" class="st0" width="90.3" height="90.8"/>
	</g>
</pattern>
<pattern  y="90.8" width="90.3" height="90.8" patternUnits="userSpaceOnUse" id="h" viewBox="0 -90.8 90.3 90.8" style="overflow:visible;">
	<g>
		<rect y="-90.8" class="st0" width="90.3" height="90.8"/>
	</g>
</pattern>
<pattern  y="90.8" width="90.3" height="90.8" patternUnits="userSpaceOnUse" id="i" viewBox="0 -90.8 90.3 90.8" style="overflow:visible;">
	<g>
		<rect y="-90.8" class="st0" width="90.3" height="90.8"/>
	</g>
</pattern>
<g transform="translate(3.7367 -942.76)">
	<pattern  id="SVGID_1_" xlink:href="#g" patternTransform="matrix(0.68 0 0 -0.8 -2584.8408 -14401.0811)">
	</pattern>
	<path class="st1" d="M15.2,992.8l-1.7,3.4c-2.5-1.7-3.6-4.2-4.9-6.6l-0.6,4.2c-2.6-3.9-2.6-7.9-3.1-11.4c-1.4,1.7-1.7,3.2-1.8,4.7
		c-1.2-3.2-1.3-7.1-0.6-11.1l-2.5,1.4c1.1-3.9,2.2-7.8,5.3-11.3l-4.3,2c1.4-2.9,2.8-5.8,7-7.9c-0.6-0.8-1.3-1.2-2.3-1.2l-3.1,0.8
		c1.9-3,5.4-4.1,9.5-4.7l-0.1-3.1c-0.2-0.9-1.1-1.1-1.8-1.5c0.7-0.3,0.9-0.8,2.5-0.6l4.5,1l4.4-1.8c1.9-0.3,4,0,6.4,1l-0.3-1.8
		l-2-0.7l-3.3,0c1.2-0.5,0.8-1.3,4.8-1.6c3.6,0.4,5.3,2.7,7.6,4.4c1.9-1.7,3.9-2.9,6.3-3.3c2.6,0,4.8,0.4,6.4,1.3
		c-2.3,0.1-4,0.4-5.2,0.9c-1.5,0.5-2.4,1-3.1,1.5c2.5-0.2,4.9,0.2,7.2,0.6c2.1,0.8,3.8,1.8,4.6,3.2c-1.3,0.5-3,0.6-4.9,0.2
		c3.2,1.6,5.5,3.7,7.3,6.1c-1.6-0.7-3.3-1.3-4.7-1.1c2.3,2.8,4.4,5.6,4.4,8.5l-2.5-1.9l-1.8,0.4c1.4,1.6,1.8,3.1,2.4,4.7
		c0.8,2.4,1.3,4.8,1,6.9l-2.6-4.3c-0.1,1.8-0.3,3.6-1.2,4.7l1.4,2.5c1.5,2,1.1,3.9,0.7,5.2l-1.8,3.7l-1.7-3.9
		c-1.4,4.3-3.8,8.7-5.7,11c0-1.4,0-3-0.5-3.6c-1.5,4-3.4,5.4-5.2,7.8l-0.3-2.2c-0.8-0.8-1.3-0.5-1.7-0.2c-1,0.8-2.2,1.9-2.8,2
		c-2.1-0.2-3.7-1-5.2-1.8c-1.4-0.8-2.2-2.1-3.1-3.3c0.2,1.7,0,3,0.6,5.3c-3.4-1.9-4.7-3.4-5.6-4.9L15.2,992.8z"/>
	<path shape-rendering="auto" image-rendering="auto" color-rendering="auto" d="M40.6,963.6c-0.3,0.2-0.7,0.9-0.6,1.8
		c0.2,0.9,1.1,1,1.3,1.3c0.6-0.3,0.8-0.3,1.3-0.9c0.2-0.3,0.7-1.8,0.7-2.2c-0.2-0.2-0.4-0.4-0.7-0.5c-0.3-0.1-0.6-0.2-1.2-0.1
		C40.9,963.1,40.8,963.4,40.6,963.6L40.6,963.6z M42.5,965.1c-0.1,0.2-0.5,0.7-0.9,0.9c-0.2,0.1-1,0.5-1.1-0.4c-0.2-1.3,0-1.8,1-2
		c0.2,0,1.3,0.1,1.4,0.3C42.6,964.5,42.6,964.9,42.5,965.1L42.5,965.1z"/>
	<path shape-rendering="auto" image-rendering="auto" color-rendering="auto" d="M31.5,965.5c0.7,0.6,1.7,1.2,3.7,0.5
		c1.2-0.4,0.4-1,0.4-1.7c-0.6-0.7-1.4-1.5-2-1.5c-0.6,0-1.3,0.1-1.9,0.4c-0.4,0.2-1,0.7-1.7,0.4C30.1,964.3,30.7,964.9,31.5,965.5
		L31.5,965.5z M35.4,964.8c0.1,0.5-0.9,1.2-2,1c-1.1-0.2-1.7-0.9-2.2-1.5c1-0.5,1.2-0.9,2.3-0.9C34.1,963.4,35.3,964.3,35.4,964.8
		L35.4,964.8z"/>
	<g>
		<pattern  id="SVGID_2_" xlink:href="#i" patternTransform="matrix(0.2549 0.4153 -1.0715 0.6576 -14917.6826 1024.7241)">
		</pattern>
		<path class="st2" d="M44.6,999.2c0,0,4.6-2,6.9-1.6c2.4,0.4,6.3,3.8,6.3,3.8c-0.4-1.7-0.9-3.3-2.2-6.1c0,0-1.9-1.9-3.1-2
			c-2.4-0.2-6.7,2.3-6.7,2.3L44.6,999.2z"/>
		<pattern  id="SVGID_3_" xlink:href="#i" patternTransform="matrix(0.2549 0.4153 -1.0715 0.6576 -14917.6826 1024.7241)">
		</pattern>
		<path class="st3" d="M19.3,1001.5c1.7,2.9,6,3.9,8,3.2c2.2-0.8,3.6-1.4,3.6-1.4l-0.4-2.4c-3-0.6-6-0.9-8.5-5.3l0.6,5.4
			c-2.3-1-3.7-2.7-5.3-4.1L19.3,1001.5z"/>
	</g>
	<path shape-rendering="auto" image-rendering="auto" color-rendering="auto" d="M26.6,945.6c-2.4,0.1-3.9,1.1-5.4,2.3
		c1.6,0,4.3-0.4,5.6,0.6c0.3,0.2,0.5,0.6,0,0.9c-1.5-0.7-3.3-1-5.5-0.7c-0.9,0.1-4,1.7-5,1.7c-1.2,0-2.9-0.7-4.3-0.8
		c-1.1,0-2.2,0.5-2.8,1.1c0.4,0.3,1.3,0.4,1.7,0.6c0.4,0.2,0.5,0.8,0.5,1.1c0,0.7-0.5,2-0.3,2.3c-1.3,0.1-1.3,0.2-2.1,0.3
		c-2.1,0.3-4,1.5-5.5,3c-0.7,0.7-2.3,2.2-2.7,3.1c1.6-0.6,2.5-1.2,3.1-1.3c1.6-0.4,2.7,0,3,0.4c-0.2,0.1-1.7,1.1-1.9,1.3
		c-1.1,0.8-2,1.8-2.8,2.9c-1,1.4-1.7,3.1-2.2,4.8c1.2-0.6,2.3-1.6,3.5-1.8c-1.8,2.3-3.1,5.1-3.8,7.9c-0.2,1-0.5,2.8-0.6,3.8
		c1.2-1.5,1.8-1.9,2.8-2.4c-0.2,0.7-0.7,2.8-0.8,3.4c-0.2,3.2,0.9,6.3,2.2,9.2c0.4-1.6,0.1-3.7,1.1-5.1c-0.2,1.8,0.2,3.8,1,5.8
		c0.7,1.9,1.8,3.8,2.9,5.1c0.3-0.8,0.5-2.6,0.6-3.8c0.6,0.9,0.9,1.9,1.9,3.4c0.8,1.2,1.9,2.1,3.4,2.7c0-0.7,0.2-1.9,0.9-3.4
		c1.5,3.2,4.7,6.5,8,7.8c-0.5-1.6-0.5-2.9-0.6-4.8c0.7,1.4,2.4,2.7,4.1,3.4c1.6,0.7,3.3,1.1,4.6,1.1c0.7-1,2-2.3,2.8-2.3
		c0.5,0,0.8,0.3,0.8,1.7c0,0.8-0.1,1.3-0.4,2.1c0.5-0.6,1.6-1.8,2-2.3c1.5-2,3.1-3.6,4-5.9c0.5,1.5-0.2,2.7-0.3,4.2
		c2.8-3.2,5.3-7.5,6.6-11.6c-0.1,1.5,1.4,2.5,1.6,3.9c0.2-0.3,1.3-2.5,1.5-2.8c1-1.8,1.4-3.9,0.8-6c-0.3-1.3-1.2-2.6-1.9-3.6
		c0.4-0.7,0.9-1.5,1.1-3c0.8,1.1,1.5,2.5,2.4,4.2c0.8-3.8-0.8-9.5-3-12.6c0.5-0.2,1.3-0.2,1.8,0.1c1,0.6,1.8,1.9,2.3,2
		c0.2-1.8-0.1-3.3-0.8-4.7c-0.6-1.1-2.2-3.6-3.1-4.5c1.5,0.3,3.4,0.7,4.6,1.7c0.1-0.8-1.3-2.9-2.2-3.6c-1.1-0.8-2.6-2.1-4-2.8
		c1.3,0.1,3.4,0,4.2-0.3c-1.6-2-3.4-3.4-5.8-4.3c-0.8-0.3-3.8-0.7-6.1-0.3c1-0.2,2.7-1.3,4.5-1.5c2-0.2,3.6-0.1,5,0.2
		c-1.4-0.8-2.9-1.6-4.5-2.1c-1.8-0.5-3.8-0.6-5.6-0.1c-1.8,0.5-4,2.3-4.6,2.3c-0.6,0.1-2.4-1.5-3.6-2.3
		C29.8,946.3,28,945.5,26.6,945.6L26.6,945.6z M25.9,946.6c0.8,0,1.5,0,1.7,0.1c1.6,0.2,2.9,1,4.1,2c1,0.8,1.9,1.7,2.8,2.6
		c1.1-1,3.7-2.7,5.1-3.3c1.8-0.7,3.8-0.3,5.7,0.3c-1.4,0.1-3.9,0.7-5.1,1.3c-1,0.5-2,1.2-3,1.9c2-0.4,2.8-0.3,3.3-0.3
		c1.1,0,1.9,0.1,3.7,0.6c2.2,0.6,4.3,1.6,5.7,2.7c-1.8,0.3-5,0-6.4-0.6c2.4,1.7,3.2,2.3,4.9,3.5c0.9,0.7,2.6,1.7,3.3,2.6
		c-2.1-0.7-3.3-0.8-4.2-0.5c0.4,0.8,1.5,2.5,2.4,3.7c0.9,1.3,1.9,2.6,2,3.8c-2.3-2.2-2.6-0.8-3-1c-0.9-0.3-1.4-0.5-2.7-1.1
		c0.7,0.9,1.3,1.3,2.2,2.4c0.8,1.1,1.4,2.3,1.9,3.5c0.7,1.7,1.4,4.2,1.5,6.1c-0.8-1.2-1.7-2.9-2.4-3.8c-0.8-1.1-1.7-1.9-3-2.2
		c0.4,0.6,1.2,1,1.7,1.8c0.4,0.7,0.6,1.6,0.6,2.6c0,1.1-0.3,1.8-0.7,2.4c-0.4-0.2-0.9-0.3-1.2-0.7c-0.2-0.2-0.9-1-1.3-1.4
		c-0.2,0.4,0.5,1.5,0.9,2c0.4,0.5,0.9,0.6,0.9,1.2c0,0.3-0.4,0.9-0.6,1.1c-0.6,0.8-1,1.4-1.4,1.7c-0.2-0.8,0.1-2.5-0.2-3.1
		c-0.2-0.5-0.2-0.6-1.2-1.6c0.3,0.9,0.6,1.8,0.7,2.3c0.2,1.4-0.3,3.6,0.1,3.6c0.4,0.1,1.3-0.9,1.9-1.6c0.6-0.7,1.3-1.3,1.5-1.4
		c1.1,1.6,2.3,3.1,2,5c-0.1,0.9-1.1,3.7-1.7,4.5c-0.1-1.2-0.8-2.5-1.1-3.2c-0.6-1.6-0.8-2.1-1.2-2.5c0,0.8,0.3,1.2,0.1,2
		c-0.3,1.2-1,2.5-1.4,3.5c-0.6,1.3-1.2,2.9-1.8,4.1c-0.2,0.5-1,2.3-1.7,3c0-0.8-0.5-2.9-0.6-3.4c-0.3-1.4,0.5-2.9,0.3-4.4
		c-0.1-0.8-0.9-1.2-1.4-2.2c-0.8-1.3-0.6-1.8-0.6-2.8c-0.6,1.3-0.5,1.6-0.2,2.5c0.3,1,0.7,1.1,1.1,2.1c0.4,0.9,0.6,1.8,0.3,2.8
		c-0.8,1.1-0.6,0.9-0.4,2.5c-0.2,0.2-0.3,1.3-0.8,2.3c-0.5,1-1.6,2-1.8,2.3c-0.4,0.6-1,1.5-1.6,2.2c-0.2-1-0.1-1.4-0.9-1.8
		c0.2-0.8,1.1-2.3,1.6-3.3c0.7-1.4,1.3-3,0.2-4.4c-1-1.3-1.7-2.9-2-4.5c-0.1-1,0.1-2.1,0-2.8c-0.5,0.9-0.8,1.6-0.7,2.8
		c0.2,1.5,0.9,3.1,1.5,4c1.5,2.2-0.1,5.9-1.5,7.4c-0.9,0.9-1.7,2.7-2.8,2.7c-0.4,0-0.7-1-1.2-1.8c-0.5-0.7-1.6-1.6-2-2.3
		c-0.4-0.8-0.5-1.6-0.5-2.4c0.1-1.1,0.1-1.8,0.5-2.9c0.6-1.7,1.6-2.2,1.2-3.7c-0.1,1.3-1.2,2.3-1.7,3.6c-0.4,1.2-0.7,2-0.9,2.9
		c-0.1,0.7,0.2,1.6,0.6,2.5c0.4,1,1.2,1.9,2.1,2.7c0.3,0.4,0.9,1.4,0.8,1.6c-0.3-0.2-2.9-0.8-3.3-1c-1.5-0.7-3.2-2.4-3.7-3.8
		c-0.2-0.6,0.1-1.1,0.3-1.9c0.3-1.1,0.9-2.9,1.1-3.8c-0.5,0.7-1.5,2.4-1.9,3.1c-0.4,0.9-0.9,2-0.9,2.9c0,1,0.4,3.2,0.6,4.2
		c-1.2-0.1-3-1.8-4.4-3.8c-0.8-1.2-1.3-2.5-1.7-3.4c-0.8-2-1-3.8-0.8-5.9c0.2-1.7,0.8-4,0.8-5.3c-0.8,1.2-1.4,3-1.7,4.9
		c-0.4,2-0.2,4.8,0.2,6.3c-0.4,0.7-0.8,0.9-1.6,2.4c-2.3-2-3.5-5.6-3.9-8c-0.3-1.7-0.4-3.7,0.2-5.4c0.3-1.1,1-2,1.8-2.8
		c1.4-1.3,2.6-3.8,2.5-5.9c-0.8,1.8-1.8,4.4-3.7,6c-0.8,0.7-1.2,1.6-1.5,2.4c-0.6,1.7-0.7,3.6-0.7,5.4c0,0.7,0.4,4.3,0.2,5.1
		c-0.5-0.4-1.3-2.6-1.5-3.8c-0.4-1.9-0.7-6.7-0.5-7.9c0.3-1.5,0.3-3.2,1.1-4.6c0.5-0.9,1.2-1.7,1.7-2.6c-1.2,0.9-2.1,1.7-2.6,2.9
		c-0.6,1.3-1.1,2.8-1.2,3.9c-0.2,1.3-0.2,2-0.7,2.7c-0.4,0.6-0.6,0.8-1.1,1.5c-0.6-2.6-0.3-6.4,0.2-9.3c-1,0.8-1.3,1.3-2.2,1.4
		c0.1-0.3,0.8-2.6,1-2.9c0.6-1.6,1.5-3.3,2.5-4.8c0.9-1.3,1.8-2.5,2.8-3.5c-1-0.1-4.6,1.6-5.6,2.3c1-1.3,1.4-2.1,2.1-3
		c1.5-1.8,2.8-3.1,4.7-4.1c0.7-0.4,1.8-1,2.6-0.9c0-0.4,0.6-1.1,1.1-1.4c1.2-0.9,2.8-1.3,4.4-1.8c1.4-0.4,2.9-0.6,4.1-0.7
		c-1-0.2-3-0.1-4.7,0.2c-2.6,0.5-4.3,1.3-5.6,2.8c-0.9,0.1-1.6,0.4-2.3,1c-1-1.1-2.1-1.1-4.1-0.6c2-2.1,8.5-3.4,8.5-3.4
		s-0.4-1.2-0.2-2.2c0.1-0.8-0.4-2.2-1.3-2.7c0.2,0,1.5-0.3,2.3-0.1c1.3,0.4,2.1,0.8,3,1c0.8,0.2,1.7,0.3,2.4,0.4
		c1.3,0.2,2.5,0.5,3.4,0.6c0.8,0.1,1.5,0.5,2.1,0.9c-1-0.1-2.1-0.1-3.1,0.2c-0.3,0.1-1.4,0.4-1.8,1c1.9-0.5,3.7-0.5,5-0.4
		c0.6,0,2.5,0.6,3.5,1.1c0.3,0.1,1.2,0.5,1.9,0.8c-1-1-2.9-2.2-3.8-2.4c-1-0.7-1.8-1.3-2.9-1.8c-1.3-0.5-2.8-0.8-4.2-0.9
		c0.2-0.2,1.9-1,2.2-1.1c3.1-0.9,4.2,0,7.1,1.1c0.7,0.3,3.8,2,4.6,1.4c-1-0.2-2.5-1.2-3.2-1.6c-0.7-0.4-1.2-0.8-1.3-2
		c-0.2-0.7-1.5-1.3-2.7-1.5c-0.6-0.1-1.6,0.2-2.3,0.1C23.6,946.9,25.1,946.7,25.9,946.6L25.9,946.6z M40.2,952.1
		c-1.5,0.1-2.1,0.1-3.5,0.8c-1.3,0.6-1.2,1.4-1.1,1.8c0.4-1.1,2.1-1.6,2.9-1.9c1.3-0.4,1.9-0.2,3.2-0.3c2.3-0.3,3.5,1,5.4,0.9
		c-1.4-0.5-2.4-1-3.9-1.3C42.5,951.8,41.7,952,40.2,952.1L40.2,952.1z M18.7,957.8c-0.9,0-1.7,0-2.5,0.2c-1.4,0.3-2.7,0.9-4,1.9
		c-1.1,0.8-2.7,1-3.6,2c-0.4,0.5-1.1,1.2-2.4,2.4c1.9-1,2-1.4,3.3-2.3c1.1-0.8,2.4-1.1,3.4-1.6c1.4-0.8,2.3-1.5,3.4-1.7
		c1-0.1,2.4-0.3,3.4-0.8C19.3,957.8,19,957.8,18.7,957.8L18.7,957.8z M16,961.6c-0.8,0.3-3,2-3.6,2.6c-0.9,0.8-1.8,1.7-2.7,2.5
		c-0.8,0.6-1.7,1.1-2.7,1.3c-1.1,0.2-1.8,1.1-2.5,1.9c-0.9,1.1-1.1,2.8-1.2,4c0.7-1.5,1.3-2.6,2.1-3.7c0.7-0.8,1.4-1.2,1.9-1.4
		c1.9-0.5,3.4-1.7,4.7-3C13,964.7,14.8,962.9,16,961.6z M19.8,961.7c-1.2,0.3-1.8,1-2.3,1.8c-0.7,1.2-1,2.6-2.5,3.5
		c-1,0.6-2.3,1.1-3.2,1.9c-1,0.9-1.6,2.1-2.6,3.1c2.3-0.6,2.8-2.5,3.6-2.8c1.1-0.4,2.8-1.4,3.5-2.1c1-1.2,0.8-1.6,1.6-3
		C18.5,963.2,19.2,962.5,19.8,961.7L19.8,961.7z M21.3,964.1c-1.3,1.2-2.5,2.2-3.4,3.4c-0.7,0.9-1.4,1.9-1.5,3.3
		c-0.2,1.9,1.4,2.9,2.1,4.6c0.3,0.7,0.3,1.8,0.1,2.6c-0.2,0.9-0.9,2.4-0.9,3.7c0.3-0.8,1.7-2.3,1.8-3.2c0.1-0.9,0.2-1.7,0-2.6
		c-0.2-0.9-0.7-1.7-1.3-2.5c-2-2.2-0.2-5,1.4-6.9C20.3,965.7,20.6,965.3,21.3,964.1L21.3,964.1z M24.8,966.2c-1.4,0.8-2.2,2.2-2.7,3
		c-0.7,1.1-1,3-0.6,4.4c0.4,1.9,1.3,3.5,2.3,5c0.7,1,1.2,1.8,1.6,3c0.3,0.8,0.5,1.5,0.4,2.5c-0.3,2.7-0.7,3.4-1.2,4.8
		c1.3-0.4,2.3-1.9,2.9-3.4c0.5-1.2,0.8-2.5,0.8-3.3c0.1-3.5-1.5-5.3-2.2-8.4c0.2,0,0.8,0.8,1.6,1.9c1.3,1.8,1.7,2.8,2.3,4.5
		c0.4,1.1,1,2.9,0.9,4.8c-0.1,1.8-0.3,4.4-0.4,5.9c0.7-1.5,1.3-4.8,1.2-6.7c-0.1-2-0.3-3.3-0.9-4.7c-0.6-1.6-2.1-4.6-3.4-5.8
		c-1-0.4-2.2-1.2-2.7-2.5c-0.6,3.4,0.9,4.9,2.1,7.6c0.2,0.4,0.7,1.6,0.7,2.9c0,0.9-0.3,2.8-0.5,3.2c-0.5,1.1-1.1,2.1-1.8,3
		c0.2-0.7,0.8-1.9,1-3.3c0.2-1.1,0.1-2.4,0-2.9c-0.3-1.3-1.3-2.5-2.1-3.8c-0.7-1-1.3-2.1-1.6-3.2c-0.6-2.2-0.5-3.6,0.1-5
		C23.4,968.3,23.8,967.5,24.8,966.2L24.8,966.2z M21.1,979.4c0,1.3,0.5,4.2-1.3,5.7c-0.7,0.6-1.1,1.6-1.4,2.4
		c-0.4,1.3-0.3,2.5,0.2,3.4c0.5,1,0.7,1.5,1.7,2.9c-0.4-1-0.6-1.4-0.9-2.5c-0.4-1.5-0.6-2.1-0.3-3.6c0.2-0.9,1-1.8,1.6-2.6
		C21.8,983.7,22.4,981.5,21.1,979.4L21.1,979.4z"/>
	<path shape-rendering="auto" image-rendering="auto" color-rendering="auto" d="M56.2,969.8c-1.6,0-3.8,0.4-5.1,1.3
		c0,0.2,0,0.4,0.1,0.7c2-0.4,3.9-0.6,6.3-0.2c3.3,0.5,5,2.4,7.6,4.8c2.1,2,3.3,6,3.2,8.3c-0.1,3.3,0.8,5.7,0.6,9
		c-0.1,3.4-0.9,6-1.8,9.3c-0.2,0.7-0.5,1.2-0.9,1.7c0.6,0.6,1.3,1.1,1.5,2.1c0.1,0.4-0.2,1.5-0.3,2c-0.6,2.7-0.3,6,0.2,8.7
		c-0.5,0.5-0.7,0.9-0.8,1.4c-0.1,0.7,0.2,1.3,0.5,2c0.4,0.8,1.5,1.7,1.4,2.6c-0.1,1.1-1,1.5-1.3,1.7c-0.3,0.2-0.7,0.1-1.2-0.3
		c0.1-0.5,0.1-1.2,0-1.6c-0.1-0.6-0.2-1.1-0.6-1.7c-0.2,0.3,0.1,0.7,0.1,1.4c0,0.7,0.1,1.4,0,1.9c-0.4,0.6-0.8,0.6-1.4,0.7
		c-0.3,0-0.6-0.1-1-0.4c0.1-0.2-0.2-1-0.2-1.5c0.1-0.9,0.4-1.4,0-2.3c-0.1,0.4-0.3,0.9-0.4,1.5c-0.1,0.8-0.2,1.6,0,2.2
		c-0.5,0.4-0.9,0.6-1.5,0.4c-0.4-0.1-0.7-0.4-1-0.6c-0.1-0.7-0.2-0.8-0.1-1.7c0.1-0.7,0.7-1.5,0.7-1.8c-0.5,0.2-0.8,0.7-1,1.2
		c-0.2,0.7-0.3,1.5-0.2,2.1c-0.5,0.4-1.1-0.2-1.3-0.3c-0.4-0.4-0.5-1-0.3-1.7c0.3-1.9,2.3-2.8,3.6-2c1.4-1.5,2.1-3.2,1.8-5.3
		c-0.4-3-0.6-5.6-1.7-8.2c0.3-0.6,0.7-1.6,0.6-2.1c-0.3-1-2.1-1.6-2.9-2.7c-0.7-1-1.2-2-1.6-3c-0.8-1.8-1.1-3.7-2.4-5.2
		c-0.3-0.3-1.5-0.9-1.8-1.1c0.8-0.4,1.3-0.7,2.1-1.5c0.9-0.9,1.1-3.5,0.9-3.6c-1.1,2.8-2.2,3.5-3.8,4c-0.4,0.1-0.9,0.4-1.4,0.4
		c-1.3,0.1-2.6,0.5-3.7,1.3c-0.6,0.4-1.1,0.8-1.5,1.3c0-0.2,0-0.4,0-0.6c0-0.7,0-1.2-0.2-1.6c-0.4-1.1-1-1.4-1.7-1.9
		c0,0,0.7,1.1,1,1.8c0.3,0.7,0.2,1.2,0.1,1.7c-0.1,0.6-0.4,1.4-0.7,2.1c-0.2,0.6-0.3,1-0.4,1.4c-0.2,1.2-0.8,3.6-0.7,5.7
		c0.1,4.5-1.1,8.9-2.3,13.2c0.1,1.2,0.2,2.7,0.4,3.8c-0.1,0.5-0.5,0.8-0.6,1.6c-0.7-0.5-1.4-0.8-2.2-0.8c-0.9,0-2,0.3-3.1,0.9
		c0.8-0.2,2.2-0.1,3,0c0.6,0.1,1.3,0.4,2.2,1c0.9,0.7,1.6,2.3,1.6,3.6c0,1-0.4,1.7-1.2,2c-0.6,0.3-1.3,0.3-2-0.4
		c-0.3-0.7-0.3-1.3-0.3-2.2c0-0.5-0.1-1-0.3-1.5c-0.2,0.3-0.1,1-0.2,1.5c-0.1,0.7,0.1,1.4,0.2,1.9c-0.2,0.6-0.6,1-1.2,1
		c-0.4,0-1.1-0.2-1.6-0.6c-0.3-0.5-0.3-1.1-0.3-1.7c0-0.4,0-1.2,0-2c-0.3,0.5-0.5,1.3-0.5,2.1c0,0.5-0.1,1.2,0.1,1.6
		c-0.3,0.4-0.6,0.5-1,0.5c-0.7-0.1-1.1-0.3-1.4-0.6c-0.2-0.6-0.2-0.9-0.3-1.4c-0.1-0.4,0.3-1.6,0.6-2.4c-0.6,0.4-1,1.4-1.1,2.1
		c-0.1,0.5,0,1.1,0.1,1.5c-0.1,0.2-0.1,0.6-0.6,0.6c-1.2-0.1-1.2-0.9-1.3-1.6c-0.1-1.6,1.9-3.8,3.3-4.6c0.8-0.1,1.2-0.4,1.3-0.8
		c0.2-0.6-0.3-1.5-0.4-2.3c-0.2-1.3-0.1-2.7,0-4c0.8-2.2,1.1-4.9,0.8-7.4c-0.4-3.2-1.4-6.2-3-8.9c-1.2,1.1-0.7,1.5-2.2,1.3
		c0.4,2.7,1,5.4,0,8.1c1.4,2.6,0.8,5.7,1.8,8.4c-1.2,1.8,2,4.1-0.4,5.5c-1,1.4-2.7,3.1-4.3,3.7c-1,0.4-2.1,0.4-2.9-0.3
		c-0.5-0.4-1-1.5-0.9-2.2c0.1-0.6,0.6-1.3,0.9-1.8c-1,0.4-1.4,1.4-1.4,2.5c0,0.7,0.3,1.4,0.8,1.9c-1.1,0.4-2.4,0.2-3.3-0.4
		c-0.2-0.7-0.1-1.6,0.2-2.3c0.4-0.8,0.9-1.2,1.5-1.7c-0.9,0.2-1.5,0.7-1.9,1.3c-0.4,0.6-0.7,1.3-0.5,2.4c-0.6-0.1-0.9-1-0.7-1.9
		c0.1-0.7,0.6-1.5,1-1.8c0.9-0.9,2.8-1,4.1-0.4c0.7,0.1,1-0.2,1.3-0.2c0.7,0,1.4,0.3,2.1,0.4c0.7,0.1,1.5,0.3,2.2,0
		c0.6-0.3,1.1-1.1,0.8-1.7c-0.1,0.6-0.5,0.9-0.9,1.1c-0.5,0.2-1.2,0.2-1.8,0c-0.4-0.1-1-0.6-1.8-0.7c0.6-1.3,0.2-3.4,0.1-4.7
		c-0.4-3.5-2.9-6.3-3.8-9.8c-0.8-2.9-3.4-4.9-4.2-7.9c-0.8-0.8-1.3-1.4-2-2.3c1.3,3,2.2,6.1,4.2,8.6c1.5,1.9,1.5,4.6,2.6,6.7
		c0.9,1.6,2,3.3,2.2,5.1c0.1,0.7,0.2,1.8,0.1,2.6c-0.1,0.6-0.5,1.1-0.6,1.6c-0.9-0.2-2.1-0.6-3-0.5c-1.9,0.2-3.4,1.6-3.8,3.8
		c-0.3,2.1,1.5,3.5,3.4,3.8c1,0.1,2-0.2,2.8-0.5c1.1,0.9,1.7,1.2,2.9,1c1-0.1,2-1.2,2.7-2.2c-0.8,2.1-0.2,3.2-0.1,3.3
		c0.3,0.3,0.7,0.7,1.2,0.9c0.4,0.1,1.3,0.1,2-0.5c0.3,0.5,0.6,0.7,1.1,0.7c0.9,0,1.1,0,2-0.9c0.4,0.7,1.1,1,1.9,1.1
		c0.5,0,1-0.2,1.4-0.8c0.8,0.7,2,0.8,2.7,0.5c1.5-0.5,2.2-2.6,2.1-4.3c-0.2-2-2.7-3.1-1.4-5.2c-0.3-3,0.6-5.9,1.5-8.9
		c1.2-3.9,0.8-8.1,0.7-12.2c0-0.4,0.4-0.5,0.6-0.4c0.2,0,0.5,0.2,0.7,0.5c0.8,1,1.7,3.2,2.1,4c0.7,1.5,2.1,2.6,3.3,3.7
		c1.1,1.1,1.9,2.2,2,3.9c0.1,1.6,1.1,3.9,0.2,5.3c-0.2,0.3-0.5,1.1-1.1,1.4c-0.6,0.3-1.4-0.3-2.1-0.4c-1.2-0.2-3.1,0.2-3.8,1
		c-1,1.3-1.9,4.3-0.8,5.6c0.3,0.3,1,0.8,1.8,0.9c0.7,0,1.4-0.4,1.8-0.7c0.4,0.6,1,1.1,1.6,1.1c0.5,0,1.4-0.1,1.7-0.7
		c0.3,0.3,1.5,1,1.9,1c0.5,0.1,2-0.3,2.5-1.6c0,0.3,0.2,1,0.7,1.4c0.4,0.3,1.2,0.6,1.7,0c0.6,1.2,2.3,1.8,3.2,0.8
		c0.9,0.7,2,1.2,3-0.1c1,0.5,1.8,0.3,2.5-0.1c0.9-0.6,1.4-1.7,1.7-2.7c0.6-2.3-2-3.8-1.5-6c0.5-1.5-0.2-4.1,0-6.7
		c0.1-1.6,0.7-3.3,1.1-4.2c-0.7-1.2-1.3-1.7-2.2-2.4c1.3-2.2,2.5-6.1,2.9-8.9c0.6-4-0.4-7.4-0.8-11.4c-0.2-2.6-0.7-4.6-1.4-5.9
		c-0.6-1.2-1.5-2.8-2.7-4.1c-1.4-1.6-3.1-2.5-4.4-3.3C59.9,970.2,58.1,969.8,56.2,969.8L56.2,969.8z M52.1,993.6
		c0.7,0,1.3,0.2,1.9,0.6c1.7,1.2,2.5,3.7,3,5.8c0.3,1.6,1.7,2.9,2.7,4.1c0.4,0.4,1,0.8,1.1,1.4c0.1,0.7-0.4,1.5-0.6,2.5
		c-0.7,2.4-1.5,5-1.4,7.5c0.6,1.6,0.4,3.1-0.4,4.2c-0.9,1.2-1.5,2-1.5,3.5c0.1,1.4-1.2,2-2.2,1.7c-0.8-0.2-1.4-0.4-1.8-0.9
		c-0.3-0.4-0.4-0.9-0.4-1.4c0-0.3,0.1-1,0.2-1.6c-0.4,0.3-0.7,0.9-0.7,1.4c-0.1,0.7,0.1,1.3,0.4,1.8c-0.3,0.2-0.8,0.2-1.1,0.2
		c-0.6-0.1-1.3-0.3-1.4-1.6c-0.1-0.9,0.2-1.3,0.4-2.1c-0.6,0.5-0.8,1-0.9,1.6c-0.1,0.7-0.1,1.2,0.1,1.8c-0.4,0.4-1.6,0.4-1.9,0.2
		c-1.2-0.9-0.1-3.2,0.5-3.9c1-1.4,2.6-1.1,3.6-0.9c0.6,0.1,1.3,0.4,1.8,0.1c0.5-0.4,1.1-0.3,1.7-0.2c0.5,0.1,1.3,0.6,1.8,0.8
		c-0.2-0.5-0.7-0.9-1.2-1.2c-0.2-0.1-0.9-0.2-1.1-0.2c0.3-0.6,0.7-1.5,0.8-2.3c0.3-1.9-0.1-4-0.3-5.8c-0.2-1.7-1.4-2.9-2.6-4
		c-1.2-1.1-2.4-2.1-3-3.7c-0.4-1.1-0.8-2.3-1.5-3.1c-0.6-0.7-1.5-0.9-2.4-1.4c0.1-0.3,0.3-1,0.5-1.4c0.1-0.2,0.1-0.5,0.2-0.8
		c0.4-0.3,0.8-0.5,1-0.6c1.1-0.6,2.1-1.1,3.5-1.6C50.8,993.8,51.9,993.6,52.1,993.6L52.1,993.6z M31.4,1000.5
		c1.4,2.4,2.7,5.4,2.8,8.2c0.1,2.4-0.4,4.7-0.9,7c0.2,1.2,0.1,3,0.6,5.4c0.1,0.3,0,0.8-0.5,0.6c-0.4-0.8-1.2-3-0.6-4.3
		c-0.6-1.3-0.3-4.2-0.6-5.7c-0.4-1.8-1-1.9-1.1-2.9c0.9-2.4,1.2-4.1,0.2-6.8l-0.1-1L31.4,1000.5z M61.1,1008.5
		c0,1.2,0.7,3.7,0.8,5.2c0.2,2.1,0.8,4.2-0.7,5.9c-0.7-0.2-1.5,0.2-2,0.3c0.6-1.1,1.3-4,0.4-4.9
		C60.2,1013.5,60.2,1009.7,61.1,1008.5L61.1,1008.5z"/>
	<pattern  id="SVGID_4_" xlink:href="#h" patternTransform="matrix(0.8017 0 0 -0.5895 -1542.8861 -12672.6514)">
	</pattern>
	<path class="st4" d="M71.4,955.2c0.1,0.9,0.6,1.3,1.6,0.9c2.3,0.4,4.2,0.5,4.6,0c0.3,0,1.3-1,3.5-3.6c0.7-1,1.6-1.4,2-3.2
		c0.3-1.1,0.1-1.5,0-2.2c-0.3,1-1.3,1.3-2.1,1.9c-1.6-0.1-3.2,0.9-4.8,1.4c-1.6,0.2-2.9,0.5-4,1C71.3,952.3,70.7,953.3,71.4,955.2
		L71.4,955.2z"/>
	<path shape-rendering="auto" image-rendering="auto" color-rendering="auto" d="M81.1,948.6c-1-0.1-3.1,0.7-4.1,1.2
		c-1.3,0.6-2.8,0.2-4.1,0.7c-1.5,0.5-3.3,2.6-1.9,4.7c-1.5,0.5-2.7,1.7-3.4,2.7c-1.2,1.7-2.7,3.7-2.5,5.8c0.2,1.4,1.2,3.1,2.3,4
		c1.6,1.4,2.7,3.1,3.8,5c0.9,1.6,1.2,2.7,0.5,4.5c-0.3,0.7-0.8,1.5-1.8,1.4c-0.7,0-1.3,0-2-0.8c0.4,0.6,0.5,1.1,0.7,1.5
		c1,1.1,1.5,1.8,2.9,0.8c1.7-1.1,2.5-2.8,2.1-4.8c-0.3-1.5-0.5-2.2-1.2-3.6c-0.6-1.2-1.3-2.3-2.2-3.2c-0.9-0.8-2.4-2.7-3.1-3.7
		c-0.8-1.2-0.4-3.1,0.4-4.4c1.1-1.9,2.5-4.4,4.1-4.8c0.7-0.4-0.5-2.4,0.3-3.3c1.5-1.6,3.2-1.5,4.2-1.5c1.3,0,1.8-1,3.7-1.2
		c1-0.1,2.2-0.1,3.1-1.4c-0.4,1.5-1.4,3.4-2.1,3.8c-1.1,0.6-1.9,1.6-2.4,2.8c-0.5,1.1-2.5,0.9-3.6,0.9c-1,0-1.9-0.5-2.3,0.6
		c-0.9,2.3-1.6,3-2.4,4.4c-0.8,1.6-0.1,2.9,1,4.3c1.6,2.2,3.7,3.4,5.1,5.8c1,1.9,1.6,4.1,1.1,6.2c-0.5,2.3-2.1,4.1-4.2,5.3
		c-1.1,0.6-2.5,0.5-3.6,0.7c0,0.4,0.1,0.7,0.2,1c0.9,0.3,1.9,0.2,2.9-0.1c0.9-0.3,1.8-0.7,2.5-1.2c1.8-1.2,3-3.1,3.5-5.2
		c0.5-2.1,0.4-4.5-0.6-6.5c-1-2-2.6-3.6-4.4-4.9c-1.2-0.9-2.6-2-2.8-3.5c-0.2-1.4,0.9-2.8,1.6-4c0.7-1.1,0.7-1.5,0.9-2.3
		c0.9-0.3,2.4,1,3.5,0.7c1.6-0.3,2.7-1.9,3.7-3.2c0.8-1.1,1.6-1.4,2.5-3c0.4-0.5,0.8-1.3,0.9-2.2c0.1-0.8,0.2-2.2-0.6-2.8
		C83,947,82.1,948,81.1,948.6L81.1,948.6z"/>
	<path shape-rendering="auto" image-rendering="auto" color-rendering="auto" d="M27.8,952.3c-0.4,0-1.7,0.1-1.6,0.3
		c1.5,0.7,2.4,1,4,2.2c0.6,0.5,1.1,0.8,1.5,1.3c-0.5,0-1.2-0.1-1.9,0.1c-0.6,0.2-1.1,0.7-1.3,0.9c-0.7-1.7-2.9-2.4-4.6-2.2
		c-2.8,0.4-4.4,2.8-4.2,5.4c0.1,0.9,1.3,3,2.7,2.7c-1-0.7-1.6-1.9-1.6-3.1c0-2,1.3-3.7,3.5-3.8c1.5-0.1,3.2,0.4,3.6,2
		c0.1,0.4,0.4,1.3,0.6,1.5c0.3-0.9,0.6-2.3,1.7-2.5c1-0.2,2.2,0,2.9,0.1c-0.3-1.4-3.8-3.3-5.1-4c1.2,0,2.2,0.3,2.7,0.4
		c1,0.3,3.2,1.1,4.6,1.9c-0.9-1-2.4-1.9-3.1-2.3C30.9,952.5,29.3,952.3,27.8,952.3L27.8,952.3z M39.7,956.6c-0.8-0.8-3-0.9-3.7-0.8
		c0.5,0.6,1,1.4,1.3,2c0.3,0.8,0,1.4-0.4,2.4c0.7-0.4,1.2-1.5,1.2-2c0-1-0.3-1-0.8-1.7c0.9,0,1.8,0.1,2.6,0.7c1-0.7,1.3-1.8,2.7-1.8
		c0.9,0,2.5,0.3,3,1.8c0.3,0.8,0,1.9-0.3,2.5c-0.4,0.9-2.5,2-3.6,0.8c-0.6-0.6-0.7-1.3-0.5-1.9c0.1-0.5,0.6-1,1.6-0.8
		c0.5,0.1,0.9,0.1,1.2,1.1c0.5-0.9-0.3-1.5-0.6-1.7c-0.9-0.4-1.9-0.1-2.4,0.3c-0.6,0.5-0.9,1.6-0.6,2.4c0.4,1.2,1.6,2,2.7,2.5
		c0.8,0.4,1.4,1.4,1.4,2c0,0.6,0.1,2.7-0.4,3.5c0.3,0.4,0.1,1.7,0.5,2c0.6,0.6,1.2,2.3-0.6,4c-0.5,0.5-1,0.5-1.5,0.2
		c-0.2-0.1-0.2-0.8-0.1-1.1c0.2-0.5,0.1-0.6-0.7-0.6c-0.3,0-0.7-0.1-0.8,0.4c0,0.3-0.2,1.3-0.3,1.4c-2.2,0.9-3.6,1.1-5.6,0.8
		c-0.9-0.1-1.8-0.5-2.6-1.2c-0.5-0.4-0.9-0.9-0.8-1.5c0.1-0.7,2.1-1.3,2-1.8c-0.4,0-1.2,0.1-1.4-0.2c-0.4-0.4-0.9-1.2-1.1-1.6
		c-0.2,0.4-0.1,0.8,0,1.3c0.1,0.2,0.3,0.6,0.2,0.8c0,0.2-0.2,0.3-0.4,0.5c-0.5,0.4-0.6,1-0.5,1.5c0.2,0.8,0.6,1.8,1.4,2.2
		c1.8,0.9,4,1.7,6.1,1.5c1.3-0.1,2.7-1.2,3.6-1.5c0.2,0.4,0.9,1,1.4,0.8c0.2,0.3,0.4,2.1-0.2,2.5c1.3,1.6,0.5,2.7-0.1,3.8
		c0-1.1-0.6-1.5-1.2-2.5c-0.5-0.8-1-1.5-1.5-1.9c0,0.6,0.2,0.7,0.4,1.2c0.1,0.3,0.2,0.6,0.2,0.9c0,0.3-0.3,0.9-0.5,1.5
		c-0.1,0.3-0.2,0.6-0.4,1c-0.8-0.3-1.3-0.8-1.8-1.6c-0.6-1-0.1-2.4-0.4-3c-0.1,0.6,0.1,1-0.6,1.9c-0.1,1.2-0.5,1.6-0.9,2.3
		c-0.5-0.4-1-1.1-1.1-1.8c-0.1-0.4-0.1-0.8-0.2-1.2c0-0.1,0.2-0.5,0.2-0.8c0-0.4-0.1-0.7,0.1-1c-0.4,0.3-0.5,0.6-0.6,0.9
		c-0.1,0.2-0.4,0.3-0.5,0.3c-1.1-0.2-2.5-0.9-3-1.7c-0.3-0.4-0.7-2-1.2-2.4c-0.2-0.2-1.2-1.4-1.4-2.3c-0.2,0.3-0.4,1.1,0.3,1.8
		c-1.1-0.4-2.5-1.1-2.9-2.4c-0.1-0.4-0.2-1.4-0.2-2c0-0.8,0.8-1.8,0.7-2.3c-0.6,0.3-1.4,1.1-1.6,2.2c-0.2,1.6-0.1,2.6,0.7,3.3
		c1,1,2.6,2,3.9,2.3c0.4,0.8,0.2,1.8,1.3,2.6c0.8,0.6,2.6,1.4,3.2,1.8c0,0.7-0.5,1.7,0.8,2.5c0.5,0.3,1.3,1.6,1.7,1.2l0.9-1.8
		c0.4,1.1,1.4,1.9,2.5,2.2c0.3-0.8,0.7-2.6,1.1-2.9c1.1,0.9,1.2,2.1,1.2,3.3c0.5-0.6,1-1.3,1.4-2.1c0.2-0.5,0.8-2.3,0-3.3
		c0.2-1.1,0.6-1.5,0.2-2.7c0.8-0.2,2.1-1.8,2.3-3.3c0.2-1.7-0.8-2.9-1.5-4.3c0.4-0.8,0.6-2.2,0.5-3.4c-0.1-1-0.5-1.9-0.8-2.6
		c1.4-0.4,2.1-1.6,2.3-2.4c0.2-1.1,0.4-3.3-1.5-4.4c-1.2-0.7-2.2-0.9-3.2-0.6C40.9,954.9,40.1,955.5,39.7,956.6L39.7,956.6z
		 M22.4,960.4c0.3,0.8,1.4,1.6,1.8,0.9c-0.9-0.1-1.2-1-1.1-1.7c0.1-0.7,0.6-1.4,1.3-1.3c1.4,0.2,2.2,2.2,1.5,3.4
		c-0.4,0.8-1.8,2.3-3.3,3.1c1.5,0,3.2-1.4,3.7-2c0.8-1.1,1-1.8,0.9-2.4c-0.1-1.6-1.1-2.8-2.8-2.9S21.8,958.6,22.4,960.4L22.4,960.4z
		 M32.4,962.8c1.5,0.6,2.8,0.3,3,2.2c0.1,0.9-0.9,0.7-0.4,1.5c-0.7,0-1.3,0.4-2.5,0.3c-0.7-0.1-2.7-0.9-2.9-1.5
		c-0.4,0.7,1.8,2.3,2.8,2.3c0.8,0,1.8,0.1,2.5,0c0.6-0.1,1.3-0.2,1.5-0.5c0.2-0.6-0.4-0.5-0.7-0.8c0-0.3,0.5-1,0.6-1.5
		c0-0.7-0.6-1.2-1.2-1.8c-1-1-4-1.2-5-1.3C30.3,962.2,32,962.6,32.4,962.8L32.4,962.8z M41.5,962.8c-0.6,0.3-1.3,0.7-1.5,1.2
		c-0.3,0.8-0.3,2,0.3,2.7c0.5,0.5,1.3,0.9,2.3,1.1c-0.7-0.5-0.9-0.8-1.5-1.4c-0.5-0.5-0.7-1-0.7-1.6
		C40.5,963.7,41.1,963.4,41.5,962.8L41.5,962.8z"/>
	<path shape-rendering="auto" image-rendering="auto" color-rendering="auto" d="M41.8,968.8c-0.4,0-1.3-0.4-1.7-0.5
		c-0.8-0.2-1.4,0-2.1,0.4c-0.4,0.2-0.6,0.7-0.6,1.2c-0.1,0.4,0.2,0.9,0.5,1.1c0.5,0.4,1.6,0.6,2.1,0.8c0.4,0.1,0.4,0.8,0.7,1.1
		c0.6,0.5,1.1,0.6,1.9,0.3c0.4-0.1,0.7-0.9,1-1.2c0.6-0.4,1.3-0.5,1.7-1.1c0.4-0.6,0.4-1.4,0.1-2c-0.3-0.6-0.9-0.8-1.6-0.7
		C43.2,968.4,42.5,968.8,41.8,968.8L41.8,968.8z M44.6,969.2c0.3,0.3,0.3,0.9,0.2,1.2c-0.3,0.6-1.4,0.7-1.7,1
		c-0.3,0.2-0.8,0.9-1.2,0.9c-0.4,0-0.9-0.4-1.1-0.6c-0.4-0.5-1.2-0.3-1.8-0.6c-0.4-0.2-0.9-1-0.7-1.4c0.3-0.6,1.8-0.6,2.2-0.4
		c0.8,0.3,1.6,0.2,2.4-0.2C43.4,968.9,44.2,968.8,44.6,969.2L44.6,969.2z"/>
	<path d="M34.5,964.6c0,0.5-0.3,0.9-0.8,1.1s-1-0.1-1.3-0.5c-0.3-0.4-0.2-1,0.1-1.3c0.3-0.4,0.9-0.5,1.3-0.3
		c-0.3,0.3-0.6,0.6-0.7,1.2C33.4,964.6,33.6,964.3,34.5,964.6L34.5,964.6z"/>
	<path d="M42.5,964.8c-0.1,0.6-0.6,1-0.8,1.1c-0.3,0.1-0.9,0-1.1-0.4c-0.1-0.4-0.1-0.9,0-1.4c0.3-0.4,0.8-0.5,1.3-0.3
		c-0.3,0.3-0.4,0.4-0.6,1C41.5,964.6,41.6,964.5,42.5,964.8L42.5,964.8z"/>
	<path shape-rendering="auto" image-rendering="auto" color-rendering="auto" d="M78.3,951.2c-0.6,0.5-1.7,0.8-2.4,0.9
		c-0.7,0.1-1.4,0.1-2.2,0.6c-0.5,0.3-0.8,0.8-1,1.2c-0.3,0.4-0.6,1.4-0.6,1.4c0.6-0.6,0.6-0.9,1.1-1.4c0.4-0.4,0.7-0.7,0.9-0.8
		c0.6-0.3,1.2-0.4,1.9-0.6C77,952.2,77.9,952.3,78.3,951.2L78.3,951.2z"/>
	<path shape-rendering="auto" image-rendering="auto" color-rendering="auto" d="M79.7,951.6c-0.7,0.4-0.8,0.2-1.5,0.7
		c-0.8,0.6-1.1,1.7-1.9,2.2c-1,0.7-2.5,0.1-3.9,1c0.6-0.1,1.2-0.2,1.6-0.2c0.4-0.1,1.9,0.2,2.6-0.2c0.9-0.5,0.9-1.9,1.9-2.4
		c1.1-0.5,2.9-1.9,2.7-2.3C81.2,950.4,80.1,951.4,79.7,951.6L79.7,951.6z"/>
</g>
</svg>
