<?xml version="1.0" encoding="UTF-8"?>
<svg width="283.12" height="368.44" version="1.1" viewBox="0 0 283.125 368.4375" xmlns="http://www.w3.org/2000/svg">
 <path d="m192.93 365.51c-1.9574-1.2111 1.0863-1.722 9.9727-1.6738 11.855 0.0642 11.604 1.8864-0.28866 2.1016-4.8054 0.087-9.1632-0.10554-9.6841-0.42781zm-42.672-1.5299-1.8991-1.6471 2.1236-1.6018c2.0251-1.5275 2.1459-1.5163 2.6054 0.24087 0.32387 1.2385 0.0119 1.8427-0.95141 1.8427-1.1677 0-1.217 0.26054-0.26619 1.4062 1.5814 1.9055 0.71296 1.7758-1.6122-0.24086zm6.1714 0.80874c1.0789-0.68357 1.0789-0.88112 0-1.2685-0.70287-0.25238 0.30408-0.4722 2.2377-0.48848 1.9336-0.0163 3.5156 0.37498 3.5156 0.86947s0.39273 0.65636 0.87272 0.35971c0.48-0.29666 1.1377-0.11062 1.4616 0.41342 0.32604 0.52755-0.27266 0.95279-1.3415 0.95279-1.0617 0-1.9303-0.41143-1.9303-0.9143 0-0.59405-0.84228-0.59405-2.4048 0-2.9574 1.1244-4.1239 1.1611-2.411 0.0759zm-13.934-3.3804c-0.68989-1.2891-2.0719-2.3438-3.0712-2.3438-1.2298 0-1.6425-0.45436-1.2772-1.4062 0.62884-1.6388 0.17265-1.7461-2.1465-0.50487-0.92633 0.49576-3.1134 1.1154-4.8602 1.377-2.9415 0.44055-2.8298 0.30379 1.5115-1.8519 2.5781-1.2802 3.8438-2.0629 2.8125-1.7394-4.588 1.4391-5.3035 1.1743-1.6187-0.59908 3.6934-1.7775 4.1249-1.8095 5.5254-0.40901 1.7269 1.7269 4.2646 1.3584 10.217-1.484 2.0964-1.001 4.4378-1.82 5.2031-1.82s1.7923-0.35532 2.2821-0.78961c0.48985-0.43428 4.1301-1.914 8.0894-3.2883s11.474-4.7906 16.7-7.5918c5.2257-2.8012 9.3593-4.6671 9.1858-4.1466-0.44484 1.3345-17.9 10.615-24.647 13.104-9.1109 3.361-10.324 4.9603-6.5909 8.6929 2.7092 2.7091 9.8701 3.9352 18.177 3.1122 5.7925-0.57393 12.924-6.8644 18.592-16.4 1.3165-2.2147 2.5838-3.8366 2.8162-3.6042 0.79858 0.79857-4.6168 8.5739-9.3958 13.49-2.6314 2.707-4.3002 4.9219-3.7085 4.9219 1.5529 0 8.8828-6.4356 12.012-10.547 2.3071-3.0308 5.3008-5.1315 3.76-2.6384-0.32649 0.52827 0.49062 0.58684 2.054 0.14723 3.5937-1.0105 9.6651-0.14224 10.284 1.4707 0.69867 1.8207-0.5671 2.9165-1.5437 1.3364-2.2322-3.6117-11.174-1.3525-17.294 4.3697-3.1723 2.9658-7.6566 6.174-9.9652 7.1293-2.3086 0.95527-4.9299 2.1154-5.8253 2.5781-7.3706 3.8089-25.98-2.3193-24.535-8.0793 0.39371-1.5687 0.19426-2.3295-0.61073-2.3295-0.65746 0-0.91321 0.28217-0.56833 0.62705 0.94554 0.94554-2.2415 4.0604-4.1545 4.0604-0.92091 0-1.9351 0.42187-2.2538 0.9375-0.31868 0.51562-1.3734 0.9375-2.3438 0.9375-2.8102 0-3.3169 2.0118-0.98281 3.9018 1.4101 1.1418 1.672 1.7232 0.77634 1.7232-0.74343 0-1.9161-1.0547-2.606-2.3438zm16.878-3.7463c-1.2091-1.287-2.4428-2.0945-2.7415-1.7943-0.29875 0.30017 0.45277 1.3532 1.67 2.3401 3.1108 2.522 3.6808 2.2317 1.0715-0.54576zm-41.722 4.6918c0.51563-0.17201 2.0828-0.56487 3.4825-0.87304 1.7569-0.38679 2.3791-0.99285 2.0091-1.957-0.34261-0.89283 0.0275-1.3967 1.0259-1.3967 0.95376 0 1.298 0.42704 0.884 1.0968-0.45579 0.73748-0.16678 0.90069 0.88218 0.49817 0.85802-0.32925 1.56-0.40661 1.56-0.1719 0 0.80066-6.7858 3.2646-8.7864 3.1904-1.0972-0.0407-1.573-0.21474-1.0574-0.38674zm-6.4883-2.0278c-0.4083-1.064-0.15152-1.3119 0.92938-0.8971 0.82145 0.31522 2.584 0.57313 3.9169 0.57313 3.0526 0 2.5139 0.50246-1.32 1.2312-2.1929 0.41681-3.1086 0.18122-3.5262-0.90722zm94.613 0.61353c-1.5469-0.39361-5.0273-0.76557-7.7344-0.82658-4.944-0.11142-7.1714-1.9921-2.3438-1.9788 3.935 0.0108 14.448 1.8544 16.106 2.8245 1.8434 1.0785-1.759 1.0671-6.0276-0.019zm17.449-2.8884c-2.2626-0.4444-4.372-1.0899-4.6875-1.4344-0.94211-1.0287 12.336 0.45115 13.376 1.4907 1.1552 1.1552-2.6448 1.1306-8.688-0.0564zm-130.66-1.032c-0.64767-0.41134 1.1378-0.74475 4.031-0.75275 2.8565-7e-3 7.6626-0.65744 10.68-1.4434 3.0176-0.786 5.6801-1.2356 5.9166-0.99911 1.4173 1.4173-18.556 4.5112-20.628 3.1953zm103.19-1.4075c0.67675-0.27081 1.4854-0.23751 1.7969 0.074 0.31152 0.31152-0.2422 0.5331-1.2305 0.4924-1.0921-0.045-1.3143-0.26713-0.56641-0.5664zm6.1991-0.75587c5.1553-2.0057 5.2632-2.4468 0.47368-1.9361-2.6523 0.28278-3.4756 0.16717-2.2782-0.31987 3.0496-1.2405 14.531-2.1316 14.531-1.1279 0 0.93144-7.9657 3.5289-13.329 4.3464-2.9797 0.45415-2.9606 0.42365 0.60235-0.96255zm-113.63-1.9381c-2.7314-1.9131-2.6713-7.9156 0.079203-7.9156 0.68554 0 0.65234 0.37236-0.1003 1.125-3.3132 3.3132-0.0884 6.6214 7.2221 7.409l5.2466 0.5653-5.182 0.13783c-3.3664 0.0895-5.9121-0.3735-7.2656-1.3216zm53.463-1.4076c0.12891-0.54559-1.8682-1.7057-4.4381-2.5781-5.1933-1.763-7.5961-4.9008-6.0151-7.8549 0.5004-0.935 0.56558-1.7 0.14486-1.7-2.2007 0-2.9026 5.6902-0.9288 7.5291 1.0897 1.0152 1.51 1.8459 0.93402 1.8459-1.2676 0-3.9937-2.6054-3.9937-3.817 0-0.47879-0.63281-0.87053-1.4062-0.87053s-1.4062-0.42188-1.4062-0.9375c0-1.1797-3.0756-1.2295-4.2656-0.0691-1.1314 1.1032-15.61 3.8551-19.51 3.7082l-2.9433-0.11093 2.8125-0.79254c2.4623-0.69387 2.3202-0.75005-1.1408-0.45122-2.6276 0.22687-3.8851-0.0204-3.75-0.73716 0.11179-0.59316-0.42956-0.92711-1.203-0.74209-0.77344 0.18501-3.92 0.51909-6.9924 0.7424-6.1423 0.44643-7.2462 0.92472-5.1679 2.2391 1.1956 0.7561 1.1857 0.87408-0.07403 0.88653-0.79922 7e-3 -1.8915-0.42402-2.4273-0.9598-0.65406-0.65406-2.7951-0.68748-6.5156-0.10172-3.631 0.57165-5.7439 0.54912-6.1286-0.0653-0.54449-0.8697-6.0921-0.42708-10.546 0.84139-0.96692 0.27539-1.5177 0.11181-1.2239-0.36352 0.30084-0.48678-3.4353-0.34065-8.5545 0.33457-12.067 1.5917-22.438 1.524-25.964-0.16928-2.6194-1.2583-2.2816-1.313 4.9219-0.79764 10.55 0.75476 24.14-0.42792 20.859-1.8153l-2.3438-0.99119 2.7851-0.37492c1.5318-0.2062 2.938 0.084 3.125 0.64483 0.64394 1.9318 6.5925 1.1836 7.7475-0.97447 1.0581-1.9772 1.0043-1.9889-6.2951-1.3742-15.286 1.2874-24.706 2.6873-24.706 3.6716 0 0.65636-0.39337 0.61588-1.125-0.11575-0.61875-0.61875-1.9547-1.125-2.9688-1.125s-1.6315-0.2122-1.3722-0.47156c0.33825-0.33825 20.032-3.2784 21.959-3.2784 0.11342 0-0.0026-0.79859-0.25787-1.7746-0.38882-1.4869-1.079-1.6922-4.2558-1.2661-2.9818 0.39994-3.6988 0.22831-3.3565-0.80348 0.59381-1.7899 20.184-4.197 22.536-2.769 0.89535 0.54354 2.9294 0.98824 4.5201 0.98824s3.525 0.63281 4.2984 1.4062c0.83218 0.83218 3.1237 1.4062 5.6134 1.4062 2.566 0 3.9811 0.3657 3.6277 0.9375-0.83264 1.3472-6.8731 1.081-11.25-0.49579-4.469-1.61-7.6281-1.7514-8.476-0.37934-1.0168 1.6452 0.1648 2.0766 6.8209 2.4901 3.4885 0.21671 7.1864 0.52097 8.2177 0.67613 1.0312 0.15517 3.3516 0.38588 5.1562 0.51268l3.2812 0.23057-2.8125 0.64652c-1.5469 0.35558-4.0497 0.31301-5.5619-0.0946-2.9132-0.78528-9.6541-0.0661-10.379 1.1073-0.23702 0.3835 1.4598 0.48415 3.7708 0.22367 2.7779-0.3131 4.2017-0.11459 4.2017 0.58584 0 0.58268 0.61205 1.0594 1.3601 1.0594 2.751 0 10.828-2.0526 10.456-2.6572-0.51478-0.83666 17.224-1.2174 18.549-0.39813 1.9955 1.2335 13.019 1.3406 13.765 0.13368 0.43311-0.70078 3.5095-1.2461 7.9259-1.405 6.2429-0.22462 11.546-1.2983 6.4129-1.2983-1.0141 0-2.3216-0.47789-2.9057-1.062-0.61724-0.61724-1.7754-0.75858-2.7656-0.33749-2.4838 1.0563-9.2062 1.7343-16.704 1.6847-23.81-0.15756-27.656-0.32529-27.656-1.2062 0-0.52472 2.2148-1.004 4.9219-1.065 7.8066-0.17593 11.893-1.4917 5.3906-1.7358-9.4024-0.35303-16.287-1.0022-16.819-1.5859-0.28868-0.31692 5.2759-0.32559 12.366-0.0192 13.336 0.57618 14.681 0.39277 10.312-1.4063-2.1823-0.89882-2.3073-1.1254-0.81428-1.4755 0.97012-0.22751 2.6576 0.0115 3.75 0.5313 5.6185 2.6732 7.7121 2.7734 11.97 0.57296 2.127-1.0992 2.6467-1.0874 3.6175 0.0824 1.6279 1.9615-2.2844 3.2526-10.147 3.3486l-6.2671 0.0765 3.2812 1.4383c2.8364 1.2433 4.3615 1.2781 11.25 0.2569 7.4637-1.1065 21.998-1.3314 23.562-0.36463 0.38568 0.23837-0.012 1.7111-0.88376 3.2727-2.3441 4.1991 1.0248 6.8843 10.569 8.424 3.8854 0.62679 7.0644 1.5116 7.0644 1.9664s-1.0547 0.56203-2.3438 0.23849c-1.4441-0.36245-2.3438-0.18938-2.3438 0.45089 0 0.57153-1.0547 1.0391-2.3438 1.0391s-2.2383-0.44639-2.1094-0.99197zm-88.359-12.602c0-0.77344 0.66797-1.4062 1.4844-1.4062 0.81641 0 1.3086-0.52734 1.0938-1.1719-0.21484-0.64453-1.0938-1.1367-1.9531-1.0938-0.85938 0.0429-3.2852 0.14845-5.3906 0.23438-4.0943 0.16712-4.8383 2.238-1.0064 2.8014 1.1274 0.16577 1.8078 0.69312 1.5119 1.1719-0.29589 0.47876 0.5416 0.87048 1.8611 0.87048 1.5075 0 2.3991-0.5226 2.3991-1.4062zm173.91 12.63c-2.4788-0.47412-2.2563-0.60558 1.875-1.108 5.4345-0.66084 5.7436-0.58851 2.9786 0.69699-1.1226 0.5219-3.3067 0.70684-4.8536 0.41097zm-105-0.91081c0.31868-0.51563 0.97639-0.9375 1.4616-0.9375 0.4852 0 0.88217 0.42187 0.88217 0.9375 0 0.51562-0.65771 0.9375-1.4616 0.9375s-1.2008-0.42188-0.88217-0.9375zm119.36-1.5779c0.67675-0.27081 1.4854-0.23751 1.7969 0.074 0.31152 0.31152-0.2422 0.5331-1.2305 0.4924-1.0921-0.045-1.3143-0.26713-0.56641-0.5664zm5.332-1.2346c2.8028-1.2044 5.1449-1.2044 3.2812 0-0.77344 0.49984-2.25 0.8856-3.2812 0.85725-1.875-0.0516-1.875-0.0516 0-0.85725zm6.0938-2.3438c1.0093-1.2161 0.54937-1.4156-3.4008-1.4757-2.5124-0.0383-6.4664-0.43384-8.7867-0.87916-3.0176-0.57913-1.6829-0.663 4.6875-0.29455 4.8984 0.28331 9.0638 0.66073 9.2564 0.83872 0.69218 0.63964-0.78341 3.217-1.8418 3.217-0.77934 0-0.75548-0.39308 0.0854-1.4062zm-237.19-2.3991c0-0.54606 0.42188-0.73209 0.9375-0.41342s0.9375 0.76545 0.9375 0.99283-0.42188 0.41342-0.9375 0.41342-0.9375-0.44678-0.9375-0.99283zm214.44-0.061c0.63594-0.64071 1.3924-0.92876 1.6811-0.64011 0.28864 0.28865-0.23167 0.81286-1.1562 1.1649-1.3361 0.50876-1.4438 0.40108-0.52481-0.52481zm-9.3594-1.4674c-0.90234-0.2358-1.6406-0.87827-1.6406-1.4277 0-0.99282-8.0012-0.57317-13.125 0.68838-2.0709 0.5099-2.1423 0.44913-0.61289-0.52201 4.1319-2.6237 16.762-2.2742 17.824 0.49324 0.55664 1.4506 0.37937 1.5063-2.4453 0.76809zm-62.109-1.3416c-1.5469-0.38742-4.7109-1.1702-7.0312-1.7394-4.5953-1.1274-6.5625-2.9863-6.5625-6.2013 0-2.4178-4.2566-3.1239-13.125-2.1774-4.5076 0.4811-4.6845 0.5702-1.4062 0.70836 4.3314 0.18254 11.192 1.9243 10.461 2.6557-0.73282 0.73283-16.589-1.5234-18.72-2.6637-1.0054-0.53807-7.6149-1.0396-14.688-1.1145-9.8821-0.10465-13.26-0.46181-14.589-1.5424-0.9925-0.80695-1.4296-0.90683-1.0255-0.23437 0.47904 0.79737 0.03721 1.1719-1.3825 1.1719-1.1476 0-1.7833 0.3033-1.4126 0.67401 1.4932 1.4932-8.4361 2.6566-15.83 1.8548-10.159-1.1017-22.268-1.3215-23.546-0.42744-0.57524 0.4024-2.8956 0.91054-5.1562 1.1292-2.2607 0.21866-7.1689 0.99467-10.907 1.7245-3.7383 0.7298-6.7969 1.149-6.7969 0.9315 0-1.2655 3.067-3.0994 5.3291-3.1865 4.0078-0.15435 12.483-1.9785 12.483-2.6867 0-1.4348 24.383-0.99473 27.258 0.49199 2.129 1.101 4.1995 1.2978 8.5153 0.8095 3.2944-0.37272 5.1598-0.93606 4.4175-1.3341-0.70668-0.37891-3.5199-0.39171-6.2517-0.0284-2.7318 0.36327-5.1528 0.35963-5.3801-8e-3 -0.65968-1.0674 2.3177-1.4841 10.111-1.415 6.8083 0.0604 9.0986-0.69786 5.8608-1.9403-2.0317-0.77934-1.728-2.2137 0.46875-2.2137 1.0312 0 2.7912 0.9162 3.911 2.036 1.7791 1.7791 3.2875 2.0793 11.953 2.379 9.718 0.33613 9.8512 0.31282 6.6359-1.1608-1.8385-0.84261-4.4148-1.2806-5.8594-0.9962-2.4845 0.48919-3.5348-0.61857-1.6758-1.7675 1.2726-0.78655 13.16 1.3978 13.16 2.4182 0 1.3956 3.0173 0.94649 4.863-0.72377 1.6186-1.4648 1.8096-1.4553 2.9821 0.14817 0.99453 1.3601 2.7466 1.7631 8.5002 1.9551 3.9861 0.13305 7.4789 0.47336 7.7618 0.75623s1.3965-0.1036 2.4748-0.85884c2.4691-1.7294 3.988-1.7831 2.584-0.0913-1.7507 2.1095 0.98175 3.4722 7.8632 3.9216 3.4304 0.22403 6.9437 0.85935 7.8072 1.4118 1.151 0.73643-0.63566 0.86069-6.6947 0.46564-8.0522-0.52502-10.48 0.48797-4.3807 1.8276 1.541 0.33845 2.8018 0.96245 2.8018 1.3867 0 1.3898 5.7959 2.8297 11.39 2.8297 3.2105 0 5.4851 0.40875 5.4851 0.98568 0 1.0904-8.0694 0.9877-12.656-0.16106zm-141.8-0.50999c-2.9822-1.2023 0.38624-1.6899 9.2886-1.3446 7.9542 0.30852 9.0262 0.50986 5.9517 1.1178-4.1708 0.82476-13.416 0.96233-15.24 0.22677zm182.72-0.55623c-0.60732-0.60732-2.2569-1.1547-3.6657-1.2164-2.8568-0.12505-3.4863-1.6195-0.89261-2.119 1.9848-0.38222 7.8423 3.0925 6.5546 3.8883-0.49066 0.30324-1.389 0.0545-1.9963-0.55287zm-180.13-4.6269c-4.6779-1.1723-7.5-2.7513-7.5-4.1962 0-0.85391-1.3318-1.2478-4.2188-1.2478-2.3203 0-4.2188-0.42188-4.2188-0.9375 0-0.51563 1.0298-0.9375 2.2884-0.9375 3.3256 0 3.7682-1.5626 0.84597-2.987-5.9955-2.9223-3.8311-3.5592 12.025-3.5383 8.4203 0.0112 17.841-0.41214 20.935-0.9406s7.418-0.96327 9.6094-0.96626c2.9954-4e-3 3.9844-0.37121 3.9844-1.4791 0-1.2369-0.86624-1.3797-5.3906-0.88884-4.3749 0.47468-5.0547 0.37529-3.6078-0.52747 2.0527-1.2807 12.813-1.5861 26.342-0.74776 9.8426 0.60995 15.784 0.12123 30.469-2.5062 7.2695-1.3007 9.8642-1.3994 14.119-0.53727 2.867 0.58095 8.4568 1.0563 12.422 1.0563 5.6258 0 7.2092 0.2944 7.2092 1.3404 0 1.607 14.358 1.4457 17.426-0.19585 1.0048-0.53778 5.3149-1.282 9.5778-1.6539 5.9607-0.51996 7.9536-1.055 8.6289-2.3168 1.7193-3.2126 19.945-5.727 23.811-3.285 1.0794 0.68178 3.439 1.487 5.2437 1.7893s2.7491 0.307 2.0986 0.0103c-4.1942-1.9131-3.265-6.9385 1.2829-6.9385 6.8332 0 2.8263-11.283-4.5534-12.822-1.418-0.2957-2.5781-0.89635-2.5781-1.3348 0-0.43842 0.94922-0.45563 2.1094-0.0383 1.1602 0.41736 4.8516 0.51239 8.2031 0.21117 6.6593-0.59849 20.667 1.0015 17.175 1.9617-1.124 0.30906-3.3377 0.29277-4.9194-0.0362-4.063-0.84512-15.194-0.15339-14.54 0.90363 0.2966 0.47989 0.93199 0.62983 1.412 0.33317 0.47999-0.29666 0.87272 0.11834 0.87272 0.92221 0 0.80386 0.44678 1.4616 0.99283 1.4616 0.54606 0 0.75011 0.39272 0.45346 0.87272-0.29666 0.48-0.0935 1.1483 0.45156 1.4852 0.545 0.33683 0.75025 1.3707 0.4561 2.2975-0.7234 2.2792 1.2355 2.9287 10.302 3.4155 6.3672 0.34187 7.146 0.23055 5.1562-0.73705-3.1463-1.53-3.0775-1.459-2.4293-2.5079 0.65231-1.0555 6.1793 1.3683 6.1793 2.7098 0 2.6978-11.677 3.5557-18.516 1.3603-1.2775-0.41012-2.1094-0.28925-2.1094 0.3065 0 1.9845 13.255 3.6021 17.206 2.0998 1.9834-0.7541 2.2469-0.59085 2.2469 1.392 0 1.8706-0.28156 2.0956-1.6835 1.3453-0.92594-0.49555-4.3537-0.86528-7.6172-0.82162-6.7411 0.0902-10.47-0.57808-10.931-1.9586-0.17358-0.52079-1.3351-0.94685-2.5812-0.94685-3.5178 0-2.7316 2.5367 1.447 4.6684 4.4045 2.247 7.5374 2.4498 7.5374 0.4878 0-1.6554 2.405-1.8865 3.3708-0.3239 0.45001 0.72813 0.238 0.83234-0.64779 0.31844-0.77975-0.45237-0.9975-0.41586-0.53395 0.0895 0.43053 0.46938 2.7508 0.91669 5.1562 0.994 11.298 0.36314 17.265 0.19221 19.219-0.55048 1.1707-0.44512 7.1689-0.52296 13.329-0.173l11.201 0.6363-6.5625 0.78203c-12.946 1.5427-34.621 2.4187-36.169 1.4619-0.57439-0.35501-2.7331-0.2168-4.7972 0.30711-2.8641 0.72701-3.9278 0.66948-4.4917-0.24289-0.45804-0.74112-1.2241-0.89261-2.0155-0.3986-1.8345 1.145-3.6204 1.292-3.6204 0.2979 0-0.47001 0.49219-0.85455 1.0938-0.85455s0.87988-0.21386 0.61849-0.47526c-0.80613-0.80612-6.4014 0.65168-5.8604 1.5269 0.27987 0.45285 0.0831 0.82336-0.43738 0.82336-0.52044 0-1.2836-0.52734-1.696-1.1719-0.76313-1.1928-5.5303-3.3004-9.5148-4.2065-3.5123-0.79869-2.1884 2.8192 1.4654 4.0048 4.3573 1.4138 4.4104 1.9292 0.15669 1.5236-2.0591-0.19637-3.5207-0.58008-3.2481-0.85269 1.0383-1.0383-6.9382-4.1021-9.9318-3.8149-3.7231 0.35721-3.9759 1.897-0.4723 2.877 1.3826 0.38672 3.6741 1.0297 5.092 1.4288 1.418 0.39914 2.5846 1.1374 2.5925 1.6406 0.0301 1.9189 1.5887 3.2587 3.791 3.2587 1.2586 0 2.2884-0.38836 2.2884-0.86301 0-1.3038 4.9796-2.1278 7.4148-1.227 1.7573 0.65007 0.8113 1.0801-5.2345 2.3792-11.395 2.4486-15.052 1.6819-10.56-2.214l2.1045-1.8253h-2.1747c-1.1961 0-1.9003 0.27439-1.5649 0.60975 1.875 1.875-4.4167 5.1461-9.5591 4.9698-6.8345-0.23431-7.6472-0.0429-4.8006 1.1304 1.2891 0.53135 5.0859 0.9822 8.4375 1.0019l6.0938 0.0358-4.8644 0.59992c-2.6754 0.32995-5.1367 0.87226-5.4696 1.2051-1.241 1.241 9.5584 1.8522 13.582 0.76875 2.2449-0.6045 5.5673-0.82036 7.3831-0.47971 6.048 1.1346 1.2875 2.0488-11.387 2.1868-6.8034 0.0741-16.123 0.41029-20.71 0.74718-6.1375 0.45078-8.1653 0.33022-7.679-0.45658 0.36341-0.58803 0.21398-1.0691-0.33208-1.0691s-0.99283 0.45703-0.99283 1.0156c0 0.5586-0.52734 0.82227-1.1719 0.58594-0.64453-0.23633-1.0664-0.90429-0.9375-1.4844 0.12891-0.58008-0.2124-1.0547-0.75845-1.0547-0.54606 0-0.70545-0.46498-0.35422-1.0333 0.45907-0.74279-2.886-0.8857-11.898-0.50832-12.379 0.51841-12.472 0.50737-7.3802-0.88191 3.5-0.95499 9.9745-1.4339 20.156-1.491 12.327-0.0691 14.132-0.24025 10.132-0.96027-3.6306-0.65342-4.7372-1.2177-4.3528-2.2194 0.67703-1.7643-4.6593-1.8572-6.415-0.11164-1.959 1.9476-10.083 1.8924-14.364-0.0976-4.0705-1.8921-16.406-2.8492-16.406-1.2729 0 0.50609 0.52734 1.1171 1.1719 1.3579 0.79533 0.29708 0.64471 0.65564-0.46875 1.1159-1.9834 0.81992-4.786-0.1003-4.0302-1.3233 0.29799-0.48215-0.31422-1.1483-1.3604-1.4804s-1.6603-0.99524-1.3645-1.4738c0.76839-1.2433-4.0367-1.0487-8.7233 0.35325-2.7742 0.82988-3.6953 1.4936-3.0156 2.1733 0.67963 0.67963 0.10995 0.97847-1.8653 0.97847-3.2418 0-4.2553 0.66204-3.3229 2.1706 0.47094 0.76198 1.0065 0.74628 1.9755-0.0579 1.6376-1.3591 19.214-0.36866 23.113 1.3025 3.8984 1.6709 3.0975 2.8584-1.4062 2.0849-2.1914-0.37633-5.3555-0.64308-7.0312-0.59276-1.6758 0.0503-3.0469-0.30824-3.0469-0.79682 0-0.48857-1.582-0.72139-3.5156-0.51737s-7.9453 0.63168-13.359 0.95034c-10.988 0.64673-12.566 0.95984-11.723 2.3248 1.0226 1.6546-13.761 1.1166-15.933-0.57981-1.7348-1.3548-1.4277-1.4148 4.1053-0.80161 4.2986 0.47635 5.7989 0.36924 5.3353-0.38088-0.44507-0.72014 1.0429-1.048 4.801-1.0579 3.7093-0.01 5.0081-0.29127 4.073-0.88275-1.0631-0.67237-7.6373-0.53674-11.283 0.23278-0.25781 0.0544-2.5135-0.2277-5.0127-0.62694-7.748-1.2377-12.207-1.4626-13.227-0.66702-1.8771 1.4646-14.217 2.4266-30.325 2.3641-15.036-0.0583-16.046 0.0431-13.828 1.389 1.3161 0.79858 2.3929 2.198 2.3929 3.1098 0 1.7266 4.0965 2.435 5.0606 0.87515 0.63657-1.03 12.949 0.62085 14.158 1.8983 0.65635 0.69343-1.4206 0.83919-6.9254 0.48603-8.1187-0.52085-9.3522 2.0984-1.6315 3.4644 1.4812 0.26208 2.8705 0.65388 3.0873 0.87067 0.93125 0.93125-2.2933 1.2013-5.3117 0.44482zm146.48-10.272c3.4846-1.832 1.3024-2.5465-7.2632-2.378-9.7334 0.19148-10.129 0.35993-6.3289 2.6981 2.699 1.6608 10.158 1.4851 13.592-0.32009zm-73.828-4.5466c1.6157-0.6943 1.4861-0.81682-0.9375-0.88597-1.6078-0.0458-2.3435-0.37859-1.7176-0.77675 0.60218-0.38308-3.8275-0.7183-9.8438-0.74493-6.0162-0.0266-13.892-0.3915-17.501-0.81083-8.0941-0.94034-7.4712 0.14805 1.119 1.9551 4.3095 0.90653 8.6995 1.1415 13.523 0.72381 4.8693-0.42164 7.3482-0.28501 7.7897 0.42932 0.75202 1.2168 4.8541 1.2766 7.5682 0.11029zm85.584-2.6765c0.30136-0.91418-0.13116-1.0957-1.543-0.64764-1.096 0.34788-3.3169-7e-3 -5.0328-0.80297-2.7688-1.2853-4.5394-1.3564-14.743-0.59198-3.2935 0.24673 3.642 2.327 9.4986 2.849 9.7942 0.87305 11.3 0.77029 11.82-0.80642zm1.5614-2.881c0.29574-0.47851-0.31218-1.1113-1.3509-1.4062-1.0387-0.29494-2.7324-0.77561-3.7636-1.0682-1.2757-0.36191-1.875-0.0843-1.875 0.86876 0 2.0046 5.9046 3.3611 6.9895 1.6057zm-1.6294 20.395c-4.7077-1.0066-9.5284-3.5572-8.5148-4.5052 0.92274-0.86297 18.155 0.97476 18.155 1.9361 0 2.2624-4.9295 3.5762-9.6398 2.5691zm5.8898-1.6541c-2.6989-1.5781-11.072-2.0038-8.9614-0.45556 1.0009 0.73417 3.7431 1.322 6.0938 1.3063 2.9041-0.0194 3.8232-0.29205 2.8677-0.85078zm19.297 1.9442c-0.27596-0.44651 2.1247-1.0684 5.3348-1.382 16.628-1.6244 20.836-2.4405 22.393-4.3431 1.999-2.443 2.6198-2.4114 1.9631 0.10009-0.4847 1.8535-0.28652 1.9456 2.6659 1.2392 1.7542-0.41971 7.8301-0.76005 13.502-0.75634 5.6719 4e-3 9.0469-0.16453 7.5-0.37388-4.8324-0.654-4.9618-2.1114-0.1875-2.1114 2.6454 0 4.4062 0.42253 4.4062 1.0573 0 0.71246 1.2513 0.85722 3.8364 0.44385 2.8606-0.45743 3.737-0.3152 3.4455 0.55921-0.57794 1.7338-5.7789 2.6469-15.004 2.6342-4.5048-7e-3 -11.888 0.58892-16.406 1.3225-10.054 1.6323-32.76 2.7254-33.45 1.6102zm-9.099-2.4882c-5.0355-1.5988-7.5141-3.8516-5.2104-4.7356 0.79772-0.30612 3.0504 0.53186 5.0107 1.8639 1.9588 1.331 4.5885 2.42 5.8438 2.42 2.85 0 2.2816-0.6743-1.0827-1.2844-4.6726-0.84731-5.9907-2.7809-2.5151-3.6898 1.1306-0.29565 2.1279 5e-3 2.4037 0.72296 0.60295 1.5713 5.1652 2.4916 8.7738 1.7698 3.0004-0.60009 2.9712-2.2062-0.0401-2.2062-1.0008 0-1.8197-0.47106-1.8197-1.0468 0-0.68535 0.89019-0.80695 2.5781-0.35217 1.418 0.38205 6.7969 0.95858 11.953 1.2812 6.956 0.4352 8.6894 0.77768 6.7181 1.3273-1.4613 0.40741-5.2582 0.46564-8.4375 0.1294-5.3812-0.56912-5.651-0.50902-3.9056 0.87005 1.8569 1.4671 1.8546 1.4817-0.23438 1.5112-1.1602 0.0164-2.1094 0.34622-2.1094 0.73293 0 0.38672-1.3711 0.73373-3.0469 0.77114-1.6758 0.0374-4.7344 0.34307-6.7969 0.67929-2.3441 0.38213-5.3743 0.0956-8.0828-0.76439zm76.989-2.2713c0-0.48519 0.42187-1.1429 0.9375-1.4616 0.51562-0.31867 0.9375 0.0783 0.9375 0.88217s-0.42188 1.4616-0.9375 1.4616c-0.51563 0-0.9375-0.39698-0.9375-0.88217zm-239.06-2.8678c-0.77344-0.49984-2.9634-0.91525-4.8665-0.92315-1.9032-7e-3 -3.755-0.49119-4.1152-1.074-0.65214-1.0552 5.2571-0.76735 13.901 0.67712 3.912 0.65372 8.5485-0.17932 7.7939-1.4003-0.5165-0.83572 4.672-1.9395 9.1985-1.9568 2.2879-8e-3 2.5174 0.20121 1.5258 1.3959-0.6419 0.77344-2.4865 1.4213-4.0992 1.4396-1.6126 0.0184-5.4633 0.64459-8.5571 1.3916-6.6027 1.5943-8.8645 1.6887-10.781 0.45zm214.2-0.0358c-0.3065-0.49593 0.0436-0.90169 0.77788-0.90169 0.73433 0 2.4724-0.89457 3.8624-1.9879 2.2158-1.743 3.0754-1.8796 6.976-1.1083 3.1 0.61294 6.1382 0.52332 10.021-0.29562 7.3953-1.5598 11.21-1.5686 12.488-0.029 0.85717 1.0328 0.22924 1.2756-3.4008 1.315-10.603 0.11494-23.366 0.86949-24.282 1.4355-2.6062 1.6107-5.9186 2.419-6.4421 1.572zm-113.88-1.6667c1.8006-1.1394 13.125-1.9465 13.125-0.93546 0 0.41963-1.8457 0.76295-4.1016 0.76295s-5.5254 0.23902-7.2656 0.53116c-2.1953 0.36854-2.7335 0.25873-1.7578-0.35865zm79.437-2e-3c-2.9729-0.34172-2.5483-2.0083 0.53998-2.1196 1.8085-0.0652 1.7459-0.18656-0.52409-1.0156-2.2772-0.83172-3.102-2.3289-2.6659-4.8394 0.0738-0.42505-0.26893-0.52364-0.76171-0.21909-0.49277 0.30456-1.1252 0.18287-1.4053-0.2704-1.0741-1.7379 15.508-2.9076 17.552-1.2381 0.60971 0.49793 2.3742 0.73013 3.921 0.516 7.3173-1.0129 10.789-1.1052 11.287-0.30016 0.29855 0.48305 1.3866 0.87829 2.4178 0.87829 1.2505 0 1.6405-0.39032 1.171-1.1719-0.40567-0.67522 0.0329-0.5759 1.0349 0.23438 1.5865 1.283 1.0476 1.449-6.1482 1.8945-4.3379 0.26856-7.2543 0.76843-6.4808 1.1108 2.2304 0.98738 19.714 1.4788 23.359 0.65657 3.6303-0.81878 5.0218-0.30267 2.8636 1.0622-0.7585 0.47969-3.7205 0.87864-6.5822 0.88653-2.8617 7e-3 -5.6578 0.46902-6.2135 1.0247-1.5702 1.5702-7.8106 2.6836-10.027 1.7888-1.7817-0.71944-1.6944-0.813 0.81819-0.87753 7.9423-0.20397 9.2219-2.3349 1.5188-2.5292-3.027-0.0763-6.5054-0.68324-7.73-1.3487-2.5446-1.3828-3.7716-1.5752-11.733-1.8398-6.638-0.22055-8.5002 0.46073-6.8138 2.4928 0.77616 0.9352 2.7637 1.2772 6.5528 1.1276 3.8566-0.15231 5.9321 0.21552 7.1346 1.2644 0.93269 0.81353 2.3286 1.2705 3.1021 1.0155 0.94819-0.31259 1.1009-0.15097 0.46875 0.49616-0.95922 0.98199-11.992 1.8564-16.657 1.3202zm6.344-2.0456c-0.31868-0.51563-1.2928-0.93104-2.1647-0.92315-1.3662 0.0124-1.3909 0.13996-0.17904 0.92315 1.836 1.1865 3.077 1.1865 2.3438 0zm-15.914 0.97502c-0.25896-0.41902 0.45521-1.004 1.587-1.3 3.7106-0.97035 0.70614-2.0125-4.9635-1.7216-7.3499 0.37705-7.1871-1.3296 0.20872-2.188 4.8183-0.55922 5.9022-0.41756 6.6201 0.86517 0.47213 0.84364 1.2252 1.3072 1.6735 1.0301 0.87612-0.54148 2.3586 1.2378 1.6346 1.9619-0.98939 0.98938-6.3252 2.0568-6.7605 1.3525zm-17.367-2.272c0-0.19771 1.0419-0.55863 2.3154-0.80207 1.2734-0.24344 2.0923-0.0817 1.8197 0.35946-0.48008 0.77678-4.135 1.168-4.135 0.44261zm41.25-1.5155c0-0.51563 0.65771-0.9375 1.4616-0.9375s1.2008 0.42187 0.88217 0.9375c-0.31868 0.51562-0.97639 0.9375-1.4616 0.9375-0.4852 0-0.88217-0.42188-0.88217-0.9375zm39.57-1.5344c0.84395-0.84395 2.2-1.2791 3.0134-0.96693 2.5484 0.97793 1.6139 2.5014-1.5345 2.5014-2.7905 0-2.8999-0.11352-1.4789-1.5344zm-138.01-0.34044c-1.8047-0.37987-2.8594-0.7809-2.3438-0.89118 4.4069-0.9425 5.974-0.85155 7.0188 0.4074 1.3386 1.6129 0.9031 1.6579-4.675 0.48378zm119.63-3.589c-0.26396-0.4271 1.5884-0.59658 4.1164-0.37663 3.039 0.26442 5.614-0.10776 7.5999-1.0985 3.6435-1.8176 3.653-1.8181 3.653-0.20146 0 2.201-14.095 3.7386-15.369 1.6766zm-94.052-6.0662c0.31102-0.81048 0.0619-1.6785-0.55373-1.9289-0.61557-0.25043-0.20732-0.48862 0.90721-0.52932 2.2468-0.082 2.5082 2.7894 0.3204 3.5187-0.80898 0.26967-1.043-0.0986-0.67388-1.0605zm112.06 0.0759c0.49995-0.49995 1.6921-0.74301 2.6492-0.54014 1.2889 0.27321 1.0532 0.50895-0.909 0.90901-1.7108 0.3488-2.3272 0.21814-1.7402-0.36887zm-206.26-0.4361c0.67676-0.27081 1.4854-0.23751 1.7969 0.074 0.31152 0.31152-0.24219 0.5331-1.2305 0.4924-1.0921-0.045-1.3143-0.26713-0.56641-0.5664zm4.1602-6e-3c0.90234-0.2358 2.3789-0.2358 3.2812 0 0.90234 0.23581 0.16406 0.42875-1.6406 0.42875-1.8047 0-2.543-0.19294-1.6406-0.42875zm80.156 0c-2.9686-0.77576-1.7142-1.6932 2.6572-1.9435 3.8351-0.21957 4.1445-0.0937 2.879 1.1719-1.4218 1.4218-2.4826 1.5696-5.5362 0.77164zm-66.504-0.93167c0.67676-0.27081 1.4854-0.23752 1.7969 0.074 0.31152 0.31152-0.24219 0.5331-1.2305 0.49239-1.0921-0.045-1.3143-0.26713-0.56641-0.5664zm42.14-0.0227c1.1662-0.22424 2.8537-0.21573 3.75 0.0189 0.89633 0.23465-0.0579 0.41813-2.1203 0.40772-2.0625-0.0104-2.7959-0.2024-1.6297-0.42664zm7.8016 0.2838c0.21485-0.20859 1.8672-0.51588 3.6719-0.68287s3.4922-0.58245 3.75-0.92324c0.25781-0.3408 1.0127-0.0335 1.6776 0.68286 1.0216 1.1007 0.38013 1.3025-4.1406 1.3025-2.9422 0-5.1737-0.17066-4.9588-0.37926zm101.17-0.32403c3.5e-4 -0.38671 1.1197-0.76799 2.4874-0.84727 1.7794-0.10314 2.1126 0.0928 1.1712 0.68877-1.6144 1.0221-3.6596 1.1107-3.6587 0.1585zm21.992-0.29674c-0.95271-1.5415-0.25524-1.7365 4.1148-1.1503 2.692 0.36108 3.6246 0.80549 2.7946 1.3317-1.7686 1.1212-6.1758 1.0055-6.9094-0.18137zm-168.48-0.55809c0.64453-0.26007 1.6992-0.26007 2.3438 0s0.11719 0.47287-1.1719 0.47287c-1.2891 0-1.8164-0.2128-1.1719-0.47287zm24.375-1.875c0.64453-0.26007 1.6992-0.26007 2.3438 0 0.64453 0.26007 0.11718 0.47287-1.1719 0.47287s-1.8164-0.2128-1.1719-0.47287zm56.025-2.1818c-1.4768-1.5415-2.3636-3.1235-1.9706-3.5156 0.75048-0.74876 5.2425 3.9066 5.2425 5.4331 0 1.3356-0.354 1.1281-3.2719-1.9175zm-105.24 1.219c0.90234-0.2358 2.3789-0.2358 3.2812 0 0.90234 0.23581 0.16406 0.42875-1.6406 0.42875-1.8047 0-2.543-0.19294-1.6406-0.42875zm9.375 0c0.90234-0.2358 2.3789-0.2358 3.2812 0 0.90234 0.23581 0.16406 0.42875-1.6406 0.42875-1.8047 0-2.543-0.19294-1.6406-0.42875zm44.531 0.0253c0.64453-0.26008 1.6992-0.26008 2.3438 0 0.64453 0.26007 0.11718 0.47286-1.1719 0.47286s-1.8164-0.21279-1.1719-0.47286zm54.66-1.6694c-2.1925-2.3338-1.5429-3.5149 0.69977-1.2722 0.875 0.875 1.125 0.79791 1.125-0.34691 0-0.95961-1.5499-1.8968-4.4531-2.6928-18.008-4.9371-34.157-23.913-24.671-28.99 3.1547-1.6883 4.6742-1.1012 11.135 4.3028 3.4675 2.9003 10.726 7.5281 16.131 10.284 10.872 5.5438 11.09 6.3137 0.74201 2.6247-9.2557-3.2997-15.411-6.9242-20.367-11.992-4.5052-4.6072-5.7041-4.7216-5.7041-0.54452 0 14.164 15.745 24.238 38.906 24.895 5.6719 0.16094 10.77 0.31607 11.328 0.34473 1.9039 0.0977 1.0236 2.8643-0.9375 2.9462-5.3741 0.22461-18.118 1.6431-19.786 2.2023-1.3559 0.45457-2.537-0.0471-4.1478-1.7617zm-91.222 0.73193c0.64453-0.26007 1.6992-0.26007 2.3438 0s0.11719 0.47287-1.1719 0.47287c-1.2891 0-1.8164-0.2128-1.1719-0.47287zm9.6094-0.30896c5.3319-0.78561 17.486-1.2146 16.797-0.59292-0.21485 0.19372-5.2422 0.57732-11.172 0.85244-7.3089 0.3391-9.1206 0.25552-5.625-0.25952zm42.012 0.28943c0.67675-0.27081 1.4854-0.23751 1.7969 0.074 0.31152 0.31152-0.2422 0.5331-1.2305 0.4924-1.0921-0.045-1.3143-0.26713-0.56641-0.5664zm106.82 0.0195c0.64454-0.26007 1.6992-0.26007 2.3438 0 0.64454 0.26008 0.11719 0.47287-1.1719 0.47287s-1.8164-0.21279-1.1719-0.47287zm15.703-0.31658c-3.7135-0.50933-4.1031-0.70763-1.875-0.95431 4.3013-0.4762 10.209 0.0667 11.203 1.0295 0.99209 0.96056-1.9496 0.93686-9.3281-0.0752zm-245.33-0.6404c0.67676-0.27081 1.4854-0.23751 1.7969 0.074 0.31152 0.31152-0.24219 0.5331-1.2305 0.4924-1.0921-0.045-1.3143-0.26713-0.56641-0.5664zm154.4-0.28635c-0.32845-0.53143 0.0479-0.68859 0.88217-0.36844 1.6241 0.62324 1.9213 1.2952 0.57277 1.2952-0.48519 0-1.1399-0.41705-1.4549-0.92677zm103.59-0.93101c0-1.1375 6.5073-1.2584 8.2496-0.15319 0.746 0.4732-0.61694 0.83776-3.5156 0.94035-2.6976 0.0955-4.734-0.24313-4.734-0.78716zm-24.142-0.73039c-1.8358-0.30886-1.9353-0.53082-0.76294-1.7031 1.0829-1.0829 1.8216-1.1322 3.7559-0.25086 1.9227 0.87603 3.5378 0.783 8.0144-0.4616 6.6156-1.8393 9.4772-1.8648 14.541-0.12969l3.75 1.2849-5.3112-0.5176c-2.9212-0.28467-8.4055-9.3e-4 -12.188 0.62968-9.2358 1.5409-9.3815 1.5551-11.8 1.1483zm-109.45-1.6614c-26.526-5.889-67.616-32.353-60.807-39.162 0.28838-0.28838-0.64866-2.6795-2.0823-5.3135l-2.6066-4.7892 1.891-1.891 1.891-1.891 3.9926 3.3357c5.0172 4.1918 4.6923 4.2352 10.078-1.3467 3.0186-3.1284 5.287-4.6841 6.835-4.6875 3.7546-8e-3 26.316-23.548 23.517-24.536-1.0942-0.38649-2.8487-10.889-2.8582-17.11-8e-3 -5.5673-4.478-14.351-10.985-21.588-8.9607-9.9664-14.924-20.822-18.497-33.671-1.8042-6.4884-3.5414-10.516-5.8279-13.511-3.6493-4.7809-7.2399-11.564-8.1731-15.44-0.3404-1.414-1.8773-4.5552-3.4154-6.9804s-2.7965-4.9282-2.7965-5.562c0-0.63385-1.762-2.1333-3.9155-3.3321s-4.1107-2.7777-4.3492-3.5086c-0.3104-0.95106 0.46981-0.77987 2.7436 0.602 5.0485 3.0681 8.1978 3.2993 16.812 1.2343 9.0344-2.1657 10.272-2.2833 10.272-0.97608 0 0.51562-0.7777 0.9375-1.7282 0.9375s-4.1806 0.84375-7.178 1.875-6.6781 1.875-8.1794 1.875h-2.7296l1.8158 2.5781c0.99871 1.418 2.1302 3.6328 2.5143 4.9219 1.379 4.6272 9.1477 19.275 11.685 22.031 2.4171 2.6261 6.4514 14.068 5.349 15.17-0.90622 0.90623 7.6273 19.049 8.9598 19.049 0.40791 0 0.75484 0.52734 0.77095 1.1719 0.01612 0.64454 2.3353 3.7031 5.1536 6.7969 7.4916 8.2236 13.567 20.363 13.567 27.108 0 4.3612 0.37762 5.5762 2.2349 7.1912 1.2292 1.0688 2.9808 3.5973 3.8924 5.6188 1.4778 3.2771 2.0192 3.6755 4.9953 3.6755h3.3378l-3.018-2.5781c-4.2116-3.5978-4.9573-7.9637-1.7221-10.083 2.3017-1.5081 2.3524-1.7161 1.0373-4.2592-1.6152-3.1234-1.6948-3.7042-0.50827-3.7042 0.48088 0 1.1421 0.84375 1.4694 1.875 1.2991 4.0931 3.8293-1.6646 6.0725-13.819 3.4577-18.735 11.767-40.507 20.69-54.213l3.7027-5.6874-1.873-3.8767c-2.1074-4.3618-2.2942-6.4166-0.93007-10.234 0.89261-2.4982 0.86559-2.5393-0.50577-0.76873-1.505 1.9431-3.1993 0.84081-3.2354-2.1048-8e-3 -0.64454-0.43623-1.1719-0.95185-1.1719-1.4238 0-1.1199 2.4316 0.46875 3.75 1.5694 1.3025 1.8239 4.4508 0.52562 6.5026-0.5654 0.89353-3.4772 1.5672-8.6575 2.003-4.2931 0.36116-9.5887 1.1752-11.768 1.809-4.5762 1.3309-11.004 0.54158-9.9462-1.2213 0.47411-0.79011 0.23842-0.77121-0.79262 0.0636-0.80706 0.65342-2.1211 0.93721-2.92 0.63063-1.887-0.7241-5.8805 3.2462-5.5035 5.4716 0.32317 1.9075-3.3467 10.053-4.5292 10.053-0.42232 0 1.3071 4.1133 3.8431 9.1406 4.1472 8.2212 8.7939 19.816 11.272 28.125 0.4997 1.6758 1.1145 3.0469 1.3662 3.0469 1.9073 0 5.7484-4.1 8.9056-9.5058 3.2684-5.5964 5.6027-8.0168 5.5246-5.7286-0.0994 2.9127-11.651 17.537-13.13 16.623-1.1229-0.69402 1.475 5.1672 4.475 10.096 1.9599 3.22 1.9978 3.5156 0.45064 3.5156-2.8296 0-6.9682-8.1883-15.163-30-1.6466-4.3828-3.8829-10.289-4.9696-13.125-1.0867-2.8359-3.4821-7.2679-5.3232-9.8488-4.9175-6.8935-6.2567-9.6424-7.9563-16.332-0.84185-3.3134-3.4188-9.8298-5.7265-14.481-4.397-8.862-4.7623-9.9636-3.3034-9.9636 2.5987 0 11.293 17.847 11.296 23.186 4.07e-4 0.91203 1.2816 4.3658 2.8472 7.6751l2.8464 6.0168 2.7131-3.2043c1.9705-2.3273 2.5647-3.8216 2.1708-5.4596-0.37132-1.5444-0.013-2.6422 1.1367-3.4829 4.7642-3.4836-2.5969-19.106-9.0026-19.106-4.341 0-9.2327-3.0133-16.197-9.9773-3.5215-3.5215-6.8851-6.4206-7.4748-6.4425-3.133-0.11638-7.1756-1.7316-8.7093-3.4798-1.7007-1.9385-1.6977-1.9651 0.13716-1.2467 1.0312 0.40374 2.6085 0.94512 3.5051 1.2031 0.89654 0.25794 1.4549 0.75248 1.2407 1.099-0.21416 0.34651 0.4234 0.63002 1.4168 0.63002 2.5418 0 2.2299-0.61249-1.9438-3.817-2.0147-1.5469-3.6827-3.3661-3.7066-4.0426-0.06847-1.9404 8.0123 4.3311 12.798 9.9322 6.244 7.3087 13.73 12.552 18.723 13.115 3.9071 0.44039 8.7483 4.2301 8.7483 6.8483 0 0.47607 0.53277 0.86557 1.1839 0.86557s1.6004 0.94922 2.1094 2.1094c1.094 2.4936 18.702 3.3345 19.631 0.9375 0.24992-0.64454 1.2059-1.1833 2.1244-1.1972 2.5898-0.0394 13.534-4.9648 18.266-8.2204 5.2825-3.6344 6.3988-2.9753 1.9171 1.1319-3.0564 2.801-3.5541 5.2388-1.0695 5.2388 1.417 0 5.5249-4.7718 5.5249-6.4178 0-0.8011 1.3159-4.9431 2.9243-9.2045l2.9243-7.748-2.0058-7.768c-2.5163-9.7451-9.5796-27.921-10.855-27.933-0.52621-0.0047-3.0661-1.0305-5.6442-2.2795-4.6832-2.2689-4.6882-2.2692-5.4083-0.33084-0.66896 1.8007-0.84137 1.831-2.3988 0.42153-1.2319-1.1148-3.2114-1.4608-7.4453-1.3012-4.4184 0.16654-6.1466-0.1611-7.3892-1.4009-2.0166-2.0121-1.1372-3.0999 1.4058-1.7389 4.4636 2.3889 11.034 1.2846 12.098-2.0334 0.94937-2.9595 0.98016-2.9745 1.0731-0.52408 0.0527 1.3875 0.55479 2.8065 1.1159 3.1533 0.72583 0.44859 0.82803-2.0799 0.35419-8.7632-1.0199-14.386 2.2125-23.698 8.1902-23.594 2.0668 0.03601 2.0496 0.09423-0.42399 1.4362-3.375 1.831-3.2925 2.0205 1.4062 3.2276 20.816 5.3479 48.998 22.326 48.218 29.049-1.4588 12.58-8.3558 36.196-12.359 42.316-1.2265 1.8752-2.9682 5.0393-3.8704 7.0312-0.90224 1.992-1.9492 4.3067-2.3266 5.1439-0.57141 1.2676-0.0994 1.2008 2.8216-0.39922 7.8492-4.2994 12.309 6.273 4.7817 11.336-1.8047 1.2139-3.322 2.7041-3.3719 3.3116-0.17576 2.1421-3.2797 9.0833-6.363 14.229-1.8958 3.164-3.0321 3.9617-7.2716 5.1047-5.8953 1.5894-6.135 1.851-11.211 12.239-10.708 21.912-10.856 26.786-1.1854 38.906 3.8127 4.7786 6.3192 8.5196 8.48 12.656l1.2242 2.3438 6e-3 -3.0255c3e-3 -1.664-1.0489-5.8275-2.338-9.2522-2.8201-7.4923-2.9778-9.327-0.47573-5.5348 1.0206 1.5469 2.521 5.9766 3.3342 9.8438 5.6214 26.732 6.0724 27.971 11.045 30.331 3.3065 1.569 8.3034 9.0443 6.0457 9.0443-0.69526 0-2.0048-1.2538-2.91-2.7863s-3.1242-3.4878-4.9309-4.3452c-3.9336-1.8666-5.6881-4.9542-6.563-11.55-0.36442-2.7471-0.95778-4.4163-1.3464-3.7875-0.42159 0.68213-1.3163-0.74681-2.2751-3.6336-0.86917-2.6168-4.1686-8.6777-7.3322-13.469s-6.8507-10.703-8.1937-13.138l-2.4418-4.4273-1.7314 7.2398c-1.6439 6.8738-3.4861 12.909-6.5019 21.302-0.7411 2.0625-1.1346 4.8324-0.87451 6.1554 1.1914 6.0593-5.3083 17.669-8.4378 15.072-2.0629-1.712-3.7239-0.53687-2.4927 1.7636 0.62924 1.1757 1.5084 1.5756 2.5806 1.1738 1.4124-0.52921 1.4601-0.40491 0.36237 0.94505-0.69517 0.85492-2.0098 1.4612-2.9214 1.3474-1.0552-0.13179-3.7875 2.3479-7.5194 6.8242-3.2241 3.8672-8.3635 9.6751-11.421 12.906-3.0575 3.2313-5.3096 6.2788-5.0047 6.7722 0.30491 0.49337-1.6028 3.6767-4.2394 7.074-5.6135 7.2332-5.5555 7.4284 3.4747 11.695 8.3498 3.9451 20.731 7.3571 31.691 8.7335l9.1986 1.1552 1.2273 4.66c1.7965 6.8213 1.7387 7.0046-2.2056 6.9972-12.602-0.0235-40.406-10.772-49.302-19.06l-4.5364-4.2259 3.9674-5.4633c2.1821-3.0048 4.9878-6.5682 6.2348-7.9187l2.2674-2.4554-5.0531-5.2172-5.0531-5.2172-8.0817 7.0181c-9.7659 8.4807-9.7715 8.4373 2.6034 20.333 13.316 12.801 40.907 24.004 59.273 24.067l5.8359 0.0202-0.50208-3.0469-0.50208-3.0469 1.4298 2.3438c4.0333 6.6114-3.1185 8.5758-18.66 5.1254zm5.7188-8.5004c-0.33365-0.86947-0.81758-1.3699-1.0754-1.1121s-0.19576 1.1802 0.13789 2.0496c0.33365 0.86948 0.81757 1.3699 1.0754 1.1121 0.25781-0.25781 0.19576-1.1801-0.13789-2.0496zm1.8854-1.4703c-0.5729-2.1493-1.1641-3.2762-1.3138-2.5043-0.26894 1.3867 1.2936 6.4121 1.9938 6.4121 0.19894 0-0.10703-1.7585-0.67992-3.9078zm-6.0599-0.91128c-0.64225-2.2318-0.93104-2.5573-0.99095-1.117-0.0948 2.2802 0.86753 5.2965 1.491 4.673 0.2235-0.22351-2e-3 -1.8237-0.50002-3.5561zm-3.688 0.13157c-0.22704-1.5469-0.57584-2.8125-0.77514-2.8125-0.19928 0-0.36234 1.2656-0.36234 2.8125s0.34881 2.8125 0.77513 2.8125 0.58938-1.2656 0.36235-2.8125zm-4.6892-0.94898c-0.22796-1.5532-0.78771-3.0546-1.2439-3.3366-0.95519-0.59034-1.1466 4.5934-0.20441 5.5356 1.3189 1.3189 1.8469 0.51719 1.4483-2.199zm-4.8858-1.5823c0-1.7411-0.30226-2.229-0.96823-1.563-0.53253 0.53253-0.69834 1.6716-0.36845 2.5312 0.8684 2.263 1.3367 1.9238 1.3367-0.96823zm-4.6875-1.6875c0-1.2891-0.42187-2.3438-0.9375-2.3438-1.0474 0-1.285 3.09-0.3125 4.0625 1.0334 1.0334 1.25 0.73568 1.25-1.7188zm-39.982-28.299c0.56158-0.56159-4.4571-5.9194-5.5447-5.9194-1.1008 0-0.19008 2.458 1.6275 4.3927 2.1524 2.2912 2.8722 2.5717 3.9172 1.5267zm27.387-10.316c-0.25446-0.6631 0.0056-1.1052 0.57728-0.9825 0.57196 0.12272 2.3497-1.5441 3.9506-3.704s3.3326-3.9764 3.8482-4.0367c0.81239-0.095 5.2209-5.1731 11.093-12.778 2.3021-2.9813-0.318-4.2978-3.2581-1.637-1.0662 0.96488-2.0466 1.5434-2.1786 1.2856-0.13207-0.25781-3.2935 2.8008-7.0254 6.7969s-6.4431 7.2656-6.0248 7.2656c0.41827 0-1.2774 2.069-3.7682 4.5978-4.7967 4.8699-5.239 7.8707-0.74259 5.038 2.5134-1.5834 2.519-1.5814 0.88861 0.31862-2.4842 2.8951-1.9631 3.8004 0.73075 1.2697 1.3043-1.2253 2.1632-2.7703 1.9087-3.4334zm0.40738-2.5196c0-0.19467 0.73828-0.93296 1.6406-1.6406 1.4869-1.1661 1.5201-1.133 0.35396 0.35396-1.2247 1.5616-1.9946 2.0583-1.9946 1.2867zm3.3415-4.6084c0.35206-0.92458 0.87627-1.4449 1.1649-1.1562 0.28865 0.28865 6e-4 1.0451-0.64011 1.6811-0.92589 0.919-1.0336 0.81132-0.52481-0.52481zm-2.404-1.0166c0-0.19467 0.73828-0.93296 1.6406-1.6406 1.4869-1.1661 1.5201-1.133 0.35396 0.35396-1.2247 1.5616-1.9946 2.0583-1.9946 1.2867zm8.1249-4.1712c0.94534-1.7154 2.3152-3.6139 3.0442-4.2188 1.7797-1.4768 0.0284 1.6657-2.7831 4.994l-1.9799 2.3438 1.7188-3.119zm5.0001-6.1413c0-0.19467 0.73828-0.93296 1.6406-1.6406 1.4869-1.1661 1.5201-1.133 0.35396 0.35396-1.2247 1.5616-1.9946 2.0583-1.9946 1.2867zm17.077-8.8218c1.4554-2.4638 1.4126-2.6624-1.2083-5.5956-3.3802-3.7831-4.0715-3.8208-3.3437-0.18202 0.328 1.6399 0.2057 2.6328-0.28678 2.3285-0.47223-0.29185-1.1236-0.10189-1.4475 0.42215-0.32387 0.52403-0.14209 0.95279 0.40397 0.95279 0.54605 0 0.99283 0.98437 0.99283 2.1875 0 4.1721 2.3907 4.1167 4.8894-0.11328zm-16.16-1.3711c-0.0114-0.64453-0.81203-2.2013-1.7791-3.4594l-1.7582-2.2876 0.51252 2.7563c0.28189 1.516 0.977 3.0662 1.5447 3.4451 1.3959 0.93149 1.5041 0.89826 1.4801-0.4544zm9.9703-6.0938c0.28358-0.90234 0.97614-2.6953 1.539-3.9844 0.56289-1.2891 0.94487-2.8148 0.84885-3.3906-0.096-0.57575 0.54281-1.6304 1.4196-2.3438 1.3974-1.1369 1.5197-1.0982 0.99082 0.31366-0.33183 0.88583-0.19989 1.86 0.29322 2.1647 0.49311 0.30477 0.89656-0.0691 0.89656-0.8308 0-0.76169 0.28263-2.1214 0.62807-3.0216 0.42535-1.1084 0.27752-1.4201-0.45802-0.96548-0.70871 0.43802-0.89281 0.16758-0.52982-0.77833 0.30593-0.79725 0.9991-1.1758 1.5404-0.84134 0.58641 0.36242 0.70444 0.15569 0.29206-0.51154-0.38062-0.61588-0.16153-4.0884 0.48688-7.7166 1.1178-6.2548 1.2467-6.4838 2.487-4.4157 0.97896 1.6324 1.1435 1.7095 0.65396 0.30616-1.2443-3.5672-1.5815-6.6831-0.56584-5.2296 0.97254 1.3918 2.1911-2.0219 3.3203-9.3017 0.50834-3.2772 0.50736-3.2766-0.78841 0.46875-0.71356 2.0625-1.3298 4.5586-1.3694 5.5469-0.0397 0.98827-0.34724 1.5217-0.68359 1.1853-0.33635-0.33635 0.14265-3.3977 1.0644-6.8031 1.2042-4.4487 1.927-5.8379 2.5679-4.9353 0.63534 0.89486 0.75494 0.63424 0.41576-0.90605-0.26187-1.1892 0.10144-3.2986 0.80736-4.6875s2.3773-5.4202 3.7142-8.9585 3.0463-7.0489 3.7988-7.8013c0.75247-0.75247 1.3681-2.0159 1.3681-2.8077 0-0.9496 0.52377-1.2386 1.5388-0.84907 1.2867 0.49375 1.3447 0.35657 0.35396-0.8372-0.67064-0.80807-0.77299-1.4277-0.23584-1.4277 0.52197 0 1.85-1.9167 2.9512-4.2593s2.3654-4.0348 2.8095-3.7603c1.2722 0.78628 2.9913-1.8882 2.3268-3.6199-1.2124-3.1595-5.4156 1.6443-11.415 13.046-7.1879 13.661-11.198 24.513-15.246 41.25-2.6205 10.837-5.8537 20.797-8.3221 25.635-1.0723 2.1019-1.9496 4.4712-1.9496 5.2652 0 1.9735 1.8131 1.8277 2.4494-0.19703zm32.238-82.624c0-0.51562 0.42187-1.1982 0.9375-1.5169 0.51562-0.31868 0.9375-0.15753 0.9375 0.3581 0 0.51562-0.42188 1.1982-0.9375 1.5169-0.51563 0.31868-0.9375 0.15753-0.9375-0.3581zm-23.438 82.796c0-1.505-2.1144-4.1571-3.3142-4.1571-1.6746 0-1.7066 0.42925-0.21025 2.8252 1.055 1.6893 3.5245 2.6225 3.5245 1.3319zm0.27198-17.283c0.26986-1.032 0.10813-1.6399-0.35941-1.3509-0.46754 0.28895-0.85007 1.1333-0.85007 1.8763 0 1.9404 0.63703 1.6637 1.2095-0.52537zm10.681-37.674c-0.29927-0.74787-0.52142-0.52573-0.5664 0.56641-0.0407 0.98827 0.18086 1.542 0.49239 1.2305 0.31152-0.31153 0.34482-1.1201 0.074-1.7969zm3.0952-7.1452c-0.0124-1.3662-0.13996-1.3909-0.92315-0.17904-1.1865 1.836-1.1865 3.077 0 2.3438 0.51562-0.31868 0.93104-1.2928 0.92315-2.1647zm3.5833-7.2351c-0.28865-0.28864-0.81286 0.23167-1.1649 1.1562-0.50876 1.3361-0.40108 1.4438 0.52481 0.52481 0.64071-0.63594 0.92876-1.3924 0.64011-1.6811zm5.7773-10.288c0-0.51563-0.40894-0.30469-0.90878 0.46875s-0.90878 1.8281-0.90878 2.3438c0 0.51562 0.40894 0.30469 0.90878-0.46875s0.90878-1.8281 0.90878-2.3438zm7.9975-0.46875c-0.31868-0.51563-1.0819-0.93104-1.696-0.92315-0.67088 8e-3 -0.55525 0.37709 0.28971 0.92315 1.801 1.1639 2.1256 1.1639 1.4062 0zm2.1786-5.5171c-2.3284-4.0456-1.8781-6.2964 1.5179-7.5876 1.2861-0.48898 2.875-1.7483 3.5308-2.7984 1.798-2.8791 2.8621-2.2914 1.3046 0.72059-0.74801 1.4465-2.4464 3.125-3.7741 3.7299-2.8934 1.3183-3.0088 2.1863-0.58242 4.3821 1.778 1.6091 1.826 1.5797 1.6406-1.0033-0.12036-1.6766 0.27056-2.6695 1.0568-2.6842 4.1997-0.0784 4.8105-8.0776 1.0674-13.98l-2.841-4.4797 2.9551-5.3132c8.0853-14.537 12.695-26.592 15.296-40.001 0.80009-4.125 1.7104-8.3988 2.023-9.4972 1.5135-5.3191-16.921-16.19-45.642-26.916l-6.207-2.3179-1.1772 3.5668c-0.83456 2.5287-0.9839 6.4019-0.51316 13.308l0.664 9.7417 6.2514 1.7238c3.4383 0.94808 8.6819 2.0463 11.652 2.4405 8.5581 1.1356 10.451 2.8527 9.6508 8.7524-0.35994 2.6523-0.99055 9.463-1.4014 15.135-0.58018 8.0104-1.507 12.565-4.1519 20.405-1.8727 5.5507-3.4143 10.824-3.4258 11.719-0.0114 0.89465-0.84583 2.6813-1.8542 3.9704-2.589 3.3098-2.314 5.9086 0.9548 9.0228 1.5564 1.4828 4.9932 4.8975 7.6373 7.5883 5.4104 5.506 7.4212 5.6771 4.3678 0.37182zm-13.635-4.8326c-0.27503-1.0517-0.70953-1.7027-0.96555-1.4467-0.50719 0.50718 0.38868 3.3589 1.0552 3.3589 0.22572 0 0.18538-0.86048-0.0896-1.9122zm-27.557-0.81405c3.4496-2.1847 0.34186-5.8598-4.3768-5.1758-5.7518 0.83374-5.948 0.98866-4.7049 3.7168 1.1097 2.4355 6.2388 3.2595 9.0817 1.459zm-14.893-1.9613c0-1.0417-0.625-1.875-1.4062-1.875-1.4273 0-1.9231 1.9832-0.78125 3.125 1.1886 1.1886 2.1875 0.61772 2.1875-1.25zm4.6732 1.1719c-8e-3 -0.38672-0.40684-1.3237-0.88653-2.0822-1.0801-1.7079-2.3473-0.63978-1.5881 1.3387 0.5607 1.4612 2.5012 2.0442 2.4746 0.74356zm26.921-1.7364c0.21666-0.64886-1.9993-1.2522-5.9558-1.6217-6.7837-0.63347-7.395-0.4872-6.6019 1.5796 0.63192 1.6468 12.009 1.6849 12.558 0.0421zm-0.83706-4.5672c0.28845-0.28846 0.10408-0.94485-0.40972-1.4586-1.1271-1.1271-6.9096 0.64479-6.9096 2.1173 0 0.96616 6.2576 0.40305 7.3193-0.65866zm39.556-9.4444c0-1.9808-1.6539-2.4861-3.965-1.2113-1.8344 1.0118-1.9019 1.2218-0.48813 1.5184 0.90235 0.18927 1.6406 0.72182 1.6406 1.1835 0 0.46163 0.63281 0.5965 1.4062 0.29971 0.77344-0.29681 1.4062-1.1024 1.4062-1.7902zm-2.3438-0.42378c0.31868-0.51562 0.76545-0.9375 0.99283-0.9375s0.41342 0.42188 0.41342 0.9375c0 0.51563-0.44678 0.9375-0.99283 0.9375-0.54606 0-0.7321-0.42187-0.41342-0.9375zm-17.047-33.984c0.31446-4.7695 0.84808-10.22 1.1858-12.113 0.66176-3.7085-2.2711-5.4459-9.2165-5.46-3.178-0.0065-3.1855-0.20889 0.25456 6.9238 1.558 3.2304 3.5619 8.8961 4.4531 12.591 2.1199 8.7876 2.6354 8.4864 3.323-1.9415zm-159.8 229.3c-1.3382-1.6128 1.9301-2.3701 9.3078-2.1567 10.58 0.30603 12.378 0.10595 11.832-1.3169-0.27128-0.70695 0.06328-1.8671 0.74348-2.5781 0.6802-0.71102 1.7409-2.4326 2.357-3.8258 1.2872-2.9104 4.8036-4.977 10.14-5.9593 2.0447-0.3764 4.0738-1.1508 4.5092-1.721 0.49395-0.64689 0.60578-0.45276 0.29742 0.51636-0.4965 1.5604-0.01802 1.833 7.573 4.3149 1.6703 0.54613 3.8744 0.77396 4.898 0.50629 1.7715-0.46325 8.8828 2.9964 12.386 6.026 0.86425 0.74731 4.067 1.585 7.1171 1.8616l5.5458 0.50287 1.5472-3.8667c1.8593-4.6468 3.7103-5.2749 2.4344-0.82606-0.47963 1.6724-0.87206 3.2103-0.87206 3.4176 0 0.20733 5.2488 0.15029 11.664-0.12676 12.079-0.52166 13.399-0.32184 11.667 1.7656-0.75023 0.90397-1.5128 0.97885-2.8237 0.27727-0.98776-0.52862-2.1182-0.76195-2.5122-0.51849s-3.8657 0.53816-7.715 0.6549c-3.8493 0.11675-7.2504 0.59542-7.5579 1.0637s-6.3375 0.82824-13.4 0.79982c-7.0624-0.0284-14.826 0.40853-17.253 0.97098-6.2893 1.4576-50.702 1.6441-51.886 0.21783zm26.943-2.6795c-1.4947-0.77947-2.959-1.1758-3.2541-0.88074-0.7787 0.7787 1.9066 2.2794 4.0967 2.2894 1.4984 7e-3 1.3292-0.27607-0.84261-1.4087zm14.436-0.23984c-0.77344-0.26156-2.4609-0.9017-3.75-1.4225-4.3995-1.7775-8.4536-1.4959-5.4907 0.38149 0.85112 0.53929 0.90254 0.81071 0.15542 0.82032-0.6141 8e-3 -1.3773-0.40753-1.696-0.92315-0.73094-1.1827-4.2188-1.2366-4.2188-0.0652 0 0.47977 0.94922 1.0071 2.1094 1.1719 3.5872 0.50945 14.379 0.54059 12.891 0.0372zm11.389-4.1907c-1.7076-3.4712-6.8232-4.6522-5.9669-1.3776 0.52321 2.0008 3.765 4.4244 5.9179 4.4244 1.4287 0 1.4325-0.23445 0.04897-3.0469zm-17.092-0.36644c0.81315-0.70085-6.0995-0.16854-7.8906 0.60761-1.2063 0.52273-0.2032 0.6193 2.8125 0.27079 2.5781-0.29795 4.8633-0.69323 5.0781-0.8784zm8.9928-1.5984c-2.8497-4.3493-7.0287-5.2115-13.904-2.8689-6.0979 2.0778-5.4781 2.8474 1.9548 2.4274 4.3045-0.24323 7.3902 0.0987 9.6094 1.0648 1.7979 0.78266 3.384 1.4574 3.5248 1.4995 0.14079 0.0421-0.39247-0.91319-1.185-2.1228zm11.71 1.2618c0-0.51563-0.42188-0.9375-0.9375-0.9375s-0.9375 0.42187-0.9375 0.9375c0 0.51562 0.42188 0.9375 0.9375 0.9375s0.9375-0.42188 0.9375-0.9375zm12.012 7.7971c0.67676-0.27081 1.4854-0.23751 1.7969 0.074 0.31152 0.31152-0.24219 0.5331-1.2305 0.4924-1.0921-0.045-1.3143-0.26713-0.56641-0.5664zm28.077-0.96014c1.1662-0.22424 2.8537-0.21572 3.75 0.0189 0.89633 0.23465-0.0579 0.41813-2.1203 0.40772-2.0625-0.0104-2.7959-0.2024-1.6297-0.42664zm74.052-0.89533c0.64454-0.26007 1.6992-0.26007 2.3438 0 0.64454 0.26007 0.11719 0.47287-1.1719 0.47287s-1.8164-0.2128-1.1719-0.47287zm51.536-0.75543c-5.8943-1.0915-8.1198-1.925-7.161-2.6821 0.21485-0.16962 4.5736 0.11528 9.6862 0.63311 6.755 0.6842 11.239 0.63605 16.406-0.17615 3.9109-0.61472 8.0599-1.2635 9.22-1.4417 3.4731-0.53351 2.3843 0.91399-1.5812 2.102-2.0298 0.60815-4.0337 1.0468-4.4531 0.97488-0.41942-0.072-0.97352-0.039-1.2313 0.0732-0.25781 0.11221-1.5234 0.3106-2.8125 0.44087s-4.4531 0.4654-7.0312 0.74472c-2.5781 0.27933-7.5471-0.0217-11.042-0.66888zm-59.6-1.0798c-7.6328-2.6734-19.826-11.191-19.826-13.849 0-0.51562 1.3711 0.3349 3.0469 1.8901 4.178 3.8773 7.4082 5.8635 16.166 9.9405 7.6539 3.563 7.9671 4.5944 0.61303 2.0186zm93.611 0.73159c0-2.3504 10.106-3.9545 13.076-2.0756 1.8501 1.1704-2.4027 2.2423-6.3983 1.6126-1.6055-0.25303-3.1569-0.0753-3.4476 0.39497-0.66358 1.0737-3.2303 1.1278-3.2303 0.068zm-45.469-1.088c-0.31868-0.51563 0.31414-0.9375 1.4062-0.9375s1.7249 0.42187 1.4062 0.9375c-0.31868 0.51562-0.95149 0.9375-1.4062 0.9375s-1.0876-0.42188-1.4062-0.9375zm-46.406-3.6363c-4.8737-1.5694-11.51-4.6824-10.156-4.7637 0.34397-0.0206 2.6643 0.83829 5.1562 1.9088 2.492 1.0704 6.8512 2.5119 9.6871 3.2031s4.1016 1.2693 2.8125 1.2846c-1.2891 0.0152-4.6641-0.7195-7.5-1.6327zm72.538 1.0152c2.0827-3.3699 8.43-4.0168 24.493-2.4963 11.372 1.0764 8.042 1.6036-5.7164 0.90499-11.438-0.58085-13.628-0.45834-16.275 0.91055-1.6823 0.86993-2.8081 1.1763-2.5018 0.68075zm-10.839-1.7694c0.67675-0.27081 1.4854-0.23751 1.7969 0.074 0.31152 0.31153-0.2422 0.5331-1.2305 0.4924-1.0921-0.045-1.3143-0.26713-0.56641-0.5664zm-152.64-1.1778c-1.8047-0.36579-7.162-2.8838-11.905-5.5956-6.414-3.667-9.1768-4.7712-10.781-4.309-5.2884 1.5236-5.8959 1.6099-4.9698 0.70606 3.7614-3.6708 6.8758-3.2243 18.059 2.5888 5.9418 3.0885 11.376 5.6154 12.075 5.6154s1.2718 0.42187 1.2718 0.9375c0 0.51562-0.10547 0.88898-0.23438 0.82969-0.12891-0.0593-1.7109-0.40709-3.5156-0.77289zm116.21-0.38419c-0.3482-0.32903-5.5829-0.81366-16.368-1.5153-2.2644-0.14733 2.1726-1.88 4.8474-1.8929 2.5984-0.0126 3.0496-0.39771 3.5856-3.0612 1.1425-5.6764 1.45-6.2542 3.0097-5.6557 2.2888 0.8783 1.0174-5.194-3.0551-14.592-2.6428-6.0984-3.5846-9.8436-4.3192-17.176-0.92464-9.2291-0.51681-13.793 0.60187-6.7347 2.0133 12.702 2.9916 16.464 5.8456 22.473 1.8772 3.9529 3.4179 8.9007 3.7383 12.006 0.59575 5.7723 0.86383 6.0995 6.369 7.7741l3.7519 1.1413-3.75-0.31727c-2.0625-0.1745-5.1211-0.7641-6.7969-1.3102-2.9268-0.9538-3.0468-0.89391-3.0452 1.5197l2e-3 2.5127h9.8758c7.3391 0 10.079-0.32913 10.668-1.2814 0.62634-1.0128 1.4542-1.0682 3.9506-0.26434 5.4307 1.7488 14.109 0.83642 15.002-1.5771 0.41371-1.1184 1.0219-2.0335 1.3515-2.0335s0.3289 0.70455-2e-3 1.5657c-1.3101 3.4142 9.948 4.3615 19.196 1.6152 5.0348-1.4952 12.224-1.4576 28.514 0.14885 10.276 1.0134 9.2154 2.435-1.3722 1.8391-22.956-1.2921-23.699-1.2752-28.594 0.6528-3.8434 1.5139-6.038 1.7478-12.188 1.2984-16.563-1.2103-38.012-0.17571-37.031 1.7863 0.4581 0.9162-2.9374 1.8831-3.7886 1.0789zm75.544-0.66873c0.29876-0.48339 1.6433-0.87888 2.9879-0.87888 3.003 0 2.5134 0.66171-0.95492 1.2906-1.4769 0.26781-2.3443 0.0922-2.0329-0.41175zm7.2294-0.58763c0.90235-0.2358 2.3789-0.2358 3.2812 0 0.90235 0.23581 0.16407 0.42875-1.6406 0.42875s-2.543-0.19294-1.6406-0.42875zm-193.75-2.7776c0.97737-4.1375 2.447-5.0741 2.0961-1.3358-0.16567 1.765-0.84696 3.3883-1.514 3.6074-0.89282 0.29324-1.0464-0.30604-0.58209-2.2716zm175.7 1.6532c0-1.0394 6.2575-2.2785 7.5312-1.4913 0.51527 0.31846 0.69413 0.97173 0.39747 1.4517-0.68868 1.1143-7.9287 1.1504-7.9287 0.03955zm-214.42-7.2936c-3.1788-6.7358 4.3104-48.227 9.9323-55.026 1.9856-2.4014 4.7479-11.561 5.3601-17.773 1.0151-10.302 24.75-52.851 24.75-44.369 0 0.69699-2.182 4.5993-4.8489 8.6719s-6.3834 9.7582-8.2589 12.635c-4.0425 6.2-7.9299 16.706-9.8019 26.49-0.74298 3.8832-2.3928 9.3035-3.6663 12.045-6.9441 14.95-9.841 25.598-11.377 41.818-0.6693 7.0698-0.8707 13.51-0.44755 14.311 0.42315 0.80123 0.47734 1.9293 0.1204 2.5068-0.4039 0.65352-1.0694 0.15919-1.7623-1.3091zm172.62 1.6962c0.31448-0.50884 1.9095-1.219 3.5445-1.5781 1.635-0.35911 4.3723-1.439 6.083-2.3999 4.0537-2.2768 4.0628-0.65119 0.01 1.7402-3.5134 2.073-10.544 3.7056-9.6372 2.2378zm-17.547-4.202c-0.81216-1.2395-2.1572-4.9441-2.9889-8.2324-0.83173-3.2883-1.7294-6.717-1.9948-7.6194-0.26539-0.90234-0.0878-1.6406 0.39461-1.6406 0.48242 0 1.5848 2.6367 2.4498 5.8594 0.86498 3.2227 2.2522 7.4457 3.0827 9.3846 1.7662 4.1233 1.1879 5.5014-0.94351 2.2484zm26.223-1.2424c-0.34375-0.34375-0.625-2.1834-0.625-4.0882 0-3.0566-1.4444-11.501-4.7788-27.937-1.0288-5.0713-8.0106-23.433-13.207-34.735-1.5701-3.4146-2.9516-6.8392-3.07-7.6102-0.11839-0.77102-0.83238-1.4038-1.5866-1.4062-1.5571-5e-3 -4.9942-3.8191-11.409-12.661-2.4318-3.3516-6.3061-8.5955-8.6096-11.653-4.5788-6.0779-4.7977-8.6222-0.28795-3.3468 6.9048 8.0771 15.097 18.515 17.433 22.213 1.4015 2.2184 2.9552 3.8987 3.4526 3.7339 2.0706-0.68602 6.0454 6.0276 12.668 21.397 7.9825 18.524 15.711 61.783 10.021 56.094zm-145.88-9.1555-4.0397-4.1162 1.9729-2.1176c1.951-2.0941 1.995-2.0976 3.965-0.31733 5.3435 4.8291 6.9885 9.6733 2.2251 6.5521l-2.4357-1.5959 1.5959 2.4357c2.6003 3.9685 1.0459 3.5705-3.2834-0.84078zm4.3469-5.0247c-4.0746-4.1728-4.2275-4.9939-1.1917-6.4011 2.0176-0.93526 2.6316-0.67475 5.6177 2.3833 4.7939 4.9094 4.551 7.9212-0.28948 3.5886l-2.3566-2.1094 1.5931 2.5451c3.0542 4.8796 1.3951 4.8763-3.3729-7e-3zm5.5251-4.1174c-3.911-3.4625-4.1356-4.5244-1.3281-6.2777 1.8774-1.1724 2.2967-0.99176 5.1562 2.2218 3.749 4.213 4.1315 6.4009 0.56294 3.22-1.4024-1.25-2.1007-1.64-1.5518-0.86654 3.5337 4.9794 1.9408 5.9345-2.8393 1.7025zm99.753-12.015c-0.74357-0.45955-1.0407-1.1468-0.66035-1.5272s1.1838-0.19942 1.7854 0.40215c1.4165 1.4165 0.62587 2.2071-1.125 1.125zm3.5099-0.55256c-0.37464-0.37465-0.1991-1.262 0.39008-1.972 0.80518-0.97017 0.78145-2.5857-0.0956-6.5046-1.2305-5.4986-0.89859-9.1631 1.5048-16.613 1.1472-3.5562 1.2355-5.0574 0.40453-6.8811-0.81363-1.7857-0.79947-2.2448 0.0604-1.9582 2.4567 0.8189 3.0986 3.3745 1.8808 7.4884-3.2348 10.928-3.3699 15.085-0.69718 21.448 0.69661 1.6584-2.3584 6.0821-3.4479 4.9926zm-95.394-11.401c-0.0053-0.38671 0.90688-3.3124 2.0269-6.5016 2.5368-7.2235 1.13-15.515-2.7256-16.064-2.387-0.33981-2.5003-0.7839-0.89924-3.5246 1.6654-2.8509 9.4524-11.644 10.312-11.644 1.1064-6.9e-4 -1.1386 3.7815-4.1539 6.998-2.7207 2.9022-3.4202 5.556-1.7385 6.5953 0.51562 0.31868 0.9401 1.2928 0.94328 2.1647 0.0028 0.87191 0.63599 2.7937 1.4062 4.2706 1.8575 3.5616 1.7659 5.8662-0.3734 9.3916-0.97563 1.6077-2.0638 4.2942-2.4182 5.97-0.55394 2.6193-2.3523 4.3903-2.3799 2.3438zm-15.18-6.129c-3.9567-3.4332-5.0817-5.9597-6.768-15.199-0.65872-3.6094-1.5172-7.3008-1.9078-8.2031-0.4155-0.95991-0.30971-1.6406 0.25496-1.6406 1.2132 0 2.6504 4.6362 3.3979 10.961 0.8303 7.0257 2.8196 11.066 6.5986 13.401 1.8223 1.1262 3.0747 2.4335 2.7833 2.9051-0.6761 1.094-0.3317 1.2697-4.3589-2.2246zm7.8519-13.667c-3.7066-3.9738-6.765-9.3653-5.6895-10.03 1.4077-0.87004 3.4379 1.2575 4.6212 4.843 0.63947 1.9376 2.4307 4.1545 4.4843 5.55 3.039 2.065 3.1786 2.3236 1.2548 2.3236-1.1906 0-3.2924-1.209-4.6708-2.6867zm27.025-16.8c0-1.4573 2.8014-2.1791 4.5337-1.1681 1.454 0.84859 1.4537 0.91242-4e-3 0.93899-0.86017 0.0157-2.2313 0.28458-3.0469 0.59756-0.81576 0.31298-1.4831 0.14718-1.4831-0.36844zm73.571-16.372c-2.1617-5.8595-5.1338-15.349-5.1338-16.391 0-2.8404 1.9011 0.17074 4.7368 7.5025 1.6416 4.2444 3.1909 8.2444 3.443 8.8889 0.25312 0.64716-0.2294 1.1719-1.0776 1.1719-0.84478 0-1.7305-0.52734-1.9683-1.1719zm-58.962-25.312c-1.9534-3.9961-3.8727-7.2656-4.2652-7.2656s-1.7204-1.003-2.9509-2.229c-5.3419-5.3223-10.546-9.021-12.694-9.021-1.3015 0-2.0574-0.40937-1.731-0.9375 1.5425-2.4959 5.7505-0.82988 11.031 4.3674 2.9646 2.9177 5.5398 5.1326 5.7227 4.9219 0.44361-0.51095-1.009-13.477-1.8053-16.115-0.49091-1.626-0.37625-1.8414 0.52479-0.98613 0.6341 0.60194 1.4907 4.4448 1.9035 8.5398 0.59871 5.9391 1.5354 9.0064 4.63 15.161 2.1337 4.2437 3.7233 8.4164 3.5324 9.2727-0.20387 0.91458-1.8122-1.4404-3.8986-5.7088zm53.799 5.625c-0.0158-0.1289-0.14405-5.5078-0.28512-11.953-0.20582-9.403-0.67194-12.83-2.3587-17.344-3.297-8.8219-3.4686-9.8143-1.2176-7.0402 4.7081 5.8023 8.6802 36.571 4.7212 36.571-0.45709 0-0.84397-0.10547-0.8597-0.23438zm-62.315-6.1415c-1.5469-1.4394-4.8164-3.989-7.2656-5.6657-3.9559-2.7082-5.635-4.8334-3.8186-4.8334 1.1769 0 10.996 7.0115 13.129 9.375 3.9099 4.3325 2.3344 5.1988-2.0444 1.1242zm-5.3445-22.298c-4.0517-1.2466-6.1901-2.7601-5.2408-3.7095 0.66478-0.66478 9.5592 3.0552 9.9244 4.1508 0.19161 0.57482 0.20776 1.0158 0.0359 0.97984-0.17188-0.0359-2.2957-0.67544-4.7195-1.4212zm-62.007-33.904c-4.0612-6.6285-3.9669-25.896 0.15657-32 2.8007-4.146 7.6636-8.3598 7.6636-6.6408 0 0.60775-1.0653 1.943-2.3674 2.9672-6.2536 4.9191-7.7623 34.501-1.7595 34.501 0.66204 0 1.4644 0.42188 1.7831 0.9375 0.33709 0.54543-0.59682 0.9375-2.2331 0.9375-1.5469 0-3.0064-0.31641-3.2433-0.70312zm28.56-30.594c-3.4068-1.2225-7.6144-5.4559-7.6144-7.6609 0-1.9975 1.6561-1.6454 2.336 0.49657 2.6716 8.4175 15.291 7.2292 14.674-1.3818-0.2863-3.9923-1.9214-17.369-2.4638-20.156-0.25085-1.2891-0.72542-4.7695-1.0546-7.7344-0.59166-5.3289-0.63327-5.3906-3.6329-5.3906-1.6906 0-4.5637-1.0379-6.488-2.3438-1.8995-1.2891-3.6741-2.3438-3.9434-2.3438-1.2883 0-6.9763-5.1253-9.1368-8.2329-4.5636-6.564-15.058-10.379-22.036-8.0102-8.8807 3.0146-13.93 7.5745-14.941 13.491-0.37657 2.2059-1.2022 4.1832-1.8348 4.3941-0.8284 0.27613-0.9858-0.49002-0.56266-2.7388 0.84084-4.4688 2.8926-9.216 3.9833-9.216 0.51324 0 2.5387-1.4721 4.501-3.2713 9.5218-8.7305 21.814-7.1145 33.512 4.4058 7.5873 7.4721 8.0503 7.8343 12.262 9.5941 5.058 2.1134 8.3944 1.8877 9.6185-0.65045 1.2368-2.5644 1.3499-0.78193 0.2961 4.6638-0.92972 4.8044 0.65112 14.439 1.9796 12.066 0.46474-0.83045 0.60433-1.8993 0.3102-2.3752-0.29413-0.47591-0.06391-1.1563 0.5116-1.512 0.75705-0.46788 0.87034 1.5232 0.40975 7.2008-0.38572 4.7546-0.23053 9.6283 0.39374 12.366 2.3196 10.172-3.1108 17.2-11.08 14.34zm-13.911-9.1653c-1.4732-1.4732-3.3676-1.9876-8.0979-2.1988-6.1531-0.27474-12.15-2.767-13.043-5.4207-0.29578-0.87854-0.7093-0.86682-1.8225 0.05166-1.6969 1.4001-3.9544 0.72673-7.5804-2.2612-2.1724-1.7901-3.321-2.0644-6.7026-1.6009-4.3585 0.5974-6.6862-1.4032-5.9446-5.1094 0.20265-1.0129-0.61602-1.9961-2.2518-2.7044-4.2049-1.8207-4.677-8.2838-0.69358-9.4954 1.0785-0.32805 1.1111-0.1655 0.1674 0.83482-2.2891 2.4265-1.3954 5.557 1.9903 6.9716 1.7392 0.72669 3.3872 2.1817 3.6622 3.2334 0.29659 1.1342 1.2761 1.9122 2.4075 1.9122 2.215 0 3.4442-1.4624 1.9864-2.3633-0.63401-0.39184-0.09052-1.8099 1.4856-3.8764 2.5554-3.3503 2.5293-5.274-0.04267-3.1395-2.8984 2.4055-7.3358-4.599-5.2166-8.2344 0.77428-1.3282 0.94314-1.1199 0.97861 1.2073 0.06638 4.3552 1.1925 5.6053 3.6671 4.0708 2.7533-1.7073 3.837 0.10107 3.4405 5.7412-0.40809 5.8054-0.35722 5.6568-1.9372 5.6568-1.9545 0-1.7683 2.7429 0.23438 3.4532 0.90234 0.32 2.2734 1.0934 3.0469 1.7187 1.9252 1.5565 8.4375 2.4921 8.4375 1.2122 0-0.54888 1.889 0.74327 4.1978 2.8714 4.6549 4.2908 6.1147 4.7748 6.1147 2.0274 0-1.0131 0.84375-2.2936 1.875-2.8455 1.5976-0.85499 1.875-0.71296 1.875 0.95984 0 1.2205-0.40074 1.7156-1.0591 1.3087-0.63136-0.3902-0.89168-0.15223-0.64453 0.5892 0.78816 2.3645 2.6453 1.9744 4.2807-0.89908 1.7352-3.0487 3.7747-4.1309 2.1842-1.159-0.80751 1.5088-0.62721 1.6794 1.3716 1.2973 2.1145-0.40421 2.2561-0.21368 1.744 2.3466-0.73192 3.6596 1.2567 4.4424 4.4054 1.734 2.5239-2.171 4.9283-12.232 3.9848-16.674-0.38038-1.7912-0.2898-1.8977 0.53093-0.62446 4.1139 6.382-4.1976 24.242-9.0318 19.408zm-37.532-13.596c-0.64453-0.26007-1.6992-0.26007-2.3438 0s-0.11719 0.47286 1.1719 0.47286c1.2891 0 1.8164-0.21279 1.1719-0.47286zm51.055 13.16c-1.3082-1.3082-0.61979-1.9145 2.174-1.9145 1.6184 0 2.695 0.43657 2.5047 1.0156-0.39664 1.2066-3.7304 1.8472-4.6787 0.89892zm-31.602-12.349c0-1.4048 3.1507-6.7403 3.9844-6.7473 0.38672-0.0033 0.70312 1.4955 0.70312 3.3306 0 2.079-0.36883 3.1086-0.97857 2.7318-0.53821-0.33263-1.5929-0.09494-2.3438 0.52821-0.846 0.70212-1.3652 0.76171-1.3652 0.15668zm-2.4501-2.974c0.33566-1.7886 1.0801-3.687 1.6542-4.2188 0.75941-0.70332 0.87757-0.08057 0.43359 2.2852-0.33566 1.7886-1.0801 3.687-1.6542 4.2188-0.75941 0.70332-0.87757 0.08057-0.43359-2.2852zm-21.343-8.019c-2.7576-2.7576-3.2747-8.7703-0.82451-9.5861 0.83503-0.27803 1.0011 0.42479 0.58813 2.4895-0.38715 1.9358-0.05322 3.6738 1.0208 5.3129 1.8754 2.8622 1.3924 3.9605-0.7844 1.7837zm17.955-4.6666c-1.7376-5.6645-1.7274-5.7627 0.71296-6.8746 3.4181-1.5574 4.2109-1.2857 1.128 0.38655-2.2041 1.1956-2.4404 1.6876-1.5813 3.2928 0.55551 1.038 0.85377 2.6034 0.6628 3.4787-0.2959 1.3562-0.43225 1.3143-0.92239-0.28351zm7.9479 0.79615c-2.1186-0.87436-1.2226-2.2509 1.0876-1.671 1.6894 0.42402 2.3836 0.13286 2.7512-1.154 0.3187-1.1155 0.43081-0.89981 0.31862 0.61306-0.16972 2.2885-1.8307 3.1723-4.1575 2.212zm16.465 0.12244c-0.34823-0.34824-0.40579-1.2257-0.12789-1.9498 1.5301-3.9873-3.757-9.7383-8.9602-9.7465-2.0486-0.0032-2.186 0.28009-1.6721 3.4472 0.51952 3.2015 0.44866 3.3394-0.9811 1.9096-1.2646-1.2646-1.3467-1.9677-0.45741-3.9194 2.0203-4.4341 10.342-2.654 13.125 2.8076 1.0078 1.9775 0.1886 8.5664-0.92638 7.4514zm-32.618-2.8503c-1.2782-1.2579-1.8994-2.2871-1.3805-2.2871 1.3835 0 5.1108 2.7736 5.1108 3.8032 0 1.4329-1.2498 0.92493-3.7303-1.5161zm10.321 1.9317c0-0.51562 0.40895-1.5703 0.90879-2.3438 0.49983-0.77344 0.90879-0.98438 0.90879-0.46875s-0.40895 1.5703-0.90879 2.3438c-0.49983 0.77344-0.90879 0.98438-0.90879 0.46875zm17.405-2.0974c-0.38014-0.38014-1.3997-0.69655-2.2656-0.70312-1.0168-0.007722-1.6795-0.92505-1.8711-2.5901-0.30414-2.6433 2.6794-3.8529 4.0466-1.6406 0.31867 0.51562-0.0783 0.9375-0.88217 0.9375s-1.4616 0.38238-1.4616 0.84973 0.88693 0.61779 1.971 0.33432c1.1366-0.29723 2.301 0.01863 2.7506 0.74613 1.2698 2.0545-0.60564 3.7483-2.2878 2.0662zm28.988-0.48777c-2.261-5.3939 3.1955-12.402 11.91-15.296 8.6655-2.8782 29.324-1.839 29.324 1.4751 0 1.5182-0.22399 1.521-10.025 0.12483-7.6014-1.0828-16.754-0.07806-22.519 2.4722-4.8714 2.1548-5.2624 2.6428-6.8388 8.5338-0.87649 3.2754-1.33 3.9344-1.8515 2.6903zm-57.645-2.5344c-0.7585-0.47969-1.0931-1.1582-0.74356-1.5077 0.8579-0.8579 3.5289 0.23329 3.5289 1.4417 0 1.1907-0.97058 1.2137-2.7854 0.06604zm0.37464-3.2509c-0.9928-0.72595-1.4793-1.6457-1.0811-2.0439 0.39818-0.39819 1.4271-0.02085 2.2865 0.83853 2.0263 2.0263 1.1356 2.9171-1.2054 1.2054zm6.3417-0.52712c0.24103-0.76871 1.8809-2.2084 3.6442-3.1993 3.313-1.8617 3.1944-1.6663-1.3757 2.2672-1.6487 1.4191-2.5354 1.7834-2.2685 0.93205zm-6.1792-2.9691c-2.0452-2.92-1.9057-3.88 0.98392-6.7696 3.1085-3.1085 4.2557-2.3605 1.2639 0.82417-1.9726 2.0997-2.0679 2.5745-0.93978 4.6824 1.6382 3.0611 0.63192 4.0328-1.3081 1.2631zm8.326-3.5763c0.25049-0.4053 1.3063-0.95942 2.3463-1.2314 1.04-0.27196 1.686-0.16287 1.4355 0.24242-0.25049 0.4053-1.3063 0.95942-2.3463 1.2314-1.04 0.27196-1.686 0.16287-1.4355-0.24243zm-4.2028-2.3035c0-0.25781 0.84375-0.92031 1.875-1.4722 1.0312-0.55191 1.875-0.79253 1.875-0.53472s-0.84375 0.92031-1.875 1.4722c-1.0312 0.55191-1.875 0.79253-1.875 0.53472z"/>
</svg>
