<?xml version="1.0" encoding="UTF-8"?>
<!DOCTYPE svg PUBLIC "-//W3C//DTD SVG 1.1//EN" "http://www.w3.org/Graphics/SVG/1.1/DTD/svg11.dtd">
<!-- Creator: CorelDRAW -->
<svg xmlns="http://www.w3.org/2000/svg" xml:space="preserve" width="210mm" height="75mm" style="shape-rendering:geometricPrecision; text-rendering:geometricPrecision; image-rendering:optimizeQuality; fill-rule:evenodd; clip-rule:evenodd"
viewBox="0 0 210 75"
 xmlns:xlink="http://www.w3.org/1999/xlink">
 <defs>
  <style type="text/css">
   <![CDATA[
    .fil0 {fill:#969594}
   ]]>
  </style>
 </defs>
 <g id="Layer_x0020_1">
  <metadata id="CorelCorpID_0Corel-Layer"/>
  <path class="fil0" d="M140.408 26.5956l-2.5657 3.5923c-8.9213,-0.9473 -18.5923,-2.1316 -28.895,-3.5923 -0.0793,-0.0788 -0.1581,-0.158 -0.2369,-0.2368 0,-0.3156 1.263,-0.7893 3.8287,-1.3814l27.8689 1.6182zm67.6192 38.6057c-4.6973,4.5789 -7.9343,6.7898 -9.7106,6.7105 -4.1448,-0.2369 -36.7506,-1.4602 -97.817,-3.6711 -2.8421,0.987 -5.6446,1.8556 -8.3291,2.6449 -6.3949,1.6976 -11.9999,2.5657 -16.7764,2.6449 -13.8158,0.1576 -23.9213,-1.6975 -30.3949,-5.5266 5.0525,0.0792 7.9734,-0.9474 8.6448,-3.0394 0.2369,-0.5133 0.3553,-1.0658 0.3553,-1.6183 0,-3.5135 -2.4869,-5.8819 -7.5003,-7.0265 -4.7765,-1.1055 -7.9739,-0.0397 -9.5134,3.1186 -0.8289,1.6971 -0.7105,3.1181 0.3553,4.2632 -0.9078,-0.4345 -1.8948,-1.816 -2.8813,-4.0264 -0.4737,-5.329 8.3683,-11.0529 26.487,-17.1321 6.8685,-9.1577 14.0526,-13.5789 21.6316,-13.184 8.0924,0.4737 18.1187,1.5786 30.0402,3.355 9.7498,1.4607 17.2104,2.1316 22.4606,1.974 2.1316,-0.0793 9.0397,-11.1317 20.6843,-33.1979 2.0924,-0.0788 3.6711,0 4.7369,0.2368 0.8686,0.2369 1.974,0.5525 3.3554,0.9078l-5.4078 25.1055 35.4871 3.5923c-0.3156,0.6318 -1.1054,1.2631 -2.4472,1.9736 -3.079,0.0792 -14.6844,-0.276 -34.777,-1.0658l-2.8025 10.0659c-1.9736,1.9344 -5.9608,5.4083 -11.8819,10.4212 -2.5657,1.9344 -6.3156,4.066 -11.2501,6.474l77.251 5.9999zm-155.41 -20.8027c-2.092,0.7106 -5.2894,2.0524 -9.5922,4.0656 -1.6971,0.987 -3.9472,2.6449 -6.7105,4.9737 -8.7236,-5.0129 -19.9738,-11.3686 -33.79,-18.9867 -0.3553,-0.2369 -0.5525,-0.4737 -0.5525,-0.7106 0,-1.0658 5.0525,-1.8556 15.1581,-2.4081l35.4871 13.0661zm-2.2104 19.7766c0,2.0919 -3.0394,3.1181 -9.1186,3.1181 -2.6449,0 -3.9475,-0.7893 -3.9475,-2.4076 0,-4.1056 2.5265,-6.0395 7.5398,-5.8027 3.6711,0.2369 5.5263,1.9339 5.5263,5.0922zm58.3034 -16.4216l-2.4477 -10.3027 -8.8817 -1.1446 4.1448 12.474 7.1846 -1.0267zm-10.3027 1.6188l-3.5923 -13.0661 -1.3815 13.8554 4.9738 -0.7893zm-5.7636 -13.6582c-5.8815,-1.9344 -10.934,-2.8818 -15.158,-2.8818 -1.6971,0 -3.1182,0.1581 -4.3024,0.4737 -2.4477,0.6714 -5.8027,3.7895 -10.0267,9.3554 2.2108,0.0792 6.1188,0.4736 11.645,1.145 5.0134,1.0262 10.3815,2.8813 16.1054,5.5659l1.7367 -13.6582z"/>
 </g>
</svg>
