<?xml version="1.0" encoding="utf-8"?>
<!-- Generator: Adobe Illustrator 22.1.0, SVG Export Plug-In . SVG Version: 6.00 Build 0)  -->
<svg version="1.1" id="Layer_1" xmlns="http://www.w3.org/2000/svg" xmlns:xlink="http://www.w3.org/1999/xlink" x="0px" y="0px"
	 viewBox="0 0 595.3 212.6" style="enable-background:new 0 0 595.3 212.6;" xml:space="preserve">
<style type="text/css">
	.st0{fill:none;stroke:#000000;stroke-width:2;stroke-miterlimit:10;}
</style>
<g id="Layer_x0020_1">
	<path class="st0" d="M398,75.4l-7.3,10.2c-25.3-2.7-52.7-6-81.9-10.2c-0.2-0.2-0.4-0.4-0.7-0.7c0-0.9,3.6-2.2,10.9-3.9L398,75.4
		L398,75.4z M589.7,184.8c-13.3,13-22.5,19.2-27.5,19c-11.7-0.7-104.2-4.1-277.3-10.4c-8.1,2.8-16,5.3-23.6,7.5
		c-18.1,4.8-34,7.3-47.6,7.5c-39.2,0.4-67.8-4.8-86.2-15.7c14.3,0.2,22.6-2.7,24.5-8.6c0.7-1.5,1-3,1-4.6c0-10-7-16.7-21.3-19.9
		c-13.5-3.1-22.6-0.1-27,8.8c-2.3,4.8-2,8.8,1,12.1c-2.6-1.2-5.4-5.1-8.2-11.4c-1.3-15.1,23.7-31.3,75.1-48.6
		c19.5-26,39.8-38.5,61.3-37.4c22.9,1.3,51.4,4.5,85.2,9.5c27.6,4.1,48.8,6,63.7,5.6c6-0.2,25.6-31.6,58.6-94.1
		c5.9-0.2,10.4,0,13.4,0.7c2.5,0.7,5.6,1.6,9.5,2.6l-15.3,71.2l100.6,10.2c-0.9,1.8-3.1,3.6-6.9,5.6c-8.7,0.2-41.6-0.8-98.6-3
		l-7.9,28.5c-5.6,5.5-16.9,15.3-33.7,29.5c-7.3,5.5-17.9,11.5-31.9,18.4L589.7,184.8L589.7,184.8z M149.2,125.9
		c-5.9,2-15,5.8-27.2,11.5c-4.8,2.8-11.2,7.5-19,14.1c-24.7-14.2-56.6-32.2-95.8-53.8c-1-0.7-1.6-1.3-1.6-2c0-3,14.3-5.3,43-6.8
		L149.2,125.9z M142.9,181.9c0,5.9-8.6,8.8-25.8,8.8c-7.5,0-11.2-2.2-11.2-6.8c0-11.6,7.2-17.1,21.4-16.4
		C137.6,168.2,142.9,173,142.9,181.9z M308.2,135.4l-6.9-29.2l-25.2-3.2l11.7,35.4L308.2,135.4z M279,140l-10.2-37l-3.9,39.3
		L279,140z M262.6,101.2c-16.7-5.5-31-8.2-43-8.2c-4.8,0-8.8,0.4-12.2,1.3c-6.9,1.9-16.4,10.7-28.4,26.5c6.3,0.2,17.3,1.3,33,3.2
		c14.2,2.9,29.4,8.2,45.7,15.8L262.6,101.2L262.6,101.2z"/>
</g>
</svg>
