<?xml version="1.0" encoding="utf-8"?>
<!-- Generator: Adobe Illustrator 22.1.0, SVG Export Plug-In . SVG Version: 6.00 Build 0)  -->
<svg version="1.1"
	 id="svg2" xmlns:cc="http://creativecommons.org/ns#" xmlns:dc="http://purl.org/dc/elements/1.1/" xmlns:rdf="http://www.w3.org/1999/02/22-rdf-syntax-ns#" xmlns:svg="http://www.w3.org/2000/svg"
	 xmlns="http://www.w3.org/2000/svg" xmlns:xlink="http://www.w3.org/1999/xlink" x="0px" y="0px" viewBox="0 0 198.8 247.5"
	 style="enable-background:new 0 0 198.8 247.5;" xml:space="preserve">
<style type="text/css">
	.st0{fill:none;stroke:#000000;stroke-miterlimit:10;}
</style>
<path id="path24" class="st0" d="M139.1,52.2c-7.1,2.6-20.9-0.1-24.8,4.8c0.9,2.9,3.8,5.6,5.4,9.3c1.4,3.2,3.7,7.3,3.9,10.4
	c0.1,1.5-0.8,3.5-1.1,5.4c-1,5.4-2,9.8-7.3,10.7c-2.6,0.4-5.5-1.3-8.7,0.3c2,2.6,5.7,4.4,6.8,8.2c1.1,3.7-0.5,7.6-1.4,11.3
	c3.9-1,6.4-6,9.9-8.5c1.2-2.3,2.3-4.4,4.2-6.8c1.4-1.8,4.4-3.8,5.1-5.9c1.5-4.8-0.2-15.7,0.6-20.8c0.2-1.2,0.8-3,2.3-3.4
	c1.7,2-1.4,3.8-1.1,6.2c2.5-0.4,3.2-3.5,4.2-5.4c1.1-2,2.4-3.7,3.7-5.6c0.8-1.3,1.1-3,2-4.2c1.8-2.6,4.3-4.4,5.6-7.9
	c1.1-0.4,0.6,0.7,1.1,0.8c0.7-0.5-0.3-2.7,0.8-2.8c0.8-0.8,3.2,1.4,4.5,2c-3.8,2.4-6.2,6-9,10.1c-1.7,2.5-2.6,4.7-4.5,7.6
	c-1.4,2.1-3.6,3.8-4.5,5.6c-3,6.1-0.9,13.6-3.4,21.1c-1.4,4.1-6.2,10.3-9.3,13.2c-4.5,4.2-9.6,7.3-13.5,11.8c0.1,4.6,0.5,8.8,2,12.1
	c6.9,2.8,12-4.1,19.4-2.5c3.7-2.7,14.2-3.7,18-1.1c5.2,9.4,9.3,19.8,11.5,32.1c3.7,3.2,8.4,5.5,11.8,9c0.4,0.5,0.7,0.9,0.6,2
	c7.3,2.8,11.7,8.6,14.9,15.5c-1.5,0.3-2.6-1.1-4.2,0.3c0.2-1.3-1.5-2.5-0.8-5.1c-3.8-2.1-7.3-4.4-9.3-8.2c-5.8-1.5-9-5.6-12.7-9.3
	c-0.8-0.8-2.1-1.3-2.5-2.5c-0.2-0.6-1.9,1.6-2.3,0c-3.7-10.3-5.3-22.7-9.9-32.1c-1.1,2.5-3.6,1.5-6.2,2c-3.2,0.6-6,3.3-8.7,3.7
	c-3.2,0.5-6.3-0.9-9.3-0.3c-3,0.6-4.3,3-7.3,3.1c-0.1,1.4,0.8,2.6-0.3,3.4c-4.3-0.5-4.1-5.4-8.5-5.9c-0.2,4.2,4.4,3.7,4.2,7.9
	c0.8,0.4,1.7,0.8,3.1,0.6c11.4,7.2,27.3,9.9,36.3,19.4c0.4,4.7,1.9,9,2.3,13.8c0.5,7.3-1.5,16.1,0.3,22.3c0.6,2.2,3.3,7.3,4.8,9.9
	c0.6,1,1.7,1.8,2.3,2.8c1.4,2.6,1.2,5.3,2.8,7.3c2.3,2.9,4,8.6,4.8,13c-1.3,1.1-2.2,2.5-4.2,2.8c-0.8-1.7,0.9-2.1,0.8-3.9
	c-0.1-2.8-5.1-11-6.8-14.1c-2.6-4.8-5.1-9.6-6.5-14.1c-0.5-1.6-2.7-3.2-3.4-4.8c-1.5-3.3-0.1-7.6,0.3-10.4c0.4-3.3,0.2-7.7,0-11.3
	c-0.2-3.2,0.7-7.8,0.3-9.6c-1-3.6-11.1-5.8-14.9-7c-6.6-2.2-12.8-4.3-16.1-9.9c-2.1,1.6-4.4-0.2-7.3,0c-0.7,2.7,2.1,4.1,2.5,6.5
	c9.7,1.8,15.2,6.1,18,15.2c2.8,8.8,2.5,22.5-1.1,31c-1.1,2.5-3,5.3-4.5,7.9c-4.3,7.2-10.4,15.3-16.9,19.7c-4.8-0.4-7.1-3.4-11-4.8
	c-4.5-5.5-9.9-9.2-13.2-17.2c-1.6-3.8-4.1-8.1-4.8-11.5c-2.8-13.2-0.9-27.7,5.9-35.5c4.1-1.3,6.9-3.8,11.8-4.2
	c-0.6-3.4,1.3-4.4,1.1-7.3c-3.6-0.6-6.6,2-9,3.9c-2.5,2-5,4.2-7.6,5.9c-5.5,3.7-11.7,5.9-17.2,9.9c-0.4,7.8,0.2,14.5,1.4,21.1
	c0.9,5.1,3.8,9.5,1.1,14.6c-1.3,2.5-4.1,4.6-5.9,7.3c-1.8,2.6-3.7,5.7-5.1,8.2c-3.1,5.6-1.4,15-8.5,17.7c-0.8-1.4,0.7-2.2,1.1-3.4
	c2.2-6.7,2.8-15.8,8.5-19.4c0.1-1.2-1.4-0.9-1.1-2.3c1.8-4.1,6.8-6.1,7.3-11.3c0.4-3.4-2-8.6-2.5-13.8c-0.6-6.8-1.5-17.1,2-21.7
	c4.6-5.5,10.1-9.4,16.9-13.5c3.2-1.9,7-3.3,9.9-5.4c2.3-1.6,3.9-4,7.6-4.5c0.1-1.7,1-2.6,1.1-4.2c0.9-1,2.7-1.1,3.1-2.5
	c-3.9-1.2-5.2,4.9-9,5.6c-0.8-1.6,0.3-3.4,0.8-4.5c-1.2-0.3-1.4,0.5-2.3,0.6c-2.2-3.7-6.3-1.1-11-1.4c-6.4-0.4-13-6.4-16.9-0.6
	c0.1,5.4-3.3,8.7-4.5,12.7c-1.3,4.2,0,10.5-2.8,13.5c-6.9,5.2-12.5,11.7-20,16.3c-1.1,2.7-3.5,5.1-7,4.5c4.2-5.1,9.8-8.8,13.2-14.6
	c1.5-0.4,3.3-1.2,4.8-2.3c2.2-1.5,5.7-4.3,6.2-6.2c1.2-4.3-0.4-9.4,0.6-13.8c0.9-4,4.1-15.4,7.6-16.9c9.9-4.4,22.9,3.7,34.1,2.3
	c0.8-5.3,2.1-11.8-1.1-15.2C83.3,114.7,78,107.6,74,98.2c-0.8-1.8-2.1-3.3-2.8-5.1c-2.5-6-2.7-13-3.1-20.8c-2-4.6-7.7-6.3-11.3-9.9
	c-1.8-1.8-3-4.4-5.1-6.2c-2.5-2.1-6.2-3.3-6.2-7.9c3.4-2.1,3.8,1.8,5.6,3.9c0.8,0.9,2.4,2.3,3.7,3.4c1.2,1.1,2.5,2.4,3.7,3.4
	c1.1,0.9,3,1.1,3.7,2.5c0.5,1,2.4,1.8,3.9,3.1c1.9,1.6,2.6,4.1,4.8,4.5c1.7-1.7-2.5-4.5-0.8-6.2c1.2,0.9,2.9,3,3.1,4.8
	c0.2,1.5-1,2.9-1.1,4.5c-0.7,6.7,3.1,14.9,2.5,22c7.1,5,10.9,13.3,17.2,19.2c0.2-4.3-0.4-10.7,1.1-14.4c1.4-2.6,5.4-2.7,6.8-5.4
	c-8,1.3-15.4-0.9-16.6-7.9c-0.2-1.3,0.3-2.9,0.3-4.5c-0.1-2.6-1-4.7-0.3-7.6c1.5-5.8,5-11.9,7.9-14.6c-6.4-6.8-26,1.3-28.7-8.5
	c-0.9-9.6-4.3-16.7-7.9-23.7c-2.1-4-5.3-8-5.4-13c2.8-0.7,4.6,1.9,5.6,3.7c3.4,5.8,6,15.3,8.7,23.1c1.3,3.8,2.5,6.1,2.5,10.7
	c9.1-0.5,20.6,1,27.3,4.8c1.3-2.1,1.6-5.2,3.1-7c3.4-2.8,6.6-5.6,10.7-1.4c1.2,1.2,2.1,3.6,2.3,5.1c2.7,1,6-0.1,10.1-1.1
	c2.9-0.7,5.7-1,8.2-1.4c2.9-0.5,5.6-1.5,9.3-1.1c1.1-6.5,2.4-15.9,6.2-22c0.5-4.4,1.7-8.1,4.2-10.4c0.2-3.8,2.7-5.4,4.2-7.9
	c1.6-1.1,2.9,0.5,2.8,2.5c0,1.4-2.2,4-3.4,5.9C145.2,26.7,140.5,38.6,139.1,52.2"/>
</svg>
