<?xml version="1.0"?>
<svg xmlns:rdf="http://www.w3.org/1999/02/22-rdf-syntax-ns#" xmlns="http://www.w3.org/2000/svg" xmlns:cc="http://creativecommons.org/ns#" xmlns:dc="http://purl.org/dc/elements/1.1/" xmlns:svg="http://www.w3.org/2000/svg" id="svg2" xml:space="preserve" viewBox="0 0 198.75 247.5" version="1.1">
  <defs id="defs6">
    <clipPath id="clipPath18">
      <path id="path20" d="m0.06 0.06h158.73v197.48h-158.73v-197.48z"/>
    </clipPath>
  </defs>
  <g id="g10" transform="matrix(1.25,0,0,-1.25,0,247.5)">
    <g id="g14">
      <g id="g16" clip-path="url(#clipPath18)" fill-rule="evenodd">
        <path id="path22" fill="#fff" d="m78.668 185.66c0.733 1.212 2.13 2.863 2.16 3.78 0.043 1.313-0.78 2.312-1.8 1.62-0.994-1.586-2.547-2.614-2.7-5.04-1.637-1.483-2.412-3.828-2.7-6.66-2.435-3.898-3.272-9.855-3.96-14.04-2.378 0.223-4.072-0.388-5.94-0.72-1.599-0.284-3.396-0.442-5.22-0.9-2.67-0.67-4.738-1.335-6.48-0.72-0.076 0.94-0.682 2.478-1.44 3.24-2.643 2.653-4.638 0.909-6.84-0.9-0.986-1.174-1.153-3.167-1.98-4.5-4.286 2.405-11.627 3.368-17.46 3.06-0.013 2.948-0.761 4.396-1.62 6.84-1.753 4.988-3.393 11.084-5.58 14.76-0.652 1.097-1.804 2.799-3.6 2.34 0.015-3.168 2.086-5.725 3.42-8.28 2.307-4.421 4.485-9.003 5.04-15.12 1.773-6.23 14.241-1.066 18.36-5.4-1.847-1.737-4.111-5.629-5.04-9.36-0.461-1.852 0.128-3.186 0.18-4.86 0.03-1.009-0.336-2.021-0.18-2.88 0.807-4.454 5.515-5.866 10.62-5.04-0.879-1.701-3.431-1.729-4.32-3.42-0.991-2.356-0.618-6.463-0.72-9.18-4.028 3.712-6.453 9.027-10.98 12.24 0.338 4.53-2.049 9.728-1.62 14.04 0.104 1.043 0.818 1.907 0.72 2.88-0.115 1.137-1.229 2.489-1.98 3.06-1.073-1.079 1.619-2.849 0.54-3.96-1.386 0.283-1.875 1.887-3.06 2.88-0.99 0.829-2.216 1.318-2.52 1.98-0.425 0.922-1.653 1.074-2.34 1.62-0.75 0.595-1.544 1.452-2.34 2.16-0.808 0.718-1.854 1.6-2.34 2.16-1.167 1.343-1.437 3.867-3.6 2.52-0.016-2.923 2.38-3.697 3.96-5.04 1.336-1.136 2.109-2.829 3.24-3.96 2.252-2.253 5.942-3.391 7.2-6.3 0.256-4.99 0.374-9.49 1.98-13.32 0.467-1.114 1.302-2.06 1.8-3.24 2.541-6.031 5.934-10.553 12.42-12.06 2.044-2.209 1.238-6.334 0.72-9.72-7.157-0.937-15.439 4.257-21.78 1.44-2.231-0.991-4.304-8.224-4.86-10.8-0.607-2.812 0.428-6.102-0.36-8.82-0.343-1.181-2.539-2.972-3.96-3.96-0.961-0.668-2.101-1.187-3.06-1.44-2.211-3.728-5.753-6.126-8.46-9.36 2.243-0.374 3.78 1.168 4.5 2.88 4.806 2.934 8.375 7.106 12.78 10.44 1.794 1.959 0.995 5.926 1.8 8.64 0.756 2.552 2.943 4.66 2.88 8.1 2.49 3.738 6.687-0.103 10.8-0.36 2.977-0.186 5.583 1.469 7.02-0.9 0.545 0.055 0.643 0.557 1.44 0.36-0.359-0.707-1.076-1.862-0.54-2.88 2.458 0.459 3.274 4.355 5.76 3.6-0.276-0.925-1.427-0.973-1.98-1.62-0.075-1.065-0.645-1.635-0.72-2.7-2.346-0.338-3.409-1.839-4.86-2.88-1.841-1.321-4.267-2.196-6.3-3.42-4.338-2.61-7.859-5.139-10.8-8.64-2.19-2.936-1.665-9.514-1.26-13.86 0.312-3.356 1.85-6.652 1.62-8.82-0.349-3.293-3.538-4.555-4.68-7.2-0.164-0.884 0.754-0.686 0.72-1.44-3.611-2.327-3.993-8.113-5.4-12.42-0.254-0.775-1.229-1.264-0.72-2.16 4.531 1.725 3.426 7.774 5.4 11.34 0.871 1.574 2.096 3.542 3.24 5.22 1.177 1.728 2.954 3.078 3.78 4.68 1.708 3.314-0.133 6.077-0.72 9.36-0.755 4.221-1.132 8.51-0.9 13.5 3.503 2.523 7.496 3.934 10.98 6.3 1.646 1.118 3.24 2.498 4.86 3.78 1.557 1.233 3.442 2.931 5.76 2.52 0.094-1.894-1.093-2.508-0.72-4.68-3.129-0.291-4.955-1.885-7.56-2.7-4.381-5-5.557-14.236-3.78-22.68 0.457-2.175 2.06-4.98 3.06-7.38 2.137-5.129 5.613-7.458 8.46-10.98 2.47-0.89 3.941-2.779 7.02-3.06 4.142 2.821 8.061 7.99 10.8 12.6 0.968 1.631 2.193 3.422 2.88 5.04 2.312 5.443 2.497 14.172 0.72 19.8-1.835 5.81-5.316 8.54-11.52 9.72-0.3 1.55-2.088 2.406-1.62 4.14 1.882 0.098 3.367-1.047 4.68 0 2.053-3.554 6.058-4.895 10.26-6.3 2.446-0.818 8.93-2.221 9.54-4.5 0.297-1.109-0.325-4.061-0.18-6.12 0.159-2.26 0.268-5.091 0-7.2-0.229-1.804-1.108-4.583-0.18-6.66 0.462-1.034 1.855-2.024 2.16-3.06 0.85-2.884 2.458-5.918 4.14-9 1.092-2.002 4.269-7.203 4.32-9 0.033-1.182-1.02-1.447-0.54-2.52 1.299 0.2 1.889 1.11 2.7 1.8-0.523 2.775-1.602 6.426-3.06 8.28-1.003 1.276-0.874 3.029-1.8 4.68-0.362 0.644-1.055 1.136-1.44 1.8-0.935 1.612-2.661 4.878-3.06 6.3-1.11 3.952 0.161 9.529-0.18 14.22-0.224 3.073-1.191 5.787-1.44 8.82-5.784 6.097-15.951 7.809-23.22 12.42-0.904-0.124-1.453 0.107-1.98 0.36 0.116 2.696-2.831 2.33-2.7 5.04 2.754-0.306 2.648-3.471 5.4-3.78 0.668 0.49 0.13 1.286 0.18 2.16 1.936 0.089 2.777 1.605 4.68 1.98 1.886 0.372 3.874-0.474 5.94-0.18 1.765 0.251 3.554 1.936 5.58 2.34 1.661 0.332 3.229-0.358 3.96 1.26 2.929-6.011 3.94-13.939 6.3-20.52 0.253-0.992 1.308 0.37 1.44 0 0.29-0.79 1.079-1.08 1.62-1.62 2.372-2.369 4.411-4.962 8.1-5.94 1.306-2.415 3.54-3.9 5.94-5.22-0.426-1.664 0.668-2.435 0.54-3.24 1.07 0.875 1.742 0.004 2.7 0.18-2.068 4.412-4.864 8.096-9.54 9.9 0.117 0.657-0.122 0.959-0.36 1.26-2.22 2.22-5.182 3.698-7.56 5.76-1.412 7.888-4.076 14.525-7.38 20.52-2.462 1.661-9.163 1.002-11.52-0.72-4.737 0.983-8.008-3.419-12.42-1.62-0.911 2.089-1.218 4.782-1.26 7.74 2.516 2.865 5.784 4.868 8.64 7.56 1.982 1.869 5.065 5.822 5.94 8.46 1.591 4.798 0.273 9.578 2.16 13.5 0.555 1.153 1.982 2.235 2.88 3.6 1.225 1.863 1.771 3.25 2.88 4.86 1.801 2.617 3.307 4.916 5.76 6.48-0.808 0.363-2.4 1.758-2.88 1.26-0.7-0.081-0.064-1.496-0.54-1.8-0.348 0.073-0.016 0.824-0.72 0.54-0.836-2.224-2.457-3.354-3.6-5.04-0.542-0.799-0.737-1.873-1.26-2.7-0.78-1.232-1.656-2.307-2.34-3.6-0.636-1.201-1.098-3.135-2.7-3.42-0.194 1.539 1.816 2.709 0.72 3.96-0.951-0.226-1.329-1.401-1.44-2.16-0.479-3.274 0.602-10.267-0.36-13.32-0.42-1.332-2.34-2.641-3.24-3.78-1.209-1.528-1.918-2.848-2.7-4.32-2.236-1.55-3.777-4.737-6.3-5.4 0.597 2.363 1.579 4.804 0.9 7.2-0.687 2.421-3.07 3.584-4.32 5.22 2.089 1.014 3.894-0.103 5.58 0.18 3.424 0.575 4.069 3.418 4.68 6.84 0.208 1.166 0.794 2.447 0.72 3.42-0.154 2.023-1.64 4.605-2.52 6.66-1.002 2.341-2.839 4.097-3.42 5.94 2.473 3.114 11.321 1.393 15.84 3.06 0.913 8.71 3.938 16.335 7.56 22.32zm-78.48 11.88h105.84v-156.06h-106.02v155.52c-0.016 0.255-0.03 0.51 0.18 0.54"/>
        <path id="path24" fill="#231f20" d="m127.11 119.34c-4.519-1.667-13.367 0.054-15.84-3.06 0.581-1.843 2.418-3.599 3.42-5.94 0.88-2.055 2.366-4.637 2.52-6.66 0.074-0.973-0.512-2.254-0.72-3.42-0.611-3.422-1.256-6.265-4.68-6.84-1.686-0.283-3.491 0.834-5.58-0.18 1.25-1.636 3.633-2.799 4.32-5.22 0.679-2.396-0.303-4.837-0.9-7.2 2.523 0.663 4.064 3.85 6.3 5.4 0.782 1.472 1.491 2.792 2.7 4.32 0.9 1.139 2.82 2.448 3.24 3.78 0.962 3.053-0.119 10.046 0.36 13.32 0.111 0.759 0.489 1.934 1.44 2.16 1.096-1.251-0.914-2.421-0.72-3.96 1.602 0.285 2.064 2.219 2.7 3.42 0.685 1.293 1.56 2.368 2.34 3.6 0.523 0.827 0.718 1.901 1.26 2.7 1.143 1.686 2.764 2.816 3.6 5.04 0.704 0.284 0.372-0.467 0.72-0.54 0.476 0.304-0.16 1.719 0.54 1.8 0.48 0.498 2.072-0.897 2.88-1.26-2.453-1.564-3.959-3.863-5.76-6.48-1.109-1.61-1.655-2.997-2.88-4.86-0.898-1.365-2.325-2.447-2.88-3.6-1.887-3.922-0.57-8.702-2.16-13.5-0.875-2.638-3.958-6.591-5.94-8.46-2.856-2.692-6.124-4.695-8.64-7.56 0.042-2.958 0.349-5.651 1.26-7.74 4.412-1.799 7.683 2.603 12.42 1.62 2.357 1.722 9.058 2.381 11.52 0.72 3.304-5.995 5.968-12.632 7.38-20.52 2.378-2.062 5.34-3.54 7.56-5.76 0.238-0.301 0.477-0.603 0.36-1.26 4.676-1.804 7.472-5.488 9.54-9.9-0.958-0.176-1.63 0.695-2.7-0.18 0.128 0.805-0.966 1.576-0.54 3.24-2.4 1.32-4.634 2.805-5.94 5.22-3.689 0.978-5.728 3.571-8.1 5.94-0.541 0.54-1.33 0.83-1.62 1.62-0.132 0.37-1.187-0.992-1.44 0-2.36 6.581-3.371 14.509-6.3 20.52-0.731-1.618-2.299-0.928-3.96-1.26-2.026-0.404-3.815-2.089-5.58-2.34-2.066-0.294-4.054 0.552-5.94 0.18-1.903-0.375-2.744-1.891-4.68-1.98-0.05-0.874 0.488-1.67-0.18-2.16-2.752 0.309-2.646 3.474-5.4 3.78-0.131-2.71 2.816-2.344 2.7-5.04 0.527-0.253 1.076-0.484 1.98-0.36 7.269-4.611 17.436-6.323 23.22-12.42 0.249-3.033 1.216-5.747 1.44-8.82 0.341-4.691-0.93-10.268 0.18-14.22 0.399-1.422 2.125-4.688 3.06-6.3 0.385-0.664 1.078-1.156 1.44-1.8 0.926-1.651 0.797-3.404 1.8-4.68 1.458-1.854 2.537-5.505 3.06-8.28-0.811-0.69-1.401-1.6-2.7-1.8-0.48 1.073 0.573 1.338 0.54 2.52-0.051 1.797-3.228 6.998-4.32 9-1.682 3.082-3.29 6.116-4.14 9-0.305 1.036-1.698 2.026-2.16 3.06-0.928 2.077-0.049 4.856 0.18 6.66 0.268 2.109 0.159 4.94 0 7.2-0.145 2.059 0.477 5.011 0.18 6.12-0.61 2.279-7.094 3.682-9.54 4.5-4.202 1.405-8.207 2.746-10.26 6.3-1.313-1.047-2.797 0.098-4.68 0-0.468-1.734 1.32-2.59 1.62-4.14 6.204-1.18 9.685-3.91 11.52-9.72 1.777-5.628 1.592-14.357-0.72-19.8-0.687-1.618-1.912-3.409-2.88-5.04-2.739-4.61-6.658-9.779-10.8-12.6-3.079 0.281-4.55 2.17-7.02 3.06-2.847 3.522-6.323 5.851-8.46 10.98-1 2.4-2.603 5.205-3.06 7.38-1.777 8.444-0.601 17.68 3.78 22.68 2.605 0.815 4.431 2.409 7.56 2.7-0.373 2.172 0.814 2.786 0.72 4.68-2.318 0.411-4.203-1.287-5.76-2.52-1.62-1.282-3.214-2.662-4.86-3.78-3.484-2.366-7.477-3.777-10.98-6.3-0.232-4.99 0.145-9.279 0.9-13.5 0.587-3.283 2.428-6.046 0.72-9.36-0.826-1.602-2.603-2.952-3.78-4.68-1.144-1.678-2.369-3.646-3.24-5.22-1.976-3.566-0.871-9.615-5.402-11.34-0.509 0.896 0.466 1.385 0.72 2.16 1.408 4.307 1.789 10.093 5.4 12.42 0.034 0.754-0.884 0.556-0.72 1.44 1.142 2.645 4.331 3.907 4.68 7.2 0.23 2.168-1.308 5.464-1.62 8.82-0.405 4.346-0.93 10.924 1.26 13.86 2.941 3.501 6.462 6.03 10.8 8.64 2.033 1.224 4.459 2.099 6.3 3.42 1.451 1.041 2.514 2.542 4.86 2.88 0.075 1.065 0.645 1.635 0.72 2.7 0.553 0.647 1.705 0.695 1.98 1.62-2.486 0.755-3.302-3.141-5.76-3.6-0.536 1.018 0.181 2.173 0.54 2.88-0.797 0.197-0.895-0.305-1.44-0.36-1.437 2.369-4.043 0.714-7.02 0.9-4.113 0.257-8.31 4.098-10.8 0.36 0.063-3.44-2.124-5.548-2.88-8.1-0.805-2.714-0.006-6.681-1.8-8.64-4.406-3.334-7.974-7.506-12.78-10.44-0.72-1.712-2.257-3.254-4.5-2.88 2.706 3.234 6.248 5.632 8.46 9.36 0.959 0.253 2.099 0.772 3.06 1.44 1.421 0.988 3.617 2.779 3.96 3.96 0.788 2.718-0.247 6.008 0.36 8.82 0.556 2.576 2.629 9.809 4.86 10.8 6.34 2.817 14.623-2.377 21.78-1.44 0.518 3.386 1.324 7.511-0.72 9.72-6.486 1.507-9.879 6.029-12.42 12.06-0.498 1.18-1.333 2.126-1.8 3.24-1.606 3.83-1.724 8.33-1.98 13.32-1.258 2.909-4.948 4.047-7.2 6.3-1.131 1.131-1.904 2.824-3.24 3.96-1.58 1.343-3.976 2.117-3.96 5.04 2.163 1.347 2.433-1.177 3.6-2.52 0.486-0.56 1.532-1.442 2.34-2.16 0.796-0.708 1.59-1.565 2.34-2.16 0.687-0.546 1.916-0.698 2.34-1.62 0.304-0.662 1.53-1.151 2.52-1.98 1.185-0.993 1.674-2.597 3.06-2.88 1.079 1.111-1.612 2.881-0.54 3.96 0.751-0.571 1.865-1.923 1.98-3.06 0.098-0.973-0.616-1.837-0.72-2.88-0.429-4.312 1.958-9.51 1.62-14.04 4.527-3.213 6.952-8.528 10.98-12.24 0.102 2.717-0.271 6.824 0.72 9.18 0.889 1.691 3.441 1.719 4.32 3.42-5.105-0.826-9.813 0.586-10.62 5.04-0.156 0.859 0.21 1.871 0.18 2.88-0.052 1.674-0.641 3.008-0.18 4.86 0.929 3.731 3.193 7.623 5.04 9.36-4.119 4.334-16.587-0.83-18.36 5.4-0.555 6.117-2.733 10.699-5.04 15.12-1.334 2.555-3.405 5.112-3.42 8.28 1.796 0.459 2.948-1.243 3.6-2.34 2.187-3.676 3.827-9.772 5.58-14.76 0.859-2.444 1.607-3.892 1.62-6.84 5.833 0.308 13.174-0.655 17.46-3.06 0.827 1.333 0.994 3.326 1.98 4.5 2.202 1.809 4.197 3.553 6.84 0.9 0.758-0.762 1.364-2.3 1.44-3.24 1.742-0.615 3.81 0.05 6.48 0.72 1.824 0.458 3.621 0.616 5.22 0.9 1.868 0.332 3.563 0.943 5.94 0.72 0.688 4.185 1.525 10.142 3.96 14.04 0.288 2.832 1.063 5.177 2.7 6.66 0.153 2.426 1.706 3.454 2.7 5.04 1.02 0.692 1.843-0.307 1.8-1.62-0.03-0.917-1.427-2.568-2.16-3.78-3.622-5.985-6.647-13.61-7.56-22.32"/>
      </g>
    </g>
  </g>
<metadata><rdf:RDF><cc:Work><dc:format>image/svg+xml</dc:format><dc:type rdf:resource="http://purl.org/dc/dcmitype/StillImage"/><cc:license rdf:resource="http://creativecommons.org/licenses/publicdomain/"/><dc:publisher><cc:Agent rdf:about="http://openclipart.org/"><dc:title>Openclipart</dc:title></cc:Agent></dc:publisher><dc:title>Acrobat ant</dc:title><dc:date>2012-06-05T14:11:49</dc:date><dc:description>clip art, clipart, </dc:description><dc:source>http://openclipart.org/detail/170428/acrobat-ant-by-jerome02-170428</dc:source><dc:creator><cc:Agent><dc:title>jerome02</dc:title></cc:Agent></dc:creator><dc:subject><rdf:Bag><rdf:li>clip art</rdf:li><rdf:li>clipart</rdf:li></rdf:Bag></dc:subject></cc:Work><cc:License rdf:about="http://creativecommons.org/licenses/publicdomain/"><cc:permits rdf:resource="http://creativecommons.org/ns#Reproduction"/><cc:permits rdf:resource="http://creativecommons.org/ns#Distribution"/><cc:permits rdf:resource="http://creativecommons.org/ns#DerivativeWorks"/></cc:License></rdf:RDF></metadata></svg>
