<?xml version="1.0" encoding="UTF-8"?>
<svg width="32.103mm" height="16.659mm" version="1.1" viewBox="0 0 113.75024 59.026825" xmlns="http://www.w3.org/2000/svg" xmlns:xlink="http://www.w3.org/1999/xlink">
 <defs>
  <pattern id="ao" patternTransform="matrix(.69643 0 0 -.79464 121.34 112.77)" xlink:href="#a"/>
  <pattern id="an" patternTransform="matrix(.63365 .24949 -.22124 .56189 98.664 75.792)" xlink:href="#a"/>
  <pattern id="am" patternTransform="matrix(.77679 0 0 .86607 66.071 67.321)" xlink:href="#a"/>
  <pattern id="al" patternTransform="matrix(.93388 0 0 .83287 73.994 81.191)" xlink:href="#a"/>
  <pattern id="ak" patternTransform="matrix(.6412 .3035 -.37848 .79959 75.411 69.021)" xlink:href="#a"/>
  <pattern id="aj" patternTransform="matrix(.69643 0 0 .91071 76.518 66.607)" xlink:href="#a"/>
  <pattern id="ai" patternTransform="matrix(.7706 -.17251 .20096 .89769 54.185 94.133)" xlink:href="#a"/>
  <pattern id="ah" patternTransform="matrix(.81448 0 0 .81422 32.224 70.042)" xlink:href="#a"/>
  <pattern id="ag" patternTransform="matrix(.7066 0 0 .93388 -1.5152 58.336)" xlink:href="#a"/>
  <pattern id="af" patternTransform="matrix(.95284 .022486 -.021657 .91768 77.054 80.089)" xlink:href="#a"/>
  <pattern id="ae" patternTransform="matrix(1.1612 0 0 1.2117 74.499 68.059)" xlink:href="#a"/>
  <pattern id="ad" patternTransform="matrix(1.0688 -.099466 .11756 1.2632 -5.0508 71.468)" xlink:href="#a"/>
  <pattern id="ac" xlink:href="#v" patternTransform="matrix(4.1916 0 0 4.5324 66.939 51.568)"/>
  <pattern id="v" width="1" height="1.73205080756" patternTransform="translate(0) scale(10)" patternUnits="userSpaceOnUse">
   <circle cy=".5" r=".5"/>
   <circle cx="1" cy=".5" r=".5"/>
   <circle cx=".5" cy="1.366" r=".5"/>
   <circle cx=".5" cy="-.36603" r=".5"/>
  </pattern>
  <pattern id="ab" patternTransform="matrix(.70955 -.065353 .11398 1.2375 86.964 40)" xlink:href="#a"/>
  <pattern id="aa" patternTransform="matrix(.92036 0 0 1.1402 51.427 62.49)" xlink:href="#a"/>
  <pattern id="z" patternTransform="matrix(.83267 -.017853 .01677 .78218 100.89 34.471)" xlink:href="#a"/>
  <pattern id="y" patternTransform="matrix(1.0096 0 0 .80761 73.867 84.6)" xlink:href="#a"/>
  <pattern id="x" patternTransform="matrix(.88337 0 0 1.0349 46.676 103.54)" xlink:href="#a"/>
  <pattern id="w" patternTransform="matrix(.80761 0 0 1.0349 18.309 108.45)" xlink:href="#a"/>
  <pattern id="a" width="10" height="10" patternTransform="translate(0) scale(10)" patternUnits="userSpaceOnUse">
   <circle cx="2.567" cy=".81" r=".45"/>
   <circle cx="3.048" cy="2.33" r=".45"/>
   <circle cx="4.418" cy="2.415" r=".45"/>
   <circle cx="1.844" cy="3.029" r=".45"/>
   <circle cx="6.08" cy="1.363" r=".45"/>
   <circle cx="5.819" cy="4.413" r=".45"/>
   <circle cx="4.305" cy="4.048" r=".45"/>
   <circle cx="5.541" cy="3.045" r=".45"/>
   <circle cx="4.785" cy="5.527" r=".45"/>
   <circle cx="2.667" cy="5.184" r=".45"/>
   <circle cx="7.965" cy="1.448" r=".45"/>
   <circle cx="7.047" cy="5.049" r=".45"/>
   <circle cx="4.34" cy=".895" r=".45"/>
   <circle cx="7.125" cy=".34" r=".45"/>
   <circle cx="9.553" cy="1.049" r=".45"/>
   <circle cx="7.006" cy="2.689" r=".45"/>
   <circle cx="8.909" cy="2.689" r=".45"/>
   <circle cx="9.315" cy="4.407" r=".45"/>
   <circle cx="7.82" cy="3.87" r=".45"/>
   <circle cx="8.27" cy="5.948" r=".45"/>
   <circle cx="7.973" cy="7.428" r=".45"/>
   <circle cx="9.342" cy="8.072" r=".45"/>
   <circle cx="8.206" cy="9.315" r=".45"/>
   <circle cx="9.682" cy="9.475" r=".45"/>
   <circle cx="9.688" cy="6.186" r=".45"/>
   <circle cx="3.379" cy="6.296" r=".45"/>
   <circle cx="2.871" cy="8.204" r=".45"/>
   <circle cx="4.59" cy="8.719" r=".45"/>
   <circle cx="3.181" cy="9.671" r=".45"/>
   <circle cx="5.734" cy="7.315" r=".45"/>
   <circle cx="6.707" cy="6.513" r=".45"/>
   <circle cx="5.73" cy="9.67" r=".45"/>
   <circle cx="6.535" cy="8.373" r=".45"/>
   <circle cx="4.37" cy="7.154" r=".45"/>
   <circle cx=".622" cy="7.25" r=".45"/>
   <circle cx=".831" cy="5.679" r=".45"/>
   <circle cx="1.257" cy="8.519" r=".45"/>
   <circle cx="1.989" cy="6.877" r=".45"/>
   <circle cx=".374" cy="3.181" r=".45"/>
   <circle cx="1.166" cy="1.664" r=".45"/>
   <circle cx="1.151" cy=".093" r=".45"/>
   <circle cx="1.151" cy="10.093" r=".45"/>
   <circle cx="1.302" cy="4.451" r=".45"/>
   <circle cx="3.047" cy="3.763" r=".45"/>
  </pattern>
 </defs>
 <g transform="translate(-18.506 -36.298)" fill-rule="evenodd">
  <path d="m99.443 45.977c0.4428-0.26348 0.88902-0.50308 1.25-1.3393 0.0267-0.72655 0.0553-1.4456 0-2.5 0.0954-0.77326 0.0439-1.9479 2.1744-1.7442 0 0 3.6752 0.83506 5.5465 1.0029 1.0752 0.09642 2.1722 0.168 3.2386 0 0.97839-0.15414 2.8274-0.91359 2.8274-0.91359l-0.84056 1.4764 1.0985 1.572s-1.9944-0.07865-2.9888-0.15877c-2.0905-0.16842-4.1774-0.39283-6.2554-0.67637-0.98266-0.13408-2.9356-0.48434-2.9356-0.48434-0.19558 0.9141-0.32964 1.948-0.35714 3.5344-0.0914 0.51179 0.2878 1.3213-0.12535 1.5918z" fill="#fff" stroke="#000" stroke-linejoin="round" stroke-width="1.063"/>
  <path d="m76.384 65.844c2.8218 2.5238 4.9863 5.481 7.3214 8.7054-0.94719 1.368-0.28366 2.0039 0 2.8125 0.56569-1.3699 0.7789-1.2853 1.1161-1.7411 0.87477-0.52171 1.6925-0.12838 2.4554 0.35714 0.03854-1.2406-1.3532-2.0449-2.1429-2.3661-2.7009-3.2164-5.317-5.7466-6.8304-9.5982z" fill="#fff" stroke="#000" stroke-linejoin="round" stroke-width="1px"/>
  <path d="m76.377 65.737c2.8218 2.5238 4.9863 5.481 7.3214 8.7054-0.94719 1.368-0.28366 2.0039 0 2.8125 0.56568-1.3699 0.7789-1.2853 1.1161-1.7411 0.87476-0.52171 1.6925-0.12838 2.4554 0.35714 0.0385-1.2406-1.3532-2.0449-2.1428-2.3661-2.7009-3.2164-5.317-5.7466-6.8304-9.5982z" fill="url(#af)"/>
  <path d="m69.061 63.717s-0.12283 3.5734 0.22321 5.3571c0.2892 1.4907 1.0669 3.2973 0.98214 5-0.06542 1.3137-1.4286 3.6607-1.4286 3.6607l1.6964-0.35714-5e-6 2.9464s1.2908-2.2994 1.6071-3.6607c0.23106-0.99423 0.20784-2.6469 0.08928-3.6607-0.17944-1.5344-1.0258-2.6113-1.2054-4.1964-0.25971-2.2923-0.44643-6.6071-0.44643-6.6071z" fill="#fff" stroke="#000" stroke-linejoin="round" stroke-width="1.063"/>
  <path d="m39.46 72.209s-1.4896 1.6761-2.3268 2.2637c-1.1955 0.83907-2.3866 1.5097-3.722 2.1014-1.0673 0.47294-1.7503 0.91013-3.4588 1.1291-1.6918 0.21688-3.3227-0.12993-4.9369 1.0191 0.93284 0.19698 2.017 0.27292 2.5586 0.78284l-1.0714 3.0312s4.2174-2.7527 6.5124-3.9439c1.8165-0.94279 4.2004-1.942 5.2832-2.6795 1.2982-0.88428 2.3802-2.3684 3.2206-3.5191z" fill="#fff" stroke="#000" stroke-linejoin="round" stroke-width="1.063"/>
  <path d="m49.018 48.791s2.866-3.7595 7.7679-2.6786c4.7285 1.0427 4.7321 7.1429 4.7321 7.1429z" fill="#fff" stroke="#000" stroke-width="1.063"/>
  <path d="m55.378 45.503c-3.8324-0.0045-6.0274 2.875-6.0274 2.875l4.0488 1.4453c0.5938-0.90515 1.5822-2.0122 3.0084-1.5878 1.083 0.3223 1.3852 1.6464 1.2865 3.1229l4.1562 1.4844c0 1e-6 -4e-3 -6.1018-4.7324-7.1445-0.61273-0.13512-1.1927-0.19466-1.7402-0.19531z" fill="url(#aa)"/>
  <path d="m64.107 53.076c-0.73285-1.1561-0.13295-2.6453 0-4.0179 0.17311-1.7872 1.5551-3.7654 3.4821-2.6786 3.2072 1.8089 5.5646 1.6495 7.9464 2.1429z" fill="#fff" stroke="#000" stroke-width="1.063"/>
  <path d="m64.261 52.842c-0.73285-1.1561-0.13294-2.6453 0-4.0179 0.17311-1.7872 1.5551-3.7654 3.4821-2.6786 3.2072 1.8089 5.5646 1.6495 7.9464 2.1429z" fill="url(#ab)"/>
  <path d="m63.831 53.021s-11.291-5.763-17.321-5.3571c-6.3505 0.42746-12.609 3.7578-17.321 8.0357-3.2201 2.923-6.6071 11.25-6.6071 11.25h2.3214s5.9504 3.8022 9.2857 4.8214c3.4952 1.0681 7.2501 1.5465 10.893 1.25 4.9955-0.40656 10.256-1.3851 14.464-4.1071 2.8733-1.8585 6.6071-7.8571 6.6071-7.8571-0.48544-1.2568 0.96975-5.8966-2.3214-8.0357z" fill="#fff" stroke="#000" stroke-linejoin="round" stroke-width="1.063"/>
  <path d="m47.496 47.245c-0.41394-0.01991-0.81258-0.01951-1.1894 0.0059-6.3505 0.42746-12.607 3.7572-17.32 8.0352-3.2201 2.923-6.6074 11.25-6.6074 11.25h2.3223s5.9498 3.803 9.2852 4.8223c3.4952 1.0681 7.2498 1.5465 10.893 1.25 4.9955-0.40656 10.256-1.3853 14.465-4.1074 2.8733-1.8585 6.6074-7.8574 6.6074-7.8574-0.48544-1.2568 0.96891-5.896-2.3223-8.0352 0 0-9.9237-5.0646-16.133-5.3633zm0.79883 3.9785c5.5598-0.15556 10.674 2.1662 11.169 7.2107 0.63846 6.5113-6.9839 7.8824-13.927 8.8376-5.0774 0.69856-16.521-1.0999-16.964-2.8571-0.9466-3.7514 8.0714-11.938 16.07-12.768 0.33611-0.03486 3.2811-0.41318 3.6518-0.42355z" fill="url(#w)"/>
  <path d="m93.214 45.755c-1.5401 1.3001-2.3534 3.9153-1.9643 5.8929 0.50704 2.5767 3.1702 4.3794 5.1786 6.0714 2.3633 1.9911 5.1716 4.5491 8.2143 5.0893 1.3635 0.24206 3.8109 0.21418 4.6428-0.89286 1.3706-1.8238 0.0172-5.5865-0.89285-7.6786-1.2312-2.8304-3.5203-5.1685-5.8929-7.1429-1.1278 0.51598-3.2435-1.5815-3.2143-1.7857 0 0-0.94438-0.58613-1.5179-0.625-1.5268-0.10348-3.5691 0.24036-4.5536 1.0714z" fill="#fff" stroke="#000" stroke-width="1.063"/>
  <path d="m97.825 44.733c-1.5268-0.10348-3.5682 0.23924-4.5527 1.0703-1.5401 1.3001-2.354 3.915-1.9648 5.8926 0.50704 2.5767 3.1713 4.3802 5.1797 6.0723 2.3633 1.9911 4.2864 4.1709 7.329 4.711 0.2194 0.03895 1.3813 0.43338 1.6456 0.45498l1.6819-0.05273c-2.6548-2.3288-6.0897-3.0053-10.769-9.4074-0.93515-1.2794-0.54308-5.4682 0.30399-6.0733 1.237-0.88362 1.3339-1.9419 2.4104-2.1833-0.28392-0.16283-0.8249-0.45464-1.2637-0.48438z" fill="url(#z)"/>
  <path d="m81.786 48.255c0.70566-1.1986 2.8086-2.2756 5.8036-2.4107 0.80357-0.03625 1.6071 0.06617 2.4107 0.26786 3.157 0.6273 3.0379 2.155 3.8393 3.5714 0.53725 0.94954 0.61519 2.0434 0.44643 4.0179-0.1657 0.48464-0.34992 0.97853-0.98214 1.6964-2.4107 1.9797-4.8214 2.5011-7.2321 2.5893z" fill="#fff" stroke="#000" stroke-width="1.063"/>
  <path d="m87.606 45.925c-2.995 0.13512-5.099 1.2116-5.8047 2.4102l4.2852 9.7324c2.4107-0.0882 4.8217-0.6082 7.2324-2.5879 0.63222-0.7179 0.81673-1.2126 0.98243-1.6973 0.16876-1.9744 0.0919-3.068-0.44532-4.0176-0.8014-1.4164-0.68283-2.945-3.8398-3.5723-0.80357-0.20169-1.6066-0.30383-2.4102-0.26758zm1.4814 2.2754c1.4282-0.02429 1.7005 0.16451 2.7393 0.37109 1.6263-0.1141 2.3173 3.3916 1.7852 4.2852-1.0022 1.1419-4.0915 3.9442-4.7047 1.9949-0.41109-2.3242-0.1838-4.5884-1.9201-6.25-0.14443-0.64515 0.67215-0.37689 2.1003-0.40117z" fill="url(#y)"/>
  <path d="m62.952 52.438s6.7597-4.1916 10.536-5.2679c2.5006-0.71276 7.7679-0.71429 7.7679-0.71429 1.1166 0.1323 1.9689 1.0577 2.8571 1.875 2.141 2.4258 2.6425 5.0155 2.4107 7.6786 0.07926 2.2519-1.0676 3.2777-2.1429 4.375l-7.1429 5c-2.2663 1.2417-3.361 0.72598-4.7321 0.625-4.9453-2.7631-11.509-11.855-9.5536-13.571z" fill="#fff" stroke="#000" stroke-width="1.063"/>
  <path d="m81.317 46.424s-5.267 0.0021-7.7676 0.71484c-3.776 1.0763-10.535 5.2676-10.535 5.2676-1.955 1.7169 4.6075 10.809 9.5527 13.572 1.3712 0.10098 2.4661 0.61671 4.7324-0.625l7.1426-5c1.0753-1.0973 2.2238-2.1231 2.1445-4.375 0.2318-2.6631-0.27111-5.2539-2.4121-7.6797-0.88827-0.81735-1.7408-1.7427-2.8574-1.875zm0.37696 1.6777c1.8441 0.09095 2.9569 1.6862 3.886 3.1498 0.6166 1.7857 0.37712 3.6348 0.04175 5.4206-3.55 2.5322-5.2238 4.4859-9.6426 5.7148-1.1905 0.9823-2.3818 0.36501-3.5723-0.53516-2.2217-1.6474-2.9537-2.0387-4.4629-4.8223-0.82384-1.5195-0.96207-2.0233 0-3.0352 1.6071-1.8036 2.1428-2.0739 3.75-2.5 2.0238 0.24956 2.6188-0.8142 4.6426-1.9648 1.3244-0.85564 2.2947-1.4412 5.3574-1.4277z" fill="url(#x)"/>
  <path d="m106.15 50.617c1.1994 1.1472 2.3721 1.5075 8.9335 4.4826 2.2297 1.011 4.6487 1.3258 5.3033 0.97858 2.543-1.3486 2.4317-3.4765 3.5671-5.2402 0.0898 2.2115 1.7909 1.8908 4.23 0.41037-2.0414 2.1887-3.9229 4.9313-6.6291 6.6607-0.52647 0.33644-3.0383 0.6584-4.5772 0.28411-2.6423-0.64264-5.3599-1.7903-8.6179-4.0722-0.6128-0.83184-1.2221-2.3988-2.2097-3.504z" fill="#fff" stroke="#000" stroke-linejoin="round" stroke-width="1.063"/>
  <path d="m65.66 55.847s-5.1984-1.7683-8.1444-1.6415c-5.8757 0.25294-7.8287 3.283-7.8287 3.283-1.3561 1.5498 0.06754 2.1954 0.31567 1.894 0.6898-0.84062 1.0247-0.79396 1.389-0.82075 0.88669 0.3428 1.1693 0.88694 1.5784 1.389l0.82075-0.12627 2.6517-1.0102c2.5739-0.62945 5.2753 1.2696 8.902 2.0203 1.6443 0.09774 4.4062-3.7894 0.31567-4.9876z" fill="#fff" stroke="#000" stroke-width="1.063"/>
  <path d="m57.339 54.209c-5.8757 0.25294-7.8281 3.2832-7.8281 3.2832-1.3562 1.5498 0.0682 2.1959 0.31641 1.8945 0.6898-0.84062 1.0244-0.79548 1.3887-0.82227 0.0269 0.0104 0.0426 0.02439 0.0684 0.03516 0.29375-0.45936 3.2296-2.6177 6.168-2.248 4.7727 0.60039 9.2962 3.309 9.4609 3.4648 0.98039-1.2145 1.272-3.1754-1.4297-3.9668 0 0-5.1986-1.7674-8.1445-1.6406z" fill="url(#ag)"/>
  <path d="m49.75 59.13s-0.59723 2.8139-1.0733 4.1669c-0.55959 1.5904-2.0834 4.6088-2.0834 4.6088-0.13241 0.79521-0.63193 1.6363 0.50508 2.2728 0.63659-0.33141 1.232-0.34994 1.7046-0.1894 0.71026 0.47353 1.3763 0.64438 1.7678 3.0305 0.56357-0.23067 0.62261-1.134 0.69448-2.0203 0 0-0.44322-5.6845 0.25254-8.3969 0.27594-1.0758 1.5152-2.9673 1.5152-2.9673s-0.91013-1.1765-1.5784-1.2627c-0.6167-0.07953-1.7046 0.75761-1.7046 0.75761z" fill="#fff" stroke="#000" stroke-linejoin="bevel" stroke-width=".99921"/>
  <path d="m47.351 70.21c-0.18257 2.1244 0.02291 5.8511 1e-6 8.9335-0.44226 0.7467-1.1518 1.0567-1.9572 1.4521l-11.743 5.2402-4.0406 0.75762 2.9673 1.2627 0.1894 1.5152 1.6415-1.8309 5.5558-2.8411 7.1342-2.7148c1.0102-0.42069 1.4521-1.3686 2.0834-2.2413 1.352-2.0802 1.2282-5.0472 1.2627-7.292 0 0-0.01384-1.8984-1.5468-2.4307-0.50958-0.17694-1.5468 0.1894-1.5468 0.1894z" fill="#fff" stroke="#000" stroke-linejoin="round" stroke-width="1.063"/>
  <path d="m48.499 70.025c-0.5067 0.02839-1.0898 0.23438-1.0898 0.23438-0.18257 2.1244 0.0229 5.8512 0 8.9336-0.44226 0.74669-1.1517 1.0558-1.957 1.4512l-11.742 5.2402-4.041 0.75781 2.8555 1.2168c2.9019-1.3727 3.4419-2.2318 14.785-7.168 0.64069-0.2788 1.0188-0.82178 1.1621-1.4277 0.63057-2.6664 1.4465-5.1884 1.2578-8.6953-0.2028-0.20458-0.44839-0.38518-0.77344-0.49805-0.1274-0.04423-0.28813-0.05438-0.45703-0.04492z" fill="url(#ai)"/>
  <path d="m69.202 55.274c-1.2835 1.8521-3.8351 6.3116-4.7982 6.8185l-2.3991 1.2627c-0.61039 0.58926-0.57855 0.92597-0.1894 1.5152 0 0 1.2239-1.2345 2.3991-0.50508 0.62914 0.39047 0.75762 2.1466 0.75762 2.1466 0.37881 0.04077 0.75762 0.19953 1.1364-0.56821l0.69448-2.336c0.24512-0.82449 3.1635-4.4433 4.8614-6.5029 1.0058-1.2781-1.4462-3.0694-2.4622-1.8309z" fill="#fff" stroke="#000" stroke-linejoin="round" stroke-width="1.1693"/>
  <path d="m70.221 54.623c-0.35704-0.01374-0.70107 0.1064-0.95508 0.41602-1.2835 1.8521-3.8337 6.3114-4.7969 6.8184l-2.4004 1.2637c-0.61039 0.58926-0.57859 0.92638-0.18945 1.5156 0 0 1.2252-1.2352 2.4004-0.50586 0.20298 0.12598 0.33797 0.40355 0.44922 0.70898 0.0138-0.0382 0.03381-0.0771 0.04687-0.11523 2.3011-4.5735 4.3024-7.1026 6.7871-9.416-0.34235-0.38369-0.84923-0.66659-1.3418-0.68555z" fill="url(#aj)"/>
  <path d="m63.319 63.96c-1.1974 0.01503-2.3081 2.2728-1.7678 2.2728 0 0 0.34758 1.6815 0.50508 2.5254 0.2939 1.5747 0.88247 3.1344 0.82075 4.7351-0.05271 1.3669-1.0102 3.9775-1.0102 3.9775-0.1733 0.76986 1.5084-0.42014 2.2728 0.12627 0.78074 0.35317 0.79073-0.19286 0.56821-1.0102 0 0-0.63038-5.6642-0.25254-8.46 0.115-0.85099 0.69448-2.0834 0.69448-2.0834s-0.05079-2.1058-1.8309-2.0834z" fill="#fff" stroke="#000" stroke-width="1.063"/>
  <path d="m63.205 63.816c-1.1974 0.01503-2.3079 2.2715-1.7676 2.2715 0 0 0.34836 1.6815 0.50586 2.5254 0.29389 1.5747 0.88203 3.1356 0.82031 4.7363-0.0527 1.3669-1.0098 3.9766-1.0098 3.9766-0.155 0.68859 1.1687-0.18207 1.998 0.0156-0.20159-2.2589-0.13764-2.1983-0.16612-4.6468-0.03575-3.0734-1.3392-6.87 0.97778-8.2714-0.23959-0.15001-0.9756-0.61195-1.3585-0.60714z" fill="url(#ak)"/>
  <path d="m62.309 77.928s-1.9997 4.9769-3.7249 6.8817c-1.1011 1.2156-4.0406 2.9673-4.0406 2.9673 1.5376 0.21485 2.2073 0.68998 3.0936 0.1894l0.56821 3.283c0.70649-1.8808 0.83406-3.5247 2.0203-5.2402 0.80941-1.1705 1.7197-2.8897 2.4622-4.1037 0.82062-1.3417 1.7678-3.9775 1.7678-3.9775-0.93571-1.211-1.5391-0.59436-2.1466 0z" fill="#fff" stroke="#000" stroke-linejoin="round" stroke-width="1.063"/>
  <path d="m63.394 77.036c-0.45861-0.06276-0.83518 0.31798-1.2148 0.68945 0 0-2.0013 4.9761-3.7266 6.8809-1.1011 1.2156-4.0391 2.9688-4.0391 2.9688 1.5225 0.21274 2.193 0.67596 3.0664 0.19922l0.03516-0.04492c2.6213-3.0325 4.8054-6.4394 6.25-10.48 0 0 0.03415-0.03035 0.03516-0.03125-0.14188-0.09582-0.27861-0.16418-0.40625-0.18164z" fill="url(#al)"/>
  <path d="m78.661 54.46c-0.9713-0.38709-1.9453 0.13601-2.8571 1.2946-1.2884 1.6371-0.60431 3.0111-0.17857 4.4196 0.46793 0.67454 1.0207 0.84019 1.6071 0.80357 1.6369 0.29323 3.2738 0.52581 4.9107 1.1607l2.0536 1.8304c0.47736 1.1993 1.2566-0.53007 1.5625-0.71428 0.49848-0.30015 0.56542-0.50109 1.3839-0.26786-0.37416-1.955-1.4153-2.7125-3.2589-3.5268-1.5009-0.66292-3.1248-0.84765-4.4643-0.49107 0 0 0.46867-1.4869 0.35714-2.2321-0.1251-0.8359-0.31002-1.9556-1.1161-2.2768z" fill="#fff" stroke="#000" stroke-linejoin="round" stroke-width="1.063"/>
  <path d="m84.911 64.282s1.3933 5.5008 2.6339 8.2143c0.78318 1.7129 2.1836 3.0993 2.9464 4.8214 0.57788 1.3045 1.2054 4.1071 1.2054 4.1071 0.7608-0.86112 1.6215-0.82282 2.5-0.625 0 0-3.7793-5.845-5.0446-9.0625-1.1161-2.8382-2.1875-8.8839-2.1875-8.8839-0.99428-0.39796-1.8445 0.43725-2.0536 1.4286z" fill="#fff" stroke="#000" stroke-linejoin="round" stroke-width="1.063"/>
  <path d="m92.232 81.291c0.82563 1.3593 2.0547 2.5048 3.9732 3.0804l5.8036 2.5446 3.1696 4.0179s-0.46257-3.2056-0.17857-3.3036c0.97478-0.33609 2.9018 1.0714 2.9018 1.0714 0.18219-0.14575-2.4169-3.129-4.0179-3.5714-0.25818-0.07135-4.7784-1.2573-6.9643-2.3661-1.1047-0.56036-3.0357-1.875-3.0357-1.875-0.7148-0.43181-1.6695-0.02373-1.6518 0.40179z" fill="#fff" stroke="#000" stroke-linejoin="round" stroke-width=".99921"/>
  <path d="m99.732 49.416c-1.5908 0.94253-1.5073 4.3571-0.625 5.9821 0.92829 1.7097 3.7179 3.9286 5.4464 3.0357 1.755-0.90652 1.8645-4.798 0.89286-6.5179-0.9693-1.7157-4.0189-3.5045-5.7143-2.5z" fill="#fff" stroke="#000" stroke-width=".70866"/>
  <path d="m99.691 49.465c-1.5908 0.94253-1.5073 4.3571-0.625 5.9821 0.92829 1.7097 3.7179 3.9286 5.4464 3.0357 1.755-0.90652 1.8645-4.798 0.89286-6.5179-0.9693-1.7157-4.0189-3.5045-5.7143-2.5z" fill="url(#ac)"/>
  <path d="m101.77 50.165c-1.0431 0.06031-1.4771 1.7334-1.4521 2.7779 0.0239 0.99951 0.39555 1.7811 1.389 1.894 1.0059 0.11436 1.337-1.118 1.6415-2.0834 0.47975-1.521-0.30801-2.662-1.5784-2.5885z" fill="#fff" stroke="#000" stroke-width=".35433"/>
  <path d="m68.993 63.766s-0.12283 3.5734 0.22321 5.3571c0.2892 1.4907 1.0669 3.2973 0.98215 5-0.0654 1.3137-1.4286 3.6607-1.4286 3.6607l1.6964-0.35714v2.9464s1.2908-2.2994 1.6071-3.6607c0.23107-0.99423 0.20784-2.6469 0.0893-3.6607-0.17943-1.5344-1.0258-2.6113-1.2054-4.1964-0.2597-2.2923-0.44642-6.6071-0.44642-6.6071z" fill="url(#ae)"/>
  <path d="m39.581 72.232s-1.4896 1.6761-2.3268 2.2637c-1.1955 0.83907-2.3866 1.5097-3.722 2.1014-1.0673 0.47294-1.7503 0.91013-3.4588 1.1291-1.6918 0.21688-3.3227-0.12993-4.9369 1.0191 0.93284 0.19698 2.017 0.27292 2.5586 0.78284l-1.0714 3.0312s4.2174-2.7527 6.5124-3.9439c1.8165-0.94279 4.2004-1.942 5.2832-2.6795 1.2982-0.88428 2.3802-2.3684 3.2206-3.5191z" fill="url(#ad)"/>
  <path d="m51.412 58.385c-0.61669-0.07953-1.7051 0.75586-1.7051 0.75586s-0.5962 2.815-1.0723 4.168c-0.55958 1.5904-2.084 4.6094-2.084 4.6094-0.1324 0.79521-0.63115 1.635 0.50586 2.2715 0.63659-0.33141 1.2305-0.34999 1.7031-0.18945 0.17354 0.1157 0.34486 0.21379 0.50976 0.33008-0.07636-4.6509 0.56576-8.8346 2.9043-11.49h0.0312c-0.26026-0.2228-0.53944-0.42238-0.79297-0.45508z" fill="url(#ah)"/>
  <path d="m78.636 54.404c-0.9713-0.38709-1.9453 0.13601-2.8571 1.2946-1.2884 1.6371-0.60431 3.0111-0.17857 4.4196 0.46793 0.67454 1.0207 0.84019 1.6071 0.80357 3.2238-0.66242 4.5381-0.69329 5.6696-0.3125 1.0902 0.36685 3.4226 2.0882 4.2411 2.3214-0.37417-1.955-1.4153-2.7125-3.2589-3.5268-1.5009-0.66292-3.1248-0.84765-4.4643-0.49107-0.7011 0.40063-2.4527-0.49358-1.6071-1.7857 0.46282-0.70723 1.6543-2.402 0.84826-2.7232z" fill="url(#am)"/>
  <path d="m86.574 62.437c-0.26256-0.02942-0.50594 0.03095-0.72656 0.14648 0.0709 0.37237 1.174 5.6105 2.0098 8.1719 1.0745 3.2933 3.699 7.0162 4.6426 9.6434l-0.0025 0.68136c0.56187-0.25774 1.0687-0.74046 1.6744-0.60407 0 0-3.7796-5.845-5.0449-9.0625-1.1162-2.8382-2.1875-8.8848-2.1875-8.8848-0.12429-0.04974-0.24643-0.07849-0.36524-0.0918z" fill="url(#an)"/>
  <path d="m93.297 80.742c-0.27475-0.0229-0.53956 0.04021-0.74024 0.14453 0.22858 0.2157 1.897 1.7815 2.9785 2.3672 2.3837 1.2909 6.2308 2.2733 7.2333 2.9475 0.8765 0.58949-0.0727 1.5923 1.9768 3.0868-0.0437-0.60346 0.11937-1.5882 0.22937-1.6261 0.97478-0.33609 2.9024 1.0723 2.9024 1.0723 0.18219-0.14575-2.4166-3.1298-4.0176-3.5723-0.25818-0.07135-4.7789-1.2564-6.9649-2.3652-1.1047-0.56036-3.0352-1.875-3.0352-1.875-0.17871-0.10795-0.37276-0.16387-0.5625-0.17969z" fill="url(#ao)"/>
 </g>
</svg>
