<?xml version="1.0" encoding="utf-8"?>
<!-- Generator: Adobe Illustrator 22.1.0, SVG Export Plug-In . SVG Version: 6.00 Build 0)  -->
<svg version="1.1" id="Layer_1" xmlns="http://www.w3.org/2000/svg" xmlns:xlink="http://www.w3.org/1999/xlink" x="0px" y="0px"
	 viewBox="0 0 91 47.2" style="enable-background:new 0 0 91 47.2;" xml:space="preserve">
<style type="text/css">
	.st0{fill:none;stroke:#000000;stroke-width:1.063;stroke-linejoin:round;}
	.st1{fill:none;stroke:#000000;stroke-linejoin:round;}
	.st2{fill:none;}
	.st3{fill:none;stroke:#000000;stroke-width:1.063;}
	.st4{fill:none;stroke:#000000;stroke-width:0.9992;stroke-linejoin:bevel;}
	.st5{fill:none;stroke:#000000;stroke-width:1.1693;stroke-linejoin:round;}
	.st6{fill:none;stroke:#000000;stroke-width:0.9992;stroke-linejoin:round;}
	.st7{fill:none;stroke:#000000;stroke-width:0.7087;}
	.st8{fill:none;stroke:#000000;stroke-width:0.3543;}
</style>
<path class="st0" d="M64.7,7.7c0.4-0.2,0.7-0.4,1-1.1c0-0.6,0-1.2,0-2c0.1-0.6,0-1.6,1.7-1.4c0,0,2.9,0.7,4.4,0.8
	c0.9,0.1,1.7,0.1,2.6,0c0.8-0.1,2.3-0.7,2.3-0.7l-0.7,1.2L77,5.8c0,0-1.6-0.1-2.4-0.1c-1.7-0.1-3.3-0.3-5-0.5
	c-0.8-0.1-2.3-0.4-2.3-0.4C67.1,5.5,67,6.3,67,7.6c-0.1,0.4,0.2,1.1-0.1,1.3L64.7,7.7z"/>
<path class="st1" d="M46.3,23.6c2.3,2,4,4.4,5.9,7c-0.8,1.1-0.2,1.6,0,2.3c0.5-1.1,0.6-1,0.9-1.4c0.7-0.4,1.4-0.1,2,0.3
	c0-1-1.1-1.6-1.7-1.9c-2.2-2.6-4.3-4.6-5.5-7.7L46.3,23.6z"/>
<path class="st2" d="M46.3,23.6c2.3,2,4,4.4,5.9,7c-0.8,1.1-0.2,1.6,0,2.3c0.5-1.1,0.6-1,0.9-1.4c0.7-0.4,1.4-0.1,2,0.3
	c0-1-1.1-1.6-1.7-1.9c-2.2-2.6-4.3-4.6-5.5-7.7L46.3,23.6z"/>
<path class="st0" d="M40.4,21.9c0,0-0.1,2.9,0.2,4.3c0.2,1.2,0.9,2.6,0.8,4c-0.1,1.1-1.1,2.9-1.1,2.9l1.4-0.3l0,2.4
	c0,0,1-1.8,1.3-2.9c0.2-0.8,0.2-2.1,0.1-2.9c-0.1-1.2-0.8-2.1-1-3.4c-0.2-1.8-0.4-5.3-0.4-5.3L40.4,21.9z"/>
<path class="st0" d="M16.8,28.7c0,0-1.2,1.3-1.9,1.8c-1,0.7-1.9,1.2-3,1.7c-0.9,0.4-1.4,0.7-2.8,0.9c-1.4,0.2-2.7-0.1-3.9,0.8
	c0.7,0.2,1.6,0.2,2,0.6L6.4,37c0,0,3.4-2.2,5.2-3.2c1.5-0.8,3.4-1.6,4.2-2.1c1-0.7,1.9-1.9,2.6-2.8L16.8,28.7z"/>
<path class="st3" d="M24.4,10c0,0,2.3-3,6.2-2.1c3.8,0.8,3.8,5.7,3.8,5.7L24.4,10z"/>
<path class="st2" d="M29.5,7.4c-3.1,0-4.8,2.3-4.8,2.3l3.2,1.2c0.5-0.7,1.3-1.6,2.4-1.3c0.9,0.3,1.1,1.3,1,2.5l3.3,1.2
	c0,0,0-4.9-3.8-5.7C30.4,7.4,29.9,7.4,29.5,7.4L29.5,7.4z"/>
<path class="st3" d="M36.5,13.4c-0.6-0.9-0.1-2.1,0-3.2c0.1-1.4,1.2-3,2.8-2.1c2.6,1.4,4.5,1.3,6.4,1.7L36.5,13.4z"/>
<path class="st2" d="M36.6,13.2c-0.6-0.9-0.1-2.1,0-3.2c0.1-1.4,1.2-3,2.8-2.1c2.6,1.4,4.5,1.3,6.4,1.7L36.6,13.2z"/>
<path class="st0" d="M36.3,13.4c0,0-9-4.6-13.9-4.3c-5.1,0.3-10.1,3-13.9,6.4c-2.6,2.3-5.3,9-5.3,9h1.9c0,0,4.8,3,7.4,3.9
	c2.8,0.9,5.8,1.2,8.7,1c4-0.3,8.2-1.1,11.6-3.3c2.3-1.5,5.3-6.3,5.3-6.3C37.7,18.8,38.9,15.1,36.3,13.4L36.3,13.4z"/>
<path class="st2" d="M23.2,8.8c-0.3,0-0.7,0-1,0c-5.1,0.3-10.1,3-13.9,6.4c-2.6,2.3-5.3,9-5.3,9H5c0,0,4.8,3,7.4,3.9
	c2.8,0.9,5.8,1.2,8.7,1c4-0.3,8.2-1.1,11.6-3.3c2.3-1.5,5.3-6.3,5.3-6.3c-0.4-1,0.8-4.7-1.9-6.4C36.1,13,28.2,9,23.2,8.8L23.2,8.8z
	 M23.8,11.9c4.4-0.1,8.5,1.7,8.9,5.8c0.5,5.2-5.6,6.3-11.1,7.1c-4.1,0.6-13.2-0.9-13.6-2.3c-0.8-3,6.5-9.6,12.9-10.2
	C21.2,12.3,23.5,11.9,23.8,11.9L23.8,11.9z"/>
<path class="st3" d="M59.8,7.6c-1.2,1-1.9,3.1-1.6,4.7c0.4,2.1,2.5,3.5,4.1,4.9c1.9,1.6,4.1,3.6,6.6,4.1c1.1,0.2,3,0.2,3.7-0.7
	c1.1-1.5,0-4.5-0.7-6.1c-1-2.3-2.8-4.1-4.7-5.7c-0.9,0.4-2.6-1.3-2.6-1.4c0,0-0.8-0.5-1.2-0.5C62.2,6.6,60.6,6.9,59.8,7.6L59.8,7.6z
	"/>
<path class="st3" d="M50.6,9.6c0.6-1,2.2-1.8,4.6-1.9c0.6,0,1.3,0.1,1.9,0.2c2.5,0.5,2.4,1.7,3.1,2.9c0.4,0.8,0.5,1.6,0.4,3.2
	c-0.1,0.4-0.3,0.8-0.8,1.4c-1.9,1.6-3.9,2-5.8,2.1L50.6,9.6z"/>
<path class="st3" d="M35.6,12.9c0,0,5.4-3.4,8.4-4.2c2-0.6,6.2-0.6,6.2-0.6c0.9,0.1,1.6,0.8,2.3,1.5c1.7,1.9,2.1,4,1.9,6.1
	c0.1,1.8-0.9,2.6-1.7,3.5l-5.7,4c-1.8,1-2.7,0.6-3.8,0.5C39.2,21.6,34,14.3,35.6,12.9L35.6,12.9z"/>
<path class="st0" d="M70.1,11.5c1,0.9,1.9,1.2,7.1,3.6c1.8,0.8,3.7,1.1,4.2,0.8c2-1.1,1.9-2.8,2.9-4.2c0.1,1.8,1.4,1.5,3.4,0.3
	c-1.6,1.8-3.1,3.9-5.3,5.3c-0.4,0.3-2.4,0.5-3.7,0.2c-2.1-0.5-4.3-1.4-6.9-3.3C71.4,13.6,70.9,12.3,70.1,11.5L70.1,11.5z"/>
<path class="st3" d="M37.7,15.6c0,0-4.2-1.4-6.5-1.3c-4.7,0.2-6.3,2.6-6.3,2.6c-1.1,1.2,0.1,1.8,0.3,1.5c0.6-0.7,0.8-0.6,1.1-0.7
	c0.7,0.3,0.9,0.7,1.3,1.1l0.7-0.1l2.1-0.8c2.1-0.5,4.2,1,7.1,1.6C38.8,19.7,41,16.6,37.7,15.6L37.7,15.6z"/>
<path class="st2" d="M31.1,14.3c-4.7,0.2-6.3,2.6-6.3,2.6c-1.1,1.2,0.1,1.8,0.3,1.5c0.6-0.7,0.8-0.6,1.1-0.7c0,0,0,0,0.1,0
	c0.2-0.4,2.6-2.1,4.9-1.8c3.8,0.5,7.4,2.6,7.6,2.8c0.8-1,1-2.5-1.1-3.2C37.6,15.6,33.4,14.2,31.1,14.3L31.1,14.3z"/>
<path class="st4" d="M25,18.3c0,0-0.5,2.3-0.9,3.3c-0.4,1.3-1.7,3.7-1.7,3.7c-0.1,0.6-0.5,1.3,0.4,1.8c0.5-0.3,1-0.3,1.4-0.2
	c0.6,0.4,1.1,0.5,1.4,2.4c0.5-0.2,0.5-0.9,0.6-1.6c0,0-0.4-4.5,0.2-6.7c0.2-0.9,1.2-2.4,1.2-2.4s-0.7-0.9-1.3-1
	C25.9,17.6,25,18.3,25,18.3z"/>
<path class="st0" d="M23.1,27.1c-0.1,1.7,0,4.7,0,7.1c-0.4,0.6-0.9,0.8-1.6,1.2l-9.4,4.2l-3.2,0.6l2.4,1l0.2,1.2l1.3-1.5l4.4-2.3
	l5.7-2.2c0.8-0.3,1.2-1.1,1.7-1.8c1.1-1.7,1-4,1-5.8c0,0,0-1.5-1.2-1.9C23.9,26.8,23.1,27.1,23.1,27.1L23.1,27.1z"/>
<path class="st2" d="M24,27c-0.4,0-0.9,0.2-0.9,0.2c-0.1,1.7,0,4.7,0,7.1c-0.4,0.6-0.9,0.8-1.6,1.2l-9.4,4.2l-3.2,0.6l2.3,1
	c2.3-1.1,2.8-1.8,11.8-5.7c0.5-0.2,0.8-0.7,0.9-1.1c0.5-2.1,1.2-4.2,1-7c-0.2-0.2-0.4-0.3-0.6-0.4C24.3,27,24.1,27,24,27L24,27z"/>
<path class="st5" d="M40.6,15.2c-1,1.5-3.1,5-3.8,5.5l-1.9,1c-0.5,0.5-0.5,0.7-0.2,1.2c0,0,1-1,1.9-0.4c0.5,0.3,0.6,1.7,0.6,1.7
	c0.3,0,0.6,0.2,0.9-0.5l0.6-1.9c0.2-0.7,2.5-3.6,3.9-5.2C43.3,15.6,41.4,14.2,40.6,15.2L40.6,15.2z"/>
<path class="st2" d="M41.4,14.7c-0.3,0-0.6,0.1-0.8,0.3c-1,1.5-3.1,5-3.8,5.5l-1.9,1c-0.5,0.5-0.5,0.7-0.2,1.2c0,0,1-1,1.9-0.4
	c0.2,0.1,0.3,0.3,0.4,0.6c0,0,0-0.1,0-0.1c1.8-3.7,3.4-5.7,5.4-7.5C42.2,14.9,41.8,14.7,41.4,14.7L41.4,14.7z"/>
<path class="st3" d="M35.9,22.1c-1,0-1.8,1.8-1.4,1.8c0,0,0.3,1.3,0.4,2c0.2,1.3,0.7,2.5,0.7,3.8c0,1.1-0.8,3.2-0.8,3.2
	c-0.1,0.6,1.2-0.3,1.8,0.1c0.6,0.3,0.6-0.2,0.5-0.8c0,0-0.5-4.5-0.2-6.8c0.1-0.7,0.6-1.7,0.6-1.7S37.3,22.1,35.9,22.1L35.9,22.1z"/>
<path class="st2" d="M35.8,22c-1,0-1.8,1.8-1.4,1.8c0,0,0.3,1.3,0.4,2c0.2,1.3,0.7,2.5,0.7,3.8c0,1.1-0.8,3.2-0.8,3.2
	c-0.1,0.6,0.9-0.1,1.6,0c-0.2-1.8-0.1-1.8-0.1-3.7c0-2.5-1.1-5.5,0.8-6.6C36.7,22.4,36.1,22,35.8,22L35.8,22z"/>
<path class="st0" d="M35,33.3c0,0-1.6,4-3,5.5c-0.9,1-3.2,2.4-3.2,2.4c1.2,0.2,1.8,0.6,2.5,0.2l0.5,2.6c0.6-1.5,0.7-2.8,1.6-4.2
	c0.6-0.9,1.4-2.3,2-3.3c0.7-1.1,1.4-3.2,1.4-3.2C36,32.3,35.5,32.8,35,33.3L35,33.3z"/>
<path class="st2" d="M35.9,32.6c-0.4-0.1-0.7,0.3-1,0.6c0,0-1.6,4-3,5.5c-0.9,1-3.2,2.4-3.2,2.4c1.2,0.2,1.8,0.5,2.5,0.2l0,0
	c2.1-2.4,3.8-5.2,5-8.4c0,0,0,0,0,0C36.1,32.7,36,32.6,35.9,32.6L35.9,32.6z"/>
<path class="st0" d="M48.1,14.5c-0.8-0.3-1.6,0.1-2.3,1c-1,1.3-0.5,2.4-0.1,3.5c0.4,0.5,0.8,0.7,1.3,0.6c1.3,0.2,2.6,0.4,3.9,0.9
	l1.6,1.5c0.4,1,1-0.4,1.3-0.6c0.4-0.2,0.5-0.4,1.1-0.2c-0.3-1.6-1.1-2.2-2.6-2.8c-1.2-0.5-2.5-0.7-3.6-0.4c0,0,0.4-1.2,0.3-1.8
	C48.9,15.7,48.8,14.8,48.1,14.5L48.1,14.5z"/>
<path class="st0" d="M53.1,22.4c0,0,1.1,4.4,2.1,6.6c0.6,1.4,1.7,2.5,2.4,3.9c0.5,1,1,3.3,1,3.3c0.6-0.7,1.3-0.7,2-0.5
	c0,0-3-4.7-4-7.3c-0.9-2.3-1.8-7.1-1.8-7.1C54,20.9,53.3,21.6,53.1,22.4z"/>
<path class="st6" d="M59,36c0.7,1.1,1.6,2,3.2,2.5l4.6,2l2.5,3.2c0,0-0.4-2.6-0.1-2.6c0.8-0.3,2.3,0.9,2.3,0.9
	c0.1-0.1-1.9-2.5-3.2-2.9c-0.2-0.1-3.8-1-5.6-1.9c-0.9-0.4-2.4-1.5-2.4-1.5C59.7,35.3,59,35.7,59,36L59,36z"/>
<path class="st7" d="M65,10.5c-1.3,0.8-1.2,3.5-0.5,4.8c0.7,1.4,3,3.1,4.4,2.4c1.4-0.7,1.5-3.8,0.7-5.2C68.8,11.1,66.3,9.7,65,10.5
	L65,10.5z"/>
<path class="st2" d="M64.9,10.5c-1.3,0.8-1.2,3.5-0.5,4.8c0.7,1.4,3,3.1,4.4,2.4c1.4-0.7,1.5-3.8,0.7-5.2
	C68.7,11.2,66.3,9.7,64.9,10.5L64.9,10.5z"/>
<path class="st8" d="M66.6,11.1c-0.8,0-1.2,1.4-1.2,2.2c0,0.8,0.3,1.4,1.1,1.5c0.8,0.1,1.1-0.9,1.3-1.7C68.3,11.9,67.6,11,66.6,11.1
	z"/>
<path class="st2" d="M40.4,22c0,0-0.1,2.9,0.2,4.3c0.2,1.2,0.9,2.6,0.8,4c-0.1,1.1-1.1,2.9-1.1,2.9l1.4-0.3v2.4c0,0,1-1.8,1.3-2.9
	c0.2-0.8,0.2-2.1,0.1-2.9c-0.1-1.2-0.8-2.1-1-3.4c-0.2-1.8-0.4-5.3-0.4-5.3L40.4,22z"/>
<path class="st2" d="M16.9,28.7c0,0-1.2,1.3-1.9,1.8c-1,0.7-1.9,1.2-3,1.7c-0.9,0.4-1.4,0.7-2.8,0.9C7.9,33.3,6.6,33,5.3,34
	c0.7,0.2,1.6,0.2,2,0.6L6.5,37c0,0,3.4-2.2,5.2-3.2c1.5-0.8,3.4-1.6,4.2-2.1c1-0.7,1.9-1.9,2.6-2.8L16.9,28.7z"/>
<path class="st2" d="M26.3,17.7c-0.5-0.1-1.4,0.6-1.4,0.6s-0.5,2.3-0.9,3.3c-0.4,1.3-1.7,3.7-1.7,3.7c-0.1,0.6-0.5,1.3,0.4,1.8
	c0.5-0.3,1-0.3,1.4-0.2c0.1,0.1,0.3,0.2,0.4,0.3c-0.1-3.7,0.5-7.1,2.3-9.2h0C26.8,17.9,26.5,17.7,26.3,17.7L26.3,17.7z"/>
<path class="st2" d="M48.1,14.5c-0.8-0.3-1.6,0.1-2.3,1c-1,1.3-0.5,2.4-0.1,3.5c0.4,0.5,0.8,0.7,1.3,0.6c2.6-0.5,3.6-0.6,4.5-0.3
	c0.9,0.3,2.7,1.7,3.4,1.9c-0.3-1.6-1.1-2.2-2.6-2.8c-1.2-0.5-2.5-0.7-3.6-0.4c-0.6,0.3-2-0.4-1.3-1.4C47.8,16.1,48.7,14.7,48.1,14.5
	L48.1,14.5z"/>
<path class="st2" d="M54.5,20.9c-0.2,0-0.4,0-0.6,0.1c0.1,0.3,0.9,4.5,1.6,6.5c0.9,2.6,3,5.6,3.7,7.7l0,0.5c0.4-0.2,0.9-0.6,1.3-0.5
	c0,0-3-4.7-4-7.3c-0.9-2.3-1.8-7.1-1.8-7.1C54.6,20.9,54.5,20.9,54.5,20.9L54.5,20.9z"/>
<path class="st2" d="M59.8,35.6c-0.2,0-0.4,0-0.6,0.1c0.2,0.2,1.5,1.4,2.4,1.9c1.9,1,5,1.8,5.8,2.4c0.7,0.5-0.1,1.3,1.6,2.5
	c0-0.5,0.1-1.3,0.2-1.3c0.8-0.3,2.3,0.9,2.3,0.9c0.1-0.1-1.9-2.5-3.2-2.9c-0.2-0.1-3.8-1-5.6-1.9c-0.9-0.4-2.4-1.5-2.4-1.5
	C60.1,35.6,60,35.6,59.8,35.6L59.8,35.6z"/>
</svg>
