<?xml version="1.0" standalone="no"?>
<!DOCTYPE svg PUBLIC "-//W3C//DTD SVG 20010904//EN"
 "http://www.w3.org/TR/2001/REC-SVG-20010904/DTD/svg10.dtd">
<svg version="1.0" xmlns="http://www.w3.org/2000/svg"
 width="1280.000000pt" height="664.000000pt" viewBox="0 0 1280.000000 664.000000"
 preserveAspectRatio="xMidYMid meet">
<g transform="translate(0.000000,664.000000) scale(0.100000,-0.100000)"
fill="#000000" stroke="none">
<path d="M5780 6629 c-214 -23 -394 -97 -522 -217 -93 -86 -249 -305 -320
-447 -29 -58 -62 -154 -55 -161 2 -2 35 10 73 27 172 79 293 116 407 125 89 8
156 -8 327 -78 309 -125 378 -151 468 -175 87 -22 111 -24 237 -20 141 5 198
17 283 61 18 9 32 15 32 12 0 -2 -17 -33 -39 -68 -81 -133 -208 -430 -264
-618 -67 -221 -125 -502 -203 -985 -8 -49 -17 -91 -20 -94 -2 -3 -71 5 -152
18 -320 49 -349 52 -462 49 -130 -3 -160 -15 -256 -101 -49 -44 -50 -44 -144
-51 -106 -8 -285 -41 -495 -91 -77 -18 -187 -45 -245 -58 -65 -16 -153 -27
-230 -31 -218 -11 -392 -55 -588 -147 l-103 -48 -77 35 c-63 29 -81 33 -100
25 -13 -6 -57 -11 -98 -11 -88 0 -102 -6 -169 -70 -38 -36 -67 -53 -120 -70
-38 -13 -87 -31 -107 -41 -37 -19 -88 -75 -88 -97 0 -20 -17 -13 -34 13 -44
67 -94 52 -170 -53 -74 -103 -80 -106 -214 -106 -105 -1 -115 -3 -132 -23
l-17 -22 -12 25 c-6 13 -22 29 -36 36 -22 10 -29 8 -50 -12 -14 -13 -46 -57
-71 -97 -26 -42 -58 -80 -74 -88 -39 -20 -102 -19 -185 4 -134 37 -178 33
-247 -22 -60 -49 -92 -67 -171 -97 -31 -12 -73 -37 -94 -56 -78 -73 -114 -82
-248 -59 -141 23 -218 20 -276 -11 -52 -29 -60 -42 -64 -113 -3 -45 -4 -46
-43 -53 -73 -12 -132 -58 -132 -101 0 -12 -167 -63 -276 -83 -31 -6 -32 -8
-38 -74 l-7 -67 -38 -6 c-86 -11 -121 -47 -121 -124 0 -33 5 -46 26 -62 73
-58 267 -72 476 -35 35 6 37 5 56 -38 44 -101 173 -141 328 -102 25 6 25 5 14
-16 -7 -14 -11 -48 -8 -88 4 -57 8 -68 36 -93 45 -40 96 -50 240 -47 73 2 165
-3 216 -11 49 -7 126 -11 170 -9 70 4 97 12 198 57 88 38 129 51 165 51 26 0
53 -4 59 -8 16 -10 34 -48 34 -70 0 -24 44 -42 100 -42 l37 0 13 -59 c8 -39
21 -68 37 -83 27 -25 42 -26 203 -14 l95 8 23 -36 c12 -20 22 -44 22 -54 0
-25 56 -77 104 -97 l38 -16 -7 -54 c-10 -84 12 -113 104 -140 78 -24 286 -5
348 31 23 13 46 24 52 24 22 0 55 -49 108 -158 74 -151 123 -189 187 -146 22
14 25 14 29 -3 31 -107 61 -194 77 -220 23 -39 65 -62 131 -72 64 -10 118 0
319 59 191 56 260 69 260 49 0 -31 -21 -83 -40 -101 -25 -24 -25 -27 3 -69 17
-26 37 -39 83 -54 l60 -20 -33 -32 c-24 -22 -33 -40 -33 -63 0 -28 5 -34 47
-52 84 -37 190 -36 398 5 259 51 230 53 231 -12 1 -78 31 -142 85 -178 55 -36
169 -45 250 -18 56 19 127 82 150 134 13 28 15 29 66 24 41 -5 53 -3 53 8 1
38 16 42 76 21 176 -61 329 -75 394 -36 44 25 80 78 80 117 0 27 2 29 30 23
40 -7 67 4 124 53 25 22 63 45 84 51 54 15 162 12 250 -6 42 -9 109 -17 147
-18 75 -1 110 12 224 85 49 30 61 34 115 32 81 -4 109 9 147 68 35 54 127 119
170 119 14 0 40 -5 56 -10 25 -9 29 -15 25 -36 -8 -41 22 -64 82 -64 28 0 67
4 87 9 33 8 36 6 47 -21 29 -78 211 -74 317 7 l32 24 1 -36 c3 -88 101 -158
221 -158 86 0 131 25 147 80 6 24 13 34 18 27 12 -21 118 -87 175 -110 63 -26
137 -29 169 -6 27 19 52 65 52 96 0 44 12 50 61 33 29 -11 104 -19 224 -25
138 -6 195 -13 245 -29 84 -27 205 -38 253 -22 21 7 64 40 104 81 55 55 76 69
108 74 126 20 143 27 215 85 72 59 121 81 179 81 52 0 88 24 95 64 8 40 39 69
94 87 90 29 122 78 122 187 0 39 -5 83 -10 98 l-11 27 76 -6 c44 -4 84 -3 95
3 24 13 42 66 34 107 l-6 33 73 0 c41 0 116 -5 167 -10 199 -21 299 48 290
200 -3 54 -1 60 17 60 30 1 97 34 122 61 30 33 53 91 53 133 l0 34 68 6 c37 3
120 8 184 12 136 7 145 13 155 92 5 47 3 53 -25 81 l-30 31 129 0 c95 0 138 4
158 15 33 16 61 77 61 130 0 30 3 35 24 35 49 0 155 40 175 67 25 31 29 104 7
123 -8 6 -41 15 -72 19 -45 6 -61 13 -73 32 -9 13 -30 39 -47 57 l-32 32 -188
0 c-104 0 -199 3 -211 6 -18 5 -23 14 -23 38 0 17 -7 41 -15 53 -22 32 -124
61 -255 73 -63 6 -169 24 -235 40 -66 16 -142 32 -170 36 -54 7 -65 16 -65 53
0 39 -37 88 -84 109 -49 24 -202 47 -252 39 -28 -5 -40 1 -89 44 -142 124
-332 164 -523 110 -24 -7 -51 -3 -120 19 -118 38 -262 67 -404 82 -110 11
-123 11 -210 -10 -102 -24 -177 -28 -211 -11 -12 7 -69 58 -127 114 -91 88
-114 105 -161 118 -86 25 -176 45 -284 61 -153 24 -235 43 -413 97 -267 80
-289 84 -418 70 l-112 -12 -53 34 c-59 38 -220 120 -257 132 -13 4 -53 27 -88
52 -126 88 -242 111 -457 93 -71 -6 -132 -8 -135 -5 -3 2 -11 78 -18 167 -21
273 9 635 82 998 30 149 47 213 116 428 l52 162 41 0 c145 -1 322 -78 460
-202 201 -181 411 -236 578 -154 123 60 252 198 284 305 24 76 24 227 0 304
-10 31 -21 57 -25 57 -4 0 -13 -12 -19 -27 -20 -45 -76 -76 -144 -81 -105 -8
-128 7 -338 218 -157 159 -196 192 -251 219 -93 44 -171 61 -280 61 -144 0
-254 -37 -359 -120 l-49 -39 -26 34 c-15 19 -48 47 -74 62 -26 15 -73 44 -105
66 -202 135 -427 179 -747 146z"/>
</g>
</svg>
