<?xml version="1.0" encoding="utf-8"?>
<!-- Generator: Adobe Illustrator 22.1.0, SVG Export Plug-In . SVG Version: 6.00 Build 0)  -->
<svg version="1.1" id="Layer_1" xmlns="http://www.w3.org/2000/svg" xmlns:xlink="http://www.w3.org/1999/xlink" x="0px" y="0px"
	 viewBox="0 0 1280 664" style="enable-background:new 0 0 1280 664;" xml:space="preserve">
<style type="text/css">
	.st0{fill:none;stroke:#000000;stroke-width:5;stroke-miterlimit:10;}
</style>
<g transform="translate(0.000000,664.000000) scale(0.100000,-0.100000)">
	<path class="st0" d="M5780,6629c-214-23-394-97-522-217c-93-86-249-305-320-447c-29-58-62-154-55-161c2-2,35,10,73,27
		c172,79,293,116,407,125c89,8,156-8,327-78c309-125,378-151,468-175c87-22,111-24,237-20c141,5,198,17,283,61c18,9,32,15,32,12
		c0-2-17-33-39-68c-81-133-208-430-264-618c-67-221-125-502-203-985c-8-49-17-91-20-94c-2-3-71,5-152,18c-320,49-349,52-462,49
		c-130-3-160-15-256-101c-49-44-50-44-144-51c-106-8-285-41-495-91c-77-18-187-45-245-58c-65-16-153-27-230-31
		c-218-11-392-55-588-147l-103-48l-77,35c-63,29-81,33-100,25c-13-6-57-11-98-11c-88,0-102-6-169-70c-38-36-67-53-120-70
		c-38-13-87-31-107-41c-37-19-88-75-88-97c0-20-17-13-34,13c-44,67-94,52-170-53c-74-103-80-106-214-106c-105-1-115-3-132-23l-17-22
		l-12,25c-6,13-22,29-36,36c-22,10-29,8-50-12c-14-13-46-57-71-97c-26-42-58-80-74-88c-39-20-102-19-185,4c-134,37-178,33-247-22
		c-60-49-92-67-171-97c-31-12-73-37-94-56c-78-73-114-82-248-59c-141,23-218,20-276-11c-52-29-60-42-64-113c-3-45-4-46-43-53
		c-73-12-132-58-132-101c0-12-167-63-276-83c-31-6-32-8-38-74l-7-67l-38-6c-86-11-121-47-121-124c0-33,5-46,26-62
		c73-58,267-72,476-35c35,6,37,5,56-38c44-101,173-141,328-102c25,6,25,5,14-16c-7-14-11-48-8-88c4-57,8-68,36-93
		c45-40,96-50,240-47c73,2,165-3,216-11c49-7,126-11,170-9c70,4,97,12,198,57c88,38,129,51,165,51c26,0,53-4,59-8c16-10,34-48,34-70
		c0-24,44-42,100-42h37l13-59c8-39,21-68,37-83c27-25,42-26,203-14l95,8l23-36c12-20,22-44,22-54c0-25,56-77,104-97l38-16l-7-54
		c-10-84,12-113,104-140c78-24,286-5,348,31c23,13,46,24,52,24c22,0,55-49,108-158c74-151,123-189,187-146c22,14,25,14,29-3
		c31-107,61-194,77-220c23-39,65-62,131-72c64-10,118,0,319,59c191,56,260,69,260,49c0-31-21-83-40-101c-25-24-25-27,3-69
		c17-26,37-39,83-54l60-20l-33-32c-24-22-33-40-33-63c0-28,5-34,47-52c84-37,190-36,398,5c259,51,230,53,231-12c1-78,31-142,85-178
		c55-36,169-45,250-18c56,19,127,82,150,134c13,28,15,29,66,24c41-5,53-3,53,8c1,38,16,42,76,21c176-61,329-75,394-36
		c44,25,80,78,80,117c0,27,2,29,30,23c40-7,67,4,124,53c25,22,63,45,84,51c54,15,162,12,250-6c42-9,109-17,147-18
		c75-1,110,12,224,85c49,30,61,34,115,32c81-4,109,9,147,68c35,54,127,119,170,119c14,0,40-5,56-10c25-9,29-15,25-36
		c-8-41,22-64,82-64c28,0,67,4,87,9c33,8,36,6,47-21c29-78,211-74,317,7l32,24l1-36c3-88,101-158,221-158c86,0,131,25,147,80
		c6,24,13,34,18,27c12-21,118-87,175-110c63-26,137-29,169-6c27,19,52,65,52,96c0,44,12,50,61,33c29-11,104-19,224-25
		c138-6,195-13,245-29c84-27,205-38,253-22c21,7,64,40,104,81c55,55,76,69,108,74c126,20,143,27,215,85c72,59,121,81,179,81
		c52,0,88,24,95,64c8,40,39,69,94,87c90,29,122,78,122,187c0,39-5,83-10,98l-11,27l76-6c44-4,84-3,95,3c24,13,42,66,34,107l-6,33h73
		c41,0,116-5,167-10c199-21,299,48,290,200c-3,54-1,60,17,60c30,1,97,34,122,61c30,33,53,91,53,133v34l68,6c37,3,120,8,184,12
		c136,7,145,13,155,92c5,47,3,53-25,81l-30,31h129c95,0,138,4,158,15c33,16,61,77,61,130c0,30,3,35,24,35c49,0,155,40,175,67
		c25,31,29,104,7,123c-8,6-41,15-72,19c-45,6-61,13-73,32c-9,13-30,39-47,57l-32,32h-188c-104,0-199,3-211,6c-18,5-23,14-23,38
		c0,17-7,41-15,53c-22,32-124,61-255,73c-63,6-169,24-235,40s-142,32-170,36c-54,7-65,16-65,53c0,39-37,88-84,109
		c-49,24-202,47-252,39c-28-5-40,1-89,44c-142,124-332,164-523,110c-24-7-51-3-120,19c-118,38-262,67-404,82c-110,11-123,11-210-10
		c-102-24-177-28-211-11c-12,7-69,58-127,114c-91,88-114,105-161,118c-86,25-176,45-284,61c-153,24-235,43-413,97
		c-267,80-289,84-418,70l-112-12l-53,34c-59,38-220,120-257,132c-13,4-53,27-88,52c-126,88-242,111-457,93c-71-6-132-8-135-5
		c-3,2-11,78-18,167c-21,273,9,635,82,998c30,149,47,213,116,428l52,162h41c145-1,322-78,460-202c201-181,411-236,578-154
		c123,60,252,198,284,305c24,76,24,227,0,304c-10,31-21,57-25,57s-13-12-19-27c-20-45-76-76-144-81c-105-8-128,7-338,218
		c-157,159-196,192-251,219c-93,44-171,61-280,61c-144,0-254-37-359-120l-49-39l-26,34c-15,19-48,47-74,62s-73,44-105,66
		C6325,6618,6100,6662,5780,6629z"/>
</g>
</svg>
