<?xml version="1.0" encoding="utf-8"?>
<!-- Generator: Adobe Illustrator 22.1.0, SVG Export Plug-In . SVG Version: 6.00 Build 0)  -->
<svg version="1.1" id="Layer_1" xmlns="http://www.w3.org/2000/svg" xmlns:xlink="http://www.w3.org/1999/xlink" x="0px" y="0px"
	 viewBox="0 0 762.5 695.9" style="enable-background:new 0 0 762.5 695.9;" xml:space="preserve">
<style type="text/css">
	.st0{fill:none;stroke:#000000;stroke-width:3;stroke-miterlimit:10;}
</style>
<g transform="translate(-57.619 -143.8)">
	<g transform="translate(-1026.3 383.86)">
		<g transform="matrix(2.3279 0 0 -2.3279 1748.9 -100.57)">
			<path class="st0" d="M-250.8-73c0,0.2,0.1,0.5,0.1,0.7c4.1,31.7,14.8,61,31.1,84.3c21.6,30.9,50.5,47.9,81.3,47.9
				s59.7-17,81.3-47.9C-38.3-14.9-27-49.5-24.5-86.7c-0.7-0.1-2.5-0.4-4.9-0.9c-0.2,0-0.4-0.1-0.7-0.1c0,0-0.1,0-0.1,0
				c-1.9-0.4-4-0.9-6.3-1.3c0,0-0.1,0-0.1,0c-0.1,0-0.3-0.1-0.4-0.1c0,0-0.1,0-0.1,0c-7.5-1.6-15.8-3.5-17.2-3.6
				C-59.2-15.3-83.5,51-138.4,51c-51.7,0-79.6-54.5-87.7-126c0-0.4-0.1-0.8-0.1-1.2"/>
		</g>
		<g transform="matrix(2.3279 0 0 -2.3279 1279.5 358.94)">
			<path class="st0" d="M125.8,92.4c-2.9-1.6-5.5-3.1-7.9-4.5c-3.2-1.9-5.9-3.6-7.8-4.9c-25.2-14.6-51-30.5-79.9-36
				c-6.9-1.1-13.7-1.6-20.3-1.6c-10.1,0-19.9,1.2-29.2,3.4c-17.4,4.7-36.2,14-56.6,29.6c-1.8,1.6-3.5,3.1-5.1,4.8
				c0,0,0.1-0.3,0.2-0.8c-0.2,0.1-0.3,0.3-0.5,0.5c-0.1,0.3-0.2,0.5-0.2,0.6c0,0-0.2,1.1-0.4,3c2.4,14.5,6.6,24.2,12.3,30.3
				c4.8,3.6,11.3,6.4,20.3,7.8c1,0.2,2,0.3,3,0.4c1.2,0,2.7,0,4.4,0c5.3-0.6,11-1.9,17.2-3.7c16-4.7,34.7-12.5,55.3-19.2
				c9.7-4.4,32.6-13,62-12.2C103.5,89.3,114.5,90.1,125.8,92.4z"/>
			<path class="st0" d="M-6.9,42.6c-50.1-1-69.3,29.2-73.5,38.3c-0.3,0.7-0.6,1.3-0.7,1.7c0,0,0,0,0,0c0,0.1-0.1,0.1-0.1,0.2"/>
			<path class="st0" d="M-81.8,86.4c-0.6,6.2-0.4,20.8,12.3,30.3"/>
			<path class="st0" d="M-41.8,124.8c3.9-0.1,9.3-0.6,17.3-2.4c11-2.5,26.8-7.7,50.1-18c0,0,1.8-1,5.1-2.5"/>
			<path class="st0" d="M5.3,42.6c-4-0.3,52.2-7.9,111.1,42.1c5.1,3,11.7,7.6,18,11.6"/>
			<path class="st0" d="M134.4,96.3c0.7,0.4,1.4,0.9,2,1.3c0.5,0.3,0.9,0.6,1.4,0.8c-0.4-0.1-0.8-0.3-1.1-0.4c0,0-0.1,0-0.1,0
				c-15.6-5.6-30.4-7.9-43.8-8.3"/>
		</g>
		<g transform="matrix(2.3279 0 0 -2.3279 2006 223.09)">
			<path class="st0" d="M-99.4-48.1c-5.4-8.5-17.5-30.4-49.7-40.7c-0.5-0.2-1-0.3-1.4-0.4c0,0-0.1,0-0.2-0.1c-0.1,0-0.1,0-0.3-0.1
				c-0.1,0-0.2,0-0.2-0.1c-0.1,0-0.1,0-0.2,0c-6.3-1.5-44.3-8.1-87.2-8.4c-1.4,0-2.9,0-4.3,0c-29.3,0.2-60.5,3.5-84.9,13.6
				c-47.3,19.6-58.7,68.9-62.4,91c-1.1,7-3.2,16.1-3.5,17.7c0.1-0.1,0.3-0.2,0.4-0.3c0,0,0.1-0.1,0.1-0.1c0.1-0.1,0.2-0.2,0.3-0.3
				c0.2-0.1,0.3-0.3,0.5-0.4C-375.1,7-352.8-5.6-327-10.6c0.5-0.1,1-0.2,1.5-0.3c14.5-3.1,28.1-3,41.1-0.9c0.7,0.1,1.4,0.2,2.1,0.4
				c0.1,0,0.2,0,0.4,0.1c5.1,0.8,10.3,1.9,15.6,3.3c0.5,0.1,1,0.3,1.5,0.4c0.9,0.3,1.8,0.5,2.7,0.8c1.1,0.3,2.1,0.7,3.2,1
				c1,0.3,2,0.7,3,1c0,0,0.1,0,0.1,0c16.3,5.6,33.1,14.4,50.2,26.9c0,0,1.4,1.1,3.8,2.7c2.2,1.3,4.3,2.5,6.5,3.7
				c3.6,2,7.2,4,10.8,5.9c2.2,1.2,4.4,2.3,6.6,3.4c0,0,0,0,0,0c7.7,3.8,15.4,7.2,23.2,9.7c0,0,0.1,0,0.1,0c5.4,1.7,10.8,3.1,16.3,4
				c0,0,0,0,0,0c19,3,39,0,60.9-13.3c0.1-0.1,0.2-0.1,0.4-0.2C-70.7,32.2-61.7,11.1-99.4-48.1z"/>
			<path class="st0" d="M-393.6,24.5c0,0,0,0.1,0,0.1c0,0.1,0,0.2,0,0.2c0.1-0.1,0.2-0.2,0.4-0.4"/>
			<path class="st0" d="M-76.8,38.1c-1,0.9-1.8,1.5-2.4,1.7C-93.1,49.3-108,52.9-122.3,53c-5.9,0-11.8-0.6-17.5-1.6
				c-2.6-0.5-5.1-1-7.6-1.6c0,0-0.1,0-0.1,0c-3-0.8-6-1.6-8.9-2.5c-1.6-0.5-3.2-1.1-4.8-1.6c-0.4-0.1-0.8-0.3-1.2-0.4
				c-0.4-0.1-0.8-0.3-1.2-0.4c-4.2-1.6-8.2-3.3-11.9-5.1c-3.9-1.8-7.5-3.7-10.8-5.5c-2.9-1.6-5.5-3.1-7.8-4.5
				c-3.1-1.8-5.6-3.5-7.6-4.8"/>
			<path class="st0" d="M-327-10.6c8-1.6,16.3-2.4,24.9-2.3"/>
			<path class="st0" d="M-392.3,23.5c-0.2,0.2-0.4,0.3-0.5,0.5"/>
		</g>
		<path class="st0" d="M1536.6,165.3c-0.3,0.1-0.5,0.3-0.8,0.4"/>
		<path class="st0" d="M1827.3,134.5c1.2,0.8,2.5,1.5,3.7,2.3c0.6,0.4,1.2,0.8,1.8,1.2"/>
		<path class="st0" d="M1244.7,247.9c-3.3-0.8-6.6-1.6-10-2.5"/>
		<path class="st0" d="M1088.8,165.3c0.2,0.1,0.4,0.3,0.5,0.4c0.1,0.1,0.2,0.2,0.3,0.3"/>
		<path class="st0" d="M1102.9,176.5c-3.4-2.6-6.8-5.3-10.2-8"/>
		<path class="st0" d="M1577.6,142.6c-0.3,0.1-0.5,0.1-0.8,0.2c-0.6,0.1-1.3,0.3-1.9,0.4c-0.8,0.2-1.7,0.4-2.5,0.5
			c-0.1,0-0.1,0-0.2,0"/>
		<path class="st0" d="M1495.3,150.2c-51-1.6-99.6-13.8-144.3-28.4"/>
		<path class="st0" d="M1182.2,68.4c-5.9-0.7-11.6-1-17-0.8c-18.8,0.5-34.8,6.3-47.5,19.8"/>
		<path class="st0" d="M1089,157.9c-0.4,2.4-0.8,4.8-1.1,7.3"/>
	</g>
</g>
</svg>
