<?xml version="1.0" encoding="utf-8"?>
<!-- Generator: Adobe Illustrator 22.1.0, SVG Export Plug-In . SVG Version: 6.00 Build 0)  -->
<svg version="1.1" id="Layer_1" xmlns="http://www.w3.org/2000/svg" xmlns:xlink="http://www.w3.org/1999/xlink" x="0px" y="0px"
	 viewBox="0 0 1141 801" style="enable-background:new 0 0 1141 801;" xml:space="preserve">
<style type="text/css">
	.st0{fill:none;stroke:#000000;stroke-miterlimit:10;}
</style>
<g>
	<path class="st0" d="M171,709l1-1l37,5c24.7,3.3,37.7,5.3,39,6h7c2.7,0.7,4.3,1,5,1h1v16h-91v-13C170,714.3,170.3,709.7,171,709z"
		/>
	<path class="st0" d="M1044,139h1l-2,3c-0.7,1.3-1.3,2.7-2,4c-0.7,2-1,7.3-1,16v14h23l-11,1h-21v-1h7v-16c0-10-0.3-15.3-1-16
		c-0.7-1.3-1-2.3-1-3v-1l2,1c1.3,0.7,2.7,0.7,4,0C1042.7,140.3,1043.3,139.7,1044,139z"/>
	<path class="st0" d="M224,246h2l35,1h35l1,1c0.7,0,1.3,2.3,2,7l1,7v9h-1l-1,1h-36c-24,0-36,0.3-36,1h-4v-1c0-0.7-0.3-5-1-13v-12
		C221,246.3,222,246,224,246z"/>
	<path class="st0" d="M617,299h1v1c0,0.7-0.7,1.7-2,3s-2.3,2-3,2h-1v-1c0,0-0.7-0.7-2-2l-2-3c0.7-0.7,1.3-1,2-1l2-1
		c1.3-0.7,2.3-0.3,3,1C615.7,298,616.3,298.3,617,299z"/>
	<path class="st0" d="M536,784v-15h89v30h-89V784z"/>
	<path class="st0" d="M673,142v1h-1v1c0,0.7,0.3,1,1,1l-1,21c0,14.7-0.3,22-1,22c-0.7,0.7-0.7,1.3,0,2c-0.7,0.7-1,1-1,1v2h-2v-1
		c-0.7,0-9.3-0.3-26-1l-24-1c-0.7,0-1.3-0.3-2-1l-1-1v-2c-0.7-0.7-1-8-1-22l-1-20v-1l2-2c1.3-0.7,3-1.3,5-2s10.7-0.7,26,0
		s23.7,1.3,25,2C671.7,141.7,672.3,142,673,142z"/>
	<path class="st0" d="M129,244h1c0.7,0,8.3,0.3,23,1l22,1h-14c-9.3,0-15,0.3-17,1c-1.3,0.7-2,1.7-2,3l-1,2c-0.7,0-1-0.7-1-2
		c0-2-2-2.7-6-2l-5,1h-1v-1c0,0,0.3-0.3,1-1l1-1c0-0.7-0.3-1-1-1V244z"/>
	<path class="st0" d="M368,242v-1h2l2,2c2,0.7,11.3,1.3,28,2h25v1c0,0.7-0.7,1-2,1h-23c-14,0.7-22,1-24,1c-1.3,0-2.7,1-4,3l-2,3v-1
		c0-0.7-0.3-1-1-1v-1h1c0-0.7,0-1,0-1h1v-1h1v-3c0-0.7-0.7-1.3-2-2L368,242z"/>
	<path class="st0" d="M1082,736h2c0,0,9,0.3,27,1l27,1v14c0,10,0,15.3,0,16h-1c0,0,0,0.3,0,1h-54v26c-0.7,0-1-4.3-1-13l-1-14v-15
		c0-10-0.3-15-1-15h-1c0,0,0.3-0.3,1-1L1082,736z"/>
	<path class="st0" d="M432,189l2,3c0.7,1.3,0.7,2,0,2s-1,0.3-1,1h-1c0,0.7,0,1,0,1c-0.7,0-2-0.3-4-1s-2.7-1.7-2-3l2-3h2
		C430.7,188.3,431.3,188.3,432,189z"/>
	<path class="st0" d="M244,410c0,0,0.3,0,1,0l1,1c0,0.7,0.7,1,2,1h1c0.7-0.7,1.3-1.3,2-2h1v2h-1l-1,1h-1l-1,21c0,14.7-0.3,22-1,22v1
		c-0.7,0-1-7-1-21s-0.3-21.7-1-23l-1-2V410z"/>
	<path class="st0" d="M171,769h90v30h-85l-5-1c-0.7,0-1-4.7-1-14v-14C170.7,770,171,769.7,171,769z"/>
	<path class="st0" d="M789,386v-1h94c0,0.7-4.3,1-13,1h-12v1h-1v1h-1c0,0.7-0.7,3.3-2,8c0,4.7-0.3,7.3-1,8c-0.7,0-1,0.3-1,1v1
		c0,0.7-0.3,1-1,1h-1c0-0.7-8-1-24-1h-24v1h-1v-1c-0.7-0.7-1-1.3-1-2c-1.3-0.7-2.3-3.3-3-8l-2-8c-0.7-0.7-1.7-1.3-3-2H789z"/>
	<path class="st0" d="M442,735v1c0.7,0.7,14.7,1,42,1c28,0.7,42,1,42,1h-82v3c0,0-0.3,9-1,27l-1,27v-26h-8c0-0.7-13.3-1-40-1h-41v-2
		c-0.7-1.3-1-2-1-2v-26h1l43-1c28.7-0.7,43-1,43-1h1C441.3,736,442,735.7,442,735z"/>
	<path class="st0" d="M63,272v-21h2c0,0.7,0.3,1,1,1v22c0,14,0.3,21.3,1,22c0.7,0,1,0.3,1,1h1v2h-1c0-0.7-0.7-1.3-2-2
		c-0.7-0.7-1.3-1-2-1l-2,1v-2C62,294.3,62.3,286.7,63,272z"/>
	<path class="st0" d="M680,182v77c0,0-0.3-1.3-1-4l-1-4v-50l-1-1l-1-2v4l-1,18v18h-1v-16c0-10.7-0.3-16-1-16v-2c-0.7-0.7-1-2-1-4
		l-1-4h-1v-2h1c0.7,0,1,0.3,1,1c0.7,0.7,1.7,0.7,3,0c2-0.7,3-1.7,3-3v-8C678.7,182.7,679.3,182,680,182z"/>
	<path class="st0" d="M175,80h14v1h1v9c0.7,6.7,1.3,10,2,10c0,0,0.3,0,1,0v1c0,0.7-3,1-9,1c-6.7,0-11.7,0.7-15,2l-5,3v-1
		c0-0.7,0.7-1.3,2-2v-1h1v-1h2l1-1c0-0.7,0-1,0-1h1c0.7,0,1,0,1,0V90c0-5.3,0.3-8,1-8v-1h1v-1H175z"/>
	<path class="st0" d="M126,385h113c0,0.7-8.3,1-25,1h-26v16h1v1c-0.7,0-1,0.3-1,1c-0.7,0-2,0.3-4,1l-2,1c0,0,0,0.3,0,1h-1v2
		c-0.7,0-1-0.3-1-1s-1-1-3-1h-3v-1h6l1-1c0.7-0.7,1.3-1,2-1c0.7-1.3,1-4.3,1-9v-9h-58V385z"/>
	<path class="st0" d="M977,404h3c1.3,1.3,2,2,2,2h1c0,0,0.3,0.3,1,1v2h-1c-0.7,0.7-1,1-1,1s-1,0.3-3,1c-1.3,0.7-2.7,0.3-4-1l-2-1v-1
		l2-2C975.7,404.7,976.3,404,977,404z"/>
	<path class="st0" d="M429,292v-3l3,4c1.3,2,3,3.7,5,5c2,0,10.3,0.3,25,1h23v1c0,0.7-0.7,1-2,1h-3c-0.7,0.7-8,1-22,1
		c-14.7,0-22.7,0.7-24,2l-2,1v-1c0,0,0.7-1,2-3c0.7-1.3,0.7-2.3,0-3h-2v-2h-1c0,0-0.3-0.3-1-1C429.3,295,429,294,429,292z"/>
	<path class="st0" d="M942,608l1-9v7c0.7,4.7,0.7,17,0,37v30h136v1c0.7,0,1,0,1,0v1h-88v31c0,0.7-0.3,1-1,1c0-0.7-7.7-1-23-1h-24
		l-1,14c-0.7,9.3-1.7,14-3,14c-0.7,0-1,0-1,0s0.3-0.3,1-1s1-20,1-58C941.7,636.3,942,614,942,608z"/>
	<path class="st0" d="M246,403l1,1c0.7,0,1.3,0,2,0v1h1v1h1c0.7,0,1,0.7,1,2c0,0.7-0.3,1.3-1,2c-0.7,0-1.3,0.3-2,1v1h-1
		c-1.3,0-2-0.3-2-1l-1-1c-0.7,0-1,0-1,0s-0.3-0.3-1-1c-0.7,0-0.7-0.7,0-2l1-2c0.7-0.7,1-1,1-1h1C246,404,246,403.7,246,403z"/>
	<path class="st0" d="M695,673l1-1c0.7,0,1.3,0.3,2,1h157v2h-23l-22,1c0,0-0.3,4.7-1,14v19c-0.7,3.3-1,5-1,5v-4c0-2.7-14.7-4-44-4
		h-45l-1-1h-1v-30h-24l1-1C694,674,694.3,673.7,695,673z"/>
	<path class="st0" d="M62,244l2-2l2,2c2,0.7,2.3,2,1,4c-0.7,1.3-1.3,2-2,2v1h-1v-1c0,0-0.7-0.7-2-2C60.7,246,60.7,244.7,62,244z"/>
	<path class="st0" d="M678,301v46h-1v1h-1v-7l-1-17l-1-17v-1h-1v-1l2-2C676.3,302.3,677.3,301.7,678,301z"/>
	<path class="st0" d="M184,297l2-2l1,1c0.7,0,1,0.3,1,1h1l1,2c0,1.3-0.3,2.7-1,4c-1.3,0.7-2.3,1.3-3,2c0,0-1-1-3-3
		C181.7,300,182,298.3,184,297z"/>
	<path class="st0" d="M791,410l-2-3h1l2,2c1.3,2,2.7,2.7,4,2s2.7-1.3,4-2c0-0.7,0.3-1,1-1v-1h1v2c0,0.7-0.3,1-1,1h-1v1h-1v1h-1
		c0,0.7,0,7.3,0,20c0,13.3,0.3,20,1,20c0,0,0,0.3,0,1h1c0-0.7,4.3-1,13-1h13v-1h1v-1h1v2c0,0-5,0.3-15,1l-15,1c-0.7,0-1.3-0.7-2-2
		c0-0.7-0.7-7.3-2-20C794,419.3,793,412,791,410z"/>
	<path class="st0" d="M550,404l3-1l2,2c1.3,0.7,2,1.3,2,2v1c0,0.7-0.3,1-1,1c-0.7,0.7-1,1-1,1h-1c0,0-0.7,0.3-2,1l-1,1v-1
		c-0.7,0-1.3-0.3-2-1c-1.3-0.7-2-1.3-2-2C547,406.7,548,405.3,550,404z"/>
	<path class="st0" d="M328,286h4v1c0,0.7,0.3,1,1,1s1,1.3,1,4c0,2-0.3,3.3-1,4l-1,2h-8c-5.3,0-8.7-0.3-10-1l-3-1c-0.7-0.7-1-2-1-4
		c-0.7-1.3,0.3-2.3,3-3l4-1h-7v-1h8C322.7,286.3,326,286,328,286z"/>
	<path class="st0" d="M1100,144h1l1,22c1.3,14.7,2,22.3,2,23c1.3,0.7,2,1,2,1v2c-0.7,0-1.7-0.7-3-2c-2-1.3-3.7-1-5,1l-3,3h-1v1h-1
		l-1-1h-4v-1h1l1-1h3l3-3c1.3-2,2.3-10,3-24C1099,151,1099.3,144,1100,144z"/>
	<path class="st0" d="M491,413l1,22c1.3,14.7,2,22.3,2,23v1h-1c-0.7-0.7-1.7-0.7-3,0h-2v1c0,0-0.3,0-1,0c-0.7,0.7-1,1-1,1
		c-0.7,0.7-7.3,1-20,1h-19v-2l19-1c13.3-0.7,20.3-1,21-1c0.7-0.7,1.7-8.3,3-23C490,420.3,490.3,413,491,413z"/>
	<path class="st0" d="M551,189v-1l2,2c2,0.7,3,1.3,3,2c0,0,0.3,0,1,0v1c0,0.7-1,1.3-3,2s-3.7,0.7-5,0l-2-2l2-2
		C549.7,189.7,550.3,189,551,189z"/>
	<path class="st0" d="M209,136l1,1c0,0.7,4.7,1,14,1s14.3,0.3,15,1h1l3,3c2,2,3,8,3,18v16h-1l-13,1l-14,1h-8l-2,1h-1v-1h1v-21
		C208,143,208.3,136,209,136z"/>
	<path class="st0" d="M1100,291l1-3l1,4c1.3,2.7,7.3,4.7,18,6c10.7,0,16,0,16,0c0.7,0,1.3-0.3,2-1v2c-0.7,0.7-1,1.3-1,2h-13
		c-8.7,0.7-14.3,1.3-17,2l-4,1c-0.7-0.7-1-1-1-1h-1c-0.7,0-1-0.3-1-1l-1-1h-1c0-0.7,0-1,0-1h-1v-1h1v-2h1v-1c0.7,0,1,0,1,0v-1
		C1100,294.3,1100,293,1100,291z"/>
	<path class="st0" d="M3,140v-2c0.7,0,1,0.7,1,2v2h2l1-2c0.7,0,9.7,0,27,0c18,0,27.3,0.3,28,1c0,0.7,0.3,1,1,1v23
		c-0.7,14-1,21.3-1,22v1h-1v1h-1v1h-2l-2,1H32c-14.7-0.7-23-2-25-4l-3-3v-20C4,150,3.7,142,3,140z"/>
	<path class="st0" d="M58,356l-4-2h6l2,1c0.7,0.7,1,1.3,1,2s0.7,0.7,2,0c1.3-0.7,2.3-1.3,3-2h2l-2,2c-1.3,1.3-2,3-2,5
		c0,1.3-0.3,8.3-1,21v19h-2v-21c-0.7-14-1-21.3-1-22C61.3,358.3,60,357.3,58,356z"/>
	<path class="st0" d="M558,353h4l-1,1c-0.7,0-2,0.7-4,2s-3,2.7-3,4c0,0.7-0.3,8-1,22v20h-2v-4h-1v-20c0-13.3-0.3-20-1-20v-2l2,1
		c1.3,0.7,2,0.7,2,0s0.3-1,1-1s1.3-0.3,2-1v-1C556.7,354,557.3,353.7,558,353z"/>
	<path class="st0" d="M607,190h1v2c0,1.3,0.3,2,1,2v2h-1c0,0-8-0.3-24-1l-24-1v-1c0-0.7-0.3-1-1-1v-1h1l2,1l22-1
		C598.7,190.3,606.3,190,607,190z"/>
	<path class="st0" d="M680,180v-2h245c3.3,0.7,5,1,5,1c0,0.7,0,1,0,1H689v1c-0.7,0-1,0.3-1,1v198h3l4,1h4v1h1v2h-3v1h-17V180z"/>
	<path class="st0" d="M810,676l22-1h23v2c0.7,1.3,1,4.3,1,9v7c0,0-0.3,2-1,6v6h-23l-22-1h-1v-14C809.7,680.7,810,676,810,676z"/>
	<path class="st0" d="M1100,143h1v1h-1c-0.7,0-1,7-1,21c-0.7,14-1.7,22-3,24l-3,3h-3l-1,1h-9l-9,1c-0.7,0-1,7.3-1,22v23h-1v-61h-28
		v-1h11l11-1h-23v-14c0-8.7,0.7-14.7,2-18l2-4c0,0,0.3,0,1,0v-1h25c17.3,0.7,26.7,1.3,28,2C1098.7,141.7,1099.3,142.3,1100,143z"/>
	<path class="st0" d="M372,303h1v1c0,0.7-0.3,1-1,1s-1,0.7-1,2c-0.7,1.3-1,8.7-1,22v20h-1c-0.7,0-1-0.3-1-1v-16c0-10-0.3-17-1-21v-7
		h1c1.3,0,2,0,2,0h1C371,304,371.3,303.7,372,303z"/>
	<path class="st0" d="M910,139h2c0,0,0.3,0.3,1,1c0.7,0,1,0,1,0v2c0,0,0.3,0.7,1,2c0.7,0.7,1,6,1,16v16h-58v-1h-1v-1h1v-16
		c1.3-10,2.3-15.3,3-16c0.7-1.3,2.3-2,5-2c2,0,3.3-0.3,4-1h20C902.7,138.3,909.3,138.3,910,139z"/>
	<path class="st0" d="M80,739v-1h24c15.3,0,23.3,1,24,3c0.7,2,1.3,3,2,3l1,1c0.7,0.7,1,0.7,1,0c0.7-0.7,1-1,1-1h1v-1l1-3v-2h34v30
		H80V739z"/>
	<path class="st0" d="M788,139h2c0,0,0.3,0.3,1,1l1,2c1.3,1.3,2,7.3,2,18v16h-58v-16c0-10,0.3-15.3,1-16l1-1l1-1c0.7-1.3,1.7-2,3-2
		s2-0.3,2-1h22C780,138.3,787.3,138.3,788,139z"/>
	<path class="st0" d="M954,513l-1,13c-0.7,8.7-2.3,22.7-5,42c-2.7,18.7-4.3,28.7-5,30v1l-1,9c0,6-0.3,28.3-1,67c0,38-0.3,57.3-1,58
		s-1,1-1,1h-2v1h-4c-2.7,0.7-5.7,1-9,1h-5c-0.7-0.7-2-1.3-4-2c-2.7,0-3-0.3-1-1c1.3-0.7,0.7-1-2-1c-2,0-9.7,0.3-23,1l-20,1h-3
		c-2.7,0-5.3-0.7-8-2c-2-1.3-2.7-8-2-20v-26c0-4.7-0.3-7.7-1-9v-19c-0.7-9.3-1-21-1-35c-1.3-14-2.7-28.3-4-43
		c-2.7-15.3-6-29.3-10-42l-6-20v-3h-1v-1h61C933.3,514,953.3,513.7,954,513z"/>
	<path class="st0" d="M335,208h1v52l-1-2c-0.7-2-1-4-1-6c0-2.7-3-4-9-4c-5.3,0-9,0.3-11,1l-3,1v-1c0-0.7,0.3-1,1-1c0,0,0-0.7,0-2
		l-1-2v-1l1,1c1.3,0,5.3,0,12,0h10v-18C334,214.7,334.3,208.7,335,208z"/>
	<path class="st0" d="M618,192v-2h1c0.7,0,9,0.3,25,1h24v1c-0.7,0-1,0.3-1,1s-7.7,1-23,1h-23l-1,1c-1.3,0-2,0.3-2,1s-0.3,1-1,1h-1
		v-2h1c0-0.7,0-1,0-1C617.7,194,618,193.3,618,192z"/>
	<path class="st0" d="M190,352l1,1l-1,1c-1.3,1.3-2,2.3-2,3v1h-2c-0.7,0-1.3-0.3-2-1c0-0.7,0-1.7,0-3s0.7-2.3,2-3
		S188.7,350.7,190,352z"/>
	<path class="st0" d="M921,411l2-2h50l2,2c0.7,1.3,1.3,3,2,5v6c-0.7,2.7-1,4.7-1,6s-1,1.3-3,0l-2-2v1c-0.7,0-1.3-1-2-3
		c-0.7-1.3-4.3-2-11-2s-10.3,0-11,0l-1,2l-1,1l-1,1v1l-1,1l-1,1v3l3,4c2,2.7,4,4.3,6,5h3v1l-1,4v5h-1l-1,1h-31v-20
		C920,419.3,920.3,412.3,921,411z"/>
	<path class="st0" d="M429,289v3c0,2,0.3,3,1,3c1.3,0,2,0.3,2,1v1h-2c-1.3,0-2.3,0.3-3,1c-1.3,0.7-1.7,1.3-1,2c0,1.3,0.3,2,1,2
		s1,0.3,1,1v1h-2c0,0,0-0.3,0-1h-1c-0.7-0.7-7-1-19-1l-17-1v-1h9l-7-1l-7-1l21-1c14-0.7,21.3-2,22-4C427.7,290.3,428.3,289,429,289z
		"/>
	<path class="st0" d="M560,194l24,1c16,0.7,24,1,24,1h1l1,1c0,0.7,0.3,7.7,1,21v22c-0.7,1.3-1,2.3-1,3c-0.7,0.7-9.7,1-27,1l-26,2h-1
		c0-0.7-0.7-1.3-2-2l-2-2v-1l1-20c0.7-13.3,1-20.7,1-22s0.3-2,1-2s1-0.3,1-1v-1h2C559.3,194.3,560,194,560,194z"/>
	<path class="st0" d="M913,142l-2-3h1c0,0,0.3,0.3,1,1c0.7,0,1,0,1,0v1l2,1c1.3,0,2.7,0,4,0c0.7-0.7,1-1.3,1-2v-1h2l-2,3
		c-0.7,1.3-1.3,3-2,5s-1,7.3-1,16v13h52v1h-25l-25,1h-13c0,0-0.3-0.3-1-1l-1-1h11v-16C916,150,915,144,913,142z"/>
	<path class="st0" d="M248,400v-1l1,1l1,2l2,2c1.3,1.3,10,2,26,2h24v2h-5l-22,1c-14.7,0.7-22.3,1-23,1c0,0-0.3,0-1,0v1
		c-0.7,0-1,0.3-1,1h-1v-1c0.7-0.7,1.3-1,2-1c0.7-0.7,1-1.3,1-2c0-1.3-0.3-2-1-2h-1v-1h-1v-1c-0.7,0-1.3,0-2,0l-1-1v-1h1
		C247.7,402,248,401.3,248,400z"/>
	<path class="st0" d="M922,406c0,0,0,0.3,0,1h1v2h-1c-0.7,0.7-1.3,1-2,1c0,0-0.7,0.3-2,1h-3v-1c-0.7,0-1,0-1,0c0-0.7-0.3-1-1-1
		c0-0.7,0-1.3,0-2v-1h1c0,0,0.3,0,1,0v-2h3c1.3,0,2,0.3,2,1C920.7,405.7,921.3,406,922,406z"/>
	<path class="st0" d="M1131,138h6v26c0.7,17.3,0.7,26.3,0,27l-1,1h-24c-0.7,0-2-0.3-4-1h-2v-1c0,0-0.7-0.3-2-1c0-0.7-0.7-8.3-2-23
		l-1-22v-1l2-2c1.3-0.7,5.3-1.3,12-2S1127,138,1131,138z"/>
	<path class="st0" d="M76,193h2l1,1h1v12c0,4.7-0.3,11.7-1,21l-1,14v3h-4c-2.7,0-4.3,0-5,0l-1-1h-1c0-0.7,0-1,0-1h-1v-24
		c0-13.3,1-20.7,3-22l3-2h2C75.3,194,76,193.7,76,193z"/>
	<path class="st0" d="M434,192l-2-3h2l2,1c0.7,0,7.7,0.3,21,1l20,1h3c1.3,0,2,0.3,2,1s0,1,0,1h-22c-14.7,0-22.7,0.3-24,1l-2,1
		c0,0-0.3,0.3-1,1h-1v-1c0,0,0.3,0,1,0v-1c0-0.7,0.3-1,1-1S434.7,193.3,434,192z"/>
	<path class="st0" d="M1069,368v-16h1l8,1h8v1h4l3,2c2,0.7,3.7,1.3,5,2c0,1.3,0.3,9,1,23l1,21v1c-0.7,0.7-1.7,1.3-3,2l-2,2h-1v-1
		h-49c-0.7-0.7-1-1-1-1v-1c0,0-0.3,0-1,0c-0.7-0.7-1.3-3.3-2-8l-2-8c-0.7-0.7-9.7-1.3-27-2h-27v-1h84V368z"/>
	<path class="st0" d="M121,142l-2-3l3,2c2.7,0.7,4.7,0.7,6,0c1.3-0.7,5.3-1.3,12-2h9v1h-9c-6.7,1.3-10.3,2.3-11,3s-1,6.3-1,17
		s0,16,0,16s4,0.3,12,1l11,1h-28l-4,1h-4v-1h2l3-1c2-0.7,3-6.3,3-17C123.7,149.3,123,143.3,121,142z"/>
	<path class="st0" d="M428,166l1-22h1c0.7,0,1.3,7.3,2,22c0,14,0.3,21.3,1,22c0.7,0,1,0,1,0v1h-2c-0.7-0.7-1.3-0.7-2,0h-2
		c-0.7-0.7-1-1-1-1C427.7,188,428,180.7,428,166z"/>
	<path class="st0" d="M688,490v-7l1,7c0.7,4,1.3,6.3,2,7v2c0,0.7,0.3,1,1,1c0,0,0.3,0.3,1,1h1c0,0.7,0,1,0,1h1c0.7,0,1,0,1,0v1h1
		c0.7,0,1,0.3,1,1v2c0,0.7,0,0.7,0,0l2,6c1.3,3.3,2.3,11.7,3,25s1,20.3,1,21l-22,1h-23v-2h1v-20c0-13.3,0.7-21,2-23
		c0-2.7,1.7-6,5-10c2.7-4.7,4.3-7,5-7h1l1,1c1.3,0,3.7,0,7,0s5.7,0,7,0h1v-1h-1V490z"/>
	<path class="st0" d="M334,328v25h-10c-6.7-0.7-10-1-10-1h-2v-1c0-0.7-0.7-1.7-2-3l-1-2v-18c0.7-12,1-18.7,1-20v-3l2-1
		c1.3-1.3,5.3-2,12-2c6,0,9,0.3,9,1C333.7,303,334,311.3,334,328z"/>
	<path class="st0" d="M704,138h21c0,0,0.3,0.3,1,1h1l3,3c1.3,1.3,2.3,6.7,3,16c0.7,10,1,15.3,1,16v1h-1v1h-50l30,1h139l3,1H680v4
		c-0.7,0-1.3,0.7-2,2v3h-2v-4l-1-19c0-13.3-0.3-20-1-20l-1,1c-0.7,0-1-0.3-1-1v-1h1l5-2C680.7,139,689.3,138,704,138z"/>
	<path class="st0" d="M978,388h1c0.7,0.7,1,3.3,1,8v6l3,2c1.3,1.3,2.3,2,3,2h2v1h-4c-0.7-0.7-1-1-1-1h-1c0,0-0.7-0.7-2-2h-3
		c-0.7,0-1.3,0.7-2,2l-2,2h-1v-2c0,0,0.7-0.7,2-2c1.3-0.7,2-3.3,2-8C976.7,390.7,977.3,388,978,388z"/>
	<path class="st0" d="M984,408v-1h7c0,0.7-1.7,1.7-5,3c-2.7,1.3-4.7,3.7-6,7l-1,5c-0.7,0-1-0.7-1-2l-1-2v-2c-0.7-2-1.7-3.7-3-5l-2-2
		v-1h1l2,2c1.3,1.3,2.7,1.7,4,1c2-0.7,3-1.3,3-2C983.3,408.3,984,408,984,408z"/>
	<path class="st0" d="M164,311c0,0.7,0,1,0,1h1c0,0,0.3,0.3,1,1c0,0.7,0,1,0,1h1c0,0,0.3,0.3,1,1l3,7c2,5.3,3.3,8.3,4,9v38h-19
		l-19,1h-5v-1l1-5v-4h1v-14c0-10,1-17.3,3-22l2-6v-1h1c0-0.7,0-1,0-1l1-1h1c0-0.7,0-1,0-1c0.7,0,1-0.3,1-1h1c0-0.7,0-1,0-1
		c0.7,0,1-0.3,1-1h9C160,310.3,163.3,310.3,164,311z"/>
	<path class="st0" d="M678,247v49h-2c0-0.7-0.3-1-1-1v-43c-0.7-0.7-1-1-1-1l2-2C676.7,248.3,677.3,247.7,678,247z"/>
	<path class="st0" d="M63,241h1v1l-2,2c-1.3,0.7-1.3,2,0,4c1.3,1.3,2,2,2,2v1h-2v-1h-1l-1-1c-0.7-0.7-9.3-1-26-1l-25-1v-1
		c0-0.7,8.3-1.3,25-2c17.3,0,26.3-0.7,27-2C61.7,241.3,62.3,241,63,241z"/>
	<path class="st0" d="M829,442v-1h3l3,1c2,0.7,3,2.7,3,6c0,2.7-1.3,4-4,4h-6v-10H829z"/>
	<path class="st0" d="M1099,241h2l3,2c1.3,0.7,7,1,17,1s15.3-0.7,16-2c0.7-0.7,1-1,1-1v16l-1-5c-0.7-2.7-5.3-4-14-4s-14,0-16,0l-3,1
		v-1c0,0,0-0.3,0-1s-0.7-1.7-2-3l-2-2C1099.3,242,1099,241.7,1099,241z"/>
	<path class="st0" d="M795,404l2,1c2,0.7,3,1,3,1s0,0.3,0,1h1v2h-1c-0.7,0.7-1,1-1,1c-0.7,0-1.7,0.3-3,1s-2.7,0-4-2l-2-2l2-1
		C793.3,404.7,794.3,404,795,404z"/>
	<path class="st0" d="M68,299h1l1,1c0,0.7-0.3,1.3-1,2c-0.7,0-1.3,0-2,0v1c-0.7,0-1,0.3-1,1c0,0-0.3,0-1,0v1h-1v-1c0,0-1-0.7-3-2
		c-1.3-2-1.7-3.3-1-4l2-1l2-1c0.7,0,1.3,0.3,2,1C67.3,297.7,68,298.3,68,299z"/>
	<g>
		<path class="st0" d="M902,771v-2h89v30h-89V771z"/>
		<path class="st0" d="M353,784v-15h89v30h-89V784z"/>
	</g>
	<path class="st0" d="M1083,708v-2h54c0.7,0.7,1,5.7,1,15v14h-1v1h-54V708z"/>
	<path class="st0" d="M190,304l1-2h7c5.3,0,8,0.7,8,2s0.3,2,1,2l-2,2c-0.7,2-1.3,3.3-2,4c-0.7,0-1,0-1,0v1c0,0-0.3,0.3-1,1
		c-0.7,0-1,0-1,0v1c0,0-0.3,0.3-1,1h-1v2l-1,1v1c-0.7,0-1,0.3-1,1v1h-1v2l-1,2c0,2-0.3,3.7-1,5v5c-0.7,2.7-1,6-1,10v5h-1l-1-1h-1v-1
		h-1v-3l-1-9v-28c0.7,0,1-0.7,1-2S188.7,304.7,190,304z"/>
	<path class="st0" d="M368,296h2v1h1v1h1c1.3,0.7,1.7,1.7,1,3c-0.7,0.7-1,1.3-1,2c-0.7,0.7-1,1-1,1h-1c0,0-0.7,0-2,0h-1
		c-0.7-0.7-1.3-1.7-2-3s-0.3-2.3,1-3l1-1C367.7,297,368,296.7,368,296z"/>
	<path class="st0" d="M122,249v-1l2,1c1.3,0.7,2.3,1,3,1c0.7-0.7,1-1,1-1h1l-1,1c0,0.7-0.3,3-1,7s-1,7.3-1,10v4h1v1h14v-1h1v1h1v1
		h-22c0-0.7,0.3-1,1-1s1-3.3,1-10c0.7-6.7,0.7-10.3,0-11l-1-1V249z"/>
	<path class="st0" d="M895,371h6l2,1c0.7,0,1.3,0.3,2,1s1,1.7,1,3v2h-1c-0.7,0-1,7.3-1,22v22h-2v1h-6l-7,1h-1v-1c0-0.7-0.3-7-1-19
		v-18c-0.7-0.7-1-1-1-1v-3c0-1.3-1.3-2-4-2h-3l3-1c2.7,0,4-1,4-3c0.7-2.7,1.3-4,2-4S891,371.7,895,371z"/>
	<path class="st0" d="M299,362v-7h1l2,1l2,1c1.3,0.7,2,1.3,2,2v1l1,2v2h1v3l-1,1v1h-8V362z"/>
	<path class="st0" d="M490,143h1v1l-1,22c-1.3,14.7-2.7,22.7-4,24c-1.3,0.7-2,1.3-2,2v2h-2c0,0,0-0.3,0-1s-0.7-1-2-1h-3l-20-1
		c-13.3-0.7-20.3-1-21-1l-2-1v-1c0,0-0.3,0-1,0c-0.7-0.7-1-8-1-22c-0.7-14.7-1.3-22-2-22h-1v-1l5-2c3.3-2,12.7-2.7,28-2
		c16,0.7,24.7,1.3,26,2S490,142.3,490,143z"/>
	<path class="st0" d="M188,292v-3h57v1c0.7,0,1,0.3,1,1v1c0,0-0.3,0.7-1,2c0,0.7-0.3,1.3-1,2c-1.3,0-5.3,0.3-12,1
		c-6,0.7-9.3,0.3-10-1l-1-1v-1c-0.7,0-1,0-1,0s-2-0.3-6-1l-5-1l-1,1c0,0.7-0.3,1.7-1,3v1c-0.7,0-1,0.3-1,1s-2,1-6,1l-6-1h-3v-1h-1
		c0-0.7,0-1,0-1h-1C188.3,295.3,188,294,188,292z"/>
	<path class="st0" d="M63,165v-21h1c0.7,0,1.3,7.3,2,22c0,14,0.7,21.7,2,23c1.3,0.7,2.7,1.3,4,2s2.3,1,3,1l1,1c0,0.7-0.7,1-2,1h-2
		c0-0.7-0.3-1.3-1-2h-1c-0.7,0-1.7-0.7-3-2s-3-1-5,1l-3,2h-1c0-0.7-0.3-1-1-1h-2v-1h1l2-1h2v-1h1v-1h1v-1C62,186.3,62.3,179,63,165z
		"/>
	<path class="st0" d="M1071,302v-1h3l4,1h9c6,1.3,9.3,1.7,10,1s1.3-1,2-1v-1l1,1c0,0.7,0.3,1,1,1l-1,1c-1.3,0.7-2,1.3-2,2
		c0,1.3,0.3,8.7,1,22v20c0.7,0.7,1,1.3,1,2c0,0-0.3,0.3-1,1v1h-2c-0.7-0.7-1-1-1-1c0,0.7-1.7,1-5,1l-5,1h-8l-8-1v-50
		C1070,302,1070.3,302,1071,302z"/>
	<path class="st0" d="M384,301h5l17,1c12,0,18.3,0.3,19,1h1c0,0.7,0,1,0,1h1l1,2c0,2,0.3,9.3,1,22v20c-0.7,0-1,0.3-1,1s-0.7,1.3-2,2
		c-0.7,0.7-8.7,1-24,1l-22,1h-2c-0.7-0.7-2-1.3-4-2l-4-2v-20c0-13.3,0.3-21,1-23l1-2c0,0,0.3,0,1,0v-1l3-1
		C378,302,380.7,301.7,384,301z"/>
	<path class="st0" d="M236,331v4c0,2.7,0.3,6.3,1,11v6h3c1.3,0,2.3-0.3,3-1h1v1c0,0,0,0.3,0,1h-1v1c-0.7,0.7-0.7,1,0,1v1h-3
		c-2-0.7-3,1.3-3,6c-0.7,4.7-0.7,7,0,7v1h-31v-1h29v-19C235.7,337.3,236,331,236,331z"/>
	<path class="st0" d="M307,402l3,2c2.7,1.3,5.3,2,8,2h5v2h4v1h-6c-4,0.7-7,1.3-9,2c-1.3,0.7-2,1.7-2,3l-1,1v-1c-0.7-0.7-1-1.3-1-2
		c0.7,0,1.7-0.7,3-2c1.3-0.7,2-1.3,2-2c0-1.3-1-2.7-3-4l-3-1V402z"/>
	<path class="st0" d="M1106,408v-1h29l1,1c1.3,0.7,2,9.7,2,27s0,27,0,29v3l-1-2l-1-2c0-0.7-4.7-1-14-1h-15c-0.7-0.7-1-1-1-1v-1
		c0,0-0.7-0.7-2-2s-2.3-9.3-3-24l-1-21v-1l3-2C1105,409.3,1106,408.7,1106,408z"/>
	<path class="st0" d="M720,738l1-1h43c29.3,0.7,44,1,44,1h1v28c-0.7,0-1,0.3-1,1s-0.7,1-2,1l-2,1h-42l-42,1l-1,12v11h-1v-13
		c0-8,0-15.3,0-22v-16C718,739.3,718.7,738,720,738z"/>
	<path class="st0" d="M517,301h16l7,1c5.3,1.3,8.3,2.3,9,3c0.7,1.3,1.3,2,2,2l-1,21c0,14-0.3,21.3-1,22c-0.7,0-1,0.3-1,1
		c-0.7,0.7-9.3,1-26,1l-25,2h-1c0,0-0.7-0.3-2-1l-1-1c-0.7-0.7-1.3-1.3-2-2l-1-1h2v-20c0-13.3,0.3-20.7,1-22v-2c0.7,0,1-0.3,1-1l4-1
		C500,302.3,506.3,301.7,517,301z"/>
	<path class="st0" d="M262,756v-10h1v22h44c30-0.7,45-1.3,45-2v-2c0,0,0.3,0.7,1,2v2h41c26.7,0,40,0.3,40,1h-81v30h87v1H182v-1h79
		v-7h1v-12c0-7.3-0.3-11-1-11v-1C261.7,767.3,262,763.3,262,756z"/>
	<path class="st0" d="M313,141v-34c0.7,0,1,5,1,15v16h1l25,1c16,0.7,24.7,1.3,26,2s2,1.3,2,2h1v1l-1,22c-1.3,14.7-2,22.3-2,23
		c-0.7,0.7-1,1-1,1h-1c-1.3,0-4,0.3-8,1l-5,1v-1h-1v-1c0-1.3-0.3-1.3-1,0v3h-1v-12l-1-1l-1-1v-1h-8v2c0,0.7-0.3,2-1,4v4h-1v-4
		c0-2-0.3-3-1-3c0-0.7-11.7-1-35-1l-35-2h23c15.3,0,23.3-0.7,24-2C312,175.3,312.3,163.7,313,141z"/>
	<path class="st0" d="M245,297l1-2l3,2c2,1.3,2.3,2.7,1,4c-0.7,2-1.3,3-2,3c0,0-0.3,0.3-1,1h-1v-1c0,0-0.3-0.3-1-1c0-0.7-0.3-1-1-1
		s-1.3-0.7-2-2c0-0.7,0.3-1,1-1C243.7,298.3,244.3,297.7,245,297z"/>
	<path class="st0" d="M429,348v2l-1,2c-1.3,2-1.7,3.3-1,4c0.7,0,1,0,1,0v1h-2c0-0.7-7-1-21-1l-21-1v-1h-4v-1l22-1
		c15.3,0,23.3-0.3,24-1c1.3-0.7,2-1.3,2-2S428.3,348,429,348z"/>
	<path class="st0" d="M1124,301h13v1c0.7,0,1,8,1,24v25c0,0-0.3,0.3-1,1v1h-13c-9.3-0.7-14.7-1-16-1c-2,0-3.7-1-5-3l-2-2v-19
		c0.7-12,1-19,1-21l1-3l4-1C1109.7,302.3,1115.3,301.7,1124,301z"/>
	<path class="st0" d="M907,414v-5l3,1c2,0,3.3,0.3,4,1c0,0.7,0,1,0,1h1v20c0,13.3-0.3,20-1,20c-1.3,0-2,0.3-2,1h-4l-5-1c0,0,0-3,0-9
		v-10c0.7-0.7,1-2,1-4v-3h1v1h1v-4C906,420.3,906.3,417.3,907,414z"/>
	<path class="st0" d="M335,276l1-1v81c-0.7,0-1.3-0.7-2-2v-26c0-16.7-0.3-25-1-25c0-0.7-3-1-9-1c-6.7,0-10.7,0.7-12,2l-2,1v-1
		c0,0,0.7-0.7,2-2s1.3-2.7,0-4l-1-1v-1l3,1c1.3,0.7,4.7,1,10,1h8l1-2c0.7-0.7,1-2,1-4c0-2.7-0.3-4-1-4s-1-0.3-1-1v-1h2v-10H335z"/>
	<path class="st0" d="M612,401h2v1c0,0.7-0.3,1-1,1l-3,1c-1.3,1.3-2,2.7-2,4c0,0.7,0.7,1.3,2,2c1.3,1.3,2.3,2,3,2h1v1h-1
		c-0.7,0.7-1,1-1,1c-0.7,0-1.3-0.7-2-2c-1.3-1.3-10.3-2-27-2l-25-1v-2h1l1-1h24c16-1.3,24.7-2.3,26-3
		C610.7,402.3,611.3,401.7,612,401z"/>
	<path class="st0" d="M916,394v-8h1c0.7,0,1.3,2.7,2,8s1.3,8.3,2,9s1,1,1,1v2c-0.7,0-2-0.7-4-2c-1.3-0.7-2-0.7-2,0l-1,1v1
		c-0.7,0-1,0-1,0h-1v-1c0-0.7,0.3-1,1-1c0,0,0-0.3,0-1h1c0-0.7,0-1,0-1h1V394z"/>
	<path class="st0" d="M494,191h2v1c0,0,0.3,0,1,0v-1h2c1.3,0.7,2.3,1,3,1h2l-5,3c-3.3,2-5.3,3.7-6,5c-0.7,0.7-1,7.7-1,21v20h-2v-6
		l-1-19c0-12.7-1-19.3-3-20l-2-2l2-1c0.7-0.7,2-1,4-1C492.7,192,494,191.7,494,191z"/>
	<path class="st0" d="M719,781v-12h87c1.3,0,2,5,2,15v15h-89V781z"/>
	<path class="st0" d="M4,770v-1h37c24.7,0,37,0.3,37,1v29H41l-37-1v-14C4,774.7,4,770,4,770z"/>
	<path class="st0" d="M910,736h14c3.3,0,6.3-0.3,9-1h4c0,0.7,8.7,1,26,1h26l1,1c0,0.7,0.3,5.3,1,14v17h-82v1h-7v4l-1-16
		c-0.7-10.7-1-16-1-16v-1c0-1.3-0.3-2-1-2l1-2c0-0.7,0.3-1,1-1C901.7,735.7,904.7,736,910,736z"/>
	<path class="st0" d="M136,288l-1-1h111l1,1c0.7,0,1,0.3,1,1h-60v3c0,2,0.3,3.3,1,4v1h-1c0-0.7-0.3-1-1-1l-1-1c0,0-0.3-0.3-1-1v-3
		c0-0.7-7-1-21-1l-22-1h-2C138,288.3,136.7,288,136,288z"/>
	<path class="st0" d="M551,142v1h-1c0,0.7,0,1,0,1h1l-1,22c0,14.7-0.3,22-1,22v1h-1v1h-2l-2,1c-1.3,0.7-2,1-2,1h-40
		c-0.7,0-1.7-0.3-3-1h-5c-0.7-0.7-1.3-8.7-2-24l-1-23v-1l3-2c1.3-0.7,10.7-1,28-1c18,0,27.3,0.3,28,1C550,141.7,550.3,142,551,142z"
		/>
	<path class="st0" d="M161,246h39c13.3,0,20,0.3,20,1h1v12c0.7,8,1,12.3,1,13v1h-79v-1h-1v-1h-1v-19l1-2c0-1.3,0.7-2.3,2-3
		C146,246.3,151.7,246,161,246z"/>
	<path class="st0" d="M429,400v3l-2,3c-1.3,2-1.3,3.3,0,4c1.3,1.3,2.3,2,3,2h1v5h-1c0-0.7-0.7-1.7-2-3c-2-2.7-11.3-4-28-4l-24-2h-1
		v-2l25-1c17.3-0.7,26.3-1.7,27-3S428.3,400,429,400z"/>
	<path class="st0" d="M922,409h1l-2,2c-0.7,1.3-1,8.3-1,21v20h31l1-1h1v1h1c0,0-7,0.3-21,1h-21c0-0.7,0.7-1,2-1c0.7,0,1-6.7,1-20
		v-20h-1c0,0,0-0.3,0-1v-1h1c0.7,0,1,0.3,1,1s0.7,0.7,2,0C920,410.3,921.3,409.7,922,409z"/>
	<path class="st0" d="M1098,294h1c0,0,0.3,0.3,1,1v1c0,0-0.3,0-1,0v1h-1v2h-1v1h1c0,0,0,0.3,0,1h1v1c-0.7,0-1,0.3-1,1v1h-1
		c-0.7,0-4-0.7-10-2h-12c-2,0-3.3,0-4,0h-1v-2l13-2c8.7-0.7,13.3-1.3,14-2C1097.7,294.7,1098,294,1098,294z"/>
	<path class="st0" d="M809,752v-14h90c0.7,0,1,0.7,1,2v28h-90v-1c0,0-0.3-0.3-1-1V752z"/>
	<path class="st0" d="M284,302h9c6,0,9.3,0.3,10,1h1c0,0.7,0,1,0,1h1l1,2c0,1.3,0.3,8.7,1,22v19c-0.7,0-1,0.3-1,1
		c-1.3,1.3-2.7,2.3-4,3l-3,1v-8c-0.7-6-1-9-1-9v-3c0-1.3-0.3-2.7-1-4c-0.7-2-1.7-4.7-3-8s-3.3-6-6-8l-4-3v-2l-1-3v-2H284z"/>
	<path class="st0" d="M352,296v2h12v-1h1v-1h1v-1c0,0,0.3-0.3,1-1l1-1v3c-0.7,0-1,0.3-1,1l-1,1c-1.3,0.7-1.7,1.7-1,3s1.3,2.3,2,3v1
		h-1c0-0.7,0-1,0-1c-0.7,0-3.3-0.3-8-1l-6-1v2l-1,19v19c-0.7,0-1,1.3-1,4v5h-1v-25c0.7-16.7,1-28.7,1-36v-11l1-1c0.7,0,1,2.7,1,8
		S352,294.7,352,296z"/>
	<path class="st0" d="M672,224l1-19v1c0.7,0,1,5.3,1,16v16h1v4h-1c-0.7,0-1.3,0.3-2,1l-1,1v-1C671.7,242.3,672,236,672,224z"/>
	<path class="st0" d="M670,403h1v2l-1,1c-0.7,0-1,0.7-1,2c0,0.7,0.3,1,1,1s1,0.3,1,1l1,1v1h1c0.7,0,1.3-0.3,2-1h1c0-0.7,0-1,0-1h1
		l1,1c0,0.7-0.3,1-1,1s-1,0.3-1,1h-2c-0.7,0.7-1.3,1-2,1c0-0.7-0.7-1.3-2-2c-0.7-1.3-9.3-2-26-2l-24-2h-1v-2h25
		c16-0.7,24.3-1.3,25-2C669,403.3,669.3,403,670,403z"/>
	<path class="st0" d="M623,354h23c14.7,0,22,0,22,0h2l1,1c0.7,0.7,1.3,1.3,2,2v1c-0.7,0-1,6-1,18v22c-0.7,2.7-1,4.3-1,5h-1
		c0,0.7,0,1,0,1c-0.7,0-9.3,0.3-26,1l-25,1v2h-1c0-0.7-1-1.7-3-3l-2-2v-1c0.7,0,1,0,1,0v-22c0-13.3,0.3-20.3,1-21l1-1v-1h1v-1h2l2-1
		C622.3,354.3,623,354,623,354z"/>
	<path class="st0" d="M264,77v-1h32v1l1,3v4c-0.7,0-1,2-1,6c0,4.7-1.7,7-5,7h-5v-9h-3l-9-1l-10-1h-1v-1h-1v-5l1-1l1-1V77z"/>
	<path class="st0" d="M90,462h24c3.3,0,6-1,8-3l3-2l3,2c2,2,11,3,27,3h25c0,0,0-0.3,0-1l4-1c2.7-1.3,4-1.7,4-1h1c0,0.7,0.3,1,1,1
		l1,1c0.7,0.7,7.7,1,21,1h19l6-1c4-0.7,6.7-1.3,8-2s2-1.3,2-2l3,2c2,2,11.3,2.7,28,2c17.3-0.7,26.7-1,28-1c0.7-0.7,1-1.3,1-2
		s0.3-1,1-1h1l3,2c1.3,2,10.7,2.7,28,2c16.7-0.7,25.3-1.3,26-2c1.3-0.7,2-1.3,2-2l4,2c2,2,11.3,2.7,28,2c17.3-0.7,26.3-1,27-1
		c0.7-0.7,1-1,1-1c0.7-0.7,1-1,1-1l3,2c2.7,1.3,6,2,10,2h24c12.7,0,19.3-0.3,20-1c0,0,0.3-0.3,1-1c0.7,0,1,0,1,0v-1h2
		c1.3-0.7,2.3-0.7,3,0h1l2,1c0.7,1.3,9.3,1.7,26,1c17.3-0.7,26-1,26-1h1v-1h3c1.3,0.7,2,1,2,1c0.7,0,1.3,0.3,2,1h1c0,0.7,0.3,1,1,1
		h9l21-1c14-0.7,21.3-1,22-1c0.7-1.3,1.7-1.7,3-1s2.3,1,3,1h1c0,0,0.3,0.3,1,1s8,1,22,1h28l1-1l1-1h1c0.7-1.3,1.7-1.7,3-1
		s2.7,1.3,4,2c0.7,0.7,3,1,7,1h6l2,1l2,1h-3c-2.7,0-4.3,1.3-5,4s-1.3,4.7-2,6c-1.3,1.3-1.7,2-1,2s0.7,0.3,0,1l-2,1h-1v1h1v1l-4,1
		c-2.7,0.7-4,3.3-4,8v7h-1v1h-1v1l-4,4c-2.7,2.7-4.7,6-6,10c-1.3,3.3-2,11.7-2,25v20h-2c0,0.7-105.3,1-316,1s-316.3,0.3-317,1
		s-1,5.3-1,14s0,13.7,0,15c0.7,1.3,2.7,2.3,6,3l6,1l1,30c0.7,20,1.3,30.7,2,32s1,2,1,2h1l1,2c0.7,1.3,1.3,2,2,2v1c0,0.7,0,1,0,1h1
		c0,0,0.3,0.3,1,1c0,0.7,0,1,0,1h1c0,0,0.3,0.3,1,1c0,0.7,0,1,0,1h2c0,0.7,0.3,1,1,1v1h1v1h1v1h2v1h1v1h1H4v-88c0-58.7,0-89.7,0-93
		v-33h1v1h1v1l2,1c0.7,0.7,9,1,25,1h26l1-1l1-1h1l1-1c1.3-0.7,3-0.3,5,1C69.3,461.3,76.7,462,90,462z"/>
	<path class="st0" d="M63,435l1-22h1c0.7,0,1.3,7.3,2,22s1,22.3,1,23s7,1.3,21,2c14,1.3,21,2,21,2H90c-13.3,0-20.7-0.7-22-2
		c-2-1.3-3.7-1.7-5-1l-1,1h-1l-1,1l-1,1h-2l1-1v-1h2v-1l1-1C61.7,457.3,62.3,449.7,63,435z"/>
	<path class="st0" d="M690,348v-1h1l1,5c1.3,2.7,2.3,5,3,7c0.7,1.3,1,3,1,5v3c0,0.7,0,1,0,1h1l1,4c1.3,2.7,2,4.7,2,6v3h-5l-4-1h-3
		v-30l1-1L690,348z"/>
	<path class="st0" d="M919,736h-9c-5.3,0-8.3-0.3-9-1c-0.7,0-1,0.3-1,1l-1,2h-86l26-1c16.7-0.7,26-1.3,28-2c1.3-0.7,2-1,2-1l20-1
		c13.3-0.7,21-1,23-1c2.7,0,3.3,0.3,2,1c-2,0.7-1.7,1,1,1C917,734.7,918.3,735.3,919,736z"/>
	<path class="st0" d="M118,139h1l2,3c2,1.3,2.7,7.3,2,18c0,10.7-1,16.3-3,17l-3,1h-2v1h-7c-4.7,0.7-8,1-10,1h-3v1h-1v3h-1v-1
		c-0.7-0.7-1-1.7-1-3c0-0.7-1.3-1-4-1l-4-1v1h-1v1h-1v4c0,3.3-0.3,6.7-1,10v4h-1v-4h-1l-1-1h-2l-1-1c-0.7,0-1.7-0.3-3-1
		s-2.7-1.3-4-2c-1.3-1.3-2-9-2-23c-0.7-14.7-1.3-22-2-22h-1v-1l3-1c1.3-1.3,3-2.3,5-3c1.3-0.7,9-1,23-1
		C108.7,138,116.7,138.3,118,139z"/>
	<path class="st0" d="M678,354v15c0,0-0.3-1.7-1-5l-1-4v10c0,6.7-0.3,12-1,16v7h-3v-17c0-11.3-0.3-17.3-1-18c-0.7,0-1-0.7-1-2v-1
		c0,0,0.3,0.3,1,1c0.7,0,1,0,1,0v1c0,0,0.3,0.3,1,1h1c0.7,0,1.3-0.7,2-2S677.3,354,678,354z"/>
	<path class="st0" d="M216,194h32v3h-1c-0.7,0-1.3,3.7-2,11c0,6.7-0.7,10.3-2,11l-2,1h-24c-12.7,0-20.7-0.3-24-1l-5-1v-4
		c0-2,0-5.3,0-10v-6c0.7,0,1.3-0.7,2-2l1-1h1C192.7,194.3,200.7,194,216,194z"/>
	<path class="st0" d="M992,706v-1h90c0.7,0.7,1,1,1,1v3h-1v27h1v1c0,0.7-0.7,1-2,1h-89v26h-1v-13c-0.7-8.7-1-13.3-1-14l-1-1h1
		c0.7,0,1-4.7,1-14v-15C991.7,707,992,706.7,992,706z"/>
	<path class="st0" d="M302,247h1l3,2c2,0.7,3.3,1,4,1c0,0,0-0.3,0-1h1v1l-1,2c0,2,0,5.7,0,11s0.3,8,1,8c0,0.7,0.7,1,2,1h2v1h-89
		c0-0.7,12-1,36-1h36l1-1h1v1h3c2,0,3-2.7,3-8c0-6,0-9.7,0-11c-0.7-2-1.7-3-3-3h-2v-2C301,247.3,301.3,247,302,247z"/>
	<path class="st0" d="M1105,461h1c0,0.7,0,1,0,1h31v2l1,3v206H943v-30c0.7-20,0.7-32.3,0-37v-8c0.7-1.3,2.3-11.3,5-30
		c2.7-19.3,4.3-33.3,5-42l1-13l34-4c22.7-3.3,39-6.3,49-9s16.3-5,19-7s4-3.3,4-4s0.3-1,1-1v-1h1v-1l1-12v-12h4l15-1
		c9.3-0.7,15-1,17-1c2-1.3,3.3-1.3,4,0C1103.7,460,1104.3,460.3,1105,461z"/>
	<path class="st0" d="M80,351h1l1,16c0,10.7,0.3,16.3,1,17c0.7,0,1,0,1,0h4c2,0,3.3-0.3,4-1v-1h3l11,2c6.7,0,11.7,0.3,15,1h5v1h1
		c-0.7,0.7-1,3.7-1,9v8l-3,1c-2,1.3-3,2.3-3,3v1h-1v-2H95c-16,0-24.3,0.3-25,1c-0.7-0.7-1-1-1-1c-0.7-0.7-1-1-1-1v-1c0,0-0.3,0-1,0
		c-0.7-0.7-1-1-1-1h-3v-1h2v-19c0.7-12.7,1-19.7,1-21c0-2,0.7-3.7,2-5l2-2l1-1h2v1h1v-2h2c2-0.7,3-1,3-1h1C80,352,80,351.7,80,351z"
		/>
	<path class="st0" d="M486,353l2,2c2,2,3,2.7,3,2c0.7,0,1-0.3,1-1c0,0,0.3,0,1,0v-1c0-0.7,0-1.3,0-2v-1l1,1c1.3,0.7,2,1,2,1h2v1
		l-2,1c-1.3,1.3-2.3,2.7-3,4s-1,8.7-1,22v20h-2v-20c0-12.7-0.3-19.7-1-21s-1.3-2.7-2-4l-2-2v-1l-1-1h1
		C485.7,352.3,486,352.3,486,353z"/>
	<path class="st0" d="M548,351v2c0,0.7,0,1.3,0,2c0,0,0.3,0.3,1,1v1h-1c0-0.7-8.3-1-25-1l-25-1v-1h-1l25-2
		C538.7,352,547.3,351.7,548,351z"/>
	<path class="st0" d="M804,0h337v664c-0.7,0-1-10-1-30v-31l-1,29c-0.7,20-1,30-1,30V464c0-1.3-0.3-2-1-2v-1c0.7-0.7,1-9.7,1-27
		c0-16.7-0.7-25.3-2-26l-1-1h1c0.7-0.7,1-1,1-1h1v-50c0-0.7-0.3-1-1-1v-2c0.7,0,1-0.3,1-1v-26c0-16-0.3-24-1-24v-3c0.7,0,1-0.3,1-1
		v-46c0-3.3-0.3-5-1-5v-2c0.7,0,1-0.7,1-2v-25c0-15.3-0.3-23.3-1-24l-1-2l1-1c0.7-0.7,0.7-9.7,0-27V71c0.7-44.7,1.3-67.3,2-68l1-1
		h-1L972,1C860,0.3,804,0,804,0z"/>
	<path class="st0" d="M264,314l5-6v1c0,0.7,2.3,1,7,1c5.3-0.7,8-1,8-1l4,3c2.7,2,4.7,4.7,6,8s2.3,6,3,8c0.7,1.3,1,2.7,1,4v37h14l6,1
		h-81v-1h17v-5c0,0,0-2,0-6v-14c0-4.7,0.7-10,2-16C257.3,322,260,317.3,264,314z"/>
	<path class="st0" d="M614,292l2,3c1.3,2,9.3,3,24,3c14,0,22,0.3,24,1h3c0,0.7,0.3,1,1,1c0,0-7.3,0.3-22,1c-15.3,0.7-24.7,1.7-28,3
		l-4,2h-2v1h-1v-1c0.7-0.7,1-1,1-1h1c0.7,0,1.7-0.7,3-2s2-2.3,2-3v-1h-1c-0.7-0.7-1.3-1-2-1c-0.7-1.3-1.7-1.7-3-1l-2,1l1-2
		c0.7-0.7,1-1.3,1-2h1C613.7,293.3,614,292.7,614,292z"/>
	<path class="st0" d="M910,386h6c0,0,0,0.3,0,1h1v1c-0.7,0-1,2.3-1,7v7h-1c0,0,0,0.3,0,1h-1c0,0.7,0,1,0,1c-0.7,0-1,0.3-1,1h-1
		c0,0.7-0.7,1-2,1h-3v-8c-0.7-6-1-9.3-1-10S907.3,386.7,910,386z"/>
	<path class="st0" d="M102,193l-1-1h5c4,0,10,0.3,18,1h11l-3,1c-2.7,1.3-4.3,2.7-5,4c-0.7,2-1,3-1,3v-3l-1,1c-0.7,0.7-1,1-1,1
		c0-0.7-0.3-1.3-1-2c-0.7-1.3-4.3-2.3-11-3S102,193.7,102,193z"/>
	<path class="st0" d="M943,182h1l58-1h60v196l-1-3c-0.7-2-1.3-3.3-2-4c-0.7,0-1.3-14.3-2-43s-1-43.7-1-45c-0.7-1.3-1.3-5.3-2-12
		c-0.7-6-1.3-9-2-9s-1-8.3-1-25c0.7-17.3,0.3-29-1-35l-2-9v-1h-1v-1h-1v-2h-5v1h-1v1h-2v1c0,0.7-0.3,1-1,1c0,0-5,9.3-15,28
		c-10.7,18.7-19,32.7-25,42c-6,10-11.3,16.7-16,20c-4.7,4-11,8-19,12s-18,7.3-30,10c-11.3,2.7-20,4.3-26,5l-9,1l-2-1h-2v-1l1-2v-1h1
		v-1h1l1-1l1-1l19-11c12.7-7.3,21-12.7,25-16c4-4,6.7-9,8-15s2-17.3,2-34c0-17.3-1-28.7-3-34c-2.7-5.3-4.3-8-5-8c-1.3-0.7-2-1-2-1
		C942,182.3,942.3,182,943,182z"/>
	<path class="st0" d="M122,243h2l-2,1c-0.7,0.7-1,1.3-1,2c0.7,0.7,1,1.3,1,2v2c-0.7,0-1.3-0.3-2-1c0-0.7-4-1-12-1l-11-2h-2v-2h2v1h1
		v1h1l11-2C117.3,244,121.3,243.7,122,243z"/>
	<path class="st0" d="M612,307v-1h2l1,22c0.7,14,1.3,21.3,2,22c0.7,1.3,1.3,2,2,2v1h-1c0,0.7,0,1,0,1h-1c-0.7-0.7-1.7-1.3-3-2l-2-2
		l-1,1c-0.7,0.7-1.3,1-2,1l-1,1h-3c0-0.7,0.7-1.3,2-2c2-0.7,3-8.3,3-23l1-21H612z"/>
	<path class="st0" d="M900,754v-13c0,0,0.3,5.3,1,16l1,16v26h4v1H725v-1h83v-15c0-10-0.7-15-2-15h-2l2-1c1.3,0,2-0.3,2-1s0.3-1,1-1
		c0.7,0.7,1,1,1,1v1h90V754z"/>
	<path class="st0" d="M552,413h1l1,22c0,14.7,0.7,22.3,2,23c1.3,1.3,3.3,2,6,2h4v1l1,1h-9c0-0.7-0.3-1-1-1h-1c-0.7-0.7-1.3-1-2-1
		c0,0-0.7-0.3-2-1h-3v1h-1l-1-1v-1h1c0.7,0,1-0.3,1-1c0.7,0,1-7,1-21l1-22C551,414,551.3,413.7,552,413z"/>
	<path class="st0" d="M297,84v14l7,1c4.7,0.7,7.3,1,8,1c0,0.7,0.3,2,1,4v37c-0.7,22.7-1,34.3-1,35c-0.7,1.3-8.7,2-24,2h-25l-1-1v-2
		l-1-1c-0.7-1.3-1-8-1-20v-19l1-17c0.7-11.3,1.3-17.3,2-18c1.3-1.3,5.7-2,13-2h10v-1h5c3.3,0,5-2.3,5-7C296,86,296.3,84,297,84z"/>
	<path class="st0" d="M982,386h30c17.3,0.7,26.3,1.3,27,2c-0.7,0-1,2.3-1,7s-0.7,7.3-2,8c-0.7,0.7-8.7,1.3-24,2l-24,1h-2
		c-0.7,0-1.3,0.3-2,1c-0.7-0.7-1-1-1-1v-1c-0.7-0.7-1-1.3-1-2l-2-1v-6c0-4.7-0.3-7.3-1-8l1-1C980,386.3,980.7,386,982,386z"/>
	<path class="st0" d="M62,328l1-22h2v2c0.7,0.7,1,1,1,1l1,21c0.7,13.3,1.7,20.3,3,21s2.3,1.3,3,2h1v2h-1v-1h-2l-1,1h-1v-1
		c-0.7-0.7-1-1.3-1-2c0,0-1-0.3-3-1c-1.3-0.7-2.3-0.3-3,1l-2,2h-5c0,0,0.3-0.3,1-1l2-1h2v-1h1v-1C61.7,350,62,342.7,62,328z"/>
	<path class="st0" d="M400,247h21l3,2c2.7,1.3,4,2.3,4,3s0.3,1,1,1v36c-0.7,0-1.3,1.3-2,4c-0.7,2-8,3.3-22,4l-21,1h-5
		c-3.3,0-5.7-1.3-7-4l-3-4v-17c0.7-11.3,1-17.3,1-18v-1l2-3c1.3-2,2.7-3,4-3C378,248,386,247.7,400,247z"/>
	<path class="st0" d="M297,408h6l2,2c1.3,1.3,2.3,2,3,2c0,0.7,0.3,1.3,1,2v43h-1c-0.7,0-1,0.3-1,1s-0.3,1.3-1,2
		c-1.3,0-10.7,0.3-28,1c-16.7,0.7-26,0-28-2l-3-2v-1c0.7,0,1-6.7,1-20s0.3-20.7,1-22l1-2c0.7,0,1-0.3,1-1h1c0-0.7,0-1,0-1
		c0.7,0,8.3-0.3,23-1L297,408z"/>
	<path class="st0" d="M369,401h1v1c0,0-0.3,0-1,0v1h-1c0,0.7,0,1,0,1h-1l-1,2c-1.3,2-1.3,3.3,0,4c1.3,1.3,2,2,2,2h1c0,0,0,0.3,0,1
		h-1v1c0,0-0.7-0.7-2-2s-8-2-20-2l-19-1v-1h-4v-2l21-1c14-0.7,21.3-1.3,22-2c0-0.7,0.3-1,1-1S368.3,401.7,369,401z"/>
	<path class="st0" d="M484,246v-1h1c0.7,0.7,1,1,1,1l2,2c1.3,1.3,2.7,1.7,4,1s2-1,2-1h1v1l-1,3c-1.3,1.3-2,8.3-2,21v20h-1v1h-1v-19
		c0-12.7-0.3-19.7-1-21c-0.7-2-1.7-3.7-3-5l-2-2C484,247,484,246.7,484,246z"/>
	<path class="st0" d="M66,404v-1l2,1c2,1.3,11,2,27,2h24v3H95c-16,0.7-24.7,1-26,1l-2,1v-1c0-0.7,0.3-1,1-1h1v-1c0.7,0,1,0,1,0v-1
		c-0.7-0.7-1-1-1-1h-1C67.3,406,66.7,405.3,66,404z"/>
	<path class="st0" d="M171,99h1v1c0,0.7,3.3,1,10,1c6-0.7,9.3-1,10-1c0,0,0.3,0,1,0v1l5,5c2.7,3.3,5.3,8,8,14c1.3,6,2.3,10,3,12v4
		c-0.7,0-1,7-1,21v21h-1v1h-53v-1c0-0.7-0.3-7.3-1-20v-20c0.7,0,1,0,1,0v-5c0-2.7,0.7-6.3,2-11s3-8.3,5-11l3-4c0,0,0.3-0.3,1-1
		c0.7,0,1,0,1,0v-1c0,0,0.3-0.3,1-1c0.7,0,1,0,1,0v-1c0,0,0.3-0.3,1-1l1-1v-1C170,99.3,170.3,99,171,99z"/>
	<path class="st0" d="M313,352h1c0,0,3.3,0.3,10,1h10v1c0.7,1.3,1.3,2,2,2v16h-3c-2,0-6.3-0.3-13-1l-11-1h9l-6-1h-5v-1l1-1v-3h-1v-1
		h1v-1l1-2c0.7-0.7,1-1.3,1-2v-2h1c0,0,0.3-0.3,1-1c0.7,0,1-0.3,1-1V352z"/>
	<path class="st0" d="M132,194l3-1h43l2,2c2,0.7,3.3,1.3,4,2v11c0.7,7.3,0.7,11,0,11c-0.7,0.7-1.3,1-2,1h-2v1h-1v1h1l-1,1
		c-0.7,0.7-1,4-1,10s0.3,9.3,1,10l1,1v1l1,1h-6l-22-1c-14.7-0.7-22.3-1-23-1h-1c-0.7-0.7-1-1.3-1-2s-0.3-7.7-1-21l-1-20
		c0,0,0.3-1,1-3C127.7,196.7,129.3,195.3,132,194z"/>
	<path class="st0" d="M745,407h44l2,3c2,2,3,9.3,3,22c1.3,12.7,2,19,2,19c0,0.7,0,1,0,1h1l1,1v1h-5c-3.3,0-6.3,0.3-9,1l-4,1h-4l3,1
		l3,1h61v1H729v-1h5v-2c0,0,0.7-7.3,2-22c0-14,0.7-21.7,2-23l2-2v-1C740.7,407.3,742.3,407,745,407z"/>
	<path class="st0" d="M69,354v1h-1c-0.7,0.7-1.7,1.3-3,2c-1.3,0.7-2,0.7-2,0s-0.3-1.3-1-2l-2-1l2-2c0.7-1.3,1.7-1.7,3-1
		c2,0.7,3,1,3,1C68,352.7,68.3,353.3,69,354z"/>
	<path class="st0" d="M1122,355h15c0,0.7,0.3,1,1,1v50h-1c0,0-0.3,0.3-1,1h-30c-0.7-0.7-2-1.3-4-2l-2-2v-1l1-4l1-4v-18
		c0-11.3,0.3-17.3,1-18l1-1l1-1C1105.7,356,1111.3,355.7,1122,355z"/>
	<path class="st0" d="M351,195v-1h5c3.3,0,5.7,0.3,7,1h2v1c0,0.7,0.3,1,1,1s1,5.7,1,17c0.7,12,1,19.3,1,22v5c-0.7,0.7-1.3,1-2,1
		c-0.7,1.3-3.3,2-8,2h-6l-1-11c-0.7-7.3-1-13.7-1-19v-14C350,196.7,350.3,195,351,195z"/>
	<path class="st0" d="M70,192c0,0-0.3,0.7-1,2c-0.7,0.7-2,1.3-4,2c-1.3,0-2.7-0.3-4-1l-2-2l3-2c2-2,3.7-2.3,5-1S69.3,192,70,192z"/>
	<path class="st0" d="M1039,388l2,8c0.7,4.7,1.3,7.3,2,8c0.7,0,1,0,1,0v1c0,0,0.3,0.3,1,1v1h-1c-0.7-0.7-1-1-1-1c-0.7,0-1.7-0.3-3-1
		s-2.7-0.3-4,1l-2,3c0,0-0.3-0.3-1-1c0-0.7-7-1-21-1h-24v-1l24-1c15.3-0.7,23.3-1.3,24-2c1.3-0.7,2-3.3,2-8S1038.3,388,1039,388z"/>
	<path class="st0" d="M977,422v-4l1,2c0,1.3,0.3,2,1,2v14c0.7,10,1,15,1,15v1h2l-10,1h-10v-1c0,0,0.3,0,1,0v-1h1v1h6
		c3.3,0,5.3-0.3,6-1h1v-7c-0.7-4.7-1-8-1-10c0-1.3-0.7-1.3-2,0c-1.3,0.7-2,1-2,1h-1c0-0.7,0-1,0-1c0.7,0,1-1,1-3v-3h-1v-2l2,2
		c2,1.3,3,1.3,3,0S976.3,424.7,977,422z"/>
	<path class="st0" d="M249,387v-1h57l1,2c0.7,0.7,0.7,3.3,0,8v7l-2,1c-1.3,1.3-2,2.3-2,3v1h-1v-2h-24c-16,0-24.7-0.7-26-2l-2-2l-1-2
		l-1-1v-6C248,389,248.3,387,249,387z"/>
	<path class="st0" d="M667,193h2c0,0.7,0.3,1,1,1c0,0,0,0.3,0,1h1l1,4c0,2.7,0.3,4.3,1,5v1l-1,19c0,12-0.3,18.3-1,19v1
		c-0.7,0.7-1,1.3-1,2h-2c0,0-8.3-0.3-25-1s-25.7-1.3-27-2l-2-2v-21c0-14,0.3-21.3,1-22l1-1c0,0,0.3-0.3,1-1h1c0,0,0.7-0.3,2-1l1-1
		h23C659.3,194,667,193.7,667,193z"/>
	<path class="st0" d="M920,178l25-1h96v1h28v207H910l-3-1h-1v-3h72c48.7-0.7,74-1,76-1h8V181h-2v-1H930c0,0,0-0.3,0-1s-1.7-1-5-1
		H920z"/>
	<path class="st0" d="M56,408l3-1v1c0,0.7,0.7,1.3,2,2c1.3,1.3,2.3,2,3,2v1l-1,22c-0.7,14.7-1.3,22.3-2,23l-1,1v1h-2v1l-1,1H33
		c-16,0-24.3-0.3-25-1l-2-1v-1H5v-1H4v28v-14c0-10,0-22,0-36v-22c0.7,0,1.3-0.7,2-2c1.3-1.3,9.3-2,24-2C45.3,408.7,54,408,56,408z"
		/>
	<path class="st0" d="M546,714l-5,1c-3.3,0.7-5,4.3-5,11v10h81l-41,1l-40,1h-10c0,0-14-0.3-42-1c-27.3,0-41.3-0.3-42-1v-6
		c0-4-2.7-6-8-6l-7-1h-1l-2-1l50-3c32.7-2,52.7-3.7,60-5C542,714,546,714,546,714z"/>
	<path class="st0" d="M1100,242l2,2c1.3,2,2,3,2,3c0,0.7,0,1,0,1c-0.7,0-1.3,0.7-2,2c-0.7,0-1.7-0.3-3-1l-2-1l-1-2
		c0-0.7,0.7-1.3,2-2S1100,242.7,1100,242z"/>
	<path class="st0" d="M239,194v-1h14l-2,5c-2,2.7-2.7,7-2,13c0,6,1.3,9,4,9c2,0.7,3.3,2,4,4c0.7,1.3,0.7,2.7,0,4v2c-0.7,0-1-1.3-1-4
		l-1-4h-1c0,0,0-0.3,0-1h-18v-1h5l2-1c1.3-0.7,2-4.3,2-11c0.7-7.3,1.3-11,2-11h1v-3H239z"/>
	<path class="st0" d="M171,737l1-1h80l5,1c3.3,0.7,5,2.3,5,5v15c0,7.3,0,15,0,23v12h-1v-11l-1-11h-44c-29.3,0-44.3,0-45,0h-1v-2
		c0-1.3-0.3-2-1-2v-27h1C170,738.3,170.3,737.7,171,737z"/>
	<path class="st0" d="M357,0h447c0,0,56,0.3,168,1l167,1h1l-1,1c-0.7,0.7-1.3,23.3-2,68v67h-6c-4,0-9.3,0.3-16,1s-10.7,1.3-12,2
		l-2,2h-1c-0.7-0.7-1.3-1.3-2-2c-1.3-0.7-10.7-1.3-28-2h-26c0,0.7,0,1,0,1h-1c-0.7,0-1.3,0.7-2,2c-0.7,0-1.7-0.3-3-1l-2-1
		c-0.7,0-2-0.3-4-1l-4-1h-20c-14,0-22.3,0.7-25,2s-4.3,2-5,2l-2-2h-2l-2-1h-1c0-0.7-8-0.7-24,0h-25c0,0.7,0,1,0,1
		c-0.7,0-1.3,0.7-2,2c-1.3,0-2.7,0-4,0l-2-1v-1c0,0-0.3,0-1,0c-0.7-0.7-1-1-1-1h-2c-0.7-0.7-7.3-0.7-20,0h-20c0-0.7-0.7-1-2-1
		c-2,0-4.3,0.7-7,2s-4.3,2-5,2l-2-2h-2l-2-1h-1c0-0.7-7.7-0.7-23,0h-25c-0.7,0.7-1.7,1.3-3,2s-2.7,0.7-4,0l-3-1c-0.7-0.7-1-1-1-1h-2
		c-0.7-0.7-8-0.7-22,0h-24c-2,0.7-4,1.3-6,2c-1.3,0.7-3.3,0.7-6,0l-3-2c0-0.7-0.3-1-1-1h-22c-14.7,0-23.3,1-26,3l-5,2v-1
		c-0.7,0-1.3-0.3-2-1c-1.3-0.7-9.7-1.3-25-2s-24-0.7-26,0s-3.7,1.3-5,2l-2,2h-1c0-0.7-0.7-1.3-2-2s-10.7-1-28-1s-26.7,0.3-28,1l-3,2
		v-1c-0.7,0-1-0.3-1-1c-0.7-0.7-10-1-28-1c-17.3,0-26.7,0.3-28,1l-3,2h-1c0-0.7-0.7-1.3-2-2s-10-1.3-26-2c-15.3-0.7-24.7,0-28,2
		l-5,2v-1c-0.7,0-1-0.3-1-1c-0.7-0.7-10-1-28-1c-17.3,0-26.7,0.3-28,1l-3,2h-1c0-0.7-0.7-1.3-2-2s-10-1.3-26-2l-25-1h-1v-16
		c0-10-0.3-15-1-15v-3c-0.7-2-1-3.3-1-4c-0.7,0-3.3-0.3-8-1l-7-1V80l-1-3v-1h-32v2l-1,1l-1,1v5h1v1h1l10,1l9,1h3v10h-10
		c-7.3,0-11.7,0.7-13,2c-0.7,0.7-1.3,6.7-2,18l-1,17v1c0,0.7-0.7,1.3-2,2l-1,1h-3c-1.3,0.7-2.7,1-4,1c-0.7,1.3-1.7,2-3,2
		c-0.7,0-2-0.7-4-2l-3-1h-1c-0.7-0.7-5.7-1-15-1s-14-0.3-14-1l-1-1v-4c-0.7-2-1.7-6-3-12c-2.7-6-5.3-10.7-8-14l-5-5v-1
		c-0.7,0-1,0-1,0c-0.7,0-1.3-3.3-2-10v-9h-1v-1h-15v1h-1v1c-0.7,0-1,2.7-1,8v9c-0.7,0.7-1,1-1,1h-1c0,0,0,0.3,0,1l-1,1h-1
		c0,0,0,0.3,0,1c-0.7,0.7-1,1-1,1h-1c0,0,0,0.3,0,1c-0.7,0.7-1,1-1,1h-1c0,0,0,0.3,0,1l-3,4c-2,2.7-3.7,6.3-5,11s-2,8.3-2,11v4
		c-0.7,0.7-1,1-1,1h-1c0,0-0.7,0.3-2,1h-10c-6.7,0.7-10.7,1.3-12,2c-1.3,0.7-3.3,0.7-6,0l-3-2h-1c-1.3-0.7-9.3-1-24-1
		c-14,0-21.7,0.3-23,1c-2,0.7-3.7,1.7-5,3l-3,1v-1c-0.7,0-1-0.3-1-1c-0.7-0.7-10-1-28-1c-17.3,0-26.3,0-27,0l-1,2H4v-2
		c0-1.3-0.3-2-1-2v-10c0.7-6.7,0.7-29.3,0-68C3,22,2.7,3,2,3H1V1h178C297.7,0.3,357,0,357,0z M439,8V3h241v10h4c2,0.7,3.7,1.3,5,2
		c0.7,1.3,1,3,1,5c-1.3,2-3.3,3.3-6,4s-4,2.7-4,6c0,4-0.3,6-1,6l-1,1v1c0,0-2,0.7-6,2c-3.3,1.3-14,2.7-32,4c-17.3,1.3-41.3,2.3-72,3
		c-30,0.7-54.3,0.3-73-1c-18.7-1.3-32.3-3-41-5l-12-3h-1v-1h-2v-6c0-4-1-6-3-6c-2-0.7-3.7-1.3-5-2l-1-1h-1v-1h-1v-4l1-1v-1h1l1-1h1
		l2-1h5V8z"/>
	<path class="st0" d="M0,522V317l1,1c0.7,1.3,1,5.3,1,12v10l1-1l1-1v6c0,4-0.3,6.7-1,8v4c0.7,1.3,1,8.7,1,22v23c0,1.3,0,3.7,0,7v28
		c0,14,0,26,0,36v19c0,3.3,0,34.3,0,93v88h53h-1v-1h-1v-1h-2v-1h-1v-1h-1l-1-1c-0.7-0.7-1-1-1-1h-1c0,0,0-0.3,0-1c-0.7-0.7-1-1-1-1
		h-1c0,0,0-0.3,0-1c-0.7-0.7-1-1-1-1h-1c0,0,0-0.3,0-1s-0.7-1.7-2-3l-1-2l6,6c4,4,6,6,6,6h1l1,1l1,1h2v1h1v1h1v1h-1l-1,1H3v16l1,16
		c0,0.7-0.3,6-1,16v14h74v-1h1v-7l1,4v4l-1,1H3v3c-0.7,2-0.7,6.7,0,14v11H2v-2l-1-18c-0.7-12-1-18-1-18V522z"/>
	<path class="st0" d="M30,674h28l1-1h1l10,5c6.7,2.7,10.7,4.3,12,5l1,1h2l1,1l1,1h-3c-2.7-0.7-4,2-4,8v10h-1l-1,1l-1,1H4l-1-16v-16
		H30z"/>
	<path class="st0" d="M1028,138l4,1c2,0.7,3.3,1,4,1v1c0,0.7,0.3,1.7,1,3c0.7,0.7,1,6,1,16v16h-58v-17c1.3-10.7,2.3-16.3,3-17
		c0.7-1.3,8.3-2,23-2C1020.7,138.7,1028,138,1028,138z"/>
	<path class="st0" d="M426,244h2c1.3,0.7,2,1.3,2,2s0.7,1,2,1h2v1c0,0.7-0.7,1.3-2,2c-2,0.7-3,1.3-3,2v1c-0.7,0-1-0.3-1-1
		s-1.3-1.7-4-3l-3-2h2c1.3,0,2-0.3,2-1v-1h1C426,244.3,426,244,426,244z"/>
	<path class="st0" d="M188,404l2,2c0.7,2,0,3.3-2,4c-2,1.3-3,1.7-3,1c-0.7,0-1,0-1,0v-1c0,0-0.3,0-1,0l-1-1h-1v-2h1c0-0.7,0-1,0-1
		l2-1C186,404.3,187.3,404,188,404z"/>
	<path class="st0" d="M78,736h1v1c0,0.7,0.3,1.3,1,2v1c0,0-0.3,5.3-1,16v15h-1v-1c0-0.7-12.3-1-37-1H4l-1-1H2v-1c0-0.7,0.3-1,1-1
		v-12c-0.7-7.3-0.7-12,0-14v-3h75V736z"/>
	<path class="st0" d="M719,721v-15h45c29.3,0,44,1.3,44,4v26h-89V721z"/>
	<path class="st0" d="M496,356l2-1l25,1c16.7,0,25,0.3,25,1h1v1c0.7,0,1,6.7,1,20v20h1v1c-0.7,0-1.3,1-2,3c-0.7,1.3-9.7,2.3-27,3
		l-25,1v2h-1v-1c0-0.7-0.7-1.7-2-3l-3-1v-1h1v-20c0-13.3,0.3-20.7,1-22S494.7,357.3,496,356z"/>
	<path class="st0" d="M324,192h5c0,0-3,0.7-9,2c-5.3,1.3-8.7,3-10,5l-1,3v-2c0-1.3-0.3-2-1-2l-1,1c-0.7,0-1-0.3-1-1v-1h-1v-1h-1v-3
		h8C316.7,192.3,320.7,192,324,192z"/>
	<path class="st0" d="M309,352h3c0,0,0,0.3,0,1h1v1c0,0.7-0.3,1-1,1c-0.7,0.7-1,1-1,1h-1v1c0,0-0.3,0-1,0c0,0.7-0.7,0.3-2-1
		c-2-0.7-2.3-1.7-1-3C306,351.7,307,351.3,309,352z"/>
	<path class="st0" d="M610,244l2-2h1c0.7,0,1,0.3,1,1c0.7,0.7,1.3,1.3,2,2c0.7,0,0.7,0.3,0,1c0,1.3,0,2,0,2v1h-1c-0.7,0.7-1,1-1,1
		s-0.7,0-2,0h-1c-0.7-0.7-1-1.3-1-2C608.7,247.3,608.7,246,610,244z"/>
	<path class="st0" d="M372,190c0,0,0,0.3,0,1h1c0,0.7,0.3,1,1,1v2c0,0-0.7,0.3-2,1s-2.7,1-4,1l-2-1c0-0.7-0.3-1-1-1s-1-0.7-1-2l1-1
		l3-1c1.3-1.3,2-1.7,2-1C370.7,189.7,371.3,190,372,190z"/>
	<path class="st0" d="M678,481l4-1l3,1c2,0.7,3,1,3,1v8c0,4,0.3,6,1,6c0,0,0.3,0.3,1,1c0,0,0.3,0.3,1,1l2,1c1.3,0.7,2,1.3,2,2v1
		c0.7,0,1,0,1,0v1c0,0,0.3,0.3,1,1c0.7,0,1,0,1,0v2c0,0.7-1.3-0.3-4-3c-2-2-6-3.3-12-4l-8-1h-2v-1h1v-1h1v-7
		C674,484.3,675.3,481.7,678,481z"/>
	<path class="st0" d="M553,293l2,2c1.3,2,3,3,5,3c1.3,0,9.3,0.3,24,1h23v1c0,1.3-8.3,2-25,2c-16,0-24.7,1-26,3l-3,3v-1
		c-0.7-0.7-1-1-1-1v-1c0,0,0.3-0.3,1-1c0.7-1.3,1.3-2,2-2s1-0.7,1-2c0.7-0.7,0.3-1.3-1-2l-2-2c0,0-0.3-0.3-1-1l-1-1h1
		C552.7,294,553,293.7,553,293z"/>
	<path class="st0" d="M545,195l-4-3h3c1.3,0,2,0.3,2,1h1l2,2c1.3,0.7,3,0.7,5,0s3-1.3,3-2h1c0,0.7,0.3,1,1,1h1c0,0-0.7,0.3-2,1h-2v1
		c0,0.7-0.3,1-1,1s-1,0.7-1,2s-0.3,8.7-1,22l-1,20l-1-19c-0.7-12-1-19-1-21S548.3,197,545,195z"/>
	<path class="st0" d="M611,240v-1h1v3l-2,2c-1.3,2-1.3,3.3,0,4c0,0.7,0.3,1.3,1,2h-1c-0.7,0-1.3-0.3-2-1c0-0.7-8-1-24-1l-25-1h-1
		l-1-1l26-2c17.3,0,26.3-0.3,27-1C610,242.3,610.3,241.3,611,240z"/>
	<path class="st0" d="M841,442c0,0-1.7-0.3-5-1h-10c-2.7-0.7-5-2-7-4l-3-4v-4l1-1l1-1v-1l1-1l1-1l1-2c0.7,0,4.3,0,11,0
		s10.7,1.7,12,5s1.3,6.7,0,10S841.7,442,841,442z"/>
	<path class="st0" d="M379,356l5-1l21,1c14,0,21,0.3,21,1h1l1,20c0,14,0,21,0,21l1,1v1c-0.7,0-1.3,0.7-2,2s-9.7,2.3-27,3l-25,1v2
		c0,0-0.3,0.3-1,1v-1c0-1.3-0.7-2.7-2-4l-3-1v-1c0.7,0,1,0,1,0v-3c0-1.3-0.3-6.3-1-15v-12h1v-4c0-3.3,0.3-5.7,1-7s1.3-2.3,2-3
		C373.7,356.7,375.7,356,379,356z"/>
	<path class="st0" d="M680,406h49v3h-25c-16,0-24-0.3-24-1V406z"/>
	<path class="st0" d="M870,139c-0.7,0.7-2,1-4,1c-2.7,0-4.3,0.7-5,2c-0.7,0.7-1.7,6-3,16v16h-1v1h1v1h47l1,1c0.7,0.7,1,1,1,1h-52
		l-3-1h-4v-1h7v-16c-0.7-10.7-1-16.3-1-17l-1-1h-1v-1h-1v-1h-2v-1h1l2,1h2l2,2c0.7,0,2.3-0.7,5-2s5-2,7-2
		C869.3,138,870,138.3,870,139z"/>
	<path class="st0" d="M460,194h24l2,2c2,0.7,3,7.3,3,20l1,19v6c-0.7,0.7-0.7,1,0,1c0,0.7-0.7,1.3-2,2l-2,2c0,0-0.3-0.3-1-1h-49
		c0-0.7-0.3-1-1-1s-1.7-1.3-3-4l-1-3v-1c-0.7,0-1-5.7-1-17v-17c0,0,0.3-0.7,1-2l1-3h1c0.7-0.7,1-1,1-1l2-1
		C437.3,194.3,445.3,194,460,194z"/>
	<path class="st0" d="M672,398v-5h3l1,5c0,3.3,0.7,5.3,2,6c0.7,1.3,1.3,2,2,2v1h-2c0-0.7-0.7-1.3-2-2c-0.7-0.7-1.7-1-3-1l-2,1h-1
		c0-0.7,0-1,0-1s0.3,0,1,0v-1C671,402.3,671.3,400.7,672,398z"/>
	<path class="st0" d="M3,302v-3h1v2c0.7,2,1,2.7,1,2h1c0-0.7,0.7-1,2-1l1-1l25,1c16,0,24.7,0.7,26,2s2,2,2,2h1l-1,22
		c0,14.7-0.3,22-1,22v1h-1v1h-2l-2,1c-0.7,0.7-1,1-1,1H32c-14,0-22-0.3-24-1l-4-1v2H3v-2c0.7-1.3,1-4,1-8v-22C4,310.7,3.7,304,3,302
		z"/>
	<path class="st0" d="M491,296h1v1l2,1c1.3,0.7,1.7,1.3,1,2c0,1.3-0.3,2-1,2s-1,0.3-1,1v1h-1c0,0,0,0.3,0,1h-1c-0.7-0.7-1-1-1-1h-1
		v-1c-0.7,0-1.3-0.7-2-2l-1-2c0.7-0.7,1.3-1,2-1c0,0,0.3,0,1,0v-1h1C490,296.3,490.3,296,491,296z"/>
	<path class="st0" d="M141,252v20h-14v-1h-1v-4c0-2.7,0.3-6,1-10s1-6.3,1-7l1-1l5-1c4-0.7,6,0,6,2C140,251.3,140.3,252,141,252z"/>
	<path class="st0" d="M954,442v-1h8v1l1,4v5h-1c0,0.7,0,1,0,1h-9v-6L954,442z"/>
	<path class="st0" d="M943,720l1-14h24c15.3,0,23,0.3,23,1v15c0,9.3-0.3,14-1,14h-27c-17.3,0-26-0.3-26-1v-1h2c0,0,0.3,0,1,0
		C941.3,734,942.3,729.3,943,720z"/>
	<path class="st0" d="M613,413h1l1,22c0.7,14.7,1,22.3,1,23s0.3,1,1,1s1,0.3,1,1v1h-1c-0.7-0.7-1-1-1-1s-1-0.3-3-1
		c-1.3-0.7-2.3-0.3-3,1c-0.7,0-8,0.3-22,1l-21,1l-1-1v-1l22-1c14-0.7,21.3-1,22-1c0-0.7,0.3-7.3,1-20s1-20,1-22v-2
		C612,414,612.3,413.7,613,413z"/>
	<path class="st0" d="M142,289l22,1c14,0,21,0.3,21,1v1c-0.7,0-1.3,0.7-2,2s-4.3,2.3-11,3l-9,1v-1h-1v-1h-1v-2c0-0.7-2-1-6-1l-6-1
		l-1,1c0,0.7-0.3,1-1,1v1c-0.7,0-1,0.3-1,1c0,1.3-2.7,2-8,2h-7v-1h-1v-1h-1l-1-1v-1l-1-2v-2h7C139.3,290,142,289.7,142,289z"/>
	<path class="st0" d="M4,401v-2V401c0.7,1.3,2,2.3,4,3c1.3,1.3,10,2,26,2c16.7,0,25,0.3,25,1l-3,1c-2,0-10.7,0.7-26,2
		c-14.7,0-22.7,0.7-24,2c-0.7,1.3-1.3,2-2,2v-6C4,404.7,4,402.3,4,401z"/>
	<path class="st0" d="M123,404l3-1v1l2,1c1.3,0.7,2,1.3,2,2h1v2h-1c-0.7,0.7-1,1-1,1c-0.7,0-1.7,0.3-3,1s-2.7,0.3-4-1l-2-1v-2
		C120,406.3,121,405.3,123,404z"/>
	<path class="st0" d="M189,296h1c0,0,0,0.3,0,1h1v1h3l6,1c4,0,6-0.3,6-1s0.3-1,1-1v9c-0.7,0-1-0.7-1-2s-2.7-2-8-2h-7l-1,2
		c-1.3,0.7-2,1.7-2,3s-0.3,2-1,2v-1c-0.7-1.3-1-2-1-2v-1c0.7-0.7,1.7-1.3,3-2c0.7-1.3,1-2.7,1-4l-1-2V296z"/>
	<path class="st0" d="M376,196l3-2l23,1c15.3,0.7,23.7,1.3,25,2c0.7,1.3,1.3,2.3,2,3l1,2v17c0,11.3,0.3,17,1,17v1c-0.7,0-1.3,1-2,3
		l-2,4h-1c0,0,0,0.3,0,1h-26c-16.7-0.7-26-1.3-28-2l-2-2v-19c0-13.3,0.3-20.7,1-22S373.3,197.3,376,196z"/>
	<path class="st0" d="M428,377l-1-20h3c0.7,0.7,1.3,0.7,2,0v3c0,1.3-0.3,8.7-1,22v20h-2v-3l-1-1C428,398,428,391,428,377z"/>
	<path class="st0" d="M550,298l3-2l2,2c1.3,0.7,1.7,1.3,1,2c0,1.3-0.3,2-1,2s-1.3,0.7-2,2c-0.7,0.7-1,1-1,1c-0.7-0.7-1.3-1-2-1
		c0,0-0.3-1-1-3C548.3,299.7,548.7,298.7,550,298z"/>
	<path class="st0" d="M1044,406v-1h1c0.7,0.7,9,1,25,1h24v1h1v2h-25c-16,0.7-24.7,1.3-26,2l-3,1l2-2c0.7-1.3,1.3-2,2-2v-1h-1
		C1044,406.3,1044,406,1044,406z"/>
	<path class="st0" d="M991,407h21c14,0,21,0.3,21,1c0.7,0.7,1,1,1,1l2,1c1.3,1.3,2,2,2,2h1v22c0,14.7,2.7,22.7,8,24c5.3,0,8,0.3,8,1
		H948v-1h19c12.7,0,22.3-0.3,29-1l11-1h-4l-4-1c-2.7-0.7-9.7-1-21-1h-17v-2h1v-2h2v2h-1h19h-2v-1c0,0-0.3-5-1-15v-16
		c0.7-1.3,1-2.7,1-4c0-2,0.7-3.7,2-5l2-2l4-1C990,408,991,407.7,991,407z"/>
	<path class="st0" d="M851,405h1v1c0,0.7-0.3,1-1,1v2h-49v-3h24C842,406,850.3,405.7,851,405z"/>
	<path class="st0" d="M1083,782v-13h54v1c0.7,0,1,4.7,1,14v14h-1c0,0-7,0.3-21,1h-33V782z"/>
	<path class="st0" d="M180,222h1l27-1h46c0,0.7,0,1,0,1h2v4c0,2.7,0.3,4,1,4v7c-0.7,4.7-1,7-1,7s-5,0.3-15,1l-15,1h-2
		c-2,0-3,0.3-3,1h-1c0-0.7-6.7-1-20-1h-19l-1-1v-1l-1-1c-0.7-0.7-1-4-1-10s0.3-9.3,1-10L180,222z"/>
	<path class="st0" d="M638,712l5-20c0,0,0.3,0.3,1,1s1,1,1,1l-1,5c-1.3,3.3-1.7,5-1,5c0,0,12.3,0.3,37,1h38l1,1v30h2v1l-1,1
		c-1.3,0-2,1.3-2,4v5h-1v-5c0-2.7-14-4-42-4h-42v1h-1v2h-1v1h-1v-2l1-2l1-1v-2l1-2C633.7,731.7,635.3,724.7,638,712z"/>
	<path class="st0" d="M128,297c0,0.7,0,1,0,1h2c0.7,0.7,1,1.3,1,2c-0.7,0.7-1,1.3-1,2h-1c-0.7,0-1,0.3-1,1c-0.7,0.7-1.7,1-3,1h-2v-1
		c0-0.7-0.3-1-1-1s-1.3-0.7-2-2c0-0.7,0.7-1.3,2-2l1-1l1-1c1.3,0,2,0,2,0C126.7,296,127.3,296.3,128,297z"/>
	<path class="st0" d="M4,353v-1l4,1c2,0.7,10,1,24,1h22l4,2c2,1.3,3.3,2.3,4,3c0,0.7,0.3,8,1,22v22l-1,2c-1.3,0.7-2,1.3-2,2h-1
		c0-0.7-8.3-1-25-1c-16,0-24.7-0.7-26-2c-2-0.7-3.3-1.7-4-3v-23c0-13.3-0.3-20.7-1-22v-2h1V353z"/>
	<path class="st0" d="M254,360v9h-4v-1c0,0-0.3,0-1,0c-0.7-0.7-0.3-2.7,1-6c0-3.3,0.7-5,2-5C252.7,356.3,253.3,357.3,254,360z"/>
	<path class="st0" d="M1106,192v-1h2c2,0.7,3.3,1,4,1h2c0,0-0.7,0.3-2,1s-3.3,1.7-6,3s-4,9.3-4,24l-1,21h-2v-21
		c-0.7-13.3-1-20.7-1-22c0-0.7-0.7-1.3-2-2l-2-1v-1h2c0,0,0.3,0,1,0v1l3,1c1.3,0,2.7-0.3,4-1C1105.3,193.7,1106,192.7,1106,192z"/>
	<path class="st0" d="M496,408h2l24,2c16.7,0,25.3,0.7,26,2c1.3,1.3,2,2,2,2h1l-1,22c0,14-0.3,21.3-1,22v2h-1c0,0-8.7,0.3-26,1
		c-16.7,0.7-25.3,0.3-26-1l-2-1v-1c0-0.7-0.7-8.3-2-23l-1-22v-1l3-2C495.3,408.7,496,408,496,408z"/>
	<path class="st0" d="M78,288v-9h2v26c0,17.3,0.3,29.3,1,36v10h-1c0,0.7,0,1,0,1h-1v-24c-0.7-16.7-2.7-25-6-25s-5.3,1-6,3l-1,3
		c0,0-0.3-0.3-1-1v-4c0.7,0,1,0,1,0c0-0.7,0.3-1,1-1v-1c0.7,0,1.3,0,2,0c0.7-0.7,1-1.3,1-2l-1-1v-2l4,1c2.7,0,4,0,4,0h1V288z"/>
	<path class="st0" d="M198,409h4l20,1c14,0,21.3,0.3,22,1l1,2c0.7,1.3,1,9,1,23s0.3,21,1,21c0,0.7-0.7,1.3-2,2s-4,1.3-8,2l-6,1
		c0,0-7-0.3-21-1l-20-1c-0.7,0-1-0.3-1-1v-1c-0.7-0.7-1-8-1-22l-1-20l2-3c1.3-2,2.3-3,3-3C193.3,410,195.3,409.7,198,409z"/>
	<path class="st0" d="M129,302h1v1l-2,3c-1.3,2.7-2,10.3-2,23v19h-1v-1h-1v-20c0-13.3-0.3-20.3-1-21v-2h2c1.3,0,2.3-0.3,3-1
		C128,302.3,128.3,302,129,302z"/>
	<path class="st0" d="M883,385h3c0,0,0.3,0.3,1,1v1c-0.7,0-1,3-1,9c-1.3,6.7-4.7,10-10,10l-8,1c0-0.7-0.7-1-2-1h-3v1h-1
		c-0.7-0.7-1-1-1-1v-1c-0.7-0.7-1-1-1-1c0-0.7-0.7-3.3-2-8v-7h-1v-2h1v-1h12C878.7,386,883,385.7,883,385z"/>
	<path class="st0" d="M480,301h1c0,0.7,1,1,3,1h2v1h1v1h1c0,0.7,0.3,7,1,19l1,18v8l1,1c0.7,0.7,1.3,1.3,2,2v1c0,0.7,0,1.3,0,2h-1
		c0,0.7,0,1,0,1h-3v-1h-1v-1c0,0-0.3,0-1,0l-1-1c0-0.7-0.3-0.7-1,0h-7c-4-0.7-12-1-24-1c-12.7,0-19.7-1-21-3l-2-3v-18
		c0.7-12.7,1-19.7,1-21v-2l2-1c1.3-1.3,9.3-2,24-2C472,302,479.3,301.7,480,301z"/>
	<path class="st0" d="M253,351h1v7c0,4,0,6,0,6v-4c-0.7-2.7-1.3-3.7-2-3c-1.3,0-2,1.7-2,5c-1.3,3.3-1.7,5.3-1,6c0.7,0,1,0,1,0v1h-5
		v-1h1v-4c0-2.7-0.7-4.7-2-6l-1-2c-0.7,0-0.7-0.7,0-2v-2h1l1,3c0.7,2,2,2.3,4,1c2-0.7,3-1.3,3-2v-2h1V351z"/>
	<path class="st0" d="M335,258l1,2v15l-1,1h-1l-2-1c-0.7-0.7-3.7-1-9-1l-8-1v-1h-2c-1.3,0-2-0.3-2-1c-0.7,0-1-2.7-1-8s0-9,0-11l1-2
		l3-1c2-0.7,5.7-1,11-1c6,0,9,1.3,9,4C334,254,334.3,256,335,258z"/>
	<path class="st0" d="M1103,304l-1,3c0,2-0.3,9-1,21v20h-1v-1h-1v-19c-0.7-13.3-1-20.7-1-22v-2h2c0.7,0,1-0.3,1-1h1
		C1102,303,1102.3,303.3,1103,304z"/>
	<path class="st0" d="M93,190v-6h1v6h1l1,1l1,1h4l1,1c0,0.7,3.3,1.3,10,2s10.3,1.7,11,3c0.7,0.7,1,1.3,1,2v20c0,13.3-0.3,20.7-1,22
		v1h-1c-0.7,0.7-4.7,1-12,1l-11,2h-1l-1-1h-1v-1c0,0-0.3,0-1,0v-12c-0.7-8-1-12-1-12v-12C94,200,93.7,194,93,190z"/>
	<path class="st0" d="M369,290l3,4c1.3,2.7,3.7,4,7,4h5l7,1l7,1h-9v1h-5c-3.3,0.7-6,1-8,1l-3,1v1c-0.7,0-1,0-1,0h-1v-1
		c0-0.7,0.3-1,1-1s1-0.7,1-2c0.7-0.7,0.3-1.3-1-2h-1v-1h-1v-1h-1l-1,1h-1v-1c0.7-0.7,1-1.3,1-2v-2C368,290.7,368.3,290,369,290z"/>
	<path class="st0" d="M146,697h2l-2,2c-1.3,2-1.3,3,0,3h2l-2,1h-3v2l5-1c3.3,0,8,0.7,14,2c6.7,1.3,10,2,10,2l-1,1
		c-0.7,0.7-1,5.3-1,14v13h2l-1,1c-0.7,0.7-1,1.3-1,2h-1v-1h-34v2l-1,3v-6c0-1.3,1-6.7,3-16s3.7-15.7,5-19
		C144,699.3,145.3,697.7,146,697z"/>
	<path class="st0" d="M674,242h1l1,2c0.7,1.3,1.3,2,2,2v1c-0.7,0.7-1.3,1.7-2,3l-1,2h-1c-0.7,0-1-0.3-1-1v-1c-0.7,0-1.3-0.7-2-2
		l-2-1v-1h1c0-0.7,0.3-1.3,1-2l1-1C672.7,242.3,673.3,242,674,242z"/>
	<path class="st0" d="M615,191l-1-3h1l1,1c0.7,0.7,1.3,1,2,1v2c0,1.3-0.3,2-1,2c0,0,0,0.3,0,1v1h-1v1c-0.7,0.7-1.3,0.7-2,0h-2
		c0,0,0.7-0.7,2-2C615.3,194.3,615.7,193,615,191z"/>
	<path class="st0" d="M94,250v-30c0,0,0.3,4,1,12v12c0,0,0.3,0.3,1,1v1c0,0,0.3,0,1,0l11,2c8,0,12,0.3,12,1c0.7,0.7,1.3,1,2,1l1,1
		c0.7,0.7,0.7,4.3,0,11c0,6.7-0.3,10-1,10s-1,0.3-1,1h-7c-4,0.7-7.3,1-10,1h-5l-1,1h-2v7h-1v-1h-1V250z"/>
	<path class="st0" d="M298,352v-17c0,0,0.3,3,1,9v8l3-1c1.3-0.7,2.7-1.7,4-3c0-0.7,0.3-1,1-1v2h2v-3l2,2c0.7,2,1.3,3.3,2,4v1h-1
		c-0.7,0-1-0.3-1-1s-1-1-3-1c-1.3,0.7-2.3,1.3-3,2c-0.7,1.3,0,2.3,2,3c1.3,1.3,2,1.7,2,1c0.7,0,1,0,1,0v1c0,0.7-0.3,1.3-1,2l-1,2v1
		h-1v-1l-1-2v-1c0-0.7-0.7-1.3-2-2l-2-1l-2-1h-1v14h-1V352z"/>
	<path class="st0" d="M426,188h1c0,0,0.3,0.3,1,1l-2,3c-0.7,1.3,0,2.7,2,4c2,0.7,3,0.7,3,0s0.3-1,1-1h1v1c-0.7,0.7-1,1-1,1l-1,3
		c-0.7,1.3-1,2-1,2l-1-2c-0.7-0.7-1.3-1.7-2-3c-1.3-0.7-9.7-1.3-25-2l-23-1v-1h1v-1h-1v-1l23-1c15.3,0,23.3-0.3,24-1
		C426,188.3,426,188,426,188z"/>
	<path class="st0" d="M1139,632l1-29v31c0,20,0.3,30,1,30v137H722v-1h373v-1h21c14-0.7,21-1,21-1h1v-14c0-9.3-0.3-14-1-14v-1
		c0-0.7,0-1,0-1h1c0-0.7,0-6,0-16v-14l-28-1h-28v-28h1v13l1,13v1h53v-1h1v-14c0-9.3-0.3-14.3-1-15c0.7,0,1-5.3,1-16v-28
		C1138,662,1138.3,652,1139,632z"/>
	<path class="st0" d="M490,241h2l2,2c1.3,0.7,10.3,1.3,27,2h25v2h-23c-14.7,0.7-23,1-25,1l-3,1v-3c-0.7-0.7-1.7-1.3-3-2l-2-2
		C489.3,242,489.3,241.7,490,241z"/>
	<path class="st0" d="M304,304v-1h1c0.7,0,1,0.3,1,1h2c0.7,0,1.3,0,2,0v4c0,1.3-0.3,8-1,20v21h-2v-21c-0.7-13.3-1-20.7-1-22
		c0-0.7-0.3-1-1-1S304,304.7,304,304z"/>
	<path class="st0" d="M302,249v-1l2,2c1.3,0.7,2,4.7,2,12c0,6.7-1,10-3,10h-3v-9l1-7v-6C301.7,250,302,249.7,302,249z"/>
	<path class="st0" d="M736,387v-1h56c1.3,0.7,2.3,1.3,3,2l-1,8c-1.3,4.7-2,7.3-2,8c-0.7,0-1,0.3-1,1h-1v1h-7v1h-34
		c0-0.7-1.7-0.7-5,0h-4c-0.7-0.7-1-1-1-1v-1c-0.7-0.7-1-1-1-1c0-0.7-0.7-3.3-2-8l-1-8C735.7,387.3,736,387,736,387z"/>
	<path class="st0" d="M857,422h1v29h1c0,0.7,4.7,1,14,1h14c0.7,0.7,1,0.7,1,0h13c0,0-11,0.3-33,1s-33.7,0.7-35,0l-2-1h3
		c2.7,0,4-1.3,4-4c0-3.3-1-5.3-3-6l-3-1h4c3.3,0.7,5,1,5,1h-1c0,0.7,0,2.3,0,5s0,4,0,4v1h10l2-1h3v-27l1-1
		C856,422.3,856.3,422,857,422z"/>
	<path class="st0" d="M992,751v-13h88c0.7,0,1,5,1,15v15h-88v-1c-0.7,0-1-0.3-1-1V751z"/>
	<path class="st0" d="M1099,241c0,0.7,0.3,1,1,1c0,0.7-0.7,1.3-2,2s-2,1.3-2,2l1,2c0.7,0.7,1,1.3,1,2v1h-1c-0.7,0-1-0.3-1-1
		s-3.7-1.3-11-2l-11-2c0,0-0.3,0-1,0l11-1c8-0.7,12.3-1.3,13-2c0.7,0,1-0.3,1-1S1098.3,241,1099,241z"/>
	<path class="st0" d="M255,302h7c4,0,6,0,6,0h1v6l-5,6c-4,3.3-6.7,8-8,14c-1.3,6-2,11.3-2,16v7h-1v1h-1v-1h-1v-1h-1v-2l-1-2l-1-1
		v-38l2-2C252,303,253.7,302,255,302z"/>
	<path class="st0" d="M130,356c0.7,0,1.3,0.3,2,1h1v7l-1,5v1h-3l-1-1l-1-1h-1v-7c0-0.7,0.3-1.3,1-2v-1h1c0,0,0-0.3,0-1h2
		C130,356.3,130,356,130,356z"/>
	<path class="st0" d="M34,194h22l3,2c2,0.7,3,1.3,3,2c0,1.3,0.3,8.7,1,22v21c-0.7,0-1.3,0.3-2,1c-0.7,1.3-9.7,2-27,2
		c-16.7,0.7-25,1.3-25,2v1H8c0-0.7-0.7-1.3-2-2s-2-0.3-2,1v1H3v-3c0.7-1.3,1-9.3,1-24v-22h1l1-1l1-1h2C10.3,194.7,18.7,194,34,194z"
		/>
	<path class="st0" d="M1071,194l9-1h8v1h4l1,1h1c0,0,0.3-0.3,1-1h1c0,0,0.3,0,1,0v1l-1,1c0,0,0.3,0.3,1,1c0.7,0,1,0.3,1,1
		c0,1.3,0.3,8.7,1,22v21c-0.7,0-1,0.3-1,1s-0.3,1-1,1c-0.7,0.7-5,1.3-13,2l-11,1h-2v-1h-1v-29C1070,201.3,1070.3,194,1071,194z"/>
	<path class="st0" d="M1114,192h22l1,2c0.7,0.7,1,8.7,1,24v23c0,0-0.3,0.7-1,2v2h-15c-10.7-0.7-16.7-1.3-18-2l-3-2l1-21
		c0-14.7,1.3-22.7,4-24s4.7-2.3,6-3S1114,192,1114,192z"/>
	<path class="st0" d="M693,675h24v30h-37c-24.7-0.7-37-1-37-1c-0.7,0-0.3-1.7,1-5l1-5l18-6c12-4,20-7.3,24-10
		C691,676.7,693,675.7,693,675z"/>
	<path class="st0" d="M251,719v-1l41,2c27.3,1.3,54,2.3,80,3c25.3,0.7,38,1,38,1h-12c-8,0-17.3,0.3-28,1h-17v11h86
		c0,0-14.3,0.3-43,1l-43,1h-90v8h-1v-4c0-2.7-1.7-4.3-5-5l-5-1h9v-16h-1c-0.7,0-2.3-0.3-5-1H251z"/>
	<path class="st0" d="M1100,403l2,2c2,0.7,3.3,1.3,4,2v1c0,0.7-1,1.3-3,2l-3,2c-0.7,0-1.7-0.7-3-2l-2-1v-2l2-2
		C1098.3,404.3,1099.3,403.7,1100,403z"/>
	<path class="st0" d="M485,408h1l2,2c1.3,1.3,2,2,2,2h1v1l-1,1c0,1.3-0.3,8.7-1,22c-0.7,14-1,21.3-1,22v2c0,0-0.3,0-1,0
		c-0.7,0.7-1,1-1,1c0-0.7-6.7-1-20-1h-19v2h-5c-4,0-6.7-0.7-8-2c-1.3-0.7-2.7-1-4-1h-2v-1c0-0.7,0.7-1,2-1c0.7,0,1-6.7,1-20v-22l1-2
		c1.3-2,10.7-3,28-3C476.7,408.7,485,408,485,408z"/>
	<path class="st0" d="M672,274l1-23h1c0,0.7,0,1,0,1h1l1,22c0,14,0.3,21,1,21c0,0.7,0.3,1,1,1v2c-0.7,0-1.3-0.3-2-1s-2-0.7-4,0l-2,1
		c0,0.7-0.3,1-1,1h-1c0,0.7,0,1,0,1c-0.7,0-1-0.3-1-1s0.7-1.3,2-2C669.7,296.3,670.7,288.7,672,274z"/>
	<path class="st0" d="M246,292v3l-1,2c-0.7,0.7-1.3,1.3-2,2c-0.7,0-1,0.3-1,1c0.7,1.3,1.3,2,2,2s1,0.3,1,1c0.7,0.7,1,1,1,1v4
		c0,0-0.7-0.7-2-2c-0.7-1.3-4.3-2.3-11-3l-10-1v1c-0.7,0-1,0.7-1,2v2c0,0-0.3-2-1-6v-6l1,1c0.7,1.3,4,1.7,10,1c6.7-0.7,10.7-1,12-1
		c0.7-0.7,1-1.3,1-2C245.7,292.7,246,292,246,292z"/>
	<path class="st0" d="M1097,249v-1l2,1c1.3,0.7,2.3,1,3,1c0.7-1.3,1.3-2,2-2v2c0,0-0.3,0-1,0v1h-1v17c0,12-0.3,18.3-1,19v1l-1,3
		c0,2,0,3.3,0,4c-0.7-0.7-1-1-1-1v-20c-0.7-14-1-21.3-1-22v-2c0,0-0.3,0-1,0V249z"/>
	<path class="st0" d="M184,435l1-22h1c0.7,0,1,0.3,1,1v2l1,21c0.7,14,1.3,21,2,21s1,0.3,1,1s6.7,1.3,20,2s20,1,20,1h-19
		c-13.3,0-20.3-0.3-21-1l-1-1c-0.7,0-1-0.3-1-1h-1c0-0.7-0.7-1-2-1c-0.7,0-1.7,0.7-3,2l-2,2h-2v-2h2v-1h1v-1h1c0,0,0-0.3,0-1
		C183.7,457,184,449.7,184,435z"/>
	<path class="st0" d="M977,444v7h-1c-0.7,0.7-2.7,1-6,1h-6v-2h-1v-4l-1-4v-1l3-1c2,0,3.3-0.7,4-2c0.7-2,1.3-3,2-3h1c0,0,0.7-0.3,2-1
		c1.3-1.3,2-1.3,2,0C976,436,976.3,439.3,977,444z"/>
	<path class="st0" d="M556,250l3-3l25,1c16,0,24,0.3,24,1c0.7,0.7,1.3,1,2,1v20c0.7,13.3,1,20.3,1,21h1v3c0,0.7-0.3,1.3-1,2l-1,2
		c-0.7,0-1.3,0.3-2,1h-24c-14.7-0.7-22.7-1-24-1c-2,0-3.7-1-5-3l-2-2v-20C553.7,259.7,554.7,252,556,250z"/>
	<path class="st0" d="M749,407h-4c-2.7,0-4,0.3-4,1c0,1.3-0.7,2.7-2,4c-2,0.7-3,8-3,22c-1.3,14.7-2,22-2,22v-2c0-1.3-0.3-8.7-1-22
		c-0.7-12.7-1.3-19.7-2-21l-2-2h1l3,1c2,1.3,3.7,1.3,5,0s2-2,2-2v-1h4C747.3,406.3,749,406.3,749,407z"/>
	<path class="st0" d="M856,388h1v1h1v7c1.3,4.7,2.3,7.3,3,8c1.3,1.3,2,2,2,2v1h-1c-0.7-0.7-1-1-1-1h-1c0,0,0-0.3,0-1s-1-1-3-1
		c-1.3,0-2.3,0.3-3,1l-2,1v-1c0-0.7,0.3-1,1-1c0.7-0.7,1-3.3,1-8C855.3,391.3,856,388.7,856,388z"/>
	<path class="st0" d="M905,378h1l75,1c50,0.7,75,1,75,1h-2c-2,0-27.3,0.3-76,1h-72v3h1l3,1h4v1h-4c-2.7,0.7-4,1.3-4,2s0.3,4,1,10v8
		h3c1.3,0,2-0.3,2-1c0.7-0.7,1.3-1.3,2-2h1v3c-0.7,0-1,0-1,0h-1v1c0,0.7,0,1.3,0,2c0.7,0,1,0.3,1,1c0,0,0.3,0,1,0v2h-1
		c-0.7,0-1-0.3-1-1s-1-1-3-1l-3-1v5c-0.7,3.3-1,6.3-1,9v4h-1v-1h-1v-1l-1-1l-1-1v-1h2v-22C904,385.3,904.3,378,905,378z"/>
	<path class="st0" d="M612,242v-1h2l2,2c1.3,0.7,10.3,1.3,27,2s25,1,25,1h1v1h-23c-15.3,0.7-24,1-26,1c-1.3,0-2,0.3-2,1s-0.3,1-1,1
		h-1v-2c0,0,0-0.7,0-2c0.7-0.7,0.7-1,0-1c-0.7-0.7-1.3-1.3-2-2c0-0.7-0.3-1-1-1H612z"/>
	<path class="st0" d="M8,247h1l25,1c16.7,0,25.3,0.3,26,1l1,1h1v1h1v21c-0.7,14.7-1,22.3-1,23v1c0,0-0.3,0.3-1,1s-9.3,1-26,1H10
		l-1,1v1H8c0,0-0.7-0.7-2-2c-0.7-1.3-1.3-1.3-2,0v1H3v-2c0.7-1.3,0.7-10,0-26v-24h1v-1c0-1.3,0.7-1.7,2-1S8,246.3,8,247z"/>
	<path class="st0" d="M128,245h1c0,0.7,0.3,1,1,1l-1,1c-0.7,0.7-1,1-1,1v1c0,0-0.3,0.3-1,1c-0.7,0-1.7-0.3-3-1l-2-1
		c0-0.7-0.3-1.3-1-2c0-0.7,0.3-1.3,1-2l2-1h1c0.7,0,1.3,0.3,2,1C127.7,244,128,244.3,128,245z"/>
	<path class="st0" d="M557,408v-1h1v2l25,1c16.7,0,25.7,0.7,27,2c0.7,1.3,1.3,2,2,2v2c0,2-0.3,9.3-1,22s-1,19.3-1,20
		c-0.7,0-8,0.3-22,1l-22,1h-4c-2.7,0-4,0.3-4,1v1c-0.7,0-1-0.3-1-1h-1v-1c0-1.3-0.3-2-1-2c-0.7-0.7-1-8.3-1-23l-1-22
		c0.7,0,1-0.3,1-1l1-2c0,0,0.3-0.3,1-1C556.7,409,557,408.7,557,408z"/>
	<path class="st0" d="M125,350l1-1l1,1c0.7,1.3,1,2,1,2h1v1h1v1h1c-0.7,0.7-1,1.3-1,2c0,0,0,0.3,0,1h-2c0,0-0.3,0.3-1,1h-1
		c-1.3,0-2-0.3-2-1v-1h-1c0,0-0.3-0.3-1-1c-0.7,0-0.7-0.3,0-1v-2c0.7,0,1-0.3,1-1h1C124,350.3,124.3,350,125,350z"/>
	<path class="st0" d="M860,406h1c0,0,0.3,0.3,1,1v2h-1c-0.7,0.7-1.3,1-2,1l-1,1c0,0.7-0.7,1-2,1c-0.7,0-1.3-0.7-2-2l-2-1v-1
		c0,0-0.3,0-1,0v-1c0.7,0,1-0.3,1-1l2-1c0.7-0.7,1.7-1,3-1c2,0.7,3,1,3,1C860,405.7,860,406,860,406z"/>
	<path class="st0" d="M56,193v-1h1c0.7,0,1,0.3,1,1h1l2,2c1.3,0.7,2.7,1,4,1c2-0.7,3.3-1.3,4-2c0.7-1.3,1-2,1-2h1c0.7,0.7,1,1.3,1,2
		l-3,2c-2,1.3-3,8.7-3,22v20l-1,2l-1,1h-1v-21c-0.7-13.3-1-20.7-1-22c0-0.7-1-1.3-3-2l-3-2V193z"/>
	<path class="st0" d="M646,247h23l2,1c0.7,1.3,1.3,2,2,2v1c-0.7,0-1,7.7-1,23v22h-1c-0.7,0-1,0.3-1,1v1c0,0.7-0.3,1-1,1h-1
		c0-0.7,0-0.7,0,0h-4c-2-0.7-10-1-24-1c-14.7,0-22.7-1-24-3l-2-3v-20c0-12.7,0.3-19.3,1-20l1-2c0,0,0.3,0,1,0v-1l3-1
		C622,248,630.7,247.7,646,247z"/>
	<path class="st0" d="M122,304l1,1v1c0.7,0.7,1,7.7,1,21v21c0,0-0.3,0.7-1,2v1c0,0.7-0.3,1-1,1h-6c-4,0-8.3,0.3-13,1h-7v-1h-1v-8h1
		v-21c0-14,4-21,12-21S120.7,302.7,122,304z"/>
	<path class="st0" d="M676,200v-2l1,2l1,1v45c-0.7,0-1.3-0.7-2-2l-1-2v-22l1-18V200z"/>
	<path class="st0" d="M184,359l1,3l-1,3c0,2-0.7,3.3-2,4h-5v-3c0.7-2,1-4.3,1-7s0.7-3.7,2-3C181.3,356,182.7,357,184,359z"/>
	<path class="st0" d="M70,408c0.7,0,9,0.3,25,1h25l2,3c1.3,1.3,2,9,2,23v21c0,0,0,0.3,0,1h1l-3,2c-2,2-4.7,3-8,3h-4c0,0-7-0.7-21-2
		c-14-0.7-21-1.3-21-2s-0.3-8.3-1-23s-1.3-22-2-22h-1v-1h1c0.7,0,1-0.3,1-1h2c0-0.7,0-1,0-1c0.7,0,1-0.3,1-1v-1
		C69.7,408,70,408,70,408z"/>
	<path class="st0" d="M562,354v-1h8l16,1c10.7,0,17,0.3,19,1h3l1,2c0.7,1.3,1.3,4.3,2,9s1,11.7,1,21v14c-0.7,0.7-1.3,1.3-2,2
		c-1.3,0.7-10,1.7-26,3h-24l-1,1h-2c0-0.7-0.7-1.3-2-2l-2-2v-21c0.7-14,1.3-22,2-24l2-3l2-1C561,354,562,354,562,354z"/>
	<path class="st0" d="M618,408h2l24,2c16.7,0,25.3,0.7,26,2c1.3,0.7,2,1.3,2,2l-1,22c-0.7,14.7-1,22-1,22s-0.3,0.3-1,1l-1,1h-2l-2,1
		l-3,1h-21c-14,0-21.3-0.3-22-1v-1c0,0-0.3,0-1,0c-0.7-0.7-1-1.3-1-2s-0.3-8.3-1-23l-1-22v-1l2-2C617.3,408.7,618,408,618,408z"/>
	<path class="st0" d="M849,139v1h2v1h1v1h1l1,1c0,0.7,0.3,6.3,1,17v16h-58v-1h-1v-1c0-0.7,0.3-6,1-16c0.7-9.3,1.7-14.7,3-16l2-3h24
		C841.3,138.3,849,138.3,849,139z"/>
	<path class="st0" d="M444,741v27h45c30,0,45-0.3,45-1l1-5v-4c0.7,0,1,2,1,6v35h77v1H440v-1h2v-4l1-27C443.7,750,444,741,444,741z"
		/>
	<path class="st0" d="M1100,413l1,21c0.7,14.7,2,22.7,4,24c1.3,1.3,2,2.3,2,3v1h-1c-0.7,0-1.3-0.7-2-2c-1.3-1.3-3-1.3-5,0
		c-2,0-7.7,0.3-17,1l-15,1l1-1l2-1h13c8.7-1.3,13.3-2.3,14-3c0.7-1.3,1.3-9,2-23S1100,413,1100,413z"/>
	<path class="st0" d="M439,8V3h241v5c0,2.7,0.3,4,1,4v1c0,0.7-40,0.7-120,0c-79.3,0-119.3-0.3-120-1c-0.7,0-1,0.3-1,1s-0.7,1-2,1
		l-2-1l1-1C437.7,12,438.3,10.7,439,8z"/>
	<path class="st0" d="M616,248c0,0,0.3,0,1,0v2c-0.7,0-1,0-1,0l-1,2c-0.7,0.7-1,7.3-1,20v20c0,0.7-0.3,1.3-1,2h-1v-3h-1
		c0-0.7-0.3-7.7-1-21v-20h2c1.3,0,2-0.3,2-1C614.7,248.3,615.3,248,616,248z"/>
	<path class="st0" d="M193,336v-3c0.7,0,1,6,1,18v18h12v1h-25v-1h1c1.3-0.7,2-2,2-4l1-3c0.7,0,1,0.7,1,2c0,0.7,0.3,0,1-2l1-4v-1
		c0-0.7,0.7-1.7,2-3l1-1v-1c0.7,0,1,0,1,0v-6C192,342,192.3,338.7,193,336z"/>
	<path class="st0" d="M625,734v-1c0.7,0,1,0.3,1,1v1l1,3l1,2v2h2h-2c-0.7,0.7-1,5.3-1,14v12c-0.7,0.7-1,5.3-1,14v14h-1v-27h-89v-5
		c0-4-0.3-6-1-6v-20h1l40-1l41-1h8V734z M625,766h1C625.3,766,625,766,625,766z"/>
	<path class="st0" d="M436,245h48v1c0,0.7,0,1,0,1h-22c-15.3,0.7-23.7,1-25,1s-3,1-5,3l-3,2v-1c0-0.7,0.7-1.3,2-2
		c0.7-0.7,1.3-1.3,2-2c0.7,0,1,0,1,0v-1l1-1C435.7,245.3,436,245,436,245z"/>
	<path class="st0" d="M720,592l-1,1c-0.7,0.7-1.3,11-2,31c-0.7,20.7-2.7,32.7-6,36c-3.3,4-5,6.3-5,7c-1.3,0.7-2,1-2,1l-1,1l-1,1h-1
		l-1,1l-1,1h-1v1c-0.7-0.7-1.3-1-2-1l-1,1c-0.7,0.7-1,1-1,1l-1,1c0,0.7-2,1.7-6,3c-4,2.7-12,6-24,10l-18,6c-0.7-0.7-1-1-1-1v-1
		c0,0-0.3,0-1,0v-1c-0.7-0.7-1.7-2-3-4s-5.3-4.7-12-8s-12-5.3-16-6c-4.7-0.7-8-0.3-10,1l-4,2h-1v1h-1v1h-1v1h-1v1h-1v1h-1v4h1v1h1
		l8,4c6,2.7,9,4,9,4h1v1h1v1h2v1h1v2h1v1h-1l-1,1h-1v2h-1l-1-1h-4c-2,0-4.7,0.7-8,2l-4,2h-1c-0.7,0-9,1.3-25,4l-24,4c0,0-4,0-12,0
		c-7.3,1.3-27.3,3-60,5l-50,3l2,1h1c0,0.7-3,1-9,1h-8c0,0-12.7-0.3-38-1c-26-0.7-52.7-1.7-80-3l-41-2v1h-3c-1.3-0.7-14.3-2.7-39-6
		l-37-5c0,0-3.3-0.7-10-2c-6-1.3-10.7-2-14-2l-5,1v-2h3l2-1h-4v-2h1v-1h1c0-0.7,0-1,0-1c0.7,0,1-0.3,1-1h1c0.7-0.7,3.7-2,9-4l8-3
		l1-1l1-1h1v-5h-1v-1h-1v-1h-1v-1h-1v-1h-1v-1l-5-2c-3.3-1.3-7-1.3-11,0c-4,0-9,2-15,6c-6.7,3.3-10.7,5.7-12,7s-2,2.3-2,3v1
		c0,0-0.3,0.3-1,1l-1,1c-0.7,0.7-1,1-1,1h-1l-2-1c-0.7-0.7-5-2.3-13-5l-12-4l-1-1l-1-1h-2l-1-1c-1.3-0.7-5.3-2.3-12-5l-10-5v-1h-1
		v-1h-1v-1h-2l-1-1l-1-1h-1c0,0-0.3-0.3-1-1l-2-1h-2c0,0,0-0.3,0-1h-1c-0.7-0.7-1.3-1.3-2-2l-1-2c0.7-0.7,0.7-1,0-1v-1
		c0-0.7-0.7-1.3-2-2l-1-1h-1c0,0-0.3-0.7-1-2s-1.3-12-2-32l-1-30l2-1c0.7-0.7,114.7-0.7,342,0C606.7,591.7,720,592,720,592z"/>
	<path class="st0" d="M607,300v-1h1l2,3c1.3,1.3,2,2,2,2v1c0,0-0.3,0.3-1,1v1l-1,21c0,14.7-1,22.3-3,23c-1.3,0.7-2,1.3-2,2h-46
		c0-0.7-0.3-1-1-1c-1.3,0-2.3-0.7-3-2c-0.7-0.7-1-8-1-22l-1-20l3-3c1.3-2,10-3,26-3C598.7,302,607,301.3,607,300z"/>
	<path class="st0" d="M794,396l1-8l2,8c0.7,4.7,1.7,7.3,3,8c0,0.7,0.3,1.3,1,2v1h-1c0-0.7,0-1,0-1s-1-0.3-3-1l-2-1
		c-0.7,0-1.7,0.7-3,2l-2,1h-7v-1h7v-1h1c0-0.7,0.3-1,1-1C792,403.3,792.7,400.7,794,396z"/>
	<path class="st0" d="M617,699l1,1c1.3,0.7,2,2,2,4c0,1.3-0.3,2-1,2h-23l4-2c3.3-1.3,6-2,8-2c2.7,0,4.7-0.3,6-1l2-1h1V699z"/>
	<path class="st0" d="M62,296v1l-2,1c-0.7,0.7-0.3,2,1,4c2,1.3,3,2,3,2v1h1v1h-3c0,0-0.7-0.7-2-2s-10-2-26-2l-25-1v-2l1-1h25
		c16.7,0,25.3-0.3,26-1S62,296,62,296z"/>
	<path class="st0" d="M368,166l1-22l1,22c1.3,14.7,2.3,22.3,3,23s1.3,1,2,1v2h-1c0-0.7-0.3-1-1-1h-1c0-0.7,0-1,0-1
		c-0.7,0-1.3-0.3-2-1c0-0.7-0.7-0.3-2,1l-3,1v-1c0,0,0.3-0.3,1-1C366,188.3,366.7,180.7,368,166z"/>
	<path class="st0" d="M240,356h3l1,2c1.3,1.3,2,3.3,2,6v4h-1v1h-8c-0.7,0-0.7-2.3,0-7C237,357.3,238,355.3,240,356z"/>
	<path class="st0" d="M338,180v-2h8v1l1,1l1,1v12h1v40c0.7,18.7,1,30.3,1,35v22c0,7.3-0.3,19.3-1,36v38c-0.7,0-1,3.3-1,10v9h-1v1h-1
		l-4,1h-4v-2l-1-2v-5c-0.7-2-1-3.3-1-4V191l1-1v-6C337.7,182,338,180.7,338,180z"/>
	<path class="st0" d="M675,164l1,19v4h2v4c-0.7-0.7-1.3-1-2-1c-0.7-1.3-1.7-1.7-3-1l-2,1c-0.7,0.7-1,1-1,1c-0.7,0.7-1,1-1,1v1h-2v-1
		c0.7-0.7,1-1,1-1c0-0.7,0.7-1.3,2-2s2-8.3,2-23l1-21l1-1C674.7,144,675,150.7,675,164z"/>
	<path class="st0" d="M114,273h201l8,1c5.3,0,8.3,0.3,9,1l2,1v10h-6c-2,0-5.3,0.3-10,1H114c-5.3-0.7-9.3-1-12-1h-6v-11h2l1-1h5
		C106.7,274,110,273.7,114,273z"/>
	<path class="st0" d="M678,354c-0.7,0-1.3,0.7-2,2s-1.3,2-2,2h-1c-0.7-0.7-1-1-1-1v-1c0,0-0.3,0-1,0c-0.7-0.7-1-1-1-1v-2
		c0,0,0.3-0.3,1-1l2-1c1.3-0.7,2.3-0.3,3,1C677.3,352.7,678,353.3,678,354z"/>
	<path class="st0" d="M1124,247h13v5l1,5v40c0,0-0.3,0.3-1,1v1h-1c-0.7-0.7-6-1-16-1c-10.7-1.3-16.7-3.3-18-6l-1-4v-1
		c0.7-0.7,1-7,1-19v-17h1v-1c0.7,0,1,0,1,0v-1l3-1C1109,248,1114.7,247.7,1124,247z"/>
	<path class="st0" d="M485,300v-1h1l1,2c0.7,1.3,1.3,2,2,2v1h1c0,0,0.3,0.3,1,1h1c0-0.7,0-1,0-1h2l-1,2c-0.7,2-1,9.7-1,23v20h-2v-8
		l-1-18c-0.7-12-1-18.3-1-19h-1v-1h-1v-1h-2c-2,0-3-0.3-3-1h2C484.3,301,485,300.7,485,300z"/>
	<path class="st0" d="M552,306c0,0,0.3,0.3,1,1v1l1,20c0,14,0.3,21.3,1,22c0.7,1.3,1.7,2,3,2c0.7,0,1,0.3,1,1h-1c-0.7,0-1,0.3-1,1v1
		h-1v-1c0-0.7-0.7-1.3-2-2c0-0.7-1-0.7-3,0h-3v-1c0-0.7,0.3-1,1-1c0.7-0.7,1-8,1-22l1-21C551,306.3,551.3,306,552,306z"/>
	<path class="st0" d="M132,408v-1h45c2,0,3,0.3,3,1s0.3,1,1,1h1l1,1c0.7,0,1,0,1,0v2c0,0,0,0.3,0,1h1l-1,22c0,14.7-0.3,22-1,22
		c0,0.7,0,1,0,1h-1v1h-1v1c-0.7,0-1,0-1,0v1c0,0-0.3,0.3-1,1h-24c-16,0-25-1-27-3l-3-2h-1c0-0.7,0-1,0-1h1c0.7,0,1.3-7.3,2-22
		c0.7-14,1.3-21.7,2-23l2-2C131.7,409,132,408.7,132,408z"/>
	<path class="st0" d="M185,292v2c0.7,0.7,1,1,1,1l-2,2c-2,1.3-2.3,3-1,5c2,2,3,3,3,3v1c0,0,0.3,0.7,1,2v1c-0.7,0-1.7-1-3-3
		c-2-2.7-6-4-12-4h-11v-1l1-1v-1l-1-1v-2h1v1h1v1l9-1c6.7-0.7,10.3-1.7,11-3S184.3,292,185,292z"/>
	<path class="st0" d="M427,723l7,1c5.3,0,8,2,8,6v5c0,0.7-0.7,1-2,1h-87v-11h17c10.7-0.7,20-1,28-1h20C424,724,427,723.7,427,723z"
		/>
	<path class="st0" d="M124,347h1v1h1v1l-1,1c-0.7,0-1,0.3-1,1h-1c0,0.7-0.3,1-1,1v2c-0.7,0.7-0.7,1,0,1c0.7,0.7,1,1,1,1h1v1
		c0,0.7,1.3,0.3,4-1c2-1.3,3-2,3-2h1v1l1,1v1h-1c-0.7-0.7-1.3-1-2-1c0,0,0,0.3,0,1h-1l-1,1c-1.3,1.3-2,2.3-2,3v1c-0.7,0-1.7-1-3-3
		s-5.7-3-13-3l-11-2h-3l-1-1v-1h14c8,0,12-0.3,12-1s0.3-1,1-1s1.3-0.3,2-1C124,348.3,124,347.7,124,347z"/>
	<path class="st0" d="M633,739v-1h42c28,0,42,1.3,42,4v26h-90v-12c0-8.7,0.3-13.3,1-14h3v-1h1v-2H633z"/>
	<path class="st0" d="M118,693l3,15c2,9.3,3.7,16.3,5,21s2,7.7,2,9v1l1,1l1,1v1c0.7,1.3,1.3,2,2,2h1c0,0-0.7,0.3-2,1
		c-1.3,0-2.3-1-3-3c-0.7-2.7-8.7-4-24-4H80v1c-0.7-0.7-1.3-1-2-1v-2h1v-4l-1-4v-22h-1l1-1l1-1h1l18,1h19v-3l-1-2v-4h-1
		c0,0,0.3-0.3,1-1l1-1C117.7,693.3,118,693,118,693z"/>
	<path class="st0" d="M352,248h6c4,0.7,6.7,1.3,8,2c1.3,1.3,2,2,2,2v-1h1v1c0.7,0,1,0.3,1,1v2c0,0.7-0.3,6.7-1,18v17
		c-0.7,0-1,0.7-1,2v1l-1,1c-0.7,0.7-1,1-1,1v1h-1v1h-1v1h-12v-2c0-1.3,0-4.7,0-10s-0.3-8-1-8l-1,1v-4l1-13L352,248z"/>
	<path class="st0" d="M689,181v-1h371v1h-58l-58,1h-1c-0.7,0-1,0.3-1,1h-1c-0.7-0.7-2.3-0.7-5,0h-3c0-0.7-40.7-1-122-1H689v1
		c-0.7,0.7-1,1-1,1v-2C688,181.3,688.3,181,689,181z"/>
	<path class="st0" d="M245,290v-1h12c0,0.7-1.3,1-4,1s-4,0.3-4,1l1,1v3h1l1,1h1l1,1l2,1h6c4,0,6-0.3,6-1s0.3-1,1-1v6h-1c0,0-2,0-6,0
		h-7c-1.3,0-3,1-5,3l-2,2c0-0.7-0.3-1-1-1h-1v-1h1c0.7-0.7,1-1,1-1c0.7,0,1.3-1,2-3c1.3-1.3,1-2.7-1-4l-3-2v-4
		C246,290.3,245.7,290,245,290z"/>
	<path class="st0" d="M691,462h33c1.3,0.7,2,5.3,2,14v12h1c0,0,0.3,0.3,1,1l1,1h1v1c-0.7,0.7-0.7,1,0,1c0,0.7,0.3,0.7,1,0l8,4
		c5.3,2.7,15.7,5.3,31,8c14.7,2.7,29,5,43,7c14,1.3,21,2.3,21,3h-1v1h1v3l6,20c4,12.7,7.3,26.7,10,42c1.3,14.7,2.7,29,4,43
		c0,14,0.3,25.7,1,35v15H698v-1h1l1-1l1-1h1l1-1l1-1c0,0,0.7-0.3,2-1c0-0.7,1.7-3,5-7c3.3-3.3,5.3-15.3,6-36c0.7-20,1.3-30.3,2-31
		l1-1h2c0.7,0,1-0.3,1-1s0.3-1,1-1s2.3-0.3,5-1c2-0.7,3.3-6,4-16v-15h-5c-2.7,0-7.3,0-14,0h-10c0-0.7-0.3-7.7-1-21s-1.7-21.7-3-25
		l-2-6v-2c0,0-0.3,0-1,0c-0.7-0.7-1-1-1-1v-1c0,0-0.3,0-1,0c-0.7-0.7-1-1-1-1v-1c0,0-0.7-0.3-2-1l-1-1c-0.7-0.7-1-1-1-1v-1
		c0,0-0.3,0-1,0v-6c-0.7-4.7-1-7-1-7v-1c0,0-1-0.3-3-1l-3-1v-1h-1v-1h1l2-1c0.7-0.7,0.7-1,0-1s-0.3-0.7,1-2c0.7-1.3,1.3-3.3,2-6
		s2.3-4,5-4h3l-2-1L691,462z"/>
	<path class="st0" d="M147,295v7h-1c0,0-1.7,0-5,0h-7c-2,0-3.3,0.3-4,1v-1c0-0.7,0.3-1.3,1-2c0-0.7-0.3-1.3-1-2h-2c0,0,0-0.3,0-1v-1
		c0,0,0.3,0,1,0h1v1h1v1h7c5.3,0,8-0.7,8-2C146,295.3,146.3,295,147,295z"/>
	<path class="st0" d="M239,385h61v1h-51v1c-0.7,0-1,2-1,6v7c0,1.3-0.3,2-1,2h-1v1c0,0.7,0,1,0,1h-1c0,0-0.3,0.3-1,1v-1
		c0,0-0.3,0-1,0s-8,0.3-22,1l-22,1h-3c-2.7,0-4.7-0.7-6-2l-1-1v-1h-1v-16h26C230.7,386,239,385.7,239,385z"/>
	<path class="st0" d="M550,166l1-22h1c0.7,0,1.3,7.3,2,22c0,14.7,0.7,22.3,2,23s2,1.3,2,2h1v1c0.7,0,1,0.3,1,1v1h-1
		c-0.7,0-1-0.3-1-1h-1v-1c-0.7,0-1,0-1,0c0-0.7-1-1.3-3-2l-2-2v1c-0.7,0-1.3,0.7-2,2l-2,2h-1c0-0.7-0.7-1-2-1h-2c0,0,0.7-0.3,2-1
		l2-1h2v-1h1v-1C549.7,188,550,180.7,550,166z"/>
	<path class="st0" d="M263,742v-4h89v28c0,0.7-15,1.3-45,2h-44V742z"/>
	<path class="st0" d="M738,406h1c0,0,0.3,0.3,1,1v2h-1c-0.7,0.7-1.3,1-2,1c-0.7,1.3-2,1.3-4,0l-3-1v-1c0,0-0.3,0-1,0v-1
		c0.7,0,1-0.3,1-1c0,0,0.3,0,1,0v-1c0.7,0,1-0.3,1-1h2c2,0,3.3,0.3,4,1C738,405.7,738,406,738,406z"/>
	<path class="st0" d="M119,288l4-1h12l1,1c0.7,0,2,0.3,4,1h2c0,0.7-2.7,1-8,1h-7v2l1,2v1l1,1c-0.7,0-1,0-1,0v1c-0.7-0.7-1.3-1-2-1
		c0,0-0.7,0-2,0l-1,1v-3c0.7-0.7,0.7-1.7,0-3v-1l-4-1C116.3,288.3,116.3,288,119,288z"/>
	<path class="st0" d="M674,295h1c0,0.7,0.3,1,1,1v1c0.7,0.7,1.3,1,2,1v3c-0.7,0.7-1.7,1.3-3,2l-2,2v-1c-0.7,0-1.3-0.7-2-2l-2-3
		c0.7,0,1-0.3,1-1h1c0.7-0.7,1-1.3,1-2h1C673.7,296,674,295.7,674,295z"/>
	<path class="st0" d="M84,686h3l12,4c8,2.7,12.3,4.3,13,5l2,1h2v4l1,2v3H98l-18-1v-10C80,688,81.3,685.3,84,686z"/>
	<path class="st0" d="M611,351l1-1l2,2c1.3,0.7,2.3,1.3,3,2c-0.7,0.7-1.3,1.3-2,2c-0.7,1.3-2,1.3-4,0l-3-1v-2l1-1
		C609.7,352,610.3,351.7,611,351z"/>
	<path class="st0" d="M1069,296v-57h1v6h1v1h2c0.7,0,1,0,1,0l11,2c7.3,0.7,11,1,11,1c0,0.7,0,1,0,1h1c0,0,0.3,0.3,1,1v1
		c0,0.7,0.3,8,1,22v20h-1c0,0-0.7,0.7-2,2c-0.7,1.3-5,2-13,2c-8,0.7-12,1.3-12,2v1h-1c0,0.7,0,1,0,1v50h-1V296z"/>
	<path class="st0" d="M556,247v-1h1l1,1h1l-3,3c-1.3,2-2.3,9.7-3,23v20c0,0.7-0.3,1-1,1h-1v-2c-0.7-1.3-1-2-1-2v-20
		c0-12.7-1-19.7-3-21l-2-2h2c0.7,0,1,0.3,1,1c0,0,0.3,0,1,0v1l2,1c1.3,0,2.3-0.3,3-1C555.3,248.3,556,247.7,556,247z"/>
	<path class="st0" d="M1099,351v-1h2c0.7,0,1,0.3,1,1s0.3,1.3,1,2s1,1,1,1s0,0.3,0,1c-0.7,0.7-1.7,1.3-3,2s-2,0.7-2,0
		c-0.7-0.7-1.3-1-2-1c-0.7-0.7-1-1.3-1-2l1-2c0.7,0,1,0,1,0v-1C1098,351,1098.3,351,1099,351z"/>
	<path class="st0" d="M888,434h15v9c0,6,0,9,0,9h-16v-8C887.7,438,888,434.7,888,434z"/>
	<path class="st0" d="M368,350h1l2,2c0.7,0.7,0.7,1.7,0,3c-0.7,2-1.3,3-2,3h-1c0-0.7-0.3-1.3-1-2c-0.7,0-1-0.7-1-2v-3h1
		C367.7,351,368,350.7,368,350z"/>
	<path class="st0" d="M698,372l-2-5h1c0.7,0,1.7,1,3,3c0.7,2.7,3.7,4,9,4s8.3,0.3,9,1c0,0.7,0.7,1.3,2,2c2,0.7,3,1,3,1h-11v2h170
		c2.7,0,4,0.7,4,2v3H697v-1h3v-2h-1v-1h1v-3C700,376.7,699.3,374.7,698,372z"/>
	<path class="st0" d="M678,274v-23l1,4c0.7,2.7,1,4,1,4v123c0,0-0.3-2-1-6l-1-7v-15c0-0.7-1-1.3-3-2c-1.3-1.3-2.3-1.3-3,0l-2,2h-1
		v-1c0.7-0.7,1-1.3,1-2c1.3-0.7,2-8.3,2-23l1-22h1v1l1,17l1,17v7h1v-1h1V274z"/>
	<path class="st0" d="M375,192v-1h4v1h1v1h-1v1l-3,2c-2.7,1.3-4.3,2.7-5,4s-1,8.7-1,22v19h-2v-5c0-2.7-0.3-10-1-22
		c0-11.3-0.3-17-1-17s-1-0.3-1-1v-1h1l2,1c1.3,0,2.7-0.3,4-1s2-1,2-1v-1C374,193,374.3,192.7,375,192z"/>
	<path class="st0" d="M125,199l1-1v3l1,20c0.7,13.3,1,20.3,1,21s0.3,1.3,1,2c0.7,0,1,0.3,1,1v1h-1c-0.7,0-1.3-0.7-2-2
		c-0.7-0.7-1.3-1-2-1h-2v-1c0.7-1.3,1-8.7,1-22v-20C124,200,124.3,199.7,125,199z"/>
	<path class="st0" d="M306,297l2-2l1,1c0.7,0,1,0.3,1,1h1l1,1c1.3,1.3,1.3,2.7,0,4s-2,2-2,2c-0.7,0-1.3,0-2,0h-2c0-0.7-0.3-1-1-1v-1
		c-0.7,0-1-0.7-1-2C303.3,299.3,304,298.3,306,297z"/>
	<path class="st0" d="M729,141l-4-3l5,2c2.7,1.3,4.7,1.7,6,1c2-0.7,4-1.3,6-2h2c0,0.7-0.7,1-2,1s-2.3,0.7-3,2l-1,1l-1,1
		c-0.7,0.7-1,6-1,16v16h7v1h-30l-30-1h50v-1h1v-1c0-0.7-0.3-6-1-16C732.3,148.7,731,143,729,141z"/>
	<path class="st0" d="M1106,192c0,0.7-0.7,1.7-2,3c-1.3,0.7-2.7,1-4,1l-3-1v-1c-0.7,0-1,0-1,0h-1l3-3c1.3-2,3-2.3,5-1
		C1104.3,191.3,1105.3,192,1106,192z"/>
	<path class="st0" d="M729,459h332v29c-0.7,0-1,0.3-1,1s-1.3,2-4,4s-9,4.3-19,7s-26.3,5.7-49,9l-34,4c-0.7,0.7-20.7,1-60,1h-60
		c0-0.7-7-1.7-21-3c-14-2-28.3-4.3-43-7c-15.3-2.7-25.7-5.3-31-8l-8-4h-1v-2h-1l-1-1v-15C728,464,728.3,459,729,459z"/>
	<path class="st0" d="M441,25v-1l118,1c79.3,0,119,2,119,6v7c0,0-2,0.7-6,2c-3.3,1.3-14,2.7-32,4c-17.3,1.3-41.3,2.3-72,3
		c-30,0.7-54.3,0.3-73-1c-18.7-1.3-32.3-3-41-5l-12-3h-1v-2h-1V25H441z"/>
	<path class="st0" d="M367,244l1-2l2,2c1.3,0.7,2,1.3,2,2v3h-1v1h-1c0,0,0,0.3,0,1h-2v-1c0,0-0.3,0-1,0s-1-1-1-3
		C366,245.7,366.3,244.7,367,244z"/>
	<path class="st0" d="M431,348v-2l2,3c1.3,2,8.3,3,21,3c12,0,20,0.3,24,1h6l1,1v1h-25c-16,0.7-24.7,1.3-26,2l-2,1v-1
		c0-0.7,0.3-1.7,1-3l1-2h-1l-1-1c-0.7-0.7-1.3-1-2-1h-1v-1h2V348z"/>
	<path class="st0" d="M717,758v-11h1v9c0,6.7,0.3,10.7,1,12v1c-0.7,0-1,4-1,12v12h1v6h6v1H613v-1h12v-3h1v-30v1l1,1h90V758z"/>
	<path class="st0" d="M62,405l1-2h3c0,0.7,0,1,0,1h1c0,0,0.3,0.3,1,1c0,0.7,0,1,0,1h1c0,0,0.3,0.3,1,1v1c0,0-0.3,0-1,0v1
		c-0.7,0-1,0.3-1,1c0,0-0.3,0-1,0v1h-1c0,0.7-0.3,1-1,1h-1c-0.7,0-1.7-0.7-3-2c-1.3-0.7-2-1.3-2-2v-1h1C60,406.3,60.7,405.7,62,405z
		"/>
	<path class="st0" d="M223,303v-1l10,1c6.7,0.7,10.3,1.7,11,3c1.3,1.3,2,2,2,2v38l-1,2c-0.7,1.3-1,2-1,2v1c0,0-0.3,0.3-1,1h-6v-6
		c-0.7-4.7-1-8.3-1-11v-5c0,0-0.7-1.3-2-4l-1-4v-1c-0.7-0.7-1-1-1-1l-1-1v-1c-0.7-0.7-1-1-1-1v-1c0-0.7-1.3-2-4-4s-4-3.3-4-4v-3
		C222,303.7,222.3,303,223,303z"/>
	<path class="st0" d="M941,183h1c0,0,0.7,0.3,2,1c0.7,0,2.3,2.7,5,8c2,5.3,3,16.7,3,34c0,16.7-0.7,28-2,34s-4,11-8,15
		c-4,3.3-12.3,8.7-25,16l-19,11l-1,1l-1,1h-1v1h-1v1l-1,2v1h2l2,1l9-1c6-0.7,14.7-2.3,26-5c12-2.7,22-6,30-10s14.3-8,19-12
		c4.7-3.3,10-10,16-20c6-9.3,14.3-23.3,25-42c10-18.7,15-28,15-28c0.7,0,1-0.3,1-1v-1h2v-1h1v-1h5v2h1v1h1v1l2,9
		c1.3,6,1.7,17.7,1,35c0,16.7,0.3,25,1,25s1.3,3,2,9c0.7,6.7,1.3,10.7,2,12c0,1.3,0.3,16.3,1,45s1.3,43,2,43c0.7,0.7,1.3,2,2,4l1,3
		v3h-6c0,0-25-0.3-75-1l-75-1v-2c0-1.3-0.3-2.3-1-3s-1.3-1-2-1l-2-1c0-0.7-1-1-3-1l-2-2h-6c-4.7,0-14.7,0.7-30,2
		c-16,0-42.7,1.3-80,4l-57,4c0,0-1-0.3-3-1c-1.3-0.7-2-1.3-2-2c-0.7-0.7-3.7-1-9-1s-8-0.7-8-2c-0.7-0.7-1.3-1.3-2-2l-2-2
		c-0.7-0.7-1-1-1-1v-3c0-2-0.3-3.7-1-5c-0.7-2-1.7-4.3-3-7l-1-5l1-8c0-5.3,1.7-10.3,5-15c2.7-4,6.3-7,11-9c5.3-2,15.3-4,30-6
		c15.3-2,27.3-5,36-9c8-2.7,17.3-8,28-16c10-6.7,30-22.7,60-48c29.3-24,47.7-38.7,55-44c7.3-4,11.7-6.7,13-8c1.3,0,2-0.3,2-1h4
		C938.7,182.3,940.3,182.3,941,183z"/>
	<path class="st0" d="M431,237l1,3c1.3,2.7,2.3,4,3,4s1,0.3,1,1s-0.3,1-1,1l-1,1c-0.7,0.7-1,1-1,1h-1c0,0-0.3-0.3-1-1
		c-0.7,0-1-0.3-1-1s-0.7-1.3-2-2h-1l2-4C429.7,238,430.3,237,431,237z"/>
	<path class="st0" d="M613,188h1l1,2c0.7,2,1,3.3,1,4v1c-0.7,0.7-1,1-1,1h-1c0,0,0,0.3,0,1h-2c-0.7-0.7-1-1-1-1h-1v-1c0,0-0.3,0-1,0
		v-1c-0.7,0-1-0.7-1-2v-1h2v-1l1-1C611.7,188.3,612.3,188,613,188z"/>
	<path class="st0" d="M230,317v1c0,0.7,0.3,1,1,1l1,1c0,1.3,0,2,0,2h1l1,4c1.3,2.7,2,4,2,4v1c0,0-0.3,6.3-1,19v19h-41v-18
		c0-12-0.3-18-1-18v-2c0.7-1.3,1-3,1-5l1-2v-2h1c0,0,0.3-0.3,1-1v-1h1c0,0,0-0.3,0-1h1v-1c-0.7,0-1,0-1,0v-2h2c0,0,0-0.3,0-1
		c0.7-0.7,1-1,1-1h1c0,0,0-0.3,0-1c0.7-0.7,1-1,1-1l3-1c2-0.7,5.3-0.7,10,0c5.3,0.7,8.7,1.7,10,3C228,315.3,229.3,316.3,230,317z"/>
	<path class="st0" d="M4,186v-2l3,3c2,2,10.3,3.3,25,4h23v1h1v2H34c-15.3,0-23.7,0.7-25,2H7l-1,1l-1,1H4v-6C4,189.3,4,187.3,4,186z"
		/>
	<path class="st0" d="M369,350v-1h1l4,2c2,0.7,3.3,1.3,4,2h2v1h4v1l-5,1c-3.3,0-5.3,0.7-6,2c-0.7,0.7-1.3,1.7-2,3s-1,3.7-1,7v4h-1
		v-4l-1-4v-6h1c0.7,0,1.3-1,2-3c0.7-1.3,0.7-2.3,0-3L369,350z"/>
	<path class="st0" d="M375,408h1l24,2c16.7,0,26,1.3,28,4c1.3,1.3,2,2.3,2,3h1v20c0,13.3-0.3,20-1,20c-0.7,0.7-1,1-1,1
		c-0.7,0-1,0-1,0v1c0,0-0.3,0.3-1,1c-0.7,0-9.7,0.3-27,1c-16.7,0.7-26,0-28-2l-4-2v-44h1c0-0.7,0-1,0-1h1c0.7,0,1-0.3,1-1s0.3-1,1-1
		c1.3-0.7,2-1,2-1C374.7,408.3,375,408,375,408z"/>
	<path class="st0" d="M127,386h57v9c0,4.7-0.3,7.3-1,8s-1,1.3-1,2v1c0,0,0,0.3,0,1h-2c0-0.7-1-1-3-1h-3v1h-44c0-0.7-0.7-1.3-2-2
		l-2-1v-9C126,389.7,126.3,386.7,127,386z"/>
	<path class="st0" d="M889,424l7-1h6l1,1l1,1v4c0,2-0.3,3.3-1,4v1h-14c-0.7-0.7-1-2.7-1-6v-4H889z"/>
	<path class="st0" d="M189,403l1,1c1.3,1.3,3.3,2,6,2h3l-1,1l-1,1h5v1h-4c-2.7,0.7-4.7,1-6,1c-0.7,0-1.7,1-3,3l-2,3v-2
		c0-0.7-0.3-1-1-1h-2c0-0.7-0.7-1.3-2-2l-1-2h1l1,1c0.7,0,1,0,1,0v1c0,0,0.3,0,1,0c0,0.7,1,0.3,3-1c2-0.7,2.7-2,2-4l-2-2
		C188,403.3,188.3,403,189,403z"/>
	<path class="st0" d="M94,354v-11l1,1v8c0,0,0.3,0.3,1,1v1c0,0.7,0.3,1,1,1v-1h2l11,2c7.3,0,11.7,1,13,3s2.3,3,3,3v6h1l1,1l1,1h-4
		l-11,1c-8,0.7-13.3,1-16,1h-3v1h-1v9h-2v-2l1-8C93.7,366.7,94,360.7,94,354z"/>
	<path class="st0" d="M247,288l-1-1h64v1h7l-4,1c-2.7,0.7-3.7,1.7-3,3c0,2,0.3,3.3,1,4v1h-1c0-0.7-0.3-1-1-1l-1-1
		c-0.7-0.7-1.3-1-2-1v-1c0-0.7,0-1.3,0-2s-8-1-24-1l-25-1h-9C248,288.3,247.7,288,247,288z"/>
	<path class="st0" d="M310,244h1l1,2c0,1.3,0,2,0,2c-0.7,0-1,0.3-1,1h-1c0,0.7,0,1,0,1c-0.7,0-2-0.3-4-1l-3-2l3-2c2-2,3.3-2.7,4-2
		C310,243.7,310,244,310,244z"/>
	<path class="st0" d="M306,294c0.7,0,1.3,0.3,2,1l-2,2c-2,1.3-2.7,2.3-2,3c0,1.3,0.3,2,1,2h1v2h-2c0,0,0-0.3,0-1h-1
		c-0.7-0.7-4-1-10-1h-10v-5h1v1l10-1c6.7-0.7,10.3-1,11-1C305.7,295.3,306,294.7,306,294z"/>
	<path class="st0" d="M492,292l2,3c1.3,2,3.7,3,7,3h5l10,1c6,0.7,10.3,1,13,1h4v1h-16c-10.7,0.7-17,1.3-19,2l-4,1c0,0.7-0.3,1-1,1
		h-1v-1c0-0.7,0.7-1.3,2-2c0.7,0,1-0.7,1-2c0.7-0.7,0.3-1.3-1-2l-2-1v-1h-2v2h-2v-1c0-0.7,0.3-1.3,1-2l1-1h1v-1h1V292z"/>
	<path class="st0" d="M490,242l2,2c1.3,0.7,2.3,1.3,3,2v2h-1c0,0-0.7,0.3-2,1s-2.7,0.3-4-1l-2-2l2-2C489.3,243.3,490,242.7,490,242z
		"/>
	<path class="st0" d="M4,706h74v30H3v-14C3.7,712,4,706.7,4,706z"/>
	<path class="st0" d="M610,404l3-1l2,2c2,1.3,3,2.3,3,3c0,0-0.7,0.7-2,2l-2,2h-1c-0.7,0-1.7-0.7-3-2c-1.3-0.7-2-1.3-2-2
		C608,406.7,608.7,405.3,610,404z"/>
	<path class="st0" d="M612,143h1v1l-1,4c0,2.7-0.3,10-1,22c-0.7,11.3-1,17.3-1,18v3h-2v-1h-1c-0.7,0-8.3,0.3-23,1l-22,1l-2-1h-2
		c0-0.7-0.7-1.3-2-2s-2-8.3-2-23c-0.7-14.7-1.3-22-2-22h-2c0,0,0-0.3,0-1h1l3-2c1.3-0.7,10.7-1,28-1s26.7,0.3,28,1
		S612,142.3,612,143z"/>
	<path class="st0" d="M321,409h6l19,1c12,0,18.7,0.7,20,2s2,2,2,2v43c0,0.7-0.7,1.3-2,2c-0.7,0.7-9.3,1.3-26,2
		c-17.3,0.7-26.7,0-28-2l-3-2v-42l1-1c0-1.3,0.7-2.3,2-3C314,410.3,317,409.7,321,409z"/>
	<path class="st0" d="M679,13h1v1c0,0,0.3,0,1,0v-1h3c2,0.7,3.7,1.3,5,2c0.7,1.3,1,3,1,5c-1.3,2-3.3,3.3-6,4s-4,2.7-4,6
		c0,4-0.3,6-1,6l-1,1v-6c0-4-39.7-6-119-6l-118-1v1h-1v11h1v1h-2v-6c0-4-1-6-3-6c-2-0.7-3.7-1.3-5-2l-1-1h-1v-1h-1v-4l1-1v-1h1l1-1
		h1l2-1h4c0.7,0.7,1,0.7,1,0h1c1.3,0,41.3,0,120,0C638.7,13.7,678.3,13.7,679,13z"/>
	<path class="st0" d="M992,690v-15h88c0,0,0.3,5,1,15v15h-89V690z"/>
	<path class="st0" d="M352,303v-1l6,1c4.7,0.7,7.3,1,8,1c0,0,0,0.3,0,1h1v6c0.7,4,1,11,1,21v16c0,0.7,0,1.3,0,2s-0.3,1-1,1h-2
		c-0.7,0.7-2,1-4,1h-9l-1-5v-24l1-19V303z"/>
	<path class="st0" d="M257,289l25,1c16,0,24,0.3,24,1s0,1.3,0,2v1c0,0.7-0.3,1.3-1,2c-0.7,0-4.3,0.3-11,1l-10,1v-1h-1v-1
		c-0.7-1.3-1-2-1-2s-2-0.3-6-1c-3.3-0.7-5.3-0.3-6,1l-1,2c-0.7,0-1,0.3-1,1s-2,1-6,1h-6l-2-1l-1-1h-1l-1-1h-1v-3l-1-1
		c0-0.7,1.3-1,4-1S257,289.7,257,289z"/>
	<path class="st0" d="M462,247h22l2,2c1.3,1.3,2.3,3,3,5c0.7,1.3,1,8.3,1,21v19c0,0.7-0.3,1.3-1,2v1h-1c0,0.7,0,1,0,1
		c-0.7,0-1.3,0.3-2,1h-24c-14.7-0.7-23-1-25-1c-2-1.3-3.7-3-5-5l-3-4v-36l3-2c2-2,3.7-3,5-3S446.7,247.7,462,247z"/>
	<path class="st0" d="M789,140v-1h1c0,0,0.3,0.3,1,1l3,1c1.3,0.7,2.7,0.7,4,0s2.3-1.3,3-2h1l-2,3c-1.3,1.3-2.3,6.7-3,16
		c-0.7,10-1,15.3-1,16v1h1v1h51v1H743v-1h51v-16c0-10.7-1-16.7-3-18C789.7,141.3,789,140.7,789,140z"/>
	<path class="st0" d="M351,342v5l1,5h6l4-1c2.7-0.7,4-1.7,4-3c1.3-1.3,2-2,2-2v2c0,0.7,0.3,1,1,1v1h-1c0,0.7-0.3,1-1,1l-1,1
		c-0.7,0-0.7,0.7,0,2c1.3,2,2,3.3,2,4v2c0,0-0.7-0.7-2-2c-0.7-1.3-3.3-2-8-2l-7-1v2l-1,2v5h-1v-13h1v-5C350,343.3,350.3,342,351,342
		z"/>
	<path class="st0" d="M676,370v-10l1,4c0.7,3.3,1,5,1,5l1,7c0.7,4,1,6,1,6v3h109v1h-53v1c0,0-0.3,0.3-1,1h-1c0,0.7-0.3,3.3-1,8
		c-0.7,4-1,6.3-1,7v1c-0.7,0-1,0.3-1,1h-1c0,0.7,0,1,0,1h-50c-0.7,0-1.3-0.7-2-2c-1.3-0.7-2-2.7-2-6l-1-5v-7
		C675.7,382,676,376.7,676,370z"/>
	<path class="st0" d="M114,371l11-1h184l11,1c6.7,0.7,11,1,13,1h3c0,0.7,0.3,2,1,4v3c-0.7,0-1,0.7-1,2v2h-3c-2,0.7-8,1-18,1l-15,1
		H121c-3.3-0.7-8.3-1-15-1l-11-2h-1v-9h1v-1h3C100.7,372,106,371.7,114,371z"/>
	<path class="st0" d="M644,692v1h-1c-0.7,0-2,5.3-4,16s-3.7,17-5,19c0,2-0.3,3.7-1,5l-1,2v2l-1,1l-1,2v2h-2v-2l-1-2l-1-3v-1
		c0-0.7-0.3-1-1-1h-1v-3c0-1.3-1-5.7-3-13l-2-11c0.7,0,1-0.7,1-2c0-2-0.7-3.3-2-4l-1-1h-1v-2h-1v-1h-2v-1h-1v-1h-1c0,0-3-1.3-9-4
		l-8-4h-1v-1h-1v-4h1v-1h1v-1h1v-1h1v-1h1v-1h1l4-2c2-1.3,5.3-1.7,10-1c4,0.7,9.3,2.7,16,6s11,6.3,13,9C643,690,644,691.3,644,692z"
		/>
	<path class="st0" d="M97,286h5c2.7,0,6.7,0.3,12,1h9l-4,1c-2.7,0-2.7,0.3,0,1l4,1v1c0.7,1.3,0.7,2.3,0,3v1c-0.7,0-1.3,0.3-2,1
		c-0.7,1.3-5,2-13,2H96v-6C96,288.7,96.3,286.7,97,286z"/>
	<path class="st0" d="M426,304v-1h1c0.7,0,1,0.3,1,1h2c0.7,0,1.3,0,2,0v3c0,1.3-0.3,8.3-1,21v21h-2v-21c-0.7-12.7-1-19.7-1-21
		s-0.3-2-1-2S426,304.7,426,304z"/>
	<path class="st0" d="M8,300h1v1l-1,1c-1.3,0-2,0.3-2,1H5c0,0.7-0.3,0-1-2v-3c0.7-1.3,1.3-1.3,2,0C7.3,299.3,8,300,8,300z"/>
	<path class="st0" d="M131,407h1v1c0,1.3-0.7,2.7-2,4c-1.3,0.7-2.3,8-3,22c-0.7,14.7-1.3,22-2,22h-1v-21c0-14-1-21.7-3-23l-2-3v-1h1
		l2,2c1.3,1.3,2.7,1.7,4,1s2.7-1.3,4-2C130.7,408.3,131,407.7,131,407z"/>
	<path class="st0" d="M658,557h1v2h23l22-1h10c6.7,0,11.3,0,14,0h5v15c-0.7,10-2,15.3-4,16c-2.7,0.7-4.3,1-5,1s-1,0.3-1,1
		s-0.3,1-1,1h-2c0,0-113.3-0.3-340-1c-227.3-0.7-341.3-0.7-342,0l-2,1l-6-1c-3.3-0.7-5.3-1.7-6-3c0-1.3,0-6.3,0-15s0.3-13.3,1-14
		s106.3-1,317-1S658,557.7,658,557z"/>
	<path class="st0" d="M153,137h1v20c0,13.3,0,20.3,0,21v1c-0.7-0.7-1.3-1-2-1h-1l-11-1c-8-0.7-12-1-12-1s0-5.3,0-16s0.3-16.3,1-17
		s4.3-1.7,11-3h9v-1h1c1.3,0,2-0.3,2-1S152.3,137,153,137z"/>
	<path class="st0" d="M260,136v-1v19c0,12,0.3,18.7,1,20l1,1v2l1,1h-3l-6-1c-3.3-0.7-5-6.3-5-17c0.7-10.7,2-16.7,4-18l4-3l1-1
		C259.3,137.3,260,136.7,260,136z"/>
	<path class="st0" d="M80,206v-8h1v17c-0.7,11.3-1,25-1,41v23h-2v-1c0,0,0-5.3,0-16c0-10-1.3-14.7-4-14c-3.3,0-5.3,0.7-6,2l-2,2
		c-0.7,0-1-0.3-1-1v-1c0.7,0,1.3-0.7,2-2c1.3-2,1-3.3-1-4l-2-2v-1l1-1l1-2v4h1c0,0,0,0.3,0,1h1l1,1c0.7,0,2.3,0,5,0h4v-3l1-14
		C79.7,217.7,80,210.7,80,206z"/>
	<path class="st0" d="M208,293l1-1l5,1c4,0.7,6,1,6,1s0.3,0,1,0v7c0.7,4,1,6,1,6v1c0,0.7,1.3,2,4,4c2.7,2.7,4.7,4.7,6,6
		c0,1.3,0.3,2.3,1,3v1h-1c0,0-1.3-2-4-6c-2.7-2.7-7-4.3-13-5s-10,0.3-12,3l-3,4h-1v1h-1v2l-1,1v2h-2v-2h1v-3h1v-1h1v-2h1v-1
		c0.7-0.7,1-1,1-1s1.3-1.3,4-4l3-4v-10C207.7,294.7,208,293.7,208,293z"/>
	<path class="st0" d="M1008,138h20c0,0-7.3,0.7-22,2c-14.7,0-22.3,0.7-23,2c-0.7,0.7-1.7,6.3-3,17v17h51v1h-61v-1h7v-16
		c-0.7-10.7-1-16.3-1-17l-1-1h-1v-1h-1v-1h-2v-1h1l2,1h2l2,2c0.7,0,2.3-0.7,5-2S994,138,1008,138z"/>
	<path class="st0" d="M850,408h1c0.7,0,1,0,1,0v1l1,2c0.7,1.3,1.3,3.7,2,7v33h-3l-2,1h-10v-1c0,0,0-1.3,0-4s0-4.3,0-5h1
		c0.7,0,1.7-1.7,3-5s1.3-6.7,0-10s-5.3-5-12-5s-10.3,0-11,0l-1,2l-1,1l-1,1v1l-1,1l-1,1v4l3,4c2,2,4.3,3.3,7,4h3v1h-1v8h-1v1h-1v1
		h-13c-8.7,0-13.3,0.3-14,1h-1v-1h-1v-20c0.7-12.7,1-19.3,1-20h1v-1h1v-1c0,0,0.3,0,1,0v-1h25C842,408.3,850,408,850,408z"/>
	<path class="st0" d="M499,195l5-3h37l4,3c3.3,2,5,4,5,6s0.3,9,1,21l1,19v1c-0.7,0-1.7,1-3,3l-2,2h-1v-2h-25
		c-16.7-0.7-25.7-1.3-27-2l-2-2v-20c0-13.3,0.3-20.3,1-21C493.7,198.7,495.7,197,499,195z"/>
	<path class="st0" d="M490,403h1l3,1c1.3,1.3,2,2.3,2,3v1c0,0-0.7,0.7-2,2l-3,2h-1c0,0-0.7-0.7-2-2l-2-2v-1c0-0.7,0.7-1.3,2-2
		S490,403.7,490,403z"/>
	<path class="st0" d="M1079,674v-1h59v17c0,10.7-0.3,16-1,16h-54c0,0-0.3-0.3-1-1h-1v-15c-0.7-10-1-15-1-15v-1
		C1080,674,1079.7,674,1079,674z"/>
	<path class="st0" d="M148,293l1-1l6,1c4,0,6,0.3,6,1v4l1,1v2c0,0-0.3,0.3-1,1l1,3c0.7,2,2,4,4,6c1.3,1.3,2,2.3,2,3s0,1,0,1
		c-0.7-0.7-1-1-1-1h-1c0,0,0-0.3,0-1c-0.7-0.7-1-1-1-1h-1c0,0,0-0.3,0-1c-0.7-0.7-4-0.7-10,0h-9c0,0.7-0.3,1-1,1c0,0,0,0.3,0,1h-1
		c0,0.7-0.3,1-1,1c0,0,0,0.3,0,1h-1l-1,1c0,1.3-0.3,2-1,2h-1v-2h1v-1h1v-2h1v-1h1v-1h1c0-0.7,0.3-1,1-1c1.3-0.7,2-2,2-4l1-4v-8
		C147.7,294,148,293.7,148,293z"/>
	<path class="st0" d="M971,139v1h2v1h1v1h1l1,1c0,0.7,0.3,6.3,1,17v16h-59v-13c0-8.7,0.3-14,1-16s1.3-3.7,2-5l1-2c0,0,0.3,0,1,0v-1
		h24C963,138.3,971,138.3,971,139z"/>
	<path class="st0" d="M429,402h2l3,2c1.3,1.3,10,2,26,2c16.7,1.3,25,2,25,2s-8.3,0.7-25,2c-17.3,0-26.7,1-28,3l-1,2v-3
		c0,0,0.7-0.7,2-2c1.3-0.7,2-1.3,2-2c-0.7-0.7-1.7-1.7-3-3l-3-2V402z"/>
	<path class="st0" d="M428,352l1-2h1c0.7,0,1.3,0.3,2,1l1,1h1l-1,2c-0.7,1.3-1,2.3-1,3c-0.7,0.7-1.3,0.7-2,0h-2v-1c0,0-0.3,0-1,0
		C426.3,355.3,426.7,354,428,352z"/>
	<path class="st0" d="M134,302h7c3.3,0,5,0,5,0h1l-1,4c0,2-0.3,3.3-1,4v1c0,0.7-0.3,1-1,1v1c-0.7,0.7-1.3,1.3-2,2h-1v-1
		c-0.7,0-1,0-1,0v1l-1,1v1h-1c0,0.7,0,1,0,1h1l-2,6c-2,4.7-3,12-3,22v14h-1v-4l-1-1v-1h-2v-1h-1v-1h-1c0,0-0.3-0.7-1-2l-1-1v-20
		c0-12.7,0.7-20.3,2-23l2-3C130.7,302.3,132,302,134,302z"/>
	<path class="st0" d="M186,328h1v9l1,9v3h1v1h1l1,1h1v1c0,0-0.3,0-1,0v1l-1-1c-1.3-1.3-2.7-1.7-4-1s-2,1.7-2,3s0,2.3,0,3
		c0.7,0.7,1.3,1,2,1h2l-1,4c-0.7,2-1,2.7-1,2c0-1.3-0.3-2-1-2l-1-3c-1.3-2-2.7-3-4-3c-1.3-0.7-2,0.3-2,3s-0.3,5-1,7v3h4v1h-44l19-1
		h19v-37h1v3l1,7l1,8v2h3v-1h1v-1h1v-1h1v-2l1-9C185.7,332,186,328.7,186,328z"/>
	<path class="st0" d="M612,148l1-4l1,20c0,14,0.3,21.3,1,22v2h-2c-0.7,0-1.3,0.3-2,1l-1,1v1h-2v-1c0,0,0.3-0.3,1-1
		c0.7,0,1.3-6.3,2-19C611.7,158,612,150.7,612,148z"/>
	<path class="st0" d="M351,357v-2l7,1c4.7,0,7.3,0.7,8,2c1.3,1.3,2,2,2,2v4l1,4v16c0.7,8.7,1,13.7,1,15v2h-1c-0.7,0-1,0.3-1,1v1
		c0,0.7,0,1,0,1h-2c-0.7,0-8,0.3-22,1l-21,1h-5c-2.7,0-5.3-0.7-8-2l-3-2v-6c0.7-4.7,0.7-7.3,0-8l-1-2h-6v-1l15-1c10,0,16-0.3,18-1h3
		v-2c0-1.3,0.3-2,1-2v2l1,2v2h4l4-1h1v-1h1v-9c0-6.7,0.3-10,1-10h1v-5L351,357z"/>
	<path class="st0" d="M181,196l-3-3h61v1h-23c-15.3,0-23.3,0.3-24,1h-4c-2.7,0.7-3.3,1-2,1c0.7,1.3,1,1.7,1,1c0.7,0,1,0.3,1,1v6
		c0,4.7,0,8,0,10v4l5,1c3.3,0.7,11.3,1,24,1h19v1h-28l-27,1h-2v-1h1v-1h2c0.7,0,1.3-0.3,2-1c0.7,0,1-3.3,1-10
		C184.3,202.3,183,198,181,196z"/>
	<path class="st0" d="M119,179l4-1h29c0.7,0,1.3,0.3,2,1h54l2-1h55l35,2c23.3,0,35,0.3,35,1c0.7,0,1,1,1,3v4h1v2l-1,1h-1l-1,1h-10
		c-3.3,0-7.3,0.3-12,1H124c-8-0.7-14-1-18-1h-9l-1-1l-1-1h-1v-9h1v-1h3c2,0,5.3-0.3,10-1H119z"/>
	<path class="st0" d="M245,402h1v1c0,0.7,0,1,0,1h-1c0,0-0.3,0.3-1,1l-1,2c-0.7,1.3-0.7,2,0,2c0.7,0.7,1,1,1,1v1c-0.7-0.7-8-1-22-1
		l-20-1v-1h-5l1-1l1-1h22c14.7-0.7,22.3-1.3,23-2C244,402.7,244.3,402,245,402z"/>
	<path class="st0" d="M1099,348v-1h1v1h1v-1l2,2c1.3,2,7.3,3,18,3c10,0,15.3,0,16,0l1-1v5h-1c-0.7,0-6,0-16,0s-15.3,0-16,0l-1,1v-2
		c0-0.7,0-1,0-1s-0.3-0.3-1-1s-1-1.3-1-2s-0.3-1-1-1h-1C1100,349.3,1099.7,348.7,1099,348z"/>
	<path class="st0" d="M674,413h1l1,22c0,14.7,0.7,22.3,2,23c0.7,1.3,8,2,22,2c14.7,1.3,22,2,22,2h-37c-4,0-6.3-0.3-7-1
		c-1.3-0.7-2.7-1.3-4-2s-2.3-0.3-3,1h-1l-1,1l-1,1h-7l3-1l2-1h2l1-1c0.7-0.7,1-1,1-1s0.3-7.3,1-22l1-22
		C672.7,414,673.3,413.7,674,413z"/>
	<path class="st0" d="M588,354l-18-1h38l2,2c1.3,2,2.7,2.3,4,1c1.3-0.7,2.3-1.3,3-2h1c0,0,0-0.3,0-1h2c1.3,0.7,2,1,2,1h1
		c0,0-0.7,0.3-2,1l-2,1h-2v1h-1v1l-1,1c-0.7,0.7-1,7.7-1,21v21l-1,1h-1v-15c0-9.3-0.3-16.3-1-21s-1.3-7.7-2-9
		C607.7,356.3,600.7,355.3,588,354z"/>
	<path class="st0" d="M609,196v-1c0.7,0,1,0,1,0v1h1c0,0,0.3,0.3,1,1h1c0.7,0.7,1,0.7,1,0c0,0,0.3-0.3,1-1c0,0,0.3-0.3,1-1h1v1
		c-0.7,0.7-1,1-1,1l-1,1c-0.7,0.7-1,8-1,22v21h-2v-2h-1v-21c-0.7-13.3-1-20.3-1-21L609,196z"/>
	<path class="st0" d="M828,452h3l2,1c1.3,0.7,13,0.7,35,0s33-1,33-1h2l5,1h25c14-0.7,21-1,21-1h7c0,0,0.3,0.3,1,1l16,1
		c11.3,0,18.3,0.3,21,1l4,1h4l-11,1c-6.7,0.7-16.3,1-29,1h-19v1H843v-1h-61l-3-1l-3-1h4l4-1c2.7-0.7,5.7-1,9-1h5l15-1
		C823,452.3,828,452,828,452z"/>
	<path class="st0" d="M971,427v1h1v3c0,2-0.3,3-1,3c0,0,0,0.3,0,1c-0.7,0-1.3,1-2,3c-0.7,1.3-2,2-4,2l-3,1h-11c-2-0.7-4-2.3-6-5
		l-3-4v-3l1-1l1-1v-1l1-1l1-1l1-2c0.7,0,4.3,0,11,0s10.3,0.7,11,2C969.7,426,970.3,427,971,427z"/>
	<path class="st0" d="M678,191v1c0,1.3-0.7,2.3-2,3c-0.7,0.7-1.7,1-3,1l-2-1v-1c-0.7,0-1,0-1,0c-0.7,0-1-0.3-1-1v-1c0.7,0,1,0,1,0
		v-1c0,0,0.3-0.3,1-1l2-1c1.3-0.7,2.3-0.3,3,1C676.7,190,677.3,190.3,678,191z"/>
	<path class="st0" d="M444,740v-2h91v24l-1,5c0,0.7-15,1-45,1h-45V740z"/>
	<path class="st0" d="M486,354v-1l1,1c0.7,0,1,0,1,0v1h1v1h1c0.7,0,1.3-0.3,2-1h1v1c0,0.7-0.7,1.3-2,2c-0.7,0.7-1,1.7-1,3
		s0,8.3,0,21v20h1v1h-1c0,0.7-0.7,1.3-2,2s-2,1.3-2,2v1h-1c0,0-8.3-0.7-25-2c-16,0-24.7-0.7-26-2l-3-2v-20c0.7-13.3,1-20.7,1-22v-2
		l2-1c1.3-0.7,10-1.3,26-2h25C485,354.3,485.3,354,486,354z M487,357c0-0.7,0-1,0-1c0.7,0,1,0,1,0C488,356.7,487.7,357,487,357z"/>
	<path class="st0" d="M556,354v1c-0.7,0.7-1.3,1-2,1s-1,0.3-1,1s-0.7,0.7-2,0l-2-1c-0.7-0.7-1-1-1-1c0-0.7,0-1.3,0-2v-1h3
		c2-0.7,3-0.7,3,0C555.3,352.7,556,353.3,556,354z"/>
	<path class="st0" d="M668,299h1l2,3c0.7,1.3,1.3,2,2,2v2l-1,22c0,14.7-0.3,22.3-1,23v1h-1c0,0,0,0.3,0,1c-0.7,0.7-1,1-1,1h-1
		c0,0-7.3,0-22,0h-24c0,0-0.7-0.3-2-1h-1v-1c-0.7,0-1.3-0.7-2-2c-0.7-0.7-1.3-8-2-22l-1-22l4-2c3.3-1.3,12.7-2.3,28-3
		c14.7-0.7,22-1,22-1S668,299.7,668,299z"/>
	<path class="st0" d="M79,328v24c0,0-1,0.3-3,1h-3c-0.7-0.7-1.7-1.3-3-2s-2.3-7.7-3-21l-1-21v-1c0-1.3-0.3-2-1-2v-2c0.7,0,1,0,1,0
		c0-0.7,0.3-1,1-1h6C76.3,303,78.3,311.3,79,328z"/>
	<path class="st0" d="M251,198l2-5h51v3h1v1h1v1c0,0.7,0.3,1,1,1l-1,21c0,14.7-1,22.7-3,24c-1.3,1.3-3,2-5,2c-1.3,0-2,0.3-2,1h-35
		l-35-1l15-1c10-0.7,15-1,15-1s0.3-2.3,1-7v-9c0.7-1.3,1-2.7,1-4c0-0.7-0.3-1.3-1-2h-3c0,0,0-0.3,0-1s-0.7-1-2-1c-2,0-3-3-3-9
		C248.3,205,249,200.7,251,198z"/>
	<path class="st0" d="M887,387v17c0.7,12,1,18.3,1,19v5c0,3.3,0.3,5.3,1,6h-1c0,0.7,0,3.7,0,9s0,8.3,0,9h-16c-8.7,0-13-0.3-13-1h-1
		v-33c0-3.3,0.7-5.7,2-7l2-2c0,0,0.3-0.3,1-1v-1h5l8-1c5.3,0,8.7-3.3,10-10C886,390,886.3,387,887,387z"/>
	<path class="st0" d="M368,403h1l3,1c1.3,1.3,2,2.7,2,4v1c0,0-0.7,0.3-2,1c-0.7,0-1,0.3-1,1s-0.3,1-1,1h-2c0,0-0.7-0.7-2-2
		c-1.3-0.7-1.3-2,0-4l1-2h1C368,404,368,403.7,368,403z"/>
	<path class="st0" d="M595,706h24l2,11c2,7.3,3,11.7,3,13v3h1v3h-89v-10c0-6.7,1.7-10.3,5-11l5-1l24-4C586,707.3,594.3,706,595,706z
		"/>
	<path class="st0" d="M350,190v1h1v1l5-1c4-0.7,6.7-1,8-1h1v1l-1,1c0,1.3,0.3,2,1,2s1,0.3,1,1h-3c-1.3-0.7-3.7-1-7-1h-5v1
		c-0.7,0-1,1.7-1,5v5h-1v-15C349.7,188.7,350,188.7,350,190z"/>
	<path class="st0" d="M922,406v-1h1c0.7,0.7,9,1,25,1h24v3h-49v-2h-1C922,406.3,922,406,922,406z"/>
	<path class="st0" d="M550,292v-2c0,0,0.3,0.7,1,2v2l1,1c0.7,0.7,1,1,1,1l-3,2c-1.3,0.7-1.7,1.7-1,3c0.7,2,1,3,1,3
		c0.7,0,1.3,0.3,2,1v1c-0.7,0-1,0.3-1,1c-0.7,0-1.3-0.7-2-2c-0.7-0.7-3.7-1.7-9-3l-7-1v-1h-4c-2.7,0-7-0.3-13-1l-10-1l21-1
		c14-0.7,21.3-1,22-1C549.7,295.3,550,294,550,292z"/>
	<path class="st0" d="M689,183v-1h122c81.3,0,122,0.3,122,1h-1c0,0.7-0.7,1-2,1c-1.3,1.3-5.7,4-13,8c-7.3,5.3-25.7,20-55,44
		c-30,25.3-50,41.3-60,48c-10.7,8-20,13.3-28,16c-8.7,4-20.7,7-36,9c-14.7,2-24.7,4-30,6c-4.7,2-8.3,5-11,9c-3.3,4.7-5,9.7-5,15
		l-1,8h-1v1l-1,1l-1,1V184C688,184,688.3,183.7,689,183z"/>
	<path class="st0" d="M490,166l1-22l1,22c1.3,14.7,2.3,22.3,3,23s1.3,1,2,1v1c0,0.7-1.7,1-5,1s-5.3,0.3-6,1l-2,1v-2
		c0-0.7,0.7-1.3,2-2C487.3,188.7,488.7,180.7,490,166z"/>
	<path class="st0" d="M80,740v28h89v-2l1,1c0,0.7,0.3,1,1,1v1c-0.7,0-1,0.3-1,1v14c0,9.3,0.3,14,1,14l5,1h6v1H78v-1l1-14v-29
		C79.7,745.3,80,740,80,740z"/>
	<path class="st0" d="M78,278v20h-1c0,0-1.3,0-4,0l-4-1h-1c0-0.7-0.3-1-1-1c-0.7-0.7-1-8-1-22v-22l2-2c0.7-1.3,2.7-2,6-2
		c2.7-0.7,4,4,4,14C78,272.7,78,278,78,278z"/>
	<path class="st0" d="M734,388h1l1,8c1.3,4.7,2,7.3,2,8c0,0,0.3,0.3,1,1v1h-1c0,0-0.7-0.7-2-2c-2-0.7-3-0.7-3,0
		c-0.7,0.7-1.3,1.3-2,2l-2,1v-1c0,0,0.3-0.7,1-2c1.3-0.7,2-3.3,2-8C733.3,391.3,734,388.7,734,388z"/>
	<path class="st0" d="M1098,351v1c0,0-0.3,0-1,0l-1,2c0,0.7,0.3,1.3,1,2c0.7,0,1.3,0.3,2,1c0,0.7,0.7,0.7,2,0s2.3-1.3,3-2v2l-1,1
		c-0.7,0.7-1,6.7-1,18v18l-1,4l-1,4l-1-21c-0.7-14-1-21.7-1-23c-1.3-0.7-3-1.3-5-2l-3-2h-4v-1l5-1c3.3,0,5-0.3,5-1s0.3-1,1-1
		S1098,350.3,1098,351z"/>
	<path class="st0" d="M914,386v-1h71v1h-3c-1.3,0-2,0.3-2,1l-1,1h-1c-0.7,0-1.3,2.7-2,8c0,4.7-0.7,7.3-2,8c-1.3,1.3-2,2-2,2h-24
		c-16,0-24,0.3-24,1h-2c0-0.7,0-1,0-1v-2c0,0-0.3,0-1,0c-0.7-0.7-1.3-3.7-2-9l-2-8v-1c-0.7,0-1,0-1,0H914z"/>
	<path class="st0" d="M890,368h6l2,2c2,0,3,0.3,3,1h-6c-4,0.7-6.3,1-7,1s-1.3,1.3-2,4c0,2-1.3,3-4,3l-3,1H712v-2h11l57-4
		c37.3-2.7,64-4,80-4C875.3,368.7,885.3,368,890,368z"/>
	<path class="st0" d="M243,142l-3-3l3,1c2,1.3,3.3,2,4,2c1.3,0,2.3-0.7,3-2c1.3,0,2.7-0.3,4-1h3l-4,3c-2,1.3-3.3,7.3-4,18
		c0,10.7,1.7,16.3,5,17l6,1h-42l14-1l13-1h1v-16C246,150,245,144,243,142z"/>
	<path class="st0" d="M162,301l10,1c6,0,10,1.3,12,4c1.3,2,2.3,3,3,3v19h-1c0,0.7-0.3,4-1,10l-1,9v2h-1v1h-1v1h-1v1h-3v-2l-1-8l-1-7
		v-3h-1v-1c-0.7-0.7-1.7-3.3-3-8c-2-4.7-3.3-7-4-7s-1.3-1-2-3l-2-2c0.7-0.7,0.7-1,0-1c-0.7-1.3-1.3-3-2-5l-1-3h1
		C162,302,162,301.7,162,301z"/>
	<path class="st0" d="M0,764v-37c0,0,0.3,6,1,18l1,18v2h1v1c-0.7,0-1,0.3-1,1v1h1l1,1v1c0,0,0,4.7,0,14v14h74v-27h1v29h643v1H0V764z
		"/>
	<path class="st0" d="M552,242l2,2c1.3,0.7,2,1.3,2,2v1c0,0.7-0.7,1.3-2,2c-0.7,0.7-1.7,1-3,1l-2-1v-1c-0.7,0-1,0-1,0
		c0-0.7-0.3-1-1-1l2-2C550.3,243,551.3,242,552,242z"/>
	<path class="st0" d="M332,192h2l1-1h1v17h-1c-0.7,0.7-1,6.7-1,18v18h-10c-6.7,0-10.7,0-12,0l-1-1v-1c-0.7,0-1-6.7-1-20l-1-20l1-3
		c1.3-2,4.7-3.7,10-5c6-1.3,9-2,9-2H332z"/>
	<path class="st0" d="M429,142v2l-1,22c0,14.7-0.3,22-1,22h-1c0,0,0,0.3,0,1c-0.7,0.7-8.7,1-24,1l-23,1h-1c-1.3,0.7-2,1-2,1h-1
		c-0.7,0.7-1,1-1,1l-1-1v-1h-1c0-0.7,0-1,0-1v-1c0-0.7-0.7-8.3-2-23l-1-22v-1l3-2c1.3-0.7,10.7-1,28-1c18,0,27.3,0.3,28,1
		C428,141.7,428.3,142,429,142z"/>
	<path class="st0" d="M1043,406h1c0,0,0,0.3,0,1h1v2h-1c-0.7,0.7-1,1-1,1h-1c0,0,0,0.3,0,1c-0.7,0.7-1,1-1,1h-3c0,0-0.7-0.7-2-2
		l-2-1l2-3c1.3-1.3,2.7-2,4-2C1041.3,405.3,1042.3,406,1043,406z"/>
	<path class="st0" d="M84,179v-1l4,1c2.7,0,4,0.3,4,1c0,1.3,0.3,2.3,1,3v7c0.7,4,1,10,1,18v146c0,6.7-0.3,12.7-1,18l-1,8v3
		c-0.7,0.7-2,1-4,1h-4c0,0-0.3,0-1,0c-0.7-0.7-1-6.3-1-17l-1-16v-10c-0.7-6.7-1-18.7-1-36v-49c0-16,0.3-29.7,1-41v-21
		c0.7-3.3,1-6.7,1-10v-4h1v-1H84z"/>
	<path class="st0" d="M309,200v2l1,20c0,13.3,0.3,20,1,20v2h-1c0,0,0-0.3,0-1c-0.7-0.7-2,0-4,2l-3,2h-1c0,0.7,0,1,0,1s-0.3,0.3-1,1
		v7l-1,7v-1l-1-7c-0.7-4.7-1.3-7-2-7l-1-1c0-0.7,0.7-1,2-1c2,0,3.7-0.7,5-2c2-1.3,3-9.3,3-24l1-21l1-1C308.7,198,309,198.7,309,200z
		"/>
	<path class="st0" d="M246,351v-1l2,2c2,0,3.3,0.3,4,1v1c0,0.7-0.7,1.3-2,2c-1.3,1.3-2.7,1.3-4,0l-3-1v-2h1c0-0.7,0-1,0-1
		C244.7,352,245.3,351.7,246,351z"/>
	<path class="st0" d="M190,195h1l-1,1c-0.7,1.3-1.3,2-2,2c0-0.7-0.7-1-2-1h-2v-1c0.7-1.3,2-2,4-2C189.3,194,190,194.3,190,195z"/>
	<path class="st0" d="M246,307v-1h1c0.7,0,1,0.3,1,1v38l1,1l1,2v2h1v1h1v2c-0.7-0.7-2-1-4-1l-2-2v1c-0.7,0.7-1.3,1-2,1v-2
		c0,0,0.3-0.7,1-2l1-2V307z"/>
	<path class="st0" d="M349,233v-28h1v9c0,5.3,0.3,11.7,1,19l1,11h6c4.7,0,7.3-0.7,8-2c0.7,0,1.3-0.3,2-1v1l-1,2c-0.7,0.7-1,1.7-1,3
		c0.7,2,1,3,1,3c0.7,0,1,0,1,0v2c0,0-0.7-0.7-2-2c-1.3-0.7-4-1.3-8-2h-6l-1,14l-1,13v-7C350,263.3,349.7,251.7,349,233z"/>
	<path class="st0" d="M679,408v-1h1v1c0,0.7,8,1,24,1c16-0.7,24-1,24-1h1c0.7,0,1,0,1,0v1l1,2c0.7,1.3,1.3,8.3,2,21
		c0.7,13.3,1,20.7,1,22v4h-5v1c-0.7,0-1,5-1,15v15l1,1h1v1l1,1h-3v-1l-1-1l-1-2v-12c0-8.7-0.7-13.3-2-14h-2c0,0-7.3-0.7-22-2
		c-14,0-21.3-0.7-22-2c-1.3-0.7-2-8.3-2-23l-1-22v-1c0.7,0,1,0,1,0v-1c0-0.7,0-1,0-1h2C678.7,409.3,679,408.7,679,408z"/>
	<path class="st0" d="M523,247h22v1c0.7,0,1,0,1,0v-1h1c0.7,0,1,0.3,1,1c0,0,0.3,0,1,0v2c0,0,0,0.3,0,1c0.7,0,1,6.3,1,19v22
		c0,2-0.3,3.3-1,4c-0.7,0-8,0.3-22,1l-21,1h-5c-3.3,0-5.7-1-7-3l-2-3v-19c0-12.7,0.7-19.7,2-21l1-3l3-1C500,248,508.3,247.7,523,247
		z"/>
	<path class="st0" d="M428,298l3-2c0,0,0.3,0.3,1,1v1h2c0.7,0.7,0.7,1.7,0,3c-1.3,2-2,3-2,3c-0.7,0-1.3,0-2,0h-2c0-0.7-0.3-1-1-1v-1
		c-0.7,0-1-0.7-1-2C425.3,299.3,426,298.7,428,298z"/>
	<path class="st0" d="M856,693v19c-0.7,12,0,18.7,2,20c2.7,1.3,5.3,2,8,2h3c0,0-0.7,0.3-2,1c-2,0.7-11.3,1.3-28,2l-26,1h-5
		c0,0-14.7-0.3-44-1h-43v-1h87v-22c0,0,0.3-1.7,1-5v-5h1l22,1h23v-6C855.7,695,856,693,856,693z"/>
	<path class="st0" d="M283,296v8l1,3v2c0,0-2.7,0.3-8,1c-4.7,0-7-0.3-7-1v-13l1-2c0.7-1.3,2.7-1.7,6-1c4,0.7,6,1,6,1
		S282.3,294.7,283,296z"/>
	<path class="st0" d="M305,404l2-1l3,1c2,1.3,3,2.7,3,4c0,0.7-0.7,1.3-2,2c-1.3,1.3-2.3,2-3,2s-1.7-0.7-3-2l-2-2v-1
		C303,406.3,303.7,405.3,305,404z"/>
	<path class="st0" d="M678,407h1v1c0,0.7-0.3,1.3-1,2h-2c0,0,0,0.3,0,1c-0.7,0.7-1,1-1,1h-3v-1l-1-1c0-0.7-0.3-1-1-1s-1-0.3-1-1
		c0-1.3,0.3-2,1-2l1-1l2-1c1.3,0,2.3,0.3,3,1C677.3,405.7,678,406.3,678,407z"/>
	<path class="st0" d="M551,399v3h2v1l-3,1c-2,1.3-3,2.7-3,4c0,0.7,0.7,1.3,2,2c0.7,0.7,1.3,1,2,1v1l1-1c1.3-0.7,2-1,2-1h1l-1,2
		c0,0.7-0.3,1-1,1h-1c-0.7,0.7-1,1-1,1h-1c0,0-0.7-0.7-2-2c-0.7-1.3-9.3-2-26-2l-24-2h-1v-2l25-1c17.3-0.7,26.3-1.7,27-3
		C549.7,400,550.3,399,551,399z"/>
	<path class="st0" d="M862,406h4c1.3,0,2,0.3,2,1h-2c-1.3,0.7-2,1.3-2,2c-0.7,0.7-1.7,1.3-3,2c-0.7,0.7-1.3,2.7-2,6l-1,5h-1
		c-0.7,0-1,0.3-1,1l-1,1v-6c-0.7-3.3-1.3-5.7-2-7l-2-2h1l2,1c0.7,1.3,1.3,2,2,2c1.3,0,2-0.3,2-1l2-1c1.3-1.3,2-2,2-2v-1
		C862,406.3,862,406,862,406z"/>
	<path class="st0" d="M1045,409h50l2,1c1.3,1.3,2.3,2,3,2v1c0,0-0.3,7-1,21s-1.3,21.7-2,23c-0.7,0.7-5.3,1.7-14,3h-13l-2,1l-1,1h-4
		v12l-1,12v1h-1v-28h-6c0-0.7-2.7-1-8-1c-5.3-1.3-8-9.3-8-24v-22h2c0.7,0,1,0,1,0v-1c0,0,0.3-0.3,1-1h1
		C1044.7,410,1045,409.7,1045,409z"/>
	<path class="st0" d="M0,158V0h357c0,0-59.3,0.3-178,1H1v2h1c0.7,0,1,19,1,57c0.7,38.7,0.7,61.3,0,68v12c0.7,2,1,10,1,24v22
		c0,1.3,0,3.3,0,6v28c0,14.7-0.3,22.7-1,24v27c0.7,16,0.7,24.7,0,26v5c0.7,2,1,8.7,1,20v16l-1,1l-1,1v-10c0-6.7-0.3-10.7-1-12l-1-1
		V158z"/>
	<path class="st0" d="M158,676l5,2v1h1v1h1v1h1v1h1v1h1v5h-1l-1,1l-1,1l-8,3c-5.3,2-8.3,3.3-9,4v-1c0,0-0.3,0-1,0v1
		c-0.7,0-1,0.3-1,1c0,0-0.3,0-1,0v1c-0.7,0-1,0.3-1,1l-2,2c-1.3,1.3-2.7,7.3-4,18c-2.7,10-4,15.7-4,17v7h-4v-3l-1-1l-1-1v-1
		c0-1.3-2-9-6-23l-5-21c0.7-0.7,1-1,1-1v-1c0-0.7,0.7-1.7,2-3s5.3-3.7,12-7c6-4,11-6,15-6C151,674.7,154.7,674.7,158,676z"/>
	<path class="st0" d="M991,766v-2h1v2c0,0.7,0.3,1,1,1v1h88l1,14c0,8.7,0.3,13,1,13v4h12v1H906v-1h85v-30h-82v-1h82V766z"/>
	<path class="st0" d="M94,312v-31h1v1h1v4h1c-0.7,0.7-1,2.7-1,6v6h12c8,0,12.3-0.7,13-2c0.7-0.7,1.3-1,2-1v2l-1,1
		c-1.3,0.7-2,1.3-2,2c0.7,1.3,1.3,2,2,2s1,0.3,1,1v2l-1-1c-1.3-1.3-6-2-14-2s-12,7-12,21v21h-1l-1-1V312z"/>
	<path class="st0" d="M427,406l2-3l3,2c1.3,1.3,2.3,2.3,3,3c0,0.7-0.7,1.3-2,2c-1.3,1.3-2,2-2,2h-1c-0.7,0-1.7-0.7-3-2
		C425.7,409.3,425.7,408,427,406z"/>
</g>
</svg>
