<?xml version="1.0" encoding="utf-8"?>
<!-- Generator: Adobe Illustrator 22.1.0, SVG Export Plug-In . SVG Version: 6.00 Build 0)  -->
<svg version="1.1" id="Layer_1" xmlns="http://www.w3.org/2000/svg" xmlns:xlink="http://www.w3.org/1999/xlink" x="0px" y="0px"
	 viewBox="0 0 736 484" style="enable-background:new 0 0 736 484;" xml:space="preserve">
<style type="text/css">
	.st0{fill:none;stroke:#000000;stroke-miterlimit:10;}
</style>
<g>
	<path class="st0" d="M267.2,332.6c-10,15.2-23.4,21.2-38.3,21.2c-18.9,0-36.1-12.2-46-35.2c-9.8,23.5-27.1,35.2-46.2,35.2
		c-18.9,0-36-12.4-45.9-35.4c-9.8,23.7-27.1,35.4-46.5,35.4c-14,0-26.8-5-36.4-18.5l-7.3-82.8c10,20.9,25.9,34.5,43.8,34.5
		c19.4,0,36.7-15,46.5-38.7c9.9,23,26.9,38.7,45.9,38.7c19.1,0,36.4-15,46.2-38.5c9.9,23,27.1,38.5,46,38.5
		c19.3,0,36.4-15.7,46.1-39.4L267.2,332.6L267.2,332.6z"/>
	<path class="st0" d="M451.4,332c-10,15.2-23.4,21.2-38.3,21.2c-18.9,0-36.1-12.2-46-35.2c-9.8,23.5-27.1,35.2-46.2,35.2
		c-18.9,0-36-12.4-45.9-35.4c-9.8,23.7-27.1,35.4-46.5,35.4c-14,0-26.8-5-36.4-18.5l-7.3-82.8c10,20.9,25.9,34.5,43.8,34.5
		c19.4,0,36.7-15,46.5-38.7c9.9,23,26.9,38.7,45.9,38.7c19.1,0,36.4-15,46.2-38.5c9.9,23,27.1,38.5,46,38.5
		c19.3,0,36.4-15.7,46.1-39.4L451.4,332L451.4,332z"/>
</g>
<g>
	<path class="st0" d="M267.4,461.4c-10,16.4-23.4,22.8-38.3,22.8c-18.9,0-36.1-13.1-46-37.8c-9.8,25.3-27.1,37.8-46.2,37.8
		c-18.9,0-36-13.4-45.9-38.1c-9.8,25.5-27.1,38.1-46.5,38.1c-14,0-26.8-5.4-36.4-19.9l-7.3-89c10,22.5,25.9,37,43.8,37
		c19.4,0,36.7-16.1,46.5-41.6c9.9,24.7,26.9,41.6,45.9,41.6c19.1,0,36.4-16.1,46.2-41.4c9.9,24.7,27.1,41.4,46,41.4
		c19.3,0,36.4-16.9,46.1-42.4L267.4,461.4L267.4,461.4z"/>
	<path class="st0" d="M450.4,460.4c-10,16.4-23.4,22.8-38.3,22.8c-18.9,0-36.1-13.1-46-37.8c-9.8,25.3-27.1,37.8-46.2,37.8
		c-18.9,0-36-13.4-45.9-38.1c-9.8,25.5-27.1,38.1-46.5,38.1c-14,0-26.8-5.4-36.4-19.9l-7.3-89c10,22.5,25.9,37,43.8,37
		c19.4,0,36.7-16.1,46.5-41.6c9.9,24.7,26.9,41.6,45.9,41.6c19.1,0,36.4-16.1,46.2-41.4c9.9,24.7,27.1,41.4,46,41.4
		c19.3,0,36.4-16.9,46.1-42.4L450.4,460.4L450.4,460.4z"/>
</g>
<g>
	<path class="st0" d="M544.3,330.1c-10,15.2-23.4,21.2-38.3,21.2c-18.9,0-36.1-12.2-46-35.2c-9.8,23.5-27.1,35.2-46.2,35.2
		c-18.9,0-36-12.4-45.9-35.4c-9.8,23.7-27.1,35.4-46.5,35.4c-14,0-26.8-5-36.4-18.5l-7.3-82.8c10,20.9,25.9,34.5,43.8,34.5
		c19.4,0,36.7-15,46.5-38.7c9.9,23,26.9,38.7,45.9,38.7c19.1,0,36.4-15,46.2-38.5c9.9,23,27.1,38.5,46,38.5
		c19.3,0,36.4-15.7,46.1-39.4L544.3,330.1L544.3,330.1z"/>
	<path class="st0" d="M728.5,329.5c-10,15.2-23.4,21.2-38.3,21.2c-18.9,0-36.1-12.2-46-35.2c-9.8,23.5-27.1,35.2-46.2,35.2
		c-18.9,0-36-12.4-45.9-35.4c-9.8,23.7-27.1,35.4-46.5,35.4c-14,0-26.8-5-36.4-18.5l-7.3-82.8c10,20.9,25.9,34.5,43.8,34.5
		c19.4,0,36.7-15,46.5-38.7c9.9,23,26.9,38.7,45.9,38.7c19.1,0,36.4-15,46.2-38.5c9.9,23,27.1,38.5,46,38.5
		c19.3,0,36.4-15.7,46.1-39.4L728.5,329.5L728.5,329.5z"/>
</g>
<g>
	<path class="st0" d="M544.5,458.9c-10,16.4-23.4,22.8-38.3,22.8c-18.9,0-36.1-13.1-46-37.8c-9.8,25.3-27.1,37.8-46.2,37.8
		c-18.9,0-36-13.4-45.9-38.1c-9.8,25.5-27.1,38.1-46.5,38.1c-14,0-26.8-5.4-36.4-19.9l-7.3-89c10,22.5,25.9,37,43.8,37
		c19.4,0,36.7-16.1,46.5-41.6c9.9,24.7,26.9,41.6,45.9,41.6c19.1,0,36.4-16.1,46.2-41.4c9.9,24.7,27.1,41.4,46,41.4
		c19.3,0,36.4-16.9,46.1-42.4L544.5,458.9L544.5,458.9z"/>
	<path class="st0" d="M727.5,457.9c-10,16.4-23.4,22.8-38.3,22.8c-18.9,0-36.1-13.1-46-37.8c-9.8,25.3-27.1,37.8-46.2,37.8
		c-18.9,0-36-13.4-45.9-38.1c-9.8,25.5-27.1,38.1-46.5,38.1c-14,0-26.8-5.4-36.4-19.9l-7.3-89c10,22.5,25.9,37,43.8,37
		c19.4,0,36.7-16.1,46.5-41.6c9.9,24.7,26.9,41.6,45.9,41.6c19.1,0,36.4-16.1,46.2-41.4c9.9,24.7,27.1,41.4,46,41.4
		c19.3,0,36.4-16.9,46.1-42.4L727.5,457.9L727.5,457.9z"/>
</g>
</svg>
