<?xml version="1.0" encoding="UTF-8"?>
<svg enable-background="new 0 0 504.523 238.045" viewBox="0 0 504.523 238.045" xmlns="http://www.w3.org/2000/svg">
 <path d="m152.394,83.367c-3.364-7.5-16.448-15.052-22-21-3.076-3.295-5.176-7.693-9-11-28.316-7.685-47.189-24.811-73-35-27.591-.045-48.182,39.336-24,58-24.311-1.373-33.145-47.999-14-65 10.366-4.967 19.757-10.91 37-9 3.773,2.893 8.543,4.79 11,9-25.986-10.109-60.903,15.34-48,47 1.32-1.712-.871-8.42 0-13 7.345-16.266 22.499-30.245 42-29 17.38,1.109 37.377,19.664 53,27 5.915,2.777 13.332,4.878 18,8 3.042,2.034 7.266,9.521 13,15 4.735,4.524 11.113,6.782 13,9 .667.783-.828,2.233-1,2 1.102,1.487 6.867,4.662 4,8z"/>
 <path d="m367.394,17.367c-5.641,1.289-13.698-3.621-20-5-7.806.046-1.715-1.721 3-1 4.459.681 14.391,5.739 17,6z" fill="#fff"/>
 <path d="m333.39 15.367c5.396-2.04 12.638 2.678 19 3-6.008 2.651-12.268-3.049-19-3z" fill="#fff"/>
 <path d="m264.4 19.367c12.174-1.834 26.104 3.223 36 7-9.387-0.955-22.553-6.777-36-7z" fill="#fff"/>
 <path d="m255.4 32.367c-12.198 1.856-24.562-4.768-40-3 11.755-5.215 27.442 2.403 40 3z" fill="#fff"/>
 <path d="m200.394,36.367c-1.064,2.27-6.286.38-9,1 1.318-2.882 6.339-2.055 9-1z" fill="#fff"/>
 <path d="m365.39 41.367c-2.303 2.235-6.134-2.484-9-3 2.301-2.236 6.132 2.484 9 3z" fill="#fff"/>
 <path d="m19.394,55.367c7.987,2.013 8.361,11.639 12,18-4.854-.594-11.438-13.081-12-18z"/>
 <path d="m119.39 55.367h3c0.084 3.583 1.555 5.778 2 9-2.802-1.865-3.856-5.478-5-9z"/>
 <path d="m108.39 70.367c4.619 1.047 4.021 7.312 4 13-2.6 1.275-3.016 2.194-6 1 2.661-1.006 4.442-2.891 5-6 0.621-4.217-5.442-5.059-3-8z"/>
 <path d="m29.394 76.367c6.723 13.276 25.585 14.414 31 29-4.335-6.062-10.959-6.509-21-5-6.929-4.405-10.862-11.805-10-24z"/>
 <path d="m122.394,76.367c1.866.355-.123,5.095-1,6 4.018,3.649 8.456,6.877 12,11-.15,2.487-3.386.292-4,0-3.845,2.347-.37,8.026 0,12-3.717-3.156-5.663-4.158-11-4-1.672-9.638.135-18.32 4-25z"/>
 <path d="m83.394,80.367c3.472-2.098 4.792,6.511 8,8-2.091,2.18-2.854-.5-6,0-1.46-1.873-.04-6.628-2-8z"/>
 <path d="m61.394,80.367c.89.615 1.788,1.208 2,0 .6,4.733 4.773,5.893 7,9-3.469.802-3.844-1.49-7-1-.153-3.181-2.268-4.4-2-8z"/>
 <path d="m425.394,98.367c-4.069-2.598-4.94-8.393-5-15 2.111-.889 2.955-3.044 6-3 .654,7.654.931,11.542-1,18z" fill="#fff"/>
 <path d="m98.394,94.367c3.743.923 1.303,8.029 2,12-2.066-2.601-2.121-7.214-2-12z"/>
 <path d="m76.394,96.367c5.88-1.618 2.134,22.997 2,12-.695-4.301-3.644-8.262-2-12z"/>
 <path d="m342.394,97.367c2.208.125.425,4.241 1,6-2.618,1.237-6.347,4.924-10,2 2.196-3.471 7.046-4.286 9-8z"/>
 <path d="m361.39 97.367c4.788 10.211-0.043 30.042 3 42-3.714-10.677-5.105-28.823-3-42z"/>
 <path d="m439.39 110.37c-2.209-4.052 3.283-14.633 0 0z"/>
 <path d="m153.394,106.367c2.236.431.405,4.928 1,7-2.906-.019-2.364-5.652-1-7z" fill="#fff"/>
 <path d="m308.394,107.367h6c2.393,6.434-3.156,15.843-1,18-3.497-3.498 3.206-11.508-1-17-3.219,8.987 1.872,22.827-1,29 3.802.802 1.271-4.729 2-7 1.548-2.542 1.548,8.229 0,9-7.022-5.443.482-23.303-5-32z"/>
 <path d="m374.39 109.37c3.07 9.657 4.058 31.858 2 40-0.146-13.856-1.666-26.335-2-40z"/>
 <path d="m142.394,121.366c2.366-2.3 8.975-.357 13-1-2.367,2.301-8.976.358-13,1z"/>
 <path d="m475.39 124.37c-5.848 1.833-16.521 4.129-23 2 4.551-3.273 16.783-3.668 23-2z" fill="#fff"/>
 <path d="m395.39 124.37c1.577 4.607 3.716 18.699 1 21 0.749-8.083-1.192-13.476-1-21z"/>
 <path d="m105.39 131.37c-3.183-0.199-9.327-2.605-12 0-0.769-4.306 10.674-6.585 12 0z" fill="#fff"/>
 <path d="m335.39 129.37c3.469 4.681 3.87 17.262 2 24-2.599-6.068 0.436-17.769-2-24z"/>
 <path d="m345.394,130.366c1.854-2.432.676,6.593 1,9-1.854,2.43-.675-6.592-1-9z"/>
 <path d="m399.394,130.366c4.415,1.584.85,11.15 2,16-2.295,3.949.294-13.376-2-16z"/>
 <path d="m328.39 134.37c2.48 1.869 1.115 16.203 3 22-4.723-3.653-1.071-13.787-3-22z"/>
 <path d="m495.394,140.366c-13.749-.667-28.339.021-44,0v-2c-.162-1.163.221-1.778 1-2 8.303.251 17.094-.336 25,0 6.773.287 16.122-.965 18,4z" fill="#fff"/>
 <path d="m130.39 140.37c-16.436 8.035-47.145 2.904-69 5 6.431-7.131 21.277-4 33-4 12.298 0 25.421-1.347 36-1z" fill="#fff"/>
 <path d="m347.394,163.366c-2.898-2.575.044-14.805-1-22 2.32,5.346.341,14.99 1,22z"/>
 <path d="m352.39 141.37c2.255 5.744 3.371 12.628 3 21-2.149-4.181-1.572-13.532-3-21z"/>
 <path d="m457.394,151.366c-6.418.361-5.38-7.244-8-8 7.527-4.477 21.188-1.29 32-1 6.353.17 14.757-2.901 17,2-15.625.042-31.755-.422-46,1 10.572,3.843 34.624-2.256 46,2-9.825,5.582-27.219-.721-40,3 11.324.314 24.426,1.218 40,1-10.754,6.432-34.821,1.964-49,2 11.703,4.629 31.973.693 47,2-19.183,5.496-51.288,2.839-80,4-1.924.423-3.609-.686-2-1 11.646-.021 18.939-4.395 32-3 3.119-3.754 4.16-5.661 11-4z" fill="#fff"/>
 <path d="m372.39 149.37c1.468 2.842 2.604 13.908-2 14 0.133-5.199 1.865-8.803 2-14z"/>
 <path d="m102.39 150.37c-8.247 6.801-30.282 1.598-42 3 9.401-5.299 29.985-0.023 42-3z" fill="#fff"/>
 <path d="m63.394 156.37c6.676-2.323 17.66-0.342 26-1-4.151 5.375-18.845 3.733-26 1z" fill="#fff"/>
 <path d="m80.394,159.366c-1.34,3.326-5.828,3.506-9,5 .863-1.754 3.724-3.475-1-3 2.397-3.104 5.64-.322 10-2z" fill="#fff"/>
 <path d="m493.39 159.37c-3.911 5.68-11.937 2.725-18 3-24.033 1.092-54.459 2.672-78 3 6.044-4.939 16.425-4.856 28-5 23.28-0.289 51.095-0.17 68-1z" fill="#fff"/>
 <path d="m55.394,192.366c7.031,1.636 11.545,5.787 18,8-5.248.565-14.564-3.424-18-8z" fill="#fff"/>
 <path d="m111.39 218.37c-10.34-0.335-20.795-5.861-25-9 5.351 2.06 25.207 1.155 25 9z" fill="#fff"/>
 <path d="m138.39 218.37c1.831-1.766 7.51 1.105 11 1-2.268 2.201-9.785 1.168-11-1z" fill="#fff"/>
 <path d="m139.39 225.37c-5.929-0.738-11.287-2.047-18-2 3.387-4.428 15.783-1.331 18 2z" fill="#fff"/>
 <path d="m444.394,39.367c-1.167,4.636 11.479,6.729 8,14 2.479,1.52 6.222,1.778 7,5 .957,3.624-4.315,1.017-5,3-3.451,12.951-7.87,46.421-2,58 1.281,2.528 4.41.381 0,3 5.081,3.05 11.868-.773 18,0-7.009-2.253-7.331-5.199-17-5 2.819-1.719 2.32-1.239 3-4 28.485,2.362 56.111,16.58 46,50-2.371,7.838-12.462,21.8-22,29-9.784,7.387-35.915,16.544-50,21-23.129,7.315-59.694,12.004-88,14-44.389,3.128-101.475,6.505-134,0-.861,3.473-4.539,4.128-6,7-21.176,9.754-49.482-2.718-76-5-22.644-1.949-35.057-15.306-61-20-3.317-.601-7.861-6.47-12-7-3.399-9.45-6.156-24.261-5-35 3.641-.358 5.972-2.027 9-3-2.055-9.806-3.922-28.421 3-24-1.626-5.08 9.041-11.261 17-13-2.317,2.35-3.278,6.057-8,6 27.654,3.927 61.652.375 95,0 7.854-.402 3.273,1.784-2,1-3.101-.341-4.778,2.313-7,0-24.184,15.815-57.009,22.989-87,33-8.275-3.769-18.621,1.655-15,10 21.99,15.344 45.796,28.87 74,38-4.884-.115-10.539.538-14-1 4.915,6.272 16.455,3.955 22,3-.421-2.247-5.306-.026-6-2 25.446-4.416 53.772,10.155 76,0 .464,4.797-2.713,5.952-6,7 .067,2.933 2.286,3.714 4,5 2.186-.146 2.147-2.521 2-5 1.377-3.185.989,3.532 1,5 13.443-14.655 43.781-26.959 56-33 3.481-5.042 7.162-5.781 15-10 .266-3.907.693-7.081 1-13 33.682,13.317 66.843,27.155 99.999,41 2.099-8.442-2.807-18.519-3-28-70.319-32.353-146.525-58.808-217-91 70.719,27.95 146.711,59.282 219,89-69.562-33.441-146.356-59.64-218-91-.805.529-1.624,1.043-3,1-.998,8.822 3.003,17.446 0,25 11.803,10.282 39.612,18.708 57,26 18.29,7.67 35.577,17.343 52,21 4.512,1.005 12.072-1.759 14,5-4.685,1.511-24.299-6.22-21-5-23.955-8.854-66.678-11.556-97-25 2.94-3.519 6.001,1.266 9,1 1.527-.396-2.372-10.604 2-11-9.657-8.886-29.852-1.282-47-3-5.593.221-1.188-1.771 2-1h8c6.638-2.027 16.78-.554 25-1 .354-5.701-13.331-5.991-19-9 6.331-8.627 2.666-21.785 9-31 2.965,8.603-6.485,18.475-1,27 .254-6.229.751-18.666 8-21-.567-3.1-4.704-2.63-5-6 4.801-.468 6.565,2.101 9,4 51.295,20.976 102.752,42.819 155,64 17.1,6.932 33.761,15.936 52,19-3.122.14-4.958-1.765-8-4 .117-2.81 9.322,1.374 4,1 4.979.958 10.142-6.513 14-10 2.062.271.238,4.429 3,4 6.922-17.999-4.453-47.482-4-68-9.412.108-2.767,10.739-5,17-1.356-.31-.829-2.505-1-4-4.299,1.38-.452,6.361-1,10-4.092-5.622.153-13.44-2-21-6.732-1.066-9.357,1.975-15,2 3.763,9.412 3.548,25.909 1,35-2.235-.433-.404-4.929-1-7 3.83,8.745.172-4.515 1-10-1.277,13.155-5.431-14.572-7-18 15.365-2.053 32.99-7.723 46-13 9.66,1.672 9.658,13.008 10,24-1.773,2.668-.729-5.859-1-8-3.589,6.411 2.23,22.231-3,27 2.111-11.538 1.41-28.675-2-38-4.523,8.558-1.718,19.396-4,31-2.319-5.013-.344-14.322-1-21-2.941,1.725.941,10.274-2,12v-13c-.311-2.338-1.958-4.131 0-6-1.777-1.868-2.542.812-6,0 .682,3.985 2.528,6.804 2,12-3.299-1.771.299-4.23-3-6-1.642,2.608-.191,4.331-1,9-2.374,2.307.373-8.99-2-10-3.064,18.729 9.175,40.924 4,61 14.112-5.038 4.772-32.144 4-46 5.071,14.353 6.159,31.182 4,42 5.46.458 1.541-8.459 7-8-.489,3.155 1.803,3.53 1,7 2.832-.168 4.167-1.833 7-2-.181-2.819-4.753-1.248-4-5 1.7-.367 1.887.778 2,2 1.076-6.025 2.291-15.556 1-25 .84-3.177 1.318,1.774 1,3 1.432,5.752 1.776,17.308 0,23 2.729-1.47 3.928-4.468 3-7 3.229-.896 1.404,3.262 3,4 3.662-7.653 2.572-13.068 2-22 3.341,5.227 1.361,13.11 1,20 .897,2.702 2.413-2.108 3-3 4.068,4.459-2.922,6.368-6,7 5.374,3.671 9.188-2.783 11-6-.438-1.483-1.279.396-3,0 3.188-2.831.775-16.529 3-17-.359,7.358.259,13.741 1,20 8.294-4.431 3.812-32.271 4-42 .021-1.024-2.33-4.254 1-1 .16,14.19 3.786,30.192-1,41 3.988.987 3.012-2.988 7-2-.161-1.173-1.823-.845-3-1 2.412-2.543.229-4.867 1-11 1.035-8.261 3.622-27.696 3-10 1.035,2.631 1.196,6.138 1,10-.329,2.337-1.201,4.131-2,6 2.762-2.414 2.281-1.581 4,1 2.933-7.4-.911-21.579 2-29-.591-2.854.72-10.794 1-4 .39,11.056-1.776,19.556-1,31 8.963-16.105-.904-46.021 5-66 .131-4.28-8.984,2.848-7-5-3.777.222-2.858,5.141-6,6-3.049.048-5.092-.909-6-3-2.385,4.631-12.608,6.704-17,6-11.413,12.253-35.528,11.805-57,14-4.247,3.419-8.044,7.289-16,7-.133-2.465-.151-4.818 1-6-7.209,1.158-8.7,4.295-14,3-1.605,1.394-1.064,4.935-3,6-3.587.253-3.663-3.003-7-3-.865,4.659-7,6.269-8.999,12-1.433,4.098 1.119,10.272-1,16-3.887,10.491 1.306-3.86-1-5-2.522-1.246.051,7.241 0,8-.43,6.182-4.018,14.79-2,18-4.283-10.504 2.006-21.158-1-32 1.76.884 1.65,4.437 4,2 .237-3.079.86-10.732 1-13-1.972,5.327-2.685-4.98-3,2-2.914-2.887 1.545-9.734 3.999-5-5.97-3.751 4.696-6.047 2-9 .15-2.488 3.387-.292 4,0 2.143-1.249-2.488-4.099-2-7 1.621-1.503 7.38-1.503 9,0-.318,5.014-6.447,4.219-6,10 4.823-.844 3.973-7.362 10-7-1.246,4.247 3.325,2.674 4,5 .527-1.079 1.039-4.762 1-9 3.009-1.008 1.771,2.228 2,4 2.169.168.453-3.547 1-5 2.202,5.87 1.633,2.396 5,0v4c1.172-.162.844-1.824 1-3 3.861.387-.965,5.487 6,4 .612-1.311.751-7.481 3-10 2.256.745.392,5.609 1,8 1.548-1.453 2.1-3.901 2-7 1.547-3.057.881,4.337 1,6 2.312-1.022 2.068-4.598 2-8 3.009-1.008 1.771,2.228 2,4 .762-1.573 3.173-1.495 3-4 2.935.85-1.301,2.517 0,5 1.167-1.833 3.832-2.167 5-4-.406-3.377-3.877,2.661-3-2 3.131.515 4.465-2.735 4,2 1.483-.85 2.149-2.517 2-5 2.814,1.01-.275,4.247 0,6 2.979-.021 1.282-4.718 3-6 2.932.847-.599,3.219 0,5 3.359,1.026 1.557-3.11 2-5 3.271,1.709 1.352,5.635 1,9 3.385-2.616 3.8-8.201 7-11 2.208.125.425,4.242 1,6 1.655-1.011 1.087-4.248 2-6 3.145,1.394-1.376,4.935 1,6 1.486-1.514 1.61-4.389 2-7 2.227.42.782,5.306 0,6 1.76-.241 2.279-1.721 2-4 2.687,3.061 2.593,2.9 3,7 3.038-.962 2.178-5.823 4-8 2.227.42.782,5.306 0,6 1.76-.241 2.279-1.721 2-4 1.172.161.844,1.823 1,3 1.343-.658 1.862-2.138 2-4 2.913,1.402-1.772,3.445-1,6 1.748-2.584 5.161-3.505 6-7 1.172.161.844,1.823 1,3 1.443-1.223 1.518-3.817 3-5 2.932.847-.598,3.219 0,5 2.154-.845 1.613-4.387 3-6 1.343.202 1.862,4.153 2,0 1.321,1.603 4.278,3.737 2,6 5.321-.012 3.199-7.468 5-11 2.208.125.425,4.242 1,6 1.485.04 1.446-5.94 2-1 2.169.168.453-3.547 1-5 2.146,1.188 2.335,4.332 4,6 2.938-1.062 1.979-6.02 5-7 4.867-.201 8.892.442 8,6 4.258-1.287-.098-4.97 1-9 3.114-.552 6.518-.817 9-2-1.021-1.314-.979-3.687-2-5-1.018.649-1.034,2.299-3,2-8.646-14.356-24.786-21.213-42-27 5.448-3.423-4.135-.47-1-2-2.216-4.114 7.963.85 8,4 7.805,1.195 13.241,4.758 19,8-12.771-9.898-28.101-17.233-47-21 3.014,4.32 11.73,2.935 16,6 1.907,1.819-8.021-2.001-13-3-6.654-1.335-13.657-1.252-18-3-1.136.19-.556,1.003 0,1-3.491,1.128-10.963-2.349-16-3 3.822,3.844 11.983,3.349 17,6 1.567-.354-.876-1.761 1-2 8.142.859 12.006,5.994 21,6-1.28,3.948 2.913,2.419 3,5 20.146,3.186 37.596,9.072 44,26-10.054-8.708-25.035-17.504-40-18 .821-3.822-4.821-1.179-4-5 7.766,1.568 14.701,3.965 21,7-3.469-7.018-24.295-8.768-26-8-4.152-.138-.201-.658 0-2-3.517-1.817-7.522-3.144-11-5-2.514.429 1.662,2.154 3,2-23.473,2.746-50.436-8.188-74.999-11 15.121,5.877 35.966,6.033 46.999,16-4.114-1.375-8.167-5.331-13-3-.058-.652 1.329-1.177 2-1-14.229-3.75-37.857-5.689-56.999-9 13.217,3.781 28.22,5.779 38.999,12-3.024.662-10.938-2.375-16-3 1.234,8.765 12.035,7.965 19,11-15.172-2.312-24.184-3.351-40.999-6-.229-.036 1.396-1.037 2-1-3.896-.235-12.789-1.308-17-2 6.824,2.507 13.498,5.168 21,7-8.051,3.034-17.306-1.351-25-2 .16-1.172 1.821-.844 3-1-1.515-3.024-4.391.829-7,0 .16-1.172 1.821-.844 3-1-9.651-4.077-25.588-5.289-37-2 16.999,2.334 37.479,1.185 46,12-18.405-.6-41.839-10.157-64-7 14.477-.582 35.644,5.461 48,7-11.473,4.431-24.517-5.878-40-4 .161,1.171 1.823.843 3,1-3.692,2.409-12.687-2.945-17,0 19.944,4.198 40.802,3.766 59,11 5.49,2.114-5.291-1.097-10-2-4.953-.95-10.519-.55-13-2 1.115,4.789 34.527,7.971 17,6-11.438-1.287-26.318-2.423-39-4 .745-2.255 5.609-.391 8-1-5.207-4.46-16.855-2.479-24-5-.368,1.701.78,1.886 2,2-2.865,1.161-9.584-2.389-16-1 16.135,2.602 22.189,4.709 39,8-5.605,1.917-15.161-.823-19-4-.313,3.295-24.693-6.059-35-1-4.091,2.008-3.023,5.862-7,10 1.475,5.192 4.038,9.295 7,13-4.372,5.295.596,19.929-4,25-3.417-4.878-4.435-16.031-1-23-5.514-1.819-5.097-9.57-8-14 16.435-25.487 85.664-39.985 136-46 23.675-2.83 50.883-2.34 75.999,0 17.329,1.614 35.458,9.802 51,16 17.996,7.176 33.696,12.948 37,32-.891.615-1.788,1.208-2,0-5.377-4.956-7.672-12.994-14.999-16zm8,86.999c6.479,2.129 17.152-.167 23-2-6.217-1.668-18.449-1.273-23,2zm0,2c.622,3.871.827,4.117-1,7 14.554-.219 30.094-.979 42-1-4.443-4.557-16.328-1.672-23-4 4.238-.762 11.844,1.844 13-2-8.58-3.031-19.748.123-31,0zm-102-116.999c-4.715-.721-10.806,1.046-3,1 6.302,1.379 14.359,6.289 20,5-2.609-.261-12.541-5.319-17-6zm28,8c5.568.783 11.193,6.782 15,6-3.35-3.004-11.099-6.877-15-6zm-26-1c-6.362-.322-13.604-5.04-19-3 6.732-.049 12.992,5.651 19,3zm-15,4c-6.766-2.913-24.94-8.382-35.999-7 13.079,1.253 23.602,5.062 35.999,7zm-55.999,2c-9.815-1.593-27.465-5.769-35-3 1.496.17 3.69-.357 4,1-1.315-.132-7.235-.152-4,1 9.133-.789 18.438,3.546 24,3-2.826-2.841-9.996-1.338-13-4 8.08-.07 17.623,3.691 24,2zm28.999-3c-14.622-1.876-30.493-6.632-42.999-4 14.769-.764 27.205,6.121 37,7-3.994-3.007-11.197-2.804-15-6 6.394.951 14.74,5.238 20.999,3zm-9.999,5c-9.896-3.777-23.826-8.834-36-7 13.447.223 26.613,6.045 36,7zm-85.001,3c15.439-1.768 27.803,4.856 40,3-12.557-.597-28.244-8.215-40-3zm-24,8c2.714-.62 7.936,1.27 9-1-2.661-1.055-7.682-1.882-9,1zm-37,76c-.595-2.072 1.236-6.569-1-7-1.364,1.348-1.906,6.981 1,7zm323,22.999c-7.906-.336-16.697.251-25,0-.779.222-1.162.837-1,2v2c15.661.021 30.251-.667 44,0-1.878-4.965-11.227-3.713-18-4zm-31,19c-13.061-1.395-20.354,2.979-32,3-1.609.314.076,1.423 2,1 28.712-1.161 60.817,1.496 80-4-15.027-1.307-35.297,2.629-47-2 14.179-.036 38.246,4.432 49-2-15.574.218-28.676-.686-40-1 12.781-3.721 30.175,2.582 40-3-11.376-4.256-35.428,1.843-46-2 14.245-1.422 30.375-.958 46-1-2.243-4.901-10.647-1.83-17-2-10.812-.29-24.473-3.477-32,1 2.62.756 1.582,8.361 8,8-6.84-1.661-7.881.246-11,4zm-21,5c-11.575.144-21.956.061-28,5 23.541-.328 53.967-1.908 78-3 6.063-.275 14.089,2.68 18-3-16.905.83-44.72.711-68,1zm-51,7c4.295-.039 7.362-1.305 10-3-3.802.531-7.165,1.502-10,3zm10,3c-2.561,3.439-9.881,2.119-14,4 8.017,2.859 21.268-2.611 30,1-8.444-.367-19.946.15-23,2 9.229,3.443.577,30.081 5,35-5.524-18.024 22.318-8.32 29-15-10.263-1.252-20.241,3.076-29,0 14.661-1.006 31.753.419 43-4-14.448-.776-31.502,1.158-43,0 16.188-2.479 38.733,1.4 52-4-18.854-1.021-34.899.875-52-1 21.104-2.282 50.444,1.969 65-4-22.526-2.174-42.214,1.178-65-1 21.679-3.645 62.979,2.707 79-5-24.785-.797-51.197,2.562-78,0 23.832-1.49 52.347.646 74,0 5.817-.174 12.483-.766 16-5-22.399,2.259-47.61,2.566-70,0 29.467-1.867 67.54,4.874 85-9-21.665-1.094-43.88.937-61,2-14.652.91-28.688-.883-40,3 34.107,1.915 68.615-3.491 96-2-35.159,1.824-65.615,5.692-99,3zm-82.999,14c-1.315-.133-7.235-.15-4,1 4.264-1.28 5.985,1.113 9-1-9.572-3.096-17.718-7.616-27-11v9c4.237-5.565 15.257.849 22,2zm-41,15c26.666-.666 55.997,1.332 80.999-1-18.063-6.938-49.812-.188-70.999-4 17.955-1.098 41.146.099 58.999-1-7.54-1.163-14.197-7.908-22-3 3.039.627 8.613-1.279 10,1-14.917.459-24.456-.031-37.999-2 2.07-.596 6.567,1.234 7-1-9.724-3.428-17.113,7.511-26,11zm-5,1c-3.914,2.754-9.351,3.982-13,7 5.348.65 13.312-1.312 17,1-8.615.387-19.283-1.281-25,2-1.036,2.631-1.197,6.138-1,10-1.776-10.734 8.546-8.477 19-8 18.538.843 52.993-.358 65-3-17.669-.665-37.997,1.331-53.999-1 32.116-.883 68.021,2.021 96.999-2-37.148-4.541-73.372,1.584-110-3 35.022-.381 67.039,2.449 101-1-28.182-4.487-64.538-.799-96-2zm-14.001-43c-22.794-8.207-45.806-21.526-68-27 2.953,2.379 3.864,6.804 4,12 24.327,1.342 42.564,14.101 64,15zm-178-18c24.285,1.15 59.98,2.592 81-4-27.712,2.273-55.19-.396-80,2-.534-1.439 3.896-2.439 1-3-.28,1.502-4.3,4.211-2,5zm31,2c-11.723,0-26.569-3.131-33,4 21.855-2.096 52.564,3.035 69-5-10.579-.347-23.702,1-36,1zm26,4c-11.227.417-21.446.521-32,1-10.493.478-22.201-2.829-29,3 22.009-2.122 53.199,4.496 61-4zm-60,8c11.718-1.402 33.753,3.801 42-3-12.015,2.977-32.599-2.299-42,3zm29,2c-8.34.658-19.324-1.323-26,1 7.155,2.733 21.849,4.375 26-1zm-19,6c4.724-.475 1.863,1.246 1,3 3.172-1.494 7.66-1.674 9-5-4.36,1.678-7.603-1.104-10,2zm3,39c-6.455-2.213-10.969-6.364-18-8 3.436,4.576 12.752,8.565 18,8zm13,9c4.205,3.139 14.66,8.665 25,9 .207-7.845-19.649-6.94-25-9zm63,10c-3.49.105-9.169-2.766-11-1 1.215,2.168 8.732,3.201 11,1zm-28,4c6.713-.047 12.071,1.262 18,2-2.217-3.331-14.613-6.428-18-2z"/>
 <path d="m386.394,25.367c-6.163,4.175 12.051,6.313 15,11 1.4-.354.087-1.761-1-2 7.528,1.479 21.178,5.483 22,17-.891.443-1.788.878-2,2-12.732-3.475-26.263-17.463-36-22-5.284-2.462-6.952.543 0-1 8.428,2.907 14.076,8.59 22,12-3.979-6.579-19.736-10.663-26-17 1.232-3.038 3.438,1.084 6,0z"/>
 <path d="m411.394,51.367c-1.431,4.349-6.188.277-8-1-.55,2.81 2.063,5.65-1,10-7.581-3.385-7.528-11.398-12-17-3.586-4.492-10.676-5.424-11-9-4.975,1.762-5.833-4.14-14-4 16.825,1.51 34.117,11.214 46,21z"/>
 <path d="m251.394,188.366c1.316,2.521 3.283-2.623 6-2-4.473,6.064-12.068,3.708-18,9 6.669,1.984 12.239-5.748 21-5-2.535.849-6.938,4.998-9,3-4.244,7.609-20.497,11.365-27,20-1.781-.732-.145-1.818 0-3-3.035,1.966-6.025,3.976-9,6-2.615-1.053-3.271-4.062-3-8-1.759.24-2.28,1.721-2,4-2.847-1.354-2.788-5.604-2-8 19.67-12.664 45.077-19.59 66-31-1.662,7.015-16.361,9.634-23,15zm-10,11c2.464-.594 7.76-3.497 6-5-.99,2.677-6.092,1.24-6,5zm-27,7c8.458-.553 17.352-5.969 19-10-5.733,3.933-13.042,6.291-19,10z"/>
 <path d="m393.394,25.367c-3.807.782-9.432-5.217-15-6 3.901-.877 11.65,2.996 15,6z" fill="#fff"/>
 <path d="m301.4 15.367c11.059-1.382 29.233 4.087 35.999 7-12.397-1.938-22.92-5.747-35.999-7z" fill="#fff"/>
 <path d="m257.395,22.367c3.004,2.662 10.174,1.159 13,4-5.562.546-14.867-3.789-24-3-3.235-1.152 2.685-1.132 4-1-.31-1.357-2.504-.83-4-1 7.536-2.769 25.185,1.407 35,3-6.377,1.691-15.92-2.07-24-2z" fill="#fff"/>
 <path d="m289.4 18.367c3.803 3.196 11.006 2.993 15 6-9.795-0.879-22.231-7.764-37-7 12.506-2.632 28.377 2.124 42.999 4-6.259 2.238-14.605-2.049-20.999-3z" fill="#fff"/>
 <path d="m403.39 23.367c-5.962 1.61-12.017-5.304-19-6 2.57-2.034 13.501 4.347 19 6z"/>
 <path d="m373.394,64.367c-6.016-17.625-14.6-18.846-27-26 5.421-1.401 11.882,4.771 17,7-4.012-7.328-20.226-11.104-32-14 6.201-3.17 14.433,5.536 20,3 1.136.19.556,1.003 0,1 13.601.944 36.916,14.041 22,29zm-17-26c2.866.516 6.697,5.235 9,3-2.868-.516-6.699-5.236-9-3z"/>
 <path d="m383.394,45.367c-.162-1.163.221-1.779 1-2-1.711-1.287-5.073-.469-4-3-1.794-.127-2.109,1.224-4,1 .462-4.831-8.229-5.483-14-7 16.619-.921 33.433,11.859 32,29-5.803-10.198-13.4-18.599-25-23 4.036-1.674 9.31,3.999 14,5z"/>
 <path d="m298.4 36.367c2.836-3.093 6.197 1.744 9.999 1-2.361 2.616-6.312-1.632-9.999-1z"/>
 <path d="m317.394,37.367c8.02-.945 22.396,8.883 33,12-5.759-5.242-14.472-7.529-22-11-1.786.281-2.053-.945-1-1 12.1,3.568 24.045,7.289 32,15h4c.993,3.672 3.685,5.649 4,10-2.147,1.518-2.987,4.345-7,4 5.073-2.562.006-6.338-1-11-4.201,2.23 3.825,8.003-1,12-2.993-9.007-9.079-14.92-18-18 .657-2.995 2.138.956 4,0-1.401-2.473-3.444-1.765-6-1-.739-6.068-14.085-7.814-21-11z"/>
 <path d="m320.394,41.367c-.027-.973-1.225-.776-2-1-1.767-2.517 5.017.9 7,1-.24,1.759-1.721,2.279-4,2 .027-.973 1.225-.776 2-1-.228-1.274-2.984-1.311-3,0-1.136-.191-.556-1.004 0-1z"/>
 <path d="m324.394,44.367c3.174-4.833 9.039,2.246 14,2-2.815,2.749-6.236-2.38-10-2 6.941,8.059 21.021,8.979 22,23-4.092.909-5.874,4.126-10,5 2.328-4.423-2.447-6.558-3-11-1.297,1.736-.072,7.477-4,9-5.504-7.163-11.406-13.927-20-18 2.585-1.54 6.764,3.869 10,5 1.761-1.504-3.536-4.407-6-5 3.339-.313 11.829,2.818 15,6 3.951-.319-.74-3.095 2-4-3.438-2.563-7.441-4.558-12-6 3.14-2.094 7.199,3.433 12,3-6.016-4.985-16.584-5.417-22-11 5.035,2.631 11.161,4.171 16,7-1.406-1.709 1.102-5.179-4-3z"/>
 <path d="m324.39 52.367c-4.462-0.222-11.516-6.472-17.999-8 1.975-1.119 14.224 4.299 17.999 8z"/>
 <path d="m337.39 37.367c2.071-1.854 12.222 4.952 18 6-5.348 1.327-11.808-4.846-18-6z"/>
 <path d="m324.394,74.367c-3.119-.547-1.533-5.8-3-8-2.688-.689-1.934,2.067-3,3-2.211-.789-2.503-3.498-4-5-10.167,3.061-18.337-12.009-29.999-14 5.438-.757 13.291,4.695 20,6 1.969-1.076-2.974-3.616-5-4 3.728-2.075 7.702,5.06 10.999,4-8.325-7.009-20.346-10.322-30.999-15 5.703-1.266 17.021,8.901 27.999,9 5.96,7.105 19.843,11.401 17,24z"/>
 <path d="m301.395,66.367c-5.68-5.322-12.379-9.622-20-13 7.836-.161 17.076,6.915 24,11-3.465,6.448 2.659,11.107 3.999,16-8.329-13.004-21.301-21.367-35.999-28 9.71.294 18.469,10.19 28,14z"/>
 <path d="m312.39 68.367c1.045-1.621 5.062 2.204 4 6-2.244-1.092-1.758-4.909-4-6z"/>
 <path d="m444.394,72.367c-1.904,7.762-.452,18.88-2,27 .877-2.835-5.062-25.274 2-27z"/>
 <path d="m434.394,83.367c-.427-1.952-2.856,1.635-2-3-8.315,9.854-5.808,25.104-6,42-3.46-8.332-.377-19.529-4-27-4.336-.668-2.691,4.641-3,8-2.556-3.84 1.449-16.727-4-21-4.093-1.092.136,6.135-5,4 .217,18.31 2.713,35.5 1,48 .05-16.521-5.502-35.354-4-47-.314-2.352-4.739-.594-4-4 10.466-4.129 21.153-4.817 33-9 5.56,6.789 2.07,19.517 1,30-4.335-4.59.804-15.44-1-24-1.068,8.252-3.04,19.85-1,28v16c-2.305-2.695-.354-9.646-1-14-2.653-8.572.775-17.239 0-27zm-8-3c-3.045-.044-3.889,2.111-6,3 .06,6.607.931,12.402 5,15 1.931-6.458 1.654-10.346 1-18z"/>
 <path d="m419.394,105.367c-.79,5.188-.846,15.397 0,24-5.75-5.917 2.831-26.165-7-28-.501-5.167 4.684-4.65 4-10 2.969,3.784-1.94,15.035 3,14z"/>
 <path d="m385.394,107.367c1.428-3.177 1.428,4.883 0,5 2.607,9.059 2.59,20.743 3,32 .826,2.37-1.409,4.604-1,1 0-1.667-.001-3.334 0-5-2.163-6.837-.003-17.998-2-25-1.325-.464-2.648-.476-2-5 2.185,2.155 2.146-.256 2-3z"/>
 <path d="m366.39 115.37c1.136 11.812 2.143 30.331 2 43-1.539-6.998-3.133-28.602-2-43z"/>
 <path d="m304.395,144.366c.049-7.283-.641-15.307 2-20 .203-1.891-.676-9.88.999-7 1.214,10.879-3.214,16.119-1.999,27-1.019,1.873-5.235.11-1,0z"/>
 <path d="m177.39 142.37c-0.136-5.196-1.047-9.621-4-12 22.194 5.474 45.206 18.793 68 27-21.436-0.899-39.673-13.658-64-15z" fill="#fff"/>
 <path d="m65.394,134.366c2.896.561-1.534,1.561-1,3 24.81-2.396 52.288.273 80-2-21.02,6.592-56.715,5.15-81,4-2.3-.789 1.72-3.498 2-5z" fill="#fff"/>
 <path d="m322.39 136.37c1.929-1.691 2.68 17.185 1 11-0.444-1.633-0.259-6.12-1-11z"/>
 <path d="m59.394,149.366c6.799-5.829 18.507-2.522 29-3 10.554-.479 20.773-.583 32-1-7.801,8.496-38.991,1.878-61,4z" fill="#fff"/>
 <path d="m384.39 164.37c-2.638 1.695-5.705 2.961-10 3 2.835-1.498 6.198-2.469 10-3z" fill="#fff"/>
 <path d="m483.394,167.366c-27.385-1.491-61.893,3.915-96,2 11.312-3.883 25.348-2.09 40-3 17.12-1.063 39.335-3.094 61-2-17.46,13.874-55.533,7.133-85,9 22.39,2.566 47.601,2.259 70,0-3.517,4.234-10.183,4.826-16,5-21.653.646-50.168-1.49-74,0 26.803,2.562 53.215-.797 78,0-16.021,7.707-57.321,1.355-79,5 22.786,2.178 42.474-1.174 65,1-14.556,5.969-43.896,1.718-65,4 17.101,1.875 33.146-.021 52,1-13.267,5.4-35.812,1.521-52,4 11.498,1.158 28.552-.776 43,0-11.247,4.419-28.339,2.994-43,4 8.759,3.076 18.737-1.252 29,0-6.682,6.68-34.524-3.024-29,15-4.423-4.919 4.229-31.557-5-35 3.054-1.85 14.556-2.367 23-2-8.732-3.611-21.983,1.859-30-1 4.119-1.881 11.439-.561 14-4 33.385,2.692 63.841-1.176 99-3z" fill="#fff"/>
 <path d="m279.4 182.37v-9c9.282 3.384 17.428 7.904 27 11-3.015 2.113-4.736-0.28-9 1-3.235-1.15 2.685-1.133 4-1-6.743-1.151-17.763-7.565-22-2z" fill="#fff"/>
 <path d="m247.39 194.37c1.76 1.503-3.536 4.406-6 5-0.092-3.76 5.01-2.323 6-5z" fill="#fff"/>
 <path d="m286.395,188.366c-.433,2.234-4.93.404-7,1 13.543,1.969 23.082,2.459 37.999,2-1.387-2.279-6.961-.373-10-1 7.803-4.908 14.46,1.837 22,3-17.854,1.099-41.044-.098-58.999,1 21.188,3.812 52.936-2.938 70.999,4-25.002,2.332-54.333.334-80.999,1 8.887-3.489 16.276-14.428 26-11z" fill="#fff"/>
 <path d="m233.39 196.37c-1.648 4.031-10.542 9.447-19 10 5.958-3.709 13.267-6.067 19-10z" fill="#fff"/>
 <path d="m351.394,202.366c-33.961,3.449-65.978.619-101,1 36.627,4.584 72.851-1.541 110,3-28.979,4.021-64.882,1.117-96.999,2 16.002,2.331 36.33.335 53.999,1-12.007,2.642-46.462,3.843-65,3-10.454-.477-20.776-2.734-19,8-.197-3.862-.036-7.369 1-10 5.718-3.281 16.386-1.613 25-2-3.688-2.312-11.652-.35-17-1 3.65-3.018 9.087-4.246 13-7 31.463,1.201 67.819-2.487 96,2z" fill="#fff"/>
 <path d="m307.394,84.367c-5.675.771-9.118-7.805-12.999-12-9.394,1.272-11.834-9.666-19-13-5.684-2.644-14.459-2.987-21-5-7.121-2.191-13.292-4.607-21-5 32.068.264 64.565,8.765 73.999,35z"/>
 <path d="m54.394,101.367c1.762,10.64 14.81,29.007 24,14 1.821,10.276 20.726,15.375 21,3 8.674,15.243 23.581-2.431 20-15 2.304,2.695.355,9.645 1,14 8.224.366 17.514-2.011 24,0-10.43,5.437-24.537,3.348-33,12 17.177,2.616 33.324-1.825 50-1 2.391.608 7.255-1.257 8,1h-9c-27.148,1.854-54.488,3.513-84,3 .724-3.427 5.02-1.117 10-2-4.76-1.239-7.795-4.205-11-7-3.64,1.026-6.186,3.147-10,4-9.98-2.354-11.095-13.573-11-26zm39,29.999c2.673-2.605 8.817-.199 12,0-1.326-6.585-12.769-4.306-12,0z"/>
 <path d="m328.394,105.367c3.146-.479 3.908,1.424 6,2-.912,6.686-.6,15.761-1,28-.124,3.771-.247,14.194-1,5v-10c-1.658-4.532.37-7.236-1-11-2.97-4.491-3.362-9.895-3-14z"/>
 <path d="m342.394,127.366c-4.004,4.55-1.454-12.39-1-16-.936.732-1.516,1.817-2,3-2.561-2.626-.744-9.362 4-8 2.782,12.377-1.333,27.434 0,38-4.14-1.887-1.665-13.363-1-17z"/>
 <path d="m319.39 112.37c4.388 2.133 1.287 12.985 1 17-2.421-3.19-2.908-12.714-1-17z"/>
 <path d="m483.394,128.366c-1.156,3.844-8.762,1.238-13,2 6.672,2.328 18.557-.557 23,4-11.906.021-27.446.781-42,1 1.827-2.883 1.622-3.129 1-7 11.252.123 22.42-3.031 31,0z" fill="#fff"/>
</svg>
