<?xml version="1.0" encoding="UTF-8"?>
<svg viewBox="0 0 588.94763 505.87698" xmlns="http://www.w3.org/2000/svg">
 <path d="m55.164 505.36c2.4e-4 -0.38418 0.7531-2.6788 1.673-5.0992s1.3284-4.4007 0.90766-4.4007-1.1403-1.0373-1.5991-2.3051l-0.83415-2.3051-1.0959 2.7242c-1.1466 2.8503-2.4048 3.6177-2.4048 1.4669 0-1.8818-1.4135-1.5152-1.9414 0.50345-0.58531 2.2382-2.3459 1.2556-2.1412-1.1951 0.08372-1.0027 0.09355-2.7226 0.02185-3.8221l-0.13036-1.9991-1.7373 2.2086c-0.95551 1.2147-2.38 2.2086-3.1655 2.2086-1.1607 0-1.3683-0.62797-1.1084-3.3529 0.19853-2.0818-0.0314-3.3529-0.60652-3.3529-0.50945 0-0.96344 1.2259-1.0089 2.7242-0.19937 6.5756-0.30304 6.9106-2.2225 7.1832-1.5551 0.22086-1.886-0.12802-1.886-1.9886 0-1.8764-0.20479-2.0866-1.2157-1.2475-1.0058 0.83469-1.366 0.52666-2.0859-1.7834-0.86648-2.7804-0.86813-2.778-0.38702 0.56057 0.26574 1.8441 0.54431 3.683 0.61903 4.0864s-0.31402 0.89912-0.86385 1.1016c-0.93079 0.34279-1.49-1.5517-2.1263-7.2032-0.1939-1.7222 0.34677-2.2097 3.7187-3.3529 5.4543-1.8492 5.8376-2.394 4.9662-7.0583-0.40589-2.1726-0.46077-4.1215-0.12197-4.3309 0.99943-0.61768 1.6873 0.53851 1.6995 2.8568 0.0144 2.7249 0.85506 5.9378 1.5532 5.9363 0.292-6.3e-4 1.1958-2.2638 2.0085-5.0294s1.85-5.0282 2.3051-5.0282c1.0943 0 1.0382 0.58244-0.47474 4.9268-0.70284 2.0182-1.1464 3.8009-0.98578 3.9615 0.30154 0.30154 5.4688-2.2721 8.7739-4.3699l1.8756-1.1905-3.0025-4.1792c-1.6514-2.2986-3.3679-3.9534-3.8144-3.6774-0.98409 0.6082-4.0592-2.0241-4.0592-3.4746 0-0.57076-0.52656-1.2398-1.1701-1.4868-1.8482-0.70921-4.101-8.7595-4.1346-14.774-0.03535-6.34 0.89428-12.014 1.8697-11.411 1.1127 0.6877 2.7689-6.1849 3.4218-14.199 0.33801-4.1492 1.2137-9.0528 1.9459-10.897 1.1089-2.7926 2.9038-9.678 4.3184-16.566 0.17009-0.82821-0.40019-1.8545-1.2973-2.3346-1.7887-0.95728-2.1766-3.2984-0.55306-3.3379 0.5815-0.01415 0.39497-0.40571-0.41911-0.87988s-1.4669-1.454-1.4669-2.1868c0-1.1013 0.70715-1.2487 4.0766-0.84964 4.3309 0.51294 5.9822-0.29434 5.9822-2.9245 0-0.82594 0.76867-1.9764 1.7082-2.5566 1.8421-1.1376 4.5462-8.9028 4.2977-12.342-0.18802-2.6021 1.4146-7.5734 2.4414-7.5734 0.42527 0 0.77322-2.9931 0.77322-6.6512s0.36786-7.6188 0.81747-8.8014c0.73772-1.9403 0.61986-2.1501-1.2079-2.1501-1.114 0-2.294-0.43464-2.6223-0.96589-0.43308-0.70073 0.35214-0.81412 2.8604-0.41303 2.8742 0.4596 3.3755 0.33976 2.9725-0.71058-0.34713-0.90459-1.7395-1.2634-4.9028-1.2634-2.8888 0-4.7762-0.43174-5.4532-1.2474-1.1737-1.4142-0.76932-1.652 4.1829-2.4593 1.6136-0.26304 4.3626-0.71984 6.109-1.0151s3.4887-1.1454 3.8718-1.8891c0.85077-1.6515-2.8369-20.485-4.093-20.904-0.47791-0.1593-0.6642-0.62086-0.414-1.0257s-0.28182-1.4728-1.1823-2.3732-1.4171-1.8572-1.1482-2.1262 0.11176-0.48896-0.34926-0.48896-0.8457-0.47151-0.85485-1.0478-0.88612-2.8782-1.9488-5.1153c-1.8849-3.9678-2.006-4.0547-4.9429-3.5452-4.1819 0.72548-4.9046 0.76945-10.186 0.61981-4.0209-0.11392-5.053-0.506-7.5184-2.8563-2.6544-2.5304-2.7552-2.5624-1.4165-0.44861 1.7183 2.7131 1.7753 3.1726 0.39346 3.1735-0.65415 4.3e-4 -1.1439 1.4884-1.3036 3.9607-0.1407 2.178-0.7065 4.2465-1.2573 4.5968-0.72973 0.46392-0.73849 0.6402-0.03223 0.64955 0.53312 0.00706 0.83681 0.67294 0.67487 1.4797s-0.52289 2.8919-0.80211 4.6336c-0.34554 2.1553-0.82876 2.974-1.5131 2.5633-0.6742-0.40456-0.64684-0.16068 0.08305 0.7403s0.80047 1.5216 0.20956 1.8868c-0.52915 0.32704-0.87588 4.2763-0.87128 9.9238 0.00808 9.9189 2.1764 20.905 5.7898 29.334 4.3693 10.193 4.7454 14.441 2.8796 32.53-0.48201 4.6733-0.46786 4.7107 2.1247 5.6144 2.7732 0.96675 3.0533 1.5125 1.7966 3.5002-0.63617 1.0062-1.2594 1.0677-3.2405 0.31997-2.3706-0.89482-2.4839-0.82201-3.3816 2.1743-1.1841 3.9522-9.7645 21.478-10.841 22.143-0.44697 0.27624-1.051 1.7323-1.3423 3.2358-0.62149 3.2076-5.1264 10.697-6.4344 10.697-0.57678 0-0.69798-0.98469-0.33529-2.7242 0.63601-3.0504 2.5832-6.4962 3.6709-6.4962 0.39277 0 0.71413-0.98461 0.71413-2.188 0-2.1701-0.02702-2.161-3.3011 1.1131-1.8156 1.8156-3.4089 3.8375-3.5406 4.4932s-0.48625 1.7578-0.78781 2.4493-0.66662 4.8408-0.81124 9.2205-0.87799 10.981-1.6297 14.669-1.481 8.3832-1.6205 10.433c-0.23573 3.4633-0.10515 3.7346 1.8419 3.8268 5.1153 0.24229 5.9758 0.57287 8.7734 3.3705 2.0448 2.0448 2.9617 3.7235 2.9617 5.4222 0 1.9561 0.28754 2.3501 1.4029 1.9221 1.0816-0.41506 1.2736-0.20138 0.83823 0.93309-0.31055 0.80928-0.56463 1.6292-0.56463 1.822s-0.56234 0.35056-1.2496 0.35056-2.0548-1.2259-3.0388-2.7242-3.1475-3.7807-4.8076-5.072c-2.6498-2.061-3.1345-2.189-3.9689-1.0478-1.3326 1.8225-1.5481 1.7218-4.6227-2.1602-2.3302-2.9422-2.5562-3.6009-1.5094-4.4007 1.326-1.0131 3.1196-11.022 3.8486-21.477 0.40659-5.8309 0.34269-6.1652-0.88134-4.6102-1.2896 1.6382-1.3203 1.625-1.3464-0.5792-0.01466-1.2406 0.41503-2.5286 0.95487-2.8623 0.65039-0.40196 0.36758-0.83375-0.83823-1.2798-1.0148-0.37538-1.8198-1.3958-1.8198-2.3068 0-2.1227-1.812-2.7091-3.1167-1.0087-1.3979 1.822-1.3237 0.15265 0.1829-4.1176 0.69154-1.96 1.2548-4.7422 1.2518-6.1825-0.00692-3.2797-2.394-6.81-4.6047-6.81-1.5418 0-1.6797-0.57235-1.717-7.1249-0.02233-3.9187-0.54173-9.7653-1.1542-12.993-1.4431-7.6036-0.70534-21.466 1.5711-29.52 1.8413-6.5143 5.3003-13.492 9.6752-19.516 5.0968-7.0188 6.9954-14.191 7.4725-28.226 0.23231-6.8352 0.08855-19.972-0.31947-29.192s-0.97636-26.006-1.263-37.301-0.72106-24.309-0.96545-28.919c-0.65811-12.415 1.2766-34.341 5.5842-63.286 1.7551-11.794 9.8237-32.002 16.567-41.492 9.7045-13.659 19.712-19.521 46.277-27.11 13.966-3.9899 19.031-4.9873 30.62-6.0306 5.9794-0.53828 11.077-1.1032 11.329-1.2555 1.0899-0.66024 24.813-1.6288 35.028-1.43 12.373 0.24071 19.814 1.3443 37.86 5.6145 35.744 8.4583 34.578 8.2665 46.5 7.6519 23.251-1.1985 40.548-4.1203 50.738-8.5703 2.7035-1.1806 2.9532-1.5955 3.1254-5.1939 0.84166-17.587 1.3029-20.85 4.0224-28.461 4.1988-11.75 13.898-16.502 35.609-17.447 10.705-0.46616 12.975-0.31873 19.173 1.2454 3.8668 0.97578 7.6388 1.7778 8.3823 1.7823 2.2188 0.01344 9.5792 3.7979 11.83 6.0823 1.1526 1.17 3.4107 3.4974 5.0181 5.172 3.0018 3.1273 12.37 8.0699 18.137 9.5689 7.1287 1.8529 12.584 2.7944 14.571 2.5144 1.9343-0.27265 1.8092-0.45987-1.6823-2.5173-3.9697-2.3392-13.686-11.947-16.402-16.218-0.87924-1.3831-2.0637-3.0018-2.6321-3.5972-1.7434-1.8261-4.6529-12.83-5.0847-19.231-0.49614-7.3551 1.9893-16.157 6.075-21.514 4.4294-5.8074 5.0508-4.9412 5.0508 7.041 0 9.5317 0.19623 10.894 2.1731 15.088 4.501 9.5488 18.233 19.974 28.81 21.871 2.7836 0.49939 6.425 1.252 8.092 1.6726s4.4961 0.75871 6.2867 0.75154c3.073-0.0123 3.3721-0.25013 5.3307-4.2395 1.6198-3.2992 2.4225-4.1356 3.659-3.8122 0.87115 0.22781 3.5737-0.46579 6.0057-1.5413s5.6891-2.2361 7.238-2.579c4.7409-1.0496 22.663-0.95452 26.983 0.1432 3.2982 0.83809 5.0865 0.80918 9.6396-0.15583 6.4419-1.3653 13.899-1.5559 17.41-0.445 1.3366 0.42291 3.4542 0.99256 4.7058 1.2659 2.6581 0.58051 6.3043 3.9792 7.4215 6.9178 0.59213 1.5574 1.189 1.9277 2.4578 1.525 1.0286-0.32646 1.6758-0.15029 1.6758 0.45612 0 2.0114 11.42-1.4818 21.61-6.6104 10.112-5.0889 16.281-13.359 16.332-21.894 0.02585-4.3585-2.3104-12.898-3.9874-14.575-1.6736-1.6736-1.9575-4.3757-0.42534-4.049 9.8472 2.0998 15.875 13.246 14.798 27.364-0.64804 8.4944-2.2793 13.095-6.6589 18.78-8.5664 11.119-20.678 17.588-38.629 20.63l-3.2477 0.55047 1.9904 1.4093c1.2899 0.91335 3.7603 1.4362 7.0197 1.4857 4.469 0.06789 5.7766 0.52983 11.735 4.1457 16.886 10.247 26.721 26.145 25.127 40.616-1.7213 15.63-5.5024 23.409-11.404 23.458-2.6444 0.02238-3.4356-0.85828-6.9168-7.6993-2.5597-5.0302-3.0294-5.4584-10.446-9.5228-9.5685-5.2434-12.492-8.0618-13.839-13.342-0.62879-2.4648-1.7695-4.5351-2.9197-5.2988l-1.8877-1.2534 0.57372 13.867c0.5487 13.263 0.49195 14.036-1.302 17.742-1.38 2.8508-1.8287 5.145-1.6978 8.6818 0.09787 2.6439 0.22858 8.6344 0.29047 13.312 0.12875 9.7317-0.52309 11.059-6.8118 13.873-1.9643 0.87888-4.1516 2.4834-4.8607 3.5656s-2.3469 2.4057-3.6396 2.9412c-2.3002 0.95275-2.362 1.1561-2.8927 9.5148-1.0026 15.792-4.7954 25.242-14.194 35.365-6.0989 6.5691-8.5596 13.32-11.916 32.691-3.0244 17.453-4.9625 25.049-7.9278 31.072-1.4018 2.8475-2.5487 5.5752-2.5487 6.0615s-2.9233 2.8303-6.4963 5.2087c-6.7747 4.5098-9.4577 8.3068-9.6162 13.609-0.03792 1.2678-0.34297 2.3051-0.67791 2.3051s-1.0946 1.1723-1.6881 2.6052c-1.0886 2.628-7.8416 8.5912-10.788 9.5265-0.87587 0.27799-3.7711 3.4144-6.4339 6.9698s-5.1495 6.5901-5.526 6.7438-0.68462 0.77811-0.68462 1.3876c0 0.6328-3.1464 2.2431-7.3345 3.7537-4.034 1.455-8.0889 3.1173-9.0109 3.6939-4.1272 2.5809-11.864 4.6238-16.9 4.4624-2.8407-0.09099-5.4349 0.10275-5.765 0.43051s-1.1227 5.3636-1.7614 11.191c-1.073 9.7894-4.2532 23.611-6.3218 27.477-0.47971 0.89633-1.1968 4.2146-1.5935 7.374s-1.3119 6.8864-2.0338 8.2824c-2.7778 5.3716-1.7848 28.573 1.711 39.979 1.2251 3.9973 11.675 20.98 15.363 24.968 0.85281 0.92205 2.7065 3.3739 4.1193 5.4485s3.6383 5.0308 4.9455 6.5693l2.3767 2.7972 2.1435-1.6861c1.1789-0.92735 3.225-3.2466 4.5467-5.154 2.2573-3.2573 2.3368-3.6516 1.3092-6.4933-0.97942-2.7086-0.93443-3.1422 0.42959-4.1396 1.7634-1.2894 3.419-1.4376 4.0817-0.36527 0.25453 0.41185-0.57191 1.0095-1.8365 1.328l-2.2993 0.57924 1.9443 1.5777 1.9443 1.5777-2.9921 7.5664c-4.5167 11.422-3.9032 13.926 1.754 7.1585 1.7342-2.0746 3.6389-3.772 4.2328-3.772 1.294 0 1.4173 2.8326 0.22062 5.0686-0.81697 1.5265-0.71463 1.5202 2.0816-0.12963 4.0678-2.4 5.2647-1.6446 2.3035 1.4539-1.3559 1.4188-2.7039 3.107-2.9956 3.7514-0.40687 0.89903-0.64409 0.92788-1.0192 0.12396-0.26894-0.57628-1.5577-1.0478-2.864-1.0478s-2.531-0.46814-2.7217-1.0403c-0.24933-0.74801-0.75681-0.63026-1.8062 0.41911-3.73 3.73-5.1303-0.55796-2.5684-7.8652l1.2859-3.6678-3.1616 3.1471c-2.7776 2.7648-3.0356 3.3489-2.1241 4.8084 1.4339 2.2961 1.3507 2.4565-1.2676 2.4426-4.5245-0.02394-7.3882 0.72103-11.106 2.8893-3.8004 2.2161-6.7058 2.8541-6.7058 1.4724 0-0.41105 0.95843-0.98791 2.1298-1.2819 3.7568-0.9429 1.2959-2.1619-4.3646-2.1619-4.5344 0-5.4048 0.21859-5.0062 1.2573 0.29672 0.77325-0.0016 1.2573-0.77486 1.2573-0.69153 0-1.469-0.55145-1.7276-1.2254-0.98327-2.5624-3.5849-2.1579-11.541 1.7942-6.1828 3.0713-8.2528 3.7585-9.0177 2.9936s-0.62388-1.1109 0.61428-1.5076c7.2943-2.3365 17.142-7.2574 17.087-8.5388-0.03108-0.73-6.0044-3.6901-6.4822-3.2123-0.17187 0.17188 0.15705 1.0644 0.73094 1.9833 1.6341 2.6166-0.45155 3.955-6.0263 3.8673-2.5739-0.04048-5.0632-0.31052-5.5317-0.60008s-1.6606 0.40367-2.6491 1.5405c-2.1716 2.4976-2.7861 2.5519-4.718 0.41712-1.3444-1.4856-1.668-1.5273-3.2502-0.41911-0.96641 0.6769-2.4716 1.2307-3.3448 1.2307-1.2567 0-1.4688-0.39315-1.0172-1.886 1.0239-3.3846 0.9051-4.3318-0.58163-4.639-1.0432-0.2156-1.3186 0.07634-0.95811 1.0157 0.31317 0.81614 0.05403 1.3182-0.68037 1.3182-0.65242 0-2.2959 1.4999-3.6521 3.3331s-2.9374 3.342-3.5137 3.3529c-1.6858 0.03188-1.2056-1.0067 2.2717-4.9141l3.2719-3.6765-1.6192-4.1081c-0.8906-2.2594-1.6193-4.2241-1.6193-4.3658s-0.94255-1.3537-2.0946-2.6932-2.095-2.7895-2.0956-3.2222-0.77012 0.0388-1.7101 1.0478-2.0325 1.8345-2.4278 1.8345c-0.78313 0-5.8793-5.5518-5.9899-6.5254-0.03746-0.32973-0.19291-1.7311-0.34546-3.1142-0.41622-3.7737 1.2286-21.875 2.5517-28.081 1.8223-8.5474 2.8867-19.685 2.884-30.176-0.00282-10.899-0.92964-17.782-3.2169-23.889-4.6887-12.52-5.592-19.302-3.8723-29.075 1.2947-7.3566 1.6256-18.898 0.58725-20.482-1.0509-1.6036-10.88-6.1652-16.247-7.5402-7.2513-1.8577-16.672-0.7158-34.243 4.1506-2.5356 0.70226-8.5709 1.5157-13.412 1.8076-14.844 0.8952-21.086 3.0693-28.118 9.7931-3.6571 3.4968-5.5156 6.0739-6.681 9.2643-0.88801 2.4309-1.5081 4.7727-1.378 5.204s0.03085 1.6039-0.2206 2.6058c-0.8891 3.5424-15.721 4.9937-21.86 2.1388-1.8441-0.85763-6.5591-4.6667-10.478-8.4645s-9.0109-8.1291-11.316-9.625c-4.977-3.2298-14.234-7.9758-15.557-7.9758-1.0658 0-19.711-7.1452-21.972-8.4202-2.0727-1.1687-8.4673-1.9522-10.916-1.3375-1.5483 0.38861-2.299 1.4285-3.1022 4.2969-0.58274 2.0813-1.2934 3.7857-1.5793 3.7874s-1.2135 1.7934-2.0614 3.9816c-2.3732 6.1242-2.6984 6.8907-5.7853 13.635-1.5868 3.467-3.4242 6.8618-4.0831 7.544-6.9615 7.2089-11.944 17.232-15.355 30.886-3.1185 12.485-3.8346 18.976-3.7748 34.22 0.07805 19.912 2.4284 33.615 7.2101 42.036 4.7207 8.3138 8.9971 14.876 10.794 16.564l1.8748 1.7609 4.182-3.189c2.3001-1.754 4.3932-2.9778 4.6513-2.7198s-1.0167 2.3491-2.8329 4.6467-3.3021 4.6183-3.3021 5.157c0 1.394 6.6812 11.443 7.608 11.443 0.42399 0 2.3748-1.5243 4.3351-3.3874 3.3606-3.194 11.656-9.186 12.717-9.186 1.107 0 0.35271 2.0127-1.6434 4.3849-2.4828 2.9507-2.2818 3.6056 0.69091 2.2512 2.9054-1.3238 5.812 1.1702 4.7216 4.0513-0.39261 1.0373-1.166 1.886-1.7188 1.886s-0.76958 0.23536-0.48191 0.52303 1.8014-0.23125 3.3639-1.1531c3.2887-1.9404 5.723-1.2291 5.0181 1.4664-0.46331 1.7717-2.3019 2.2564-3.1786 0.83794-0.34723-0.56185-1.0401-0.56185-2.0899 0-2.3655 1.266-5.3005 1.0686-4.7674-0.32062 0.78542-2.0468-1.6539-4.5292-4.0083-4.0791-2.3096 0.4415-2.689-0.52289-1.2577-3.1971 1.4871-2.7787-0.37453-1.7958-5.3251 2.8115-3.02 2.8106-4.7631 5.1112-4.7631 6.2867 0 2.6032-2.1873 2.327-3.5727-0.45123-1.2414-2.4895-1.1771-2.481-5.9204-0.77868-4.2257 1.5166-7.2632 0.92784-7.2981-1.4146-0.02571-1.7245-0.06911-1.7322-1.2171-0.21626-1.4826 1.9579-3.7856 1.2184-3.7856-1.2155 0-0.98544 1.1641-3.3548 2.587-5.2652 1.5788-2.1199 0.43151-1.1977-2.9441 2.3665-3.0421 3.212-5.9957 6.8897-6.5636 8.1727-1.0638 2.4033-1.8617 2.8815-2.658 1.593-0.61665-0.99778 1.975-4.3396 9.0832-11.712 4.7522-4.9289 5.4097-5.8971 3.2792-4.829-1.4656 0.73481-2.895 2.0611-3.1762 2.9472s-1.8084 2.6005-3.3936 3.8096-3.8695 3.883-5.0762 5.942c-2.5726 4.3897-3.1999 4.6759-2.694 1.2289 0.25185-1.716 0.01585-2.5147-0.74309-2.5147-0.61169 0-1.1122 0.3772-1.1122 0.83822s-0.5658 0.83823-1.2573 0.83823-1.2573-0.5658-1.2573-1.2573-0.3772-1.2573-0.83822-1.2573-0.83823 0.7544-0.83823 1.6764c0 1.3178-0.55882 1.6765-2.6124 1.6765-2.2916 0-2.5538-0.2316-2.1356-1.886 1.447-5.7241 1.5347-6.4963 0.7374-6.4963-0.81978 0-4.0799 4.7052-5.3722 7.7536-0.77385 1.8253-2.7223 1.9635-2.0239 0.14349 0.27932-0.72787 1.8721-3.3787 3.5394-5.8907l3.0316-4.5673-1.7034-3.9352c-0.93689-2.1644-2.0908-4.0643-2.5642-4.2221-1.131-0.37699-6.3802 6.8238-8.2692 11.344-1.395 3.3377-2.745 4.6626-2.745 2.694 0-1.4181 3.0985-7.073 6.666-12.166 2.6041-3.7175 3.1068-4.9705 2.3123-5.7635-1.4988-1.496-4.972-2.2066-6.1217-1.2524-0.68736 0.57045-1.4259 0.40882-2.3487-0.51407-1.3655-1.3655-1.8689-4.579-0.71747-4.5797 0.98487-6.6e-4 0.56431-33.134-0.52133-41.073-1.6972-12.411-2.7163-18.584-4.7862-28.995-1.6533-8.3151-1.9351-11.733-1.5699-19.04 0.39853-7.9732 0.25684-9.2748-1.3532-12.431l-1.7983-3.525-1.9414 5.3817c-3.9708 11.008-5.3859 14.431-6.5126 15.757-1.863 2.1917-4.365 9.6117-8.373 24.83-6.716 25.502-6.9423 37.267-0.94569 49.174 3.9185 7.781 6.5462 11.22 9.821 12.854 2.3961 1.1953 2.6633 1.1807 3.4775-0.19057 0.48505-0.81698 0.88912-1.8626 0.89796-2.3236s0.38603-0.83822 0.83823-0.83822c0.47524 0 0.70466 2.0622 0.54368 4.8872-0.21304 3.7385 0.06228 5.2637 1.1714 6.4892 1.4089 1.5568 1.5325 1.484 4.3789-2.5821 1.611-2.3013 3.4414-4.1841 4.0676-4.1841 1.5324 0 1.4498 1.3777-0.11884 1.9796-0.69154 0.26536-1.2573 0.94518-1.2573 1.5107s-0.98455 2.0559-2.1879 3.3119c-3.9888 4.1634-1.6665 4.0651 3.4301-0.14518 2.7578-2.2783 5.304-4.1423 5.658-4.1423 1.6498 0 0.28778 1.795-3.4363 4.5288-6.227 4.571-6.5813 5.1996-4.2996 7.6282 1.773 1.8873 1.8076 2.0942 0.43838 2.6196-0.96084 0.36871-1.7612 0.07998-2.2628-0.81635-1.0066-1.7987-2.265-1.7655-3.0364 0.08006-0.33718 0.8068-1.6748 3.4931-2.9725 5.9695-3.6311 6.9292-4.4564 4.3197-1.3854-4.3809 1.75-4.958 2.3311-7.7158 1.8188-8.6312-1.0472-1.8712-1.5194-0.9151-4.7371 9.5916-1.4993 4.8955-3.1544 9.0437-3.678 9.2182s-0.95182 3e-3 -0.95159-0.38119zm43.797-11.731c-0.57628-0.23253-1.5193-0.23253-2.0956 0s-0.10477 0.42279 1.0478 0.42279 1.6241-0.19026 1.0478-0.42279zm9.8492-5.6154c1.6136-0.7317 4.5417-1.7331 6.5069-2.2253 3.3621-0.84212 3.5124-1.0043 2.5444-2.7458-0.56581-1.018-1.0421-2.1475-1.0584-2.5101s-0.59551-1.0169-1.287-1.4541-0.91673-0.8006-0.50041-0.80766-0.14949-0.79896-1.2573-1.7598-2.0149-1.9981-2.0156-2.3051-0.89517-1.8122-1.9877-3.345c-1.2053-1.691-2.0859-4.2637-2.2396-6.5425-0.13926-2.0656-0.61873-4.2064-1.0655-4.7572-1.2229-1.5079-3.5074-11.174-3.5074-14.84 0-1.7976-0.57597-3.8013-1.3012-4.5265-1.1311-1.1311-1.2377-3.8854-0.81544-21.07 0.32799-13.349 0.85699-20.846 1.6289-23.087 1.0516-3.0525 1.0163-3.3861-0.44191-4.1664-0.8718-0.46657-1.6149-1.6838-1.6513-2.7048s-0.25643-1.385-0.48896-0.80874c-0.70958 1.7585-3.363 1.1701-4.8318-1.0715-1.5001-2.2895-1.0329-4.1396 0.86176-3.4126 0.98086 0.3764 0.96802-0.04018-0.07848-2.5448-1.1655-2.7893-1.1511-2.9552 0.20925-2.4172 5.847 2.3126 10.655 1.0316 11.548-3.0771 0.33194-1.526 0.9915-3.7175 1.4657-4.8701s0.89763-2.6267 0.94099-3.2758 1.2847-1.5921 2.7585-2.0956c2.4093-0.82297 8.6364-6.9582 8.6364-8.509 0-0.34179 0.91198-2.545 2.0266-4.8961s3.8043-8.4239 5.9771-13.495 4.8285-11.142 5.9017-13.491 2.1683-5.5027 2.4335-7.0082l0.48227-2.7374-3.2523 2.5759c-4.0374 3.1977-4.3374 3.5784-7.6926 9.7641-1.5004 2.7662-3.0591 5.3877-3.4639 5.8257-0.97049 1.0501-0.95439-1.1118 0.03154-4.2337 0.4221-1.3366 0.96005-3.8192 1.1954-5.5168 0.38272-2.7604 0.23515-3.0771-1.3962-2.997-1.0033 0.04925-2.4763 0.64086-3.2735 1.3147-1.2786 1.0807-1.5105 1.066-1.9673-0.12453-0.45991-1.1985-0.90779-1.1409-3.999 0.51457-1.9146 1.0253-3.6076 2.1495-3.7623 2.4981s-0.6589 0.40043-1.1206 0.11509-2.3193 0.14852-4.1281 0.96416c-3.2015 1.4437-4.7851 1.315-3.7825-0.30718 0.27231-0.44062 1.4991-1.0531 2.7263-1.3611s3.2163-1.5757 4.4204-2.8171 4.0612-3.7659 6.3492-5.61c7.706-6.211 10.393-8.9054 9.9729-10-0.45394-1.183 4.1701-5.5071 5.889-5.5071 0.58117 0 2.6476-1.6974 4.5921-3.772 2.3014-2.4554 3.0804-3.772 2.2319-3.772-1.7859 0-1.6595-0.48162 1.0016-3.8168 2.4689-3.0942 4.1114-3.6751 4.5488-1.6088 0.24101 1.1385 0.4798 1.1332 2.157-0.04754 1.0373-0.73028 1.886-2.0773 1.886-2.9934 0-0.94485 0.47857-1.5591 1.1059-1.4194 0.60824 0.13547 2.4-0.38214 3.9816-1.1502s4.4422-1.8096 6.3567-2.3144 4.3664-1.688 5.4485-2.6293l1.9674-1.7115-2.0956 0.50682c-1.9139 0.4629-1.9684 0.40423-0.62867-0.67677 0.80679-0.65098 1.4669-1.6048 1.4669-2.1196 0-1.898 4.0108-3.7257 9.3702-4.2698 0.31284-0.03177 1.2282-0.71785 2.0342-1.5246s2.373-1.541 3.4824-1.6316c2.2641-0.18486 4.5798-1.7878 3.9815-2.7559-0.21587-0.34928 0.35408-1.4959 1.2666-2.548s1.6591-2.2315 1.6591-2.6209c0-3.316 13.817-11.53 19.489-11.586 4.8166-0.04738 2.323 3.0266-10.42 12.845-4.0021 3.0837-8.13 7.0136-9.1733 8.7332-4.8538 8.0009-13.242 16.421-24.204 24.297-2.0746 1.4905-5.3326 4.5244-7.24 6.7421l-3.468 4.0321 3.8872-1.8965c10.739-5.2394 18.779-4.7776 52.504 3.0154 3.6882 0.85223 8.969 1.9964 11.735 2.5426s6.3496 1.2682 7.9632 1.6046c4.666 0.97253 24.786 1.0508 33.948 0.13203 4.6102-0.46231 10.408-1.0472 12.884-1.2998 6.7637-0.68997 19.018-3.5583 26.093-6.1073 5.9639-2.1488 7.074-2.2653 21.621-2.2695l15.334-0.00441 0.50497-2.0126c0.27773-1.1069 0.05834-3.2477-0.48755-4.7573s-0.76165-3.6646-0.47949-4.7888c0.40181-1.6009 0.13704-2.1423-1.2214-2.4976-2.2357-0.58466-3.1159-2.9169-1.8599-4.9281 0.54222-0.86824 1.1846-3.7416 1.4276-6.3852s1.9059-10.653 3.6954-17.799 3.4997-14.218 3.8006-15.717 0.92743-2.7242 1.3923-2.7242c1.1358 0 0.35375 4.3865-3.5294 19.796-2.6646 10.574-3.9305 19.759-3.337 24.211 0.06146 0.46102 0.85297-0.98834 1.7589-3.2208s2.5307-5.2501 3.6106-6.7058c2.2449-3.0263 3.8714-7.3984 3.8714-10.407 0-1.7622 0.29446-1.9874 2.0291-1.5521 2.2017 0.55259 2.2913 0.34726 3.4357-7.8716 0.71552-5.1387 1.2146-6.7058 2.1357-6.7058 0.42995 0 0.78174 0.96789 0.78174 2.1509 0 3.1103-3.1426 16.517-5.5868 23.834-2.4935 7.4646-4.6834 15.994-4.2244 16.453 0.40086 0.40087 5.3632-13.051 9.007-24.416 1.5152-4.7261 2.8732-11.033 3.1134-14.459 0.32205-4.5948 0.72652-6.0771 1.6581-6.0771 2.6857 0 0.39722 11.205-6.5057 31.853-3.622 10.834-6.8208 21.022-7.1085 22.641-0.48501 2.7284 0.80462 8.2747 1.7129 7.3665 0.22073-0.22073 1.8836-4.5166 3.6954-9.5463 5.8651-16.283 7.9905-21.278 9.0584-21.289 0.57629-0.00589 1.0478 0.1335 1.0478 0.30974s-1.8411 4.899-4.0912 10.495-4.9663 13.203-6.0358 16.904c-1.7021 5.8907-1.8091 7.0643-0.85782 9.4128 2.0254 5.0003 2.7234 10.196 2.8942 21.543 0.16434 10.915 0.26611 11.507 2.8732 16.704 2.3221 4.6286 2.7058 6.2816 2.7244 11.735 0.01577 4.6249 0.59384 7.9402 2.13 12.215 2.6782 7.4536 5.1214 17.84 5.7181 24.309 0.25516 2.7662 0.51825 14.837 0.58463 26.823 0.09333 16.852-0.18628 23.482-1.233 29.238-2.1624 11.891-1.7224 13.93 3.005 13.93 1.5274 0 2.347 0.43907 2.347 1.2573 0 0.69153 0.54012 1.2573 1.2003 1.2573 1.683 0 4.3156 3.9631 5.4628 8.2236 0.53285 1.9789 1.4384 3.7781 2.0123 3.9984s3.5635-0.7422 6.6435-2.1387 6.1974-2.5392 6.9276-2.5392 3.4152-0.98755 5.9666-2.1946l4.6389-2.1946-3.7573-3.8826c-4.4813-4.6308-8.139-10.324-8.139-12.667 0-1.0531-0.55451-1.6937-1.4669-1.6946-1.5253-0.00156-6.0772-6.376-6.0772-8.5106 0-0.66624 0.40986-1.6212 0.9108-2.1221 0.65557-0.65558 0.62348-3.1934-0.11455-9.0568-0.57557-4.5727-0.83412-12.18-0.58944-17.343 0.34867-7.3562 0.20385-9.2856-0.72368-9.6415-1.7009-0.65269-1.4192-2.8408 0.79136-6.1482 1.073-1.6054 2.2209-3.6521 2.5508-4.5483 0.59284-1.6105 0.579-1.6106-1.1884-0.01113s-1.8031 1.598-2.9699 0.00235c-0.6499-0.88879-1.1816-1.9806-1.1816-2.4262s2.5852-3.3547 5.7448-6.4646c4.0909-4.0266 5.8914-6.4619 6.2541-8.4596 0.28013-1.5429 0.74708-3.6176 1.0377-4.6105 0.39833-1.3609 0.09691-1.9421-1.2247-2.3616-2.4208-0.76833-2.2024-2.1199 0.34248-2.1199 1.8321 0 2.0956-0.3652 2.0956-2.9043 0-2.0767-0.49315-3.1682-1.7306-3.8305-1.3272-0.71031-1.5131-1.1882-0.79752-2.0504 0.68904-0.83025 0.67337-1.2848-0.0599-1.7379-0.70544-0.43599-0.51353-1.0037 0.66276-1.9606 1.0884-0.88542 1.9891-3.247 2.6287-6.8921 1.396-7.9557 1.2992-10.267-0.40244-9.6136-1.9442 0.74604-4.4922-0.22886-4.4922-1.7188 0-0.92115 0.50252-1.0978 1.8794-0.66083 1.5962 0.50661 1.7235 0.40862 0.84478-0.65017-0.8542-1.0292-0.68398-1.4065 0.97596-2.1628 2.7665-1.2605 3.6873-5.5867 1.6648-7.8216-1.4475-1.5995-1.4359-1.6726 0.34014-2.137 1.1652-0.30471 1.8411-1.136 1.8448-2.2691 0.01955-5.9526 7.7244-30.285 13.838-43.7 5.6555-12.41 10.628-29.367 9.8318-33.53-0.23041-1.2053-0.00979-2.0951 0.51947-2.0951 1.6355 0 2.0283 4.1702 1.0129 10.753-1.3513 8.7604-1.6013 10.153-2.4519 13.657-0.65893 2.7146-0.57428 2.9929 0.80082 2.6333 2.4365-0.63716 5.1194-8.8175 5.5704-16.985 0.45186-8.1822 1.8428-11.109 1.9722-4.1492 0.22235 11.961-0.96963 17.923-5.1067 25.544-3.695 6.807-5.6681 12.483-8.7678 25.223-1.8638 7.6604-2.1131 10.006-1.5492 14.575 0.49121 3.9806 1.0099 5.4455 1.9282 5.4455s1.3068-1.1108 1.4469-4.1911c0.49652-10.919 6.8203-34.625 10.398-38.978 1.3884-1.6894 1.6067-1.7706 1.1261-0.41911-2.3326 6.5596-6.6375 22.026-7.5828 27.242-0.62655 3.4577-1.1552 9.6815-1.1748 13.831-0.0555 11.76-1.4028 21.4-3.3611 24.049-2.2128 2.9929-2.1393 3.3564 0.61402 3.0396 1.9778-0.22758 2.3339-0.68176 2.5075-3.199 0.42747-6.1974 1.9866-11.735 3.304-11.735 0.99764 0 1.1793 0.61825 0.80058 2.7242-1.723 9.5806-1.7252 10.165-0.03562 9.4879 0.87797-0.35195 3.2937-1.1738 5.3683-1.8264 4.7486-1.4937 5.8832-2.3911 8.7218-6.8982 2.0626-3.275 2.1561-3.7358 0.93875-4.626-1.18-0.86284-1.302-2.7998-0.95903-15.223 0.21615-7.8288 0.99692-18.006 1.7351-22.616 3.7482-23.41 3.8941-25.177 4.0627-49.179 0.09335-13.288 0.44545-24.162 0.78243-24.163 1.4498-0.00664 1.7079 5.8654 1.2497 28.43-0.38898 19.157-0.82268 25.636-2.1647 32.339-3.0876 15.421-5.1881 42.626-3.6848 47.724l0.72537 2.4598 1.8117-2.9314c1.8991-3.0728 3.9645-4.4253 8.1557-5.3406 1.4434-0.3152 4.2387-2.3347 6.5617-4.7406l4.047-4.1914-0.34019-5.4379c-0.1871-2.9908 0.11268-8.5253 0.66618-12.299s0.89369-12.142 0.75597-18.596c-0.23669-11.093-0.48554-17.192-1.6759-41.073-0.32098-6.4396-0.15206-11.567 0.4695-14.25 2.3096-9.97 1.8551-21.764-1.23-31.922-0.68846-2.2668-2.0511-6.9506-3.028-10.408-1.9713-6.977-2.0576-7.1828-10.156-24.231-5.49-11.556-5.7998-12.011-7.1902-10.546-0.79999 0.84282-1.4087 2.6916-1.3545 4.1136 0.13086 3.4297 1.2304 8.0313 1.919 8.0313 0.30285 0 0.62363 0.88201 0.71285 1.96s0.71799 3.0313 1.3973 4.3406 1.0333 2.707 0.78667 3.106-0.08804 1.1805 0.35237 1.7366 1.9938 4.7517 3.4521 9.3237 3.1955 9.4755 3.8606 10.897 1.8208 4.2818 2.5683 6.3564c1.7059 4.7346 2.6508 21.708 1.3346 23.974-0.69479 1.1966-0.94276 1.2795-0.99912 0.33422-0.08404-1.4096-0.48151-5.1916-1.165-11.086-0.26808-2.3117-2.3602-7.896-5.0246-13.412-2.5109-5.1978-6.928-16.712-9.8159-25.586s-5.6491-16.135-6.1362-16.133-0.91554 1.362-0.9522 3.0237c-0.06243 2.8305-3.4334 10.385-4.634 10.385-0.29946 0-1.0213-1.1512-1.6042-2.5583-0.84119-2.0308-0.84896-3.1975-0.03768-5.658 0.87134-2.6428 0.79371-3.7142-0.52659-7.2678-1.41-3.795-1.8846-4.2658-5.3029-5.2592-5.4528-1.5848-6.9182-4.0462-7.0586-11.856-0.06305-3.5082-0.52525-7.133-1.0271-8.055s-1.5596-3.1853-2.3506-5.0294c-2.1834-5.0902-10.24-17.466-12.139-18.646-1.5217-0.94577-5.7068-8.818-7.0948-13.345-0.67491-2.2014 0.98372-3.5336 1.7194-1.381 1.4343 4.1968 4.5558 10.114 6.0477 11.464s8.7254 12.055 13.266 19.63l1.649 2.7508 1.0159-5.5134 1.0159-5.5134-7.7815-8.408c-8.1237-8.7778-9.7979-11.076-9.8473-13.519-0.04956-2.4477 1.2432-1.6497 2.7159 1.6764 0.76548 1.7288 4.5936 6.3249 8.5071 10.213l7.1153 7.0701 1.6997-3.9653c2.9942-6.9853 8.6027-13.456 14.3-16.498l2.9338-1.5664-4.2234-0.03704c-4.7205-0.04141-10.447-2.656-17.861-8.1548-1.0816-0.80227-2.9677-1.5665-4.1911-1.6983-6.3166-0.68045-21.847-5.8756-24.438-8.1748-2.9329-2.6029-8.0307-5.5517-8.6049-4.9775-0.26388 0.26389-0.93469-0.40122-1.4907-1.478s-1.7839-2.8065-2.7287-3.8438-1.3692-1.8962-0.94303-1.9088-2.1524-1.4546-5.73-3.2046-6.2869-3.3998-6.0206-3.6661c1.2911-1.2912 16.132 4.8192 19.647 8.0895 1.1542 1.0736 3.0415 2.4294 4.1941 3.0128 1.328 0.67224 0.71393-0.20828-1.6764-2.4039-3.7043-3.4025-15.799-10.187-18.161-10.187-0.66104 0-2.3923-0.61558-3.8472-1.368-2.1327-1.1029-5.2055-1.3581-15.857-1.3172-11.884 0.04564-13.909 0.2731-20.158 2.2636-6.4647 2.0593-10.594 4.7029-13.822 8.8503-1.8264 2.3459-5.1022 17.797-5.5435 26.148-0.40473 7.6573-0.3188 8.2515 1.3638 9.4301 2.3226 1.6268 9.6166 1.627 17.348 5.8e-4 5.2465-1.1036 6.6841-1.1097 11.768-0.04962 6.3591 1.3259 11.703 3.5418 11.703 4.853 0 0.88113-0.74648 0.72308-6.3795-1.3507-1.8951-0.69769-5.4785-1.464-7.9632-1.7029-3.6289-0.34896-3.8974-0.30091-1.3649 0.24431 1.7339 0.37329 3.3999 0.92601 3.7022 1.2283 1.2616 1.2616-0.76318 1.4499-6.7047 0.62347-5.6866-0.79093-6.6869-0.7072-10.219 0.85535-3.1582 1.397-4.8438 1.6244-8.713 1.1753-2.6385-0.30623-5.307-0.87181-5.93-1.2569s-2.025-0.36086-3.1155 0.05376c-7.0757 2.6902-23.16 5.9005-35.261 7.0377-18.407 1.7299-28.407 1.6384-36.656-0.3355-3.6862-0.88203-6.8259-1.48-6.9772-1.3287-0.51265 0.51265 2.3212 5.306 3.3934 5.7397 0.82514 0.33383 0.79205 0.62128-0.14675 1.2746-0.67404 0.46906-1.7904 0.5411-2.5147 0.16227-0.71638-0.37471-4.061-1.1409-7.4326-1.7026-4.9814-0.82996-6.2584-1.3589-6.815-2.8227-0.37669-0.99074-0.63577-2.0797-0.57574-2.4198 0.25568-1.449-6.4418-4.8597-12.561-6.3964-21.096-5.2984-33.148-5.6683-70.315-2.1585-17.774 1.6784-21.27 2.2767-34.249 5.8606-10.353 2.8588-14.445 4.2846-25.684 8.9495-7.6515 3.1758-15.261 9.2047-20.449 16.201-8.0047 10.795-16.353 31.443-18.115 44.801-0.51669 3.9187-1.1033 8.2565-1.3035 9.6396s-0.52255 3.8349-0.71625 5.4485-0.83739 6.8944-1.4304 11.735c-1.6048 13.099-1.4828 35.979 0.59424 111.48 0.66549 24.192-0.07579 32.254-3.7103 40.355-1.3697 3.0528-2.9032 5.8058-3.4078 6.1176s-0.91745 0.95434-0.91745 1.4277 1.3202-0.49873 2.9338-2.1603 2.9338-3.383 2.9338-3.8254c0-1.8962 4.6644-10.099 5.98-10.517 2.21-0.70143 3.4027-7.9171 2.7646-16.726-0.43606-6.0196-0.24179-8.5652 0.95976-12.577 1.1952-3.99 1.4511-7.2813 1.2386-15.926-0.35626-14.492-0.23099-25.247 0.39793-34.162 0.37981-5.3842 0.1787-8.4955-0.75501-11.681-0.69999-2.3879-1.0549-4.694-0.78869-5.1248s0.79599-11.531 1.1773-24.668c0.52208-17.987 0.98021-24.327 1.8553-25.676 1.4919-2.2987 2.4045-14.289 1.3071-17.176-1.1586-3.0474-0.15271-7.7535 1.7644-8.2548 1.0558-0.2761 2.1359-2.291 3.4324-6.4033 3.6224-11.489 8.8247-19.178 15.165-22.413 3.4778-1.7742 3.7672-2.1895 4.3354-6.2199 0.19497-1.3831 1.533-4.5116 2.9734-6.9523s2.619-4.5984 2.619-4.7949c0-0.84717 11.026-11.455 11.457-11.023 0.26263 0.26263-1.2643 2.4686-3.3931 4.9022-3.2569 3.7232-7.226 10.332-7.226 12.032 0 0.25788 2.6322-1.7468 5.8493-4.4548s7.8378-5.9324 10.268-7.1653 7.0322-4.505 10.226-7.2712 6.5888-5.0176 7.544-5.0029c1.7303 0.02656 1.7306 0.03137 0.06034 1.289-3.833 2.8861-8.4305 6.7732-17.777 15.03-10.069 8.8956-19.744 19.64-21.249 23.596-0.41186 1.0832-1.0709 1.9695-1.4645 1.9695-0.64157 0-1.803 2.3524-5.7558 11.658-1.8873 4.4431-5.2245 25.954-6.2539 40.312-0.97747 13.633-0.50806 34.661 0.91688 41.073 0.46103 2.0746 1.2756 5.7222 1.8102 8.1058 0.64294 2.8667 1.465 4.4627 2.4283 4.7146 0.88933 0.23257 2.0153 2.1351 2.8922 4.8868 3.4409 10.798 11.405 22.372 24.444 35.524 3.9583 3.9925 4.2716 4.5977 3.9427 7.6154-0.19652 1.803-0.71701 3.404-1.1566 3.5577s-0.79932 0.81379-0.79932 1.4669c0 0.72025-0.85818 1.1875-2.181 1.1875h-2.181l0.52732 10.268c0.29003 5.6476 0.72518 11.966 0.96699 14.04 0.6275 5.3833-1.7016 14.329-5.5621 21.363-1.8833 3.4315-3.3053 7.1638-3.3053 8.6752v2.6527l4.8198 0.06837 4.8198 0.06838-2.8833 1.2563c-1.5858 0.69095-3.7547 1.0897-4.8198 0.88609s-1.9365-0.04975-1.9365 0.34189 1.5234 0.95569 3.3853 1.2534c4.1399 0.66201 3.9504 2.3127-0.30676 2.6724-1.6932 0.14308-3.0786 0.37904-3.0786 0.52436s0.92608 2.3583 2.058 4.9176c1.8957 4.2866 2.0453 5.5669 1.8977 16.24-0.13447 9.7208 0.20144 13.342 2.0859 22.484 4.4057 21.374 5.8819 39.606 4.416 54.54-0.59881 6.1001 0.47967 7.76 6.4506 9.9279 4.8956 1.7775 5.7682 2.8284 6.1072 7.3544 0.14904 1.9902 0.69044 4.6826 1.2031 5.9831l0.93213 2.3645 2.246-1.7667c1.2353-0.97167 2.7691-2.5135 3.4084-3.4263 2.1537-3.0749 2.6298-0.79804 0.58197 2.7835-1.1158 1.9514-2.0332 3.7757-2.0388 4.054-0.01364 0.68329 7.2462-1.2535 10.887-2.9044zm-2.0757-158.93c-0.274-0.44335 1.0034-1.5722 2.8387-2.5084 4.1343-2.1092 5.3203-0.82648 1.4484 1.5665-3.2065 1.9817-3.5921 2.0665-4.2871 0.94196zm351.32-19.102c-0.72765-4.4023-0.66452-5.416 0.30021-4.8198 0.5316 0.32854 0.8369-1.8764 0.83459-6.0277-0.00452-8.1484-2.9399-40.84-4.5767-50.972-1.2056-7.4626-3.8141-35.182-3.8061-40.444 0.00738-4.8162 1.5318-2.9018 2.0024 2.5147 0.25036 2.8814 0.87292 10.143 1.3835 16.136s1.8122 17.687 2.8926 25.985c2.8578 21.952 3.8314 33.753 3.842 46.575 0.00916 11.007-0.37588 14.196-1.7141 14.196-0.35137 0-0.87267-1.4145-1.1584-3.1434zm-30.3-12.154c0.30129-1.4983 1.4531-5.176 2.5595-8.1727 2.6317-7.1276 4.7274-20.527 4.456-28.49-0.21327-6.2562 0.26349-8.3922 1.8731-8.3922 1.1676 0 0.79667 13.456-0.56615 20.537-1.4704 7.6392-3.3728 14.76-4.9554 18.547-0.69685 1.6678-1.267 4.3065-1.267 5.8638 0 2.0213-0.37881 2.8314-1.324 2.8314-1.0472 0-1.2094-0.56939-0.77616-2.7242zm-223.38-55.066c0-1.5053 3.7385-3.4004 6.6828-3.3876 3.6665 0.01592 5.4566 1.0777 4.7817 2.8364-0.39943 1.0409-1.7431 1.3419-5.9897 1.3419-3.0111 0-5.4748-0.35581-5.4748-0.7907zm217.1-45.36c0-3.8662-1.5715-9.5423-5.1617-18.644-3.1922-8.0926-3.943-11.666-5.7585-27.411-0.50505-4.3797-1.4956-10.038-2.2012-12.573-1.5679-5.6344-8.8116-21.526-12.418-27.242-7.1023-11.259-8.0519-13.127-6.5274-12.843 0.80904 0.15085 2.0474 1.4048 2.7519 2.7865s2.7474 4.7754 4.5397 7.5416c3.7985 5.8622 9.8339 18.297 12.276 25.293 2.0594 5.8992 4.083 16.87 4.6886 25.419 0.45982 6.4916 1.3438 9.7289 6.475 23.714 2.9558 8.0562 4.0692 16.521 2.1729 16.521-0.46103 0-0.83823-1.1532-0.83823-2.5626zm-12.615-20.985c-0.53-0.99032-2.4044-6.5646-4.1652-12.387-6.2378-20.627-13.526-38.16-17.094-41.121-0.73221-0.60768-1.3313-1.5971-1.3313-2.1987s-0.94301-1.8356-2.0956-2.7422c-2.4792-1.9502-2.6396-2.6644-0.59805-2.6644 1.9093 0 8.6926 10.424 13.047 20.051 1.7758 3.9255 4.7285 11.865 6.5617 17.642s4.4032 13.615 5.7111 17.415 2.0518 7.1115 1.6531 7.358-1.1586-0.36219-1.6886-1.3525zm-45.941-87.12c-2.0085-0.41794-4.0831-1.1092-4.6102-1.5362s-3.971-1.6161-7.6531-2.6426c-5.5986-1.5608-8.1754-1.8053-15.738-1.4937-9.4004 0.38731-10.504-0.17794-3.8246-1.958 3.51-0.93536 5.0392-0.80055 14.669 1.2931 5.9128 1.2856 12.071 2.4424 13.684 2.5707 10.687 0.85009 23.585 3.7881 16.63 3.7881-1.1804 0-3.802 0.16615-5.8257 0.36923s-5.3228 0.02728-7.3313-0.39066zm-0.75922 398.18c1.7231-1.1526 3.1376-2.3785 3.1434-2.7242 0.02302-1.3946-1.8285-0.46824-4.8075 2.4053-3.4924 3.3688-3.0284 3.4577 1.6641 0.31895zm52.716-0.62867c1.0641-1.3569 1.0247-1.3747-0.52604-0.2372-0.92205 0.67634-1.8336 1.3364-2.0257 1.4669s0.04462 0.23719 0.52603 0.23719 1.393-0.6601 2.0257-1.4669zm-365.57-2.3546c0-0.2033-0.3772-0.36964-0.83823-0.36964s-0.83823 0.39946-0.83823 0.8877 0.3772 0.65457 0.83823 0.36964 0.83823-0.6844 0.83823-0.8877zm77.536 0.46858c0.28493-0.46102 0.14085-0.83822-0.32018-0.83822s-1.0713 0.3772-1.3563 0.83822-0.14085 0.83823 0.32017 0.83823 1.0714-0.3772 1.3563-0.83823zm-64.963-1.2573c0-0.69153-0.33685-1.2573-0.74855-1.2573s-0.96566 0.56581-1.231 1.2573c-0.2939 0.7659-0.00133 1.2573 0.74854 1.2573 0.67707 0 1.231-0.5658 1.231-1.2573zm297.59-6.2506c4.9147-5.0131 5.4907-5.9033 4.1049-6.3432-1.7081-0.54212-2.1674-2.4712-0.79104-3.3219 0.52329-0.32341 0.47824-1.0564-0.12424-2.0211-0.69523-1.1132-0.70506-3.3758-0.03713-8.553 0.77652-6.0188 0.71833-7.332-0.40143-9.0584-2.6171-4.035-4.7694-17.929-2.8902-18.657 0.40151-0.1556 0.40472-2.6937 0.00725-5.7279-0.39255-2.9967-0.48837-8.1374-0.21292-11.424 0.69029-8.236-0.01847-11.037-2.876-11.367-2.9394-0.33956-2.901-1.8614 0.05554-2.2016 2.7948-0.32157 2.805-0.50165 0.28107-4.9156-2.1297-3.7244-2.0316-4.4588 0.5953-4.4588 1.4988 0 1.5934-0.39041 1.0658-4.4007-0.4697-3.5704-3.4662-11.526-4.3413-11.526-0.11878 0-1.2179 0.38092-2.4424 0.84649-1.906 0.72468-2.2891 0.60694-2.6618-0.8182-0.34477-1.3184-0.75339-1.4945-1.9642-0.8465-2.656 1.4215-4.992 0.9967-4.992-0.90772 0-0.94926-0.36073-1.503-0.80162-1.2305s-0.60143 1.0171-0.35675 1.6547c0.25515 0.6649-0.62759 1.9522-2.0699 3.0186l-2.5148 1.8593 2.6131 6.8038c2.6028 6.7771 2.6129 6.8662 2.5687 22.73-0.03124 11.207-0.46218 18.162-1.4544 23.47-2.7903 14.929-3.0256 16.898-3.1281 26.187-0.11866 10.749 0.39554 11.953 5.1048 11.953 2.4817 0 3.3415 0.43507 4.2632 2.1573 0.63501 1.1865 2.3658 2.6634 3.8462 3.282 3.5735 1.4931 4.8846 3.9952 3.7697 7.1936-0.47075 1.3504-0.64812 2.4553-0.39416 2.4553s3.0344-2.6242 6.1787-5.8315zm7.4507-1.4663c2.0353-1.9795 3.2612-3.5992 2.7242-3.5992s-0.97633 0.40262-0.97633 0.89472-0.70396 0.67128-1.5644 0.39821c-1.1306-0.35884-2.7576 0.69044-5.8676 3.7842-2.3668 2.3544-4.3032 4.6143-4.3032 5.022 0 1.2556 6.085-2.7046 9.9873-6.4999zm-308.05 3.6457c-0.29069-0.75753-0.86857-1.3773-1.2842-1.3773s-0.29522 0.73725 0.26751 1.6383c1.1865 1.8999 1.7868 1.7458 1.0167-0.26101zm313.78-3.6824c0.49667-1.5081-1.9016-1.2917-3.2144 0.29006-0.96938 1.168-0.85776 1.301 0.87949 1.0478 1.0944-0.15953 2.1451-0.76156 2.3349-1.3378zm-356.88-49.76c0-2.7668 0.41624-6.6836 0.92497-8.704s0.77363-4.1275 0.58863-4.6825c-0.45238-1.3572-5.7118 17.943-5.6782 20.837l0.02649 2.2836 2.0691-2.3519c1.7088-1.9424 2.0691-3.2277 2.0691-7.3824zm3.6422-0.3606c-0.27299-0.71142-0.67613-1.1137-0.89585-0.89399s-0.15086 0.80179 0.15303 1.2935c0.82653 1.3374 1.3096 1.0776 0.74283-0.3995zm-7.3855-7.115 0.4792-2.9076-1.3017 2.8205c-1.5001 3.2503-1.728 5.066-0.47919 3.8172 0.45237-0.45238 1.0381-2.1309 1.3017-3.7301zm352.95 1.9297c-0.27854-0.27854-0.47665 0.21654-0.44026 1.1002 0.04022 0.97649 0.23885 1.1751 0.50643 0.50643 0.24213-0.6051 0.21236-1.3281-0.06617-1.6066zm-334.55-0.7525c1.4266-2.1772 3.1408-7.0186 2.4851-7.0186-0.41403 0-2.6408 4.2468-3.7329 7.1192-1.0297 2.7084-0.56838 2.6712 1.2478-0.10068zm334.55-2.6004c-0.27854-0.27853-0.47665 0.21655-0.44026 1.1002 0.04022 0.97649 0.23885 1.1751 0.50643 0.50643 0.24213-0.60509 0.21236-1.3281-0.06617-1.6066zm-354.79-14.058 0.49381-8.3823-1.6044 6.7058c-0.88243 3.6882-1.8265 8.7804-2.0979 11.316l-0.4935 4.6102 1.6041-2.9338c1.1366-2.0787 1.748-5.3769 2.0979-11.316zm2.3099 7.3345c1.9093-5.0031 3.1031-11.071 3.6722-18.665 0.32767-4.3719 0.93701-9.7921 1.3541-12.045 0.86632-4.6794 0.94513-6.0098 0.31889-5.3836-1.1609 1.1609-3.8458 13.329-4.9874 22.602-0.70058 5.6912-1.4398 11.573-1.6428 13.072-0.45108 3.3302 0.10488 3.5115 1.285 0.41912zm9.0658-1.886c0.04096-1.1176-0.04421-1.1176-0.76647 0-0.44691 0.69153-0.79182 2.0117-0.76648 2.9338 0.04609 1.6764 0.04609 1.6764 0.76648 0 0.39621-0.92205 0.74113-2.2423 0.76647-2.9338zm-2.5608-2.0956c0-1.6764 0-1.6764-0.72039 0-0.39622 0.92205-0.7204 2.4309-0.7204 3.3529 0 1.6764 0 1.6764 0.7204 0 0.39621-0.92205 0.72039-2.4309 0.72039-3.3529zm3.1389-1.8686c-0.27853-0.27853-0.47665 0.21655-0.44025 1.1002 0.04023 0.97649 0.23885 1.1751 0.50643 0.50643 0.24214-0.6051 0.21236-1.3281-0.06618-1.6066zm-2.1829-1.9035c0-0.92205-0.14461-1.6764-0.32135-1.6764s-0.51864 0.7544-0.75975 1.6764-0.09651 1.6764 0.32135 1.6764 0.75975-0.7544 0.75975-1.6764zm-14.238-9.083c0.92692-5.1477 2.598-12.094 3.7134-15.436 6.2915-18.85 8.0218-23.43 9.6198-25.461 2.3054-2.9308 1.4388-3.751-1.1698-1.1071-5.693 5.7699-11.006 18.574-13.026 31.389-0.5086 3.2272-1.3013 7.8237-1.7615 10.214-0.72726 3.7781-0.28485 10.984 0.61887 10.08 0.176-0.176 1.0784-4.5317 2.0053-9.6794zm2.49 2.4471c0.01705-2.6904-0.45957-2.0085-1.1229 1.6066-0.37875 2.0641-0.294 2.561 0.28588 1.6764 0.45332-0.69153 0.83-2.1689 0.83705-3.283zm12.298-0.29536c-0.22961-0.56751-0.4035 0.09977-0.38641 1.4828s0.20495 1.8474 0.41748 1.0318 0.19855-1.9472-0.03107-2.5147zm-6.8079-14.443c0.74553-3.2272 2.6472-10.07 4.2259-15.205 3.2919-10.709 3.2336-10.361 1.7352-10.361-2.0641 0-7.7824 22.289-8.4942 33.11-0.34305 5.2147-0.29901 5.4479 0.39583 2.0956 0.43001-2.0746 1.3918-6.4124 2.1373-9.6396zm5.1368 5.2389c-0.23254-0.57628-0.42279-0.10478-0.42279 1.0478s0.19025 1.6241 0.42279 1.0478 0.23253-1.5193 0-2.0956zm-11.053-22.842c0.48073-1.1756 0.418-1.426-0.20998-0.83823-1.4056 1.3156-4.2226 10.479-4.775 15.532-0.40866 3.7384-0.05776 2.9594 1.8991-4.2157 1.3202-4.8408 2.7089-9.5558 3.0859-10.478zm19.613 3.9816c-0.09206-6.4358-0.18715-6.8723-0.7761-3.5625-0.95901 5.3896-0.93738 10.897 0.04279 10.897 0.50294 0 0.79626-2.9337 0.73331-7.3345zm320.31 1.4669c0-0.46102-0.39946-0.83822-0.8877-0.83822s-0.65457 0.3772-0.36964 0.83822 0.6844 0.83823 0.8877 0.83823 0.36964-0.3772 0.36964-0.83823zm-337.78-10.059c0.99613-1.9168 0.97007-1.9975-0.30557-0.94515-0.76702 0.63274-1.3946 1.7329-1.3946 2.4448 0 1.522 0.23982 1.3104 1.7001-1.4997zm214.94 0.50885c4.4647-1.176 4.7458-1.4906 6.4456-7.2147 0.6161-2.0746 2.3044-5.5339 3.7518-7.6873 1.4832-2.2067 2.3148-4.2321 1.9056-4.6413s0.18369-2.0648 1.3586-3.7939c3.1589-4.6488 2.8089-5.4474-2.7351-6.2398-8.6447-1.2358-31.214-0.6734-31.221 0.77791-0.00162 0.34577-0.94594 0.62867-2.0985 0.62867-1.4348 0-2.0974 0.46255-2.1013 1.4669-0.00315 0.80679-1.2291 2.2982-2.7242 3.3142-2.2614 1.5366-3.2532 1.7263-5.898 1.1279-2.749-0.62197-3.041-0.5525-2.1566 0.51311 1.1184 1.3475 5.6745 3.9623 7.0126 4.0244 0.46103 0.02142 0.85959 1.2908 0.88568 2.8208 0.03664 2.1476 0.70553 3.2932 2.9338 5.0247 1.5875 1.2336 3.78 3.2941 4.8722 4.5789 2.1973 2.5848 5.9084 4.7481 9.7493 5.6832 3.688 0.89784 5.4032 0.83214 10.02-0.3838zm-212.61-5.1413c-0.25808-0.25809-0.72678 0.20713-1.0416 1.0338-0.4549 1.1946-0.35861 1.2909 0.46923 0.46924 0.57286-0.56861 0.83041-1.245 0.57233-1.503zm398.06-19.047c1.752-11.26 2.5565-28.494 1.1135-23.853-0.40038 1.2876-0.97888 4.871-1.2856 7.9632-0.62522 6.3039-2.6794 21.166-3.413 24.692-0.34146 1.6414-0.14316 2.3051 0.68871 2.3051 0.8531 0 1.6344-2.996 2.8963-11.106zm-158.35-3.0524c2.6364-0.87204 7.9996-1.824 11.918-2.1156 10.214-0.75986 18.943-2.1174 22.492-3.4982l3.0741-1.1959-3.772 0.40267-8.8014 0.93795c-2.7662 0.29441-5.2542 0.66829-5.529 0.83085s-3.8462 0.52637-7.9365 0.80848-7.7483 0.70543-8.129 0.94072-1.6054-0.17051-2.7214-0.90178-2.2311-1.3296-2.4778-1.3296c-0.91195 0-0.41285 2.3919 0.59918 2.8715 0.57628 0.27312-0.29779 0.33946-1.9424 0.14742-2.2289-0.26027-3.23 0.03487-3.9322 1.1594-1.8423 2.95 0.25373 3.2258 7.1584 0.94198zm91.402 0.1853c-0.26247-1.356-7.9022-4.2577-14.94-5.6744l-2.9338-0.59057 2.9338 1.9093c2.5224 1.6416 12.459 5.5442 14.521 5.7028 0.37957 0.02921 0.56817-0.57698 0.41911-1.3471zm-46.373-8.8329c0.58302-0.6136-0.16053-0.7306-2.4423-0.38432-1.8043 0.27381-3.6903 0.9345-4.1911 1.4682-0.68527 0.73024-0.08095 0.82533 2.4423 0.38433 1.8441-0.32231 3.7301-0.98299 4.1911-1.4682zm-120.7 0.17439c0.28493-0.46102-0.07001-0.83823-0.78875-0.83823s-1.3068 0.37721-1.3068 0.83823 0.35494 0.83823 0.78875 0.83823 1.0219-0.3772 1.3068-0.83823zm41.649-5.602c-0.6051-0.24214-1.3281-0.21236-1.6066 0.06617s0.21655 0.47665 1.1002 0.44025c0.97649-0.04022 1.1751-0.23884 0.50643-0.50642zm130.23-7.1554c-0.67931-1.6258-1.0524-3.1388-0.82898-3.3622s-0.16878-0.88327-0.87146-1.4664c-1.0589-0.87883-1.2776-0.81788-1.2776 0.35614 0 1.0784-0.45013 1.2809-1.886 0.84849-1.4668-0.44176-1.0593 0.28694 1.8337 3.2788 2.0459 2.1158 3.8425 3.7241 3.9926 3.574s-0.28296-1.603-0.96226-3.2289zm-13.238 0.81261c-0.18754-0.57628-1.9164-1.9248-3.8419-2.9966s-3.5009-2.3247-3.5009-2.7841c0-2.9684-5.6657-5.0188-13.693-4.9553-8.0816 0.06386-9.339 1.1376-2.8735 2.454 2.8875 0.58787 7.9553 2.3618 11.262 3.942s6.3721 2.8732 6.8127 2.8732 1.2707 0.56581 1.8446 1.2573c1.2657 1.5251 4.4728 1.6935 3.9898 0.20956zm140.12-18.684c2.3411-1.6819 4.2566-3.188 4.2566-3.3468s-1.0313-0.21772-2.2917-0.13092c-2.1754 0.1498-2.3211-0.07608-2.8718-4.4524-1.0429-8.2884-2.28-28.806-2.047-33.948 0.12537-2.7662 0.85601-6.2365 1.6236-7.712 2.6469-5.0876 1.4548-47.538-1.5429-54.945-0.78031-1.9281 0.96097-1.9281 1.9735 0 1.9605 3.7331 3.6379 24.856 3.9093 49.231 0.19553 17.559 1.0266 40.211 1.6612 45.279 0.11545 0.92205 0.27343 2.2422 0.35107 2.9338 0.22137 1.972 4.9026-8.3015 6.0468-13.27 0.71704-3.1139 0.76016-4.6388 0.14221-5.0294-0.48777-0.30824-1.1669-4.1439-1.5092-8.5236s-0.93777-8.7962-1.3233-9.8143c-0.61492-1.6237-0.23885-8.7084 1.4628-27.558 0.34017-3.7681-0.01166-6.8213-1.3469-11.688-0.99402-3.6232-2.5372-10.857-3.4293-16.075s-2.1641-10.332-2.8267-11.363-2.4198-5.6391-3.9049-10.239c-2.3817-7.3771-2.7916-8.1186-3.475-6.2867-0.42611 1.1423-0.57676 3.0801-0.33479 4.3062 0.30453 1.543 0.03725 2.3838-0.86823 2.7313-0.71951 0.27609-1.1072 1.0258-0.86155 1.6659 0.63028 1.6425-3.6821 2.3597-5.3256 0.88572-0.70448-0.63179-1.3606-2.1115-1.458-3.2882-0.24503-2.9607-2.5283-8.207-3.3506-7.6988-0.37189 0.22985-0.71756-0.21451-0.76816-0.98745-0.13135-2.0066-0.69577-3.8645-3.5606-11.72-2.5436-6.9745-2.758-10.199-1.3046-19.615 0.28396-1.8397 0.07847-2.1815-1.0884-1.81-3.2694 1.0408-5.2107 2.3389-5.6722 3.793-0.26921 0.84823-0.96683 1.5422-1.5503 1.5422-1.2409 0-1.2116 2.7156 0.04675 4.3308 1.3146 1.6873 5.7609 10.834 10.73 22.073 3.7777 8.5441 9.6759 26.787 9.6759 29.927 0 0.52556 0.50549 1.5511 1.1233 2.2789s1.981 3.6729 3.0294 6.5446c2.0428 5.5957 2.0642 11.823 0.07154 20.764-0.60043 2.6939-0.84806 12.605-0.69318 27.742 0.17652 17.253-0.02514 23.872-0.75411 24.75-0.71431 0.8608-0.85682 4.3074-0.50511 12.216l0.48995 11.016 1.9066-0.72487c1.0486-0.39868 3.822-2.101 6.1632-3.7829zm-400.61 0.9207c0-1.1254-0.38617-2.2848-0.85815-2.5765s-3.1627-3.9917-5.9794-8.2222c-6.1312-9.2088-7.3952-10.655-4.892-5.5962 3.0762 6.2163 10.426 18.42 11.101 18.431 0.34577 0.00562 0.62867-0.91051 0.62867-2.0359zm-22.632-1.3068c1.8074-0.92205 4.005-1.6764 4.8838-1.6764 1.5275 0 1.5453-0.22653 0.40488-5.1629-0.65601-2.8396-2.1636-6.8945-3.3502-9.0109-2.9524-5.266-4.8321-10.968-8.1665-24.775-4.0976-16.966-4.0359-16.527-3.9342-28.044 0.10412-11.797-0.56802-20.385-1.5481-19.779-0.83399 0.51543-1.6802-4.6123-1.692-10.253-0.00507-2.4204-0.32355-4.4007-0.70775-4.4007s-0.73673 0.4715-0.78342 1.0478-0.88462 6.8944-1.8621 14.04c-1.5 10.967-1.7309 16.105-1.4805 32.956 0.22707 15.283 0.55367 20.123 1.3929 20.641 0.67312 0.416 0.88018 1.3586 0.53639 2.4417-0.30796 0.97031-0.2189 2.3736 0.19791 3.1184 1.1548 2.0636 0.17438 5.4353-1.8141 6.2385-0.97642 0.39442-1.3038 0.74103-0.72751 0.77025s1.0478 0.65278 1.0478 1.3857 0.81305 1.9909 1.8068 2.7956c1.719 1.392 1.7425 1.592 0.48335 4.1159-0.72788 1.4591-0.94819 2.6529-0.48957 2.6529 1.5545 0 3.1691 2.3249 2.8316 4.0773-0.31053 1.6125-0.05573 1.7054 3.3836 1.234 3.0924-0.42386 3.7194-0.27865 3.7194 0.86148 0 0.75419-0.40415 1.3713-0.8981 1.3713s-0.25484 0.64326 0.53138 1.4295c0.92473 0.92473 1.0939 1.5413 0.47898 1.7463-0.52277 0.17426-0.95048 0.6626-0.95048 1.0852 0 1.2961 3.2472 0.85638 6.7058-0.90808zm7.9906-21.741c-0.7001-1.3538-1.7111-2.7323-2.2466-3.0633-0.66047-0.40819-0.74928-0.22305-0.27608 0.57552 3.0495 5.1464 4.7799 6.8528 2.5227 2.4878zm434.24-36.62c1.3698-4.7121 3.5197-9.0213 6.3845-12.797 1.0361-1.3656 1.2578-2.3214 0.69574-2.9987-0.45382-0.54682-1.5762-3.4168-2.4942-6.3778-1.9579-6.3151-3.7575-9.1556-5.8004-9.1556-2.4158 0-5.687-4.213-8.4611-10.897l-2.6092-6.2867 0.4512 4.0988c0.25044 2.2751 1.0267 4.5196 1.7447 5.0446 0.74556 0.54516 1.6365 3.2474 2.1032 6.3791 0.44536 2.9883 1.2049 8.0737 1.6878 11.301s1.0561 7.3764 1.2737 9.2205 0.78765 5.3278 1.2667 7.7415 0.63247 4.7746 0.3409 5.2464c-0.6724 1.088 0.28131 4.1957 1.2876 4.1957 0.41708 0 1.3751-2.1215 2.1289-4.7145zm1.0221-55.86c2.1675 0.19895 4.8839-0.02287 6.0364-0.49294 1.8152-0.74031 1.4787-0.86811-2.5147-0.95512-6.0075-0.13088-10.273-1.6355-11.305-3.9874-0.45509-1.0373-1.1091-1.886-1.4533-1.886-0.63716 0 1.5676 5.3988 3.0098 7.37 0.46369 0.63379 1.1024 0.77342 1.5394 0.33652 0.41074-0.41074 2.5202-0.58402 4.6877-0.38506zm10.385-2.0265c-0.6051-0.24214-1.3281-0.21237-1.6066 0.06617s0.21655 0.47665 1.1002 0.44025c0.9765-0.04022 1.1751-0.23884 0.50644-0.50642zm10.611-4.8869c0.88594-0.88594-11.274-0.57772-16.217 0.41104-2.1495 0.43003 0.08565 0.54988 6.2278 0.33393 5.2694-0.18526 9.7644-0.52049 9.9889-0.74497zm3.4067-7.3493c2.5768-1.3642 4.7488-2.5302 4.8266-2.5911s0.39247-1.111 0.69931-2.3335c0.45383-1.8082-0.02209-2.8648-2.5513-5.6643-1.8694-2.0692-3.1092-4.2915-3.1092-5.5731 0-2.611 3.2292-6.2251 5.5946-6.2614 1.7141-0.02626 1.7156-0.04502 0.10448-1.2634-1.225-0.92638-3.0131-1.1198-7.1249-0.77073-5.4714 0.46448-5.4802 0.46173-2.669-0.83215 4.2575-1.9596 11.075-1.294 14.527 1.4183 2.1631 1.6995 2.6799 4.6091 0.91917 5.1754-1.1676 0.37547-1.5535 1.5315-1.7335 5.1931-0.12734 2.5906-0.59884 5.3965-1.0478 6.2353s-0.81625 2.8374-0.81625 4.4413c0 2.8909 0.02166 2.9079 2.5097 1.9688 2.7628-1.0428 4.354-4.4676 4.2535-9.1545-0.54475-25.389-0.71392-26.567-4.3676-30.407-5.5127-5.7937-8.6717-12.812-6.9911-15.531 0.85612-1.3852 3.5477 1.3825 3.5477 3.6481 0 1.0327 1.2446 3.9003 2.7658 6.3726 2.6727 4.3436 2.7935 4.4274 3.5897 2.488 0.45315-1.1038 1.1196-7.665 1.4809-14.58 0.74313-14.221 2.2004-21.096 4.3899-20.709 0.96267 0.16998 1.4017-0.34951 1.4169-1.6764 0.0121-1.0575 0.76187-3.4316 1.6662-5.2757l1.6442-3.3529-0.47977 3.772c-0.26388 2.0746-1.0137 5.9011-1.6662 8.5033-1.5364 6.1269-1.4559 7.6261 0.24106 4.4893 0.74819-1.3831 1.3393-2.7033 1.3136-2.9338s0.68248-1.8484 1.5737-3.5954c3.8704-7.5867 13.081-8.4209 21.011-1.903 1.5152 1.2454 4.0341 3.0863 5.5976 4.0909 3.1968 2.054 9.8459 12.943 8.6398 14.15-0.42852 0.42851-1.1926 0.1958-1.8135-0.55237-0.59013-0.71108-1.6107-1.2929-2.2679-1.2929s-2.1079-1.0373-3.2238-2.3051-2.0408-1.8559-2.0554-1.3068 0.35916 1.2366 0.8305 1.528c1.4093 0.87099 5.9487 10.465 5.384 11.378-0.74047 1.1981-2.6884-0.59873-4.563-4.2091-1.748-3.3665-4.7045-7.1042-9.653-12.203-3.828-3.9446-4.183-3.8303-8.221 2.6468-1.1974 1.9206-2.5846 3.7439-3.0829 4.0518-1.0397 0.64255-0.2555 10.401 0.93964 11.693 0.40509 0.43798 0.73652 1.7632 0.73652 2.9448 0 1.8322 0.87484 2.5738 5.9409 5.0365 7.6213 3.7049 8.5859 4.5911 12.003 11.028 2.181 4.1084 3.3172 5.4005 4.9221 5.5973 4.9564 0.60777 8.5235-8.9459 8.5501-22.9 0.01698-8.9035-0.08691-9.4392-2.9162-15.035-3.1587-6.2474-10.56-14.834-15.687-18.2-10.647-6.9899-15.932-8.9821-17.423-6.5685-0.91394 1.4788-2.7997 0.90477-5.8626-1.7845-2.7049-2.3749-3.1234-2.5033-4.4299-1.3584-0.7935 0.69537-2.6686 1.8853-4.167 2.6442-2.4129 1.2222-2.7242 1.2326-2.7242 0.09019 0-0.70937 1.6974-2.1144 3.772-3.1224s3.772-2.3232 3.772-2.9229c0-1.4288-0.29928-1.3898-4.3456 0.56515-3.3144 1.6013-4.8749 1.5967-4.8749-0.01436 0-0.42605 1.8593-1.7168 4.1318-2.8684s4.3763-2.4894 4.6751-2.9729c0.87743-1.4197-2.2218-14.172-4.1338-17.009-2.3988-3.5595-7.0014-4.6057-16.336-3.7131-3.9587 0.37855-12.478 0.41497-18.933 0.08093-19.639-1.0164-24.567-0.41399-37.927 4.636-3.1679 1.1975-3.5597 1.6416-3.5625 4.0386-0.00172 1.4813-0.74075 4.5646-1.6423 6.8517-2.6169 6.6391-3.0439 12.142-1.2509 16.118 1.4778 3.2772 1.4772 3.4742-0.01962 6.2536-1.334 2.4771-1.9726 2.8698-4.6666 2.8698-3.4032 0-12.905 3.2886-17.571 6.081-6.1023 3.6525-11.209 10.886-13.382 18.955-0.53805 1.9982-0.78963 3.8217-0.55906 4.0523s1.6249-1.7172 3.0986-4.3283c3.1375-5.5593 4.2909-6.411 12.045-8.8942 6.4057-2.0513 11.359-6.3436 11.366-9.8494l0.00401-1.9468 2.2086 1.7373c2.8105 2.2108 3.4788 2.1847 3.8102-0.14872 0.40713-2.8666 1.7868-2.2562 2.7628 1.2225 0.47968 1.7097 1.3405 3.5768 1.9128 4.1492s1.0407 2.4035 1.0407 4.0692c0 2.237 0.62581 3.628 2.3945 5.3225 1.317 1.2617 2.8212 3.7183 3.3427 5.459 1.6936 5.6528 3.5515 16.781 3.729 22.335 0.09537 2.984 0.4563 5.4267 0.80207 5.4281s0.57821 0.2855 0.51653 0.63127c-0.45296 2.5394 1.8028 6.7722 5.9248 11.117 2.6183 2.7601 5.0219 5.0184 5.3415 5.0184s0.58617-0.8487 0.59247-1.886c0.01721-2.8358 0.92179-5.658 1.8135-5.658 0.47069 0 0.57512 2.2922 0.25778 5.658-0.56667 6.0104 0.77739 11.599 3.5177 14.627 1.9616 2.1675 2.7818 1.8675 2.7818-1.0175 0-1.3893 0.34967-3.181 0.77704-3.9816s1.0201-2.2099 1.3172-3.132c0.53721-1.6672 0.54687-1.6674 1.7578-0.02185 0.66967 0.91004 1.4407 3.0497 1.7133 4.7548 0.4343 2.7159 0.76936 3.0823 2.7033 2.9556 1.6926-0.11084 2.269 0.28645 2.4712 1.7031 0.25761 1.8052 0.45861 1.8358 8.7273 1.3321 7.1746-0.4371 9.1772-0.89342 13.149-2.996zm-25.072-8.0442c0-0.40457 0.5658-1.2052 1.2573-1.7791 1.7555-1.4569 1.5668-2.5147-0.4486-2.5147-0.93827 0-2.6357-0.60918-3.772-1.3537-5.7579-3.7727 1.9873-10.558 7.9278-6.9454 2.8266 1.7189 3.3232 4.1783 1.5317 7.5859-1.9996 3.8036-6.4963 7.2694-6.4963 5.007zm-7.1249-2.076c-3.4769-3.984-4.2535-10.25-1.6345-13.189 1.7193-1.9289 6.1378-4.1171 8.3134-4.1171 2.1111 0 1.4585 1.6564-1.2538 3.1823-1.396 0.78535-2.7501 2.2488-3.0092 3.2522s-1.188 2.4732-2.0643 3.2662c-1.4282 1.2925-1.457 1.5416-0.27775 2.4038 0.83606 0.61134 1.2151 1.9095 1.04 3.5619-0.19392 1.8298-0.5238 2.3154-1.1138 1.6394zm17.37-15.346c-3.2495-1.6016-2.9968-2.3427 0.5344-1.5671 2.7336 0.6004 5.4502 2.9752 3.3638 2.9406-0.63273-0.01049-2.3869-0.62855-3.8982-1.3735zm-22.274-7.6253c-0.78785-1.2748 0.26474-3.5555 1.6409-3.5555 1.4708 0 1.483 0.92483 0.03826 2.9006-0.71121 0.97264-1.333 1.2152-1.6792 0.65497zm3.0381-17.813c-0.12542-11.238 0.87891-14.47 1.9164-6.166 0.6484 5.1895-0.03984 15.3-1.1146 16.375-0.37412 0.37412-0.7349-4.2199-0.80174-10.209zm-5.2589-10.496c0-0.70601-0.60186-1.5146-1.3374-1.7969s-2.4746-1.5518-3.8643-2.8212-3.5643-2.5154-4.8322-2.769c-4.2622-0.85245-7.288-4.2525-7.9018-8.8792-0.30461-2.2963-0.92011-4.4014-1.3678-4.6781-1.5222-0.94076-0.82853-2.1982 0.90852-1.6468 1.3823 0.43872 1.9152 0.03601 2.6984-2.0391 0.53681-1.4222 1.2705-2.5858 1.6305-2.5858 1.1424 0 0.70569 3.745-0.66494 5.7018-2.3625 3.3729-0.91325 6.3411 4.5091 9.2351 2.7667 1.4766 5.4137 3.6358 6.2964 5.1362 0.83766 1.4237 1.8542 2.3839 2.259 2.1337s-1.0864-2.3357-3.3138-4.6344c-3.7322-3.852-4.5944-5.9584-1.6856-4.1183 2.5078 1.5865 2.7064 0.71022 0.38746-1.7102-1.3205-1.3783-2.185-2.7217-1.9213-2.9855 0.70794-0.70794 6.4342 4.555 7.7062 7.0827 1.4118 2.8055 2.4383 12.659 1.3188 12.659-0.45395 0-0.82537-0.57764-0.82537-1.2836zm38.043-1.0343c-2.6545-1.7488-2.1679-10.149 0.63032-10.881 0.86015-0.22494 2.5664-2.2509 3.7916-4.5021 2.0546-3.7749 3.6378-5.214 3.6378-3.3065 0 0.43263-1.1316 2.8485-2.5147 5.3687-1.6152 2.9432-2.5147 5.7854-2.5147 7.9462 0 5.2275-0.88119 6.7903-3.0304 5.3744zm4.614-3.3401c-0.32804-5.1863 0.21242-6.1171 6.3506-10.937 1.6022-1.2582 2.513-2.7922 2.6259-4.4227 0.18883-2.7276 2.3906-6.6435 3.7353-6.6435 1.5286 0 1.8204 2.4448 0.4549 3.8104-0.73632 0.73632-1.3388 1.8932-1.3388 2.5709 0 2.5811-3.879 9.3933-6.442 11.313-1.4713 1.1021-2.8941 2.8526-3.1619 3.8899-0.57603 2.2319-2.0914 2.5174-2.2241 0.41911zm3.4457 53.437c0-0.46102-0.37721-0.83823-0.83823-0.83823s-0.83823 0.37721-0.83823 0.83823 0.3772 0.83823 0.83823 0.83823 0.83823-0.37721 0.83823-0.83823zm-96.341-8.2802c-0.98374-1.8381-2.2746-2.2071-3.963-1.1328-0.72748 0.46284-0.66759 1.3502 0.23621 3.4997l1.2108 2.8796 1.734-1.734c1.433-1.433 1.5687-2.0426 0.78208-3.5125zm-4.3278-3.1208c1.2497-0.73824 2.6282-1.991 3.0631-2.7839 4.5969-8.3794 8.1584-11.511 15.271-13.426 1.9949-0.53717 4.9643-2.31 6.8074-4.0643 2.8174-2.6815 3.3534-3.7866 3.8786-7.9967 0.9608-7.7007-1.7307-11.816-4.0692-6.2213-1.9072 4.5626-5.4303 6.2108-9.926 4.6435-2.3803-0.82979-2.7515-0.66232-5.7136 2.5782-2.0478 2.2402-3.8874 3.4656-5.2027 3.4656-2.509 0-5.2592 3.5255-7.7338 9.9141-0.98701 2.5482-2.2517 4.7854-2.8105 4.9716-1.6625 0.55416-2.8754-3.9884-2.8556-10.695 0.01555-5.262-0.10171-5.8085-0.71942-3.3529-1.2948 5.1474-0.88716 16.859 0.70023 20.117 0.7862 1.6136 1.8066 3.2109 2.2677 3.5496 1.4094 1.0354 4.6496 0.71306 7.0429-0.70075zm9.0605-2.8489c0.69312-2.0746 1.5384-4.1492 1.8783-4.6102s0.85678-1.5071 1.1485-2.3245c0.45045-1.2623 0.28059-1.3526-1.1272-0.59918-0.91167 0.48791-1.6576 1.1943-1.6576 1.5697s-1.0949 2.3129-2.4332 4.3055c-2.4553 3.6559-2.5902 6.1433-0.30805 5.6815 0.68143-0.13789 1.8061-1.9481 2.4992-4.0227zm-16.523-25.615c0-0.2033-0.3772-0.36964-0.83822-0.36964s-0.83823 0.39946-0.83823 0.8877 0.3772 0.65457 0.83823 0.36964 0.83822-0.6844 0.83822-0.8877zm18.79-38.885c2.5996-0.06965 1.1073-0.81598-5.0404-2.5207-4.8854-1.3547-6.3482-1.4501-9.5499-0.62273-2.0795 0.53734-4.0389 1.3424-4.3542 1.7891-0.8311 1.1772 0.12688 2.3394 1.4954 1.8142 0.64439-0.24728 1.9502-0.16157 2.9018 0.19045s4.2525 0.35939 7.3354 0.01638 6.3282-0.64304 7.2118-0.66671zm13.571-4.7224c-0.42614-1.1105 1.8183-11.789 3.2767-15.589 0.33135-0.86349-0.87367-1.141-5.2399-1.2065-5.2148-0.07831-9.2246-0.65754-18.272-2.6394-6.2892-1.3777-13.386-5.9393-20.312-13.055-6.028-6.1936-6.8342-7.4215-8.5653-13.047-1.5747-5.1166-1.8294-7.4032-1.4471-12.993 0.42354-6.1934 0.35307-6.6374-0.81075-5.1066-1.9912 2.6189-4.5094 8.8346-5.3293 13.154-0.80042 4.2169 0.52355 14.018 2.7723 20.523 1.3758 3.9796 6.0918 10.33 7.6714 10.33 0.57879 0 1.4556 0.88513 1.9486 1.967 1.3602 2.9854 10.72 9.7126 12.769 9.177 1.1739-0.30698 1.6923-0.03402 1.6923 0.89103 0 1.3382 2.7944 3.1335 6.7058 4.3084 1.1526 0.34619 1.8435 0.36191 1.5353 0.03493-0.86469-0.91761 1.046-5.6034 2.1224-5.2051 0.52388 0.19383 0.80664 0.87108 0.62837 1.505s-0.50844 2.0956-0.73373 3.2481c-0.33528 1.7154-0.20804 1.9055 0.70134 1.0478 1.4605-1.3775 2.4521-1.329 2.4521 0.11987 0 2.1942 5.5096 3.0378 7.4286 1.1375 0.84746-0.83922 1.2228-0.7558 1.8858 0.41911 1.0141 1.7973 2.4208 1.9191 2.4208 0.20956 0-1.8542 1.7623-1.5291 2.2718 0.41911 0.24112 0.92205 1.0006 1.6764 1.6877 1.6764 0.79499 0 1.0642-0.48233 0.74025-1.3264zm95.956-7.8941c1.2277 0 1.6079-0.59456 1.6079-2.5147 0-1.3831 0.3772-2.5147 0.83823-2.5147s0.83822 0.68066 0.83822 1.5126c0 1.1729 0.753 1.557 3.3529 1.7104 2.8809 0.16999 3.3529-0.04294 3.3529-1.5126 0-0.94073 0.3772-1.7104 0.83822-1.7104s0.83823 0.44295 0.83823 0.98434 0.99475 0.06989 2.2106-1.0478c1.5142-1.392 2.3284-1.7021 2.5845-0.98434 0.63998 1.793 2.6186 1.1562 4.558-1.4669 1.0226-1.3831 2.4484-2.5163 3.1684-2.5183 1.5524-0.00429 8.2669-6.0639 10.677-9.636 4.0974-6.0719 5.6786-17.493 3.5753-25.823-0.81516-3.2287-6.3602-12.054-7.1054-11.308-0.17698 0.17697 0.45009 2.7574 1.3935 5.7343 1.3569 4.2816 1.6073 6.6378 1.1985 11.277-0.57625 6.5388-2.1018 9.4378-8.0324 15.265-5.7929 5.6916-23.892 13.657-31.031 13.657h-3.0979l0.71288 3.8158c0.81256 4.3494 2.3536 7.7196 2.3981 5.2446 0.01402-0.77959 0.46156-1.6869 0.99456-2.0164 0.69564-0.42993 0.81482 0.17233 0.42238 2.1345-0.45417 2.2709-0.32286 2.6476 0.77594 2.2259 0.72745-0.27915 2.0462-0.50754 2.9305-0.50754zm-376.74 440.26c-1.1914-1.9278 15.171-21.143 18.003-21.142 0.79042 1.9e-4 -1.8253 3.2072-6.2867 7.7077-5.9613 6.0136-7.3044 7.7797-6.1119 8.0365 0.94586 0.20367 1.3472 0.8013 1.0531 1.568-0.35563 0.92673-0.05437 1.1052 1.1958 0.70842 1.9494-0.61871 2.0978 0.20617 0.43275 2.4047-0.98901 1.3059-1.5935 1.4224-3.6534 0.70434-1.6403-0.57182-2.7486-0.58016-3.3039-0.02486-0.52303 0.52303-1.0202 0.53699-1.329 0.03732zm-89.386-2.9802c0-1.6081 5.5765-7.8047 6.346-7.0517 0.35521 0.34759-0.12577 1.4792-1.0689 2.5147s-2.1523 2.7314-2.6872 3.7687c-1.07 2.0753-2.5899 2.5262-2.5899 0.76833zm-70.082-2.5926c0.35408-1.4108-0.36934-3.7216-2.3617-7.544-1.6904-3.2431-2.4588-5.5103-1.8675-5.5103 0.55253 0 1.7505 1.3902 2.6621 3.0894 2.261 4.2142 5.2568 6.8576 7.1968 6.3503 1.3049-0.34125 1.5857 0.04786 1.5857 2.1978 0 2.9464 0.05717 2.9114-2.9091 1.7836-1.7039-0.64783-2.2846-0.55629-2.6589 0.41912-0.79681 2.0764-2.1979 1.4081-1.6473-0.78582zm10.568-2.052c0-1.7861-0.5658-4.8512-1.2573-6.8112-1.4493-4.1076-1.5447-5.0294-0.52081-5.0294 0.94268 0 2.3377 3.6672 3.0293 7.9632 0.29687 1.8441 0.7435 4.2016 0.99251 5.2389 0.32691 1.3618 0.07801 1.886-0.89546 1.886-1.0068 0-1.3482-0.82237-1.3482-3.2475zm311.82-0.455c0-3.3341-2.5128-9.6449-4.4957-11.291-1.2383-1.0277-1.3728-0.74078-1.3811 2.9457-0.01254 5.5533-0.8762 10.371-1.8592 10.371-0.72739 0-0.42787-5.6932 0.66541-12.648 0.23922-1.5218-0.2814-2.755-1.7426-4.1277-2.3519-2.2095-2.8313-5.8565-0.76991-5.8565 0.89213 0 1.1574 0.49281 0.82652 1.5354-0.35696 1.1247 0.63692 2.4833 3.7155 5.0792 2.3116 1.9491 4.2028 3.8526 4.2028 4.2298s0.59789 2.1169 1.3286 3.8658c0.92467 2.213 1.5333 2.8487 2.0018 2.0905 0.88129-1.426 2.6037-0.34682 1.9917 1.2479-0.77536 2.0205 1.0843 1.3931 2.5639-0.86508 1.6626-2.5374 3.0907-2.6643 4.5047-0.40009 1.0915 1.7477 0.62802 2.2756-2.4761 2.82-0.61228 0.1074-2.7872 1.0214-4.8331 2.031s-3.8377 1.8357-3.9816 1.8357-0.26167-1.2889-0.26167-2.8643zm-20.956 0.54099c0-0.8844-0.7544-2.2907-1.6764-3.1252-1.9635-1.7769-2.1581-2.9338-0.49362-2.9338 1.4952 0 5.6981 4.9227 5.2786 6.1827-0.56841 1.7074-3.1086 1.6063-3.1086-0.1237zm7.5326-0.40093c-0.00629-0.57629-0.23889-1.8965-0.51688-2.9338-0.36976-1.3797-0.14597-1.886 0.83371-1.886 1.4377 0 2.7232 3.5196 1.8196 4.9817-0.75321 1.2187-2.1225 1.1149-2.1365-0.16191zm120.18-1.8979c-1.2276-3.1992 11.28-16.84 17.514-19.102 2.3768-0.86216 1.6784 0.60535-1.0572 2.2213-5.9397 3.5087-17.021 15.635-14.288 15.635 1.3468 0 1.0569 1.4314-0.40345 1.9918-0.73295 0.28126-1.4945-0.04072-1.7653-0.7463zm4.7308-1.9416c0-1.6807 6.5865-6.8479 8.7289-6.8479 2.1538 0 1.5251 1.3922-1.1242 2.4896-2.7928 1.1568-5.9364 4.2162-4.3322 4.2162 0.55969 0 0.78449 0.3772 0.49956 0.83823-0.91493 1.4804-3.772 0.9531-3.772-0.69614zm9.6507-0.12414c-0.54441-0.88086 2.7877-5.8855 3.9186-5.8855 1.0658 0 0.809 1.0365-0.98667 3.9816-1.7886 2.9335-2.1504 3.1685-2.9319 1.904zm-387.92-155.15c-1.9754-1.177-1.0597-2.4611 1.7436-2.4451 2.3074 0.01314 5.038 1.2562 4.3252 1.969-0.98427 0.98428-4.7236 1.2776-6.0688 0.47609z"/>
</svg>
