<?xml version="1.0" encoding="utf-8"?>
<!-- Generator: Adobe Illustrator 22.1.0, SVG Export Plug-In . SVG Version: 6.00 Build 0)  -->
<svg version="1.1" id="Layer_1" xmlns="http://www.w3.org/2000/svg" xmlns:xlink="http://www.w3.org/1999/xlink" x="0px" y="0px"
	 viewBox="0 0 512 512" style="enable-background:new 0 0 512 512;" xml:space="preserve">
<rect x="-0.5" y="-0.5" style="fill:#DCDCDC;" width="513" height="513"/>
<rect y="387" style="fill:#DFDFDF;" width="512" height="111"/>
<rect y="401" style="fill:#444444;" width="512" height="111"/>
<line style="fill:none;stroke:#F4F4F4;stroke-width:3;stroke-miterlimit:10;stroke-dasharray:66;" x1="26" y1="456" x2="469" y2="456"/>
<path style="fill:#D2D2D2;" d="M464.7,253H104.6c-5.1,0-9.3,4.2-9.3,9.3v61.5c0,0.2,0,0.5,0,0.7c-0.2,3.7-3.2,6.7-7,7l-31,3.4
	c-15.6,1.2-28.5,11.8-33.2,26c-0.2,0.5-0.3,1.1-0.5,1.6c-0.2,0.6-0.3,1.1-0.5,1.7c-0.5,2.3-0.9,4.6-1,7c0,0.6,0,1.1,0,1.7v45.6
	c0,4.5,3.6,8.1,8.1,8.1h31.6c0,0,2.3-41.2,36.3-39.4s37.7,28.6,36.3,39.4h245.2c0,0,4.2-44.1,41.1-44.1s32.9,36.1,35.4,44.1h8.5
	c4.5,0,8.1-3.6,8.1-8.1V261.2C472.9,256.6,469.3,253,464.7,253z M156.3,319.3h-40.1v-46.4h40.1V319.3z M441.1,319.3h-214v-46.4h214
	V319.3z"/>
<path style="fill:none;" d="M456.2,414.8h-76.4c0,0,4.2-44.1,41.1-44.1S453.7,406.9,456.2,414.8z"/>
<path style="fill:none;" d="M134.5,414.8H61.9c0,0,2.3-41.2,36.3-39.4C132.3,377.4,135.9,404.1,134.5,414.8z"/>
<rect x="227.1" y="272.9" style="fill:none;stroke:#8E8E8E;stroke-width:5;stroke-linecap:round;stroke-linejoin:round;stroke-miterlimit:10;" width="214" height="46.4"/>
<rect x="116.2" y="272.9" style="fill:none;stroke:#8E8E8E;stroke-width:5;stroke-linecap:round;stroke-linejoin:round;stroke-miterlimit:10;" width="40.1" height="46.4"/>
<rect x="171.6" y="272.9" style="fill:none;stroke:#8E8E8E;stroke-width:5;stroke-linecap:round;stroke-linejoin:round;stroke-miterlimit:10;" width="40.1" height="153.8"/>
<path style="fill:none;stroke:#8E8E8E;stroke-width:5;stroke-linecap:round;stroke-linejoin:round;stroke-miterlimit:10;" d="
	M472.9,261.2v157.4c0,4.5-3.6,8.1-8.1,8.1h-8.5c-2.5-7.9,1.5-44.1-35.4-44.1s-41.1,44.1-41.1,44.1H134.5
	c1.3-10.8-2.3-37.5-36.3-39.4s-36.3,39.4-36.3,39.4H30.3c-4.5,0-8.1-3.6-8.1-8.1V373c0-0.6,0-1.1,0-1.7c0.1-2.4,0.4-4.7,1-7
	c0.1-0.6,0.3-1.2,0.5-1.7c0.2-0.5,0.3-1.1,0.5-1.6c4.7-14.2,17.6-24.8,33.2-26.2l31-3.4c3.7-0.4,6.6-3.2,7-6.8c0-0.2,0-0.5,0-0.7
	v-61.5c0-5.1,4.2-9.3,9.3-9.3h360.1C469.3,253,472.9,256.6,472.9,261.2z"/>
</svg>
