<?xml version="1.0" encoding="utf-8"?>
<!-- Generator: Adobe Illustrator 22.1.0, SVG Export Plug-In . SVG Version: 6.00 Build 0)  -->
<svg version="1.1" id="svg5428" xmlns="http://www.w3.org/2000/svg" xmlns:xlink="http://www.w3.org/1999/xlink" x="0px" y="0px"
	 viewBox="0 0 356.1 201.9" style="enable-background:new 0 0 356.1 201.9;" xml:space="preserve">
<style type="text/css">
	.st0{fill:none;stroke:#000000;stroke-width:0.25;stroke-miterlimit:10;}
</style>
<g id="g5447" transform="matrix(-1,0,0,1,884.61108,73.581274)">
	<path id="path5513" class="st0" d="M535.6,74.3c-4.1-2.1-7.2-3.9-6.7-4s3.9,1.5,7.7,3.5c7.4,3.7,14.3,4.6,17,2.3
		c1.2-1.1,1.2-1,0.1,0.5C551.3,79.7,544.2,78.8,535.6,74.3z M588.6,60.8c-19-9.6-33.7-17.4-32.8-17.4c2.1-0.1,68.8,33.1,68.8,34.2
		c0,0.4-0.3,0.7-0.8,0.7C623.4,78.2,607.6,70.4,588.6,60.8z M637.9,57.4c-0.9-1.4-0.7-1.7,0.8-1.6c2.5,0.2,3,0.8,1.5,2.1
		C639.2,58.8,638.7,58.7,637.9,57.4L637.9,57.4z M641.9-7.7l113.8-56.9l18,9c13.9,6.9,18.9,9,22.1,9c4.1,0,12.9-4,50.7-23.3
		c4.1-2.1,7.6-3.6,7.8-3.4s-12,6.5-27.1,14c-21.7,10.8-28.3,13.7-31.5,13.7c-3.1,0-8.2-2.1-22.1-9l-18-9l-113,56.5
		C580.4,24,529.3,49.4,528.8,49.3C528.4,49.2,579.3,23.6,641.9-7.7z M663.9,38.5c-10.6-5.3-19.4-10.2-19.7-10.9
		c-0.3-0.7,8.7,3.3,20,9c17.7,8.8,22.9,11.9,19.7,11.7C683.4,48.2,674.5,43.9,663.9,38.5z M617.3,33.5c-1.5-1.6-1.5-1.8,0.1-1.8
		c1,0,1.7,0.8,1.7,1.8s-0.1,1.8-0.1,1.8S618.2,34.5,617.3,33.5z M697.9,27.4c-0.9-1.4-0.7-1.7,0.8-1.6c2.5,0.2,3,0.8,1.5,2.1
		C699.2,28.8,698.7,28.7,697.9,27.4L697.9,27.4z M723.9,8.5c-10.6-5.3-19.4-10.2-19.7-10.9s8.7,3.3,20,9
		c17.7,8.8,22.9,11.9,19.7,11.7C743.4,18.2,734.5,13.9,723.9,8.5z M677.3,3.5c-1.5-1.6-1.5-1.8,0.1-1.8c1,0,1.7,0.8,1.7,1.8
		S679,5.3,679,5.3S678.2,4.5,677.3,3.5z M757.9-2.6c-0.9-1.4-0.7-1.7,0.8-1.6c2.5,0.2,3,0.8,1.5,2.1C759.2-1.2,758.7-1.3,757.9-2.6
		L757.9-2.6z M880.9-11.9c-2.9-1.4-2.8-2.2,0.3-3.6c3.4-1.6,3.5-1.6,3.5,1.8C884.6-10.4,884.3-10.3,880.9-11.9z M783.9-21.5
		c-10.6-5.3-19.4-10.2-19.7-10.9s8.7,3.3,20,9c17.7,8.8,22.9,11.9,19.7,11.7C803.4-11.8,794.5-16.1,783.9-21.5z M868.9-17.9
		c-1.2-0.6-2.3-1.4-2.3-1.7c0-0.6,16.4-9.1,17.5-9.1c0.3,0,0.5,1.5,0.5,3.3c0,3-0.5,3.5-5.5,6C873-16.4,872.2-16.3,868.9-17.9z
		 M856.9-23.9c-1.2-0.6-2.3-1.4-2.3-1.7c0-0.6,28.4-15.1,29.5-15.1c0.3,0,0.5,1.5,0.5,3.3c0,3.2-0.3,3.4-11.5,9
		C860.9-22.3,860.4-22.2,856.9-23.9L856.9-23.9z M737.3-26.5c-1.5-1.6-1.5-1.8,0.1-1.8c1,0,1.7,0.8,1.7,1.8s-0.1,1.8-0.1,1.8
		S738.2-25.5,737.3-26.5z M844.9-29.9c-1.2-0.6-2.3-1.4-2.3-1.7c0-0.6,40.4-21.1,41.5-21.1c0.3,0,0.5,1.5,0.5,3.3
		c0,3.2-0.2,3.4-17.5,12c-9.6,4.8-18.1,8.7-18.8,8.7C847.7-28.8,846.1-29.3,844.9-29.9z M832.9-35.9c-1.2-0.6-2.3-1.4-2.3-1.7
		s9.7-5.4,21.5-11.3l21.5-10.7l3.6,1.7l3.6,1.7l-21.3,10.7c-11.7,5.9-22,10.7-22.8,10.7C835.8-34.8,834.1-35.3,832.9-35.9z
		 M820.9-41.9c-1.2-0.6-2.3-1.4-2.3-1.7s9.7-5.4,21.5-11.3l21.5-10.7l3.6,1.7l3.6,1.7l-21.3,10.7c-11.7,5.9-22,10.7-22.8,10.7
		C823.8-40.8,822.1-41.3,820.9-41.9z"/>
	<path id="path5511" class="st0" d="M640.2,63.8c-0.4-2-0.5-3.8-0.2-4.1c0.2-0.2,0.8,1.2,1.1,3.2c0.4,2,0.5,3.8,0.2,4.1
		C641.1,67.2,640.5,65.8,640.2,63.8z M640.6,55.8c0-0.7,22.1-11.7,22.6-11.3c0.2,0.2-4.8,2.9-11.1,6.1
		C645.8,53.7,640.6,56.1,640.6,55.8z M628.6,51.3c-3.6-2.2-6-3.9-5.5-3.9s3.9,1.8,7.5,4s6,3.9,5.5,3.9S632.2,53.5,628.6,51.3z
		 M620.2,41.2c-0.9-2.9-1.4-5.4-1.2-5.7s1.1,2,1.9,4.9s1.4,5.5,1.2,5.7C621.9,46.3,621,44.1,620.2,41.2z M700.2,33.8
		c-0.4-2-0.5-3.8-0.2-4.1c0.2-0.2,0.8,1.2,1.1,3.2c0.4,2,0.5,3.8,0.2,4.1C701.1,37.2,700.5,35.8,700.2,33.8z M587.6,30.3
		c-1.9-1.1-3.1-1.9-2.7-2c1.1-0.1,6.7,2.9,6.7,3.5C591.6,32.5,591.6,32.5,587.6,30.3z M606.6,27.8c-4.7-2.4-8.2-4.4-7.7-4.4
		c1.1-0.1,16.7,7.9,16.7,8.5S616,32.7,606.6,27.8z M619.6,31.8c0-0.7,18.1-9.7,18.6-9.3c0.2,0.2-3.9,2.5-9.1,5.1
		S619.6,32.1,619.6,31.8z M700.6,25.8c0-0.7,22.1-11.7,22.6-11.3c0.2,0.2-4.8,2.9-11.1,6.1C705.8,23.7,700.6,26.1,700.6,25.8z
		 M688.6,21.3c-3.6-2.2-6-3.9-5.5-3.9s3.9,1.8,7.5,4s6,3.9,5.5,3.9S692.2,23.5,688.6,21.3z M680.2,11.2c-0.9-2.9-1.4-5.4-1.2-5.7
		c0.2-0.2,1.1,2,1.9,4.9s1.4,5.5,1.2,5.7C681.9,16.3,681,14.1,680.2,11.2z M647.6,0.3c-1.9-1.1-3.1-1.9-2.7-2
		c1.1-0.1,6.7,2.9,6.7,3.5C651.6,2.5,651.6,2.5,647.6,0.3z M666.6-2.2c-4.7-2.4-8.2-4.4-7.7-4.4c1.1-0.1,16.7,7.9,16.7,8.5
		S676,2.7,666.6-2.2z M679.6,1.8c0-0.7,18.1-9.7,18.6-9.3c0.2,0.2-3.9,2.5-9.1,5.1S679.6,2.1,679.6,1.8z"/>
	<path id="path5509" class="st0" d="M626.2,64.7c-0.9-0.9-1.6-2.3-1.5-3.3c0-1.4,0.2-1.3,1.1,0.3c0.6,1.1,1.8,2.6,2.7,3.2
		s1.1,1.3,0.4,1.3S627,65.6,626.2,64.7z M652.5,50.4l11.4-5.8l-8.9-5.2c-4.9-2.8-8.5-5.2-8-5.2c1.2,0,16.4,8.9,17.1,10.1
		c0.5,0.8-20.5,12-22.3,11.9C641.5,56.2,646.2,53.6,652.5,50.4z M590.2,46.7c-0.9-0.9-1.6-2.3-1.5-3.3c0-1.4,0.2-1.3,1.1,0.3
		c0.6,1.1,1.8,2.6,2.7,3.3s1.1,1.3,0.4,1.3S591,47.6,590.2,46.7z M686.2,34.7c-0.9-0.9-1.6-2.3-1.5-3.3c0-1.4,0.2-1.3,1.1,0.3
		c0.6,1.1,1.8,2.6,2.7,3.3s1.1,1.3,0.4,1.3S687,35.6,686.2,34.7z M712.5,20.4l11.4-5.8L715,9.5c-4.9-2.8-8.5-5.2-8-5.2
		c1.2,0,16.4,8.9,17.1,10.1c0.5,0.8-20.5,12-22.3,11.9C701.5,26.2,706.2,23.6,712.5,20.4z M607.9,18.3l11.8-6l9.7,5
		c5.4,2.7,9.4,5,9,5s-4.8-2-9.7-4.5l-9-4.5l-11,5.5c-6,3-11.3,5.5-11.8,5.5C596.5,24.2,601.4,21.5,607.9,18.3z M650.2,16.7
		c-0.9-0.9-1.6-2.3-1.5-3.3c0-1.4,0.2-1.3,1.1,0.3c0.6,1.1,1.8,2.6,2.7,3.3s1.1,1.3,0.4,1.3S651,17.6,650.2,16.7z M760.2,3.8
		c-0.4-2-0.5-3.8-0.2-4.1c0.2-0.2,0.8,1.2,1.1,3.2s0.5,3.8,0.2,4.1C761.1,7.2,760.5,5.8,760.2,3.8z M746.2,4.7
		c-0.9-0.9-1.6-2.3-1.5-3.3c0-1.4,0.2-1.3,1.1,0.3c0.6,1.1,1.8,2.6,2.7,3.3s1.1,1.3,0.4,1.3S747,5.6,746.2,4.7z M760.6-4.2
		c0-0.3,5-3,11.2-6.1l11.2-5.6l-8.4-4.9c-4.6-2.7-8-4.9-7.5-4.9c1.2,0,16.4,9,17.1,10.1c0.3,0.5-4.4,3.4-10.5,6.4
		C763.3-4,760.6-3,760.6-4.2z M748.6-8.7c-3.6-2.2-6-3.9-5.5-3.9s3.9,1.8,7.5,4s6,3.9,5.5,3.9C755.6-4.7,752.2-6.5,748.6-8.7z
		 M667.9-11.7l11.8-6l9.7,5c5.4,2.7,9.4,5,9,5s-4.8-2-9.7-4.5l-9-4.5l-11,5.5c-6,3-11.3,5.5-11.8,5.5
		C656.5-5.8,661.4-8.5,667.9-11.7z M710.2-13.3c-0.9-0.9-1.6-2.3-1.5-3.3c0-1.4,0.2-1.3,1.1,0.3c0.6,1.1,1.8,2.6,2.7,3.3
		s1.1,1.3,0.4,1.3S711-12.4,710.2-13.3z M740.2-18.8c-0.9-2.9-1.4-5.4-1.2-5.7c0.2-0.2,1.1,2,1.9,4.9s1.4,5.5,1.2,5.7
		S741-15.9,740.2-18.8z M707.6-29.7c-1.9-1.1-3.1-1.9-2.7-2c1.1-0.1,6.7,2.9,6.7,3.5C711.6-27.5,711.6-27.5,707.6-29.7z M727.6-31.7
		c-4.1-2.1-8.4-3.9-9.5-4s3.3-2.8,9.7-6.1l11.7-5.9L749-43c5.2,2.6,9.5,5,9.5,5.3s-4.3,2.7-9.6,5.3s-9.4,4.4-9.1,4
		c0.3-0.4,4.1-2.6,8.6-4.7s8.1-4.2,8.1-4.5s-3.8-2.5-8.5-4.8l-8.5-4.2l-9.5,4.7c-5.2,2.6-9.5,5-9.5,5.3s3.2,2.1,7.1,4
		c3.9,1.9,7.3,3.8,7.6,4.2C735.9-27.4,735.9-27.4,727.6-31.7z"/>
	<path id="path5505" class="st0" d="M641.7,61.1c-0.1-1.5,0.1-2.8,0.3-2.8s1.2-0.3,2.3-0.6c1.7-0.6,1.7-0.5,0.2,0.8
		c-0.9,0.8-1.9,2.3-2.1,3.4C642,63.3,641.8,63.1,641.7,61.1z M659.7,52.1c-0.1-1.5,0.1-2.8,0.3-2.8s1.2-0.3,2.3-0.6
		c1.7-0.6,1.7-0.5,0.2,0.8c-0.9,0.8-1.9,2.3-2.1,3.4C660,54.3,659.8,54.1,659.7,52.1z M701.7,31.1c-0.1-1.5,0.1-2.8,0.3-2.8
		s1.2-0.3,2.3-0.6c1.7-0.6,1.7-0.5,0.2,0.8c-0.9,0.8-1.9,2.3-2.1,3.4C702,33.3,701.8,33.1,701.7,31.1z M719.7,22.1
		c-0.1-1.5,0.1-2.8,0.3-2.8s1.2-0.3,2.3-0.6c1.7-0.6,1.7-0.5,0.2,0.8c-0.9,0.8-1.9,2.3-2.1,3.4C720,24.3,719.8,24.1,719.7,22.1z
		 M761.7,1.1c-0.1-1.5,0.1-2.8,0.3-2.8s1.2-0.3,2.3-0.6c1.7-0.6,1.7-0.5,0.2,0.7c-0.9,0.8-1.9,2.3-2.1,3.4
		C762,3.3,761.8,3.1,761.7,1.1z M779.7-7.9c-0.1-1.5,0.1-2.8,0.3-2.8s1.2-0.3,2.3-0.6c1.7-0.6,1.7-0.5,0.2,0.8
		c-0.9,0.8-1.9,2.3-2.1,3.4C780-5.7,779.8-5.9,779.7-7.9z"/>
	<path id="path5503" class="st0" d="M630.4,51.4l-7.7-4.7l11.4-5.7c6.3-3.1,12-5.7,12.7-5.7s4.6,2,8.6,4.4l7.4,4.4l-12.1,6.1
		c-6.7,3.3-12.3,6-12.4,6S634.7,54,630.4,51.4z M608.9,28c-4.5-2.3-8.3-4.4-8.3-4.7s4.3-2.7,9.5-5.3l9.5-4.7l8.5,4.2
		c4.7,2.3,8.5,4.5,8.5,4.8c0,0.5-18.6,10.1-19.3,9.9C617.2,32.2,613.4,30.3,608.9,28z M587.9,29.5l-3.2-1.7l12.5-6.2
		c6.9-3.4,12.8-6.2,13.2-6.2s-3.2,2-7.9,4.5c-7.4,3.8-8.8,4.9-9.3,7.4C592.3,31.2,591.7,31.4,587.9,29.5z"/>
	<path id="path5501" class="st0" d="M750.4-8.6l-7.7-4.7l11.4-5.7c6.3-3.1,12-5.7,12.7-5.7s4.6,2,8.6,4.4l7.4,4.4l-12.1,6.1
		c-6.7,3.3-12.3,6-12.4,6C758.2-3.8,754.7-6,750.4-8.6z M728.9-32c-4.5-2.3-8.3-4.4-8.3-4.7s4.3-2.7,9.5-5.3l9.5-4.7l8.5,4.2
		c4.7,2.3,8.5,4.5,8.5,4.8c0,0.5-18.6,10.1-19.3,9.9C737.2-27.8,733.4-29.7,728.9-32z M707.9-30.5l-3.2-1.7l12.5-6.2
		c6.9-3.4,12.8-6.2,13.2-6.2s-3.2,2-7.9,4.5c-7.4,3.8-8.8,4.9-9.3,7.4C712.3-28.8,711.7-28.6,707.9-30.5z"/>
	<path id="path5499" class="st0" d="M690.4,21.4l-7.7-4.7l11.4-5.7c6.3-3.1,12-5.7,12.7-5.7s4.6,2,8.6,4.4l7.4,4.4l-12.1,6.1
		c-6.7,3.3-12.3,6-12.4,6S694.7,24,690.4,21.4z M668.9-2c-4.5-2.3-8.3-4.4-8.3-4.7c0-0.3,4.3-2.7,9.5-5.3l9.5-4.7l8.5,4.2
		c4.7,2.3,8.5,4.5,8.5,4.8c0,0.5-18.6,10.1-19.3,9.9C677.2,2.2,673.4,0.3,668.9-2z M647.9-0.5l-3.2-1.7l12.5-6.2
		c6.9-3.4,12.8-6.2,13.2-6.2s-3.2,2-7.9,4.5c-7.4,3.8-8.8,4.9-9.3,7.4C652.3,1.2,651.7,1.4,647.9-0.5z"/>
	<path id="path5497" class="st0" d="M552.6,78.4c0-0.6,0.5-1.3,1-1.6s1-0.2,1,0.4s-0.5,1.3-1,1.6S552.6,79,552.6,78.4z M528.6,50.6
		c0-0.4,50.7-26.1,112.6-57.1c95.2-47.6,116.7-58,113.3-54.8c-0.6,0.6-224.8,112.6-225.4,112.6C528.8,51.3,528.6,51,528.6,50.6z
		 M800.6-45.4c0-1,55.1-28.3,57-28.2c1.4,0.1-54.5,28.8-56.3,28.9C800.9-44.7,800.6-45,800.6-45.4z"/>
	<path id="path5495" class="st0" d="M642.8,60.6c0.2-0.9,0.9-1.9,1.6-2.1c1.8-0.6,1.5,2.4-0.3,3.1C642.9,62.1,642.6,61.8,642.8,60.6
		z M660.8,51.6c0.2-0.9,0.9-1.9,1.6-2.1c1.8-0.6,1.5,2.4-0.3,3.1C660.9,53.1,660.6,52.8,660.8,51.6z M702.8,30.6
		c0.2-0.9,0.9-1.9,1.6-2.1c1.8-0.6,1.5,2.4-0.3,3.1C702.9,32.1,702.6,31.8,702.8,30.6z M720.8,21.6c0.2-0.9,0.9-1.9,1.6-2.1
		c1.8-0.6,1.5,2.4-0.3,3.1C720.9,23.1,720.6,22.8,720.8,21.6z M762.8,0.6c0.2-0.9,0.9-1.9,1.6-2.1c1.8-0.6,1.5,2.4-0.3,3.1
		C762.9,2.1,762.6,1.8,762.8,0.6z M780.8-8.4c0.2-0.9,0.9-1.9,1.6-2.1c1.8-0.6,1.5,2.4-0.3,3.1C780.9-6.9,780.6-7.2,780.8-8.4z"/>
	<path id="path5493" class="st0" d="M628.2,63.8c-2-2-2.1-3.6-0.2-2.9c1.4,0.6,3,3.3,2.2,4.1C630,65.2,629.1,64.7,628.2,63.8z
		 M592.2,45.8c-2-2-2.1-3.6-0.2-2.9c1.4,0.6,3,3.3,2.2,4.1C594,47.2,593.1,46.7,592.2,45.8z M688.2,33.8c-2-2-2.1-3.6-0.2-2.9
		c1.4,0.6,3,3.3,2.2,4.1C690,35.2,689.1,34.7,688.2,33.8z M652.2,15.8c-2-2-2.1-3.6-0.2-2.9c1.4,0.6,3,3.3,2.2,4.1
		C654,17.2,653.1,16.7,652.2,15.8z M748.2,3.8c-2-2-2.1-3.6-0.2-2.9c1.4,0.6,3,3.3,2.2,4.1C750,5.2,749.1,4.7,748.2,3.8z
		 M712.2-14.2c-2-2-2.1-3.6-0.2-2.9c1.4,0.6,3,3.3,2.2,4.1C714-12.8,713.1-13.3,712.2-14.2z"/>
	<path id="path5491" class="st0" d="M614.8,42l-4.3-2.2l3.5-1.7c1.9-0.9,3.7-1.4,3.9-1c0.6,1,1.9,7.2,1.5,7.2
		C619.3,44.2,617.2,43.2,614.8,42z M674.8,12l-4.3-2.2l3.5-1.7c1.9-0.9,3.7-1.4,3.9-1c0.6,1,1.9,7.2,1.5,7.2
		C679.3,14.2,677.2,13.2,674.8,12z M734.8-18l-4.3-2.2l3.5-1.7c1.9-0.9,3.7-1.4,3.9-1c0.6,1,1.9,7.2,1.5,7.2
		C739.3-15.8,737.2-16.8,734.8-18z"/>
	<path id="path5489" class="st0" d="M643.7,62.1c0.9-0.7,1.9-2,2.2-2.8c0.5-1.2,0.6-1.2,0.7,0.2c0,0.9-0.9,2.2-2.2,2.8
		C642.5,63.3,642.4,63.2,643.7,62.1z M661.7,53.1c0.9-0.7,1.9-2,2.2-2.8c0.5-1.2,0.6-1.2,0.7,0.2c0,0.9-0.9,2.2-2.2,2.8
		C660.5,54.3,660.4,54.2,661.7,53.1z M703.7,32.1c0.9-0.7,1.9-2,2.2-2.8c0.5-1.2,0.6-1.2,0.7,0.2c0,0.9-0.9,2.2-2.2,2.8
		C702.5,33.3,702.4,33.2,703.7,32.1z M721.7,23.1c0.9-0.7,1.9-2,2.2-2.8c0.5-1.2,0.6-1.2,0.7,0.2c0,0.9-0.9,2.2-2.2,2.8
		C720.5,24.3,720.4,24.2,721.7,23.1z M763.7,2.1c0.9-0.7,1.9-2,2.2-2.8c0.5-1.2,0.6-1.2,0.7,0.2c0,0.9-0.9,2.2-2.2,2.8
		C762.5,3.3,762.4,3.2,763.7,2.1z M781.7-6.9c0.9-0.7,1.9-2,2.2-2.8c0.5-1.2,0.6-1.2,0.7,0.2c0,0.9-0.9,2.2-2.2,2.8
		C780.5-5.7,780.4-5.8,781.7-6.9z"/>
	<path id="path5487" class="st0" d="M622.1,41.3c-0.3-0.5-0.2-1,0.4-1s1.3,0.5,1.6,1s0.2,1-0.4,1S622.5,41.9,622.1,41.3z M624,40
		c-3.5-1.9-4.8-5.7-2-5.7c1.9,0,8.5,3.2,8.5,4C630.6,39.9,626,41.1,624,40z M627.9,35.6c-3.9-1.9-4.1-3-0.8-3.8
		c3.7-0.9,11.3,3.7,8,5c-0.9,0.3-1.3,0.2-0.9-0.4c0.3-0.5,0.1-1-0.4-1s-1.1,0.5-1.1,1C632.6,37.6,631.7,37.5,627.9,35.6z
		 M633.9,32.6c-3.4-1.7-4.3-3.3-1.8-3.3c2,0,8.5,3.2,8.5,4.2C640.6,34.8,637.4,34.3,633.9,32.6z M682.1,11.3c-0.3-0.6-0.2-1,0.4-1
		s1.3,0.4,1.6,1s0.2,1-0.4,1S682.5,11.9,682.1,11.3z M684,10c-3.5-1.9-4.8-5.7-2-5.7c1.9,0,8.5,3.2,8.5,4C690.6,9.9,686,11.1,684,10
		z M687.9,5.6c-3.9-1.9-4.1-3-0.8-3.8c3.7-0.9,11.3,3.7,8,5c-0.9,0.3-1.3,0.2-0.9-0.4c0.3-0.5,0.1-1-0.4-1s-1.1,0.4-1.1,1
		C692.6,7.6,691.7,7.5,687.9,5.6z M693.9,2.6c-3.4-1.7-4.3-3.3-1.8-3.3c2,0,8.5,3.2,8.5,4.2C700.6,4.8,697.4,4.3,693.9,2.6z
		 M742.1-18.7c-0.3-0.5-0.2-1,0.4-1s1.3,0.5,1.6,1s0.2,1-0.4,1S742.5-18.1,742.1-18.7z M744-20c-3.5-1.9-4.8-5.7-2-5.7
		c1.9,0,8.5,3.2,8.5,4C750.6-20.1,746-18.9,744-20z M747.9-24.4c-3.9-1.9-4.1-3-0.8-3.8c3.7-0.9,11.3,3.7,8,5
		c-0.9,0.3-1.3,0.2-0.9-0.4c0.3-0.5,0.1-1-0.4-1s-1.1,0.5-1.1,1C752.6-22.4,751.7-22.5,747.9-24.4z M753.9-27.4
		c-3.4-1.7-4.3-3.3-1.8-3.3c2,0,8.5,3.2,8.5,4.2C760.6-25.2,757.4-25.7,753.9-27.4z"/>
	<path id="path5483" class="st0" d="M634.3,66.7c-0.4-0.4-0.7-1.8-0.7-3.1c0-2.8-5-8.3-7.6-8.3c-1,0-2.8,1-4.1,2.2s-2.6,1.9-2.9,1.6
		c-0.7-0.7,2.5-9.5,3.7-10.3c1.1-0.7,14.7,7.4,15.8,9.5c0.5,0.9,1.2,3.4,1.6,5.5c0.7,3.7,0.7,3.8-1.5,2.6c-1.6-0.9-2.4-0.9-2.9-0.1
		C635.3,66.8,634.7,67,634.3,66.7L634.3,66.7z M612.5,55.8c-4.6-2.4-4.7-2.5-5.4-8.5c-0.4-3.4-0.5-6.3-0.2-6.6s3.2,0.9,6.6,2.6
		c3.3,1.7,6.3,3.1,6.5,3.1s-0.3-2.7-1.1-6c-1.4-5.4-1.9-6.2-5.5-8.1c-2.2-1.1-4.2-1.8-4.4-1.6c-0.2,0.2-0.8,2.4-1.3,4.8
		c-0.6,3.3-0.9,3.6-0.9,1.4c0-1.7,0.3-4.2,0.6-5.7l0.6-2.7l5,2.7c4.2,2.3,5.2,3.4,6.3,7.2c2.2,7.5,2.2,10.2-0.1,15.2l-2.2,4.7
		L612.5,55.8z M601.4,50.3c-2.8-1.5-3.8-2.6-3.8-4.5c0-3-5-8.4-7.8-8.4c-1.1,0-2.5,0.6-3.1,1.4c-2.8,3.4-6.7-5.3-4.2-9.3
		c0.7-1.1,1.6-0.9,4.9,0.8c2.3,1.1,4.3,2.1,4.6,2.1s1-1.8,1.7-4c1-3.3,1.6-4,3.8-4c2.4,0,10.9,3.9,8.6,3.9c-0.5,0-2.1-0.6-3.5-1.4
		c-3.5-2-3.7-1.9-4.9,1.6c-1.8,5.2-1.4,6.3,3.4,8.6c3.7,1.8,4.5,2.7,4.5,4.9c0,1.5,0.3,4.5,0.6,6.5C607,52.8,606.5,53,601.4,50.3z"
		/>
	<path id="path5481" class="st0" d="M613.2,42.2l-5.9-3l0.5-4c0.3-2.2,0.8-4.2,1-4.5c0.7-0.7,8.7,3.5,8.7,4.6c0,0.5-1.6,1.8-3.6,2.8
		l-3.6,1.8l4.1,1.9c2.3,1,4.4,2.2,4.6,2.7C619.9,45.6,619.9,45.6,613.2,42.2z M601.1,36.1c-2.2-1.1-4.2-2.2-4.4-2.4
		c-0.5-0.4,1.8-8.4,2.4-8.4c0.2,0,2,0.8,4,1.7c3.6,1.7,4,2.9,2.7,8.5l-0.6,2.7L601.1,36.1z M673.2,12.2l-5.9-3l0.5-4
		c0.3-2.2,0.8-4.2,1-4.5c0.7-0.7,8.7,3.5,8.7,4.6c0,0.5-1.6,1.8-3.6,2.8l-3.6,1.8l4.1,1.9c2.3,1,4.4,2.2,4.6,2.7
		C679.9,15.6,679.9,15.6,673.2,12.2z M661.1,6.1c-2.2-1.1-4.2-2.2-4.4-2.4c-0.5-0.4,1.8-8.4,2.4-8.4c0.2,0,2,0.8,4,1.7
		c3.6,1.7,4,2.9,2.7,8.5l-0.6,2.7L661.1,6.1z M733.2-17.8l-5.9-3l0.5-4c0.3-2.2,0.8-4.2,1-4.5c0.7-0.7,8.7,3.5,8.7,4.6
		c0,0.5-1.6,1.8-3.6,2.8l-3.6,1.8l4.1,1.9c2.3,1,4.4,2.2,4.6,2.7C739.9-14.4,739.9-14.4,733.2-17.8z M721.1-23.9
		c-2.2-1.1-4.2-2.2-4.4-2.4c-0.5-0.4,1.8-8.4,2.4-8.4c0.2,0,2,0.8,4,1.7c3.6,1.7,4,2.9,2.7,8.5l-0.6,2.7L721.1-23.9z"/>
	<path id="path5479" class="st0" d="M754.3,6.7c-0.4-0.4-0.7-1.8-0.7-3.1c0-2.8-5-8.3-7.6-8.3c-1,0-2.8,1-4.1,2.2s-2.6,1.9-2.9,1.6
		c-0.7-0.7,2.5-9.5,3.7-10.3c1.1-0.7,14.7,7.4,15.8,9.5c0.5,0.9,1.2,3.4,1.6,5.5c0.7,3.7,0.7,3.8-1.5,2.6c-1.6-0.9-2.4-0.9-2.9-0.1
		C755.3,6.8,754.7,7,754.3,6.7L754.3,6.7z M732.5-4.2c-4.6-2.4-4.7-2.5-5.4-8.5c-0.4-3.4-0.5-6.3-0.2-6.6s3.2,0.9,6.6,2.6
		s6.3,3.1,6.5,3.1s-0.3-2.7-1.1-6c-1.4-5.4-1.9-6.2-5.5-8.1c-2.2-1.1-4.2-1.8-4.4-1.6s-0.8,2.4-1.3,4.8c-0.6,3.3-0.9,3.6-0.9,1.4
		c0-1.6,0.3-4.2,0.6-5.7l0.6-2.7l5,2.7c4.2,2.3,5.2,3.4,6.3,7.2c2.2,7.5,2.2,10.2-0.1,15.2L737-1.7L732.5-4.2z M721.4-9.7
		c-2.8-1.5-3.8-2.6-3.8-4.5c0-3-5-8.4-7.8-8.4c-1.1,0-2.5,0.6-3.1,1.4c-2.8,3.4-6.7-5.3-4.2-9.3c0.7-1.1,1.6-0.9,4.9,0.8
		c2.3,1.1,4.3,2.1,4.6,2.1s1-1.8,1.7-4c1-3.3,1.6-4,3.8-4c2.4,0,10.9,3.9,8.6,3.9c-0.5,0-2.1-0.6-3.5-1.4c-3.5-2-3.7-1.9-4.9,1.6
		c-1.8,5.2-1.4,6.3,3.4,8.6c3.7,1.8,4.5,2.7,4.5,4.9c0,1.5,0.3,4.5,0.6,6.5C727-7.2,726.5-7,721.4-9.7z"/>
	<path id="path5477" class="st0" d="M694.3,36.7c-0.4-0.4-0.7-1.8-0.7-3.1c0-2.8-5-8.3-7.6-8.3c-1,0-2.8,1-4.1,2.2s-2.6,1.9-2.9,1.6
		c-0.7-0.7,2.5-9.5,3.7-10.3c1.1-0.7,14.7,7.4,15.8,9.5c0.5,0.9,1.2,3.4,1.6,5.5c0.7,3.7,0.7,3.8-1.5,2.6c-1.6-0.9-2.4-0.9-2.9-0.1
		C695.3,36.8,694.7,37,694.3,36.7L694.3,36.7z M672.5,25.8c-4.6-2.4-4.7-2.5-5.4-8.5c-0.4-3.4-0.5-6.3-0.2-6.6s3.2,0.9,6.6,2.6
		s6.3,3.1,6.5,3.1s-0.3-2.7-1.1-6c-1.4-5.4-1.9-6.2-5.5-8.1c-2.2-1.1-4.2-1.8-4.4-1.6s-0.8,2.4-1.3,4.8c-0.6,3.3-0.9,3.6-0.9,1.4
		c0-1.7,0.3-4.2,0.6-5.7l0.6-2.7l5,2.7c4.2,2.3,5.2,3.4,6.3,7.2c2.2,7.5,2.2,10.2-0.1,15.2l-2.2,4.7L672.5,25.8z M661.4,20.3
		c-2.8-1.5-3.8-2.6-3.8-4.5c0-3-5-8.4-7.8-8.4c-1.1,0-2.5,0.6-3.1,1.4c-2.8,3.4-6.7-5.3-4.2-9.3c0.7-1.1,1.6-0.9,4.9,0.8
		c2.3,1.1,4.3,2.1,4.6,2.1s1-1.8,1.7-4c1-3.3,1.6-4,3.8-4c2.4,0,10.9,3.9,8.6,3.9c-0.5,0-2.1-0.6-3.5-1.4c-3.5-2-3.7-1.9-4.9,1.6
		c-1.8,5.2-1.4,6.3,3.4,8.6c3.7,1.8,4.5,2.7,4.5,4.9c0,1.5,0.3,4.5,0.6,6.5C667,22.8,666.5,23,661.4,20.3z"/>
	<path id="path5475" class="st0" d="M622.6,43.3c0-0.5,0.6-1,1.3-1s0.4-0.7-0.7-1.5c-2.1-1.6-1-2,1.3-0.5c1.4,0.9,6.1-0.6,6.1-1.9
		c0-0.9-6.7-4-8.5-4c-3.3,0-1-1.8,7.8-6.1l9.3-4.6l3.3,4.3c1.8,2.4,3.3,4.6,3.3,4.9c0,0.5-21.5,11.6-22.5,11.6
		C622.8,44.3,622.6,43.9,622.6,43.3L622.6,43.3z M632.6,36.3c0-0.5,0.5-1,1.1-1s0.8,0.4,0.4,1c-0.3,0.6,0,0.7,0.9,0.4
		c3.2-1.2-4.3-5.9-8-5c-3.3,0.8-3,1.9,0.8,3.8C631.7,37.5,632.6,37.6,632.6,36.3z M640.6,33.5c0-1-6.5-4.2-8.5-4.2
		c-2.5,0-1.6,1.6,1.8,3.3C637.4,34.3,640.6,34.8,640.6,33.5z M682.6,13.3c0-0.6,0.6-1,1.3-1s0.4-0.7-0.7-1.5c-2.1-1.6-1-2,1.3-0.5
		c1.4,0.9,6.1-0.6,6.1-1.9c0-0.9-6.7-4-8.5-4c-3.3,0-1-1.8,7.8-6.1l9.3-4.6l3.3,4.3c1.8,2.4,3.3,4.6,3.3,4.9
		c0,0.5-21.5,11.6-22.5,11.6C682.8,14.3,682.6,13.9,682.6,13.3L682.6,13.3z M692.6,6.3c0-0.6,0.5-1,1.1-1s0.8,0.4,0.4,1
		c-0.3,0.6,0,0.7,0.9,0.4c3.2-1.2-4.3-5.9-8-5c-3.3,0.8-3,1.9,0.8,3.8C691.7,7.5,692.6,7.6,692.6,6.3z M700.6,3.5
		c0-1-6.5-4.2-8.5-4.2c-2.5,0-1.6,1.6,1.8,3.3C697.4,4.3,700.6,4.8,700.6,3.5z M742.6-16.7c0-0.5,0.6-1,1.3-1s0.4-0.7-0.7-1.5
		c-2.1-1.6-1-2,1.3-0.5c1.4,0.9,6.1-0.6,6.1-1.9c0-0.9-6.7-4-8.5-4c-3.3,0-1-1.8,7.8-6.1l9.3-4.6l3.3,4.3c1.8,2.4,3.3,4.6,3.3,4.9
		c0,0.5-21.5,11.6-22.5,11.6C742.8-15.7,742.6-16.1,742.6-16.7L742.6-16.7z M752.6-23.7c0-0.5,0.5-1,1.1-1s0.8,0.4,0.4,1
		c-0.3,0.6,0,0.7,0.9,0.4c3.2-1.2-4.3-5.9-8-5c-3.3,0.8-3,1.9,0.8,3.8C751.7-22.5,752.6-22.4,752.6-23.7z M760.6-26.5
		c0-1-6.5-4.2-8.5-4.2c-2.5,0-1.6,1.6,1.8,3.3C757.4-25.7,760.6-25.2,760.6-26.5z"/>
	<path id="path5473" class="st0" d="M535.1,76.2c-6.8-3.5-7-3.6-6.3-4.4c0.7-0.7,13.8,5.7,13.8,6.8
		C542.6,79.8,541.5,79.4,535.1,76.2z M772.1-53.3c-18.5-9.3-18.1-9.1-17.3-9.9c0.7-0.7,35.8,16.7,35.8,17.8
		C790.6-44.1,789.5-44.6,772.1-53.3z"/>
	<path id="path5465" class="st0" d="M641.3,63.7c-0.4-0.4-0.7-1.7-0.7-3c0-3,4.6-5.5,6.1-3.3c1.6,2.5,1,4.6-1.6,5.8
		C642.1,64.5,642.1,64.5,641.3,63.7z M644.7,62.3c2-1.1,2.6-3.4,1-4.4c-1.7-1.1-4.1,0.7-4.1,3.1C641.6,63.6,641.9,63.8,644.7,62.3z
		 M659.3,54.7c-0.4-0.4-0.7-1.7-0.7-3c0-3,4.6-5.5,6.1-3.3c1.6,2.5,1,4.6-1.6,5.8C660.1,55.5,660.1,55.5,659.3,54.7z M662.7,53.3
		c2-1.1,2.6-3.4,1-4.4c-1.7-1.1-4.1,0.7-4.1,3.1C659.6,54.6,659.9,54.8,662.7,53.3z M701.3,33.7c-0.4-0.4-0.7-1.7-0.7-3
		c0-3,4.6-5.5,6.1-3.3c1.6,2.5,1,4.6-1.6,5.8C702.1,34.5,702.1,34.5,701.3,33.7z M704.7,32.3c2-1.1,2.6-3.4,1-4.4
		c-1.7-1.1-4.1,0.7-4.1,3.1C701.6,33.6,701.9,33.8,704.7,32.3z M719.3,24.7c-0.4-0.4-0.7-1.7-0.7-3c0-3,4.6-5.5,6.1-3.3
		c1.6,2.5,1,4.6-1.6,5.8C720.1,25.5,720.1,25.5,719.3,24.7z M722.7,23.3c2-1.1,2.6-3.4,1-4.4c-1.7-1.1-4.1,0.7-4.1,3.1
		C719.6,24.6,719.9,24.8,722.7,23.3z M761.3,3.7c-0.4-0.4-0.7-1.7-0.7-3c0-3,4.6-5.5,6.1-3.3c1.6,2.5,1,4.6-1.6,5.8
		C762.1,4.5,762.1,4.5,761.3,3.7z M764.7,2.3c2-1.1,2.6-3.4,1-4.4c-1.7-1.1-4.1,0.7-4.1,3.1C761.6,3.6,761.9,3.8,764.7,2.3z
		 M779.3-5.3c-0.4-0.4-0.7-1.7-0.7-3c0-3,4.6-5.5,6.1-3.3c1.6,2.5,1,4.6-1.6,5.8C780.1-4.5,780.1-4.5,779.3-5.3z M782.7-6.7
		c2-1.1,2.6-3.4,1-4.4c-1.7-1.1-4.1,0.7-4.1,3.1C779.6-5.4,779.9-5.2,782.7-6.7z"/>
	<path id="path5461" class="st0" d="M633.6,40.3c6.3-3.2,12-5.9,12.5-5.9s-4.2,2.7-10.5,5.9s-12,5.9-12.5,5.9S627.3,43.6,633.6,40.3
		z M592.1,31c0.3-1,0.8-2.9,1.1-4.3c0.5-1.8,2.6-3.5,8.6-6.5c4.4-2.2,8.2-3.8,8.4-3.6c0.2,0.2-3.2,2.1-7.6,4.3s-8,4.4-8,4.9
		s-0.7,2.4-1.5,4C592.2,31.5,591.8,32,592.1,31L592.1,31z"/>
	<path id="path5459" class="st0" d="M753.6-19.7c6.3-3.2,12-5.9,12.5-5.9s-4.2,2.7-10.5,5.9s-12,5.9-12.5,5.9S747.3-16.4,753.6-19.7
		z M712.1-29c0.3-1,0.8-2.9,1.1-4.3c0.5-1.8,2.6-3.5,8.6-6.5c4.4-2.2,8.2-3.8,8.4-3.6s-3.2,2.1-7.6,4.3c-4.4,2.1-8,4.4-8,4.9
		s-0.7,2.4-1.5,4C712.2-28.5,711.8-28,712.1-29L712.1-29z"/>
	<path id="path5457" class="st0" d="M693.6,10.3c6.3-3.2,12-5.9,12.5-5.9s-4.2,2.7-10.5,5.9s-12,5.9-12.5,5.9S687.3,13.6,693.6,10.3
		z M652.1,1c0.3-1,0.8-2.9,1.1-4.3c0.5-1.8,2.6-3.5,8.6-6.5c4.4-2.2,8.2-3.8,8.4-3.6s-3.2,2.1-7.6,4.3s-8,4.4-8,4.9
		c0,0.6-0.7,2.4-1.5,4S651.8,2,652.1,1L652.1,1z"/>
	<path id="path5451" class="st0" d="M632.6,64.3c0-3.4-3.8-8-6.6-8c-0.9,0-2.7,0.8-3.8,1.8c-2.1,1.7-2.1,1.7-0.2-0.5
		c1-1.2,2.7-2.3,3.7-2.3c2.9,0,6.9,4.2,7.8,8.3c0.5,2.2,0.5,3.8-0.1,3.8C633,67.3,632.6,65.9,632.6,64.3L632.6,64.3z M596.6,46.3
		c0-3.4-3.8-8-6.6-8c-0.9,0-2.7,0.8-3.8,1.8c-2.1,1.7-2.1,1.7-0.2-0.5c1-1.2,2.7-2.3,3.7-2.3c2.9,0,6.9,4.2,7.8,8.3
		c0.5,2.2,0.5,3.8-0.1,3.8C597,49.3,596.6,47.9,596.6,46.3L596.6,46.3z M692.6,34.3c0-3.4-3.8-8-6.6-8c-0.9,0-2.7,0.8-3.8,1.8
		c-2.1,1.7-2.1,1.7-0.2-0.5c1-1.2,2.7-2.3,3.7-2.3c2.9,0,6.9,4.2,7.8,8.2c0.5,2.2,0.5,3.8-0.1,3.8C693,37.3,692.6,35.9,692.6,34.3z
		 M656.6,16.3c0-3.4-3.8-8-6.6-8c-0.9,0-2.7,0.8-3.8,1.8c-2.1,1.7-2.1,1.7-0.2-0.5c1-1.2,2.7-2.3,3.7-2.3c2.9,0,6.9,4.2,7.8,8.3
		c0.5,2.2,0.5,3.7-0.1,3.7C657,19.3,656.6,17.9,656.6,16.3z M752.6,4.3c0-3.4-3.8-8-6.6-8c-0.9,0-2.7,0.8-3.8,1.7
		c-2.1,1.7-2.1,1.7-0.2-0.5c1-1.2,2.7-2.3,3.7-2.3c2.9,0,6.9,4.2,7.8,8.3c0.5,2.2,0.5,3.8-0.1,3.8C753,7.3,752.6,5.9,752.6,4.3z
		 M716.6-13.7c0-3.4-3.8-8-6.6-8c-0.9,0-2.7,0.8-3.8,1.8c-2.1,1.7-2.1,1.7-0.2-0.5c1-1.2,2.7-2.3,3.7-2.3c2.9,0,6.9,4.2,7.8,8.3
		c0.5,2.2,0.5,3.8-0.1,3.8C717-10.7,716.6-12.1,716.6-13.7z"/>
	<path id="path5449" class="st0" d="M693.7,127.9c1-1,190.9-95.6,190.9-95.1S695,128.3,693.9,128.3
		C693.6,128.3,693.5,128.1,693.7,127.9L693.7,127.9z M535.6,77.3c-4.1-2.1-7.2-3.9-6.7-4s3.9,1.5,7.7,3.5c7.3,3.7,14.5,4.6,16.8,2.3
		c0.7-0.7,1.2-2.9,1.2-5v-3.8l-13-6.5c-7.2-3.6-13-6.7-13-7s6,2.5,13.3,6.3l13.3,6.8l0.3,4.5c0.4,5.5-1.3,7.1-7.8,7
		C544.4,81.2,541,80.1,535.6,77.3L535.6,77.3z M637.9,71.1c-1.2-0.6-2.3-1.5-2.3-2s-1-0.2-2.2,0.7c-1.2,0.9-3.1,1.6-4.1,1.6
		c-2.4,0-8.7-6.2-8.7-8.7c0-1.4-2.8-3.3-10.6-7.1c-9.9-4.9-10.7-5.1-12.7-3.7c-1.2,0.8-3,1.5-4,1.5c-2.5,0-8.7-6.3-8.7-8.8
		c0-1.3-0.9-2.2-2.6-2.6c-2.5-0.6-2.6-0.9-1.9-5.4c0.4-2.6,0.9-5.5,1.2-6.5c0.6-2,27.9-16.1,29.4-15.2c0.5,0.3,2.7-0.4,4.9-1.5
		l4-2.1l9.9,5c8.9,4.4,10.4,5.6,14.5,11.3c3.7,5,6.4,7.3,13.1,11.3c7.4,4.3,8.5,5.4,9.1,8.3c0.4,2.2,1.5,3.7,3,4.4
		c1.4,0.6,2.4,1.9,2.4,3.2c0,1.7-2.9,3.5-15.5,9.8c-8.5,4.3-15.6,7.7-15.8,7.7C640.2,72.2,639.1,71.7,637.9,71.1L637.9,71.1z
		 M655.6,63.8c8.9-4.4,15-8.1,15-8.9c0-2-2.1-3.1-3-1.6c-0.5,0.8-1-0.2-1.5-2.6c-1.1-6-2-6.9-11-12c-4.7-2.7-8.5-5.2-8.5-5.6
		c0-0.4-1.7-3.1-3.8-5.8c-3.1-4.2-5.4-5.9-13.5-10l-9.8-4.9l-4,2.1c-2.2,1.1-4.4,1.8-4.9,1.5c-0.5-0.3-7,2.5-14.5,6.2
		c-14.3,7.1-14.2,7-14.7,14.8c-0.2,3.5,0,4,2,4.3c1.7,0.2,2.3,1,2.3,2.8c0,2.9,5,8.4,7.7,8.4c1,0,2.8-0.7,4-1.5
		c2-1.4,2.9-1.1,13.2,3.8c9.3,4.4,11,5.6,11.1,7.6c0.1,2.8,5.2,8.2,7.8,8.2c1,0,2.7-0.6,3.8-1.4c1.7-1.2,2.2-1.2,4.3,0.5
		c1.3,1,2.6,1.9,2.8,1.9S647.4,67.9,655.6,63.8L655.6,63.8z M651.4,60.6c1-0.4,0.9-0.8-0.4-1.8c-1.6-1.2-1.3-1.5,2.6-3.5
		c2.4-1.2,4-1.7,3.6-1.1c-0.4,0.6-0.1,1.1,0.6,1.1c1,0,0.9,0.3-0.2,1c-1.3,0.9-1.3,1,0,1c0.8,0-0.1,0.9-2,2s-4,1.9-4.5,1.9
		C650.6,61.2,650.7,60.9,651.4,60.6L651.4,60.6z M655.6,58.3c1.3-0.9,1.3-1,0-1s-1.3-0.1,0-1c2.1-1.3,0.6-1.2-2.5,0.2
		c-1.9,0.8-2.2,1.4-1.3,2C653.5,59.5,653.8,59.5,655.6,58.3z M641.9-4.7l113.8-56.9l18,9c13.7,6.9,18.9,9,22,9c3.2,0,10.3-3.1,34-15
		c16.5-8.3,30.3-15,30.7-14.9c0.4,0-13,7-29.7,15.4c-24.7,12.5-31.3,15.4-34.8,15.4c-3.4,0-7.8-1.7-22.2-8.9l-18-9l-113,56.5
		C580.5,27,529.4,52.4,528.9,52.3C528.4,52.2,579.3,26.6,641.9-4.7L641.9-4.7z M697.9,41.1c-1.2-0.6-2.3-1.5-2.3-2s-1-0.2-2.2,0.7
		s-3.1,1.6-4.1,1.6c-2.4,0-8.7-6.2-8.7-8.7c0-1.4-2.8-3.3-10.6-7.1c-9.9-4.9-10.7-5.1-12.7-3.7c-1.2,0.8-3,1.5-4,1.5
		c-2.5,0-8.7-6.3-8.7-8.8c0-1.3-0.9-2.2-2.6-2.6c-2.5-0.6-2.6-0.9-1.9-5.4c0.4-2.6,0.9-5.5,1.2-6.5c0.6-2,27.9-16.1,29.4-15.2
		c0.5,0.3,2.7-0.4,4.9-1.5l4-2.1l9.9,5c8.9,4.4,10.4,5.6,14.5,11.3c3.7,5,6.4,7.3,13.1,11.3c7.4,4.3,8.5,5.4,9.1,8.3
		c0.4,2.2,1.5,3.7,3,4.4c1.4,0.6,2.4,1.9,2.4,3.2c0,1.7-2.9,3.5-15.5,9.8c-8.5,4.3-15.6,7.7-15.8,7.7
		C700.2,42.2,699.1,41.7,697.9,41.1L697.9,41.1z M715.6,33.8c8.9-4.4,15-8.1,15-8.9c0-2-2.1-3.1-3-1.6c-0.5,0.8-1-0.2-1.5-2.6
		c-1.1-6-2-6.9-11-12c-4.7-2.7-8.5-5.2-8.5-5.6s-1.7-3.1-3.8-5.8c-3.1-4.2-5.4-5.9-13.5-10l-9.8-4.9l-4,2.1
		c-2.2,1.1-4.4,1.8-4.9,1.5s-7,2.5-14.5,6.2c-14.3,7.1-14.2,7-14.7,14.8c-0.2,3.5,0,4,2,4.3c1.7,0.2,2.3,1,2.3,2.8
		c0,2.9,5,8.4,7.7,8.4c1,0,2.8-0.7,4-1.5c2-1.4,2.9-1.1,13.2,3.8c9.3,4.4,11,5.6,11.1,7.6c0.1,2.8,5.2,8.2,7.8,8.2
		c1,0,2.7-0.6,3.8-1.4c1.7-1.2,2.2-1.2,4.3,0.5c1.3,1,2.6,1.9,2.8,1.9S707.4,37.9,715.6,33.8z M711.4,30.6c1-0.4,0.9-0.8-0.4-1.8
		c-1.6-1.2-1.3-1.5,2.6-3.5c2.4-1.2,4-1.7,3.6-1.1s-0.1,1.1,0.6,1.1c1,0,0.9,0.3-0.2,1c-1.3,0.9-1.3,1,0,1c0.8,0-0.1,0.9-2,2
		s-4,1.9-4.5,1.9C710.6,31.2,710.7,30.9,711.4,30.6L711.4,30.6z M715.6,28.3c1.3-0.9,1.3-1,0-1s-1.3-0.1,0-1
		c2.1-1.3,0.6-1.2-2.5,0.2c-1.9,0.8-2.2,1.4-1.3,2C713.5,29.5,713.8,29.5,715.6,28.3z M757.9,11.1c-1.2-0.6-2.3-1.5-2.3-2
		s-1-0.2-2.2,0.7s-3.1,1.6-4.1,1.6c-2.4,0-8.7-6.2-8.7-8.7c0-1.4-2.8-3.3-10.6-7.1c-9.9-4.9-10.7-5.1-12.7-3.7c-1.2,0.8-3,1.5-4,1.5
		c-2.5,0-8.7-6.3-8.7-8.8c0-1.3-0.9-2.2-2.6-2.6c-2.5-0.6-2.6-0.9-1.9-5.4c0.4-2.6,0.9-5.5,1.2-6.5c0.6-2,27.9-16.1,29.4-15.2
		c0.5,0.3,2.7-0.4,4.9-1.5l4-2.1l9.9,5c8.9,4.4,10.4,5.6,14.5,11.3c3.7,5,6.4,7.3,13.1,11.3c7.4,4.3,8.5,5.4,9.1,8.3
		c0.4,2.2,1.5,3.7,3,4.4c1.4,0.6,2.4,1.9,2.4,3.2c0,1.7-2.9,3.5-15.5,9.8c-8.5,4.3-15.6,7.7-15.8,7.7
		C760.2,12.2,759.1,11.7,757.9,11.1L757.9,11.1z M775.6,3.8c8.9-4.4,15-8.1,15-8.9c0-2-2.1-3.1-3-1.6c-0.5,0.8-1-0.2-1.5-2.6
		c-1.1-6-2-6.9-11-12c-4.7-2.7-8.5-5.2-8.5-5.6s-1.7-3.1-3.8-5.8c-3.1-4.2-5.4-5.9-13.5-10l-9.8-4.9l-4,2.1
		c-2.2,1.1-4.4,1.8-4.9,1.5s-7,2.5-14.5,6.2c-14.3,7.1-14.2,7-14.7,14.8c-0.2,3.5,0,4,2,4.3c1.7,0.2,2.3,1,2.3,2.8
		c0,2.9,5,8.4,7.7,8.4c1,0,2.8-0.7,4-1.5c2-1.4,2.9-1.1,13.2,3.8c9.3,4.4,11,5.6,11.1,7.6c0.1,2.8,5.2,8.2,7.8,8.2
		c1,0,2.7-0.6,3.8-1.4c1.7-1.2,2.2-1.2,4.3,0.5c1.3,1,2.6,1.9,2.8,1.9S767.4,7.9,775.6,3.8z M771.4,0.6c1-0.4,0.9-0.8-0.4-1.8
		c-1.6-1.2-1.3-1.5,2.6-3.5c2.4-1.2,4-1.7,3.6-1.1s-0.1,1.1,0.6,1.1c1,0,0.9,0.3-0.2,1c-1.3,0.9-1.3,1,0,1c0.8,0-0.1,0.9-2,2
		s-4,1.9-4.5,1.9C770.6,1.2,770.7,0.9,771.4,0.6L771.4,0.6z M775.6-1.7c1.3-0.9,1.3-1,0-1s-1.3-0.1,0-1c2.1-1.3,0.6-1.2-2.5,0.2
		c-1.9,0.8-2.2,1.4-1.3,2C773.5-0.5,773.8-0.5,775.6-1.7z"/>
</g>
</svg>
