<?xml version="1.0" encoding="UTF-8"?>
<svg enable-background="new 0 0 526.084 505.232" viewBox="0 0 526.084 505.232" xmlns="http://www.w3.org/2000/svg">
 <path d="m72.811,43.728c1.625,1.659-1.692,2.726-1.538,4.615-4.788-.002-5.266,4.306-6.153,8.204-4.338-5.598 4.386-9.901 7.691-12.819z" fill-rule="evenodd"/>
 <path d="m103.576,64.751c-.436,1.786-2.527,1.917-4.102,2.563-3.972,3.719-3.375,12.008-11.793,11.281 3.907-2.075 7.559-4.406 8.204-9.742-1.152.348-2.227,1.882-3.589.513 3.184-1.777 8.287-4.354 11.28-4.615z" fill-rule="evenodd"/>
 <path d="m113.318,77.57c2.252,1.493-2.566,3.445-2.051.513 .682-1.256 1.908.563 2.051-.513z" fill-rule="evenodd"/>
 <path d="m108.704,79.108c1.072-.217 1.358.352 2.051.513-.063,1.305-.747,1.989-2.051,2.051-.963-.978.304-.928 0-2.564z" fill-rule="evenodd"/>
 <path d="m62.043,81.672c1.137-.282.73.979 1.539,1.025-.209,1.277-1.988.031-1.539-1.025z" fill-rule="evenodd"/>
 <path d="m72.811,81.672c1.757,1.319.595,5.558 4.102,5.127-.522,2.691 1.453,2.95 3.077,4.615-.304,1.577-2.531,1.229-3.589,2.051 1.706-4.549-6.25-7.941-3.59-11.793z" fill-rule="evenodd"/>
 <path d="m108.704,83.21c2.359.033 4.083.703 5.64,1.538 .157,1.183-1.481.57-1.538,1.539 .516.812 3.09-.636 4.615-.513-.908,3.947-5.899.633-8.717,2.563-1.69-1.798-.411-2.947 0-5.127z" fill-rule="evenodd"/>
 <path d="m158.441,88.337c3.547.042 5.159,2.02 6.153,4.615 4.162,2.675 8.465,5.209 13.844,6.666 .338,1.939-3.592.961-4.102.513-.447,1.985 2.239.838 1.539,3.077-3.936.359-9.641-2.023-10.255,2.563-3.537-1.752-3.321-6.598-4.615-10.255-.852-2.406-2.741-4.617-2.564-7.179z" fill-rule="evenodd"/>
 <path d="m176.9,96.542c-4.473-.484-7.146-2.767-10.255-4.615-.157-.622 1.481-1.768 1.539-.513 2.753,1.861 7.238,1.991 8.716,5.128z" fill-rule="evenodd"/>
 <path d="m149.21 109.87h1.026v1.025h-1.026v-1.025z" fill-rule="evenodd"/>
 <path d="m153.31 149.87c2.827-1.617 4.648-4.24 7.691-5.64 1.694 3.818-3.675 7.509-7.691 5.64z" fill-rule="evenodd"/>
 <path d="m96.91,176.018c4.181-.797 9.159,3.35 13.332,4.102 2.876.519 4.704-.077 6.153,2.051-2.185.867-3.763-.112-6.153,1.025-2.794-1.043-4.503-3.909-7.691-5.127-1.736-.663-5.122.875-5.641-2.051z" fill-rule="evenodd"/>
 <path d="m134.341,223.191c-2.59,1.295-3.237-2.646-4.102-4.102-2.219-3.735-3.81-8.589-6.666-12.819-2.25-3.332-6.123-6.754-9.743-9.742-5.381-4.442-11.211-7.415-18.972-5.127 .849-2.195 4.714-2.107 6.666-2.051 6.776.194 10.07,1.936 14.357,5.641 7.783,6.723 14.362,18.85 18.46,28.2z" fill-rule="evenodd"/>
 <path d="m98.449,194.99c2.894.012 4.47,1.341 6.153,2.563-1.786.913-5.645-.493-6.153-2.563z" fill-rule="evenodd"/>
 <path d="m86.143 226.78c-0.86 2.826-4.099 2.776-6.153 4.102-2.245 1.45-3.851 4.683-7.179 4.615 3.459-3.891 6.754-7.945 13.332-8.717z" fill-rule="evenodd"/>
 <path d="m141.01 270.88c1.775-0.359 1.839 1.797 1.025 2.563-1.041-0.374-2.093-1.543-1.025-2.563z" fill-rule="evenodd"/>
 <path d="m44.097,286.26c1.299.581 1.488,2.272 1.539,4.103-1.806-.039-2.002-3.384-1.539-4.103z" fill-rule="evenodd"/>
 <path d="m63.582,291.388c1.064.516 1.406,2.268-.513,2.051-.217-1.072.351-1.358.513-2.051z" fill-rule="evenodd"/>
 <path d="m64.094,296.516c1.064.515 1.406,2.267-.513,2.051-.217-1.073.352-1.359.513-2.051z" fill-rule="evenodd"/>
 <path d="m77.426,331.383c-.077,1.275-1.736.149-2.051,0 .463-1.717 1.146-.448 2.051,0z" fill-rule="evenodd"/>
 <path d="m76.4,333.434c1.072-.218 1.357.352 2.051.513-.092,1.487-2.437,1.235-2.051-.513z" fill-rule="evenodd"/>
 <path d="m79.477,339.586c1.119-.093 1.631.42 1.539,1.539-.479-.548-1.892-.16-1.539-1.539z" fill-rule="evenodd"/>
 <path d="m83.579,344.714c-1.611-.099-2.465-.953-2.563-2.563 1.054-.906 3.128.281 2.563,2.563z" fill-rule="evenodd"/>
 <path d="m328.162,354.969c.416.098.512.515 1.025.513-.097.416-.514.512-.513,1.025-.415-.097-.511-.514-1.025-.513 .098-.415.515-.511.513-1.025z" fill-rule="evenodd"/>
 <path d="m90.245,357.02c.902.124 1.169.883 1.025,2.052-.902-.125-1.169-.884-1.025-2.052z" fill-rule="evenodd"/>
 <path d="m91.27 360.1c1.496-0.754 1.496 2.292 0 1.538v-1.538z" fill-rule="evenodd"/>
 <path d="m333.802,361.635c-.271.412-.535.832-.513,1.538-1.072.217-1.357-.352-2.051-.513 .374-1.042 1.544-2.094 2.564-1.025z" fill-rule="evenodd"/>
 <path d="m330.73 362.15c0.537 2.255-2.291 2.687-3.077 2.051 0.018-1.69 1.458-1.96 3.077-2.051z" fill-rule="evenodd"/>
 <path d="m92.295,362.66c2.351.342-.411,3.105 0,0z" fill-rule="evenodd"/>
 <path d="m325.08 364.2h1.538v1.538h-1.538v-1.538z" fill-rule="evenodd"/>
 <path d="m320.98 366.76c-1.554 1.895-1.727-1.558 0 0z" fill-rule="evenodd"/>
 <path d="m337.391,370.864c-1.644,3.483-5.232,5.021-10.255,5.128 1.577-2.525 5.672-2.533 7.179-5.128-1.045-1.177-4.258-.186-6.153-.513 1.724-1.742 8.429-2.696 9.229.513z" fill-rule="evenodd"/>
 <path d="m313.292,369.839c.154,1.351-.71,1.683-2.052,1.538-.154-1.351.711-1.683 2.052-1.538z" fill-rule="evenodd"/>
 <path d="m326.624,370.864c.995-.203.749,2.336-.513,1.538v-1.025c.436.095.483-.2.513-.513z" fill-rule="evenodd"/>
 <path d="m309.19 371.38h1.025v1.025h-1.025v-1.025z" fill-rule="evenodd"/>
 <path d="m307.65 372.4c-0.059 1.822-1.697 2.063-3.589 2.051 0.64-1.239 2.102-1.658 3.589-2.051z" fill-rule="evenodd"/>
 <path d="m302.524,374.967c-.445.75-.768,1.625-2.051,1.538-.154-1.352.71-1.683 2.051-1.538z" fill-rule="evenodd"/>
 <path d="m118.958,376.505c-.077,1.275-1.736.149-2.051,0 .464-1.716 1.148-.448 2.051,0z" fill-rule="evenodd"/>
 <path d="m118.45 378.04c2.021 0.051 2.517 4.294 2.564 4.614-1.371-1.021-2.585-2.2-2.564-4.614z" fill-rule="evenodd"/>
 <path d="m329.187,378.556h1.026v1.538h-1.539c-.144-.828.486-.883.513-1.538z" fill-rule="evenodd"/>
 <path d="m335.85 379.07c-1.555 1.896-1.728-1.557 0 0z" fill-rule="evenodd"/>
 <path d="m322.52 380.09c1.555-1.896 1.727 1.557 0 0z" fill-rule="evenodd"/>
 <path d="m314.83 380.09h1.025v1.025h-1.025v-1.025z" fill-rule="evenodd"/>
 <path d="m317.39 380.61c1.555-1.895 1.728 1.558 0 0z" fill-rule="evenodd"/>
 <path d="m126.137,380.606c-.075,1.121-1.292,1.102-2.563,1.025-.527-1.722 1.594-.797 2.563-1.025z" fill-rule="evenodd"/>
 <path d="m104.089,381.119c2.011,3.459 3.27,7.67 4.615,11.794 .948,1.958 3.397,2.413 3.589,5.127-5.795.325-3.594-7.345-7.179-9.229 .043-.812-.247-1.956.513-2.051-1.881-1.483-1.69-4.193-1.538-5.641z" fill-rule="evenodd"/>
 <path d="m330.21 383.68h1.025v1.025h-1.025v-1.025z" fill-rule="evenodd"/>
 <path d="m330.21 386.76c2.604 1.754-3.241 2.545-5.641 2.563 0.269-2.466 4.27-1.2 5.641-2.563z" fill-rule="evenodd"/>
 <path d="m307.65 388.3c-1.555 1.895-1.728-1.558 0 0z" fill-rule="evenodd"/>
 <path d="m338.93,387.785c.144,1.644-2.246,1.864-3.077,1.025 .058-1.309 1.717-1.017 3.077-1.025z" fill-rule="evenodd"/>
 <path d="m320.98 388.81c-1.554 1.895-1.727-1.557 0 0z" fill-rule="evenodd"/>
 <path d="m300.986,388.811c.517,1.542-1.143.909-2.051,1.025 .123-.901.882-1.169 2.051-1.025z" fill-rule="evenodd"/>
 <path d="m314.831,389.323h1.025v1.538h-1.538c-.145-.828.484-.882.513-1.538z" fill-rule="evenodd"/>
 <path d="m120.497,392.913c1.959.946 3.678,2.133 4.615,4.102-3.392.673-5.38-2.269-4.615-4.102z" fill-rule="evenodd"/>
 <path d="m339.96 394.96c-0.538 3.687-6.458 1.972-7.691 2.563 1.233-2.049 4.16-1.819 7.691-2.563z" fill-rule="evenodd"/>
 <path d="m181.515,399.065c-3.312-.276-6.904-.274-9.742-1.025 .362-1.461 3.192-.745 5.127-.513 1.581.191 4.432.15 4.615,1.538z" fill-rule="evenodd"/>
 <path d="m186.129,398.553c15.257.81 29.731,2.402 43.584,4.615-.465,2.212-2.996.551-4.102.513-8.855-.307-17.542-2.35-26.15-3.077-4.767-.403-10.412,1.056-13.332-2.051z" fill-rule="evenodd"/>
 <path d="m325.085,399.578c1.332-.307 1.845.206 1.538,1.539-.478-.548-1.891-.16-1.538-1.539z" fill-rule="evenodd"/>
 <path d="m302.01 402.14h1.025v1.025h-1.025v-1.025z" fill-rule="evenodd"/>
 <path d="m304.063,403.168c.073-.198 1.085-.907 1.538-.513 1.016.883-2.273,2.471-1.538.513z" fill-rule="evenodd"/>
 <path d="m306.626,403.681h2.051c.517,1.542-1.143.908-2.051,1.025v-1.025z" fill-rule="evenodd"/>
 <path d="m309.703,405.219c-.203-.995 2.336-.749 1.538.513h-1.025c.094-.437-.201-.484-.513-.513z" fill-rule="evenodd"/>
 <path d="m303.037,405.219h1.026c.239,1.094-.733.977-1.539,1.025 .098-.415.515-.511.513-1.025z" fill-rule="evenodd"/>
 <path d="m318.42 406.76h1.025v1.025h-1.025v-1.025z" fill-rule="evenodd"/>
 <path d="m334.315,406.757h1.025v1.538h-1.538c-.144-.828.485-.883.513-1.538z" fill-rule="evenodd"/>
 <path d="m324.573,407.27c.828-.145.883.484 1.538.513 .203.994-2.335.748-1.538-.513z" fill-rule="evenodd"/>
 <path d="m327.65 407.27h1.025v1.025h-1.025v-1.025z" fill-rule="evenodd"/>
 <path d="m330.213,407.782c.113-.213 1.482-.988 2.051-.513 .788.661-2.931,2.159-2.051.513z" fill-rule="evenodd"/>
 <path d="m318.42 409.83c-1.554 1.895-1.727-1.558 0 0z" fill-rule="evenodd"/>
 <path d="m196.897,419.063c-1.204.163-1.924.81-3.589.513 .083-1.551 3.927-3.023 3.589-.513z" fill-rule="evenodd"/>
 <path d="m152.8,418.037c.109,1.525-1.829,1.809-2.563,1.026 .075-1.121 1.292-1.101 2.563-1.026z" fill-rule="evenodd"/>
 <path d="m192.282,418.551c.66,1.617-4.249,1.617-3.589,0 .916.002 2.983-1.381 3.589,0z" fill-rule="evenodd"/>
 <path d="m154.85 418.55h3.076c-0.088 1.482-3.297 2.48-3.076 0z" fill-rule="evenodd"/>
 <path d="m162.03,418.551c.359,1.774-1.797,1.839-2.563,1.025 .435-.761 1.29-1.102 2.563-1.025z" fill-rule="evenodd"/>
 <path d="m167.67,419.063c.472,1.888-2.705.932-3.077.513 .183-.731 2.614-1.751 3.077-.513z" fill-rule="evenodd"/>
 <path d="m171.772,418.551c1.514.739-.611,2.064-2.051,1.538-.821-2.019 2.215-.179 2.051-1.538z" fill-rule="evenodd"/>
 <path d="m177.925,418.551c-.211,1.391-2.438,2.115-3.589,1.025 .072-1.467 2.139-.938 3.589-1.025z" fill-rule="evenodd"/>
 <path d="m67.171 439.06c-2.823 6.542-14.606 5.844-19.485 1.538 3.094-1.864 8.089 4.559 13.332 1.025 0.674-2.949 3.706-5.597 6.153-2.563z" fill-rule="evenodd"/>
 <path d="m18.972,439.061c6.521,1.512 11.089,4.977 16.408,7.691-.669,2.103-3.38.356-4.615,0-4.087-1.181-9.752-4.159-11.793-7.691z" fill-rule="evenodd"/>
 <path d="m44.097,439.061c1.072-.218 1.358.352 2.051.513 .163.905-2.873.914-2.051-.513z" fill-rule="evenodd"/>
 <path d="m73.836 440.6c3.071 0.176 2.796 3.698 5.64 4.103-2.385 3.141-7.107-1.745-5.64-4.103z" fill-rule="evenodd"/>
 <path d="m199.97 477c-2.21 1.893-7.52 0.685-11.28 1.025 2.348-1.498 8.785-1.349 11.28-1.025z" fill-rule="evenodd"/>
 <path d="m209.716,478.029c-2.306-.03-5.308-.314-8.717-.513 1.366-1.954 7.563-1.037 8.717.513z" fill-rule="evenodd"/>
 <path d="m211.767,477.517c6.816-1.173 16.11-.388 23.074,0-6.781,1.271-17.68.196-23.074,0z" fill-rule="evenodd"/>
 <path d="m247.147,477.517c-2.98.794-5.214.979-7.691.513 21.471,4.039-2.354-.68-2.563-.513 1.753-1.402 5.301,1.438 7.691-.513 1.188-.163 1.968.083 2.563.513z" fill-rule="evenodd"/>
 <path d="m281.501,477.517c-4.976,1.288-12.395,1.316-17.946.513 1.367-2.277 3.797-.512 5.64-.513 3.392-.001 6.683-.562 10.256-.513 .158.696 1.283.426 2.05.513z" fill-rule="evenodd"/>
 <path d="m187.155,478.542c-1.871-.455-2.731.906-3.589,0 .609-.349 3.75-2.116 3.589,0z" fill-rule="evenodd"/>
 <path d="m248.172,478.029c.545-1.163 3.223-.194 4.615-.513-.545,1.165-3.223.196-4.615.513z" fill-rule="evenodd"/>
 <path d="m181.515,478.029c.199,2.079-3.195.565-4.615,1.025-.199-2.077 3.195-.564 4.615-1.025z" fill-rule="evenodd"/>
 <path d="m162.03,479.055c.527,1.724-1.595.799-2.563,1.026 .433-.763 1.65-.742 2.563-1.026z" fill-rule="evenodd"/>
 <path d="m305.09 479.06h1.025v1.026h-1.025v-1.026z" fill-rule="evenodd"/>
 <path d="m312.78,479.055c.491,2.21-3.241,1.736-4.103,1.026 .525-1.185 2.358-1.061 4.103-1.026z" fill-rule="evenodd"/>
 <path d="m338.93,479.568c-3.66,1.98-10.654.627-15.896,1.025 .544-1.888 3.701-.979 5.64-1.025 3.848-.091 7.659-.151 10.256,0z" fill-rule="evenodd"/>
 <path d="m353.8 479.57c-1.904 3.17-8.606-0.071-13.331 1.025 2.951-3.042 8.688-0.572 13.331-1.025z" fill-rule="evenodd"/>
 <path d="m148.186,480.081c1.045-1.177 4.258-.186 6.153-.513-.655,1.463-4.836,1.328-6.153.513z" fill-rule="evenodd"/>
 <path d="m13.332,481.619c-1.983.274-2.503-.915-4.615-.513 .503-1.182 3.964-1.507 4.615.513z" fill-rule="evenodd"/>
 <path d="m61.018,480.081h3.077c.485,1.853-2.02.715-3.077,1.025v-1.025z" fill-rule="evenodd"/>
 <path d="m76.4,480.081c-1.995,1.901-5.852-.488-8.717,1.025 1.137-2.11 5.954-.542 8.717-1.025z" fill-rule="evenodd"/>
 <path d="m88.707,480.081c1.029-.175 1.604.104 1.538,1.025h-1.538v-1.025z" fill-rule="evenodd"/>
 <path d="m33.842,481.106c-4.288,1.968-13.848,1.052-18.972.513 .568-1.945 3.887-.03 5.64,0 3.827-.788 8.776-.454 13.332-.513z" fill-rule="evenodd"/>
 <path d="m45.123,481.106c.389-.848 4.225-.848 4.615,0-2.383-.3-3.096.702-4.615,0z" fill-rule="evenodd"/>
 <path d="m94.859,481.106c1.382-1.182 4.945-.183 7.179-.513-.745,1.941-5.582.935-7.179.513z" fill-rule="evenodd"/>
 <path d="m121.522,481.106c.217.562-5.557,1.735-7.179.513 1.709-1.908 4.06-.015 7.179-.513z" fill-rule="evenodd"/>
 <path d="m259.453,484.695c-.829,1.911-4.494.942-7.179,1.025-2.67.083-5.434.373-6.666,0 3.519-2.075 9.074.29 13.845-1.025z" fill-rule="evenodd"/>
 <path d="m240.994,486.233c-11.667,2.212-23.284.448-34.867,1.025-11.596.578-23.385,2.333-34.354,2.052-.915-.023-3.76.868-4.102-1.025 22.976-1.995 45.614-1.211 67.17-2.564 1.591-.1 4.829-1.807 6.153.512z" fill-rule="evenodd"/>
 <path d="m242.02,485.208c.828-.145.883.484 1.538.513 .203.995-2.336.749-1.538-.513z" fill-rule="evenodd"/>
 <path d="m358.42 486.23c-1.126 1.567-3.285-0.591 0 0z" fill-rule="evenodd"/>
 <path d="m78.964 489.31h-7.178c0.966-2.001 5.961-1.74 7.178 0z" fill-rule="evenodd"/>
 <path d="m339.44 487.77h1.025v1.026h-1.025v-1.026z" fill-rule="evenodd"/>
 <path d="m18.459,488.798c-1.374,2.097-6.943.785-9.229.513 2.167-2.131 5.556.111 9.229-.513z" fill-rule="evenodd"/>
 <path d="m56.403,488.285c-7.742,2.745-16.854.95-26.663,1.538 3.511-1.795 8.495-1.64 12.306-1.025 3.888-1.069 9.649-.264 14.357-.513z" fill-rule="evenodd"/>
 <path d="m60.505 488.28h1.025v1.025h-1.025v-1.025z" fill-rule="evenodd"/>
 <path d="m301.499,488.798c-1.302,2.378-4.361.46-6.666.513-5.282.121-11.516,1.27-15.895.513 6.289-2.869 14.931-.872 22.561-1.026z" fill-rule="evenodd"/>
 <path d="m19.998 488.8h7.691c-0.538 1.511-7.204 1.792-7.691 0z" fill-rule="evenodd"/>
 <path d="m157.93 488.8c-2.441 2.733-10.912 1.068-16.408 1.538 3.406-2.576 12.147 0.184 16.408-1.538z" fill-rule="evenodd"/>
 <path d="m140.494,490.336c-6.268-.133-13.702.198-18.459,0 3.48-.918 9.143-1.229 14.357-1.025 1.296.05 3.915-.84 4.102,1.025z" fill-rule="evenodd"/>
 <path d="m119.984,489.823c-2.891,1.888-9.604.95-12.819,1.025 2.373-2.242 8.779-.451 12.819-1.025z" fill-rule="evenodd"/>
 <path d="m121.01,151.919c-.739.116-.179,1.53-1.025,1.538-2.376.325-1.299-2.803-1.539-4.615-1.192.346-.386,2.69-2.563,2.051-.548-1.916 1.273-1.462 1.025-3.077 1.61-.259 2.095,1.208 2.564-.513 2.813,3.51 4.683,7.965 7.691,11.28-1.765.476-1.794,1.949 0,2.564-1.163.794-3.236-1.871-4.615-2.564-.022-.877.381-1.328 1.026-1.538-.192-1.688-2.726-1.034-2.564-3.077 1.019-.854.652.046 2.051,0 .24-1.605-1.29-1.444-2.051-2.049z" fill-rule="evenodd"/>
 <path d="m98.449,243.189c.517,1.135 1.765-1.263 3.589-.513-2.223,2.905-6.742,3.513-11.793,3.589 4.609-1.625 9.336-8.109 14.87-9.23 2.123-.43 4.974.225 7.691,0 7.303-.604 13.384-2.056 19.485.513 3.428-2.85-.461-5.582.513-8.717 2.875.292 3.963,3.868 5.127,6.153 1.301,2.554 1.655,5.689 4.615,6.666 .238-4.303-.409-8.773-1.538-13.332-.622-2.51-2.398-4.745-3.077-7.178-.766-2.75-.224-6.073-1.025-8.717-2.283-7.53-8.923-12.734-13.845-16.921-.095-5.253-5.723-7.542-5.64-11.281 3.865,2.972 7.952,5.721 9.742,10.768 3.305,1.946 5.049,4.465 7.691,8.204 1.176,1.663 2.924,3.656 3.589,5.127 1.662,3.674.935,8.267 2.051,12.306 .599,2.164 2.56,3.934 3.077,6.153 1.175,5.048-.151,10.335 3.077,14.357-.235,1.816-1.141,2.961-1.025,5.128 .48,2.596 3.532,2.621 4.615,4.614 2.367,9.908-.79,18.604-3.077,26.663 .157,1.553 1.586,1.832 1.025,4.103-2.277,3.534-3.397,8.225-6.153,11.28 .655,2.396.219,7.817-1.539,7.691 1.516,6.096.011,12.076.513,18.459 .079,1.005.998,2.438 1.025,3.59 .133,5.669-1.665,11.313-2.051,16.407-.442,5.826-.337,11.318 3.077,14.357 .42,1.46 3.708.052 3.589,2.051-1.229,2.145-4.259.871-6.153.513-2.109-.398-3.676-1.913-5.127-1.538 .323-4.581-1.627-9.493-1.025-14.87 .345-3.078 1.794-6.63 2.564-9.742 4.543-18.379.569-44.185-3.589-61.53-1.485-1.42-3.008-2.803-4.615-4.102-7.683-.686-16.256-.469-23.587,1.538-5.885,1.611-13.096,4.998-19.484,6.153-3.505.633-6.611.198-9.229,1.025-2.728.861-5.64,3.603-8.717,5.64-2.232,1.479-5.203,2.046-5.641,3.59-.622,2.194.373,4.511 2.051,5.641-1.573.819-1.794,2.991-1.538,5.64-.136,2.4 1.989-.665 2.051,1.538 .277,2.604-1.816.01-1.538,2.052-.385,2.094 1.092,2.325 2.051,3.076 .797,1.822-1.742.31-1.538,1.538 .062,2.203 2.187-.862 2.051,1.538 .447,1.779-.789,1.76-1.538,1.025-.354,2.869 2.159-.314 2.051,2.052 .448,1.778-.789,1.759-1.538,1.025-.39,1.929 2.723.354 2.051,2.563 .354,1.706-1.06.826-1.538.513 4.278,3.388 3.214,15.701 8.717,19.484-2.324,3.476 4.729,11.682 6.153,15.896-1.072.217-1.358-.352-2.051-.513 4.83,13.075 8.724,24.628 14.357,38.457 1.476,3.623 3.633,7.056 5.128,10.768 2.916,7.241 5.958,16.082 12.306,19.484 3.503,1.878 9.994,3.244 15.383,4.102 17.311,2.757 36.004,4.571 55.377,2.564 .238-.956-1.865-1.72 1.025-2.564 2.145-.193.56,1.864 0,2.052h3.589c.25-.279-1.24-2.142 1.538-2.052 2.145-.193.56,1.864 0,2.052 3.503.786 6.159.334 10.255,0 1.777-.104.734-3.026 3.589-2.052 2.395.035-.6,1.173-.513,2.052 .81-.916 6.268-3.957 5.127-.513 2.532-.374 3.128-2.684 6.153-2.564 1.03,1.046-.227,1.006-.513,2.052 1.823-.569 2.441-2.345 4.615-2.564 2.093-.155.274,1.07.513,2.052 2.007-1.07 3.084-3.069 6.153-3.077 .574.738.553,1.251-.513,1.538 1.09.89 2.243-2.521 4.615-2.051 1.706-.354.826,1.061.513,1.538 1.26-1.136 5.427-3.447 5.641-1.025 1.85.141 1.391-2.027 3.076-2.051 1.613-.587 1.246.805 2.051,1.025 1.833-.76 4.056-3.547 6.153-1.025 .486-1.052 1.655-1.421 2.564-2.051 .909.116 2.567-.517 2.051,1.025 1.466-2.347 4.137-1.22 7.179-1.538 1.29-.136 2.243-1.446 3.077-1.539 4.815-.534 10.014.314 14.357-.513-10.536-3.485-22.863-3.2-34.867-4.102-2.209-.166-5.948,1.247-7.691-1.538 13.865.021 30.351.43 45.122,2.051-.131,1.064-2.253.14-2.563,1.025 1.814,1.792 4.877,2.015 7.691,1.538-.676-1.375-3.251-.852-4.615-1.538 1.033-.921 6.595-.943 9.742-.513 7.84,1.072 15.105,6.289 23.587,6.153 .072,2.123-3.567.534-5.127,1.025 2.473,1.484 7.079.961 9.742-.513 8.576.079 17.488-.212 24.099.513 1.076-3.881.528-9.386 1.539-13.332 2.242.795 5.698,3.638 8.204,1.025-.687-7.176-6.384-9.341-7.179-16.407 3.695.027 5.335,5.182 9.229,5.64 9.226,1.085 6.032-8.865 2.051-12.306-1.886-1.63-5.145-2.54-7.179-4.615-1.634-1.666-1.676-3.734-2.563-5.127-.473-.742-3.803-2.263-2.563-4.103 2.101-.05 2.329,1.773 3.076,3.077 5.405,2.114 9.292,5.748 14.87,7.69 3.004-1.713 5.704-6.494 3.076-10.768-2.062-2.033-4.699-3.488-7.691-5.127-4.346-2.381-7.903-3.606-13.844-5.128-2.796-.716-4.517-1.786-7.691-1.025-6.051,1.449-12.39,4.93-18.459,6.153 2.748-3.405 7.576-4.729 12.306-6.153-3.201-.248-6.702.899-9.742,2.051-5.017,1.9-11.217,4.866-15.383,7.691-1.328.9-2.723,1.469-3.076,3.076-4.64-.479-7.523,3.929-11.281,5.128-7.214,2.302-19.534.669-28.201,1.025-8.873.364-17.992,1.171-26.663.513-4.421-.335-7.793-1.074-13.332-1.538-10.285-.862-18.801-5.742-28.201-7.179-5.439-.831-8.405-.291-13.845-1.025-4.456-.602-8.604-2.312-12.818-3.076-3.699-.671-8.543.53-10.768-3.077 7.709-.793 16.238,1.821 23.586,3.077-1.982-8.443-.239-20.613-4.102-27.176 .458-6.713-2.903-12.435-3.077-18.973-.063-2.365.624-4.722.513-7.178-.256-5.661-1.838-10.358-2.564-16.921-.244-2.212-1.629-4.01-2.051-6.153-.396-2.014.271-4.13 0-6.153-.194-1.448-1.251-3.044-1.538-4.614-.877-4.796-1.476-10.083-2.564-14.87-1.453-6.396-4.079-12.073-5.64-17.946 1.071-.217 1.357.352 2.051.513 .123-2.721-1.904-.111-3.077-1.538-2.327-4.474-3.015-9.245-4.615-13.845-4.498-12.934-12.717-23.229-20.51-32.816-.152-1.349 1.989-.404 1.538-2.051-2.079-5.228-6.384-9.851-10.768-14.87-9.736-11.146-19.609-22.52-32.816-31.278-5.952-3.947-8.908-3.881-16.408-7.691-2.625-1.334-5.786-4.168-8.204-3.589-4.655,1.115-2.569,7.846-2.051,10.768-2.263-.212-3.963.139-5.127,1.025-3.91,3.61-4.643,10.398-10.255,12.306-5.146,7.543-10.99,14.611-16.408,22.048-5.507,7.559-8.237,16.356-13.332,24.612-1.886,7.373-3.493,15.022-6.153,23.074-1.297,3.925-1.251,7.293-2.051,11.28-.871,4.344-.93,11.972-1.539,18.459-.436,4.644-.601,8.247 0,14.87 .714,7.877 3.115,16.131 3.077,24.099-.044,9.133 4.557,16.854 5.64,24.612 1.052,7.532 2.913,13.647 5.641,19.484-1.932,5.525 2.211,11.401 3.076,17.434 .219,1.526-.326,3.299 0,4.615 .766,3.093 3.177,4.943 4.102,7.691 1.289,3.826.605,8.333 1.025,13.331 .667,7.928 3.874,15.376 6.153,22.049 5.817,1.266 7.124,4.977 14.357,5.64 2.997.275 7.719-1.999 9.229,2.052-2.417,1.496-5.038-.602-7.178-1.025-5.335.467-13.845.354-16.408-3.59-1.912.14-.705,3.397-3.589,2.563-1.979-4.616-1.251-9.617-2.564-14.356-1.844-6.658-6.483-13.304-3.076-21.023-1.578-2.183-1.535-5.985-3.589-7.69-1.292-5.276-1.837-11.748-3.589-16.921-1.005-2.967-1.951-7.314-3.077-11.794-1.111-4.42-1.953-8.121-3.076-13.844-2.208-11.248-6.392-22.433-7.179-34.867-.207-3.266.427-6.665 0-10.256-.237-1.991-1.767-4.684-2.051-7.178-.5-4.381.691-8.634.513-12.819-.301-7.046-1.311-15.882.513-24.612 .226-1.082 1.271-2 1.538-3.077 .444-1.791.123-3.915.513-5.64 .45-1.987 1.79-3.683 2.051-5.641 .191-1.433-.322-3.209 0-4.615 1.043-4.552 4.496-10.267 6.666-15.382 1.757-4.143 3.25-7.976 5.127-11.793 1.427-2.902 3.011-4.078 4.615-6.666 2.098-3.384 2.945-6.854 5.128-9.742 3.878-5.13 8.646-10.161 13.332-15.382 2.252-2.51 5.501-4.466 7.178-7.179 .931-1.505.664-3.614 1.539-5.127 1.28-2.214 4.29-3.71 5.64-6.153 .781-1.413.467-3.37 1.025-4.614 1.756-3.917 6.161-5.562 7.691-9.743-.235-8.758.874-16.729.513-23.074-.393-2.684-3.446-2.707-5.127-4.102-1.698-3.942-3.537-7.744-5.127-11.793 1.485-3.623-1.213-6.34-1.539-9.229-.194-1.729.678-4.196.513-6.666-.296-4.43-2.047-8.234-1.026-11.281 .619-1.847 3.052-2.744 4.102-4.615 1.509-2.687 1.354-6.538 2.564-9.229 1.106-2.46 3.501-4.596 5.127-6.666 .074-5.054 3.052-7.203 6.153-9.229 2.559-9.046 11.467-12.235 20.51-16.408 .793-.366 1.823-.601 2.564-1.025 2.501-1.433 6.456-2.039 10.255-3.589 1.296-.529 2.386-1.625 3.589-2.051 1.875-.665 3.914-.452 5.64-1.025 1.722-.572 2.843-2.139 4.102-2.564 5.031-1.7 10.835.359 15.383,1.025 1.075.158 2.365-.598 3.589-.513 2.114.147 4.487,1.79 6.666,2.051 3.602.431 7.245-.551 10.255.513 2.753.973 5.484,3.606 6.666,7.178 1.905-.51 1.34-1.095 3.589-.513 2.77,2.187 6.128,3.785 8.204,6.666 10.621,2.711 17.262,9.4 19.484,20.51 4.875,5.731 7.734,12.355 7.179,19.997-.133,1.836-1.128,3.577-1.539,5.641-.394,1.982-.131,4.179-.513,6.153-1.625,8.403-4.842,16.313-7.691,25.125-.768,2.375-2.278,5.344-2.564,7.178-.695,4.454.417,9.832 1.025,13.845 .67,4.414 3.133,9.273 2.564,13.331-.621,4.428-6.019,8.402-12.306,5.641-2.483,5.892-3.96,12.79-11.281,13.844-2.594,4.906-2.394,10.844-4.615,15.382-1.971,4.028-6.027,6.621-7.178,10.768-5.164.818-10.438,1.527-16.408,1.538 3.222,7.328 1.051,15.313 4.102,23.587 1.745,4.733 5.312,8.761 7.691,12.819 2.574,4.389 5.528,8.779 7.178,13.332 1.146,3.159 1.375,6.64 2.564,9.742 1.143,2.982 2.528,5.733 3.589,8.717 2.23,6.27 2.465,12.646 4.102,19.998 1.086,4.876 3.011,12.913 4.615,19.484 1.133,4.646 1.838,10.367 3.589,16.408 .079,1.275-.805,1.587-1.025,2.563 .511.686 1.386,1.007 1.539,2.051 1.698,18.129 5.365,34.288 5.127,54.353 2.668,2.503 6.062,2.047 11.28,2.563 8.082.8 15.744,4.663 22.561,6.153 17.932.429 41.781,1.688 62.043,1.025 12.354-.404 21.056-8.455 29.74-13.332 4.77-2.679 10.223-5.228 15.383-6.665 3.302-.921 6.675-.157 9.742-2.564 3.75,1.03 5.144-2.504 7.691-1.025 15.702-24.121 30.573-49.074 45.635-73.836-.288-6.44 2.953-9.353 4.102-14.357-9.683-5.669-22.288-.479-28.201,5.128-1.551-.33-2.959-.802-3.076-2.564-2.051,1.064-3.985-.236-5.641-1.025 3.234-6.388 9.895-10.093 17.434-13.332 4.695-2.017 7.889-4.08 13.332-4.615 22.632-2.223 36.362,15.222 48.198,25.125 3.389-.456 8.079,1.456 8.717,4.102 1.032,4.277-6.77,12.979-9.229,14.87-3.634-1.494-7.948-2.307-8.204-7.179-4.827-2.18-10.314-3.7-14.87-6.152-3.542.56-4.14,4.063-7.178,5.127-15.14,26.053-29.604,52.779-43.584,79.989 1.746,3.385 8.656,6.765 8.717,12.307 .049,4.535-3.524,9.048-10.256,8.204 .365,2.76 3.218,3.478 3.59,6.666 .615,5.273-3.33,11.437-10.255,10.255 3.746,6.108-1.082,11.556-6.666,12.818 1.473,9.267-8.679,13.343-17.946,11.794-2.529,2.428-3.265,6.648-6.153,8.717-10.538.454-16.621-3.548-19.997-10.256-8.607-3.5-20.796-5.521-32.304-4.614-24.549,1.932-49.399,11.531-75.887,11.28-3.275-.031-4.942-1.584-7.691,0-.423,7.693-2.778,14.33-3.589,21.536-.782,6.948 1.629,16.272-1.025,25.124 60.674-.574 135.049-1.544 202.024-1.538 1.428-2.846-.401-8.947 1.025-11.793 16.327-.969 37.66.173 58.454-.513 10.283-.339 20.334,1.282 29.739.513 4.662-.381 11.207.077 16.921,0 5.548-.075 11.233-.949 14.357,0 5.039,1.531 9.942,11.402 13.845,14.357 2.43-1.262 10.009-1.921 12.306,0-.774,3.156-7.045.817-10.255,1.538 2.294,4.2 5.841,7.148 8.717,10.768-.324,6.854.66,15.017-.513,21.022-5.471-.992-11.064.777-16.921.513-1.872-.084-3.762-.975-5.641-1.025-31.933-.85-67.748,1.271-97.936-.513-8.228-9.206-15.46-19.407-23.587-28.714-.461-1.501-.461-1.575 0-3.076-90.623,1.512-194.206.048-288.167,2.563-26.376.706-57.258-.57-82.041,0-2.59.06-8.131,2.18-9.742-1.025 .185-1.653 4.856-1.767 7.179-1.538 1.34.131 2.027,1.022 3.077,1.025 3.605.009 7.333-.886 11.28-1.025 37.196-1.318 72.181.494 106.653-1.025-8.189-8.128-24.003-10.699-34.867-17.434-2.388-1.48-4.903-2.951-7.179-4.615-2.083-1.523-5.05-2.988-5.64-5.641 4.162.966 6.774,3.481 9.229,6.153 10.65,6.271 22.699,11.143 35.38,15.383 2.05.17 2.846-.914 5.127-.513-2.318,3.57.043,3.095 1.025,6.666 13.113.695 27.962.615 38.969,0-.463-11.52 2.03-27.866 3.589-42.046 .184-1.67.306-3.124 1.025-4.615-4.246-.092-7.469.123-11.793,0-1.382-.039-4.052.473-7.179.513-2.817.037-6.707-1.031-10.255-1.025-9.494.017-19.61-2.382-29.227-4.102-6.088-1.09-12.589-3.045-14.87-5.128-2.298-2.098-3.688-6.833-5.64-10.768-1.848-3.726-4.515-7.14-6.153-10.255-4.109-7.815-5.399-16.694-8.204-24.1-2.782-7.345-6.651-14.232-9.742-21.023-2.45-5.381-5.168-10.353-6.666-16.407-.522-2.111-.228-4.338-1.025-6.153-1.444-3.288-5.556-4.254-8.204-6.153-1.705-4.512-1.064-7.399-3.589-10.768-1.322-1.764-3.706-2.337-5.127-4.103-.981-1.218-1.003-3.206-2.051-5.127-1.978-3.624-5.478-6.242-6.153-9.229-.503-2.226.783-4.671 0-7.179-.98-1.361-1.998,3.414-3.589,1.538 .043-1.837.797-2.963 1.026-4.614-1.254-6.096-4.766-9.934-7.179-14.87-1.832-10.345-3.19-21.011-1.025-31.278 .379-1.798 1.54-3.345 2.051-5.127 1.738-6.059 2.082-12.145 4.102-17.434 3.289-8.609 9.454-15.297 15.896-21.536 5.001-4.843 6.816-7.296 13.332-10.255 8.462-3.843 21.83-12.038 32.303-4.102-1.946,2.462-5.683-.692-8.204-1.025-7.473-.987-15.093,3.018-19.997,6.666-9.251,2.372-15.57,7.675-19.485,15.383-4.403,1.542-5.135,3.897-8.204,8.717-2.495,3.919-3.265,5.077-5.127,10.255-1.336,3.716-.816,5.695-1.538,10.768-.67,4.706-2.876,10.354-4.102,14.87-1.667,6.14 1.484,13.96 3.077,19.484-.079,1.631-1.163,2.256-1.026,4.103 1.282,4.529 4.83,6.792 6.666,10.768 2.374-.945 1.773-4.164 2.051-6.153 .33-2.356 1.025-4.772.513-7.178-.92-4.329-7.106-7.714-5.127-11.794 3.426,2.727 3.275,9.031 7.179,11.281 .23,1.947-1.329,3.647 0,5.127 2.666-1.437 3.476-4.729 5.64-6.666 .122-3.969-3.052-7.084-2.051-10.255 1.719,2.725 2.877,6.01 4.102,9.229 4.641-1.854 6.875-6.114 13.332-6.153 1.889-.504 2.956-1.83 4.615-2.564h4.102c3.406-2.094 5.904-5.957 9.229-9.229 1.515-1.491 3.257-2.56 5.127-4.102 1.676-1.381 2.983-3.578 4.615-4.102 2.28-.731 4.518-.364 7.179,0-2.023,6.352-9.379,7.371-12.819,12.306 .072,1.467 2.139.938 3.589,1.026-2.332,2.44-5.52,1.621-8.717,2.563-2.568.757-4.686,2.761-7.179,3.589-1.61.535-3.603.149-5.127.513-7.232,1.724-12.346,5.263-16.921,9.743 .59,3.544 1.105,5.693 0,9.229-2.544-.836-1.635,1.783-3.589,1.538-1.158-2.079.849-4.79.513-7.691-1.837-1.302-2.74,2.711-4.102,3.589-.367,1.393 2.418-.366 2.051,1.026-.077,1.975-2.854,1.247-3.589,2.563-1.131,3.275.246,5.868.513,9.229 .269,3.387-.884,6.398 0,8.717 1.277,3.348 6.439,4.432 5.64,8.717-.673-8.136 4.833-13.304 7.179-19.997-.181-.674-.903-.807-1.025-1.539-2.32-1.765-3.132,2.854-5.641,1.026 .291-2.273 1.661-3.467 1.539-6.153 3.448-2.318 5.32-6.958 8.717-9.742 1.533-1.258 3.48-1.979 5.127-3.077 1.443-.96 2.684-3.174 4.615-2.563-4.586,6.335-19.484,11.401-11.793,22.049 7.609-4.014 14.812-8.434 22.562-12.307 2.949-.925 4.994.241 7.178-1.025-1.51-1.517-3.243-.057-5.64-1.025-2.124,1.808-5.019,2.844-8.204,3.589-2.748,1.867-5.047,4.183-9.742,4.103 2.118-3.892 4.68-7.333 9.229-8.717 3.279-.998 7.191-.206 10.768-1.025 1.284-.295 2.211-1.599 3.589-2.052 4.949-1.625 10.659-.868 14.87-1.538 2.231-1.346 2.055-4.479 5.127-5.127 2.718-.574 5.671,2.027 9.229,2.564 6.36.959 13.283-.91 17.434,1.538 1.204-5.218 2.085-13.162 2.051-17.946-5.158-1.166-12.455-.193-18.459-.513 .154-1.385 2.157-.919 2.564-2.051-5.298,1.665-12.301-.233-16.921,1.538-1.959.749-2.582,2.889-4.62,3.589zm86.655-204.588c2.381-3.278-4.582-6.482-3.589-6.666 .366,2.539 3.357,2.454 3.077,5.641-4.237-2.087-5.968-6.681-8.717-10.255-3.35-3.316-9.298-4.034-12.819-7.178h-3.077c-5.764-3.761-8.087-12.692-18.972-9.743-3.562-2.174-6.53-5.848-11.793-5.64-3.646.144-6.12,2.916-9.229,2.564 .088-1.963 3.297-.805 3.076-3.077-1.856-1.6-2.655,1.141-4.615,1.025 1.076,2.062.216,4.438-2.051,4.615-.707-.661-.507-2.227-.513-3.589-9.895,2.241-17.775,6.496-23.587,12.819-.28-.745.6-2.65-.513-2.563-3.924,3.767-11.534,3.849-11.793,11.28-1.906.317-3.222,1.222-5.128,1.539-.682,4.613 1.935,5.927 3.077,8.717-.811,1.069-1.671,2.088-2.051,3.589 2.514,4.389 9.177,10.951 2.051,14.87-.283,5.752 3.185,7.754 5.64,10.768 3.026.222 7.312-.817 7.691,2.051-2.529-1.329-4.594.91-6.666.513-3.632-.696-4.353-2.995-6.153-6.153-1.536-2.694-2.566-4.577-2.051-8.204 1.628-1.277 2.933-2.878 3.589-5.128-2.367-3.273-5.013-6.268-6.666-10.255 3.128-1.788-.333-7.475-1.025-10.255-2.736,1.366-3.27,4.935-4.102,8.204-4.4.351-3.181,4.718-4.615,8.717-.77,2.146-2.263,3.729-2.564,5.127-.483,2.25 1.201,5.167-1.025,6.666-1.393.367.367-2.417-1.025-2.051-.19,1.689-1.198,2.562-2.051,3.589 .712,1.51 1.209,3.234 1.539,5.127-2.583,5.396-.646,11.813 0,17.946 1.717,2.555 4.165,4.381 5.127,7.691-1.912-.31-2.087-2.357-4.102-2.564 1.256,4.213 6.753,4.186 8.204,8.204 .771.994 2.159-.896 2.563,1.025-.398.115-1.011.014-1.025.513 2.821-.256 6.718.565 8.717-.513 1.366-1.148-.725-2.569.513-3.589 5.473-.509 13.806,1.841 13.844-4.102-6.049.8-11.528-6.552-6.666-10.255 .732,4.054 1.723,7.848 6.153,8.204 .086-1.453.94-2.137 1.025-3.589 4.349-1.633 4.881-7.083 9.23-8.717-1.234,3.552-3.924,5.647-5.128,9.229 .954,1.781 3.094,2.376 3.589,4.615-.095,2.17-2.63,2.763 0,3.589-2.573,3.983-4.472-1.134-6.153-2.563 .076,5.342-7.132,5.667-11.793,4.615-2.469,4.148-8.737,8.096-14.357,4.615-1.046,7.96-.407,18.156-2.051,24.099 17.565,2.433 29.894,10.101 42.046,17.947 .235-2.354-2.212-3.952-.513-6.153-2.63.053-2.498-5.346-2.051-6.666 1.816.064 2.918.842 4.102,1.539-.153,1.385-2.157.919-2.563,2.051 4.132.56 3.277,6.192 3.076,9.743 2.188.375 1.752,3.375 4.615,3.076-.492-4.563.819-8.176 3.076-12.306 1.126,2.409-.224,5.165-1.538,6.666 2.97,2.858-.065,9.629-3.589,8.717 .261,2.644 2.69,3.121 3.077,5.64-.406,1.474-1.414,2.347-2.051,3.589 4.809,1.281 7.746,6.805 13.845,5.127 .057.969 1.695.356 1.538,1.539-1.978,1.75.337,1.044 1.025,2.563-8.293,1.551-12.417-4.644-17.434-9.229 1.064-2.589-.324-2.689-1.538-4.102 2.514-1.65-3.428-4.086.513-6.153-4.917-1.463-7.553-5.857-11.793-8.717-8.849-5.967-22.688-8.984-33.329-12.819-1.098.953-3.059,1.043-3.076,3.076 23.545,7.049 39.212,21.977 53.839,37.944 5.449,6.687 11.437,12.834 15.896,20.51-.586-4.029-1.312-7.917-1.539-12.306-3.265-.666-6.209-1.653-7.178-4.615 .767-.087 1.892.183 2.051-.513-1.981-.924-5.079-.732-5.127-3.589 2.758,1.542 8.469,2.196 11.281,2.051 2.139-2.134 3.852-4.694 6.666-6.153 .38,3.467-2.408,6.466-2.051,8.204 .934-1.044 2.817-2.961 4.102-2.051 .345,1.664-3.564,3.547-1.026,4.102 .965-1.227 2.704-4.918 4.102-2.563 .904-2.002-.631-6.442 2.051-6.666 .784,1.631.18,2.256 0,4.102 3.437-2.276-1.023-8.129 2.563-10.255 1.215,3.004 4.845,5.699 2.564,9.229 2.924.36.835-4.292 3.589-4.102 .087.767-.183,1.893.513,2.051 2.158-3.905-1.854-9.598 1.538-13.332 3.565-.708 5.04-3.507 5.128-7.691-2.447-.396-3.3.802-5.641.513-1.341-2.504-2.229-.079-5.127-1.025-1.581,2.527-3.332,7.598-7.179,6.153 .269-3.492 3.754-3.766 5.128-6.153-4.401-.556-6.042-3.871-11.793-3.077-2.873-2.084-6.665-3.249-8.717-6.153 .97-1.469 2.951,1.78 3.589.513-3.748-.867-3.047-6.183-4.615-9.229 .402-1.731 3.388-3.06 1.025-4.615 .101,1.469.063,2.799-1.538,2.564-1.362-2.374-1.37-6.483.513-8.204-2.727-.179-2.707-3.104-4.615-4.102-1.191,3.404.523,4.292 1.025,7.179-5.329-1.59-2.055-5.801-1.539-10.768 .477-4.584-1.208-8.173 0-11.281-1.777.703-1.632-2.985-3.076-4.102-.47,2.095-2.46,4.824-4.102,4.102 1.679-2.594 2.543-6.003 5.127-7.691-2.722-3.313 2.958-7.32 2.051-10.255-1.751,2.186-4.453,6.135-8.717,4.102 .694-4.41 5.188-7.259 10.255-5.641 .686-1.678.721-6.762-.513-6.153 2.689,4.873-8.216,4.434-8.717,1.025 .238-1.812 2.299-1.803 2.051-4.102-1.662.409-4.153,2.657-6.153,1.025 1.77-2.788 9.894-2.296 11.28-1.025-14.408-12.24-20.379,15.721-17.946,31.278 4.619,1.03 4.425-2.753 7.691-3.077 2.014,3.016 3.141,8.071 2.564,11.28-1.062,5.901-8.039,5.188-9.743,9.743 1.062.305 3.369-.634 3.589.513-.158,1.209-1.781.954-1.538,2.563 .314.711 1.974.077 2.051,1.025-.164,1.204-1.587,1.148-2.051,2.051 7.845-.251.284,7.014-2.051,4.615 .355-1.013 1.368-1.367 2.564-1.538-.152-1.729-2.273-1.487-2.564-3.077-.292-2.613-1.146-4.666-1.538-7.179 1.522-3.264 4.913-4.659 8.204-6.153 1.739-4.045 1.115-6.349 0-10.768-2.696,1.244-4.334,3.091-7.179,2.563-5.171-.959-3.531-6.266-3.077-10.255 .256-2.246-.195-4.66 0-7.179 .814-10.474 4.605-19.053 9.743-20.51 2.459,1.132 4.538-.778 6.666-.513 3.892.485 6.26,4.166 9.743,4.102 .82,2.752 2.221,2.945 2.051,5.641-.095,1.511-2.148,3.181-2.051,4.102 .141,1.336 2.85,1.803 2.051,3.589 2.738-.167 2.419-3.392 4.615-4.102 1.075,3.094-2.536,5.326 0,6.666 .527-3.233 2.32-5.201 2.564-8.717 1.71-.529 5.338-1.817 4.615-3.077-.07.844-3.52.844-3.589,0 1.26-2.158 4.778-2.059 6.666-3.589 .403-2.186-2.639-4.378 0-5.64 2.5-.619 1.722,2.039 3.589,2.051-.768-3.817 2.859-6.208 0-7.691 1.735-.678 2.087-4.829 4.615-3.077 .781-1.27 1.053-3.049 2.564-3.589 1.264,2.8-2.232,7.223 1.538,8.717 2.386-2.229 4.971-4.259 4.102-9.742 3.217-2.905 9.093-1.703 14.357-1.538-.031,1.911.517,3.243 1.026,4.615 3.105-.371 4.206,1.263 6.666,1.538 .26-2.133-.178-4.964 2.051-5.127 1.587,4.053 1.382,9.898 4.615,12.306 3.245-6.281-.331-17.331-4.615-21.022zm-41.021-31.278c3.761-.164 7.06,2.843 9.229,2.563-2.304-1.159-6.83-4.832-9.229-2.563zm-52.813,8.717c1.55-.73 6.365-2.3 4.102-3.589 .205,2.443-5.305,1.85-4.102,3.589zm69.222,2.05c3.427-.509 5.094,3.437 7.179,2.564-.893-2.525-3.594-3.243-6.153-4.102 .153,1.008-.693,1.017-1.026,1.538zm-74.862,1.026c.049-1.318 2.001-.733 2.051-2.051-.971.103-3.398,1.322-2.051,2.051zm85.63,0h1.025v-1.025h-1.025v1.025zm-95.885,7.691c3.512.264 3.867-2.628 4.615-5.127 1.393-1 4.479-.307 4.615-2.564-6.222-.581-7.728,3.553-9.23,7.691zm105.114-2.051c-1.107-.79-5.761-2.869-5.128-2.051 1.385.686 3.055,3.756 5.128,2.051zm0,5.64c1.466,1.285-1.24-3.514-2.051-1.538 .682.515 1.908.485 2.051,1.538zm5.64,4.103c-.226-2.521-2.861-5.327-4.102-5.127 1.443,1.633 2.927,3.225 4.102,5.127zm-15.382,14.869h1.026c.574-.738.553-1.251-.513-1.538-.029.655-.658.71-.513,1.538zm-6.666,3.077c.085-1.453.939-2.137 1.025-3.589h-1.538c.306,1.062-.633,3.368.513,3.589zm30.765,3.589c.075-2.297-.055-4.389-1.025-5.641 .365,1.858.193,4.251 1.025,5.641zm-8.204,8.204c-4.521-3.147-3.445-13.541-12.306-10.768-8.03-6.184-11.096,7.222-19.997,6.666-1.206-.162-.304-2.431-2.051-2.051-.648,8.069-8.087,9.347-9.229,16.921-1.871,1.719-4.832,2.347-6.153,4.615-.938,4.361-.768,9.829-6.666,9.229 .116,6.676-4.67,11.065-3.589,17.434 .491,2.893 4.18,5.159 3.077,9.23 1.765,2.166 3.443,4.419 4.102,7.691 3.645.799 4.654,4.234 7.691,5.64 4.949.492 9.118-1.319 13.332,0 2.166-1.423 4.252-2.926 7.691-3.076 2.652-2.025 5.704-6.176 9.742-5.127-.833,1.731-2.837,2.29-2.564,5.127 1.551,1.184 4.657.812 6.666,1.538 1.393,3.73 6.961,5.706 8.717,1.025 .276-4.581-1.776-9.249-2.564-13.844-.602-3.507-1.658-8.483-1.538-10.255 .222-3.279 3.438-5.084 2.563-8.204-3.253.511-6.021-3.887-8.717-5.64-4.708-.419-8.697-1.558-11.28-4.102-1.544-1.533-5.562-.591-5.641-3.589 9.488,2.818 21.794,2.818 27.176,9.742 2.343-9.766 7.472-18.406 7.691-28.714-1.54.682-3.922.521-6.153.512zm7.691-6.153c.14-.698-.317-2.001-.513-1.025-.139.698.318,2.001.513,1.025zm-56.402,18.459c.665-.902 3.542-2.229 2.563-3.076-.087,1.479-4.67,1.101-2.563,3.076zm-13.332,14.357c-.451,1.647 1.69.703 1.538,2.051-.748,1.804-2.681,5.569-.513,7.179 2.302-3.338.254-11.027 2.564-14.357-.115.969.578,1.131.513,2.051 1.76-.291 3.137-.965 4.102-2.051-1.24-.64-1.659-2.102-2.051-3.589-3.296,1.771-3.912-2.229-5.127-4.102-2.022,3.327 3.184,10.599-1.026,12.818zm-3.077.513c1.808-.771 2.634-5.209 1.538-7.179 .357,3.076-2.949,4.699-1.538,7.179zm-23.586-1.025c-.106-1.629-2.985-3.134-3.589-2.564 1.12.857 1.577,4.201 3.589,2.564zm29.74,22.048c.208-2.601-1.118-3.668-2.564-4.615 .401,1.991 1.435,3.35 2.564,4.615zm3.076,13.844c1.429,1.647 2.448,3.705 4.102,5.127 .157,1.183-1.481.57-1.538,1.539 2.862,1.923 6.906,2.665 11.28,3.076 .22,1.416-1.912.481-2.051,1.538 5.239.424 8.344-.163 12.819,1.026-.074.606-.913,1.163 0,1.538 1.766-.799 4.591-2.692 6.153-2.051-.151,1.045-1.387,1.005-1.538,2.051 2.461-.444 3.574-2.237 6.666-2.051 .115.969-.578,1.131-.513,2.051 1.654.252 3.03-2.393 4.102-1.025-.482,1.398-2.786.974-2.051,3.589 5.396-1.159 6.355-10.629 2.563-13.845-3.459.726-4.16-1.309-6.666-1.538-5.369,4.545-15.685,4.142-25.638,4.102 .577-2.701-5.258-7.197-7.69-5.127zm6.666,61.531c-.151-1.729-.258-3.502-1.025-4.615-.081,1.96.026,3.734 1.025,4.615zm.513,5.64c-.105-.969.346-5.066-.513-3.589 .104.969-.346,5.066.513,3.589zm3.076,11.28c2.529,4.47.007-1.281 0,0zm4.102,6.153c1.739,4.615-.109-1.637 0,0zm4.102,8.204c-.743-1.82-1.133-3.994-2.563-5.127 .568,1.996 1.417,3.709 2.563,5.127zm1.539,3.077c-.714-.653-.223-2.512-1.539-2.564 .134.941 1.113,3.608 1.539,2.564zm2.563,8.717c-.07-.955-.337-1.714-1.025-2.051-.143,1.168.123,1.927 1.025,2.051zm-61.018,3.589c-2.945,2.012-6.119,3.794-7.691,7.178-1.839,1.079-5.27,3.261-4.615,5.128 4.551-4.337 10.203-7.573 14.87-11.793-.595-.43-1.374-.676-2.564-.513zm43.584,27.689c1.935,1.66 3.375,8.242 4.615,12.306 3.604-.08 7.955-8.692 8.204-11.28 .717-7.435-6.417-14.874-9.229-19.485-.293,6.543-1.082,12.592-3.076,17.433 3.067,1.61 6.917,4.962 5.64,9.23-3.247-1.539-2.621-6.951-6.154-8.204zm294.833,7.691c-1.521-4.062-6.276-5.343-9.742-8.203-2.212-1.826-3.494-4.61-5.641-6.666-5.373-5.149-13.632-9.649-22.048-10.255-11.919-.858-20.126,4.289-27.176,10.768 6.852-5.037 21.333-3.186 28.201.513-.879,3.907-3.045,6.527-4.615,9.742 3.406,2.234 6.892,4.39 11.281,5.641 5.648-9.316 17.203-2.908 24.099,1.538-1.449.424-1.328-.723-2.563-.513 .327,1.791 2.627,3.537 4.103,2.563 .972-1.719-2.516-1.874 0-2.051 2.101,1.734 2.785-2.323 4.101-3.077zm-71.785-15.383c-1.043.876-3.985,1.191-3.077,3.077 3.134-.999 5.452-4.164 8.204-6.153 2.832-2.046 6.459-3.319 7.691-5.641-4.735,2.108-9.466,5.902-12.818,8.717zm-223.048,5.64c-.507-1.371 1.133-4.279 0-3.076-.72.67-1.842,2.714 0,3.076zm-29.739-2.563c-.396,2.827.802,4.024.513.513 .882.027 1.314-.395 1.538-1.025-.969-.116-1.131.577-2.051.512zm25.125,2.563c-.648-.588-4.043-1.029-4.615,0 1.578.007 3.886,2.226 4.615,0zm-45.635,4.616c4.363-.386 5.807-.619 8.717-2.563-2.857.902-6.546.974-8.717,2.563zm11.28-2.051c1.728,1.556 1.555-1.897 0,0zm-23.586,4.614c2.206.135 6.084-.727 5.127-2.051-.909,1.484-4.368.418-5.127,2.051zm363.029,4.103c-1.501.134-1.576-1.159-3.077-1.025-.295,1.071-1.271,1.463-1.025,3.076 .653.714 2.512.223 2.564,1.538-1.921.417-3.298-2.328-4.103,0 1.781.099 1.946,1.813 3.589,2.051 .899-2.52 3.111-3.726 3.077-7.179-1.083-.455-1.516-1.561-3.077-1.538-.107,1.817 2.407,1.012 2.052,3.077zm-300.474-1.539c-.54,2.976 2.223.213 0,0zm30.253,4.615c1.164-.546.195-3.223.513-4.615h-1.538c.46,1.419-1.054,4.814 1.025,4.615zm223.56-4.615c-7.752,14.376-16.182,27.896-24.611,41.533-4.087,6.611-7.819,13.057-12.307,19.484-2.152,3.084-4.098,6.51-6.153,9.743-2.13,3.349-4.503,6.654-6.152,10.255 5.519.634 8.549,3.757 13.844,4.614 1.021-6.284 6.005-10.597 8.717-15.896 1.472-2.874 2.1-5.928 3.59-8.717 7.351-13.757 14.869-27.576 22.561-40.507 3.238-5.443 6.972-10.981 8.204-17.434-2.166-1.423-3.927-3.251-7.693-3.075zm41.533,10.768c1.11-1.064.028-1.748-1.025-2.052 .07.955.337,1.714 1.025,2.052zm-373.797,16.408c.406-1.808-1.604-3.819-2.563-2.564 1.205.505.851,2.567 2.563,2.564zm-4.615,4.615c1.408.814 3.72.724 5.127,1.538-.263-3.668-3.701-4.161-4.615-7.179-.949,1.102-.345,3.757-.512,5.641zm119.985,13.332c-.76-.089-.175,6.883 1.025,8.204 .469-3.546-.977-5.176-1.025-8.204zm-111.78,6.152h1.539c.066-.92-.509-1.199-1.539-1.025v1.025zm272.784,27.689c1.208-.012 1.51.883 3.076.513-.01-.768 1.905-2.098.513-2.564-.862,1.017-2.942.817-3.589,2.051zm-243.557,33.841c-.229-1.31-.719-2.357-1.538-3.076 .228,1.31.718,2.357 1.538,3.076zm1.025,2.565c2.219,5.995.513-.793 0,0zm198.436,24.098c4.092,1.33-3.421-1.542 0,0zm9.742,2.565c-3.284-.592-1.126,1.566 0,0zm14.87,4.101c3.051-.665 10.176-.565 11.28-1.538-3.848.425-8.598-.052-11.28,1.538zm-137.418,9.743c.734,3.494.796-2.108 1.025-1.538-.168-.418-1.505.354-1.538.513 .067-.317.477.854.513,1.025zm.513,4.102c.545-3.542-1.105,5.327 0,0zm-1.026,12.818c-.054-1.312-.291-2.444-1.026-3.076-.106,1.474.131,2.605 1.026,3.076zm339.955,35.893c-4.683-5.246-6.757-8.086-11.793-13.844-2.242-2.562-4.942-5.728-6.666-6.153-1.077-.266-4.11.547-6.153.513-6.932-.116-13.535-.513-19.997-.513-26.598,0-60.245-.398-86.143.513 6.688,9.037 13.787,17.661 21.535,25.638 35.108,1.193 78.257.15 114.345.513-.039-2.932-3.16-4.462-5.128-6.667zm-113.831,6.153c-.54,2.977 2.222.214 0,0zm5.127,4.616c.083-.357-.179-2.984-.513-1.539-.45,1.952.276,2.568.513,1.539zm19.998,0c.082-.357-.18-2.984-.513-1.539-.451,1.952.275,2.568.513,1.539zm30.765,5.639c.043,2.349-.881,5.753 1.025,6.666-1.415-3.713.422-10.677-1.025-14.357 .037,2.187-.047,5.066 0,7.691zm3.077-1.538c-.208-1.527.496-6.615-.513-5.641 .207,1.528-.497,6.617.513,5.641zm2.051-4.614c.14-.698-.317-2.002-.513-1.026-.14.698.317,2.001.513,1.026zm53.839,4.101c-.451-3.392 1.765-6.267-2.563-5.641v9.229c1.451-1.796-.398-6.893 1.025-8.717h1.025c.189,1.38-.47,6.244.513,5.129zm-76.401,2.564c-.246-1.992.553-7.707-.513-7.178 .248,1.992-.551,7.707.513,7.178zm14.87-6.665h1.025v-1.026h-1.025v1.026zm12.306,4.614c-.188-1.378.471-6.241-.513-5.127 .19,1.378-.469,6.241.513,5.127zm14.357-4.101c.14-.698-.317-2.002-.513-1.025-.139.696.318,2 .513,1.025zm5.128,6.665c-.257-2.152.564-8.064-.513-7.69 .257,2.152-.565,8.064.513,7.69zm10.768,1.539c-.277-2.641.595-9.126-.513-9.229 .277,2.639-.594,9.124.513,9.229zm12.306-6.666c-.736-1.528 1.8-3.124-.513-3.077 .295.902-.619,3.012.513,3.077zm2.051-.513c.067-.674.077-3.71-.514-2.051-.067.674-.076,3.71.514,2.051zm-12.306.513c.082-.357-.179-2.984-.513-1.538-.45,1.951.275,2.567.513,1.538zm-4.102,1.025c.067-.674.077-3.71-.513-2.051-.068.674-.078,3.71.513,2.051zm-66.658-.513c.14-.698-.317-2.002-.513-1.025-.139.698.318,2.001.513,1.025zm-3.076,10.255c2.018-1.56 1.004-9.593.513-11.28-.204,3.728.488,8.351-.513,11.28zm39.481-9.742c.14-.698-.317-2.002-.513-1.025-.139.698.318,2.001.513,1.025zm15.896-1.538c.525,3.834-.957,10.342.513,11.793-.337-3.765.677-8.882-.513-11.793zm-63.581,3.076c.082-.357-.18-2.984-.513-1.538-.451,1.952.274,2.568.513,1.538zm16.408,8.204c-1.289-1.969.298-9.515-1.026-9.742 .613,2.977-1.271,8.449 1.026,9.742zm2.051-5.64c-.14-1.098.396-5.47-.513-4.102 .139,1.098-.397,5.47.513,4.102zm26.663-2.564c.082-.357-.18-2.984-.513-1.538-.45,1.952.275,2.568.513,1.538zm36.918,8.204c-.277-2.64.595-9.125-.513-9.229 .277,2.639-.595,9.125.513,9.229zm12.306-6.666c-.006-.752.193-4.195-.514-2.563 .007.752-.193,4.196.514,2.563zm-105.115,2.565c-.166-1.235.438-5.861-.513-4.615 .167,1.235-.437,5.86.513,4.615zm15.383,4.101c.015-.871.399-8.812-.513-8.717 .334,2.743-.673,6.827.513,8.717zm56.403-9.229c.568,3.273-1.033,8.786.513,9.742-.04-1.49.473-7.533-.513-9.742zm5.64,9.742c-.011-1.003.419-9.184-.513-9.229 .335,2.912-.674,7.168.513,9.229zm-55.377-2.564c-.223-1.68.519-6.983-.513-6.153 .223,1.68-.518,6.984.513,6.153zm8.204,2.051c2.016-.189 1.005-8.354.513-7.691-.087,2.648.317,5.787-.513,7.691zm56.915-.512c-1.441-.967.387-7.886-1.025-7.179 .386,2.021-.949,8.449 1.025,7.179zm22.562-3.589c-.062-.853.28-4.645-.513-3.077 .062.852-.28,4.644.513,3.077zm1.538,4.614c1.399.047 1.032-.854 2.051,0 .8-1.002-.072-3.736-.513-3.589-.803.269 1.319,2.607-1.025,2.051-.329-2.063.667-5.452-.513-6.666v8.204zm2.051-5.641c.068-.674.078-3.71-.513-2.051-.068.674-.077,3.71.513,2.051zm-66.658-.512c.14-.697-.317-2.001-.513-1.025-.139.697.318,2.001.513,1.025zm2.051,0c.14-.697-.317-2.001-.513-1.025-.139.697.318,2.001.513,1.025zm54.352,6.153c.11-.509.326-7.672-.513-7.179 .635,2.654-1.17,6.693.513,7.179zm-47.173,0c.194-.304.261-6.884-.513-6.153 .327,1.895-.664,5.108.513,6.153zm4.614-5.127c.14-.698-.317-2.002-.513-1.026-.139.698.319,2.002.513,1.026zm46.661,5.127c1.218-1.047 2.387,1.062 2.563-1.025 .22-1.439-1.911,1.285-2.051-.513-.006-.752.193-4.196-.513-2.563 .001,1.367.001,2.734.001,4.101zm-71.272-.513c-.623-.916-.094-2.983-1.026-3.589 .373,1.164-.924,4 1.026,3.589zm-22.562-1.025c-1.393.367.367-2.418-1.025-2.051-.292,1.049.155,3.847 1.025,2.051zm27.176,1.025c-.469-.898-.176-2.559-1.025-3.076 .31,1.057-.828,3.562 1.025,3.076zm13.332.513c.626-.044-.046-4.28-.513-3.076 .451,1.813-1.317,2.641.513,3.076zm6.665-1.025c.068-.674.078-3.71-.513-2.051-.067.674-.077,3.71.513,2.051zm9.23.512c-.005-.752.194-4.196-.513-2.563 .006.752-.193,4.195.513,2.563zm18.972.513c-.306-1.062.634-3.368-.513-3.589 .562,1.952-1.357,3.2.513,3.589zm12.306,0c.815-.808.144-2.746-.513-3.589 .305,1.062-.634,3.368.513,3.589zm-101.013-.513c.652-.606.218-1.937-.513-2.563 .282.745-.598,2.65.513,2.563zm44.611-.512c-1.393.367.366-2.418-1.026-2.051-.293,1.049.155,3.846 1.026,2.051zm46.147,1.025c-.295-.901.619-3.013-.513-3.076 .451,1.813-1.317,2.641.513,3.076zm-79.989-1.025c.14-.698-.317-2.002-.513-1.025-.14.697.317,2.001.513,1.025zm-8.717,0h1.025v-1.025h-1.025v1.025zm2.563,0h1.025v-1.025h-1.025v1.025zm27.689.512h1.025c.313-.029.607-.076.513-.513-.678-.006-.469-.898-1.025-1.025-.029.655-.658.71-.513,1.538zm9.229-1.538c-.412,3.105 2.351.342 0,0zm6.666,0c-.412,3.105 2.351.342 0,0zm-18.459,1.026c-.655-.028-.71-.657-1.538-.513-.798,1.262 1.742,1.508 1.538.513zm7.179.512h1.025v-1.025h-1.025v1.025zm25.124,0h1.026v-1.025h-1.026v1.025zm42.046.513h1.026c.573-.738.553-1.251-.514-1.538 .023.706-.24,1.126-.512,1.538z" fill-rule="evenodd"/>
 <path d="m7.179,471.364c-1.374-.168-.976-3.84-.513-6.153 .586-2.928 2.088-6.297 3.076-9.229 1.837-5.452 3.972-12.356 6.666-17.946 1.228-2.548 3.282-4.504 4.615-7.179 3.362-6.747 3.751-14.893 8.717-20.51 3.007,6.555-3.473,13.222-5.64,17.946 3.353,3.142 8.479,4.51 11.28,8.204 1.313-.157 3.695-.785 5.127,0-.655,1.888-3.342,1.127-4.102,1.025-3.664-.49-7.631-4.982-11.281-4.615-4.224.425-6.459,6.521-8.204,11.28-.579,1.579-1.784,3.137-2.051,4.103-1.307,4.729-1.022,9.682-2.564,13.845-.579,1.562-1.986,2.706-2.564,4.102-.753,1.822-.018,4.799-2.562,5.127z" fill-rule="evenodd"/>
</svg>
