<?xml version="1.0" encoding="utf-8"?>
<!-- Generator: Adobe Illustrator 22.1.0, SVG Export Plug-In . SVG Version: 6.00 Build 0)  -->
<svg version="1.1" id="Layer_1" xmlns="http://www.w3.org/2000/svg" xmlns:xlink="http://www.w3.org/1999/xlink" x="0px" y="0px"
	 viewBox="0 0 640 480" style="enable-background:new 0 0 640 480;" xml:space="preserve">
<style type="text/css">
	.st0{fill:none;}
	.st1{fill:none;stroke:#000000;stroke-width:8.431;stroke-linecap:round;stroke-linejoin:round;}
	.st2{fill:none;stroke:#000000;stroke-width:8;stroke-linecap:round;stroke-linejoin:round;}
	.st3{fill:none;stroke:#000000;stroke-width:8.065;stroke-linecap:round;stroke-linejoin:round;}
</style>
<g>
	<g>
		<path class="st0" d="M635.3,313.1l2.7-2.1c-10.2-36.9-39.9-68.1-77.7-74.6c-7.6-1.3-15.3-1.6-22.8-1.1c0,0,0,0,0,0
			c-22.6,1.7-44.4,11.4-60.8,26.9l-4.8-2.2l-84-38.9c-0.5,0.6-1,1.3-1.5,2c-7.6,11-15.6,28.2-15.6,28.2l-20.8-22.1l-8.7-9.2
			l-20-21.3c0,0,2.6-1,6.4-2.6h0c1-0.4,2-0.8,3.1-1.3L204,136.1c-0.5-49.7-36.2-93.7-83.3-101.8c-37.8-6.5-76.4,12.5-98.4,43.8
			l1.9,2.6l6.8,1.2L128,99.5l28.2,51.2l-44.1,39.6L6,172.4l0.8,3.4c10.2,36.9,38.6,65.8,76.4,72.3c30.4,5.2,62.7-4.1,84.5-24.7
			l111.7,51.5l12.5,5.8l144.3,66.6l3.5,1.6c0.2,17.1,4.5,33.6,12,48.2c0,0,0,0,0,0c14.2,27.8,39.9,48.7,70.8,54
			c37.8,6.5,76.6-12.7,98.5-44.1l-1.1-2.9l-14-2.5l-90.1-16.1l-1.3-2.2l-27.6-49l44.9-39.9L635.3,313.1z"/>
		<path class="st0" d="M522.4,288.8l-45.5,40.1l29.5,53l8.2,1.4l92.8,16l0.6-0.4c-0.6,0.9-1.3,1.8-2,2.7
			c-21.4,28.7-56,44.8-91.6,38.6c-26.7-4.6-48.8-20.8-62.6-43.1c0,0,0,0,0,0c-9-14.5-14.5-31.6-15.5-49.8c-0.1-1.6-0.1-3.3-0.2-4.9
			l-140.6-64.8l-12.5-5.8l-113.9-52.5c-21.2,20-50.1,30.2-79.5,25.1C52.9,238,25.1,209.8,15.2,174l0.4,0.6l101,17.4l45.5-40.1
			l-29.5-53l-101-17.4l-0.6,0.4C52.3,51.5,88,34.3,124.7,40.6c45.7,7.9,77.7,49.7,78.2,97.9L327.7,196c-3.8,1.6-6.4,2.6-6.4,2.6
			l20,21.3l8.7,9.2l20.8,22.1c0,0,8-17.2,15.6-28.2l83.6,38.6c0.6-0.6,1.2-1.2,1.9-1.7c18.1-16.2,41.3-25.5,65.6-24.6c0,0,0,0,0,0
			c4,0.1,8,0.5,12,1.2c36.7,6.3,64.5,34.5,74.4,70.3l-0.4-0.6L522.4,288.8z"/>
	</g>
	<path class="st1" d="M635.3,313.1l2.7-2.1c-10.2-36.9-39.9-68.1-77.7-74.6c-7.6-1.3-15.3-1.6-22.8-1.1c0,0,0,0,0,0
		c-22.6,1.7-44.4,11.4-60.8,26.9l-4.8-2.2l-84-38.9c-0.5,0.6-1,1.3-1.5,2c-7.6,11-15.6,28.2-15.6,28.2l-20.8-22.1l-8.7-9.2l-20-21.3
		c0,0,2.6-1,6.4-2.6h0c1-0.4,2-0.8,3.1-1.3L204,136.1c-0.5-49.7-36.2-93.7-83.3-101.8c-37.8-6.5-76.4,12.5-98.4,43.8l1.9,2.6
		l6.8,1.2L128,99.5l28.2,51.2l-44.1,39.6L6,172.4l0.8,3.4c10.2,36.9,38.6,65.8,76.4,72.3c30.4,5.2,62.7-4.1,84.5-24.7l111.7,51.5
		l12.5,5.8l144.3,66.6l3.5,1.6c0.2,17.1,4.5,33.6,12,48.2c0,0,0,0,0,0c14.2,27.8,39.9,48.7,70.8,54c37.8,6.5,76.6-12.7,98.5-44.1
		l-1.1-2.9l-14-2.5l-90.1-16.1l-1.3-2.2l-27.6-49l44.9-39.9L635.3,313.1z"/>
	<path class="st0" d="M522.4,288.8l-45.5,40.1l29.5,53l8.2,1.4l92.8,16l0.6-0.4c-0.6,0.9-1.3,1.8-2,2.7
		c-21.4,28.7-56,44.8-91.6,38.6c-26.7-4.6-48.8-20.8-62.6-43.1c0,0,0,0,0,0c-9-14.5-14.5-31.6-15.5-49.8c-0.1-1.6-0.1-3.3-0.2-4.9
		l-140.6-64.8l-12.5-5.8l-113.9-52.5c-21.2,20-50.1,30.2-79.5,25.1C52.9,238,25.1,209.8,15.2,174l0.4,0.6l101,17.4l45.5-40.1
		l-29.5-53l-101-17.4l-0.6,0.4C52.3,51.5,88,34.3,124.7,40.6c45.7,7.9,77.7,49.7,78.2,97.9L327.7,196c-3.8,1.6-6.4,2.6-6.4,2.6
		l20,21.3l8.7,9.2l20.8,22.1c0,0,8-17.2,15.6-28.2l83.6,38.6c0.6-0.6,1.2-1.2,1.9-1.7c18.1-16.2,41.3-25.5,65.6-24.6c0,0,0,0,0,0
		c4,0.1,8,0.5,12,1.2c36.7,6.3,64.5,34.5,74.4,70.3l-0.4-0.6L522.4,288.8z"/>
	<g>
		<polygon class="st2" points="349.9,229.1 295.5,277.5 292,280.7 153.5,404 146.4,418.4 112.1,441.1 102.5,430.8 128.8,399.7 
			144.9,394.8 279.5,274.9 283,271.8 341.3,219.9 		"/>
		<path class="st3" d="M577.2,76.9L436.9,196.5c-20.8,4.2-35.2,11-44.9,19.7c-1.3,1.2-2.8,2.9-4.3,4.9c-0.5,0.6-1,1.3-1.5,2
			c-7.6,11-15.6,28.2-15.6,28.2l-20.8-22.1l-8.7-9.2l-20-21.3c0,0,2.6-1,6.4-2.6h0c1-0.4,2-0.8,3.1-1.3c9.1-3.9,22.1-10,27.3-14.7
			c9.1-8.7,17-22.9,22.9-43L517.2,13C517.2,13,571.2,21.7,577.2,76.9z"/>
	</g>
</g>
</svg>
