<?xml version="1.0" standalone="no"?>
<!DOCTYPE svg PUBLIC "-//W3C//DTD SVG 20010904//EN"
 "http://www.w3.org/TR/2001/REC-SVG-20010904/DTD/svg10.dtd">
<svg version="1.0" xmlns="http://www.w3.org/2000/svg"
 width="1082.000000pt" height="1280.000000pt" viewBox="0 0 1082.000000 1280.000000"
 preserveAspectRatio="xMidYMid meet">
<g transform="translate(0.000000,1280.000000) scale(0.100000,-0.100000)"
fill="#000000" stroke="none">
<path d="M3230 12789 c-406 -40 -836 -193 -1252 -445 -151 -92 -352 -232 -371
-258 -24 -35 -47 -102 -47 -140 0 -25 -19 -53 -96 -141 -253 -289 -278 -315
-356 -367 l-79 -51 -33 16 c-37 17 -71 13 -141 -17 -22 -10 -103 -40 -180 -68
-296 -106 -457 -187 -563 -283 -58 -52 -112 -132 -112 -164 0 -30 26 -68 304
-446 153 -208 255 -358 292 -427 63 -119 125 -190 198 -227 85 -42 147 -7 361
199 77 74 198 184 268 243 148 126 182 170 174 222 -5 32 -2 38 46 78 97 81
226 143 386 186 l146 39 155 -18 c143 -16 164 -21 273 -66 l118 -49 158 -175
c353 -392 812 -1021 1337 -1830 321 -495 343 -533 1212 -1970 294 -487 561
-922 594 -967 l59 -82 -9 -66 -9 -66 111 -157 c62 -86 197 -283 301 -437 380
-564 556 -811 935 -1315 625 -833 1100 -1512 1283 -1835 66 -115 184 -314 262
-441 130 -210 145 -239 164 -316 36 -155 54 -321 46 -452 -5 -94 -3 -140 11
-212 l17 -93 71 -74 71 -74 127 -22 127 -22 154 55 c233 84 433 200 662 384
99 79 219 182 267 228 76 73 90 92 118 162 l33 80 -22 94 c-19 84 -29 106 -96
205 -51 76 -129 169 -253 301 -163 174 -189 207 -301 381 -83 129 -178 298
-291 519 -92 180 -262 491 -379 692 -179 306 -274 455 -601 935 -562 823 -700
996 -1763 2213 l-842 962 -10 -62 -10 -62 -42 49 c-38 45 -43 55 -43 102 0 51
-1 53 -129 210 -548 676 -1058 1374 -1916 2623 -153 223 -355 513 -450 645
-236 331 -276 397 -345 572 -57 146 -59 155 -68 284 l-10 134 57 103 c48 90
69 116 151 192 83 77 110 94 199 134 58 26 162 62 233 81 123 34 136 35 298
35 265 0 333 -14 678 -136 161 -57 296 -104 301 -104 4 0 17 14 29 30 20 26
29 30 71 30 62 0 103 28 143 97 l29 52 -128 64 c-557 280 -1000 428 -1468 492
-136 19 -488 27 -615 14z m615 -160 c130 -16 411 -72 422 -82 2 -2 -41 -7 -94
-10 -97 -5 -304 -43 -504 -91 -177 -43 -356 -151 -446 -270 -165 -218 -198
-509 -92 -816 66 -192 170 -369 428 -728 97 -136 291 -413 431 -617 838 -1222
1337 -1907 1878 -2580 80 -99 149 -185 154 -191 5 -7 2 -163 -7 -374 -8 -199
-15 -387 -15 -418 0 -36 -3 -53 -10 -46 -5 5 -664 963 -1465 2129 -800 1166
-1473 2140 -1494 2165 -90 106 -195 153 -440 195 -85 14 -175 33 -200 42 -25
8 -101 50 -167 94 -155 101 -244 143 -303 143 -41 0 -74 -16 -314 -152 -293
-168 -297 -171 -297 -262 0 -60 42 -175 100 -270 l39 -65 -33 -30 c-19 -16
-76 -66 -127 -110 -52 -43 -157 -140 -235 -215 -78 -74 -155 -143 -172 -153
l-31 -18 -39 35 c-22 21 -61 78 -93 138 -31 57 -98 162 -151 233 -52 72 -165
226 -251 343 -86 118 -157 218 -157 222 0 36 137 137 267 196 72 33 498 194
513 194 4 0 28 -32 54 -71 58 -86 120 -155 159 -175 59 -31 94 -22 314 80 114
53 226 107 247 119 97 54 105 148 36 412 -37 140 -44 186 -45 261 0 111 -1
109 142 205 502 337 952 514 1423 559 131 12 395 3 575 -21z m3270 -6594 c925
-1058 1110 -1293 1650 -2085 321 -471 412 -613 600 -935 121 -209 293 -522
381 -695 108 -212 201 -378 285 -509 114 -179 138 -210 307 -389 275 -293 357
-431 322 -538 -19 -57 -110 -146 -325 -319 -230 -184 -417 -296 -619 -369 -71
-25 -139 -46 -152 -46 -12 0 -56 7 -96 15 -65 14 -77 20 -110 58 -45 53 -52
88 -49 277 3 166 -17 344 -55 494 -24 94 -34 114 -169 330 -78 127 -198 328
-265 446 -190 335 -716 1088 -1325 1895 -340 452 -571 777 -940 1325 -87 129
-200 294 -251 365 l-92 130 33 230 c19 127 55 424 80 660 51 487 53 501 65
489 4 -5 331 -378 725 -829z"/>
<path d="M6524 6006 c-46 -46 -44 -74 15 -176 43 -76 2685 -4061 2729 -4119
l19 -24 43 46 c80 88 179 137 324 163 44 8 81 16 84 19 4 3 -2871 3880 -2990
4031 -79 101 -161 123 -224 60z"/>
<path d="M9557 1593 c-2 -2 8 -56 24 -121 15 -64 41 -179 59 -254 l32 -138 38
-11 39 -12 123 88 c68 49 124 89 125 90 1 0 5 19 8 41 l7 40 -183 134 c-146
107 -191 135 -226 140 -23 4 -44 5 -46 3z"/>
</g>
</svg>
