<?xml version="1.0" encoding="utf-8"?>
<!-- Generator: Adobe Illustrator 22.1.0, SVG Export Plug-In . SVG Version: 6.00 Build 0)  -->
<svg version="1.1" id="Layer_1" xmlns="http://www.w3.org/2000/svg" xmlns:xlink="http://www.w3.org/1999/xlink" x="0px" y="0px"
	 viewBox="0 0 90.1 72.2" style="enable-background:new 0 0 90.1 72.2;" xml:space="preserve">
<style type="text/css">
	.st0{fill:none;}
	.st1{fill:none;stroke:#000000;stroke-width:0.3543;}
	.st2{fill:url(#SVGID_1_);}
</style>
<pattern  y="72.2" width="90.1" height="72.2" patternUnits="userSpaceOnUse" id="d" viewBox="0 -72.2 90.1 72.2" style="overflow:visible;">
	<g>
		<rect x="0" y="-72.2" class="st0" width="90.1" height="72.2"/>
	</g>
</pattern>
<path shape-rendering="auto" image-rendering="auto" color-rendering="auto" d="M45,2.8C33.2,3,21.3,3.7,10.8,9.4
	c-3.7,2.1-7.5,5.4-8,9.8C2.7,26.7,3.2,34.7,5.4,42c2.9,8.4,10.2,14.6,18.1,18.1c0,2.3-0.9,5.5,1.9,6.5c9.6,3.1,20,3,29.9,2.1
	c3.3-0.6,6.8-1,9.9-2.4c2.2-1.4,1.2-4.1,1.3-6.2c9.3-4.1,16.1-13,18-22.9c1.1-5.7,1.9-11.5,2.5-17.1c-0.9-6.9-7.4-10.3-13.3-12.6
	C64.8,3.8,54.8,2.9,45,2.8L45,2.8z M45.2,4c11.8,0.1,24.4,1.3,34.6,7.6c2.8,1.8,5.5,5.2,5.9,8.5c-2.1,6.6-10.1,9.2-16.1,10.9
	c-12.8,3.4-26.4,4.1-39.5,1.7c-7.9-1.4-16.3-2.9-22.3-8.7c-1.5-1.8-4.1-4.9-2.6-7.3c2.9-6.1,10.4-8.5,16.4-10.3
	C29.2,4.4,37.4,4,45.2,4L45.2,4z M44.8,6.1c-9.7,0.1-19.5,0.7-28.5,4.4c-3.5,1.8-7.2,4.2-8.3,8.2c1.7,5,7.2,7.1,11.7,8.9
	c15.4,4.9,32.2,4.9,47.9,1.1c4.7-1.6,10.2-2.6,13.6-6.5c2.4-2.9-0.6-6.4-2.9-8.3C72.1,8.8,63.8,8.3,56,7C52.3,6.4,48.6,6.1,44.8,6.1
	L44.8,6.1z M45,7.3c9.5,0.2,19.6,1.4,28.3,5.1c2.8,1.6,6.1,4.2,6.5,7.7c-2,3.5-6.5,4.2-9.9,5.6c-12.9,3.9-26.7,4.4-40,2.2
	c-6.4-1.3-13.3-2.7-18.1-7.3c-3-3.1,1.9-6.6,4.3-8C23.6,9,32.4,8,40.6,7.4C42,7.3,43.6,7.3,45,7.3L45,7.3z M4.6,23.1
	c0.6,0.8,1.3,1.6,2.1,2.3c0.1,0.9,1.5,12.2,5,19.1c4,7.9,13.4,13.5,18.8,15.7c0.2,0.3,0.5,0.5,0.8,0.7c-9.7-2.5-19.8-9.4-23.5-19.1
	C5.9,36.2,4.8,29,4.6,23.1L4.6,23.1z M85.1,27.6C84,34.9,81.9,43.1,77,49c-1.4,2-4.1,4.8-6.9,6.6c-5.3,3.5-11.3,5.4-11.3,5.4
	l0.8-0.7c0,0,14.5-7.6,18.5-15.5c3.3-6.6,4.9-16.3,5.1-17.8c0.7-0.7,2-2.5,2.4-3.4C85.5,25.1,85.4,26.3,85.1,27.6L85.1,27.6z
	 M8.3,26.7c4.9,3.9,11.5,5.6,17.2,7.1c6.7,1.5,12.9,1.9,19.8,2.2c13.7-0.2,29.4-3,36.3-7.8c-0.5,3.7-1.9,11.2-4.3,16.1
	C74,51,60.2,59,60.2,59c1.2-1.1-2.8-3.7-6.3-4.3c-6.9-1.1-14.2-1.1-21,0.9c-1.3,0.2-2.6,1.4-2.3,3.4c-2.8-0.5-14.6-8.4-18-15.1
	C9.9,38.7,8.7,30.3,8.3,26.7L8.3,26.7z M45.2,54.9c4.5,0.2,9.5,0.6,13.4,3c-0.6,3.8-7,3.5-10.3,3.9c-5,0.1-10.3,0.4-14.9-1.6
	c-5.4-2.8,3.1-4.8,5.6-4.9C41.1,55.1,43.1,54.9,45.2,54.9L45.2,54.9z M25,60.8c6.6,2.3,14.1,2.8,21.5,2.7c6.4-0.1,12.8-0.5,18.6-2.5
	c0.6,2.5-0.1,4.2-4.1,4.9c-8.7,1.5-17.6,2-26.3,1c-3.1-0.4-9.2-0.4-9.7-3.9C25,62.3,24.9,61.3,25,60.8L25,60.8z"/>
<path class="st1" d="M50.9,64.7c-1.6,0.6-0.8,1.8,0,1.8c0,0,4.8-0.2,7.1-0.8c2.4-0.6,6.6-3.5,6.6-3.5s-5.1,2.1-7.7,2.4
	C54.9,64.9,50.9,64.7,50.9,64.7z"/>
<path shape-rendering="auto" image-rendering="auto" color-rendering="auto" d="M68.3,9.1c-0.4,7-1.7,13.3-2.9,19.6l6.4-2
	c1.6-4.6,2.9-9.4,3.8-14.4L68.3,9.1z M69,10.3l5.7,2.5c-0.5,4.6-1.7,9-3.3,13.2l-5.2,1.5C67.2,21.9,68.3,16.6,69,10.3L69,10.3z"/>
<path shape-rendering="auto" image-rendering="auto" color-rendering="auto" d="M68.6,31.9l-0.8,0.2l-6.7,1.3l0,0.4
	c0.3,6.1-3,15.4-3,15.4c-0.2,0.5-0.2,0.6,0,0.6c0.2,0.1,0.3-0.2,0.5-0.4c0.4-0.4,7.3-11,9.7-16.7L68.6,31.9z M67.2,33.1
	c-2,4.7-5.8,12.3-8.7,16c1.3-3.8,3.6-9.9,3.5-15L67.2,33.1z"/>
<path shape-rendering="auto" image-rendering="auto" color-rendering="auto" d="M13.5,31.8c-0.4,0-0.7,0.2-1.1,0.5
	c-0.7,0.6-1.1,1.3-1.2,1.9c-0.2,0.7-0.2,1.3-0.2,2c0,1.9,0.8,3.5,1.7,5.4c0.7,1.4,1.7,2.8,3,3.6c0.5,0.3,1,0.7,1.6,0.9
	s1.4,0.2,2.1-0.3c0.7-0.5,1-1,1.1-1.5c0.1-0.5,0-1,0.1-1.5c0.1-2.1-0.8-4.3-1.6-6c-0.6-1.4-1.7-2.8-2.9-3.6c-0.4-0.3-0.9-0.7-1.5-1
	C14.3,31.9,13.9,31.8,13.5,31.8L13.5,31.8z M13.6,32.6c0.2,0,0.4,0,0.6,0.1c0.4,0.2,0.9,0.7,1.4,1c1.1,0.7,2.1,2,2.7,3.3
	c0.8,1.8,1.6,3.8,1.5,5.7c0,0.5,0,1,0,1.3c-0.1,0.4-0.2,0.7-0.8,1c-0.5,0.4-0.9,0.3-1.4,0.2c-0.5-0.2-1-0.5-1.5-0.8
	c-1.1-0.7-2-1.9-2.7-3.3c-0.9-1.8-1.6-3.3-1.6-5c0-0.7,0-1.2,0.2-1.8c0.1-0.5,0.4-1,1-1.5C13.2,32.7,13.4,32.6,13.6,32.6L13.6,32.6z
	"/>
<pattern  id="SVGID_1_" xlink:href="#d" patternTransform="matrix(0.6602 0 0 -0.6602 -2733.1787 -13227.4268)">
</pattern>
<path class="st2" d="M74.5,31.1c-1.4,12.1-6.2,20.6-17,27c-4.3,2.6-8.5,3.3-13.6,4.7c4.6-0.2,7.7,0.1,11.9-0.7
	c1.5-0.3,2.4-0.6,3.3-2.1c1.7-0.9,4.6-2.2,6.1-3.4c3.9-3,8.3-5.8,11.2-9.8c2.5-3.5,3.7-8,4.7-12.2c0.6-2.6,1-7.1,1-7.1
	C80.1,28.9,77.3,30.2,74.5,31.1L74.5,31.1z"/>
</svg>
