<?xml version="1.0" encoding="UTF-8"?>
<svg width="31.776mm" height="25.459mm" version="1.1" viewBox="0 0 112.59211 90.208193" xmlns="http://www.w3.org/2000/svg" xmlns:xlink="http://www.w3.org/1999/xlink">
 <defs>
  <pattern id="d" xlink:href="#c" patternTransform="matrix(.82529 0 0 .82529 1 947)"/>
  <pattern id="c" width="10" height="10" patternTransform="translate(0) scale(10)" patternUnits="userSpaceOnUse">
   <circle cx="2.567" cy=".81" r=".45"/>
   <circle cx="3.048" cy="2.33" r=".45"/>
   <circle cx="4.418" cy="2.415" r=".45"/>
   <circle cx="1.844" cy="3.029" r=".45"/>
   <circle cx="6.08" cy="1.363" r=".45"/>
   <circle cx="5.819" cy="4.413" r=".45"/>
   <circle cx="4.305" cy="4.048" r=".45"/>
   <circle cx="5.541" cy="3.045" r=".45"/>
   <circle cx="4.785" cy="5.527" r=".45"/>
   <circle cx="2.667" cy="5.184" r=".45"/>
   <circle cx="7.965" cy="1.448" r=".45"/>
   <circle cx="7.047" cy="5.049" r=".45"/>
   <circle cx="4.34" cy=".895" r=".45"/>
   <circle cx="7.125" cy=".34" r=".45"/>
   <circle cx="9.553" cy="1.049" r=".45"/>
   <circle cx="7.006" cy="2.689" r=".45"/>
   <circle cx="8.909" cy="2.689" r=".45"/>
   <circle cx="9.315" cy="4.407" r=".45"/>
   <circle cx="7.82" cy="3.87" r=".45"/>
   <circle cx="8.27" cy="5.948" r=".45"/>
   <circle cx="7.973" cy="7.428" r=".45"/>
   <circle cx="9.342" cy="8.072" r=".45"/>
   <circle cx="8.206" cy="9.315" r=".45"/>
   <circle cx="9.682" cy="9.475" r=".45"/>
   <circle cx="9.688" cy="6.186" r=".45"/>
   <circle cx="3.379" cy="6.296" r=".45"/>
   <circle cx="2.871" cy="8.204" r=".45"/>
   <circle cx="4.59" cy="8.719" r=".45"/>
   <circle cx="3.181" cy="9.671" r=".45"/>
   <circle cx="5.734" cy="7.315" r=".45"/>
   <circle cx="6.707" cy="6.513" r=".45"/>
   <circle cx="5.73" cy="9.67" r=".45"/>
   <circle cx="6.535" cy="8.373" r=".45"/>
   <circle cx="4.37" cy="7.154" r=".45"/>
   <circle cx=".622" cy="7.25" r=".45"/>
   <circle cx=".831" cy="5.679" r=".45"/>
   <circle cx="1.257" cy="8.519" r=".45"/>
   <circle cx="1.989" cy="6.877" r=".45"/>
   <circle cx=".374" cy="3.181" r=".45"/>
   <circle cx="1.166" cy="1.664" r=".45"/>
   <circle cx="1.151" cy=".093" r=".45"/>
   <circle cx="1.151" cy="10.093" r=".45"/>
   <circle cx="1.302" cy="4.451" r=".45"/>
   <circle cx="3.047" cy="3.763" r=".45"/>
  </pattern>
 </defs>
 <g transform="translate(2.7246 -960.73)">
  <path d="m98.774 1018.4c4.7892-7.953 6.748-32.213 6.748-32.213-0.52959-5.2959-8.2073-13.664-17.07-16.344-9.1294-2.7599-21.105-4.8055-34.474-4.8055-13.284 0-24.035 0.84473-33.634 3.9012-10.277 3.2727-18.043 10.29-18.424 15.625 0 0 0.46708 24.188 6.8398 34.189 5.0907 7.9896 9.7971 12.318 18.57 16.267l0.10938 4.6572c-0.1084 2.2066 1.7547 3.0935 3.7305 3.8223 8.4061 2.2935 13.998 2.8571 23.305 2.8574s14.899-0.5639 23.305-2.8574c1.9758-0.7288 2.4619-1.3657 2.3535-3.5723l-0.13086-4.4072c8.7634-3.949 13.884-9.0044 18.771-17.12z" color="#000000" color-rendering="auto" fill="#fff" fill-rule="evenodd" image-rendering="auto" shape-rendering="auto" solid-color="#000000" stroke="#f00" stroke-linecap="round" stroke-width=".35433" style="block-progression:tb;isolation:auto;mix-blend-mode:normal;text-decoration-color:#000000;text-decoration-line:none;text-decoration-style:solid;text-indent:0;text-transform:none;white-space:normal"/>
  <path transform="translate(0 946.06)" d="m53.48 18.207c-14.724 0.15442-29.568 1.0294-42.677 8.2705-4.6639 2.672-9.3782 6.7134-9.9581 12.196-0.17165 9.3364 0.4256 19.347 3.2422 28.506 3.5938 10.508 12.735 18.28 22.674 22.662-0.0043 2.8552-1.111 6.8644 2.3359 8.1855 12.033 3.8561 24.968 3.7587 37.43 2.5898 4.1823-0.7079 8.5491-1.1896 12.436-2.9629 2.702-1.7126 1.5557-5.1672 1.6406-7.8125 11.581-5.1205 20.187-16.206 22.561-28.672 1.3476-7.078 2.4111-14.366 3.1602-21.426-1.0831-8.5683-9.2419-12.899-16.619-15.728-11.469-4.5704-23.946-5.7655-36.225-5.8086zm0.26562 1.4199c14.715 0.15067 30.443 1.6694 43.227 9.4413 3.4706 2.2344 6.8519 6.4414 7.4277 10.656-2.6368 8.2252-12.572 11.438-20.123 13.667-15.973 4.279-33.045 5.0819-49.345 2.1211-9.878-1.8111-20.429-3.6305-27.854-10.921-1.936-2.2914-5.076-6.0709-3.1953-9.1074 3.6597-7.6428 13.006-10.6 20.539-12.826 9.41-2.4617 19.622-3.0101 29.324-3.0311zm-0.44531 2.7148c-12.091 0.13305-24.356 0.89913-35.564 5.5526-4.34 2.1918-9.0406 5.2357-10.344 10.23 2.122 6.2489 8.943 8.8919 14.605 11.07 19.256 6.1494 40.272 6.1505 59.822 1.3477 5.898-2.0112 12.794-3.1897 17.035-8.1543 3.0375-3.6538-0.69012-7.9518-3.584-10.32-7.8579-6.4107-18.278-7.0487-27.994-8.7089-4.6285-0.65296-9.3012-1.0158-13.977-1.0176zm0.17774 1.4219c11.864 0.18947 24.47 1.6905 35.41 6.4276 3.5442 2.016 7.6664 5.2448 8.0938 9.5957-2.4786 4.4022-8.0727 5.2762-12.428 6.9688-16.098 4.8987-33.425 5.5286-49.967 2.6895-7.9506-1.6156-16.57-3.4113-22.674-9.1445-3.7592-3.8266 2.3741-8.2229 5.3906-10.033 9.4297-4.3701 20.467-5.6216 30.764-6.3632 1.7132-0.0933 3.6944-0.14062 5.4102-0.14062zm-50.449 19.74c0.79663 1.0089 1.6762 1.955 2.6191 2.8477 0.10164 1.1667 1.9372 15.311 6.2549 23.933 4.939 9.8624 16.773 16.84 23.552 19.563 0.27675 0.33647 0.59951 0.65348 0.95703 0.93359-12.177-3.088-24.81-11.737-29.389-23.879-2.3241-7.0394-3.7845-16.023-3.9941-23.398zm100.58 5.6289c-1.3943 9.1825-3.9315 19.408-10.037 26.846-1.8086 2.535-5.1056 6.0068-8.6378 8.3047-6.6299 4.313-14.088 6.72-14.088 6.72l0.95196-0.85038s18.172-9.4948 23.146-19.427c4.1589-8.3046 6.1815-20.415 6.3858-22.282 0.9272-0.87551 2.5509-3.0985 3.029-4.2142-0.147 1.7594-0.35937 3.3696-0.74968 4.9036zm-95.99-1.0781c6.1239 4.8975 14.436 6.9961 21.556 8.8349 8.3833 1.9319 16.129 2.3484 24.69 2.751 17.074-0.29631 36.717-3.7615 45.426-9.705-0.66713 4.6052-2.3176 14.018-5.4004 20.174-4.154 8.2947-21.387 18.34-21.387 18.34 1.4526-1.3639-3.5323-4.574-7.9175-5.3639-8.6732-1.3567-17.774-1.3713-26.252 1.0938-1.5821 0.1962-3.2327 1.7357-2.8543 4.2858-3.5107-0.63185-18.3-10.449-22.525-18.885-3.253-6.4957-4.7967-17.044-5.3359-21.525zm46.145 35.297c5.6033 0.2148 11.822 0.73959 16.742 3.7754-0.77554 4.7286-8.7195 4.4123-12.873 4.8652-6.2316 0.073-12.832 0.51292-18.676-1.9844-6.6992-3.4904 3.8834-6.0398 7.0625-6.1387 2.599-0.297 5.1287-0.51608 7.7441-0.51758zm-25.283 7.2754c8.2998 2.8652 17.633 3.5058 26.894 3.3542 8.0426-0.13161 16.03-0.67639 23.237-3.1785 0.77642 3.1064-0.18038 5.2066-5.1504 6.0703-10.908 1.8959-21.954 2.5372-32.895 1.3027-3.902-0.4402-11.529-0.52509-12.098-4.9297 0.0335-0.7258-0.02133-1.8932 0.01172-2.6191z" color="#000000" color-rendering="auto" fill-rule="evenodd" image-rendering="auto" shape-rendering="auto" solid-color="#000000" style="block-progression:tb;isolation:auto;mix-blend-mode:normal;text-decoration-color:#000000;text-decoration-line:none;text-decoration-style:solid;text-indent:0;text-transform:none;white-space:normal"/>
  <path d="m60.875 1041.6c-1.9427 0.75-0.98877 2.25 0 2.25 0 0 6.0525-0.2235 8.875-1 2.9467-0.8107 8.25-4.375 8.25-4.375s-6.3888 2.5742-9.625 3c-2.479 0.3262-7.5 0.125-7.5 0.125z" fill="none" stroke="#000" stroke-width=".35433"/>
  <path d="m82.66 972.05c-0.53425 8.7274-2.0745 16.579-3.582 24.5l7.9805-2.4551c2.0301-5.757 3.5931-11.794 4.7891-18.051zm0.84961 1.5293 7.0762 3.0762c-0.63101 5.7857-2.1283 11.246-4.0898 16.533l-6.5605 1.8496c1.31-6.9159 2.7381-13.595 3.5742-21.459z" color="#000000" color-rendering="auto" fill-rule="evenodd" image-rendering="auto" shape-rendering="auto" solid-color="#000000" style="block-progression:tb;isolation:auto;mix-blend-mode:normal;text-decoration-color:#000000;text-decoration-line:none;text-decoration-style:solid;text-indent:0;text-transform:none;white-space:normal"/>
  <path d="m83.068 1000.6-0.9707 0.1934-8.4043 1.6816 0.02148 0.457c0.38043 7.6462-3.7106 19.196-3.7106 19.196-0.24725 0.6489-0.19226 0.7339-0.04946 0.7943 0.19227 0.081 0.34329-0.2056 0.66393-0.5069 0.52777-0.4692 9.128-13.715 12.075-20.9zm-1.8008 1.4434c-2.4666 5.8782-7.1973 15.332-10.818 20.006 1.5721-4.7688 4.5331-12.411 4.3125-18.703z" color="#000000" color-rendering="auto" fill-rule="evenodd" image-rendering="auto" shape-rendering="auto" solid-color="#000000" style="block-progression:tb;isolation:auto;mix-blend-mode:normal;text-decoration-color:#000000;text-decoration-line:none;text-decoration-style:solid;text-indent:0;text-transform:none;white-space:normal"/>
  <path d="m14.205 1000.5c-0.45876 0.035-0.92733 0.2377-1.3594 0.6153-0.86743 0.758-1.3319 1.5822-1.5547 2.4121-0.22277 0.8298-0.21962 1.65-0.22852 2.4668-0.02624 2.4093 0.96618 4.4121 2.1504 6.6894 0.93146 1.7913 2.0945 3.4718 3.7383 4.4668 0.58938 0.3568 1.2458 0.8397 2.0215 1.1055s1.7172 0.2569 2.6133-0.3613c0.83966-0.5793 1.236-1.2648 1.3672-1.9258s0.04925-1.2598 0.07227-1.8164c0.1103-2.6683-0.9407-5.3159-1.9883-7.5547-0.8095-1.7301-2.0829-3.4666-3.6816-4.5195-0.52379-0.345-1.1406-0.9363-1.8906-1.3028-0.37499-0.1832-0.801-0.3102-1.2598-0.2754zm0.07617 0.9961c0.2301-0.017 0.47218 0.045 0.74414 0.1778 0.54393 0.2658 1.1423 0.8194 1.7812 1.2402 1.375 0.9056 2.5783 2.5131 3.3242 4.1074 1.0266 2.194 1.9927 4.7159 1.8945 7.0899-0.0274 0.6625 0.03618 1.2159-0.05273 1.664-0.08892 0.4481-0.27741 0.8294-0.95508 1.2969-0.65789 0.4539-1.1465 0.435-1.7207 0.2383-0.57416-0.1968-1.1883-0.6283-1.8281-1.0156-1.3915-0.8424-2.4782-2.359-3.3691-4.0723-1.1782-2.2657-2.0603-4.0893-2.0371-6.2168 9e-3 -0.8218 0.0151-1.5547 0.19336-2.2188 0.17826-0.664 0.51152-1.2743 1.248-1.9179 0.30481-0.2664 0.54724-0.3556 0.77734-0.3731z" color="#000000" color-rendering="auto" fill-rule="evenodd" image-rendering="auto" shape-rendering="auto" solid-color="#000000" style="block-progression:tb;isolation:auto;mix-blend-mode:normal;text-decoration-color:#000000;text-decoration-line:none;text-decoration-style:solid;text-indent:0;text-transform:none;white-space:normal"/>
  <path d="m90.348 999.61c-1.7092 15.158-7.7736 25.743-21.286 33.796-5.3811 3.2069-10.568 4.1187-17.062 5.8354 5.6953-0.2353 9.6615 0.1299 14.836-0.8384 1.8796-0.3517 3.0201-0.6986 4.0822-2.605 2.1425-1.1379 5.7679-2.7845 7.6704-4.2486 4.8704-3.748 10.362-7.1956 14.058-12.265 3.1726-4.3514 4.6311-10.034 5.9116-15.265 0.79658-3.2539 1.2652-8.8509 1.2652-8.8509-2.414 1.648-5.8769 3.3119-9.4749 4.4419z" fill="url(#d)" fill-rule="evenodd"/>
 </g>
</svg>
