<?xml version="1.0" encoding="utf-8"?>
<!-- Generator: Adobe Illustrator 22.1.0, SVG Export Plug-In . SVG Version: 6.00 Build 0)  -->
<svg version="1.1" id="Layer_1" xmlns="http://www.w3.org/2000/svg" xmlns:xlink="http://www.w3.org/1999/xlink" x="0px" y="0px"
	 viewBox="0 0 199.7 121" style="enable-background:new 0 0 199.7 121;" xml:space="preserve">
<style type="text/css">
	.st0{fill:none;stroke:#000000;stroke-miterlimit:10;}
</style>
<path class="st0" d="M22.1,46.7c-0.8,0.2-1.6,0.6-2,1c-0.4,0.4-0.4,1.5-0.7,1.5c-0.6,0-1.4-1.4-2.3-1.4c-0.9-0.1-2.2,1-3.1,1
	c-1,0-1.9-0.3-2.6-1c-0.8-0.9-1.1-3.1-2.1-3.5C8.3,44,6.1,45.5,5,45.4c-1.1-0.4-1.5-2.2-2.2-2.6C2.1,42.4,1,42.3,0,42.7
	C-0.3,46,0.3,50,2.2,55.1C4.1,60.2,9.1,69,11.1,73c2,3.8,2.8,5.4,2.7,4.9c-2.3,1.8-4,3.5-5.2,5.1c-1.2,1.5-1.6,3-1.9,4.6
	c-0.5,1.6-0.8,4.9-0.3,5.4c0.6,0.5,2.6-2.4,3.5-2.2c0.6,0.3,0.4,3.1,1.4,3.5c1.1,0.3,3.7-1.9,5.1-1.6c1.3,0.3,1.9,2.7,3,2.7
	c1-0.2,2.4-3.8,3.5-3.5c1,0.4,1.9,4.7,2.7,5.1c0.7,0.2,0.6-3.6,1.6-3.5c1,0,2.8,3.3,4.1,3.8c1.1,0.2,1.8-1.9,2.4-1.9
	c0.6,0,0.8,0.8,0.8,2.2c-1.9,3.3-4.6,5.6-7.9,7.3c-3.5,1.7-12.4,1.2-12.2,2.4c0.3,1.1,8.9,3.5,13.8,4.1c4.9,0.5,9.8,0.3,15.2-0.8
	c0.2,1.8,0.6,2.9,1.4,3.3c0.7,0.3,1.8-1.7,3-1.1c1.1,0.6,2.5,4.6,4.1,4.6c1.5-0.1,3.1-5.4,5.1-5.4c1.9-0.1,5,4.2,6.5,4.6
	c1.4,0.3,2.1-0.6,1.9-2.7c0.9,4.3,2,6.6,3.2,7.1c1.2,0.4,2.1-3.3,3.8-4.9c1.7-1.7,3.9-3.1,6.5-4.6c5.2-1.1,9.2-1.8,12.5-2.2
	c3.2-0.4,5.5-0.4,6.8,0c-0.5,1.4,0.6,2.4,3.5,3c3,0.5,9.8,0.6,13.6,0.3c3.6-0.5,6.1-1.1,8.1-2.7c1.9-1.8,4-4.2,3.5-7.3
	c-0.5-3.3-2.7-7-6.5-11.7l8.4-0.5c0.1,2,0.8,3.2,1.9,3.5c1.1,0.2,3.6-2.2,4.6-1.9c0.8,0.3-0.3,3.5,0.8,3.8c0.9,0.1,3.6-3.1,5.1-2.7
	c1.4,0.4,2.4,4.3,4.1,4.9c1.7,0.3,5.2-0.5,6-2.2c0.7-1.7,0.1-4-1.6-7.3c4.8,2,10.1,3.1,16.3,3.2c6.3,0,16.7-1.3,20.6-2.4
	c3.7-1.3,0.7-3,1.6-4.3c0.8-1.4,3-1.4,3.5-3.3c0.4-1.9-1.4-6.5-1.1-7.6c0.2-1.2,2.1,1.8,2.7,0.8c0.6-1.1,0-5,1.1-6.8
	c1-1.8,4.6-2.3,4.9-3.5c0.1-1.4-3.7-2.6-3.8-3.8c-0.1-1.1,2.7-1.8,3-3c0.2-1.4-1.5-3-1.4-4.3c0.1-1.4,2.2-2.6,1.9-3.8
	c-0.5-1.4-3.8-2.1-4.3-3.5c-0.6-1.5,4.5-3,1.1-4.9c-3.6-1.8-10.7-3.8-22-6c2.8-3,3.4-5,1.3-6c-2.2-1-7.9,0.6-13.6,0
	c-5.8-0.7-14.1-2.1-20.3-4.1c-6.2-2-11.6-4.5-16.5-7.6c5.3-4.6,8.5-7.8,9.8-9.8c1.1-1.9-2-1-2.4-1.9c-0.4-1,0.6-3.7,0-4.1
	c-0.7-0.4-2.8,1.8-4.1,1.9c-1.3,0-2.4-1.7-3.8-1.6c-1.5,0.1-3.1,2-4.6,1.9c-1.5-0.3-2.3-3.9-4.6-3.5c-2.4,0.4-5.5,2-9.5,5.4
	c-0.7-3.5-1.6-5.5-2.7-6c-1.3-0.5-3,2.6-4.1,3c-1.2,0.3-1.9-1.8-2.4-1.1c-0.5,0.7-0.2,4.4-1.1,5.1c-1.3,0.6-4.7-1.4-5.7-0.8
	c-1,0.6,0.3,3.3-0.3,4.1c-0.7,0.7-1.8,0.7-3.5,0c-0.8-2.1-2.5-2.8-5.1-1.9c-2.7,0.9-6.2,3.2-10.9,7.1c-1.6-1.8-3.1-2.8-4.3-3
	c-1.4-0.3-2.1,2.1-3.3,1.6c-1.3-0.7-2.8-4.7-3.8-4.9c-1.1-0.1-1.2,4-2.2,4.1c-1.1-0.3-2.3-4.9-4.1-4.6c-1.8,0.4-3.9,2.7-6.5,7
	l-7.3-9.2c-2.1,2.8-3.5,5.1-4.1,7.1c-0.7,1.9-0.5,3.3,0.3,4.4c-1.8,0.9-3.2,1.3-4.4,1.1c-1.2-0.4-1.9-2.3-2.4-2.4
	c-0.5-0.2-0.4,1.9-1.1,1.9c-0.9-0.1-2.8-2-3.8-2.2c-1-0.1-1.1,1.3-2.2,1.3c-1.2-0.1-3.8-1.6-4.9-1.3c-1.2,0.2-2.3,1.6-2.2,3
	c0.1,1.2,1,3,2.7,4.9c-4.4,2.2-7,4.3-8.1,6.2c-1.1,1.9-0.8,3.7,1.4,5.4c2.1,1.7,8.9,3,11.1,4.9C23,42.5,23.4,44.5,22.1,46.7
	L22.1,46.7z"/>
<path class="st0" d="M30.1,76.8c-8-2.4-12.2-2.4-14.7-4.1c-2.5-1.8-1.4-5.5-0.5-6.3c0.7-0.7,3.7,2.2,4.9,1.7c1-0.9,0.4-5.1,1.4-6
	c1-0.9,3.1,1.9,4.6,1.1c1.4-1.2,2.7-5.5,3.8-6.8c0.9-1.1,1.4,0.8,2.4,0c1.1-1,2.5-5.3,4.1-6c1.4-0.8,3.3,2.1,4.4,1.4
	c0.9-0.9,0.8-5.1,1.9-6.3c1.2-1.2,3.3,0.5,5.4-0.5c1.8-1.2,3-5,6-6c3.1-1,9.4,0.3,12.2,0c2.6-0.4-0.5-2.5,3.8-2.4
	c4.3,0,16.6,0.8,22.2,2.7c5.4,1.9,8.7,6.5,11.1,8.4c2.4,1.7,2.8,1.5,3.8,2.4c0.9,1,1.1,2.2,1.6,3.3c0.5,0.8,1,1,1.1,2.2
	c-0.2,1.3-2,3.7-1.6,5.1c0.4,1.3,3.2,2,3.8,3c0.4,1-1,1.9-0.8,3.2c0.4,1.2,2.4,2.6,2.4,4.1c-0.2,1.2-2.7,2.3-3,3.8
	c-0.3,1.5,1.7,4.1,1.4,5.4c-0.5,1.2-3.5,0.8-3.8,2.4c-0.4,1.6,1.9,5.2,1.9,7.1c-0.1,1.7-1.6,1.9-1.9,3.5c-0.4,1.5,0.6,4.4,0,5.7
	c-0.6,1.1-2.5,0.8-3.5,1.7c-1,0.8,1,3.3-2.7,3.2c-3.9-0.2-13.7-1.3-20.1-4.1c-6.6-2.9-9.8-8.9-18.4-12.7
	C54.4,83.1,38.3,79.3,30.1,76.8L30.1,76.8z"/>
<path class="st0" d="M21.4,68.9c1.3,0.3,10.1,1.5,16.5,3.1c6.1,1.4,10,3.2,20.9,6.2c11.1,3.1,38.8,10.9,44.6,12.3
	c5.4,1.2-4.2-2.4-11.5-4.7c-7.6-2.4-22-5.9-32.4-8.6c-10.4-2.8-22.5-6.2-28.9-7.6C24.1,68.3,20.3,68.4,21.4,68.9z"/>
<path class="st0" d="M73.5,88.2c0.3,0.3,20.4,8.9,24.4,10.3c3.7,1.3,2.8-0.4-1.3-2.2C92.4,94.4,73.3,87.9,73.5,88.2z"/>
<path class="st0" d="M29.3,62.7c1.4,0.4,19.4,6,26.9,7.8c7.2,1.9,17.7,4,16.6,3.5c-1.4-0.6-16.8-4.6-24.2-6.5S28.1,62.2,29.3,62.7z"
	/>
<path class="st0" d="M39.1,58.1c14.8,3.6,23,5.4,25,5.7c1.8,0.1-8.9-3.3-13.6-4.4c-4.7-1.1-9.5-1.7-14.4-1.9
	C36.1,57.5,39.1,58.1,39.1,58.1z"/>
<path class="st0" d="M75.2,58.6C75,58.8,87,62.4,92.5,64.1c5.4,1.5,14.6,3.9,14.9,3.8c0.1-0.3-8.7-3.3-14.1-4.9
	C87.8,61.3,75.3,58.4,75.2,58.6z"/>
<path class="st0" d="M82.2,52.6c-1.3-0.1-16.1-3-21.1-4.1c-5.2-1.2-10.1-3.1-9-3c1.2,0.1,10.9,1.9,16,3.3
	C73.2,50.1,83.2,52.6,82.2,52.6z"/>
<path class="st0" d="M88.5,46.7c5.4,1.3,7.8,1.8,7.6,1.7c-0.4-0.3-6.2-2.3-9.3-2.7c-3.1-0.5-8.1-0.1-8.9,0c-0.9,0.1,0.4,0.1,3.8,0.3
	C81.7,45.9,88.5,46.7,88.5,46.7z"/>
<path class="st0" d="M78.4,35.3c-1.3-1.3-1.3-3.1,0-5.1c1.2-2.2,3-4.1,7.3-7.6C90,18.9,99.6,11.9,103.7,9c3.9-3,3.9-2.6,5.7-3.8
	c1.8-1.3,3.6-3.3,5.1-3.3c1.3-0.1,2.3,2.9,3.8,3.3c1.5,0.3,3.9-1.5,5.4-1.4c1.3,0,1.9,1.3,3,1.4c1.1,0,3-1.5,3.8-1.1
	c0.6,0.3-0.4,2.3,0,3c0.4,0.5,2.2,0,2.2,0.8c-0.1,0.7-0.6,1.6-2.7,3.8c-2.3,2.1-5.1,4.3-10.8,9c-5.9,4.7-13.5,10.7-23.6,18.7
	c-2.2-0.9-4.8-1.8-7.6-2.4C85.1,36.2,81.9,35.7,78.4,35.3L78.4,35.3z"/>
<path class="st0" d="M83.9,30.4C84,30,91,24.1,94.9,21.2c3.8-3,11.6-8.5,11.7-8.1c-0.1,0.3-8.1,7.1-11.9,10
	C90.8,26,83.8,30.6,83.9,30.4z"/>
<path class="st0" d="M108.3,17.4c1.8-1.9,4.4-3.9,6.8-5.4c2.2-1.6,8.2-5.4,6.5-3.5c-1.9,1.8-15.2,12.7-17.4,14.4
	C102,24.2,106.4,19.2,108.3,17.4z"/>
<path class="st0" d="M120.5,21.5c1.4,1.6,2.1,3.2,2.4,4.6c0.2,1.4-1.4,2.7-0.8,3.8c0.6,0.9,3.5,0.8,4.3,1.9c0.6,1-0.7,3.6-0.3,4.6
	c0.5,0.9,2.7-0.2,3.2,1.1c0.3,1.1-2,4.5-1.1,6c0.8,1.4,6.4,0.6,6,2.4c-0.6,1.8-5.6,5.1-9.2,8.1c-3.6,2.8-7.7,5.8-12.2,8.9
	c-1.9-0.3-2.9-1-3.3-2.2c-0.4-1.2,1.1-3.1,1.1-4.6c-0.1-1.6-1.4-3.2-1.9-4.6c-0.6-1.4-0.4-3.2-1.4-4.1c-1-1-2.6-0.8-4.3-1.9
	c-1.7-1.3-3.7-2.8-6-5.1C104.9,34.1,112.7,27.8,120.5,21.5z"/>
<path class="st0" d="M108.5,41.5c0.9-1.1,10.8-9,12-9.8c0.9-0.7-3.7,4-5.7,5.7C112.7,39.1,107.6,42.4,108.5,41.5z"/>
<path class="st0" d="M110.1,48.3c0.9-1.1,10.8-9.1,12-9.8c1-0.8-3.7,4.1-5.7,5.7C114.4,45.9,109.2,49.2,110.1,48.3z"/>
<path class="st0" d="M111.8,57.3c1-1.1,10.7-9,11.9-9.8c1-0.7-3.8,4-5.7,5.7C115.9,54.8,110.9,58.2,111.8,57.3z"/>
<path class="st0" d="M128.9,31.5c4.4-0.9,9.5-1.1,15.7-0.5c6.1,0.4,14.7,2.3,20.9,3.5c6,1.2,10.5,2.6,15.5,4.1
	c4.9,1.3,11.8,2.7,13.8,4.1c1.9,1.1-2.9,2.2-2.4,3.3c0.4,1.1,4.2,2.3,4.9,3.5c0.5,1-1.1,2-1.1,3.2c-0.1,1.2,1.4,2.8,1.1,4.1
	c-0.4,1.2-2.8,1.7-3,3c-0.3,1.3,1.6,3.5,1.6,4.6c-0.2,0.9-1.3,0.6-1.9,1.9c-0.6,1.4-0.8,4.8-1.4,6c-0.8,1-2.2-1.1-2.7,0.3
	c-0.5,1.3,0.5,5.6,0,7.6c-0.8,1.8-2.8,2.4-3.5,3.8c-0.6,1.5,2.1,3.1-0.3,4.3c-2.6,1-9.1,1.9-14.4,1.9c-5.3-0.1-7.6,0.2-17.4-2.4
	c-10-2.7-23.7-7.3-41.8-13.8c2.1-1.1,3.1-2.2,3.3-3.3c-0.1-1.3-2.2-2.5-2.7-3.5c-0.5-1.1-0.5-2,0-2.7c7.9-5,13.5-9.1,17.4-12.5
	c3.7-3.3,5.1-5.8,5.2-7.3c-0.1-1.7-4.5-1.1-5.2-2.4c-0.8-1.5,1.2-4.6,0.8-5.7c-0.5-1.2-2.8,0-3.2-0.8
	C127.7,34.6,127.9,33.4,128.9,31.5L128.9,31.5z"/>
<path class="st0" d="M122.2,69.5c1.3,0.6,19.1,7.1,26.3,9.5c7.1,2.3,17.4,5.1,16.3,4.6c-1.4-0.6-16.5-5.7-23.7-8
	C133.9,73.1,121,68.9,122.2,69.5z"/>
<path class="st0" d="M145.3,37.1c1.3,0.4,19.7,5.6,27,7.3c7.3,1.8,17.7,3.6,16.6,3.2c-1.5-0.6-16.9-4.2-24.3-6
	C157.3,39.7,144,36.6,145.3,37.1z"/>
<path class="st0" d="M169.5,49.7c-1.3-0.1-16.1-3-21.1-4.1c-5.2-1.2-10.1-3.1-9-3c1.2,0.1,10.9,1.9,16,3.3
	C160.6,47.1,170.6,49.6,169.5,49.7z"/>
<path class="st0" d="M186.4,64.9c-1.3-0.1-16.1-3-21.2-4.1c-5.2-1.2-10.1-3.1-9-3c1.2,0.1,10.9,1.9,16,3.3
	C177.4,62.3,187.4,64.8,186.4,64.9L186.4,64.9z"/>
<path class="st0" d="M153.1,72.3c-1.3-0.3-15.8-4.5-20.6-6.2c-4.9-1.7-9.8-4.1-8.6-3.9c1.2,0.1,10.6,3.2,15.6,4.9
	C144.4,68.8,154.1,72.4,153.1,72.3z"/>
<path class="st0" d="M150.9,64.1c-0.1,0.1,11.9,3.9,17.4,5.4c5.4,1.5,14.6,4,14.9,3.8c0.1-0.3-8.7-3.3-14.1-4.9
	C163.5,66.8,151,63.8,150.9,64.1L150.9,64.1z"/>
<path class="st0" d="M124.3,17.9l-2.4,3c1.4,1.9,2.1,3.3,2.4,4.6c0.3,1.2-1.6,1.9-0.8,2.7c0.7,0.8,2.4,1.5,5.1,2.2
	c2.2-0.8,5.4-1.2,9.8-1.3c4.3-0.1,9.6,0.1,16,0.8c-6.2-0.6-11.8-1.7-16.9-3.8C132.5,24.1,128.1,21.4,124.3,17.9L124.3,17.9z"/>
<path class="st0" d="M155.5,29.9c3.8,0.6,7.2,1,10.3,1.1c3.1,0,6.8-1.4,8.1-0.8c1.2,0.6,0.9,1.8-0.8,4.1c-3.6-0.5-6.8-1.2-9.8-1.9
	C160.3,31.6,157.8,30.7,155.5,29.9L155.5,29.9z"/>
<path class="st0" d="M113.4,76.3L121,89l9.2-0.3c0.1,1.9,0.7,3.1,1.6,3.3c0.9,0.1,2.9-2.3,3.8-2.2c0.9,0.1,0.4,2.6,1.3,3
	c0.8,0.3,2.1-1.8,3.5-1.3c1.3,0.3,3.4,2.7,4.6,3.5c1.1,0.6,1.6,1,2.4,0.8c0.8-0.2,2.3-0.3,2.4-1.6c0.1-1.4-0.6-3.7-1.9-6.8
	c-8.7-2.5-15.9-4.7-21.7-6.5C120.6,78.9,116.3,77.5,113.4,76.3z"/>
<path class="st0" d="M110.1,82.5c5.1,4.4,8.8,8.4,11.4,11.9c2.5,3.5,3.7,6.6,3.5,9.3c-0.3,2.5-1.9,4.6-5.1,5.9
	c-3.3,1.2-10.8,1.3-14.1,1.4c-3.3,0.1-4.3-0.4-5.4-1.4c-1.1-1.1-1.6-2.8-1.4-5.1c3.1,0.7,5.1,0.6,6.3,0.3c1-0.6-0.4-2.2,0.3-3
	c0.8-0.8,3.3-0.1,4.1-1.4c0.6-1.4-0.3-5.1,0-6.5c0.2-1.5,1.5-0.3,1.7-2.2C111.3,89.8,111,86.7,110.1,82.5z"/>
<path class="st0" d="M38,95.5c-0.9,3.9-1,6.9-0.3,8.9c0.7,1.8,3.3,1.9,4.6,3c1.2,1.2,1.9,3.2,3,3.8c1,0.5,2.6-1.3,3.5-0.6
	c0.9,0.7,1.3,4.4,2.4,4.4c1-0.2,2.3-4.9,4.1-5.1c1.9-0.3,4.9,3.1,6.8,3.5c1.7,0.3,1.7,1.3,3.5-1.6c1.8-3.1,4.1-8.4,7.1-16.3
	c-2.6-3.3-4.7-5.2-6.5-5.7c-1.8-0.5-3,2.3-4.4,2.4c-1.6,0-2.8-2.3-4.1-1.9c-1.2,0.3-1.6,3.5-2.7,3.8c-1.2,0.3-2.2-2.3-4.1-1.9
	c-1.9,0.3-5.7,3.6-7.3,3.8c-1.9,0-2.3-2.6-3.2-2.7C39.5,93.2,38.6,93.9,38,95.5L38,95.5z"/>
<path class="st0" d="M55.6,104.7c0.4-1.3,4.6-11,5.3-11.6c0.4-0.7-1.4,5.5-2.3,7.6C57.7,102.6,55.2,105.9,55.6,104.7z"/>
<path class="st0" d="M60.5,110.7c0.4-1.4,6-14.3,6.9-15.7c0.6-1.3-1.1,4.8-2.3,7.5C63.8,105.2,60.2,111.8,60.5,110.7z"/>
<path class="st0" d="M46.1,108.5c0.4-1.4,4.6-10.9,5.3-11.6c0.4-0.7-1.4,5.5-2.3,7.6C48.1,106.3,45.8,109.7,46.1,108.5z"/>
<path class="st0" d="M74.4,97.1c-3.4,6.6-5.5,11.5-6.5,14.9c-1,3.3-0.4,4.9,0.5,5.1c0.8,0,2-2.7,4.4-4.3c2.2-1.7,5.3-4,9.5-4.9
	c4.2-0.9,9.4-0.9,15.7-0.3l-1.6-3c-4.6,0.1-8.5-0.4-12.2-1.7C80.4,101.8,77.2,99.8,74.4,97.1z"/>
<path class="st0" d="M35.3,99.3c-0.3,2.1-1.4,3.6-3,4.9c-1.8,1.2-5,1.8-7.1,2.4c-2,0.4-4.6,0.1-4.9,0.5c-0.4,0.4,0.5,1.4,2.7,1.9
	c2.1,0.4,6.8,1,10,1.1c3.1,0.1,6-0.1,8.7-0.5c-1-0.5-1.9-1.1-3-1.9c-1.2-0.8-2.7-1.4-3.3-2.7C34.9,103.5,34.9,101.7,35.3,99.3z"/>
<path class="st0" d="M21.5,76.8c-3,0.5-5.5,1.2-7.6,2.7c-2.1,1.3-3.9,3.6-4.9,5.4c-1.1,1.9-1.6,4.8-1.4,5.7c0.3,0.8,1.8-1.4,3-1.1
	c1.1,0.3,2.1,2,3.3,2.4c1.2,0.2,2.4-1.1,3.5-0.8c0.8,0.3,1,2.3,1.9,2.2c0.9-0.4,2.4-3.7,3.5-3.8c0.9-0.1,1.5,3,2.4,3.2
	c0.9,0.1,2-2.6,3.2-2.2c1,0.5,1.5,4.5,3.5,4.9c2.1,0.1,6.7-3.5,8.7-3.8c1.8-0.2,1.9,1.9,3,2.2c0.9,0,1.8-1.3,3-1.9
	c1.2-0.7,2.7-1.7,4.1-1.7C52,90.3,53,92.2,54,92c0.8-0.4,1.3-3.1,2.4-3.5c1.2-0.4,3.4,1.3,4.6,1.3c1.2,0,1.9-0.4,2.4-1.3
	c-5-2.1-10.9-4-17.9-6C38.5,80.5,30.6,78.7,21.5,76.8L21.5,76.8z"/>
<path class="st0" d="M19,91.1c0-0.9,1.3-10,1.7-11.1c0.3-1,0.3,3,0,4.9C20.3,86.8,19,91.8,19,91.1z"/>
<path class="st0" d="M24.7,90.6c0-0.9,1.2-10,1.6-11.1c0.3-1,0.3,3,0,4.9C25.9,86.3,24.8,91.2,24.7,90.6z"/>
<path class="st0" d="M32,93c0-0.9,1.3-10,1.7-11c0.3-1,0.3,2.9,0,4.9C33.3,88.7,32,93.7,32,93z"/>
<path class="st0" d="M40.2,89.3c-0.2-0.5-0.2-5.4,0-6c0.1-0.6,0.8,1.7,0.8,2.7C40.9,87.1,40.3,89.5,40.2,89.3z"/>
<path class="st0" d="M13.5,85.8c-0.1-0.5,0.9-4.3,1.2-4.7c0.2-0.4,0.4,1.4,0.3,2.3C14.8,84.3,13.4,86.1,13.5,85.8z"/>
<path class="st0" d="M10.6,69.2c-2.1-3-3.9-6.5-5.4-10.6c-1.7-4.2-2.9-8.8-4.1-14.1c2,1.2,3.6,2.1,4.9,2.4c1.1,0.4,1.4-1.1,2.2-0.3
	c0.6,0.6,0.8,3.8,2.2,4.4c1.4,0.5,4.6-1.5,6.2-1.4c1.5,0,2.2,1.6,3,1.4c0.7-0.4,0.9-2.7,1.9-3c0.9-0.3,3.1,1.2,4.1,1.4
	c0.9,0.1,0.8-0.8,1.6-0.5c0.7,0.3,1.8,1.7,2.7,1.9c0.9-0.1,1.7-1.6,2.4-1.6c0.6,0,1.1,0.5,1.4,1.6c-0.4,1.9-0.9,3.3-1.9,4.1
	c-1.1,0.6-2.7-0.9-3.8,0.3c-1.2,1.1-1.4,5.5-2.7,6.5c-1.4,0.9-4-1.8-5.1-1.1c-1.2,0.6-0.8,4.1-1.6,4.9C17.6,66,16,64.6,15,64.9
	c-1.2,0.2-2.3,1.3-2.7,2.2c-0.5,0.8,0.5,2.6,0.3,3C12.2,70.3,11.5,70.1,10.6,69.2z"/>
<path class="st0" d="M7.8,51.9c0.4,0.8,2.9,9.5,3.2,10.7c0.1,1-1.6-2.7-2.1-4.4C8.3,56.3,7.4,51.1,7.8,51.9z"/>
<path class="st0" d="M12.9,51.8c0.4,0.7,4.3,9,4.7,10.1c0.3,0.9-1.9-2.4-2.7-4.1C14.1,56.1,12.5,51,12.9,51.8z"/>
<path class="st0" d="M18.1,52.3c0.3,0.5,3,6.3,3.3,7.2c0.1,0.6-1.3-1.7-1.9-2.9C18.8,55.2,17.8,51.8,18.1,52.3z"/>
<path class="st0" d="M32.3,20.9c-1.7-1.2-2.9-1.8-3.8-1.9c-0.9-0.1-0.8,1.2-1.6,1.1c-1-0.3-2.7-2-3.5-2.2c-0.8-0.2-0.3,1.4-1.3,1.3
	c-1.2-0.1-4.5-2.1-5.4-1.9c-1,0.3-1.2,1.3-0.3,3.2c0.9,1.8,2.3,2.8,5.7,7.6c3.4,4.6,8,11.4,14.4,20.3c1.5,1.2,2.4,1.5,3.2,1.1
	c0.6-0.6,0.3-3,0.8-4.1c0.4-1.1,0.9-1.8,1.9-2.2c0.9-0.4,2-0.4,3.5,0c-2.4-2.1-4.5-4.9-6.3-9c-1.9-4.1-3.3-8.9-4.6-14.9
	C34.1,20,33.2,20.5,32.3,20.9z"/>
<path class="st0" d="M21.2,21.5c0.6,0.5,6.1,8,6.8,8.9c0.5,0.8-2.4-2-3.5-3.4C23.2,25.4,20.6,21,21.2,21.5z"/>
<path class="st0" d="M27.6,23.1c0.6,0.6,5.3,8.5,5.8,9.5c0.4,0.9-2.2-2.1-3.1-3.7C29.3,27.2,27.1,22.5,27.6,23.1z"/>
<path class="st0" d="M17.4,25.3c-3.4,1.6-5.5,3-6.5,4.6c-1,1.5-1.5,3.1,0.5,4.6c1.9,1.4,8.9,2,11.1,4.1c2.1,2.1,2.6,4.7,1.6,8.1
	c0.7,0,1.5,0.2,2.4,0.5c0.9,0.3,2.1,1.6,3,1.7c0.6-0.2,0.5-1.8,1.3-1.9c0.9-0.1,2.1,0.5,3.8,1.6c-2.6-3.7-5.2-7.5-8.1-11.4
	C23.7,33.2,20.7,29.4,17.4,25.3z"/>
<path class="st0" d="M47,41.8c-1.8-1.8-3.6-4.1-5.1-7.1c-1.6-3-3.3-7.2-4.4-10.6c-1.2-3.5-2.2-7.2-1.9-9.8c0.3-2.6,1.4-4.1,3.5-5.1
	c1.3,1.7,3.4,4.1,6.3,7.3s7.1,8.4,10.8,11.7c3.7,3.2,7.1,5.7,10.8,7.6c-0.3,1.1-1.2,1.8-2.7,1.9c-1.7,0.1-4.2-1.2-6.5-1.1
	c-2.4,0-5.2,0.7-7.1,1.6S47.6,40.2,47,41.8z"/>
<path class="st0" d="M45.2,27.3c0.6,0.5,6.8,7.4,7.5,8.2c0.6,0.8-2.6-1.8-3.8-3.1C47.6,31,44.6,26.8,45.2,27.3z"/>
<path class="st0" d="M41.7,27.8c0.6,0.6,5.3,8.4,5.8,9.5c0.4,0.9-2.2-2.1-3.1-3.7C43.4,31.9,41.2,27.1,41.7,27.8z"/>
<path class="st0" d="M49.6,26.5c0.7,0.4,8.2,5.7,9,6.6c0.8,0.6-2.9-1.2-4.4-2.3C52.8,29.6,48.8,26.2,49.6,26.5z"/>
<path class="st0" d="M104.5,6.5c-0.1-2.7-0.7-4.3-1.3-4.6c-0.8-0.3-2.2,2.2-3,2.7c-0.9,0.3-1.8-1.3-2.2-0.6
	c-0.5,0.7,0.2,3.9-0.8,4.6c-1.2,0.6-4.7-1.5-5.7-0.8c-1,0.7,0.8,4.1,0,4.9c-0.9,0.7-2.6,0.5-5.2-0.5v8.1c2-2.1,4.5-4.2,7.6-6.5
	C96.9,11.5,100.4,9.2,104.5,6.5z"/>
<path class="st0" d="M68.4,34.5c-2.2-0.6-4.9-2.2-8.4-5.4s-7.6-7.6-12.5-13.3c1.3-3,2.6-4.4,4.1-4.6c1.4-0.1,3,3.2,4.3,3.5
	c1,0.2,1.6-2.5,2.7-2.2c1.2,0.2,2.9,3.7,4.3,4.1c1.2,0.3,1.9-2.5,3.5-1.9s4,2.8,6,5.1c1.8,2.2,3.6,4.9,5.1,8.2c-1,0.8-1.7,1.7-1.9,3
	c-0.2,1.2-0.1,2.6,0.6,4.4C73.6,35,71,34.8,68.4,34.5z"/>
<path class="st0" d="M55,16.4c0.7,0.5,6.7,7.3,7.5,8.2c0.6,0.9-2.6-1.7-3.8-3.1C57.3,20,54.4,16,55,16.4z"/>
<path class="st0" d="M63.4,18.1c0.6,0.5,6.8,7.4,7.5,8.2c0.6,0.8-2.6-1.8-3.8-3.1C65.8,21.8,62.7,17.6,63.4,18.1z"/>
<path class="st0" d="M78.7,27.2c-0.2-2-0.9-3.9-2.2-5.7c-1.3-1.8-3.1-3.6-5.4-5.1c2.8-2.1,5.1-3.6,7.1-4.6c1.8-1.1,3.4-1.7,4.6-1.6
	c1.1,0,2,0.5,2.4,1.6l-0.3,9c-1.9,1.5-3.3,2.7-4.4,3.8C79.5,25.5,78.9,26.4,78.7,27.2z"/>
</svg>
