<?xml version="1.0" encoding="UTF-8"?>
<svg enable-background="new 0 0 199.688 121.028" viewBox="0 0 199.688 121.028" xmlns="http://www.w3.org/2000/svg">
 <path d="m22.122,46.744c-.828.216-1.62.612-1.98,1.044-.36.396-.36,1.512-.684,1.548-.576-.036-1.44-1.368-2.304-1.368-.936-.108-2.196.972-3.096,1.008-1.008-.036-1.872-.324-2.592-1.008-.756-.864-1.08-3.06-2.088-3.528-1.08-.396-3.312,1.08-4.356.936-1.08-.36-1.476-2.196-2.16-2.592-.792-.432-1.872-.504-2.844-.073-.36,3.24.324,7.272 2.196,12.384 1.872,5.148 6.84,13.896 8.928,17.893 1.98,3.814 2.844,5.398 2.736,4.895-2.304,1.766-4.032,3.529-5.184,5.148-1.188,1.512-1.584,2.953-1.872,4.607-.504,1.622-.792,4.862-.288,5.438 .576.504 2.592-2.449 3.528-2.197 .648.252.36,3.098 1.368,3.529 1.116.287 3.672-1.873 5.148-1.621 1.296.252 1.872,2.736 2.988,2.736 1.044-.18 2.448-3.816 3.528-3.527 1.044.359 1.944,4.715 2.7,5.148 .684.215.576-3.602 1.62-3.529 .972,0 2.844,3.348 4.068,3.781 1.116.18 1.836-1.873 2.448-1.873 .576.037.756.756.828,2.16-1.944,3.275-4.572,5.615-7.884,7.309-3.492,1.656-12.42,1.223-12.204,2.447 .252,1.08 8.928,3.457 13.824,4.068 4.896.469 9.828.287 15.192-.828 .216,1.836.576,2.881 1.368,3.275 .72.252 1.764-1.727 2.988-1.08 1.116.613 2.52,4.609 4.068,4.609 1.548-.109 3.132-5.438 5.148-5.438 1.944-.143 5.04,4.176 6.516,4.609 1.368.324 2.052-.576 1.908-2.701 .936,4.32 2.016,6.625 3.24,7.057 1.152.359 2.052-3.348 3.816-4.896 1.692-1.656 3.852-3.096 6.48-4.607 5.184-1.117 9.216-1.836 12.492-2.16 3.168-.396 5.472-.396 6.768,0-.468,1.404.612,2.447 3.528,2.988 2.951.539 9.793.576 13.572.252 3.6-.504 6.119-1.08 8.137-2.701 1.906-1.764 3.959-4.211 3.527-7.344-.469-3.275-2.736-6.982-6.516-11.664l8.424-.539c.143,2.016.828,3.24 1.908,3.527 1.08.18 3.635-2.195 4.607-1.871 .828.324-.252,3.527.791,3.779 .9.107 3.637-3.061 5.148-2.699 1.439.395 2.377,4.283 4.068,4.859 1.656.324 5.221-.539 5.977-2.16 .684-1.656.143-3.959-1.621-7.309 4.752,2.018 10.08,3.098 16.273,3.24 6.264.037 16.703-1.332 20.627-2.447 3.709-1.26.684-3.023 1.621-4.32 .826-1.367 3.023-1.439 3.527-3.275 .359-1.908-1.439-6.48-1.08-7.596 .18-1.152 2.053,1.764 2.699.828 .613-1.08 0-5.006 1.08-6.77 .973-1.836 4.645-2.268 4.896-3.527 .107-1.404-3.707-2.629-3.816-3.816-.143-1.116 2.664-1.836 2.988-2.988 .18-1.368-1.477-2.952-1.367-4.32 .072-1.404 2.23-2.628 1.908-3.816-.541-1.368-3.781-2.088-4.32-3.528-.576-1.548 4.463-2.988 1.08-4.86-3.602-1.836-10.729-3.78-21.961-5.976 2.844-3.024 3.42-4.968 1.332-5.976-2.16-1.008-7.883.612-13.572,0-5.76-.72-14.111-2.124-20.34-4.068-6.229-2.016-11.592-4.5-16.523-7.596 5.291-4.608 8.496-7.812 9.756-9.756 1.115-1.944-2.016-1.008-2.447-1.908-.396-1.044.576-3.744 0-4.068-.721-.36-2.773,1.8-4.068,1.908-1.332-.036-2.449-1.692-3.781-1.62-1.512.108-3.096,1.98-4.607,1.872-1.547-.324-2.34-3.852-4.607-3.492-2.377.36-5.545,2.016-9.504,5.4-.721-3.528-1.621-5.472-2.701-5.976-1.295-.54-2.987,2.628-4.103,2.988-1.152.324-1.908-1.836-2.412-1.08-.504.684-.18,4.392-1.116,5.148-1.26.648-4.68-1.368-5.688-.792-.972.576.288,3.276-.252,4.068-.72.684-1.764.684-3.528,0-.756-2.124-2.52-2.808-5.148-1.908-2.736.864-6.228,3.168-10.872,7.056-1.62-1.764-3.06-2.808-4.32-2.988-1.368-.252-2.088,2.088-3.276,1.62-1.332-.684-2.772-4.716-3.78-4.86-1.08-.108-1.152,4.032-2.16,4.068-1.116-.252-2.34-4.932-4.068-4.608-1.8.36-3.924,2.7-6.516,7.02l-7.344-9.216c-2.088,2.808-3.492,5.112-4.068,7.056-.684,1.908-.54,3.312.288,4.356-1.8.936-3.204,1.296-4.356,1.08-1.224-.36-1.908-2.34-2.448-2.448-.54-.18-.432,1.944-1.08,1.908-.9-.144-2.808-2.016-3.78-2.16-1.008-.108-1.08,1.26-2.16,1.332-1.224-.072-3.78-1.62-4.896-1.332-1.224.216-2.268,1.62-2.16,2.952 .072,1.224.972,2.988 2.7,4.896-4.356,2.16-7.02,4.284-8.136,6.228-1.116,1.908-.792,3.672 1.368,5.436 2.124,1.728 8.892,2.988 11.124,4.896 2.052,1.766 2.448,3.817 1.188,6.014z" fill-rule="evenodd" stroke="#000" stroke-miterlimit="10" stroke-width=".036"/>
 <path d="m30.15,76.803c-8.028-2.447-12.168-2.412-14.652-4.066-2.52-1.801-1.404-5.508-.54-6.266 .684-.719 3.744,2.232 4.86,1.656 .972-.863.36-5.076 1.368-5.975 1.044-.865 3.096,1.943 4.608,1.08 1.368-1.152 2.736-5.545 3.816-6.769 .936-1.116 1.368.828 2.412,0 1.116-1.044 2.52-5.256 4.068-5.976 1.368-.792 3.276,2.124 4.356,1.368 .9-.936.756-5.112 1.908-6.264 1.224-1.224 3.348.54 5.4-.54 1.8-1.152 2.952-5.04 5.976-5.976 3.06-1.008 9.396.288 12.204,0 2.592-.432-.54-2.484 3.816-2.412 4.32,0 16.596.756 22.248,2.7 5.4,1.872 8.676,6.48 11.088,8.388 2.447,1.656 2.844,1.548 3.816,2.448 .9,1.008 1.115,2.232 1.619,3.276 .504.756 1.008.972 1.08,2.16-.18,1.26-2.016,3.672-1.619,5.148 .395,1.259 3.24,1.98 3.816,2.988 .395,1.008-1.045,1.908-.828,3.24 .359,1.225 2.375,2.627 2.447,4.068-.217,1.188-2.699,2.268-2.988,3.816-.252,1.512 1.691,4.104 1.369,5.436-.469,1.223-3.492.828-3.816,2.412-.396,1.584 1.908,5.184 1.908,7.055-.109,1.693-1.621,1.945-1.908,3.529-.396,1.512.576,4.428 0,5.688-.648,1.115-2.521.828-3.529,1.656-1.043.791.973,3.313-2.699,3.24-3.924-.18-13.68-1.26-20.088-4.068-6.552-2.881-9.828-8.893-18.432-12.744-8.82-3.995-24.984-7.847-33.084-10.296z" fill="#fff" fill-rule="evenodd" stroke="#000" stroke-miterlimit="10" stroke-width=".036"/>
 <path d="m21.438,68.92c1.26.324 10.08,1.512 16.452,3.131 6.12,1.404 9.972,3.205 20.88,6.229 11.124,3.061 38.772,10.908 44.603,12.275 5.438,1.189-4.175-2.447-11.483-4.68-7.56-2.375-21.96-5.904-32.364-8.639-10.44-2.809-22.5-6.156-28.944-7.561-6.516-1.368-10.26-1.296-9.144-.755z" fill-rule="evenodd" stroke="#000" stroke-miterlimit="10" stroke-width=".036"/>
 <path d="m73.53,88.18c.288.324 20.412,8.893 24.408,10.297 3.708,1.26 2.808-.434-1.332-2.16-4.212-1.874-23.292-8.426-23.076-8.137z" fill-rule="evenodd" stroke="#000" stroke-miterlimit="10" stroke-width=".036"/>
 <path d="m29.322,62.691c1.368.396 19.44,5.977 26.856,7.848 7.236,1.908 17.712,3.961 16.56,3.529-1.44-.613-16.812-4.572-24.156-6.48s-20.52-5.436-19.26-4.897z" fill-rule="evenodd" stroke="#000" stroke-miterlimit="10" stroke-width=".036"/>
 <path d="m39.078,58.083c14.832,3.6 22.968,5.401 24.984,5.688 1.836.145-8.892-3.348-13.572-4.356-4.716-1.08-9.468-1.656-14.4-1.872l2.988.54z" fill-rule="evenodd" stroke="#000" stroke-miterlimit="10" stroke-width=".036"/>
 <path d="m75.15,58.624c-.108.216 11.844,3.781 17.388,5.437 5.436,1.512 14.616,3.887 14.903,3.779 .072-.289-8.711-3.348-14.111-4.896-5.544-1.62-18.036-4.536-18.18-4.32z" fill-rule="evenodd" stroke="#000" stroke-miterlimit="10" stroke-width=".036"/>
 <path d="m82.206,52.647c-1.332-.072-16.056-2.952-21.132-4.068-5.184-1.224-10.116-3.096-8.964-2.988 1.224.108 10.872,1.944 16.02,3.276 5.112,1.189 15.084,3.745 14.076,3.78z" fill-rule="evenodd" stroke="#000" stroke-miterlimit="10" stroke-width=".036"/>
 <path d="m88.47,46.671c5.364,1.296 7.848,1.8 7.596,1.656-.36-.288-6.228-2.268-9.252-2.736-3.096-.468-8.064-.144-8.928,0-.864.072.396.072 3.78.288l6.804.792z" fill-rule="evenodd" stroke="#000" stroke-miterlimit="10" stroke-width=".036"/>
 <path d="m78.426,35.295c-1.26-1.296-1.26-3.06 0-5.148 1.188-2.232 3.024-4.068 7.308-7.596 4.284-3.636 13.824-10.62 17.928-13.572 3.889-2.952 3.889-2.592 5.688-3.78 1.801-1.26 3.564-3.276 5.148-3.276 1.332-.072 2.268,2.916 3.779,3.276 1.512.324 3.924-1.476 5.438-1.368 1.295-.036 1.871,1.26 2.986,1.368 1.117,0 3.025-1.476 3.781-1.116 .576.288-.396,2.304 0,2.988 .395.54 2.195.036 2.195.828-.072.684-.611,1.62-2.736,3.78-2.34,2.088-5.076,4.284-10.836,8.964-5.904,4.716-13.5,10.728-23.616,18.72-2.232-.936-4.752-1.8-7.56-2.448-2.879-.719-6.047-1.259-9.503-1.62z" fill="#fff" fill-rule="evenodd" stroke="#000" stroke-miterlimit="10" stroke-width=".036"/>
 <path d="m83.862,30.399c.108-.396 7.092-6.336 11.088-9.216 3.816-2.952 11.591-8.532 11.664-8.136-.143.288-8.135,7.056-11.916,10.044-3.888,2.917-10.872,7.489-10.836,7.308z" fill-rule="evenodd" stroke="#000" stroke-miterlimit="10" stroke-width=".036"/>
 <path d="m108.27 17.404c1.801-1.944 4.428-3.852 6.768-5.436 2.197-1.584 8.209-5.4 6.518-3.528-1.873 1.8-15.156 12.744-17.354 14.364-2.161 1.404 2.159-3.637 4.068-5.4z" fill-rule="evenodd" stroke="#000" stroke-miterlimit="10" stroke-width=".036"/>
 <path d="m120.475,21.472c1.402,1.62 2.088,3.204 2.447,4.608 .18,1.44-1.439,2.7-.828,3.78 .611.9 3.492.756 4.32,1.908 .611,1.044-.721,3.6-.252,4.608 .504.936 2.736-.18 3.24,1.08 .324,1.116-1.98,4.5-1.08,5.976 .791,1.404 6.443.648 5.977,2.448-.648,1.836-5.617,5.148-9.217,8.136-3.6,2.808-7.668,5.832-12.205,8.928-1.871-.324-2.916-1.043-3.275-2.16-.359-1.188 1.117-3.096 1.08-4.608-.145-1.62-1.367-3.204-1.871-4.608-.576-1.44-.434-3.168-1.369-4.068-1.043-1.044-2.627-.756-4.32-1.908-1.727-1.26-3.671-2.844-5.975-5.148 7.775-6.3 15.55-12.636 23.328-18.972z" fill="#fff" fill-rule="evenodd" stroke="#000" stroke-miterlimit="10" stroke-width=".036"/>
 <path d="m108.521,41.523c.936-1.116 10.801-9 11.953-9.756 .936-.72-3.744,3.996-5.725,5.688-2.087,1.621-7.128,4.968-6.228,4.068z" fill-rule="evenodd" stroke="#000" stroke-miterlimit="10" stroke-width=".036"/>
 <path d="m110.143,48.328c.936-1.08 10.799-9.072 11.951-9.792 1.008-.756-3.707,4.068-5.688,5.724-2.052,1.619-7.236,4.968-6.263,4.068z" fill-rule="evenodd" stroke="#000" stroke-miterlimit="10" stroke-width=".036"/>
 <path d="m111.8 57.255c0.971-1.116 10.727-9 11.916-9.756 1.043-0.72-3.816 3.996-5.689 5.688-2.088 1.621-7.128 4.969-6.227 4.068z" fill-rule="evenodd" stroke="#000" stroke-miterlimit="10" stroke-width=".036"/>
 <path d="m128.861,31.479c4.428-.9 9.541-1.08 15.732-.54 6.121.396 14.652,2.268 20.881,3.528 6.047,1.224 10.512,2.628 15.479,4.068 4.896,1.332 11.773,2.736 13.824,4.068 1.873,1.116-2.879,2.16-2.447,3.276 .359,1.116 4.211,2.34 4.896,3.528 .539,1.044-1.117,1.98-1.08,3.24-.109,1.224 1.404,2.808 1.08,4.068-.434,1.152-2.773,1.692-2.988,2.988-.252,1.26 1.584,3.492 1.619,4.609-.215.936-1.26.646-1.871,1.906-.576,1.369-.756,4.789-1.369,5.977-.828.973-2.195-1.08-2.699.252-.469,1.332.504,5.58 0,7.596-.756,1.836-2.809,2.412-3.527,3.816-.648,1.477 2.123,3.061-.289,4.32-2.557,1.043-9.107,1.908-14.363,1.908-5.328-.072-7.596.18-17.352-2.449-9.973-2.734-23.725-7.344-41.797-13.822 2.088-1.117 3.133-2.16 3.275-3.277-.072-1.26-2.23-2.484-2.734-3.527-.469-1.08-.469-1.98 0-2.699 7.883-5.041 13.535-9.145 17.352-12.457 3.707-3.348 5.111-5.796 5.184-7.344-.145-1.692-4.465-1.116-5.184-2.448-.756-1.476 1.188-4.572.828-5.688-.469-1.152-2.844-.036-3.24-.828-.397-.901-.18-2.125.79-4.069z" fill="#fff" fill-rule="evenodd" stroke="#000" stroke-miterlimit="10" stroke-width=".036"/>
 <path d="m122.238,69.459c1.295.576 19.08,7.092 26.279,9.541 7.129,2.303 17.424,5.076 16.309,4.572-1.369-.648-16.523-5.689-23.688-8.029-7.2-2.412-20.124-6.66-18.9-6.084z" fill-rule="evenodd" stroke="#000" stroke-miterlimit="10" stroke-width=".036"/>
 <path d="m145.314,37.06c1.26.36 19.656,5.58 27,7.344 7.307,1.8 17.748,3.564 16.596,3.204-1.477-.576-16.885-4.248-24.264-6.012-7.38-1.872-20.628-5.004-19.332-4.536z" fill-rule="evenodd" stroke="#000" stroke-miterlimit="10" stroke-width=".036"/>
 <path d="m169.541,49.66c-1.332-.072-16.055-2.952-21.131-4.068-5.184-1.224-10.117-3.096-8.965-2.988 1.225.108 10.873,1.944 16.021,3.276 5.112,1.187 15.085,3.744 14.075,3.78z" fill-rule="evenodd" stroke="#000" stroke-miterlimit="10" stroke-width=".036"/>
 <path d="m186.391,64.852c-1.297-.072-16.129-2.951-21.168-4.068-5.186-1.224-10.117-3.096-8.965-2.988 1.225.108 10.873,1.944 16.02,3.277 5.076,1.187 15.156,3.743 14.113,3.779z" fill-rule="evenodd" stroke="#000" stroke-miterlimit="10" stroke-width=".036"/>
 <path d="m153.125,72.34c-1.295-.252-15.768-4.537-20.627-6.191-4.932-1.693-9.793-4.141-8.604-3.889 1.223.072 10.584,3.168 15.588,4.859 4.967,1.656 14.653,5.293 13.643,5.221z" fill-rule="evenodd" stroke="#000" stroke-miterlimit="10" stroke-width=".036"/>
 <path d="m150.857,64.061c-.107.107 11.881,3.852 17.352,5.398 5.438,1.477 14.617,3.996 14.904,3.816 .072-.287-8.711-3.348-14.111-4.896-5.473-1.619-18-4.535-18.145-4.318z" fill-rule="evenodd" stroke="#000" stroke-miterlimit="10" stroke-width=".036"/>
 <path d="m124.254,17.944-2.447,2.988c1.402,1.908 2.088,3.312 2.447,4.608 .252,1.152-1.584,1.872-.793,2.7 .686.792 2.449,1.512 5.148,2.16 2.197-.828 5.4-1.224 9.756-1.332 4.285-.072 9.576.144 16.021.792-6.229-.648-11.846-1.728-16.85-3.78-5.038-2.017-9.466-4.681-13.282-8.136z" fill="#fff" fill-rule="evenodd" stroke="#000" stroke-miterlimit="10" stroke-width=".036"/>
 <path d="m155.467,29.859c3.779.648 7.164,1.008 10.295,1.08 3.133,0 6.768-1.368 8.137-.792 1.223.576.9,1.836-.828,4.068-3.6-.54-6.805-1.224-9.756-1.908-3.026-.72-5.508-1.583-7.848-2.448z" fill="#fff" fill-rule="evenodd" stroke="#000" stroke-miterlimit="10" stroke-width=".036"/>
 <path d="m113.418,76.264 7.596,12.744 9.217-.289c.143,1.945.684,3.133 1.619,3.277 .865.107 2.916-2.34 3.816-2.197 .863.109.432,2.629 1.332,2.988 .828.252 2.053-1.764 3.527-1.332 1.297.324 3.385,2.736 4.609,3.492 1.08.648 1.619.973 2.447.828 .791-.18 2.305-.252 2.447-1.619 .109-1.441-.576-3.709-1.908-6.805-8.711-2.52-15.947-4.68-21.707-6.48-5.796-1.943-10.079-3.348-12.995-4.607z" fill="#fff" fill-rule="evenodd" stroke="#000" stroke-miterlimit="10" stroke-width=".036"/>
 <path d="m110.143,82.492c5.146,4.428 8.818,8.352 11.412,11.916 2.52,3.492 3.744,6.623 3.527,9.252-.324,2.484-1.943,4.643-5.148,5.939-3.313,1.152-10.836,1.332-14.111,1.367-3.348.072-4.285-.432-5.437-1.367-1.116-1.08-1.62-2.844-1.368-5.148 3.132.684 5.076.648 6.263.289 .973-.648-.432-2.16.252-2.988 .756-.756 3.277-.107 4.068-1.369 .576-1.367-.252-5.111 0-6.516 .217-1.512 1.512-.287 1.656-2.16 .036-1.943-.286-4.967-1.114-9.215z" fill="#fff" fill-rule="evenodd" stroke="#000" stroke-miterlimit="10" stroke-width=".036"/>
 <path d="m37.998,95.523c-.864,3.924-1.044,6.947-.252,8.928 .72,1.836 3.276,1.908 4.608,2.988 1.188,1.152 1.908,3.168 2.988,3.816 1.008.504 2.556-1.26 3.528-.576 .9.684 1.332,4.355 2.412,4.355 1.008-.215 2.268-4.896 4.068-5.148 1.872-.252 4.932,3.098 6.804,3.529 1.656.252 1.728,1.332 3.528-1.621 1.8-3.059 4.104-8.387 7.056-16.271-2.556-3.275-4.68-5.184-6.516-5.725-1.8-.539-3.024,2.27-4.356,2.449-1.584.035-2.844-2.268-4.068-1.908-1.188.287-1.62,3.455-2.7,3.816-1.152.324-2.232-2.305-4.068-1.908-1.944.287-5.688,3.6-7.344,3.816-1.872.035-2.304-2.594-3.24-2.736-.936-.108-1.8.577-2.448,2.196z" fill="#fff" fill-rule="evenodd" stroke="#000" stroke-miterlimit="10" stroke-width=".036"/>
 <path d="m55.638,104.668c.396-1.297 4.608-10.98 5.256-11.557 .36-.684-1.368,5.545-2.268,7.561-.9,1.908-3.42,5.183-2.988,3.996z" fill-rule="evenodd" stroke="#000" stroke-miterlimit="10" stroke-width=".036"/>
 <path d="m60.534,110.68c.396-1.404 5.976-14.256 6.876-15.66 .612-1.332-1.116,4.787-2.268,7.523-1.296,2.701-4.968,9.252-4.608,8.137z" fill-rule="evenodd" stroke="#000" stroke-miterlimit="10" stroke-width=".036"/>
 <path d="m46.134,108.484c.432-1.404 4.644-10.873 5.292-11.594 .396-.684-1.44,5.545-2.304,7.561-1.008,1.873-3.348,5.256-2.988,4.033z" fill-rule="evenodd" stroke="#000" stroke-miterlimit="10" stroke-width=".036"/>
 <path d="m74.358,97.145c-3.384,6.551-5.508,11.52-6.516,14.902-1.044,3.313-.36,4.934.54,5.148 .792,0 2.016-2.736 4.356-4.32 2.232-1.656 5.256-4.031 9.468-4.895 4.248-.9 9.396-.938 15.732-.252l-1.62-2.988c-4.572.143-8.496-.361-12.204-1.656-3.708-1.297-6.912-3.277-9.756-5.939z" fill="#fff" fill-rule="evenodd" stroke="#000" stroke-miterlimit="10" stroke-width=".036"/>
 <path d="m35.298,99.303c-.324,2.053-1.368,3.637-2.988,4.896-1.764,1.225-5.04,1.801-7.056,2.412-2.016.432-4.572.107-4.896.541-.36.359.504,1.367 2.736,1.908 2.124.432 6.768.971 10.044,1.078 3.132.072 5.976-.107 8.676-.539-1.008-.539-1.908-1.115-2.988-1.871-1.152-.828-2.7-1.369-3.276-2.736-.648-1.476-.684-3.277-.252-5.689z" fill="#fff" fill-rule="evenodd" stroke="#000" stroke-miterlimit="10" stroke-width=".036"/>
 <path d="m21.474,76.803c-3.024.504-5.508,1.225-7.596,2.701-2.124,1.295-3.888,3.564-4.896,5.436-1.116,1.873-1.62,4.789-1.368,5.688 .288.756 1.8-1.404 2.988-1.08 1.08.324 2.124,1.98 3.276,2.449 1.224.18 2.448-1.117 3.528-.828 .756.252 1.008,2.268 1.872,2.16 .9-.361 2.448-3.744 3.528-3.781 .864-.07 1.548,2.953 2.448,3.24 .936.072 2.016-2.592 3.24-2.16 1.044.541 1.476,4.537 3.528,4.896 2.088.107 6.66-3.527 8.712-3.816 1.836-.215 1.944,1.945 2.952,2.16 .936-.035 1.8-1.26 2.988-1.871 1.188-.684 2.736-1.656 4.068-1.656 1.224-.072 2.268,1.908 3.276,1.656 .792-.432 1.332-3.133 2.448-3.529 1.152-.395 3.384,1.297 4.608,1.332 1.152-.035 1.908-.432 2.412-1.332-5.004-2.051-10.872-3.996-17.892-5.975-7.128-2.016-14.976-3.817-24.12-5.69z" fill="#fff" fill-rule="evenodd" stroke="#000" stroke-miterlimit="10" stroke-width=".036"/>
 <path d="m18.99,91.096c0-.9 1.296-10.045 1.656-11.053 .252-1.043.252,2.988 0,4.896-.36,1.874-1.656,6.84-1.656,6.157z" fill-rule="evenodd" stroke="#000" stroke-miterlimit="10" stroke-width=".036"/>
 <path d="m24.714,90.555c.036-.898 1.224-10.043 1.62-11.051 .252-1.045.252,2.988 0,4.896-.396,1.871-1.584,6.84-1.62,6.155z" fill-rule="evenodd" stroke="#000" stroke-miterlimit="10" stroke-width=".036"/>
 <path d="m32.022,92.967c0-.936 1.296-9.971 1.656-11.016 .252-1.008.252,2.881 0,4.861-.36,1.872-1.656,6.84-1.656,6.155z" fill-rule="evenodd" stroke="#000" stroke-miterlimit="10" stroke-width=".036"/>
 <path d="m40.158,89.26c-.18-.541-.18-5.4 0-5.977 .108-.611.756,1.693.828,2.736-.072,1.116-.72,3.493-.828,3.241z" fill-rule="evenodd" stroke="#000" stroke-miterlimit="10" stroke-width=".036"/>
 <path d="m13.518,85.768c-.108-.504.9-4.283 1.224-4.68 .216-.359.432,1.439.252,2.34-.18.828-1.548,2.627-1.476,2.34z" fill-rule="evenodd" stroke="#000" stroke-miterlimit="10" stroke-width=".036"/>
 <path d="m10.602,69.207c-2.052-2.951-3.852-6.479-5.4-10.583-1.656-4.176-2.88-8.784-4.068-14.112 2.016,1.224 3.636,2.088 4.86,2.448 1.116.36 1.368-1.08 2.16-.288 .612.612.792,3.816 2.196,4.356 1.368.504 4.608-1.476 6.228-1.368 1.476-.036 2.196,1.584 2.988,1.368 .72-.36.936-2.7 1.908-2.988 .9-.324 3.132,1.152 4.068,1.368 .936.072.828-.756 1.62-.54 .72.288 1.764,1.656 2.7,1.872 .864-.072 1.728-1.584 2.448-1.62 .612-.036 1.116.504 1.368,1.62-.396,1.944-.9,3.348-1.908,4.068-1.116.612-2.664-.864-3.816.288-1.152,1.116-1.404,5.508-2.7,6.516-1.404.865-3.996-1.764-5.148-1.08-1.224.576-.792,4.14-1.62,4.859-.936.648-2.484-.826-3.528-.539-1.152.217-2.34,1.26-2.736,2.16-.468.756.504,2.627.288,2.988-.288.324-.972.107-1.908-.793z" fill="#fff" fill-rule="evenodd" stroke="#000" stroke-miterlimit="10" stroke-width=".036"/>
 <path d="m7.794,51.855c.36.792 2.88,9.54 3.24,10.691 .144,1.045-1.62-2.699-2.088-4.427-.612-1.835-1.548-7.019-1.152-6.264z" fill-rule="evenodd" stroke="#000" stroke-miterlimit="10" stroke-width=".036"/>
 <path d="m12.942,51.784c.432.72 4.32,9 4.716,10.117 .252.936-1.944-2.413-2.7-4.069-.9-1.728-2.448-6.804-2.016-6.048z" fill-rule="evenodd" stroke="#000" stroke-miterlimit="10" stroke-width=".036"/>
 <path d="m18.054,52.288c.288.504 3.024,6.336 3.348,7.2 .144.576-1.332-1.692-1.908-2.916-.648-1.332-1.728-4.752-1.44-4.284z" fill-rule="evenodd" stroke="#000" stroke-miterlimit="10" stroke-width=".036"/>
 <path d="m32.31,20.932c-1.656-1.152-2.88-1.836-3.816-1.908-.936-.144-.828,1.188-1.62,1.08-.972-.324-2.7-2.016-3.528-2.16-.828-.18-.252,1.368-1.332,1.332-1.224-.108-4.464-2.124-5.436-1.872-1.044.252-1.188,1.332-.288,3.24 .864,1.8 2.268,2.844 5.724,7.596 3.42,4.644 8.028,11.376 14.364,20.34 1.548,1.188 2.448,1.548 3.24,1.08 .648-.612.324-2.988.828-4.068 .396-1.116.936-1.836 1.908-2.16 .936-.396 2.016-.396 3.528,0-2.376-2.088-4.464-4.932-6.264-8.964-1.872-4.068-3.312-8.892-4.608-14.904-.9.432-1.8.899-2.7,1.368z" fill="#fff" fill-rule="evenodd" stroke="#000" stroke-miterlimit="10" stroke-width=".036"/>
 <path d="m21.186,21.543c.576.504 6.12,7.956 6.768,8.892 .504.828-2.412-1.98-3.492-3.42-1.224-1.583-3.888-6.047-3.276-5.472z" fill-rule="evenodd" stroke="#000" stroke-miterlimit="10" stroke-width=".036"/>
 <path d="m27.63,23.127c.576.612 5.256,8.46 5.832,9.504 .432.864-2.232-2.124-3.132-3.708-1.044-1.692-3.24-6.407-2.7-5.796z" fill-rule="evenodd" stroke="#000" stroke-miterlimit="10" stroke-width=".036"/>
 <path d="m17.406,25.251c-3.384,1.584-5.508,2.988-6.516,4.608-1.044,1.512-1.512,3.096.54,4.608 1.944,1.404 8.892,1.98 11.124,4.068 2.088,2.052 2.628,4.716 1.62,8.136 .684,0 1.548.18 2.448.54 .936.324 2.124,1.62 2.988,1.656 .576-.18.504-1.836 1.332-1.908 .864-.072 2.088.468 3.816,1.62-2.556-3.744-5.22-7.488-8.136-11.376-2.916-3.959-5.94-7.811-9.216-11.952z" fill="#fff" fill-rule="evenodd" stroke="#000" stroke-miterlimit="10" stroke-width=".036"/>
 <path d="m46.962,41.812c-1.836-1.836-3.6-4.14-5.148-7.056-1.62-3.024-3.348-7.2-4.356-10.584-1.152-3.528-2.16-7.236-1.908-9.756 .288-2.556 1.368-4.14 3.528-5.148 1.296,1.656 3.384,4.14 6.264,7.308s7.092,8.352 10.836,11.664c3.708,3.204 7.092,5.688 10.836,7.596-.288,1.116-1.188,1.8-2.7,1.908-1.656.108-4.248-1.224-6.516-1.08-2.412.036-5.22.72-7.056,1.62s-3.096,1.944-3.78,3.528z" fill="#fff" fill-rule="evenodd" stroke="#000" stroke-miterlimit="10" stroke-width=".036"/>
 <path d="m45.198,27.304c.648.468 6.768,7.38 7.524,8.244 .612.792-2.592-1.764-3.78-3.096-1.332-1.476-4.392-5.653-3.744-5.148z" fill-rule="evenodd" stroke="#000" stroke-miterlimit="10" stroke-width=".036"/>
 <path d="m41.742,27.771c.576.648 5.256,8.388 5.832,9.468 .432.864-2.232-2.124-3.132-3.708-1.044-1.619-3.24-6.407-2.7-5.76z" fill-rule="evenodd" stroke="#000" stroke-miterlimit="10" stroke-width=".036"/>
 <path d="m49.59,26.512c.72.396 8.172,5.688 9.036,6.552 .756.576-2.916-1.152-4.356-2.268-1.512-1.224-5.472-4.645-4.68-4.284z" fill-rule="evenodd" stroke="#000" stroke-miterlimit="10" stroke-width=".036"/>
 <path d="m104.453,6.532c-.143-2.736-.684-4.32-1.332-4.608-.791-.252-2.16,2.232-2.987,2.736-.9.324-1.764-1.26-2.196-.576-.54.72.216,3.888-.792,4.644-1.152.576-4.716-1.548-5.688-.828-1.008.684.792,4.068 0,4.896-.9.72-2.628.54-5.184-.54v8.136c2.016-2.088 4.5-4.212 7.596-6.516 3.024-2.413 6.552-4.716 10.583-7.344z" fill="#fff" fill-rule="evenodd" stroke="#000" stroke-miterlimit="10" stroke-width=".036"/>
 <path d="m68.382,34.468c-2.232-.576-4.896-2.232-8.424-5.4s-7.632-7.56-12.456-13.32c1.332-2.952 2.592-4.392 4.068-4.608 1.404-.144 3.024,3.204 4.32,3.528 1.044.18 1.584-2.484 2.736-2.16 1.152.216 2.916,3.708 4.32,4.068 1.224.324 1.944-2.484 3.528-1.908s4.032,2.808 5.976,5.148c1.8,2.16 3.564,4.932 5.148,8.172-1.044.756-1.728,1.692-1.908,2.952-.216,1.224-.072,2.628.576,4.356-2.628-.253-5.256-.541-7.884-.828z" fill="#fff" fill-rule="evenodd" stroke="#000" stroke-miterlimit="10" stroke-width=".036"/>
 <path d="m54.99,16.432c.684.504 6.696,7.272 7.488,8.244 .612.864-2.592-1.728-3.78-3.06-1.368-1.584-4.32-5.58-3.708-5.184z" fill-rule="evenodd" stroke="#000" stroke-miterlimit="10" stroke-width=".036"/>
 <path d="m63.378,18.087c.648.468 6.768,7.38 7.524,8.244 .612.792-2.592-1.764-3.78-3.096-1.332-1.475-4.392-5.652-3.744-5.148z" fill-rule="evenodd" stroke="#000" stroke-miterlimit="10" stroke-width=".036"/>
 <path d="m78.678,27.16c-.216-1.98-.936-3.924-2.16-5.688-1.296-1.8-3.06-3.564-5.436-5.148 2.772-2.052 5.076-3.6 7.056-4.644 1.836-1.116 3.42-1.656 4.608-1.62 1.116-.036 1.98.504 2.448,1.62l-.252,8.964c-1.908,1.476-3.312,2.7-4.356,3.816-1.044,1.043-1.728,1.944-1.908,2.7z" fill="#fff" fill-rule="evenodd" stroke="#000" stroke-miterlimit="10" stroke-width=".036"/>
</svg>
