<?xml version="1.0" encoding="utf-8"?>
<!-- Generator: Adobe Illustrator 22.1.0, SVG Export Plug-In . SVG Version: 6.00 Build 0)  -->
<svg version="1.1" id="Layer_1" xmlns="http://www.w3.org/2000/svg" xmlns:xlink="http://www.w3.org/1999/xlink" x="0px" y="0px"
	 viewBox="0 0 753 199.3" style="enable-background:new 0 0 753 199.3;" xml:space="preserve">
<style type="text/css">
	.st0{fill:none;stroke:#000000;stroke-miterlimit:10;}
</style>
<path class="st0" d="M459.9,93.7c-0.1,0.5,0.6,1.9,0.4,2.3s-1.7,0.8-2,1.2c-0.3,0.4-0.4,1.9-0.8,2.2c-0.4,0.3-1.9-0.2-2.3,0
	c-0.3,0.1-0.9,0.9-1.4,1.3c-0.2,0.1-0.3,0.2-0.4,0.2c-0.5,0-1.6-1.1-2-1.2c-0.2,0-0.7,0.1-1.1,0.2c-0.5,0.1-1,0.3-1.2,0.2
	c-0.4-0.2-0.8-1.7-1.2-2c-0.3-0.3-1.9-0.4-2.2-0.8c-0.3-0.4,0.1-1.9,0-2.3c-0.2-0.4-1.4-1.3-1.5-1.8c0-0.5,1.1-1.6,1.2-2
	c0-0.2-0.1-0.6-0.2-1c-0.2-0.5-0.3-1.1-0.2-1.3c0.2-0.4,1.7-0.8,2-1.2c0.3-0.4,0.4-1.9,0.8-2.2c0.4-0.3,1.9,0.2,2.3,0
	c0.4-0.2,1.3-1.4,1.8-1.5c0.5,0,1.6,1.1,2,1.2c0.5,0.1,1.9-0.6,2.3-0.4s0.8,1.7,1.2,2c0.4,0.3,1.9,0.4,2.2,0.8
	c0.3,0.4-0.1,1.9,0,2.3c0,0,0,0,0,0c0.2,0.4,1.5,1.3,1.5,1.8C461.1,92.2,460,93.2,459.9,93.7z"/>
<path class="st0" d="M445.1,90.1c-4.3,0.2-8.6,0.6-12.7,1"/>
<path class="st0" d="M374.5,112.2c8.1-7.7,28.8-16.7,49.3-19.9"/>
<path class="st0" d="M459.6,89.9c15.6,0.2,30.1,2,42.3,4.9"/>
<g transform="matrix(.13698 .01323 -.01323 .13698 424.93 51.509)">
	<path class="st0" d="M216.6,332.9l0.1,61c0,5.6,4.5,10,9.9,10l6.2,0c5.5,0.1,10-4.5,10-9.9l0-58.5"/>
</g>
<g transform="matrix(.12868 .01166 -.01243 .12073 401.42 49.826)">
	<path class="st0" d="M216.8,331.9l0,61c0,5.5,4.5,10,10,10l6.1,0c5.6,0,10.1-4.5,10.1-10l0-58.4"/>
	<path class="st0" d="M282.7,279.9c-0.3,3.3,5.5,13.1,4.4,16.4c-1.1,3.2-11.8,7.2-13.7,9.9c-1.1,1.6-1.5,6.1-2.2,10
		c-0.5,2.9-1.1,5.6-2.2,6.4c-2.6,2.2-13.8,0.3-16.8,1.8c-2.3,1.1-6.1,7-9.2,10.1c-1,1-2,1.8-2.8,1.9c-3.3,0.6-12.1-6.6-15.5-6.9
		c-1.6-0.1-4.6,1.1-7.8,2.3l0-2.8c-3.6,1-7.3,1.9-10.8,3c-2.7-3.5-5.6-10.3-7.8-11.8c-2.7-1.9-14.2-1.8-16.4-4.4
		c-2.3-2.5-0.3-13.8-1.8-16.9c-1.5-3-11.4-8.6-12-11.9c-0.6-3.3,6.6-12.2,6.9-15.6c0.3-3.3-5.5-13.1-4.4-16.4
		c1.1-3.2,11.8-7.2,13.7-9.9c1.9-2.8,1.8-14.3,4.3-16.4c2.6-2.2,13.9-0.3,16.9-1.8c3-1.5,8.7-11.4,12-12c3.4-0.7,12.1,6.6,15.5,6.9
		c3.4,0.2,13.2-5.6,16.4-4.4c3.2,1.1,7.2,11.8,9.9,13.7c2.8,2,14.2,1.9,16.4,4.4c2.2,2.6,0.3,13.9,1.8,16.9c1.5,3.1,11.4,8.7,12,12
		C290.2,267.6,282.9,276.4,282.7,279.9z"/>
	<path class="st0" d="M216.8,329l0,2.8c-3.4,1.3-6.9,2.7-8.6,2.1c-0.7-0.3-1.5-0.9-2.2-1.9C209.5,331,213.2,330.1,216.8,329z"/>
</g>
<g transform="matrix(.79003 0 0 .79003 -61.012 -125.31)">
	<path class="st0" d="M662.7,309.8c-43.3-6.1-91.3-9.6-141.9-9.6c-44.8,1.1-89.5,2.8-133.2,8.3"/>
</g>
<path class="st0" d="M606.4,79.1c3.3-0.1,6.5-0.1,9.8-0.1c7.8,0,15.6,0.2,23.1,0.6"/>
<path class="st0" d="M604.8,79.2c-1,0-1.9,0-2.9,0.1"/>
<path class="st0" d="M462.9,119.5c18.9-20.7,67.8-36.2,127.6-39.8"/>
<path class="st0" d="M669.3,82.3c34.5,4.4,63.7,13,83.1,24.1v64.2"/>
<path class="st0" d="M491.9,130.9c-111.6,2.7-222.3,9.5-320.3,68.2h581v-30.8C689.5,145.4,596.1,130.9,491.9,130.9L491.9,130.9z"/>
<path class="st0" d="M285.1,148.1l37.1-3.9c36.8,13.2,61.7,31.1,81.5,54.9l-61.5,0L285.1,148.1L285.1,148.1z"/>
<path class="st0" d="M492.3,131c-111.6,2.7-222.3,9.5-320.3,68.2h581v-30.8C689.9,145.5,596.5,131,492.3,131z"/>
<path class="st0" d="M369.3,138.2l-18.2,2.4c45.3,16,63.6,29.9,81.3,58.7l35.9-0.3C447,171.7,403,156.6,369.3,138.2L369.3,138.2z"/>
<path class="st0" d="M379.4,199H0.4v-59.8c14.6-10.3,32.5-18.9,52.6-25.4l0.3,2.8c0.2,1.5,1.5,2.6,3.1,2.4l1.7-0.2
	c1.5-0.2,2.6-1.5,2.4-3.1l-0.5-4.1c4.8-1.4,9.7-2.7,14.6-3.8c-1.1,1.9-2.2,3.8-2,4.8c0.4,1.9,6,5.1,6.8,6.8c0.8,1.7-0.3,8.1,1,9.6
	c1.3,1.5,7.7,1.4,9.3,2.5c1.6,1.1,3.8,7.1,5.6,7.8c1,0.3,2.9-0.4,4.9-1.2c1.8-0.7,3.5-1.4,4.4-1.3c1.9,0.2,6.9,4.3,8.8,3.9
	c0.5-0.1,1-0.5,1.6-1.1c1.8-1.8,3.9-5.1,5.2-5.7c1.7-0.8,8.1,0.2,9.6-1c1.5-1.2,1.4-7.7,2.5-9.3c1.1-1.6,7.1-3.8,7.8-5.7
	c0.6-1.8-2.7-7.4-2.5-9.3c0.1-1.7,3.6-6,3.9-8.2c1.5,0,3,0,4.5,0c6.4,0.1,12.7,0.4,19,0.9v0l-1.3,13c-0.2,2.2,1.4,4.2,3.7,4.4
	l2.5,0.2c2.2,0.2,4.2-1.4,4.4-3.7l1.3-13v0C257.3,111.5,327,152.9,379.4,199z"/>
<path class="st0" d="M379,199H0v-59.8c14.8-10.3,32.7-19,53-25.5l0,0.1l0.3,2.8c0.2,1.5,1.5,2.6,3.1,2.4l1.7-0.2
	c1.5-0.2,2.6-1.5,2.4-3.1l-0.5-4.1l0-0.1c4.8-1.4,9.7-2.7,14.7-3.8c0,0,0,0.1-0.1,0.1c-1.1,1.9-2.2,3.8-2,4.8c0.4,1.9,6,5.1,6.8,6.8
	c0.8,1.7-0.3,8.1,1,9.6c1.3,1.5,7.7,1.4,9.3,2.5c1.6,1.1,3.8,7.1,5.6,7.8c1,0.3,2.9-0.4,4.9-1.2c1.8-0.7,3.5-1.4,4.4-1.3
	c1.9,0.2,6.9,4.3,8.8,3.9c0.5-0.1,1-0.5,1.6-1.1c1.8-1.8,3.9-5.1,5.2-5.7c1.7-0.8,8.1,0.2,9.6-1c1.5-1.2,1.4-7.7,2.5-9.3
	c1.1-1.6,7.1-3.8,7.8-5.7c0.6-1.8-2.7-7.4-2.5-9.3c0.1-1.7,3.6-6,3.9-8.2c1.5,0,3,0,4.5,0c6.4,0.1,12.7,0.4,19,0.9l-1.3,13
	c-0.2,2.2,1.4,4.2,3.7,4.4l2.5,0.2c2.2,0.2,4.2-1.4,4.4-3.7l1.3-13C257.1,111.6,326.7,152.9,379,199z"/>
<g transform="matrix(.56592 0 0 .56592 -21.409 -53.531)">
	<path class="st0" d="M241.2,341.3v58.4c0,5.5-4.5,10-10,10H225c-5.5,0-10-4.5-10-10v-61"/>
	<path class="st0" d="M287.8,272.1c-0.6,3.8-6.7,11.4-6.9,14.5c-0.3,3.4,5.6,13.2,4.4,16.4c-1.1,3.2-11.8,7.2-13.7,10
		c-1.9,2.8-1.8,14.2-4.4,16.4c-2.6,2.2-13.8,0.3-16.9,1.8c-2.3,1.1-6,7-9.2,10.1c-1,1-2,1.7-2.8,1.9c-3.3,0.6-12.1-6.7-15.5-6.9
		c-1.6-0.1-4.7,1.1-7.8,2.4c-3.4,1.4-6.9,2.7-8.6,2.1c-3.2-1.1-7.2-11.8-10-13.7c-2.8-1.9-14.2-1.8-16.4-4.4
		c-2.2-2.6-0.3-13.8-1.8-16.9c-1.5-3.1-11.4-8.6-12-12c-0.3-1.8,1.7-5.2,3.6-8.5c0-0.1,0.1-0.1,0.1-0.2c1.6-2.7,3.1-5.3,3.2-6.8
		c0.3-3.4-5.5-13.2-4.4-16.4c1.1-3.2,11.8-7.2,13.7-10c1.9-2.8,1.8-14.2,4.4-16.4c2.6-2.2,13.8-0.3,16.9-1.8c3.1-1.5,8.7-11.4,12-12
		c3.3-0.6,12.1,6.6,15.5,6.9c3.4,0.3,13.2-5.5,16.4-4.4c3.2,1.1,7.2,11.8,10,13.7c2.8,1.9,14.2,1.8,16.4,4.4
		c2.2,2.6,0.3,13.8,1.8,16.9c1.5,3.1,11.4,8.7,12,12C287.9,271.4,287.9,271.7,287.8,272.1z"/>
</g>
<g transform="matrix(.40408 .039034 -.039034 .40408 92.341 -55.163)">
	<path class="st0" d="M241.2,340.5l0,26l0,0.1l0,32.3c0,5.5-4.5,10-10,10l-6.2,0c-5.5,0-10-4.5-10-10l0-32.3l0-0.1l0-28.7
		c3.1-1.2,6.2-2.5,7.8-2.4c3.4,0.3,12.2,7.5,15.5,6.9C239.2,342.2,240.2,341.5,241.2,340.5z"/>
	<path class="st0" d="M285.4,302.2c-1.1,3.2-11.8,7.2-13.7,10c-1.9,2.8-1.8,14.2-4.4,16.4c-2.6,2.2-13.8,0.3-16.9,1.8
		c-2.3,1.1-6,7-9.1,10.1c-1,1-2,1.8-2.8,1.9c-3.3,0.6-12.1-6.6-15.5-6.9c-1.6-0.1-4.7,1.1-7.8,2.4c-3.4,1.3-6.9,2.6-8.6,2.1
		c-3.2-1.1-7.2-11.8-10-13.8c-2.8-1.9-14.2-1.8-16.4-4.4c-2.2-2.6-0.3-13.8-1.8-16.9c-1.5-3.1-11.4-8.6-12-12
		c-0.6-3.4,6.6-12.1,6.9-15.5c0.3-3.4-5.6-13.2-4.4-16.4c1.1-3.2,11.8-7.2,13.7-10c1.9-2.8,1.8-14.2,4.4-16.4
		c2.6-2.2,13.8-0.3,16.9-1.8c3-1.5,8.6-11.4,12-12c3.4-0.6,12.1,6.6,15.5,6.9c3.4,0.3,13.2-5.6,16.4-4.4c3.2,1.1,7.2,11.8,10,13.7
		c2.8,1.9,14.2,1.8,16.4,4.4c2.2,2.6,0.3,13.8,1.8,16.9c1.5,3.1,11.4,8.7,12,12c0.6,3.3-6.7,12.1-6.9,15.5
		C280.7,289.2,286.6,299,285.4,302.2z"/>
</g>
<g transform="matrix(.27422 -.032014 .032014 .27422 -18.675 14.368)">
	<path class="st0" d="M232.4,408l-6.2,0c-5.5,0-10-4.5-10-10l0-10.2l0-0.5l0-50.4c3.1-1.2,6.2-2.5,7.8-2.4
		c3.4,0.3,12.2,7.5,15.5,6.9c0.8-0.2,1.8-0.9,2.8-1.9l0,43l0,0.4l0,15C242.4,403.5,237.9,408,232.4,408z"/>
	<path class="st0" d="M286.5,301.3c-1.1,3.2-11.8,7.2-13.7,10c-1.9,2.8-1.8,14.2-4.4,16.4c-2.6,2.2-13.8,0.3-16.9,1.7
		c-2.3,1.1-6,7-9.1,10.2c-1.1,1-2,1.7-2.8,1.9c-3.4,0.6-12.1-6.7-15.5-6.9c-1.6-0.1-4.7,1.1-7.8,2.4c-3.4,1.3-6.9,2.6-8.6,2
		c-3.2-1.1-7.2-11.8-10-13.7c-2.8-1.9-14.2-1.8-16.4-4.4c-2.2-2.6-0.3-13.8-1.8-16.9c-1.5-3.1-11.4-8.7-12-12
		c-0.6-3.3,6.6-12.1,6.9-15.5c0.3-3.4-5.6-13.2-4.4-16.4c1.1-3.2,11.8-7.2,13.7-10c1.9-2.8,1.8-14.2,4.4-16.4s13.8-0.3,16.9-1.8
		c3.1-1.5,8.6-11.4,12-12c3.4-0.6,12.1,6.6,15.5,6.9c3.4,0.2,13.2-5.6,16.4-4.4c3.2,1.1,7.2,11.8,10,13.7c2.8,1.9,14.2,1.8,16.4,4.4
		c2.2,2.6,0.3,13.9,1.8,16.9c1.5,3.1,11.4,8.7,12,12c0.6,3.4-6.6,12.1-6.9,15.5C281.9,288.3,287.7,298.1,286.5,301.3z"/>
</g>
<g transform="matrix(.26679 .025772 -.025772 .26679 600.14 1.3842)">
	<path class="st0" d="M215.5,336.5l0,61c0,5.5,4.5,10,10,10l6.2,0c5.5,0,10-4.5,10-10l0-58.4"/>
	<path class="st0" d="M285.8,275.6c-1.9,3.4-4.3,7-4.4,8.9c-0.2,3.4,5.6,13.2,4.4,16.4c-1.1,3.2-11.8,7.2-13.7,10
		c-1.9,2.8-1.8,14.2-4.4,16.4c-2.6,2.2-13.8,0.3-16.9,1.8c-2.3,1.1-6,7-9.1,10.1c-1.1,1-2,1.7-2.9,1.9c-3.3,0.6-12.1-6.7-15.5-6.9
		c-1.6-0.1-4.6,1.2-7.8,2.4c-3.4,1.3-6.9,2.7-8.6,2.1c-3.2-1.1-7.2-11.8-10-13.7c-2.8-1.9-14.2-1.8-16.4-4.4
		c-2.2-2.6-0.3-13.8-1.8-16.9c-1.5-3-11.4-8.6-12-12c-0.6-3.2,6.2-11.6,6.8-15.2c0.1-0.1,0.1-0.2,0.1-0.3c0.3-3.4-5.5-13.2-4.4-16.4
		c1.1-3.2,11.8-7.2,13.7-10c1.9-2.8,1.8-14.2,4.4-16.4c2.6-2.2,13.8-0.3,16.9-1.8c3.1-1.5,8.7-11.4,12-12c3.4-0.6,12.1,6.6,15.5,6.9
		c3.4,0.3,13.2-5.6,16.4-4.4c3.2,1.2,7.2,11.8,10,13.8c2.8,1.9,14.2,1.8,16.4,4.4c2.2,2.6,0.3,13.8,1.8,16.9c1.5,3.1,11.4,8.6,12,12
		C288.6,270.4,287.4,272.9,285.8,275.6z"/>
</g>
<g transform="matrix(.25064 .022716 -.024212 .23515 547.35 -3.893)">
	<path class="st0" d="M215.5,334.2l0,1.8l0,61c0,5.5,4.5,10,10,10l6.2,0c5.5,0,10-4.5,10-10l0-58.4l0-8.2"/>
	<path class="st0" d="M281.5,284c-0.3,3.4,5.5,13.2,4.4,16.4c-1.1,3.2-11.8,7.2-13.8,10c-1.9,2.8-1.8,14.2-4.4,16.4
		c-0.2,0.1-0.4,0.2-0.6,0.4c-2.1,0.2-4.1,0.5-6.1,0.8c0,0,0,0,0,0c-3.9,0-8.4-0.2-10.2,0.6c-0.3,0.2-0.7,0.5-1.2,0.8c0,0,0,0,0,0
		c-2.6,0.3-5.3,0.7-8,1.1c-8.8,1.2-17.5,2.5-26.2,3.8c-3.7,0.5-7.3,1.1-10.9,1.7l0,0c-2.6-3.5-5.4-10.1-7.6-11.6
		c-2.8-1.9-14.2-1.8-16.4-4.4c-2.2-2.6-0.3-13.8-1.8-16.9c-1.5-3.1-11.4-8.7-12-12c-0.6-3.3,6.6-12.1,6.9-15.5
		c0.2-3.4-5.6-13.2-4.5-16.4c1.2-3.2,11.8-7.2,13.8-10c1.9-2.8,1.8-14.2,4.4-16.4c2.6-2.2,13.9-0.3,16.9-1.8c3.1-1.4,8.7-11.4,12-12
		c3.3-0.6,12.1,6.7,15.5,6.9c3.4,0.2,13.2-5.6,16.4-4.4c3.2,1.1,7.2,11.8,10,13.7c2.8,1.9,14.2,1.8,16.4,4.4
		c2.2,2.6,0.3,13.8,1.8,16.9c1.5,3.1,11.4,8.7,12,12C289,271.8,281.7,280.6,281.5,284z"/>
	<path class="st0" d="M241.7,330.4c2.6-0.4,5.3-0.7,8-1.1c-2.3,2-5.3,6.7-8,9.3c-1,1-2,1.8-2.8,1.9c-3.4,0.6-12.1-6.7-15.6-6.9
		c-1.6-0.1-4.7,1.1-7.8,2.4c-3.4,1.4-6.9,2.7-8.6,2.1c-0.7-0.3-1.5-1.1-2.4-2.2c3.7-0.6,7.2-1.2,10.9-1.7
		C224.2,332.9,232.9,331.6,241.7,330.4z"/>
	<path class="st0" d="M267.2,327.2c-1.3,0.6-3.6,0.7-6.1,0.8C263.1,327.6,265.1,327.4,267.2,327.2z"/>
</g>
<g transform="matrix(.21834 .018418 -.021091 .19067 642.77 3.4012)">
	<path class="st0" d="M215.7,335l0,61c0,5.5,4.5,10,10,10l6.2,0c5.5,0,10-4.5,10-10l0-58.4"/>
	<path class="st0" d="M281.6,283c-0.3,3.4,5.5,13.2,4.4,16.4c-1.2,3.2-11.8,7.2-13.7,10c-1.9,2.8-1.8,14.2-4.4,16.4
		c-2.6,2.2-13.8,0.3-16.9,1.8c-2.3,1.1-6.1,7-9.2,10.1c-1,1-2,1.8-2.8,1.9c-3.3,0.6-12.1-6.6-15.5-6.9c-1.6-0.2-4.7,1.1-7.8,2.3
		c-3.4,1.3-6.9,2.7-8.6,2.1c-3.2-1.2-7.2-11.8-10-13.8c-2.8-1.9-14.2-1.8-16.4-4.3c-2.2-2.6-0.3-13.9-1.8-16.9
		c-1.5-3.1-11.4-8.7-12.1-12c-0.6-3.3,6.7-12.1,6.9-15.5c0.3-3.4-5.5-13.2-4.4-16.4c1.2-3.2,11.8-7.2,13.7-10
		c1.9-2.8,1.8-14.2,4.4-16.4c2.6-2.2,13.8-0.3,16.9-1.7c3.1-1.5,8.7-11.4,12-12.1c3.4-0.6,12.1,6.7,15.6,6.9
		c3.4,0.3,13.2-5.6,16.4-4.4c3.2,1.1,7.2,11.8,10,13.7c2.8,1.9,14.2,1.8,16.4,4.4c2.2,2.6,0.3,13.8,1.8,16.9
		c1.5,3.1,11.4,8.7,12.1,12C289.1,270.8,281.9,279.6,281.6,283z"/>
</g>
<path class="st0" d="M262.9,10c-9.7,0-17.5,5.4-17.5,12c0,2.2,0.9,4.3,2.4,6c-10.4,2.4-17.4,6.6-17.4,11.5c0,1,0.3,2,0.9,2.9
	c-8.6,1.2-14.9,5.1-14.9,9.6c0,5.5,9.4,10,21,10c11.1,0,20.3-4.1,21-9.4c2.7,0.2,5.6,0.4,8.5,0.4c15.5,0,28.7-3.6,34-8.6
	c2.4,0.4,4.9,0.6,7.5,0.6c15.5,0,28-7.2,28-16s-12.5-16-28-16c-14.3,0-26.1,6.1-27.8,14c-0.5-0.1-1.1-0.2-1.7-0.3
	c0.9-1.5,1.4-3.1,1.4-4.8C280.4,15.4,272.6,10,262.9,10L262.9,10z"/>
<path class="st0" d="M568.9,3.5c-5.2,0-9.6,3.4-11,8.1c-1.1-0.4-2.2-0.6-3.5-0.6c-4.7,0-8.5,3.2-8.5,7.3s3.8,7.3,8.5,7.3
	c2.4,0,4.5-0.9,6.1-2.2C561,26,563,28,565.4,28c1.5,0,2.8-0.8,3.7-2c2.8-0.1,5.3-1.1,7.3-2.7c0.9,1.1,2.1,1.7,3.5,1.7
	c2.8,0,5-2.7,5-6c0-3.2-2.1-5.8-4.7-6C579.4,7.6,574.7,3.5,568.9,3.5z"/>
<path class="st0" d="M21.5,0.1c-0.2,0.7-0.3,1.5-0.3,2.2c0,1.4,0.4,2.8,1.2,4.1C10.3,8.2,1.4,13.6,1.4,19.9C1.4,27.7,14.7,34,31,34
	c15.7,0,28.6-5.8,29.5-13.2c3.9,0.3,7.9,0.5,12,0.5c21.8,0,40.4-5,47.9-12.1c3.4,0.5,6.9,0.8,10.6,0.8c13.6,0,25.7-3.9,32.8-10
	L21.5,0.1L21.5,0.1z"/>
<path class="st0" d="M404.3,134.9l-16.4,1.3c45.3,16,88.8,34.3,106.4,63l30.3-0.3C509.4,168.8,439.8,152.6,404.3,134.9L404.3,134.9z
	"/>
<path class="st0" d="M447,132.4l-19.6,0.9c45.3,16,116,36.8,133.7,65.6l30.1-0.1C575.9,168.8,480.7,150.8,447,132.4L447,132.4z"/>
<path class="st0" d="M475.9,131.6l-9.4,0.2c45.3,16,150.2,38.4,167.9,67.2l37.1,0C656.2,168.9,515.6,145.7,475.9,131.6L475.9,131.6z
	"/>
<path class="st0" d="M520.5,130.4l-18.9-0.5c54.1,9,176.8,40.2,194.5,69l46.6,0.1C727.4,168.9,543.3,133.5,520.5,130.4L520.5,130.4z
	"/>
</svg>
