<?xml version="1.0" encoding="UTF-8"?>
<svg viewBox="0 0 753.04767 199.29289" xmlns="http://www.w3.org/2000/svg" xmlns:xlink="http://www.w3.org/1999/xlink">
 <defs>
  <linearGradient id="e">
   <stop stop-color="#c17d11" offset="0"/>
   <stop stop-color="#8f5902" offset="1"/>
  </linearGradient>
  <linearGradient id="c">
   <stop stop-color="#f7f7f7" offset="0"/>
   <stop stop-color="#f7f7f7" stop-opacity="0" offset="1"/>
  </linearGradient>
  <linearGradient id="d">
   <stop stop-color="#c0ce43" offset="0"/>
   <stop stop-color="#626200" offset="1"/>
  </linearGradient>
  <linearGradient id="a" x1="240.42" x2="213.55" y1="209.15" y2="270" gradientUnits="userSpaceOnUse">
   <stop stop-color="#98a026" offset="0"/>
   <stop stop-color="#626200" offset="1"/>
  </linearGradient>
  <linearGradient id="q" x1="375" x2="386" y1="-108" y2="134" gradientTransform="matrix(.99672 0 0 .74257 1.9934 2.4852)" gradientUnits="userSpaceOnUse">
   <stop stop-color="#729fcf" offset="0"/>
   <stop stop-color="#e4eaed" offset="1"/>
  </linearGradient>
  <linearGradient id="n" x1="529.07" x2="512.66" y1="393.84" y2="322.95" gradientUnits="userSpaceOnUse">
   <stop stop-color="#2e3436" offset="0"/>
   <stop stop-color="#2e3436" stop-opacity="0" offset="1"/>
  </linearGradient>
  <linearGradient id="s" x1="140.71" x2="138.59" y1="110.2" y2="200" gradientUnits="userSpaceOnUse" xlink:href="#d"/>
  <linearGradient id="b" x1="230.52" x2="227.33" y1="394.45" y2="324.45" gradientUnits="userSpaceOnUse" xlink:href="#e"/>
  <linearGradient id="r" x1="624" x2="601" y1="63" y2="139.5" gradientUnits="userSpaceOnUse" xlink:href="#d"/>
  <linearGradient id="p" x1="259" x2="266.5" y1="16" y2="63" gradientUnits="userSpaceOnUse" xlink:href="#c"/>
  <linearGradient id="o" x1="570.5" x2="571.5" y1="8" y2="29" gradientUnits="userSpaceOnUse" xlink:href="#c"/>
  <linearGradient id="m" x1="498.22" x2="738.22" y1="145.4" y2="224.12" gradientUnits="userSpaceOnUse" xlink:href="#e"/>
  <linearGradient id="l" x1="64.109" x2="74.671" y1="-27.535" y2="38.656" gradientUnits="userSpaceOnUse" xlink:href="#c"/>
  <linearGradient id="k" x1="641.43" x2="618.43" y1="276" y2="352.5" gradientUnits="userSpaceOnUse" xlink:href="#d"/>
  <pattern id="t" width="30.06602" height="5.18058" patternTransform="translate(-.42893,1)" patternUnits="userSpaceOnUse">
   <path d="m7.597.061c-2.518-.248-4.941.241-7.607,1.727v1.273c2.783-1.63 5.183-2.009 7.482-1.781s4.497,1.081 6.781,1.938c4.567,1.713 9.551,3.458 15.813-.157l-.004-1.273c-6.44,3.709-10.816,1.982-15.371.273-2.278-.854-4.576-1.75-7.094-2z" fill="#fff"/>
  </pattern>
  <pattern id="f" width="10" height="10" patternTransform="matrix(10 0 0 10 .70711 -16.263)" patternUnits="userSpaceOnUse">
   <path d="m2.617.81a0.05,0.05 0 1,0 -.1,0 0.05,0.05 0 1,0 .1,0"/>
   <path d="m3.098,2.33a0.05,0.05 0 1,0 -.1,0 0.05,0.05 0 1,0 .1,0"/>
   <path d="m4.468,2.415a0.05,0.05 0 1,0 -.1,0 0.05,0.05 0 1,0 .1,0"/>
   <path d="m1.894,3.029a0.05,0.05 0 1,0 -.1,0 0.05,0.05 0 1,0 .1,0"/>
   <path d="m6.13,1.363a0.05,0.05 0 1,0 -.1,0 0.05,0.05 0 1,0 .1,0"/>
   <path d="m5.869,4.413a0.05,0.05 0 1,0 -.1,0 0.05,0.05 0 1,0 .1,0"/>
   <path d="m4.355,4.048a0.05,0.05 0 1,0 -.1,0 0.05,0.05 0 1,0 .1,0"/>
   <path d="m5.591,3.045a0.05,0.05 0 1,0 -.1,0 0.05,0.05 0 1,0 .1,0"/>
   <path d="m4.835,5.527a0.05,0.05 0 1,0 -.1,0 0.05,0.05 0 1,0 .1,0"/>
   <path d="m2.717,5.184a0.05,0.05 0 1,0 -.1,0 0.05,0.05 0 1,0 .1,0"/>
   <path d="m8.015,1.448a0.05,0.05 0 1,0 -.1,0 0.05,0.05 0 1,0 .1,0"/>
   <path d="m7.097,5.049a0.05,0.05 0 1,0 -.1,0 0.05,0.05 0 1,0 .1,0"/>
   <path d="m4.39.895a0.05,0.05 0 1,0 -.1,0 0.05,0.05 0 1,0 .1,0"/>
   <path d="m7.175.34a0.05,0.05 0 1,0 -.1,0 0.05,0.05 0 1,0 .1,0"/>
   <path d="m9.603,1.049a0.05,0.05 0 1,0 -.1,0 0.05,0.05 0 1,0 .1,0"/>
   <path d="m7.056,2.689a0.05,0.05 0 1,0 -.1,0 0.05,0.05 0 1,0 .1,0"/>
   <path d="m8.959,2.689a0.05,0.05 0 1,0 -.1,0 0.05,0.05 0 1,0 .1,0"/>
   <path d="m9.365,4.407a0.05,0.05 0 1,0 -.1,0 0.05,0.05 0 1,0 .1,0"/>
   <path d="m7.87,3.87a0.05,0.05 0 1,0 -.1,0 0.05,0.05 0 1,0 .1,0"/>
   <path d="m8.32,5.948a0.05,0.05 0 1,0 -.1,0 0.05,0.05 0 1,0 .1,0"/>
   <path d="m8.023,7.428a0.05,0.05 0 1,0 -.1,0 0.05,0.05 0 1,0 .1,0"/>
   <path d="m9.392,8.072a0.05,0.05 0 1,0 -.1,0 0.05,0.05 0 1,0 .1,0"/>
   <path d="m8.256,9.315a0.05,0.05 0 1,0 -.1,0 0.05,0.05 0 1,0 .1,0"/>
   <path d="m9.732,9.475a0.05,0.05 0 1,0 -.1,0 0.05,0.05 0 1,0 .1,0"/>
   <path d="m9.738,6.186a0.05,0.05 0 1,0 -.1,0 0.05,0.05 0 1,0 .1,0"/>
   <path d="m3.429,6.296a0.05,0.05 0 1,0 -.1,0 0.05,0.05 0 1,0 .1,0"/>
   <path d="m2.921,8.204a0.05,0.05 0 1,0 -.1,0 0.05,0.05 0 1,0 .1,0"/>
   <path d="m4.64,8.719a0.05,0.05 0 1,0 -.1,0 0.05,0.05 0 1,0 .1,0"/>
   <path d="m3.231,9.671a0.05,0.05 0 1,0 -.1,0 0.05,0.05 0 1,0 .1,0"/>
   <path d="m5.784,7.315a0.05,0.05 0 1,0 -.1,0 0.05,0.05 0 1,0 .1,0"/>
   <path d="m6.757,6.513a0.05,0.05 0 1,0 -.1,0 0.05,0.05 0 1,0 .1,0"/>
   <path d="m5.78,9.67a0.05,0.05 0 1,0 -.1,0 0.05,0.05 0 1,0 .1,0"/>
   <path d="m6.585,8.373a0.05,0.05 0 1,0 -.1,0 0.05,0.05 0 1,0 .1,0"/>
   <path d="m4.42,7.154a0.05,0.05 0 1,0 -.1,0 0.05,0.05 0 1,0 .1,0"/>
   <path d="m.672,7.25a0.05,0.05 0 1,0 -.1,0 0.05,0.05 0 1,0 .1,0"/>
   <path d="m.881,5.679a0.05,0.05 0 1,0 -.1,0 0.05,0.05 0 1,0 .1,0"/>
   <path d="m1.307,8.519a0.05,0.05 0 1,0 -.1,0 0.05,0.05 0 1,0 .1,0"/>
   <path d="m2.039,6.877a0.05,0.05 0 1,0 -.1,0 0.05,0.05 0 1,0 .1,0"/>
   <path d="m.424,3.181a0.05,0.05 0 1,0 -.1,0 0.05,0.05 0 1,0 .1,0"/>
   <path d="m1.216,1.664a0.05,0.05 0 1,0 -.1,0 0.05,0.05 0 1,0 .1,0"/>
   <path d="m1.201.093a0.05,0.05 0 1,0 -.1,0 0.05,0.05 0 1,0 .1,0"/>
   <path d="m1.201,10.093a0.05,0.05 0 1,0 -.1,0 0.05,0.05 0 1,0 .1,0"/>
   <path d="m1.352,4.451a0.05,0.05 0 1,0 -.1,0 0.05,0.05 0 1,0 .1,0"/>
   <path d="m3.097,3.763a0.05,0.05 0 1,0 -.1,0 0.05,0.05 0 1,0 .1,0"/>
  </pattern>
  <pattern id="g" xlink:href="#h" patternTransform="matrix(3.8889 0 0 3.8889 405.57 216.09)"/>
  <pattern id="h" xlink:href="#j" patternTransform="matrix(3.8889 0 0 3.8889 405.57 216.09)"/>
  <pattern id="i" xlink:href="#f" patternTransform="matrix(10 0 0 10 .27817 -15.263)"/>
  <pattern id="j" xlink:href="#f" patternTransform="matrix(3.8889 0 0 3.8889 406 215.09)"/>
 </defs>
 <g transform="translate(.42893,-1)">
  <path d="m7.4257 1h736.67a7.4257 7.4257 0 0 1 7.4257 7.4257v135.15a7.4257 7.4257 0 0 1 -7.4257 7.4257h-736.67a7.4257 7.4257 0 0 1 -7.4257 -7.4257v-135.15a7.4257 7.4257 0 0 1 7.4257 -7.4257" fill="url(#q)"/>
  <path transform="matrix(.51342 0 0 .51342 130.96 -59.588)" d="m633.22 293c-89.102 0-161.46 26.538-161.78 59.281h298v-31.875c-28.777-16.479-79.05-27.406-136.22-27.406z" fill="url(#k)"/>
  <g transform="matrix(.13698 .01323 -.01323 .13698 424.93 51.509)">
   <path d="m224.25 291.92h6.163a10 10 0 0 1 10 10v99.501a10 10 0 0 1 -10 10h-6.163a10 10 0 0 1 -10 -10v-99.501a10 10 0 0 1 10 -10" fill="url(#b)"/>
   <path transform="translate(28.284 14.142)" d="m258.8 258.69c0.62149 3.3405-6.6498 12.131-6.9141 15.518s5.5558 13.199 4.4238 16.403-11.824 7.1808-13.747 9.9823-1.7882 14.209-4.3704 16.417-13.831 0.30655-16.896 1.7714-8.653 11.411-11.993 12.033-12.131-6.6498-15.518-6.9141-13.199 5.5558-16.403 4.4238-7.1808-11.824-9.9823-13.747-14.209-1.7882-16.417-4.3704-0.30655-13.831-1.7714-16.896-11.411-8.653-12.033-11.993 6.6498-12.131 6.9141-15.518-5.5558-13.199-4.4238-16.403 11.824-7.1808 13.747-9.9823 1.7882-14.209 4.3704-16.417 13.831-0.30656 16.896-1.7714 8.653-11.411 11.993-12.033 12.131 6.6498 15.518 6.9141 13.199-5.5558 16.403-4.4238 7.1808 11.824 9.9823 13.747 14.209 1.7882 16.417 4.3704 0.30656 13.831 1.7714 16.896 11.411 8.653 12.033 11.993z" fill="url(#a)"/>
  </g>
  <g transform="matrix(.12868 .01166 -.01243 .12073 401.42 49.826)">
   <path d="m224.25 291.92h6.163a10 10 0 0 1 10 10v99.501a10 10 0 0 1 -10 10h-6.163a10 10 0 0 1 -10 -10v-99.501a10 10 0 0 1 10 -10" fill="url(#b)"/>
   <path transform="translate(28.284 14.142)" d="m258.8 258.69c0.62149 3.3405-6.6498 12.131-6.9141 15.518s5.5558 13.199 4.4238 16.403-11.824 7.1808-13.747 9.9823-1.7882 14.209-4.3704 16.417-13.831 0.30655-16.896 1.7714-8.653 11.411-11.993 12.033-12.131-6.6498-15.518-6.9141-13.199 5.5558-16.403 4.4238-7.1808-11.824-9.9823-13.747-14.209-1.7882-16.417-4.3704-0.30655-13.831-1.7714-16.896-11.411-8.653-12.033-11.993 6.6498-12.131 6.9141-15.518-5.5558-13.199-4.4238-16.403 11.824-7.1808 13.747-9.9823 1.7882-14.209 4.3704-16.417 13.831-0.30656 16.896-1.7714 8.653-11.411 11.993-12.033 12.131 6.6498 15.518 6.9141 13.199-5.5558 16.403-4.4238 7.1808 11.824 9.9823 13.747 14.209 1.7882 16.417 4.3704 0.30656 13.831 1.7714 16.896 11.411 8.653 12.033 11.993z" fill="url(#a)"/>
  </g>
  <g transform="matrix(.79003 0 0 .79003 -61.012 -125.31)">
   <path d="m520.22 301.5c-111.57 2.712-222.33 9.5219-320.25 68.219h581.03v-30.75c-63.145-22.943-156.58-37.469-260.78-37.469z" fill="#aa7828"/>
   <path d="m305.64 318.09 37.123-3.8891c36.77 13.199 61.872 31.702 81.671 55.508l-61.518 1e-5 -57.276-51.619z" fill="#e9b96e"/>
   <path d="m389.85 308.24-18.21 2.3511c45.255 16.028 63.638 30.65 81.316 59.406l36.26-0.59375c-21.244-27.25-65.645-42.794-99.366-61.163z" fill="#e9b96e"/>
   <path d="m424.87 304.91-16.442 1.2905c45.255 16.028 88.851 34.539 106.53 63.295l30.25-0.59375c-15.233-30.079-84.848-46.329-120.34-63.991z" fill="#e9b96e"/>
   <path d="m467.59 302.44-19.624 0.9369c45.255 16.028 115.81 37.367 133.49 66.123l30.25-0.59375c-15.233-30.079-110.39-48.097-144.12-66.466z" fill="#e9b96e"/>
   <path d="m496.46 301.59-9.3708 0.22979c45.255 16.028 150.19 38.428 167.86 67.184l37.321 0.46691c-15.233-30.079-156.08-53.754-195.81-67.881z" fill="#e9b96e"/>
   <path d="m540.08 300.88-18.917-0.47731c54.094 8.9567 176.77 40.549 194.45 69.305l46.513 0.11335c-15.233-30.079-199.29-65.775-222.05-68.941z" fill="#e9b96e"/>
   <path d="m517.69 304.03c-111.57 2.712-222.33 9.5219-320.25 68.219h581.03v-30.75c-63.145-22.943-156.58-37.469-260.78-37.469z" fill="url(#n)"/>
  </g>
  <path d="m615.78 80c-89.301 0-161.78 26.656-161.78 59.5s72.48 59.5 161.78 59.5c57.169 0 107.44-10.927 136.22-27.406v-64.188c-28.777-16.479-79.05-27.406-136.22-27.406z" fill="url(#r)"/>
  <path d="m491.44 131.9c-111.57 2.712-222.33 9.5219-320.25 68.219h581.03v-30.75c-63.145-22.943-156.58-37.469-260.78-37.469z" fill="url(#m)"/>
  <path d="m284.64 149.09 37.123-3.8891c36.77 13.199 61.695 31.083 81.494 54.889l-61.518 1e-5 -57.099-51z" fill="#e9b96e"/>
  <path d="m491.84 131.97c-111.57 2.712-222.33 9.5219-320.25 68.219h581.03v-30.75c-63.145-22.943-156.58-37.469-260.78-37.469z" fill="url(#t)" opacity=".1"/>
  <path d="m368.85 139.24-18.21 2.3511c45.255 16.028 63.638 29.943 81.316 58.699l35.907-0.32858c-21.244-27.25-65.291-42.352-99.013-60.721z" fill="#e9b96e"/>
  <path d="m141.44 101.44c-56.81 0-107.62 15.073-141.44 38.75v59.812h379c-59.485-52.335-141.18-98.562-237.56-98.562z" fill="url(#s)"/>
  <path d="m141.01 101.44c-56.81 0-107.62 15.073-141.44 38.75v59.812h379c-59.485-52.335-141.18-98.562-237.56-98.562z" fill="url(#i)"/>
  <g transform="matrix(.56592 0 0 .56592 -21.409 -53.531)">
   <path d="m224.25 291.92h6.163a10 10 0 0 1 10 10v99.501a10 10 0 0 1 -10 10h-6.163a10 10 0 0 1 -10 -10v-99.501a10 10 0 0 1 10 -10" fill="url(#b)"/>
   <path transform="translate(28.284 14.142)" d="m258.8 258.69c0.62149 3.3405-6.6498 12.131-6.9141 15.518s5.5558 13.199 4.4238 16.403-11.824 7.1808-13.747 9.9823-1.7882 14.209-4.3704 16.417-13.831 0.30655-16.896 1.7714-8.653 11.411-11.993 12.033-12.131-6.6498-15.518-6.9141-13.199 5.5558-16.403 4.4238-7.1808-11.824-9.9823-13.747-14.209-1.7882-16.417-4.3704-0.30655-13.831-1.7714-16.896-11.411-8.653-12.033-11.993 6.6498-12.131 6.9141-15.518-5.5558-13.199-4.4238-16.403 11.824-7.1808 13.747-9.9823 1.7882-14.209 4.3704-16.417 13.831-0.30656 16.896-1.7714 8.653-11.411 11.993-12.033 12.131 6.6498 15.518 6.9141 13.199-5.5558 16.403-4.4238 7.1808 11.824 9.9823 13.747 14.209 1.7882 16.417 4.3704 0.30656 13.831 1.7714 16.896 11.411 8.653 12.033 11.993z" fill="url(#a)"/>
  </g>
  <g transform="matrix(.40408 .039034 -.039034 .40408 92.341 -55.163)">
   <path d="m224.25 291.92h6.163a10 10 0 0 1 10 10v99.501a10 10 0 0 1 -10 10h-6.163a10 10 0 0 1 -10 -10v-99.501a10 10 0 0 1 10 -10" fill="url(#b)"/>
   <path transform="translate(28.284 14.142)" d="m258.8 258.69c0.62149 3.3405-6.6498 12.131-6.9141 15.518s5.5558 13.199 4.4238 16.403-11.824 7.1808-13.747 9.9823-1.7882 14.209-4.3704 16.417-13.831 0.30655-16.896 1.7714-8.653 11.411-11.993 12.033-12.131-6.6498-15.518-6.9141-13.199 5.5558-16.403 4.4238-7.1808-11.824-9.9823-13.747-14.209-1.7882-16.417-4.3704-0.30655-13.831-1.7714-16.896-11.411-8.653-12.033-11.993 6.6498-12.131 6.9141-15.518-5.5558-13.199-4.4238-16.403 11.824-7.1808 13.747-9.9823 1.7882-14.209 4.3704-16.417 13.831-0.30656 16.896-1.7714 8.653-11.411 11.993-12.033 12.131 6.6498 15.518 6.9141 13.199-5.5558 16.403-4.4238 7.1808 11.824 9.9823 13.747 14.209 1.7882 16.417 4.3704 0.30656 13.831 1.7714 16.896 11.411 8.653 12.033 11.993z" fill="url(#a)"/>
  </g>
  <g transform="matrix(.27422 -.032014 .032014 .27422 -18.675 14.368)">
   <path d="m224.25 291.92h6.163a10 10 0 0 1 10 10v99.501a10 10 0 0 1 -10 10h-6.163a10 10 0 0 1 -10 -10v-99.501a10 10 0 0 1 10 -10" fill="url(#b)"/>
   <path transform="translate(28.284 14.142)" d="m258.8 258.69c0.62149 3.3405-6.6498 12.131-6.9141 15.518s5.5558 13.199 4.4238 16.403-11.824 7.1808-13.747 9.9823-1.7882 14.209-4.3704 16.417-13.831 0.30655-16.896 1.7714-8.653 11.411-11.993 12.033-12.131-6.6498-15.518-6.9141-13.199 5.5558-16.403 4.4238-7.1808-11.824-9.9823-13.747-14.209-1.7882-16.417-4.3704-0.30655-13.831-1.7714-16.896-11.411-8.653-12.033-11.993 6.6498-12.131 6.9141-15.518-5.5558-13.199-4.4238-16.403 11.824-7.1808 13.747-9.9823 1.7882-14.209 4.3704-16.417 13.831-0.30656 16.896-1.7714 8.653-11.411 11.993-12.033 12.131 6.6498 15.518 6.9141 13.199-5.5558 16.403-4.4238 7.1808 11.824 9.9823 13.747 14.209 1.7882 16.417 4.3704 0.30656 13.831 1.7714 16.896 11.411 8.653 12.033 11.993z" fill="url(#a)"/>
  </g>
  <g transform="matrix(.26679 .025772 -.025772 .26679 600.14 1.3842)">
   <path d="m224.25 291.92h6.163a10 10 0 0 1 10 10v99.501a10 10 0 0 1 -10 10h-6.163a10 10 0 0 1 -10 -10v-99.501a10 10 0 0 1 10 -10" fill="url(#b)"/>
   <path transform="translate(28.284 14.142)" d="m258.8 258.69c0.62149 3.3405-6.6498 12.131-6.9141 15.518s5.5558 13.199 4.4238 16.403-11.824 7.1808-13.747 9.9823-1.7882 14.209-4.3704 16.417-13.831 0.30655-16.896 1.7714-8.653 11.411-11.993 12.033-12.131-6.6498-15.518-6.9141-13.199 5.5558-16.403 4.4238-7.1808-11.824-9.9823-13.747-14.209-1.7882-16.417-4.3704-0.30655-13.831-1.7714-16.896-11.411-8.653-12.033-11.993 6.6498-12.131 6.9141-15.518-5.5558-13.199-4.4238-16.403 11.824-7.1808 13.747-9.9823 1.7882-14.209 4.3704-16.417 13.831-0.30656 16.896-1.7714 8.653-11.411 11.993-12.033 12.131 6.6498 15.518 6.9141 13.199-5.5558 16.403-4.4238 7.1808 11.824 9.9823 13.747 14.209 1.7882 16.417 4.3704 0.30656 13.831 1.7714 16.896 11.411 8.653 12.033 11.993z" fill="url(#a)"/>
  </g>
  <path d="m618.75 75.438c-83.067 0-151.53 23.064-160.69 52.719 12.144-0.4181 23.81-0.65625 34.156-0.65625 103.93 0 197.14 14.443 260.28 37.281v-63.344c-29.133-15.705-78.194-26-133.75-26z" fill="url(#g)"/>
  <g transform="matrix(.25064 .022716 -.024212 .23515 547.35 -3.893)">
   <path d="m224.25 291.92h6.163a10 10 0 0 1 10 10v99.501a10 10 0 0 1 -10 10h-6.163a10 10 0 0 1 -10 -10v-99.501a10 10 0 0 1 10 -10" fill="url(#b)"/>
   <path transform="translate(28.284 14.142)" d="m258.8 258.69c0.62149 3.3405-6.6498 12.131-6.9141 15.518s5.5558 13.199 4.4238 16.403-11.824 7.1808-13.747 9.9823-1.7882 14.209-4.3704 16.417-13.831 0.30655-16.896 1.7714-8.653 11.411-11.993 12.033-12.131-6.6498-15.518-6.9141-13.199 5.5558-16.403 4.4238-7.1808-11.824-9.9823-13.747-14.209-1.7882-16.417-4.3704-0.30655-13.831-1.7714-16.896-11.411-8.653-12.033-11.993 6.6498-12.131 6.9141-15.518-5.5558-13.199-4.4238-16.403 11.824-7.1808 13.747-9.9823 1.7882-14.209 4.3704-16.417 13.831-0.30656 16.896-1.7714 8.653-11.411 11.993-12.033 12.131 6.6498 15.518 6.9141 13.199-5.5558 16.403-4.4238 7.1808 11.824 9.9823 13.747 14.209 1.7882 16.417 4.3704 0.30656 13.831 1.7714 16.896 11.411 8.653 12.033 11.993z" fill="url(#a)"/>
  </g>
  <g transform="matrix(.21834 .018418 -.021091 .19067 642.77 3.4012)">
   <path d="m224.25 291.92h6.163a10 10 0 0 1 10 10v99.501a10 10 0 0 1 -10 10h-6.163a10 10 0 0 1 -10 -10v-99.501a10 10 0 0 1 10 -10" fill="url(#b)"/>
   <path transform="translate(28.284 14.142)" d="m258.8 258.69c0.62149 3.3405-6.6498 12.131-6.9141 15.518s5.5558 13.199 4.4238 16.403-11.824 7.1808-13.747 9.9823-1.7882 14.209-4.3704 16.417-13.831 0.30655-16.896 1.7714-8.653 11.411-11.993 12.033-12.131-6.6498-15.518-6.9141-13.199 5.5558-16.403 4.4238-7.1808-11.824-9.9823-13.747-14.209-1.7882-16.417-4.3704-0.30655-13.831-1.7714-16.896-11.411-8.653-12.033-11.993 6.6498-12.131 6.9141-15.518-5.5558-13.199-4.4238-16.403 11.824-7.1808 13.747-9.9823 1.7882-14.209 4.3704-16.417 13.831-0.30656 16.896-1.7714 8.653-11.411 11.993-12.033 12.131 6.6498 15.518 6.9141 13.199-5.5558 16.403-4.4238 7.1808 11.824 9.9823 13.747 14.209 1.7882 16.417 4.3704 0.30656 13.831 1.7714 16.896 11.411 8.653 12.033 11.993z" fill="url(#a)"/>
  </g>
  <path d="m262.5 11c-9.66 0-17.5 5.376-17.5 12 0 2.1946 0.87283 4.2608 2.375 6.0312-10.413 2.3786-17.375 6.6128-17.375 11.469 0 1.0075 0.30828 1.9928 0.875 2.9375-8.6086 1.2488-14.875 5.0565-14.875 9.5625 0 5.52 9.408 10 21 10 11.146 0 20.282-4.1494 20.969-9.375 2.7439 0.24399 5.5859 0.375 8.5312 0.375 15.464 0 28.686-3.5677 34-8.5938 2.3914 0.38018 4.8975 0.59375 7.5 0.59375 15.456 0 28-7.168 28-16s-12.544-16-28-16c-14.268 0-26.054 6.1129-27.781 14-0.54522-0.08209-1.0983-0.17752-1.6562-0.25 0.92259-1.4602 1.4375-3.0582 1.4375-4.75 0-6.624-7.84-12-17.5-12z" fill="url(#p)"/>
  <path d="m568.5 4.5c-5.2392 0-9.6455 3.4344-11.031 8.125-1.0583-0.40379-2.235-0.625-3.4688-0.625-4.692 0-8.5 3.248-8.5 7.25s3.808 7.25 8.5 7.25c2.3976 0 4.548-0.85533 6.0938-2.2188 0.48616 2.7024 2.5095 4.7188 4.9062 4.7188 1.4779 0 2.8031-0.7755 3.7188-2 2.7813-0.05071 5.318-1.0629 7.2812-2.7188 0.90256 1.0653 2.135 1.7188 3.5 1.7188 2.76 0 5-2.688 5-6 0-3.1694-2.0609-5.751-4.6562-5.9688-0.84484-5.3972-5.5916-9.5312-11.344-9.5312z" fill="url(#o)"/>
  <path transform="translate(-2.5502 -3.6562)" d="m23.625 4.75c-0.23449 0.72847-0.34375 1.4642-0.34375 2.2188 0 1.4188 0.42062 2.7946 1.2188 4.125-12.124 1.7588-20.938 7.1228-20.938 13.469 0 7.774 13.237 14.094 29.562 14.094 15.697 0 28.565-5.8282 29.531-13.188 3.8643 0.34361 7.8832 0.5 12.031 0.5 21.779 0 40.391-5.0154 47.875-12.094 3.3679 0.53542 6.8973 0.84375 10.562 0.84375 13.647 0 25.67-3.9457 32.75-9.9688h-142.25z" fill="url(#l)"/>
  <path d="m403.87 135.91-16.442 1.2905c45.255 16.028 88.763 34.274 106.44 63.03l30.338-0.32858c-15.233-30.079-84.848-46.329-120.34-63.991z" fill="#e9b96e"/>
  <path d="m446.59 133.44-19.624 0.9369c45.255 16.028 115.99 36.837 133.67 65.593l30.073-0.06342c-15.233-30.079-110.39-48.097-144.12-66.466z" fill="#e9b96e"/>
  <path d="m475.46 132.59-9.3708 0.22979c45.255 16.028 150.19 38.428 167.86 67.184l37.056 0.02497c-15.233-30.079-155.82-53.312-195.55-67.439z" fill="#e9b96e"/>
  <path d="m520.08 131.38-18.917-0.47731c54.094 8.9567 176.77 40.196 194.45 68.952l46.602 0.11335c-15.233-30.079-199.38-65.421-222.14-68.588z" fill="#e9b96e"/>
 </g>
</svg>
