<?xml version="1.0" encoding="utf-8"?>
<!-- Generator: Adobe Illustrator 22.1.0, SVG Export Plug-In . SVG Version: 6.00 Build 0)  -->
<svg version="1.1" id="Layer_1" xmlns="http://www.w3.org/2000/svg" xmlns:xlink="http://www.w3.org/1999/xlink" x="0px" y="0px"
	 viewBox="0 0 1920 1058" style="enable-background:new 0 0 1920 1058;" xml:space="preserve">
<style type="text/css">
	.st0{fill:none;stroke:#000000;stroke-width:6;stroke-miterlimit:10;}
</style>
<path class="st0" d="M0,529v529h960h960V529V0H960H0V529z M1774.6,159.2c39.9,67.3,53.8,142.2,39.3,212.2
	c-5.1,24.6-11.5,42.7-23.4,67.1c-12.4,25.2-26.6,46.2-47.1,69.5c-31.5,35.8-76.9,70.8-119.8,92.2c-16.8,8.3-19.3,11-23,24.6
	c-3.7,13.4-13.5,34.2-23.4,49.7c-10.7,16.7-35.2,36.7-58.7,48c-7.2,3.4-80.7,33.8-86.5,35.7c-1,0.3-1.9-0.5-2.6-2.6
	c-2-5.8-8.4-6.6-11.2-1.5c-1,1.9-1.2,19.6-1.1,87.4c0.2,60.4-0.1,85.8-0.9,87.7c-1.7,4.2-14,12.7-21.4,14.9l-2.8,0.8V935
	c0-9.1-0.2-10-2.2-11.4c-3.1-2.2-5.1-2-7.5,0.6c-1.8,1.9-2.2,3.8-2.5,12l-0.3,9.8h-12.6h-12.6l-0.7-4.6c-0.3-2.6-0.6-7.4-0.6-10.8
	c0-8-1.6-11-5.8-11.4c-5.7-0.6-6.2,0.6-6.2,14.5v12.5l-8.2-0.7c-4.6-0.4-10.1-1-12.3-1.4l-4-0.6l-0.5-12.3
	c-0.5-12.9-1-14.2-5.5-14.2c-4.6,0-6.5,3.7-6.5,12.7c0,10-0.4,10.2-9.1,6.2c-9.4-4.2-12.6-6.4-14.3-9.7c-1.5-3-1.6-6-4.5-108.7
	c-1.1-43-2-62.7-2.9-64.1c-1.5-2.8-3.6-3.6-6.6-2.4c-4.1,1.5-4.7,4.1-4.4,17.6c0.3,12,0.2,12.7-1.7,12.9
	c-35.5,4.8-134.9,6.9-188.5,4c-14.6-0.8-27.7-1.5-29.2-1.5h-2.8v-14.6c0-8.1-0.5-15.4-1-16.5c-1.3-2.3-6.2-2.6-8.3-0.4
	c-1.7,1.6-2.2,18.2-3.3,105.5c-0.3,27.2-0.9,53.1-1.3,57.5l-0.6,8l-5,3.2c-5.2,3.4-17.8,10.3-18.9,10.3c-0.3,0-0.6-3.7-0.6-8.2
	c0-8.8-1.4-11.8-5.4-11.8c-4.9,0.1-6.3,3.2-6.8,14.8c-0.2,7.1-0.6,9.3-1.8,9.7c-3.2,1-15.8,2.5-21.2,2.5H960v-10.7
	c0-11.7-1.1-14.3-5.8-14.3c-5.1,0-6.2,2.3-6.2,13.6v10.2l-5,0.7c-2.8,0.4-8.7,0.4-13,0l-8-0.7v-11.3c0-12.4-0.8-14.5-5.7-14.5
	c-4.8,0-6.3,2.5-6.3,10.4c0,3.9-0.3,8.8-0.6,10.9c-0.6,3.2-1,3.7-3.3,3.7c-4.5-0.1-10.8-3.6-13.5-7.7c-3.6-5.3-7.3-16.9-8.7-26.6
	c-1.1-8.4-0.8-36,1.1-102.2c1.3-43.7,1.3-61.8-0.2-63.3c-2.1-2.1-6.5-1.4-8.7,1.4c-1.2,1.5-2.1,3.3-2.1,4.1c0,0.9-0.8,1.2-2.2,0.8
	c-1.3-0.3-6.6-1.4-11.8-2.5c-26.6-5.7-61.8-16.6-91.3-28.2c-9.8-3.8-17.7-7.1-17.5-7.3c0.2-0.1,5-3.5,10.8-7.6
	c36.6-25.4,57.3-49.9,66.3-78.5c5.4-17,5.7-30.4,1.1-48.3c-11.1-42.9-52.7-81-108.9-99.7c-7.7-2.5-14.2-4.8-14.4-5
	c-0.5-0.5,33.8-17.4,48.4-23.9c32.3-14.3,78.4-30.9,105.6-38c35.9-9.3,96.2-19.5,141.9-24c3.6-0.3,8.1-0.8,10-1
	c1.9-0.3,13.9-1.2,26.5-2.2c40.7-3,138.3-1.8,172.5,2.2c1.9,0.2,6.7,0.6,10.5,1c56,4.9,126.1,18.8,173,34.2
	c47.5,15.6,79.2,30.7,126.1,60.5c9.4,5.9,18,10.8,19.2,10.8c6.8,0,64.4-53.5,90.5-84.1c33.7-39.5,60.5-79.1,81.2-119.9
	c25-49.6,40.8-92.2,52-140.5l0.7-3l2,2.5C1767.3,147.4,1771.1,153.3,1774.6,159.2z M1747.4,160.7c-1.6,6.9-9.3,33.2-10.7,36.3
	l-1.4,3.5L1731,187c-2.4-7.4-4.3-13.7-4.3-14c0-0.7,19.6-14.9,20.6-15C1747.7,158,1747.7,159.2,1747.4,160.7z M1719.1,243.1
	c-7.1,17.3-8.4,19.9-9.2,19.9c-1.2,0-1.1-21.1,0-22.9c1.1-1.7,12.5-7.9,12.9-7C1722.9,233.4,1721.3,237.9,1719.1,243.1z
	 M1690.5,300.6c-3.5,8.4-22.8,38.8-28.1,44.4c-1.2,1.2-1.4-1.1-1.4-16.5l0.1-18l14.7-6.7c8.1-3.6,15-6.7,15.5-6.7
	C1691.7,297,1691.3,298.6,1690.5,300.6z M1002,357.2l14.4,15.3l-5.5,0.7c-19.1,2.4-52.1,5.9-52.9,5.6c-0.9-0.3,27.8-36.8,29-36.8
	C987.4,342,994.1,348.9,1002,357.2z M1071.3,356.5c4.7,6.6,8.3,12.1,8.2,12.3c-0.2,0.2-8.4,0.8-18.2,1.3c-9.8,0.4-20.4,1.1-23.5,1.4
	c-4.1,0.4-5.8,0.3-5.8-0.6c0-0.6,6.3-7.4,14.1-15.2c12-12,14.2-13.8,15.4-12.6C1062.3,343.9,1066.7,349.9,1071.3,356.5z
	 M1139.3,347.2c4.8,5.8,16.7,21.5,16.7,22.1c0,0.5-49.4-0.4-49.9-0.9c-0.3-0.2,0.6-1.6,2-3c3.7-4.1,25.2-23.4,26-23.4
	C1134.5,342,1136.8,344.4,1139.3,347.2z M1209.3,343.8c2.9,3.2,20.7,29.7,20.7,30.9c0,0.3-1.9,0.3-4.2-0.1
	c-2.4-0.3-13.7-1.3-25.3-2.1c-11.5-0.9-22-1.8-23.3-2.1c-2-0.4-1.3-1.3,6-7.8c16.6-14.7,23.3-20.5,23.9-20.5
	C1207.4,342,1208.4,342.8,1209.3,343.8z M449.3,355.4c26.1,5,49.1,22.9,60.2,46.9c3.4,7.3,4.7,8.7,8.5,8.7c2.1,0,3.9-2.1,11-13
	c10.8-16.7,26.4-29.2,46.5-37.5c12.7-5.3,22.5-6.9,38.5-6.2c25.4,1.1,43.8,8.5,59,23.8c14.1,14.1,20,28.1,20.7,48.9
	c0.6,14.7-1.4,25.2-7.2,37.7c-5.7,12.3-5.2,12.9,10.7,16.8c36.6,8.9,65.5,23.7,87.9,45.3c18.9,18.1,28.9,35,33.4,56.5
	c8.4,39.2-16.2,80-68.5,113.9c-21.3,13.8-48.5,27.9-68.1,35.2c-17.8,6.6-42.4,12.5-60.9,14.6c-5.2,0.6-11.1,1.3-13,1.6
	c-10.3,1.4-53.9,2.2-77.7,1.3c-14.6-0.5-27.7-1.1-29.2-1.3c-1.4-0.3-6-0.7-10.1-1.1c-23.3-2-52.2-7.7-86.2-16.9
	c-43-11.6-68.9-15.5-118.3-17.6c-41.2-1.8-65.7-4.8-93.1-11.5c-17.2-4.2-46.4-14-46.4-15.6c0-0.4,2.4-4.6,5.4-9.3
	c3-4.8,5.6-9,5.8-9.5c0.2-0.4,11.6,0.1,25.3,1.1c13.8,0.9,34.6,2.4,46.4,3.3c11.8,0.8,21.7,1.8,22,2.1c0.3,0.3,1.6,5.2,2.8,10.9
	c2.4,11.8,4.4,16.4,8.5,20.6c4.8,4.7,11.4,3.5,16.6-3.1c1.1-1.4,5.3-8.8,9.5-16.5l7.5-14l4.4-0.2c17.9-1,45.4-4.8,75-10.3
	c53.3-10,88.1-11.8,156.8-8c40.8,2.2,47,2.3,61.7,0.6c14.9-1.7,30-5.5,42-10.5l7.2-3l4.6,6.4c6.4,9,11.9,13.5,16.5,13.5
	c8.9,0,12.3-7.1,15.6-33c1.5-11.4,1.2-11,10.3-19.9c4.8-4.7,11.7-12.3,15.5-16.8l6.7-8.2l4.1,2.5c2.2,1.4,7,3.7,10.6,5
	c10.3,3.9,16.4,2.3,14.8-3.9c-0.5-2-1.9-3-6.4-4.7c-9.1-3.4-14.9-7-19.8-12.2c-5.7-6.2-9-13.3-10.3-22.6c-0.5-4-1.5-8-2.1-8.8
	c-1.4-1.6-5.3-1.8-8.1-0.4c-4.4,2.4-0.9,22.3,5.7,32.3c1.4,2.1,2.3,4.4,2.1,5.1c-1.1,2.9-13.1,16.8-21.5,24.8
	c-24,23.1-50.9,37.2-80.6,42.3c-10.2,1.7-32.8,1.9-63.6,0.5c-11.3-0.5-28.4-1.2-38.1-1.6l-17.6-0.7l-4.3-12.1
	c-4.1-11.9-10.6-24-15.2-28.3c-14.1-13.3-28.7,3.1-28.8,32.4c0,5.1-0.3,9.3-0.7,9.3c-0.5,0-10.7,1.4-22.8,3c-12.1,1.7-22.5,3-23.2,3
	c-0.6,0-1.9-2.4-2.9-5.3c-4.5-13.7-13.6-27.8-20-30.9c-4.2-2.1-4.5-2.1-7.8-0.5c-1.9,0.9-4.2,2.9-5,4.6c-2.4,4.6-5.4,16.7-6.6,27.1
	c-1.7,14-1.3,13.5-11.7,14.8c-4.8,0.7-12.2,1.4-16.3,1.8c-4.1,0.3-8.6,0.8-10,1c-1.4,0.3-16.7,0.8-34,1.1c-23.4,0.4-38,0.1-57-1.1
	c-33.9-2.2-44.5-3.4-91.8-10.7l-15.2-2.4l-1-3.5c-0.6-1.9-1.5-6.7-2.1-10.5c-1-6.1-0.9-8.1,1-15.7c1.1-4.8,3.8-12.2,6-16.5
	C128.2,569.9,151.4,560,253,541c30.1-5.6,53-13,74.4-24c18.7-9.5,42.6-26.9,42.6-30.9c0-0.9-2.1-4.6-4.6-8.1
	c-11.8-16.1-17.6-32.1-17.7-48.5c-0.1-12,1.7-19.8,7.2-31c11.2-22.8,35.2-39.4,63.1-43.8C424.2,353.7,442.5,354.1,449.3,355.4z
	 M933.6,367.6c8.8,6.4,16,11.9,16.2,12.3c0.1,0.4-4.8,1.5-11,2.5c-53.5,8.4-98.8,19.5-134.2,33c-4.4,1.7-6.6,2.1-6.3,1.3
	c0.2-0.7,8.2-12.1,17.6-25.4l17.1-24.1l22.3,11.9c12.2,6.5,22.7,11.9,23.2,11.9c0.6,0,9.3-7.9,19.5-17.5
	c10.2-9.6,18.8-17.5,19.1-17.5C917.4,356,924.9,361.2,933.6,367.6z M1295.9,371c4.4,7.7,8.1,14.2,8.1,14.5c0,0.2-0.6,0.2-1.2,0
	c-0.7-0.3-13.2-2.3-27.6-4.4c-14.5-2.2-26.6-4.2-26.8-4.4c-1.1-1,34.6-19.7,37.6-19.7C1287.1,357,1290.5,361.9,1295.9,371z
	 M1640.9,375.7c-13.5,17.2-30.7,36.8-31.6,36c-0.9-1,5.6-39,7-40.3c0.6-0.6,16.8-2.1,23.5-2.3l6.4-0.1L1640.9,375.7z M1372.5,390.5
	c4.2,6.4,7.4,11.9,7.3,12.1c-0.5,0.5-41.8-10-41.8-10.6c0.1-0.6,26.4-14,26.7-13.6C1364.9,378.5,1368.4,384,1372.5,390.5z
	 M795.9,418c0.1,0.3-5.6,2.7-12.7,5.4c-17,6.5-40.7,16.9-63,27.7c-17.6,8.5-18.2,8.7-17.6,6.1c1-4.2,2.3-6.3,7.3-11.8
	c2.5-2.8,11.1-15.9,19-29.1l14.3-24.1l26.4,12.7C784.1,411.8,795.9,417.7,795.9,418z M1453.7,413.2c2.8,9,5.5,17.2,5.9,18.2
	c0.4,1.1,0.4,1.7-0.2,1.4c-0.8-0.5-37.2-15.6-43.3-18c-2.2-0.8-0.8-1.7,14.5-9.3c9.3-4.6,17.1-8.4,17.4-8.4
	C1448.3,397,1450.9,404.3,1453.7,413.2z M1593.6,429.3c-4.1,5.3-44,41.7-45.8,41.7c-0.3,0,2.7-10.1,6.9-22.5l7.5-22.5h16.9h17
	L1593.6,429.3z M1523.3,439.2c2.2,8.5,6.7,31.2,6.3,31.5c-0.4,0.4-39.1-22-40.9-23.7c-0.5-0.4,2.9-1.7,7.5-2.9
	c4.6-1.2,12.1-3.3,16.8-4.6c4.7-1.3,8.8-2.4,9.1-2.4C1522.5,437,1523,438,1523.3,439.2z M457.7,612.2c2.3,3.5,4.8,7.6,5.6,9.3
	c1.5,3.1,5.7,16,5.7,17.6c0,0.5-5.2,0.9-11.5,0.9H446v-7.8c0-9.9,4.2-26.2,6.7-26.2C453.2,606,455.4,608.8,457.7,612.2z M368,634
	c2.6,5.1,6.3,16,5.5,16c-0.2,0-3.9,0.7-8.2,1.5c-4.3,0.8-7.9,1.5-8,1.5c-0.2,0-0.3-2.8-0.3-6.3c0-5.9,0.7-10.1,3.1-19.2l1.1-4l2,2.5
	C364.3,627.4,366.5,631,368,634z M669,626.7c0,0.9-2.7,15.8-3.5,19.1c-0.5,2.1-0.8,2.2-2.2,1c-2.4-1.9-8.6-11.9-7.8-12.6
	c1.1-1.1,12-8,12.8-8.1C668.7,626,669,626.3,669,626.7z M146.9,660.6c0.9,0.8-3.7,8.9-8.5,15.3l-4.8,6.5l-0.9-4
	c-0.8-3.8-0.3-16.5,0.7-18.2C133.9,659.4,146,659.8,146.9,660.6z M120.3,662c-0.3,1.1-0.6,2-0.8,2c-0.1,0-1-0.9-2-2
	c-1.8-2-1.7-2,0.8-2C120.3,660,120.7,660.4,120.3,662z M282,674.3c0,4.2-9.6,21.7-11.9,21.7c-2.9,0-7.8-20.9-5.5-23.2
	c0.3-0.4,4.3-0.6,9-0.6C281.5,672.2,282,672.3,282,674.3z M755.6,724.7c8.8,3.6,16.3,7,16.7,7.4c2,1.7-13.7,21.8-19.5,25
	c-1.4,0.7-6.7-1.7-23.8-10.7c-12.2-6.4-21.8-11.9-21.5-12.3c1-1,29.9-15.9,31.1-16C739.2,718.1,746.9,721,755.6,724.7z M813.6,745.2
	l27.4,8.2v5.2c0,2.8-0.7,7.4-1.6,10.2c-1.8,5.5-12.7,20.2-15,20.2c-0.8,0-13-4.9-27.2-10.9c-14.1-6-27.4-11.6-29.5-12.5l-3.8-1.5
	l7.1-8.2c3.9-4.6,8.5-10.7,10.3-13.6c1.7-2.9,3.6-5.3,4-5.3C785.8,737,798.5,740.7,813.6,745.2z M1512,740.1
	c-9.5,6.4-36.2,20.9-38.5,20.9c-0.4,0-0.5-1.7-0.3-3.7l0.3-3.8l20-8.2c11-4.5,20.7-8.2,21.5-8.2C1515.8,737,1514.5,738.4,1512,740.1
	z M865.8,758.7l8.4,1.7l-0.4,21.7c-0.1,12-0.6,22.1-1,22.4c-0.4,0.4-8.6-1.8-18.2-4.9l-17.5-5.6l5.3-7.9c6.1-8.9,9.3-16.7,10.2-24.7
	c0.6-5,0.9-5.5,2.8-5C856.6,756.7,861.3,757.7,865.8,758.7z M1459,762.7c0,1.6-0.4,3.3-0.8,3.9c-0.6,1.1-18.3,7.3-25.3,8.9
	c-3,0.7-4.7-1.7-2.6-3.6c1.3-1.3,25.5-11.6,27.5-11.8C1458.5,760,1459,761.2,1459,762.7z M1263.4,803.1c0.4,6.7,0.4,12.5-0.1,13
	c-1,1-24.4,3.9-30.9,3.9h-4.1l3.1-13.3l3.2-13.2l9.9-1.1c5.5-0.6,11.8-1.2,14.1-1.3l4.1-0.1L1263.4,803.1z M1061.9,794.6l10.4,0.7
	l-0.6,6c-0.6,7.2-6.4,19.4-10.9,23.2c-2.7,2.3-3.9,2.5-11.9,2.5h-8.9v-15.4c0-8.5,0.3-16.2,0.6-17.1c0.6-1.4,1.6-1.6,5.8-1.1
	C1049.2,793.7,1056.2,794.2,1061.9,794.6z M1222,794.8c0,2.6-4.2,16.6-6,20.1c-3.1,6.2-4.7,6.8-21,7.5c-8,0.4-20.9,0.9-28.7,1.3
	l-14.1,0.6l3.5-13.4c1.9-7.4,3.6-13.5,3.8-13.7c0.3-0.3,16.3-1.2,40-2.1c10.5-0.4,19.8-0.9,20.8-0.9
	C1221.2,794.1,1222,794.4,1222,794.8z M841.8,807.1l31.4,10.4l-0.6,6c-0.3,3.3-0.8,22.4-1.2,42.5c-0.5,31-0.4,37.9,1,45.6
	c2.4,14.2,7.5,27.1,12.9,33.1c2.5,2.8,1.5,3-2.1,0.3c-3.4-2.5-4.8-2.7-29.7-3.5c-31.4-1-35.2-2.1-39.9-11.3
	c-7.4-14.7-9.2-34.1-7.6-81.7c1.4-42.1,2.1-52.7,3.4-52.2C810,796.5,824.6,801.4,841.8,807.1z M1139.9,797h6.3l-0.7,4.7
	c-0.4,2.7-1.8,8.3-3.1,12.6c-3.7,11.7-2,11.1-37.7,11.5l-29.8,0.4l3.6-7.1c2-3.9,4.4-10.8,5.3-15.2l1.7-8.1l24,0.6
	C1122.7,796.7,1136.4,797,1139.9,797z M1264.4,853.7c0.4,13.7,0.9,29.5,1.1,35.3c0.2,5.8,0.7,17.8,1.1,26.7
	c0.7,17.6,1,18.5,7.4,21.8c1.7,0.9,3,1.9,3,2.4c0,1.2-35.1,2.1-47.5,1.1c-20.4-1.6-22.7-3.9-28.1-29c-1.6-7.3-1.9-13.3-1.9-43.5v-35
	l10.5-0.8c5.8-0.4,18.6-1.4,28.5-2.1c9.9-0.7,19.6-1.4,21.6-1.5l3.7-0.1L1264.4,853.7z"/>
<path d="M604.5,378.7c-12.8,1.1-28,6.2-37.7,12.7c-22.6,14.9-33.8,45.1-25.9,69.7c6.2,19.4,27.3,39.1,47.7,44.4c7.5,1.9,27,2,36.2,0
	c26.5-5.5,46.5-23.8,52.7-48c1.9-7.6,1.9-21.4,0-28.8c-2-7.8-7.4-18.2-12.9-25C651.7,387.9,625.2,376.9,604.5,378.7z M626,392.6
	c36,10.6,51.7,48.6,32.3,78.1c-6.6,10-17.5,18.1-30.3,22.5c-5.5,1.9-8.5,2.3-19.5,2.2c-11.4,0-13.9-0.3-20.3-2.6
	c-9.5-3.4-15.9-7.6-22.9-15.2c-15.6-16.7-18.6-37.2-8.4-57.5c7.2-14.2,23.8-25.9,41.2-29C605.2,389.8,619.1,390.5,626,392.6z"/>
<path d="M620.7,411.4c-8.2,2.2-15.7,11.2-15.7,18.8c0,5.9,4.8,13.9,10.4,17.3c4.3,2.6,5.9,3,12.1,3s7.8-0.4,12.1-3
	c14.4-8.9,12.7-28.3-3.1-35.6C631.9,409.7,627.4,409.6,620.7,411.4z M634.4,425.1c3,3.5,3.2,5.8,1.1,9.8c-1.7,3.3-3.3,4.1-8.4,4.1
	c-8.3,0-12.2-9.2-6-14.4C625.6,420.8,631,421,634.4,425.1z"/>
<path d="M412,381.3c-21,5.8-37,18.7-45.2,36.5c-15.1,33,0.6,69.8,36,84.2c10.2,4.1,18.2,5.3,33,4.8c11-0.4,13.8-0.9,20.8-3.5
	c27.8-10.4,44.4-32.4,44.7-59.3c0.3-17.9-5-30.7-17.8-43.5c-9.1-9.2-17.5-14.4-29-18.2c-6.6-2.1-10.3-2.7-21-3
	C422.3,379,419.4,379.3,412,381.3z M443.8,391.6c21.3,4.3,38.7,19.8,43.7,38.9c4.4,16.9-1.1,36.5-13.6,48.7
	c-7,6.9-21.1,14.1-30.7,15.8c-20.4,3.6-41-2.5-54.2-15.9c-11.4-11.6-16.6-24.5-15.7-38.9c0.4-7.5,1-9.6,5-17.6
	c8.4-17,21.4-27,40.2-31.1C426.7,389.7,434.6,389.7,443.8,391.6z"/>
<path d="M439.8,411.4c-7.9,2.9-12.8,8-14.7,15.2c-2.3,8.8,4.7,20.2,14.5,23.4c7.3,2.5,18.9-0.5,24-6.2c5.1-5.5,6.8-13.9,4.3-20.5
	C464.3,413.8,449.8,407.6,439.8,411.4z M453.6,424.4c2.1,1.8,2.8,3.2,2.8,6.1c0,10.8-17,11.5-19,0.8c-0.5-2.7-0.1-3.7,2.4-6.3
	C443.7,421.1,449.5,420.8,453.6,424.4z"/>
<path d="M147,582.4c-9,2.4-16.8,9.1-19.5,16.5c-1.9,5.6-1.9,15.1,0,19.9c2.1,5,7.9,10.8,14,14c6.7,3.5,19.6,3.8,26.6,0.6
	c10.4-4.9,16.9-14.2,16.9-24.5c0-6.6-1-9.8-4.8-15.2c-3.4-5-9.4-9.1-16.2-11.1C157.7,580.7,153.2,580.7,147,582.4z M164.5,595.3
	c5.1,2.8,9,10.1,8.1,15.1c-1.6,8.2-9,14-17.7,13.9c-14.4-0.2-22-15.9-12.6-26.2C147.3,592.6,157.5,591.3,164.5,595.3z"/>
<path d="M234.1,588.1c-9,1.7-17.4,7.8-21.4,15.4c-1.6,3-2.1,5.9-2.1,11.5c-0.1,6.4,0.3,8.2,2.6,12.2c3.1,5.1,7.1,8.8,13.2,12.1
	c3.4,1.8,5.7,2.2,13.6,2.2c8.7,0,10-0.3,14.9-3c17-9.4,20.1-30.3,6.2-42.8c-2.2-2-5.3-4.2-6.8-5.1c-2.5-1.2-13.6-3.8-15.2-3.5
	C238.8,587.2,236.5,587.6,234.1,588.1z M249.8,601.7c10,7.4,9.6,20.7-0.8,26.7c-4.7,2.8-13.3,2.8-18,0c-9.3-5.4-10.8-17.8-3.2-24.7
	C233.1,598.9,244.6,597.8,249.8,601.7z"/>
</svg>
