<?xml version='1.0' encoding='utf-8'?>
<svg xmlns="http://www.w3.org/2000/svg" version="1.1" width="600px" height="976px" viewBox="0 0 600 976"> <g id="layer1"> <g style="fill:rgb(0,0,0); fill-opacity:1.0; stroke-linejoin: miter"> <path d="M27.263409,246.28485L29.1309,248.40485C30.149637,249.56903,31.252663,250.77399,31.54972,251.10663C31.88006,251.43001,32.88632,251.66707,34.10159,251.66707C34.133636,251.66707,34.16583,251.6669,34.19816,251.66656C34.251507,251.66602,34.303917,251.66573,34.35541,251.66573C35.761448,251.66573,36.487644,251.87485,37.100864,252.47552C37.753155,253.11465,38.30839,253.2638,41.341625,253.2638C41.855022,253.2638,42.439407,253.25952,43.10727,253.25262C43.613323,253.2474,44.075703,253.24443,44.499992,253.24443C47.627438,253.24443,48.685356,253.40607,49.91061,254.02155C50.83767,254.43134,52.14309,254.92133,52.77352,255.04059C53.572105,255.20013,54.080223,255.65631,54.381615,256.40826C54.5978,257.03534,55.48983,258.11664,56.37752,258.77875C57.773273,259.8969,58.319843,260.01715,61.29952,260.15424C63.77498,260.2126,64.91005,260.45258,65.671036,261.03192C66.32993,261.5562,67.304016,261.79868,68.55511,261.79868C68.588905,261.79868,68.62291,261.79852,68.65712,261.79816C68.70723,261.79764,68.75647,261.79736,68.80485,261.79736C70.17382,261.79736,70.86062,262.00812,71.434456,262.65045C72.24694,263.54282,72.78596,263.9435,73.773834,263.9435C74.48828,263.9435,75.4375,263.73392,76.89472,263.34918C78.4807,262.9261,80.00318,262.6666,80.543015,262.6666C80.61545,262.6666,80.67019,262.67126,80.70502,262.68085C80.99988,262.80353,81.25891,263.51398,81.26709,264.31097C81.2887,266.40802,82.00873,267.07184,84.44269,267.17255C86.2475,267.27972,86.54236,267.40253,86.67682,268.24017C86.76593,268.7426,87.27698,269.49237,87.8681,269.86383C88.341095,270.1451,88.6135,270.28906,88.850235,270.28906C89.099335,270.28906,89.30894,270.1297,89.6712,269.80328C90.21124,269.29425,91.50848,268.98737,93.60381,268.79803C94.639755,268.71252,95.4827,268.66443,96.17022,268.66443C98.18086,268.66443,98.86237,269.0759,99.15496,270.16693C99.585556,271.8566,100.16681,272.3644,101.62723,272.3644C101.64941,272.3644,101.67179,272.36432,101.69438,272.36407C101.7023,272.36398,101.71025,272.36395,101.71825,272.36395C102.47228,272.36395,103.55002,272.72723,104.13573,273.17767C104.937805,273.81357,105.66655,273.97104,108.17911,273.97104C108.448654,273.97104,108.73872,273.96924,109.05162,273.966C109.53123,273.96106,109.952156,273.95746,110.32414,273.95746C112.7823,273.95746,113.10317,274.11514,114.0969,275.08856C114.73246,275.71124,115.4152,276.83685,115.54887,277.59048C115.76804,278.51102,116.40501,279.25943,117.79862,280.16788C118.89476,280.82703,119.86449,281.40372,119.99215,281.40372C119.9923,281.40372,119.99245,281.40372,119.99259,281.40372C119.99272,281.40372,119.99286,281.40372,119.99299,281.40372C120.11936,281.40372,120.5862,281.9856,120.97019,282.65213C121.43644,283.4555,122.33193,283.94302,123.06606,283.94302C123.47507,283.94302,123.833984,283.79172,124.04068,283.45938C124.16391,283.20645,125.08487,283.0292,126.04959,283.0192C126.092224,283.01877,126.13403,283.01852,126.17504,283.01852C127.58633,283.01852,128.0594,283.28925,129.29599,284.62173C130.30083,285.69824,130.72337,286.04517,131.4016,286.04517C131.6395,286.04517,131.90884,286.00247,132.24582,285.93362C133.83658,285.62357,136.83878,283.87283,136.83273,283.28555C136.82991,283.01257,136.99295,282.88446,137.2682,282.88446C137.83875,282.88446,138.89137,283.43484,139.94814,284.38602C140.86847,285.2103,141.29842,285.5541,141.6414,285.5541C141.85065,285.5541,142.02753,285.42615,142.26363,285.2012C142.72066,284.777,143.80855,284.5142,145.15071,284.50027C146.87032,284.48257,147.37196,284.3096,147.74251,283.63467C148.05035,283.07138,148.92332,282.7775,149.84407,282.7775C150.64731,282.7775,151.4869,283.00116,152.01936,283.46475C152.61177,283.96194,153.83028,284.1592,157.10304,284.25125C157.92616,284.26852,158.5933,284.28036,159.1395,284.28036C161.266,284.28036,161.55916,284.10068,162.08557,283.361C162.70605,282.51566,163.16656,282.42703,166.06061,282.39725C168.45178,282.41446,169.62787,282.57022,170.38849,283.1077C171.02824,283.53918,171.98622,283.76154,172.79617,283.76154C173.53706,283.76154,174.15408,283.57547,174.2904,283.19327C174.41321,282.89835,175.1643,282.5131,175.95947,282.33707C176.7547,282.16116,177.63159,281.7747,177.92169,281.43607C178.28325,281.00174,179.40953,280.78052,180.51782,280.78052C181.56877,280.78052,182.60355,280.97943,182.9548,281.38416C183.25186,281.71667,184.17935,282.16846,185.02078,282.4115C185.36893,282.50436,185.73877,282.55264,186.14557,282.55264C187.50824,282.55264,189.28564,282.01077,192.0511,280.7871C192.88995,280.41458,193.8007,280.23367,194.65952,280.23367C195.68175,280.23367,196.63039,280.49,197.29659,280.98462C197.88893,281.48206,199.36122,281.88635,200.83095,282.03894C201.54514,282.12073,202.06944,282.16965,202.48357,282.16965C203.43315,282.16965,203.8035,281.91235,204.55562,281.2036C205.38693,280.42563,206.85683,280.0039,208.20259,280.0039C209.27815,280.0039,210.27444,280.2733,210.80206,280.84546C211.26862,281.34412,212.36298,281.71033,213.91663,281.86206C215.21196,282.00095,216.08134,282.08347,216.727,282.08347C217.86052,282.08347,218.30443,281.82913,219.15295,281.17896C219.92163,280.62607,220.341,280.42984,221.65642,280.42984C222.26485,280.42984,223.06496,280.47183,224.18,280.53992C226.3208,280.68555,228.4223,281.08337,228.88664,281.3723C229.40298,281.73312,229.9334,281.91003,230.47449,281.91003C231.17314,281.91003,231.8896,281.61505,232.6165,281.04016C233.46474,280.37173,235.79597,279.9869,237.82903,279.9869C239.2864,279.9869,240.59058,280.18466,241.08543,280.61743C241.83528,281.26282,242.49713,281.5826,243.14247,281.5826C243.6991,281.5826,244.24342,281.3447,244.82133,280.87256C245.81975,280.0653,246.57304,279.88965,249.50858,279.8175C250.07246,279.80386,250.55154,279.79547,250.96089,279.79547C252.74344,279.79547,253.20358,279.95453,253.58475,280.53052C254.06818,281.20267,255.10306,281.55426,256.22293,281.55426C256.9762,281.55426,257.7679,281.3952,258.45615,281.06763C260.87717,279.91016,261.91837,279.18616,262.2889,278.51123C262.49478,278.1317,262.91116,277.83362,263.24667,277.8302C263.5403,277.82715,263.95578,277.44543,264.07687,276.9828C264.19797,276.52014,264.57156,276.1388,264.8652,276.13574C265.15878,276.1327,265.95132,275.70508,266.6168,275.15283C267.78214,274.26004,268.11722,274.21463,276.2121,274.13113C277.11823,274.12704,277.9315,274.12457,278.66275,274.12457C283.78775,274.12457,284.88574,274.24622,285.69897,274.78845C286.33234,275.20142,287.84662,275.60535,289.0647,275.7605C290.32428,275.8734,291.50256,276.23877,291.67334,276.53064C291.8446,276.86438,292.77118,277.23242,293.65332,277.34912C294.57776,277.50732,295.6311,277.958,296.01294,278.37354C296.3932,278.82858,297.0212,279.15665,297.35806,279.15665C297.35983,279.15665,297.36154,279.15665,297.36328,279.15662C297.36414,279.15662,297.365,279.15662,297.36584,279.15662C297.7056,279.15662,299.05154,279.85437,300.31525,280.67822C304.50186,283.5005,305.9792,284.4693,306.93588,284.4693C307.40775,284.4693,307.75296,284.23364,308.23413,283.8684C308.76782,283.4595,309.7347,283.24973,310.71896,283.24973C311.57675,283.24973,312.44772,283.4091,313.0566,283.73486C313.60495,284.02283,314.70407,284.85046,315.50876,285.5973C316.30106,286.33804,316.9686,286.74655,317.40753,286.74655C317.48483,286.74655,317.55502,286.7339,317.61758,286.70813C318.50922,286.32834,320.76627,286.0709,322.64932,286.0709C323.32407,286.0709,323.95078,286.10394,324.44943,286.17627C326.0878,286.411,326.34164,286.61816,326.73117,287.7887C327.0356,288.83423,327.3746,289.16626,328.2982,289.2406C328.41403,289.2523,328.52295,289.25815,328.62488,289.25815C329.188,289.25815,329.53876,289.07974,329.6771,288.72314C329.8812,288.17578,330.63492,288.0421,333.27725,288.0149C333.53436,288.01224,333.77347,288.01074,333.9963,288.01074C336.31802,288.01074,336.87222,288.17355,337.6069,288.89307C338.15775,289.43274,338.87766,290.09644,339.25778,290.34424C339.6622,290.67426,340.49103,290.84607,341.23495,290.84607C341.8917,290.84607,342.48227,290.7122,342.6564,290.43506C342.868,290.08615,343.3644,289.92856,344.02292,289.92856C345.67474,289.92856,348.34653,290.92032,350.10095,292.37183C350.41864,292.628,351.12796,292.75732,352.12042,292.75732C353.37448,292.75732,355.08054,292.5508,357.0197,292.1327C357.32358,292.0766,357.5901,292.046,357.82724,292.046C358.3417,292.046,358.71796,292.19012,359.0373,292.53137C359.41647,292.90283,359.96048,293.1896,360.29654,293.1896C360.29855,293.1896,360.3005,293.1896,360.3025,293.18958C360.30402,293.18954,360.30554,293.18954,360.3071,293.18954C360.5996,293.18954,360.93558,293.4783,361.1059,293.81042C361.23392,294.14157,361.77295,294.42722,362.31302,294.42722C362.31827,294.42722,362.3235,294.4272,362.32874,294.42712C362.91595,294.42102,363.58398,294.12048,363.87415,293.78198C364.2473,293.35864,365.16785,293.1394,366.97137,293.12085C367.08893,293.11963,367.20163,293.11902,367.30972,293.11902C369.12958,293.11902,369.64172,293.2987,370.0838,293.92773C370.3808,294.3839,370.84317,294.7554,371.17834,294.7554C371.17987,294.7554,371.1814,294.7554,371.18292,294.75537C371.18494,294.75534,371.18698,294.75534,371.189,294.75534C371.52258,294.75534,371.85803,295.044,372.02826,295.37585C372.1771,295.76736,372.5484,295.96274,373.06668,295.96274C373.59927,295.96274,374.28705,295.75644,375.04816,295.34473C375.71576,295.0022,377.1388,294.69397,378.2293,294.68274C378.29633,294.68204,378.36133,294.6817,378.42438,294.6817C379.82074,294.6817,380.2536,294.85678,380.46045,295.45667C380.69736,296.2388,381.92603,296.83237,382.99048,296.83237C383.29187,296.83237,383.58008,296.7848,383.8289,296.68045C384.28848,296.50784,386.13217,296.32104,387.89377,296.30286C388.32724,296.2915,388.70767,296.28522,389.04236,296.28522C390.74747,296.28522,391.2642,296.44846,391.5497,296.9363C391.89224,297.60403,392.81625,297.72037,397.9769,297.835C403.4316,297.98856,404.10355,298.06546,405.28738,298.9761C406.1621,299.60382,406.59326,299.81674,408.38776,299.81674C409.19415,299.81674,410.2758,299.77374,411.7967,299.7061C415.61224,299.54092,417.32922,299.2715,418.24677,298.7587C419.00092,298.3275,419.5494,298.0988,420.06723,298.0988C420.7807,298.0988,421.436,298.53296,422.49078,299.47C423.52185,300.4111,424.03372,300.83087,424.51794,300.83087C424.90872,300.83087,425.28146,300.5575,425.8946,300.06412C426.47705,299.5967,427.18616,299.21194,427.4798,299.2089C427.77338,299.20584,428.23175,298.9075,428.52185,298.56888C428.86234,298.14874,429.46115,297.96704,430.102,297.96704C431.33218,297.96704,432.71725,298.63663,432.72693,299.57425C432.72913,299.78397,433.19568,300.2825,433.74432,300.61246C434.12415,300.85522,434.5027,300.97754,434.8904,300.97754C435.62344,300.97754,436.38922,300.54034,437.258,299.65347C437.59015,299.31448,438.76233,299.09256,440.18835,299.0779C440.31912,299.07657,440.44327,299.0758,440.5613,299.0758C442.29846,299.0758,442.713,299.2418,443.4297,300.17703C443.94904,300.80524,444.31274,301.06622,444.8028,301.06622C444.99405,301.06622,445.2046,301.0265,445.4511,300.95328C446.07892,300.82083,446.57794,300.39627,446.57446,300.06082C446.57104,299.72525,446.81964,299.4291,447.11322,299.42606C447.4488,299.42264,448.032,299.03897,448.44675,298.5734C448.9687,297.98718,449.57486,297.6955,450.2374,297.6955C451.154,297.6955,452.1784,298.25378,453.23685,299.36295C454.2554,300.4337,455.1245,300.97333,455.85254,300.97333C456.36725,300.97333,456.81146,300.7036,457.18808,300.16116C457.80814,299.27383,460.31216,298.03165,461.57047,298.0186C461.5718,298.0186,461.57318,298.01855,461.57452,298.01855C461.99615,298.01855,462.96405,298.67798,463.76663,299.46414C464.67493,300.39847,465.33765,300.8539,465.987,300.8539C466.55002,300.8539,467.10303,300.51154,467.7974,299.84207C468.75302,298.95132,469.3384,298.7775,471.60336,298.75418C471.76666,298.7525,471.92093,298.75156,472.06693,298.75156C473.98337,298.75156,474.47488,298.9158,475.26315,299.76517C475.81213,300.34424,476.52606,300.7968,476.90485,300.7968C476.90646,300.7968,476.90808,300.7968,476.9097,300.79678C478.0002,300.78555,478.8763,300.31522,478.8702,299.72806C478.8644,299.1644,480.878,298.68472,482.71832,298.68472C483.20596,298.68472,483.68146,298.7184,484.10397,298.79312C484.90262,298.9528,485.74667,299.44742,486.0026,299.8643C486.30667,300.4152,486.99762,300.69147,487.70145,300.69147C488.38303,300.69147,489.07666,300.4324,489.44278,299.91275C489.93918,299.23636,494.32764,297.68106,495.79553,297.66592C495.7965,297.66592,495.7975,297.66592,495.79846,297.66592C496.13382,297.66592,496.59933,298.24686,496.85706,298.91348C497.2941,300.13754,498.3911,300.76004,499.7171,300.76004C500.8811,300.76004,502.2215,300.28036,503.44678,299.30692C504.2787,298.62723,505.15747,298.40848,507.00293,298.38943C507.22073,298.38718,507.41904,298.3855,507.6003,298.3855C509.4088,298.3855,509.5215,298.55444,510.3755,300.03262C510.98724,301.05682,511.92776,301.76505,512.4599,301.76505C512.7075,301.76505,512.8667,301.61166,512.86316,301.2653C512.86096,301.05557,513.48535,300.5878,514.2788,300.24405C515.0303,299.90067,515.8224,299.43118,515.9457,299.17813C516.11096,298.92484,517.4928,298.70084,519.12854,298.684C519.3792,298.6814,519.608,298.6798,519.81696,298.6798C521.8114,298.6798,522.00635,298.8257,522.2427,299.6586C522.37415,300.20255,522.9691,300.95145,523.5183,301.3234C523.9786,301.61682,524.24896,301.7709,524.45886,301.7709C524.69183,301.7709,524.85016,301.58102,525.11084,301.18106C525.92804,299.98752,528.9871,299.0639,531.0876,299.0639C531.961,299.0639,532.66864,299.2236,532.98047,299.59C533.27594,299.92072,533.7788,300.20782,534.07306,300.20782C534.0745,300.20782,534.07605,300.2078,534.0775,300.2078C534.0795,300.20776,534.08154,300.20776,534.08356,300.20776C534.416,300.20776,534.6676,300.4974,534.67114,300.83084C534.67456,301.1664,535.18225,301.5806,535.8126,301.69998C536.0467,301.75598,536.24805,301.7863,536.4292,301.7863C536.899,301.7863,537.2333,301.58246,537.6521,301.0939C538.27295,300.2903,538.775,300.15933,541.66907,300.12955C542.1308,300.1248,542.5282,300.1207,542.8716,300.1207C544.961,300.1207,545.0495,300.27228,545.4569,301.3489C545.71545,302.0175,546.43665,302.80704,547.0265,303.05264C547.4191,303.2263,547.6981,303.31827,547.94293,303.31827C548.27606,303.31827,548.54596,303.14792,548.95325,302.78104C549.7498,302.0525,551.1525,301.71243,552.6746,301.71243C554.96375,301.71243,557.5228,302.48163,558.696,303.85526C559.3304,304.6115,559.67694,304.9107,560.02466,304.9107C560.2123,304.9107,560.40027,304.8236,560.634,304.67422C561.0927,304.41776,562.6407,304.02432,564.0651,303.84183C564.8242,303.7511,565.39246,303.69876,565.87054,303.69876C566.8437,303.69876,567.44324,303.91562,568.51776,304.46707C569.4881,305.00235,570.419,305.78983,570.50726,306.2084C570.69604,306.7915,571.1036,306.9261,573.62317,306.9261C573.9935,306.9261,574.4095,306.9232,574.87714,306.91837C575.3892,306.9131,575.85724,306.90985,576.2854,306.90985C580.2758,306.90985,580.80536,307.19174,581.3138,308.73965C581.69214,309.89157,581.9873,310.3244,582.83887,310.3244C583.2544,310.3244,583.8024,310.22134,584.5572,310.0485C585.1573,309.90195,585.83484,309.8313,586.6541,309.8313C587.5484,309.8313,588.6115,309.9155,589.9267,310.07706C593.4135,310.58646,593.53986,310.62723,593.8035,311.79898C594.11346,313.3898,594.3665,313.51297,597.68134,313.60464C599.1916,313.631,600.872,313.8654,601.37787,314.11185C601.87775,314.39664,602.66296,314.59668,603.16724,314.59668C603.1737,314.59668,603.1802,314.59665,603.1866,314.5966C603.1913,314.59653,603.19604,314.59653,603.2007,314.59653C603.7805,314.59653,604.1995,314.97037,604.4993,315.79947C604.93085,316.96964,604.9733,317.01114,609.0866,317.26236C611.6889,317.40335,613.41144,317.67923,613.5827,318.0131C613.79535,318.30447,614.2603,318.63528,614.68146,318.7986C615.1445,318.96182,615.4018,319.5043,615.4096,320.25928C615.4216,321.42365,615.9102,322.1793,616.416,322.1793C616.6572,322.1793,616.9024,322.00748,617.1016,321.62622C617.40106,321.01157,618.238,320.6984,619.0561,320.6984C619.80927,320.6984,620.5465,320.96384,620.83356,321.50378C621.08954,321.92053,621.93353,322.41528,622.73175,322.53284C623.9926,322.7716,624.2889,323.02014,624.6801,324.3584C624.8985,325.1952,625.1186,326.1996,625.1215,326.4933C625.1243,326.762,625.1615,326.88684,625.2524,326.88684C625.3317,326.88684,625.452,326.79166,625.62616,326.6139C625.9882,326.24432,627.30743,326.06186,628.6438,326.06186C630.0654,326.06186,631.5065,326.26837,631.835,326.67578C632.132,327.0083,632.97565,327.46094,633.69037,327.62146C634.742,327.90417,635.03864,328.1947,635.133,329.20044C635.2866,330.38733,635.50916,330.8482,636.3055,330.8482C636.68964,330.8482,637.20734,330.74094,637.91534,330.55615C638.66394,330.36078,639.1752,330.26114,639.56757,330.26114C639.96454,330.26114,640.23987,330.36316,640.51624,330.5713C640.8551,330.90332,641.86536,331.22852,642.7053,331.3457C644.176,331.58215,644.26074,331.66528,644.489,333.46655C644.65216,334.8765,644.80444,335.23383,645.3317,335.23383C645.39984,335.23383,645.4743,335.22784,645.5558,335.2174C646.01624,335.12878,647.52527,335.0293,648.90906,334.97314C649.283,334.95462,649.60834,334.94427,649.896,334.94427C651.2529,334.94427,651.7718,335.1742,652.6095,335.8578C653.2446,336.43848,653.7562,337.23022,653.76,337.60767C653.77075,338.64676,655.3462,339.62854,657.0888,339.62854C657.1047,339.62854,657.12067,339.62845,657.1366,339.6283C657.1479,339.62817,657.1593,339.6281,657.1707,339.6281C657.9657,339.6281,659.07745,339.90665,659.65967,340.23157C660.25024,340.56104,661.00916,340.9308,661.3883,341.0946C661.7672,341.21655,662.27783,341.92432,662.4949,342.63525C662.7941,343.62778,662.88916,343.88467,663.839,343.88467C664.12976,343.88467,664.5007,343.8606,664.98206,343.82617C665.3466,343.79282,665.665,343.77618,665.94366,343.77618C666.85034,343.77618,667.3373,343.9523,667.6295,344.30225C667.9673,344.67426,668.4288,344.96207,668.7226,344.96207C668.7241,344.96207,668.7256,344.96204,668.72705,344.96204C668.72815,344.96204,668.72925,344.962,668.73035,344.962C669.0647,344.962,669.40424,345.50253,669.5785,346.16968C669.9303,347.76,670.4375,348.13232,672.62244,348.48743C674.26086,348.72217,674.5571,348.97083,675.9645,351.22144C677.191,353.12326,677.74286,353.6694,678.57074,353.6694C678.5773,353.6694,678.58386,353.66937,678.59045,353.6693C678.59485,353.66928,678.5992,353.66925,678.6036,353.66925C679.8201,353.66925,681.6725,355.40573,682.27625,357.19678C682.6221,358.19983,683.00256,358.48962,684.1786,358.64526C685.229,358.80225,685.7777,359.1322,686.1633,359.92517C686.5062,360.63477,687.3937,361.25476,688.699,361.74487C689.8357,362.15247,691.0171,362.8115,691.3568,363.2274C691.6968,363.6434,692.53955,364.01218,693.2114,364.0892C694.177,364.16318,694.516,364.4952,694.9055,365.66574C695.2596,366.7258,695.4375,367.02988,696.1326,367.02988C696.2873,367.02988,696.4675,367.01483,696.681,366.98972C696.82886,366.97177,696.96545,366.96198,697.0917,366.96198C698.25323,366.96198,698.5349,367.79065,698.56494,370.7037C698.59424,373.55576,697.4752,374.86752,694.87476,374.89438C694.8552,374.8946,694.83563,374.89468,694.816,374.89468C693.7781,374.89468,692.51355,374.61884,692.01624,374.29465C691.5515,373.96384,690.37317,373.59848,689.40674,373.44064C688.4823,373.28244,687.4718,372.91525,687.21704,372.62424C686.9624,372.33322,686.0773,371.92294,685.1952,371.80612C684.3546,371.64706,683.2174,371.19724,682.626,370.7839C682.0348,370.41257,680.8557,369.96335,680.01514,369.80405C679.13293,369.68735,678.4169,369.4011,678.4148,369.19138C678.4126,368.98166,677.6957,368.61154,676.8546,368.4105C675.9713,368.16794,674.4972,367.5958,673.5698,367.144C672.6906,366.69495,671.5641,366.3311,671.05536,366.3311C671.05176,366.3311,671.0481,366.33112,671.04456,366.33115C671.0416,366.33118,671.03864,366.33118,671.03564,366.33118C670.5714,366.33118,669.65204,365.96484,668.93884,365.5139C668.26807,365.06274,667.2677,364.69778,666.7196,364.69778C666.7154,364.69778,666.7113,364.6978,666.70715,364.69785C666.7036,364.69788,666.7,364.6979,666.69635,364.6979C666.18774,364.6979,665.0615,364.33405,664.2239,363.8845C663.3455,363.43588,662.1792,363.07278,661.58734,363.07278C661.5825,363.07278,661.57776,363.07278,661.573,363.07285C661.56757,363.0729,661.5621,363.07294,661.5565,363.07294C660.9648,363.07294,659.8424,362.7509,659.0481,362.302C658.24695,361.89075,656.6483,361.4458,655.51416,361.28967C654.38,361.13367,653.03345,360.72803,652.52673,360.39758C652.02,360.06726,650.67395,359.7036,649.54016,359.58948C648.406,359.43335,647.05994,359.06982,646.5536,358.78125C646.0469,358.45105,644.40686,358.04846,642.89465,357.85425C641.42444,357.65967,639.7421,357.21558,639.2354,356.88525C638.6867,356.5553,637.1309,356.19373,635.7869,356.03992C634.44354,355.92786,632.92926,355.52393,632.4229,355.2356C631.9161,354.90515,630.27606,354.5027,628.76447,354.35046C627.2531,354.2401,625.73895,353.8363,625.358,353.50476C624.9351,353.17346,623.54706,352.8103,622.2037,352.69824C620.8183,352.58667,619.2625,352.22522,618.7138,351.89526C618.207,351.56482,616.5246,351.12085,615.0544,350.92627C613.5423,350.73206,611.9018,350.28748,611.3531,349.95764C610.71954,349.5448,608.8287,349.22864,606.0169,349.08972C603.163,348.95142,601.31415,348.6349,600.63873,348.2223C599.92096,347.76843,598.19904,347.57642,594.4649,347.489C591.6115,347.39258,589.2607,347.20703,589.2585,346.9973C589.2515,346.31863,586.24445,345.86084,581.8315,345.86084C581.60815,345.86084,581.3812,345.862,581.15094,345.86438C580.83887,345.86758,580.53876,345.86923,580.2505,345.86923C577.4391,345.86923,575.75195,345.7133,575.0633,345.33984C573.8896,344.76807,567.13074,344.4126,557.3566,344.4126C555.8956,344.4126,554.3673,344.42053,552.78015,344.4369C551.79047,344.44708,550.89056,344.4524,550.0713,344.4524C545.57825,344.4524,543.51117,344.29343,542.37195,343.91492C541.60547,343.65445,541.12476,343.5231,540.71484,343.5231C540.2919,343.5231,539.9443,343.663,539.4359,343.9452C538.51794,344.41602,535.751,344.57043,525.85254,344.67236C514.06665,344.79382,513.3541,344.84314,511.8109,345.698C510.80994,346.25354,509.4292,346.6034,508.08704,346.6173C504.81555,346.651,499.03528,347.46558,498.4533,347.97498C498.16217,348.22974,496.2359,348.5432,494.18243,348.73206C492.08655,348.87952,490.0773,349.2777,489.5355,349.6189C488.99362,349.96008,487.1102,350.35693,485.34988,350.50098C483.3384,350.68945,481.83145,350.99854,481.37442,351.42273C480.9174,351.84692,479.36893,352.1985,476.8961,352.39172C474.67484,352.58252,472.91672,352.93616,472.4592,353.31836C472.00174,353.70056,470.28513,354.01196,467.39236,354.1676C464.0806,354.3695,462.8665,354.59167,462.5361,355.09863C462.16385,355.6057,460.90768,355.8285,457.09305,356.0775C453.61362,356.28113,451.8965,356.55054,451.43948,356.9746C450.64038,357.66824,443.3716,358.3122,436.73718,358.3122C436.46786,358.3122,436.19962,358.31113,435.93286,358.30896C435.8535,358.3088,435.77527,358.30872,435.6982,358.30872C432.47644,358.30872,431.25476,358.45377,430.2771,358.99646C428.5254,359.97925,418.46222,360.3766,393.92416,360.46155C387.40036,360.49457,382.56668,360.5164,378.97775,360.5164C369.3678,360.5164,368.68277,360.36002,368.37204,359.844C368.20984,359.6061,368.06784,359.48206,367.82852,359.48206C367.56503,359.48206,367.18362,359.63245,366.52744,359.9469C365.6514,360.41748,364.01822,360.6859,362.34058,360.70313C360.20148,360.72522,359.40674,360.9431,358.49133,361.66565C357.85617,362.16476,357.52176,362.38608,356.9454,362.38608C356.5401,362.38608,356.01514,362.2766,355.18176,362.0774C354.0039,361.7539,351.8203,361.52466,350.30994,361.4983C350.05933,361.497,349.83173,361.49588,349.62476,361.49588C347.57983,361.49588,347.54596,361.60825,347.1776,362.8309C346.93378,363.58847,346.10828,364.8973,345.36243,365.78598C344.5746,366.6749,343.83173,367.85715,343.66998,368.446C343.50952,369.16074,343.01013,369.5433,342.13153,369.76218C341.4198,369.89536,340.12775,370.70566,339.25604,371.59555C338.4259,372.44308,337.00885,373.33847,336.08832,373.5577C335.21008,373.81857,334.5014,374.24533,334.50446,374.5389C334.5083,374.91635,333.08575,375.26657,329.94354,375.6346C327.42993,375.95407,324.83386,376.40036,324.08142,376.65964C323.52045,376.859,322.9512,376.96988,321.84103,376.96988C320.3044,376.96988,317.7315,376.7575,312.70993,376.27353C309.3444,375.9326,306.1909,375.76605,303.64853,375.76605C300.5129,375.76605,298.30692,376.01935,297.7792,376.5112C297.28018,376.93588,295.858,377.3281,294.13968,377.47153C292.54764,377.65585,290.4976,378.18027,289.49576,378.65195C288.55667,379.1527,287.41147,379.4514,286.54907,379.4514C286.45367,379.4514,286.36172,379.44772,286.2739,379.44028L284.8466,379.32907L284.77524,376.4775C284.75925,374.92563,284.49203,373.4183,284.28018,373.2108C284.1263,373.06006,283.8437,372.9884,283.39297,372.9884C282.8506,372.9884,282.06482,373.09216,280.96713,373.2867C276.47244,374.11182,273.2303,374.4867,270.359,374.4867C269.67313,374.4867,269.00842,374.4653,268.35284,374.42355L264.86902,374.20773L264.85645,372.99142C264.84912,372.2784,265.25946,371.39316,265.84106,370.842C266.38068,370.2911,266.9168,369.40463,267.03748,368.9C267.17526,368.29388,267.1785,368.0648,266.9099,368.0648C266.78732,368.0648,266.60803,368.11252,266.35907,368.19394C265.85706,368.32492,264.6853,368.58884,263.7638,368.72397C263.42706,368.76492,263.1487,368.79065,262.9025,368.79065C262.046,368.79065,261.57843,368.47946,260.39453,367.41647C259.34622,366.489,258.75873,366.119,258.1382,366.119C257.98196,366.119,257.82364,366.14246,257.65533,366.18637C257.0699,366.36008,253.0456,366.6113,248.64288,366.78256C246.58638,366.8621,244.834,366.90298,243.2586,366.90298C240.30495,366.90298,237.97343,366.75928,235.42622,366.45724C231.86453,366.05392,225.86835,365.90002,210.39941,365.90002C208.17606,365.90002,205.757,365.9032,203.12137,365.90927C183.1126,365.90573,175.26723,365.7769,172.91414,365.38162C171.19142,365.10587,168.00038,364.80313,165.9028,364.78275C165.22089,364.76572,164.65407,364.7552,164.17802,364.7552C162.16435,364.7552,161.77513,364.9438,161.17154,365.62857C160.67337,366.137,160.13248,366.56204,159.92276,366.56424C159.67111,366.5668,159.50546,366.77823,159.50809,367.02982C159.51584,367.78482,157.02133,369.94986,156.14053,369.9589C155.7211,369.9633,154.97006,370.34842,154.51346,370.8146C154.05685,371.28067,153.51541,371.66385,153.34763,371.66556C153.13791,371.66776,152.59744,372.13467,152.10025,372.7272C151.60294,373.3195,150.93661,373.78775,150.64304,373.7908C150.30753,373.79422,149.72415,374.17776,149.30948,374.64346C148.8118,375.19388,148.01791,375.49576,147.05325,375.50565C146.21439,375.5143,144.75076,375.94888,143.87466,376.41934C142.24802,377.31693,141.74466,377.32217,127.357956,377.4285C123.93043,377.4536,121.29182,377.47058,119.24651,377.47058C112.88205,377.47058,112.26263,377.30618,111.49456,376.71097C110.76629,376.1545,110.233315,375.87003,109.886444,375.87003C109.40771,375.87003,109.28347,376.41193,109.489555,377.5286C109.713066,378.86868,109.633965,379.33096,108.92834,380.0513C108.3548,380.63675,107.82933,380.91425,107.139824,380.91425C106.581726,380.91425,105.91616,380.73245,105.03064,380.38504C104.27228,380.05728,102.422485,379.6569,100.99469,379.5038C99.56732,379.3926,98.178894,378.98746,97.924255,378.69644C97.67107,378.36615,97.129845,378.12143,96.75268,378.12143C96.7497,378.12143,96.746735,378.12146,96.743774,378.1215C95.73719,378.13187,93.49824,380.67166,93.17774,382.1431C92.737564,384.20306,91.625015,386.14423,90.82814,386.1524C90.82456,386.15244,90.82098,386.15247,90.81738,386.15247C89.72678,386.15247,88.08311,384.4558,87.77497,382.9539C87.33881,381.0825,85.33176,379.51743,83.41334,379.51743C83.401245,379.51743,83.38916,379.5175,83.37708,379.5176C82.537796,379.48428,81.360855,379.24478,80.77016,378.9152C80.08468,378.5299,79.37069,378.33807,78.78836,378.33807C78.187874,378.33807,77.727394,378.54205,77.582535,378.94815C77.37758,379.41153,76.666275,379.5867,74.86275,379.60538C72.8495,379.62613,72.305984,379.79947,71.89345,380.47488C71.43898,381.15067,70.93739,381.32364,68.840294,381.34525C66.281334,381.32962,64.89077,380.71475,64.33041,379.25235C64.1155,378.75125,63.274498,378.5502,61.049828,378.40543C58.615383,378.2626,57.942165,378.05972,57.431057,377.3101C57.091885,376.85355,56.544773,376.44095,56.292023,376.44095C56.291206,376.44095,56.29039,376.44095,56.289577,376.44095C56.288544,376.44095,56.287506,376.44098,56.28646,376.44098C55.991833,376.44098,55.40295,376.02878,54.979824,375.53152L54.17337,374.6171L53.84738,375.54324C53.561554,376.3013,53.18582,376.47293,51.801727,376.4871C51.731155,376.48782,51.663456,376.48822,51.59852,376.48822C50.351208,376.48822,50.122345,376.3433,50.115326,375.66556C50.110565,375.20425,50.44095,374.69754,50.858673,374.5253C51.652496,374.22354,52.110016,373.84134,54.14572,371.93277C54.8934,371.21194,55.51388,370.3666,55.510403,370.03104C55.506557,369.6536,56.090237,369.31192,57.011257,369.13467C57.806423,368.95877,58.55752,368.5734,58.679897,368.23672C58.80264,367.94168,59.5538,367.55643,60.34933,367.4224C61.102623,367.24686,61.93624,366.73502,62.183617,366.3129C62.430504,365.8489,62.929955,365.46634,63.265465,365.4628C63.642967,365.4589,64.394066,365.07376,65.018394,364.60587C65.84603,363.9216,66.52845,363.7661,68.667595,363.7661C68.78607,363.7661,68.90902,363.7666,69.036705,363.7675C69.38382,363.77713,69.73219,363.7818,70.08017,363.7818C74.14885,363.7818,78.16458,363.14246,79.5085,362.3173C80.21718,361.8904,81.09407,361.50394,81.42964,361.50052C81.80708,361.4966,83.05763,360.72867,84.306404,359.79288C85.63819,358.7725,86.97346,358.08755,87.68647,358.08023C88.31562,358.07376,89.06751,357.77237,89.35725,357.39188C89.68934,357.0529,90.52259,356.49893,91.31599,356.15518C92.35981,355.683,92.691475,355.30215,92.683235,354.50516C92.6742,353.62442,92.378,353.37576,91.0315,352.97012C90.44592,352.81192,90.019844,352.72354,89.625656,352.72354C89.11376,352.72354,88.65565,352.8726,87.97187,353.21133C87.22993,353.56854,86.78379,353.74146,86.23095,353.74146C85.78852,353.74146,85.27776,353.6307,84.49238,353.41507C83.66314,353.17102,82.96091,353.05133,82.17915,353.05133C81.53295,353.05133,80.83241,353.13312,79.96089,353.29398C79.06353,353.42865,78.16551,353.50082,77.1993,353.50082C76.22637,353.50082,75.184296,353.42764,74.004105,353.2714C72.19721,353.00946,69.4714,352.8335,67.769035,352.8335C67.690384,352.8335,67.613914,352.83386,67.53982,352.83463C67.41018,352.83597,67.284386,352.83664,67.16236,352.83664C65.270836,352.83664,64.28278,352.67252,63.8843,352.2432C63.50338,351.9114,62.744102,351.4998,62.11367,351.38052C61.483177,351.26114,60.22018,350.81277,59.25076,350.36136C58.29136,349.95587,57.00342,349.59488,56.28597,349.59488C56.278793,349.59488,56.271675,349.59494,56.264614,349.595C56.25758,349.59506,56.250515,349.59512,56.243423,349.59512C55.57416,349.59512,54.662437,349.27124,54.201263,348.81937C53.735565,348.4047,52.89151,347.91006,52.30252,347.74832C49.9888,347.10098,46.61826,345.6675,46.31992,345.20926C46.150604,344.9199,45.651848,344.67514,45.234566,344.67514C45.23097,344.67514,45.227375,344.67517,45.22379,344.6752C45.221382,344.67523,45.21896,344.67523,45.216526,344.67523C44.79469,344.67523,43.958244,344.30807,43.369724,343.85538C42.77978,343.4016,42.1074,343.03214,41.85372,343.03214C41.852844,343.03214,41.851974,343.03214,41.85111,343.03214C41.850708,343.03214,41.850307,343.03214,41.849903,343.03214C41.55385,343.03214,40.20175,341.91467,38.763344,340.54715C37.324196,339.17868,35.971283,338.0607,35.801815,338.0607C35.801685,338.0607,35.80156,338.0607,35.80143,338.0607C35.800972,338.0607,35.800514,338.0607,35.800056,338.0607C35.63271,338.0607,35.46249,337.72775,35.458595,337.35123C35.451283,336.63916,32.70374,333.90543,31.986244,333.90543C31.985287,333.90543,31.984331,333.90543,31.98338,333.90543C31.983261,333.90543,31.983143,333.90543,31.983027,333.90543C31.815401,333.90543,31.635345,332.6915,31.619793,331.18256C31.590435,328.3305,31.461956,328.08026,29.010298,326.2597C28.212755,325.70248,27.876425,325.50262,25.827751,325.50262C24.837496,325.50262,23.447168,325.54932,21.411303,325.62494C20.44218,325.6547,19.645552,325.67105,18.981773,325.67105C16.830841,325.67105,16.074894,325.49954,15.365103,325.05804C14.859808,324.72864,14.506113,324.57474,14.14084,324.57474C13.8650675,324.57474,13.582695,324.66245,13.223503,324.82855C12.6807785,325.08575,11.760186,325.305,11.173028,325.31097C11.14165,325.3113,11.111203,325.3115,11.081663,325.3115C10.202976,325.3115,10.126779,325.1497,10.234308,323.76862C10.341974,322.00568,9.75091,321.63434,6.856441,321.62225C5.6815763,321.59235,4.966428,321.39008,4.836301,320.97186C4.5264087,320.20337,2.9820268,319.42084,2.0356517,319.42084C1.7987951,319.42084,1.5993971,319.46985,1.4661857,319.58038C1.1634876,319.83066,0.7737416,319.9458,0.38795277,319.9458C-0.33942285,319.9458,-1.0527319,319.53653,-1.1420281,318.85223C-1.367736,317.30255,-2.335875,316.977,-7.624568,316.65387C-10.478814,316.47357,-13.629264,316.04462,-14.680808,315.7619C-15.73284,315.43707,-19.00829,315.09332,-21.94597,314.95575C-25.009476,314.81964,-27.949385,314.47235,-28.749739,314.14508C-29.550093,313.8177,-32.742077,313.4311,-35.973335,313.2967C-39.163155,313.1198,-42.186924,312.77338,-42.650883,312.52655C-43.11484,312.2796,-45.048496,311.88007,-46.980442,311.64838C-48.912415,311.41644,-50.88846,310.97552,-51.395233,310.64508C-51.85962,310.35626,-53.121796,309.99164,-54.17209,309.83478C-57.91061,309.32794,-62.59948,306.14642,-62.62023,304.13312C-62.634483,302.74896,-61.73033,300.93594,-60.85256,300.63333C-60.4764,300.50357,-60.144306,300.16458,-60.147755,299.82913C-60.151203,299.49356,-59.4836,299.15103,-58.52062,298.97342C-57.59963,298.79605,-56.638874,298.4086,-56.348713,298.06998C-55.976006,297.6049,-54.50927,297.4639,-49.728268,297.3726C-42.808167,297.25943,-38.86948,296.84122,-38.456944,296.16592C-38.29175,295.91238,-37.246677,295.5662,-36.07401,295.38626C-34.94373,295.16483,-33.438545,294.68802,-32.729866,294.26126C-32.063515,293.79288,-31.102303,293.44742,-30.682869,293.44302C-29.885965,293.43484,-26.926647,291.60062,-26.055767,290.62686C-25.579168,290.05914,-22.096779,289.46036,-19.370062,289.46036C-19.252064,289.46036,-19.135479,289.4615,-19.020617,289.46378C-17.930162,289.45255,-17.051105,289.2758,-17.053272,289.06607C-17.055912,288.80997,-16.655582,288.68002,-16.222258,288.68002C-15.803795,288.68002,-15.35456,288.8012,-15.207753,289.04703C-15.071394,289.25443,-13.599733,289.34198,-11.727842,289.34198C-8.335406,289.34198,-3.6284344,289.05438,-3.1728492,288.6713C-2.84033,288.3743,-1.7537218,287.9855,-0.7496943,287.72354C0.21282944,287.5038,1.3405142,287.0308,1.7560412,286.64896C2.1715682,286.26724,2.9235208,285.96585,3.5106785,285.95987C4.055539,285.91226,5.268856,285.6061,6.188106,285.26102C7.1069283,284.87405,8.863824,284.39444,10.120354,284.21378C12.716482,283.7676,13.340872,283.2997,12.743338,282.2991C12.486503,281.79837,11.728873,281.55447,10.301994,281.48526C5.5598717,281.28262,0.14025868,280.45743,-1.5037831,279.6774C-2.3401613,279.27002,-2.88402,279.0852,-3.3356934,279.0852C-3.6125588,279.0852,-3.8547866,279.15466,-4.1085176,279.28482C-4.6065097,279.56464,-5.000069,279.71268,-5.3396955,279.71268C-5.8817787,279.71268,-6.286463,279.33554,-6.7590895,278.51517C-7.363241,277.4536,-7.659946,277.28375,-9.238499,277.28375C-9.334274,277.28375,-9.434769,277.28436,-9.540338,277.28546C-9.5809145,277.2859,-9.621086,277.2861,-9.660857,277.2861C-11.0187845,277.2861,-11.909716,277.0426,-12.52642,276.51923C-13.118765,276.02203,-14.717397,275.57697,-17.111958,275.22418C-19.128222,274.95135,-21.146225,274.51068,-21.611038,274.17987C-22.109722,273.85483,-23.510426,273.69138,-25.023811,273.69138C-26.586401,273.69138,-28.26912,273.86563,-29.203104,274.21625C-29.656153,274.38846,-30.123703,274.47885,-30.527885,274.47885C-30.831957,274.47885,-31.100164,274.42767,-31.299355,274.32172C-32.01447,273.99197,-34.668087,273.81592,-38.513214,273.81592C-38.97399,273.81592,-39.451878,273.81845,-39.94559,273.82355C-40.06965,273.82483,-40.187912,273.8255,-40.30061,273.8255C-41.902515,273.8255,-42.379887,273.68964,-42.384735,273.21942C-42.38861,272.84186,-42.812378,272.42682,-43.359802,272.22272C-43.907196,272.01862,-44.583008,271.56415,-44.880524,271.18976C-45.175632,270.81824,-45.841396,270.5332,-46.30241,270.5332C-46.30612,270.5332,-46.30982,270.53323,-46.313503,270.53326C-46.315907,270.5333,-46.31832,270.5333,-46.320744,270.5333C-46.783215,270.5333,-47.579376,270.082,-48.127834,269.50336C-48.67575,268.92538,-49.512386,268.4746,-50.057915,268.4746C-50.061283,268.4746,-50.064644,268.47464,-50.06799,268.47467C-50.07724,268.47476,-50.08653,268.47482,-50.09585,268.47482C-50.635967,268.47482,-51.291054,268.3159,-51.58181,268.11273C-51.67801,268.06586,-51.83196,268.0435,-52.02812,268.0435C-52.51971,268.0435,-53.27638,268.18402,-54.0534,268.43182C-54.842438,268.7075,-55.843266,268.82974,-56.90583,268.82974C-60.00837,268.82974,-63.63722,267.78757,-64.0569,266.47955C-64.229416,266.01996,-64.821365,265.5645,-65.4518,265.44513C-67.51131,265.04694,-67.63844,264.92242,-67.65184,263.62213C-67.66005,262.82526,-67.9601,262.19916,-68.508835,261.8692C-69.64863,261.1679,-69.68104,258.02228,-68.5663,256.29083C-68.11229,255.57306,-67.74477,254.60455,-67.74953,254.14313C-67.754684,253.63983,-66.84578,252.28827,-65.725845,251.06024C-64.0663,249.28131,-63.441086,248.8974,-62.30864,248.8858C-61.511703,248.8775,-60.21538,248.48663,-59.42281,248.0589C-58.332176,247.42935,-57.029552,247.1201,-55.754135,247.1201C-54.34752,247.1201,-52.973995,247.49625,-51.95443,248.2337C-50.34808,249.43365,-49.88284,249.80634,-47.894222,251.46368C-47.219635,252.04182,-46.42144,252.49373,-46.083683,252.49373C-46.082413,252.49373,-46.08115,252.49373,-46.07989,252.49371C-46.07835,252.4937,-46.0768,252.49368,-46.075245,252.49368C-45.73739,252.49368,-44.982788,252.86201,-44.393555,253.31525C-43.56548,253.93275,-42.778454,254.11275,-40.599785,254.11275C-40.442852,254.11275,-40.278694,254.11182,-40.10678,254.11005C-40.043716,254.10939,-39.98048,254.10907,-39.917103,254.10907C-37.95721,254.10907,-35.857628,254.41753,-34.268105,254.88885C-32.812122,255.32996,-30.987974,255.68538,-30.17666,255.68538C-30.167336,255.68538,-30.158144,255.68533,-30.149088,255.68524C-30.140236,255.68515,-30.13131,255.6851,-30.122309,255.6851C-29.27834,255.6851,-27.784414,256.08527,-26.700726,256.5307C-24.846174,257.3924,-19.84984,257.8443,-10.661003,258.08514C-10.45131,258.09232,-10.234025,258.09576,-10.010446,258.09576C-6.2073274,258.09576,-0.58295107,257.09344,0.47802702,256.25067C1.1019889,255.7409,2.0627427,255.35333,2.6080303,255.34772C3.2791114,255.34076,3.7374852,255.04254,3.8576632,254.49603C4.018552,253.82318,4.436215,253.65106,5.9042315,253.63593C7.1624703,253.62299,7.9987736,253.36261,8.538385,252.8117C8.953485,252.388,9.703301,251.87689,10.204887,251.70404C10.7068405,251.57294,11.081352,251.27545,11.079155,251.06573C11.07354,250.52045,15.247914,248.54791,17.383104,248.1485C18.429552,247.92792,19.766954,247.4527,20.308273,247.06964C20.974167,246.55939,22.18834,246.33722,24.285505,246.31561L27.263409,246.28485 Z"/> </g> </g> </svg>