<?xml version="1.0" standalone="no"?>
<!DOCTYPE svg PUBLIC "-//W3C//DTD SVG 20010904//EN"
 "http://www.w3.org/TR/2001/REC-SVG-20010904/DTD/svg10.dtd">
<svg version="1.0" xmlns="http://www.w3.org/2000/svg"
 width="1920.000000pt" height="1058.000000pt" viewBox="0 0 1920.000000 1058.000000"
 preserveAspectRatio="xMidYMid meet">

<g transform="translate(0.000000,1058.000000) scale(0.100000,-0.100000)"
fill="#000000" stroke="none">
<path d="M0 5290 l0 -5290 9600 0 9600 0 0 5290 0 5290 -9600 0 -9600 0 0
-5290z m17746 3698 c399 -673 538 -1422 393 -2122 -51 -246 -115 -427 -234
-671 -124 -252 -266 -462 -471 -695 -315 -358 -769 -708 -1198 -922 -168 -83
-193 -110 -230 -246 -37 -134 -135 -342 -234 -497 -107 -167 -352 -367 -587
-480 -72 -34 -807 -338 -865 -357 -10 -3 -19 5 -26 26 -20 58 -84 66 -112 15
-10 -19 -12 -196 -11 -874 2 -604 -1 -858 -9 -877 -17 -42 -140 -127 -214
-149 l-28 -8 0 99 c0 91 -2 100 -22 114 -31 22 -51 20 -75 -6 -18 -19 -22 -38
-25 -120 l-3 -98 -126 0 -126 0 -7 46 c-3 26 -6 74 -6 108 0 80 -16 110 -58
114 -57 6 -62 -6 -62 -145 l0 -125 -82 7 c-46 4 -101 10 -123 14 l-40 6 -5
123 c-5 129 -10 142 -55 142 -46 0 -65 -37 -65 -127 0 -100 -4 -102 -91 -62
-94 42 -126 64 -143 97 -15 30 -16 60 -45 1087 -11 430 -20 627 -29 641 -15
28 -36 36 -66 24 -41 -15 -47 -41 -44 -176 3 -120 2 -127 -17 -129 -355 -48
-1349 -69 -1885 -40 -146 8 -277 15 -292 15 l-28 0 0 146 c0 81 -5 154 -10
165 -13 23 -62 26 -83 4 -17 -16 -22 -182 -33 -1055 -3 -272 -9 -531 -13 -575
l-6 -80 -50 -32 c-52 -34 -178 -103 -189 -103 -3 0 -6 37 -6 82 0 88 -14 118
-54 118 -49 -1 -63 -32 -68 -148 -2 -71 -6 -93 -18 -97 -32 -10 -158 -25 -212
-25 l-58 0 0 107 c0 117 -11 143 -58 143 -51 0 -62 -23 -62 -136 l0 -102 -50
-7 c-28 -4 -87 -4 -130 0 l-80 7 0 113 c0 124 -8 145 -57 145 -48 0 -63 -25
-63 -104 0 -39 -3 -88 -6 -109 -6 -32 -10 -37 -33 -37 -45 1 -108 36 -135 77
-36 53 -73 169 -87 266 -11 84 -8 360 11 1022 13 437 13 618 -2 633 -21 21
-65 14 -87 -14 -12 -15 -21 -33 -21 -41 0 -9 -8 -12 -22 -8 -13 3 -66 14 -118
25 -266 57 -618 166 -913 282 -98 38 -177 71 -175 73 2 1 50 35 108 76 366
254 573 499 663 785 54 170 57 304 11 483 -111 429 -527 810 -1089 997 -77 25
-142 48 -144 50 -5 5 338 174 484 239 323 143 784 309 1056 380 359 93 962
195 1419 240 36 3 81 8 100 10 19 3 139 12 265 22 407 30 1383 18 1725 -22 19
-2 67 -6 105 -10 560 -49 1261 -188 1730 -342 475 -156 792 -307 1261 -605 94
-59 180 -108 192 -108 68 0 644 535 905 841 337 395 605 791 812 1199 250 496
408 922 520 1405 l7 30 20 -25 c11 -14 49 -73 84 -132z m-272 -15 c-16 -69
-93 -332 -107 -363 l-14 -35 -43 135 c-24 74 -43 137 -43 140 0 7 196 149 206
150 4 0 4 -12 1 -27z m-283 -824 c-71 -173 -84 -199 -92 -199 -12 0 -11 211 0
229 11 17 125 79 129 70 1 -3 -15 -48 -37 -100z m-286 -575 c-35 -84 -228
-388 -281 -444 -12 -12 -14 11 -14 165 l1 180 147 67 c81 36 150 67 155 67 4
1 0 -15 -8 -35z m-6885 -566 l144 -153 -55 -7 c-191 -24 -521 -59 -529 -56 -9
3 278 368 290 368 4 0 71 -69 150 -152z m693 7 c47 -66 83 -121 82 -123 -2 -2
-84 -8 -182 -13 -98 -4 -204 -11 -235 -14 -41 -4 -58 -3 -58 6 0 6 63 74 141
152 120 120 142 138 154 126 8 -8 52 -68 98 -134z m680 93 c48 -58 167 -215
167 -221 0 -5 -494 4 -499 9 -3 2 6 16 20 30 37 41 252 234 260 234 4 0 27
-24 52 -52z m700 34 c29 -32 207 -297 207 -309 0 -3 -19 -3 -42 1 -24 3 -137
13 -253 21 -115 9 -220 18 -233 21 -20 4 -13 13 60 78 166 147 233 205 239
205 3 1 13 -7 22 -17z m-7600 -116 c261 -50 491 -229 602 -469 34 -73 47 -87
85 -87 21 0 39 21 110 130 108 167 264 292 465 375 127 53 225 69 385 62 254
-11 438 -85 590 -238 141 -141 200 -281 207 -489 6 -147 -14 -252 -72 -377
-57 -123 -52 -129 107 -168 366 -89 655 -237 879 -453 189 -181 289 -350 334
-565 84 -392 -162 -800 -685 -1139 -213 -138 -485 -279 -681 -352 -178 -66
-424 -125 -609 -146 -52 -6 -111 -13 -130 -16 -103 -14 -539 -22 -777 -13
-146 5 -277 11 -292 13 -14 3 -60 7 -101 11 -233 20 -522 77 -862 169 -430
116 -689 155 -1183 176 -412 18 -657 48 -931 115 -172 42 -464 140 -464 156 0
4 24 46 54 93 30 48 56 90 58 95 2 4 116 -1 253 -11 138 -9 346 -24 464 -33
118 -8 217 -18 220 -21 3 -3 16 -52 28 -109 24 -118 44 -164 85 -206 48 -47
114 -35 166 31 11 14 53 88 95 165 l75 140 44 2 c179 10 454 48 750 103 533
100 881 118 1568 80 408 -22 470 -23 617 -6 149 17 300 55 420 105 l72 30 46
-64 c64 -90 119 -135 165 -135 89 0 123 71 156 330 15 114 12 110 103 199 48
47 117 123 155 168 l67 82 41 -25 c22 -14 70 -37 106 -50 103 -39 164 -23 148
39 -5 20 -19 30 -64 47 -91 34 -149 70 -198 122 -57 62 -90 133 -103 226 -5
40 -15 80 -21 88 -14 16 -53 18 -81 4 -44 -24 -9 -223 57 -323 14 -21 23 -44
21 -51 -11 -29 -131 -168 -215 -248 -240 -231 -509 -372 -806 -423 -102 -17
-328 -19 -636 -5 -113 5 -284 12 -381 16 l-176 7 -43 121 c-41 119 -106 240
-152 283 -141 133 -287 -31 -288 -324 0 -51 -3 -93 -7 -93 -5 0 -107 -14 -228
-30 -121 -17 -225 -30 -232 -30 -6 0 -19 24 -29 53 -45 137 -136 278 -200 309
-42 21 -45 21 -78 5 -19 -9 -42 -29 -50 -46 -24 -46 -54 -167 -66 -271 -17
-140 -13 -135 -117 -148 -48 -7 -122 -14 -163 -18 -41 -3 -86 -8 -100 -10 -14
-3 -167 -8 -340 -11 -234 -4 -380 -1 -570 11 -339 22 -445 34 -918 107 l-152
24 -10 35 c-6 19 -15 67 -21 105 -10 61 -9 81 10 157 11 48 38 122 60 165 153
304 385 403 1401 593 301 56 530 130 744 240 187 95 426 269 426 309 0 9 -21
46 -46 81 -118 161 -176 321 -177 485 -1 120 17 198 72 310 112 228 352 394
631 438 62 10 245 6 313 -7z m4843 -122 c88 -64 160 -119 162 -123 1 -4 -48
-15 -110 -25 -535 -84 -988 -195 -1342 -330 -44 -17 -66 -21 -63 -13 2 7 82
121 176 254 l171 241 223 -119 c122 -65 227 -119 232 -119 6 0 93 79 195 175
102 96 188 175 191 175 3 0 78 -52 165 -116z m3623 -34 c44 -77 81 -142 81
-145 0 -2 -6 -2 -12 0 -7 3 -132 23 -276 44 -145 22 -266 42 -268 44 -11 10
346 197 376 197 11 0 45 -49 99 -140z m3450 -47 c-135 -172 -307 -368 -316
-360 -9 10 56 390 70 403 6 6 168 21 235 23 l64 1 -53 -67z m-2684 -148 c42
-64 74 -119 73 -121 -5 -5 -418 100 -418 106 1 6 264 140 267 136 2 -1 37 -56
78 -121z m-5766 -275 c1 -3 -56 -27 -127 -54 -170 -65 -407 -169 -630 -277
-176 -85 -182 -87 -176 -61 10 42 23 63 73 118 25 28 111 159 190 291 l143
241 264 -127 c145 -69 263 -128 263 -131z m6578 48 c28 -90 55 -172 59 -182 4
-11 4 -17 -2 -14 -8 5 -372 156 -433 180 -22 8 -8 17 145 93 93 46 171 84 174
84 3 1 29 -72 57 -161z m1399 -161 c-41 -53 -440 -417 -458 -417 -3 0 27 101
69 225 l75 225 169 0 170 0 -25 -33z m-703 -99 c22 -85 67 -312 63 -315 -4 -4
-391 220 -409 237 -5 4 29 17 75 29 46 12 121 33 168 46 47 13 88 24 91 24 4
1 9 -9 12 -21z m-10656 -1730 c23 -35 48 -76 56 -93 15 -31 57 -160 57 -176 0
-5 -52 -9 -115 -9 l-115 0 0 78 c0 99 42 262 67 262 5 0 27 -28 50 -62z m-897
-218 c26 -51 63 -160 55 -160 -2 0 -39 -7 -82 -15 -43 -8 -79 -15 -80 -15 -2
0 -3 28 -3 63 0 59 7 101 31 192 l11 40 20 -25 c11 -14 33 -50 48 -80z m3010
73 c0 -9 -27 -158 -35 -191 -5 -21 -8 -22 -22 -10 -24 19 -86 119 -78 126 11
11 120 80 128 81 4 1 7 -2 7 -6z m-5221 -339 c9 -8 -37 -89 -85 -153 l-48 -65
-9 40 c-8 38 -3 165 7 182 5 8 126 4 135 -4z m-266 -14 c-3 -11 -6 -20 -8 -20
-1 0 -10 9 -20 20 -18 20 -17 20 8 20 20 0 24 -4 20 -20z m1617 -123 c0 -42
-96 -217 -119 -217 -29 0 -78 209 -55 232 3 4 43 6 90 6 79 0 84 -1 84 -21z
m4736 -504 c88 -36 163 -70 167 -74 20 -17 -137 -218 -195 -250 -14 -7 -67 17
-238 107 -122 64 -218 119 -215 123 10 10 299 159 311 160 6 0 83 -29 170 -66z
m580 -205 l274 -82 0 -52 c0 -28 -7 -74 -16 -102 -18 -55 -127 -202 -150 -202
-8 0 -130 49 -272 109 -141 60 -274 116 -295 125 l-38 15 71 82 c39 46 85 107
103 136 17 29 36 53 40 53 5 0 132 -37 283 -82z m6984 51 c-95 -64 -362 -209
-385 -209 -4 0 -5 17 -3 37 l3 38 200 82 c110 45 207 82 215 82 8 1 -5 -13
-30 -30z m-6462 -186 l84 -17 -4 -217 c-1 -120 -6 -221 -10 -224 -4 -4 -86 18
-182 49 l-175 56 53 79 c61 89 93 167 102 247 6 50 9 55 28 50 12 -3 59 -13
104 -23z m5932 -40 c0 -16 -4 -33 -8 -39 -6 -11 -183 -73 -253 -89 -30 -7 -47
17 -26 36 13 13 255 116 275 118 7 1 12 -11 12 -26z m-1956 -404 c4 -67 4
-125 -1 -130 -10 -10 -244 -39 -309 -39 l-41 0 31 133 32 132 99 11 c55 6 118
12 141 13 l41 1 7 -121z m-2015 85 l104 -7 -6 -60 c-6 -72 -64 -194 -109 -232
-27 -23 -39 -25 -119 -25 l-89 0 0 154 c0 85 3 162 6 171 6 14 16 16 58 11 28
-3 98 -8 155 -12z m1601 -2 c0 -26 -42 -166 -60 -201 -31 -62 -47 -68 -210
-75 -80 -4 -209 -9 -287 -13 l-141 -6 35 134 c19 74 36 135 38 137 3 3 163 12
400 21 105 4 198 9 208 9 9 1 17 -2 17 -6z m-3802 -123 l314 -104 -6 -60 c-3
-33 -8 -224 -12 -425 -5 -310 -4 -379 10 -456 24 -142 75 -271 129 -331 25
-28 15 -30 -21 -3 -34 25 -48 27 -297 35 -314 10 -352 21 -399 113 -74 147
-92 341 -76 817 14 421 21 527 34 522 6 -2 152 -51 324 -108z m2981 101 l63 0
-7 -47 c-4 -27 -18 -83 -31 -126 -37 -117 -20 -111 -377 -115 l-298 -4 36 71
c20 39 44 108 53 152 l17 81 240 -6 c132 -3 269 -6 304 -6z m1245 -567 c4
-137 9 -295 11 -353 2 -58 7 -178 11 -267 7 -176 10 -185 74 -218 17 -9 30
-19 30 -24 0 -12 -351 -21 -475 -11 -204 16 -227 39 -281 290 -16 73 -19 133
-19 435 l0 350 105 8 c58 4 186 14 285 21 99 7 196 14 216 15 l37 1 6 -247z"/>
<path d="M6045 6793 c-128 -11 -280 -62 -377 -127 -226 -149 -338 -451 -259
-697 62 -194 273 -391 477 -444 75 -19 270 -20 362 0 265 55 465 238 527 480
19 76 19 214 0 288 -20 78 -74 182 -129 250 -129 158 -394 268 -601 250z m215
-139 c360 -106 517 -486 323 -781 -66 -100 -175 -181 -303 -225 -55 -19 -85
-23 -195 -22 -114 0 -139 3 -203 26 -95 34 -159 76 -229 152 -156 167 -186
372 -84 575 72 142 238 259 412 290 71 13 210 6 279 -15z"/>
<path d="M6207 6466 c-82 -22 -157 -112 -157 -188 0 -59 48 -139 104 -173 43
-26 59 -30 121 -30 62 0 78 4 121 30 144 89 127 283 -31 356 -46 22 -91 23
-158 5z m137 -137 c30 -35 32 -58 11 -98 -17 -33 -33 -41 -84 -41 -83 0 -122
92 -60 144 45 38 99 36 133 -5z"/>
<path d="M4120 6767 c-210 -58 -370 -187 -452 -365 -151 -330 6 -698 360 -842
102 -41 182 -53 330 -48 110 4 138 9 208 35 278 104 444 324 447 593 3 179
-50 307 -178 435 -91 92 -175 144 -290 182 -66 21 -103 27 -210 30 -112 3
-141 0 -215 -20z m318 -103 c213 -43 387 -198 437 -389 44 -169 -11 -365 -136
-487 -70 -69 -211 -141 -307 -158 -204 -36 -410 25 -542 159 -114 116 -166
245 -157 389 4 75 10 96 50 176 84 170 214 270 402 311 82 18 161 18 253 -1z"/>
<path d="M4398 6466 c-79 -29 -128 -80 -147 -152 -23 -88 47 -202 145 -234 73
-25 189 5 240 62 51 55 68 139 43 205 -36 95 -181 157 -281 119z m138 -130
c21 -18 28 -32 28 -61 0 -108 -170 -115 -190 -8 -5 27 -1 37 24 63 39 39 97
42 138 6z"/>
<path d="M1470 4756 c-90 -24 -168 -91 -195 -165 -19 -56 -19 -151 0 -199 21
-50 79 -108 140 -140 67 -35 196 -38 266 -6 104 49 169 142 169 245 0 66 -10
98 -48 152 -34 50 -94 91 -162 111 -63 19 -108 19 -170 2z m175 -129 c51 -28
90 -101 81 -151 -16 -82 -90 -140 -177 -139 -144 2 -220 159 -126 262 50 55
152 68 222 28z"/>
<path d="M2341 4699 c-90 -17 -174 -78 -214 -154 -16 -30 -21 -59 -21 -115 -1
-64 3 -82 26 -122 31 -51 71 -88 132 -121 34 -18 57 -22 136 -22 87 0 100 3
149 30 170 94 201 303 62 428 -22 20 -53 42 -68 51 -25 12 -136 38 -152 35 -3
-1 -26 -5 -50 -10z m157 -136 c100 -74 96 -207 -8 -267 -47 -28 -133 -28 -180
0 -93 54 -108 178 -32 247 53 48 168 59 220 20z"/>
</g>
</svg>
