<?xml version="1.0" encoding="utf-8"?>
<!-- Generator: Adobe Illustrator 22.1.0, SVG Export Plug-In . SVG Version: 6.00 Build 0)  -->
<svg version="1.1" id="Layer_1" xmlns="http://www.w3.org/2000/svg" xmlns:xlink="http://www.w3.org/1999/xlink" x="0px" y="0px"
	 viewBox="0 0 1280 871" style="enable-background:new 0 0 1280 871;" xml:space="preserve">
<style type="text/css">
	.st0{fill:none;stroke:#000000;stroke-width:3;stroke-miterlimit:10;}
</style>
<g transform="translate(0.000000,871.000000) scale(0.100000,-0.100000)">
	<path class="st0" d="M4790,8626c-98-132-207-251-401-436c-457-435-613-604-735-795c-120-187-200-387-238-598l-22-118l-64,83
		c-91,119-309,332-418,408c-159,112-328,190-511,236c-203,52-325,62-856,74c-236,5-475,14-530,20c-128,13-326,46-417,70
		c-65,17-73,17-104,3c-35-17-54-54-54-105c0-68,62-132,185-188c90-42,213-83,700-235c643-201,1127-392,1580-623c115-59,118-61,80-61
		c-64-1-281-30-390-52c-604-121-1118-466-1447-969c-128-195-223-424-248-597c-16-109-11-124,43-144l45-16l153,155
		c327,329,525,454,964,612c439,157,538,198,810,339c144,75,373,207,480,277l28,19l-15-25c-56-89-494-832-690-1170
		C1632,2916,1081,1789,989,1255c-5-33-14-136-18-230c-7-137-13-181-31-228c-12-31-20-62-18-68s-89-58-202-116
		C523,511,270,372,145,296c-33-20-69-36-80-36s-28-12-39-26c-18-26-18-26,14-59c28-29,35-32,56-23c17,8,94,8,271-1
		c544-25,817-36,1708-66c1194-41,3120-62,4375-48c980,11,1457,8,2545-19c678-16,2113-16,2460,0c436,21,871,52,1185,85l115,12v50
		c0,42-3,50-20,54c-11,2-81,40-155,86c-1544,939-3171,1493-4905,1670c-634,65-1398,72-2075,19c-835-64-1760-234-2554-469
		c-104-31-193-52-197-48c-30,32-89,267-110,437c-19,155-6,510,26,726c108,728,413,1609,943,2725c201,423,302,625,312,625
		c32,0,159-81,229-145c101-92,153-177,340-552c186-370,285-520,454-686c222-217,537-395,892-502c50-15,95-29,101-32c5-2,24,16,41,39
		l30,43l-63,100c-120,189-242,447-439,930c-148,363-283,593-440,750c-148,149-306,242-527,309l-108,33l72,12c130,23,389,91,553,146
		c554,184,1025,452,1426,811c110,99,249,247,249,266c0,6-10,27-22,47s-22,37-23,38c-6,10-913-182-1240-262
		c-703-174-998-297-1280-536c-113-96-166-138-210-165c-30-18-30-18-15,1c62,78,163,189,340,371c349,358,502,575,585,829
		c74,227,74,487,0,731c-15,49-32,94-38,100c-7,6-30,14-52,17C4836,8687,4834,8686,4790,8626z"/>
</g>
</svg>
