<?xml version="1.0" encoding="utf-8"?>
<!-- Generator: Adobe Illustrator 22.1.0, SVG Export Plug-In . SVG Version: 6.00 Build 0)  -->
<svg version="1.1" id="Layer_1" xmlns="http://www.w3.org/2000/svg" xmlns:xlink="http://www.w3.org/1999/xlink" x="0px" y="0px"
	 viewBox="0 0 376.5 501" style="enable-background:new 0 0 376.5 501;" xml:space="preserve">
<style type="text/css">
	.st0{fill:none;stroke:#000000;stroke-width:2;stroke-miterlimit:10;}
</style>
<path class="st0" d="M270.8,15.8l0.8-0.8v3.5c0,2.3-4.2,18.2-12.5,47.5c-8.3,29.3-13.5,50.2-15.5,62.5l-3,18.5l7.3-8.3l7.3-8.3
	l3.5,2.5c2.3,1.7,5.8,5.1,10.3,10.3s8.1,9.4,10.8,12.8l4,5l1,14l1,14l-3.5-7c-2.3-4.7-5.3-8.9-8.8-12.8s-8.9-7.9-16.3-12.3
	c-7.3-4.3-12.8-3.9-16.3,1.3s-7.6,22.8-12.3,52.8l-7,45l5.8-6.5l5.8-6.5l3.8-8c2.5-5.3,5.5-10.1,9-14.3s6.4-6.8,8.8-7.8l3.5-1.5
	l1.8,4.3c1.2,2.8,2.3,6.6,3.5,11.3l1.8,7l4.3-3.5c2.8-2.3,5.3-4.4,7.5-6.3l3.3-2.8h3l7.5,6.5c5,4.3,10.3,9.4,15.8,15.3
	s10.3,17.1,14.3,33.8s6,26.3,6,29v4l-4-7c-2.7-4.7-5.8-11.2-9.5-19.5s-7.6-16.1-11.8-23.3l-6.3-10.8l-10.5-2.5
	c-7-1.7-10.9-2.1-11.8-1.3l-1.3,1.3l0.5,1.5c0.3,1,1.8,6.7,4.5,17c2.7,10.3,4,18.3,4,24v8.5l-2.5-7l-2.5-7l-1.5,4.5
	c-1,3-2.7,8.7-5,17l-3.5,12.5l2.3-0.3c1.5-0.2,3.8,0.3,6.8,1.3l4.5,1.5l2.8,6.3c1.8,4.2,3.3,9.8,4.3,16.8l1.5,10.5l-7.8-11.8
	l-7.8-11.8l-5.8,2.3c-3.8,1.5-6.9,5.4-9.3,11.8c-2.3,6.3-3.9,12.4-4.8,18.3s-0.7,9.2,0.5,10s1.8,2.6,2,5.3l0.3,4l-6-0.3
	c-4-0.2-7.6,2.5-10.8,8s-7.8,13.4-13.8,23.8s-9.1,18-9.3,23L215,444l28.5,2.5L272,449l-2,1c-1.3,0.7-37.6,0.7-108.8,0l-106.8-1
	l-0.3-1.5c-0.2-1,6.8-1.7,20.8-2l21-0.5l-4-6.3c-2.7-4.2-6.9-9-12.8-14.5s-12.1-14.1-18.8-25.8s-10.3-17.9-10.8-18.8l-0.8-1.3
	l-3.8,1.8c-2.5,1.2-4.7,2.6-6.5,4.3L36,387l3.5-8.3c2.3-5.5,4.6-8.5,6.8-9l3.3-0.8l-1.5-8c-1-5.3-1.4-12.8-1.3-22.5L47,324l6.3,3.5
	c4.2,2.3,8.8,7.2,13.8,14.5s10.8,17.8,17.5,31.5l10,20.5L92,364c-1.7-20-4-34.7-7-44s-7-18.7-12-28s-7.8-14.5-8.5-15.5l-1-1.5
	l-3,3.5c-2,2.3-8.7,14.2-20,35.5l-17,32l2.5-8.5c1.7-5.7,8.4-20.4,20.3-44.3s19.1-36.2,21.8-37l4-1.3l5.8,13
	c3.8,8.7,7.3,15.8,10.3,21.5l4.5,8.5L90,278.5c-1.7-13-3.8-24.2-6.5-33.5s-5.2-15.3-7.5-18l-3.5-4l-3.5,4c-2.3,2.7-9.3,13.8-21,33.5
	S30.2,290.3,29.5,291l-1,1l2.5-6.5c1.7-4.3,6-13.8,13-28.5c7-14.7,12.8-27.6,17.3-38.8l6.8-16.8l3.5,2.5c2.3,1.7,5.3,5.3,8.8,10.8
	s5.8,10.1,6.8,13.8l1.5,5.5l0.5-0.5c0.3-0.3,0.4-3.5,0.3-9.5l-0.3-9l1.8-0.5c1.2-0.3,2-10.1,2.5-29.3l0.8-28.8l1.8,0.3
	c1.2,0.2,2.7,9.6,4.5,28.3l2.8,28l-1,11l-1,11l1.8-2c1.2-1.3,3.6-7.5,7.3-18.5s6.6-19.2,8.8-24.5l3.3-8l3.3,2.5
	c2.2,1.7,5.8,6.8,11,15.5l7.8,13l-7-4.3c-4.7-2.8-7.8-4.6-9.5-5.3l-2.5-1l-3.3,6.8c-2.2,4.5-5.6,12.9-10.3,25.3s-7,27.2-7,44.5
	s0.5,26.5,1.5,27.5s1.7,2.7,2,5l0.5,3.5l12.3-29.3c8.2-19.5,12.9-29.3,14.3-29.5l2-0.3l3.8,11l3.8,11l7.3-15.8
	c4.8-10.5,7.6-15.7,8.3-15.5l1,0.3l1.8-43.5l1.8-43.5h2.5c1.7,0,2.2,8.2,1.5,24.5s-1,26.2-1,29.5v5l2.8,1.3c1.8,0.8,3.7,3.3,5.5,7.5
	s2.9,7.8,3.3,10.8l0.5,4.5l-5.3-5l-5.3-5l-0.8,5.5c-0.5,3.7-0.6,15.8-0.3,36.5l0.5,31l3.5-15.5l3.5-15.5l3.5-3
	c2.3-2,7.2-16.2,14.5-42.5S205.3,189,207,187l2.5-3l2,8c1.3,5.3,2.9,11.2,4.8,17.5l2.8,9.5l5.8-44c3.8-29.3,5.2-44.6,4-45.8
	l-1.8-1.8l-5.5,2.5c-3.7,1.7-6.4,3.3-8.3,4.8l-2.8,2.3l1.5-8.5l1.5-8.5l8.8-5.3c5.8-3.5,9.3-4.8,10.5-4s2.4,2.8,3.8,5.8l2,4.5
	l3-11.5c2-7.7,7.3-25.1,15.8-52.3S270.3,16.3,270.8,15.8z M117,321l0.5-1l0.5,0.5c0.3,0.3,0.7,4.8,1,13.5s1,14.3,2,17
	s1.9,6.2,2.8,10.5s0.3,6.8-1.8,7.3l-3,0.8l2.3,1.8c1.5,1.2,3.1,3.3,4.8,6.3s4.2,8.7,7.5,17s6.7,16,10,23s6.3,12.4,8.8,16.3
	s4,6.2,4.5,7s0.8,1.6,1,2.3l0.3,1l-1.5,0.3c-1,0.2-8.9,0.2-23.8,0l-22.3-0.3l0.5-12.5c0.3-8.3,0.9-13.9,1.8-16.8s1.6-4.4,2.3-4.8
	l1-0.5l2.3,0.8c1.5,0.5,2.9,1.6,4.3,3.3s2.8,4.2,4.5,7.5c1.7,3.3,2.8,5.3,3.5,6l1,1l-0.5-6.5c-0.3-4.3-1.5-10.2-3.5-17.5
	s-4.1-12.8-6.3-16.3s-3.8-5.1-4.8-4.8s-2.1,0.9-3.3,1.8s-2.4,2.4-3.8,4.8l-2,3.5l0.5-18c0.3-12,1-21.3,2-28s2.3-12.5,4-17.5
	S116.7,321.7,117,321z M129.3,293.5c1.2-3.7,2.1-5.4,2.8-5.3l1,0.3l1.3,2.3c0.8,1.5,1.4,2.6,1.8,3.3s0.3,2.2,0,4.5s-1.3,4.9-2.8,7.8
	s-2.8,4-4,3.5l-1.8-0.8l-1.8-1c-1.2-0.7-1.2-2.3,0-5S128.1,297.2,129.3,293.5z M141,306.3l1-0.3l1.8,6c1.2,4,2.3,7.3,3.3,10
	s1.7,6.2,2,10.5l0.5,6.5l-2.5-3.5c-1.7-2.3-3.5-5-5.5-8s-3.9-5.8-5.8-8.3s-1.6-5.3,0.8-8.3S140.3,306.4,141,306.3z M158,275.5h1
	l0.3,0.3c0.2,0.2,0.4,3.4,0.8,9.8s0.3,11.3-0.3,14.8s-1.1,5.3-1.8,5.5l-1,0.3l0.3,4.5c0.2,3,0.1,5.8-0.3,8.5l-0.5,4l-1.5-4.5
	c-1-3-2.2-8.5-3.5-16.5s-1.2-13.8,0.5-17.5s2.9-6.1,3.8-7.3S157.3,275.5,158,275.5z M174.8,313l3.3-13h1c0.7,0,1.4,0.8,2.3,2.5
	s2.4,4.3,4.8,8s4,7.5,5,11.5s2.7,10.8,5,20.5s3.8,15.2,4.5,16.5s1.1,7.5,1.3,18.5L202,394l-1.3-0.5c-0.8-0.3-1.3-0.8-1.5-1.5
	s-0.9-1.2-2.3-1.5s-3.3,3.7-5.8,12s-4.1,13.3-4.8,15s-1,3-1,4v1.5l5.3-6.3c3.5-4.2,5.6-6.3,6.3-6.3h1l0.3,0.3
	c0.2,0.2,0.5,5.8,1,16.8L200,444h-25l0.3-8c0.2-5.3-0.1-10.5-0.8-15.5s-0.8-14.4-0.3-28.3s1.1-20.9,1.8-21.3l1-0.5l2.8,0.8
	c1.8,0.5,3.5,2.8,5,6.8s2.6,6,3.3,6h1l-0.8-9c-0.5-6-1.4-10.3-2.8-13s-3.1-5.4-5.3-8.3s-3.6-4.3-4.3-4.5s-1.8,1.8-3.3,5.8l-2.3,6
	l0.5-17.5C171.3,331.8,172.6,321.7,174.8,313z M200.3,228.5c2.5-7.7,4.1-11.4,4.8-11.3l1,0.3l0.3,0.3c0.2,0.2,0.3,10.6,0.5,31.3
	l0.3,31l-2-1.3c-1.3-0.8-2.1-1.3-2.3-1.5s-0.4,7.6-0.8,23.3s-0.7,24-1,25l-0.5,1.5l-1.5-6c-1-4-2-9.3-3-16s-2.8-12.3-5.5-17l-4-7
	l0.5-3c0.3-2,2-8.8,5-20.5C195,245.8,197.8,236.2,200.3,228.5z M248,227.5l0.5-0.5l2,1.5c1.3,1,2.8,3.8,4.3,8.3l2.3,6.8l-3.5,4.5
	c-2.3,3-4.5,5.8-6.5,8.3s-3.3,3.8-4,3.8s-1.4,0.7-2.3,2s-1.9,2.8-3.3,4.5s-2.8,3.7-4.5,6s-3.5,5-5.5,8s-4.3,5.8-6.8,8.3
	s-4.1,3.8-4.8,4l-1,0.3l1.8-9c1.2-6,3.3-11.5,6.3-16.5s5-8.3,6-10c1-1.7,2.3-4.7,4-9l2.5-6.5l3-2.5c2-1.7,4-4,6-7
	S247.7,227.8,248,227.5z M256.8,258.3c1.2-0.8,2.1-0.6,2.8,0.8s1.2,2.3,1.5,3l0.5,1l0.3,2.3c0.2,1.5-0.8,3.3-2.8,5.3
	s-4.8,4.9-8.3,8.8s-5.3,6.1-5.5,6.8s-0.6,1-1.3,1s-1.4,0.7-2.3,2s-2.6,4.7-5.3,10s-4.4,9.2-5.3,11.5L230,314h-1.8
	c-1.2,0-2.6,1.2-4.3,3.5s-3.3,4.5-5,6.5l-2.5,3l-0.5-1.5c-0.3-1-0.5-4.3-0.5-10V307l1.5-2.5c1-1.7,2.3-3.7,4-6s3.5-5,5.5-8
	s7.3-8.9,15.8-17.8S255.6,259.1,256.8,258.3z"/>
</svg>
