<?xml version="1.0" encoding="UTF-8"?>
<svg viewBox="0 0 376.5 501" xmlns="http://www.w3.org/2000/svg">
 <path d="m270.75 15.75l0.75-0.75v3.5q0 3.5-12.5 47.5t-15.5 62.5l-3 18.5 7.25-8.25 7.25-8.25 3.5 2.5q3.5 2.5 10.25 10.25t10.75 12.75l4 5 1 14 1 14-3.5-7q-3.5-7-8.75-12.75t-16.25-12.25-16.25 1.25-12.25 52.75l-7 45 5.75-6.5 5.75-6.5 3.75-8q3.75-8 9-14.25t8.75-7.75l3.5-1.5 1.75 4.25q1.75 4.25 3.5 11.25l1.75 7 4.25-3.5q4.25-3.5 7.5-6.25l3.25-2.75h3l7.5 6.5q7.5 6.5 15.75 15.25t14.25 33.75 6 29v4l-4-7q-4-7-9.5-19.5t-11.75-23.25l-6.25-10.75-10.5-2.5q-10.5-2.5-11.75-1.25l-1.25 1.25 0.5 1.5q0.5 1.5 4.5 17t4 24v8.5l-2.5-7-2.5-7-1.5 4.5q-1.5 4.5-5 17l-3.5 12.5 2.25-0.25q2.25-0.25 6.75 1.25l4.5 1.5 2.75 6.25q2.75 6.25 4.25 16.75l1.5 10.5-7.75-11.75-7.75-11.75-5.75 2.25q-5.75 2.25-9.25 11.75t-4.75 18.25 0.5 10 2 5.25l0.25 4-6-0.25q-6-0.25-10.75 8t-13.75 23.75-9.25 23l-0.25 7.5 28.5 2.5 28.5 2.5-2 1q-2 1-108.75 0l-106.75-1-0.25-1.5q-0.25-1.5 20.75-2l21-0.5-4-6.25q-4-6.25-12.75-14.5t-18.75-25.75-10.75-18.75l-0.75-1.25-3.75 1.75q-3.75 1.75-6.5 4.25l-2.75 2.5 3.5-8.25q3.5-8.25 6.75-9l3.25-0.75-1.5-8q-1.5-8-1.25-22.5l0.25-14.5 6.25 3.5q6.25 3.5 13.75 14.5t17.5 31.5l10 20.5-2.5-30q-2.5-30-7-44t-12-28-8.5-15.5l-1-1.5-3 3.5q-3 3.5-20 35.5l-17 32 2.5-8.5q2.5-8.5 20.25-44.25t21.75-37l4-1.25 5.75 13q5.75 13 10.25 21.5l4.5 8.5-2.5-19.5q-2.5-19.5-6.5-33.5t-7.5-18l-3.5-4-3.5 4q-3.5 4-21 33.5t-18.5 30.5l-1 1 2.5-6.5q2.5-6.5 13-28.5t17.25-38.75l6.75-16.75 3.5 2.5q3.5 2.5 8.75 10.75t6.75 13.75l1.5 5.5 0.5-0.5q0.5-0.5 0.25-9.5l-0.25-9 1.75-0.5q1.75-0.5 2.5-29.25l0.75-28.75 1.75 0.25q1.75 0.25 4.5 28.25l2.75 28-1 11-1 11 1.75-2q1.75-2 7.25-18.5t8.75-24.5l3.25-8 3.25 2.5q3.25 2.5 11 15.5l7.75 13-7-4.25q-7-4.25-9.5-5.25l-2.5-1-3.25 6.75q-3.25 6.75-10.25 25.25t-7 44.5 1.5 27.5 2 5l0.5 3.5 12.25-29.25q12.25-29.25 14.25-29.5l2-0.25 3.75 11 3.75 11 7.25-15.75q7.25-15.75 8.25-15.5l1 0.25 1.75-43.5 1.75-43.5h2.5q2.5 0 1.5 24.5t-1 29.5v5l2.75 1.25q2.75 1.25 5.5 7.5t3.25 10.75l0.5 4.5-5.25-5-5.25-5-0.75 5.5q-0.75 5.5-0.25 36.5l0.5 31 3.5-15.5 3.5-15.5 3.5-3q3.5-3 14.5-42.5t13.5-42.5l2.5-3 2 8q2 8 4.75 17.5l2.75 9.5 5.75-44q5.75-44 4-45.75l-1.75-1.75-5.5 2.5q-5.5 2.5-8.25 4.75l-2.75 2.25 1.5-8.5 1.5-8.5 8.75-5.25q8.75-5.25 10.5-4t3.75 5.75l2 4.5 3-11.5q3-11.5 15.75-52.25t13.5-41.5zm-153.75 305.25l0.5-1 0.5 0.5q0.5 0.5 1 13.5t2 17 2.75 10.5-1.75 7.25l-3 0.75 2.25 1.75q2.25 1.75 4.75 6.25t7.5 17 10 23 8.75 16.25 4.5 7 1 2.25l0.25 1-1.5 0.25q-1.5 0.25-23.75 0l-22.25-0.25 0.5-12.5q0.5-12.5 1.75-16.75t2.25-4.75l1-0.5 2.25 0.75q2.25 0.75 4.25 3.25t4.5 7.5 3.5 6l1 1-0.5-6.5q-0.5-6.5-3.5-17.5t-6.25-16.25-4.75-4.75-3.25 1.75-3.75 4.75l-2 3.5 0.5-18q0.5-18 2-28t4-17.5 3-8.5zm12.25-27.5q1.75-5.5 2.75-5.25l1 0.25 1.25 2.25q1.25 2.25 1.75 3.25t0 4.5-2.75 7.75-4 3.5l-1.75-0.75-1.75-1q-1.75-1 0-5t3.5-9.5zm11.75 12.75l1-0.25 1.75 6q1.75 6 3.25 10t2 10.5l0.5 6.5-2.5-3.5q-2.5-3.5-5.5-8t-5.75-8.25 0.75-8.25 4.5-4.75zm17-30.75h1l0.25 0.25q0.25 0.25 0.75 9.75t-0.25 14.75-1.75 5.5l-1 0.25 0.25 4.5q0.25 4.5-0.25 8.5l-0.5 4-1.5-4.5q-1.5-4.5-3.5-16.5t0.5-17.5 3.75-7.25 2.25-1.75zm16.75 37.5l3.25-13h1q1 0 2.25 2.5t4.75 8 5 11.5 5 20.5 4.5 16.5 1.25 18.5l0.25 16.5-1.25-0.5q-1.25-0.5-1.5-1.5t-2.25-1.5-5.75 12-4.75 15-1 4v1.5l5.25-6.25q5.25-6.25 6.25-6.25h1l0.25 0.25q0.25 0.25 1 16.75l0.75 16.5h-25l0.25-8q0.25-8-0.75-15.5t-0.25-28.25 1.75-21.25l1-0.5 2.75 0.75q2.75 0.75 5 6.75t3.25 6h1l-0.75-9q-0.75-9-2.75-13t-5.25-8.25-4.25-4.5-3.25 5.75l-2.25 6 0.5-17.5q0.5-17.5 3.75-30.5zm25.5-84.5q3.75-11.5 4.75-11.25l1 0.25 0.25 0.25q0.25 0.25 0.5 31.25l0.25 31-2-1.25q-2-1.25-2.25-1.5t-0.75 23.25-1 25l-0.5 1.5-1.5-6q-1.5-6-3-16t-5.5-17l-4-7 0.5-3q0.5-3 5-20.5t8.25-29zm47.75-1l0.5-0.5 2 1.5q2 1.5 4.25 8.25l2.25 6.75-3.5 4.5q-3.5 4.5-6.5 8.25t-4 3.75-2.25 2-3.25 4.5-4.5 6-5.5 8-6.75 8.25-4.75 4l-1 0.25 1.75-9q1.75-9 6.25-16.5t6-10 4-9l2.5-6.5 3-2.5q3-2.5 6-7t3.5-5zm8.75 30.75q1.75-1.25 2.75 0.75t1.5 3l0.5 1 0.25 2.25q0.25 2.25-2.75 5.25t-8.25 8.75-5.5 6.75-1.25 1-2.25 2-5.25 10-5.25 11.5l-1.25 3.5h-1.75q-1.75 0-4.25 3.5t-5 6.5l-2.5 3-0.5-1.5q-0.5-1.5-0.5-10v-8.5l1.5-2.5q1.5-2.5 4-6t5.5-8 15.75-17.75 14.5-14.5z" fill="#ff7f00" fill-rule="evenodd" stroke-width="0"/>
</svg>
