<?xml version="1.0" encoding="utf-8"?>
<!-- Generator: Adobe Illustrator 22.1.0, SVG Export Plug-In . SVG Version: 6.00 Build 0)  -->
<svg version="1.1" id="Layer_1" xmlns="http://www.w3.org/2000/svg" xmlns:xlink="http://www.w3.org/1999/xlink" x="0px" y="0px"
	 viewBox="0 0 123.5 123.5" style="enable-background:new 0 0 123.5 123.5;" xml:space="preserve">
<style type="text/css">
	.st0{fill:none;stroke:#000000;stroke-width:2;stroke-miterlimit:10;}
</style>
<path class="st0" d="M22,107.1h87.7V98H31.2V58.5L109.8,23v-9.5l-97.5,44V67l9.8-4.4V107.1z"/>
<path class="st0" d="M67,76.1h13.8v12.3c0,2,1.6,3.7,3.7,3.7c2,0,3.6-1.6,3.6-3.7V76.1c1.1,0,1.2-0.7,1.2-1.5v-9.2l-11.5-5.6H53.2
	l-3.2-1.8c-1-0.6-2.3-0.2-2.9,0.8c-0.6,1-0.2,2.3,0.8,2.9l5,2.9v24c0,2,1.6,3.7,3.7,3.7c2,0,3.6-1.6,3.6-3.7V79l6.6,11.2
	c1.1,1.7,3.3,2.3,5,1.3c1.7-1.1,2.3-3.3,1.3-5C73.2,86.5,67,76.1,67,76.1z"/>
<path class="st0" d="M78.9,57.2l10.4,5v-2h8.4l3.1-6.7L78.9,43.1V57.2z"/>
</svg>
