<?xml version="1.0" encoding="UTF-8"?>
<svg enable-background="new -0.258 -0.548 123.547 123.539" viewBox="-0.258 -0.548 123.547 123.539" xmlns="http://www.w3.org/2000/svg">
 <path d="m108.98 123.1c8.156 0 14.75-6.586 14.75-14.742v-94.024c0-8.156-6.594-14.773-14.75-14.773h-94.047c-8.156 0-14.75 6.617-14.75 14.773v94.023c0 8.156 6.594 14.742 14.75 14.742h94.047z"/>
 <path d="m14.93 2.066c-6.75 0-12.242 5.492-12.242 12.266v94.023c0 6.742 5.492 12.234 12.242 12.234h94.047c6.742 0 12.234-5.492 12.234-12.234v-94.023c0-6.773-5.492-12.266-12.234-12.266h-94.047z" fill="#fff"/>
 <path d="m21.789 106.57h87.727v-9.109h-78.618v-39.485l78.618-35.523v-9.469l-97.516 44.039v9.477l9.789-4.399z"/>
 <path d="m66.742,75.543h13.789v12.328c0,2.023 1.641,3.664 3.664,3.664 2.031,0 3.641-1.641 3.641-3.664v-12.328c1.102,0 1.219-.711 1.219-1.539v-9.211l-11.547-5.641h-24.539l-3.156-1.789c-1.023-.578-2.312-.211-2.875.789-.586,1.023-.219,2.32.805,2.883l4.977,2.859v23.977c0,2.023 1.641,3.664 3.664,3.664 2,0 3.641-1.641 3.641-3.664v-9.398l6.594,11.18c1.055,1.734 3.297,2.297 5.008,1.273 1.734-1.055 2.297-3.273 1.266-5.008l-6.151-10.375z"/>
 <path d="m78.633 56.637 10.398 4.961v-1.953h8.446l3.101-6.688-21.945-10.453z"/>
</svg>
