<?xml version="1.0" encoding="utf-8"?>
<!-- Generator: Adobe Illustrator 22.1.0, SVG Export Plug-In . SVG Version: 6.00 Build 0)  -->
<svg version="1.1" id="Layer_1" xmlns="http://www.w3.org/2000/svg" xmlns:xlink="http://www.w3.org/1999/xlink" x="0px" y="0px"
	 viewBox="0 0 1242.1 1045.1" style="enable-background:new 0 0 1242.1 1045.1;" xml:space="preserve">
<style type="text/css">
	.st0{fill:none;stroke:#000000;stroke-width:4;stroke-miterlimit:10;}
</style>
<path class="st0" d="M1001.4,843c4.9-0.1,9.7,0.4,14.4,1.1c11.6,1.8,16.1,6.9,17.2,19c1.3,15.8,0,31.6-1.5,47.4
	c-1,10.4-2,20.6,1.1,31.1c3.5,11.7-2.8,25.5-13,32.2c-2.1,1.4-4.2,2.7-6.4,3.8c-3.6,1.8-6.5,5.5-6.9,9.6c-0.2,1.9,0.7,4.1,2.5,4.9
	c0.8,0.3,1.7,0.3,2.6,0.3c15.8-0.2,31.7-0.2,47.5-0.2h6.2c3.8,0,6.9-3.1,6.9-6.9v-0.5c0-1.6-0.6-3.2-1.6-4.5c-2-2.5-2.4-5.4-1.1-9.7
	c3.2-10.8,2.9-21.7,2.6-32.7c-0.6-22.4,1.9-44.5,3.8-66.8c0.4-4.3,0.5-8.6,2-12.7c0.6-1.6,0.9-3.1,2.9-2.4c3.7,1.2,7.3-0.1,10.9-0.4
	c6.3-0.5,7.3,0.4,7,6.8c-0.1,1.3-0.2,2.7-0.3,4c-1.6,30-0.8,59.9-0.8,89.9c0,7.1,1.5,14.2,2.4,21.3c0.1,1.2,0.6,2.5,0.5,3.7
	c-0.1,1.4-0.8,2.7-1,4.1c-0.1,1.5,0.1,3.1,1,4.4c1.4,2,4.1,2.7,6.5,2.7c10.2,0,20.4-0.3,30.6-0.3c3.9,0,6.8,1.4,7.4-3.4
	c0.5-4.5,0.3-9.1,0-13.7c-0.1-1.5-0.2-3-0.8-4.4c-1.1-2.6-4.1-2.5-5.1-4.8c-0.8-1.7,0-4.3,0.2-6c1.7-17.6,3.7-35.1,5.3-52.7
	c1.4-15.4,2.5-30.9,3.5-46.3c0.2-2.5,0.9-3,3.1-3.1c13.1-0.7,26.1-2.2,39.2-1.2c1.3,0.1,2.2-0.6,2.1-1.5c-0.5-6.3,1.6-12.5,0-18.8
	c-9.3-37.6-19.5-74.9-30-112.1c-5.2-18.3-6.8-35.9-1.5-54.3c3.1-10.8,4.8-22.1,6.2-33.3c2.7-22.4,0-44.5-2.7-66.7
	c-0.9-7.2-3-14.5,2.1-21.1c1.2-1.6,0.8-3.3,0.1-5c-2.1-5.2-4.6-10.3-7.2-15.2c-10.4-19.8-18.4-40.4-22.7-62.4
	c-3.4-17.4-7.6-34.7-11.5-52c-2.8-12.2-6-24.1-15.2-33.6c-10-10.2-21.5-15.1-35.6-11.5c-14.6,3.7-27.7,10.2-32.2,25.9
	c-4.4,15.7-6.6,31.9-7.3,48.2c-0.2,4.1,0.4,8.2,3.4,11.2c5.3,5.3,6.9,12.1,7.6,19.1c0.9,9.8-2.6,13-9.8,13.8
	c-1.5,0.2-2.9,0.6-4.4,0.8c-9.6,1.1-17.8,4.9-24.4,12.1c-6.3,6.9-12.3,14-17.9,21.5c-3.4,4.6-4.1,9.2-2,14.5
	c1.5,3.8,2.4,7.9,3.5,11.9c0.7,2.6,0.5,5.3-0.6,7.8c-2.7,6.3-6.2,12.1-10.6,17.4c-3.9,4.7-8.7,5.3-13.9,3.4
	c-5.3-2-9.9-4.6-10.7-11.2c-0.6-5.5-0.9-11-0.9-16.5c0-30.2,0.1-60.3-0.1-90.5c-0.1-13.3-1-26.6-3.6-39.7
	c-3.2-16.5-9.1-32.2-13.7-48.4c-3.2-11.5-3.1-11.8,6.8-18.2c5.9-3.8,6.9-5.8,4.9-12.5c-9.9-33.3-23.2-65.3-37-97.2
	c-6.9-15.9-17.7-27-33.2-34.2c-3.9-1.8-7.8-3.9-11.8-5.3c-9.5-3.4-19-6.9-28.3-10.9c-7.4-3.2-14.2-7.3-19.7-13.3
	c-8.8-9.6-7.3-14.7-0.3-21.3c4.6-4.4,6.5-9.8,6.1-16.2c-0.3-4.7-1.7-9.2-2.1-13.8c-1.4-17.6-3.4-35.1-6.1-52.5
	c-1.1-6.9-4-12.6-10.5-16c-12.7-6.6-25.6-12.7-39.8-15.6c-11.6-2.4-22.8-3-33,4.5c-7.1,5.2-14.9,8.4-23.5,10.4
	c-7.2,1.7-12.6,6.2-14,13.9c-0.7,3.9-1,7.9-1.2,11.9c-0.1,1.2-0.9,3.1,0.7,3.5c1.7,0.5,1.6-1.6,2.3-2.6c0.3-0.3,0.5-0.7,0.8-1.1
	c0.2,0.4,0.4,0.8,0.4,1.2c0.6,11.2,3.9,21.9,5.4,32.9c0.7,4.8-0.1,8.2-4.1,11.1c-3.3,2.4-4,6.9-1.5,10.1c4.3,5.5,9.1,10.6,9.5,18.2
	c0,0.8,0.6,1.6,1.1,2.2c3.2,3.5,3.7,7.4,3,12c-0.8,5.1,1.2,7.1,6.2,7.4c1.2,0.1,2.3,0.1,3.5,0.1c1.8-0.1,2.6,0.7,2.9,2.6
	c1.2,6.8-1.9,12.7-8.2,15.1c-10.7,4.1-21.4,8.2-32.2,12c-12.4,4.4-20.5,13.1-25.8,24.9c-13,28.7-22.7,58.4-30.6,88.9
	c-2.7,10.4-4.9,21,3.7,30.2c0.1,0.1,0.2,0.3,0.3,0.4c0.9,1.4,1,2.8-1.1,2.7c-4.8-0.2-5.5,3-6.4,6.6c-8.3,34.6-15.3,69.4-22.8,104.2
	c-1.2,5.5-2.2,11.1-3.3,16.6c-0.4,2.1-1.4,4.1-3.3,4.6c-1.6,0.4-2.3-1.7-3-2.9c-4.8-7.4-9.2-15-11.5-23.6
	C568,417.9,555,374.9,540,332.4c-7.1-20-13.7-40.2-23-59.4c-3.3-6.7-8.2-11.6-14.8-15c-7.9-4.1-16.2-6.9-24.8-8.9
	c-2.7-0.6-4.4-2-6-4c-3.1-3.7-3.4-7.9-2-12.2c2.9-9.5,3.2-19,0.8-28.7c-1.6-6.7-3-13.5-4.1-20.3c-3.4-20.7-9.4-40.5-18.1-59.5
	c-7-15.2-17.3-26.3-34.7-29.2c-2.8-0.5-5.6-0.7-8.3-1.5c-6.8-1.9-12.6-0.3-18.4,3.5c-7.9,5.2-15.5,10.9-22.5,17.3
	c-6.9,6.3-10.6,14-10.9,23.3c-0.6,21.6-2,43.3-1,65c0.4,8,1.1,15.9,1,24c-0.3,15.2-5.2,22-19.4,27.4c-6.5,2.5-13.5,3.6-20.1,5.9
	c-14.5,4.9-24.7,13.6-26.8,30c-1.8,14.2-3.7,28.4-5.2,42.6c-2.3,21.2-4.2,42.4-5.5,63.7c-1.7,27-1.8,54-2.2,81
	c-0.2,11.8-1.4,23.5-3.5,35.1c-3.3,18.5-4.5,37.1-3.4,55.8c0.3,5.5,1.9,10.3,6.6,13.9c7.4,5.7,8,7.3,4.4,16c-2.5,6-3.5,12-3.1,18.5
	c0.3,4.7,0,9.5-2.5,13.5c-5.2,8.3-11.7,15.3-20,20.6c-5.5,3.5-11,3.3-16.3-0.5c-1.9-1.4-3.9-2.6-5.5-4.3
	c-8.4-9.2-18.9-13.1-31.2-13.1c-8.1,0-13.7-4.6-17.5-11.5c-4.4-8.1-1.9-15.1,6.6-18.3c4.9-1.8,7.5-5.2,8.4-10.1
	c2.5-13.6,3.5-27.4,2.9-41.3c-0.3-6.3-2.6-12-7.1-16.6c-10.6-11-22.5-19.2-37.6-23.3c-7.9-2.2-14.1,0-20.5,3
	c-0.9,0.4-1.7,0.9-2.5,1.4c-9.9,6.7-18.4,15-26.8,23.4c-5.8,5.8-8.1,13.2-7.7,21.4c0.2,4.3,1.1,8.5,2.2,12.8
	c4.1,16.9,8.9,33.3,26.6,41.6c0.2,0.1,0.4,0.2,0.5,0.3c3.6,3.1,4.8,7.2,4,11.6c-0.7,3.8-4.6,3.3-7.2,4.4c-0.4,0.2-1,0.2-1.5,0.3
	c-6.7,1-12.9,3-18.1,7.7c-2.6,2.4-6,3.6-9.5,4.1c-6.3,1-9.8,4.7-12.1,10.5c-6.2,15.7-12.9,31.3-20.8,46.3c-2.4,4.6-4.1,9.4-6.1,14.2
	c-1.9,4.6-1.6,9.1,0.7,13.5c4.8,9.1,10.8,17.2,18.7,23.8c6.1,5.1,12.7,8.2,21,7c5.4-0.8,6.4,0.4,6.7,5.9c0.2,3.2,0.2,6.3,0.1,9.5
	c-0.2,16.5,0,33-0.9,49.5c-1.7,32.5,4.2,64.4,7.4,96.5c0.9,9.2,1.4,18.2-2.8,26.9c-4.2,8.7-4.4,18-3.1,27.4
	c1.3,10,5.2,19.2,7.8,28.8c3.1,11.6,7,23,4.7,35.2c-0.4,2.2,0.6,4.2,1,6.3h115.7c2.8,0,7.2,1.6,8-2.8c0.2-1,0.1-2-0.2-3
	c-1.1-3.7-1.6-5.8-4.1-8.6c-4.6-5-9.8-9.9-16.9-10c-12.6-0.3-23.3-16-19.1-27.7c0.9-2.4,2.3-4.4,4.9-5.3c2.2-0.7,4.4-1.6,6.5-2.4
	c4.2-1.5,6.1-4.3,6.3-9c2.4-59.3,2.2-118.6,3-177.9c0.4-28.8,1.2-57.6,1.9-86.4c0.2-7.1,1.5-8.1,8.1-10.8
	c22.8-9.2,43.7-21.1,57.9-42.3c2.5-3.7,5.3-7.2,8-10.8c1.7-2.3,4-3.2,6.9-3.2c7.9,0,10.2,2.2,9,9.9c-2.1,14.2-6.5,27.8-9.5,41.8
	c-2.1,9.6-4.1,19.2-4.5,29c-0.1,2.9-0.7,5.8-2.3,8.1c-5.6,7.7-5.7,16.5-5.4,25.3c0.4,11.7,0.5,11.7,15.1,12
	c11.3,0.7,25.6,1.6,39.9,2.4c2.3,0.1,4.6-0.1,7-0.1c4.7,0,5.7,1.1,5.1,5.7c-1.1,9.2-2.2,18.5-3.7,27.7c-2.6,16.8-1.4,33.6,0.7,50.3
	c1.9,15.5,3.3,31.1,4.5,46.7c1.6,22.1,3.5,44.1,7.6,65.9c2.9,15.3,2.6,29.8-7,42.9c-5.8,8-6.2,17.9-6.1,27.4c0,2.9,2.5,5.3,5.4,5.3
	c11.6-0.1,23.1-0.1,34.7-0.1c11,0,22,0,33,0c1.9,0,3.7,0,5.6,0h52.9c5.7,0,9.3,0.3,10.9-6c0.9-3.7,0.5-7.7-1.2-11.1
	c-2.3-4.5-6.1-2.8-9.7-5.1c-2.9-1.9-4.9-4.8-6-8.1c-3.9-11.2-4.7-22.6-2.5-34.4c7-37.1,15.4-73.8,23.1-110.7
	c5.4-25.8,5.7-51.5,1.7-77.4c-0.9-6.1-1.4-12.3-2.7-18.2c-0.8-3.5,0.4-4.3,3.3-4.8c10.2-1.7,20.3-3.3,30.5-5.3
	c10.4-2,20.9-4.1,30.9-7.8c7.5-2.8,10.2-6.2,9.9-14.2c-0.6-15-4.1-29.6-8.7-43.9c-18.5-58-37.4-116-56.9-173.7
	c-3.8-11.3-5.9-22.3-3.2-34.2c1.4-5.9-0.9-11.9-2.8-17.5c-7.3-21.4-13.6-43.1-17.1-65.4c-2.8-18-4.2-36.1,1.3-53.9
	c0.3-0.9-0.5-2.7,1.2-2.7c1.2,0,0.9,1.6,1.2,2.5c7,21.3,13.8,42.6,20.9,63.9c6,18.3,12.2,36.5,18.9,54.6c3.2,8.6,7.6,16.3,14.4,22.5
	c11.8,10.7,19.3,24,24.6,38.8c3.2,8.8,6.8,17.3,11.9,25.1c5.4,8.1,5.7,17.5,6.9,26.8c1.2,9.3,7.7,13,16.4,9.5
	c5.9-2.4,11.4-5.4,15.7-10.4c3-3.5,7-5.6,10.7-8.1c5.4-3.7,6.2-6,4.4-12.2c-0.6-2.1-1.1-4.2-1.3-6.3c-0.6-8-3.1-15.2-8.4-21.4
	c-3.7-4.4-4.3-10-4.7-15.5c-0.9-11.4,0-22.7,7.5-31.8c21.9-26.7,31.9-58.7,41.9-90.8c4-12.7,8.1-25.3,12.2-37.9
	c0.9-2.7,1.6-5.5,4.1-7.3c0.9-0.7,1.8-1.9,3-1.5c1.7,0.6,0.6,2.3,0.9,3.5c0.1,0.6,0,1.3,0,0.9c-0.5,5.7,1.5,9.8,2.1,14.2
	c2,14.2,0.7,28.3-0.6,42.4c-1.4,16.5-0.5,32.9,1.9,49.3c3,21.4,6.4,42.8,7.1,64.5c0.5,14.4-1.7,28.6-4.8,42.5
	c-5.5,24.6-4,49,0.7,73.3c4.6,23.7,7.1,47.7,8.5,71.8c1.3,22.4,3.1,44.9,4.6,67.3c1.5,22.9,2.9,45.9,4.4,68.8
	c1,14.6,1.9,29.2,3.1,43.8c0.3,4,3.9,6.9,4.5,11.1c0.9,6.7,2.5,13.4,4,20c1,4.4-0.8,7-4.9,8.4c-1.7,0.6-3.4,1.3-5.1,2
	c-4.1,1.7-5.6,5-5.2,9.3c0.1,1.5,0.2,3,0.7,4.4c1.7,4.9,2.7,9.5-1.1,13c-2,1.9-4.7,5.4-5.7,8c-1.6,4-3,8.1-4.6,12.1
	c-2.4,5.9-6.8,9.6-13.1,10.2c-11.1,1-19.7,10.6-20.2,21.8c-0.4,9.7,9,17.4,18.2,17.4h74.5c6.6,0,11.9-5.3,11.9-11.9v-12.3
	c0-3-1.1-5.8-2.7-8.4c-0.9-1.4-0.7-3.4,0.3-6.3c1.8-5.2,4.8-9.8,7.5-14.6c4.6-8.1,6.9-16.7,6.9-26.2c0-43.5-2-87-2.5-130.5
	c-0.1-10.2-0.2-20.3,0-30.5c0.2-9.1,2.3-17.6,6.9-25.2c8-13.3,10.6-27.7,10.6-43c-0.1-22.8-0.7-45.6-1.8-68.5
	c-0.2-4.1,4.7-8.6,8.8-8.1c1.3,0.2,1.5,1,1.8,2c12.1,36.7,24.2,73.5,36.2,110.2c3.5,10.7,6.6,21.6,10.4,32.2
	c6.5,17.8,5.6,35.6,1.1,53.5c-5.4,21.8-5.2,43.9-3,66c1.3,13.4,2.6,26.8,1.2,40.2c-0.9,8.6,1.2,17.2,5.9,24.4
	c2.7,4.2,5.4,8.3,7.9,12.7c1.7,2.9,0.3,5.4-0.4,8.4c-0.7,3.3-1.2,6.6-1.3,9.9c-0.3,9.8,0.8,24.9,13.6,24.9H929c7.1,0,13-5.8,13-12.9
	c0-5.7,0.5-11.6-0.3-17.2c-0.9-6.6-4.8-10.7-7.3-16.5c-1.9-4.4-3.3-9-4.5-13.7c-1-4.1-2.9-7.8-6.4-10.4c-3.2-2.3-4.2-5.4-3.6-9.2
	c1.9-12.3,3.6-24.6,3.2-37.2c-1-31.6-2.1-63.3-3.8-94.9c-1.1-20.1-2-40.3-3.4-60.4c-1.6-22.1-3.6-44.1-5.5-66.2
	c-1.7-19.2-3.6-38.4-5.3-57.7c-0.8-8.8-1.3-17.6-2.3-26.4c-1.2-10.4,0.2-20.6,1.1-30.9c0.3-2.9,5.2-7.4,8.1-7.7
	c1.4-0.2,2.2,0.6,2.8,1.6c1.3,2.1,2.9,4.1,3.9,6.4c3.6,8.5,11,11,19.1,12.5c0.6,0.1,1.6,0.3,1.9-0.1c4.4-3.9,6.4,0.1,9.1,2.5
	c12.8,11.3,27.8,13.9,41.1,5.1c3.7-2.5,6.3-5.9,8.5-9.6c4.3-7.3,8.4-14.7,12.7-22c3.4-5.8,4.7-5.6,8.1,0.4c4.2,7.6,4.2,16,4.8,24.3
	c1.2,19.5-2.9,38.4-6.3,57.4c-7.2,40-20.6,78.4-32.9,117c-2.7,8.5-3.8,17.3-3.8,26.2c0.1,10-1.5,19.6-5.9,28.8
	c-2.5,5.3-3.1,10.8-2,16.6c0.9,5.1,3.2,7.3,8.4,7.3C988.1,843.4,994.7,843.2,1001.4,843L1001.4,843z M1128,591.1
	c0.1-0.2,0.1-0.3,0.1-0.5c1.1-3.5,2.9-7.5,6.2-7.7c2.1-0.1,1.9,5,2.4,7.8c1.1,5.9,0.5,12,0.5,18c-0.3,6-0.6,12-0.9,18
	c0,0.6-0.4,1.2-0.6,1.8c-0.3-0.3-0.7-0.6-0.9-1C1128.1,616.2,1123,604.6,1128,591.1L1128,591.1z M168.3,1018
	c-0.4,2.8-1.6,3.8-4.3,3.2c-4.9-1.1-9.2-2.9-11.3-8c-1.9-4.7-0.5-8.8,2.9-12.3c2.2-2.3,4.4-4.6,6.6-6.8c0.9-0.9,1.6-2.3,3.3-1.8
	c1.8,0.6,1.7,2.3,1.9,3.7c0.8,4,0.5,8,0.6,12C168,1011.4,168.7,1014.6,168.3,1018L168.3,1018z M328.5,479.5
	c-6,12.6-5.1,26.3-3.3,39.7c1.7,12.8,0.9,25.6-0.5,38.4c-1.2,11.2-2.6,22.5-4.8,33.6c-1.1,5.5-2.5,6-7.2,2.6c-2.5-1.8-3.9-4.4-5-7.2
	c-5.4-13.7-6.5-27.6-4.3-42.1c4.4-29.9,8.4-59.9,12.7-89.9c3.3-22.7,5.9-45.5,10-68.1c0.3-1.8,0-4.7,2.3-4.9c2.5-0.2,3.9,2,4.7,4.4
	c2.1,6,3.5,12.2,3.7,18.5c0.3,7.1,0.1,14.3,0.1,21.5C337.7,444.3,336.6,462.4,328.5,479.5L328.5,479.5z M449,982.4
	c-0.6,7-1.9,13.8-5,20.2c-4.2,8.9-9.6,17.1-15.2,25.1c-1.5,2.1-2.8,2.4-5.4,1.6c-11.6-3.8-17.1-12.1-19.3-23.7
	c-4.9-25.2-5.4-50.5-3.6-76c2.1-29.8,7.9-59,10.2-88.7c1.2-15.8,0.7-31.6-0.1-47.4c-0.3-6.7-0.7-13.3-1.4-19.9
	c-0.2-2.7,0.5-3.4,3.2-3.6c9.3-0.7,18.6-1.5,27.8-2.7c3-0.4,4,0.7,4.8,3.3c3.7,11.3,2.2,24.8,1.2,36.4c-0.6,7.1-1.2,14.2-1.8,21.3
	c-0.5,6-0.8,12.1-1,18.2c-0.4,15.1-0.4,30.7,3.9,45.3c1.5,5.3,2.5,10.7,2.6,16.2C450.4,932.8,451,957.6,449,982.4L449,982.4z
	 M919.8,532.3c-2.7,4.8-5.1,5.1-9.7,1.8c-2.6-1.9-4.4-4.4-6.1-7.2c-5-8.6-7.2-18.1-8.5-27.9c-2.3-19-5.5-37.9-7.2-56.9
	c-1.6-18.4-1.9-36.9-2.7-55.4c-0.1,0-0.1,0-0.2,0c0-5.8,0-11.7,0-17.5c0-3.4,1.4-3.6,3.9-1.8c4.7,3.5,8.3,7.7,7.8,14.1
	c-1,13.4,2.8,25.8,7.6,38.2c8.1,21,13,42.9,16.3,65.1c1.6,10.7,2.8,21.4,3,32.3C924.1,522.7,922.4,527.7,919.8,532.3L919.8,532.3z"
	/>
</svg>
