<?xml version="1.0" encoding="utf-8"?>
<!-- Generator: Adobe Illustrator 22.1.0, SVG Export Plug-In . SVG Version: 6.00 Build 0)  -->
<svg version="1.1"
	 id="svg2" xmlns:cc="http://web.resource.org/cc/" xmlns:dc="http://purl.org/dc/elements/1.1/" xmlns:rdf="http://www.w3.org/1999/02/22-rdf-syntax-ns#" xmlns:svg="http://www.w3.org/2000/svg"
	 xmlns="http://www.w3.org/2000/svg" xmlns:xlink="http://www.w3.org/1999/xlink" x="0px" y="0px" viewBox="0 0 96.7 207.6"
	 style="enable-background:new 0 0 96.7 207.6;" xml:space="preserve">
<style type="text/css">
	.st0{fill:none;stroke:#000000;stroke-miterlimit:10;}
</style>
<path id="path15" class="st0" d="M28,46.2l-2.1,24.7l-6.8,15.1l-4.6,32.7l-8.3,9.8L7.7,142l8,13.9l-0.6,16l-13.2,5.8l0.3,8.9
	l14.8-1.8v7.1l-2.1,5.5l6.4,9.2l10.8,0.9l6.8-6.8l-4.6-9.9l1.8-13.9l12.3-6.5l3.7-7.1l12-0.3l1.2,24.3l5.9,12.3l6.2,7.7l15.4-0.3
	l3.1-10.8l-12.6-3.1l-1.3-5.8l13.9-1.8l0.9-8.3l-4-5.5l0.6-40.1l-9.9-15.1l-3.7-45L72.4,65l1.2-20l13.9-8L75.2,10.8L62.8,7.4L49.6,0
	L29,0.6L24,7.7L4,8.9L0,21.9l8.6,14.5C8.6,36.4,28,46.2,28,46.2z"/>
<path id="path19" class="st0" d="M39.4,6.6l8.3,9.1l-6.7-2.2l-4.5,1.2l-3-3.3L35.4,7C35.4,7,39.4,6.6,39.4,6.6z"/>
<path id="path21" class="st0" d="M63.7,9.4l10.2,3.5L84.4,37L57.1,51.4l-5-3.3l3.8-24.9C55.9,23.2,63.7,9.4,63.7,9.4z"/>
<path id="path23" class="st0" d="M15,173.8l-11.3,4.6l0.5,6.8l11.3-1.6C15.5,183.7,15,173.8,15,173.8z"/>
</svg>
