<?xml version="1.0" encoding="UTF-8"?>
<svg viewBox="0 0 640 480" xmlns="http://www.w3.org/2000/svg">
 <path d="m13.513 305.76c9.3814-50.023 4.2559-101.48 12.068-151.55 10.521-50.444 45.575-96.853 95.27-112.74 59.74-28.229 128.49-38.105 192.9-21.718 44.315 8.1776 87.929 20.774 129.28 38.907 27.78-22.727 67.425-44.075 102.79-25.886 23.301 33.492 66.244 51.59 78.84 92.457 14.491 32.92 17.606 71.43 2.3439 104.7-14.498 42.919-31.326 86.922-28.6 133.09 11.538 20.428 59.448 52.525 20.506 70.785-41.83 9.4907-56.002-41.013-61.127-72.886-10.6-44.614-15.176-90.672-29.571-134.35-21.008 17.228-7.1367 55.072-29.982 74.085-13.23 22.758-43.6 13.346-34.804-14.205-1.6998-40.339-15.335-78.802-32.826-114.64-11.716-37.922 8.3916-84.055 45.657-98.411 21.201 2.3578 37.151 18.818 56.302 26.599m-520 204.8c20.228-32.442 45.513-66.185 42.572-106.73 1.3395-13.237 0.83593-65.258-3.0509-28.077-4.9299 32.334-7.582 70.381 16.689 96 16.136 20.705 32.992 58.414 5.7647 77.274-23.388 17.924-57.532 19.9-75.33 45.134-10.496 33.55 28.631 64.344 55.736 77.435 31.509-2.4039 32.587-55.21 67.709-59.659 34.636-21.264 72.714-37.096 104.34-63.138 14.672-29.475-13.011-55.062-29.667-76.248-8.3154-11.898-17.275-23.294-25.72-35.111m196.44-21.587c-6.3514 35.227-34.87 59.229-54.057 87.432-4.8032 33.202 2.4995 67.315-3.165 100.22-15.016 22.286-47.45 54.621-9.8626 75.009 23.808 25.175 60.812 8.0812 58.336-25.946 6.2851-35.422 29.289-63.058 48.811-91.778 14.27-21.692 24.885-45.389 34.036-69.652m25.662 28.079c-31.103 2.4121-73.651 33.777-38.263 62.731 28.653 24.018 17.82 77.528 50.883 92.734 22.522 3.9435 80.688-4.594 50.574-35.469-25.11-27.242-25.292-62.77-26.314-97.139-7.3099-17.204-2.7703-72.785 23.111-43.936 6.3247 6.6531 11.964 14.336 20.084 18.923m-352.46 53.114c-14.783 35.85 24.06 72.53 3.9946 107.25-23.096 17.772-67.128 15.784-79.076-14.487-4.2633-17.297 4.7852-34.221 5.4105-51.444m102.72-85.738c25.242 15.477 54.358 31.177 84.908 24.694m283.57-145.78c31.097-13.967-16.134 23.846-0.26465 0.20978m13.969-44.311c-4.5114 2.785-9.0228 5.5701-13.534 8.3551" fill="none" stroke="#000" stroke-width="10"/>
</svg>
