<?xml version="1.0" encoding="UTF-8"?>
<svg width="800" height="625.16" fill-rule="evenodd" version="1.1" viewBox="0 0 640.00001 500.13006" xmlns="http://www.w3.org/2000/svg">
 <g transform="translate(-554.65 43.667)">
  <g transform="matrix(6.7586 0 0 6.7586 -3194 -2628.6)">
   <path d="m584 383.5s-4.819-1.911-8.474 0.499c-3.656 2.409-4.509 6.49-4.806 7.527-0.296 1.036-0.247 4.147-0.247 4.147l0.445 0.494s0 2.814 0.197 3.011c0.198 0.198 0.247 0.445 0.247 0.445l-0.684 0.629s-4.892-5.198-8.897-4.175c-4.005 1.024-5.86 4.229-5.86 4.229l-1.197 0.798-0.075 2.22s1.709-0.08 2.583 0.398 3.815 1.393 4.769 1.035c0.953-0.358 1.152-1.712 2.066-1.234 0.914 0.477 2.186 2.309 2.186 2.747s3.2411 7.5482 3.2411 7.5482l-3.6214 4.3204-3.2857 3.4724s0.212 0.608 0.664 0.627 1.489-0.076 1.564-0.227c0.076-0.151 1.847 0 1.847 0s4.85-3.148 5.226-3.309c0.377-0.162 0.753-0.377 0.753-0.377s2.527 1.4 3.494 1.4c0.968 0 1.452 0.27 1.452 0.27s-2.957 3.016-4.409 3.986c-1.451 0.97-2.795 1.778-1.451 1.778s5.591 0.107 7.903-1.239c2.312-1.347 4.892-3.448 4.892-3.448s0.406-0.269 0.473 0.485c0.066 0.754 0.065 4.13 0.388 5.782 0.322 1.652 0.788 4.13 0.752 5.566-0.036 1.437 0.153 2.224-0.201 3.09-0.355 0.866-0.539 1.903-0.44 2.556 0.1 0.653 0.255 0.852 0.241 1.249-0.014 0.398-0.226 0.753-0.226 0.753s0.085 0.709 0.085 1.348 0.127 1.179 0.396 1.449c0.27 0.269 0.099 0.88 0.057 1.533s-0.028 1.108-0.028 1.108-0.734 2.055-0.901 2.333c-0.167 0.279-0.504 1.256-0.504 1.256s-1.191 1.138-1.579 1.776-0.526 1.36-0.554 1.831c-0.028 0.472 1.662 1.36 2.382 1.36s1.385-0.305 1.966 0.111c0.582 0.416 1.219 0.139 1.8 0.611 0.582 0.471 1.552 0.527 1.552 0.527s2.404 0.61 4.072 0.662c1.668 0.053 5.16-0.417 5.16-0.417s3.337-1.094 3.649-2.658c0.313-1.564-0.73-8.653-0.365-9.54 0.365-0.886 2.503-10.634 3.493-11.624 0.99-0.991 2.189-3.806 3.336-4.014 1.147-0.209 4.431 0.938 5.369 0.886 0.939-0.052 1.929 0.782 2.138 2.242 0.208 1.459 1.251 4.378 2.137 5.317 0.886 0.938 1.042 1.616 0.99 1.928-0.052 0.313-0.208 7.82-0.208 7.82s-0.448 0.549-1.164 1.195c-0.717 0.647-0.897 1.221-1.04 1.509-0.143 0.287-0.502 0.646-0.502 0.646 3.4406 3.0876 6.6524 3.8579 13.885 1.3808 0.84426-0.43951 1.0068 0.42456 2.1161 1.2964 1.192 0.93686 3.3746 1.8998 5.5984 1.776 1.8112-0.24942 4.0501-0.54222 5.1376-1.3922 1.2127-0.78101 2.346-1.042 2.241-2.919-0.104-1.876-1.616-8.236-1.616-8.236s-1.094-5.995-0.938-9.748-0.089-10.505-0.089-10.505 2.311 1.196 3.48 0.245c1.17-0.952 1.857-2.067 2.04-3.454 0.183-1.386-0.818-6.029-0.127-6.967s0.247-2.814 0-3.851-1.158-3.528-2.16-4.746c-1.001-1.218-1.204-1.11-1.204-1.11s-0.122 1.11-0.393 1.177c-0.27 0.068-0.798 0.122-0.757 0.853 0.04 0.731 0.108 1.516-0.203 1.786-0.312 0.271-0.528 0.636-0.528 0.839s0.06 1.19 0.189 1.5c0.128 0.309-0.078 0.464-0.206 0.645-0.129 0.18 0.387 1.287 0.037 1.693s-0.941-0.077-0.952-0.57c-0.011-0.494-0.022-0.735-0.198-0.922-0.175-0.186-0.197-0.844-0.197-1.009 0-0.164 0.461-3.657-2.297-7.953-2.759-4.296-5.252-6.427-5.252-6.427s-4.985-5.394-9.97-6.726-8.674-1.366-8.807-1.366-8.226 0.3-8.78 0.05c-0.553-0.25-5.179-1.526-8.502-1.887-3.324-0.361-4.431-0.666-4.431-0.666s-1.185 0.075-4.572-0.033c-3.387-0.107-4.462 0-4.785 0.377-0.322 0.377-1.006 0.621-1.006 0.621zm-9.307 12.843s0.173 1.274 0.347 1.534c0.174 0.261 0.058 3.271-0.203 3.879-0.26 0.608-0.231 1.216-0.434 1.534-0.202 0.319-0.231 1.042-0.231 1.042s-1.068 1.891-1.182-0.083c-0.114-1.975 0.038-2.013 0.342-2.468 0.304-0.456 0.417-1.633 0.417-2.051 0-0.417 0.342-1.291 0.38-1.67 0.038-0.38-0.184-2.005 0.19-1.861zm0.447-2.794s-0.543-0.157-0.606 0.502c-0.062 0.66-0.146 1.581 0.251 1.486 0.397-0.094 0.104-0.879 0.282-0.994 0.177-0.115 0.292-0.314 0.292-0.638 0-0.325-0.219-0.356-0.219-0.356zm18.339 7.954s-0.265 0.435 0 0.511c0.265 0.075 0.322-0.379 0.303-0.492-0.019-0.114-0.303-0.019-0.303-0.019zm15.163-9.442s-2.164-0.57-4.784 0.417c-2.62 0.988-2.582 1.102-2.657 2.43-0.076 1.329-1.329 2.544-1.481 3.152-0.152 0.607-0.19 1.367 0.379 1.67 0.57 0.304 2.734 0.874 3.418 2.013 0.683 1.139 0.303 1.253-0.076 1.139-0.38-0.114-0.722-0.874-2.734-0.836s-3.114 0.38-3.227 1.709c-0.114 1.329 1.064 2.039 1.032 4.097-0.033 2.059-0.211 3.242-0.728 3.826-0.518 0.583-0.793 0.227-0.793-0.243 0-0.471 0.388-2.383-0.048-3.566-0.437-1.184-1.747-0.892-1.747-0.892s-0.356 0.746-0.809 1.702-1.469 5.433-0.933 6.41c0.536 0.976 0.877 0.879 1.292 0.756 0.414-0.122 1.218-0.61 1.413 0.074 0.195 0.683 0.878 2.022 2.62 1.151s2.115-1.659 2.115-1.659 0.581 0.829 1.037 0.705c0.456-0.125 1.12-1.867 1.12-1.867s0.29 1.245 1.12 0.996c0.829-0.249 1.99-1.244 2.032-1.784 0.041-0.539 0.415-1.078 0.829-0.871 0.415 0.208 1.328 0.332 1.867-0.58 0.539-0.913-0.042-1.452 0.29-2.074s0.996 0.622 1.867 0.249c0.871-0.374 2.281-1.784 1.949-3.318-0.332-1.535-0.936-3.83-1.515-5.814s-1.493-3.022-2.224-3.968c-0.731-0.947 0.426-0.977 1.036-0.611 0.609 0.366 1.95 2.808 2.254 4.182 0.305 1.374 1.798 5.311 2.194 3.297 0.396-2.015 0.152-2.748 0.761-2.839 0.61-0.092 1.067-0.824 1.006-1.954-0.061-1.129-1.327-3.281-0.801-3.837 0.527-0.557 1.111-0.469 0.878-1.422-0.234-0.952-0.742-3.669-3.639-4.955-2.898-1.286-6.259-2.754-8.477-3.323-2.218-0.57-5.801-0.738-9.251-1.082s-7.355-1.425-10.605 0c-3.25 1.426-5.063 2.66-4.95 3.875 0.114 1.215-0.189 2.126-1.215 3.303-1.025 1.177-2.316 4.139-2.24 4.822s1.026 0.797 1.063 0.38c0.038-0.418-0.075-1.329 0.38-2.126 0.456-0.798 0.76-0.646 1.025 0.683 0.266 1.329 0.176 1.057-0.144 1.538-0.319 0.48-0.822 1.602-0.205 1.602s2.947-0.297 4.273 0.321c1.325 0.618 1.987 1.373 1.805 1.877-0.183 0.504-0.32-0.229-1.714-0.664s-3.542-0.961-4.661-0.343c-1.12 0.618-1.782 1.534-1.554 2.655 0.228 1.122 0.663 0.664 0.777 0.344 0.114-0.321 0.365-0.527 0.914-0.618 0.548-0.092 2.445-0.023 3.199 0.435s1.119 0.778 0.891 1.236c-0.229 0.458-0.8-0.504-2.057-0.641-1.256-0.137-3.016 0-3.381 1.03-0.366 1.03-0.447 1.522-0.371 1.964 0.075 0.442 0.617 0.316 1.563 0.493 0.946 0.176 2.255 0.346 2.59 1.174 0.334 0.827 0.175 0.827 0.175 0.827s-0.366-0.398-1.178-0.525-1.369-0.43-1.544 0.032c-0.175 0.461 0.303 0.445 0.478 0.891s0.239 0.513 0.239 0.513-0.241 0.022-0.658-0.022c-0.416-0.044-0.723 0-0.789 0.11-0.066 0.109 0.395 0.767-0.022 0.921-0.417 0.153-0.79-0.636-1.382-0.79-0.592-0.153-0.614 0-0.657 0.373-0.044 0.373-0.11 0.439-0.307 0.417-0.198-0.022-0.066-1.031-0.439-1.623s-3.833-7.394-6.5-9.464c-2.666-2.071-6.701-3.123-8.947-1.158-2.245 1.965-2.14 3.649-2.14 3.649s2.14 0.245 2.877 0.807c0.737 0.561 1.684 0.701 1.965 0.315 0.281-0.385 0.491-0.808 0.238-1.077-0.252-0.268-0.663-0.584-0.41-0.947s0.6-1.184 1.137-1.105 0.616 0.473 0.616 0.473 0.236-0.426 0.426-0.442c0.189-0.015 0.852 0.316 0.884 0.616s0.158 0.568 0.158 0.568 0.931-0.126 1.137 0.127c0.205 0.252 0.158 0.537 0.158 0.537s-0.979 1.073-0.095 1.247 1.5-0.032 1.879 0.284l0.379 0.316s-1.216 0.631-0.963 1.105c0.252 0.474 0.868 0.9 1.31 1.011 0.442 0.11 0.126 0.347 0.553 0.426 0.426 0.079 0.457 0.095 0.457 0.095s0.106 0.625-0.097 0.828c-0.202 0.202-0.622 0.323-0.292 0.57 0.33 0.248 0.36 0.188 0.36 0.406 0 0.217 0.06 0.352 0.194 0.36 0.135 7e-3 0.6 7e-3 0.6 7e-3s0.276 0.536 0.539 0.718c0.262 0.182 0.252 0.303 0.141 0.364s-0.303 0.122-0.313 0.263c-0.01 0.142-0.063 0.437 0.309 0.903s0.48 0.388 0.744 0.404c0.263 0.015 0.557-0.047 0.542 0.388-0.016 0.434-0.031 1.039-0.031 1.039s-0.108 0.15 0.896 0.799c1.005 0.648 1.528 0.46 1.507 1.046s-0.377 0.921 0.23 1.109 1.235 0.377 1.486 0.105 0.481-0.105 0.544 0.125-0.544 0.21-0.084 0.67c0.461 0.46 0.524 0.649 0.733 0.46 0.209-0.188 0.356-0.125 1.004-0.481 0.649-0.356-0.042-0.439 0.67-0.335 0.711 0.105 0.272 0.481 0.774 0.544s1.426-0.797 1.882-1.285c0.456-0.489 1.336-1.401 2.509-1.825s2.541 0.945 3.062 0.521c0.521-0.423 1.857-4.756 1.955-6.451 0.098-1.694 0.033-2.736 0.424-2.964 0.39-0.228 0.879 0.977 0.879 1.107 0 0.131 0.684-0.553 0.684 0.522s-0.391 3.681 0.098 3.518 1.694-2.117 1.694-3.127 0.163-1.401-0.195-1.401c-0.359 0-1.694 0.097-1.369-0.294 0.326-0.39 1.13-0.91 1.431-1.315 0.301-0.404 0.271-1.037 0.088-1.191-0.184-0.155-0.25-0.096-0.734 0.456-0.485 0.551-0.052 0.779-0.764 0.632s-1.314-0.22-1.475 0.037c-0.162 0.257-0.764 0.839-0.859 0.846-0.096 7e-3 -0.331-0.412-0.477-0.493-0.147-0.081-0.044-0.89-0.14-0.875-0.095 0.014-0.462-0.074-0.374-0.361s0.389-0.588 0.389-0.588-0.061-1.899 0.014-2.049 0.3-0.225 0.3-0.225-0.21-0.466 0.09-0.495c0.3-0.03 0.434 0.06 0.434 0.06l1.325-1.622s1.266-0.181 1.346 0.04c0.08 0.222 0.321 0.383 0.522 0.363s0.623 0.08 0.663 0.402 0.02 0.544 0.241 0.544 0.643 0.08 0.643 0.08l0.482-0.563s-0.201-1.168 0.02-1.45c0.221-0.281 0.663 0.302 0.663 0.403s-0.141 0.302 0.14 0.483c0.282 0.181 0.322 1.047 0.262 1.449-0.061 0.403-0.904 1.027-0.703 1.932 0.2 0.906 0.763 0.544 0.964 0.262s0.884-1.188 0.864-2.395c-0.021-1.208 0.2-2.274 0.401-2.697s1.833-1.836 1.86-3.549c0.027-1.714 0.217-2.774-0.952-3.508s-2.121-2.366-1.659-2.665c0.463-0.299 1.55 0.517 2.42 1.441 0.871 0.925 0.789 2.04 1.686 2.094 0.898 0.054 2.284-0.381 3.318-0.435 1.033-0.055 1.767-0.163 1.767-0.163s2.04-0.191 2.665-0.136c0.625 0.054 1.06 0.544 0.68 0.571-0.381 0.027-1.387 0.326-0.898 0.516 0.49 0.191 1.877 0.435 2.72 0.707s2.882 1.795 2.828 2.502c-0.055 0.707-1.632-0.217-1.904-0.408-0.272-0.19-1.577-1.006-2.284-1.196-0.707-0.191-1.085-0.381-1.085-0.381zm35.874 21.005s1.636 0.629 1.793 1.635c0.157 1.007 0 3.145-0.377 3.145-0.378 0-1.29-0.692-1.29-1.289 0-0.598 0.126-0.849-0.157-1.353-0.283-0.503 0.031-2.138 0.031-2.138zm-13.432 22.951s-1.152 1.919-1.392 3.839 0.192 4.607 0.288 5.135 0.672 4.272 1.584 4.272 2.879-0.816 2.735-1.92-0.336-1.632-0.576-2.928c-0.24-1.295 0.096-4.223-0.528-5.567-0.623-1.344-0.863-2.064-1.487-2.448z" fill="#2c2c2b"/>
   <path d="m612.71 387.07s2.04-0.98 6.972-0.213c4.931 0.766 7.481 1.064 11.392 4.94s7.482 7.241 8.502 10.479c1.02 3.237 1.02 4.088 1.233 5.707 0.212 1.619 0.51 4.217-0.085 4.6-0.595 0.384-1.275 0.043-1.275 0.043s0.297-1.15-0.341-0.81c-0.637 0.341 0.085 2.215 0.085 2.215s2.211 5.964 2.509 9.967c0.297 4.004-0.426 6.73-0.426 6.73s0.638 6.261 1.616 10.18 1.615 7.113 1.063 8.476c-0.553 1.363-1.106 2.002-1.786 1.619-0.68-0.384-0.893 0.681-1.275 0.553-0.383-0.127-0.68-1.916-1.658-2.342s-2.211 0.298-2.466 0.426-1.275 0.511-1.445-0.852 0.34-1.406 0.34-1.406l0.085-2.641s0.34-0.894 1.36-0.894c1.021 0 1.871 0 1.743-0.426-0.127-0.426-2.125-0.469-2.338-0.17-0.212 0.298-1.487 0.213-1.275-0.298 0.213-0.512 1.063-0.767 1.7-0.767 0.638 0 2.211 0.042 1.913-0.469-0.297-0.511-0.595-0.426-1.105-0.468-0.51-0.043-2.635 0.128-2.635-0.298s0.212-1.449 0-1.576c-0.213-0.128-0.17-0.767 0.637-1.321 0.808-0.553 1.275-0.383 2.126 0 0.85 0.384 2.508 1.576 2.423 0.81-0.085-0.767-1.148-1.065-1.616-1.363-0.467-0.299-1.232-0.852-2.04-0.852s-1.785 1.192-2.126 0.937c-0.34-0.256-1.743-2.471-1.955-3.28-0.213-0.809-0.307-1.861-1.205-2.917-0.899-1.055-1.457-1.427-1.457-1.024 0 0.404 0.992 1.397 0.31 1.552-0.681 0.155-1.177-0.434-1.177-0.869s-2.603-2.67-2.974-2.856c-0.372-0.186-0.961-0.931-1.89-1.273-0.93-0.341-1.952-0.652-2.82-0.652-0.867 0-0.929 0.187-0.96 0.621-0.031 0.435 0.062 0.466-0.774 0.466-0.837 0-3.625-0.218-3.811 0.124-0.186 0.341-1.487 0.28-2.045 0.217-0.558-0.062-4.431-0.683-4.431-1.459s-0.186-2.017 0.465-2.297c0.65-0.279 4.368 0.776 5.452 1.149 1.085 0.372 3.532 0.62 5.143 0.248s2.324-0.404 3.408 0.031c1.085 0.435 3.764 1.285 4.344 1.7 0.581 0.415 1.493 0.788 0.913-0.083-0.581-0.871-2.489-2.779-4.936-3.028s-3.65 0.415-4.894 0.207c-1.245-0.207-2.779 0-4.148-0.954s-2.572-1.119-3.94-1.534c-1.369-0.415-1.659-0.539-1.245-1.825 0.415-1.286 1.991-2.447 3.318-2.738 1.328-0.29 3.639-2.291 4.858-2.576 1.218-0.285 3.29-1.14 3.29-1.14s-0.731-0.366-2.031-0.04c-1.3 0.325-5.93 2.197-6.012 2.442-0.081 0.244-0.731 0.732-1.421 0.732-0.691 0-0.163-0.732 0.324-1.099 0.488-0.366 0.894-2.035 0.854-2.32-0.041-0.284-0.366 0.326-0.975 0.937-0.61 0.61-0.813 1.505-1.463 1.505s-0.406-0.773-0.487-1.058-0.731 0.367-0.934 0.774c-0.204 0.407-1.016 2.808-1.097 4.151s-0.366 2.89-0.366 4.07-0.525 3.995-1.975 5.76-2.143 3.025-2.143 2.458-0.126-6.492-0.126-6.492-0.631 0.441-0.883 1.513c-0.252 1.071 0.126 3.907 0.126 5.105s-0.252 5.042-0.252 6.051c0 1.008-0.378 4.538-0.945 5.799-0.567 1.26-0.378 3.094-0.378 3.094s0.609 4.829 0.332 5.717-1.883 1.72-2.326 1.11c-0.444-0.611-0.041-1.172-0.213-1.275-0.171-0.103-0.788 0.32-0.697 0.538 0.092 0.217 0.069 0.607-0.171 0.916s-0.4 0.492-0.686 0.24c-0.285-0.252-0.388-0.504-0.559-0.836-0.172-0.331-0.48-1.247-0.903-1.442-0.423-0.194-0.8-0.252-0.663-0.526 0.138-0.275 0.926-0.184 0.846-0.745-0.08-0.56-0.937-0.721-1.394-0.48-0.457 0.24 0.08 0.675 0.069 0.881-0.012 0.206-0.252 0.527-0.457 0.607-0.206 0.08-0.834 0.171-0.949 0.481-0.114 0.309-0.811 0.644-1.151 0.175-0.341-0.468-0.27-0.511-0.511-0.894-0.24-0.383-0.17-0.838 0.128-1.335s0.354-0.71 0.822-1.107c0.467-0.398 0.17-0.441 1.105-0.426 0.935 0.014 0.709 0.482 1.616 0.468 0.906-0.014 1.346-0.085 1.232-0.369-0.113-0.284-0.425-0.596-0.765-0.539-0.34 0.056-0.451-0.075-0.73-0.224-0.278-0.148-2.132 0.13-2.466-0.111s0.037-0.519 0.408-0.519 2.67 0.259 2.819 0.055c0.148-0.204 0.204-0.296 0.612-0.296s0.816-0.52 0.445-0.631-2.893 0.093-3.394-0.111-0.668-0.26-0.056-0.39c0.612-0.129 3.505 0.075 3.153-0.445-0.352-0.519-2.3-0.333-2.615-0.333s-0.705 0.37-0.927-0.167c-0.223-0.538-0.469-0.892-0.732-1.221s-0.373-0.351-0.263-0.57c0.109-0.219 0.019-3.122 0.669-4.832 0.65-1.709 1.625-2.36 2.194-1.994 0.568 0.366 1.909 1.994 2.152 1.669 0.244-0.326-0.65-1.628-1.178-2.239s-2.356-0.285-2.356-0.285-0.162-0.895 0.122-2.198c0.285-1.302 0.61-2.645 0.61-2.645s0.487-4.355 0.65-5.088c0.162-0.732 0.446-1.099 1.137-1.913 0.69-0.814 0.162-0.773-0.285-0.529-0.446 0.244-0.812 0.896-1.096 0.367-0.285-0.53 0.243-1.059 0.893-1.547s0.569-0.692 1.585-0.692c1.015 0 2.112 1.343 2.477 0.977 0.366-0.366-0.743-1.324-1.116-1.647-0.374-0.322-0.863-0.645-1.339-0.451-0.476 0.193-1.326 0.606-1.892 0.606-0.567 0-0.68-0.301-0.68-0.901s-0.286-0.685-0.471-0.585c-0.186 0.1-0.5 1.1-0.772 1.6-0.271 0.5-0.571 0.614-0.971 0.328-0.4-0.285-0.529-0.9-0.629-1.314s-0.1-1.4-0.485-1.357c-0.386 0.043-0.358 2.1-0.358 2.4s0.515 0.885 0.429 1.214 0.314 0.843 0.729 1.229c0.414 0.385 0.657 1.199 0.357 1.399s-0.9-0.942-1.072-0.528c-0.171 0.414-0.269 0.834 0.058 1.239s0.058 0.81 0.481 1.195c0.423 0.386 0.603-0.235 0.603 1.357s-0.058 3.155-0.058 3.155-0.579 0.231-0.26 0.376c0.318 0.145 0.492 0.579 0.376 0.84-0.116 0.26-0.376 0.058-0.376 0.694 0 0.637 0.116 1.534 0.029 1.65s-0.319 0.898-0.637 0.898-0.55 0.173-0.579 0.463c-0.029 0.289-0.286 1.141 0.036 1.587 0.323 0.447 0.477 0.708 0.292 0.862-0.184 0.154-0.675 1.632-0.733 2.327s0.347 1.505 0.26 2.287c-0.086 0.781-0.665 0.81-0.318 1.476s0.666 2.431 0.318 2.692c-0.347 0.26-0.3 1.218-0.781 1.238-0.481 0.019-1.809-0.174-1.847 0.405-0.039 0.578 1.404 0.694 0.943 1.233-0.462 0.54-1.751 0.058-1.963 0.482-0.211 0.425-0.442 0.868-0.731 0.56-0.289-0.309-0.52-0.348-0.52-0.868 0-0.521 0.251-1.253 0.655-1.697 0.404-0.443 0.865-0.597 0.846-1.311-0.019-0.713 0.578-0.79 0.308-1.234-0.269-0.443-0.365-0.694-0.346-0.925s-0.018-2.008-0.018-2.008 1.65 0.227 1.195-0.285-1.223-0.085-1.195-0.597-0.057-1.422 0.569-1.707c0.626-0.284 1.877-0.341 1.251-0.881-0.625-0.541-1.848 0.17-1.82-0.768 0.028-0.939 0.329-0.824 0.431-1.407 0.101-0.583 0.038-1.23 0.038-1.23s-1.011-7.982-1.076-9.839-0.163-7.167 0.065-7.656 2.304-2.753 3.175-3.707 1.535-0.622 2.157 0.83c0.622 1.451 3.816 3.152 6.097 3.027 2.281-0.124 4.23-0.954 5.35-1.617 1.12-0.664 5.392-2.981 7.876-5.45s3.1-2.609 3.06-3.584c-0.039-0.976 0.239-1.215 0.477-1.355 0.239-0.139 0.219 0.458 0.477 0.618 0.259 0.159 0.577 0.199 0.577-0.14 0-0.338-0.12-0.736 0.079-0.916 0.199-0.179 0.259 0.159 0.239-0.557-0.02-0.717 0.099-0.737 0.278-0.777s0.139-0.637 0.139-0.637 3e-3 -0.504 0.148-0.561c0.145-0.058 0.29 0.103 0.286-0.318s-0.019-0.608 0.137-0.692c0.157-0.084 0.199-0.613 0.085-0.875-0.115-0.261-0.384-0.425-0.384-0.523 0-0.099-0.108-1.695 0.347-1.763 0.455-0.069 0.671-0.046 0.614 0.728-0.057 0.775-0.103 2.528 0.443 2.118 0.545-0.41 0.295-2.63 0.295-2.63s-0.312-1.032-0.368-1.481-0.206-0.824-0.374-1.311c-0.168-0.486 0-0.449-0.299-0.711s-0.851-4.132-0.955-4.97c-0.105-0.838-0.471-1.555-1.313-2.433s-2.122-1.427-2.305-1.5-0.559-0.364-0.559-0.364zm-38.021 9.274s0.173 1.274 0.347 1.534c0.174 0.261 0.058 3.271-0.203 3.879-0.26 0.608-0.231 1.216-0.434 1.534-0.202 0.319-0.231 1.042-0.231 1.042s-1.068 1.891-1.182-0.083c-0.114-1.975 0.038-2.013 0.342-2.468 0.304-0.456 0.417-1.633 0.417-2.051 0-0.417 0.342-1.291 0.38-1.67 0.038-0.38-0.184-2.005 0.19-1.861l0.374 0.144zm0.447-2.794s-0.543-0.157-0.606 0.502c-0.062 0.66-0.146 1.581 0.251 1.486 0.397-0.094 0.104-0.879 0.282-0.994 0.177-0.115 0.292-0.314 0.292-0.638 0-0.325-0.219-0.356-0.219-0.356zm18.339 7.954s-0.265 0.435 0 0.511c0.265 0.075 0.322-0.379 0.303-0.492-0.019-0.114-0.303-0.019-0.303-0.019zm33.92 30.387s-1.848-2.177-2.608-2.557c-0.759-0.38-1.493-0.025-1.012 0.405s1.772 1.873 1.544 2.481c-0.228 0.607-1.215-0.127-1.316-0.279s-1.848-2.202-2.101-2.632c-0.253-0.431-0.709-0.886-1.494-0.912-0.784-0.025-2.278 0.076-2.252 0.608 0.025 0.531 0.632 4.581 1.873 5.999 1.24 1.417 1.569 2.126 1.569 2.405 0 0.278-0.405 1.037-0.076 1.291 0.329 0.253 0.987 0.911 0.835 1.214-0.151 0.304-0.582 0.557-0.506 1.038s-0.43 0.608-0.379 0.962c0.05 0.355-0.026 2.86-0.026 2.86s0.532 0.254 0.405 1.038c-0.126 0.785-0.405 0.861-0.658 1.494-0.253 0.632-0.101 1.012 0.051 1.063 0.152 0.05 0.379 0.202 0.607-0.101 0.228-0.304 0.608-0.507 0.608-0.507l1.544-0.025s1.164 1.519 1.417 1.519h0.962s0.304-0.81 0.608-0.582c0.303 0.227 0.86 1.392 1.215 1.341 0.354-0.051 0.961-1.392 0.961-1.392s0.102-1.392-0.101-1.468c-0.202-0.076-0.228-0.987-0.405-1.443s-0.076-2.557-0.43-2.835 0.076-0.506 0.126-0.835c0.051-0.329 0.178-1.089-0.05-1.266s-0.228-0.886-0.355-1.063c-0.126-0.177-0.405-0.683-0.405-0.683s-1.113-2.506-0.582-3.114c0.532-0.607 0.582 0.506 1.013 0.709 0.43 0.202 0.683-0.304 0.531-0.582-0.152-0.279-0.379-0.912-0.379-1.367 0-0.456 0.227-0.253 0.531-0.025 0.304 0.227 0.582 0.405 0.532-0.026-0.051-0.43-0.633-1.24-0.861-1.518 0.228 0.278-0.936-1.215-0.936-1.215zm18.488-27.238s-0.531 0.733-0.531 0.899v2.165c0 0.333-0.034 0.499-0.167 0.499s-0.531-0.4-0.531 0.366c0 0.767 1.429 1.066 1.229 1.366-0.199 0.3-1.429 1.232-0.498 1.898 0.93 0.666 1.961 0.633 1.994 2.464 0.033 1.832 0.166 4.196-0.964 4.462-1.13 0.267-2.459-0.199-2.592-1.298s-0.399-2.997-0.798-3.464c-0.399-0.466-0.665 0.7-0.665 1.199 0 0.5 0.3 1.366 0.3 2.298s0.531 2.165 1.628 2.597c1.097 0.433 3.723 0.034 3.889-1.665 0.166-1.698 0.199-4.195-0.133-5.228-0.333-1.032-0.532-2.164-0.1-2.63 0.432-0.467 0.365-2.398 0.299-2.964s-0.798-0.5-0.798-0.5-0.5-1.934-0.887-2.357-0.675-0.107-0.675-0.107zm-5.202 9.627s-0.251 0.215-0.12 0.538c0.132 0.324 0.43 0.515 0.586 0.348 0.155-0.168 0.322-0.228 0.191-0.455-0.132-0.228-0.478-0.431-0.478-0.431h-0.179zm-32.043-22.218s-2.164-0.57-4.784 0.417c-2.62 0.988-2.582 1.102-2.657 2.43-0.076 1.329-1.329 2.544-1.481 3.152-0.152 0.607-0.19 1.367 0.379 1.67 0.57 0.304 2.734 0.874 3.418 2.013 0.683 1.139 0.303 1.253-0.076 1.139-0.38-0.114-0.722-0.874-2.734-0.836s-3.114 0.38-3.227 1.709c-0.114 1.329 1.064 2.039 1.032 4.097-0.033 2.059-0.211 3.242-0.728 3.826-0.518 0.583-0.793 0.227-0.793-0.243 0-0.471 0.388-2.383-0.048-3.566-0.437-1.184-1.747-0.892-1.747-0.892s-0.356 0.746-0.809 1.702-1.469 5.433-0.933 6.41c0.536 0.976 0.877 0.879 1.292 0.756 0.414-0.122 1.218-0.61 1.413 0.074 0.195 0.683 0.878 2.022 2.62 1.151s2.115-1.659 2.115-1.659 0.581 0.829 1.037 0.705c0.456-0.125 1.12-1.867 1.12-1.867s0.29 1.245 1.12 0.996c0.829-0.249 1.99-1.244 2.032-1.784 0.041-0.539 0.415-1.078 0.829-0.871 0.415 0.208 1.328 0.332 1.867-0.58 0.539-0.913-0.042-1.452 0.29-2.074s0.996 0.622 1.867 0.249c0.871-0.374 2.281-1.784 1.949-3.318-0.332-1.535-0.936-3.83-1.515-5.814s-1.493-3.022-2.224-3.968c-0.731-0.947 0.426-0.977 1.036-0.611 0.609 0.366 1.95 2.808 2.254 4.182 0.305 1.374 1.798 5.311 2.194 3.297 0.396-2.015 0.152-2.748 0.761-2.839 0.61-0.092 1.067-0.824 1.006-1.954-0.061-1.129-1.327-3.281-0.801-3.837 0.527-0.557 1.111-0.469 0.878-1.422-0.234-0.952-0.742-3.669-3.639-4.955-2.898-1.286-6.259-2.754-8.477-3.323-2.218-0.57-5.801-0.738-9.251-1.082s-7.355-1.425-10.605 0c-3.25 1.426-5.063 2.66-4.95 3.875 0.114 1.215-0.189 2.126-1.215 3.303-1.025 1.177-2.316 4.139-2.24 4.822s1.026 0.797 1.063 0.38c0.038-0.418-0.075-1.329 0.38-2.126 0.456-0.798 0.76-0.646 1.025 0.683 0.266 1.329 0.176 1.057-0.144 1.538-0.319 0.48-0.822 1.602-0.205 1.602s2.947-0.297 4.273 0.321c1.325 0.618 1.987 1.373 1.805 1.877-0.183 0.504-0.32-0.229-1.714-0.664s-3.542-0.961-4.661-0.343c-1.12 0.618-1.782 1.534-1.554 2.655 0.228 1.122 0.663 0.664 0.777 0.344 0.114-0.321 0.365-0.527 0.914-0.618 0.548-0.092 2.445-0.023 3.199 0.435s1.119 0.778 0.891 1.236c-0.229 0.458-0.8-0.504-2.057-0.641-1.256-0.137-3.016 0-3.381 1.03-0.366 1.03-0.447 1.522-0.371 1.964 0.075 0.442 0.617 0.316 1.563 0.493 0.946 0.176 2.255 0.346 2.59 1.174 0.334 0.827 0.175 0.827 0.175 0.827s-0.366-0.398-1.178-0.525-1.369-0.43-1.544 0.032c-0.175 0.461 0.303 0.445 0.478 0.891s0.239 0.513 0.239 0.513-0.241 0.022-0.658-0.022c-0.416-0.044-0.723 0-0.789 0.11-0.066 0.109 0.395 0.767-0.022 0.921-0.417 0.153-0.79-0.636-1.382-0.79-0.592-0.153-0.614 0-0.657 0.373-0.044 0.373-0.11 0.439-0.307 0.417-0.198-0.022-0.066-1.031-0.439-1.623s-3.833-7.394-6.5-9.464c-2.666-2.071-6.701-3.123-8.947-1.158-2.245 1.965-2.14 3.649-2.14 3.649s2.14 0.245 2.877 0.807c0.737 0.561 1.684 0.701 1.965 0.315 0.281-0.385 0.491-0.808 0.238-1.077-0.252-0.268-0.663-0.584-0.41-0.947s0.6-1.184 1.137-1.105 0.616 0.473 0.616 0.473 0.236-0.426 0.426-0.442c0.189-0.015 0.852 0.316 0.884 0.616s0.158 0.568 0.158 0.568 0.931-0.126 1.137 0.127c0.205 0.252 0.158 0.537 0.158 0.537s-0.979 1.073-0.095 1.247 1.5-0.032 1.879 0.284l0.379 0.316s-1.216 0.631-0.963 1.105c0.252 0.474 0.868 0.9 1.31 1.011 0.442 0.11 0.126 0.347 0.553 0.426 0.426 0.079 0.457 0.095 0.457 0.095s0.106 0.625-0.097 0.828c-0.202 0.202-0.622 0.323-0.292 0.57 0.33 0.248 0.36 0.188 0.36 0.406 0 0.217 0.06 0.352 0.194 0.36 0.135 7e-3 0.6 7e-3 0.6 7e-3s0.276 0.536 0.539 0.718c0.262 0.182 0.252 0.303 0.141 0.364s-0.303 0.122-0.313 0.263c-0.01 0.142-0.063 0.437 0.309 0.903s0.48 0.388 0.744 0.404c0.263 0.015 0.557-0.047 0.542 0.388-0.016 0.434-0.031 1.039-0.031 1.039s-0.108 0.15 0.896 0.799c1.005 0.648 1.528 0.46 1.507 1.046s-0.377 0.921 0.23 1.109 1.235 0.377 1.486 0.105 0.481-0.105 0.544 0.125-0.544 0.21-0.084 0.67c0.461 0.46 0.524 0.649 0.733 0.46 0.209-0.188 0.356-0.125 1.004-0.481 0.649-0.356-0.042-0.439 0.67-0.335 0.711 0.105 0.272 0.481 0.774 0.544s1.426-0.797 1.882-1.285c0.456-0.489 1.336-1.401 2.509-1.825s2.541 0.945 3.062 0.521c0.521-0.423 1.857-4.756 1.955-6.451 0.098-1.694 0.033-2.736 0.424-2.964 0.39-0.228 0.879 0.977 0.879 1.107 0 0.131 0.684-0.553 0.684 0.522s-0.391 3.681 0.098 3.518 1.694-2.117 1.694-3.127 0.163-1.401-0.195-1.401c-0.359 0-1.694 0.097-1.369-0.294 0.326-0.39 1.13-0.91 1.431-1.315 0.301-0.404 0.271-1.037 0.088-1.191-0.184-0.155-0.25-0.096-0.734 0.456-0.485 0.551-0.052 0.779-0.764 0.632s-1.314-0.22-1.475 0.037c-0.162 0.257-0.764 0.839-0.859 0.846-0.096 7e-3 -0.331-0.412-0.477-0.493-0.147-0.081-0.044-0.89-0.14-0.875-0.095 0.014-0.462-0.074-0.374-0.361s0.389-0.588 0.389-0.588-0.061-1.899 0.014-2.049 0.3-0.225 0.3-0.225-0.21-0.466 0.09-0.495c0.3-0.03 0.434 0.06 0.434 0.06l1.325-1.622s1.266-0.181 1.346 0.04c0.08 0.222 0.321 0.383 0.522 0.363s0.623 0.08 0.663 0.402 0.02 0.544 0.241 0.544 0.643 0.08 0.643 0.08l0.482-0.563s-0.201-1.168 0.02-1.45c0.221-0.281 0.663 0.302 0.663 0.403s-0.141 0.302 0.14 0.483c0.282 0.181 0.322 1.047 0.262 1.449-0.061 0.403-0.904 1.027-0.703 1.932 0.2 0.906 0.763 0.544 0.964 0.262s0.884-1.188 0.864-2.395c-0.021-1.208 0.2-2.274 0.401-2.697s1.833-1.836 1.86-3.549c0.027-1.714 0.217-2.774-0.952-3.508s-2.121-2.366-1.659-2.665c0.463-0.299 1.55 0.517 2.42 1.441 0.871 0.925 0.789 2.04 1.686 2.094 0.898 0.054 2.284-0.381 3.318-0.435 1.033-0.055 1.767-0.163 1.767-0.163s2.04-0.191 2.665-0.136c0.625 0.054 1.06 0.544 0.68 0.571-0.381 0.027-1.387 0.326-0.898 0.516 0.49 0.191 1.877 0.435 2.72 0.707s2.882 1.795 2.828 2.502c-0.055 0.707-1.632-0.217-1.904-0.408-0.272-0.19-1.577-1.006-2.284-1.196-0.707-0.191-1.085-0.381-1.085-0.381zm-33.807-0.691s-1.016 0.598-1.041 1.145c-0.026 0.547 0.051 1.056-0.127 1.336s-0.191 0.394-0.191 0.865c0 0.47-0.037 0.699-0.19 0.839-0.152 0.14-0.241 0.14-0.254 0.433-0.012 0.292-0.025 0.356-0.139 0.292-0.115-0.064-0.089-0.547-0.165-0.61-0.077-0.064-0.343-0.115-0.356-0.395-0.012-0.279 0.089-1.068-0.152-1.297s-0.343-0.445-0.33-0.98c0.013-0.534 0.317-0.47 0.444-0.674 0.127-0.203-0.038-0.763 0.114-0.954 0.153-0.19 0.241-0.674 0.483-0.864 0.241-0.191 0.306-2.672 2.347-4.148 2.04-1.477 2.437-1.832 3.259-1.988s2.593-0.284 2.82 0.199c0.226 0.483-0.539 1.107-0.78 1.292-0.241 0.184-1.119 0.781-1.275 1.122-0.156 0.34-0.601 1.773-1.398 1.959-0.797 0.185-0.853-0.909-1.094-1.113s-1.039-0.278-1.057 0.352c-0.019 0.631 0.13 1.929-0.019 2.226-0.148 0.296-0.899 0.963-0.899 0.963z" fill="#999"/>
   <path d="m624.64 444.22s-0.684-0.76-1.215-0.709c-0.532 0.05-0.583 0.582-0.279 0.709 0.304 0.126 0.886 0.405 1.114 0.784 0.228 0.38 0.557 0.557 0.607 0.304 0.051-0.253 0.051-0.734 0.051-0.734l-0.278-0.354z" fill="#2c2c2b"/>
   <path d="m640.4 445.45s-0.341-0.528-1.456-0.528-1.084 1.087-0.62 1.211c0.465 0.124 1.116-0.062 1.673-0.062 0.558 0 0.403-0.621 0.403-0.621z" fill="#2c2c2b"/>
   <path d="m639.32 447.66s-0.341-0.497-0.496-0.248c-0.155 0.248-0.248 0.279-0.496 0.31s-0.34 0.031-0.093 0.341c0.248 0.311 0.682 0.311 0.806 0.125 0.124-0.187 0.279-0.528 0.279-0.528z" fill="#2c2c2b"/>
   <path d="m640.87 436.7s-0.527-0.838-1.146-1.118c-0.62-0.279-0.806 0.249-0.558 0.342s0.681 1.148 1.146 1.241 0.682-0.155 0.682-0.155l-0.124-0.31z" fill="#2c2c2b"/>
   <path d="m629.67 417.08s-1.671 1.898-4.746 2.772c-3.076 0.873-7.48 2.088-6.759 2.278 0.722 0.19 2.886-0.266 5.164-0.152s5.809 0.228 7.328 4.442c1.519 4.215 1.708 4.708 2.202 4.708s-0.228-4.86-1.746-6.986c-1.519-2.126-3.721-2.658-2.582-4.025 1.139-1.366 1.898-2.544 1.67-3.075-0.228-0.532-0.531 0.038-0.531 0.038z" fill="#2c2c2b"/>
   <path d="m638.74 450.23s-1.118-0.128-1.214 0.895c-0.096 1.022 0.16 1.342 0.895 1.406s1.374-0.831 1.086-1.502c-0.287-0.671-0.767-0.799-0.767-0.799zm-67.531-33.039s-0.782 1.042-2.122 1.786c-1.339 0.745-2.195 1.452-2.679 1.452s-0.521 0.074-0.075-0.67c0.447-0.745 3.201-3.461 3.499-3.573s0.93 0.112 0.93 0.298 0.447 0.707 0.447 0.707zm12.914-2.084s-4.652 5.284-6.364 6.587-3.61 2.828-2.866 2.977c0.745 0.149 6.327-1.898 8.821-4.54 2.493-2.642 3.498-4.094 3.014-4.727-0.484-0.632-1.489-0.595-1.824-0.558-0.334 0.037-0.781 0.261-0.781 0.261zm0.595 35.963s-0.909 0.682-0.496 0.827c0.414 0.145 1.303-0.02 1.075-0.372-0.227-0.351-0.579-0.455-0.579-0.455zm9.925 1.096s-0.91 0.124-0.993 1.22c-0.082 1.096 0.641 1.881 1.324 1.675 0.682-0.207 1.281-1.138 1.054-1.551-0.227-0.414-0.455-0.993-0.744-1.199-0.29-0.207-0.641-0.145-0.641-0.145zm-4.239-0.352s-0.806 0.476-0.703 1.303c0.104 0.827 1.53 0.786 1.675 0.703s0.207-0.6 0.103-0.951c-0.103-0.352-0.496-0.724-0.661-0.848-0.166-0.124-0.414-0.207-0.414-0.207zm-1.881-0.454s-1.303-0.104-1.365 0.785 0.538 1.055 1.055 0.889c0.516-0.165 0.599-0.847 0.599-1.137 0-0.289 0.083-0.331-0.103-0.434l-0.186-0.103zm31.51-2.895s0.413 0.062 0.186 0.662c-0.228 0.599-0.207 1.116-0.6 1.013-0.393-0.104-0.599-0.703-0.517-1.117 0.083-0.413 0.496-0.703 0.62-0.703 0.125 0 0.311 0.145 0.311 0.145zm3.473 0.227s-1.447 0-1.613 1.034c-0.165 1.034 0.724 0.91 0.89 1.055 0.165 0.144 0.578 0.393 0.765 0.227 0.186-0.165 0.144-0.248 0.434-0.248 0.289 0 0.827-0.186 0.599-0.744-0.227-0.559-0.496-1.2-0.785-1.262-0.29-0.062-0.29-0.062-0.29-0.062zm11.017 1.218s-1.726 0.544-1.119 1.406c0.607 0.863 1.087 1.31 1.438 0.927 0.352-0.383 0.448-0.671 0.352-1.278s-0.671-1.055-0.671-1.055z" fill="#fff"/>
   <path d="m634.61 407.87s-0.76 1.772-1.544 2.481c-0.785 0.709-1.165 0.886-1.342 1.493-0.177 0.608-0.456 1.646-0.456 2.329s0.76 1.038 1.19 0.304 1.088-2.759 1.418-3.266c0.329-0.506 0.944-3.174 0.944-3.351 0-0.178-0.21 0.01-0.21 0.01z" fill="#2c2c2b"/>
   <path d="m635.17 406.6s-0.43 0.126-0.253 0.43c0.178 0.304 0.329 0.127 0.329 0.127l-0.076-0.557z" fill="#2c2c2b"/>
   <path d="m622.69 388.38s-5.033-0.535-5.693-0.252c-0.661 0.283-0.409 0.849 0.031 0.849s2.233 0.157 3.743 0.126c1.51-0.032 2.61-0.126 2.548-0.378-0.063-0.251-0.629-0.345-0.629-0.345z" fill="#2c2c2b"/>
   <path d="m625.93 442.14s-1.012-1.62-1.721-2.152c-0.709-0.531-1.291-0.708-1.291-0.101 0 0.608 0.886 2.05 0.886 2.05s1.038 1.089 1.367 1.595 0.861 1.569 1.215 1.19c0.354-0.38 0.152-1.721-0.152-2.152-0.304-0.43-0.304-0.43-0.304-0.43z" fill="#2c2c2b"/>
   <path d="m591.86 387.98s1.006-1.522 1.768-1.223c0.761 0.299 0.435 1.223 0.244 1.468-0.19 0.245-0.87 0.816-0.38 2.094 0.489 1.278 0.842 2.529 0.299 2.61-0.544 0.082-1.469-0.516-2.013-1.359-0.543-0.843-0.679-2.339-0.299-2.964 0.381-0.626 0.381-0.626 0.381-0.626zm6.008 2.663s-0.087 1.129 0.161 1.389c0.249 0.261 0.497 0.422 0.497-0.024 0-0.447 0.062-0.782-0.112-1.005s-0.546-0.36-0.546-0.36zm-10.458-2.446s-1.774-1.331-3.193-1.309c-1.42 0.023-1.398 0.644-1.109 0.799 0.288 0.155 1.996 0.377 2.461 0.621 0.466 0.244 1.22 0.798 1.708 0.643s0.133-0.754 0.133-0.754zm-1.33 4.968s-0.932 0.022-1.043 1.553c-0.111 1.53 0.976 3.016 1.397 2.905 0.422-0.111 0.488-0.732 0.156-1.375-0.333-0.643-0.577-1.286-0.111-1.863s0.577-0.865 0.355-1.109-0.754-0.111-0.754-0.111zm-3.351 2.317s-2.327-0.188-2.372 0.167c-0.044 0.355 0.244 1.087 0.71 1.087s2.196 0.133 2.329-0.466-0.067-0.687-0.222-0.732c-0.155-0.044-0.445-0.056-0.445-0.056zm-1.692 9.947s-1.162-1.097-2.061-0.746c-0.9 0.351-0.614 0.351-0.417 0.57 0.197 0.22 1.009 0.066 1.535 0.439s0.855 0.307 0.921 0.219 0.022-0.482 0.022-0.482zm5.074 2.362s-0.695 1.737-0.473 2.621c0.221 0.884 0.378 0.426 0.521 0.379 0.142-0.048 0.205-0.995 0.378-1.311 0.174-0.316 0.6-1.168 0.348-1.579-0.253-0.41-0.774-0.11-0.774-0.11z" fill="#2c2c2b"/>
   <path d="m607.55 404.8s-3.248 2.522-3.684 3.818-0.496 2.311-0.15 2.559c0.345 0.247 0.42-1.312 1.185-2.401 0.766-1.089 2.248-2.673 2.668-3.217 0.42-0.545 0.463-0.974 0.222-0.867l-0.241 0.108z" fill="#2c2c2b"/>
   <path d="m600.59 448.25s-0.334-0.568-0.674-0.625c-0.34-0.056-0.411 0.057-0.539 0.142-0.127 0.086 0.454 0.171 0.425 0.299-0.028 0.127-0.241 0.198 0.071 0.312 0.312 0.113 0.454 0.057 0.397 0.426s0.297 0.568 0.411 0.411c0.113-0.156 0.396-0.354 0.255-0.553-0.142-0.199-0.346-0.412-0.346-0.412zm-2.942-6.304s-0.85-0.071-0.694 0.241c0.156 0.313 0.907 1.008 1.219 1.335 0.311 0.327 0.595 0.341 0.708 0.213 0.114-0.128 0.269-0.369 0.099-0.511s-1.332-1.278-1.332-1.278zm2.29-3.543s-1.168-1.567-1.715-2.058c-0.546-0.491-0.621 0.321-0.603 0.547 0.019 0.227 0.528 1.02 0.98 1.794s0.566 1.699 0.905 1.756 0.678-0.548 0.678-0.831-0.245-1.208-0.245-1.208zm1.677-9.721s-0.074-2.638-0.542-3.459c-0.467-0.822-0.821-0.638-0.877-0.213-0.057 0.425 0.424 1.445 0.651 2.025 0.226 0.581 0.198 1.048 0.297 1.303s0.255 0.538 0.312 0.51c0.056-0.029 0.159-0.166 0.159-0.166zm-5.318 12.547s-0.958-0.177-1.398-0.121c-0.439 0.057 0.142 0.398 0.241 0.384 0.099-0.015 0.936 0.056 1.148 0 0.213-0.057 9e-3 -0.263 9e-3 -0.263z" fill="#2c2c2b"/>
  </g>
 </g>
</svg>
