<?xml version="1.0" encoding="utf-8"?>
<!-- Generator: Adobe Illustrator 22.1.0, SVG Export Plug-In . SVG Version: 6.00 Build 0)  -->
<svg version="1.1" id="Layer_1" xmlns="http://www.w3.org/2000/svg" xmlns:xlink="http://www.w3.org/1999/xlink" x="0px" y="0px"
	 viewBox="0 0 325 274.2" style="enable-background:new 0 0 325 274.2;" xml:space="preserve">
<style type="text/css">
	.st0{fill:none;stroke:#000000;stroke-miterlimit:10;}
</style>
<path class="st0" d="M63.8,12.4c0,0,0,0.1,0,0.1c0,0,0,0.1-0.1,0.1c0,0,0,0.1,0,0.1c0,0.1,0,0.1-0.1,0.2c0,0,0,0,0,0
	c-0.1,0.2-0.3,0.4-0.6,0.5c0,0-0.1,0-0.2,0c-0.1,0-0.1,0-0.2,0c-0.1,0-0.2,0-0.3,0c-0.1,0-0.3,0-0.4,0c0,0,0-0.1,0-0.1
	C62,12.5,62.7,12.2,63.8,12.4C63.8,12.4,63.8,12.4,63.8,12.4z"/>
<path class="st0" d="M115.2,21.5c-3.2,1.1-5.2,3.4-9,3.9c-0.3,0-0.5,0.1-0.8,0.1c-0.4,0-0.9,0-1.3,0c-0.1,0-0.3,0-0.4,0
	c-0.5,0-0.9-0.1-1.4-0.2c0,0,0,0,0,0c-0.6,0.2-1,0.6-1,1.4h-0.1c-5.4,0.2-10.5,0.7-14.6,0.5c-0.3,0-0.5,0-0.8,0c-0.1,0-0.2,0-0.3,0
	c-0.1-0.8,0.1-1.3,0.6-1.6c0.1-0.1,0.2-0.1,0.3-0.2c1.4-0.7,4-0.5,5.6-1.1c0,0,0.1,0,0.1-0.1c0.5-0.2,0.8-0.4,1.1-0.8
	c0.1,0,0.1,0,0.2,0c0,0,0.1,0,0.1,0h0c1.2,0,1,1.4,2.1,1.5h0c0,0,0.1,0,0.1,0c0.1,0,0.2,0,0.3,0c1.7-0.2,2.5-1.3,4.4-1.5
	c0.3,0,0.5,0,0.8,0c0.2,0,0.4,0,0.6,0.1c0,0,0.1,0,0.1,0c1.7-2.9,3.8-2.8,6.7-4.8c0.3-1.7-1.7-1.2-1.4-2.9c0,0,0.1,0,0.1,0
	c0.1,0,0.1,0,0.2,0c0.3,0,0.5,0,0.8,0c0.4,0,0.7,0.1,1.1,0.2c0.2,0,0.4,0.1,0.6,0.2c0.5,0.2,1,0.4,1.5,0.7c0,0,0.1,0,0.1,0.1
	C113.3,17.9,114.8,19.6,115.2,21.5z"/>
<path class="st0" d="M72.5,33.5c-0.8,1-1.6,1.9-3.4,1.9C68.5,32.6,71.4,32,72.5,33.5z"/>
<path class="st0" d="M95.5,38.3c-0.4,2.9-3.2,3.5-2.9,7.2c1.5-3.2,7.4-6.1,11-2.9c0.3,2.4,0.2,2-0.5,3.8C98.9,47,96,47.7,92.6,46
	c-1.3-0.2,0.4,2.7-1.4,1.9C90.2,44.1,91.2,39.2,95.5,38.3z"/>
<path class="st0" d="M80.6,40.2c0.9,1.8,3.2,3.3,2.4,5.3C79.2,46.2,71.9,47,71,44c-0.2-0.6,2.4-3.5,3.4-3.8
	C76,39.6,78.8,40.8,80.6,40.2z M73.9,43.1c0,0.3,0,0.6,0,1c1.2,0.7,1.4-1.6,0.5-1.4C74.4,42.9,74.3,43.2,73.9,43.1z"/>
<path class="st0" d="M74.4,42.6c0.9-0.2,0.7,2.2-0.5,1.4c0-0.3,0-0.6,0-1C74.3,43.2,74.4,42.9,74.4,42.6z"/>
<path class="st0" d="M94.1,52.7c2.2-0.1,2.3,2.4,1,3.4C93.7,56,94.2,54,94.1,52.7z"/>
<path class="st0" d="M83,53.6c0.2,1.2-0.9,1-0.5,2.4c-0.9,0.1-1-0.6-1.9-0.5C80.3,53.7,81.8,52.4,83,53.6z"/>
<path class="st0" d="M84,53.6c1.5,0,2.3,0.6,3.4,1c0,0.6,0,1.3,0,1.9c-1.5-0.3-2.5-1-3.8-1.4C83.8,54.7,84,54.3,84,53.6z"/>
<path class="st0" d="M89.8,54.1c1,0.3,3.2-0.6,3.4,0.5C92.4,56.4,89.5,57.3,89.8,54.1z"/>
<path class="st0" d="M92.2,65.2c-1.8,2.1-7.2,1-9.6,0.5c-0.3-0.4-0.6-0.9,0-1C85.2,64.3,90.4,64.2,92.2,65.2z"/>
<path class="st0" d="M92.2,66.6c2.4,3.5-7.8,3.4-10.1,1.4C85.3,67,89.7,69.4,92.2,66.6z"/>
<path class="st0" d="M82.1,91.6c-2.2,2.6-4.1,5.4-6.3,8c-0.3,0.4-0.6,0.7-1,1.1c-0.6,0.7-1.2,1.3-1.9,1.9c-0.3-1-1.4-1.6-0.5-2.4
	c-4-4.3-5-11.6-8.2-16.8c1.2-2.1,2.8-3.8,5.3-4.6c0.2-0.1,0.3-0.1,0.5-0.2C72.2,84.8,76.9,88.4,82.1,91.6z"/>
<path class="st0" d="M223.1,199.4c1.4-1.3,3.1-1.7,4-3.5C226.2,197.6,224.4,198,223.1,199.4z M227.1,195.9
	c-14.5-9.9-27.9-20.8-40.8-32.2C199.2,175.2,212.6,186.1,227.1,195.9z M213.1,214.1c-4.7-1.3-7.5-4.6-12-6.1
	C205.6,209.5,208.3,212.8,213.1,214.1z M196.2,205.4c-1.8-1.2-3.8-2-6-2.8C192.4,203.3,194.4,204.2,196.2,205.4z M175.2,168.8
	c0,0,0,0.1,0,0.1c2.8,0.2,3.3-1.8,4.3-3.4c0,0,0,0,0,0C178.5,167.1,178,169,175.2,168.8z M174.4,190.6c-2.9-2.7-6-5.3-9.1-8.2
	C168.3,185.3,171.4,188,174.4,190.6z M169.4,172.1c-1.5,0.6-2.6,1.2-3.8,1.7C166.8,173.4,167.9,172.8,169.4,172.1z M168.5,167.5
	c-2.2,0.7-5.2,1.3-7.5,0.5C163.3,168.9,166.3,168.2,168.5,167.5z M159.8,174.6c1,0,1.9,0,2.6-0.1
	C161.6,174.6,160.8,174.6,159.8,174.6z M165.3,182.4c-3.5-3.4-6.4-8.3-9.1-13.4C158.9,174.1,161.8,179.1,165.3,182.4z M160.2,127.9
	c1.1,2.9,2.3,5.7,3.5,7.9C162.5,133.5,161.3,130.8,160.2,127.9z M155.8,117.6c-0.8-1.7-1.6-3.3-2.1-4.9
	C154.1,114.3,154.9,116,155.8,117.6z M145.6,120.4c1.2,2.2,3.2,3.4,3.8,5.8C148.9,123.8,146.8,122.5,145.6,120.4z M151.8,160.8
	c-2.3-4.3-4.4-8.8-6.7-13C147.4,152.2,149.5,156.5,151.8,160.8z M142.5,102.1c-0.3,0.3-0.8,0.5-1.4,0.5
	C141.7,102.6,142.2,102.4,142.5,102.1z M141.6,105.2c-0.5,1.6-1,3.3-1.3,5.1C140.7,108.6,141.1,106.8,141.6,105.2z M140.6,103.9
	c-0.3,0-0.5-0.4-0.3-1.4C140,103.6,140.3,103.9,140.6,103.9z M138.8,87.2c-0.2-0.1-0.4-0.4-0.7-0.4
	C138.4,86.9,138.6,87.1,138.8,87.2z M137.4,178.3c0.1-1.8-0.8-3.7-1.3-5.7C136.6,174.6,137.4,176.5,137.4,178.3z M136.7,99.8
	c0.1,0.2,0.2,0.4,0.3,0.6C136.9,100.3,136.8,100.1,136.7,99.8z M137.1,180.2c-0.4,0.8-0.9,1.7-1.3,2.6
	C136.2,181.9,136.7,181,137.1,180.2z M134.4,105.3c0.5,1.8,1.5,3.7,2.1,5.8C136,109,135,107,134.4,105.3z M137.1,105.7
	c-0.9-0.8-0.7-2.7-2.4-2.6C136.4,103,136.2,104.9,137.1,105.7z M112.8,145.3c1.1-5.8,2.3-12.4,1.9-18.4
	C115,132.9,113.9,139.4,112.8,145.3z M111.7,117.2c0.5,0.9,1.2,1.6,1.6,2.7C113,118.9,112.2,118.1,111.7,117.2z M110.4,95.4
	c-0.3-2.8-1.4-5.1-1.4-7.7C108.9,90.3,110,92.6,110.4,95.4z M107.3,166.6c-1.7-2-4.9-2.5-6.7-4.4
	C102.4,164.1,105.5,164.7,107.3,166.6z"/>
<path class="st0" d="M139.2,87.3c0,0.2,0,0.4,0,0.6c-0.3,5.3,0.1,8-1.1,12.4c-0.1,0.3-0.2,0.6-0.3,1c-0.1-0.1-0.2-0.1-0.3-0.2
	c-0.1-0.1-0.2-0.1-0.3-0.2c-0.1-0.1-0.1-0.2-0.2-0.3c-0.1-0.2-0.2-0.4-0.3-0.6c0-0.1-0.1-0.2-0.1-0.3c0-0.1,0-0.3-0.1-0.4
	c0-0.1,0-0.3,0-0.4c0-0.5,0-1.1,0.1-1.8c0.1-0.5,0.1-0.9,0.2-1.4c0-0.2,0.1-0.3,0.1-0.5c0.1-0.5,0.2-1,0.3-1.5
	c0.1-0.3,0.1-0.6,0.2-0.8c0-0.2,0.1-0.5,0.1-0.7c0-0.2,0.1-0.3,0.1-0.5c0-0.2,0.1-0.3,0.1-0.5c0-0.2,0.1-0.3,0.1-0.5
	c0.1-1.4-0.2-2.6,0-3.8c0.1,0,0.3,0,0.3,0c0.3,0,0.5,0.3,0.7,0.4C139,87.3,139.1,87.3,139.2,87.3z"/>
<path class="st0" d="M109.5,111.7C109.5,111.7,109.4,111.7,109.5,111.7c-1.6-0.2-3.1-2-4.3-3.4c-2.5-2.8-5.3-5.6-8.2-8.6
	c-1.1-1.2-3.6-2.9-2.4-4.8c0,0,0,0,0,0c2.7,0.6,3.4,3.3,5.8,4.3c0,0,0,0,0.1,0c3.4-1.6,4.5-5.5,5.7-9.5c0,0,0-0.1,0-0.1
	C109.2,96,108.1,104.1,109.5,111.7z"/>
<path class="st0" d="M92.6,92.6c0,0.2-0.1,0.4-0.1,0.6c0,0.4-0.1,0.8-0.1,1.1c0,0,0,0,0,0.1c-0.1,0.6-0.1,1.2-0.2,1.8
	c0,0.4-0.1,0.8-0.2,1.2c0,0,0,0,0,0.1c0,0.2-0.1,0.4-0.1,0.6c0,0,0,0,0,0.1c-0.1,0.3-0.2,0.7-0.3,1c-0.1,0.2-0.2,0.4-0.3,0.6
	c0,0.1-0.1,0.2-0.2,0.3c-0.7,1.1-2,1.7-4.2,1.4c-0.9-1.2-1.6-2.4-2-3.7c-0.1-0.1-0.1-0.3-0.2-0.4c-0.5-1.5-0.7-3-0.7-4.9v-0.1
	C87.4,91.6,90.5,89.7,92.6,92.6C92.6,92.6,92.6,92.6,92.6,92.6z"/>
<path class="st0" d="M72.9,105.5c-0.5,3.5-0.7,4.4-1.4,7.6c0,0,0,0.1,0,0.1c-2.7-0.7-1.2-5.6-3.4-6.7c0.2-4.7-2.4-8.6-1.9-12.1
	c0,0,0.1,0,0.1,0.1c1.9,1.2,1.6,4.7,3.7,5.7C69.8,103.1,72,103.7,72.9,105.5z"/>
<path class="st0" d="M142.1,97.3c-0.3,2.1-0.9,3.9-2.9,4.3C139.5,99.6,140.1,97.7,142.1,97.3z"/>
<path class="st0" d="M111.7,141c-0.1,0.4-0.2,0.9-0.3,1.3c-0.2,0.7-0.5,1.4-1,2c-1.7-0.2-3.1-0.6-4.3-1.2c-0.6-0.3-1.2-0.7-1.7-1.1
	c-3.8-2.9-5.6-7.8-9.7-10.3c-0.2-0.1-0.4-0.2-0.6-0.3c0-1.6-0.1-3.2,0.2-4.6c0-0.2,0.1-0.4,0.1-0.6c0.2-0.6,0.4-1.1,0.7-1.5
	c-0.2-0.2-0.4-0.5-0.5-0.8c0-0.1-0.1-0.2-0.1-0.3c-0.4-1.3-0.2-3-0.4-5.1c-0.1-0.7-0.2-1.4-0.3-2.1c-0.1-0.4-0.2-0.8-0.3-1.3
	c-0.6-2.4-1.5-4.7-2.4-6.9c-0.2-0.4-0.3-0.7-0.5-1.1c-0.5-1.2-0.9-2.3-1.3-3.5c2,0.2,3.1,3,4.3,4.8c0.8,1.2,0.8,1.3,1.4,2.9
	c0,0,0,0.1,0.1,0.1c0.3,0.2,0.8,0.1,0.9,0.4c0.2,0.5-0.3,1.4,0,1.9c0,0.1,0.1,0.1,0.2,0.1c0.3,0.1,0.6,0.2,0.8,0.3c0,0,0,0,0,0
	c0.8,2.4,0.7,5.2,1.1,7.9c0.1,1,0.3,2,0.6,2.9c0.1,0.4,0.3,0.8,0.4,1.1c0.1,0.2,0.2,0.4,0.3,0.5c1.2-2.2,0.6-6,0-9.6
	c-0.1-0.4-0.1-0.8-0.2-1.1c-0.1-0.3-0.2-0.6-0.3-1c-1.3-4.4-3.9-8.3-5.9-11.8c-0.1-0.3-0.3-0.5-0.4-0.7c-0.1-0.3-0.3-0.6-0.4-0.8
	c0.7-0.2,1.1-0.7,1.4-1.4c7.5,5.4,13.3,12.5,17.4,21.2c0.3,0.6,0.5,1.2,0.8,1.8C111.2,129.5,112.7,136.1,111.7,141z"/>
<path class="st0" d="M143,100.7c0,0.6-0.2,1-0.5,1.4c0,0,0,0,0,0c-0.3,0.3-0.8,0.5-1.4,0.5C140.8,101,141.9,100.8,143,100.7z"/>
<path class="st0" d="M92.2,121.3v0.1c-0.8,0-1.1-0.2-1.3-0.6c-0.1-0.1-0.1-0.3-0.1-0.4c0-0.3,0-0.5,0-0.8c0-0.1,0-0.3,0.1-0.4
	c0.1-0.4,0.2-0.8,0.3-1.1c0.7,0,0.9,0.5,1,1.1c0,0.1,0,0.2,0,0.3C92.2,120,92.2,120.7,92.2,121.3z"/>
<path class="st0" d="M92.6,127.1c-1-0.9-1.7-2.1-1.4-4.3C93.4,122.5,92.4,125.4,92.6,127.1z"/>
<path class="st0" d="M103.2,147.3c-0.2,0.5-0.4,1-0.6,1.5c-0.1,0.2-0.2,0.4-0.2,0.6c-0.2,0.4-0.3,0.8-0.5,1.2
	c-0.3,0.8-0.6,1.6-0.9,2.4c-0.2,0.4-0.3,0.8-0.4,1.2c0,0,0,0.1,0,0.1c-0.2,0.5-0.4,1-0.5,1.6c-0.2,0.6-0.3,1.1-0.5,1.7
	c-0.2,0.9-0.4,1.7-0.6,2.7c-7.1-3-13.1-7.1-16.3-13.9c0,0,0,0,0,0c3.8-2.6,8.9-3.9,12-7.2v-0.1c0-1.4-1.4-2-1.6-2.9
	c0-0.1,0-0.2,0-0.3c0-0.3,0.2-0.7,0.6-1.1C96,139.7,99.9,143.2,103.2,147.3C103.2,147.3,103.2,147.3,103.2,147.3z"/>
<path class="st0" d="M158.9,181.8c-0.6,0.3-1.3,0.5-2,0.7c0,0-0.1,0-0.1,0c-3.6,1-8.1,1-12.1,1.6c-0.8,0.1-1.6,0.3-2.3,0.4
	s-1.5,0.4-2.1,0.6c0,0,0,0,0,0c0.4-2.1,2.4-2.7,2.9-4.8c-2.1-5.7-2.6-15.4-1.5-22.6h1.4c1.2,5.2,5.3,8.7,8.2,13
	C153.6,174.4,156,178.3,158.9,181.8z"/>
<path class="st0" d="M179.5,165.5c-1,1.6-1.5,3.6-4.3,3.4c0,0,0-0.1,0-0.1C175.9,166.9,177.7,164.6,179.5,165.5
	C179.5,165.5,179.5,165.5,179.5,165.5z"/>
<path class="st0" d="M170.4,171.7c-0.2,0.1-0.4,0.2-0.6,0.2c-0.2,0.1-0.3,0.1-0.4,0.2c-1.5,0.7-2.6,1.3-3.8,1.7c0,0-0.1,0-0.1,0
	c-0.2,0.1-0.4,0.1-0.6,0.2c0,0-0.1,0-0.1,0c-0.2,0.1-0.4,0.1-0.6,0.2c-0.3,0-0.5,0.1-0.8,0.2c-0.1,0-0.3,0-0.4,0.1
	c-0.1,0-0.3,0-0.5,0c-0.8,0.1-1.6,0.1-2.6,0.1c0.7-4,7.7-1.6,9.6-4.3C170,170.5,170.4,170.9,170.4,171.7z"/>
<path class="st0" d="M43.7,178.9c-0.4,0.1-0.5,0.5-1,0.5c0,0,0,0,0,0c-2.5-1.2-4.3-3.1-6.2-4.8c-1.8-0.5-3.7-0.8-3.8-2.9v0
	c1.9,0.1,3.8,1.1,5.6,2.4C40.3,175.5,42.2,177.4,43.7,178.9z"/>
<path class="st0" d="M56.6,184.2c-0.4,1.6-3.5-1.8-4.8-2.4c-0.6-2.5,0.9-6.7,0.5-10.6c2.9,2.2,3.3,6.8,4,11.2
	C56.4,183,56.5,183.6,56.6,184.2z"/>
<path class="st0" d="M98.4,173.6c-1.6,0.3-2.9,3.8-2.4,5.8c0.1,0.3,0.1,0.5,0.2,0.8c1.2,2.9,5,3.1,7.2,1.2c0,0,0,0,0,0
	c0.2-0.1,0.3-0.3,0.5-0.4c0.1-0.2,0.3-0.3,0.4-0.5c0.4-0.7,0.7-1.4,0.8-2.4C103,176.1,100.6,173.2,98.4,173.6z M98.4,177.9
	c0-0.1,0-0.2,0-0.3c0.1-0.4,0.2-0.8,0.5-1c1.9,0,2.8,1,4.3,1.4h0c-0.2,2.6-2.5,3.1-4.8,2.4v-0.1C98.5,179.6,98.3,178.7,98.4,177.9z"
	/>
<path class="st0" d="M98.9,176.5c1.9,0,2.8,1.1,4.3,1.4c-0.2,2.6-2.5,3.1-4.8,2.4C98.5,179,98.1,177.2,98.9,176.5z"/>
<path class="st0" d="M45.1,180.8c-1.2,0.2-1.6-0.6-1.4-1.9c0.4-0.3,0.8-0.5,1.4-0.5C45.7,179,45.7,180.2,45.1,180.8z"/>
<path class="st0" d="M176.2,198.6c-14.9,2-30.8,3.1-46.1,5.8c-3,0.5-5.4,0.1-8.2,0.5c-3.2,0.4-6.1,2.4-9.1,1.4
	c-3.3-1-5.1-8.7-9.6-9.1c-2.8-0.2-4,1.7-6.2,3.4c0,0,0,0.1,0,0.1v0.1c-0.1,2.6,1.8,3.4,2.4,5.3c0,0.1,0,0.1,0.1,0.2
	c-5.1,0.3-9.6,0-13-1.4c-2.2-4.5-9.3-4.2-11-9.1c0,0,0,0,0.1,0c27.5-1.8,55.5-6.9,85.3-9.1c0.4-0.4,0.9-0.7,1.4-1
	c0.4,0.1,0.5,0.5,1,0.5c4.5,3.7,8.5,8.1,12.8,12.1C176.1,198.5,176.1,198.5,176.2,198.6z"/>
<path class="st0" d="M274.1,197.6c-0.2,0.5-0.4,1-0.6,1.4c-0.1,0.2-0.2,0.3-0.3,0.5c-0.1,0.1-0.1,0.2-0.2,0.3
	c-3.2,4.2-10.5,2.6-16.2,4.5c-5.6,2-12.6,6.4-18.2,9.6c-2.8,1.6-5.4,4.1-9.1,4.3c-0.2-2.7,0.1-5.4,0.9-7.8c0-0.1,0.1-0.2,0.1-0.3
	c0-0.2,0.1-0.3,0.2-0.5c1.3-3.3,3.6-5.8,7-6.3c1.6,1.9-1.9,4.1,0,6.2c1.2-0.2,1.6-1.1,2-2.1c0,0,0-0.1,0-0.1
	c0.1-0.4,0.3-0.8,0.4-1.2c0-0.1,0-0.1,0.1-0.2c0-0.1,0.1-0.2,0.1-0.3c0.1-0.2,0.2-0.3,0.3-0.4c3.1-2.3,4.4-5,8.2-5.8
	c1.8-0.4,4,0.4,6.2,0c2.5-0.4,4.4-2.2,6.7-2.4C265,196.9,269.6,199.1,274.1,197.6z"/>
<path class="st0" d="M234.7,200.5c-1.4,3.1-5.1,4.2-6.7,7.2c-1.3,2.4-1,5.5-1.1,8.6c0,0.1,0,0.2,0,0.3c0,0.4,0,0.8-0.1,1.2
	c0,0.2,0,0.4-0.1,0.6c0,0.2,0,0.4-0.1,0.5c0,0.3-0.1,0.5-0.1,0.7c-3.1-1.1-5.3-3-7.2-5.3c1.6-6.7,3.8-12.8,8.6-16.3
	C230.5,198.6,232.5,199.7,234.7,200.5z"/>
<path class="st0" d="M185.8,205.3c-3.7-0.1-7.2,0.2-9.9-1.3c-0.2-0.1-0.4-0.2-0.5-0.3c-0.3-0.2-0.7-0.5-1-0.8
	c-0.2-0.2-0.4-0.4-0.6-0.6c-0.1-0.1-0.1-0.2-0.2-0.3c-0.1-0.2-0.2-0.3-0.3-0.5c2.7,0.1,4.3-0.9,7.2-0.5
	C181.5,203.2,185.7,202.2,185.8,205.3z"/>
<path class="st0" d="M102.7,202.1c0,0.1,0,0.2,0,0.3c0,0,0,0.1,0,0.1h-1.4v-1C102.1,201.3,102.6,201.5,102.7,202.1z"/>
<path class="st0" d="M294.3,205.3L294.3,205.3c-0.1-2,2.1-1.7,1.9-3.8v0C298.4,202.1,295.7,205.3,294.3,205.3z"/>
<path class="st0" d="M175.7,205.8c-0.5,0.1-1.1,0.3-1.6,0.4c-0.4,0.1-0.8,0.2-1.2,0.3c-3.5,0.7-6.6,0.7-8.4-1.8c0,0,0,0,0,0
	c-0.2-0.2-0.3-0.5-0.5-0.7c-0.1-0.3-0.3-0.7-0.4-1C169.2,201.1,172.4,202.6,175.7,205.8z"/>
<path class="st0" d="M247.7,222.1c-0.3-2.1-1.6-3.2-1.4-5.8c2.1-0.5,4.3,0.1,6.2,1c1.4-1-1.4-1.8-1-3.4c1-1.2,2.7-1.8,5.3-1.4
	c1.1-0.3-0.1-3,1-3.4c3.1-1.6,6.6,0.7,9.6,1.9c6.4-2.8,11.4-7.1,18.7-9.1c-0.4,3.4-3.4,4.2-3.8,7.7c-3,2.8-5.9,5.6-7.7,9.6
	c-9,8.1-15.7,18.6-23.5,27.8c-7.4-4.3-14.5-8.8-21.6-13.4c0.1-2,2.7-1.4,3.8-2.4c2.5-2,5.6-3.3,8.6-4.8c0-1.3,0-2.6,0-3.8
	C243.2,221,245.9,220.8,247.7,222.1z M270.2,219.2c1-1.8,3-2.8,3.8-4.8c-0.6-1.3-1.1-2.7-3.4-2.4c-0.7,1.8,1.3,0.9,1,2.4
	c-4.8,0-6.2-3.4-11.5-2.9C262.9,214.8,265.6,218,270.2,219.2z M268.3,221.2c-4.7-1.5-8-7-13.9-5.8
	C257.5,218.7,264.4,229,268.3,221.2z M249.1,219.2c0.6,5.4,5.8,6.1,9.6,8.2c0.2-0.6,0.6-1,1.4-1
	C259.3,221.5,252.5,220.1,249.1,219.2z M253.9,227.4c-3.8-0.8-5.5-3.8-10.1-3.8C244.1,228.3,251.5,231.9,253.9,227.4z M257.3,232.2
	c1.4,0.7,1.4-2.1,0-1.4C257.3,231.2,257.3,231.7,257.3,232.2z M238.1,234.1c2.7,1.9,4.6,2.6,9.1,1.9
	C247.2,231.8,239.5,229.9,238.1,234.1z M255.8,234.1c-2.6-0.3-6.4-1-8.6-1C248.8,235.1,253.7,236.7,255.8,234.1z M245.8,238.4
	c2.1,1.4,5,4.5,6.2,0.5C251.4,236.9,247,237.1,245.8,238.4z"/>
<path class="st0" d="M107,205.3C107,205.3,107,205.3,107,205.3c-0.2,1-1.3,0.9-1.4,1.9c-1.7-0.5-2.8-1.6-3.4-3.3c0,0,0,0,0-0.1
	C104.4,202.2,106,203.5,107,205.3z"/>
<path class="st0" d="M165.1,206.8c-0.8,0.2-1.8,0.5-2.8,0.8c-0.5,0.1-1,0.3-1.5,0.4c-0.5,0.1-1,0.2-1.5,0.3
	c-0.7,0.1-1.3,0.1-1.9-0.1c-1.8-0.4-2.4-2-3.7-2.7c-0.2-0.1-0.4-0.2-0.6-0.2C156.1,201.5,163.1,204,165.1,206.8z"/>
<path class="st0" d="M154.1,207.7c-3.7,2.2-8.7,1.4-10.1-2.4C148.1,203.6,152.2,205.7,154.1,207.7z"/>
<path class="st0" d="M145,209.6c-1.3,0.3-2.5,0.5-3.7,0.5c-0.7,0-1.4,0-2.1,0c-0.2,0-0.3,0-0.5,0c-0.2,0-0.5-0.1-0.7-0.1
	c-0.1,0-0.1,0-0.2,0c-0.2-0.1-0.5-0.1-0.7-0.2c-1.4-0.5-2.6-1.3-3.7-2.5c0.8-0.5,1.7-0.8,2.6-1.1c0.3-0.1,0.7-0.1,1-0.2
	c1.2-0.1,2.3-0.1,3.4,0.2c0.3,0.1,0.5,0.1,0.8,0.2C143,206.9,144.5,208,145,209.6z"/>
<path class="st0" d="M86.4,208.7c-3.8,3.2-6.5,7.5-7.2,13.9c-1.1-1.7-3.4-1.6-5.1-1.8c-0.3,0-0.5,0-0.7-0.1c0.6-6,3-11.8,8.2-13.9
	C83.3,206,84.5,208.2,86.4,208.7z"/>
<path class="st0" d="M134.9,209.6c-0.1,0.2-0.3,0.4-0.4,0.5c-0.1,0.2-0.3,0.3-0.5,0.4c-0.1,0.1-0.2,0.1-0.3,0.2
	c-0.1,0.1-0.2,0.1-0.4,0.2c-2.2,0.8-5.5-0.7-7-2.3c-0.2,0.1-0.3,0.2-0.4,0.4c0,0.1-0.1,0.1-0.1,0.2c0,0,0,0.1,0,0.1
	c0,0.1,0,0.2,0,0.3c0.1,0.7,0.8,1.6,0,1.9H122c-0.1-1.1-0.8-1.6-1.8-1.9c-0.5-0.2-1.1-0.3-1.6-0.5c0.1-0.1,0.2-0.2,0.3-0.2
	c0.1-0.1,0.1-0.1,0.2-0.2c0.5-0.3,1.1-0.5,1.6-0.6c0.3,0,0.5,0,0.8,0c0.2,0,0.3,0,0.5,0.1c1.1,0.2,2.1,0.8,2.8,1.4
	C126.9,205.3,132.1,207.5,134.9,209.6z"/>
<path class="st0" d="M192,210.1c-0.3,0.1-0.7,0.1-1,0.2c-0.5,0.1-1,0.1-1.5,0.2c-0.1,0-0.3,0-0.4,0c-0.2,0-0.3,0-0.5,0
	c0,0-0.1,0-0.1,0c-2.4,0.1-4.8-0.3-6.6-1.4c0,0,0,0,0,0c-0.2-0.2-0.4-0.3-0.6-0.5c-0.1-0.1-0.2-0.2-0.3-0.3
	C183.4,205.8,191.9,205.9,192,210.1z"/>
<path class="st0" d="M293.8,206.8c-0.3,1.3-1.4,1.8-1.9,2.9c-0.2-0.1-0.4-0.2-0.5-0.3c0,0,0,0,0,0c-0.7-0.8,1.1-2.3,2.3-2.5
	C293.7,206.8,293.8,206.8,293.8,206.8z"/>
<path class="st0" d="M109,207.7C109,207.7,109,207.8,109,207.7c-0.4,0.9-1,1.7-2.4,1.4c0,0,0-0.1,0-0.1c0-0.1,0-0.1,0-0.2
	s0-0.1,0-0.2c0.1-0.3,0.2-0.5,0.5-0.6c0,0,0,0,0,0C107.5,207.8,108.3,207.8,109,207.7z"/>
<path class="st0" d="M181.9,210.6L181.9,210.6c-1.7,1.8-5.9,0.8-8.6,1.4c-0.8-1.3-2.2-1.8-2.9-3.3c0,0,0-0.1,0-0.1
	C174.5,207.7,178.5,207.4,181.9,210.6z"/>
<path class="st0" d="M170.9,211.6c-3.2,2.7-9.7,1.3-11.5-1.4c0,0,0,0,0.1,0C164.3,209,168,208.3,170.9,211.6
	C170.9,211.6,170.9,211.6,170.9,211.6z"/>
<path class="st0" d="M109.6,211.2c-0.4,0.4-1.2,0.3-1.6-0.1c0.1-0.9,0.8-1.1,1.9-1C110,210.6,109.8,211,109.6,211.2z"/>
<path class="st0" d="M160.3,213.5c-3.3,0.8-6.3,1.1-8.1-0.5c-0.1-0.1-0.3-0.3-0.4-0.4c-0.5-0.5-0.8-1.2-1-2
	C154.9,209.9,158.9,210.2,160.3,213.5z"/>
<path class="st0" d="M290.4,211.6c-0.4-0.1-0.5,0.2-0.5,0.5c-0.3,0-0.4-0.3-0.4-0.6c0-0.2,0-0.4-0.1-0.7c0-0.1,0-0.2,0-0.2h0
	C290.2,210.4,290.3,210.9,290.4,211.6C290.4,211.5,290.4,211.6,290.4,211.6z"/>
<path class="st0" d="M151.2,214.4C151.2,214.4,151.2,214.4,151.2,214.4c-5.3,0.6-9,2.2-10.6-2.8c0,0,0-0.1,0-0.1
	C146.2,211.3,148.9,210.5,151.2,214.4z"/>
<path class="st0" d="M199.2,215.4c-3-0.3-6,0.5-6.7,1c-1.9-1.1-3.8-2.2-5.3-3.8c0,0,0,0,0.1,0c5.6-0.9,9.6-1.5,11.9,2.7
	C199.2,215.3,199.2,215.4,199.2,215.4z"/>
<path class="st0" d="M260.2,211.6c5.3-0.5,6.7,2.9,11.5,2.9c0.4-1.5-1.7-0.6-1-2.4c2.2-0.3,2.7,1.1,3.4,2.4c-0.9,2-2.8,3-3.8,4.8
	C265.6,218,262.9,214.8,260.2,211.6z"/>
<path class="st0" d="M141.1,214.9c-3.1,2.5-8,0.5-9.6-2.4C136.6,211.8,138.4,212.6,141.1,214.9z"/>
<path class="st0" d="M122.9,225.5c-6.6-0.3-9.9-8-13.5-13c0.2,0.3,0.4,0.4,0.6,0.4c0.1,0,0.1,0,0.2,0s0.1,0,0.2,0
	c0.4-0.1,0.9-0.4,1.5-0.4c0.3,0,0.6,0,0.9,0c0.4,0.6,0.8,1.1,1.2,1.7c0.8,1.1,1.6,2.2,2.4,3.3c0,0,0,0,0,0c0.4,0.5,0.8,1.1,1.3,1.6
	c0.4,0.5,0.8,1.1,1.3,1.6c0.8,1.1,1.7,2.1,2.5,3.1C122,224.5,122.5,225,122.9,225.5z"/>
<path class="st0" d="M204,214.4c-0.8,2-3.7-0.3-3.8-1.9c0.1,0,0.2,0,0.3,0c0.1,0,0.1,0,0.2,0c0.5,0,0.8,0.1,1,0.3
	c0.1,0.1,0.2,0.2,0.3,0.3c0.1,0.2,0.3,0.3,0.4,0.5l0,0c0.1,0.1,0.1,0.2,0.2,0.3c0,0,0,0,0.1,0.1c0.1,0.1,0.2,0.2,0.4,0.3
	C203.3,214.3,203.6,214.4,204,214.4z"/>
<path class="st0" d="M289.4,212.5c-0.2,0.6-0.6,1-1.4,1C287.8,212.5,288.7,212.6,289.4,212.5z"/>
<path class="st0" d="M132,216.4c-3.2,1.6-6.4,0.4-8.2-1.9c0,0,0,0,0,0C126,211.7,131.2,213,132,216.4C132,216.3,132,216.4,132,216.4
	z"/>
<path class="st0" d="M188.1,215.9c-1.1,0.9-2.5,1.3-3.9,1.5c-0.4,0-0.7,0-1.1,0c-0.2,0-0.4,0-0.5,0c-2.6-0.3-5.2-1.7-6.5-3.8
	c0.3,0,0.6-0.1,0.9-0.1c0.3,0,0.5-0.1,0.8-0.1c2.1-0.2,3.5-0.2,6.5-0.3C185.6,213.9,186.5,215.3,188.1,215.9z"/>
<path class="st0" d="M177.6,218.3c-3.8,0.2-6.4,0.1-8.5-0.8c-0.1-0.1-0.3-0.1-0.4-0.2c-0.4-0.2-0.8-0.4-1.2-0.7
	c-0.1-0.1-0.2-0.2-0.3-0.3c-0.3-0.3-0.7-0.6-1.1-0.9C169.5,212.5,176.7,214.3,177.6,218.3z"/>
<path class="st0" d="M287.2,215.3L287.2,215.3c-0.1,1.1-1.8,2.8-3,2.9c0,0,0,0,0,0c0.2-1.8,2.1-2,2.4-3.8c0.4,0.2,0.6,0.4,0.6,0.7
	C287.2,215.2,287.2,215.2,287.2,215.3z"/>
<path class="st0" d="M168,218.8c-0.3,0.1-0.6,0.2-0.9,0.3c-0.2,0-0.3,0.1-0.5,0.1c-1.2,0.3-2.3,0.3-3.5,0.2c-0.2,0-0.4,0-0.6-0.1
	c-0.3,0-0.7-0.1-1-0.2c0,0,0,0,0,0c-0.3-0.1-0.7-0.2-1-0.3c-0.6-0.2-1.2-0.5-1.8-0.7c-0.9-0.5-1.7-1.1-2.3-1.7
	C159.9,213.9,165.2,215.8,168,218.8z"/>
<path class="st0" d="M254.4,215.4c5.9-1.3,9.2,4.2,13.9,5.8C264.4,229,257.5,218.7,254.4,215.4z"/>
<path class="st0" d="M157.9,220.2c-4,0.6-9.5,0-11.5-2.9C150.6,215.3,156.6,215.8,157.9,220.2z"/>
<path class="st0" d="M213.6,220.2c-4.2,0.5-6.4-1-8.2-2.9C208.5,216,212.1,218.3,213.6,220.2z"/>
<path class="st0" d="M147.8,220.7c-4.3,1.9-7.2-0.1-9.6-2.4C141.8,215.8,146.1,218.5,147.8,220.7z"/>
<path class="st0" d="M205.9,219.7c-0.7,0.6-1.9,1.1-3.2,1.4c-0.2,0-0.4,0.1-0.6,0.1c-0.8,0.1-1.7,0.1-2.6,0.1c-0.1,0-0.3,0-0.4,0
	c-2.1-0.3-3.9-1.3-3.8-3.4c0.4,0,0.8-0.1,1.2-0.1s0.8-0.1,1.1-0.1c1.8-0.1,3.4-0.1,4.8,0.2c0.3,0.1,0.7,0.2,1,0.3
	C204.3,218.4,205.2,218.9,205.9,219.7z"/>
<path class="st0" d="M138.7,222.1c-5.4,0.8-6.9-0.4-9.6-2.9C132.3,216.7,138.2,218.1,138.7,222.1z"/>
<path class="st0" d="M194.9,221.6c-1.8,0.4-3.4,0.7-4.8,0.8c-0.4,0-0.9,0-1.3,0c-0.2,0-0.5,0-0.7-0.1c-1.6-0.2-2.9-0.9-4.2-2.1
	c0.6-0.5,1.3-1,2.1-1.2c0.5-0.2,1-0.3,1.6-0.4c1.3-0.2,2.7-0.1,3.9,0.2c0.2,0,0.4,0.1,0.6,0.2C193.5,219.4,194.5,220.3,194.9,221.6z
	"/>
<path class="st0" d="M183.8,222.2c0,0,0,0.1-0.1,0.1c0,0,0,0,0,0c0,0-0.1,0.1-0.2,0.1c-0.2,0.2-0.6,0.3-1,0.5
	c-0.2,0.1-0.3,0.1-0.5,0.2c-1.6,0.4-3.8,0.6-4.7,0.5c0,0-0.1,0-0.2,0c-1.7-0.3-3.2-1.5-3.8-2.4c-0.4-1.8,2.5-0.4,1.9-2.4
	c0.1,0.1,0.3,0.2,0.4,0.3c2.2,1.4,6.1,0.4,8,2.8C183.7,222,183.7,222.1,183.8,222.2z"/>
<path class="st0" d="M260.2,226.4c-0.8,0-1.2,0.4-1.4,1c-3.8-2.1-9.1-2.8-9.6-8.2C252.5,220.1,259.3,221.5,260.2,226.4z"/>
<path class="st0" d="M130.1,223.1h-2.9v-2.9C128,221.3,129.9,221.3,130.1,223.1z"/>
<path class="st0" d="M173.8,224.5C173.8,224.5,173.8,224.5,173.8,224.5c-2.9-0.5-8.3,0.9-9.6-3.3c0,0,0-0.1,0-0.1
	C167.1,220.5,172.2,220.6,173.8,224.5z"/>
<path class="st0" d="M221.3,224.5c-2.3,0-2.6,1.9-4.8,1.9c-1.8-1.1-4.1-1.7-4.3-4.3C214.4,221.4,220.4,220.3,221.3,224.5z"/>
<path class="st0" d="M164.2,225.5c-2.3-0.1-5.1,0.2-7.3-0.4c-0.1,0-0.3-0.1-0.4-0.1c-0.2,0-0.3-0.1-0.5-0.2c-0.1,0-0.2-0.1-0.3-0.1
	c-0.2-0.1-0.3-0.1-0.4-0.2c-0.7-0.4-1.3-1-1.7-1.9C157.4,221.1,163.5,221.3,164.2,225.5z"/>
<path class="st0" d="M154.1,226c-3,1.1-6.8,0.1-9.1-1.9c0,0,0,0,0.1,0C147.7,221.5,153,222.8,154.1,226
	C154.1,225.9,154.1,226,154.1,226z"/>
<path class="st0" d="M213.6,226.4c-3,1-6.1,1.2-8.7,0.1c-0.2-0.1-0.3-0.1-0.5-0.2c-0.3-0.2-0.7-0.4-1-0.6c-0.1-0.1-0.2-0.2-0.4-0.3
	c-0.8-0.6-1.5-1.4-2-2.5c2.6,0.8,5-0.9,8.6-0.5c0,0,0,0.1,0.1,0.1c0.1,0.2,0.3,0.4,0.4,0.6c0.2,0.2,0.3,0.4,0.5,0.5
	c0.2,0.1,0.3,0.3,0.5,0.4c0.4,0.3,0.8,0.6,1.1,0.9c0.2,0.1,0.3,0.3,0.5,0.4c0.2,0.1,0.3,0.3,0.5,0.5
	C213.4,226,213.5,226.2,213.6,226.4z"/>
<path class="st0" d="M279.9,225C279.9,225,279.8,225,279.9,225c-1-0.6,0.3-2.3,1.3-2.4c0,0,0.1,0,0.1,0
	C281.5,224.1,280,223.9,279.9,225z"/>
<path class="st0" d="M145.9,226.9c-2,0.8-5.6,0.7-7.9-0.5c-0.2-0.1-0.4-0.2-0.5-0.3c-0.1-0.1-0.2-0.2-0.3-0.2
	c-0.1-0.1-0.2-0.2-0.3-0.3c-0.2-0.2-0.4-0.4-0.5-0.6C138.9,221.5,144.5,224.8,145.9,226.9z"/>
<path class="st0" d="M243.8,223.6c4.6,0.1,6.3,3,10.1,3.8C251.5,231.9,244.1,228.3,243.8,223.6z"/>
<path class="st0" d="M203,227.9c-0.9,0.4-1.9,0.6-3,0.6c-0.3,0-0.7,0-1.1,0c-0.2,0-0.4,0-0.6,0c-3.3-0.3-6.8-1.6-8.3-3.5
	c0.8-0.4,1.7-0.7,2.6-0.9c0.3-0.1,0.6-0.1,0.9-0.1c1.7-0.2,3.5,0,5.1,0.6C200.5,225.3,202.2,226.5,203,227.9z"/>
<path class="st0" d="M136.8,227.9c-3,0.8-7.8,1.5-8.6-2.9C131.8,223.4,135.6,225.5,136.8,227.9z"/>
<path class="st0" d="M191.5,229.3c-6,0.8-9.9,0.2-12-3.8C185,224.7,190.3,224.7,191.5,229.3z"/>
<path class="st0" d="M279.4,225.5c-0.2,0.6-0.6,1-1.4,1c0,0,0-0.1,0-0.1c0.1-0.5,0.5-0.9,1.2-0.9
	C279.3,225.5,279.3,225.5,279.4,225.5z"/>
<path class="st0" d="M181,229.8c-1,1-3.9,0.2-4.8,1.4c-1.9-1.6-4.6-2.4-5.8-4.8C175.3,225.4,179.2,226.5,181,229.8z"/>
<path class="st0" d="M78.7,227.9c-0.5,0.6-5,1.2-4.8-0.5C75.1,226.5,78.1,226.8,78.7,227.9z"/>
<path class="st0" d="M171.8,231.2C171.8,231.2,171.8,231.2,171.8,231.2c-5.6,1.9-8.7-0.2-11.9-2.8c0,0,0,0-0.1-0.1
	C163.9,225.6,170.4,227.4,171.8,231.2z"/>
<path class="st0" d="M161.8,231.7c-4,3-7.6-0.9-10.1-2.4C155.2,226.3,159.5,229.5,161.8,231.7z"/>
<path class="st0" d="M275.2,230.3L275.2,230.3c-0.1,0-0.1,0-0.1,0c-0.3-1.5,1.1-1.3,1.4-2.3c0,0,0,0,0-0.1
	C277.8,228.6,276.4,230.4,275.2,230.3z"/>
<path class="st0" d="M153.1,233.6L153.1,233.6c-4.5,0.6-7.9-1.2-10.9-3.3c0,0,0,0-0.1,0C145.9,227.2,152,229.8,153.1,233.6z"/>
<path class="st0" d="M211.8,229.9c-0.2,0.8-1.7,0.2-2.5,0.4c-0.5-1.6,1.5-0.8,2.4-1C211.8,229.5,211.8,229.7,211.8,229.9z"/>
<path class="st0" d="M87.8,233.2c0,0.1-0.1,0.2-0.2,0.2c0,0,0,0,0,0c-1.1,1.2-3.9,1.2-5.6,0.7c-1.6-0.6-3.8-2.7-3.8-4.4
	c0,0,0.1,0,0.1,0C83.5,228.9,85.2,231.5,87.8,233.2z"/>
<path class="st0" d="M143.5,234.6C143.5,234.6,143.5,234.6,143.5,234.6c-4.4,0.3-7.9-0.8-10.6-3.4c0.6-0.6,1.4-1,2.4-1.2
	c0.1,0,0.3,0,0.4-0.1c1.2-0.2,2.6,0,3.9,0.4c0.4,0.1,0.8,0.3,1.2,0.5c0.2,0.1,0.4,0.2,0.6,0.3C142.5,232,143.3,233.2,143.5,234.6z"
	/>
<path class="st0" d="M208.3,232.7c-1.7,1.1-3.9,1.5-5.9,1.2c-1.9-0.3-3.5-1.3-4.2-3.1C202,230.1,207.2,228.9,208.3,232.7z"/>
<path class="st0" d="M257.3,230.8c1.4-0.7,1.4,2.1,0,1.4C257.3,231.7,257.3,231.2,257.3,230.8z"/>
<path class="st0" d="M198.2,234.1c-0.9,0.4-1.8,0.7-2.7,0.9c-0.3,0.1-0.6,0.1-0.9,0.1c-1.1,0.1-2.1,0.1-3-0.1
	c-0.1,0-0.3-0.1-0.4-0.1c-1.5-0.5-2.8-1.5-3.5-3.2h0.1c2.8,0.1,5.6-0.5,7.7-0.1C196.7,231.9,197.7,232.6,198.2,234.1z"/>
<path class="st0" d="M247.2,236c-4.5,0.6-6.4,0-9.1-1.9C239.5,229.9,247.2,231.8,247.2,236z"/>
<path class="st0" d="M272.2,234.1c-0.3-1.5,1.3-1.2,1.4-2.4C274.9,232.4,273.4,234.3,272.2,234.1z"/>
<path class="st0" d="M187.7,235.6c-4,1-7.6,0.4-9.1-2.4C181.5,232,187,231.9,187.7,235.6z"/>
<path class="st0" d="M247.2,233.2c2.2-0.1,6,0.7,8.6,1C253.7,236.7,248.8,235.1,247.2,233.2z"/>
<path class="st0" d="M178.6,236.5c-3.8,0.6-9.3,1.3-10.1-2.4C172.4,233.4,177.5,233,178.6,236.5z"/>
<path class="st0" d="M168,237.5c-2.8,1.1-7.9,0.6-7.7-2.9C164.1,234.3,167.2,234.7,168,237.5z"/>
<path class="st0" d="M94.1,239.4c-4.6,1.1-7.4-0.4-9.6-3.8C89.4,235.2,93.3,235.7,94.1,239.4z"/>
<path class="st0" d="M159.8,238c-3.5,1.8-7.9,1.4-9.1-2.4C154.9,235.2,158.4,235.6,159.8,238z"/>
<path class="st0" d="M215.1,239.4c-0.1,0.6-0.6,0.9-1.3,1c-0.1,0-0.2,0-0.3,0c-1.1,0.1-2.7-0.2-4.2,0c-0.6-2.5-4.1-2-4.3-4.8
	c1.7-0.2,3,0,4.2,0.3c0.3,0.1,0.5,0.2,0.8,0.3c1.8,0.7,3.1,1.9,4.6,2.9C214.8,239.2,214.9,239.3,215.1,239.4z"/>
<path class="st0" d="M270.8,237.3c0,0-0.1,0.1-0.1,0.1c-0.1,0-0.1,0.1-0.2,0.1c-0.3,0.2-0.8,0.2-1.2,0c-0.2-0.8,0.1-0.9,0.5-1
	c0,0,0.1,0,0.1,0c0.1,0,0.2,0,0.2-0.1c0.3-0.1,0.4-0.3,0.2-0.9c0,0,0.1,0,0.1,0c0,0,0.1,0,0.1,0c0,0,0.1,0,0.2,0
	C271.5,235.7,271.3,236.7,270.8,237.3z"/>
<path class="st0" d="M135.8,244.2c-4.1-1-5.8-4.4-7.2-8.2h2.4c0.1,0.2,0.2,0.3,0.3,0.5c1.6,1.9,3.7,3.3,4.3,6.3
	c0,0.2,0.1,0.4,0.1,0.6C135.8,243.7,135.8,243.9,135.8,244.2z"/>
<path class="st0" d="M150.7,238.9c-2.4,2-8,2-9.6-2.4C145.5,236.1,149,236.6,150.7,238.9z"/>
<path class="st0" d="M206.9,241.3c-0.7,0.1-1.3,0.2-2,0.3c-0.3,0-0.6,0.1-0.9,0.1c-0.2,0-0.3,0-0.4,0c-4.4,0.1-7.4-1.5-9.2-4.7
	C200,235.5,205.6,237.1,206.9,241.3z"/>
<path class="st0" d="M140.6,240.4c-2.3,1.2-3.2-1.4-4.8-2.4C137.8,236.5,140.4,238.5,140.6,240.4z"/>
<path class="st0" d="M196.3,241.8c-4.6,2.6-9.4-0.1-11-4.3c1.1-0.1,2.2-0.2,3.2,0c0.2,0,0.5,0.1,0.7,0.1c0.3,0,0.5,0.1,0.8,0.1
	c0.8,0.2,1.5,0.4,2.1,0.7c0,0,0,0,0,0c0.4,0.2,0.9,0.4,1.3,0.7c0.4,0.3,0.8,0.5,1.2,0.8c0.2,0.1,0.3,0.3,0.5,0.4
	c0.2,0.1,0.3,0.3,0.5,0.5C195.8,241.1,196,241.5,196.3,241.8z"/>
<path class="st0" d="M252,238.9c-1.2,4-4.1,0.9-6.2-0.5C247,237.1,251.4,236.9,252,238.9z"/>
<path class="st0" d="M127.7,241.8c-0.1,0-0.1,0.1-0.2,0.2c-1.7,1.1-3.3-0.4-4.4-1.4c-0.2-0.2-0.4-0.4-0.5-0.5
	c-0.1,0-0.1-0.1-0.2-0.1C123.6,236.7,126.6,240.5,127.7,241.8z"/>
<path class="st0" d="M187.2,242.8c-1.8,1.3-3.6,1.5-5.3,1.3c-2.9-0.5-5.5-2.7-7.7-4.1C178.8,236.3,184.6,240,187.2,242.8z"/>
<path class="st0" d="M176.6,243.7c-1.3,1.2-2.9,1.5-4.5,1.2c-0.3-0.1-0.7-0.2-1-0.3c-0.2-0.1-0.4-0.1-0.5-0.2c0,0,0,0-0.1,0
	c-0.2-0.1-0.5-0.2-0.7-0.4c-1.6-1-2.9-2.5-3.3-4.1c0.6-0.2,1.1-0.3,1.6-0.4c0.2,0,0.3,0,0.5,0c0.4,0,0.8,0,1.1,0
	c0.2,0,0.4,0,0.6,0.1C172.9,240.2,174.2,242.5,176.6,243.7z"/>
<path class="st0" d="M113.8,242.3c-2,0.6-1.9-1-3.4-1C110.8,239.5,113.7,240.9,113.8,242.3z"/>
<path class="st0" d="M101.8,244.2c-0.1,0.1-0.2,0.3-0.3,0.4c-2,2.2-5.1,0.9-7.4-0.6c-0.2-0.1-0.4-0.3-0.6-0.4
	c-0.7-0.5-1.3-0.9-1.7-1.3C95.2,239.8,99.8,241.6,101.8,244.2z"/>
<path class="st0" d="M168.4,244.6C168.4,244.6,168.4,244.6,168.4,244.6c-0.7,1.5-3.5,1-5.3,1.4c0,0,0,0,0,0
	c-0.1-0.1-0.2-0.2-0.3-0.3c-0.1-0.1-0.2-0.2-0.3-0.3c-0.6-0.5-1.3-0.9-2-1.2c0,0,0,0,0,0c-0.3-0.1-0.6-0.3-0.8-0.4
	c-0.1-0.1-0.3-0.1-0.4-0.2c-0.1,0-0.1-0.1-0.2-0.1c-0.3-0.2-0.5-0.4-0.7-0.6c-0.5-0.5-0.8-1.1-0.9-2
	C163.4,239.8,165.3,242.9,168.4,244.6z"/>
<path class="st0" d="M122.9,242.8c-0.4,1.1-2.7,0.2-3.8,0.5v-0.1c0-2.3,2.8-1.2,3.7-0.5C122.8,242.7,122.9,242.8,122.9,242.8z"/>
<path class="st0" d="M158.9,246.6c-2.3-0.2-3.3,0.9-5.8,0.5c-1.2-2.1-4.4-2.3-4.8-5.3c1.8-0.2,3.3-0.2,4.6,0c0.4,0.1,0.7,0.1,1,0.2
	c0.2,0,0.3,0.1,0.5,0.1c0.3,0.1,0.6,0.2,0.9,0.4c0.2,0.1,0.3,0.1,0.4,0.2c0.3,0.2,0.5,0.3,0.8,0.5h0c0.2,0.2,0.5,0.4,0.7,0.6
	c0.6,0.6,1.1,1.3,1.6,2.2C158.7,246.2,158.8,246.4,158.9,246.6z"/>
<path class="st0" d="M223.7,246.1c-0.6,0.1-1.2,0.2-1.8,0.2c-1,0.1-1.9,0.1-2.6,0c-0.3,0-0.7-0.1-1-0.2c-2.1-0.5-3.6-1.6-5.6-3
	c0.7-0.6,1.5-1,2.4-1.2c0.1,0,0.3-0.1,0.4-0.1c1.3-0.2,2.7,0,3.9,0.4C221.5,243,223.2,244.4,223.7,246.1z"/>
<path class="st0" d="M149.8,246.6c-0.7,0.8-1.6,1.2-2.5,1.4c-0.3,0.1-0.6,0.1-1,0.1c-1.1,0.1-2.4,0.1-3.5,0.2
	c-0.5,0-1.1,0.1-1.6,0.2c0,0,0,0,0,0c-1.3-1.2-1.2-3.6-1.5-5.7c3-0.6,4.8,0,6.2,1c0.2,0.1,0.3,0.2,0.4,0.3
	C147.5,244.9,148.5,245.9,149.8,246.6z"/>
<path class="st0" d="M214.1,247.1c-3.3,0.5-4.3,0.2-7.7,0.5c-0.4-2-2.6-2.2-3.8-3.4C207.1,242.5,211.9,242.6,214.1,247.1z"/>
<path class="st0" d="M273.6,246.6c-2.8-0.2-4.9,0.2-7.2,0.5C267.3,243.8,272.4,242.4,273.6,246.6z"/>
<path class="st0" d="M204,247.6c-1.2,1-3.1,1.2-5,0.9c-0.3,0-0.6-0.1-0.9-0.2c-2-0.5-3.9-1.6-4.7-3.1c2.3-1.3,3.6-0.5,6.3-1
	c0.2,0.1,0.3,0.3,0.5,0.5C201.4,245.7,202.6,246.7,204,247.6z"/>
<path class="st0" d="M130.1,249.5c-5.6,1.3-10.1-0.1-12-3.8c0,0,0,0,0.1,0C123.7,244.7,128,244.8,130.1,249.5
	C130.1,249.4,130.1,249.5,130.1,249.5z"/>
<path class="st0" d="M136.8,248.5c-3.4,1.3-6.6-1.6-8.2-3.8c2.3,1.2,5.2,1.8,7.4,3.2c0.1,0.1,0.3,0.2,0.4,0.3
	C136.5,248.3,136.7,248.4,136.8,248.5z"/>
<path class="st0" d="M194.9,248.5c-3.3,2.1-11.4,1.3-11.5-2.9C188.6,244.6,191.9,246.1,194.9,248.5z"/>
<path class="st0" d="M183.8,250.4c-4.9,0.5-8.2-0.6-9.6-3.8c3.5-0.3,6.3,0.1,8,1.5c0.2,0.2,0.4,0.3,0.5,0.5c0,0,0,0,0,0
	c0.2,0.2,0.4,0.5,0.6,0.8C183.5,249.8,183.7,250.1,183.8,250.4z"/>
<path class="st0" d="M111.8,251.4c-4.1,0.8-7.3,0.9-9.7-0.7c0,0,0,0,0,0c-1-0.7-2-1.7-2.8-3.1c0.2,0,0.4,0,0.7-0.1
	c0.5-0.1,1.1-0.1,1.6-0.2c1.7-0.2,3.3-0.1,4.7,0.1c0.2,0,0.3,0.1,0.5,0.1C109.1,248.1,110.9,249.3,111.8,251.4z"/>
<path class="st0" d="M119.5,250.4C119.5,250.4,119.5,250.4,119.5,250.4c-3.1,1.7-6,0.2-7.7-2.8c0,0,0-0.1,0-0.1
	C115.6,246.6,118.3,247.6,119.5,250.4z"/>
<path class="st0" d="M175.2,251.4c-4.9,0.9-8-0.3-9.6-3.8c3.5-0.3,6.3,0.1,8,1.5c0.2,0.2,0.4,0.3,0.5,0.5c0,0,0,0,0,0
	c0.2,0.2,0.4,0.5,0.6,0.8C174.9,250.8,175.1,251.1,175.2,251.4z"/>
<path class="st0" d="M231.4,251.4c-0.5,0.1-0.9,0.2-1.4,0.3c-0.4,0.1-0.9,0.2-1.3,0.2c-0.2,0-0.4,0.1-0.6,0.1c-1.1,0.1-2,0.1-2.9,0
	c-0.4,0-0.7-0.1-1-0.2c-0.3-0.1-0.7-0.2-1-0.4c-1-0.5-1.9-1.2-2.8-2.4c0.2-0.2,0.4-0.4,0.6-0.5c0.1-0.1,0.3-0.2,0.4-0.2
	c1.5-0.8,3.8-0.9,5.2-0.6C228.9,248,230.5,250.2,231.4,251.4z"/>
<path class="st0" d="M166.6,252.4c-3.8,1.2-6.1,0.4-8.3-1.1c-0.2-0.1-0.4-0.3-0.6-0.5c-0.5-0.4-1.1-0.9-1.7-1.4
	C159.5,246.8,165.6,249.4,166.6,252.4z"/>
<path class="st0" d="M220.8,251.9c-0.9,1-2,1.5-3.3,1.6c-0.3,0-0.7,0-1,0c-0.2,0-0.4,0-0.5-0.1c-2.8-0.4-5.5-2.1-6.1-3.9
	C214.9,248.2,218,248.9,220.8,251.9z"/>
<path class="st0" d="M156.5,253.3c-3.3,1.1-6.3,1-8.8,0.1c-0.4-0.2-0.8-0.3-1.2-0.5c0,0,0,0,0,0c-0.3-0.2-0.6-0.4-1-0.6c0,0,0,0,0,0
	c-0.3-0.2-0.6-0.4-0.9-0.7c-0.1-0.1-0.3-0.3-0.4-0.4c-0.3-0.3-0.5-0.5-0.8-0.8C148.5,249,155.1,248.1,156.5,253.3z"/>
<path class="st0" d="M268.3,252.4c-2.9-0.8-4.3,1.8-6.2,0.5c0,0,0-0.1,0-0.1c0.7-3.6,5.1-4.1,6.2-0.5
	C268.3,252.3,268.3,252.4,268.3,252.4z"/>
<path class="st0" d="M210.7,254.3c-5.2,0.6-8.2-1.1-10.1-3.8c0,0,0,0,0.1,0C204.9,249.9,209.5,249.6,210.7,254.3
	C210.7,254.2,210.7,254.3,210.7,254.3z"/>
<path class="st0" d="M145.4,253.8c-3,3.6-7.8-0.8-9.1-3.4C141.6,249.3,142.2,252.8,145.4,253.8z"/>
<path class="st0" d="M137.8,254.8c-2.5,1.8-6.5,1.6-9,0.2c-0.2-0.1-0.3-0.2-0.5-0.3c-1-0.7-1.6-1.7-1.5-2.8c0.4,0,0.7-0.1,1-0.1
	c0.3,0,0.6-0.1,1-0.1c1.8-0.1,3.3-0.1,4.6,0.2c0.2,0,0.3,0.1,0.5,0.1c0,0,0,0,0,0C135.4,252.4,136.7,253.3,137.8,254.8z"/>
<path class="st0" d="M201.6,255.2L201.6,255.2c-5.5,0.7-8.9-0.6-11.4-2.9c0,0,0,0-0.1,0C192.2,250.5,201.5,250.7,201.6,255.2z"/>
<path class="st0" d="M191.5,256.7c-4.3-0.2-7.8-1.2-10.1-3.4C184.9,250.7,190.7,253.5,191.5,256.7z"/>
<path class="st0" d="M127.2,255.7c-2.9,3.3-6.5-0.6-8.6-2.4c0.2-0.1,0.4-0.2,0.7-0.3c0.3-0.1,0.7-0.2,1-0.3c0.5-0.1,0.9-0.1,1.3-0.1
	c0.1,0,0.3,0,0.4,0c2,0.3,3.8,1.7,5,2.8C127,255.5,127.1,255.6,127.2,255.7z"/>
<path class="st0" d="M182.9,256.7c-2.5,2.1-8.2,0.5-9.6-2.4C176.5,250.9,180.2,254.6,182.9,256.7z"/>
<path class="st0" d="M120,257.6C120,257.6,120,257.6,120,257.6c-5.9,1.2-9.8,0.5-12.4-3.3c0,0,0-0.1-0.1-0.1
	C113.2,252.8,117.8,253.7,120,257.6z"/>
<path class="st0" d="M237.1,256.2c-4.4-0.2-8,1.4-10.1-1.4C229.5,253,236.6,252.3,237.1,256.2z"/>
<path class="st0" d="M173.8,257.6c-0.1,0.1-0.3,0.2-0.4,0.2c-0.2,0.1-0.3,0.2-0.5,0.2c-0.5,0.2-1,0.3-1.6,0.4c-0.4,0-0.9,0.1-1.3,0
	c-0.1,0-0.3,0-0.4,0c-1.9-0.2-3.9-1.2-5.3-2.3c-0.2-0.2-0.5-0.4-0.7-0.6c-0.1-0.1-0.2-0.2-0.3-0.3
	C167.4,252.6,171.4,255,173.8,257.6z"/>
<path class="st0" d="M272.6,255.7L272.6,255.7c-4.5,0.4-10.7,1.3-13.9,1.4h0c0.2-1.2,1.2-1.7,1.9-2.4
	C264.6,256.3,271,251.9,272.6,255.7z"/>
<path class="st0" d="M226.1,257.6c-4.4,0.1-7.1,0.8-9.6-1.4C218.6,253.4,227.3,254,226.1,257.6z"/>
<path class="st0" d="M256.2,255.2c0,0.2-0.2,0.5-0.3,0.8c0,0,0,0.1,0,0.1c0,0,0,0.1,0,0.1c-0.8-0.3,0-0.9,0-1.4
	C256.1,254.9,256.2,255.1,256.2,255.2z"/>
<path class="st0" d="M163.7,258.1c-0.1,0.2-0.2,0.3-0.3,0.4c-1.8,1.9-7,1.5-9.7-0.1c-0.2-0.1-0.4-0.3-0.5-0.4c0,0,0,0,0,0
	c-0.1,0-0.1-0.1-0.2-0.1c-0.3-0.3-0.5-0.5-0.6-0.8c-0.1-0.1-0.1-0.3-0.1-0.4c0-0.2,0-0.3,0-0.5C155,255.2,161.7,254.7,163.7,258.1z"
	/>
<path class="st0" d="M216.5,257.6c-1,1.3-3.5,1.6-5.4,1.2c-0.1,0-0.2,0-0.3-0.1c-1.6-0.4-2.9-1.3-2.5-2.5
	C210.6,255.3,214.6,255.7,216.5,257.6z"/>
<path class="st0" d="M152.2,260.5c0,0-0.1,0-0.1,0c-4.5,0.5-6.4-1.5-8.4-3.4c0,0,0,0,0,0C147.3,255.3,150.9,257.3,152.2,260.5z"/>
<path class="st0" d="M207.4,258.6c-2.4,2.2-8.9,2.6-9.6-1C201.7,257.1,204.1,256.1,207.4,258.6z"/>
<path class="st0" d="M246.2,258.6c-0.6,1.9-3.8,0.6-3.8-1C243.6,256.6,244.8,258.5,246.2,258.6z"/>
<path class="st0" d="M144.4,261.4c-1.4-0.4-5.3,0.2-8.1,0h-0.1c0-0.4-0.1-0.7-0.2-1c0,0-0.1-0.1-0.1-0.1c-0.1-0.1-0.3-0.2-0.4-0.3
	c-0.1-0.1-0.2-0.1-0.4-0.2c-0.2-0.1-0.5-0.2-0.7-0.3c-0.1,0-0.2-0.1-0.3-0.2c-0.1,0-0.1-0.1-0.2-0.1c-0.1,0-0.1-0.1-0.2-0.2
	c-0.3-0.3-0.4-0.8-0.3-1.5c3,0.1,8.7-0.6,10.5,2.1c0,0,0.1,0.1,0.1,0.1C144.2,260.2,144.4,260.8,144.4,261.4z"/>
<path class="st0" d="M196.8,261.5c-2.1-0.4-4.8-0.1-6.5-1.3c-0.1-0.1-0.2-0.2-0.3-0.3c-0.4-0.3-0.7-0.8-0.9-1.4
	C192.4,257.8,196.8,257.6,196.8,261.5z"/>
<path class="st0" d="M241.4,258.6c-1.4,1.4-8.1,2.7-9.1,0C235.8,259.1,238.7,257.4,241.4,258.6z"/>
<path class="st0" d="M133.9,262c-3.3,1.4-7.3-0.4-7.7-3.4c2.9-0.3,4.9,0.2,6.3,1.5c0.2,0.2,0.4,0.3,0.5,0.5c0.2,0.2,0.3,0.4,0.4,0.6
	l0,0C133.6,261.5,133.8,261.7,133.9,262z"/>
<path class="st0" d="M188.6,261.5c-2.3,1.3-7,0.7-8.6-1.4c0,0,0,0,0,0C181.4,258.5,187.6,258.6,188.6,261.5
	C188.6,261.5,188.6,261.5,188.6,261.5z"/>
<path class="st0" d="M230.9,260.5c-1.7,0.3-3.2,0.7-4.6,0.8c-0.2,0-0.4,0-0.6,0c-0.4,0-0.8,0-1.3,0c-0.7,0-1.4-0.2-2.1-0.4
	c0.2-0.5,0.9-1,1.8-1.3c0.3-0.1,0.6-0.2,0.9-0.3c0.1,0,0.3-0.1,0.4-0.1c1.1-0.2,2.2-0.3,3.2-0.1c0.1,0,0.2,0,0.3,0
	C229.9,259.5,230.7,259.9,230.9,260.5z"/>
<path class="st0" d="M126.7,263.4c-4,0.1-9.5,0.3-11.5-2.9C118.6,258.3,126.4,259.4,126.7,263.4z"/>
<path class="st0" d="M179,262.4c-2,1.4-7.6,0.6-8.6-1.9C172.9,259.7,179,259.2,179,262.4z"/>
<path class="st0" d="M220.8,261c-1.7,1.6-6.5,2.6-7.2-0.5C215.9,260.7,219.2,260,220.8,261z"/>
<path class="st0" d="M173.8,267.2C173.8,267.2,173.7,267.2,173.8,267.2c-4-0.7-6.3,2-9.6,0.5c-0.1-0.4,0-0.6,0.1-0.8
	c0.4-0.9,2.3-0.4,3-1.1c0.1-0.1,0.3-0.3,0.3-0.5c0.1-2.6-2.9-0.2-5.3-1c-1.6-0.7-3.1-1.2-3.8-2.8c0,0,0-0.1,0-0.1
	c4.2,0,9.3-1.4,11.4,1.5c0,0.3-0.1,0.5-0.3,0.6c0,0,0,0,0,0c-0.4,0.3-1.1,0.4-1.4,0.8c0,0,0,0,0,0c-0.2,0.2-0.2,0.5-0.1,1
	C169,266.9,174.1,264.3,173.8,267.2z"/>
<path class="st0" d="M211.2,262.9c-2.4,0.6-5.2,0.8-7.7,0C204.3,261.5,210.8,260.2,211.2,262.9z"/>
<path class="st0" d="M157.9,264.8c-1.1,0.6-2.3,0.7-3.4,0.5c-0.2,0-0.4-0.1-0.6-0.2c-1.4-0.5-2.5-1.5-2.7-2.7
	C153.9,261.6,156.5,262.2,157.9,264.8z"/>
<path class="st0" d="M201.6,264.4c-0.1-0.1-0.3-0.1-0.4-0.1c-0.1,0-0.3-0.1-0.4-0.1c-1.9-0.3-3.7,0.9-5.4-0.3
	C196.3,262,201.4,261.8,201.6,264.4z"/>
<path class="st0" d="M150.7,266.3c-2.1,0-4.4,0.2-6.3,0c-0.5,0-0.9-0.1-1.3-0.2c-1.3-0.3-2.3-0.8-3-1.7c0.9-0.7,2.1-1.2,3.5-1.4
	c1.1-0.2,2.3-0.1,3.4,0.1c0.4,0.1,0.8,0.2,1.2,0.4c0.1,0.1,0.3,0.1,0.4,0.2c0,0,0.1,0,0.1,0.1C149.7,264.3,150.5,265.1,150.7,266.3z
	"/>
<path class="st0" d="M193.9,264.8c-1.5,0.8-6.2,0.8-7.7,0c0-0.2,0.1-0.4,0.2-0.5c0.1-0.1,0.1-0.1,0.2-0.2c0.1-0.1,0.2-0.1,0.3-0.2
	c0.2-0.1,0.4-0.1,0.7-0.1c1.5-0.1,3.6,0.4,4.4-0.4C192.5,264.1,193.3,264.4,193.9,264.8z"/>
<path class="st0" d="M139.7,267.2L139.7,267.2c-3.7,0.4-6-0.6-7.2-2.8c0,0,0-0.1,0-0.1C135.7,263.6,138.9,264.3,139.7,267.2z"/>
<path class="st0" d="M132.5,267.7c-0.3,0.1-0.7,0.3-1,0.3c0,0,0,0,0,0c-0.2,0-0.3,0.1-0.5,0.1c-0.1,0-0.3,0.1-0.4,0.1
	c-0.2,0-0.4,0.1-0.5,0.1c-0.2,0-0.3,0.1-0.5,0.1c-0.2,0-0.3,0-0.5,0c-2.4,0.1-4.8-0.6-6.5-2.2C125,264.2,131.5,264.3,132.5,267.7z"
	/>
<path class="st0" d="M184.3,265.8c-1.5,0.8-6.2,0.8-7.7,0C177.4,264,183.4,264.6,184.3,265.8z"/>
<path class="st0" d="M162.3,267.8c-0.7,0.8-3.6,1.5-5,0.5c-0.1,0-0.1-0.1-0.2-0.1c-0.1-0.1-0.2-0.2-0.3-0.3
	c-0.2-0.3-0.3-0.6-0.3-1.1c2,0.5,4-0.5,5.7,0.9C162.2,267.7,162.3,267.8,162.3,267.8z"/>
<path class="st0" d="M154.6,268.7c-0.6,0.4-1.6,0.7-2.7,0.9c0,0,0,0,0,0c-0.4,0.1-0.8,0.1-1.1,0.1c-0.7,0.1-1.4,0.1-2.1,0
	c-0.4,0-0.8-0.1-1.1-0.1c-0.6-0.1-1.1-0.2-1.5-0.4c0.5-0.6,1.2-1,2.1-1.2c0.1,0,0.3-0.1,0.4-0.1c1.2-0.3,2.5-0.3,3.7-0.1
	C153.1,268,154,268.3,154.6,268.7z"/>
<path class="st0" d="M143.5,269.6c-1,1.2-4.4,1.4-5.3,0C138.8,268.6,142.3,268.3,143.5,269.6z"/>
<path class="st0" d="M136.3,271.6c-2-0.9-5.4,1-7.7-0.5C129.8,269.6,136.3,268.4,136.3,271.6z"/>
<path class="st0" d="M46.1,131.9c0.4-5.1,0.8-10,1-13.9c0.1-1.8,0.6-3.7,0.2-5.1c0.4,1.3-0.2,3.2-0.3,4.9c-0.2,3.8-0.6,8.8-1,13.9
	c-0.7,9.6,1.5,16,4.3,21C47.5,147.7,45.4,141.4,46.1,131.9z M50.6,162.6c0.1,0.1,0.1,0.2,0.2,0.3c0,0,0,0,0,0
	C50.7,162.8,50.7,162.7,50.6,162.6z M52.3,171.2c2.8,2.3,3.2,6.9,4,11.2C55.5,178,55.2,173.4,52.3,171.2z M60.5,168.4
	c0-0.1-0.1-0.1-0.1-0.2c-0.4,5.5-0.8,12,0,17.8c0,0,0,0,0.1,0C59.7,180.2,60.1,173.8,60.5,168.4z M63.8,12.4c0,0.1,0,0.1-0.1,0.2
	c0,0,0-0.1,0.1-0.1C63.8,12.5,63.8,12.4,63.8,12.4C63.8,12.4,63.8,12.4,63.8,12.4z M61.9,13.3c0,0,0,0.1,0,0.1c0.1,0,0.3,0,0.4,0
	c0.1,0,0.2,0,0.3,0c0.1,0,0.2,0,0.2,0c0.1,0,0.1,0,0.2,0c0.3-0.1,0.5-0.2,0.6-0.5C63.3,13.3,62.7,13.4,61.9,13.3z M64.3,83.4
	c1.3-2.1,2.9-3.8,5.3-4.6C67.1,79.6,65.5,81.3,64.3,83.4z M68.1,56.8c-0.5-3-3.3-6.7-1-9.6c-3.3-2.9,0.9-6.9,1-10.9H68
	c-0.1,4-4.3,8-1,11c-2.3,2.9,0.5,6.6,1,9.6c0,0.2,0,0.4,0,0.5C68.1,57.3,68.1,57.1,68.1,56.8z M70.1,191C70.1,191,70.1,191,70.1,191
	c0.3,0.9-0.9,1.6-0.5,2C69.6,192.5,70.5,191.9,70.1,191z M68.2,106.4c0.1-4.5-2.4-8.4-1.9-11.9c0,0-0.1,0-0.1-0.1
	c-0.5,3.5,2.1,7.4,1.9,12.1c2.2,1.1,0.7,6,3.4,6.7c0,0,0-0.1,0-0.1C68.9,112.3,70.4,107.6,68.2,106.4z M72.1,124.4
	C72.1,124.4,72,124.4,72.1,124.4c0.8,7.2-0.4,14.3-1.1,21.9c0,0,0.1,0,0.1,0C71.8,138.5,73,131.5,72.1,124.4z M77,21.6
	c-1.9,2-1.7,7.1-1.7,9.7c0,0,0.1,0.1,0.1,0.1C75.4,28.9,75.1,23.7,77,21.6z M73.4,220.7c0.7-6,3.1-11.7,8.2-13.9
	C76.4,208.9,74,214.7,73.4,220.7z M75.8,99.6c2.2-2.6,4.1-5.4,6.3-8C79.9,94.1,78,97,75.8,99.6z M53.1,189.3
	c-2.4-3.4-5.7-5.9-11.5-5.8c-3.4-3.3-10.2-3.3-13.2-7c0,0,0,0-0.1,0c3,3.9,9.9,3.9,13.4,7.2c5.8,0,9.1,2.4,11.5,5.8
	c10.6,3.4,17.4,10.6,26.7,15.3c0,0,0.1-0.1,0.1-0.1C70.6,200,63.8,192.7,53.1,189.3z M82,96.4c-6.6,3.8-7.6,11.4-8.6,20.6
	c-0.2,1.5-0.7,5.5-2.3,5.8c0,0.1,0,0.1,0,0.2c1.7-0.1,2.2-4.3,2.4-5.8c1-9.2,1.9-16.8,8.6-20.6c0.1,0.2,0.3,0.4,0.4,0.6
	C82.3,97,82.2,96.7,82,96.4z M76.3,34.3v-1.9C74,32.5,73,30.1,69.6,30c-1.3-1.9-2.7-3.7-5.8-3.8c-1.1-1.5-1.2-4.2-3.8-4.3
	c-0.9-2.7-0.4-4-1.9-6.2c0,0-0.1,0.1-0.1,0.1c1.5,2.2,0.9,3.5,1.9,6.2c2.5,0.1,2.6,2.8,3.8,4.3c3.1,0.1,4.5,1.9,5.8,3.8
	c3.4,0.1,4.3,2.5,6.7,2.4v1.9c2.7,0.3,5.3,0.7,6.2,2.8c0,0,0.1,0,0.1,0C81.7,35,79.1,34.6,76.3,34.3z M82.1,234.1
	c-1.7-0.5-3.8-2.5-3.8-4.3c0,0-0.1,0-0.1,0c0,1.7,2.2,3.8,3.8,4.4c1.7,0.5,4.5,0.5,5.6-0.7C86.4,234.6,83.7,234.6,82.1,234.1z
	 M86.3,103.1c-2.7,6-3.5,15.7-4.3,22.1c0,0.1,0.1,0.2,0.1,0.2c0.7-6.3,1.6-16,4.2-21.9C86.3,103.4,86.3,103.2,86.3,103.1z
	 M86.3,25.4c1.4-0.6,4-0.5,5.6-1.1C90.3,24.9,87.7,24.7,86.3,25.4z M82.5,78.9c-5.2-3.6-9.4-8.2-14.4-12c-0.6-2.7-1.7-5-1.9-8.2
	c-0.1-0.3-0.1-0.5,0-0.7c-0.2,0.1-0.2,0.4-0.1,0.8c0.2,3.2,1.2,5.5,1.9,8.2C73,70.8,77.2,75.4,82.5,78.9c6.3,1.1,10-0.4,12.9-2.9
	C92.6,78.4,88.8,79.9,82.5,78.9z M86.9,101.1c-0.9-1.2-1.5-2.4-2-3.6c0.5,1.3,1.1,2.5,2,3.7c2.3,0.4,3.5-0.2,4.2-1.4
	C90.4,101,89.1,101.5,86.9,101.1z M89.3,227.9c-3.9-1-5.5-4.1-8.1-6.3c0.7-3,4-11.3,7-11.5c-3.1,0-6.5,8.3-7.2,11.5
	C83.8,223.8,85.4,226.9,89.3,227.9c0.5,1.3,1.6,2.5,2.9,3.7C90.9,230.4,89.9,229.2,89.3,227.9z M90.8,120.3c0,0.2,0,0.3,0.1,0.4
	C90.8,120.6,90.8,120.5,90.8,120.3z M90.9,120.8c0.2,0.4,0.6,0.7,1.3,0.6v-0.1C91.5,121.4,91.1,121.1,90.9,120.8z M91.1,108.1
	c0.9,2.2,1.8,4.5,2.4,6.9C92.9,112.6,92,110.3,91.1,108.1z M92.6,92.6c0,0.2-0.1,0.4-0.1,0.6C92.5,93,92.6,92.8,92.6,92.6
	C92.6,92.6,92.6,92.6,92.6,92.6z M93,136.2c0.1,1,1.6,1.6,1.6,2.9C94.7,137.7,93.2,137.2,93,136.2z M95.1,111.3
	c0.3,0.3,0.8,0.2,0.9,0.4C95.9,111.4,95.4,111.6,95.1,111.3z M93.4,23.4c1.1,0.1,1,1.5,2.1,1.5C94.5,24.8,94.6,23.4,93.4,23.4z
	 M96.2,113.7c0.2,0.1,0.7,0.3,0.8,0.3C96.8,113.9,96.4,113.8,96.2,113.7z M93,103.2c2,3.5,4.6,7.4,5.9,11.8
	C97.7,110.5,95,106.6,93,103.2z M98.9,160.2c-7.1-2.9-13-7.1-16.3-13.8c0,0,0,0,0,0C85.8,153.2,91.8,157.3,98.9,160.2
	c0.2-0.8,0.4-1.7,0.6-2.6C99.3,158.5,99.1,159.3,98.9,160.2z M99.3,206.2c-5.1,0.3-9.7,0.1-12.9-1.4c-2.2-4.4-9-4.2-10.9-8.9
	c0,0,0,0-0.1,0c1.7,4.9,8.8,4.6,11,9.1c3.4,1.4,7.9,1.7,13,1.4C99.4,206.3,99.4,206.3,99.3,206.2z M99.9,237
	c-0.4-0.3-0.9-0.5-1.4-0.8c0.5,0.3,0.9,0.6,1.3,0.8c1.6,1,2.5,1.8,4.3,1.9C102.4,238.8,101.5,238,99.9,237z M94.6,94.9
	C94.6,94.9,94.6,94.9,94.6,94.9c2.7,0.7,3.4,3.3,5.7,4.3c0,0,0,0,0,0C98,98.2,97.3,95.5,94.6,94.9z M99.4,247.6c0.2,0,0.4,0,0.6-0.1
	c-0.2,0-0.4,0-0.7,0.1c0.8,1.4,1.7,2.4,2.8,3.1C101.1,250,100.2,249,99.4,247.6z M100.8,247.4c-0.3,0-0.5,0.1-0.8,0.1
	c0.5-0.1,1.1-0.1,1.6-0.2C101.3,247.3,101,247.4,100.8,247.4z M101.1,23.3c0.2,0,0.4,0,0.6,0.1c0,0,0,0,0,0
	C101.5,23.3,101.3,23.3,101.1,23.3z M94.7,131.6c4.1,2.5,5.9,7.4,9.7,10.3C100.7,139,98.8,134.2,94.7,131.6z M102.1,25.3
	c-0.6,0.2-1,0.6-1,1.4h0.1C101.2,25.9,101.6,25.5,102.1,25.3C102.2,25.3,102.1,25.3,102.1,25.3z M101.3,202.4L101.3,202.4l1.4,0.1
	c0,0,0-0.1,0-0.1H101.3z M103.1,34.2c-2.1,0.7-5.1,0.5-6.6,1.9C98.1,34.9,101,35,103.1,34.2C103.1,34.3,103.1,34.3,103.1,34.2z
	 M103.2,147.3c-0.2,0.5-0.4,1-0.5,1.5C102.8,148.3,103,147.8,103.2,147.3C103.2,147.3,103.2,147.3,103.2,147.3z M103,67.9
	c0.3-0.3,0.7-0.6,1-0.9c0,0,0,0,0,0C103.7,67.3,103.3,67.5,103,67.9z M100.6,162.2c1.8,1.9,4.9,2.5,6.7,4.4
	C105.5,164.6,102.4,164.1,100.6,162.2z M104.7,238.9c0,0-0.1,0-0.1,0c0.2,1.4,1.2,2.8,2.5,3.6C105.8,241.7,104.9,240.3,104.7,238.9z
	 M104.9,236.6c3.3,0.4,6,2.1,9,2.5C110.9,238.7,108.2,237,104.9,236.6z M104.6,166.3c-9.8-3.7-18.6-10.2-23.5-18.2
	c-1.7-0.2-4.8,1.7-6.7-0.5c-0.9,1.2-4.1,1.6-5.2,1c0,0,0,0.1,0,0.2c1,0.5,4.4,0.1,5.3-1c1.9,2.2,5,0.3,6.7,0.5
	c4.8,8,13.7,14.5,23.5,18.2c0.3,0.4,0.5,0.8,0.7,1.2C105.2,167.2,104.9,166.8,104.6,166.3z M106,47.7C106,47.7,106,47.7,106,47.7
	c0.5-0.3,0.8-0.7,0.9-1.3C106.8,47,106.5,47.4,106,47.7z M102.2,203.8C102.2,203.8,102.2,203.9,102.2,203.8c2.2-1.6,3.8-0.3,4.8,1.6
	c0,0,0,0,0-0.1C106,203.5,104.4,202.2,102.2,203.8z M111.6,16.9c1.7,1,3.1,2.7,3.5,4.6c-3.2,1.1-5.2,3.3-8.9,3.9
	c3.8-0.5,5.8-2.8,9-3.9C114.8,19.6,113.3,17.9,111.6,16.9z M109.9,16.1c0.5,0.2,1,0.4,1.5,0.7C111,16.5,110.5,16.2,109.9,16.1z
	 M107.1,208c0.4-0.3,1.1-0.3,1.9-0.3c0,0,0-0.1,0-0.1C108.3,207.8,107.5,207.8,107.1,208z M106.6,208.6c0.1-0.3,0.2-0.5,0.5-0.6
	C106.8,208.2,106.7,208.4,106.6,208.6z M106.1,89.6c0,0,0,0.1,0,0.1c3.1,6.4,2,14.4,3.3,22c0,0,0.1,0,0.1,0
	C108.1,104.1,109.2,96,106.1,89.6z M109,87.7c-0.1,2.6,1,4.9,1.4,7.7C110.1,92.6,109,90.3,109,87.7z M110.4,212.9
	c0.4,0,0.9-0.4,1.5-0.4C111.3,212.5,110.8,212.8,110.4,212.9z M111.7,117.2c0.5,0.9,1.2,1.6,1.6,2.7
	C113,118.9,112.2,118.1,111.7,117.2z M110.4,241.3c1.5,0,1.4,1.6,3.4,1C111.8,242.8,111.9,241.2,110.4,241.3z M114.7,126.9
	c0.4,6-0.8,12.5-1.9,18.4C113.9,139.5,115.1,132.9,114.7,126.9z M117.2,231.2c-3.5-2.4-7.6-6.5-12-6.7c4.4,0.3,8.5,4.3,11.9,6.7
	c3,0.4,5,1.2,7.2,1.7C122.1,232.3,120.1,231.6,117.2,231.2z M117.2,233.6L117.2,233.6c0.8-0.1,1.4,0,1.9,0.1
	C118.6,233.5,118,233.5,117.2,233.6z M105.3,231.2c5.6,0.3,9.9,6.1,14.6,5C115.2,237.1,110.9,231.4,105.3,231.2z M111.8,247.5
	C111.8,247.5,111.8,247.6,111.8,247.5c3.8-0.9,6.5,0.1,7.7,2.9c0,0,0,0,0,0C118.3,247.6,115.6,246.6,111.8,247.5z M107.5,254.2
	C107.5,254.2,107.5,254.3,107.5,254.2c5.7-1.4,10.2-0.5,12.5,3.4c0,0,0,0,0,0C117.8,253.7,113.2,252.8,107.5,254.2z M122,252.7
	c2,0.3,3.7,1.8,5,2.8C125.7,254.5,124,253,122,252.7z M122,208.2c1.1,0.2,2.1,0.8,2.8,1.4C124.1,209,123,208.4,122,208.2z
	 M122.8,242.7c-0.3,1-2.6,0.2-3.7,0.5v0.1c1.1-0.3,3.4,0.6,3.8-0.5C122.9,242.8,122.8,242.7,122.8,242.7z M121,234.5
	c0.5,0.2,1.1,0.3,1.9,0.1c0,0,0,0,0,0C122.1,234.7,121.5,234.6,121,234.5z M125.8,209.6c0.1,0.8,0.8,1.6,0,1.9
	C126.6,211.2,125.9,210.3,125.8,209.6z M126.2,258.6c2.9-0.3,4.9,0.3,6.3,1.5C131.1,258.8,129.1,258.3,126.2,258.6z M130.1,249.4
	c-5.5,1.3-10-0.1-11.9-3.7c0,0,0,0-0.1,0C120,249.4,124.5,250.8,130.1,249.4C130.1,249.5,130.1,249.4,130.1,249.4z M132,216.3
	c-3.3,1.7-6.3,0.4-8.1-1.9c0,0,0,0,0,0C125.6,216.8,128.8,218,132,216.3C132,216.4,132,216.3,132,216.3z M126.3,208.6
	c1.6,1.6,4.8,3.1,7,2.3C131.1,211.6,127.8,210.1,126.3,208.6z M134.4,105.3c0.5,1.8,1.5,3.7,2.1,5.8C136,109,135,107,134.4,105.3z
	 M133.9,252c1.5,0.4,2.8,1.3,3.8,2.8c-2.4,1.7-6.4,1.6-8.9,0.2c2.4,1.4,6.4,1.5,9-0.2C136.7,253.3,135.4,252.4,133.9,252z
	 M131.3,236.5c1.6,2,3.7,3.4,4.3,6.3C135.1,239.8,132.9,238.4,131.3,236.5z M134.7,103c1.7,0,1.6,1.8,2.4,2.6
	C136.2,104.9,136.4,103,134.7,103z M128.6,271.1c2.3,1.5,5.7-0.4,7.7,0.5C134.3,270.6,130.8,272.5,128.6,271.1z M136,260.5
	c0.2,0.2,0.3,0.5,0.2,1h0.1C136.3,261,136.2,260.7,136,260.5z M135.8,182.8c0.4-0.9,1-1.8,1.3-2.6
	C136.7,181,136.2,181.9,135.8,182.8z M136.2,172.6c0.4,2,1.3,3.9,1.3,5.7C137.5,176.5,136.6,174.6,136.2,172.6z M133.4,257.6
	c-0.1,0.7,0,1.2,0.3,1.5c-0.2-0.3-0.3-0.7-0.2-1.4c2.9,0.1,8.5-0.6,10.4,2C142.1,257,136.4,257.7,133.4,257.6z M132.5,264.3
	C132.5,264.3,132.5,264.4,132.5,264.3c3.2-0.7,6.3,0,7.2,2.9h0C138.9,264.3,135.7,263.6,132.5,264.3z M140.3,102.5
	c-0.2,1.1,0,1.4,0.3,1.4C140.3,103.8,140.1,103.5,140.3,102.5z M140.2,264.4c0.8-0.7,2-1.2,3.4-1.4c-1.4,0.2-2.6,0.7-3.5,1.4
	c0.6,1,1.7,1.5,3,1.7C141.8,265.9,140.8,265.3,140.2,264.4z M140.3,110.3c0.4-1.7,0.8-3.5,1.3-5.1
	C141.1,106.8,140.7,108.5,140.3,110.3z M140.2,185.2C140.2,185.2,140.2,185.2,140.2,185.2c0.6-0.2,1.4-0.4,2.1-0.6
	C141.6,184.7,140.9,184.9,140.2,185.2z M141.2,248.5C141.2,248.5,141.2,248.5,141.2,248.5c0.5-0.1,1-0.2,1.6-0.2
	C142.2,248.3,141.7,248.4,141.2,248.5z M145,209.6c-0.5-1.6-2-2.7-3.7-3.3C143,206.9,144.4,208,145,209.6c-1.4,0.3-2.6,0.5-3.7,0.5
	C142.5,210.1,143.7,209.9,145,209.6z M133,231.2c0.6-0.6,1.4-1,2.3-1.2C134.3,230.2,133.5,230.6,133,231.2c2.6,2.6,6.1,3.7,10.5,3.4
	C139.1,234.8,135.7,233.7,133,231.2z M145.1,147.8c2.3,4.4,4.4,8.7,6.7,13C149.5,156.5,147.4,152.1,145.1,147.8z M149.8,246.6
	c-1.3-0.7-2.3-1.7-3.4-2.5C147.5,244.9,148.4,245.9,149.8,246.6c-0.8,0.8-1.6,1.1-2.5,1.4C148.2,247.8,149.1,247.4,149.8,246.6z
	 M145.6,120.4c1.2,2.2,3.2,3.4,3.8,5.8C148.9,123.8,146.8,122.5,145.6,120.4z M140.6,211.5C140.6,211.5,140.6,211.6,140.6,211.5
	c5.6-0.2,8.3-1,10.5,2.9c0,0,0,0,0.1,0C148.9,210.5,146.2,211.3,140.6,211.5z M151.2,262.4c0.2,1.2,1.3,2.2,2.7,2.7
	C152.5,264.6,151.5,263.6,151.2,262.4z M143.6,257.1C143.6,257.1,143.6,257.1,143.6,257.1c3.8-1.7,7.3,0.2,8.5,3.4c0,0,0.1,0,0.1,0
	C150.9,257.3,147.3,255.3,143.6,257.1z M147.7,253.4c2.5,0.9,5.5,1,8.8-0.1C153.2,254.3,150.2,254.3,147.7,253.4z M154.6,268.7
	c-0.6-0.4-1.5-0.7-2.4-0.9C153.1,268,153.9,268.3,154.6,268.7c-0.7,0.4-1.6,0.7-2.7,0.9C153,269.4,154,269.1,154.6,268.7z
	 M142.1,230.2C142.1,230.2,142.2,230.2,142.1,230.2c3.8-2.9,9.8-0.4,11,3.4h0C152,229.8,145.9,227.2,142.1,230.2z M154.1,225.9
	c-3,1.1-6.7,0.1-9-1.9c0,0,0,0-0.1,0C147.3,226.1,151.1,227.1,154.1,225.9C154.1,226,154.1,225.9,154.1,225.9z M153.7,205.5
	c1.3,0.7,1.8,2.3,3.7,2.7C155.6,207.8,155,206.2,153.7,205.5z M153.6,112.7c0.5,1.6,1.3,3.3,2.1,4.9
	C154.9,116,154.2,114.3,153.6,112.7z M146.4,217.3c2,2.9,7.5,3.5,11.5,2.9C153.9,220.7,148.4,220.1,146.4,217.3z M152.2,213
	c1.8,1.6,4.9,1.3,8.1,0.5C157,214.2,154,214.5,152.2,213z M158.9,181.8c-2.9-3.5-5.3-7.4-7.7-11c-2.9-4.3-7-7.8-8.2-13h-0.1
	c1.2,5.2,5.4,8.7,8.2,13c2.4,3.6,4.8,7.4,7.7,11c-0.6,0.3-1.2,0.5-1.9,0.7C157.6,182.3,158.3,182.1,158.9,181.8z M156.2,169
	c2.7,5.1,5.6,10,9.1,13.4C161.8,179,158.9,174.1,156.2,169z M160.2,127.9c1.1,2.9,2.3,5.7,3.5,7.9
	C162.5,133.5,161.3,130.8,160.2,127.9z M162.2,267.7c-0.6,0.8-3.5,1.5-4.9,0.6c1.4,1,4.4,0.3,5-0.5
	C162.3,267.8,162.2,267.7,162.2,267.7z M162.8,245.7c0.1,0.1,0.2,0.2,0.3,0.3c0,0,0,0,0,0C163,245.9,162.9,245.8,162.8,245.7z
	 M156.9,225.1c2.2,0.6,5,0.3,7.3,0.4C161.9,225.3,159.1,225.6,156.9,225.1z M158.3,251.3c2.2,1.5,4.5,2.3,8.3,1.1
	C162.8,253.5,160.5,252.8,158.3,251.3z M161,168c2.3,0.9,5.3,0.2,7.5-0.5C166.3,168.2,163.3,168.8,161,168z M164.3,266.9
	c0.6-0.8,2.4-0.3,3-1.1C166.5,266.4,164.7,266,164.3,266.9z M166.6,239.9c0.5-0.2,1-0.3,1.5-0.4
	C167.6,239.6,167.1,239.7,166.6,239.9c0.3,1.6,1.6,3.1,3.2,4.1C168.2,243,167,241.5,166.6,239.9z M165.3,182.4
	c3,2.9,6.1,5.6,9.1,8.2C171.5,187.9,168.4,185.3,165.3,182.4z M157.4,240.8c0.1,0.9,0.5,1.5,0.9,2c-0.4-0.5-0.8-1-0.8-1.8
	c5.8-1,7.8,1.9,10.9,3.7c0,0,0,0,0,0C165.3,242.9,163.4,239.8,157.4,240.8z M169.9,262.9c-2.1-2.9-7.2-1.5-11.4-1.5c0,0,0,0.1,0,0.1
	c4.3-0.1,9.3-1.5,11.3,1.5c0,0.2-0.1,0.4-0.2,0.5C169.8,263.4,169.9,263.2,169.9,262.9z M164.6,204.7c1.7,2.5,4.9,2.5,8.4,1.8
	C169.5,207.1,166.3,207.1,164.6,204.7z M170.8,211.5c-3.1,2.6-9.5,1.4-11.4-1.3c0,0,0,0-0.1,0C161.2,212.9,167.7,214.3,170.8,211.5
	C170.9,211.6,170.9,211.6,170.8,211.5z M171.3,258.5c0.5-0.1,1.1-0.2,1.6-0.4C172.4,258.3,171.8,258.4,171.3,258.5z M159.8,228.3
	C159.8,228.3,159.8,228.3,159.8,228.3c4.1-2.7,10.5-0.9,12,2.9c0,0,0,0,0,0C170.4,227.4,163.9,225.6,159.8,228.3z M164.2,221.1
	C164.2,221.1,164.2,221.2,164.2,221.1c2.9-0.6,7.9-0.5,9.5,3.4c0,0,0,0,0,0C172.2,220.6,167.1,220.5,164.2,221.1z M168,265.3
	c-0.1-0.5,0-0.8,0.1-1c-0.2,0.2-0.3,0.5-0.2,1.1c1,1.5,6.1-0.9,5.8,1.8c0,0,0.1,0,0.1,0C174.1,264.3,169,266.9,168,265.3z
	 M169.1,217.5c2.2,1,4.7,1,8.5,0.8C173.8,218.4,171.2,218.4,169.1,217.5z M176,198.4c-14.9,2-30.7,3.2-45.9,5.8
	c-3,0.5-5.4,0.2-8.2,0.5c-3.2,0.3-6.1,2.3-9.1,1.4c-3.3-1-5.1-8.7-9.6-9.1c-2.8-0.2-4,1.8-6.2,3.4c0,0.1,0,0.2,0,0.3
	c0,0,0-0.1,0-0.1c2.2-1.7,3.4-3.6,6.2-3.4c4.5,0.4,6.3,8.1,9.6,9.1c3,1,5.9-1,9.1-1.4c2.8-0.4,5.2,0,8.2-0.5
	c15.3-2.7,31.2-3.8,46.1-5.8C176.1,198.5,176.1,198.5,176,198.4z M176.2,213.5c0.3,0,0.5-0.1,0.8-0.1c-0.3,0-0.6,0.1-0.9,0.1
	c1.4,2.2,3.9,3.5,6.5,3.8C180,217,177.5,215.6,176.2,213.5z M177.3,223.6c1,0.1,3.2-0.1,4.7-0.5
	C180.4,223.5,178.3,223.7,177.3,223.6z M175.6,219.1c2.2,1.4,6,0.4,8,2.8C181.7,219.5,177.9,220.5,175.6,219.1z M170.4,208.6
	C170.4,208.6,170.4,208.7,170.4,208.6c4.1-0.9,8.1-1.2,11.4,2.1l0.1-0.1C178.5,207.4,174.5,207.7,170.4,208.6z M187.7,231.7h-0.1
	c0.7,1.7,1.9,2.7,3.5,3.2C189.5,234.4,188.3,233.4,187.7,231.7z M188.6,261.4c-2.3,1.3-6.9,0.7-8.5-1.4c0,0,0,0,0,0
	C181.6,262.2,186.3,262.8,188.6,261.4C188.6,261.5,188.6,261.5,188.6,261.4z M192.1,238.4c-0.7-0.3-1.4-0.5-2.1-0.7
	C190.7,237.9,191.5,238.1,192.1,238.4z M187.6,263.8c1.5-0.1,3.7,0.5,4.4-0.4C191.2,264.2,189.1,263.6,187.6,263.8z M187.6,263.8
	c-0.3,0-0.5,0.1-0.7,0.1C187.1,263.8,187.3,263.8,187.6,263.8z M190.1,225c0.8-0.4,1.6-0.7,2.5-0.9
	C191.7,224.3,190.8,224.6,190.1,225c1.4,1.8,4.9,3.2,8.2,3.5C195,228.2,191.6,226.8,190.1,225z M190.2,202.6c2.2,0.7,4.2,1.6,6,2.8
	C194.4,204.2,192.4,203.3,190.2,202.6z M194.9,221.6c-0.4-1.3-1.4-2.2-2.8-2.6c1.3,0.5,2.4,1.4,2.7,2.6c-1.7,0.4-3.3,0.7-4.7,0.8
	C191.5,222.3,193.1,222,194.9,221.6z M190.3,260.2c1.7,1.2,4.4,0.9,6.5,1.3C194.8,261,192,261.4,190.3,260.2z M195.4,217.8
	c0.4,0,0.7-0.1,1.1-0.1c-0.4,0-0.8,0.1-1.2,0.1c-0.1,2.1,1.7,3.1,3.8,3.4C197,220.9,195.3,219.9,195.4,217.8z M199.1,215.3
	c-2.9-0.3-5.9,0.5-6.6,1c-2-1.1-3.8-2.2-5.2-3.7c0,0-0.1,0-0.1,0c1.5,1.6,3.4,2.7,5.3,3.8c0.7-0.5,3.7-1.3,6.7-1
	C199.2,215.4,199.2,215.3,199.1,215.3z M200.2,244.7c1.2,1.1,2.4,2.2,3.8,2.9C202.6,246.7,201.4,245.7,200.2,244.7z M190.1,252.3
	C190.1,252.3,190.1,252.3,190.1,252.3c2.3-1.8,11.3-1.6,11.5,2.9h0C201.5,250.7,192.2,250.5,190.1,252.3z M202.6,244.2
	c1.2,1.2,3.4,1.4,3.8,3.4C206,245.6,203.9,245.3,202.6,244.2z M201.1,208c4.5,1.5,7.2,4.8,12,6.1C208.4,212.8,205.6,209.5,201.1,208
	z M186.3,163.7c12.9,11.5,26.3,22.4,40.8,32.2C212.6,186,199.2,175.1,186.3,163.7z M209.8,222.6
	C209.7,222.6,209.7,222.5,209.8,222.6c-3.7-0.5-6.1,1.2-8.7,0.4c0.5,1,1.2,1.8,2,2.5c-0.8-0.6-1.4-1.4-1.9-2.4
	C203.8,223.8,206.2,222.2,209.8,222.6z M209.8,249.5c0.6,1.8,3.3,3.5,6.1,3.9C213.2,253,210.5,251.3,209.8,249.5z M210.7,254.2
	c-5.2,0.6-8.1-1-10-3.7c0,0,0,0-0.1,0C202.5,253.2,205.5,254.9,210.7,254.2C210.7,254.3,210.7,254.2,210.7,254.2z M213.8,240.4
	c0.7-0.1,1.2-0.3,1.3-1C215,240,214.5,240.3,213.8,240.4z M212.2,222.1c0.2,2.6,2.5,3.2,4.3,4.3
	C214.8,225.3,212.5,224.7,212.2,222.1z M216.5,226.4c2.2,0,2.5-1.9,4.8-1.9C219,224.4,218.7,226.3,216.5,226.4z M223.7,246.1
	c-0.5-1.7-2.2-3.1-4.2-3.7c2,0.7,3.7,2,4.1,3.7c-0.6,0.1-1.2,0.2-1.7,0.2C222.5,246.3,223.1,246.2,223.7,246.1z M223.2,251.4
	c0.3,0.1,0.6,0.3,1,0.4C223.9,251.7,223.5,251.5,223.2,251.4z M223.1,199.4c1.4-1.3,3.1-1.7,4-3.5
	C226.2,197.6,224.4,198,223.1,199.4z M221.4,248.2c1.5-0.7,3.8-0.9,5.2-0.6C225.3,247.3,222.9,247.5,221.4,248.2z M230.9,260.5
	c-0.2-0.6-1-1-2-1.2c1,0.2,1.7,0.6,1.9,1.2c-1.7,0.3-3.1,0.7-4.5,0.8C227.7,261.2,229.2,260.8,230.9,260.5z M237.7,209.5
	c-1.9-2.1,1.6-4.3,0-6.2c-3.5,0.5-5.8,3-7,6.3c1.3-3.2,3.6-5.6,6.9-6.1c1.6,1.9-1.9,4,0,6.2c1.3-0.1,1.8-1.2,2.1-2.3
	C239.3,208.4,238.9,209.3,237.7,209.5z M255.9,256c0.1-0.3,0.4-0.5,0.3-0.8C256.2,255.4,256,255.7,255.9,256z M268.3,252.3
	c-2.9-0.8-4.3,1.8-6.2,0.5c0,0,0,0.1,0,0.1c1.9,1.3,3.3-1.3,6.2-0.5C268.3,252.4,268.3,252.3,268.3,252.3z M269.3,237.5
	c-0.3-0.7,0-0.9,0.4-1C269.3,236.6,269,236.8,269.3,237.5c0.4,0.2,0.8,0.2,1.1,0C270.1,237.7,269.7,237.7,269.3,237.5z M270.3,235.6
	C270.3,235.6,270.2,235.6,270.3,235.6c0.1,0.6,0,0.8-0.3,0.9C270.3,236.4,270.5,236.2,270.3,235.6z M260.6,254.7
	c-0.7,0.7-1.7,1.2-1.9,2.4h0C259,256,259.8,255.5,260.6,254.7c4,1.6,10.3-2.7,12,1h0C271,251.9,264.6,256.3,260.6,254.7z
	 M274.1,197.6c-4.5,1.5-9.1-0.7-12.4-0.6c-2.3,0.2-4.2,2-6.7,2.4c-2.2,0.4-4.4-0.4-6.2,0c-3.8,0.8-5.1,3.5-8.2,5.8
	c-0.1,0.1-0.2,0.3-0.3,0.4c0.1-0.1,0.1-0.2,0.2-0.2c3.2-2.3,4.4-5.1,8.2-5.8c1.8-0.4,4,0.4,6.2,0c2.4-0.4,4.4-2.2,6.7-2.4
	c3.4-0.3,8,1.9,12.4,0.6c-0.1,0.4-0.3,0.8-0.5,1.2C273.7,198.6,273.9,198.1,274.1,197.6z M276.5,227.9
	C276.5,227.9,276.5,227.9,276.5,227.9c1.1,0.7-0.2,2.4-1.3,2.4C276.4,230.4,277.8,228.6,276.5,227.9z M279.3,225.5
	c-0.2,0.5-0.6,0.8-1.2,0.9c0,0,0,0.1,0,0.1c0.8,0,1.2-0.4,1.4-1C279.3,225.5,279.3,225.5,279.3,225.5z M268.4,248.6c0,0-0.1,0-0.1,0
	c1.1,6.7,8.3,1.5,11.9,3.8c0.1,0,0.1,0,0.2,0C276.8,249.9,269.6,255.1,268.4,248.6z M281.3,222.6
	C281.3,222.6,281.2,222.6,281.3,222.6c0.2,1.5-1.3,1.3-1.5,2.3c0,0,0.1,0,0.1,0.1C280,223.9,281.5,224.1,281.3,222.6z M286.8,253.7
	c-4.3,0.2-10,2.7-13.5,0.5c0,0-0.1,0-0.2,0.1c3.6,2.3,9.6-0.4,13.9-0.5C286.9,253.8,286.8,253.8,286.8,253.7z M286.6,214.4
	c-0.3,1.8-2.2,2-2.4,3.8c0,0,0,0,0,0C284.5,216.4,286.3,216.2,286.6,214.4c0.4,0.2,0.6,0.5,0.6,0.7
	C287.2,214.8,287,214.6,286.6,214.4z M289.4,210.6L289.4,210.6c0,0.1,0,0.2,0,0.2C289.4,210.8,289.4,210.7,289.4,210.6z
	 M290.4,211.5c-0.4-0.1-0.5,0.2-0.5,0.5c-0.3,0-0.4-0.2-0.4-0.5c0,0.3,0.1,0.5,0.4,0.6C289.9,211.8,290,211.5,290.4,211.5
	C290.4,211.6,290.4,211.5,290.4,211.5z M293.7,206.8c-0.3,1.2-1.4,1.7-1.9,2.8c-0.2-0.1-0.3-0.1-0.4-0.2c0.1,0.1,0.3,0.2,0.5,0.3
	c0.5-1.1,1.6-1.6,1.9-2.9C293.8,206.8,293.7,206.8,293.7,206.8z M296.2,201.5L296.2,201.5c2,0.6-0.4,3.7-1.9,3.8v0
	C295.7,205.3,298.4,202.1,296.2,201.5z M315.1,172.7c-20.8,28.8-42.4,56.6-64.2,84.4c0.1,0,0.1,0.1,0.2,0.1
	c21.8-27.8,43.5-55.7,64.3-84.5H315.1z M320.2,170.8c0.2,1-1,0.6-1,1.4C319.3,171.5,320.5,171.9,320.2,170.8z"/>
<path class="st0" d="M38.3,174.1c2,1.5,3.9,3.3,5.3,4.8c-0.4,0.1-0.5,0.4-0.9,0.5c0,0,0,0,0,0c0.5,0,0.6-0.4,1-0.5
	C42.2,177.4,40.3,175.5,38.3,174.1z M32.7,171.7c1.9,0.1,3.8,1.1,5.6,2.3C36.5,172.8,34.6,171.8,32.7,171.7L32.7,171.7z M46.1,131.9
	c0.4-5.1,0.8-10,1-13.9c0.1-1.8,0.6-3.7,0.2-5.1c0.4,1.3-0.2,3.2-0.3,4.9c-0.2,3.8-0.6,8.8-1,13.9c-0.7,9.6,1.5,16,4.3,21
	C47.5,147.7,45.4,141.4,46.1,131.9z M50.6,162.6c0.1,0.1,0.1,0.2,0.2,0.3c0,0,0,0,0,0C50.7,162.8,50.7,162.7,50.6,162.6z
	 M60.5,168.4c0-0.1-0.1-0.1-0.1-0.2c-0.4,5.5-0.8,12,0,17.8c0,0,0,0,0.1,0C59.7,180.2,60.1,173.8,60.5,168.4z M70.1,191
	C70.1,191,70.1,191,70.1,191c0.3,0.9-0.9,1.6-0.5,2C69.6,192.5,70.5,191.9,70.1,191z M72.1,124.4C72.1,124.4,72,124.4,72.1,124.4
	c0.8,7.2-0.4,14.3-1.1,21.9c0,0,0.1,0,0.1,0C71.8,138.5,73,131.5,72.1,124.4z M53.1,189.3c-2.4-3.4-5.7-5.9-11.5-5.8
	c-3.4-3.3-10.2-3.3-13.2-7c0,0,0,0-0.1,0c3,3.9,9.9,3.9,13.4,7.2c5.8,0,9.1,2.4,11.5,5.8c10.6,3.4,17.4,10.6,26.7,15.3
	c0,0,0.1-0.1,0.1-0.1C70.6,200,63.8,192.7,53.1,189.3z M82,96.4c-6.6,3.8-7.6,11.4-8.6,20.6c-0.2,1.5-0.7,5.5-2.3,5.8
	c0,0.1,0,0.1,0,0.2c1.7-0.1,2.2-4.3,2.4-5.8c1-9.2,1.9-16.8,8.6-20.6c0.1,0.2,0.3,0.4,0.4,0.6C82.3,97,82.2,96.7,82,96.4z
	 M86.3,103.1c-2.7,6-3.5,15.7-4.3,22.1c0,0.1,0.1,0.2,0.1,0.2c0.7-6.3,1.6-16,4.2-21.9C86.3,103.4,86.3,103.2,86.3,103.1z
	 M96.2,180.2c1.2,2.9,5,3.1,7.2,1.2C101.2,183.2,97.4,183,96.2,180.2z M104.6,166.3c-9.8-3.7-18.6-10.2-23.5-18.2
	c-1.7-0.2-4.8,1.7-6.7-0.5c-0.9,1.2-4.1,1.6-5.2,1c0,0,0,0.1,0,0.2c1,0.5,4.4,0.1,5.3-1c1.9,2.2,5,0.3,6.7,0.5
	c4.8,8,13.7,14.5,23.5,18.2c0.3,0.4,0.5,0.8,0.7,1.2C105.2,167.2,104.9,166.8,104.6,166.3z"/>
<path class="st0" d="M324.8,170.6c-1.9-5.9-5.7-5.4-11-2.4c-0.4,0.1-0.5,1.1-1,1.4c-0.6,0.4-1.4,0.2-1.9,0.5
	c-13.2,7.8-28.6,17.4-39.4,24c-3.9-2.1-8.1-1.2-12-2.4c-1.3,0.8-2.2,1.9-3.8,2.4c-5.6-0.5-11,1.2-14.4,4.3
	c-7.3-3.8-15.1-8.6-21.1-13.4c-2-1.7-4.9-3.3-5.3-5.8c27-3.4,46.8-5.2,69.6-8.6c4.2-0.6,9-1.1,10.6-4.3c-8,0.7-21.5,1-27.8,1.9
	c-0.2,0.1-0.9,1-1.4,1c-1.2,0-2.5-0.7-3.8-0.5c-1.7,0.2-3.1,1.2-4.8,1.4c-2.5,0.3-5.2-0.3-7.7,0c-5.9,0.6-11.9,2.3-17.8,2.9
	c-3.5,0.4-6.3,0.7-8.2,1c-4.6,0.7-9.1,0.5-13.9,1.4c-8.7-6-16.1-15.3-26.4-18.2c-0.3-3.5-3.1-4.6-6.2-5.3
	c-3.4-9.6-9.5-20.1-13.9-29.3c-1.6-3.3-4.1-6.5-4.8-9.6c-0.8-3.7,0.1-7.3-1-10.6c-0.5-1.4-2-4.5-3.4-6.7c-0.5-0.9-1.7-1.4-2.4-2.4
	c-0.8-1.1-0.7-2.8-1.4-3.8c-0.9-1.3-4.4-5.4-5.3-6.2c-9.2-8.2-25-4.8-36.5-9.6c2.1-1.3,4-2.7,5.8-4.3c1.7,3.6,7-0.2,8.6-1.4
	c0-3,0.4-5.8,0.5-8.6c0.1-1.4,0.9-3.1,1-4.8c0.2-2.7,0.2-5.9,0-8.6c-0.2-3.1-0.5-7-1-10.6c-0.9-7.5-3.9-11.6-6.2-16.8
	c-0.5-1.2-0.6-2.7-1-3.4c-3.9-7.1-16.1-13.6-23-14.9c-5-1-11.4-0.2-16.3,3.8c-3.4-2.9-5.6-1.7-9.1,0c-4.9,2.4-11.3,8.6-13.4,13
	c-1.9,3.8-2.4,10.2-3.4,16.3c-0.4,2.8-1.6,5.6-1.9,8.2c-1,8.8,0.8,16.5-1,23c1.4,3.2,3,6.1,5.8,7.7c1.1-0.5,0.8-2.4,2.4-2.4
	c-0.3,1.8,0.4,2.6,1,3.4c2.1-1.2,3.7,1,5.8,1.4c2.6,0.5,5.5-0.2,8.2,0.5c1.3,0.3,2,2.4,3.8,1.4c4.1,5,11.8,10.4,19.7,6.7
	c3.6-1.7,5.1-6.3,8.6-7.7c0.3,1,1.7,0.4,2.4,1c2,1.8,0.8,4.6,0.5,6.2c-0.2,1.2,0.2,2.6,0,3.4c-1.3,4.5-4.6,9.2-5.8,10.6
	c-2.4-2.7-5.9-4.3-7.2-8.2c3-1.5,6.2-5.6,6.2-8.6c-4.3,3-5.7,8.4-11.6,9.1c-8.2,1.1-14.6-5.5-15.8-12c-5.9-2.6-8.4,0.5-12.5,2.9
	C48.6,86.5,41,89.5,28.6,94.2c-1,2.4-3.7,4.5-4.8,7.2c-0.6,1.5-0.5,3.6-1,5.3c-0.5,1.6-1.7,3-1.9,4.3c-0.8,5.3,0.6,10.4,0,16.3
	c-0.2,2.4-1.5,5.1-1.9,7.7c-1.1,7.6-2.8,12.6-3.4,19.2c-1.4,15.1,1.1,30,1.9,45.1c-7.3,0.5-12.1,0.7-17.8,2.9
	c2,3.7,6.7,2.3,10.1,1.9c3.8-0.5,8.4-2,11.5-1.4c1.9,0.3,4.3,2.9,7.2,4.8c6.6,4.4,13.1,7.6,19.7,11c3.1,1.6,5.4,3.7,7.7,4.8
	c1.2,0.6,3,0.9,4.3,1.4c4.7,1.8,8.3,3.6,13,4.8c9.3,8.8,20.8,15.4,29.3,25c3.2,1,5.6,2.8,6.7,5.8c8,1.2,13.3,11.8,20.2,13.4
	c2.5,0.6,8.4-0.1,12-0.5c4.4-0.4,9.7-1.3,13.4-1.9c9.9-1.5,19.6-1.9,28.8-2.9c19.7-2.2,45.1-4.7,64.3-8.2c1.2,1,3.9,0.4,5.3,1
	c11.4-3.7,27.5-2.4,37-6.2c-4.8-6.4-13.1-9.3-19.2-14.4c13.4-17.6,27.7-34.5,40.8-51.8C316.3,182.9,321.2,177.2,324.8,170.6z
	 M320.2,170.8c0.3,1.1-0.9,0.7-1,1.4C318.3,172.3,319.2,170.3,320.2,170.8z M237.7,209.5c1.2-0.2,1.6-1.1,2-2.1c0,0,0-0.1,0-0.1
	c0.1-0.4,0.3-0.9,0.4-1.2c0-0.1,0-0.1,0.1-0.2c0-0.1,0.1-0.2,0.1-0.3c0.1-0.2,0.2-0.3,0.3-0.4c3.1-2.3,4.4-5,8.2-5.8
	c1.8-0.4,4,0.4,6.2,0c2.5-0.4,4.4-2.2,6.7-2.4c3.3-0.1,7.9,2.1,12.4,0.6c-0.2,0.5-0.4,1-0.6,1.4c-0.1,0.2-0.2,0.3-0.3,0.5
	c-0.1,0.1-0.1,0.2-0.2,0.3c-3.2,4.5-10.6,2.7-16.3,4.7c-5.6,2-12.5,6.4-18.2,9.6c-2.8,1.6-5.4,4.1-9.1,4.3c-0.2-2.8,0.2-5.6,1-8
	c0-0.1,0.1-0.2,0.1-0.3c0-0.2,0.1-0.3,0.2-0.5c1.3-3.3,3.6-5.8,7-6.3C239.3,205.2,235.8,207.4,237.7,209.5z M234.7,200.5
	c-1.4,3.1-5.1,4.2-6.7,7.2c-1.2,2.4-1,5.5-1.1,8.6c0,0.1,0,0.2,0,0.3c0,0.4,0,0.8-0.1,1.2c0,0.2,0,0.4-0.1,0.6c0,0.2,0,0.4-0.1,0.5
	c0,0.3-0.1,0.5-0.1,0.7c-3.1-1.1-5.3-3-7.2-5.3c1.6-6.7,3.8-12.8,8.6-16.3C230.5,198.6,232.5,199.7,234.7,200.5z M210.7,254.3
	c-5.2,0.6-8.2-1.1-10.1-3.8c0,0,0,0,0.1,0c0,0,0-0.1-0.1-0.1C204.9,249.9,209.6,249.6,210.7,254.3L210.7,254.3
	C210.7,254.2,210.7,254.3,210.7,254.3z M201.6,255.3c-5.5,0.7-9-0.6-11.5-2.9c0,0,0,0,0.1-0.1c0,0,0,0-0.1,0
	C192.2,250.5,201.5,250.7,201.6,255.3L201.6,255.3C201.6,255.2,201.6,255.3,201.6,255.3z M152.1,260.6c-4.6,0.6-6.4-1.6-8.6-3.4
	c0,0,0.1,0,0.1-0.1c0,0,0,0,0,0c3.7-1.8,7.3,0.2,8.6,3.4C152.2,260.5,152.1,260.5,152.1,260.6C152.1,260.5,152.1,260.6,152.1,260.6z
	 M139.7,267.3c-3.7,0.4-6.1-0.7-7.2-2.9c0,0,0,0,0,0c0,0,0-0.1,0-0.1C135.7,263.6,138.9,264.3,139.7,267.3L139.7,267.3
	C139.7,267.2,139.7,267.3,139.7,267.3z M110.8,187.9c-2.2-6.7-2.2-13.4-4.9-19.2c2.8,5.8,2.8,12.6,5,19.4c-5.8,1.2-17,0.5-22.6,3.4
	c-1.5-0.4-3.2-0.6-4.8-0.5c-1.3,0.1-2.5,1.2-3.8,1.4c-3.4,0.5-7.3-1.2-9.6,1c-0.4-0.1-0.5-0.2-0.5-0.4c0.1,0.1,0.2,0.1,0.4,0.2
	c2.3-2.2,6.2-0.5,9.6-1c1.2-0.1,2.5-1.3,3.8-1.4c1.6-0.1,3.3,0.1,4.8,0.5C93.8,188.4,105,189.1,110.8,187.9z M98.4,173.6
	c2.2-0.4,4.6,2.5,6.7,4.4c-0.1,0.9-0.4,1.7-0.8,2.4c-0.1,0.2-0.3,0.3-0.4,0.5c-0.1,0.2-0.3,0.3-0.5,0.4c0,0,0,0,0,0
	c-2.2,1.9-6,1.7-7.2-1.2c-0.1-0.2-0.2-0.5-0.2-0.8C95.5,177.4,96.8,173.9,98.4,173.6z M82.6,146.3c3.8-2.6,8.9-3.9,12-7.2
	c0-1.4-1.4-2-1.6-2.9c0-0.1,0-0.2,0-0.3c0-0.3,0.2-0.7,0.6-1.2c2.4,4.9,6.3,8.4,9.6,12.5c0,0,0,0,0,0.1c0,0,0,0,0,0
	c-0.2,0.5-0.4,1-0.6,1.5c-0.1,0.2-0.2,0.4-0.2,0.6c-0.2,0.4-0.3,0.8-0.5,1.2c-0.3,0.8-0.6,1.6-0.9,2.4c-0.2,0.4-0.3,0.8-0.4,1.2
	c0,0,0,0.1,0,0.1c-0.2,0.5-0.4,1-0.5,1.6c-0.2,0.6-0.3,1.1-0.5,1.7c-0.2,0.9-0.4,1.7-0.6,2.7c-7.1-3-13.1-7.1-16.3-13.9
	C82.6,146.4,82.6,146.4,82.6,146.3C82.6,146.3,82.6,146.3,82.6,146.3z M92.6,127.1c-1-0.9-1.7-2.1-1.4-4.3
	C93.4,122.5,92.4,125.4,92.6,127.1z M92.2,121.3v0.1c-0.8,0-1.1-0.2-1.3-0.6c-0.1-0.1-0.1-0.3-0.1-0.4c0-0.3,0-0.5,0-0.8
	c0-0.1,0-0.3,0.1-0.4c0.1-0.4,0.2-0.9,0.3-1.2c0.7,0,0.9,0.5,1,1.2c0,0.1,0,0.2,0,0.3C92.2,120,92.2,120.7,92.2,121.3z M106.1,146.3
	c-2.8,4.2-3.8,10.2-6.2,14.9C102.2,156.5,103.3,150.5,106.1,146.3z M113.3,119.9c-0.4-1-1.2-1.8-1.6-2.7
	C112.2,118.1,113,118.9,113.3,119.9z M114.7,126.9c0.4,6-0.7,12.5-1.9,18.4c-1.4,0.8-3.2,1.1-5.3,1c2.2,0,3.9-0.4,5.3-1
	C113.9,139.4,115,132.9,114.7,126.9z M118.1,245.6c5.6-0.9,10-0.8,12,3.8c0,0,0,0,0,0c0,0,0,0.1,0,0.1c-5.6,1.3-10.1-0.1-12-3.8
	C118.1,245.7,118.1,245.7,118.1,245.6C118.1,245.7,118.1,245.6,118.1,245.6z M122.8,242.7C122.8,242.7,122.8,242.7,122.8,242.7
	c0,0,0.1,0.1,0.1,0.1c-0.4,1.1-2.7,0.2-3.8,0.5v-0.1c0,0-0.1,0-0.1,0C119,240.7,122.1,242.1,122.8,242.7z M122.4,239.9
	c1.2-3.2,4.2,0.6,5.3,1.9c-0.1,0-0.1,0.1-0.2,0.2c-1.8,1.2-3.3-0.3-4.4-1.4c-0.2-0.2-0.4-0.4-0.5-0.5
	C122.5,240,122.5,239.9,122.4,239.9z M106.6,209c0-0.1,0-0.1,0-0.2s0-0.1,0-0.2c0.1-0.3,0.2-0.5,0.5-0.6c0,0,0,0,0,0
	c0.4-0.3,1.2-0.3,1.9-0.3c0,0,0,0.1,0,0.1h0c-0.4,0.8-0.9,1.6-2.4,1.4c0,0,0-0.1,0-0.1C106.6,209.1,106.6,209,106.6,209z
	 M102.2,203.8c2.2-1.6,3.8-0.3,4.8,1.5c0,0,0,0,0,0.1c0,0,0,0,0,0c-0.1,1-1.3,0.9-1.4,1.9c-1.8-0.6-2.9-1.7-3.4-3.4
	C102.2,203.9,102.2,203.9,102.2,203.8C102.2,203.9,102.2,203.8,102.2,203.8z M101.3,202.5v-1.1c0.8-0.1,1.3,0,1.4,0.7
	c0,0.1,0,0.2,0,0.3c0,0,0,0.1,0,0.1H101.3z M109.9,210.1c0.1,0.5-0.1,0.9-0.3,1.1c-0.4,0.5-1.2,0.4-1.6-0.1
	C108.1,210.2,108.8,210,109.9,210.1z M110,212.9c0.1,0,0.1,0,0.2,0s0.1,0,0.2,0c0.4-0.1,0.9-0.4,1.5-0.4c0.3,0,0.6,0,0.9,0
	c0.4,0.6,0.8,1.1,1.2,1.7c0.8,1.1,1.6,2.2,2.4,3.3c0,0,0,0,0,0c0.4,0.5,0.8,1.1,1.3,1.6c0.4,0.5,0.8,1.1,1.3,1.6
	c0.8,1.1,1.7,2.1,2.5,3.1c0.5,0.5,0.9,1.1,1.3,1.6c-6.6-0.3-9.9-8-13.5-13C109.6,212.7,109.8,212.8,110,212.9z M115.7,212.5
	c5.8-0.7,4.9,5.4,7.2,8.2C120.6,219.8,117.6,215.4,115.7,212.5z M122,211.5c-0.1-1.1-0.9-1.6-1.8-1.9c-0.5-0.2-1.1-0.3-1.6-0.5
	c0.1-0.1,0.2-0.2,0.3-0.2c0.1-0.1,0.1-0.1,0.2-0.2c0.5-0.4,1-0.5,1.6-0.6c0.3,0,0.5,0,0.8,0c0.2,0,0.3,0,0.5,0.1
	c1.1,0.2,2.1,0.8,2.8,1.4c2.1-4.3,7.3-2.1,10.1,0c-0.1,0.2-0.3,0.4-0.4,0.5c-0.1,0.2-0.3,0.3-0.5,0.4c-0.1,0.1-0.2,0.1-0.3,0.2
	c-0.1,0.1-0.2,0.1-0.4,0.2c-2.2,0.8-5.5-0.7-7-2.3c-0.2,0.1-0.3,0.2-0.4,0.4c0,0.1-0.1,0.1-0.1,0.2c0,0,0,0.1,0,0.1
	c0,0.1,0,0.2,0,0.3c0.1,0.7,0.8,1.6,0,1.9H122z M199.2,215.4c-3-0.3-6,0.5-6.7,1c-1.9-1.1-3.8-2.2-5.3-3.8c0,0,0,0,0.1,0
	c0,0-0.1-0.1-0.1-0.1c5.7-0.8,9.7-1.4,12,2.8h-0.1C199.2,215.3,199.2,215.4,199.2,215.4z M132.9,231.2c0.6-0.6,1.4-1,2.4-1.2
	c0.1,0,0.3,0,0.4-0.1c1.2-0.2,2.6,0,3.9,0.4c0.4,0.1,0.8,0.3,1.2,0.5c0.2,0.1,0.4,0.2,0.6,0.3c1.2,0.8,2.1,1.9,2.3,3.4h-0.1
	c0,0,0,0,0,0C139.1,234.9,135.6,233.8,132.9,231.2z M140.6,240.4c-2.3,1.2-3.2-1.4-4.8-2.4C137.8,236.5,140.4,238.5,140.6,240.4z
	 M140.6,211.5c5.6-0.2,8.3-1,10.6,2.9c0,0,0,0-0.1,0c0,0,0,0.1,0.1,0.1C145.9,215.1,142.2,216.7,140.6,211.5L140.6,211.5
	C140.6,211.6,140.6,211.5,140.6,211.5z M159.4,210.1c4.9-1.1,8.6-1.8,11.5,1.4c0,0,0,0-0.1,0c0,0,0,0,0.1,0.1
	c-3.2,2.7-9.7,1.3-11.5-1.4C159.4,210.2,159.4,210.2,159.4,210.1C159.4,210.2,159.4,210.1,159.4,210.1z M170.4,208.6
	c4.1-0.9,8.1-1.2,11.5,2l-0.1,0.1c0,0,0,0,0.1,0c-1.6,1.7-5.9,0.7-8.6,1.4c-0.8-1.3-2.3-1.9-2.9-3.4
	C170.4,208.7,170.4,208.7,170.4,208.6C170.4,208.7,170.4,208.6,170.4,208.6z M176.2,231.2c-2-1.6-4.7-2.4-5.8-4.8
	c4.9-1,8.8,0.1,10.6,3.4C180,230.8,177.1,230,176.2,231.2z M187.7,235.6c-4,1-7.6,0.4-9.1-2.4C181.5,232,187,231.9,187.7,235.6z
	 M173.8,224.6c-2.9-0.6-8.4,0.8-9.6-3.4c0,0,0,0,0,0c0,0,0-0.1,0-0.1C167.1,220.5,172.2,220.6,173.8,224.6c0-0.1,0-0.1,0-0.1
	C173.8,224.5,173.8,224.6,173.8,224.6z M169.1,217.5c-0.1,0-0.3-0.1-0.4-0.2c-0.4-0.2-0.8-0.4-1.2-0.7c-0.1-0.1-0.2-0.2-0.3-0.3
	c-0.3-0.3-0.7-0.6-1.1-0.9c3.4-2.9,10.6-1.1,11.5,2.9C173.8,218.5,171.2,218.4,169.1,217.5z M168,218.8c-0.3,0.1-0.6,0.2-0.9,0.3
	c-0.2,0-0.3,0.1-0.5,0.1c-1.2,0.3-2.3,0.3-3.5,0.2c-0.2,0-0.4,0-0.6-0.1c-0.3,0-0.7-0.1-1-0.2c0,0,0,0,0,0c-0.3-0.1-0.7-0.2-1-0.3
	c-0.6-0.2-1.2-0.5-1.8-0.7c-0.9-0.5-1.7-1.1-2.3-1.7C159.9,213.9,165.2,215.8,168,218.8z M164.2,225.5c-2.3-0.1-5.1,0.2-7.3-0.4
	c-0.1,0-0.3-0.1-0.4-0.1c-0.2,0-0.3-0.1-0.5-0.2c-0.1,0-0.2-0.1-0.3-0.1c-0.2-0.1-0.3-0.1-0.4-0.2c-0.7-0.4-1.3-1-1.7-1.9
	C157.4,221.1,163.5,221.3,164.2,225.5z M157.9,220.2c-4,0.6-9.5,0-11.5-2.9C150.6,215.3,156.6,215.8,157.9,220.2z M147.8,220.7
	c-4.3,1.9-7.2-0.1-9.6-2.4C141.8,215.8,146.1,218.5,147.8,220.7z M145,224c2.6-2.5,8.1-1.2,9.1,1.9c0,0,0,0,0,0c0,0,0,0.1,0,0.1
	C151.1,227.1,147.3,226.1,145,224C145,224.1,145,224.1,145,224C145,224,145,224,145,224z M161.8,231.7c-4,3-7.6-0.9-10.1-2.4
	C155.2,226.3,159.5,229.5,161.8,231.7z M168,237.5c-2.8,1.1-7.9,0.6-7.7-2.9C164.1,234.3,167.2,234.7,168,237.5z M159.8,228.4
	C159.8,228.4,159.8,228.4,159.8,228.4c0-0.1,0-0.1,0-0.1c4.1-2.7,10.6-0.9,12,2.9c0,0,0,0,0,0c0,0,0,0.1,0,0.1
	C166.2,233.2,163.1,231,159.8,228.4z M178.6,236.5c-3.8,0.6-9.3,1.3-10.1-2.4C172.4,233.4,177.5,233,178.6,236.5z M177.3,223.6
	c0,0-0.1,0-0.2,0c-1.7-0.3-3.2-1.5-3.8-2.4c-0.4-1.8,2.5-0.4,1.9-2.4c0.1,0.1,0.3,0.2,0.4,0.3c2.2,1.4,6.1,0.4,8,2.8
	c0.1,0.1,0.1,0.2,0.2,0.3c0,0,0,0.1-0.1,0.1c0,0,0,0,0,0c0,0-0.1,0.1-0.2,0.1c-0.2,0.2-0.6,0.3-1,0.5c-0.2,0.1-0.3,0.1-0.5,0.2
	C180.4,223.5,178.2,223.8,177.3,223.6z M183.1,217.4c-0.2,0-0.4,0-0.5,0c-2.6-0.3-5.2-1.7-6.5-3.8c0.3,0,0.6-0.1,0.9-0.1
	c0.3,0,0.5-0.1,0.8-0.1c2.1-0.2,3.5-0.2,6.5-0.3h0.1c1.3,1,2.1,2.3,3.8,2.9c-1.1,0.9-2.5,1.4-4,1.5
	C183.8,217.4,183.5,217.4,183.1,217.4z M160.3,213.5c-3.3,0.8-6.3,1.1-8.1-0.5c-0.1-0.1-0.3-0.3-0.4-0.4c-0.5-0.5-0.8-1.2-1-2
	C154.9,209.9,158.9,210.2,160.3,213.5z M141.1,214.9c-3.1,2.5-8,0.5-9.6-2.4C136.6,211.8,138.4,212.6,141.1,214.9z M138.7,222.1
	c-5.4,0.8-6.9-0.4-9.6-2.9C132.3,216.7,138.2,218.1,138.7,222.1z M145.9,226.9c-2,0.8-5.6,0.7-7.9-0.5c-0.2-0.1-0.4-0.2-0.5-0.3
	c-0.1-0.1-0.2-0.2-0.3-0.2c-0.1-0.1-0.2-0.2-0.3-0.3c-0.2-0.2-0.4-0.4-0.5-0.6C138.9,221.5,144.5,224.8,145.9,226.9z M150.7,238.9
	c-2.4,2-8,2-9.6-2.4C145.5,236.1,149,236.6,150.7,238.9z M142.1,230.3C142.1,230.3,142.2,230.3,142.1,230.3
	C142.2,230.2,142.1,230.2,142.1,230.3c3.8-3.1,9.9-0.5,11,3.3h0c0,0,0,0.1,0,0.1C148.6,234.3,145.2,232.4,142.1,230.3z M159.8,238
	c-3.5,1.8-7.9,1.4-9.1-2.4C154.9,235.2,158.4,235.6,159.8,238z M168.4,244.6C168.4,244.6,168.4,244.6,168.4,244.6
	c0,0.1,0.1,0.1,0.1,0.1c-0.7,1.5-3.5,0.9-5.3,1.4c0,0,0-0.1-0.1-0.1c0,0,0,0,0,0c-0.1-0.1-0.2-0.2-0.3-0.3c-0.1-0.1-0.2-0.2-0.3-0.3
	c-0.6-0.5-1.3-0.8-2-1.2c0,0,0,0,0,0c-0.3-0.1-0.6-0.3-0.8-0.4c-0.1-0.1-0.3-0.1-0.4-0.2c-0.1,0-0.1-0.1-0.2-0.1
	c-0.3-0.2-0.5-0.4-0.7-0.6c-0.5-0.5-0.8-1.1-0.9-2C163.4,239.8,165.3,242.9,168.4,244.6z M166.5,239.9c0.6-0.2,1.1-0.3,1.6-0.4
	c0.2,0,0.3,0,0.5,0c0.4,0,0.8,0,1.1,0c0.2,0,0.4,0,0.6,0.1c2.6,0.5,4,2.9,6.4,4.1c-1.3,1.2-3,1.5-4.6,1.2c-0.3-0.1-0.7-0.2-1-0.3
	c-0.2-0.1-0.4-0.1-0.5-0.2c0,0,0,0-0.1,0c-0.2-0.1-0.5-0.2-0.7-0.4C168.2,243,166.9,241.5,166.5,239.9z M174.2,239.9
	c4.6-3.6,10.4,0.1,13,2.9c-1.8,1.3-3.6,1.5-5.3,1.3C178.9,243.5,176.3,241.4,174.2,239.9z M185.3,237.5c1.1-0.1,2.2-0.2,3.2,0
	c0.2,0,0.5,0.1,0.7,0.1c0.3,0,0.5,0.1,0.8,0.1c0.8,0.2,1.5,0.4,2.1,0.7c0,0,0,0,0,0c0.4,0.2,0.9,0.4,1.3,0.7
	c0.4,0.3,0.8,0.5,1.2,0.8c0.2,0.1,0.3,0.3,0.5,0.4c0.2,0.1,0.3,0.3,0.5,0.5c0.3,0.3,0.6,0.6,0.8,1
	C191.7,244.4,186.9,241.7,185.3,237.5z M191.5,235c-0.1,0-0.3-0.1-0.4-0.1c-1.5-0.5-2.8-1.5-3.5-3.2h0.1c2.8,0.1,5.6-0.5,7.7-0.1
	c1.3,0.3,2.3,1,2.9,2.5c-0.9,0.4-1.9,0.7-2.8,0.9c-0.3,0.1-0.6,0.1-0.9,0.1C193.5,235.2,192.4,235.2,191.5,235z M179.5,225.5
	c5.5-0.8,10.8-0.8,12,3.8C185.5,230.1,181.6,229.5,179.5,225.5z M188.8,222.3c-0.2,0-0.5,0-0.7-0.1c-1.6-0.2-3-0.8-4.3-2.1
	c0.6-0.5,1.4-1,2.3-1.2c0.5-0.2,1-0.3,1.6-0.4c1.3-0.2,2.7-0.1,3.9,0.2c0.2,0,0.4,0.1,0.6,0.2c1.4,0.5,2.4,1.4,2.8,2.6
	c-1.8,0.4-3.4,0.7-4.8,0.8C189.7,222.4,189.2,222.4,188.8,222.3z M191,210.3c-0.5,0.1-1,0.1-1.5,0.2c-0.1,0-0.3,0-0.4,0
	c-0.2,0-0.3,0-0.5,0c0,0-0.1,0-0.1,0c-2.4,0.1-4.8-0.2-6.6-1.4c0,0,0,0,0,0c-0.2-0.2-0.4-0.3-0.6-0.5c-0.1-0.1-0.2-0.2-0.3-0.3
	c2.4-2.4,10.9-2.3,11,1.9C191.7,210.2,191.3,210.2,191,210.3z M175.9,204c-0.2-0.1-0.4-0.2-0.5-0.3c-0.3-0.2-0.7-0.5-1-0.8
	c-0.2-0.2-0.4-0.4-0.6-0.6c-0.1-0.1-0.1-0.2-0.2-0.3c-0.1-0.2-0.2-0.3-0.3-0.5c2.7,0.1,4.3-0.9,7.2-0.5c1,2.2,5.2,1.2,5.3,4.3
	C182,205.3,178.6,205.5,175.9,204z M175.7,205.8c-0.5,0.1-1.1,0.3-1.6,0.4c-0.4,0.1-0.8,0.2-1.2,0.3c-3.5,0.7-6.6,0.7-8.4-1.8
	c0,0,0,0,0,0c-0.2-0.2-0.3-0.5-0.5-0.7c-0.1-0.3-0.3-0.7-0.4-1C169.2,201.1,172.4,202.6,175.7,205.8z M165.1,206.8
	c-0.8,0.2-1.8,0.5-2.8,0.8c-0.5,0.2-1,0.3-1.5,0.4c-0.5,0.1-1,0.2-1.5,0.3c-0.7,0.1-1.3,0.1-1.9-0.1c-1.8-0.4-2.4-2-3.7-2.7
	c-0.2-0.1-0.4-0.2-0.6-0.2C156.1,201.5,163.1,204,165.1,206.8z M154.1,207.7c-3.7,2.2-8.7,1.4-10.1-2.4
	C148.1,203.6,152.2,205.7,154.1,207.7z M145,209.6c-1.3,0.3-2.5,0.5-3.7,0.5c-0.7,0-1.4,0-2.1,0c-0.2,0-0.3,0-0.5,0
	c-0.2,0-0.5-0.1-0.7-0.1c-0.1,0-0.1,0-0.2,0c-0.2,0-0.5-0.1-0.7-0.2c-1.5-0.4-2.7-1.3-3.8-2.5c0.8-0.5,1.7-0.9,2.7-1.1
	c0.3-0.1,0.7-0.1,1-0.2c1.2-0.1,2.3-0.1,3.4,0.2c0.3,0.1,0.5,0.1,0.8,0.2C143,206.9,144.5,208,145,209.6z M123.8,214.4
	c2.1-2.7,7.5-1.4,8.2,1.9c0,0,0,0,0,0c0,0,0,0.1,0,0.1C128.8,218,125.6,216.8,123.8,214.4C123.8,214.5,123.8,214.5,123.8,214.4
	C123.8,214.4,123.8,214.4,123.8,214.4z M127.2,220.2c0.9,1.1,2.8,1.1,2.9,2.9h-2.9V220.2z M136.8,227.9c-3,0.8-7.8,1.5-8.6-2.9
	C131.8,223.4,135.6,225.5,136.8,227.9z M131.3,236.5c1.6,1.9,3.7,3.3,4.3,6.3c0,0.2,0.1,0.4,0.1,0.6c0,0.3,0,0.5,0,0.8
	c-4.1-1-5.8-4.4-7.2-8.2h2.4C131.1,236.2,131.2,236.3,131.3,236.5z M136,247.9c0.1,0.1,0.3,0.2,0.4,0.3c0.2,0.1,0.3,0.2,0.4,0.3
	c-3.4,1.3-6.6-1.6-8.2-3.8C131,245.8,133.8,246.5,136,247.9z M127.8,251.8c0.3,0,0.6-0.1,1-0.1c1.8-0.1,3.3-0.1,4.6,0.2
	c0.2,0,0.3,0.1,0.5,0.1c0,0,0,0,0,0c1.6,0.4,2.8,1.3,3.9,2.8c-2.5,1.8-6.5,1.6-9,0.2c-0.2-0.1-0.3-0.2-0.5-0.3
	c-1.1-0.7-1.7-1.7-1.6-2.8C127.1,251.9,127.5,251.8,127.8,251.8z M136.3,250.4c5.3-1.1,5.9,2.4,9.1,3.4
	C142.4,257.4,137.6,253,136.3,250.4z M141.2,248.5C141.2,248.5,141.2,248.5,141.2,248.5c0,0-0.1,0-0.1,0c-1.2-1.2-1.1-3.6-1.5-5.7
	c3.1-0.6,4.9,0,6.3,1c0.2,0.1,0.3,0.2,0.4,0.3c1.2,0.8,2.1,1.8,3.4,2.5c-0.7,0.8-1.6,1.2-2.5,1.4c-0.3,0.1-0.6,0.1-1,0.1
	c-1.1,0.1-2.4,0.1-3.5,0.2C142.2,248.3,141.7,248.4,141.2,248.5z M148.3,241.8c1.8-0.2,3.3-0.2,4.6,0c0.4,0.1,0.7,0.1,1,0.2
	c0.2,0,0.3,0.1,0.5,0.1c0.3,0.1,0.6,0.2,0.9,0.4c0.2,0.1,0.3,0.1,0.4,0.2c0.3,0.2,0.5,0.3,0.8,0.5h0c0.2,0.2,0.5,0.4,0.7,0.6
	c0.6,0.6,1.1,1.3,1.6,2.2c0.1,0.2,0.2,0.4,0.3,0.6c-2.3-0.2-3.3,0.9-5.8,0.5C151.9,245,148.7,244.8,148.3,241.8z M166.6,252.4
	c-3.8,1.2-6.1,0.4-8.3-1.1c-0.2-0.1-0.4-0.3-0.6-0.5c-0.5-0.4-1.1-0.9-1.7-1.4C159.5,246.8,165.6,249.4,166.6,252.4z M165.6,247.6
	c3.5-0.4,6.3,0.1,8,1.5c0.2,0.2,0.4,0.3,0.5,0.5c0,0,0,0,0,0c0.2,0.2,0.4,0.5,0.6,0.8c0.2,0.3,0.3,0.6,0.5,1
	C170.3,252.3,167.2,251.1,165.6,247.6z M174.2,246.6c3.5-0.4,6.3,0.1,8,1.5c0.2,0.2,0.4,0.3,0.5,0.5c0,0,0,0,0,0
	c0.2,0.2,0.4,0.5,0.6,0.8c0.2,0.3,0.3,0.6,0.5,1C178.9,250.9,175.6,249.8,174.2,246.6z M183.4,245.6c5.2-1,8.5,0.5,11.5,2.9
	C191.6,250.6,183.5,249.8,183.4,245.6z M193.4,245.2c2.3-1.3,3.6-0.5,6.3-1c0.2,0.1,0.3,0.3,0.5,0.5c1.2,1,2.4,2.1,3.8,2.9
	c-1.2,1-3.1,1.2-5,0.9c-0.3,0-0.6-0.1-0.9-0.2C196,247.8,194.2,246.7,193.4,245.2z M202.6,244.2c4.5-1.7,9.3-1.6,11.5,2.9
	c-3.3,0.5-4.3,0.2-7.7,0.5C206,245.6,203.8,245.4,202.6,244.2z M204.9,241.6c-0.3,0-0.6,0.1-0.9,0.1c-0.2,0-0.3,0-0.4,0
	c-4.4,0.2-7.5-1.4-9.2-4.7c5.6-1.5,11.2,0.1,12.5,4.3C206.2,241.4,205.6,241.5,204.9,241.6z M202.4,233.9c-1.9-0.3-3.6-1.3-4.2-3.1
	c3.8-0.7,9-1.9,10.1,1.9C206.6,233.8,204.4,234.2,202.4,233.9z M200,228.5c-0.3,0-0.7,0-1.1,0c-0.2,0-0.4,0-0.6,0
	c-3.3-0.3-6.8-1.6-8.3-3.5c0.8-0.4,1.7-0.7,2.6-0.9c0.3-0.1,0.6-0.1,0.9-0.1c1.7-0.2,3.5,0,5.1,0.6c2,0.7,3.8,1.9,4.6,3.3
	C202.2,228.3,201.1,228.5,200,228.5z M199.5,221.3c-0.1,0-0.3,0-0.4,0c-2.1-0.3-3.9-1.3-3.8-3.4c0.4,0,0.8-0.1,1.2-0.1
	s0.8-0.1,1.1-0.1c1.8-0.1,3.4-0.1,4.8,0.2c0.3,0.1,0.7,0.2,1,0.3c1,0.3,1.9,0.9,2.6,1.7c-0.7,0.6-1.9,1.1-3.3,1.4
	c-0.2,0-0.4,0.1-0.6,0.1C201.2,221.3,200.3,221.3,199.5,221.3z M200.2,212.5c0.1,0,0.2,0,0.3,0c0.1,0,0.1,0,0.2,0
	c0.5,0,0.8,0.1,1,0.3c0.1,0.1,0.2,0.2,0.3,0.3c0.1,0.2,0.3,0.3,0.4,0.5l0,0c0.1,0.1,0.1,0.2,0.2,0.3c0,0,0,0,0.1,0.1
	c0.1,0.1,0.2,0.2,0.4,0.3c0.2,0.1,0.5,0.2,0.9,0.2C203.2,216.4,200.3,214.1,200.2,212.5z M205.4,217.3c3.1-1.3,6.7,1,8.2,2.9
	C209.4,220.7,207.2,219.2,205.4,217.3z M201.1,208c4.5,1.5,7.3,4.8,12,6.1C208.3,212.8,205.6,209.5,201.1,208z M190.2,202.6
	c2.2,0.7,4.2,1.6,6,2.8C194.4,204.2,192.4,203.3,190.2,202.6z M179.5,165.5c-1,1.6-1.5,3.6-4.3,3.4c0,0,0-0.1,0-0.1h0
	C175.8,167,177.7,164.5,179.5,165.5C179.5,165.4,179.5,165.5,179.5,165.5C179.5,165.5,179.5,165.5,179.5,165.5z M169.4,170.3
	c0.6,0.2,1,0.6,1,1.4c-0.2,0.1-0.4,0.2-0.6,0.2c-0.2,0.1-0.3,0.1-0.4,0.2c-1.5,0.7-2.6,1.3-3.8,1.7c0,0-0.1,0-0.1,0
	c-0.2,0.1-0.4,0.1-0.6,0.2c0,0-0.1,0-0.1,0c-0.2,0.1-0.4,0.1-0.6,0.2c-0.3,0-0.5,0.1-0.8,0.2c-0.1,0-0.3,0-0.4,0.1
	c-0.1,0-0.3,0-0.5,0c-0.8,0.1-1.6,0.1-2.6,0.1C160.5,170.6,167.5,173,169.4,170.3z M161,168c2.3,0.8,5.3,0.2,7.5-0.5
	C166.3,168.2,163.3,168.9,161,168z M165.3,182.4c3.1,2.9,6.2,5.5,9.1,8.2C171.4,188,168.3,185.3,165.3,182.4
	c-3.5-3.3-6.4-8.3-9.1-13.4C158.9,174.1,161.8,179,165.3,182.4z M140.1,185.2c0.4-2.1,2.4-2.7,2.9-4.8c-2-5.7-2.5-15.4-1.5-22.6h1.5
	c1.2,5.2,5.3,8.7,8.2,13c2.4,3.6,4.8,7.5,7.7,11c-0.6,0.3-1.3,0.5-2,0.7c0,0-0.1,0-0.1,0c-3.6,1-8.1,1-12.1,1.6
	c-0.8,0.1-1.6,0.3-2.3,0.4s-1.5,0.4-2.1,0.6c0,0,0,0,0,0C140.2,185.2,140.1,185.2,140.1,185.2z M137.8,86.8c0.1,0,0.3,0,0.3,0
	c0.3,0,0.5,0.3,0.7,0.4c0.1,0.1,0.2,0.1,0.4,0.1c0,0.2,0,0.4,0,0.6c-0.2,5.3,0.1,8-1.1,12.4c-0.1,0.3-0.2,0.6-0.3,1
	c-0.1-0.1-0.2-0.1-0.3-0.2c-0.1-0.1-0.2-0.1-0.3-0.2c-0.1-0.1-0.2-0.2-0.2-0.3c-0.1-0.2-0.2-0.4-0.3-0.6c-0.1-0.1-0.1-0.2-0.1-0.3
	c0-0.1-0.1-0.2-0.1-0.4c0-0.1,0-0.3,0-0.4c0-0.5,0-1.1,0.1-1.8c0-0.5,0.1-0.9,0.2-1.4c0-0.2,0.1-0.3,0.1-0.5c0.1-0.5,0.2-1,0.3-1.5
	c0.1-0.3,0.1-0.6,0.2-0.8c0-0.2,0.1-0.5,0.1-0.7c0-0.2,0.1-0.3,0.1-0.5c0-0.2,0.1-0.3,0.1-0.5c0-0.2,0.1-0.3,0.1-0.5
	C137.9,89.2,137.6,88,137.8,86.8z M140.6,103.9c-0.3,0-0.5-0.3-0.3-1.4C140.1,103.5,140.3,103.8,140.6,103.9z M137.1,105.7
	c-0.9-0.8-0.7-2.6-2.4-2.6C136.4,103,136.2,104.9,137.1,105.7z M136.5,111.1c-0.6-2.1-1.6-4.1-2.1-5.8C135,107,136,109,136.5,111.1z
	 M137.1,180.2c-0.3,0.9-0.8,1.7-1.3,2.6C136.2,181.9,136.7,181,137.1,180.2z M136.2,172.6c0.4,2,1.3,3.9,1.3,5.7
	C137.4,176.5,136.6,174.6,136.2,172.6z M145.1,147.8c2.3,4.3,4.4,8.7,6.7,13C149.5,156.5,147.4,152.2,145.1,147.8z M145.6,120.4
	c1.2,2.1,3.3,3.4,3.8,5.8C148.8,123.8,146.8,122.6,145.6,120.4z M141.6,105.2c-0.5,1.6-1,3.4-1.3,5.1
	C140.7,108.5,141.1,106.8,141.6,105.2z M140.8,103.9c0.3-0.1,0.6-0.3,0.9-0.4C141.4,103.6,141,103.8,140.8,103.9z M142.5,102.1
	C142.5,102.1,142.5,102.1,142.5,102.1c-0.3,0.4-0.8,0.5-1.4,0.5c-0.3-1.6,0.8-1.8,1.9-1.9C143,101.3,142.8,101.8,142.5,102.1z
	 M139.2,101.6c0.3-2,0.9-3.9,2.9-4.3C141.8,99.4,141.2,101.2,139.2,101.6z M113.1,186.8c-0.6-1.5-1.1-3.3-1.4-5.1
	C112,183.5,112.5,185.3,113.1,186.8z M107.3,166.6c-1.8-1.9-4.9-2.5-6.7-4.4C102.4,164.1,105.5,164.6,107.3,166.6z M75.4,195.7
	c27.4-1.8,55.4-6.9,85.4-9.1c0.3-0.5,0.8-0.8,1.4-1c0.4,0.1,0.5,0.5,1,0.5c4.6,3.9,8.6,8.4,13,12.3c-0.1,0-0.1,0-0.2,0
	c0.1,0.1,0.1,0.1,0.2,0.2c-14.9,2-30.8,3.1-46.1,5.8c-3,0.5-5.4,0.1-8.2,0.5c-3.2,0.4-6.1,2.4-9.1,1.4c-3.3-1-5.1-8.7-9.6-9.1
	c-2.8-0.2-4,1.7-6.2,3.4c0,0,0,0.1,0,0.1v0.1c0,2.5,1.9,3.3,2.4,5.3h-0.1c0,0.1,0,0.1,0.1,0.2c-5.1,0.3-9.6,0-13-1.4
	c-2.2-4.5-9.3-4.2-11-9.1c0,0,0,0,0.1,0C75.5,195.8,75.4,195.8,75.4,195.7z M88.3,210.1L88.3,210.1c0.1,0,0.2,0,0.3,0
	c1.3,0.1,2.6,1.1,4.1,1.4c0.2,0,0.4,0.1,0.7,0.1c0.2,0,0.5,0,0.7,0c1,0.1,2.1,0,3.1,0c0.7,0,1.3-0.1,2-0.1c0.3,0,0.6,0,1-0.1
	c1.4-0.1,2.8-0.1,4.2-0.1c0.2,0,0.5,0,0.7,0c0.2,0,0.5,0,0.7,0.1c1.7,4,5.9,5.7,6.7,10.6c2.1,2.4,6.2,4.5,10.1,6.2
	c3,1.3,7.6,2.1,7.7,5.3h-0.1c-0.5,0-1,0-1.5,0c-1.6-0.1-3-0.3-4.3-0.7c-2.2-0.6-4.2-1.3-7.2-1.7c-3.4-2.4-7.5-6.4-11.9-6.7
	c-0.2,0-0.3,0-0.5,0c3.1,4.1,9.4,5,12.5,9.1c0.8-0.1,1.4-0.1,1.9,0.1c0.1,0,0.2,0.1,0.3,0.1c0.5,0.2,0.9,0.4,1.3,0.6
	c0.1,0,0.2,0.1,0.3,0.1c0.5,0.1,1.1,0.2,1.9,0.1c0,0,0,0,0,0c0,0,0.1,0,0.1,0c-0.9,0.8-1.8,1.3-2.7,1.5c-0.1,0-0.2,0.1-0.3,0.1
	c0,0,0,0-0.1,0c-4.7,1.1-9-4.7-14.6-5c-0.2,0-0.3,0-0.5,0c-0.2,0-0.3,0-0.5,0c0.6,2.5,4.1,3.3,6.2,4.3c2.5,1.2,5,2.1,7.2,3.4
	c-0.5,0.1-1,0.2-1.4,0.3c-0.2,0-0.3,0-0.5,0c-0.4,0-0.8,0-1.2,0c-0.2,0-0.4,0-0.7-0.1c-3-0.4-5.8-2.1-9-2.5c-0.2,0-0.5,0-0.7-0.1
	c-0.3,0-0.6,0-0.9,0c1.3,3.1,5.5,2.6,7.2,6.2c-1.2,0.6-2.4,0.4-3.4-0.2c0,0,0,0-0.1,0c-1.3-0.7-2.3-2.1-2.5-3.6c-0.2,0-0.4,0-0.5,0
	c-1.7-0.1-2.6-0.9-4.3-1.9c-0.4-0.3-0.8-0.5-1.3-0.8c-0.2-0.1-0.3-0.2-0.5-0.3c0,0-0.1,0-0.1-0.1c-0.4-0.3-0.8-0.6-1.3-0.8
	c-0.7-0.4-1.3-0.9-2-1.4c-0.7-0.5-1.3-1-2-1.6c-0.1-0.1-0.3-0.2-0.4-0.3c-1.3-1.2-2.4-2.4-3-3.7c-3.8-1-5.4-4.1-8.1-6.3
	C81.8,218.4,85.2,210.1,88.3,210.1z M110.4,241.3c0.4-1.8,3.3-0.4,3.4,1C111.8,242.9,111.9,241.3,110.4,241.3z M111.8,247.5
	c3.8-0.9,6.5,0.1,7.7,2.9c0,0,0,0,0,0c0,0,0,0,0,0.1C116.4,252.2,113.5,250.7,111.8,247.5C111.8,247.6,111.8,247.6,111.8,247.5
	C111.8,247.6,111.8,247.5,111.8,247.5z M119.3,253c0.3-0.1,0.7-0.2,1-0.3c0.5-0.1,0.9-0.1,1.3-0.1c0.1,0,0.3,0,0.4,0
	c2,0.3,3.8,1.7,5,2.8c0.1,0.1,0.2,0.2,0.3,0.2c-2.9,3.3-6.5-0.6-8.6-2.4C118.8,253.2,119,253.1,119.3,253z M132.5,260.1
	c0.2,0.2,0.4,0.3,0.5,0.5c0.2,0.2,0.3,0.4,0.4,0.6l0,0c0.2,0.2,0.3,0.5,0.4,0.8c-3.3,1.4-7.3-0.4-7.7-3.4
	C129.1,258.3,131.1,258.8,132.5,260.1z M136.3,261.5L136.3,261.5L136.3,261.5c-0.1-0.5-0.2-0.8-0.3-1c0,0-0.1-0.1-0.1-0.1
	c-0.1-0.1-0.3-0.2-0.4-0.3c-0.1-0.1-0.2-0.1-0.4-0.2c-0.2-0.1-0.5-0.2-0.7-0.3c-0.1,0-0.2-0.1-0.3-0.2c-0.1,0-0.1-0.1-0.2-0.1
	c-0.1,0-0.1-0.1-0.2-0.2c-0.3-0.3-0.4-0.8-0.3-1.5c3,0.1,8.7-0.6,10.5,2.1c0,0,0.1,0.1,0.1,0.1c0.3,0.5,0.5,1,0.6,1.7
	C143.1,261.1,139.1,261.7,136.3,261.5z M147.7,253.4c-0.4-0.1-0.8-0.3-1.2-0.5c0,0,0,0,0,0c-0.3-0.2-0.6-0.4-1-0.6c0,0,0,0,0,0
	c-0.3-0.2-0.6-0.4-0.9-0.7c-0.1-0.1-0.3-0.3-0.4-0.4c-0.3-0.3-0.5-0.5-0.8-0.8c5-1.4,11.6-2.3,13,2.9
	C153.2,254.4,150.2,254.3,147.7,253.4z M163.7,258.1c-0.1,0.2-0.2,0.3-0.3,0.4c-1.7,1.9-7,1.6-9.7-0.1c-0.2-0.1-0.4-0.3-0.5-0.4
	c0,0,0,0,0,0c-0.1,0-0.1-0.1-0.2-0.1c-0.3-0.3-0.5-0.5-0.6-0.8c-0.1-0.1-0.1-0.3-0.1-0.4c0-0.2,0-0.3,0-0.5
	C155,255.2,161.7,254.7,163.7,258.1z M163.5,255.5c-0.1-0.1-0.2-0.2-0.3-0.3c4.2-2.6,8.2-0.2,10.6,2.4c-0.1,0.1-0.3,0.2-0.4,0.2
	c-0.2,0.1-0.3,0.2-0.5,0.2c-0.5,0.2-1,0.3-1.6,0.4c-0.4,0-0.9,0.1-1.3,0c-0.1,0-0.3,0-0.4,0c-2-0.2-3.9-1.1-5.3-2.3
	C164,255.9,163.7,255.7,163.5,255.5z M173.3,254.3c3.2-3.4,6.9,0.3,9.6,2.4C180.4,258.8,174.7,257.2,173.3,254.3z M181.4,253.3
	c3.5-2.6,9.3,0.2,10.1,3.4C187.2,256.5,183.7,255.5,181.4,253.3z M196.8,261.5c-2.1-0.4-4.8-0.1-6.5-1.3c-0.1-0.1-0.2-0.2-0.3-0.3
	c-0.4-0.3-0.7-0.8-0.9-1.4C192.4,257.8,196.8,257.6,196.8,261.5z M209.8,249.5c5.1-1.3,8.2-0.6,11,2.4c-0.8,1-2,1.5-3.3,1.6
	c-0.3,0-0.7,0-1,0c-0.2,0-0.4,0-0.5-0.1C213.1,253,210.4,251.3,209.8,249.5z M220.4,249c0.2-0.2,0.4-0.4,0.6-0.5
	c0.1-0.1,0.3-0.2,0.4-0.2c1.5-0.8,3.8-0.9,5.2-0.6c2.3,0.4,3.9,2.6,4.8,3.8c-0.5,0.1-0.9,0.2-1.4,0.3c-0.4,0.1-0.9,0.2-1.3,0.2
	c-0.2,0-0.4,0.1-0.6,0.1c-1.1,0.1-2,0.1-2.9,0c-0.4,0-0.7-0.1-1-0.2c-0.3-0.1-0.7-0.2-1-0.4C222.2,250.9,221.3,250.2,220.4,249z
	 M221.9,246.3c-1,0.1-1.9,0.1-2.6,0c-0.3,0-0.7-0.1-1-0.2c-2.2-0.5-3.7-1.6-5.7-3c0.7-0.6,1.6-1,2.5-1.2c0.1,0,0.3-0.1,0.4-0.1
	c1.3-0.2,2.7,0,3.9,0.4c2,0.7,3.8,2,4.2,3.7C223.1,246.2,222.5,246.3,221.9,246.3z M213.8,240.4c-0.1,0-0.2,0-0.3,0
	c-1.1,0.1-2.7-0.2-4.2,0c-0.6-2.5-4.1-2-4.3-4.8c1.7-0.2,3,0,4.2,0.3c0.3,0.1,0.5,0.2,0.8,0.3c1.8,0.7,3.1,1.9,4.6,2.9
	c0.2,0.1,0.3,0.2,0.5,0.3C215,240,214.5,240.3,213.8,240.4z M211.7,229.3c0.1,0.3,0.1,0.4,0.1,0.6c-0.1,0.9-1.7,0.2-2.5,0.4
	C208.8,228.7,210.8,229.5,211.7,229.3z M204.9,226.5c-0.2-0.1-0.3-0.1-0.5-0.2c-0.3-0.2-0.7-0.4-1-0.6c-0.1-0.1-0.2-0.2-0.4-0.3
	c-0.8-0.6-1.5-1.4-2-2.5c2.6,0.8,5-0.9,8.6-0.5c0,0,0,0.1,0.1,0.1h0c0.1,0.2,0.2,0.4,0.4,0.6c0.2,0.2,0.3,0.4,0.5,0.5
	c0.2,0.1,0.3,0.3,0.5,0.4c0.4,0.3,0.8,0.6,1.1,0.9c0.2,0.1,0.3,0.3,0.5,0.4c0.2,0.1,0.3,0.3,0.5,0.5c0.2,0.2,0.3,0.4,0.5,0.7
	C210.7,227.5,207.5,227.6,204.9,226.5z M212.2,222.1c2.2-0.7,8.2-1.8,9.1,2.4c-2.3,0-2.6,1.9-4.8,1.9
	C214.7,225.3,212.4,224.7,212.2,222.1z M227.1,195.9c-0.9,1.8-2.7,2.2-4,3.5C224.4,198,226.2,197.6,227.1,195.9
	c-14.5-9.8-27.9-20.7-40.8-32.2C199.2,175.1,212.6,186,227.1,195.9z M163.7,135.8c-1.2-2.2-2.4-5-3.5-7.9
	C161.3,130.8,162.5,133.5,163.7,135.8z M155.8,117.6c-0.8-1.7-1.6-3.3-2.1-4.9C154.2,114.3,154.9,116,155.8,117.6z M150.7,100.2
	c-1.8-3.6-3.2-5.7-5-8.4C147.5,94.5,149,96.6,150.7,100.2z M110.4,95.4c0.8,6.1,0,12.1,0.5,17.4C110.4,107.5,111.1,101.5,110.4,95.4
	c-0.4-2.8-1.5-5.1-1.4-7.7C109,90.3,110.1,92.6,110.4,95.4z M61.9,13.3c0.1-0.8,0.8-1.1,1.9-1c0,0,0,0.1,0,0.1c0,0,0,0,0,0
	c0,0,0,0.1,0,0.1c-0.1,0.4-0.4,0.7-0.8,0.8c0,0-0.1,0-0.2,0c-0.1,0-0.1,0-0.2,0c-0.1,0-0.2,0-0.3,0c-0.1,0-0.3,0-0.4,0
	C61.9,13.4,61.9,13.3,61.9,13.3C61.9,13.3,61.9,13.3,61.9,13.3z M106.5,57.3c-1.3,2.7-1.5,6.5-2.4,9.6c0,0-0.1,0-0.1,0.1
	c0,0,0,0,0,0c-0.3,0.3-0.7,0.6-1,0.9c-0.6,0.6-1.2,1.2-1.8,1.8c-1.2,1.4-2.3,2.8-3.6,4.2c-0.6,0.6-1.1,1.2-1.8,1.8
	c-0.2,0.1-0.3,0.3-0.5,0.4c-2.9,2.5-6.6,4-13,3C77.2,75.4,73,70.8,68,67c-0.7-2.7-1.7-5-1.9-8.2C66,58.4,66,58.2,66.2,58l0,0
	c0.3-0.5,1.4-0.2,1.7-0.6c0.1-0.1,0.1-0.3,0-0.5c-0.5-3-3.3-6.7-1-9.6c-3.3-3,0.9-7,1-11h0.1c0,0,0-0.1,0-0.1c4.8,0.1,10,2,14.3,1
	c-0.8-2.1-3.5-2.5-6.2-2.8v-1.9c-2.4,0.1-3.3-2.3-6.7-2.4c-1.3-1.9-2.7-3.7-5.8-3.8c-1.2-1.5-1.3-4.2-3.8-4.3c-1-2.7-0.4-4-1.9-6.2
	c0,0,0.1-0.1,0.1-0.1c2.3-2.4,5.7-2,5.8,2.3c4.1,1.1,5.6,4.9,9.1,6.7c-0.1,3.6,0.4,4.6,2.3,6.6c0-2.6-0.2-7.7,1.7-9.7
	c0.1-0.1,0.1-0.1,0.2-0.2c0,0,0.1-0.1,0.1-0.1c2,0.4,2.4-0.8,4.3-0.5c2.2,1.8,1.9,9,0.5,11.5c3.9,3.3,10.3,2.3,15.8,1.9
	c2.1-0.3,4.5-3.8,5.3,0c0,0-0.1,0-0.1,0c0,0,0,0.1,0,0.1c-2.1,0.7-5,0.6-6.6,1.8c-0.1,0.1-0.2,0.1-0.2,0.2c0,0-0.1,0.1-0.1,0.1
	c0,0-0.1,0.1-0.1,0.2c1.2,1.5,2.7,1.5,4.3,1.3c0.7-0.1,1.4-0.3,2.1-0.4c1.6-0.3,3.1-0.5,4.6,0.2c-0.2,0.6-0.5,1.2-0.8,1.7
	c0,0,0,0,0,0.1c-0.3,0.5-0.7,1-1,1.5c0,0,0,0,0,0.1c-0.2,0.3-0.3,0.6-0.5,1c-0.2,2,2,1.5,2.4,2.9c0.1,0.7,0.1,1.2-0.1,1.6
	c-0.1,0.6-0.4,1-0.9,1.3C107.3,51.4,105,54.9,106.5,57.3z M72.5,33.5c-0.8,1-1.6,1.9-3.4,1.9C68.5,32.6,71.4,32,72.5,33.5z
	 M94.5,94.9C94.5,94.9,94.6,94.9,94.5,94.9C94.6,94.9,94.6,94.9,94.5,94.9c2.8,0.6,3.5,3.3,5.8,4.3c3.5-1.6,4.6-5.6,5.7-9.6
	c0,0,0,0.1,0.1,0.1c0,0,0-0.1,0-0.1c3.1,6.4,2,14.5,3.4,22.1c0,0-0.1,0-0.1,0v0c-1.5-0.1-3.1-2-4.3-3.4c-2.5-2.8-5.4-5.5-8.2-8.6
	C95.8,98.5,93.3,96.8,94.5,94.9z M93.6,100.2c7.5,5.3,13.3,12.4,17.4,21.2c0.3,0.6,0.5,1.2,0.8,1.8c-0.6,6.3,0.9,12.9-0.1,17.8
	c-0.1,0.4-0.2,0.9-0.3,1.3c-0.2,0.7-0.5,1.4-1,2c-1.7-0.2-3.1-0.6-4.3-1.2c-0.6-0.3-1.2-0.7-1.7-1.1c-3.8-2.9-5.6-7.8-9.7-10.3
	c-0.2-0.1-0.4-0.2-0.6-0.3c0-1.6-0.1-3.2,0.2-4.6c0-0.2,0.1-0.4,0.1-0.6c0.2-0.6,0.4-1.1,0.7-1.5c-0.2-0.2-0.4-0.5-0.5-0.8
	c-0.1-0.1-0.1-0.2-0.1-0.3c-0.4-1.3-0.2-3-0.4-5.1c-0.1-0.7-0.2-1.4-0.3-2.1c-0.1-0.4-0.2-0.8-0.3-1.3c-0.6-2.4-1.5-4.7-2.4-6.9
	c-0.2-0.4-0.3-0.7-0.5-1.1c-0.5-1.2-0.9-2.3-1.3-3.5c2,0.2,3.1,3,4.3,4.8c0.8,1.2,0.8,1.3,1.4,2.9c0,0,0,0.1,0.1,0.1
	c0.3,0.2,0.8,0.1,0.9,0.4c0.2,0.5-0.3,1.4,0,1.9c0,0.1,0.1,0.1,0.2,0.1c0.3,0.1,0.6,0.2,0.8,0.3c0,0,0,0,0,0
	c0.8,2.4,0.7,5.2,1.1,7.9c0.1,1,0.3,2,0.6,2.9c0.1,0.4,0.3,0.8,0.4,1.1c0.1,0.2,0.2,0.4,0.3,0.5c1.2-2.2,0.6-6,0-9.6
	c-0.1-0.4-0.1-0.8-0.2-1.1c-0.1-0.3-0.2-0.6-0.3-1c-1.3-4.4-3.9-8.3-5.9-11.8c-0.1-0.3-0.3-0.5-0.4-0.7c-0.1-0.3-0.3-0.6-0.4-0.8
	C92.9,101.4,93.3,100.9,93.6,100.2z M84,92c3.4-0.4,6.4-2.3,8.6,0.5c0,0,0,0,0,0.1c0,0,0,0,0,0c0,0.2-0.1,0.4-0.1,0.6
	c0,0.4-0.1,0.8-0.1,1.1c0,0,0,0,0,0.1c-0.1,0.6-0.1,1.2-0.2,1.8c0,0.4-0.1,0.8-0.2,1.2c0,0,0,0,0,0.1c0,0.2-0.1,0.4-0.1,0.6
	c0,0,0,0,0,0.1c-0.1,0.3-0.2,0.7-0.3,1c-0.1,0.2-0.2,0.4-0.3,0.6c0,0.1-0.1,0.2-0.2,0.3c-0.7,1.1-2,1.7-4.2,1.4
	c-0.9-1.2-1.6-2.4-2-3.7c-0.1-0.1-0.1-0.3-0.2-0.4c-0.5-1.5-0.7-3-0.7-4.9V92z M82,125.2c0.8-6.4,1.6-16.1,4.3-22.1
	c0,0.1,0,0.3,0,0.4c0-0.1,0.1-0.1,0.1-0.2c0.3,10.9-0.7,22.3,3.4,31.2c-3,7.2-11.2,9.3-18.7,12c0-0.1,0-0.2,0-0.2c0,0-0.1,0-0.1,0
	c0.7-7.6,1.9-14.7,1-21.8c-2.8,1.8-1.5,7.1-1.8,11c-0.4,4.9-1.6,9.7-1,13.2c1.1,0.5,4.3,0.1,5.2-1c1.9,2.2,5,0.3,6.7,0.5
	c4.9,8,13.7,14.5,23.5,18.2c0.3,0.5,0.6,0.9,0.8,1.4c-0.2-0.4-0.5-0.8-0.7-1.2c-9.8-3.7-18.7-10.2-23.5-18.2
	c-1.7-0.2-4.8,1.7-6.7-0.5c-0.9,1.1-4.3,1.5-5.3,1c0,0,0-0.1,0-0.2c0,0-0.1,0-0.1,0c-0.6-3.6,0.6-8.4,1-13.4c0.3-3.9-1-9.2,1.9-11
	c0,0.1,0,0.2,0,0.3c0,0,0,0,0.1,0c0.9,7.1-0.3,14.1-1,21.9c7.5-2.7,15.6-4.8,18.6-12c-4-8.8-3.1-20-3.4-30.8
	c-2.6,5.9-3.5,15.6-4.2,21.9C82.1,125.3,82,125.3,82,125.2L82,125.2c-4.3-9.2,4-20,0.7-27.5C86.2,105.1,78,115.9,82,125.2z
	 M66.2,94.4C66.2,94.4,66.3,94.4,66.2,94.4c0.1,0,0.1-0.1,0.1-0.1c1.9,1.3,1.7,4.7,3.8,5.8c-0.2,3,2,3.5,2.9,5.3
	c-0.4,3.6-0.6,4.4-1.4,7.7c0,0,0,0-0.1,0c0,0,0,0.1,0,0.1c-2.7-0.7-1.2-5.6-3.4-6.7C68.3,101.8,65.7,97.9,66.2,94.4z M82.1,96.6
	c-6.7,3.8-7.6,11.4-8.6,20.6c-0.2,1.5-0.7,5.7-2.4,5.8c0-0.1,0-0.1,0-0.2c0,0-0.1,0-0.1,0c0-1.3-0.6-2.7-1.4-4.2
	c0.8,1.4,1.4,2.8,1.5,4.1c1.6-0.2,2.1-4.3,2.3-5.8c1-9.2,2-16.8,8.6-20.6c0.2,0.3,0.3,0.5,0.5,0.8C82.4,97,82.2,96.8,82.1,96.6z
	 M69.6,78.8c0.2-0.1,0.3-0.1,0.5-0.2c2.1,6.2,6.8,9.8,12,13c-2.2,2.6-4.1,5.4-6.3,8c-0.3,0.4-0.6,0.7-1,1.1
	c-0.6,0.7-1.2,1.3-1.9,1.9c-0.3-1-1.4-1.6-0.5-2.4c-4-4.3-5-11.6-8.2-16.8C65.5,81.3,67.1,79.6,69.6,78.8z M62,84.6
	c1.8,9.9,3.7,19.8,5.3,29.8c0-0.1-0.1-0.1-0.1-0.2C65.5,104.2,63.7,94.5,62,84.6C62,84.6,62,84.6,62,84.6z M51.3,154.3
	c2.9,4.6,6.5,10.1,9.1,13.9v0c0,0,0.1,0.1,0.1,0.2c-0.4,5.3-0.8,11.8,0,17.6c3.8,1,5.6,4,9.5,4.8c0,0.1,0.1,0.1,0.1,0.2c0,0,0,0,0,0
	c0.4,0.9-0.5,1.5-0.5,2c-0.4-0.4,0.8-1.1,0.5-2c-4-0.8-5.8-3.8-9.6-4.8c0-0.1,0-0.1,0-0.2c0,0,0,0-0.1,0c-0.8-5.8-0.4-12.3,0-17.8
	c-2.6-3.8-6.1-9.2-9-13.8c-0.2-0.3-0.4-0.7-0.6-1.1C50.9,153.7,51.1,154,51.3,154.3z M52.3,171.2c2.9,2.2,3.3,6.8,4,11.2
	c0.1,0.6,0.2,1.2,0.3,1.8c-0.4,1.6-3.5-1.8-4.8-2.4C51.2,179.3,52.7,175.1,52.3,171.2z M47.1,118c-0.2,3.9-0.6,8.8-1,13.9
	c-0.7,9.5,1.4,15.8,4.2,20.8c-2.9-5-5-11.4-4.3-21c0.4-5.1,0.8-10.1,1-13.9c0.1-1.7,0.6-3.5,0.3-4.9C47.7,114.3,47.2,116.3,47.1,118
	z M43.6,111.1c2.3-0.1,3.3,0.6,3.6,1.7c-0.4-1-1.3-1.6-3.5-1.5c-1.8,2.2-0.4,4.1-0.5,6.7c-0.5,8.6-4,18.8-2.9,26.9
	c1,6.9,5.6,10.8,9.1,15.8c-3.6-5.1-8.2-9-9.2-16c-1.1-8.1,2.5-18.3,2.9-26.9C43.2,115.3,41.8,113.3,43.6,111.1z M32.7,171.7
	L32.7,171.7c1.9,0.1,3.8,1,5.6,2.3c2,1.4,3.9,3.3,5.4,4.8c0.3-0.3,0.7-0.5,1.4-0.5c0.6,0.6,0.6,1.8,0,2.4c-1.2,0.2-1.6-0.6-1.4-1.9
	c-0.4,0.1-0.5,0.5-1,0.5c0,0,0,0,0,0c0,0,0,0-0.1,0c-2.5-1.2-4.2-3.1-6.2-4.8c-1.7-0.5-3.7-0.8-3.8-2.9
	C32.6,171.7,32.7,171.7,32.7,171.7z M71,224.1c-8.7-2.7-18.3-8.2-26.4-12.5c-2.1-1.2-4.8-1.8-6.7-2.9c-1.5-0.9-2.8-2.5-4.3-3.4
	c-2.8-1.7-4-2.2-7.2-4.8c-1.2-0.9-2.8-1.6-3.4-2.4c0-0.1-0.1-0.2-0.1-0.3c0,0,0,0,0,0.1c0.6,0.8,2.3,1.5,3.4,2.4
	c3.2,2.6,4.4,3.1,7.2,4.8c1.5,1,2.8,2.5,4.3,3.4c1.9,1.2,4.6,1.8,6.7,2.9c8.1,4.4,17.7,9.8,26.4,12.5c0.3-9.6,2.7-15,9-19.1
	c-9.3-4.7-16.1-11.9-26.7-15.3c-2.4-3.4-5.7-5.8-11.5-5.8c-3.5-3.3-10.4-3.3-13.4-7.2c0,0,0,0,0.1,0c-0.1-0.1-0.1-0.1-0.2-0.2
	c6.7-0.7,12.1,6.4,19.2,5.3c-0.1-7.8,1.7-12.6,3.4-18.7c0-0.1-0.1-0.2-0.2-0.3c0.1,0.1,0.1,0.2,0.2,0.3c0,0,0,0,0,0
	c0,0.1,0.1,0.1,0.1,0.2c-1.7,6-3.5,10.8-3.4,18.7c-7.1,1.1-12.5-6-19.1-5.3c3.1,3.7,9.8,3.8,13.2,7c5.8-0.1,9.1,2.4,11.5,5.8
	c10.7,3.4,17.5,10.7,26.9,15.4c0,0-0.1,0-0.1,0.1c0.1,0,0.2,0.1,0.2,0.1C73.7,209,71.3,214.4,71,224.1z M81.6,206.8
	c1.7-0.8,2.9,1.4,4.8,1.9c-3.8,3.2-6.5,7.5-7.2,13.9c-1.2-1.6-3.4-1.6-5.1-1.8c-0.3,0-0.5,0-0.7-0.1C74,214.7,76.4,208.9,81.6,206.8
	z M73.9,227.4c1.2-0.9,4.2-0.6,4.8,0.5C78.2,228.5,73.7,229.1,73.9,227.4z M82,234.2c-1.6-0.6-3.8-2.7-3.8-4.4c0,0,0.1,0,0.1,0v-0.1
	c5.3-0.9,7,1.7,9.6,3.4c-0.1,0.1-0.2,0.2-0.3,0.3c0,0,0,0,0,0C86.5,234.7,83.7,234.7,82,234.2z M84.5,235.6c4.9-0.4,8.8,0.1,9.6,3.8
	C89.5,240.5,86.7,239,84.5,235.6z M94,244c-0.2-0.1-0.4-0.3-0.6-0.4c-0.7-0.5-1.3-0.9-1.7-1.3c3.5-2.5,8.1-0.7,10.1,1.9
	c-0.1,0.1-0.2,0.3-0.3,0.4C99.5,246.9,96.3,245.5,94,244z M102.1,250.7C102.1,250.7,102.1,250.7,102.1,250.7c-1.1-0.7-2-1.7-2.8-3.1
	c0.5-0.1,1-0.1,1.5-0.2c0.3,0,0.5-0.1,0.8-0.1c1.7-0.2,3.3-0.1,4.7,0.1c0.2,0,0.3,0.1,0.5,0.1c2.3,0.5,4.2,1.7,5.2,3.9
	C107.7,252.3,104.5,252.4,102.1,250.7z M107.5,254.3C107.5,254.3,107.5,254.3,107.5,254.3C107.5,254.3,107.5,254.2,107.5,254.3
	c5.7-1.5,10.3-0.6,12.5,3.3c0,0,0,0,0,0c0,0,0,0.1,0,0.1C114.1,258.8,110.2,258.2,107.5,254.3z M115.2,260.5
	c3.4-2.2,11.2-1.1,11.5,2.9C122.7,263.5,117.2,263.7,115.2,260.5z M122.4,266.3c2.6-2.1,9.1-2,10.1,1.4c-0.3,0.1-0.7,0.3-1,0.3
	c0,0,0,0,0,0c-0.2,0.1-0.3,0.1-0.5,0.1c-0.1,0-0.3,0.1-0.4,0.1c-0.2,0-0.4,0.1-0.5,0.1c-0.2,0-0.3,0.1-0.5,0.1c-0.2,0-0.3,0-0.5,0
	C126.5,268.7,124.2,268,122.4,266.3z M128.6,271.1c1.2-1.5,7.7-2.7,7.7,0.5C134.3,270.7,130.9,272.6,128.6,271.1z M138.2,269.6
	c0.6-1,4.1-1.3,5.3,0C142.5,270.8,139.1,271,138.2,269.6z M144.4,266.3c-0.5,0-0.9-0.1-1.3-0.2c-1.3-0.3-2.3-0.8-3-1.7
	c0.9-0.7,2.1-1.2,3.5-1.4c1.1-0.2,2.3-0.1,3.4,0.1c0.4,0.1,0.8,0.2,1.2,0.4c0.1,0.1,0.3,0.1,0.4,0.2c0,0,0.1,0,0.1,0.1
	c1.1,0.5,1.9,1.4,2.1,2.6h-0.1C148.6,266.3,146.3,266.5,144.4,266.3z M151.9,269.6C151.9,269.6,151.9,269.6,151.9,269.6
	c-0.4,0.1-0.8,0.1-1.2,0.1c-0.7,0.1-1.4,0.1-2.1,0c-0.4,0-0.8-0.1-1.1-0.1c-0.6-0.1-1.2-0.2-1.6-0.4c0.5-0.6,1.3-1,2.2-1.2
	c0.1,0,0.3-0.1,0.4-0.1c1.2-0.3,2.5-0.3,3.7-0.1c0.9,0.1,1.8,0.5,2.4,0.9C154,269.1,153,269.4,151.9,269.6z M154.5,265.3
	c-0.2,0-0.4-0.1-0.6-0.2c-1.4-0.5-2.5-1.5-2.7-2.7c2.7-0.8,5.3-0.2,6.7,2.4C156.8,265.4,155.6,265.5,154.5,265.3z M157.3,268.3
	c-0.1,0-0.1-0.1-0.2-0.1c-0.1-0.1-0.2-0.2-0.3-0.3c-0.3-0.3-0.4-0.7-0.4-1.2c2,0.5,4.1-0.5,5.8,1l0,0c0,0,0.1,0.1,0.1,0.1
	C161.6,268.6,158.7,269.3,157.3,268.3z M173.7,267.2c0,0,0,0.1,0,0.1c-4-0.7-6.3,2-9.6,0.5c-0.1-0.4,0-0.7,0.2-0.9
	c0.4-0.9,2.3-0.4,3-1.1c0.1-0.1,0.2-0.2,0.2-0.4c0.1-2.6-3-0.2-5.3-1c-1.5-0.7-3.2-1.3-3.8-2.9c0,0,0.1,0,0.1,0c0,0,0-0.1,0-0.1
	c4.2,0,9.3-1.4,11.4,1.5c0,0.3-0.1,0.5-0.3,0.6c0,0,0,0,0,0c-0.4,0.4-1,0.4-1.4,0.8c0,0,0,0,0,0c-0.2,0.2-0.2,0.5-0.1,1
	C169,266.9,174.1,264.3,173.7,267.2C173.8,267.2,173.7,267.2,173.7,267.2z M170.4,260.5c2.5-0.8,8.6-1.3,8.6,1.9
	C177,263.8,171.4,263,170.4,260.5z M176.6,265.8c0.8-1.8,6.8-1.2,7.7,0C182.8,266.6,178.1,266.6,176.6,265.8z M180,260.1
	C180,260.1,180,260.1,180,260.1C180,260,180,260,180,260.1c1.3-1.6,7.7-1.5,8.6,1.3c0,0,0,0,0,0c0,0,0,0,0,0.1
	C186.3,262.8,181.6,262.2,180,260.1z M186.2,264.8c0-0.2,0.1-0.4,0.2-0.5c0.1-0.1,0.1-0.1,0.2-0.2c0.1-0.1,0.2-0.1,0.3-0.2
	c0.2-0.1,0.4-0.1,0.7-0.1c1.5-0.1,3.6,0.4,4.4-0.4c0.5,0.7,1.3,1,1.9,1.4C192.4,265.6,187.7,265.6,186.2,264.8z M201.2,264.3
	c-0.1,0-0.3-0.1-0.4-0.1c-1.9-0.3-3.7,0.9-5.4-0.3c0.9-1.9,6-2.1,6.2,0.5C201.5,264.3,201.3,264.3,201.2,264.3z M197.8,257.6
	c3.9-0.5,6.3-1.5,9.6,1C205,260.8,198.5,261.2,197.8,257.6z M203.5,262.9c0.8-1.4,7.3-2.7,7.7,0C208.8,263.5,206,263.7,203.5,262.9z
	 M211.1,258.8c-0.1,0-0.2,0-0.3-0.1c-1.7-0.4-2.9-1.3-2.5-2.5c2.3-0.9,6.3-0.5,8.2,1.4C215.5,258.8,213,259.2,211.1,258.8z
	 M213.6,260.5c2.3,0.2,5.6-0.5,7.2,0.5C219.1,262.6,214.3,263.6,213.6,260.5z M216.5,256.2c2.1-2.8,10.8-2.2,9.6,1.4
	C221.7,257.7,219,258.4,216.5,256.2z M226.3,261.3c-0.2,0-0.4,0-0.6,0c-0.4,0-0.8,0-1.3,0c-0.7,0-1.4-0.2-2.2-0.4
	c0.3-0.5,1-1,1.9-1.3c0.3-0.1,0.6-0.2,0.9-0.3c0.1,0,0.3-0.1,0.4-0.1c1.1-0.2,2.2-0.3,3.2-0.1c0.1,0,0.2,0,0.3,0
	c1,0.2,1.8,0.6,2,1.2C229.2,260.8,227.7,261.2,226.3,261.3z M227,254.8c2.5-1.8,9.6-2.5,10.1,1.4C232.7,256,229.1,257.6,227,254.8z
	 M232.3,258.6c3.5,0.5,6.4-1.2,9.1,0C240,260,233.3,261.3,232.3,258.6z M242.4,257.6c1.2-1,2.4,0.9,3.8,1
	C245.6,260.5,242.4,259.2,242.4,257.6z M251.1,257.2c-0.1,0-0.1-0.1-0.2-0.1c0,0,0,0,0,0c-10.8-6.8-22.7-12.9-33.1-20.6
	c-1.4-1-4-1.2-3.8-3.8c10.5-6,21.5-12.3,32.6-18.7c3.6-2,6.9-4.9,10.6-6.2c4-1.4,9.2-0.8,13-2.4c3.3-1.4,6.7-5.1,6.2-9.6
	c10.8-6.2,21.3-13.3,32.2-19.7c1.7-1,4.4-1.4,5.3-3.4c0.5,0,1,0,1.3-0.1c0,0,0,0.1-0.1,0.1h0.3C294.6,201.5,272.9,229.4,251.1,257.2
	z M268.3,252.4c-2.9-0.8-4.3,1.8-6.2,0.5c0,0,0-0.1,0-0.1c0,0,0,0,0,0c0.6-3.6,5.2-4.1,6.2-0.5c0,0,0,0,0,0
	C268.3,252.3,268.3,252.4,268.3,252.4z M255.9,256c0,0,0,0.1,0,0.1c0,0,0,0.1,0,0.1c-0.8-0.3,0-0.9,0-1.4c0.3,0.1,0.4,0.3,0.4,0.4
	C256.3,255.5,256,255.7,255.9,256z M272.6,255.8c-4.5,0.3-10.7,1.3-13.9,1.4c0,0,0-0.1,0-0.1h0c0.2-1.2,1.2-1.7,1.9-2.4
	C264.6,256.3,271,251.9,272.6,255.8L272.6,255.8C272.6,255.7,272.6,255.8,272.6,255.8z M281.8,250.9c-0.1,0.2-0.1,0.3-0.3,0.5
	c0,0-0.1,0.1-0.1,0.1c-0.1,0.2-0.3,0.3-0.4,0.4c-0.1,0.1-0.1,0.2-0.1,0.4c2.6-1.1,4,0.7,6.2,1.4c-0.1,0-0.2,0-0.3,0
	c0.1,0,0.1,0.1,0.2,0.1c-4.3,0.1-10.3,2.8-13.9,0.5c0.1,0,0.1,0,0.2-0.1c0,0,0,0,0,0c2-1.1,4.7-1.2,7-1.9
	c-3.6-2.3-10.8,2.9-11.9-3.8c0,0,0.1,0,0.1,0c0,0,0-0.1,0-0.1c3.5,0.3,5.8-0.6,9.1-0.5C279.2,248.7,280,250.3,281.8,250.9z
	 M273.6,246.6c-2.8-0.2-4.9,0.2-7.2,0.5C267.3,243.8,272.4,242.4,273.6,246.6z M270.8,237.3c0,0-0.1,0.1-0.1,0.1
	c-0.1,0-0.1,0.1-0.2,0.1c-0.3,0.2-0.8,0.2-1.2,0c-0.2-0.8,0.1-0.9,0.5-1c0,0,0.1,0,0.1,0c0.1,0,0.2,0,0.2-0.1
	c0.3-0.1,0.4-0.3,0.2-0.9c0,0,0.1,0,0.1,0c0,0,0.1,0,0.1,0c0,0,0.1,0,0.2,0C271.6,235.7,271.4,236.7,270.8,237.3z M272.2,234.1
	c-0.3-1.5,1.3-1.2,1.4-2.4C274.9,232.4,273.4,234.3,272.2,234.1z M275.2,230.3L275.2,230.3c-0.1,0-0.2,0-0.2,0
	c-0.2-1.5,1.3-1.3,1.4-2.4c0,0,0,0,0.1,0.1c0,0,0,0,0-0.1C277.8,228.6,276.4,230.4,275.2,230.3z M278,226.5c0,0,0-0.1,0-0.1
	C278,226.4,277.9,226.4,278,226.5c0.1-0.6,0.5-1,1.3-1.1c0,0,0,0.1,0,0.1c0,0,0.1,0,0.1,0C279.2,226.1,278.8,226.5,278,226.5z
	 M279.9,225C279.9,225,279.8,225,279.9,225c-0.1,0-0.1,0-0.1,0c-1-0.5,0.5-2.4,1.4-2.4v0c0,0,0.1,0,0.1,0
	C281.5,224.1,280,223.9,279.9,225z M287.2,215.3c0,1.1-1.8,2.8-3,3c0,0,0-0.1,0-0.1c0,0,0,0,0,0c0.2-1.8,2.1-2,2.4-3.8
	c0.4,0.2,0.6,0.4,0.6,0.7C287.2,215.2,287.2,215.2,287.2,215.3L287.2,215.3z M288,213.5c-0.2-1,0.7-0.9,1.4-1
	C289.2,213.1,288.8,213.5,288,213.5z M290.4,211.6c-0.4-0.1-0.5,0.2-0.5,0.5c-0.3,0-0.4-0.3-0.4-0.6c0-0.2,0-0.4-0.1-0.7
	c0-0.1,0-0.2,0-0.2h0c0,0,0-0.1,0-0.1C290.3,210.4,290.3,210.9,290.4,211.6C290.4,211.5,290.4,211.5,290.4,211.6
	C290.4,211.5,290.4,211.6,290.4,211.6z M291.9,209.7c-0.2-0.1-0.4-0.2-0.5-0.3c0,0,0,0,0,0c-0.9-0.8,1.2-2.4,2.4-2.6
	c0,0,0,0.1,0,0.1c0.1,0,0.1,0,0.1,0C293.5,208.1,292.4,208.6,291.9,209.7z M294.3,205.3L294.3,205.3
	C294.3,205.3,294.2,205.3,294.3,205.3c-0.1-2,2.1-1.7,1.8-3.8c0,0,0.1,0,0.1,0v0C298.4,202.1,295.7,205.3,294.3,205.3z M301.9,196.2
	c0.5-3.4,4.5-7.4,7.2-10.1C307.1,189.9,304.5,193,301.9,196.2z"/>
<path class="st0" d="M319.2,172.2c-0.9,0.1,0-1.9,1-1.4C320.5,171.9,319.3,171.5,319.2,172.2z"/>
<path class="st0" d="M309.1,186.1c-2,3.8-4.6,6.9-7.2,10.1C302.4,192.8,306.4,188.8,309.1,186.1z"/>
<path class="st0" d="M315.1,172.7c-0.4,0-0.8,0-1,0.1c-1,2-3.6,2.4-5.3,3.4c-10.9,6.4-21.4,13.5-32.2,19.7c0.5,4.5-2.9,8.2-6.2,9.6
	c-3.9,1.6-9.1,1-13,2.4c-3.7,1.3-7,4.1-10.6,6.2c-11,6.4-22.1,12.7-32.6,18.7c-0.3,2.5,2.3,2.7,3.8,3.8
	c10.3,7.6,22.2,13.7,32.9,20.5c0.1,0,0.1,0.1,0.2,0.1c21.8-27.8,43.5-55.7,64.3-84.5H315.1z M229.5,233.6c0-0.8,0.4-1.1,1-1.4
	c0.1,0,0.2-0.1,0.3-0.1c0.3-0.1,0.6-0.2,0.9-0.2c0,0,0,0,0,0c0.1,0,0.3-0.1,0.5-0.1c0.2,0,0.3-0.1,0.4-0.1c0.3-0.1,0.6-0.2,0.8-0.4
	c0.3-0.3,0.6-0.5,1-0.7c1.6-1.2,3.5-2.1,5.4-3c0.1-0.1,0.3-0.1,0.4-0.2c0.6-0.3,1.3-0.6,1.9-0.9v-3.8c1.3-1.6,4-1.8,5.8-0.5
	c-0.1-1.4-0.7-2.3-1.1-3.4c-0.1-0.2-0.1-0.4-0.2-0.7c0-0.2-0.1-0.4-0.1-0.5c0-0.1,0-0.2,0-0.3c0-0.3,0-0.5,0-0.8
	c2.1-0.5,4.3,0.1,6.2,1c1.4-1-1.4-1.8-1-3.4c0.1-0.1,0.2-0.2,0.3-0.3c1-1,2.6-1.3,5-1.1c0.1,0,0.1,0,0.2-0.1c0.9-0.5,0-2.7,0.7-3.3
	c0,0,0.1,0,0.1-0.1c3.1-1.6,6.6,0.7,9.6,1.9c6.4-2.8,11.4-7.1,18.7-9.1c0,0.2-0.1,0.4-0.1,0.6c0,0,0,0,0,0c-0.6,2.6-2.7,3.6-3.5,5.9
	c0,0.2-0.1,0.3-0.1,0.5c0,0.2-0.1,0.4-0.1,0.6c-3,2.8-5.9,5.6-7.7,9.6c-0.6,0.5-1.1,1-1.7,1.5c-0.5,0.5-1.1,1-1.6,1.6
	c-1.6,1.6-3.1,3.3-4.6,5c-1,1.2-2,2.4-2.9,3.6c-1.1,1.3-2.1,2.7-3.2,4c-3.1,4-6.2,8.1-9.5,12C243.7,242.7,236.6,238.2,229.5,233.6z"
	/>
<path class="st0" d="M130.1,233.6c-0.5,0-1,0-1.5,0c-1.6-0.1-3-0.3-4.3-0.7c-2.2-0.6-4.2-1.3-7.2-1.7c-3.4-2.4-7.5-6.4-11.9-6.7
	c-0.2,0-0.3,0-0.5,0h-0.1c3.1,4.1,9.4,5,12.5,9.1c0,0,0.1,0,0.1,0c0.8-0.1,1.4-0.1,1.9,0.1c0.1,0,0.2,0.1,0.3,0.1
	c0.5,0.2,0.8,0.4,1.3,0.6c0.1,0,0.2,0.1,0.3,0.1c0.5,0.1,1.1,0.2,1.9,0.1c0,0,0,0,0,0c-0.9,0.8-1.8,1.3-2.6,1.5
	c-0.1,0-0.2,0.1-0.3,0.1c0,0,0,0-0.1,0c-4.7,1.1-9-4.7-14.6-5c-0.2,0-0.3,0-0.5,0c-0.2,0-0.3,0-0.5,0h-0.1c0.6,2.5,4.1,3.3,6.2,4.3
	c2.5,1.2,5,2.1,7.2,3.4c-0.5,0.1-0.9,0.2-1.3,0.3c-0.2,0-0.3,0-0.5,0c-0.4,0-0.8,0-1.2,0c-0.2,0-0.4,0-0.7-0.1c-3-0.4-5.8-2.1-9-2.5
	c-0.2,0-0.5,0-0.7-0.1c-0.3,0-0.6,0-0.9,0h-0.1c1.3,3.2,5.5,2.6,7.2,6.2c-1.1,0.5-2.3,0.4-3.3-0.2c0,0,0,0-0.1,0
	c-1.3-0.7-2.3-2.1-2.5-3.6c-0.2,0-0.4,0-0.5,0c-1.7-0.1-2.6-0.9-4.3-1.9c-0.4-0.3-0.8-0.5-1.3-0.8c-0.2-0.1-0.3-0.2-0.5-0.3
	c0,0-0.1,0-0.1-0.1c-0.4-0.3-0.8-0.6-1.3-0.8c-0.7-0.5-1.3-0.9-2-1.4s-1.3-1-2-1.6c-0.1-0.1-0.3-0.2-0.4-0.3c-1.3-1.2-2.4-2.4-3-3.7
	c-3.8-1-5.4-4.1-8.1-6.3c0.7-3.2,4.1-11.5,7.2-11.5h0c0.1,0,0.2,0,0.3,0c1.3,0.1,2.5,1.2,4,1.4c0.3,0,0.5,0.1,0.8,0.1
	c0.2,0,0.5,0,0.7,0c1,0.1,2.1,0,3.1,0c0.7,0,1.3-0.1,2-0.1c0.3,0,0.6,0,1-0.1c1.4-0.1,2.8-0.1,4.2-0.1c0.2,0,0.5,0,0.7,0
	c0.2,0,0.4,0,0.6,0.1c1.8,4,5.9,5.6,6.7,10.6c2.1,2.4,6.2,4.6,10.1,6.2C125.4,229.6,130,230.4,130.1,233.6z"/>
<path class="st0" d="M122.9,220.7c-2.3-0.9-5.3-5.3-7.2-8.2C121.5,211.8,120.6,217.9,122.9,220.7z"/>
<path class="st0" d="M86.4,62.3c1,2.7,3.3-0.6,4.8-0.5c0.9,1.1,2.1,1.7,4.3,1.4c-1.1-1.4-4.2-1-4.8-2.9c1.8-1.4,3.7,1.5,6.2,1.4
	c0.5,0,1.6-0.9,1.4-1c1.4,0.4,1.7,2,2.9,1.9c-0.1,1-1.2,1-2.4,1c-2.4,4-6,6.8-11.5,7.7c-3.8-1.5-9.2-1.4-9.6-6.2
	c-1.2-0.3-2.2-0.7-3.8-0.5c-0.3-2.5,2.9-3.4,3.8-1.9c3.3-2.2,7.6-3.6,12.5-1.9C90.7,63.1,86.6,60.8,86.4,62.3z M82.6,64.7
	c-0.6,0.1-0.3,0.5,0,1c2.4,0.6,7.8,1.6,9.6-0.5C90.4,64.2,85.2,64.3,82.6,64.7z M82.1,68c2.3,2,12.5,2,10.1-1.4
	C89.7,69.4,85.3,67,82.1,68z"/>
<path class="st0" d="M287,253.8c-4.3,0.1-10.3,2.8-13.9,0.5c0.1,0,0.1,0,0.2-0.1c2-1,4.7-1.1,7-1.8c0,0-0.1,0-0.1-0.1
	c-3.6-2.3-10.8,2.9-11.9-3.8c0,0,0.1,0,0.1,0c3.5,0.4,5.8-0.5,9-0.5c1.7,0.7,2.6,2.2,4.3,2.9c0,0.2-0.1,0.3-0.2,0.4
	c0,0-0.1,0.1-0.1,0.1c-0.1,0.2-0.3,0.3-0.4,0.4c-0.1,0.1-0.2,0.3-0.2,0.5c2.6-1,4,0.6,6,1.3C286.8,253.8,286.9,253.8,287,253.8z"/>
</svg>
