<?xml version="1.0" encoding="utf-8"?>
<!-- Generator: Adobe Illustrator 12.0.1, SVG Export Plug-In . SVG Version: 6.00 Build 51448)  -->
<!DOCTYPE svg PUBLIC "-//W3C//DTD SVG 1.1//EN" "http://www.w3.org/Graphics/SVG/1.1/DTD/svg11.dtd" [
	<!ENTITY ns_svg "http://www.w3.org/2000/svg">
	<!ENTITY ns_xlink "http://www.w3.org/1999/xlink">
]>
<svg  version="1.1" id="Layer_1" xmlns="&ns_svg;" xmlns:xlink="&ns_xlink;" width="324.96" height="274.187"
	 viewBox="0 0 324.96 274.187" overflow="visible" enable-background="new 0 0 324.96 274.187" xml:space="preserve">
<g>
	<path fill-rule="evenodd" clip-rule="evenodd" fill="#FFFFFF" d="M63.84,12.363c-0.116,0.844-0.826,1.094-1.92,0.96
		C62.036,12.479,62.746,12.229,63.84,12.363z"/>
	<path fill-rule="evenodd" clip-rule="evenodd" fill="#FFFFFF" d="M115.2,21.483c-4.173,1.427-6.259,4.941-12.96,3.84
		c-0.591,0.209-0.986,0.614-0.96,1.44c-5.893,0.191-11.463,0.817-15.84,0.48c-0.497-3.456,6.269-1.463,7.68-3.84
		c1.7-0.26,1.18,1.7,2.88,1.44c2.069-0.331,2.854-1.946,5.76-1.44c1.748-2.88,3.797-2.818,6.72-4.8c0.26-1.7-1.7-1.181-1.44-2.88
		C110.243,15.32,114.385,17.919,115.2,21.483z"/>
	<path fill-rule="evenodd" clip-rule="evenodd" fill="#FFFFFF" d="M72.48,33.483c-0.788,0.972-1.605,1.915-3.36,1.92
		C68.545,32.629,71.422,31.95,72.48,33.483z"/>
	<path fill-rule="evenodd" clip-rule="evenodd" d="M95.52,38.283c-0.448,2.912-3.181,3.54-2.88,7.2
		c1.505-3.212,7.391-6.129,11.04-2.88c0.311,2.389,0.233,2.042-0.48,3.84c-4.254,0.568-7.219,1.299-10.56-0.48
		c-1.273-0.153,0.449,2.689-1.44,1.92C90.186,44.146,91.172,39.164,95.52,38.283z"/>
	<path fill-rule="evenodd" clip-rule="evenodd" d="M80.64,40.203c0.856,1.779,3.174,3.305,2.4,5.28c-3.875,0.683-11.17,1.47-12-1.44
		c-0.185-0.649,2.402-3.465,3.36-3.84C76.012,39.571,78.75,40.754,80.64,40.203z M73.92,43.083c0,0.32,0,0.64,0,0.96
		c1.182,0.746,1.412-1.63,0.48-1.44C74.373,42.896,74.328,43.171,73.92,43.083z"/>
	<path fill-rule="evenodd" clip-rule="evenodd" fill="#FFFFFF" d="M74.4,42.603c0.932-0.19,0.702,2.186-0.48,1.44
		c0-0.32,0-0.64,0-0.96C74.328,43.171,74.373,42.896,74.4,42.603z"/>
	<path fill-rule="evenodd" clip-rule="evenodd" d="M94.08,52.683c2.167-0.062,2.289,2.443,0.96,3.36
		C93.667,55.976,94.162,54.041,94.08,52.683z"/>
	<path fill-rule="evenodd" clip-rule="evenodd" d="M83.04,53.643c0.197,1.156-0.876,1.043-0.48,2.4
		c-0.861,0.061-1.012-0.588-1.92-0.48C80.322,53.746,81.757,52.416,83.04,53.643z"/>
	<path fill-rule="evenodd" clip-rule="evenodd" d="M84,53.643c1.488-0.048,2.293,0.586,3.36,0.96c0,0.64,0,1.28,0,1.92
		c-1.469-0.291-2.501-1.02-3.84-1.44C83.774,54.697,84.021,54.304,84,53.643z"/>
	<path fill-rule="evenodd" clip-rule="evenodd" d="M89.76,54.123c0.994,0.285,3.153-0.593,3.36,0.48
		C92.436,56.423,89.472,57.269,89.76,54.123z"/>
	<path fill-rule="evenodd" clip-rule="evenodd" fill="#FFFFFF" d="M92.16,65.163c-1.846,2.067-7.214,1.043-9.6,0.48
		c-0.295-0.428-0.58-0.859,0-0.96C85.174,64.286,90.438,64.166,92.16,65.163z"/>
	<path fill-rule="evenodd" clip-rule="evenodd" fill="#FFFFFF" d="M92.16,66.603c2.385,3.485-7.822,3.425-10.08,1.44
		C85.286,66.98,89.74,69.358,92.16,66.603z"/>
	<path fill-rule="evenodd" clip-rule="evenodd" fill="#FFFFFF" d="M82.08,91.563c-3.147,3.573-5.621,7.819-9.12,11.04
		c-0.271-0.999-1.371-1.552-0.48-2.4c-3.98-4.339-5.004-11.636-8.16-16.8c1.344-2.176,3.047-3.993,5.76-4.8
		C72.153,84.85,76.877,88.446,82.08,91.563z"/>
	<path fill-rule="evenodd" clip-rule="evenodd" fill="#FFFFFF" d="M109.44,78.603c6.218,1.454,16.292,4.064,23.04,4.8
		c7.418,0.808,8.795,1.627,12.48,7.2c2.18,3.296,3.832,5.531,5.76,9.6c1.833,3.867,1.805,4.825,2.4,10.08
		c0.466,4.113,3.49,8.368,5.28,12.96c1.754,4.501,3.39,9.035,5.279,12.48c2.155,3.927,4.911,7.397,6.721,11.041
		c2.097,4.221,2.953,8.414,4.8,12c-2.679,5.32-8.834,7.165-16.32,7.68c2.167,2.802,6.644,1.944,9.6,0.96
		c4.474-1.49,7.798-6.479,10.08-9.12c1.729,0.672,0.973,3.827,2.399,4.8c1.257,0.175,2.808,0.419,5.28,0.48
		c12.889,11.431,26.32,22.319,40.8,32.16c-1.025,1.856-2.938,2.183-4.32,3.84c-2.203,2.645-2.734,6.616-4.8,9.6
		c0.146,2.227-0.004,4.155-0.96,5.28c-8.352-0.128-10.952-6.008-18.24-7.2c-2.292-2.188-5.277-3.682-8.64-4.8
		c-0.086-1.354-2.281-0.599-1.92-2.4c-5.397-1.867-9.786-5.945-13.92-9.6c-2.964-2.62-6.063-5.269-9.12-8.16
		c-5.011-4.74-8.727-12.818-12.48-19.68c-2.688-4.914-5.111-9.947-7.68-14.88c1.993-7.258,6.305-13.401,4.32-21.6
		c-0.58-2.396-2.638-3.616-3.84-5.76c-1.975-3.522-2.713-7.815-5.28-10.08c0.527-2.353,1.147-4.612,1.92-6.72
		c-0.274-0.81-2.569,1.909-1.92-1.44c-2.332-0.251-1.563,2.597-2.4,3.84c-2.049-0.191-1.04-3.441-3.84-2.88
		c-0.18,2.747,2.727,6.548,2.88,10.56c3.421,6.317,7.195,11.318,6.24,21.12c-0.834,8.564-6.361,17.317-7.2,26.4
		c-0.289,3.127-0.257,7.282,0,10.08c0.246,2.675,1.759,5.267,1.44,7.681c-0.261,1.973-2.154,4.115-2.4,6.239
		c-8.35,0.988-13.796,1.959-21.6,2.4c-2.75-6.051-2.174-15.426-5.76-20.64c-1.868-2.612-6.087-2.873-7.68-5.761
		c2.351-4.688,3.411-10.669,6.24-14.88c2.797,0.237,4.982-0.138,6.72-0.96c1.538-8.255,3.178-17.742,0.48-25.44
		c-0.454-1.294-1.63-2.05-1.92-3.36c-1.385-6.248-0.011-13.638-0.96-21.12c-0.354-2.784-1.48-5.053-1.44-7.68
		C109.003,84.877,110.409,81.458,109.44,78.603z M137.76,90.603c-0.458,3.839-2.743,9.024,0,10.56
		c1.591-5.226,1.077-7.844,1.44-13.92c-0.614-0.026-0.665-0.615-1.44-0.48C137.631,87.958,137.932,89.169,137.76,90.603z
		 M139.2,101.643c2.027-0.373,2.559-2.241,2.88-4.32C140.053,97.695,139.521,99.563,139.2,101.643z M141.12,102.603
		c1.222-0.059,1.861-0.699,1.92-1.92C141.925,100.848,140.791,100.994,141.12,102.603z M175.2,168.843
		c2.792,0.231,3.349-1.771,4.32-3.36C177.688,164.513,175.765,167.006,175.2,168.843z M159.84,174.603
		c5.373,0.072,6.617-1.284,10.561-2.88c0.025-0.826-0.37-1.23-0.96-1.44C167.5,172.983,160.481,170.604,159.84,174.603z"/>
	<path fill-rule="evenodd" clip-rule="evenodd" d="M137.76,86.763c0.775-0.135,0.826,0.454,1.44,0.48
		c-0.363,6.076,0.151,8.694-1.44,13.92c-2.743-1.536-0.458-6.721,0-10.56C137.932,89.169,137.631,87.958,137.76,86.763z"/>
	<path fill-rule="evenodd" clip-rule="evenodd" fill="#FFFFFF" d="M106.08,89.643c3.146,6.376,1.966,14.466,3.36,22.08
		c-1.491-0.051-3.108-1.975-4.32-3.36c-2.489-2.846-5.316-5.552-8.16-8.64c-1.135-1.232-3.604-2.923-2.4-4.8
		c2.746,0.614,3.422,3.297,5.76,4.32C103.787,97.589,104.889,93.571,106.08,89.643z"/>
	<path fill-rule="evenodd" clip-rule="evenodd" fill="#FFFFFF" d="M86.88,101.163c-2.001-2.73-2.836-5.429-2.88-9.12
		c3.449-0.467,6.463-2.37,8.64,0.48C91.933,96.615,92.677,102.16,86.88,101.163z"/>
	<path fill-rule="evenodd" clip-rule="evenodd" fill="#FFFFFF" d="M66.24,94.443c1.974,1.226,1.693,4.707,3.84,5.76
		c-0.21,2.93,1.953,3.488,2.88,5.28c-0.489,3.534-0.681,4.415-1.44,7.68c-2.68-0.679-1.156-5.563-3.36-6.72
		C68.306,101.823,65.697,97.917,66.24,94.443z"/>
	<path fill-rule="evenodd" clip-rule="evenodd" d="M40.32,106.923c-3.367-2.074-4.183-6.698-7.68-8.64
		c0.209-0.59,0.614-0.986,1.44-0.96C36.213,100.47,39.652,102.311,40.32,106.923z"/>
	<path fill-rule="evenodd" clip-rule="evenodd" d="M142.08,97.323c-0.321,2.08-0.853,3.947-2.88,4.32
		C139.521,99.563,140.053,97.695,142.08,97.323z"/>
	<path fill-rule="evenodd" clip-rule="evenodd" fill="#FFFFFF" d="M93.6,100.203c8.003,5.757,14.142,13.378,18.24,23.04
		c-0.755,7.815,1.776,16.248-1.44,21.12c-8.882-0.878-9.967-9.554-16.32-12.96c-0.008-2.568-0.192-5.312,0.96-6.72
		c-1.191-1.206-0.672-3.489-0.96-6.24c-0.59-5.632-3.157-10.183-4.8-14.88c2.049,0.188,3.143,3.043,4.32,4.8
		c0.799,1.194,0.8,1.281,1.44,2.88c0.17,0.424,0.858,0.239,0.96,0.48c0.226,0.533-0.257,1.405,0,1.92
		c0.088,0.175,0.914,0.347,0.96,0.48c1.339,3.864,0.313,8.638,2.4,12.48c1.223-2.155,0.614-6.041,0-9.6
		c-1.028-5.949-4.988-11.033-7.2-15.36C92.852,101.374,93.332,100.894,93.6,100.203z"/>
	<path fill-rule="evenodd" clip-rule="evenodd" d="M143.04,100.683c-0.059,1.221-0.698,1.861-1.92,1.92
		C140.791,100.994,141.925,100.848,143.04,100.683z"/>
	<path fill-rule="evenodd" clip-rule="evenodd" fill="#FFFFFF" d="M91.2,117.963c1.373,0.067,0.878,2.002,0.96,3.36
		C89.985,121.549,90.851,119.078,91.2,117.963z"/>
	<path fill-rule="evenodd" clip-rule="evenodd" fill="#FFFFFF" d="M91.2,122.763c2.225-0.304,1.215,2.625,1.44,4.32
		C91.576,126.227,90.898,124.985,91.2,122.763z"/>
	<path fill-rule="evenodd" clip-rule="evenodd" fill="#FFFFFF" d="M93.6,134.763c2.441,4.919,6.291,8.429,9.6,12.48
		c-1.566,4.193-3.385,8.136-4.32,12.96c-7.12-2.959-13.053-7.107-16.32-13.92c3.82-2.579,8.876-3.924,12-7.2
		C94.71,137.207,91.833,136.77,93.6,134.763z"/>
	<path fill-rule="evenodd" clip-rule="evenodd" fill="#FFFFFF" d="M141.6,157.803c0.48,0,0.96,0,1.44,0
		c1.195,5.19,5.345,8.673,8.16,12.96c2.368,3.605,4.822,7.453,7.68,11.04c-5.038,2.322-13.356,1.364-18.72,3.359
		c0.413-2.146,2.401-2.719,2.88-4.8C140.964,174.737,140.466,165.046,141.6,157.803z"/>
	<path fill-rule="evenodd" clip-rule="evenodd" d="M179.521,165.483c-0.972,1.589-1.528,3.592-4.32,3.36
		C175.765,167.006,177.688,164.513,179.521,165.483z"/>
	<path fill-rule="evenodd" clip-rule="evenodd" d="M169.44,170.283c0.59,0.21,0.985,0.614,0.96,1.44
		c-3.943,1.596-5.188,2.952-10.561,2.88C160.481,170.604,167.5,172.983,169.44,170.283z"/>
	<path fill-rule="evenodd" clip-rule="evenodd" d="M43.68,178.923c-0.389,0.091-0.479,0.481-0.96,0.479
		c-2.497-1.184-4.283-3.077-6.24-4.8c-1.785-0.455-3.716-0.764-3.84-2.88C36.715,171.857,40.854,175.953,43.68,178.923z"/>
	<path fill-rule="evenodd" clip-rule="evenodd" fill="#FFFFFF" d="M52.32,171.243c3.25,2.51,3.308,8.212,4.32,12.96
		c-0.385,1.607-3.52-1.762-4.8-2.399C51.249,179.332,52.747,175.117,52.32,171.243z"/>
	<path fill-rule="evenodd" clip-rule="evenodd" d="M105.12,177.962c-0.484,5.292-7.974,6.26-9.12,1.44
		c-0.475-2,0.764-5.456,2.4-5.76C100.638,173.227,102.979,176.086,105.12,177.962z M98.4,180.363c2.252,0.7,4.634,0.238,4.8-2.4
		c-1.537-0.383-2.422-1.417-4.32-1.439C98.138,177.22,98.458,178.98,98.4,180.363z"/>
	<path fill-rule="evenodd" clip-rule="evenodd" fill="#FFFFFF" d="M98.88,176.523c1.898,0.022,2.783,1.057,4.32,1.439
		c-0.166,2.639-2.548,3.101-4.8,2.4C98.458,178.98,98.138,177.22,98.88,176.523z"/>
	<path fill-rule="evenodd" clip-rule="evenodd" d="M43.68,178.923c0.386-0.255,0.779-0.501,1.44-0.48c0.616,0.631,0.616,1.77,0,2.4
		C43.855,180.988,43.545,180.178,43.68,178.923z"/>
	<path fill-rule="evenodd" clip-rule="evenodd" fill="#FFFFFF" d="M176.16,198.603c-14.87,1.977-30.765,3.117-46.08,5.76
		c-2.977,0.514-5.384,0.146-8.16,0.48c-3.172,0.382-6.083,2.372-9.12,1.439c-3.298-1.012-5.112-8.732-9.6-9.12
		c-2.828-0.244-4.037,1.718-6.24,3.36c-0.169,2.89,1.862,3.578,2.4,5.76c-5.051,0.251-9.62,0.02-12.96-1.439
		c-2.199-4.521-9.254-4.186-11.04-9.12c27.467-1.778,55.468-6.9,85.439-9.12c0.353-0.448,0.873-0.728,1.44-0.96
		c0.389,0.091,0.479,0.481,0.96,0.479C167.787,190.016,171.829,194.454,176.16,198.603z"/>
	<path fill-rule="evenodd" clip-rule="evenodd" fill="#FFFFFF" d="M274.08,197.643c-2.236,6.995-10.833,4.482-17.28,6.72
		c-5.641,1.958-12.56,6.354-18.239,9.601c-2.811,1.605-5.434,4.133-9.12,4.319c-0.417-7.021,2.119-14.021,8.16-14.88
		c1.641,1.905-1.919,4.058,0,6.24c2.132-0.268,1.902-2.897,2.88-4.32c3.111-2.304,4.354-5.021,8.16-5.76
		c1.818-0.353,4.006,0.375,6.239,0c2.453-0.412,4.381-2.248,6.721-2.4C265.039,196.939,269.603,199.148,274.08,197.643z"/>
	<path fill-rule="evenodd" clip-rule="evenodd" fill="#FFFFFF" d="M234.721,200.523c-1.41,3.057-5.149,4.239-6.721,7.2
		c-1.75,3.298-0.622,7.847-1.439,12c-3.108-1.052-5.319-3.001-7.2-5.28c1.604-6.715,3.801-12.839,8.64-16.32
		C230.521,198.643,232.522,199.681,234.721,200.523z"/>
	<path fill-rule="evenodd" clip-rule="evenodd" fill="#FFFFFF" d="M185.76,205.323c-5.15-0.06-9.726,0.366-12.479-3.84
		c2.709,0.148,4.269-0.852,7.2-0.48C181.495,203.188,185.672,202.211,185.76,205.323z"/>
	<path fill-rule="evenodd" clip-rule="evenodd" fill="#FFFFFF" d="M101.28,201.483c0.963-0.163,1.502,0.098,1.44,0.96
		c-0.48,0-0.96,0-1.44,0C101.28,202.123,101.28,201.803,101.28,201.483z"/>
	<path fill-rule="evenodd" clip-rule="evenodd" fill="#FFFFFF" d="M296.16,201.483c2.193,0.572-0.466,3.797-1.92,3.84
		C294.165,203.328,296.386,203.628,296.16,201.483z"/>
	<path fill-rule="evenodd" clip-rule="evenodd" fill="#FFFFFF" d="M175.68,205.803c-5.169,1.404-10.405,2.151-12-2.88
		C169.234,201.05,172.426,202.558,175.68,205.803z"/>
	<path fill-rule="evenodd" clip-rule="evenodd" d="M247.681,222.123c-0.287-2.112-1.598-3.203-1.44-5.76
		c2.095-0.542,4.344,0.053,6.24,0.96c1.391-0.961-1.384-1.778-0.96-3.359c1.003-1.237,2.721-1.759,5.279-1.44
		c1.141-0.3-0.074-2.954,0.96-3.36c3.09-1.623,6.566,0.746,9.601,1.92c6.449-2.83,11.449-7.11,18.72-9.12
		c-0.394,3.446-3.445,4.234-3.84,7.681c-2.993,2.767-5.893,5.627-7.68,9.6c-9.015,8.105-15.675,18.566-23.521,27.84
		c-7.385-4.295-14.537-8.822-21.6-13.439c0.063-2.017,2.728-1.433,3.84-2.4c2.469-2.011,5.614-3.346,8.64-4.8c0-1.28,0-2.56,0-3.84
		C243.198,221.044,245.905,220.84,247.681,222.123z M270.24,219.243c1.045-1.835,2.967-2.793,3.84-4.8
		c-0.617-1.303-1.115-2.725-3.359-2.4c-0.695,1.815,1.318,0.922,0.96,2.4c-4.81,0.01-6.226-3.374-11.521-2.88
		C262.863,214.781,265.56,218.003,270.24,219.243z M268.32,221.163c-4.694-1.548-8.025-7.011-13.92-5.76
		C257.469,218.685,264.44,228.982,268.32,221.163z M249.12,219.243c0.55,5.37,5.771,6.069,9.601,8.16
		c0.196-0.604,0.618-0.981,1.439-0.96C259.305,221.502,252.474,220.098,249.12,219.243z M253.92,227.403
		c-3.812-0.827-5.5-3.779-10.08-3.84C244.068,228.251,251.545,231.922,253.92,227.403z M257.28,232.203c1.4,0.706,1.4-2.146,0-1.439
		C257.28,231.243,257.28,231.723,257.28,232.203z M238.08,234.123c2.717,1.908,4.604,2.553,9.12,1.92
		C247.245,231.84,239.542,229.904,238.08,234.123z M255.84,234.123c-2.637-0.254-6.409-1.037-8.64-0.96
		C248.825,235.093,253.723,236.651,255.84,234.123z M245.76,238.443c2.144,1.352,4.995,4.514,6.24,0.48
		C251.431,236.945,246.973,237.082,245.76,238.443z"/>
	<path fill-rule="evenodd" clip-rule="evenodd" fill="#FFFFFF" d="M107.04,205.323c-0.141,0.979-1.299,0.941-1.44,1.92
		c-1.714-0.526-2.834-1.646-3.36-3.359C104.381,202.234,106.001,203.525,107.04,205.323z"/>
	<path fill-rule="evenodd" clip-rule="evenodd" fill="#FFFFFF" d="M165.12,206.763c-2.157,0.617-5.343,1.925-7.68,1.439
		c-2.096-0.435-2.544-2.517-4.32-2.88C156.109,201.533,163.13,203.994,165.12,206.763z"/>
	<path fill-rule="evenodd" clip-rule="evenodd" fill="#FFFFFF" d="M154.08,207.723c-3.673,2.158-8.722,1.432-10.08-2.4
		C148.051,203.608,152.211,205.68,154.08,207.723z"/>
	<path fill-rule="evenodd" clip-rule="evenodd" fill="#FFFFFF" d="M144.96,209.643c-5.161,1.12-8.913,0.762-11.52-2.4
		C137.197,204.894,143.745,205.554,144.96,209.643z"/>
	<path fill-rule="evenodd" clip-rule="evenodd" fill="#FFFFFF" d="M86.4,208.683c-3.821,3.219-6.539,7.541-7.2,13.92
		c-1.323-1.85-3.968-1.641-5.76-1.92c0.629-6.029,3.038-11.762,8.16-13.92C83.297,206.048,84.488,208.228,86.4,208.683z"/>
	<path fill-rule="evenodd" clip-rule="evenodd" fill="#FFFFFF" d="M134.88,209.643c-1.75,2.892-6.603,0.955-8.64-0.96
		c-1.509,0.669,0.66,2.369-0.48,2.88c-1.28,0-2.56,0-3.84,0c-0.125-1.795-1.979-1.86-3.36-2.4c1.756-1.84,4.684-0.82,6.24,0.48
		C126.932,205.275,132.137,207.526,134.88,209.643z"/>
	<path fill-rule="evenodd" clip-rule="evenodd" fill="#FFFFFF" d="M192,210.123c-3.63,0.61-8.54,0.748-11.04-1.92
		C183.381,205.784,191.859,205.936,192,210.123z"/>
	<path fill-rule="evenodd" clip-rule="evenodd" fill="#FFFFFF" d="M293.76,206.763c-0.314,1.285-1.374,1.825-1.92,2.88
		C289.877,209.033,292.407,206.981,293.76,206.763z"/>
	<path fill-rule="evenodd" clip-rule="evenodd" fill="#FFFFFF" d="M108.96,207.723c-0.438,0.841-0.892,1.667-2.4,1.439
		C106.49,207.813,107.736,207.779,108.96,207.723z"/>
	<path fill-rule="evenodd" clip-rule="evenodd" fill="#FFFFFF" d="M181.92,210.603c-1.607,1.752-5.932,0.788-8.64,1.439
		c-0.791-1.288-2.316-1.844-2.88-3.359C174.536,207.732,178.5,207.371,181.92,210.603z"/>
	<path fill-rule="evenodd" clip-rule="evenodd" fill="#FFFFFF" d="M170.88,211.563c-3.153,2.664-9.706,1.34-11.52-1.44
		C164.267,208.971,168.029,208.344,170.88,211.563z"/>
	<path fill-rule="evenodd" clip-rule="evenodd" fill="#FFFFFF" d="M109.92,210.123c0.225,1.495-1.207,1.716-1.92,0.96
		C108.116,210.239,108.826,209.989,109.92,210.123z"/>
	<path fill-rule="evenodd" clip-rule="evenodd" fill="#FFFFFF" d="M160.32,213.483c-4.435,1.068-8.383,1.226-9.6-2.88
		C154.921,209.928,158.924,210.19,160.32,213.483z"/>
	<path fill-rule="evenodd" clip-rule="evenodd" fill="#FFFFFF" d="M289.44,210.603c0.816-0.177,0.905,0.374,0.96,0.96
		c-0.408-0.088-0.453,0.188-0.48,0.479C289.357,211.965,289.516,211.167,289.44,210.603z"/>
	<path fill-rule="evenodd" clip-rule="evenodd" fill="#FFFFFF" d="M151.2,214.443c-5.296,0.578-8.976,2.228-10.56-2.88
		C146.227,211.28,148.87,210.473,151.2,214.443z"/>
	<path fill-rule="evenodd" clip-rule="evenodd" fill="#FFFFFF" d="M199.2,215.403c-2.965-0.33-6.019,0.46-6.72,0.96
		c-1.947-1.093-3.837-2.243-5.28-3.84C192.905,211.729,196.949,211.079,199.2,215.403z"/>
	<path fill-rule="evenodd" clip-rule="evenodd" fill="#FFFFFF" d="M260.16,211.563c5.295-0.494,6.711,2.89,11.521,2.88
		c0.358-1.479-1.655-0.585-0.96-2.4c2.244-0.324,2.742,1.098,3.359,2.4c-0.873,2.007-2.795,2.965-3.84,4.8
		C265.56,218.003,262.863,214.781,260.16,211.563z"/>
	<path fill-rule="evenodd" clip-rule="evenodd" fill="#FFFFFF" d="M141.12,214.923c-3.098,2.525-8.038,0.497-9.6-2.4
		C136.576,211.75,138.441,212.628,141.12,214.923z"/>
	<path fill-rule="evenodd" clip-rule="evenodd" fill="#FFFFFF" d="M109.44,212.523c1.038,1.082,1.637-0.397,3.36,0
		c3.205,4.476,6.532,8.828,10.08,12.96C116.28,225.201,112.99,217.455,109.44,212.523z"/>
	<path fill-rule="evenodd" clip-rule="evenodd" fill="#FFFFFF" d="M200.16,212.523c2.356-0.437,1.828,2.012,3.84,1.92
		C203.223,216.43,200.343,214.117,200.16,212.523z"/>
	<path fill-rule="evenodd" clip-rule="evenodd" fill="#FFFFFF" d="M289.44,212.523c-0.21,0.591-0.614,0.985-1.44,0.96
		C287.775,212.458,288.686,212.569,289.44,212.523z"/>
	<path fill-rule="evenodd" clip-rule="evenodd" fill="#FFFFFF" d="M132,216.363c-3.246,1.643-6.373,0.391-8.16-1.92
		C125.872,211.668,131.349,213.024,132,216.363z"/>
	<path fill-rule="evenodd" clip-rule="evenodd" fill="#FFFFFF" d="M184.32,213.002c1.303,0.938,2.184,2.297,3.84,2.881
		c-3.493,2.812-9.633,1.43-12-2.4C179.401,213.132,180.601,213.232,184.32,213.002z"/>
	<path fill-rule="evenodd" clip-rule="evenodd" fill="#FFFFFF" d="M177.601,218.283c-5.746,0.252-8.535,0.001-11.521-2.88
		C169.484,212.523,176.725,214.33,177.601,218.283z"/>
	<path fill-rule="evenodd" clip-rule="evenodd" fill="#FFFFFF" d="M286.561,214.443c1.817,0.698-0.779,3.571-2.4,3.84
		C284.354,216.397,286.271,216.233,286.561,214.443z"/>
	<path fill-rule="evenodd" clip-rule="evenodd" fill="#FFFFFF" d="M168,218.763c-4.366,1.64-9.476-0.12-11.52-2.4
		C159.895,213.919,165.22,215.772,168,218.763z"/>
	<path fill-rule="evenodd" clip-rule="evenodd" fill="#FFFFFF" d="M254.4,215.403c5.895-1.251,9.226,4.212,13.92,5.76
		C264.44,228.982,257.469,218.685,254.4,215.403z"/>
	<path fill-rule="evenodd" clip-rule="evenodd" fill="#FFFFFF" d="M157.92,220.203c-4.019,0.563-9.473-0.042-11.52-2.88
		C150.555,215.257,156.576,215.824,157.92,220.203z"/>
	<path fill-rule="evenodd" clip-rule="evenodd" fill="#FFFFFF" d="M205.44,217.323c3.104-1.333,6.683,0.99,8.16,2.88
		C209.432,220.692,207.212,219.231,205.44,217.323z"/>
	<path fill-rule="evenodd" clip-rule="evenodd" fill="#FFFFFF" d="M147.84,220.683c-4.318,1.879-7.207-0.111-9.6-2.4
		C141.805,215.83,146.053,218.461,147.84,220.683z"/>
	<path fill-rule="evenodd" clip-rule="evenodd" fill="#FFFFFF" d="M205.92,219.723c-2.239,2.075-10.79,2.66-10.56-1.92
		C199.94,217.318,203.568,217.084,205.92,219.723z"/>
	<path fill-rule="evenodd" clip-rule="evenodd" fill="#FFFFFF" d="M138.72,222.123c-5.4,0.807-6.891-0.407-9.6-2.88
		C132.291,216.653,138.186,218.062,138.72,222.123z"/>
	<path fill-rule="evenodd" clip-rule="evenodd" fill="#FFFFFF" d="M194.88,221.643c-4.714,1.068-8.231,1.28-11.04-1.44
		C186.717,217.583,193.846,217.825,194.88,221.643z"/>
	<path fill-rule="evenodd" clip-rule="evenodd" fill="#FFFFFF" d="M175.2,218.763c2.151,1.868,6.685,0.446,8.64,3.359
		c-0.325,1.012-5.257,1.679-6.72,1.44c-1.743-0.284-3.202-1.519-3.84-2.4C172.915,219.358,175.829,220.832,175.2,218.763z"/>
	<path fill-rule="evenodd" clip-rule="evenodd" fill="#FFFFFF" d="M260.16,226.443c-0.821-0.021-1.243,0.356-1.439,0.96
		c-3.829-2.091-9.051-2.79-9.601-8.16C252.474,220.098,259.305,221.502,260.16,226.443z"/>
	<path fill-rule="evenodd" clip-rule="evenodd" fill="#FFFFFF" d="M127.2,220.203c0.84,1.08,2.734,1.105,2.88,2.88
		c-0.96,0-1.92,0-2.88,0C127.2,222.123,127.2,221.163,127.2,220.203z"/>
	<path fill-rule="evenodd" clip-rule="evenodd" fill="#FFFFFF" d="M173.76,224.523c-2.882-0.533-8.376,0.855-9.6-3.36
		C167.146,220.505,172.194,220.614,173.76,224.523z"/>
	<path fill-rule="evenodd" clip-rule="evenodd" fill="#FFFFFF" d="M221.28,224.523c-2.288-0.048-2.628,1.853-4.8,1.92
		c-1.753-1.128-4.068-1.691-4.32-4.32C214.433,221.367,220.448,220.347,221.28,224.523z"/>
	<path fill-rule="evenodd" clip-rule="evenodd" fill="#FFFFFF" d="M164.16,225.483c-3.757-0.234-9.042,0.694-10.56-2.88
		C157.383,221.092,163.477,221.271,164.16,225.483z"/>
	<path fill-rule="evenodd" clip-rule="evenodd" fill="#FFFFFF" d="M154.08,225.963c-2.998,1.113-6.84,0.104-9.12-1.921
		C147.633,221.513,153.118,222.775,154.08,225.963z"/>
	<path fill-rule="evenodd" clip-rule="evenodd" fill="#FFFFFF" d="M213.601,226.443c-4.904,1.742-10.259,0.956-12.48-3.36
		c2.636,0.752,5.02-0.852,8.64-0.479C210.697,224.225,212.729,224.754,213.601,226.443z"/>
	<path fill-rule="evenodd" clip-rule="evenodd" fill="#FFFFFF" d="M281.28,222.603c0.227,1.507-1.292,1.268-1.44,2.399
		C278.789,224.531,280.271,222.6,281.28,222.603z"/>
	<path fill-rule="evenodd" clip-rule="evenodd" fill="#FFFFFF" d="M145.92,226.923c-2.62,1.035-7.861,0.557-9.6-1.921
		C138.922,221.467,144.468,224.816,145.92,226.923z"/>
	<path fill-rule="evenodd" clip-rule="evenodd" fill="#FFFFFF" d="M243.84,223.563c4.58,0.061,6.268,3.013,10.08,3.84
		C251.545,231.922,244.068,228.251,243.84,223.563z"/>
	<path fill-rule="evenodd" clip-rule="evenodd" fill="#FFFFFF" d="M203.04,227.883c-3.67,1.592-10.703-0.052-12.96-2.881
		C194.623,222.538,201.231,224.606,203.04,227.883z"/>
	<path fill-rule="evenodd" clip-rule="evenodd" fill="#FFFFFF" d="M136.8,227.883c-3.048,0.789-7.823,1.499-8.64-2.881
		C131.839,223.355,135.594,225.487,136.8,227.883z"/>
	<path fill-rule="evenodd" clip-rule="evenodd" fill="#FFFFFF" d="M191.521,229.323c-5.962,0.774-9.941,0.197-12-3.84
		C184.987,224.749,190.273,224.71,191.521,229.323z"/>
	<path fill-rule="evenodd" clip-rule="evenodd" fill="#FFFFFF" d="M279.36,225.483c-0.21,0.591-0.614,0.985-1.44,0.96
		C278.13,225.852,278.534,225.458,279.36,225.483z"/>
	<path fill-rule="evenodd" clip-rule="evenodd" fill="#FFFFFF" d="M180.96,229.803c-1.049,1.03-3.935,0.226-4.8,1.439
		c-1.923-1.598-4.627-2.412-5.76-4.8C175.303,225.365,179.206,226.496,180.96,229.803z"/>
	<path fill-rule="evenodd" clip-rule="evenodd" fill="#FFFFFF" d="M78.72,227.883c-0.495,0.618-5.048,1.234-4.8-0.48
		C75.093,226.47,78.063,226.814,78.72,227.883z"/>
	<path fill-rule="evenodd" clip-rule="evenodd" fill="#FFFFFF" d="M171.84,231.243c-5.558,1.922-8.679-0.232-12-2.88
		C163.895,225.576,170.437,227.356,171.84,231.243z"/>
	<path fill-rule="evenodd" clip-rule="evenodd" fill="#FFFFFF" d="M161.76,231.723c-3.951,2.981-7.569-0.937-10.08-2.4
		C155.161,226.252,159.545,229.462,161.76,231.723z"/>
	<path fill-rule="evenodd" clip-rule="evenodd" fill="#FFFFFF" d="M276.48,227.883c1.281,0.702-0.201,2.634-1.44,2.399
		C274.813,228.776,276.332,229.015,276.48,227.883z"/>
	<path fill-rule="evenodd" clip-rule="evenodd" fill="#FFFFFF" d="M153.12,233.643c-4.533,0.602-7.964-1.247-11.04-3.36
		C145.886,227.226,151.99,229.82,153.12,233.643z"/>
	<path fill-rule="evenodd" clip-rule="evenodd" fill="#FFFFFF" d="M211.68,229.323c0.493,1.613-1.492,0.747-2.399,0.96
		C208.787,228.67,210.773,229.536,211.68,229.323z"/>
	<path fill-rule="evenodd" clip-rule="evenodd" fill="#FFFFFF" d="M78.24,229.803c5.269-0.949,6.978,1.662,9.6,3.359
		c-0.888,1.499-4.045,1.497-5.76,0.96C80.398,233.597,78.211,231.464,78.24,229.803z"/>
	<path fill-rule="evenodd" clip-rule="evenodd" fill="#FFFFFF" d="M143.52,234.603c-4.363,0.277-7.863-0.842-10.56-3.36
		C135.605,228.636,142.879,230.005,143.52,234.603z"/>
	<path fill-rule="evenodd" clip-rule="evenodd" fill="#FFFFFF" d="M208.32,232.683c-3.312,2.057-8.84,1.697-10.08-1.92
		C201.991,230.07,207.173,228.91,208.32,232.683z"/>
	<path fill-rule="evenodd" clip-rule="evenodd" fill="#FFFFFF" d="M257.28,230.763c1.4-0.706,1.4,2.146,0,1.439
		C257.28,231.723,257.28,231.243,257.28,230.763z"/>
	<path fill-rule="evenodd" clip-rule="evenodd" fill="#FFFFFF" d="M198.24,234.123c-4.135,1.709-9.021,1.68-10.561-2.399
		C192.264,231.811,196.886,230.161,198.24,234.123z"/>
	<path fill-rule="evenodd" clip-rule="evenodd" fill="#FFFFFF" d="M247.2,236.042c-4.516,0.633-6.403-0.012-9.12-1.92
		C239.542,229.904,247.245,231.84,247.2,236.042z"/>
	<path fill-rule="evenodd" clip-rule="evenodd" fill="#FFFFFF" d="M273.601,231.723c1.28,0.702-0.201,2.634-1.44,2.399
		C271.934,232.616,273.452,232.855,273.601,231.723z"/>
	<path fill-rule="evenodd" clip-rule="evenodd" fill="#FFFFFF" d="M187.68,235.563c-4.007,0.968-7.645,0.396-9.119-2.4
		C181.548,232.039,187,231.887,187.68,235.563z"/>
	<path fill-rule="evenodd" clip-rule="evenodd" fill="#FFFFFF" d="M247.2,233.163c2.23-0.077,6.003,0.706,8.64,0.96
		C253.723,236.651,248.825,235.093,247.2,233.163z"/>
	<path fill-rule="evenodd" clip-rule="evenodd" fill="#FFFFFF" d="M178.561,236.523c-3.814,0.576-9.268,1.304-10.08-2.4
		C172.398,233.442,177.52,233.047,178.561,236.523z"/>
	<path fill-rule="evenodd" clip-rule="evenodd" fill="#FFFFFF" d="M160.32,234.603c3.821-0.302,6.915,0.125,7.68,2.88
		C165.183,238.571,160.133,238.085,160.32,234.603z"/>
	<path fill-rule="evenodd" clip-rule="evenodd" fill="#FFFFFF" d="M84.48,235.563c4.886-0.406,8.849,0.111,9.6,3.84
		C89.504,240.496,86.686,238.983,84.48,235.563z"/>
	<path fill-rule="evenodd" clip-rule="evenodd" fill="#FFFFFF" d="M150.72,235.563c4.195-0.355,7.678,0.002,9.12,2.4
		C156.306,239.846,151.899,239.398,150.72,235.563z"/>
	<path fill-rule="evenodd" clip-rule="evenodd" fill="#FFFFFF" d="M204.96,235.563c5.199-0.559,7.243,2.037,10.08,3.84
		c-0.34,1.663-3.146,0.586-5.76,0.96C208.721,237.882,205.187,238.376,204.96,235.563z"/>
	<path fill-rule="evenodd" clip-rule="evenodd" fill="#FFFFFF" d="M270.24,235.563c2.022-0.163,0.685,2.755-0.96,1.92
		C268.688,235.93,270.833,237.116,270.24,235.563z"/>
	<path fill-rule="evenodd" clip-rule="evenodd" fill="#FFFFFF" d="M128.64,236.042c0.8,0,1.6,0,2.4,0
		c1.791,2.529,4.728,3.912,4.8,8.16C131.688,243.235,129.997,239.806,128.64,236.042z"/>
	<path fill-rule="evenodd" clip-rule="evenodd" fill="#FFFFFF" d="M141.12,236.523c4.366-0.366,7.897,0.103,9.6,2.4
		C148.268,240.889,142.735,240.855,141.12,236.523z"/>
	<path fill-rule="evenodd" clip-rule="evenodd" fill="#FFFFFF" d="M206.88,241.323c-6.161,1.215-10.33-0.352-12.479-4.32
		C200.036,235.495,205.555,237.05,206.88,241.323z"/>
	<path fill-rule="evenodd" clip-rule="evenodd" fill="#FFFFFF" d="M135.84,237.963c2.006-1.505,4.591,0.512,4.8,2.399
		C138.285,241.62,137.351,238.965,135.84,237.963z"/>
	<path fill-rule="evenodd" clip-rule="evenodd" fill="#FFFFFF" d="M185.28,237.483c4.772-0.616,8.721,1.188,11.04,4.32
		C191.694,244.417,186.908,241.715,185.28,237.483z"/>
	<path fill-rule="evenodd" clip-rule="evenodd" fill="#FFFFFF" d="M252,238.923c-1.245,4.033-4.097,0.871-6.24-0.48
		C246.973,237.082,251.431,236.945,252,238.923z"/>
	<path fill-rule="evenodd" clip-rule="evenodd" fill="#FFFFFF" d="M127.68,241.803c-2.237,1.735-4.075-1.029-5.28-1.92
		C123.587,236.658,126.646,240.5,127.68,241.803z"/>
	<path fill-rule="evenodd" clip-rule="evenodd" fill="#FFFFFF" d="M187.2,242.763c-4.963,3.48-9.643-0.565-12.96-2.88
		C178.843,236.322,184.632,240.004,187.2,242.763z"/>
	<path fill-rule="evenodd" clip-rule="evenodd" fill="#FFFFFF" d="M176.641,243.723c-3.51,3.167-9.174-0.072-10.08-3.84
		C172.039,238.228,173.275,242.027,176.641,243.723z"/>
	<path fill-rule="evenodd" clip-rule="evenodd" fill="#FFFFFF" d="M113.76,242.283c-1.99,0.551-1.871-1.01-3.36-0.96
		C110.772,239.549,113.659,240.901,113.76,242.283z"/>
	<path fill-rule="evenodd" clip-rule="evenodd" fill="#FFFFFF" d="M101.76,244.203c-2.765,3.831-8.091-0.38-10.08-1.92
		C95.166,239.774,99.768,241.62,101.76,244.203z"/>
	<path fill-rule="evenodd" clip-rule="evenodd" fill="#FFFFFF" d="M157.44,240.843c5.954-0.993,7.86,2.061,11.041,3.84
		c-0.73,1.51-3.499,0.981-5.28,1.439C161.718,243.925,157.854,244.109,157.44,240.843z"/>
	<path fill-rule="evenodd" clip-rule="evenodd" fill="#FFFFFF" d="M122.88,242.763c-0.357,1.082-2.692,0.188-3.84,0.479
		C118.97,240.698,122.059,242.092,122.88,242.763z"/>
	<path fill-rule="evenodd" clip-rule="evenodd" fill="#FFFFFF" d="M148.32,241.803c5.837-0.718,9.063,1.177,10.56,4.8
		c-2.273-0.193-3.303,0.856-5.76,0.479C151.867,244.976,148.667,244.816,148.32,241.803z"/>
	<path fill-rule="evenodd" clip-rule="evenodd" fill="#FFFFFF" d="M223.68,246.123c-5.859,1.027-7.725-0.613-11.039-2.88
		C215.885,240.426,222.69,242.407,223.68,246.123z"/>
	<path fill-rule="evenodd" clip-rule="evenodd" fill="#FFFFFF" d="M139.68,242.763c5.754-1.115,7.116,2.163,10.08,3.84
		c-2.041,2.341-5.851,1.187-8.64,1.92C139.933,247.31,139.986,244.857,139.68,242.763z"/>
	<path fill-rule="evenodd" clip-rule="evenodd" fill="#FFFFFF" d="M214.08,247.083c-3.229,0.475-4.243,0.214-7.68,0.48
		c-0.432-1.969-2.584-2.216-3.84-3.36C207.058,242.5,211.911,242.568,214.08,247.083z"/>
	<path fill-rule="evenodd" clip-rule="evenodd" fill="#FFFFFF" d="M273.601,246.603c-2.774-0.214-4.919,0.201-7.2,0.479
		C267.33,243.754,272.421,242.448,273.601,246.603z"/>
	<path fill-rule="evenodd" clip-rule="evenodd" fill="#FFFFFF" d="M199.68,244.203c1.388,1.174,2.683,2.438,4.32,3.36
		c-2.693,2.205-8.934,0.567-10.56-2.4C195.685,243.939,197.025,244.735,199.68,244.203z"/>
	<path fill-rule="evenodd" clip-rule="evenodd" fill="#FFFFFF" d="M130.08,249.483c-5.565,1.292-10.108-0.148-12-3.84
		C123.662,244.678,128.084,244.827,130.08,249.483z"/>
	<path fill-rule="evenodd" clip-rule="evenodd" fill="#FFFFFF" d="M128.64,244.683c2.63,1.37,5.987,2.013,8.16,3.84
		C133.409,249.826,130.16,246.85,128.64,244.683z"/>
	<path fill-rule="evenodd" clip-rule="evenodd" fill="#FFFFFF" d="M194.88,248.523c-3.281,2.138-11.403,1.298-11.52-2.88
		C188.629,244.559,191.945,246.118,194.88,248.523z"/>
	<path fill-rule="evenodd" clip-rule="evenodd" fill="#FFFFFF" d="M174.24,246.603c5.026-0.546,8.357,0.603,9.6,3.84
		C178.899,250.904,175.568,249.755,174.24,246.603z"/>
	<path fill-rule="evenodd" clip-rule="evenodd" fill="#FFFFFF" d="M111.84,251.403c-5.936,1.229-9.757,0.918-12.48-3.84
		C105.079,246.683,110.001,247.253,111.84,251.403z"/>
	<path fill-rule="evenodd" clip-rule="evenodd" fill="#FFFFFF" d="M119.52,250.443c-3.052,1.686-6.026,0.229-7.68-2.88
		C115.616,246.649,118.299,247.628,119.52,250.443z"/>
	<path fill-rule="evenodd" clip-rule="evenodd" fill="#FFFFFF" d="M165.601,247.563c5.025-0.546,8.357,0.603,9.6,3.84
		C170.321,252.291,167.19,251.065,165.601,247.563z"/>
	<path fill-rule="evenodd" clip-rule="evenodd" fill="#FFFFFF" d="M231.36,251.403c-4.985,1.006-8.15,1.325-11.04-2.399
		c1.098-1.434,4.455-1.771,6.24-1.44C228.928,248,230.519,250.176,231.36,251.403z"/>
	<path fill-rule="evenodd" clip-rule="evenodd" fill="#FFFFFF" d="M166.561,252.363c-5.053,1.558-7.49-0.275-10.561-2.88
		C159.485,246.843,165.577,249.356,166.561,252.363z"/>
	<path fill-rule="evenodd" clip-rule="evenodd" fill="#FFFFFF" d="M220.8,251.883c-2.961,3.538-9.986,0.566-11.04-2.4
		C214.939,248.196,218.041,248.883,220.8,251.883z"/>
	<path fill-rule="evenodd" clip-rule="evenodd" fill="#FFFFFF" d="M156.48,253.323c-5.517,1.757-10.207,0.543-12.96-2.88
		C148.452,249.035,155.065,248.126,156.48,253.323z"/>
	<path fill-rule="evenodd" clip-rule="evenodd" fill="#FFFFFF" d="M268.32,252.363c-2.945-0.826-4.345,1.78-6.24,0.48
		C262.737,249.179,267.293,248.692,268.32,252.363z"/>
	<path fill-rule="evenodd" clip-rule="evenodd" fill="#FFFFFF" d="M210.72,254.283c-5.237,0.598-8.198-1.081-10.079-3.84
		C204.95,249.878,209.593,249.595,210.72,254.283z"/>
	<path fill-rule="evenodd" clip-rule="evenodd" fill="#FFFFFF" d="M136.32,250.443c5.292-1.133,5.917,2.403,9.12,3.36
		C142.449,257.381,137.628,253.04,136.32,250.443z"/>
	<path fill-rule="evenodd" clip-rule="evenodd" fill="#FFFFFF" d="M137.76,254.763c-3.866,2.723-11.314,0.863-11.04-2.88
		C132.182,251.254,135.434,251.509,137.76,254.763z"/>
	<path fill-rule="evenodd" clip-rule="evenodd" fill="#FFFFFF" d="M201.601,255.243c-5.478,0.678-9.005-0.595-11.521-2.88
		C192.21,250.532,201.495,250.652,201.601,255.243z"/>
	<path fill-rule="evenodd" clip-rule="evenodd" fill="#FFFFFF" d="M191.521,256.683c-4.271-0.209-7.783-1.178-10.08-3.36
		C184.901,250.708,190.721,253.493,191.521,256.683z"/>
	<path fill-rule="evenodd" clip-rule="evenodd" fill="#FFFFFF" d="M118.56,253.323c3.674-1.904,6.76,0.913,8.64,2.4
		C124.288,258.966,120.674,255.078,118.56,253.323z"/>
	<path fill-rule="evenodd" clip-rule="evenodd" fill="#FFFFFF" d="M182.88,256.683c-2.454,2.118-8.182,0.54-9.6-2.4
		C176.483,250.854,180.199,254.562,182.88,256.683z"/>
	<path fill-rule="evenodd" clip-rule="evenodd" fill="#FFFFFF" d="M120,257.643c-5.901,1.173-9.811,0.55-12.48-3.36
		C113.236,252.758,117.788,253.719,120,257.643z"/>
	<path fill-rule="evenodd" clip-rule="evenodd" fill="#FFFFFF" d="M237.12,256.203c-4.38-0.248-7.999,1.385-10.08-1.439
		C229.509,253.011,236.62,252.3,237.12,256.203z"/>
	<path fill-rule="evenodd" clip-rule="evenodd" fill="#FFFFFF" d="M173.76,257.643c-3.417,2.125-8.146,0.221-10.56-2.4
		C167.357,252.551,171.448,254.958,173.76,257.643z"/>
	<path fill-rule="evenodd" clip-rule="evenodd" fill="#FFFFFF" d="M272.641,255.723c-4.497,0.353-10.748,1.346-13.92,1.439
		c0.249-1.19,1.17-1.71,1.92-2.399C264.564,256.322,271.016,251.932,272.641,255.723z"/>
	<path fill-rule="evenodd" clip-rule="evenodd" fill="#FFFFFF" d="M226.08,257.643c-4.418,0.053-7.066,0.773-9.6-1.44
		C218.604,253.365,227.272,254.015,226.08,257.643z"/>
	<path fill-rule="evenodd" clip-rule="evenodd" fill="#FFFFFF" d="M255.84,254.763c0.855,0.352,0.069,0.873,0,1.439
		C254.985,255.851,255.771,255.33,255.84,254.763z"/>
	<path fill-rule="evenodd" clip-rule="evenodd" fill="#FFFFFF" d="M163.68,258.123c-1.777,3.133-11.739,1.578-11.52-1.92
		C155.027,255.159,161.741,254.66,163.68,258.123z"/>
	<path fill-rule="evenodd" clip-rule="evenodd" fill="#FFFFFF" d="M216.48,257.643c-1.974,2.4-9.012,1.281-8.16-1.44
		C210.608,255.327,214.584,255.703,216.48,257.643z"/>
	<path fill-rule="evenodd" clip-rule="evenodd" fill="#FFFFFF" d="M152.16,260.523c-4.626,0.626-6.474-1.525-8.64-3.36
		C147.33,255.295,150.908,257.298,152.16,260.523z"/>
	<path fill-rule="evenodd" clip-rule="evenodd" fill="#FFFFFF" d="M207.36,258.603c-2.414,2.201-8.866,2.63-9.601-0.96
		C201.655,257.125,204.126,256.082,207.36,258.603z"/>
	<path fill-rule="evenodd" clip-rule="evenodd" fill="#FFFFFF" d="M246.24,258.603c-0.594,1.947-3.827,0.598-3.84-0.96
		C243.597,256.587,244.755,258.48,246.24,258.603z"/>
	<path fill-rule="evenodd" clip-rule="evenodd" fill="#FFFFFF" d="M133.44,257.643c3.485,0.101,10.758-0.902,11.04,3.84
		c-1.35-0.35-5.379,0.235-8.16,0C136.382,259.181,132.965,260.358,133.44,257.643z"/>
	<path fill-rule="evenodd" clip-rule="evenodd" fill="#FFFFFF" d="M196.8,261.483c-2.652-0.547-6.575,0.239-7.68-2.88
		C192.407,257.842,196.848,257.603,196.8,261.483z"/>
	<path fill-rule="evenodd" clip-rule="evenodd" fill="#FFFFFF" d="M241.44,258.603c-1.38,1.391-8.149,2.692-9.12,0
		C235.845,259.102,238.654,257.366,241.44,258.603z"/>
	<path fill-rule="evenodd" clip-rule="evenodd" fill="#FFFFFF" d="M126.24,258.603c4.162-0.481,6.49,0.87,7.68,3.36
		C130.563,263.44,126.642,261.649,126.24,258.603z"/>
	<path fill-rule="evenodd" clip-rule="evenodd" fill="#FFFFFF" d="M188.641,261.483c-2.298,1.275-7.003,0.66-8.641-1.44
		C181.323,258.542,187.714,258.617,188.641,261.483z"/>
	<path fill-rule="evenodd" clip-rule="evenodd" fill="#FFFFFF" d="M230.88,260.523c-3.319,0.558-5.599,1.414-8.64,0.48
		C223.166,258.961,230.152,258.392,230.88,260.523z"/>
	<path fill-rule="evenodd" clip-rule="evenodd" fill="#FFFFFF" d="M126.72,263.403c-4.025,0.095-9.52,0.309-11.52-2.88
		C118.58,258.288,126.443,259.385,126.72,263.403z"/>
	<path fill-rule="evenodd" clip-rule="evenodd" fill="#FFFFFF" d="M179.04,262.443c-2.007,1.401-7.617,0.58-8.64-1.92
		C172.918,259.734,178.956,259.232,179.04,262.443z"/>
	<path fill-rule="evenodd" clip-rule="evenodd" fill="#FFFFFF" d="M213.601,260.523c2.339,0.221,5.622-0.503,7.199,0.48
		C219.104,262.559,214.3,263.624,213.601,260.523z"/>
	<path fill-rule="evenodd" clip-rule="evenodd" fill="#FFFFFF" d="M169.92,262.923c-0.086,1.354-2.281,0.599-1.92,2.399
		c0.994,1.566,6.133-1.013,5.76,1.92c-4.027-0.727-6.319,1.955-9.6,0.48c-0.373-2.293,3-0.841,3.36-2.4
		c0.111-2.575-2.945-0.205-5.28-0.96c-1.574-0.666-3.232-1.248-3.84-2.88C162.653,261.405,167.77,259.961,169.92,262.923z"/>
	<path fill-rule="evenodd" clip-rule="evenodd" fill="#FFFFFF" d="M211.2,262.923c-2.409,0.554-5.175,0.78-7.68,0
		C204.321,261.51,210.823,260.219,211.2,262.923z"/>
	<path fill-rule="evenodd" clip-rule="evenodd" fill="#FFFFFF" d="M157.92,264.843c-2.609,1.475-6.254-0.135-6.72-2.4
		C153.917,261.611,156.526,262.244,157.92,264.843z"/>
	<path fill-rule="evenodd" clip-rule="evenodd" fill="#FFFFFF" d="M201.601,264.363c-2.259-0.876-4.212,0.776-6.24-0.479
		C196.288,261.988,201.376,261.821,201.601,264.363z"/>
	<path fill-rule="evenodd" clip-rule="evenodd" fill="#FFFFFF" d="M150.72,266.283c-4.122-0.038-8.973,0.652-10.56-1.92
		C142.922,262.011,150.113,262.415,150.72,266.283z"/>
	<path fill-rule="evenodd" clip-rule="evenodd" fill="#FFFFFF" d="M193.92,264.843c-1.457,0.797-6.223,0.797-7.68,0
		c0.272-2.127,4.616-0.184,5.76-1.44C192.472,264.051,193.281,264.362,193.92,264.843z"/>
	<path fill-rule="evenodd" clip-rule="evenodd" fill="#FFFFFF" d="M139.68,267.243c-3.739,0.38-6.083-0.637-7.2-2.88
		C135.682,263.592,138.886,264.325,139.68,267.243z"/>
	<path fill-rule="evenodd" clip-rule="evenodd" fill="#FFFFFF" d="M132.48,267.723c-3.543,1.361-7.501,1.036-10.08-1.44
		C124.991,264.196,131.526,264.338,132.48,267.723z"/>
	<path fill-rule="evenodd" clip-rule="evenodd" fill="#FFFFFF" d="M184.32,265.803c-1.457,0.797-6.223,0.797-7.68,0
		C177.41,263.951,183.423,264.636,184.32,265.803z"/>
	<path fill-rule="evenodd" clip-rule="evenodd" fill="#FFFFFF" d="M156.48,266.763c1.977,0.493,4.069-0.547,5.76,0.96
		C161.375,268.792,156.529,269.691,156.48,266.763z"/>
	<path fill-rule="evenodd" clip-rule="evenodd" fill="#FFFFFF" d="M154.56,268.683c-1.632,1.209-6.458,1.375-8.64,0.479
		C147.639,267.308,152.39,267.198,154.56,268.683z"/>
	<path fill-rule="evenodd" clip-rule="evenodd" fill="#FFFFFF" d="M143.52,269.643c-0.988,1.21-4.377,1.378-5.28,0
		C138.839,268.589,142.284,268.324,143.52,269.643z"/>
	<path fill-rule="evenodd" clip-rule="evenodd" fill="#FFFFFF" d="M136.32,271.563c-2.006-0.933-5.448,0.959-7.68-0.48
		C129.768,269.638,136.256,268.372,136.32,271.563z"/>
	<path fill-rule="evenodd" clip-rule="evenodd" d="M99.36,80.043c-0.034,3.012-3.178,7.058-6.24,8.64
		c1.252,3.869,4.767,5.474,7.2,8.16c1.166-1.41,4.547-6.147,5.76-10.56c0.223-0.809-0.246-2.199,0-3.36
		c0.342-1.612,1.504-4.435-0.48-6.24c-0.688-0.626-2.05,0.021-2.4-0.96c-3.529,1.359-5.016,5.994-8.64,7.68
		c-7.854,3.654-15.574-1.66-19.68-6.72c-1.793,0.978-2.474-1.058-3.84-1.44c-2.652-0.741-5.608,0.012-8.16-0.48
		c-2.096-0.404-3.671-2.556-5.76-1.44c-0.637-0.803-1.271-1.608-0.96-3.36c-1.604-0.003-1.272,1.928-2.4,2.4
		c-2.842-1.638-4.426-4.534-5.76-7.68c1.756-6.479-0.037-14.229,0.96-23.04c0.293-2.588,1.477-5.375,1.92-8.16
		c0.979-6.142,1.511-12.482,3.36-16.32c2.144-4.449,8.525-10.589,13.44-12.96c3.489-1.683,5.686-2.874,9.12,0
		c4.876-3.979,11.317-4.795,16.32-3.84c6.95,1.327,19.056,7.765,23.04,14.88c0.405,0.724,0.462,2.237,0.96,3.36
		c2.285,5.153,5.252,9.349,6.24,16.8c0.479,3.617,0.753,7.517,0.96,10.56c0.184,2.722,0.173,5.936,0,8.64
		c-0.106,1.662-0.89,3.352-0.96,4.8c-0.133,2.753-0.528,5.608-0.48,8.64c-1.6,1.236-6.865,5.002-8.64,1.44
		c-1.77,1.59-3.679,3.041-5.76,4.32c11.521,4.752,27.314,1.386,36.48,9.6c0.863,0.773,4.368,4.91,5.28,6.24
		c0.671,0.978,0.631,2.673,1.44,3.84c0.688,0.993,1.86,1.51,2.4,2.4c1.359,2.239,2.922,5.345,3.36,6.72
		c1.05,3.296,0.178,6.92,0.96,10.56c0.657,3.061,3.213,6.252,4.8,9.6c4.367,9.216,10.452,19.679,13.92,29.28
		c3.091,0.749,5.881,1.8,6.24,5.28c10.277,2.941,17.66,12.233,26.399,18.24c4.753-0.863,9.276-0.728,13.92-1.44
		c1.924-0.295,4.741-0.62,8.16-0.96c5.943-0.59,11.923-2.257,17.761-2.88c2.515-0.269,5.169,0.305,7.68,0
		c1.68-0.203,3.081-1.165,4.8-1.439c1.332-0.213,2.566,0.535,3.84,0.479c0.463-0.021,1.21-0.928,1.44-0.96
		c6.305-0.876,19.787-1.176,27.84-1.92c-1.561,3.177-6.432,3.711-10.56,4.32c-22.826,3.366-42.589,5.166-69.601,8.64
		c0.397,2.486,3.251,4.145,5.28,5.76c6.007,4.781,13.826,9.622,21.12,13.44c3.409-3.12,8.752-4.757,14.399-4.32
		c1.624-0.456,2.522-1.638,3.841-2.399c3.894,1.244,8.095,0.313,12,2.399c10.808-6.598,26.159-16.242,39.359-24
		c0.516-0.303,1.251-0.127,1.92-0.479c0.481-0.255,0.642-1.258,0.96-1.44c5.295-3.029,9.129-3.452,11.04,2.4
		c-3.571,6.596-8.468,12.297-12.96,18.239c-13.051,17.267-27.441,34.215-40.8,51.841c6.146,5.054,14.41,7.99,19.2,14.399
		c-9.487,3.773-25.588,2.488-36.96,6.24c-1.448-0.632-4.112-0.048-5.28-0.96c-19.201,3.459-44.573,6.027-64.32,8.16
		c-9.231,0.997-18.883,1.362-28.8,2.88c-3.685,0.563-9.031,1.45-13.44,1.92c-3.582,0.382-9.549,1.057-12,0.48
		c-6.896-1.623-12.155-12.229-20.16-13.44c-1.12-3.04-3.478-4.842-6.72-5.76c-8.499-9.582-19.955-16.205-29.28-24.96
		c-4.675-1.162-8.296-2.959-12.96-4.801c-1.325-0.522-3.11-0.831-4.32-1.439c-2.27-1.142-4.584-3.222-7.68-4.8
		c-6.624-3.376-13.066-6.624-19.68-11.04c-2.878-1.922-5.303-4.455-7.2-4.8c-3.058-0.557-7.701,0.943-11.52,1.439
		c-3.38,0.439-8.135,1.815-10.08-1.92c5.694-2.239,10.518-2.401,17.76-2.88c-0.799-15.104-3.29-29.962-1.92-45.12
		c0.592-6.55,2.315-11.641,3.36-19.2c0.361-2.615,1.666-5.262,1.92-7.68c0.625-5.93-0.845-10.971,0-16.32
		c0.213-1.349,1.4-2.742,1.92-4.32c0.549-1.667,0.362-3.808,0.96-5.28c1.097-2.702,3.76-4.758,4.8-7.2
		c12.217-4.911,19.756-7.943,30.72-14.4c4.131-2.433,6.561-5.519,12.48-2.88c1.16,6.546,7.638,13.051,15.84,12
		C93.729,88.408,95.117,82.977,99.36,80.043z M61.92,13.323c1.094,0.134,1.805-0.116,1.92-0.96
		C62.746,12.229,62.036,12.479,61.92,13.323z M58.08,15.723c1.488,2.216,0.964,3.492,1.92,6.24c2.583,0.137,2.656,2.784,3.84,4.32
		c3.051,0.148,4.506,1.894,5.76,3.84c3.392,0.092,4.362,2.497,6.72,2.4c0,0.64,0,1.28,0,1.92c2.785,0.254,5.392,0.688,6.24,2.88
		c-4.294,1.028-9.609-0.901-14.4-0.96c-0.021,4.035-4.25,8.058-0.96,11.04c-2.307,2.913,0.471,6.566,0.96,9.6
		c0.237,1.517-2.382,0.178-1.92,1.92c0.177,3.183,1.258,5.462,1.92,8.16c5.048,3.751,9.222,8.378,14.4,12
		c13.383,2.183,15.26-7.14,21.6-12c0.917-3.083,1.087-6.913,2.4-9.6c-1.541-2.395,0.775-5.856-0.48-9.6
		c0.814-0.465,1.233-1.327,0.96-2.88c-0.357-1.403-2.591-0.929-2.4-2.88c0.687-1.553,1.928-2.552,2.4-4.32
		c-3.702-1.84-8.339,2.372-11.04-0.96c1.265-1.935,4.82-1.58,7.2-2.4c-0.78-3.835-3.246-0.319-5.28,0
		c-5.461,0.422-11.947,1.376-15.84-1.92c1.416-2.496,1.687-9.68-0.48-11.52c-1.857-0.257-2.343,0.856-4.32,0.48
		c-2.173,1.86-1.904,7.516-1.92,10.08c-2.003-2.097-2.479-2.994-2.4-6.72c-3.523-1.756-5.008-5.552-9.12-6.72
		C63.807,13.707,60.401,13.326,58.08,15.723z M107.04,15.723c-0.26,1.7,1.7,1.18,1.44,2.88c-2.922,1.982-4.972,1.919-6.72,4.8
		c-2.906-0.506-3.691,1.109-5.76,1.44c-1.7,0.26-1.18-1.7-2.88-1.44c-1.412,2.376-8.177,0.384-7.68,3.84
		c4.377,0.337,9.948-0.289,15.84-0.48c-0.026-0.826,0.369-1.23,0.96-1.44c6.701,1.101,8.787-2.413,12.96-3.84
		C114.385,17.919,110.243,15.32,107.04,15.723z M69.12,35.403c1.755-0.005,2.572-0.948,3.36-1.92
		C71.422,31.95,68.545,32.629,69.12,35.403z M70.08,78.603c-2.713,0.807-4.416,2.624-5.76,4.8c3.156,5.164,4.179,12.461,8.16,16.8
		c-0.891,0.849,0.208,1.401,0.48,2.4c3.5-3.221,5.973-7.467,9.12-11.04C76.877,88.446,72.153,84.85,70.08,78.603z M108.96,87.723
		c-0.04,2.627,1.087,4.896,1.44,7.68c0.949,7.482-0.425,14.873,0.96,21.12c0.29,1.31,1.466,2.066,1.92,3.36
		c2.698,7.698,1.058,17.185-0.48,25.44c-1.738,0.822-3.923,1.197-6.72,0.96c-2.829,4.211-3.889,10.191-6.24,14.88
		c1.592,2.888,5.812,3.148,7.68,5.761c3.586,5.214,3.011,14.589,5.76,20.64c7.804-0.441,13.25-1.412,21.6-2.4
		c0.247-2.124,2.14-4.267,2.4-6.239c0.319-2.414-1.194-5.006-1.44-7.681c-0.257-2.798-0.289-6.953,0-10.08
		c0.838-9.083,6.365-17.836,7.2-26.4c0.956-9.802-2.818-14.803-6.24-21.12c-0.153-4.012-3.06-7.813-2.88-10.56
		c2.801-0.561,1.792,2.688,3.84,2.88c0.837-1.243,0.068-4.091,2.4-3.84c-0.649,3.349,1.646,0.63,1.92,1.44
		c-0.772,2.107-1.393,4.367-1.92,6.72c2.567,2.265,3.305,6.558,5.28,10.08c1.203,2.145,3.26,3.364,3.84,5.76
		c1.984,8.199-2.327,14.342-4.32,21.6c2.569,4.933,4.992,9.966,7.68,14.88c3.753,6.861,7.469,14.939,12.48,19.68
		c3.057,2.892,6.156,5.54,9.12,8.16c4.134,3.654,8.522,7.732,13.92,9.6c-0.361,1.802,1.834,1.047,1.92,2.4
		c3.362,1.118,6.348,2.612,8.64,4.8c7.288,1.192,9.889,7.072,18.24,7.2c0.956-1.125,1.106-3.054,0.96-5.28
		c2.065-2.983,2.597-6.955,4.8-9.6c1.382-1.657,3.295-1.983,4.32-3.84c-14.479-9.841-27.911-20.729-40.8-32.16
		c-2.473-0.062-4.023-0.306-5.28-0.48c-1.427-0.973-0.671-4.128-2.399-4.8c-2.282,2.641-5.606,7.63-10.08,9.12
		c-2.956,0.984-7.433,1.842-9.6-0.96c7.486-0.515,13.641-2.359,16.32-7.68c-1.847-3.586-2.703-7.779-4.8-12
		c-1.81-3.644-4.565-7.113-6.721-11.041c-1.89-3.445-3.525-7.979-5.279-12.48c-1.79-4.592-4.814-8.847-5.28-12.96
		c-0.595-5.255-0.567-6.213-2.4-10.08c-1.928-4.069-3.58-6.303-5.76-9.6c-3.685-5.573-5.062-6.392-12.48-7.2
		c-6.748-0.735-16.822-3.346-23.04-4.8C110.409,81.458,109.003,84.877,108.96,87.723z M42.72,93.483
		c-2.569,0.949-5.453,1.066-7.68,1.92c-4.937,1.893-8.578,11.283-9.12,19.2c-0.17,2.483,0.485,4.702,0.48,7.2
		c-0.011,5.371-1.248,11.258-2.4,16.8c-0.752,3.619-2.32,7.477-2.88,11.52c-0.678,4.898-0.598,10.764-0.48,16.32
		c0.131,6.189-0.363,13.671,0.48,19.68c0.403,2.873,0.966,10.679,1.92,12c0.565,0.783,2.234,1.499,3.36,2.4
		c3.195,2.558,4.363,3.055,7.2,4.8c1.502,0.924,2.836,2.486,4.32,3.36c1.942,1.144,4.589,1.736,6.72,2.88
		c8.088,4.341,17.696,9.757,26.4,12.479c0.335-9.692,2.695-15.131,9.12-19.199c-9.38-4.7-16.169-11.991-26.88-15.36
		c-2.377-3.383-5.684-5.837-11.52-5.76c-3.546-3.334-10.418-3.342-13.44-7.2c6.728-0.729,12.092,6.377,19.2,5.28
		c-0.125-7.856,1.678-12.671,3.36-18.721c-3.531-6.253-9.489-10.27-10.56-18.239c-1.089-8.105,2.443-18.262,2.88-26.88
		c0.129-2.554-1.299-4.512,0.48-6.72c5.151-0.186,3.519,3.607,3.36,6.72c-0.198,3.864-0.574,8.829-0.96,13.92
		c-0.811,10.693,1.962,17.318,5.28,22.56c2.93,4.63,6.475,10.098,9.12,13.92c-0.395,5.423-0.788,11.933,0,17.76
		c3.827,0.974,5.565,4.035,9.6,4.801c0.625,1.191-1.408,1.991,0,2.399c2.26-2.16,6.182-0.459,9.6-0.96
		c1.279-0.188,2.514-1.319,3.84-1.439c1.563-0.143,3.345,0.073,4.8,0.479c5.6-2.874,16.799-2.188,22.56-3.36
		c-2.516-7.615-2.242-15.266-6.24-21.6c-9.792-3.717-18.659-10.203-23.52-18.24c-1.736-0.176-4.833,1.739-6.72-0.479
		c-0.863,1.119-4.251,1.519-5.28,0.96c-0.606-3.606,0.591-8.435,0.96-13.44c0.291-3.95-0.957-9.207,1.92-11.04
		c0.902,7.211-0.297,14.335-0.96,22.08c7.511-2.729,15.729-4.751,18.72-12c-4.105-8.927-3.107-20.305-3.36-31.2
		c-2.749,5.944-3.55,15.673-4.32,22.08c-4.48-9.808,5.021-21.33,0-28.8c-6.667,3.838-7.603,11.435-8.64,20.64
		c-0.167,1.486-0.657,5.708-2.4,5.76c-0.03-2.679-2.495-5.812-3.84-8.64c-1.637-10.043-3.505-19.855-5.28-29.76
		C56.839,86.239,48.637,91.297,42.72,93.483z M100.32,99.243c-2.338-1.022-3.014-3.706-5.76-4.32c-1.204,1.876,1.265,3.567,2.4,4.8
		c2.844,3.088,5.671,5.794,8.16,8.64c1.212,1.385,2.829,3.309,4.32,3.36c-1.394-7.613-0.213-15.704-3.36-22.08
		C104.889,93.571,103.787,97.589,100.32,99.243z M92.64,92.523c-2.177-2.85-5.191-0.947-8.64-0.48c0.043,3.691,0.879,6.39,2.88,9.12
		C92.677,102.16,91.933,96.615,92.64,92.523z M68.16,106.443c2.204,1.156,0.68,6.041,3.36,6.72c0.759-3.265,0.951-4.146,1.44-7.68
		c-0.927-1.792-3.09-2.35-2.88-5.28c-2.146-1.053-1.866-4.534-3.84-5.76C65.697,97.917,68.306,101.823,68.16,106.443z
		 M92.16,101.643c2.212,4.327,6.172,9.411,7.2,15.36c0.614,3.56,1.223,7.445,0,9.6c-2.087-3.842-1.061-8.616-2.4-12.48
		c-0.046-0.133-0.872-0.305-0.96-0.48c-0.257-0.516,0.226-1.388,0-1.92c-0.102-0.241-0.79-0.056-0.96-0.48
		c-0.64-1.599-0.641-1.686-1.44-2.88c-1.177-1.757-2.271-4.612-4.32-4.8c1.643,4.697,4.21,9.248,4.8,14.88
		c0.288,2.751-0.231,5.034,0.96,6.24c-1.152,1.407-0.968,4.152-0.96,6.72c6.354,3.406,7.438,12.082,16.32,12.96
		c3.216-4.872,0.685-13.305,1.44-21.12c-4.098-9.662-10.237-17.283-18.24-23.04C93.332,100.894,92.852,101.374,92.16,101.643z
		 M92.16,121.323c-0.082-1.358,0.413-3.293-0.96-3.36C90.851,119.078,89.985,121.549,92.16,121.323z M92.64,127.083
		c-0.225-1.696,0.785-4.625-1.44-4.32C90.898,124.985,91.576,126.227,92.64,127.083z M94.56,139.083c-3.124,3.276-8.18,4.621-12,7.2
		c3.267,6.812,9.2,10.961,16.32,13.92c0.936-4.824,2.754-8.767,4.32-12.96c-3.309-4.051-7.159-7.561-9.6-12.48
		C91.833,136.77,94.71,137.207,94.56,139.083z M143.04,180.363c-0.479,2.081-2.467,2.653-2.88,4.8
		c5.364-1.995,13.682-1.037,18.72-3.359c-2.858-3.587-5.312-7.435-7.68-11.04c-2.815-4.287-6.965-7.77-8.16-12.96
		c-0.48,0-0.96,0-1.44,0C140.466,165.046,140.964,174.737,143.04,180.363z M319.2,172.203c0.044-0.756,1.225-0.376,0.96-1.439
		C319.17,170.34,318.342,172.345,319.2,172.203z M51.84,181.803c1.28,0.638,4.415,4.007,4.8,2.399
		c-1.012-4.748-1.069-10.45-4.32-12.96C52.747,175.117,51.249,179.332,51.84,181.803z M313.92,172.683
		c-0.949,1.993-3.566,2.354-5.279,3.359c-10.85,6.365-21.361,13.521-32.16,19.681c0.496,4.517-2.924,8.247-6.24,9.6
		c-3.848,1.57-9.047,1.018-12.96,2.4c-3.709,1.311-6.98,4.18-10.56,6.24c-11.091,6.383-22.102,12.692-32.641,18.72
		c-0.232,2.566,2.387,2.772,3.84,3.84c10.42,7.653,22.321,13.803,33.12,20.64c21.824-27.775,43.507-55.692,64.32-84.479
		C314.88,172.683,314.4,172.683,313.92,172.683z M163.2,186.123c-0.481,0.002-0.571-0.389-0.96-0.479
		c-0.567,0.232-1.088,0.512-1.44,0.96c-29.971,2.22-57.973,7.342-85.439,9.12c1.785,4.935,8.841,4.599,11.04,9.12
		c3.341,1.459,7.909,1.69,12.96,1.439c-0.538-2.182-2.569-2.87-2.4-5.76c2.203-1.643,3.413-3.604,6.24-3.36
		c4.488,0.388,6.302,8.108,9.6,9.12c3.037,0.933,5.948-1.058,9.12-1.439c2.776-0.335,5.184,0.033,8.16-0.48
		c15.315-2.643,31.21-3.783,46.08-5.76C171.829,194.454,167.787,190.016,163.2,186.123z M301.92,196.203
		c2.576-3.184,5.19-6.329,7.2-10.08C306.401,188.847,302.381,192.82,301.92,196.203z M261.601,197.163
		c-2.34,0.152-4.268,1.988-6.721,2.4c-2.233,0.375-4.421-0.353-6.239,0c-3.806,0.738-5.049,3.456-8.16,5.76
		c-0.978,1.423-0.748,4.053-2.88,4.32c-1.919-2.183,1.641-4.335,0-6.24c-6.041,0.858-8.577,7.858-8.16,14.88
		c3.687-0.187,6.31-2.714,9.12-4.319c5.68-3.246,12.599-7.643,18.239-9.601c6.447-2.237,15.044,0.275,17.28-6.72
		C269.603,199.148,265.039,196.939,261.601,197.163z M228,198.123c-4.839,3.481-7.035,9.605-8.64,16.32
		c1.881,2.279,4.092,4.229,7.2,5.28c0.817-4.153-0.311-8.702,1.439-12c1.571-2.961,5.311-4.144,6.721-7.2
		C232.522,199.681,230.521,198.643,228,198.123z M180.48,201.002c-2.932-0.371-4.491,0.629-7.2,0.48
		c2.754,4.206,7.329,3.78,12.479,3.84C185.672,202.211,181.495,203.188,180.48,201.002z M101.28,202.443c0.48,0,0.96,0,1.44,0
		c0.062-0.862-0.477-1.123-1.44-0.96C101.28,201.803,101.28,202.123,101.28,202.443z M294.24,205.323
		c1.454-0.043,4.113-3.268,1.92-3.84C296.386,203.628,294.165,203.328,294.24,205.323z M163.68,202.923
		c1.595,5.031,6.831,4.284,12,2.88C172.426,202.558,169.234,201.05,163.68,202.923z M102.24,203.883
		c0.526,1.714,1.646,2.833,3.36,3.359c0.141-0.979,1.299-0.941,1.44-1.92C106.001,203.525,104.381,202.234,102.24,203.883z
		 M153.12,205.323c1.776,0.363,2.224,2.445,4.32,2.88c2.337,0.485,5.523-0.822,7.68-1.439
		C163.13,203.994,156.109,201.533,153.12,205.323z M144,205.323c1.358,3.832,6.407,4.559,10.08,2.4
		C152.211,205.68,148.051,203.608,144,205.323z M133.44,207.243c2.607,3.162,6.359,3.521,11.52,2.4
		C143.745,205.554,137.197,204.894,133.44,207.243z M81.6,206.763c-5.123,2.158-7.531,7.891-8.16,13.92
		c1.792,0.279,4.437,0.07,5.76,1.92c0.661-6.379,3.379-10.701,7.2-13.92C84.488,208.228,83.297,206.048,81.6,206.763z
		 M124.8,209.643c-1.556-1.301-4.484-2.32-6.24-0.48c1.381,0.54,3.235,0.605,3.36,2.4c1.28,0,2.56,0,3.84,0
		c1.14-0.511-1.029-2.211,0.48-2.88c2.037,1.915,6.89,3.852,8.64,0.96C132.137,207.526,126.932,205.275,124.8,209.643z
		 M180.96,208.203c2.5,2.668,7.41,2.53,11.04,1.92C191.859,205.936,183.381,205.784,180.96,208.203z M291.84,209.643
		c0.546-1.055,1.605-1.595,1.92-2.88C292.407,206.981,289.877,209.033,291.84,209.643z M106.56,209.163
		c1.508,0.228,1.961-0.599,2.4-1.439C107.736,207.779,106.49,207.813,106.56,209.163z M170.4,208.683
		c0.563,1.516,2.089,2.071,2.88,3.359c2.708-0.651,7.032,0.312,8.64-1.439C178.5,207.371,174.536,207.732,170.4,208.683z
		 M159.36,210.123c1.813,2.78,8.366,4.104,11.52,1.44C168.029,208.344,164.267,208.971,159.36,210.123z M89.28,227.883
		c1.725,3.686,7.517,7.267,10.56,9.119c1.834,1.117,2.727,2.022,4.8,1.921c0.28,2.609,3.24,5.066,5.76,3.84
		c-1.734-3.621-5.865-3.062-7.2-6.24c5.391-0.107,9.194,3.921,14.4,2.4c-2.167-1.304-4.65-2.176-7.2-3.36
		c-2.106-0.979-5.625-1.814-6.24-4.32c7.43-0.574,12.355,8.944,18.72,3.36c-2.718,0.478-3.042-1.438-5.76-0.96
		c-3.088-4.112-9.367-5.033-12.48-9.12c4.617-0.093,8.917,4.171,12.48,6.72c5.225,0.744,7.686,2.579,12.96,2.4
		c-0.077-3.157-4.694-3.979-7.68-5.28c-3.862-1.683-7.965-3.844-10.08-6.24c-0.814-4.945-4.958-6.562-6.72-10.56
		c-4.584-0.474-9.096,0.643-12.96,0c-1.597-0.266-2.935-1.393-4.32-1.44c-3.147-0.107-6.475,8.363-7.2,11.521
		C83.807,223.756,85.443,226.92,89.28,227.883z M108,211.083c0.713,0.756,2.145,0.535,1.92-0.96
		C108.826,209.989,108.116,210.239,108,211.083z M150.72,210.603c1.217,4.105,5.166,3.948,9.6,2.88
		C158.924,210.19,154.921,209.928,150.72,210.603z M289.92,212.042c0.027-0.292,0.072-0.567,0.48-0.479
		c-0.055-0.586-0.144-1.137-0.96-0.96C289.516,211.167,289.357,211.965,289.92,212.042z M140.64,211.563
		c1.584,5.107,5.264,3.458,10.56,2.88C148.87,210.473,146.227,211.28,140.64,211.563z M187.2,212.523
		c1.443,1.597,3.333,2.747,5.28,3.84c0.701-0.5,3.755-1.29,6.72-0.96C196.949,211.079,192.905,211.729,187.2,212.523z
		 M131.52,212.523c1.562,2.897,6.502,4.926,9.6,2.4C138.441,212.628,136.576,211.75,131.52,212.523z M122.88,225.483
		c-3.548-4.132-6.875-8.484-10.08-12.96c-1.723-0.397-2.322,1.082-3.36,0C112.99,217.455,116.28,225.201,122.88,225.483z
		 M122.88,220.683c-2.324-2.796-1.374-8.866-7.2-8.16C117.638,215.37,120.568,219.79,122.88,220.683z M204,214.443
		c-2.012,0.092-1.483-2.356-3.84-1.92C200.343,214.117,203.223,216.43,204,214.443z M288,213.483c0.826,0.025,1.23-0.369,1.44-0.96
		C288.686,212.569,287.775,212.458,288,213.483z M123.84,214.443c1.787,2.311,4.914,3.562,8.16,1.92
		C131.349,213.024,125.872,211.668,123.84,214.443z M176.16,213.483c2.367,3.83,8.507,5.212,12,2.4
		c-1.656-0.584-2.537-1.943-3.84-2.881C180.601,213.232,179.401,213.132,176.16,213.483z M166.08,215.403
		c2.985,2.881,5.774,3.132,11.521,2.88C176.725,214.33,169.484,212.523,166.08,215.403z M284.16,218.283
		c1.621-0.269,4.218-3.142,2.4-3.84C286.271,216.233,284.354,216.397,284.16,218.283z M156.48,216.363
		c2.044,2.28,7.154,4.04,11.52,2.4C165.22,215.772,159.895,213.919,156.48,216.363z M146.4,217.323
		c2.046,2.838,7.5,3.443,11.52,2.88C156.576,215.824,150.555,215.257,146.4,217.323z M213.601,220.203
		c-1.478-1.89-5.057-4.213-8.16-2.88C207.212,219.231,209.432,220.692,213.601,220.203z M138.24,218.283
		c2.393,2.289,5.282,4.279,9.6,2.4C146.053,218.461,141.805,215.83,138.24,218.283z M195.36,217.803
		c-0.23,4.58,8.32,3.995,10.56,1.92C203.568,217.084,199.94,217.318,195.36,217.803z M129.12,219.243
		c2.709,2.473,4.2,3.687,9.6,2.88C138.186,218.062,132.291,216.653,129.12,219.243z M183.84,220.203
		c2.809,2.721,6.326,2.509,11.04,1.44C193.846,217.825,186.717,217.583,183.84,220.203z M173.28,221.163
		c0.638,0.882,2.097,2.116,3.84,2.4c1.463,0.238,6.395-0.429,6.72-1.44c-1.955-2.913-6.488-1.491-8.64-3.359
		C175.829,220.832,172.915,219.358,173.28,221.163z M127.2,223.083c0.96,0,1.92,0,2.88,0c-0.146-1.774-2.04-1.8-2.88-2.88
		C127.2,221.163,127.2,222.123,127.2,223.083z M164.16,221.163c1.224,4.216,6.718,2.827,9.6,3.36
		C172.194,220.614,167.146,220.505,164.16,221.163z M212.16,222.123c0.252,2.629,2.567,3.192,4.32,4.32
		c2.172-0.067,2.512-1.968,4.8-1.92C220.448,220.347,214.433,221.367,212.16,222.123z M153.6,222.603
		c1.518,3.574,6.803,2.646,10.56,2.88C163.477,221.271,157.383,221.092,153.6,222.603z M144.96,224.042
		c2.28,2.025,6.122,3.034,9.12,1.921C153.118,222.775,147.633,221.513,144.96,224.042z M209.76,222.603
		c-3.62-0.372-6.004,1.231-8.64,0.479c2.222,4.316,7.576,5.103,12.48,3.36C212.729,224.754,210.697,224.225,209.76,222.603z
		 M279.84,225.002c0.148-1.132,1.667-0.893,1.44-2.399C280.271,222.6,278.789,224.531,279.84,225.002z M136.32,225.002
		c1.739,2.478,6.98,2.956,9.6,1.921C144.468,224.816,138.922,221.467,136.32,225.002z M190.08,225.002
		c2.257,2.829,9.29,4.473,12.96,2.881C201.231,224.606,194.623,222.538,190.08,225.002z M128.16,225.002
		c0.817,4.38,5.592,3.67,8.64,2.881C135.594,225.487,131.839,223.355,128.16,225.002z M179.521,225.483
		c2.059,4.037,6.038,4.614,12,3.84C190.273,224.71,184.987,224.749,179.521,225.483z M277.92,226.443
		c0.826,0.025,1.23-0.369,1.44-0.96C278.534,225.458,278.13,225.852,277.92,226.443z M170.4,226.443
		c1.133,2.388,3.837,3.202,5.76,4.8c0.865-1.214,3.751-0.409,4.8-1.439C179.206,226.496,175.303,225.365,170.4,226.443z
		 M73.92,227.403c-0.248,1.715,4.305,1.099,4.8,0.48C78.063,226.814,75.093,226.47,73.92,227.403z M159.84,228.363
		c3.321,2.647,6.442,4.802,12,2.88C170.437,227.356,163.895,225.576,159.84,228.363z M151.68,229.323
		c2.51,1.464,6.129,5.382,10.08,2.4C159.545,229.462,155.161,226.252,151.68,229.323z M275.04,230.283
		c1.239,0.234,2.722-1.697,1.44-2.399C276.332,229.015,274.813,228.776,275.04,230.283z M142.08,230.283
		c3.076,2.113,6.507,3.962,11.04,3.36C151.99,229.82,145.886,227.226,142.08,230.283z M209.28,230.283
		c0.907-0.213,2.893,0.653,2.399-0.96C210.773,229.536,208.787,228.67,209.28,230.283z M82.08,234.123
		c1.715,0.537,4.872,0.539,5.76-0.96c-2.623-1.697-4.331-4.309-9.6-3.359C78.211,231.464,80.398,233.597,82.08,234.123z
		 M132.96,231.243c2.697,2.519,6.197,3.638,10.56,3.36C142.879,230.005,135.605,228.636,132.96,231.243z M198.24,230.763
		c1.24,3.617,6.768,3.977,10.08,1.92C207.173,228.91,201.991,230.07,198.24,230.763z M187.68,231.723
		c1.54,4.079,6.426,4.108,10.561,2.399C196.886,230.161,192.264,231.811,187.68,231.723z M272.16,234.123
		c1.239,0.234,2.721-1.697,1.44-2.399C273.452,232.855,271.934,232.616,272.16,234.123z M178.561,233.163
		c1.475,2.796,5.112,3.368,9.119,2.4C187,231.887,181.548,232.039,178.561,233.163z M168.48,234.123
		c0.812,3.704,6.266,2.977,10.08,2.4C177.52,233.047,172.398,233.442,168.48,234.123z M168,237.483
		c-0.765-2.755-3.858-3.182-7.68-2.88C160.133,238.085,165.183,238.571,168,237.483z M94.08,239.403
		c-0.751-3.729-4.714-4.246-9.6-3.84C86.686,238.983,89.504,240.496,94.08,239.403z M159.84,237.963
		c-1.441-2.398-4.924-2.756-9.12-2.4C151.899,239.398,156.306,239.846,159.84,237.963z M209.28,240.363
		c2.613-0.374,5.42,0.703,5.76-0.96c-2.837-1.803-4.881-4.398-10.08-3.84C205.187,238.376,208.721,237.882,209.28,240.363z
		 M269.28,237.483c1.645,0.835,2.982-2.083,0.96-1.92C270.833,237.116,268.688,235.93,269.28,237.483z M135.84,244.203
		c-0.072-4.248-3.009-5.631-4.8-8.16c-0.8,0-1.6,0-2.4,0C129.997,239.806,131.688,243.235,135.84,244.203z M150.72,238.923
		c-1.703-2.298-5.234-2.767-9.6-2.4C142.735,240.855,148.268,240.889,150.72,238.923z M194.4,237.002
		c2.149,3.969,6.318,5.535,12.479,4.32C205.555,237.05,200.036,235.495,194.4,237.002z M140.64,240.363
		c-0.208-1.888-2.793-3.904-4.8-2.399C137.351,238.965,138.285,241.62,140.64,240.363z M196.32,241.803
		c-2.319-3.132-6.268-4.937-11.04-4.32C186.908,241.715,191.694,244.417,196.32,241.803z M122.4,239.883
		c1.205,0.891,3.042,3.655,5.28,1.92C126.646,240.5,123.587,236.658,122.4,239.883z M174.24,239.883
		c3.317,2.314,7.997,6.36,12.96,2.88C184.632,240.004,178.843,236.322,174.24,239.883z M166.561,239.883
		c0.906,3.768,6.57,7.007,10.08,3.84C173.275,242.027,172.039,238.228,166.561,239.883z M110.4,241.323
		c1.489-0.05,1.37,1.511,3.36,0.96C113.659,240.901,110.772,239.549,110.4,241.323z M91.68,242.283
		c1.989,1.54,7.315,5.751,10.08,1.92C99.768,241.62,95.166,239.774,91.68,242.283z M163.2,246.123c1.781-0.458,4.55,0.07,5.28-1.439
		c-3.181-1.779-5.087-4.833-11.041-3.84C157.854,244.109,161.718,243.925,163.2,246.123z M119.04,243.243
		c1.148-0.292,3.482,0.603,3.84-0.479C122.059,242.092,118.97,240.698,119.04,243.243z M153.12,247.083
		c2.457,0.377,3.487-0.673,5.76-0.479c-1.497-3.623-4.723-5.518-10.56-4.8C148.667,244.816,151.867,244.976,153.12,247.083z
		 M212.641,243.243c3.314,2.267,5.18,3.907,11.039,2.88C222.69,242.407,215.885,240.426,212.641,243.243z M141.12,248.523
		c2.79-0.733,6.599,0.421,8.64-1.92c-2.964-1.677-4.326-4.955-10.08-3.84C139.986,244.857,139.933,247.31,141.12,248.523z
		 M202.561,244.203c1.256,1.145,3.408,1.392,3.84,3.36c3.437-0.267,4.45-0.006,7.68-0.48
		C211.911,242.568,207.058,242.5,202.561,244.203z M266.4,247.083c2.281-0.278,4.426-0.693,7.2-0.479
		C272.421,242.448,267.33,243.754,266.4,247.083z M193.44,245.163c1.626,2.968,7.866,4.605,10.56,2.4
		c-1.638-0.923-2.933-2.187-4.32-3.36C197.025,244.735,195.685,243.939,193.44,245.163z M118.08,245.643
		c1.892,3.691,6.435,5.132,12,3.84C128.084,244.827,123.662,244.678,118.08,245.643z M136.8,248.523
		c-2.173-1.827-5.53-2.47-8.16-3.84C130.16,246.85,133.409,249.826,136.8,248.523z M183.36,245.643
		c0.116,4.178,8.238,5.018,11.52,2.88C191.945,246.118,188.629,244.559,183.36,245.643z M183.84,250.443
		c-1.242-3.237-4.573-4.386-9.6-3.84C175.568,249.755,178.899,250.904,183.84,250.443z M99.36,247.563
		c2.723,4.758,6.544,5.069,12.48,3.84C110.001,247.253,105.079,246.683,99.36,247.563z M111.84,247.563
		c1.654,3.108,4.628,4.565,7.68,2.88C118.299,247.628,115.616,246.649,111.84,247.563z M175.2,251.403
		c-1.242-3.237-4.574-4.386-9.6-3.84C167.19,251.065,170.321,252.291,175.2,251.403z M226.561,247.563
		c-1.785-0.33-5.143,0.007-6.24,1.44c2.89,3.725,6.055,3.405,11.04,2.399C230.519,250.176,228.928,248,226.561,247.563z
		 M281.76,250.923c-1.762-0.638-2.597-2.203-4.319-2.881c-3.258-0.057-5.569,0.832-9.12,0.48c1.114,6.729,8.445,1.405,12,3.84
		c-2.354,0.686-5.237,0.843-7.2,1.92c3.646,2.286,9.599-0.354,13.92-0.479c-2.163-0.743-3.578-2.48-6.24-1.44
		C280.915,251.678,281.591,251.553,281.76,250.923z M156,249.483c3.071,2.604,5.508,4.438,10.561,2.88
		C165.577,249.356,159.485,246.843,156,249.483z M209.76,249.483c1.054,2.967,8.079,5.938,11.04,2.4
		C218.041,248.883,214.939,248.196,209.76,249.483z M143.52,250.443c2.753,3.423,7.443,4.637,12.96,2.88
		C155.065,248.126,148.452,249.035,143.52,250.443z M262.08,252.843c1.896,1.3,3.295-1.307,6.24-0.48
		C267.293,248.692,262.737,249.179,262.08,252.843z M200.641,250.443c1.881,2.759,4.842,4.438,10.079,3.84
		C209.593,249.595,204.95,249.878,200.641,250.443z M145.44,253.803c-3.203-0.957-3.827-4.493-9.12-3.36
		C137.628,253.04,142.449,257.381,145.44,253.803z M126.72,251.883c-0.274,3.743,7.174,5.603,11.04,2.88
		C135.434,251.509,132.182,251.254,126.72,251.883z M190.08,252.363c2.516,2.285,6.043,3.558,11.521,2.88
		C201.495,250.652,192.21,250.532,190.08,252.363z M181.44,253.323c2.297,2.183,5.809,3.151,10.08,3.36
		C190.721,253.493,184.901,250.708,181.44,253.323z M127.2,255.723c-1.88-1.487-4.966-4.305-8.64-2.4
		C120.674,255.078,124.288,258.966,127.2,255.723z M173.28,254.283c1.418,2.94,7.146,4.519,9.6,2.4
		C180.199,254.562,176.483,250.854,173.28,254.283z M107.52,254.283c2.669,3.91,6.579,4.533,12.48,3.36
		C117.788,253.719,113.236,252.758,107.52,254.283z M227.04,254.763c2.081,2.824,5.7,1.191,10.08,1.439
		C236.62,252.3,229.509,253.011,227.04,254.763z M163.2,255.243c2.414,2.621,7.143,4.525,10.56,2.4
		C171.448,254.958,167.357,252.551,163.2,255.243z M260.641,254.763c-0.75,0.689-1.671,1.209-1.92,2.399
		c3.172-0.094,9.423-1.087,13.92-1.439C271.016,251.932,264.564,256.322,260.641,254.763z M216.48,256.203
		c2.533,2.214,5.182,1.493,9.6,1.44C227.272,254.015,218.604,253.365,216.48,256.203z M255.84,256.203
		c0.069-0.566,0.855-1.088,0-1.439C255.771,255.33,254.985,255.851,255.84,256.203z M152.16,256.203
		c-0.219,3.498,9.742,5.053,11.52,1.92C161.741,254.66,155.027,255.159,152.16,256.203z M208.32,256.203
		c-0.852,2.722,6.187,3.841,8.16,1.44C214.584,255.703,210.608,255.327,208.32,256.203z M143.52,257.163
		c2.166,1.835,4.014,3.986,8.64,3.36C150.908,257.298,147.33,255.295,143.52,257.163z M197.76,257.643
		c0.734,3.59,7.187,3.161,9.601,0.96C204.126,256.082,201.655,257.125,197.76,257.643z M242.4,257.643
		c0.013,1.558,3.246,2.907,3.84,0.96C244.755,258.48,243.597,256.587,242.4,257.643z M136.32,261.483c2.781,0.235,6.81-0.35,8.16,0
		c-0.282-4.742-7.555-3.739-11.04-3.84C132.965,260.358,136.382,259.181,136.32,261.483z M189.12,258.603
		c1.104,3.119,5.027,2.333,7.68,2.88C196.848,257.603,192.407,257.842,189.12,258.603z M232.32,258.603
		c0.971,2.692,7.74,1.391,9.12,0C238.654,257.366,235.845,259.102,232.32,258.603z M133.92,261.963
		c-1.19-2.49-3.518-3.842-7.68-3.36C126.642,261.649,130.563,263.44,133.92,261.963z M180,260.042
		c1.638,2.101,6.343,2.716,8.641,1.44C187.714,258.617,181.323,258.542,180,260.042z M222.24,261.003
		c3.041,0.934,5.32,0.077,8.64-0.48C230.152,258.392,223.166,258.961,222.24,261.003z M115.2,260.523
		c2,3.188,7.495,2.975,11.52,2.88C126.443,259.385,118.58,258.288,115.2,260.523z M170.4,260.523c1.022,2.5,6.633,3.321,8.64,1.92
		C178.956,259.232,172.918,259.734,170.4,260.523z M220.8,261.003c-1.577-0.983-4.86-0.26-7.199-0.48
		C214.3,263.624,219.104,262.559,220.8,261.003z M158.4,261.483c0.608,1.632,2.266,2.214,3.84,2.88
		c2.335,0.755,5.392-1.615,5.28,0.96c-0.36,1.56-3.733,0.107-3.36,2.4c3.28,1.475,5.572-1.207,9.6-0.48
		c0.373-2.933-4.766-0.354-5.76-1.92c-0.361-1.801,1.834-1.046,1.92-2.399C167.77,259.961,162.653,261.405,158.4,261.483z
		 M203.521,262.923c2.505,0.78,5.271,0.554,7.68,0C210.823,260.219,204.321,261.51,203.521,262.923z M151.2,262.443
		c0.465,2.266,4.111,3.875,6.72,2.4C156.526,262.244,153.917,261.611,151.2,262.443z M195.36,263.883
		c2.028,1.256,3.981-0.396,6.24,0.479C201.376,261.821,196.288,261.988,195.36,263.883z M140.16,264.363
		c1.587,2.572,6.438,1.882,10.56,1.92C150.113,262.415,142.922,262.011,140.16,264.363z M192,263.403
		c-1.144,1.257-5.487-0.687-5.76,1.44c1.457,0.797,6.223,0.797,7.68,0C193.281,264.362,192.472,264.051,192,263.403z
		 M132.48,264.363c1.117,2.243,3.461,3.26,7.2,2.88C138.886,264.325,135.682,263.592,132.48,264.363z M122.4,266.283
		c2.578,2.477,6.536,2.802,10.08,1.44C131.526,264.338,124.991,264.196,122.4,266.283z M176.641,265.803
		c1.457,0.797,6.223,0.797,7.68,0C183.423,264.636,177.41,263.951,176.641,265.803z M162.24,267.723
		c-1.691-1.507-3.783-0.467-5.76-0.96C156.529,269.691,161.375,268.792,162.24,267.723z M145.92,269.163
		c2.182,0.896,7.008,0.729,8.64-0.479C152.39,267.198,147.639,267.308,145.92,269.163z M138.24,269.643
		c0.903,1.378,4.292,1.21,5.28,0C142.284,268.324,138.839,268.589,138.24,269.643z M128.64,271.083
		c2.232,1.439,5.674-0.452,7.68,0.48C136.256,268.372,129.768,269.638,128.64,271.083z"/>
	<path fill-rule="evenodd" clip-rule="evenodd" fill="#FFFFFF" d="M63.84,18.123c4.112,1.168,5.596,4.964,9.12,6.72
		c-0.079,3.726,0.397,4.624,2.4,6.72c0.016-2.564-0.253-8.22,1.92-10.08c1.977,0.376,2.463-0.737,4.32-0.48
		c2.167,1.84,1.896,9.024,0.48,11.52c3.893,3.296,10.379,2.342,15.84,1.92c2.035-0.319,4.5-3.835,5.28,0
		c-2.38,0.82-5.935,0.465-7.2,2.4c2.701,3.332,7.338-0.88,11.04,0.96c-0.472,1.768-1.713,2.767-2.4,4.32
		c-0.191,1.951,2.043,1.478,2.4,2.88c0.273,1.553-0.146,2.415-0.96,2.88c1.255,3.744-1.061,7.206,0.48,9.6
		c-1.312,2.688-1.483,6.517-2.4,9.6c-6.34,4.86-8.217,14.183-21.6,12c-5.178-3.622-9.352-8.249-14.4-12
		c-0.662-2.698-1.743-4.977-1.92-8.16c-0.462-1.742,2.157-0.403,1.92-1.92c-0.489-3.034-3.267-6.688-0.96-9.6
		c-3.29-2.982,0.938-7.005,0.96-11.04c4.791,0.059,10.105,1.988,14.4,0.96c-0.848-2.191-3.455-2.625-6.24-2.88c0-0.64,0-1.28,0-1.92
		c-2.358,0.097-3.328-2.309-6.72-2.4c-1.254-1.946-2.708-3.691-5.76-3.84c-1.184-1.536-1.257-4.183-3.84-4.32
		c-0.956-2.749-0.432-4.024-1.92-6.24C60.401,13.326,63.807,13.707,63.84,18.123z M91.2,47.883c1.889,0.769,0.167-2.073,1.44-1.92
		c3.341,1.779,6.306,1.048,10.56,0.48c0.713-1.798,0.791-1.451,0.48-3.84c-3.649-3.25-9.535-0.332-11.04,2.88
		c-0.301-3.661,2.432-4.288,2.88-7.2C91.172,39.164,90.186,44.146,91.2,47.883z M74.4,40.203c-0.958,0.375-3.545,3.191-3.36,3.84
		c0.83,2.91,8.125,2.123,12,1.44c0.774-1.976-1.543-3.501-2.4-5.28C78.75,40.754,76.012,39.571,74.4,40.203z M95.04,56.043
		c1.329-0.917,1.207-3.422-0.96-3.36C94.162,54.041,93.667,55.976,95.04,56.043z M80.64,55.563c0.908-0.108,1.059,0.541,1.92,0.48
		c-0.396-1.357,0.677-1.244,0.48-2.4C81.757,52.416,80.322,53.746,80.64,55.563z M83.52,55.083c1.339,0.42,2.371,1.149,3.84,1.44
		c0-0.64,0-1.28,0-1.92c-1.067-0.374-1.872-1.008-3.36-0.96C84.021,54.304,83.774,54.697,83.52,55.083z M93.12,54.603
		c-0.207-1.073-2.366-0.195-3.36-0.48C89.472,57.269,92.436,56.423,93.12,54.603z M90.24,60.843
		c-4.915-1.643-9.201-0.292-12.48,1.92c-0.974-1.441-4.106-0.611-3.84,1.92c1.65-0.21,2.69,0.19,3.84,0.48
		c0.396,4.884,5.774,4.786,9.6,6.24c5.552-0.848,9.09-3.709,11.52-7.68c1.191,0.071,2.33,0.089,2.4-0.96
		c-1.136,0.125-1.505-1.569-2.88-1.92c0.173,0.044-0.911,0.946-1.44,0.96c-2.498,0.064-4.437-2.883-6.24-1.44
		c0.646,1.914,3.68,1.44,4.8,2.88c-2.222,0.302-3.464-0.375-4.32-1.44c-1.509-0.145-3.849,3.174-4.8,0.48
		C86.634,60.757,90.728,63.09,90.24,60.843z"/>
	<path fill-rule="evenodd" clip-rule="evenodd" fill="#FFFFFF" d="M61.92,84.363c1.775,9.905,3.643,19.717,5.28,29.76
		c1.345,2.827,3.81,5.96,3.84,8.64c1.743-0.052,2.232-4.274,2.4-5.76c1.037-9.205,1.973-16.802,8.64-20.64
		c5.021,7.47-4.48,18.992,0,28.8c0.77-6.406,1.571-16.136,4.32-22.08c0.253,10.895-0.745,22.272,3.36,31.2
		c-2.991,7.249-11.209,9.271-18.72,12c0.663-7.745,1.862-14.869,0.96-22.08c-2.876,1.833-1.629,7.09-1.92,11.04
		c-0.369,5.006-1.566,9.834-0.96,13.44c1.028,0.559,4.417,0.159,5.28-0.96c1.887,2.219,4.984,0.304,6.72,0.479
		c4.861,8.037,13.728,14.523,23.52,18.24c3.998,6.334,3.724,13.984,6.24,21.6c-5.761,1.172-16.959,0.486-22.56,3.36
		c-1.455-0.406-3.237-0.622-4.8-0.479c-1.326,0.12-2.561,1.252-3.84,1.439c-3.418,0.501-7.34-1.2-9.6,0.96
		c-1.408-0.408,0.625-1.208,0-2.399c-4.035-0.766-5.773-3.827-9.6-4.801c-0.788-5.827-0.395-12.337,0-17.76
		c-2.645-3.822-6.189-9.29-9.12-13.92c-3.318-5.242-6.091-11.867-5.28-22.56c0.386-5.091,0.762-10.056,0.96-13.92
		c0.159-3.113,1.791-6.906-3.36-6.72c-1.779,2.208-0.351,4.167-0.48,6.72c-0.437,8.619-3.969,18.775-2.88,26.88
		c1.071,7.97,7.028,11.986,10.56,18.239c-1.682,6.05-3.484,10.864-3.36,18.721c-7.108,1.097-12.472-6.009-19.2-5.28
		c3.021,3.858,9.894,3.866,13.44,7.2c5.836-0.077,9.143,2.377,11.52,5.76c10.71,3.369,17.5,10.66,26.88,15.36
		c-6.425,4.068-8.785,9.507-9.12,19.199c-8.704-2.723-18.312-8.139-26.4-12.479c-2.131-1.144-4.778-1.736-6.72-2.88
		c-1.483-0.874-2.817-2.437-4.32-3.36c-2.837-1.745-4.005-2.242-7.2-4.8c-1.125-0.901-2.794-1.617-3.36-2.4
		c-0.954-1.321-1.517-9.127-1.92-12c-0.843-6.009-0.349-13.49-0.48-19.68c-0.118-5.557-0.198-11.422,0.48-16.32
		c0.56-4.043,2.127-7.9,2.88-11.52c1.152-5.542,2.389-11.43,2.4-16.8c0.005-2.498-0.65-4.716-0.48-7.2
		c0.542-7.917,4.183-17.308,9.12-19.2c2.227-0.854,5.111-0.971,7.68-1.92C48.637,91.297,56.839,86.239,61.92,84.363z M34.08,97.323
		c-0.826-0.026-1.23,0.37-1.44,0.96c3.498,1.942,4.313,6.566,7.68,8.64C39.652,102.311,36.213,100.47,34.08,97.323z M45.12,180.843
		c0.616-0.631,0.616-1.77,0-2.4c-0.661-0.021-1.054,0.226-1.44,0.48C43.545,180.178,43.855,180.988,45.12,180.843z M32.64,171.723
		c0.124,2.116,2.055,2.425,3.84,2.88c1.957,1.723,3.743,3.616,6.24,4.8c0.481,0.002,0.571-0.389,0.96-0.479
		C40.854,175.953,36.715,171.857,32.64,171.723z M98.4,173.643c-1.636,0.304-2.875,3.76-2.4,5.76c1.146,4.819,8.636,3.852,9.12-1.44
		C102.979,176.086,100.638,173.227,98.4,173.643z"/>
	<path fill-rule="evenodd" clip-rule="evenodd" fill="#FFFFFF" d="M320.16,170.763c0.265,1.063-0.916,0.684-0.96,1.439
		C318.342,172.345,319.17,170.34,320.16,170.763z"/>
	<path fill-rule="evenodd" clip-rule="evenodd" fill="#FFFFFF" d="M309.12,186.123c-2.01,3.751-4.624,6.896-7.2,10.08
		C302.381,192.82,306.401,188.847,309.12,186.123z"/>
	<path fill-rule="evenodd" clip-rule="evenodd" fill="#FFFFFF" d="M315.36,172.683c-20.813,28.787-42.496,56.704-64.32,84.479
		c-10.799-6.837-22.7-12.986-33.12-20.64c-1.453-1.067-4.072-1.273-3.84-3.84c10.539-6.027,21.55-12.337,32.641-18.72
		c3.579-2.061,6.851-4.93,10.56-6.24c3.913-1.383,9.112-0.83,12.96-2.4c3.316-1.353,6.736-5.083,6.24-9.6
		c10.799-6.159,21.311-13.315,32.16-19.681c1.713-1.005,4.33-1.366,5.279-3.359C314.4,172.683,314.88,172.683,315.36,172.683z
		 M241.92,222.603c0,1.28,0,2.56,0,3.84c-3.025,1.454-6.171,2.789-8.64,4.8c-1.112,0.968-3.776,0.384-3.84,2.4
		c7.062,4.617,14.215,9.145,21.6,13.439c7.846-9.273,14.506-19.734,23.521-27.84c1.787-3.973,4.687-6.833,7.68-9.6
		c0.395-3.446,3.446-4.234,3.84-7.681c-7.271,2.01-12.271,6.29-18.72,9.12c-3.034-1.174-6.511-3.543-9.601-1.92
		c-1.034,0.406,0.181,3.061-0.96,3.36c-2.559-0.318-4.276,0.203-5.279,1.44c-0.424,1.581,2.351,2.398,0.96,3.359
		c-1.896-0.907-4.146-1.502-6.24-0.96c-0.157,2.557,1.153,3.647,1.44,5.76C245.905,220.84,243.198,221.044,241.92,222.603z"/>
	<path fill-rule="evenodd" clip-rule="evenodd" fill="#FFFFFF" d="M81.12,221.643c0.725-3.157,4.053-11.628,7.2-11.521
		c1.385,0.048,2.723,1.175,4.32,1.44c3.864,0.643,8.376-0.474,12.96,0c1.762,3.998,5.906,5.614,6.72,10.56
		c2.115,2.396,6.218,4.558,10.08,6.24c2.986,1.301,7.603,2.123,7.68,5.28c-5.274,0.179-7.735-1.656-12.96-2.4
		c-3.563-2.549-7.863-6.812-12.48-6.72c3.113,4.087,9.392,5.008,12.48,9.12c2.718-0.479,3.042,1.438,5.76,0.96
		c-6.365,5.584-11.29-3.935-18.72-3.36c0.615,2.506,4.134,3.342,6.24,4.32c2.549,1.185,5.033,2.057,7.2,3.36
		c-5.206,1.521-9.009-2.508-14.4-2.4c1.335,3.179,5.466,2.619,7.2,6.24c-2.52,1.227-5.48-1.23-5.76-3.84
		c-2.073,0.102-2.965-0.804-4.8-1.921c-3.043-1.853-8.835-5.434-10.56-9.119C85.443,226.92,83.807,223.756,81.12,221.643z"/>
	<path fill-rule="evenodd" clip-rule="evenodd" fill="#FFFFFF" d="M115.68,212.523c5.826-0.706,4.875,5.364,7.2,8.16
		C120.568,219.79,117.638,215.37,115.68,212.523z"/>
	<path fill-rule="evenodd" clip-rule="evenodd" d="M86.4,62.283c0.952,2.694,3.292-0.625,4.8-0.48
		c0.855,1.064,2.098,1.742,4.32,1.44c-1.12-1.44-4.154-0.966-4.8-2.88c1.803-1.443,3.742,1.504,6.24,1.44
		c0.529-0.014,1.613-0.916,1.44-0.96c1.375,0.351,1.744,2.044,2.88,1.92c-0.071,1.049-1.209,1.031-2.4,0.96
		c-2.429,3.971-5.968,6.833-11.52,7.68c-3.826-1.454-9.204-1.356-9.6-6.24c-1.15-0.29-2.19-0.69-3.84-0.48
		c-0.266-2.531,2.867-3.361,3.84-1.92c3.279-2.212,7.565-3.562,12.48-1.92C90.728,63.09,86.634,60.757,86.4,62.283z M82.56,64.683
		c-0.58,0.102-0.295,0.533,0,0.96c2.386,0.562,7.754,1.587,9.6-0.48C90.438,64.166,85.174,64.286,82.56,64.683z M82.08,68.043
		c2.258,1.985,12.465,2.045,10.08-1.44C89.74,69.358,85.286,66.98,82.08,68.043z"/>
	<path fill-rule="evenodd" clip-rule="evenodd" fill="#FFFFFF" d="M280.8,252.363c2.662-1.04,4.077,0.697,6.24,1.44
		c-4.321,0.126-10.274,2.766-13.92,0.479c1.963-1.077,4.846-1.234,7.2-1.92c-3.555-2.435-10.886,2.889-12-3.84
		c3.551,0.352,5.862-0.537,9.12-0.48c1.723,0.678,2.558,2.243,4.319,2.881C281.591,251.553,280.915,251.678,280.8,252.363z"/>
</g>
</svg>
