<?xml version="1.0" encoding="utf-8"?>
<!-- Generator: Adobe Illustrator 22.1.0, SVG Export Plug-In . SVG Version: 6.00 Build 0)  -->
<svg version="1.1" id="Layer_1" xmlns="http://www.w3.org/2000/svg" xmlns:xlink="http://www.w3.org/1999/xlink" x="0px" y="0px"
	 viewBox="0 0 1105 904" style="enable-background:new 0 0 1105 904;" xml:space="preserve">
<style type="text/css">
	.st0{fill:none;stroke:#000000;stroke-width:3;stroke-miterlimit:10;}
</style>
<title>island-ocean</title>
<title>Layer 1</title>
<path id="svg_1" class="st0" d="M1050,385L1050,385l-1,1c-0.7,0-2.3,0-5,0c-2,0-4-2-6-6c-1.3-3.3,0-3.3,4,0
	C1046.7,382.7,1049.3,384.3,1050,385z"/>
<path id="svg_3" class="st0" d="M807,578v-2h1h1v2l1,1v1v1l2,5c0,2.7-0.3,4.3-1,5c-1.3,0.7-2.3,1-3,1h-2v1l0,0l0,0
	c-0.7,0.7-1.7,1-3,1s-2.7-1-4-3l-2-2v-1c-0.7-0.7-1-1.3-1-2v-2v-1c0-0.7-0.3-1-1-1s-1-0.3-1-1v-1h2h2l3-1c2,0,3.3,0.3,4,1s1,0.7,1,0
	S806.3,578.7,807,578z"/>
<path id="svg_5" class="st0" d="M986,520L986,520l1,6c0.7,3.3,0.7,5,0,5l0,0h-4c-2.7,0.7-5,1-7,1c-1.3,1.3-2,1-2-1
	c0.7-1.3,1.3-2,2-2c0.7-0.7,1.3-1.3,2-2c0.7-1.3,1.3-2,2-2c0.7-0.7,1.3-1.3,2-2c0-0.7,0.7-1,2-1l1-1l0,0
	C985.7,521,986,520.7,986,520z"/>
<path id="svg_7" class="st0" d="M620,643L620,643l7,1c4.7,0,7.3,0,8,0c1.3,0,3,0.3,5,1c1.3,0,2.3,0,3,0l0,0h5c3.3,0.7,5.7,1,7,1h2
	l1-1h1h1l1,1l0,0l0,0l0,0h-1v1v1h-1l0,0l-1,1l-1,1l0,0h1l0,0l0,0l-4,1l-5,1l0,0l0,0h-11c-8,0-17.7-0.3-29-1h-17l0,0v-1h4h4l1-1l1-1
	l0,0l0,0l1-1v-1h4c2.7,0,4,0,4,0l0,0h4c2-0.7,3.3-1.3,4-2S620,643,620,643z"/>
<path id="svg_8" class="st0" d="M705,640L705,640h3c2.7,0.7,4,1.3,4,2c0,1.3,0.3,2,1,2v1v1c-0.7,0-0.7,1.3,0,4c0,2.7,0,4,0,4l0,0h-5
	c-2.7,0-5.3-0.7-8-2h-3v-1l0,0v-1c-0.7,0-1-0.7-1-2c0-0.7,0.7-1.3,2-2h1l1-2c0-1.3,0.7-2,2-2C704,640.7,705,640,705,640z"/>
<path id="svg_10" class="st0" d="M931,627v-1h1h2l1,1l1,1l0,0l0,0h1l0,0v1h1l0,0v1l0,0l0,0h1l0,0v1h1l1,5c0.7,2.7,1,4.3,1,5
	c-1.3,0.7-2,2.3-2,5c0,2,0.3,4,1,6v2h-1c0,0,0,0.3,0,1l0,0h-3c-2,0-3,0.3-3,1v2l-1,2c-0.7,1.3-1,2-1,2l0,0h-1c-0.7,0-1-0.3-1-1
	s-1-1-3-1c-1.3,0.7-2,0-2-2v-2h1c0.7,0,1-0.3,1-1c-0.7-0.7-1.3-1-2-1c-0.7-0.7-1-1.3-1-2c0-1.3-1-2.7-3-4c-1.3-1.3-2.3-2-3-2l-2,1
	h-1c-0.7-0.7-1.3-1.7-2-3l-1-3l0,0l0,0v-1v-2l1-2l1-1v-1v-1h1l0,0l0,0v1l0,0h1l0,0l0,0v-1l0,0l1-1l0,0h1l0,0l0,0l0,0h1l0,0v-1h1l0,0
	v1l0,0l0,0v2v1l0,0v1l0,0l0,0h-1l0,0h1h1l0,0h1l0,0l0,0v-1l0,0h1v-1h1c1.3-0.7,2.3-2,3-4c0.7-1.3,1-2,1-2c1.3,0,2,0,2,0
	C930,627.3,930.3,627,931,627z"/>
<path id="svg_11" class="st0" d="M569,590v-9l5,4c3.3,3.3,6,4.3,8,3c1.3,0,2-0.3,2-1l0,0v-1l0,0l0,0h1v1v1v2c-0.7,0.7-1,3-1,7v6
	l-1,1v2h-1l0,0h-6h-5h-1l0,0v-1l0,0h-1l0,0v-3C568.3,600.7,568.3,596.7,569,590z"/>
<path id="svg_12" class="st0" d="M942,582v1l0,0c-0.7,0.7-2,1-4,1h-3v1l0,0h-1c-0.7,0-1.3,3-2,9c-1.3,5.3-2.7,8-4,8
	c-1.3-0.7-2-1-2-1l0,0v-1c0-0.7-1-4-3-10l-2-9l2,1c1.3,0,3.3,0,6,0s5.3,0,8,0s4,0,4,0C941.7,582,942,582,942,582z"/>
<path id="svg_13" class="st0" d="M668,583l-1-2h1c0.7,0,1,0.3,1,1s5,1,15,1c9.3,0,14,0.3,14,1c0.7,1.3,1.3,2,2,2c1.3,0.7,2,1.3,2,2
	c0,0,0.3,0,1,0h1v1c0,0.7-0.7,1-2,1c-1.3,0.7-2,0.7-2,0c0-1.3-0.7-2-2-2c-0.7,0-2,1-4,3s-3.7,2.7-5,2l-2-1v-1c-0.7-0.7-1.7-1-3-1
	c-2-0.7-3-1.7-3-3c0-0.7-0.3-1-1-1c-1.3,0.7-2.7,1.3-4,2h-4l0,0l0,0v1l0,0h-1l0,0l0,0h-1v-2C670,585.7,669.3,584.3,668,583z"/>
<path id="svg_14" class="st0" d="M1030,583l1-1l0,0h1v4c1.3,2.7,2,4.3,2,5v1h1l0,0l2-2c1.3-1.3,3-1,5,1c2.7,1.3,4,1,4-1
	c-0.7-1.3,0-2,2-2s3,0.3,3,1s0.7,1.3,2,2s3,1,5,1c1.3,0,2.3,0,3,0s1,0.7,1,2c0.7,1.3,1.3,1.3,2,0c1.3-1.3,2-2.7,2-4s0.3-2,1-2
	s1.3,1,2,3s2.3,2,5,0c2-2,3.3-3.7,4-5c0-1.3,0-2,0-2h1h1c0.7,0,1.3,3.3,2,10c0,7.3,0.3,13.3,1,18l1,8v2v1h4h5v1l0,0h-3
	c-2.7,0.7-4.7,4.7-6,12s-1.7,11.3-1,12l1,2v1c0,0.7-0.3,1-1,1l0,0l0,0c0,0-0.3,0-1,0h-1l0,0l0,0v2l-1,1v1v1l-1,1l-1,1l0,0v1l0,0l0,0
	l-1-1l-1-1l0,0l0,0v-1l0,0h-1v-1l0,0h-1v-1c0-0.7-0.3-1-1-1h-1v-2c0-0.7-0.7-1.3-2-2c0-0.7-0.7-2.7-2-6c0-2.7,0-5,0-7v-3h-2h-3v1h-1
	l0,0v1l0,0l0,0h-1l0,0v1h-1l0,0v1l0,0l0,0h-1l0,0v1h-1l0,0v1h-1h-1v8c0,6,0.3,9.3,1,10c0,0.7-0.7,1.3-2,2c-2,0-3,1.3-3,4v4l-1,2v1
	l0,0h-1v-1v-1l-1-1c-0.7-0.7-1-1.3-1-2c-0.7,0-1.3,0-2,0c0,0.7-0.7,0.7-2,0h-2l0,0v-1h-1c0-0.7-0.3-1-1-1c-1.3,0-2.3-0.7-3-2
	s-1.3-2-2-2c-0.7-0.7-1.7-1.3-3-2h-1v-1h-1v-1c0-0.7,0.3-1.3,1-2c0-0.7,0.3-1.3,1-2h2l0,0l0,0v1l0,0v-1v-1l0,0v-1h-3
	c-2,0-3.7,0.7-5,2l-2,2v1l0,0h-1v1h-1h-1v-2l1-1l0,0v-1l0,0c0,0,0.3-0.7,1-2s0.3-2-1-2h-3l0,0l0,0v-1h1l0,0v-1l0,0l0,0l0,0v-1v-1v-1
	h-1c0-0.7-0.3-1.7-1-3c-1.3-2-2.7-10-4-24l-4-22v-1v-1h2h1v-1l1-1v-1v-1h1h1l1-1h1l1,3c0.7,2,1,3,1,3v1l0,0l0,0h1l0,0v-1h1l0,0v-1
	l0,0l0,0h1l0,0l1-1c0.7,0,1.3-0.3,2-1c0-1.3,0.3-2.7,1-4l1-1l0,0v-1l0,0l0,0h1l0,0L1030,583z"/>
<path id="svg_18" class="st0" d="M1072,451v1v1v1l1,35c0.7,23.3,1,37,1,41c0,4.7-0.3,7-1,7c0-0.7,0-1,0-1l0,0h-1c0,0-0.3,1.3-1,4
	c-0.7,2-2.7,2.7-6,2c-3.3,0-4.7,0.3-4,1c0.7,1.3-0.7,3.3-4,6l-4,3l-1,1l-1,1h1h1v1v1h-1h-1l-1,1h-1v-5v-5h-1h-1v1l-1,1v3v2h-1h-1
	l-2-1l-1-1h-1h-2v-1c0-0.7,0.7-1.3,2-2c0-0.7-0.3-1-1-1c-0.7-0.7-1-1.3-1-2v-2h-2h-1v1h-1l0,0v1l0,0c0,0-1.3,1.3-4,4l-4,5l0,0v1h-2
	h-1v-1h-1v-5v-4h-1l0,0v1h-1v1c0,0.7-0.3,1.3-1,2c0,1.3-1.3,1.7-4,1l-4-1h-1h-2v1l0,0h1v1h1c1.3,0.7,2,1.3,2,2s0,1.3,0,2l0,0l0,0
	l0,0v1l0,0h-1v1h-1h-1l-1,1l-2,1h-1h-1l0,0v-1l-1-3c-0.7-2-1.7-8-3-18c-1.3-9.3-2.3-27.3-3-54v-41l0,0h1v-1l0,0l0,0l0,0h1v-1v-1l1-2
	v1v1h1l0,0l1,3c1.3,1.3,2.7,2.3,4,3c2,1.3,3.3,2,4,2h1v-2c0-2,0.3-3,1-3c0.7-0.7,1.3-1,2-1h1v1h-1l0,0v1h-1h-1h2h1h1h2v1l0,0l-1,1
	l-1,1l0,0v1l0,0c0,0-0.7,1-2,3l-2,3h-1l0,0l-1,1l-1,1l0,0h-1v1v1l3-1c2-0.7,3-1,3-1s0.3-0.3,1-1l1-1l0,0l0,0v1v1v1v1l-1,2
	c-0.7,0.7-1,1.3-1,2l0,0l-1,1l-1,1v2v1h1v-1l0,0h1l0,0l0,0v-1l0,0l1-1l1-1l0,0v-1h1h1l2-5c1.3-3.3,2.3-5,3-5v-1l3-1c1.3-1.3,2-2,2-2
	l0,0l5-2c3.3-2,5.7-4,7-6c2-1.3,3-1.3,3,0c0,2,0.7,2.7,2,2c2-1.3,3.7,0.7,5,6c1.3,4.7,2.3,7.3,3,8c1.3,0.7,2.3-1,3-5
	c1.3-4.7,2.7-7.7,4-9c2-1.3,4-1.7,6-1c1.3,0.7,2.7,2.3,4,5S1072,450.3,1072,451z M1009,468c0.7,0,1,0.3,1,1s-0.3,1-1,1s-1-0.3-1-1
	S1008.3,468,1009,468z"/>
<path id="svg_20" class="st0" d="M1090,624h3h2c1.3,0,2,0.3,2,1v1h3c2.7,0,4,0.3,4,1h1v17v17h-1c-0.7,0.7-2,1.3-4,2l-3,1v-2l1-1l0,0
	v-1l0,0c0,0,0.7-0.7,2-2c1.3-2,2-3.3,2-4c-0.7,0-1.3-0.7-2-2c0-1.3-0.7-1.7-2-1c-0.7,0.7-2.3,2-5,4l-3,4h-1v-1l0,0h-1v-2
	c0-2,0.3-3.3,1-4v-2h-1c-0.7,0-1,0.3-1,1c-0.7,0-1.7,0.3-3,1h-2l0,0l0,0h-1l0,0l0,0l0,0l1-1l2-1l0,0l0,0l-1-2c-0.7-0.7-0.3-4.7,1-12
	S1087.3,624.7,1090,624z"/>
<path id="svg_21" class="st0" d="M1050,385L1050,385v-1c0-0.7-0.3-1.3-1-2l-1-2l-1-1c-0.7-1.3-2.3-3-5-5c-3.3-2.7-3-2.7,1,0
	c4,1.3,6.7,3,8,5c1.3,1.3,1.7,2.3,1,3c0,0,0,0.7,0,2c0.7,1.3,0.7,2,0,2C1050.7,385.3,1050,385,1050,385z"/>
<path id="svg_22" class="st0" d="M702,518v-20l1,2c0.7,0.7,1,1.3,1,2v1h1v1l0,0h1v1v1l1-2v-3l1,5c0.7,3.3,0.7,5,0,5s-1,2.3-1,7
	c0.7,4,1,10.7,1,20v13l1,1l0,0h-1l0,0h-2h-1l0,0h-1v2v3l0,0l0,0l-1-9c-0.7-6-1-9-1-9l0,0V518z"/>
<path id="svg_23" class="st0" d="M952,520L952,520l2,1c0.7,0.7,1,1,1,1l0,0h-1h-1v1h1l0,0v1h2c0.7,0.7,1,1.7,1,3l-1,2l0,0
	c0,0.7-1.3,1.3-4,2l-3,1l-1,1l-1,1h-1h-1v1v1h3h3l1-1h1v1v1h-1l-1,1h-1h-1v1c-0.7,0-1.7,0.7-3,2l-3,3l0,0h-1l0,0l0,0v1l0,0v1v2l0,0
	l0,0h2c1.3,0,2,0.3,2,1s0.3,0.7,1,0s1-0.7,1,0l0,0v5c-1.3,4-2.3,6.7-3,8c-0.7,2-1.3,3.3-2,4l-1,1v1v1l0,0h-1h-1l-1-1h-1h-2h-1h-1h-2
	h-2v-1l0,0h-1v-1l0,0h1l0,0l0,0v-1l0,0l1-1c0-0.7,0.3-1.3,1-2c1.3,0,2-0.3,2-1s0.3-1,1-1h1v-1l0,0l1-1v-1h-1l-1-1l0,0h-1l0,0l0,0h-2
	h-1l0,0h-1l0,0l0,0v1l0,0l-1,1c-0.7,0.7-1.3,1.7-2,3l-1,2h-1v1l0,0h-1l0,0l0,0l-2,1h-1v-4v-4h-1l-1,1l0,0h-1l0,0l0,0v1l0,0l0,0
	c-0.7-0.7-1.3-1.7-2-3c0-2-0.7-11.3-2-28c-0.7-16-1.3-24-2-24s-0.7-2.7,0-8v-9v-1v-2h1l0,0v-1h1v2v2l1,1l1,1v1c0,1.3,0.3,2.7,1,4
	l1,1v1v2l1,2l1,1v1v1l1-12c0-7.3,0.3-11,1-11c1.3,0,4.7,4,10,12c5.3,7.3,7.7,11.3,7,12c0,1.3,0.7,2.3,2,3c2,0.7,3.7,0.3,5-1
	s1.3-1,0,1s-1,2.7,1,2s2,0.3,0,3s-2,3.7,0,3s3.3-1.7,4-3c0.7-0.7,0.7,0.7,0,4c-0.7,4-1,5.7-1,5C950.7,520.3,951.3,520,952,520z"/>
<path id="svg_24" class="st0" d="M567,584v-4h1c0.7,0,1,0.3,1,1l0,0v9c-0.7,6.7-0.7,10.7,0,12v3l2,14c0.7,9.3,1.3,14.3,2,15v2h-1h-1
	l0,0c-0.7-0.7-1-1-1-1l0,0v-1c0-0.7-0.3-1.3-1-2c-0.7,0-1.3-6.3-2-19l-1-19v-4C566,588,566.3,586,567,584z"/>
<path id="svg_27" class="st0" d="M951,444c2,1.3,1.3,2-2,2c-4-0.7-6-1.3-6-2s1-1,3-1C947.3,442.3,949,442.7,951,444z"/>
<path id="svg_28" class="st0" d="M704,554v-2h1l0,0h1h2l0,0h1l1,8c1.3,4.7,2,7.3,2,8v1v2v2l1,1l1,2l0,0v1v1v1l2,5c1.3,2.7,2,4,2,4
	c0,0.7,0.3,2,1,4l1,2v1v1h1h1l0,0l0,0l-1,1h-1v1v1l2,7c1.3,5.3,2.3,10,3,14c0.7,3.3,1.3,6.7,2,10v5h-1h-1v-1h-1l0,0l0,0l-2-1l-1-1
	l0,0h-1l0,0l0,0v-1l0,0l-1-3c-0.7-1.3-1.3-4-2-8c-0.7-3.3-2-8.3-4-15c-2-6-3.7-9-5-9h-2l-1-2v-2l0,0c0.7,0,1,0,1,0c1.3,0,2-1,2-3
	s-0.7-7.7-2-17l-2-15V554z"/>
<path id="svg_29" class="st0" d="M947,570v-2h1h1l1,1h1v2l-1,2v1v1h-2c-0.7,0.7-0.7,1.3,0,2c1.3,1.3,1.3,2.7,0,4c-1.3,0.7-2.3,1-3,1
	h-1l0,0c0-0.7-0.7-1.7-2-3l-1-2l0,0c0.7,0,1,0,1,0v-1l0,0c0,0,0-0.7,0-2v-1l0,0l0,0h1v-1l0,0h1v-1c0.7-0.7,1.3-1,2-1
	C946,570.7,946.3,570.7,947,570z"/>
<path id="svg_31" class="st0" d="M811,630h2l0,0c0,0,0.3,0.3,1,1l0,0l2,3c1.3,2.7,2.3,4.3,3,5v1h1h1l-1,1h-1v1v1h-1
	c-0.7-0.7-2-1-4-1h-2v1v1v1v1l0,0v1v1v1l0,0v1l0,0l0,0h1l0,0v1h1l0,0v1l2-1c0.7,0,1,0.7,1,2s0.3,2,1,2h1v1c0.7,0.7,0.3,2-1,4
	c-1.3,1.3-2.7,2.3-4,3s-2,0.7-2,0c-0.7-0.7-2-1-4-1l-3,1h-1v-1l0,0l0,0h-1l0,0v-1h-1v-1c0-0.7-0.7-1-2-1l-1-1l0,0h-1l0,0l0,0v-1l0,0
	v-2c0-1.3,0-3,0-5c1.3-2,2.3-3.3,3-4c1.3-0.7,2.3-2,3-4c1.3-2.7,2.7-5.3,4-8C808.7,631.3,809.7,630,811,630z"/>
<path id="svg_32" class="st0" d="M931,556L931,556h1h2l0,0l0,0h1l0,0l1,1h1v1l-1,1l0,0v1h-1c-0.7,0-1,0.3-1,1s-0.7,1-2,1
	c-0.7,0.7-1,1.3-1,2l-1,1l0,0v1l0,0l0,0h-1l0,0v1h1l0,0v1h2h2h1h1h2h1l1,1h1h1l0,0v1c0,0.7,0,1,0,1l0,0l-3,1c-2,0-2.3,0.7-1,2
	s2,2.3,2,3h1l1,2c1.3,1.3,2,2.3,2,3l0,0l0,0c0,0-0.3,0.3-1,1h-1v-1c0,0-0.3,0-1,0c0,0-1.3,0-4,0s-5.3,0-8,0s-4.7,0-6,0l-2-1v-1
	c-0.7-0.7-1.3-4.3-2-11l-1-10l0,0v-1l0,0l0,0h1l0,0l1-1h1v4v4h1l2-1l0,0l0,0h1l0,0v-1h1l1-2c0.7-1.3,1.3-2.3,2-3l1-1l0,0v-1l0,0l0,0
	H931z"/>
<path id="svg_34" class="st0" d="M939,572l3-1v1v1v1c0,1.3,0,2,0,2l0,0v1c0,0-0.3,0-1,0l0,0h-1c0-0.7-0.7-1.7-2-3S937,572,939,572z"
	/>
<path id="svg_35" class="st0" d="M660,647v-1h1l0,0l0,0h1v1v1h2h1h2h2h5c2.7,0,6,0.7,10,2c3.3,0,6.3,0.3,9,1h4l0,0v1h3
	c2.7,1.3,5.3,2,8,2h5l1,3c1.3,2,2.3,3,3,3h1l0,0c0.7,0,1.3,0,2,0h1l0,0h1v1v1h1v1v1l1,1v1v1h1v1l0,0h1l0,0v1h-2l-3-1h-3
	c-2,0-4-0.3-6-1l-4-1l0,0l0,0l-2-1c-0.7-0.7-4-1.7-10-3c-5.3-1.3-13.7-3.3-25-6l-17-4h-2h-3l0,0l0,0l5-1l4-1l0,0l0,0h-1l0,0l1-1l1-1
	l0,0h1V647z"/>
<path id="svg_36" class="st0" d="M940,654h1v4c0,2.7,0,4,0,4h-1l0,0l0,0l0,0c0-0.7-0.3-1-1-1c0-0.7-1-0.3-3,1l-2,1l0,0
	c-0.7,0.7-1,1-1,1l0,0h-1c-0.7,0-0.7-0.3,0-1v-1l0,0c0,0,0.3-0.7,1-2l1-2v-2c0-0.7,0.7-1,2-1C938,654.3,939.3,654,940,654z"/>
<path id="svg_37" class="st0" d="M1077,448L1077,448l1,8c1.3,6,2.3,9.3,3,10c1.3,1.3,2,2.3,2,3v1h-1c-0.7,0-0.7,7.3,0,22
	c0,15.3,0.7,26,2,32c0.7,6.7,1.7,10,3,10s2,0.7,2,2c0,0.7,0.3,1,1,1l2,1l-2,2c-1.3,2-2,4-2,6v2l0,0v1v2c0,1.3,0.3,2,1,2h1l-1,1
	c-0.7,0-1,0.3-1,1s0.7,1,2,1c0.7,0,1,0.3,1,1l0,0h-1h-1l3,19c1.3,12,2.3,18.7,3,20v1l1,9c0,6,0.3,10.3,1,13v4h-2h-2h-5h-4v-1v-2
	l-1-8c-0.7-4.7-1-10.7-1-18c-0.7-6.7-1.3-10-2-10h-1l0,0c0,0,0-0.3,0-1c0.7,0,0.3-5.7-1-17c-1.3-10.7-2-16.7-2-18s-0.3-2-1-2
	s-1-1.7-1-5l-1-5l0,0c0,0,0-13.7,0-41l-1-41v-1v-1l2-2C1075.3,448.7,1076.3,448,1077,448z"/>
<path id="svg_41" class="st0" d="M924,696h1l2-1c1.3-0.7,3.7-0.7,7,0c2.7,0.7,7.3,1,14,1h9l1-1h1h3c2.7,0,4,0.7,4,2s0.7,2,2,2
	c1.3,0.7,2.7,0.7,4,0c0.7-0.7,2-1,4-1h3l0,0h1l0,0l0,0v-1h1l0,0v1l0,0h1l0,0l0,0h8c5.3-1.3,8.3-2,9-2s1,0.7,1,2c0.7,1.3,1.7,2,3,2
	s2.3,0,3,0h2h1h1h2h1l4-1c3.3,0,5-0.3,5-1s0.7-1,2-1c2-0.7,3-1,3-1l0,0h5c2.7,0,4.7-0.3,6-1h3l0,0v1h1h1v-1c0-0.7,1-1,3-1
	c1.3,0,2,0.3,2,1c0.7,0.7,1.7,1.3,3,2c1.3,0,2-0.3,2-1s1-1,3-1c1.3,0.7,2.3,0.7,3,0h1l1-1c0.7,0,1.3,0.7,2,2s2.3,2.3,5,3
	c3.3,0.7,5.7,1.3,7,2s2.7,1.3,4,2c1.3,0,2.3,1.3,3,4c0,2.7,0.3,4,1,4v1l3-1c2-0.7,3.3-1,4-1c1.3-1.3,2.3-1.3,3,0c0.7,0,2.3,0,5,0
	s4-0.3,4-1c0.7-0.7,1-1,1-1h1v-3v-3h1l0,0v55v55h-1h-1v-1h-1l0,0v-1l0,0l0,0h-1l0,0l-1-1l-1-1h-1c-0.7,0-3-1.3-7-4
	c-4.7-2.7-11.7-7.3-21-14c-9.3-6-14-9.3-14-10s-6.7-5.3-20-14c-12.7-8-25.3-15.3-38-22s-26.3-12-41-16c-14.7-5.3-31-9.3-49-12
	c-17.3-2.7-34-4.7-50-6l-25-4h-2h-2l-1-1l-2-1l0,0l0,0l11,1c7.3,0.7,11.7,0.7,13,0c0.7,0,1-0.3,1-1s1.3-1.3,4-2c2,0,3.3-0.7,4-2
	c0-2,0.3-3.3,1-4c1.3,0,1.7,0,1,0c0,0-0.3-0.3-1-1l-1-1l21,2c14,0,21,0.3,21,1h1l0,0v-1l0,0l0,0h1l0,0h1h1h1h1v-1h1v-1l0,0h3
	c2,0.7,3.3,0.3,4-1c0.7-0.7,2-1,4-1c2,0.7,3,1.3,3,2C922.7,695.3,923.3,696,924,696z M853,705c0-0.7,0-1,0-1c0.7,0,1,0,1,0
	C854,704.7,853.7,705,853,705z"/>
<path id="svg_42" class="st0" d="M998,441h1l-1,1c0,1.3,0,15.3,0,42s0.7,44.7,2,54c1.3,10,2.3,16,3,18l1,3v1l0,0v2
	c0,0.7,0.7,1.3,2,2c1.3,0,1.7,0.3,1,1c-1.3,0.7-1.7,3.3-1,8s1.7,7,3,7c0.7,0,1.3,0.3,2,1c0,0.7-0.3,1-1,1c-1.3,0.7-2,1.7-2,3
	s0.3,2.3,1,3l1,2v1v1v1v1l4,22c1.3,14,2.7,22,4,24c0.7,1.3,1,2.3,1,3h1v1v1v1l0,0l0,0l0,0v1l0,0h-1v1l0,0l0,0h-1h-2v1l0,0h-1v1l0,0
	h-1l0,0l0,0v1l0,0h-1v-1l0,0h-1l0,0l0,0v-1l0,0v-3c0-2-0.3-3.7-1-5s-1-3-1-5c1.3-1.3,0-2.7-4-4l-5-2l0,0c-0.7-0.7-1-5.3-1-14
	c-1.3-9.3-2.3-16.7-3-22l-2-7v-1v-1h-1c-0.7,0-1.3-1.7-2-5v-4l0,0c0,0,0.3-0.3,1-1c0.7,0,1-1,1-3c0-1.3-0.7-3.3-2-6l-2-3l0,0
	c0,0,0-0.7,0-2s-0.3-3.7-1-7c-1.3-2.7-1.3-4,0-4c1.3,0.7,2,0.3,2-1c-0.7-1.3-1.7-3-3-5c-1.3-2.7-2.7-4.3-4-5l-3-1v-1v-1l3-1
	c2.7-0.7,3.7-1.3,3-2c0-0.7,0-1.3,0-2l0,0l0,0c0.7,0,0.7-1.7,0-5c0-3.3-0.3-5-1-5h-1v-1c0.7-0.7,1-1,1-1l0,0l0,0c0-0.7,0.7-13,2-37
	l2-37l0,0l0,0l1,1v2h1h1v1h1l0,0v-1l0,0l0,0l2-3C996.7,443,997.3,441.7,998,441z"/>
<path id="svg_43" class="st0" d="M670,624h1l1,2c0,0.7,0.3,0.7,1,0c0-1.3,0.7-2,2-2s2,0.3,2,1s0.3,1,1,1c1.3,0,2,1.3,2,4
	c0.7,2,2,2.7,4,2c2,0,3.3-0.3,4-1c0-0.7,0-1,0-1h1l1,4c0,2.7,2,4.3,6,5c4.7,0.7,7.3,1,8,1h1l0,0c0,0-1,0.7-3,2c-1.3,0-2,0.7-2,2
	l-1,2h-1c-1.3,0.7-2,1.3-2,2c0,1.3,0.3,2,1,2v1h-4c-2.7-0.7-5.7-1-9-1c-4-1.3-7.3-2-10-2h-5h-2h-2l0,0l0,0l-1-1h-1v-1l1-1l0,0v-1
	l0,0l0,0h1l0,0v-1h1l0,0v-1l0,0l0,0h2c1.3-0.7,2-1.3,2-2c0.7,0,1.3,0,2,0c1.3,0.7,2,0.3,2-1v-2v-2c0-1.3,0-2.3,0-3c0-1.3-0.7-2-2-2
	s-2-1-2-3C669.3,625,669.3,624,670,624z"/>
<path id="svg_45" class="st0" d="M706,666h2l4,1c2,0.7,4,1,6,1h3l3,1h2l0,0l0,0h1v1l6,2c4,1.3,9,2,15,2c5.3,0,8.7,0,10,0h2l2-1
	c1.3-0.7,2-1,2-1l0,0h4c3.3-0.7,5.3-0.7,6,0c0,1.3,1.7,1.7,5,1c3.3,0,5,0.3,5,1c0.7,1.3,2.3,1.7,5,1c3.3,0,5-0.3,5-1
	c0-1.3,0.3-2,1-2l0,0l4,1c2.7,0.7,5,1.3,7,2c1.3,0.7,3.3,1,6,1c3.3,0,5.3,1,6,3s2.7,3,6,3s5.7,0,7,0h2v-1l0,0h1l2-1h2h2v-1l0,0h2
	c0,0,0.7,0,2,0c1.3,0.7,2,0.7,2,0h1l7,1c4,1.3,6.7,2,8,2c2,0,3.3-0.3,4-1l0,0l0,0v1l0,0l0,0h1l0,0l5,1c4,0.7,6.7,1,8,1s3.3,0.3,6,1
	h3l0,0h1l0,0v1h2h2v1l0,0h1v1h3c2,0,3.3,0,4,0l0,0l0,0l0,0v2v1v1v1h1l1,1l0,0l0,0h1l0,0v1h1l0,0v-1h1h1l0,0v1h-1v1h-1h-1h-1h-1l0,0
	h-1l0,0l0,0v1l0,0h-1c0-0.7-7-1-21-1l-21-2l1,1c0.7,0.7,1,1,1,1c0.7,0,0.3,0-1,0c-0.7,0.7-1,2-1,4c-0.7,1.3-1.7,2.3-3,3s-3,1.3-5,2
	s-6.7,0.7-14,0l-11-1h-3c-2,0-7-1-15-3l-13-2l0,0v-1h-2h-2l-3-1c-2.7-0.7-9.7-1.7-21-3s-23.7-4.7-37-10c-12.7-4.7-19.3-7.3-20-8
	c0-1.3,0-2.3,0-3v-2h-1c-0.7-0.7-1.3-1.3-2-2s-1.3-1.3-2-2S704.7,666,706,666z"/>
<path id="svg_46" class="st0" d="M977,424L977,424h3h2l0,0l0,0l1,2c0.7,0.7,1,2,1,4v2h1l0,0v1h1l0,0v-1l1-1c0.7-0.7,1-1.7,1-3v-1
	l1,7c0.7,5.3,1,8.7,1,10v1l-2,37c-1.3,24-2,36.3-2,37l0,0h-2c-0.7,0-1-0.3-1-1c0-1.3-0.7-2-2-2s-3,2-5,6l-4,5h-1l-1,1h-1h-1v-2
	c0-1.3,0-3.3,0-6v-3h-1l-1,1l0,0l0,0l-1,2c-0.7,0.7-1,1.3-1,2c0,1.3-1.3,1.7-4,1l-5-1l0,0c0,0-0.3-0.3-1-1l-2-1v-1c0-0.7,1-3,3-7
	s3-9.7,3-17s0.3-11,1-11c0.7,0.7,1.7,1.3,3,2c1.3,1.3,1.3-0.3,0-5s-3.7-9-7-13c-2.7-4-4-6.3-4-7c0-1.3,1.7-1,5,1c2.7,1.3,4,1.3,4,0
	c0-0.7,0.7-0.7,2,0h3l1,1l2,1h1h1l1,1h1v-1v-1h-1v-1h-1h-1v-1l-1-1l0,0l0,0v-1l0,0h-1v-1l0,0c-0.7,0-2.3-1.3-5-4l-4-4v-1v-1l-1-4v-3
	l0,0v-1h3h4v1l0,0h1v1h1h1v-1h-1l0,0v-1l0,0l0,0h-1l0,0v-1c-0.7,0-1-1-1-3l-2-2v-1v-1v-2v-1l0,0v1l0,0l0,0h1l0,0v1h1l0,0v1l0,0l0,0
	h1l0,0v1h1l0,0v1h1h1v-1l0,0l-1-1l-1-1v-1v-1v-1v-1l0,0v1h1h1v1v1l1,1c0.7,0.7,1,1.3,1,2v1l1,1l1,1l0,0l0,0v1l0,0l1-3
	c0.7-2,1.3-4,2-6l1-4H977z"/>
<path id="svg_47" class="st0" d="M966,92h1h1h1v1h1l0,0v-1h2h1v1l-1,1l0,0l0,0v1l0,0h-1v1l0,0h-1l0,0l0,0v1l0,0v1c0,0.7-1.7,3.3-5,8
	c-3.3,4-5.7,7.3-7,10c-1.3,3.3-1.7,6.7-1,10c0.7,2.7,2.7,5,6,7c2.7,2,6.3,2.7,11,2s13.7-3,27-7s23.7-5.7,31-5s11.3,1,12,1
	s1.7,2.7,3,8s5.7,8.7,13,10s12.7,2.7,16,4c2.7,1.3,4.3,3.3,5,6c0.7,2,0.7,5.3,0,10c-0.7,4-1,6.7-1,8c0.7,1.3,4.7,3,12,5
	c8,2,12,13,12,33s0.3,30,1,30l0,0v68v68h-1c-1.3,0-2.7,0.3-4,1c-2,0.7-3.3,0-4-2c0-2-0.7-3-2-3s-2.7,0.3-4,1c-1.3,1.3-3.7,3-7,5
	c-3.3,1.3-5,2.3-5,3s-1.7,2.3-5,5c-2.7,2.7-6,2.7-10,0c-4-1.3-7.3-3.7-10-7c-2-3.3-5.7-6.3-11-9c-4.7-2.7-10.3-4.7-17-6
	c-6.7,0-10.3-0.7-11-2s-2.7-2-6-2c-2.7,0-4-2.7-4-8c0-4.7-1-5.7-3-3l-3,4l0,0v1h-1h-1v-1c0-0.7-0.3-1.7-1-3l-1-2l0,0l0,0h-1l0,0v-1
	h-1v3c0,2-0.3,4-1,6l-1,4l0,0l0,0v-1l0,0h-1c0-0.7-0.3-1.3-1-2v-2h-1v-1l0,0h-1v3c0,2,0,3.7,0,5v1l0,0v-1h-1h-1v-1
	c0-0.7-0.7-1.7-2-3v-1h-1v-1l0,0h-1v1c0,0.7-0.3,1.7-1,3c0,2-0.3,3-1,3l-2-1l0,0c0,0-1.7-1-5-3s-8.3-3-15-3c-7.3,0-12.7,0.7-16,2
	l-6,4l0,0l0,0h-1l0,0v1h-1l0,0v1l0,0l0,0h-1l0,0v1h-1v1v1h1v-1h1h1v-1h1l0,0v-1l0,0l0,0h1l0,0l1-1h1v1l-1,1l0,0v1l0,0l0,0h-1l0,0v1
	h-1v1v1v1v2l0,0l0,0v-1l0,0h1v-1l0,0h1l0,0l0,0v-1l0,0l2-1c0.7-1.3,1.3-2,2-2h1v-1h1l0,0v-1h1h1v1l0,0l-1,1l-1,1v1
	c0,0.7-0.3,1.7-1,3l-1,2v3v3l1-1l1-2l0,0l0,0v-1l0,0l1-1c0.7-0.7,1-1.3,1-2v-1h1v-1l0,0h1l0,0l0,0v-1l0,0h1v-1l0,0h1v1v1h-1l0,0v1
	h-1v1v1v1c0,1.3,0.7,1.7,2,1c0.7-0.7,0.7,0,0,2c0,2,1.3,3.7,4,5c3.3,1.3,5.3,2.3,6,3c1.3,0,2,0.3,2,1s0.3,1,1,1l1,1l0,0l0,0h1l0,0v1
	h1v3v2h-1l0,0l-1,1c-0.7,0.7-2.7,1.7-6,3l-4,4h-1h-1l-1,1l-1,1l0,0l0,0h-1l0,0v1h-1l0,0v1l0,0l0,0h-1l0,0h1h1h3c2,0,3.3-0.3,4-1l2-1
	h1h1l1-1h1v1v1h-1v1h-1h-1v1h-1l-1,3c-1.3,2-1.7,2.7-1,2c1.3,0,1.3,2.7,0,8s-2,9.3-2,12v5h-1h-1h-2l-1-1h-3h-2l-4-1l-4-1l0,0l0,0
	l1-1v-1h-1h-1l2-4c2-2,3-3.3,3-4v-1h1v-1l0,0h1l0,0l0,0v-1l0,0v-1v-1l0,0v1h-1h-1l-2,1l-1,1h-1c-0.7,0-2.7,1.3-6,4l-6,3l0,0v1l0,0
	l0,0l-1-1l-1-1v-1v-1l-1-1c-0.7-0.7-1-1.7-1-3l-1-1v-1c-0.7-1.3-1.3-2.7-2-4s-0.3-2,1-2h1v-1l-1-1l0,0l0,0v-1l0,0h-1v1h-1
	c-1.3,0-2.7,0.3-4,1c-0.7,0.7-2.7,0.7-6,0c-4-0.7-6-0.7-6,0c-0.7,0.7-3.3,0.7-8,0s-7.3-1-8-1c0-0.7-4.3-1.3-13-2c-8.7,0-13.7,0-15,0
	c-0.7,1.3-3,2-7,2h-6v-1h-1l0,0v-1l0,0l0,0l-1,1v1h-1c0,0-2-1.3-6-4l-6-4l0,0v-1l-1-3l-1-3l0,0l0,0v-1l0,0l-1-1l-1-1v-1v-1l-1-1v-1
	h1h1v1h1l0,0v1l0,0l0,0h1l0,0v1h1l0,0v1l0,0c0.7,0,1.3-0.3,2-1l0,0l0,0c0,0,0.3,0.3,1,1l0,0l4,1c2.7,0.7,6.7,0.3,12-1c6-2,11-5,15-9
	c5.3-4,8-6.3,8-7s1.3-1.7,4-3c3.3-0.7,8.7-0.7,16,0c6.7,0.7,11.3,0.3,14-1s4.3-2.3,5-3c0.7-1.3,1-2,1-2v-1l0,0l0,0h1l0,0v-1h1l0,0
	v-1l0,0l0,0h1l0,0v-1h1v-2v-2l-1-1v-1h-1l-1-1H692c-145.3,0-219,0.7-221,2c-2,0.7-3.3,2-4,4l-1,4h-1h-1v-2v-1h-1v-1l0,0h-1l0,0l0,0
	l-1-1c-0.7-0.7-3.3-2-8-4s-8-4-10-6l-3-3v-4v-4l0,0l0,0h1l0,0l3-2c1.3-1.3,2.7-2.3,4-3c1.3,0,2.3-0.3,3-1c0.7-1.3,2-2,4-2s2.3,0,1,0
	c-2,0-2.3-0.3-1-1l2-1h17c12,0,18-0.3,18-1l0,0l20,4c12.7,2,21.3,3,26,3c5.3,0,14-3.3,26-10s18-10.3,18-11l0,0l14-3
	c8.7-1.3,16.7-4.3,24-9c8-4.7,12.7-7.7,14-9c2-1.3,6-2,12-2c5.3,0,11.3-1.3,18-4c6.7-1.3,14-2,22-2c8,1.3,14.7,2.3,20,3
	c6,0.7,13.7,1,23,1s14.3-0.7,15-2c1.3,0,2.3-0.3,3-1l1-1l0,0l0,0h1l0,0v-1h1l0,0v-1l0,0l0,0l1-1l1-1v-1v-1l0,0v-1v-1v-1l-1-1l-1-1
	l0,0v-1l0,0l0,0h-1l0,0l-1-1c-1.3-0.7-2.7-1-4-1c-2-1.3-9-2.7-21-4l-18-4h-2h-2v-1h1l0,0v-1l0,0l0,0h1l0,0v-1h1l0,0v-1h1h1l6-4
	c3.3-1.3,5-2.3,5-3h1l0,0v-1l0,0l0,0l1-1l1-1v-2v-2l-1-1l-1-1l0,0l0,0v-1l0,0h-1v-1l0,0h-1l0,0l0,0l-2-1c-0.7-0.7-5.7-2-15-4l-14-3
	v-1h-1v-2v-2l11-20c7.3-13.3,10.3-20.3,9-21c-0.7,0-0.7-0.7,0-2s4.3-4.3,11-9s13.7-9,21-13c6.7-5.3,12-8,16-8c4-1.3,7.7-1,11,1
	s6.3,4.7,9,8s5.3,8.3,8,15s5.3,11.3,8,14s4.3,4,5,4h1h3c2-0.7,5-3.3,9-8c3.3-4,5.7-6.3,7-7c0.7-0.7,1.3-0.3,2,1s3.3,2,8,2
	s9.3-1.7,14-5c4.7-2.7,9-5.7,13-9c4-4,6-6.7,6-8c1.3-1.3,1.7-3.3,1-6s-1-4.3-1-5c-0.7-0.7-2.7-1.7-6-3c-2.7-1.3-5.7-2.3-9-3
	s-9-1-17-1h-12v-1l0,0h-1v-1h-1h-2v-1l0,0h-1v-1l0,0h1l0,0v-1v-1v-1l0,0v-1l0,0l0,0l0,0v-1l0,0v-1l0,0l0,0h1l0,0l1-1
	c0.7,0,1-0.3,1-1s5-3.7,15-9c10.7-4.7,24-9.7,40-15c16.7-4,26.7-6.7,30-8s7.3-2,12-2c5.3,0,10.3,0,15,0c4.7,1.3,11,0.7,19-2
	s13.7-4.7,17-6c3.3,0,5,0,5,0C964.7,92,965.3,92,966,92z"/>
<path id="svg_49" class="st0" d="M881,570c0.7-1.3,1.7-2,3-2c1.3,0.7,1.7,1.3,1,2c0,1.3-1,2-3,2C880.7,572.7,880.3,572,881,570z"/>
<path id="svg_51" class="st0" d="M658,574L658,574L658,574L658,574v1l0,0h1v-1l0,0h1l0,0l0,0v-1l0,0h1v-1l0,0h1l0,0l0,0h2h1l0,0h1
	l-2,2c-1.3,1.3-1,2.7,1,4c2,0,2.7,0.3,2,1c-0.7,0-1,0.3-1,1s0.3,1,1,1l0,0l0,0c0,0.7,0.3,1,1,1l0,0l1,2c0.7,0.7,1,1.7,1,3v2h1l0,0v1
	h-1l0,0l0,0l0,0c0,0-0.3-0.3-1-1c0-0.7-0.3-1-1-1c-1.3,0-2.7,1.3-4,4c-1.3,2-2.3,3-3,3s-1,0.3-1,1v1h-1v1h-1h-1l0,0c-0.7,0-1-1-1-3
	c-0.7-2-1.3-2.7-2-2c0,0.7-1.7,1.3-5,2l-4,1l0,0h-1l0,0l0,0v-2v-1h1v-1l0,0h1l0,0l0,0v-1l0,0l1-1c0.7-1.3,1-2.3,1-3s-0.7-1-2-1h-1
	l0,0c0,0,0-0.7,0-2v-1l0,0c0-0.7,0.3-1.3,1-2l1-2l0,0c0.7,0,1-0.3,1-1l0,0l0,0l0,0h1l0,0v-1h1l0,0v-1l0,0l0,0v-1v-1l0,0l0,0l1-1h1
	l2,1c0.7,0,1.3-0.7,2-2c0-0.7,0.3-0.7,1,0C657.7,573.3,658,574,658,574z"/>
<path id="svg_52" class="st0" d="M643,588l2-2h1c1.3,0,2,0.3,2,1s-0.3,1.7-1,3l-1,1l0,0v1l0,0l0,0l-1,1v1l0,0c-0.7,0-1,0.3-1,1v1
	l0,0h-1v-1h-1l0,0v-1l0,0l0,0h-1l0,0v-1h-1v-1v-1h1C641,590.3,641.7,589.3,643,588z"/>
<path id="svg_56" class="st0" d="M256,321L256,321L256,321v1l0,0l0,0h1l0,0l1,1h1l0,0v1l0,0h1l0,0l0,0v1l0,0h1v1l0,0h1l0,0l0,0v1
	l0,0h1v1l0,0h1l0,0l0,0v1l0,0l4,5c2.7,2.7,4.3,4,5,4v1l0,0c0,0.7,0.3,1,1,1l0,0l0,0c0,0,0,0.3,0,1h1l5,12c4,8,6.7,16.3,8,25
	c1.3,8,2.3,12.3,3,13v1l25-2c17.3-1.3,29.3-2,36-2c6,0,12.3-1.7,19-5s12.3-4.7,17-4c4,0.7,7.3,1.7,10,3c2,1.3,7.3,2,16,2
	s13.3-1,14-3c0-1.3,5-3.3,15-6c10-3.3,15.3-5,16-5h1l1-1l1-1l0,0l0,0h1l0,0v-1h1v-1l0,0l0,0c0,0,0.3,0,1,0v-1l1-3c1.3-2.7,3-4,5-4
	c2-1.3,75.7-2,221-2h217l1,1h1v1l1,1v2v2h-1v1l0,0h-1l0,0l0,0v1l0,0h-1v1l0,0h-1l0,0l0,0v1c0,0-0.3,0.7-1,2c-0.7,0.7-2.3,1.7-5,3
	s-7.3,1.7-14,1c-7.3-0.7-12.7-0.7-16,0c-2.7,1.3-4,2.3-4,3s-2.7,3-8,7c-4,4-9,7-15,9c-5.3,1.3-9.3,1.7-12,1l-4-1l0,0
	c-0.7-0.7-1-1-1-1l0,0v-1c0-0.7,0-1.3,0-2c0-1.3-1-2.7-3-4c-2.7-1.3-6.3-2-11-2s-9.3,0.7-14,2c-4,2.7-7,5-9,7c-2,2.7-3.7,6-5,10
	l-2,6l0,0v1h-2h-2v-1c0,0-0.3-0.3-1-1c-0.7,0-3-1.3-7-4s-8.7-4-14-4s-10,1.3-14,4l-6,4l0,0l0,0h-1l0,0v1h-1l0,0v1l0,0l0,0h-1l0,0v1
	h-1v1v1h-1v1l0,0h-1l0,0l0,0h1h1l0,0l0,0l1-1l1-1l0,0l0,0l2-2c0.7,0,1.3-0.3,2-1l1-1l0,0h1l0,0l0,0h2h1l0,0h-1l0,0l0,0v1l0,0h-1v1
	l0,0h-1l0,0l0,0l-1,1c-0.7,0-1,0.3-1,1l-1,2l0,0h-1l0,0l0,0v1l0,0l-1,1l-1,1l0,0v1h1h1v-1v-1h1l0,0v-1h1l0,0v-1h2c0.7-1.3,1-2,1-2h1
	l0,0l0,0l1-1l1-1h2h1v1h-1l0,0v1l0,0l0,0l-1,1c-0.7,0.7-1,1.7-1,3v1v1v2v-1v-1l1-1l1-1l1-1c0.7-0.7,1-1.3,1-2l0,0h1v-1l0,0h1l0,0
	l0,0l1-1h1v3c0,2,0.3,3,1,3c0,0.7,0.3,1,1,1h2h2c0.7,0,1,0,1,0h1v-2v-3h1v-1l0,0h1v2v1v2v2l0,0v-1l0,0l0,0h1l0,0v-1h1v1v2h-2h-2
	l-2,1c-0.7,0.7-2,1.3-4,2c-2.7,0.7-5.7,2.7-9,6s-5.7,7.3-7,12l-3,7v2v3h-4c-2.7-0.7-6.3-1-11-1h-6v-1v-1h-1h-1v-1l0,0l2-3
	c1.3-1.3,2.3-2.3,3-3l1-1v-1v-1h1l0,0h-1h-1h-1h-1l-1,1l-1,1h-1c-1.3,0-3.3,1.3-6,4l-4,2l-1,1h-1v-1c0-0.7-0.7-2-2-4
	c-0.7-1.3-1.3-2-2-2h-1v-1h-1l0,0v-1h-1h-1v-1l0,0v2v2l1,5c0.7,2.7,1.3,4.7,2,6v3h-4l-4-1l0,0h-1l0,0c0,0-2.3-1.3-7-4s-8.3-4.3-11-5
	l-5-1v1h-1v1v1l1,2v2h-2l-2,1l0,0h-1l0,0l0,0l1,1l1,1h4c2,0.7,3,1.3,3,2c0,1.3,1,2,3,2c2.7,0,4,0.3,4,1s0.7,1,2,1c0.7,0,1.7,0.3,3,1
	l2,1h1h1v2v1h1l1,1l0,0h1l0,0l0,0v1l0,0h1v1h-3h-2h-6c-4.7,0-8,0.3-10,1l-3,1v1h-1l0,0v1l0,0l0,0h-1l0,0v1h-1l0,0v1l0,0l0,0h-1l0,0
	l-1,1l-1,1l0,0h-1v1v1h2h3l2-1c1.3-0.7,3-1,5-1h2h4h3l0,0h1v1v1h-1h-1l-2,1l-2,1l-3,2c-2,1.3-3.7,4.7-5,10c-2.7,4.7-4,8.7-4,12v6h1
	h1v-1l0,0l1-1l1-1l0,0v-1l0,0l0,0h1l0,0v-1h1l0,0v-1l2-2c1.3-1.3,2.3-1.7,3-1s1.7-0.3,3-3c0.7-2.7,1.7-4,3-4h2v-1l1-1l0,0l0,0v-1
	l0,0h1v-1l0,0h1v-1v-1l1,7v7h1h1v-1l1-1v-2v-3l1-1l1-1v13v12l1-1l1-1v-2v-2l1-2c0.7-0.7,1.3-2.7,2-6l1-4l1-2l1-1v-1v-2h1h1v1l0,0
	l1,1l1,1v1l0,0v20v21v7c0,5.3-0.3,8.3-1,9s-2.3,2-5,4s-6,3.7-10,5c-4.7,1.3-8.7,2-12,2c-2.7,0-4,0.3-4,1s-1.7,1-5,1l-4,1v1l-1,1l0,0
	v1l0,0l0,0h-1l0,0v1h-1l0,0v1l0,0l0,0l0,0c0,0-0.3-0.7-1-2c-0.7-0.7-1-0.7-1,0c-0.7,1.3-1.3,2-2,2l-2-1l0,0v-1h-2h-1h-2
	c-1.3,0-4-0.7-8-2c-3.3-1.3-9-4.7-17-10c-7.3-5.3-13.3-9.3-18-12s-7-4.3-7-5c-0.7-0.7-4.7-3.3-12-8s-13.7-7-19-7
	c-4.7,0-12,3.7-22,11c-10.7,6.7-18,11.7-22,15c-4.7,2.7-8.3,5.7-11,9c-3.3,2.7-5.7,4.3-7,5c-1.3,1.3-5.3,2-12,2c-6,0-12.7,0-20,0
	l-10-1l0,0l-1-1h-1h-1v-1h-1l0,0v-1h-2c-1.3,0-2.3-0.3-3-1s-3.7-3.7-9-9s-9.7-9-13-11s-7.3-3.3-12-4s-8-0.3-10,1c-2,0-5.7,2.7-11,8
	c-5.3,4-13,8.7-23,14s-17.3,8-22,8c-4.7,1.3-8,1.3-10,0s-4.3-4-7-8c-3.3-5.3-7-11.3-11-18c-3.3-6.7-7-10.7-11-12s-7.3-1.3-10,0
	s-5,3.7-7,7s-4.7,7-8,11s-6.3,6.3-9,7c-3.3,0.7-9-1-17-5c-8-2.7-15.7-4.3-23-5c-6.7-0.7-14-0.3-22,1c-7.3,1.3-13.3,2-18,2
	c-5.3,0-9.3-1-12-3c-3.3-2-6.7-3-10-3c-4,0-10.7,1.3-20,4c-10,2.7-18.7,6-26,10c-8,5.3-15,8-21,8s-19.7-4-41-12
	c-20.7-8-32.7-12-36-12c-4,0-9,2.7-15,8s-9.7,8.7-11,10l-3,1v1v1H4H3v-1l-1-1l0,0v1l0,0l0,0H1l0,0l-1,1l0,0v-75v-76l0,0l0,0l1-1l1-1
	l0,0c0,0,1.7-0.3,5-1s21.7-1,55-1c34,0,52-1,54-3c1.3-2,3.3-8.7,6-20c1.3-11.3,3.3-20.3,6-27s6-13,10-19s9-11.3,15-16l8-7l9-5
	c6.7-3.3,12.3-5.3,17-6s11.7-1,21-1s16.3,0.7,21,2s9.7,3.3,15,6s8.7,4.7,10,6C254.7,320,255.3,320.3,256,321z M830,389
	c0-0.7,0.3-1,1-1s1,0.3,1,1s-0.3,1-1,1S830,389.7,830,389z"/>
<path id="svg_57" class="st0" d="M823,503l1-1h2h1v2v2h3h2v1v1h-1l0,0l-1,1l-1,1l0,0h-1l0,0c0,0-0.3,0.3-1,1c-0.7,0-1,0.3-1,1
	c0,1.3-1,2.7-3,4l-3,3h-1v1l0,0h-1l0,0l0,0l-1,1l-1,1l0,0l0,0v1v1v1v1h-1l0,0h1h1l0,0h1l0,0l0,0l1-1l1-1h2c1.3-1.3,3.3-2,6-2h3l1,1
	l1,1h1h2v1l0,0h1v1l0,0h1l0,0l0,0l-2,1l-2,1h-3c-2,0-3.7,0.3-5,1l-1,1h-1h-1l5,3c3.3,2,6,4,8,6c1.3,2.7,2.3,4.3,3,5l0,0l0,0
	c0,0,0.3,0.3,1,1l0,0v1c0,1.3,0.3,2.3,1,3l1,1v2v1h-1l-1-1h-1h-1v-1l0,0h-1c0-0.7-0.3-1-1-1c0,0-1-0.3-3-1l-3-1l0,0l0,0h-1l0,0v-1
	h-1l0,0v-1h-1h-1v1l0,0l1,1l1,1l0,0v1l0,0l0,0h1l0,0v1h1l0,0v-1l0,0l0,0l1,1v1l3,1c1.3,0.7,2.3,1.7,3,3c0.7,0.7,1,1.3,1,2v1h1v1h1
	l0,0v1c0,0.7-0.3,1-1,1c-0.7-0.7-1-0.3-1,1s-0.3,2-1,2l0,0l0,0c-0.7,0-1.3-0.7-2-2c-0.7-0.7-1.3-0.3-2,1c-0.7,2-1,2-1,0l-2-3l0,0v-1
	l0,0l0,0l-1,2l-1,1l0,0v1h-2h-1v2l1,1l0,0v1l0,0l0,0l2,4c1.3,3.3,2,7.3,2,12v6v1v1l0,0c-0.7,0-2.7,0.3-6,1c-3.3,0-5.3,0.7-6,2
	c-0.7,2-1.3,2.3-2,1c-1.3-1.3-2.3-2-3-2h-1v1l0,0h-1v1l0,0h-1l0,0l0,0v1l0,0l-1-1v-1h-1h-2v-1v-1l0,0v-1h2c0.7,0,1.7-0.3,3-1
	c0.7-0.7,1-2.3,1-5l-2-5v-1v-1l-1-1v-2h-1h-1v2c-0.7,0.7-1,1.3-1,2s-0.3,0.7-1,0s-2-1-4-1l-3,1h-2h-2l0,0h-1v-1h-1v-1v-1l-1-2
	c-0.7-1.3-1-3-1-5c0-1.3,0.7-2.3,2-3c0-0.7,0-1.3,0-2c-0.7-0.7-1-1.3-1-2c0.7-0.7,0.7-1,0-1s-1.3-1.3-2-4c-0.7-2-0.3-3.3,1-4
	c0.7,0,1-0.7,1-2c0-2-0.3-3-1-3c-1.3,0-2-4-2-12v-12v-1c0-1.3,0.7-2,2-2c1.3-0.7,2-1.3,2-2c0-1.3-0.3-2.7-1-4l-1-2l-1-1v-1h1h2h2h1
	l1,1l2,1h2c1.3,0,2-0.7,2-2c0-2,0.3-3.3,1-4l1-1v-1v-1h1h1v7v6h1l0,0v1h1l0,0v-1h2h1v-1h1l0,0v-1l0,0l0,0l5-6c3.3-4,5-6,5-6l0,0
	L823,503z M821,584v3l1,1c1.3,0,2,0,2,0c1.3,0,2,0.3,2,1v1h-1l0,0h-3h-2l0,0l0,0l-1-2c-0.7-1.3-1.3-3.3-2-6l-1-5v-5
	c1.3-3.3,2-4.3,2-3c0.7,2,1.3,3,2,3s1,0.7,1,2s0.3,1.7,1,1c0.7,0,0.7,0.7,0,2c-0.7,0.7-0.3,1,1,1c2-0.7,2.7-0.7,2,0c0,1.3-0.7,2-2,2
	C821.7,580.7,821,582,821,584z"/>
<path id="svg_58" class="st0" d="M990,562v1l2,3c1.3,2.7,2,4.7,2,6c0,2-0.3,3-1,3c-0.7,0.7-1,1-1,1l0,0l0,0c0,0-0.3,0.7-1,2l-1,1v1
	v2h-1h-1l-1-1h-1v-5c0-2.7-1-5.7-3-9c-1.3-3.3-1.3-5.7,0-7c0.7-0.7,1.7-0.7,3,0c0,1.3,0.3,1.7,1,1c0-0.7,0.3-1,1-1
	S989.3,560.7,990,562z"/>
<path id="svg_61" class="st0" d="M1104,593h1v17v17h-1c0-0.7-1.3-1-4-1h-3v-1c0-0.7-0.7-1-2-1h-2l0,0v-1h2h2v-4c-0.7-2.7-1-7-1-13
	l-1-9l3-1c1.3,0,2.3-0.3,3-1c0-0.7,0.3-1,1-1S1103.3,593.7,1104,593z"/>
<path id="svg_62" class="st0" d="M596,556h2v2c0,0.7-0.3,1.3-1,2c-0.7,0-1,0.3-1,1s0.3,1.3,1,2s1.7,1,3,1h1v1v1h-1c-0.7,0-1-0.3-1-1
	h-1v1v1h-2c-1.3,0.7-2,1.3-2,2c0,1.3-0.3,2.7-1,4c-0.7,0.7-1.3,1-2,1c-0.7-0.7-1.3-1.3-2-2h-2v2l1,2v2v2h1v1h-1l-1,1h-1h-1v2v2l0,0
	l0,0l-1,1l0,0l0,0l0,0l-1-4c-0.7-2.7-1-4.3-1-5c-0.7,0-2,0-4,0c-1.3,0.7-2,0.3-2-1s-0.7-2-2-2c-1.3,0.7-2.3,0.3-3-1s-1.3-2-2-2l-2,1
	v-3v-2h-1h-1v-1c-0.7-0.7-1-1-1-1s-0.7,0-2,0c-1.3,1.3-2.3,1.3-3,0c-0.7-0.7-1.3-2-2-4c0-1.3-0.7-2-2-2s-2-0.3-2-1s-0.3-1-1-1h-1h-1
	h-1l0,0h1l0,0l0,0l1-1c0.7-0.7,1.7-1.3,3-2s1.7-1.3,1-2s-1-1.7-1-3l-1-2h3c2,0.7,3,0.7,3,0s1-0.7,3,0c2,0,4-0.7,6-2
	c1.3-1.3,3-1.7,5-1s4.7,2.7,8,6s6,5,8,5s3.3,0,4,0S594.7,556,596,556z"/>
<path id="svg_63" class="st0" d="M418,579h1v1c0,1.3,0.3,2,1,2h1v1h-1l0,0v1l0,0l0,0v1v1v1v1v1v1l0,0l0,0l0,0h1l0,0h1l0,0l0,0v-1
	l0,0h1h1l0,0c0,0.7,0,1,0,1h1h1c0.7,0.7,1.7,2.7,3,6c2,4,3,6,3,6s0,0.3,0,1h1v1v2h-4c-2.7,0-9.7,1-21,3l-18,3h-2h-3v1h-1v1l0,0h-1
	c-0.7,0-3.3,0-8,0s-15,0.7-31,2l-24,1h-11c-7.3-0.7-60.3-1-159-1H3H2H1H0l0,0v-5v-5l0,0l0,0h1l0,0h19c12.7,0,19-0.7,19-2
	c0-2,3-3.3,9-4c6.7,0,12.3,0.3,17,1s9.3,1,14,1s7-0.3,7-1s10.7-1.3,32-2s35.3-2,42-4s12.7-2.7,18-2s10.7,2.3,16,5
	c6,2.7,14.7,3.7,26,3c12-0.7,20.7-2,26-4s10.7-3,16-3c4.7,1.3,9.3,2.7,14,4s14,2,28,2c13.3,0,23.3,0,30,0h10l2-1l3-1h-1h-1v-1v-1h-1
	c-0.7,0-1.3-0.3-2-1l-2-1h-1h-1v-1l0,0h-1v-1h19c12,0,19-0.7,21-2c2,0,8.3-0.3,19-1s16.7-1.7,18-3c1.3-2,1.7-3.7,1-5
	C417,579.7,417.3,579,418,579z"/>
<path id="svg_64" class="st0" d="M786,526h1l1-1l0,0v12c0,8,0.7,12,2,12c0.7,0,1,1,1,3c0,1.3-0.3,2-1,2c-1.3,0.7-1.7,2-1,4
	c0.7,2.7,1.3,4,2,4s0.7,0.3,0,1c0,0.7,0.3,1.3,1,2c0,0.7,0,1.3,0,2c-1.3,0.7-2,1.7-2,3c0,2,0.3,3.7,1,5l1,2v1v1h1v1h1l0,0v1
	c0,0.7,0.3,1,1,1s1,0.3,1,1v1v2c0,0.7,0.3,1.3,1,2v1v2c-0.7,1.3,0.3,6.3,3,15c1.3,8,2.3,12.7,3,14v2h-2h-2v1h-1l0,0v1l0,0l0,0h-1
	l0,0v1h-1l0,0l0,0h-1l-1,1l0,0l0,0h-1l0,0v-1h-1v-1v-2l-1-2c-0.7-1.3-1.7-5.3-3-12l-2-9v-3c0-1.3-0.7-3.7-2-7c0-3.3-0.7-5-2-5
	c-0.7,0.7-1,0.7-1,0s0.3-1,1-1s0.7-1,0-3c0-1.3-0.3-2-1-2h-1l0,0c0-0.7-0.3-1-1-1l0,0v-1l0,0v-2v-2l0,0c0.7,0,1,0,1,0s0-1.7,0-5
	c0-4-0.3-6-1-6h-1l0,0c0-0.7,0.3-2.3,1-5c0.7-3.3,0.3-6-1-8l-2-2l0,0c0,0,0.3,0,1,0s1.7-1.7,3-5c0.7-3.3,0.7-5,0-5h-1l0,0
	c0,0,0.3-0.3,1-1l0,0l0,0c0,0,0.3-0.3,1-1l0,0h1c0.7,0,1-0.3,1-1l1-1l0,0l0,0v-1l0,0l1-2C785.7,527.7,786,526.7,786,526z"/>
<path id="svg_66" class="st0" d="M584,586L584,586L584,586c-0.7,0-0.7,0.3,0,1l0,0l0,0c0,0.7-0.7,1-2,1c-2,1.3-4.7,0.3-8-3l-5-4l0,0
	c0-0.7-0.3-1-1-1h-1v-1l-1-1l0,0c0,0,0-0.3,0-1l0,0l0,0l0,0l1-2v-2l2-1c0.7,0,1.3,0.7,2,2s1.7,1.7,3,1c1.3,0,2,0.7,2,2s0.7,1.7,2,1
	c2,0,3.3,1,4,3C583.3,583.7,584,585.3,584,586z"/>
<path id="svg_67" class="st0" d="M620,643L620,643L620,643c0,0-0.3,0.3-1,1s-2,1.3-4,2h-4v-2c0-2,1.7-3.3,5-4c2.7,0,4.3,0,5,0
	s1,0.3,1,1s-0.3,1-1,1S620,642.3,620,643z"/>
<path id="svg_68" class="st0" d="M828,391L828,391L828,391c0,0,0.3,0.3,1,1l0,0l0,0c0,0-0.3,0-1,0h-2v-1l0,0h-1v-1l0,0h-1l0,0l0,0
	v-1l0,0h-1v-1h-1h-1v1l1,1v1v1l1,1l1,1l0,0v1v1c0,1.3-0.7,1-2-1s-2-2.3-2-1c0,0.7-0.7,1-2,1l0,0l-1,2l-1,2v1v1h4c2.7,0.7,4.3,1,5,1
	h1l6,4c4,2.7,6,4,6,4h1v1l1,1v1c1.3,0.7,2,1.3,2,2v1l1,1l1,1v1v1h-1l0,0v-1h-1l0,0v-1l0,0l0,0h-1l0,0v-1h-1l0,0v-1l0,0
	c0,0-0.7-0.7-2-2l-2-1l0,0v-1l0,0l0,0h-1l0,0l-1-1h-1v1c0.7,1.3,1,3,1,5v3l-1-2l-1-1v-1c0-1.3-0.3-2.3-1-3l-1-1l0,0l0,0l-1,2
	c-0.7,2-1,2.7-1,2c-1.3-1.3-2-1.3-2,0v3h-2l-1-1h-1h-1l-1-1c-0.7,0-1-1.3-1-4l-1-4l0,0v-1l0,0l0,0l-1,4l-1,3l0,0v-1l0,0l0,0h-1
	c0,0-0.3-0.7-1-2c-0.7,0-1,0.7-1,2v2h-1h-2v-1c0-0.7-0.7-1.3-2-2l-2-1v1c0,0,0.3,0.3,1,1s0.3,1-1,1l-2,1v-1l0,0h-1v-1h-1h-1v1h1l0,0
	v1l0,0l0,0h1l0,0v1h1l0,0v1l0,0l0,0h1l0,0v1h1l8,3c5.3,2,9.3,4.3,12,7s4.7,6.3,6,11c2.7,5.3,3.7,10,3,14c-0.7,3.3-1,5.3-1,6
	c0,1.3-0.3,2.7-1,4l-1,1v1v1h-1v1l0,0h-1v1v1h-1l0,0v1h-1l0,0v1l0,0l0,0h-1l0,0v1h-1v-1v-1h1v-1l0,0h1l0,0l0,0v-1l0,0l1-1l1-2v-2v-1
	l-1,1c-0.7,0.7-1.7,1.3-3,2h-2l0,0l0,0l1-1l1-1v-1c0-0.7-0.3-1-1-1s-1-0.3-1-1s-1-1-3-1s-3-0.3-3-1c0.7-0.7,0.7-1.3,0-2v-1v-1l0,0
	l1-3c0-2.7,0.7-4.3,2-5l2-1l0,0h1v-2v-1h-1c0,0.7-0.3,1-1,1c-1.3,1.3-2,1.3-2,0v-2l0,0v-1l-1-1v-1h-5c-2.7,0.7-4.3,1-5,1
	s-2.3,0.3-5,1c-2,0-2.7,0.3-2,1c0,1.3,0,2,0,2c-0.7,0.7-1,1.3-1,2c0,1.3-0.3,2-1,2s-1.3,1-2,3v2h-1v1l0,0h-1v-1c0-0.7-0.7-1.7-2-3
	c0-1.3-0.3-1.7-1-1l-1,1l0,0l0,0h-1l0,0v-1h-1l0,0v-1l0,0l0,0l-1,2v1h-1v1h-1c-0.7,0.7-1.3,2-2,4l-1,3l0,0v1h-1h-1v-1
	c0-0.7-0.7-1.3-2-2c-0.7-0.7-2-0.3-4,1l-2,2h-1h-1v-4c0-2,0.3-3.3,1-4v-1h-1l-2,1l0,0c0,0-0.7,0.7-2,2l-2,1v-1v-1h-1v1h-1h-1v-4
	c0.7-2,1.3-4,2-6l2-4l0,0h1l0,0l0,0v-1l0,0h1v-1h-3c-1.3,0-2.3,0.3-3,1h-1v-1c0-1.3,0.7-2.7,2-4v-1h1v-1l0,0h1v-1v-1h-1h-1h-1h-1
	l0,0l0,0l-1-1v-1h-1h-1v4l-1,4l0,0c0,0-0.3-0.7-1-2s-1-1-1,1v3h-1l0,0v-1h-1l0,0v-1l0,0l0,0h-1c0,0-0.3-0.3-1-1l-1-1l0,0h-1v1v1h1
	l0,0v1h1v1c0,0.7,0.3,1.3,1,2c0.7,0,1,0.7,1,2v1v1v1l-1,1l-1,1l0,0v1l0,0l0,0h-1l0,0v-1h-1v-1c0-0.7-0.7-1.3-2-2c-0.7,0-0.7,0.7,0,2
	c0,1.3,0,2,0,2c-0.7,0.7-1.3,0.3-2-1l-1-1v-1h-1v1v1l1,1c0.7,1.3,1,2.7,1,4v1h1v1h-1h-1v-1h-1l0,0v-1l0,0l0,0h-1l0,0v-1l-1-1v-2v-1
	l-1,1l-1,1l0,0l0,0v-1c0-0.7-0.7-1.3-2-2h-1l3-7c1.3-4.7,3.7-8.7,7-12s6.3-5.3,9-6c2-0.7,3.3-1.3,4-2l2-1h2h2v-2v-1h-1v1l0,0h-1l0,0
	l0,0v1l0,0l-1-2l-1-2v1v2h-1c0,0-0.3,0-1,0h-2h-2c-0.7,0-1-0.3-1-1c-0.7,0-1-1-1-3v-3h-1l-1,1l0,0l0,0h-1l0,0v1h-1l0,0
	c0,0.7-0.3,1.3-1,2l-1,1l-1,1l-1,1v1v1v-2v-1v-1c0-1.3,0.3-2.3,1-3l1-1l0,0l0,0v-1l0,0h1v-1h-1h-2l-1,1l-1,1l0,0l0,0h-1
	c0,0-0.3,0.7-1,2h-2v1l0,0h-1v1l0,0h-1v1v1h-1h-1v-1l0,0l1-1l1-1l0,0v-1l0,0l0,0h1l0,0l1-2c0-0.7,0.3-1,1-1l1-1l0,0l0,0h1l0,0v-1h1
	l0,0v-1l0,0l0,0h1l0,0h-1h-2l0,0l0,0h-1l0,0l-1,1c-0.7,0.7-1.3,1-2,1l-2,2l0,0l0,0l-1,1l-1,1l0,0l0,0h-1h-1l0,0l0,0h1l0,0v-1h1v-1
	v-1h1v-1l0,0h1l0,0l0,0v-1l0,0h1v-1l0,0h1l0,0l0,0l6-4c4-2.7,8.7-4,14-4s10,1.3,14,4s6.3,4,7,4c0.7,0.7,1,1,1,1v1h2h2v-1l0,0l2-6
	c1.3-4,3-7.3,5-10c2-2,5-4.3,9-7c4.7-1.3,9.3-2,14-2s8.7,1,12,3c4,2,6,3.3,6,4s-0.7,1-2,1s-2,0-2,0S828,390.3,828,391z M763,411v-1
	l0,0h1l0,0C764,410.7,763.7,411,763,411z"/>
<path id="svg_69" class="st0" d="M580,315h2l0,0c0,0.7-6,4.3-18,11s-20.7,10-26,10c-4.7,0-13.3-1-26-3l-20-4h-2c-1.3-0.7-7-2-17-4
	l-15-3v-1c0-0.7-1-1-3-1s-6-0.7-12-2l-9-1l0,0v-1h-2h-1l0,0l0,0l1-1l1-1l25-1c16-0.7,38-1,66-1c28.7,0,42.7,0.3,42,1c0,0.7,2,1,6,1
	C576.7,314,579.3,314.3,580,315z"/>
<path id="svg_71" class="st0" d="M422,318h7l7,1c5.3,0.7,8.7,1.3,10,2s3.7,1,7,1h5l15,3c10,2,15.7,3.3,17,4h2l0,0c0,0.7-6,1-18,1
	h-17l-2,1c-1.3,0.7-0.3,1,3,1c2.7,0,2.3,0-1,0s-5.3,0.7-6,2c-0.7,0.7-1.7,1-3,1c-1.3,0.7-2.7,1.7-4,3l-3,2l0,0h-1l0,0l0,0l0,0
	c-0.7,0-2,0.7-4,2s-26.3,2.3-73,3s-71.7,1-75,1c-2.7,0-5.3-0.7-8-2l-5-3v-1c-0.7,0-1,0-1,0l0,0l0,0c0-0.7-0.3-1-1-1l0,0v-1
	c-0.7,0-2.3-1.3-5-4l-4-5l0,0v-1l0,0l0,0h-1l0,0v-1h-1l0,0v-1l0,0l0,0h-1l0,0v-1h-1l0,0v-1l0,0l0,0h-1l0,0v-1l0,0h3l2,1l0,0h1v-1h1
	l0,0v1h2c2,0,3-0.3,3-1s21-1,63-1c41.3-0.7,65.3-1.3,72-2C412,318.7,417.3,318,422,318z"/>
<path id="svg_72" class="st0" d="M694,439v-2l0,0v1h1h1v1l0,0h1v1h1c0.7,0,1.3,0.7,2,2c1.3,2,2,3.3,2,4v1h1l1-1l4-2
	c2.7-2.7,4.7-4,6-4h1l1-1l1-1h1h1h1h1l0,0h-1v1v1l-1,1c-0.7,0.7-1.7,1.7-3,3l-2,3l0,0v1h1h1v1v1h6c4.7,0,8.3,0.3,11,1h4v-3v-2h1
	c1.3,0.7,2,1.3,2,2v1v1v1h1v1h1h1l0,0c0,0-0.3,0.3-1,1l-1,1l0,0h-1l1,4c0,3.3,1,5.7,3,7c2.7,2,4,3,4,3l0,0h1l0,0v1h1l0,0v1l0,0l0,0
	h1l0,0l1,1h1v1v1h-1l-1-1h-2h-2l-3-1c-1.3,0-2,0.3-2,1c0,1.3-0.7,1.7-2,1l-1-1l0,0h-1l0,0l0,0l-2-1l-1-1h-1h-1v1l1,1v1v1h1h1l1,1
	c0.7,0,1.7,1,3,3c1.3,2.7,2.3,4.3,3,5l1,1l0,0l0,0v1l0,0l1,1l1,1v1v2v2v1l0,0v-1l0,0l0,0h-1l0,0v-1h-1l0,0v-1h-1h-1v-1l0,0h-1v-1
	l0,0h-1l0,0c0,0-1.3-1-4-3l-3-3l0,0h-1l0,0l0,0v-1l0,0h-1v-1h-1h-1l-2-1h-2v1l1,1v1v1h1v1l0,0h1v1c0,0.7,0.3,1,1,1l0,0v1h1v1v1h1v1
	h-1c-0.7,0-1.3-0.7-2-2l-2-2l0,0l0,0v1v1l2,6c1.3,4,2,6.7,2,8v3v3v2l0,0l0,0v1l0,0h-1v-1l0,0h-1l0,0l0,0v-1l0,0h-1
	c0-0.7-0.7-1.3-2-2l-1-2l-1-1v-1h-1h-1v3c-0.7,2-1,3.3-1,4v2l-1-2l-1-1l0,0v-1h-2h-1v-2c-0.7-1.3-1-3.7-1-7c-1.3-3.3-2-4.7-2-4
	s-0.7,1-2,1h-2v-1v-1v-2v-2l0,0l0,0v-1l0,0l-1,6v6v3l-1,2v-1v-1h-1l0,0v-1h-1v-1c0-0.7-0.3-1.3-1-2l-1-2l0,0v-1l-1-1l-1-1l0,0v-1h-1
	h-1v2v1l-1,1l-1,2l-1,4c-0.7,3.3-1.3,5.3-2,6l-1,2v2v2l-1,1l-1,1v-12v-13l-1,1l-1,1v3v2l-1,1v1h-1h-1v-7l-1-7v1v1h-1l0,0v1h-1l0,0v1
	l0,0l0,0l-1,1v1h-2c-1.3,0-2.3,1.3-3,4c-1.3,2.7-2.3,3.7-3,3s-1.7-0.3-3,1l-2,2v1l0,0h-1v1l0,0h-1l0,0l0,0v1l0,0l-1,1l-1,1l0,0v1h-1
	h-1v-6c0-3.3,1.3-7.3,4-12c1.3-5.3,3-8.7,5-10l3-2l2-1l2-1h1h1v-1v-1h-1l0,0h-3h-4h-2c-2,0-3.7,0.3-5,1l-2,1h-3h-2v-1v-1h1l0,0l1-1
	l1-1l0,0h1l0,0l0,0v-1l0,0h1v-1l0,0h1l0,0l0,0v-1l0,0h1v-1l3-1c2-0.7,5.3-1,10-1h6h2h3v-1h-1l0,0v-1l0,0l0,0h-1l0,0l-1-1h-1v-1v-2
	h-1h-1l-2-1c-1.3-0.7-2.3-1-3-1c-1.3,0-2-0.3-2-1s-1.3-1-4-1c-2,0-3-0.7-3-2c0-0.7-1-1.3-3-2h-4l-1-1l-1-1l0,0l0,0h1l0,0l2-1h2v-2
	l-1-2v-1v-1h1v-1l5,1c2.7,0.7,6.3,2.3,11,5s7,4,7,4l0,0h1l0,0l4,1h4v-3c-0.7-1.3-1.3-3.3-2-6l-1-5V439z M738,461l-2-1h-2
	c-0.7,0-2.3-0.3-5-1s-3.7-1-3-1h1l5-2c3.3-1.3,5.3-0.7,6,2C738.7,460,738.7,461,738,461z"/>
<path id="svg_73" class="st0" d="M900,630l3-4h2c1.3,0,2,0.7,2,2c0.7,2,1,3,1,3l0,0l0,0l0,0h1v1l0,0h1l1,1c0.7,0.7,1.3,0.3,2-1
	s1.3-2,2-2h1v1l0,0v1c-0.7,0-1,0.3-1,1l0,0l0,0h-1v1v1l-1,1l-1,2v2v1l-1,3c-0.7,2.7-1,4.7-1,6v2h-1c-0.7,0-1-0.3-1-1s-0.7-1-2-1
	c-1.3-0.7-2-0.7-2,0v1h-1v1l0,0l0,0h-3h-2l-1,1h-1l0,0h-1l0,0v-1l0,0h1l0,0l0,0v-1l0,0v-1v-1v-3c0-2,0.3-4.7,1-8
	C897.7,635.3,898.7,632.7,900,630z"/>
<path id="svg_75" class="st0" d="M679,611l1-1h2h2l1,1l1,1l0,0l0,0l1,1l1,1l0,0l0,0v1l0,0l2,3c0,2.7,0,4.3,0,5s-0.3,2-1,4v3h-1
	c0,0,0,0.3,0,1c-0.7,0.7-2,1-4,1c-2,0.7-3.3,0-4-2c0-2.7-0.7-4-2-4c-0.7,0-1-0.3-1-1s-0.7-1-2-1s-2,0.7-2,2c-0.7,0.7-1,0.7-1,0l-1-2
	v-1c0.7-0.7,1-1.7,1-3v-1l0,0l0,0h1v-1h2c1.3,0,2.3-1.3,3-4C678,612,678.3,611,679,611z"/>
<path id="svg_76" class="st0" d="M1099,553h1v1l0,0v2v3l1,1v2h2h2v16v15h-1c-0.7,0.7-1.3,1-2,1s-1,0.3-1,1c-0.7,0.7-1.7,1-3,1l-3,1
	v-1c-0.7-1.3-1.7-8-3-20l-3-19h1h1l0,0h1l0,0v1h1h1l2,1c0.7,0,1.3-1,2-3C1098,554,1098.3,553,1099,553z"/>
<path id="svg_78" class="st0" d="M1088,551v-2l4,1c2.7,0,4,0.3,4,1h1v1c-0.7,0-2,0-4,0l-3,1h-1C1088.3,553,1088,552.3,1088,551z"/>
<path id="svg_79" class="st0" d="M910,491l1-3l1-1l0,0v9c-0.7,5.3-0.7,8,0,8s1.3,8,2,24c1.3,16.7,2,26,2,28c0.7,1.3,1.3,2.3,2,3l0,0
	l1,10c0.7,6.7,1.3,10.3,2,11v1l2,9c2,6,3,9.3,3,10v1l1,6c0.7,4,1.3,7.3,2,10l1,4v1l0,0h-1l0,0l-1,1l-2,1h-1h-1v1l0,0h-1v1l0,0h-1
	l0,0l0,0h-1h-1l0,0l0,0v-2v-2h-1h-1l0,0c0-0.7-1-5.3-3-14l-3-14l0,0l0,0v-1l0,0v-3v-2v-2c0-2-0.3-4.7-1-8s-2-5-4-5l-3,1l0,0l0,0
	l-1-1v-1h3c2,0,3-0.7,3-2s-0.3-2-1-2s-1-0.3-1-1c0.7-0.7,1-2,1-4s-0.3-3-1-3h-1l0,0c0,0,0.3-0.3,1-1c0.7,0,0.7-9.7,0-29l-1-30v-1
	c0-0.7,0.3-1.3,1-2l1-1v-1C908,494.3,908.7,493,910,491z"/>
<path id="svg_80" class="st0" d="M0,616h1h1h1h147c98.7,0,151.7,0.3,159,1h11l0,0c0,0.7-1.3,1-4,1c-2,1.3-2.7,2-2,2
	c1.3,1.3-0.7,2.3-6,3c-4.7,0.7-6.7,1.3-6,2s0,1-2,1l-4,2h-2h-2l-2,1l-1,1h1h1l3,1l3,1l47,9c32,6,54.7,10.7,68,14c14,3.3,21.3,5,22,5
	h2l0,0l0,0l2,1l3,1l25,6c17.3,4,26.3,6.3,27,7l1,1h2h1l3,1l2,1l0,0l0,0h-2h-2l-1,1l-1,1h-1h-1l-3,1c-2,0.7-4,1-6,1s-30.3,0.3-85,1
	s-96.3,1-125,1c-28.7,1.3-43.3,2-44,2s-5.7,0-15,0c-8.7,0-19.3,0-32,0s-19.3,0-20,0s-3.3,0-8,0c-5.3,0-32-0.3-80-1s-72.7-1-74-1H1
	v-1l-1-1l0,0l0,0v-33V616L0,616z"/>
<path id="svg_82" class="st0" d="M426,316h5h1h2v1l0,0h-2c-2,0.7-3,1-3,1l0,0h-7c-4.7,0-9.3,0.3-14,1c-5.3,0.7-8,1.3-8,2s-0.3,1-1,1
	s-1-0.3-1-1s-0.3-1-1-1c-0.7,0.7-21.7,1.3-63,2c-42,0-63,0.3-63,1s-1,1-3,1h-2v-1l0,0h-1v1h-1l0,0l-2-1h-3h-1l-1-1l0,0h-1l0,0l0,0
	v-1l0,0l0,0v-1h2h1v-1v-1h1h1h2c2,0,4-0.3,6-1c2.7-0.7,25.7-1,69-1c44,0,66-0.3,66-1s0.3-1,1-1s1,0.3,1,1c0.7,0.7,3.3,1,8,1
	C418,316,422,316,426,316z"/>
<path id="svg_85" class="st0" d="M383,614h1h3h3l31,7c20.7,4.7,31.7,7.3,33,8h2l2,3c2,1.3,3.3,2.3,4,3l1,1l4,1c2.7,0.7,4.3,1.3,5,2
	c0,0.7,1,1.3,3,2s3,1.3,3,2c0.7,0.7,1.3,1,2,1c1.3,0,1.7,0,1,0s0,0.3,2,1c2,0,3,0.3,3,1c1.3,0.7,2,1,2,1v1l0,0l0,0h1l0,0l1,1l1,1h1
	l0,0v2v1h1v1h-2h-2v1v1h-1h-2l-2-1c-1.3-0.7-4.3-1-9-1s-11.3,1-20,3l-13,3h-3h-3h-2c-0.7,0-8-1.7-22-5c-13.3-3.3-36-8-68-14l-47-9
	l-3-1l-3-1h-1h-1l1-1l2-1h2h2l4-2c2,0,2.7-0.3,2-1s1.3-1.3,6-2c5.3-0.7,7.3-1.7,6-3c-0.7,0,0-0.7,2-2c2.7,0,4-0.3,4-1l0,0l24-1
	c16-1.3,26.3-2,31-2S382.3,614,383,614z"/>
<path id="svg_86" class="st0" d="M647,572h2h1h2v1l0,0h-1l-1,1l0,0l0,0v1v1l0,0l0,0v1l0,0h-1v1l0,0h-1l0,0l0,0l0,0h-1v1l0,0h-1v1h-2
	c-0.7,0-4.3-0.3-11-1l-10-1h-1c0,0,0,0.3,0,1l0,0l0,0c0,0-0.3,0.3-1,1c0,0.7-0.3,1-1,1c-1.3,0.7-1.7,1.7-1,3s-0.7,2-4,2l-5,1l0,0
	l-1-1l0,0c-0.7,0-1.7-0.7-3-2c-1.3-0.7-1.7-2-1-4l1-2v-1v-1l0,0l0,0l-2,1l-1,1h-1c-0.7,0-2,0.3-4,1s-3.3,1.3-4,2c0,0.7-0.3,1-1,1h-1
	v1l0,0h-1v1h-1h-1v-2v-1v-1h-1v-2v-2l-1-2v-2h2c0.7,0.7,1.3,1.3,2,2c0.7,0,1.3-0.3,2-1c0.7-1.3,1-2.7,1-4c0-0.7,0.7-1.3,2-2h2v-1v-1
	v-1l0,0l0,0c0,0-0.3-0.3-1-1s-1-1.3-1-2s0.3-1,1-1c0.7-0.7,1-1.3,1-2v-2h-2c-1.3,0-2.3,0-3,0s-2,0-4,0s-4.7-1.7-8-5s-6-5.3-8-6
	s-3.7-0.3-5,1c-2,1.3-4,2-6,2c-2-0.7-3-0.7-3,0s-1,0.7-3,0h-3l1,2c0,1.3,0.3,2.3,1,3s0.3,1.3-1,2s-2.3,1.3-3,2l-1,1l0,0l0,0h-1l0,0
	h1h1h1c0.7,0,1,0.3,1,1s0.7,1,2,1s2,0.7,2,2c0.7,2,1.3,3.3,2,4c0.7,1.3,1.7,1.3,3,0c1.3,0,2,0,2,0s0.3,0.3,1,1v1h1h1v2v3v2l-1,2l0,0
	l0,0l0,0l-1-1l0,0h-1l0,0l0,0l-1-1c-0.7-0.7-2.3-1-5-1c-2-0.7-2.7,0-2,2c0,1.3-0.7,2-2,2l-2,1h-2c-1.3,0.7-2.7,1-4,1
	c-0.7,0-1,0.7-1,2v1v1l0,0l0,0c-0.7,0-1,0.3-1,1s-0.7,0.7-2,0l-2-1h-1c-0.7,0-1.7,0.3-3,1c-2,0-3.3,0.3-4,1c0,1.3-0.3,3-1,5
	s-1.3,3-2,3c-0.7-1.3-2.3-1.7-5-1c-2,0.7-4,1-6,1s-3.3-0.7-4-2l-2-2l0,0l0,0l-1,1h-1h-2c-0.7,0-1-1-1-3c-0.7-2.7-1.3-4.7-2-6
	c-1.3-1.3-3.3-1.3-6,0l-4,1v-1c-0.7,0-1,0-1,0c-0.7,0-2,0-4,0c-1.3,0-5.3-0.3-12-1l-11-1l0,0c0,0-3-0.3-9-1c-6.7-0.7-10.7-1.3-12-2
	l-3-1l0,0c0,0-0.3,0-1,0h-2h-1c-0.7,0.7-1,1.3-1,2v1h-2l-1-1h-3h-2l0,0l0,0l1-1l1-1h1h1l1-1l1-1h1h1l5-1c3.3-0.7,5-1,5-1
	c0.7,0,2,0,4,0h4l0,0h1v-1h1l0,0v-1h1h1h2h1l0,0h-1l0,0l0,0v-1l0,0l10,1c7.3,0,14,0,20,0c6.7,0,10.7-0.7,12-2c1.3-0.7,3.7-2.3,7-5
	c2.7-3.3,6.3-6.3,11-9c4-3.3,11.3-8.3,22-15c10-7.3,17.3-11,22-11c5.3,0,11.7,2.3,19,7s11.3,7.3,12,8c0,0.7,2.3,2.3,7,5
	s10.7,6.7,18,12c8,5.3,13.7,8.7,17,10C643,571.3,645.7,572,647,572z"/>
<path id="svg_87" class="st0" d="M687,591v1h-1c0,0-0.3,0.3-1,1s-2,1.3-4,2s-3,1.7-3,3s-1.7,2.3-5,3l-5,1l0,0h-1h-1
	c-0.7,0-1-0.7-1-2c0.7-0.7,1.7-2,3-4c1.3-1.3,2-2.7,2-4v-2l0,0l0,0h1v-1l0,0h1l0,0v-1l0,0l0,0h4c1.3-0.7,2.7-1.3,4-2
	c0.7,0,1,0.3,1,1c0,1.3,1,2.3,3,3C685.3,590,686.3,590.3,687,591z"/>
<path id="svg_88" class="st0" d="M1034,555l1-1h2c0.7,0.7,1,1.7,1,3c0,0.7-0.7,1.3-2,2l-2,1h-1c-0.7,0-1.3,0.3-2,1c-0.7,0-1-0.7-1-2
	s0.7-2.3,2-3C1033.3,556,1034,555.7,1034,555z"/>
<path id="svg_90" class="st0" d="M528,639h1l11,2c6.7,0.7,10.3,1.3,11,2l1,1h1h1l0,0l0,0l1,1l1,1l8,2c5.3,1.3,10,2,14,2
	c4.7,0,8,0.3,10,1h4h17c11.3,0.7,21,1,29,1h11h3h2l17,4c11.3,2.7,19.7,4.7,25,6c6,1.3,9.3,2.3,10,3l2,1l0,0l0,0h-2
	c-1.3,0-1.7,0.3-1,1s1.3,1.3,2,2s1.3,1.3,2,2h1v2c0,0.7,0,1.7,0,3c0.7,0.7,7.3,3.3,20,8c13.3,5.3,25.7,8.7,37,10s18.3,2.3,21,3l3,1
	h2h2v1l0,0h-14c-9.3,0.7-18,1-26,1s-17-1.3-27-4s-18-4.7-24-6s-10-2.7-12-4c-1.3-2-4-3.3-8-4c-3.3,0-5.3-0.3-6-1c-1.3-0.7-3-1.3-5-2
	c-2.7-0.7-5-1-7-1c-1.3,0-2,0-2,0c0-0.7-2.7-1.7-8-3c-6-0.7-21.3-1.7-46-3c-24.7,0-39.3-0.7-44-2s-10-3-16-5c-6.7-2-14.7-4-24-6
	l-14-3v-1l0,0v-1c0-1.3,0.7-2.3,2-3c2-0.7,2.3-1.3,1-2c-0.7-1.3-1.7-2.3-3-3h-1v-1h-1l0,0v-1l0,0l0,0h-1l0,0v-1h1l0,0v-1h2h3l6-2
	C525,640,527.3,639.7,528,639z"/>
<path id="svg_92" class="st0" d="M0,363v-51l5,1c3.3,0.7,28,1.3,74,2s70.3,1,73,1c2,1.3,4,2,6,2s3,0,3,0l0,0l-8,7
	c-6,4.7-11,10-15,16s-7.3,12.3-10,19s-4.7,15.7-6,27c-2.7,11.3-4.7,18-6,20c-2,2-20,3-54,3c-33.3,0-51.7,0.3-55,1s-5,1-5,1l0,0l-1,1
	l-1,1l0,0l0,0V363z"/>
<path id="svg_94" class="st0" d="M797,591v-2l2,2c1.3,2,2.7,3,4,3s2.3-0.3,3-1l0,0v1v1h2h1v1l1,1l0,0v-1l0,0l0,0h1l0,0v-1h1l0,0v-1
	h1c0.7,0,1.7,0.7,3,2c0.7,1.3,1.3,1,2-1c0.7-1.3,2.7-2,6-2c3.3-0.7,5.3-1,6-1l0,0v2c0,0.7,0.7,1,2,1h2h2l1,1l0,0h1l0,0l0,0h30
	c19.3,0,30,0,32,0s4,0,6,0c1.3,0,2.3,0,3,0h1v-1l0,0h1v-1h1l0,0l3,14c2,8.7,3,13.3,3,14l0,0h-2c-1.3,0-2.7,0.3-4,1
	c-0.7,0.7-1.3,2-2,4l-2,3l0,0l0,0v1l0,0l0,0c0,0-0.3-1-1-3c0-1.3-0.7-2-2-2h-2l-3,4c-1.3,2.7-2.3,5.3-3,8c-0.7,3.3-1,6-1,8v3v1v1
	l0,0v1l0,0l0,0h-1l0,0v1l0,0h-1v1l0,0l0,0h-1l0,0l-1,1h-1v-3v-3h-1h-1v1l-1,1l0,0v1l0,0l0,0h-1l0,0v1h-1v-1v-2h-1l0,0v-1h1v-1v-2v-4
	c0-2.7,0.7-4.7,2-6c1.3-0.7,2-1.3,2-2l1-2h1h1v-1l-1-1l0,0l0,0v-1l0,0h-1v-1h-1h-1l-3-1l-2-1h-2h-1l-3,1c-2,0.7-3.3,1-4,1l-2,1v1v2
	l0,0c0,0-0.7,0.7-2,2c0,2,0,3.3,0,4c0,1.3-1.7,2-5,2s-5,0.3-5,1s-1,0.7-3,0l-3-1l-1-1h-1v1v1v1v2v2v2h2c0.7,0,1,0.7,1,2
	c-0.7,0.7-1,1-1,1v1l0,0l0,0l0,0h-1v1l0,0h-1v1l0,0l0,0l0,0h-1v1l0,0v1v1h-1c-0.7,0-1-1-1-3c0-1.3-0.3-2-1-2s-1.3,1-2,3l-2,2l0,0
	c-0.7,0.7-2,1-4,1c-2.7,0-4.7,0-6,0c-2-1.3-4-2-6-2s-3.7,0.3-5,1c-0.7,0-1-1-1-3c0.7-1.3,0.3-1.3-1,0l-2,1h-1c-0.7,0-1-0.7-1-2
	s-0.3-2-1-2l-2,1v-1l0,0h-1v-1l0,0h-1l0,0l0,0v-1l0,0v-1v-1v-1l0,0v-1v-1v-1v-1h2c2,0,3.3,0.3,4,1h1v-1v-1h1l1-1h-1h-1v-1
	c-0.7-0.7-1.7-2.3-3-5l-2-3v-1c0,0-0.3,0-1,0l0,0l0,0c0,0-0.3-0.3-1-1s-1-1.3-1-2c0.7-0.7-0.7-1.7-4-3l-4-2v-2c-0.7-1.3-1.7-6-3-14
	C797.3,597.3,796.3,592.3,797,591z"/>
<path id="svg_95" class="st0" d="M702,546v-7l0,0c0,0,0.3,3,1,9l1,9l0,0l0,0l2,15c1.3,9.3,2,15,2,17s-0.7,3-2,3c0,0-0.3,0-1,0l0,0
	v-2c-0.7-1.3-1-2-1-2l0,0l0,0c-0.7,0-1,0.3-1,1l0,0h-1c0,0.7,0,1,0,1l0,0l0,0c0,0,0-0.7,0-2c0-0.7-0.7-1.3-2-2c-0.7,0-1.3-0.7-2-2
	c0-0.7-5-1.3-15-2h-15l0,0c0-0.7-0.3-1-1-1l0,0l0,0c-0.7,0-1-0.3-1-1s0.3-1,1-1c0.7-0.7,0-1-2-1c-2-1.3-2.3-2.7-1-4l2-2h-1l0,0h-1
	h-2l0,0l0,0h-1l0,0v1h-1l0,0v1l0,0l0,0h-1l0,0v1h-1l0,0v-1l0,0l0,0l0,0l0,0v-1l0,0h1v-1l0,0h1l0,0l0,0v-1l0,0l1-1v-1l4-1
	c3.3,0,5-0.3,5-1s1.3-1,4-1c3.3,0,7.3-0.7,12-2c4-1.3,7.3-3,10-5s4.3-3.3,5-4S702,551.3,702,546z"/>
<path id="svg_96" class="st0" d="M474,624h1h11c7.3,0,19.7,2,37,6s26.3,6,27,6c1.3,0,2.7,0,4,0h2h1h1v1l0,0l1,1l0,0v2v2h-1h-2l-1,1
	l-1,1l0,0l0,0h-1h-1l-1-1c-0.7-0.7-4.3-1.3-11-2l-11-2l0,0c0-0.7-1-1-3-1c-1.3,0-2-0.3-2-1s-1-1.3-3-2s-7-1.7-15-3l-13-3l0,0v-1h-3
	h-2l-2-1l-2-1h-2c-2,0-4-0.3-6-1L474,624L474,624z"/>
<path id="svg_98" class="st0" d="M497,679l1-1h2h2l17,6c11.3,4,17.7,6.7,19,8c0.7,0,1,0.3,1,1h1l0,0v1l0,0l0,0h1l0,0v1h1l0,0v1l0,0
	l0,0h1l0,0v1h1v1v1h-1v1l0,0h-1l0,0l0,0v1l0,0h-1v1l0,0h-1l0,0l0,0l-1,1c-0.7,0.7-4.3,2.3-11,5c-7.3,2.7-25.3,7.3-54,14
	c-28,6.7-47,12-57,16l-15,4l-1,1l-1,1l0,0l0,0h-1l0,0v1h-1v2v2h1l1,1l0,0l0,0h1l0,0l8,4c6,2,9.7,3.3,11,4c2.7,1.3,4,2.3,4,3
	s1,1.7,3,3c2,2,3,3.3,3,4v2l1,3l1,3v1v1h-1h-1v-1v-1h-1c-0.7,0-1.7,0-3,0s-72,0.3-212,1S4,778.3,4,779s-0.7,1-2,1l-1-1v1l-1,1l0,0
	l0,0v-49v-50l0,0l0,0l1,1v1h1c1.3,0,26,0.3,74,1s74.7,1,80,1c4.7,0,7.3,0,8,0s7.3,0,20,0s23.3,0,32,0c9.3,0,14.3,0,15,0
	s15.3-0.7,44-2c28.7,0,70.3-0.3,125-1s83-1,85-1s4-0.3,6-1l3-1h1h1L497,679z"/>
<path id="svg_99" class="st0" d="M458,632l-2-3l3,1c2,0,6.3,0,13,0s12-0.3,16-1h5l13,3c8,1.3,13,2.3,15,3s3,1.3,3,2s0.7,1,2,1
	c2,0,3,0.3,3,1l0,0h-1c-0.7,0.7-3,1-7,1l-6,2h-3h-2v1l0,0h-1v1l0,0h1l0,0l0,0v1l0,0h1v1h1c1.3,0.7,2.3,1.7,3,3c1.3,0.7,1,1.3-1,2
	c-1.3,0.7-2,1.7-2,3v1h-2c-1.3-0.7-4.7-1.7-10-3l-8-2l0,0h-1l-1-1l-1-1l0,0h-1l0,0l0,0v-1c0,0-1.3-0.3-4-1c-2.7-1.3-3.7-2-3-2
	s0.3,0-1,0c-0.7,0-1.3-0.3-2-1c0-0.7-1-1.3-3-2s-3-1.3-3-2c-0.7-0.7-2.3-1.3-5-2l-4-1l-1-1C461.3,634.3,460,633.3,458,632z M485,644
	c0.7,0,1,0,1,0l0,0C485.3,644,485,644,485,644z"/>
<path id="svg_102" class="st0" d="M1026,434c0-3.3,0.7-4.7,2-4c1.3,0,1.7,0.3,1,1s-0.3,1,1,1c1.3,0.7,1,2-1,4
	C1027,437.3,1026,436.7,1026,434z"/>
<path id="svg_103" class="st0" d="M778,574l1-2v2v2l0,0c0.7,0,1,0.3,1,1v1l0,0c-0.7,0-1.3,0.3-2,1l-1,1h-1c-1.3,0-2-0.3-2-1l0,0v-2
	c0-1.3,0.3-2.3,1-3c0-1.3,0.3-2,1-2s1,0.7,1,2C777.7,574.7,778,574.7,778,574z"/>
<path id="svg_104" class="st0" d="M570,635L570,635L570,635c0,0,0.3,0.3,1,1l0,0l0,0l0,0l4,2c2.7,0.7,4.3,0.7,5,0c0-1.3,0.3-2,1-2
	l0,0l1,3c1.3,2,2,3.3,2,4s0.3,1,1,1s3.7,0.3,9,1l8,1l0,0h1v1l-1,1l0,0l0,0l-1,1l-1,1h-4h-4v1l0,0h-4c-2-0.7-5.3-1-10-1
	c-4,0-8.7-0.7-14-2l-8-2l-1-1l-1-1l0,0l0,0l0,0l0,0l1-1l1-1h2h1v-2v-2h4c2.7,0,4-0.3,4-1s0.3-1,1-1C569.3,635.3,570,635,570,635z"/>
<path id="svg_105" class="st0" d="M663,613h1h2c1.3-0.7,2.7-1,4-1h1v2c0,0.7-0.3,1.3-1,2c-1.3,0-2,0.3-2,1l0,0v1c0,0-1,0.3-3,1
	c-1.3,0.7-2.3,0.3-3-1c0-0.7-4-1-12-1h-11v-1v-1h1l1-1l4-2c2.7-1.3,5.7-2,9-2c4,0,6.3,0.3,7,1c0.7,0,1,0.3,1,1S662.3,613,663,613z"
	/>
<path id="svg_106" class="st0" d="M492,652v-2l8,2c5.3,1.3,8.7,2.3,10,3h2l0,0v1l14,3c9.3,2,17.3,4,24,6c6,2,11.3,3.7,16,5
	s19.3,2,44,2c24.7,1.3,40,2.3,46,3c5.3,1.3,8,2.3,8,3c0,0,0.7,0,2,0c2,0,4.3,0.3,7,1c2,0.7,3.7,1.3,5,2c0.7,0.7,2.7,1,6,1
	c4,0.7,6.7,2,8,4c2,1.3,6,2.7,12,4s14,3.3,24,6s19,4,27,4s16.7-0.3,26-1h14l13,2c8,2,13,3,15,3h3l0,0l0,0l2,1l1,1h2h2l25,4
	c16,1.3,32.7,3.3,50,6c18,2.7,34.3,6.7,49,12c14.7,4,28.3,9.3,41,16s25.3,14,38,22c13.3,8.7,20,13.3,20,14s4.7,4,14,10
	c9.3,6.7,16.3,11.3,21,14c4,2.7,6.3,4,7,4h1l1,1l1,1l0,0h1l0,0l0,0v1l0,0h1v1h1h1v46v46H835H565l0,0l0,0l-263-1l-264-1h2h2l2-1l1-1
	h2c1.3,0,14.3-2.7,39-8c25.3-5.3,56.7-11,94-17s72-11,104-15c32.7-4,60-7.7,82-11c21.3-3.3,38.7-7,52-11c12.7-4,22-7.3,28-10
	s9.7-5,11-7c1.3-1.3,2.3-2,3-2s1.3-1.7,2-5c0-3.3-0.7-5.7-2-7s-2-2.3-2-3s-2-2-6-4c-4.7-2.7-8.7-5.3-12-8c-2.7-3.3-4.7-6.7-6-10
	l-2-4l0,0c0-0.7-0.3-1-1-1l0,0v-3l-1-4v-2c0-0.7-1-2-3-4c-2-1.3-3-2.3-3-3s-1.3-1.7-4-3c-1.3-0.7-5-2-11-4l-8-4l0,0h-1l0,0l0,0l-1-1
	h-1v-2v-2h1v-1l0,0h1l0,0l0,0l1-1l1-1l15-4c10-4,29-9.3,57-16c28.7-6.7,46.7-11.3,54-14c6.7-2.7,10.3-4.3,11-5l1-1l0,0l0,0h1l0,0v-1
	h1l0,0v-1l0,0l0,0h1l0,0v-1h1v-1v-1h-1v-1l0,0h-1l0,0l0,0v-1l0,0h-1v-1l0,0h-1l0,0l0,0v-1l0,0h-1c0-0.7-0.3-1-1-1
	c-1.3-1.3-7.7-4-19-8l-17-6l0,0l0,0l-2-1l-3-1h-1h-2l-1-1c-0.7-0.7-9.7-3-27-7l-25-6l-3-1l-2-1l0,0l0,0h3h3l8-2c4.7-1.3,6.7-2,6-2
	c-1.3,0,2.7-0.3,12-1s14.7-0.7,16,0l2,1h2h1v-1v-1h2h2v-1h-1V652z"/>
<path id="svg_108" class="st0" d="M439,576h1h2h1v4c0.7,2,1,3.7,1,5v2h-1c-0.7,0-1-0.3-1-1c0-1.3-0.7-1.7-2-1l-1,1l0,0
	c-0.7,0-1,0-1,0v1h-1c-0.7-0.7-1.7-1-3-1c-0.7,0-1.3,0.3-2,1c0,0.7-0.7,1-2,1c-0.7,0-1.3,0.3-2,1l-1,1v-1c-0.7,0-1,0.3-1,1h-1l0,0
	c-0.7-0.7-1-1-1-1l0,0l0,0c0-0.7-0.3-1-1-1h-1v1l0,0l0,0v1l0,0l0,0h-1l0,0h-1l0,0l0,0l0,0v-1v-1v-1v-1v-1v-1l0,0l0,0v-1l0,0h1v-1h-1
	h-2v-1v-1l0,0h1v-1l0,0h1l1,1h1c0.7,0,1-0.3,1-1s1-1,3-1c1.3,0,2.3,0,3,0h1h2h3l1,1h2v-1C438,577.3,438.3,576.7,439,576z"/>
<path id="svg_109" class="st0" d="M1072,536h1l1,5c0,3.3,0.3,5,1,5s1,0.7,1,2s0.7,7.3,2,18c1.3,11.3,1.7,17,1,17c0,0.7,0,1,0,1l0,0
	h-1c0,0,0,0.7,0,2c-0.7,1.3-2,3-4,5c-2.7,2-4.3,2-5,0s-1.3-3-2-3s-1,0.7-1,2s-0.7,2.7-2,4c-0.7,1.3-1.3,1.3-2,0c0-1.3-0.3-2-1-2
	s-1.7,0-3,0c-2,0-3.7-0.3-5-1s-2-1.3-2-2s-1-1-3-1s-2.7,0.7-2,2c0,2-1.3,2.3-4,1c-2-2-3.7-2.3-5-1l-2,2l0,0h-1v-1c0-0.7-0.7-2.3-2-5
	v-4h-1l0,0l-1,1l-1,1l0,0h-1l0,0l0,0v1l0,0l-1,1c-0.7,1.3-1,2.7-1,4c-0.7,0.7-1.3,1-2,1l-1,1l0,0h-1l0,0l0,0v1l0,0h-1v1l0,0h-1l0,0
	l0,0v-1c0,0-0.3-1-1-3l-1-3h-1l-1,1h-1h-1v1v1l-1,1v1h-1h-2v-1v-1l-1-2c-0.7-0.7-1-1.7-1-3s0.7-2.3,2-3c0.7,0,1-0.3,1-1
	c-0.7-0.7-1.3-1-2-1c-1.3,0-2.3-2.3-3-7s-0.3-7.3,1-8c0.7-0.7,0.3-1-1-1c-1.3-0.7-2-1.3-2-2v-2h1h1l2-1l1-1h1h1v-1h1l0,0v-1l0,0l0,0
	l0,0c0-0.7,0-1.3,0-2s-0.7-1.3-2-2h-1v-1h-1l0,0v-1h2h1l4,1c2.7,0.7,4,0.3,4-1c0.7-0.7,1-1.3,1-2v-1h1v-1l0,0h1v4v5h1v1h1h2v-1l0,0
	l4-5c2.7-2.7,4-4,4-4l0,0v-1l0,0h1v-1h1h2v2c0,0.7,0.3,1.3,1,2c0.7,0,1,0.3,1,1c-1.3,0.7-2,1.3-2,2v1h2h1l1,1l2,1h1h1v-2v-3l1-1v-1
	h1h1v5v5h1l1-1h1h1v-1v-1h-1h-1l1-1l1-1l4-3c3.3-2.7,4.7-4.7,4-6c-0.7-0.7,0.7-1,4-1c3.3,0.7,5.3,0,6-2
	C1071.7,537.3,1072,536,1072,536z M1034,555l1-1h2c0.7,0.7,1,1.7,1,3c0,0.7-0.7,1.3-2,2l-2,1h-1c-0.7,0-1.3,0.3-2,1
	c-0.7,0-1-0.7-1-2s0.7-2.3,2-3C1033.3,556,1034,555.7,1034,555z"/>
<path id="svg_110" class="st0" d="M894,424L894,424l1,2c0.7,0.7,0.3,1-1,1c-1.3,0.7-1,1.3,1,2s3.3,1.3,4,2l1,1h1h1v1v1l1,1l1,1l0,0
	l0,0v1l0,0l1,1v1h-2l-2-1l0,0h-1l0,0l0,0v-1l0,0h-1v-1l0,0h-1l0,0l0,0l-1-1c-0.7-0.7-2.3-2-5-4l-4-3l3-2
	C893,425.3,894,424.7,894,424z"/>
<path id="svg_111" class="st0" d="M916,622h2h1h1v2v2l0,0c0,0-0.3,0.3-1,1c0,0.7-0.3,1-1,1h-1v1c0.7,0.7,1,1.3,1,2v1l0,0h-1l0,0
	l-1,1l0,0v1l0,0l0,0h-1l0,0v-1l0,0l0,0c0-0.7-0.3-0.7-1,0c-1.3,0.7-2.3,0.7-3,0l-1-1h-1l0,0v-1h-1l0,0l0,0l0,0v-1l0,0l0,0l2-3
	c0.7-2,1.3-3.3,2-4C913.3,622.3,914.7,622,916,622z"/>
<path id="svg_112" class="st0" d="M736,662L736,662h3c2,0,3-0.3,3-1h1l2,1c0.7,0,1.3,0.7,2,2v3h5c3.3,0.7,5.3,1,6,1l0,0l0,0
	c0,0,0,0.3,0,1h1l0,0v1l0,0h1l0,0l0,0v1l0,0h1v1h1h2l0,0c0,0-0.7,0.3-2,1l-2,1h-2c-1.3,0-4.7,0-10,0c-6,0-11-0.7-15-2l-6-2v-1h-1
	l0,0l0,0v-1l0,0h-1l0,0v-1h-1v-1v-1l-1-1v-1l4-1c2.7,0,5,0,7,0C735.3,662,736,662,736,662z"/>
<path id="svg_113" class="st0" d="M870,557h1l3,1c1.3,0,2.3,0.3,3,1l1,1l0,0l0,0h-1l0,0l-3,2c-2.7,1.3-2.7,2,0,2
	c2.7,0.7,4.7,0.7,6,0s2-0.7,2,0s1.3,1.3,4,2c3.3,0.7,5.3,0.3,6-1c0.7-2,1.3-3,2-3s1,1.3,1,4s0.3,4,1,4c1.3,0,3.3-1.7,6-5
	c2-3.3,3.3-5,4-5l0,0h1c0.7,0,1,1,1,3s-0.3,3.3-1,4c0,0.7,0.3,1,1,1s1,0.7,1,2s-1,2-3,2h-3v1l1,1l0,0l0,0l3-1c2,0,3.3,1.7,4,5
	s1,6,1,8v2v2v3l0,0v1l0,0l0,0l0,0h-1v1h-1l0,0v1h-1c-0.7,0-1.7,0-3,0c-2,0-4,0-6,0s-12.7,0-32,0h-30l0,0l0,0h-1l0,0l-1-1h-2v-1v-1h1
	v-1l0,0h1l0,0l0,0v-1c0,0,0.7-1.3,2-4s2.3-5.7,3-9s0-5-2-5c-2-0.7-3-2-3-4l1-4l0,0c0.7,0,1-0.7,1-2s0.3-1.7,1-1c0.7,0,1-0.3,1-1v-1
	l0,0l0,0h1l0,0l1-1l1-1h1c0.7,0,1.3-0.3,2-1c1.3-0.7,2-1.3,2-2c0-1.3-0.3-2.3-1-3c-0.7,0-1-0.3-1-1v-1l4,1c3.3,0.7,5,0.3,5-1
	c0.7-0.7,1-1.3,1-2v-1h1v-1l0,0h1v4v4h1l0,0h1h1l0,0h1l0,0l0,0v-1l0,0l1-2c0.7-1.3,2.3-2.7,5-4c2-2,3.3-2.3,4-1c0,0.7,0.3,1,1,1
	s1,0.3,1,1s-0.3,1-1,1s-2,1.3-4,4s-3,4.3-3,5c0,1.3,0.7,1.3,2,0C869.3,558,870,557.7,870,557z M881,570c0.7-1.3,1.7-2,3-2
	c1.3,0.7,1.7,1.3,1,2c0,1.3-1,2-3,2C880.7,572.7,880.3,572,881,570z"/>
<path id="svg_114" class="st0" d="M1104,467h1v47v48h-2h-2v-2l-1-1v-3v-2l0,0l0,0v-1l0,0c0-0.7-0.7-1-2-1l-1-1h-1c0-0.7-1.3-1-4-1
	l-4-1v-1l0,0v-2c0-2,0.7-4,2-6l2-2l-2-1c-0.7,0-1-0.3-1-1c0-1.3-0.7-2-2-2s-2.3-3.3-3-10c-1.3-6-2-16.7-2-32v-23l0,0c0,0.7,0,1,0,1
	h1h1c1.3-0.7,2.3-2,3-4c0.7-2.7,1.7-4,3-4c0.7,0,1.3-0.7,2-2s2.7-0.7,6,2C1100.7,464.7,1102.7,466.3,1104,467z"/>
<path id="svg_115" class="st0" d="M670,590L670,590v2c0,1.3-0.7,2.7-2,4c-1.3,2-2.3,3.3-3,4c0,1.3,0.3,2,1,2h1l0,0v1h-1h-1h-1h-2v-1
	v-1h-1v-1l0,0h-1l0,0l0,0l-2-1c-0.7-0.7-1-1-1-1l0,0h1h1v-1h1v-1c0-0.7,0.3-1,1-1s1.7-1,3-3c1.3-2.7,2.7-4,4-4c0.7,0,1,0.3,1,1
	C669.7,589.7,670,590,670,590z"/>
<path id="svg_116" class="st0" d="M742,592v-1v3c0.7,2.7,1.7,4.3,3,5s2.3,1,3,1h1l0,0c0,0,0.3,0.3,1,1l0,0l0,0c0,0.7,0,1,0,1h1h17
	c12,0,18-0.7,18-2v-1l2,9c1.3,6.7,2.3,10.7,3,12l1,2v2v1h1v1l0,0h1l0,0l0,0l1-1h1v1c0,0-0.3,0-1,0c0,0-1,0.3-3,1s-3.3,0.3-4-1
	c-1.3,0-2.7-0.3-4-1c-1.3,0-3.7,0.3-7,1c-3.3,1.3-5.3,3.3-6,6s-2,4.3-4,5c-1.3,0.7-2,1.7-2,3l-1,1l0,0v-1h-1h-1h-2
	c-0.7,0-1.3-0.7-2-2c0-1.3-1-2.3-3-3c-1.3-0.7-2.7-1.7-4-3c-1.3,0-3.7-0.3-7-1c-4,0-6,0.3-6,1c0,1.3-0.7,2-2,2c-0.7,0.7-1.3,2.7-2,6
	v5h-1v1l0,0l0,0h-1h-1l0,0l0,0l-1-1h-2v-1v-2h-1l0,0v-1h1v-1c0-1.3-0.7-2-2-2h-2l0,0c0-0.7,0-1.3,0-2l1-1h1h1v-5
	c-0.7-3.3-1.3-6.7-2-10c-0.7-4-1.7-8.7-3-14l-2-7v-1v-1h1l1-1l0,0l0,0l0,0l0,0h1l0,0l1,1l0,0h2c0.7,0,1-0.3,1-1c0.7-0.7,1-1.3,1-2
	l0,0h1c0.7,0,1,0.7,1,2c-0.7,1.3-0.7,2.3,0,3l1,1h1h1l1-1h1l2-3c1.3-2.7,2.3-4,3-4h1l0,0C741.7,592,742,592,742,592z"/>
<path id="svg_117" class="st0" d="M702,590L702,590L702,590c0,0,0.3,0,1,0v-1l0,0c0.7,0,1-0.3,1-1l0,0l0,0c0,0,0.3,0.7,1,2v2v2l1,2
	h2c1.3,0,3,3,5,9c2,6.7,3.3,11.7,4,15c0.7,4,1.3,6.7,2,8l1,3l0,0v1l0,0l0,0h1l0,0l1,1l2,1l0,0l0,0h1v1l-1,1c-0.7,0-0.7,0.3,0,1
	s1,1,1,1l0,0h-1l0,0l0,0c-0.7,0-1.3,0.3-2,1l-2,1v1v1h-1l0,0v1h-1l0,0v1l0,0c0,0-1,0-3,0l-2,1v-1c-0.7,0-1-0.7-1-2
	c0-0.7-1.3-1.3-4-2h-3h-1c-0.7,0-3.3-0.3-8-1c-4-0.7-6-2.3-6-5l-1-4v-3c0.7-2,1-3.3,1-4s0-2.3,0-5l-2-3l0,0v-1l0,0l0,0l-1-1l-1-1
	l0,0l0,0l-1-1l-1-1h-2h-2l-1,1c-0.7,0-1,1-1,3c-0.7,2.7-1.7,4-3,4h-2v1h-1l0,0l0,0l0,0l-1,1l0,0h-1l0,0l0,0v1l0,0l-1-2l-1-2l0,0l0,0
	l0,0c0-0.7,0.7-1,2-1c0.7-0.7,1-1.3,1-2v-2h-1c-1.3,0-2.7,0.3-4,1h-2h1c0.7,0,1-0.3,1-1s-0.7-1-2-1h-1v-1l1-1v-1l0,0l-1-1v-1l2-1
	c0.7-0.7,1.3-1,2-1v-1l0,0c0.7,0,1-0.3,1-1l0,0l5-1c3.3-0.7,5-1.7,5-3s1-2.3,3-3s3.3-1.3,4-2s1-1,1-1h1l2,1c1.3,0.7,3,0,5-2
	s3.3-3,4-3c1.3,0,2,0.7,2,2c0,0.7,0.3,1,1,1C701.7,590.3,702,590,702,590z"/>
<path id="svg_118" class="st0" d="M1104,374h1v46v47h-1c-1.3-0.7-3.3-2.3-6-5c-3.3-2.7-5.3-3.3-6-2s-1.3,2-2,2c-1.3,0-2.3,1.3-3,4
	c-0.7,2-1.7,3.3-3,4h-1l0,0c-0.7-0.7-1-1-1-1l0,0v-1c0,0-0.7-0.7-2-2c0-0.7-0.7-4-2-10l-1-8l0,0c-0.7,0-1.7,0.7-3,2l-2,2v-1
	c0-0.7-0.7-2.3-2-5s-2.7-4.3-4-5c-2-0.7-4-0.3-6,1c-1.3,1.3-2.7,4.3-4,9c-0.7,4-1.7,5.7-3,5c-0.7-0.7-1.7-3.3-3-8
	c-1.3-5.3-3-7.3-5-6c-1.3,0.7-2,0-2-2c0-1.3-1-1.3-3,0c-1.3,2-3.7,4-7,6l-5,2l0,0c-0.7,0-0.3-1,1-3c2-2,3-3.7,3-5c0.7-1.3,0-1.7-2-1
	c-2.7,0.7-4.3,1.7-5,3l-1,3v1v2l-1,2v1v1c-0.7,0-1.7,1.7-3,5l-2,5h-1h-1v1l0,0l-1,1l-1,1l0,0v1l0,0l0,0h-1l0,0v1h-1l0,0
	c0,0.7-0.7,1.3-2,2s-2,0.7-2,0s0.7-1.3,2-2s2-1.3,2-2v-1l1-1l1-1l0,0c0-0.7,0.3-1.3,1-2l1-2v-1v-1v-1v-1l0,0l0,0l-1,1
	c-0.7,0.7-1,1-1,1s-1,0.3-3,1l-3,1v-1v-1h1l0,0l1-1l1-1l0,0h1l2-3c1.3-2,2-3,2-3l0,0v-1l0,0l1-1l1-1l0,0v-1h-2h-1h-1h-2h1h1v-1l0,0
	h1v-1h-1c-0.7,0-1.3,0.3-2,1c-0.7,0-1,1-1,3v2h-1c-0.7,0-2-0.7-4-2c-1.3-0.7-2.7-1.7-4-3l-1-3l0,0h-1v-1v-1l-1,2v1h-1c0,0.7,0,1,0,1
	l0,0l0,0c-0.7,0-1,0.3-1,1l0,0h-1c0,0.7-0.3,1.7-1,3l-1,2l0,0l0,0v1l0,0h-1v-1h-1h-1v-2l-1-1l0,0l0,0v-1c0-1.3-0.3-4.7-1-10l-1-7v1
	c0,1.3-0.3,2.3-1,3l-1,1v1l0,0h-1v-1l0,0h-1v-2c0-2-0.3-3.3-1-4l-1-2l0,0l0,0h-2h-3l0,0h-1l-1,4c-0.7,2-1.3,4-2,6l-1,3l0,0v-1l0,0
	l0,0l-1-1l-1-1v-1c0-0.7-0.3-1.3-1-2l-1-1v-1v-1h-1h-1v-1l0,0v1v1v1v1l1,1l1,1l0,0v1h-1h-1v-1l0,0h-1v-1l0,0h-1l0,0l0,0v-1l0,0h-1
	v-1l0,0h-1l0,0l0,0v-1l0,0v1v2v1v1l2,2c0,2,0.3,3,1,3v1l0,0h1l0,0l0,0v1l0,0h1v1h-1h-1v-1h-1l0,0v-1h-4h-3v1l0,0h-1v-1l0,0l0,0h-1
	l0,0v-1h-1v-1c0-0.7-0.3-1-1-1c-0.7,0.7-1.3,0.3-2-1l-1-1h1h1v-5c0-2.7,0.7-6.7,2-12s1.3-8,0-8c-0.7,0.7-0.3,0,1-2l1-3h1v-1h1h1v-1
	h-1l0,0v-1h-1h-1l-2,1c-0.7,0.7-2,1-4,1h-3h-1h-1l0,0h1l0,0l0,0v-1l0,0h1v-1l0,0h1l0,0l0,0l1-1l1-1h1h1l4-4c3.3-1.3,5.3-2.3,6-3l1-1
	l0,0h1v-2v-3h-1v-1l0,0h-1l0,0l0,0l-1-1c-0.7,0-1-0.3-1-1s-0.7-1-2-1c-0.7-0.7-2.7-1.7-6-3c-2.7-1.3-4-2.7-4-4s-0.3-2-1-2
	s-1-0.7-1-2v-1v-1v-1h1v-1l0,0h1v-1v-1h-1l0,0v1h-1l0,0v1l0,0l0,0h-1l0,0v1h-1v1c0,0.7-0.3,1.3-1,2l-1,1l0,0v1l0,0l0,0l-1,2l-1,1v-3
	v-3l1-2c0.7-1.3,1-2.3,1-3v-1l1-1l1-1l0,0v-1h-1h-1v1l0,0h-1v1h-1c-0.7,0-1.3,0.7-2,2l-2,1l0,0v1l0,0l0,0h-1l0,0v1h-1l0,0v1l0,0l0,0
	v-2v-1v-1v-1h1v-1l0,0h1l0,0v-1h-1v-1l0,0h-1l0,0l0,0v1l0,0h-1v1h-1h-1v1h-1v-1v-1h1v-1l0,0h1l0,0l0,0v-1l0,0h1v-1l0,0h1l0,0l0,0
	l6-4c3.3-1.3,8.7-2,16-2c6.7,0,11.7,1,15,3s5,3,5,3l0,0l2,1c0.7,0,1-1,1-3c0.7-1.3,1-2.3,1-3v-1h1l0,0v1h1v1c1.3,1.3,2,2.3,2,3v1h1
	h1v1l0,0v-1c0-1.3,0-3,0-5v-3h1l0,0v1h1v2c0.7,0.7,1,1.3,1,2h1l0,0v1l0,0l0,0l1-4c0.7-2,1-4,1-6v-3h1v1l0,0h1l0,0l0,0l1,2
	c0.7,1.3,1,2.3,1,3v1h1h1v-1l0,0l3-4c2-2.7,3-1.7,3,3c0,5.3,1.3,8,4,8c3.3,0,5.3,0.7,6,2s4.3,2,11,2c6.7,1.3,12.3,3.3,17,6
	c5.3,2.7,9,5.7,11,9c2.7,3.3,6,5.7,10,7c4,2.7,7.3,2.7,10,0c3.3-2.7,5-4.3,5-5s1.7-1.7,5-3c3.3-2,5.7-3.7,7-5c1.3-0.7,2.7-1,4-1
	s2,1,2,3c0.7,2,2,2.7,4,2C1101.3,374.3,1102.7,374,1104,374z M1048,382v-2l-1-1c-0.7-1.3-2.3-3-5-5c-3.3-2.7-3-2.7,1,0
	c4,1.3,6.7,3,8,5c1.3,1.3,1.7,2.3,1,3c0,0,0,0.7,0,2c0.7,1.3,0,2-2,2s-4,0-6,0c-2.7-0.7-4.7-2.7-6-6s0-3.7,4-1
	C1046,382.3,1048,383.3,1048,382z M1021,413v-1l0,0h-1l-1-3c-1.3-2-1-3,1-3s3.3,0,4,0c0.7,1.3,2,1.7,4,1c2,0,3,0.3,3,1s-0.3,1-1,1
	s-2,1-4,3c-1.3,1.3-2.3,2.3-3,3c-0.7,0-1-0.3-1-1S1021.7,413,1021,413z M1013,439l-1,1l0,0l0,0h-1l0,0v-1h-1v-6c-0.7-3.3-0.7-5,0-5
	s1.7,0.7,3,2c0.7,2,1,4,1,6C1014,437.3,1013.7,438.3,1013,439z M1026,434c0-3.3,0.7-4.7,2-4c1.3,0,1.7,0.3,1,1s-0.3,1,1,1
	c1.3,0.7,1,2-1,4C1027,437.3,1026,436.7,1026,434z"/>
<path id="svg_119" class="st0" d="M432,317h2l9,1c6,1.3,10,2,12,2s3,0.3,3,1v1h-5c-3.3,0-5.7-0.3-7-1s-4.7-1.3-10-2l-7-1l0,0
	C429,318,430,317.7,432,317z"/>
<path id="svg_120" class="st0" d="M915,417l2,2l1,1c0,1.3,0.3,2.3,1,3l1,1v1v1l1,1l1,1l0,0l0,0v-1l0,0l6-3c3.3-2.7,5.3-4,6-4h1l1-1
	l2-1h1h1v-1l0,0v1v1l0,0v1l0,0l0,0h-1l0,0v1h-1v1c0,0.7-1,2-3,4l-2,4h1h1v1l-1,1l0,0l0,0l4,1l4,1h2h3l1,1h2l1,1c0.7,1.3,1.3,1.7,2,1
	c0.7,0,1,0.3,1,1v1h1v1l0,0h1l0,0l0,0v1h1v3l1,4v1v1l4,4c2.7,2.7,4.3,4,5,4l0,0v1h1l0,0v1l0,0l0,0l1,1v1h1h1v1h1v1v1h-1l-1-1h-1h-1
	l-2-1l-1-1h-3c-1.3-0.7-2-0.7-2,0c0,1.3-1.3,1.3-4,0c-3.3-2-5-2.3-5-1c0,0.7,1.3,3,4,7c3.3,4,5.7,8.3,7,13s1.3,6.3,0,5
	c-1.3-0.7-2.3-1.3-3-2c-0.7,0-1,3.7-1,11s-1,13-3,17s-3,6.3-3,7v1l0,0c-0.7,0-1.3,0.3-2,1c0,0.7,0.3-1,1-5c0.7-3.3,0.7-4.7,0-4
	c-0.7,1.3-2,2.3-4,3s-2.3,0-1-2s1.3-3,0-3s-1.3-1,0-3s1.3-2.3,0-1s-3,1.7-5,1c-1.3-0.7-2-1.7-2-3c0.7-0.7-1.7-4.7-7-12
	c-5.3-8-8.7-12-10-12c-0.7,0-1,3.7-1,11l-1,12v-1v-1l-1-1l-1-2v-2v-1l-1-1c-0.7-1.3-1-2.7-1-4v-1l-1-1l-1-1v-2v-2h-1v1l0,0h-1v2v1
	l0,0l-1,1l-1,3c-1.3,2-2,3.3-2,4v1l-1,1c-0.7,0.7-1,1.3-1,2v1v1c0,0.7-0.3,1.3-1,2l-1,1v1v1l-1,2l-1,1v1v1v-3v-2v-8v-8v-4v-5v1v1
	l-1,1c-0.7,1.3-1,2.7-1,4v1l-1,1l-1,2v-6v-7v-3v-2l0,0l0,0h-1h-1l0,0l0,0v1v1v1v1l-1,1l-1,1l0,0c0,0-0.3-1-1-3l-1-2h-1h-1v2
	c0,1.3,0.3,2.3,1,3v2h-1c-0.7,0-1.3-0.3-2-1v-1h-1l0,0v-1h-1l0,0v-1l0,0l0,0v2v1l2,3c1.3,1.3,2,2.7,2,4v2l-1,1l-1,1l0,0l0,0v1
	c0,0-0.3,0.3-1,1l-1,2l0,0l0,0v-1c0,0-0.7-0.3-2-1c-0.7-1.3-1-1-1,1c-0.7,2-1.3,2.3-2,1l-1-2h-1l0,0v-1h-1v3c0,1.3,0.3,2.7,1,4l1,2
	v1v1h1l0,0l-1,1h-1v-1l-1-1l0,0v-1l0,0c0,0-0.7-0.7-2-2v-2l-1-1l-1-1l0,0l0,0v1l0,0l-1,2l-1,2v4c0,2.7,0.3,5,1,7l1,3v1v2h-1l0,0v-1
	h-1v-2v-2l-1-3c-0.7-1.3-0.7-5.7,0-13s1.7-13.3,3-18l4-7v-1v-1h-1l0,0v-1h1v-1v-2v-2v-1l0,0v1l0,0l0,0h-1l0,0v1h-1l0,0v1h-1h-1v1
	l0,0h-1c0,0.7-1.7,2-5,4l-4,3v1l0,0l-1-1l-1-2v-1v-1h-2h-1l-2,1h-2v-1l1-1v-1v-1l4-6c2.7-4,4.7-6.3,6-7s2-1,2-1v-1l0,0l0,0h1l0,0
	l1-1l1-1l0,0h1l0,0l0,0l1-1l1-1h-6h-5l-1,1h-1v-1v-1h1c0.7,0,1.3-0.3,2-1c0-1.3,0.3-2.3,1-3v-1h-3c-1.3,0-4.7-0.7-10-2l-7-2h-1h-1
	l-1-1h-2v-1v-1h2l1-1h1h1l1-1l1-1l11-2c8-2.7,14.7-3.7,20-3c4.7,0.7,7.3,1,8,1h2l4,3c2.7,2,4.3,3.3,5,4l1,1l0,0l0,0h1l0,0v1h1l0,0v1
	l0,0l0,0h1l0,0l2,1h2v-1l-1-1l0,0v-1l0,0l0,0l-1-1l-1-1v-1v-1h-1h-1l-1-1c-0.7-0.7-2-1.3-4-2s-2.3-1.3-1-2c1.3,0,1.7-0.3,1-1l-1-2
	h-1c-0.7,0-1.7-0.3-3-1l-2-1h-2h-1l-1-1l-2-1h1h1l4-1l4-1l5,2c3.3,0.7,6,2,8,4c2,1.3,3,2.3,3,3l0,0h1v1l0,0h1l0,0l0,0v1l0,0h1v1l0,0
	h1l0,0l0,0v1l0,0h1v1l0,0h1v-1v-1l-1-4c-0.7-2.7-1-5.3-1-8c-0.7-2-0.7-3,0-3C912.7,415.7,913.7,416.3,915,417z M951,444
	c2,1.3,1.3,2-2,2c-4-0.7-6-1.3-6-2s1-1,3-1C947.3,442.3,949,442.7,951,444z"/>
<path id="svg_121" class="st0" d="M934,585h1l0,0v1h1h1v1h1v1v1l1,1v1h1h1v1l1,1l0,0v1l0,0l0,0h1l0,0v1h1l3,1c2.7,0,4.3-0.3,5-1
	c0-0.7,1-1.3,3-2s3.7-1.7,5-3c2-0.7,3.3,0,4,2c0,1.3,0.3,1,1-1s2-2.3,4-1c2,0.7,3,1.3,3,2s1.3,1.7,4,3c2.7,0.7,5,1,7,1s3.3-0.7,4-2
	c0.7-2,2.3-3,5-3c2,0,3-0.7,3-2v-2l2,7c0.7,5.3,1.7,12.7,3,22c0,8.7,0.3,13.3,1,14l0,0l0,0c0,0-1,0.3-3,1c-1.3,0-2,1-2,3
	c-0.7,1.3-2.3,2.3-5,3s-4.3,2-5,4v4h-1v1l0,0l0,0h-1c-0.7,0-1.3-1.3-2-4c-0.7-2-1.3-2.7-2-2c-1.3,0-2.3,1-3,3s-2.3,3.3-5,4
	c-2,0.7-3.3,1.7-4,3c0,1.3,0,4,0,8l1,5v1c-0.7,0.7-1.3,2.3-2,5s-3,4.3-7,5h-5v1l0,0h-1h-2v-1c0-0.7-1-1-3-1l-3-1v1l0,0h-1v-1l0,0h-1
	l0,0l0,0v-1l0,0l1-2c0.7-1.3,1-2.3,1-3l2-1v-1v-1v-1v-1l0,0v1h-2h-1v1c-0.7,0-1.3,0.3-2,1l-2,2l0,0h-1l0,0l0,0v1l0,0h-1v1l0,0h-1
	l0,0l0,0v-1l0,0v-1v-1v-1v-1h1v-1h1l0,0l0,0l0,0h1c0,0-0.3-1.3-1-4v-3l0,0c0,0,0.3-0.3,1-1l0,0v-2c-0.7-2-1-4-1-6c0-2.7,0.7-4.3,2-5
	c0-0.7-0.3-2.3-1-5l-1-5h-1v-1l0,0h-1l0,0l0,0v-1l0,0h-1v-1l0,0h-1l0,0l0,0l-1-1l-1-1h-2h-1v1c-0.7,0-1,0.3-1,1c0,0-0.7,0-2,0
	c0,0-0.3,0.7-1,2c-0.7,2-1.7,3.3-3,4h-1v1h-1l0,0v1l0,0l0,0h-1l0,0h-1h-1l0,0h1l0,0l0,0v-1l0,0v-1v-2l0,0l0,0v-1l0,0h-1v1l0,0h-1
	l0,0l0,0l0,0h-1h-1l0,0v-1l0,0l0,0v-1l0,0l0,0l1-1v-1h1c0.7,0,1-0.3,1-1c0.7-0.7,1-1,1-1l0,0l0,0l0,0h1h1l0,0l0,0h1l0,0v-1h1l0,0v-1
	h1h1l2-1l1-1l0,0h1l0,0v-1l-1-4c-0.7-2.7-1.3-6-2-10l-1-6l0,0c0,0,0.7,0.3,2,1c1.3,0,2.7-2.7,4-8C932.7,588,933.3,585,934,585z"/>
<path id="svg_122" class="st0" d="M776,564l2-3h1c0.7,0,1,2,1,6c0,3.3,0,5,0,5s-0.3,0-1,0l0,0l0,0c-0.7,0-1,0.7-1,2v2l0,0
	c0,0-0.3-0.7-1-2c0-1.3-0.3-2-1-2s-1.3,1.3-2,4v3l0,0h-1v-4l1-4v-2C774,567.7,774.7,566,776,564z"/>
<path id="svg_127" class="st0" d="M821,584v3l1,1c1.3,0,2,0,2,0c1.3,0,2,0.3,2,1v1h-1l0,0h-3h-2l0,0l0,0l-1-2c-0.7-1.3-1.3-3.3-2-6
	l-1-5v-5c1.3-3.3,2-4.3,2-3c0.7,2,1.3,3,2,3s1,0.7,1,2s0.3,1.7,1,1c0.7,0,0.7,0.7,0,2c-0.7,0.7-0.3,1,1,1c2-0.7,2.7-0.7,2,0
	c0,1.3-0.7,2-2,2C821.7,580.7,821,582,821,584z"/>
<path id="svg_129" class="st0" d="M759,432v-4h1h1v1l1,1l0,0l0,0h1h1h1h1v1v1h-1l0,0v1h-1v1c-1.3,1.3-2,2.7-2,4v1h1
	c0.7-0.7,1.7-1,3-1h3v1h-1l0,0v1l0,0l0,0h-1l0,0l-2,4c-0.7,2-1.3,4-2,6v4h1h1v-1h1v1v1l2-1c1.3-1.3,2-2,2-2l0,0l2-1h1v1
	c-0.7,0.7-1,2-1,4v4h1h1l2-2c2-1.3,3.3-1.7,4-1c1.3,0.7,2,1.3,2,2v1v28c0,18.7-0.7,29.7-2,33c0,3.3-0.3,5.3-1,6s-1,1-1,1l0,0h-1l0,0
	l2,1h2v3v2h-1c0,0,0,0.3,0,1l0,0l0,0c-0.7,0.7-1,1-1,1l0,0l-3,2c-1.3,1.3-2.3,3.3-3,6s-0.3,3.7,1,3c0.7-0.7,1.3-1,2-1l0,0l2,2
	c1.3,2,1.7,4.7,1,8c-0.7,2.7-1,4.3-1,5l0,0l-2,3c-1.3,2-2,3.7-2,5v2l-1,4v4v1c0,1.3-0.3,2-1,2c-1.3,0-2.7-1.7-4-5s-2.3-5-3-5
	c-1.3-0.7-1.7,0.7-1,4v4l0,0c0,0-0.7,0.7-2,2c-2,1.3-3.3,1.7-4,1c0-0.7-0.7-1-2-1l-2,1v-1c0,0-0.3,0-1,0l0,0l0,0c-0.7-0.7-1-1-1-1
	l0,0v-1c0,0-0.3,0-1,0l0,0l0,0c-0.7-0.7-1-1-1-1l0,0v-1c0,0-0.3,0-1,0l0,0l0,0c-0.7-0.7-1-1-1-1l0,0v-1c0,0-0.3,0-1,0l0,0l0,0
	c-0.7-0.7-1-1-1-1l0,0l0,0c-0.7-0.7-1.3-1-2-1l-1-2h-3h-4l0,0c-0.7,0-1.7,0-3,0s-2-0.7-2-2c0-0.7-1.7-0.7-5,0c-3.3,0-5.3-0.3-6-1
	c0-0.7-0.3-1-1-1s-1,0.3-1,1s-1,1-3,1l-3-1v-1c0-0.7-0.7-3.3-2-8l-1-8l0,0l-1-1v-13c0-9.3-0.3-16-1-20c0-4.7,0.3-7,1-7s0.7-1.7,0-5
	l-1-5v-6l1-6l0,0v1l0,0l0,0v2v2v1v1h2c1.3,0,2-0.3,2-1s0.7,0.7,2,4c0,3.3,0.3,5.7,1,7v2h1h2v1l0,0l1,1l1,2v-2c0-0.7,0.3-2,1-4v-3h1
	h1v1l1,1l1,2c1.3,0.7,2,1.3,2,2h1l0,0v1l0,0l0,0h1l0,0v1h1l0,0v-1l0,0l0,0v-2v-3v-3c0-1.3-0.7-4-2-8l-2-6v-1v-1l0,0l0,0l2,2
	c0.7,1.3,1.3,2,2,2h1v-1h-1v-1v-1h-1v-1l0,0c-0.7,0-1-0.3-1-1v-1h-1l0,0v-1h-1v-1v-1l-1-1v-1h2l2,1h1h1v1h1l0,0v1l0,0l0,0h1l0,0l3,3
	c2.7,2,4,3,4,3l0,0h1l0,0v1h1l0,0v1h1h1v1l0,0h1v1l0,0h1l0,0l0,0v1l0,0v-1v-2v-2v-1l-1-1l-1-1l0,0v-1l0,0l0,0l-1-1
	c-0.7-0.7-1.7-2.3-3-5c-1.3-2-2.3-3-3-3l-1-1h-1h-1v-1v-1l-1-1v-1h1h1l1,1l2,1l0,0l0,0h1l0,0l1,1c1.3,0.7,2,0.3,2-1c0-0.7,0.7-1,2-1
	l3,1h2h2l1,1h1v-1v-1h-1l-1-1l0,0h-1l0,0l0,0v-1l0,0h-1v-1l0,0h-1l0,0c0,0-1.3-1-4-3c-2-1.3-3-3.7-3-7l-1-4h1l0,0v-1h1v-1l0,0h-1
	l0,0v-1h-1v-1v-1l0,0l0,0l1-1l1-1v1v2h1c0.7,0.7,1,1.3,1,2v1h1v1h1h1v-1h-1v-1c0-1.3-0.3-2.7-1-4l-1-1v-1v-1h1v1l1,1
	c0.7,1.3,1.3,1.7,2,1c0,0,0-0.7,0-2c-0.7-1.3-0.7-2,0-2c1.3,0.7,2,1.3,2,2v1h1v1l0,0h1l0,0l0,0v-1l0,0l1-1l1-1v-1v-1v-1
	c0-1.3-0.3-2-1-2c-0.7-0.7-1-1.3-1-2v-1h-1v-1l0,0h-1v-1v-1l-1-1v-1h1h1v2v1h1c0.7,0.7,1,1,1,1h1l0,0l0,0v1l0,0h1v1l0,0h1v-3
	c0-2,0.3-2.3,1-1s1,2,1,2l0,0L759,432z"/>
<path id="svg_130" class="st0" d="M1013,439l-1,1l0,0l0,0h-1l0,0v-1h-1v-6c-0.7-3.3-0.7-5,0-5s1.7,0.7,3,2c0.7,2,1,4,1,6
	C1014,437.3,1013.7,438.3,1013,439z"/>
<path id="svg_132" class="st0" d="M1028,448L1028,448L1028,448c0,0-0.7,0.7-2,2l-3,1v-1l1-2v-2v-1l1-3c0.7-1.3,2.3-2.3,5-3
	c2-0.7,2.7-0.3,2,1c0,1.3-1,3-3,5C1027.7,447,1027.3,448,1028,448z"/>
<path id="svg_133" class="st0" d="M725,590h2h1c0,0,0,0.3,0,1h1v1h-1v1v1l0,0c0,0.7-0.3,1.3-1,2c0,0.7-0.3,1-1,1h-2v-2
	c0-1.3,0-2.3,0-3S724.3,590.7,725,590z"/>
<path id="svg_134" class="st0" d="M438,586h1v1c-0.7,0.7-1,2.3-1,5v3l1,1l0,0h-1h-1v3c-0.7,2-0.7,3.3,0,4s0.3,1-1,1
	c-0.7,0.7-1,0.7-1,0s-0.3-1-1-1h-1h-1c0-0.7,0-1,0-1s-1-2-3-6c-1.3-3.3-2.3-5-3-5l-2-1l0,0l0,0h-1l0,0v-1h-1l0,0l0,0l0,0v-1h2h1l1,1
	l1,1l1-1c0.7-0.7,1.3-1,2-1c1.3,0,2-0.3,2-1c0.7-0.7,1.7-1,3-1S437.3,586,438,586z"/>
<path id="svg_135" class="st0" d="M926,656h-1h-1c-0.7,0-1.3,0.7-2,2c-1.3,2-2.7,3.3-4,4h-2v-1c0-0.7-0.3-2.7-1-6s-0.7-5.7,0-7l1-1
	l2-1c0.7,0,1.7,0.7,3,2c2,1.3,3,2.7,3,4c0,0.7,0.3,1.3,1,2c0.7,0,1.3,0.3,2,1C927,655.7,926.7,656,926,656z"/>
<path id="svg_136" class="st0" d="M430,777h1l0,0c0,0.7,0.3,1,1,1l0,0l2,4c1.3,3.3,3.3,6.7,6,10c3.3,2.7,7.3,5.3,12,8c4,2,6,3.3,6,4
	s0.7,1.7,2,3s2,3.7,2,7c-0.7,3.3-1.3,5-2,5s-1.7,0.7-3,2c-1.3,2-5,4.3-11,7s-15.3,6-28,10c-13.3,4-30.7,7.7-52,11
	c-22,3.3-49.3,7-82,11c-32,4-66.7,9-104,15s-68.7,11.7-94,17c-24.7,5.3-37.7,8-39,8h-2l-1,1l-2,1h-2h-2l264,1l263,1l0,0l0,0H282H0
	v-62v-61l0,0l0,0l1-1v-1l1,1c1.3,0,2-0.3,2-1s70-1.3,210-2s211-1,213-1S430,776.3,430,777z"/>
<path id="svg_138" class="st0" d="M657,638h1v1c0,0.7,0.3,1,1,1c0.7,0.7,1.3,1.3,2,2c0,1.3-0.3,2-1,2s-1,0.3-1,1l0,0h-1l-1,1h-2
	c-1.3,0-3.7-0.3-7-1h-5v-2v-2h1l1-1l6-1C655,638.3,657,638,657,638z"/>
<path id="svg_139" class="st0" d="M0,156V0h552h553v119v119l0,0c-0.7,0-1-10-1-30s-4-31-12-33c-7.3-2-11.3-3.7-12-5c0-1.3,0.3-4,1-8
	c0.7-4.7,0.7-8,0-10c-0.7-2.7-2.3-4.7-5-6c-3.3-1.3-8.7-2.7-16-4s-11.7-4.7-13-10s-2.3-8-3-8s-4.7-0.3-12-1s-17.7,1-31,5
	s-22.3,6.3-27,7s-8.3,0-11-2c-3.3-2-5.3-4.3-6-7c-0.7-3.3-0.3-6.7,1-10c1.3-2.7,3.7-6,7-10c3.3-4.7,5-7.3,5-8v-1l0,0v-1l0,0l0,0h1
	l0,0v-1h1l0,0v-1l0,0l0,0l1-1v-1h-1h-2v1l0,0h-1v-1h-1h-1h-1c-0.7,0-1.3,0-2,0c0,0-1.7,0-5,0c-3.3,1.3-9,3.3-17,6s-14.3,3.3-19,2
	c-4.7,0-9.7,0-15,0c-4.7,0-8.7,0.7-12,2s-13.3,4-30,8c-16,5.3-29.3,10.3-40,15c-10,5.3-15,8.3-15,9s-0.3,1-1,1l-1,1l0,0h-1l0,0l0,0
	v1l0,0v1l0,0l0,0l0,0v1l0,0v1v1v1l0,0h-1l0,0v1h1l0,0v1h2h1v1h1l0,0v1h12c8,0,13.7,0.3,17,1s6.3,1.7,9,3c3.3,1.3,5.3,2.3,6,3
	c0,0.7,0.3,2.3,1,5s0.3,4.7-1,6c0,1.3-2,4-6,8c-4,3.3-8.3,6.3-13,9c-4.7,3.3-9.3,5-14,5s-7.3-0.7-8-2s-1.3-1.7-2-1
	c-1.3,0.7-3.7,3-7,7c-4,4.7-7,7.3-9,8h-3h-1c-0.7,0-2.3-1.3-5-4s-5.3-7.3-8-14s-5.3-11.7-8-15s-5.7-6-9-8s-7-2.3-11-1
	c-4,0-9.3,2.7-16,8c-7.3,4-14.3,8.3-21,13s-10.3,7.7-11,9s-0.7,2,0,2c1.3,0.7-1.7,7.7-9,21l-11,20v2v2h1v1l14,3c9.3,2,14.3,3.3,15,4
	l2,1l0,0l0,0h1l0,0v1h1l0,0v1l0,0l0,0l1,1l1,1v2v2l-1,1l-1,1l0,0l0,0v1l0,0h-1c0,0.7-1.7,1.7-5,3l-6,4h-1h-1v1l0,0h-1v1l0,0h-1l0,0
	l0,0v1l0,0h-1v1h2h2l18,4c12,1.3,19,2.7,21,4c1.3,0,2.7,0.3,4,1l1,1l0,0h1l0,0l0,0v1l0,0l1,1l1,1v1v1v1l0,0v1v1l-1,1l-1,1l0,0l0,0v1
	l0,0h-1v1l0,0h-1l0,0l0,0l-1,1c-0.7,0.7-1.7,1-3,1c-0.7,1.3-5.7,2-15,2s-17-0.3-23-1c-5.3-0.7-12-1.7-20-3c-8,0-15.3,0.7-22,2
	c-6.7,2.7-12.7,4-18,4c-6,0-10,0.7-12,2c-1.3,1.3-6,4.3-14,9c-7.3,4.7-15.3,7.7-24,9l-14,3h-2c-0.7-0.7-3.3-1-8-1c-4,0-6-0.3-6-1
	c0.7-0.7-13.3-1-42-1c-28,0-50,0.3-66,1l-25,1l-1,1l-1,1l0,0l0,0h-5c-4,0-30.7,0-80,0c-48.7,0-74.3,0.3-77,1c-2,0.7-4.7,1.3-8,2
	l-5,1v1l0,0l0,0c-0.7-0.7-1.3-1-2-1c-1.3-1.3-4.7-3.3-10-6s-10.3-4.7-15-6s-11.7-2-21-2s-16.3,0.3-21,1s-10.3,2.7-17,6l-9,5l0,0
	c0,0-1,0-3,0s-4-0.7-6-2c-2.7,0-27-0.3-73-1s-70.7-1.3-74-2l-5-1V156z"/>
<path id="svg_140" class="st0" d="M738,461l-2-1h-2c-0.7,0-2.3-0.3-5-1s-3.7-1-3-1h1l5-2c3.3-1.3,5.3-0.7,6,2
	C738.7,460,738.7,461,738,461z"/>
<path id="svg_141" class="st0" d="M787,452h1v-1h1v15c-0.7,10-1,20-1,30v14h1l0,0l1,1l2,1l0,0l0,0h-2h-1v1l1,1l1,2
	c0.7,1.3,1,2.7,1,4c0,0.7-0.7,1.3-2,2c-1.3,0-2,0.7-2,2v1l0,0l-1,1h-1c0,0.7-0.3,1.7-1,3l-1,2l0,0v1l0,0l0,0l-1,1l-1,1l0,0l0,0l-1,1
	h-1v-1v-1l1-2v-2h-2l-2-1l0,0h1l0,0c0,0,0.3-0.3,1-1s1-2.7,1-6c1.3-3.3,2-14.3,2-33v-28h1h1v-1l0,0l1-3
	C785.7,454,786.3,452.7,787,452z"/>
<path id="svg_143" class="st0" d="M279,350l-6-11l5,4c3.3,2,6.7,3,10,3s28.3-0.3,75-1s71-1.7,73-3s3.3-2,4-2l0,0v4v4l3,3
	c2,2,5.3,4,10,6s7.3,3.3,8,4l1,1l0,0l0,0h1l0,0v1h1l0,0v1l0,0l0,0h1v1h-1v1l0,0l0,0l0,0v1h-1v1l0,0h-1l0,0l0,0l-1,1l-1,1h-1
	c-0.7,0-6,1.7-16,5c-10,2.7-15,4.7-15,6c-0.7,2-5.3,3-14,3s-14-0.7-16-2c-2.7-1.3-6-2.3-10-3c-4.7-0.7-10.3,0.7-17,4s-13,5-19,5
	c-6.7,0-18.7,0.7-36,2l-25,2v-1c-0.7-0.7-1.7-5.7-3-15C285.3,366.7,282.3,358,279,350z"/>
<path id="svg_144" class="st0" d="M456,566h2v1l0,0h1v1h1h1l1,1l0,0l0,0v1l0,0l0,0h1l0,0h-1h-2h-1h-1v1l0,0h-1v1h-1l0,0h-4
	c-2,0-3.3,0-4,0c0,0-1.7,0.3-5,1l-5,1h-1h-1l-1,1l-1,1h-1h-1l-1,1l-1,1l0,0l0,0h-1c-0.7,0-1.7,0-3,0c-2,0-3,0.3-3,1s-0.3,1-1,1h-1
	l-1-1h-1l0,0c-0.7,0-1,0.3-1,1l0,0v1c0,0.7,0,1,0,1l0,0v1c0,0.7-0.7,1.7-2,3s-7.3,2.3-18,3s-17,1-19,1c-2,1.3-9,2-21,2h-19v1h1l0,0
	v1h1h1l2,1c0.7,0.7,1.3,1,2,1h1v1v1h1h1l-3,1l-2,1h-10c-6.7,0-16.7,0-30,0c-14,0-23.3-0.7-28-2s-9.3-2.7-14-4c-5.3,0-10.7,1-16,3
	s-14,3.3-26,4c-11.3,0.7-20-0.3-26-3c-5.3-2.7-10.7-4.3-16-5s-11.3,0-18,2s-20.7,3.3-42,4s-32,1.3-32,2s-2.3,1-7,1s-9.3-0.3-14-1
	s-10.3-1-17-1c-6,0.7-9,2-9,4c0,1.3-6.3,2-19,2H1l0,0H0l0,0l0,0v-20v-21l0,0l1-1l0,0h1l0,0l0,0v-1l0,0l1,1v1h1h1v-1v-1l3-1
	c1.3-1.3,5-4.7,11-10s11-8,15-8c3.3,0,15.3,4,36,12c21.3,8,35,12,41,12s13-2.7,21-8c7.3-4,16-7.3,26-10c9.3-2.7,16-4,20-4
	c3.3,0,6.7,1,10,3c2.7,2,6.7,3,12,3c4.7,0,10.7-0.7,18-2c8-1.3,15.3-1.7,22-1c7.3,0.7,15,2.3,23,5c8,4,13.7,5.7,17,5
	c2.7-0.7,5.7-3,9-7s6-7.7,8-11s4.3-5.7,7-7s6-1.3,10,0s7.7,5.3,11,12c4,6.7,7.7,12.7,11,18c2.7,4,5,6.7,7,8s5.3,1.3,10,0
	c4.7,0,12-2.7,22-8s17.7-10,23-14c5.3-5.3,9-8,11-8c2-1.3,5.3-1.7,10-1s8.7,2,12,4s7.7,5.7,13,11s8.3,8.3,9,9S454.7,566,456,566z"/>
<path id="svg_145" class="st0" d="M824,396v-1l0,0l0,0l1,3l1,3v1l0,0h-1c-0.7,0-2.3-0.3-5-1h-4v-1v-1l1-2l1-2l0,0c1.3,0,1.7-0.3,1-1
	c0-0.7-0.3-1-1-1s-1-0.3-1-1s0.7-0.7,2,0c0.7,1.3,1.7,2.7,3,4S824,397.3,824,396z"/>
<path id="svg_146" class="st0" d="M874,538h5h-2h-2v1h1v2c0,0.7,0.7,1.3,2,2c0.7,0,0.7,1,0,3c0,2.7-0.3,4.7-1,6
	c-0.7,0.7-1.3,1.3-2,2c-0.7,0-1.3,0.3-2,1v1h-1h-1v1l0,0h-1c0,0.7-0.7,1-2,1c-1.3,1.3-2,1.3-2,0c0-0.7,1-2.3,3-5s3.3-4,4-4
	s1-0.3,1-1s-0.3-1-1-1s-1-0.3-1-1c-0.7-1.3-2-1-4,1c-2.7,1.3-4.3,2.7-5,4l-1,2l0,0v1l0,0l0,0h-1l0,0h-1h-1l0,0h-1v-4v-4h-1l0,0v1h-1
	v1c0,0.7-0.3,1.3-1,2c0,1.3-1.7,1.7-5,1l-4-1v1c0,0.7,0.3,1,1,1c0.7,0.7,1,1.7,1,3c0,0.7-0.7,1.3-2,2c-0.7,0.7-1.3,1-2,1h-1l-1,1
	l-1,1l0,0h-1l0,0l0,0l0,0h-1v-1h-1v-1c0-0.7-0.3-1.3-1-2c-0.7-1.3-1.7-2.3-3-3l-3-1v-1l-1-1l0,0l0,0v1l0,0h-1v-1l0,0h-1l0,0l0,0v-1
	l0,0l-1-1l-1-1l0,0v-1h1h1v1l0,0h1v1l0,0h1l0,0l0,0l3,1c2,0.7,3,1,3,1c0.7,0,1,0.3,1,1h1l0,0v1h1h1l1,1h1v-1v-2l-1-1
	c-0.7-0.7-1-1.3-1-2v-1l-1-1v-1h1h1v2c0,0.7,1.7,0.7,5,0c2.7,0,4.7-0.3,6-1c0.7-0.7,1-1.3,1-2s1.7-1.3,5-2c4-0.7,6.7-1.7,8-3
	C868,538,870.7,538,874,538z"/>
<path id="svg_147" class="st0" d="M775,540l4-4h1c0.7,0,0.7,1.7,0,5c-1.3,3.3-2.3,5-3,5s-1,0-1,0l0,0l0,0c-0.7,0-1.3,0.3-2,1
	c-1.3,0.7-2,0-2-2C772,543.7,773,542,775,540z"/>
<path id="svg_149" class="st0" d="M829,562l1-2l0,0l0,0v1l0,0l2,3c0,2,0.3,2,1,0c0.7-1.3,1.3-1.7,2-1c0.7,1.3,1.3,2,2,2l0,0l-1,4
	c0,2,1,3.3,3,4c2,0,2.7,1.7,2,5s-1.7,6.3-3,9s-2,4-2,4v1l0,0l0,0h-1l0,0v1h-1v1v1h-2c-1.3,0-2-0.3-2-1v-2v-1v-1v-6
	c0-4.7-0.7-8.7-2-12l-2-4l0,0l0,0v-1l0,0l-1-1v-2h1h2v-1l0,0L829,562z"/>
<path id="svg_150" class="st0" d="M1021,413v-1l0,0h-1l-1-3c-1.3-2-1-3,1-3s3.3,0,4,0c0.7,1.3,2,1.7,4,1c2,0,3,0.3,3,1s-0.3,1-1,1
	s-2,1-4,3c-1.3,1.3-2.3,2.3-3,3c-0.7,0-1-0.3-1-1S1021.7,413,1021,413z"/>
<path id="svg_151" class="st0" d="M878,627l3-1h1h2l2,1l3,1h1h1v1h1l0,0v1l0,0l0,0l1,1v1h-1h-1l-1,2c0,0.7-0.7,1.3-2,2
	c-1.3,1.3-2,3.3-2,6v4h-1c-0.7,0-1.3-0.7-2-2s-1.3-3.3-2-6c-0.7-2-1.3-3-2-3c-0.7-0.7-1-1.3-1-2c-0.7-0.7-1.3-1-2-1h-1v-1h-1l0,0v1
	h-1h-1v-2v-1l2-1C874.7,628,876,627.7,878,627z"/>
<path id="svg_152" class="st0" d="M571,619l-2-14l0,0h1l0,0v1l0,0h1h5h6l0,0h1l1,8c0,5.3-0.3,8-1,8s-1,2-1,6s-0.3,6.3-1,7v1l0,0
	c-0.7,0-1,0.7-1,2c-0.7,0.7-2.3,0.7-5,0l-4-2l0,0l0,0h1h1v-2C572.3,633.3,571.7,628.3,571,619z"/>
<path id="svg_153" class="st0" d="M914,410h1v-1h1l0,0v1l0,0l0,0l1,1v1h-1c-1.3,0-1.7,0.7-1,2s1.3,2.7,2,4v1l-2-2
	c-1.3-0.7-2.3-1.3-3-2c-0.7,0-0.7,1,0,3c0,2.7,0.3,5.3,1,8l1,4v1v1h-1l0,0v-1h-1l0,0v-1l0,0l0,0h-1l0,0v-1h-1l0,0v-1l0,0l0,0h-1l0,0
	v-1h-1l0,0c0-0.7-1-1.7-3-3c-2-2-4.7-3.3-8-4l-5-2l-4,1l-4,1h-1h-1l2,1l1,1h1h2l2,1c1.3,0.7,2.3,1,3,1h1l0,0c0,0.7-1,1.3-3,2l-3,2
	h-2c-0.7,0-3.3-0.3-8-1c-5.3-0.7-12,0.3-20,3l-11,2l-1,1l-1,1h-1h-1l-1,1h-2v1v1h2l1,1h1h1l7,2c5.3,1.3,8.7,2,10,2h3v1
	c-0.7,0.7-1,1.7-1,3c-0.7,0.7-1.3,1-2,1h-1v1v1h1l1-1h5h6l-1,1l-1,1l0,0l0,0h-1l0,0l-1,1l-1,1l0,0h-1l0,0l0,0v1c0,0-0.7,0.3-2,1
	s-3.3,3-6,7l-4,6v1v1l-1,1v1h2l2-1h1h2v1v1l1,2l1,1l0,0v-1l4-3c3.3-2,5-3.3,5-4h1l0,0v-1h1h1v-1l0,0h1v-1l0,0h1l0,0l0,0v-1l0,0v1v2
	v2v1h-1v1l0,0h1v1v1l-4,7c-1.3,4.7-2.3,10.7-3,18s-0.7,11.7,0,13l1,3v1c0,0.7,0-1.3,0-6v-7l1-2l1-2l0,0v-1l0,0l0,0l1,1l1,1v2
	c1.3,1.3,2,2,2,2l0,0v1l0,0l1,1v1h1l1-1l0,0h-1v-1v-1l-1-2c-0.7-1.3-1-2.7-1-4v-3h1v1l0,0h1l1,2c0.7,1.3,1.3,1,2-1c0-2,0.3-2.3,1-1
	c1.3,0.7,2,1,2,1v1l0,0l0,0l1-2c0.7-0.7,1-1,1-1v-1l0,0l0,0l1-1l1-1v-2c0-1.3-0.7-2.7-2-4l-2-3v-1v-2l0,0l0,0v1l0,0h1v1l0,0h1v1
	c0.7,0.7,1.3,1,2,1h1v-2c-0.7-0.7-1-1.7-1-3v-2h1h1l1,2c0.7,2,1,3,1,3l0,0l1-1l1-1v-1v-1v-1v-1l0,0l0,0h1h1l0,0l0,0v2v3v7v6l1-2l1-1
	v-1c0-1.3,0.3-2.7,1-4l1-1v-1v-1v5v4v8v8v2v3v-1v-1l1-1l1-2v-1v-1l1-1c0.7-0.7,1-1.3,1-2v-1l1,30c0.7,19.3,0.7,29,0,29
	c-0.7,0.7-1,1-1,1l0,0l0,0c-0.7,0-2,1.7-4,5c-2.7,3.3-4.7,5-6,5c-0.7,0-1-1.3-1-4s-0.3-4-1-4s-1.3,1-2,3c-0.7,1.3-2.7,1.7-6,1
	c-2.7-0.7-4-1.3-4-2s-0.7-0.7-2,0s-3.3,0.7-6,0c-2.7,0-2.7-0.7,0-2l3-2l0,0h1l0,0l0,0l-1-1c-0.7-0.7-1.7-1-3-1l-3-1l0,0v-1h1h1v-1
	c0.7-0.7,1.3-1,2-1c0.7-0.7,1.3-1.3,2-2c0.7-1.3,1-3.3,1-6c0.7-2,0.7-3,0-3c-1.3-0.7-2-1.3-2-2v-2h-1v-1h2h2h-5c-3.3,0-6,0-8,0
	c-1.3,1.3-4,2.3-8,3c-3.3,0.7-5,1.3-5,2s-0.3,1.3-1,2c-1.3,0.7-3.3,1-6,1c-3.3,0.7-5.3,0.7-6,0v-1v-1c0,0-0.3,0-1,0l0,0l0,0
	c-0.7-0.7-2-2.7-4-6c-2-2.7-4.3-4.3-7-5l-4-1l-1,1h-1v-1v-1h1v-1h1h1l1-1c1.3-0.7,3-1,5-1h3l2-1l2-1l0,0l0,0h-1l0,0v-1h-1l0,0v-1h-2
	h-1l-1-1l-1-1h-3c-2.7,0-4.7,0.7-6,2h-2l-1,1l-1,1l0,0l0,0h-1l0,0h-1h-1l0,0h1v-1v-1v-1v-1l0,0l0,0l1-1l1-1l0,0l0,0h1l0,0v-1h1l3-3
	c2-1.3,3-2.7,3-4c0-0.7,0.3-1,1-1c0.7-0.7,1-1,1-1l0,0h1l0,0l1-1l1-1l0,0h1v-1v-1h-2h-3v-2v-2h-1h-2l-1,1l-1,1l0,0c0,0-1.7,2-5,6
	l-5,6l0,0l0,0v1l0,0h-1v1h-1h-2v1l0,0h-1v-1l0,0h-1v-6v-7h-1h-1v1v1l-1,1c-0.7,0.7-1,2-1,4c0,1.3-0.7,2-2,2h-2l-2-1l-1-1h-1h-2l0,0
	l0,0l-2-1l-1-1l0,0h-1v-14c0-10,0.3-20,1-30v-15v-1l1-2l0,0l0,0v1l0,0h1v1l0,0h1l0,0l0,0l1-1c0.7-0.7,1-0.3,1,1c1.3,1.3,2,2.3,2,3v1
	h1l0,0v-1h1v-2c0.7-2,1.3-3,2-3s1-0.7,1-2c0-0.7,0.3-1.3,1-2c0,0,0-0.7,0-2c-0.7-0.7,0-1,2-1c2.7-0.7,4.3-1,5-1s2.3-0.3,5-1h5v1l1,1
	v1l0,0v2c0,1.3,0.7,1.3,2,0c0.7,0,1-0.3,1-1h1v1v2h-1l0,0l-2,1c-1.3,0.7-2,2.3-2,5l-1,3l0,0v1l2,1c0.7,0.7,2,1,4,1
	c1.3,0,1.7,0.7,1,2s-0.3,1.7,1,1c1.3,0,2,0.3,2,1s-0.3,1-1,1c-0.7,0.7-1,1-1,1l0,0l-1,1l-1,1l0,0l0,0h2c1.3-0.7,2.3-1.3,3-2l1-1v1v2
	l-1,2l-1,1l0,0v1l0,0l0,0h-1l0,0v1h-1v1v1h1v-1l0,0h1l0,0l0,0v-1l0,0h1v-1l0,0h1v-1v-1h1l0,0v-1h1v-1v-1l1-1c0.7-1.3,1-2.7,1-4
	c0-0.7,0.3-2.7,1-6c0.7-4-0.3-8.7-3-14c-1.3-4.7-3.3-8.3-6-11s-6.7-5-12-7l-8-3h-1v-1l0,0h-1l0,0l0,0v-1l0,0h-1v-1l0,0h-1l0,0l0,0
	v-1l0,0h-1v-1h1h1v1h1l0,0v1l2-1c1.3,0,1.7-0.3,1-1s-1-1-1-1v-1l2,1c1.3,0.7,2,1.3,2,2v1h2h1v-2c-0.7-0.7-1-1.3-1-2v-1l-1-1v-1h1h1
	l1,2c0.7,2,1,3,1,3h1l0,0l0,0v1l0,0l1-3l1-4l0,0l0,0v1l0,0l1,4c0,2.7,0.3,4,1,4l1,1h1h1l1,1h2v-3c0-1.3,0.7-1.3,2,0c0,0.7,0.3,0,1-2
	l1-2l0,0l0,0l1,1c0.7,0.7,1,1.7,1,3v1l1,1l1,2v-3c0-2-0.3-3.7-1-5v-1h1l1,1l0,0h1l0,0l0,0v1l0,0l2,1c1.3,1.3,2,2,2,2l0,0v1l0,0h1v1
	l0,0h1l0,0l0,0v1l0,0h1v1l0,0h1v-1v-1l-1-1l-1-1v-1c0-0.7-0.7-1.3-2-2v-1l-1-1v-1v-1l1-1l0,0l0,0v1l0,0h1v1h6c4,0,6.3-0.7,7-2
	c1.3,0,6.3,0,15,0c8.7,0.7,13,1.3,13,2c0.7,0,3.3,0.3,8,1s7.3,0.7,8,0c0-0.7,2-0.7,6,0c3.3,0.7,5.3,0.7,6,0
	C911.3,410.3,912.7,410,914,410z M818,460c0,0,0-0.3,0-1C818,459,818,459.3,818,460L818,460z M873,518L873,518v-1c0.7,0,1,0.3,1,1
	l0,0H873z"/>
<path id="svg_155" class="st0" d="M421,621l-31-7l27,2c18,1.3,31.7,3,41,5c8.7,2,13.3,3,14,3h2l2,1c2,0.7,4,1,6,1h2l2,1l2,1h2h3v1
	l0,0h-5c-4,0.7-9.3,1-16,1s-11,0-13,0l-3-1h-2C452.7,628.3,441.7,625.7,421,621z"/>
<path id="svg_156" class="st0" d="M1097,552v-1l2,1c1.3,0,2,0.3,2,1c-0.7,0.7-1,1-1,1l0,0l0,0c-0.7,0-1.3,0.7-2,2c-0.7,2-1.3,3-2,3
	l-2-1h-1h-1v-1l0,0h-1l0,0l0,0c0-0.7-0.3-1-1-1c-1.3,0-2-0.3-2-1s0.3-1,1-1l1-1l3-1C1095,552,1096.3,552,1097,552z"/>
</svg>
