<?xml version="1.0" encoding="utf-8"?>
<!-- Generator: Adobe Illustrator 22.1.0, SVG Export Plug-In . SVG Version: 6.00 Build 0)  -->
<svg version="1.1" id="Layer_1" xmlns="http://www.w3.org/2000/svg" xmlns:xlink="http://www.w3.org/1999/xlink" x="0px" y="0px"
	 viewBox="0 0 1280 1280" style="enable-background:new 0 0 1280 1280;" xml:space="preserve">
<style type="text/css">
	.st0{fill:none;stroke:#000000;stroke-width:4;stroke-miterlimit:10;}
</style>
<g transform="translate(0.000000,1280.000000) scale(0.100000,-0.100000)">
	<path class="st0" d="M11241,8109c-271-58-564-218-911-498c-368-296-560-417-825-516c-295-111-619-116-920-13
		c-249,84-471,218-796,479c-80,65-195,151-255,192c-567,389-1112,468-1676,241c-220-88-427-217-703-439c-306-246-562-400-795-479
		c-271-91-558-90-827,5c-239,85-461,223-828,518c-377,302-681,456-1010,508c-131,21-373,13-496-16c-271-62-582-223-863-446
		c-47-38-86-72-86-77c0-11,280-428,288-428c2,0,48,33,101,74c507,388,882,458,1315,248c160-78,291-166,521-351
		c236-190,430-320,627-421c223-114,394-172,618-211c106-19,383-16,500,4c385,66,763,260,1215,622c209,168,346,260,490,330
		c203,99,352,135,552,135c335,0,615-123,1023-451c424-340,748-519,1105-609c164-42,280-53,483-48c286,8,495,64,797,213
		c206,101,411,236,635,416c227,183,346,270,455,335c292,171,519,202,786,104c144-52,333-168,522-320c48-38,91-70,95-70
		s72,97,152,216l145,215l-25,20c-364,290-605,428-885,506C11636,8133,11378,8139,11241,8109z"/>
	<path class="st0" d="M11276,6634c-219-40-480-162-741-348c-38-28-146-111-240-186c-364-290-581-420-841-506c-158-51-259-68-424-68
		c-228,0-404,42-640,155c-201,97-336,185-590,389c-248,198-368,278-571,379c-508,253-993,254-1504,2c-175-86-336-192-530-347
		c-296-237-424-323-620-419c-238-117-407-159-630-158c-212,1-375,42-600,153c-188,92-343,198-635,433c-341,276-648,436-960,503
		c-118,26-389,26-514,1c-214-43-462-152-686-302c-167-111-295-213-294-233c0-10,64-111,141-225l141-208l34,29c18,16,76,60,128,99
		c477,349,841,406,1266,198c145-71,280-163,489-330c198-159,350-268,490-352c600-360,1161-407,1751-145c238,106,469,256,788,514
		c194,157,399,283,566,347c256,99,535,106,795,20c202-67,391-181,670-405c322-258,636-446,905-541c708-251,1374-75,2155,569
		c280,231,474,351,665,413c123,40,283,46,415,16c167-39,385-161,619-347l105-83l146,215c171,252,172,209-8,346
		c-398,303-726,440-1051,437C11405,6649,11319,6642,11276,6634z"/>
	<path class="st0" d="M11300,5155c-299-49-631-227-1015-545c-364-302-694-480-1005-546c-41-8-131-18-200-21
		c-393-18-784,146-1260,527c-277,222-434,327-626,416c-669,310-1303,197-1990-358c-247-199-344-268-517-368
		c-359-206-697-266-1029-181c-275,69-526,211-878,496c-413,334-692,486-1024,557c-143,30-389,30-529,0c-230-50-457-152-687-306
		c-139-94-290-211-290-225c0-6,271-415,285-429c2-2,46,30,98,71c258,202,483,316,705,358c38,7,112,10,195,6c160-6,257-31,427-113
		c148-71,273-155,487-326c195-157,311-242,431-317c310-194,593-304,879-342c131-17,399-6,528,21c369,78,726,268,1155,614
		c319,258,548,383,812,442c101,23,345,23,448,0c119-26,196-54,325-116c146-70,275-156,460-304c333-267,541-400,801-512
		c537-233,1046-217,1589,51c241,118,397,222,702,466c357,286,563,402,781,440c87,15,238,6,332-21c157-45,370-168,585-338
		c55-44,103-78,107-76c3,2,70,99,148,215c138,205,142,212,124,229c-45,43-229,180-339,253c-135,89-342,194-455,231
		C11682,5162,11464,5182,11300,5155z"/>
</g>
</svg>
