<?xml version='1.0' encoding='utf-8'?>
<svg xmlns="http://www.w3.org/2000/svg" width="2000" height="3000" id="svg2" version="1.1"> <defs id="defs3"> </defs> <metadata id="metadata6"> </metadata> <g id="layer1" transform="translate(0,1947.6378)"> <path style="fill:#000000;fill-rule:evenodd;stroke:none" d="m 1402.5739,-1333.1229 c 0.1361,-0.4065 5.6261,1.0147 15.8602,3.9272 10.2341,2.9125 25.2155,7.31 44.3875,12.6775 38.344,10.735 93.4929,25.3483 160.926,38.9019 55.3126,12.054 118.8086,23.6717 187.656,32.1746 -6.0692,-14.1567 -16.7794,-27.0656 -30.7667,-36.1117 -11.9524,-9.6 -26.3717,-16.4391 -41.4961,-19.4888 0.088,-1.4743 0.1756,-2.95 0.2636,-4.4272 1.7251,-28.9663 3.4309,-57.3959 5.1128,-85.1043 -32.5129,-13.5411 -64.8108,-24.5537 -96.1359,-33.3592 -23.6816,-7.5085 -46.8271,-13.6469 -69.1303,-18.6062 -12.7826,11.7143 -22.9042,25.4554 -30.246,39.8313 -6.8271,11.8316 -11.7941,24.0413 -15.1423,36.035 -3.3482,11.9937 -5.0785,23.7723 -5.4914,34.9341 -8.1254,-4.847 -16.503,-8.5434 -24.7352,-11.2491 -8.2322,-2.7056 -16.3204,-4.4213 -23.9996,-5.3494 -6.1977,-0.9216 -12.1539,-1.2526 -17.7647,-1.1721 -5.6108,0.081 -10.877,0.5724 -15.7418,1.316 -9.7297,1.4871 -17.8323,3.9606 -24.2388,6.3832 -6.4065,2.4225 -11.1411,4.7922 -14.3304,6.4107 -3.1892,1.6185 -4.8511,2.4813 -4.9869,2.2765 -0.1358,-0.2048 1.2595,-1.4721 4.2482,-3.521 2.9888,-2.0488 7.5885,-4.8761 13.9814,-7.78 6.3929,-2.9038 14.6032,-5.8828 24.6143,-7.8451 5.0055,-0.9812 10.4559,-1.7023 16.3007,-1.9915 5.8447,-0.2893 12.0846,-0.1467 18.6218,0.6221 7.4554,1.081 15.2577,3.0627 23.1292,6.1794 7.8714,3.1166 15.8133,7.3692 23.4152,12.9519 -0.4203,-11.3463 0.4049,-23.3055 2.8158,-35.4661 2.4108,-12.1605 6.4084,-24.5235 12.2803,-36.4838 8.6488,-15.5828 20.4281,-30.5837 35.2585,-43.5382 23.6668,4.4591 48.3827,10.0973 73.7888,17.1235 32.6339,10.1325 66.378,22.759 100.3777,38.1004 -2.0028,27.5621 -4.0787,55.8573 -6.2081,84.7077 -0.1086,1.4713 -0.2171,2.9412 -0.3255,4.4096 15.4329,1.5399 29.9738,7.3025 41.8735,16.241 13.7761,12.5324 23.8005,29.1921 28.7827,47.2577 -35.5978,-3.1346 -69.8027,-7.1577 -102.1828,-11.8155 -32.3801,-4.6577 -62.9353,-9.9489 -91.2784,-15.5595 -33.7692,-7.2479 -64.4227,-14.8345 -91.3767,-22.1212 -26.954,-7.2867 -50.2107,-14.2686 -69.2274,-20.3259 -19.0166,-6.0573 -33.7962,-11.1845 -43.7976,-14.8565 -10.0013,-3.672 -15.2277,-5.8825 -15.0916,-6.289 z" id="path2995"/> <path style="fill:#000000;fill-rule:evenodd;stroke:none" d="m 1733.0741,-1243.7985 c 0.485,0.2263 -6.3606,16.1135 -19.5229,45.4325 -4.3529,6.2252 -9.1949,13.1092 -14.5042,20.6177 0.053,6.2092 0.1023,12.7491 0.1467,19.6018 6.5742,7.3079 13.6048,15.1249 21.0719,23.4274 1.9738,7.6032 4.0273,15.526 6.1579,23.7587 9.1304,10.8815 20.8449,20.8276 34.8816,28.3375 6.0382,3.3042 12.5056,6.1532 19.3046,8.708 6.799,2.5548 13.9298,4.8152 21.2597,7.0022 6.8161,2.0246 13.8326,3.9893 20.9689,6.1364 7.1363,2.1471 14.3925,4.4766 21.6693,7.2844 8.6276,3.3213 17.2627,7.365 25.5587,12.3482 8.2959,4.9832 16.2528,10.9057 23.4534,18.0145 6.7131,6.6526 12.6486,14.2969 17.5485,22.7243 4.8999,8.42748 8.7642,17.63812 11.3057,27.37025 2.4142,9.09401 3.6338,18.619 3.5615,28.26022 -0.072,9.64123 -1.4365,19.39872 -4.1875,28.90696 2.9233,33.80476 3.56,69.23906 1.3428,105.77241 -2.2172,36.53334 -7.2894,74.16515 -15.7128,112.1976 -3.0525,13.80525 -6.5298,27.61894 -10.102,41.50845 -3.5722,13.88951 -7.2391,27.85486 -10.6312,41.97351 -1.9842,8.36072 -4.0131,17.16345 -7.7985,25.7232 -3.7219,8.53751 -9.6464,16.66402 -18.1796,21.98632 -8.1859,4.4246 -18.6386,4.61326 -27.9114,0.0428 19.2231,36.03943 32.7944,75.80525 39.2571,117.22145 2.5384,19.96195 3.517,40.14465 3.921,60.38893 0.1269,6.35355 0.1974,12.68636 0.2445,18.99358 0.21,26.65655 0.041,52.94121 1.8036,78.71313 0.9849,14.43205 2.548,28.92732 3.0909,43.56497 0.5628,14.72004 -0.019,29.65744 -3.2561,44.19642 -2.1294,9.42337 -5.2174,18.24842 -7.6934,26.89886 -2.4324,8.64679 -4.3628,17.20508 -4.1555,25.52334 0.1155,10.82429 3.8233,21.6941 7.3959,32.79635 3.7478,11.24197 7.4094,23.178935 7.3971,35.817998 -0.1787,11.645668 -3.4112,22.427242 -6.4659,32.528322 -2.9907,10.271231 -5.8777,20.21519 -5.5558,29.840934 0.1389,8.312646 2.6753,16.8338148 4.6262,25.8191455 2.1118,9.1167575 3.4154,19.0938745 1.0854,28.9886805 -2.7105,11.932885 -11.4026,21.755486 -22.542,25.993078 -4.5839,7.058054 -9.1346,14.067645 -13.6512,21.027552 0,1.8e-5 0,3.6e-5 0,5.4e-5 1.078,2.418304 2.1519,4.832191 3.2217,7.241637 1.9964,8.06891 3.9749,16.068769 5.935,23.997569 3.2614,13.14953 6.2542,26.29332 8.3939,39.38498 2.1397,13.09165 3.4264,26.13116 3.3928,39.0745 -0.029,15.08854 -1.7597,29.84735 -4.9119,43.95294 -3.1521,14.10558 -7.7258,27.55815 -13.4557,40.11788 0.9677,34.80562 1.8478,67.45279 2.6333,97.68637 -6.1191,51.20563 -11.468,95.3815 -15.9026,131.31001 -19.7312,66.66021 -31.189,103.99896 -31.9623,103.77802 -0.7733,-0.22094 9.2185,-37.95586 27.5873,-104.64543 3.7252,-35.87747 8.3942,-79.85967 13.8722,-130.70812 -1.0562,-30.5428 -2.1663,-63.57105 -3.3216,-98.82731 5.4605,-12.38117 9.8057,-25.62931 12.7852,-39.50194 2.9796,-13.87263 4.5933,-28.36994 4.5769,-43.16592 -0.023,-12.3861 -1.3584,-24.95638 -3.5394,-37.69152 -2.181,-12.73513 -5.2073,-25.63513 -8.4939,-38.67804 -1.9752,-7.81266 -3.967,-15.693988 -5.9748,-23.642087 -0.9088,-3.526469 -1.8199,-7.067573 -2.7333,-10.62313 0,-2.6e-5 0,-5.3e-5 0,-7.9e-5 5.3178,-8.775109 10.693,-17.646989 16.1236,-26.612112 9.0341,-3.705361 16.555,-12.111146 19.1428,-21.646578 1.9769,-7.556662 0.6108,-16.112247 -1.2469,-24.80867 -1.9609,-8.56888341 -4.6033,-17.648817 -4.9515,-27.572788 -0.2423,-11.499635 2.7335,-22.443451 5.8225,-32.760318 2.9336,-10.177822 6.0037,-20.115085 5.9756,-29.924562 0.1512,-10.645153 -3.3833,-21.530346 -7.0172,-32.741406 -3.7037,-11.03026 -7.5998,-22.81488 -7.9646,-35.60827 -0.1623,-9.85788 1.8712,-19.3853 4.4674,-28.40054 2.5565,-9.02568 5.5834,-17.68152 7.5035,-26.3665 2.9998,-13.3516 3.4792,-27.4415 2.9586,-41.67896 -0.5351,-14.17165 -2.1088,-28.55651 -3.1238,-43.25349 -1.8094,-26.26369 -1.6626,-52.75744 -1.87,-79.31655 -0.052,-6.28401 -0.1238,-12.5765 -0.2494,-18.87245 -0.4,-20.06073 -1.3449,-39.88641 -3.8213,-59.32814 -4.2364,-42.65287 -15.4276,-83.68359 -32.2025,-120.97691 8.3853,1.36368 18.097,-0.76384 25.6832,-5.91215 6.3666,-3.72116 11.0379,-10.38778 14.3805,-17.60247 3.3502,-7.35107 5.2108,-15.5938 7.2812,-24.01239 3.4611,-14.24194 7.1795,-28.24525 10.7875,-42.09466 3.6079,-13.84941 7.1052,-27.54496 10.1639,-41.1622 8.478,-37.80836 13.673,-75.22255 16.0675,-111.54972 2.3945,-36.32718 1.9896,-71.56677 -0.6627,-105.19229 2.6244,-9.01173 3.9736,-18.28792 4.1284,-27.46387 0.1547,-9.17594 -0.8852,-18.25168 -3.0367,-26.91317 -2.2832,-9.03087 -5.8088,-17.62008 -10.3045,-25.49839 -4.4957,-7.8783 -9.9614,-15.0458 -16.1535,-21.2864 -6.6249,-6.7037 -14.0702,-12.3378 -21.9112,-17.131 -7.8409,-4.7932 -16.0777,-8.7455 -24.3562,-12.0559 -6.9959,-2.791 -14.0678,-5.1391 -21.1,-7.3346 -7.0322,-2.1955 -14.0247,-4.2381 -20.8811,-6.3648 -7.3801,-2.2792 -14.6302,-4.6767 -21.6,-7.403 -6.9698,-2.7264 -13.6595,-5.7815 -19.9552,-9.3162 -14.8316,-8.497 -27.0893,-19.4236 -36.5778,-31.2121 -1.9951,-8.27 -3.9133,-16.2336 -5.7521,-23.8809 -7.3221,-8.5993 -14.1995,-16.6771 -20.6129,-24.2122 0.044,-7.8244 0.093,-15.1876 0.1467,-22.083 5.5777,-7.7333 10.6745,-14.7636 15.2706,-21.0669 13.9019,-28.6757 21.6769,-44.1182 22.1619,-43.8919 z" id="path3007"/> <path style="fill:#000000;fill-rule:evenodd;stroke:none" d="m 1637.7948,-276.11776 c 1.7282,-0.054 5.6162,75.57635 10.1037,190.588105 -2.5854,68.596245 -6.0328,151.214609 -10.0754,240.061445 -0.3429,7.53508 -0.6859,15.02496 -1.0289,22.46489 -5.1687,29.41202 -10.2334,58.02747 -15.1351,85.55595 4.0272,14.07726 7.9599,27.86318 11.786,41.31648 -0.6643,53.92811 -2.157,102.65617 -3.9369,143.66023 0,1e-5 0,2e-5 0,3e-5 -1.8187,41.28709 -3.9055,74.77591 -5.6718,97.93034 -1.7663,23.15442 -3.1943,35.97642 -3.9065,35.93662 -0.7122,-0.0398 -0.6393,-12.93628 -0.1005,-36.13588 0.5388,-23.19961 1.5256,-56.7041 2.432,-97.97031 0,-1e-5 0,-1e-5 0,-2e-5 0.9168,-40.68967 1.7537,-88.89479 2.0181,-142.17779 -3.9268,-13.68187 -7.9423,-27.71471 -12.0338,-42.05294 4.6752,-28.01726 9.5709,-57.17233 14.6397,-87.13785 0.3321,-7.41241 0.6687,-14.87404 1.0095,-22.38026 4.0189,-88.506465 8.0657,-170.759402 11.706,-239.129781 -2.6942,-114.807139 -3.5343,-190.475259 -1.8061,-190.529259 z" id="path3013"/> <path style="fill:#000000;fill-rule:evenodd;stroke:none" d="m 1646.7272,-121.28882 c 0.5135,-0.0387 1.438,5.51394 2.6562,15.86533 1.2182,10.351377 2.7273,25.501817 4.35,44.659834 3.2453,38.316035 6.9249,92.670547 9.4967,156.673748 1.7436,43.432238 2.9712,91.299038 3.3389,141.583998 0.01,1.38993 0.02,2.77803 0.029,4.16426 5.2452,45.23564 10.1398,88.46804 14.5314,128.1939 -2.9783,50.23885 -3.9796,94.98415 -4.2141,131.12333 -0.1941,29.53961 0.103,53.34924 0.2173,69.78161 0.1144,16.43237 0.023,25.49117 -0.6301,25.52644 -0.653,0.0353 -1.8095,-8.95816 -3.0695,-25.37164 -1.26,-16.41348 -2.6003,-40.25099 -3.2983,-69.87867 -0.8496,-36.08839 -0.703,-80.75288 1.7409,-130.89505 -4.8353,-39.62502 -9.9812,-82.74142 -15.2434,-127.86932 -0.01,-1.38876 -0.02,-2.77941 -0.03,-4.1719 -0.3786,-50.37767 -1.3275,-98.3491 -2.5576,-141.872818 -1.8029,-63.918333 -4.2113,-118.255772 -5.8658,-156.632972 -0.8273,-19.1886 -1.461,-34.387996 -1.7461,-44.8011 -0.285,-10.41311 -0.2185,-16.04024 0.295,-16.07898 z" id="path3019"/> <path style="fill:#000000;fill-rule:evenodd;stroke:none" d="m 1435.3262,-1020.4876 c 0.5535,-0.1038 2.0345,4.9826 4.4201,14.4064 2.3856,9.42386 5.6863,23.18446 10.0581,40.39087 4.3718,17.20642 9.8232,37.85798 16.5466,61.0351 6.7233,23.17711 14.7249,48.87834 24.1236,76.17067 10e-5,10e-6 10e-5,2e-5 10e-5,2e-5 4.2379,12.28987 8.7846,24.96387 13.239,38.05663 4.4543,13.09275 8.8142,26.60495 12.5696,40.58933 2.1918,8.16216 4.1297,16.32092 5.7389,24.47601 3.8134,19.18304 5.5899,38.49457 4.8097,56.85496 -0.7802,18.36039 -4.1201,35.76354 -9.9349,51.48563 -5.0942,13.6667 -11.996,25.79711 -19.7331,36.16392 -7.737,10.36681 -16.3073,18.97358 -24.9046,25.90935 0,0 0,10e-6 0,10e-6 -9.3123,7.50995 -18.6218,13.05961 -27.1068,17.15562 -8.485,4.09601 -16.1512,6.74788 -22.4934,8.50043 -6.3423,1.75255 -11.3675,2.61626 -14.7879,3.02303 -3.4205,0.40677 -5.2413,0.3665 -5.2973,0.0436 -0.056,-0.3229 1.6537,-0.91445 4.9006,-1.91844 3.2468,-1.00399 8.0353,-2.43111 14.0412,-4.67811 6.006,-2.24699 13.2363,-5.32435 21.1811,-9.72126 7.9447,-4.39691 16.6099,-10.1222 25.2001,-17.61162 0,-10e-6 0,-10e-6 0,-10e-6 7.933,-6.91396 15.7967,-15.34903 22.851,-25.35976 7.0544,-10.01074 13.2985,-21.60005 17.8363,-34.51854 5.2617,-14.8502 8.1543,-31.32338 8.6698,-48.81996 0.5155,-17.49658 -1.3418,-36.01243 -5.0038,-54.57342 -1.5711,-7.90214 -3.4661,-15.84041 -5.6112,-23.82027 -3.6752,-13.67205 -7.9464,-26.99595 -12.3043,-40.01533 -4.3579,-13.01938 -8.8002,-25.73459 -12.9228,-38.15558 0,-10e-6 0,-2e-5 0,-2e-5 -9.1655,-27.57742 -16.7652,-53.58449 -22.944,-77.05661 -6.1788,-23.47212 -10.9431,-44.40773 -14.5166,-61.87415 -3.5734,-17.46642 -5.9647,-31.46301 -7.3634,-41.1052 -1.3986,-9.6422 -1.8152,-14.9295 -1.2617,-15.0333 z" id="path3025"/> <path style="fill:#000000;fill-rule:evenodd;stroke:none" d="m 1759.8714,-1088.9696 c 0.3089,-0.1409 1.3352,1.3 2.9854,4.1906 1.6501,2.8905 3.9231,7.2313 6.686,12.905 5.5258,11.3475 13.0218,28.0318 21.1609,49.1455 8.1391,21.1138 16.8987,46.66942 24.9128,75.59989 8.0141,28.93048 15.2647,61.23778 20.6527,95.58522 0,1e-5 0,2e-5 0,3e-5 0.349,2.2248 0.6903,4.45806 1.0237,6.69935 5.2308,35.1625 7.9822,68.98095 8.9193,99.76943 0.9371,30.78848 0.079,58.54288 -1.5394,81.76627 -1.6182,23.2234 -3.9691,41.92137 -5.9934,54.77426 -1.0121,6.42644 -1.9447,11.39387 -2.6992,14.7438 -0.7546,3.34993 -1.3298,5.08269 -1.6718,5.03716 -0.342,-0.0455 -0.4346,-1.86698 -0.3266,-5.29159 0.108,-3.42462 0.4154,-8.45271 0.83,-14.91742 0.8292,-12.92942 2.0945,-31.61043 2.7998,-54.70046 0.7054,-23.09003 0.8247,-50.59468 -0.6063,-81.05606 -1.431,-30.46138 -4.4298,-63.87604 -9.6035,-98.65396 -0.3298,-2.21679 -0.6662,-4.42577 -1.0092,-6.62658 0,0 0,-1e-5 0,-2e-5 -5.2946,-33.9772 -12.1693,-65.98854 -19.6048,-94.76577 -7.4355,-28.77724 -15.4153,-54.32248 -22.6484,-75.58215 -7.2332,-21.2596 -13.6981,-38.2458 -18.1183,-50.0114 -2.2101,-5.8828 -3.9111,-10.461 -4.9735,-13.6077 -1.0624,-3.1467 -1.4851,-4.8625 -1.1762,-5.0034 z" id="path3031"/> <path style="fill:#000000;fill-rule:evenodd;stroke:none" d="m 1554.4253,-627.46032 c 0.1952,-0.6618 4.0574,-0.16138 10.9005,1.02365 6.8432,1.18503 16.6797,3.03085 28.8813,4.77853 12.2017,1.74769 26.7756,3.38006 42.9984,4.16347 16.2228,0.7834 34.0929,0.7065 52.7497,-0.72613 19.3608,-1.48669 37.6507,-4.29162 54.0102,-7.74753 11.6774,-2.46632 22.3785,-5.24185 31.8546,-7.98223 9.4761,-2.74039 17.7288,-5.4424 24.5473,-7.74889 6.8185,-2.30649 12.2059,-4.21355 15.9535,-5.40443 3.7476,-1.19088 5.8591,-1.66066 6.0777,-1.1988 0.2186,0.46186 -1.4722,1.82403 -4.8638,3.87337 -3.3916,2.04935 -8.4878,4.78116 -15.1101,7.86233 -6.6223,3.08118 -14.7739,6.50762 -24.2538,9.89198 -9.48,3.38436 -20.2899,6.72292 -32.1682,9.63263 -16.6485,4.0774 -35.403,7.26503 -55.2816,8.79226 -19.1558,1.4717 -37.5162,1.26556 -54.1035,-0.0487 -16.5873,-1.31428 -31.3991,-3.7226 -43.6691,-6.4026 -12.27,-2.68 -22.0054,-5.61254 -28.6142,-7.97271 -6.6088,-2.36017 -10.1041,-4.12437 -9.9089,-4.78617 z" id="path3037"/> <path style="fill:#000000;fill-rule:evenodd;stroke:none" d="m 1468.0784,-1044.3074 c 1.2298,-0.3484 7.8821,18.8514 17.8329,50.73378 9.9508,31.88241 23.2002,76.44762 37.6097,126.7696 0,1e-5 0,1e-5 0,2e-5 1.598,8.18256 3.213,16.51409 4.8387,24.96588 11.0146,57.26409 20.4455,109.25554 26.7802,146.98008 6.3347,37.72453 9.5731,61.18215 8.2179,61.44276 -1.3552,0.26061 -7.0463,-22.71512 -15.1423,-60.03018 -8.096,-37.31507 -18.597,-88.96947 -29.5872,-146.1304 -1.622,-8.43657 -3.2097,-16.7586 -4.7581,-24.93746 0,0 0,-10e-6 0,-10e-6 -14.0926,-50.27358 -26.1518,-95.03273 -34.3841,-127.32579 -8.2322,-32.29308 -12.6375,-52.11988 -11.4077,-52.46828 z" id="path3043"/> <path style="fill:#000000;fill-rule:evenodd;stroke:none" d="m 1810.4886,-1056.2174 c 0.3165,-0.1374 1.3322,1.3409 2.9452,4.3024 1.613,2.9616 3.8219,7.4073 6.4701,13.2232 5.2964,11.6317 12.364,28.7556 19.5908,50.46403 7.2268,21.70848 14.5808,48.01901 20.4144,77.7373 5.8336,29.7183 10.1213,62.84347 11.6127,97.76918 0.2647,6.19937 0.4385,12.35081 0.5252,18.4441 0,10e-6 0,10e-6 0,2e-5 0.4664,32.80402 -1.6209,63.88696 -5.2025,91.80752 -3.5817,27.92056 -8.6366,52.67824 -13.7947,73.14985 -5.1582,20.47161 -10.3926,36.66994 -14.3848,47.69616 -1.9962,5.51312 -3.685,9.73552 -4.9417,12.55599 -1.2566,2.82047 -2.08,4.23964 -2.3924,4.13441 -0.3124,-0.10523 -0.1001,-1.72985 0.5613,-4.73707 0.6614,-3.00723 1.7706,-7.39765 3.2062,-13.04957 2.8712,-11.30383 7.0591,-27.65897 11.2994,-48.12701 4.2403,-20.46803 8.5074,-45.06145 11.5094,-72.68215 3.002,-27.6207 4.7199,-58.26841 4.1672,-90.59209 0,-10e-6 0,-10e-6 0,-2e-5 -0.1026,-6.00379 -0.2824,-12.06477 -0.5432,-18.17354 -1.4694,-34.41534 -5.4162,-67.08036 -10.6781,-96.49657 -5.262,-29.41622 -11.8164,-55.583 -18.1093,-77.33651 -6.2929,-21.75353 -12.2941,-39.11073 -16.4528,-51.11903 -2.0793,-6.0041 -3.7008,-10.6728 -4.7111,-13.8798 -1.0102,-3.2071 -1.4078,-4.9534 -1.0913,-5.0908 z" id="path3049"/> <path style="fill:#000000;fill-rule:nonzero;stroke:none" d="m 1703.2993,-439.87912 c -0.079,-0.6579 1.5924,-1.48859 4.6721,-2.47632 3.0796,-0.98774 7.5672,-2.13656 13.1224,-3.48393 5.5551,-1.34737 12.1776,-2.89629 19.5323,-4.6847 7.3546,-1.78842 15.441,-3.81831 23.9335,-6.091 0,0 0,0 0,0 1.4026,-0.37535 2.8163,-0.7572 4.2396,-1.14543 8.9744,-2.44769 17.4872,-4.92307 25.2202,-7.2469 7.733,-2.32383 14.6868,-4.49388 20.5565,-6.28392 5.8697,-1.79004 10.6568,-3.19687 14.0528,-3.98785 3.3959,-0.79098 5.4029,-0.96174 5.6797,-0.32969 0.2768,0.63205 -1.2047,2.00839 -4.16,3.9119 -2.9554,1.90351 -7.3872,4.32995 -13.0171,6.99768 -5.63,2.66774 -12.4598,5.57326 -20.1849,8.42836 -7.7252,2.8551 -16.3462,5.65704 -25.5158,8.15801 -1.4544,0.39668 -2.9007,0.77998 -4.3374,1.14992 0,0 0,0 0,0 -8.6985,2.23993 -17.0395,3.98494 -24.6475,5.27712 -7.608,1.29218 -14.4824,2.1338 -20.2632,2.61091 -5.7809,0.47711 -10.4679,0.59294 -13.7237,0.43608 -3.2558,-0.15686 -5.0803,-0.58234 -5.1595,-1.24024 z" id="path3055"/> <path style="fill:#000000;fill-rule:evenodd;stroke:none" d="m 1715.2092,-407.12684 c 0.5807,-0.0911 1.5023,2.3142 2.8453,6.74547 1.343,4.43127 3.1205,10.88954 5.6016,18.86328 2.4811,7.97374 5.6759,17.46357 9.8666,27.90146 4.1907,10.4379 9.3837,21.82185 15.7524,33.53666 0,10e-6 0,10e-6 0,10e-6 4.4295,8.1493 9.433,16.45454 14.9999,24.72055 9.3925,13.94653 19.5059,26.44355 29.3931,37.19247 9.8871,10.74891 19.5373,19.75552 27.9277,27.01492 8.3904,7.25941 15.5128,12.78992 20.4068,16.69946 4.8939,3.90954 7.55,6.22624 7.1932,6.81682 -0.3568,0.59058 -3.6996,-0.60312 -9.3204,-3.55887 -5.6208,-2.95575 -13.5112,-7.70227 -22.6833,-14.42674 -9.1721,-6.72447 -19.6159,-15.44715 -30.197,-26.19057 -10.5812,-10.74342 -21.2856,-23.51535 -31.014,-37.96213 -5.766,-8.5625 -10.8668,-17.22374 -15.2882,-25.75093 0,0 0,-10e-6 0,-10e-6 -6.352,-12.25291 -11.3028,-24.20616 -15.054,-35.16542 -3.7512,-10.95926 -6.3106,-20.92175 -8.01,-29.28542 -1.6993,-8.36367 -2.5496,-15.12895 -2.8715,-19.80263 -0.322,-4.67367 -0.1289,-7.25732 0.4518,-7.34838 z" id="path3067"/> <path style="fill:#000000;fill-rule:evenodd;stroke:none" d="m 1628.8623,313.42315 c 0.2033,0.56937 -1.4647,1.79377 -4.7434,3.4766 -3.2787,1.68283 -8.1712,3.81888 -14.4254,6.11472 -6.2541,2.29584 -13.8721,4.74704 -22.5706,7.03562 -8.6985,2.28858 -18.4783,4.41083 -29.0027,6.08543 0,0 0,0 0,0 -5.9475,0.94629 -12.1314,1.74995 -18.4825,2.37342 -12.827,1.25917 -25.1219,1.65426 -36.283,1.43137 -11.1611,-0.2229 -21.1873,-1.05742 -29.5494,-2.13917 -8.3621,-1.08175 -15.062,-2.40194 -19.6381,-3.59187 -4.5761,-1.18993 -7.0321,-2.23867 -6.9311,-2.92124 0.101,-0.68257 2.7459,-0.93562 7.4261,-0.93837 4.6802,-0.003 11.3988,0.23383 19.6725,0.40135 8.2737,0.16753 18.1044,0.2581 28.9951,-0.0245 10.8907,-0.28262 22.8409,-0.94358 35.3309,-2.16962 6.1844,-0.60707 12.2122,-1.32213 18.0247,-2.11632 0,0 0,0 0,0 10.2863,-1.40539 19.8979,-3.06009 28.5298,-4.73404 8.6319,-1.67396 16.2849,-3.36409 22.6769,-4.79879 6.3919,-1.43471 11.5248,-2.6099 15.1178,-3.26605 3.5931,-0.65614 5.6491,-0.78788 5.8524,-0.21851 z" id="path3079"/> <path style="fill:#000000;fill-rule:evenodd;stroke:none" d="m 1673.5245,325.33307 c 0.206,-0.65854 2.5662,-0.57929 6.6569,-0.0617 4.0906,0.51758 9.9199,1.45834 17.1161,2.35084 7.1962,0.89251 15.7641,1.72633 25.2802,2.04912 9.5161,0.32278 19.9793,0.12788 30.886,-0.89101 6.0172,-0.56214 11.8544,-1.34259 17.4345,-2.28834 0,0 10e-5,0 10e-5,0 8.7218,-1.47748 16.8173,-3.35402 24.0407,-5.32017 7.2233,-1.96616 13.5758,-4.01824 18.8644,-5.80502 5.2885,-1.78678 9.5169,-3.30355 12.5052,-4.21986 2.9883,-0.91631 4.7417,-1.22573 5.0223,-0.70125 0.2806,0.52448 -0.9371,1.84234 -3.4942,3.72683 -2.5571,1.8845 -6.4594,4.3296 -11.5704,6.97423 -5.1111,2.64463 -11.4353,5.48329 -18.7816,8.10661 -7.3464,2.62332 -15.7165,5.02614 -24.8203,6.83075 0,0 0,0 0,0 -5.8279,1.1547 -11.9515,2.06172 -18.2704,2.65231 -11.4536,1.07048 -22.4552,0.98695 -32.3734,0.13259 -9.9183,-0.85436 -18.7513,-2.46963 -26.0296,-4.29871 -7.2782,-1.82908 -13.0066,-3.8592 -16.8528,-5.55034 -3.8463,-1.69114 -5.8197,-3.02833 -5.6137,-3.68687 z" id="path3085"/> <path style="fill:#000000;fill-rule:evenodd;stroke:none" d="m 1468.0784,587.3512 c -0.1155,0.2711 -1.6011,-0.0697 -4.3672,-0.85079 -2.7661,-0.78111 -6.8183,-1.99871 -12.1153,-3.29545 -5.297,-1.29674 -11.8458,-2.6697 -19.5575,-3.62582 -7.7117,-0.95612 -16.5927,-1.49301 -26.4053,-1.0214 -4.5497,0.23485 -9.3006,0.66848 -14.0781,1.56751 -4.7774,0.89902 -9.5819,2.26279 -14.165,4.46263 -3.9738,1.91966 -7.8464,4.49173 -11.1345,7.68783 -3.2881,3.19611 -5.9921,7.01634 -7.4864,11.3911 -2.1958,6.02143 -2.1088,13.17682 -0.022,19.87213 1.9822,6.35714 5.9065,12.36344 10.961,17.54792 4.7229,4.89364 10.4871,8.93098 16.9196,12.48761 6.4325,3.55664 13.5329,6.63316 20.8045,9.7237 13.846,5.77469 28.1527,11.44095 43.1791,15.41195 9.3881,2.47218 19.0851,4.2924 28.8814,4.92718 5.053,0.32742 10.0697,0.33366 15.021,-0.0315 13.0713,-0.3955 25.7701,-2.89736 37.3779,-7.11483 2.3373,4.95102 4.6482,9.85749 6.9296,14.71568 23.4547,-0.43099 45.794,0.31404 66.5974,1.90699 4.6484,0.42606 8.9956,0.88429 13.0565,0.67481 4.1862,-0.2434 8.1525,-1.02567 11.303,-2.83767 3.5525,-1.92807 6.391,-5.20228 8.3247,-8.82674 2.0413,-3.8329 3.0293,-8.20427 3.3718,-12.54005 0.3992,-4.78335 -0.1,-9.52807 -0.9072,-14.18351 -0.8075,-4.65544 -1.9246,-9.22152 -2.941,-13.65186 -3.4956,-15.03457 -6.0343,-28.11415 -7.8491,-38.74448 -8.8317,-17.17878 -13.524,-27.17475 -12.8253,-27.56289 0.6987,-0.38814 6.7258,8.91097 16.9495,26.03203 2.5499,10.49343 5.8147,23.54213 10.0157,38.67014 1.2236,4.34823 2.5451,8.98756 3.5533,13.95444 1.0082,4.96688 1.7041,10.26143 1.4969,15.92122 -0.2085,5.15413 -1.3109,10.55611 -3.7997,15.67867 -2.3742,4.89177 -6.1505,9.38261 -11.267,12.43252 -4.6219,2.65114 -9.8234,3.9249 -14.9284,4.22099 -4.9077,0.31127 -9.7015,-0.0639 -14.3067,-0.42886 -21.8861,-2.05619 -45.5195,-3.53835 -70.3666,-4.04801 -1.6484,-4.96631 -3.3086,-9.98753 -4.9804,-15.05932 -10.5072,5.59124 -22.0948,9.32588 -34.0815,10.75037 -5.4416,0.38971 -10.9137,0.38639 -16.3832,0.0394 -10.6039,-0.67273 -20.9425,-2.61488 -30.8089,-5.2841 -15.7629,-4.25042 -30.4494,-10.15413 -44.3752,-16.13225 -7.3621,-3.10236 -14.7682,-6.42839 -21.6782,-10.42989 -6.91,-4.00149 -13.3234,-8.67884 -18.8172,-14.35826 -5.8566,-6.10713 -10.3591,-13.41554 -12.7313,-21.32728 -2.5208,-8.40493 -2.3227,-17.39154 0.6558,-25.26281 2.2357,-5.64012 5.7121,-10.36543 9.7809,-14.17741 4.0689,-3.81197 8.7305,-6.71089 13.4799,-8.73932 5.3925,-2.3151 10.8083,-3.67566 16.0478,-4.48688 5.2395,-0.81122 10.3032,-1.07257 15.0618,-1.08186 10.2483,-0.0546 19.427,0.97098 27.3172,2.44107 7.8902,1.47008 14.4982,3.38205 19.7643,5.21749 5.2661,1.83545 9.1971,3.5916 11.7899,4.90773 2.5927,1.31613 3.8528,2.18903 3.7373,2.46013 z" id="path3121"/> <path style="fill:#000000;fill-rule:evenodd;stroke:none" d="m 1426.3937,-803.1316 c 0.6863,-0.0709 1.6719,2.56822 2.5491,7.49924 0.8771,4.93101 1.6155,12.16712 1.4605,21.14719 -0.1551,8.98007 -1.2281,19.70874 -3.9049,31.33724 -2.6768,11.62849 -6.9729,24.14722 -13.2035,36.45612 -2.9372,5.80248 -6.1662,11.29604 -9.5923,16.418 0,10e-6 0,10e-6 0,10e-6 -6.4105,9.57741 -13.474,17.82549 -20.4061,24.63003 -6.9321,6.80454 -13.7248,12.17249 -19.6495,16.22063 -5.9248,4.04813 -10.9771,6.78989 -14.576,8.41845 -3.5989,1.62855 -5.741,2.16083 -6.0467,1.63446 -0.3057,-0.52637 1.2452,-2.06599 4.2013,-4.5651 2.956,-2.4991 7.3131,-5.97443 12.4967,-10.54576 5.1835,-4.57134 11.1904,-10.25046 17.3726,-17.11331 6.1821,-6.86284 12.5343,-14.91417 18.3953,-24.06153 0,0 0,0 0,0 3.1315,-4.88424 6.1179,-10.08339 8.8845,-15.55056 5.869,-11.59758 10.1721,-23.29597 13.1878,-34.19905 3.0156,-10.90309 4.7532,-21.00414 5.7876,-29.5581 1.0343,-8.55396 1.3854,-15.56663 1.7085,-20.44944 0.3231,-4.88282 0.6488,-7.64763 1.3351,-7.71852 z" id="path3127"/> <path style="fill:#000000;fill-rule:evenodd;stroke:none" d="m 1256.6774,-791.22169 c 0.4559,0.18239 0.4583,1.40941 0.171,3.52819 -0.2873,2.11879 -0.8578,5.13445 -1.4322,8.93643 -0.5744,3.80198 -1.1479,8.39496 -1.4123,13.63464 -0.2643,5.23969 -0.2163,11.12831 0.4211,17.43489 1.0411,10.22198 3.6724,21.59663 8.644,32.65346 1.1963,2.6606 2.494,5.23083 3.8791,7.69809 0,0 0,0 0,1e-5 4.6401,8.28769 10.243,15.43274 15.9308,21.32705 5.6878,5.89432 11.4533,10.54193 16.5103,14.13738 5.057,3.59545 9.4056,6.15711 12.4038,8.01417 2.9982,1.85705 4.6463,3.03879 4.434,3.6448 -0.2123,0.60601 -2.2772,0.58255 -5.831,-0.28421 -3.5538,-0.86677 -8.5983,-2.60633 -14.4801,-5.66462 -5.8818,-3.0583 -12.5971,-7.45845 -19.2084,-13.47484 -6.6113,-6.01638 -13.1047,-13.65938 -18.3908,-22.77729 0,-10e-6 0,-10e-6 0,-10e-6 -1.5755,-2.72417 -3.0365,-5.57071 -4.3634,-8.52149 -2.7573,-6.13139 -4.7814,-12.37563 -6.1553,-18.47663 -1.3738,-6.101 -2.0984,-12.05737 -2.3166,-17.65907 -0.2743,-6.91135 0.2218,-13.28838 1.1379,-18.85812 0.9161,-5.56974 2.247,-10.33427 3.6238,-14.15278 1.3769,-3.8185 2.7938,-6.69579 3.9457,-8.57038 1.1519,-1.87458 2.0327,-2.75206 2.4886,-2.56967 z" id="path3157"/> <path style="fill:#000000;fill-rule:evenodd;stroke:none" d="m 1801.5561,599.26113 c 0.3146,-0.20019 1.1747,0.45029 2.4666,1.9313 1.2919,1.481 3.0136,3.79652 4.932,6.96529 1.9185,3.16878 4.0317,7.19509 6.0154,12.07328 1.9836,4.87819 3.8356,10.61167 5.1687,17.11179 0,0 0,0 0,0 1.357,7.06744 2.0861,15.0388 1.7668,23.61588 -0.3193,8.57709 -1.6906,17.75905 -4.4471,27.05876 -7.0572,7.2123 -15.9954,13.29246 -26.1473,17.18803 -1.7515,0.60829 -3.5242,1.14919 -5.3147,1.62577 -7.7781,2.07028 -15.5616,2.84631 -23.067,2.88923 -7.5055,0.0429 -14.7322,-0.64376 -21.4823,-1.59286 0,0 0,0 0,0 -12.5489,-1.82027 -23.9838,-4.38157 -33.9072,-7.18262 -4.2578,-3.64652 -7.6286,-7.67062 -10.2127,-11.66555 -2.5841,-3.99493 -4.3841,-7.96138 -5.5862,-11.62354 0,-10e-6 0,-10e-6 0,-10e-6 -1.0507,-3.38755 -1.6062,-6.51125 -1.8661,-9.23918 -0.2599,-2.72793 -0.2257,-5.06211 -0.066,-6.94007 0.1595,-1.87796 0.4429,-3.30171 0.7337,-4.24744 0.2909,-0.94574 0.588,-1.41491 0.8469,-1.39586 0.2589,0.019 0.4709,0.5249 0.6788,1.46307 0.2078,0.93817 0.4133,2.30996 0.72,4.05929 0.3068,1.74934 0.7163,3.87817 1.3677,6.30403 0.6515,2.42585 1.5461,5.15075 2.8368,8.03585 0,0 0,0 0,10e-6 1.3019,3.0459 3.0416,6.26915 5.3427,9.43179 2.3011,3.16263 5.1655,6.26585 8.6332,8.96371 9.4582,1.94443 20.0899,3.65693 31.5972,4.72718 0,0 0,0 0,0 6.5376,0.64752 13.3714,1.13788 20.2654,1.03731 6.8939,-0.10057 13.8462,-0.79498 20.5809,-2.62949 1.5504,-0.4223 3.0742,-0.90137 4.5691,-1.44068 8.2769,-2.61891 15.6358,-7.08979 21.4923,-12.58657 2.4544,-8.00277 3.7539,-15.97559 4.1906,-23.51853 0.4366,-7.54294 0.012,-14.65543 -0.9159,-21.08643 0,-1e-5 0,-1e-5 0,-1e-5 -0.8031,-6.11878 -2.0565,-11.62255 -3.4203,-16.40848 -1.3639,-4.78594 -2.8368,-8.85715 -4.121,-12.17811 -1.2842,-3.32097 -2.378,-5.89581 -3.049,-7.70105 -0.6709,-1.80524 -0.9164,-2.8449 -0.6018,-3.04509 z" id="path3163"/> <path style="fill:#000000;fill-rule:evenodd;stroke:none" d="m 1667.5696,524.82414 c 0.052,0.29954 -0.3594,0.66489 -1.1564,1.12607 -0.7971,0.46119 -1.9813,1.02097 -3.4606,1.76991 -1.4792,0.74895 -3.2552,1.68962 -5.1986,2.93292 -1.9434,1.2433 -4.0559,2.79126 -6.1442,4.74052 0,0 0,0 0,0 -1.9104,1.78114 -3.8067,3.90694 -5.5219,6.39049 -1.7152,2.48354 -3.2495,5.32557 -4.3951,8.46918 -1.4119,3.78598 -2.2249,8.04904 -2.3433,12.61137 -0.1184,4.56233 0.4572,9.42316 1.7126,14.25481 1.199,4.59008 3.0615,9.17875 5.4524,13.70759 2.1276,4.02984 4.5829,7.85664 7.1623,11.4666 3.6904,5.1466 7.6943,9.85897 11.6089,14.31031 3.9146,4.45135 7.7373,8.64198 11.1903,12.61885 7.1805,8.25504 12.7054,15.41227 16.2846,20.61359 3.5791,5.20133 5.2255,8.43819 4.5837,8.97428 -0.6418,0.53609 -3.4957,-1.68581 -8.0909,-5.94336 -4.5952,-4.25756 -10.9442,-10.54182 -18.6804,-18.06317 -3.7277,-3.6176 -7.8266,-7.55577 -12.0684,-11.94097 -4.2419,-4.3852 -8.6258,-9.22006 -12.772,-14.72427 -2.918,-3.86155 -5.6833,-8.08542 -8.0752,-12.65935 -2.6881,-5.14029 -4.7766,-10.49909 -6.1216,-15.94542 -1.4344,-5.78033 -1.9022,-11.64797 -1.4646,-17.18051 0.4376,-5.53253 1.7793,-10.72806 3.8256,-15.31875 1.7183,-3.79365 3.8988,-7.08868 6.2679,-9.85707 2.369,-2.76839 4.926,-5.01139 7.4501,-6.77786 0,0 0,0 0,0 2.7616,-1.93069 5.4671,-3.28576 7.9048,-4.22728 2.4377,-0.94152 4.6092,-1.47198 6.3932,-1.75156 1.7839,-0.27959 3.1822,-0.31076 4.1372,-0.21447 0.955,0.0963 1.4681,0.31801 1.5196,0.61755 z" id="path3175"/> <path style="fill:#000000;fill-rule:evenodd;stroke:none" d="m 1605.0425,-398.19441 c 0.6697,-0.0442 1.568,3.05276 2.3009,8.78391 0.7329,5.73115 1.2716,14.10783 0.8647,24.49236 -0.4069,10.38453 -1.7827,22.78144 -4.8407,36.29339 -3.0579,13.51196 -7.8136,28.13111 -14.6477,42.7241 -1e-4,0 -1e-4,0 -1e-4,10e-6 -0.7659,1.63473 -1.5573,3.2686 -2.3741,4.90002 -7.4963,14.97138 -16.446,28.28452 -25.6408,39.47635 -9.1948,11.19183 -18.6162,20.26977 -27.0167,27.23849 -8.4005,6.96872 -15.7676,11.85213 -21.0457,14.88583 -5.2781,3.0337 -8.4574,4.25221 -8.8341,3.67414 -0.3767,-0.57807 2.0763,-2.89514 6.5732,-6.84069 4.497,-3.94555 11.0271,-9.55336 18.5708,-16.96874 7.5436,-7.41539 16.0913,-16.65953 24.5314,-27.71342 8.4401,-11.05389 16.7592,-23.92213 23.9206,-38.22836 0.7804,-1.55893 1.5392,-3.11858 2.2764,-4.67766 0,0 0,0 0,0 6.5838,-13.91796 11.4253,-27.78799 14.8649,-40.64397 3.4397,-12.85599 5.4886,-24.69196 6.7655,-34.68927 1.2769,-9.99731 1.8017,-18.16107 2.2407,-23.82476 0.439,-5.66368 0.8211,-8.83752 1.4908,-8.88173 z" id="path3181"/> <path style="fill:#000000;fill-rule:evenodd;stroke:none" d="" id="path3223"/> <path style="fill:#000000;fill-rule:evenodd;stroke:none" d="m 1482.9658,587.3512 c 2.2459,-1.60422 7.4034,1.76249 11.5124,7.51497 4.1089,5.75248 5.6209,11.72314 3.375,13.32736 -2.2459,1.60422 -7.4034,-1.76249 -11.5124,-7.51497 -4.1089,-5.75248 -5.6209,-11.72314 -3.375,-13.32736 z" id="path3235"/> <path style="fill:#000000;fill-rule:evenodd;stroke:none" d="m 1798.5786,602.23873 c 1.6945,2.17861 -2.9329,8.61544 -10.329,14.36791 -7.396,5.75248 -14.7738,8.653 -16.4683,6.47439 -1.6945,-2.17861 2.9329,-8.61544 10.329,-14.36791 7.396,-5.75248 14.7738,-8.653 16.4683,-6.47439 z" id="path3241"/> <path style="fill:#000000;fill-rule:evenodd;stroke:none" d="" id="path3247"/> <path style="fill:#000000;fill-rule:evenodd;stroke:none" d="m 1494.8757,-1303.3481 c 0.6301,-0.1146 3.3431,11.3965 7.7438,32.7391 -0.7716,5.514 -1.6547,11.694 -2.6451,18.5149 -3.425,7.8674 -7.2828,16.5953 -11.5434,26.1039 4.7668,8.9758 9.9224,18.6718 15.4359,29.025 0.935,16.1765 1.8941,33.8117 2.8675,52.7289 14.0938,9.6651 29.0135,19.9674 44.6592,30.8331 0,0 0,0 0,0 -7.1171,11.8087 -16.0961,23.0219 -26.7758,32.9967 -10.6797,9.9747 -23.0601,18.7102 -36.8052,25.4508 -7.1417,3.1702 -14.5232,5.7903 -22.0024,8.1801 -7.4792,2.3898 -15.0561,4.5496 -22.5698,6.851 -14.2804,4.4283 -28.608,9.3559 -40.9418,17.5845 -8.1834,5.3649 -15.4906,12.1674 -22.0452,19.9265 -6.5545,7.75907 -12.3566,16.47423 -17.5562,25.59127 -4.5213,7.97268 -8.6001,16.32256 -12.5561,24.88259 -4.8914,10.58398 -9.5241,21.31104 -14.5183,31.84167 -14.3098,29.64377 -31.0884,57.11462 -49.3829,81.94844 -10.7938,3.90754 -20.9989,8.97477 -30.4099,14.94001 -9.4109,5.96524 -18.0276,12.82831 -25.6954,20.34839 -12.1776,11.58562 -21.8747,24.96669 -28.9457,38.99428 2.0434,10.97596 4.0246,21.67795 5.9389,32.08363 -1.9946,15.26309 -0.8692,30.24247 2.5376,43.82206 1.3397,5.22506 3.0146,10.24745 5.0781,14.92319 2.0634,4.67575 4.5153,9.00501 7.3828,12.88521 3.1729,4.28786 6.8567,8.05721 10.8449,11.09605 3.9882,3.03885 8.2809,5.34778 12.7122,6.81021 3.7369,1.27027 7.5787,1.94262 11.3958,2.27652 3.8172,0.33389 7.6098,0.32894 11.2811,0.1823 4.2457,-0.18185 8.3656,-0.56915 12.3518,-0.93122 3.9863,-0.36207 7.8387,-0.6999 11.5451,-0.87583 8.3252,-0.39309 15.747,0.0188 22.1254,0.77327 6.3785,0.7545 11.7183,1.85047 15.9814,2.92866 4.2631,1.07818 7.4536,2.13726 9.567,2.9397 2.1135,0.80243 3.1528,1.3467 3.0933,1.53792 -0.06,0.19122 -1.2158,0.0245 -3.4169,-0.39922 -2.201,-0.42372 -5.4498,-1.10258 -9.7176,-1.80036 -4.2679,-0.69777 -9.5591,-1.41295 -15.8148,-1.79912 -6.2557,-0.38617 -13.4807,-0.44208 -21.5178,0.26835 -3.5795,0.31545 -7.3429,0.79374 -11.3132,1.29996 -3.9703,0.50623 -8.1475,1.04139 -12.5653,1.37809 -3.8249,0.30206 -7.8541,0.4305 -12.0195,0.17376 -4.1654,-0.25674 -8.4673,-0.8983 -12.8076,-2.20004 -5.132,-1.58279 -10.1011,-4.07853 -14.7043,-7.38725 -4.6033,-3.30872 -8.8409,-7.43103 -12.4659,-12.17254 -3.265,-4.26539 -6.0751,-8.9779 -8.4391,-14.02363 -2.3639,-5.04573 -4.2816,-10.42482 -5.7871,-15.98128 -3.882,-14.04066 -5.3373,-29.58001 -3.4174,-45.50229 -1.9442,-10.81638 -3.936,-21.96522 -5.9711,-33.42093 7.4122,-15.75233 17.6486,-30.95029 30.6039,-44.37513 7.7185,-7.79126 16.4341,-14.87214 25.9987,-20.98862 9.5647,-6.11648 19.9782,-11.26834 31.0402,-15.1825 17.1236,-23.94219 32.7114,-50.35665 45.8965,-78.83546 4.8756,-10.33352 9.4865,-21.03452 14.4586,-31.77459 4.0213,-8.68625 8.2316,-17.27969 12.9468,-25.60632 5.3899,-9.56981 11.5717,-18.7904 18.6793,-27.0995 7.1077,-8.3091 15.1412,-15.7062 24.2034,-21.701 13.8022,-8.987 28.972,-14.2189 43.5554,-18.5628 7.6526,-2.3079 15.2081,-4.4074 22.5231,-6.6773 7.315,-2.2698 14.3896,-4.7102 21.1014,-7.6489 13.1318,-5.1112 25.0432,-12.1893 35.3788,-20.5296 10.3356,-8.3403 19.0954,-17.9423 26.0944,-28.2121 0,0 0,0 -10e-5,0 -15.6983,-10.0304 -30.6205,-19.6227 -44.6651,-28.7165 -1.166,-19.5908 -2.1985,-37.8049 -3.0875,-54.4605 -5.1412,-10.9562 -9.9309,-21.1509 -14.3389,-30.5246 4.4686,-10.1321 8.572,-19.3169 12.2764,-27.4907 1.1906,-6.2651 2.2962,-12.0172 3.3099,-17.2147 -3.2886,-20.9484 -4.7963,-32.6509 -4.1662,-32.7655 z" id="path4022"/> <path style="fill:#000000;fill-rule:evenodd;stroke:none" d="m 1405.5514,-67.694198 c -0.3512,0.128194 -1.6321,-2.291819 -3.6912,-7.022865 -2.059,-4.731046 -4.8939,-11.774442 -8.2704,-20.916109 -6.7531,-18.283338 -15.688,-44.978448 -24.4349,-78.346558 0,0 0,-1e-5 0,-2e-5 -4.3087,-16.38918 -8.625,-34.5145 -11.7831,-54.14901 -3.1581,-19.63452 -5.1533,-40.77961 -4.219,-63.10374 0.4963,-11.35899 1.768,-22.8866 3.6132,-34.52501 1.8451,-11.63841 4.2631,-23.38751 6.9739,-35.19302 2.2625,-9.8792 4.7224,-19.81677 7.19,-29.83144 3.1887,-12.94134 6.2919,-25.6566 8.9182,-38.19676 4.8131,-18.91412 8.5015,-37.52684 11.1721,-55.57751 2.6705,-18.05067 4.3237,-35.53876 5.126,-52.23185 -2.9924,4.9271 -6.7893,9.03609 -11.0307,12.2295 -4.2413,3.19341 -8.927,5.47129 -13.7515,6.77573 -5.881,1.17763 -11.805,1.21367 -17.4255,0.30344 -5.6206,-0.91023 -10.938,-2.76665 -15.6937,-5.38322 -7.2301,-4.01225 -12.9637,-9.64748 -17.1408,-15.85827 -4.177,-6.21078 -6.7996,-12.99892 -7.9896,-19.64325 -1.2525,-7.2077 -0.9995,-13.99232 -0.1271,-20.19136 0.8724,-6.19904 2.3688,-11.81474 3.9537,-16.79577 1.8848,-5.99118 3.9225,-11.20736 5.8831,-15.64776 1.9606,-4.4404 3.8439,-8.10662 5.4718,-11.01484 1.6279,-2.90821 3.0002,-5.05993 3.996,-6.46464 0.9958,-1.40472 1.6147,-2.06358 1.8,-1.95927 0.1853,0.10431 -0.068,0.96858 -0.6962,2.55795 -0.628,1.58937 -1.6299,3.90502 -2.8814,6.94065 -1.2515,3.03562 -2.7522,6.79273 -4.3262,11.27304 -1.5741,4.4803 -3.2212,9.68541 -4.7201,15.60137 -1.2283,4.91844 -2.3816,10.35942 -2.9581,16.17522 -0.5764,5.8158 -0.5807,12.00826 0.8297,18.29717 1.2563,5.75464 3.7632,11.5992 7.5393,16.87204 3.7761,5.27284 8.8229,9.97601 14.9699,13.13096 4.0359,2.09379 8.552,3.53937 13.2865,4.19487 4.7344,0.65549 9.6873,0.5209 14.5095,-0.55479 5.0497,-0.77432 10.0584,-2.34936 14.7381,-4.63982 4.6798,-2.29046 9.0305,-5.29633 12.7087,-8.89463 0.4416,17.30598 0.1872,35.51649 -0.9955,54.36597 -1.1828,18.84948 -3.2947,38.33731 -6.5262,58.15813 -2.6295,12.76686 -5.7372,25.61157 -8.9295,38.5701 -2.4704,10.02798 -4.9324,19.91157 -7.1974,29.67551 -2.6999,11.66881 -5.128,23.18886 -7.0042,34.52343 -1.8762,11.33458 -3.1998,22.48372 -3.7682,33.41281 -1.1583,21.47876 0.5251,42.05373 3.3045,61.33647 2.7794,19.28274 6.6502,37.27218 10.4682,53.65418 0,0 0,1e-5 0,2e-5 7.7981,33.34961 15.6017,60.22001 21.1211,78.83189 2.7597,9.305939 4.9514,16.550532 6.3466,21.506944 1.3952,4.956412 1.9916,7.625924 1.6404,7.754118 z" id="path4028"/> <path style="fill:#000000;fill-rule:evenodd;stroke:none" d="m 1456.1685,-430.94667 c 0.1324,-0.67717 2.3794,-0.88746 6.3128,-0.81859 3.9334,0.0689 9.5572,0.4061 16.4754,0.69884 6.9182,0.29274 15.133,0.5334 24.2323,0.42172 9.0994,-0.11168 19.0826,-0.58059 29.5088,-1.60119 2.1014,-0.2057 4.1809,-0.42944 6.235,-0.66958 0,0 0,0 0,0 9.6783,-1.13122 18.7931,-2.63348 27.0139,-4.24894 8.2209,-1.61547 15.5485,-3.3401 21.691,-4.84636 6.1425,-1.50626 11.1029,-2.78855 14.5996,-3.52132 3.4968,-0.73278 5.5344,-0.90837 5.7827,-0.30199 0.2483,0.60638 -1.3182,1.94226 -4.4488,3.76337 -3.1306,1.82111 -7.8304,4.12 -13.855,6.52525 -6.0246,2.40525 -13.3773,4.91041 -21.755,7.12079 -8.3777,2.21038 -17.7809,4.12055 -27.818,5.40174 0,0 0,0 0,0 -2.1304,0.27189 -4.2889,0.51576 -6.4712,0.72937 -10.8277,1.05981 -21.2154,1.26105 -30.6262,0.86162 -9.4108,-0.39943 -17.8433,-1.3929 -24.849,-2.60544 -7.0057,-1.21254 -12.5867,-2.63528 -16.3743,-3.89285 -3.7877,-1.25757 -5.7864,-2.33927 -5.654,-3.01644 z" id="path4034"/> <path style="fill:#000000;fill-rule:evenodd;stroke:none" d="m 1456.1685,322.3556 c -0.812,0.10827 -2.7278,-8.55064 -5.1524,-23.76444 -2.4245,-15.21381 -5.3547,-36.98014 -8.485,-63.30907 0,0 0,-1e-5 0,-1e-5 -5.0521,0.99667 -10.3639,0.69938 -15.3509,-0.93652 -4.987,-1.6359 -9.6491,-4.6108 -13.221,-8.88675 -3.6328,-4.23325 -6.226,-9.41102 -7.4875,-15.023 -1.2614,-5.61198 -1.1907,-11.6578 0.5186,-17.4856 1.7139,-5.57323 4.5697,-10.46306 7.4965,-14.89405 2.788,-4.3349 5.622,-8.35195 7.429,-12.53488 2.1243,-4.17166 3.3212,-8.86118 3.5223,-13.60849 0.201,-4.74732 -0.5937,-9.55175 -2.4476,-13.88682 -3.0705,-1.49283 -5.9805,-3.31146 -8.6799,-5.41679 -7.6248,-5.94669 -13.336,-14.00091 -16.4013,-22.93408 -3.0126,-7.93112 -3.701,-16.388692 -2.4288,-24.383076 1.2721,-7.994384 4.5039,-15.523478 9.3114,-21.818057 -6.373,-7.162006 -11.5212,-14.924051 -15.5029,-22.862421 -3.9817,-7.938369 -6.7975,-16.052374 -8.5862,-24.006748 -2.7869,-12.894571 -3.1062,-25.1868139 -2.012,-36.07531 1.0941,-10.888496 3.5942,-20.382929 6.5047,-28.209187 1.8886,-5.077373 3.9426,-9.463197 5.9238,-13.167199 1.9811,-3.704003 3.8891,-6.728109 5.5412,-9.104141 1.652,-2.376032 3.0477,-4.105856 4.0638,-5.214663 1.016,-1.108808 1.6519,-1.598075 1.8496,-1.460926 0.1977,0.137149 -0.049,0.895962 -0.6693,2.246402 -0.6205,1.350441 -1.6142,3.294059 -2.8522,5.835064 -1.238,2.541005 -2.7198,5.681283 -4.2664,9.43317 -1.5466,3.751887 -3.1577,8.117277 -4.6085,13.087995 -2.2346,7.655192 -4.0731,16.781836 -4.6223,27.085784 -0.5491,10.303949 0.1962,21.7946472 3.16,33.683859 1.931,8.076698 4.793,16.372756 8.6942,24.564758 3.9012,8.192001 8.8417,16.279431 14.8563,23.845426 -3.8044,5.917267 -6.322,13.002598 -7.2592,20.484075 -0.9371,7.481477 -0.2934,15.356921 2.232,22.639175 2.9985,7.72472 8.2461,14.86996 14.9767,20.26899 2.3829,1.91144 4.9259,3.58308 7.5817,4.97476 2.8395,6.14483 4.2931,12.74183 4.4422,19.24705 0.1491,6.50522 -1.0063,12.91797 -3.3675,18.7622 -2.4356,5.29055 -5.5528,9.71149 -8.318,13.82593 -2.7864,4.2617 -5.3091,8.2614 -6.5313,12.33978 -1.3148,4.11305 -1.4282,8.59822 -0.5718,12.80043 0.8564,4.2022 2.6827,8.12101 5.2704,11.23918 3.2384,3.77247 7.43,6.66389 11.8517,8.53701 4.4216,1.87312 9.0734,2.72793 13.4135,2.50595 0,1e-5 0,1e-5 0,2e-5 4.0984,27.8863 7.1231,50.78214 8.8464,66.67672 1.7232,15.89457 2.148,24.79023 1.336,24.8985 z" id="path4040"/> <path style="fill:#000000;fill-rule:evenodd;stroke:none" d="m 1485.9433,590.32873 c -0.6776,0.0583 -1.6322,-3.54704 -2.819,-10.11482 -1.1869,-6.56778 -2.6094,-16.0978 -4.2669,-27.88915 -3.3149,-23.58268 -7.6128,-56.20408 -12.7509,-92.30517 -0.1498,-1.05292 -0.3002,-2.1088 -0.4513,-3.1675 -4.9092,-34.39196 -9.6917,-65.71628 -13.17,-89.37919 -0.9363,-27.65512 -0.7661,-45.01917 0.7058,-45.1173 1.4719,-0.0981 3.9417,17.03128 6.6608,44.20706 5.0585,23.43391 10.8015,54.56791 15.7053,88.8949 0.151,1.05671 0.3003,2.11072 0.4482,3.16191 2.5485,18.13002 4.6279,35.42116 6.2513,51.15812 1.6233,15.73697 2.7925,29.91943 3.5564,41.83679 0.7639,11.91735 1.1253,21.56942 1.1354,28.25413 0.01,6.6847 -0.3275,10.40195 -1.0051,10.46022 z" id="path4046"/> <path style="fill:#000000;fill-rule:evenodd;stroke:none" d="m 1697.3443,-1154.4742 c 0.4308,0.4031 -0.2468,2.0126 -2.091,4.5035 -1.8441,2.4908 -4.8767,5.856 -9.25,9.4603 -4.3732,3.6043 -10.1041,7.4388 -17.1375,10.6726 -7.0334,3.2338 -15.375,5.8543 -24.5882,6.9964 0,0 0,0 0,0 -6.2335,0.7553 -12.6875,0.8529 -19.1788,0.6475 -2.332,-0.074 -4.6232,-0.1825 -6.8684,-0.302 -4.4839,-0.225 -8.8023,-0.4871 -12.9325,-0.6317 -4.1302,-0.1446 -8.0726,-0.171 -11.8162,0.014 -6.6574,0.3138 -12.8013,1.2709 -18.2205,2.4846 -5.4192,1.2138 -10.1161,2.6812 -13.9862,4.017 -3.87,1.3358 -6.9193,2.536 -9.0825,3.2669 -2.1632,0.7309 -3.4478,0.9868 -3.7221,0.5561 -0.2743,-0.4307 0.4834,-1.521 2.237,-3.0877 1.7536,-1.5667 4.5107,-3.6051 8.2678,-5.7602 3.757,-2.1551 8.5207,-4.422 14.2077,-6.3467 5.687,-1.9247 12.3007,-3.5016 19.6006,-4.2556 4.0979,-0.4154 8.3472,-0.5776 12.6851,-0.573 4.3379,0 8.7641,0.1755 13.2212,0.3632 2.2325,0.087 4.4774,0.1787 6.7276,0.2509 6.2637,0.2008 12.2219,0.221 17.8044,-0.3137 0,0 0,0 0,0 8.2186,-0.7609 15.8116,-2.6987 22.4165,-5.1155 6.6049,-2.4168 12.2245,-5.307 16.7712,-7.9852 4.5468,-2.6782 8.0355,-5.1394 10.5194,-6.7881 2.484,-1.6487 3.9846,-2.4763 4.4154,-2.0732 z" id="path4052"/> <path style="fill:#000000;stroke:#000000;stroke-width:2.08423543px;stroke-linecap:butt;stroke-linejoin:miter;stroke-opacity:1" d="m 9.1135472,-1672.5556 c 85.0319538,17.3826 168.7280828,41.2957 250.1082628,71.4595 177.22865,65.6902 342.80899,160.8471 494.26158,273.9281 124.05052,92.6214 238.88745,197.297 345.38761,309.6579 58.0781,61.27418 113.7164,124.86081 166.7389,190.55867 l -29.7749,29.77479 c -38.8792,-48.31553 -78.5867,-95.96453 -119.0991,-142.91901 -84.4267,-97.85165 -172.47173,-192.80675 -267.97316,-279.88305 -95.50736,-87.0817 -198.52536,-166.2552 -309.65786,-232.2434 -54.22794,-32.1995 -110.28602,-61.2076 -166.73884,-89.3244 -77.30952,-38.5046 -155.75238,-75.5044 -238.19836,-101.2343 -40.936543,-12.7756 -82.752688,-22.7318 -125.0541328,-29.7748" id="path4064"/> <path style="fill:none;stroke:#000000;stroke-width:2;stroke-miterlimit:4;stroke-opacity:1;stroke-dasharray:none" id="path4068" d="m 127.27922,0.79338348 a 9.0913725,9.0913725 0 1 1 -18.18274,0 9.0913725,9.0913725 0 1 1 18.18274,0 z" transform="matrix(1.4776726,0,0,1.2334884,-97.406379,-1639.8762)"/> <path style="fill:none;stroke:#000000;stroke-width:2;stroke-miterlimit:4;stroke-opacity:1;stroke-dasharray:none" id="path4070" d="m 216.17265,30.087807 a 11.111678,12.121831 0 1 1 -22.22335,0 11.111678,12.121831 0 1 1 22.22335,0 z" transform="matrix(1.5947169,0,0,1.4754607,-43.373701,-1590.2774)"/> <path style="fill:none;stroke:#000000;stroke-width:2;stroke-miterlimit:4;stroke-opacity:1;stroke-dasharray:none" id="path4072" d="m 319.20822,83.625893 a 13.131983,13.131983 0 1 1 -26.26397,0 13.131983,13.131983 0 1 1 26.26397,0 z" transform="matrix(1.5222895,0,0,1.395402,55.778906,-1543.4514)"/> <path style="fill:none;stroke:#000000;stroke-width:2;stroke-miterlimit:4;stroke-opacity:1;stroke-dasharray:none" id="path4074" d="m 430.325,146.25536 a 17.172594,15.152288 0 1 1 -34.34519,0 17.172594,15.152288 0 1 1 34.34519,0 z" transform="matrix(1.3969047,0,0,1.3193176,175.96156,-1458.8236)"/> <path transform="matrix(1.7682648,0,0,1.7234473,209.97447,-1337.0796)" d="m 430.325,146.25536 a 17.172594,15.152288 0 1 1 -34.34519,0 17.172594,15.152288 0 1 1 34.34519,0 z" id="path4076" style="fill:none;stroke:#000000;stroke-width:1.82574189;stroke-miterlimit:4;stroke-opacity:1;stroke-dasharray:none"/> <path style="fill:none;stroke:#000000;stroke-width:1.7269789;stroke-miterlimit:4;stroke-opacity:1;stroke-dasharray:none" id="path4078" d="m 430.325,146.25536 a 17.172594,15.152288 0 1 1 -34.34519,0 17.172594,15.152288 0 1 1 34.34519,0 z" transform="matrix(2.0179374,0,0,2.1530118,298.66099,-1172.3091)"/> <path style="fill:none;stroke:#000000;stroke-width:1px;stroke-linecap:butt;stroke-linejoin:miter;stroke-opacity:1" d="M 1211.4286,1170 1145.7143,1097.1429 1020,951.42859 945.71428,867.14287 c 0,0 -73.30458,-73.7941 -104.28571,-105.71428 -30.98113,-31.92017 -82.85715,-72.85714 -82.85715,-72.85714 0,0 -88.3528,-65.87032 -127.14286,-90 C 592.63851,574.44176 525.71428,527.14288 525.71428,527.14288 L 390,452.85715 c 0,0 -55.4546,-27.66306 -104.28571,-51.42856 C 236.88318,377.6631 80,308.57145 80,308.57145 l -65.714286,-20" id="path7104" transform="translate(0,-1947.6378)"/> </g> </svg>