<?xml version="1.0" encoding="utf-8"?>
<!-- Generator: Adobe Illustrator 22.1.0, SVG Export Plug-In . SVG Version: 6.00 Build 0)  -->
<svg version="1.1" id="Layer_1" xmlns="http://www.w3.org/2000/svg" xmlns:xlink="http://www.w3.org/1999/xlink" x="0px" y="0px"
	 viewBox="0 0 1280 872" style="enable-background:new 0 0 1280 872;" xml:space="preserve">
<style type="text/css">
	.st0{fill:none;stroke:#000000;stroke-width:3;stroke-miterlimit:10;}
</style>
<g transform="translate(0.000000,872.000000) scale(0.100000,-0.100000)">
	<path class="st0" d="M6152,7585c-120-466-111-444-267-627c-201-235-309-342-377-372c-57-24-203-121-263-172l-30-26l48,6
		c26,3,95,22,154,41c58,19,108,34,110,32s-20-37-48-77c-58-82-57-85,31-97c128-17,190,0,190,54c0,32,58,93,121,128l52,28l-7-29
		c-3-16-9-62-12-101l-7-73l-136-133c-242-236-331-305-444-343c-40-13-132-54-205-90l-134-65l-39-85c-22-47-37-89-34-95
		c9-14,63-11,98,7c18,9,58,42,90,73l58,56l-55-95c-31-52-56-98-56-102c0-8,39,4,77,24c12,6,42,37,67,69c26,33,50,59,56,59
		c5,0,10-25,10-55s3-55,8-55c24,0,84,57,112,107c18,32,34,60,36,62c1,2,15-6,30-18c15-11,31-21,36-21c6,0,42,25,80,55
		c95,74,100,69,49-47c-15-36-27-49-48-54c-110-27-186-91-356-298c-96-119-231-233-429-363c-54-36-98-68-98-72c0-28,72-41,122-22
		c13,5,60,41,104,80c45,39,84,71,88,71c3,0-8-21-24-47c-30-47-39-93-19-93c16,0,73,62,114,122c23,35,55,64,111,98c43,27,80,47,81,46
		c2-1-6-29-17-61s-20-74-20-94l1-36l33,38c19,21,51,69,71,108c24,45,46,74,66,84c33,18,34,16,15-51c-33-112-15-162,28-79l21,40l5-58
		c3-31,7-58,10-59s15,1,27,4c28,7,53,58,108,215c58,166,96,209,74,84c-10-52-9-65,4-79c8-9,17-26,19-37c4-16,8-12,22,20
		c10,22,29,55,43,73c19,25,23,40,18,62c-11,52,1,33,30-45c15-41,31-75,36-75c9,0,35,84,42,135c2,17,5,0,6-37c0-37-4-79-10-95
		c-5-15-42-61-82-101c-66-67-93-84-340-219c-147-80-266-147-265-149c2-2,71,18,153,43c83,25,159,48,169,51c16,4,13-3-15-38
		c-70-89-93-106-191-138c-51-17-137-40-190-50c-91-19-109-27-280-127c-101-59-210-127-243-150c-63-45-122-102-114-109
		c3-3,54,13,114,35c87,33,131,56,212,115c56,41,104,74,108,74s5-18,3-40s-1-40,3-40s50,25,104,55c53,30,98,55,100,55s-7-19-20-42
		c-55-96-16-131,60-55c39,40,100,76,110,66c2-3,1-35-3-73c-7-68-8-69-42-81c-38-13-66-51-76-103c-8-42-17-47-94-48
		c-69-1-180-28-218-52c-20-13-25-13-33-1c-7,11-10,10-15-8c-4-14-35-39-84-68c-43-25-84-53-91-61c-7-9-31-25-53-36
		c-53-26-184-126-196-149c-16-29-12-49,10-49c11,0,20-3,20-7c0-5-42-58-93-120c-95-114-153-205-142-223c19-31,97,8,145,72l30,42v-40
		c0-50,23-74,71-74c43,0,103,48,146,115c15,25,36,45,45,45c10,0,20,10,24,25c5,22,52,70,60,62c1-1,0-22-3-46c-5-37-18-55-90-131
		c-71-75-98-95-169-130c-71-34-88-47-100-75c-8-19-14-39-14-45c0-18,30-10,55,15c29,28,31,25,10-15c-20-39-4-38,34,3
		c29,30,31,31,31,9c0-19,3-21,19-13c10,6,22,22,25,37c6,21,9,24,22,13c12-10,20-7,44,16c19,18,30,23,29,14c-1-30-16-50-49-67
		c-20-10-61-52-98-99c-35-45-96-110-137-144s-72-65-69-70c10-16,33-9,67,21l34,30l-4-28l-4-27l18,22c10,12,26,33,36,47s27,31,39,37
		c20,11,20,9,14-27c-6-38-6-39,11-18c10,12,26,36,36,54c22,40,30,35,17-10c-10-35-5-54,9-31c6,9,10,7,14-9c9-34,23-16,47,58
		c23,68,48,111,36,60c-3-14-3-34,0-43c5-13,11-9,27,17l21,33l6-25c7-26,13-19,23,25c3,12,5,7,6-12c1-46-50-100-167-173
		c-53-33-94-60-91-60s32,9,64,20l57,20l-14-22c-24-35-59-56-121-72c-72-19-257-139-257-168c0-13,71,23,118,60c30,24,42,29,42,18
		c0-21,10-20,40,4c32,25,43,25,30,0c-19-35,0-44,31-14c16,15,31,25,34,22c10-9-7-59-21-65c-7-2-16-18-19-34c-6-24-11-29-38-29
		c-42,0-98-30-187-99c-56-43-74-63-73-79c2-12-15-47-37-78c-40-57-49-84-30-84c6,0,18,8,28,18c16,17,18,17,32-1c21-26,42-14,85,49
		c49,71,54,73,42,18c-8-36-8-47,2-54c10-6,7-16-13-46c-14-21-26-44-26-51c0-20,27-15,43,7l14,21l6-21c7-28,42-25,64,5
		c10,14,31,42,46,63l28,36l-7-53c-6-44-4-53,7-49c8,2,21,26,29,52c13,40,22,51,61,71l46,23l-19-36c-20-40-23-74-9-101
		c7-12-2-51-30-134c-22-64-39-129-37-145l4-27l16,35c16,35,16,35,17,8c1-16,5-28,10-28c16,0,29,25,50,97c12,40,24,73,27,73
		c2,0,2-29-2-65c-8-72,10-94,20-25c3,22,9,57,12,78c4,30,52,102,67,102c2,0,0-23-4-52c-5-29-7-54-4-56c2-2,13,29,25,69
		c39,130,43,134,51,54c8-73-7-335-40-710c-11-122-15-211-10-213s9-9,9-15c0-8,23-13,63-15c54-2,67,1,90,20l25,23l-21,155
		c-17,127-21,203-21,425c1,265,8,396,23,379c4-5,15-44,25-86c10-43,21-80,26-83c4-2,15,10,23,27l15,31l7-46c9-60,25-71,25-17
		c0,52,14,44,29-15c15-58,35-60,26-2c-9,62,10,25,25-48c7-33,17-71,23-85c10-25,11-25,17,10l7,35l13-30c22-49,23-7,2,88
		c-10,48-15,92-10,99c4,7,8,23,8,36c0,41,18,22,40-43c23-70,36-81,46-37c10,45,13,52,24,52c5,0,10-8,10-19c0-30,21-81,31-75
		c5,3,9,17,9,32l1,27l15-27c8-16,19-28,25-28c11,0,3,37-18,89c-25,59-6,48,62-36c15-18,40-42,56-54c43-30,38-2-11,60
		c-45,57-47,61-22,61c9,0,28-18,42-40c25-40,67-77,77-66c13,13-22,75-65,116c-26,25-64,67-85,93c-30,36-49,50-84,60
		c-36,9-49,19-64,49c-10,20-27,39-37,42s-24,22-31,41c-7,21-19,35-29,35c-21,0-72,46-72,65c0,8-13,21-30,30c-33,17-39,39-14,49
		c35,13,51,3,96-59c26-36,52-65,58-65c5,0,10,19,10,42c0,39,1,41,16,26c9-9,32-42,51-74l34-59l-4,43c-4,30-2,40,6,35
		c73-43,86-54,92-85c12-59,16-68,32-68c13,0,15,8,9,46c-7,55,3,51,42-20c30-52,54-72,73-60c5,3,9,12,9,21c0,12,7,9,25-11
		c14-15,29-24,35-21c13,8-4,49-52,120c-23,33-40,69-40,81c2,26-33,64-58,64c-23,0-26,13-6,29c8,6,19,25,26,41c10,25,15,28,31,19
		c15-8,19-6,19,9c0,10-5,23-11,29c-8,8-5,29,11,80c35,103,112,275,106,233c-37-239-43-301-30-334c20-52,47,14,69,164
		c24,169,31,184,124,278c44,44,81,75,81,69c0-7-7-52-15-102c-18-106-20-169-5-143c6,9,35,90,66,180c63,182,102,268,113,249
		c5-7,6-68,3-137c-5-121-1-139,26-112c17,17,16-46-7-258c-37-336-51-519-55-719c-3-110-15-317-26-460c-29-357-29-358-4-392
		c18-25,96-74,162-103c52-22,134-1,147,39c3,10,26,26,51,36c46,17,46,18,40,55c-3,21-19,143-36,271c-63,493-74,690-52,939
		c7,74,12,203,12,285c0,130,34,532,46,544c13,14,35-41,74-184c23-88,52-182,63-208c20-49,40-57,45-18c2,12,10,25,17,27
		c8,3,22,29,31,57l18,52l13-45c8-25,12-56,9-70c-2-14,1-32,8-40s18-35,25-59c16-57,31-38,31,40c0,33,6,63,15,75c14,18,14,18,15-4
		c0-15,7-26,20-29c15-4,25-24,41-77c21-71,34-96,50-96c17,0,20,44,9,131c-6,51-9,94-6,96c2,3,20-44,39-103c26-79,32-112,25-123
		c-6-9-35-35-64-59c-59-47-79-73-89-114c-16-63,64-15,125,75c26,39,47,47,56,22c4-9-11-36-38-68c-88-102-82-130,11-57l51,40l14-34
		c15-37,38-56,44-38c2,7,10,12,17,12c8,0,19,9,25,20c12,22,30,27,30,8c0-7,4-19,9-27c15-24,39,4,46,53c4,24,11,49,15,56
		c15,24,50-17,50-56c0-68,34-44,65,46c28,82,54,116,55,73c1-10,7-36,15-57c13-36,12-47-11-130c-36-137-29-209,10-101l15,40v-47
		c1-49,12-66,29-45c5,6,22,59,37,117c34,130,46,154,38,74c-8-85,9-89,38-7c31,85,49,93,49,22c0-67,14-55,32,26l14,60l24-48
		c13-26,27-44,32-39c4,4,22,60,40,125c18,64,36,117,39,117c13,0,19-49,31-245c16-267,14-659-5-935c-9-123-14-227-11-230s42-5,87-5
		c82,0,149,21,160,48c2,7-8,134-24,282c-16,149-33,353-39,455c-5,102-17,244-25,315c-17,155-18,188-5,180c6-4,10,18,10,59
		c0,62,9,81,26,54c4-6,24-59,45-117c38-106,48-105,30,3l-8,49l52-54c47-49,53-60,59-114c10-80,25-135,36-135c12,0,12,89,0,150
		c-4,25-7,46-5,48s17-34,34-80c65-173,93-207,107-132l7,36l18-41c19-44,39-54,39-20c0,28-53,183-96,279c-29,66-31,77-18,91
		c31,34,9,140-37,174c-26,19-21,18,61-17c78-33,78-33,95-93c9-29,22-59,30-65c34-28,45,23,21,93c-8,21-11,37-7,35s38-38,75-80
		c36-42,75-80,87-83c25-8,49,11,49,38c0,19,3,18,33-11c34-33,67-42,67-18c0,20-79,123-138,180l-51,49l26,14c14,7,27,13,28,13
		c2,0,11-24,19-54c16-55,37-82,56-71c14,9,13,45-5,94c-8,22-11,41-7,40c4,0,34-32,67-71c75-88,96-103,124-88c12,6,21,20,21,31
		c0,19,3,18,35-10c20-17,42-31,50-31c33,0,15,32-100,176c-17,21-17,26-5,34c21,13-17,50-125,122c-126,83-184,109-254,115
		c-41,4-61,10-61,19c0,28-24,63-46,68c-20,5-24,13-24,46c0,22,4,40,10,40c5,0,25-13,43-30c19-16,40-30,46-30c16,0,13,32-6,60
		c-16,23-14,23,40-8c67-38,67-38,67-12c0,11,2,20,5,20s31-18,61-41c30-22,85-51,122-65l67-25l-33,34c-19,19-91,68-160,110
		c-98,57-142,77-192,87c-82,15-93,21-119,65c-23,40-20,41,39,20c24-8,45-14,47-12c1,2-29,21-68,43c-60,32-82,53-133,119
		c-56,74-61,84-61,134c-2,67,11,53,50-57c15-42,32-83,37-89c19-24,38-14,39,20c0,30,1,31,11,10c24-49,36-17,19,45
		c-16,55,12,39,51-29c15-25,35-52,44-60c19-15,19-21-3,70l-6,24l42-24c23-13,58-45,77-71c39-56,75-69,49-18c-23,44-19,44,40-5
		c55-44,96-57,111-33c4,7,0,16-11,22c-80,47-238,178-285,238c-75,94-131,144-177,158c-30,9-41,20-55,51c-20,48-7,50,41,9
		c32-27,37-29,57-15c21,13,23,12,34-16c12-27,53-69,70-69c3,0,5,13,2,30c-6,39,11,38,38,0c20-29,80-69,80-54c0,4-12,28-27,53l-27,46
		l38-32c24-22,47-33,66-33c35,0,36,2,7,60c-18,36-33,50-87,77c-36,18-90,42-119,54c-73,27-127,69-242,186c-94,95-97,100-101,151
		l-5,52l26-16c44-28,71-57,71-75c0-26,17-33,79-31c72,2,81,12,47,57c-16,20-26,38-25,40c2,1,31-6,64-16s69-19,80-19c17,1,14,5-15,30
		c-19,16-66,46-103,67c-48,26-89,61-141,118c-166,183-181,210-226,394c-25,101-30,102-53,11c-7-28-17-50-23-50c-5,1-31,15-59,32
		l-50,31l30,10c133,43-5,126-163,97c-54-9-64-8-93,9c-52,30-208,88-358,131c-94,27-142,46-160,64c-15,15-32,26-39,26s-12,10-12,23
		c0,26-46,102-78,131c-33,28-27,36,26,36c68,0,109-14,161-57c87-72,86-72,47,6c-29,57-35,76-25,87c20,25,36,16,106-62
		c46-52,84-84,118-100c27-13,51-22,53-20s-17,45-42,95c-26,50-42,91-37,91c31,0,100-37,144-76c70-63,137-92,137-59
		c0,17-43,90-60,100c-5,3-10,11-10,16c0,6,20-6,44-26c50-40,92-49,109-23c10,15-3,33-91,121l-103,103l-167,49
		c-197,57-264,90-475,231c-175,118-227,161-227,192c0,22-8,22,142,3l57-8l30,71c16,39,33,72,38,73c5,2,30-29,56-69
		c73-114,77-119,114-135c61-25,65-17,33,80c-15,48-26,87-23,87s39-28,82-62c72-58,140-97,169-98c8,0-11,30-42,67s-54,68-52,71
		c2,2,38-4,80-12c98-21,166-21,166-1s-29,33-70,32c-49-1-101,27-176,94c-85,77-127,104-195,124c-71,20-156,71-258,155
		c-66,55-87,79-129,155c-90,162-113,228-122,345c-8,98-34,200-65,260l-13,25L6152,7585z M6779,5181c15-11,42-47,60-80
		c18-34,34-61,36-61s20,29,40,65s41,67,46,70c5,4,29-8,54-25c41-28,45-35,45-70c0-38,26-80,48-80c16,0,42,36,48,68c4,18,9,32,13,32
		c3,0,15-21,25-48c11-26,29-67,40-92l21-45l5,100l5,100l38-61c20-34,37-68,37-77c0-15,64-77,79-77c5,0-2,42-15,93
		c-13,50-24,96-24,101s36-25,80-68c83-81,109-91,121-46c5,21,7,22,13,8c12-26-59-152-108-191c-22-18-47-37-53-41c-7-4-77,18-155,48
		c-79,30-207,74-285,97c-126,38-143,45-143,64c0,49-92,156-152,177c-50,18-27,74,25,64C6739,5203,6764,5191,6779,5181z M7300,4536
		c0-3-4-16-10-30c-8-23-7-26,10-26c11,0,29,9,40,20c28,28,54,13,73-45c16-44,15-45-10-65c-24-19-28-19-47-5c-12,9-33,23-48,33
		c-14,9-29,28-32,43s-8,38-12,53c-5,22-3,26,15,26C7291,4540,7300,4538,7300,4536z M6773,4157c3-7,46-65,96-130c50-64,91-117,91-119
		s-11-4-25-4c-72-5-98-31-54-55c21-11,20-11-10-30c-42-25-46-24-62,14c-7,17-28,46-46,63s-33,41-33,52c0,38-12,52-81,89
		c-41,22-69,44-69,53c0,31,25,49,85,64C6743,4172,6767,4173,6773,4157z M7131,4003c37-42,32-49-46-69c-22-6-25-3-25,24
		c0,17,4,42,10,57c8,21,13,24,28,16C7107,4026,7122,4014,7131,4003z M7376,3848c8-12-21-38-43-38c-13,0-18,32-6,43
		C7337,3864,7368,3861,7376,3848z M7237,3805c10-21,23-34,32-33c9,2,16-3,15-9c-1-7-2-22-2-32c-2-16-23-26-104-51
		c-109-34-152-34-182-1c-15,17-15,21,11,70l28,52l5-53l6-53l18,40c24,53,25,53,46,25c15-20,20-22,34-11c9,7,16,25,16,39
		c0,25,24,51,48,52C7215,3840,7228,3824,7237,3805z M6965,3751c-7-33-12-36-35-21c-12,7-11,13,9,34C6968,3795,6974,3792,6965,3751z
		 M5464,3485c-4-8-12-15-19-15c-33,0-78-86-94-178c-15-86-3-124,47-149c2,0-13-39-33-85c-21-45-41-93-46-106c-9-22-9-23-33-5
		c-21,16-22,19-7,30c25,18-1,36-56,39c-28,1-83,17-132,37c-46,20-92,38-103,40c-10,3-25,21-33,40c-8,20-19,38-25,42
		c-5,3-10,11-10,16c0,15,53-1,79-25l23-21l-7,25c-11,37-11,38,0,40c6,2,17-12,26-31c17-34,69-60,69-34c0,7,6,18,14,24
		c10,9,16,8,26-4c19-23,43-20,30,4c-15,30-12,36,9,17c33-30,34,1,1,43c-29,36-31,41-21,79c16,59,37,77,126,112c44,17,100,42,125,55
		s46,24,47,25C5468,3500,5467,3493,5464,3485z M5083,3355c-15-46-19-50-48-39c-14,6-10,13,21,45c21,22,39,39,40,39
		C5098,3400,5092,3380,5083,3355z M7003,3042c-6-34-5-36,11-23c20,17,19,19,45-53c20-53,20-61,7-81c-10-15-33-27-68-35
		c-29-7-55-13-58-12c-3,0-10,18-16,39c-9,33-8,45,13,88c12,27,23,58,23,67s5,29,10,43c8,22,13,25,24,15
		C7004,3082,7007,3067,7003,3042z M5002,2942l16-34l16,31c15,27,19,29,36,19c11-7,20-23,20-35c0-27,18-40,26-19c9,24,23,19,30-9
		c9-35,27-31,22,5c-6,42,6,37,25-10c8-22,20-40,26-40s9,6,7,13c-3,6-7,26-11,42l-6,30l35-36l36-36l-16-46l-15-45l-72,33
		c-40,18-91,39-115,46c-33,9-46,20-59,46c-9,19-27,41-39,50c-30,19-31,35-1,31C4976,2976,4992,2962,5002,2942z M5205,2680
		c3-6,3-19,0-31c-5-15-10-17-20-9c-22,19-26,50-5,50C5191,2690,5202,2685,5205,2680z M5282,2603c-2-24-8-41-13-38c-4,3-6,11-4,18
		s6,25,10,41C5284,2664,5288,2653,5282,2603z M6930,2562c-7-13-9-8-9,23c0,35,1,37,10,17C6937,2587,6936,2572,6930,2562z M4249,2261
		c10-7,6-16-17-42l-30-34l11,43C4225,2272,4227,2275,4249,2261z"/>
</g>
</svg>
