<?xml version="1.0" encoding="UTF-8"?>
<svg viewBox="0 0 640 480" xmlns="http://www.w3.org/2000/svg" xmlns:xlink="http://www.w3.org/1999/xlink">
 <defs>
  <filter id="f" x="-.228" y="-.228" width="1.456" height="1.456">
   <feGaussianBlur stdDeviation="4.75"/>
  </filter>
  <linearGradient id="d" x1="7.2478" x2="54.309" y1="39.62" y2="58.536" gradientTransform="matrix(9.9712 0 0 3.3333 -.0041575 116.67)" gradientUnits="userSpaceOnUse">
   <stop stop-color="#1a881a" offset="0"/>
   <stop stop-color="#1a881a" stop-opacity=".722" offset=".5"/>
   <stop stop-color="#1a881a" stop-opacity="0" offset="1"/>
  </linearGradient>
  <radialGradient id="c" cx="78.461" cy="-5.6066" r="50" gradientTransform="matrix(8.5019 -.46866 .09203 3.7781 115.79 117.04)" gradientUnits="userSpaceOnUse">
   <stop stop-color="#8bcbff" offset="0"/>
   <stop stop-color="#0081ed" offset="1"/>
  </radialGradient>
  <radialGradient id="b" cx="-50" cy="25" r="25" gradientTransform="matrix(1.5625 0 0 1.375 28.125 -9.375)" gradientUnits="userSpaceOnUse">
   <stop stop-color="#ff2" offset="0"/>
   <stop stop-color="#ffff71" stop-opacity=".794" offset="1"/>
  </radialGradient>
 </defs>
 <path d="m495.14 150h9.9712l39.885 300h-89.741l39.885-300z" fill="#1a881a" fill-opacity=".733" stroke-width="4.143"/>
 <path d="m-22.113 12.5z" fill="#ff0" stroke-width="0"/>
 <path id="a" d="m2.8826 150h458.67l-358.96 300h-99.712v-300z" fill="url(#d)" stroke-width="4.143"/>
 <use transform="matrix(-1 0 0 1 997.11 -3e-5)" width="100" height="100" xlink:href="#a"/>
 <g id="e">
  <path d="m500 145h39.885l376.41 315-374.3-2.5-41.992-312.5z" fill="#434343" stroke-width=".52"/>
  <g fill="#fff" stroke-width="4.143">
   <path d="m530.3 147.5l304.12 300h-19.942l-284.18-300z"/>
   <path d="m520.33 147.5l214.38 300h-19.942l-194.44-300z"/>
   <path d="m510.36 147.5l124.64 300h-19.942l-104.7-300z"/>
  </g>
  <g fill="#434343" stroke-width="0">
   <rect transform="matrix(9.9712 0 0 3.3333 -11.031 114.17)" x="52.29" y="15.6" width="5" height="1"/>
   <rect transform="matrix(9.9712 0 0 3.3333 -11.031 114.17)" x="54.29" y="35" width="9" height="1"/>
   <rect transform="matrix(9.9712 0 0 3.3333 -11.031 114.17)" x="54.29" y="40" width="12" height="2"/>
   <rect transform="matrix(9.9712 0 0 3.3333 -11.031 114.17)" x="55.29" y="46.625" width="14" height="2"/>
   <rect transform="matrix(9.9712 0 0 3.3333 -11.031 114.17)" x="56.29" y="53.312" width="15" height="2"/>
   <rect transform="matrix(9.9712 0 0 3.3333 -11.031 114.17)" x="56.29" y="61" width="18" height="2"/>
   <rect transform="matrix(9.9712 0 0 3.3333 -11.031 114.17)" x="56.29" y="68.688" width="21" height="2"/>
   <rect transform="matrix(9.9712 0 0 3.3333 -11.031 114.17)" x="56.29" y="77.375" width="24" height="2"/>
   <rect transform="matrix(9.9712 0 0 3.3333 -11.031 114.17)" x="56.29" y="87.25" width="28" height="2"/>
   <rect transform="matrix(9.9712 0 0 3.3333 -11.031 114.17)" x="53.29" y="19.2" width="5" height="1"/>
   <rect transform="matrix(9.9712 0 0 3.3333 -11.031 114.17)" x="53.29" y="22.8" width="7" height="1"/>
   <rect transform="matrix(9.9712 0 0 3.3333 -11.031 114.17)" x="53.29" y="26.4" width="8" height="1"/>
   <rect transform="matrix(9.9712 0 0 3.3333 -11.031 114.17)" x="53.29" y="30" width="9" height="1"/>
   <rect transform="matrix(9.9712 0 0 3.3333 -11.031 114.17)" x="51.648" y="12" width="3.6417" height="1"/>
  </g>
  <path d="m535.13 140l0.5938 0.5312 4.375 3.625h1.0312l-6-4.1562zm4.9688 4.1562h-39.969v0.84375l40.375 312.5 0.3125 0.8438h2.1562l374.56 2.5 3.7188 0.0938-1.5625-1.25-379.59-315.53zm-37.594 0.8438l36.75 0.8438 374.53 313.31-368-2.5-43.281-311.66z" stroke-width=".52"/>
 </g>
 <use transform="matrix(-1 0 0 1 991.07 1.0083e-5)" width="100" height="100" xlink:href="#e"/>
 <g stroke="#000">
  <path d="m2.8826 283.33z" fill="none" stroke-width="5.765"/>
  <g stroke-width="0">
   <rect x="2.8826" width="997.12" height="150" fill="url(#c)"/>
   <path d="m815.53 50a39.885 40 0 1 1 -79.769 0" fill="url(#b)" filter="url(#f)"/>
  </g>
 </g>
 <g fill="#fff">
  <path d="m903.49 71.953c-10.154 0-18.568 6.045-20 13.909-0.35797-0.025627-0.7182-0.042259-1.0839-0.042259-6.9866 0-12.676 4.7802-12.832 10.716-1.1672-0.5254-2.5082-0.82645-3.9393-0.82645-4.4722 0-8.106 2.928-8.106 6.5317s4.576 7.555 9.0482 7.555c37.903 0.098373 63.086 0.40318 100.86 0.20461 5.0853 0 9.7366-1.9432 9.7366-6.041 0-4.0977-4.1278-7.4239-9.2131-7.4239-1.3258 0-2.5843 0.22702-3.7237 0.6339-2.0643-2.7545-5.8112-4.5971-10.093-4.5971-1.686 0-3.2927 0.2884-4.7435 0.80299-0.80817-4.1809-5.2968-7.3864-10.711-7.3864-4.274 0-7.9717 1.9954-9.7376 4.8929-1.5789-0.75317-3.3834-1.2364-5.3087-1.3665 0.040466-0.42105 0.064087-0.84316 0.064087-1.2725 0-8.9909-9.0576-16.29-20.215-16.29z"/>
  <path d="m591.26 110c4.5296 0 8.2831 2.6965 8.9214 6.2044 0.15973-0.011452 0.32037-0.01886 0.48352-0.01886 3.1164 0 5.6545 2.1323 5.724 4.78 0.52063-0.23435 1.1189-0.36863 1.7573-0.36863 1.9949 0 3.6158 1.3061 3.6158 2.9137 0 1.6075-2.0412 3.3701-4.0361 3.3701-16.908 0.043877-28.141 0.17986-44.99 0.09127-2.2684 0-4.3433-0.86681-4.3433-2.6947s1.8414-3.3117 4.1098-3.3117c0.59137 0 1.1529 0.10128 1.6611 0.2828 0.92084-1.2287 2.5922-2.0507 4.5023-2.0507 0.75214 0 1.4688 0.12865 2.116 0.35815 0.36047-1.865 2.3628-3.2949 4.7778-3.2949 1.9066 0 3.556 0.89009 4.3437 2.1826 0.70435-0.33598 1.5093-0.55151 2.3682-0.60956-0.018127-0.18784-0.028625-0.37611-0.028625-0.56764 0-4.0106 4.0403-7.2664 9.0175-7.2664z"/>
  <path d="m137.2 26.379c-22.317 0-40.81 13.286-43.956 30.569-0.78681-0.056389-1.5786-0.092892-2.3823-0.092892-15.355 0-27.86 10.506-28.202 23.551-2.5653-1.1547-5.5127-1.8164-8.658-1.8164-9.8291 0-17.815 6.4354-17.815 14.356 0 7.9204 10.057 16.605 19.886 16.605 83.304 0.21613 138.65 0.88609 221.67 0.44966 11.177 0 21.399-4.2708 21.399-13.277 0-9.0061-9.0722-16.317-20.249-16.317-2.9139 0-5.6798 0.49901-8.184 1.3932-4.5371-6.054-12.772-10.104-22.183-10.104-3.7056 0-7.2367 0.63379-10.425 1.7648-1.7761-9.1889-11.641-16.234-23.54-16.234-9.3936 0-17.521 4.3856-21.402 10.754-3.4704-1.6553-7.4365-2.7173-11.668-3.0032 0.089066-0.9254 0.14084-1.8531 0.14084-2.7969 0-19.76-19.907-35.802-44.43-35.802z"/>
  <path d="m475.91 21.13c7.705 0 14.09 4.5869 15.176 10.554 0.27167-0.01947 0.54495-0.03208 0.82245-0.03208 5.3013 0 9.6187 3.6273 9.7368 8.131 0.88574-0.39864 1.9032-0.62709 2.9892-0.62709 3.3935 0 6.1507 2.2218 6.1508 4.9562 0 2.7345-3.4722 5.7327-6.8658 5.7327-28.76 0.0746-47.869 0.30589-76.53 0.15525-3.8587 0-7.3881-1.4745-7.3881-4.5838 0-3.1094 3.1322-5.6333 6.9909-5.6333 1.006 0 1.9609 0.1723 2.8255 0.48102 1.5664-2.0901 4.4096-3.4883 7.6585-3.4883 1.2794 0 2.4986 0.21882 3.5994 0.60929 0.61331-3.1725 4.0192-5.6048 8.1273-5.6048 3.2432 0 6.049 1.5142 7.3889 3.7128 1.1981-0.5715 2.5674-0.93813 4.0282-1.0368-0.030853-0.3195-0.048645-0.6398-0.048645-0.96561 0-6.8223 6.8728-12.36 15.339-12.36z"/>
 </g>
</svg>
