<?xml version="1.0" encoding="utf-8"?>
<!-- Generator: Adobe Illustrator 22.1.0, SVG Export Plug-In . SVG Version: 6.00 Build 0)  -->
<svg version="1.1" id="Layer_1" xmlns="http://www.w3.org/2000/svg" xmlns:xlink="http://www.w3.org/1999/xlink" x="0px" y="0px"
	 viewBox="0 0 256 256" style="enable-background:new 0 0 256 256;" xml:space="preserve">
<style type="text/css">
	.st0{fill:none;stroke:#000000;stroke-miterlimit:10;}
</style>
<path class="st0" d="M32.6,93.5h-2.1v-0.2C31.2,93.4,31.9,93.5,32.6,93.5z"/>
<rect class="st0" width="256" height="256"/>
<rect y="172.5" class="st0" width="256" height="83.5"/>
<rect y="184.3" class="st0" width="256" height="71.7"/>
<g>
	<g>
		<path class="st0" d="M19.5,203.7L0.3,255.2c-0.1,0.2-0.2,0.4-0.3,0.5v-8.3l16.7-44.8c0.3-0.8,1.1-1.2,1.9-0.9
			C19.4,202.1,19.8,202.9,19.5,203.7z"/>
	</g>
	<g>
		<path class="st0" d="M41.4,216.1c-3.3,20.8-17.9,34.5-32,39.9H1.7c0.1-0.6,0.6-1,1.1-1.2c14.7-3.2,32-16.8,35.6-39.2
			c0.1-0.8,0.9-1.4,1.7-1.3C41,214.5,41.5,215.3,41.4,216.1z"/>
	</g>
	<g>
		<g>
			<path class="st0" d="M25.9,252.9c0,0-3.6,0.9-5.7-0.5c-0.5-0.3-1.5-0.8-1.6-1.6c-0.1-1.2,0.1-1.9,1.1-2.4c0.9-0.4,1.3-0.4,2.3,0
				C24.3,249.6,25.9,252.9,25.9,252.9z"/>
		</g>
	</g>
	<g>
		<g>
			<path class="st0" d="M19.4,239.7c0,0-2.4,3.3-2.4,6.2c0,0.7-0.2,2,0.4,2.4c0.8,0.6,1.4,0.8,2.3,0c0.7-0.7,1-1.1,1.1-2.4
				C21,243,19.4,239.7,19.4,239.7z"/>
		</g>
	</g>
	<g>
		<g>
			<path class="st0" d="M31,248.2c0,0-3.4,1.6-5.8,0.6c-0.5-0.2-1.6-0.4-1.8-1.2c-0.3-1.1-0.2-1.8,0.7-2.5c0.8-0.6,1.2-0.7,2.3-0.4
				C28.9,245.3,31,248.2,31,248.2z"/>
		</g>
	</g>
	<g>
		<g>
			<path class="st0" d="M22.5,236.6c0,0-1.9,3.6-1.5,6.5c0.1,0.6,0.1,1.9,0.8,2.3c0.9,0.5,1.6,0.5,2.3-0.4c0.6-0.8,0.8-1.3,0.7-2.5
				C24.6,239.5,22.5,236.6,22.5,236.6z"/>
		</g>
	</g>
	<g>
		<g>
			<path class="st0" d="M34.9,243.6c0,0-3.4,1.7-5.8,0.9c-0.5-0.2-1.7-0.4-1.9-1.2c-0.3-1.1-0.3-1.8,0.6-2.5
				c0.8-0.6,1.2-0.7,2.3-0.5C32.7,240.8,34.9,243.6,34.9,243.6z"/>
		</g>
	</g>
	<g>
		<g>
			<path class="st0" d="M25.9,232.4c0,0-1.8,3.7-1.3,6.5c0.1,0.6,0.2,1.9,0.9,2.2c0.9,0.4,1.6,0.5,2.3-0.5c0.6-0.8,0.7-1.3,0.6-2.5
				C28.2,235.2,25.9,232.4,25.9,232.4z"/>
		</g>
	</g>
	<g>
		<g>
			<path class="st0" d="M39.1,237.8c0,0-3.1,2.3-5.7,2c-0.6-0.1-1.7,0-2.1-0.8c-0.5-1-0.5-1.7,0.3-2.6c0.7-0.8,1.1-0.9,2.2-0.9
				C36.4,235.5,39.1,237.8,39.1,237.8z"/>
		</g>
	</g>
	<g>
		<g>
			<path class="st0" d="M28.4,228.8c0,0-1.2,3.9-0.3,6.5c0.2,0.6,0.5,1.8,1.2,2c1,0.2,1.7,0.1,2.2-0.9c0.5-0.9,0.5-1.4,0.2-2.6
				C31.1,231,28.4,228.8,28.4,228.8z"/>
		</g>
	</g>
	<g>
		<g>
			<path class="st0" d="M42.8,230.9c0,0-2.7,2.9-5.3,3.3c-0.6,0.1-1.7,0.4-2.2-0.2c-0.6-0.9-0.9-1.5-0.2-2.5c0.6-0.9,0.9-1.2,2-1.4
				C39.7,229.4,42.8,230.9,42.8,230.9z"/>
		</g>
	</g>
	<g>
		<g>
			<path class="st0" d="M30.4,224.8c0,0-0.5,4,0.9,6.3c0.3,0.5,0.8,1.6,1.6,1.6c1.1,0,1.7-0.3,2-1.4c0.3-1,0.3-1.5-0.2-2.5
				C33.5,226.3,30.4,224.8,30.4,224.8z"/>
		</g>
	</g>
	<g>
		<g>
			<path class="st0" d="M44.9,224c0,0-2.3,3.4-4.8,4.2c-0.6,0.2-1.7,0.7-2.2,0.2c-0.8-0.7-1.1-1.3-0.6-2.4c0.4-1,0.8-1.3,1.8-1.8
				C41.6,223.1,44.9,224,44.9,224z"/>
		</g>
	</g>
	<g>
		<g>
			<path class="st0" d="M31.6,220.5c0,0,0.1,4,1.9,5.9c0.4,0.4,1.1,1.4,1.8,1.3c1.1-0.2,1.6-0.6,1.8-1.8c0.2-1,0.1-1.5-0.6-2.4
				C34.9,221.3,31.6,220.5,31.6,220.5z"/>
		</g>
	</g>
	<g>
		<g>
			<path class="st0" d="M46.7,217.6c0,0-2.1,3.5-4.6,4.6c-0.6,0.2-1.6,0.8-2.2,0.4c-0.8-0.6-1.2-1.2-0.8-2.3c0.4-1,0.7-1.4,1.7-1.9
				C43.3,217.1,46.7,217.6,46.7,217.6z"/>
		</g>
	</g>
	<g>
		<g>
			<path class="st0" d="M33.1,215.3c0,0,0.4,4,2.3,5.7c0.4,0.4,1.2,1.3,1.9,1.1c1-0.3,1.6-0.7,1.7-1.9c0.1-1,0-1.5-0.8-2.3
				C36.5,215.9,33.1,215.3,33.1,215.3z"/>
		</g>
	</g>
	<g>
		<g>
			<path class="st0" d="M38.2,208.7c0,0-1.4,3.9-0.5,6.6c0.2,0.6,0.4,1.9,1.1,2c1,0.3,1.6,0.2,2.2-0.8c0.5-0.9,0.6-1.4,0.3-2.6
				C40.8,211.1,38.2,208.7,38.2,208.7z"/>
		</g>
	</g>
	<g>
		<g>
			<path class="st0" d="M14.5,232.7c0,0-2.5,3.2-5.1,3.7c-0.6,0.1-1.7,0.5-2.2,0c-0.7-0.8-1-1.4-0.4-2.5c0.5-0.9,0.8-1.2,1.9-1.6
				C11.2,231.5,14.5,232.7,14.5,232.7z"/>
		</g>
	</g>
	<g>
		<g>
			<path class="st0" d="M1.5,227.9c0,0-0.2,4,1.4,6.2c0.4,0.5,0.9,1.5,1.7,1.4c1.1-0.1,1.7-0.4,1.9-1.6c0.2-1,0.2-1.5-0.4-2.5
				C4.8,229.1,1.5,227.9,1.5,227.9z"/>
		</g>
	</g>
	<g>
		<g>
			<path class="st0" d="M16.5,227.3c0,0-2.5,3.2-5.1,3.7c-0.6,0.1-1.7,0.5-2.2,0c-0.7-0.8-1-1.4-0.4-2.5c0.5-0.9,0.8-1.2,1.9-1.6
				C13.2,226.1,16.5,227.3,16.5,227.3z"/>
		</g>
	</g>
	<g>
		<g>
			<path class="st0" d="M3.6,222.5c0,0-0.2,4,1.4,6.2c0.4,0.5,0.9,1.5,1.7,1.4c1.1-0.1,1.7-0.4,1.9-1.6c0.2-1,0.2-1.5-0.4-2.5
				C6.8,223.7,3.6,222.5,3.6,222.5z"/>
		</g>
	</g>
	<g>
		<g>
			<path class="st0" d="M18.4,222.1c0,0-2.5,3.2-5.1,3.7c-0.6,0.1-1.7,0.5-2.2,0c-0.7-0.8-1-1.4-0.4-2.5c0.5-0.9,0.8-1.2,1.9-1.6
				C15.2,220.9,18.4,222.1,18.4,222.1z"/>
		</g>
	</g>
	<g>
		<g>
			<path class="st0" d="M5.5,217.3c0,0-0.2,4,1.4,6.2c0.4,0.5,0.9,1.5,1.7,1.4c1.1-0.1,1.7-0.4,1.9-1.6c0.2-1,0.2-1.5-0.4-2.5
				C8.7,218.5,5.5,217.3,5.5,217.3z"/>
		</g>
	</g>
	<g>
		<g>
			<path class="st0" d="M20.5,216.5c0,0-2.5,3.2-5.1,3.7c-0.6,0.1-1.7,0.5-2.2,0c-0.7-0.8-1-1.4-0.4-2.5c0.5-0.9,0.8-1.2,1.9-1.6
				C17.3,215.3,20.5,216.5,20.5,216.5z"/>
		</g>
	</g>
	<g>
		<g>
			<path class="st0" d="M7.6,211.7c0,0-0.2,4,1.4,6.2c0.4,0.5,0.9,1.5,1.7,1.4c1.1-0.1,1.7-0.4,1.9-1.6c0.2-1,0.2-1.5-0.4-2.5
				C10.8,212.9,7.6,211.7,7.6,211.7z"/>
		</g>
	</g>
	<g>
		<g>
			<path class="st0" d="M22.6,210.8c0,0-2.5,3.2-5.1,3.7c-0.6,0.1-1.7,0.5-2.2,0c-0.7-0.8-1-1.4-0.4-2.5c0.5-0.9,0.8-1.2,1.9-1.6
				C19.4,209.6,22.6,210.8,22.6,210.8z"/>
		</g>
	</g>
	<g>
		<g>
			<path class="st0" d="M9.7,206c0,0-0.2,4,1.4,6.2c0.4,0.5,0.9,1.5,1.7,1.4c1.1-0.1,1.7-0.4,1.9-1.6c0.2-1,0.2-1.5-0.4-2.5
				C12.9,207.2,9.7,206,9.7,206z"/>
		</g>
	</g>
	<g>
		<g>
			<path class="st0" d="M24.6,205.7c0,0-2.5,3.2-5.1,3.7c-0.6,0.1-1.7,0.5-2.2,0c-0.7-0.8-1-1.4-0.4-2.5c0.5-0.9,0.8-1.2,1.9-1.6
				C21.3,204.4,24.6,205.7,24.6,205.7z"/>
		</g>
	</g>
	<g>
		<g>
			<path class="st0" d="M20.4,196.1c0,0,0.9,3.8-0.2,6.5c-0.3,0.6-0.6,1.9-1.4,2.2c-1,0.4-1.7,0.4-2.2-0.6c-0.4-0.9-0.4-1.3-0.1-2.6
				C17.5,198.8,20.4,196.1,20.4,196.1z"/>
		</g>
	</g>
	<g>
		<g>
			<path class="st0" d="M11.6,200.8c0,0-0.2,4,1.4,6.2c0.4,0.5,0.9,1.5,1.7,1.4c1.1-0.1,1.7-0.4,1.9-1.6c0.2-1,0.2-1.5-0.4-2.5
				C14.9,202,11.6,200.8,11.6,200.8z"/>
		</g>
	</g>
	<g>
		<path class="st0" d="M7,255.4c0,0,15.2-6.4,11.9-36.3C18.9,219.1,17.7,245.7,7,255.4z"/>
	</g>
</g>
<g>
	<g>
		<path class="st0" d="M50.8,228l-10.4,28h-3.2L48,227c0.3-0.8,1.2-1.2,1.9-0.9C50.7,226.4,51.1,227.2,50.8,228z"/>
	</g>
	<g>
		<path class="st0" d="M63.2,234.9c-1.6,10-7.7,17.2-14.3,21.1h-7.6c7.9-2,17.1-9.5,19-21.6c0.1-0.8,0.9-1.4,1.7-1.2
			S63.4,234.1,63.2,234.9z"/>
	</g>
	<g>
		<g>
			<path class="st0" d="M53.8,255.7c0,0-2,0.5-3.2-0.3c-0.3-0.2-0.9-0.4-0.9-0.9c0-0.7,0.1-1.1,0.6-1.4c0.5-0.2,0.7-0.2,1.3,0
				C52.9,253.8,53.8,255.7,53.8,255.7z"/>
		</g>
	</g>
	<g>
		<g>
			<path class="st0" d="M50.1,248.2c0,0-1.4,1.9-1.4,3.5c0,0.4-0.1,1.1,0.2,1.4c0.5,0.4,0.8,0.5,1.3,0c0.4-0.4,0.5-0.6,0.6-1.4
				C51,250.1,50.1,248.2,50.1,248.2z"/>
		</g>
	</g>
	<g>
		<g>
			<path class="st0" d="M56.7,253c0,0-2,0.9-3.3,0.4c-0.3-0.1-0.9-0.3-1-0.7c-0.1-0.6-0.1-1,0.4-1.4c0.5-0.3,0.7-0.4,1.3-0.2
				C55.5,251.4,56.7,253,56.7,253z"/>
		</g>
	</g>
	<g>
		<g>
			<path class="st0" d="M51.8,246.4c0,0-1.1,2.1-0.9,3.7c0.1,0.4,0.1,1.1,0.4,1.3c0.5,0.3,0.9,0.3,1.3-0.2c0.4-0.5,0.4-0.7,0.4-1.4
				C53.1,248.1,51.8,246.4,51.8,246.4z"/>
		</g>
	</g>
	<g>
		<g>
			<path class="st0" d="M58.9,250.4c0,0-1.9,1-3.3,0.5c-0.3-0.1-0.9-0.2-1.1-0.7c-0.2-0.6-0.1-1,0.4-1.4s0.7-0.4,1.3-0.3
				C57.6,248.8,58.9,250.4,58.9,250.4z"/>
		</g>
	</g>
	<g>
		<g>
			<path class="st0" d="M53.8,244.1c0,0-1,2.1-0.7,3.7c0.1,0.4,0.1,1.1,0.5,1.3c0.5,0.2,0.9,0.3,1.3-0.3c0.3-0.5,0.4-0.7,0.4-1.4
				C55.1,245.7,53.8,244.1,53.8,244.1z"/>
		</g>
	</g>
	<g>
		<g>
			<path class="st0" d="M61.3,247.1c0,0-1.8,1.3-3.2,1.1c-0.3,0-1,0-1.2-0.4c-0.3-0.6-0.3-1,0.1-1.5c0.4-0.4,0.6-0.5,1.3-0.5
				C59.8,245.8,61.3,247.1,61.3,247.1z"/>
		</g>
	</g>
	<g>
		<g>
			<path class="st0" d="M55.2,242c0,0-0.7,2.2-0.2,3.7c0.1,0.3,0.3,1,0.7,1.1c0.6,0.1,0.9,0.1,1.3-0.5c0.3-0.5,0.3-0.8,0.1-1.5
				C56.8,243.3,55.2,242,55.2,242z"/>
		</g>
	</g>
	<g>
		<g>
			<path class="st0" d="M63.4,243.2c0,0-1.5,1.7-3,1.8c-0.3,0-1,0.2-1.2-0.1c-0.4-0.5-0.5-0.9-0.1-1.4c0.3-0.5,0.5-0.7,1.2-0.8
				C61.6,242.3,63.4,243.2,63.4,243.2z"/>
		</g>
	</g>
	<g>
		<g>
			<path class="st0" d="M56.3,239.7c0,0-0.3,2.3,0.5,3.6c0.2,0.3,0.5,0.9,0.9,0.9c0.6,0,1-0.1,1.2-0.8c0.2-0.6,0.2-0.8-0.1-1.4
				C58.1,240.6,56.3,239.7,56.3,239.7z"/>
		</g>
	</g>
	<g>
		<g>
			<path class="st0" d="M64.6,239.3c0,0-1.3,1.9-2.7,2.4c-0.3,0.1-1,0.4-1.3,0.1c-0.4-0.4-0.6-0.7-0.3-1.4c0.2-0.6,0.4-0.7,1-1
				C62.7,238.8,64.6,239.3,64.6,239.3z"/>
		</g>
	</g>
	<g>
		<g>
			<path class="st0" d="M57,237.3c0,0,0.1,2.3,1.1,3.4c0.2,0.2,0.6,0.8,1,0.7c0.6-0.1,0.9-0.3,1-1c0.1-0.6,0-0.8-0.3-1.4
				C58.9,237.8,57,237.3,57,237.3z"/>
		</g>
	</g>
	<g>
		<g>
			<path class="st0" d="M65.6,235.7c0,0-1.2,2-2.6,2.6c-0.3,0.1-0.9,0.5-1.3,0.2c-0.5-0.4-0.7-0.7-0.4-1.3c0.2-0.6,0.4-0.8,1-1.1
				C63.7,235.4,65.6,235.7,65.6,235.7z"/>
		</g>
	</g>
	<g>
		<g>
			<path class="st0" d="M57.9,234.4c0,0,0.2,2.2,1.3,3.2c0.2,0.2,0.7,0.7,1.1,0.6c0.6-0.2,0.9-0.4,1-1.1c0.1-0.6,0-0.8-0.4-1.3
				C59.8,234.7,57.9,234.4,57.9,234.4z"/>
		</g>
	</g>
	<g>
		<g>
			<path class="st0" d="M60.8,230.6c0,0-0.8,2.2-0.3,3.7c0.1,0.3,0.2,1.1,0.6,1.2c0.6,0.2,0.9,0.1,1.3-0.5c0.3-0.5,0.3-0.8,0.2-1.5
				C62.2,232,60.8,230.6,60.8,230.6z"/>
		</g>
	</g>
	<g>
		<g>
			<path class="st0" d="M47.3,244.2c0,0-1.4,1.8-2.9,2.1c-0.3,0.1-1,0.3-1.3,0c-0.4-0.4-0.6-0.8-0.2-1.4c0.3-0.5,0.5-0.7,1.1-0.9
				C45.5,243.6,47.3,244.2,47.3,244.2z"/>
		</g>
	</g>
	<g>
		<g>
			<path class="st0" d="M40,241.5c0,0-0.1,2.3,0.8,3.5c0.2,0.3,0.5,0.9,1,0.8c0.6-0.1,0.9-0.2,1.1-0.9c0.1-0.6,0.1-0.8-0.2-1.4
				C41.8,242.2,40,241.5,40,241.5z"/>
		</g>
	</g>
	<g>
		<g>
			<path class="st0" d="M48.5,241.2c0,0-1.4,1.8-2.9,2.1c-0.3,0.1-1,0.3-1.3,0c-0.4-0.4-0.6-0.8-0.2-1.4c0.3-0.5,0.5-0.7,1.1-0.9
				C46.6,240.5,48.5,241.2,48.5,241.2z"/>
		</g>
	</g>
	<g>
		<g>
			<path class="st0" d="M41.1,238.4c0,0-0.1,2.3,0.8,3.5c0.2,0.3,0.5,0.9,1,0.8c0.6-0.1,0.9-0.2,1.1-0.9c0.1-0.6,0.1-0.8-0.2-1.4
				C43,239.1,41.1,238.4,41.1,238.4z"/>
		</g>
	</g>
	<g>
		<g>
			<path class="st0" d="M49.6,238.2c0,0-1.4,1.8-2.9,2.1c-0.3,0.1-1,0.3-1.3,0c-0.4-0.4-0.6-0.8-0.2-1.4c0.3-0.5,0.5-0.7,1.1-0.9
				C47.7,237.6,49.6,238.2,49.6,238.2z"/>
		</g>
	</g>
	<g>
		<g>
			<path class="st0" d="M42.2,235.5c0,0-0.1,2.3,0.8,3.5c0.2,0.3,0.5,0.9,1,0.8c0.6-0.1,0.9-0.2,1.1-0.9c0.1-0.6,0.1-0.8-0.2-1.4
				C44.1,236.2,42.2,235.5,42.2,235.5z"/>
		</g>
	</g>
	<g>
		<g>
			<path class="st0" d="M50.8,235c0,0-1.4,1.8-2.9,2.1c-0.3,0.1-1,0.3-1.3,0c-0.4-0.4-0.6-0.8-0.2-1.4c0.3-0.5,0.5-0.7,1.1-0.9
				C48.9,234.3,50.8,235,50.8,235z"/>
		</g>
	</g>
	<g>
		<g>
			<path class="st0" d="M43.4,232.3c0,0-0.1,2.3,0.8,3.5c0.2,0.3,0.5,0.9,1,0.8c0.6-0.1,0.9-0.2,1.1-0.9c0.1-0.6,0.1-0.8-0.2-1.4
				C45.3,233,43.4,232.3,43.4,232.3z"/>
		</g>
	</g>
	<g>
		<g>
			<path class="st0" d="M52,231.8c0,0-1.4,1.8-2.9,2.1c-0.3,0.1-1,0.3-1.3,0c-0.4-0.4-0.6-0.8-0.2-1.4c0.3-0.5,0.5-0.7,1.1-0.9
				C50.1,231.1,52,231.8,52,231.8z"/>
		</g>
	</g>
	<g>
		<g>
			<path class="st0" d="M44.6,229.1c0,0-0.1,2.3,0.8,3.5c0.2,0.3,0.5,0.9,1,0.8c0.6-0.1,0.9-0.2,1.1-0.9c0.1-0.6,0.1-0.8-0.2-1.4
				C46.4,229.8,44.6,229.1,44.6,229.1z"/>
		</g>
	</g>
	<g>
		<g>
			<path class="st0" d="M53,228.9c0,0-1.4,1.8-2.9,2.1c-0.3,0.1-1,0.3-1.3,0c-0.4-0.4-0.6-0.8-0.2-1.4c0.3-0.5,0.5-0.7,1.1-0.9
				C51.2,228.2,53,228.9,53,228.9z"/>
		</g>
	</g>
	<g>
		<g>
			<path class="st0" d="M50.7,223.5c0,0,0.5,2.1-0.1,3.7c-0.1,0.4-0.4,1.1-0.8,1.2c-0.6,0.2-0.9,0.2-1.2-0.4c-0.2-0.5-0.2-0.8,0-1.5
				C49.1,225,50.7,223.5,50.7,223.5z"/>
		</g>
	</g>
	<g>
		<g>
			<path class="st0" d="M45.7,226.2c0,0-0.1,2.3,0.8,3.5c0.2,0.3,0.5,0.9,1,0.8c0.6-0.1,0.9-0.2,1.1-0.9c0.1-0.6,0.1-0.8-0.2-1.4
				C47.5,226.8,45.7,226.2,45.7,226.2z"/>
		</g>
	</g>
	<g>
		<path class="st0" d="M40,252.7c0,0-7.6-4.4-1.3-21C38.7,231.7,35.4,246.7,40,252.7z"/>
	</g>
	<g>
		<path class="st0" d="M43.1,257.1c0,0,8.6-3.6,6.7-20.6C49.8,236.5,49.1,251.6,43.1,257.1z"/>
	</g>
</g>
<g>
	<path class="st0" d="M248.7,245.2c0,0-10.6-1.4-11.8-3.5l-5.9,9.7c0,0-0.6-8.3,1.4-12.4c0,0,2.5-2.2,5.6-2.1L248.7,245.2z"/>
	<g>
		<path class="st0" d="M254.4,256h-4.2l-8.5-29.2c-0.3-1.1,0.3-2.2,1.4-2.5c1-0.3,2.2,0.3,2.5,1.4L254.4,256z"/>
	</g>
	<path class="st0" d="M256,223.4c-3.3,4.2-7.8,11.5-7.8,18.7c0,0,4.5-3,7.8-8.4"/>
	<path class="st0" d="M249.4,246c0,0-7-9-11.4-9.2c0,0-5.3,5.5-7,14.5c0,0,5.7-6.1,8.8-10.5C239.8,240.8,247.8,245,249.4,246z"/>
	<path class="st0" d="M256,223.4c-3.5,4.4-8.5,12-7.8,18.4c0,0,4.6-7.7,7.8-14.3"/>
	<path class="st0" d="M251.6,209.6c0.8,0.5,1.2,1.3,0.9,2.2c0,0.1-0.1,0.2-0.1,0.3c0.1,0,0.2,0,0.2,0.1c1.3,0.5,1.7,1.9,0.9,3
		c-0.5,0.7-1.3,1.1-2.1,1.3c0.1,0.5,0,1.1-0.4,1.7c0,0.1-0.1,0.1-0.1,0.2c0.1,0,0.1,0,0.2,0.1c1.3,0.5,1.7,1.9,0.9,3
		c-0.6,0.8-1.7,1.3-2.7,1.3c0,0.4-0.1,0.9-0.4,1.4c-0.6,0.9-1.8,1.4-2.9,1.3l0,0c-0.7,1-2.1,1.5-3.3,1.2c0,0.1-0.1,0.1-0.1,0.2
		c-0.8,1.1-2.5,1.6-3.8,1.1c-0.8-0.3-1.2-0.9-1.3-1.6c-0.1,0.1-0.3,0.1-0.4,0.2c-1.5,0.4-3-0.2-3.3-1.4c-0.1-0.2-0.1-0.5-0.1-0.7
		c-0.5-0.3-0.9-0.7-1-1.2c-0.1-0.4-0.1-0.9,0.1-1.3c-0.2,0-0.5,0-0.7,0c-1.5-0.2-2.3-1.4-1.8-2.6c0.1-0.4,0.4-0.7,0.7-1
		c-1.4-0.2-2.2-1.4-1.8-2.6c0.1-0.3,0.2-0.5,0.4-0.7c-0.8,0-1.6-0.2-2.1-0.7c-0.9-0.9-0.7-2.4,0.6-3.2c0.2-0.2,0.5-0.3,0.8-0.4
		c-0.1-0.1-0.2-0.1-0.3-0.2c-0.9-0.9-0.7-2.3,0.5-3.2c-0.4-0.1-0.8-0.3-1.1-0.6c-0.9-0.9-0.7-2.4,0.6-3.2c0.7-0.5,1.5-0.7,2.3-0.6
		c-0.7-0.7-0.8-1.7-0.2-2.6c0.5-0.7,1.2-1.1,2-1.3c-0.9-0.6-1.1-1.8-0.4-2.8c0-0.1,0.1-0.1,0.1-0.2c-1.1-0.4-1.7-1.4-1.4-2.5
		c0.2-0.8,0.9-1.4,1.8-1.8c-0.7-0.5-1-1.3-0.7-2.1c0.4-1.2,1.9-2.1,3.4-2c1.5,0.2,2.4,1.3,2,2.6l0,0c1.1,0.2,1.9,0.9,1.9,1.8
		c0.2,0,0.5,0,0.7,0c1.5,0.2,2.4,1.3,2,2.6c-0.1,0.2-0.2,0.4-0.3,0.6c1.3,0.3,2.1,1.4,1.7,2.5c0,0.1,0,0.1-0.1,0.2
		c0.3-0.1,0.7-0.1,1.1-0.1c0.8,0.1,1.4,0.5,1.8,1c0.5-0.2,1.2-0.4,1.8-0.3c1.5,0.2,2.4,1.3,2,2.6c-0.2,0.7-0.8,1.3-1.5,1.6
		c0.1,0,0.2,0,0.2,0c1.5,0.2,2.4,1.3,2,2.6c0,0.1-0.1,0.3-0.2,0.4c0.1,0,0.1,0,0.2,0c1.5,0.2,2.4,1.3,2,2.6
		C252.4,208.8,252,209.3,251.6,209.6z"/>
	<ellipse transform="matrix(0.9603 -0.279 0.279 0.9603 -47.0149 75.0646)" class="st0" cx="240.2" cy="202.7" rx="1.8" ry="1.4"/>
	<ellipse transform="matrix(0.9603 -0.279 0.279 0.9603 -45.7703 74.7743)" class="st0" cx="239.8" cy="198.2" rx="2.3" ry="1.9"/>
	<ellipse transform="matrix(0.9603 -0.279 0.279 0.9603 -46.6834 75.9898)" class="st0" cx="243.6" cy="202" rx="2.3" ry="1.9"/>
	<ellipse transform="matrix(0.9603 -0.279 0.279 0.9603 -51.1996 77.6249)" class="st0" cx="247.1" cy="218.7" rx="1.8" ry="1.4"/>
	<ellipse transform="matrix(0.9603 -0.279 0.279 0.9603 -45.1246 74.1396)" class="st0" cx="237.9" cy="195.6" rx="2.3" ry="1.9"/>
	<ellipse transform="matrix(0.9603 -0.279 0.279 0.9603 -50.4167 77.3709)" class="st0" cx="246.6" cy="215.8" rx="1.8" ry="1.4"/>
	<ellipse transform="matrix(0.9603 -0.279 0.279 0.9603 -47.5995 76.5166)" class="st0" cx="245" cy="205.5" rx="1.6" ry="1.3"/>
	<ellipse transform="matrix(0.9603 -0.279 0.279 0.9603 -47.7435 75.5648)" class="st0" cx="241.6" cy="205.5" rx="1.6" ry="1.3"/>
	<ellipse transform="matrix(0.9603 -0.279 0.279 0.9603 -49.1807 76.2304)" class="st0" cx="243.2" cy="210.9" rx="1.6" ry="1.3"/>
	<ellipse transform="matrix(0.9603 -0.279 0.279 0.9603 -48.621 77.1424)" class="st0" cx="246.7" cy="209.4" rx="1.6" ry="1.3"/>
	<ellipse transform="matrix(0.9603 -0.279 0.279 0.9603 -48.0614 77.5209)" class="st0" cx="248.3" cy="207.6" rx="1.6" ry="1.3"/>
	<ellipse transform="matrix(0.9603 -0.279 0.279 0.9603 -47.6118 77.6577)" class="st0" cx="249" cy="206.1" rx="1.6" ry="1.3"/>
	<ellipse transform="matrix(0.9603 -0.279 0.279 0.9603 -46.3817 75.1193)" class="st0" cx="240.7" cy="200.5" rx="1.6" ry="1.3"/>
	<ellipse transform="matrix(0.9603 -0.279 0.279 0.9603 -48.6232 74.9786)" class="st0" cx="239.1" cy="208.3" rx="1.8" ry="1.4"/>
	<ellipse transform="matrix(0.9603 -0.279 0.279 0.9603 -48.2042 76.6873)" class="st0" cx="245.3" cy="207.7" rx="2.3" ry="1.9"/>
	<ellipse transform="matrix(0.9603 -0.279 0.279 0.9603 -49.8146 77.5972)" class="st0" cx="247.7" cy="213.8" rx="1.8" ry="1.4"/>
	<ellipse transform="matrix(0.9603 -0.279 0.279 0.9603 -49.0488 77.5779)" class="st0" cx="248" cy="211.1" rx="1.8" ry="1.4"/>
	<ellipse transform="matrix(0.9603 -0.279 0.279 0.9603 -51.0117 76.3754)" class="st0" cx="242.8" cy="217.4" rx="1.4" ry="1.2"/>
	<ellipse transform="matrix(0.9603 -0.279 0.279 0.9603 -51.7782 77.5615)" class="st0" cx="246.6" cy="220.7" rx="1.4" ry="1.2"/>
	<ellipse transform="matrix(0.9603 -0.279 0.279 0.9603 -48.2896 72.5153)" class="st0" cx="230.6" cy="205.9" rx="1.1" ry="0.9"/>
	<ellipse transform="matrix(0.9603 -0.279 0.279 0.9603 -49.4701 73.3932)" class="st0" cx="233.1" cy="210.5" rx="1.1" ry="0.9"/>
	<ellipse transform="matrix(0.9603 -0.279 0.279 0.9603 -46.2339 73.5599)" class="st0" cx="235.3" cy="199.2" rx="1.1" ry="0.9"/>
	<ellipse transform="matrix(0.9603 -0.279 0.279 0.9603 -46.923 72.8911)" class="st0" cx="232.6" cy="201.3" rx="1.4" ry="1.2"/>
	<ellipse transform="matrix(0.9603 -0.279 0.279 0.9603 -44.3557 72.7229)" class="st0" cx="233.3" cy="192.2" rx="1.4" ry="1.2"/>
	<ellipse transform="matrix(0.9603 -0.279 0.279 0.9603 -43.5891 73.5222)" class="st0" cx="236.5" cy="189.9" rx="1.4" ry="1.2"/>
	<ellipse transform="matrix(0.9603 -0.279 0.279 0.9603 -43.3573 72.5793)" class="st0" cx="233.3" cy="188.6" rx="1.4" ry="1.2"/>
	<ellipse transform="matrix(0.9603 -0.279 0.279 0.9603 -43.9178 72.834)" class="st0" cx="233.9" cy="190.7" rx="1.4" ry="1.2"/>
	<ellipse transform="matrix(0.9603 -0.279 0.279 0.9603 -44.9277 74.9373)" class="st0" cx="240.8" cy="195.3" rx="1.4" ry="1.2"/>
	<ellipse transform="matrix(0.9603 -0.279 0.279 0.9603 -45.3533 73.1516)" class="st0" cx="234.3" cy="195.9" rx="1.4" ry="1.2"/>
	<ellipse transform="matrix(0.9603 -0.279 0.279 0.9603 -47.6655 73.8801)" class="st0" cx="235.7" cy="204.4" rx="1.4" ry="1.2"/>
	<ellipse transform="matrix(0.9603 -0.279 0.279 0.9603 -49.6366 77.0594)" class="st0" cx="245.9" cy="212.9" rx="1.4" ry="1.2"/>
	<ellipse transform="matrix(0.9603 -0.279 0.279 0.9603 -49.6614 76.4378)" class="st0" cx="243.7" cy="212.7" rx="1.4" ry="1.2"/>
	<ellipse transform="matrix(0.9603 -0.279 0.279 0.9603 -47.5818 77.2854)" class="st0" cx="247.7" cy="205.8" rx="1.4" ry="1.2"/>
	<ellipse transform="matrix(0.9603 -0.279 0.279 0.9603 -48.3724 78.135)" class="st0" cx="250.3" cy="209" rx="1.4" ry="1.2"/>
	<ellipse transform="matrix(0.9603 -0.279 0.279 0.9603 -49.7466 78.2696)" class="st0" cx="250.1" cy="213.9" rx="1.4" ry="1.2"/>
	<ellipse transform="matrix(0.9603 -0.279 0.279 0.9603 -50.5381 78.3006)" class="st0" cx="249.8" cy="216.7" rx="1.4" ry="1.2"/>
	<ellipse transform="matrix(0.9603 -0.279 0.279 0.9603 -46.6935 76.9002)" class="st0" cx="246.8" cy="202.5" rx="1.4" ry="1.2"/>
	<ellipse transform="matrix(0.9603 -0.279 0.279 0.9603 -46.133 76.6454)" class="st0" cx="246.2" cy="200.4" rx="1.4" ry="1.2"/>
	<ellipse transform="matrix(0.9603 -0.279 0.279 0.9603 -47.1554 76.4526)" class="st0" cx="245" cy="203.9" rx="1.4" ry="1.2"/>
	<ellipse transform="matrix(0.9603 -0.279 0.279 0.9603 -46.0842 75.6182)" class="st0" cx="242.6" cy="199.7" rx="1.4" ry="1.2"/>
	<ellipse transform="matrix(0.9603 -0.279 0.279 0.9603 -45.6107 76.0915)" class="st0" cx="244.5" cy="198.3" rx="1.4" ry="1.2"/>
	<ellipse transform="matrix(0.9603 -0.279 0.279 0.9603 -45.9385 76.222)" class="st0" cx="244.8" cy="199.5" rx="1.4" ry="1.2"/>
	<ellipse transform="matrix(0.9603 -0.279 0.279 0.9603 -45.0386 75.3289)" class="st0" cx="242.1" cy="195.9" rx="1.4" ry="1.2"/>
	<ellipse transform="matrix(0.9603 -0.279 0.279 0.9603 -45.5122 75.3891)" class="st0" cx="242.1" cy="197.6" rx="1.4" ry="1.2"/>
	<ellipse transform="matrix(0.9603 -0.279 0.279 0.9603 -44.7084 73.6836)" class="st0" cx="236.5" cy="193.9" rx="1.4" ry="1.2"/>
	<ellipse transform="matrix(0.9603 -0.279 0.279 0.9603 -44.2589 73.8204)" class="st0" cx="237.2" cy="192.4" rx="1.4" ry="1.2"/>
	<ellipse transform="matrix(0.9603 -0.279 0.279 0.9603 -50.1029 75.5599)" class="st0" cx="240.4" cy="213.8" rx="1.5" ry="1.2"/>
	<ellipse transform="matrix(0.9603 -0.279 0.279 0.9603 -50.7334 77.7564)" class="st0" cx="247.8" cy="217.1" rx="1.8" ry="1.4"/>
	<ellipse transform="matrix(0.9603 -0.279 0.279 0.9603 -51.3805 77.1922)" class="st0" cx="245.5" cy="219.1" rx="1.8" ry="1.4"/>
</g>
</svg>
