<?xml version="1.0" encoding="utf-8"?>
<!-- Generator: Adobe Illustrator 22.1.0, SVG Export Plug-In . SVG Version: 6.00 Build 0)  -->
<svg version="1.1" id="Layer_1" xmlns="http://www.w3.org/2000/svg" xmlns:xlink="http://www.w3.org/1999/xlink" x="0px" y="0px"
	 viewBox="0 0 2804.9 765" style="enable-background:new 0 0 2804.9 765;" xml:space="preserve">
<g transform="translate(110.84 251.21)">
	<path style="fill:none;stroke:#000000;stroke-width:3;stroke-miterlimit:10;" d="M282.6,513.2h2017.1L1599.1,27.6H981.5
		L282.6,513.2L282.6,513.2z"/>
	<path style="fill:none;stroke:#000000;stroke-width:3;stroke-miterlimit:10;" d="M898.4,342.1h-91.1l137-148.9h60.2L898.4,342.1
		L898.4,342.1z"/>
	<path style="fill:none;stroke:#000000;stroke-width:3;stroke-miterlimit:10;" d="M804.9,6.8l-914.2,440.4l393.5,0.6l0-0.6l0,65.1
		L980.2,29l0.2-21.7L804.9,6.8z"/>
	<path style="fill:none;stroke:#000000;stroke-width:3;stroke-miterlimit:10;" d="M281.8,449.8l698-441.7"/>
	<path style="fill:none;stroke:#000000;stroke-width:3;stroke-miterlimit:10;" d="M1776.3,6l914.3,440.4
		c-131.1-0.6-262.3,1.9-393.5,0l0,65.1L1601.1,28.2l-0.2-21.7L1776.3,6z"/>
	<path style="fill:none;stroke:#000000;stroke-width:3;stroke-miterlimit:10;" d="M2299.5,449L1601.4,7.4"/>
	<path style="fill:none;stroke:#000000;stroke-width:3;stroke-miterlimit:10;" d="M1328.2,341.8h91.9l-40.4-149.7h-59.4
		L1328.2,341.8z"/>
	<path style="fill:none;stroke:#000000;stroke-width:3;stroke-miterlimit:10;" d="M1502.4,341.8h91.1l-87.1-148.9h-61.8
		L1502.4,341.8z"/>
	<path style="fill:none;stroke:#000000;stroke-width:3;stroke-miterlimit:10;" d="M1675.1,341.8h91.1l-137-148.9H1569L1675.1,341.8
		L1675.1,341.8z"/>
	<path style="fill:none;stroke:#000000;stroke-width:3;stroke-miterlimit:10;" d="M1849.2,341.5h91.1l-183.7-148.1h-61L1849.2,341.5
		L1849.2,341.5z"/>
	<path style="fill:none;stroke:#000000;stroke-width:3;stroke-miterlimit:10;" d="M1246.3,342.1h-91.9l40.4-149.7h59.4L1246.3,342.1
		z"/>
	<path style="fill:none;stroke:#000000;stroke-width:3;stroke-miterlimit:10;" d="M1072.1,342.1H981l87.1-148.9h61.8L1072.1,342.1z"
		/>
	<path style="fill:none;stroke:#000000;stroke-width:3;stroke-miterlimit:10;" d="M724.3,342.1h-91.1L817,194h61L724.3,342.1
		L724.3,342.1z"/>
</g>
<g transform="matrix(.51334 0 0 .51334 649.62 455.45)">
	<path style="fill:none;stroke:#000000;stroke-width:3;stroke-miterlimit:10;" d="M342.9-752c0,25.5-20.7,46.2-46.2,46.2
		c-25.5,0-46.2-20.7-46.2-46.2c0-25.5,20.7-46.2,46.2-46.2C322.2-798.3,342.9-777.6,342.9-752z"/>
	<path style="fill:none;stroke:#000000;stroke-width:3;stroke-miterlimit:10;" d="M275.6-712.2v9.5h1.5c0,0.8,0,1,0.1,2
		c0.1,2,1.4,2.4,3.5,4.6c1.4,1.4,3.6,1.7,4.9,1.8v336.2l-6.2,44.4V-88h37.1v-225.8l-6.2-44.4v-336.4c1-0.2,2.1-0.7,2.9-1.5
		c2.1-2.1,3.3-2.6,3.5-4.6c0.1-1,0.1-1.1,0.1-2h1.7v-9.5H275.6z"/>
	<path style="fill:none;stroke:#000000;stroke-width:3;stroke-miterlimit:10;" d="M287.1-446.5h21.7v89.1h-21.7V-446.5z"/>
	<path style="fill:none;stroke:#000000;stroke-width:3;stroke-miterlimit:10;" d="M280.9-266.5H315v89.1h-34.1V-266.5z"/>
	<path style="fill:none;stroke:#000000;stroke-width:3;stroke-miterlimit:10;" d="M287.1-626.5h21.7v89.1h-21.7V-626.5z"/>
</g>
<path style="fill:none;stroke:#000000;stroke-width:3;stroke-miterlimit:10;" d="M329.8,698.8l752-440.2"/>
<path style="fill:none;stroke:#000000;stroke-width:3;stroke-miterlimit:10;" d="M2474.7,698.8l-751.9-440.2"/>
<g transform="matrix(.78415 0 0 .78415 2029.6 629.15)">
	<path style="fill:none;stroke:#000000;stroke-width:3;stroke-miterlimit:10;" d="M342.9-752c0,25.5-20.7,46.2-46.2,46.2
		c-25.5,0-46.2-20.7-46.2-46.2c0-25.5,20.7-46.2,46.2-46.2C322.2-798.3,342.9-777.6,342.9-752z"/>
	<path style="fill:none;stroke:#000000;stroke-width:3;stroke-miterlimit:10;" d="M275.6-712.2v9.5h1.5c0,0.8,0,1,0.1,2
		c0.1,2,1.4,2.4,3.5,4.6c1.4,1.4,3.6,1.7,4.9,1.8v336.2l-6.2,44.4V-88h37.1v-225.8l-6.2-44.4v-336.4c1-0.2,2.1-0.7,2.9-1.5
		c2.1-2.1,3.3-2.6,3.5-4.6c0.1-1,0.1-1.1,0.1-2h1.7v-9.5H275.6z"/>
	<path style="fill:none;stroke:#000000;stroke-width:3;stroke-miterlimit:10;" d="M287.1-446.5h21.7v89.1h-21.7V-446.5z"/>
	<path style="fill:none;stroke:#000000;stroke-width:3;stroke-miterlimit:10;" d="M280.9-266.5H315v89.1h-34.1V-266.5z"/>
	<path style="fill:none;stroke:#000000;stroke-width:3;stroke-miterlimit:10;" d="M287.1-626.5h21.7v89.1h-21.7V-626.5z"/>
</g>
</svg>
