<?xml version="1.0" encoding="utf-8"?>
<!-- Generator: Adobe Illustrator 22.1.0, SVG Export Plug-In . SVG Version: 6.00 Build 0)  -->
<svg version="1.1" id="Layer_1" xmlns="http://www.w3.org/2000/svg" xmlns:xlink="http://www.w3.org/1999/xlink" x="0px" y="0px"
	 viewBox="0 0 1141 800" style="enable-background:new 0 0 1141 800;" xml:space="preserve">
<style type="text/css">
	.st0{fill:none;stroke:#000000;stroke-width:2;stroke-miterlimit:10;}
</style>
<g>
	<path class="st0" d="M187,692l-103-1h213v13h52l1,1h1v1c-0.7,0-1,4.7-1,14v14c0,0-0.3,0-1,0s-15,0.7-43,2h-43v1h-4c0-0.7-2.3-1-7-1
		h-7v-1h13v-29h-86v-1h-1v-1h124v-4l1-5v-1h-1l-3-1h-2C290,692.3,255.7,692,187,692z"/>
	<path class="st0" d="M938,402l1-1h1c0,0.7,2,1,6,1h6v-1h1v9c0.7,5.3,0.7,8.7,0,10v1h-8c0-0.7-1-1-3-1c-2.7,0-4-3-4-9
		C938,405.7,938,402.7,938,402z"/>
	<path class="st0" d="M83,698v-5h209l3,1h1v1l-1,5v4H83V698z"/>
	<path class="st0" d="M293,316c0.7-12,2.3-18,5-18c2.7,0.7,4,14.3,4,41s-1.3,40-4,40s-4-7.7-4-23C292.7,340.7,292.3,327.3,293,316z"
		/>
	<path class="st0" d="M532,727l1-9v17h91v1h42c27.3,0,41,0.3,41,1h-82v15l1,14v1h-1c-0.7,0.7-1,1-1,1h-91v24h-1v-12
		c0-8.7-0.3-13-1-13v-15c-0.7-10-1-15-1-15v-1C530,736,530.7,733,532,727z"/>
	<path class="st0" d="M1140,710h1v45c0,30-1,45-3,45h-4l-25-1h-25c0-0.7-0.7-1-2-1c-0.7,0-1-0.7-1-2v-1c0.7,0,1,0.3,1,1v1h56v-28h-1
		v-1h-56v-1h1l2-1h54v-30h-57v-1h57v-21l1-2C1139.7,710.7,1140,710,1140,710z"/>
	<path class="st0" d="M531,698v-6c0.7,0,1,2,1,6v5h1v2h2l-1,1c-0.7,0-1,2-1,6v6l-1,9c-1.3,6-2,9-2,9v1h-88c0-0.7-0.3-1-1-1h-1v-2
		c0,0,0-4.7,0-14v-15h1c0.7-0.7,1-1,1-1h89V698z"/>
	<path class="st0" d="M455,580v-73h79c53.3,0.7,80,1,80,1h1l1,3c0,2,0,25.7,0,71c0,46-1,70.7-3,74s-3.7,5.7-5,7c-1.3,2-2.3,3-3,3h-1
		l-1,1l-1,1h-2l-1,1l-1,1h40v1H470v-1h2v-1h-1v-1h-2l-1-1l-2-1c0,0-0.3,0-1,0c-0.7-0.7-2.3-2.7-5-6C457.3,656,455.7,629.3,455,580z
		 M486,588v66c0,0-2,0-6,0h-6l1-66c0.7-44,2.7-66,6-66s5,0.3,5,1S486,545.3,486,588z M587,588v-66h5c4,0,6,22,6,66v66h-1
		c0,0-1.7,0-5,0h-5C586.3,654,586.3,632,587,588z M514,655v1h-11v-1h-1v-66c0-44,2-66,6-66c4,0.7,6,22.7,6,66S514,654.3,514,655z
		 M542,590v66h-6c-3.3,0-5-0.3-5-1h-1l1-66c0-44.7,1.7-66.7,5-66C540,523,542,545.3,542,590z M558,588v-66h12v133h-12V588z"/>
	<path class="st0" d="M1060,451h1v3c0,2.7-6.3,4-19,4s-19.3-1.3-20-4c0-2,6-3,18-3C1052.7,450.3,1059.3,450.3,1060,451z"/>
	<path class="st0" d="M168,747v-11h84c4.7,0,7,0.3,7,1v28c-0.7,0.7-0.7,1,0,1s1,0,1,0v1c0,0.7-0.3,1-1,1h-90v22h-1v-11
		c0-7.3-0.3-11-1-11v-10h1V747z"/>
	<path class="st0" d="M1116,674h2c0,0,3.3,0.3,10,1h10v30h-56c-0.7,0.7-1,1-1,1c-0.7,0-1-0.3-1-1v-3l1-9c0.7-6,6.3-9,17-9
		s16-1.7,16-5C1114.7,675.7,1115.3,674,1116,674z"/>
	<path class="st0" d="M808,768l1-1h88c0.7,0,1,0.3,1,1v15c0,9.3,0.3,14,1,14v1h87l-129,1H728v-1h78v-1l1-10v-14
		C807.7,770.3,808,768.7,808,768z"/>
	<path class="st0" d="M891,41l63,1c0,0,0,39,0,117s-22,117.3-66,118l-66,1v-1l-1-119c0-78.7,1-118,3-118C826.7,40,849,40.3,891,41z
		 M935,177v27h-4c-2,0-3-9.3-3-28s1.3-27.7,4-27C934,149.7,935,159,935,177z"/>
	<path class="st0" d="M807,699l1-2v7h8l40,1c27.3,0,41,0.3,41,1c0.7,1.3,1,2,1,2v28h-83v1h-5c0-0.7-0.7-1-2-1h-1v-10
		c-0.7-7.3-1-11-1-11v-5c0-2.7-0.3-4-1-4v-1c0.7,0,1-0.7,1-2l1-2V699z"/>
	<path class="st0" d="M514,655v1h-11v-1h-1v-66c0-44,2-66,6-66c4,0.7,6,22.7,6,66S514,654.3,514,655z"/>
	<path class="st0" d="M1081,720v-14h29c18.7,0,28,1.3,28,4v25h-57V720z"/>
	<path class="st0" d="M534,706l1-1h44l44,1h1v29h-91v-23C533,708,533.3,706,534,706z"/>
	<path class="st0" d="M168,779v11h1v4c0,2.7,1.7,4,5,4h4v1h-53c-35.3-0.7-52.3-1-51-1h1v-1c0.7,0,1-0.3,1-1v-29h91l1-1
		c0.7,0,1,0.3,1,1C168.3,767.7,168,771.7,168,779z"/>
	<path class="st0" d="M625,767h88l1,1c0,0,0.3,4.7,1,14v14c0.7,0.7,1,1,1,1v1h12v1H541v-1h82v-1h1v-29C624,768,624.3,767.7,625,767z
		"/>
	<path class="st0" d="M506,127v89H375l1-89c0-59.3,21.7-89,65-89S506,67.7,506,127z M396,121c2.7-0.7,4,6,4,20s-1,21-3,21
		c-2.7,0-4-6.7-4-20C392.3,128,393.3,121,396,121z"/>
	<path class="st0" d="M694,163h-3v-21c0-14.7,1.3-22,4-22s3.7,7,3,21C698,155,696.7,162.3,694,163z"/>
	<path class="st0" d="M806,725v-10c0,0,0.3,3.7,1,11v10h1c1.3,0,2,0.3,2,1h-1c-0.7,0-1,5-1,15v14h1v1l-1,1c0,0.7-0.3,2.3-1,5v4
		c-0.7,0-1-1.7-1-5v-4h-90v28h-1v-14c-0.7-9.3-1-14-1-14l-1-1v-1c0.7,0,1-3.7,1-11v-11l1-4c0.7-2.7,14.7-4,42-4h41v-1h8V725z"/>
	<path class="st0" d="M4,768h71v29H3v-14C3.7,773.7,4,768.7,4,768z"/>
	<path class="st0" d="M350,734l45,1h45v1c0.7,0,1-0.3,1-1c0.7,0,1,0.3,1,1v16c0,9.3,0.3,14,1,14v1h-1v1h-92v-2c0-1.3-0.3-2-1-2v-27
		h-86v-1h43c28.7-1.3,43-2,43-2C349.7,734,350,734,350,734z"/>
	<path class="st0" d="M625,690v-6h89v16c0,2.7-1.3,4-4,4h-85V690z"/>
	<g>
		<path class="st0" d="M636,141v21h-4c-2.7,0-3.7-7-3-21c0-14,1.3-21,4-21S636.7,127,636,141z"/>
		<path class="st0" d="M991,600c0-14,1.3-20.7,4-20c2,0,3,7,3,21s-1.3,21-4,21C992,622,991,614.7,991,600z"/>
	</g>
	<path class="st0" d="M512,490h4l6,1h18c8-0.7,12-1,12-1h14c0,0,8.7,0.3,26,1h25v16h-1l-1,1h-1c0,0-26.7-0.3-80-1h-80v-16h28
		C501.3,490.3,511.3,490,512,490z"/>
	<path class="st0" d="M651,301v1h1v1h-1v1h-5c-2,0-17.3,0-46,0h-42v1h-4v-5h1v-1h1v-1h1v-1h1l6-5c4-4,8.7-7,14-9c6-2,12-3.7,18-5
		c5.3,0,11.3,0.7,18,2s12.7,3.3,18,6s9.7,6,13,10C648.3,299.3,650.3,301,651,301z"/>
	<path class="st0" d="M879,410h8v5c0,3.3,0,5,0,5h-8v-1c-0.7,0-1,0-1,0v-5C878,411.3,878.3,410,879,410z"/>
	<path class="st0" d="M678,315l1-1v-1h59c0.7,0.7,1,0.7,1,0l1,2c0.7,0.7,1.3,1.3,2,2v46c-0.7,30-1,45.3-1,46h-1
		c-0.7,0.7-41.3,1-122,1l-121,1v-49c0.7-32,1-48,1-48v-1h57v1"/>
	<path class="st0" d="M938,345l1-5h13l1,1h1v24c0,16,0,24.3,0,25v2c-0.7,0-1.3-0.3-2-1c-1.3-0.7-4-0.7-8,0l-5,1h-1c-0.7,0-1-7-1-21
		C937.7,357,938,348.3,938,345z"/>
	<path class="st0" d="M944,684h45v9c0.7,6,1,9,1,9c0,0.7-0.3,1.3-1,2h-1v1h-44l-45,1c-0.7,0-1,0.3-1,1v1c0,0-0.3-0.7-1-2
		c0-0.7-13.7-1-41-1l-40-1h40c27.3,0,41-1.3,41-4v-3l1-7C898.7,686,914,684,944,684z"/>
	<path class="st0" d="M320,674l16-1h15v1h28c19.3,0.7,29,2.7,29,6c0,2.7,5.3,4,16,4c10.7,0.7,16.3,4,17,10l1,8v3c0,0.7-0.3,1-1,1
		c-0.7-0.7-1-1-1-1h-90l-1-1v-14l-1-15v-1H320z"/>
	<path class="st0" d="M809,737h88l-1,15c0,9.3,0,14.3,0,15h-87v-1h-1v-14C808,742,808.3,737,809,737z"/>
	<path class="st0" d="M421,554V442h222l1,114c0,76.7-0.7,115-2,115c-0.7,0.7-1.3,0.7-2,0h-2v-1h-40l1-1l1-1h2l1-1l1-1h1
		c0.7,0,1.7-1,3-3c1.3-1.3,3-3.7,5-7s3-28,3-74c0-45.3,0-69,0-71l-1-3l1-1h1v-16h-25c-17.3-0.7-26-1-26-1v-3l-1-2
		c-0.7-1.3-1.3-2.7-2-4c-1.3-2-3.7-4-7-6c-4-2-9-3.3-15-4s-10.3-0.3-13,1c-2,0-4.7,1.3-8,4l-5,4h-1v2l-1,1l-1,1v6
		c-0.7,0-10.7,0.3-30,1h-28v16h1v73c0.7,49.3,2.3,76,5,80c2.7,3.3,4.3,5.3,5,6c0.7,0,1,0,1,0l2,1l1,1h2v1h1v1h-2v1h-23
		c-15.3,0.7-23.3,1-24,1h-1v-1l-1-2C420.3,667.7,420.3,629.3,421,554z"/>
	<path class="st0" d="M533,780v-12h91v29h-1v1h-86c-2.7,0-4-1-4-3V780z"/>
	<path class="st0" d="M1104,675v1h-65c-43.3,0-65-30-65-90c0-58.7,21.7-88.3,65-89c43.3-0.7,65,28.7,65,88S1104,674.3,1104,675z
		 M991,600c0-14,1.3-20.7,4-20c2,0,3,7,3,21s-1.3,21-4,21C992,622,991,614.7,991,600z"/>
	<path class="st0" d="M486,588v66c0,0-2,0-6,0h-6l1-66c0.7-44,2.7-66,6-66s5,0.3,5,1S486,545.3,486,588z"/>
	<path class="st0" d="M1035,491l-61-1l-1-26v-26h66c43.3,0,65,8.7,65,26c0,18-1.3,27-4,27C1097.3,491.7,1075.7,491.7,1035,491z
		 M1060,451h1v3c0,2.7-6.3,4-19,4s-19.3-1.3-20-4c0-2,6-3,18-3C1052.7,450.3,1059.3,450.3,1060,451z"/>
	<path class="st0" d="M991,690v-6h44c30,0.7,45,4,45,10v10h-89V690z"/>
	<path class="st0" d="M587,588v-66h5c4,0,6,22,6,66v66h-1c0,0-1.7,0-5,0h-5C586.3,654,586.3,632,587,588z"/>
	<path class="st0" d="M674,39v-1h129v85c0,56.7,0.3,85,1,85s1,1.3,1,4c-0.7,2.7-22.7,4-66,4h-65v-89C674,68.3,674,39,674,39z
		 M694,163h-3v-21c0-14.7,1.3-22,4-22s3.7,7,3,21C698,155,696.7,162.3,694,163z"/>
	<path class="st0" d="M259,750v-13h90v28c-0.7,0.7-15.7,1-45,1l-44,1v-1c0,0-0.3,0-1,0V750z"/>
	<path class="st0" d="M442,752v-15h88c0,0,0.3,5,1,15v15h-88v-1C442.3,766,442,761.3,442,752z"/>
	<path class="st0" d="M293,498c0.7-11.3,2.3-16.7,5-16c2.7,0,4,13.3,4,40c0,26.7-1.3,40-4,40s-4-7.7-4-23
		C292.7,523.7,292.3,510,293,498z"/>
	<path class="st0" d="M808,690v-6h89v16c0,2.7-13.7,4-41,4h-48V690z"/>
	<path class="st0" d="M442,767h89c0.7,0,1,4.3,1,13v12h1v3c0,2,1.3,3,4,3h4v1H356v-1h85v-30h1V767z"/>
	<path class="st0" d="M976,277h-4V41h65c43.3,0,65,39.3,65,118c0,79.3-20,119-60,119C1001.3,278,979.3,277.7,976,277z M993,149
		c2.7-0.7,4,8.3,4,27c0.7,18.7-0.3,28-3,28s-4-9-4-27C990,158.3,991,149,993,149z"/>
	<path class="st0" d="M993,149c2.7-0.7,4,8.3,4,27c0.7,18.7-0.3,28-3,28s-4-9-4-27C990,158.3,991,149,993,149z"/>
	<path class="st0" d="M202,22l-2-3h462c308.7,0,461.7,1.7,459,5c-2.7,4-4.7,6-6,6c-1.3,0.7-2,43.3-2,128l-1,127V32h-1
		c0,0-49.3-0.3-148-1H815v-1c0-0.7-50.3-1-151-1l-151,1h-69c-45.3,0-94.7,0-148,0h-80v2c-0.7,0-2.3-0.7-5-2l-4-2h-1v-1h-1v-1
		C204.3,26,203.3,24.7,202,22z"/>
	<path class="st0" d="M991,748v-11h89v29h-1c0,0,0,0.3,0,1h-88V748z"/>
	<path class="st0" d="M552,489v1c0,0-4,0.3-12,1h-13v-1h-1v-3l1-1l1-1v-1l5-2c2.7-1.3,5.7-1.3,9,0c2.7,0,5,1,7,3S552,488.3,552,489z
		"/>
	<path class="st0" d="M565,485l1,2v3h-14v-1c0-0.7-1-2-3-4s-4.3-3-7-3c-3.3-1.3-6.3-1.3-9,0l-5,2v1l-1,1l-1,1v3h1v1h-5l-6-1h-4v-6
		l1-1l1-1v-2h1l5-4c3.3-2.7,6-4,8-4c2.7-1.3,7-1.7,13-1s11,2,15,4c3.3,2,5.7,4,7,6C563.7,482.3,564.3,483.7,565,485z"/>
	<path class="st0" d="M170,706h88v29h-89v-15C169,710.7,169.3,706,170,706z"/>
	<path class="st0" d="M513,30l151-1c100.7,0,151,0.3,151,1v1l-1,95c0,62.7-0.3,94.7-1,96v2H516v-4c0-1.3-0.7-33.3-2-96L513,30z
		 M654,127v89h-66c-44,0-65.7-29.3-65-88c0.7-59.3,22.7-89,66-89S654,68.3,654,127z M674,39v-1h129v85c0,56.7,0.3,85,1,85s1,1.3,1,4
		c-0.7,2.7-22.7,4-66,4h-65v-89C674,68.3,674,39,674,39z"/>
	<path class="st0" d="M1081,736h57v30h-54l-2,1h-3c0-0.7,0-1,0-1h1v-29C1080,737,1080.3,736.7,1081,736z"/>
	<path class="st0" d="M716,693v-9h90v8c0,6,0.3,9,1,9l-1,2c0,1.3-0.3,2-1,2h-87c-1.3-0.7-2-1.3-2-2l-1-1h1V693z"/>
	<path class="st0" d="M396,121c2.7-0.7,4,6,4,20s-1,21-3,21c-2.7,0-4-6.7-4-20C392.3,128,393.3,121,396,121z"/>
	<path class="st0" d="M0,752v-48l1,1l1,1v3h1v26h35l36-1l1-14v-14h1v15c0,10-0.3,15-1,15H3v16l1,15v1c0,0.7-0.3,5.7-1,15v14l36-1
		c23.3,0,35.3-0.3,36-1v-1h1v2c0,1.3-0.7,2-2,2s15.7,0.3,51,1h732l129-1h1l49,1h73l25,1H0V752z"/>
	<path class="st0" d="M935,177v27h-4c-2,0-3-9.3-3-28s1.3-27.7,4-27C934,149.7,935,159,935,177z"/>
	<path class="st0" d="M1081,782v-14h56v1h1v28h-56v-1c0-0.7-0.3-1-1-1V782z"/>
	<path class="st0" d="M814,126l1-95h148c98.7,0.7,148,1,148,1h1v254H813v-64C813.7,220.7,814,188.7,814,126z M891,41l63,1
		c0,0,0,39,0,117s-22,117.3-66,118l-66,1v-1l-1-119c0-78.7,1-118,3-118C826.7,40,849,40.3,891,41z M976,277h-4V41h65
		c43.3,0,65,39.3,65,118c0,79.3-20,119-60,119C1001.3,278,979.3,277.7,976,277z"/>
	<path class="st0" d="M351,706v-1h89c0,0.7,0,1,0,1h1v29h-46l-45-1v-14C350,710.7,350.3,706,351,706z"/>
	<path class="st0" d="M315,412v1c-0.7,0-1,0.3-1,1c0,0-1,0.7-3,2s-42.3,2.7-121,4c-78.7,0-118.3,0-119,0l-1-1c0-0.7-0.3-1-1-1h-1
		c0,0-0.3-0.3-1-1h-1l-1-1v-1c0-0.7-0.3-1.7-1-3c0-1.3,0-28.7,0-82c0-52.7,1-80,3-82c2-1.3,43-2,123-2c79.3,0,120,0.7,122,2
		c1.3,2,2.3,29.7,3,83S315.7,411.3,315,412z M293,316c0.7-12,2.3-18,5-18c2.7,0.7,4,14.3,4,41s-1.3,40-4,40s-4-7.7-4-23
		C292.7,340.7,292.3,327.3,293,316z"/>
	<path class="st0" d="M830,428h108c72.7,0,110,0,112,0h4l2,1c0.7,0.7,10.7,1,30,1c18.7,0,28,40.7,28,122v121h20c0,0.7-2.7,1-8,1h-10
		c-0.7,0-1.3,1.7-2,5c0,3.3-5.3,5-16,5s-16.3,3-17,9l-1,9v-8c0-6-15-9.3-45-10h-44v12c-0.7,0-1,1-1,3v3c0,0-0.3-3-1-9v-9h-45
		c-30,0-45.3,2-46,6l-1,7v-13h-89v13l-1,2v2c-0.7,0-1-3-1-9v-8h-90v18h-1v-4l-1-3v-11h-89v13h-1v-6c0-4-15.3-6.3-46-7h-45v19h-1v-5
		c0-4-0.3-6-1-6v-8h-44c-29.3,0-44.3,3-45,9v9l-1-8c-0.7-6-6.3-9.3-17-10c-10.7,0-16-1.3-16-4c0-3.3-9.7-5.3-29-6h-28v-1h57V430h206
		c137.3,0,207,0,209,0h3l2-1L830,428z M822,464v-27l66,1c44,0,65.7,8.7,65,26s-2.7,26.3-6,27s-25,1-65,1h-59v-1h-1V464z M1035,491
		l-61-1l-1-26v-26h66c43.3,0,65,8.7,65,26c0,18-1.3,27-4,27C1097.3,491.7,1075.7,491.7,1035,491z M421,554V442h222l1,114
		c0,76.7-0.7,115-2,115c-0.7,0.7-1.3,0.7-2,0H447c-15.3,0.7-23.3,1-24,1h-1v-1l-1-2C420.3,667.7,420.3,629.3,421,554z M811,558v115
		h-72c-48,0.7-73.7,0.7-77,0h-4V558c0.7-76,26-114,76-114c50.7,0,76,0,76,0S810.3,482,811,558z M823,497v-1l65,1
		c44,0.7,66,30.3,66,89c0.7,60,0.7,90,0,90c-1.3,0-23.3,0-66,0h-66v-90C822,526.7,822.3,497,823,497z M1104,675v1h-65
		c-43.3,0-65-30-65-90c0-58.7,21.7-88.3,65-89c43.3-0.7,65,28.7,65,88S1104,674.3,1104,675z"/>
	<path class="st0" d="M990,766l1,1h90v29c0,1.3,0.3,2,1,2c1.3,0,2,0.3,2,1h-48l-49-1h2v-7h1v-11c0-8-0.3-12.3-1-13
		C989,766.3,989.3,766,990,766z"/>
	<path class="st0" d="M822,464v-27l66,1c44,0,65.7,8.7,65,26s-2.7,26.3-6,27s-25,1-65,1h-59v-1h-1V464z M910,451h1v3
		c0,2.7-6.3,4-19,4s-19.3-1.3-20-4c0-2,6-3,18-3C902.7,450.3,909.3,450.3,910,451z"/>
	<path class="st0" d="M77,740v-3h90v30H78v-1c0,0-0.3-3.7-1-11V740z"/>
	<path class="st0" d="M1013,410v1h-1c-0.7-0.7-1.3-1-2-1h-1v-1h1v-1h-4c-2,0-4,0-6,0s-3.7-1-5-3l-1-3h-1v-1h-1v-2h-1v-1h1l2-4
		c2-2.7,6.3-4,13-4c7.3,0,11.7,1.7,13,5s1,6.3-1,9s-3.7,4.3-5,5C1013.3,409,1013,409.3,1013,410z"/>
	<path class="st0" d="M910,451h1v3c0,2.7-6.3,4-19,4s-19.3-1.3-20-4c0-2,6-3,18-3C902.7,450.3,909.3,450.3,910,451z"/>
	<path class="st0" d="M899,769v-1h90v30h-90v-1c-0.7,0-1-4.7-1-14v-14C898,769,898.3,769,899,769z"/>
	<path class="st0" d="M494,306v-1h244l1,4v4H496c-1.3,0-2-1-2-3V306z"/>
	<path class="st0" d="M991,696v8h89c0,0,0.3,0.3,1,1h1v1c0,0.7-0.3,5.7-1,15v15c-0.7,0.7-1,1-1,1h-89v22h-1v-11
		c0-7.3-13.7-11.3-41-12h-41v-1h81v-15c-0.7-9.3-1-14-1-14v-2h1c0.7-0.7,1-1.3,1-2v-3C990,697,990.3,696,991,696z"/>
	<path class="st0" d="M487,684h44v20h-89v-11C442.7,687,457.7,684,487,684z"/>
	<path class="st0" d="M709,300h8l3,1c2.7,0.7-1.3,1-12,1c-10,0-13.7-0.3-11-1S703.7,300,709,300z"/>
	<path class="st0" d="M683,485v21h-4c-2.7,0-4-7-4-21s1.3-21,4-21S683,471,683,485z"/>
	<path class="st0" d="M878,420v-1c0,0,0.3,0,1,0v1h8c0,0,9.7,0.3,29,1h37l47,1c31.3,0,49,0.3,53,1s6,1.3,6,2s-0.7,1.3-2,2
		c-2,0.7-3,1-3,1h-4c-2,0-39.3,0-112,0H828l-2-1l-1-1h-1v-2h4l9-2c6,0,14.3-0.3,25-1h16V420z"/>
	<path class="st0" d="M313,679l3-5h32v1l1,15v14h-52v-13h1c0-0.7,0.7-1,2-1s3.3-1,6-3S311,682.3,313,679z"/>
	<path class="st0" d="M1006,410h6c0,0,0,0.3,0,1h1v4l-1,4v1h-8v-1l-1-5C1003,411.3,1004,410,1006,410z"/>
	<path class="st0" d="M898,735h10v1h41c27.3,0.7,41,4.7,41,12v11h1v9c-0.7,0-1,4-1,12v11h-1v-23h-90v1c-0.7,0-1,0-1,0v-1
		c0-0.7-0.3-1-1-1h-1c0-0.7,0-5.7,0-15l1-15h-82v-1h83V735z"/>
	<path class="st0" d="M625,752v-15h85c2.7,0,4,1,4,3v15c0,7.3-0.3,11-1,11v1h-87v-1L625,752z"/>
	<path class="st0" d="M338,141v21h-4c-2,0-3.3-7-4-21c0-14,1.3-21,4-21S338,127,338,141z"/>
	<path class="st0" d="M811,558v115h-72c-48,0.7-73.7,0.7-77,0h-4V558c0.7-76,26-114,76-114c50.7,0,76,0,76,0S810.3,482,811,558z
		 M683,485v21h-4c-2.7,0-4-7-4-21s1.3-21,4-21S683,471,683,485z"/>
	<path class="st0" d="M823,497v-1l65,1c44,0.7,66,30.3,66,89c0.7,60,0.7,90,0,90c-1.3,0-23.3,0-66,0h-66v-90
		C822,526.7,822.3,497,823,497z M932,622h-3v-22c0-13.3,1-20.3,3-21c2.7,0,4,7,4,21C936,614.7,934.7,622,932,622z"/>
	<path class="st0" d="M493,310v-4h1v4c0,2,0.7,3,2,3h2v1c0,0-0.3,16-1,48v49l121-1c80.7,0,121.3-0.3,122-1h1c0.7,0,1,1,1,3v3H492
		v-51C492,330.7,492.3,312.7,493,310z"/>
	<path class="st0" d="M315,442v2c0.7,0.7,1,39.3,1,116v114l-3,5c-2,3.3-4.3,6-7,8s-4.7,3-6,3s-2,0.3-2,1H81v5l-1,6h-2v-1l-1-2v-5
		c0.7-1.3,1-2,1-2c0-0.7-0.7-1.3-2-2c-1.3-1.3-3.7-3.3-7-6c-3.3-3.3-5-44.3-5-123V442c0-0.7,0.3-1.7,1-3l1-2c0.7-0.7,1-1,1-1h1
		c0,0,0-0.3,0-1c0.7-0.7,1-1,1-1l2-2c1.3-1.3,3-2,5-2c2-1.3,40-1.3,114,0c74.7,0,113.7,1.3,117,4c3.3,2,5.3,4,6,6
		C313.7,441.3,314.3,442,315,442z M293,498c0.7-11.3,2.3-16.7,5-16c2.7,0,4,13.3,4,40c0,26.7-1.3,40-4,40s-4-7.7-4-23
		C292.7,523.7,292.3,510,293,498z"/>
	<path class="st0" d="M899,706l45-1h44v1c0,0,0.3,4.7,1,14v15h-91v-28C898,706.3,898.3,706,899,706z"/>
	<path class="st0" d="M3,752v-16h72l1,4c0,2.7,0.3,4,1,4v11c0.7,7.3,1,11,1,11v1h-2v27h-1v-26H4v-1L3,752z"/>
	<path class="st0" d="M81,696v-5h3l103,1c68.7,0,103,0.3,103,1H83v11h88v1h1v1h-2c-0.7,0-1,4.7-1,14v15h76v1h-77v22h-1v-21H77v7
		c-0.7,0-1-1.3-1-4l-1-4v-1c0.7,0,1-5,1-15v-14h-1l1-1v-8h1v2l1,2v1h2L81,696z"/>
	<path class="st0" d="M716,782v-14h90v4c0,3.3,0.3,5,1,5v10l-1,10v1h-90v-1c0,0-0.3-0.3-1-1h1V782z"/>
	<path class="st0" d="M315,413v13c0.7,9.3,0.7,14.3,0,15v1c-0.7,0-1.3-0.7-2-2c-0.7-2-2.7-4-6-6c-3.3-2.7-42.3-4-117-4
		c-74-1.3-112-1.3-114,0c-2,0-3.7,0.7-5,2l-2,2c-0.7,0-1,0-1,0v1c0,0-0.3,0.3-1,1h-1v1h-1l-1,1l-1-11v-11h2l1,1v1h2c0,0,0.3,0.3,1,1
		h1l1,1c0.7,0,40.3,0,119,0c78.7-1.3,119-2.7,121-4s3-2,3-2C314,413.3,314.3,413,315,413z"/>
	<path class="st0" d="M169,779v-11h89v30h-84c-3.3,0-5-1.3-5-4V779z"/>
	<path class="st0" d="M225,38h65c44,0,66.3,1.3,67,4s0.7,32,0,88c-0.7,56.7-22,85.3-64,86c-42.7,0-65,0.3-67,1h-2v-89
		C224,68,224.3,38,225,38z M338,141v21h-4c-2,0-3.3-7-4-21c0-14,1.3-21,4-21S338,127,338,141z"/>
	<path class="st0" d="M654,127v89h-66c-44,0-65.7-29.3-65-88c0.7-59.3,22.7-89,66-89S654,68.3,654,127z M636,141v21h-4
		c-2.7,0-3.7-7-3-21c0-14,1.3-21,4-21S636.7,127,636,141z"/>
	<path class="st0" d="M714,700v-5l1,3v4l1,1c0,0.7,0.7,1.3,2,2h1l-1,1c-1.3,0-2,4.7-2,14v15h82v1h-41c-27.3,0-41.3,1.3-42,4l-1,4v-4
		c0-2-1.3-3-4-3h-3c0-0.7-13.7-1-41-1h-42v-30h1l41-1l40-1h4C712.7,704,714,702.7,714,700z"/>
	<path class="st0" d="M533,694v-10h45c30.7,0.7,46,3,46,7v6h1v7h81l-40,1l-41,1h-2l-44-1h-46V694z"/>
	<path class="st0" d="M932,622h-3v-22c0-13.3,1-20.3,3-21c2.7,0,4,7,4,21C936,614.7,934.7,622,932,622z"/>
	<path class="st0" d="M493,239v-1l125,1c82.7,0,124,13,124,39s0,39,0,39c-0.7-0.7-1.3-1.3-2-2c0-0.7-0.7-1-2-1l-1-1c0.7,0,1-1.3,1-4
		v-5c0-0.7-0.3-11.3-1-32l-1-30H623c-75.3,0-115,0-119,0h-7c-0.7,0-1,10-1,30v31h-1v1h-2v-1h-1v-32C492,249.7,492.3,239,493,239z"/>
	<path class="st0" d="M558,588v-66h12v133h-12V588z"/>
	<path class="st0" d="M542,300h2l2,2c2,0-2,0-12,0c-10.7,0-15.3,0-14,0c2-1.3,6-2,12-2S541.3,300,542,300z"/>
	<path class="st0" d="M882,390h10v2h1v1h1v2l1,1c0.7,0.7,1,1.3,1,2c0,0,0,0.7,0,2c-1.3,2-3,4-5,6l-4,4h-8c0,0-1-0.3-3-1s-4-2-6-4
		l-4-4v-4l1-1l1-1v-1l1-1l1-1v-1l1-1C871.7,390,875.3,390,882,390z"/>
	<path class="st0" d="M3,708v-2h72v29H3V708z"/>
	<path class="st0" d="M718,706l1-1h86v1c0.7,0,1,1.3,1,4v25h-90v-15C716,710.7,716.7,706,718,706z"/>
	<path class="st0" d="M259,764v2c0.7,0,1,0,1,0v1l44-1c29.3,0,44.3-0.3,45-1v-1c0.7,0,1,0.7,1,2v17c0,10,1,15,3,15h3v1H178v-1h80
		v-32C258,764.7,258.3,764,259,764z"/>
	<path class="st0" d="M542,590v66h-6c-3.3,0-5-0.3-5-1h-1l1-66c0-44.7,1.7-66.7,5-66C540,523,542,545.3,542,590z"/>
	<path class="st0" d="M350,783v-15h91v30h-88C351,798,350,793,350,783z"/>
	<path class="st0" d="M444,30h69l1,94c1.3,62.7,2,94.7,2,96v4H216V30h80C349.3,30,398.7,30,444,30z M225,38h65c44,0,66.3,1.3,67,4
		s0.7,32,0,88c-0.7,56.7-22,85.3-64,86c-42.7,0-65,0.3-67,1h-2v-89C224,68,224.3,38,225,38z M506,127v89H375l1-89
		c0-59.3,21.7-89,65-89S506,67.7,506,127z"/>
	<path class="st0" d="M954,392v4c-0.7,2.7-1,4.3-1,5h-1v1h-6c-4,0-6-0.3-6-1h-1v-1c-0.7,0-1-1.3-1-4v-4h1l5-1c4-0.7,6.7-0.7,8,0
		C952.7,391.7,953.3,392,954,392z"/>
	<path class="st0" d="M497,242h7c4,0,43.7,0,119,0h113l1,30c0.7,20.7,1,31.3,1,32v1H558v-1h42c28.7,0,44,0,46,0h5v-1h1v-1h-1v-1
		c-0.7,0-2.7-1.7-6-5c-3.3-4-7.7-7.3-13-10s-11.3-4.7-18-6s-12.7-2-18-2c-6,1.3-12,3-18,5c-5.3,2-10,5-14,9l-6,5h-1v1h-1v1h-1v1h-1
		v5h-30l-29,1h-2v-1l1-1h1v-1h1v-31C496,252,496.3,242,497,242z M542,300h2l2,2c2,0-2,0-12,0c-10.7,0-15.3,0-14,0c2-1.3,6-2,12-2
		S541.3,300,542,300z M709,300h8l3,1c2.7,0.7-1.3,1-12,1c-10,0-13.7-0.3-11-1S703.7,300,709,300z"/>
</g>
</svg>
