<?xml version="1.0" encoding="utf-8"?>
<!-- Generator: Adobe Illustrator 22.1.0, SVG Export Plug-In . SVG Version: 6.00 Build 0)  -->
<svg version="1.1"
	 id="svg2" inkscape:version="0.48.4 r9939" sodipodi:docname="New document 1" xmlns:cc="http://creativecommons.org/ns#" xmlns:dc="http://purl.org/dc/elements/1.1/" xmlns:inkscape="http://www.inkscape.org/namespaces/inkscape" xmlns:rdf="http://www.w3.org/1999/02/22-rdf-syntax-ns#" xmlns:sodipodi="http://sodipodi.sourceforge.net/DTD/sodipodi-0.dtd" xmlns:svg="http://www.w3.org/2000/svg"
	 xmlns="http://www.w3.org/2000/svg" xmlns:xlink="http://www.w3.org/1999/xlink" x="0px" y="0px" viewBox="0 0 1000 1000"
	 style="enable-background:new 0 0 1000 1000;" xml:space="preserve">
<style type="text/css">
	.st0{stroke:#FFFFFF;stroke-miterlimit:10;}
</style>
<sodipodi:namedview  bordercolor="#666666" borderopacity="1.0" id="base" inkscape:current-layer="layer1" inkscape:cx="375" inkscape:cy="520" inkscape:document-units="px" inkscape:pageopacity="0.0" inkscape:pageshadow="2" inkscape:window-height="1000" inkscape:window-maximized="1" inkscape:window-width="1680" inkscape:window-x="-8" inkscape:window-y="-8" inkscape:zoom="0.35985915" pagecolor="#ffffff" showgrid="false">
	</sodipodi:namedview>
<g id="layer1" transform="translate(0,-52.362183)" inkscape:groupmode="layer" inkscape:label="Layer 1">
	<path id="path3000" inkscape:connector-curvature="0" class="st0" d="M84.5,981.1c1.2-10.7,1-11.6-3-14.5c-4-2.8-4.2-3.6-2.2-8.8
		c1.2-3.1,1.7-7.9,1.1-10.5c-1.2-5.6,0-5.9,5.2-1.4c3.4,3,3.7,4.5,2.5,14.6c-1.1,9.7-0.9,11.3,1.6,11.3c3.7,0,3.8,6.2,0.1,14.4
		C85.4,996.4,83,994.1,84.5,981.1L84.5,981.1z M342.9,979.3c-0.7-0.6-1.2-3.3-1.2-5.9s-0.8-5.3-1.8-5.8c-1-0.6-1.8-2.6-1.8-4.4
		c0-1.9-0.8-4.7-1.7-6.4c-2.6-4.6-7.5-20.5-7.5-24.4c0-2-0.8-3.6-1.8-3.6s-1.8-1.4-1.8-3.1s-0.7-3.8-1.5-4.7
		c-0.8-0.9-3-5.5-4.8-10.3c-4-10.6-6.2-15.8-9.6-22.1c-1.4-2.7-2.6-7.6-2.6-10.9c0-3.3-0.8-7.4-1.7-9c-1.8-3.1,2-16.5,5.6-19.9
		c0.9-0.9,1.7-3.4,1.7-5.5c0-2.1,0.8-4.3,1.8-4.9c2.5-1.5,2.4-44.9-0.2-49.4c-1.1-1.9-2-7.8-2.1-13.1c-0.1-5.3-1.2-12.2-2.6-15.3
		c-1.4-3.1-2.5-8.6-2.5-12.2c0-3.6-0.8-7.3-1.7-8.2s-2.1-5.9-2.5-11.1s-2.3-16.8-4-25.8c-1.8-9-3.8-20.2-4.5-25l-1.3-8.6l-1.5,7.4
		c-0.8,4-2.2,7.8-3.1,8.3c-0.9,0.5-1.6,4.3-1.6,8.5c0,4.2-0.7,8-1.6,8.5c-0.9,0.5-2,3.5-2.5,6.6c-1.2,7.7-5.2,22.2-7.1,25.8
		c-0.9,1.6-1.6,4.9-1.6,7.2c0,2.3-0.8,6-1.7,8.2c-0.9,2.2-3.1,8.6-4.8,14.3c-1.7,5.7-4.6,13.4-6.3,17.2c-1.8,3.8-3.8,8.8-4.5,11.2
		c-1.6,5.4-5.8,14-15.8,32.7c-4.3,8.1-8.8,16.4-9.9,18.5c-1.1,2.1-2.6,3.9-3.4,3.9c-0.8,0-1.4,0.8-1.4,1.9s-2.1,4.4-4.6,7.5
		c-2.5,3.1-4.6,6.5-4.6,7.6c0,4-21,22.7-25.4,22.7c-5.3,0-9.6,3.7-9.6,8.3c0,1.9-1.2,3.8-2.8,4.4c-1.5,0.5-2.8,2.3-2.8,3.9
		c0,1.6-2.1,5.5-4.8,8.8c-3.9,4.8-5.3,5.5-7.5,3.8c-3.1-2.4-5.6,0.3-13.9,14.8c-4,7.1-5.9,8.8-10.9,9.5c-5.2,0.7-6.9,2.4-12.6,12.5
		c-3.7,6.4-7.5,11.6-8.5,11.6c-1.9,0-6.5-7.9-6.5-11.2c0-1.1,1.7-3.6,3.8-5.7c2.7-2.7,5-3.5,8.3-2.7c3.6,0.8,4.5,0.4,4.5-2.1
		c0-4.6,15.1-21.6,17.4-19.5c2.3,2.1,4.7,2.2,4.7,0.1c0-3.3,11.7-19.1,14.1-19.1c1.4,0,2.5,0.8,2.5,1.7s1.2,1.7,2.8,1.7
		c1.7,0,2.8-1.6,2.8-4.3c0-2.4,0.8-4.3,1.8-4.3c1,0,1.8-1.2,1.8-2.7c0-5.3,9.9-16.1,14.8-16.3c5-0.1,15.7-11.7,23.8-25.8
		c2.4-4.3,5.9-9.6,7.8-11.8c4.2-5,21.9-39.1,31.1-59.7c0.8-1.9,2.6-6.9,3.9-11.2c1.3-4.3,4-12.4,6-18.1c2-5.7,4.3-13.4,5.1-17.2
		c2.6-12.7,13.2-51.7,14.8-54.7c0.9-1.6,1.7-5.1,1.7-7.8c0-2.6,1.2-7.9,2.7-11.7c3.1-7.9,3.7-30.3,1-32.9
		c-1.8-1.6-4.1-18.3-7.2-49.8c-1.7-17.8-3.7-13.6-7.5,15.9c-0.9,6.8-2.1,13.2-2.8,14.2c-1.6,2.4-4.7,29.6-5.8,50
		c-1,18.7-2.3,23.9-4.5,17.2c-2.1-6.5-2-26.7,0.1-32c1-2.6,2.8-12.9,3.8-22.9c3.6-34.8,6.9-53.7,10.5-59.9c1.3-2.2,1.8-7.4,1.3-12.7
		c-0.6-5.6-0.1-9.9,1.3-11.5c1.2-1.4,2.9-6.5,3.8-11.4c3.2-18.4,3.7-20,6.2-22c1.4-1.1,2.6-3.5,2.6-5.3c0-1.8,2.5-6.2,5.5-9.7
		c17.4-20.1,20.3-23.7,20.3-25.5c0-1.1,1.9-3.1,4.1-4.6c2.3-1.4,6.2-4.3,8.8-6.4c5.6-4.7,21.5-15.5,27.7-18.8
		c11.5-6.2,25.9-12.2,29.1-12.2c2,0,6-1.2,8.9-2.6c2.9-1.4,7.5-2.6,10.2-2.6c2.7,0,5.5-0.8,6.1-1.7c0.6-0.9,5.7-1.7,11.2-1.7
		c5.6,0,13.1-1.2,16.7-2.6c3.6-1.4,11-2.6,16.3-2.6s12.7-1.2,16.3-2.6c3.6-1.4,10.7-2.6,15.8-2.6c5,0,9.6-0.7,10.2-1.6
		c0.6-0.9,5.4-2.1,10.7-2.7c19.6-2.3,27-6.4,27.1-14.8c0-2.4,0.8-5.1,1.7-6c2.5-2.6,4-19.5,1.8-20.7c-2.4-1.4-0.4-15.2,3.2-22.1
		c1.4-2.8,2.6-6,2.6-7.3c0-2.9,2.2-3,5.2-0.2c1.8,1.7,2,0.9,1.1-3.4c-0.8-3.6-0.5-5.5,0.9-5.5c1.1,0,2.1-1.3,2.1-2.9
		s1.9-5.3,4.2-8.2c6.1-7.7,9.3-14.2,8.1-16.1c-0.6-0.9,0.9-3.8,3.2-6.4c2.6-2.9,4.8-4,5.6-2.9c1.1,1.7,0,4.5-4.7,12.3
		c-0.9,1.4-2.1,3.7-2.7,5.2c-4,9.2-6.5,13.5-9.8,16.3c-2.1,1.8-3.8,4.2-3.8,5.5c0,2.7,4.8,3.1,6.5,0.6c1.5-2.2,4.6-2.2,4.6,0
		c0,2-11.4,17.9-13.4,18.7c-0.8,0.3-1.4,2.9-1.4,5.8c0,4.5,0.4,4.9,2.8,3c2.1-1.6,3.4-1.7,4.9-0.3c1.5,1.4,0.9,3.6-2.5,8.5
		c-2.5,3.6-6.9,11.2-9.7,16.9c-2.9,5.7-5.9,11.7-6.8,13.3c-0.9,1.6-1.6,5.6-1.6,8.7s-0.9,6.6-2.1,7.7c-2.5,2.4-4.2,17.7-1.9,17.7
		c0.9,0,3.1-3.1,4.9-6.9c1.8-3.8,4.1-6.9,4.9-6.9c3.2,0,3.7,5.4,0.8,8.4c-1.6,1.7-3,4-3,5.1c0,1.1-0.7,3.4-1.6,5
		c-7,13.4-8,16-6.8,18.8c1.2,2.7,1.5,2.7,2.5,0.5c2.8-6.2,7.6-11,9.5-9.3c1.3,1.2,0.4,4.5-2.5,10.3c-4.9,9.5-8.1,20.2-9.5,31.5
		c-1.1,8.6,1.3,14.2,2.8,6.5c0.5-2.8,2-5.3,3.3-5.7c2.8-0.9,3.2,11.8,0.4,14.4c-1.9,1.8-3,55.2-1.2,56.9c0.5,0.5,1.5-0.8,2.2-2.8
		c2.5-7.3,5.6-2.2,6.8,11.3c0.7,7.5,2,18.7,2.9,24.8c1.5,10.4,1.8,10.8,3.1,5.5c2.5-9.9,5.5-4.9,8,13.5c2.5,18.1,4.5,24.6,12.7,40.4
		c8.3,16.1,19.7,31.9,23.1,31.9c1.5,0,0.7-8.3-1.6-15.9c-1.5-5.1,4.8-3.5,7,1.7c1.1,2.6,2.7,6.1,3.6,7.7c0.9,1.6,1.6,3.9,1.6,4.9
		c0,2.4,11.7,17.6,19.8,25.7c3.3,3.3,6,6.6,6,7.3c0,0.7,0.9,1.3,1.9,1.3c1.1,0,1.4-2.7,0.7-6.9c-1.6-9.4,1.5-9,12.2,1.7
		c4.7,4.7,10,8.6,11.6,8.6c1.8,0,3.6,2,4.3,4.7c0.7,2.6,2.8,7.1,4.6,9.9c1.9,2.8,3.8,6.3,4.4,7.8c0.6,1.4,1.8,3.9,2.8,5.6
		c0.9,1.6,1.7,4.4,1.8,6c0.1,2.2,0.9,1.7,2.9-1.8c3.4-5.9,4.9-5.1,8.1,3.8c2.8,8.1,4.8,8.7,7.7,2.7c3.1-6.4,7-5.5,7,1.7
		c0,8.6,3.4,7.5,7.9-2.6c2.7-5.9,5-8.6,7.3-8.6c5.2,0,45.9-39.5,55.1-53.5c6.3-9.6,8.9-10.7,9-3.8c0,4.7,0.1,4.7,6.9-2.5
		c3.8-4,8.7-9.4,10.9-12.1c3.2-3.9,4.5-4.4,6.4-2.7c1.8,1.7,1.9,2.6,0.1,4.2c-2.6,2.5-3,8.3-0.5,8.3c1,0,2.3-0.9,3-1.9
		c0.9-1.3,1.7-1.2,2.8,0.4c2.5,3.6,1.9,8.7-1.2,11.9c-1.7,1.8-2.2,3.4-1.1,4c3.7,2.2,32.1-32.1,40.1-48.5c4-8.2,5.5-9,7.3-3.8
		c1.1,3.1,1.6,2.8,4.7-2.9c1.9-3.6,3.5-7.5,3.5-8.7s0.8-2.2,1.8-2.2s1.8-1.9,1.8-4.2c0-5.7,5.7-16,9.4-17c1.8-0.4,3.4-3.4,4.1-7.4
		c2-11.9,4.9-23.6,6-24.6c0.6-0.6,2.2,0.5,3.7,2.3c3.8,4.8,3.3,15.7-0.8,19.4c-3.3,2.9-4.1,5-6.8,16.9c-1.8,8-6.9,16.4-10,16.4
		c-2.7,0-9.3,10.9-9.3,15.2c0,1.1-1.4,4-3.1,6.4c-1.7,2.4-4.4,6.8-6,9.8c-1.9,3.6-4.3,5.5-6.9,5.5c-3.5,0-7.9,4.1-19.7,18.1
		c-1.2,1.4-5.3,6-9.1,10.2c-6,6.6-6.9,8.8-7,16.4c0,4.8-1.1,11.4-2.3,14.8c-3.4,9.2,0.6,81,4.5,81c0.9,0,2.6,1.9,3.8,4.3
		c1.4,2.9,3.6,4.3,6.6,4.3c2.5,0,6.7,1.1,9.4,2.4c2.7,1.3,7.2,3.4,10,4.6c7.7,3.4,16.1,17.2,16.1,26.7c0,8.5-4.4,12.5-7.7,7.1
		c-0.9-1.6-3.7-2.9-6.2-2.9c-2.5,0-4.5-0.8-4.5-1.8c0-3.6-72.5,1.8-76.7,5.7c-2.5,2.3-8.9,1.4-15.3-2.3l-6.3-3.6l1.1-15.1
		c0.8-11.6,0.4-16.3-1.7-20.1c-2.1-3.8-2.5-8.4-1.7-19.6c2.4-33.1,3.1-63.8,1.4-63.8c-0.9,0-3.8,1.8-6.4,4.1s-7.5,5.7-10.9,7.6
		c-9.5,5.5-13.8,10.7-17.3,20.6c-3.4,9.9-5.7,11.4-7.5,4.7c-1.2-4.5-3.4-5.5-5.4-2.6c-2,3-6.5,1.9-6.5-1.6c0-5.8-3.7-5.8-4.9,0.1
		l-1.2,5.6l-4.3-4.7c-2.4-2.6-4.3-6.5-4.3-8.8s-0.8-4.6-1.8-5.2c-1-0.6-1.8-2.6-1.8-4.4c0-1.9-1.9-6.3-4.2-9.8
		c-2.3-3.5-5.3-8.6-6.8-11.2c-3.2-6-5.6-6.1-5.6-0.2c0,3.9-0.6,4.4-4.6,3.4c-3.8-0.9-4.6-0.5-4.6,2.4c0,1.9-0.7,4.8-1.7,6.5
		c-4.9,8.8-9.4,33.4-11.2,60.7c-1.5,22.5-0.6,33.5,3.5,43.6c1.1,2.7,2,8.3,2,12.6c0,4.3,0.8,9.1,1.8,10.8c2.2,3.9-2.3,10.5-7.2,10.5
		c-1.8,0-4.5,1.3-5.9,2.8c-3.5,4-21.3,16.1-23.7,16.1c-1.1,0-1.9,0.7-1.9,1.6c0,0.9-3.1,2.1-6.9,2.7c-7.1,1.1-12.3,2.8-21.4,7
		c-2.9,1.3-6.8,2.4-8.7,2.4c-1.9,0-8.2,1.2-14.1,2.6c-18.1,4.4-32.8,2.7-26.6-3.1c1.1-1.1,2.1-5.2,2.1-9.1c0-4.3,1.1-8.1,2.8-9.3
		c1.5-1.2,2.8-3.5,2.8-5.1c0-3.3,8.9-11.5,18.1-16.5c10.5-5.8,16.1-24.3,15.9-52.5c-0.1-21-3.8-72-6.6-92.6L557,710l-5.8,0
		c-3.2,0-8.1-1.4-11-3.2c-3-1.8-7.1-2.8-9.7-2.4c-3.2,0.6-6-0.5-9.5-3.8l-4.9-4.6l-7.5,17.9c-4.1,9.9-9.1,20.2-11.1,22.9
		c-2,2.8-5.3,7.7-7.4,11.1c-5.7,9.3-23.2,30.9-25,30.9c-0.9,0-2.9,2.6-4.5,5.8s-11,13.5-20.8,22.9c-20.2,19.3-37.4,39.7-39.7,46.7
		c-6,18.7-7,27.2-4.8,39.2c1.2,6.6,2.9,12.8,3.8,13.7s1.6,3.7,1.6,6.2c0,2.9,2.4,6.9,6.6,10.9c3.6,3.5,6,7.1,5.4,8
		c-1.8,2.8-14.4,1.9-19.5-1.3c-14.4-9.1-15-10.5-20.6-42.6c-4.4-25.4-0.4-69.2,7.5-83c1.2-2.1,2.2-5.7,2.2-8.1s0.8-4.8,1.8-5.4
		c1-0.6,1.8-2.5,1.8-4.4c0-3,3.3-11.4,7.6-19.3c0.9-1.6,1.6-4.4,1.6-6.1c0-1.7,0.7-3.9,1.5-4.8c0.8-0.9,2.9-6.3,4.7-12
		c1.8-5.7,4-12.7,5-15.6c0.9-2.9,1.7-7.1,1.7-9.4c0-2.2,0.8-8.4,1.8-13.7c3.4-17.7,5.9-35.3,7.5-51.8c3.2-34,3.7-37,5.4-38.6
		c1.1-1,2.5,0.1,3.7,3.1c1,2.6,2.8,4.2,3.8,3.6c1.1-0.6,3.2-0.2,4.7,1c2.2,1.7,3.2,1.5,5.5-1.1c2.7-3.2,2.8-3.2,5.5,0.1
		c1.5,1.8,2.8,5.3,2.8,7.6c0,4.2,0,4.2,3.9,1c3.4-2.9,4.1-3,6-0.6c1.2,1.5,3.6,3.2,5.4,3.8c2.4,0.8,3.2,3.1,3.2,8.8
		c0,4.2,0.8,8.2,1.8,8.8s1.8,3.5,1.8,6.5c0,3.7,0.6,4.9,1.9,3.6c2.6-2.4,2.7-27.1,0.1-27.9c-2.5-0.8-2.7-9-0.2-9
		c2.6,0,2.3-4.1-0.8-9.8c-1.4-2.7-3.7-7.2-5-10c-1.3-2.8-3.6-6.5-5.1-8.2c-2.1-2.4-2.2-3.5-0.4-5.2c1.8-1.7,3-1.2,5.8,2.2
		c2,2.4,3.6,5.7,3.6,7.3c0,1.7,0.7,3,1.5,3c1.8,0,7.7,12.2,7.7,16c0,1.5,0.8,3.2,1.8,3.8c1,0.6,1.8,3.7,1.8,6.9
		c0,3.2,0.8,6.3,1.8,6.9c1,0.6,1.8,3.6,1.8,6.7c0,3.1,1.2,7.1,2.7,8.9c1.5,1.8,2.7,4.6,2.8,6.2c0,1.6,0.7,3.1,1.4,3.4
		c2,0.8,7.8,13.1,7.8,16.5c0,2.2,0.5,2.4,2.2,0.8c3.8-3.5,6.8-2.3,11.9,4.9c4.7,6.7,5,6.8,8.4,3.9c3.4-2.9,3.8-2.7,10,3.4
		c5.3,5.3,7.1,6.1,10,4.6c2.8-1.4,4.4-1,7.4,1.9c4.9,4.6,6,3.5,6.7-6.6c1.1-15.7,3.8-31.7,5.9-33.6c3-2.8,2.5-15.5-0.6-19.4
		c-1.5-1.8-2.7-4.6-2.8-6.1c0-1.5-2.6-7.6-5.7-13.6c-6-11.6-8.9-21.6-10.4-35.4c-0.6-6.1-2.2-9.7-5.3-12.6c-3.4-3-4.4-5.8-4.4-11.5
		c0-4.2-0.8-8.1-1.8-8.6c-1-0.6-1.8-8.4-1.8-17.5c0-11.7-0.7-17.1-2.6-18.8c-2.1-2-2.5-12.1-2.3-55.9c0.3-52.3-0.2-56.6-5.3-51.8
		c-1,0.9-6.7,1.9-12.8,2.2c-9.4,0.4-11,1-10.8,3.7c0.2,2.6-0.5,2.9-4.6,1.8c-6.2-1.8-36.9-0.8-41.1,1.3c-1.7,0.9-9.6,1.6-17.6,1.6
		c-9,0-16.1,1-19,2.5c-2.5,1.4-6.8,2.5-9.5,2.5c-2.7,0-7.2,1.2-10.1,2.6c-2.9,1.4-6.6,2.6-8.2,2.6c-3.6,0-12.6,4.1-24.7,11.3
		c-5.1,3-11.1,6-13.4,6.7c-2.3,0.7-4.1,1.9-4.1,2.8c0,0.9-1.1,1.6-2.4,1.6s-3.7,1.4-5.3,3c-1.6,1.7-5.7,5.3-9,8.2
		c-6.9,5.9-24.6,27.7-27.8,34.4c-1.2,2.4-2.8,4.4-3.5,4.4c-1.5,0-3.7,6.7-4.7,14.1c-0.3,2.5-2,8.3-3.7,12.9
		c-2.4,6.6-3,14.2-2.9,36.5c0.1,15.5,1,29.1,1.9,30.2c0.9,1.1,2.3,8.6,3,16.6c0.7,8.1,2,15.4,2.8,16.4c0.8,0.9,2,9.1,2.7,18.1
		c2,26.7,3.8,40.3,5.7,43.1c1,1.4,2.4,7.2,3.1,12.9c0.7,5.7,2.2,15.4,3.3,21.5s2.6,15.5,3.5,20.7s2.5,13,3.6,17.2
		c4.4,16.7,6,31.1,6.1,52.1c0,12.1,0.7,22.3,1.5,22.8c2.2,1.3,7.5-18.8,7.5-28.8c0-6.5,0.5-8.3,1.8-6.5c1,1.4,1.8,7.5,1.8,13.6
		c0,9.8-3.5,19.6-10.5,29.3c-0.3,0.4-1.8-0.3-3.3-1.5c-2.3-1.8-2.8-1.7-2.8,0.5c0,1.5,0.8,3.2,1.8,3.8c2.4,1.4,2.4,9,0,10.3
		c-1,0.6-2.6-0.7-3.5-2.9c-2.7-6.5-3.9-0.5-3.3,15.8c0.4,10.9,1.7,16.9,4.8,23.3c10.7,21.6,13.1,27,13.1,30.2c0,1.9,0.8,3.4,1.8,3.4
		s1.8,1.8,1.8,4.1c0,2.3,1.2,6.3,2.8,9c1.5,2.7,2.8,7,2.8,9.6c0,2.6,0.8,5.1,1.9,5.7c1,0.6,1.8,2.5,1.8,4.1c0,1.7,1.3,5.5,2.9,8.5
		c2.5,4.7,3.9,5.4,10,5.4c3.9,0,7.6-0.8,8.3-1.7s5.1-1.7,10-1.7c9.8,0,20.4-2.9,20.4-5.5c0-1,2.3-1.2,5.5-0.6
		c3.4,0.7,5.5,0.4,5.5-0.6c0-1,3-3.1,6.6-4.7c3.6-1.6,7.5-4.7,8.6-6.9c1.1-2.2,3.5-4.5,5.4-5c6.6-2,2.5-9.4-5.3-9.4
		c-2.5,0-4.2-1-4.2-2.6c0-1.8,1.9-2.6,6.3-2.6c3.9,0,6.7,1,7.3,2.6c0.6,1.4,3.2,2.6,5.7,2.6c7.2,0,5.8,4.9-4.2,14.7
		c-5.5,5.3-13.8,10.9-21.7,14.4c-7,3.2-14.2,6.4-16,7.3c-1.8,0.8-8,1.5-13.8,1.6c-5.8,0-12.7,1.2-15.2,2.5
		C360.9,980.4,345.1,981.4,342.9,979.3L342.9,979.3z M398.8,924.6c0-1.4-0.8-3-1.8-3.5c-1-0.6-1.8-2.9-1.8-5.1c0-2.2-1.1-4.9-2.5-6
		c-1.4-1.1-3.1-5.2-3.7-9.3c-0.6-4-1.7-10.2-2.3-13.7c-1.3-7.5,3.6-28.1,9-38.3c4.1-7.8,20.6-27.5,31.7-38.1
		c4.1-3.9,12-11.9,17.6-17.9s11-11.7,12-12.8c1-1.1,5.1-6.5,9.2-12.1c4-5.6,8.4-11.2,9.8-12.5c3.3-3.1,22.9-36.1,26-43.7
		c1.3-3.3,3.3-7.7,4.4-9.8c1.4-2.8,1.3-4.5-0.6-6.6c-2.3-2.6-2.7-2.6-4.9,0.2c-2.3,2.9-2.5,2.9-5.9,0c-2-1.7-4.6-5.5-5.9-8.5
		c-3.1-7.4-3.2-7.4-6.1-3.7c-3.2,4.1-6.9,1.7-10.4-6.6c-1.3-3-3.4-7.9-4.6-10.7s-3.1-7.5-4-10.3c-0.9-2.8-4.1-6.3-7.1-7.9
		c-3-1.5-6.8-5.6-8.6-9c-3.8-7.4-6.8-9.5-9.1-6.3c-1.4,2-2.1,1.9-4.1-0.6c-2.3-2.9-2.6-2.9-5.3,0c-3.1,3.3-4.3,9.5-6.8,36.6
		c-2.1,22.3-5.4,46.5-6.9,50c-0.6,1.4-1.8,5.7-2.6,9.5c-3.5,16-7.7,29.1-14.5,44.8c-0.8,1.9-2.9,6.9-4.7,11.2s-3.9,9.3-4.7,11.2
		c-0.8,1.9-1.9,5.8-2.5,8.6c-0.5,2.8-2.4,10.2-4.1,16.4c-4.7,16.9-5.6,63.9-1.5,80c1.7,6.7,3.9,13,4.7,13.9c0.9,0.9,1.6,2.8,1.6,4.2
		c0,3.1,5.6,8.6,8.8,8.7C397.8,927,398.8,925.9,398.8,924.6L398.8,924.6z M479.9,726.6c0-1.5,0.8-2.8,1.8-2.8s1.8-1.5,1.8-3.3
		c0-1.8,0.8-3.8,1.8-4.4c3.3-1.9,2,4.5-1.8,9C480.9,728.2,479.9,728.6,479.9,726.6z M542.6,904.8c1-1.8,1.9-5.7,1.9-8.7
		c0-7.4,5.2-16.6,7.9-14c1.5,1.4,1.5,2.5-0.2,4c-1.2,1.1-2.2,6.3-2.2,11.4c0,8.2,0.4,9.2,3.2,8c1.8-0.7,5-1.4,7.2-1.5
		c5.3-0.3,5.6-0.7,8.6-11.4c3.3-11.9,6.8-13.4,6.8-2.8c0,8.5,2,11.1,5.5,7.1c1.3-1.4,4.6-2.6,7.4-2.6c5.3,0,16.5-5,16.5-7.3
		c0-0.7,1-1.3,2.2-1.3s6.1-3.1,10.9-6.9s9.5-6.9,10.5-6.9s2.2-1,2.6-2.2c1.4-3.5-0.1-18.2-2.2-21.8c-1.1-1.9-1.9-7.5-1.9-12.6
		c0-5.1-0.9-10.1-2.1-11.2c-1.9-1.8-0.5-23.7,3.2-49.6c0.5-3.8,1.6-11.2,2.3-16.4s2.3-11.2,3.5-13.2c2.7-4.6,2.9-12.6,0.4-12.6
		c-1,0-1.8-1.2-1.8-2.6s0.8-2.6,1.8-2.6c1,0,1.8,1.2,1.8,2.6s0.8,2.6,1.8,2.6s1.8-1.9,1.8-4.3c0-2.4-0.8-4.3-1.8-4.3
		s-1.8-0.9-1.8-1.9c0-1.6-10.8-14.4-21.6-25.6c-1.3-1.4-4.4-2.6-6.7-2.7c-4.7-0.2-28.9-23.3-28.9-27.6c0-1.3-0.7-2.4-1.6-2.4
		c-0.9,0-2.1-1.7-2.7-3.8c-1.4-4.9-3.9-2.5-6.4,5.9c-2.3,8-1.1,95.9,1.5,105.6c2.4,9.1,2.4,64.8,0,70.7c-1,2.5-2,7.7-2.2,11.5
		c-0.2,5.7-1.8,8.5-8.6,15.4c-4.6,4.6-11,10-14.3,11.9s-7.7,6.1-9.8,9.2c-3.7,5.5-5,14.8-2.6,17.1
		C535.3,909.2,540.7,908,542.6,904.8L542.6,904.8z M593.3,856.4c-0.6-0.9-0.3-1.7,0.8-1.7c1.1,0,2,0.8,2,1.7s-0.4,1.7-0.8,1.7
		C594.8,858.1,594,857.4,593.3,856.4z M584.6,855.3c1.3-0.5,3.3-0.5,4.6,0c1.3,0.5,0.2,0.9-2.3,0.9S583.3,855.8,584.6,855.3z
		 M616.8,797.8c0-3.3,0.4-4.7,0.8-3c0.5,1.7,0.5,4.4,0,6S616.8,801.2,616.8,797.8L616.8,797.8z M596.1,771.1c0-1.4,1.2-2.6,2.8-2.6
		s2.8,1.2,2.8,2.6s-1.2,2.6-2.8,2.6S596.1,772.5,596.1,771.1z M585.3,764.3c-3.2-3.3-5.8-6.5-5.8-7.2c0-0.7-1.3-2.6-3-4.3
		c-2.9-3-2.4-8.4,0.8-8.4c0.9,0,3.4,3.4,5.6,7.5c2.2,4.1,5.7,8.9,7.7,10.6c3.7,3.2,5,7.8,2.2,7.8
		C591.9,770.3,588.5,767.6,585.3,764.3L585.3,764.3z M764.6,850.5c1.3-1.6,6.6-2.6,15-3c15-0.7,18-3.2,16.3-13.9
		c-0.8-5.1-0.5-6.5,1.7-6.5c3.2,0,5.5,9.9,2.6,11.5c-3.2,1.8,4.7,5.7,11.5,5.7c13.3,0,15.1-1.3,14.5-9.9c-0.7-11,3.1-11.3,5.9-0.5
		c1.9,7.6,3.1,9.1,9,11.4c3.7,1.5,8.2,3.4,9.9,4.3c4.6,2.2,5.1,2,5.1-2c0-5.8-15.1-22.2-20.5-22.2c-1.7,0-4-1.1-5.2-2.5
		c-1.2-1.4-3.3-2.1-4.7-1.6c-3.8,1.4-13.4-4.6-15.4-9.6c-1-2.4-3.2-12.5-4.9-22.4c-3.2-17.8-3-50.2,0.3-75.8
		c1.1-8.3,0.9-9.2-1.9-8.2c-4.4,1.6-5.4-2.4-2.2-8.3c3.2-5.8,2-8.4-1.7-3.7c-3.3,4.2-7,1.9-5.6-3.4c1.5-5.6-0.8-5.1-6.3,1.3
		c-7.4,8.6-17,16.9-19.4,16.9c-1.2,0-5.7,3.9-10,8.7l-7.8,8.7l-0.5,31.4c-0.3,17.3-1.1,35.3-1.9,40.2c-1.1,6.7-0.7,10.2,1.7,14.9
		c3.5,6.9,3.7,8.8,2.1,22.6c-0.9,7.7-0.5,11.1,1.7,14.2C757,853.5,761.6,854.2,764.6,850.5L764.6,850.5z M757,809.9
		c0-3.3,0.4-4.7,0.8-3c0.5,1.7,0.5,4.4,0,6S757,813.2,757,809.9z M640.4,711.7c0-0.9-0.9-1.7-2-1.7c-1.1,0-1.4,0.8-0.8,1.7
		c0.6,0.9,1.5,1.7,2,1.7C640,713.4,640.4,712.6,640.4,711.7z M487.6,660.1c-2-4.3-4.2-10-4.8-12.7c-0.6-2.8-1.9-4.3-3.1-3.7
		c-2.8,1.6-0.5,11.8,5.4,23.9c4.5,9.4,5,9.8,5.6,5.3C491,670.2,489.6,664.4,487.6,660.1L487.6,660.1z M478.6,629
		c0.6-2.2,0.1-3.4-1.6-3.4c-1.4,0-2.6,1.6-2.6,3.4s0.7,3.4,1.6,3.4C476.9,632.4,478.1,630.9,478.6,629L478.6,629z M101.3,975.8
		c-0.6-0.6-1.2-3.5-1.2-6.4c-0.1-5-0.2-5.1-2.7-2c-1.5,1.8-3.2,2.9-3.7,2.4c-1.2-1.1,8.6-20.3,10.4-20.3c0.7,0,2.3,3.5,3.6,7.8
		c1.8,5.9,1.8,8.3,0.2,9.8c-1.2,1.1-2.1,3.3-2.1,5C105.6,975.4,103.1,977.6,101.3,975.8z M105.6,962.3c0-0.4-0.8-0.8-1.8-0.8
		c-1,0-1.8,0.8-1.8,1.8c0,1,0.8,1.3,1.8,0.8C104.8,963.5,105.6,962.7,105.6,962.3z M391.4,958.1c0-0.9,0.8-1.7,1.8-1.7
		c1,0,1.8,0.8,1.8,1.7s-0.8,1.7-1.8,1.7S391.4,959,391.4,958.1z M384.6,953.6c0.6-0.6,2.2-0.6,3.5-0.1c1.5,0.5,1,1-1.1,1
		C385,954.6,383.9,954.2,384.6,953.6L384.6,953.6z M89,941.6c-4.2-10.2,0.4-18.1,5.2-8.9c2,3.8,2,3.8,2.1-0.9
		c0.1-4.1,5.6-11.6,8.4-11.6c0.5,0,0.9,1.6,0.9,3.4s-0.8,3.4-1.8,3.4c-1,0-1.8,1-1.8,2.1c0,4.3-6.5,16.8-8.8,16.8
		C91.8,946,90,944,89,941.6L89,941.6z M413.6,944.3c0-0.9,1.7-1.7,3.7-1.7s3.7,0.8,3.7,1.7s-1.7,1.7-3.7,1.7
		C415.2,946,413.6,945.2,413.6,944.3z M80.9,927.2c-1.8-2.8,5.1-17.6,7.8-16.6c1.9,0.7,2.2-0.4,1.2-4.7c-1-4.6-0.8-5.2,1.1-3.4
		c1.3,1.2,3.1,2.2,3.9,2.2c2.4,0,1.7-4.8-0.8-5.7c-1.8-0.6-1.8-1.2,0-3.1c1.3-1.3,2.3-4,2.3-6.1c0-3.2,5.4-8.7,15.7-15.9
		c9.2-6.5,33.5-9.4,37.8-4.6c1.3,1.4,3.9,2.6,5.8,2.6c1.9,0,3.5,0.8,3.5,1.7s3.7,1.7,8.2,1.7c4.5,0,8.7-0.8,9.3-1.7s2.8-1.7,4.7-1.7
		c2,0,3.6-1.2,3.6-2.6s0.7-2.6,1.6-2.6c0.9,0,3.1-2.7,5-6s4.1-6,4.9-6c0.8,0,1.4-1,1.4-2.3c0-1.3,1.7-3.8,3.8-5.5
		c2.1-1.8,5-5.9,6.6-9.3s3.6-7.5,4.6-9.3c8.3-14.5,20-37.1,20-38.5c0-2.5,5.5-12.3,7.5-13.5c0.9-0.5,1.7-4,1.7-7.7
		c0-3.7,0.8-7.2,1.8-7.8c1-0.6,1.8-4.9,1.8-9.6c0-6.3,0.8-8.9,2.9-9.6c2.1-0.8,2.7-2.4,1.9-6c-1.2-5.8,0.5-15.3,2.8-15.3
		c2.2,0,2,20.2-0.2,21.5c-1,0.6-1.8,4.9-1.8,9.5c0,4.6-0.7,8.8-1.6,9.3c-0.9,0.5-2.1,4.1-2.8,7.9c-0.7,3.9-1.9,8.3-2.8,9.9
		c-0.9,1.6-2.4,4.9-3.4,7.2c-3.9,9.2-14.4,29.8-23.5,46.5c-5.8,10.6-21.7,31.7-28,37.2c-2.3,2-4.2,4.2-4.2,4.9c0,3.4-8.9,7.7-16,7.8
		c-7.1,0.1-18.4-3.9-21.1-7.4c-1.3-1.6-14.1-2.7-17.8-1.5c-1.8,0.6-1.8,1.3-0.2,3.1c2.2,2.5-1.3,7.1-16.8,22.7
		c-3.6,3.6-8.1,9.5-10.1,13.1c-2,3.6-4.4,8-5.4,9.8c-1.1,2-3,2.9-4.9,2.4c-1.7-0.5-3.5,0.2-4.1,1.7C87.2,929,82.5,929.7,80.9,927.2
		L80.9,927.2z M102.6,897.3c0.7-1.7,1.3-1.6,2.7,0.2c1.4,1.9,2.4,1.7,5.4-1c2-1.9,4.2-5.5,4.9-8c0.7-2.7,3.2-5.3,5.8-6.2
		c6-2.1,5.8-5.2-0.2-5.2c-5.3,0-10,3.6-10,7.6c0,1.5-0.9,2.7-2,2.7c-1.1,0-1.5,1.5-0.8,3.4c0.9,2.6,0.5,3.2-1.7,2.4
		c-3-1.1-8.4,2-8.4,4.7C98.3,900.3,101.5,899.8,102.6,897.3L102.6,897.3z M107.9,921c-3.4-3.6-3-4.5,4.6-10.7c7-5.7,12.2-7.1,14.3-4
		c1.7,2.5,3.4,2.1,8.1-1.9c5.4-4.7,7.1-3.1,2.3,2.2c-2,2.2-5.4,5.9-7.5,8.2c-2.1,2.3-4.4,3.5-5.2,2.8c-0.8-0.8-0.3-1.7,0.9-2.1
		c2.6-0.9,3.2-5.7,0.8-5.7c-2.1,0-11.4,9.9-11.4,12C114.9,924.4,110.6,923.9,107.9,921L107.9,921z M324.3,891.8
		c-2.7-4.7-3-6.7-1.4-8.2c1.7-1.5,2.2-1.2,2.2,1.4c0,1.9,0.9,4.3,2,5.3s1.7,3.2,1.4,4.8C328,897.1,326.8,896.1,324.3,891.8z
		 M141.2,888.1c0.6-0.6,2.2-0.6,3.5-0.1c1.5,0.5,1,1-1.1,1C141.6,889.1,140.6,888.7,141.2,888.1L141.2,888.1z M317.7,876.2
		c0-1.4,0.8-2.6,1.8-2.6s1.8,1.2,1.8,2.6s-0.8,2.6-1.8,2.6S317.7,877.7,317.7,876.2z M326.4,791.2c-1.8-8-1.6-17.1,0.3-18.2
		c2.4-1.4,3.9,9.2,2.3,17.1l-1.4,6.9L326.4,791.2z M680.9,690.4c0-18.3,0.6-33.9,1.3-34.6c2.7-2.5,5.6,22.6,4.8,41.2
		c-0.9,21.6-1.7,26.7-4.3,26.7C681.6,723.7,680.9,711.1,680.9,690.4z M255,703.2c0-8.5,0.7-15.8,1.6-16.3c2-1.2,4,18.2,2.6,25.9
		C257.3,723.8,255,718.5,255,703.2L255,703.2z M695,713.9c-1.9-1.8-1.3-29.5,0.7-30.7c1-0.6,1.8-4.1,1.8-7.8c0-3.7,0.9-7.2,2-7.8
		c1.1-0.6,2.9-3.2,4-5.7l2.1-4.6l0.7,4.1c0.4,2.2-0.2,4.9-1.3,5.9c-1.1,1-2,5.2-2,9.2c0,4-0.8,7.8-1.8,8.4c-1,0.6-1.8,7.2-1.8,14.6
		C699.4,712.1,698,716.7,695,713.9z M660,708.8c-0.6-0.6-1.2-3.3-1.2-5.9s-1.1-7.4-2.5-10.5c-4-8.8-6.7-17.6-6.7-21.6
		c0-2-0.8-4.1-1.8-4.7c-1-0.6-1.8-2.1-1.8-3.4c0-1.3-3.3-9.1-7.4-17.2c-4.1-8.2-7.4-15.9-7.4-17.2c0-1.3-0.8-2.9-1.8-3.4
		c-1-0.6-1.8-3.7-1.8-6.9c0-3.2-0.8-6.3-1.8-6.9c-2.3-1.3-2.4-26.7-0.1-26.7c2.7,0,4,6,3.6,16.3c-0.2,5.6,0.5,10.5,1.7,11.6
		c1.2,1.1,2.2,3.2,2.2,4.7c0,2.2,5,13.2,11.3,24.6c0.9,1.6,1.6,4,1.7,5.2c0,1.2,2.1,6.1,4.6,10.8c2.5,4.7,4.6,10.6,4.6,13
		c0,2.4,0.9,5.2,1.9,6.1c1.9,1.7,5.1,13.7,6.8,25.1C664.6,707.4,662.6,711.2,660,708.8L660,708.8z M711.7,700.1
		c-0.7-5.7-0.2-9,1.6-10.9c1.4-1.5,2.6-3.3,2.6-4.1c0-1.4,12-17.4,15.9-21.2c1.2-1.2,3.2-5.1,4.4-8.6c1.2-3.6,2.9-7.2,3.8-8.1
		c0.9-0.9,1.6-3.4,1.6-5.6c0-2.4,1.1-4,2.8-4c2.2,0,2.8,2.8,2.8,14.6c0,8.6,0.8,14.6,1.8,14.6c1,0,1.8-1.6,1.8-3.4
		c0-1.9,0.8-3.4,1.8-3.4s1.8-1.4,1.8-3.1c0-1.7,1.2-4.6,2.7-6.5c1.5-1.8,2.7-4.7,2.8-6.4c0.1-4.2,3.7-3.8,3.7,0.5
		c0,1.9-1,5.2-2.1,7.3c-4.4,8-5.2,9.9-5.2,12.2c0,5.2-20.7,37.3-24.1,37.3c-3.3,0-3.7-4.5-0.9-9.6c1.6-2.8,2.8-6.4,2.8-8
		c0-1.6,0.8-3.4,1.9-4c1-0.6,1.8-3.3,1.8-6c0-2.7,0.8-5.4,1.8-6c1-0.6,1.8-2,1.7-3.1c-0.1-1.5-0.4-1.5-1.1,0.1
		c-0.5,1.2-2.1,2.2-3.5,2.2c-1.4,0-2.6,0.8-2.6,1.8c0,1-3.8,6.9-8.5,13c-6.1,8-8.8,13.4-9.5,18.8C715.2,710.6,713,710.3,711.7,700.1
		L711.7,700.1z M744.7,670.8c-0.6-0.6-1,0.4-1,2.3c0.1,2,0.5,2.4,1.1,1C745.4,672.9,745.3,671.4,744.7,670.8L744.7,670.8z
		 M755.5,683.7c0.1-3.1,2.1-9.1,4.3-13.5c2.3-4.3,4.1-9,4.1-10.5s0.6-3.2,1.3-3.8c3.6-3.3,7.8-25.7,7.9-41.2c0-15.9,2-21.5,4.4-12.9
		c2.2,7.7,1.1,34.8-1.6,39.2c-1.4,2.4-2.7,6.4-2.7,8.9c0,2.6-0.9,5.1-1.9,5.7c-1,0.6-1.8,3-1.8,5.3s-1.2,4.7-2.8,5.3
		s-2.8,2.8-2.8,5.1c0,2.3-0.8,4.1-1.8,4.1s-1.8,1.6-1.8,3.4s0.8,3.4,1.8,3.4s1.8-1.5,1.8-3.3c0-1.8,1.2-3.7,2.8-4.3s2.8-2.5,2.8-4.4
		c0-1.9,0.8-3.9,1.8-4.5c1-0.6,1.8-3,1.8-5.3c0-2.3,0.8-4.2,1.8-4.2s1.8-1.8,1.8-4c0-2.2,1.2-5.5,2.7-7.3c1.5-1.8,2.7-5.9,2.8-8.9
		c0.1-5.9,2.6-7.5,4.5-2.8c1.4,3.4-0.5,14.1-2.8,15.4c-0.9,0.5-1.6,2.5-1.6,4.3c0,1.9-0.8,4.7-1.7,6.4c-0.9,1.6-2.2,4.2-2.8,5.6
		c-0.6,1.4-2.7,4.9-4.6,7.8c-1.9,2.8-3.6,6.4-3.7,7.8c-0.2,3.5-6.7,8.6-10.9,8.6C756,689.3,755.3,688,755.5,683.7L755.5,683.7z
		 M532.7,684.6c-0.6-0.6-1.2-2.8-1.2-4.8c0-2-1-4.6-2.2-5.7c-2.1-2-5.1-15.1-5.8-25.4c-0.4-6.3,3.1-8.6,4-2.6c0.3,2.4,1.4,5,2.3,5.9
		c0.9,0.9,1.7,4,1.7,6.9c0,2.9,1.3,7.5,2.8,10.2C538.6,676.8,537.3,688.9,532.7,684.6L532.7,684.6z M542.4,683.3
		c-2.4-3.5-3.4-12.1-1.7-14.6c1.5-2.2,1.9-2.2,2.9,0.2C545,672.5,543.9,685.6,542.4,683.3z M551.1,679.4c-0.6-0.6-1.1-4-1.1-7.6
		c0-5.3,0.7-6.6,3.5-6.6c3.8,0,6.5,6.4,4.7,10.9C557,679,552.8,681,551.1,679.4z M667.8,664.7c-0.1-8.8-0.3-20.4-0.5-25.8
		c-0.4-12.4,2.8-12.1,5,0.5c1.8,10.6-0.2,41.3-2.7,41.3C668.8,680.7,667.9,673.5,667.8,664.7z M512.8,673.2
		c-6-11.6-8.9-18.6-8.9-21.8c0-1.8-0.8-3.8-1.8-4.4c-1-0.6-1.8-4.2-1.8-8c0-4.2-0.7-6.5-1.8-5.8c-1,0.6-1.8,3.7-1.8,7
		c0,7.9-3.2,7.6-4.6-0.5c-0.6-3.6-1.9-7.8-2.8-9.5s-1.7-5-1.7-7.5c0-5.9,4.4-4.6,5.2,1.5c0.3,2.5,1.4,4.6,2.3,4.6
		c3.2,0,1.7-7.7-2.9-15.2c-5.9-9.6-4-14.7,3-8.2c2.5,2.4,6.2,7.3,8.2,10.9s4.2,6.8,4.9,7.1c0.8,0.3,1.4,1.3,1.4,2.3
		c0,0.9,1.2,2.9,2.8,4.3c1.5,1.4,2.8,4.4,2.8,6.7c0,2.2,0.8,4.6,1.8,5.1c1,0.6,1.8,3.7,1.8,6.9c0,3.2,1,6.1,2.3,6.5
		c1.3,0.4,2.4,4,2.5,8.4c0.1,4.2,0.8,9.6,1.5,11.9c0.9,2.9,0.7,3.5-0.4,1.9c-1.3-1.7-2.7-1.9-5.3-0.5
		C516.2,678.4,515.3,677.9,512.8,673.2z M518.7,661.7c0-1.8-0.8-3.7-1.8-4.3c-1.1-0.6-1.8,1.2-1.8,4.3c0,3.1,0.8,4.9,1.8,4.3
		C517.8,665.4,518.7,663.5,518.7,661.7z M511.4,643.9c-1.1-1-2-3.6-2-5.7c0-2.1-0.8-4.3-1.8-4.9c-1.1-0.6-1.8,1.7-1.8,5.9
		c0,3.8,0.8,7,1.7,7c0.9,0,2.4,2.5,3.2,5.6l1.5,5.6l0.6-5.8C513.1,648.4,512.5,644.9,511.4,643.9L511.4,643.9z M660.4,665.2
		c-3.6-8.9-5.3-15.8-5.3-21.9c0-4.1-1.1-7.9-2.8-9.1c-1.5-1.2-2.8-4-2.8-6.3c0-2.3-1-5.6-2.2-7.5c-1.2-1.8-1.6-4-0.8-4.7
		c1.9-1.7,6.6,4.2,7.8,9.8c0.5,2.4,1.7,5.7,2.7,7.3c1,1.6,1.7,6.3,1.7,10.4c0,4.1,0.9,8.3,2,9.3c1.1,1,1.7,4.9,1.3,8.5
		C661.7,664.7,660.9,666.6,660.4,665.2L660.4,665.2z M536.4,659.8c-2.4-11.1-0.8-23.3,2.7-21.2c2.1,1.2,2.2,26.6,0,26.6
		C538.3,665.2,537,662.7,536.4,659.8L536.4,659.8z M822.7,654.2c-2.8-5.8-1.1-9.7,3.9-8.5c3.1,0.8,3.8,2.1,3.3,6.2
		C829.2,658.6,825.4,659.8,822.7,654.2L822.7,654.2z M720.4,641.8c-0.7-2.4-0.7-7.7-0.1-11.8c1.3-8.6-1.1-19.7-3-13.9
		c-0.6,1.9-1.7,7.1-2.3,11.6c-0.7,4.5-2.3,9.5-3.7,11.2c-2.3,2.9-2.6,2.7-4.8-2.1c-2.9-6.3-4.6-50.8-1.9-50.8c1,0,2.3-3.7,2.8-8.2
		c1.8-15.4,4-23.4,6.5-24.2c2.8-0.9,2.2,8-1.5,25.5c-4.5,20.7-6,34.2-4.7,40.6l1.4,6.7l2.6-10.3c1.4-5.7,3-13.1,3.6-16.4
		c0.5-3.3,1.6-7.6,2.5-9.5s2-4.8,2.6-6.5c0.6-1.7,2-3,3.1-3c1.4,0,1.9,3.8,1.5,11.6c-0.8,17.8,0,29.7,2,29.7c1,0,1.8-1.1,1.8-2.5
		c0-3.5,5.9-14.7,7.7-14.7c0.8,0,1.5-1.6,1.5-3.4c0-1.9,0.8-3.4,1.8-3.4s1.8,1.5,1.8,3.3c0,1.8-0.8,3.8-1.8,4.4
		c-1,0.6-1.8,2.5-1.8,4.3c0,1.8-1.9,6.6-4.2,10.7c-2.3,4.1-4.5,10.9-4.8,15.2c-0.3,4.3-1,8.3-1.4,9
		C725.8,647.8,721.5,645.9,720.4,641.8L720.4,641.8z M820.5,632.4c0.6-7.1,1.8-13.7,2.7-14.6c0.9-0.9,1.6-3.3,1.6-5.3
		c0-2,1.2-5.1,2.7-7c1.5-1.8,2.7-5.4,2.8-8c0-2.6,0.9-5.1,1.9-5.7c1-0.6,1.9-3.2,1.9-5.7c0-2.6,1.6-8.9,3.6-14.1
		c2.7-7.4,3.8-8.8,4.8-6.2c0.7,1.8,0.4,5.7-0.8,8.7c-1.2,3-2.1,7.8-2.1,10.6c0,2.8-0.7,5.9-1.5,6.8c-0.8,0.9-3,6.3-4.8,12
		c-1.8,5.7-4,11.5-4.8,13c-0.8,1.5-2,6.5-2.7,11.2c-0.7,4.7-2.4,10.5-3.8,12.9C819.7,644.9,819.5,644,820.5,632.4L820.5,632.4z
		 M830.3,637.7c0-3.7,0.7-8.6,1.6-10.8c0.9-2.2,3.1-8.2,4.9-13.4c1.8-5.2,4-10.2,4.8-11.1c0.9-0.9,1.6-3.4,1.6-5.5
		c0-2.1,0.6-4.2,1.4-4.7c0.8-0.4,3-6.2,4.9-12.8c3.3-11.3,7.4-19.1,9.1-17.5c0.8,0.8-2.7,33-3.7,34.1c-0.3,0.4-1.8-0.3-3.4-1.5
		c-2.4-1.9-2.8-1.4-2.8,3c0,2.8-1.2,6.1-2.8,7.3c-1.5,1.2-2.8,3.6-2.8,5.4c0,1.8-0.8,3.2-1.8,3.2s-1.8,2.7-1.8,5.9
		c0,3.3-0.8,6.4-1.8,7c-1,0.6-1.8,3.7-1.8,6.9c0,3.2-0.5,7-1.1,8.5C832.6,646.8,830.3,644.6,830.3,637.7L830.3,637.7z M333.8,620.8
		c-0.9-13.5-2.2-19.1-7-30.6c-0.8-1.9-1.8-5.8-2.3-8.6s-1.9-10.6-3.1-17.2c-2.3-12.4-1-38.8,1.9-38.8c1.8,0,3.5,12.4,3.5,26
		c0,5.3,0.9,11.7,2,14.3c1.1,2.6,1.9,7.1,1.9,10.1c0,5.2,1.5,10.7,6.7,24.2c3.8,9.9,3,35.7-1.1,35.7
		C335.4,635.9,334.3,629.1,333.8,620.8z M790.7,634.2c-0.6-0.9-1.4-5.4-1.7-9.9c-0.3-4.5-0.2-6.1,0.2-3.5c1.3,7.8,5.5,5.6,6.8-3.4
		c2.9-20.3,4-25.4,5.8-25.4c1,0,2.1,3.1,2.4,6.9c0.3,3.8,1.4,7.6,2.3,8.5c2.2,2.1,2.3,12.5,0.1,13.8c-0.9,0.5-2.2-1.9-2.9-5.3
		c-0.9-4.6-1.8-5.7-3.3-4.3c-1.6,1.4-1.5,3.4,0.1,7.7c3.2,8.2,2.9,10.2-1.5,8.9c-2.9-0.8-3.7-0.3-3.7,2.4
		C795.2,634.4,792.4,636.8,790.7,634.2L790.7,634.2z M808.9,633.6c-0.7-1.7-0.3-4,0.8-5c1.1-1.1,2.1-4.7,2.1-8.1
		c0-3.4,1.3-7.6,2.8-9.5c1.5-1.8,2.7-5.5,2.7-8.2c0-6.3,4.1-18.6,6.2-18.6c0.9,0,1,2.5,0.4,5.6c-0.7,3.1-1.7,9.1-2.2,13.4
		c-0.5,4.3-1.7,8.5-2.6,9.4c-0.9,0.9-1.7,3.3-1.7,5.4c0,2.1-1.6,7.1-3.6,11.3C810.9,635.2,810,636.1,808.9,633.6L808.9,633.6z
		 M619.3,628c-1.3-3.1,0-5.9,2.7-5.9c1,0,1.7,1.9,1.7,4.3C623.8,631.2,621.1,632.2,619.3,628L619.3,628z M609.6,617.8
		c-4.2-2.7-5.3-6.8-8.2-30.2c-3.1-24.8-4-48.2-1.8-48.2c1.3,0,2,5.9,2,16.3c0,9,0.8,16.7,1.8,17.3c1,0.6,1.9,3.9,1.9,7.4
		c0,3.5,0.6,9.4,1.2,13.2c1,5.5,1.5,6.2,2.6,3.4c0.8-1.9,1.5-5.9,1.5-9c0.1-3.1,0.9-5.6,1.9-5.6c2,0,3.1,3.8,4.5,15.5
		c0.5,4.3,1.5,11,2.1,15.1c1,6.4,0.7,7.3-2.3,7.3C615.1,620.4,611.8,619.2,609.6,617.8z M483.6,613.5c0-1.9,0.8-3.4,1.8-3.4
		s1.8,1.6,1.8,3.4s-0.8,3.4-1.8,3.4S483.6,615.4,483.6,613.5z M675.5,607.7c-2.6-8.6,0-35.9,3.5-37c1.2-0.4,2-6.8,2-17.1
		c0-12.9-0.6-16.9-2.9-18.4c-1.7-1.2-2.4-3.1-1.6-4.9c1.8-4.3,3.2-3.6,6.8,3.2c4.1,7.8,4.4,28.8,0.4,35.9c-2,3.6-2.8,10.7-2.9,25.4
		c0,11.2-0.8,20.4-1.6,20.4C678.4,615.2,676.7,611.8,675.5,607.7z M695.2,609.5c-1.9-4.4-1.7-28.3,0.3-34.6c6.4-20,7.2-29,4.6-47.9
		c-1.3-9.1-3.7-10.1-15.4-6.2c-7.4,2.4-13.9-0.4-17.8-7.5c-1.5-2.6-3.9-4.8-5.4-4.8c-4.1,0-3.5-9.1,0.8-11.5
		c4.5-2.6,5.7-1.3,5.7,5.8c0,3.2,0.8,5.7,1.8,5.7c1,0,1.8-1.2,1.8-2.6c0-1.4,1.2-2.6,2.8-2.6c1.9,0,2.8,1.8,2.8,6
		c0,7.8,2.1,7.6,6.7-0.4c4.5-8,8.1-8.8,14.6-3.1c4.5,3.9,5.5,4.1,8,2c2.6-2.2,3.5-2,7.3,0.8c5.2,3.9,12.9,4.3,14.3,0.7
		c0.6-1.4,2.5-2.6,4.2-2.6c4.2,0,18.5-12.5,18.5-16.1c0-1.6,0.8-2.8,1.8-2.8c2.5,0,2.3-5.8-0.5-11.5c-4.6-9.5-12.6-13.9-15-8.3
		c-0.6,1.5-3.4,2.6-6.5,2.6c-3.6,0-7.4,1.8-11.2,5.3c-4.8,4.4-7.3,5.4-15,5.6c-5.1,0.2-9.7-0.3-10.2-1c-1.6-2.4-6.2-1.4-6.2,1.3
		c0,1.4-0.8,2.6-1.8,2.6s-1.8-0.7-1.8-1.6c0-0.9,0.8-2.1,1.8-2.7c2.8-1.6,2.2-4.3-0.8-4.3c-1.5,0-3.4-1.2-4.3-2.8
		c-1.3-2.2-4.1-2.6-13-2.2c-8.2,0.4-11.4,0-11.4-1.6c0-1.2-1.2-2.2-2.6-2.2c-1.4,0-3.9-0.5-5.5-1c-1.9-0.7-2.9-0.1-2.9,1.6
		c0,1.5-1.1,3.3-2.5,4.1c-1.4,0.8-4.8,4.7-7.6,8.7c-5.7,8.2-6.5,8.7-6.5,4.2c0-2.8,4.8-9.2,13.4-17.8c3.3-3.3,4.1-7.8,2.2-12.4
		c-1.1-2.8-1.9-2.2-25.2,19c-6.8,6.2-12.4,10.4-12.4,9.4c0-2.6,4.4-7.5,17.1-18.9c7.5-6.8,10-10.1,8.6-11.4
		c-1.4-1.3-2.5-0.9-3.8,1.2c-1,1.7-3.1,3-4.8,3c-1.6,0-4,1.4-5.3,3c-1.8,2.3-2.9,2.5-4.6,1c-2.6-2.4-0.8-5.7,3-5.7
		c1.5,0,2.7-0.7,2.7-1.5c0-0.8,2.1-2,4.6-2.6c4.7-1.1,5.7-3.6,3.1-7.5c-1.6-2.3-7.7-1.1-7.7,1.5c0,0.8-2.1,1.5-4.6,1.5
		c-2.9,0-4.6,1-4.6,2.6c0,1.4-1.2,2.6-2.8,2.6s-2.8-1.2-2.8-2.6c0-1.4,1.2-2.6,2.8-2.6s2.8-0.7,2.8-1.4s3.3-2.9,7.4-4.7
		c7-3.1,7.3-3.6,6.2-9.3c-0.6-3.3-1.8-6.7-2.6-7.5c-0.8-0.8-0.6-3.4,0.6-5.7c1.5-3.1,1.5-5.6-0.1-9.8c-1.2-3.1-2.2-6.8-2.2-8.3
		s-1.1-3.6-2.6-4.7c-1.8-1.4-2.6-6.8-2.7-19.3c-0.1-9.5-0.6-17.9-1.1-18.7c-0.5-0.8,0.3-2.4,1.8-3.5c2.1-1.6,2.3-2.7,0.6-4.5
		c-2.2-2.5-1.7-3.3,9.6-14.7c6.4-6.5,8.4-4,2.5,3.2c-2.6,3.2-3.8,5.8-2.8,5.8c1.1,0,1.9,1.2,1.9,2.6c0,3.1-3.1,3.4-4.2,0.4
		c-0.5-1.3-1.5-1.5-2.5-0.6c-1,0.9-0.7,1.8,0.7,2.3c2.7,0.9,3.1,5.7,0.5,5.7c-3.4,0-1.9,3.8,1.8,4.7c4.4,1.1,4.8,6.7,0.9,11.6
		c-3.6,4.4-3.4,7.8,0.4,10.5c2.7,1.8,2.8,2.8,0.9,6.7c-2.7,5.5-2.9,15.9-0.4,17.3c1.1,0.6,1.9-1.6,1.9-5.5c0-7.9,2.5-12.7,4.3-8.3
		c0.6,1.6,1.2,4.6,1.2,6.7s1,4.7,2.2,5.9c1.7,1.6,1.6,4.1-0.2,10.9c-1.8,6.6-1.9,9.1-0.3,10.1c1.2,0.7,1.6,2.5,1,4.1
		c-0.8,1.9,0,3.2,2.2,3.9c1.9,0.6,4.9,1.7,6.6,2.6c4.1,2,5.1,2,5.1-0.1c0-0.9-1.2-1.7-2.8-1.7c-5.1,0-2.8-3.2,3.7-5.2
		c7.8-2.4,10.8-1,9.4,4.3c-0.7,2.6-0.1,4.3,1.7,4.9c4.2,1.5,3.3,4.4-1.9,6.3c-6.4,2.3-6.1,7.2,0.4,6.5c3.8-0.4,5.2,0.3,5.6,2.9
		c0.5,2.8,0.3,3-1.3,0.9c-2.9-3.9-10.2,3.4-8.5,8.4c1.1,3.3,2.4,3.6,12.6,3.1c7.7-0.4,13.6-1.9,18.3-4.5
		c11.3-6.4,10.1-8.9-14.9-29.9c-12.8-10.7-9.2-16.8,6.4-10.7c9.1,3.5,40.9,3.6,45.9,0.1c4.1-2.9,6.3-3.2,9.7-1.1
		c5.4,3.2-10.8,19-19.7,19.2c-4.3,0.1-9.5,4.1-12.6,9.7c-2.1,3.9-2.2,5.5-0.4,8.7c1.2,2.2,3.7,3.9,5.4,3.9s4.2,1.2,5.5,2.6
		c1.7,1.9,5.3,2.5,13.2,2.2c9.6-0.4,11-0.9,11.9-4.3c0.6-2.1,2.2-4.8,3.7-5.9c1.5-1.1,2.1-3.4,1.5-5.2c-1.7-5.1,6-4,11.1,1.5
		c2.4,2.6,4.9,4.2,5.6,3.6c1.9-1.8-2.5-8.3-5.6-8.3c-3.7,0-3.4-3.3,0.3-4.6c1.8-0.6,3.9,0.1,5.3,1.8c3.4,4.3,5,3.4,3.7-2.1
		c-0.8-3.4-0.2-5.8,1.7-7.6c1.6-1.5,2.9-3.8,2.9-5.1c0-3.8,10.8-15.7,15.2-16.8c2.1-0.5,4.7-2.4,5.8-4.3c1.1-1.9,3.1-4,4.3-4.8
		c1.3-0.8,2.3-4.8,2.3-9c0-4.6,1-8.1,2.5-9c2.8-1.5,2-12.6-0.9-12.6c-0.9,0-1.6-1.2-1.6-2.6c0-3.1,2.1-3.3,5.1-0.5
		c3.4,3.2,4.3,0.8,2-5.3c-1.5-4.1-1.5-6.1,0-7.5c2.9-2.7,2.6-8.1-0.7-13.9c-1.5-2.7-2.8-7.9-2.8-11.5c0-3.6-0.9-6.8-2-7.2
		c-1.1-0.3-1.7-2.5-1.4-4.8c0.6-3.6,1.4-3,6.9,5.2l6.3,9.4l-0.3,24c-0.2,16.2-1.1,24.8-2.6,26.5c-1.3,1.4-2,4.1-1.7,6
		c0.3,1.9-0.6,5.8-2.2,8.8c-1.5,3-3.7,8.7-4.8,12.7c-2,7.2-2.2,7.3-10.3,7.3c-7.2,0-8.2,0.5-8.2,3.7c0,2-1.2,4.5-2.7,5.6
		s-3.2,4.3-3.9,7.3c-0.9,4.5-0.5,5.5,2.7,6.3c5.6,1.4,4.9,5.3-0.8,4.3c-7-1.2-7.2,1.4-0.6,7.3c3.2,2.9,5.2,5.8,4.4,6.5
		c-0.8,0.7-1.8,0.3-2.3-0.9c-0.5-1.2-2.5-2.2-4.5-2.2c-2.6,0-3.4,0.9-2.7,3c3.4,10.5,3.2,12.1-2.4,20.3c-3.1,4.6-5.7,9.1-5.7,10
		c0,0.9-1.9,4.1-4.2,7c-2.3,2.9-5.3,7.4-6.7,9.9c-1.4,2.5-4.5,5.1-6.9,5.6c-2.4,0.6-4.4,1.8-4.4,2.7s-2.9,1.7-6.5,1.7
		c-4.5,0-6.5,0.8-6.5,2.6c0,3-2.9,3.5-4.7,0.8c-0.8-1.2-2-1.2-3.7,0.1c-3,2.3-6.4,0.8-6.4-2.8c0-2.1-0.6-2.1-3.7-0.3
		c-4.3,2.5-4.7,7.7-0.9,12.4c1.5,1.8,2.7,5.1,2.7,7.2c0,2.1,0.7,4.3,1.7,4.8c1.8,1.1-2.5,16.2-5.4,18.9c-1,0.9-1.8,4.9-1.8,8.8
		c0,3.9-0.6,7.7-1.4,8.4c-0.8,0.7-2.2,8.8-3.2,17.9C697.3,606.4,696.1,611.4,695.2,609.5L695.2,609.5z M697.1,471.8
		c-1.2-3.3-6.9-3.7-6.9-0.6c0,1.6,1.6,2.7,3.8,2.7C696.2,473.9,697.5,473,697.1,471.8z M716,472.6c0-0.7-1.7-2.3-3.8-3.5
		c-3.1-1.8-4.2-1.8-6.5,0.3c-4,3.7-3.4,4.5,3.8,4.5C713.1,473.9,716,473.3,716,472.6z M763.6,470c0.7-3.4-6.8-13.1-10.3-13.2
		c-3.4-0.1-2.8,10.3,0.8,14C757.8,474.6,762.7,474.2,763.6,470L763.6,470z M699.7,462.4c-1.3-0.5-2.9-0.4-3.5,0.1s0.5,1,2.4,0.9
		C700.7,463.4,701.2,462.9,699.7,462.4L699.7,462.4z M642.2,439.5c0-0.9-0.8-1.7-1.8-1.7c-1,0-1.8,0.8-1.8,1.7
		c0,0.9,0.8,1.7,1.8,1.7S642.2,440.4,642.2,439.5z M590.7,604.1c-0.1-1.8,0.4-2.8,1-2.3c0.6,0.6,0.7,2.1,0.1,3.3
		C591.2,606.6,590.8,606.1,590.7,604.1L590.7,604.1z M809.4,603.7c-1.9-1.8-1.4-10.6,0.6-11.8c1.1-0.6,1.8,1.7,1.8,5.9
		C811.8,605,811.5,605.7,809.4,603.7z M570.3,594.1c-1.2-3.1-2.6-16.5-3.2-29.7c-0.6-13.3-1.7-25.3-2.5-26.8
		c-1.8-3.2,2.1-15.7,4.7-14.9c1.1,0.3,1.9,9.6,1.9,23.2c0,15.8,0.7,23.2,2.3,24.8c2.7,2.5,3.2,26.6,0.6,28.1
		C573.2,599.3,571.5,597.2,570.3,594.1L570.3,594.1z M860.7,592.8c-0.6-1.9-0.2-6.2,1-9.6c2.6-7.4,3.8-31.5,1.5-32.7
		c-0.9-0.5-1.6-4.8-1.6-9.5c0-5.3,0.7-8.2,1.8-7.6c1,0.6,1.8,4.1,1.8,7.8c0,7.8,2.6,10.2,5.5,5.2c1.4-2.4,1.4-4.5,0.1-6.8
		c-2.7-4.8-2.5-14.4,0.4-13.5c1.3,0.4,2.6,2.8,2.9,5.3c1.2,9.4,4,4.2,4-7.5c0-6.9,0.8-12.1,1.8-12.1c1,0,1.8-1.4,1.8-3
		c-0.1-2.9-0.2-2.9-2.5,0c-1.3,1.7-3,3-3.6,3c-1.9,0-1.4-6.8,0.7-10.5c2.4-4.2,0.6-7.7-2.8-5.1c-1.8,1.4-2.6-0.2-3.5-7.2
		c-1.7-13-1.5-15.1,1.3-15.1c1.4,0,3.5,3.3,4.8,7.3c3.9,12.2,4.5,12.8,5.2,4.8c0.4-4.2-0.2-9.2-1.2-11.2c-1-2-2.3-5.5-2.8-7.9
		c-0.5-2.4-1.9-8-3.1-12.6c-2.1-8.4-1.5-13.3,1.7-13.3c1,0,2.3,1.6,3,3.5c1.6,4.6,5.2,2.4,3.9-2.4c-1.4-5.4,1.3-8.9,4.2-5.6
		c1.3,1.4,3.6,2.1,5.1,1.5c2.3-0.8,2.6-0.2,1.5,3.1c-0.7,2.3-2.5,5.4-3.9,6.9c-3,3.2-3.4,11.2-0.7,12.8c2.3,1.3,2.4,16.8,0.1,19
		c-3.1,3-2.7,21.9,0.6,28.9c2.9,6.1,2.6,13.2-0.5,13.2c-0.7,0-2.3-2.1-3.4-4.7c-1.6-3.8-2-0.3-2.2,17.8c-0.1,16-0.9,23.4-2.7,25.7
		c-3.4,4.3-8.1,2.3-9.1-3.7c-0.4-2.7-0.9,1.3-1.1,8.7c-0.3,12.6-4.9,30.4-8,30.4C862.5,596.2,861.3,594.7,860.7,592.8L860.7,592.8z
		 M585.2,582.9c0.1-6.2,0.5-7.3,1.7-4.7c2.2,4.8,2.2,12.9,0,12.9C585.9,591.1,585.1,587.4,585.2,582.9z M655.1,588.5
		c0-1.4,0.8-2.6,1.8-2.6s1.8,1.2,1.8,2.6s-0.8,2.6-1.8,2.6S655.1,589.9,655.1,588.5z M895.9,574.2c-2.2-6,0.7-39,3.2-36.6
		c2.3,2.2,2.3,23.7-0.1,33.7C897.5,577.4,897.2,577.7,895.9,574.2L895.9,574.2z M661,569.5c0-2.8,0.3-4.2,0.9-3s0.5,3.5,0.1,5.2
		C661.5,573.3,661,572.4,661,569.5L661,569.5z M453.5,569.2c-0.6-0.6-1.2-2.8-1.2-4.9c0-2.4-5.1-8.9-13.6-17.4
		c-24.4-24.2-34.3-38.7-34.3-50.1c0-2-0.8-4.2-1.8-4.8c-1-0.6-1.8-3.4-1.8-6.2c0-3,0.8-4.7,1.8-4.1c1,0.6,1.8,2.8,1.8,4.9
		c0,2.1,0.7,4.6,1.6,5.5s3,5.9,4.8,11.1c3.7,11,12.9,23,29.7,38.7c6.6,6.2,11.9,12.3,11.9,13.6c0,1.3,1.2,3.3,2.8,4.5
		c1.5,1.2,2.8,3.6,2.8,5.3C457.8,568.8,455.3,571,453.5,569.2L453.5,569.2z M555,560.7c-0.7-0.7-1.3-18.1-1.3-38.8
		c0-23.9-0.7-37.6-1.8-37.6c-1,0-1.8-1.2-1.8-2.6c0-1.4,0.8-2.6,1.8-2.6s1.8,1.1,1.8,2.4c0,1.3,1,2.8,2.3,3.2
		c1.7,0.5,2.2,7.5,1.9,28.1c-0.3,22.2,0.1,28.5,2.5,33.3c2.1,4.1,2.5,7.2,1.3,10.2C560.1,560.8,557.1,562.7,555,560.7z M577.8,555.9
		c-0.1-1.8,0.4-2.8,1-2.3c0.6,0.6,0.7,2.1,0.1,3.3C578.3,558.3,577.9,557.9,577.8,555.9L577.8,555.9z M853.5,555.6
		c-1.8-4.4-1.3-16.2,0.7-16.2c1,0,1.8,4.3,1.8,9.5C856.1,558.6,855.5,560.3,853.5,555.6z M689.7,540.7c-0.8-9.6-0.2-13.4,2.3-13.4
		c2.4,0,4,9.5,2.6,16.2C692.9,552.5,690.6,551.1,689.7,540.7z M904,540.5c0-3.3-1.1-6.7-2.5-7.5c-1.4-0.8-2.9-4.2-3.3-7.8
		c-0.6-4.8-0.2-6,1.4-4.7c3.8,3,4.7-1.1,4.5-21.6c-0.1-13.5,0.6-20.1,2.1-20.9c1.2-0.7,2.5-0.4,2.9,0.8c0.4,1.1,1.4,2,2.2,2
		c2,0,1.1-17-1.2-22.4c-3.6-8.3-4.3-15.3-1.6-16.7c2-1.1,2.2-4.8,0.9-18.9c-1.3-14.3-1.1-18.4,1.1-22.4c3.1-5.5,3.5-10.3,1.1-11.7
		c-2-1.1-3.8-9.1-2.4-10.4c1.9-1.8,9.5,15,9.5,21c0,3.4,0.9,9.1,2.1,12.7c2.5,7.7,0.9,15.7-2.8,14.4c-3.6-1.3-5.2,4-2.6,8.5
		c2.2,3.7,3.5,68.8,1.5,71.6c-0.5,0.7-2.4,1.8-4.1,2.4c-2.7,0.9-3.2,3.9-3.7,18.7c-0.4,12.2-1.2,17.8-2.8,18.3
		C904.8,546.3,904,544.6,904,540.5L904,540.5z M659.4,540.2c-0.6-1.5-0.2-4.4,0.9-6.5c1.8-3.4,2-3.1,2.1,2.7
		C662.5,543.1,661.3,544.7,659.4,540.2z M856.7,526.4c-0.6-1.5-0.6-3.1-0.1-3.6c1.6-1.5,5,1.1,5,3.8
		C861.6,529.9,858.1,529.7,856.7,526.4L856.7,526.4z M622.3,494.3c0.4-1.1,1.7-2.4,2.9-2.7c1.3-0.4,1.8,0.4,1.1,2
		C625,496.7,621.2,497.4,622.3,494.3z M651.5,492.1c-3.4-3.8-0.6-9.6,4.7-9.6c3.5,0,4.5,0.9,4.5,4c0,3.8-3,8.1-5.7,8.1
		C654.3,494.6,652.7,493.5,651.5,492.1L651.5,492.1z M703.1,486c0-0.9,0.8-1.7,1.8-1.7c1,0,1.8,0.8,1.8,1.7s-0.8,1.7-1.8,1.7
		S703.1,486.9,703.1,486z M731.2,453.2c-1.7-1.9-4.5-3.4-6.2-3.4c-3.8,0-6.2-5.1-3.5-7.5c1.3-1.2,3.7,0,7.7,3.7
		c3.2,3,6.5,5.5,7.4,5.5c0.9,0,1.6,1.2,1.6,2.6C738.1,457.7,734.9,457.3,731.2,453.2L731.2,453.2z M808.2,448.9c0-3.3,0.8-6,1.8-6
		c1,0,1.8,2.7,1.8,6c0,3.3-0.8,6-1.8,6C809,455,808.2,452.2,808.2,448.9z M577.2,452.2c-1.9-1.8-1.7-12.3,0.3-13.5
		c0.9-0.5,2.1,0.6,2.6,2.5C581.2,445.5,579,453.9,577.2,452.2z M733.8,443.2c-4.8-4.9-3.9-7.6,2.2-6.4c3.6,0.7,6,0.2,7.6-1.6
		c2.6-3,12.1-3.6,13.9-0.9c0.6,0.9,0.4,1.7-0.5,1.7c-0.9,0-3.6,1.6-5.9,3.4s-5.4,3.4-6.7,3.4c-1.4,0-2.5,0.8-2.5,1.7
		C741.8,447.4,737,446.6,733.8,443.2L733.8,443.2z M813.7,429.6c0-8.2,0.6-11,1.8-9.1c2.4,3.4,2.4,18.5,0,19.8
		C814.4,441,813.7,437,813.7,429.6z M804.5,430c0-4.9,0.7-7.5,1.8-6.9c1,0.6,1.8,3.7,1.8,6.9c0,3.2-0.8,6.3-1.8,6.9
		C805.2,437.5,804.5,434.8,804.5,430z M557.7,427.4c0.3-11.9,3.4-12.8,3.4-0.9c0,5.3-0.8,9.6-1.8,9.6S557.5,432.1,557.7,427.4
		L557.7,427.4z M697.6,413.2c0.3-4.6,2.9-8.8,4.2-6.8c0.7,1.1,0.4,3.6-0.7,5.5C699,415.8,697.5,416.4,697.6,413.2z M808.2,410.2
		c0-4.1,2.8-4.6,4.4-0.7c1.6,3.9,1.5,4.2-1.6,4.2C809.4,413.6,808.2,412.1,808.2,410.2z M822.4,410.2c-2-6.8-1.5-34.5,0.5-34.5
		c2.6,0,2.3-8.2-0.3-9c-1.4-0.4-1.6-1.9-0.7-4c1.4-3.2,1.5-3.2,3.4,0.5c1.1,2.1,2.6,3.9,3.5,3.9c2.2,0,2,11.6-0.3,12.9
		c-1,0.6-1.9,6.6-2,13.5c-0.1,6.8-0.8,14.3-1.5,16.7l-1.3,4.3L822.4,410.2L822.4,410.2z M588.7,407.6c0-2.7,1-4.3,2.8-4.3
		c1.5,0,2.8-1.5,2.8-3.3c0-1.8,0.8-3.8,1.8-4.4c1-0.6,1.8-2.6,1.8-4.4c0-1.8,0.8-3.3,1.8-3.3s1.8,1.6,1.8,3.4s-0.7,3.4-1.5,3.4
		c-0.8,0-3,3.9-4.8,8.6C591.8,412.5,588.7,414.5,588.7,407.6L588.7,407.6z M572.1,405.3c0-5.2,3.8-14.1,6-14.1c0.8,0,1.4-1,1.4-2.2
		c0-3.2,20-22.8,21.6-21.2c0.8,0.8,0.3,1.7-0.9,2.1c-1.3,0.4-2.3,1.5-2.3,2.4c0,0.9-1,2.8-2.3,4.2c-1.3,1.4-3.2,3.5-4.2,4.7
		c-10.6,11.8-15.7,20.3-14.6,24.4c0.9,3.4,0.5,4.4-1.8,4.4C573.1,410.2,572.1,408.6,572.1,405.3L572.1,405.3z M663.3,404.6
		c0.7-2.1,1.7-9,2.3-15.3c0.9-10.4,1.7-12.1,8.1-18.1c5.1-4.8,7.1-8.1,7.1-12c0-2.9,1.6-6.6,3.4-8.2c3.2-2.7,3.6-2.7,6.5,0.3
		c3.4,3.5,4.1,7.2,1.3,7.2c-1,0-2.6-1.4-3.6-3c-1.5-2.4-1.9-1.5-1.9,4.3c0,4-0.7,7.3-1.6,7.3c-2.3,0-9,13.6-11.5,23.3
		c-3.1,12.2-6,18.1-8.9,18.1C662.8,408.4,662.4,407.3,663.3,404.6L663.3,404.6z M731.8,399.7c-3.1-5.9-4.3-32.6-1.5-32.6
		c0.8,0,2.9,2.8,4.7,6.2c2.7,5.3,2.8,7.1,0.9,12.1c-1.8,4.6-1.8,7.1-0.1,11.4C738.9,404.3,735.6,406.7,731.8,399.7L731.8,399.7z
		 M562.9,390.3c0-2.4,0.8-4.3,1.8-4.3c1,0,1.8,1.9,1.8,4.3s-0.8,4.3-1.8,4.3C563.7,394.7,562.9,392.7,562.9,390.3z M782.3,392.1
		c0-1.4,0.8-2.6,1.8-2.6s1.8,1.2,1.8,2.6c0,1.4-0.8,2.6-1.8,2.6S782.3,393.5,782.3,392.1z M553.7,388.7c0-0.4,0.8-1.2,1.8-1.8
		c1-0.6,1.8-0.2,1.8,0.8c0,1-0.8,1.8-1.8,1.8S553.7,389.1,553.7,388.7L553.7,388.7z M843.2,381.7c0-3.3-0.8-6-1.7-6
		c-0.9,0-2.2-1.7-2.9-3.9c-2.8-9.2-14-30.6-16.1-30.6c-0.8,0-1.5-1.1-1.5-2.5c0-1.4-1.7-3-3.7-3.6c-3.7-1.1-5.3-7.8-1.9-7.8
		c5.6,0,24.1,25.4,24.1,33.2c0,1.6,0.8,3,1.8,3s1.8,2.7,1.8,6s0.8,6,1.7,6c2.4,0,4.1,5.8,2.7,9.2C845.6,389.8,843.2,388,843.2,381.7
		L843.2,381.7z M603.6,383.6c-0.1-1.8,0.4-2.8,1-2.3c0.6,0.6,0.7,2.1,0.1,3.3C604.2,386,603.7,385.6,603.6,383.6L603.6,383.6z
		 M566.6,382.6c0-0.9,0.8-1.7,1.8-1.7s1.8,0.8,1.8,1.7c0,0.9-0.8,1.7-1.8,1.7S566.6,383.5,566.6,382.6z M571.1,377.2
		c-0.7-1.1,0-2.9,1.7-4.1c1.7-1.1,3-3,3-4s1.2-2,2.6-2c1.4,0,3-1,3.4-2.2c0.5-1.2,1.4-1.7,2-1.1c0.7,0.6-0.9,3.1-3.4,5.7
		c-2.5,2.6-4.6,5.4-4.6,6.2C575.8,378.3,572.5,379.3,571.1,377.2L571.1,377.2z M813.7,375.8c0-2,0.8-3.5,1.8-3.5
		c1,0,1.8,1.1,1.8,2.5c0,1.4-0.8,3-1.8,3.5C814.5,378.9,813.7,377.8,813.7,375.8L813.7,375.8z M641.5,373.1c-1.6-4-1.5-4.3,1.6-4.3
		c3.1,0,3.5,1.5,1.2,4.9C643,375.5,642.5,375.4,641.5,373.1L641.5,373.1z M752.8,367.9c-2.4-2.3-5.8-4.3-7.6-4.3
		c-8.1,0,0.1-17.5,10.7-22.7l6.9-3.5l7.8,3.5c11.1,5,12.2,9.8,3.7,17c-4.9,4.2-8.4,5.7-13.1,5.7c-7.1,0-8,1.1-3.4,4.3
		c1.8,1.2,2.3,2.5,1.2,3.2C757.9,371.7,755.1,370.2,752.8,367.9L752.8,367.9z M904.8,367.5c-0.6-2.6-1.8-6.3-2.7-8.2
		s-3-7.3-4.8-12.1c-1.8-4.7-3.9-9.4-4.8-10.3s-1.5-3.5-1.5-5.9s-2.1-6.8-4.6-9.9c-5.2-6.4-6-11-1.8-11c4,0,3.4-2-2.7-8.7
		c-6.4-7-7-10.3-2-10.3c2.2,0,3.8-1.4,4.3-3.9c0.7-3.7,0.8-3.7,2.3-0.5c1,2.2,0.8,3.6-0.6,4c-2.6,0.8-2.9,5.6-0.3,5.6
		c1,0,1.8-0.8,1.8-1.7s1.3-1.7,2.9-1.7c2,0,2.5,1,1.8,3.3c-0.6,1.8-0.3,3.8,0.8,4.4c1.1,0.6,1.9,3,1.9,5.2s1,6.1,2.2,8.5
		c1.8,3.8,1.6,4.8-1.4,6.9c-1.9,1.4-2.7,2.5-1.7,2.6c1,0,2.9,2.6,4.2,5.7c1.3,3.1,3.6,7.9,5.1,10.6c1.5,2.8,3.3,11.1,3.9,18.5
		C908.2,372,907,376.8,904.8,367.5L904.8,367.5z M720.5,366.9c-1.9-2.9,2.4-6.2,4.9-3.8c2.1,2,0.8,5.7-2.1,5.7
		C722.4,368.8,721.1,368,720.5,366.9L720.5,366.9z M660.1,366c-0.7-0.6-1.3-2.6-1.3-4.4c0-2.4-0.9-3-3.5-2.2
		c-2.9,0.9-3.4,0.3-2.7-2.9c0.4-2.2,0.3-3-0.3-1.8c-0.6,1.2-2.2,2.2-3.6,2.2c-2.7,0-2.7-8.5,0-14.4c0.9-2,0.6-3.7-0.8-4.5
		c-1.6-0.9-1.7-1.7-0.3-2.5c1.1-0.6,2-0.4,2,0.6c0,1,3.3,1.8,7.4,1.8s7.4,0.8,7.4,1.7s1.2,1.7,2.7,1.7c5.5,0,10.4,7.3,9.8,14.6
		c-0.5,6.5-0.9,6.9-7,7.5c-3.5,0.3-6.9,1.3-7.5,2.2C661.8,366.4,660.7,366.6,660.1,366L660.1,366z M589.1,360.1
		c0.4-1.2,1.9-2.6,3.2-3c1.4-0.4,2.1,0.2,1.6,1.5c-0.4,1.2-1.9,2.6-3.2,3C589.3,362,588.6,361.4,589.1,360.1z M727.7,352.3
		c-1.7-6.5,1.3-13.7,5.8-13.7c3.8,0,3.9,1,1.4,11.1C733,357.1,729.4,358.5,727.7,352.3z M598,352.3c0-0.9,1.7-3.5,3.6-5.9
		c2.6-3.1,3.6-3.6,3.6-1.6c0,1.5-1.6,4.2-3.6,5.9S598,353.1,598,352.3L598,352.3z M843.8,348.9c-0.6-1.5-0.6-3.1-0.1-3.6
		c1.6-1.5,5,1.1,5,3.8C848.7,352.4,845.2,352.3,843.8,348.9L843.8,348.9z M607.2,340.4c0-1.4,0.8-2.6,1.8-2.6c1,0,1.8,1.2,1.8,2.6
		c0,1.4-0.8,2.6-1.8,2.6C608,343,607.2,341.8,607.2,340.4z M840.4,341.2c-0.6-0.9-0.3-1.7,0.8-1.7c1.1,0,2,0.8,2,1.7
		s-0.4,1.7-0.8,1.7C841.9,343,841,342.2,840.4,341.2z M703.1,335.3c0-5.7,3.7-13,6.6-13c1.3,0,2.7-1.4,3.2-3
		c0.5-1.7,0.4,0.5-0.2,4.7C711.1,336,703.1,345.4,703.1,335.3L703.1,335.3z M779.1,338.3c-3.6-1.2-2.7-3.9,1.4-3.9
		c2,0,3.7,0.7,3.7,1.6C784.2,338.2,781.9,339.2,779.1,338.3z M826.1,327.2c-5.8-5.6-10.6-10.6-10.6-11c0-2.7,6.4,0,11.9,5.1
		c5.6,5.1,11.4,14.4,9.8,15.7C837,337.2,832,332.8,826.1,327.2L826.1,327.2z M673,333.2c-1.5-1.4,0.2-4.1,2.5-4.1
		c1,0,1.7,1.2,1.7,2.6C677.2,334.4,675.1,335.2,673,333.2z M739.3,333c-1.6-2.4,7.9-9.4,11.1-8.3c2.7,1,2.5,1.6-1.2,5.4
		C744.8,334.4,740.9,335.5,739.3,333L739.3,333z M763.9,332.6c-2.7-1.6-2.4-1.7,6-1.7c0.3,0,1.2,0.8,2,1.7
		C773.9,334.9,767.6,334.9,763.9,332.6L763.9,332.6z M654.6,322.5c-0.5-1.9,0-4.2,1.1-5.2c3.2-3,8.1-2.2,9.2,1.6
		c0.6,2,0.2,3-0.8,2.4c-1-0.6-3.3,0.2-5.1,1.8C655.8,325.7,655.5,325.6,654.6,322.5L654.6,322.5z M594.3,323.3
		c0-0.4,0.8-1.2,1.8-1.8c1-0.6,1.8-0.2,1.8,0.8c0,1-0.8,1.8-1.8,1.8C595.1,324,594.3,323.7,594.3,323.3z M618.2,320.5
		c2.5-1.9,6.9-3.9,9.6-4.5c2.8-0.6,6-2.1,7.1-3.4c1.2-1.3,2.9-2.4,3.8-2.4c3,0,17.7-12.7,25.5-21.9c4.8-5.7,11.1-7.5,11.1-3
		c0,1.4-1.1,2.6-2.4,2.6c-1.3,0-4.9,2.9-8.1,6.5c-7.5,8.5-15.5,15.9-17.2,15.9c-0.7,0-3.7,2-6.7,4.4c-2.9,2.4-7.7,4.8-10.5,5.4
		c-2.8,0.6-5.6,1.7-6.1,2.5c-0.5,0.8-3.2,1.5-6,1.5l-5,0L618.2,320.5L618.2,320.5z M760.2,319.7c0-3.4,0.9-4.3,4.6-4.3
		c5.4,0,6,2.9,1.4,6.2C761.5,324.9,760.2,324.5,760.2,319.7L760.2,319.7z M839.5,322.3c0-0.9,0.8-1.7,1.8-1.7s1.8,0.8,1.8,1.7
		s-0.8,1.7-1.8,1.7S839.5,323.2,839.5,322.3z M544.5,311.2c0-3.3,0.8-6.4,1.8-7c1-0.6,1.8-3.3,1.8-5.9c0-2.7,1.2-5.8,2.8-7
		s2.8-3.6,2.8-5.3c0-3,7.4-16.9,11.6-21.9c1.3-1.6,0.9-2.9-1.4-4.5c-3-2.1-3.1-2.7-0.5-7.3c1.5-2.8,3.9-7.2,5.2-9.8
		c1.3-2.7,5.3-7.9,8.7-11.7c3.8-4.1,5.8-7.9,5.2-9.5c-1.5-3.6,16.1-20.6,25.6-24.6c18.3-7.7,21.6-8.9,25.7-8.9
		c5.6,0,10.2,1.6,10.2,3.6c0,0.8-1,1.6-2.3,1.6c-1.3,0-5.6,1.6-9.7,3.4c-4.1,1.8-9.5,3.4-12.2,3.4c-6.5,0.1-15.6,4.5-20.1,9.9
		c-3.5,4.2-3.6,4.7-0.7,7.6c2.8,2.9,2.8,3.2-0.4,4.3c-1.9,0.7-7.8,5.1-13.1,9.9c-9.1,8.3-12,13-7.9,13c1,0,1.8-0.8,1.8-1.7
		s1.7-1.7,3.7-1.7c5.1,0,4.8,1-3.7,12.3c-4.1,5.4-7.4,10.3-7.4,11s-2.1,3.7-4.6,6.8c-2.5,3.1-4.6,6.9-4.6,8.5c0,1.6-0.8,2.9-1.8,2.9
		s-1.8,1.9-1.8,4.2c0,2.3,0.8,4.7,1.8,5.3c1,0.6,1.8,1.8,1.8,2.7c0,2.4-5.1,2-6-0.5c-0.5-1.2-1.5-1.5-2.4-0.8
		c-0.9,0.8-0.4,2.1,1.1,3c2.3,1.4,2.1,2.6-1.4,9c-2.3,4.1-4.2,8.3-4.1,9.5c0,1.2-1.2,2.2-2.8,2.2
		C545.3,317.1,544.5,315.3,544.5,311.2L544.5,311.2z M785.4,312.2c-2.9-3-4.2-8.9-2-8.9c1.9,0,9.7,9.5,8.9,10.8
		C790.8,316.2,788.6,315.6,785.4,312.2L785.4,312.2z M827.5,312.4c-3-1.5-5.9-3.2-6.5-3.9s-4-1.7-7.7-2.4c-3.7-0.6-7.3-2.4-7.9-3.9
		c-1.6-3.9-0.7-4.2,6.4-2c12.4,3.9,17.4,6.4,19.8,10.1C835,315.2,834.2,315.6,827.5,312.4L827.5,312.4z M597.9,308.5
		c0-1.8,3.4-2.3,10.7-1.8c2.3,0.2,7.4-1.2,11.2-3.1c4.6-2.3,7.9-2.9,9.6-1.9c2.2,1.3,2.2,1.8-0.2,3.3c-1.5,0.9-4.2,1.7-5.9,1.7
		c-1.7,0-3.6,0.8-4.3,1.7c-0.6,0.9-5.7,1.7-11.2,1.7S598,309.5,597.9,308.5L597.9,308.5z M706.7,303.3c0-1.9,0.8-3.4,1.8-3.4
		c1.1,0,1.8-5.4,1.8-12.8c0-7.1-0.8-13.3-1.8-13.9c-1-0.6-1.8-5.9-1.8-11.8c0-13.3-6.1-26.2-16.9-35.6c-4.9-4.2-6.7-6.9-5.3-7.7
		c3-1.7,21.6,17.1,23.1,23.3c0.7,2.8,1.9,5.5,2.9,6c0.9,0.5,1.7,6.8,1.7,13.9c0,12.5,0.1,12.8,3.8,11c2.6-1.3,3.4-2.8,2.6-4.8
		c-0.7-1.6-1.6-4-2.1-5.5c-1-3.2,8.6-17.2,11.8-17.2c3.1,0,3,4.6-0.1,6.4c-3,1.6-6.7,8-6.7,11.2c0,1.5,0.9,1.3,2.5-0.7
		c1.3-1.7,3.4-3,4.6-3c1.2,0,2.1-0.9,2.1-2c0-1.1,0.6-1.5,1.3-0.8c0.7,0.6-0.6,3.5-2.8,6.2c-2.2,2.8-4,6.1-4,7.4
		c0,1.3-0.7,3-1.6,3.9c-2.4,2.5-8.3,21.4-7,22.6c0.6,0.6,3.4-1.5,6.3-4.7c2.8-3.2,7.4-7.9,10.2-10.6c5.6-5.4,6.3-7.5,2.8-8.7
		c-1.3-0.4-1.6-1.4-0.8-2.2s2.2-0.4,3.1,0.9c1.3,2,3.4,1.5,11.5-2.3c7-3.3,12.1-4.6,17.2-4.2c10.2,0.8,9.1,3.9-1.6,4.5
		c-5.6,0.3-9.2,1.4-9.9,3c-0.6,1.4-2.4,2.5-4.1,2.5c-1.7,0-5.1,1.6-7.5,3.6c-3.7,2.9-4,3.8-1.9,5c2.2,1.2,2.2,1.9,0.3,3.7
		c-1.9,1.8-2.7,1.8-3.9-0.2c-2.3-3.4-13.1,7.2-12.5,12.2c0.5,4.3-6,8.2-13.9,8.2C708,306.8,706.7,306,706.7,303.3L706.7,303.3z
		 M733,299.5c0.4-1.2,2.4-2.4,4.3-2.8c1.9-0.3,4.2-1.7,5-3c0.8-1.3,2.6-2.4,3.9-2.4c1.3,0,6.3-1.9,11.1-4.3c12-6,23.5-5.8,36.2,0.6
		c5.4,2.7,10.2,5.8,10.6,6.9c0.9,2.6-5.6,2.6-8.4,0c-6.4-6-28.1-8.6-33-4c-1.5,1.4-4.3,2.6-6.1,2.6s-4.4,1.2-5.6,2.6
		c-1.3,1.4-3.9,2.6-5.8,2.6c-1.9,0-3.5,0.8-3.5,1.7s-2.1,1.7-4.8,1.7C734,301.6,732.5,300.8,733,299.5L733,299.5z M699.3,297.8
		c-0.1-2.8-6.4-10-8.8-10c-1,0-2.8-1.2-4.1-2.6c-1.3-1.4-3.9-2.6-5.8-2.6c-1.9,0-3.5-0.8-3.5-1.8c0-3.2,5.6-3.9,9-1
		c1.8,1.5,4.2,2.8,5.4,2.8c2.4,0,11.5,10.6,11.5,13.4C703.1,298.8,699.4,300.5,699.3,297.8L699.3,297.8z M593.3,294.7
		c-0.7-1,1.2-1.7,4.5-1.7c3.1,0,5.6,0.8,5.6,1.7c0,0.9-2,1.7-4.5,1.7C596.5,296.4,594,295.7,593.3,294.7z M611.7,293.8
		c2-1.4,5.1-2.5,7-2.5c3.8,0,5.9-1.4,16.8-11.3c4.2-3.8,10.7-8.3,14.5-10c3.8-1.6,7.3-3.7,7.9-4.7c1.9-2.9,21.7-2,26.8,1.3
		c6.9,4.5,9.2,6.9,9.2,9.9c0,3.5-1,3.4-5.4-0.3c-7.9-6.7-9.6-7.3-19.2-7.3c-7.2,0-10.3,0.7-11.1,2.6c-0.6,1.4-2.6,2.6-4.4,2.6
		c-1.8,0-8.3,4.3-14.3,9.5c-6.1,5.2-12.1,9.5-13.3,9.5c-1.3,0-2.3,0.8-2.3,1.7c0,0.9-3.5,1.7-7.8,1.7
		C608.6,296.3,608.3,296.2,611.7,293.8L611.7,293.8z M873.1,275.8c-4.3-4.6-7.8-9.2-7.8-10.2c0-3,5.5-2.2,10.6,1.6
		c6.7,4.9,8.8,4.3,4.8-1.5c-5.7-8.3-16-18.3-22.3-21.8c-5.7-3.1-8.1-7.7-4.1-7.7c6.4,0-8.5-15.5-20.7-21.5c-6.6-3.3-9-6.1-5.1-6.1
		c1,0,1.8-1.2,1.8-2.6c0-1.4-1.6-2.6-3.7-2.6c-2,0-3.7-1.1-3.7-2.4c0-1.6-3.1-2.6-9.3-3.2c-6.3-0.6-10.5-2-13-4.5
		c-3.2-3.2-5.7-3.7-18.3-3.7c-14.9,0-18.7-1.6-14.7-6.1c1.8-2,1.6-2.5-0.8-2.5c-1.6,0-3,0.7-3,1.5c0,0.8-2.1,2-4.6,2.6
		c-2.5,0.6-4.6,1.8-4.6,2.8c0,0.9-1.1,1.7-2.5,1.7c-1.4,0-3.6,1.2-4.8,2.6c-2.6,2.9-8.4,3.4-10.1,0.9c-0.6-0.9-0.2-3.3,0.9-5.3
		c1.9-3.4,1.7-3.5-4.3-2.5c-6.8,1.2-10.6-1.5-7-4.9c2.6-2.4,2.7-4.7,0.2-4.7c-1,0-1.8,1.2-1.8,2.6s-0.6,2.6-1.4,2.6
		s-2.2,1.7-3.2,3.9c-1,2.1-3.7,4.1-6,4.4c-2.7,0.4-4.1,1.7-4.1,3.9c0,1.8-1.2,3.3-2.6,3.3c-1.4,0-3.9,0.5-5.5,1
		c-1.8,0.7-3.4-0.1-4.2-2.2c-1.9-4.7-9.5-10.9-13.4-10.9c-1.9,0-3.9-1.2-4.5-2.6c-0.8-1.9,0.3-2.6,4.3-2.6c3,0,5.9,0.8,6.6,1.8
		c0.8,1.2,1.9,1.3,3.5,0c1.7-1.3,3.5-0.6,6.6,2.5c5.7,5.7,6.6,5.4,6.7-2.2c0.1-3.6,1-9.4,2.1-13.1c2.2-7.4,7.8-12.5,10.1-9.2
		c1.6,2.4-0.1,13.3-2.5,15.7c-0.9,0.9-1.6,2.3-1.6,3.2s3.5-1.6,7.8-5.5c4.3-3.9,8.8-7.1,10-7.1c3.6,0,4.5,2.9,2.2,7.6
		c-2.7,5.5-1,7.5,3.1,3.8c3.4-3.1,6.1-3.5,10-1.2c2.2,1.3,2.2,2,0.2,4.3c-1.5,1.7-1.6,2.7-0.5,2.7c1.1,0,2.5-0.8,3.1-1.7
		c0.6-0.9,3.1-1.7,5.4-1.7s5.3-1.2,6.6-2.6c2.3-2.6,13.7-3.5,19.2-1.5c1.6,0.6,2.9,2.1,2.9,3.4c0,1.3,1.6,2.4,3.6,2.4
		c2,0,4.1,0.8,4.7,1.7c0.6,0.9,4.3,1.7,8.3,1.7c5.9,0,8.4,1.2,14.4,6.9c4,3.8,8.5,6.9,10.1,6.9c1.6,0,3.9,1.2,5.1,2.6
		c1.3,1.4,3,2.6,3.8,2.6c3.4,0,13.1,10.1,12.6,13.1c-0.3,1.8,2.2,5.9,5.8,9.4c11.5,11.1,16.5,16.8,16.5,18.7c0,1,0.7,1.9,1.6,1.9
		c0.9,0,2.1,1.8,2.7,3.9c0.6,2.2,3.6,6.6,6.7,9.8s5.6,7.3,5.6,9c0,1.7,1.2,3.1,2.7,3.1c1.5,0,3.2,0.8,3.8,1.8c1.7,2.6-2.9,7.1-6.1,6
		c-1.5-0.5-3.6,0.1-4.8,1.5C881.3,283.7,879.6,282.7,873.1,275.8L873.1,275.8z M701,279.6c-1.5-1.7-3.9-5.3-5.4-8.2
		c-3-5.8-8.9-11.1-12.4-11.1c-1.3,0-2.8-1.2-3.4-2.6c-0.7-1.6-3.5-2.6-7.5-2.6c-3.5,0-8.8-1.3-11.7-2.9c-5.1-2.8-5.6-2.8-15.1,1.7
		c-10.4,4.9-14.4,5.7-14.4,2.9c0-0.9,0.9-1.7,2-1.7s4.7-1.9,8-4.3c3.3-2.4,8.9-4.8,12.3-5.4c3.5-0.6,8-2.1,10-3.3
		c4.9-2.9,21.2-2.6,22.5,0.4c0.5,1.3,2.3,2.3,4,2.4c4.1,0.1,10.2,7.9,7.4,9.5c-1.1,0.7-2.6,0.3-3.4-0.8c-3.2-4.8-14.1-8.4-22.8-7.5
		c-9.2,1-10.2,3.9-1.4,3.9c11.5,0,29.5,11,29.5,18c0,1.4,0.8,2.9,1.8,3.5c1,0.6,1.8,2.6,1.8,4.4c0,1.8,0.8,3.3,1.8,3.3
		c1,0,1.8,0.8,1.8,1.7C706.7,283.6,703.9,283,701,279.6L701,279.6z M746.4,280.9c-1.4-2.2,3.7-4.1,7.4-2.8c1.7,0.6,2.8,0,2.8-1.5
		c0-1.7,2-2.5,6.5-2.5c7.7,0,8.6,3,1.4,4.4c-2.8,0.5-6.5,1.7-8.3,2.6C751.9,283.1,747.8,283.1,746.4,280.9L746.4,280.9z M645.9,262
		c0-0.9,0.8-1.7,1.8-1.7s1.8,0.8,1.8,1.7s-0.8,1.7-1.8,1.7C646.7,263.7,645.9,262.9,645.9,262z M636.7,233.6c0-1.4,1.3-2.6,2.9-2.6
		s4.1-1.2,5.7-2.6c3.2-3,9.1-3.4,10.8-0.8c0.6,1-0.4,2.2-2.2,2.7c-1.8,0.5-5.7,2.1-8.6,3.4C638.7,236.8,636.7,236.8,636.7,233.6
		L636.7,233.6z M733.8,235c-1.6-1.5,4.3-9.2,7.1-9.2c4.8,0,4.5,3.2-0.8,6.7C737.3,234.5,734.4,235.6,733.8,235L733.8,235z
		 M669.4,232.1c-2.8-1-5.1-2.8-5.1-4c0-3.6,7-2.6,9.3,1.3C676.2,233.9,675.7,234.2,669.4,232.1z M721.5,221.6c0-2.2,4.5-9.6,5.8-9.6
		c2.3,0,1.9,5.9-0.7,8.3C724.5,222.3,721.5,223.1,721.5,221.6z M708.7,218.2c-0.1-1.8,0.4-2.8,1-2.3c0.6,0.6,0.7,2.1,0.1,3.3
		C709.3,220.6,708.8,220.2,708.7,218.2L708.7,218.2z M734.4,206.8c0-0.9,0.8-1.7,1.8-1.7c1,0,1.8,0.8,1.8,1.7c0,0.9-0.8,1.7-1.8,1.7
		C735.2,208.6,734.4,207.8,734.4,206.8z M646.6,188.9c-2-4.9,0.2-8.7,5.4-9.3c2.8-0.3,5.6-1.7,6.2-3c1.1-2.6,6.1-3.1,13.1-1.4
		c3.2,0.8,3.9,1.9,3,4.5c-0.7,2-0.2,4,1.1,4.8c1.3,0.7,1.7,2.1,1.1,3.1c-0.8,1.2-3.1,0.8-6.8-1.1c-5.5-2.8-5.7-2.8-8.5,1
		C657.9,191.9,648.2,192.8,646.6,188.9z"/>
</g>
</svg>
