<?xml version="1.0" encoding="utf-8"?>
<!-- Generator: Adobe Illustrator 22.1.0, SVG Export Plug-In . SVG Version: 6.00 Build 0)  -->
<svg version="1.1" id="Layer_1" xmlns="http://www.w3.org/2000/svg" xmlns:xlink="http://www.w3.org/1999/xlink" x="0px" y="0px"
	 viewBox="0 0 1280 1244" style="enable-background:new 0 0 1280 1244;" xml:space="preserve">
<style type="text/css">
	.st0{fill:none;stroke:#000000;stroke-width:3;stroke-miterlimit:10;}
</style>
<g transform="translate(0.000000,1244.000000) scale(0.100000,-0.100000)">
	<path class="st0" d="M8520,12390c-97-16-149-29-335-81c-38-11-92-26-120-33c-48-13-80-24-155-52c-19-7-71-23-115-35
		c-94-25-221-67-244-79c-9-5-56-28-106-51c-235-109-371-234-555-505c-121-180-238-400-415-779c-47-101-85-186-85-190
		c0-14-134-277-193-380c-80-138-231-367-356-538c-161-221-232-332-292-453c-32-66-59-126-59-133s-6-25-14-39c-31-59-97-305-140-527
		c-17-91-42-293-56-469c-13-157-62-418-96-509c-8-20-14-45-14-55c0-47-49-115-145-203c-414-377-806-658-1185-849
		c-208-105-293-143-595-267c-123-51-284-107-610-212c-343-111-627-248-841-406c-238-176-382-349-516-622c-33-68-64-123-69-123
		c-4,0-41,42-82,92c-160,198-378,395-547,494c-150,87-416,34-499-99c-69-112-71-285-3-397c95-157,280-358,437-477
		c171-129,285-195,398-233c79-27,76-17,37-155c-12-44-28-105-35-135c-33-142-57-250-66-300c-5-30-16-91-24-135
		c-39-217-70-513-86-830c-12-237-6-691,11-840c6-49,15-133,20-187c14-148,42-282,109-536c17-62,85-227,132-319
		c68-132,147-240,258-351c125-125,208-181,376-252c93-40,336-80,478-80c157,0,392,45,557,105l75,28l425-2c234,0,1065-8,1847-18
		c1320-15,1423-15,1446,0c38,25,114,128,137,186c41,106,17,217-63,286c-90,78-217,123-478,170c-150,27-403,37-719,29
		c-162-5-358-7-435-6c-239,5-504,55-666,126c-137,60-151,68-147,84c3,9,52,89,110,177c345,529,423,659,486,820
		c87,222,113,361,113,613c0,121-5,215-15,267c-8,44-18,104-21,133c-4,29-13,75-20,102c-16,61-8,73,60,93c28,9,84,25,125,38
		c88,26,297,94,331,108c13,5,67,26,119,47c287,112,543,252,765,418c180,133,358,299,519,481c110,124,304,365,376,467
		c31,44,61,77,69,75c16-2,15,0,72-217c52-196,63-238,88-330c63-235,68-255,104-405c8-33,19-78,25-100s45-179,87-350
		c41-170,82-335,90-365c7-30,21-84,29-120s34-141,56-235c23-93,50-208,61-255s26-110,34-140c7-30,21-84,29-120s31-130,50-210
		s46-194,61-255c14-60,32-138,40-172c47-197,77-337,105-503c67-393,109-553,200-758c50-112,78-146,137-167c76-27,219-29,996-11
		c397,9,813,17,925,19c226,2,223,1,214,71c-18,145-98,235-267,299c-119,46-289,81-470,97c-66,6-126,13-132,15c-7,2-81,9-165,15
		c-144,11-307,39-346,59c-9,6-39,20-65,32c-172,82-245,235-351,734c-63,295-139,893-161,1270c-4,55-13,182-21,283s-14,225-14,275v91
		l98,198c53,108,103,200,111,203s20,0,26-7c7-7,128-213,270-458s335-573,429-730s175-293,181-302c361-620,786-1289,1056-1665
		c197-276,393-493,456-509c16-4,291,0,613,10c322,9,660,16,751,16c117,0,170,4,181,12c24,18,51,134,44,183c-17,110-96,207-216,263
		c-159,74-203,83-435,89c-257,6-321-2-442-56c-107-48-116-47-183,25c-46,50-78,95-167,239c-48,77-63,105-178,315
		c-49,90-275,545-275,554c0,2-20,46-44,98s-65,143-91,203c-46,109-61,145-89,208c-8,17-27,61-41,97s-32,79-39,95c-7,17-30,72-50,123
		c-20,50-52,131-71,180c-19,48-35,91-35,96c0,4-6,22-14,39c-8,18-19,46-24,62c-6,17-29,82-52,145s-54,153-70,200s-33,97-38,110
		c-22,54-125,394-162,535c-63,238-68,260-111,460c-81,380-84,674-14,1070c8,44,17,100,21,125c3,25,12,72,19,105c8,33,24,105,35,160
		c12,55,28,120,35,145c12,43,40,152,70,270c99,391,140,881,100,1190c-19,146-39,236-83,380c-33,109-42,134-93,263
		c-109,274-311,619-549,942c-97,130-256,331-269,340c-6,3-11,15-11,26c0,23,17,24,137,9c140-18,377-88,560-166c17-8,36-14,43-14
		s26-6,43-14c18-8,55-22,83-30c28-9,59-22,68-29c10-7,32-56,50-108c40-119,43-120,178-44c173,97,326,222,427,349
		c119,149,280,411,403,653l52,103l-30,39c-16,21-50,65-77,97c-93,116-332,461-506,734c-255,399-332,511-391,571
		c-52,53-103,82-290,167c-140,63-281,151-426,264c-249,194-305,230-469,297C8909,12410,8710,12422,8520,12390z M7830,12016
		c0-7-26-33-57-57c-153-115-296-261-381-388c-49-75-134-242-159-316c-44-128-87-339-98-480c-23-283-61-485-130-700
		c-58-177-82-213-300-435c-238-243-334-362-458-562c-114-185-184-327-272-558c-36-94-94-312-141-525l-17-80l-146-142
		c-80-78-152-142-158-143c-18,0-16,15,13,126c14,55,32,126,39,159c8,33,24,103,35,155c12,52,26,115,31,140c5,24,16,69,24,100
		c7,30,23,96,35,145c11,50,27,108,34,130c8,22,24,76,36,120c29,108,92,293,129,385c17,41,31,78,31,82c0,8,76,172,121,260
		c107,214,256,394,454,549c55,43,115,91,134,106c57,46,80,113,87,244c22,452,110,770,295,1069c103,166,299,374,438,464
		c76,50,221,126,239,126c5,0,29,9,53,20C7793,12033,7830,12036,7830,12016z M8563,11886c118-23,181-57,272-150
		c83-85,142-181,181-296c10-30,22-61,27-67c13-18,224-17,307,1c36,8,99,28,140,45c228,94,510,49,764-121c77-52,224-199,260-261
		c41-69,34-77-72-77c-113,0-122-6-132-96c-17-140-66-233-160-301c-25-18-78-56-119-85c-104-74-116-93-116-181c1-59,6-82,29-127
		c64-123,185-294,302-425c73-82,110-113,121-101c6,5-28,121-63,221c-18,53-18,90,3,151c47,142,190,254,324,254c62,0,129-33,184-89
		c21-23,45-41,52-41s34,36,60,80c56,92,75,100,117,46c33-44,33-55-4-119c-59-103-92-127-170-127c-61,0-89,15-139,73
		c-28,33-91,67-123,67c-39-1-121-53-151-96c-63-90-53-172,46-397c36-82,64-154,61-161c-8-21-139-37-188-22c-70,21-156,83-256,185
		c-199,202-335,458-334,631c0,132,40,178,319,375c77,54,95,91,95,199c0,47,4,96,10,110c5,14,35,42,65,62c31,19,54,41,52,47
		c-5,16-60,54-172,121c-178,105-262,131-415,130c-110-1-142-8-335-75c-89-30-93-31-246-27c-188,4-201,10-225,96
		c-27,96-46,144-85,212c-92,161-212,224-429,224c-122,0-191-17-277-66c-274-158-508-541-589-963c-20-103-23-304-5-377
		c6-26,14-91,17-145c10-151,12-148-368-620c-203-253-411-527-474-623c-59-91-110-196-134-273c-17-56-29-72-104-145
		c-46-45-91-82-100-82c-21,0-21-1,9,78c14,37,35,92,46,122c24,63,45,118,69,175c10,22,30,72,45,110c42,109,121,261,178,343
		c71,103,182,218,370,385c192,170,266,251,308,336c41,83,46,133,23,262c-26,152-23,357,6,491c75,341,235,659,430,855
		c117,117,166,152,314,225C8254,11897,8444,11909,8563,11886z M8574,11629c80-22,160-135,221-314c15-44,34-89,41-100
		c22-31,17-43-33-80c-58-42-80-44-93-7c-6,15-15,36-20,47s-21,49-36,85c-40,99-71,156-105,195c-28,32-36,35-85,35
		c-58,0-134-31-166-66c-49-56-61-152-28-227c42-95,152-162,369-223c34-10,65-23,67-29c3-7-35-52-84-102c-106-108-175-198-210-273
		c-24-51-26-66-26-195s2-145,26-202c39-91,93-170,173-247c87-85,266-205,363-244c125-50,123-72-3-72c-84,0-85,0-90-27
		c-10-54-54-219-70-263c-31-87-89-194-125-230c-22-23-56-43-92-55c-53-18-57-18-83-1c-40,26-43,46-9,70c103,74,182,246,225,490
		c12,68,0,95-51,116c-38,16-41,13-70-70c-23-64-76-178-119-252c-29-52-51-91-95-170c-20-36-43-72-51-78c-18-15-54-7-84,18l-22,17
		l64,125c75,145,144,302,182,412c30,88,28,95-35,152c-33,30-44,35-56,25c-8-6-14-23-14-37c0-36-45-167-83-239
		c-50-95-280-442-297-447c-8-3-42-6-75-8c-49-2-60,0-63,14c-3,15,90,158,226,348c153,214,213,457,158,640c-47,156-26,330,58,490
		c25,47,100,151,125,174c12,11,21,24,21,31c0,15-146,105-169,105s-116-93-149-149c-56-95-64-149-72-496c-8-332-21-451-60-567
		c-22-65-69-155-108-207c-154-206-318-413-333-422c-11-6-39-16-62-24c-23-7-87-30-142-49c-108-38-125-42-125-26c0,6,66,81,148,168
		c392,419,483,544,553,763c22,70,23,90,24,369c1,270,3,301,23,369c27,93,79,188,151,274c90,109,86,101,58,139c-50,67-60,98-60,188
		c0,66,5,97,23,138c39,90,155,180,260,202C8434,11642,8531,11641,8574,11629z M9800,11178c-1-7-7-38-14-68c-15-66-21-68-127-45
		c-41,9-98,22-128,29c-30,6-56,17-58,23c-5,14,72,37,177,53c41,6,76,13,79,15C9739,11196,9800,11189,9800,11178z M10015,11054
		c38-64,54-99,47-106c-13-13-162,30-169,49c-8,21,38,153,53,153C9953,11150,9984,11107,10015,11054z M531,5206c26-8,62-22,80-31
		c47-24,195-144,319-260c234-218,343-299,448-334c77-26,281-29,417-6c92,16,185,35,505,106c52,11,124,27,160,35s94,21,130,29
		c95,23,310,45,435,45c108,0,366-23,384-34c5-3,37-12,72-20c137-31,242-78,384-172c331-219,568-586,673-1044c21-91,54-295,72-450
		c7-52,14-201,17-330c4-209,2-248-16-355c-35-197-80-333-176-526c-244-490-659-951-1137-1266c-70-45-129-83-132-83c-2,0-43-22-91-50
		c-48-27-88-50-91-50c-2,0-32-14-66-31c-35-16-92-41-128-55s-81-32-100-39c-143-56-307-86-510-92c-169-5-194-3-275,17
		c-175,43-381,171-528,329c-38,41-46,54-38,68c16,31,253,314,266,319c6,3,41-11,76-31c374-207,540-207,948,3
		c441,227,679,390,929,636c189,185,300,334,396,529c116,235,168,458,169,732c3,467-158,903-432,1176c-169,168-319,252-556,311
		c-66,17-113,20-265,20c-217,0-338-18-562-83c-141-40-161-45-288-74c-166-38-464-37-573,1c-22,8-47,14-57,14c-21,0-248,76-350,117
		c-344,139-681,367-795,539c-38,56-75,166-75,219c0,46,19,102,43,131C254,5213,433,5236,531,5206z"/>
	<path class="st0" d="M307,5102c-27-30-30-72-8-135c36-103,109-184,277-305c89-65,252-161,341-203c37-17,96-44,130-60s68-29,76-29
		c7,0,17-4,22-9c14-13,233-85,340-111c82-20,107-22,275-17c210,6,275,18,575,106c260,77,593,99,815,54c82-16,200-54,246-78
		c16-8,32-15,37-15c18,0,179-109,253-171c222-188,404-502,492-854c90-358,70-777-53-1078c-122-299-250-493-485-728
		c-167-168-405-349-644-491c-48-29-102-62-120-72c-49-30-313-163-401-203c-253-113-527-92-776,59c-25,15-53,28-61,28
		c-16,0-158-164-158-183c0-31,178-166,296-225c131-66,171-76,341-80c127-3,172,0,265,18c288,56,568,179,878,387
		c269,180,485,375,702,633c158,188,368,522,426,676c6,16,20,54,32,84c66,170,100,361,100,570c0,161-20,424-45,570
		c-8,47-16,103-20,125c-23,162-112,430-193,587c-158,302-415,538-702,643c-181,66-440,95-693,76c-89-7-189-18-222-26
		c-33-7-105-23-160-35c-200-44-281-62-340-75c-313-71-407-85-576-85c-198,0-254,17-414,128c-93,65-148,111-357,304
		c-216,198-249,217-414,233C333,5120,321,5118,307,5102z"/>
</g>
</svg>
