<?xml version="1.0" standalone="no"?>
<!DOCTYPE svg PUBLIC "-//W3C//DTD SVG 20010904//EN"
 "http://www.w3.org/TR/2001/REC-SVG-20010904/DTD/svg10.dtd">
<svg version="1.0" xmlns="http://www.w3.org/2000/svg"
 width="1280.000000pt" height="1244.000000pt" viewBox="0 0 1280.000000 1244.000000"
 preserveAspectRatio="xMidYMid meet">
<g transform="translate(0.000000,1244.000000) scale(0.100000,-0.100000)"
fill="#000000" stroke="none">
<path d="M8520 12390 c-97 -16 -149 -29 -335 -81 -38 -11 -92 -26 -120 -33
-48 -13 -80 -24 -155 -52 -19 -7 -71 -23 -115 -35 -94 -25 -221 -67 -244 -79
-9 -5 -56 -28 -106 -51 -235 -109 -371 -234 -555 -505 -121 -180 -238 -400
-415 -779 -47 -101 -85 -186 -85 -190 0 -14 -134 -277 -193 -380 -80 -138
-231 -367 -356 -538 -161 -221 -232 -332 -292 -453 -32 -66 -59 -126 -59 -133
0 -7 -6 -25 -14 -39 -31 -59 -97 -305 -140 -527 -17 -91 -42 -293 -56 -469
-13 -157 -62 -418 -96 -509 -8 -20 -14 -45 -14 -55 0 -47 -49 -115 -145 -203
-414 -377 -806 -658 -1185 -849 -208 -105 -293 -143 -595 -267 -123 -51 -284
-107 -610 -212 -343 -111 -627 -248 -841 -406 -238 -176 -382 -349 -516 -622
-33 -68 -64 -123 -69 -123 -4 0 -41 42 -82 92 -160 198 -378 395 -547 494
-150 87 -416 34 -499 -99 -69 -112 -71 -285 -3 -397 95 -157 280 -358 437
-477 171 -129 285 -195 398 -233 79 -27 76 -17 37 -155 -12 -44 -28 -105 -35
-135 -33 -142 -57 -250 -66 -300 -5 -30 -16 -91 -24 -135 -39 -217 -70 -513
-86 -830 -12 -237 -6 -691 11 -840 6 -49 15 -133 20 -187 14 -148 42 -282 109
-536 17 -62 85 -227 132 -319 68 -132 147 -240 258 -351 125 -125 208 -181
376 -252 93 -40 336 -80 478 -80 157 0 392 45 557 105 l75 28 425 -2 c234 0
1065 -8 1847 -18 1320 -15 1423 -15 1446 0 38 25 114 128 137 186 41 106 17
217 -63 286 -90 78 -217 123 -478 170 -150 27 -403 37 -719 29 -162 -5 -358
-7 -435 -6 -239 5 -504 55 -666 126 -137 60 -151 68 -147 84 3 9 52 89 110
177 345 529 423 659 486 820 87 222 113 361 113 613 0 121 -5 215 -15 267 -8
44 -18 104 -21 133 -4 29 -13 75 -20 102 -16 61 -8 73 60 93 28 9 84 25 125
38 88 26 297 94 331 108 13 5 67 26 119 47 287 112 543 252 765 418 180 133
358 299 519 481 110 124 304 365 376 467 31 44 61 77 69 75 16 -2 15 0 72
-217 52 -196 63 -238 88 -330 63 -235 68 -255 104 -405 8 -33 19 -78 25 -100
6 -22 45 -179 87 -350 41 -170 82 -335 90 -365 7 -30 21 -84 29 -120 8 -36 34
-141 56 -235 23 -93 50 -208 61 -255 11 -47 26 -110 34 -140 7 -30 21 -84 29
-120 8 -36 31 -130 50 -210 19 -80 46 -194 61 -255 14 -60 32 -138 40 -172 47
-197 77 -337 105 -503 67 -393 109 -553 200 -758 50 -112 78 -146 137 -167 76
-27 219 -29 996 -11 397 9 813 17 925 19 226 2 223 1 214 71 -18 145 -98 235
-267 299 -119 46 -289 81 -470 97 -66 6 -126 13 -132 15 -7 2 -81 9 -165 15
-144 11 -307 39 -346 59 -9 6 -39 20 -65 32 -172 82 -245 235 -351 734 -63
295 -139 893 -161 1270 -4 55 -13 182 -21 283 -8 101 -14 225 -14 275 l0 91
98 198 c53 108 103 200 111 203 8 3 20 0 26 -7 7 -7 128 -213 270 -458 142
-245 335 -573 429 -730 94 -157 175 -293 181 -302 361 -620 786 -1289 1056
-1665 197 -276 393 -493 456 -509 16 -4 291 0 613 10 322 9 660 16 751 16 117
0 170 4 181 12 24 18 51 134 44 183 -17 110 -96 207 -216 263 -159 74 -203 83
-435 89 -257 6 -321 -2 -442 -56 -107 -48 -116 -47 -183 25 -46 50 -78 95
-167 239 -48 77 -63 105 -178 315 -49 90 -275 545 -275 554 0 2 -20 46 -44 98
-24 52 -65 143 -91 203 -46 109 -61 145 -89 208 -8 17 -27 61 -41 97 -14 36
-32 79 -39 95 -7 17 -30 72 -50 123 -20 50 -52 131 -71 180 -19 48 -35 91 -35
96 0 4 -6 22 -14 39 -8 18 -19 46 -24 62 -6 17 -29 82 -52 145 -23 63 -54 153
-70 200 -16 47 -33 97 -38 110 -22 54 -125 394 -162 535 -63 238 -68 260 -111
460 -81 380 -84 674 -14 1070 8 44 17 100 21 125 3 25 12 72 19 105 8 33 24
105 35 160 12 55 28 120 35 145 12 43 40 152 70 270 99 391 140 881 100 1190
-19 146 -39 236 -83 380 -33 109 -42 134 -93 263 -109 274 -311 619 -549 942
-97 130 -256 331 -269 340 -6 3 -11 15 -11 26 0 23 17 24 137 9 140 -18 377
-88 560 -166 17 -8 36 -14 43 -14 7 0 26 -6 43 -14 18 -8 55 -22 83 -30 28 -9
59 -22 68 -29 10 -7 32 -56 50 -108 40 -119 43 -120 178 -44 173 97 326 222
427 349 119 149 280 411 403 653 l52 103 -30 39 c-16 21 -50 65 -77 97 -93
116 -332 461 -506 734 -255 399 -332 511 -391 571 -52 53 -103 82 -290 167
-140 63 -281 151 -426 264 -249 194 -305 230 -469 297 -126 51 -325 63 -515
31z m-690 -374 c0 -7 -26 -33 -57 -57 -153 -115 -296 -261 -381 -388 -49 -75
-134 -242 -159 -316 -44 -128 -87 -339 -98 -480 -23 -283 -61 -485 -130 -700
-58 -177 -82 -213 -300 -435 -238 -243 -334 -362 -458 -562 -114 -185 -184
-327 -272 -558 -36 -94 -94 -312 -141 -525 l-17 -80 -146 -142 c-80 -78 -152
-142 -158 -143 -18 0 -16 15 13 126 14 55 32 126 39 159 8 33 24 103 35 155
12 52 26 115 31 140 5 24 16 69 24 100 7 30 23 96 35 145 11 50 27 108 34 130
8 22 24 76 36 120 29 108 92 293 129 385 17 41 31 78 31 82 0 8 76 172 121
260 107 214 256 394 454 549 55 43 115 91 134 106 57 46 80 113 87 244 22 452
110 770 295 1069 103 166 299 374 438 464 76 50 221 126 239 126 5 0 29 9 53
20 52 23 89 26 89 6z m733 -130 c118 -23 181 -57 272 -150 83 -85 142 -181
181 -296 10 -30 22 -61 27 -67 13 -18 224 -17 307 1 36 8 99 28 140 45 228 94
510 49 764 -121 77 -52 224 -199 260 -261 41 -69 34 -77 -72 -77 -113 0 -122
-6 -132 -96 -17 -140 -66 -233 -160 -301 -25 -18 -78 -56 -119 -85 -104 -74
-116 -93 -116 -181 1 -59 6 -82 29 -127 64 -123 185 -294 302 -425 73 -82 110
-113 121 -101 6 5 -28 121 -63 221 -18 53 -18 90 3 151 47 142 190 254 324
254 62 0 129 -33 184 -89 21 -23 45 -41 52 -41 7 0 34 36 60 80 56 92 75 100
117 46 33 -44 33 -55 -4 -119 -59 -103 -92 -127 -170 -127 -61 0 -89 15 -139
73 -28 33 -91 67 -123 67 -39 -1 -121 -53 -151 -96 -63 -90 -53 -172 46 -397
36 -82 64 -154 61 -161 -8 -21 -139 -37 -188 -22 -70 21 -156 83 -256 185
-199 202 -335 458 -334 631 0 132 40 178 319 375 77 54 95 91 95 199 0 47 4
96 10 110 5 14 35 42 65 62 31 19 54 41 52 47 -5 16 -60 54 -172 121 -178 105
-262 131 -415 130 -110 -1 -142 -8 -335 -75 -89 -30 -93 -31 -246 -27 -188 4
-201 10 -225 96 -27 96 -46 144 -85 212 -92 161 -212 224 -429 224 -122 0
-191 -17 -277 -66 -274 -158 -508 -541 -589 -963 -20 -103 -23 -304 -5 -377 6
-26 14 -91 17 -145 10 -151 12 -148 -368 -620 -203 -253 -411 -527 -474 -623
-59 -91 -110 -196 -134 -273 -17 -56 -29 -72 -104 -145 -46 -45 -91 -82 -100
-82 -21 0 -21 -1 9 78 14 37 35 92 46 122 24 63 45 118 69 175 10 22 30 72 45
110 42 109 121 261 178 343 71 103 182 218 370 385 192 170 266 251 308 336
41 83 46 133 23 262 -26 152 -23 357 6 491 75 341 235 659 430 855 117 117
166 152 314 225 70 35 260 47 379 24z m11 -257 c80 -22 160 -135 221 -314 15
-44 34 -89 41 -100 22 -31 17 -43 -33 -80 -58 -42 -80 -44 -93 -7 -6 15 -15
36 -20 47 -5 11 -21 49 -36 85 -40 99 -71 156 -105 195 -28 32 -36 35 -85 35
-58 0 -134 -31 -166 -66 -49 -56 -61 -152 -28 -227 42 -95 152 -162 369 -223
34 -10 65 -23 67 -29 3 -7 -35 -52 -84 -102 -106 -108 -175 -198 -210 -273
-24 -51 -26 -66 -26 -195 0 -129 2 -145 26 -202 39 -91 93 -170 173 -247 87
-85 266 -205 363 -244 125 -50 123 -72 -3 -72 -84 0 -85 0 -90 -27 -10 -54
-54 -219 -70 -263 -31 -87 -89 -194 -125 -230 -22 -23 -56 -43 -92 -55 -53
-18 -57 -18 -83 -1 -40 26 -43 46 -9 70 103 74 182 246 225 490 12 68 0 95
-51 116 -38 16 -41 13 -70 -70 -23 -64 -76 -178 -119 -252 -29 -52 -51 -91
-95 -170 -20 -36 -43 -72 -51 -78 -18 -15 -54 -7 -84 18 l-22 17 64 125 c75
145 144 302 182 412 30 88 28 95 -35 152 -33 30 -44 35 -56 25 -8 -6 -14 -23
-14 -37 0 -36 -45 -167 -83 -239 -50 -95 -280 -442 -297 -447 -8 -3 -42 -6
-75 -8 -49 -2 -60 0 -63 14 -3 15 90 158 226 348 153 214 213 457 158 640 -47
156 -26 330 58 490 25 47 100 151 125 174 12 11 21 24 21 31 0 15 -146 105
-169 105 -23 0 -116 -93 -149 -149 -56 -95 -64 -149 -72 -496 -8 -332 -21
-451 -60 -567 -22 -65 -69 -155 -108 -207 -154 -206 -318 -413 -333 -422 -11
-6 -39 -16 -62 -24 -23 -7 -87 -30 -142 -49 -108 -38 -125 -42 -125 -26 0 6
66 81 148 168 392 419 483 544 553 763 22 70 23 90 24 369 1 270 3 301 23 369
27 93 79 188 151 274 90 109 86 101 58 139 -50 67 -60 98 -60 188 0 66 5 97
23 138 39 90 155 180 260 202 54 12 151 11 194 -1z m1226 -451 c-1 -7 -7 -38
-14 -68 -15 -66 -21 -68 -127 -45 -41 9 -98 22 -128 29 -30 6 -56 17 -58 23
-5 14 72 37 177 53 41 6 76 13 79 15 10 11 71 4 71 -7z m215 -124 c38 -64 54
-99 47 -106 -13 -13 -162 30 -169 49 -8 21 38 153 53 153 7 0 38 -43 69 -96z
m-9484 -5848 c26 -8 62 -22 80 -31 47 -24 195 -144 319 -260 234 -218 343
-299 448 -334 77 -26 281 -29 417 -6 92 16 185 35 505 106 52 11 124 27 160
35 36 8 94 21 130 29 95 23 310 45 435 45 108 0 366 -23 384 -34 5 -3 37 -12
72 -20 137 -31 242 -78 384 -172 331 -219 568 -586 673 -1044 21 -91 54 -295
72 -450 7 -52 14 -201 17 -330 4 -209 2 -248 -16 -355 -35 -197 -80 -333 -176
-526 -244 -490 -659 -951 -1137 -1266 -70 -45 -129 -83 -132 -83 -2 0 -43 -22
-91 -50 -48 -27 -88 -50 -91 -50 -2 0 -32 -14 -66 -31 -35 -16 -92 -41 -128
-55 -36 -14 -81 -32 -100 -39 -143 -56 -307 -86 -510 -92 -169 -5 -194 -3
-275 17 -175 43 -381 171 -528 329 -38 41 -46 54 -38 68 16 31 253 314 266
319 6 3 41 -11 76 -31 374 -207 540 -207 948 3 441 227 679 390 929 636 189
185 300 334 396 529 116 235 168 458 169 732 3 467 -158 903 -432 1176 -169
168 -319 252 -556 311 -66 17 -113 20 -265 20 -217 0 -338 -18 -562 -83 -141
-40 -161 -45 -288 -74 -166 -38 -464 -37 -573 1 -22 8 -47 14 -57 14 -21 0
-248 76 -350 117 -344 139 -681 367 -795 539 -38 56 -75 166 -75 219 0 46 19
102 43 131 41 47 220 70 318 40z"/>
<path d="M307 5102 c-27 -30 -30 -72 -8 -135 36 -103 109 -184 277 -305 89
-65 252 -161 341 -203 37 -17 96 -44 130 -60 34 -16 68 -29 76 -29 7 0 17 -4
22 -9 14 -13 233 -85 340 -111 82 -20 107 -22 275 -17 210 6 275 18 575 106
260 77 593 99 815 54 82 -16 200 -54 246 -78 16 -8 32 -15 37 -15 18 0 179
-109 253 -171 222 -188 404 -502 492 -854 90 -358 70 -777 -53 -1078 -122
-299 -250 -493 -485 -728 -167 -168 -405 -349 -644 -491 -48 -29 -102 -62
-120 -72 -49 -30 -313 -163 -401 -203 -253 -113 -527 -92 -776 59 -25 15 -53
28 -61 28 -16 0 -158 -164 -158 -183 0 -31 178 -166 296 -225 131 -66 171 -76
341 -80 127 -3 172 0 265 18 288 56 568 179 878 387 269 180 485 375 702 633
158 188 368 522 426 676 6 16 20 54 32 84 66 170 100 361 100 570 0 161 -20
424 -45 570 -8 47 -16 103 -20 125 -23 162 -112 430 -193 587 -158 302 -415
538 -702 643 -181 66 -440 95 -693 76 -89 -7 -189 -18 -222 -26 -33 -7 -105
-23 -160 -35 -200 -44 -281 -62 -340 -75 -313 -71 -407 -85 -576 -85 -198 0
-254 17 -414 128 -93 65 -148 111 -357 304 -216 198 -249 217 -414 233 -51 5
-63 3 -77 -13z"/>
</g>
</svg>
