<?xml version="1.0" encoding="utf-8"?>
<!-- Generator: Adobe Illustrator 22.1.0, SVG Export Plug-In . SVG Version: 6.00 Build 0)  -->
<svg version="1.1" id="Layer_1" xmlns="http://www.w3.org/2000/svg" xmlns:xlink="http://www.w3.org/1999/xlink" x="0px" y="0px"
	 viewBox="0 0 1139 804" style="enable-background:new 0 0 1139 804;" xml:space="preserve">
<style type="text/css">
	.st0{fill:none;stroke:#000000;stroke-width:2;stroke-miterlimit:10;}
</style>
<g>
	<path class="st0" d="M729,724l-1-5h2l2,5c1.3,4,2.3,6,3,6v2c-0.7,2-1,4-1,6v2h-2v-2l-1-4C730.3,730.7,729.7,727.3,729,724z"/>
	<path class="st0" d="M181,570h2v1c-0.7,0-1,16.3-1,49v48h-1l-1-1l-2-1h-7v-32l-1-33v-11l1-1v-1h3v-2h-1v-1h-1v-1h-1c0,0,0-2,0-6v-6
		h1v1l1-1l1-1v1h4c0,0,0-0.3,0-1C178.7,570.3,179.7,570,181,570z"/>
	<path class="st0" d="M747,769h2l1,1c0,0,0.7,0.3,2,1c1.3,0,2.7,1.7,4,5c1.3,2.7,2.7,4.3,4,5c2,0.7,3,1,3,1c-0.7,0-1.7,0.3-3,1l-3,1
		h1v1l1,1v1h-5c-0.7-0.7-1.3-1-2-1c0-0.7-1.3-3.3-4-8l-3-6v-2C745,769.3,745.7,769,747,769z"/>
	<path class="st0" d="M660,116v-1h429v1c0.7,1.3,2.3,2.7,5,4c2.7,2-69,3-215,3l-219,1v-1c0,0-0.3-1-1-3v-4
		C659.7,116,660,116,660,116z"/>
	<path class="st0" d="M806,711l-3-1h240c0,0-0.3,0.3-1,1l-1,1h-2v28c0,0-8,0.3-24,1l-24,1H857v-1h1v-1h3v-28h-27
		C816.7,712,807.3,711.7,806,711z"/>
	<path class="st0" d="M1133,498v54c-0.7,0-1-1-1-3c-0.7-2-2.7-5-6-9c-4-4-6-8-6-12l-2-6v6h-1v-12c-0.7-8-1.7-13.3-3-16
		c-1.3-3.3-3.7-6.7-7-10c-3.3-4-5.7-6-7-6h-1c-0.7,0-1-2.7-1-8c0-4.7-0.3-9.3-1-14l-1-7h-1v-1h-1v-2h-1v-1h-1v-1h-2l-1,1
		c-0.7,0.7-1.7,1.7-3,3s-3.3,2.7-6,4s-8.7,1.3-18,0s-20-2-32-2c-12.7,1.3-24.3,2-35,2s-18-1.3-22-4s-7-4.3-9-5c-2.7-0.7-4.3,0-5,2
		l-1,3c0,0-0.3,0.3-1,1v1h-2v-1l-1-1v-2h-1l-1-1l-1-1h-1c-0.7,0-2,1-4,3c-1.3,2-3.3,3.7-6,5s-9.3,1.3-20,0c-10-1.3-20.7-2-32-2
		c-11.3,1.3-22,2-32,2c-9.3,0-17-1.3-23-4l-9-6h-5v1h-1v1l-1,2l-1,1v13c-1.3,8.7-2,13.3-2,14c0,0,0.3,0,1,0v1l-7,4c-4,2-7,4.7-9,8
		c-2,2.7-3.7,5.7-5,9c-1.3,2.7-2,8-2,16v12c0,0.7-2,3-6,7l-6,6l-1,1l-1,1v1h-2v3h-1l1-53c0-35.3,1.3-54.7,4-58c2.7-4,5.3-7,8-9
		c3.3-2,6-3.7,8-5c2,0,55.3,0,160,0c104,0,158,1.3,162,4s7,5.3,9,8s3.7,4.7,5,6C1132,444,1132.3,462.7,1133,498z"/>
	<path class="st0" d="M703,670h2v5c0.7,3.3,1,5,1,5l33,1l33,1h-67v14l1,14v2h-21v2c-0.7,0.7-1,4.7-1,12v12h-1v-26H508v25h-1v-25H340
		l31-1c20.7-0.7,31.7-1,33-1h1v-28H260l72-1l72-1c0.7,0,1-0.3,1-1l1-5c0-2.7,49.3-4,148-4S702.3,670,703,670z M552,682
		c1.3-1.3,3.3-1.7,6-1s4.7,1.7,6,3c1.3,2,2,4.3,2,7c-1.3,2.7-2.7,4.3-4,5c-1.3,1.3-3.3,1.7-6,1s-4.7-2.3-6-5s-1.7-5-1-7
		C550.3,683,551.3,682,552,682z"/>
	<path class="st0" d="M629,244v-56h1v14c0.7,9.3,2,12,4,8c2.7-2.7,4-4.3,4-5h1l1,2c0,1.3,0.3,16,1,44c0.7,27.3,0.3,41.7-1,43
		s-2,2.3-2,3s-0.3,1.3-1,2s-0.7,1,0,1s1.3,0.3,2,1h2v2h-4l-4-1h-3v-2c0-0.7-0.3-1-1-1V244z"/>
	<path class="st0" d="M171,293v-1h12v1h1v2h1v1h1l1,4c0.7,2.7,0.3,5.3-1,8s-2.3,7.3-3,14v9h-1v-18h-1l-1-1h-9v20h-1v-10
		c0-7.3-0.7-11.7-2-13c0-1.3-0.7-3-2-5c0-2,0.3-4,1-6l1-2l1-1l1-1v-1H171z"/>
	<path class="st0" d="M253,686l-1-4h153v28h-1c-1.3,0-12.3,0.3-33,1l-31,1h-2v-1h1v-1h-3c-2,0-2.7,0.3-2,1l1,1h-3
		c-0.7,0-11.3-0.3-32-1c-21.3-0.7-32.3-2.3-33-5s-3-6-7-10S253.7,688.7,253,686z"/>
	<path class="st0" d="M644,167h14v10h-8c-6,0-9-1-9-3v-5c0-0.7,0.3-1,1-1C643.3,168,644,167.7,644,167z"/>
	<path class="st0" d="M104,483l1-1h5l1,1l1,1h2c0.7,0.7,1.3,2.3,2,5c0.7,3.3,1,5,1,5c0.7,0,1,0,1,0v2h1c0,0,0.3,0.3,1,1l1,1h1v1
		c0,0.7-1,0.3-3-1l-3-2v2l2,2c2,1.3,2.7,2.3,2,3h-1v-1c-0.7,0-1,0-1,0c0-0.7-0.3-1-1-1h-1c-0.7-0.7-1.3-1-2-1c-1.3-1.3-3.3-2-6-2
		s-4.3,0-5,0l-1-1h-1v-1h-1v-1l-1-1l-1-1v-5l1-1l1-1v-1h1v-1h2L104,483z"/>
	<path class="st0" d="M704,628h1v42h-2c-0.7,0-50.3,0-149,0s-148,1.3-148,4l-1,5v-48h1v-1h149C654.3,628.7,704,628,704,628z
		 M551,653h-1v-1l-1-1l-1-1v-5l3-3c2-2.7,4.3-3.7,7-3s4.7,1.7,6,3s2,3.3,2,6c-0.7,2.7-2,4.7-4,6s-4.3,1.3-7,0
		C552.3,654,551,653.7,551,653z"/>
	<path class="st0" d="M770,191l-1-4h181v27h-2l-1,1l-1,1h-2l-1,1l-1,1h-1v1h-1v1h-2v-1c0,0-1-1-3-3s-5.3-4.7-10-8
		c-5.3-4-12.3-7.3-21-10c-9.3-2.7-19.3-4.7-30-6s-23-1.7-37-1s-26.3,3-37,7l-17,6c-0.7-0.7-2.3-2-5-4l-4-4h-1l-1-1
		C770.7,194.3,770,193,770,191z"/>
	<path class="st0" d="M641,182v-4h17v4c0,2-2.7,3-8,3C644,185,641,184,641,182z"/>
	<path class="st0" d="M183,571l1,49c0,33.3,0.3,50.3,1,51s1,1,1,1h1l1,4c0,2.7,0.7,4,2,4h1v1h1v1l-4,1c-2,0.7-3.3,1.3-4,2
		c-1.3,1.3-2,2-2,2s-2,0.3-6,1h-5v10l-1,11v-11c0-8-0.3-12-1-12s-1.3-0.7-2-2s-1.7-2-3-2h-1v-1c0.7-0.7,1-2.3,1-5l1-4
		c0.7-0.7,1.3-1.3,2-2c1.3-1.3,2.3-13,3-35v-34l1,33v32h7l2,1l1,1h1v-48C182,587.3,182.3,571,183,571z"/>
	<path class="st0" d="M153,723v-11h13c9.3,0,23.7,0,43,0h121v25h1v3c0,0-8,0.3-24,1s-24.3,2.3-25,5v3v-3c0-2.7-29-4-87-4h-87v-1h-1
		v-1h45v-6L153,723z"/>
	<path class="st0" d="M114,278h10l1,1l1,1h1v1h1v2c1.3,1.3,1.7,3.3,1,6c-0.7,2-1,3.3-1,4c0,0-0.3,0.7-1,2v2h-1c0-0.7-1.3-0.7-4,0
		c-3.3,0.7-5.7,0.7-7,0l-2-1h-1c0,0-0.7-0.7-2-2s-2-3.3-2-6v-6h1v-1h1v-1h1v-1h1v-1H114z"/>
	<path class="st0" d="M736,714v8c-0.7,5.3-1,8-1,8c-0.7,0-1.7-2-3-6l-2-5v-1c0-1.3-0.7-2.7-2-4v-1h-1v-1h-1v-1h-1v-1h-4l-1,1l-1,1
		h-1v1l-2,2c0,1.3-0.3,2.3-1,3l-1,1v1l-1,6c-0.7,3.3-1.3,6.7-2,10v5h-2l-2,1h-11v-1h1v-1h3c2,0,4-4.7,6-14c1.3-9.3,1.7-14,1-14h-1
		v-2h4v-1l4-3c2-2.7,4.7-4,8-4s6.3,2,9,6C734.3,712,736,714,736,714z"/>
	<path class="st0" d="M960,186h2c0,0.7,0,4.7,0,12v12l12,2c7.3,0,12,0.7,14,2c2,0,4.7-2,8-6s7.3-7.7,12-11c5.3-3.3,9.3-5,12-5
		c2.7-1.3,8-1.7,16-1s14.7,2.3,20,5s9.7,5.3,13,8c3.3,3.3,5,5.3,5,6s0.3,1.3,1,2l1,1v1l1,2l1,1v2h1v1h1v-33l1,65v65h-59
		c-38.7,0.7-58.7,1-60,1h-2v-1h-1v-1c0.7,0,0.7-21.3,0-64v-65C959,186.3,959.3,186,960,186z"/>
	<path class="st0" d="M622,145c-10.7-0.7-13.7-2-9-4s10.3-3.3,17-4c6,0,9,1.7,9,5C639,144.7,633.3,145.7,622,145z"/>
	<path class="st0" d="M743,742l-1-2h1l1,1c0,0.7,0.7,0.7,2,0c0.7-0.7,1.3-1,2-1h12c5.3,0,8.3,0.3,9,1h1l4,1c2.7,0,4,0,4,0h1l-1,13
		c-1.3,8.7-2,13-2,13s0,0.3,0,1h-2c-0.7,0.7-2,0.7-4,0h-3c-0.7,0.7-3.7,0.7-9,0h-11c-1.3,0-2,0.3-2,1v2h-1v-2c0-1.3,0-6,0-14
		C744,747.3,743.7,742.7,743,742z"/>
	<path class="st0" d="M738,713v-1h4c3.3,0,5,0.3,5,1v1l-1,1v10c0,0.7,0,1,0,1h1l-2,6c-0.7,4-1.3,6.3-2,7v1h-4v-1c-0.7-0.7-1-1-1-1v1
		c0,0-0.7-1.7-2-5v-4h-1c0,0,0.3-2.7,1-8v-8h1C737.7,714,738,713.7,738,713z"/>
	<path class="st0" d="M640,100v1c0,0.7-5.3,1-16,1l-16,1v-1l6-4c4-2.7,9.3-4,16-4c6,0,9,0.7,9,2C639.7,98,640,99.3,640,100z"/>
	<path class="st0" d="M3,726v-14h149v28H3V726z"/>
	<path class="st0" d="M188,683l4-1l10,1c7.3,0.7,14,2.3,20,5c6.7,2.7,12,5.3,16,8s6.3,4,7,4c0.7,0.7,1,1,1,1v1h1v1h1v2l1,1l1,1v3
		h-66c-0.7,0-1.3-4-2-12v-11c0,0,0.7-0.7,2-2C184.7,684.3,186,683.7,188,683z"/>
	<path class="st0" d="M819,449v-1h5l9,6c6,2.7,13.7,4,23,4c10,0,20.7-0.7,32-2c11.3,0,22,0.7,32,2c10.7,1.3,17.3,1.3,20,0s4.7-3,6-5
		c2-2,3.3-3,4-3h1l1,1l1,1h1v2l1,1l1,1v-1h1v-1h1v2c0,0.7-0.3,1-1,1s-0.7,6.3,0,19c0.7,12,1,18.7,1,20v3l-1,1c-0.7,0-1.7,4-3,12
		c-1.3,7.3-2,11.7-2,13v2c0,0.7-23,1-69,1h-69v-1h8v-1c0-1.3-0.3-2.3-1-3s-1.7-7.7-3-21l-3-21v-1c-0.7,0-1,0-1,0c0-0.7,0.7-5.3,2-14
		v-13l1-1l1-2v-1H819z"/>
	<path class="st0" d="M768,772v-3h2c2,0.7,3.3,0.7,4,0h2v1c0,1.3,6.3,2,19,2s19,0.3,19,1h-20c-12.7,0.7-20,2.7-22,6
		c-2.7,3.3-5.3,5.7-8,7l-4,2h-4v-1h3v-1l-1-1v-1h-1l3-1c1.3-0.7,2.3-1,3-1h1c0,0,0.7-1,2-3S768,774.7,768,772z"/>
	<path class="st0" d="M115,304l-2-8l2,1c1.3,0.7,3.7,0.7,7,0c2.7-0.7,4-0.7,4,0h1l3,7c2,5.3,5.3,10,10,14c4,4,8.7,7.3,14,10
		s8.7,4,10,4h7l1,1c0.7,0.7,2.3,0.7,5,0s4.3-1,5-1s0.7-0.3,0-1h1v1h7l2-1c1.3-0.7,4-1.7,8-3c4-2.7,8-6,12-10s6-8,6-12l-2-6v-4l1,2
		l1,1v3l4,9c2.7,6,5.3,10,8,12s4,3.3,4,4h1v1h1v1h1v1h1v5v-2h-1v-1h-1v-2h-1v-1h-1v-1h-1c-0.7,0-1-0.3-1-1c-0.7-0.7-2-1-4-1
		c-2-1.3-4-0.7-6,2c-2.7,2-7,4.7-13,8c-6,4-11.7,6.3-17,7c-6,1.3-9,2.3-9,3v1h-1c0-0.7-2-1-6-1h-5v87h-1v-43c0-29.3-1.3-44.3-4-45
		s-7.3-2-14-4c-6-2-11.3-5-16-9s-9-8.3-13-13C119.7,313.7,117,308.7,115,304z"/>
	<path class="st0" d="M231,438l4-2c0.7,0,1,1,1,3v3l1,2l1,1v2h1v1h1v4c0,2,0.7,4.3,2,7s2,4,2,4v3l-4,1c-3.3,0.7-5.7,2-7,4
		c-0.7,2-1.3,3.7-2,5c-0.7,2-5.3,6.3-14,13c-8.7,6-13,9.3-13,10h-1v1h-1c0,0-0.3,0-1,0v1c-0.7,0-1,0.3-1,1c-0.7,0-1.3,0.3-2,1l-1,1
		l-3,2c-2,1.3-3.3,2.3-4,3l-1,1h-1l-1,1l-1,1h-1l-1,1h-1v-21c0-13.3,7.3-25.3,22-36C220.3,445.3,229,439.3,231,438z"/>
	<path class="st0" d="M642,82l8-1h8v10h-17v-5L642,82z"/>
	<path class="st0" d="M118,544v-1l8,6c4.7,3.3,12,8.7,22,16c9.3,7.3,14.3,11,15,11h1v1h1v1h1v1h1v1h3v-29l1,11v16c0,4,0,6,0,6h1v1h1
		v1h1v2h-3v1l-1,1v-1h-1v-1h-1v-1h-1v-1h-1c-0.7,0-9-6-25-18l-24-18h-1v-1h-1v-1c-0.7,0-1,0-1,0c0-0.7,0.7-1.3,2-2
		S118,544.7,118,544z"/>
	<path class="st0" d="M641,194v-7h9c5.3,0,8,1,8,3c0,1.3-2.7,3.3-8,6c-4.7,2.7-7.3,4.3-8,5h-1V194z"/>
	<path class="st0" d="M233,328h1v1h1v1h1v2h1v1h1v2l1,2c0.7,1.3,1,2.3,1,3v2l1,1v1h2v2c0.7,1.3,1,2,1,2v10c0,6-1.3,9.7-4,11
		c-2,0.7-3.3,1.3-4,2c0,0.7-0.3,2.3-1,5v3h-1v1h-2v1h-1v1h-1l-20,15c-13.3,10-20,15-20,15h-1l-1,1l-1,1h-1v1h-1v1h-2v-70
		c0-0.7,3-1.7,9-3c5.3-0.7,11-3,17-7c6-3.3,10.3-6,13-8c2-2.7,4-3.3,6-2c2,0,3.3,0.3,4,1C232,327.7,232.3,328,233,328z"/>
	<path class="st0" d="M963,186v-1h115v1h1c0.7,0,1,0.3,1,1v33h-1v-1h-1v-2l-1-1l-1-2v-1l-1-1c-0.7-0.7-1-1.3-1-2s-1.7-2.7-5-6
		c-3.3-2.7-7.7-5.3-13-8s-12-4.3-20-5s-13.3-0.3-16,1c-2.7,0-6.7,1.7-12,5c-4.7,3.3-8.7,7-12,11s-6,6-8,6c-2-1.3-6.7-2-14-2l-12-2
		v-12c0-7.3,0-11.3,0-12C962,186,962.3,186,963,186z"/>
	<path class="st0" d="M639,120v-4h2v4c0,2.7,3,4,9,4h9c0.7,0.7,1,1.3,1,2c-0.7,0-1,0.3-1,1v4l1,4v2c0,0-0.3,1-1,3v4h-1v-7h-8
		c-6,0-9,1.7-9,5c0,2.7,1.7,4,5,4h6c0,0-2,0.3-6,1h-5v7h-1v-2c0-2-0.3-3.3-1-4c0-0.7-5.7-1-17-1h-16c-0.7,0.7-1,1-1,1h-1l-2-1h-1v-1
		l1-1c0.7-0.7,1-4,1-10v-9c0.7,0,1-0.3,1-1v-1h-2v-1h1v-1h1l1,1c0.7,0.7,1,1,1,1h16C633.3,124,639,122.7,639,120z M623,126h16v9h-9
		c-6-0.7-11.3-2-16-4C610,128.3,613,126.7,623,126z M641,130v-4h17v4c0,3.3-2.7,5-8,5C644,135,641,133.3,641,130z M622,145
		c-10.7-0.7-13.7-2-9-4s10.3-3.3,17-4c6,0,9,1.7,9,5C639,144.7,633.3,145.7,622,145z"/>
	<path class="st0" d="M315,773h172l1,1c1.3,0,2,4.3,2,13s0,13,0,13v1h-1v1H314v-14C314,778,314.3,773,315,773z"/>
	<path class="st0" d="M658,166h1c0,0,0.3,0.3,1,1v5c0,2.7,71,4.3,213,5h213v1H660v7h111v1h-1c-1.3,0-2,0.3-2,1v1h-5
		c-3.3-0.7-5,20.7-5,64v64h1v1H629v-18c0.7,0,1,0.3,1,1v2h3l4,1h4v-2h-2c-1.3-0.7-2-1-2-1c-0.7,0-0.7-0.3,0-1s1-1.3,1-2s0.7-1.7,2-3
		s1.7-15.7,1-43c-0.7-28-1-42.7-1-44l-1-2v-18h-5l-4,1h-1v-1c0-0.7-3-1-9-1h-10v-1h29v-7h-23v-2h2l10,1c7.3,0,11-1,11-3v-4h2v4
		c0,2,3,3,9,3h8V166z M641,182v-4h17v4c0,2-2.7,3-8,3C644,185,641,184,641,182z M674,190h-10l-2,1h-2v-4h48c32,0,48,0.3,48,1
		c0,1.3-3.7,2.3-11,3s-13.7,2.3-19,5s-8.7,4.7-10,6c-2,1.3-3.7,2-5,2c-2-0.7-5-2.3-9-5c-4-3.3-8-5.7-12-7S680.7,190,674,190z
		 M641,194v-7h9c5.3,0,8,1,8,3c0,1.3-2.7,3.3-8,6c-4.7,2.7-7.3,4.3-8,5h-1V194z"/>
	<path class="st0" d="M191,513l9-7h2v1c-0.7,0.7-1.3,1-2,1c0,0,0,0.3,0,1h-1c0,0.7-0.3,1-1,1s-1.3,0.3-2,1s-1,1-1,1c-0.7,0-1,0-1,0
		v1h-1c0,0.7-0.3,1-1,1c0,0-0.3,0-1,0v1c-0.7,0-1,0.3-1,1l-3,2c-2,2-3.3,9.7-4,23v20h1l1-1h2v-1h1v-1h1l1-1c0.7-0.7,4-2.7,10-6l8-6
		v2h-1v1h-1v3v-1l1,1v1l-12,9c-8,6-12,9-12,9h-2c-1.3,0-2.3,0.3-3,1c0,0.7,0,1,0,1h-4v-1l-1,1l-1,1v-1h-1v-10l-1-11v-11
		c0,0,0.3,0,1,0s1.3-0.3,2-1s0.7-1.3,0-2s-1.3-5-2-13v-11h1v7h3v-1h1c0-0.7,0.7-1,2-1l1-1l-1,1c0,1.3-0.3,2-1,2s-1,0.3-1,1v1h3v-1h1
		v-1h1C181.7,520,185,517.7,191,513z"/>
	<path class="st0" d="M395,345l-1-28l1,7l1,6v21c0.7,14,7.3,21,20,21c12,0,37.7,0,77,0h59v-1c0-0.7,0.3-4.3,1-11v-11l1,12
		c0,7.3,28,11.3,84,12c56.7,0,85,0.3,85,1s-3,2.7-9,6c-5.3,2.7-8.3,36.3-9,101v97h-2v-1l1-1v-96c0-64-0.3-96-1-96
		c0,0-49.3-0.3-148-1l-148-1v1h-1v193h-1v-96c-0.7-64.7-2.7-98-6-100l-6-4h-1l-1-1h-1v-2h2C394,373,395,363.7,395,345z"/>
	<path class="st0" d="M728,718v1l1,5c0.7,3.3,1.3,6.7,2,10l1,4v1c0,0.7,0.7-0.7,2-4l1-5h1v4c1.3,3.3,2,5,2,5v1c0,0-4.7,0.3-14,1h-13
		v-1h2v-1l1-1v-4c0-2,0.3-4.7,1-8l1-5l3-5c2-2.7,3.7-3.7,5-3s2.3,1.7,3,3C727.7,716.7,728,717.3,728,718z"/>
	<path class="st0" d="M123,772h175c11.3,0,17,0.3,17,1c-0.7,0-1,5-1,15v14h2v1H160L4,802h131v-29h-12V772z"/>
	<path class="st0" d="M652,146h6v3c0,2,0.3,3,1,3v2c0.7,1.3,1,2.3,1,3v1h-5c0,0-2.3-0.3-7-1h-7v-10h5C650,146.3,652,146,652,146z"/>
	<path class="st0" d="M800,710h3l3,1c1.3,0.7,10.7,1,28,1h27v28h-82v-2c-0.7-2-1.7-6.7-3-14l-2-10v-2h11c7.3,0,11-0.3,11-1h1
		C797.7,710.3,798.7,710,800,710z"/>
	<path class="st0" d="M779,741v-1h79v1h-1v1h-41v30h26v1h-28c0-0.7-6.3-1-19-1s-19-0.7-19-2v-1c0-0.7,0-1,0-1s0.7-4.3,2-13l1-13V741
		z"/>
	<path class="st0" d="M170,512v-19h1v20l1,11c0,6.7,0.7,10.7,2,12c0,1.3-0.3,2.3-1,3c-1.3,0.7-2,1-2,1c-0.7,0-1,0-1,0
		c-0.7,0-9.3-6.3-26-19l-24-18c0.7-0.7,0.7-0.7,0,0h-3v-2h-1v-5h2v-1h2v2l1,1v1c0.7,0.7,1,0.7,1,0v-1l20,15c14,10,21,15,21,15h1l1,1
		l1,1h1v1h1v1h2V512z"/>
	<path class="st0" d="M660,172v-4h2l218,1h219v2h-1l-1,1h-1c-0.7,0-1.7,0.7-3,2h-2l-1,1l-1,1h-1v1H873C731,176.3,660,174.7,660,172z
		"/>
	<path class="st0" d="M1138,738v-2h1v40h-1v-2c0-0.7-19.3-1-58-1h-57c0-0.7-5.3-1-16-1h-16v-30l24-1c16-0.7,24-1,24-1h49
		C1121.3,740,1138,739.3,1138,738z"/>
	<path class="st0" d="M769,186h2c0.7,0,1,0,1,0v1h-3l1,4c0,2,0.7,3.3,2,4l1,1h1l4,4c2.7,2,4.3,3.3,5,4v1c-0.7,0.7-2.3,2-5,4l-4,3v1
		h-1v1h-1v1h-1v1h-1v1h-1v1h-1v-11c0-7.3,0-12.3,0-15v-4c0-0.7-0.3-1-1-1C767,186.3,767.7,186,769,186z"/>
	<path class="st0" d="M746,728v-3l1,1c0.7,0,1.3,2.3,2,7v7h-1c-0.7,0-1.3,0.3-2,1c-1.3,0.7-2,0.7-2,0l-1-1v-1c0.7-0.7,1-2,1-4
		C745.3,733,746,730.7,746,728z"/>
	<path class="st0" d="M762,187h5c0,0.7,0.3,1,1,1v4c0,2.7,0,7.7,0,15v108l-1,1v1h-8v-1h-1v-64C758,208.7,759.3,187,762,187z"/>
	<path class="st0" d="M720,711l1-1h4v1h1v1h1v1h1v1c1.3,1.3,2,2.7,2,4v1h-2v-1c0-0.7-0.3-1.3-1-2c-0.7-1.3-1.7-2.3-3-3s-3,0.3-5,3
		l-3,5v-1h-2v-1l1-1c0.7-0.7,1-1.7,1-3l2-2v-1h1L720,711z"/>
	<path class="st0" d="M461,757v-15h175v30H461V757z"/>
	<path class="st0" d="M630,390h-56h62c40.7,0,61,30,61,90l-1,91v1h-66c-43.3,0-65-0.3-65-1c-0.7-0.7-1-31-1-91v-89h60l61-1H630z
		 M583,494c0-14,1.3-20.7,4-20c2,0,3,7,3,21s-1.3,21-4,21C584,516,583,508.7,583,494z"/>
	<path class="st0" d="M551,653h-1v-1l-1-1l-1-1v-5l3-3c2-2.7,4.3-3.7,7-3s4.7,1.7,6,3s2,3.3,2,6c-0.7,2.7-2,4.7-4,6s-4.3,1.3-7,0
		C552.3,654,551,653.7,551,653z"/>
	<path class="st0" d="M622,167l-16-1l8-4c4.7-2.7,10-4,16-4s9,1.3,9,4C639,165.3,633.3,167,622,167z"/>
	<path class="st0" d="M750,770l-1-1h9c5.3,0.7,8.3,0.7,9,0h1v3c0,2.7-0.7,5-2,7s-2,3-2,3h-1c0,0-1-0.3-3-1c-1.3-0.7-2.7-2.3-4-5
		c-1.3-3.3-2.7-5-4-5C750.7,770.3,750,770,750,770z"/>
	<path class="st0" d="M738,770v1l-4,7c-2.7,5.3-4,8-4,8c-0.7,0-2,0.3-4,1h-4v-1h1c0,0,0-0.3,0-1c0.7,0,0.3-0.3-1-1l-1-1v-2h1l2-1
		c0,0,1.3-1.7,4-5l3-5h3C736,770,737.3,770,738,770z"/>
	<path class="st0" d="M604,246v-72l1,1v1h5c2,0,3.3,0,4,0h2c0,0,0,0.3,0,1h1v1h-12v7h5v1h10c6,0,9,0.3,9,1v130h331v1h2
		c1.3,0,21.3-0.3,60-1h59v-65l-1-65c0-0.7-0.3-1-1-1h-1v-1h21v-7h1v8h-4c-3.3,0.7-5,24.7-5,72l-1,70l-243,1H604v-5
		C604,320,604,294,604,246z"/>
	<path class="st0" d="M660,126h220c146.7,0.7,218,2.3,214,5c-4,2-6,3.3-6,4c0,0,0.3,0.3,1,1v1h-1c0,0.7,0,1,0,1c-0.7,0-72-0.3-214-1
		H660v-2l-1-4v-4C659.7,127,660,126.7,660,126z"/>
	<path class="st0" d="M162,672h3l-1,4c0,2.7-0.3,4.3-1,5v1l-11,2c-7.3,1.3-14,3.3-20,6c-6.7,2.7-11.7,5-15,7c-3.3,2.7-5,4-5,4v1h-1
		v1h-1v2l-1,1l-1,1v3h45v1h-1v1H62l5-1c3.3,0,5-1.7,5-5v-4h1v1l1,1v6h8c5.3,0,9-2,11-6s5.3-8,10-12l7-6h2l1-1l1-1h2v-1h1v-1H74v1h-1
		v-3l29-1c18.7-0.7,33-1.7,43-3C155,673.3,160.7,672,162,672z"/>
	<path class="st0" d="M407,383v-1l148,1c98.7,0.7,148,1,148,1c0.7,0,1,32,1,96v97c-0.7,0.7-1,1-1,1H406v-1h-1v-1h1V383H407z
		 M630,390h-56h62c40.7,0,61,30,61,90l-1,91v1h-66c-43.3,0-65-0.3-65-1c-0.7-0.7-1-31-1-91v-89h60l61-1H630z M416,480v-89h131v180
		h-61c-40.7,0.7-62.7,1-66,1h-4v-1C416,570.3,416,540,416,480z"/>
	<path class="st0" d="M552,598c0.7-1.3,2.7-1.7,6-1s5.7,1.7,7,3c0.7,1.3,1,3.3,1,6c-0.7,2.7-1.7,4.3-3,5s-3.7,1-7,1s-5.7-1-7-3
		c-0.7-2-0.7-4.3,0-7S550.7,598,552,598z"/>
	<path class="st0" d="M244,464v-1h1c0.7,0,1,0.7,1,2s0.3,2,1,2l3,9c1.3,6,2,9.7,2,11c0,0.7,0,1,0,1s-0.3,0-1,0v-2
		c-0.7-1.3-1-2.3-1-3v-1h-7c-2.7,1.3-5,2-7,2c-2.7,0.7-8,4-16,10c-8.7,6.7-13,10-13,10h-1v1h-1v1h-2l-1,1v-1h-3v-1h1v-1h1v-1h-1v-1
		h1v-1h1v-1h1v-1h1c0-0.7,4.3-4,13-10c8.7-6.7,13.3-11,14-13c0.7-1.3,1.3-3,2-5c1.3-2,3.7-3.3,7-4l4-1V464z"/>
	<path class="st0" d="M713,726l1-6h2v1l-1,5c-0.7,3.3-1,6-1,8v4l-1,1v1h-2v-4C711.7,732.7,712.3,729.3,713,726z"/>
	<path class="st0" d="M642,104v-1h16v12h-3c0-0.7-2.3-1-7-1h-7v-5C641.7,105.7,642,104,642,104z"/>
	<path class="st0" d="M1099,484v-1l6,5c4,2.7,7,6,9,10c1.3,4,2.3,10,3,18v15h-1l-1-1h-1c-0.7,0-4.3-0.7-11-2l-10-2h-1v-1
		c0-0.7,1.3-7.7,4-21L1099,484z"/>
	<path class="st0" d="M1088,90v2c0,1.3,1.3,3,4,5s4.3,3,5,3h1l1,1l1,1H660v-5l-1-2v-2h425c0.7,0,1-0.3,1-1s0.3-1,1-1
		C1086.7,90.3,1087.3,90,1088,90z"/>
	<path class="st0" d="M583,494c0-14,1.3-20.7,4-20c2,0,3,7,3,21s-1.3,21-4,21C584,516,583,508.7,583,494z"/>
	<path class="st0" d="M3,696v-15h70v21h-1v4c0,3.3-1.7,5-5,5l-5,1H3V696z"/>
	<path class="st0" d="M650,137h8v9h-12c-3.3,0-5-1.3-5-4C641,138.7,644,137,650,137z"/>
	<path class="st0" d="M771,186v-1h192v1c-0.7,0-1,0-1,0h-2c-0.7,0-1,0.3-1,1h-3c-2.7,0-4,21.7-4,65v64h1v1H767v-1l1-1v-97h1v-1h1v-1
		h1v-1h1v-1h1v-1h1v-1l4-3c2.7-2,4.3-3.3,5-4v-1l17-6c10.7-4,23-6.3,37-7s26.3-0.3,37,1s20.7,3.3,30,6c8.7,2.7,15.7,6,21,10
		c4.7,3.3,8,6,10,8s3,3,3,3v1h2v-1h1v-1h1l1-1l1-1h2l1-1l1-1h2v-27H772v-1C772,186,771.7,186,771,186z"/>
	<path class="st0" d="M111,396l2-2l25,18c16.7,12,25,18.3,25,19h1v1h2v1h1v1h3v-1h1v1l-1,2v5h-2l-2-1h-1v-1h-1c0-0.7-8.3-7-25-19
		l-25-18h-1l-1-1l-1-1h-1c0,0,0-0.3,0-1h-1C109,398.3,109.7,397.3,111,396z"/>
	<path class="st0" d="M552,682c1.3-1.3,3.3-1.7,6-1s4.7,1.7,6,3c1.3,2,2,4.3,2,7c-1.3,2.7-2.7,4.3-4,5c-1.3,1.3-3.3,1.7-6,1
		s-4.7-2.3-6-5s-1.7-5-1-7C550.3,683,551.3,682,552,682z"/>
	<path class="st0" d="M842,772h165c10.7,0,16,0.3,16,1c-0.7,0-1,5-1,15v14h58c38,0,57,0.3,57,1H833v-1h11v-29h-2V772z"/>
	<path class="st0" d="M734,778l4-7v1c0,0.7,1,1,3,1c2-0.7,3-1,3-1h1l3,6c2.7,4.7,4,7.3,4,8c0.7,0,1.3,0.3,2,1h2v1h4l4-2
		c2.7-1.3,5.3-3.7,8-7c2-3.3,9.3-5.3,22-6h50v29H667v-29l20,1c14,0,21.7,1.7,23,5c2,3.3,3.3,5,4,5h1v1h1v1h2l2,1h6c2-0.7,3.3-1,4-1
		C730,786,731.3,783.3,734,778z"/>
	<path class="st0" d="M331,740h175v2h-45v30h26v1H315c0-0.7-5.7-1-17-1h-17l1-1v-25c0.7-2.7,9-4.3,25-5S331,740,331,740z"/>
	<path class="st0" d="M640,101v-1h1v2c0.7,0.7,1,1,1,1v1c0,0-0.3,1.7-1,5v5h7c4.7,0,7,0.3,7,1h-7l-7,1h-2c0,0-3,0-9,0
		c-6.7,0-12,0.7-16,2l-5,4h-1c-1.3,0-2,0.3-2,1v1h-2v1c0,0.7-0.3,1-1,1h-1c-0.7,0-0.7-0.3,0-1v-1c0,0,0.3,0,1,0v-2h1v-8
		c0-5.3-0.3-8.3-1-9l-1-1h-1l1-1l1-1h1v1h1v1h1l1-1h1l16-1C634.7,102,640,101.7,640,101z M608,106l-1-2h32v2c0.7,0.7,0.7,2,0,4v4h-6
		c-4,0-6.3,0-7,0c-1.3,0-4.3-1.3-9-4C612.3,108.7,609.3,107.3,608,106z"/>
	<path class="st0" d="M487,772h151c1.3,0,6.7,0,16,0h13v30h166v1H316v-1h173v-1h1v-1c0,0,0-4.3,0-13s-0.7-13-2-13l-1-1V772z"/>
	<path class="st0" d="M641,130v-4h17v4c0,3.3-2.7,5-8,5C644,135,641,133.3,641,130z"/>
	<path class="st0" d="M759,710h2l-3,4c-2.7,3.3-4,6-4,8c-1.3,2.7-2,5-2,7v3l-1,4l-1,3v1h-1v-7c0-4.7-0.3-7-1-7h-1c-0.7-0.7-1-1-1-1
		v-3h2v-1l1,1l1,2v-2l1-2c0.7-0.7,1.3-1.7,2-3l1-2c0,0,0.3-0.3,1-1c0.7,0,1,0,1,0v-1c0-0.7,0-1,0-1h1l1-1
		C758,711,758.3,710.7,759,710z"/>
	<path class="st0" d="M623,126h16v9h-9c-6-0.7-11.3-2-16-4C610,128.3,613,126.7,623,126z"/>
	<path class="st0" d="M714,589h-9v13h-1v-13h-73c-48.7-0.7-98.3-1-149-1h-76v2c0,0.7-0.3,1-1,1v-1c0-0.7-2.3-1-7-1l-8-1h1v-1h1v-1h2
		l1-1l1-1l5-2c2.7-1.3,55-2,157-2c102.7,0,156,1.3,160,4S720.7,588.3,714,589z"/>
	<path class="st0" d="M1118,525v-3l2,6c0,4,2,8,6,12c3.3,4,5.3,7,6,9c0,2,0.3,3,1,3v127c-0.7,0-1.3,2-2,6s-2.3,7.7-5,11
		c-1.3,2.7-4.3,5.3-9,8c-4,2.7-17.3,4.3-40,5l-34,1H800c-1.3,0-2.3,0.3-3,1h-12c0-0.7-0.3-1-1-1h-1v-5c0.7-3.3,0-6.7-2-10
		s-3.3-29-4-77l-1-71v-1h2v-1l1-1l1-1l6-6c4-4,6-6.3,6-7h3l4-2c2.7,0,5.7-0.3,9-1h6v1h69c46,0,69-0.3,69-1h3v1h5c4,0,27,0,69,0
		s63-0.3,63-1v-1h1l10,2c6.7,1.3,10.3,2,11,2h1l1,1h1v-3h1V525z"/>
	<path class="st0" d="M716,770h-1c-0.7,0-0.7,1.3,0,4c0.7,3.3,1.7,5.7,3,7c1.3,0.7,2,1.3,2,2h1l1,1c1.3,0.7,1.7,1,1,1c0,0.7,0,1,0,1
		h-1v1h-2l-2-1h-2v-1h-1v-1h-1c-0.7,0-2-1.7-4-5c-1.3-3.3-9-5-23-5l-20-1v-1h39v-1l1-1v-1h5C714.7,769.7,716,770,716,770z"/>
	<path class="st0" d="M332,712h175v26l-1,2H331v-16C331.7,716,332,712,332,712z"/>
	<path class="st0" d="M600,81v-1h58v1h-8l-8,1l-1,4v5h17v-3c0,0,0.3,0.7,1,2l1,1v1h211c140.7,0,211,0.3,211,1H650c-6,0-9,1-9,3v4h-1
		c0-0.7-0.3-2-1-4c0-1.3-3-2-9-2c-6.7,0-12,1.3-16,4l-6,4v1h-1l-1,1h-1l-1-1h-2v-2h2v-1c0-0.7-0.3-3.7-1-9s-1.3-8.3-2-9
		C600.3,82,600,81.7,600,81z M612,86l-8-4h35v9h-10C622.3,90.3,616.7,88.7,612,86z"/>
	<path class="st0" d="M612,86l-8-4h35v9h-10C622.3,90.3,616.7,88.7,612,86z"/>
	<path class="st0" d="M182,382v-35h1l1,34c0,23.3,0,35,0,35h1v-1h1v-1h1l1-1l1-1h1c0,0,6.7-5,20-15l20-15h1v-1h1v-1h2v-1h1v1h1v1
		l1,1v1h2v1h-2v1h-1v1h-1l-24,18c-15.3,11.3-23.3,17-24,17v1h-2v1h-1v1h-1v1h-1v-1h-2v-4h1l1-1h1v-1C182.3,417.3,182,405.3,182,382z
		"/>
	<path class="st0" d="M1089,451l1-1h2v1h1v1h1v2h1v1h1l1,7c0.7,4.7,1.3,9.3,2,14v7h-1c0,0.7,0,1,0,1h1l-3,20c-2.7,13.3-4,20.3-4,21
		v2c0,0.7-21,1-63,1s-65,0-69,0h-5v-1h8v-1c-0.7-1.3-1.7-6-3-14l-2-13v-3c0-1.3-0.3-8.3-1-21v-19c0.7,0,1-0.3,1-1v-1l1-3
		c0.7-2,2.3-2.7,5-2c2,0.7,5,2.3,9,5s11.3,4,22,4s22.3-0.7,35-2c12,0,22.7,0.7,32,2s15.3,1.3,18,0s4.7-2.7,6-4
		S1088.3,451.7,1089,451z"/>
	<path class="st0" d="M606,172l-1-2h34v4c0,2-3.7,3-11,3h-11v-1c-0.7,0-1,0-1,0h-2c-0.7,0-2,0-4,0h-3l-1-1v-1h1
		C607.7,174,607.3,173.3,606,172z"/>
	<path class="st0" d="M74,683v-1h43v1h-1v1h-2l-1,1l-1,1h-2l-7,6c-4.7,4-8,8-10,12s-5.7,6-11,6h-8v-6l-1-1v-20H74z"/>
	<path class="st0" d="M808,485l7-4l3,21c1.3,13.3,2.3,20.3,3,21s1,1.7,1,3v1h-14c-3.3,0.7-6.3,1-9,1l-4,2h-3v-12c0-8,0.7-13.3,2-16
		c1.3-3.3,3-6.3,5-9C801,489.7,804,487,808,485z"/>
	<path class="st0" d="M816,757v-15h175v30H816V757z"/>
	<path class="st0" d="M608,106l-1-2h32v2c0.7,0.7,0.7,2,0,4v4h-6c-4,0-6.3,0-7,0c-1.3,0-4.3-1.3-9-4
		C612.3,108.7,609.3,107.3,608,106z"/>
	<path class="st0" d="M776,548v-1l1,71c0.7,48,2,73.7,4,77s2.7,6.7,2,10v5h1c0.7,0,1,0.3,1,1h-1c-1.3-0.7-3.7-1-7-1s-5.7-1.3-7-4
		c-2-1.3-5-2.3-9-3s-7.3,1-10,5l-4,5c0-0.7-1.7-1-5-1h-4v1c0,0.7-0.3,1-1,1h-1c0,0-1.7-2-5-6c-2.7-4-5.7-6-9-6s-6,1.3-8,4l-4,3v1h-4
		l-1-14v-14h67l-33-1l-33-1h69V549h1V548z"/>
	<path class="st0" d="M641,116l7-1h10v9h-8c-6,0-9-1.3-9-4V116z"/>
	<path class="st0" d="M784,711h12c0,0.7-3.7,1-11,1h-11v2l2,10c1.3,7.3,2.3,12,3,14v4h-1c0,0-1.3,0-4,0l-4-1v-1h1c0.7,0,0.7-2,0-6
		s-1.7-8-3-12l-2-7v-1h-1l-1-1v-1h-1v-1h-1v-1h-4v1l-1,1h-1c0,0,0,0.3,0,1c-0.7,0.7-1,1-1,1h-1c0,0,0,0.3,0,1l-1,2
		c-0.7,1.3-1.3,2.3-2,3l-1,2v2l-1-2l-1-1v1h-2v-7l1-1v-1l4-5c2.7-4,6-5.7,10-5s7,1.7,9,3c1.3,2.7,3.7,4,7,4S782.7,710.3,784,711z"/>
	<path class="st0" d="M508,724v-12h175v27c0,0.7-7.3,1-22,1s-22,0.3-22,1s-0.3,1-1,1H506v-2l1-2v-1h1V724z"/>
	<path class="st0" d="M107,742h88c58,0,87,1.3,87,4v25l-1,1H107v-1h-1v-15C106,746.7,106.3,742,107,742z"/>
	<path class="st0" d="M659,83v-1h219c146,0,219,0.3,219,1s-1.7,2-5,4c-2.7,2-4,3-4,3c-0.7,0-1.3,0.3-2,1c-0.7,0-1,0.3-1,1
		s-0.3,1-1,1h-2c0-0.7-70.3-1-211-1H660v-1l-1-1c-0.7-1.3-1-2-1-2v-4C658,84,658.3,83.7,659,83z"/>
	<path class="st0" d="M188,676l-1-4l15,2c10,1.3,17.3,2.7,22,4c5.3,1.3,36.7,2,94,2h86l-72,1l-72,1h-8l1,4c0.7,2.7,3,6,7,10
		s6.3,7.3,7,10s11.7,4,33,4c20.7,0,32.3,0,35,0h4v1h-1v1h-6c0,0-0.3,4-1,12v13h-1v-25h-92c0,0-9-0.3-27-1l-27-1h66v-3l-1-1l-1-1v-2
		h-1v-1h-1v-1c0,0-0.3-0.3-1-1c-0.7,0-3-1.3-7-4s-9.3-5.3-16-8c-6-2.7-12.7-4.3-20-5l-10-1v-1h-1v-1h-1C188.7,680,188,678.7,188,676
		z"/>
	<path class="st0" d="M674,190h-10l-2,1h-2v-4h48c32,0,48,0.3,48,1c0,1.3-3.7,2.3-11,3s-13.7,2.3-19,5s-8.7,4.7-10,6
		c-2,1.3-3.7,2-5,2c-2-0.7-5-2.3-9-5c-4-3.3-8-5.7-12-7S680.7,190,674,190z"/>
	<path class="st0" d="M758,710h1l1,1c0,0.7,0,0.7,0,0c0,0,0.3-0.3,1-1h1v1h1v1h1l1,1c0.7,0,1,0.3,1,1v1h-1c-0.7,0,0,4.3,2,13
		c2,8,3,12,3,12v1h-1c-0.7-0.7-3.7-1-9-1h-11h1v-1l1-3l1-4v-3c0-2,0.3-3.7,1-5c0.7-0.7,1-2.3,1-5v-5c0-0.7,0.3-1,1-1h1
		c0-0.7,0-1,0-1h1v-1C757,710.3,757.3,710,758,710z"/>
	<path class="st0" d="M957,500l1-1l2,13c1.3,8,2.3,12.7,3,14v1h-11v-2c0-1.3,0.7-5.7,2-13C955.3,504,956.3,500,957,500z"/>
	<path class="st0" d="M1023,773h57c38.7,0,58,0.3,58,1v29h-1c0-0.7-19-1-57-1h-58v-14C1022,778,1022.3,773,1023,773z"/>
	<path class="st0" d="M247,420l-1-1l-1,7c-0.7,4.7-1.3,10-2,16v8h-2v-1h-1v-1h-1v-1h-1v-2l-1-1l-1-2v-3c0-2-0.3-3-1-3
		c0.7-0.7,1-3.3,1-8v-7h-1v-1c0.7-1.3,1.7-6,3-14l3-11h1v-1c0-0.7,0.7-2.7,2-6c0-2.7,0.3-8.3,1-17s0.7-14.3,0-17l-1-5v-1
		c0,0-0.3-0.7-1-2v-2l-1-3c0-2,0.3-3,1-3s2.3,3.3,5,10c2.7,7.3,4,19,4,35c-1.3,16-2.3,26.3-3,31C248.3,418,247.7,420,247,420z"/>
	<path class="st0" d="M715,770h1l2,5c1.3,3.3,2,5,2,5s0.3,0,1,0v3h-1c0-0.7-0.7-1.3-2-2c-1.3-1.3-2.3-3.7-3-7
		C714.3,771.3,714.3,770,715,770z"/>
	<path class="st0" d="M658,108v-4h221c147.3,0.7,219.3,2,216,4c-4,2-6,3.7-6,5v2H875l-214,1h-2v-2l-1-1V108z"/>
	<path class="st0" d="M244,358v-9l1,5c0.7,2.7,0.7,8.3,0,17s-1,14.3-1,17c-1.3,3.3-2,5.3-2,6v1h-1v-3c0.7-1.3,1-3,1-5s-0.7-3-2-3
		l-1-1h-2v-1l-1-1v-1h-1v-4c0.7-2.7,1-4.3,1-5c0.7-0.7,2-1.3,4-2C242.7,367.7,244,364,244,358z"/>
	<path class="st0" d="M731,770l-3,5c-2.7,3.3-4,5-4,5l-2,1h-1v-1c-0.7,0-1,0-1,0s-0.7-1.7-2-5l-2-5h8C728.7,770,731,770,731,770z"/>
	<path class="st0" d="M1086,177h2v1h11v7H660v-7h426V177z"/>
	<path class="st0" d="M171,390v-44h5c4,0,6,0.3,6,1v35c0,22.7,0.3,34,1,34v3h-1l-1,1h-1v4h2v1h1v20l1,20v-1h1l1-1l1-1h1l1-1
		c0.7-0.7,8.3-6.3,23-17l21-16h1v-6h1v-1h1v7c0,4.7-0.3,7.3-1,8l-4,2c-2,1.3-10.7,7.3-26,18c-14.7,10.7-22,22.7-22,36v21h1l1-1h1
		l1-1l1-1h1l1-1c0.7-0.7,2-1.7,4-3l3-2l1-1h1v-1l1-1v-1h2v2h-1v1h1v2l-1,1l1,1v1h-1v1h-1v1l-2,1c-1.3,0.7-2.3,1.3-3,2h-1v-1
		c0,0-0.3,0-1,0v1c0,0.7-0.3,1-1,1v1c0,0.7-0.3,1-1,1h-1l-1-1c-0.7-0.7-2,0-4,2s-3.3,3-4,3h-1v1h-1v1h-3v-3h-1v1h-3v-7h-1v-21
		c0.7-1.3,1-2.7,1-4s0-2,0-2c-0.7,0-1.3-7.3-2-22v-29c0,0,0.3-0.3,1-1V390z M196,509c0,0,0.3,0,1,0c0,0.7-0.3,1-1,1
		C196,510,196,509.7,196,509z M178,517c0,0,0.3,0,1,0c0,0.7-0.3,1-1,1C178,518,178,517.7,178,517z"/>
	<path class="st0" d="M683,739v-1h1v2h13v1h-1v1h8l1,13c0.7,8.7,1,13,1,13s0,0.3,0,1h1v1l-1,1v1h-52c-9.3,0-14.7,0-16,0h-3h1v-30
		c0,0,0.3-0.3,1-1v-1h23C675.3,740,683,739.7,683,739z"/>
	<path class="st0" d="M650,93h8v10h-16c0,0-0.3-0.3-1-1v-6C641,94,644,93,650,93z"/>
	<path class="st0" d="M416,480v-89h131v180h-61c-40.7,0.7-62.7,1-66,1h-4v-1C416,570.3,416,540,416,480z M528,494v21
		c0,0.7-1.3,1-4,1l-4-1l1-21c0-13.3,1.3-20,4-20C527,474,528,480.7,528,494z"/>
	<path class="st0" d="M406,590v-2h76c50.7,0,100.3,0.3,149,1h73v13h1v26h-1c0,0-49.7,0.7-149,2H406v1h-1v-40
		C405.7,591,406,590.7,406,590z M552,598c0.7-1.3,2.7-1.7,6-1s5.7,1.7,7,3c0.7,1.3,1,3.3,1,6c-0.7,2.7-1.7,4.3-3,5s-3.7,1-7,1
		s-5.7-1-7-3c-0.7-2-0.7-4.3,0-7S550.7,598,552,598z"/>
	<path class="st0" d="M290,551h-1v1h-4v1h-1v1h-2v-2h1v-1h-1v-2l1-1c0.7-1.3,2.7-7.3,6-18s5.7-18.7,7-24v-9h-1v-1h-2v-1h-1v1h-3v1
		h-1v1h-2l-4,7c-2.7,4-7.3,12-14,24c-6,11.3-9.3,17.3-10,18l-1,1h-1v2l-1,1l-1,1v1h-1v1h-2v-6c-0.7-4-0.3-13,1-27s1.3-23,0-27l-1-6
		c0.7,0,1,0,1,0s0-0.3,0-1c0-1.3-0.7-5-2-11l-3-9v-5c-0.7-3.3-1-7.3-1-12c0-4,0-10,0-18l1-12c0.7,0,1.3-2,2-6c0.7-4.7,1.7-15,3-31
		c0-16-1-27-3-33l-4-10h-1c-0.7,0-1,0.7-1,2v2h-2v-1l-1-1v-2c0-0.7-0.3-1.7-1-3l-1-2v-5h-1v-1h-1v-1h-1v-1h-1c0-0.7-1.3-2-4-4
		s-5.3-6-8-12l-4-9v-3l-1-1l-1-2v-8c0-4.7,1.7-8.3,5-11c3.3-2,6.3-3.7,9-5c3.3-1.3,8-1.7,14-1c5.3,0.7,11.3,3,18,7
		c6,4,11.7,9.3,17,16c6,6.7,11.7,15.3,17,26s9.3,20.3,12,29s4,17,4,25s-0.7,16.7-2,26c-2.7,10-3.7,19-3,27s2.7,16.3,6,25
		s7,17.3,11,26c4,8,6,15.3,6,22c0,7.3-2,13.3-6,18c-2.7,4.7-8,10.7-16,18c-8,6.7-13,10.7-15,12S290,550.3,290,551z"/>
	<path class="st0" d="M548,343h-3v2h1l1-1h2c1.3,0.7,2.3,1.3,3,2c0,1.3,0.3,2,1,2v12c-0.7,6.7-1,10.3-1,11v1h-59c-39.3,0-65,0-77,0
		c-12.7,0-19.3-7-20-21v-21l1-6c0.7-4.7,1.3-7.3,2-8c0.7,0,26.3,0,77,0c50,0,75.3,0.7,76,2c0,0.7,0,4.7,0,12c0,8-0.3,12-1,12
		C551,342,550,342.3,548,343z"/>
	<path class="st0" d="M741,740h1l1,2c0.7,0.7,1,5.3,1,14c0,8,0,12.7,0,14v2c0,0-1,0.3-3,1c-2,0-3-0.3-3-1v-2l1-2
		c0.7-0.7,0.7-1.3,0-2c-0.7,0-0.7-4,0-12c0.7-7.3,0.7-11.3,0-12l-1-2v-1h1c0.7,0,1,0,1,0C740,739.7,740.3,740,741,740z"/>
	<path class="st0" d="M528,494v21c0,0.7-1.3,1-4,1l-4-1l1-21c0-13.3,1.3-20,4-20C527,474,528,480.7,528,494z"/>
	<path class="st0" d="M956,187h3v65c0.7,42.7,0.7,64,0,64v1h-6v-1h-1v-64C952,208.7,953.3,187,956,187z"/>
	<path class="st0" d="M685,714v-2h22c0.7,0,0.3,4.7-1,14c-2,9.3-4,14-6,14h-16v-14C684,718.7,684.3,714.7,685,714z"/>
	<path class="st0" d="M239,383l1,1c1.3,0,2,1,2,3s-0.3,3.7-1,5v3l-3,11c-1.3,8-2.3,12.7-3,14v2h-1v6h-1l-21,16
		c-14.7,10.7-22.3,16.3-23,17l-1,1h-1l-1,1l-1,1h-1v1l-1-20v-21h1v-1h1v-1h2v-1c0.7,0,8.7-5.7,24-17l24-18h1v-1h1v-1h2V383z"/>
	<path class="st0" d="M104,433l1-1h2l1,1l2,1l2,2c1.3,1.3,2.3,3,3,5v3h-1c0,0,0,0.3,0,1h1l1,1c0.7,0,1.3,0.3,2,1c0,0.7-0.7,0.7-2,0
		l-2-1l-1,1v1h-2v1h-5l-4-1h-2v-1h-1v-1h-1v-10h1v-1h1v-1h2L104,433z"/>
	<path class="st0" d="M3,756v-16h104v1h1v1h-1c-0.7,0-1,4.7-1,14v15h1v1h16v1H3V756z"/>
	<path class="st0" d="M605,182v-4h34v7h-34V182z"/>
	<path class="st0" d="M105,533v-1h8v1h1l1,1c0.7,0,1.3,0.7,2,2c0.7,0.7,1,2,1,4v4c0,0.7-0.3,1.3-1,2c-0.7,0-1.3,0.7-2,2v1h-1
		c-0.7-0.7-2-1-4-1c-2.7,0-4.7,0-6,0l-1-2h-1v-1h-1v-1h-1v-7h1v-1h1v-2h2v-1H105z"/>
	<path class="st0" d="M245,426l1-7l1,1l-1,12c0,8,0,14,0,18c0,4.7,0.3,8.7,1,12v5c-0.7,0-1-0.7-1-2s-0.3-2-1-2h-1c0,0-0.7-1.3-2-4
		s-2-5-2-7v-3h1v1h2v-8C243.7,436,244.3,430.7,245,426z"/>
	<path class="st0" d="M660,137h429v1c0,1.3,1,2.3,3,3s3.3,1.3,4,2l1,1h1v1h-1v1H878c-145.3,0-218-0.3-218-1l-1-1v-4
		C659.7,138,660,137,660,137z"/>
	<path class="st0" d="M100,384h8l2,1c1.3,1.3,2.3,3,3,5v4l-2,2c-1.3,1.3-2,2.3-2,3h-2c-1.3,0.7-3,0.3-5-1h-4v-1h-1v-1h-1v-9l1-1v-1
		h1l1-1H100z"/>
	<path class="st0" d="M171,322v-10h9l1,1h1v18c0,0.7,0,1.3,0,2c0.7,0.7-0.7,1-4,1s-5.3-0.3-6-1l-1-1V322z"/>
	<path class="st0" d="M1088,157h1v1l-1,1v1l3,2c2,1.3,3.3,2,4,2h1l1,1h1v2H660v-1h-1v-2l-1-1v-5h216C1016,158,1087.3,157.7,1088,157
		z"/>
	<path class="st0" d="M596,72v-8h503v16H598C596.7,80,596,77.3,596,72z"/>
	<path class="st0" d="M630,188l4-1h5v18h-1c0,0.7-1.3,2.3-4,5c-2,4-3.3,1.3-4-8V188z"/>
	<path class="st0" d="M182,687v11c0.7,8,1.3,12,2,12l27,1c18,0.7,27,1,27,1h-29c-19.3,0-33.7,0-43,0h-13v11l-1,11v-23h1v-1h9
		c5.3,0,8-0.3,8-1l1-11v-10h5C180,687.3,182,687,182,687z"/>
	<path class="st0" d="M766,718l-1-4c0,0,0.3,0.3,1,1l2,7c1.3,4,2.3,8,3,12s0.7,6,0,6h-1c0,0-0.7-2.7-2-8
		C766.7,726,766,721.3,766,718z"/>
	<path class="st0" d="M3,787v-14h132v29H4C4,801.3,3.7,796.3,3,787z"/>
	<path class="st0" d="M213,548h-1v1h-1v1h-2v1h-1v1h-1v-1l-1-1v1v-3h1v-1h1v-3h1l10-8c7.3-5.3,11.3-9.3,12-12c0.7-3.3,1.7-5.3,3-6
		c1.3-1.3,3.3-1.7,6-1c3.3,0.7,5.7,1.7,7,3c0.7,1.3,1,3.3,1,6c-0.7,2.7-1.7,4.3-3,5s-3.3,1-6,1s-7.7,2.7-15,8S213,548,213,548z"/>
	<path class="st0" d="M606,146v1l2,2c0.7,0.7,1.3,1.3,2,2s1.3,1,2,1h1l4,2c2.7,1.3,7,2,13,2c6.7,0,10-0.3,10-1v-1h1v3h7
		c4.7,0.7,7,1,7,1h-7c-4.7,0-7,1.3-7,4c0,3.3,0.3,5,1,5h2c0,0.7-0.7,1-2,1c-0.7,0-1,0.3-1,1v1h-36l1,2c1.3,1.3,1.7,2,1,2h-1v1l1,1
		h-2v-1l-1-1v-3h-1v-1h-1l-1-1c-0.7-0.7-0.3-1,1-1c0.7-0.7,1-4,1-10v-10h-1c-1.3,0-2-0.3-2-1l1-1h1c0,0.7,0.3,0.7,1,0
		c0-0.7,0.3-0.7,1,0C605.3,146,606,146,606,146z M622,167l-16-1l8-4c4.7-2.7,10-4,16-4s9,1.3,9,4C639,165.3,633.3,167,622,167z"/>
	<path class="st0" d="M1138,711v27c0,1.3-16.7,2-50,2h-49v-28h50C1121,712,1137.3,711.7,1138,711z"/>
	<path class="st0" d="M152,684l11-2h1c1.3,0,2.3,0.7,3,2s1.3,2,2,2s1,4,1,12v11c0,0.7-2.7,1-8,1h-54v-3l1-1l1-1v-2h1v-1h1v-1
		c0,0,1.7-1.3,5-4c3.3-2,8.3-4.3,15-7C138,687.3,144.7,685.3,152,684z"/>
	<path class="st0" d="M608,149l-2-2h16c11.3,0,17,0.3,17,1c0.7,0.7,1,2,1,4v3c0,0.7-3.3,1-10,1c-6,0-10.3-0.7-13-2l-4-2h-1
		c-0.7,0-1.3-0.3-2-1S608.7,149.7,608,149z"/>
	<path class="st0" d="M648,158h10v9h-16c-0.7,0-1-1.7-1-5C641,159.3,643.3,158,648,158z"/>
	<path class="st0" d="M660,148h438v2h-2l-1,1c-0.7,0.7-1.7,1-3,1c-1.3,1.3-2,2.3-2,3l-1,2h-1c-0.7,0.7-72,1-214,1H660v-1
		c0-0.7-0.3-1.7-1-3v-4L660,148z"/>
	<path class="st0" d="M734,740h2c1.3,0,2,0,2,0h1v2c0,1.3-0.3,5.7-1,13c0,7.3,0.3,11,1,11c0.7,0.7,0.7,1.3,0,2l-1,2c-0.7,0-2,0-4,0
		h-3c0,0-2.3,0-7,0h-8c0,0-1.3-0.3-4-1h-6c0-0.7,0-1,0-1s-0.3-4.3-1-13l-1-13h3l2-1h13C730,740.3,734,740,734,740z"/>
	<path class="st0" d="M639,116v4c0,2.7-5.7,4-17,4h-16v-1c0-0.7,0.7-1,2-1h1l5-4c4-1.3,9.3-2,16-2C636,116,639,116,639,116z"/>
	<path class="st0" d="M170,462v-21v23c0.7,14.7,1.3,22,2,22c0,0,0,0.7,0,2s-0.3,2.7-1,4v1h-1v-1c0,0-9.3-6.7-28-20l-26-20h-1l-1-1
		l-1-1h-1v-1h-1v-1h2v-1l1-1v-2h1v1h1l1,1h2v1c0,0.7,7,6,21,16c14.7,10,22.3,15.3,23,16l1,1h1v1h1v1h2l1,1h1V462z M116,447
		c0,0,0.3,0,1,0c0,0.7-0.3,1-1,1C116,448,116,447.7,116,447z"/>
</g>
</svg>
