<?xml version="1.0" standalone="no"?>
<!DOCTYPE svg PUBLIC "-//W3C//DTD SVG 20010904//EN"
 "http://www.w3.org/TR/2001/REC-SVG-20010904/DTD/svg10.dtd">
<svg version="1.0" xmlns="http://www.w3.org/2000/svg"
 width="905.000000pt" height="1280.000000pt" viewBox="0 0 905.000000 1280.000000"
 preserveAspectRatio="xMidYMid meet">
<g transform="translate(0.000000,1280.000000) scale(0.100000,-0.100000)"
fill="#000000" stroke="none">
<path d="M5000 12214 c-100 -17 -248 -47 -265 -53 -11 -5 -36 -14 -55 -21 -84
-30 -101 -38 -181 -87 -69 -43 -140 -95 -204 -152 -5 -5 -30 -35 -55 -66 -25
-32 -54 -67 -65 -79 -30 -31 -75 -99 -75 -113 0 -7 -12 -13 -26 -13 -33 0
-160 -43 -227 -76 -64 -33 -185 -122 -239 -178 -127 -130 -209 -302 -254 -527
-23 -115 -25 -148 -20 -239 9 -143 16 -203 27 -214 5 -6 9 -28 9 -50 0 -50 26
-159 51 -212 11 -23 26 -75 34 -116 8 -41 21 -95 30 -121 9 -26 17 -78 19
-115 5 -94 28 -132 72 -115 24 9 34 47 34 124 0 77 20 145 72 249 l33 65 40
-3 c22 -2 72 -12 111 -23 66 -18 78 -18 165 -5 52 7 99 11 105 9 7 -2 39 9 73
26 73 37 79 38 91 7 15 -41 110 -189 141 -222 44 -46 40 -88 -31 -319 -10 -33
-23 -105 -29 -160 -6 -55 -15 -116 -21 -135 -23 -88 -41 -180 -46 -240 -3 -36
-8 -81 -10 -100 -2 -19 -7 -116 -10 -215 -7 -196 7 -396 31 -465 8 -24 15 -73
14 -109 -1 -99 28 -238 91 -441 18 -58 45 -148 62 -200 16 -52 37 -113 48
-135 10 -22 40 -89 65 -150 26 -60 65 -143 87 -182 21 -40 36 -73 32 -73 -4 0
-26 16 -50 35 -23 19 -48 35 -54 35 -7 0 -33 15 -59 34 -25 18 -74 47 -107 64
-34 17 -131 78 -215 135 -85 57 -233 154 -329 214 -96 61 -229 145 -295 187
-66 43 -158 98 -205 124 -47 25 -87 49 -88 54 -2 4 -12 8 -22 8 -9 0 -23 6
-29 14 -6 8 -26 20 -44 27 -36 15 -259 161 -294 192 l-23 20 73 76 c59 63 79
92 110 166 22 52 43 122 49 165 10 71 10 78 -16 138 -27 63 -80 125 -131 152
-30 16 -30 20 -7 51 18 25 29 47 55 109 42 99 51 186 31 275 -9 39 -23 81 -31
95 -8 14 -25 48 -38 77 -17 36 -56 84 -127 154 l-102 101 13 41 c20 66 33 186
28 262 -3 62 -9 80 -52 153 -40 68 -63 95 -123 142 -104 81 -131 93 -244 110
-42 6 -103 8 -137 4 -93 -10 -104 -4 -141 73 -46 100 -75 138 -179 240 -122
120 -156 133 -361 140 -80 3 -184 0 -232 -5 -156 -20 -347 -97 -436 -177 -67
-61 -156 -231 -172 -330 -6 -37 -15 -75 -20 -85 -5 -9 -40 -26 -79 -38 -58
-17 -85 -33 -160 -97 -103 -86 -113 -99 -169 -211 -53 -105 -76 -215 -76 -364
l-1 -116 57 -117 c32 -64 58 -121 58 -125 0 -5 -9 -17 -20 -27 -11 -10 -20
-25 -20 -34 0 -9 -7 -27 -16 -40 -28 -39 -25 -237 5 -321 29 -82 99 -196 159
-258 44 -46 199 -132 236 -132 10 0 15 -21 18 -87 4 -81 8 -95 51 -179 105
-202 209 -268 422 -267 133 0 316 40 448 97 l37 16 35 -54 c46 -73 183 -182
245 -195 128 -28 364 -34 531 -15 55 6 56 6 108 -40 28 -25 57 -46 63 -46 6 0
29 -16 52 -36 51 -44 265 -183 366 -237 125 -66 230 -162 230 -208 0 -26 -91
-64 -195 -83 -49 -9 -220 -30 -380 -46 -159 -17 -324 -35 -365 -40 -86 -11
-412 -58 -452 -65 l-27 -4 29 46 c40 62 53 136 47 257 -5 107 -9 131 -20 142
-4 4 -7 14 -7 22 0 14 -48 79 -95 129 -11 12 -24 27 -30 33 -25 28 -177 130
-235 157 -109 52 -171 67 -253 60 -82 -7 -133 -25 -161 -56 -24 -26 -42 -26
-108 0 -46 19 -66 21 -158 15 -178 -9 -283 -43 -445 -143 -41 -25 -101 -108
-126 -173 -39 -103 -51 -186 -44 -298 7 -101 6 -104 -20 -143 -15 -21 -31 -39
-36 -39 -4 0 -11 -10 -14 -22 -4 -13 -20 -43 -35 -68 -23 -36 -32 -69 -46
-163 -14 -102 -15 -142 -6 -280 11 -181 28 -264 71 -358 40 -89 89 -143 151
-165 57 -21 68 -35 94 -119 31 -100 70 -166 138 -231 122 -118 327 -191 508
-181 90 5 101 8 215 62 166 79 255 145 316 232 l29 42 65 -23 c55 -21 73 -23
132 -16 114 14 240 68 316 136 27 24 53 44 57 44 14 0 131 162 153 210 26 58
56 201 57 265 0 32 -8 66 -20 90 -11 21 -19 39 -17 40 1 1 74 10 162 19 357
38 467 56 750 121 263 61 333 69 498 61 76 -3 147 -11 157 -16 9 -5 38 -51 64
-102 26 -51 69 -135 96 -187 28 -51 50 -98 50 -104 0 -25 64 -147 78 -147 9 0
12 -6 7 -17 -6 -16 -49 -146 -75 -228 -20 -66 -23 -179 -5 -241 9 -32 20 -63
25 -69 4 -5 10 -23 14 -38 8 -35 48 -56 71 -37 9 8 23 26 30 41 8 15 49 53 91
84 88 67 92 66 140 -14 60 -99 100 -233 138 -467 20 -121 40 -241 46 -269 5
-27 16 -86 24 -130 8 -44 26 -127 40 -185 14 -58 26 -114 26 -126 0 -11 10
-56 21 -100 12 -43 30 -113 40 -154 10 -41 30 -118 43 -170 14 -52 32 -138 40
-190 8 -52 33 -172 55 -267 23 -94 52 -236 66 -315 46 -255 96 -511 119 -608
25 -104 50 -249 44 -256 -3 -2 -38 11 -79 28 -49 21 -106 36 -169 44 -87 11
-107 10 -234 -12 -144 -25 -193 -45 -402 -164 l-41 -24 -79 41 c-43 23 -127
55 -187 72 -91 26 -124 31 -216 31 -249 0 -461 -81 -607 -232 -59 -61 -114
-145 -114 -175 0 -15 -34 -13 -150 9 -30 6 -69 13 -86 15 -43 7 -343 -43 -402
-66 -165 -65 -278 -194 -365 -416 -31 -78 -36 -103 -38 -185 -1 -77 3 -111 24
-180 14 -47 23 -87 20 -90 -2 -3 -21 -6 -41 -7 -62 -3 -122 -20 -224 -61 -197
-79 -277 -145 -372 -305 -50 -83 -66 -120 -71 -162 -9 -69 -1 -105 24 -105 21
0 31 19 31 55 0 39 46 155 73 184 14 14 32 40 40 57 39 76 217 190 357 227 91
24 213 39 262 32 39 -6 48 -4 56 11 13 26 6 42 -39 90 -66 73 -74 96 -75 224
-1 104 2 122 29 190 73 190 151 284 288 350 135 64 190 75 374 75 171 0 164 1
279 -62 39 -21 59 -8 67 43 8 58 72 175 116 215 60 55 129 99 196 126 145 59
360 79 514 47 79 -16 284 -110 300 -137 17 -30 48 -28 79 4 52 57 170 126 267
158 170 56 326 64 434 23 70 -27 183 -104 254 -172 34 -33 65 -60 69 -60 4 0
23 6 41 14 56 23 314 12 409 -18 41 -13 97 -28 124 -35 27 -6 62 -23 78 -36
16 -14 35 -25 43 -25 7 0 73 -29 147 -65 96 -47 149 -80 188 -116 46 -44 58
-50 83 -45 l30 6 -7 -112 c-15 -254 -38 -384 -79 -442 -26 -37 -13 -61 33 -61
31 0 36 5 69 70 20 39 65 112 100 164 l64 94 12 -30 c18 -43 28 -46 82 -27
128 44 634 -47 826 -148 93 -49 203 -147 225 -198 7 -19 20 -42 27 -50 18 -22
33 -77 38 -141 7 -91 10 -93 124 -94 84 -1 107 -5 163 -29 129 -56 154 -70
226 -131 72 -61 77 -67 109 -133 17 -35 31 -52 43 -52 36 0 68 59 42 75 -6 4
-19 23 -29 43 -30 58 -119 144 -196 189 -38 22 -92 53 -120 69 -57 33 -85 42
-174 54 -94 14 -99 17 -112 62 -6 22 -23 67 -39 99 -16 33 -26 59 -24 59 15 0
-66 95 -129 152 -86 78 -135 104 -282 151 -188 60 -408 100 -631 113 -92 6
-115 4 -142 -10 l-33 -17 40 58 c61 89 231 443 280 583 53 151 170 464 202
540 12 30 64 154 115 275 90 214 218 592 289 852 105 383 185 876 200 1243 7
160 -13 414 -40 521 -9 34 -15 63 -13 64 2 2 21 -4 43 -12 108 -40 278 -96
350 -114 44 -11 108 -30 142 -40 34 -11 79 -22 100 -24 68 -7 157 -23 185 -34
48 -18 92 13 81 59 -3 14 -17 43 -31 64 -13 22 -39 85 -57 140 -55 168 -160
405 -327 734 -184 365 -269 574 -533 1323 -54 151 -115 319 -137 374 -22 55
-62 161 -88 235 -27 74 -80 218 -118 320 -39 102 -84 239 -102 305 -29 115
-93 303 -188 560 -24 66 -53 145 -64 175 -11 30 -23 64 -28 75 -4 11 -22 58
-40 105 -51 138 -107 242 -158 293 -60 61 -241 197 -261 197 -6 0 -35 10 -65
22 -63 26 -66 33 -66 163 0 46 -7 119 -15 162 -8 43 -18 109 -20 146 -11 136
-54 356 -84 425 -88 204 -131 291 -209 424 -127 220 -183 280 -382 415 -71 48
-309 152 -385 168 -70 15 -298 28 -345 19z m370 -93 c121 -42 265 -114 345
-173 114 -84 250 -221 295 -298 146 -251 232 -419 249 -487 6 -21 19 -64 31
-96 24 -68 81 -484 86 -631 2 -72 -1 -106 -11 -127 -32 -61 -13 -87 72 -93 61
-5 103 -16 103 -27 0 -5 9 -9 19 -9 11 0 23 -4 26 -10 3 -5 25 -18 48 -29 71
-32 176 -146 224 -242 42 -84 93 -206 93 -220 0 -5 11 -32 24 -61 25 -55 70
-177 88 -238 6 -19 17 -48 26 -65 18 -34 81 -210 118 -330 118 -376 119 -380
240 -695 55 -144 191 -521 304 -845 174 -496 321 -854 453 -1105 95 -179 133
-258 207 -430 69 -161 167 -428 172 -467 3 -25 0 -28 -27 -26 -42 2 -204 32
-300 54 -98 23 -468 139 -475 149 -3 4 -26 12 -51 18 -26 6 -91 30 -145 53
-55 22 -174 69 -266 104 -239 92 -353 144 -475 218 -60 35 -123 72 -142 82
-19 9 -39 21 -45 26 -6 5 -102 54 -213 109 -121 60 -261 140 -350 198 -81 54
-173 113 -203 132 -30 18 -77 50 -105 72 -64 50 -333 228 -346 228 -5 0 -9 4
-9 10 0 5 7 7 15 4 9 -4 58 15 111 42 l96 48 76 -80 c109 -114 386 -343 526
-435 116 -77 279 -150 500 -226 86 -29 231 -53 277 -47 53 8 117 43 141 77 36
50 32 150 -10 245 l-32 73 38 -20 c141 -76 246 -94 323 -55 51 25 124 101 126
130 1 11 6 37 12 58 9 35 6 50 -24 126 -53 138 -83 189 -150 256 -71 69 -151
177 -179 242 -15 32 -25 42 -42 42 -24 0 -44 -26 -44 -55 0 -28 83 -145 160
-225 40 -41 78 -87 86 -102 8 -16 19 -28 24 -28 6 0 10 -5 10 -11 0 -6 17 -38
38 -72 33 -55 37 -67 38 -134 l1 -74 -44 -45 c-42 -41 -48 -44 -98 -44 -78 0
-210 55 -296 124 -73 59 -93 74 -125 98 -17 13 -71 65 -120 117 -49 52 -102
106 -118 120 -15 14 -47 45 -70 69 -50 51 -79 54 -96 12 -11 -26 -10 -33 5
-50 10 -11 23 -20 30 -20 6 0 44 -37 84 -81 40 -45 96 -101 124 -124 82 -67
224 -232 259 -300 36 -71 55 -171 42 -220 -9 -35 -85 -59 -167 -52 -97 8 -155
25 -366 105 -203 78 -294 127 -419 224 -48 37 -121 93 -162 124 -81 61 -262
240 -290 287 -17 28 -17 31 5 80 32 70 48 169 40 242 l-6 60 53 -52 c72 -70
146 -112 206 -120 86 -10 220 34 268 89 37 41 84 134 90 180 5 39 -6 151 -23
216 -4 19 10 11 79 -41 98 -74 155 -93 253 -84 112 11 243 107 292 214 25 53
25 61 19 176 -4 65 -11 127 -16 136 -5 9 -21 53 -35 98 -14 45 -40 101 -57
124 -39 54 -118 245 -158 385 -18 60 -45 140 -61 178 -16 37 -29 74 -29 82 0
17 -51 19 -68 2 -7 -7 -12 -19 -12 -27 0 -14 47 -136 71 -183 4 -9 15 -44 24
-78 25 -96 91 -258 136 -335 101 -172 122 -238 133 -411 5 -83 3 -96 -17 -135
-13 -24 -43 -59 -68 -77 -24 -18 -53 -39 -64 -48 -86 -65 -236 -30 -349 83
-63 63 -142 175 -152 218 -4 17 -19 55 -35 86 -15 30 -66 147 -113 260 -124
297 -154 363 -170 373 -21 14 -92 -16 -88 -37 1 -9 20 -44 40 -79 41 -67 136
-267 159 -333 7 -22 22 -58 32 -80 10 -22 37 -80 60 -128 53 -114 137 -364
150 -445 13 -78 1 -149 -35 -209 -21 -36 -38 -50 -89 -74 -151 -70 -275 -14
-434 197 -79 104 -357 672 -420 856 -29 85 -46 100 -87 73 -19 -12 -23 -21
-18 -38 3 -12 12 -27 19 -32 6 -6 16 -21 20 -35 4 -14 20 -52 35 -85 15 -33
36 -80 46 -105 46 -115 107 -243 203 -420 34 -63 65 -126 68 -140 3 -13 14
-38 24 -55 10 -16 22 -48 27 -70 6 -22 18 -69 27 -105 12 -45 16 -83 11 -125
-10 -101 -24 -135 -81 -190 -123 -120 -223 -125 -349 -16 -27 24 -61 48 -75
54 -39 17 -185 151 -228 210 -21 29 -65 84 -98 122 -33 39 -83 102 -109 140
-27 39 -67 93 -88 121 -58 78 -210 386 -250 509 -53 159 -72 304 -71 515 1
198 19 358 58 530 9 41 23 118 31 170 8 52 21 116 29 142 8 26 15 54 15 63 0
8 11 50 24 93 60 191 61 231 5 251 -42 14 -125 133 -149 213 l-20 67 43 68
c45 70 81 161 116 293 16 59 18 89 12 143 -4 38 -4 70 1 73 4 3 8 13 8 23 0 9
6 25 13 34 11 16 18 15 106 -14 86 -28 107 -31 230 -33 129 -1 139 0 195 27
32 15 63 27 68 27 5 0 18 9 30 20 12 11 27 20 34 20 7 0 34 26 61 59 45 54 82
118 128 226 20 45 47 174 40 186 -3 4 -1 18 4 32 14 35 -12 153 -48 226 -17
33 -57 91 -89 128 -57 66 -61 69 -160 102 -90 30 -109 33 -179 29 -74 -5 -196
-39 -260 -72 -76 -39 -169 -129 -214 -206 -18 -33 -37 -60 -40 -60 -3 0 -23
15 -45 33 -40 33 -129 67 -177 67 -34 0 -34 7 3 56 16 21 30 44 30 50 0 12
143 152 210 206 78 62 208 117 400 168 83 22 154 28 290 26 122 -2 155 -6 210
-25z m-290 -322 c58 -18 113 -48 152 -82 53 -47 107 -146 120 -220 6 -34 15
-67 19 -73 6 -7 5 -23 -1 -39 -6 -16 -13 -53 -16 -84 -3 -31 -9 -60 -15 -65
-5 -6 -9 -19 -9 -30 0 -28 -77 -163 -119 -209 -98 -106 -198 -144 -355 -134
-50 3 -98 8 -106 10 -32 7 -130 59 -130 68 0 5 -11 14 -25 19 -24 9 -25 13
-19 47 15 81 19 152 13 253 -6 107 -20 152 -60 196 -19 20 -19 21 1 39 11 10
20 24 20 31 0 17 36 79 73 126 36 45 85 78 158 108 30 12 63 26 74 31 45 19
173 23 225 8z m-775 -249 c38 -13 67 -34 115 -84 56 -58 66 -75 82 -134 9 -37
18 -98 19 -137 1 -87 -38 -314 -59 -337 -8 -10 -12 -18 -8 -18 14 0 -28 -65
-72 -110 -54 -53 -113 -95 -192 -135 -30 -15 -58 -32 -61 -37 -4 -6 -41 -25
-83 -43 -88 -39 -119 -60 -190 -132 -92 -92 -196 -204 -196 -210 0 -4 -13 -34
-28 -67 -16 -34 -37 -80 -47 -103 -24 -58 -41 -56 -50 4 -2 16 -18 66 -36 113
-28 73 -49 156 -63 250 -13 82 -30 255 -30 315 0 73 27 235 49 295 23 60 80
184 100 215 37 59 198 221 229 231 11 4 40 21 65 38 58 40 135 73 192 82 24 4
49 10 54 14 30 23 129 18 210 -10z m-2575 -796 c47 -10 74 -23 95 -44 17 -17
37 -36 45 -43 37 -31 149 -150 148 -155 -1 -4 8 -26 20 -50 13 -24 20 -51 17
-61 -7 -23 13 -70 40 -93 14 -12 31 -16 55 -12 76 10 208 11 265 3 171 -26
311 -169 331 -340 8 -72 -11 -186 -42 -247 -13 -26 -24 -56 -24 -67 0 -25 40
-69 82 -91 36 -19 43 -24 109 -83 106 -95 156 -280 114 -424 -10 -34 -24 -69
-32 -78 -7 -8 -13 -21 -13 -28 0 -7 -18 -38 -40 -70 -22 -31 -40 -64 -40 -73
0 -22 35 -46 78 -54 36 -7 102 -65 102 -90 0 -8 6 -25 13 -37 44 -72 -13 -268
-106 -364 -23 -23 -54 -47 -69 -54 -15 -6 -28 -15 -28 -20 0 -17 -23 -9 -46
17 -13 14 -24 29 -24 33 0 5 -7 15 -16 22 -9 8 -27 30 -39 49 -13 19 -69 83
-126 141 -57 59 -117 125 -132 148 -31 46 -58 52 -81 20 -21 -31 -3 -72 53
-116 69 -55 217 -207 248 -256 33 -51 130 -148 198 -199 104 -77 349 -231 447
-282 106 -54 323 -182 352 -207 9 -8 22 -19 29 -24 7 -6 58 -38 115 -70 57
-33 145 -88 195 -122 301 -203 511 -337 566 -363 14 -6 52 -35 85 -64 73 -63
112 -90 123 -83 8 5 110 -159 168 -267 l23 -44 -86 -16 c-196 -35 -333 -101
-458 -219 -45 -43 -97 -100 -114 -127 -18 -28 -35 -50 -39 -50 -3 1 -24 38
-46 83 -42 85 -93 181 -158 295 -21 37 -47 88 -59 115 -13 30 -28 49 -42 52
-12 2 -90 7 -175 10 -178 6 -372 -17 -526 -61 -49 -15 -112 -31 -140 -36 -27
-5 -81 -15 -120 -23 -108 -21 -459 -65 -612 -76 -76 -5 -207 -21 -293 -35
-121 -20 -214 -27 -425 -34 -148 -5 -281 -12 -295 -15 -14 -3 -45 -11 -70 -17
-55 -14 -70 -24 -70 -51 0 -46 62 -75 90 -42 27 32 106 44 342 50 128 4 267
13 308 20 41 8 111 17 155 20 44 3 89 8 101 10 17 4 27 -6 53 -55 34 -65 40
-125 20 -189 -45 -141 -67 -177 -188 -300 -71 -72 -98 -92 -147 -110 -138 -52
-235 -52 -287 1 -45 44 -72 52 -96 27 -11 -12 -22 -33 -26 -47 -12 -47 -106
-143 -200 -204 -49 -32 -93 -58 -97 -58 -8 0 -88 -34 -120 -51 -45 -24 -321 0
-351 30 -6 6 -18 11 -26 11 -21 0 -135 76 -177 118 -70 70 -119 186 -109 256
6 36 3 50 -19 85 -19 30 -33 41 -51 41 -16 0 -25 -6 -25 -15 0 -26 -39 -16
-80 21 -46 42 -90 128 -116 229 -15 57 -19 108 -19 270 1 183 2 205 24 264 34
98 81 157 131 167 17 3 50 41 50 58 0 6 -9 25 -19 43 -37 60 -38 237 -2 328
37 93 61 131 105 173 64 60 118 86 242 117 160 40 311 30 369 -25 30 -28 64
-23 84 14 26 47 98 78 180 78 74 0 161 -23 181 -48 7 -7 20 -14 30 -14 10 0
37 -16 61 -36 23 -19 54 -41 68 -49 14 -7 55 -45 91 -84 89 -98 95 -116 95
-276 0 -101 -2 -113 -25 -145 -31 -44 -57 -68 -81 -75 -14 -5 -17 -13 -12 -36
5 -25 2 -29 -16 -29 -12 0 -29 -4 -39 -9 -9 -5 -46 -14 -82 -21 -89 -16 -174
-55 -166 -76 3 -8 6 -22 6 -29 0 -8 9 -19 19 -25 16 -8 35 -3 93 24 81 38 215
73 311 82 34 3 130 19 212 34 144 27 478 68 730 90 275 24 458 64 513 113 24
22 29 67 12 112 -24 63 -163 181 -285 241 -33 17 -93 54 -133 82 -39 29 -74
52 -77 52 -2 0 -21 11 -42 25 -21 14 -47 31 -57 38 -11 6 -38 29 -61 49 -23
21 -67 55 -97 75 -101 69 -221 220 -330 417 -30 55 -172 220 -205 239 -18 11
-43 -9 -43 -34 0 -11 28 -45 61 -77 60 -55 149 -166 149 -185 0 -11 118 -183
167 -244 39 -49 40 -53 10 -53 -13 0 -29 -6 -36 -12 -8 -9 -55 -13 -164 -12
-138 0 -160 3 -239 28 -73 23 -97 37 -148 83 -53 48 -113 136 -109 160 5 28
-21 63 -45 63 -8 0 -24 -16 -37 -35 -66 -96 -438 -170 -606 -120 -56 17 -139
83 -163 131 -8 16 -19 36 -26 44 -41 55 -60 171 -41 247 7 27 11 55 9 62 -5
16 -45 31 -97 37 -22 3 -44 9 -50 13 -5 4 -31 15 -58 25 -66 25 -127 90 -180
193 -74 145 -88 273 -41 370 15 29 30 53 34 53 4 0 19 11 34 25 l27 25 -20 39
c-24 47 -78 128 -91 136 -5 3 -19 36 -31 73 -32 94 -30 210 7 335 14 50 34
103 44 117 10 14 31 53 48 86 54 107 210 214 312 214 45 0 70 26 70 73 1 115
64 287 135 366 20 22 60 54 89 70 82 47 266 100 396 115 59 7 221 -4 290 -20z
m2707 -153 c-8 -64 -31 -130 -88 -246 -42 -86 -56 -105 -97 -133 -89 -60 -257
-91 -348 -63 -16 5 -48 14 -71 20 -24 7 -43 16 -43 21 0 5 24 33 53 63 28 30
71 74 94 98 31 32 86 66 207 128 91 47 166 88 166 93 0 4 5 8 10 8 6 0 16 4
23 10 7 5 25 20 42 34 42 34 59 24 52 -33z m33 -2732 c0 -29 211 -350 315
-478 103 -128 118 -144 290 -314 136 -135 172 -163 385 -308 129 -88 262 -180
295 -205 33 -24 78 -54 100 -65 22 -12 116 -71 209 -131 94 -60 250 -150 348
-199 98 -49 178 -95 178 -102 0 -8 10 -23 23 -35 12 -11 31 -38 42 -59 10 -21
24 -45 30 -53 41 -55 91 -214 168 -530 47 -190 88 -367 91 -395 4 -27 13 -84
21 -125 81 -424 104 -688 104 -1165 0 -193 1 -406 1 -475 1 -69 -6 -182 -14
-250 -9 -69 -23 -222 -31 -340 -12 -181 -34 -383 -50 -465 -2 -11 -8 -47 -14
-80 -25 -148 -31 -180 -42 -214 -24 -80 -148 -311 -234 -436 l-90 -132 0 381
c0 347 -3 533 -21 1191 -15 567 -12 544 -138 888 -20 54 -43 140 -52 190 -8
51 -36 164 -61 252 -25 88 -65 234 -88 325 -63 242 -106 390 -126 435 -10 22
-25 65 -33 95 -18 68 -36 122 -46 135 -5 6 -13 30 -20 55 -12 43 -51 134 -110
250 -15 30 -37 87 -50 125 -12 39 -29 77 -36 86 -8 8 -14 22 -14 29 0 8 -10
24 -22 37 -12 13 -23 34 -24 46 -2 48 -17 133 -24 142 -4 6 -10 29 -14 53 -7
45 -30 94 -107 221 -47 78 -109 131 -217 185 -63 32 -189 66 -244 66 -29 0
-38 4 -38 18 0 9 -19 37 -43 62 -77 81 -258 371 -313 500 -16 36 -31 67 -35
70 -10 8 -115 240 -128 285 -7 22 -16 49 -20 60 -41 99 -91 256 -91 282 0 11
-9 46 -20 79 -14 43 -16 54 -5 40 8 -11 15 -23 15 -27z m697 -1439 c46 -7 103
-23 138 -39 33 -15 76 -34 95 -42 49 -19 131 -105 173 -180 42 -76 74 -182 80
-262 5 -73 -4 -81 -69 -61 -32 10 -114 17 -235 21 l-185 6 -179 -43 c-323 -77
-572 -186 -688 -302 -24 -24 -32 -23 -45 6 -28 62 -22 232 11 291 6 11 12 22
12 25 49 208 198 404 369 484 196 92 344 119 523 96z m1663 -490 c74 -44 396
-183 675 -290 105 -41 193 -76 197 -80 12 -9 59 -200 74 -300 17 -123 17 -223
-2 -450 -8 -102 -17 -212 -20 -245 -9 -128 -48 -362 -86 -515 -6 -25 -14 -70
-19 -100 -13 -95 -76 -329 -134 -500 -31 -91 -74 -226 -96 -300 -23 -74 -44
-137 -48 -140 -5 -3 -29 -59 -56 -125 -26 -66 -56 -135 -66 -154 -11 -18 -49
-113 -85 -210 -78 -209 -85 -223 -79 -156 3 28 12 158 20 290 9 132 20 287 25
345 13 138 13 1023 0 1170 -32 371 -107 812 -204 1200 -76 301 -122 465 -137
485 -4 6 -19 36 -33 69 -30 68 -29 68 74 6z m-1389 -144 c74 -8 148 -18 165
-22 44 -10 143 -87 144 -110 0 -6 6 -17 14 -23 8 -7 17 -24 21 -39 8 -34 45
-118 90 -203 19 -37 35 -75 35 -86 0 -10 4 -23 9 -28 4 -6 18 -41 31 -80 12
-38 26 -79 31 -90 55 -134 100 -263 114 -334 4 -18 20 -65 36 -104 17 -39 34
-103 40 -141 5 -38 34 -151 63 -250 30 -100 63 -229 75 -288 27 -129 46 -198
100 -348 83 -231 87 -264 102 -915 6 -253 14 -575 18 -715 3 -140 5 -257 3
-260 -2 -3 -8 3 -13 12 -5 9 -46 35 -92 58 -45 23 -91 49 -102 59 -11 11 -31
22 -45 26 -30 9 -163 75 -170 84 -3 4 -25 13 -50 20 -25 7 -66 24 -93 37 -62
32 -229 55 -409 56 l-137 1 -48 36 c-47 34 -49 38 -50 86 -1 68 -18 172 -36
220 -8 22 -26 108 -41 190 -15 83 -33 179 -41 215 -8 36 -24 124 -35 195 -11
72 -47 252 -80 400 -32 149 -66 308 -75 354 -9 46 -39 163 -66 260 -27 97 -65
262 -85 366 -19 105 -48 249 -64 320 -16 72 -41 204 -55 295 -46 290 -84 418
-152 509 -18 24 -33 47 -33 51 0 12 155 75 279 114 122 38 242 65 346 76 106
11 110 11 256 -4z"/>
<path d="M4854 11669 c-22 -11 -62 -42 -90 -70 l-49 -50 0 -109 c0 -74 4 -113
13 -122 6 -6 12 -20 12 -30 0 -22 34 -73 70 -105 58 -53 177 -69 236 -32 62
38 119 138 129 225 13 118 4 178 -34 241 -32 51 -59 63 -157 68 -74 3 -96 0
-130 -16z m200 -65 c9 -3 16 -12 16 -20 0 -8 3 -14 8 -14 20 0 29 -93 16 -171
-18 -112 -30 -144 -69 -173 -51 -39 -102 -36 -157 10 -63 53 -81 94 -82 184
-2 140 42 187 174 189 43 1 85 -2 94 -5z"/>
<path d="M4872 11480 c-23 -30 -26 -45 -24 -93 2 -35 39 -55 71 -37 29 15 61
68 61 102 0 30 -32 58 -65 58 -12 0 -31 -13 -43 -30z"/>
</g>
</svg>
