<?xml version="1.0" encoding="utf-8"?>
<!-- Generator: Adobe Illustrator 22.1.0, SVG Export Plug-In . SVG Version: 6.00 Build 0)  -->
<svg version="1.1" id="Layer_1" xmlns="http://www.w3.org/2000/svg" xmlns:xlink="http://www.w3.org/1999/xlink" x="0px" y="0px"
	 viewBox="0 0 1005 1280" style="enable-background:new 0 0 1005 1280;" xml:space="preserve">
<style type="text/css">
	.st0{fill:none;stroke:#000000;stroke-width:3;stroke-miterlimit:10;}
</style>
<g transform="translate(0.000000,1280.000000) scale(0.100000,-0.100000)">
	<path class="st0" d="M8741.1,12453c-294.8-35.1-670.2-142.2-1023.8-291c-269.2-113.8-697.7-337.5-998.2-521.4
		c-145-89.1-488.2-315.7-584.9-385.8c-36-26.5-109-79.6-161.2-117.5c-52.1-37-101.4-73.9-109-80.6c-7.6-6.6-36-28.4-62.6-47.4
		c-84.4-60.7-284.4-218-296.7-233.2c-10.4-12.3-33.2-15.2-104.3-15.2c-180.1-0.9-330.8-51.2-512.9-173.5
		c-149.8-100.5-335.6-289.1-435.1-442.7c-68.3-104.3-113.8-157.4-176.3-203.8c-137.5-102.4-328-282.5-436.1-412.4
		c-39.8-47.4-113.8-154.5-156.4-226.6c-27.5-47.4-113.8-241.7-113.8-256.9c0-4.7-3.8-19-9.5-32.2c-7.6-21.8-11.4-22.8-36-14.2
		c-22.8,7.6-29.4,17.1-38.9,58.8c-17.1,75.8-37.9,103.3-87.2,115.7c-28.4,7.6-41.7,15.2-40.8,25.6c0.9,8.5,21.8,45.5,47.4,83.4
		c64.5,96.7,84.4,201.9,43.6,234.2c-12.3,10.4-12.3,18-1.9,55.9c23.7,84.4,9.5,171.6-29.4,181.1c-13.3,3.8-17.1,9.5-11.4,20.9
		c12.3,26.5,14.2,181.1,2.8,210.5c-19,45.5-35.1,52.1-66.4,28.4c-27.5-19.9-28.4-19.9-28.4-1.9c0,10.4,4.7,40.8,10.4,68.3
		c11.4,54,0,154.5-26.5,238.9c-16.1,49.3-31.3,58.8-31.3,19c0-28.4-39.8-173.5-47.4-173.5c-2.8,0-17.1,27.5-31.3,60.7
		c-26.5,58.8-26.5,59.7-15.2,144.1c6.6,48.3,8.5,126.1,5.7,181.1c-4.7,82.5-10.4,107.1-34.1,158.3c-34.1,70.2-52.1,89.1-70.2,73
		c-19-15.2-25.6-2.8-25.6,50.2c0,26.5-8.5,79.6-18,116.6c-19,73-73.9,199.1-82.5,189.6c-4.7-4.7-21.8-77.7-46.5-205.7
		c-26.5-135.6-101.4-391.5-167.8-573.5c-89.1-245.5-93.9-254.1-141.3-304.3c-39.8-42.7-81.5-113.8-97.6-166.8
		c-4.7-16.1-6.6-16.1-33.2,0c-27.5,15.2-28.4,15.2-53.1-7.6c-25.6-23.7-63.5-96.7-74.9-142.2c-2.8-13.3-10.4-126.1-15.2-252.2
		c-12.3-261.6,0.9-448.4,41.7-584.9c12.3-42.7,29.4-128.9,38.9-191.5c8.5-62.6,22.8-137.5,31.3-165.9
		c13.3-44.6,16.1-104.3,16.1-393.4c0-326.1-1.9-347.9-25.6-497.7c-14.2-86.3-32.2-175.4-38.9-199.1l-13.3-42.7l-58.8-2.8
		c-34.1-1.9-57.8,0.9-57.8,6.6c0,11.4-59.7,29.4-99.5,29.4c-20.9,0-24.6,2.8-14.2,9.5c10.4,6.6,8.5,10.4-12.3,18
		c-15.2,5.7-36,10.4-47.4,10.4c-20.9,0-58.8,18-39.8,19c5.7,0,2.8,4.7-4.7,9.5c-7.6,4.7-34.1,9.5-57.8,9.5s-51.2,6.6-61.6,14.2
		c-9.5,7.6-34.1,14.2-53.1,14.2c-25.6,0-36,3.8-36,14.2s-10.4,14.2-40.8,14.2c-21.8,0-49.3,6.6-60.7,14.2
		c-10.4,7.6-37,16.1-58.8,19.9s-55.9,14.2-74.9,23.7c-19,10.4-44.6,18-56.9,18c-12.3,0-19.9,3.8-17.1,8.5
		c6.6,9.5-30.3,14.2-226.6,28.4c-73,5.7-150.7,15.2-173.5,20.9c-27.5,7.6-82.5,9.5-165.9,5.7c-140.3-6.6-143.1-7.6-413.3-133.7
		c-12.3-5.7-52.1-38.9-87.2-73.9c-52.1-52.1-73.9-82.5-111.9-161.2c-73.9-155.5-80.6-191.5-44.6-267.3l23.7-49.3l-19-55.9
		c-55-166.8-44.6-443.7,20.9-565.9c71.1-133.7,146-221.8,243.6-285.3c83.4-55,238.9-117.6,238.9-96.7c0,2.8-11.4,22.8-24.6,44.6
		c-30.3,47.4-79.6,150.7-79.6,164.9c0,7.6,34.1,9.5,121.3,5.7c206.7-7.6,268.3,5.7,441.8,99.5c14.2,8.5,54,17.1,87.2,19.9
		c60.7,4.7,60.7,4.7,103.3-35.1c55-50.2,146-109,267.3-170.6c83.4-42.7,104.3-57.8,144.1-108.1c57.8-73,206.7-218,276.8-270.2
		c39.8-30.3,60.7-55,88.2-107.1c43.6-85.3,169.7-274.9,240.8-364c29.4-36,107.1-121.3,172.5-189.6
		c110.9-113.8,125.1-131.8,182-241.7c55-105.2,137.5-286.3,166.8-365c31.3-85.3,68.3-233.2,78.7-315.7
		c13.3-102.4,8.5-130.8-18-120.4c-8.5,3.8-35.1,9.5-58.8,11.4c-37,3.8-48.3,0.9-73-19.9c-21.8-18-39.8-24.6-70.2-24.6
		c-23.7,0-54-7.6-71.1-18c-59.7-37-187.7-210.5-222.8-303.4c-23.7-64.5-28.4-152.6-8.5-176.3c31.3-37.9,133.7-56.9,160.2-30.3
		c9.5,9.5,13.3,7.6,21.8-7.6c19.9-34.1,54-61.6,76.8-61.6c51.2,0,163.1,77.7,192.4,134.6c19.9,38.9,17.1,39.8-26.5,8.5
		c-54-39.8-61.6-29.4-47.4,57.8c13.3,76.8,70.2,201.9,98.6,217.1c9.5,5.7,29.4,8.5,43.6,6.6c29.4-2.8,29.4-8.5,13.3-166.8
		c-9.5-90.1-18-110.9-63.5-156.4c-67.3-66.4,34.1-32.2,108.1,37c30.3,28.4,57.8,51.2,60.7,51.2c1.9,0,7.6-21.8,10.4-49.3
		c3.8-26.5,11.4-56.9,16.1-66.4c19.9-37,104.3-59.7,156.4-42.7c16.1,5.7,21.8,0,36-31.3c19-44.6,37-55.9,98.6-63.5
		c44.6-4.7,46.5-3.8,115.7,54c38.9,32.2,92,68.3,118.5,79.6c58.8,26.5,188.6,139.4,204.8,179.2c10.4,23.7,9.5,42.7-4.7,110.9
		l-17.1,83.4l65.4,90.1c36,49.3,84.4,126.1,107.1,170.6c33.2,65.4,43.6,79.6,54,71.1c28.4-23.7,147.9-182,241.7-320.4
		c172.5-253.1,228.5-347.9,363.1-611.5c72-140.3,138.4-266.4,146.9-279.7c9.5-13.3,30.3-51.2,47.4-85.3
		c87.2-172.5,279.7-493.9,420.9-700.6c37-54,72-105.2,76.8-113.8c5.7-7.6,25.6-39.8,45.5-70.2c19-30.3,35.1-57.8,35.1-59.7
		c0-9.5,193.4-300.5,260.7-392.5c89.1-122.3,193.4-246.5,265.4-317.6c93.9-92,235.1-213.3,249.3-213.3c5.7,0,14.2,7.6,19.9,16.1
		c10.4,19.9-5.7,32.2,196.2-142.2c185.8-160.2,222.8-187.7,305.3-229.4c70.2-35.1,134.6-52.1,134.6-37c0,18-68.3,107.1-158.3,208.6
		c-190.5,212.3-345.1,412.4-503.4,650.3c-123.2,183.9-143.1,219-173.5,315.7c-15.2,46.5-32.2,97.6-37,112.8
		c-4.7,15.2-7.6,29.4-5.7,31.3s51.2-68.3,110-155.5c95.7-142.2,235.1-336.5,388.7-543.2c28.4-38.9,103.3-134.6,165.9-212.3
		c62.6-77.7,130.8-163.1,151.7-189.6c19.9-26.5,41.7-52.1,47.4-57.8c5.7-4.7,44.6-49.3,85.3-96.7c40.8-48.3,76.8-86.3,78.7-83.4
		c4.7,3.8-28.4,62.6-78.7,142.2c-72,113.8-203.8,328-203.8,332.7c0,1.9,103.3-99.5,230.4-227.5c292-293.9,450.3-420.9,632.3-507.2
		c44.6-20.9,91-40.8,104.3-43.6c15.2-4.7-88.2,106.2-289.1,309c-311.9,314.7-375.4,383-527.1,562.2
		c-110.9,130.8-296.7,365-340.3,428.5c-7.6,11.4-40.8,56.9-73.9,100.5c-160.2,211.4-309,432.3-528,784.9
		c-11.4,18-38.9,65.4-61.6,104.3c-22.8,38.9-54,92.9-69.2,118.5c-159.3,264.5-490.1,923.3-490.1,974.5c0,5.7-6.6,22.8-14.2,37.9
		c-6.6,14.2-33.2,72-57.8,128c-73.9,170.6-136.5,314.7-176.3,409.5c-40.8,94.8-56.9,133.7-95.7,218
		c-51.2,112.8-146.9,337.5-153.6,359.3c-5.7,19.9-4.7,21.8,10.4,16.1c110.9-44.6,193.4-44.6,193.4,0c0,6.6,4.7,23.7,9.5,37.9
		c9.5,23.7,11.4,24.6,27.5,9.5c45.5-40.8,206.7-84.4,274.9-74.9l32.2,5.7l-6.6,121.3c-5.7,105.2-4.7,123.2,7.6,128
		c7.6,2.8,47.4-4.7,88.2-18c101.4-32.2,176.3-45.5,184.9-32.2c3.8,5.7,3.8,67.3,0.9,135.6l-5.7,125.1l82.5-4.7l82.5-5.7l-6.6,146
		l-6.6,146l70.2-2.8l70.2-2.8l-2.8,137.5c-2.8,75.8,0,138.4,3.8,138.4c4.7-0.9,32.2-8.5,60.7-19c59.7-20.9,128.9-24.6,134.6-6.6
		c1.9,5.7,0,107.1-2.8,224.7c-4.7,188.6-7.6,219.9-26.5,269.2c-11.4,30.3-19,57.8-16.1,59.7c2.8,2.8,34.1-14.2,69.2-37
		c102.4-67.3,146-90.1,210.5-110.9c64.5-20.9,128.9-25.6,138.4-10.4c2.8,4.7-0.9,46.5-8.5,92s-17.1,117.6-19.9,159.3
		c-2.8,41.7-7.6,100.5-10.4,129.9l-4.7,55l26.5-10.4c14.2-4.7,47.4-19.9,73-33.2c92-46.5,271.1-80.6,271.1-51.2
		c0,5.7-8.5,47.4-18,92.9c-10.4,45.5-19.9,116.6-21.8,159.3l-2.8,75.8l97.6,10.4c54,5.7,100.5,13.3,103.3,16.1
		c2.8,2.8-1.9,38.9-10.4,78.7c-8.5,40.8-21.8,124.2-29.4,184.9c-6.6,60.7-19.9,124.2-28.4,140.3c-20.9,40.8-12.3,56.9,27.5,56.9
		c45.5,0,136.5,35.1,147.9,56.9c5.7,9.5,9.5,50.2,9.5,90.1c0,95.7-32.2,190.5-99.5,287.2c-48.3,70.2-225.6,253.1-300.5,309
		c-19.9,15.2-36,30.3-36,34.1s41.7-5.7,92.9-19.9c128-37,357.4-74.9,453.1-74.9c89.1,0,198.1,20.9,253.1,49.3
		c49.3,24.6,109,79.6,141.3,129.9c29.4,47.4,34.1,77.7,12.3,95.7c-7.6,6.6-14.2,15.2-14.2,19c0,4.7,27.5,22.8,60.7,41.7
		c70.2,39.8,161.2,118.5,182,159.3c19.9,38.9,11.4,55.9-59.7,121.3c-34.1,31.3-60.7,57.8-58.8,59.7s37.9,12.3,78.7,24.6
		c129.9,36,206.7,80.6,278.7,157.4c63.5,68.3,115.7,153.6,115.7,190.5c0,12.3-21.8,40.8-53.1,70.2c-58.8,55.9-58.8,54,21.8,85.3
		c141.3,53.1,296.7,182,358.3,296.7c27.5,52.1,27.5,53.1,9.5,73c-10.4,11.4-45.5,35.1-77.7,54c-33.2,18-59.7,35.1-59.7,37
		c0,1.9,43.6,25.6,97.6,52.1c128.9,64.5,237.9,137.5,311.9,210.5c59.7,57.8,121.3,133.7,121.3,150.7c0,35.1-330.8,90.1-599.1,99.5
		c-88.2,2.8-159.3,9.5-159.3,13.3c0,14.2,37.9,31.3,388.7,171.6c396.3,159.3,687.3,308.1,972.6,496.7
		c129.9,86.3,135.6,82.5-114.7,76.8c-202.9-3.8-493-30.3-602-54c-23.7-4.7-63.5-11.4-90.1-14.2l-47.4-4.7l66.4,33.2
		c37,18,85.3,39.8,109,48.3c75.8,29.4,306.2,141.3,400,195.3c127,73.9,263.5,178.2,330.8,254.1c57.8,64.5,112.8,140.3,112.8,155.5
		c0,7.6-226.6,0.9-298.6-10.4l-37.9-5.7l92.9,88.2c92,87.2,153.6,163.1,142.2,174.4c-9.5,9.5-349.8,6.6-438.9-3.8
		c-44.6-5.7-122.3-17.1-172.5-27.5c-51.2-9.5-92.9-14.2-92.9-9.5c0,3.8,26.5,22.8,59.7,42.7c61.6,37,189.6,124.2,232.3,158.3
		c43.6,34.1,229.4,222.8,229.4,232.3c0,12.3-30.3,19-139.4,30.3c-51.2,4.7-110.9,12.3-133.7,15.2l-39.8,5.7l43.6,52.1
		c26.5,31.3,40.8,55,35.1,60.7C9243.6,12466.2,8920.3,12473.8,8741.1,12453z M3641.9,4492.7c35.1-31.3,125.1-223.7,146-310.9
		c10.4-44.6,19-91,19-103.3c0-20.9-1.9-21.8-39.8-16.1c-114.7,19-117.6,18-162.1-8.5c-28.4-16.1-59.7-25.6-90.1-27.5
		c-25.6-0.9-57.8-8.5-71.1-18c-13.3-8.5-58.8-62.6-102.4-120.4c-42.7-56.9-81.5-104.3-85.3-104.3c-20.9,0-30.3,94.8-14.2,133.7
		c7.6,18,20.9,62.6,28.4,97.6c19,81.5,24.6,89.1,38.9,62.6c11.4-21.8,12.3-20.9,33.2,24.6c37.9,84.4,93.9,266.4,110,356.4
		c7.6,48.3,16.1,92.9,18,99.5C3475.1,4572.3,3611.6,4520.2,3641.9,4492.7z M3791.7,3846.2c3.8-18-0.9-59.7-9.5-96.7
		c-7.6-36-12.3-80.6-9.5-99.5c3.8-21.8,0.9-39.8-8.5-52.1c-13.3-17.1-13.3-17.1-14.2,5.7c-0.9,23.7-0.9,23.7-30.3-9.5
		c-55.9-61.6-111.9-85.3-125.1-51.2c-8.5,21.8,9.5,89.1,52.1,198.1c44.6,113.8,63.5,137.5,107.1,137.5
		C3782.2,3878.4,3786,3875.6,3791.7,3846.2z"/>
</g>
</svg>
