<?xml version="1.0" encoding="utf-8"?>
<!-- Generator: Adobe Illustrator 22.1.0, SVG Export Plug-In . SVG Version: 6.00 Build 0)  -->
<svg version="1.1" id="Layer_1" xmlns="http://www.w3.org/2000/svg" xmlns:xlink="http://www.w3.org/1999/xlink" x="0px" y="0px"
	 viewBox="0 0 640 1280" style="enable-background:new 0 0 640 1280;" xml:space="preserve">
<style type="text/css">
	.st0{fill:none;stroke:#000000;stroke-width:3;stroke-miterlimit:10;}
</style>
<g transform="translate(0.000000,1280.000000) scale(0.100000,-0.100000)">
	<path class="st0" d="M1728.9,11982.1c-14-1.7-57.6-7.9-96-13.1c-106.5-14-327.4-65.5-454-105.6
		c-187.7-58.5-312.6-131.8-369.3-215.6c-36.7-53.3-46.3-125.7-25.3-186.8c14-42.8,70.7-131,101.3-158c9.6-9.6,18.3-20.1,18.3-24.4
		c0-5.2-19.2-30.6-42.8-56.7c-54.1-61.1-110.9-173.7-123.1-244.5c-7-41.9-6.1-67.2,4.4-117.9c27.9-137.1,104.8-241.8,336.1-460.1
		c83.8-78.6,186-175.5,227-213.9l74.2-70.7l2.6-74.2c11.3-371,125.7-908,237.5-1113.1c32.3-59.4,33.2-62.9,21-91.7
		c-44.5-105.6-85.6-322.2-99.5-523c-25.3-384.1,68.1-839.9,270.6-1319.2c134.4-318.7,406-794.5,631.2-1104.4
		c165-227,282.9-380.6,463.6-602.4c42.8-51.5,150.2-175.5,231.4-266.3c32.3-35.8,84.7-95.2,115.2-131s150.2-159.8,265.4-275
		c306.4-306.4,359.7-390.3,493.3-779.6c70.7-207.8,117-333.5,181.6-499.4c151.9-391.1,230.5-597.2,276.8-729
		c139.7-395.5,187.7-518.6,250.6-646.1c49.8-98.7,96-166.8,119.6-174.6c11.3-3.5,18.3-19.2,24.4-55
		c94.3-543.9,158-742.1,272.4-851.2c74.2-70.7,146.7-85.6,215.6-45.4c72.5,42.8,108.3,148.4,108.3,321.3c0,105.6,0,100.4-77.7,691.5
		c-33.2,254.9-81.2,618.1-104.8,807.6c-24.4,189.5-46.3,355.3-48.9,368.4c-5.2,30.6,9.6,39.3,22.7,14
		c24.4-45.4,158.9-171.1,258.4-241c42.8-30.6,95.2-46.3,120.5-36.7c35.8,14,41.9,45.4,27.1,135.3c-41,238.3-89.9,783.1-123.1,1362
		c-7,124.8-14.8,260.2-17.5,299.5c-4.4,62.9-3.5,75.1,9.6,84.7c16.6,11.3,17.5-23.6-19.2,545.7c-6.1,108.3-15.7,273.3-21,366.7
		c-4.4,93.4-17.5,333.5-29.7,532.6c-27.9,467.1-27.9,471.4-14.8,480.2c9.6,5.2,8.7,48-2.6,223.5c-7.9,119.6-21.8,363.2-31.4,540.4
		c-34,622.5-62,914.1-123.1,1270.3c-33.2,196.4-57.6,291.6-108.3,432.2c-181.6,500.3-623.4,1050.3-1231.9,1537.4
		c-213.9,171.1-494.1,360.6-535.2,361.4c-7.9,0.9-38.4,41-69.8,92.5c-135.3,220.9-349.2,472.3-518.6,608.5
		c-211.3,170.2-429.5,275-683.6,329.1C2054.5,11978.6,1798.7,11991.7,1728.9,11982.1z M1362.2,10415c41-18.3,41-19.2,35.8-49.8
		c-3.5-18.3-9.6-55-13.1-82.1c-3.5-27.9-8.7-52.4-11.3-55c-9.6-9.6-59.4,133.6-59.4,170.2c0,19.2,1.7,34.9,3.5,34.9
		S1339.5,10425.5,1362.2,10415z"/>
</g>
</svg>
