<?xml version="1.0" standalone="no"?>
<!DOCTYPE svg PUBLIC "-//W3C//DTD SVG 20010904//EN"
 "http://www.w3.org/TR/2001/REC-SVG-20010904/DTD/svg10.dtd">
<svg version="1.0" xmlns="http://www.w3.org/2000/svg"
 width="640.000000pt" height="1280.000000pt" viewBox="0 0 640.000000 1280.000000"
 preserveAspectRatio="xMidYMid meet">
<g transform="translate(0.000000,1280.000000) scale(0.100000,-0.100000)"
fill="#000000" stroke="none">
<path d="M1515 12794 c-16 -2 -66 -9 -110 -15 -122 -16 -375 -75 -520 -121
-215 -67 -358 -151 -423 -247 -42 -61 -53 -144 -29 -214 16 -49 81 -150 116
-181 11 -11 21 -23 21 -28 0 -6 -22 -35 -49 -65 -62 -70 -127 -199 -141 -280
-8 -48 -7 -77 5 -135 32 -157 120 -277 385 -527 96 -90 213 -201 260 -245 l85
-81 3 -85 c13 -425 144 -1040 272 -1275 37 -68 38 -72 24 -105 -51 -121 -98
-369 -114 -599 -29 -440 78 -962 310 -1511 154 -365 465 -910 723 -1265 189
-260 324 -436 531 -690 49 -59 172 -201 265 -305 37 -41 97 -109 132 -150 35
-41 172 -183 304 -315 351 -351 412 -447 565 -893 81 -238 134 -382 208 -572
174 -448 264 -684 317 -835 160 -453 215 -594 287 -740 57 -113 110 -191 137
-200 13 -4 21 -22 28 -63 108 -623 181 -850 312 -975 85 -81 168 -98 247 -52
83 49 124 170 124 368 0 121 0 115 -89 792 -38 292 -93 708 -120 925 -28 217
-53 407 -56 422 -6 35 11 45 26 16 28 -52 182 -196 296 -276 49 -35 109 -53
138 -42 41 16 48 52 31 155 -47 273 -103 897 -141 1560 -8 143 -17 298 -20
343 -5 72 -4 86 11 97 19 13 20 -27 -22 625 -7 124 -18 313 -24 420 -5 107
-20 382 -34 610 -32 535 -32 540 -17 550 11 6 10 55 -3 256 -9 137 -25 416
-36 619 -39 713 -71 1047 -141 1455 -38 225 -66 334 -124 495 -208 573 -714
1203 -1411 1761 -245 196 -566 413 -613 414 -9 1 -44 47 -80 106 -155 253
-400 541 -594 697 -242 195 -492 315 -783 377 -96 20 -389 35 -469 24z m-420
-1795 c47 -21 47 -22 41 -57 -4 -21 -11 -63 -15 -94 -4 -32 -10 -60 -13 -63
-11 -11 -68 153 -68 195 0 22 2 40 4 40 2 0 25 -9 51 -21z"/>
</g>
</svg>
