<?xml version="1.0" encoding="UTF-8" standalone="no"?>
<!-- Created with Inkscape (http://www.inkscape.org/) -->

<svg
   xmlns:dc="http://purl.org/dc/elements/1.1/"
   xmlns:cc="http://creativecommons.org/ns#"
   xmlns:rdf="http://www.w3.org/1999/02/22-rdf-syntax-ns#"
   xmlns:svg="http://www.w3.org/2000/svg"
   xmlns="http://www.w3.org/2000/svg"
   xmlns:sodipodi="http://sodipodi.sourceforge.net/DTD/sodipodi-0.dtd"
   xmlns:inkscape="http://www.inkscape.org/namespaces/inkscape"
   id="svg2"
   version="1.1"
   inkscape:version="0.48.5 r10040"
   width="547"
   height="486"
   sodipodi:docname="Maize.png">
  <metadata
     id="metadata8">
    <rdf:RDF>
      <cc:Work
         rdf:about="">
        <dc:format>image/svg+xml</dc:format>
        <dc:type
           rdf:resource="http://purl.org/dc/dcmitype/StillImage" />
        <dc:title></dc:title>
      </cc:Work>
    </rdf:RDF>
  </metadata>
  <defs
     id="defs6" />
  <sodipodi:namedview
     pagecolor="#ffffff"
     bordercolor="#666666"
     borderopacity="1"
     objecttolerance="10"
     gridtolerance="10"
     guidetolerance="10"
     inkscape:pageopacity="0"
     inkscape:pageshadow="2"
     inkscape:window-width="1280"
     inkscape:window-height="734"
     id="namedview4"
     showgrid="false"
     inkscape:zoom="0.68807873"
     inkscape:cx="146.47691"
     inkscape:cy="294.99624"
     inkscape:window-x="0"
     inkscape:window-y="27"
     inkscape:window-maximized="1"
     inkscape:current-layer="svg2" />
  <path
     style="fill:#181818"
     d="m 116.72213,476.37658 c -0.2173,-0.6875 -0.58327,-4.625 -0.81327,-8.75 -0.33976,-6.09362 -0.92737,-8.24597 -3.13364,-11.47814 -3.50226,-5.13078 -4.14778,-5.48824 -9.94402,-5.50655 -4.189874,-0.0132 -5.262034,0.42635 -7.889624,3.23469 -1.67246,1.7875 -3.83966,5.11035 -4.816,7.38411 -2.697239,6.28149 -7.387759,9.36589 -14.242929,9.36589 -7.44564,0 -9.88296,-1.25995 -17.8628,-9.23399 -3.70639,-3.7037 -8.10051,-7.56205 -9.76471,-8.57411 -4.87144,-2.9625 -8.07515,-8.53122 -8.07515,-14.03631 0,-2.61557 0.37787,-5.18309 0.83972,-5.70559 0.46185,-0.5225 1.44411,-2.525 2.1828,-4.45 0.7387,-1.925 2.36791,-4.75075 3.62049,-6.27944 2.8169,-3.43785 3.82339,-8.36364 2.44808,-11.98097 -1.31965,-3.47093 -5.15211,-3.65563 -11.53251,-0.55579 -4.37209,2.12413 -4.55043,2.13355 -6.52675,0.34501 -1.72772,-1.56357 -2.03183,-3.06595 -2.03183,-10.03777 0,-8.87615 0.38711,-9.62952 7.83143,-15.24104 3.70324,-2.7915 5.5721,-2.90113 4.88843,-0.28677 -0.68832,2.63215 0.83779,3.63747 6.67925,4.39993 2.69451,0.3517 5.52235,1.1567 6.28409,1.78888 1.94628,1.61528 5.92908,-0.66849 7.83755,-4.49409 1.34283,-2.69177 1.32597,-3.16983 -0.17007,-4.82295 -1.34205,-1.48294 -3.16578,-1.835 -9.50567,-1.835 -7.75495,0 -7.84501,-0.0295 -7.84501,-2.56574 0,-3.82108 1.61541,-6.16505 6.29299,-9.13119 3.61324,-2.29121 5.95649,-2.81842 16.60248,-3.7354 9.27517,-0.79891 12.57146,-1.44526 13.09457,-2.56767 0.38451,-0.825 1.17851,-2.44148 1.76444,-3.59218 0.58594,-1.1507 1.81084,-6.1007 2.722,-11 0.91117,-4.8993 2.34386,-10.25782 3.18376,-11.90782 0.8399,-1.65 2.417439,-6.15 3.505649,-10 1.0882,-3.85 2.52792,-7.675 3.19938,-8.5 0.67146,-0.825 1.7928,-3.3 2.49187,-5.5 1.40903,-4.43426 5.245174,-13.11752 8.173054,-18.5 1.04713,-1.925 2.88261,-5.525 4.07885,-8 1.19624,-2.475 2.50062,-4.725 2.89863,-5 0.39802,-0.275 1.70218,-2.3 2.89814,-4.5 1.19596,-2.2 3.30779,-5.575 4.69296,-7.5 1.38517,-1.925 3.15483,-4.4 3.93259,-5.5 7.34662,-10.39048 13.1208,-17.70917 28.45137,-36.06172 9.79299,-11.72339 20.0884,-23.70544 22.87868,-26.62677 2.79029,-2.92133 8.52936,-9.13651 12.75348,-13.81151 7.68236,-8.50236 27.14604,-28.87478 47.21674,-49.42126 5.86761,-6.00669 11.34337,-11.93886 12.16837,-13.1826 0.825,-1.24373 5.41617,-7.12916 10.2026,-13.07874 4.78643,-5.94957 11.31143,-14.116564 14.5,-18.148874 3.18857,-4.03231 7.1474,-9.029526 8.7974,-11.104927 1.65,-2.075401 4.35,-5.661296 6,-7.968656 6.76345,-9.458008 14.71932,-19.241876 16.06741,-19.75919 2.60379,-0.999166 6.26439,0.619292 8.49915,3.757713 l 2.19934,3.088694 -2.28152,4.158918 c -1.25483,2.287405 -2.80523,4.833918 -3.44532,5.658918 -0.64009,0.825 -2.00767,3.525 -3.03906,6 -1.03139,2.475 -2.38139,5.175 -3,6 -0.61861,0.825 -1.96744,3.525 -2.99741,6 -1.02996,2.475 -2.6894,5.429 -3.68763,6.56445 -0.99823,1.13545 -1.81496,2.74117 -1.81496,3.56827 0,0.8271 -2.73421,5.696294 -6.07602,10.820414 -3.34182,5.12412 -6.51018,10.4585 -7.04082,11.85418 -1.07551,2.82881 -0.53622,5.19269 1.18464,5.19269 1.88871,0 10.71935,-9.59445 27.16466,-29.514294 16.59649,-20.102961 21.29986,-26.89729 22.38883,-32.342174 1.05796,-5.289769 5.97059,-7.625062 9.93758,-4.723976 1.77986,1.301623 1.91552,2.50628 1.63291,14.5 -0.34769,14.75517 -0.22777,14.95026 6.41867,10.44241 12.28888,-8.334741 20.33614,-17.573787 27.3063,-31.350336 5.95635,-11.772734 10.39165,-16.542779 20.55257,-22.103705 2.18312,-1.194794 5.10812,-3.000957 6.5,-4.013696 3.22301,-2.345089 18.16572,-4.980318 21.83089,-3.850001 1.48489,0.457929 4.61873,1.384464 6.9641,2.058966 2.34538,0.674503 4.76298,1.827216 5.37245,2.561585 0.74599,0.89886 3.60086,1.33737 8.73568,1.341806 6.01639,0.0052 8.26125,0.436692 10.62756,2.042767 1.65,1.119897 4.44,2.659567 6.19999,3.421489 1.76,0.761922 4.76862,3.568725 6.68583,6.237339 3.1291,4.355481 4.0611,4.972689 9.10715,6.031108 3.10327,0.650918 6.93435,2.283933 8.55255,3.64556 1.61219,1.356562 5.52397,3.217462 8.69286,4.135333 3.16889,0.917872 6.21162,2.034918 6.76162,2.482327 0.55,0.447408 3.6704,1.749951 6.93422,2.894541 3.26383,1.14459 6.18883,2.427706 6.5,2.851369 0.31118,0.423663 2.55879,2.06325 4.9947,3.643527 4.14864,2.691405 4.31057,2.959763 2.55887,4.24064 -1.02853,0.752076 -2.38859,1.367411 -3.02237,1.367411 -1.81344,0 -11.56414,-3.622279 -15.92686,-5.916656 -2.17879,-1.145839 -5.10379,-2.088297 -6.5,-2.09435 -6.4889,-0.02813 -10.19667,-1.274669 -11.13538,-3.743662 -0.95855,-2.521168 -2.55585,-2.668459 -8.43905,-0.778186 -1.63882,0.526552 -2.37064,-0.04789 -3.75237,-2.945409 l -1.7165,-3.599534 -8.74763,0.288899 -8.74763,0.288898 -0.32695,3 c -0.17982,1.65 -0.74232,3.4275 -1.25,3.95 -1.68525,1.734451 -0.96665,6.163078 1.32695,8.177735 1.2375,1.087 3.825,2.784899 5.75,3.773109 3.22345,1.654779 12,12.125946 12,14.317026 0,1.71001 8.39545,7.74914 12.99518,9.34788 6.73657,2.34144 5.96873,4.435404 -1.62424,4.429454 -5.94137,-0.005 -6.26293,-0.142084 -10.5,-4.487284 -2.40402,-2.46536 -4.82094,-5.22156 -5.37094,-6.12489 -3.12745,-5.13655 -9.874,-12.990884 -12.48186,-14.531388 -1.65998,-0.980572 -3.01814,-2.08456 -3.01814,-2.453308 0,-3.150186 -17.46455,-5.457274 -18.61507,-2.459073 -1.00665,2.623303 1.29302,4.836965 7.41626,7.13888 3.32868,1.251354 6.87264,2.984079 7.87548,3.850499 1.00283,0.86642 3.67302,3.14504 5.93375,5.0636 2.57951,2.18908 4.77342,5.26104 5.89053,8.24802 0.97906,2.61786 2.27937,5.38776 2.88958,6.155334 0.61021,0.76757 1.55947,2.45908 2.10947,3.75891 0.55,1.29983 3.89807,4.04682 7.44015,6.10441 5.61968,3.26447 6.87539,4.56919 9.85643,10.24109 1.87894,3.575 3.79307,6.64156 4.25361,6.81459 0.46053,0.17302 1.35329,1.87794 1.9839,3.7887 1.40765,4.26524 0.0523,6.39671 -4.06764,6.39671 -3.03846,0 -6.60679,-3.53169 -9.98606,-9.88353 -1.05821,-1.98906 -3.75868,-5.19147 -6.00104,-7.11647 -2.24237,-1.925 -5.60736,-5.07999 -7.47775,-7.01108 -3.51486,-3.62892 -9.66209,-14.493044 -10.82289,-19.127504 -0.65999,-2.63502 -3.58771,-5.48117 -11.94418,-11.61142 -3.05575,-2.241675 -5.54503,-3.25 -8.02337,-3.25 -1.97622,0 -3.87124,-0.45 -4.21116,-1 -1.64089,-2.655009 -10.5,0.681862 -10.5,3.954926 0,1.667334 7.79636,7.045074 10.21357,7.045074 1.33417,0 3.34704,1.0125 4.47306,2.25 1.12601,1.2375 3.61729,3.45492 5.53618,4.92761 1.91888,1.47268 4.4394,4.699764 5.60115,7.171284 1.16176,2.47152 2.57663,4.78065 3.14416,5.13141 1.67962,1.03806 1.26082,11.60924 -0.53869,13.59768 -0.86382,0.95451 -2.22354,4.23594 -3.02161,7.29206 -1.36151,5.21382 -1.32632,5.78928 0.57058,9.32847 1.11188,2.07453 2.0216,4.53948 2.0216,5.47766 0,0.93819 0.45,1.98391 1,2.32383 1.59429,0.98533 1.16051,4.04477 -0.82874,5.84501 -1.00581,0.91025 -3.31517,1.65499 -5.13192,1.65499 -4.55004,0 -8.16626,-3.83919 -18.14707,-19.26599 -3.28936,-5.08418 -5.46948,-6.73401 -8.89846,-6.73401 -2.41693,0 -9.90109,-4.12609 -12.25976,-6.75893 -0.85787,-0.95759 -2.25637,-4.44107 -3.10778,-7.74107 -1.4672,-5.68683 -5.03447,-10.5 -7.78203,-10.5 -0.57433,0 -2.57424,1.53 -4.44424,3.4 -5.14818,5.14818 -4.29307,10.4901 2.01233,12.57107 5.44629,1.79743 5.88636,3.01242 3.11839,8.60946 -6.22648,12.59037 -13.4191,28.29402 -14.61983,31.91947 -0.72863,2.2 -1.85343,4.675 -2.49955,5.5 -0.64613,0.825 -1.49611,2.625 -1.88884,4 -0.39273,1.375 -2.07564,5.34781 -3.7398,8.82848 -2.11012,4.4134 -2.70852,6.6457 -1.97744,7.37678 1.52133,1.52133 5.66833,0.18568 9.4264,-3.03604 2.88186,-2.47055 5.49597,-4.32549 15.76834,-11.18898 5.56704,-3.71962 8.84062,-4.76776 15.97757,-5.1157 10.19771,-0.49715 10.52648,1.29713 1.31748,7.19006 -5.83137,3.73155 -21.39092,15.21816 -24.94226,18.41327 -0.63097,0.56767 -3.27424,2.60713 -5.87394,4.53213 -10.32881,7.64818 -46.64957,43.53612 -49.41455,48.82569 -0.66863,1.27914 -1.87669,3.07914 -2.68458,4 -3.46738,3.9523 -8.55002,10.62675 -9.57241,12.57038 -0.6087,1.15716 -1.39236,2.32893 -1.74149,2.60393 -0.34912,0.275 -1.63918,1.85 -2.8668,3.5 -3.62049,4.86618 -4.89593,6.54284 -12.1712,16 -3.80798,4.95 -8.40954,10.95875 -10.22571,13.35279 -1.81616,2.39403 -3.76171,4.86903 -4.32343,5.5 -0.56173,0.63096 -2.06466,2.49721 -3.33984,4.14721 -1.27519,1.65 -6.89059,7.22594 -12.47868,12.39097 -5.58809,5.16503 -10.85385,10.43301 -11.7017,11.70663 -0.84784,1.27361 -4.11993,5.14768 -7.27129,8.60903 -3.15137,3.46135 -6.73267,7.55035 -7.95846,9.08665 -1.22579,1.5363 -6.31251,6.96918 -11.30382,12.07306 -4.99132,5.10388 -9.36469,10.03441 -9.71862,10.95672 -0.35392,0.92232 -1.56876,1.67694 -2.69964,1.67694 -1.27307,0 -2.41812,0.9521 -3.00663,2.5 -0.52277,1.375 -1.43471,2.5 -2.02653,2.5 -0.59181,0 -3.86545,2.71759 -7.27475,6.0391 -6.761,6.58689 -18.87554,15.46545 -26.64637,19.5287 -2.70987,1.41696 -5.46034,3.21887 -6.11214,4.00424 -0.65181,0.78538 -1.72656,1.42796 -2.38834,1.42796 -0.66178,0 -2.26012,1.125 -3.55187,2.5 -1.29175,1.375 -2.76793,2.5 -3.28041,2.5 -0.51248,0 -2.57154,1.28834 -4.57569,2.86299 -2.00414,1.57464 -4.9939,3.60536 -6.6439,4.51271 -1.65,0.90736 -3.73541,2.17136 -4.63425,2.80889 -1.30245,0.92381 -2.81551,0.59986 -7.45235,-1.59558 -4.78821,-2.26711 -6.71162,-2.65815 -10.86575,-2.2091 -2.77621,0.30011 -8.42265,0.6749 -12.54765,0.83287 l -7.5,0.28722 -0.29895,4.60694 c -0.22423,3.45558 0.2756,5.50683 2,8.20767 2.05928,3.22535 4.7989,4.90109 4.79898,2.93539 2e-5,-0.4125 1.60912,-2.0339 3.57579,-3.60311 l 3.57577,-2.85311 2.1742,2.0056 c 1.19582,1.10308 3.92217,2.97575 6.05856,4.16149 l 3.88435,2.15588 2.77489,-2.65851 c 1.52619,-1.46218 3.82823,-2.6133 5.11565,-2.55803 11.62069,0.49881 15.15514,0.99044 15.91079,2.2131 0.93401,1.51126 0.20692,5.68494 -1.33036,7.63669 -1.48558,1.8861 -5.2025,1.50105 -7.23967,-0.75 -2.04471,-2.25938 -4.9989,-2.61935 -6.15509,-0.75 -0.42522,0.6875 -0.79397,5.075 -0.81945,9.75 -0.0499,9.1543 -1.07239,12.03934 -6.20407,17.50504 -6.04848,6.44217 -8.15373,7.49496 -14.98763,7.49496 -4.23984,0 -6.52974,-0.42146 -6.79162,-1.25 z m 16.19094,-9 c 6.67115,-7.21045 8.13587,-17.28834 3.0612,-21.06222 l -2.70572,-2.01216 -4.13415,2.73585 c -3.86709,2.55912 -4.25182,2.62935 -5.95584,1.08723 -2.3877,-2.16084 -7.36225,-1.62688 -7.83052,0.84051 -0.19198,1.01157 0.57149,2.81909 1.6966,4.01671 2.70176,2.8759 7.13535,11.28303 7.13535,13.53033 0,0.97923 0.3,2.08042 0.66667,2.44708 1.45714,1.45715 6.09575,0.54665 8.06641,-1.58333 z m -53.719893,-8.26589 c 0.86238,-1.03911 1.09176,-3.58779 0.7293,-8.10326 -0.49163,-6.12469 -0.83478,-6.90134 -4.88563,-11.05743 -2.39627,-2.45854 -5.87432,-5.11207 -7.72899,-5.89674 -3.69974,-1.56529 -10.87021,-1.8765 -12.94352,-0.56178 -1.35279,0.85783 -4.18435,5.72078 -4.18435,7.18624 0,1.47195 16.57095,17.85253 19.0703,18.85122 3.69959,1.47829 8.5378,1.27477 9.94289,-0.41825 z m 20.692769,-16.99071 c 1.183034,-0.82863 3.540284,-4.07168 5.238324,-7.20678 3.34157,-6.16955 3.3309,-6.29607 -1.28974,-15.28662 -2.91767,-5.677 -17.641373,-0.84159 -17.663563,5.80089 -0.006,1.83682 1.03215,3.5579 3.25,5.38726 2.612749,2.15509 3.011139,2.93838 2.009019,3.95 -2.871429,2.89865 -0.057,8.86185 4.18248,8.86185 1.16738,0 3.09044,-0.67797 4.27348,-1.5066 z m 56.986884,-25.69629 c 2.09394,-1.21159 6.15045,-3.91159 9.01446,-6 2.86402,-2.08841 5.86699,-3.79711 6.67328,-3.79711 0.80628,0 2.92617,-1.2375 4.71086,-2.75 1.78468,-1.5125 4.67374,-3.65 6.42013,-4.75 8.67591,-5.46472 10.48843,-6.7608 10.48843,-7.5 0,-0.44135 1.4625,-1.68131 3.25,-2.75548 1.7875,-1.07417 7.075,-5.53186 11.75,-9.90598 4.675,-4.37412 9.44314,-8.60221 10.59587,-9.39575 1.95449,-1.34547 8.22813,-8.53219 19.7035,-22.57122 8.19073,-10.02057 10.11149,-12.34622 12.93466,-15.66123 1.50371,-1.76569 2.74121,-3.4811 2.75,-3.81203 0.009,-0.33092 1.37638,-2.13092 3.0391,-4 1.66272,-1.86907 3.91215,-4.52331 4.99873,-5.89831 1.08658,-1.375 3.25079,-4.075 4.80936,-6 1.55856,-1.925 6.04165,-7.55 9.96241,-12.5 3.92076,-4.95 8.04557,-10.125 9.16625,-11.5 6.46183,-7.9283 11.719,-14.52672 27.75131,-34.83147 3.18384,-4.03231 7.25131,-9.13738 9.03881,-11.34461 1.7875,-2.20723 3.25,-4.59047 3.25,-5.29609 0,-0.70562 0.72546,-1.88502 1.61213,-2.62089 0.88667,-0.73587 2.6673,-3.6448 3.95696,-6.46428 1.28966,-2.81949 3.03921,-5.70261 3.88788,-6.40694 0.84866,-0.70434 1.54358,-1.78801 1.54425,-2.40816 6.7e-4,-0.62016 1.07624,-2.37753 2.39016,-3.90527 1.31391,-1.52773 2.93267,-4.22773 3.59725,-6 0.66458,-1.77226 2.28901,-5.47875 3.60985,-8.23664 2.90079,-6.05682 3.05587,-10.46021 0.47984,-13.62487 l -1.92168,-2.36078 -3.20769,3 c -1.76424,1.65 -4.73945,5.25 -6.61158,8 -1.87214,2.75 -4.75497,6.8 -6.40631,9 -1.65133,2.2 -4.20883,5.8 -5.68332,8 -1.4745,2.2 -3.82095,5.41349 -5.21432,7.14109 -3.9981,4.9571 -9.65205,12.69258 -16.22465,22.19784 -1.26982,1.83641 -3.54627,4.82082 -5.05877,6.63202 -1.5125,1.81119 -2.75,3.72643 -2.75,4.25608 0,0.52965 -0.95082,1.82024 -2.11294,2.86798 -2.08974,1.88407 -8.8776,10.56854 -12.04067,15.40499 -0.89926,1.375 -4.94507,6.35583 -8.9907,11.06851 -4.04563,4.71268 -8.93069,10.52691 -10.85569,12.92052 -7.72203,9.6018 -9.53074,11.58678 -33.42738,36.68498 -4.36006,4.5793 -8.23328,8.32599 -8.60714,8.32599 -0.37387,0 -2.92977,2.25 -5.67977,5 -5.88389,5.8839 -7.81741,6.4085 -6.91071,1.875 0.34375,-1.71875 0.625,-4.6795 0.625,-6.57946 0,-3.37321 0.0764,-3.43811 3.25,-2.75952 1.7875,0.38221 3.82337,1.15709 4.52417,1.72195 1.59669,1.287 1.66851,1.20802 4.13584,-4.54803 1.6483,-3.84532 2.61982,-4.86591 5.10519,-5.36298 2.19855,-0.43971 3.44124,-1.49819 4.37966,-3.73043 0.72059,-1.71409 2.65763,-4.55286 4.30454,-6.30838 4.27346,-4.55528 6.64792,-8.28837 7.82869,-12.30815 0.74158,-2.52458 1.68032,-3.59338 3.3684,-3.83507 1.28717,-0.18428 3.93443,-1.92918 5.8828,-3.87755 3.0788,-3.0788 3.38302,-3.79784 2.32419,-5.4933 -1.46654,-2.3483 0.0664,-4.79408 3.00478,-4.79408 1.06799,0 3.00025,-1.71795 4.5268,-4.02473 2.2695,-3.42944 2.49663,-4.39083 1.53563,-6.5 -1.10788,-2.43153 -1.04929,-2.47527 3.31557,-2.47527 5.42475,0 7.05504,-2.21344 6.08738,-8.26483 l -0.63935,-3.99831 3.19574,0.63915 c 3.85745,0.77149 6.86997,-1.47509 6.86997,-5.12327 0,-3.53476 3.21461,-7.08488 9.22892,-10.19213 2.89909,-1.49779 5.39921,-3.384 5.55582,-4.19156 0.45206,-2.33119 -7.36926,-6.86905 -11.8393,-6.86905 -4.1961,0 -5.70848,1.64243 -6.90612,7.5 -0.45191,2.2103 -1.26172,3.09103 -3.07635,3.34582 -4.42194,0.62087 -5.24691,2.0862 -4.68199,8.31628 l 0.51867,5.71994 -4.68308,-0.55464 c -6.13818,-0.72698 -7.54686,0.84274 -6.8901,7.67777 l 0.47994,4.99483 -4.02446,0 c -5.67317,0 -7.68195,2.14432 -7.68195,8.2003 l 0,4.89033 -3.25,-0.5614 c -4.20336,-0.72609 -7.68653,1.91608 -8.62549,6.5429 -0.56687,2.79334 -1.20905,3.4875 -3.46914,3.74999 -1.52542,0.17717 -3.02006,0.96467 -3.32142,1.75 -0.80177,2.08938 -3.01845,1.74237 -3.62238,-0.56707 -0.64069,-2.45003 -3.44972,-3.6669 -4.96554,-2.15108 -0.82605,0.82605 -0.54628,1.72975 1.06721,3.44724 2.68585,2.85894 2.79655,5.30207 0.30078,6.63777 -2.84389,1.522 -6.11402,7.73608 -6.11402,11.61818 0,3.41909 -0.0314,3.44284 -4.54775,3.44284 -3.63334,0 -5.04082,0.53203 -7,2.64602 -1.34874,1.45532 -2.45225,3.61532 -2.45225,4.8 0,2.75566 -1.80763,4.55398 -4.57756,4.55398 -3.31808,0 -4.75585,2.40925 -3.96225,6.6395 0.96933,5.16696 5.43274,9.3605 9.96289,9.3605 5.4933,0 5.06984,0.90937 -4.19102,9 -1.57388,1.375 -4.84133,4.075 -7.261,6 -2.41967,1.925 -6.04507,4.9625 -8.05643,6.75 -4.89847,4.35327 -5.91463,4.14793 -5.91463,-1.19521 l 0,-4.44521 4.75,-0.30479 c 4.29592,-0.27565 4.7792,-0.55679 5.05543,-2.94088 0.2373,-2.04805 0.99678,-2.77435 3.40469,-3.25593 4.31456,-0.86292 5.78988,-2.36105 5.78988,-5.87941 0,-3.49635 -5.6577,-9.72857 -8.83175,-9.72857 -2.55465,0 -7.37653,6.39986 -6.97893,9.26284 0.25427,1.83099 -0.10864,2.17853 -1.99895,1.9142 -3.00036,-0.41955 -5.19037,1.45613 -5.19037,4.4454 0,2.0863 -0.46552,2.37756 -3.8,2.37756 -2.09,0 -4.34,0.54 -5,1.2 -1.81786,1.81786 -1.43915,5.2736 0.8,7.3 1.1,0.99549 2,2.25312 2,2.79474 0,1.54667 3.27426,3.63846 5.75,3.67346 3.19326,0.0451 2.78677,1.38953 -1,3.30732 -1.7875,0.90527 -6.175,3.29566 -9.75,5.31199 -3.575,2.01632 -8.47777,4.73306 -10.89504,6.03719 -2.41727,1.30413 -4.91459,2.80235 -5.54961,3.32936 -0.63502,0.52702 -3.00671,1.25439 -5.27044,1.61637 -3.79024,0.60609 -4.14232,0.47111 -4.45038,-1.70614 -0.27898,-1.97166 -0.91576,-2.36429 -3.83453,-2.36429 -3.31651,0 -3.5,0.17898 -3.5,3.41383 0,2.17861 -0.54274,3.5679 -1.5,3.83963 -0.825,0.2342 -2.85,1.01391 -4.5,1.7327 -1.65,0.71879 -5.025,1.63071 -7.5,2.0265 -5.83365,0.93287 -8,2.12438 -8,4.40008 0,2.70235 1.98857,3.9055 6.5,3.93269 6.74173,0.0406 19.90938,-2.1026 21.57874,-3.51227 0.86831,-0.73324 2.21831,-1.33994 3,-1.34822 1.48563,-0.0157 5.98256,-1.59632 11.92126,-4.1901 1.925,-0.84076 4.81608,-1.84184 6.42463,-2.22463 4.80217,-1.14277 1.21585,2.18295 -3.79112,3.51564 -2.27343,0.60511 -4.80851,1.69828 -5.63351,2.42927 -0.825,0.73098 -2.70438,1.62959 -4.1764,1.99691 -3.58903,0.89557 -6.05811,3.80203 -5.65396,6.6555 0.27446,1.93781 1.09177,2.43396 4.83036,2.93228 8.81413,1.17483 11.84599,0.92315 15.69284,-1.3027 z m 6.30716,-19.76193 c 0,-1.19263 3.96287,-3.40564 4.72815,-2.64037 0.82593,0.82594 -1.75705,3.60519 -3.35059,3.60519 -0.75766,0 -1.37756,-0.43417 -1.37756,-0.96482 z m 15.62141,-9.23162 c 0.32956,-0.53324 3.02456,-2.52101 5.98889,-4.41727 2.96434,-1.89626 5.3897,-3.85328 5.3897,-4.34892 0,-1.1126 5.93717,-5.43353 6.58111,-4.78959 1.00957,1.00956 -0.80249,3.44882 -3.86247,5.19938 -1.77025,1.01273 -4.16147,2.68941 -5.31382,3.72595 -2.50457,2.25287 -9.63826,6.01362 -8.78341,4.63045 z m 19.37859,-14.71857 c 0,-1.09799 8.9152,-9.08499 10.14079,-9.08499 1.38254,0 0.98974,1.8129 -0.69564,3.21057 -0.85516,0.70919 -2.89568,2.52693 -4.53447,4.03943 -3.02334,2.79034 -4.91068,3.49559 -4.91068,1.83499 z m 14,-12.46255 c 0,-0.20765 0.7875,-0.99515 1.75,-1.75 1.58606,-1.24387 1.62143,-1.2085 0.37756,0.37756 -1.30637,1.66575 -2.12756,2.19548 -2.12756,1.37244 z M 77.462107,405.25546 c 6.03108,-2.56981 7.96155,-5.74544 8.48902,-13.96444 0.59599,-9.2869 -0.89579,-14.15974 -5.12424,-16.7381 -3.20934,-1.95694 -11.08149,-2.65022 -12.06285,-1.06235 -0.29369,0.4752 0.35476,2.70346 1.44099,4.9517 3.08718,6.38974 2.1608,18.13154 -1.54263,19.55269 -1.78564,0.68521 -4.74317,6.40069 -3.96426,7.66099 0.88656,1.43449 9.05928,1.17805 12.76397,-0.40049 z m 41.136553,-8.74357 c 2.18463,-1.71843 2.63151,-2.79587 2.38486,-5.75 -0.29952,-3.58725 -0.36735,-3.63938 -5.13122,-3.94327 -4.75338,-0.30323 -7.67231,0.91519 -7.67231,3.20256 0,1.38801 5.81888,8.6054 6.93795,8.6054 0.43578,0 2.00211,-0.95161 3.48072,-2.11469 z m 34.0327,-8.83157 c 1.68709,-1.86422 1.66968,-2.075 -0.41311,-5 -3.36268,-4.72245 -8.03826,-3.59038 -8.03826,1.94626 0,4.95966 5.06898,6.79123 8.45137,3.05374 z m -15.67388,-4.61044 c 4.80555,-3.36594 0.92641,-9.79146 -5.58446,-9.25027 -3.58575,0.29805 -3.69303,0.42231 -3.69303,4.27744 0,3.23122 0.46547,4.20595 2.5,5.23526 3.24841,1.64342 4.10379,1.6103 6.77749,-0.26243 z m 28.02358,-5.02847 c 0.38921,-3.98846 -1.64258,-5.62778 -6.48128,-5.22936 -3.12737,0.25752 -3.87967,0.73734 -4.15015,2.647 -0.51098,3.60777 2.57072,6.31981 6.77925,5.96604 3.15831,-0.26549 3.58441,-0.63978 3.85218,-3.38368 z m -44.30107,-3.40113 c 0,-1.78023 -3.29848,-2.61522 -4.71909,-1.19461 -0.55365,0.55365 -0.68839,1.52159 -0.29942,2.15096 0.99405,1.6084 5.01851,0.84148 5.01851,-0.95635 z m 25,-3.5137 c 0,-3.81332 -0.15761,-4.01507 -3.37716,-4.32284 -4.56825,-0.43671 -5.87183,1.02712 -4.05423,4.55263 1.81087,3.51245 2.93436,4.34522 5.43139,4.02594 1.62405,-0.20766 2,-1.00764 2,-4.25573 z m -16.20717,-6.75 c 3.33349,-1.54812 3.3828,-2.72893 0.25492,-6.10398 -2.6302,-2.83803 -7.24229,-3.55148 -9.34775,-1.44602 -1.91171,1.91171 -1.3947,5.42024 1.05,7.12558 2.77804,1.93786 4.57934,2.03291 8.04283,0.42442 z m 26.12956,0.37557 c 0.91451,-1.4797 1.07677,-9.49759 0.24014,-11.86629 -0.76256,-2.15902 -0.59414,-2.23195 4.61893,-2 6.84166,0.3044 8.96162,-1.2322 8.5302,-6.1829 -0.29941,-3.43585 -0.17413,-3.58741 3.18834,-3.85697 3.16478,-0.25372 5.61236,-1.03386 10,-3.18743 0.825,-0.40493 1.63764,-1.65578 1.80587,-2.77968 0.39298,-2.62544 3.04035,-4.97693 6.092,-5.41112 2.41615,-0.34378 2.92438,-0.94299 5.30016,-6.24894 0.71608,-1.59927 2.20197,-3.39814 3.30197,-3.99749 5.9361,-3.23437 8.5,-5.78577 8.5,-8.45855 0,-1.77131 1.08988,-3.80618 3.03849,-5.67307 3.14743,-3.01544 5.96151,-7.78427 5.96151,-10.10258 0,-0.73269 -1.8,-2.52336 -4,-3.97925 -2.2,-1.45589 -4,-3.03727 -4,-3.51419 0,-1.78983 6.69118,-0.86583 8.54229,1.17962 1.44919,1.60134 2.84301,1.98216 6.40499,1.75 4.47137,-0.29143 4.56846,-0.37171 5.43345,-4.49292 0.82053,-3.90937 0.66673,-4.41019 -2.25,-7.32693 -1.7219,-1.7219 -3.13073,-3.54611 -3.13073,-4.0538 0,-0.5077 -0.6199,-0.92308 -1.37756,-0.92308 -0.75765,0 -1.93775,-0.675 -2.62244,-1.5 -2.13682,-2.57472 -6.64688,-1.75633 -11.73825,2.13 -6.57102,5.01577 -7.38788,6.49389 -8.12061,14.69446 l -0.64114,7.17554 -6.20078,0.5 c -3.41043,0.275 -6.64593,0.95 -7.19,1.5 -0.54408,0.55 -1.12873,3.25 -1.29922,6 -0.2994,4.829 -0.42479,5.0171 -3.66636,5.5 -2.57481,0.38357 -3.85554,1.36955 -5.5,4.23422 -1.179,2.05383 -4.28114,5.13373 -6.89364,6.84424 -4.31286,2.8238 -4.75,3.46622 -4.75,6.98059 0,2.84713 0.52884,4.15361 2,4.94095 2.29518,1.22834 2.71687,5 0.55902,5 -0.79254,0 -1.7191,-0.45 -2.05902,-1 -1.16465,-1.88444 -7.31833,-1.11137 -9.46104,1.18856 -2.15545,2.3136 -2.71817,6.27363 -1.03896,7.31144 0.55,0.33992 1,1.49148 1,2.55902 0,1.53447 -0.70057,1.94098 -3.34501,1.94098 -3.35374,0 -4.84233,1.16666 -7.48709,5.8679 -0.95545,1.69837 -1.02614,2.67386 -0.25,3.45 0.59515,0.59515 1.0821,2.0421 1.0821,3.21543 0,1.17334 0.3,2.43334 0.66667,2.8 0.98634,0.98634 10.12685,0.80978 10.75572,-0.20776 z m -41.98749,-2.10082 c 1.90244,-0.7233 2.56534,-1.69207 2.56604,-3.75 7.8e-4,-2.32171 5.03808,-13.2301 12.3641,-26.77475 0.89245,-1.65 1.65529,-3.45 1.69519,-4 0.0399,-0.55 1.62407,-3.025 3.52037,-5.5 1.8963,-2.475 4.09297,-5.85 4.88148,-7.5 0.78851,-1.65 3.03211,-5.21671 4.98579,-7.92602 1.95367,-2.70931 3.55213,-5.32765 3.55213,-5.81854 0,-0.49088 2.8125,-4.43381 6.25,-8.76208 3.4375,-4.32827 7.375,-9.33343 8.75,-11.12258 2.76896,-3.60299 13.44587,-16.51852 15.59994,-18.87078 1.29306,-1.41203 3.17175,-3.66035 12.90006,-15.43814 2.2,-2.66348 5.8673,-6.77527 8.14956,-9.13731 2.28226,-2.36205 5.37317,-5.89886 6.86869,-7.85959 1.49552,-1.96073 3.35484,-3.56496 4.13182,-3.56496 0.77699,0 1.71016,-0.7875 2.07373,-1.75 0.63287,-1.67545 13.21312,-14.26758 19.00633,-19.02429 3.57558,-2.93586 15.63692,-12.73017 21.21281,-17.22571 9.53898,-7.69076 19.66853,-16.39116 24.48233,-21.0282 12.7237,-12.25648 43.41322,-39.81603 46.6085,-41.85497 4.15809,-2.65332 11.15682,-10.89139 10.79889,-12.71116 -0.72832,-3.7029 -3.34688,-3.87521 -8.28138,-0.54496 -2.59342,1.75028 -6.5909,4.13309 -8.88329,5.29514 -2.2924,1.16205 -4.39299,2.44192 -4.66799,2.84415 -0.275,0.40223 -2.51119,1.75128 -4.96932,2.99788 -2.45812,1.2466 -5.60812,3.05119 -7,4.01019 -1.39187,0.95901 -5.45568,3.59014 -9.03068,5.84697 -3.575,2.25683 -7.51792,4.8548 -8.76205,5.77326 -1.24413,0.91847 -5.29413,3.59884 -9,5.95638 -3.70587,2.35754 -7.19965,4.68901 -7.76394,5.18105 -0.5643,0.49204 -2.3643,1.74619 -4,2.78702 -3.15704,2.00887 -10.89626,9.76786 -23.97642,24.03765 -4.39867,4.79874 -11.54479,12.14151 -15.88025,16.31729 -7.22696,6.96076 -19.2708,20.0528 -26.99663,29.34622 -6.97252,8.38726 -8.67706,10.39721 -11.65737,13.74609 -6.55347,7.36393 -19.23687,22.65085 -21.57193,26 -1.34213,1.925 -3.79686,5.3 -5.45497,7.5 -1.65811,2.2 -5.54797,7.825 -8.64414,12.5 -3.09617,4.675 -5.92395,8.725 -6.28397,9 -0.59386,0.45362 -9.89005,15.41058 -13.87785,22.32853 -0.89676,1.55569 -2.98048,5.02256 -4.63048,7.70414 -1.65,2.68159 -4.35,7.16916 -6,9.97239 -2.82882,4.80597 -3.19251,5.06779 -6.3739,4.58863 -1.85565,-0.27949 -3.55196,-0.68622 -3.76959,-0.90385 -0.21763,-0.21763 1.21403,-2.14937 3.18146,-4.29276 1.96744,-2.14339 7.17824,-11.09708 11.57957,-19.89708 4.40133,-8.8 9.01538,-17.125 10.25346,-18.5 1.23807,-1.375 3.84985,-4.975 5.80396,-8 11.70688,-18.12251 20.3413,-30.31452 28.82504,-40.70164 16.99111,-20.80319 28.32242,-33.83133 39.4124,-45.31429 42.74114,-44.25569 45.28827,-47.02828 54.04423,-58.82769 5.64614,-7.60866 9.24671,-15.20934 8.09086,-17.07953 -1.098,-1.77661 -5.42582,-1.21729 -7.29749,0.94312 -0.9625,1.11099 -3.325,3.73435 -5.25,5.82971 -1.925,2.09535 -4.36072,4.89886 -5.4127,6.23003 -1.58001,1.9993 -18.19028,20.44422 -23.5873,26.19257 -0.825,0.87871 -5.99036,5.78941 -11.47858,10.91268 -13.19704,12.31948 -47.35587,46.5239 -50.52142,50.58885 -1.375,1.76567 -4.075,4.93257 -6,7.03756 -1.925,2.105 -4.85,5.51173 -6.5,7.57053 -1.65,2.0588 -3.45318,4.27761 -4.00708,4.93069 -0.55389,0.65307 -3.59548,5.01241 -6.75909,9.68741 -3.16361,4.675 -7.88543,11.52179 -10.49293,15.21508 -2.60749,3.69329 -5.8659,8.60142 -7.2409,10.90695 -1.375,2.30553 -3.58039,5.80874 -4.90087,7.78492 -4.41549,6.60807 -8.01063,14.33792 -10.23159,21.9988 -1.2109,4.17684 -2.61789,8.14027 -3.12664,8.80763 -0.50875,0.66735 -1.17538,4.86639 -1.48141,9.33119 -0.50406,7.35405 -0.77765,8.20194 -2.90795,9.01187 -3.960694,1.50586 -3.212504,6.52447 1.64846,11.05724 4.39214,4.0956 4.7326,5.03342 2.5,6.88632 -2.20418,1.8293 -1.8402,4.03547 1.18709,7.19528 2.93499,3.06347 3.90174,3.29175 7.74781,1.82947 z m 26.20778,-12.37519 c 2.31934,-2.33331 2.43101,-5.28616 0.30226,-7.99243 -1.69562,-2.15562 -2.91909,-2.65713 -6.48234,-2.65713 -4.77732,0 -6.4626,1.65614 -6.4626,6.35085 0,3.52896 4.59471,6.78887 8.5,6.03069 1.65,-0.32033 3.5142,-1.09972 4.14268,-1.73198 z m 7.8887,-13.14956 c 0.8446,-2.70348 1.43791,-3.97412 2.71226,-5.80857 1.05326,-1.5162 0.95163,-2.03496 -0.62867,-3.20897 -3.17003,-2.35506 -9.94052,-2.88259 -13.48326,-1.05057 -4.07221,2.10582 -4.49871,7.09788 -0.72885,8.53118 1.32157,0.50246 2.69813,1.39132 3.05902,1.97525 1.04033,1.6833 8.51962,1.32183 9.0695,-0.43832 z m 9.85361,-11.96482 c 0.88826,-1.35565 1.61501,-3.96922 1.61501,-5.80794 0,-3.11864 0.28537,-3.40637 4.25,-4.28518 3.98115,-0.88247 4.26949,-1.17687 4.55809,-4.65398 0.34869,-4.20095 -3.00408,-9.78808 -5.8737,-9.78808 -0.92923,0 -2.2497,-0.675 -2.93439,-1.5 -1.93341,-2.32962 -3.70966,-1.78836 -5.42676,1.65364 -1.933,3.8748 -1.9425,5.77406 -0.0414,8.28749 0.80751,1.06762 1.4682,2.53012 1.4682,3.25 0,2.02804 -2.80403,1.54355 -4,-0.69113 -1.47757,-2.76086 -3.13926,-2.50786 -6.48838,0.98787 -2.67045,2.78736 -2.76979,3.17324 -1.48022,5.75 2.08916,4.17445 4.08982,6.26213 6.00114,6.26213 0.94742,0 2.28277,0.675 2.96746,1.5 1.79573,2.16372 3.53984,1.85123 5.38499,-0.96482 z m 17.42695,-25.49469 c 2.55802,-3.4599 2.83275,-7.42427 0.64111,-9.25106 -0.85082,-0.70919 -2.5897,-2.34391 -3.86417,-3.63273 -1.83115,-1.85175 -2.71281,-2.12927 -4.20305,-1.323 -1.03721,0.56117 -2.68354,1.26795 -3.65851,1.57062 -6.22217,1.93163 -0.68109,15.59568 6.3244,15.59568 1.69058,0 3.3221,-1.01434 4.76022,-2.95951 z m 9.35932,-12.69548 c 2.55104,-2.30866 2.27981,-6.06485 -0.72215,-10.00062 -3.08702,-4.04729 -7.06164,-4.44191 -10.96054,-1.08822 -2.84939,2.45095 -2.72179,3.12435 1.89375,9.99383 2.16276,3.21891 6.86129,3.7445 9.78894,1.09501 z m 9.30843,-8.32257 c 2.5628,-2.83186 1.52499,-9.36434 -2.08659,-13.13402 -4.91371,-5.1288 -15.37604,-3.31938 -11.54986,1.9975 0.63884,0.88775 1.63806,2.73908 2.22048,4.11408 1.29198,3.05016 6.89637,9 8.47746,9 0.63186,0 1.95419,-0.8899 2.93851,-1.97756 z m 43.69157,-3.67743 c 2.51879,-2.27947 2.30794,-3.51173 -1.17126,-6.84501 -1.65,-1.5808 -3,-3.23999 -3,-3.68709 0,-1.62596 4.73717,-0.76081 6.5,1.18709 2.67591,2.95685 7.30231,2.65017 8.52475,-0.5651 2.08663,-5.48825 1.23366,-8.60385 -3.73716,-13.65055 -3.99756,-4.05859 -5.2931,-4.78435 -8.54049,-4.78435 -4.6516,0 -9.7471,3.42522 -9.7471,6.55206 0,1.40993 -1.40815,3.15178 -4,4.94794 -3.94402,2.73321 -4.96577,4.78508 -2.99065,6.00578 0.55515,0.3431 1.7931,2.15149 2.75101,4.01865 2.14193,4.17506 7.77671,8.47557 11.10518,8.47557 1.36234,0 3.29991,-0.74474 4.30572,-1.65499 z m -32.75748,-10.47263 c 0.85814,-1.72019 1.29859,-4.1702 0.97877,-5.44447 -0.54737,-2.1809 -0.26792,-2.33476 4.76298,-2.62237 4.75333,-0.27175 5.38149,-0.56716 5.67913,-2.67088 0.18407,-1.30093 -0.15343,-2.85343 -0.75,-3.45 -0.59656,-0.59656 -1.08466,-1.97816 -1.08466,-3.07021 0,-3.36516 -3.91731,-6.61445 -7.97431,-6.61445 -4.81093,0 -6.02569,1.4515 -6.02569,7.2 0,4.7859 -0.01,4.8 -3.37756,4.8 -4.4473,0 -5.92077,1.89282 -5.05714,6.49641 0.46601,2.48403 1.39871,3.91961 2.92315,4.4992 1.23133,0.46815 2.51103,1.56065 2.84378,2.42779 1.08816,2.83569 5.35992,1.90007 7.08155,-1.55102 z m 54.33602,-17.87238 c 0.19089,-2.67462 -0.41571,-4.20747 -2.57225,-6.5 -2.86059,-3.04096 -8.61426,-7.5 -9.67755,-7.5 -1.75704,0 -6.5,4.6727 -6.5,6.40371 0,1.11518 2.1375,4.19966 4.75,6.8544 4.44451,4.51638 5.03941,4.808 9.25,4.53435 4.36532,-0.28371 4.50748,-0.39721 4.7498,-3.79246 z m -35.2498,-8.95122 c 0,-4.12278 -0.27561,-4.59636 -3.73532,-6.41827 -3.61812,-1.90532 -3.79855,-1.90984 -5.75,-0.14379 -2.76073,2.49842 -2.52564,5.37052 0.71659,8.75467 2.03551,2.12462 3.50025,2.7754 5.75,2.55472 2.86184,-0.28072 3.01873,-0.52745 3.01873,-4.74733 z m 46.52475,2.38612 c 0.53639,-1.4108 0.97524,-4.6733 0.97522,-7.25 -3e-5,-4.14171 -0.39964,-5.00375 -3.44657,-7.4349 -2.80656,-2.23936 -4.45501,-2.75 -8.87753,-2.75 -6.58713,0 -8.07439,1.3588 -7.11057,6.49641 0.47636,2.53919 1.393,3.91744 3.01572,4.5344 1.28225,0.4875 4.20533,2.70501 6.49575,4.92778 4.83365,4.6909 7.55508,5.1399 8.94798,1.47631 z m 25.67339,-7.09066 c 0.73922,-1.92637 -3.18942,-5.59277 -5.50361,-5.13624 -2.0694,0.40824 -3.63399,3.20441 -2.88506,5.15608 0.86967,2.26633 7.51742,2.25061 8.38867,-0.0198 z m -59.89814,-0.54424 c 3.57793,-3.57793 -1.20321,-13.8 -6.45464,-13.8 -4.31268,0 -6.34536,1.74982 -6.34536,5.46238 0,5.83176 9.26855,11.86907 12.8,8.33762 z m 45.26574,-6.83518 c 5.41196,-2.8964 -1.60707,-14.96482 -8.70359,-14.96482 -4.50623,0 -8.36215,1.64701 -8.36215,3.5718 0,2.20475 7.64568,10.77216 10.33284,11.57852 3.28153,0.98472 4.61496,0.94798 6.7329,-0.1855 z m 21.10552,-0.61981 c 2.36596,-2.14116 2.30475,-3.20942 -0.34557,-6.03056 -3.73405,-3.9747 -8.82569,-2.21606 -8.82569,3.04838 0,4.08335 5.85187,5.98618 9.17126,2.98218 z m -54.15969,-5.85895 c 1.52811,-1.84126 0.5911,-10.47246 -1.26927,-11.69175 -0.68326,-0.44782 -3.4923,-0.69724 -6.2423,-0.55426 -4.83507,0.25138 -5.01025,0.36595 -5.31062,3.47327 -0.62426,6.45775 9.17769,13.16409 12.82219,8.77274 z m 60.93824,-4.92559 c 1.99901,-2.40866 0.90594,-7.01004 -1.75485,-7.38723 -1.26778,-0.17972 -2.95528,0.21288 -3.75,0.87244 -1.47099,1.22081 -1.98955,6.0764 -0.77829,7.28765 1.18411,1.18412 5.05406,0.7081 6.28314,-0.77286 z m -16.13787,-3.51998 c 2.94888,-3.98857 2.79517,-7.41778 -0.4468,-9.96791 -3.52021,-2.769 -9.04458,-2.72236 -12.05069,0.10173 -2.97378,2.79373 -2.91522,4.31835 0.31425,8.18133 4.59008,5.4905 8.92626,6.09016 12.18324,1.68485 z m -38.31194,-6.01484 c 0,-3.61026 -2.19639,-5.73987 -4.86408,-4.71618 -1.07863,0.41391 -1.63592,1.80706 -1.63592,4.08959 0,2.79712 0.43203,3.54366 2.25,3.88798 3.64487,0.69031 4.25,0.22595 4.25,-3.26139 z m 65.49459,-1.51913 c 1.97506,-2.3798 -1.32125,-8.50652 -4.57669,-8.50652 -6.18873,0 -10.19283,6.94906 -5.1679,8.96884 3.51257,1.41188 8.38083,1.18091 9.74459,-0.46232 z m -55.40827,-4.60191 c 1.86932,-2.06557 1.86226,-2.12295 -0.49639,-4.03287 -2.87757,-2.33011 -4.47547,-1.99575 -4.91901,1.02931 -0.74996,5.1149 2.0828,6.68604 5.4154,3.00356 z m 36.77442,-4.10184 c 0.71957,-1.14949 0.74435,-2.60177 0.0768,-4.5 -0.82425,-2.34375 -1.55495,-2.80277 -4.4616,-2.80277 -3.20494,0 -3.50073,0.25846 -3.79415,3.31532 -0.17503,1.82343 0.23645,3.98368 0.9144,4.80056 1.56708,1.88821 5.87542,1.40598 7.26457,-0.81311 z M 327.46042,191.5 330.58699,188.37342 327.82773,186 c -3.03552,-2.61104 -5.60525,-3.01591 -7.44774,-1.17342 -2.48806,2.48806 -0.68835,9.8 2.41211,9.8 0.84795,0 2.9487,-1.40696 4.66832,-3.12658 z m -50.33597,-1.3065 c 0.93448,-1.12598 0.8216,-1.99432 -0.52679,-4.05222 -1.34227,-2.04858 -2.38985,-2.55332 -4.80871,-2.31693 -3.6944,0.36104 -4.62057,3.02693 -2.04163,5.87663 2.05553,2.27134 5.69897,2.51458 7.37713,0.49252 z m 35.85777,-8.16769 c 0.40395,-4.1444 -3.45613,-6.87434 -8.40692,-5.94557 -3.03447,0.56927 -3.39531,0.98286 -3.39531,3.89165 0,4.50045 1.66574,5.79818 6.99479,5.44948 4.23198,-0.27691 4.52354,-0.48285 4.80744,-3.39556 z m -24.99459,-4.15207 c 0.27878,-3.85394 0.0469,-4.35195 -2.47166,-5.30952 -3.66995,-1.39531 -7.33598,0.21706 -7.33598,3.22647 0,3.25301 3.9225,6.98652 6.96704,6.63137 2.20915,-0.25771 2.57229,-0.83915 2.8406,-4.54832 z m 46.80075,0.33098 c 0.30009,-0.78202 0.0305,-2.38433 -0.59905,-3.56068 -2.24125,-4.18783 -7.35571,-0.96843 -5.6253,3.54095 0.71419,1.86115 5.51189,1.87636 6.22435,0.0197 z m -17.10839,-10.07814 c 0,-2.49687 -0.401,-3 -2.39101,-3 -2.79602,0 -4.70758,2.49772 -3.77382,4.93105 0.44495,1.15952 1.53277,1.60175 3.40914,1.38592 2.32477,-0.2674 2.75569,-0.78609 2.75569,-3.31697 z m -21,-0.56964 c 0,-0.77163 -0.7875,-1.55463 -1.75,-1.73999 -1.72374,-0.33196 -2.43634,1.78995 -1.0625,3.1638 1.04821,1.0482 2.8125,0.15505 2.8125,-1.42381 z m 47.50475,-0.16583 c 1.23636,-1.32708 1.96331,-3.25725 1.78895,-4.75 -0.25553,-2.18776 -0.84637,-2.55451 -4.54654,-2.82217 -3.79896,-0.2748 -4.35925,-0.0277 -5.25,2.3151 -1.32707,3.49047 -1.27022,4.07662 0.57427,5.92111 2.20445,2.20446 4.99298,1.95535 7.43332,-0.66404 z m -17.50475,-9.26453 c 0,-1.34198 -0.77822,-2.11011 -2.36534,-2.33466 -2.88287,-0.40789 -4.62007,1.12732 -3.77313,3.33441 0.94367,2.45917 6.13847,1.61311 6.13847,-0.99975 z m -21.5,-2 c 0,-0.83333 -0.88889,-1.5 -2,-1.5 -1.11111,0 -2,0.66667 -2,1.5 0,0.83333 0.88889,1.5 2,1.5 1.11111,0 2,-0.66667 2,-1.5 z m 10.75029,-8.24947 c 0.54676,-1.64213 -2.58648,-2.81434 -3.93038,-1.47044 -0.5751,0.5751 -0.7279,1.55977 -0.33954,2.18815 0.88355,1.42961 3.71332,0.95397 4.26992,-0.71771 z m 46.53626,-5.22456 c 2.0424,-2.73571 3.71345,-5.30179 3.71345,-5.70239 0,-0.4006 1.34807,-2.11923 2.99572,-3.81916 2.1849,-2.25425 3.28944,-4.70307 4.08091,-9.04761 0.59686,-3.27625 1.49878,-6.38431 2.00428,-6.90681 2.21302,-2.28745 -0.65416,-7.55 -4.11345,-7.55 -0.94742,0 -2.22675,-0.6075 -2.84297,-1.35 -0.7839,-0.94453 -3.74903,-1.35119 -9.87245,-1.35395 -7.50549,-0.003 -9.17933,0.31479 -11.75204,2.23393 -1.65,1.23084 -4.01744,2.54701 -5.26097,2.92482 -4.83262,1.46827 -6.41162,12.3121 -2.12671,14.60531 2.4342,1.30275 2.39564,3.17022 -0.11232,5.43989 -2.72788,2.46869 -2.59939,6.30553 0.25,7.46532 1.2375,0.5037 3.6,1.8396 5.25,2.96866 1.65,1.12906 3.9574,2.05581 5.12756,2.05943 1.17015,0.004 2.68775,0.68159 3.37244,1.50659 2.37511,2.86183 5.40166,1.72963 9.28655,-3.47403 z m -35.78655,-5.09561 c 0,-0.77163 -0.7875,-1.55463 -1.75,-1.73999 -1.72374,-0.33196 -2.43634,1.78995 -1.0625,3.1638 1.04821,1.0482 2.8125,0.15505 2.8125,-1.42381 z m 112.9433,-6.15287 c 1.64023,-2.34177 1.98586,-8.36726 0.92424,-16.11267 -0.43787,-3.19458 -1.6686,-5.82482 -4,-8.54854 -1.85215,-2.16381 -3.36754,-4.90922 -3.36754,-6.10091 0,-2.159574 -0.55865,-2.757904 -8.90609,-9.538854 -8.98754,-7.30093 -13.80559,-1.74394 -6.33108,7.30207 2.14566,2.596784 4.19106,5.517764 4.54534,6.491074 0.35428,0.97331 2.22921,2.70487 4.1665,3.8479 3.78273,2.23186 3.82686,3.88244 0.10382,3.88244 -2.75867,0 -9.67601,-5.21803 -11.07849,-8.35695 -1.67493,-3.7487 -9.14556,-9.832764 -11.62642,-9.468534 -3.25088,0.47728 -3.30493,2.1594 -0.18839,5.863194 2.33147,2.77081 2.82794,4.40688 3.14853,10.37589 0.47664,8.87418 1.79744,10.5864 8.16628,10.5864 3.40459,0 5.18125,0.54279 6.4823,1.98044 0.98575,1.08925 3.32165,2.26736 5.19088,2.61803 2.64257,0.49575 3.71295,1.38992 4.81169,4.01955 1.70846,4.08892 5.51783,4.64391 7.95843,1.15947 z M 328.56519,97.746396 c 2.11657,-2.20922 2.68431,-3.6652 2.4371,-6.25 -0.69448,-7.26122 -7.8223,-3.44684 -7.8223,4.18602 0,5.794304 1.32485,6.302084 5.3852,2.06398 z m 63.6148,-2.61982 c 0,-0.825 -0.675,-1.5 -1.5,-1.5 -0.825,0 -1.5,0.675 -1.5,1.5 0,0.825 0.675,1.5 1.5,1.5 0.825,0 1.5,-0.675 1.5,-1.5 z m 11.63569,-17.993839 c 1.57537,-0.821612 3.72888,-1.496612 4.78557,-1.5 1.05669,-0.0034 2.68248,-0.695053 3.61285,-1.537033 0.93038,-0.84198 4.01859,-1.80647 6.8627,-2.143312 4.12323,-0.488336 5.56949,-1.171938 7.13714,-3.373499 2.80849,-3.94416 2.45425,-5.626816 -1.58846,-7.545207 -3.65678,-1.735257 -4.02647,-1.676092 -10.68192,1.709561 -0.95504,0.485831 -3.09864,0.883329 -4.76357,0.883329 -5.67345,0 -15,6.788087 -15,10.917363 0,1.512117 0.3,3.049304 0.66667,3.41597 1.16555,1.165553 6.00369,0.719353 8.96902,-0.827172 z m -14.8013,-6.102718 c 2.5973,-1.819215 2.58238,-5.124613 -0.0305,-6.762218 -2.63109,-1.649001 -8.80389,1.629507 -8.80389,4.67593 0,1.292231 0.3,2.649512 0.66667,3.016178 1.21758,1.217589 5.85565,0.689548 8.16772,-0.92989 z m 53.08687,-14.772955 c 0.86831,-0.753232 2.92874,-1.802168 4.57874,-2.33097 2.90387,-0.93065 3.02304,-1.213115 3.71904,-8.815324 0.44304,-4.839143 0.33741,-8.313717 -0.27519,-9.051855 -1.6536,-1.992463 -13.97195,-0.615717 -16.69434,1.865822 -2.0727,1.889323 -2.13195,2.232315 -0.75,4.341432 2.24039,3.419276 1.85008,4.360407 -1.80838,4.360407 -1.81988,0 -4.18238,0.660688 -5.25,1.468197 -1.06762,0.807508 -2.70207,1.482508 -3.63211,1.5 -4.21777,0.07933 -2.55344,5.031803 1.69098,5.031803 1.24031,0 2.81531,0.675 3.5,1.5 1.63559,1.97077 12.6884,2.067428 14.92126,0.130488 z m -42.41998,-2.630973 c 2.09968,-0.798299 2.56754,-1.556129 2.3151,-3.75 -0.42512,-3.69451 -4.27874,-4.087275 -8.21072,-0.836844 -5.0735,4.194072 -1.1336,7.259347 5.89562,4.586844 z m 25.88524,-10.4319 2.88652,-2.360459 -3.30604,-4.603578 c -2.71962,-3.787006 -3.86132,-4.603578 -6.43652,-4.603578 -3.9393,0 -5.52801,1.56304 -5.53949,5.45 -0.007,2.225442 0.87205,3.786182 3.25,5.773099 3.98033,3.325801 5.43291,3.380521 9.14553,0.344516 z"
     id="path2999"
     inkscape:connector-curvature="0" />
</svg>
