<?xml version="1.0" encoding="utf-8"?>
<!-- Generator: Adobe Illustrator 22.1.0, SVG Export Plug-In . SVG Version: 6.00 Build 0)  -->
<svg version="1.1"
	 id="svg2" inkscape:version="0.48.5 r10040" sodipodi:docname="Maize.png" xmlns:cc="http://creativecommons.org/ns#" xmlns:dc="http://purl.org/dc/elements/1.1/" xmlns:inkscape="http://www.inkscape.org/namespaces/inkscape" xmlns:rdf="http://www.w3.org/1999/02/22-rdf-syntax-ns#" xmlns:sodipodi="http://sodipodi.sourceforge.net/DTD/sodipodi-0.dtd" xmlns:svg="http://www.w3.org/2000/svg"
	 xmlns="http://www.w3.org/2000/svg" xmlns:xlink="http://www.w3.org/1999/xlink" x="0px" y="0px" viewBox="0 0 547 486"
	 style="enable-background:new 0 0 547 486;" xml:space="preserve">
<style type="text/css">
	.st0{fill:none;stroke:#181818;stroke-width:3;stroke-miterlimit:10;}
</style>
<sodipodi:namedview  bordercolor="#666666" borderopacity="1" gridtolerance="10" guidetolerance="10" id="namedview4" inkscape:current-layer="svg2" inkscape:cx="146.47691" inkscape:cy="294.99624" inkscape:pageopacity="0" inkscape:pageshadow="2" inkscape:window-height="734" inkscape:window-maximized="1" inkscape:window-width="1280" inkscape:window-x="0" inkscape:window-y="27" inkscape:zoom="0.68807873" objecttolerance="10" pagecolor="#ffffff" showgrid="false">
	</sodipodi:namedview>
<path id="path2999" inkscape:connector-curvature="0" class="st0" d="M116.7,476.4c-0.2-0.7-0.6-4.6-0.8-8.8
	c-0.3-6.1-0.9-8.2-3.1-11.5c-3.5-5.1-4.1-5.5-9.9-5.5c-4.2,0-5.3,0.4-7.9,3.2c-1.7,1.8-3.8,5.1-4.8,7.4c-2.7,6.3-7.4,9.4-14.2,9.4
	c-7.4,0-9.9-1.3-17.9-9.2c-3.7-3.7-8.1-7.6-9.8-8.6c-4.9-3-8.1-8.5-8.1-14c0-2.6,0.4-5.2,0.8-5.7c0.5-0.5,1.4-2.5,2.2-4.5
	c0.7-1.9,2.4-4.8,3.6-6.3c2.8-3.4,3.8-8.4,2.4-12c-1.3-3.5-5.2-3.7-11.5-0.6c-4.4,2.1-4.6,2.1-6.5,0.3c-1.7-1.6-2-3.1-2-10
	c0-8.9,0.4-9.6,7.8-15.2c3.7-2.8,5.6-2.9,4.9-0.3c-0.7,2.6,0.8,3.6,6.7,4.4c2.7,0.4,5.5,1.2,6.3,1.8c1.9,1.6,5.9-0.7,7.8-4.5
	c1.3-2.7,1.3-3.2-0.2-4.8c-1.3-1.5-3.2-1.8-9.5-1.8c-7.8,0-7.8,0-7.8-2.6c0-3.8,1.6-6.2,6.3-9.1c3.6-2.3,6-2.8,16.6-3.7
	c9.3-0.8,12.6-1.4,13.1-2.6c0.4-0.8,1.2-2.4,1.8-3.6c0.6-1.2,1.8-6.1,2.7-11c0.9-4.9,2.3-10.3,3.2-11.9c0.8-1.6,2.4-6.1,3.5-10
	s2.5-7.7,3.2-8.5c0.7-0.8,1.8-3.3,2.5-5.5c1.4-4.4,5.2-13.1,8.2-18.5c1-1.9,2.9-5.5,4.1-8s2.5-4.7,2.9-5c0.4-0.3,1.7-2.3,2.9-4.5
	s3.3-5.6,4.7-7.5s3.2-4.4,3.9-5.5c7.3-10.4,13.1-17.7,28.5-36.1c9.8-11.7,20.1-23.7,22.9-26.6s8.5-9.1,12.8-13.8
	c7.7-8.5,27.1-28.9,47.2-49.4c5.9-6,11.3-11.9,12.2-13.2c0.8-1.2,5.4-7.1,10.2-13.1c4.8-5.9,11.3-14.1,14.5-18.1s7.1-9,8.8-11.1
	s4.4-5.7,6-8c6.8-9.5,14.7-19.2,16.1-19.8c2.6-1,6.3,0.6,8.5,3.8l2.2,3.1l-2.3,4.2c-1.3,2.3-2.8,4.8-3.4,5.7s-2,3.5-3,6
	s-2.4,5.2-3,6s-2,3.5-3,6s-2.7,5.4-3.7,6.6s-1.8,2.7-1.8,3.6c0,0.8-2.7,5.7-6.1,10.8c-3.3,5.1-6.5,10.5-7,11.9
	c-1.1,2.8-0.5,5.2,1.2,5.2c1.9,0,10.7-9.6,27.2-29.5C326,76,330.7,69.2,331.8,63.8c1.1-5.3,6-7.6,9.9-4.7c1.8,1.3,1.9,2.5,1.6,14.5
	c-0.3,14.8-0.2,15,6.4,10.4c12.3-8.3,20.3-17.6,27.3-31.4c6-11.8,10.4-16.5,20.6-22.1c2.2-1.2,5.1-3,6.5-4c3.2-2.3,18.2-5,21.8-3.9
	c1.5,0.5,4.6,1.4,7,2.1c2.3,0.7,4.8,1.8,5.4,2.6c0.7,0.9,3.6,1.3,8.7,1.3c6,0,8.3,0.4,10.6,2c1.6,1.1,4.4,2.7,6.2,3.4
	c1.8,0.8,4.8,3.6,6.7,6.2c3.1,4.4,4.1,5,9.1,6c3.1,0.7,6.9,2.3,8.6,3.6c1.6,1.4,5.5,3.2,8.7,4.1c3.2,0.9,6.2,2,6.8,2.5
	c0.5,0.4,3.7,1.7,6.9,2.9c3.3,1.1,6.2,2.4,6.5,2.9c0.3,0.4,2.6,2.1,5,3.6c4.1,2.7,4.3,3,2.6,4.2c-1,0.8-2.4,1.4-3,1.4
	c-1.8,0-11.6-3.6-15.9-5.9c-2.2-1.1-5.1-2.1-6.5-2.1c-6.5,0-10.2-1.3-11.1-3.7c-1-2.5-2.6-2.7-8.4-0.8c-1.6,0.5-2.4,0-3.8-2.9
	l-1.7-3.6l-8.7,0.3l-8.7,0.3l-0.3,3c-0.2,1.7-0.7,3.4-1.3,4c-1.7,1.7-1,6.2,1.3,8.2c1.2,1.1,3.8,2.8,5.8,3.8
	c3.2,1.7,12,12.1,12,14.3c0,1.7,8.4,7.7,13,9.3c6.7,2.3,6,4.4-1.6,4.4c-5.9,0-6.3-0.1-10.5-4.5c-2.4-2.5-4.8-5.2-5.4-6.1
	c-3.1-5.1-9.9-13-12.5-14.5c-1.7-1-3-2.1-3-2.5c0-3.2-17.5-5.5-18.6-2.5c-1,2.6,1.3,4.8,7.4,7.1c3.3,1.3,6.9,3,7.9,3.9
	c1,0.9,3.7,3.1,5.9,5.1c2.6,2.2,4.8,5.3,5.9,8.2c1,2.6,2.3,5.4,2.9,6.2c0.6,0.8,1.6,2.5,2.1,3.8s3.9,4,7.4,6.1
	c5.6,3.3,6.9,4.6,9.9,10.2c1.9,3.6,3.8,6.6,4.3,6.8c0.5,0.2,1.4,1.9,2,3.8c1.4,4.3,0.1,6.4-4.1,6.4c-3,0-6.6-3.5-10-9.9
	c-1.1-2-3.8-5.2-6-7.1s-5.6-5.1-7.5-7c-3.5-3.6-9.7-14.5-10.8-19.1c-0.7-2.6-3.6-5.5-11.9-11.6c-3.1-2.2-5.5-3.3-8-3.3
	c-2,0-3.9-0.4-4.2-1c-1.6-2.7-10.5,0.7-10.5,4c0,1.7,7.8,7,10.2,7c1.3,0,3.3,1,4.5,2.3s3.6,3.5,5.5,4.9c1.9,1.5,4.4,4.7,5.6,7.2
	c1.2,2.5,2.6,4.8,3.1,5.1c1.7,1,1.3,11.6-0.5,13.6c-0.9,1-2.2,4.2-3,7.3c-1.4,5.2-1.3,5.8,0.6,9.3c1.1,2.1,2,4.5,2,5.5s0.5,2,1,2.3
	c1.6,1,1.2,4-0.8,5.8c-1,0.9-3.3,1.7-5.1,1.7c-4.6,0-8.2-3.8-18.1-19.3c-3.3-5.1-5.5-6.7-8.9-6.7c-2.4,0-9.9-4.1-12.3-6.8
	c-0.9-1-2.3-4.4-3.1-7.7c-1.5-5.7-5-10.5-7.8-10.5c-0.6,0-2.6,1.5-4.4,3.4c-5.1,5.1-4.3,10.5,2,12.6c5.4,1.8,5.9,3,3.1,8.6
	c-6.2,12.6-13.4,28.3-14.6,31.9c-0.7,2.2-1.9,4.7-2.5,5.5s-1.5,2.6-1.9,4s-2.1,5.3-3.7,8.8c-2.1,4.4-2.7,6.6-2,7.4
	c1.5,1.5,5.7,0.2,9.4-3c2.9-2.5,5.5-4.3,15.8-11.2c5.6-3.7,8.8-4.8,16-5.1c10.2-0.5,10.5,1.3,1.3,7.2c-5.8,3.7-21.4,15.2-24.9,18.4
	c-0.6,0.6-3.3,2.6-5.9,4.5c-10.3,7.6-46.6,43.5-49.4,48.8c-0.7,1.3-1.9,3.1-2.7,4c-3.5,4-8.6,10.6-9.6,12.6
	c-0.6,1.2-1.4,2.3-1.7,2.6c-0.3,0.3-1.6,1.9-2.9,3.5c-3.6,4.9-4.9,6.5-12.2,16c-3.8,5-8.4,11-10.2,13.4s-3.8,4.9-4.3,5.5
	c-0.6,0.6-2.1,2.5-3.3,4.1s-6.9,7.2-12.5,12.4c-5.6,5.2-10.9,10.4-11.7,11.7s-4.1,5.1-7.3,8.6c-3.2,3.5-6.7,7.6-8,9.1
	c-1.2,1.5-6.3,7-11.3,12.1c-5,5.1-9.4,10-9.7,11c-0.4,0.9-1.6,1.7-2.7,1.7c-1.3,0-2.4,1-3,2.5c-0.5,1.4-1.4,2.5-2,2.5
	c-0.6,0-3.9,2.7-7.3,6c-6.8,6.6-18.9,15.5-26.6,19.5c-2.7,1.4-5.5,3.2-6.1,4c-0.7,0.8-1.7,1.4-2.4,1.4s-2.3,1.1-3.6,2.5
	s-2.8,2.5-3.3,2.5s-2.6,1.3-4.6,2.9c-2,1.6-5,3.6-6.6,4.5c-1.6,0.9-3.7,2.2-4.6,2.8c-1.3,0.9-2.8,0.6-7.5-1.6
	c-4.8-2.3-6.7-2.7-10.9-2.2c-2.8,0.3-8.4,0.7-12.5,0.8l-7.5,0.3l-0.3,4.6c-0.2,3.5,0.3,5.5,2,8.2c2.1,3.2,4.8,4.9,4.8,2.9
	c0-0.4,1.6-2,3.6-3.6l3.6-2.9l2.2,2c1.2,1.1,3.9,3,6.1,4.2l3.9,2.2l2.8-2.7c1.5-1.5,3.8-2.6,5.1-2.6c11.6,0.5,15.2,1,15.9,2.2
	c0.9,1.5,0.2,5.7-1.3,7.6c-1.5,1.9-5.2,1.5-7.2-0.8c-2-2.3-5-2.6-6.2-0.8c-0.4,0.7-0.8,5.1-0.8,9.8c0,9.2-1.1,12-6.2,17.5
	c-6,6.4-8.2,7.5-15,7.5C119.3,477.6,117,477.2,116.7,476.4L116.7,476.4z M132.9,467.4c6.7-7.2,8.1-17.3,3.1-21.1l-2.7-2l-4.1,2.7
	c-3.9,2.6-4.3,2.6-6,1.1c-2.4-2.2-7.4-1.6-7.8,0.8c-0.2,1,0.6,2.8,1.7,4c2.7,2.9,7.1,11.3,7.1,13.5c0,1,0.3,2.1,0.7,2.4
	C126.3,470.4,130.9,469.5,132.9,467.4z M79.2,459.1c0.9-1,1.1-3.6,0.7-8.1c-0.5-6.1-0.8-6.9-4.9-11.1c-2.4-2.5-5.9-5.1-7.7-5.9
	c-3.7-1.6-10.9-1.9-12.9-0.6c-1.4,0.9-4.2,5.7-4.2,7.2c0,1.5,16.6,17.9,19.1,18.9C72.9,461,77.8,460.8,79.2,459.1L79.2,459.1z
	 M99.9,442.1c1.2-0.8,3.5-4.1,5.2-7.2c3.3-6.2,3.3-6.3-1.3-15.3c-2.9-5.7-17.6-0.8-17.7,5.8c0,1.8,1,3.6,3.3,5.4c2.6,2.2,3,2.9,2,4
	c-2.9,2.9-0.1,8.9,4.2,8.9C96.8,443.6,98.7,442.9,99.9,442.1L99.9,442.1z M156.9,416.4c2.1-1.2,6.2-3.9,9-6s5.9-3.8,6.7-3.8
	c0.8,0,2.9-1.2,4.7-2.8c1.8-1.5,4.7-3.6,6.4-4.8c8.7-5.5,10.5-6.8,10.5-7.5c0-0.4,1.5-1.7,3.3-2.8c1.8-1.1,7.1-5.5,11.8-9.9
	s9.4-8.6,10.6-9.4c2-1.3,8.2-8.5,19.7-22.6c8.2-10,10.1-12.3,12.9-15.7c1.5-1.8,2.7-3.5,2.8-3.8c0-0.3,1.4-2.1,3-4s3.9-4.5,5-5.9
	s3.3-4.1,4.8-6s6-7.5,10-12.5s8-10.1,9.2-11.5c6.5-7.9,11.7-14.5,27.8-34.8c3.2-4,7.3-9.1,9-11.3s3.3-4.6,3.3-5.3s0.7-1.9,1.6-2.6
	s2.7-3.6,4-6.5c1.3-2.8,3-5.7,3.9-6.4c0.8-0.7,1.5-1.8,1.5-2.4c0-0.6,1.1-2.4,2.4-3.9c1.3-1.5,2.9-4.2,3.6-6
	c0.7-1.8,2.3-5.5,3.6-8.2c2.9-6.1,3.1-10.5,0.5-13.6l-1.9-2.4l-3.2,3c-1.8,1.6-4.7,5.3-6.6,8s-4.8,6.8-6.4,9s-4.2,5.8-5.7,8
	s-3.8,5.4-5.2,7.1c-4,5-9.7,12.7-16.2,22.2c-1.3,1.8-3.5,4.8-5.1,6.6c-1.5,1.8-2.8,3.7-2.8,4.3s-1,1.8-2.1,2.9
	c-2.1,1.9-8.9,10.6-12,15.4c-0.9,1.4-4.9,6.4-9,11.1s-8.9,10.5-10.9,12.9c-7.7,9.6-9.5,11.6-33.4,36.7c-4.4,4.6-8.2,8.3-8.6,8.3
	c-0.4,0-2.9,2.3-5.7,5c-5.9,5.9-7.8,6.4-6.9,1.9c0.3-1.7,0.6-4.7,0.6-6.6c0-3.4,0.1-3.4,3.3-2.8c1.8,0.4,3.8,1.2,4.5,1.7
	c1.6,1.3,1.7,1.2,4.1-4.5c1.6-3.8,2.6-4.9,5.1-5.4c2.2-0.4,3.4-1.5,4.4-3.7c0.7-1.7,2.7-4.6,4.3-6.3c4.3-4.6,6.6-8.3,7.8-12.3
	c0.7-2.5,1.7-3.6,3.4-3.8c1.3-0.2,3.9-1.9,5.9-3.9c3.1-3.1,3.4-3.8,2.3-5.5c-1.5-2.3,0.1-4.8,3-4.8c1.1,0,3-1.7,4.5-4
	c2.3-3.4,2.5-4.4,1.5-6.5c-1.1-2.4-1-2.5,3.3-2.5c5.4,0,7.1-2.2,6.1-8.3l-0.6-4l3.2,0.6c3.9,0.8,6.9-1.5,6.9-5.1
	c0-3.5,3.2-7.1,9.2-10.2c2.9-1.5,5.4-3.4,5.6-4.2c0.5-2.3-7.4-6.9-11.8-6.9c-4.2,0-5.7,1.6-6.9,7.5c-0.5,2.2-1.3,3.1-3.1,3.3
	c-4.4,0.6-5.2,2.1-4.7,8.3l0.5,5.7l-4.7-0.6c-6.1-0.7-7.5,0.8-6.9,7.7l0.5,5h-4c-5.7,0-7.7,2.1-7.7,8.2v4.9l-3.3-0.6
	c-4.2-0.7-7.7,1.9-8.6,6.5c-0.6,2.8-1.2,3.5-3.5,3.8c-1.5,0.2-3,1-3.3,1.8c-0.8,2.1-3,1.7-3.6-0.6c-0.6-2.5-3.4-3.7-5-2.2
	c-0.8,0.8-0.5,1.7,1.1,3.4c2.7,2.9,2.8,5.3,0.3,6.6c-2.8,1.5-6.1,7.7-6.1,11.6c0,3.4,0,3.4-4.5,3.4c-3.6,0-5,0.5-7,2.6
	c-1.3,1.5-2.5,3.6-2.5,4.8c0,2.8-1.8,4.6-4.6,4.6c-3.3,0-4.8,2.4-4,6.6c1,5.2,5.4,9.4,10,9.4c5.5,0,5.1,0.9-4.2,9
	c-1.6,1.4-4.8,4.1-7.3,6s-6,5-8.1,6.8c-4.9,4.4-5.9,4.1-5.9-1.2v-4.4l4.8-0.3c4.3-0.3,4.8-0.6,5.1-2.9c0.2-2,1-2.8,3.4-3.3
	c4.3-0.9,5.8-2.4,5.8-5.9c0-3.5-5.7-9.7-8.8-9.7c-2.6,0-7.4,6.4-7,9.3c0.3,1.8-0.1,2.2-2,1.9c-3-0.4-5.2,1.5-5.2,4.4
	c0,2.1-0.5,2.4-3.8,2.4c-2.1,0-4.3,0.5-5,1.2c-1.8,1.8-1.4,5.3,0.8,7.3c1.1,1,2,2.3,2,2.8c0,1.5,3.3,3.6,5.8,3.7
	c3.2,0,2.8,1.4-1,3.3c-1.8,0.9-6.2,3.3-9.8,5.3s-8.5,4.7-10.9,6s-4.9,2.8-5.5,3.3c-0.6,0.5-3,1.3-5.3,1.6c-3.8,0.6-4.1,0.5-4.5-1.7
	c-0.3-2-0.9-2.4-3.8-2.4c-3.3,0-3.5,0.2-3.5,3.4c0,2.2-0.5,3.6-1.5,3.8c-0.8,0.2-2.8,1-4.5,1.7s-5,1.6-7.5,2c-5.8,0.9-8,2.1-8,4.4
	c0,2.7,2,3.9,6.5,3.9c6.7,0,19.9-2.1,21.6-3.5c0.9-0.7,2.2-1.3,3-1.3c1.5,0,6-1.6,11.9-4.2c1.9-0.8,4.8-1.8,6.4-2.2
	c4.8-1.1,1.2,2.2-3.8,3.5c-2.3,0.6-4.8,1.7-5.6,2.4c-0.8,0.7-2.7,1.6-4.2,2c-3.6,0.9-6.1,3.8-5.7,6.7c0.3,1.9,1.1,2.4,4.8,2.9
	C150,418.9,153,418.6,156.9,416.4L156.9,416.4z M163.2,396.7c0-1.2,4-3.4,4.7-2.6c0.8,0.8-1.8,3.6-3.4,3.6
	C163.8,397.6,163.2,397.2,163.2,396.7z M178.8,387.4c0.3-0.5,3-2.5,6-4.4c3-1.9,5.4-3.9,5.4-4.3c0-1.1,5.9-5.4,6.6-4.8
	c1,1-0.8,3.4-3.9,5.2c-1.8,1-4.2,2.7-5.3,3.7C185.1,385.1,177.9,388.8,178.8,387.4L178.8,387.4z M198.2,372.7
	c0-1.1,8.9-9.1,10.1-9.1c1.4,0,1,1.8-0.7,3.2c-0.9,0.7-2.9,2.5-4.5,4C200.1,373.7,198.2,374.4,198.2,372.7L198.2,372.7z
	 M212.2,360.2c0-0.2,0.8-1,1.8-1.8c1.6-1.2,1.6-1.2,0.4,0.4C213,360.5,212.2,361.1,212.2,360.2z M77.5,405.3c6-2.6,8-5.7,8.5-14
	c0.6-9.3-0.9-14.2-5.1-16.7c-3.2-2-11.1-2.7-12.1-1.1c-0.3,0.5,0.4,2.7,1.4,5c3.1,6.4,2.2,18.1-1.5,19.6c-1.8,0.7-4.7,6.4-4,7.7
	C65.6,407.1,73.8,406.8,77.5,405.3z M118.6,396.5c2.2-1.7,2.6-2.8,2.4-5.8c-0.3-3.6-0.4-3.6-5.1-3.9c-4.8-0.3-7.7,0.9-7.7,3.2
	c0,1.4,5.8,8.6,6.9,8.6C115.6,398.6,117.1,397.7,118.6,396.5z M152.6,387.7c1.7-1.9,1.7-2.1-0.4-5c-3.4-4.7-8-3.6-8,1.9
	C144.2,389.6,149.2,391.4,152.6,387.7z M137,383.1c4.8-3.4,0.9-9.8-5.6-9.3c-3.6,0.3-3.7,0.4-3.7,4.3c0,3.2,0.5,4.2,2.5,5.2
	C133.4,385,134.3,384.9,137,383.1z M165,378c0.4-4-1.6-5.6-6.5-5.2c-3.1,0.3-3.9,0.7-4.2,2.6c-0.5,3.6,2.6,6.3,6.8,6
	C164.3,381.2,164.7,380.8,165,378z M120.7,374.6c0-1.8-3.3-2.6-4.7-1.2c-0.6,0.6-0.7,1.5-0.3,2.2
	C116.7,377.2,120.7,376.4,120.7,374.6z M145.7,371.1c0-3.8-0.2-4-3.4-4.3c-4.6-0.4-5.9,1-4.1,4.6c1.8,3.5,2.9,4.3,5.4,4
	C145.3,375.2,145.7,374.4,145.7,371.1z M129.5,364.4c3.3-1.5,3.4-2.7,0.3-6.1c-2.6-2.8-7.2-3.6-9.3-1.4c-1.9,1.9-1.4,5.4,1.1,7.1
	C124.2,365.9,126,366,129.5,364.4z M155.6,364.8c0.9-1.5,1.1-9.5,0.2-11.9c-0.8-2.2-0.6-2.2,4.6-2c6.8,0.3,9-1.2,8.5-6.2
	c-0.3-3.4-0.2-3.6,3.2-3.9c3.2-0.3,5.6-1,10-3.2c0.8-0.4,1.6-1.7,1.8-2.8c0.4-2.6,3-5,6.1-5.4c2.4-0.3,2.9-0.9,5.3-6.2
	c0.7-1.6,2.2-3.4,3.3-4c5.9-3.2,8.5-5.8,8.5-8.5c0-1.8,1.1-3.8,3-5.7c3.1-3,6-7.8,6-10.1c0-0.7-1.8-2.5-4-4s-4-3-4-3.5
	c0-1.8,6.7-0.9,8.5,1.2c1.4,1.6,2.8,2,6.4,1.8c4.5-0.3,4.6-0.4,5.4-4.5c0.8-3.9,0.7-4.4-2.3-7.3c-1.7-1.7-3.1-3.5-3.1-4.1
	s-0.6-0.9-1.4-0.9c-0.8,0-1.9-0.7-2.6-1.5c-2.1-2.6-6.6-1.8-11.7,2.1c-6.6,5-7.4,6.5-8.1,14.7l-0.6,7.2l-6.2,0.5
	c-3.4,0.3-6.6,1-7.2,1.5c-0.5,0.5-1.1,3.3-1.3,6c-0.3,4.8-0.4,5-3.7,5.5c-2.6,0.4-3.9,1.4-5.5,4.2c-1.2,2.1-4.3,5.1-6.9,6.8
	c-4.3,2.8-4.8,3.5-4.8,7c0,2.8,0.5,4.2,2,4.9c2.3,1.2,2.7,5,0.6,5c-0.8,0-1.7-0.5-2.1-1c-1.2-1.9-7.3-1.1-9.5,1.2
	c-2.2,2.3-2.7,6.3-1,7.3c0.6,0.3,1,1.5,1,2.6c0,1.5-0.7,1.9-3.3,1.9c-3.4,0-4.8,1.2-7.5,5.9c-1,1.7-1,2.7-0.3,3.5
	c0.6,0.6,1.1,2,1.1,3.2c0,1.2,0.3,2.4,0.7,2.8C145.8,365.9,155,365.8,155.6,364.8L155.6,364.8z M113.6,362.7
	c1.9-0.7,2.6-1.7,2.6-3.8c0-2.3,5-13.2,12.4-26.8c0.9-1.6,1.7-3.5,1.7-4s1.6-3,3.5-5.5s4.1-5.9,4.9-7.5s3-5.2,5-7.9
	c2-2.7,3.6-5.3,3.6-5.8c0-0.5,2.8-4.4,6.3-8.8s7.4-9.3,8.8-11.1c2.8-3.6,13.4-16.5,15.6-18.9c1.3-1.4,3.2-3.7,12.9-15.4
	c2.2-2.7,5.9-6.8,8.1-9.1c2.3-2.4,5.4-5.9,6.9-7.9s3.4-3.6,4.1-3.6c0.8,0,1.7-0.8,2.1-1.8c0.6-1.7,13.2-14.3,19-19
	c3.6-2.9,15.6-12.7,21.2-17.2c9.5-7.7,19.7-16.4,24.5-21c12.7-12.3,43.4-39.8,46.6-41.9c4.2-2.7,11.2-10.9,10.8-12.7
	c-0.7-3.7-3.3-3.9-8.3-0.5c-2.6,1.8-6.6,4.1-8.9,5.3c-2.3,1.2-4.4,2.4-4.7,2.8c-0.3,0.4-2.5,1.8-5,3s-5.6,3.1-7,4
	c-1.4,1-5.5,3.6-9,5.8c-3.6,2.3-7.5,4.9-8.8,5.8c-1.2,0.9-5.3,3.6-9,6c-3.7,2.4-7.2,4.7-7.8,5.2s-2.4,1.7-4,2.8
	c-3.2,2-10.9,9.8-24,24c-4.4,4.8-11.5,12.1-15.9,16.3c-7.2,7-19.3,20.1-27,29.3c-7,8.4-8.7,10.4-11.7,13.7
	c-6.6,7.4-19.2,22.7-21.6,26c-1.3,1.9-3.8,5.3-5.5,7.5s-5.5,7.8-8.6,12.5c-3.1,4.7-5.9,8.7-6.3,9c-0.6,0.5-9.9,15.4-13.9,22.3
	c-0.9,1.6-3,5-4.6,7.7s-4.3,7.2-6,10c-2.8,4.8-3.2,5.1-6.4,4.6c-1.9-0.3-3.6-0.7-3.8-0.9c-0.2-0.2,1.2-2.1,3.2-4.3
	c2-2.1,7.2-11.1,11.6-19.9c4.4-8.8,9-17.1,10.3-18.5c1.2-1.4,3.8-5,5.8-8c11.7-18.1,20.3-30.3,28.8-40.7
	c17-20.8,28.3-33.8,39.4-45.3c42.7-44.3,45.3-47,54-58.8c5.6-7.6,9.2-15.2,8.1-17.1c-1.1-1.8-5.4-1.2-7.3,0.9
	c-1,1.1-3.3,3.7-5.3,5.8c-1.9,2.1-4.4,4.9-5.4,6.2c-1.6,2-18.2,20.4-23.6,26.2c-0.8,0.9-6,5.8-11.5,10.9
	c-13.2,12.3-47.4,46.5-50.5,50.6c-1.4,1.8-4.1,4.9-6,7s-4.9,5.5-6.5,7.6c-1.6,2.1-3.5,4.3-4,4.9c-0.6,0.7-3.6,5-6.8,9.7
	c-3.2,4.7-7.9,11.5-10.5,15.2c-2.6,3.7-5.9,8.6-7.2,10.9s-3.6,5.8-4.9,7.8c-4.4,6.6-8,14.3-10.2,22c-1.2,4.2-2.6,8.1-3.1,8.8
	s-1.2,4.9-1.5,9.3c-0.5,7.4-0.8,8.2-2.9,9c-4,1.5-3.2,6.5,1.6,11.1c4.4,4.1,4.7,5,2.5,6.9c-2.2,1.8-1.8,4,1.2,7.2
	C108.8,363.9,109.8,364.1,113.6,362.7L113.6,362.7z M139.8,350.3c2.3-2.3,2.4-5.3,0.3-8c-1.7-2.2-2.9-2.7-6.5-2.7
	c-4.8,0-6.5,1.7-6.5,6.4c0,3.5,4.6,6.8,8.5,6C137.3,351.7,139.2,350.9,139.8,350.3z M147.7,337.1c0.8-2.7,1.4-4,2.7-5.8
	c1.1-1.5,1-2-0.6-3.2c-3.2-2.4-9.9-2.9-13.5-1.1c-4.1,2.1-4.5,7.1-0.7,8.5c1.3,0.5,2.7,1.4,3.1,2
	C139.7,339.2,147.2,338.9,147.7,337.1z M157.6,325.2c0.9-1.4,1.6-4,1.6-5.8c0-3.1,0.3-3.4,4.3-4.3c4-0.9,4.3-1.2,4.6-4.7
	c0.3-4.2-3-9.8-5.9-9.8c-0.9,0-2.2-0.7-2.9-1.5c-1.9-2.3-3.7-1.8-5.4,1.7c-1.9,3.9-1.9,5.8,0,8.3c0.8,1.1,1.5,2.5,1.5,3.3
	c0,2-2.8,1.5-4-0.7c-1.5-2.8-3.1-2.5-6.5,1c-2.7,2.8-2.8,3.2-1.5,5.8c2.1,4.2,4.1,6.3,6,6.3c0.9,0,2.3,0.7,3,1.5
	C154,328.3,155.7,328,157.6,325.2L157.6,325.2z M175,299.7c2.6-3.5,2.8-7.4,0.6-9.3c-0.9-0.7-2.6-2.3-3.9-3.6
	c-1.8-1.9-2.7-2.1-4.2-1.3c-1,0.6-2.7,1.3-3.7,1.6c-6.2,1.9-0.7,15.6,6.3,15.6C171.9,302.6,173.6,301.6,175,299.7L175,299.7z
	 M184.4,287c2.6-2.3,2.3-6.1-0.7-10c-3.1-4-7.1-4.4-11-1.1c-2.8,2.5-2.7,3.1,1.9,10C176.7,289.1,181.4,289.6,184.4,287z
	 M193.7,278.6c2.6-2.8,1.5-9.4-2.1-13.1c-4.9-5.1-15.4-3.3-11.5,2c0.6,0.9,1.6,2.7,2.2,4.1c1.3,3.1,6.9,9,8.5,9
	C191.4,280.6,192.7,279.7,193.7,278.6L193.7,278.6z M237.4,275c2.5-2.3,2.3-3.5-1.2-6.8c-1.6-1.6-3-3.2-3-3.7c0-1.6,4.7-0.8,6.5,1.2
	c2.7,3,7.3,2.7,8.5-0.6c2.1-5.5,1.2-8.6-3.7-13.7c-4-4.1-5.3-4.8-8.5-4.8c-4.7,0-9.7,3.4-9.7,6.6c0,1.4-1.4,3.2-4,4.9
	c-3.9,2.7-5,4.8-3,6c0.6,0.3,1.8,2.2,2.8,4c2.1,4.2,7.8,8.5,11.1,8.5C234.4,276.6,236.3,275.9,237.4,275L237.4,275z M204.6,264.5
	c0.9-1.7,1.3-4.2,1-5.4c-0.5-2.2-0.3-2.3,4.8-2.6c4.8-0.3,5.4-0.6,5.7-2.7c0.2-1.3-0.2-2.9-0.8-3.4c-0.6-0.6-1.1-2-1.1-3.1
	c0-3.4-3.9-6.6-8-6.6c-4.8,0-6,1.5-6,7.2c0,4.8,0,4.8-3.4,4.8c-4.4,0-5.9,1.9-5.1,6.5c0.5,2.5,1.4,3.9,2.9,4.5
	c1.2,0.5,2.5,1.6,2.8,2.4C198.6,268.9,202.9,268,204.6,264.5z M258.9,246.6c0.2-2.7-0.4-4.2-2.6-6.5c-2.9-3-8.6-7.5-9.7-7.5
	c-1.8,0-6.5,4.7-6.5,6.4c0,1.1,2.1,4.2,4.8,6.9c4.4,4.5,5,4.8,9.3,4.5C258.5,250.1,258.7,250,258.9,246.6z M223.7,237.7
	c0-4.1-0.3-4.6-3.7-6.4c-3.6-1.9-3.8-1.9-5.8-0.1c-2.8,2.5-2.5,5.4,0.7,8.8c2,2.1,3.5,2.8,5.8,2.6
	C223.5,242.1,223.7,241.9,223.7,237.7L223.7,237.7z M270.2,240.1c0.5-1.4,1-4.7,1-7.3c0-4.1-0.4-5-3.4-7.4c-2.8-2.2-4.5-2.8-8.9-2.8
	c-6.6,0-8.1,1.4-7.1,6.5c0.5,2.5,1.4,3.9,3,4.5c1.3,0.5,4.2,2.7,6.5,4.9C266.1,243.3,268.8,243.7,270.2,240.1L270.2,240.1z
	 M295.9,233c0.7-1.9-3.2-5.6-5.5-5.1c-2.1,0.4-3.6,3.2-2.9,5.2C288.4,235.3,295,235.2,295.9,233L295.9,233z M236,232.4
	c3.6-3.6-1.2-13.8-6.5-13.8c-4.3,0-6.3,1.7-6.3,5.5C223.2,229.9,232.4,236,236,232.4L236,232.4z M281.2,225.6c5.4-2.9-1.6-15-8.7-15
	c-4.5,0-8.4,1.6-8.4,3.6c0,2.2,7.6,10.8,10.3,11.6C277.8,226.8,279.1,226.7,281.2,225.6z M302.4,225c2.4-2.1,2.3-3.2-0.3-6
	c-3.7-4-8.8-2.2-8.8,3C293.2,226.1,299,228,302.4,225z M248.2,219.1c1.5-1.8,0.6-10.5-1.3-11.7c-0.7-0.4-3.5-0.7-6.2-0.6
	c-4.8,0.3-5,0.4-5.3,3.5C234.7,216.8,244.5,223.5,248.2,219.1L248.2,219.1z M309.1,214.2c2-2.4,0.9-7-1.8-7.4
	c-1.3-0.2-3,0.2-3.8,0.9c-1.5,1.2-2,6.1-0.8,7.3C304,216.1,307.9,215.7,309.1,214.2L309.1,214.2z M293,210.7c2.9-4,2.8-7.4-0.4-10
	c-3.5-2.8-9-2.7-12.1,0.1c-3,2.8-2.9,4.3,0.3,8.2C285.4,214.5,289.7,215.1,293,210.7L293,210.7z M254.7,204.7c0-3.6-2.2-5.7-4.9-4.7
	c-1.1,0.4-1.6,1.8-1.6,4.1c0,2.8,0.4,3.5,2.3,3.9C254.1,208.6,254.7,208.1,254.7,204.7z M320.2,203.1c2-2.4-1.3-8.5-4.6-8.5
	c-6.2,0-10.2,6.9-5.2,9C313.9,205,318.8,204.8,320.2,203.1z M264.8,198.5c1.9-2.1,1.9-2.1-0.5-4c-2.9-2.3-4.5-2-4.9,1
	C258.6,200.6,261.4,202.2,264.8,198.5z M301.5,194.4c0.7-1.1,0.7-2.6,0.1-4.5c-0.8-2.3-1.6-2.8-4.5-2.8c-3.2,0-3.5,0.3-3.8,3.3
	c-0.2,1.8,0.2,4,0.9,4.8C295.8,197.1,300.2,196.6,301.5,194.4L301.5,194.4z M327.5,191.5l3.1-3.1l-2.8-2.4c-3-2.6-5.6-3-7.4-1.2
	c-2.5,2.5-0.7,9.8,2.4,9.8C323.6,194.6,325.7,193.2,327.5,191.5z M277.1,190.2c0.9-1.1,0.8-2-0.5-4.1c-1.3-2-2.4-2.6-4.8-2.3
	c-3.7,0.4-4.6,3-2,5.9C271.8,192,275.4,192.2,277.1,190.2L277.1,190.2z M313,182c0.4-4.1-3.5-6.9-8.4-5.9c-3,0.6-3.4,1-3.4,3.9
	c0,4.5,1.7,5.8,7,5.4C312.4,185.1,312.7,184.9,313,182L313,182z M288,177.9c0.3-3.9,0-4.4-2.5-5.3c-3.7-1.4-7.3,0.2-7.3,3.2
	c0,3.3,3.9,7,7,6.6C287.4,182.2,287.7,181.6,288,177.9L288,177.9z M334.8,178.2c0.3-0.8,0-2.4-0.6-3.6c-2.2-4.2-7.4-1-5.6,3.5
	C329.3,180,334.1,180.1,334.8,178.2L334.8,178.2z M317.7,168.1c0-2.5-0.4-3-2.4-3c-2.8,0-4.7,2.5-3.8,4.9c0.4,1.2,1.5,1.6,3.4,1.4
	C317.2,171.2,317.7,170.7,317.7,168.1L317.7,168.1z M296.7,167.6c0-0.8-0.8-1.6-1.8-1.7c-1.7-0.3-2.4,1.8-1.1,3.2
	C294.9,170,296.7,169.1,296.7,167.6z M344.2,167.4c1.2-1.3,2-3.3,1.8-4.8c-0.3-2.2-0.8-2.6-4.5-2.8c-3.8-0.3-4.4,0-5.3,2.3
	c-1.3,3.5-1.3,4.1,0.6,5.9C339,170.3,341.7,170,344.2,167.4L344.2,167.4z M326.7,158.1c0-1.3-0.8-2.1-2.4-2.3
	c-2.9-0.4-4.6,1.1-3.8,3.3C321.5,161.6,326.7,160.7,326.7,158.1z M305.2,156.1c0-0.8-0.9-1.5-2-1.5s-2,0.7-2,1.5s0.9,1.5,2,1.5
	S305.2,157,305.2,156.1z M315.9,147.9c0.5-1.6-2.6-2.8-3.9-1.5c-0.6,0.6-0.7,1.6-0.3,2.2C312.5,150,315.4,149.5,315.9,147.9z
	 M362.5,142.7c2-2.7,3.7-5.3,3.7-5.7s1.3-2.1,3-3.8c2.2-2.3,3.3-4.7,4.1-9c0.6-3.3,1.5-6.4,2-6.9c2.2-2.3-0.7-7.6-4.1-7.6
	c-0.9,0-2.2-0.6-2.8-1.3c-0.8-0.9-3.7-1.4-9.9-1.4c-7.5,0-9.2,0.3-11.8,2.2c-1.6,1.2-4,2.5-5.3,2.9c-4.8,1.5-6.4,12.3-2.1,14.6
	c2.4,1.3,2.4,3.2-0.1,5.4c-2.7,2.5-2.6,6.3,0.3,7.5c1.2,0.5,3.6,1.8,5.3,3s4,2.1,5.1,2.1c1.2,0,2.7,0.7,3.4,1.5
	C355.6,149,358.6,147.9,362.5,142.7L362.5,142.7z M326.7,137.6c0-0.8-0.8-1.6-1.8-1.7c-1.7-0.3-2.4,1.8-1.1,3.2
	C324.9,140,326.7,139.1,326.7,137.6z M439.6,131.4c1.6-2.3,2-8.4,0.9-16.1c-0.4-3.2-1.7-5.8-4-8.5c-1.9-2.2-3.4-4.9-3.4-6.1
	c0-2.2-0.6-2.8-8.9-9.5c-9-7.3-13.8-1.7-6.3,7.3c2.1,2.6,4.2,5.5,4.5,6.5s2.2,2.7,4.2,3.8c3.8,2.2,3.8,3.9,0.1,3.9
	c-2.8,0-9.7-5.2-11.1-8.4c-1.7-3.7-9.1-9.8-11.6-9.5c-3.3,0.5-3.3,2.2-0.2,5.9c2.3,2.8,2.8,4.4,3.1,10.4c0.5,8.9,1.8,10.6,8.2,10.6
	c3.4,0,5.2,0.5,6.5,2c1,1.1,3.3,2.3,5.2,2.6c2.6,0.5,3.7,1.4,4.8,4C433.4,134.3,437.2,134.9,439.6,131.4L439.6,131.4z M328.6,97.7
	c2.1-2.2,2.7-3.7,2.4-6.3c-0.7-7.3-7.8-3.4-7.8,4.2C323.2,101.5,324.5,102,328.6,97.7z M392.2,95.1c0-0.8-0.7-1.5-1.5-1.5
	s-1.5,0.7-1.5,1.5s0.7,1.5,1.5,1.5S392.2,96,392.2,95.1z M403.8,77.1c1.6-0.8,3.7-1.5,4.8-1.5c1.1,0,2.7-0.7,3.6-1.5
	c0.9-0.8,4-1.8,6.9-2.1c4.1-0.5,5.6-1.2,7.1-3.4c2.8-3.9,2.5-5.6-1.6-7.5c-3.7-1.7-4-1.7-10.7,1.7c-1,0.5-3.1,0.9-4.8,0.9
	c-5.7,0-15,6.8-15,10.9c0,1.5,0.3,3,0.7,3.4C396,79.1,400.9,78.7,403.8,77.1z M389,71c2.6-1.8,2.6-5.1,0-6.8
	c-2.6-1.6-8.8,1.6-8.8,4.7c0,1.3,0.3,2.6,0.7,3C382.1,73.2,386.7,72.6,389,71z M442.1,56.3c0.9-0.8,2.9-1.8,4.6-2.3
	c2.9-0.9,3-1.2,3.7-8.8c0.4-4.8,0.3-8.3-0.3-9.1c-1.7-2-14-0.6-16.7,1.9c-2.1,1.9-2.1,2.2-0.8,4.3c2.2,3.4,1.9,4.4-1.8,4.4
	c-1.8,0-4.2,0.7-5.3,1.5c-1.1,0.8-2.7,1.5-3.6,1.5c-4.2,0.1-2.6,5,1.7,5c1.2,0,2.8,0.7,3.5,1.5C428.8,58.1,439.9,58.2,442.1,56.3
	L442.1,56.3z M399.7,53.6c2.1-0.8,2.6-1.6,2.3-3.8c-0.4-3.7-4.3-4.1-8.2-0.8C388.7,53.2,392.7,56.3,399.7,53.6z M425.6,43.2l2.9-2.4
	l-3.3-4.6c-2.7-3.8-3.9-4.6-6.4-4.6c-3.9,0-5.5,1.6-5.5,5.4c0,2.2,0.9,3.8,3.3,5.8C420.4,46.2,421.9,46.2,425.6,43.2z"/>
</svg>
