<?xml version="1.0" encoding="UTF-8"?>
<svg viewBox="0 0 744.09447 1052.362179" xmlns="http://www.w3.org/2000/svg">
 <path d="m493.56 841.75c-1.5367-1.7947-1.5533-2.1945-0.17307-4.1651 0.83974-1.1989 1.5268-3.2047 1.5268-4.4573s0.39815-2.2775 0.88478-2.2775 1.194-2.475 1.572-5.5 1.0476-5.5 1.488-5.5 1.0216-2.298 1.2915-5.1066 0.94766-5.3961 1.5062-5.75 1.3372-3.0059 1.7304-5.8934 1.1022-5.25 1.5757-5.25 1.1563-1.575 1.5175-3.5 0.98865-3.5 1.3945-3.5 1.0201-4.2965 1.365-9.5478c0.42949-6.5383 1.1074-10.028 2.1508-11.071 0.83801-0.83801 1.5236-2.8415 1.5236-4.4522s0.39891-2.9286 0.88646-2.9286 1.2067-2.1375 1.598-4.75 1.1057-4.9943 1.5873-5.2928 1.1772-3.786 1.5456-7.75 0.99597-7.2072 1.3946-7.2072 0.97995-1.9028 1.2919-4.2285 1.0462-4.3882 1.6317-4.5833 1.0645-1.467 1.0645-2.8264 0.92641-4.5051 2.0587-6.9906 1.8428-5.0483 1.579-5.6951-0.51526-0.29855-0.55868 0.77395c-0.0614 1.5167-0.34562 1.6833-1.279 0.75-1.7883-1.7883-3.5846-1.4542-4.3 0.8-0.34913 1.1-1.2794 2-2.0674 2s-1.4326 0.9-1.4326 2-0.41968 2-0.93261 2-1.252 1.0063-1.6424 2.2362c-0.59272 1.8675-13.425 15.475-13.425 14.236 0-0.22327-1.575 1.1691-3.5 3.0941s-3.5 3.9491-3.5 4.498-0.65787 1.2505-1.4619 1.559-1.7115 1.3474-2.0166 2.3085-1.6843 2.3521-3.065 3.091-2.7534 2.3118-3.0505 3.4952-3.2746 4.5884-6.6169 7.5666-7.7649 6.9899-9.828 8.9149c-4.9971 4.6626-8.9611 7.9468-8.9611 7.4243 0-0.23338-0.9 0.47567-2 1.5757s-2.6526 2-3.4503 2-1.8102 0.59342-2.25 1.3187c-1.0119 1.6686-9.8023 7.6813-11.23 7.6813-0.5884 0-1.0698 0.40598-1.0698 0.90217s-1.2375 1.3468-2.75 1.8903-4.325 2.4226-6.25 4.1758-5.4578 4.8401-7.8508 6.8597-7.071 6.0424-10.396 8.9395-7.1044 5.5334-8.3992 5.8584-2.3542 0.88222-2.3542 1.2383-1.4625 1.2835-3.25 2.0609-4.2453 2.4668-5.4617 3.7543c-3.648 3.8611-10.288 5.7076-10.288 2.861 0-1.8555 4.8554-6.4373 7.5578-7.1319 1.1318-0.29091 2.8824-1.6268 3.8901-2.9688s2.7006-2.4398 3.762-2.4398c1.9281 0 9.5795-4.7894 12.806-8.0158 0.93934-0.93934 3.0817-2.5194 4.7608-3.5113s3.4559-2.7415 3.9485-3.8881c1.1105-2.585 0.53242-5.5847-1.0762-5.5847-1.3763 0-4.6489-3.5278-4.6489-5.0114 0-0.54371-0.68912-0.98857-1.5314-0.98857s-1.7904-0.675-2.107-1.5-0.99889-1.5-1.5162-1.5-3.1906-2.25-5.9406-5-5.4234-5-5.941-5c-1.1821 0-4.3964-2.5481-8.5146-6.75-3.2771-3.3437-5.1944-3.8976-8.2127-2.3728-3.6323 1.835-9.034 3.1228-13.099 3.1228-2.7434 0-4.9246 0.65571-6.2315 1.8732-1.1197 1.0432-5.8188 2.7049-10.604 3.75-11.83 2.5834-11.716 2.4603-10.848 11.717 0.39541 4.2196 1.0706 7.4547 1.5003 7.1891s1.0097 2.7078 1.2887 6.6075 0.9926 7.3904 1.5857 7.757 1.3808 2.5573 1.7503 4.8683 1.0029 3.9973 1.4074 3.7473 1.0277 2.3457 1.3849 5.7682 1.095 6.3727 1.6396 6.5561c1.6751 0.5639 1.2054 7.1667-0.50981 7.1667-0.96598 0-1.5054-0.97903-1.5153-2.75-0.0104-1.8649-0.28473-2.3251-0.8524-1.4298-0.53958 0.85099-1.0578-0.54383-1.4583-3.9246-0.34164-2.8847-1.0474-5.5082-1.5683-5.8302s-1.2771-1.9309-1.6804-3.5754-1.0953-3.23-1.5378-3.5234-1.1129-4.2309-1.4898-8.75-1.0081-8.2166-1.4028-8.2166-0.94315-3.9572-1.2189-8.7937c-0.27871-4.8881-1.1176-9.7871-1.8887-11.031-1.1693-1.8853-1.1731-2.3702-0.0242-3.0852s1.1509-0.91921 0-1.3029c-1.0642-0.35482-1.2994-2.8462-1.0724-11.362 0.15994-5.9991 0.72244-11.339 1.25-11.867 1.2747-1.2746 1.2384-11.559-0.0408-11.559-0.55 0-1-1.8266-1-4.059 0-2.4514 0.39607-3.8142 1-3.441 0.63523 0.3926 1-2.3369 1-7.4828 0-6.7625-0.33588-8.4614-2.033-10.283-3.3636-3.6104-5.3529-1.3555-6.0598 6.8686-0.83277 9.6885 0.1483 34.627 1.4256 36.238 0.61679 0.77799 1.1623 7.6024 1.2993 16.256 0.20515 12.953 0.0476 14.726-1.1979 13.48-1.1055-1.1055-1.4376-4.601-1.4494-15.256-0.016-14.391-0.88563-18.304-3.3526-15.087-0.73143 0.95395-1.6229 1.4414-1.981 1.0833s-0.65112 0.12543-0.65112 1.0746 0.45 1.4476 1 1.1076c0.62343-0.3853 0.99423 1.5695 0.98469 5.191-0.0109 4.1195-0.29725 5.3728-0.98469 4.309-0.73945-1.1442-0.97301-0.75551-0.98469 1.6389-0.0116 2.3702-0.44375 3.1049-1.7648 3-1.1311-0.0898-1.868 0.69717-2.0847 2.2264-0.377 2.6607 1.7633 5.5099 2.5425 3.3847 0.25209-0.6875 1.2083-1.2145 2.125-1.171 1.0394 0.0492 1.1962 0.26879 0.41667 0.58333-1.4794 0.59697-1.7015 5.3377-0.25 5.3377 0.55 0 0.99311 1.0125 0.98469 2.25-0.0124 1.8194-0.20082 1.963-0.98469 0.75-0.75538-1.1689-0.97275-0.89294-0.98469 1.25-8e-3 1.5125 0.43469 2.75 0.98469 2.75 1.6949 0 1.1468 5.7297-0.61262 6.4048-1.2578 0.48265-1.3571 0.92672-0.45145 2.018 0.80865 0.97435 0.83789 1.5989 0.0963 2.0573-0.58568 0.36197-0.80144 1.0844-0.47946 1.6053s0.95716 0.71746 1.4115 0.43665c0.95196-0.58834 2.0357 1.7948 2.0357 4.4764 0 1.0092 0.4311 1.9849 0.95799 2.1682 1.3824 0.48099 1.7749 9.0351 0.43639 9.5108-0.67041 0.23827-1.5049-2.0811-2.1199-5.8922-0.79052-4.8985-1.1791-5.7888-1.761-4.0352-0.86383 2.6029-3.0224 2.9722-3.9064 0.66821-0.33383-0.86998-0.60697-4.8303-0.60697-8.8006 0-6.7564-1.5128-12.592-3.269-12.61-0.42298-4e-3 -0.4867 1.1172-0.14159 2.4922 0.38661 1.5404 0.20201 2.5-0.48095 2.5-0.66342 0-1.1084 2.0073-1.1084 5 0 2.795 0.45866 5 1.0401 5s0.965 1.8645 0.86897 4.25c-0.0941 2.3375 0.0988 6.5 0.42869 9.25s0.35479 4.207 0.0554 3.2378-0.91604-1.5326-1.3702-1.2519c-1.0268 0.63462-2.2428-19.428-1.7759-29.301 0.23592-4.9882 0.80836-7.6184 1.7995-8.2683 1.2388-0.81233 1.1929-1.1066-0.31113-1.9927-0.97056-0.57178-2.3078-1.621-2.9716-2.3316-2.7305-2.923-3.8537 0.94268-4.4716 15.39-0.32977 7.7095-0.9804 14.017-1.4459 14.017s-0.84634 0.675-0.84634 1.5-0.675 1.5-1.5 1.5-1.5287 0.3375-1.5638 0.75c-0.47253 5.5517-0.88907 7.824-1.7626 9.6155-0.57248 1.174-1.3281 4.722-1.6791 7.8845s-1.0071 5.75-1.4579 5.75-1.112 1.1647-1.4692 2.5882c-0.52969 2.1104-0.91414 2.3687-2.0825 1.399-1.0964-0.90995-1.2857-2.6332-0.80617-7.3382 0.3447-3.382 0.94718-6.374 1.3388-6.649s1.0436-3.2 1.4489-6.5 1.1901-6.2818 1.7442-6.6263 1.2409-2.698 1.5263-5.23 0.91139-4.3611 1.3911-4.0647 0.8722-1.9891 0.8722-5.079c0-3.159-0.4021-5.3695-0.91863-5.0503-0.50524 0.31226-1.216-0.78618-1.5794-2.441s-1.0393-3.0087-1.5019-3.0087-1.1293-1.3124-1.4816-2.9165-1.2881-3.1649-2.0795-3.4686-1.4389-1.0353-1.4389-1.6257c0-1.2606-1.0266-2.5711-6.75-8.6172-2.3375-2.4693-4.25-4.8033-4.25-5.1867s-1.3286-1.2852-2.9526-2.004-3.24-2.2126-3.5913-3.3195c-0.85426-2.6915-0.0445-3.3073 1.8534-1.4094 0.85119 0.85119 2.0298 1.5476 2.619 1.5476s1.0714 0.45 1.0714 1 0.68912 1 1.5314 1 1.7904 0.675 2.107 1.5 1.211 1.5 1.9877 1.5c1.0369 0 1.2333-0.73059 0.73904-2.75-0.37016-1.5125-0.97406-2.975-1.342-3.25-0.36794-0.275-0.98131-1.3443-1.3631-2.3762-0.67003-1.8111-0.59818-1.8153 2.0729-0.11973 3.3206 2.1078 6.9697 6.1714 10.548 11.746 1.7618 2.7446 4.0939 3.5705 5.1693 1.8306 0.31252-0.50566-0.0516-1.5392-0.80905-2.2966s-1.692-2.3688-2.0766-3.5806-1.0887-2.2034-1.5645-2.2034-1.1756-0.97793-1.555-2.1732c-0.74109-2.335-1.2138-2.9838-6.195-8.5046-1.7875-1.9811-3.25-4.1659-3.25-4.8551s-0.675-1.5122-1.5-1.8287c-1.814-0.69609-1.9999-2.6453-0.25-2.6211 1.6074 0.0222 5.75 4.374 5.75 6.0403 0 0.70165 0.27223 1.0035 0.60495 0.67078 0.67244-0.67245 5.395 4.0699 5.395 5.4176 0 0.46969 0.73125 0.85398 1.625 0.85398 1.2746 0 1.4948-0.65118 1.0211-3.0196-0.56335-2.8168-1.174-3.8507-4.3961-7.4436-0.6875-0.76662-1.25-1.876-1.25-2.4653s-0.61749-1.0714-1.3722-1.0714c-0.82762 0-1.626-1.5874-2.0118-4-0.35179-2.2-1.0843-4-1.6278-4s-0.98818-0.62686-0.98818-1.393-0.675-1.652-1.5-1.9686-1.5-0.13972-1.5 0.39301-1.6875 0.97551-3.75 0.98393-4.419 0.43828-5.2366 0.95525c-1.2528 0.79207-1.0974 1.3009 0.98729 3.2347l2.4739 2.2948-2.8788 0.33008c-1.5833 0.18154-3.1953-0.18206-3.5821-0.80799-0.9045-1.4635-5.9896-0.24837-6.6992 1.6008-0.28821 0.75107-0.92687 1.1166-1.4192 0.81231s-0.89522 0.17484-0.89522 1.0648 0.45 1.3399 1 1 1 0.0835 1 0.94098 0.7875 1.562 1.75 1.5656 3.1 0.93917 4.75 2.079l3 2.0724-5.75-0.65095c-3.8288-0.43346-5.75-0.29279-5.75 0.421 0 0.58958 0.5051 1.072 1.1224 1.072 0.76721 0 0.72179 0.48276-0.1435 1.5254-0.72669 0.8756-2.5892 1.438-4.3724 1.3203-6.7219-0.44374-8.2795 0.16719-13.436 5.2703-2.8435 2.8138-5.17 5.7388-5.17 6.5s-0.41968 1.384-0.93261 1.384-1.2203 0.90653-1.572 2.0145-1.0098 1.7856-1.4626 1.5057-1.0812 0.16364-1.3966 0.98548c-0.73134 1.9058-3.6362 1.9583-3.6362 0.0657 0-0.78572 0.675-2.1036 1.5-2.9286s1.5-2.0397 1.5-2.6992c0-1.8211-7.7156-0.28651-10.201 2.0289-2.5119 2.3402-7.9931 5.0275-10.254 5.0275-0.90911 0-4.0857 1.3536-7.059 3.0079s-6.5773 3.1048-8.0088 3.2233-3.0795 0.78991-3.6623 1.4921c-1.2038 1.4505-5.6396 1.6738-7.6717 0.38622-1.801-1.1412-0.73437-4.2591 2.0524-5.9995 1.2198-0.76176 8.3979-3.3068 15.951-5.6557s14.998-4.9445 16.543-5.768 5.5098-2.7774 8.8098-4.3418 6.8191-3.5824 7.8202-4.4842 3.7664-2.1846 6.1452-2.8506c4.3535-1.2189 14.535-9.598 14.535-11.962 0-0.64116 0.45-0.88762 1-0.5477s1 0.0806 1-0.57631 1.125-2.237 2.5-3.5113 2.5-2.1475 2.5-1.9403c0 0.44111 3.236-2.293 9.7311-8.2221 2.5607-2.3375 4.9884-4.25 5.395-4.25s0.9947-0.7875 1.307-1.75 3.2676-3.487 6.5674-5.6101 5.9996-4.2871 5.9996-4.809 0.45-0.67082 1-0.3309 1-0.0977 1-0.97237 0.675-1.8494 1.5-2.166 1.5-1.0384 1.5-1.604c0-1.2543 4.7332-5.7577 6.0515-5.7577 0.52166 0 0.94848-0.35298 0.94848-0.78439s1.3572-1.5861 3.0159-2.5659 4.5167-3.3269 6.351-5.2156 3.8522-3.4341 4.4841-3.4341 1.149-0.37396 1.149-0.83102 1.125-1.4331 2.5-2.169c2.4642-1.3188 3.6345-6 1.5-6-0.5697 0-1-2.9583-1-6.875 0-8.0719-0.88616-13.313-2.1218-12.55-0.48304 0.29853-0.87825-0.28377-0.87825-1.294s-0.7875-2.5686-1.75-3.463-3.1-3.2642-4.75-5.2661-4.2375-4.9856-5.75-6.6304-2.75-3.5813-2.75-4.3032-0.9-2.3502-2-3.6185-2-3.7378-2-5.4877c0-2.2746-0.85534-3.9438-3-5.8547-1.65-1.4702-3-3.0714-3-3.5583s-0.69607-1.1524-1.5468-1.4789c-1.552-0.59557-5.4259 2.7752-8.4532 7.3552-0.825 1.2482-1.9842 2.7788-2.5759 3.4013s-1.3857 2.6808-1.7643 4.5738c-0.84943 4.2471-3.7877 11.049-4.7728 11.049-0.40046 0-1.0246 1.35-1.387 3s-1.0156 3-1.4516 3-1.0806 1.8-1.4324 4-1.0843 4-1.6278 4-0.98818 0.65948-0.98818 1.4655-1.35 2.8466-3 4.5345-3 3.7105-3 4.4947-2.25 3.7116-5 6.5053-5 5.5382-5 6.0988-0.39884 0.77274-0.88631 0.47146-1.1064 0.29376-1.3753 1.3223c-0.64655 2.4724-7.6231 4.912-8.7646 3.0649-1.1832-1.9144-0.12351-3.703 2.5987-4.3862 2.7375-0.68706 3.175-2.0704 0.92764-2.9328-2.5357-0.97305-1.6947-5.2874 1.75-8.9776 1.7875-1.9149 3.925-4.4756 4.75-5.6905 0.825-1.2149 2.8198-3.5528 4.4328-5.1955 3.2792-3.3394 6.5672-8.9825 6.5672-11.271 0-0.82699 0.41425-1.5036 0.92054-1.5036s1.2378-1.4625 1.6256-3.25 1.1104-3.5089 1.6059-3.8254 1.1766-2.904 1.5137-5.75 0.94909-5.1746 1.36-5.1746 1.0508-2.025 1.422-4.5 1.0669-4.5 1.5462-4.5 1.1892-1.0125 1.5777-2.25 1.7688-3.241 3.0674-4.4522 2.3631-2.5612 2.3656-3 1.3754-2.2602 3.0507-4.0478 2.5732-3.25 1.9954-3.25-1.0507-0.83115-1.0507-1.847-0.89166-2.9283-1.9815-4.25l-2.8373-3.4366c-0.4707-0.56848-1.1626-2.256-1.5376-3.75s-1.1232-2.7164-1.6627-2.7164-0.98095-0.86786-0.98095-1.9286-0.5991-2.5277-1.3313-3.2599-1.6679-2.6724-2.0793-4.3114-1.1683-3.2398-1.682-3.5574-1.1582-2.797-1.432-5.51-0.94289-5.0827-1.4867-5.2661-0.98868-1.127-0.98868-2.097-0.7875-2.711-1.75-3.8688-2.5254-3.1034-3.4732-4.3234c-1.2412-1.5978-2.9194-2.273-6-2.4138-6.3214-0.28912-12.647-2.4806-13.325-4.6162-0.32248-1.0161-1.006-1.8474-1.519-1.8474-0.52872 0-0.93261-5.599-0.93261-12.929 0-9.9632-0.33273-13.261-1.4506-14.379-0.79785-0.79785-1.7466-2.63-2.1084-4.0714s-1.0287-2.6208-1.482-2.6208-1.1402-1.0125-1.5264-2.25-1.0741-2.4908-1.5286-2.785-1.0033-6.8984-1.2195-14.676c-0.31764-11.427-0.7089-14.456-2.0388-15.786-0.90515-0.90514-1.6457-2.7386-1.6457-4.0743s-0.45-2.4286-1-2.4286c-1.152 0-1.3923-12.659-0.25-13.167 0.4125-0.18333 1.7872-2.2653 3.0548-4.6266 1.8568-3.4589 2.1752-5.1575 1.638-8.7398-0.36674-2.4456-1.0332-4.22-1.4811-3.9432-1.4874 0.91929-2.129-9.7925-1.7934-29.941 0.2466-14.804 0.65272-20.024 1.5818-20.333 0.9176-0.30506 1.25-3.999 1.25-13.891 0-8.7292-0.35223-13.258-1-12.858-0.63662 0.39345-1-2.4618-1-7.8576 0-5.1529 0.42121-8.6161 1.0744-8.8338 0.59092-0.19697 1.3274-3.148 1.6366-6.5579s0.89321-5.9952 1.2978-5.7452 0.96912-1.617 1.2545-4.1491 0.953-4.8856 1.4836-5.23 1.2948-2.4263 1.6984-4.6263 1.1556-4.5107 1.6711-5.1348 1.2142-4.0988 1.5524-7.7213 0.96131-6.3725 1.3845-6.1109 1.0739-1.3264 1.446-3.5287 1.0512-4.0042 1.5092-4.0042 1.1483-1.437 1.534-3.1934 1.209-3.7657 1.8294-4.4653c2.8934-3.2624 3.6281-4.3302 3.6281-5.2732 0-0.55897 4.1625-5.2421 9.25-10.407s9.925-10.394 10.75-11.619c1.8735-2.7833 4.4872-6.0728 6.4166-8.0755 2.5699-2.6676 4.5708-7.3523 4.5772-10.716 3e-3 -1.7875 0.43577-3.25 0.96085-3.25s1.2502-1.575 1.6113-3.5 0.94402-3.5099 1.2953-3.522 2.8333-2.0267 5.5155-4.4768c3.7216-3.3995 6.6354-4.9829 12.3-6.6845 4.8113-1.4451 8.7255-3.3884 11.123-5.5224 2.0347-1.811 4.0067-3.293 4.3821-3.2935s0.96826-0.90078 1.3174-2.0008c0.37833-1.192 1.5165-2.0025 2.8174-2.0062 1.2004-3e-3 3.5326-0.7245 5.1826-1.6025 3.6044-1.9179 14.073-2.246 17.238-0.5403 1.2307 0.66337 7.3057 1.6435 13.5 2.178 15.823 1.3654 21.779 2.4332 29.517 5.2911 3.7099 1.3702 8.5066 2.7424 10.659 3.0494 4.4812 0.63887 14.205 5.1736 16.919 7.8905 1.5319 1.5334 3.2188 1.7967 10.265 1.6025 5.4556-0.15036 8.8502 0.18588 9.6169 0.95258 0.65173 0.65173 2.0582 1.185 3.1254 1.185 1.8819 0 10.65 3.8564 11.66 5.128 0.275 0.34645 2.975 0.95975 6 1.3629s5.95 1.0729 6.5 1.4883 3.8239 1.7184 7.2753 2.8954c7.9774 2.7206 13.103 6.0041 13.853 8.8754 0.32355 1.2375 0.98948 2.25 1.4799 2.25s0.89159 1.125 0.89159 2.5c0 2-0.5 2.5-2.5 2.5-1.375 0-2.5-0.41538-2.5-0.92308 0-1.5109-5.8512-6.899-8.264-7.6097-1.2298-0.36231-5.096-2.0263-8.5916-3.6977s-8.4456-3.2658-11-3.543-5.7694-1.263-7.1444-2.1907-4.075-2.2906-6-3.0288c-1.925-0.73821-3.95-1.6397-4.5-2.0034s-4.3459-0.54206-8.4354-0.39645-8.1804-0.13392-9.0909-0.62121c-1.0437-0.55858-3.4506-0.34572-6.5133 0.57602-3.7467 1.1276-5.613 1.2128-8.1591 0.37247-5.2392-1.7291-3.634-3.9344 2.8638-3.9344 3.2758 0 3.5537-2.1304 0.33949-2.6022-3.9626-0.58158-7.007-1.5926-7.5781-2.5167-0.32643-0.52818-6.1809-2.2842-13.01-3.9022s-14.216-3.3898-16.416-3.9373-7.825-1.2185-12.5-1.4912-10.75-1.0083-13.5-1.6348c-5.9827-1.3629-12.944-1.2837-15.676 0.17834-1.802 0.96438-4.1111 2.7021-7.186 5.4077-3.7038 3.259-13.86 8.4983-16.473 8.4983-2.3309 0-4.3217 1.2682-8.5993 5.478-4.6212 4.5479-5.5662 6.0638-5.5662 8.9286 0 1.8978-0.675 4.1256-1.5 4.9506s-1.5 1.9663-1.5 2.5362-0.9 1.5179-2 2.1066-2 1.5235-2 2.0774c0 1.398-1.5347 3.2304-8.8451 10.56-3.4898 3.4992-6.7523 6.3622-7.25 6.3622s-0.90492 0.95888-0.90492 2.1308c0 1.8867 0.41108 2.0641 3.5877 1.5486 1.9732-0.32022 4.7346-1.7291 6.1364-3.1308s3.0524-2.5486 3.6682-2.5486 1.7171-1.35 2.4475-3c1.1698-2.6427 1.8242-2.9993 5.4941-2.9938 2.2914 3e-3 5.4901 0.69655 7.1083 1.5404 2.9339 1.5299 11.086 2.2591 12.249 1.0956 0.3372-0.3372-0.91788-2.0118-2.7891-3.7213l-3.4021-3.1082 3.4047 0.59962c1.8726 0.32979 3.9956 1.09 4.7178 1.6894 2.7387 2.2729 12.677 7.8983 13.953 7.8983 0.73336 0 2.4989 1.1655 3.9233 2.5899 3.0561 3.0561 5.501 2.544 5.501-1.1522 0-1.784-0.64076-2.7926-2-3.148-1.1-0.28766-2-0.86593-2-1.2851s-1.35-1.3212-3-2.0047-3-1.594-3-2.0235-1.3277-1.2437-2.9505-1.8094-3.7478-1.9597-4.7222-3.0978-2.5506-2.0693-3.5025-2.0693c-2.2911 0-6.8248-2.0995-6.8248-3.1605 0-1.3412 4.7273-0.96929 6.183 0.48641 0.72924 0.72924 2.8074 1.6222 4.6181 1.9844s6.3842 2.0155 10.163 3.6741c8.1835 3.5918 10.052 3.7953 9.3254 1.0157-0.28766-1.1-0.83948-2-1.2263-2s-2.2154-1.35-4.0635-3-3.9542-3-4.6801-3-1.3199-0.39752-1.3199-0.88337-0.9-1.1187-2-1.4064c-2.4623-0.6439-2.6532-2.7114-0.25-2.7071 2.3041 4e-3 11.655 6.3993 17.2 11.764 4.0742 3.9412 9.1734 7.2333 11.204 7.2333 1.4637 0 0.91846-3.0351-0.65364-3.6384-0.825-0.31659-1.5-1.4058-1.5-2.4205s-1.575-3.3745-3.5-5.244-3.5-3.9771-3.5-4.6835c0-1.7035 4.7111-6.0136 6.573-6.0136 1.6613 0 9.0248 4.5208 11.677 7.169 2.1736 2.1703 2.342 4.9954 0.25 4.1926-2.2117-0.84871-1.8539 1.8909 0.51143 3.9161 1.1063 0.94723 2.3438 1.73 2.75 1.7395s1.6975 1.0298 2.8696 2.2674c2.0173 2.13 3.676 3.1001 10.119 5.9182 1.5125 0.66157 3.0875 1.3631 3.5 1.559s0.75-0.28913 0.75-1.0778-1.2375-1.6844-2.75-1.9904-3.8232-1.5614-5.135-2.7897c-2.2367-2.0945-2.2757-2.3133-0.6279-3.5182 1.4552-1.064 2.5726-0.97494 6.5031 0.51854 4.5993 1.7476 4.7312 1.7464 4.2642-0.0392-0.26502-1.0134-0.84829-1.6161-1.2962-1.3393s-1.102-0.40326-1.4537-1.5112-1.0591-2.0145-1.572-2.0145-0.93261-0.45-0.93261-1c0-1.1569 2.6699-1.3677 3.1667-0.25 0.18333 0.4125 2 1.5971 4.037 2.6325s4.5237 2.6465 5.5259 3.5802c1.9048 1.7746 8.2761 3.519 8.2626 2.2623-0.0108-1.0016-4.9905-3.225-7.223-3.225-1.0076 0-2.09-0.67242-2.4054-1.4943s-0.97625-1.2453-1.4686-0.94098-0.89522 0.0767-0.89522-0.50574-0.675-1.059-1.5-1.059-1.5-0.45-1.5-1-0.45-1-1-1c-1.2969 0-5-3.7031-5-5 0-1.8877 3.8985-0.99861 6.6002 1.5053 1.4868 1.3779 4.435 3.0242 6.5515 3.6583s3.8482 1.4792 3.8482 1.878c0 1.7849 4.2408 1.7 5.7957-0.11606 2.1739-2.5389 3.9575-2.4301 9.633 0.58758 2.5996 1.3822 6.8292 2.9607 9.3989 3.5076s5.6848 1.2246 6.9223 1.5059 2.25 0.0529 2.25-0.50762-0.45-1.019-1-1.019c-1.2969 0-5-3.7031-5-5 0-0.55 1.3179-1 2.9286-1s3.6036-0.675 4.4286-1.5c1.9584-1.9584 4.2427-1.865 9.1739 0.37504 2.8893 1.3124 4.7108 1.5796 6.431 0.9433 1.476-0.54601 3.5427-0.48944 5.3682 0.14693 1.6325 0.5691 4.2285 1.0347 5.7689 1.0347 2.1873 0 8.8649 3.4904 12.872 6.7281 1.3354 1.079-2.9661 2.0972-6.6986 1.5856-3.9387-0.53986-4.2724-0.40966-4.2724 1.6669 0 1.9656-0.35025 2.1606-2.75 1.5306-5.8083-1.5247-22.25 0.48494-22.25 2.7196 0 1.2884-3.2403 4.3515-5.5 5.1992-1.1 0.41265-4.7 0.92995-8 1.1496-3.7834 0.25178-6.406 0.95158-7.0989 1.8943-0.60438 0.82226-1.3919 1.202-1.75 0.84389s-0.65112-0.16627-0.65112 0.42634c0 2.5223-13.239 7.4485-25 9.3023-4.675 0.73688-8.7479 1.697-9.0509 2.1335-1.139 1.6412-20.015 2.884-25.85 1.7019-5.2283-1.0593-5.9849-0.9566-11.41 1.5488-6.0139 2.7773-5.4746 2.7427-21.69 1.3919-0.825-0.0687-1.8306-0.61939-2.2347-1.2237-0.52542-0.78579-0.73905-0.77318-0.75 0.0443-8e-3 0.62866-0.72273 1.4145-1.5874 1.7463-1.7827 0.68404-10.428-1.2516-10.428-2.3348 0-0.76036-5.5273-0.28819-8 0.6834-0.825 0.32416-1.725 0.66712-2 0.76212-2.7083 0.93563-4.023 1.9972-4.557 3.6797-0.34824 1.0972-3.2904 4.587-6.5381 7.755s-5.9049 6.0728-5.9049 6.4549-0.45481 1.2383-1.0107 1.9026l-3.984 4.7078c-1.6353 1.925-2.9805 4.0669-2.9893 4.7598s-0.91597 2.0304-2.016 2.9722-2 2.5124-2 3.4902-0.39992 1.7778-0.88871 1.7778-1.2051 1.6865-1.5918 3.7477-1.1237 4.0076-1.6377 4.3254-1.2165 3.0187-1.561 6.0023-1.0398 5.6961-1.545 6.0278-1.1778 5.0567-1.4946 10.5c-0.31856 5.4731-1.0689 10.216-1.6786 10.612-0.75327 0.48834-1.0201 6.5076-0.84225 19 0.28687 20.151-0.13731 24.238-2.4242 23.361-1.0787-0.41394-1.3821 0.0364-1.1313 1.6794 0.18845 1.2348 0.89446 2.1326 1.5689 1.9951 1.4837-0.30249 1.6596 2.4389 0.18797 2.9294-0.57106 0.19035-1.3126 3.6174-1.6478 7.6156s-0.99296 7.5066-1.4617 7.7962-0.85226 3.2611-0.85226 6.603c0 5.2091 0.35951 6.4095 2.519 8.4108 1.3854 1.284 2.7917 3.6981 3.125 5.3647s0.99978 3.0302 1.481 3.0302 0.875 0.86786 0.875 1.9286 0.67178 2.6004 1.4928 3.4214c1.8573 1.8573 2.6334 19.313 0.90856 20.435-0.60423 0.39319-1.4069 3.3977-1.7836 6.6766s-1.0676 6.204-1.5352 6.5-1.0248 4.0483-1.2383 8.3383c-0.26895 5.4047-0.84204 8.1151-1.8662 8.8261-1.1167 0.77525-1.1725 1.1501-0.22804 1.5333 0.6875 0.27897 1.25 2.0306 1.25 3.8925 0 2.5983 0.34871 3.2515 1.5 2.8097 0.9832-0.37729 1.5-1.9372 1.5-4.5276 0-2.38-0.39777-3.7062-1-3.334-0.55 0.33992-1-0.0835-1-0.94098s0.39203-1.559 0.87117-1.559 1.1652-2.2162 1.5245-4.9248 1.1494-5.0902 1.7557-5.2923 1.3329-2.8234 1.6146-5.8252 0.97171-5.7538 1.5333-6.1157 1.2297-3.1744 1.4847-6.25 0.85802-5.592 1.3399-5.592 0.87617-1.5484 0.87617-3.441 0.47994-3.7376 1.0665-4.1001c1.8244-1.1276 2.423 0.52761 1.0094 2.7912-0.96381 1.5433-1.0243 2.2671-0.21214 2.5379 1.6017 0.5339 1.4113 2.7389-0.36376 4.2121-0.825 0.68469-1.5 2.5132-1.5 4.0634s-0.40572 3.0693-0.9016 3.3758-1.2151 3.258-1.5982 6.559-1.0489 6.0018-1.4795 6.0018-1.1034 4.275-1.4951 9.5-1.1202 9.5-1.6189 9.5c-1.232 0-1.1547 3.7287 0.0933 4.5 0.55 0.33992 1 2.8415 1 5.559s-0.45 4.941-1 4.941-1 1.478-1 3.2844c0 2.5421 0.6372 3.6608 2.8196 4.9499l2.8196 1.6656-0.0696-15.985c-0.0469-10.768 0.29567-16.218 1.0494-16.7 0.61544-0.39341 1.4413-4.2028 1.8353-8.4653s1.0755-7.75 1.5145-7.75 1.1196-3.0011 1.5124-6.6691c0.41627-3.8871 1.369-7.3239 2.2839-8.2388 1.4263-1.4263 1.5083-0.98192 0.89734 4.8632-0.3698 3.5381-1.0664 6.6831-1.5479 6.9888-0.95946 0.60925-2.724 16.106-2.2725 19.959 0.15486 1.3215-0.30275 2.7639-1.0169 3.2053-0.74389 0.45974-1.398 3.0639-1.5315 6.0972-0.35156 7.9869 0.7564 19.882 1.7923 19.242 0.95802-0.59209 1.4681 4.4329 1.0965 10.803-0.15543 2.6651 0.18956 3.75 1.1924 3.75 0.77613 0 1.636-0.58602 1.9109-1.3023 0.8973-2.3383 0.0924-16.845-0.97264-17.53-1.3071-0.84068-2.2946-18.985-1.195-21.958 1.1031-2.9818 2.882-2.8027 2.882 0.29021 0 1.375 0.417 2.5 0.92668 2.5s1.1325 0.7875 1.384 1.75c0.36074 1.3804 0.48183 1.2974 0.57333-0.39301 0.0638-1.1787 0.791-2.402 1.616-2.7186 1.2502-0.47973 1.5 0.65853 1.5 6.834 0 4.0753 0.40784 7.6617 0.90632 7.9697s1.2279 2.9221 1.621 5.809 1.0395 5.4739 1.4364 5.7489c1.6799 1.1638 1.9552 6.9382 0.40465 8.4887-0.86135 0.86135-1.8141 3.4663-2.1172 5.7887s-1.0331 4.5356-1.6222 4.9182c-1.6404 1.0653-0.0321 2.067 2.1876 1.3626 1.0821-0.34344 2.1988-1.5095 2.4817-2.5913s1.2174-1.9669 2.0766-1.9669c1.739 0 1.1729 2.5529-1.069 4.8214-0.71827 0.72678-1.306 2.6393-1.306 4.25s-0.45 2.9286-1 2.9286c-1.2864 0-1.313 7.6885-0.0293 8.4819 0.53388 0.32995 1.2577-0.54349 1.6084-1.941s1.0032-2.5409 1.4499-2.5409 1.1004-1.3124 1.4527-2.9165 1.3446-3.1866 2.2051-3.5168c1.2367-0.47456 1.46-1.688 1.0657-5.7913-0.27433-2.855-1.0059-5.3599-1.6256-5.5665-1.3227-0.44088-1.5475-9.2089-0.23615-9.2089 0.48989 0 1.0623-3.3975 1.272-7.55 0.2122-4.2022 0.89065-7.8649 1.53-8.26 0.63181-0.39049 1.4574-1.9399 1.8347-3.443s1.088-2.4846 1.5793-2.181 0.89333 0.13849 0.89333-0.36703 1.4625-2.54 3.25-4.5211 3.8302-4.294 4.5394-5.1399 2.0592-1.5024 3-1.459c1.0426 0.0481 1.2225 0.2759 0.46057 0.58333-0.6875 0.27741-1.25 1.1445-1.25 1.9268s-2.0325 3.4261-4.5167 5.8751c-2.8412 2.8009-4.7407 5.6738-5.1206 7.7443l-0.60396 3.2915 3.1206-3.3117c1.7164-1.8214 3.1206-3.6993 3.1206-4.1731s1.35-2.2114 3-3.8614 3-3.2971 3-3.6603 1.575-2.1898 3.5-4.0592 3.5-3.7809 3.5-4.2476 1.1371-1.4573 2.527-2.2011 2.8091-2.5074 3.154-3.919 0.95116-2.7916 1.3474-3.0666 1.0376-1.9621 1.4253-3.749c1.0229-4.7148-2.0094-3.2891-3.136 1.4745-0.85874 3.6311-3.5919 6.3336-4.9907 4.9348-0.42295-0.42295-0.27607-1.082 0.32641-1.4646s1.4127-2.1581 1.8005-3.9456 1.0706-3.25 1.5172-3.25 1.1216-1.233 1.4998-2.74 1.0579-2.9695 1.5104-3.25 1.1478-2.6801 1.5451-5.3324c0.65414-4.3665 0.54523-4.7919-1.152-4.5-1.6884 0.2904-1.8421-0.27188-1.5492-5.665 0.31191-5.7434 1.2127-7.464 3.9248-7.4972 1.4852-0.0182 1.6867 3.5968 0.25 4.4847-1.2394 0.76597-1.3354 7.5-0.10699 7.5 1.0832 0 2.107-2.4691 2.107-5.0818 0-1.055 0.39112-1.9182 0.86916-1.9182s1.1255-1.5796 1.4388-3.5102 1.2722-4.2128 2.1308-5.0714c4.2647-4.2647-0.21491-4.5558-6.4388-0.41836-5.1426 3.4186-7.0008 3.7505-6.9982 1.25 1e-3 -0.98985 1.993-3.008 4.586-4.6462 5.1641-3.2626 10.401-8.4721 10.408-10.354 3e-3 -0.6875 0.50973-1.25 1.1271-1.25 0.77551 0 0.73766-0.46364-0.12244-1.5-0.68469-0.825-1.7648-1.5-2.4002-1.5s-1.9259-0.9-2.8678-2c-1.8449-2.1547-4.2359-2.6117-5.232-1-1.1956 1.9345-3.0662 0.97039-3.2868-1.694-0.3865-4.67-4.4469-5.6603-5.034-1.2277-0.17641 1.3319-0.89843 2.8734-1.6045 3.4255s-1.6349 2.1271-2.064 3.5c-1.0924 3.4947-2.3489 4.0522-7.6034 3.3735l-4.5926-0.59323 0.45615 3.108c0.28447 1.9382 0.0238 3.108-0.69253 3.108-1.9341 0-6.0783-3.1465-6.0783-4.615 0-0.76174-0.40122-1.385-0.89159-1.385-1.4198 0-2.2637-4.9071-1.1674-6.7878 0.54897-0.94171 1.0118-1.3441 1.0285-0.89411s1.2845-0.0749 2.8172-1.1663c3.5598-2.5348 13.807-6.1518 17.429-6.1518 1.5316 0 2.7847-0.47656 2.7847-1.059s0.4176-0.80092 0.928-0.48548c1.3877 0.85764 2.4454-3.4822 1.1615-4.766-0.8122-0.8122-1.9221-0.62891-4.1457 0.6846-2.2392 1.3227-3.3807 1.5082-4.347 0.70618-1.4934-1.2394-6.7301-0.48155-10.797 1.5625-1.4852 0.74645-3.6415 1.3572-4.7918 1.3572s-3.0575 0.9-4.2382 2-2.5119 2-2.9582 2c-1.3294 0-0.92197-4.5594 0.6824-7.6357 0.92032-1.7646 1.4962-2.2244 1.5-1.1976 3e-3 0.91666 0.56866 1.8587 1.2562 2.0935 1.8759 0.64052 4.75-3.1895 4.75-6.3298 0-1.52 0.5625-2.9919 1.25-3.2709 0.95123-0.38597 0.90436-0.74773-0.19612-1.5136-1.9772-1.3759-5.0539 0.38302-5.0539 2.8893 0 2.0904-2.5726 2.747-3.2148 0.82055-0.49863-1.4959-11.785 5.9606-11.785 7.7858 0 0.74713-0.45 1.3584-1 1.3584s-1 0.94449-1 2.0989-0.73391 3.6455-1.6309 5.5358c-1.8358 3.8687-1.4552 4.8449 1.5208 3.9003 1.3256-0.42072 2.267-1.8543 2.6866-4.0913 0.35532-1.894 1.013-3.4436 1.4614-3.4436s1.0212-0.7875 1.2727-1.75c0.34415-1.3169 0.48604-1.1932 0.57333 0.5 0.0638 1.2375 0.566 2.25 1.116 2.25s1 0.9 1 2-0.45 2-1 2-1 0.64286-1 1.4286-0.59819 2.0268-1.3293 2.7579-1.9686 3.3508-2.75 5.8214c-1.2419 3.9267-1.8121 4.5302-4.5304 4.795-2.4508 0.23872-3.9066-0.47097-6.8709-3.3498l-3.7612-3.6526 0.42528-14.97c0.25185-8.8655 0.85274-15.248 1.4735-15.65 0.57653-0.37396 1.3689-3.1465 1.7608-6.1612s1.1397-5.7452 1.6617-6.0679 1.0991-6.2302 1.2824-13.128l0.33316-12.541 3.3132-3.641c1.8223-2.0025 3.8166-3.641 4.4318-3.641s1.7672-0.9 2.5601-2 1.769-2 2.1692-2 1.9416-1.125 3.4253-2.5c3.2791-3.0389 4.4055-3.1517 4.4055-0.44098 0 1.1325-0.45 1.7809-1 1.441s-1-0.18162-1 0.35178-2.0042 1.94-4.4538 3.1259-4.7299 3.026-5.0674 4.0892-1.0332 1.9331-1.5462 1.9331-0.93261 0.675-0.93261 1.5 0.23192 1.5 0.51538 1.5c1.1308 0 11.485-7.34 11.485-8.1416 0-0.47213 1.125-0.85842 2.5-0.85842 4.1499 0 2.8277 2.2798-3.7588 6.4809-6.7794 4.3242-11.741 8.737-11.741 10.442 0 1.6891 1.732 1.2803 5.7714-1.3622 2.0507-1.3415 4.9335-2.7321 6.4062-3.0902s2.9211-1.2855 3.2186-2.0609c0.61362-1.5991 3.6037-1.939 3.6037-0.40975 0 0.55-0.44773 1-0.99495 1s-3.2928 2.25-6.1013 5c-3.1922 3.1258-4.5061 5-3.505 5 0.88072 0 2.5013-0.9 3.6013-2 3.2765-3.2765 4.3044-2.5195 3.7938 2.794-0.5542 5.7678-3.1745 9.206-7.016 9.206-1.8024 0-2.7778 0.52667-2.7778 1.5 0 0.825-0.45 1.5-1 1.5s-1 0.675-1 1.5c0 2.1876 2.2181 1.8412 6.4049-1 2.0262-1.375 4.2143-2.5 4.8624-2.5 1.461 0-4.2135 5.2645-8.2354 7.6402-3.4299 2.0261-4.5719 4.2272-2.9973 5.777 0.79149 0.77903 1.4342 0.631 2.291-0.52769 1.6711-2.2599 11.041-7.8895 13.131-7.8895 1.8731 0 7.8317-3.023 8.377-4.25 0.18334-0.4125 1.4208-0.75 2.75-0.75s2.4167-0.46114 2.4167-1.0248 1.2375-1.4912 2.75-2.0613 4.0566-1.684 5.6536-2.4752c2.9204-1.447 6.5964-1.9303 6.5964-0.86727 0 0.31428-0.70088 1.2723-1.5575 2.1289s-1.3066 2.2113-1 3.0104 0.55751 2.1176 0.55751 2.9301 0.45 1.1991 1 0.8592c0.58342-0.36058 1 0.65628 1 2.441 0 3.7407 2.6695 4.2239 3.5676 0.64568 0.36083-1.4377 1.5814-2.6582 3.019-3.019 1.7033-0.4275 2.4133-1.3042 2.4133-2.9797 0-4.8657 4.7281-3.1707 6.4707 2.3197 0.37032 1.1668 1.0543 1.886 1.5199 1.5982s1.144 0.83068 1.5075 2.4855 1.0547 3.0087 1.5361 3.0087 1.1707 1.575 1.5318 3.5 1.0565 3.5 1.5453 3.5c1.372 0 1.0506 3.7796-0.36129 4.2485-0.89675 0.29783-1.3426 4.2809-1.5777 14.094-0.18023 7.5236-0.70466 13.446-1.1654 13.161s-0.98828 9.4022-1.1723 21.527c-0.2396 15.785-0.67619 22.255-1.5376 22.787-0.66165 0.40835-1.5054 2.6333-1.8749 4.9443s-1.0657 3.9585-1.547 3.661-0.8751 0.80357-0.8751 2.4467-0.70714 3.6947-1.5714 4.559-1.0893 1.5714-0.5 1.5714 1.0714 0.47656 1.0714 1.059-0.41012 0.80554-0.91138 0.49575c-1.2195-0.75371-2.435 6.7786-1.5459 9.5799 0.38736 1.2205 1.7737 3.3723 3.0808 4.782 3.0874 3.3296 2.9979 4.0091-0.62352 4.7334-1.65 0.33-3 1.0203-3 1.534s-0.4176 0.67592-0.928 0.36048-1.238 0.40325-1.6169 1.5971-1.6824 3.1129-2.8965 4.2645-2.4974 2.8814-2.8517 3.8439-1.1082 1.75-1.6755 1.75-1.0314 0.65747-1.0314 1.461-0.94872 2.3449-2.1083 3.4252-1.936 2.4809-1.7255 3.1126c0.23609 0.70825 1.3667 0.25782 2.9497-1.1752 1.4118-1.278 4.2133-3.6711 6.2255-5.318s3.6586-3.6223 3.6586-4.3898c0-1.577 2.86-4.036 4.75-4.084 1.7187-0.0437 1.5714 2.5039-0.25 4.3253-0.825 0.825-1.5 2.5571-1.5 3.8492s-0.9 3.1198-2 4.0616-2 2.3777-2 3.1909c0 2.0511 2.7728 0.83245 3.5293-1.5512 0.62292-1.9626 2.1234-2.3618 4.8889-1.3006 1.9612 0.7526 2.008 3.0524 0.13493 6.643-1.314 2.519-0.48052 4.0596 0.94686 1.75 0.33992-0.55 1.9415-1 3.559-1 4.4129 0 4.0464 1.5264-2.1083 8.7804-0.59749 0.70421-1.3397 2.8417-1.6494 4.75-0.72471 4.4659 1.4599 4.6956 4.6813 0.49231 1.255-1.6375 2.6229-2.7665 3.0399-2.5088s1.0413-1.0407 1.3874-2.8854 1.4901-4.133 2.5422-5.0852c1.0972-0.99296 1.6561-2.4008 1.3105-3.3013-0.36566-0.95291-0.19047-1.3154 0.44569-0.92228 0.60245 0.37234 1.2912-0.56734 1.6197-2.2098 0.42319-2.116 1.2818-2.9934 3.3084-3.3808 3.3332-0.63719 5.3636 0.0421 5.3636 1.7945 0 0.72032 0.5625 1.5125 1.25 1.7604 1.3944 0.50284 6.75-2.2739 6.75-3.4997 0-0.43141 0.675-0.78439 1.5-0.78439 1.009 0 1.5 1.0093 1.5 3.0833 0 3.8285 2.3557 3.4814 2.8169-0.41501 0.54665-4.6191 3.1704-0.58922 3.2621 5.0102 0.0434 2.6518 0.30685 4.2561 0.58541 3.5652s0.91803-1.0019 1.421-0.69098 0.91459-0.34719 0.91459-1.4624c0-1.3915 0.4706-1.847 1.5-1.452 0.825 0.31659 1.5 1.4275 1.5 2.4686s0.675 1.893 1.5 1.893c1.0078 0 1.5-1.0079 1.5-3.0714 0-2.7302 0.16667-2.9048 1.5-1.5714 0.825 0.825 1.5 2.1372 1.5 2.9159 0 2.3014 4.3913 6.727 6.6748 6.727 4.1584 0 3.9436-7.7959-0.27699-10.055-1.3188-0.70582-2.3979-1.6573-2.3979-2.1143 0-1.5162 2.9708-0.86022 4.9167 1.0856 1.0542 1.0542 2.1792 1.6542 2.5 1.3333s0.58333 0.15236 0.58333 1.0515 2.25 3.957 5 6.7952 5 5.537 5 5.9973 1.2593 2.1252 2.7985 3.6998c2.4749 2.5318 2.9616 2.6883 4.2082 1.3539 1.0489-1.1228 1.1004-1.6121 0.20147-1.9117-0.66448-0.22149-1.2082-1.7703-1.2082-3.4418 0-2.588 0.22263-2.8543 1.5-1.7942 0.825 0.68469 1.5 1.6398 1.5 2.1224 0 0.92583 3.6458 4.8776 4.5 4.8776 0.275 0 0.5-0.675 0.5-1.5 0-3.0932 2.9192-1.4479 3.568 2.011 0.36227 1.9311 1.0369 3.7448 1.4991 4.0304s1.1434 3.197 1.5136 6.4695 1.066 5.7073 1.5462 5.4105 0.87303 0.35485 0.87303 1.448c0 2.3142 2.5094 5.1304 4.5714 5.1304 0.78571 0 1.4286-0.675 1.4286-1.5s-0.45-1.5-1-1.5-1-0.47656-1-1.059 0.45-0.7809 1-0.44098 1-0.057 1-0.88197-0.45-1.7781-1-2.118-1-1.9415-1-3.559 0.45-2.941 1-2.941 1-1.125 1-2.5-0.41704-2.5-0.92676-2.5c-2.2403 0-6.8694-13.39-5.0235-14.531 1.1847-0.73221 3.9503 2.4148 3.9503 4.4952 0 1.0019 0.675 2.0806 1.5 2.3972s1.5 1.2862 1.5 2.1547 1.0566 2.5702 2.3481 3.7814c1.4838 1.3916 2.5601 3.8196 2.9242 6.5964 0.31686 2.4168 1.0391 4.6802 1.6049 5.03s1.348 2.6321 1.7382 5.0719c0.77165 4.8256 0.79726 4.8672 7.3846 11.968 2.475 2.6679 5.175 5.8344 6 7.0367s2.2875 3.1128 3.25 4.2457 1.75 2.9174 1.75 3.9658 0.40066 1.6584 0.89035 1.3557 1.1851 1.0208 1.5453 2.941 1.0846 3.4912 1.6096 3.4912 0.95469 0.64844 0.95469 1.441c0 2.5111 2.0824 2.8477 4.1155 0.66537 1.0793-1.1585 2.6198-2.1064 3.4234-2.1064 1.8606 0 1.8495 0.75437-0.039 2.6429-0.825 0.825-1.5 2.3537-1.5 3.3972 0 1.2756 0.4915 1.7086 1.5 1.3216 0.825-0.31659 1.5-0.90861 1.5-1.3156 0-0.64721 0.84959-1.8052 4.8591-6.6228 0.4929-0.59225 1.2356-2.1463 1.6505-3.4534s1.3699-2.9922 2.1224-3.7446 1.3681-2.2359 1.3681-3.2966 0.40122-1.9286 0.89159-1.9286 1.1836-1.1634 1.5404-2.5852c0.82614-3.2916 4.0859-6.8308 5.4914-5.9621 0.59212 0.36596 1.0766 1.9888 1.0766 3.6064s0.45 2.941 1 2.941 1 0.9 1 2-0.39992 2-0.88871 2-1.2032 1.6765-1.5876 3.7255c-0.40235 2.1447-1.9347 4.9064-3.6113 6.5087-2.7936 2.6697-3.7473 4.77-2.1624 4.7621 1.4948-7e-3 7.8201-4.3333 10.789-7.3788 4.4216-4.535 10.423-9.1562 11.515-8.8674 0.52008 0.1375 0.94559-0.13115 0.94559-0.59699s0.9-1.8847 2-3.153c1.1423-1.3171 2-3.7414 2-5.653 0-1.8408 0.45-3.347 1-3.347s1-0.47656 1-1.059-0.45-0.7809-1-0.44098-1-0.0835-1-0.94098 0.45-1.559 1-1.559c1.4444 0 1.2328-10.367-0.24164-11.842-0.94075-0.94075-0.95735-1.4174-0.0685-1.9667 0.70927-0.43836 1.4542-5.1669 1.884-11.958 0.64657-10.218 0.5559-11.233-1.0029-11.233-2.114 0-4.5709 2.342-4.5709 4.3571 0 0.825-0.74798 2.248-1.6622 3.1622-1.406 1.406-1.4445 1.8023-0.25 2.5714 1.0414 0.67054 1.1048 1.1088 0.24146 1.6693-0.64389 0.41801-1.4794 1.9899-1.8567 3.4931s-1.088 2.4846-1.5793 2.181c-1.2307-0.76059-1.1326-9.4341 0.10667-9.4341 0.55 0 1-1.125 1-2.5s-0.45-2.5-1-2.5c-1.2172 0-1.3475-7.6672-0.14293-8.4117 0.47139-0.29133 1.1138-3.0175 1.4276-6.0581 0.77328-7.4924 3.8877-10.501 7.3188-7.0695 2.4888 2.4888 8.0357 2.9265 13.862 1.0938 5.7966-1.8232 12.534-7.4441 12.534-10.457 0-0.99322 1.0848-2.9764 2.4107-4.407s2.7116-3.9714 3.0794-5.646 1.0777-3.0448 1.5775-3.0448 1.1966-1.8 1.5484-4 1.0321-4 1.5118-4 0.87219-0.68295 0.87219-1.5177c0-1.5489 6.5183-8.4823 7.9746-8.4823 0.44157 0 1.0983-1.575 1.4595-3.5s1.0344-3.5 1.4961-3.5 1.162-2.5875 1.5562-5.75 1.1557-6.023 1.6922-6.3566c1.3736-0.85416 1.2775-24.241-0.10151-24.701-0.5923-0.19744-1.0831-1.559-1.0906-3.0256-0.0199-3.8954-1.0804-7.2266-2.1-6.5964-0.48747 0.30128-0.88631 0.0867-0.88631-0.47676 0-1.6147-5.7667-7.0935-7.4663-7.0935-0.84353 0-1.5337-0.34782-1.5337-0.77293s-2.9052-0.90339-6.456-1.0628c-5.4974-0.24689-6.7182 0.0164-8.2222 1.7729-0.97145 1.1346-2.3413 2.0629-3.044 2.0629s-1.2778 0.41968-1.2778 0.93261-1.0125 1.2515-2.25 1.6412-3.784 1.7476-5.6588 3.0176c-2.3785 1.6111-3.906 2.0429-5.0539 1.4286-2.198-1.1764-3.7317-0.0858-4.5686 3.2488-0.44438 1.7706-1.5567 2.9663-3.1258 3.3601-3.3396 0.83818-3.7158 0.10722-1.3492-2.6215 1.1035-1.2723 2.0063-3.1445 2.0063-4.1603s0.39891-1.847 0.88646-1.847 1.1901-2.025 1.5613-4.5 1.0972-4.5 1.6135-4.5 0.93873-1.3179 0.93873-2.9286 0.68103-3.6096 1.5134-4.442 1.7872-2.8822 2.1218-4.5552 0.97469-2.8154 1.4224-2.5387 1.119-1.5306 1.4918-4.0162 1.0174-4.5194 1.4325-4.5194 1.0049-1.8648 1.3106-4.1441 1.1383-4.5041 1.8501-4.944c0.89596-0.55373 1.3458-3.8074 1.4618-10.572 0.17459-10.183-0.82152-13.7-5.0894-17.967-1.8177-1.8177-1.8468-1.7808-1.1892 1.5073 0.37076 1.8538 0.67411 5.7893 0.67411 8.7455 0 4.2702 0.33032 5.375 1.607 5.375 1.0545 0 1.3983 0.5438 1 1.5818-0.33385 0.86998-0.60699 3.8215-0.60699 6.559 0 2.8061-0.40481 4.727-0.928 4.4037-0.51041-0.31545-1.2157 0.33299-1.5674 1.441s-1.005 2.0145-1.4518 2.0145-1.0113 2.7497-1.2544 6.1105c-0.31472 4.3509-0.92525 6.381-2.1202 7.0497-1.0737 0.60088-1.6782 2.2032-1.6782 4.4485 0 1.9301-0.38866 3.2691-0.8637 2.9755s-1.1418 1.8146-1.4818 4.6849-1.0763 5.3714-1.6363 5.5581-1.0182 0.94476-1.0182 1.6846-0.656 2.0012-1.4578 2.803-1.8187 3.6104-2.2598 6.2413c-1.2605 7.5183-4.5572 7.071-5.6033-0.76027-0.45028-3.371-0.23453-5.0978 0.76132-6.0937 2.0439-2.0439 2.464-8.2023 0.55947-8.2023-0.825 0-1.6447 1.0192-1.8215 2.2648s-0.73933 2.0066-1.25 1.691-0.92851 0.32616-0.92851 1.4262c0 2.3224-1.7727 3.7454-3.061 2.4571-1.0426-1.0426-0.0326-8.5149 1.0597-7.8398 0.40891 0.25272 0.99391-1.4076 1.3-3.6896s1.2641-4.5451 2.1289-5.029c0.95601-0.53501 1.5724-2.2325 1.5724-4.3303 0-1.8977 0.45-3.4503 1-3.4503 0.62069 0 1-5.5 1-14.5s-0.37931-14.5-1-14.5c-0.55 0-1-1.125-1-2.5s0.45-2.5 1-2.5c1.4633 0 1.2313-7.7395-0.25-8.3405-0.94121-0.3819-0.87946-0.77303 0.25-1.5833 1.311-0.94054 1.3159-1.1945 0.0388-2.0157-1.2102-0.77816-0.98664-1.3794 1.3015-3.5 1.5195-1.4082 2.3254-2.5604 1.7908-2.5604s-1.2852-2.925-1.668-6.5-1.0937-6.5-1.5796-6.5-0.8835-1.0929-0.8835-2.4286-0.63341-3.062-1.4076-3.8361-1.7254-3.9512-2.1138-7.0601-1.041-5.4456-1.4503-5.1927-0.9981-2.8994-1.3086-7.0052c-0.36606-4.8401-1.1193-8.0197-2.1422-9.0426-0.86767-0.86767-1.5776-2.472-1.5776-3.5652s-0.3842-1.7501-0.85377-1.4599-1.3599-0.58323-1.9786-1.941-1.5844-2.4686-2.1462-2.4686-1.0214-0.9-1.0214-2-0.39249-2-0.87219-2-1.1522-1.7509-1.4944-3.8908-1.2997-4.1508-2.1278-4.4686-1.5056-1.2514-1.5056-2.0747-1.35-2.8779-3-4.5659-3-3.9047-3-4.9261c0-1.1194-0.94079-2.0932-2.3684-2.4515-1.9648-0.49313-2.4592-1.4006-2.9016-5.3256-0.2933-2.6022-1.0275-4.896-1.6316-5.0973-1.6532-0.55108-1.3954-7.1994 0.27921-7.1994 1.9558 0 3.5059 2.1671 4.265 5.9627 0.35993 1.7997 1.9376 4.5848 3.5059 6.1892s2.8515 3.3515 2.8515 3.8826 0.675 0.96552 1.5 0.96552 1.5 0.42905 1.5 0.95344c0 1.7478 9.2098 10.061 11.874 10.719 2.5768 0.63569 6.1259 3.8112 6.1259 5.481 0 0.46584 0.675 0.84699 1.5 0.84699s1.5 0.47656 1.5 1.059 0.45 0.7809 1 0.44098c1.0313-0.6374 1.3388 1.0375 1.0397 5.6632-0.0999 1.5445 0.49896 3.0388 1.4257 3.5574 0.87884 0.49182 1.8852 2.6645 2.2363 4.8282s1.2369 4.5325 1.9684 5.264 1.33 3.1193 1.33 5.3063c0 2.8844 0.6461 4.5811 2.3528 6.1786 1.6164 1.513 2.5212 3.7276 2.8911 7.0759 0.29609 2.6805 0.99604 5.1566 1.5554 5.5023s1.3335 2.3151 1.7202 4.3763 1.0519 3.7477 1.4782 3.7477 1.0728 1.9851 1.4367 4.4114 1.3132 4.6615 2.1135 4.9686c1.1591 0.44478 1.452-0.53418 1.452-4.8524 0-2.9753 0.39884-5.6561 0.88631-5.9574 0.96394-0.59575 2.0782 2.6391 2.1 6.0964 8e-3 1.1917 0.47724 2.3212 1.0439 2.5101 0.61319 0.20439 1.1528 5.5004 1.3331 13.083 0.16661 7.0068 0.60302 13.04 0.96979 13.407 1.2556 1.2556 1.9686-0.63831 2.5676-6.8204 0.32961-3.4022 1.0674-6.3405 1.6396-6.5294 0.69899-0.23082 0.95717 5.0741 0.78694 16.17-0.24285 15.829-0.17201 16.513 1.7097 16.513 1.689 0 1.9631-0.69803 1.9631-5 0-2.75 0.45-5 1-5 0.58453 0 1-3.3722 1-8.1166 0-7.6243 0.12131-8.0849 2-7.5936 1.6612 0.43441 2 0.0307 2-2.3834 0-1.5985 0.45-2.9064 1-2.9064s1-1.125 1-2.5-0.45-2.5-1-2.5c-1.4456 0-1.2324-3.7559 0.24107-4.247 2.3548-0.78492 3.7589 2.0824 3.7589 7.6756 0 3.0643-0.45 5.5714-1 5.5714-0.61538 0-1 5-1 13 0 7.3142 0.4053 13 0.92668 13 0.50967 0 1.1325 0.7875 1.384 1.75 0.43555 1.6667 0.46285 1.6667 0.57333 0 0.0638-0.9625 0.54561-1.75 1.0707-1.75s1.2502-1.575 1.6113-3.5 1.0565-3.5 1.5453-3.5 0.88871-6.3 0.88871-14-0.3817-14-0.84823-14-1.3302-6.4125-1.9194-14.25-1.3835-15.712-1.7653-17.5c-0.56769-2.658-0.38643-3.25 0.99508-3.25 1.4903 0 1.6256-0.94621 1.1488-8.0361-0.35593-5.2927-1.0646-8.5603-2.0757-9.5714-0.84442-0.84441-1.5353-3.0782-1.5353-4.9639s-0.44143-3.4286-0.98095-3.4286-1.2633-1.125-1.6084-2.5-0.97242-2.5-1.394-2.5-1.0424-1.3792-1.3796-3.0649-1.9684-4.4203-3.625-6.0769-3.012-3.4464-3.012-3.9773c0-0.90996-0.81475-2.0711-3.75-5.3442-0.6875-0.76662-1.25-1.7833-1.25-2.2592 0-1.7018-7.593-7.8492-12.711-10.291-2.8661-1.3675-5.2286-3.0488-5.25-3.7364s-0.71362-1.25-1.5383-1.25-3.6372-1.0688-6.25-2.3752-8.688-4.2714-13.501-6.589-8.75-4.5713-8.75-5.0082-0.9-1.0297-2-1.3174-2-1.2401-2-2.1166c0-2.5442 5.7266-1.958 12.59 1.2889 3.3494 1.5845 7.1744 3.2208 8.5 3.6362s4.2102 1.9741 6.4102 3.4638 6.25 3.5424 9 4.5617 5.225 2.1509 5.5 2.5149 1.966 1.413 3.7578 2.331c4.706 2.4113 13.342 11.394 16.208 16.86 1.3563 2.5861 3.0438 4.9238 3.75 5.1948s1.2841 1.1819 1.2841 2.0241 0.44143 1.5314 0.98095 1.5314 1.2838 1.2375 1.654 2.75 0.94124 2.9763 1.269 3.2528c2.0335 1.7154 5.096 9.4951 5.096 12.945 0 2.2285 0.45 4.0519 1 4.0519s1.0039 1.4625 1.0087 3.25c0.0152 5.6936 1.237 13.716 2.0156 13.235 0.41343-0.25551 1.0652 1.6261 1.4484 4.1813s1.3336 5.2828 2.112 6.0612c1.8346 1.8345 1.8271 5.2725-0.0114 5.2725-0.78467 0-1.6325-0.7875-1.884-1.75s-0.50953-0.0625-0.57333 2-0.566 3.75-1.116 3.75c-1.3482 0-1.336 27.264 0.0128 28.613 1.318 1.318 1.5541 18.409 0.26587 19.246-0.54268 0.35257-1.2391 4.4158-1.5476 9.0294s-0.9951 8.6636-1.5257 9-1.2843 3.3915-1.6748 6.7891c-0.44428 3.8654-1.2379 6.38-2.1203 6.7186-2.5113 0.96368-1.5224 2.3115 4.581 6.2438 3.2952 2.123 5.9952 4.1287 6 4.4571 5e-3 0.32834 0.90875 1.6347 2.0088 2.903 1.5477 1.7845 2 3.7414 2 8.653 0 3.4908 0.39075 6.347 0.86833 6.347 1.281 0 2.0765 7.6138 1.1254 10.772-0.45198 1.5006-0.89209 2.2784-0.97802 1.7284-0.30812-1.9721-1.8766 3.0669-1.9454 6.25-0.0386 1.7875-0.52022 3.25-1.0702 3.25s-1 1.4749-1 3.2775-0.61439 4.1651-1.3653 5.25-1.706 3.0629-2.1224 4.3957-1.2645 3.0562-1.8847 3.8298c-2.4781 3.0913-7.8456 8.247-8.5857 8.247-0.43249 0-1.0776 1.8212-1.4335 4.0471s-1.0304 3.8102-1.4989 3.5206-1.0903 1.252-1.3818 3.4255-1.2495 4.6714-2.1289 5.5508-1.5988 2.2417-1.5988 3.0274-0.45 1.4286-1 1.4286-1 0.60615-1 1.347-0.9 2.3847-2 3.653-2 2.7137-2 3.212-0.402 0.65756-0.89333 0.3539-1.1749 0.56978-1.519 1.941-0.96686 2.4931-1.3838 2.4931c-1.0758 0-7.2038 5.7177-7.2038 6.7214 0 0.98661-3.6848 4.2786-4.7892 4.2786-0.42148 0-1.5989 0.97234-2.6164 2.1608-1.4746 1.7222-1.9542 4.4118-2.3631 13.25-0.29415 6.3581-0.98623 11.442-1.6222 11.915-0.79549 0.59253-0.75565 0.96955 0.14089 1.3333 1.4463 0.58684 1.7116 7.0101 0.31016 7.5072-1.4354 0.5091-1.763 19.781-0.35111 20.654 0.6384 0.39455 1.473 3.0714 1.8547 5.9486s1.0359 5.2312 1.4538 5.2312 1.0649 1.626 1.4377 3.6133c0.81949 4.3683 2.9307 6.7124 7.4077 8.2252 5.4332 1.8358 17.137 10.635 17.137 12.884 0 0.70277 0.44486 1.2778 0.98857 1.2778 1.2694 0 4.1637 2.3303 10.188 8.2024 2.6532 2.5863 4.8239 4.4734 4.8239 4.1936 0-0.46765 3.7976 3.1062 20.034 18.854 3.2607 3.1625 6.3645 5.75 6.8974 5.75s1.3288 0.58508 1.7686 1.3002 2.3686 2.3965 4.2862 3.7365 4.2179 3.1677 5.1119 4.0617 3.0381 2.4599 4.7648 3.4799 3.3606 2.5446 3.631 3.3881 2.5929 2.8587 5.1612 4.4782c7.6981 4.8543 12.077 9.6108 12.903 14.016 0.40683 2.1686 1.2351 4.5285 1.8405 5.2443 4.6462 5.4931 7.6974 8.2947 9.0337 8.2947 0.86193 0 1.5672 0.525 1.5672 1.1667s0.25277 0.91389 0.56172 0.60494 1.7246 0.51606 3.146 1.8333 3.3061 2.3972 4.1883 2.3998 3.3377 1.5971 5.4568 3.5432 5.7676 4.4385 8.108 5.5386c7.8451 3.6876 10.567 7.758 6.6049 9.8782-2.6337 1.4095-3.3732 1.316-5.6545-0.71482-1.0812-0.9625-3.6932-2.6364-5.8043-3.7198s-4.0595-2.5459-4.3297-3.25-1.1292-1.2802-1.909-1.2802-1.8188-1.0547-2.3089-2.3438-2.3143-2.9333-4.0538-3.6538-4.964-3.0408-7.1657-5.1562-4.4078-3.8462-4.9024-3.8462c-1.5783 0-2.2251 5.0012-1.4673 11.346 0.40429 3.3848 0.71612 6.9515 0.69296 7.9258s0.32324 1.5458 0.76976 1.2699c0.89508-0.55319 2.0389 5.1258 2.0561 10.209 6e-3 1.7875 0.46101 3.25 1.011 3.25 0.59692 0 1 3.853 1 9.559 0 6.118-0.35997 9.3365-1 8.941-0.55-0.33992-1 0.0835-1 0.94098 0 1.9145-5.9427 2.2151-6.1092 0.30902-0.06-0.6875-0.19436-10.475-0.29849-21.75-0.24166-26.168-0.40022-29.237-1.476-28.572-0.48604 0.30039-1.1994-2.823-1.5853-6.941s-1.1046-7.4872-1.5972-7.4872-1.178-1.125-1.5231-2.5-1.2537-2.5-2.019-2.5-1.3916-0.34377-1.3916-0.76393-1.8-1.8764-4-3.2361-4-2.7992-4-3.1989c0-1.1798-8.2328-8.7402-10.196-9.3633-0.99216-0.3149-1.8039-1.0139-1.8039-1.5534s-1.2755-1.5217-2.8344-2.1826c-3.2413-1.3742-9.2111-5.8278-13.638-10.174-1.6652-1.6349-3.3376-2.8815-3.7166-2.7703s-0.97428-0.69645-1.3229-1.7948c-0.5893-1.8567-12.959-14.962-14.123-14.962-0.94634 0-9.3655-8.8196-9.3655-9.811 0-0.53287-2.6961-2.7059-5.9912-4.8289s-5.9952-4.3868-6-5.0306c-0.0151-2.0256-5.3752-2.5084-9.0592-0.81603l-3.4495 1.5847 4.3969-0.47361c2.9662-0.3195 4.8508-0.0197 5.7919 0.92138 1.1933 1.1933 0.99137 1.4923-1.3969 2.0684-4.9388 1.1912-11.292 4.5646-11.292 5.9959 0 1.6392 2.3506 1.8078 5.0514 0.36234 3.2807-1.7558 11.259-2.8765 13.176-1.8507 3.1496 1.6856 1.8902 2.8782-3.0397 2.8782-4.8681 0-13.188 3.169-13.188 5.0233 0 1.4451 4.3121 1.1865 9.4814-0.56856 4.1048-1.3936 4.7678-1.3936 6.7574 0 1.2134 0.84987 1.656 1.5452 0.98361 1.5452s-1.2225 0.675-1.2225 1.5 0.45 1.5 1 1.5c1.5986 0 1.1546 3.1665-0.62661 4.4689-1.3047 0.95402-1.4038 1.6058-0.50075 3.2931 1.2695 2.3721 0.89216 2.5827-6.7672 3.7772-4.0286 0.6283-8.9767 4.3125-9.0738 6.756-0.0463 1.1648 7.2127-0.32783 8.9684-1.8441 2.1788-1.8817 6.2666-2.6283 8-1.4612 1.3333 0.89773 1.3333 1.1194 0 1.9946-0.825 0.54158-2.3478 0.99158-3.384 1-2.9969 0.0244-9.616 2.2447-9.616 3.2256 0 0.49155-1.35 1.3643-3 1.9395s-3 1.6768-3 2.448c0 1.596 4.0858 1.9164 5.5657 0.43643 0.53115-0.53115 3.3212-1.2526 6.2-1.6033 4.4009-0.53602 5.2343-0.38227 5.2343 0.96574 0 1.2066-1.0001 1.6033-4.0418 1.6033-2.6596 0-4.776 0.68397-6.1886 2-1.1807 1.1-2.7369 2-3.4582 2s-1.3114 0.45-1.3114 1 1.35 1 3 1c4.1339 0 3.7546 1.2822-1 3.3799-5.3305 2.3518-5.4943 5.097-0.25 4.1911 10.352-1.7883 11.504-1.8339 11.045-0.43773-0.24892 0.75678-2.1701 1.5101-4.3049 1.688-2.1205 0.17669-4.7733 0.96419-5.8952 1.75s-2.7846 1.4287-3.6949 1.4287c-2.1666 0-4.4986 2.8055-3.3076 3.979 0.53487 0.527 3.1967 0.11842 6.4813-0.99486 5.3321-1.8072 9.9263-1.7459 9.9263 0.13247 0 0.81725-2.5318 1.2999-5.9065 1.1259-0.77356-0.0399-2.0432 0.56423-2.8214 1.3425s-2.2563 1.415-3.2845 1.415-2.1666 0.48068-2.5297 1.0682-1.2667 0.83542-2.0081 0.55093c-0.86729-0.33281-1.1496-5.4e-4 -0.79186 0.93183 0.70215 1.8298 1.7533 1.8147 9.3611-0.1343 6.6567-1.7054 10.981-1.2712 10.981 1.1024 0 1.0706-1.1775 1.4898-4.25 1.5128-4.5072 0.0337-10.157 2.8479-6.1911 3.0836 4.1739 0.24803 4.7813 0.42133 5.1316 1.4642 0.2046 0.60914-3.4098 2.1343-8.2944 3.5-9.3348 2.6099-12.396 4.5043-12.396 7.6711 0 2.9883 3.2154 3.2878 6.5606 0.61117 1.6167-1.2935 3.7564-2.3541 4.7551-2.3569s2.6862-0.4708 3.75-1.0402c1.4917-0.79836 1.9343-0.70917 1.9343 0.38987 0 1.4188-7.7436 5.6453-10.343 5.6453-1.3312 0-6.6569 4.3619-6.6569 5.4522 0 0.97788 4.8633 0.57798 5.5-0.45225 0.94269-1.5253 8.5-1.2594 8.5 0.29911 0 1.3335-5.3229 3.7009-8.321 3.7009-0.92345 0-2.579 0.9-3.679 2s-2.675 2-3.5 2-1.5 0.88889-1.5 2c0 2.4424 0.44366 2.4424 5.5 0 5.4776-2.6459 9.5-2.6326 9.5 0.0314 0 2.4744-0.16218 2.5396-12 4.821-2.6762 0.51578-3.5793 1.2323-3.837 3.0443-0.30505 2.1451-0.068 2.3029 2.5 1.6652 7.217-1.7923 9.337-1.8255 9.337-0.14629 0 1.044-1.1741 1.8692-3.25 2.2844-1.7875 0.3575-3.25 0.49386-3.25 0.30303s-1.5628 1.0804-3.4729 2.825-3.8226 3.172-4.25 3.172-0.77025 1.4625-0.76183 3.25c0.0116 2.4662 0.24909 2.8883 0.98469 1.75 0.53316-0.825 0.99058-1.05 1.0165-0.5s0.59531 0.286 1.2653-0.58666c3.0687-3.9968 9.7182-5.306 9.7182-1.9133 0 1.1644-0.66667 2-1.5957 2-2.4428 0-7.4043 3.2535-7.4043 4.8554 0 0.78329 0.7875 2.0047 1.75 2.7143 1.645 1.2127 1.6175 1.4144-0.45819 3.3602-1.2145 1.1385-2.6288 2.0701-3.143 2.0701-1.394 0-2.0084 2.2838-1.4292 5.3134 0.36455 1.907 0.0967 2.6866-0.92288 2.6866-1.7918 0-7.7967 5.2675-7.7967 6.8392 0 0.63844 0.675 1.1608 1.5 1.1608s1.5-0.47656 1.5-1.059 0.45-0.7809 1-0.44098 1 0.14148 1-0.44098 0.9-1.059 2-1.059c2.5127 0 2.6538 2.9384 0.25 5.2074-3.1635 2.9862-3.9432 4.3439-4.6462 8.0907-0.38196 2.036-1.1241 3.7019-1.6492 3.7019s-0.95469 0.43002-0.95469 0.95559c0 1.4174-4.67 8.041-5.2562 7.4549-0.27706-0.27707-0.81272 1.1432-1.1904 3.1561-0.72016 3.8388-2.6509 6.4341-6.1304 8.2403-1.6804 0.87231-2.4015 0.69911-3.7768-0.9071zm-56.646-52.9c3.2913-0.62418 6.1991-1.9262 7.7375-3.4647 1.3556-1.3556 3.3127-2.7339 4.3492-3.0628 1.8193-0.57742 3.4858-1.8374 10.22-7.7276 1.7325-1.5153 4.0043-3.0263 5.0484-3.3576 1.5376-0.488 11.25-9.8216 16.245-15.612 0.6053-0.7016 2.7428-2.6231 4.75-4.27s3.6495-3.3719 3.6495-3.8334c0-1.2728 6.7654-7.5735 7.4244-6.9145 0.31657 0.31658 0.57559 0.11945 0.57559-0.43806s0.7875-1.961 1.75-3.1188c3.756-4.5182 5.25-6.6421 5.25-7.4633 0-0.47059 0.45-0.57751 1-0.23759s1 0.17362 1-0.36955 0.74798-1.7356 1.6622-2.6498c1.404-1.404 1.4428-1.7984 0.25-2.5394-0.84106-0.52245-1.547-0.48575-1.7455 0.0908-0.18334 0.53237-0.97084 0.96795-1.75 0.96795s-1.4167 0.45-1.4167 1-0.39504 1-0.87788 1-2.6203 0.7542-4.75 1.676-4.7721 1.8296-5.8721 2.0174c-4.8372 0.82566-15.374 4.7695-19.5 7.2989-2.475 1.5172-6.075 3.0412-8 3.3867-3.2446 0.58241-6.4466 1.8659-13.154 5.2728-1.4599 0.74148-3.7617 1.3482-5.1151 1.3482s-3.605 0.9-5.0034 2c-3.0427 2.3934-3.7271 2.4852-3.7271 0.5 0-0.825-0.39649-1.5-0.88108-1.5s-1.2003-4.2576-1.5904-9.4613c-0.60436-8.061-0.99065-9.5506-2.61-10.065-2.6108-0.82865-3.9185 0.19448-3.9185 3.0658 0 1.7494-0.69421 2.5962-2.5 3.0494-1.8026 0.45242-2.5 1.3006-2.5 3.0405 0 2.5852-1.577 3.5241-8.424 5.0155-4.6843 1.0203-6.0623 3.3547-1.9803 3.3547 1.5193 0 4.2001-0.5199 5.9574-1.1553s3.9601-0.86173 4.8953-0.50288c1.547 0.59366 1.5584 0.79436 0.12598 2.2268-0.86586 0.86586-1.5743 2.4422-1.5743 3.5029 0 1.6905 0.74074 1.9286 6 1.9286 4.5344 0 6 0.34909 6 1.4291 0 0.93164-1.9651 1.8371-5.6454 2.6011-3.105 0.6446-5.1906 1.464-4.6348 1.8209s1.3287 1.6679 1.7174 2.9134 1.0732 2.038 1.5211 1.7612 1.0358 0.34391 1.3066 1.3794c0.28688 1.097 1.7656 2.1623 3.5437 2.5528 1.6782 0.3686 5.1949 2.6664 7.8148 5.1061s5.1264 4.4359 5.57 4.4359 0.80659 1.1553 0.80659 2.5674c0 2.1983-0.32345 2.4691-2.25 1.8839-2.2878-0.69495-6.633-3.7202-10.25-7.1364-1.1-1.0389-3.4625-2.4894-5.25-3.2233s-3.25-1.9547-3.25-2.713-0.45-1.3787-1-1.3787-1-0.68614-1-1.5248c0-1.637-3.5066-3.3177-8.75-4.1939-2.0708-0.34604-3.25-0.13279-3.25 0.58777 0 0.62196 0.36895 1.1308 0.81989 1.1308s2.3634 1.3855 4.25 3.0788 4.6676 3.8154 6.1801 4.7156 2.75 2.2289 2.75 2.9526 0.675 1.5748 1.5 1.8914 1.5 1.4275 1.5 2.4686c0 1.3947-0.72387 1.897-2.75 1.9083-1.5125 8e-3 -2.2568 0.34592-1.654 0.75s1.3989 1.9722 1.769 3.4847 1.1144 2.75 1.654 2.75 0.98095 0.675 0.98095 1.5c0 1.7603 1.8209 1.8615 8.9998 0.50003zm82.25-0.39208c2.5172-1.9108 2.1585-2.7879-0.99145-2.4244-1.6534 0.19084-2.8732 1.0109-3.0733 2.0664-0.39079 2.0607 1.5917 2.2352 4.0648 0.35795zm-218.21-4.4716c-0.44745-1.5602-2.2143-4.2696-3.9263-6.021s-3.1163-3.5063-3.1206-3.8999-1.1293-1.2357-2.5-1.8714-2.4922-0.74826-2.4922-0.25 0.40122 0.90591 0.89159 0.90591 1.174 1.125 1.519 2.5 1.0689 2.5 1.6084 2.5 0.98095 0.6794 0.98095 1.5098 0.9 2.2804 2 3.2222 2 2.2499 2 2.9069c0 1.26 2.0297 2.3544 3.1763 1.7127 0.37198-0.2082 0.31023-1.655-0.13722-3.2152zm114.96 2.9706c0-0.49116-0.675-1.152-1.5-1.4686-0.91371-0.35062-1.5-2e-3 -1.5 0.89301 0 0.80774 0.675 1.4686 1.5 1.4686s1.5-0.40186 1.5-0.89301zm-109.81-6.7901c-0.72188-0.28887-1.5844-0.25335-1.9167 0.0789s0.25834 0.56864 1.3125 0.52522c1.165-0.048 1.4019-0.28494 0.60417-0.60416zm-1.6418-14.914c-1.3866-1.3866-3.5457-1.9107-3.5457-0.86066 0 1.2655 2.5884 3.1692 3.719 2.7354 0.93607-0.3592 0.8947-0.80668-0.17331-1.8747zm4.0237-7.2558c-0.85995-0.90587-3.0274-3.6367-4.8165-6.0685-3.9502-5.3692-5.753-6.2034-5.753-2.6618 0 1.4208 0.41968 2.5833 0.93261 2.5833s1.2203 0.90653 1.572 2.0145 1.0948 1.733 1.6515 1.389c0.60276-0.37253 0.87658 0.32939 0.67703 1.7355-0.21682 1.5277 0.45937 3.0042 1.9159 4.1836 1.238 1.0024 2.251 2.4274 2.251 3.1667s0.5625 1.5349 1.25 1.7681c1.9371 0.65708 2.2043-6.1249 0.31947-8.1103zm72.25 3.0928c0.37241-2.6103-2.2568-3.1488-3.2126-0.65799-1.0178 2.6523-0.68943 3.5806 1.143 3.2313 0.9625-0.18345 1.8938-1.3414 2.0696-2.5733zm-34.34-1.536c2.2011-1.1338 4.5206-3.2541 4.5206-4.1323 0-1.0877-5.0788-0.56536-8.5321 0.87754-2.3737 0.9918-3.4679 2.1021-3.4679 3.5191 0 1.751 0.42392 1.9687 2.75 1.4127 1.5125-0.36156 3.6407-1.1162 4.7294-1.677zm38.021 1.2963c-0.33992-0.55-0.81648-1-1.059-1s-0.44098 0.45-0.44098 1 0.47656 1 1.059 1 0.7809-0.45 0.44098-1zm4.5-5.9286c0-0.51072 0.67774-1.6063 1.5061-2.4347 0.95286-0.95286 1.5957-3.8013 1.75-7.7544 0.23105-5.919 0.11216-6.2814-2.2561-6.8779-3.0428-0.76633-9.6965 0.75768-12.719 2.9132-1.4952 1.0664-2.2288 2.642-2.25 4.8324-0.0364 3.7631 1.2037 4.0707 5.3615 1.3296 4.1896-2.762 5.607-1.7438 5.607 4.0273 0 3.6827 0.37104 4.893 1.5 4.893 0.825 0 1.5-0.41786 1.5-0.92857zm-77-3.6136c0-2.5328-0.92629-4.1131-4.25-7.2504-0.9625-0.90853-1.75-2.1508-1.75-2.7606s-1.125-1.7109-2.5-2.4467-2.5-1.6964-2.5-2.1345c0-0.76582-2.9696-3.8582-8.2734-8.6155-2.7928-2.505-6.7266-3.007-6.7266-0.85841 0 0.76538 1.0752 1.6615 2.3894 1.9913 1.3584 0.34094 2.6351 1.5786 2.9588 2.8685 0.31319 1.2478 1.938 3.0772 3.6106 4.0652s3.0412 2.4726 3.0412 3.2989 0.45 1.2244 1 0.88445 1 0.0677 1 0.9058 0.9 2.0055 2 2.5942 2 1.5235 2 2.0774c0 1.6298 5.7098 7.9226 7.1886 7.9226 0.44629 0 0.81144-1.144 0.81144-2.5422zm36.75 0.31499c1.2375-0.61091 2.25-1.6522 2.25-2.314 0-1.3654-7.0388-2.7649-9.3825-1.8656-1.8031 0.69191-3.0372 3.9186-2.0869 5.4563 0.72734 1.1768 5.6222 0.49894 9.2194-1.2768zm56.811-12.573c1.0662-0.99027 2.7546-2.1121 3.7519-2.4929s1.5456-1.1258 1.2182-1.6554c-0.6299-1.0192-11.503 3.8873-11.521 5.1988-0.0201 1.468 4.6449 0.72 6.5512-1.0505zm-93.361-4.3995c-0.56375-0.56375-1.5746-0.84179-2.2464-0.61786-0.84993 0.28331-0.66201 0.96657 0.61786 2.2464s1.9631 1.4678 2.2464 0.61786c0.22393-0.67179-0.0541-1.6827-0.61786-2.2464zm60.066 0.60023c1.9776-1.9777-6.137-9.4002-10.277-9.4002-1.0294 0-2.1498-0.45-2.4897-1-0.78043-1.2628-4.5-1.3185-4.5-0.0674 0 0.51294 0.84983 1.2023 1.8885 1.532s2.9828 1.6135 4.3202 2.853c5.9783 5.5405 9.6049 7.5354 11.058 6.0826zm11.116-10.296c-0.37117-4.1822-1.0149-7.8289-1.4304-8.1039s-1.0758-2.6375-1.4671-5.25-1.0781-4.75-1.5261-4.75-1.1245-2.481-1.5033-5.5132-1.0862-5.7588-1.572-6.059-0.88927-1.7568-0.89678-3.2368c-0.028-5.5067-1.0395-7.0211-5.7655-8.6314-2.5174-0.85776-5.5954-1.5596-6.8399-1.5596s-2.541-0.45-2.8809-1-1.379-1.01-2.309-1.0222-2.816-0.90222-4.191-1.9778-3.2582-1.9655-4.1849-1.9778-2.9517-0.50387-4.5-1.0925-2.9051-1.0612-3.0151-1.05-1.7055-1.4197-3.5455-3.1797c-8.868-8.4822-10.113-8.6083-9.386-0.95 1.9563 20.598 2.9681 28.812 3.6035 29.25 0.3989 0.275 1.0271 3.1284 1.3961 6.3408s1.321 6.491 2.1157 7.2857c1.2598 1.2598 1.7056 1.1842 3.4806-0.59084 2.1727-2.1727 5.5117-2.6926 6.5458-1.0194 0.34546 0.55897 1.0148 0.7773 1.4875 0.48517s1.0041 0.44207 1.1809 1.6316 0.99649 2.4822 1.8215 2.8728 2.9625 1.4744 4.75 2.4087 3.25 1.4175 3.25 1.074 1.2375 0.23489 2.75 1.2854c4.116 2.8588 9.314 5.2262 11.475 5.2262 2.321 0 4.7749 2.2759 4.7749 4.4286 0 0.86429 0.62686 1.5714 1.393 1.5714s1.6715 0.72568 2.0118 1.6126c0.50662 1.3202 0.89383 1.3844 2.1355 0.35394 1.2297-1.0206 1.389-2.6972 0.84176-8.8626zm25.329 6.251c7.2588-3.4315 24.767-7.6284 28.449-6.8197 1.9973 0.43867 4.8041-0.0868 8.6483-1.6192 4.8629-1.9384 13.563-7.0069 15.191-8.8501 0.60854-0.68886 4.4458-2.911 8.5-4.9222 4.205-2.0861 20.93-13.307 21.333-14.313 0.18334-0.45688 0.94848-0.83069 1.7003-0.83069s1.7268-0.64304 2.1667-1.429 1.0247-1.3663 1.2997-1.2898c1.2221 0.34021 9.8773-4.5191 10.379-5.8272 0.30688-0.79973 1.2471-1.454 2.0894-1.454s1.5314-0.3634 1.5314-0.80755 1.6875-1.5582 3.75-2.4756 4.65-3.0277 5.75-4.6896 2.3555-3.0228 2.7901-3.0244 2.6219-1.9154 4.8608-4.2529l4.0707-4.25-0.54502-7.4004c-0.29976-4.0702-0.96565-7.6702-1.4798-8s-1.2571-4.0872-1.6511-8.3496-1.0612-7.75-1.4828-7.75-1.0526-3.7106-1.4023-8.2459-1.0914-8.3977-1.6482-8.5833-1.0123-1.2071-1.0123-2.27c0-1.5266-0.6232-1.8851-2.9667-1.7065-2.3721 0.18075-3.0926 0.79951-3.5952 3.0874-0.34565 1.5737-0.85786 2.6319-1.1382 2.3515s-1.4751 0.48123-2.6548 1.6925-3.3751 2.8305-4.8785 3.5984-3.007 2.258-3.3413 3.3114-0.83901 1.6841-1.1215 1.4016-1.6348 0.69608-3.0051 2.1746-2.7856 2.7339-3.145 2.7896c-2.2368 0.34659-7.1536 2.7406-7.1536 3.4831 0 1.6228-7.439 4.0359-11.478 3.7234-2.9665-0.2295-4.0566 0.0873-4.2854 1.2454-0.43421 2.1973 3.542 6.3668 8.384 8.7916 3.6539 1.8298 4.06 2.3796 3.5892 4.8592-0.29198 1.5378-1.2023 3.2902-2.0229 3.8942-1.6855 1.2407-0.81361 3.4017 1.3726 3.4017 0.79254 0 1.441 0.50572 1.441 1.1238 0 0.75136-1.8298 0.97208-5.521 0.66598-6.002-0.49773-8.8819-2.5629-10.047-7.2046-0.35686-1.4219-1.0188-2.5852-1.4709-2.5852s-0.96729-1.0125-1.1448-2.25c-0.2498-1.7412-0.88739-2.1868-2.8196-1.9705-1.3732 0.1537-2.6468 0.7162-2.8301 1.25s-0.92269 0.97053-1.643 0.97053-1.5256 0.5625-1.7895 1.25-3.012 2.1106-6.107 3.1624-5.6272 2.2536-5.6272 2.6706-1.35 1.0546-3 1.417-3 1.0732-3 1.5795-0.60929 0.92054-1.354 0.92054-2.5638 1.1212-4.0425 2.4916-3.9069 2.7692-5.396 3.1086c-3.333 0.75953-10.938 4.3817-14.818 7.058-1.589 1.0959-4.4642 2.5801-6.3892 3.2981s-5.3 2.1295-7.5 3.1366c-5.295 2.424-15.571 5.0077-18.589 4.6738-2.3977-0.26524-2.4091-0.22131-2.1296 8.1935 0.15456 4.6531 0.66294 8.7031 1.1297 9s1.182 3.4648 1.5892 7.0398 1.1837 6.7808 1.7253 7.1239 1.2232 3.5947 1.5147 7.2256 0.87203 6.3902 1.2902 6.1318 1.043 0.26695 1.3886 1.1675 0.8712 1.3945 1.168 1.0977 1.7488-0.16089 3.2265 0.30213c3.6687 1.1496 8.688 0.24202 14.898-2.6938zm-89.711 0.70411c0-2.318-1.7951-3.6639-3.1199-2.3391-1.2553 1.2553-0.0349 4.2801 1.7269 4.2801 0.76615 0 1.393-0.87344 1.393-1.941zm217-4.059c0-0.55-0.45-1-1-1s-1 0.45-1 1 0.45 1 1 1 1-0.45 1-1zm-45-9.559c0-1.9575-0.41783-3.3008-0.92851-2.9852s-1.1244-0.44532-1.3638-1.691l-0.43532-2.2648-0.13618 2.25c-0.0749 1.2375-0.58618 2.25-1.1362 2.25s-1 1.092-1 2.4267c0 2.1647 0.96426 2.9491 4.25 3.4573 0.4125 0.0638 0.75-1.4856 0.75-3.443zm6.7932-20.321c0.57063-1.7119-2.4972-1.334-3.1584 0.38901-0.31854 0.8301-0.92918 1.4337-1.357 1.3412-1.5644-0.33795-4.2778 1.4009-4.2778 2.7414 0 1.0143 1.1109 0.75395 4.2099-0.98672 2.3154-1.3006 4.378-2.8688 4.5833-3.4849zm17.748 1.9463c-0.36254-0.58659-1.1003-1.0665-1.6396-1.0665s-0.40017 0.62961 0.30901 1.3991c1.4357 1.5578 2.3566 1.3276 1.3306-0.33261zm3.4589-16.592c0-2.2144-3.1089-1.7739-3.7102 0.52568-0.28766 1.1-0.92053 2-1.4064 2s-0.88337 0.46156-0.88337 1.0257c0 0.58409 1.2916 0.35777 3-0.52568 1.65-0.85325 3-2.2148 3-3.0257zm-134.75-2.8664c2.5983-1.9724 2.1223-3.608-1.05-3.608-2.9879 0-5.2 1.574-5.2 3.7 0 1.6809 3.9918 1.6221 6.25-0.0921zm11.206-1.6784c-0.62294-1.0079 6.1782-7.9271 7.7935-7.9288 0.4125-4.3e-4 0.75-0.45935 0.75-1.0198 0-2.8752-14.903 4.1483-14.985 7.0622-8e-3 0.29877 1.4472 1.023 3.2347 1.6094s3.3891 1.1295 3.559 1.2068 0.0113-0.34107-0.35253-0.92979zm-17.255-2.2586c2.5858-0.68242 5.0234-1.5626 5.4167-1.9559s1.5216-0.71512 2.5074-0.71512c2.5094 0 8.8201-3.2743 8.8498-4.5917 0.0135-0.60044 1.9371-1.6638 4.2746-2.3629s5.4258-2.1071 6.8629-3.1287 2.8996-1.5709 3.25-1.2204 0.63712 0.1197 0.63712-0.5127c0-0.92361 9.0637-6.4056 11-6.6531 1.2441-0.15902 5-4.1048 5-5.2527 0-0.70277-0.97128-1.2778-2.1584-1.2778-2.1383 0-2.136-0.0213 0.25-2.2866 2.9345-2.7862 4.9084-3.006 4.9084-0.5467 0 2.4516 0.2656 2.381 6.2761-1.6667 4.7004-3.1654 7.7239-4.3398 7.7239-3 0 1.5682-11.85 10.5-13.93 10.5-0.5884 0-1.0698 0.40598-1.0698 0.90217s-1.35 1.3728-3 1.948-3 1.5942-3 2.2645-0.27223 0.94646-0.60495 0.61374c-0.68166-0.68166-5.395 4.0789-5.395 5.449 0 0.48695 0.6738 1.1439 1.4973 1.4599 1.5802 0.60637 11.503-5.2091 11.503-6.7416 0-0.49266 0.65747-0.89575 1.461-0.89575s2.2661-0.82008 3.25-1.8224 3.364-2.8905 5.289-4.1959 4.9323-3.8604 6.6828-5.6776 3.8506-3.3041 4.6667-3.3041 1.6582-0.52318 1.8714-1.1626 1.1195-1.27 2.0141-1.4014c1.0337-0.15172 1.4306 0.27201 1.0888 1.1626-0.29576 0.77074-0.95477 1.4014-1.4645 1.4014s-2.1744 1.2375-3.6994 2.75-4.4684 4.254-6.5409 6.0921-3.5305 3.5797-3.2401 3.8701c0.99164 0.99164 5.3041-0.66805 7.7145-2.969 1.3236-1.2635 4.0484-3.5106 6.0549-4.9936l3.6483-2.6962 0.63502 2.5301c0.51837 2.0654 1.0422 2.4031 2.8517 1.8385 1.2192-0.38037 2.5705-1.1934 3.003-1.8068 1.1564-1.6403 0.0771-7.3948-1.725-9.1969-0.85866-0.85867-1.5612-2.2041-1.5612-2.9898s-0.40122-1.4286-0.89159-1.4286-1.174-1.125-1.519-2.5-1.1093-2.5-1.6981-2.5c-1.3808 0-4.8147-4.1061-4.858-5.809-0.0183-0.71996-0.43527-1.0606-0.9266-0.75691s-1.1749-0.56978-1.519-1.941-1.0672-2.4931-1.6067-2.4931-0.98095-0.5641-0.98095-1.2536c0-1.3022-9.4418-10.271-10.754-10.215-0.41033 0.0175-1.6976-0.99503-2.8607-2.25s-2.4588-2.2818-2.8793-2.2818-2.6189-1.9676-4.8853-4.3724-5.788-4.9629-7.8258-5.6846-5.3981-2.8184-7.4673-4.6593c-3.0747-2.7354-4.2924-3.2306-6.6635-2.7098-1.6769 0.36831-3.9112 0.0967-5.2943-0.64348-2.083-1.1148-2.5818-1.0313-3.8496 0.64449-1.4318 1.8925-1.4574 1.8912-1.5037-0.0748-0.0259-1.1-0.47008-2.669-0.98705-3.4866-1.7002-2.6891-5.2595 2.3971-5.4832 7.8356l-0.19134 4.651-4.6774 0.30479c-4.9862 0.32492-5.9319 1.4535-2.6774 3.1952 1.1 0.5887 2 1.7295 2 2.5352s0.45 1.4648 1 1.4648 1 0.41762 1 0.92804-2.5875 1.1944-5.75 1.5199-7.5955 0.95512-9.851 1.3991-5.0679 0.44964-6.2495 0.0125c-1.3702-0.50686-4.4528-0.0831-8.5093 1.1699l-6.3608 1.9647-0.61321 5.1776c-0.33726 2.8477-1.0144 5.4365-1.5049 5.753s-1.238 1.7004-1.6612 3.0754-1.2714 2.8211-1.8848 3.2135c-1.6096 1.0298-1.4876 15.996 0.13478 16.536 0.6875 0.22917 1.25 0.95416 1.25 1.6111 0 1.2899 2.7303 3.8996 7.5 7.1689 5.2061 3.5684 5.5 3.6768 5.5 2.029 0-0.85746-0.675-1.559-1.5-1.559-1.8109 0-2.0104-2.5955-0.25-3.2525 1.5777-0.5888 9.75 2.8504 9.75 4.1031 0 0.51292 1.0214 1.189 2.2699 1.5023s3.3768 1.5996 4.7296 2.8584c1.6985 1.5804 3.6774 2.2887 6.3945 2.2887 4.0659 0 6.5198 2.3952 2.6893 2.625-3.3947 0.20368-3.8762 0.33182-4.75 1.2642-0.48308 0.51545 0.84786 0.63364 3.1667 0.28122l8-1.2119c2.2-0.33219 5.6778-1.6962 7.7286-3.0312s4.0241-2.4272 4.3853-2.4272 1.6274-1.0125 2.8138-2.25 3.713-3.1148 5.6147-4.1718 3.8228-2.529 4.2691-3.271 1.3033-1.0452 1.9045-0.67369c0.67103 0.41472 0.80597 0.21104 0.34951-0.52753-0.56934-0.92122-1.0741-0.92873-2.1545-0.0321-0.77603 0.64405-1.411 0.87507-1.411 0.51337s-0.9-0.17596-2 0.41274c-3.3094 1.7711-2.4655-1.2938 0.90429-3.2844 3.0976-1.8298 8.0957-2.3221 8.0957-0.7974 0 0.50502 0.27169 1.6262 0.60375 2.4916 0.37696 0.98235-0.0759 1.8342-1.2057 2.2677-2.322 0.89105-4.7868 2.9005-9.2866 7.5709-1.9863 2.0616-4.2312 3.7491-4.9887 3.75s-4.1325 1.3142-7.5 2.9185-7.2477 3.148-8.6227 3.4304-4.3 0.98189-6.5 1.5543c-2.2372 0.58209-9.068 0.8342-15.5 0.57209-10.59-0.43156-15.527 0.33282-13.733 2.1264 0.67331 0.67331 9.9003 2.7571 17.962 4.0566 2.4787 0.39952 4.4904 0.10787 6-0.86986 1.2491-0.809 4.4327-1.7617 7.0748-2.1171s8.0892-2.2265 12.105-4.1579 7.6513-3.5118 8.0791-3.5118 1.5056-0.81064 2.3951-1.8014c2.0189-2.2488 9.1173-7.624 9.1173-6.9041 0 0.29251 1.6875-0.28997 3.75-1.2944 7.5283-3.6662 4.029 0.77891-3.75 4.7637-1.925 0.98608-6.0962 3.4676-9.2694 5.5146s-6.2107 3.7218-6.75 3.7218-0.98058 0.45-0.98058 1-1.0984 1-2.441 1-2.6919 0.40597-2.9986 0.90216-3.8207 1.8824-7.809 3.0805c-8.8558 2.6603-12.644 4.8378-10.633 6.1115 1.6875 1.0688 1.3546 1.0887 7.0834-0.42317zm-7.4516-24.993c-0.9625-0.76909-1.75-1.6862-1.75-2.0381s4.5-0.63976 10-0.63976c8.2222 0 10 0.26667 10 1.5 0 0.9084-0.92815 1.5-2.3533 1.5-1.2943 0-5.0068 0.24215-8.25 0.53812-4.2223 0.38531-6.3936 0.14104-7.6467-0.86025zm24.435-3.4279c0.42213-2.226 5.8148-3.0823 5.8148-0.92341 0 1.5041-2.0362 2.6734-4.6551 2.6734-0.88027 0-1.3555-0.71719-1.1597-1.75zm151.27 26.589c2.7342-1.2458 3.4056-2.8395 1.1963-2.8395-2.3307 0-7.6492 2.1539-7.6492 3.0978 0 1.2614 3.4177 1.1246 6.453-0.25835zm-139.45-0.83948c0-0.55-0.675-1-1.5-1s-1.5 0.45-1.5 1 0.675 1 1.5 1 1.5-0.45 1.5-1zm4.4182-0.60699c1.6788-0.64421 2.2164-3.393 0.66358-3.393-2.0515 0-4.0818 1.2967-4.0818 2.607 0 1.5123 0.9539 1.7317 3.4182 0.78602zm-149.42-4.9282c0-3.1103-2.5502-3.2728-3.3697-0.21482-1.1095 4.1401-0.82332 4.9237 1.3697 3.75 1.1696-0.62592 2-2.0938 2-3.5352zm286.45-1.5576c1.502-1.4344-1.7774-1.0862-5.8682 0.62302-2.0143 0.84165-3.4095 1.9396-3.1003 2.4398 0.56448 0.91335 7.1654-1.341 8.9685-3.0629zm-138.45-1.4663c0-0.24254-0.45-0.44098-1-0.44098s-1 0.47656-1 1.059 0.45 0.7809 1 0.44098 1-0.81648 1-1.059zm-39-3.441c0-2.055-1.5192-2.266-3.6003-0.5-0.87624 0.74358-0.88626 1.1884-0.0391 1.7347 2.0649 1.3315 3.6394 0.79735 3.6394-1.2347zm-23.32-2.5713c-3.6373-2.4716-10.68-4.4421-10.68-2.9881 0 2.4983 5.904 5.3127 11.482 5.4735l2.9821 0.086-3.784-2.5713zm86.861 0.50475c1.0893-1.7626-0.059-2.0097-2.1141-0.45494-1.6919 1.28-1.7207 1.4617-0.23602 1.4897 0.93004 0.0175 1.9876-0.44814 2.3501-1.0347zm-65.545-2.104c6e-3 -0.97996-5.0643-1.9322-8.7808-1.649-3.2894 0.25064-4.1972 1.2508-1.9649 2.1646 1.7674 0.72354 10.741 0.293 10.746-0.51558zm111.42-1.4364c2.2651-0.86918 1.9514-3.1409-0.54306-3.9326-1.3331-0.42312-2.4452-0.16878-2.9847 0.68261-2.0416 3.2221-0.38261 4.7506 3.5277 3.25zm-6.4182-2.393c0-1.2682-0.64035-1.9711-1.75-1.921-1.0454 0.0472-1.2467 0.28201-0.5 0.58333 0.6875 0.27741 1.25 1.1419 1.25 1.921s0.225 1.4167 0.5 1.4167 0.5-0.9 0.5-2zm-127.57-1.4785c-2.3629-1.7876-4.739-1.9574-4.1862-0.29905 0.39291 1.1787 4.8132 2.8146 5.6862 2.1043 0.23485-0.19108-0.44015-1.0035-1.5-1.8053zm-15.927-17.84c0-7.8138 0.36423-10.698 1.5-11.878 0.825-0.85704 2.175-2.5685 3-3.8033s2.0031-2.7734 2.6181-3.4192 1.4328-2.1656 1.8174-3.3775 1.119-2.2034 1.6319-2.2034 0.93261-1.125 0.93261-2.5-0.50937-2.5-1.1319-2.5c-1.5884 0-7.8681 6.8409-7.8681 8.5712 0 0.78584-0.45 1.4288-1 1.4288s-1 0.64286-1 1.4286-0.71947 2.148-1.5988 3.0274-1.8468 3.499-2.1499 5.8214-0.96773 4.4952-1.477 4.8285-1.1724 2.4431-1.4736 4.6887c-0.51371 3.83-0.41057 4.0469 1.6658 3.504 1.8606-0.48656 2.1814-0.19786 2.0128 1.8113-0.32383 3.858-0.0557 4.8901 1.2708 4.8906 0.91928 3.6e-4 1.25-2.7299 1.25-10.319zm209.3 8.4652c1.0362-0.65732 0.9859-1.0814-0.25-2.1071-1.2605-1.0461-1.837-1.0437-3.1102 0.0129-1.3694 1.1365-1.4798 0.96602-0.89159-1.3776 0.53232-2.1209 0.31617-2.6746-1.0441-2.6746-1.1534 0-1.5165 0.51825-1.1084 1.5818 0.33385 0.86998 0.60699 2.445 0.60699 3.5 0 2.0358 3.3086 2.6434 5.7973 1.0646zm-218.8-13.1c0-1.507 0.89166-3.8214 1.9815-5.143l2.8302-3.429c0.46681-0.56431 1.1349-2.4568 1.4847-4.2056 0.50165-2.5083 0.33441-3.0639-0.79214-2.6316-0.78543 0.30139-1.7005 1.4064-2.0335 2.4556s-1.0251 1.9076-1.5381 1.9076-0.93261 0.65264-0.93261 1.4503-0.62233 1.8102-1.383 2.25-1.7032 3.1644-2.0945 6.0546c-0.61874 4.5695-0.50357 5.1751 0.88296 4.643 0.92251-0.354 1.5945-1.7666 1.5945-3.3519zm-5.5347-2.7127c0.34393-1.8333 1.055-3.3333 1.58-3.3333s0.95469-0.80847 0.95469-1.7966c0-1.9203 1.5669-4.2001 6.75-9.8212 1.7875-1.9385 3.25-3.9747 3.25-4.5248s0.675-1.6752 1.5-2.5002 1.5-2.4428 1.5-3.5952 0.27223-1.823 0.60495-1.4903 1.5702-0.42228 2.75-1.6778 3.3826-2.5863 4.895-2.9573 2.75-1.116 2.75-1.6555 0.5625-0.99096 1.25-1.0032 2.375-0.88793 3.75-1.946c2.0199-1.5543 2.2565-2.168 1.2322-3.1956-1.0256-1.0288-1.9809-0.89767-5 0.68644-2.0527 1.077-4.0628 2.4125-4.4669 2.9678s-0.74158 0.67196-0.75 0.25933-2.4707 1.7249-5.4718 4.75-5.8957 5.5002-6.4326 5.5002-1.2639 0.90653-1.6155 2.0145-1.057 1.7564-1.5674 1.441-0.928 0.0592-0.928 0.83247c0 1.2388-0.90205 2.5824-4.9815 7.4198-0.5602 0.66429-1.0185 1.8696-1.0185 2.6786s-0.74466 2.2154-1.6548 3.1256c-2.3048 2.3048-3.1271 11.155-1.0364 11.155 0.94362 0 1.7712-1.2791 2.1565-3.3333zm20.928-0.91512c0.33385-0.86998 0.59202-2.3325 0.57372-3.25-0.0266-1.3329-0.42857-1.1937-2 0.69257-1.0817 1.2984-1.9667 2.7609-1.9667 3.25 0 1.5311 2.7555 0.96867 3.393-0.69257zm-28.582-10.457c1.2037-1.1214 2.1886-2.9372 2.1886-4.0352 0-1.6594-0.32435-1.8226-1.922-0.96759-2.8429 1.5215-5.078 3.9921-5.078 5.6132 0 2.0484 2.2662 1.7609 4.8114-0.61039zm13.693-12.976c0.35166-1.108 1.057-1.7564 1.5674-1.441s0.928-0.12802 0.928-0.98548-0.225-1.559-0.5-1.559c-0.91441 0-4.5 3.984-4.5 5 0 1.7982 1.8497 1.0489 2.5046-1.0145zm-6.5046-3.5688c0-1.7659-2.1528-1.4584-2.7708 0.39583-0.21771 0.65312 0.31666 1.1875 1.1875 1.1875s1.5833-0.7125 1.5833-1.5833zm51.5-2.4167c0.731-1.1828-0.24752-1.1828-3 0-1.9282 0.82859-1.9214 0.86195 0.19098 0.92971 1.205 0.0387 2.4691-0.37971 2.809-0.92971zm-36.088-3.5064c1.6013-1.3772 2.6502-2.7653 2.3308-3.0847s-2.0338 0.8079-3.8098 2.5051c-3.8581 3.687-2.6739 4.1511 1.4791 0.57953zm-38.412-4.5527c0-1.1325 0.39521-1.8148 0.87825-1.5162 1.0157 0.62774 2.1218-4.1206 2.1218-9.1088 0-1.8887 0.39026-3.1928 0.86723-2.898 0.79248 0.48977 2.1328-6.1251 2.1328-10.526 0-3.6889-2.9093-0.67956-3.564 3.6866-0.363 2.4207-1.0596 4.1543-1.548 3.8524s-0.89413 0.71525-0.90164 2.2602c-0.0195 4.0211-1.0657 7.378-2.1 6.7388-0.48747-0.30128-0.88631 1.7288-0.88631 4.5112 0 3.8302 0.36433 5.059 1.5 5.059 0.84766 0 1.5-0.89545 1.5-2.059zm9 0.059c0-1.1111-0.66667-2-1.5-2-1.8275 0-1.8914 0.63991-0.25 2.5042 1.6476 1.8713 1.75 1.8418 1.75-0.50417zm79.812-0.9375c0.25-0.75-0.125-1.125-0.875-0.875-0.72188 0.24063-1.5094 1.0281-1.75 1.75-0.25 0.75 0.125 1.125 0.875 0.875 0.72187-0.24063 1.5094-1.0281 1.75-1.75zm60.188-1.0625c0-2.2385-0.46369-3-1.8268-3-1.461 0-1.7386 0.60079-1.3865 3 0.24645 1.6791 1.0508 3 1.8268 3 0.87389 0 1.3865-1.1092 1.3865-3zm-100.19 0.1342c2.9044-1.5958 2.3391-3.6027-1.0517-3.7339-2.0741-0.0802-2.6544 0.43306-2.9774 2.6336-0.43062 2.934 0.31895 3.1387 4.0291 1.1003zm-54.811-3.6932c0-0.79254 0.39148-1.441 0.86995-1.441s1.1045-2.0807 1.3911-4.6237 1.0768-4.9671 1.756-5.3868c1.8704-1.156 1.8558-8.4895-0.017-8.4895-0.89299 0-1.628 1.1128-1.8164 2.75-0.17403 1.5125-0.67358 2.75-1.1101 2.75s-1.06 2.5803-1.3855 5.734-1.0634 5.8912-1.6399 6.0833c-1.1481 0.3827-1.429 3.4685-0.40863 4.4888 0.93324 0.93324 2.3605-0.19452 2.3605-1.8652zm98.278-0.45241c0.94723-1.1063 1.7222-2.9204 1.7222-4.0314s0.66344-2.2745 1.4743-2.5857c1.2651-0.48548 1.2753-0.76479 0.0714-1.9686-2.0738-2.0738-3.4295-1.7141-4.1351 1.0971-0.3451 1.375-0.98053 2.5-1.4121 2.5-1.2238 0-1.9181 2.5918-1.3136 4.9036 0.68429 2.6167 1.4103 2.6339 3.5927 0.085zm-26.68-3.7539c0.604-0.40408 1.404-2.6918 1.7777-5.0838s1.342-5.0116 2.1518-5.8214c1.8547-1.8547 1.8898-3.3295 0.0793-3.3295-1.4581 0-2.607 2.0777-2.607 4.7145 0 0.85301-0.82804 2.2787-1.8401 3.1682-2.3451 2.0612-3.7201 7.1236-1.929 7.102 0.69798-8e-3 1.7632-0.34592 2.3672-0.75zm-6.0088-2.7347c0.3451-1.375 0.97859-2.5 1.4078-2.5s1.0696-1.5422 1.4232-3.4272 1.1912-3.6507 1.8613-3.9239c0.89127-0.36332 0.81566-0.78143-0.28166-1.5575-0.825-0.58345-1.95-1.0649-2.5-1.0698-1.8788-0.0169-4.5 6.1338-4.5 10.559 0 4.7886 1.576 5.9565 2.5894 1.919zm17.411 1.0263c0.825-0.20532 2.2988-0.40774 3.275-0.44982 1.1424-0.0492 1.9877-1.1399 2.3718-3.0603 0.32822-1.6411 0.99197-2.7395 1.475-2.441s0.87825-0.12845 0.87825-0.94885c0-1.5451-3.3704-3.1336-4.7888-2.2569-0.44368 0.27421-1.4602 0.0851-2.259-0.42014-0.99657-0.63044-1.06-0.92351-0.20225-0.93402 0.6875-8e-3 1.25-0.46531 1.25-1.0153 0-1.7087-2.1777-1.1012-4.1327 1.153-1.027 1.1842-1.8673 2.7592-1.8673 3.5s-0.45 1.347-1 1.347-1 1.6275-1 3.6166c0 3.2815 0.2085 3.5548 2.25 2.9498 1.2375-0.36675 2.925-0.83481 3.75-1.0401zm0-7.0854c0-0.85746 0.45-1.2809 1-0.94098s1 1.0415 1 1.559-0.45 0.94098-1 0.94098-1-0.70156-1-1.559zm38 6.9757c0-1.7659-2.1528-1.4584-2.7708 0.39583-0.21771 0.65312 0.31666 1.1875 1.1875 1.1875s1.5833-0.7125 1.5833-1.5833zm-84.357-0.91667c-1.6734-1.6734-3.6429-1.9888-3.6429-0.58333 0 0.98796 1.6957 1.8774 3.8214 2.0044 1.0058 0.0601 0.96313-0.27935-0.17857-1.421zm58.357-2.4686c0-2.2279-0.37426-2.825-1.5-2.393-0.825 0.31659-1.5 1.6525-1.5 2.9686 0 1.4604 0.58455 2.393 1.5 2.393 0.99648 0 1.5-0.99651 1.5-2.9686zm35.5 1.9686c0.33992-0.55-0.0835-1-0.94098-1s-1.559 0.45-1.559 1 0.42344 1 0.94098 1 1.2191-0.45 1.559-1zm-70.688-1.9375c0.25-0.75-0.125-1.125-0.875-0.875-0.72188 0.24063-1.5094 1.0281-1.75 1.75-0.25 0.75 0.125 1.125 0.875 0.875 0.72187-0.24063 1.5094-1.0281 1.75-1.75zm-18.562-2.4792c0.1375-0.50416-0.3125-1.1042-1-1.3333s-1.25 0.33333-1.25 1.25c0 1.6934 1.7928 1.7598 2.25 0.0833zm20.75-4.0833c0-0.825-0.45-1.5-1-1.5s-1 0.675-1 1.5 0.45 1.5 1 1.5 1-0.675 1-1.5zm56-0.0352c0-1.1213-3.2707-5.4648-4.115-5.4648-1.4097 0-1.0303 1.8075 0.83725 3.9886 1.6307 1.9045 3.2778 2.6463 3.2778 1.4762zm-127.8-3.6648c-0.64167-0.64167-1.4986-0.8347-1.9044-0.42896s-0.0888 1.1388 0.70437 1.629c1.8676 1.1542 2.7109 0.31091 1.2-1.2zm25.789-6.5222c1.1063-0.94723 2.0114-2.5222 2.0114-3.5s0.41968-1.7778 0.93261-1.7778 1.243-0.97793 1.6224-2.1732c0.74109-2.335 1.2138-2.9838 6.195-8.5046 1.7875-1.9811 3.25-4.214 3.25-4.9621s0.40122-1.3601 0.89159-1.3601 1.1532-1.0425 1.473-2.3166 1.7111-2.9212 3.0918-3.6601c2.819-1.5087 4.2474-4.7195 2.7608-6.2061-1.245-1.245-5.0212 0.98994-5.7958 3.4303-0.30592 0.96387-0.94557 1.7525-1.4214 1.7525s-1.1509 0.9-1.5 2-1.1801 2-1.8466 2-1.8737 0.95514-2.6826 2.1225-1.9784 2.6554-2.5988 3.3066-1.4437 2.6211-1.8294 4.3775-1.107 3.1934-1.6029 3.1934-1.1838 1.125-1.529 2.5-0.94207 2.5-1.3266 2.5c-0.67098 0-4.084 6.9665-4.084 8.336 0 1.207 1.946 0.69067 3.9886-1.0583zm-2.8559-8.4308c1.027-1.1842 1.8673-2.7592 1.8673-3.5s0.39992-1.347 0.88871-1.347 1.1842-1.575 1.5453-3.5 1.0374-3.5 1.5029-3.5 1.1286-1.125 1.4737-2.5 0.98784-2.5 1.4283-2.5c1.2245 0 7.1611-5.5429 7.1611-6.6862 0-0.88286 0.78177-1.9915 4.8591-6.8906 0.4929-0.59225 1.2417-2.1655 1.664-3.4962s1.4306-2.904 2.2407-3.4963c1.0545-0.77104 1.2746-1.9793 0.77502-4.2538-0.38377-1.7473-0.99951-3.1626-1.3683-3.1451-1.9979 0.0948-4.1705 3.0514-4.1705 5.6754 0 1.6427-0.9 4.0245-2 5.2928s-2 2.7137-2 3.212-0.45 0.62789-1 0.28797-1 0.0147-1 0.78797-0.9 2.4437-2 3.712-2 2.9122-2 3.653-0.45 1.347-1 1.347-1 0.675-1 1.5-0.47149 1.5-1.0478 1.5c-1.4168 0-5.9522 4.9826-5.9522 6.539 0 0.68585-0.675 1.506-1.5 1.8226s-1.5 1.2647-1.5 2.107-0.39375 1.5314-0.875 1.5314c-1.0583 0-2.3422 5.8396-1.5615 7.1027 0.91677 1.4834 2.5932 1.0226 4.5692-1.2557zm-22.696-5.4523c0.77441-3.0855-0.30789-11.395-1.4842-11.395-0.45102 0-1.0398-1.2375-1.3085-2.75s-0.37057-0.12108-0.22652 3.092c0.16329 3.6418 0.79299 6.2127 1.672 6.8261 1.0821 0.75519 1.1193 1.1021 0.16009 1.4913-1.4132 0.57345-1.7332 5.3405-0.35841 5.3405 0.49038 0 1.1858-1.1724 1.5455-2.6053zm21.273-8.3947c0.28766-1.1 0.92053-2 1.4064-2s0.88337-0.84511 0.88337-1.878 0.96682-2.52 2.1485-3.3046 1.941-2.0489 1.6875-2.8095c-0.35433-1.063-0.94778-0.89614-2.5652 0.72123-1.1573 1.1573-2.3256 1.8828-2.5962 1.6121s-0.78844 0.44188-1.1507 1.5833-1.0784 2.0754-1.5913 2.0754-0.93261 1.35-0.93261 3c0 3.3708 1.9063 4.0742 2.7102 1zm12.427-15.056c1.2994-1.6806 3.1501-3.9994 4.1126-5.153 2.0417-2.447 2.2895-4.8051 0.5-4.7596-1.9401 0.0494-4.3887 2.2545-5.1432 4.6317-0.37633 1.1857-1.3418 2.7016-2.1455 3.3686-1.589 1.3188-2.0105 4.9679-0.57383 4.9679 0.48809 0 1.9506-1.375 3.25-3.0556zm-64.137-13.944c0-0.55-0.42344-1-0.94098-1s-1.2191 0.45-1.559 1 0.0835 1 0.94098 1 1.559-0.45 1.559-1zm1.4182-7.607c0.86999-0.33384 1.5818-1.2197 1.5818-1.9686 0-0.83782-0.61606-1.1252-1.6014-0.74711-1.1872 0.45556-1.4952 0.12409-1.1906-1.2814 0.22594-1.0428 0.94658-1.7834 1.6014-1.6459s1.1906-0.16786 1.1906-0.67857 0.72857-1.6571 1.619-2.5476c1.9176-1.9176 1.6982-2.2613-1.619-2.5372-4.0241-0.33471-5-0.0692-5 1.3604 0 0.74084-0.9 2.3847-2 3.653s-2 2.9425-2 3.7204c0 0.9593 0.6435 1.2101 2 0.7796 1.4193-0.45047 2-0.1797 2 0.93261 0 1.6781 0.89363 1.9292 3.4182 0.9604zm80.04-18.083c0.3514-1.4001 0.49148-2.6931 0.31129-2.8733-0.79407-0.79406-2.5178 1.2928-3.1281 3.787-0.51713 2.1135-0.34788 2.6012 0.75578 2.1776 0.78216-0.30014 1.7096-1.6912 2.061-3.0914zm-77.208-2.8442c5.3794-3.9467 5.829-5.1566 2.25-6.0548-2.9311-0.73566-3.1952-2.1563-0.75-4.034 1.6339-1.2546 1.6007-1.3858-0.5-1.9769-1.2375-0.34818-2.25-1.229-2.25-1.9574 0-2.3964-1.9133-2.5743-6.3893-0.59437-2.5112 1.1108-4.6996 2.8567-5.0789 4.0519-0.3666 1.155-1.1413 2.1001-1.7216 2.1001-0.65571 0-0.58385 0.56777 0.18983 1.5 1.7034 2.0524 4.0864 1.8856 4.6649-0.32648 0.48249-1.8451 6.3351-5.9788 6.3351-4.4744 0 0.44667-1.575 2.1254-3.5 3.7304s-3.5 3.74-3.5 4.7444-0.45 1.8261-1 1.8261-1 0.45-1 1 0.675 1 1.5 1 1.5-0.525 1.5-1.1667 0.3063-0.86036 0.68067-0.486 1.9447-0.53032 3.4896-2.0104 3.1091-2.3909 3.4761-2.0239-0.52837 1.7752-1.9896 3.1294c-2.4754 2.2941-3.611 5.5892-1.9067 5.5329 0.4125-0.0136 2.8875-1.593 5.5-3.5097zm79.75-7.5835c0-0.55-0.45-0.72189-1-0.38197s-1 1.068-1 1.618 0.45 0.72189 1 0.38197 1-1.068 1-1.618zm-89.182-10.82c0.30452-1.9513 0.10471-1.9264-4.75 0.59233-5.3527 2.7771-6.1862 3.9354-3.3179 4.6107 2.4773 0.5832 7.6895-2.7781 8.0679-5.203zm0.18211-7.4018c0-0.73672-1.1462-1.8617-2.547-2.5-3.1073-1.4158-3.453-1.4319-3.453-0.16052 0 0.55 0.675 1 1.5 1s1.5 0.675 1.5 1.5 0.675 1.5 1.5 1.5 1.5-0.60277 1.5-1.3395zm56-10.72c0-0.58246-0.45-0.7809-1-0.44098s-1 0.81648-1 1.059 0.45 0.44098 1 0.44098 1-0.47656 1-1.059zm249.54-8.3419c0.7705-0.7705 1.6959-3.2455 2.0564-5.5s1.048-4.0991 1.5277-4.0991c2.0181 0 0.66496-2.8352-1.6278-3.4106-2.4054-0.60373-3.5557-2.5894-1.5-2.5894 0.55 0 1-1.125 1-2.5s-0.48214-2.5-1.0714-2.5c-2.1238 0-3.9286 2.9261-3.9286 6.3696 0 3.8014 1.561 5.7576 2.3083 2.8927 0.25282-0.96923 0.51188-0.25761 0.57568 1.5814 0.0888 2.5585-0.35361 3.4664-1.884 3.8666-1.3809 0.36111-2 1.364-2 3.2397 0 4.17 1.9096 5.2833 4.5438 2.6491zm-279.17-1.3968c0.27117-0.43876 0.0727-1.4513-0.44098-2.25-0.81659-1.2697-1.0514-1.2697-1.868 0-0.99169 1.5419-0.53021 3.0478 0.93402 3.0478 0.48508 0 1.1038-0.35899 1.375-0.79775zm253.62-6.4308c0-1.3043-0.5625-2.9774-1.25-3.7181-1-1.0774-1-1.2056 0-0.64099 0.89805 0.50702 1.25-0.29636 1.25-2.8533 0-2.1384-0.49894-3.5905-1.25-3.638-1-0.0632-1-0.17982 0-0.58333 1.5266-0.61602 1.6754-4.3377 0.17338-4.3377-0.59214 0-0.99654-1.4625-0.89868-3.25 0.33099-6.0456-4e-3 -7.75-1.5247-7.75-1.0476 0-1.5 1.0556-1.5 3.5 0 1.925 0.45 3.5 1 3.5 1.6411 0 1.2087 10.934-0.5 12.643-2.2654 2.2654-1.9126 5.3571 0.61129 5.3571 1.8872 0 2.0387 0.3868 1.4277 3.6437-0.62158 3.3133-0.54099 3.5011 0.88871 2.0714 0.86475-0.86475 1.5723-2.6394 1.5723-3.9437zm-280.5-3.7714c0-0.73333-0.5625-1.5208-1.25-1.75-0.74359-0.24786-1.25 0.46111-1.25 1.75s0.50641 1.9979 1.25 1.75c0.6875-0.22917 1.25-1.0167 1.25-1.75zm56.5-1.7775c0-0.97763 0.71406-2.797 1.5868-4.043 1.2604-1.7995 1.3371-2.5664 0.37254-3.7286-1.0478-1.2626-1.4709-1.1672-3.0868 0.69596-1.8314 2.1116-2.531 6.8612-1.2059 8.1864 1.2194 1.2194 2.3333 0.68906 2.3333-1.1108zm7.6869-3.9725c1.1531-2.6983 1.6567-5.5196 1.4282-8-0.18134-1.9685-2.1152-1.4576-2.1152 0.55887 0 0.99488-0.66069 2.6824-1.4682 3.75-1.8078 2.3902-1.9814 6.4411-0.27591 6.4411 0.69074 0 1.7847-1.2375 2.431-2.75zm13.669-1.5302c0.64791-2.5814-0.19279-6.7198-1.3651-6.7198-1.1102 0-1.9904 2.6895-1.9904 6.0818 0 3.5199 2.5123 3.9977 3.3555 0.63806zm220.64-2.5414c0-0.53044-0.675-1.2235-1.5-1.54-1.1306-0.43386-1.5 0.17302-1.5 2.4644 0 2.7023 0.16667 2.8734 1.5 1.54 0.825-0.825 1.5-1.934 1.5-2.4644zm15.379-0.32421c0.33197-1.6599 0.12101-3.9196-0.46881-5.0217-1.3816-2.5814-1.5155-2.3479-2.217 3.8657-0.46215 4.0936-0.30326 5.0894 0.74768 4.6861 0.73399-0.28166 1.6062-1.8702 1.9381-3.53zm-29.69-8.6042c-0.25153-0.9625-0.45733-0.175-0.45733 1.75s0.2058 2.7125 0.45733 1.75 0.25152-2.5375 0-3.5zm-251.53-10.477c1.2047-1.8983 1.0045-4.7734-0.33245-4.7734-1.8566 0-4.8287 3.1376-4.8287 5.0976 0 1.2976 0.59655 1.6727 2.1765 1.3684 1.1971-0.23054 2.5402-0.9922 2.9847-1.6926zm253.84-10.773c0-0.55-0.45-1-1-1s-1 0.45-1 1 0.45 1 1 1 1-0.45 1-1zm-8.6563-3.7937c-0.31734-1.2135-0.97449-2.2063-1.4603-2.2063-1.3664 0-1.0429 3.7764 0.36663 4.2798 1.6889 0.6032 1.759 0.47047 1.0937-2.0734zm11.656-5.2063c0-1.1-0.45-2-1-2s-1 0.9-1 2 0.45 2 1 2 1-0.9 1-2zm-2.6493-9.6731c-0.61057-5.195-2.6364-9.3269-4.573-9.3269-0.42777 0-0.77776 0.675-0.77776 1.5s0.42243 1.5 0.93873 1.5 1.2424 2.025 1.6135 4.5 1.0737 4.5 1.5613 4.5 0.88646 0.675 0.88646 1.5 0.22893 1.5 0.50874 1.5 0.20869-2.5529-0.15803-5.6731zm-280.68-7.5769c0.43124-0.6875 0.65451-2.0375 0.49616-3s0.19039-1.75 0.77496-1.75 1.0629-0.675 1.0629-1.5c0-1.7063-1.7876-1.9298-4-0.5-1 0.64625-1.0833 0.97448-0.25 0.98469 0.6875 8e-3 1.25 0.91531 1.25 2.0153s-0.45 2-1 2-1 0.675-1 1.5c0 1.8212 1.5872 1.97 2.666 0.25zm-4.0776-7.4949c-1.0924-1.0924-1.8415 0.64486-1.0572 2.4518 0.74368 1.7134 0.79759 1.7118 1.2119-0.0351 0.2385-1.0056 0.16886-2.093-0.15476-2.4167zm24.599-36.938c-0.72188-0.28887-1.5844-0.25335-1.9167 0.0789s0.25834 0.56864 1.3125 0.52522c1.165-0.048 1.4019-0.28494 0.60417-0.60416zm-18.188-8.3169c0-0.55-0.45-1-1-1s-1 0.45-1 1 0.45 1 1 1 1-0.45 1-1zm3.75-2.6303c2.1486-0.57581 3.2509-3.3697 1.3295-3.3697-0.5063 0-1.2345-1.4296-1.6183-3.1769-0.51867-2.3615-0.28239-3.4806 0.92054-4.3602 0.89007-0.65083 1.6183-1.6641 1.6183-2.2517s0.68103-1.7494 1.5134-2.5817 1.8107-3 2.1741-4.817c0.59533-2.9767 0.50811-3.151-0.88146-1.7614-0.8482 0.8482-1.8569 2.5337-2.2415 3.7455s-1.119 2.2034-1.6319 2.2034-0.93261 0.64286-0.93261 1.4286-0.61116 2.0397-1.3581 2.7867c-1.5178 1.5178-3.2515 12.792-1.9638 12.771 0.45208-8e-3 1.8345-0.285 3.072-0.61664zm65.75-18.37c0-0.73333-0.5625-1.5208-1.25-1.75-0.74359-0.24786-1.25 0.46111-1.25 1.75s0.50641 1.9979 1.25 1.75c0.6875-0.22917 1.25-1.0167 1.25-1.75zm17.5-5.3c0-0.715-0.53831-1.8383-1.1962-2.4962-0.92834-0.92834-0.78243-1.4988 0.65149-2.5474 1.4012-1.0246 1.5425-1.5398 0.58445-2.1319-0.73494-0.45422-1.6195-0.20438-2.115 0.59735-0.46845 0.75797-1.2056 1.417-1.6382 1.4645-4.7132 0.51758-5.9306 5.0317-1.5365 5.6974 4.99 0.75592 5.25 0.72702 5.25-0.58375zm-57.5-0.7c-0.33992-0.55-0.81648-1-1.059-1s-0.44098 0.45-0.44098 1 0.47656 1 1.059 1 0.7809-0.45 0.44098-1zm19.5-1.393c0-0.76616-0.7118-1.6662-1.5818-2-2.2452-0.86156-2.2883-0.82636-1.708 1.393 0.58981 2.2554 3.2898 2.7536 3.2898 0.60699zm17 0.39301c0-0.55-0.42344-1-0.94098-1s-1.2191 0.45-1.559 1 0.0835 1 0.94098 1 1.559-0.45 1.559-1zm39.662-2.25c-0.27741-0.6875-0.50439-0.125-0.50439 1.25s0.22698 1.9375 0.50439 1.25 0.27741-1.8125 0-2.5zm-78.662 1.25c0-0.55-0.42344-1-0.94098-1s-1.2191 0.45-1.559 1 0.0835 1 0.94098 1 1.559-0.45 1.559-1zm3.9847-5.25c8e-3 -0.4125-0.65969-0.75-1.4847-0.75-1.5313 0-2.0488 2.1178-0.81831 3.3484 0.67147 0.67147 2.2731-1.1356 2.303-2.5984zm106.02 2.25c0-0.55-0.45-1-1-1s-1 0.45-1 1 0.45 1 1 1 1-0.45 1-1zm-96.75-1.392c1.8798-1.4269 2.3975-4.608 0.75-4.608-0.55 0-1-1.125-1-2.5 0-2.7221-0.0848-2.7884-2.4182-1.893-1.0971 0.421-1.5818 1.902-1.5818 4.8333 0 5.693 0.97767 6.6517 4.25 4.1676zm105.75-2.6065c0-1.0696-1.0016-2.036-2.5-2.4121-1.375-0.34511-2.5-1.0689-2.5-1.6084s-1.35-0.98095-3-0.98095c-2.6813 0-3 0.32585-3 3.0674 0 2.6069 0.29866 2.9726 1.9895 2.4359 1.1204-0.35558 2.918 0.0189 4.1148 0.85718 2.5351 1.7757 4.8957 1.1204 4.8957-1.3591zm-36.5-1e-3c0.33992-0.55-0.0505-1-0.86766-1s-1.6935-0.7875-1.9474-1.75-0.4138-0.5125-0.35521 1c0.10456 2.6994 1.953 3.7197 3.1703 1.75zm58.5-2.5c0-0.275-0.9-1.4-2-2.5-2.014-2.014-2.5146-1.5045-1.393 1.4182 0.543 1.415 3.393 2.3237 3.393 1.0818zm3-5.393c0-1.0137-3.0458-2.3945-3.7433-1.6971-0.25136 0.25135-0.16039 0.93695 0.20214 1.5235 0.79781 1.2909 3.5411 1.4253 3.5411 0.17352zm-6-3.198c0-0.46539-0.675-0.58715-1.5-0.27057s-1.5 1.2576-1.5 2.0911c0 1.2337 0.27889 1.284 1.5 0.27057 0.825-0.68469 1.5-1.6257 1.5-2.0911zm-58.099-10.742c-0.49581-0.18334-0.90148-0.97084-0.90148-1.75s-0.1882-1.4167-0.41821-1.4167-1.13-0.27314-2-0.60699c-1.038-0.39831-1.5818-0.0545-1.5818 1 0 0.88385 0.675 1.607 1.5 1.607 0.843 0 1.5 0.89327 1.5 2.0394 0 1.6958 0.23614 1.8222 1.4015 0.75 0.77081-0.70919 0.99581-1.4394 0.5-1.6228zm-16.551 593.83c-0.33-1.65-0.99375-3-1.475-3s-0.87995-1.2375-0.88601-2.75c-0.0185-4.6267-1.1984-10.239-2.043-9.7166-0.4393 0.2715-1.1087-1.9874-1.4876-5.0199s-1.087-5.5135-1.5736-5.5135-0.88478-0.45-0.88478-1c0-1.8336 2.1796-1.0294 2.7102 1 0.28766 1.1 0.86868 2 1.2912 2s1.0774 2.475 1.4553 5.5 1.0537 5.5 1.5017 5.5 1.1182 2.025 1.4893 4.5 1.0972 4.5 1.6135 4.5 0.93873 1.575 0.93873 3.5c0 4.2814-1.8248 4.6258-2.65 0.5zm-18.35-12.5c0-1.375-0.45-2.5-1-2.5-1.5959 0-1.1551-4.7265 0.5-5.3616 1.2206-0.4684 1.5 0.44287 1.5 4.893 0 3.0077-0.225 5.4686-0.5 5.4686s-0.5-1.125-0.5-2.5zm-65.5-17.5c-0.99397-1.6083 0.42513-3 3.059-3 1.7743 0 2.441 0.54623 2.441 2s-0.66667 2-2.441 2c-1.3425 0-2.7191-0.45-3.059-1zm74.5-6.559c0-3.1337-0.35319-4.3407-1.1297-3.8608-0.67345 0.41621-0.95112 0.16237-0.6875-0.62848 0.24323-0.72969 0.9766-1.5048 1.6297-1.7225 0.82214-0.27405 1.1875 1.322 1.1875 5.1875 0 3.0708-0.225 5.5833-0.5 5.5833s-0.5-2.0516-0.5-4.559zm-72.704-4.2408c-13.128-4.3207-13.318-7.3791-0.22725-3.6551 7.0821 2.0146 9.9315 3.4847 9.9315 5.1239 0 1.7177-0.0418 1.7113-9.7042-1.4688zm22.704-5.1084c0-2.1552-9.0894-9.9858-14.55-12.535-3.2723-1.5277-7.1633-3.9142-8.6467-5.3034-2.2484-2.1057-3.3295-2.4252-6.5-1.9212-2.0917 0.33252-4.4758 0.18662-5.2982-0.32423-1.2809-0.79571-1.2092-1.1449 0.5-2.4365 2.5259-1.9088 1.7538-1.9786 10.341 0.93558 6.9321 2.3526 11.042 4.6177 15.655 8.6269 6.203 5.392 7.2855 6.5684 7.9284 8.6162 0.3885 1.2375 1.126 2.25 1.639 2.25s0.93261 0.675 0.93261 1.5-0.45 1.5-1 1.5-1-0.4087-1-0.90822zm-13.768-2.5409c-1.2472-0.68915-2.5382-1.5235-2.8689-1.8542-0.97422-0.97422 7.0455 1.4022 8.0866 2.3962 1.4132 1.3493-2.5375 0.93891-5.2177-0.54202zm20.501-2.8212c-2.1424-2.6404-2.2652-4.871-0.22492-4.088 1.412 0.54184 3.1971 4.9859 2.345 5.838-0.2126 0.2126-1.1666-0.57488-2.1201-1.75zm-30.734-3.2297c-1.375-0.78602-4.1875-1.4451-6.25-1.4646-2.784-0.0263-3.75-0.45503-3.75-1.6643 0-1.3824 0.79427-1.5286 5.25-0.96628 3.3294 0.42017 5.8448 1.3663 6.8759 2.5863 0.89422 1.0581 1.9067 1.6429 2.25 1.2996s0.62414-0.0991 0.62414 0.54252c0 1.5492-1.9322 1.4204-5-0.33333zm-34-0.88499c0-1.688 4.6933-4.9226 5.9846-4.1246 1.0673 0.65965 0.17529 3.6576-1.4116 4.7442-1.7935 1.2281-4.5729 0.85144-4.5729-0.61968zm56.592-5.115c-0.90094-1.375-2.237-2.5-2.969-2.5s-2.5216-1.1035-3.977-2.4522-2.646-2.2487-2.646-2-0.83683-0.33525-1.8596-1.2978c-2.2539-2.121-8.8612-7.4594-10.441-8.4356-0.62794-0.38809-0.85906-0.98826-0.5136-1.3337 0.89835-0.89835 6.9519 2.3416 9.314 4.9849 1.1 1.231 3.4625 2.9914 5.25 3.912s3.25 2.006 3.25 2.412 1.8 1.8507 4 3.2104c2.2206 1.3724 4 3.2568 4 4.2361 0 2.5061-1.4953 2.1832-3.408-0.73607zm-2.9807-22.377c-2.1408-2.3656-0.80762-3.4709 1.846-1.5305 1.3153 0.96177 1.6085 1.7418 0.91534 2.435s-1.5778 0.40344-2.7614-0.90447zm270.05-54.848c-2.6588-0.39821-2.7221-0.51341-1-1.8184 1.9424-1.4718 5.5569-1.9052 6.6633-0.79884 0.71146 0.71147-1.1655 3.4385-2.1971 3.1922-0.34516-0.0824-1.9049-0.34115-3.4662-0.57497zm-42.462-102.35c0.42168-5.8297 1.8465-8.3401 4.3006-7.5772 1.6821 0.5229 1.7233 5.4997 0.0652 7.8669-0.86084 1.2291-1.5652 3.0346-1.5652 4.0122s-0.72909 1.7775-1.6202 1.7775c-1.3641 0-1.5507-0.96078-1.1804-6.0795zm-81.199-41.649c-2.1299-0.81077-2.9671-2.3594-2.9847-5.5211-0.0114-2.0547 0.47232-2.75 1.9133-2.75 2.8078 0 5.0714 2.7099 5.0714 6.0714 0 2.8926-0.89161 3.3829-4 2.1997zm-9.0153-4.5211c-0.0124-1.8194-0.20082-1.963-0.98469-0.75-0.71124 1.1006-1.0043 0.30168-1.1007-3-0.0722-2.475-0.32973-3.7508-0.57224-2.8351-0.49338 1.8629-3.3271 3.3489-3.3271 1.7447 0-0.5652-0.45-0.74952-1-0.4096s-1-0.2944-1-1.4096c0-1.3915-0.4706-1.847-1.5-1.452-0.825 0.31659-1.5 1.2025-1.5 1.9686s-0.70458 1.393-1.5657 1.393c-2.4936 0-5.4343-1.9356-5.4343-3.577 0-1.9722-2.9366-5.002-5.6576-5.837-2.6116-0.80146-3.3019-2.3469-2.6265-5.88 0.48618-2.5433 0.74869-2.649 5.647-2.2738 2.8254 0.21642 5.4741 0.43271 5.886 0.48065s2.6036 1.8872 4.8706 4.0872 4.7425 4 5.5011 4 1.3794 0.70329 1.3794 1.5629c0 0.88958 0.75389 1.4862 1.75 1.3848 0.9625-0.0979 2.2513-0.12619 2.8641-0.0629 1.3261 0.13706 2.5381 7.8173 1.7245 10.928-0.75166 2.8744-3.3343 2.8258-3.3539-0.0631zm-60.985-18.104c0-1.6592-4.0271-4.5104-7.0146-4.9663-1.1447-0.1747-3.0722-1.1867-4.2834-2.2488s-3.4396-2.472-4.952-3.1329c-2.5601-1.1188-2.75-1.6152-2.75-7.191 0-3.2941 0.39784-6.2351 0.88409-6.5357s3.4737 0.75984 6.6388 2.3563 6.4798 2.675 7.3659 2.3967c2.4611-0.77296 6.5509-2.7476 7.1112-3.4335 0.93727-1.1473 6.896-3.8911 8.4503-3.8911 0.85231 0 1.5497 0.45 1.5497 1s-0.34329 1-0.76287 1-1.2071 0.97569-1.75 2.1682-1.8871 2.655-2.9871 3.25-2.225 1.3544-2.5 1.6876c-0.275 0.33316-2.2868 0.93469-4.4707 1.3367-3.4495 0.63502-3.7237 0.86921-2.0888 1.7841 1.339 0.74934 2.4085 0.72432 3.7072-0.0867 1.0039-0.62694 2.4061-1.1399 3.116-1.1399s2.7406-1.3242 4.5126-2.9428c1.952-1.7829 4.0106-2.7909 5.2229-2.5574 1.5568 0.29982 2.001-0.15255 2.001-2.0382 0-5.0028 8.3667-4.4502 13.558 0.89564 3.4173 3.5186 4.6834 7.0018 3.7887 10.423-0.68336 2.6132-2.5681 2.8561-4.8049 0.61929-1.5587-1.5587-14.134-3.7697-15.752-2.7695-0.4344 0.26847-0.78982 1.1631-0.78982 1.9881s-0.45 1.2219-1 0.88197c-0.61633-0.38091-1 1.323-1 4.441 0 3.8763-0.35801 5.059-1.5314 5.059-0.84227 0-1.7555 0.58391-2.0293 1.2976-0.71401 1.8607-7.4393 2.176-7.4393 0.34875zm86-2.6974c0-0.57806-1.4625-1.6622-3.25-2.4092-5.24-2.1897-8.75-5.444-8.75-8.1124 0-1.3799-0.58685-2.4274-1.3599-2.4274-0.74796 0-2.2105-1.1749-3.25-2.6108-2.9077-4.0165-4.409-5.3892-5.8941-5.3892-0.74865 0-1.6759-0.99151-2.0605-2.2034-0.9464-2.9818-2.4375-4.3293-5.6954-5.147-2.0657-0.51846-2.7401-1.2984-2.7401-3.1687 0-2.0899-0.47281-2.481-3-2.481-2 0-3-0.5-3-1.5 0-1.079 1.1036-1.5 3.9326-1.5 3.0544 0 4.0744 0.44665 4.5674 2 0.38256 1.2053 1.513 2 2.8452 2 2.5202 0 5.6474 3.1776 5.6702 5.7614 0.012 1.3571 0.20399 1.4408 0.87516 0.38156 1.152-1.818 5.1048-0.52656 5.1248 1.6744 0.0226 2.4813 1.4327 4.2811 3.5848 4.5754 1.0449 0.14291 2.3441 1.238 2.887 2.4335s1.3304 2.1737 1.75 2.1737 0.76287 0.91114 0.76287 2.0248c0 1.2738 0.98994 2.4011 2.6693 3.0396 2.3775 0.90392 9.3307 7.2964 9.3307 8.5783 0 0.92473-2.8465 3.3574-3.9286 3.3574-0.58929 0-1.0714-0.47296-1.0714-1.051zm-155-6.449c0-0.825 0.41425-1.5 0.92054-1.5s1.2171-1.35 1.5795-3c0.37206-1.694 1.3067-3 2.1468-3 1.7377 0 0.95312 3.5429-1.2788 5.7748-0.75244 0.75244-1.3681 1.7859-1.3681 2.2966s-0.45 0.92857-1 0.92857-1-0.675-1-1.5zm254-3.5714c0-2.2393 0.5625-4.6516 1.25-5.3606s2.491-2.7019 4.0077-4.4286 3.3989-3.1394 4.1826-3.1394 1.7105-0.9 2.0597-2 1.0341-2 1.5221-2 1.1828-1.575 1.5439-3.5 1.0077-3.5 1.4369-3.5 1.0763-1.1794 1.4381-2.6208c1.093-4.355 5.559-7.4714 5.559-3.8792 0 0.825-0.39075 1.5-0.86833 1.5s-1.1185 1.8648-1.4242 4.1441-0.97932 4.4168-1.4969 4.75-1.2872 1.7135-1.7103 3.0673-1.9462 3.6821-3.3848 5.1742c-3.5473 3.6792-6.1155 7.092-6.1155 8.1268 0 0.47059-0.402 0.60718-0.89333 0.30352s-1.1885 0.62414-1.5494 2.0618c-0.71981 2.868-2.8109 5.3723-4.4859 5.3723-0.58929 0-1.0714-1.8321-1.0714-4.0714zm-144.57-4.1786c0.37977-2.8875 1.1128-5.6775 1.6288-6.2s0.93833-2.004 0.93833-3.2922c0-2.1598-0.49919-3.0689-3.6181-6.5891-0.61494-0.69407-1.4196-2.2119-1.7881-3.3729s-1.3279-2.3634-2.1319-2.672-1.4619-1.2429-1.4619-2.0763c0-1.2481 0.74954-1.1293 4.25 0.67379 2.3375 1.204 4.4027 2.5548 4.5893 3.0018s1.0866 1.5632 2 2.4805c2.1477 2.1569 1.9786 13.498-0.26546 17.802-0.85883 1.6471-1.5643 3.5572-1.5677 4.2447s-0.73913 1.25-1.635 1.25c-1.386 0-1.5259-0.78283-0.93833-5.25zm135-9.0617c-0.31194-0.8129-0.42467-3.2091-0.25052-5.3248 0.22729-2.7615 0.82594-3.9434 2.1218-4.1891 1.5843-0.30039 1.7678 0.30073 1.5 4.9131-0.2979 5.1302-2.1817 7.701-3.3713 4.6009zm9.5661-4.7146c0-3.4364-0.6569-4.6832-4.4834-8.5097-2.4659-2.4659-4.7639-5.6009-5.1067-6.9668s-1.0026-2.249-1.4661-1.9625c-2.4988 1.5443-2.148-12.409 0.37842-15.056 0.64775-0.67857 1.8527-2.241 2.6777-3.472 3.2074-4.786 4.9046-6.573 7.8954-8.3133 3.0584-1.7796 3.1046-1.7754 3.1046 0.28139 0 1.1484-0.66276 2.3422-1.4728 2.6531s-1.7601 2.0967-2.1113 3.9686-1.0384 3.4034-1.5272 3.4034-0.88871 0.70156-0.88871 1.559 0.45 1.2809 1 0.94098c0.56083-0.34661 1 0.43861 1 1.788 0 1.3233 0.9 3.4437 2 4.712s2 2.9122 2 3.653 0.45 1.347 1 1.347c0.60815 0 1 4.4643 1 11.393 0 9.4664-0.26748 11.496-1.5818 12-2.9224 1.1214-3.4182 0.62544-3.4182-3.4193zm26.728-24.691c-0.29244-2.5945-1.026-4.882-1.6301-5.0833s-1.0984-1.3621-1.0984-2.5794c0-2.2312-2.0231-5.4896-5.25-8.4559-0.9625-0.88475-1.75-2.2158-1.75-2.9578 0-1.6752-1.8707-3.5796-4.4935-4.5743-1.919-0.72784-1.9003-0.82767 0.5-2.6718 3.0366-2.333 6.7946-2.4882 9.771-0.40349 1.2224 0.85619 2.2294 1.1937 2.2378 0.75 0.047-2.4752 1.9566 2.7222 1.9694 5.36 8e-3 1.7417 0.44722 3.3167 0.97511 3.5 1.2121 0.42096 2.5315 15.74 1.6561 19.228-1.0121 4.0326-2.3012 3.0899-2.8875-2.1114zm-204.35-17.408c0.34375-1.7188 0.625-4.1938 0.625-5.5 0-1.4444 0.58772-2.375 1.5-2.375 0.825 0 1.5 0.675 1.5 1.5s0.45 1.5 1 1.5 1 0.675 1 1.5-0.45 1.5-1 1.5-1 1.125-1 2.5c0 1.8824-0.525 2.5-2.125 2.5-1.8467 0-2.0431-0.40931-1.5-3.125zm-77.59-8.375c-2.0235-1.375-4.153-2.5-4.7321-2.5-1.7964 0-1.1777-1.2103 2.1271-4.1608 4.0703-3.634 5.8199-3.6316 5.8199 8e-3 0 1.5658 0.9 3.8847 2 5.153s2 2.6872 2 3.153c0 1.6391-3.5756 0.81987-7.2148-1.653zm158.21-4.5c0-1.1111 0.66667-2 1.5-2 0.825 0 1.5-0.36537 1.5-0.81194 0-1.5389 5.7356-5.0478 9.3636-5.7284 2.9669-0.5566 3.6364-0.38376 3.6364 0.93889 0 0.89159-0.95022 2.4042-2.1116 3.3613s-2.6628 2.2612-3.3364 2.898c-1.0867 1.0272-7.8278 3.3219-9.802 3.3366-0.4125 3e-3 -0.75-0.89442-0.75-1.9944zm-78.75 0.33772c-3.0504-1.2309-0.62657-5.6977 2.5-4.6071 0.6875 0.23982 1.25 1.5235 1.25 2.8527 0 2.3231-1.0839 2.8302-3.75 1.7544zm0.75-8.8377c0-0.825-0.5625-1.5069-1.25-1.5153-0.83874-0.0103-0.76166-0.32409 0.23428-0.95381 0.94776-0.59927 1.4459-2.401 1.3782-4.9847-0.10754-4.1013 0.652-4.7453 4.0558-3.4392 1.1663 0.44756 1.5818 1.9953 1.5818 5.893s-0.41545 5.4454-1.5818 5.893c-2.6799 1.0284-4.4182 0.67703-4.4182-0.89301zm35.25 0.83772c-1.9814-0.7995-1.4537-3.1383 0.87485-3.8773s4.0286 0.97626 3.1756 3.1989c-0.52421 1.3661-1.8118 1.5817-4.0505 0.6784zm33.75-1.7663c0-1.6211 2.2351-4.0917 5.078-5.6132 1.1794-0.63119 1.9161-2.0776 1.9067-3.7434-0.0216-3.8251-1.188-5.2359-3.7705-4.5606-1.5725 0.41122-2.2187 1.3422-2.2295 3.2124-8e-3 1.4484-0.34592 3.1285-0.75 3.7337-2.7372 4.0993-10.75 3.179-11.891-1.3657-0.6802-2.7101-2.567-5.2346-3.9124-5.2346-0.39115 0-1.255-0.74375-1.9197-1.6528-1.5675-2.1437-3.512-0.90933-3.512 2.2295 0 2.37 6.0522 9.4233 8.0858 9.4233 0.50278 0 0.91415 0.9 0.91415 2 0 2.5661-3.9471 2.7213-6.3554 0.25-3.7564-3.8546-5.6446-6.643-5.6446-8.3356 0-3.367-3.6102-3.2233-7.3504 0.2925-8.6749 8.1545-10.944 9.8941-12.252 9.3924-1.7363-0.66627-1.8286-4.0076-0.14809-5.3614 0.6875-0.55384 2.7125-1.3197 4.5-1.7019s3.25-1.2824 3.25-2.0005 1.2375-2.1148 2.75-3.104 3.3756-2.4219 4.1403-3.1839c3.7143-3.7014 5.9196-4.2488 19.37-4.8083 8.0093-0.33312 15.13-0.14957 17.286 0.44554 5.7095 1.5765 13.286 7.1898 13.646 10.11 0.23322 1.8901 1.0325 2.6195 3.2957 3.0077 1.7788 0.3051 3.1238 1.2187 3.3239 2.2578 0.43782 2.2735-2.3671 3.3267-4.1395 1.5543-0.75855-0.75855-3.214-2.2066-5.4565-3.2178l-4.0774-1.8386-5.8814 4.6207c-6.1053 4.7966-8.2569 5.6284-8.2569 3.1921zm34-8.4822c0-0.50094-2.0042-1.881-4.4538-3.0669s-4.7299-3.026-5.0674-4.0892-1.2582-1.9331-2.0462-1.9331-1.4326-0.48214-1.4326-1.0714c0-4.8837-12.684-8.1943-32.719-8.5401l-15.219-0.26265-3.1521 2.6871c-1.7336 1.4779-3.6602 3.2813-4.2811 4.0075s-1.973 2.0762-3.0045 3c-6.8789 6.1606-8.2056 7.1796-9.3474 7.1796-0.70243 0-1.2771 0.45-1.2771 1s-1.6732 1-3.7182 1c-2.7644 0-4.2911-0.66676-5.9518-2.5994-1.2285-1.4297-2.8178-2.3905-3.5318-2.1351-2.0071 0.7178-4.7982-1.1294-4.7982-3.1756 0-1.223 0.95613-2.031 2.8521-2.4102 1.8237-0.36475 6.5917-4.2247 13.223-10.705 5.7042-5.574 10.533-9.6486 10.731-9.0546 0.54206 1.6262 2.8962 1.2969 3.5864-0.50173 1.2048-3.1396 0.6283-4.4182-1.9919-4.4182-4.6702 0-8.9234 2.7895-10.825 7.0998-0.98097 2.2234-2.4119 4.2837-3.1798 4.5784s-1.3962 0.91446-1.3962 1.3773c0 1.296-4.5861 5.9445-5.8647 5.9445-1.8301 0-1.306-2.7631 0.91689-4.834 1.668-1.554 1.7798-2.0165 0.59699-2.4704-0.87273-0.3349-2.3545 0.61497-3.7018 2.373-2.4383 3.1816-4.9474 3.8713-4.9474 1.36 0-1.8732-1.523-3.4244-5.25-5.3476-2.6475-1.3661-3.8117-4.081-1.75-4.081 0.55 0 1-0.64286 1-1.4286 0-2.1133 2.8379-4.5708 4.5289-3.922 1.0629 0.40788 1.4711-0.1588 1.4711-2.0425 0-2.7086 1.7724-3.4346 3.6938-1.5132 1.5231 1.5231 9.3539-2.0506 13.269-6.0555 1.6706-1.709 3.0444-2.7543 3.0528-2.3228s0.39357 0.18786 0.85588-0.54135 2.7054-1.576 4.9847-1.8817c4.7709-0.63991 5.4812 0.77151 1.8941 3.7639l-2.25 1.877 2.703 0.0333c1.4866 0.0183 3.9259 0.59048 5.4206 1.2715 2.1604 0.98432 2.8023 0.98432 3.1304 0 0.22701-0.68106 1.5002-1.2383 2.8294-1.2383s2.4167-0.45857 2.4167-1.019c0-0.57207-1.0371-0.75875-2.3645-0.42561-1.6536 0.41502-2.5534 0.10105-2.9929-1.0443-0.34566-0.90078-1.0816-1.3577-1.6355-1.0154s-1.0071-0.0488-1.0071-0.86923c0-3.2587 11.603-3.5837 16.154-0.45246 3.3325 2.2926 8.1317 2.34 11.529 0.11391 3.0545-2.0014 9.2818-1.8418 10.927 0.28004 0.64865 0.8367 2.8454 1.4321 5.2837 1.4321 3.3468 0 4.7724 0.61271 7.1971 3.0931 3.8118 3.8994 3.6375 7.266-0.40011 7.729-1.545 0.17717-3.0872 1.0772-3.4271 2s-0.92341 1.9029-1.2967 2.1779-0.98899 2.1875-1.3682 4.25c-0.61339 3.3358-0.46364 3.75 1.3558 3.75 1.1514 0 2.0453-0.65559 2.0453-1.5 0-0.825 0.39752-1.5 0.88337-1.5s1.1187-0.9 1.4064-2 1.0151-2 1.6166-2c1.3837 0 1.446 3.7159 0.07 4.1745-0.56296 0.18765-1.2983 2.0342-1.6341 4.1034-0.51511 3.1743-0.3611 3.6665 0.98551 3.1498 0.87782-0.33685 1.8685-1.4709 2.2015-2.5201 0.69545-2.1912 3.4707-2.6038 3.4707-0.51603 0 0.76538 1.1053 1.669 2.4562 2.0081 1.8517 0.46475 2.6238 1.5096 3.137 4.2454 0.42551 2.2682 2.108 5.0562 4.4869 7.435 3.643 3.643 4.3015 4.8937 4.0384 7.6699-0.1342 1.4158-5.1185 1.7461-5.1185 0.33921zm-82-6.1962c0-1.4376-1.7351-1.0257-2.3421 0.55606-0.37166 0.96852-0.0755 1.2647 0.89301 0.89301 0.79699-0.30583 1.4491-0.95791 1.4491-1.4491zm-4.5818-2.5c0.86999-0.33384 1.5818-1.473 1.5818-2.5314s0.7875-2.2226 1.75-2.5871c1.8775-0.71095 4.25-2.7733 4.25-3.6944 0-0.30951 1.2892-1.8042 2.8648-3.3214s3.2155-3.8802 3.6442-5.2509c0.73039-2.3353 0.66021-2.3982-1.1148-1-3.8008 2.994-10.394 9.8603-10.394 10.824 0 0.54453-1.35 2.126-3 3.5144-4.1792 3.5166-3.9512 5.7232 0.41821 4.0465zm25.582-12.24c0-0.46584 0.9-1.8847 2-3.153s2-2.9122 2-3.653 0.45-1.347 1-1.347 1-1.125 1-2.5-0.52236-2.5-1.1608-2.5c-1.6482 0-6.8027 6.0064-7.484 8.7209-0.31461 1.2535-0.97324 2.2791-1.4636 2.2791s-0.89159 0.675-0.89159 1.5c0 0.93333 0.94444 1.5 2.5 1.5 1.375 0 2.5-0.38115 2.5-0.84699zm17.133-4.306c1.027-1.1842 1.8673-2.9842 1.8673-4s0.45-1.847 1-1.847 1-1.6299 1-3.622c0-3.5307-0.0566-3.5844-2.247-2.13-1.2358 0.82057-2.6435 2.8744-3.1281 4.5641-1.1311 3.9439-3.625 5.0835-3.625 1.6565 0-1.3577-0.39825-2.4686-0.88499-2.4686-1.3955 0-4.115 4.7053-4.115 7.1198 0 2.0585 0.10998 2.0906 1.8287 0.53519 2.4001-2.1721 3.1713-2.0882 3.1713 0.34501 0 2.6596 2.7648 2.5772 5.1327-0.15301zm-22.603-1.9394c0.333-1.0492 0.98111-1.9076 1.4402-1.9076s1.3054-1.35 1.8806-3 0.84935-3 0.60925-3c-1.1179 0-4.4594 3.592-4.4594 4.7937 0 0.74205-0.675 2.0242-1.5 2.8492s-1.5 1.9037-1.5 2.3972c0 1.5923 2.904-0.16238 3.5293-2.1324zm31.899 1.521c0.86429-0.86428 1.5714-2.0214 1.5714-2.5714s0.675-1.675 1.5-2.5c1.9868-1.9868 2.0156-7.2558 0.0381-6.9656-1.8309 0.26872-5.5381 4.4601-5.5381 6.2615 0 0.74084-0.39754 1.347-0.88342 1.347-0.99827 0-2.1127 4.6705-1.3068 5.4765 0.98898 0.98898 3.0493 0.52152 4.6187-1.0479zm8.3829-0.46753c1.2037-1.1214 2.1886-2.6964 2.1886-3.5s0.45-1.461 1-1.461 1-0.57499 1-1.2778 0.95086-2.0919 2.113-3.087c1.3348-1.1429 1.7631-2.1592 1.1628-2.7594-1.3434-1.3434-6.2759 0.69963-6.2759 2.5994 0 0.83861-0.46412 1.5248-1.0314 1.5248s-1.3296 0.7875-1.694 1.75-1.2503 2.3446-1.9686 3.0714c-1.6917 1.7117-1.688 5.1786 5e-3 5.1786 0.72129 0 2.2963-0.91753 3.5-2.039zm-24.311-15.961c-0.33992-0.55-0.81648-1-1.059-1s-0.44098 0.45-0.44098 1 0.47656 1 1.059 1 0.7809-0.45 0.44098-1zm-136.96 36.069c-0.31644-0.512-0.11799-1.2136 0.44098-1.559s1.0163 0.0734 1.0163 0.9309c0 1.7565-0.60006 2.0152-1.4573 0.62812zm-12.543-59.569c0-1.375 0.45-2.5 1-2.5s1-0.45857 1-1.019c0-0.58765-1.0584-0.75342-2.5-0.39159-1.5404 0.38661-2.5 0.20201-2.5-0.48095 0-0.60963 0.44143-1.1084 0.98095-1.1084s1.237-1.0204 1.55-2.2674c0.32814-1.3074 2.8744-3.7419 6.0139-5.75 2.9946-1.9154 5.4471-3.8201 5.45-4.2326s0.68016-0.75 1.5052-0.75c2.6944 0 1.5761 3.5232-1.75 5.5137-1.7875 1.0697-3.5875 1.8417-4 1.7156s-0.75 0.67068-0.75 1.7707c0 2.2829 1.5128 2.6512 2.7003 0.65741 1.5322-2.5725 5.7237-4.6349 7.3094-3.5967 1.2818 0.83932 1.2269 1.1305-0.39227 2.0814-1.0354 0.60807-4.5933 3.7498-7.9064 6.9817s-6.4034 5.8761-6.8674 5.8761-0.84357-1.125-0.84357-2.5zm0-15.635c0-0.62443 1.125-2.1779 2.5-3.4522 1.8656-1.729 2.5-3.3342 2.5-6.3257 0-4.3858 1.6461-6.5041 7.5068-9.6603 4.609-2.4821 5.5788-1.074 1.6662 2.4192-3.2406 2.8932-4.768 6.723-1.6488 4.1344 0.83829-0.69572 1.7794-1.0097 2.0913-0.6978 0.90976 0.90975-0.6653 4.8051-1.6875 4.1734-0.5104-0.31544-0.928 0.0498-0.928 0.81162s-1.6205 2.7009-3.6011 4.309-4.1985 3.4864-4.9286 4.1739c-1.6557 1.5591-3.4703 1.6191-3.4703 0.11467zm9.75-24.527c0.6875-0.27741 1.25-1.0634 1.25-1.7467 0-2.1942 4.8923-6.0987 6.1126-4.8784 1.7954 1.7954 0.0923 4.8115-3.4377 6.088-3.144 1.1369-6.5748 1.6064-3.9249 0.53713zm4.7229-9.3815c-0.86987-1.4075 1.5993-4.284 2.7175-3.1658 0.98801 0.98801 0.0403 4.2096-1.2384 4.2096-0.4587 0-1.1243-0.46971-1.4791-1.0438zm193.86-14.523c-0.95665-2.493 1.0922-3.807 3.5463-2.2743 1.1648 0.72746 2.1179 1.8894 2.1179 2.5821 0 1.8208-4.9506 1.5518-5.6642-0.30777zm-106.32-48.172c-0.81518-0.31997-2.0527-1.1523-2.75-1.8496-1.4101-1.4101-1.7206-4.4107-0.45642-4.4107 1.4212 0 5.1886 4.0218 5.1886 5.539 0 0.80357-0.1125 1.4255-0.25 1.3821s-0.91696-0.34074-1.7321-0.66071zm49.37-6.6921c-0.30218-0.78747-1.3006-1.4234-2.2186-1.4131-5.3742 0.0602-12.169-2.4573-12.169-4.5086 0-0.96578 6.7716 0.15017 10.112 1.6665 1.8633 0.84577 4.8504 1.8321 6.6378 2.1918 1.8345 0.36917 3.25 1.2727 3.25 2.0746 0 1.882-4.8894 1.8722-5.6122-0.0112zm-90.798-11.262c-4.0933-0.66121-7.5899-3.1877-7.5899-5.4842 0-1.446 0.57967-1.8672 2.25-1.635 1.8294 0.25438 2.1915-0.10771 1.9371-1.9371s0.16619-2.25 2.25-2.25c2.1994 0 2.5629-0.43967 2.5629-3.1007v-3.1007l4.75 0.61927c2.6125 0.3406 7.3311 0.77903 10.486 0.97428 5.8577 0.36255 14.691 4.028 18.694 7.7569 1.0927 1.018 2.3656 1.8509 2.8286 1.8509 1.4716 0 3.1036 2.1966 2.6024 3.5027-0.52377 1.3649-5.0446 0.69924-10.446-1.5382-2.221-0.91996-3.2503-0.93048-4.3182-0.0442-1.2517 1.0388-2.817 1.6252-10.096 3.782-2.7404 0.81199-12.362 1.1773-15.91 0.60406zm44.035-5.5103c-3.4835-1.2674-6.625-4.253-6.625-6.296 0-1.9851 0.9795-1.8627 4 0.5 1.6896 1.3217 4.1207 1.973 7.5 2.0096 4.9584 0.0536 8.5 1.658 8.5 3.8507 0 1.4367-9.3735 1.3917-13.375-0.0642z"/>
</svg>
