<?xml version="1.0" encoding="utf-8"?>
<!-- Generator: Adobe Illustrator 22.1.0, SVG Export Plug-In . SVG Version: 6.00 Build 0)  -->
<svg version="1.1"
	 id="svg2" inkscape:export-filename="/Users/olivier/Desktop/Blason Rouge/Blason_Vide_3D.png" inkscape:export-xdpi="144" inkscape:export-ydpi="144" inkscape:version="0.48.2 r9819" sodipodi:docname="Elephant.svg" sodipodi:version="0.32" xmlns:cc="http://creativecommons.org/ns#" xmlns:dc="http://purl.org/dc/elements/1.1/" xmlns:inkscape="http://www.inkscape.org/namespaces/inkscape" xmlns:rdf="http://www.w3.org/1999/02/22-rdf-syntax-ns#" xmlns:sodipodi="http://sodipodi.sourceforge.net/DTD/sodipodi-0.dtd" xmlns:svg="http://www.w3.org/2000/svg"
	 xmlns="http://www.w3.org/2000/svg" xmlns:xlink="http://www.w3.org/1999/xlink" x="0px" y="0px" viewBox="0 0 600 660"
	 style="enable-background:new 0 0 600 660;" xml:space="preserve">
<style type="text/css">
	.st0{fill:none;stroke:#000000;stroke-width:6.5263;}
</style>
<sodipodi:namedview  bordercolor="#666666" borderopacity="1.0" gridtolerance="50" guidetolerance="10.0" height="660px" id="base" inkscape:current-layer="layer4" inkscape:cx="340.16997" inkscape:cy="414.22073" inkscape:grid-bbox="false" inkscape:grid-points="true" inkscape:guide-bbox="true" inkscape:object-paths="false" inkscape:pageopacity="0.0" inkscape:pageshadow="2" inkscape:showpageshadow="true" inkscape:window-height="746" inkscape:window-maximized="0" inkscape:window-width="1024" inkscape:window-x="23" inkscape:window-y="-17" inkscape:zoom="0.36970694" objecttolerance="10.0" pagecolor="#ffffff" showborder="true" showgrid="false" showguides="true">
	</sodipodi:namedview>
<desc  id="desc4">Flag of Canton of Valais (Wallis)</desc>
<g id="layer4" inkscape:groupmode="layer" inkscape:label="Meubles" sodipodi:insensitive="true">
	<g id="g46013" transform="matrix(0.68687858,0,0,0.60947612,-6.3095457,43.716649)">
		<g id="g41120">
			
				<path id="path20646" inkscape:connector-curvature="0" sodipodi:nodetypes="cccccccccccccccccccccccccccccccccccccccccccccsccccccccccccsccc" class="st0" d="
				M182.2,685.9c8.7,4.2,14.3,11.6,17.3,21.6c-19.1,20-40,22.3-64.8-15.1l19.4-147.6l4.3-28.1c1.4-11.4,2.9-20.3,4.3-25.9
				c-1-10.1-2.4-20.2,2.2-30.2c-4.1-12.2-1.4-24.5,0-36.7c0.7-4.9,1.4-11,2.2-21.6c0.3-8.6-1.4-17.3,4.3-25.9
				c2.2-8.1,4.3-16.9,6.5-19.4c-3.5-7.4-3.7-14.9,4.3-22.3l2.2-15.1c7.9-23.1,10.1-43.2,6.5-60.5c-2.2-6.5,0.8-13,4.3-19.4
				c20.5-57.3,44-111.8,149.1-90c7.8-4.1,20.3-5.9,39.6-4.3c8.4-3.3,16.3-7.8,30.2,0c27.2-9.3,90.7,26.9,138.3,43.2
				C669.8,153.7,722,208,777.9,257.4c63.5,72.4,45.1,115.5,30.2,159.9C789.5,474.1,769,528,739,567.8l-21.6,82.1
				c-0.5,12.2-0.4,24.5-6.5,36.7c5.6,7.4,12.8,13.1,13,25.9l-6.5,4.3l-10.8,2.2h-21.6l-17.3,2.2l-10.8-2.2l-8.6-2.2l-13-2.2
				c0.2-5.8,4.9-11.5,10.8-17.3c5.8-4,11.5-21.8,17.3-36.7l13-54v-77.8c-19.5-13-4-42.9,6.5-51.9c-8.4,6.9-15.3,17-15.1,41.1
				c14.3,5.6-64.5,12.3-37.3-8.6c-33.9,10.3-97-14.4-138.8-21.6c-15.2-10.1-13.5,5.4-18.4,10.8c-6.3,25.6-27.2,51.1-48.3,68.2
				c-25.5,41.9-23.5,31.7-44.6,55.2c-0.4,7.9-13.9,46.4-16.9,54.3c4.8,17.1,3,29.4,3.2,38.2c-4.7-0.8-42.7-3.4-39.1-7.2
				c2.6-2.7-31.6-6.7-45.5-19.1c2-10.2,12.3-22.7,19.9-27.3c0.2-7.2,10.6-27.1,16.2-34.3c11.3-14.9,9.5-1.5,15.4-33.8
				c16.6-36.7,18.7-45.8,31-81.4l-4.3-79.9l-21.6-45.4l-34.6-25.9l-13,6.5l-13.9,29.9c-9.7,6.1-18.5,21.3-48,1.1
				c11.8-5,25.8-11.2,50.4-0.9c-3.5-0.4,0.2-0.3-22.8,9.8c-11.5,5.1-14.6,14.9-21.8,24.9L170,674.4
				C172,686.5,174.5,696.5,182.2,685.9L182.2,685.9z"/>
			<path id="path20648" inkscape:connector-curvature="0" sodipodi:nodetypes="ccccccccccc" class="st0" d="M446.1,152.8
				c35.5,26.6,82.4,41.8,94.7,91.7L528.6,275l-27.5,24.4c-29.7,19.4-37.2,27.7-51.9,39.7c-10.2-4.1-12.2,0-6.1,12.2l-70.3,36.7
				c-22,15.5-26.8-14.7-24.4-64.2l18.3-70.3l3.1-27.5l9.2-39.7"/>
			<g id="g24552" transform="translate(388.9275,30.24992)">
				<g id="g23571" transform="translate(-265.6136,17.59278)">
					
						<path id="path22600" sodipodi:cx="176.27779" sodipodi:cy="231.60417" sodipodi:rx="7.0223017" sodipodi:ry="5.9419479" sodipodi:type="arc" class="st0" d="
						M183.3,231.6c0,3.3-3.1,5.9-7,5.9c-3.9,0-7-2.7-7-5.9c0-3.3,3.1-5.9,7-5.9C180.2,225.7,183.3,228.3,183.3,231.6z"/>
					
						<path id="path21629" sodipodi:cx="175.19743" sodipodi:cy="214.31851" sodipodi:rx="1.6205312" sodipodi:ry="1.6205312" sodipodi:type="arc" class="st0" d="
						M177.9,230.5c0,0.9-0.7,1.6-1.6,1.6c-0.9,0-1.6-0.7-1.6-1.6c0,0,0,0,0,0c0-0.9,0.7-1.6,1.6-1.6
						C177.2,228.9,177.9,229.6,177.9,230.5C177.9,230.5,177.9,230.5,177.9,230.5z"/>
				</g>
				<g id="g24546" transform="translate(-378.9072,-21.38992)">
					<path id="path20654" inkscape:connector-curvature="0" sodipodi:nodetypes="ccccc" class="st0" d="M270.8,275.4
						c11.3-0.4,15.4,4,32.4-1.1l-10.8-10.8l-19.4,3.2L270.8,275.4L270.8,275.4z"/>
					<path id="path20656" inkscape:connector-curvature="0" sodipodi:nodetypes="cc" class="st0" d="M293.5,264.6
						c-8.6-16-16.3-7.2-20.5,1.1"/>
					<path id="path20658" inkscape:connector-curvature="0" sodipodi:nodetypes="cc" class="st0" d="M301.1,275.4
						c-18.6,8.2-30,7.3-31.3,1.1"/>
					<path id="path23575" inkscape:connector-curvature="0" sodipodi:nodetypes="ccscc" class="st0" d="M284.3,265.5
						c-2.7,3.1-3.8,6.7,1.1,10.8c0,0-11.3-2.2-13.5-1.1c-1,0.5,1.6-8.1,1.6-8.1L284.3,265.5L284.3,265.5z"/>
				</g>
			</g>
			<path id="path24562" inkscape:connector-curvature="0" sodipodi:nodetypes="ccccccccccccc" class="st0" d="M803.1,408.4
				c4.9,43.9,12,86.7,9.2,134.5c-6.6,42,4.5,42.6,12.2,54.5l-5.7-17.4l-1.9-12.9l3-12.5c1.5,19.8,3.9,34.5,8.3,37l-1.3-15.4
				l13.9,17.3c-7.7-12.7-15.7-25.2-17.7-43.5l3.1-35.1l-6.1-55l-3.1-70.3"/>
			<path id="path24564" inkscape:connector-curvature="0" sodipodi:nodetypes="cccccccccc" class="st0" d="M792.4,458.4
				c-23.5,87.6-3,106.9,18.3,140.6c13.3,17.2,31.6,29.5,33.6,58.1l18.3,36.7c-8,5.6-12.1,11.2-27.5,16.8
				c-23.3,0.3-47.8,1.9-67.2-1.5c-2.7-1.7-5.3-3.5,0-9.2c13.8-5.7,17.8-18.7,15.3-36.7c-6.5-6.9-13.6-13.6-12.2-24.4
				c-11.2-27.6-28.5-47.9-39.7-51.9"/>
			<path id="path24566" inkscape:connector-curvature="0" sodipodi:nodetypes="cccccccsccccccc" class="st0" d="M470.1,509.3
				l10.7,108.5c10.7,11.7,10.6,28.8,13.8,44.3l4.6,21.4c5.8,3.4,13.2,2.1,15.3,16.8l1.5,10.7l-9.2,1.5c0,0-18.3-4.6-18.3-3.1
				s-10.7,1.5-10.7,1.5l-35.1,1.5c-8.1,1-14.3,0-18.3-3.1c-2-1,0-4.1,6.1-9.2c3.2-5.9,6.5-11.8,13.8-13.8
				c-1.5-7.1-3.1-14.3-4.6-21.4l-32.1-73.3"/>
			<path id="path27475" inkscape:connector-curvature="0" class="st0" d="M468.5,511.3l-39.7,51.9"/>
			<path id="path28446" inkscape:connector-curvature="0" sodipodi:nodetypes="cc" class="st0" d="M731.3,587.7
				c15.9-41.8,36.4-80.5,58.1-125.3"/>
			<path id="path31355" inkscape:connector-curvature="0" sodipodi:nodetypes="ccccc" class="st0" d="M234.7,394.9
				c-5.1-5.8,44.3-3.9,42.3,3.8c-43.3,40.4-106.1,67.1-162.9,64.7c-31.3-4-39.8-18.7-6.1-18.3c56.4-10.5,109.4-31.7,128.1-50"/>
			<path id="path32328" inkscape:connector-curvature="0" sodipodi:nodetypes="cccc" class="st0" d="M165.7,401.6
				c-2.6,12.8-81.4,18.1-116.7,14.2c-23.4-5-45-16.6,2.2-21.6c49,0.6,92.7-2.9,118.8-19.4"/>
			<path id="path37175" inkscape:connector-curvature="0" sodipodi:nodetypes="cc" class="st0" d="M164.1,490.7
				c9.6,5.6,17.4,13.1,42.8,3.1"/>
			<path id="path37177" inkscape:connector-curvature="0" sodipodi:nodetypes="cc" class="st0" d="M180.3,357.5
				c10.9,12.8,30,9.2,48.9,6.1"/>
			<path id="path37179" inkscape:connector-curvature="0" sodipodi:nodetypes="cc" class="st0" d="M183.3,334.9
				c2.7,7.9,22,9.3,48.9,9.2"/>
			<path id="path37183" inkscape:connector-curvature="0" sodipodi:nodetypes="cc" class="st0" d="M168.1,396.5
				c10,14,25.3,15.8,36.7,16"/>
			<path id="path37185" inkscape:connector-curvature="0" sodipodi:nodetypes="cc" class="st0" d="M170.2,380.7
				c13.1,8.3,26,16.8,55,9.2"/>
			<path id="path37187" inkscape:connector-curvature="0" sodipodi:nodetypes="cc" class="st0" d="M162,458.4
				c16.3,10.2,32.6,12.2,48.9,6.1"/>
			<path id="path37189" inkscape:connector-curvature="0" sodipodi:nodetypes="cc" class="st0" d="M185.5,313.3
				c2.7,7.9,22,9.3,48.9,9.2"/>
			<path id="path37191" inkscape:connector-curvature="0" sodipodi:nodetypes="cc" class="st0" d="M153.7,545.6
				c7.4,8.9,18.4,14.1,41.9,7"/>
			<path id="path37195" inkscape:connector-curvature="0" sodipodi:nodetypes="cc" class="st0" d="M158,523.9
				c7.4,8.9,22.8,12,46.2,4.8"/>
			<g id="g41106">
				<g id="g37205">
					<path id="path37197" inkscape:connector-curvature="0" sodipodi:nodetypes="cc" class="st0" d="M297.3,696.5
						c15.3-41.8-15.1-14.5-15.8-9.6"/>
					<path id="path37199" inkscape:connector-curvature="0" sodipodi:nodetypes="cc" class="st0" d="M302.9,696.5
						c7.2-23,23-12.7,19.4,10.3"/>
					<path id="path37201" inkscape:connector-curvature="0" sodipodi:nodetypes="cc" class="st0" d="M328.4,707.8
						c2.4-18,20.4-22.8,21.2,3.1"/>
					<path id="path37203" inkscape:connector-curvature="0" sodipodi:nodetypes="cc" class="st0" d="M355.2,711.5
						c-7.2-6.8,21.9-30,10.6,1.8"/>
				</g>
				<path id="path38180" inkscape:connector-curvature="0" sodipodi:nodetypes="cc" class="st0" d="M440,712.5
					c7.7-10,3.9-12.2-6.1-16.8"/>
				<g id="g40130">
					<path id="path40120" inkscape:connector-curvature="0" sodipodi:nodetypes="cc" class="st0" d="M651.4,717.6
						c6.8-15.5,0.4-17.7-4.6-21.4"/>
					<path id="path40122" inkscape:connector-curvature="0" sodipodi:nodetypes="cc" class="st0" d="M656,717.6
						c9.4-15,19-20.4,24.4,1.5"/>
					<path id="path40124" inkscape:connector-curvature="0" sodipodi:nodetypes="cc" class="st0" d="M686.5,717.6
						c5.8-11.7,8.7-28.3,19.9,0"/>
					<path id="path40126" inkscape:connector-curvature="0" sodipodi:nodetypes="cc" class="st0" d="M712.5,716.1
						c-2.7-10.5,0.8-13.3,6.1-19.9"/>
					<path id="path40128" inkscape:connector-curvature="0" sodipodi:nodetypes="cc" class="st0" d="M781.2,709.9
						c8-9,2.1-13.3-1.5-18.3"/>
				</g>
			</g>
		</g>
		<path id="path41164" inkscape:connector-curvature="0" sodipodi:nodetypes="cc" class="st0" d="M639.7,519.5
			c24.4,7.6,36.7-3.7,36.7,30.6"/>
		<path id="path45042" inkscape:connector-curvature="0" class="st0" d="M676.3,550l-36.7-30.6"/>
	</g>
</g>
</svg>
