<?xml version="1.0" encoding="utf-8"?>
<!-- Generator: Adobe Illustrator 22.1.0, SVG Export Plug-In . SVG Version: 6.00 Build 0)  -->
<svg version="1.1" id="Layer_1" xmlns="http://www.w3.org/2000/svg" xmlns:xlink="http://www.w3.org/1999/xlink" x="0px" y="0px"
	 viewBox="0 0 1219 1280" style="enable-background:new 0 0 1219 1280;" xml:space="preserve">
<style type="text/css">
	.st0{fill:none;stroke:#000000;stroke-width:4;stroke-miterlimit:10;}
</style>
<g transform="translate(0.000000,1280.000000) scale(0.100000,-0.100000)">
	<path class="st0" d="M1776,12664c110-626,326-1157,652-1599c416-564,992-990,1707-1261c77-30,136-54,130-54c-41-1-346-44-455-64
		c-786-146-1544-490-2150-975C1004,8187,520,7502,238,6701C-33,5930-73,5073,126,4275c154-617,441-1191,852-1707
		c197-247,560-593,827-790c925-679,2122-1023,3251-933c1725,136,3205,1113,3910,2580c292,609,434,1221,434,1875
		c0,470-71,907-221,1353c-332,991-997,1826-1897,2384l-57,35l90-6c361-23,701-15,1015,25c895,113,1662,450,2340,1029
		c131,112,409,392,521,525c181,215,467,622,541,770c136,270,458,1213,458,1339v46h-44c-39,0-58-9-141-65c-228-155-556-288-1025-415
		c-215-58-696-166-1410-315c-947-199-1416-319-1933-495c-1122-382-1900-911-2369-1612l-45-67l-17,142c-81,689-393,1323-879,1783
		c-502,474-1169,797-1997,964c-224,45-452,80-526,80h-51L1776,12664z"/>
</g>
</svg>
