<?xml version="1.0" encoding="UTF-8"?>
<svg viewBox="0 0 533.33 533.33" xmlns="http://www.w3.org/2000/svg">
 <g fill="#3f7f00" fill-rule="evenodd">
  <g stroke="#fff" stroke-linejoin="round">
   <path d="m223.35 160.88s-66.944 34.626-69.252 39.243c-2.3084 4.6168-27.701 22.314-34.626 37.704-6.1557 13.85-18.467 52.324-23.084 80.024 0.76947 5.3863 0 70.791 9.2336 80.024 9.2336 9.2336 86.18 66.174 111.57 68.482 25.392 7.6946 60.788 6.9252 77.716 1.5389 27.701-11.542 46.937-27.701 56.94-38.473 10.003-30.009 38.473-109.26 38.473-134.66-5.3863-18.467-13.85-48.476-29.24-78.486-19.237-43.09-137.73-63.866-137.73-55.402z"/>
   <path d="m228.92 159.16c13.157 11.095-8.0308 19.504-18.81 27.574-4.1912 6.5311-24.306 7.783-31.68-1.7905-8.5309-9.8778 28.872-27.591 50.49-25.783z"/>
   <path d="m230.63 169.24c12.185-20.453 56.333-4.0063 59.081 4.3502-4.1912 6.5311-14.535 22.349-26.637 21.346-7.8276-3.1496-25.07-16.123-32.444-25.697z"/>
   <path d="m323.29 202.53c-4.5247-11.005-17.682-22.1-7.7078-27.11 21.894 4.5275 50.092 32.497 53.054 58.605-7.8276-3.1496-37.972-21.922-45.346-31.495z"/>
   <path d="m269.28 196.74c2.9513-11.219 12.925-23.924 25.212-28.326 17.348 4.5636 24.186 23.872 26.934 32.228-4.1912 6.5311-10.362 29.99-22.464 28.987-7.8276-3.1496-22.308-23.317-29.682-32.89z"/>
   <path d="m176.22 180.74c11.297 4.0623 12.084 15.174-1.193 28.04-4.1912 6.5311-8.0126 2.2544-24.306 7.783-8.5309-9.8778 13.212-31.421 25.499-35.823z"/>
   <path d="m208.19 191.14c2.9513-11.219 12.925-16.229 25.212-20.631 17.348 4.5636 24.186 16.177 26.934 24.534-4.1912 6.5311-15.608 26.429-27.711 25.426-7.8276-3.1496-17.062-19.756-24.436-29.329z"/>
   <path d="m172.41 209.73c2.9513-11.219 12.925-16.229 25.212-20.631 17.348 4.5636 24.186 16.177 26.934 24.534-4.1912 6.5311-14.35 16.945-30.644 22.474-7.8276-3.1496-14.129-16.803-21.503-26.376z"/>
   <path d="m243.95 219.82c2.9513-11.219 9.104-20.506 21.391-24.908 17.348 4.5636 32.634 21.671 35.382 30.027-4.1912 6.5311-20.586 21.848-32.688 20.845-7.8276-3.1496-16.71-16.392-24.085-25.965z"/>
   <path d="m304.19 225.86c2.9513-11.219 13.73-19.289 26.017-23.691 17.348 4.5636 24.186 16.177 26.934 24.534-4.1912 6.5311-11.066 23.262-23.168 22.259-7.8276-3.1496-22.41-13.529-29.784-23.102z"/>
   <path d="m346.9 249.09c4.1912-6.5311-3.2665-20.489 6.7076-25.499 20.901 9.8603 34.124 39.511 17.83 45.04-7.8276-3.1496-17.164-9.9676-24.538-19.541z"/>
   <path d="m277.09 248.53c2.9513-11.219 12.925-16.229 25.212-20.631 17.348 4.5636 24.186 16.177 26.934 24.534-4.1912 6.5311-6.5226 20.095-22.816 25.623-7.8276-3.1496-21.956-19.952-29.331-29.526z"/>
   <path d="m195.11 238.6c2.9513-11.219 17.302-28.164 36.075-24.317 12.186 5.3865 26.499 16.786 26.934 24.534-4.1912 6.5311-9.3723 21.526-25.666 27.055-16.728-2.2194-29.969-17.698-37.343-27.272z"/>
   <path d="m149.05 205.13c12.454 4.3666-0.01825 14.172-2.7013 24.372-4.1912 6.5311-10.888 12.579-27.182 18.108-8.5309-9.8778 17.596-38.078 29.883-42.479z"/>
   <path d="m140.34 233.92c2.9513-11.219 13.462-18.269 25.749-22.671 9.5208 1.414 23.65 18.217 26.398 26.574-4.1912 6.5311-12.037 17.554-28.33 23.082-7.8276-3.1496-16.442-17.411-23.816-26.985z"/>
   <path d="m109.78 259.78c2.9513-11.219 16.58-20.721 28.867-25.122 17.348 4.5636 20.532 20.668 23.28 29.025-4.1912 6.5312-17.552 15.012-33.845 20.541-7.8276-3.1496-10.927-14.87-18.302-24.444z"/>
   <path d="m160.39 269.08c2.9513-11.219 17.218-32.548 35.991-28.701 13.426 10.075 25.074 17.501 31.292 26.77-4.1912 6.5311-11.232 14.494-30.024 24.818-16.728-2.2194-29.886-13.314-37.26-22.888z"/>
   <path d="m236.57 266.22c2.9513-11.219 17.385-23.78 31.717-26.554 13.425 10.075 21.688 20.972 28.174 29.222-4.1912 6.5311-6.2543 19.075-22.548 24.603-15.924-5.2793-29.969-17.698-37.343-27.272z"/>
   <path d="m319.17 272.33c2.9513-11.219 11.787-30.706 27.979-26.446 20.55 6.4963 21.42 21.992 24.168 30.349-1.7948 11.524-11.685 20.918-28.414 18.698-7.8276-3.1496-16.359-13.027-23.733-22.601z"/>
   <path d="m353.94 300.01c2.9513-11.219 12.139-27.342 24.426-31.743 14.045 12.419 17.127 38.312 6.2464 56.169-19.763 4.6159-23.298-14.853-30.672-24.426z"/>
   <path d="m275.16 298.18c2.9513-11.219 17.302-28.164 36.075-24.317 17.348 4.5636 31.126 18.002 26.934 24.534-4.1912 6.5311-9.4557 17.142-25.749 22.671-16.728-2.2194-29.886-13.314-37.26-22.888z"/>
   <path d="m200.74 295.23c2.9513-11.219 17.117-22.76 31.097-28.898 15.119 8.3391 39.841 22.476 35.65 29.007-4.1912 6.5311-11.149 18.878-27.442 24.406-16.728-2.2194-31.93-14.943-39.305-24.516z"/>
   <path d="m129.82 287.48c7.5776-10.002 12.842-20.613 28.682-19.718 17.348 4.5636 26.231 17.806 33.605 27.379-4.1912 6.5312-16.043 18.681-32.337 24.209-16.728-2.2194-22.576-22.297-29.951-31.87z"/>
   <path d="m112.1 260.39c17.348 4.5636 10.742 20.274 13.491 28.631-4.1912 6.5311-10.876 20.775-27.169 26.303-8.5309-9.8778 1.3915-50.533 13.679-54.934z"/>
   <path d="m102.39 316.98c2.9513-11.219 10.982-27.646 23.269-32.047 17.348 4.5636 26.129 27.593 28.878 35.95-4.1912 6.5312-12.12 13.17-28.414 18.698-7.8276-3.1496-16.358-13.027-23.733-22.601z"/>
   <path d="m165.2 317.5c2.9513-11.219 14.988-28.773 33.762-24.925 11.649 7.4264 25.963 18.825 26.398 26.574-4.1912 6.5311-6.5226 20.095-22.816 25.623-16.728-2.2194-29.969-17.698-37.343-27.272z"/>
   <path d="m244.4 321.98c2.9513-11.219 12.759-24.997 26.202-29.095 17.348 4.5636 37.528 21.868 36.807 29.312-4.1912 6.5312-18.893 20.112-35.186 25.641-16.728-2.2194-20.448-16.284-27.823-25.858z"/>
   <path d="m309.1 319.46c2.9513-11.219 17.302-28.164 36.075-24.317 17.348 4.5636 24.704 28.309 20.513 34.84-4.1912 6.5312-2.063 12.544-18.356 18.072-16.728-2.2194-30.857-19.022-38.232-28.596z"/>
   <path d="m358.75 347.43c4.0245-15.299 5.551-25.803 22.196-27.967 10.927 14.87 7.3379 37.918-8.9556 43.446-7.8276-3.1496-5.8662-5.9052-13.24-15.479z"/>
   <path d="m279.9 350.68c2.9513-11.219 17.302-28.164 36.075-24.317 17.348 4.5636 31.126 18.002 26.934 24.534-4.1912 6.5311-4.2095 20.703-20.503 26.232-16.728-2.2194-35.132-16.875-42.506-26.449z"/>
   <path d="m204.7 345.08c7.5775-10.002 12.139-27.342 35.991-28.701 12.186 5.3865 30.672 24.426 26.481 30.958-4.1912 6.5312-9.6406 22.546-25.934 28.075-16.728-2.2194-29.164-20.758-36.538-30.332z"/>
   <path d="m131.1 347.53c2.9513-11.219 13.212-31.421 31.902-31.957 16.007 9.6633 33.522 22.995 35.114 31.047-4.1912 6.5311-13.462 18.269-29.755 23.798-16.728-2.2194-29.886-13.314-37.26-22.888z"/>
   <path d="m104.73 311.88c17.348 4.5636 26.129 27.593 28.878 35.95-4.1912 6.5312-12.824 6.4414-29.117 11.97-20.365-11.9-12.048-43.518 0.23968-47.92z"/>
   <path d="m95.462 351.43c17.348 4.5636 14.665 14.763 17.414 23.12-4.1912 6.5311 9.7708 17.644-6.5226 23.172-8.5309-9.8778-17.022-38.043-10.891-46.292z"/>
   <path d="m104.81 371.24c2.9513-11.219 17.302-28.164 36.075-24.317 17.348 4.5636 31.126 18.002 26.934 24.534 3.988 13.045-10.714 26.626-27.007 32.154-16.728-2.2194-28.627-22.798-36.002-32.371z"/>
   <path d="m168.44 374.8c2.9513-11.219 18.643-33.264 37.416-29.416 17.348 4.5636 29.784 23.102 25.593 29.633-4.1912 6.5311-9.4557 17.142-25.749 22.671-16.728-2.2194-29.886-13.314-37.26-22.888z"/>
   <path d="m243.9 379.38c2.9513-11.219 17.486-33.568 31.902-31.957 11.297 4.0623 39.305 24.516 35.114 31.047-4.1912 6.5311-13.11 21.633-29.404 27.162-16.728-2.2194-30.237-16.678-37.612-26.252z"/>
   <path d="m327.07 376.74c2.9513-11.219 18.19-26.84 30.477-31.242 28.646 8.6259 20.208 64.204-7.8173 57.922-7.8276-3.1496-15.285-17.107-22.66-26.681z"/>
   <path d="m285.45 405.23c2.9513-11.219 21.66-25.928 33.947-30.329 17.348 4.5636 24.085 25.965 26.833 34.322-4.1912 6.5311-12.12 13.17-28.414 18.698-7.8276-3.1496-24.991-13.117-32.365-22.691z"/>
   <path d="m208.8 409.41c-3.0998-11.721 13.665-37.845 32.438-33.997 17.348 4.5636 38.852 30.94 34.66 37.471-4.1912 6.5311-9.4557 17.142-25.749 22.671-16.728-2.2194-33.975-16.571-41.35-26.145z"/>
   <path d="m105.86 401.6c2.9513-11.219 0.1016-9.788 12.389-14.19 17.348 4.5636 38.398 37.364 41.146 45.72-22.076 4.0074-46.161-21.958-53.535-31.531z"/>
   <path d="m197.92 446.54c1.5447-24.676 15.525-30.813 27.711-25.426 17.348 4.5636 39.675 13.708 35.298 25.643-4.1912 6.5312-18.625 19.092-39.276 22.384-7.8276-3.1496-16.358-13.027-23.733-22.601z"/>
   <path d="m258.98 435.34c2.9513-11.219 13.295-27.037 25.582-31.439 17.348 4.5636 31.56 25.75 34.309 34.107-4.1912 6.5311-20.753 13.08-37.046 18.608-16.728-2.2194-22.326-9.1446-22.845-21.277z"/>
   <path d="m316.12 429.65c2.9513-11.219 28.058-21.901 40.345-26.303 8.2626 10.898-6.7211 39.51-24.976 47.794-7.8276-3.1496-7.9943-11.918-15.369-21.491z"/>
   <path d="m284.95 463.53c-6.0328-14.673 9.2754-13.438 21.211-21.204 9.0983 0.32224 17.63-8.9285 24.82 6.049-9.0024 10.718-40.349 26.464-46.031 15.154z"/>
   <path d="m142.52 407.98c2.9513-11.219 25.934-28.075 33.762-24.925 17.348 4.5636 34.595 18.915 34.04 35.127-4.9128 13.975-16.312 19.701-36.695 21.972-7.8276-3.1496-23.733-22.601-31.107-32.174z"/>
   <path d="m152.92 434.25c15.054-10.217 29.099 2.202 38.268 0.25192 7.5593 4.1696 13.24 15.479 20.43 30.456-16.025 4.5087-53.017-19.399-58.698-30.708z"/>
   <path d="m229.5 467.48c15.054-10.217 24.139-16.551 33.308-18.501 7.5593 4.1696 14.767 4.975 28.276 19.434-10.511 7.0498-55.903 10.376-61.584-0.93271z"/>
  </g>
  <path d="m419.72 161.78c-41.697-8.8956-30.258 1.6551-78.908 9.8004 42.758-14.706 52.92-24.127 78.908-9.8004z"/>
  <path d="m208.22 143.43c-5.7376-31.496-48.235-21.369-86.821-29.056 62.788-7.5952 120.06 2.7664 120.06 2.7664-26.575-23.577-0.53628-58.686-19.369-83.379 54.569 33.684 22.136 69.355 48.349 77.066-5.3596-26.386 55.726-22.133 112.96-59.946-15.343 42.291-65.675 55.602-73.116 74.474 1.4428 9.5242 15.528 4.8545 10.114 15.033 11.165 12.714 59.891-23.051 90.208-25.26-4.4831 24.073-77.82 33.745-68.6 57.469-32.762-19.284-69.84-27.912-133.78-29.167z" stroke-width="0"/>
  <path d="m367.06 68.07c-21.139 22.952-52.066 26.277-81.128 60.439 6.8479-27.256 31.687-36.233 81.128-60.439z"/>
  <path d="m209.94 145.79c-5.7376-31.496-48.235-21.369-86.821-29.056 62.788-7.5952 103.74 4.7476 103.74 4.7476-26.575-23.577-75.464-64.081-94.296-88.774 54.569 33.684 105.77 74.75 131.98 82.461-5.3596-26.386 58.534-19.055 84.205-80.642 18.391 19.507-45.558 72.04-52.999 90.912 1.4428 9.5242 30.735-30.982 129.13-47.342-45.602 25.15-97.356 54.473-102.77 64.651 11.165 12.714 109.89-3.7064 140.21-5.9155-4.4831 24.073-127.82 14.401-118.6 38.125-32.762-19.284-69.84-27.912-133.78-29.167z" stroke-width="0"/>
  <path d="m384.21 92.467c-28.594 10.79-52.786 26.17-94.907 50.426 18.818-20.322 38.311-34.379 94.907-50.426z"/>
  <path d="m457.68 139.2c-31.558 3.9624-42.196 13.293-51.671 4.8579 18.818-1.5005-1.0359 0.52605 51.671-4.8579z"/>
  <path d="m334.65 59.062c-32.087 56.759-26.736 29.757-55.799 50.05 3.5833-25.275 34.466-10.015 55.799-50.05z"/>
  <path d="m134.33 115.09c70.732-2.9718 50.489-0.57359 68.689 8.5397-14.697-5.7514 4.8348-8.1087-68.689-8.5397z" fill-opacity=".5"/>
  <path d="m138.04 37.721c47.88 41.605 76.416 40.102 116.33 80.828 9.2336 0.70047-76.677-42.754-116.33-80.828z"/>
  <path d="m210.53 165.97c-5.738-31.496-51.27-15.146-87.931 0.45972 47.891-45.908 104.85-24.768 104.85-24.768-26.575-23.577-39.157-61.344-107.41-69.081 84.092-12.854 118.88 55.056 145.09 62.768-5.36-26.386-13.09-32.235 12.581-93.822 18.391 19.507 26.066 85.221 18.625 104.09 1.442 9.5238 68.872-64.537 180.37-32.094-50.895-7.884-148.6 39.225-154.01 49.403 11.165 12.714 86.898-43.958 110.72 14.82-30.058-15.804-98.333-6.335-89.113 17.389-32.762-19.284-69.84-27.912-133.78-29.167z" stroke-width="0"/>
  <path d="m144.09 156.59c67.52-27.737 56.564-20.711 96.563 4.4042-28.557-3.6122 1.4548 6.386-24.073-3.759-16.664-23.892-36.596-13.14-72.49-0.64516z"/>
  <path d="m279 54.805s-21.866 35.952-6.5891 83.927c9.2336 0.70044-1.3194-37.781 6.5891-83.927z"/>
  <path d="m426.87 110.97c-38.432 9.9668-74.969 20.034-114.91 48.251 18.818-20.322 18.596-36.106 114.91-48.251z"/>
  <path d="m171.43 81.416c50.174 20.843 35.974 4.0848 62.651 56.297-14.674-5.2432-18.921-34.266-62.651-56.297z"/>
 </g>
</svg>
