<?xml version="1.0" standalone="no"?>
<!DOCTYPE svg PUBLIC "-//W3C//DTD SVG 20010904//EN"
 "http://www.w3.org/TR/2001/REC-SVG-20010904/DTD/svg10.dtd">
<svg version="1.0" xmlns="http://www.w3.org/2000/svg"
 width="1077.000000pt" height="1280.000000pt" viewBox="0 0 1077.000000 1280.000000"
 preserveAspectRatio="xMidYMid meet">
<g transform="translate(0.000000,1280.000000) scale(0.100000,-0.100000)"
fill="#000000" stroke="none">
<path d="M1174 12755 c210 -287 507 -623 920 -1042 121 -123 215 -223 210
-223 -5 0 -47 12 -93 25 -371 109 -869 140 -1271 79 -52 -7 -99 -14 -105 -15
-5 -1 33 -7 85 -15 301 -44 621 -128 885 -234 121 -48 367 -177 481 -253 236
-155 446 -339 656 -576 70 -79 126 -146 124 -148 -2 -2 -70 1 -152 7 -249 18
-914 24 -1179 11 -265 -13 -523 -33 -715 -56 -69 -8 -132 -15 -140 -16 -22 -2
150 -38 185 -39 54 -2 -4 -18 -94 -26 -45 -3 -80 -9 -77 -11 7 -8 278 -51 418
-68 75 -8 286 -26 470 -40 407 -30 574 -49 741 -81 282 -55 487 -158 607 -307
50 -61 88 -123 80 -130 -3 -2 -41 0 -85 4 -186 18 -435 6 -657 -32 -439 -74
-854 -259 -1218 -543 -82 -64 -350 -308 -345 -314 2 -2 54 20 116 49 498 227
871 366 1190 443 384 91 681 77 865 -42 110 -72 208 -207 242 -334 l10 -38
-71 -20 c-267 -78 -491 -177 -660 -293 -96 -66 -190 -162 -209 -214 -8 -23
-18 -33 -33 -33 -28 0 -143 -61 -229 -120 -175 -122 -340 -290 -443 -452 -54
-85 -57 -88 -140 -129 -344 -170 -795 -701 -829 -976 -8 -65 -87 -274 -122
-326 -65 -94 -107 -199 -92 -227 8 -14 3 -23 -24 -44 -54 -41 -124 -142 -187
-271 -90 -186 -151 -390 -185 -624 -21 -146 -15 -388 11 -471 20 -63 20 -77
10 -180 -5 -44 -17 -94 -30 -120 -113 -227 -123 -560 -22 -770 l23 -47 -24
-51 c-65 -144 -41 -421 64 -740 48 -148 202 -482 241 -523 22 -24 24 -30 14
-65 -10 -37 -9 -39 47 -108 82 -103 353 -372 452 -450 264 -209 542 -348 746
-372 51 -6 55 -9 80 -53 15 -25 66 -86 113 -134 283 -291 807 -595 1186 -689
67 -16 123 -22 220 -23 158 -2 227 -16 302 -61 72 -44 88 -47 142 -35 61 13
187 -11 249 -49 129 -80 328 -114 657 -114 371 -1 603 33 895 129 218 71 232
76 295 91 259 64 593 234 797 407 62 52 65 54 91 40 24 -12 31 -11 69 8 95 48
199 128 303 233 179 180 310 387 379 599 34 107 64 286 50 308 -3 5 9 53 28
105 l33 95 68 46 c151 100 266 299 313 539 23 116 23 340 0 442 -9 40 -16 79
-16 86 0 8 29 33 66 56 129 84 217 210 270 385 47 155 37 411 -22 551 -17 41
-6 99 36 184 86 174 123 344 124 575 0 241 -40 426 -134 609 -49 95 -210 578
-210 628 0 44 -43 194 -76 267 -13 29 -49 95 -79 146 -69 116 -127 248 -150
345 -75 315 -267 641 -555 943 l-112 117 10 59 c49 279 415 484 1012 568 159
22 625 25 770 5 268 -38 485 -99 647 -181 34 -17 65 -31 68 -31 7 0 -30 90
-76 182 -112 225 -257 389 -443 501 l-57 35 83 11 c182 26 491 84 626 117 369
90 575 204 638 353 20 48 18 52 -23 46 -21 -3 -103 -12 -183 -20 -80 -9 -383
-47 -675 -85 -915 -120 -1107 -141 -1715 -195 -35 -3 -62 -4 -60 -1 3 2 127
68 275 146 489 258 628 346 795 506 74 70 77 72 200 112 640 209 1256 310
1659 273 68 -6 126 -10 127 -8 12 12 -500 138 -696 171 -469 80 -973 90 -1445
30 -328 -42 -695 -131 -1019 -249 -66 -24 -122 -43 -123 -41 -9 9 1250 802
1749 1101 54 32 97 59 95 61 -5 5 -431 -87 -632 -137 -428 -107 -833 -240
-1233 -405 -192 -79 -611 -286 -787 -388 -158 -92 -140 -76 200 182 305 231
456 355 606 498 273 261 446 485 585 757 60 117 134 292 134 316 0 6 -42 -19
-92 -55 -283 -201 -683 -419 -1077 -588 -85 -36 -155 -66 -157 -66 -2 0 40 67
94 148 170 259 267 456 312 638 18 69 21 108 18 190 -3 93 -7 108 -38 170 -20
38 -40 67 -45 65 -6 -2 -24 -39 -41 -81 -89 -220 -229 -466 -382 -669 -105
-140 -339 -379 -479 -489 -148 -117 -499 -345 -546 -355 -4 -1 -26 81 -46 183
-96 465 -221 834 -359 1062 -56 91 -98 146 -105 138 -9 -9 -155 -414 -220
-611 -150 -450 -236 -798 -268 -1089 l-12 -115 -13 50 c-13 47 -21 116 -59
455 -32 287 -83 484 -180 687 -146 306 -361 549 -727 821 -67 49 -76 52 -50
15 30 -43 87 -162 111 -233 63 -182 82 -390 67 -734 -14 -325 -13 -801 2 -870
6 -33 10 -61 7 -64 -2 -2 -26 13 -52 35 -82 67 -251 186 -448 315 -104 69
-388 273 -631 455 -687 515 -1392 1026 -1569 1139 l-30 19 29 -40z"/>
</g>
</svg>
