<?xml version="1.0" encoding="utf-8"?>
<!-- Generator: Adobe Illustrator 22.1.0, SVG Export Plug-In . SVG Version: 6.00 Build 0)  -->
<svg version="1.1" id="Layer_1" xmlns="http://www.w3.org/2000/svg" xmlns:xlink="http://www.w3.org/1999/xlink" x="0px" y="0px"
	 viewBox="0 0 362.1 211.6" style="enable-background:new 0 0 362.1 211.6;" xml:space="preserve">
<style type="text/css">
	.st0{fill:none;stroke:#000000;stroke-miterlimit:10;}
</style>
<path class="st0" d="M279,150.6c0.1,0,1-0.4,2.7-1.2c1.7-0.8,2.9-1.3,3.5-1.4l5-2.3l0.1-1.7l-2.1,1.1l-4-1.5l1.7-0.7
	c1-0.4,1.5-0.6,1.5-0.6c0.2-0.2,0.2-0.6,0-1.3c-0.1-0.5-0.1-0.8-0.2-0.8c-0.2,0-0.4-0.3-0.7-0.9l7.2-3.6c0.5-0.3,0.7-0.4,0.7-0.5
	c0,0-0.2,0-0.7,0c-1.8,0-3.6-0.1-5.4-0.5c-1.2-0.2-1.9-0.4-1.9-0.5c0-0.1,0.4-0.3,1.2-0.4c2.6-0.5,4.2-1,4.7-1.5
	c0.7-0.6,0.9-0.8,0.7-0.8c-0.6,0.2-0.9,0.2-1.1-0.1c-0.1-0.4,0.3-0.7,1.3-1c0.5-0.1,1-0.2,1.5-0.3l-0.4-1.2l-3.3-0.8l2.7-1.6
	c2.4-1.8,4-3.4,4.7-4.8c0.2-0.4,0.3-0.7,0.4-1.2c-0.9,0.1-2.1,0.1-3.4,0c-0.3,0-0.6,0-0.9,0c0.1-0.1,0.3-0.2,0.5-0.3
	c0.2-0.1-0.1-0.2-0.7-0.4c-0.6-0.2-0.9-0.3-0.7-0.4c-0.1-0.2-0.4-0.2-0.7,0c-0.2,0.1-0.3,0.2-0.5,0.3l1.3-4l2.4-1.5l-4.7-0.2
	l1.4-2.5l4.3-4.2l-3.9-0.7c-0.4-0.1-0.6-0.2-0.5-0.2c0.3-0.1,0.4-0.2,0.3-0.4c-0.1-0.2-0.4-0.2-1.1,0.1l-1,0.5l1-1.9l-2.7,0.6
	l2.1-2.7c1.6-1.3,2.5-2.3,2.7-2.9c-1.2-0.1-2.4-0.3-3.4-0.5c-2.2-0.4-2.9-0.8-2.2-1.2l9-2.4l-2.5,0l-0.7,0.6
	c-0.4-0.2-0.9-0.4-1.2-0.5c-0.1,0-0.2-0.1-0.3-0.1l2.2,0l0.7-0.7l-1.2-0.3l-1.3-0.7l4.3-1.6c0-0.5,1.1-1.7,3.4-3.4
	c1-0.7,1.3-1.2,1.1-1.5l-0.6-0.2l-1.2-1.5c-1,0.2-1.5,0.3-1.6,0.2v-0.6c0-0.3,0.6-0.8,1.9-1.7l1.9-1.2l-0.6,0.1
	c-0.4,0.1-1.8,0.1-4.2,0c3.2-1.5,5.5-2.6,6.7-3.3c1.4-0.7,2.4-1.2,3-1.5c1.1-0.6,1.8-1.2,2.1-1.7l5.5-1.5l6.2,5.9
	c1.3,1.1,1.7,1.7,1.3,1.6l-1-0.5l-2.2,0.9l-2.8-0.2l2.2,7.5c0.2,0.7,0.2,1,0.2,1.1c0,0.1-0.2,0-0.5-0.2c-1.1-0.8-2.3-1.4-3.6-1.6
	c-1.3-0.2-1.7-0.2-1.3,0c1.1,0.7,1.8,1.4,2.1,2.1c0.2,0.5,0.3,1.1,0.1,1.5c0.5,0.2,1.1,0.3,1.6,0.4l2.2,0.3l2,0.8
	c0.5,0.3,1.3,0.6,2.5,1.1c-1.6,0.4-2.6,0.5-3.2,0.5c-0.3,0-0.4,0.1-0.1,0.5c0.2,0.2,0.3,0.4,0.5,0.6l-3.9,0.3v0.6
	c0,0.3-0.5,0.1-1.7-0.4l0.1,0.4l-2.2,0.9l0.7,1.5c0.8-0.2,1.4-0.2,1.7,0c0.2,0.1,1.4-0.2,3.7-0.8c2.3-0.6,3.6-1,4-1.2
	c0.3-0.2,0.6-0.3,1-0.3l0,0c0.2,0,0.6-0.1,1-0.1c0.5-0.1,0.5,0.3,0,1.2c-0.7,0.4-1.3,0.8-1.9,1.1c-0.4,0.2-0.1,0.3,0.7,0.5
	c0.4,0.1,0.9,0.1,1.4,0.2l-3.9,0.9c-1,0.3-1.2,0.6-0.7,1c0.3,0.2,0.6,0.4,1.1,0.6l-1.5,0.2l3.2,2.4c1.5,1.1,1.8,1.9,1,2.3
	c-0.4,0.2-1,0.3-1.7,0.3l-2.4,1.9l1,0.2c2,0.5,4.1,1.3,6.5,2.3l-3.5,1.2c-1.3-0.3-2.3-0.3-3-0.1c0.5,0.3,0.7,0.9,0.4,1.9h1.9
	l2.1,1.6l1.1-0.3l1.1,0.3c0.8,0.3,1.4,0.6,1.8,0.8l2.2,1.5c1.6,0.3,2.2,0.5,1.7,0.6l-2.4,0.3l2.3,1.9l-2.7,0.4l1.5,1.2
	c0.8,0.8,0.8,1.2-0.1,1.1L331,125c-0.4,0.1-0.8,0.1-1.2,0.1c-0.3,0-0.6-0.2-1-0.5l-0.6-0.4l0.4,0.7c0.2,0.5,0.2,0.8,0,1.1
	c-0.2,0.2-0.6,0.1-1.2-0.1l0.8,2.1l3.1,1.1l2.4-0.9l2.5-2.4l1.3-0.8c0.8-0.4,1.1-0.3,0.8,0.3l-0.6,1.5l0,0l-2.6,1.6
	c0.5,0.3,1.2,0.3,2.1,0l0,0.1l-0.7,0.5l-1.8,1.1l4.3,5.7c-2.2-0.5-3.1,0-2.6,1.8c0.3,1.1,1.2,2.9,2.9,5.3c3.2,4.7,7.3,9.1,12.4,13.3
	c-0.7,0.4-1.3,0.8-1.7,1.2c-0.6,0.5-1,1-1.1,1.6c-0.1,0.3,0,0.9,0.1,1.7l0,0c0.1-0.6,0.4-1,0.9-1.2l0.7-0.1l0.7,2l-0.1,0.9h2.5
	l-1.6,1.8l-0.6,0.5l1.1,0.6l4,0l-2.2,1.3l0.2,2.1l1.8,1.4l-2,0.9c-0.6,0.1-1.1,0.2-1.4,0.1c-0.2,0,0,0.3,0.6,1
	c0.3,0.4,0.6,0.7,1,1.1c0,0.7-0.3,1-0.9,1c-0.4,0-0.8-0.1-1.1-0.3c-0.4-0.2-1.4-0.8-3-2c-1.1-0.7-1.5-1-1.2-0.7
	c0.9,0.9,1.4,1.5,1.4,1.9c0.2,0.8,0.5,1.7,1,2.8c0.2,0.5,0.1,0.6-0.3,0.1c-0.4-0.4-0.7-0.8-0.8-1.1c-0.1-0.2-0.4-0.2-1.1,0l-1,0.5
	l0.2,0.7l-1,0.6l-2.3-2.2l-1.5-0.9l0.9,2.4c0,0.3-0.2,0.5-0.5,0.6c-0.6,0.2-1.6-0.1-3-1.1c-1.2-0.8-1.8-1.1-1.6-0.8
	c0.4,0.7,0.5,1.2,0.4,1.3c-0.4,0.3-0.6,0.8-0.3,1.5c-0.9-0.9-1.4-1.6-1.6-2.2c-0.1-0.4-0.5-0.6-1.1-0.6l-0.8,0
	c-0.4-0.3-0.8-0.6-1.3-0.9c-1-0.6-1.6-0.8-2.1-0.7l-0.8,2.4l-2.6-2.4c-1.1-1-1.4-1.1-1-0.2c0.2,0.5,0.6,1.3,1.1,2.3
	c0.2,0.6-0.2,1.3-1.1,2.1l-0.7-0.9l0.4,1.7c-0.5,1.2-1.1,1.8-1.6,1.8c-0.3,0-0.6-0.2-0.7-0.5c-0.1-0.4-0.2-0.7-0.2-0.9l-0.8-2
	c-0.1-0.2-0.2-0.2-0.3,0c-0.3,0.5-0.7,1-1.3,1.4c-0.5,0.4-1,0.8-1.3,1.2c-0.2,0.1-0.3,0-0.4-0.2l-0.8-2.2c-0.1-0.2-0.5-0.6-1.3-1.1
	l-5,2.2l1.2,1.8l-1.8,1.4l-2-1.3v5.1l-0.6-1.5l-2.2-0.9l0.2,1.1l-0.2,1.7l-1.2-1.5c-0.5-1-1-1.7-1.4-2.1l-0.9,4l-0.4-1.1
	c-0.2-0.4-0.4-0.8-0.6-1l-0.3-0.2l-0.8-1.1l0.2,2.2c0.1,1,0,1.3-0.3,1c-0.2-0.3-0.4-0.9-0.7-1.8c-0.1-0.6-0.3-1-0.5-1l-0.2,0.1
	l-0.3,0.7c-0.3,0.6-0.7,1.2-1.2,1.9c-0.5,0.6-0.9,0.1-1-1.6V181l-2,2.1l-1.2-1.7h-0.1c-0.2,0.5-0.7,1-1.5,1.3
	c-0.4,0.2-0.4-0.2-0.1-1.1c-0.9,0.1-1.5,0.2-1.8,0.1c-0.3,0.2-0.7,0.2-0.9,0.2l-2.4,1.6c-1.4,0.9-2.2,1.3-2.3,1.1
	c-0.5-0.7-1.1-1.2-1.8-1.4c-1.2-0.4-1.8-0.4-1.8,0c0,0.2,0.1,0.4,0.4,0.7"/>
<path class="st0" d="M320.6,162.3c0.6-0.2,1.2-0.4,1.7-0.8l1.7-0.3l2.7-4.9c-1.1,1.3-1.8,2-2.2,2c-0.2,0-0.2-0.4,0-1
	c0.3-0.9,0.6-1.5,0.6-1.9c0.1-0.6,0-0.8-0.3-0.7c-0.3,0.1-0.8,0.7-1.5,1.6c-1,1.2-1.3,1.2-0.9-0.2c0.1-0.3-0.1-0.4-0.7-0.4l-0.9,0.1
	l-2,3.1"/>
<g>
	<path class="st0" d="M308.2,66.5c0.1-0.3,0.3-0.1,0.7,0.4c0.7,0.9,1.2,1.5,1.5,1.7c0.8,0.8,1.3,1.8,1.3,3l1.1,2.8l0.3-0.9l0.6,2.3
		l0.3,0.8c0.3,0.6,0.5,1,0.7,1.3c0.3,0.4,0.5,1.1,0.7,1.9l1.1,2.2l-2-0.4c-0.2-0.5-0.6-1.1-1.3-1.7c-0.4-0.4-0.6-0.3-0.6,0.3
		c-0.1,0.9-0.1,1.4-0.2,1.5c-0.3,0.4-1.1,1.4-2.5,2.8c-0.2-0.9-0.2-1.7-0.1-2.2c0-0.4-0.1-0.5-0.4-0.4l-3.5,1.7
		c-0.7,0.4-1.2,0.6-1.5,0.7c-0.3,0.1-1.2,0.3-2.7,0.4c-1.1,0.1-1.5,0.1-1.1,0c0.9-0.2,1.4-0.4,1.6-0.5c0.1-0.1,0.6-0.5,1.7-1.3
		c0.9-0.7,1.4-1.2,1.3-1.4c-0.1-0.2-0.3-0.3-0.6-0.2l-0.4,0.2l-2.5,0.6c-1,0.3-1.5,0.2-1.3-0.1l0.5-0.5c1.8-0.5,3.1-1,3.9-1.5
		c0.5-0.3,1-0.7,1.4-1.5c0.6-0.8,1-1.4,1.2-1.6c0.1-0.7,0.2-1.4,0.4-2.1c0.3-1.4,0.7-2.2,1-2.3c0.3-0.2,0.5-0.5,0.7-1
		c0.1-0.6,0.2-1,0.2-1.3c0-0.3-0.1-1-0.5-2C308.3,67.3,308.1,66.7,308.2,66.5L308.2,66.5z"/>
	<path class="st0" d="M303.6,89c0.4-0.1,0.5-0.1,0.6-0.1c0.4-0.1,0.7,0.1,0.9,0.6l0.9,0.6c0.6,0.4,1.2,0.7,1.8,0.8l0.2,2.2l-1.1,2.1
		l-0.6,0.1c-0.4,0.1-0.6-0.3-0.7-1.2l-0.8-1.1c-0.3-0.4-0.6-0.5-0.8-0.2c-0.1,0.1-0.2,0.3-0.2,0.5c-0.2,0.9-0.8,1.5-1.8,1.9
		c-0.6,0.2-1,0.1-1.1-0.3l0-0.7l-1.3,3.7l-0.7-2.4l-2.1,1.2l-2.2,0.8l0.9-2.2l-3.4,1l-2.1,0l4.4-1.8l-3.5-0.8
		c-0.9-0.2-0.9-0.3-0.2-0.3c0.3,0,0.8,0,1.3,0l1-0.2c0.8-0.2,1.4-0.4,1.9-0.6c1.2-0.4,2.4-1.1,3.7-1.9L303.6,89L303.6,89z"/>
	<path class="st0" d="M315.2,96.7c2,2,1.8,2.1-0.7,0.4l-3-2l0.8,1.1c0.6,0.8,1.1,1.2,1.5,1.4c0.7,0.3,0.6,0.5-0.1,0.9
		c-0.6-0.4-1.2-0.5-2-0.4l-1.6-0.4l-0.5,1c-0.1,0-0.4-0.5-0.7-1.5c-0.1-0.2,0.1-0.7,0.4-1.8l0.5-1.5l1.6-0.8l0.8,0.7
		C313,94.5,314,95.4,315.2,96.7L315.2,96.7z"/>
	<path class="st0" d="M291.6,101.3c0.5-0.4,0.9-0.6,1.3-0.7c0.5-0.2,0.8-0.3,1-0.4l3.2-1.7l1,1l0.6,0c0.4,0,0.8,0.4,1,1l-0.3,1.3
		l-1.7,2.2c-0.4,0.5-0.6,0.7-0.5,0.6c0.1-0.3-0.1-0.3-0.4-0.2c-0.5,0.3-0.8-0.2-0.8-1.4c0,0.4-0.3,0.9-0.9,1.6
		c-0.6,0.7-0.8,0.8-0.6,0.5l-0.7,0.8c-0.6,0.7-1.3,1.3-2.1,1.9c-0.8,0.6-1.1,0.4-0.8-0.5l0.7-1.7c-1,0.9-2.4,1.8-4.3,2.6
		c-1.2,0.5-1.2,0.1,0.1-1.3l2.3-2.3c-2.1,0.5-2.9,0.5-2.3,0c0.3-0.4,0.5-0.7,0.4-1.1l-0.1-0.4l-1.2-1c-0.4-0.3-0.5-0.4-0.3-0.4
		c0.4,0.2,0.8,0.3,1,0.2c0.3-0.1,0.9,0,1.9,0.1c0.5,0.1,0.9,0.1,1.4,0.2L291.6,101.3L291.6,101.3z"/>
	<path class="st0" d="M312,102.7c0-0.3,0.1-0.7,0.3-1c0.4-0.7,1.3-1,2.5-1.1c2.7-0.1,4.2-0.2,4.5-0.2c0.6-0.2,0.2,0.1-1.3,0.9
		l1.6,0.9c-1.3,0.2-2.4,0.3-3.2,0.5c-0.4,0.1-0.5,0.2-0.3,0.4c0.5,0.5,0.9,1.1,1.1,1.9c0.4,0.9,0.1,1.1-0.8,0.5l-1.4-1.2l-0.1,2
		c-0.1,0.9-0.7,0.2-1.8-2c-0.1,0.6-0.3,0.9-0.7,1C312.1,105.3,311.9,104.5,312,102.7L312,102.7z"/>
	<path class="st0" d="M300.2,109.9l0.5-1.5l0.9-1l0.7-1.4l0.7-0.2c0.5-0.2,1-0.3,1.2-0.2l3.3-3.6l1.4,0.9l1.4,1.5l1.2,1.8
		c0.9,1.1,1.4,2,1.7,2.4l-1.1,0.3c0.8,0.4,1.8,0.7,2.8,0.9c2.3,0.6,2.9,0.7,1.8,0.4l3.9-0.3c0.8,0,1.3,0,1.5,0.1l1.4,1.5l0.9-0.1
		c-0.7,0.1-1.4,0.2-2.1,0.4c-0.4,0.1-0.1,0.3,0.7,0.7c1.1,0.4,1.7,0.8,1.8,1.1c0.3,0.6-0.6,0.4-2.5-0.6l0.5,1.2
		c0.4,0.9,0.6,1.5,0.6,1.9c0.1,0.4-0.4,0.2-1.4-0.6c-1.1-1-1.8-1.5-2-1.7c-0.1-0.1-0.2,0-0.3,0.4c0,0.4-0.3,0.6-0.9,0.5l-0.4,1.7
		c-0.9-1.4-1.6-2.1-2.1-2.1c-0.3,0-0.5,0.1-0.6,0.3c-0.1,0.1-0.2,0.2-0.2,0.3l-0.5-0.9l-1.6,2l-0.2-2.8l-2.7-3.6
		c-0.4,0.4-0.2,1,0.6,1.8l-2.1-1.3c-0.5-0.3-0.7-0.1-0.3,0.5c0.2,0.3,0.4,0.7,0.7,1.1l-1,0.2c-0.3-0.8-0.6-1.4-1-2
		c-0.2-0.4-0.4-0.1-0.6,0.9c-0.1,0.5-0.1,1-0.2,1.5l-0.3,2.5l-1.1-0.9c0,0.1-0.1,0.2-0.3,0.3c-0.3,0.1-0.8,0-1.4-0.3
		c-0.5-0.3-0.8-0.3-0.8-0.1c0,0.7-0.3,1.3-0.8,1.9c-0.6,0.7-0.9,0.7-0.7,0c0.3-1.2,0.4-1.9,0.3-2.2c-0.1-0.4-0.3-0.5-0.7-0.1
		c-0.7,0.6-1.1,1-1.2,1c-1.1,0.5-1.6,0.8-1.8,0.8c-0.7,0.3-1,0.3-0.9,0c0.1-0.2,0.4-0.6,1-1.1c0.7-0.7,1.2-1.1,1.4-1.4l1-1.2
		L300.2,109.9L300.2,109.9z"/>
	<path class="st0" d="M299.7,121.1c-0.4-0.7-0.6-0.8-0.9-0.4c-0.1,0.2-0.2,0.5-0.2,0.9c-1,0.8-1.7,1.2-2.2,1.3
		c-0.4,0.1-0.3-0.2,0.1-0.8c0.4-0.6,0.8-1,1.2-1.3c0.3-0.2,0-0.3-0.7-0.2l-1.2,0.2l-0.9-0.6l1.8-0.4c1.2-0.4,2.1-0.8,2.7-1.2
		l4.4-1.1l-0.1,0.9l-0.2,0.6c-0.1,0.4-0.4,0.5-1,0.2l0.2,0.7c0.1,0.6,0.2,1.2,0.1,1.8c-0.1,1-0.6,0.7-1.4-0.9l-1,1.8
		c-0.3,0.6-0.5,0.8-0.5,0.5C300.1,122.3,300,121.6,299.7,121.1L299.7,121.1z"/>
	<path class="st0" d="M308.3,122.2l1.1-0.2c0.1-0.3,0.3-0.6,0.5-1c0.4-0.7,0.8-1.1,1.1-1.2c0.3-0.1,0.4,0,0.5,0.4
		c0.1,0.6,0.1,0.9,0.2,1.1c0.3,0.3,1,0.3,2.1-0.1l2.5,1.2l2.5,0.4l0.3,1.3l-3-0.1l1.1,2.8l-1.2,0.3l-0.2,1.7l-2.5-3.3
		c-1-1.3-1.5-1.7-1.3-1.2c0.1,0.3,0.3,0.7,0.5,1.2l-1.3,0.9l-0.8,1.8l-1.2-3.3l-1.3,1.1c0.7,1.8,0.6,2.4-0.3,1.9
		c-0.5-0.3-1-0.4-1.4-0.3l-0.4,0.3l-0.9,1.6l-0.6-1.7c-0.1-0.2-0.2-0.2-0.4,0c-0.5,0.6-1.1,1.2-1.9,1.8c-0.6,0.5-0.1-0.8,1.5-3.8
		l-1.5,0.4c-0.7,0.1-0.8,0-0.5-0.3l0.6-0.6c1-1,1.7-1.7,2.1-2.3c0.3-0.4,0.7-0.6,1.4-0.6h2c0.5,0,0.7-0.1,0.7-0.1
		C307.8,122.3,307.9,122.2,308.3,122.2L308.3,122.2z"/>
	<path class="st0" d="M320.3,119.6l2.4-0.1l0.2-1.1l2,0.3c1.1,0.1,2.1,0.8,3.3,2.1c0.3,0.3,0.1,0.5-0.4,0.3c-0.9-0.3-1.5-0.5-2-0.6
		c-0.5-0.1-0.6,0.2-0.2,0.8c0.5,0.9,0.7,1.5,0.7,1.7c-0.1,0.6-0.8,0.8-2.3,0.6c-0.6-0.8-1.4-1.8-2.3-2.9l-0.1,0.9
		c-0.1,0.6-0.3,1.1-0.6,1.3c-0.3,0.2-0.4,0.1-0.5-0.2c-0.2-0.7-0.3-1.1-0.4-1.2c-0.2-0.3-0.2-0.7-0.1-1.2
		C320.1,120.2,320.3,119.6,320.3,119.6z"/>
	<path class="st0" d="M278.6,149.6c0.4,0,0.7,0,1,0l1.3-1.1l-1.9-0.6l3.9-0.9c0.9-0.2,1.8-0.5,2.8-0.9c1.4-0.5,2.2-0.9,2.5-1.2
		c0.2-0.2,0.5-0.4,1.1-0.6c0.6-0.2,0.9-0.4,1.1-0.5c0.2-0.2,0.9-0.6,2.1-1.1c0.6-0.2,1.3-0.4,1.9-0.7c1.3-0.3,2.2-0.6,2.8-0.9l0,0
		l2.6-1l2.6-1.4l4.7-0.9l-2.1-1.7l2.9-0.7l2.6,0.4l1.3-0.5l2.3,0c1,0,1.7,0.2,2.1,0.5c0.2,0.2,0.3,0.4,0.4,0.5l1.9,1.2l0.7,0.2
		c0.3,0.1,0.3,0.2,0.2,0.2c-0.3,0.2-0.5,0.5-0.7,0.9c-0.2,0.4,0.4,0.8,1.8,1c0.7,0.1,1.4,0.1,2.1,0.1c-0.9,0.2-2,0.3-3.2,0.3
		c-0.6,0-0.9,0.1-0.7,0.2c0.6,0.3,1,0.7,1.1,1.1c0.3,0.9-0.1,1-1.4,0.3l-0.6,1.1l-1.7,1c-0.2,0.1-0.2,0.6-0.1,1.4
		c0,0.5,0.1,1.3,0.3,2.3c0.1,0.7-0.1,1-0.6,0.9c-0.4-0.1-1.2-0.6-2.3-1.4c-0.8-0.6-1.3-0.6-1.4,0c0,0.3,0,0.7,0.1,1.1l-0.4,1.5
		c-0.3,1.1-0.7,2-1.1,2.5c-0.7,0.8-0.7,0.5,0-1.1c0.4-1.4,0.5-2.5,0.2-3.3c-0.2-0.4-0.3-0.7-0.5-0.7l-0.2,0.1
		c-0.1,0.2-0.2,0.3-0.4,0.3c-0.3,0.1-0.4-0.1-0.6-0.7c-0.1-0.5-0.2-1.2-0.2-2v-1l-1.9-1.2l-0.5,2c-0.5,1.6-1.2,3-2,4.3
		c-0.8,1.3-1.2,1.7-1.2,1.3l0.3-1c0-1.2,0.1-2,0.4-2.3c0.2-0.2,0.2-0.6,0-1.1l-0.4-0.7l-2.4,1l-0.6,1.1c-0.4,0.8-0.7,0.7-0.9-0.2
		l-1.1-1.1l-1.3,3.7c-0.4,1.2-0.7,1.7-0.6,1.3c0.2-1,0.1-1.6-0.2-1.8c-0.3-0.2-0.5-0.6-0.6-1.2l-0.1-0.9l-0.7,0.6
		c-0.2,0.2-0.4,0.5-0.8,1.1c-0.3,0.6-0.7,1.1-1.2,1.6c-0.4,0.4-0.6,0.7-0.7,0.8c-0.2,0.3-0.6,1-1.3,1.9l0.9-4.4
		c-1,0.4-1.7,0.6-2.2,0.7c-0.3,0.1-0.8,0.7-1.4,1.8c-0.3,0.5-0.7,1.1-0.9,1.6l-0.4,1.5c-0.4,1-1.1,1.6-2,1.7c-0.7,0.1-1,0.1-0.8,0
		c0.6-0.3,1-0.6,1.1-0.9c0.1-0.4,0-1.1-0.5-2.1l-0.8-1.4l-1.1,0.6l-0.1,1.5c-0.2,1.1-0.5,1.9-0.9,2.4c0-1.2-0.1-2.3-0.3-3.2
		c-0.1-0.5-0.3-0.8-0.4-0.9l-0.1,0l-0.4,2.3l-2.4,3.6l0.3-0.9c0.1-0.3,0.1-0.9-0.2-1.5"/>
	<path class="st0" d="M278.8,161.8l1.9-1.1l3.8-1.1l1.9,0.6c0.4,0.1,0.8,0.1,1.1-0.1c0.7-0.4,1.4-0.9,2.1-1.4c1-0.7,1.7-0.7,2.2-0.1
		c0.3,0.3,0.5,0.8,0.8,1.4c0.3-0.3,0.7-0.6,1.1-0.9c0.8-0.6,1.3-1,1.6-1.1c0.3-0.2,0.7-0.2,1.4-0.2c0.3,0,0.6,0,0.9,0l2.5,0.4
		l1.7-0.4l1.1,0.1l1.6,0.4l0.4,1.1l1.6,0.2l-2.4,1l1.5,1.3l0,0l1.7,0.7c1.1,0.6,1.8,1.1,2.1,1.4c0.2,0.4,0.1,0.5-0.2,0.5
		c-0.5-0.2-0.9-0.3-1.2-0.3l-4.2-1.1L303,167c-0.3,1.4-0.7,1.8-1.3,1.1c-0.8-0.9-1.4-1.1-1.7-0.9l-0.7,0.6l-2.1,0.5l-2.2-3.1
		l-0.6,1.7v0l-2.5,2.8v-1.2l-0.6-0.9l-1.1,0.3l-1-2.8l-2.4,1.4l-2.5,4.6l-0.7,0.3l-1.4-0.4"/>
	<path class="st0" d="M278.4,171.1"/>
	<path class="st0" d="M281,174.6l1.8-0.4c-0.1,0-0.2,0.1-0.2,0.1c0.3,0,0.7,0.1,1.2,0.5c0.3,0.2,0.6,0.4,0.8,0.6l-0.8,0.8l-0.7,0.3
		c-0.3,0.2-0.5,0.4-0.7,0.7c-0.1,0.2-0.2,0.3-0.2,0.4l0.3,0.5c0.3,0.4,0.6,0.7,0.8,0.9c0.4,0.3,0.1,0.8-0.8,1.4l-2.2-0.9l-0.2-0.6"
		/>
	<path class="st0" d="M308.7,177.6l1.6,0.8l1,2.6l-0.3,0.9l-1.4,0.1l-2.4-0.9l0,1.8c-0.8,0.2-1.6,0.1-2.6-0.2
		c-0.6-0.2-0.9-0.1-1,0.1c-0.3,0.8-0.5,1.3-0.5,1.4c-0.3,0.4-0.4,0.6-0.3,0.4c0.1-0.4,0.1-0.7,0-0.9l-0.8-1.4
		c-1.7,1.3-2.9,1.9-3.4,1.6c-0.3-0.2-0.6-0.5-0.7-0.9l-0.2-0.5l-2,0.3l1.3-2.1l-1.2,0.3c-0.9,0.5-1.7,0.7-2.2,0.7
		c-0.3,0-0.4,0-0.3,0c0.2-0.2,0.3-0.3,0.3-0.5c0-0.2,0.1-0.5,0.4-0.8c0.3-0.4,0.4-0.7,0.5-0.8c0.1-0.2,0.1-0.3,0-0.2
		c-0.3,0.2-0.5,0.3-0.8,0.4c-0.4,0.2-0.7,0.3-0.8,0.3c-0.3,0.1-0.6,0.1-1-0.1c-0.3-0.1-0.4-0.2-0.3-0.2c0.3,0,0.5-0.2,0.5-0.4
		c0.1-0.3,0.3-0.7,0.6-1.3l0.5-0.8l-1,0.2c-0.6,0.5-1.8,1.1-3.5,1.8c-1.1,0.4-1.2,0.3-0.6-0.4l1.3-1.1c1-0.8,1.8-1.6,2.4-2.4
		c0.4-0.5,1.1-0.9,2-1.1c0.5-0.1,1.3-0.3,2.5-0.5l1.7,1.6c0.3,0.3,0.5,0.4,0.6,0.4c0.3-0.1,0.7,0,1.3,0.2c0.8,0.3,1.2,0.5,1.2,0.6
		c0,0.1-0.1,0.1-0.2,0.1l0.4,1.1l1.6-0.2c0.3-0.1,0.7-0.1,1.2,0c0.8,0.1,1.5,0.1,2.1,0C307.4,177.5,308.3,177.5,308.7,177.6
		L308.7,177.6z"/>
	<path class="st0" d="M324.5,166.4c0.2,0.2,0.4,0.3,0.5,0.5l2.1,0.7l3.9,2.5l-1.1,0.4c-0.4,0.2-0.5,0.2-0.5,0.2c0,0-0.1,0-0.4,0
		c-0.4,0.1-0.6,0.3-0.7,0.5c-0.1,0.2-0.3,0.4-0.4,0.4c-0.2,0.1-0.2,0.5,0,1.3c0.2,0.8,0.1,1.3,0,1.3c-0.3,0.1-0.5,0.2-0.6,0.5
		c-0.1,0.1-0.1,0.2-0.1,0.3l-2.4-1.5l-0.2,5.7c-0.7,0-1.2-0.4-1.5-1.2c-0.2-0.5-0.5-1.1-1-1.8l-0.6-0.8l-1,4.6l-1.7-4l0.1,0.8
		c-0.4,1.7-0.8,2.6-1.3,2.7c-0.3,0.1-0.6,0-0.9-0.1l-0.3-0.3l0.1-2.5l-1.9-0.6c-2.1,0.9-2.9,1.2-2.4,0.8c0.4-0.4,0.2-1.2-0.5-2.5
		c-1.8,1-2.7,1.2-2.8,0.9c-0.1-0.2,0.1-0.6,0.6-1.1l0.7-0.6l-3.4,0.8c-1.5,0.3-2.2,0.3-2.2,0c0-0.2,0.3-0.6,0.9-1.1
		c0.3-0.2,1-0.6,2.1-1c0.5-0.2,1.1-0.4,1.5-0.6l7.2-2.7c0.4,0,1.6-0.4,3.6-1.1c2-0.7,3.3-1.2,3.8-1.5
		C323.7,166,324.1,166.1,324.5,166.4L324.5,166.4z"/>
	<path class="st0" d="M316.3,144.1l0.5,1.1c0-0.2,0-0.4,0-0.6l0.1-0.4l1.2-1.1l1.6-0.4l1.7,0.1c0.1,0,0.4-0.3,0.9-1
		c0.5-0.7,1-1,1.6-0.9l1.3,0.3l1.6-0.5c0.3-0.1,0.4-0.3,0.3-0.8l-0.1-0.7l1.3-0.2c0.1,0,0.4-0.1,1-0.3c0.5-0.2,1-0.3,1.2-0.2
		c0.5,0.2,0.8,0.4,1,0.9c0.2,0.4,0.5,0.8,1.1,1.1c1.1,0.5,2.4,0.9,3.9,1.1c-0.2-0.2-0.3-0.4-0.3-0.5c0-0.2,0.5,0.1,1.5,0.8
		c1.6,1.1,2.6,1.8,3,2.1c0.6,0.4,1.5,0.7,2.5,1l2.8,1.1v0.2c0.3,0.3,1.2,0.8,2.7,1.6c5.7,3,8.4,4.4,8.2,4.3l-2.2-0.6
		c-2-0.6-3.2-1.1-3.7-1.3l-1.7-0.9l0.8,0.7c0.6,0.6,1.2,1,1.7,1.4l1.2,0.9c-1.3-0.4-2.1-0.7-2.5-0.9l-3-1.4c-0.1,0,0.3,0.3,1.1,0.9
		c0.9,0.8,1.5,1.6,1.8,2.2c0.3,0.7,0.2,1.1-0.2,1.1l-0.7-0.1l-3-2.6l3,3.8c-1.4-0.3-2.3-0.6-2.7-0.9l-1.5-1.5l-0.6-0.4l1,3l0.1,1.3
		l-3.3-3.8c0.3,1,0.2,1.3-0.3,1c-0.2-0.2-0.6-0.7-1.1-1.5c-0.5-0.8-0.8-1.3-0.9-1.3c-0.3-0.2-0.4-0.2-0.5-0.2
		c-0.2,0-0.3,0.2-0.4,0.6l-0.3,1l-1-0.5l-0.7-1c-0.7-1.5-1.3-2.5-1.8-2.9c-0.3-0.3-0.7-0.5-1-0.8l-5.1-2.6l-0.4,0.1
		c-0.2,0.2-0.1,0.4,0.2,0.8c0.6,0.6,1.2,1.2,1.8,1.8l1.9,2c2.8,2.6,4,3.8,3.4,3.5c-0.1,0-1-0.4-2.7-1.1c-0.4-0.4-0.8-0.6-1-0.8
		c-0.4-0.3-0.7-0.4-0.9-0.1c-0.1,0.2,0,0.6,0.4,1.1c0.1,0.2-0.1,0-0.8-0.4c-1.9-1.4-3-2.3-3.5-2.6l-2.2-2l-1.5-0.9l-2.1-0.5l0.6,1.4
		c2,0.7,2.3,1,1.1,0.8l-1.9-0.2c1.7,1.4,2.3,2.2,2,2.2c-0.3,0-1.1-0.2-2.4-0.8c-0.1-0.1-0.2,0-0.2,0.2c0,0.3-0.2,0.5-0.5,0.6
		c-0.3,0.2-0.7,0.1-1.1-0.1c-0.4-0.3-0.7-0.5-0.8-0.6c-0.4-0.2-0.7-0.5-1-0.8l-0.3-0.5c-0.3-1.7-0.6-2.6-0.7-2.8l-1.4,4
		c-0.2,0.6-0.3,0.9-0.2,1.1c0,0.1,0.1,0.1,0.2,0l-0.8,0.6c-0.5,0.4-0.7,0.2-0.5-0.6l-0.9,0.4l-1.4-0.8c-0.3-0.4-0.8-0.6-1.5-0.5
		c-0.3,0.1-0.4,0-0.4-0.1c0.2-0.4,0.3-0.8,0.2-1.2c0-0.5-0.2-0.8-0.4-0.9l-0.3,0.1l-1.8-0.7l1.6-0.6c-0.9-0.6-1.5-1.1-1.9-1.5
		c-0.2-0.2-0.1-0.4,0.2-0.4c0.2,0,0.3,0,0.5,0l1,0.1l0.3-1c1.8,0.6,2.9,0.9,3.3,0.8L316.3,144.1L316.3,144.1z"/>
	<path class="st0" d="M348.3,161.4c-0.5,0.4-0.8,0.7-0.7,0.9c0.2,0.4-0.1,1.1-0.9,2.2l2.7,1.1l-1.1,0.3c-0.6,0.2-1,0.4-1,0.7
		c0,0.4,0.6,0.9,1.6,1.6c1.3,0.9,2.1,1.3,2.4,1.4l-3.6-0.3l0.9,0.6c0.5,0.3,0.9,0.8,1.2,1.2c0.4,0.5,0.4,0.9,0.2,1.1
		c-0.3,0.2-1.9-0.1-4.7-0.9l1.9,1.7c1.2,1.2,1.8,2.1,1.8,2.6c-0.1,0.4-0.3,0.5-0.8,0.3c-1.3-0.5-2.9-0.9-4.8-1.2
		c-2.3-0.4-2.9-0.3-1.7,0.1c0.6,0.2,1.4,0.5,2.4,0.8l-0.6,1.9l-2.6-2l0,1c0,0.7-0.1,1.1-0.3,1.3c-0.2,0.2-0.7,0.1-1.6-0.3
		c-0.9-0.5-1.5-0.8-1.8-0.9c-0.3-0.1-0.3,0.2-0.1,0.9c0.1,0.3,0.3,0.7,0.4,1.1l-3-1.3l-2.6,0.8c-1.1,0.3-1.7,0.4-1.8,0.2l0.2-0.4
		l0.7-0.3c0.5-0.3,1.3-1.1,2.6-2.6l1.2-1.9c0.8-1.2,1.7-2.2,2.7-2.8c0.6-0.4,1.3-0.9,2-1.6l0.8-0.9c0.4-0.4,0.9-1.1,1.4-2
		c0.5-1,0.7-1.6,0.7-2c0-0.4,0.1-0.6,0.5-0.8l0.6-0.2l1.3,0.1c0.4,0,0.7,0,0.8-0.1c0.3-0.3,0.8-0.5,1.6-0.9
		C348.2,161.3,348.5,161.3,348.3,161.4L348.3,161.4z"/>
</g>
<path class="st0" d="M99.5,121l-0.7-0.5l0.5,0.9c0.3,0.6,0.3,1,0,1.2c-0.2,0.3-0.7,0.2-1.5-0.1l0.9,2.5"/>
<path class="st0" d="M78.3,170.4c-1.3-1.2-1.7-1.3-1.2-0.2c0.2,0.6,0.7,1.6,1.3,2.9c0.3,0.8-0.2,1.6-1.4,2.5l-0.9-1l0.5,2.1
	c-0.7,1.4-1.4,2.1-2.1,2.1c-0.4,0-0.7-0.2-0.8-0.6c-0.1-0.5-0.2-0.9-0.3-1.1l-0.9-2.5c-0.1-0.2-0.2-0.2-0.3,0
	c-0.4,0.6-1,1.1-1.6,1.7c-0.6,0.5-1.2,1-1.7,1.5c-0.2,0.1-0.3,0-0.4-0.3l-0.9-2.7c-0.1-0.4-0.7-0.9-1.6-1.5l-6.1,2.6l1.4,2.1
	l-2.2,1.7l-2.3-1.7l-0.2,6.1l-0.6-1.8l-2.7-1.1l0.2,1.4l-0.3,2l-1.4-1.9c-0.6-1.2-1.1-2-1.6-2.6l-1.1,4.9l-0.5-1.4
	c-0.2-0.5-0.4-1-0.7-1.2l-0.3-0.2l-0.9-1.2l0.1,2.6c0.1,1.2,0,1.7-0.3,1.2s-0.5-1.1-0.8-2.2c-0.2-0.8-0.4-1.2-0.6-1.2l-0.3,0.2
	l-0.4,0.9c-0.4,0.7-0.9,1.5-1.6,2.2c-0.7,0.7-1.1,0-1.2-2.1l0.1-3.3l-2.4,2.5l-0.6-1.1l-0.8-1l-0.1,0c-0.6,0.8-1.3,1.3-2,1.5
	c-0.5,0.2-0.6-0.2,0-1.3c-1.2,0.1-1.9,0.1-2.2,0c-0.4,0.2-0.8,0.3-1.1,0.3l-2.9,1.8c-1.7,1.1-2.7,1.5-2.8,1.3
	c-0.6-0.9-1.3-1.5-2.1-1.8c-1.5-0.5-2.2-0.5-2.2,0c0,0.2,0.2,0.5,0.5,0.8l-6,0.9c-2.5,0.4-3.6,0-3.2-1.2l1.3-1.9l-3.3,0.7
	c-1.4,0.3-2.5,0.4-3.4,0.4c-1.1-0.1-2.2-0.2-3.3-0.2c-1.3,0-1.6-0.1-0.8-0.3c0.4-0.1,0.9-0.2,1.6-0.3l5.9-6.6c0.1-0.4,0.1-1.6,0-3.3
	c0-0.8,0.3-1.8,0.9-3.1c-1,0.3-1.6,0.3-1.8-0.2c-0.5-0.8-0.9-0.9-1.4-0.5l1.3-2l-5.4,1.9l-2.3,0.5c4.4-2.9,6.7-4.7,6.9-5.6
	c0.1-0.5,0.6-1.1,1.4-1.6l1.1-0.6c0.3-0.3,0.7-0.6,1.2-1c1.1-0.7,2.2-1.2,3.5-1.4c1.7-0.4,2.8-0.6,3.3-0.8c0.8-0.2,1.5-0.5,2.2-0.9
	l2-0.4l3.5-5.8c-1.3,1.6-2.3,2.3-2.8,2.2c-0.3,0-0.3-0.4,0-1.1c0.5-1.1,0.7-1.8,0.8-2.2c0.1-0.7,0-1-0.3-0.9
	c-0.3,0.1-0.9,0.7-1.9,1.8c-0.8,0.9-1.2,1.2-1.3,1c0-0.2,0-0.6,0.2-1.2c0.1-0.3-0.2-0.5-0.9-0.4l-1.1,0.1l-2.5,3.7l-1.1,0.5l-1-2.2
	c-1,3-1.7,4.7-2.1,5.1c-0.3,0.3-0.5,0.3-0.8,0c-0.2-0.3-0.3-0.8-0.3-1.4c0-0.5,0-1.1-0.2-1.6l-0.3-0.7l-0.8,1.1
	c-0.7,1-1.4,2.1-2.3,3.2c-0.9,1.1-1.4,1.6-1.7,1.4c-0.1-0.4-0.3-0.8-0.4-1c-0.2-0.3,0-0.7,0.4-1.4l1.8-2.4l-3.2,0.9l2.6-3.7
	c-2.5,0.5-3.5,0.4-3-0.4c0.4-0.5,1.7-1.3,3.8-2.4c1.7-0.9,3.1-1.5,4.1-2c0.4-0.2,1.4-0.7,2.8-1.6c1.3-0.8,2.1-1.3,2.3-1.3l3.2-1.4
	c2-0.9,3.5-1.5,4.3-1.6l6.2-2.6l0.1-2.1l-2.6,1.2l-4.9-1.9l2.1-0.8c1.2-0.4,1.8-0.7,1.9-0.8c0.2-0.2,0.2-0.7,0.1-1.6
	c-0.1-0.6-0.1-0.9-0.2-1c-0.2,0-0.5-0.4-0.9-1.1l3.8-1.5c1.8-0.9,3.5-1.8,5.1-2.6c0.6-0.3,0.9-0.5,0.9-0.5c0-0.1-0.3-0.1-0.8-0.1
	c-2.2,0-4.4-0.3-6.5-0.8c-1.5-0.3-2.3-0.6-2.3-0.7c0-0.1,0.5-0.3,1.4-0.5c3.2-0.5,5.1-1.1,5.8-1.7c0.8-0.7,1.1-1,0.9-0.9
	c-0.7,0.2-1.1,0.2-1.2-0.2c-0.2-0.4,0.4-0.8,1.6-1.1c0.6-0.2,1.2-0.3,1.9-0.3l-0.5-1.4l-4-1.1l3.3-1.8c3-2.1,4.9-4.1,5.9-5.8
	c0.3-0.4,0.4-0.9,0.5-1.4c-1.4,0.1-2.7,0-4.1,0c-1.1-0.1-1.5-0.2-1.1-0.2c1.3-0.2,2.3-0.5,3-0.9l1.8-1l-0.7-1l-6.2,0.5l1.2-3.3
	l3-1.8l-5.7-0.4l1.8-3l5.4-5l-4.7-1c-0.5-0.1-0.7-0.2-0.6-0.2c0.4-0.1,0.5-0.2,0.4-0.4c-0.1-0.3-0.5-0.3-1.3,0.1l-1.2,0.7l1.2-2.2
	L33.2,87l2.7-3.2c2-1.5,3.1-2.6,3.4-3.3c1.2-0.8,2.5-1.6,3.8-2.2l-0.7-1.6l1.1-1.1l-0.1,0c-0.2-0.3-0.9-0.2-2.1,0.1l-1.7,0.6
	l1.8-1.6L40,74.1l-1.6-0.9l5.2-1.8c0-0.6,1.4-2,4.3-4.1c1.2-0.9,1.7-1.5,1.4-1.8l-0.7-0.3l-1.4-1.9c-1.1,0.2-1.8,0.3-2,0.2v-0.8
	c0-0.3,0.8-1,2.3-2l2.3-1.4l-0.7,0.1c-0.5,0.1-2.2,0-5.1-0.2c3.9-1.8,6.7-3.1,8.3-3.9c1.7-0.8,2.9-1.4,3.7-1.8
	c1.3-0.7,2.2-1.4,2.6-2l6.8-1.6l3.4,3.6c1,1.1,2.3,2.3,3.8,3.7c1.5,1.4,2.1,2.1,1.6,2l-1.1-0.6l-2.7,1l-3.3-0.3l1.4,4.2l1.1,5
	c0.2,0.8,0.3,1.3,0.2,1.3c0,0.1-0.2,0-0.5-0.2c-1.3-1.1-2.8-1.7-4.3-2.1c-1.2-0.3-1.8-0.4-2-0.4s0,0.1,0.3,0.3
	c1.4,0.9,2.2,1.7,2.5,2.5c0.3,0.6,0.3,1.2,0.1,1.9c0.6,0.2,1.3,0.4,1.9,0.5l2.7,0.4l0.8,0.3c0.6,0.3,1.1,0.5,1.5,0.7
	c0.6,0.3,1.6,0.8,3,1.3c-1.9,0.4-3.2,0.6-3.9,0.5c-0.4,0-0.5,0.2-0.1,0.7c0.2,0.2,0.4,0.4,0.6,0.7l-4.7,0.2v0.7
	c0,0.3-0.7,0.2-2.1-0.5l0.2,0.5l-2.8,1l0.8,1.8c1-0.2,1.6-0.2,2,0c0.2,0.1,1.7-0.2,4.5-0.9c2.8-0.6,4.4-1.1,4.9-1.3
	c0.4-0.2,0.7-0.3,1.1-0.3c0.7-0.1,1.1-0.1,1.2-0.1c0.6-0.1,0.6,0.4,0,1.5c-0.8,0.5-1.6,0.9-2.3,1.2c-0.4,0.2-0.2,0.4,0.9,0.7
	c0.5,0.1,1.1,0.2,1.7,0.3L73,83c-1.2,0.3-1.5,0.6-0.9,1.1c0.3,0.3,0.7,0.5,1.2,0.7l-1.9,0.2l3.9,3c1.8,1.4,2.2,2.4,1.1,2.9
	c-0.5,0.3-1.2,0.4-2.1,0.4l-3,2.2l1.2,0.3c2.4,0.7,5,1.7,7.8,3.1l-4.3,1.4c-1.6-0.3-2.8-0.4-3.6-0.2c0.6,0.4,0.8,1.1,0.5,2.2
	l2.3,0.1l2.4,2l1.4-0.3l1.4,0.4"/>
<g>
	<path class="st0" d="M57.9,40.8c0.9,1.1,1.5,1.8,1.8,2.1c1,0.9,1.5,2.1,1.5,3.6l1.2,3.4l0.4-1.1l0.7,2.8l0.3,0.9
		c0.3,0.7,0.5,1.2,0.7,1.6c0.4,0.6,0.7,1.3,0.8,2.2l1.1,2.7l-2.4-0.5c-0.2-0.6-0.7-1.3-1.5-2.1c-0.4-0.5-0.7-0.4-0.8,0.3
		c-0.1,1.1-0.2,1.7-0.2,1.9c-0.3,0.6-1.4,1.7-3.2,3.3c-0.2-1.1-0.2-2-0.1-2.7c0.1-0.4-0.1-0.6-0.5-0.5l-4.3,2
		c-0.9,0.5-1.5,0.8-1.8,0.9c-0.4,0.1-1.5,0.3-3.3,0.4c-1.3,0.1-1.8,0.1-1.4,0c1.1-0.2,1.8-0.4,2-0.7c0.9-0.6,1.6-1.1,2.1-1.5
		c1.1-0.8,1.7-1.4,1.6-1.7c-0.1-0.3-0.3-0.4-0.7-0.2l-0.5,0.3L48.3,59c-1.3,0.3-1.8,0.2-1.6-0.2l0.6-0.6c2.2-0.6,3.7-1.1,4.7-1.7
		c0.6-0.3,1.2-0.9,1.8-1.7c0.7-1,1.2-1.7,1.5-1.9c0.2-0.8,0.4-1.6,0.6-2.5c0.4-1.7,0.8-2.6,1.2-2.8c0.4-0.2,0.7-0.6,0.8-1.1
		c0.1-0.3,0.2-0.8,0.3-1.6c0.1-0.4-0.1-1.1-0.6-2.4c-0.4-1.3-0.6-2-0.5-2.3C57.2,39.9,57.4,40.1,57.9,40.8L57.9,40.8z"/>
	<path class="st0" d="M37.9,72c1-0.2,1.7-0.4,2.2-0.7c1.6-0.6,3.1-1.3,4.5-2.1l6.3-1.8c0.4-0.1,0.6-0.1,0.7-0.1h-0.2l0.2,0
		c0.4-0.1,0.8,0.2,1,0.8l1,0.8c0.7,0.5,1.4,0.9,2.1,1.1l0.1,2.7l-1.4,2.5l-0.7,0.1c-0.3,0.1-0.5-0.2-0.7-0.7l-0.1-0.8l-1-1.3
		c-0.4-0.5-0.7-0.7-1-0.4c-0.1,0.2-0.2,0.4-0.2,0.6c-0.3,1.1-1.1,1.8-2.3,2.1c-0.8,0.3-1.2,0.1-1.2-0.4l0.1-0.8l-1.8,4.5l-0.8-3
		l-2.5,1.5l-2.8,0.8l1.1-2.7l-4.2,1.1l-2.5,0l5.4-2.1c-1.1-0.3-2.5-0.6-4.2-1.1c-1.1-0.3-1.1-0.4-0.2-0.4c0.4,0,1,0.1,1.7,0.1
		L37.9,72L37.9,72z"/>
	<path class="st0" d="M64.8,77.1c1.5,1.5,1.8,2.1,0.9,1.6l-5.4-3.6l1,1.3c0.7,1,1.4,1.5,1.9,1.8c0.8,0.3,0.7,0.7-0.2,1
		c-0.7-0.5-1.5-0.7-2.4-0.5l-2-0.6L58,79.3c-0.2,0-0.4-0.6-0.9-1.8c-0.1-0.2,0.1-0.9,0.5-2.1l0.7-1.8l2-0.9l1,0.9
		C62.1,74.4,63.3,75.6,64.8,77.1z"/>
	<path class="st0" d="M41.2,84.2c-0.2,0.6-0.5,1.3-1.1,1.9c-0.8,0.8-1,1-0.8,0.7l-0.8,1c-0.7,0.8-1.6,1.5-2.7,2.2
		c-1,0.7-1.4,0.5-1-0.7l0.9-2c-1.1,1.1-2.9,2.1-5.3,3.1c-1.5,0.6-1.4,0.1,0.2-1.6l2.9-2.7c-2.5,0.5-3.5,0.5-2.8-0.1
		c0.4-0.4,0.6-0.8,0.6-1.2L31,84l-1.4-1.2c-0.4-0.4-0.6-0.5-0.4-0.5c0.5,0.3,0.9,0.4,1.1,0.3c0.3-0.1,1,0,2.2,0.1
		c0.6,0.1,1.2,0.2,1.7,0.3L36,82c0.6-0.4,1.2-0.7,1.6-0.8c0.7-0.3,1.1-0.4,1.2-0.5l3.9-2.1l1.1,1.2l0.8,0.1c0.5,0.1,0.9,0.5,1.2,1.2
		l-0.5,1.5l-2.1,2.7c-0.5,0.6-0.7,0.8-0.7,0.7c0.1-0.3,0-0.4-0.4-0.2c-0.4,0.2-0.7,0-0.8-0.6C41.2,85,41.1,84.6,41.2,84.2z"/>
	<path class="st0" d="M60.7,84.3c0-0.4,0.1-0.8,0.4-1.2c0.6-0.8,1.6-1.2,3.1-1.2h3.6c0.7,0,1.4,0,1.9-0.1c0.8-0.2,0.2,0.2-1.7,1.1
		l1.9,1.1c-1.6,0.2-2.9,0.4-3.8,0.6c-0.5,0.1-0.6,0.2-0.4,0.4c0.6,0.6,1.1,1.4,1.3,2.3c0.4,1.1,0.1,1.3-0.9,0.5l-1.7-1.5v0.7
		c0,0.6,0,1.2-0.1,1.8c-0.2,1-0.9,0.2-2.1-2.5c-0.1,0.7-0.4,1.1-0.9,1.1C60.7,87.5,60.5,86.5,60.7,84.3z"/>
	<path class="st0" d="M55.3,83.2l1.6,1.1l5.2,7l-1.3,0.4c1.1,0.5,2.2,0.9,3.3,1.2c2.8,0.7,3.5,0.9,2.2,0.5l4.7-0.2
		c1-0.1,1.6,0,1.8,0.1l1.6,1.9l1.2,0c-0.9,0-1.8,0.1-2.6,0.3c-0.5,0.1-0.2,0.4,0.9,0.9c1.3,0.6,2.1,1.1,2.2,1.4
		c0.3,0.8-0.8,0.5-3.1-0.8l0.6,1.5c0.4,1.1,0.7,1.9,0.7,2.4c0.1,0.5-0.5,0.3-1.7-0.8c-1.3-1.2-2-1.9-2.3-2.1c-0.2-0.2-0.3,0-0.3,0.4
		C70,99,69.6,99.1,69,99l-0.5,2.1c-1.1-1.7-1.9-2.6-2.4-2.7c-0.4,0-0.6,0.1-0.8,0.3c-0.1,0.1-0.2,0.3-0.2,0.4L64.3,98l-2,2.3
		l-0.1-3.4l-3.2-4.4c-0.5,0.5-0.3,1.3,0.7,2.2c-0.7-0.5-1.6-1.1-2.6-1.7c-0.6-0.4-0.7-0.2-0.3,0.6c0.2,0.4,0.4,0.8,0.8,1.3l-1.2,0.2
		c-0.3-0.9-0.7-1.7-1.1-2.4c-0.3-0.4-0.5-0.1-0.8,1.1c-0.1,0.6-0.2,1.2-0.3,1.9l-0.5,3l-1.4-1.2c0,0.2-0.1,0.3-0.3,0.4
		c-0.4,0.2-1,0-1.7-0.4c-0.6-0.4-0.9-0.4-1-0.1c0,0.8-0.4,1.6-1.1,2.3c-0.8,0.8-1.1,0.8-0.9,0c0.4-1.5,0.5-2.3,0.5-2.6
		c-0.1-0.6-0.4-0.6-0.9-0.2c-0.9,0.7-1.4,1.1-1.5,1.2c-1,0.4-1.7,0.7-2.1,0.9c-0.9,0.3-1.2,0.3-1.1,0c0.1-0.3,0.5-0.7,1.3-1.4
		c0.9-0.8,1.5-1.3,1.7-1.7l1.3-1.5l-0.3-1.6l0.6-1.9l1.1-1.2l1-1.7l0.9-0.3c0.6-0.2,1.1-0.2,1.5-0.2L55.3,83.2L55.3,83.2z"/>
	<path class="st0" d="M41.1,108.4c-0.4,0.1-0.4-0.2,0.2-1c0.5-0.6,1-1.2,1.5-1.6c0.4-0.3,0.1-0.3-0.9-0.2l-1.4,0.2l-1-0.8l2.1-0.4
		c1.5-0.5,2.6-1,3.3-1.4l5.4-1.1l-0.1,1l-0.2,0.8c-0.2,0.5-0.6,0.6-1.2,0.2L49,105c0.1,0.8,0.2,1.5,0.1,2.2
		c-0.1,1.1-0.7,0.8-1.7-1.1l-1.2,2.2c-0.4,0.8-0.6,1-0.6,0.6c0.1-1.1,0-1.9-0.3-2.6c-0.4-0.8-0.7-1-1-0.5c-0.2,0.3-0.3,0.6-0.3,1
		C42.7,107.8,41.7,108.3,41.1,108.4L41.1,108.4z"/>
	<path class="st0" d="M62.3,106.7l3.1,1.6l3,0.6l0.3,1.7l-3.6-0.2l1.1,3.4l-1.4,0.3l-0.3,2l-2.9-4.1c-1.2-1.7-1.8-2.1-1.6-1.5
		c0.1,0.3,0.3,0.8,0.6,1.5l-1.6,1.1l-1.1,2.1l-1.4-4.1l-1.6,1.3l0.3,1.5c0.1,0.9-0.1,1.2-0.8,0.8c-0.7-0.4-1.2-0.5-1.7-0.4l-0.6,0.3
		l-1.1,2l-0.7-2.1c-0.1-0.2-0.2-0.2-0.4,0c-0.6,0.7-1.4,1.4-2.4,2.1c-0.8,0.6-0.1-1,2-4.6l-1.9,0.4c-0.8,0.2-1,0-0.6-0.4l0.8-0.7
		c1.2-1.1,2.1-2,2.6-2.7c0.4-0.5,0.9-0.7,1.7-0.7c0.4,0,1.2,0,2.3,0.1c0.6,0,0.9-0.1,0.8-0.1c-0.1,0,0,0,0.4-0.1l1.4-0.3
		c0.2-0.4,0.4-0.7,0.6-1.1c0.5-0.8,0.9-1.2,1.2-1.4c0.4-0.2,0.6,0,0.6,0.5c0.1,0.7,0.1,1.2,0.2,1.3
		C60.1,107.2,60.9,107.2,62.3,106.7L62.3,106.7z"/>
	<path class="st0" d="M73.6,103.7l2.4,0.5c0.6,0.1,1.3,0.4,2.1,1c0.7,0.5,1.3,1,1.8,1.6c0.4,0.4,0.2,0.6-0.5,0.4
		c-1.1-0.3-1.8-0.6-2.4-0.8c-0.6-0.2-0.7,0.2-0.3,1c0.6,1.1,0.8,1.8,0.8,2.1c-0.1,0.7-1.1,0.9-2.8,0.6c-0.7-1-1.6-2.2-2.7-3.6
		l-0.1,1.1c-0.2,0.8-0.4,1.3-0.8,1.6c-0.3,0.3-0.5,0.1-0.6-0.3c-0.2-0.8-0.4-1.3-0.5-1.4c-0.2-0.4-0.2-0.8,0-1.4l0.3-0.8l3-0.1
		L73.6,103.7L73.6,103.7z"/>
	<path class="st0" d="M21.5,139.1l-2.3-0.7l4.7-1c1.1-0.2,2.2-0.5,3.4-1c1.7-0.5,2.7-1,3.1-1.4c0.2-0.2,0.6-0.4,1.3-0.6
		c0.7-0.2,1.1-0.4,1.3-0.6c0.3-0.3,1.1-0.7,2.7-1.2c0.8-0.3,1.5-0.5,2.2-0.8c1.6-0.3,2.7-0.6,3.4-1c0.7-0.3,1.8-0.7,3.2-1.1l3.2-1.6
		l5.7-1l-2.5-2.1l3.5-0.8l3.2,0.6l1.5-0.6l2.9,0.1c1.2,0.1,2,0.3,2.5,0.7c0.3,0.2,0.4,0.4,0.4,0.6l2.2,1.5l0.9,0.3
		c0.3,0.1,0.4,0.2,0.2,0.3c-0.3,0.3-0.6,0.6-0.8,1.1c-0.4,0.9,1.2,1.4,4.8,1.5c-1.1,0.2-2.4,0.3-3.9,0.3c-0.8,0-1,0.1-0.8,0.2
		c0.7,0.4,1.2,0.9,1.3,1.4c0.2,0.7,0,0.9-0.6,0.8l-1-0.4l-0.8,1.4l-2.1,1.2c-0.3,0.1-0.4,0.7-0.3,1.7c0.1,0.6,0.2,1.5,0.3,2.9
		c0.1,0.9-0.2,1.3-0.8,1.1c-0.5-0.2-1.4-0.8-2.7-1.8c-1-0.8-1.6-0.9-1.7-0.1c0,0.4,0,0.8,0.1,1.4l-0.5,1.8c-0.4,1.4-0.9,2.4-1.4,3
		c-0.8,1-0.8,0.6,0.1-1.2c0.6-1.7,0.7-3,0.4-4c-0.2-0.6-0.4-0.9-0.6-0.9l-0.2,0.1c-0.1,0.2-0.3,0.3-0.5,0.4
		c-0.3,0.1-0.5-0.2-0.7-0.9c-0.1-0.7-0.2-1.5-0.2-2.4v-1.2l-2.3-1.5l-0.7,2.4c-0.6,1.9-1.5,3.6-2.5,5.1c-1.1,1.6-1.6,2.1-1.5,1.6
		l0.4-1.1c0-1.5,0.2-2.4,0.6-2.8c0.3-0.2,0.3-0.6,0-1.2l-0.5-0.8l-2.9,1.1l-0.8,1.4c-0.4,0.6-0.6,0.7-0.9,0.4l-0.2-0.6l-1.2-1.4
		l-1.8,4.5c-0.6,1.5-0.8,2-0.8,1.6c0.2-1.2,0.1-2-0.2-2.1c-0.4-0.2-0.6-0.7-0.8-1.5l0-1.1l-0.8,0.7c-0.2,0.2-0.5,0.6-1,1.3
		c-0.4,0.7-0.9,1.4-1.5,1.9c-0.5,0.5-0.8,0.8-0.9,1c-0.2,0.4-0.7,1.2-1.6,2.2l1.2-5.4c-1.2,0.4-2.1,0.7-2.8,0.8
		c-0.4,0.1-1,0.8-1.8,2.1c-0.4,0.7-0.8,1.3-1.1,2l-0.5,1.8c-0.6,1.2-1.4,1.9-2.5,2c-0.9,0.1-1.2,0.1-1,0c0.8-0.4,1.2-0.7,1.3-1.1
		c0.2-0.4,0-1.3-0.6-2.6l-0.9-1.8l-1.2,0.8l-0.2,1.8c-0.3,1.3-0.7,2.3-1.2,2.9c0-1.5-0.1-2.7-0.3-3.8c-0.1-0.7-0.3-1.1-0.4-1.2
		l-0.2,0.1l-0.5,2.8l-3.1,4.3l0.4-1.1c0.2-0.4,0.1-1.1-0.2-1.9l-0.5-1.1l-3.4,3.4l-0.8,1.4c-0.7,1.1-1.7,1.8-2.8,2.2
		c-1.1,0.4-2.1,0.7-3,0.9l-1,0.1l5-4.7l-8.6,1.5l6.8-2.4c0.9-0.4-1.2-0.2-6.2,0.6l9.7-4.3l-2.1,0.5c-2.9,0.6-5.1,0.9-6.5,1.1
		c-0.9,0.1-0.7-0.2,0.7-0.7c0.8-0.3,2.2-0.8,4.2-1.6c0.9-0.4,1.9-1,2.9-1.9c1.2-1.1,2.1-1.8,2.8-2.2c1.1-0.6,2.1-0.9,3.1-1
		c0.5,0,0.9,0,1.2,0.1L21.5,139.1L21.5,139.1z"/>
	<path class="st0" d="M38.7,150.9c0.4-0.2,0.9-0.3,1.7-0.2c0.4,0,0.7,0,1.1,0.1l3,0.6l2.1-0.4l3.3,0.8l0.5,1.4l1.9,0.3l-2.9,1.1
		l1.8,1.6l2,1c1.4,0.7,2.2,1.3,2.5,1.8c0.3,0.5,0.2,0.7-0.3,0.6c-0.2,0-0.7-0.2-1.5-0.5l-5-1.4l-1,4.6c-0.4,1.7-0.9,2.2-1.6,1.4
		c-1-1.1-1.6-1.4-2.1-1.1l-0.8,0.7l-2.6,0.5l-2.6-3.8l-0.8,2.1v0l-3.2,3.3v-1.5l-0.6-1.1l-1.4,0.3l-1.1-3.4l-3,1.6l-3.2,5.5
		l-0.9,0.4l-1.8-0.6l-4.8,3.7c-0.2-1.4,0-2.7,0.5-3.8c0.3-0.7,0-0.6-0.8,0.3c-0.4,0.5-0.9,1-1.3,1.6l-1.2,1
		c-1.1,0.8-2.7,1.4-4.6,1.9s-2.3,0.2-1-0.9l2.5-1.9c0.4-0.3,0.9-0.7,1.4-1.1c1.1-0.8,1.8-1.2,2.3-1.4c0.7-0.3-0.1-0.9-2.4-1.7
		l-2.1,2.1l-5.4,2.1l-2.9-0.1c0.9-0.5,1.5-0.9,2.1-1.4c0.5-0.3,0.9-0.5,1.2-0.7c0.6-0.4,1.5-1.3,2.5-2.5c1.1-1.2,1.2-1.5,0.3-0.8
		c-0.4,0.4-0.9,0.9-1.6,1.5l-3.8,0c0.1-0.2,0.2-0.4,0.4-0.6c0.4-0.4,0.8-0.8,1.4-1c0.9-0.3,1.4-0.8,1.6-1.3l5.8-2.2l-2.3-1l3.8-0.8
		l3-1.6c0.6-0.3,1.1-0.7,1.6-1.1l2.4-1.2l4.6-1.2l2.3,0.8c0.5,0.1,0.9,0,1.3-0.1c0.8-0.5,1.7-1.1,2.6-1.7c1.2-0.8,2.2-0.8,2.8-0.1
		c0.3,0.4,0.6,1,0.9,1.8c0.4-0.3,0.8-0.7,1.3-1C37.7,151.6,38.4,151.1,38.7,150.9L38.7,150.9z"/>
	<path class="st0" d="M24.3,171c0.4,0.3,0.7,0.5,1,0.8l-1,0.9l-0.9,0.4c-0.4,0.2-0.6,0.4-0.9,0.8c-0.1,0.2-0.2,0.3-0.2,0.4l0.4,0.6
		c0.4,0.5,0.7,0.8,1,1.1c0.5,0.4,0.2,1-1,1.7l-2.7-1.1l-0.2-0.7c0.1,0.4-0.9,0.5-3.2,0.2l0.2,2.1c-0.3-0.3-0.5-0.5-0.9-0.8
		c-0.7-0.5-1.1-0.7-1.4-0.7c-0.3,0.1-0.5,0.4-0.6,1.1c0,0.3,0,0.6,0,1l-1.4-1.9l-2.2,3.9L9.3,179L7,182.4l-1.1-2.2l-0.8,0.6
		c-0.7,0.6-2.3,0.9-4.8,1c-0.6,0-0.5-0.2,0.1-0.6c1.1-0.6,1.6-0.9,1.7-1l2.6-2.8l3-1.6c1.7-0.7,3-1.4,4.1-2.3l2.5-1
		c2.1-0.8,4.3-1.4,6.6-1.9l2-0.4h0C23.3,170.3,23.7,170.5,24.3,171z"/>
	<path class="st0" d="M51.3,175.1c1.7,0,2.8,0,3.3,0l1.9,1.1l1.1,3.2l-0.4,1.1l-1.8,0.1l-2.9-1.1v2.2c-1,0.2-2,0.1-3.2-0.3
		c-0.7-0.3-1.1-0.2-1.2,0.1c-0.4,1-0.6,1.5-0.7,1.7c-0.3,0.5-0.5,0.6-0.4,0.5c0.2-0.5,0.2-0.9,0-1.1c-0.2-0.3-0.4-0.6-0.6-1.1
		l-0.2-0.7c-2.2,1.6-3.6,2.2-4.2,1.9c-0.4-0.2-0.7-0.6-0.9-1.1l-0.2-0.7l-2.4,0.2l1.6-2.5l-1.4,0.3c-1.2,0.5-2.1,0.8-2.8,0.8
		c-0.3,0-0.4,0-0.4-0.1c0.3-0.2,0.4-0.4,0.4-0.7c0-0.3,0.2-0.6,0.5-1c0.4-0.4,0.6-0.7,0.6-1c0.1-0.3,0.1-0.3,0-0.3
		c-0.3,0.3-0.6,0.4-0.9,0.5c-0.5,0.2-0.8,0.3-1,0.4c-0.3,0.1-0.7,0-1.2-0.1c-0.4-0.2-0.5-0.3-0.4-0.3c0.4-0.1,0.6-0.2,0.6-0.5
		c0.1-0.3,0.4-0.8,0.8-1.5l0.6-1l-1.2,0.2c-0.8,0.7-2.2,1.4-4.3,2.1c-1.3,0.5-1.6,0.3-0.8-0.5l1.6-1.4c1.2-0.9,2.2-1.8,3.1-2.8
		c0.5-0.6,1.4-1.1,2.4-1.3c0.6-0.1,1.6-0.3,3-0.5l2,2c0.4,0.3,0.6,0.5,0.7,0.5c0.3-0.1,0.8,0,1.6,0.3c0.9,0.3,1.4,0.5,1.4,0.8
		c0,0.1-0.1,0.2-0.3,0.2l0.5,1.4h0.6c0.5,0,1-0.1,1.3-0.2c0.3-0.1,0.8-0.1,1.5,0C49.5,175.1,50.4,175.1,51.3,175.1L51.3,175.1z"/>
	<path class="st0" d="M80.4,167.3c-0.4,0.2-0.7,0.3-0.7,0.2c0.1-0.1-0.1-0.1-0.5,0c-0.4,0.1-0.7,0.3-0.9,0.5
		c-0.1,0.3-0.3,0.4-0.5,0.5c-0.2,0.1-0.3,0.6-0.1,1.6c0.2,1,0.2,1.5-0.1,1.6c-0.3,0.1-0.5,0.2-0.8,0.5c-0.1,0.2-0.2,0.3-0.2,0.4
		l-2.9-1.9l-0.4,6.9c-0.8,0-1.4-0.5-1.8-1.6c-0.2-0.7-0.6-1.4-1.1-2.2l-0.7-1.1l-1.3,5.6l-1.9-5l0,1c-0.5,2.1-1,3.2-1.7,3.3
		c-0.4,0.1-0.7,0-1.1-0.2l-0.4-0.4l0.2-3l-2.2-0.8c-2.5,1-3.5,1.3-3,0.9c0.5-0.4,0.3-1.4-0.6-3.1c-2.1,1.1-3.3,1.4-3.4,1
		c-0.1-0.3,0.1-0.7,0.7-1.3l0.9-0.8l-4.3,0.9c-1.8,0.4-2.7,0.3-2.6-0.1c0-0.2,0.4-0.7,1.1-1.3c0.4-0.3,1.2-0.6,2.5-1.1
		c0.7-0.3,1.3-0.5,1.9-0.7l8.8-3.1c0.5,0,2-0.4,4.5-1.1c2.5-0.8,4-1.4,4.6-1.7l0,0c0.5-0.3,1-0.3,1.5,0.1c0.2,0.2,0.4,0.4,0.5,0.7
		l2.6,0.9"/>
	<path class="st0" d="M77.5,145.5c-0.2,0-0.2,0.2-0.1,0.4c0.2,0.4,0.2,0.8,0,1.3c-0.2,0.5-0.7,0.8-1.4,0.9c-0.8,0-1.3,0-1.5,0
		c-0.6,0.1-1.2,0.1-1.8-0.1l-0.9-0.3c-0.4-0.5-0.9-1-1.4-1.4c-1-1-1.6-1.5-1.9-1.6l1.8,6.7c0.3,1,0.5,1.5,0.8,1.6
		c0.1,0.1,0.2,0,0.3-0.1l-0.5,1.5c-0.2,0.7-0.4,0.8-0.7,0.5l-0.4-0.7l-0.8,1.4l-2.4,0.2c-0.2-0.1-0.4-0.1-0.7-0.1
		c-0.6,0-1.1,0.3-1.5,0.8c-0.4,0.4-0.5,0.5-0.6,0.2c-0.1-0.7-0.3-1.3-0.8-1.9c-0.5-0.7-1-1-1.3-0.8l-0.3,0.4l-2.7,0.8l1.5-2.2
		c-1.7,0-2.9,0-3.6-0.2c-0.4-0.1-0.5-0.3-0.1-0.6l2-1.2l-0.5-1.6c2.7-0.9,4.3-1.6,4.8-2.2l4.1-3.5l1.6,1c-0.2-0.2-0.4-0.4-0.5-0.8
		l-0.2-0.6l0.6-2.8l1.6-2.1l2.2-1.4c0.1-0.1,0.2-0.8,0.2-2.2c0-1.4,0.4-2.3,1.2-2.7l2-0.9l1.5-2.2c0.4-0.4,0.3-0.9-0.2-1.4l-0.8-0.8
		c0.2-0.2,0.3-0.4,0.5-0.6c0.4-0.4,0.7-0.7,1-0.9c0.2-0.1,0.5-0.6,1-1.4c0.5-0.8,0.9-1.3,1.3-1.5"/>
	<path class="st0" d="M78.3,139l-3.1,1.3l2,1.3l2-0.5c1.1-0.2,1.1,0,0.1,0.6l-2.5,1.5l2.4,0.3"/>
	<path class="st0" d="M80.8,176.4"/>
</g>
<path class="st0" d="M165.2,163c-1.6,0.5-3.2,0.6-4.5,0.5c0.2,0,0.7-0.3,1.4-1c0.3-0.3,0.7-0.7,1.1-1.2c1.4-1.6,2.3-2.4,2.9-2.5
	c-3.7,0.1-7.3-0.4-10.6-1.4c0.8-0.1,2.3-0.1,4.7,0.2c2,0,3.1-0.6,3.1-1.9c-3.1-1.6-7.1-1.5-11.9,0.1l0.9-2.1l-3.4,0.1
	c0.9-1.1,1.8-1.9,2.8-2.4c-0.8,0.3-1.6,0.2-2.3-0.1c-0.3-0.8,1.4-1.4,5-1.7c1.8-0.2,3.8-0.3,5.9-0.3c1.8,0.2,1.2-0.2-1.9-1.1
	c-2.1-0.6-3.4-1.1-3.7-1.3c-0.7,0.5-1.6,1-2.6,1.6c-0.1-0.9,0.2-1.6,0.9-2.2c-2.8,0.5-5.2,0.6-7.3,0.4c-0.1,0.6-0.2,1.1-0.3,1.5
	c0.8,0.8,1.4,1.7,1.8,2.7c0.5,1.1,0.4,1.9-0.2,2.2c0.6,0.4,1.5,1.2,2.8,2.3c1.1,1.1,2.1,1.9,3,2.3c0.9,0.6,2.4,1.1,4.6,1.7
	c2.1,0.5,3.6,1.2,4.6,1.9c-0.1,0.2-0.1,0.4-0.2,0.7c-0.5-0.1-1.1-0.1-1.6-0.1c-2.8-0.3-4.8-0.5-5.9-0.7c-2.2-0.3-4.8-1.1-7.8-2.2
	c-3.4-1.4-6-2.4-7.7-3c-0.5-0.1-1.7-0.8-3.8-2c-1.8-1.1-3-1.6-3.6-1.6c-0.9-0.1-1.5,0-2,0.4c-0.3,0.3-0.7,1.1-1.4,2.4
	c-0.1,0-0.1,0-0.2-0.1c-0.1-0.2-0.2-0.3-0.2-0.3c-1,2.4-2.5,4.3-4.5,5.9c-2.3,1.7-4.3,2.1-6.2,1.4c0-1.1,0.3-2.2,0.8-3.3
	c-0.5,0.6-1.1,1.2-1.8,1.8c-1.8,1.4-2.9,1.3-3.5-0.3c-0.5,1.2-1.3,2.1-2.5,2.7c-1.2,0.6-2.2,0.7-3.1,0.1c1-1.2,2.1-2.2,3.3-3
	c-1.9,1.1-4.1,1.8-6.5,2.3c-3.1,0.6-5.3,0.3-6.6-0.9c0.4-1.6,1.4-3,2.9-4.1c-1.4,0.9-2.6,1-3.5,0.4c0.3-0.9,0.7-1.8,1.2-2.7
	c0.6-1.1,1.1-1.9,1.4-2.5c-2.5,0.6-4.3,0.9-5.4,1c-1.9,0.2-3.5-0.1-4.8-0.8c1.1-1,1.7-2.1,1.8-3.5c-1.2,0.5-1.9,1.6-2.1,3.3
	c0.1,0.1,0.2,0.1,0.3,0.2c-0.4,0.4-1,0.8-1.6,1.1c-2.9,1.5-4.6,2.5-5,2.9c0.3,0.4,0.7,0.7,1.1,0.9c-1.8,0.4-3.3,0.9-4.4,1.4
	c-2,0.3-3.5,0.3-4.5,0.1c0.2-0.5,0.6-1.2,1.3-2.1c0.7-0.9,1.2-1.6,1.4-2.1c-0.2,0-0.4-0.1-0.6-0.3c-0.3-0.3-0.5-0.4-0.6-0.5
	c0.9-1.1,2.1-2.1,3.6-3.2c1.7-1.2,3-2.1,3.8-2.7c1.2,0.5,2.6,0.4,4.3-0.5c1.9-1.2,3.3-2.1,4.2-2.6c1.1-0.6,2.9-1,5.5-1
	c2.3-0.1,4.1-0.6,5.2-1.6c3.1-2.6,4.9-6.1,5.4-10.5c0.4-4.1-0.4-8.1-2.4-11.8c-1.8-3.3-3.2-4.9-4.1-4.8c-1.5,0.9-3.2,1.5-4.9,2
	c-1.5,0.3-3,0.1-4.6-0.5c0.3-0.4,0.4-1,0.3-1.7c0-1,0-1.5,0-1.7c-0.7-0.4-1.8-0.4-3.2-0.1c-1.5,0.3-2.5,0.2-3.1-0.1
	c1-0.7,1.8-1.7,2.4-2.9c-1.5,0.3-2.6,0.5-3.3,0.5c-1.4,0.1-2.5-0.1-3.2-0.5c1.1-0.8,1.8-1.3,2.1-1.5c0.7-0.6,1.2-1.3,1.5-2.1
	c-0.5-0.1-1.5-0.2-3.2-0.2c-1.4,0-2.4-0.2-3-0.6c0.2-0.1,1.5-0.9,4-2.3c1.6-0.9,2.8-1.9,3.6-2.9c-0.1-0.3-0.3-0.5-0.4-0.5
	c0.8-0.9,1.4-1.6,1.9-2c0.7-0.8,1.2-1.5,1.5-2.1c-2.3-0.2-3.9-0.5-5-0.8c1.6-2.2,2.2-3.3,2.1-3.4c-1,0.2-2,0.2-3.1,0.1
	c0.2-0.3,0.4-0.8,0.6-1.7c0.2-0.9,0.4-1.5,0.6-1.7c-0.3,0-0.8-0.2-1.5-0.5C82.6,88.2,82.1,88,82,88c0.7-0.8,1.1-1.4,1.4-1.9
	c0.4-0.7,0.8-1.4,1-2.1c-0.3-0.2-0.6-0.3-0.8-0.5c0.2-0.2,0.3-0.6,0.3-1.2c0-0.8,0.1-1.2,0.1-1.4c-0.3,0.1-0.7,0-1.4-0.1
	c-0.6-0.2-1.1-0.2-1.4-0.1c0.9-2.3,2.5-4.2,4.9-5.8c3.2-2.1,5.2-3.6,5.8-4.3c0.6-0.6,1.1-1.4,1.4-2.3c0.4-1.1,0.4-2.1,0-2.9
	c-0.1-0.1-1.4-0.3-3.8-0.5c-1.7-0.1-2.2-1.1-1.6-2.8c-0.1-0.1-0.2-0.2-0.4-0.3c-0.2-0.1-0.4-0.2-0.4-0.2c0.5-0.9,1-1.5,1.4-1.8
	c-0.4-0.2-1-0.7-2-1.7c-0.7-0.7-1.5-1-2.4-0.9c0.2-0.1,0.6-0.4,1-0.9c0.4-0.4,0.8-0.7,1.1-0.9c-0.4,0.2-0.9,0.2-1.3,0
	c-0.6-0.3-1.1-0.4-1.4-0.5l0.6-0.8c-0.7-0.2-1.2-0.3-1.6-0.5c7.7-5.4,10-9.2,7-11.4c-0.1-0.1-0.3-0.3-0.6-0.4
	c-0.3-0.1-0.5-0.1-0.6-0.1c0-0.1,0.1-0.3,0.3-0.5c0.2-0.3,0.3-0.5,0.3-0.5c-0.7-0.2-1.2-0.2-1.6-0.2c0.4-0.1,0.9-0.4,1.3-0.8
	c0.5-0.5,0.9-0.8,1.1-1c-0.8-0.2-1.3-0.3-1.6-0.3c2.4-0.7,4.2-1.3,5.3-1.9c1.9-0.9,3.4-2.1,4.7-3.6V33c0.7-0.4,1.5-1,2.3-1.8
	c0.9-1.1,1.6-1.8,2-2.3c2-1.7,3.7-2.5,5.3-2.5c1.2,0,3,0.7,5.4,2c9.5,3.6,14.3,6.6,14.4,9.1c0,0.8-0.4,1.5-1.3,2.1
	c-0.7,0.5-1.4,0.8-1.9,0.8c0.5,2.1-1.1,2.9-4.6,2.3c-4.2-0.6-6.4-0.8-6.7-0.5c3.3,3.2,6.4,5.3,9.4,6.4c0.9,0.4,2.3,0.8,4.3,1.5
	c1.7,0.7,2.8,1.8,3.3,3.2c-0.2,0-0.6,0.1-1.2,0.4c-0.6,0.3-0.9,0.4-1,0.4c0,0.2,0.1,0.5,0.4,1.1c-0.4,0.9-1.2,1.3-2.3,1.3
	c-1.4-0.1-2.2,0-2.6,0.3c1.2,2.2,1.7,4.3,1.4,6.2c-0.9,0.2-2-0.2-3.4-1.3c-0.2,0.6-0.4,1.1-0.6,1.3c2.5,1.7,5.8,2.8,10,3.2
	c5.9,0.6,9.3,1,10.3,1.2c0.1,1.1-0.1,2-0.7,2.6c-0.5,0.5-1.2,0.8-2.1,0.8l-0.2,2.6c0.6,0.5,1,1.2,1.3,2c0.3,0.8,0.3,1.6,0.1,2.4
	c-0.3-0.1-0.7-0.1-1.4-0.1c-0.7,0-1.1,0-1.4-0.1c0,0.5-0.3,1.4-0.8,2.6c-0.5-0.4-0.9-0.7-1.2-1c0.1,0.5,0,1.1,0,1.8
	c-0.1,0.8-0.2,1.4-0.2,1.6c-0.1-0.1-0.5-0.2-1.2-0.4c-0.5-0.2-0.9-0.4-1.2-0.9c0.1,0.4,0.1,0.9,0.1,1.6l-0.1,1.5
	c-0.4-0.3-0.8-0.6-1.2-1.1c-0.1,0.2-0.1,0.5-0.2,1c-0.1,0.4-0.1,0.7-0.2,0.8c0,0.1-0.1,0.1-0.2,0c-0.2-0.1-0.3-0.1-0.4,0
	c-0.2,0.1-0.3,0.3-0.3,0.7c-0.1,0.4-0.1,0.6-0.1,0.7h-0.8c1.4,0.9,3,1.4,4.9,1.7c1.1,0.2,2.8,0.4,5.1,0.6c1,0.1,2.3,0.5,4,1.2
	c1.8,0.8,3.1,1.2,3.8,1.4c0.2,0.1,1.1,0.2,2.6,0.4c1,0.1,1.8,0.4,2.3,0.9c0,0-0.4,0.2-1.1,0.6c-0.5,0.3-0.9,0.4-1.3,0.4
	c0.4,0.5,0.7,0.8,1,0.8c-1,1-2,1.5-3,1.5c0.4,0.9,0.5,1.4,0.5,1.7c-0.1,0.2-0.4,0.6-1.1,1.1c0.3,0.4,0.8,0.9,1.5,1.6l2.2-0.7
	c-0.4,0.1-0.7-0.4-0.8-1.4c-0.1-1,0-1.6,0.1-2c1.7,1.6,3.7,2.9,6.2,3.8c1.7,0.6,3.7,1.2,6.1,1.7c-1.4-0.4-1.9-1.1-1.4-2.1
	c1.1,0.4,2.4,0.4,3.6,0.1c-0.8-0.7-1.4-1.4-1.9-2.2c4.6,1.5,7.2,2.2,7.9,2.3c-3.5-1.5-4.3-2.8-2.4-4.1c3-1.2,5-2.1,6-2.6
	c-1.3-0.9-2.2-1.4-2.7-1.4c1.3,0,2.9-0.4,4.8-1.1c1.1-0.4,2.6-1,4.6-1.9c-1.4-0.4-2.3-0.6-2.8-0.7c-0.8-0.2-2.1-0.1-3.9,0.4
	c1.7-1.5,2.5-2.2,2.3-2.3c-0.3-0.3-0.8-0.3-1.7-0.2c-0.8,0.1-1.4,0-1.6-0.2l1-1.2c-0.9,0.1-2.2,0.2-4.1,0.2c-2.1,0.1-3.2,0-3.1-0.2
	c0.1-0.1,1-0.5,2.6-1.1c0.9-0.3,1.8-0.6,2.8-1c-0.8,0.1-1.7,0.1-2.7,0.1c-1.6-0.1-2.4-0.1-2.5-0.1l3.3-0.9c-0.5,0-1.2,0-2.2-0.2
	c-1.2-0.2-1.9-0.3-2.2-0.3c0.1-0.5,0.6-0.7,1.5-0.8c1,0,1.5-0.1,1.6-0.3c-0.3-0.4-0.6-1.2-0.9-2.2c-0.3-0.9-0.6-1.6-0.7-1.9
	c1.6,3,3.7,5,6.3,5.9c2.3,0.8,4.5,0.7,6.6-0.3c2-0.9,3.1-2.2,3.3-3.7c0.2-1.8-1-3.2-3.6-4.3c3.9,0.8,7.3-0.2,10.2-3
	c-0.9,0.3-2.4,0.5-4.6,0.9c-1.7,0.3-3,0.5-4,0.9c0.9-0.4,1.3-1.2,1.2-2.4l-3.3-0.5l2.4-1.6c-1.7-0.1-3-0.1-3.8,0
	c0.6-0.6,1.3-1.1,2-1.5l-1.8-0.3c-1.4-0.2-1.9-0.3-1.7-0.3c0.8,0.1,1.1,0.1,0.8,0c-0.3-0.1-0.7-0.5-1.2-1.1
	c-0.5-0.5-0.9-0.8-1.1-0.9c-0.3-0.1-0.4,0.4-0.5,1.3c0,0.4,0,0.9,0,1.4l-1.9-1.4l-0.1,6.4c0,0.5,0,0.4-0.2-0.3
	c-0.2-0.7-0.4-1.7-0.5-2.8c-0.1-0.9-0.2-1.7-0.1-2.4l0-0.7l-1.2,6.4c-0.4,2.2-1,3.3-1.7,3.1l-0.9-1c-0.8,1-2.1,1.7-4.2,2.1
	c-0.4-0.1-1.8,0.3-3.9,1.1c-1.3,0.5-2.2,0.6-2.5,0.4c-0.3-0.4-0.6-0.8-1-1.1c-0.5-0.3,0-0.7,1.6-1.3c2.3-0.9,3.6-1.5,4-1.8
	c0.7-0.5,1.2-1,1.5-1.4c0.5-0.7,1.1-1.3,1.8-2c1-0.9,1.5-1.5,1.7-1.8l-0.1-0.2l-4.5,0.8l1.6-1.7l1.3-3.1l-2.4,1.3
	c-2.7,1.2-4.4,1.8-5.1,1.6c-0.4-0.1,0-0.7,1.2-1.8l2-1.6c0.6-1,1.5-2.2,2.5-3.6c0.6-0.9,1-1.4,1.1-1.7c0.1-0.5,0.2-1.1,0.4-1.9
	c0.3-0.9,0.6-1.5,0.8-1.6c0.7-0.5,1.1-0.8,1.1-0.9c0.6-0.6,1-1.2,1.2-1.6c0.2-0.4,0.4-1.1,0.7-2c0.8-2.5,1.2-3.9,1.2-4.3l1.5-2.5
	L171,44c0.2,0.8,0.3,1.4,0.4,1.8c0,0.4,0.3,1,0.8,1.8c0.3,0.4,0.8,1.1,1.4,2c0.3,0.6,0.6,1.2,0.7,1.8c0.1,0.4,0.1,1,0.2,1.9
	c0.2,1.1,0.6,2.4,1.2,3.8c0.3,1.1,0.8,2.4,1.4,3.9l3.5,4.3c1.6-0.5,3.2-0.4,4.9,0.2c0.9,0.3,2.2,0.8,3.9,1.6
	c1.6,0.6,3.1,0.9,4.4,0.9c-2.1-2.6-3.2-4-3.3-4.4c-0.6-1.4-0.4-3,0.8-4.9c-1.4,0.2-2.9,0.2-4.4,0c0.3-0.5,0.6-1.4,1.1-2.5
	c0.2-0.6,0.4-1,0.4-1.1c1.5-0.5,3.7-0.3,6.8,0.8c2.5,0.8,3.9,1.3,4.4,1.4c-0.3-0.2-0.9-1-1.8-2.4c-1.4-2.2-2.3-3.4-2.6-3.8
	c0.8,0.4,1.5,0.5,2.2,0.5c-0.2-0.7-0.5-1.4-0.9-2.1c0.7,1,1.7,1.3,2.9,0.8c0.6-0.3,1.6-0.7,2.9-1.4c-1.6-0.8-3.1-2-4.5-3.7
	c-1.6-1.9-3-3.2-4.3-4.1c0.5,0.3,2.7,1,6.4,2.1c3.8,1.1,6.4,1.8,7.7,2c-3.6-2.9-6.5-4.6-8.7-5.3l3.1-3.1c1-1.1,1.8-2.4,2.4-3.8
	c0.9-0.4,2.1-0.9,3.6-1.6c1.2-0.3,2.3,0.2,3.2,1.5c0-0.1,1.3,0.2,3.9,0.7s4.4,0.9,5.2,1.1c0.1,1.1,0.1,1.6,0.1,1.6
	c0.3-0.2,0.8,0.1,1.6,1c-0.3,0.6-0.9,1-1.7,1.1c0.3,0.2,0.7,0.5,1.3,0.9c0.3,0.2,0.6,0.5,1,0.9l-3.4-0.7c0.1,0.1,0.6,0.6,1.5,1.4
	c0.9,0.8,1.2,1.3,1.1,1.5c-1.2,0-2.5-0.3-3.9-0.8c1,1.7,2.4,2.7,4.3,3c2,0.4,3-0.7,3-3.3c2.4,1.3,3.6,2.7,3.5,4
	c0,1.3-1.2,2.1-3.4,2.4c0.1,0.6,0.4,1.8,0.8,3.7c0.4,1.8,0.7,3,1,3.8c-0.1,0.1,0.8-0.2,2.7-0.7c1.8-0.4,2.6-0.4,2.3,0
	c-0.7,1-1,1.6-0.8,1.8c0.1,0.1,0.3,0.1,0.5,0.1l-2.2,1.1c0.1,0.1,0.5,0.3,1.2,0.5c0.7,0.2,1.2,0.5,1.4,0.7c0.1,0.2-0.1,0.5-0.6,1
	c-0.9,0.8-1.4,1.2-1.4,1.2c-1,1.1-0.3,1.9,2,2.5c1.2,0.3,1.8,1.1,2,2.5c0.1,1.6,0.4,2.6,1,3.1c-0.4-0.4-0.8-0.6-1.1-0.7
	c-0.3-0.1-0.6-0.1-1.1,0c0.3,1,0.3,3,0,6.1c-0.1,1.1,0.4,1.9,1.6,2.5c0.8-0.1,1.7,0,2.6,0.3c0.6,0.2,1.6,0.6,2.9,1.2
	c1.2,0.5,2.2,0.7,3.2,0.7c-1.5-1.9-2.3-3-2.4-3.2c-0.4-1-0.3-2.2,0.6-3.6c-1.2,0.2-2.3,0.2-3.2,0c0.3-0.5,0.6-1.4,1-2.7
	c1.1-0.4,2.7-0.2,5,0.6c1.8,0.6,2.9,1,3.3,1.1c-0.3-0.1-0.7-0.7-1.4-1.8c-1-1.5-1.7-2.4-1.9-2.7c0.6,0.3,1.1,0.4,1.7,0.4
	c-0.1-0.5-0.3-1-0.7-1.5c0.5,0.7,1.2,0.9,2.1,0.6c0.5-0.2,1.2-0.5,2.1-1.1c-1.2-0.6-2.3-1.4-3.3-2.6c-1.1-1.4-2.2-2.4-3.2-3
	c0.4,0.3,2,0.8,4.7,1.6c2.8,0.8,4.6,1.3,5.5,1.4c-2.6-2.1-4.7-3.4-6.3-3.9c1.1-1,1.8-1.7,2.2-2.2c0.7-0.8,1.3-1.8,1.7-2.8
	c0.6-0.3,1.5-0.7,2.6-1.2c0.9-0.3,1.7,0.1,2.3,1.1c0,0,0.9,0.1,2.8,0.5c1.9,0.4,3.2,0.6,3.8,0.8c0.1,0.8,0.1,1.2,0,1.2
	c0.2-0.2,0.6,0,1.2,0.7c-0.2,0.5-0.6,0.8-1.2,0.8c0.3,0.2,0.6,0.4,0.9,0.6c0.3,0.2,0.5,0.4,0.7,0.6l-2.5-0.5c0.1,0.1,0.4,0.4,1.1,1
	c0.6,0.6,0.9,1,0.9,1.1c-1,0-1.9-0.2-2.8-0.6c0.7,1.2,1.7,1.9,3.1,2.2c1.5,0.3,2.2-0.6,2.2-2.4c1.7,1,2.6,1.9,2.6,2.9
	c0,0.9-0.8,1.5-2.4,1.8c0.5,2.9,1,4.7,1.2,5.5c0,0,0.6-0.1,2-0.5c1.3-0.3,1.9-0.3,1.7,0c-0.5,0.7-0.7,1.1-0.6,1.3
	c0.1,0.1,0.2,0.1,0.4,0.1l-1.6,0.7c0.1,0.1,0.3,0.2,0.9,0.4c0.5,0.1,0.9,0.3,1,0.5c0,0-0.4,0.6-1.4,1.6c-0.7,0.8-0.3,1.4,1.4,1.8
	c0.9,0.2,1.3,0.8,1.4,1.8c0.1,1.2,0.4,1.9,0.7,2.2c-0.5-0.4-1-0.6-1.6-0.4c0.2,0.7,0.2,2.2,0,4.4c-0.1,1.1,0.7,1.9,2.6,2.2
	c-0.5,0.4-0.7,0.7-0.5,1c0.1,0.1,0.4,0.3,0.9,0.6c-0.5,0.1-0.9,0.1-1.1,0c-0.5-0.2-0.8-0.3-1.1-0.4c0.5,1.5,1.1,2.3,1.9,2.4
	c0.5,0.1,1.2-0.1,2.2-0.6c0.9-0.5,1.6-0.7,2-0.5c0.6,0.3,1.1,1.2,1.3,2.9l-1.4,0.1l0.6,1.2c-1.8,0.2-2.7,1.1-2.5,2.6
	c0.2,1.7-0.7,2.8-2.8,3.3c2.1,1.9,3.5,3,4.1,3.2c1.9,0.8,3.2,1.3,3.7,1.6c-0.2-0.1-0.4,0.1-0.6,0.6c-0.2,0.6-0.5,1-0.9,1.1
	c-0.1,0,0.1,0.3,0.8,0.9c0.7,0.6,0.9,1,0.7,1.1c-0.3,0.1-0.7,0-1.2-0.2c-0.6-0.3-1-0.5-1.2-0.6l0.9,2.3c-0.3-0.1-0.6-0.2-1.1-0.5
	c-0.4-0.3-0.7-0.5-0.9-0.5c0,1-0.2,1.5-0.8,1.8c-0.1,0-0.5,0-1.1,0c0.3,0.8,1.4,1.3,3.3,1.6c1.8,0.3,3.1,0.1,3.8-0.5
	c-0.6,0.5-0.7,0.9-0.5,1.1c0.4,0.4,0.6,0.8,0.6,1.1l-2.4,3l-1-2.9c-0.6,0.6-1,1.4-1.1,2.2c-0.2-0.3-0.5-0.8-0.8-1.4
	c-0.3-0.7-0.6-1.1-0.7-1.4c-1.5,2.7-0.7,4.5,2.2,5.4c1.6,0.5,4.2,1,7.6,1.4c-0.7,0.5-1.4,0.8-2.1,1.1c-0.2,0.1-0.9,0.2-2.1,0.4
	l0.4,1.6c-2.1-0.1-3.2-0.2-3.2-0.3c0.1,0.2,0.3,0.5,0.8,1c0.5,0.5,0.8,0.9,0.9,1.1c-0.5,0-0.9,0.3-1.2,1c-0.2,0.3-0.3,0.6-0.4,1
	c-0.5-1.2-1.3-1.8-2.3-1.7c-0.4,0.9-0.4,1.8,0,2.8c-0.5-1-1.1-0.9-1.8,0.4c0,0.3,0.7,0.8,2.1,1.6c1.3,0.8,2.3,1.2,2.9,1.4
	c-2.9,0.8-4.6,1.1-4.9,1c0.4,0.3,0.8,0.6,1.3,0.8l-2.1-0.3c1,1.7,2.5,2.3,4.5,1.8c0,0,1.8-0.7,5.3-2.1c0.1,0-0.6,1.5-1.9,4.5
	c-1.3,3.1-1.2,4.5,0.5,4.2c0.4-3.1,1.3-4.1,2.5-3.1c0.4,0.3,0.8,0.8,1,1.3c0.2,0.6,0.2,0.8-0.1,0.8c0.9,0.3,1.7,0.6,2.6,1
	c0.1,0-0.7,0.4-2.1,1.1c1.2,1.8,1.8,2.8,1.6,2.9c-0.3,0.2-0.8,0.3-1.4,0.3c-0.8-0.1-1.3-0.1-1.6-0.1c-0.1,0.9-0.4,1.5-0.9,2
	c-0.3,0.3-0.4,1.8-0.4,4.5c0.8-0.4,1.6-0.7,2.6-0.7c-0.3,0.1-0.3,0.4,0,1c0.3,0.7,0.8,1.1,1.7,1.1c-0.2,0.2-0.6,0.3-1.2,0.4
	c-0.7,0.1-1.2,0.2-1.3,0.2c0,0,0.2,0.3,0.6,0.8c0.4,0.5,0.6,0.9,0.6,1.1c-0.6-0.1-1.1-0.2-1.5-0.2c-0.7-0.1-1.2,0-1.5,0.2
	c0,0.3,0.1,0.6,0.5,1.1c0.3,0.5,0.5,0.8,0.4,0.9c-0.8,0.8-3,2.3-6.4,4.5c-2.3,1.5-3.4,2.9-3.4,4.1c-0.8-0.2-1.5-0.6-2.1-1.1
	c-1,0.6-1.4,1.7-1.4,3.1c0,1.5-0.3,2.5-0.7,3.1l0.9,0.9H270c0.4,0.5,0.9,1.3,1.5,2.4l-2.8-1.3c0.1,0.1,0.2,0.4,0.1,1
	c0,0.6-0.1,1-0.3,1.2l-1.5-2.4c0.1,1.1,0.1,2.2-0.1,3.4c0-0.2-0.4-0.8-1.2-2c-0.9-1.2-1.4-1.6-1.5-1.3c-0.1,1.2-0.1,2.2,0,3.1
	c-0.1-0.5-0.3-1.3-0.7-2.2c-0.4-1-0.6-1.8-0.7-2.2l-0.9,1.6c-0.5-1-1-1.6-1.4-1.8c-1-0.5-1.9-1-2.5-1.4c0,1.9-0.9,3-2.8,3.1
	c-0.2,0-0.3,0-0.5,0v0c-0.1,0-0.1,0-0.2,0c-0.5,0-0.9-0.1-1.3-0.2c-0.2,0-0.5-0.1-0.7-0.1c-1-0.2-1.7-0.1-2.1,0.3
	c0,0.3,0.2,0.8,0.6,1.5c0.4,0.6,0.7,1,0.6,1.1c-1.1,1.1-4.1,3.2-8.8,6.3c-3.2,2.1-4.8,3.9-4.8,5.6c-1.1-0.3-2.1-0.8-2.9-1.6
	c-1.3,0.9-2,2.3-2,4.2c0,2.2-0.3,3.6-0.9,4.3l1.2,1.2h-2.4c0.5,0.7,1.2,1.8,2.1,3.3l-3.8-1.8c0.2,0.1,0.2,0.5,0.1,1.3
	c-0.1,0.8-0.2,1.4-0.5,1.7l-2.1-3.3c0.1,1.6,0,3.2-0.2,4.7c0-0.3-0.6-1.2-1.7-2.8c-1.2-1.7-1.9-2.3-2-1.8c-0.2,1.3-0.2,2.7-0.1,4.2
	c-0.1-0.7-0.4-1.7-0.9-3c-0.5-1.3-0.8-2.3-1-3l-1.2,2.2c-0.7-1.4-1.3-2.2-1.9-2.4c-1.4-0.7-2.6-1.3-3.5-2c0,2.7-1.3,4.1-3.8,4.3
	c-2.5,0.2-4.3-0.6-5.4-2.3c0,0.2-0.7,1.3-2,3.4c-1.4,2.2-2.3,3.6-2.8,4.3c-0.7,0.9-1.2-1-1.6-5.5c-0.5,0.2-0.7,1.1-0.6,2.8
	c0.1,0.9,0.2,2,0.4,3.4c-0.3-0.8-0.7-1.8-1.5-3c-0.8-1.4-1.4-2.3-1.6-2.9c-1.1,1.6-1.8,2.9-2.1,4c-0.1-0.5-0.5-1.9-1.3-4.2
	c-0.8-2.4-1.3-3.7-1.4-3.9c-1.3,2.9-3,3.9-5,2.9c1.8-3.1,2.7-5,2.8-5.9c0.1-1.3-1.8-1.7-5.6-1c-1.1,0.2-2.9-0.9-5.4-3.3
	c-2.6-2.8-4.3-4.5-5.2-5.1h3.3c1.3,0,2.4-0.1,3.4-0.2c-0.1-0.4-0.2-0.9-0.3-1.4c-1.9,0.2-2.9,0-2.9-0.6c0.5-0.9,0.7-1.7,0.6-2.4
	c-0.9,0.4-1.7,0.2-2.3-0.5c0.1-0.3,0.5-0.6,1.2-0.7c0.7-0.2,1.3-0.7,1.7-1.7c-0.3,0.3-1.9-0.5-4.8-2.5c-3.3-2.2-5.7-3.4-7.2-3.6
	c1.2-0.7,2.1-1.3,2.6-1.7c-1.8,0.5-2-0.2-0.5-1.9C166.6,162.5,165.9,162.8,165.2,163L165.2,163z M147.3,144.6
	c-0.7,0-1.3-0.1-1.7-0.1c0,0.9-0.1,1.7-0.2,2.4c0.2-0.1,1-0.5,2.2-1.1c1.4-0.8,2.3-1.2,2.6-1.3C149.5,144.7,148.5,144.7,147.3,144.6
	L147.3,144.6z M145.7,141.5c0,0.6-0.1,1.5-0.1,2.4l3.4-1.5C147.8,142.3,146.7,142,145.7,141.5L145.7,141.5z M145.7,139.8
	c0,0.1,0,0.5,0,1.4c0.3,0,0.6,0,0.9-0.1c-0.1-0.1-0.1-0.2-0.2-0.2C146,140.5,145.8,140.2,145.7,139.8z M147.5,141c0.1,0,0.2,0,0.3,0
	c-0.1-0.1-0.2-0.2-0.3-0.4C147.5,140.8,147.5,140.9,147.5,141L147.5,141z M150.5,137.3c-0.1,0.5-0.2,0.8-0.2,1.1
	c-0.2-0.2-0.5-0.3-1-0.4c-0.5-0.1-0.9-0.3-1.2-0.6c0.5,1.4,0.6,2.6,0.3,3.7c2.4-0.3,5.3-0.9,8.6-1.7c5.7-1.3,9.6-2.1,11.8-2.4
	c-3.6-0.5-7-0.7-10.1-0.8c-0.1-1.4-0.1-2.3,0-2.8c0.1-0.7,0.5-1.4,1.3-2.2c-0.8,0.4-1.8,0.8-2.9,1.4v0.1c-0.5,1.2-1.6,1.8-3.4,1.8
	c0.4,0.2,0.8,0.5,1.4,1.1c-0.5,0.3-1.3,0.4-2.2,0.5c-1.3,0-2,0-2.2,0C150.7,136.4,150.6,136.8,150.5,137.3L150.5,137.3z
	 M147.5,106.3L147.5,106.3c-1.3-0.1-1.9-0.1-2-0.1c0,0.3-0.1,1-0.4,2.1c-0.2-0.4-0.4-0.8-0.5-1.3c0,0.4,0,0.9,0,1.4
	c-0.1,0.4-0.2,1.1-0.3,1.9c-0.6-0.3-1-0.7-1.2-1c-0.4,1.8-1.1,3.1-1.8,3.9c-0.2-0.5-0.3-0.8-0.3-1.1c-0.2-0.4-0.2-0.9-0.2-1.3
	c0,0.2-0.2,0.6-0.4,1.3c-0.2,0.5-0.2,0.9-0.2,1.1c0,0-0.2-0.5-0.6-1.5c0,0.5-0.1,1.1-0.4,1.8c-0.1-0.1-0.3-0.2-0.7-0.4
	c-0.4-0.2-0.7-0.4-0.9-0.6c-0.2,2.1-0.9,3.1-2,3.1c-0.1,0.3-0.2,0.9-0.5,1.6c-0.3,0.7-0.4,1.2-0.5,1.5l-0.4-0.8c0.1,1,0,1.8-0.3,2.5
	c-0.3,0.7-0.7,1-1.3,0.9c0.5,0.7,0.6,1.8,0.4,3.3c-0.3,1.5-0.2,2.6,0.2,3.2c1.1,1.4,3.4,1.6,6.8,0.4c4.4-1.5,6.7-2.2,7.1-2.2
	c1.2,0.2,2.9,1,5,2.3c0.9,0.4,1.7,0.7,2.5,1.1c1.8-1.1,2.6-2,2.3-2.6c-0.1-0.1-1.5-0.2-4.2-0.1h-1.9c1.1-0.1,2.2-0.4,3.5-0.9
	c1.5-0.5,3.6-1.3,6.3-2.5c-3.4-1-6.7-1.7-10.1-2.1c4.6-1.5,5.2-2.5,2-3.1c-4.1-0.2-6.2-0.3-6.3-0.4c1.7-0.4,3.6-1.5,5.6-3.3
	c2.7-2.4,4.7-4,5.9-4.9c-0.8,0.3-2.8,0.6-5.9,0.9c1-0.6,1.5-1.1,1.6-1.2l0.5-1.2c-0.3,0-1.7-0.3-4.4-1
	C148.8,106.6,148.1,106.4,147.5,106.3L147.5,106.3z M149.5,102.2c0.6-0.1,1.3-0.3,2.1-0.5c-0.7,0.1-1.6,0-2.5-0.3
	c-0.1,0-0.3-0.1-0.4-0.1C149.1,101.5,149.3,101.8,149.5,102.2L149.5,102.2z M151,103.8l-0.8-0.2c0,0.1,0.1,0.2,0.1,0.2
	c-0.2,0-0.5,0.1-1,0.3c-0.4,0.2-0.8,0.2-1,0.2c0.1,0.1,0.1,0.2,0.2,0.3C149.5,104.3,150.4,104,151,103.8L151,103.8z M235.1,81.2
	c0.4,0.5,0.9,0.7,1.4,0.8c0.3,0,0.6,0,1.1-0.1c0.7-0.4,1.4-0.9,2-1.5c-0.6,0.2-1.7,0.4-3.3,0.6C235.9,81.1,235.5,81.1,235.1,81.2
	L235.1,81.2z M162.8,168.4c-0.7-0.4-1-0.7-1.1-0.7c0.2,0,0.6-0.1,1.1-0.4c0.3-0.2,0.6-0.3,0.8-0.4c-0.1,0.4-0.2,0.7-0.4,0.9
	C163.1,168.1,163,168.3,162.8,168.4L162.8,168.4z M163.8,164.5c0.1,0.2,0.2,0.3,0.3,0.5c-0.1,0.8-0.3,1.4-0.4,1.9
	c-0.2-0.1-0.6-0.2-0.9-0.4c-0.6-0.3-1-0.5-1.2-0.6C161.8,165.7,162.5,165.2,163.8,164.5C163.7,164.6,163.7,164.6,163.8,164.5
	L163.8,164.5z M163,171.1c0.9,0.8,1.6,1.6,1.8,2.5c-0.4,0.4-1,0.7-1.8,1c-1,0.4-1.7,0.6-2,0.8c0.7,0.6,1.7,1.5,3.1,2.7
	c1.1,1.1,2.1,2.2,2.7,3.2c-1.3,1.4-3.9,1.5-7.9,0.2c-2.3-0.9-4.2-1.6-5.6-2.2c0.4-0.8,0.5-2.2,0.3-4.2c1.8,3.6,3.6,5.4,5.2,5.4
	c-0.3-1.3-1-2.7-2-4c-1.2-1.5-2.2-2.5-2.8-3.2c1.8,1,3.3,1.7,4.6,2.1c-0.4-0.8-1-1.6-2-2.4c-1.1-1-1.8-1.7-2.2-2.2
	c1.3-0.6,3.2-0.7,5.8-0.2C161.3,170.8,162.2,171,163,171.1L163,171.1z M76,174.7c0.2-0.1,0.5-0.2,0.7-0.3c1.2-0.4,2.9-1.1,5.3-2.1
	c-0.3,0.2-1.4,0.8-3.3,1.9c-1.3,0.8-2.4,1.4-3.3,2.1c1.3,0.3,3,0.1,5.1-0.6c2.9-1,4.5-1.5,4.9-1.5c-1.1,1-2.1,1.7-3,2.1
	c0.9,0.2,2.3,0,4.1-0.7c2.4-0.9,3.8-1.3,4.3-1.4c-0.2,0.2-0.5,0.7-0.9,1.5c-0.4,0.7-0.7,1.1-0.9,1.3c0.5-0.1,1.3-0.3,2.1-0.7
	c1.1-0.4,1.9-0.7,2.2-0.9c-0.1,0.3-0.1,0.7-0.2,1.4c-0.1,0.6-0.1,1-0.2,1.2c0.7-0.2,1.4-0.7,2.1-1.4c0,0,0.6-0.7,1.8-2
	c-0.1,0.3-0.1,0.9-0.1,1.6c0,0.7,0,1.2-0.1,1.5c1.1,0.2,2.4-0.5,3.8-2.3c-0.1,0.3-0.1,0.7-0.1,1.4c0,0.7,0,1.1-0.1,1.4
	c1.3,0,2.4-0.8,3.4-2.3c-0.1,0.4-0.3,1-0.4,1.8c1.3,0.6,3.1-0.1,5.4-2.3c-0.3,0.5-0.5,1.2-0.8,2.1c0.6-0.1,1.6-0.3,2.9-0.6
	c1.3-0.3,2.2-0.6,2.9-0.7l-1.4,3.9c1.2-0.2,2.5-0.8,3.9-1.9c0.8-0.6,2-1.6,3.5-3.1c-0.8,2.3-1.2,4.2-1.2,5.7c1.1-0.1,2-1.1,2.8-3
	c0.7-2.3,1.3-3.9,1.6-4.8c0.2,0.5,0.5,1.2,1,2.1c0.5-0.8,1.1-2,1.6-3.5c0.6-2.1,1.1-3.3,1.2-3.7c1.3,2.2,2.4,2.8,3.3,1.6
	c2.1,2.4,3.9,3.8,5.4,4.4c0.1-1.1,0.1-2.2,0-3.5c0.3,1.1,0.6,2.2,0.9,3.2c1,2.8,2.1,4.6,3.3,5.4c0.3-0.9,0.5-1.5,0.6-2
	c0.2-0.8,0.3-1.4,0.3-2c0.2,0.6,0.5,1.5,0.8,2.7c0.3,1,0.6,1.7,1.1,2.2c0.5-0.9,0.9-2,1.2-3.5c0.3-1.8,0.5-3.1,0.6-4
	c1.5,2.8,3.5,5,5.9,6.6c0.4,0.3,0.7,0.5,1.1,0.6c0,0.2,0.1,0.4,0.1,0.7c-1,0.4-2.4,0.2-4.3-0.4c-1.9-0.7-3.3-0.9-4.1-0.6
	c-0.1,2-1.2,2.7-3.3,2.1c-2.9-1-4.5-1.4-4.7-1.3c0,1.2,0,2.1-0.1,2.7c-0.1,0.9-0.4,1.7-0.9,2.3c-1-0.2-1.9-0.8-2.8-1.7
	c-1-1.2-1.8-2.1-2.3-2.7c-1.2,3.1-2.4,4.7-3.7,4.8c-1.3,0.1-2.8-1.1-4.6-3.8c-1,6.1-2.7,7.3-5.2,3.6c-0.2,0.5-0.4,1.3-0.7,2.3
	c-0.3,0.8-0.7,1.4-1.1,1.9c-1.1-1-1.8-2-2-2.9c-0.1,0.2-0.5,0.5-1,0.9c-0.5,0.4-0.9,0.7-1,0.9c-0.6-0.4-1-1.2-1.3-2.4
	c-0.3-1.4-0.5-2.4-0.7-3c-0.3,0.4-0.8,1.1-1.4,2c-0.6,0.7-1.2,1.1-1.8,1.1c-0.1-0.5-0.2-1.5-0.4-3.1c-0.2-1.3-0.4-2.2-0.6-2.9
	c-0.6,0.5-1.5,1.4-2.6,2.7c-1.1,1-2.1,1.5-3,1.5c-0.1-0.6-0.1-1.4,0-2.4c0-1.1,0-1.9,0-2.5c-0.1,0.1-1.1,0.8-2.9,2.2
	c-1.2,0.9-2.2,1.4-3.1,1.7c0.2-1.5,0.7-3,1.6-4.4c-1,1.1-1.7,1.9-2.2,2.2c-0.9,0.7-1.7,1-2.5,0.9c0.1-0.3,0.1-0.7,0.1-1.3
	c0-0.6,0-1,0.1-1.3c-0.3,0.3-0.6,0.6-1.1,0.9c-0.3,0.2-0.6,0.4-1.1,0.7c-0.2-0.6-0.3-1.1-0.4-1.5c-0.2-0.6-0.3-1.3-0.2-1.9
	c-0.3,0.2-0.7,0.3-1.5,0.5c-0.7,0.2-1.2,0.3-1.5,0.5c0.4-1.1,0.8-1.8,1.2-2.3c-0.9,0.3-2,0.6-3.3,0.7c-1.4,0.1-2.5,0.2-3.1,0.3
	c-0.6,0.1-1.8,0.4-3.5,1.1c-1.5,0.6-2.7,0.8-3.7,0.7c0.4-1.1,1.4-2.2,3.3-3.4C74.7,175.4,75.4,175,76,174.7L76,174.7z M79.1,160.2
	c0.7-0.1,1.5-0.2,2.4-0.3c-0.4,0.1-0.9,0.3-1.4,0.7c-0.2,0.2-0.6,0.4-1,0.7v0C79,161.1,79.1,160.8,79.1,160.2L79.1,160.2z
	 M75.9,172.1c0.4-0.1,0.8-0.1,1.3-0.2c-0.4,0.3-0.9,0.7-1.6,1.1h0C75.7,172.8,75.8,172.4,75.9,172.1z M77.9,166.8
	c0.1-0.2,0.1-0.5,0.2-0.8c0.3,0,0.6,0,0.9,0c0.4,0,1.3-0.2,2.9-0.4C80.3,166.1,79,166.5,77.9,166.8z M79.1,163.7
	c0.2-0.4,0.3-0.7,0.5-1c-0.3-0.5-0.4-0.9-0.5-1.2c0.6,0.1,1.3,0.3,2,0.8C80.5,162.7,79.9,163.2,79.1,163.7L79.1,163.7z"/>
<path class="st0" d="M151.2,179.9c-0.3-0.1-0.7-0.3-1.1-0.6c-2.4-1.6-4.3-3.8-5.9-6.6c-0.1,0.9-0.3,2.2-0.6,4
	c-0.3,1.5-0.7,2.7-1.2,3.5c-0.4-0.5-0.8-1.3-1.1-2.2c-0.3-1.2-0.5-2.1-0.8-2.7c0,0.5-0.1,1.2-0.3,2c-0.1,0.4-0.3,1.1-0.6,2
	c-1.2-0.8-2.4-2.6-3.3-5.4c-0.4-1-0.7-2.1-0.9-3.2c0.1,1.2,0.1,2.4,0,3.5c-1.5-0.6-3.3-2-5.4-4.4c-0.9,1.2-2,0.7-3.3-1.6
	c-0.2,0.4-0.6,1.7-1.2,3.7c-0.5,1.6-1,2.7-1.6,3.5c-0.5-0.9-0.8-1.5-1-2.1c-0.3,1-0.8,2.6-1.6,4.8c-0.8,1.8-1.7,2.8-2.8,3
	c0-1.5,0.4-3.4,1.2-5.7c-1.5,1.4-2.7,2.5-3.5,3.1c-1.4,1-2.7,1.6-3.9,1.9l1.4-3.9c-0.7,0.1-1.6,0.3-2.9,0.7
	c-1.3,0.4-2.2,0.6-2.9,0.6c0.3-0.9,0.5-1.5,0.8-2.1c-2.2,2.2-4,2.9-5.4,2.3c0.1-0.9,0.3-1.5,0.4-1.8c-1,1.6-2.1,2.3-3.4,2.3
	c0.1-0.3,0.1-0.7,0.1-1.4c0-0.7,0-1.2,0.1-1.4c-1.4,1.8-2.6,2.5-3.8,2.3c0.1-0.3,0.1-0.8,0.1-1.5c0-0.7,0-1.2,0.1-1.6
	c-1.2,1.3-1.8,2-1.8,2c-0.8,0.7-1.5,1.2-2.1,1.4c0.1-0.2,0.1-0.6,0.2-1.2c0.1-0.7,0.1-1.1,0.2-1.4c-0.4,0.1-1.1,0.4-2.2,0.9
	c-0.9,0.3-1.6,0.6-2.1,0.7c0.2-0.2,0.5-0.6,0.9-1.3c0.4-0.8,0.7-1.3,0.9-1.5c-0.5,0.1-1.9,0.6-4.3,1.4c-1.8,0.6-3.1,0.9-4.1,0.7
	c0.9-0.4,1.8-1.1,3-2.1c-0.4,0.1-2,0.6-4.9,1.5c-2,0.7-3.7,0.9-5.1,0.6c0.9-0.6,2-1.3,3.3-2.1c1.9-1.1,3-1.7,3.3-1.9
	c-2.4,0.9-4.1,1.6-5.3,2.1c-0.3,0.1-0.5,0.2-0.7,0.3c-1.8,0.6-3.4,1-4.8,1.3c0.6-0.5,1.6-1.2,2.9-2.1c0.5-0.3,1-0.6,1.4-0.9
	c0.7-0.5,1.2-0.8,1.6-1.1c-0.5,0.1-0.9,0.2-1.3,0.2c-1,0.2-1.8,0.3-2.4,0.4c-1.4,0.1-2.6,0.1-3.7-0.1c1.2-0.9,2.3-1.6,3.4-2.1
	c-1.2,0.3-2.4,0.3-3.4,0c1.5-1.1,3.5-2,5.9-2.8c0.6-0.2,1.3-0.4,2.1-0.7c1.1-0.3,2.4-0.7,3.9-1.2c-1.5,0.3-2.5,0.4-2.9,0.4
	c-0.3,0-0.6,0-0.9,0c-0.8,0-1.5-0.2-2.1-0.4c1.1-0.7,2-1.2,2.5-1.6c0.2-0.1,0.4-0.2,0.5-0.4c0.8-0.5,1.4-1,1.9-1.4
	c-0.7-0.5-1.4-0.8-2-0.8h-0.2c0.1-0.1,0.1-0.1,0.2-0.1c0.4-0.3,0.8-0.6,1-0.7c0.5-0.3,1-0.6,1.4-0.7c-0.9,0.1-1.7,0.2-2.4,0.3
	c-0.9,0.1-1.6,0-2,0c0.4-0.3,0.9-0.5,1.5-0.8c1.2-0.5,2.6-1,4.4-1.4c-0.4-0.2-0.8-0.5-1.1-0.9c0.4-0.4,2-1.4,5-2.9
	c0.6-0.3,1.1-0.7,1.6-1.1c-0.1-0.1-0.2-0.1-0.3-0.2c0.2-1.8,0.9-2.9,2.1-3.3c-0.2,1.4-0.8,2.6-1.8,3.5c1.3,0.7,2.9,0.9,4.8,0.8
	c1.1-0.1,2.9-0.4,5.4-1c-0.3,0.6-0.8,1.4-1.4,2.5c-0.5,1-0.9,1.9-1.2,2.7c1,0.6,2.1,0.5,3.5-0.4c-1.5,1.1-2.5,2.4-2.9,4.1
	c1.3,1.1,3.5,1.4,6.6,0.9c2.4-0.4,4.6-1.2,6.5-2.3c-1.3,0.8-2.4,1.8-3.3,3c0.9,0.5,1.9,0.5,3.1-0.1c1.1-0.6,2-1.5,2.5-2.7
	c0.6,1.6,1.8,1.7,3.5,0.3c0.7-0.5,1.3-1.1,1.8-1.8c-0.5,1.1-0.8,2.2-0.8,3.3c1.9,0.7,3.9,0.3,6.2-1.4c2.1-1.6,3.6-3.5,4.5-5.9
	c0,0,0.1,0.1,0.2,0.3c0.1,0.1,0.1,0.1,0.2,0.1c0.7-1.3,1.2-2.1,1.4-2.4c0.4-0.4,1.1-0.6,2-0.4c0.6,0,1.8,0.5,3.6,1.6
	c2,1.2,3.3,1.9,3.8,2c1.7,0.6,4.3,1.6,7.7,3c3,1.1,5.6,1.9,7.8,2.2c1.1,0.2,3.1,0.5,5.9,0.7c0.6,0,1.1,0.1,1.6,0.1
	c0.2,0,0.4,0,0.6,0.1c-0.7,0.7-1.2,1-1.4,1c1.4,0.2,2.9,0,4.5-0.5c0.1,0,0.2,0.1,0.3,0.1c-0.3,0.5-0.9,1-1.8,1.5c0,0,0,0-0.1,0
	c-1.1,0.6-1.9,1.1-2.1,1.3c0.2,0.1,0.6,0.3,1.2,0.6c0.4,0.2,0.7,0.3,0.9,0.4c0.1,0,0.2,0,0.3,0c-0.1,0-0.2,0-0.3,0.1
	c-0.2,0.1-0.5,0.2-0.8,0.4c-0.5,0.3-0.9,0.4-1.1,0.4c0,0,0.4,0.3,1.1,0.7c0.4,0.2,0.9,0.6,1.5,0.9c1,0.6,1.7,1.3,2.1,2
	c-0.5,0-1.6-0.1-3.3-0.3c-0.8-0.1-1.7-0.3-2.8-0.5c-2.6-0.4-4.5-0.4-5.8,0.2c0.4,0.5,1.1,1.3,2.2,2.2c1,0.9,1.7,1.7,2,2.4
	c-1.2-0.4-2.8-1.1-4.6-2.1c0.6,0.7,1.5,1.8,2.8,3.2c1,1.3,1.7,2.7,2,4c-1.6,0-3.3-1.8-5.2-5.4c0.2,2,0.1,3.4-0.3,4.2
	C152.9,180.2,152.2,180.4,151.2,179.9L151.2,179.9z"/>
<g>
	<path class="st0" d="M112.7,16c1.1-1.1,2.5-0.4,4.4,1.9c1,1.2,2.2,3,3.5,5.4c0.5,0.6,1.8,1.9,3.9,3.9c1.6,2,1.8,3.7,0.7,5.3
		c0.4,0.4,0.7,1,0.9,1.6c0,0.2,0.1,0.7,0.3,1.8c-0.4,0.1-0.7,0.1-0.9,0.1c-0.5,0-0.9-0.1-1.2-0.3c1.1,1.9,1.5,3.3,1.2,4.4
		c-1.6-0.4-3.3-1.8-5-4.2c0.8,1.6,1,3,0.6,4.4c-1.1-0.3-2.1-0.9-2.8-1.8c0.3,1.1,0.3,2,0,2.7c-0.3,0.6-0.8,0.8-1.4,0.8
		c1.3,1.2,3.2,3.3,5.6,6.2c2.3,2.4,4.5,3.7,6.6,4.1c-0.1,1.5-0.8,2.2-2,2.2c-0.7,0-1.8-0.3-3.2-1c-1.2,0.8-2.1,1.4-2.7,1.7
		c-1,0.5-2.1,0.3-3.1-0.7c0,0.4-0.2,1.1-0.6,2.1c-0.5-0.3-1-0.7-1.4-1.3c-0.6,0.9-1.1,1.2-1.7,1c-0.6-0.2-1.1-0.9-1.5-2l-0.8,1.8
		l-0.4-1.1c-0.1,0.4-0.2,0.9-0.5,1.4c-0.2,0.3-0.4,0.7-0.7,1.2c0-0.3-0.1-0.7-0.3-1.4c-0.2-0.7-0.3-1.1-0.3-1.4
		c-0.1,0.2-0.2,0.4-0.4,0.6c-0.1,0.1-0.2,0.3-0.4,0.4c-0.5-1-0.9-1.8-1-2.3c-0.1,0.3-0.4,0.6-0.7,1.1c-0.3,0.4-0.5,0.8-0.7,1.1
		c-0.4-0.4-0.7-0.6-1-0.8c0,0.3-0.1,0.7-0.3,1.3c-0.2,0.5-0.3,0.9-0.3,1.1c-0.1-0.3-0.2-0.6-0.5-1c-0.3-0.4-0.5-0.7-0.5-0.8
		c-0.1,0.4-0.3,0.8-0.6,1.3c-0.4-0.5-0.8-1.2-1.1-2.1c-0.4-0.9-0.6-1.6-0.9-2.1c-0.1,0.5-0.5,1.4-1.2,2.6c0-0.2-0.1-0.5-0.3-0.9
		c-0.2-0.4-0.3-0.7-0.3-0.9c-0.6,1.8-1.5,2.9-2.6,3.1c0-0.3-0.1-0.7-0.3-1.3c-0.2-0.6-0.3-1-0.3-1.3c-0.1,0.2-0.4,0.4-0.8,0.7
		c-0.4,0.3-0.7,0.5-0.8,0.6c-0.2-0.9-0.2-1.5-0.2-1.8c-1.2,0.6-2.2,0.7-3.2,0.2v-1c-0.4,0.1-0.9,0.1-1.6,0.1
		c-0.7-0.1-1.3-0.1-1.6-0.1v-1.6c-0.7-0.2-1.2-0.3-1.5-0.4c-0.5-0.2-1-0.2-1.3-0.1c1.1-0.4,3.5-0.9,7.4-1.7c3.3-1.1,5-3.2,5-6.1
		c-0.2,0.2-0.4,0.4-0.6,0.5c-0.3,0.1-0.6,0.2-0.8,0.3c0.1-0.2,0.1-0.5,0.1-1c-0.1-0.7-0.1-1.1-0.1-1.1c-0.4,0.2-0.5,0.3-0.5,0.3
		c0-0.1-0.1-0.2-0.3-0.3c-0.8,0.2-1.3,0.3-1.6,0.3c-0.1-0.1,0-0.3,0-0.5c0.1-0.3,0.1-0.5,0.1-0.5c-0.7,0-1.2-0.1-1.6-0.3
		c0.1,0,0.2-0.1,0.4-0.4c0.1-0.3,0.2-0.4,0.2-0.6c-0.2,0.1-0.6,0.1-1.1,0c-0.6-0.2-0.9-0.2-1-0.2l0.8-1c-0.1,0-0.4-0.1-0.9-0.4
		c-0.5-0.3-0.9-0.4-1.1-0.4c2.4-0.5,4-0.9,4.7-1.2c1.8-0.9,2.8-2.3,2.9-4.2h-1.6c0.3-0.2,0.6-0.5,1.1-1.1c0.4-0.6,0.8-1,1.1-1.2
		C98.1,29,97.7,29,97,29c0.2-0.2,0.7-0.7,1.5-1.5c0.7-0.6,1.1-1.1,1.3-1.6c-0.1,0.1-0.3,0.2-0.6,0.2c-0.4,0.1-0.7,0.2-0.8,0.3
		c0.3-0.3,0.6-0.8,0.9-1.5c0.5-1,0.8-1.5,0.9-1.7c-0.3,0-0.5-0.1-0.6-0.2c1-1.5,1.4-3,1.4-4.4l-1.2,0.8c1.2-2.7,2-4.3,2.1-4.8
		c0.6-1.7,1-3.4,1-5.2c-0.1-1.6,0.1-3.3,0.4-5.1c0.4-2,0.9-3.6,1.6-4.7C107.4,7.4,110,12.9,112.7,16L112.7,16z"/>
	<path class="st0" d="M133,65.5c3,1,5.1,2.1,6.3,3.4c-0.9,0.9-1.8,1.5-3,1.7c-0.5,0.1-1.7,0.1-3.6,0.1c0,0.4,0.1,0.7,0.2,1.1
		c-0.2-0.1-0.5-0.1-1.1-0.2c-0.5,0-1-0.1-1.3-0.3c0.1,0.3,0.1,0.7,0,1.2c-0.1,0.6-0.1,0.9,0,1.1c-0.8,0.1-1.7-0.1-2.6-0.6
		c-0.3-0.1-1.1-0.6-2.4-1.5c0,0.7-0.1,1.3-0.4,1.9c0,0-0.3,0.5-0.8,1.5c-0.1-0.2-0.3-0.6-0.6-1.2c-0.3-0.5-0.5-1-0.6-1.4
		c-0.4,0-0.7,0.2-1,0.5c0-0.4-0.1-1.1-0.4-2.3c-0.1,0-0.3,0.1-0.6,0.2c-0.3,0.1-0.5,0.1-0.6,0c0-0.5-0.1-0.8-0.2-0.8
		c-0.5,0.2-1.2,0.8-2,1.8c-0.8,1-1.5,1.6-2.1,1.8c-0.5-0.7-0.9-1.2-1-1.6c-0.6,0.8-1.5,2.1-2.6,3.9c-1.1,1.6-2.1,2.6-3,3.1
		c0.2-0.6,0.4-1.4,0.7-2.2c0.4-1,0.7-1.7,0.9-2.2c-0.6,0.7-1.6,1.8-2.9,3.3c-1.2,1.2-2.3,2.1-3.2,2.7c0.2-0.6,0.6-1.3,1.2-2.3
		c0.7-1.1,1.1-1.9,1.3-2.3c-0.3,0.3-0.8,0.7-1.5,1.2c-0.6,0.5-1.2,0.9-1.7,1.1c0.3-0.8,0.8-1.8,1.6-2.9c1-1.5,1.5-2.4,1.7-2.8
		c-1.1,1.2-2.3,2.3-3.8,3.4c0-1.2,0.1-2,0.2-2.3c-0.7,1.3-1.6,2.1-2.6,2.3c-0.3-0.4-0.5-0.8-0.6-1.1c-1,1.1-1.5,1.7-1.7,1.8
		c-0.6,0.6-1.3,0.9-1.9,1.1c-0.2-1.1-0.2-1.8-0.2-2.3c-0.5,0.8-1.1,1.5-1.9,2c-0.8,0.5-1.5,0.8-2.3,0.8c0.1-0.3,0.1-0.9,0-1.8
		c-0.1-0.9-0.1-1.5,0-1.8c-0.8,0.7-1.4,1.1-1.9,1.4c-0.8,0.4-1.5,0.4-2.1,0.2c0.2-0.4,0.2-1,0.2-1.8C88.8,74.6,88,75,87,75.6
		c-0.9,0.4-1.7,0.6-2.3,0.5c0.2-0.6,0.4-1.1,0.5-1.4c0.3-0.6,0.5-1,0.9-1.2c-1.3,0.5-2.7,0.9-4.2,1.1c-1.7,0.2-3.1,0.1-4.2-0.3
		c0.2-0.1,0.5-0.3,0.9-0.7c0.5-0.4,0.8-0.7,1.1-0.9c-1.3,0.3-2.6,0.3-3.8,0c0.7-0.6,2-1.2,3.7-1.9c1.7-0.7,2.9-1.4,3.7-2
		c-0.3-0.5-0.5-0.8-0.6-0.8c1.7-0.8,4.1-1.5,7.3-1.9c3.3-0.5,5.8-1.1,7.3-1.7c-0.9-0.2-2.4-0.3-4.3-0.3c1.6-0.3,3-0.7,4.4-1.3
		c1-0.5,2.4-1.4,4.1-2.5h0.4c1.3-0.7,3.3-0.9,5.8-0.6c3.4,0.4,5.4,0.6,5.9,0.6c2.8,0,5.5,0.3,8,0.8c0.8,0.1,1.7,0.4,2.5,0.7
		c0.5,0.2,1.2,0.6,2.3,1.1C127.2,63.5,129.4,64.4,133,65.5z"/>
	<path class="st0" d="M120.5,79.8c0.6,0.8,1.7,1.6,3.4,2.5c1.6,0.8,2.7,1.7,3.2,2.7c0,0.4-0.2,0.8-0.6,1c0.4,0.7,0.5,1.2,0.5,1.7
		c0,0.3-0.1,0.8-0.2,1.5l-0.6-0.8c0.3,0.4,0.4,0.9,0.3,1.5c0,0.8,0,1.2,0,1.3c-0.9-0.1-1.8-0.6-3-1.4c-1.2-1-2.1-1.8-2.8-2.2
		c0,0.9-0.1,1.5-0.3,1.9c-0.1,0.2-0.4,0.4-1.1,0.7c0.1,1.3,0.2,2.4,0.1,3.3c-0.1,1.2-0.3,1.7-0.7,1.6c0.4,1.9,0.2,3.6-0.6,5.2
		c-1.4-0.4-2.5-2.6-3.2-6.7c-0.3,1.1-0.6,1.8-0.7,2.2c-0.3,0.7-0.7,1.2-1.3,1.4c0-2.1-0.1-3.6-0.4-4.7c-1,2.6-2.1,4.4-3.4,5.2
		c-0.5-1.3-0.4-3,0.4-4.9c-1.7,3.1-3.3,4.5-4.8,4.1c0-1.3,0.3-2.6,0.8-4c-0.5,0.8-1,1.4-1.6,1.7c0-0.2-0.1-0.5-0.3-1.1
		c-0.2-0.5-0.3-1-0.3-1.2c-1.1,1.4-2.2,2.1-3.2,2.1c-0.4-1.6-1.1-2.1-2.2-1.4c-1.6,0.9-2.7,1.3-3.2,1.1c-0.1-1.4-0.2-2.4-0.2-2.9
		c-0.8,1.1-1.4,1.7-1.6,1.9c-0.6,0.6-1.3,0.8-2,0.7c0.1-0.4,0.2-0.9,0.2-1.5c-0.6,0.3-1.5,0.9-2.7,1.6c-1.1,0.6-1.9,0.9-2.7,1
		l0.8-1.1c-1.5,1.1-2.9,2-4.3,2.4c-1.8,0.6-3.1,0.5-4.1-0.3c0.4-1.1,0.7-1.7,0.8-1.8c-0.1-0.1-0.2-0.2-0.4-0.3
		c-0.2-0.1-0.4-0.2-0.4-0.2c1-0.7,2.5-1.6,4.7-2.6c2.1-1.1,3.7-1.9,4.7-2.6c-0.3-0.2-0.4-0.3-0.6-0.5c1.9-1.2,3.8-2.6,5.8-4.1
		c-0.4,0-0.7-0.1-0.8-0.3c0.3-1.3,1.1-2.5,2.2-3.6c1.2-1.2,2.2-1.4,3.1-0.7c1.3-0.4,3.4-0.8,6.3-1.2c0.3-0.1,1.1,0,2.2,0.1
		c1.1,0.2,1.8,0.2,2.2,0.1c0.6-0.2,1.5-0.7,2.7-1.6c1.1-0.7,2-0.6,2.8,0.1c0.7-1.6,1.6-2.3,2.9-2.2c1.1,0.1,2.1,0.8,3.1,2.2
		c0.2,0.3,0.4,0.7,0.5,1.4C120.1,78.9,120.3,79.5,120.5,79.8L120.5,79.8z"/>
	<path class="st0" d="M129.7,88.9c0.2,0.1,0.5,0.1,1.1,0c0.6,0,1.1,0,1.4,0.2c-0.2-0.4-0.4-1-0.4-1.8c-0.1-1.1-0.1-1.8-0.1-1.8
		c0.5-0.4,1.1-0.3,1.7,0.4c1.3,0.4,3.6,1.1,6.8,2c2.9,0.8,5.1,1.5,6.6,2l-0.6,0.8c0.5,0.2,1.2,0.3,2.2,0.4c1,0.1,1.8,0.2,2.2,0.4
		c-0.9,0.3-2.1,0.5-3.7,0.5c-1.8,0-3,0.1-3.7,0.3c1.7,0.3,2.9,0.8,3.6,1.3c-0.5,0.2-1.3,0.3-2.4,0.5c-1,0.2-1.7,0.3-2.2,0.5
		c0.4,0.2,0.8,0.6,1.3,1.2c0.6,0.8,0.9,1.3,1.1,1.4c-0.2,0-0.5,0.1-1,0.4c-0.5,0.3-0.9,0.4-1.2,0.4c0.7,1.1,1.1,1.8,1.2,2
		c0.4,0.8,0.6,1.5,0.6,2.2c-0.5-0.3-0.8-0.4-1.1-0.6c-0.4-0.3-0.8-0.5-1-0.8c1.4,1.9,2.1,3.6,2.1,5.2c-1.2-0.2-2.7-1.6-4.4-4.1
		c0.6,1.3,0.8,2.8,0.6,4.4c-0.5-0.1-1.1-0.5-1.7-1c0,0-0.5-0.6-1.5-1.6c0.2,0.5,0.2,1.1,0.1,1.8c-0.1,1.1-0.1,1.8-0.1,1.8
		c-0.8-0.8-1.4-2-1.8-3.6c0.2,1.6,0,3.4-0.4,5.4c-1-0.8-2-3.1-3.2-6.9c-1.2-4-1.4-6.3-0.4-6.9c-0.7-1.4-1.1-2.5-1.3-3.2
		C129.7,91,129.6,89.9,129.7,88.9L129.7,88.9z"/>
	<path class="st0" d="M113.4,97.3c0.9,0.4,1.6,0.6,2.1,0.6c0.8,0,2.3-0.2,4.6-0.7c2-0.4,3.6-0.5,4.7-0.3c-0.2,0.1-0.5,0.4-1.1,1
		c-0.5,0.4-0.9,0.7-1.3,0.8c0.6,0.4,1.9,1,3.9,1.9c1.7,0.7,2.9,1.5,3.7,2.2c0.1,1.4,0.6,3.1,1.4,5c0.3,1.2-0.8,1.6-3.2,1.3
		c0.2,1.9-0.6,2.6-2.2,2.1c-1.9-0.9-3.2-1.3-3.8-1.3c0.1,0.6,0,1.3-0.2,1.9c-0.1,0.4-0.3,0.8-0.6,1.5c-0.4-0.1-1.1-0.5-2.2-1.2
		c-0.9-0.6-1.6-0.9-2.2-0.9c-0.5,2.7,0.3,4.3,2.3,4.9c0.8,0.2,1.4,0.1,2-0.5c0.6-0.6,0.9-1.5,0.8-2.8c0.7,1.5,1.5,2.1,2.2,1.8
		c0.4-0.2,0.9-0.5,1.6-1c0.3,0,1,0.2,2.1,0.7c1.1,0.4,1.9,0.6,2.5,0.6l0.4-1.9c0.1-0.8,0.2-1.4,0.2-2c0.3,0.2,0.7,0.3,1.2,0.5
		c0.4-1.8,3.3-1.8,8.6,0c2.7,1,5.8,2.3,9.4,4.1c-1,0.3-2.3,0.4-4,0.4c-1.9-0.1-3.2,0-4,0.1c0.9,0.3,2.2,0.9,4.1,1.6
		c1.6,0.7,2.8,1.4,3.6,2.3c-0.8,0.3-1.4,0.5-1.8,0.5c0.3,0.2,0.7,0.5,1.2,1.1c0.5,0.5,0.9,0.9,1.2,1.1c-0.5,0.7-1.4,1-2.8,1.1
		c-1.5,0-2.4,0.2-2.8,0.5c0.3,0.3,0.6,0.7,0.8,1.4c0.2,0.7,0.4,1.1,0.4,1.2c-0.9,0.4-2.1,0.6-3.4,0.3c-1.5-0.4-2.7-0.7-3.4-0.9
		c0.5,0.8,1.5,2.1,3.1,4.1c1.3,1.8,1.8,3.3,1.5,4.5c-1.6-0.4-3.6-1.9-6-4.7c1.2,2.1,2,3.7,2.4,4.9c0.7,2.1,0.9,3.9,0.4,5.5
		c-1.1-0.4-2.2-1.7-3.2-4c1.2,3,1.4,5.2,0.8,6.5c-1.9-1.6-3.6-3.8-5.2-6.7c0.1,0.7-0.1,1.9-0.6,3.6c-0.7-0.4-1.3-1-1.8-2
		c0.1,1.3,0,2.5-0.2,3.5l-0.8-1.3c0,1.5-0.3,2.8-1,3.9c-1.3-0.9-2-2.7-2.1-5.4c-0.2,1.2-0.4,2.2-0.9,3c-1.1-1.5-1.7-4-1.6-7.6
		c-0.3,1.8-0.8,3-1.6,3.7c-0.4-0.9-0.7-2-0.9-3.4c-0.1-1.6-0.2-2.8-0.3-3.6c-0.1,0.8-0.3,2-0.6,3.7c-0.3,1.4-0.9,2.3-1.6,2.7
		c-0.3-1.1-0.3-2.2-0.1-3.3c-0.4,1.1-0.9,1.9-1.4,2.5c-0.7,0.8-1.4,1-2,0.6c-0.4-0.2-0.7-1-0.8-2.4c-0.1-1.5-0.1-2.5-0.2-2.8
		c-0.6,0.6-1.8,1.9-3.3,3.9c-1.5,1.7-2.7,2.4-3.6,2.3c0.2-0.4,0.3-1,0.3-1.8c0.1-0.9,0.2-1.5,0.3-1.8c-0.5,0.3-1.3,0.9-2.3,1.7
		c-0.9,0.6-1.8,1-2.5,1.1c-0.1-0.9-0.2-1.5-0.2-2.1c-0.7,0.8-1.9,2.2-3.6,4.1c-1.6,1.6-3,2.4-4.3,2.4c0-0.1,0-0.7,0.1-1.8
		c0.1-0.8,0.2-1.4,0.4-1.8c-0.8,0.6-2,1.7-3.6,3.2c-1.5,1.2-2.9,1.8-4.1,1.8c0-0.7,0.2-1.4,0.5-2.2c0.2-0.4,0.5-1.1,1.1-2.2
		c-1.2,1.3-2.1,2.1-2.6,2.5c-1,0.8-2,1.2-3,1.3c0.3-1.1,1.2-2.9,2.6-5.2c-1.5,1.5-2.5,2.4-3,2.7c-1.3,1-2.4,1.3-3.2,0.9
		c0.4-1.8,1.1-3.7,2.2-5.7c-0.5,0.3-1.3,0.7-2.3,1.3c-0.9,0.5-1.6,0.7-2.3,0.7c0.2-0.3,0.5-0.7,0.9-1.4c0.4-0.6,0.6-1,0.7-1.2
		c-1.6,0.5-2.8,0.8-3.6,1.1c-1.4,0.4-2.6,0.6-3.6,0.5c0-0.7-0.1-1.2-0.2-1.6c-1.1-0.5-2.7-0.7-4.8-0.7c-2.4,0-4-0.1-5-0.3
		c1.9-0.9,5.5-2.1,10.6-3.5c4.6-1.3,8-2.7,10.3-4c3.1-1.6,5.6-3,7.4-4.1c3.3-2.1,5.4-4.2,6.4-6.3c-0.1-0.1-0.2-0.1-0.3-0.1
		c-0.2,0-0.4,0-0.5-0.1c1.1-1.6,1.8-2.7,2.4-3.3c-1.4,1.4-2.5,1.9-3.4,1.5c-0.1-0.5-0.3-1.1-0.6-1.8c-0.6,0.4-1.5,1.2-2.7,2.2
		c-1.1,0.9-2.1,1.4-3.1,1.7c0.6-1.5,1.7-3,3.4-4.6c-1.6,1.3-3,1.8-4.2,1.5c0-0.5,0-0.9,0-1.2c0-0.6,0-1.1,0-1.4
		c-0.5,0.3-1.3,0.9-2.3,1.6c-0.9,0.5-1.6,0.9-2.3,1c0.1-0.2,0.3-0.5,0.5-1.1c0.2-0.6,0.4-1,0.5-1.2c-2.5,1.8-4,2.8-4.3,2.9
		c-2,1.1-3.5,1.2-4.5,0.4c0.2-0.2,0.3-0.5,0.5-1c0.2-0.5,0.4-0.9,0.5-1.1c-0.2,0-0.6-0.1-1.3-0.4c-0.7-0.3-1.2-0.4-1.5-0.4
		c0.9-0.4,2.7-1,5.3-1.8c2.3-0.9,3.9-1.9,4.9-3.2c-0.2-0.3-0.3-0.6-0.4-0.8c2.4-1.5,4.3-2.7,5.6-3.5c2.4-1.6,3.9-3.4,4.6-5.3l3-1
		l0.4,1.1c0.1,0,0.5-0.1,1-0.3c-0.1,0.4-0.1,0.9,0,1.6c0.1,0.7,0.1,1.2,0,1.5c0.7,0,1.8-0.4,3.3-1.3c0.3,1.3,1.1,1.5,2.3,0.7
		c0.7-0.4,1.6-1.1,2.9-2c1.1,0.5,1.6,0.8,1.8,0.8c0.3,0,0.7-0.1,1.2-0.4s1-0.4,1.4-0.4C111.9,96.7,112.5,96.9,113.4,97.3L113.4,97.3
		z"/>
	<path class="st0" d="M130.3,141c0.3-1,0.4-1.7,0.4-2.1c0.9,0.2,2.2,0.6,4.1,1.2c1.6,0.4,2.9,0.3,3.7-0.5c-0.4-0.4-0.8-0.8-1-1
		c0.3,0.1,0.6,0.1,1.1,0c0.3-0.1,0.6-0.2,1.1-0.3c-0.3-1.2-0.8-2-1.5-2.6c0.2,0,0.4-0.2,0.7-0.4c0.3-0.2,0.5-0.4,0.6-0.4
		c0.1,0,0.1-0.3,0.2-0.8c0.1-0.5,0.3-0.8,0.4-0.8c0.4-0.2,0.8-0.2,1.4,0c0.7,0.3,1.2,0.5,1.4,0.5c4.7-0.8,8-1.2,9.8-1.4
		c3.8-0.3,7.1-0.1,10.1,0.6c-0.3,1.1-1,1.9-1.9,2.3c-1.2,0.4-2.1,0.7-2.7,1c0.7,0.3,1.9,0.6,3.4,1c1.3,0.4,2.4,0.9,3.2,1.6
		c-1,0.3-2.4,0.3-4.2,0.1c-2-0.2-3.4-0.3-4.2-0.1c0,0.5,0.2,0.8,0.6,1.1c-0.8,0.1-2.1-0.1-3.7-0.6c-1.7-0.5-2.8-0.7-3.4-0.7
		c0.5,0.6,1.5,1.5,2.8,2.7c1.1,1.2,1.9,2.3,2.2,3.5c-0.1,0-0.4,0.1-0.8,0.4c-0.4,0.3-0.7,0.4-0.8,0.4c0.1,0.3,0.3,0.7,0.4,1.2
		c0.1,0.5,0.3,0.9,0.4,1.1c-0.9,0.6-2.3,0.7-4.1,0.2c-2.5-0.6-3.9-1-4.3-1c0.5,0.8,1.3,2,2.3,3.6c0.9,1.5,1.5,2.9,1.6,4.2
		c-1.2,0.3-2.2-0.1-3-1.1c1,1.7,1.6,3.2,2,4.4c-1.1,0.3-2.7-0.4-4.6-2.3c-2-2.3-3.4-3.8-4.2-4.5c0,2-0.8,2.5-2.3,1.5
		c-1.7-1.5-2.8-2.5-3.3-2.8c-0.2,0.4-0.4,1.3-0.6,2.6c-0.2,1.2-0.5,2.1-0.8,2.8c0,0-0.3-0.5-0.8-1.3c-0.4,1.8-1.1,2.9-2,3.4
		c-0.9-1.5-1.4-3.5-1.4-6c0,1.8-0.3,3.3-0.8,4.4c-0.8-0.9-1.7-2.5-2.8-4.9c0,0.4-0.1,0.9-0.3,1.5c-0.2,0.6-0.3,1.1-0.3,1.3
		c-1.5-1.7-2.6-3.6-3.4-5.7c-0.3,2.6-0.9,4.4-1.8,5.4c-0.7-0.9-1.2-2.3-1.4-4.2c-0.1,1.4-0.3,2.4-0.4,3c-0.2,1.1-0.6,1.9-1.1,2.4
		l-0.6-4.4c-0.3,2.4-0.8,4.2-1.6,5.4c-0.4-0.5-0.5-1.4-0.4-2.5c0.2-1.3,0.3-2.3,0.4-2.9c-0.6,0.5-1.5,1.4-2.7,2.7
		c-1.1,1.1-2.1,1.7-3.1,2c0.2-1.3,0.7-2.8,1.6-4.5c0.5-0.9,1.4-2.3,2.6-4.1c-1.9,2.6-3.7,4-5.3,4.2c-0.3-1.4-0.3-2.4-0.2-2.9
		c-0.4,0.1-1.4,0.6-3,1.6c-1.1,0.7-2.1,0.8-3,0.4c0.3-1.4,0.8-2.9,1.6-4.6c-0.9,0.4-2.2,1.3-4,2.5c-1.7,1-3.1,1.4-4.3,1.3
		c0.7-1.5,1.5-2.7,2.4-3.6c-1.9,1.4-3.3,2.4-4.2,2.9c-1.8,0.9-3.3,1.2-4.5,0.7c0.9-1.7,1.6-2.7,2-3.1c-1.4,1.1-2.6,1.9-3.6,2.3
		c-1.6,0.7-2.8,0.8-3.8,0.2c0.1-0.4,0.2-0.9,0.2-1.5c-2,1.1-3.5,1.9-4.5,2.4c-1.8,0.9-3.4,1.2-4.7,0.9c0.1-0.2,0.2-0.7,0.3-1.5
		c0.1-0.9,0.2-1.4,0.3-1.6c-2,0.7-3.6,1.3-4.7,1.6c-1.9,0.5-3.4,0.5-4.5,0c0.8-1.1,1.3-1.7,1.4-1.8c-0.9-0.2-1.7-0.3-2.2-0.3
		c1.3-0.5,3.4-1.2,6.1-2.1c2.3-0.9,4.2-2.2,5.5-3.9c0.6,0.2,1.1,0.2,1.5,0.1c0.4-0.1,0.9-0.4,1.3-0.9c-0.1,0.1-0.2,0.3-0.2,0.8
		c-0.1,0.4-0.1,0.7-0.2,0.8c1.7,0.7,3.7,0.6,6-0.3c1.4-0.5,3.2-1.6,5.5-3.1l-0.4,0.5c0.1,0,1.6-0.4,4.5-1.2c1.8-0.4,3.3-1.1,4.4-1.9
		l0.5-1.1c-0.6,1.3-0.9,2.8-0.9,4.2c0.1-0.1,0.5-0.2,1.1-0.3c0.5-0.1,0.9-0.3,1.1-0.5c-0.1,0.5,0,1.1,0.1,1.7
		c0.2,0.8,0.2,1.2,0.2,1.4c1.8,0,3.6-1,5.4-3.1l-0.2,1c2.6,0.3,5.3-0.6,8.2-2.6c0,0.3,0.1,0.8,0.2,1.3c0.6-0.1,1.1-0.3,1.4-0.6
		c0.3-0.3,0.6-0.8,1-1.4c1.6,1.8,3.2,3.2,4.8,4.2c2.5,1.4,3.6,0.7,3.5-2.1c1.2,0.9,2.1,1.5,2.7,1.8C128.6,140.7,129.5,141,130.3,141
		L130.3,141z"/>
</g>
<g>
	<path class="st0" d="M243.1,58.7c0.2,0.3,0.5,0.5,1.1,0.5c0.2,0.6,0.5,1.5,0.7,2.6l2.4-0.6c-0.4,0.8-0.3,1.5,0.1,2.2
		c0.7-0.4,1.2-0.6,1.4-0.9c0.1,0,0.5,0.4,1.2,1.2l1.7-0.7l0.5,0.8c-0.1,0.3-0.5,0.7-1.1,1.3c-3.7-1.3-6.6-2.8-8.8-4.5
		c0.2,0.2,0.4,1,0.7,2.4c0.3,1.5,0.2,2.1-0.2,1.9c1.7,1,4.2,2.4,7.4,4l1.9-1.6c0,1.1-0.1,2.1-0.4,3.3c-0.1,0.2,0.4-0.6,1.5-2.3
		l0.4,1.2l0.6-1.9c0,0.4,0.1,0.9,0.2,1.4c0.1,0.3,0.2,0.7,0.4,1.2c-0.1-0.8,0-1.1,0.1-0.9c0.4,0.4,0.8,0.6,1,0.5
		c0.9-0.1,1.3-0.2,1.4-0.1c-0.1-0.4,0-1,0.4-1.8c0.6,1,0.9,2.2,0.9,3.3c0.1-0.8,0.3-1.2,0.8-1.3c1,0,1.6,0,1.6-0.1
		c0.7-1.1,1.2-2.3,1.6-3.6c0.3-0.1,0.5-0.1,0.8-0.1c0.5,0,0.6-0.4,0.3-1.2l1.5,0.3l-0.5-2.3l0.2,0c0,0.4,0.1,0.6,0.3,0.6l0.6-0.3
		c1.2,0.3,1.7,0.1,1.4-0.5l-0.2-0.4h0c0.6-0.9,0.5-2.1-0.4-3.7c-1-1.8-1.5-2.8-1.4-3.1c-0.2,1.1-0.8,2.1-1.9,3.2
		c-0.6,0.6-0.7,1.1-0.1,1.4c-0.3,0-0.5-0.1-0.7-0.2c-0.3-0.3-0.5-0.4-0.7-0.5c-0.3-0.1-0.7-0.4-1.2-0.8l-0.7-0.5l-0.8-2.4
		c1.8-0.4,2.6-0.5,2.6-0.6c-0.5-0.6-1.7-1.2-3.6-1.7l1.8-0.5c-0.9-0.7-1.4-1.2-1.5-1.3c-0.1-0.1,0.1-0.5,0.5-1.3c-1-0.5-2.6-2-5-4.7
		c-2.4-2.7-3.5-4.4-3.2-4.9c-0.7,1.2-1.2,3.9-1.5,8.1c-0.3,3.6-1.4,6.2-3.2,7.8c0.4-0.2,1.1-0.2,2.1-0.1c1,0.1,1.1,0.2,0.2,0.2
		c0.3,0.8,1.3,1.6,2.9,2.2c-0.1,0.5-0.4,0.8-1,0.9l-1.6,0.3c-1.7-1-3.2-2.1-4.6-3.2c-1.5-1.1-2.2-1.9-2.2-2.2
		c-0.2,0.9,0.1,1.7,0.7,2.4C242.8,57.9,242.9,58.3,243.1,58.7z"/>
	<polygon class="st0" points="252.6,159 252.6,159 252.6,159 	"/>
	<path class="st0" d="M287.4,148.8c-1.8,0.6-4.3,1-7.4,1.3l-11.7,0.4c-0.2-1.2-0.6-2.5-1.1-3.7l-0.8-1.5l2.1,2.1
		c1.4,1.3,2.2,1.6,2.4,0.9c0.2-0.5,0.2-1.2,0.2-2c1.1,0.8,1.5,1.4,1.4,1.8c0.1-0.3,0.1-0.9,0-1.8c-0.1-1-0.3-1.5-0.6-1.6
		c0.5,0.2,1.2,0.7,2,1.4c0.7,0.6,1.2,1.2,1.6,1.7l-1-3.2c0.6,0.7,1.6,1.6,2.9,2.5l-0.4-2.5c0.4,0.5,0.9,1.1,1.6,1.6
		c0.8,0.7,1.3,1.1,1.5,1.3l-1.2-2.7c0.1,0,0.7-0.1,1.8-0.3c1.2-0.2,1.9-0.2,2.2,0c-0.3-0.7-0.8-1.3-1.3-1.8l3.4,0.5
		c-0.7-0.3-1.4-0.7-2-1.1c-0.3-0.4,0.3-0.4,1.9-0.1c-0.5-0.4-0.4-1.1,0.4-2.2c0.7-0.9,1.3-1.5,1.8-1.8l-2.2-1
		c0.3-0.3,0.6-0.5,0.8-0.8c0.4-0.4,0.6-0.8,0.4-1c-0.1-0.1-0.4-0.1-1,0.1c-0.5,0.2-1.1,0.4-1.6,0.7l-0.1-0.2
		c-0.1-0.2-0.2-0.3-0.4-0.3c-0.5,0-1.1-0.2-1.9-0.4c-1.1-0.4-1.2-0.9-0.3-1.6c0.8,0.1,1.6,0.2,2.4,0.4c-0.5-0.2-1-0.5-1.6-0.9
		c0,0,0,0,0.1-0.1l3.2-1.5c-0.1-0.4-0.7-0.9-1.6-1.5c-0.3-0.2-0.7-0.3-1.5-0.2l4.3-2.1l1.3-3.2l-0.9-0.1l0,0l-5.2,1.7l-3.4,0.3
		c-0.6-0.8-1-1.2-1.3-1.2h-2.9l-3.1,2.2c-1.1,0-2.5,0.1-4.4,0.3l-2.5,0.3l-5.5,1.5c-2.8,0.4-4.4,0.7-4.7,0.7c-0.4,0-1.3,0.1-2.6,0.4
		c-1.1-0.2-4-0.1-8.7,0.3c-3.9,0.3-6.6-0.1-8.2-1.1c0.2,0.1,1,0,2.4-0.3c-1.2,0.1-2.3,0.1-3.4,0.2l-0.2-2.4l0.8-0.3
		c0.2,0.2,0.4,0.5,0.6,0.6c0.6,0.5,1.4,0.8,2.4,0.9l-0.1-0.7c0.1,0,0.2-0.1,0.3-0.1c5.9,2.5,8.3,2.7,7.2,0.4
		c-0.1-0.1-0.1-0.2-0.2-0.4l1-0.4l0,0.5l0.6-0.7l2.3-0.9l-0.5,1.6c-0.2,1.1-0.1,1.5,0.5,1.5c0.8-0.1,2.7-1.7,5.7-4.8
		c0,0.2-0.1,0.4-0.2,0.5c0.3-0.2,0.5-0.5,0.6-0.9l0.8-0.9l0,0.1v3.9l0.5-0.9l0.3,1.9l4.1-5.8c0.3,0.8,0.6,1.5,0.6,2
		c0.3-1.7,0.5-3,0.6-3.8l0.1-0.1c1.8,3.6,2.9,5.5,3.4,5.7c0.4,0.2,0.8-0.8,1-3.1l6.1,2.9l-0.3-5.4l0.1,0c0.6,1.1,1.5,1.8,2.7,2
		l0-0.7c4.4,2,6.3,2.1,5.5,0.4l-0.7-1.2l1.1,0.5c0.6,0.1,0-1-1.9-3.2l3.2-0.1l-1.5-0.6c0.3,0,0.6-0.1,1-0.1c0.4,0,0.7-0.1,1-0.2
		c-1-0.1-2.1-0.4-3.4-0.7c-1.5-0.4-2.6-0.7-3.4-0.9c-1.2,0-2.5,0-3.8-0.2l-7.6-3.5l-1.8,0.9l-2.3-0.7c0.2,0.2,0.3,0.3,0.3,0.4
		c-0.4,0.4-1.4,0.8-3.1,1.1c-1.9,0.4-3.1,0.7-3.6,1l-1.3,2.1c-0.8,1.3-1.7,2.1-2.6,2.4c-0.7,0.2-1.9,0.8-3.7,1.7
		c-0.9-0.2-1.8-0.4-2.8-0.7c-1.9-0.5-3.3-0.9-4.4-1.2c0.1-0.2,0.2-0.3,0.2-0.5c0.2-0.8,0.3-1.4,0.5-1.8l0.7,0l1-0.2
		c-0.1,0.3-0.2,0.7-0.4,1.2c-0.2,0.4-0.3,0.8-0.3,1.2c0.6-0.4,1.1-0.7,1.4-1c0.5-0.3,0.9-0.6,1.2-0.9c0,0,0,0,0,0c0,0,0,0,0,0
		c-0.4,0.9-0.4,1.7-0.2,2.6c0.2-0.1,0.8-0.8,1.8-2c1.4,0.5,2.1,0.5,2.1,0l-0.2-2.6c1.6,1.4,2.4,1.9,2.6,1.4c0.1-0.3,0.1-0.8,0.1-1.6
		c0.3-0.2,0.5-0.5,0.8-0.7c0.9,0.4,1.3,0.4,1.2-0.2c0-0.2-0.1-0.5-0.3-0.7c0.6-0.7,1.3-1.5,1.8-2.4c0,0.1,0.1,0.4,0.1,0.9
		c0,0.4,0,0.7,0.1,0.8c0.3-0.6,0.7-1,1.2-1.4l0.5,1.8c0.7-0.7,1.6-1.7,2.5-2.8l0.1,0.1c0.8,0.3,1.4,0.4,1.7,0.1
		c0.2-0.1,0.4,0,0.7,0.1c0.4,0.3,0.8,0.5,1.1,0.5c0.8,0.1,1.2,0,1.2-0.5l0.7,0.8c0.5,0.5,1,0.7,1.5,0.7c0.4,0,0.7-0.2,0.8-0.6
		c0.1-0.3,0.3-0.4,0.5-0.2c0.6,0.3,1.6,1.1,3.1,2.3l0.3-1.3l0.4,0.4c0.3,0.3,0.7,0.5,1.1,0.6c0.7,0.1,1.2,0,1.5-0.5l2.9,0.3
		c-0.1-0.2-0.2-0.3-0.1-0.4c0-0.2,0.3-0.1,1,0.2c1,0.6,2.1,1,3.2,1.4c1.8,0.8,2.7,0.9,2.7,0.5l-0.2-1.9c1.1,1,1.7,1.4,1.9,1
		c0.1-0.2,0.1-0.6,0.1-1.2v-0.8c1,0.7,1.5,0.7,1.4,0.1c-0.1-0.4-0.3-0.6-0.7-0.9l-0.5-0.3l1-2.1l-3.3,0.3c-0.6-0.3-1.7-0.4-3.2-0.4
		c-0.5,0-2,0-4.6,0l-8.4-2.4c-0.9-0.5-1.7-0.8-2.2-0.8c-0.2-0.1-0.8-0.2-1.9-0.2c-0.6,0-1.5,0.1-2.8,0.3c-1.6,0.3-2.5,0.4-2.6,0.4
		c-1,0.2-1.9,0.3-2.6,0.4c-1.4,0.2-2.7,0.4-4,0.4c-1.1,0.1-1.9,0.1-2.4,0c-1-0.2-2.1-0.3-3.5-0.3c1.5-0.9,2.6-1.4,3.2-1.4
		c0.4,0,1.2,0.2,2.5,0.8l0.5-1.5c0.3,0.3,0.5,0.6,0.7,1c0.1,0.2,0.2,0.6,0.4,1.1l1.6-2.4c0.5,0.5,0.8,1.1,1,1.8
		c0.6-0.9,1-1.4,1.1-1.6c0.4-0.5,0.9-0.8,1.2-0.9h0.1c0.9-0.2,1.6-0.5,1.9-0.9c0.2-0.7,0.4-1.2,0.6-1.7l0.7,0.4l2.2,0.7l2.4,0.4
		c2.6,1.3,4.8,2.6,6.5,3.7c0-0.5,0-1,0.1-1.5c0,0,0.6,0.9,1.8,2.9c0-0.6,0.1-1.4,0.3-2.4c0.6,0.4,1.1,1,1.3,1.5
		c0-0.1,0.1-0.4,0.4-1.1c0.3-0.7,0.4-1,0.4-1.1c0.5,0.7,0.9,1.2,1.2,1.5c0.2,0.2,0.6,0.4,1.2,0.8l-1.8-3.2c0.7,0.3,1.3,0.8,2,1.4
		c0.4,0,0.7,0,1-0.1c0.3,0,1.2,0.4,2.6,1.1c-0.2-0.1-0.4-0.6-0.6-1.4c-0.3-0.9-0.5-1.3-0.5-1.3c0.2,0,0.6,0.1,1.2,0.3
		c0.6,0.2,1,0.3,1.1,0.2c-0.7,0-1.1-0.4-1.3-1c0.8,0.1,1.3,0,1.4-0.2c0,0.1-1.1-0.4-3.1-1.5c-3.4,1.2-7.2,1.7-11.3,1.3l0.1-0.5
		l0.8,0c0.6,0,1.1,0,1.5,0c0.4,0.1,0.7,0,0.9-0.2c0-0.1,0.1-0.3,0.3-0.7c0.1-0.2-0.2-0.3-0.7-0.4c-0.2,0,0.1,0,0.9,0
		c0.6,0,1.4,0.1,2.1,0.2c0.3,0.1,0.6,0,0.7-0.2c0-0.1,0-0.4-0.1-1c-0.1-0.4,0.1-0.6,0.8-0.6h1.9c0.4-0.1,0.7-0.2,1-0.5
		c0.2-0.3,0.4-0.7,0.6-1.2l0.1-0.7l0.5-1c-1.1,0.2-2,0.3-2.5,0.3h-2.3c-0.8,0-1.5-0.1-2.3-0.3c-0.9-0.3-1.6-0.4-2.1-0.5l-4.8-0.5
		L265,93c1.7,1.4,2.6,1.8,2.9,1.4c0.1-0.3,0.2-0.8,0.2-1.5l0-0.9l-0.5-1.2c2,0.6,3.1,1.3,3.2,2c-0.2-1.1,0.5-1.6,1.9-1.5
		c0.3,0,1.2,0.2,2.5,0.5c0.6-0.6,1-1,1.1-1c1,0,1.6,0,1.8,0c-0.7-0.5-1.2-1.1-1.4-1.9c1.3,0.4,1.9,0.5,2,0.2c0.5-1.5-0.7-2-3.7-1.5
		c-3.2,0.8-4.8,1.1-4.9,1.1l-0.7,0v-1.7l1.1,0.1c0.1-0.2,0.5-0.7,1.2-1.3c0.7-0.7,1.1-1,1.2-0.9c-0.3-0.4-1-0.5-2.2-0.3
		c-1.3,0.3-2.1,0.5-2.5,0.5c-0.3,0-1.3-0.1-3.2-0.1c-1.5,0-2.5-0.1-2.7-0.2l0.4,0.2l-3.1-0.7l1.5-5.4l2.9,2
		c-0.2-0.4-0.4-0.7-0.5-1.1c-0.2-0.7,0.1-0.9,0.8-0.6c0.1,0.1,1,0.6,2.7,1.5c1,0.5,1.5,0.6,1.5,0.2c0.2-0.8,0.2-1.4,0-1.9v-0.1
		c0.4-0.1,0.7-0.2,0.8-0.3l-0.5-0.4l0.3-0.4c0.5,0.4,1.2,0.9,2.1,1.7c-0.1-1.1-0.6-2.1-1.3-3.1l0.8-0.1c0.6,0,1,0,1.1,0
		c-0.3-0.5-0.5-1.1-0.8-1.7c-0.3-0.7-0.3-1-0.1-0.9c-0.7-0.7-1.3-0.9-1.6-0.6c-0.2,0.2-0.4,0.8-0.5,1.7c-0.9-0.6-1.3-1.2-1.3-1.6
		v-1.3v0c1-2.3,1-4.4-0.1-6.4l-1.7,3.3c-0.5,1-1.1,1.8-1.5,2.3c-0.9,0.6-1.6,0.9-2.1,1c-0.8,0.1-1.7,0.1-2.7,0.1h-3.2
		c-0.2,0-0.6-0.1-1.1-0.2c-0.7-0.1-1.3-0.2-1.9-0.3l-3.2-0.3h-0.3c-0.8-0.6-2.4-1.5-4.7-2.7c-2.3-1.1-3.8-2-4.6-2.8
		c0.5,0.6,0.5,0.9-0.1,0.9c-1.1,0-1.4,0.1-0.7,0.4c0.6,0.3,1.2,0.4,1.8,0.4c-0.9,0-1.5,0.1-1.9,0.4c0.4,0.4,0.9,0.7,1.6,0.9
		c0.3,0.1,0.9,0.2,1.7,0.4c-0.1,0.1-0.5,0.4-1.1,1c-0.2,0.2-0.3,0.6-0.3,1.2c1.3-0.4,2.1-0.6,2.4-0.6c0,0.1,0.4,0.4,1,0.9
		c0.8,0.7,1.6,1.3,2.3,1.7l-0.2,0.3l0.9,0.7c-1.2-0.4-2.1-0.6-2.7-0.5c-0.3,0.1-0.8,0.1-1.4,0l-0.8,0c-1.4,0.2-2.4,0.2-3,0.2
		c-1.1-0.6-2.5-0.8-4-0.8c-1.4,0-2.5,0.2-3.2,0.6c0.3,0.2,0.6,0.4,0.9,0.5c0.2,0.2,0,0.4-0.5,0.8l2.3,0.1l-0.6,0.3
		c-0.5-0.2-1.3-0.2-2.3,0c-1.8,0.4-3,0.7-3.5,0.8c-0.4-0.1-1.9-0.1-4.3-0.1c-2.1,0-3.4-0.1-3.8-0.3l0.5,0.3l-4.3-0.9l2.1-7.4l4,2.8
		c-0.3-0.5-0.5-1-0.6-1.5c-0.3-0.9,0.1-1.2,1.1-0.8c0.2,0.1,1.5,0.8,3.7,2c1.3,0.7,2,0.8,2.1,0.3c0.2-1.1,0.2-2,0-2.5l0-0.2
		c0.6-0.2,1-0.4,1.1-0.5l-0.6-0.6l0.4-0.5c0.7,0.4,1.7,1.2,3,2.2c-0.3-1.6-0.9-3-1.9-4.2c0,0,0.4-0.1,1.1-0.1c0.8-0.1,1.3,0,1.5,0
		c-0.4-0.8-0.7-1.5-1.1-2.3c-0.4-1-0.5-1.4-0.2-1.2c-1.1-1-1.8-1.3-2.3-0.8c-0.3,0.3-0.5,1.1-0.7,2.3c-1.2-0.7-1.8-1.4-1.8-2.1v-1.8
		c1.3-3.2,1.3-6.1-0.1-8.7c-0.6,1.2-1.4,2.7-2.3,4.5c-0.7,1.4-1.4,2.5-2.1,3.2c-1.1,0.7-2.1,1.2-2.9,1.3c-0.6,0.1-1,0.2-1.2,0.2
		c-0.2,0-1.1,0-2.5,0h-4.4c-0.3,0-0.8-0.1-1.6-0.2c-0.9-0.2-1.8-0.4-2.6-0.4l-4.9-0.5c-1.1-0.9-3.2-2.1-6.5-3.6
		c-3.1-1.5-5.2-2.7-6.4-3.8l0,0c0.7,0.8,0.6,1.2-0.2,1.2c-1.5,0-1.8,0.2-1,0.6c0.9,0.4,1.7,0.6,2.4,0.6c-1.2,0-2.1,0.2-2.7,0.5
		c0.6,0.5,1.3,0.9,2.1,1.1c0.5,0.2,1.3,0.4,2.3,0.6c-0.2,0.2-0.7,0.6-1.5,1.3c-0.3,0.2-0.4,0.8-0.4,1.6c1.4-0.5,2.5-0.8,3.2-0.9
		l1.3,1.2c1.1,1,2.2,1.7,3.2,2.3l-0.2,0.5l1.1,0.9c-1.7-0.6-2.9-0.8-3.7-0.7c-0.5,0.1-1.2,0.1-2,0.1l-1.1-0.1
		c-1.7,0.2-3,0.3-4.2,0.3c-1.5-0.8-3.4-1.2-5.5-1.1c-1.9,0-3.4,0.3-4.5,0.9c0.4,0.3,0.8,0.5,1.3,0.8c0.2,0.2-0.1,0.6-0.8,1.1
		c0.7,0.1,1.8,0.1,3.2,0.2l-2.9,1.7c0.7-0.1,1.7-0.1,3.1,0c1.6,0.1,2.6,0.2,3.2,0.1l-2.1,4c0.2-0.1,1-0.3,2.4-0.5
		c1.3-0.3,1.9-0.6,1.9-0.9c0,0.2,0.2,0.9,0.4,2.1c0.2,1.1,0.2,1.8,0.1,2.2c-1,0.2-2.2,0.3-3.7,0.1c-1.3-0.1-2.4-0.3-3.3-0.5
		c-0.5-0.1-1.3-0.1-2.5-0.1c-1.3,0-2.8-0.1-4.3-0.3l-1.9-0.4l1.3,1.2c0.9,0.9,1.5,1.5,1.7,1.8c0.3,0.4,0.8,0.8,1.5,1.1l-1-0.4l0.9,3
		l0.7,1.4l0.8,0.2c0.5,0.2,0.7,0.4,0.6,0.7l0,0.1c-3-1.2-5.2-2.5-6.8-3.8c0,0.3,0.2,0.8,0.4,1.4c0.2,0.6,0.3,1.1,0.3,1.5
		c-1-0.4-2.5-1.4-4.5-3c-2.2-1.8-3.3-3.1-3.1-3.7c-0.2,0.7-0.3,2.7-0.5,5.9c1.8,0.3,2.9,0.5,3.5,0.8c0.3,0.1,1.4,0.9,3.5,2.3
		l-1.9,1.5c0.3-0.1,1.4-0.3,3.3-0.6c1.4-0.3,2.5-0.6,3.4-1c-0.3,0.3-0.8,0.8-1.5,1.6c-0.7,0.8-1.2,1.4-1.6,1.7
		c5,1.2,7.6,1.3,7.6,0.4c0,0.5-0.3,1.5-0.8,3c-0.9,0.2-1.5,0.4-1.9,0.4c-0.6,0.2-1.1,0.2-1.5,0.2h-3.2L164,88.3
		c-0.5,0-0.9,0.2-1.1,0.5c-0.2,0.4,0.3,0.9,1.3,1.5c1.7,1,3.3,1.7,4.9,2.1l-0.5,0.7c-0.3,0.5-0.3,0.9-0.1,1.2c0.3,0.5,1.3,0.7,3,0.7
		l1.4,0.9l-1.4,1.4c-0.6,0.9-0.3,1.3,0.9,1.1c1.2-0.2,2.3-0.5,3.1-1l0.9-0.7l1.1,2.8l4.6-0.2l2.1,1.6l6-2.6l2.6,0.2l1.9-0.2l1.8,0
		c1.3,0,2.1,0.1,2.6,0.2c0.8,0.2,1.8-0.2,3-1.1l5.1,0.5l2.8-1.2l3,0.7l0.8,0.5c-0.7,0.7-1.7,1.2-3,1.7c-0.1-0.1-0.2-0.2-0.3-0.4
		c0.1,0.2,0.2,0.3,0.2,0.4c-2.1,0.7-4.9,1.1-8.5,1.2c-6.6,0-10.7,0.1-12.5,0.4c0.4,0.8,0.7,1.1,0.9,0.8c0.4-0.6,0.8-0.9,1.3-0.9
		c-0.7,1.4-1.7,2.5-3.1,3.3c2.6-0.5,4.2-0.9,5-1.3l-0.5,3c0,0,0,0,0,0l-4.5-0.2c-1.5-0.6-2.8-0.8-3.7-0.3c-3.4-2.5-8.1-3.1-14-2.1
		c-3.4,0.6-5.6,0.9-6.6,1c-2.2,0.1-4.2-0.3-5.9-1.1c2.2,1.2,4.2,2,5.9,2.3h0c1.3,0.2,3.6,0.3,7,0.3c-1,0-2.4,0.4-4,1.1
		c-2.4,1.1-3.7,1.7-3.9,1.7c1.1-0.1,2.6-0.3,4.5-0.4c1.6-0.2,3.1-0.5,4.4-1l-3.4,3.5l1.2,1.2c1.9-0.7,3.1-1,3.7-1
		c0.3,0,0.8,0,1.3,0.1c1.6-2.3,2.6-3.6,2.9-3.8c0.6-0.3,1,0.7,1.1,3.1c0.4-0.4,1.1-0.9,2-1.5c1-0.6,1.6-1.1,2-1.4
		c0.4,0.7,0.4,1.3,0,1.9c0.3,0.1,0.9,0,1.8-0.4c0.9-0.4,1.5-0.5,1.8-0.4c0.3,0.2,0.6,1,0.9,2.3c0.4,0.8,1.5,0.3,3.1-1.6
		c-0.4,0.5-1.2,1.7-2.6,3.6c-1.3,1.8-2.4,2.8-3.1,3c0.8-0.3,2-1.4,3.5-3.3c1.7-2.1,2.9-3.3,3.6-3.6l0.6,0.2c-0.1,0.8-0.3,2.1-0.6,4
		c-0.4,1.9-0.6,2.9-0.7,2.9c1.8-1.9,3.2-3.4,4.3-4.3c0.4,0.8,0.4,1.7,0,2.6c1.4-1.2,2.5-1.8,3.2-1.9c0.5,0,1.8,0,3.6,0
		c-0.3,0.5-0.8,1.6-1.4,3.2c-0.5,1.4-1,2.5-1.6,3.1c2.5-1.7,4.8-4,6.7-7.1c0.1,0.2,0.1,0.7,0.1,1.3c0,0.6,0.1,1,0.2,1.1
		c0.4-0.8,1-1.4,1.7-1.9l0.5,1.6c-0.4,0.1-0.8,0.1-1.1,0.2c-2,0.4-2.5,0.7-1.5,1c1.6,0.4,2.8,0.5,3.7,0.3l-0.7,0.5
		c-0.3,0.3-0.2,0.5,0.3,0.5c-0.9,0.2-1.5,0.5-1.9,0.7c0,0-0.6,1-1.8,2.9c-1.1,1.8-2.3,2.9-3.6,3.3c-1.5,0.5-4.1,1.8-8,3.8
		c-11.8,3.5-19.5,5.9-23,7.3c-2.1-0.3-3.9-0.8-5.4-1.3c0,0.8,0.4,1.5,1,2.1c-2.8,0.2-6.2,0-10.4-0.4c-4.6-0.5-8.1-0.8-10.4-1
		l2.2,1.5c-1.6,0-3.3,0.1-5,0.5c-0.1,0,0.5,0.3,1.8,0.8c1.2,0.5,2.1,0.8,2.5,0.9l2.7,0.2c-1.5,0.1-2.6,0.1-3.3,0.2
		c-1.4,0.1-2.4,0.4-3.1,0.8c0.9-0.5,2.8-0.6,5.7-0.2l0,0c2.5,0.3,4.6,0.8,6.3,1.3c-0.3,0.2-0.9,0.8-1.8,1.7
		c-0.9,0.9-1.4,1.4-1.3,1.4c4.5,0,10.3-0.5,17.4-1.4c-0.5,0.2-1.9,1.1-4.3,2.8c1-0.3,2.6-0.5,4.7-0.6c2.1-0.2,3.7-0.4,4.7-0.6
		c-0.5,0.4-1.2,1.2-2.2,2.3c-0.9,1.1-1.7,1.9-2.3,2.3c1,0,3.2-0.5,6.4-1.5c3.6-1.1,5.6-2,6.1-2.8c-0.2,0.4-0.9,1.6-2.1,3.6
		c-1.1,1.7-1.5,2.5-1.3,2.5l-8.5,0.1l-18.1,5.1l1.7,0l-4.9,0.3c2.5-0.1,6,0.2,10.5,0.9c4.8,0.6,8.4,1,10.8,1c-1.3,1.1-2.9,2.1-4.8,3
		c1.4-0.2,2.5-0.2,3.3-0.2c-1,0.3-2.2,0.6-3.6,1.1c-2.1,0.8-3.2,1.2-3.3,1.3c0.8-0.1,2.7-0.3,5.7-0.6c2.8-0.4,4.5-0.9,5.1-1.6
		c-0.6,0.7-1.6,1.6-3.1,2.6c-1.6,1.2-2.8,1.7-3.4,1.5c1.3,0.4,2.9,0.2,4.9-0.7c1.5-0.6,3-1.5,4.4-2.6c-3.7,3.5-4.5,5-2.4,4.4
		c1.9-0.4,3.4-1.3,4.7-2.7c0,0.6,0.2,1.7,0.5,3.4l2.2-4.2c0.5,2.5,0.7,3.8,0.7,3.8c1.1-1.2,1.9-2.5,2.2-4c0.2,0.1,0.3,0.4,0.4,1.1
		c0.1,0.6,0.3,1,0.7,1.2c1-0.2,1.4-0.9,1.2-1.9l0.8,3.6c1.9-1.9,3.8-3.3,5.8-4.4c1.4-0.3,2.8-0.7,4-1.1c0.9,0.1,1.5,0.4,2.1,1.1
		l-1.3,2c4.3,1.2,6.7,1.5,7,0.7c0.2-0.5,1.1-1.2,2.6-2.1l2.2-1.3l-0.2,2.1c-0.1,1.6-0.2,3-0.2,4.1l-11.8,3.8
		c-4.8,1.1-9.2,1.9-13,2.3c-1.1-0.2-2-0.3-3-0.3c-1.1-0.1-1.4,0-1,0.3c0.1,0.1,0.3,0.2,0.7,0.4c-1.7,0.1-2.8,0.1-3.2,0
		c0.8,0.9,1.9,1.5,3.5,1.8c1.3,0.3,2.6,0.4,3.9,0.2c-1.4,0.3-2.9,0.8-4.4,1.4c0.7,0.1,1.7,0.1,3-0.1c0.7-0.1,1.8-0.2,3.1-0.4
		c-0.5,0.3-0.7,0.7-0.5,1.4c0.2,0.3,0.7,0,1.5-0.8c1-1,1.7-1.7,2.1-2.1l1-0.1l0,0.5c-1,0.7-1.7,1.4-2.1,2.2
		c-0.6,0.9-0.1,1.1,1.4,0.7c1-0.3,1.8-0.7,2.7-1.2c0.8-0.5,1.4-0.9,1.7-1.1l-0.1,0.5l1.2-1.1l0.8-0.1c0.7,0,1.6-0.5,2.7-1.4
		c0.3-0.2,0.4-0.3,0.3-0.2c-0.1,0.1-0.4,0.7-1,1.6c-0.8,1.2-2.3,2.6-4.7,4.1c-0.6,0.4-0.8,0.6-0.6,0.5c0.2,0,1.2-0.3,3-0.9
		c3-1,5.3-2,6.8-2.9l1.4-1.1l0.1,1c-0.1,0.1-0.1,0.2,0,0.3h0.1l0.5,2.7l-2.6-0.4l-1.4,1.5c-0.9,1-1.2,1.5-0.9,1.5l-7,2.5l-12.5,0.1
		c0.4-0.2,1.2-0.7,2.5-1.4c0.8-0.4,1.1-0.7,1-0.8c-2.7-1.6-4.8-2.6-6.3-3.2c-2.3-0.8-4.7-0.9-7-0.5c0.6,1,1.6,2,3,3.1
		c0.8,0.6,2,1.6,3.6,2.8l-1.2,0l0.9,1.9l5.4,1.8l-2.3,3.2l8.4-0.7c-0.8,0.7-1.5,1.4-2.1,2.3c-0.1,0.3,0.8,0,2.9-1
		c2.1-1,3.1-1.5,3.1-1.7c0.1,0.5,0.3,1.4,0.4,2.6c0.2,1.3,0.3,2.2,0.3,2.7c1-2.1,1.7-3.9,2.2-5.5c0,0.7,0.1,1.3,0.3,2
		c0.2,0.4,0.4,0.9,0.7,1.6c-0.2-1.5-0.3-3.1-0.2-4.7l0.6-0.4c0.6,0.7,1.5,2.7,2.6,6.2c0-0.1,0.3-0.9,0.8-2.4c0.6-1.6,0.9-2.7,1-3.2
		l2-1.3l0,0.8l0,0.5c0.2,0.2,0.7,0.1,1.7-0.2l2.3-1l2.6,4.6c-0.7-1.3-1-2.2-0.9-2.8c0.1-0.8,1-0.7,2.7,0.2c0.5,0.3,2.4,1.5,5.4,3.6
		c1.1,0.7,1.7,0.6,1.9-0.2c0.1,0,0.5-0.7,1.3-2c0.7-1.1,1.1-1.4,1.3-1c0.2,0.6,0.3,1.5,0.4,2.7c0.1-0.3,0.2-0.7,0.4-1.1
		c0.2-0.4,0.3-0.5,0.3-0.5c0.3,0.3,0.7,1.1,1.2,2.2c0.4,0.9,0.9,1.6,1.5,2.1c0-1.3,0.1-2.6,0.5-4c1.3,0.5,2.3,1.4,2.9,2.8
		c0.6,1,0.1,0-1.4-3.1c0.3,0,0.5,0,0.5,0l0.3-0.3c3,0.8,4.8,1.1,5.6,0.9c-1-0.6-2.2-1.1-3.5-1.4c0.3,0,0.9-0.1,1.8-0.1
		c0.7,0,1.3,0,1.7-0.1l-0.5-0.1l3.6-0.2l3.1,0.3c1.1-0.1-0.7-0.8-5.3-2.1c-4.3-1.3-7.7-2.4-10.1-3.5c-2.2-1-3.5-1.5-3.9-1.6
		c-0.5-0.1-1-0.4-1.6-0.7c-0.6-0.4-2.3-0.9-5.3-1.6l-0.8-0.2l5.8-7.4v5.8c0.3,3.4,1.1,3.9,2.4,1.6c1.4-2.3,2.4-4.5,3.1-6.5l0.6-2.3
		l0.8,0.9l-0.7-0.1l0.8,0.2l6,6.4l-5.6,1c1.4,1.1,2.6,1.8,3.8,2.2c1.1,0.4,2.5,0.6,4.3,0.7c-0.6-0.7-0.6-1.4-0.1-2.1
		c0.8,0.3,2.3,0.9,4.6,2.1c0-0.2-0.4-0.9-1.2-2c-0.6-0.8-0.5-1.3,0.1-1.6c-1.5-0.3-2.9-0.5-4.4-0.6l2.5-2c-0.2,0,0-0.1,0.3-0.4
		c0.3,0.1,0.5,0.2,0.7,0.2c0.1,0,0.1-0.2-0.1-0.5l1.6-0.8c1,0.6,1.8,0.9,2.4,0.9l-0.2-1.8l1.5-0.6l1,0.4l-0.3-0.7l2.9-1.2l2.1,1.1
		c-0.4-0.4-0.7-0.9-0.9-1.5l2.1-0.9c0.5,0.2,1.1,0.2,1.7,0.1l0.4-1.1c1.3-0.6,2.3-1,3.2-1.4l0.3,0.6c-0.1-0.2-0.2-0.4-0.3-0.6
		c0.9-0.4,1.6-0.7,2.1-1c0.6,0.4,1.8,1.2,3.5,2.4c0.7,0.5,1.2,0.5,1.3-0.1c0,0,0.4-0.5,1-1.5c0.5-0.8,0.8-1,1-0.7
		c0.1,0.6,0.2,1.3,0.3,2c0.2-0.9,0.4-1.2,0.5-1.1c0.2,0.3,0.5,0.8,0.9,1.6c0.3,0.7,0.7,1.2,1.1,1.5c0-1.1,0.1-2.1,0.4-2.9
		c1,0.4,1.7,1.1,2.1,2c0.2,0.3,0.1,0.1-0.2-0.5c-0.3-0.6-0.5-1.2-0.8-1.7c0.2,0,0.3,0,0.4,0l0.2-0.2c2.2,0.6,3.6,0.8,4.1,0.6
		c-0.8-0.4-1.6-0.8-2.5-1c0.3,0,0.7,0,1.2,0c0.5,0,0.9,0,1.2-0.1l-0.3,0l2.6-0.2l2.2,0.2c0.8,0-0.5-0.5-3.9-1.5
		c-3.1-0.9-5.6-1.8-7.3-2.6c-1.5-0.7-2.4-1.1-2.8-1.1c-0.4-0.1-0.7-0.3-1.2-0.5c-0.4-0.3-1.7-0.6-3.9-1.1l-0.6-0.1l4.2-5.4v4.2
		c0.2,2.5,0.8,2.9,1.8,1.2s1.7-3.3,2.2-4.7l0.5-1.7l0.6,0.6l-0.5-0.1l0.6,0.1l4.3,4.7l-4.1,0.7c1,0.8,2,1.4,2.8,1.7
		c0.8,0.3,1.8,0.4,3.1,0.5c-0.4-0.5-0.4-1-0.1-1.5c0.6,0.2,1.7,0.7,3.3,1.5c0-0.2-0.3-0.6-0.9-1.4c-0.4-0.6-0.4-1,0.1-1.1l-3.2-0.4
		l1.8-1.5c-0.1,0-0.1-0.1,0.2-0.2l0.5,0.1c0,0,0-0.1,0-0.4l1.1-0.6c0.7,0.4,1.3,0.6,1.7,0.7l-0.1-1.4l1.1-0.4
		c0.4,0.2,0.6,0.3,0.7,0.3l-0.2-0.5l2.1-0.9l1.5,0.8c-0.3-0.3-0.5-0.7-0.7-1.1l1.6-0.7c0.3,0.1,0.7,0.2,1.2,0.1l0.3-0.8
		c2.3-1,3.7-1.7,4.2-2c0.5-0.6,0.8-1.1,0.9-1.5C290.1,148.5,289.3,148.3,287.4,148.8z M261.6,93.2l1.1,0.9l-1.4-0.2L261.6,93.2z
		 M183.3,88.6c-0.7,0-1.5,0.1-2.2,0.2c1.1-1.6,2.1-2.3,3-2.3c0.7,0,1.4,0.5,2.1,1.4h0C185.5,88.3,184.5,88.6,183.3,88.6z M191.1,72
		l-1,0.5c0.3-0.4,0.8-0.9,1.2-1.5c0.7-0.9,1-1.4,1-1.4c-0.1,0.2-0.4,0.7-0.7,1.5C191.5,71.6,191.3,71.9,191.1,72z M215.5,131.2
		c-0.3,0.2-0.7,0.6-1.3,1.2c-0.3,0.3-0.5,0.5-0.6,0.6l1.4-2C215.1,131.1,215.3,131.2,215.5,131.2z M227.7,84.6
		c1.4,0.4,2.5,0.9,3.2,1.3l0.1,0.3l0.5,1l0.6,0.1c0.4,0.2,0.5,0.3,0.4,0.5v0c-1.8-0.7-3.3-1.5-4.5-2.4L227.7,84.6z M236.4,108.7
		c0.7-0.3,1.1-0.4,1.3-0.3c0.2,0.1,0.3,0.4,0.4,0.8c-0.9,0-1.9,0-3.2,0l-1.5-0.4c0.1,0,0.1-0.1,0.2-0.1c0.7-0.4,1.2-0.8,1.4-1
		c0.3,0.5,0.3,0.9,0,1.4C235.3,109.1,235.8,109,236.4,108.7z M237.7,119c-0.4,0-0.8,0-1.3,0c0.1-0.1,0.2-0.1,0.3-0.2
		c0.7-0.6,1.1-0.9,1.1-1.1C237.8,117.8,237.8,118.2,237.7,119z M228.8,114.1l0.5,0.6c0.2,0.2,0.3,0.3,0.5,0.4c-0.5,0-0.9,0-1.3,0
		L228.8,114.1z M231.1,104.4c-0.3,0-0.6,0-0.8,0c0-0.3,0.1-0.7,0.1-1.1C230.4,103.2,230.7,103.6,231.1,104.4z M233.2,118.7
		C233.2,118.7,233.2,118.7,233.2,118.7C233.2,118.7,233.2,118.7,233.2,118.7C233.2,118.7,233.2,118.7,233.2,118.7z M231.6,118.1
		l-0.2-0.1C231.5,118.1,231.6,118.1,231.6,118.1z M236,119c-0.3,0-0.7,0-1-0.1c1.3-1.1,2-1.6,2-1.6C236.6,117.9,236.2,118.4,236,119
		z M232.6,115.1c0.1-0.1,0.2-0.2,0.3-0.3l2.7,0.3C234.6,115.1,233.6,115.1,232.6,115.1z M242.1,109.3c-0.2,0-0.5,0-0.8,0
		c-0.1,0-0.3,0-0.4,0c0.3-0.3,0.6-0.5,0.8-0.6l0.5,0.2C242.2,109,242.1,109.2,242.1,109.3z M240.4,109.3
		C240.4,109.3,240.3,109.3,240.4,109.3c0-0.1,0.2-0.2,0.3-0.4C240.6,109,240.5,109.1,240.4,109.3z M233.2,104.7
		c0.1-0.2,0.1-0.4,0.2-0.7c0.5,0.3,0.8,0.7,1.2,1.1C234.1,105,233.7,104.8,233.2,104.7z M226.8,100l0.1-0.7l0.6-0.1L226.8,100
		C226.8,100,226.8,100,226.8,100z M228.3,89.7c1-0.2,1.8-0.4,2.5-0.7c-0.2,0.2-0.5,0.5-1,1c-0.1,0-0.1,0-0.2,0l-2-0.2
		C227.9,89.8,228.1,89.7,228.3,89.7z M224.2,87.6c1.1,0.9,2,1.5,2.7,1.8l-0.3,0.2l-3.5-0.3L224.2,87.6z M230.2,99.8l0.1,0.3
		c-0.2,0-0.4,0-0.5,0C230,100,230.1,99.9,230.2,99.8z M231.5,107.6c0.3-0.1,0.5,0.1,0.6,0.9l-1.1-0.3
		C231.2,107.8,231.4,107.6,231.5,107.6z M225.6,106.6l-0.5-0.1c0.5,0,0.9,0,1.5,0C226.3,106.5,226,106.5,225.6,106.6z M212.6,111.2
		l0.1,0.1c1.1,0.4,1.8,0.5,2.3,0.2c0.3-0.2,0.6-0.1,1,0.2c0.5,0.4,1.1,0.7,1.6,0.7c0.7,0.1,1.1,0,1.4-0.3l0.2-0.4l0.9,1.1
		c0.7,0.7,1.4,1.1,2.1,1.1c0.6,0,0.9-0.3,1.1-0.9c0.1-0.4,0.4-0.5,0.8-0.3c0.6,0.4,1.6,1.1,3.1,2.3c-1.2-0.1-2.1-0.1-2.7-0.3
		c-0.1,0-0.2,0-0.3,0l-1.9-0.9l-1.1,0.5c-1-0.1-1.9-0.3-2.6-0.5l0,0c-0.8-0.2-2.2-0.6-4.2-1.3c-0.9-0.3-1.7-0.6-2.3-0.8L212.6,111.2
		z M209.8,129.6l0.5,0c0,0,0,0.1,0,0.1c-0.2,0-0.5,0-0.7,0.1L209.8,129.6z M218.7,125.6l0.1-0.1c0.4,0.9,0.8,1.7,1.2,2.4
		c-0.5,0-1.1-0.1-1.7-0.1C218.5,126.5,218.7,125.8,218.7,125.6z M251.1,157.1c0,0.1,0,0.2,0,0.3h0l0.3,1.9l-1.9-0.3l-1.1,1.1
		c-0.6,0.7-0.9,1.1-0.7,1.1l-2.8,1.1l-1.1-2.5c0.3-0.1,0.7-0.2,1.1-0.4c1.2-0.4,2.2-0.8,3.1-1.1c0.4,0,0.7,0.1,0.9,0.2
		c-0.1-0.2-0.2-0.3-0.2-0.5c0.5-0.2,0.9-0.4,1.3-0.7l1-0.8l0,0L251.1,157.1z M243.5,158.8c0.1,0,0.5-0.1,1.4-0.2
		c-0.3,0.3-0.7,0.5-1.1,0.8L243.5,158.8z M247.1,155.8L247.1,155.8C247.2,155.9,247.2,155.9,247.1,155.8
		C247.2,155.9,247.2,155.9,247.1,155.8z M239.5,160.5c1.1,0.9,1.8,1.4,2,1.6l-0.5-3.3c0,0,0,0,0.1,0c0.6,0.7,1.2,1.4,2.1,2.1
		c0.8,0.7,1.4,1.2,1.8,1.5l-2,0.7l-4,0l-1.4-4.4C238,159.2,238.6,159.8,239.5,160.5z M234.6,162.7c0.1,0.1,0.1,0.3,0.2,0.4l-0.9,0
		C234.1,162.9,234.3,162.8,234.6,162.7z M234.8,162.5c1.2-0.6,1.7-1,1.5-1c-0.6-0.4-1.2-0.7-1.7-1c-0.2-1-0.4-1.6-0.8-1.8
		c0.7,0.3,1.7,1,2.8,2c0.9,0.8,1.6,1.6,2.3,2.3l-4.1,0C234.8,162.9,234.8,162.7,234.8,162.5z M252,159.4l0.9-1l-0.3,0.5
		c0.2-0.2,0.6-0.4,1.2-0.7c0.4-0.1,1-0.4,1.9-0.7l1.2,2.9C255.4,160.1,253.8,159.7,252,159.4z M254.5,150.6c-0.7,0.2-1.4,0.4-2,0.6
		c0.8-1,1.5-1.7,2.1-2l-2.8-1.2c0.3-0.3,0.8-0.6,1.4-1l1.6-1L254.5,150.6z M251.8,131.2L251.8,131.2c-0.2,0-0.2,0-0.3,0L251.8,131.2
		z M236.5,127.7l0-0.2c0,0,0.1,0,0.1,0.1C236.6,127.6,236.6,127.7,236.5,127.7z M236.9,115.1c-0.1-0.1-0.1-0.3-0.1-0.4
		c0-0.3,0.5-0.2,1.3,0.3c0,0,0.1,0,0.1,0.1C237.7,115.1,237.3,115.1,236.9,115.1z M242.5,106.5C242.5,106.5,242.5,106.5,242.5,106.5
		l-3.3-0.1c-1.1-0.4-2.1-0.5-2.7-0.2c-0.4-0.3-0.8-0.5-1.2-0.7c0.1-0.2,0.2-0.5,0.3-0.9c0.4-0.9,0.6-1.4,0.6-1.4
		c0.7,1,1.3,1.6,1.7,2c0.3,0.3,0.8,0.6,1.6,1.1l-2.2-4.2l0.2-0.1c0.9,0.5,1.7,1,2.4,1.7c0.1,0,0.3,0,0.4,0c0.1,0,0.1,0,0.2,0
		c0.2,0,0.5-0.1,0.7-0.1c-0.5,0.8-1.1,1.4-1.9,1.9c1.8-0.4,3.1-0.7,3.6-1L242.5,106.5z M248.9,100.2l3.7,0.3l2.1-0.8l2.2,0.5
		l0.5,0.3c-1.2,1.3-4.1,2-8.5,2.1c-2,0-3.6,0-5,0.1c-0.3-1-0.5-1.5-0.6-1.5c0.2,0,0.7,0.2,1.6,0.5c0.8,0.2,1.3,0.3,1.5,0.2
		c-0.8-0.1-1.3-0.4-1.6-1c0.9,0,1.6,0.1,1.9,0.1C247.3,101.2,248,100.9,248.9,100.2z M241.8,80.1C241.7,80.1,241.7,80.1,241.8,80.1
		c0-0.1,0.1-0.2,0.2-0.3C241.9,79.9,241.8,80,241.8,80.1z M231.7,79.7c0.2-0.3,0.8-0.9,1.7-1.8c0.3-0.3,0.6-0.5,0.8-0.7
		c0.2,0,0.5,0,0.8,0.1c1.1,0.1,1.8,0.1,2.3,0.1l-1.5,2.9c0.2-0.1,0.7-0.2,1.7-0.4c0.9-0.2,1.4-0.4,1.4-0.7c0.1,0.3,0.1,0.6,0.2,0.8
		c-0.4,0-0.8,0.1-1.2,0.2c-4.3,1.1-6.5,1.6-6.7,1.6c-0.3,0-0.6-0.1-1-0.1v-2.2L231.7,79.7z M228.1,81.9l-1.3,0.1l-0.1-0.2
		L228.1,81.9z M219.5,87.9l1.7,1.2c-0.6,0-1.3-0.1-2.1-0.2L219.5,87.9z M213,100.5c0.4-0.9,0.7-1.7,0.9-2.3l1,0.6l3,1l3.4,0.6
		c0,0,0,0,0.1,0c0,0.1,0.1,0.3,0.3,0.5c0.2,1,0.8,1.6,1.8,1.8c0.6,0.1,1.3,0.1,2-0.1c1.1,0.6,2.2,1.2,3.2,1.8
		c-0.7,0.1-1.5,0.1-2.3,0.3c-1.7,0.3-3.1,0.5-4.4,0.5c-0.5-0.2-1-0.3-1.4-0.3c-0.3,0-0.6,0-0.9-0.1c-0.3-0.1-0.9-0.1-1.7-0.1
		c-0.1,0-0.3,0-0.5,0c-0.1-0.1-0.3-0.1-0.4-0.2c0.1,0.1,0.2,0.1,0.3,0.2c-0.1,0-0.3,0-0.4,0c-0.1-0.1-0.1-0.2-0.2-0.3
		c-0.6-0.9-1.5-1.6-2.9-2.3c-0.6-0.3-1-0.6-1.5-0.9C212.6,100.9,212.8,100.8,213,100.5z M201.4,106.7c-1.5,0.1-2.6,0-3.3,0
		c-1.2-0.2-2.8-0.3-4.9-0.4c2.1-1.3,3.6-1.9,4.5-2c0.6,0,1.8,0.3,3.4,1.1l0.7-2.1c0.4,0.4,0.7,0.8,0.9,1.3c0.2,0.3,0.4,0.8,0.6,1.5
		l2.2-3.2c0.7,0.8,1.1,1.6,1.4,2.4c0.9-1.3,1.4-2,1.6-2.2c0.6-0.8,1.2-1.2,1.7-1.2h0c0,0,0.1,0,0.1,0c0,0.4,0,0.8-0.3,1.1
		c0.3-0.3,0.9-0.2,2.1,0.4c0.6,0.3,1.3,0.8,2,1.2l-1.3,0.6c-1.1,0.2-1.9,0.3-2.4,0.3C207.4,106.1,204.3,106.5,201.4,106.7z
		 M210.6,113.6l0.6,0.3c-0.4,0-0.7,0.1-1,0.2L210.6,113.6z M211.9,116.2c0.5-0.2,0.7-0.2,0.8-0.1c-0.4,0.1-0.8,0.2-1.2,0.2
		C211.6,116.3,211.7,116.3,211.9,116.2z M189.7,145.5l0.8-0.7l0.2,0.8L189.7,145.5z M195.6,145.7h-2.8c1.1-1.8,2-2.8,2.7-2.8
		C195.7,143,195.7,143.9,195.6,145.7z M196.4,145.7l0.4-0.4v0l0.3,0.3L196.4,145.7z M204.8,139.2c-1.5-0.3-5.5-0.2-12,0.4
		c-5.4,0.4-9.1,0-11.3-1.5c0.2,0.1,0.7,0,1.6-0.1c0.9-0.2,1.5-0.3,1.6-0.3c-2.7,0.2-5.2,0.4-7.3,0.5c-4.2,0.3-6.3,0.3-6.4,0
		c0-0.1,1.3-0.6,3.9-1.5c2.7-0.9,4.4-1.4,5-1.4l-2.2,0l9.9-3c-0.2,0.2-0.6,0.7-1.3,1.7c-0.6,0.7-1.1,1.2-1.4,1.6
		c1.1-0.3,2.7-1.1,4.8-2.6c1.9-1.3,3.5-2.1,4.6-2.1c0.4,0,0.1,1-0.8,3l1-0.7l-2.9,3.5l5-1.8l0.1,0.7l0.8-1l3.2-1.2l-0.7,2.2
		c-0.3,1.4,0,2.1,0.7,2c1.1-0.2,3.6-2.4,7.8-6.6c0,0.3-0.1,0.4-0.2,0.5c0.3-0.2,0.5-0.6,0.8-1.1l0.3-0.3c0.3,0,0.6,0,1,0.1
		c0,2.2,0,3.7,0,4.5l0.7-1.2l0.4,2.7l1.9-2.7c2.7,0,5.9-0.2,9.7-0.6c0.2,0.3,0.4,0.5,0.5,0.5c0.3,0.1,0.6-0.1,0.8-0.7
		c0.5-0.1,1.1-0.1,1.6-0.2c-0.6,0.3-1.6,0.9-3.1,2c0.8-0.2,1.9-0.3,3.4-0.4c1.6-0.1,2.7-0.3,3.4-0.4c-0.3,0.3-0.8,0.7-1.3,1.3
		c-0.7,0.1-1.5,0.1-2.3,0.3l-3.4,0.5l-6.5,1.8c-1.2-0.3-2.5-0.6-3.8-1c0.3,0.7,0.1,1.1-0.8,1c-0.8-0.1-1.2,0-1.2,0.1c0,0,0,0,0,0
		c0.7,0.2,1.7,0.4,2.8,0.5c-2.7,0.4-4.2,0.6-4.6,0.6C207.8,138.7,206.6,138.9,204.8,139.2z M209.7,143.1l-1.1,0
		c-0.3-1.7-1.3-2.6-3.1-3l6,0.9l0.7-0.6c0.4-0.2,1-0.1,1.7,0.2c-0.2,0.2-0.5,0.3-0.8,0.5c0.4-0.1,0.7-0.3,1-0.4
		c0.4,0.2,0.9,0.4,1.4,0.8c0,0-0.1,0-0.1,0.1l-2,0.6l1,0c0,0,0,0-0.1,0l-3.2,0.2c0.7,0,1.5,0,2.5,0.1
		C212.6,142.8,211.3,143,209.7,143.1z M206.3,179l1.2-1.3l-0.4,0.7c0.2-0.3,0.8-0.5,1.6-0.9c0.5-0.2,1.3-0.5,2.6-1h0l1.8,4
		L206.3,179z M212.2,166.1L212.2,166.1l1.8-4.2l1.5,3.2L212.2,166.1z M220.9,165.6l0.7-3.2v0l3.2,4.2L220.9,165.6z M228.8,166.7
		c-0.3-1.7-0.8-3.4-1.5-5.1l-1.1-2.1l2.9,3c0.7,0.7,1.3,1.1,1.9,1.4l0.3,0.6l3.9,1.3l-0.5,0.7L228.8,166.7z M256.3,150l1.3-3.1
		l1.1,2.3L256.3,150z M254.5,133.3c-0.1,0-0.3,0-0.5,0l0.7-1.7l1.2,0.2l0.5-0.5h0c0.5-0.2,1.3,0.1,2.3,0.8
		C258.2,132.8,256.8,133.2,254.5,133.3z M262.6,149.7l0.5-2.3l2.3,3L262.6,149.7z"/>
	<path class="st0" d="M194.1,40.5c0.2,0.4,0.7,0.6,1.4,0.7c0.5,1.4,0.8,2.6,1.1,3.6l3.2-0.9c-0.5,1.1-0.4,2.1,0.2,3.1
		c1-0.5,1.6-0.9,1.9-1.1c0.2,0,0.7,0.6,1.7,1.7l2.3-0.9l0.6,1.1c-0.2,0.4-0.7,1-1.5,1.8c-2.4-0.9-4.8-2-7.2-3.2
		c-2.1-1.1-3.8-2.1-4.9-3c0.3,0.3,0.6,1.4,1,3.4c0.3,2,0.2,2.8-0.3,2.6c2.7,1.6,6,3.5,10.1,5.5l2.6-2.1c0.1,1.5-0.1,3-0.6,4.5
		c-0.1,0.4,0.6-0.7,2.1-3.2l0.5,1.7l0.9-2.6c0,0.6,0.1,1.3,0.3,2c0.1,0.4,0.3,0.9,0.6,1.6c-0.1-1.1-0.1-1.5,0.2-1.2
		c0.6,0.5,1.1,0.8,1.3,0.7c1.2-0.2,1.8-0.2,1.9-0.1c-0.2-0.5,0-1.3,0.6-2.4c0.8,1.5,1.2,3,1.2,4.7c0.1-1.2,0.5-1.8,1.2-1.8
		c1.4,0,2.1-0.1,2.2-0.1c1-1.7,1.8-3.3,2.2-5c0.6-0.1,1-0.1,1.1-0.1c0.6,0,0.8-0.5,0.5-1.6l2.1,0.5l-0.7-3.2l0.2,0.1
		c0.1,0.6,0.2,0.9,0.4,0.8l0.9-0.4c1.6,0.4,2.3,0.2,2-0.7l-0.3-0.6c0.9-1.2,0.7-2.9-0.5-5.1c-1.4-2.5-2.1-3.9-2-4.2
		c-0.3,1.5-1.1,3-2.5,4.4c-0.9,0.9-1,1.5-0.2,2c-0.3,0-0.7,0-0.9-0.2c-0.5-0.4-0.9-0.6-1-0.6c-0.4-0.2-0.9-0.6-1.6-1.1l-0.9-0.8
		l-1.1-3.3c2.5-0.4,3.7-0.7,3.5-0.8c-0.6-0.7-2.2-1.4-5-2.3l2.4-0.7c-1.2-1-1.9-1.6-2.1-1.8c-0.1-0.1,0.2-0.7,0.7-1.9
		c-1.3-0.7-3.5-2.8-6.8-6.4h0c-3.3-3.8-4.8-6-4.4-6.7c-1,1.6-1.7,5.3-2.1,11.1c-0.4,4.9-1.9,8.5-4.4,10.7c0.5-0.2,1.5-0.3,2.8-0.1
		c1.4,0.1,1.5,0.2,0.3,0.3c0.4,1.2,1.8,2.2,4,3c0,0.3-0.1,0.6-0.2,0.8c-0.2,0.2-0.6,0.4-1.1,0.5c-0.8,0.1-1.5,0.2-2.1,0.4
		c-2.3-1.4-4.4-2.9-6.4-4.3c-2.1-1.6-3.1-2.6-3.1-3.1c-0.2,1.3,0.2,2.4,1.1,3.3C193.6,39.4,193.8,39.9,194.1,40.5z"/>
	<path class="st0" d="M167,100.9c1.3,0.2,3-0.1,5-0.9c-2.5-1.1-4.3-1.8-5.5-2.3c-2.3-0.8-3-0.6-2.1,0.7
		C164.8,99.8,165.6,100.7,167,100.9z"/>
	<path class="st0" d="M148.8,101.2c0.3-0.5,1.3-0.3,2.8,0.6c0.8,0.4,1.7,1,2.7,1.7l-2.8,1.4c0.5,0.7,1.1,1.1,1.5,1.4
		c0.3,0.2,0.6,0.7,1.1,1.5c1.3-0.2,2.9-0.8,5-1.7c-0.4-1.1-0.8-2.1-1.3-2.9c-0.8-1.2-2.1-2.3-4.1-3.2v0c-2.1-1-3.6-2.2-4.6-3.4
		c0.4,0.7,0.4,1.1,0,1.1c-0.5,0.1-0.6,0.4-0.3,1.1C149.3,99.7,149.2,100.5,148.8,101.2z"/>
	<path class="st0" d="M185,125.9L185,125.9l-2.1,1.8c1-0.6,1.9-1.3,2.8-2C186.7,124.8,186.5,124.9,185,125.9L185,125.9z"/>
	<path class="st0" d="M150.5,148.8c-1.2-0.1-1.8,0-1.7,0.1c1.3,0.4,2.6,0.6,3.8,0.7c0,1.1-0.5,2-1.4,2.8c1.2,0.2,2.4,0.2,3.6,0
		c-0.5,0.6-1.1,1.1-1.8,1.4c2.5-0.9,5.3-1.9,8.3-2.8v0c1.6-0.5,2.4-0.8,2.2-1c-3.1-0.3-7.1-1.2-11.9-2.6
		C152,148.4,151.6,148.9,150.5,148.8z"/>
	<path class="st0" d="M191.8,163.3L191.8,163.3c-0.6,0.4-0.7,0.5-0.3,0.5C191.9,163.7,192,163.6,191.8,163.3z"/>
	<path class="st0" d="M148.7,119L148.7,119l-1,0.7c-0.4,0.4-0.3,0.7,0.5,0.7c0.6,0,1.5-0.3,2.9-0.8c0.9-0.3,1.3-0.3,1.1,0.1
		c-0.3,0.8-0.5,1.4-0.5,2.1l0.5,0.1c-1.4,0-2.3,0-2.6-0.1c0.4,0.1,1.4,0.6,2.9,1.3c1.2,0.5,2.3,0.9,3.3,1.1c-1.5,0-2.9,0.3-4.3,0.9
		c-0.2,0.9,0.7,1.2,2.9,0.8c1.1-0.2,2.3-0.4,3.7-0.8c-0.3,0.2-1.6,1.2-3.9,3c-2.2,1.6-3.6,2.3-4.1,2c1,0.6,2.9,0.2,5.5-1.1
		c1.7-0.8,3.3-1.8,5-3.1c-0.5,0.6-1.3,1.8-2.2,3.4c-0.9,1.5-1.7,2.7-2.4,3.4c4-1.7,7-4.2,8.8-7.6l0.7,3.1c0.2-0.2,0.6-0.8,1.1-1.7
		c0.4-0.9,0.8-1.4,1-1.5c0.6-0.1,0.9,0.2,0.9,0.8c0,0.6,0.1,1,0.3,1.1c0.9-1,1.6-1.7,2.1-2.1c0.5-0.4,1.3-0.8,2.5-1.5
		c-1.1,1.6-1.8,2.8-2.3,3.5c-0.7,0.9-1.6,1.9-2.7,3c0.3-0.4,3.5-2.9,9.5-7.7c0.6-0.2,0.6,0.4,0,1.7c-0.3,0.7-0.7,1.5-1.2,2.4
		c-0.6,0.6-0.2,0.4,1.2-0.8c1.3-1.1,2.2-2,2.6-2.5c0.2,0.9,0.1,1.7-0.2,2.4c0.2-0.2,1.1-1,2.8-2.3c1.6-1.2,2.4-1.8,2.5-1.9
		c-0.7,0.9-1.3,2-1.9,3.2c0,0,0.5-0.4,1.5-1.2c1-0.8,1.5-1.3,1.6-1.5c-0.2,1.5-0.3,2.6-0.3,3.4c0.5-0.5,1-1.3,1.2-2.3
		c0.3-1.1,0.5-1.9,0.6-2.5l1-0.1l1.3-0.3c-0.1,0.4-0.3,0.9-0.6,1.6c-0.3,0.6-0.4,1.2-0.4,1.7c1.8-1.2,3.1-2.1,3.8-2.8
		c-0.6,1.2-0.7,2.5-0.3,3.8c0.3-0.1,1.2-1.1,2.6-3c1.3-1.8,2.1-3,2.2-3.4v0c-16.4,0.5-26.2,0.5-29.5-0.1c-3.6-0.3-6.3-0.7-8.1-1.1
		c-1.1-0.3-3-0.9-5.8-1.9c-2.9-1-4.5-1.5-4.9-1.6c-0.7-0.2-2.1-0.4-4.4-0.8l-3.2-0.4l8.1,4.7c-1.6,0.2-3.1,0.5-4.4,0.8
		c-2.7,0.6-3.4,1-2.1,1.3C145.8,119,147.5,119.1,148.7,119z"/>
</g>
</svg>
