<?xml version="1.0" encoding="utf-8"?>
<!-- Generator: Adobe Illustrator 22.1.0, SVG Export Plug-In . SVG Version: 6.00 Build 0)  -->
<svg version="1.1" id="Layer_1" xmlns="http://www.w3.org/2000/svg" xmlns:xlink="http://www.w3.org/1999/xlink" x="0px" y="0px"
	 viewBox="0 0 533.3 533.3" style="enable-background:new 0 0 533.3 533.3;" xml:space="preserve">
<style type="text/css">
	.st0{fill:none;stroke:#000000;stroke-miterlimit:10;}
</style>
<g>
	<path class="st0" d="M168.4,376.4C168.3,376.4,168.3,376.4,168.4,376.4L168.4,376.4c-0.2,0.4-0.3,0.7-0.5,1
		c0.3,1.1,0.5,2.2,0.6,3.3c0.4-1.5,1-3.3,1.9-5.1C169.7,376,169,376.2,168.4,376.4z M229.5,473.5c0.1-0.1,0.2-0.1,0.3-0.2
		c-1.4,0.4-2.9,0.8-4.5,1.1c2,0.4,3.9,0.8,5.9,1.2C230.5,475,229.9,474.3,229.5,473.5z M260.6,436.5c-1.7,1.1-3.5,2.2-5.6,3.1
		c1.6,1.3,3,2.6,4.1,4c-0.1-0.7-0.1-1.5-0.2-2.2C259.4,439.8,259.9,438.2,260.6,436.5z M259.2,443.6c0.3,3,1,5.6,2.1,7.9
		C261.9,448.7,261,446.1,259.2,443.6z M261.3,451.5c-0.1,0.4-0.2,0.8-0.4,1.3c-0.7,1.1-1.6,2.3-2.8,3.6c1.6-0.6,3.1-1,4.7-1.4
		c0.6,0.3,1.1,0.6,1.7,0.9C263.2,454.6,262.1,453.1,261.3,451.5z M264.5,455.9c2.6,2.5,6.3,4.4,11.3,5.6
		C271.6,458.9,268,457.6,264.5,455.9z M283.8,462c-0.7,0.2-1.3,0.5-2,0.7c-2.2-0.3-4.2-0.7-6-1.1c2.5,1.5,5.3,3.5,8.4,6.3
		C283.5,465.4,283.4,463.5,283.8,462z M274.1,409.8c1,1.8,1.7,3.5,2,5c1.5-1.3,3.2-2.3,4.8-3.3C278.6,411.2,276.3,410.6,274.1,409.8
		z M284.6,409.9c-1.2,0.4-2.4,1-3.6,1.6c0.2,0,0.4,0.1,0.5,0.1c1.3-0.5,2.6-1,3.8-1.5C285,410,284.8,410,284.6,409.9z M285.3,410.1
		c0.2,0,0.3,0.1,0.4,0.1h0c0-0.1,0.1-0.3,0.1-0.4C285.7,409.9,285.5,410,285.3,410.1z M232.2,378.6c-0.1,0.9-0.3,1.8-0.8,2.4
		c-0.3,0.4-0.5,0.8-0.8,1.2c2.9-1,6-1.5,9.2-1C237.2,380.7,234.7,379.8,232.2,378.6z M241.2,381.4c1.2,0.3,2.4,0.7,3.5,1.2
		c0.4-1.1,0.9-2.2,1.4-3.4C244.6,380.1,243,380.8,241.2,381.4z M165.3,323c0,0,0,0.1,0,0.2c0.1,0,0.1,0,0.2-0.1
		C165.4,323,165.4,323,165.3,323z M205.9,349.4c-1,0.5-2.2,0.9-3.3,1.3c-1.9-0.3-3.8-0.7-5.7-1.3c0.3,0.6,0.6,1.2,0.8,1.8
		c2.3-0.4,4.6-0.4,7.1-0.1c0,0-0.1-0.1-0.1-0.1C205.1,350.5,205.5,350,205.9,349.4z M153.3,323.4c0,0.1,0.1,0.2,0.1,0.3
		c0.1,0,0.2-0.1,0.3-0.1C153.6,323.6,153.5,323.5,153.3,323.4z M160.3,264.6c0.6,1.9,1.1,3.6,1.6,5.1c-0.8,1.3-2,2.7-3.5,4.1h0.1
		c0.7,0.2,1.4,0.4,2.1,0.6c0.7-2.3,1.8-4.9,3.2-7.6C162.7,266.3,161.5,265.5,160.3,264.6z M153.3,323.4c0,0.1,0.1,0.2,0.1,0.3
		c0.1,0,0.2-0.1,0.3-0.1C153.6,323.6,153.5,323.5,153.3,323.4z M160.3,264.6c0.6,1.9,1.1,3.6,1.6,5.1c-0.8,1.3-2,2.7-3.5,4.1h0.1
		c0.7,0.2,1.4,0.4,2.1,0.6c0.7-2.3,1.8-4.9,3.2-7.6C162.7,266.3,161.5,265.5,160.3,264.6z M195.1,244.6c0.3-1.1,0.7-2.2,1.2-3.3
		c-0.8,0.3-1.5,0.6-2.4,0.8c-1-0.4-1.9-1-2.9-1.7c0.6,1.2,1.1,2.4,1.5,3.4c-0.4,0.7-0.9,1.4-1.4,2.1c1.7-0.1,3.5,0.1,5.3,0.5
		c0.1,0.1,0.2,0.2,0.3,0.2C196.1,245.9,195.6,245.2,195.1,244.6z M224.5,219.7C224.5,219.7,224.5,219.7,224.5,219.7L224.5,219.7
		C224.6,219.7,224.5,219.7,224.5,219.7z M153.3,323.4c0,0.1,0.1,0.2,0.1,0.3c0.1,0,0.2-0.1,0.3-0.1
		C153.6,323.6,153.5,323.5,153.3,323.4z M160.3,264.6c0.6,1.9,1.1,3.6,1.6,5.1c-0.8,1.3-2,2.7-3.5,4.1h0.1c0.7,0.2,1.4,0.4,2.1,0.6
		c0.7-2.3,1.8-4.9,3.2-7.6C162.7,266.3,161.5,265.5,160.3,264.6z M195.1,244.6c0.3-1.1,0.7-2.2,1.2-3.3c-0.8,0.3-1.5,0.6-2.4,0.8
		c-1-0.4-1.9-1-2.9-1.7c0.6,1.2,1.1,2.4,1.5,3.4c-0.4,0.7-0.9,1.4-1.4,2.1c1.7-0.1,3.5,0.1,5.3,0.5c0.1,0.1,0.2,0.2,0.3,0.2
		C196.1,245.9,195.6,245.2,195.1,244.6z M224.5,219.7C224.5,219.7,224.5,219.7,224.5,219.7L224.5,219.7
		C224.6,219.7,224.5,219.7,224.5,219.7z M153.3,323.4c0,0.1,0.1,0.2,0.1,0.3c0.1,0,0.2-0.1,0.3-0.1
		C153.6,323.6,153.5,323.5,153.3,323.4z M160.3,264.6c0.6,1.9,1.1,3.6,1.6,5.1c-0.8,1.3-2,2.7-3.5,4.1h0.1c0.7,0.2,1.4,0.4,2.1,0.6
		c0.7-2.3,1.8-4.9,3.2-7.6C162.7,266.3,161.5,265.5,160.3,264.6z M195.1,244.6c0.3-1.1,0.7-2.2,1.2-3.3c-0.8,0.3-1.5,0.6-2.4,0.8
		c-1-0.4-1.9-1-2.9-1.7c0.6,1.2,1.1,2.4,1.5,3.4c-0.4,0.7-0.9,1.4-1.4,2.1c1.7-0.1,3.5,0.1,5.3,0.5c0.1,0.1,0.2,0.2,0.3,0.2
		C196.1,245.9,195.6,245.2,195.1,244.6z M224.5,219.7C224.5,219.7,224.5,219.7,224.5,219.7L224.5,219.7
		C224.6,219.7,224.5,219.7,224.5,219.7z M153.3,323.4c0,0.1,0.1,0.2,0.1,0.3c0.1,0,0.2-0.1,0.3-0.1
		C153.6,323.6,153.5,323.5,153.3,323.4z M160.3,264.6c0.6,1.9,1.1,3.6,1.6,5.1c-0.8,1.3-2,2.7-3.5,4.1h0.1c0.7,0.2,1.4,0.4,2.1,0.6
		c0.7-2.3,1.8-4.9,3.2-7.6C162.7,266.3,161.5,265.5,160.3,264.6z M195.1,244.6c0.3-1.1,0.7-2.2,1.2-3.3c-0.8,0.3-1.5,0.6-2.4,0.8
		c-1-0.4-1.9-1-2.9-1.7c0.6,1.2,1.1,2.4,1.5,3.4c-0.4,0.7-0.9,1.4-1.4,2.1c1.7-0.1,3.5,0.1,5.3,0.5c0.1,0.1,0.2,0.2,0.3,0.2
		C196.1,245.9,195.6,245.2,195.1,244.6z M197.7,298c-3.4-0.4-6.7-1.3-9.8-2.4c0.7,0.9,1.4,1.9,2.1,2.8c2.8-0.5,5.8-0.4,9,0.2
		c0.7,0.5,1.4,0.9,2.2,1.4c0.6-1.9,1.5-3.8,2.7-5.6C201.9,295.5,199.9,296.7,197.7,298z M224.5,219.7
		C224.5,219.7,224.5,219.7,224.5,219.7L224.5,219.7C224.6,219.7,224.5,219.7,224.5,219.7z M236.6,272.2c0.2-0.8,0.5-1.6,0.8-2.5
		c-1.5,0.8-3.2,1.5-5,2.1c-2.4-0.3-4.8-0.9-7.1-1.8c0.8,1,1.6,2,2.3,3c-0.4,0.6-0.8,1.2-1.2,1.8c1.8-1,3.6-1.8,5.4-2.6
		c2.8,1.6,6,3.3,9.3,5.2C239.4,275.7,237.9,273.9,236.6,272.2z M153.3,323.4c0,0.1,0.1,0.2,0.1,0.3c0.1,0,0.2-0.1,0.3-0.1
		C153.6,323.6,153.5,323.5,153.3,323.4z M160.3,264.6c0.6,1.9,1.1,3.6,1.6,5.1c-0.8,1.3-2,2.7-3.5,4.1h0.1c0.7,0.2,1.4,0.4,2.1,0.6
		c0.7-2.3,1.8-4.9,3.2-7.6C162.7,266.3,161.5,265.5,160.3,264.6z M195.1,244.6c0.3-1.1,0.7-2.2,1.2-3.3c-0.8,0.3-1.5,0.6-2.4,0.8
		c-1-0.4-1.9-1-2.9-1.7c0.6,1.2,1.1,2.4,1.5,3.4c-0.4,0.7-0.9,1.4-1.4,2.1c1.7-0.1,3.5,0.1,5.3,0.5c0.1,0.1,0.2,0.2,0.3,0.2
		C196.1,245.9,195.6,245.2,195.1,244.6z M197.7,298c-3.4-0.4-6.7-1.3-9.8-2.4c0.7,0.9,1.4,1.9,2.1,2.8c2.8-0.5,5.8-0.4,9,0.2
		c0.7,0.5,1.4,0.9,2.2,1.4c0.6-1.9,1.5-3.8,2.7-5.6C201.9,295.5,199.9,296.7,197.7,298z M224.5,219.7
		C224.5,219.7,224.5,219.7,224.5,219.7L224.5,219.7C224.6,219.7,224.5,219.7,224.5,219.7z M236.6,272.2c0.2-0.8,0.5-1.6,0.8-2.5
		c-1.5,0.8-3.2,1.5-5,2.1c-2.4-0.3-4.8-0.9-7.1-1.8c0.8,1,1.6,2,2.3,3c-0.4,0.6-0.8,1.2-1.2,1.8c1.8-1,3.6-1.8,5.4-2.6
		c2.8,1.6,6,3.3,9.3,5.2C239.4,275.7,237.9,273.9,236.6,272.2z M153.3,323.4c0,0.1,0.1,0.2,0.1,0.3c0.1,0,0.2-0.1,0.3-0.1
		C153.6,323.6,153.5,323.5,153.3,323.4z M160.3,264.6c0.6,1.9,1.1,3.6,1.6,5.1c-0.8,1.3-2,2.7-3.5,4.1h0.1c0.7,0.2,1.4,0.4,2.1,0.6
		c0.7-2.3,1.8-4.9,3.2-7.6C162.7,266.3,161.5,265.5,160.3,264.6z M195.1,244.6c0.3-1.1,0.7-2.2,1.2-3.3c-0.8,0.3-1.5,0.6-2.4,0.8
		c-1-0.4-1.9-1-2.9-1.7c0.6,1.2,1.1,2.4,1.5,3.4c-0.4,0.7-0.9,1.4-1.4,2.1c1.7-0.1,3.5,0.1,5.3,0.5c0.1,0.1,0.2,0.2,0.3,0.2
		C196.1,245.9,195.6,245.2,195.1,244.6z M197.7,298c-3.4-0.4-6.7-1.3-9.8-2.4c0.7,0.9,1.4,1.9,2.1,2.8c2.8-0.5,5.8-0.4,9,0.2
		c0.7,0.5,1.4,0.9,2.2,1.4c0.6-1.9,1.5-3.8,2.7-5.6C201.9,295.5,199.9,296.7,197.7,298z M224.5,219.7
		C224.5,219.7,224.5,219.7,224.5,219.7L224.5,219.7C224.6,219.7,224.5,219.7,224.5,219.7z M236.6,272.2c0.2-0.8,0.5-1.6,0.8-2.5
		c-1.5,0.8-3.2,1.5-5,2.1c-2.4-0.3-4.8-0.9-7.1-1.8c0.8,1,1.6,2,2.3,3c-0.4,0.6-0.8,1.2-1.2,1.8c1.8-1,3.6-1.8,5.4-2.6
		c2.8,1.6,6,3.3,9.3,5.2C239.4,275.7,237.9,273.9,236.6,272.2z M153.3,323.4c0,0.1,0.1,0.2,0.1,0.3c0.1,0,0.2-0.1,0.3-0.1
		C153.6,323.6,153.5,323.5,153.3,323.4z M160.3,264.6c0.6,1.9,1.1,3.6,1.6,5.1c-0.8,1.3-2,2.7-3.5,4.1h0.1c0.7,0.2,1.4,0.4,2.1,0.6
		c0.7-2.3,1.8-4.9,3.2-7.6C162.7,266.3,161.5,265.5,160.3,264.6z M195.1,244.6c0.3-1.1,0.7-2.2,1.2-3.3c-0.8,0.3-1.5,0.6-2.4,0.8
		c-1-0.4-1.9-1-2.9-1.7c0.6,1.2,1.1,2.4,1.5,3.4c-0.4,0.7-0.9,1.4-1.4,2.1c1.7-0.1,3.5,0.1,5.3,0.5c0.1,0.1,0.2,0.2,0.3,0.2
		C196.1,245.9,195.6,245.2,195.1,244.6z M197.7,298c-3.4-0.4-6.7-1.3-9.8-2.4c0.7,0.9,1.4,1.9,2.1,2.8c2.8-0.5,5.8-0.4,9,0.2
		c0.7,0.5,1.4,0.9,2.2,1.4c0.6-1.9,1.5-3.8,2.7-5.6C201.9,295.5,199.9,296.7,197.7,298z M224.5,219.7
		C224.5,219.7,224.5,219.7,224.5,219.7L224.5,219.7C224.6,219.7,224.5,219.7,224.5,219.7z M236.6,272.2c0.2-0.8,0.5-1.6,0.8-2.5
		c-1.5,0.8-3.2,1.5-5,2.1c-2.4-0.3-4.8-0.9-7.1-1.8c0.8,1,1.6,2,2.3,3c-0.4,0.6-0.8,1.2-1.2,1.8c1.8-1,3.6-1.8,5.4-2.6
		c2.8,1.6,6,3.3,9.3,5.2C239.4,275.7,237.9,273.9,236.6,272.2z M153.3,323.4c0,0.1,0.1,0.2,0.1,0.3c0.1,0,0.2-0.1,0.3-0.1
		C153.6,323.6,153.5,323.5,153.3,323.4z M160.3,264.6c0.6,1.9,1.1,3.6,1.6,5.1c-0.8,1.3-2,2.7-3.5,4.1h0.1c0.7,0.2,1.4,0.4,2.1,0.6
		c0.7-2.3,1.8-4.9,3.2-7.6C162.7,266.3,161.5,265.5,160.3,264.6z M195.1,244.6c0.3-1.1,0.7-2.2,1.2-3.3c-0.8,0.3-1.5,0.6-2.4,0.8
		c-1-0.4-1.9-1-2.9-1.7c0.6,1.2,1.1,2.4,1.5,3.4c-0.4,0.7-0.9,1.4-1.4,2.1c1.7-0.1,3.5,0.1,5.3,0.5c0.1,0.1,0.2,0.2,0.3,0.2
		C196.1,245.9,195.6,245.2,195.1,244.6z M197.7,298c-3.4-0.4-6.7-1.3-9.8-2.4c0.7,0.9,1.4,1.9,2.1,2.8c2.8-0.5,5.8-0.4,9,0.2
		c0.7,0.5,1.4,0.9,2.2,1.4c0.6-1.9,1.5-3.8,2.7-5.6C201.9,295.5,199.9,296.7,197.7,298z M224.5,219.7
		C224.5,219.7,224.5,219.7,224.5,219.7L224.5,219.7C224.6,219.7,224.5,219.7,224.5,219.7z M236.6,272.2c0.2-0.8,0.5-1.6,0.8-2.5
		c-1.5,0.8-3.2,1.5-5,2.1c-2.4-0.3-4.8-0.9-7.1-1.8c0.8,1,1.6,2,2.3,3c-0.4,0.6-0.8,1.2-1.2,1.8c1.8-1,3.6-1.8,5.4-2.6
		c2.8,1.6,6,3.3,9.3,5.2C239.4,275.7,237.9,273.9,236.6,272.2z M153.3,323.4c0,0.1,0.1,0.2,0.1,0.3c0.1,0,0.2-0.1,0.3-0.1
		C153.6,323.6,153.5,323.5,153.3,323.4z M160.3,264.6c0.6,1.9,1.1,3.6,1.6,5.1c-0.8,1.3-2,2.7-3.5,4.1h0.1c0.7,0.2,1.4,0.4,2.1,0.6
		c0.7-2.3,1.8-4.9,3.2-7.6C162.7,266.3,161.5,265.5,160.3,264.6z M195.1,244.6c0.3-1.1,0.7-2.2,1.2-3.3c-0.8,0.3-1.5,0.6-2.4,0.8
		c-1-0.4-1.9-1-2.9-1.7c0.6,1.2,1.1,2.4,1.5,3.4c-0.4,0.7-0.9,1.4-1.4,2.1c1.7-0.1,3.5,0.1,5.3,0.5c0.1,0.1,0.2,0.2,0.3,0.2
		C196.1,245.9,195.6,245.2,195.1,244.6z M197.7,298c-3.4-0.4-6.7-1.3-9.8-2.4c0.7,0.9,1.4,1.9,2.1,2.8c2.8-0.5,5.8-0.4,9,0.2
		c0.7,0.5,1.4,0.9,2.2,1.4c0.6-1.9,1.5-3.8,2.7-5.6C201.9,295.5,199.9,296.7,197.7,298z M224.5,219.7
		C224.5,219.7,224.5,219.7,224.5,219.7L224.5,219.7C224.6,219.7,224.5,219.7,224.5,219.7z M236.6,272.2c0.2-0.8,0.5-1.6,0.8-2.5
		c-1.5,0.8-3.2,1.5-5,2.1c-2.4-0.3-4.8-0.9-7.1-1.8c0.8,1,1.6,2,2.3,3c-0.4,0.6-0.8,1.2-1.2,1.8c1.8-1,3.6-1.8,5.4-2.6
		c2.8,1.6,6,3.3,9.3,5.2C239.4,275.7,237.9,273.9,236.6,272.2z M153.3,323.4c0,0.1,0.1,0.2,0.1,0.3c0.1,0,0.2-0.1,0.3-0.1
		C153.6,323.6,153.5,323.5,153.3,323.4z M160.3,264.6c0.6,1.9,1.1,3.6,1.6,5.1c-0.8,1.3-2,2.7-3.5,4.1h0.1c0.7,0.2,1.4,0.4,2.1,0.6
		c0.7-2.3,1.8-4.9,3.2-7.6C162.7,266.3,161.5,265.5,160.3,264.6z M195.1,244.6c0.3-1.1,0.7-2.2,1.2-3.3c-0.8,0.3-1.5,0.6-2.4,0.8
		c-1-0.4-1.9-1-2.9-1.7c0.6,1.2,1.1,2.4,1.5,3.4c-0.4,0.7-0.9,1.4-1.4,2.1c1.7-0.1,3.5,0.1,5.3,0.5c0.1,0.1,0.2,0.2,0.3,0.2
		C196.1,245.9,195.6,245.2,195.1,244.6z M197.7,298c-3.4-0.4-6.7-1.3-9.8-2.4c0.7,0.9,1.4,1.9,2.1,2.8c2.8-0.5,5.8-0.4,9,0.2
		c0.7,0.5,1.4,0.9,2.2,1.4c0.6-1.9,1.5-3.8,2.7-5.6C201.9,295.5,199.9,296.7,197.7,298z M224.5,219.7
		C224.5,219.7,224.5,219.7,224.5,219.7L224.5,219.7C224.6,219.7,224.5,219.7,224.5,219.7z M236.6,272.2c0.2-0.8,0.5-1.6,0.8-2.5
		c-1.5,0.8-3.2,1.5-5,2.1c-2.4-0.3-4.8-0.9-7.1-1.8c0.8,1,1.6,2,2.3,3c-0.4,0.6-0.8,1.2-1.2,1.8c1.8-1,3.6-1.8,5.4-2.6
		c2.8,1.6,6,3.3,9.3,5.2C239.4,275.7,237.9,273.9,236.6,272.2z M273.9,299.5c-2.4-0.8-4.8-1.8-7-2.8c0.7,1.1,1.1,2.2,1.1,3.2
		c0.9-0.4,1.8-0.7,2.6-1c1.9,0.5,3.8,1.1,5.7,1.9c0.4-0.9,0.8-1.9,1.3-2.8C276.5,298.5,275.3,299,273.9,299.5z M310.1,326.7
		L310.1,326.7c-1-0.2-2-0.4-2.9-0.6c0.2,0.8,0.3,1.5,0.3,2.2c-0.8,1.3-2,2.8-3.5,4.5c3.3-0.9,6.8-1.1,10.6-0.6
		C312.8,330.2,311.4,328.3,310.1,326.7z M153.3,323.4c0,0.1,0.1,0.2,0.1,0.3c0.1,0,0.2-0.1,0.3-0.1
		C153.6,323.6,153.5,323.5,153.3,323.4z M160.3,264.6c0.6,1.9,1.1,3.6,1.6,5.1c-0.8,1.3-2,2.7-3.5,4.1h0.1c0.7,0.2,1.4,0.4,2.1,0.6
		c0.7-2.3,1.8-4.9,3.2-7.6C162.7,266.3,161.5,265.5,160.3,264.6z M195.1,244.6c0.3-1.1,0.7-2.2,1.2-3.3c-0.8,0.3-1.5,0.6-2.4,0.8
		c-1-0.4-1.9-1-2.9-1.7c0.6,1.2,1.1,2.4,1.5,3.4c-0.4,0.7-0.9,1.4-1.4,2.1c1.7-0.1,3.5,0.1,5.3,0.5c0.1,0.1,0.2,0.2,0.3,0.2
		C196.1,245.9,195.6,245.2,195.1,244.6z M197.7,298c-3.4-0.4-6.7-1.3-9.8-2.4c0.7,0.9,1.4,1.9,2.1,2.8c2.8-0.5,5.8-0.4,9,0.2
		c0.7,0.5,1.4,0.9,2.2,1.4c0.6-1.9,1.5-3.8,2.7-5.6C201.9,295.5,199.9,296.7,197.7,298z M224.5,219.7
		C224.5,219.7,224.5,219.7,224.5,219.7L224.5,219.7C224.6,219.7,224.5,219.7,224.5,219.7z M153.3,323.4c0,0.1,0.1,0.2,0.1,0.3
		c0.1,0,0.2-0.1,0.3-0.1C153.6,323.6,153.5,323.5,153.3,323.4z M160.3,264.6c0.6,1.9,1.1,3.6,1.6,5.1c-0.8,1.3-2,2.7-3.5,4.1h0.1
		c0.7,0.2,1.4,0.4,2.1,0.6c0.7-2.3,1.8-4.9,3.2-7.6C162.7,266.3,161.5,265.5,160.3,264.6z M195.1,244.6c0.3-1.1,0.7-2.2,1.2-3.3
		c-0.8,0.3-1.5,0.6-2.4,0.8c-1-0.4-1.9-1-2.9-1.7c0.6,1.2,1.1,2.4,1.5,3.4c-0.4,0.7-0.9,1.4-1.4,2.1c1.7-0.1,3.5,0.1,5.3,0.5
		c0.1,0.1,0.2,0.2,0.3,0.2C196.1,245.9,195.6,245.2,195.1,244.6z M197.7,298c-3.4-0.4-6.7-1.3-9.8-2.4c0.7,0.9,1.4,1.9,2.1,2.8
		c2.8-0.5,5.8-0.4,9,0.2c0.7,0.5,1.4,0.9,2.2,1.4c0.6-1.9,1.5-3.8,2.7-5.6C201.9,295.5,199.9,296.7,197.7,298z M224.5,219.7
		C224.5,219.7,224.5,219.7,224.5,219.7L224.5,219.7C224.6,219.7,224.5,219.7,224.5,219.7z M153.3,323.4c0,0.1,0.1,0.2,0.1,0.3
		c0.1,0,0.2-0.1,0.3-0.1C153.6,323.6,153.5,323.5,153.3,323.4z M160.3,264.6c0.6,1.9,1.1,3.6,1.6,5.1c-0.8,1.3-2,2.7-3.5,4.1h0.1
		c0.7,0.2,1.4,0.4,2.1,0.6c0.7-2.3,1.8-4.9,3.2-7.6C162.7,266.3,161.5,265.5,160.3,264.6z M195.1,244.6c0.3-1.1,0.7-2.2,1.2-3.3
		c-0.8,0.3-1.5,0.6-2.4,0.8c-1-0.4-1.9-1-2.9-1.7c0.6,1.2,1.1,2.4,1.5,3.4c-0.4,0.7-0.9,1.4-1.4,2.1c1.7-0.1,3.5,0.1,5.3,0.5
		c0.1,0.1,0.2,0.2,0.3,0.2C196.1,245.9,195.6,245.2,195.1,244.6z M197.7,298c-3.4-0.4-6.7-1.3-9.8-2.4c0.7,0.9,1.4,1.9,2.1,2.8
		c2.8-0.5,5.8-0.4,9,0.2c0.7,0.5,1.4,0.9,2.2,1.4c0.6-1.9,1.5-3.8,2.7-5.6C201.9,295.5,199.9,296.7,197.7,298z M224.5,219.7
		C224.5,219.7,224.5,219.7,224.5,219.7L224.5,219.7C224.6,219.7,224.5,219.7,224.5,219.7z M153.3,323.4c0,0.1,0.1,0.2,0.1,0.3
		c0.1,0,0.2-0.1,0.3-0.1C153.6,323.6,153.5,323.5,153.3,323.4z M160.3,264.6c0.6,1.9,1.1,3.6,1.6,5.1c-0.8,1.3-2,2.7-3.5,4.1h0.1
		c0.7,0.2,1.4,0.4,2.1,0.6c0.7-2.3,1.8-4.9,3.2-7.6C162.7,266.3,161.5,265.5,160.3,264.6z M195.1,244.6c0.3-1.1,0.7-2.2,1.2-3.3
		c-0.8,0.3-1.5,0.6-2.4,0.8c-1-0.4-1.9-1-2.9-1.7c0.6,1.2,1.1,2.4,1.5,3.4c-0.4,0.7-0.9,1.4-1.4,2.1c1.7-0.1,3.5,0.1,5.3,0.5
		c0.1,0.1,0.2,0.2,0.3,0.2C196.1,245.9,195.6,245.2,195.1,244.6z M197.7,298c-3.4-0.4-6.7-1.3-9.8-2.4c0.7,0.9,1.4,1.9,2.1,2.8
		c2.8-0.5,5.8-0.4,9,0.2c0.7,0.5,1.4,0.9,2.2,1.4c0.6-1.9,1.5-3.8,2.7-5.6C201.9,295.5,199.9,296.7,197.7,298z M224.5,219.7
		C224.5,219.7,224.5,219.7,224.5,219.7L224.5,219.7C224.6,219.7,224.5,219.7,224.5,219.7z M153.3,323.4c0,0.1,0.1,0.2,0.1,0.3
		c0.1,0,0.2-0.1,0.3-0.1C153.6,323.6,153.5,323.5,153.3,323.4z M160.3,264.6c0.6,1.9,1.1,3.6,1.6,5.1c-0.8,1.3-2,2.7-3.5,4.1h0.1
		c0.7,0.2,1.4,0.4,2.1,0.6c0.7-2.3,1.8-4.9,3.2-7.6C162.7,266.3,161.5,265.5,160.3,264.6z M195.1,244.6c0.3-1.1,0.7-2.2,1.2-3.3
		c-0.8,0.3-1.5,0.6-2.4,0.8c-1-0.4-1.9-1-2.9-1.7c0.6,1.2,1.1,2.4,1.5,3.4c-0.4,0.7-0.9,1.4-1.4,2.1c1.7-0.1,3.5,0.1,5.3,0.5
		c0.1,0.1,0.2,0.2,0.3,0.2C196.1,245.9,195.6,245.2,195.1,244.6z M197.7,298c-3.4-0.4-6.7-1.3-9.8-2.4c0.7,0.9,1.4,1.9,2.1,2.8
		c2.8-0.5,5.8-0.4,9,0.2c0.7,0.5,1.4,0.9,2.2,1.4c0.6-1.9,1.5-3.8,2.7-5.6C201.9,295.5,199.9,296.7,197.7,298z M224.5,219.7
		C224.5,219.7,224.5,219.7,224.5,219.7L224.5,219.7C224.6,219.7,224.5,219.7,224.5,219.7z M153.3,323.4c0,0.1,0.1,0.2,0.1,0.3
		c0.1,0,0.2-0.1,0.3-0.1C153.6,323.6,153.5,323.5,153.3,323.4z M160.3,264.6c0.6,1.9,1.1,3.6,1.6,5.1c-0.8,1.3-2,2.7-3.5,4.1h0.1
		c0.7,0.2,1.4,0.4,2.1,0.6c0.7-2.3,1.8-4.9,3.2-7.6C162.7,266.3,161.5,265.5,160.3,264.6z M195.1,244.6c0.3-1.1,0.7-2.2,1.2-3.3
		c-0.8,0.3-1.5,0.6-2.4,0.8c-1-0.4-1.9-1-2.9-1.7c0.6,1.2,1.1,2.4,1.5,3.4c-0.4,0.7-0.9,1.4-1.4,2.1c1.7-0.1,3.5,0.1,5.3,0.5
		c0.1,0.1,0.2,0.2,0.3,0.2C196.1,245.9,195.6,245.2,195.1,244.6z M197.7,298c-3.4-0.4-6.7-1.3-9.8-2.4c0.7,0.9,1.4,1.9,2.1,2.8
		c2.8-0.5,5.8-0.4,9,0.2c0.7,0.5,1.4,0.9,2.2,1.4c0.6-1.9,1.5-3.8,2.7-5.6C201.9,295.5,199.9,296.7,197.7,298z M224.5,219.7
		C224.5,219.7,224.5,219.7,224.5,219.7L224.5,219.7C224.6,219.7,224.5,219.7,224.5,219.7z M153.3,323.4c0,0.1,0.1,0.2,0.1,0.3
		c0.1,0,0.2-0.1,0.3-0.1C153.6,323.6,153.5,323.5,153.3,323.4z M160.3,264.6c0.6,1.9,1.1,3.6,1.6,5.1c-0.8,1.3-2,2.7-3.5,4.1h0.1
		c0.7,0.2,1.4,0.4,2.1,0.6c0.7-2.3,1.8-4.9,3.2-7.6C162.7,266.3,161.5,265.5,160.3,264.6z M195.1,244.6c0.3-1.1,0.7-2.2,1.2-3.3
		c-0.8,0.3-1.5,0.6-2.4,0.8c-1-0.4-1.9-1-2.9-1.7c0.6,1.2,1.1,2.4,1.5,3.4c-0.4,0.7-0.9,1.4-1.4,2.1c1.7-0.1,3.5,0.1,5.3,0.5
		c0.1,0.1,0.2,0.2,0.3,0.2C196.1,245.9,195.6,245.2,195.1,244.6z M197.7,298c-3.4-0.4-6.7-1.3-9.8-2.4c0.7,0.9,1.4,1.9,2.1,2.8
		c2.8-0.5,5.8-0.4,9,0.2c0.7,0.5,1.4,0.9,2.2,1.4c0.6-1.9,1.5-3.8,2.7-5.6C201.9,295.5,199.9,296.7,197.7,298z M224.5,219.7
		C224.5,219.7,224.5,219.7,224.5,219.7L224.5,219.7C224.6,219.7,224.5,219.7,224.5,219.7z M244,225.8c0.5-1.8,1-3.6,1.7-5.3
		c-1.9,1.8-3.9,3.2-5.9,4.3c2.6,1.6,5.1,3.4,7.5,5.3C246.1,228.6,245,227.2,244,225.8z M261.8,247.6c-1.3-1.2-2.6-2.5-3.9-3.9
		c0.1,0.4,0.1,0.8,0.2,1.2c-1.1,1.7-2.2,3.9-3.6,6.4C256.9,249.8,259.3,248.5,261.8,247.6z M274.8,250.9c0.9,0.8,1.8,1.6,2.7,2.4
		c0.5-1.5,1.1-2.9,1.8-4.2C277.8,249.9,276.3,250.5,274.8,250.9z M153.3,323.4c0,0.1,0.1,0.2,0.1,0.3c0.1,0,0.2-0.1,0.3-0.1
		C153.6,323.6,153.5,323.5,153.3,323.4z M160.3,264.6c0.6,1.9,1.1,3.6,1.6,5.1c-0.8,1.3-2,2.7-3.5,4.1h0.1c0.7,0.2,1.4,0.4,2.1,0.6
		c0.7-2.3,1.8-4.9,3.2-7.6C162.7,266.3,161.5,265.5,160.3,264.6z M195.1,244.6c0.3-1.1,0.7-2.2,1.2-3.3c-0.8,0.3-1.5,0.6-2.4,0.8
		c-1-0.4-1.9-1-2.9-1.7c0.6,1.2,1.1,2.4,1.5,3.4c-0.4,0.7-0.9,1.4-1.4,2.1c1.7-0.1,3.5,0.1,5.3,0.5c0.1,0.1,0.2,0.2,0.3,0.2
		C196.1,245.9,195.6,245.2,195.1,244.6z M197.7,298c-3.4-0.4-6.7-1.3-9.8-2.4c0.7,0.9,1.4,1.9,2.1,2.8c2.8-0.5,5.8-0.4,9,0.2
		c0.7,0.5,1.4,0.9,2.2,1.4c0.6-1.9,1.5-3.8,2.7-5.6C201.9,295.5,199.9,296.7,197.7,298z M224.5,219.7
		C224.5,219.7,224.5,219.7,224.5,219.7L224.5,219.7C224.6,219.7,224.5,219.7,224.5,219.7z M244,225.8c0.5-1.8,1-3.6,1.7-5.3
		c-1.9,1.8-3.9,3.2-5.9,4.3c2.6,1.6,5.1,3.4,7.5,5.3C246.1,228.6,245,227.2,244,225.8z M261.8,247.6c-1.3-1.2-2.6-2.5-3.9-3.9
		c0.1,0.4,0.1,0.8,0.2,1.2c-1.1,1.7-2.2,3.9-3.6,6.4C256.9,249.8,259.3,248.5,261.8,247.6z M153.3,323.4c0,0.1,0.1,0.2,0.1,0.3
		c0.1,0,0.2-0.1,0.3-0.1C153.6,323.6,153.5,323.5,153.3,323.4z M160.3,264.6c0.6,1.9,1.1,3.6,1.6,5.1c-0.8,1.3-2,2.7-3.5,4.1h0.1
		c0.7,0.2,1.4,0.4,2.1,0.6c0.7-2.3,1.8-4.9,3.2-7.6C162.7,266.3,161.5,265.5,160.3,264.6z M197.7,298c-3.4-0.4-6.7-1.3-9.8-2.4
		c0.7,0.9,1.4,1.9,2.1,2.8c2.8-0.5,5.8-0.4,9,0.2c0.7,0.5,1.4,0.9,2.2,1.4c0.6-1.9,1.5-3.8,2.7-5.6
		C201.9,295.5,199.9,296.7,197.7,298z M286.1,175.6c0.9,0.6,1.6,1.3,2.2,1.9c0.4-0.3,0.9-0.5,1.3-0.8
		C288.5,176.3,287.3,175.9,286.1,175.6z M269.4,202.2c0.2-0.8,0.5-1.7,0.8-2.6c-1.6,0.7-3.2,1.1-4.8,1.3
		C266.8,201.3,268.1,201.7,269.4,202.2z M265.3,201c0.1,0,0.1,0,0.2,0C265.4,200.9,265.4,200.9,265.3,201
		C265.3,200.9,265.3,200.9,265.3,201z M263.1,200.9c-1-0.4-2.1-0.9-3.3-1.6c0.2,0.6,0.4,1.2,0.6,1.7c-0.6,0.9-1.3,2.1-2.1,3.4
		c2.1-1.4,4.4-2.5,7-3.5C264.5,201,263.8,201,263.1,200.9z M227.8,165.1c0.4,0,0.8,0,1.1,0.1c2.8,2.4,4.1,4.7,4.2,6.9
		c2.9-3,6.8-4.9,11.2-5.8C237.2,165.2,231.5,164.8,227.8,165.1z M231.7,176.5c1-1.5,1.5-3,1.4-4.5c-0.9,1-1.7,2-2.5,3.2
		C231,175.7,231.3,176.1,231.7,176.5z M232.1,177c-0.1-0.2-0.3-0.3-0.4-0.5c-0.2,0.3-0.4,0.5-0.6,0.8
		C231.4,177.2,231.7,177.1,232.1,177z M208.2,197.1c0.3-1.3,0.8-2.5,1.3-3.6c-1.4,1.5-3.6,2.6-6.3,3.4c3.1,1.2,5.7,2.7,8,4.3
		C210.2,199.8,209.2,198.4,208.2,197.1z M197.7,298c-3.4-0.4-6.7-1.3-9.8-2.4c0.7,0.9,1.4,1.9,2.1,2.8c2.8-0.5,5.8-0.4,9,0.2
		c0.7,0.5,1.4,0.9,2.2,1.4c0.6-1.9,1.5-3.8,2.7-5.6C201.9,295.5,199.9,296.7,197.7,298z M153.3,323.4c0,0.1,0.1,0.2,0.1,0.3
		c0.1,0,0.2-0.1,0.3-0.1C153.6,323.6,153.5,323.5,153.3,323.4z M117.5,248.6c-1,2.5-2,5.3-3.1,8.4c1.2-1.5,2.6-3,4.1-4.4
		C117.8,251.5,117.5,250.1,117.5,248.6z M141.5,241.5C141.5,241.5,141.5,241.5,141.5,241.5c0,0.1,0,0.1,0.1,0.1
		C141.6,241.5,141.5,241.5,141.5,241.5z M149.3,211.2c0.3,0.1,0.5,0.2,0.7,0.3c0.2-0.6,0.5-1.1,0.8-1.7
		C150.4,210.3,149.9,210.7,149.3,211.2z M153.3,323.4c0,0.1,0.1,0.2,0.1,0.3c0.1,0,0.2-0.1,0.3-0.1
		C153.6,323.6,153.5,323.5,153.3,323.4z M153,221.8c-0.4,0.9-0.9,1.8-1.5,2.8c2.2-1.6,4.6-3,7.2-4.3
		C157.1,220.7,155.2,221.2,153,221.8z M153.3,323.4c0,0.1,0.1,0.2,0.1,0.3c0.1,0,0.2-0.1,0.3-0.1
		C153.6,323.6,153.5,323.5,153.3,323.4z M160.3,264.6c0.6,1.9,1.1,3.6,1.6,5.1c-0.8,1.3-2,2.7-3.5,4.1h0.1c0.7,0.2,1.4,0.4,2.1,0.6
		c0.7-2.3,1.8-4.9,3.2-7.6C162.7,266.3,161.5,265.5,160.3,264.6z M173.3,216.9c-0.9,0.9-2,1.4-3.2,1.7c2.8,1.3,5.7,3.5,8.5,6.1
		C176.9,222,175.1,219.4,173.3,216.9z M191.3,197.5c-2.3-0.3-4.5-1-6.6-1.9c0.3,1.6,0.1,3.4-0.4,5.3
		C186.4,199.8,188.8,198.6,191.3,197.5z M197.7,298c-3.4-0.4-6.7-1.3-9.8-2.4c0.7,0.9,1.4,1.9,2.1,2.8c2.8-0.5,5.8-0.4,9,0.2
		c0.7,0.5,1.4,0.9,2.2,1.4c0.6-1.9,1.5-3.8,2.7-5.6C201.9,295.5,199.9,296.7,197.7,298z M160.3,264.6c0.6,1.9,1.1,3.6,1.6,5.1
		c-0.8,1.3-2,2.7-3.5,4.1h0.1c0.7,0.2,1.4,0.4,2.1,0.6c0.7-2.3,1.8-4.9,3.2-7.6C162.7,266.3,161.5,265.5,160.3,264.6z M153.3,323.4
		c0,0.1,0.1,0.2,0.1,0.3c0.1,0,0.2-0.1,0.3-0.1C153.6,323.6,153.5,323.5,153.3,323.4z M224.5,219.7
		C224.5,219.7,224.5,219.7,224.5,219.7L224.5,219.7C224.6,219.7,224.5,219.7,224.5,219.7z M197.7,298c-3.4-0.4-6.7-1.3-9.8-2.4
		c0.7,0.9,1.4,1.9,2.1,2.8c2.8-0.5,5.8-0.4,9,0.2c0.7,0.5,1.4,0.9,2.2,1.4c0.6-1.9,1.5-3.8,2.7-5.6
		C201.9,295.5,199.9,296.7,197.7,298z M195.1,244.6c0.3-1.1,0.7-2.2,1.2-3.3c-0.8,0.3-1.5,0.6-2.4,0.8c-1-0.4-1.9-1-2.9-1.7
		c0.6,1.2,1.1,2.4,1.5,3.4c-0.4,0.7-0.9,1.4-1.4,2.1c1.7-0.1,3.5,0.1,5.3,0.5c0.1,0.1,0.2,0.2,0.3,0.2
		C196.1,245.9,195.6,245.2,195.1,244.6z M160.3,264.6c0.6,1.9,1.1,3.6,1.6,5.1c-0.8,1.3-2,2.7-3.5,4.1h0.1c0.7,0.2,1.4,0.4,2.1,0.6
		c0.7-2.3,1.8-4.9,3.2-7.6C162.7,266.3,161.5,265.5,160.3,264.6z M153.3,323.4c0,0.1,0.1,0.2,0.1,0.3c0.1,0,0.2-0.1,0.3-0.1
		C153.6,323.6,153.5,323.5,153.3,323.4z M297.6,234.9c-0.4,0.4-0.7,0.8-1.1,1.2c0.6-0.3,1.3-0.5,1.9-0.8
		C298.1,235.2,297.8,235.1,297.6,234.9z M302.3,233.9c-1.3,0.5-2.6,1-3.9,1.5c0.2,0.1,0.4,0.2,0.6,0.3c1.9,0.2,3.6-0.3,5.3-1.2
		C303.6,234.3,303,234.1,302.3,233.9z M305.6,233.6c-0.4,0.3-0.9,0.6-1.4,0.9c1.1,0.3,2.1,0.7,3.1,1.1
		C306.7,234.9,306.1,234.2,305.6,233.6z M312.2,184.9c-1-0.4-2-0.8-3-1.2c1,1.1,1.9,2.2,2.7,3.3C311.9,186.2,312,185.5,312.2,184.9z
		 M324.9,210.4c-0.6-0.7-1.1-1.3-1.6-1.8c-0.9-2.2-2.1-4.4-3.5-6.5c0.6,1.7,1.2,3.3,1.6,4.6c-1.1,1.7-2.3,4.5-3.7,7.8
		C319.9,212.9,322.3,211.5,324.9,210.4z M371.5,245c-1.1-2.5-2.2-5.1-3.3-7.7c0.2,0.9,0.3,1.8,0.4,2.7c-0.5-0.2-1.2-0.5-2-0.9
		C368.5,241,370.1,243,371.5,245z M302.3,233.9c-1.3,0.5-2.6,1-3.9,1.5c0.2,0.1,0.4,0.2,0.6,0.3c1.9,0.2,3.6-0.3,5.3-1.2
		C303.6,234.3,303,234.1,302.3,233.9z M297.6,234.9c-0.4,0.4-0.7,0.8-1.1,1.2c0.6-0.3,1.3-0.5,1.9-0.8
		C298.1,235.2,297.8,235.1,297.6,234.9z M261.8,247.6c-1.3-1.2-2.6-2.5-3.9-3.9c0.1,0.4,0.1,0.8,0.2,1.2c-1.1,1.7-2.2,3.9-3.6,6.4
		C256.9,249.8,259.3,248.5,261.8,247.6z M244,225.8c0.5-1.8,1-3.6,1.7-5.3c-1.9,1.8-3.9,3.2-5.9,4.3c2.6,1.6,5.1,3.4,7.5,5.3
		C246.1,228.6,245,227.2,244,225.8z M261.8,247.6c-1.3-1.2-2.6-2.5-3.9-3.9c0.1,0.4,0.1,0.8,0.2,1.2c-1.1,1.7-2.2,3.9-3.6,6.4
		C256.9,249.8,259.3,248.5,261.8,247.6z M244,225.8c0.5-1.8,1-3.6,1.7-5.3c-1.9,1.8-3.9,3.2-5.9,4.3c2.6,1.6,5.1,3.4,7.5,5.3
		C246.1,228.6,245,227.2,244,225.8z M224.5,219.7C224.5,219.7,224.5,219.7,224.5,219.7L224.5,219.7
		C224.6,219.7,224.5,219.7,224.5,219.7z M197.7,298c-3.4-0.4-6.7-1.3-9.8-2.4c0.7,0.9,1.4,1.9,2.1,2.8c2.8-0.5,5.8-0.4,9,0.2
		c0.7,0.5,1.4,0.9,2.2,1.4c0.6-1.9,1.5-3.8,2.7-5.6C201.9,295.5,199.9,296.7,197.7,298z M195.1,244.6c0.3-1.1,0.7-2.2,1.2-3.3
		c-0.8,0.3-1.5,0.6-2.4,0.8c-1-0.4-1.9-1-2.9-1.7c0.6,1.2,1.1,2.4,1.5,3.4c-0.4,0.7-0.9,1.4-1.4,2.1c1.7-0.1,3.5,0.1,5.3,0.5
		c0.1,0.1,0.2,0.2,0.3,0.2C196.1,245.9,195.6,245.2,195.1,244.6z M160.3,264.6c0.6,1.9,1.1,3.6,1.6,5.1c-0.8,1.3-2,2.7-3.5,4.1h0.1
		c0.7,0.2,1.4,0.4,2.1,0.6c0.7-2.3,1.8-4.9,3.2-7.6C162.7,266.3,161.5,265.5,160.3,264.6z M153.3,323.4c0,0.1,0.1,0.2,0.1,0.3
		c0.1,0,0.2-0.1,0.3-0.1C153.6,323.6,153.5,323.5,153.3,323.4z M224.5,219.7C224.5,219.7,224.5,219.7,224.5,219.7L224.5,219.7
		C224.6,219.7,224.5,219.7,224.5,219.7z M197.7,298c-3.4-0.4-6.7-1.3-9.8-2.4c0.7,0.9,1.4,1.9,2.1,2.8c2.8-0.5,5.8-0.4,9,0.2
		c0.7,0.5,1.4,0.9,2.2,1.4c0.6-1.9,1.5-3.8,2.7-5.6C201.9,295.5,199.9,296.7,197.7,298z M195.1,244.6c0.3-1.1,0.7-2.2,1.2-3.3
		c-0.8,0.3-1.5,0.6-2.4,0.8c-1-0.4-1.9-1-2.9-1.7c0.6,1.2,1.1,2.4,1.5,3.4c-0.4,0.7-0.9,1.4-1.4,2.1c1.7-0.1,3.5,0.1,5.3,0.5
		c0.1,0.1,0.2,0.2,0.3,0.2C196.1,245.9,195.6,245.2,195.1,244.6z M160.3,264.6c0.6,1.9,1.1,3.6,1.6,5.1c-0.8,1.3-2,2.7-3.5,4.1h0.1
		c0.7,0.2,1.4,0.4,2.1,0.6c0.7-2.3,1.8-4.9,3.2-7.6C162.7,266.3,161.5,265.5,160.3,264.6z M153.3,323.4c0,0.1,0.1,0.2,0.1,0.3
		c0.1,0,0.2-0.1,0.3-0.1C153.6,323.6,153.5,323.5,153.3,323.4z M348.3,246.9c-1.3,1.6-2.7,3.1-4.2,4.4c1,0.1,2,0.3,3,0.5
		c0.3,0.1,0.6,0.2,0.9,0.3C348.3,250.6,348.3,248.8,348.3,246.9z M325.5,250.4c1.6,2.7,2.8,5.3,3.6,7.7c1.2-1.3,2.5-2.6,3.9-3.6
		C330.9,253.6,328.3,252.2,325.5,250.4z M224.5,219.7C224.5,219.7,224.5,219.7,224.5,219.7L224.5,219.7
		C224.6,219.7,224.5,219.7,224.5,219.7z M197.7,298c-3.4-0.4-6.7-1.3-9.8-2.4c0.7,0.9,1.4,1.9,2.1,2.8c2.8-0.5,5.8-0.4,9,0.2
		c0.7,0.5,1.4,0.9,2.2,1.4c0.6-1.9,1.5-3.8,2.7-5.6C201.9,295.5,199.9,296.7,197.7,298z M195.1,244.6c0.3-1.1,0.7-2.2,1.2-3.3
		c-0.8,0.3-1.5,0.6-2.4,0.8c-1-0.4-1.9-1-2.9-1.7c0.6,1.2,1.1,2.4,1.5,3.4c-0.4,0.7-0.9,1.4-1.4,2.1c1.7-0.1,3.5,0.1,5.3,0.5
		c0.1,0.1,0.2,0.2,0.3,0.2C196.1,245.9,195.6,245.2,195.1,244.6z M160.3,264.6c0.6,1.9,1.1,3.6,1.6,5.1c-0.8,1.3-2,2.7-3.5,4.1h0.1
		c0.7,0.2,1.4,0.4,2.1,0.6c0.7-2.3,1.8-4.9,3.2-7.6C162.7,266.3,161.5,265.5,160.3,264.6z M153.3,323.4c0,0.1,0.1,0.2,0.1,0.3
		c0.1,0,0.2-0.1,0.3-0.1C153.6,323.6,153.5,323.5,153.3,323.4z M224.5,219.7C224.5,219.7,224.5,219.7,224.5,219.7L224.5,219.7
		C224.6,219.7,224.5,219.7,224.5,219.7z M197.7,298c-3.4-0.4-6.7-1.3-9.8-2.4c0.7,0.9,1.4,1.9,2.1,2.8c2.8-0.5,5.8-0.4,9,0.2
		c0.7,0.5,1.4,0.9,2.2,1.4c0.6-1.9,1.5-3.8,2.7-5.6C201.9,295.5,199.9,296.7,197.7,298z M195.1,244.6c0.3-1.1,0.7-2.2,1.2-3.3
		c-0.8,0.3-1.5,0.6-2.4,0.8c-1-0.4-1.9-1-2.9-1.7c0.6,1.2,1.1,2.4,1.5,3.4c-0.4,0.7-0.9,1.4-1.4,2.1c1.7-0.1,3.5,0.1,5.3,0.5
		c0.1,0.1,0.2,0.2,0.3,0.2C196.1,245.9,195.6,245.2,195.1,244.6z M160.3,264.6c0.6,1.9,1.1,3.6,1.6,5.1c-0.8,1.3-2,2.7-3.5,4.1h0.1
		c0.7,0.2,1.4,0.4,2.1,0.6c0.7-2.3,1.8-4.9,3.2-7.6C162.7,266.3,161.5,265.5,160.3,264.6z M153.3,323.4c0,0.1,0.1,0.2,0.1,0.3
		c0.1,0,0.2-0.1,0.3-0.1C153.6,323.6,153.5,323.5,153.3,323.4z M378.7,263.8c0,5.1-2.2,9.1-7.3,10.8c-0.8-0.3-1.7-0.7-2.6-1.2
		c0.6,1.9,1.1,3.8,1.5,5.5c2.5-2.1,5.1-3.7,8-4.7c2.5,2.2,4.6,4.8,6.3,7.6C383,276.3,381,270.2,378.7,263.8z M224.5,219.7
		C224.5,219.7,224.5,219.7,224.5,219.7L224.5,219.7C224.6,219.7,224.5,219.7,224.5,219.7z M197.7,298c-3.4-0.4-6.7-1.3-9.8-2.4
		c0.7,0.9,1.4,1.9,2.1,2.8c2.8-0.5,5.8-0.4,9,0.2c0.7,0.5,1.4,0.9,2.2,1.4c0.6-1.9,1.5-3.8,2.7-5.6
		C201.9,295.5,199.9,296.7,197.7,298z M195.1,244.6c0.3-1.1,0.7-2.2,1.2-3.3c-0.8,0.3-1.5,0.6-2.4,0.8c-1-0.4-1.9-1-2.9-1.7
		c0.6,1.2,1.1,2.4,1.5,3.4c-0.4,0.7-0.9,1.4-1.4,2.1c1.7-0.1,3.5,0.1,5.3,0.5c0.1,0.1,0.2,0.2,0.3,0.2
		C196.1,245.9,195.6,245.2,195.1,244.6z M160.3,264.6c0.6,1.9,1.1,3.6,1.6,5.1c-0.8,1.3-2,2.7-3.5,4.1h0.1c0.7,0.2,1.4,0.4,2.1,0.6
		c0.7-2.3,1.8-4.9,3.2-7.6C162.7,266.3,161.5,265.5,160.3,264.6z M153.3,323.4c0,0.1,0.1,0.2,0.1,0.3c0.1,0,0.2-0.1,0.3-0.1
		C153.6,323.6,153.5,323.5,153.3,323.4z M345.3,301.2c3.3,0.9,6.2,2.4,8.7,4.5c0.5-1.8,1.1-3.6,1.9-5.5
		C352.8,301,349.3,301.5,345.3,301.2z M345.2,301.1c-0.9-0.2-1.9-0.3-2.8-0.4c0.2,0.1,0.3,0.1,0.5,0.2c0.8,0.1,1.6,0.2,2.4,0.2
		C345.3,301.2,345.2,301.2,345.2,301.1z M338.1,298.2c0.4,0.8,0.6,1.6,0.8,2.4c1.2,0,2.4,0,3.6,0.1
		C341,300.1,339.5,299.3,338.1,298.2z M319.2,278.3c0.3-1.2,0.7-2.5,1.2-3.9c-1.8,2.2-3.9,4.3-6.7,6.1c4.1,1.3,8,3.1,11.5,5.1
		C323.1,283.3,321.1,280.8,319.2,278.3z M224.5,219.7C224.5,219.7,224.5,219.7,224.5,219.7L224.5,219.7
		C224.6,219.7,224.5,219.7,224.5,219.7z M197.7,298c-3.4-0.4-6.7-1.3-9.8-2.4c0.7,0.9,1.4,1.9,2.1,2.8c2.8-0.5,5.8-0.4,9,0.2
		c0.7,0.5,1.4,0.9,2.2,1.4c0.6-1.9,1.5-3.8,2.7-5.6C201.9,295.5,199.9,296.7,197.7,298z M195.1,244.6c0.3-1.1,0.7-2.2,1.2-3.3
		c-0.8,0.3-1.5,0.6-2.4,0.8c-1-0.4-1.9-1-2.9-1.7c0.6,1.2,1.1,2.4,1.5,3.4c-0.4,0.7-0.9,1.4-1.4,2.1c1.7-0.1,3.5,0.1,5.3,0.5
		c0.1,0.1,0.2,0.2,0.3,0.2C196.1,245.9,195.6,245.2,195.1,244.6z M160.3,264.6c0.6,1.9,1.1,3.6,1.6,5.1c-0.8,1.3-2,2.7-3.5,4.1h0.1
		c0.7,0.2,1.4,0.4,2.1,0.6c0.7-2.3,1.8-4.9,3.2-7.6C162.7,266.3,161.5,265.5,160.3,264.6z M153.3,323.4c0,0.1,0.1,0.2,0.1,0.3
		c0.1,0,0.2-0.1,0.3-0.1C153.6,323.6,153.5,323.5,153.3,323.4z M295.8,276c-1.1,2-2.1,4.4-3.4,6.9c2.4-1.3,5-2.3,7.7-3
		C298.7,278.8,297.3,277.4,295.8,276z M224.5,219.7C224.5,219.7,224.5,219.7,224.5,219.7L224.5,219.7
		C224.6,219.7,224.5,219.7,224.5,219.7z M197.7,298c-3.4-0.4-6.7-1.3-9.8-2.4c0.7,0.9,1.4,1.9,2.1,2.8c2.8-0.5,5.8-0.4,9,0.2
		c0.7,0.5,1.4,0.9,2.2,1.4c0.6-1.9,1.5-3.8,2.7-5.6C201.9,295.5,199.9,296.7,197.7,298z M195.1,244.6c0.3-1.1,0.7-2.2,1.2-3.3
		c-0.8,0.3-1.5,0.6-2.4,0.8c-1-0.4-1.9-1-2.9-1.7c0.6,1.2,1.1,2.4,1.5,3.4c-0.4,0.7-0.9,1.4-1.4,2.1c1.7-0.1,3.5,0.1,5.3,0.5
		c0.1,0.1,0.2,0.2,0.3,0.2C196.1,245.9,195.6,245.2,195.1,244.6z M160.3,264.6c0.6,1.9,1.1,3.6,1.6,5.1c-0.8,1.3-2,2.7-3.5,4.1h0.1
		c0.7,0.2,1.4,0.4,2.1,0.6c0.7-2.3,1.8-4.9,3.2-7.6C162.7,266.3,161.5,265.5,160.3,264.6z M153.3,323.4c0,0.1,0.1,0.2,0.1,0.3
		c0.1,0,0.2-0.1,0.3-0.1C153.6,323.6,153.5,323.5,153.3,323.4z M224.5,219.7C224.5,219.7,224.5,219.7,224.5,219.7L224.5,219.7
		C224.6,219.7,224.5,219.7,224.5,219.7z M197.7,298c-3.4-0.4-6.7-1.3-9.8-2.4c0.7,0.9,1.4,1.9,2.1,2.8c2.8-0.5,5.8-0.4,9,0.2
		c0.7,0.5,1.4,0.9,2.2,1.4c0.6-1.9,1.5-3.8,2.7-5.6C201.9,295.5,199.9,296.7,197.7,298z M195.1,244.6c0.3-1.1,0.7-2.2,1.2-3.3
		c-0.8,0.3-1.5,0.6-2.4,0.8c-1-0.4-1.9-1-2.9-1.7c0.6,1.2,1.1,2.4,1.5,3.4c-0.4,0.7-0.9,1.4-1.4,2.1c1.7-0.1,3.5,0.1,5.3,0.5
		c0.1,0.1,0.2,0.2,0.3,0.2C196.1,245.9,195.6,245.2,195.1,244.6z M160.3,264.6c0.6,1.9,1.1,3.6,1.6,5.1c-0.8,1.3-2,2.7-3.5,4.1h0.1
		c0.7,0.2,1.4,0.4,2.1,0.6c0.7-2.3,1.8-4.9,3.2-7.6C162.7,266.3,161.5,265.5,160.3,264.6z M153.3,323.4c0,0.1,0.1,0.2,0.1,0.3
		c0.1,0,0.2-0.1,0.3-0.1C153.6,323.6,153.5,323.5,153.3,323.4z M236.6,272.2c0.2-0.8,0.5-1.6,0.8-2.5c-1.5,0.8-3.2,1.5-5,2.1
		c-2.4-0.3-4.8-0.9-7.1-1.8c0.8,1,1.6,2,2.3,3c-0.4,0.6-0.8,1.2-1.2,1.8c1.8-1,3.6-1.8,5.4-2.6c2.8,1.6,6,3.3,9.3,5.2
		C239.4,275.7,237.9,273.9,236.6,272.2z M224.5,219.7C224.5,219.7,224.5,219.7,224.5,219.7L224.5,219.7
		C224.6,219.7,224.5,219.7,224.5,219.7z M197.7,298c-3.4-0.4-6.7-1.3-9.8-2.4c0.7,0.9,1.4,1.9,2.1,2.8c2.8-0.5,5.8-0.4,9,0.2
		c0.7,0.5,1.4,0.9,2.2,1.4c0.6-1.9,1.5-3.8,2.7-5.6C201.9,295.5,199.9,296.7,197.7,298z M195.1,244.6c0.3-1.1,0.7-2.2,1.2-3.3
		c-0.8,0.3-1.5,0.6-2.4,0.8c-1-0.4-1.9-1-2.9-1.7c0.6,1.2,1.1,2.4,1.5,3.4c-0.4,0.7-0.9,1.4-1.4,2.1c1.7-0.1,3.5,0.1,5.3,0.5
		c0.1,0.1,0.2,0.2,0.3,0.2C196.1,245.9,195.6,245.2,195.1,244.6z M160.3,264.6c0.6,1.9,1.1,3.6,1.6,5.1c-0.8,1.3-2,2.7-3.5,4.1h0.1
		c0.7,0.2,1.4,0.4,2.1,0.6c0.7-2.3,1.8-4.9,3.2-7.6C162.7,266.3,161.5,265.5,160.3,264.6z M153.3,323.4c0,0.1,0.1,0.2,0.1,0.3
		c0.1,0,0.2-0.1,0.3-0.1C153.6,323.6,153.5,323.5,153.3,323.4z M236.6,272.2c0.2-0.8,0.5-1.6,0.8-2.5c-1.5,0.8-3.2,1.5-5,2.1
		c-2.4-0.3-4.8-0.9-7.1-1.8c0.8,1,1.6,2,2.3,3c-0.4,0.6-0.8,1.2-1.2,1.8c1.8-1,3.6-1.8,5.4-2.6c2.8,1.6,6,3.3,9.3,5.2
		C239.4,275.7,237.9,273.9,236.6,272.2z M224.5,219.7C224.5,219.7,224.5,219.7,224.5,219.7L224.5,219.7
		C224.6,219.7,224.5,219.7,224.5,219.7z M197.7,298c-3.4-0.4-6.7-1.3-9.8-2.4c0.7,0.9,1.4,1.9,2.1,2.8c2.8-0.5,5.8-0.4,9,0.2
		c0.7,0.5,1.4,0.9,2.2,1.4c0.6-1.9,1.5-3.8,2.7-5.6C201.9,295.5,199.9,296.7,197.7,298z M195.1,244.6c0.3-1.1,0.7-2.2,1.2-3.3
		c-0.8,0.3-1.5,0.6-2.4,0.8c-1-0.4-1.9-1-2.9-1.7c0.6,1.2,1.1,2.4,1.5,3.4c-0.4,0.7-0.9,1.4-1.4,2.1c1.7-0.1,3.5,0.1,5.3,0.5
		c0.1,0.1,0.2,0.2,0.3,0.2C196.1,245.9,195.6,245.2,195.1,244.6z M160.3,264.6c0.6,1.9,1.1,3.6,1.6,5.1c-0.8,1.3-2,2.7-3.5,4.1h0.1
		c0.7,0.2,1.4,0.4,2.1,0.6c0.7-2.3,1.8-4.9,3.2-7.6C162.7,266.3,161.5,265.5,160.3,264.6z M153.3,323.4c0,0.1,0.1,0.2,0.1,0.3
		c0.1,0,0.2-0.1,0.3-0.1C153.6,323.6,153.5,323.5,153.3,323.4z M384.6,330.4c-0.2,0-0.4,0.1-0.6,0.1c0.3,0.5,0.5,1.1,0.7,1.6
		c0.3-1.2,0.6-2.4,0.9-3.6C385.3,329.3,385,329.8,384.6,330.4z M373.6,368.3c0.1,0.4,0.2,0.7,0.3,1.1c0.1-0.5,0.3-1,0.5-1.4
		C374.1,368.1,373.8,368.2,373.6,368.3z M366.1,325.3c0.6,2.5,0.8,4.9,0.6,6.9c1.1-1.3,2.3-2.4,3.7-3.3
		C368.9,328,367.4,326.7,366.1,325.3z M347.3,354c-1.3-0.2-2.5-0.4-3.7-0.7c0.2,1.3,0,2.5-0.7,3.6c-1.1,1.7-1.9,3.9-2.8,6.3
		c5.4-5.3,11.7-9.7,17.4-11.7c0.5,0.2,1,0.3,1.6,0.5c0.6-2.2,1.1-4.3,1.6-6.2C358.7,348.7,355.1,351.4,347.3,354z M236.6,272.2
		c0.2-0.8,0.5-1.6,0.8-2.5c-1.5,0.8-3.2,1.5-5,2.1c-2.4-0.3-4.8-0.9-7.1-1.8c0.8,1,1.6,2,2.3,3c-0.4,0.6-0.8,1.2-1.2,1.8
		c1.8-1,3.6-1.8,5.4-2.6c2.8,1.6,6,3.3,9.3,5.2C239.4,275.7,237.9,273.9,236.6,272.2z M224.5,219.7
		C224.5,219.7,224.5,219.7,224.5,219.7L224.5,219.7C224.6,219.7,224.5,219.7,224.5,219.7z M197.7,298c-3.4-0.4-6.7-1.3-9.8-2.4
		c0.7,0.9,1.4,1.9,2.1,2.8c2.8-0.5,5.8-0.4,9,0.2c0.7,0.5,1.4,0.9,2.2,1.4c0.6-1.9,1.5-3.8,2.7-5.6
		C201.9,295.5,199.9,296.7,197.7,298z M195.1,244.6c0.3-1.1,0.7-2.2,1.2-3.3c-0.8,0.3-1.5,0.6-2.4,0.8c-1-0.4-1.9-1-2.9-1.7
		c0.6,1.2,1.1,2.4,1.5,3.4c-0.4,0.7-0.9,1.4-1.4,2.1c1.7-0.1,3.5,0.1,5.3,0.5c0.1,0.1,0.2,0.2,0.3,0.2
		C196.1,245.9,195.6,245.2,195.1,244.6z M160.3,264.6c0.6,1.9,1.1,3.6,1.6,5.1c-0.8,1.3-2,2.7-3.5,4.1h0.1c0.7,0.2,1.4,0.4,2.1,0.6
		c0.7-2.3,1.8-4.9,3.2-7.6C162.7,266.3,161.5,265.5,160.3,264.6z M153.3,323.4c0,0.1,0.1,0.2,0.1,0.3c0.1,0,0.2-0.1,0.3-0.1
		C153.6,323.6,153.5,323.5,153.3,323.4z M236.6,272.2c0.2-0.8,0.5-1.6,0.8-2.5c-1.5,0.8-3.2,1.5-5,2.1c-2.4-0.3-4.8-0.9-7.1-1.8
		c0.8,1,1.6,2,2.3,3c-0.4,0.6-0.8,1.2-1.2,1.8c1.8-1,3.6-1.8,5.4-2.6c2.8,1.6,6,3.3,9.3,5.2C239.4,275.7,237.9,273.9,236.6,272.2z
		 M224.5,219.7C224.5,219.7,224.5,219.7,224.5,219.7L224.5,219.7C224.6,219.7,224.5,219.7,224.5,219.7z M197.7,298
		c-3.4-0.4-6.7-1.3-9.8-2.4c0.7,0.9,1.4,1.9,2.1,2.8c2.8-0.5,5.8-0.4,9,0.2c0.7,0.5,1.4,0.9,2.2,1.4c0.6-1.9,1.5-3.8,2.7-5.6
		C201.9,295.5,199.9,296.7,197.7,298z M195.1,244.6c0.3-1.1,0.7-2.2,1.2-3.3c-0.8,0.3-1.5,0.6-2.4,0.8c-1-0.4-1.9-1-2.9-1.7
		c0.6,1.2,1.1,2.4,1.5,3.4c-0.4,0.7-0.9,1.4-1.4,2.1c1.7-0.1,3.5,0.1,5.3,0.5c0.1,0.1,0.2,0.2,0.3,0.2
		C196.1,245.9,195.6,245.2,195.1,244.6z M160.3,264.6c0.6,1.9,1.1,3.6,1.6,5.1c-0.8,1.3-2,2.7-3.5,4.1h0.1c0.7,0.2,1.4,0.4,2.1,0.6
		c0.7-2.3,1.8-4.9,3.2-7.6C162.7,266.3,161.5,265.5,160.3,264.6z M153.3,323.4c0,0.1,0.1,0.2,0.1,0.3c0.1,0,0.2-0.1,0.3-0.1
		C153.6,323.6,153.5,323.5,153.3,323.4z M327.1,382.7c0.2-0.7,0.4-1.3,0.6-2c-1.1,0.7-2.4,1.3-3.8,1.8c2.1,1,4,2.3,5.8,3.8
		C328.8,385.1,328,383.9,327.1,382.7z M310.4,385.3c2.2-1.3,4.3-2.4,6.4-3.3c-2.2-0.6-4.4-1.4-6.5-2.3c1.1,2,1.4,3.6,0.7,4.8
		C310.8,384.7,310.6,385,310.4,385.3z M273.5,353.4c0.8,0,1.5,0,2.3,0c1.3,0.5,2.8,1.2,4.5,2c0.7-2.1,1.8-4.4,3.1-6.7
		C280.3,350.5,277,352.1,273.5,353.4z M236.6,272.2c0.2-0.8,0.5-1.6,0.8-2.5c-1.5,0.8-3.2,1.5-5,2.1c-2.4-0.3-4.8-0.9-7.1-1.8
		c0.8,1,1.6,2,2.3,3c-0.4,0.6-0.8,1.2-1.2,1.8c1.8-1,3.6-1.8,5.4-2.6c2.8,1.6,6,3.3,9.3,5.2C239.4,275.7,237.9,273.9,236.6,272.2z
		 M224.5,219.7C224.5,219.7,224.5,219.7,224.5,219.7L224.5,219.7C224.6,219.7,224.5,219.7,224.5,219.7z M197.7,298
		c-3.4-0.4-6.7-1.3-9.8-2.4c0.7,0.9,1.4,1.9,2.1,2.8c2.8-0.5,5.8-0.4,9,0.2c0.7,0.5,1.4,0.9,2.2,1.4c0.6-1.9,1.5-3.8,2.7-5.6
		C201.9,295.5,199.9,296.7,197.7,298z M195.1,244.6c0.3-1.1,0.7-2.2,1.2-3.3c-0.8,0.3-1.5,0.6-2.4,0.8c-1-0.4-1.9-1-2.9-1.7
		c0.6,1.2,1.1,2.4,1.5,3.4c-0.4,0.7-0.9,1.4-1.4,2.1c1.7-0.1,3.5,0.1,5.3,0.5c0.1,0.1,0.2,0.2,0.3,0.2
		C196.1,245.9,195.6,245.2,195.1,244.6z M160.3,264.6c0.6,1.9,1.1,3.6,1.6,5.1c-0.8,1.3-2,2.7-3.5,4.1h0.1c0.7,0.2,1.4,0.4,2.1,0.6
		c0.7-2.3,1.8-4.9,3.2-7.6C162.7,266.3,161.5,265.5,160.3,264.6z M153.3,323.4c0,0.1,0.1,0.2,0.1,0.3c0.1,0,0.2-0.1,0.3-0.1
		C153.6,323.6,153.5,323.5,153.3,323.4z M271.2,353.7c0.3,0.1,0.7,0.1,1,0.2c0.4-0.2,0.9-0.3,1.3-0.5
		C272.8,353.4,272,353.5,271.2,353.7z M267.5,352.8c-0.1,0.2-0.2,0.4-0.3,0.6c-0.5,0.7-0.9,1.6-1.5,2.5c1.8-1,3.6-1.8,5.5-2.2
		C269.9,353.5,268.6,353.2,267.5,352.8z M244.1,324.1c0.4,0.2,0.8,0.5,1.3,0.8c0.2-0.6,0.4-1.1,0.7-1.7
		C245.4,323.5,244.8,323.8,244.1,324.1z M236.6,272.2c0.2-0.8,0.5-1.6,0.8-2.5c-1.5,0.8-3.2,1.5-5,2.1c-2.4-0.3-4.8-0.9-7.1-1.8
		c0.8,1,1.6,2,2.3,3c-0.4,0.6-0.8,1.2-1.2,1.8c1.8-1,3.6-1.8,5.4-2.6c2.8,1.6,6,3.3,9.3,5.2C239.4,275.7,237.9,273.9,236.6,272.2z
		 M224.5,219.7C224.5,219.7,224.5,219.7,224.5,219.7L224.5,219.7C224.6,219.7,224.5,219.7,224.5,219.7z M197.7,298
		c-3.4-0.4-6.7-1.3-9.8-2.4c0.7,0.9,1.4,1.9,2.1,2.8c2.8-0.5,5.8-0.4,9,0.2c0.7,0.5,1.4,0.9,2.2,1.4c0.6-1.9,1.5-3.8,2.7-5.6
		C201.9,295.5,199.9,296.7,197.7,298z M195.1,244.6c0.3-1.1,0.7-2.2,1.2-3.3c-0.8,0.3-1.5,0.6-2.4,0.8c-1-0.4-1.9-1-2.9-1.7
		c0.6,1.2,1.1,2.4,1.5,3.4c-0.4,0.7-0.9,1.4-1.4,2.1c1.7-0.1,3.5,0.1,5.3,0.5c0.1,0.1,0.2,0.2,0.3,0.2
		C196.1,245.9,195.6,245.2,195.1,244.6z M160.3,264.6c0.6,1.9,1.1,3.6,1.6,5.1c-0.8,1.3-2,2.7-3.5,4.1h0.1c0.7,0.2,1.4,0.4,2.1,0.6
		c0.7-2.3,1.8-4.9,3.2-7.6C162.7,266.3,161.5,265.5,160.3,264.6z M153.3,323.4c0,0.1,0.1,0.2,0.1,0.3c0.1,0,0.2-0.1,0.3-0.1
		C153.6,323.6,153.5,323.5,153.3,323.4z M236.6,272.2c0.2-0.8,0.5-1.6,0.8-2.5c-1.5,0.8-3.2,1.5-5,2.1c-2.4-0.3-4.8-0.9-7.1-1.8
		c0.8,1,1.6,2,2.3,3c-0.4,0.6-0.8,1.2-1.2,1.8c1.8-1,3.6-1.8,5.4-2.6c2.8,1.6,6,3.3,9.3,5.2C239.4,275.7,237.9,273.9,236.6,272.2z
		 M231.8,323.8c-2.8-0.9-5.5-2.1-8.1-3.5c1,1.7,1.6,3.3,1.7,4.8c-0.4,0.6-0.7,1.2-1.1,1.8C226.5,325.7,229,324.6,231.8,323.8z
		 M224.5,219.7C224.5,219.7,224.5,219.7,224.5,219.7L224.5,219.7C224.6,219.7,224.5,219.7,224.5,219.7z M197.7,298
		c-3.4-0.4-6.7-1.3-9.8-2.4c0.7,0.9,1.4,1.9,2.1,2.8c2.8-0.5,5.8-0.4,9,0.2c0.7,0.5,1.4,0.9,2.2,1.4c0.6-1.9,1.5-3.8,2.7-5.6
		C201.9,295.5,199.9,296.7,197.7,298z M195.1,244.6c0.3-1.1,0.7-2.2,1.2-3.3c-0.8,0.3-1.5,0.6-2.4,0.8c-1-0.4-1.9-1-2.9-1.7
		c0.6,1.2,1.1,2.4,1.5,3.4c-0.4,0.7-0.9,1.4-1.4,2.1c1.7-0.1,3.5,0.1,5.3,0.5c0.1,0.1,0.2,0.2,0.3,0.2
		C196.1,245.9,195.6,245.2,195.1,244.6z M160.3,264.6c0.6,1.9,1.1,3.6,1.6,5.1c-0.8,1.3-2,2.7-3.5,4.1h0.1c0.7,0.2,1.4,0.4,2.1,0.6
		c0.7-2.3,1.8-4.9,3.2-7.6C162.7,266.3,161.5,265.5,160.3,264.6z M153.3,323.4c0,0.1,0.1,0.2,0.1,0.3c0.1,0,0.2-0.1,0.3-0.1
		C153.6,323.6,153.5,323.5,153.3,323.4z M224.5,219.7C224.5,219.7,224.5,219.7,224.5,219.7L224.5,219.7
		C224.6,219.7,224.5,219.7,224.5,219.7z M195.1,244.6c0.3-1.1,0.7-2.2,1.2-3.3c-0.8,0.3-1.5,0.6-2.4,0.8c-1-0.4-1.9-1-2.9-1.7
		c0.6,1.2,1.1,2.4,1.5,3.4c-0.4,0.7-0.9,1.4-1.4,2.1c1.7-0.1,3.5,0.1,5.3,0.5c0.1,0.1,0.2,0.2,0.3,0.2
		C196.1,245.9,195.6,245.2,195.1,244.6z M160.3,264.6c0.6,1.9,1.1,3.6,1.6,5.1c-0.8,1.3-2,2.7-3.5,4.1h0.1c0.7,0.2,1.4,0.4,2.1,0.6
		c0.7-2.3,1.8-4.9,3.2-7.6C162.7,266.3,161.5,265.5,160.3,264.6z M153.3,323.4c0,0.1,0.1,0.2,0.1,0.3c0.1,0,0.2-0.1,0.3-0.1
		C153.6,323.6,153.5,323.5,153.3,323.4z M224.5,219.7C224.5,219.7,224.5,219.7,224.5,219.7L224.5,219.7
		C224.6,219.7,224.5,219.7,224.5,219.7z M195.1,244.6c0.3-1.1,0.7-2.2,1.2-3.3c-0.8,0.3-1.5,0.6-2.4,0.8c-1-0.4-1.9-1-2.9-1.7
		c0.6,1.2,1.1,2.4,1.5,3.4c-0.4,0.7-0.9,1.4-1.4,2.1c1.7-0.1,3.5,0.1,5.3,0.5c0.1,0.1,0.2,0.2,0.3,0.2
		C196.1,245.9,195.6,245.2,195.1,244.6z M160.3,264.6c0.6,1.9,1.1,3.6,1.6,5.1c-0.8,1.3-2,2.7-3.5,4.1h0.1c0.7,0.2,1.4,0.4,2.1,0.6
		c0.7-2.3,1.8-4.9,3.2-7.6C162.7,266.3,161.5,265.5,160.3,264.6z M153.3,323.4c0,0.1,0.1,0.2,0.1,0.3c0.1,0,0.2-0.1,0.3-0.1
		C153.6,323.6,153.5,323.5,153.3,323.4z M224.5,219.7C224.5,219.7,224.5,219.7,224.5,219.7L224.5,219.7
		C224.6,219.7,224.5,219.7,224.5,219.7z M195.1,244.6c0.3-1.1,0.7-2.2,1.2-3.3c-0.8,0.3-1.5,0.6-2.4,0.8c-1-0.4-1.9-1-2.9-1.7
		c0.6,1.2,1.1,2.4,1.5,3.4c-0.4,0.7-0.9,1.4-1.4,2.1c1.7-0.1,3.5,0.1,5.3,0.5c0.1,0.1,0.2,0.2,0.3,0.2
		C196.1,245.9,195.6,245.2,195.1,244.6z M160.3,264.6c0.6,1.9,1.1,3.6,1.6,5.1c-0.8,1.3-2,2.7-3.5,4.1h0.1c0.7,0.2,1.4,0.4,2.1,0.6
		c0.7-2.3,1.8-4.9,3.2-7.6C162.7,266.3,161.5,265.5,160.3,264.6z M153.3,323.4c0,0.1,0.1,0.2,0.1,0.3c0.1,0,0.2-0.1,0.3-0.1
		C153.6,323.6,153.5,323.5,153.3,323.4z M205.9,349.4c-1,0.5-2.2,0.9-3.3,1.3c-1.9-0.3-3.8-0.7-5.7-1.3c0.3,0.6,0.6,1.2,0.8,1.8
		c2.3-0.4,4.6-0.4,7.1-0.1c0,0-0.1-0.1-0.1-0.1C205.1,350.5,205.5,350,205.9,349.4z M165.3,323c0,0,0,0.1,0,0.2c0.1,0,0.1,0,0.2-0.1
		C165.4,323,165.4,323,165.3,323z M153.3,323.4c0,0.1,0.1,0.2,0.1,0.3c0.1,0,0.2-0.1,0.3-0.1C153.6,323.6,153.5,323.5,153.3,323.4z
		 M205.9,349.4c-1,0.5-2.2,0.9-3.3,1.3c-1.9-0.3-3.8-0.7-5.7-1.3c0.3,0.6,0.6,1.2,0.8,1.8c2.3-0.4,4.6-0.4,7.1-0.1
		c0,0-0.1-0.1-0.1-0.1C205.1,350.5,205.5,350,205.9,349.4z M165.3,323c0,0,0,0.1,0,0.2c0.1,0,0.1,0,0.2-0.1
		C165.4,323,165.4,323,165.3,323z M205.9,349.4c-1,0.5-2.2,0.9-3.3,1.3c-1.9-0.3-3.8-0.7-5.7-1.3c0.3,0.6,0.6,1.2,0.8,1.8
		c2.3-0.4,4.6-0.4,7.1-0.1c0,0-0.1-0.1-0.1-0.1C205.1,350.5,205.5,350,205.9,349.4z M165.3,323c0,0,0,0.1,0,0.2c0.1,0,0.1,0,0.2-0.1
		C165.4,323,165.4,323,165.3,323z M205.9,349.4c-1,0.5-2.2,0.9-3.3,1.3c-1.9-0.3-3.8-0.7-5.7-1.3c0.3,0.6,0.6,1.2,0.8,1.8
		c2.3-0.4,4.6-0.4,7.1-0.1c0,0-0.1-0.1-0.1-0.1C205.1,350.5,205.5,350,205.9,349.4z M165.3,323c0,0,0,0.1,0,0.2c0.1,0,0.1,0,0.2-0.1
		C165.4,323,165.4,323,165.3,323z M205.9,349.4c-1,0.5-2.2,0.9-3.3,1.3c-1.9-0.3-3.8-0.7-5.7-1.3c0.3,0.6,0.6,1.2,0.8,1.8
		c2.3-0.4,4.6-0.4,7.1-0.1c0,0-0.1-0.1-0.1-0.1C205.1,350.5,205.5,350,205.9,349.4z M165.3,323c0,0,0,0.1,0,0.2c0.1,0,0.1,0,0.2-0.1
		C165.4,323,165.4,323,165.3,323z M205.9,349.4c-1,0.5-2.2,0.9-3.3,1.3c-1.9-0.3-3.8-0.7-5.7-1.3c0.3,0.6,0.6,1.2,0.8,1.8
		c2.3-0.4,4.6-0.4,7.1-0.1c0,0-0.1-0.1-0.1-0.1C205.1,350.5,205.5,350,205.9,349.4z M165.3,323c0,0,0,0.1,0,0.2c0.1,0,0.1,0,0.2-0.1
		C165.4,323,165.4,323,165.3,323z M205.9,349.4c-1,0.5-2.2,0.9-3.3,1.3c-1.9-0.3-3.8-0.7-5.7-1.3c0.3,0.6,0.6,1.2,0.8,1.8
		c2.3-0.4,4.6-0.4,7.1-0.1c0,0-0.1-0.1-0.1-0.1C205.1,350.5,205.5,350,205.9,349.4z M165.3,323c0,0,0,0.1,0,0.2c0.1,0,0.1,0,0.2-0.1
		C165.4,323,165.4,323,165.3,323z M205.9,349.4c-1,0.5-2.2,0.9-3.3,1.3c-1.9-0.3-3.8-0.7-5.7-1.3c0.3,0.6,0.6,1.2,0.8,1.8
		c2.3-0.4,4.6-0.4,7.1-0.1c0,0-0.1-0.1-0.1-0.1C205.1,350.5,205.5,350,205.9,349.4z M165.3,323c0,0,0,0.1,0,0.2c0.1,0,0.1,0,0.2-0.1
		C165.4,323,165.4,323,165.3,323z M205.9,349.4c-1,0.5-2.2,0.9-3.3,1.3c-1.9-0.3-3.8-0.7-5.7-1.3c0.3,0.6,0.6,1.2,0.8,1.8
		c2.3-0.4,4.6-0.4,7.1-0.1c0,0-0.1-0.1-0.1-0.1C205.1,350.5,205.5,350,205.9,349.4z M165.3,323c0,0,0,0.1,0,0.2c0.1,0,0.1,0,0.2-0.1
		C165.4,323,165.4,323,165.3,323z M205.9,349.4c-1,0.5-2.2,0.9-3.3,1.3c-1.9-0.3-3.8-0.7-5.7-1.3c0.3,0.6,0.6,1.2,0.8,1.8
		c2.3-0.4,4.6-0.4,7.1-0.1c0,0-0.1-0.1-0.1-0.1C205.1,350.5,205.5,350,205.9,349.4z M165.3,323c0,0,0,0.1,0,0.2c0.1,0,0.1,0,0.2-0.1
		C165.4,323,165.4,323,165.3,323z M205.9,349.4c-1,0.5-2.2,0.9-3.3,1.3c-1.9-0.3-3.8-0.7-5.7-1.3c0.3,0.6,0.6,1.2,0.8,1.8
		c2.3-0.4,4.6-0.4,7.1-0.1c0,0-0.1-0.1-0.1-0.1C205.1,350.5,205.5,350,205.9,349.4z M165.3,323c0,0,0,0.1,0,0.2c0.1,0,0.1,0,0.2-0.1
		C165.4,323,165.4,323,165.3,323z M205.9,349.4c-1,0.5-2.2,0.9-3.3,1.3c-1.9-0.3-3.8-0.7-5.7-1.3c0.3,0.6,0.6,1.2,0.8,1.8
		c2.3-0.4,4.6-0.4,7.1-0.1c0,0-0.1-0.1-0.1-0.1C205.1,350.5,205.5,350,205.9,349.4z M165.3,323c0,0,0,0.1,0,0.2c0.1,0,0.1,0,0.2-0.1
		C165.4,323,165.4,323,165.3,323z M205.9,349.4c-1,0.5-2.2,0.9-3.3,1.3c-1.9-0.3-3.8-0.7-5.7-1.3c0.3,0.6,0.6,1.2,0.8,1.8
		c2.3-0.4,4.6-0.4,7.1-0.1c0,0-0.1-0.1-0.1-0.1C205.1,350.5,205.5,350,205.9,349.4z M165.3,323c0,0,0,0.1,0,0.2c0.1,0,0.1,0,0.2-0.1
		C165.4,323,165.4,323,165.3,323z M205.9,349.4c-1,0.5-2.2,0.9-3.3,1.3c-1.9-0.3-3.8-0.7-5.7-1.3c0.3,0.6,0.6,1.2,0.8,1.8
		c2.3-0.4,4.6-0.4,7.1-0.1c0,0-0.1-0.1-0.1-0.1C205.1,350.5,205.5,350,205.9,349.4z M165.3,323c0,0,0,0.1,0,0.2c0.1,0,0.1,0,0.2-0.1
		C165.4,323,165.4,323,165.3,323z M205.9,349.4c-1,0.5-2.2,0.9-3.3,1.3c-1.9-0.3-3.8-0.7-5.7-1.3c0.3,0.6,0.6,1.2,0.8,1.8
		c2.3-0.4,4.6-0.4,7.1-0.1c0,0-0.1-0.1-0.1-0.1C205.1,350.5,205.5,350,205.9,349.4z M165.3,323c0,0,0,0.1,0,0.2c0.1,0,0.1,0,0.2-0.1
		C165.4,323,165.4,323,165.3,323z M205.9,349.4c-1,0.5-2.2,0.9-3.3,1.3c-1.9-0.3-3.8-0.7-5.7-1.3c0.3,0.6,0.6,1.2,0.8,1.8
		c2.3-0.4,4.6-0.4,7.1-0.1c0,0-0.1-0.1-0.1-0.1C205.1,350.5,205.5,350,205.9,349.4z M165.3,323c0,0,0,0.1,0,0.2c0.1,0,0.1,0,0.2-0.1
		C165.4,323,165.4,323,165.3,323z M205.9,349.4c-1,0.5-2.2,0.9-3.3,1.3c-1.9-0.3-3.8-0.7-5.7-1.3c0.3,0.6,0.6,1.2,0.8,1.8
		c2.3-0.4,4.6-0.4,7.1-0.1c0,0-0.1-0.1-0.1-0.1C205.1,350.5,205.5,350,205.9,349.4z M165.3,323c0,0,0,0.1,0,0.2c0.1,0,0.1,0,0.2-0.1
		C165.4,323,165.4,323,165.3,323z M205.9,349.4c-1,0.5-2.2,0.9-3.3,1.3c-1.9-0.3-3.8-0.7-5.7-1.3c0.3,0.6,0.6,1.2,0.8,1.8
		c2.3-0.4,4.6-0.4,7.1-0.1c0,0-0.1-0.1-0.1-0.1C205.1,350.5,205.5,350,205.9,349.4z M165.3,323c0,0,0,0.1,0,0.2c0.1,0,0.1,0,0.2-0.1
		C165.4,323,165.4,323,165.3,323z M205.9,349.4c-1,0.5-2.2,0.9-3.3,1.3c-1.9-0.3-3.8-0.7-5.7-1.3c0.3,0.6,0.6,1.2,0.8,1.8
		c2.3-0.4,4.6-0.4,7.1-0.1c0,0-0.1-0.1-0.1-0.1C205.1,350.5,205.5,350,205.9,349.4z M165.3,323c0,0,0,0.1,0,0.2c0.1,0,0.1,0,0.2-0.1
		C165.4,323,165.4,323,165.3,323z M205.9,349.4c-1,0.5-2.2,0.9-3.3,1.3c-1.9-0.3-3.8-0.7-5.7-1.3c0.3,0.6,0.6,1.2,0.8,1.8
		c2.3-0.4,4.6-0.4,7.1-0.1c0,0-0.1-0.1-0.1-0.1C205.1,350.5,205.5,350,205.9,349.4z M165.3,323c0,0,0,0.1,0,0.2c0.1,0,0.1,0,0.2-0.1
		C165.4,323,165.4,323,165.3,323z M205.9,349.4c-1,0.5-2.2,0.9-3.3,1.3c-1.9-0.3-3.8-0.7-5.7-1.3c0.3,0.6,0.6,1.2,0.8,1.8
		c2.3-0.4,4.6-0.4,7.1-0.1c0,0-0.1-0.1-0.1-0.1C205.1,350.5,205.5,350,205.9,349.4z M165.3,323c0,0,0,0.1,0,0.2c0.1,0,0.1,0,0.2-0.1
		C165.4,323,165.4,323,165.3,323z M205.9,349.4c-1,0.5-2.2,0.9-3.3,1.3c-1.9-0.3-3.8-0.7-5.7-1.3c0.3,0.6,0.6,1.2,0.8,1.8
		c2.3-0.4,4.6-0.4,7.1-0.1c0,0-0.1-0.1-0.1-0.1C205.1,350.5,205.5,350,205.9,349.4z M165.3,323c0,0,0,0.1,0,0.2c0.1,0,0.1,0,0.2-0.1
		C165.4,323,165.4,323,165.3,323z M205.9,349.4c-1,0.5-2.2,0.9-3.3,1.3c-1.9-0.3-3.8-0.7-5.7-1.3c0.3,0.6,0.6,1.2,0.8,1.8
		c2.3-0.4,4.6-0.4,7.1-0.1c0,0-0.1-0.1-0.1-0.1C205.1,350.5,205.5,350,205.9,349.4z M165.3,323c0,0,0,0.1,0,0.2c0.1,0,0.1,0,0.2-0.1
		C165.4,323,165.4,323,165.3,323z M128.1,290.2c-1.2-0.5-2.3-1.2-3.3-2c0,1,0.1,2.1,0.1,3c0.3-0.1,0.5-0.2,0.8-0.3
		c1.7,0.4,3.2,1,4.7,1.8c1.1-1.5,2.2-3.1,3.3-4.6C131.9,288.9,130,289.6,128.1,290.2z M129.9,344.2c0.9,2,1.7,4,2.3,5.7
		c0.9-2.5,2.1-5.3,3.6-8.1C134,342.6,132,343.4,129.9,344.2z M133.2,352.5c-0.3-0.8-0.6-1.6-0.9-2.6c-0.3,1-0.6,1.9-0.9,2.8
		c-0.1,0.3-0.2,0.6-0.2,0.8c0.5,0.6,0.9,1.2,1.4,1.8c0.4-0.4,0.8-0.9,1.1-1.5C133.5,353.4,133.3,353,133.2,352.5z M106.3,403.7
		c-1.2-1.4-2.4-3.1-3.6-5.1c0.8,2.4,1.8,4.2,2.8,5.3c0.3,0.3,0.6,0.6,0.9,0.9c0.1-0.4,0.2-0.8,0.3-1.2
		C106.7,403.6,106.5,403.7,106.3,403.7z M108,364.7c0.7,0.9,1.2,1.8,1.6,2.7c1-1.4,2.1-2.9,3.4-4.2
		C111.4,363.6,109.7,364.1,108,364.7z M113,388.5c0.6,2.1,1.3,4.2,1.4,6.3c0.8-0.3,1.7-0.6,2.8-1C115.7,392,114.3,390.2,113,388.5z
		 M104.7,317.9c-0.3,0.1-0.6,0.2-0.9,0.4c-1.1,0.5-2.2,1.3-3.2,2.2c1-0.4,2-0.8,2.9-1.3c0.7-0.3,1.3-0.7,1.9-1.1L104.7,317.9z
		 M98.4,321.3c-0.5-0.5-0.9-1.2-1.2-1.9c-0.3,1.5-0.5,3-0.8,4.4c0,0.4,0.1,1,0.1,1.9c1.2-2.1,2.5-3.8,4-5.2
		C99.9,320.8,99.2,321.1,98.4,321.3z M165.3,323c0,0,0,0.1,0,0.2c0.1,0,0.1,0,0.2-0.1C165.4,323,165.4,323,165.3,323z M205.9,349.4
		c-1,0.5-2.2,0.9-3.3,1.3c-1.9-0.3-3.8-0.7-5.7-1.3c0.3,0.6,0.6,1.2,0.8,1.8c2.3-0.4,4.6-0.4,7.1-0.1c0,0-0.1-0.1-0.1-0.1
		C205.1,350.5,205.5,350,205.9,349.4z M165.3,323c0,0,0,0.1,0,0.2c0.1,0,0.1,0,0.2-0.1C165.4,323,165.4,323,165.3,323z M205.9,349.4
		c-1,0.5-2.2,0.9-3.3,1.3c-1.9-0.3-3.8-0.7-5.7-1.3c0.3,0.6,0.6,1.2,0.8,1.8c2.3-0.4,4.6-0.4,7.1-0.1c0,0-0.1-0.1-0.1-0.1
		C205.1,350.5,205.5,350,205.9,349.4z M165.3,323c0,0,0,0.1,0,0.2c0.1,0,0.1,0,0.2-0.1C165.4,323,165.4,323,165.3,323z M205.9,349.4
		c-1,0.5-2.2,0.9-3.3,1.3c-1.9-0.3-3.8-0.7-5.7-1.3c0.3,0.6,0.6,1.2,0.8,1.8c2.3-0.4,4.6-0.4,7.1-0.1c0,0-0.1-0.1-0.1-0.1
		C205.1,350.5,205.5,350,205.9,349.4z M165.3,323c0,0,0,0.1,0,0.2c0.1,0,0.1,0,0.2-0.1C165.4,323,165.4,323,165.3,323z M205.9,349.4
		c-1,0.5-2.2,0.9-3.3,1.3c-1.9-0.3-3.8-0.7-5.7-1.3c0.3,0.6,0.6,1.2,0.8,1.8c2.3-0.4,4.6-0.4,7.1-0.1c0,0-0.1-0.1-0.1-0.1
		C205.1,350.5,205.5,350,205.9,349.4z M165.3,323c0,0,0,0.1,0,0.2c0.1,0,0.1,0,0.2-0.1C165.4,323,165.4,323,165.3,323z M205.9,349.4
		c-1,0.5-2.2,0.9-3.3,1.3c-1.9-0.3-3.8-0.7-5.7-1.3c0.3,0.6,0.6,1.2,0.8,1.8c2.3-0.4,4.6-0.4,7.1-0.1c0,0-0.1-0.1-0.1-0.1
		C205.1,350.5,205.5,350,205.9,349.4z M165.3,323c0,0,0,0.1,0,0.2c0.1,0,0.1,0,0.2-0.1C165.4,323,165.4,323,165.3,323z M205.9,349.4
		c-1,0.5-2.2,0.9-3.3,1.3c-1.9-0.3-3.8-0.7-5.7-1.3c0.3,0.6,0.6,1.2,0.8,1.8c2.3-0.4,4.6-0.4,7.1-0.1c0,0-0.1-0.1-0.1-0.1
		C205.1,350.5,205.5,350,205.9,349.4z M165.3,323c0,0,0,0.1,0,0.2c0.1,0,0.1,0,0.2-0.1C165.4,323,165.4,323,165.3,323z M205.9,349.4
		c-1,0.5-2.2,0.9-3.3,1.3c-1.9-0.3-3.8-0.7-5.7-1.3c0.3,0.6,0.6,1.2,0.8,1.8c2.3-0.4,4.6-0.4,7.1-0.1c0,0-0.1-0.1-0.1-0.1
		C205.1,350.5,205.5,350,205.9,349.4z M165.3,323c0,0,0,0.1,0,0.2c0.1,0,0.1,0,0.2-0.1C165.4,323,165.4,323,165.3,323z M205.9,349.4
		c-1,0.5-2.2,0.9-3.3,1.3c-1.9-0.3-3.8-0.7-5.7-1.3c0.3,0.6,0.6,1.2,0.8,1.8c2.3-0.4,4.6-0.4,7.1-0.1c0,0-0.1-0.1-0.1-0.1
		C205.1,350.5,205.5,350,205.9,349.4z M165.3,323c0,0,0,0.1,0,0.2c0.1,0,0.1,0,0.2-0.1C165.4,323,165.4,323,165.3,323z M205.9,349.4
		c-1,0.5-2.2,0.9-3.3,1.3c-1.9-0.3-3.8-0.7-5.7-1.3c0.3,0.6,0.6,1.2,0.8,1.8c2.3-0.4,4.6-0.4,7.1-0.1c0,0-0.1-0.1-0.1-0.1
		C205.1,350.5,205.5,350,205.9,349.4z M165.3,323c0,0,0,0.1,0,0.2c0.1,0,0.1,0,0.2-0.1C165.4,323,165.4,323,165.3,323z M205.9,349.4
		c-1,0.5-2.2,0.9-3.3,1.3c-1.9-0.3-3.8-0.7-5.7-1.3c0.3,0.6,0.6,1.2,0.8,1.8c2.3-0.4,4.6-0.4,7.1-0.1c0,0-0.1-0.1-0.1-0.1
		C205.1,350.5,205.5,350,205.9,349.4z M165.3,323c0,0,0,0.1,0,0.2c0.1,0,0.1,0,0.2-0.1C165.4,323,165.4,323,165.3,323z M205.9,349.4
		c-1,0.5-2.2,0.9-3.3,1.3c-1.9-0.3-3.8-0.7-5.7-1.3c0.3,0.6,0.6,1.2,0.8,1.8c2.3-0.4,4.6-0.4,7.1-0.1c0,0-0.1-0.1-0.1-0.1
		C205.1,350.5,205.5,350,205.9,349.4z M165.3,323c0,0,0,0.1,0,0.2c0.1,0,0.1,0,0.2-0.1C165.4,323,165.4,323,165.3,323z M205.9,349.4
		c-1,0.5-2.2,0.9-3.3,1.3c-1.9-0.3-3.8-0.7-5.7-1.3c0.3,0.6,0.6,1.2,0.8,1.8c2.3-0.4,4.6-0.4,7.1-0.1c0,0-0.1-0.1-0.1-0.1
		C205.1,350.5,205.5,350,205.9,349.4z M165.3,323c0,0,0,0.1,0,0.2c0.1,0,0.1,0,0.2-0.1C165.4,323,165.4,323,165.3,323z M205.9,349.4
		c-1,0.5-2.2,0.9-3.3,1.3c-1.9-0.3-3.8-0.7-5.7-1.3c0.3,0.6,0.6,1.2,0.8,1.8c2.3-0.4,4.6-0.4,7.1-0.1c0,0-0.1-0.1-0.1-0.1
		C205.1,350.5,205.5,350,205.9,349.4z M165.3,323c0,0,0,0.1,0,0.2c0.1,0,0.1,0,0.2-0.1C165.4,323,165.4,323,165.3,323z M205.9,349.4
		c-1,0.5-2.2,0.9-3.3,1.3c-1.9-0.3-3.8-0.7-5.7-1.3c0.3,0.6,0.6,1.2,0.8,1.8c2.3-0.4,4.6-0.4,7.1-0.1c0,0-0.1-0.1-0.1-0.1
		C205.1,350.5,205.5,350,205.9,349.4z M165.3,323c0,0,0,0.1,0,0.2c0.1,0,0.1,0,0.2-0.1C165.4,323,165.4,323,165.3,323z M205.9,349.4
		c-1,0.5-2.2,0.9-3.3,1.3c-1.9-0.3-3.8-0.7-5.7-1.3c0.3,0.6,0.6,1.2,0.8,1.8c2.3-0.4,4.6-0.4,7.1-0.1c0,0-0.1-0.1-0.1-0.1
		C205.1,350.5,205.5,350,205.9,349.4z M165.3,323c0,0,0,0.1,0,0.2c0.1,0,0.1,0,0.2-0.1C165.4,323,165.4,323,165.3,323z M205.9,349.4
		c-1,0.5-2.2,0.9-3.3,1.3c-1.9-0.3-3.8-0.7-5.7-1.3c0.3,0.6,0.6,1.2,0.8,1.8c2.3-0.4,4.6-0.4,7.1-0.1c0,0-0.1-0.1-0.1-0.1
		C205.1,350.5,205.5,350,205.9,349.4z M165.3,323c0,0,0,0.1,0,0.2c0.1,0,0.1,0,0.2-0.1C165.4,323,165.4,323,165.3,323z M205.9,349.4
		c-1,0.5-2.2,0.9-3.3,1.3c-1.9-0.3-3.8-0.7-5.7-1.3c0.3,0.6,0.6,1.2,0.8,1.8c2.3-0.4,4.6-0.4,7.1-0.1c0,0-0.1-0.1-0.1-0.1
		C205.1,350.5,205.5,350,205.9,349.4z M165.3,323c0,0,0,0.1,0,0.2c0.1,0,0.1,0,0.2-0.1C165.4,323,165.4,323,165.3,323z M205.9,349.4
		c-1,0.5-2.2,0.9-3.3,1.3c-1.9-0.3-3.8-0.7-5.7-1.3c0.3,0.6,0.6,1.2,0.8,1.8c2.3-0.4,4.6-0.4,7.1-0.1c0,0-0.1-0.1-0.1-0.1
		C205.1,350.5,205.5,350,205.9,349.4z M165.3,323c0,0,0,0.1,0,0.2c0.1,0,0.1,0,0.2-0.1C165.4,323,165.4,323,165.3,323z M205.9,349.4
		c-1,0.5-2.2,0.9-3.3,1.3c-1.9-0.3-3.8-0.7-5.7-1.3c0.3,0.6,0.6,1.2,0.8,1.8c2.3-0.4,4.6-0.4,7.1-0.1c0,0-0.1-0.1-0.1-0.1
		C205.1,350.5,205.5,350,205.9,349.4z M165.3,323c0,0,0,0.1,0,0.2c0.1,0,0.1,0,0.2-0.1C165.4,323,165.4,323,165.3,323z M205.9,349.4
		c-1,0.5-2.2,0.9-3.3,1.3c-1.9-0.3-3.8-0.7-5.7-1.3c0.3,0.6,0.6,1.2,0.8,1.8c2.3-0.4,4.6-0.4,7.1-0.1c0,0-0.1-0.1-0.1-0.1
		C205.1,350.5,205.5,350,205.9,349.4z M165.3,323c0,0,0,0.1,0,0.2c0.1,0,0.1,0,0.2-0.1C165.4,323,165.4,323,165.3,323z M205.9,349.4
		c-1,0.5-2.2,0.9-3.3,1.3c-1.9-0.3-3.8-0.7-5.7-1.3c0.3,0.6,0.6,1.2,0.8,1.8c2.3-0.4,4.6-0.4,7.1-0.1c0,0-0.1-0.1-0.1-0.1
		C205.1,350.5,205.5,350,205.9,349.4z M165.3,323c0,0,0,0.1,0,0.2c0.1,0,0.1,0,0.2-0.1C165.4,323,165.4,323,165.3,323z M205.9,349.4
		c-1,0.5-2.2,0.9-3.3,1.3c-1.9-0.3-3.8-0.7-5.7-1.3c0.3,0.6,0.6,1.2,0.8,1.8c2.3-0.4,4.6-0.4,7.1-0.1c0,0-0.1-0.1-0.1-0.1
		C205.1,350.5,205.5,350,205.9,349.4z M165.3,323c0,0,0,0.1,0,0.2c0.1,0,0.1,0,0.2-0.1C165.4,323,165.4,323,165.3,323z M205.9,349.4
		c-1,0.5-2.2,0.9-3.3,1.3c-1.9-0.3-3.8-0.7-5.7-1.3c0.3,0.6,0.6,1.2,0.8,1.8c2.3-0.4,4.6-0.4,7.1-0.1c0,0-0.1-0.1-0.1-0.1
		C205.1,350.5,205.5,350,205.9,349.4z M205.9,349.4c-1,0.5-2.2,0.9-3.3,1.3c-1.9-0.3-3.8-0.7-5.7-1.3c0.3,0.6,0.6,1.2,0.8,1.8
		c2.3-0.4,4.6-0.4,7.1-0.1c0,0-0.1-0.1-0.1-0.1C205.1,350.5,205.5,350,205.9,349.4z M165.3,323c0,0,0,0.1,0,0.2c0.1,0,0.1,0,0.2-0.1
		C165.4,323,165.4,323,165.3,323z M356.7,409.7c1.1,1.6,1.7,3.5,2,5.6c0.8-2.2,1.5-4.5,2.4-6.9C359.7,409,358.2,409.5,356.7,409.7z
		 M356.5,409.3c-0.5,0.2-1,0.4-1.5,0.5c0.6,0,1.2-0.1,1.7-0.2C356.6,409.6,356.5,409.5,356.5,409.3z M349.7,409.4
		c-2.8-1.1-5.6-3.7-8.3-6.9c1.9,4.2,3.3,8.1,4.3,11.1c3.4-1.5,6.6-2.7,9.3-3.7C353.3,410,351.6,409.8,349.7,409.4z M329.7,386.3
		c3.8,5.4,7.7,11.5,11.7,16.2C338.7,396.8,335,390.7,329.7,386.3z M316.1,435.7c0.2-0.7,0.5-1.4,0.8-2.1c0,0,0,0,0,0
		c-1.5-0.7-3.4-1.5-5.4-2.6c3.8,5.1,6.3,10,7.3,13.1c-0.5,0.8-1.1,1.5-1.9,2.2c1.8-0.4,3.6-0.6,5.3-0.3
		C320.7,442.8,318.9,439.3,316.1,435.7z M289.8,473.1c0.4,0.4,0.8,0.9,1.2,1.3c-0.5,0.3-1,0.6-1.6,0.9c2-0.4,3.8-0.9,5.4-1.4
		c0.6-0.3,1.2-0.5,1.8-0.8C294.2,473.5,291.8,473.6,289.8,473.1z M284.3,467.8c0.2,0.6,0.4,1.1,0.6,1.7c1,1.9,2.7,3.1,4.9,3.6
		C287.9,471.1,286,469.3,284.3,467.8z M209,415.6c1,2.8,1.4,5.6,1.3,8.5c-0.5,1.3-1,2.5-1.5,3.7c2.9-1.9,6.2-2.7,9.6-2.5
		C214.5,422,211.3,418.6,209,415.6z M216.6,472.3c-2.5-1.8-5-4-7.5-6.6c0.8,1.7,1.7,3.5,2.5,5.3c-0.2,0-0.3,0.1-0.5,0.1
		C213.1,471.7,215,472.1,216.6,472.3z M201.3,437.2c3.2-2.5,5.6-5.5,7.5-9.3C205.8,429.8,203.2,432.8,201.3,437.2z M193.2,441.8
		c1.9,1.4,3.6,3.2,5.3,5.4c0.6-3.9,1.6-7.2,2.8-10C199,439,196.3,440.5,193.2,441.8z M208.7,414.7c0,0.2,0.1,0.5,0.1,0.7
		c0.1,0.1,0.1,0.2,0.2,0.2C208.9,415.3,208.8,415,208.7,414.7z M211.2,401.4c-1.7,0.8-3.5,1.6-5.5,2.3c-1.8-0.2-3.5-0.6-5.3-1
		c3.6,3.6,6.5,7.7,8.2,12C208,411.1,209,406.3,211.2,401.4z M168.4,380.8c0.3,3.5-0.7,7-2.6,10.3c4-2,7.7-2.9,10.1-2.1
		C173,386.3,170.5,383.5,168.4,380.8z M168.4,376.4C168.3,376.4,168.3,376.4,168.4,376.4L168.4,376.4c-0.2,0.4-0.3,0.7-0.5,1
		c0.3,1.1,0.5,2.2,0.6,3.3c0.4-1.5,1-3.3,1.9-5.1C169.7,376,169,376.2,168.4,376.4z M152.5,426.4c2.8,4.4,5,8.3,6.1,11
		c1-0.3,2-0.6,3.1-0.8C158.7,433.4,155.5,429.9,152.5,426.4z M142.8,413c-0.1,0.3-0.2,0.6-0.3,1c2.5,3.3,6.1,7.8,10,12.4
		C149.8,422.2,146.5,417.5,142.8,413z M140.8,409.6c-0.3,0-0.7-0.1-1-0.2c1,1.2,2,2.3,3,3.5c0.6-1.7,1.6-3.5,3-5.3
		C144.2,408.4,142.5,409,140.8,409.6z M153.6,439.5c0.1,0.1,0.2,0.1,0.2,0.2c0.1,0,0.2-0.1,0.2-0.1
		C153.9,439.5,153.7,439.5,153.6,439.5z M168.4,376.4C168.3,376.4,168.3,376.4,168.4,376.4L168.4,376.4c-0.2,0.4-0.3,0.7-0.5,1
		c0.3,1.1,0.5,2.2,0.6,3.3c0.4-1.5,1-3.3,1.9-5.1C169.7,376,169,376.2,168.4,376.4z"/>
	<path class="st0" d="M230.6,175.2c0.3,0.4,0.7,0.9,1,1.3c-0.2,0.3-0.4,0.5-0.6,0.8c-9.9,3.7-17.9,8.1-21.6,16.2
		c-1.4,1.5-3.6,2.6-6.3,3.4c-1.7-0.7-3.6-1.3-5.6-1.8c-2.2,0.8-4.3,1.6-6.3,2.5c-2.3-0.3-4.5-1-6.6-1.9c-0.4-2.5-1.6-4.6-3.6-6.3
		c-1.1-0.9-2.4-1.6-3.8-2.3c1.3-9.8,31.4-23,50.6-22c0.4,0,0.8,0,1.1,0.1c2.8,2.4,4.1,4.7,4.2,6.9C232.2,173,231.3,174,230.6,175.2z
		"/>
	<path class="st0" d="M233.1,172c0.1,1.5-0.5,3.1-1.4,4.5c-0.4-0.4-0.7-0.9-1-1.3C231.3,174,232.2,173,233.1,172z"/>
	<path class="st0" d="M288.3,177.4c-8.3,5.1-15,13.8-18,22.2c-1.6,0.7-3.2,1.1-4.8,1.3c0,0,0,0-0.1,0c0,0-0.1,0-0.1,0c0,0,0,0,0,0
		c-0.7,0-1.4,0-2.2,0c-1-0.4-2.1-0.9-3.3-1.6h0c-3.1-8.2-10.1-18.6-26.3-22.8c-0.5,0.2-0.9,0.3-1.3,0.5c-0.1-0.2-0.3-0.3-0.4-0.5
		c1-1.5,1.5-3,1.4-4.5c2.9-3,6.8-4.9,11.2-5.8c14.3-3.1,33.7,3.4,41.8,9.4C287,176.2,287.7,176.8,288.3,177.4z"/>
	<path class="st0" d="M230.6,175.2c0.7-1.2,1.5-2.3,2.5-3.2c0.1,1.5-0.5,3.1-1.4,4.5C231.3,176.1,231,175.7,230.6,175.2z"/>
	<path class="st0" d="M265.4,200.9c0,0-0.1,0-0.2,0C265.3,200.9,265.3,200.9,265.4,200.9C265.4,200.9,265.4,200.9,265.4,200.9z"/>
	<path class="st0" d="M368.6,240c-0.5-0.2-1.2-0.5-2-0.9l0,0c-3-3.1-6.4-5.8-10.1-8v0c-3.1-8.2-10.1-18.7-26.4-23
		c-1.8,0.7-3.6,1.4-5.3,2.2c-0.6-0.7-1.1-1.3-1.6-1.8c-0.9-2.2-2.1-4.4-3.5-6.5c0,0,0,0,0,0c-1.7-4.5-4.2-10-7.8-15
		c-0.1-0.7,0-1.4,0.2-2.1c0.4-1.3,1.5-2.5,3.4-3.5c21.1,4.4,48.1,30.6,52.6,55.8c0,0,0,0,0,0C368.4,238.2,368.5,239.1,368.6,240z"/>
	<path class="st0" d="M321.4,206.6c-1.1,1.7-2.3,4.5-3.7,7.8c-6.6,4.5-11.6,10.3-13.5,17.5c0.4,0.6,0.9,1.2,1.4,1.7
		c-0.4,0.3-0.9,0.6-1.4,0.9c-0.6-0.2-1.3-0.4-1.9-0.6c-1.3,0.5-2.6,1-3.9,1.5c-0.3-0.1-0.5-0.3-0.8-0.4c1.4-1.5,2.4-2.9,3.1-4
		c-2.5-7.7-15.7-22.8-31.3-28.7c0.2-0.8,0.5-1.7,0.8-2.6c3.1-8.4,9.7-17.1,18-22.2c0.4-0.3,0.9-0.5,1.3-0.8c1.6-0.9,3.2-1.6,4.9-2.2
		c6.1,1.6,11,5.1,14.8,9.2c1,1.1,1.9,2.2,2.7,3.3c3.7,5,6.2,10.6,7.8,15c0,0,0,0,0,0C320.5,203.8,321,205.3,321.4,206.6z"/>
	<path class="st0" d="M304.2,234.5c-1.6,0.9-3.4,1.3-5.3,1.2c-0.2-0.1-0.4-0.2-0.6-0.3c1.3-0.5,2.6-1,3.9-1.5
		C303,234.1,303.6,234.3,304.2,234.5z"/>
	<path class="st0" d="M184.3,201c-5.8,3.5-10.1,8-11.9,14.7c0.3,0.4,0.6,0.8,0.9,1.2c-0.9,0.9-2,1.4-3.2,1.7c-1.4-0.7-2.7-1.1-4-1.3
		c-2.5,0.9-5,1.9-7.3,3.1c-1.7,0.4-3.6,0.8-5.7,1.5c2.1-4.3,2.5-8-3-10.3c0.2-0.6,0.5-1.1,0.8-1.7c4.8-9.6,17.2-20.1,25.4-23.1
		c0.4,0.1,0.7,0.3,1,0.4c1.5,0.6,2.8,1.4,3.8,2.3c2,1.7,3.3,3.8,3.6,6.3C185,197.3,184.8,199.1,184.3,201z"/>
	<path class="st0" d="M260.3,201c-0.6,0.9-1.3,2.1-2.1,3.4c-6.1,4-10,9.6-12.6,16.1c-1.9,1.8-3.9,3.2-5.9,4.3
		c-2.8-1.8-5.8-3.3-8.6-4.6c-2.3-0.5-4.5-0.6-6.6-0.5c0,0,0,0-0.1-0.1c0,0,0,0,0-0.1c-1.9-5.7-5.6-12.9-13.3-18.3
		c-1-1.5-2-2.9-3-4.1c0.3-1.3,0.8-2.5,1.3-3.6c3.7-8.2,11.8-12.5,21.6-16.2c0.3-0.1,0.7-0.2,1-0.4c0.4-0.2,0.9-0.3,1.3-0.5
		c16.2,4.3,23.2,14.6,26.3,22.8h0C260,199.9,260.2,200.5,260.3,201z"/>
	<path class="st0" d="M224.6,219.6C224.5,219.7,224.5,219.7,224.6,219.6c0,0.1-0.1,0.1-0.1,0.1c-13.8,0.7-24.3,12.1-28.2,21.5
		c-0.8,0.3-1.5,0.6-2.4,0.8c-1-0.4-1.9-1-2.9-1.7l0,0c-2.5-4.8-7.3-11-12.4-15.7c0,0,0,0,0,0c-1.7-2.7-3.5-5.4-5.3-7.8
		c-0.3-0.4-0.6-0.8-0.9-1.2c1.8-6.7,6.1-11.2,11.9-14.7c2.1-1.3,4.5-2.4,7-3.5c2-0.9,4.1-1.7,6.3-2.5c2,0.5,3.8,1.1,5.6,1.8
		c3.1,1.2,5.7,2.7,8,4.3C218.9,206.7,222.7,213.9,224.6,219.6z"/>
	<path class="st0" d="M300.7,230.9c-0.7,1.1-1.8,2.5-3.1,4c-0.4,0.4-0.7,0.8-1.1,1.2l0,0c-7.5,3.1-13.7,6.9-17.2,13
		c-1.5,0.7-3,1.3-4.5,1.8c-2-1.8-4.2-3.5-6.5-5.3c-2.2,0.4-4.3,1.1-6.5,1.9c-1.3-1.2-2.6-2.5-3.9-3.9c-0.9-4.1-5.2-9.1-10.8-13.6
		c-1.1-1.5-2.2-2.9-3.2-4.3c0.5-1.8,1-3.6,1.7-5.3c2.5-6.5,6.5-12.2,12.6-16.1c2.1-1.4,4.4-2.5,7-3.5c0,0,0,0,0,0c0.1,0,0.1,0,0.2,0
		c1.4,0.4,2.7,0.8,4,1.3C285,208.1,298.2,223.2,300.7,230.9z"/>
	<path class="st0" d="M265.4,200.9c0,0-0.1,0-0.2,0C265.3,200.9,265.3,200.9,265.4,200.9C265.4,200.9,265.4,200.9,265.4,200.9z"/>
	<path class="st0" d="M356.6,231.2c-1-0.6-2-1.1-3-1.6c-0.6,0.3-1.2,0.7-1.7,1.1c-4.8,3.7-3.8,10.4-3.6,16.3
		c-1.3,1.6-2.7,3.1-4.2,4.4h0c-4.2-0.4-7.9,0.9-11,3.2c-2.2-1-4.8-2.4-7.5-4.1v0c-6.1-3.9-13.1-9.3-18.2-14.9
		c-0.6-0.6-1.2-1.3-1.7-1.9c-0.5-0.6-1-1.2-1.4-1.7c1.9-7.1,6.9-13,13.5-17.5c2.2-1.5,4.6-2.9,7.2-4c1.7-0.8,3.5-1.5,5.3-2.2
		C346.5,212.5,353.5,223,356.6,231.2z"/>
	<path class="st0" d="M378.7,263.8c0,5.1-2.2,9.1-7.3,10.8c-0.8-0.3-1.7-0.7-2.6-1.2v0c-2.4-7.7-7-16.6-20.8-21.3
		c0.3-1.6,0.3-3.4,0.3-5.2c-0.2-5.9-1.2-12.6,3.6-16.3c0.5-0.4,1.1-0.7,1.7-1.1c1,0.5,2,1,3,1.6v0c3.7,2.1,7.1,4.9,10.1,8l0,0
		c1.8,1.8,3.4,3.8,4.9,5.8c0,0,0,0,0,0C374.2,251.5,376.6,257.8,378.7,263.8z"/>
	<path class="st0" d="M378.7,263.8c-2.1-6-4.5-12.3-7.2-18.8C376.1,251.3,378.8,258.2,378.7,263.8z"/>
	<path class="st0" d="M329.2,258.2c-4.1,4.7-7,10.9-8.8,16.3c-1.8,2.2-3.9,4.3-6.7,6.1c-0.8-0.3-1.6-0.5-2.4-0.7
		c-3.9-0.8-7.6-0.7-11.1,0.1c-1.4-1.1-2.8-2.5-4.3-3.9c0.2-0.4,0.4-0.8,0.7-1.1c-4.9-6.2-10.7-13.9-19-21.6c0.5-1.5,1.1-2.9,1.8-4.2
		c3.5-6.1,9.6-9.8,17.2-13l0,0c0.6-0.3,1.3-0.5,1.9-0.8c0.2,0.1,0.4,0.2,0.6,0.3c1.9,0.2,3.6-0.3,5.3-1.2c1.1,0.3,2.1,0.7,3.1,1.1
		c5.2,5.5,12.1,11,18.2,14.9v0C327.2,253.1,328.3,255.8,329.2,258.2z"/>
	<path class="st0" d="M304.2,234.5c-1.6,0.9-3.4,1.3-5.3,1.2c-0.2-0.1-0.4-0.2-0.6-0.3c1.3-0.5,2.6-1,3.9-1.5
		C303,234.1,303.6,234.3,304.2,234.5z"/>
	<path class="st0" d="M258.1,244.8c-1.1,1.7-2.2,3.9-3.6,6.4v0c-7.9,4.8-14.4,11.8-17.1,18.5c-1.5,0.8-3.2,1.5-5,2.1
		c-2.4-0.3-4.8-0.9-7.1-1.8h0c-6.5-7.9-16.9-14.7-28.7-23.5c-0.5-0.7-1.1-1.4-1.6-2c0.3-1.1,0.7-2.2,1.2-3.3
		c4-9.4,14.5-20.8,28.2-21.5h0.1c2.1-0.1,4.3,0.1,6.6,0.5c2.8,1.2,5.7,2.8,8.6,4.6c2.6,1.6,5.1,3.4,7.5,5.3
		c5.6,4.5,9.9,9.4,10.8,13.6C258,244,258.1,244.4,258.1,244.8z"/>
	<path class="st0" d="M153,221.8c-0.4,0.9-0.9,1.8-1.5,2.8c-5.5,4-9.6,9-11.3,15.3c0.4,0.5,0.8,1,1.2,1.5c0,0,0,0-0.1,0.1
		c-0.9-0.3-1.8-0.6-2.8-0.9c-7,2.5-14.5,6.7-20.2,12c-0.7-1.2-1-2.5-1-4v0c0.1-12.2,21-33.6,31.6-37.4c0.1,0,0.2,0.1,0.3,0.1
		c0.3,0.1,0.5,0.2,0.7,0.3C155.6,213.8,155.1,217.5,153,221.8z"/>
	<path class="st0" d="M192.5,243.8c-0.4,0.7-0.9,1.4-1.4,2.1c-4.5,6.6-12.3,16-26.9,21c-0.1-0.1-0.2-0.1-0.3-0.2
		c-1.1-0.5-2.3-1.2-3.5-2.2c0,0,0,0,0,0c-6.3-4.9-12.9-15.1-18.7-23c0,0-0.1-0.1-0.1-0.1c-0.4-0.5-0.8-1-1.2-1.5
		c1.7-6.4,5.8-11.4,11.3-15.3c2.2-1.6,4.6-3,7.2-4.3c2.3-1.2,4.8-2.2,7.3-3.1c1.3,0.2,2.6,0.7,4,1.3c2.8,1.3,5.7,3.5,8.5,6.1
		c0,0,0,0,0,0c5.1,4.8,9.8,10.9,12.4,15.7l0,0C191.7,241.7,192.2,242.8,192.5,243.8z"/>
	<path class="st0" d="M161.9,269.7c-0.8,1.3-2,2.7-3.5,4.1c-5.2,4.9-14.1,10.2-24.7,14.4h0c-1.8,0.7-3.7,1.4-5.6,2.1
		c-1.2-0.5-2.3-1.2-3.3-2c-5.2-4.4-8.4-13.2-13.9-20.9c0-0.1,0.1-0.3,0.1-0.4c1.1-3.5,2.3-6.8,3.3-9.8c1.2-1.5,2.6-3,4.1-4.4
		c5.7-5.2,13.1-9.4,20.2-12c1,0.3,1.9,0.5,2.8,0.9c0.1,0,0.1,0,0.2,0.1c5.9,7.9,12.4,18.1,18.7,23c0,0,0,0,0,0
		C160.9,266.5,161.4,268.2,161.9,269.7z"/>
	<path class="st0" d="M114.4,257c-1.1,3-2.2,6.3-3.3,9.8c0,0.2-0.1,0.3-0.1,0.4c-0.1-0.1-0.1-0.2-0.2-0.3c-0.3-0.4-0.6-0.8-0.9-1.3
		C110.6,262.7,112.2,259.8,114.4,257z"/>
	<path class="st0" d="M227.7,273.2c-0.4,0.6-0.8,1.2-1.2,1.8c-9.3,5-17.9,12-22.6,19.4h0c-1.9,1.2-4,2.3-6.2,3.6
		c-3.4-0.4-6.7-1.3-9.8-2.4c-6.3-8.1-14.3-17.1-27.3-21.2c0.7-2.3,1.8-4.9,3.2-7.6c0.1,0.1,0.2,0.1,0.3,0.2
		c14.6-5,22.5-14.4,26.9-21c1.7-0.1,3.5,0.1,5.3,0.5c0.1,0.1,0.2,0.2,0.3,0.2c11.8,8.8,22.2,15.7,28.7,23.5h0
		C226.2,271.1,227,272.1,227.7,273.2z"/>
	<path class="st0" d="M296.5,274.9c-0.2,0.3-0.5,0.7-0.7,1.1c-1.1,2-2.1,4.4-3.4,6.9c-6.6,3.6-11.7,9.5-14.7,15.1h0
		c-1.2,0.6-2.4,1.1-3.8,1.5c-2.4-0.8-4.8-1.8-7-2.8c-3.5-5.5-15.1-12.9-25.7-19.1c-1.7-1.8-3.3-3.6-4.6-5.4c0.2-0.8,0.5-1.6,0.8-2.5
		c2.7-6.8,9.3-13.8,17.1-18.5v0c2.3-1.4,4.8-2.6,7.3-3.6c2.1-0.8,4.3-1.5,6.5-1.9c2.3,1.7,4.5,3.5,6.5,5.3c0.9,0.8,1.8,1.6,2.7,2.4
		C285.7,261,291.6,268.7,296.5,274.9z"/>
	<path class="st0" d="M370.4,279c-6.5,5.4-11.5,13.6-14.5,21.1c-3.1,0.9-6.6,1.4-10.6,1.1c0,0,0,0,0,0c0,0-0.1,0-0.1,0
		c-0.9-0.2-1.9-0.3-2.8-0.4h0c-1.4-0.6-2.9-1.5-4.3-2.5c-1.9-4.1-6.6-8.7-13-12.5h0c-2-2.4-4-4.9-5.9-7.4c0.3-1.2,0.7-2.5,1.2-3.9
		c1.8-5.4,4.7-11.6,8.8-16.3c1.2-1.3,2.5-2.6,3.9-3.6c3.1-2.3,6.8-3.6,11-3.2h0c1,0.1,2,0.3,3,0.5c0.3,0.1,0.6,0.2,0.9,0.3
		c13.8,4.7,18.4,13.6,20.8,21.3v0C369.5,275.4,369.9,277.3,370.4,279z"/>
	<path class="st0" d="M345.3,301.2c-0.8,0-1.6-0.1-2.4-0.2c-0.2-0.1-0.3-0.1-0.5-0.2c0.9,0.1,1.8,0.2,2.8,0.4
		C345.2,301.2,345.3,301.2,345.3,301.2z"/>
	<path class="st0" d="M390.3,300.8c0,6.4-1.8,16.3-4.7,27.9v0c-0.3,0.6-0.7,1.2-1,1.8c-0.2,0-0.4,0.1-0.6,0.1
		c-0.8-1.8-1.9-3.5-3-5.1c-4.5,0.6-7.8,1.8-10.4,3.4c-1.6-0.9-3.1-2.2-4.4-3.6v0c-1.5-6.7-5.6-14.6-12.1-19.7
		c0.5-1.8,1.1-3.6,1.9-5.5c3-7.5,8-15.7,14.5-21.1c2.5-2.1,5.1-3.7,8-4.7c2.5,2.2,4.6,4.8,6.3,7.6v0
		C386.9,289,388.7,295.4,390.3,300.8z"/>
	<path class="st0" d="M385.6,328.6c2.9-11.6,4.7-21.5,4.7-27.9c-1.6-5.4-3.4-11.8-5.6-18.8C392.7,295,393.5,314.1,385.6,328.6z"/>
	<path class="st0" d="M309.1,325.5c0.3,0.4,0.6,0.8,1,1.2c-1-0.2-2-0.4-2.9-0.6c-2.2-7.2-16.6-19.6-30.8-25.3
		c0.4-0.9,0.8-1.9,1.3-2.8h0c3-5.6,8.2-11.5,14.7-15.1c2.4-1.3,5-2.3,7.7-3c3.5-0.8,7.2-0.9,11.1-0.1c0.8,0.2,1.6,0.5,2.4,0.7
		c4.1,1.3,8,3.1,11.5,5.1h0c6.3,3.8,11.1,8.4,13,12.5c0.4,0.8,0.6,1.6,0.8,2.4C323.2,301.2,311.7,315.5,309.1,325.5z"/>
	<path class="st0" d="M268,299.8c-10.3,4.2-18.1,14.1-21.9,23.4v0c-0.6,0.3-1.3,0.6-1.9,0.9c-1.2-0.7-2.3-1.3-3.4-1.8
		c-3.3,0.2-6.3,0.7-8.9,1.4c-2.8-0.9-5.5-2.1-8.1-3.5c-3.8-6.6-13.7-14.5-22.6-20.4c0.6-1.9,1.5-3.8,2.7-5.6h0
		c4.7-7.4,13.4-14.5,22.6-19.4c1.8-1,3.6-1.8,5.4-2.6c2.8,1.6,6,3.3,9.3,5.2c10.6,6.2,22.2,13.5,25.7,19.1
		C267.6,297.8,268,298.9,268,299.8z"/>
	<path class="st0" d="M165.5,323.1c-0.1,0-0.1,0-0.2,0.1c0,0,0-0.1,0-0.2C165.4,323,165.4,323,165.5,323.1z"/>
	<path class="st0" d="M190,298.3c-13.4,2.1-22,15.4-24.6,24.7c-0.8-0.5-1.6-1-2.3-1.4c-3.4,0.1-6.5,0.8-9.3,2
		c-0.1,0-0.3-0.1-0.4-0.2c-3.3-8.9-10.5-24.6-22.9-30.7c1.1-1.5,2.2-3.1,3.3-4.6h0c10.6-4.2,19.5-9.5,24.7-14.4h0.1
		c0.7,0.2,1.4,0.4,2.1,0.6c12.9,4.1,20.9,13.1,27.3,21.2C188.6,296.5,189.3,297.4,190,298.3z"/>
	<path class="st0" d="M124.9,291.2c-10.3,4.1-17.4,16.6-21.1,27c-1.1,0.5-2.2,1.3-3.2,2.2c0,0,0,0,0,0c-0.7,0.3-1.4,0.6-2.2,0.8
		c-0.5-0.5-0.9-1.2-1.2-1.9c-5.9-11.8,2.6-46,13.5-52.4c0.1,0.1,0.1,0.2,0.2,0.3c5.5,7.8,8.6,16.5,13.9,20.9
		C124.8,289.3,124.8,290.3,124.9,291.2z"/>
	<path class="st0" d="M105.5,318.1c-0.6,0.4-1.3,0.7-1.9,1.1c-0.9,0.5-1.9,0.9-2.9,1.3c1-0.9,2.1-1.7,3.2-2.2
		c0.3-0.2,0.6-0.3,0.9-0.4L105.5,318.1z"/>
	<path class="st0" d="M111,266.9c0,0.2-0.1,0.3-0.1,0.4c-0.1-0.1-0.1-0.2-0.2-0.3C110.8,267,110.9,266.9,111,266.9z"/>
	<path class="st0" d="M153.5,323.7c-8,3.5-13.9,10.8-17.7,18c-1.8,0.8-3.8,1.7-5.9,2.5c-1.2,0.5-2.5,0.9-3.8,1.4
		c-7.8-3.2-16.4-13-23.7-22.6c0.3-1.2,0.7-2.5,1.1-3.8c0.7-0.3,1.3-0.7,1.9-1.1l-0.8-0.2c-0.3,0.1-0.6,0.2-0.9,0.4
		c3.6-10.4,10.8-22.9,21.1-27c0.3-0.1,0.5-0.2,0.8-0.3c1.7,0.4,3.2,1,4.7,1.8c12.4,6.1,19.6,21.8,22.9,30.7
		C153.4,323.5,153.4,323.6,153.5,323.7z"/>
	<path class="st0" d="M105.5,318.1c-0.6,0.4-1.3,0.7-1.9,1.1c0.1-0.3,0.2-0.6,0.3-0.9c0.3-0.2,0.6-0.3,0.9-0.4L105.5,318.1z"/>
	<path class="st0" d="M225.4,325.2c-0.4,0.6-0.7,1.2-1.1,1.8v0c-9.6,5.7-13.6,15.4-18.4,22.4c-1,0.5-2.2,0.9-3.3,1.3
		c-1.9-0.3-3.8-0.7-5.7-1.3c-4.3-7.6-18.1-18.1-31.4-26.4c0,0-0.1,0-0.1-0.1c2.6-9.3,11.3-22.5,24.6-24.7c2.8-0.5,5.8-0.4,9,0.2
		c0.7,0.5,1.4,0.9,2.2,1.4c8.9,5.9,18.7,13.7,22.6,20.4C224.7,322,225.3,323.7,225.4,325.2z"/>
	<path class="st0" d="M165.5,323.1c-0.1,0-0.1,0-0.2,0.1c0,0,0-0.1,0-0.2C165.4,323,165.4,323,165.5,323.1z"/>
	<path class="st0" d="M307.4,328.2c-0.8,1.3-2,2.8-3.5,4.5h0c-9,2.4-16.3,9.2-20.5,16.1c-3.1,1.8-6.5,3.4-9.9,4.6h0
		c-0.8,0-1.5,0.1-2.3,0.3c-1.3-0.2-2.6-0.5-3.8-0.9c2.6-6.1-10.8-20.8-22.1-27.9c0.2-0.6,0.4-1.1,0.7-1.7v0
		c3.8-9.3,11.6-19.1,21.9-23.4c0.9-0.4,1.8-0.7,2.6-1c1.9,0.5,3.8,1.1,5.7,1.9c14.2,5.7,28.6,18,30.8,25.3
		C307.4,326.8,307.5,327.5,307.4,328.2z"/>
	<path class="st0" d="M273.5,353.4c-0.4,0.2-0.9,0.3-1.3,0.5c-0.3-0.1-0.7-0.1-1-0.2C272,353.5,272.8,353.4,273.5,353.4z"/>
	<path class="st0" d="M366.8,332.2c-2.9,3.5-4.5,8.1-6,13.6c-2.1,2.8-5.7,5.6-13.4,8.2c-1.3-0.2-2.5-0.4-3.7-0.7v0
		c-1-7-13.1-17.1-27.6-20.9c-0.5-0.1-1-0.2-1.5-0.3h0c-1.6-1.9-3.1-3.7-4.4-5.4h0c-0.3-0.4-0.6-0.8-1-1.2
		c2.6-9.9,14.1-24.3,29.7-24.9c1.2,0,2.4,0,3.6,0.1h0c0.2,0.1,0.3,0.1,0.5,0.2c0.8,0.1,1.6,0.2,2.4,0.2c0,0,0,0,0,0
		c3.3,0.9,6.2,2.4,8.7,4.5c6.5,5.1,10.6,13,12.1,19.7v0C366.7,327.9,367,330.2,366.8,332.2z"/>
	<path class="st0" d="M345.3,301.2c-0.8,0-1.6-0.1-2.4-0.2c-0.2-0.1-0.3-0.1-0.5-0.2c0.9,0.1,1.8,0.2,2.8,0.4
		C345.2,301.2,345.3,301.2,345.3,301.2z"/>
	<path class="st0" d="M374.3,367.9c-0.3,0.1-0.5,0.3-0.8,0.4c-2.3-7.3-7-13.5-14.5-16.3c0.6-2.2,1.1-4.3,1.6-6.2
		c1.5-5.5,3.1-10.2,6-13.6c1.1-1.3,2.3-2.4,3.7-3.3c2.6-1.7,6-2.9,10.4-3.4c1.2,1.6,2.2,3.3,3,5.1c0.3,0.5,0.5,1.1,0.7,1.6
		C390.3,345.7,386.5,362.1,374.3,367.9z"/>
	<path class="st0" d="M342.9,356.9c-1.1,1.7-1.9,3.9-2.8,6.3c-5.6,5.5-10.3,11.9-12.4,17.5c-1.1,0.7-2.4,1.3-3.8,1.8
		c-1.4-0.7-2.9-1.3-4.5-1.7c-0.8,0.3-1.7,0.6-2.6,1h0c-2.2-0.6-4.4-1.4-6.5-2.3c-4.2-7.5-19.8-19-30-24.2c0.7-2.1,1.8-4.4,3.1-6.7
		c4.2-6.9,11.4-13.7,20.5-16.1h0c3.3-0.9,6.8-1.1,10.6-0.6h0c0.5,0.1,1,0.2,1.5,0.3c14.6,3.8,26.6,13.9,27.6,20.9v0
		C343.8,354.6,343.6,355.9,342.9,356.9z"/>
	<path class="st0" d="M267.5,352.8c-0.1,0.2-0.2,0.4-0.3,0.6c-0.5,0.7-0.9,1.6-1.5,2.5c-8.3,4.7-15.7,15-19.5,23.4h0
		c-1.5,0.8-3.2,1.6-4.9,2.2c-0.5-0.1-0.9-0.1-1.3-0.2c0,0,0,0,0,0c-2.7-0.5-5.2-1.4-7.7-2.6c0.7-7.9-10.9-23.1-26.4-27.2
		c-0.4-0.1-0.7-0.1-1.1-0.2c0,0-0.1-0.1-0.1-0.1c0.4-0.5,0.8-1.1,1.2-1.6c4.8-7,8.8-16.7,18.4-22.4v0c2.2-1.3,4.7-2.4,7.5-3.2
		c2.6-0.7,5.6-1.2,8.9-1.4c1.1,0.5,2.2,1.1,3.4,1.8c0.4,0.2,0.8,0.5,1.3,0.8C256.7,332,270,346.7,267.5,352.8z"/>
	<path class="st0" d="M198.1,352.6c-4,6.3-12.7,17.3-27.8,23.1h0c-0.7,0.3-1.3,0.5-2,0.7c0,0,0,0,0,0c2.3-6.8-11-19.1-27.4-23.5
		c-2.7-0.5-5.3-0.7-7.7-0.5c-0.3-0.8-0.6-1.6-0.9-2.6c0.9-2.5,2.1-5.3,3.6-8.1c3.8-7.2,9.7-14.5,17.7-18c0.1,0,0.2-0.1,0.3-0.1
		c2.8-1.2,5.9-1.9,9.3-2c0.8,0.5,1.5,0.9,2.3,1.4c0,0,0,0.1,0,0.2c0.1,0,0.1,0,0.2-0.1c13.3,8.3,27.1,18.8,31.4,26.4
		c0.3,0.6,0.6,1.2,0.8,1.8C197.9,351.7,198,352.2,198.1,352.6z"/>
	<path class="st0" d="M165.5,323.1c-0.1,0-0.1,0-0.2,0.1c0,0,0-0.1,0-0.2C165.4,323,165.4,323,165.5,323.1z"/>
	<path class="st0" d="M133.6,353.8c-0.3,0.5-0.7,1-1.1,1.5c-0.5-0.6-1-1.2-1.4-1.8c0.1-0.3,0.2-0.6,0.2-0.8c0.3-0.9,0.5-1.8,0.9-2.8
		c0.4,0.9,0.7,1.8,0.9,2.6C133.3,353,133.5,353.4,133.6,353.8z"/>
	<path class="st0" d="M132.2,349.9c-0.3,1-0.6,1.9-0.9,2.8c-7.4,1.2-13.7,5.4-18.4,10.5h0c-1.6,0.5-3.2,0.9-5,1.5
		c-2-2.6-5.1-4.9-10.4-6.6c-0.5-0.2-1-0.3-1.5-0.5c-6-9.9-4.4-23.3,0.5-31.8v0c1.2-2.1,2.5-3.8,4-5.2c0,0,0,0,0,0
		c1-0.4,2-0.8,2.9-1.3c-0.4,1.3-0.8,2.6-1.1,3.8c7.4,9.6,15.9,19.5,23.7,22.6c1.3-0.4,2.6-0.9,3.8-1.4
		C130.8,346.3,131.6,348.2,132.2,349.9z"/>
	<path class="st0" d="M103.5,319.2c-0.9,0.5-1.9,0.9-2.9,1.3c1-0.9,2.1-1.7,3.2-2.2c0.3-0.2,0.6-0.3,0.9-0.4l0.8,0.2
		C104.8,318.5,104.2,318.8,103.5,319.2z"/>
	<path class="st0" d="M97.7,359.9c-0.6-0.8-1.2-1.5-1.6-2.3c0.5,0.1,1,0.3,1.5,0.5C97.6,358.7,97.7,359.3,97.7,359.9z"/>
	<path class="st0" d="M133.6,353.8c-0.3,0.5-0.7,1-1.1,1.5c-0.5-0.6-1-1.2-1.4-1.8c0.1-0.3,0.2-0.6,0.2-0.8c0.3-0.9,0.5-1.8,0.9-2.8
		c0.4,0.9,0.7,1.8,0.9,2.6C133.3,353,133.5,353.4,133.6,353.8z"/>
	<path class="st0" d="M114.5,394.8c-6.6,2.4-6.4,2.8-7.6,8.8c-0.2,0.1-0.3,0.1-0.5,0.2c-1.2-1.4-2.4-3.1-3.6-5.1c0,0,0,0,0,0
		c-7.1-12.3-12.6-34-7.3-41.1c0.2,0,0.4,0.1,0.6,0.2c0.5,0.8,1,1.6,1.6,2.3c0-0.6-0.1-1.3-0.1-1.9c5.3,1.7,8.4,4,10.4,6.6
		c0.7,0.9,1.2,1.8,1.6,2.7c-2.3,3.3-4,6.8-4.8,9.8c2.3,3,5,7,8.2,11.3C113.7,390.6,114.4,392.7,114.5,394.8z"/>
	<path class="st0" d="M97.7,359.9c-0.6-0.8-1.2-1.5-1.6-2.3c0.5,0.1,1,0.3,1.5,0.5C97.6,358.7,97.7,359.3,97.7,359.9z"/>
	<path class="st0" d="M168.4,380.8c0.3,3.5-0.7,7-2.6,10.3c-7.1,3.5-15.4,10.2-20,16.6c-1.6,0.7-3.3,1.4-5,2c-0.3,0-0.7-0.1-1-0.2h0
		c-6.8-7.7-14.5-14.2-21.5-16c-0.4,0.1-0.7,0.3-1,0.4c-1.5-1.8-2.9-3.5-4.2-5.3c-3.2-4.2-5.9-8.3-8.2-11.3c0.8-3,2.4-6.5,4.8-9.8
		c1-1.4,2.1-2.9,3.4-4.2h0c4.7-5.1,11-9.3,18.4-10.5c-0.1,0.3-0.2,0.6-0.2,0.8c0.5,0.6,0.9,1.2,1.4,1.8c0.4-0.4,0.8-0.9,1.1-1.5
		c-0.1-0.4-0.3-0.9-0.5-1.4c2.5-0.2,5.1-0.1,7.7,0.5c16.5,4.3,29.7,16.7,27.4,23.5h0c-0.1,0.4-0.3,0.7-0.5,1.1
		C168.2,378.6,168.4,379.7,168.4,380.8z"/>
	<path class="st0" d="M133.6,353.8c-0.3,0.5-0.7,1-1.1,1.5c-0.5-0.6-1-1.2-1.4-1.8c0.1-0.3,0.2-0.6,0.2-0.8c0.6-0.1,1.2-0.2,1.8-0.2
		C133.3,353,133.5,353.4,133.6,353.8z"/>
	<path class="st0" d="M232.2,378.6c-0.1,0.9-0.3,1.8-0.8,2.4c-0.3,0.4-0.5,0.8-0.8,1.2c-8.5,3-15.7,11.2-19.5,19.2
		c-1.7,0.8-3.5,1.6-5.5,2.3c-1.8-0.2-3.5-0.6-5.3-1c-6.5-6.4-15.3-11.3-24.2-13.6c-0.1,0-0.2-0.1-0.4-0.1l0,0
		c-2.9-2.7-5.4-5.5-7.5-8.1c0.4-1.5,1-3.3,1.9-5.1h0c15.1-5.8,23.8-16.8,27.8-23.1c-0.1-0.4-0.2-0.9-0.4-1.4
		c2.3-0.4,4.6-0.4,7.1-0.1c0.4,0.1,0.7,0.1,1.1,0.2C221.4,355.5,233,370.7,232.2,378.6z"/>
	<path class="st0" d="M310.9,384.5c-0.2,0.3-0.3,0.5-0.5,0.8v0c-10.3,6.1-21.4,16.1-24.5,24.6c-0.2,0.1-0.4,0.2-0.6,0.3
		c-0.3-0.1-0.5-0.1-0.7-0.2c-1.2,0.4-2.4,1-3.6,1.6c-2.4-0.3-4.6-0.9-6.8-1.7v0c-5.1-9.4-17.7-22.4-29.3-27.2
		c0.4-1.1,0.9-2.2,1.4-3.4h0c3.8-8.4,11.2-18.8,19.5-23.4c1.8-1,3.6-1.8,5.5-2.2c0.3,0.1,0.7,0.1,1,0.2c0.4-0.2,0.9-0.3,1.3-0.5h0
		c0.8,0,1.5,0,2.3,0c1.3,0.5,2.8,1.2,4.5,2c10.1,5.2,25.8,16.7,30,24.2C311.4,381.6,311.7,383.3,310.9,384.5z"/>
	<path class="st0" d="M273.5,353.4c-0.4,0.2-0.9,0.3-1.3,0.5c-0.3-0.1-0.7-0.1-1-0.2C272,353.5,272.8,353.4,273.5,353.4z"/>
	<path class="st0" d="M285.3,410.1c-1.2,0.6-2.5,1.1-3.8,1.5c-0.2,0-0.4,0-0.5-0.1c1.2-0.6,2.4-1.2,3.6-1.6
		C284.8,410,285,410,285.3,410.1z"/>
	<path class="st0" d="M361,408.4L361,408.4c-1.4,0.6-2.8,1.1-4.3,1.3c-0.1-0.1-0.2-0.2-0.3-0.4c-0.5,0.2-1,0.4-1.5,0.5h0l0,0
		c-1.7,0.1-3.4-0.1-5.2-0.5c-2.8-1.1-5.6-3.7-8.3-6.9c0,0,0,0,0,0l0,0c-2.7-5.7-6.4-11.8-11.7-16.2h0c-0.9-1.2-1.8-2.4-2.6-3.6
		c0.2-0.7,0.4-1.3,0.6-2c2.1-5.6,6.8-12,12.4-17.5c5.4-5.3,11.7-9.7,17.4-11.7c0.5,0.2,1,0.3,1.6,0.5c7.4,2.8,12.1,9,14.5,16.3
		c0.1,0.4,0.2,0.7,0.3,1.1C378.1,384.2,372.8,403,361,408.4z"/>
	<path class="st0" d="M341.4,402.5c-4-4.7-7.8-10.8-11.7-16.2C335,390.7,338.7,396.8,341.4,402.5z"/>
	<path class="st0" d="M356.7,409.7c-0.6,0.1-1.1,0.1-1.7,0.2c0.5-0.2,1-0.4,1.5-0.5C356.5,409.5,356.6,409.6,356.7,409.7z"/>
	<path class="st0" d="M345.7,413.6c-11.4,4.9-24.9,12.2-28.8,19.9c-1.5-0.7-3.4-1.5-5.4-2.6c-6.1-8.4-15.3-17.5-25.8-20.7
		c0-0.1,0.1-0.3,0.1-0.4c3.1-8.4,14.2-18.5,24.5-24.6v0c2.2-1.3,4.3-2.4,6.4-3.3h0c0.9-0.4,1.8-0.8,2.6-1c1.6,0.4,3.1,1,4.5,1.7
		c2.1,1,4,2.3,5.8,3.8h0c3.8,5.4,7.7,11.5,11.7,16.2l0,0c0,0,0,0,0,0C343.3,406.7,344.7,410.7,345.7,413.6z"/>
	<path class="st0" d="M341.4,402.5c-4-4.7-7.8-10.8-11.7-16.2C335,390.7,338.7,396.8,341.4,402.5z"/>
	<path class="st0" d="M276.2,414.8c-6.9,5.6-12.5,14.1-15.5,21.7h0c-1.7,1.1-3.5,2.2-5.6,3.1c-7.2-5.5-19.2-9.8-29.4-12.5
		c-2.4-1.1-4.8-1.7-7.3-1.8c-3.8-3.4-7.1-6.7-9.4-9.7c-0.1-0.3-0.2-0.6-0.3-0.9c0,0,0,0,0,0c-0.7-3.6,0.3-8.4,2.6-13.3
		c3.8-8,10.9-16.2,19.5-19.2c2.9-1,6-1.5,9.2-1c0,0,0,0,0,0c0.4,0.1,0.9,0.2,1.3,0.2c1.2,0.3,2.4,0.7,3.5,1.2
		c11.7,4.8,24.3,17.8,29.3,27.2v0C275.1,411.7,275.8,413.3,276.2,414.8z"/>
	<path class="st0" d="M209,415.6c-0.1-0.1-0.1-0.2-0.2-0.2c-0.1-0.2-0.1-0.4-0.1-0.7C208.8,415,208.9,415.3,209,415.6z"/>
	<path class="st0" d="M158.7,437.3c-1.5,0.5-3.1,1.2-4.7,2.2c-0.2,0-0.3,0-0.5,0c-20.3-0.8-41-23.2-47.7-31.9c0.3-1,0.5-2,0.7-2.8
		c0.1-0.4,0.2-0.8,0.3-1.2c1.3-5.9,1-6.4,7.6-8.8c0.8-0.3,1.7-0.6,2.8-1c0.3-0.1,0.7-0.2,1-0.4c7.1,1.9,14.7,8.4,21.5,16h0
		c1,1.2,2,2.3,3,3.5c0,0,0,0,0,0c-0.1,0.3-0.2,0.6-0.3,1c2.5,3.3,6.1,7.8,10,12.4C155.4,430.8,157.5,434.7,158.7,437.3z"/>
	<path class="st0" d="M152.5,426.4c-3.9-4.6-7.5-9.1-10-12.4c0.1-0.3,0.2-0.6,0.3-1C146.5,417.5,149.8,422.2,152.5,426.4z"/>
	<path class="st0" d="M261.3,451.5c-0.1,0.4-0.2,0.8-0.4,1.3c-0.7,1.1-1.6,2.3-2.8,3.6l0,0c-7.7,2.8-16,8.6-28.3,16.9
		c-1.4,0.4-2.9,0.8-4.5,1.1c0,0,0,0,0,0c-1.2,0.3-2.4,0.5-3.6,0.7c-1.7-0.7-3.4-1.6-5.1-2.9c-2.5-1.8-5-4-7.5-6.6
		c-3.7-7.5-7-13.8-10.6-18.5c0.6-3.9,1.6-7.2,2.8-10c3.2-2.5,5.6-5.5,7.5-9.3v0c2.9-1.9,6.2-2.7,9.6-2.5c2.4,0.1,4.9,0.7,7.3,1.8
		c10.2,2.7,22.2,7,29.4,12.5c1.6,1.3,3,2.6,4.1,4c0,0,0,0,0,0C259.5,446.6,260.1,449.2,261.3,451.5z"/>
	<path class="st0" d="M208.8,427.9c-1.9,3.8-4.3,6.9-7.5,9.3C203.2,432.8,205.8,429.8,208.8,427.9z"/>
	<path class="st0" d="M261.3,451.5c-1.2-2.3-1.8-4.9-2.1-7.9C261,446.1,261.9,448.7,261.3,451.5z"/>
	<path class="st0" d="M318.9,444c-0.5,0.8-1.1,1.5-1.9,2.2l0,0c-3.5,0.8-7.1,2.2-10.8,2.1c-9.3,6.1-20.7,6.6-22.4,13.6
		c-0.7,0.2-1.3,0.5-2,0.7c-2.2-0.3-4.2-0.7-6-1.1h0c-4.3-2.6-7.8-3.9-11.3-5.6c-1.4-1.3-2.4-2.8-3.2-4.4c0.6-2.8-0.3-5.4-2.1-7.9
		c0,0,0,0,0,0c-0.1-0.7-0.1-1.5-0.2-2.2c0.4-1.5,1-3.2,1.6-4.8h0c3-7.6,8.7-16.1,15.5-21.7c1.5-1.3,3.2-2.3,4.8-3.3
		c0.2,0,0.4,0.1,0.5,0.1c1.3-0.5,2.6-1,3.8-1.5c0.2,0,0.3,0.1,0.4,0.1h0c10.4,3.2,19.7,12.3,25.8,20.7
		C315.3,436.1,317.9,440.9,318.9,444z"/>
	<path class="st0" d="M261.3,451.5c-1.2-2.3-1.8-4.9-2.1-7.9C261,446.1,261.9,448.7,261.3,451.5z"/>
	<path class="st0" d="M275.9,461.5c-5-1.3-8.7-3.1-11.3-5.6C268,457.6,271.6,458.9,275.9,461.5z"/>
	<path class="st0" d="M285.3,410.1c-1.2,0.6-2.5,1.1-3.8,1.5c-0.2,0-0.4,0-0.5-0.1c1.2-0.6,2.4-1.2,3.6-1.6
		C284.8,410,285,410,285.3,410.1z"/>
	<path class="st0" d="M331.5,457.1c-0.8-0.3-1.4-0.7-2.1-1.1c0.6-0.6,1.1-1.1,1.6-1.7c-0.1-0.2-0.2-0.4-0.3-0.5
		c-2.7-5.3-5.5-7.4-8.5-7.9c-1.5-3.1-3.3-6.7-6.1-10.3c0.2-0.7,0.5-1.4,0.8-2.1c0,0,0,0,0,0c3.9-7.7,17.4-15,28.8-19.9
		c3.4-1.5,6.6-2.7,9.3-3.7l0,0h0c0.6,0,1.2-0.1,1.7-0.2c1.1,1.6,1.7,3.5,2,5.6c0,0,0,0,0,0C360.2,428.4,347,450.1,331.5,457.1z"/>
	<path class="st0" d="M356.7,409.7c-0.6,0.1-1.1,0.1-1.7,0.2c0.5-0.2,1-0.4,1.5-0.5C356.5,409.5,356.6,409.6,356.7,409.7z"/>
	<path class="st0" d="M331,454.4c-0.5,0.5-1,1.1-1.6,1.7c-0.3-0.2-0.6-0.4-0.9-0.7c0.8-0.5,1.5-1,2.2-1.6
		C330.8,454,330.9,454.2,331,454.4z"/>
	<path class="st0" d="M328.5,455.4c0.3,0.2,0.6,0.5,0.9,0.7c-7,7-21.9,15.3-32.7,17c0,0,0,0,0,0c-2.6,0.4-4.9,0.5-6.9,0
		c-2-2-3.8-3.8-5.5-5.3c-0.8-2.4-0.9-4.3-0.5-5.8c1.6-7,13-7.5,22.4-13.6c3.7,0.1,7.3-1.3,10.8-2.1l0,0c1.8-0.4,3.6-0.6,5.3-0.3
		c3,0.5,5.8,2.6,8.5,7.9C330,454.4,329.3,454.9,328.5,455.4z"/>
	<path class="st0" d="M289.8,473.1c-2.2-0.5-3.9-1.7-4.9-3.6c-0.3-0.6-0.5-1.2-0.6-1.7C286,469.3,287.9,471.1,289.8,473.1z"/>
	<path class="st0" d="M331,454.4c-0.5,0.5-1,1.1-1.6,1.7c-0.3-0.2-0.6-0.4-0.9-0.7c0.8-0.5,1.5-1,2.2-1.6
		C330.8,454,330.9,454.2,331,454.4z"/>
	<path class="st0" d="M210.3,424.2c-0.5,1.3-1,2.5-1.5,3.7v0c-3,1.9-5.6,5-7.5,9.3c-2.3,1.8-5,3.3-8.1,4.6c-0.6-0.5-1.3-0.9-2-1.3
		c-7.3,1.6-17.8-6.1-29.4-4c-3.1-3.1-6.2-6.7-9.2-10.2c-2.7-4.2-6-8.9-9.7-13.4c0,0,0,0,0,0c0.6-1.7,1.6-3.5,3-5.3
		c4.6-6.4,12.9-13.1,20-16.6c4-2,7.7-2.9,10.1-2.1l0,0c0.1,0,0.3,0.1,0.4,0.1c8.9,2.3,17.7,7.2,24.2,13.6c3.6,3.6,6.5,7.7,8.2,12
		c0,0,0,0,0,0c0,0.2,0.1,0.5,0.1,0.7c0.1,0.1,0.1,0.2,0.2,0.2C209.9,418.4,210.4,421.3,210.3,424.2z"/>
	<path class="st0" d="M152.5,426.4c-3.9-4.6-7.5-9.1-10-12.4c0.1-0.3,0.2-0.6,0.3-1C146.5,417.5,149.8,422.2,152.5,426.4z"/>
	<path class="st0" d="M208.8,427.9c-1.9,3.8-4.3,6.9-7.5,9.3C203.2,432.8,205.8,429.8,208.8,427.9z"/>
	<path class="st0" d="M209,415.6c-0.1-0.1-0.1-0.2-0.2-0.2c-0.1-0.2-0.1-0.4-0.1-0.7C208.8,415,208.9,415.3,209,415.6z"/>
	<path class="st0" d="M211.6,471c-0.2,0-0.3,0.1-0.5,0.1c-16.3,3.9-52.6-19.7-58.2-30.8c0.3-0.2,0.6-0.4,0.9-0.6
		c0.1,0,0.2-0.1,0.2-0.1c1.6-1,3.1-1.7,4.7-2.2c1-0.3,2-0.6,3.1-0.8c11.6-2.1,22.1,5.5,29.4,4c0.7,0.4,1.3,0.8,2,1.3
		c1.9,1.4,3.6,3.2,5.3,5.4c3.6,4.6,6.9,11,10.6,18.5C209.9,467.4,210.8,469.1,211.6,471z"/>
	<path class="st0" d="M291.1,474.4c-0.5,0.3-1,0.6-1.6,0.9c0,0,0,0,0,0c-11.9,5.9-48.6,8.6-58.2,0.3h0c-0.8-0.7-1.3-1.4-1.7-2.2
		c0.1-0.1,0.2-0.1,0.3-0.2c12.3-8.4,20.7-14.1,28.3-16.9l0,0c1.6-0.6,3.1-1,4.7-1.4c0.6,0.3,1.1,0.6,1.7,0.9
		c2.6,2.5,6.3,4.4,11.3,5.6h0c2.5,1.5,5.3,3.5,8.4,6.3c0.2,0.6,0.4,1.1,0.6,1.7c1,1.9,2.7,3.1,4.9,3.6
		C290.3,473.5,290.7,474,291.1,474.4z"/>
	<path class="st0" d="M275.9,461.5c-5-1.3-8.7-3.1-11.3-5.6C268,457.6,271.6,458.9,275.9,461.5z"/>
	<path class="st0" d="M289.8,473.1c-2.2-0.5-3.9-1.7-4.9-3.6c-0.3-0.6-0.5-1.2-0.6-1.7C286,469.3,287.9,471.1,289.8,473.1z"/>
</g>
<path class="st0" d="M419.7,161.8c-41.7-8.9-30.3,1.7-78.9,9.8C383.6,156.9,393.7,147.5,419.7,161.8z"/>
<g>
	<path class="st0" d="M406.2,123.3c25.2-7.8,51.2-12.7,70.5-9.7c-47.9-13.9-87.7-8.2-117.6,2.1c19.2-11.7,43.2-25.1,65.8-37.5
		c-52.2,8.7-85,24.2-104.4,35.4c17.5-14.1,51-29.5,63-62.6c-15.7,10.4-31.7,17.6-46.6,23.1c12.1-15.8,20-30.9,11.9-39.5
		c-12.7,30.4-34.6,44-53,53.1c0,0-0.1,0-0.1,0c-3.5-19.1-9.7-37.4-18-46.2C265,72,260.5,88.8,259.8,101.2
		c-5.2-14.7,4.1-41.6-37.7-67.4c14,18.4,3.2,42.6,7.7,63.4c0,0,0,0,0,0c-5.6-4-11-7.5-16.5-10.8c-23.8-15.9-51.8-35.8-80.7-53.7
		c9.1,12,25.4,27.7,42.7,43.4c-15.7-4.9-33.9-6.8-55.2-3.5c43.6,4.9,64.5,22.1,80.8,40c-21.7-1.4-49.9-1.8-79.4,1.8
		c3.1,0.6,6.2,1.1,9.3,1.5c-2.5,0.2-5,0.5-7.6,0.8c32.4,6.5,67.6,0.3,81.4,16.9c0.7,1.1,1.4,2.4,1.9,3.7
		c-20.9-2.1-54.1,0.6-83.9,29.1c36.7-15.6,82.2-32,87.9-0.5c63.9,1.3,101,9.9,133.8,29.2c-9.2-23.7,59.1-33.2,89.1-17.4
		c-5-12.4-12.3-19.6-20.9-23.5c25.1-3.2,47.9-7.3,49.8-17.4c-18.6,1.4-63.2,8.1-97.3,10.1C380,139.6,398,132.5,406.2,123.3z"/>
	<polygon class="st0" points="210.5,166 210.5,166 210.5,166 	"/>
</g>
</svg>
