<?xml version="1.0" encoding="utf-8"?>
<!-- Generator: Adobe Illustrator 22.1.0, SVG Export Plug-In . SVG Version: 6.00 Build 0)  -->
<svg version="1.1" id="Layer_1" xmlns="http://www.w3.org/2000/svg" xmlns:xlink="http://www.w3.org/1999/xlink" x="0px" y="0px"
	 viewBox="0 0 1077 1280" style="enable-background:new 0 0 1077 1280;" xml:space="preserve">
<style type="text/css">
	.st0{fill:none;stroke:#000000;stroke-width:2;stroke-miterlimit:10;}
</style>
<g transform="translate(0.000000,1280.000000) scale(0.100000,-0.100000)">
	<path class="st0" d="M1461.3,12319.4c195.6-267.3,472.2-580.3,856.9-970.6c112.7-114.6,200.3-207.7,195.6-207.7
		c-4.7,0-43.8,11.2-86.6,23.3c-345.6,101.5-809.4,130.4-1183.9,73.6c-48.4-6.5-92.2-13-97.8-14c-4.7-0.9,30.7-6.5,79.2-14
		c280.4-41,578.4-119.2,824.3-218c112.7-44.7,341.8-164.9,448-235.7c219.8-144.4,415.4-315.8,611-536.5
		c65.2-73.6,117.4-136,115.5-137.9c-1.9-1.9-65.2,0.9-141.6,6.5c-231.9,16.8-851.3,22.4-1098.2,10.2
		c-246.8-12.1-487.1-30.7-666-52.2c-64.3-7.5-123-14-130.4-14.9c-20.5-1.9,139.7-35.4,172.3-36.3c50.3-1.9-3.7-16.8-87.6-24.2
		c-41.9-2.8-74.5-8.4-71.7-10.2c6.5-7.5,258.9-47.5,389.3-63.3c69.9-7.5,266.4-24.2,437.8-37.3c379.1-27.9,534.7-45.6,690.2-75.4
		c262.7-51.2,453.6-147.2,565.4-286c46.6-56.8,82-114.6,74.5-121.1c-2.8-1.9-38.2,0-79.2,3.7c-173.3,16.8-405.2,5.6-612-29.8
		c-408.9-68.9-795.5-241.2-1134.5-505.8c-76.4-59.6-326-286.9-321.4-292.5c1.9-1.9,50.3,18.6,108,45.6
		c463.9,211.4,811.3,340.9,1108.4,412.6c357.7,84.8,634.3,71.7,805.7-39.1c102.5-67.1,193.7-192.8,225.4-311.1l9.3-35.4l-66.1-18.6
		c-248.7-72.7-457.3-164.9-614.8-272.9c-89.4-61.5-177-150.9-194.7-199.3c-7.5-21.4-16.8-30.7-30.7-30.7
		c-26.1,0-133.2-56.8-213.3-111.8c-163-113.6-316.7-270.1-412.6-421c-50.3-79.2-53.1-82-130.4-120.2
		c-320.4-158.3-740.5-652.9-772.2-909.1c-7.5-60.5-81-255.2-113.6-303.7c-60.5-87.6-99.7-185.4-85.7-211.4c7.5-13,2.8-21.4-22.4-41
		c-50.3-38.2-115.5-132.3-174.2-252.4c-83.8-173.3-140.6-363.3-172.3-581.2c-19.6-136-14-361.4,10.2-438.7
		c18.6-58.7,18.6-71.7,9.3-167.7c-4.7-41-15.8-87.6-27.9-111.8c-105.3-211.4-114.6-521.6-20.5-717.2l21.4-43.8l-22.4-47.5
		c-60.5-134.1-38.2-392.1,59.6-689.3c44.7-137.9,188.2-449,224.5-487.1c20.5-22.4,22.4-27.9,13-60.5c-9.3-34.5-8.4-36.3,43.8-100.6
		c76.4-95.9,328.8-346.5,421-419.2c245.9-194.7,504.8-324.1,694.9-346.5c47.5-5.6,51.2-8.4,74.5-49.4c14-23.3,61.5-80.1,105.3-124.8
		C2335,1077.7,2823.1,794.6,3176.1,707c62.4-14.9,114.6-20.5,204.9-21.4c147.2-1.9,211.4-14.9,281.3-56.8
		c67.1-41,82-43.8,132.3-32.6c56.8,12.1,174.2-10.2,231.9-45.6c120.2-74.5,305.5-106.2,612-106.2c345.6-0.9,561.7,30.7,833.6,120.2
		c203.1,66.1,216.1,70.8,274.8,84.8c241.2,59.6,552.4,218,742.4,379.1c57.8,48.4,60.5,50.3,84.8,37.3c22.4-11.2,28.9-10.2,64.3,7.5
		c88.5,44.7,185.4,119.2,282.2,217c166.7,167.7,288.8,360.5,353,557.9c31.7,99.7,59.6,266.4,46.6,286.9c-2.8,4.7,8.4,49.4,26.1,97.8
		l30.7,88.5l63.3,42.8c140.6,93.1,247.8,278.5,291.5,502.1c21.4,108,21.4,316.7,0,411.7c-8.4,37.3-14.9,73.6-14.9,80.1
		c0,7.5,27,30.7,61.5,52.2c120.2,78.2,202.1,195.6,251.5,358.6c43.8,144.4,34.5,382.8-20.5,513.2c-15.8,38.2-5.6,92.2,33.5,171.4
		c80.1,162.1,114.6,320.4,115.5,535.6c0,224.5-37.3,396.8-124.8,567.3c-45.6,88.5-195.6,538.4-195.6,585c0,41-40.1,180.7-70.8,248.7
		c-12.1,27-45.6,88.5-73.6,136c-64.3,108-118.3,231-139.7,321.4c-69.9,293.4-248.7,597.1-517,878.4l-104.3,109l9.3,55
		c45.6,259.9,386.6,450.8,942.6,529.1c148.1,20.5,582.2,23.3,717.2,4.7c249.6-35.4,451.8-92.2,602.6-168.6
		c31.7-15.8,60.5-28.9,63.3-28.9c6.5,0-27.9,83.8-70.8,169.5c-104.3,209.6-239.4,362.3-412.6,466.7l-53.1,32.6l77.3,10.2
		c169.5,24.2,457.3,78.2,583.1,109c343.7,83.8,535.6,190,594.3,328.8c18.6,44.7,16.8,48.4-21.4,42.8c-19.6-2.8-95.9-11.2-170.5-18.6
		c-74.5-8.4-356.7-43.8-628.7-79.2c-852.3-111.8-1031.1-131.3-1597.4-181.6c-32.6-2.8-57.8-3.7-55.9-0.9
		c2.8,1.9,118.3,63.3,256.1,136c455.5,240.3,585,322.3,740.5,471.3c68.9,65.2,71.7,67.1,186.3,104.3
		c596.1,194.7,1169.9,288.8,1545.3,254.3c63.3-5.6,117.4-9.3,118.3-7.5c11.2,11.2-465.7,128.5-648.3,159.3
		c-436.9,74.5-906.3,83.8-1345.9,27.9c-305.5-39.1-647.4-122-949.1-231.9c-61.5-22.4-113.6-40.1-114.6-38.2
		c-8.4,8.4,1164.3,747,1629.1,1025.5c50.3,29.8,90.4,55,88.5,56.8c-4.7,4.7-401.5-81-588.7-127.6
		c-398.7-99.7-775.9-223.5-1148.5-377.2c-178.8-73.6-569.1-266.4-733.1-361.4c-147.2-85.7-130.4-70.8,186.3,169.5
		c284.1,215.2,424.7,330.7,564.5,463.9c254.3,243.1,415.4,451.8,544.9,705.1c55.9,109,124.8,272,124.8,294.3
		c0,5.6-39.1-17.7-85.7-51.2c-263.6-187.2-636.2-390.3-1003.2-547.7c-79.2-33.5-144.4-61.5-146.2-61.5s37.3,62.4,87.6,137.9
		c158.3,241.2,248.7,424.7,290.6,594.3c16.8,64.3,19.6,100.6,16.8,177c-2.8,86.6-6.5,100.6-35.4,158.3
		c-18.6,35.4-37.3,62.4-41.9,60.5c-5.6-1.9-22.4-36.3-38.2-75.4c-82.9-204.9-213.3-434.1-355.8-623.1
		c-97.8-130.4-315.8-353-446.2-455.5c-137.9-109-464.8-321.4-508.6-330.7c-3.7-0.9-24.2,75.4-42.8,170.5
		c-89.4,433.1-205.9,776.8-334.4,989.2c-52.2,84.8-91.3,136-97.8,128.5c-8.4-8.4-144.4-385.6-204.9-569.1
		c-139.7-419.2-219.8-743.3-249.6-1014.4l-11.2-107.1l-12.1,46.6c-12.1,43.8-19.6,108-55,423.8c-29.8,267.3-77.3,450.8-167.7,639.9
		c-136,285-336.3,511.4-677.2,764.7c-62.4,45.6-70.8,48.4-46.6,14c27.9-40.1,81-150.9,103.4-217c58.7-169.5,76.4-363.3,62.4-683.7
		c-13-302.7-12.1-746.1,1.9-810.4c5.6-30.7,9.3-56.8,6.5-59.6c-1.9-1.9-24.2,12.1-48.4,32.6c-76.4,62.4-233.8,173.3-417.3,293.4
		c-96.9,64.3-361.4,254.3-587.7,423.8c-639.9,479.7-1296.6,955.7-1461.4,1060.9l-27.9,17.7L1461.3,12319.4z"/>
</g>
</svg>
