<?xml version="1.0" encoding="UTF-8"?>
<svg viewBox="0 0 640.84 190.05" xmlns="http://www.w3.org/2000/svg">
 <defs>
  <radialGradient id="a" cx="388.75" cy="1138.2" r="320.25" gradientTransform="matrix(1 0 0 .26677 0 605.78)" gradientUnits="userSpaceOnUse">
   <stop stop-color="#2b2b2b" offset="0"/>
   <stop stop-color="#666" offset="1"/>
  </radialGradient>
 </defs>
 <path d="m538.85 113.1c0 48.578-54.261 76.958-218.65 76.958-164.38 0-215.65-22.38-215.65-70.958s52.261-104.96 216.65-104.96c164.38 0 217.65 50.38 217.65 98.959z" fill="url(#a)"/>
 <path d="m639.27 91.1c0 46.843-143.11 84.817-319.64 84.817s-319.64-37.974-319.64-84.817 143.11-84.817 319.64-84.817 319.64 37.974 319.64 84.817z" fill="#f2f2f2"/>
 <path d="m640.84 84.817c0 46.844-143.1 84.818-319.64 84.818-176.53 0-319.64-37.974-319.64-84.818 0-46.843 143.1-84.817 319.64-84.817 176.53 0 319.64 37.974 319.64 84.817z" fill="#bfbfbf"/>
 <path d="m538.75 89.529c0 24.289-95.99 43.98-214.4 43.98s-214.4-19.691-214.4-43.98 95.99-43.979 214.4-43.979 214.4 19.69 214.4 43.979z" fill="#e5e5e5" stroke="#999" stroke-width="5.478"/>
</svg>
