<?xml version="1.0" standalone="no"?>
<!DOCTYPE svg PUBLIC "-//W3C//DTD SVG 20010904//EN"
 "http://www.w3.org/TR/2001/REC-SVG-20010904/DTD/svg10.dtd">
<svg version="1.0" xmlns="http://www.w3.org/2000/svg"
 width="1280.000000pt" height="1193.000000pt" viewBox="0 0 1280.000000 1193.000000"
 preserveAspectRatio="xMidYMid meet">
<g transform="translate(0.000000,1193.000000) scale(0.100000,-0.100000)"
fill="#000000" stroke="none">
<path d="M5845 11044 c-16 -8 -59 -37 -95 -64 -36 -28 -87 -65 -115 -84 -111
-75 -213 -271 -235 -453 -22 -178 17 -438 87 -578 61 -121 202 -251 498 -462
124 -88 209 -135 333 -184 54 -21 98 -44 100 -52 4 -17 -72 -166 -208 -407
-82 -146 -122 -207 -194 -290 -137 -157 -194 -204 -296 -243 -36 -14 -77 -28
-91 -31 -15 -3 -40 -18 -57 -34 l-30 -28 -7 -181 -8 -182 -50 -11 c-76 -16
-121 -57 -143 -131 -13 -44 -25 -64 -40 -69 -22 -9 -44 -56 -79 -171 -53 -174
-75 -212 -140 -246 -25 -14 -66 -15 -285 -10 -252 6 -354 13 -910 62 -477 43
-771 107 -858 189 -19 17 -58 72 -89 121 -92 151 -104 166 -220 285 -76 78
-128 124 -165 142 -79 40 -204 62 -310 55 -82 -5 -92 -9 -168 -54 -95 -57
-115 -85 -218 -310 -64 -138 -71 -150 -111 -172 -51 -28 -89 -85 -113 -170 -9
-35 -38 -118 -62 -185 -72 -192 -74 -221 -85 -1025 l-9 -705 28 -56 c33 -66
123 -211 221 -355 58 -86 98 -130 146 -158 11 -7 390 17 465 29 43 6 58 24
158 174 93 140 158 217 207 244 23 13 84 34 134 46 86 20 102 21 233 10 78 -6
260 -31 406 -55 146 -24 434 -67 640 -95 363 -49 489 -74 710 -141 101 -31
134 -69 163 -184 25 -102 36 -212 42 -430 9 -358 23 -520 52 -594 51 -133 121
-196 287 -261 l88 -34 -35 -30 c-20 -17 -40 -40 -45 -51 -5 -11 -11 -87 -13
-170 -3 -132 -1 -153 15 -177 10 -15 20 -45 23 -68 5 -39 5 -40 -23 -40 -32 0
-66 -24 -83 -57 -7 -14 -11 -90 -11 -205 l0 -183 40 -50 c69 -87 96 -111 187
-167 109 -67 293 -125 522 -164 79 -13 99 -20 120 -43 20 -21 43 -31 95 -41
88 -16 272 -8 317 16 31 16 103 24 360 43 118 9 158 17 304 61 167 50 181 57
352 165 l48 30 17 130 c9 72 17 167 17 213 1 77 -1 83 -21 91 -23 8 -23 10
-16 137 3 71 6 177 7 235 l1 105 -35 41 -35 41 54 31 c29 17 60 31 67 31 20 0
112 45 148 71 69 51 115 169 165 419 57 286 180 554 296 646 143 113 451 87
852 -73 303 -120 459 -235 591 -435 95 -145 152 -274 262 -595 132 -386 141
-404 214 -451 123 -79 297 -133 491 -153 329 -34 898 -15 1075 37 123 35 233
128 259 217 18 62 21 135 6 187 -5 19 -16 119 -24 221 -40 488 -114 797 -285
1195 -62 144 -94 207 -209 399 -121 203 -226 340 -434 565 -135 147 -370 339
-527 430 -124 72 -336 168 -444 201 -56 17 -167 51 -247 76 -249 78 -492 143
-643 172 -244 47 -499 123 -585 174 -30 18 -68 50 -86 72 -55 67 -62 83 -194
447 -33 91 -70 184 -80 205 -25 48 -96 114 -154 144 -23 12 -47 27 -51 33 -11
15 0 162 20 263 19 98 29 78 -123 253 -205 238 -294 369 -370 544 -30 71 -70
151 -89 179 -19 28 -33 53 -30 55 7 8 138 32 250 48 170 23 267 49 327 87 29
19 80 42 113 51 170 49 278 176 344 407 24 84 31 126 31 197 0 178 -34 343
-107 514 -39 91 -55 117 -112 175 -60 63 -72 70 -141 90 -201 58 -280 56 -555
-15 -140 -36 -261 -45 -419 -32 -154 13 -224 27 -331 67 -145 54 -355 190
-520 337 -128 113 -208 161 -321 190 -75 19 -159 19 -199 0z"/>
</g>
</svg>
