<?xml version="1.0" encoding="utf-8"?>
<!-- Generator: Adobe Illustrator 22.1.0, SVG Export Plug-In . SVG Version: 6.00 Build 0)  -->
<svg version="1.1" id="Layer_1" xmlns="http://www.w3.org/2000/svg" xmlns:xlink="http://www.w3.org/1999/xlink" x="0px" y="0px"
	 viewBox="0 0 888 1280" style="enable-background:new 0 0 888 1280;" xml:space="preserve">
<style type="text/css">
	.st0{fill:none;stroke:#000000;stroke-width:3;stroke-miterlimit:10;}
</style>
<g transform="translate(0.000000,1280.000000) scale(0.100000,-0.100000)">
	<path class="st0" d="M2720,12777c-30-12-106-53-167-90c-146-88-191-107-277-118c-98-13-218,2-411,51c-264,67-422,55-562-41
		c-49-34-89-97-98-155c-7-42,16-156,42-207c23-45,83-107,126-129c57-28,117-26,367,17c330,57,555,59,660,5c19-10,51-34,69-54
		c19-20,43-36,53-36c16,0,18-12,18-134v-133l-31-7c-17-3-89-38-160-77c-145-80-229-102-350-92c-62,5-69,4-92-19
		c-36-37-45-115-21-200c4-12,23-21,63-29l57-11l-4-53c-6-78,2-100,54-136l47-32l-7-176c-7-160-10-180-31-217c-37-63-111-131-203-185
		c-79-47-86-49-155-49c-100,1-140,12-206,59c-62,43-139,67-169,52c-9-5-206-19-437-30c-231-12-522-27-647-33l-226-12l-6-101
		c-3-55-8-308-11-563c-5-374-4-463,7-466c7-2,303-27,658-55c355-29,666-55,691-58c39-4,47-2,51,14c8,29,118,82,220,104
		c156,34,233,30,585-34c404-74,476-75,873-11c465,74,771,104,878,85c128-23,209-77,251-167c37-77,61-254,61-442c0-97,5-182,11-201
		c11-32,22-37,154-69c34-9,24-10-67-11l-108-1l-5-2147c-2-1182-5-2182-7-2223c-2-64,2-82,24-125c71-135,225-198,370-149
		c76,25,159,110,184,188c20,63,20,63,98,31l38-16l-60-38c-77-50-127-117-154-204c-26-88-20-148,27-259c12-28-21-22-100,17
		c-45,23-91,38-128,42c-58,6-65,11-46,30c18,18,14,98-7,134c-44,75-158,102-238,56c-108-61-104-197,7-258l47-25l-38-36l-37-37
		l-217-7c-120-4-218-10-218-15c0-4,18-30,41-59c22-28,39-53,37-55c-1-2-104,75-226,172c-123,96-225,173-226,171c-2-2-47-64-101-138
		s-99-137-101-138c-1-2-53,37-114,87s-114,91-118,91c-4-1-44-52-90-116l-83-115l102-97l101-97l-76-112l-76-111l65-57
		c36-32,65-61,65-65c0-5-30-45-66-90l-67-82l44-43c24-23,194-185,378-361c184-175,455-436,601-580c147-143,294-282,328-307
		c198-153,462-273,747-340c136-32,369-67,451-67h60l505-490C6268,221,6499,2,6504,3c26,8,975,814,973,827c-1,8-135,103-297,212
		c-605,406-721,487-1023,711l-188,140l7,71c4,39,8,73,10,75s171-13,376-34c397-40,486-42,609-10c230,59,430,256,505,498
		c15,50,21,57,39,53c76-18,1359-236,1363-231c4,3-1,18-10,32c-8,14-206,347-439,739c-343,578-429,715-449,721c-14,4-189-1-390-10
		c-438-21-918-44-1055-51l-100-5l-70,56c-253,203-647,409-1047,546c-17,6-18,115-18,2097v2090l-167,1l-168,1l68,14
		c78,15,243,58,302,78c71,24,75,50,50,329c-18,209-47,408-80,552c-33,147-112,309-191,395c-190,205-671,400-1184,480
		c-261,41-313,61-372,145c-53,76-68,149-68,324v156l69,48c74,52,81,66,81,163c0,40,1,42,39,48c21,3,44,12,50,20c34,40,19,216-19,236
		c-10,6-61,10-112,10c-71,0-115,6-183,26c-115,33-151,52-227,120c-35,31-71,59-81,63c-16,6-18,21-18,141c0,122,1,135,18,139
		c10,2,40,23,66,47c75,67,126,79,332,78c150,0,195-4,385-38c118-21,241-38,272-38c139,0,248,126,265,308c5,51,2,70-16,108
		c-55,112-192,176-381,177c-78,0-124-7-260-41c-206-50-320-64-419-50c-89,12-129,29-269,113c-155,93-189,109-251,113
		C2788,12800,2762,12795,2720,12777z"/>
</g>
</svg>
