<?xml version="1.0" encoding="utf-8"?>
<!-- Generator: Adobe Illustrator 22.1.0, SVG Export Plug-In . SVG Version: 6.00 Build 0)  -->
<svg version="1.1" id="Layer_1" xmlns="http://www.w3.org/2000/svg" xmlns:xlink="http://www.w3.org/1999/xlink" x="0px" y="0px"
	 viewBox="0 0 1092 1280" style="enable-background:new 0 0 1092 1280;" xml:space="preserve">
<style type="text/css">
	.st0{fill:none;stroke:#000000;stroke-width:3;stroke-miterlimit:10;}
</style>
<g transform="translate(0.000000,1280.000000) scale(0.100000,-0.100000)">
	<path class="st0" d="M6570,12790c-86-11-138-29-225-73c-106-54-234-180-288-283c-42-81-46-111-18-145c19-24,24-24,268-34l248-10
		l24-48c33-67,42-216,17-282c-17-43-19-45-59-45c-23,0-136-5-251-10c-196-8-210-10-232-31c-39-37-32-82,26-170
		c185-282,542-389,829-248l65,32l15-23c9-13,58-74,110-134c159-186,215-272,266-409c17-45,17-50,0-102c-13-43-17-92-17-223
		c-1-201,14-275,78-410c36-74,60-109,117-166c40-40,99-88,132-108l60-34l8-95c5-52,9-238,9-414c1-317-11-522-48-845
		c-51-451-230-1455-278-1556c-13-27-56-89-95-137c-53-65-210-276-227-305c-1-1-13,3-28,9c-141,65-458-459-711-1176
		c-13-38-37-70-104-135c-179-177-346-229-862-268c-218-17-228-17-268,1c-34,15-48,16-75,7c-38-12-70-44-82-82l-9-27l-44,42
		c-24,22-39,43-33,45c41,13,151,98,227,176c138,140,192,247,202,401c7,113-14,192-101,375c-145,304-165,402-176,855
		c-5,182-13,361-20,400c-50,316-143,600-294,900c-180,355-359,570-644,776c-247,179-347,278-453,450c-28,46-68,104-88,129
		c-36,44-36,45-33,130c5,131-39,234-131,309c-48,40-139,71-212,73c-36,1-65,5-65,8c0,9,145,171,330,370c179,193,338,381,374,442
		c38,65,50,126,36,179c-16,62-163,205-258,251c-63,31-72,33-177,33c-96-1-118-4-173-27c-223-94-419-299-641-670c-29-49-56-88-59-88
		s-157,74-342,164c-184,90-366,176-404,191s-82,36-97,47c-19,14-35,19-53,14c-71-18-544-405-799-656c-329-321-554-611-736-945
		C-2,8996-7,8979,15,8861c36-202,139-559,284-986c70-205,108-262,176-267c43-3,78-44,70-83c-3-16-9-77-12-135c-4-94-2-113,20-180
		c13-41,32-102,42-134c22-80,68-168,110-215c39-43,43-53,18-44c-16,6-16,5-4-10c20-25,158-116,187-123c15-4,37-27,59-64
		c86-141,231-239,367-247c105-6,114-9,138-49c23-41,22-43-40-71c-33-15-131-20-150-8c-6,3-10,3-10-2c1-10,75-66,119-88
		c61-30,125-45,204-45c111,0,127-11,155-104c28-91,83-178,153-245c48-46,51-51,60-120c17-136,99-288,195-361c59-44,168-100,197-100
		c9,0,17-4,17-9c0-14-71-21-112-12c-21,5-38,7-38,4c0-20,130-98,197-118c99-30,259-9,314,41c11,10,21,15,24,12
		c11-10,157-324,218-468c72-170,126-314,192-518c62-188,62-188,30-196c-30-8-65-60-65-98c0-16-5-28-11-28c-20,0-255-111-364-172
		c-60-33-207-123-325-198s-267-167-330-205c-208-124-332-278-507-630c-126-253-268-640-328-897c-30-128-29-180,5-236
		c18-29,24-32,71-32c48,0,51-1,45-22c-11-42-55-281-71-383c-8-55-25-125-37-155c-17-44-22-76-22-160c-1-123,15-184,72-280
		c43-72,146-160,242-208l55-27l3034,2c1669,2,3036,4,3038,7c2,2-5,26-16,54c-51,129-91,360-112,637c-14,200-14,775,1,1080
		c22,466,71,1182,86,1265c100,554,344,1064,876,1833c60,86,113,170,118,185c10,36-10,95-44,131l-26,27l84,180
		c202,434,460,1096,487,1250c18,103,6,403-25,604c-30,197-44,264-135,661c-139,609-171,817-171,1130c0,251,33,481,102,706
		c28,94,34,105,70,130c56,38,159,152,214,236c129,195,215,461,226,690c1,37,5,67,9,67c16,0,141-145,199-229c79-115,160-189,264-240
		c122-61,190-76,336-75c107,0,136,4,205,27c108,36,195,88,282,171c101,95,193,237,193,298c0,11-13,32-28,48l-28,28l-263,4
		c-261,4-263,4-282,27c-32,40-50,119-50,228c0,116,19,180,55,187c11,3,133,8,270,11c298,8,316,13,316,93c0,64-135,239-243,316
		c-133,94-239,128-397,128c-154,0-271-35-476-141c-54-28-103-51-109-51s-17,22-24,49c-33,130-111,235-210,286c-67,34-123,40-218,25
		l-79-12l-50,32c-71,43-143,61-247,59l-88-2l-37,36c-102,98-277,127-453,74c-42-13-48-13-70,5c-48,38-118,68-185,78
		c-84,14-171,1-294-42c-156-55-238-105-268-163l-17-35l-44,22c-62,30-155,120-217,209c-89,127-170,191-304,240c-66,24-208,52-243,48
		C6630,12798,6600,12794,6570,12790z M2400,5636c0-12-6-31-14-42c-14-19-15-19-40,5c-34,32-33,38,7,55
		C2391,5670,2400,5666,2400,5636z"/>
</g>
</svg>
