<?xml version="1.0" standalone="no"?>
<!DOCTYPE svg PUBLIC "-//W3C//DTD SVG 20010904//EN"
 "http://www.w3.org/TR/2001/REC-SVG-20010904/DTD/svg10.dtd">
<svg version="1.0" xmlns="http://www.w3.org/2000/svg"
 width="1092.000000pt" height="1280.000000pt" viewBox="0 0 1092.000000 1280.000000"
 preserveAspectRatio="xMidYMid meet">
<g transform="translate(0.000000,1280.000000) scale(0.100000,-0.100000)"
fill="#000000" stroke="none">
<path d="M6570 12790 c-86 -11 -138 -29 -225 -73 -106 -54 -234 -180 -288
-283 -42 -81 -46 -111 -18 -145 19 -24 24 -24 268 -34 l248 -10 24 -48 c33
-67 42 -216 17 -282 -17 -43 -19 -45 -59 -45 -23 0 -136 -5 -251 -10 -196 -8
-210 -10 -232 -31 -39 -37 -32 -82 26 -170 185 -282 542 -389 829 -248 l65 32
15 -23 c9 -13 58 -74 110 -134 159 -186 215 -272 266 -409 17 -45 17 -50 0
-102 -13 -43 -17 -92 -17 -223 -1 -201 14 -275 78 -410 36 -74 60 -109 117
-166 40 -40 99 -88 132 -108 l60 -34 8 -95 c5 -52 9 -238 9 -414 1 -317 -11
-522 -48 -845 -51 -451 -230 -1455 -278 -1556 -13 -27 -56 -89 -95 -137 -53
-65 -210 -276 -227 -305 -1 -1 -13 3 -28 9 -141 65 -458 -459 -711 -1176 -13
-38 -37 -70 -104 -135 -179 -177 -346 -229 -862 -268 -218 -17 -228 -17 -268
1 -34 15 -48 16 -75 7 -38 -12 -70 -44 -82 -82 l-9 -27 -44 42 c-24 22 -39 43
-33 45 41 13 151 98 227 176 138 140 192 247 202 401 7 113 -14 192 -101 375
-145 304 -165 402 -176 855 -5 182 -13 361 -20 400 -50 316 -143 600 -294 900
-180 355 -359 570 -644 776 -247 179 -347 278 -453 450 -28 46 -68 104 -88
129 -36 44 -36 45 -33 130 5 131 -39 234 -131 309 -48 40 -139 71 -212 73 -36
1 -65 5 -65 8 0 9 145 171 330 370 179 193 338 381 374 442 38 65 50 126 36
179 -16 62 -163 205 -258 251 -63 31 -72 33 -177 33 -96 -1 -118 -4 -173 -27
-223 -94 -419 -299 -641 -670 -29 -49 -56 -88 -59 -88 -3 0 -157 74 -342 164
-184 90 -366 176 -404 191 -38 15 -82 36 -97 47 -19 14 -35 19 -53 14 -71 -18
-544 -405 -799 -656 -329 -321 -554 -611 -736 -945 -103 -189 -108 -206 -86
-324 36 -202 139 -559 284 -986 70 -205 108 -262 176 -267 43 -3 78 -44 70
-83 -3 -16 -9 -77 -12 -135 -4 -94 -2 -113 20 -180 13 -41 32 -102 42 -134 22
-80 68 -168 110 -215 39 -43 43 -53 18 -44 -16 6 -16 5 -4 -10 20 -25 158
-116 187 -123 15 -4 37 -27 59 -64 86 -141 231 -239 367 -247 105 -6 114 -9
138 -49 23 -41 22 -43 -40 -71 -33 -15 -131 -20 -150 -8 -6 3 -10 3 -10 -2 1
-10 75 -66 119 -88 61 -30 125 -45 204 -45 111 0 127 -11 155 -104 28 -91 83
-178 153 -245 48 -46 51 -51 60 -120 17 -136 99 -288 195 -361 59 -44 168
-100 197 -100 9 0 17 -4 17 -9 0 -14 -71 -21 -112 -12 -21 5 -38 7 -38 4 0
-20 130 -98 197 -118 99 -30 259 -9 314 41 11 10 21 15 24 12 11 -10 157 -324
218 -468 72 -170 126 -314 192 -518 62 -188 62 -188 30 -196 -30 -8 -65 -60
-65 -98 0 -16 -5 -28 -11 -28 -20 0 -255 -111 -364 -172 -60 -33 -207 -123
-325 -198 -118 -75 -267 -167 -330 -205 -208 -124 -332 -278 -507 -630 -126
-253 -268 -640 -328 -897 -30 -128 -29 -180 5 -236 18 -29 24 -32 71 -32 48 0
51 -1 45 -22 -11 -42 -55 -281 -71 -383 -8 -55 -25 -125 -37 -155 -17 -44 -22
-76 -22 -160 -1 -123 15 -184 72 -280 43 -72 146 -160 242 -208 l55 -27 3034
2 c1669 2 3036 4 3038 7 2 2 -5 26 -16 54 -51 129 -91 360 -112 637 -14 200
-14 775 1 1080 22 466 71 1182 86 1265 100 554 344 1064 876 1833 60 86 113
170 118 185 10 36 -10 95 -44 131 l-26 27 84 180 c202 434 460 1096 487 1250
18 103 6 403 -25 604 -30 197 -44 264 -135 661 -139 609 -171 817 -171 1130 0
251 33 481 102 706 28 94 34 105 70 130 56 38 159 152 214 236 129 195 215
461 226 690 1 37 5 67 9 67 16 0 141 -145 199 -229 79 -115 160 -189 264 -240
122 -61 190 -76 336 -75 107 0 136 4 205 27 108 36 195 88 282 171 101 95 193
237 193 298 0 11 -13 32 -28 48 l-28 28 -263 4 c-261 4 -263 4 -282 27 -32 40
-50 119 -50 228 0 116 19 180 55 187 11 3 133 8 270 11 298 8 316 13 316 93 0
64 -135 239 -243 316 -133 94 -239 128 -397 128 -154 0 -271 -35 -476 -141
-54 -28 -103 -51 -109 -51 -6 0 -17 22 -24 49 -33 130 -111 235 -210 286 -67
34 -123 40 -218 25 l-79 -12 -50 32 c-71 43 -143 61 -247 59 l-88 -2 -37 36
c-102 98 -277 127 -453 74 -42 -13 -48 -13 -70 5 -48 38 -118 68 -185 78 -84
14 -171 1 -294 -42 -156 -55 -238 -105 -268 -163 l-17 -35 -44 22 c-62 30
-155 120 -217 209 -89 127 -170 191 -304 240 -66 24 -208 52 -243 48 -7 -1
-37 -5 -67 -9z m-4170 -7154 c0 -12 -6 -31 -14 -42 -14 -19 -15 -19 -40 5 -34
32 -33 38 7 55 38 16 47 12 47 -18z"/>
</g>
</svg>
