<?xml version="1.0" encoding="utf-8"?>
<!-- Generator: Adobe Illustrator 22.1.0, SVG Export Plug-In . SVG Version: 6.00 Build 0)  -->
<svg version="1.1" id="Layer_1" xmlns="http://www.w3.org/2000/svg" xmlns:xlink="http://www.w3.org/1999/xlink" x="0px" y="0px"
	 viewBox="0 0 1280 1193" style="enable-background:new 0 0 1280 1193;" xml:space="preserve">
<style type="text/css">
	.st0{fill:none;stroke:#000000;stroke-width:3;stroke-miterlimit:10;}
</style>
<g transform="translate(0.000000,1193.000000) scale(0.100000,-0.100000)">
	<path class="st0" d="M5845,11044c-16-8-59-37-95-64c-36-28-87-65-115-84c-111-75-213-271-235-453c-22-178,17-438,87-578
		c61-121,202-251,498-462c124-88,209-135,333-184c54-21,98-44,100-52c4-17-72-166-208-407c-82-146-122-207-194-290
		c-137-157-194-204-296-243c-36-14-77-28-91-31c-15-3-40-18-57-34l-30-28l-7-181l-8-182l-50-11c-76-16-121-57-143-131
		c-13-44-25-64-40-69c-22-9-44-56-79-171c-53-174-75-212-140-246c-25-14-66-15-285-10c-252,6-354,13-910,62c-477,43-771,107-858,189
		c-19,17-58,72-89,121c-92,151-104,166-220,285c-76,78-128,124-165,142c-79,40-204,62-310,55c-82-5-92-9-168-54
		c-95-57-115-85-218-310c-64-138-71-150-111-172c-51-28-89-85-113-170c-9-35-38-118-62-185c-72-192-74-221-85-1025l-9-705l28-56
		c33-66,123-211,221-355c58-86,98-130,146-158c11-7,390,17,465,29c43,6,58,24,158,174c93,140,158,217,207,244c23,13,84,34,134,46
		c86,20,102,21,233,10c78-6,260-31,406-55s434-67,640-95c363-49,489-74,710-141c101-31,134-69,163-184c25-102,36-212,42-430
		c9-358,23-520,52-594c51-133,121-196,287-261l88-34l-35-30c-20-17-40-40-45-51s-11-87-13-170c-3-132-1-153,15-177
		c10-15,20-45,23-68c5-39,5-40-23-40c-32,0-66-24-83-57c-7-14-11-90-11-205v-183l40-50c69-87,96-111,187-167c109-67,293-125,522-164
		c79-13,99-20,120-43c20-21,43-31,95-41c88-16,272-8,317,16c31,16,103,24,360,43c118,9,158,17,304,61c167,50,181,57,352,165l48,30
		l17,130c9,72,17,167,17,213c1,77-1,83-21,91c-23,8-23,10-16,137c3,71,6,177,7,235l1,105l-35,41l-35,41l54,31c29,17,60,31,67,31
		c20,0,112,45,148,71c69,51,115,169,165,419c57,286,180,554,296,646c143,113,451,87,852-73c303-120,459-235,591-435
		c95-145,152-274,262-595c132-386,141-404,214-451c123-79,297-133,491-153c329-34,898-15,1075,37c123,35,233,128,259,217
		c18,62,21,135,6,187c-5,19-16,119-24,221c-40,488-114,797-285,1195c-62,144-94,207-209,399c-121,203-226,340-434,565
		c-135,147-370,339-527,430c-124,72-336,168-444,201c-56,17-167,51-247,76c-249,78-492,143-643,172c-244,47-499,123-585,174
		c-30,18-68,50-86,72c-55,67-62,83-194,447c-33,91-70,184-80,205c-25,48-96,114-154,144c-23,12-47,27-51,33c-11,15,0,162,20,263
		c19,98,29,78-123,253c-205,238-294,369-370,544c-30,71-70,151-89,179s-33,53-30,55c7,8,138,32,250,48c170,23,267,49,327,87
		c29,19,80,42,113,51c170,49,278,176,344,407c24,84,31,126,31,197c0,178-34,343-107,514c-39,91-55,117-112,175c-60,63-72,70-141,90
		c-201,58-280,56-555-15c-140-36-261-45-419-32c-154,13-224,27-331,67c-145,54-355,190-520,337c-128,113-208,161-321,190
		C5969,11063,5885,11063,5845,11044z"/>
</g>
</svg>
