<?xml version="1.0" encoding="UTF-8"?>
<svg viewBox="0 0 435 586" xmlns="http://www.w3.org/2000/svg">
 <g fill-rule="evenodd" stroke="#000" stroke-width="2">
  <g fill="#fff2a8">
   <path d="m78.5 177.97c1-0.16667 1.5 0.58333 1.5 2.25v2.5l-1.75-1c-1.1667-0.66667-1.6667-1.4167-1.5-2.25 0.16666-0.83333 0.75-1.3333 1.75-1.5z"/>
   <path d="m156.75 230.97c1.1667-0.83333 2.6667-0.75 4.5 0.25l2.75 1.5-4.5-0.25-4.5-0.25 1.75-1.25z"/>
   <path d="m196.75 490.22c0.16667-4.3333 0.83333-6.1667 2-5.5 1.1667 0.66666 1.75 1.3333 1.75 2v1l-2 4.5c-1.3333 3-1.9167 2.3333-1.75-2z"/>
   <path d="m276.5 122.72c-1 0-1 0 0 0h1.5-1.5z"/>
   <path d="m325.5 231.97c1-0.16667 0.58334 4.0833-1.25 12.75s-3.5 15.75-5 21.25-2.6667 8.1667-3.5 8c-0.83334-0.16666-0.91666-1.4167-0.25-3.75l1-3.5 3.75-17.25 3.75-17.25 1.5-0.25z"/>
   <path d="m318.5 129.72h-1.5 1.5c1 0 1 0 0 0z"/>
  </g>
  <path d="m53.5 495.22l1-8.5 1 2c0.66666 1.3333 1.5833 4.75 2.75 10.25l1.75 8.25 1 0.5c0.66666 0.33331 6.6667 0.16669 18-0.5l17-1-1.5 2.5c-1 1.6667-4.6667 4.4167-11 8.25s-10 6.3333-11 7.5-2.9167 3-5.75 5.5-4.3333 3.8333-4.5 4l-0.25 0.25 1.75 3.75c1.1667 2.5 3 5.5 5.5 9s4.1667 5.8333 5 7c0.83334 1.1667 2.0833 3.0833 3.75 5.75s3.3333 6.3333 5 11 3 8.1667 4 10.5 1.25 3.75 0.75 4.25l-0.75 0.75-2.25-2.75c-1.5-1.8333-3.25-4.0833-5.25-6.75s-6.3333-9.8333-13-21.5-9.9167-18.917-9.75-21.75c0.16666-2.8333 1.75-5.8333 4.75-9l4.5-4.75-5.75-2.5c-3.8333-1.6667-6.0833-4.3333-6.75-8-0.66666-3.6667-0.66666-8.3333 0-14z"/>
  <path d="m186.5 44.222c3 0 4.8333 0.083328 5.5 0.25l1 0.25 2 3.75c1.3333 2.5 3.5833 4.6667 6.75 6.5s5.9167 4.9167 8.25 9.25 3.5 8.1667 3.5 11.5v5l-3.25 5.25c-2.1667 3.5-3.8333 6-5 7.5l-1.75 2.25-0.75 6.5-0.75 6.5-4 0.75c-2.6667 0.5-6 0.75-10 0.75h-6l-1.75-2.75c-1.1667-1.8333-2.0833-3.9167-2.75-6.25l-1-3.5-4-3c-2.6667-2-4.1667-3.1667-4.5-3.5l-0.5-0.5-1.5-5c-1-3.3333-1-8.5 0-15.5s3.0833-12.75 6.25-17.25l4.75-6.75 2.5-1c1.6667-0.66667 4-1 7-1zm-3 22.5l3-12 1 3c0.66667 2 2.5 7.1667 5.5 15.5s4.5 12.667 4.5 13v15.5l-2.25 0.75c-1.5 0.5-3.9167 1-7.25 1.5l-5 0.75-1.25-13c-0.83333-8.6667-0.25-17 1.75-25z"/>
  <path d="m216.75 314.47c5.1667-1.1667 8-1.6667 8.5-1.5 0.5 0.16666 3.0833 0.75 7.75 1.75s8.5 1.75 11.5 2.25 4.5 1.5833 4.5 3.25v2.5l-4.5 0.25c-3 0.16666-7.6667 0.25-14 0.25s-12.5 0.33334-18.5 1-11.833 0.83334-17.5 0.5c-5.6667-0.33334-11.75-0.25-18.25 0.25s-9.9167 0.25-10.25-0.75l-0.5-1.5 0.25-2.25c0.16667-1.5 5.75-2.75 16.75-3.75s18.167-1.3333 21.5-1c3.3333 0.33334 7.5833-0.083344 12.75-1.25z"/>
  <path d="m225.5 333.47l3.5-0.75-1.75 4.5c-1.1667 3-2 4.75-2.5 5.25s-4.4167 0.75-11.75 0.75-13-1.1667-17-3.5-6.1667-3.6667-6.5-4l-0.5-0.5 0.5-0.5c0.33333-0.33334 5.8333-0.5 16.5-0.5s17.167-0.25 19.5-0.75z"/>
  <path d="m283 126.22v-3.5h3v7h-3v-3.5z" fill="#fff2a8"/>
  <path d="m323.25 147.72l-0.25 1-2-0.25c-1.3333-0.16667-2.3333-0.083328-3 0.25l-1 0.5-5 5.5c-3.3333 3.6667-7 6.9167-11 9.75s-6.3333 4.9167-7 6.25c-0.66666 1.3333-2.25 2.6667-4.75 4s-5.3333 2.9167-8.5 4.75-9.75 4.5833-19.75 8.25-22.167 6.6667-36.5 9-28.833 4.5-43.5 6.5-27.333 3-38 3-20.167-1-28.5-3c-8.3333-2-14.167-3.8333-17.5-5.5l-5-2.5-2.75 0.75c-1.8333 0.5-1.1667 1.6667 2 3.5s9.4167 3.9167 18.75 6.25 20.667 3.8333 34 4.5c13.333 0.66667 20.333 0.83333 21 0.5 0.66667-0.33333 4.1667-0.83333 10.5-1.5s14-1.8333 23-3.5 19.5-3.3333 31.5-5 18.5-2.5 19.5-2.5h1.5l2.5-1.25c1.6667-0.83333 2.5-1.5833 2.5-2.25 0-0.66667 3.0833-1.6667 9.25-3s10.167-2.4167 12-3.25c1.8333-0.83333 3.0833-1.4167 3.75-1.75l1-0.5 2.5-3c1.6667-2 4.6667-4.1667 9-6.5s7.1667-4 8.5-5l2-1.5 3-4.5c2-3 4.6667-5.5 8-7.5s5.6667-3.25 7-3.75l2-0.75 0.75 1c0.5 0.66667 1.75 4.1667 3.75 10.5s2.5833 15.167 1.75 26.5l-1.25 17 2.25 1.5c1.5 1 3.25 2.3333 5.25 4l3 2.5 0.5 5.5c0.33334 3.6667-0.5 8.3333-2.5 14s-4.3333 14.667-7 27-5 20-7 23-5.1667 6.8333-9.5 11.5-7.1667 8.6667-8.5 12-3.1667 8.6667-5.5 16-3.75 16.5-4.25 27.5l-0.75 16.5 2.25 2c1.5 1.3333 4.25 4.3333 8.25 9s7.1667 9 9.5 13 5.75 9.4167 10.25 16.25 7.5833 10.917 9.25 12.25c1.6667 1.3333 3.75 3.0833 6.25 5.25s4 3.9167 4.5 5.25 2.8333 2.6667 7 4 7.6667 2.75 10.5 4.25 8.25 3.75 16.25 6.75 15.917 5.75 23.75 8.25c7.8333 2.5 12.667 4.1667 14.5 5 1.8333 0.83334 3.4167 1.4167 4.75 1.75l2 0.5 5.5 3.75c3.6667 2.5 5.4167 4.75 5.25 6.75l-0.25 3-1.25 0.5-1.25 0.5-9-2.75c-6-1.8333-13.5-4.5833-22.5-8.25s-16.833-6.8333-23.5-9.5c-6.6667-2.6667-11.667-5-15-7-3.3333-2-6.6667-3.75-10-5.25l-5-2.25 0.75 6c0.5 4 1.25 14 2.25 30s1.3333 24.5 1 25.5l-0.5 1.5-8.75 4.25-8.75 4.25 3.25 3.25c2.1667 2.1667 3.25 4.9167 3.25 8.25s-0.66666 6.3333-2 9-5 11.5-11 26.5-9.4167 22.667-10.25 23l-1.25 0.5 1.25-9.5c0.83334-6.3333 3.9167-15.5 9.25-27.5s7.8333-19 7.5-21c-0.33334-2-3.75-4.75-10.25-8.25s-10.167-5.6667-11-6.5c-0.83334-0.83331-1.6667-1.6667-2.5-2.5l-1.25-1.25 4.5-1.25c3-0.83331 4.9167-2.25 5.75-4.25l1.25-3 0.25 0.25c0.16666 0.16669 1.4167 0.75 3.75 1.75s5.5 0.83331 9.5-0.5 6.75-2.75 8.25-4.25l2.25-2.25 0.5-1c0.33334-0.66666-0.16666-9.1667-1.5-25.5s-2.5-26.167-3.5-29.5c-1-3.3333-3.9167-7.4167-8.75-12.25s-8.8333-9.3333-12-13.5-6.75-10.083-10.75-17.75c-4-7.6667-6.9167-11.917-8.75-12.75l-2.75-1.25-1.75 20.75c-1.1667 13.833-3.75 28.583-7.75 44.25s-8.8333 30.167-14.5 43.5-10.167 23.5-13.5 30.5c-3.3333 7-5.8333 11.333-7.5 13l-2.5 2.5-3 10c-2 6.6667-2.0833 10.25-0.25 10.75s2.9167 1.5 3.25 3l0.5 2.25-5 1.25c-3.3333 0.83331-5.8333 2.6667-7.5 5.5s-3.1667 4.6667-4.5 5.5c-1.3333 0.83331-3.3333 2.75-6 5.75l-4 4.5-11.5 0.5c-7.6667 0.33331-15 0.41669-22 0.25l-10.5-0.25-5.75-12c-3.8333-8-9.25-19.667-16.25-35s-12.667-29.833-17-43.5c-4.3333-13.667-7.8333-25.667-10.5-36s-4.8333-24.333-6.5-42-2.9167-28.167-3.75-31.5l-1.25-5-2 0.75c-1.3333 0.5-3.4167 2.6667-6.25 6.5s-5.6667 7.8333-8.5 12-4.9167 6.9167-6.25 8.25-5 4.3333-11 9-10.583 9.9167-13.75 15.75c-3.1667 5.8333-5.25 9.9167-6.25 12.25l-1.5 3.5-1-5.5c-0.66666-3.6667-1.0833-5.5833-1.25-5.75-0.16666-0.16666-0.91666-0.41666-2.25-0.75s-8.5 1.5-21.5 5.5-22 6.75-27 8.25-7.5833 1.9167-7.75 1.25l-0.25-1-0.25-3.5-0.25-3.5 9.5-4.25c6.3333-2.8333 13.167-4.9167 20.5-6.25 7.3333-1.3333 12.25-2.5833 14.75-3.75s6.3333-2.75 11.5-4.75l7.75-3 2.25-2.5c1.5-1.6667 4.5-3.75 9-6.25s8.0833-5.0833 10.75-7.75 6.0833-7.0833 10.25-13.25 8.0833-11.25 11.75-15.25l5.5-6v-10c0-6.6667-0.91667-11.583-2.75-14.75-1.8333-3.1667-4.9167-11.5-9.25-25l-6.5-20.25-2-1.25c-1.3333-0.83334-3.75-3.5-7.25-8s-6.4167-8.75-8.75-12.75-6.1667-13-11.5-27-8.5-23.833-9.5-29.5c-1-5.6667-1.1667-9.5-0.5-11.5l1-3 0.5-0.5c0.33334-0.33333 1.9167-1.1667 4.75-2.5l4.25-2 0.25-9.5 0.25-9.5-0.75-1.25c-0.5-0.83333-1.4167-2.3333-2.75-4.5l-2-3.25-4.5-1c-3-0.66667-7.8333-1.75-14.5-3.25s-10.5-2.4167-11.5-2.75c-1-0.33333-3.4167-1.75-7.25-4.25l-5.75-3.75-0.5-2c-0.33333-1.3333 0-5.1667 1-11.5s2.9167-11.583 5.75-15.75c2.8333-4.1667 6-8 9.5-11.5s5.9167-6.0833 7.25-7.75 5.5833-6.5833 12.75-14.75 12.167-14 15-17.5c2.8333-3.5 5.5833-6.9167 8.25-10.25s6.8333-8 12.5-14 9.8333-10.333 12.5-13c2.6667-2.6667 6.4167-5.75 11.25-9.25s9.3333-6.6667 13.5-9.5 10.5-6.1667 19-10 18.417-6.9167 29.75-9.25 23-3.1667 35-2.5c12 0.66667 24 3.3333 36 8s24.667 9.8333 38 15.5 25.5 10.833 36.5 15.5c11 4.6667 17.083 7.0833 18.25 7.25 1.1667 0.16667 5 2 11.5 5.5s10.917 6.9167 13.25 10.25l3.5 5-1.75 7.25c-1.1667 4.8333-3.0833 9.0833-5.75 12.75s-6.4167 7.25-11.25 10.75-10.917 6.6667-18.25 9.5l-11 4.25v12l3.25 4 3.25 4-1 7.5c-0.66666 5-1.0833 7.8333-1.25 8.5zm-140-134.25c6.8333-1.1667 10.5-1.6667 11-1.5 0.5 0.16667 6.4167 0.75 17.75 1.75s20.5 3.0833 27.5 6.25l10.5 4.75 2.5 4 2.5 4 2.5 0.75c1.6667 0.5 5.5 1.9167 11.5 4.25s11.167 4.3333 15.5 6c4.3333 1.6667 6.75 2.75 7.25 3.25l0.75 0.75 1.25-0.25c0.83334-0.16667 3.6667 0 8.5 0.5s8.5 1.3333 11 2.5 8.5833 3.4167 18.25 6.75 16.083 5.75 19.25 7.25l4.75 2.25 0.5 4c0.33334 2.6667-0.083344 5.1667-1.25 7.5s-2.25 3.9167-3.25 4.75c-1 0.83334-3.5 2.5833-7.5 5.25l-6 4h-25l-8.5-4c-5.6667-2.6667-12.667-5-21-7-8.3333-2-14.667-3.0833-19-3.25l-6.5-0.25-0.5 2.5c-0.33334 1.6667 3.1667 3.5833 10.5 5.75s16 5.4167 26 9.75 15.75 7.5833 17.25 9.75 2.4167 5.25 2.75 9.25l0.5 6-1.75 0.25c-1.1667 0.16667-8.25-0.58333-21.25-2.25s-26.667-2.5-41-2.5-27.167 0.66667-38.5 2-24.167 3.5-38.5 6.5-29.5 7.6667-45.5 14-28.417 12.083-37.25 17.25c-8.8333 5.1667-13.667 9.6667-14.5 13.5l-1.25 5.75-1.75-0.75c-1.1667-0.5-1.5833-4.25-1.25-11.25 0.33334-7 1.4167-11.833 3.25-14.5 1.8333-2.6667 3.3333-4.5 4.5-5.5s6.1667-5.25 15-12.75 16.333-13.167 22.5-17c6.1667-3.8333 8.8333-6.3333 8-7.5-0.83333-1.1667-1.75-1.5833-2.75-1.25l-1.5 0.5-9.25 6.25c-6.1667 4.1667-11.917 8.4167-17.25 12.75-5.3333 4.3333-9.9167 8.25-13.75 11.75s-8.0833 6.5833-12.75 9.25-7.5 4.0833-8.5 4.25l-1.5 0.25 2 3.25c1.3333 2.1667 2.3333 3.8333 3 5l1 1.75-1 0.25c-0.66666 0.16667-6.6667-0.25-18-1.25s-17.25-1.75-17.75-2.25l-0.75-0.75-0.5-4c-0.33333-2.6667 0.5-5.5 2.5-8.5s5.0833-6.75 9.25-11.25 7.5833-7.8333 10.25-10l4-3.25 1.5-3.5c1-2.3333 1.9167-3.8333 2.75-4.5 0.83334-0.66666 1.9167-1.8333 3.25-3.5s5.1667-5.8333 11.5-12.5 12.25-13.25 17.75-19.75 9.6667-11.167 12.5-14c2.8333-2.8333 7.3333-7 13.5-12.5s12.667-10.5 19.5-15c6.8333-4.5 11.667-7.5 14.5-9 2.8333-1.5 7.5833-3.4167 14.25-5.75s13.417-4.0833 20.25-5.25zm-115.75 200.75c1 0 2.3333 0.66667 4 2s3.25 2.9167 4.75 4.75 2.4167 3.5833 2.75 5.25l0.5 2.5-1.5 0.5c-1 0.33333-2.4167-0.91667-4.25-3.75s-3.6667-4.3333-5.5-4.5c-1.8333-0.16667-2.25 1.0833-1.25 3.75s2.3333 5.5 4 8.5 4.3333 10 8 21l5.5 16.5 3.75 3.25 3.75 3.25 0.75 1.75c0.5 1.1667 0.33334 2.5-0.5 4s-2.1667 0.83334-4-2-3.75-5.75-5.75-8.75-3.8333-6.8333-5.5-11.5-3.5-9.5-5.5-14.5-4.1667-10.833-6.5-17.5c-2.3333-6.6667-2.75-10.75-1.25-12.25s2.75-2.25 3.75-2.25zm11-36.25c1-0.16667 1.5 0.58333 1.5 2.25v2.5l-1.75-1c-1.1667-0.66667-1.6667-1.4167-1.5-2.25 0.16666-0.83333 0.75-1.3333 1.75-1.5zm55.5-23.25c0-0.66667 2-1 6-1h6l-1 22.5-1 22.5-16.5-1.75c-11-1.1667-21.333-3.25-31-6.25l-14.5-4.5-1-1c-0.66666-0.66667 0.41666-1.25 3.25-1.75s4.8333-0.16667 6 1 3.25 2.1667 6.25 3l4.5 1.25-0.5-4c-0.33334-2.6667 0.33334-4.25 2-4.75l2.5-0.75 1.5-0.25c1-0.16667 2.1667 1.75 3.5 5.75s1.8333 6.25 1.5 6.75c-0.33333 0.5 1.6667 1.1667 6 2l6.5 1.25 1.5-18 1.5-18 3.5-1.5c2.3333-1 3.5-1.8333 3.5-2.5zm110-32.25c17.333-0.5 26.083-0.41667 26.25 0.25l0.25 1-0.25 2.75c-0.16666 1.8333-13.083 3.5833-38.75 5.25s-45 4.1667-58 7.5-24.167 6.6667-33.5 10c-9.3333 3.3333-20.667 7.5833-34 12.75s-19.917 6.9167-19.75 5.25l0.25-2.5 5.25-3.25c3.5-2.1667 8.0833-4.75 13.75-7.75s12.667-6 21-9c8.3333-3 19.167-6.3333 32.5-10s26.5-6.5 39.5-8.5 28.167-3.25 45.5-3.75zm-41.5 100.75h3.5l0.25 0.25c0.16667 0.16667 0.33333 8.0833 0.5 23.75l0.25 23.5-5-0.25c-3.3333-0.16666-5.8333-0.25-7.5-0.25h-2.5l-2 2.5c-1.3333 1.6667-3.75 3.25-7.25 4.75l-5.25 2.25-0.25-3.25c-0.16667-2.1667 0-3.6667 0.5-4.5 0.5-0.83334 0.66667-2.1667 0.5-4s-0.75-2.75-1.75-2.75h-1.5l-1.75 3.25c-1.1667 2.1667-2.0833 4.9167-2.75 8.25-0.66667 3.3333-1.25 5.8333-1.75 7.5l-0.75 2.5 3 1.75c2 1.1667 4.1667 2.25 6.5 3.25s5.75 1.75 10.25 2.25 7 1.4167 7.5 2.75l0.75 2 4.5-0.25c3-0.16666 8.8333 0.58334 17.5 2.25s13.75 2.25 15.25 1.75l2.25-0.75 1.5-3c1-2 1-6.1667 0-12.5s-2.3333-12.167-4-17.5c-1.6667-5.3333-2.6667-10.667-3-16-0.33333-5.3333-0.16667-8.5 0.5-9.5l1-1.5 2.75-0.75c1.8333-0.5 5.5833-0.41667 11.25 0.25s12 0.33333 19-1 12.583-1.25 16.75 0.25c4.1667 1.5 6.75 2.75 7.75 3.75l1.5 1.5 0.5 1.5c0.33334 1 0 5.5-1 13.5s-2.1667 14.833-3.5 20.5c-1.3333 5.6667-2.25 10.417-2.75 14.25l-0.75 5.75 0.75 2.25c0.5 1.5 0.83334 2.75 1 3.75s0.83334 1.3333 2 1c1.1667-0.33334 1.25 3.3333 0.25 11s-2.8333 14-5.5 19-5.4167 9.25-8.25 12.75-6.4167 7.25-10.75 11.25-7.4167 6.75-9.25 8.25-3.6667 3.75-5.5 6.75l-2.75 4.5-5.5 2.75c-3.6667 1.8333-6.8333 3.4167-9.5 4.75s-5.5 2.3333-8.5 3c-3 0.66666-9.8333 0.5-20.5-0.5s-19.25-3.0833-25.75-6.25-11.667-6-15.5-8.5c-3.8333-2.5-8.5-5.6667-14-9.5s-11.75-9.9167-18.75-18.25-11.833-14.833-14.5-19.5c-2.6667-4.6667-5.6667-13.5-9-26.5s-5.5-23.333-6.5-31l-1.5-11.5-4-4.5-4-4.5-0.5-4c-0.33334-2.6667 0-5.6667 1-9s1.5833-5.6667 1.75-7l0.25-2 2.5 0.25c1.6667 0.16667 6 0.91667 13 2.25s12.917 1.4167 17.75 0.25c4.8333-1.1667 7.3333-2.0833 7.5-2.75 0.16667-0.66667 1.4167-1.0833 3.75-1.25l3.5-0.25 2 2c1.3333 1.3333 1.4167 2.4167 0.25 3.25-1.1667 0.83333-1.8333 2.4167-2 4.75l-0.25 3.5 7.5 0.75c5 0.5 10.75 0.66666 17.25 0.5s10.333 0.16666 11.5 1l1.75 1.25 8.5-9c5.6667-6 9.5-9.6667 11.5-11s4.1667-2 6.5-2zm-80.75 145.5l-1.75-14 3 2.25c2 1.5 7 5.5833 15 12.25s15.333 11.833 22 15.5l10 5.5-0.5 0.75c-0.33333 0.5 0.16667 1.8333 1.5 4s5.3333 5.9167 12 11.25 12.833 9.1667 18.5 11.5c5.6667 2.3333 11.833 3.8333 18.5 4.5 6.6667 0.66666 11.833 1.75 15.5 3.25l5.5 2.25-14.5 4.75c-9.6667 3.1667-17.333 4.75-23 4.75-5.6667 0-12.5-1.5-20.5-4.5s-15.083-6.4167-21.25-10.25c-6.1667-3.8333-9.8333-6.3333-11-7.5s-2.5833-2.4167-4.25-3.75-4.6667-4.6667-9-10-7.75-9.75-10.25-13.25-4.3333-9.9167-5.5-19.25zm166.25 24.25l1-0.25-1.25 15c-0.83334 10-3.0833 23-6.75 39s-9.25 32.333-16.75 49l-11.25 25-1.25-0.5c-0.83334-0.33331-2-1.5833-3.5-3.75s-3.0833-3.9167-4.75-5.25-4.75-4.9167-9.25-10.75-9.0833-14.25-13.75-25.25-8.25-17.917-10.75-20.75c-2.5-2.8333-4.0833-4.4167-4.75-4.75l-1-0.5-4 1.5c-2.6667 1-5.5833 3.4167-8.75 7.25s-6.1667 7.5-9 11-7.5833 8.5833-14.25 15.25-11.167 10.417-13.5 11.25l-3.5 1.25-1.25-2c-0.83333-1.3333-2.5833-4.6667-5.25-10s-5.5-12.5-8.5-21.5-5.8333-20.5-8.5-34.5-4-23.333-4-28v-7l7.5 9.5c5 6.3333 8.5833 10.583 10.75 12.75l5.75 5.75c1.6667 1.6667 5.5 4.1667 11.5 7.5s11.833 6.3333 17.5 9c5.6667 2.6667 11.167 4.6667 16.5 6 5.3333 1.3333 11.5 1.5 18.5 0.5s16-3.8333 27-8.5 18.75-8.9167 23.25-12.75 8.9167-8.5833 13.25-14.25 7.4167-9.75 9.25-12.25 3.0833-3.8333 3.75-4zm-30.75-248.25l-3.25-10 27 1.75c18 1.1667 28 2 30 2.5l3 0.75-2.75 5.5c-1.8333 3.6667-5.1667 7.75-10 12.25s-10.917 8.9167-18.25 13.25c-7.3333 4.3333-14.5 7.8333-21.5 10.5s-14.333 5-22 7c-7.6667 2-20.583 4.25-38.75 6.75s-28 3.8333-29.5 4c-1.5 0.16667-5.5833 0.16667-12.25 0l-10-0.25 2.5-25c1.6667-16.667 3-25.083 4-25.25l1.5-0.25 2.75 0.25c1.8333 0.16667 2.5 8.0833 2 23.75l-0.75 23.5 3.25 0.5c2.1667 0.33333 4 0.25 5.5-0.25s3-1 4.5-1.5 2.5-9.4167 3-26.75 1.75-25.917 3.75-25.75l3 0.25 1.25 0.75c0.83333 0.5 2.3333 8.75 4.5 24.75l3.25 24 15.25-2.5c10.167-1.6667 15.5-2.4167 16-2.25 0.5 0.16667 6.1667-1.3333 17-4.5s17.25-6.0833 19.25-8.75l3-4-1.5-7.5c-1-5-2.5833-10.833-4.75-17.5zm-84.5 348.75l5.75-5.75 1.5 3c1 2 2.3333 5.6667 4 11l2.5 8-6.25 14.25c-4.1667 9.5-6.8333 15.333-8 17.5-1.1667 2.1667-2.3333 4.0833-3.5 5.75l-1.75 2.5-2.75-5.5c-1.8333-3.6667-3.5833-7.5-5.25-11.5s-3.1667-8.1667-4.5-12.5l-2-6.5 3.25-3.25 7.25-7.25 9.75-9.75zm-16-262.5c1.1667-0.83333 2.6667-0.75 4.5 0.25l2.75 1.5-4.5-0.25-4.5-0.25 1.75-1.25zm40.5 293.75l2.75-7 0.75 9c0.5 6 0.66667 9.5 0.5 10.5s-1.3333 1.3333-3.5 1c-2.1667-0.33331-3.25-1.3333-3.25-3v-3c0-0.33331 0.91667-2.8333 2.75-7.5zm-0.5-34.5c0.16667-4.3333 0.83333-6.1667 2-5.5 1.1667 0.66666 1.75 1.3333 1.75 2v1l-2 4.5c-1.3333 3-1.9167 2.3333-1.75-2zm19.75-3.5l1-1 3 5c2 3.3333 4.6667 7.6667 8 13s7.6667 10 13 14l8 6-1.5 5.5c-1 3.6667-3.5833 8.9167-7.75 15.75l-6.25 10.25-1.25-2.75c-0.83333-1.8333-3.25-7.25-7.25-16.25s-7.1667-15.333-9.5-19l-3.5-5.5 1.5-12c1-8 1.8333-12.333 2.5-13zm60-364c-1 0-1 0 0 0h1.5-1.5zm6.5 3.5v-3.5h3v7h-3v-3.5zm7.75-1c0.16666-1 3.8333-0.66667 11 1s10.75 3 10.75 4v1.5l-0.25 1c-0.16666 0.66667-3.8333 0.33333-11-1s-10.75-2.5-10.75-3.5v-1.5l0.25-1.5zm34.75 106.75c1-0.16667 0.58334 4.0833-1.25 12.75s-3.5 15.75-5 21.25-2.6667 8.1667-3.5 8c-0.83334-0.16666-0.91666-1.4167-0.25-3.75l1-3.5 3.75-17.25 3.75-17.25 1.5-0.25zm-7-102.25h-1.5 1.5c1 0 1 0 0 0z"/>
 </g>
</svg>
