<?xml version="1.0" encoding="utf-8"?>
<!-- Generator: Adobe Illustrator 22.1.0, SVG Export Plug-In . SVG Version: 6.00 Build 0)  -->
<svg version="1.1" id="Layer_1" xmlns="http://www.w3.org/2000/svg" xmlns:xlink="http://www.w3.org/1999/xlink" x="0px" y="0px"
	 viewBox="0 0 435 586" style="enable-background:new 0 0 435 586;" xml:space="preserve">
<style type="text/css">
	.st0{fill:none;stroke:#000000;stroke-miterlimit:10;}
</style>
<g>
	<g>
		<path class="st0" d="M78.5,178c1-0.2,1.5,0.6,1.5,2.3v2.5l-1.8-1c-1.2-0.7-1.7-1.4-1.5-2.3C76.9,178.6,77.5,178.1,78.5,178z"/>
		<path class="st0" d="M156.8,231c1.2-0.8,2.7-0.8,4.5,0.3l2.8,1.5l-4.5-0.3l-4.5-0.3L156.8,231z"/>
		<path class="st0" d="M196.8,490.2c0.2-4.3,0.8-6.2,2-5.5c1.2,0.7,1.8,1.3,1.8,2v1l-2,4.5C197.2,495.2,196.6,494.6,196.8,490.2z"/>
		<path class="st0" d="M276.5,122.7C275.5,122.7,275.5,122.7,276.5,122.7h1.5H276.5z"/>
		<path class="st0" d="M325.5,232c1-0.2,0.6,4.1-1.3,12.8s-3.5,15.8-5,21.3s-2.7,8.2-3.5,8c-0.8-0.2-0.9-1.4-0.3-3.8l1-3.5l3.8-17.3
			l3.8-17.3L325.5,232z"/>
		<path class="st0" d="M318.5,129.7H317H318.5C319.5,129.7,319.5,129.7,318.5,129.7z"/>
	</g>
	<path class="st0" d="M53.5,495.2l1-8.5l1,2c0.7,1.3,1.6,4.8,2.8,10.3l1.8,8.3l1,0.5c0.7,0.3,6.7,0.2,18-0.5l17-1l-1.5,2.5
		c-1,1.7-4.7,4.4-11,8.2s-10,6.3-11,7.5s-2.9,3-5.8,5.5s-4.3,3.8-4.5,4l-0.3,0.3l1.8,3.8c1.2,2.5,3,5.5,5.5,9s4.2,5.8,5,7
		c0.8,1.2,2.1,3.1,3.8,5.8s3.3,6.3,5,11s3,8.2,4,10.5s1.3,3.8,0.8,4.3l-0.8,0.8l-2.3-2.8c-1.5-1.8-3.3-4.1-5.3-6.8s-6.3-9.8-13-21.5
		s-9.9-18.9-9.8-21.8c0.2-2.8,1.8-5.8,4.8-9l4.5-4.8l-5.8-2.5c-3.8-1.7-6.1-4.3-6.8-8C52.8,505.6,52.8,500.9,53.5,495.2L53.5,495.2z
		"/>
	<path class="st0" d="M186.5,44.2c3,0,4.8,0.1,5.5,0.3l1,0.3l2,3.8c1.3,2.5,3.6,4.7,6.8,6.5s5.9,4.9,8.3,9.3s3.5,8.2,3.5,11.5v5
		l-3.3,5.3c-2.2,3.5-3.8,6-5,7.5l-1.8,2.3l-0.8,6.5l-0.8,6.5l-4,0.8c-2.7,0.5-6,0.8-10,0.8h-6l-1.8-2.8c-1.2-1.8-2.1-3.9-2.8-6.3
		l-1-3.5l-4-3c-2.7-2-4.2-3.2-4.5-3.5l-0.5-0.5l-1.5-5c-1-3.3-1-8.5,0-15.5s3.1-12.8,6.3-17.3l4.8-6.8l2.5-1
		C181.2,44.6,183.5,44.2,186.5,44.2z M183.5,66.7l3-12l1,3c0.7,2,2.5,7.2,5.5,15.5s4.5,12.7,4.5,13v15.5l-2.3,0.8
		c-1.5,0.5-3.9,1-7.3,1.5l-5,0.8l-1.3-13C180.9,83.1,181.5,74.7,183.5,66.7z"/>
	<path class="st0" d="M216.8,314.5c5.2-1.2,8-1.7,8.5-1.5c0.5,0.2,3.1,0.8,7.8,1.8s8.5,1.8,11.5,2.3s4.5,1.6,4.5,3.3v2.5l-4.5,0.3
		c-3,0.2-7.7,0.3-14,0.3s-12.5,0.3-18.5,1s-11.8,0.8-17.5,0.5c-5.7-0.3-11.8-0.3-18.3,0.3s-9.9,0.3-10.3-0.8l-0.5-1.5l0.3-2.3
		c0.2-1.5,5.8-2.8,16.8-3.8s18.2-1.3,21.5-1C207.3,316.1,211.6,315.6,216.8,314.5z"/>
	<path class="st0" d="M225.5,333.5l3.5-0.8l-1.8,4.5c-1.2,3-2,4.8-2.5,5.3s-4.4,0.8-11.8,0.8s-13-1.2-17-3.5s-6.2-3.7-6.5-4
		l-0.5-0.5l0.5-0.5c0.3-0.3,5.8-0.5,16.5-0.5S223.2,334,225.5,333.5z"/>
	<path class="st0" d="M283,126.2v-3.5h3v7h-3V126.2z"/>
	<path class="st0" d="M323.3,147.7l-0.3,1l-2-0.3c-1.3-0.2-2.3-0.1-3,0.3l-1,0.5l-5,5.5c-3.3,3.7-7,6.9-11,9.8s-6.3,4.9-7,6.3
		c-0.7,1.3-2.3,2.7-4.8,4s-5.3,2.9-8.5,4.8s-9.8,4.6-19.8,8.3s-22.2,6.7-36.5,9s-28.8,4.5-43.5,6.5s-27.3,3-38,3s-20.2-1-28.5-3
		c-8.3-2-14.2-3.8-17.5-5.5l-5-2.5l-2.8,0.8c-1.8,0.5-1.2,1.7,2,3.5s9.4,3.9,18.8,6.3s20.7,3.8,34,4.5c13.3,0.7,20.3,0.8,21,0.5
		c0.7-0.3,4.2-0.8,10.5-1.5s14-1.8,23-3.5s19.5-3.3,31.5-5s18.5-2.5,19.5-2.5h1.5l2.5-1.3c1.7-0.8,2.5-1.6,2.5-2.3
		c0-0.7,3.1-1.7,9.3-3s10.2-2.4,12-3.3c1.8-0.8,3.1-1.4,3.8-1.8l1-0.5l2.5-3c1.7-2,4.7-4.2,9-6.5s7.2-4,8.5-5l2-1.5l3-4.5
		c2-3,4.7-5.5,8-7.5s5.7-3.3,7-3.8l2-0.8l0.8,1c0.5,0.7,1.8,4.2,3.8,10.5s2.6,15.2,1.8,26.5l-1.3,17l2.3,1.5c1.5,1,3.3,2.3,5.3,4
		l3,2.5l0.5,5.5c0.3,3.7-0.5,8.3-2.5,14s-4.3,14.7-7,27s-5,20-7,23s-5.2,6.8-9.5,11.5s-7.2,8.7-8.5,12s-3.2,8.7-5.5,16
		s-3.8,16.5-4.3,27.5l-0.8,16.5l2.3,2c1.5,1.3,4.3,4.3,8.3,9s7.2,9,9.5,13s5.8,9.4,10.3,16.3s7.6,10.9,9.3,12.3
		c1.7,1.3,3.8,3.1,6.3,5.3s4,3.9,4.5,5.3s2.8,2.7,7,4s7.7,2.8,10.5,4.3s8.3,3.8,16.3,6.8s15.9,5.8,23.8,8.3c7.8,2.5,12.7,4.2,14.5,5
		c1.8,0.8,3.4,1.4,4.8,1.8l2,0.5l5.5,3.8c3.7,2.5,5.4,4.8,5.3,6.8l-0.3,3l-1.3,0.5l-1.3,0.5l-9-2.8c-6-1.8-13.5-4.6-22.5-8.3
		s-16.8-6.8-23.5-9.5c-6.7-2.7-11.7-5-15-7c-3.3-2-6.7-3.8-10-5.3l-5-2.3l0.8,6c0.5,4,1.3,14,2.3,30s1.3,24.5,1,25.5l-0.5,1.5
		l-8.8,4.3l-8.8,4.2l3.3,3.3c2.2,2.2,3.3,4.9,3.3,8.3s-0.7,6.3-2,9s-5,11.5-11,26.5s-9.4,22.7-10.3,23l-1.3,0.5l1.3-9.5
		c0.8-6.3,3.9-15.5,9.3-27.5s7.8-19,7.5-21c-0.3-2-3.8-4.8-10.3-8.3s-10.2-5.7-11-6.5c-0.8-0.8-1.7-1.7-2.5-2.5l-1.3-1.3l4.5-1.3
		c3-0.8,4.9-2.3,5.8-4.3l1.3-3l0.3,0.3c0.2,0.2,1.4,0.8,3.8,1.8s5.5,0.8,9.5-0.5s6.8-2.8,8.3-4.3l2.3-2.3l0.5-1
		c0.3-0.7-0.2-9.2-1.5-25.5s-2.5-26.2-3.5-29.5c-1-3.3-3.9-7.4-8.8-12.3s-8.8-9.3-12-13.5s-6.8-10.1-10.8-17.8
		c-4-7.7-6.9-11.9-8.8-12.8l-2.8-1.3l-1.8,20.8c-1.2,13.8-3.8,28.6-7.8,44.3s-8.8,30.2-14.5,43.5s-10.2,23.5-13.5,30.5
		c-3.3,7-5.8,11.3-7.5,13l-2.5,2.5l-3,10c-2,6.7-2.1,10.3-0.3,10.8s2.9,1.5,3.3,3l0.5,2.3l-5,1.3c-3.3,0.8-5.8,2.7-7.5,5.5
		s-3.2,4.7-4.5,5.5s-3.3,2.8-6,5.8l-4,4.5l-11.5,0.5c-7.7,0.3-15,0.4-22,0.3l-10.5-0.3l-5.8-12c-3.8-8-9.3-19.7-16.3-35
		s-12.7-29.8-17-43.5c-4.3-13.7-7.8-25.7-10.5-36s-4.8-24.3-6.5-42s-2.9-28.2-3.8-31.5l-1.3-5l-2,0.8c-1.3,0.5-3.4,2.7-6.3,6.5
		s-5.7,7.8-8.5,12s-4.9,6.9-6.3,8.3s-5,4.3-11,9s-10.6,9.9-13.8,15.8c-3.2,5.8-5.3,9.9-6.3,12.3l-1.5,3.5l-1-5.5
		c-0.7-3.7-1.1-5.6-1.3-5.8c-0.2-0.2-0.9-0.4-2.3-0.8s-8.5,1.5-21.5,5.5s-22,6.8-27,8.3s-7.6,1.9-7.8,1.3l-0.3-1l-0.3-3.5L0,442.7
		l9.5-4.3c6.3-2.8,13.2-4.9,20.5-6.3c7.3-1.3,12.3-2.6,14.8-3.8s6.3-2.8,11.5-4.8l7.8-3l2.3-2.5c1.5-1.7,4.5-3.8,9-6.3
		s8.1-5.1,10.8-7.8s6.1-7.1,10.3-13.3s8.1-11.3,11.8-15.3l5.5-6v-10c0-6.7-0.9-11.6-2.8-14.8c-1.8-3.2-4.9-11.5-9.3-25L95,299.7
		l-2-1.3c-1.3-0.8-3.8-3.5-7.3-8s-6.4-8.8-8.8-12.8s-6.2-13-11.5-27S57,226.9,56,221.2c-1-5.7-1.2-9.5-0.5-11.5l1-3l0.5-0.5
		c0.3-0.3,1.9-1.2,4.8-2.5l4.3-2l0.3-9.5l0.3-9.5l-0.8-1.3c-0.5-0.8-1.4-2.3-2.8-4.5l-2-3.3l-4.5-1c-3-0.7-7.8-1.8-14.5-3.3
		s-10.5-2.4-11.5-2.8c-1-0.3-3.4-1.8-7.3-4.3l-5.8-3.8l-0.5-2c-0.3-1.3,0-5.2,1-11.5s2.9-11.6,5.8-15.8c2.8-4.2,6-8,9.5-11.5
		s5.9-6.1,7.3-7.8s5.6-6.6,12.8-14.8s12.2-14,15-17.5c2.8-3.5,5.6-6.9,8.3-10.3s6.8-8,12.5-14s9.8-10.3,12.5-13
		c2.7-2.7,6.4-5.8,11.3-9.3s9.3-6.7,13.5-9.5s10.5-6.2,19-10s18.4-6.9,29.8-9.3s23-3.2,35-2.5c12,0.7,24,3.3,36,8s24.7,9.8,38,15.5
		s25.5,10.8,36.5,15.5c11,4.7,17.1,7.1,18.3,7.3c1.2,0.2,5,2,11.5,5.5s10.9,6.9,13.3,10.3l3.5,5l-1.8,7.3c-1.2,4.8-3.1,9.1-5.8,12.8
		s-6.4,7.3-11.3,10.8s-10.9,6.7-18.3,9.5l-11,4.3v12l3.3,4l3.3,4l-1,7.5C323.8,144.2,323.4,147.1,323.3,147.7L323.3,147.7z
		 M183.3,13.5c6.8-1.2,10.5-1.7,11-1.5c0.5,0.2,6.4,0.8,17.8,1.8s20.5,3.1,27.5,6.3l10.5,4.8l2.5,4l2.5,4l2.5,0.8
		c1.7,0.5,5.5,1.9,11.5,4.3s11.2,4.3,15.5,6c4.3,1.7,6.8,2.8,7.3,3.3l0.8,0.8l1.3-0.3c0.8-0.2,3.7,0,8.5,0.5s8.5,1.3,11,2.5
		s8.6,3.4,18.3,6.8s16.1,5.8,19.3,7.3l4.8,2.3l0.5,4c0.3,2.7-0.1,5.2-1.3,7.5s-2.3,3.9-3.3,4.8c-1,0.8-3.5,2.6-7.5,5.3l-6,4h-25
		l-8.5-4c-5.7-2.7-12.7-5-21-7c-8.3-2-14.7-3.1-19-3.3l-6.5-0.3l-0.5,2.5c-0.3,1.7,3.2,3.6,10.5,5.8s16,5.4,26,9.8
		s15.8,7.6,17.3,9.8s2.4,5.3,2.8,9.3l0.5,6l-1.8,0.3c-1.2,0.2-8.3-0.6-21.3-2.3s-26.7-2.5-41-2.5s-27.2,0.7-38.5,2
		s-24.2,3.5-38.5,6.5s-29.5,7.7-45.5,14S99.6,150.8,90.8,156c-8.8,5.2-13.7,9.7-14.5,13.5l-1.3,5.8l-1.8-0.8
		c-1.2-0.5-1.6-4.3-1.3-11.3c0.3-7,1.4-11.8,3.3-14.5c1.8-2.7,3.3-4.5,4.5-5.5s6.2-5.3,15-12.8s16.3-13.2,22.5-17
		c6.2-3.8,8.8-6.3,8-7.5c-0.8-1.2-1.8-1.6-2.8-1.3l-1.5,0.5l-9.3,6.3c-6.2,4.2-11.9,8.4-17.3,12.8c-5.3,4.3-9.9,8.3-13.8,11.8
		s-8.1,6.6-12.8,9.3s-7.5,4.1-8.5,4.3l-1.5,0.3l2,3.3c1.3,2.2,2.3,3.8,3,5l1,1.8l-1,0.3c-0.7,0.2-6.7-0.3-18-1.3s-17.3-1.8-17.8-2.3
		l-0.8-0.8l-0.5-4c-0.3-2.7,0.5-5.5,2.5-8.5s5.1-6.8,9.3-11.3s7.6-7.8,10.3-10l4-3.3l1.5-3.5c1-2.3,1.9-3.8,2.8-4.5
		c0.8-0.7,1.9-1.8,3.3-3.5s5.2-5.8,11.5-12.5S83.3,81.5,88.8,75s9.7-11.2,12.5-14c2.8-2.8,7.3-7,13.5-12.5s12.7-10.5,19.5-15
		c6.8-4.5,11.7-7.5,14.5-9c2.8-1.5,7.6-3.4,14.3-5.8S176.4,14.6,183.3,13.5z M67.5,214.2c1,0,2.3,0.7,4,2s3.3,2.9,4.8,4.8
		s2.4,3.6,2.8,5.3l0.5,2.5l-1.5,0.5c-1,0.3-2.4-0.9-4.3-3.8s-3.7-4.3-5.5-4.5c-1.8-0.2-2.3,1.1-1.3,3.8s2.3,5.5,4,8.5s4.3,10,8,21
		l5.5,16.5l3.8,3.3l3.8,3.3l0.8,1.8c0.5,1.2,0.3,2.5-0.5,4s-2.2,0.8-4-2s-3.8-5.8-5.8-8.8s-3.8-6.8-5.5-11.5s-3.5-9.5-5.5-14.5
		s-4.2-10.8-6.5-17.5c-2.3-6.7-2.8-10.8-1.3-12.3S66.5,214.2,67.5,214.2z M78.5,178c1-0.2,1.5,0.6,1.5,2.3v2.5l-1.8-1
		c-1.2-0.7-1.7-1.4-1.5-2.3C76.9,178.6,77.5,178.1,78.5,178z M134,154.7c0-0.7,2-1,6-1h6l-1,22.5l-1,22.5l-16.5-1.8
		c-11-1.2-21.3-3.3-31-6.3L82,186.2l-1-1c-0.7-0.7,0.4-1.3,3.3-1.8s4.8-0.2,6,1s3.3,2.2,6.3,3l4.5,1.3l-0.5-4
		c-0.3-2.7,0.3-4.3,2-4.8l2.5-0.8l1.5-0.3c1-0.2,2.2,1.8,3.5,5.8s1.8,6.3,1.5,6.8c-0.3,0.5,1.7,1.2,6,2l6.5,1.3l1.5-18l1.5-18
		l3.5-1.5C132.8,156.2,134,155.4,134,154.7z M244,122.5c17.3-0.5,26.1-0.4,26.3,0.3l0.3,1l-0.3,2.8c-0.2,1.8-13.1,3.6-38.8,5.3
		s-45,4.2-58,7.5s-24.2,6.7-33.5,10c-9.3,3.3-20.7,7.6-34,12.8s-19.9,6.9-19.8,5.3l0.3-2.5l5.3-3.3c3.5-2.2,8.1-4.8,13.8-7.8
		s12.7-6,21-9c8.3-3,19.2-6.3,32.5-10s26.5-6.5,39.5-8.5S226.7,123,244,122.5z M202.5,223.2h3.5l0.3,0.3c0.2,0.2,0.3,8.1,0.5,23.8
		l0.3,23.5l-5-0.3c-3.3-0.2-5.8-0.3-7.5-0.3H192l-2,2.5c-1.3,1.7-3.8,3.3-7.3,4.8l-5.3,2.3l-0.3-3.3c-0.2-2.2,0-3.7,0.5-4.5
		c0.5-0.8,0.7-2.2,0.5-4s-0.8-2.8-1.8-2.8H175l-1.8,3.3c-1.2,2.2-2.1,4.9-2.8,8.3c-0.7,3.3-1.3,5.8-1.8,7.5l-0.8,2.5l3,1.8
		c2,1.2,4.2,2.3,6.5,3.3s5.8,1.8,10.3,2.3s7,1.4,7.5,2.8l0.8,2l4.5-0.3c3-0.2,8.8,0.6,17.5,2.3s13.8,2.3,15.3,1.8l2.3-0.8l1.5-3
		c1-2,1-6.2,0-12.5s-2.3-12.2-4-17.5c-1.7-5.3-2.7-10.7-3-16c-0.3-5.3-0.2-8.5,0.5-9.5l1-1.5l2.8-0.8c1.8-0.5,5.6-0.4,11.3,0.3
		s12,0.3,19-1s12.6-1.3,16.8,0.3c4.2,1.5,6.8,2.8,7.8,3.8l1.5,1.5l0.5,1.5c0.3,1,0,5.5-1,13.5s-2.2,14.8-3.5,20.5
		c-1.3,5.7-2.3,10.4-2.8,14.3l-0.8,5.8l0.8,2.3c0.5,1.5,0.8,2.8,1,3.8s0.8,1.3,2,1c1.2-0.3,1.3,3.3,0.3,11s-2.8,14-5.5,19
		s-5.4,9.3-8.3,12.8s-6.4,7.3-10.8,11.3s-7.4,6.8-9.3,8.3s-3.7,3.8-5.5,6.8l-2.8,4.5l-5.5,2.8c-3.7,1.8-6.8,3.4-9.5,4.8
		s-5.5,2.3-8.5,3c-3,0.7-9.8,0.5-20.5-0.5s-19.3-3.1-25.8-6.3s-11.7-6-15.5-8.5c-3.8-2.5-8.5-5.7-14-9.5s-11.8-9.9-18.8-18.3
		s-11.8-14.8-14.5-19.5c-2.7-4.7-5.7-13.5-9-26.5s-5.5-23.3-6.5-31l-1.5-11.5l-4-4.5l-4-4.5l-0.5-4c-0.3-2.7,0-5.7,1-9
		s1.6-5.7,1.8-7l0.3-2l2.5,0.3c1.7,0.2,6,0.9,13,2.3s12.9,1.4,17.8,0.3c4.8-1.2,7.3-2.1,7.5-2.8c0.2-0.7,1.4-1.1,3.8-1.3l3.5-0.3
		l2,2c1.3,1.3,1.4,2.4,0.3,3.3c-1.2,0.8-1.8,2.4-2,4.8l-0.3,3.5l7.5,0.8c5,0.5,10.8,0.7,17.3,0.5s10.3,0.2,11.5,1l1.8,1.3l8.5-9
		c5.7-6,9.5-9.7,11.5-11S200.2,223.2,202.5,223.2z M121.8,368.7l-1.8-14l3,2.3c2,1.5,7,5.6,15,12.3s15.3,11.8,22,15.5l10,5.5
		l-0.5,0.8c-0.3,0.5,0.2,1.8,1.5,4s5.3,5.9,12,11.3s12.8,9.2,18.5,11.5c5.7,2.3,11.8,3.8,18.5,4.5c6.7,0.7,11.8,1.8,15.5,3.3
		l5.5,2.3l-14.5,4.8c-9.7,3.2-17.3,4.8-23,4.8c-5.7,0-12.5-1.5-20.5-4.5s-15.1-6.4-21.3-10.3c-6.2-3.8-9.8-6.3-11-7.5
		s-2.6-2.4-4.3-3.8s-4.7-4.7-9-10s-7.8-9.8-10.3-13.3S122.9,378.1,121.8,368.7z M288,393l1-0.3l-1.3,15c-0.8,10-3.1,23-6.8,39
		s-9.3,32.3-16.8,49l-11.3,25l-1.3-0.5c-0.8-0.3-2-1.6-3.5-3.8s-3.1-3.9-4.8-5.3s-4.8-4.9-9.3-10.8s-9.1-14.3-13.8-25.3
		s-8.3-17.9-10.8-20.8c-2.5-2.8-4.1-4.4-4.8-4.8l-1-0.5l-4,1.5c-2.7,1-5.6,3.4-8.8,7.3s-6.2,7.5-9,11s-7.6,8.6-14.3,15.3
		s-11.2,10.4-13.5,11.3l-3.5,1.3l-1.3-2c-0.8-1.3-2.6-4.7-5.3-10s-5.5-12.5-8.5-21.5s-5.8-20.5-8.5-34.5s-4-23.3-4-28v-7l7.5,9.5
		c5,6.3,8.6,10.6,10.8,12.8l5.8,5.8c1.7,1.7,5.5,4.2,11.5,7.5s11.8,6.3,17.5,9c5.7,2.7,11.2,4.7,16.5,6c5.3,1.3,11.5,1.5,18.5,0.5
		s16-3.8,27-8.5s18.8-8.9,23.3-12.8s8.9-8.6,13.3-14.3s7.4-9.8,9.3-12.3S287.3,393.1,288,393L288,393z M257.3,144.7l-3.3-10l27,1.8
		c18,1.2,28,2,30,2.5l3,0.8l-2.8,5.5c-1.8,3.7-5.2,7.8-10,12.3s-10.9,8.9-18.3,13.3c-7.3,4.3-14.5,7.8-21.5,10.5s-14.3,5-22,7
		c-7.7,2-20.6,4.3-38.8,6.8s-28,3.8-29.5,4c-1.5,0.2-5.6,0.2-12.3,0l-10-0.3l2.5-25c1.7-16.7,3-25.1,4-25.3l1.5-0.3l2.8,0.3
		c1.8,0.2,2.5,8.1,2,23.8l-0.8,23.5l3.3,0.5c2.2,0.3,4,0.3,5.5-0.3s3-1,4.5-1.5s2.5-9.4,3-26.8s1.8-25.9,3.8-25.8l3,0.3l1.3,0.8
		c0.8,0.5,2.3,8.8,4.5,24.8l3.3,24l15.3-2.5c10.2-1.7,15.5-2.4,16-2.3c0.5,0.2,6.2-1.3,17-4.5s17.3-6.1,19.3-8.8l3-4l-1.5-7.5
		C261,157.2,259.4,151.4,257.3,144.7z M172.8,493.5l5.8-5.8l1.5,3c1,2,2.3,5.7,4,11l2.5,8l-6.3,14.2c-4.2,9.5-6.8,15.3-8,17.5
		c-1.2,2.2-2.3,4.1-3.5,5.8l-1.8,2.5l-2.8-5.5c-1.8-3.7-3.6-7.5-5.3-11.5s-3.2-8.2-4.5-12.5l-2-6.5l3.3-3.3l7.3-7.3L172.8,493.5
		L172.8,493.5z M156.8,231c1.2-0.8,2.7-0.8,4.5,0.3l2.8,1.5l-4.5-0.3l-4.5-0.3L156.8,231z M197.3,524.7l2.8-7l0.8,9
		c0.5,6,0.7,9.5,0.5,10.5s-1.3,1.3-3.5,1s-3.3-1.3-3.3-3v-3C194.5,531.9,195.4,529.4,197.3,524.7z M196.8,490.2
		c0.2-4.3,0.8-6.2,2-5.5c1.2,0.7,1.8,1.3,1.8,2v1l-2,4.5C197.2,495.2,196.6,494.6,196.8,490.2z M216.5,486.7l1-1l3,5
		c2,3.3,4.7,7.7,8,13s7.7,10,13,14l8,6l-1.5,5.5c-1,3.7-3.6,8.9-7.8,15.8l-6.3,10.3l-1.3-2.8c-0.8-1.8-3.3-7.3-7.3-16.3
		s-7.2-15.3-9.5-19l-3.5-5.5l1.5-12C215,491.7,215.8,487.4,216.5,486.7z M276.5,122.7C275.5,122.7,275.5,122.7,276.5,122.7h1.5
		H276.5z M283,126.2v-3.5h3v7h-3V126.2z M290.8,125.2c0.2-1,3.8-0.7,11,1s10.8,3,10.8,4v1.5l-0.3,1c-0.2,0.7-3.8,0.3-11-1
		s-10.8-2.5-10.8-3.5v-1.5L290.8,125.2z M325.5,232c1-0.2,0.6,4.1-1.3,12.8s-3.5,15.8-5,21.3s-2.7,8.2-3.5,8
		c-0.8-0.2-0.9-1.4-0.3-3.8l1-3.5l3.8-17.3l3.8-17.3L325.5,232z M318.5,129.7H317H318.5C319.5,129.7,319.5,129.7,318.5,129.7z"/>
</g>
</svg>
