<?xml version="1.0" encoding="utf-8"?>
<!-- Generator: Adobe Illustrator 22.1.0, SVG Export Plug-In . SVG Version: 6.00 Build 0)  -->
<svg version="1.1" id="Layer_1" xmlns="http://www.w3.org/2000/svg" xmlns:xlink="http://www.w3.org/1999/xlink" x="0px" y="0px"
	 viewBox="0 0 581.1 581.1" style="enable-background:new 0 0 581.1 581.1;" xml:space="preserve">
<style type="text/css">
	.st0{fill:none;stroke:#000000;stroke-width:3;stroke-miterlimit:10;}
</style>
<g id="Layer_x0020_1">
	<path class="st0" d="M562.5,75.6L461.3,125l92.9-64.2C554.2,60.8,562.5,75.6,562.5,75.6z M465.8,20.9l-62.6,93.3l48.2-101.6
		L465.8,20.9L465.8,20.9z M578.2,170.4l-112.4-8l112.4-8.7V170.4z M359.3,3.8l-7.9,112l-8.8-112H359.3L359.3,3.8z M564.1,327
		l-34.3,22.3l-16.7-49h51L564.1,327L564.1,327z M238.6,3.8l-8.8,112l-7.9-112H238.6z M451.8,185.9H127.3v-44.6h324.5V185.9z
		 M177.9,114.2l-62.6-93.3l14.4-8.3L177.9,114.2z M119.8,125L18.5,75.6l8.4-14.8L119.8,125z M540.2,483.3h-13.5v20.3h-22.3v73.7
		h-84.1v-48.6c-16.7-0.3-26.4-8.7-28.7-25.2H187.6c-2.4,16.5-11.8,24.9-28.3,25.2v48.6H75.1v-73.7H52.3v-20.3H38.9v-28.7h13.5v-74.1
		c0-26.4,20.7-82.7,61.9-169c46.7-8.3,105.2-12.4,175.4-12.4c70.1,0,128.7,4.1,175.8,12.4c40.8,86.3,61.4,142.6,61.4,169v74.1h13.5
		V483.3z M115.3,162.4l-112.4,8v-16.7L115.3,162.4z M66.3,300.3l-16.7,49L15.3,327v-26.7H66.3z M444.1,177.9v-29.8H342.9v29.8H444.1
		z M513.1,444.1v-52.5h-74.6v52.5H513.1z M236.5,177.9v-29.8H135.3v29.8H236.5z M498.8,331.4c-3.3-11.2-9.3-29-18-53.3
		c-5.8-13.6-15.1-31.7-27.9-54.3c-37.3-5.3-91.7-7.9-163.4-7.9c-71.6,0-125.8,2.6-163.1,7.9c-6.1,10.9-15.4,29-27.9,54.3
		c-5.6,12.5-11.7,30.2-18.2,53.3c63.9-2.9,133.7-4.4,209.2-4.4C365.2,327,435,328.5,498.8,331.4z M444.1,500.1
		c0-15.8-7.8-23.5-23.4-23.5c-15.8,0-23.5,7.8-23.5,23.5c0,15.6,7.8,23.4,23.5,23.4C436.4,523.5,444.1,515.7,444.1,500.1z
		 M420.3,409.2v-17.5H159.3v17.5H420.3z M420.3,444.1V427H159.3v17.1H420.3z M535,479.2v-18.6H44v18.6h93.2
		c5.7-6.1,12.7-9.1,21.2-9.1c8.4,0,15.6,3,21.5,9.1h219.6c5.6-6.1,12.7-9.1,21.2-9.1c8.4,0,15.6,3,21.5,9.1H535L535,479.2z
		 M140.9,444.1v-52.5H66.3v52.5H140.9z M182,500.1c0-15.8-7.9-23.5-23.5-23.5c-15.6,0-23.5,7.8-23.5,23.5c0,15.6,7.9,23.4,23.5,23.4
		C174.1,523.5,182,515.7,182,500.1z"/>
</g>
</svg>
