<?xml version="1.0" encoding="UTF-8"?>
<!DOCTYPE svg PUBLIC "-//W3C//DTD SVG 1.1//EN" "http://www.w3.org/Graphics/SVG/1.1/DTD/svg11.dtd">
<!-- Creator: CorelDRAW -->
<svg xmlns="http://www.w3.org/2000/svg" xml:space="preserve" width="205mm" height="205mm" style="shape-rendering:geometricPrecision; text-rendering:geometricPrecision; image-rendering:optimizeQuality; fill-rule:evenodd; clip-rule:evenodd"
viewBox="0 0 205 205"
 xmlns:xlink="http://www.w3.org/1999/xlink">
 <defs>
  <style type="text/css">
   <![CDATA[
    .fil0 {fill:#838281}
   ]]>
  </style>
 </defs>
 <g id="Layer_x0020_1">
  <metadata id="CorelCorpID_0Corel-Layer"/>
  <path class="fil0" d="M198.439 26.6699l-35.7072 17.4217 32.78 -22.6526 2.9272 5.2309zm-34.1234 -19.2934l-22.0768 32.924 16.9898 -35.8512 5.087 2.9272zm39.6429 52.7452l-39.6429 -2.8314 39.6429 -3.0718 0 5.9032zm-77.222 -58.7924l-2.7832 39.499 -3.12 -39.499 5.9032 0zm72.2785 114.033l-12.0944 7.8714 -5.9033 -17.2777 17.9977 0 0 9.4063zm-114.849 -114.033l-3.1194 39.499 -2.7838 -39.499 5.9032 0zm75.2063 64.2637l-114.465 0 0 -15.7421 114.465 0 0 15.7421zm-96.6113 -25.2925l-22.0772 -32.924 5.0875 -2.9272 16.9897 35.8512zm-20.4934 3.7911l-35.7555 -17.4217 2.976 -5.2309 32.7795 22.6526zm148.3 126.415l-4.7514 0 0 7.1514 -7.8708 0 0 26.0124 -29.6601 0 0 -17.1338c-5.9032,-0.0958 -9.3111,-3.0718 -10.1268,-8.8786l-71.9905 0c-0.8639,5.8068 -4.1754,8.7828 -9.9829,8.8786l0 17.1338 -29.7077 0 0 -26.0124 -8.0153 0 0 -7.1514 -4.7514 0 0 -10.1263 4.7514 0 0 -26.157c0,-9.3105 7.2954,-29.1799 21.8375,-59.6081 16.4615,-2.9272 37.0989,-4.367 61.8637,-4.367 24.7165,0 45.4021,1.4398 62.0076,4.367 14.3981,30.4282 21.6453,50.2976 21.6453,59.6081l0 26.157 4.7514 0 0 10.1263zm-149.884 -113.217l-39.643 2.8314 0 -5.9032 39.643 3.0718zm-17.2777 48.6656l-5.9033 17.2777 -12.0944 -7.8714 0 -9.4063 17.9977 0zm133.278 -43.1943l0 -10.5107 -35.7073 0 0 10.5107 35.7073 0zm24.3327 93.9232l0 -18.5254 -26.3003 0 0 18.5254 26.3003 0zm-97.5709 -93.9232l0 -10.5107 -35.7073 0 0 10.5107 35.7073 0zm92.5316 54.1368c-1.1518,-3.9357 -3.2634,-10.2226 -6.3351,-18.8139 -2.0634,-4.799 -5.3273,-11.1823 -9.8384,-19.1495 -13.1504,-1.8717 -32.3481,-2.7832 -57.6405,-2.7832 -25.2449,0 -44.3944,0.9115 -57.5443,2.7832 -2.1597,3.8399 -5.4236,10.2227 -9.8389,19.1495 -1.9675,4.4158 -4.1272,10.6546 -6.4309,18.8139 22.5568,-1.0079 47.1776,-1.5362 73.8141,-1.5362 26.6846,0 51.3054,0.5283 73.814,1.5362zm-19.2934 59.5118c0,-5.5671 -2.7357,-8.3027 -8.2546,-8.3027 -5.5676,0 -8.3033,2.7356 -8.3033,8.3027 0,5.5194 2.7357,8.2551 8.3033,8.2551 5.5189,0 8.2546,-2.7357 8.2546,-8.2551zm-8.3986 -32.0596l0 -6.1912 -92.1002 0 0 6.1912 92.1002 0zm0 12.3342l0 -6.0472 -92.1002 0 0 6.0472 92.1002 0zm40.4587 12.3823l0 -6.5749 -173.209 0 0 6.5749 32.8753 0c2.0157,-2.1597 4.4634,-3.2152 7.487,-3.2152 2.976,0 5.5194,1.0555 7.5833,3.2152l77.4618 0c1.9676,-2.1597 4.4634,-3.2152 7.487,-3.2152 2.9754,0 5.5189,1.0555 7.5828,3.2152l32.7319 0zm-139.038 -12.3823l0 -18.5254 -26.3003 0 0 18.5254 26.3003 0zm14.4945 19.7254c0,-5.5671 -2.7839,-8.3027 -8.3033,-8.3027 -5.5189,0 -8.3027,2.7356 -8.3027,8.3027 0,5.5194 2.7838,8.2551 8.3027,8.2551 5.5194,0 8.3033,-2.7357 8.3033,-8.2551z"/>
 </g>
</svg>
