<?xml version="1.0" encoding="UTF-8"?>
<svg viewBox="0 0 888.95 660.7" xmlns="http://www.w3.org/2000/svg">
 <g fill="#00892c">
  <g fill-rule="evenodd">
   <path d="m56.874 656.42c0.034088-3.5315 0.046593-7.0649 0-10.659-0.035934-2.5231-0.12492-5.0794-0.20566-7.6296-0.49566-15.662-1.8603-30.713-4.1954-44.489s-5.6198-26.286-9.6248-37.195c-3.6564-10.126-7.8983-18.872-12.175-26.087-4.2766-7.2153-8.6038-12.886-12.422-17.335-8.6306-7.8528-13.574-13.238-13.121-14.755 0.47921-1.4977 6.3847 1.0714 16.617 7.0689 4.6971 3.744 10.065 9.1151 15.466 16.382 5.4007 7.2665 10.805 16.48 15.507 27.49 4.9489 11.734 9.0845 25.34 12.01 40.281 2.9259 14.941 4.6606 31.192 5.1414 47.911 0.078316 2.7223 0.10793 5.4519 0.12333 8.1347 0.025658 3.6774-0.014481 7.2805-0.08226 10.884h-13.039 6.5e-5z"/>
   <path d="m99.768 656.42c0.27865-3.4986 0.58917-7.0022 0.82259-10.547 1.3839-21.013 1.8232-41.411 1.4258-60.661-0.46035-22.535-2.0881-43.526-4.2775-62.232-2.1893-18.706-4.9199-35.089-7.4581-48.693s-4.8388-24.436-6.2516-32.014c-1.4129-7.5774-1.9463-11.916-1.042-12.491 0.90433-0.5755 3.1518 2.6653 6.2516 9.4246 3.0998 6.7592 7.0754 17.059 11.132 30.517 4.057 13.459 8.1568 30.114 11.516 49.441 3.3594 19.327 5.9394 41.315 6.9646 65.074 0.87019 20.254 0.67721 41.754-0.76774 63.802-0.18465 2.8178-0.38218 5.5904-0.60324 8.3774h-17.713z"/>
   <path d="m137.16 656.42c3.5147-14.79 7.1473-28.877 10.489-42.076 3.6004-14.223 6.8534-27.49 9.5014-39.664 1.5444-7.1133 2.8952-13.831 3.9898-20.084 1.0946-6.2538 1.9229-12.038 2.5502-17.335 0.61401-5.2342 1.0137-9.9896 1.2751-14.138 0.2614-4.148 0.37254-7.6757 0.45244-10.603 0.07991-2.9274 0.15657-5.2513 0.28792-6.8444 0.13136-1.5933 0.33756-2.4698 0.69925-2.5807 0.36168-0.11096 0.87015 0.55926 1.4396 2.0196 0.56944 1.4604 1.2135 3.7351 1.8098 6.7323 0.5963 2.9971 1.1203 6.7256 1.4807 11.164 0.36049 4.4385 0.51912 9.548 0.41132 15.203-0.10278 5.7157-0.44746 12.008-1.1105 18.738-0.6631 6.7296-1.6228 13.935-2.8381 21.431-2.0722 12.813-4.846 26.668-8.1029 41.234-2.6412 11.813-5.6275 24.165-8.5965 36.803h-13.738z"/>
   <path d="m194.66 656.42c0.076355-2.6474 0.17853-5.2635 0.24681-7.9441 0.007889-0.26453-0.006592-0.54248 0-0.80768 0.55682-22.626 0.82092-44.213 1.1352-63.955 0.3143-19.743 0.71216-37.636 1.2833-52.645 0.57115-15.009 1.3092-27.142 2.2211-35.546 0.91188-8.4032 1.9704-13.06 3.0602-13.06s2.1318 4.629 3.1096 12.993c0.97778 8.3641 1.9057 20.445 2.764 35.411 0.85832 14.966 1.6386 32.839 2.1224 52.712 0.48373 19.874 0.65947 41.778 0.098709 64.831-0.006607 0.27014 0.006561 0.53802 0 0.80786-0.059494 2.4281-0.16997 4.799-0.2468 7.2034h-15.794z"/>
   <path d="m236 656.42c0.33282-11.326 1.0411-22.192 2.1332-32.144 1.323-12.057 3.1833-22.788 5.2484-31.544 2.0651-8.7557 4.3021-15.548 6.1627-20.044 1.8605-4.4965 3.309-6.7094 3.9955-6.3272 0.68649 0.38178 0.54976 3.3272-0.067657 8.2668-0.61748 4.9398-1.6718 11.889-2.7088 20.552-1.037 8.6637-2.0342 19.033-2.7427 30.666-0.57527 9.4454-0.9391 19.766-1.1851 30.574h-10.836z"/>
   <path d="m374.04 473.24c-0.40787-0.008972-1.0685 0.6893-1.9332 2.1318-0.98819 1.6485-2.244 4.2708-3.6196 7.7982-1.3756 3.5272-2.8616 7.9683-4.2777 13.352-1.4161 5.3838-2.7497 11.723-3.7841 18.85-0.94696 6.536-1.6231 13.733-1.9743 21.487-0.35107 7.7535-0.35788 16.065 0.041046 24.741 0.59454 12.809 1.9649 26.425 4.1132 40.505 2.1484 14.08 5.0656 28.61 8.3908 43.31 0.67798 2.9971 1.3648 5.9276 2.0566 8.8641 0.27094 1.1561 0.55002 2.275 0.82263 3.4222h13.738c-0.69214-2.9461-1.3689-5.8216-2.0566-8.808-0.66528-2.905-1.3122-5.8096-1.9743-8.7518-3.2474-14.43-6.178-28.469-8.5142-41.852-2.3362-13.382-4.0642-26.111-5.1003-38.093-0.70386-8.09-1.1216-15.839-1.234-23.058-0.11227-7.2188 0.078613-13.922 0.45245-20.084 0.80862-13.409 2.562-24.146 3.8252-31.585 0.63165-3.7195 1.1173-6.6406 1.3574-8.6957 0.24011-2.0553 0.21851-3.2276-0.16452-3.4784-0.047882-0.031281-0.10623-0.054779-0.16455-0.056l1e-4 -1e-4z"/>
   <path d="m307.5 474.52c-0.14902-0.040558-0.34903 0.036591-0.49286 0.33618-0.14383 0.29941-0.21146 0.87616-0.24643 1.2772-0.073822 0.70904-0.080414 1.6293 0 2.689 0.15866 2.0946 0.61942 4.91 1.2814 8.2686 1.3173 6.6757 3.5388 15.849 6.21 27.024 5.2734 22.051 12.433 52.339 17.989 88.063 2.6983 17.366 4.9538 36.04 6.5057 55.527h15.919c-1.6887-21.29-4.5329-41.573-7.9843-60.165-3.4145-18.409-7.4264-35.181-11.533-50.014-4.1065-14.833-8.2925-27.714-12.124-38.318-3.8969-10.788-7.3763-19.148-10.054-25.007-1.3584-2.9804-2.4732-5.2455-3.3514-6.8568-0.44885-0.83197-0.82599-1.4266-1.1336-1.8823-0.19971-0.41931-0.43622-0.47815-0.59143-0.60504-0.15518-0.12683-0.24542-0.29541-0.39429-0.33612z"/>
   <path d="m278.57 510.1c-0.83652 0.38406-0.54565 5.0192 0.53473 13.072 1.0804 8.0524 2.9359 19.562 5.1003 33.773s4.6287 31.089 6.4988 49.93c1.5628 15.745 2.7058 32.871 2.8792 50.828h13.039c-0.35895-19.067-1.9488-37.079-4.1543-53.409-2.6222-19.416-6.0564-36.517-9.4192-50.604-3.3627-14.086-6.6461-25.12-9.2135-32.595-2.5674-7.4744-4.4283-11.38-5.2649-10.996z"/>
   <path d="m410.54 513.71c-0.9733 0-1.8864 3.7294-2.7771 10.341-0.89062 6.6118-1.7775 16.133-2.6448 27.958-0.86731 11.825-1.6918 25.926-2.3363 41.666-0.64447 15.74-1.0905 33.128-0.83756 51.466 0.007935 0.60901 0.034119 1.1962 0.044006 1.8035 0.04657 3.1644 0.12869 6.3216 0.2204 9.4395h14.106c-0.074249-3.2596-0.16458-6.5365-0.2204-9.8604-0.009247-0.59174-0.035675-1.1497-0.044006-1.7436-0.25348-17.877-0.23926-35.033-0.30856-50.684-0.069214-15.652-0.2085-29.8-0.6171-41.726-0.40863-11.926-1.0549-21.582-1.8514-28.258-0.79648-6.6761-1.7597-10.402-2.733-10.402z"/>
   <path d="m423.48 528.56c-0.86493 0.36554-0.79761 4.3664-0.20566 11.276 0.59201 6.91 1.7137 16.744 2.8792 28.892s2.3441 26.639 3.2905 42.805c0.83389 14.243 1.4624 29.833 1.9332 46.172h13.162c-0.54144-16.944-1.5598-33.182-3.0437-47.967-1.6595-16.534-3.8647-31.291-6.252-43.479-2.3873-12.187-4.9474-21.81-7.0746-28.275-2.1272-6.4652-3.824-9.7906-4.689-9.4251z"/>
  </g>
  <rect x="42.128" y="634.34" width="840.82" height="23.358"/>
  <g fill-rule="evenodd">
   <path d="m56.874 656.42c0.034088-3.5315 0.046593-7.0649 0-10.659-0.035934-2.5231-0.12492-5.0794-0.20566-7.6296-0.49566-15.662-1.8603-30.713-4.1954-44.489s-5.6198-26.286-9.6248-37.195c-3.6564-10.126-7.8983-18.872-12.175-26.087-4.2766-7.2153-8.6038-12.886-12.422-17.335-8.6306-7.8528-13.574-13.238-13.121-14.755 0.47921-1.4977 6.3847 1.0714 16.617 7.0689 4.6971 3.744 10.065 9.1151 15.466 16.382 5.4007 7.2665 10.805 16.48 15.507 27.49 4.9489 11.734 9.0845 25.34 12.01 40.281 2.9259 14.941 4.6606 31.192 5.1414 47.911 0.078316 2.7223 0.10793 5.4519 0.12333 8.1347 0.025658 3.6774-0.014481 7.2805-0.08226 10.884h-13.039 6.5e-5z"/>
   <path d="m99.768 656.42c0.27865-3.4986 0.58917-7.0022 0.82259-10.547 1.3839-21.013 1.8232-41.411 1.4258-60.661-0.46035-22.535-2.0881-43.526-4.2775-62.232-2.1893-18.706-4.9199-35.089-7.4581-48.693s-4.8388-24.436-6.2516-32.014c-1.4129-7.5774-1.9463-11.916-1.042-12.491 0.90433-0.5755 3.1518 2.6653 6.2516 9.4246 3.0998 6.7592 7.0754 17.059 11.132 30.517 4.057 13.459 8.1568 30.114 11.516 49.441 3.3594 19.327 5.9394 41.315 6.9646 65.074 0.87019 20.254 0.67721 41.754-0.76774 63.802-0.18465 2.8178-0.38218 5.5904-0.60324 8.3774h-17.713z"/>
   <path d="m137.16 656.42c3.5147-14.79 7.1473-28.877 10.489-42.076 3.6004-14.223 6.8534-27.49 9.5014-39.664 1.5444-7.1133 2.8952-13.831 3.9898-20.084 1.0946-6.2538 1.9229-12.038 2.5502-17.335 0.61401-5.2342 1.0137-9.9896 1.2751-14.138 0.2614-4.148 0.37254-7.6757 0.45244-10.603 0.07991-2.9274 0.15657-5.2513 0.28792-6.8444 0.13136-1.5933 0.33756-2.4698 0.69925-2.5807 0.36168-0.11096 0.87015 0.55926 1.4396 2.0196 0.56944 1.4604 1.2135 3.7351 1.8098 6.7323 0.5963 2.9971 1.1203 6.7256 1.4807 11.164 0.36049 4.4385 0.51912 9.548 0.41132 15.203-0.10278 5.7157-0.44746 12.008-1.1105 18.738-0.6631 6.7296-1.6228 13.935-2.8381 21.431-2.0722 12.813-4.846 26.668-8.1029 41.234-2.6412 11.813-5.6275 24.165-8.5965 36.803h-13.738z"/>
   <path d="m194.66 656.42c0.076355-2.6474 0.17853-5.2635 0.24681-7.9441 0.007889-0.26453-0.006592-0.54248 0-0.80768 0.55682-22.626 0.82092-44.213 1.1352-63.955 0.3143-19.743 0.71216-37.636 1.2833-52.645 0.57115-15.009 1.3092-27.142 2.2211-35.546 0.91188-8.4032 1.9704-13.06 3.0602-13.06s2.1318 4.629 3.1096 12.993c0.97778 8.3641 1.9057 20.445 2.764 35.411 0.85832 14.966 1.6386 32.839 2.1224 52.712 0.48373 19.874 0.65947 41.778 0.098709 64.831-0.006607 0.27014 0.006561 0.53802 0 0.80786-0.059494 2.4281-0.16997 4.799-0.2468 7.2034h-15.794z"/>
   <path d="m236 656.42c0.33282-11.326 1.0411-22.192 2.1332-32.144 1.323-12.057 3.1833-22.788 5.2484-31.544 2.0651-8.7557 4.3021-15.548 6.1627-20.044 1.8605-4.4965 3.309-6.7094 3.9955-6.3272 0.68649 0.38178 0.54976 3.3272-0.067657 8.2668-0.61748 4.9398-1.6718 11.889-2.7088 20.552-1.037 8.6637-2.0342 19.033-2.7427 30.666-0.57527 9.4454-0.9391 19.766-1.1851 30.574h-10.836z"/>
   <path d="m374.04 473.24c-0.40787-0.008972-1.0685 0.6893-1.9332 2.1318-0.98819 1.6485-2.244 4.2708-3.6196 7.7982-1.3756 3.5272-2.8616 7.9683-4.2777 13.352-1.4161 5.3838-2.7497 11.723-3.7841 18.85-0.94696 6.536-1.6231 13.733-1.9743 21.487-0.35107 7.7535-0.35788 16.065 0.041046 24.741 0.59454 12.809 1.9649 26.425 4.1132 40.505 2.1484 14.08 5.0656 28.61 8.3908 43.31 0.67798 2.9971 1.3648 5.9276 2.0566 8.8641 0.27094 1.1561 0.55002 2.275 0.82263 3.4222h13.738c-0.69214-2.9461-1.3689-5.8216-2.0566-8.808-0.66528-2.905-1.3122-5.8096-1.9743-8.7518-3.2474-14.43-6.178-28.469-8.5142-41.852-2.3362-13.382-4.0642-26.111-5.1003-38.093-0.70386-8.09-1.1216-15.839-1.234-23.058-0.11227-7.2188 0.078613-13.922 0.45245-20.084 0.80862-13.409 2.562-24.146 3.8252-31.585 0.63165-3.7195 1.1173-6.6406 1.3574-8.6957 0.24011-2.0553 0.21851-3.2276-0.16452-3.4784-0.047882-0.031281-0.10623-0.054779-0.16455-0.056l1e-4 -1e-4z"/>
   <path d="m307.5 474.52c-0.14902-0.040558-0.34903 0.036591-0.49286 0.33618-0.14383 0.29941-0.21146 0.87616-0.24643 1.2772-0.073822 0.70904-0.080414 1.6293 0 2.689 0.15866 2.0946 0.61942 4.91 1.2814 8.2686 1.3173 6.6757 3.5388 15.849 6.21 27.024 5.2734 22.051 12.433 52.339 17.989 88.063 2.6983 17.366 4.9538 36.04 6.5057 55.527h15.919c-1.6887-21.29-4.5329-41.573-7.9843-60.165-3.4145-18.409-7.4264-35.181-11.533-50.014-4.1065-14.833-8.2925-27.714-12.124-38.318-3.8969-10.788-7.3763-19.148-10.054-25.007-1.3584-2.9804-2.4732-5.2455-3.3514-6.8568-0.44885-0.83197-0.82599-1.4266-1.1336-1.8823-0.19971-0.41931-0.43622-0.47815-0.59143-0.60504-0.15518-0.12683-0.24542-0.29541-0.39429-0.33612z"/>
   <path d="m278.57 510.1c-0.83652 0.38406-0.54565 5.0192 0.53473 13.072 1.0804 8.0524 2.9359 19.562 5.1003 33.773s4.6287 31.089 6.4988 49.93c1.5628 15.745 2.7058 32.871 2.8792 50.828h13.039c-0.35895-19.067-1.9488-37.079-4.1543-53.409-2.6222-19.416-6.0564-36.517-9.4192-50.604-3.3627-14.086-6.6461-25.12-9.2135-32.595-2.5674-7.4744-4.4283-11.38-5.2649-10.996z"/>
   <path d="m410.54 513.71c-0.9733 0-1.8864 3.7294-2.7771 10.341-0.89062 6.6118-1.7775 16.133-2.6448 27.958-0.86731 11.825-1.6918 25.926-2.3363 41.666-0.64447 15.74-1.0905 33.128-0.83756 51.466 0.007935 0.60901 0.034119 1.1962 0.044006 1.8035 0.04657 3.1644 0.12869 6.3216 0.2204 9.4395h14.106c-0.074249-3.2596-0.16458-6.5365-0.2204-9.8604-0.009247-0.59174-0.035675-1.1497-0.044006-1.7436-0.25348-17.877-0.23926-35.033-0.30856-50.684-0.069214-15.652-0.2085-29.8-0.6171-41.726-0.40863-11.926-1.0549-21.582-1.8514-28.258-0.79648-6.6761-1.7597-10.402-2.733-10.402z"/>
   <path d="m423.48 528.56c-0.86493 0.36554-0.79761 4.3664-0.20566 11.276 0.59201 6.91 1.7137 16.744 2.8792 28.892s2.3441 26.639 3.2905 42.805c0.83389 14.243 1.4624 29.833 1.9332 46.172h13.162c-0.54144-16.944-1.5598-33.182-3.0437-47.967-1.6595-16.534-3.8647-31.291-6.252-43.479-2.3873-12.187-4.9474-21.81-7.0746-28.275-2.1272-6.4652-3.824-9.7906-4.689-9.4251z"/>
   <path d="m67.483 638.44c0.035011-3.6264 0.047913-7.2554 0-10.947-0.03685-2.5911-0.12833-5.2163-0.2112-7.8353-0.50903-16.084-1.9105-31.541-4.3085-45.688s-5.7713-26.994-9.8842-38.198c-3.7549-10.4-8.1112-19.381-12.503-26.791-4.3919-7.4096-8.8357-13.233-12.757-17.803-8.8633-8.0645-13.94-13.594-13.475-15.152 0.49213-1.538 6.5569 1.1002 17.065 7.2593 4.8237 3.845 10.336 9.3609 15.882 16.823 5.5463 7.4622 11.096 16.924 15.925 28.231 5.0823 12.05 9.3294 26.023 12.334 41.367 3.0048 15.344 4.7863 32.033 5.2801 49.202 0.080421 2.7958 0.11081 5.5988 0.1266 8.3539 0.026337 3.7767-0.014862 7.477-0.084496 11.177h-13.39 1.22e-4z"/>
   <path d="m111.53 638.44c0.28612-3.5928 0.60502-7.1909 0.84474-10.831 1.4212-21.58 1.8724-42.528 1.4643-62.296-0.47278-23.143-2.1444-44.699-4.3928-63.91-2.2484-19.21-5.0525-36.035-7.6592-50.006-2.6066-13.971-4.9692-25.095-6.4201-32.876-1.451-7.7818-1.9988-12.237-1.07-12.828 0.92872-0.59106 3.2368 2.7372 6.4202 9.6786 3.1834 6.9415 7.2661 17.518 11.432 31.34 4.1663 13.822 8.3767 30.926 11.827 50.774 3.45 19.848 6.0995 42.428 7.1523 66.828 0.89363 20.8 0.69544 42.88-0.78845 65.522-0.18964 2.8936-0.39249 5.741-0.61951 8.6031h-18.19z"/>
   <path d="m149.94 638.44c3.6095-15.189 7.34-29.656 10.771-43.21 3.6975-14.606 7.0382-28.231 9.7575-40.733 1.5861-7.305 2.9733-14.203 4.0973-20.626 1.1241-6.4226 1.9748-12.362 2.6189-17.803 0.63052-5.3754 1.041-10.259 1.3094-14.519 0.26846-4.2598 0.3826-7.8829 0.46468-10.889 0.08197-3.0062 0.16077-5.3928 0.29565-7.0289 0.13489-1.6361 0.34665-2.5363 0.71809-2.6503 0.37143-0.11398 0.89365 0.57428 1.4784 2.074 0.58479 1.4999 1.2462 3.8359 1.8586 6.9137 0.6124 3.0781 1.1505 6.907 1.5207 11.465 0.37018 4.5582 0.5331 9.8054 0.42239 15.613-0.10556 5.8698-0.45955 12.332-1.1405 19.243-0.68095 6.9111-1.6666 14.311-2.9146 22.009-2.1281 13.158-4.9768 27.387-8.3214 42.346-2.7124 12.131-5.7792 24.816-8.8282 37.795h-14.108z"/>
   <path d="m208.99 638.44c0.078445-2.7188 0.18329-5.4053 0.25342-8.158 0.007904-0.27197-0.006561-0.55743 0-0.82953 0.57188-23.236 0.84308-45.404 1.1658-65.679 0.32275-20.275 0.73134-38.651 1.3179-54.064 0.58652-15.414 1.3445-27.874 2.2809-36.504 0.93646-8.6298 2.0235-13.412 3.1427-13.412s2.1892 4.7538 3.1933 13.343c1.0042 8.5895 1.9571 20.996 2.8386 36.366 0.88142 15.37 1.6828 33.724 2.1796 54.134 0.4968 20.409 0.67725 42.904 0.10135 66.578-0.006592 0.27734 0.006577 0.55255 0 0.82977-0.061096 2.4934-0.17458 4.9282-0.25346 7.3974h-16.22 3.1e-5z"/>
   <path d="m251.44 638.44c0.34181-11.631 1.0692-22.79 2.1907-33.011 1.3587-12.382 3.2691-23.403 5.3899-32.394 2.1208-8.9917 4.4181-15.967 6.3288-20.584 1.9107-4.6177 3.3982-6.8901 4.1032-6.4979 0.70505 0.39215 0.56464 3.4169-0.069458 8.4899-0.63412 5.0728-1.7169 12.209-2.7819 21.106-1.065 8.8972-2.089 19.546-2.8166 31.493-0.59082 9.7-0.96442 20.299-1.2171 31.398h-11.128z"/>
   <path d="m393.2 450.32c-0.41888-0.008942-1.0973 0.70813-1.9853 2.1893-1.0149 1.6929-2.3045 4.386-3.7172 8.0084-1.4126 3.6224-2.9387 8.183-4.3929 13.712-1.4543 5.5292-2.8239 12.04-3.8861 19.358-0.9725 6.7123-1.6669 14.104-2.0276 22.066-0.36054 7.9626-0.36749 16.499 0.042145 25.408 0.6106 13.154 2.0178 27.138 4.224 41.597 2.2062 14.46 5.2022 29.382 8.617 44.478 0.69626 3.0779 1.4015 6.0872 2.112 9.103 0.27823 1.1871 0.56482 2.3362 0.84482 3.5145h14.108c-0.71078-3.0255-1.4058-5.9786-2.112-9.0454-0.68326-2.9833-1.3476-5.9663-2.0275-8.9878-3.335-14.819-6.3445-29.237-8.7438-42.98-2.3992-13.743-4.1737-26.815-5.2378-39.12-0.72284-8.3082-1.1519-16.266-1.2672-23.679-0.1153-7.4133 0.080688-14.297 0.46466-20.626 0.83038-13.771 2.6311-24.797 3.9283-32.436 0.64862-3.8197 1.1473-6.8195 1.3939-8.9302 0.24655-2.1106 0.2244-3.3146-0.16894-3.572-0.049225-0.032043-0.10913-0.056244-0.16898-0.057373l1e-4 -3e-4z"/>
   <path d="m324.87 451.63c-0.15305-0.041565-0.3584 0.037537-0.50613 0.34524-0.1477 0.30756-0.21713 0.89975-0.25305 1.3116-0.075867 0.72824-0.08255 1.6733 0 2.7616 0.16296 2.1512 0.63608 5.0421 1.316 8.4913 1.3527 6.8557 3.6342 16.276 6.3775 27.752 5.4155 22.645 12.768 53.75 18.474 90.437 2.7711 17.834 5.0873 37.012 6.6812 57.024h16.348c-1.7342-21.864-4.6551-42.694-8.1996-61.787-3.5065-18.905-7.6266-36.13-11.844-51.363-4.2173-15.233-8.516-28.461-12.451-39.351-4.0019-11.078-7.5752-19.664-10.325-25.681-1.395-3.0607-2.5399-5.387-3.4418-7.0416-0.46097-0.85428-0.84827-1.4651-1.1641-1.933-0.20514-0.43054-0.44803-0.49097-0.60745-0.62134-0.15933-0.13031-0.25195-0.30331-0.40488-0.34524z"/>
   <path d="m295.16 488.17c-0.85907 0.39447-0.56039 5.1544 0.5491 13.424s3.015 20.089 5.2378 34.684c2.2228 14.594 4.7535 31.927 6.674 51.276 1.6049 16.17 2.7788 33.757 2.9568 52.198h13.39c-0.36859-19.581-2.0014-38.079-4.2663-54.848-2.6929-19.939-6.2197-37.502-9.673-51.968-3.4534-14.466-6.8253-25.798-9.4618-33.474-2.6366-7.6757-4.5477-11.687-5.4067-11.292z"/>
   <path d="m430.68 491.88c-0.99954 0-1.9373 3.8302-2.852 10.62-0.91464 6.79-1.8254 16.568-2.7161 28.711-0.89069 12.144-1.7374 26.624-2.3992 42.789-0.66184 16.164-1.1199 34.022-0.86017 52.853 0.007935 0.62543 0.035034 1.2285 0.045166 1.8523 0.047913 3.2496 0.1322 6.4919 0.22638 9.6938h14.486c-0.076202-3.3476-0.16898-6.7125-0.22635-10.126-0.009186-0.6076-0.036591-1.1805-0.045135-1.7905-0.26032-18.359-0.24576-35.977-0.3169-52.051-0.071045-16.073-0.21411-30.603-0.63376-42.851-0.41962-12.247-1.0833-22.164-1.9013-29.02-0.81793-6.8559-1.8072-10.682-2.8067-10.682z"/>
   <path d="m443.97 507.12c-0.88828 0.3754-0.81912 4.4842-0.21121 11.58 0.60794 7.0961 1.7599 17.195 2.9568 29.671 1.197 12.476 2.4073 27.358 3.3793 43.959 0.85632 14.627 1.5018 30.637 1.9853 47.416h13.517c-0.55603-17.401-1.6018-34.076-3.1258-49.26-1.7042-16.979-3.9689-32.135-6.4205-44.651-2.4517-12.516-5.0808-22.398-7.2654-29.037-2.1846-6.6393-3.9271-10.055-4.8154-9.6792z"/>
   <path d="m93.921 644c0.030144-3.126 0.041328-6.254 0-9.4358-0.031723-2.2336-0.11056-4.4965-0.18204-6.754-0.43878-13.864-1.6468-27.188-3.7139-39.382-2.067-12.194-4.9747-23.269-8.52-32.926-3.2367-8.9643-6.9917-16.706-10.778-23.093-3.7858-6.3869-7.6162-11.406-10.996-15.346-7.64-6.9513-12.016-11.718-11.615-13.061 0.42422-1.3258 5.6519 0.94833 14.71 6.2573 4.1579 3.3143 8.9095 8.069 13.69 14.502 4.7808 6.4323 9.5646 14.588 13.727 24.334 4.3809 10.387 8.0418 22.431 10.632 35.657 2.5901 13.226 4.1257 27.612 4.5513 42.411 0.069359 2.41 0.095543 4.8262 0.1091 7.201 0.022659 3.2555-0.013161 6.4448-0.072784 9.6345h-11.542 8.4e-5z"/>
   <path d="m131.89 644c0.24664-3.0969 0.52152-6.1985 0.72815-9.3361 1.2251-18.601 1.614-36.658 1.2622-53.698-0.40753-19.949-1.8484-38.53-3.7864-55.089s-4.3552-31.062-6.6021-43.104c-2.2468-12.043-4.2833-21.631-5.534-28.339-1.2507-6.7078-1.7229-10.548-0.92235-11.058 0.80051-0.50952 2.79 2.3593 5.534 8.3427 2.744 5.9835 6.2632 15.101 9.8545 27.015s7.2205 26.658 10.194 43.766c2.9738 17.109 5.2576 36.572 6.1651 57.605 0.77029 17.928 0.59947 36.961-0.67963 56.479-0.16344 2.4943-0.33829 4.9487-0.534 7.4158h-15.68z"/>
   <path d="m164.99 644c3.1113-13.093 6.3269-25.562 9.2846-37.246 3.1872-12.59 6.0667-24.334 8.4108-35.111 1.3672-6.2969 2.5628-12.243 3.5318-17.779 0.96898-5.536 1.7022-10.656 2.2575-15.346 0.54352-4.6334 0.89729-8.843 1.1287-12.515 0.23138-3.6719 0.32979-6.7948 0.40051-9.3862 0.070648-2.5914 0.13858-4.6484 0.25485-6.0588 0.11621-1.4102 0.29881-2.1861 0.61899-2.2845 0.32018-0.098145 0.77028 0.49512 1.2744 1.788 0.50407 1.2927 1.0742 3.3062 1.602 5.9593 0.52788 2.6533 0.99171 5.9539 1.3108 9.8828 0.31909 3.929 0.45952 8.452 0.36412 13.458-0.090958 5.0597-0.39612 10.63-0.98309 16.587-0.58698 5.957-1.4366 12.336-2.5123 18.971-1.8344 11.342-4.2898 23.607-7.1729 36.501-2.338 10.457-4.9815 21.391-7.6098 32.578h-12.161z"/>
   <path d="m215.9 644c0.067657-2.3434 0.15802-4.6594 0.21843-7.0321 0.006577-0.23444-0.005264-0.48047 0-0.71503 0.49294-20.029 0.72675-39.138 1.0049-56.614 0.27823-17.476 0.63043-33.316 1.136-46.602 0.50558-13.286 1.159-24.027 1.9661-31.466 0.8072-7.4385 1.7442-11.561 2.7089-11.561 0.96475 0 1.8871 4.0975 2.7526 11.501 0.86557 7.4041 1.687 18.098 2.4468 31.346 0.75978 13.248 1.4505 29.07 1.8788 46.662 0.42822 17.592 0.58379 36.983 0.087418 57.389-0.00528 0.23908 0.005264 0.47638 0 0.71521-0.052673 2.1494-0.15048 4.248-0.21844 6.3765h-13.982z"/>
   <path d="m252.49 644c0.29462-10.026 0.92165-19.644 1.8884-28.455 1.1712-10.673 2.8179-20.172 4.646-27.923 1.8281-7.7506 3.8083-13.763 5.4553-17.743 1.647-3.9804 2.9292-5.939 3.5369-5.6011 0.60776 0.33826 0.48669 2.9454-0.059875 7.3182-0.5466 4.3726-1.4799 10.524-2.3979 18.193-0.91803 7.6692-1.8007 16.848-2.4279 27.146-0.50925 8.3611-0.83133 17.497-1.0491 27.065h-9.5918z"/>
   <path d="m374.68 481.85c-0.36105-0.007111-0.94586 0.61044-1.7113 1.8873-0.87479 1.4591-1.9864 3.7806-3.2041 6.9031-1.2176 3.1224-2.5331 7.0534-3.7866 11.82-1.2535 4.7658-2.4341 10.378-3.3498 16.686-0.83826 5.7858-1.4368 12.157-1.7477 19.02-0.31076 6.8635-0.31674 14.221 0.036377 21.901 0.52631 11.338 1.7393 23.392 3.641 35.856s4.4842 25.327 7.4277 38.339c0.60016 2.6531 1.2081 5.2471 1.8205 7.8466 0.23984 1.0234 0.48685 2.0139 0.72818 3.0294h12.161c-0.61267-2.608-1.2117-5.1534-1.8205-7.797-0.58893-2.5714-1.1616-5.1428-1.7477-7.7472-2.8747-12.774-5.4689-25.201-7.537-37.048-2.0681-11.846-3.5977-23.114-4.5149-33.72-0.62308-7.1613-0.99289-14.021-1.0923-20.411-0.099365-6.3901 0.069489-12.324 0.40048-17.779 0.71582-11.87 2.268-21.375 3.3862-27.96 0.55905-3.2926 0.98898-5.8784 1.2015-7.6976 0.21256-1.8193 0.19339-2.8572-0.14563-3.0792-0.042358-0.027588-0.094086-0.04834-0.14563-0.049469l1e-4 -2e-4z"/>
   <path d="m315.78 482.98c-0.13187-0.036041-0.30893 0.032288-0.43628 0.29767-0.12729 0.26492-0.18713 0.77551-0.21817 1.1305-0.065247 0.62759-0.071014 1.4422 0 2.3803 0.1405 1.8543 0.54837 4.3463 1.1344 7.3194 1.166 5.9094 3.1326 14.03 5.4972 23.922 4.6681 19.52 11.006 46.332 15.924 77.955 2.3886 15.372 4.3851 31.904 5.759 49.153h14.092c-1.4949-18.846-4.0126-36.801-7.0678-53.259-3.0226-16.296-6.5739-31.143-10.209-44.274-3.6352-13.131-7.3407-24.533-10.733-33.919-3.4496-9.5492-6.5297-16.95-8.9003-22.137-1.2024-2.6385-2.1893-4.6435-2.9667-6.0698-0.39731-0.73627-0.73117-1.2628-1.0035-1.6662-0.17676-0.37106-0.3862-0.42325-0.52353-0.5354-0.13739-0.11252-0.21722-0.26163-0.34906-0.29767z"/>
   <path d="m290.17 514.48c-0.74054 0.34003-0.48306 4.443 0.47333 11.571s2.5989 17.316 4.5149 29.896 4.0974 27.52 5.7529 44.199c1.3834 13.938 2.3952 29.098 2.5487 44.994h11.542c-0.31778-16.878-1.7252-32.823-3.6775-47.278-2.3212-17.187-5.3612-32.326-8.3379-44.795-2.9768-12.469-5.8832-22.237-8.1559-28.854-2.2727-6.6163-3.9201-10.074-4.6605-9.7336z"/>
   <path d="m406.99 517.67c-0.8616 0-1.6699 3.3014-2.4583 9.1543-0.78839 5.8527-1.5734 14.281-2.3412 24.748-0.76773 10.468-1.4976 22.95-2.068 36.883-0.5705 13.933-0.9653 29.326-0.74142 45.558 0.006592 0.53918 0.030182 1.0589 0.038971 1.5966 0.041321 2.8013 0.11398 5.5961 0.19513 8.356h12.487c-0.065674-2.8855-0.14569-5.7861-0.19513-8.7285-0.007874-0.52386-0.031586-1.0178-0.038971-1.5436-0.22443-15.825-0.21185-31.012-0.27313-44.866-0.06134-13.855-0.18457-26.38-0.5463-36.936-0.36169-10.557-0.93384-19.105-1.6389-25.014-0.70505-5.9098-1.5577-9.2076-2.4193-9.2076z"/>
   <path d="m418.45 530.82c-0.76569 0.32342-0.70608 3.8654-0.18204 9.9819 0.52399 6.1167 1.517 14.822 2.5487 25.576s2.075 23.582 2.9128 37.892c0.73816 12.608 1.2946 26.408 1.7112 40.872h11.651c-0.47931-15-1.3807-29.373-2.6944-42.461-1.469-14.636-3.4211-27.7-5.5344-38.488-2.1132-10.788-4.3796-19.307-6.2626-25.03-1.8831-5.723-3.3851-8.6668-4.1508-8.3431z"/>
   <path d="m282.21 644c-0.24661-3.0969-0.52154-6.1985-0.72815-9.3361-1.2251-18.601-1.614-36.658-1.2622-53.698 0.4075-19.949 1.8484-38.53 3.7864-55.089s4.3552-31.062 6.602-43.104c2.2469-12.043 4.2834-21.631 5.5341-28.339 1.2507-6.7078 1.7229-10.548 0.92233-11.058-0.80054-0.50952-2.7901 2.3593-5.5341 8.3427-2.744 5.9835-6.2632 15.101-9.8545 27.015-3.5912 11.914-7.2205 26.658-10.194 43.766-2.9738 17.109-5.2577 36.572-6.1652 57.605-0.77026 17.928-0.59943 36.961 0.67966 56.479 0.16345 2.4943 0.33829 4.9487 0.534 7.4158h15.68z"/>
   <path d="m235.54 481.85c0.36107-0.007111 0.94583 0.61044 1.7113 1.8873 0.8748 1.4591 1.9865 3.7806 3.2041 6.9031 1.2177 3.1224 2.5331 7.0534 3.7867 11.82 1.2536 4.7658 2.4341 10.378 3.3497 16.686 0.83829 5.7858 1.4369 12.157 1.7477 19.02 0.31081 6.8635 0.3168 14.221-0.036316 21.901-0.52629 11.338-1.7393 23.392-3.641 35.856s-4.4842 25.327-7.4277 38.339c-0.60014 2.6531-1.2081 5.2471-1.8205 7.8466-0.23982 1.0234-0.48688 2.0139-0.72821 3.0294h-12.161c0.61269-2.608 1.2118-5.1534 1.8205-7.797 0.58893-2.5714 1.1616-5.1428 1.7477-7.7472 2.8747-12.774 5.4689-25.201 7.537-37.048 2.0681-11.846 3.5976-23.114 4.5149-33.72 0.62303-7.1613 0.9929-14.021 1.0923-20.411 0.09938-6.3901-0.069489-12.324-0.40051-17.779-0.71578-11.87-2.2679-21.375-3.3862-27.96-0.5591-3.2926-0.98897-5.8784-1.2015-7.6976-0.21252-1.8193-0.19339-2.8572 0.14566-3.0792 0.042389-0.027588 0.094101-0.04834 0.14563-0.049469l-1e-4 -2e-4z"/>
   <path d="m406.32 491.96c0.13193-0.035919 0.30899 0.032349 0.43631 0.29755 0.12729 0.26514 0.18713 0.77557 0.21814 1.1306 0.065277 0.62762 0.071075 1.4422 0 2.3801-0.14044 1.8544-0.54831 4.3466-1.1344 7.3196-1.166 5.9095-3.1326 14.03-5.4972 23.922-4.6681 19.52-11.006 46.332-15.924 77.955-2.3886 15.372-4.3851 31.903-5.759 49.153h-14.092c1.4949-18.846 4.0126-36.801 7.0678-53.259 3.0226-16.296 6.574-31.143 10.209-44.274 3.6352-13.131 7.3407-24.533 10.733-33.919 3.4496-9.5493 6.5296-16.95 8.9002-22.137 1.2025-2.6382 2.1893-4.6433 2.9668-6.0697 0.39728-0.73648 0.73111-1.2628 1.0034-1.6662 0.17679-0.37128 0.38617-0.42319 0.52356-0.53558 0.13736-0.11249 0.21722-0.2616 0.349-0.29755z"/>
   <path d="m466.15 514.48c0.74051 0.34003 0.48303 4.443-0.47336 11.571s-2.5989 17.316-4.5149 29.896-4.0974 27.52-5.7528 44.199c-1.3834 13.938-2.3952 29.098-2.5487 44.994h-11.542c0.31775-16.878 1.7252-32.823 3.6775-47.278 2.3212-17.187 5.3612-32.326 8.338-44.795s5.8832-22.237 8.1559-28.854c2.2727-6.6163 3.92-10.074 4.6605-9.7336z"/>
   <path d="m175.59 512.29c0.86159 0 1.6699 3.3014 2.4583 9.1543 0.78841 5.8528 1.5734 14.281 2.3412 24.748 0.76775 10.468 1.4976 22.95 2.0681 36.883 0.57051 13.933 0.96533 29.326 0.74142 45.558-0.006592 0.53925-0.030136 1.0591-0.038971 1.5967-0.041321 2.8011-0.11397 5.5961-0.19511 8.3559h-12.487c0.065674-2.8854 0.14566-5.7861 0.19508-8.7285 0.007904-0.52393 0.031616-1.0178 0.038986-1.5435 0.22443-15.825 0.21185-31.012 0.27315-44.866 0.061356-13.855 0.1846-26.38 0.54628-36.936 0.36171-10.557 0.93385-19.105 1.6389-25.014 0.70506-5.9096 1.5577-9.2076 2.4193-9.2076z"/>
   <path d="m261.53 523.63c0.76569 0.32349 0.70606 3.8655 0.18204 9.9819-0.52405 6.1168-1.517 14.822-2.5487 25.576s-2.075 23.582-2.9128 37.892c-0.73817 12.608-1.2946 26.408-1.7113 40.872h-11.651c0.47932-15 1.3807-29.373 2.6944-42.461 1.469-14.636 3.4211-27.7 5.5344-38.488 2.1132-10.788 4.3795-19.306 6.2626-25.03 1.8831-5.723 3.3851-8.6668 4.1508-8.3432z"/>
   <path d="m451.74 656.42c0.034088-3.5315 0.04657-7.0649 0-10.659-0.03595-2.5231-0.12494-5.0794-0.20566-7.6296-0.49567-15.662-1.8603-30.713-4.1954-44.489s-5.6198-26.286-9.6248-37.195c-3.6564-10.126-7.8983-18.872-12.175-26.087-4.2766-7.2153-8.6038-12.886-12.422-17.335-8.6306-7.8528-13.574-13.238-13.121-14.755 0.47919-1.4977 6.3847 1.0714 16.617 7.0689 4.6971 3.744 10.065 9.1151 15.466 16.382 5.4007 7.2665 10.805 16.48 15.507 27.49 4.9489 11.734 9.0845 25.34 12.01 40.281 2.9259 14.941 4.6607 31.192 5.1415 47.911 0.078308 2.7223 0.10791 5.4519 0.12329 8.1347 0.025665 3.6774-0.014465 7.2805-0.082245 10.884h-13.039 9.2e-5z"/>
   <path d="m494.63 656.42c0.27866-3.4986 0.58914-7.0022 0.8226-10.547 1.3839-21.013 1.8232-41.411 1.4258-60.661-0.46036-22.535-2.0881-43.526-4.2775-62.232-2.1893-18.706-4.9199-35.089-7.4581-48.693s-4.8388-24.436-6.2517-32.014c-1.4129-7.5774-1.9463-11.916-1.0419-12.491 0.90436-0.5755 3.1519 2.6653 6.2516 9.4246 3.0998 6.7592 7.0754 17.059 11.132 30.517 4.057 13.459 8.1568 30.114 11.516 49.441 3.3594 19.327 5.9394 41.315 6.9645 65.074 0.87018 20.254 0.67718 41.754-0.7677 63.802-0.18469 2.8178-0.3822 5.5904-0.60327 8.3774h-17.713z"/>
   <path d="m532.03 656.42c3.5147-14.79 7.1473-28.877 10.488-42.076 3.6004-14.223 6.8534-27.49 9.5014-39.664 1.5444-7.1133 2.8951-13.831 3.9898-20.084 1.0947-6.2538 1.923-12.038 2.5502-17.335 0.61401-5.2342 1.0137-9.9896 1.2751-14.138 0.26141-4.148 0.37256-7.6757 0.45245-10.603 0.079895-2.9274 0.15656-5.2513 0.2879-6.8444 0.13135-1.5933 0.33758-2.4698 0.69928-2.5807 0.36163-0.11096 0.87012 0.55926 1.4396 2.0196 0.56946 1.4604 1.2135 3.7351 1.8098 6.7323 0.59625 2.9971 1.1202 6.7256 1.4807 11.164 0.36047 4.4385 0.51916 9.548 0.41132 15.203-0.10278 5.7157-0.44745 12.008-1.1105 18.738-0.66309 6.7296-1.6228 13.935-2.8381 21.431-2.0723 12.813-4.8461 26.668-8.103 41.234-2.6412 11.813-5.6274 24.165-8.5965 36.803h-13.738z"/>
   <path d="m725.34 656.42c-0.076355-2.6474-0.17853-5.2635-0.24683-7.9441-0.007874-0.26453 0.006592-0.54248 0-0.80768-0.55676-22.626-0.82092-44.213-1.1352-63.955-0.31427-19.743-0.71216-37.636-1.2833-52.645-0.57117-15.009-1.3093-27.142-2.2211-35.546-0.91186-8.4032-1.9703-13.06-3.0602-13.06-1.0898 0-2.1317 4.629-3.1094 12.993-0.97784 8.3641-1.9058 20.445-2.7641 35.411-0.85834 14.966-1.6386 32.839-2.1224 52.712-0.4837 19.874-0.65948 41.778-0.098694 64.831 0.006531 0.27014-0.006592 0.53802 0 0.80786 0.059448 2.4281 0.16992 4.799 0.24683 7.2034h15.794z"/>
   <path d="m684.01 656.42c-0.33282-11.326-1.0411-22.192-2.1332-32.144-1.3229-12.057-3.1832-22.788-5.2483-31.544-2.0652-8.7557-4.3021-15.548-6.1627-20.044-1.8605-4.4965-3.309-6.7094-3.9955-6.3272-0.68652 0.38178-0.5498 3.3272 0.067688 8.2668 0.61743 4.9398 1.6718 11.889 2.7088 20.552 1.037 8.6637 2.0342 19.033 2.7427 30.666 0.57532 9.4454 0.93915 19.766 1.1851 30.574h10.835z"/>
   <path d="m768.9 473.24c-0.4079-0.008972-1.0685 0.6893-1.9332 2.1318-0.98822 1.6485-2.244 4.2708-3.6196 7.7982-1.3756 3.5272-2.8616 7.9683-4.2776 13.352-1.4161 5.3838-2.7498 11.723-3.7841 18.85-0.94702 6.536-1.6232 13.733-1.9743 21.487-0.35107 7.7535-0.35785 16.065 0.041016 24.741 0.5946 12.809 1.9648 26.425 4.1132 40.505 2.1483 14.08 5.0657 28.61 8.3909 43.31 0.67792 2.9971 1.3648 5.9276 2.0566 8.8641 0.271 1.1561 0.55005 2.275 0.82263 3.4222h13.738c-0.69208-2.9461-1.3688-5.8216-2.0566-8.808-0.66528-2.905-1.3122-5.8096-1.9744-8.7518-3.2474-14.43-6.1779-28.469-8.5142-41.852-2.3362-13.382-4.0642-26.111-5.1003-38.093-0.7038-8.09-1.1216-15.839-1.234-23.058-0.11218-7.2188 0.078613-13.922 0.45245-20.084 0.80866-13.409 2.5621-24.146 3.8253-31.585 0.63159-3.7195 1.1172-6.6406 1.3574-8.6957 0.24011-2.0553 0.21851-3.2276-0.16455-3.4784-0.047852-0.031281-0.1062-0.054779-0.16449-0.056l1e-4 -1e-4z"/>
   <path d="m612.51 474.52c0.14905-0.040558 0.34906 0.036591 0.49286 0.33618 0.1438 0.29941 0.21143 0.87616 0.24646 1.2772 0.073853 0.70904 0.080444 1.6293 0 2.689-0.15875 2.0946-0.61945 4.91-1.2815 8.2686-1.3172 6.6757-3.5388 15.849-6.21 27.024-5.2734 22.051-12.433 52.339-17.989 88.063-2.6984 17.366-4.9537 36.04-6.5057 55.527h-15.919c1.6887-21.29 4.5328-41.573 7.9843-60.165 3.4145-18.409 7.4263-35.181 11.533-50.014 4.1065-14.833 8.2925-27.714 12.124-38.318 3.8969-10.788 7.3763-19.148 10.054-25.007 1.3583-2.9804 2.4732-5.2455 3.3514-6.8568 0.44885-0.83197 0.82605-1.4266 1.1336-1.8823 0.19971-0.41931 0.43622-0.47815 0.59143-0.60504 0.15521-0.12683 0.24542-0.29541 0.39429-0.33612z"/>
   <path d="m641.43 510.1c0.83655 0.38406 0.54565 5.0192-0.53467 13.072-1.0804 8.0524-2.936 19.562-5.1003 33.773-2.1644 14.211-4.6287 31.089-6.4988 49.93-1.5627 15.745-2.7059 32.871-2.8792 50.828h-13.039c0.35895-19.067 1.9488-37.079 4.1543-53.409 2.6222-19.416 6.0564-36.517 9.4191-50.604 3.3628-14.086 6.6461-25.12 9.2135-32.595 2.5674-7.4744 4.4284-11.38 5.2648-10.996z"/>
   <path d="m805.4 513.71c-0.97327 0-1.8865 3.7294-2.7771 10.341-0.89062 6.6118-1.7775 16.133-2.6448 27.958-0.86725 11.825-1.6918 25.926-2.3363 41.666-0.64441 15.74-1.0904 33.128-0.83746 51.466 0.007874 0.60901 0.034058 1.1962 0.043945 1.8035 0.04657 3.1644 0.12878 6.3216 0.2204 9.4395h14.106c-0.074219-3.2596-0.16461-6.5365-0.22046-9.8604-0.009216-0.59174-0.035645-1.1497-0.043945-1.7436-0.25354-17.877-0.23932-35.033-0.30853-50.684-0.069275-15.652-0.20856-29.8-0.61713-41.726-0.40869-11.926-1.055-21.582-1.8514-28.258-0.79645-6.6761-1.7596-10.402-2.733-10.402z"/>
   <path d="m818.34 528.56c-0.86499 0.36554-0.79755 4.3664-0.20563 11.276 0.59198 6.91 1.7137 16.744 2.8792 28.892s2.344 26.639 3.2905 42.805c0.83386 14.243 1.4624 29.833 1.9332 46.172h13.162c-0.54144-16.944-1.5597-33.182-3.0438-47.967-1.6595-16.534-3.8647-31.291-6.252-43.479-2.3872-12.187-4.9473-21.81-7.0746-28.275-2.1272-6.4652-3.824-9.7906-4.689-9.4251z"/>
   <path d="m451.74 656.42c0.034088-3.5315 0.04657-7.0649 0-10.659-0.03595-2.5231-0.12494-5.0794-0.20566-7.6296-0.49567-15.662-1.8603-30.713-4.1954-44.489s-5.6198-26.286-9.6248-37.195c-3.6564-10.126-7.8983-18.872-12.175-26.087-4.2766-7.2153-8.6038-12.886-12.422-17.335-8.6306-7.8528-13.574-13.238-13.121-14.755 0.47919-1.4977 6.3847 1.0714 16.617 7.0689 4.6971 3.744 10.065 9.1151 15.466 16.382 5.4007 7.2665 10.805 16.48 15.507 27.49 4.9489 11.734 9.0845 25.34 12.01 40.281 2.9259 14.941 4.6607 31.192 5.1415 47.911 0.078308 2.7223 0.10791 5.4519 0.12329 8.1347 0.025665 3.6774-0.014465 7.2805-0.082245 10.884h-13.039 9.2e-5z"/>
   <path d="m494.63 656.42c0.27866-3.4986 0.58914-7.0022 0.8226-10.547 1.3839-21.013 1.8232-41.411 1.4258-60.661-0.46036-22.535-2.0881-43.526-4.2775-62.232-2.1893-18.706-4.9199-35.089-7.4581-48.693s-4.8388-24.436-6.2517-32.014c-1.4129-7.5774-1.9463-11.916-1.0419-12.491 0.90436-0.5755 3.1519 2.6653 6.2516 9.4246 3.0998 6.7592 7.0754 17.059 11.132 30.517 4.057 13.459 8.1568 30.114 11.516 49.441 3.3594 19.327 5.9394 41.315 6.9645 65.074 0.87018 20.254 0.67718 41.754-0.7677 63.802-0.18469 2.8178-0.3822 5.5904-0.60327 8.3774h-17.713z"/>
   <path d="m532.03 656.42c3.5147-14.79 7.1473-28.877 10.488-42.076 3.6004-14.223 6.8534-27.49 9.5014-39.664 1.5444-7.1133 2.8951-13.831 3.9898-20.084 1.0947-6.2538 1.923-12.038 2.5502-17.335 0.61401-5.2342 1.0137-9.9896 1.2751-14.138 0.26141-4.148 0.37256-7.6757 0.45245-10.603 0.079895-2.9274 0.15656-5.2513 0.2879-6.8444 0.13135-1.5933 0.33758-2.4698 0.69928-2.5807 0.36163-0.11096 0.87012 0.55926 1.4396 2.0196 0.56946 1.4604 1.2135 3.7351 1.8098 6.7323 0.59625 2.9971 1.1202 6.7256 1.4807 11.164 0.36047 4.4385 0.51916 9.548 0.41132 15.203-0.10278 5.7157-0.44745 12.008-1.1105 18.738-0.66309 6.7296-1.6228 13.935-2.8381 21.431-2.0723 12.813-4.8461 26.668-8.103 41.234-2.6412 11.813-5.6274 24.165-8.5965 36.803h-13.738z"/>
   <path d="m725.34 656.42c-0.076355-2.6474-0.17853-5.2635-0.24683-7.9441-0.007874-0.26453 0.006592-0.54248 0-0.80768-0.55676-22.626-0.82092-44.213-1.1352-63.955-0.31427-19.743-0.71216-37.636-1.2833-52.645-0.57117-15.009-1.3093-27.142-2.2211-35.546-0.91186-8.4032-1.9703-13.06-3.0602-13.06-1.0898 0-2.1317 4.629-3.1094 12.993-0.97784 8.3641-1.9058 20.445-2.7641 35.411-0.85834 14.966-1.6386 32.839-2.1224 52.712-0.4837 19.874-0.65948 41.778-0.098694 64.831 0.006531 0.27014-0.006592 0.53802 0 0.80786 0.059448 2.4281 0.16992 4.799 0.24683 7.2034h15.794z"/>
   <path d="m684.01 656.42c-0.33282-11.326-1.0411-22.192-2.1332-32.144-1.3229-12.057-3.1832-22.788-5.2483-31.544-2.0652-8.7557-4.3021-15.548-6.1627-20.044-1.8605-4.4965-3.309-6.7094-3.9955-6.3272-0.68652 0.38178-0.5498 3.3272 0.067688 8.2668 0.61743 4.9398 1.6718 11.889 2.7088 20.552 1.037 8.6637 2.0342 19.033 2.7427 30.666 0.57532 9.4454 0.93915 19.766 1.1851 30.574h10.835z"/>
   <path d="m768.9 473.24c-0.4079-0.008972-1.0685 0.6893-1.9332 2.1318-0.98822 1.6485-2.244 4.2708-3.6196 7.7982-1.3756 3.5272-2.8616 7.9683-4.2776 13.352-1.4161 5.3838-2.7498 11.723-3.7841 18.85-0.94702 6.536-1.6232 13.733-1.9743 21.487-0.35107 7.7535-0.35785 16.065 0.041016 24.741 0.5946 12.809 1.9648 26.425 4.1132 40.505 2.1483 14.08 5.0657 28.61 8.3909 43.31 0.67792 2.9971 1.3648 5.9276 2.0566 8.8641 0.271 1.1561 0.55005 2.275 0.82263 3.4222h13.738c-0.69208-2.9461-1.3688-5.8216-2.0566-8.808-0.66528-2.905-1.3122-5.8096-1.9744-8.7518-3.2474-14.43-6.1779-28.469-8.5142-41.852-2.3362-13.382-4.0642-26.111-5.1003-38.093-0.7038-8.09-1.1216-15.839-1.234-23.058-0.11218-7.2188 0.078613-13.922 0.45245-20.084 0.80866-13.409 2.5621-24.146 3.8253-31.585 0.63159-3.7195 1.1172-6.6406 1.3574-8.6957 0.24011-2.0553 0.21851-3.2276-0.16455-3.4784-0.047852-0.031281-0.1062-0.054779-0.16449-0.056l1e-4 -1e-4z"/>
   <path d="m612.51 474.52c0.14905-0.040558 0.34906 0.036591 0.49286 0.33618 0.1438 0.29941 0.21143 0.87616 0.24646 1.2772 0.073853 0.70904 0.080444 1.6293 0 2.689-0.15875 2.0946-0.61945 4.91-1.2815 8.2686-1.3172 6.6757-3.5388 15.849-6.21 27.024-5.2734 22.051-12.433 52.339-17.989 88.063-2.6984 17.366-4.9537 36.04-6.5057 55.527h-15.919c1.6887-21.29 4.5328-41.573 7.9843-60.165 3.4145-18.409 7.4263-35.181 11.533-50.014 4.1065-14.833 8.2925-27.714 12.124-38.318 3.8969-10.788 7.3763-19.148 10.054-25.007 1.3583-2.9804 2.4732-5.2455 3.3514-6.8568 0.44885-0.83197 0.82605-1.4266 1.1336-1.8823 0.19971-0.41931 0.43622-0.47815 0.59143-0.60504 0.15521-0.12683 0.24542-0.29541 0.39429-0.33612z"/>
   <path d="m641.43 510.1c0.83655 0.38406 0.54565 5.0192-0.53467 13.072-1.0804 8.0524-2.936 19.562-5.1003 33.773-2.1644 14.211-4.6287 31.089-6.4988 49.93-1.5627 15.745-2.7059 32.871-2.8792 50.828h-13.039c0.35895-19.067 1.9488-37.079 4.1543-53.409 2.6222-19.416 6.0564-36.517 9.4191-50.604 3.3628-14.086 6.6461-25.12 9.2135-32.595 2.5674-7.4744 4.4284-11.38 5.2648-10.996z"/>
   <path d="m805.4 513.71c-0.97327 0-1.8865 3.7294-2.7771 10.341-0.89062 6.6118-1.7775 16.133-2.6448 27.958-0.86725 11.825-1.6918 25.926-2.3363 41.666-0.64441 15.74-1.0904 33.128-0.83746 51.466 0.007874 0.60901 0.034058 1.1962 0.043945 1.8035 0.04657 3.1644 0.12878 6.3216 0.2204 9.4395h14.106c-0.074219-3.2596-0.16461-6.5365-0.22046-9.8604-0.009216-0.59174-0.035645-1.1497-0.043945-1.7436-0.25354-17.877-0.23932-35.033-0.30853-50.684-0.069275-15.652-0.20856-29.8-0.61713-41.726-0.40869-11.926-1.055-21.582-1.8514-28.258-0.79645-6.6761-1.7596-10.402-2.733-10.402z"/>
   <path d="m818.34 528.56c-0.86499 0.36554-0.79755 4.3664-0.20563 11.276 0.59198 6.91 1.7137 16.744 2.8792 28.892s2.344 26.639 3.2905 42.805c0.83386 14.243 1.4624 29.833 1.9332 46.172h13.162c-0.54144-16.944-1.5597-33.182-3.0438-47.967-1.6595-16.534-3.8647-31.291-6.252-43.479-2.3872-12.187-4.9473-21.81-7.0746-28.275-2.1272-6.4652-3.824-9.7906-4.689-9.4251z"/>
   <path d="m462.35 638.44c0.035034-3.6264 0.047943-7.2554 0-10.947-0.036835-2.5911-0.12833-5.2163-0.21118-7.8353-0.509-16.084-1.9105-31.541-4.3085-45.688-2.3981-14.147-5.7713-26.994-9.8842-38.198-3.7549-10.4-8.1112-19.381-12.503-26.791-4.3919-7.4096-8.8357-13.233-12.757-17.803-8.8633-8.0645-13.94-13.594-13.475-15.152 0.4921-1.538 6.5568 1.1002 17.065 7.2593 4.8237 3.845 10.336 9.3609 15.882 16.823 5.5464 7.4622 11.096 16.924 15.925 28.231 5.0823 12.05 9.3294 26.023 12.334 41.367 3.0048 15.344 4.7863 32.033 5.2801 49.202 0.080414 2.7958 0.11081 5.5988 0.12659 8.3539 0.026367 3.7767-0.014862 7.477-0.084473 11.177h-13.39 1.22e-4z"/>
   <path d="m502.19 638.44c0.34589-4.0914 0.73132-8.1889 1.0211-12.334 1.718-24.575 2.2633-48.431 1.77-70.943-0.57144-26.355-2.5921-50.904-5.3098-72.78-2.7178-21.876-6.1074-41.037-9.2583-56.947-3.1508-15.91-6.0067-28.578-7.7606-37.44-1.7539-8.8619-2.4161-13.935-1.2934-14.608 1.1226-0.67325 3.9126 3.117 7.7606 11.022 3.848 7.9049 8.7831 19.95 13.819 35.69 5.0361 15.74 10.126 35.219 14.296 57.822 4.1702 22.603 7.373 48.317 8.6456 76.104 1.0803 23.687 0.8407 48.832-0.953 74.617-0.22925 3.2952-0.47443 6.5378-0.74884 9.7972h-21.988z"/>
   <path d="m544.8 638.44c3.6095-15.189 7.34-29.656 10.771-43.21 3.6975-14.606 7.0382-28.231 9.7575-40.733 1.5861-7.305 2.9733-14.203 4.0974-20.626 1.1242-6.4226 1.9747-12.362 2.6189-17.803 0.63055-5.3754 1.0411-10.259 1.3094-14.519 0.26843-4.2598 0.38263-7.8829 0.46466-10.889 0.08197-3.0062 0.16077-5.3928 0.29565-7.0289 0.13489-1.6361 0.34668-2.5363 0.71814-2.6503 0.3714-0.11398 0.89362 0.57428 1.4784 2.074 0.58478 1.4999 1.2462 3.8359 1.8586 6.9137 0.61237 3.0781 1.1504 6.907 1.5206 11.465 0.37018 4.5582 0.53314 9.8054 0.42242 15.613-0.10559 5.8698-0.45953 12.332-1.1405 19.243-0.68097 6.9111-1.6665 14.311-2.9146 22.009-2.1282 13.158-4.9768 27.387-8.3214 42.346-2.7123 12.131-5.7792 24.816-8.8282 37.795h-14.108z"/>
   <path d="m711.02 638.44c-0.078369-2.7188-0.18329-5.4053-0.25342-8.158-0.007874-0.27197 0.006592-0.55743 0-0.82953-0.57184-23.236-0.84308-45.404-1.1658-65.679-0.32282-20.275-0.73138-38.651-1.3179-54.064-0.58649-15.414-1.3445-27.874-2.2809-36.504-0.9364-8.6298-2.0235-13.412-3.1426-13.412-1.1192 0-2.1892 4.7538-3.1933 13.343-1.0042 8.5895-1.9572 20.996-2.8386 36.366-0.88147 15.37-1.6828 33.724-2.1796 54.134-0.49683 20.409-0.67731 42.904-0.10138 66.578 0.006592 0.27734-0.006592 0.55255 0 0.82977 0.061035 2.4934 0.17456 4.9282 0.25342 7.3974h16.22z"/>
   <path d="m668.57 638.44c-0.3418-11.631-1.0693-22.79-2.1907-33.011-1.3586-12.382-3.2691-23.403-5.39-32.394-2.1207-8.9917-4.418-15.967-6.3287-20.584-1.9107-4.6177-3.3983-6.8901-4.1033-6.4979-0.70502 0.39215-0.56458 3.4169 0.069519 8.4899 0.63416 5.0728 1.7169 12.209 2.7819 21.106 1.0651 8.8972 2.089 19.546 2.8167 31.493 0.59076 9.7 0.96442 20.299 1.217 31.398h11.128z"/>
   <path d="m788.06 450.32c-0.41888-0.008942-1.0973 0.70813-1.9853 2.1893-1.0148 1.6929-2.3045 4.386-3.7171 8.0084-1.4127 3.6224-2.9388 8.183-4.3931 13.712-1.4542 5.5292-2.8238 12.04-3.886 19.358-0.97253 6.7123-1.667 14.104-2.0276 22.066-0.36054 7.9626-0.36743 16.499 0.042114 25.408 0.6106 13.154 2.0178 27.138 4.2241 41.597 2.2062 14.46 5.2022 29.382 8.617 44.478 0.69629 3.0779 1.4016 6.0872 2.112 9.103 0.27832 1.1871 0.56488 2.3362 0.84485 3.5145h14.108c-0.71082-3.0255-1.4058-5.9786-2.112-9.0454-0.68329-2.9833-1.3475-5.9663-2.0276-8.9878-3.335-14.819-6.3445-29.237-8.7436-42.98-2.3993-13.743-4.1738-26.815-5.2378-39.12-0.7229-8.3082-1.152-16.266-1.2672-23.679-0.1153-7.4133 0.080627-14.297 0.46466-20.626 0.83032-13.771 2.6311-24.797 3.9284-32.436 0.64856-3.8197 1.1473-6.8195 1.3939-8.9302 0.24652-2.1106 0.22436-3.3146-0.16894-3.572-0.049255-0.032043-0.10913-0.056244-0.16894-0.057373l1e-4 -3e-4z"/>
   <path d="m719.73 451.63c-0.15302-0.041565-0.3584 0.037537-0.5061 0.34524-0.1477 0.30756-0.2171 0.89975-0.25311 1.3116-0.075745 0.72824-0.08252 1.6733 0 2.7616 0.16302 2.1512 0.63617 5.0421 1.316 8.4913 1.3528 6.8557 3.6342 16.276 6.3775 27.752 5.4155 22.645 12.768 53.75 18.474 90.437 2.7711 17.834 5.0873 37.012 6.6811 57.024h16.349c-1.7342-21.864-4.6552-42.694-8.1996-61.787-3.5066-18.905-7.6265-36.13-11.844-51.363-4.2173-15.233-8.5161-28.461-12.451-39.351-4.0019-11.078-7.5751-19.664-10.325-25.681-1.395-3.0607-2.5399-5.387-3.4418-7.0416-0.46094-0.85428-0.84827-1.4651-1.1641-1.933-0.20508-0.43054-0.448-0.49097-0.60742-0.62134-0.15936-0.13031-0.25201-0.30331-0.40491-0.34524z"/>
   <path d="m624.85 488.17c0.85907 0.39447 0.56036 5.1544-0.54913 13.424-1.1096 8.2696-3.015 20.089-5.2378 34.684-2.2228 14.594-4.7535 31.927-6.674 51.276-1.6049 16.17-2.7787 33.757-2.9568 52.198h-13.39c0.36865-19.581 2.0014-38.079 4.2663-54.848 2.6929-19.939 6.2197-37.502 9.673-51.968 3.4534-14.466 6.8253-25.798 9.4618-33.474 2.6366-7.6757 4.5477-11.687 5.4068-11.292z"/>
   <path d="m825.54 491.88c-0.99957 0-1.9373 3.8302-2.8519 10.62-0.91467 6.79-1.8254 16.568-2.7161 28.711-0.89075 12.144-1.7375 26.624-2.3993 42.789-0.6618 16.164-1.1199 34.022-0.86005 52.853 0.007874 0.62543 0.034912 1.2285 0.045166 1.8523 0.047852 3.2496 0.13214 6.4919 0.22626 9.6938h14.486c-0.076172-3.3476-0.16907-6.7125-0.22632-10.126-0.009277-0.6076-0.036621-1.1805-0.045166-1.7905-0.26038-18.359-0.24585-35.977-0.3169-52.051-0.071106-16.073-0.21411-30.603-0.63379-42.851-0.41962-12.247-1.0833-22.164-1.9013-29.02-0.81793-6.8559-1.8071-10.682-2.8066-10.682z"/>
   <path d="m838.84 507.12c-0.88824 0.3754-0.81909 4.4842-0.21118 11.58 0.60791 7.0961 1.7599 17.195 2.9568 29.671 1.197 12.476 2.4073 27.358 3.3793 43.959 0.85632 14.627 1.5018 30.637 1.9853 47.416h13.517c-0.55609-17.401-1.6018-34.076-3.1258-49.26-1.7042-16.979-3.9689-32.135-6.4205-44.651s-5.0808-22.398-7.2654-29.037c-2.1845-6.6393-3.9271-10.055-4.8154-9.6792z"/>
   <path d="m488.78 644c0.030151-3.126 0.041321-6.254 0-9.4358-0.031738-2.2336-0.11054-4.4965-0.18204-6.754-0.43875-13.864-1.6468-27.188-3.7139-39.382-2.067-12.194-4.9747-23.269-8.52-32.926-3.2367-8.9643-6.9917-16.706-10.777-23.093-3.7858-6.3869-7.6162-11.406-10.996-15.346-7.64-6.9513-12.016-11.718-11.615-13.061 0.42422-1.3258 5.6519 0.94833 14.71 6.2573 4.1579 3.3143 8.9095 8.069 13.69 14.502 4.7808 6.4323 9.5646 14.588 13.727 24.334 4.3808 10.387 8.0418 22.431 10.632 35.657 2.5901 13.226 4.1256 27.612 4.5513 42.411 0.069366 2.41 0.095551 4.8262 0.1091 7.201 0.022644 3.2555-0.013153 6.4448-0.072784 9.6345h-11.542 9.2e-5z"/>
   <path d="m528.07 644c0.24664-3.0969 0.52154-6.1985 0.72815-9.3361 1.225-18.601 1.614-36.658 1.2622-53.698-0.40753-19.949-1.8484-38.53-3.7864-55.089s-4.3552-31.062-6.602-43.104c-2.2468-12.043-4.2834-21.631-5.5341-28.339-1.2507-6.7078-1.7229-10.548-0.92236-11.058 0.80054-0.50952 2.7901 2.3593 5.5341 8.3427 2.744 5.9835 6.2632 15.101 9.8546 27.015 3.5912 11.914 7.2205 26.658 10.194 43.766 2.9738 17.109 5.2576 36.572 6.1652 57.605 0.77026 17.928 0.59943 36.961-0.67963 56.479-0.16345 2.4943-0.33832 4.9487-0.534 7.4158h-15.68z"/>
   <path d="m559.86 644c3.1113-13.093 6.3269-25.562 9.2846-37.246 3.1872-12.59 6.0668-24.334 8.4108-35.111 1.3672-6.2969 2.5629-12.243 3.5319-17.779 0.96893-5.536 1.7022-10.656 2.2574-15.346 0.54352-4.6334 0.89734-8.843 1.1287-12.515 0.23138-3.6719 0.32977-6.7948 0.40051-9.3862 0.070679-2.5914 0.13855-4.6484 0.25482-6.0588 0.11627-1.4102 0.29889-2.1861 0.61902-2.2845 0.32013-0.098145 0.77026 0.49512 1.2744 1.788 0.50409 1.2927 1.0742 3.3062 1.602 5.9593 0.52783 2.6533 0.9917 5.9539 1.3108 9.8828 0.31903 3.929 0.45953 8.452 0.36408 13.458-0.090942 5.0597-0.39612 10.63-0.98309 16.587-0.58698 5.957-1.4365 12.336-2.5123 18.971-1.8344 11.342-4.2898 23.607-7.1728 36.501-2.338 10.457-4.9816 21.391-7.6098 32.578h-12.161z"/>
   <path d="m704.11 644c-0.067627-2.3434-0.15802-4.6594-0.21838-7.0321-0.006592-0.23444 0.005188-0.48047 0-0.71503-0.49298-20.029-0.72675-39.138-1.0049-56.614-0.27826-17.476-0.63049-33.316-1.136-46.602-0.50555-13.286-1.159-24.027-1.9661-31.466-0.80725-7.4385-1.7443-11.561-2.7089-11.561-0.96472 0-1.8871 4.0975-2.7526 11.501-0.86554 7.4041-1.687 18.098-2.4468 31.346-0.75977 13.248-1.4505 29.07-1.8788 46.662-0.42816 17.592-0.5838 36.983-0.087402 57.389 0.00531 0.23908-0.005188 0.47638 0 0.71521 0.052734 2.1494 0.15045 4.248 0.21851 6.3765h13.981z"/>
   <path d="m667.52 644c-0.29468-10.026-0.92169-19.644-1.8884-28.455-1.1711-10.673-2.8179-20.172-4.646-27.923-1.8281-7.7506-3.8083-13.763-5.4553-17.743-1.647-3.9804-2.9292-5.939-3.5369-5.6011-0.60773 0.33826-0.48663 2.9454 0.059875 7.3182 0.54669 4.3726 1.4799 10.524 2.3979 18.193 0.91809 7.6692 1.8007 16.848 2.4279 27.146 0.50934 8.3611 0.8313 17.497 1.0491 27.065h9.5918z"/>
   <path d="m769.54 481.85c-0.36108-0.007111-0.94586 0.61044-1.7113 1.8873-0.87476 1.4591-1.9864 3.7806-3.2041 6.9031-1.2176 3.1224-2.5331 7.0534-3.7867 11.82-1.2535 4.7658-2.4341 10.378-3.3497 16.686-0.83826 5.7858-1.4368 12.157-1.7477 19.02-0.31079 6.8635-0.31677 14.221 0.036316 21.901 0.52631 11.338 1.7393 23.392 3.641 35.856s4.4841 25.327 7.4277 38.339c0.6001 2.6531 1.2081 5.2471 1.8205 7.8466 0.23987 1.0234 0.48688 2.0139 0.72821 3.0294h12.161c-0.61273-2.608-1.2118-5.1534-1.8206-7.797-0.58893-2.5714-1.1616-5.1428-1.7477-7.7472-2.8747-12.774-5.4688-25.201-7.5369-37.048-2.0682-11.846-3.5977-23.114-4.515-33.72-0.62305-7.1613-0.99292-14.021-1.0923-20.411-0.099365-6.3901 0.069458-12.324 0.40051-17.779 0.71582-11.87 2.2679-21.375 3.3862-27.96 0.55914-3.2926 0.98901-5.8784 1.2015-7.6976 0.21252-1.8193 0.19336-2.8572-0.14563-3.0792-0.042419-0.027588-0.094177-0.04834-0.14563-0.049469l1e-4 -2e-4z"/>
   <path d="m710.64 482.98c-0.1319-0.036041-0.30896 0.032288-0.43634 0.29767-0.1272 0.26492-0.18713 0.77551-0.21808 1.1305-0.065308 0.62759-0.071106 1.4422 0 2.3803 0.14044 1.8543 0.54828 4.3463 1.1343 7.3194 1.166 5.9094 3.1326 14.03 5.4972 23.922 4.6681 19.52 11.006 46.332 15.924 77.955 2.3886 15.372 4.3851 31.904 5.759 49.153h14.092c-1.4948-18.846-4.0126-36.801-7.0678-53.259-3.0226-16.296-6.5739-31.143-10.209-44.274-3.6352-13.131-7.3407-24.533-10.733-33.919-3.4496-9.5492-6.5296-16.95-8.9002-22.137-1.2024-2.6385-2.1893-4.6435-2.9668-6.0698-0.39728-0.73627-0.73114-1.2628-1.0034-1.6662-0.17676-0.37106-0.38617-0.42325-0.52362-0.5354-0.13733-0.11252-0.21722-0.26163-0.34894-0.29767z"/>
   <path d="m629.84 514.48c0.74054 0.34003 0.48309 4.443-0.47333 11.571-0.95636 7.128-2.5988 17.316-4.5149 29.896-1.9159 12.58-4.0974 27.52-5.7528 44.199-1.3834 13.938-2.3952 29.098-2.5487 44.994h-11.542c0.31769-16.878 1.7251-32.823 3.6774-47.278 2.3213-17.187 5.3613-32.326 8.338-44.795 2.9768-12.469 5.8832-22.237 8.1559-28.854 2.2727-6.6163 3.92-10.074 4.6605-9.7336z"/>
   <path d="m801.85 517.67c-0.86163 0-1.6699 3.3014-2.4584 9.1543-0.78839 5.8527-1.5734 14.281-2.3412 24.748-0.76776 10.468-1.4976 22.95-2.068 36.883-0.57056 13.933-0.96539 29.326-0.74146 45.558 0.006531 0.53918 0.030151 1.0589 0.039001 1.5966 0.04126 2.8013 0.11389 5.5961 0.19507 8.356h12.487c-0.065613-2.8855-0.14563-5.7861-0.19507-8.7285-0.007935-0.52386-0.031616-1.0178-0.03894-1.5436-0.22449-15.825-0.21185-31.012-0.27325-44.866-0.061279-13.855-0.18451-26.38-0.54626-36.936-0.36163-10.557-0.93378-19.105-1.6389-25.014-0.70508-5.9098-1.5577-9.2076-2.4192-9.2076z"/>
   <path d="m813.31 530.82c-0.76569 0.32342-0.70612 3.8654-0.18207 9.9819 0.52405 6.1167 1.517 14.822 2.5487 25.576s2.075 23.582 2.9128 37.892c0.73822 12.608 1.2946 26.408 1.7113 40.872h11.651c-0.47931-15-1.3807-29.373-2.6944-42.461-1.469-14.636-3.4211-27.7-5.5344-38.488s-4.3795-19.307-6.2626-25.03-3.3851-8.6668-4.1508-8.3431z"/>
   <path d="m637.8 644c0.24664-3.0969 0.52154-6.1985 0.72815-9.3361 1.225-18.601 1.614-36.658 1.2622-53.698-0.40747-19.949-1.8484-38.53-3.7864-55.089-1.9381-16.559-4.3552-31.062-6.602-43.104-2.2469-12.043-4.2834-21.631-5.534-28.339-1.2507-6.7078-1.723-10.548-0.92242-11.058 0.80054-0.50952 2.7901 2.3593 5.5341 8.3427 2.744 5.9835 6.2632 15.101 9.8546 27.015 3.5913 11.914 7.2205 26.658 10.194 43.766 2.9738 17.109 5.2576 36.572 6.1652 57.605 0.77032 17.928 0.59949 36.961-0.67963 56.479-0.16351 2.4943-0.33832 4.9487-0.534 7.4158h-15.68z"/>
   <path d="m684.47 481.85c-0.36108-0.007111-0.94586 0.61044-1.7113 1.8873-0.87476 1.4591-1.9864 3.7806-3.2041 6.9031-1.2175 3.1224-2.5331 7.0534-3.7867 11.82-1.2535 4.7658-2.434 10.378-3.3497 16.686-0.83832 5.7858-1.4369 12.157-1.7477 19.02-0.31085 6.8635-0.31677 14.221 0.036316 21.901 0.52624 11.338 1.7394 23.392 3.641 35.856 1.9018 12.464 4.4842 25.327 7.4277 38.339 0.6001 2.6531 1.2081 5.2471 1.8205 7.8466 0.23987 1.0234 0.48688 2.0139 0.72821 3.0294h12.161c-0.61273-2.608-1.2118-5.1534-1.8206-7.797-0.58893-2.5714-1.1616-5.1428-1.7477-7.7472-2.8747-12.774-5.4688-25.201-7.5369-37.048-2.0682-11.846-3.5977-23.114-4.515-33.72-0.62305-7.1613-0.99292-14.021-1.0923-20.411-0.099365-6.3901 0.069458-12.324 0.40051-17.779 0.71582-11.87 2.2679-21.375 3.3862-27.96 0.55908-3.2926 0.98895-5.8784 1.2015-7.6976 0.21252-1.8193 0.19336-2.8572-0.14563-3.0792-0.042419-0.027588-0.094177-0.04834-0.14563-0.049469l1e-4 -2e-4z"/>
   <path d="m801.18 491.96c0.1319-0.035919 0.30896 0.032349 0.43628 0.29755 0.12726 0.26514 0.1872 0.77557 0.21814 1.1306 0.065308 0.62762 0.071106 1.4422 0 2.3801-0.14044 1.8544-0.54828 4.3466-1.1343 7.3196-1.166 5.9095-3.1326 14.03-5.4972 23.922-4.6681 19.52-11.006 46.332-15.924 77.955-2.3886 15.372-4.3852 31.903-5.759 49.153h-14.092c1.4948-18.846 4.0126-36.801 7.0678-53.259 3.0226-16.296 6.5739-31.143 10.209-44.274 3.6352-13.131 7.3407-24.533 10.733-33.919 3.4496-9.5493 6.5297-16.95 8.9003-22.137 1.2024-2.6382 2.1893-4.6433 2.9668-6.0697 0.39728-0.73648 0.73114-1.2628 1.0034-1.6662 0.17682-0.37128 0.38617-0.42319 0.52356-0.53558 0.13739-0.11249 0.21728-0.2616 0.34906-0.29755z"/>
   <path d="m861.01 514.48c0.74054 0.34003 0.48303 4.443-0.47333 11.571-0.95642 7.128-2.5989 17.316-4.515 29.896-1.9159 12.58-4.0974 27.52-5.7528 44.199-1.3834 13.938-2.3952 29.098-2.5488 44.994h-11.542c0.31775-16.878 1.7251-32.823 3.6774-47.278 2.3213-17.187 5.3613-32.326 8.338-44.795s5.8832-22.237 8.1559-28.854c2.2726-6.6163 3.9199-10.074 4.6605-9.7336z"/>
   <path d="m744.42 512.29c-0.86157 0-1.6699 3.3014-2.4583 9.1543-0.78839 5.8528-1.5734 14.281-2.3412 24.748-0.76776 10.468-1.4976 22.95-2.0681 36.883s-0.96539 29.326-0.74139 45.558c0.006592 0.53925 0.030151 1.0591 0.03894 1.5967 0.041321 2.8011 0.11395 5.5961 0.19507 8.3559h12.487c-0.065674-2.8854-0.14569-5.7861-0.19507-8.7285-0.007996-0.52393-0.031677-1.0178-0.039001-1.5435-0.22443-15.825-0.21179-31.012-0.27319-44.866-0.061279-13.855-0.18451-26.38-0.54626-36.936-0.36169-10.557-0.93384-19.105-1.6389-25.014-0.70502-5.9096-1.5577-9.2076-2.4193-9.2076z"/>
   <path d="m658.48 523.63c-0.76562 0.32349-0.70606 3.8655-0.18201 9.9819 0.52399 6.1168 1.517 14.822 2.5487 25.576s2.075 23.582 2.9128 37.892c0.73822 12.608 1.2946 26.408 1.7113 40.872h11.651c-0.47937-15-1.3808-29.373-2.6945-42.461-1.469-14.636-3.421-27.7-5.5343-38.488s-4.3796-19.306-6.2626-25.03c-1.8831-5.723-3.3851-8.6668-4.1508-8.3432z"/>
   <path d="m118.76 622.32c3.2636 1.1024 8.5966 10.064 8.6088-1.3085 19.361-95.588 27.628-198.29 21.076-299.04-2.7944-67.032 2.9274-137.88 26.055-194.05 8.9785-22.933 19.692-43.7 30.655-63.912-25.389 43.131-48.348 94.26-55.765 155.24-7.0918 50.424-4.7162 102.56-3.3189 153.79 0.33868 84.931-9.5464 170.05-27.312 249.28z"/>
   <path d="m221.16 174.36c-28.886 35.091-55.772 77.84-67.287 132.09-3.8273 16.279-6.3807 32.968-8.1626 49.872 0.99352 0.78726 1.9978 1.5531 3.0167 2.271 4.5042-47.755 15.519-94.314 36.809-131.1 10.704-19.393 23.05-36.535 35.624-53.131z"/>
  </g>
  <g transform="matrix(1.155 -.46238 .339 1.5753 187.35 -278.39)" vector-effect="non-scaling-stroke">
   <path d="m-110.84 159.45c-15.59 20.378-28.178 41.899-33.875 66.281-10.18 37.676-6.7557 76.632-4.75 114.91 0.48613 63.458-13.718 127.05-39.219 186.25 4.6847 0.82373 12.326 7.5289 12.344-0.96875 27.791-71.421 39.685-148.16 30.281-223.44-3.9412-49.211 3.9205-101.17 35.688-142.78-0.33734-0.32318-0.15371 0.10262-0.46875-0.25z" fill-rule="evenodd"/>
   <path d="m-104.7 165.08c-5.1474 2.3375-10.275 4.7885-15.354 7.3172 0.12539 0.13042 0.27116 0.2587 0.40464 0.3857 4.9506-2.6228 9.9413-5.1776 14.949-7.7029z"/>
  </g>
 </g>
</svg>
