<?xml version="1.0" encoding="utf-8"?>
<!-- Generator: Adobe Illustrator 22.1.0, SVG Export Plug-In . SVG Version: 6.00 Build 0)  -->
<svg version="1.1" id="Layer_1" xmlns="http://www.w3.org/2000/svg" xmlns:xlink="http://www.w3.org/1999/xlink" x="0px" y="0px"
	 viewBox="0 0 889 660.7" style="enable-background:new 0 0 889 660.7;" xml:space="preserve">
<style type="text/css">
	.st0{fill:none;stroke:#000000;stroke-miterlimit:10;}
</style>
<g>
	<g>
		<path class="st0" d="M56.9,656.4c0-3.5,0-7.1,0-10.7c0-2.5-0.1-5.1-0.2-7.6c-0.5-15.7-1.9-30.7-4.2-44.5s-5.6-26.3-9.6-37.2
			c-3.7-10.1-7.9-18.9-12.2-26.1c-4.3-7.2-8.6-12.9-12.4-17.3c-8.6-7.9-13.6-13.2-13.1-14.8c0.5-1.5,6.4,1.1,16.6,7.1
			c4.7,3.7,10.1,9.1,15.5,16.4c5.4,7.3,10.8,16.5,15.5,27.5c4.9,11.7,9.1,25.3,12,40.3c2.9,14.9,4.7,31.2,5.1,47.9
			c0.1,2.7,0.1,5.5,0.1,8.1c0,3.7,0,7.3-0.1,10.9L56.9,656.4L56.9,656.4L56.9,656.4z"/>
		<path class="st0" d="M99.8,656.4c0.3-3.5,0.6-7,0.8-10.5c1.4-21,1.8-41.4,1.4-60.7c-0.5-22.5-2.1-43.5-4.3-62.2
			c-2.2-18.7-4.9-35.1-7.5-48.7s-4.8-24.4-6.3-32c-1.4-7.6-1.9-11.9-1-12.5c0.9-0.6,3.2,2.7,6.3,9.4c3.1,6.8,7.1,17.1,11.1,30.5
			c4.1,13.5,8.2,30.1,11.5,49.4c3.4,19.3,5.9,41.3,7,65.1c0.9,20.3,0.7,41.8-0.8,63.8c-0.2,2.8-0.4,5.6-0.6,8.4L99.8,656.4
			L99.8,656.4z"/>
		<path class="st0" d="M137.2,656.4c3.5-14.8,7.1-28.9,10.5-42.1c3.6-14.2,6.9-27.5,9.5-39.7c1.5-7.1,2.9-13.8,4-20.1
			c1.1-6.3,1.9-12,2.6-17.3c0.6-5.2,1-10,1.3-14.1c0.3-4.1,0.4-7.7,0.5-10.6c0.1-2.9,0.2-5.3,0.3-6.8c0.1-1.6,0.3-2.5,0.7-2.6
			c0.4-0.1,0.9,0.6,1.4,2c0.6,1.5,1.2,3.7,1.8,6.7c0.6,3,1.1,6.7,1.5,11.2c0.4,4.4,0.5,9.5,0.4,15.2c-0.1,5.7-0.4,12-1.1,18.7
			c-0.7,6.7-1.6,13.9-2.8,21.4c-2.1,12.8-4.8,26.7-8.1,41.2c-2.6,11.8-5.6,24.2-8.6,36.8L137.2,656.4L137.2,656.4z"/>
		<path class="st0" d="M194.7,656.4c0.1-2.6,0.2-5.3,0.2-7.9c0-0.3,0-0.5,0-0.8c0.6-22.6,0.8-44.2,1.1-64
			c0.3-19.7,0.7-37.6,1.3-52.6c0.6-15,1.3-27.1,2.2-35.5c0.9-8.4,2-13.1,3.1-13.1s2.1,4.6,3.1,13c1,8.4,1.9,20.4,2.8,35.4
			c0.9,15,1.6,32.8,2.1,52.7c0.5,19.9,0.7,41.8,0.1,64.8c0,0.3,0,0.5,0,0.8c-0.1,2.4-0.2,4.8-0.2,7.2L194.7,656.4L194.7,656.4z"/>
		<path class="st0" d="M236,656.4c0.3-11.3,1-22.2,2.1-32.1c1.3-12.1,3.2-22.8,5.2-31.5c2.1-8.8,4.3-15.5,6.2-20
			c1.9-4.5,3.3-6.7,4-6.3c0.7,0.4,0.5,3.3-0.1,8.3c-0.6,4.9-1.7,11.9-2.7,20.6c-1,8.7-2,19-2.7,30.7c-0.6,9.4-0.9,19.8-1.2,30.6
			L236,656.4L236,656.4z"/>
		<path class="st0" d="M374,473.2c-0.4,0-1.1,0.7-1.9,2.1c-1,1.6-2.2,4.3-3.6,7.8c-1.4,3.5-2.9,8-4.3,13.4
			c-1.4,5.4-2.7,11.7-3.8,18.8c-0.9,6.5-1.6,13.7-2,21.5c-0.4,7.8-0.4,16.1,0,24.7c0.6,12.8,2,26.4,4.1,40.5
			c2.1,14.1,5.1,28.6,8.4,43.3c0.7,3,1.4,5.9,2.1,8.9c0.3,1.2,0.6,2.3,0.8,3.4h13.7c-0.7-2.9-1.4-5.8-2.1-8.8
			c-0.7-2.9-1.3-5.8-2-8.8c-3.2-14.4-6.2-28.5-8.5-41.9c-2.3-13.4-4.1-26.1-5.1-38.1c-0.7-8.1-1.1-15.8-1.2-23.1
			c-0.1-7.2,0.1-13.9,0.5-20.1c0.8-13.4,2.6-24.1,3.8-31.6c0.6-3.7,1.1-6.6,1.4-8.7c0.2-2.1,0.2-3.2-0.2-3.5
			C374.2,473.3,374.1,473.2,374,473.2L374,473.2L374,473.2z"/>
		<path class="st0" d="M307.5,474.5c-0.1,0-0.3,0-0.5,0.3c-0.1,0.3-0.2,0.9-0.2,1.3c-0.1,0.7-0.1,1.6,0,2.7c0.2,2.1,0.6,4.9,1.3,8.3
			c1.3,6.7,3.5,15.8,6.2,27c5.3,22.1,12.4,52.3,18,88.1c2.7,17.4,5,36,6.5,55.5h15.9c-1.7-21.3-4.5-41.6-8-60.2
			c-3.4-18.4-7.4-35.2-11.5-50c-4.1-14.8-8.3-27.7-12.1-38.3c-3.9-10.8-7.4-19.1-10.1-25c-1.4-3-2.5-5.2-3.4-6.9
			c-0.4-0.8-0.8-1.4-1.1-1.9c-0.2-0.4-0.4-0.5-0.6-0.6C307.7,474.7,307.6,474.6,307.5,474.5L307.5,474.5z"/>
		<path class="st0" d="M278.6,510.1c-0.8,0.4-0.5,5,0.5,13.1c1.1,8.1,2.9,19.6,5.1,33.8s4.6,31.1,6.5,49.9
			c1.6,15.7,2.7,32.9,2.9,50.8h13c-0.4-19.1-1.9-37.1-4.2-53.4c-2.6-19.4-6.1-36.5-9.4-50.6c-3.4-14.1-6.6-25.1-9.2-32.6
			C281.3,513.6,279.4,509.7,278.6,510.1L278.6,510.1z"/>
		<path class="st0" d="M410.5,513.7c-1,0-1.9,3.7-2.8,10.3c-0.9,6.6-1.8,16.1-2.6,28s-1.7,25.9-2.3,41.7
			c-0.6,15.7-1.1,33.1-0.8,51.5c0,0.6,0,1.2,0,1.8c0,3.2,0.1,6.3,0.2,9.4h14.1c-0.1-3.3-0.2-6.5-0.2-9.9c0-0.6,0-1.1,0-1.7
			c-0.3-17.9-0.2-35-0.3-50.7c-0.1-15.7-0.2-29.8-0.6-41.7c-0.4-11.9-1.1-21.6-1.9-28.3C412.5,517.4,411.5,513.7,410.5,513.7
			L410.5,513.7z"/>
		<path class="st0" d="M423.5,528.6c-0.9,0.4-0.8,4.4-0.2,11.3c0.6,6.9,1.7,16.7,2.9,28.9s2.3,26.6,3.3,42.8
			c0.8,14.2,1.5,29.8,1.9,46.2h13.2c-0.5-16.9-1.6-33.2-3-48c-1.7-16.5-3.9-31.3-6.3-43.5c-2.4-12.2-4.9-21.8-7.1-28.3
			C426,531.5,424.3,528.2,423.5,528.6L423.5,528.6z"/>
	</g>
	<g>
		<path class="st0" d="M56.9,656.4c0-3.5,0-7.1,0-10.7c0-2.5-0.1-5.1-0.2-7.6c-0.5-15.7-1.9-30.7-4.2-44.5s-5.6-26.3-9.6-37.2
			c-3.7-10.1-7.9-18.9-12.2-26.1c-4.3-7.2-8.6-12.9-12.4-17.3c-8.6-7.9-13.6-13.2-13.1-14.8c0.5-1.5,6.4,1.1,16.6,7.1
			c4.7,3.7,10.1,9.1,15.5,16.4c5.4,7.3,10.8,16.5,15.5,27.5c4.9,11.7,9.1,25.3,12,40.3c2.9,14.9,4.7,31.2,5.1,47.9
			c0.1,2.7,0.1,5.5,0.1,8.1c0,3.7,0,7.3-0.1,10.9L56.9,656.4L56.9,656.4L56.9,656.4z"/>
		<path class="st0" d="M99.8,656.4c0.3-3.5,0.6-7,0.8-10.5c1.4-21,1.8-41.4,1.4-60.7c-0.5-22.5-2.1-43.5-4.3-62.2
			c-2.2-18.7-4.9-35.1-7.5-48.7s-4.8-24.4-6.3-32c-1.4-7.6-1.9-11.9-1-12.5c0.9-0.6,3.2,2.7,6.3,9.4c3.1,6.8,7.1,17.1,11.1,30.5
			c4.1,13.5,8.2,30.1,11.5,49.4c3.4,19.3,5.9,41.3,7,65.1c0.9,20.3,0.7,41.8-0.8,63.8c-0.2,2.8-0.4,5.6-0.6,8.4L99.8,656.4
			L99.8,656.4z"/>
		<path class="st0" d="M137.2,656.4c3.5-14.8,7.1-28.9,10.5-42.1c3.6-14.2,6.9-27.5,9.5-39.7c1.5-7.1,2.9-13.8,4-20.1
			c1.1-6.3,1.9-12,2.6-17.3c0.6-5.2,1-10,1.3-14.1c0.3-4.1,0.4-7.7,0.5-10.6c0.1-2.9,0.2-5.3,0.3-6.8c0.1-1.6,0.3-2.5,0.7-2.6
			c0.4-0.1,0.9,0.6,1.4,2c0.6,1.5,1.2,3.7,1.8,6.7c0.6,3,1.1,6.7,1.5,11.2c0.4,4.4,0.5,9.5,0.4,15.2c-0.1,5.7-0.4,12-1.1,18.7
			c-0.7,6.7-1.6,13.9-2.8,21.4c-2.1,12.8-4.8,26.7-8.1,41.2c-2.6,11.8-5.6,24.2-8.6,36.8L137.2,656.4L137.2,656.4z"/>
		<path class="st0" d="M194.7,656.4c0.1-2.6,0.2-5.3,0.2-7.9c0-0.3,0-0.5,0-0.8c0.6-22.6,0.8-44.2,1.1-64
			c0.3-19.7,0.7-37.6,1.3-52.6c0.6-15,1.3-27.1,2.2-35.5c0.9-8.4,2-13.1,3.1-13.1s2.1,4.6,3.1,13c1,8.4,1.9,20.4,2.8,35.4
			c0.9,15,1.6,32.8,2.1,52.7c0.5,19.9,0.7,41.8,0.1,64.8c0,0.3,0,0.5,0,0.8c-0.1,2.4-0.2,4.8-0.2,7.2L194.7,656.4L194.7,656.4z"/>
		<path class="st0" d="M236,656.4c0.3-11.3,1-22.2,2.1-32.1c1.3-12.1,3.2-22.8,5.2-31.5c2.1-8.8,4.3-15.5,6.2-20
			c1.9-4.5,3.3-6.7,4-6.3c0.7,0.4,0.5,3.3-0.1,8.3c-0.6,4.9-1.7,11.9-2.7,20.6c-1,8.7-2,19-2.7,30.7c-0.6,9.4-0.9,19.8-1.2,30.6
			L236,656.4L236,656.4z"/>
		<path class="st0" d="M374,473.2c-0.4,0-1.1,0.7-1.9,2.1c-1,1.6-2.2,4.3-3.6,7.8c-1.4,3.5-2.9,8-4.3,13.4
			c-1.4,5.4-2.7,11.7-3.8,18.8c-0.9,6.5-1.6,13.7-2,21.5c-0.4,7.8-0.4,16.1,0,24.7c0.6,12.8,2,26.4,4.1,40.5
			c2.1,14.1,5.1,28.6,8.4,43.3c0.7,3,1.4,5.9,2.1,8.9c0.3,1.2,0.6,2.3,0.8,3.4h13.7c-0.7-2.9-1.4-5.8-2.1-8.8
			c-0.7-2.9-1.3-5.8-2-8.8c-3.2-14.4-6.2-28.5-8.5-41.9c-2.3-13.4-4.1-26.1-5.1-38.1c-0.7-8.1-1.1-15.8-1.2-23.1
			c-0.1-7.2,0.1-13.9,0.5-20.1c0.8-13.4,2.6-24.1,3.8-31.6c0.6-3.7,1.1-6.6,1.4-8.7c0.2-2.1,0.2-3.2-0.2-3.5
			C374.2,473.3,374.1,473.2,374,473.2L374,473.2L374,473.2z"/>
		<path class="st0" d="M307.5,474.5c-0.1,0-0.3,0-0.5,0.3c-0.1,0.3-0.2,0.9-0.2,1.3c-0.1,0.7-0.1,1.6,0,2.7c0.2,2.1,0.6,4.9,1.3,8.3
			c1.3,6.7,3.5,15.8,6.2,27c5.3,22.1,12.4,52.3,18,88.1c2.7,17.4,5,36,6.5,55.5h15.9c-1.7-21.3-4.5-41.6-8-60.2
			c-3.4-18.4-7.4-35.2-11.5-50c-4.1-14.8-8.3-27.7-12.1-38.3c-3.9-10.8-7.4-19.1-10.1-25c-1.4-3-2.5-5.2-3.4-6.9
			c-0.4-0.8-0.8-1.4-1.1-1.9c-0.2-0.4-0.4-0.5-0.6-0.6C307.7,474.7,307.6,474.6,307.5,474.5L307.5,474.5z"/>
		<path class="st0" d="M278.6,510.1c-0.8,0.4-0.5,5,0.5,13.1c1.1,8.1,2.9,19.6,5.1,33.8s4.6,31.1,6.5,49.9
			c1.6,15.7,2.7,32.9,2.9,50.8h13c-0.4-19.1-1.9-37.1-4.2-53.4c-2.6-19.4-6.1-36.5-9.4-50.6c-3.4-14.1-6.6-25.1-9.2-32.6
			C281.3,513.6,279.4,509.7,278.6,510.1L278.6,510.1z"/>
		<path class="st0" d="M410.5,513.7c-1,0-1.9,3.7-2.8,10.3c-0.9,6.6-1.8,16.1-2.6,28s-1.7,25.9-2.3,41.7
			c-0.6,15.7-1.1,33.1-0.8,51.5c0,0.6,0,1.2,0,1.8c0,3.2,0.1,6.3,0.2,9.4h14.1c-0.1-3.3-0.2-6.5-0.2-9.9c0-0.6,0-1.1,0-1.7
			c-0.3-17.9-0.2-35-0.3-50.7c-0.1-15.7-0.2-29.8-0.6-41.7c-0.4-11.9-1.1-21.6-1.9-28.3C412.5,517.4,411.5,513.7,410.5,513.7
			L410.5,513.7z"/>
		<path class="st0" d="M423.5,528.6c-0.9,0.4-0.8,4.4-0.2,11.3c0.6,6.9,1.7,16.7,2.9,28.9s2.3,26.6,3.3,42.8
			c0.8,14.2,1.5,29.8,1.9,46.2h13.2c-0.5-16.9-1.6-33.2-3-48c-1.7-16.5-3.9-31.3-6.3-43.5c-2.4-12.2-4.9-21.8-7.1-28.3
			C426,531.5,424.3,528.2,423.5,528.6L423.5,528.6z"/>
		<path class="st0" d="M67.5,638.4c0-3.6,0-7.3,0-10.9c0-2.6-0.1-5.2-0.2-7.8c-0.5-16.1-1.9-31.5-4.3-45.7s-5.8-27-9.9-38.2
			c-3.8-10.4-8.1-19.4-12.5-26.8c-4.4-7.4-8.8-13.2-12.8-17.8c-8.9-8.1-13.9-13.6-13.5-15.2c0.5-1.5,6.6,1.1,17.1,7.3
			c4.8,3.8,10.3,9.4,15.9,16.8c5.5,7.5,11.1,16.9,15.9,28.2c5.1,12,9.3,26,12.3,41.4c3,15.3,4.8,32,5.3,49.2
			c0.1,2.8,0.1,5.6,0.1,8.4c0,3.8,0,7.5-0.1,11.2L67.5,638.4L67.5,638.4L67.5,638.4z"/>
		<path class="st0" d="M111.5,638.4c0.3-3.6,0.6-7.2,0.8-10.8c1.4-21.6,1.9-42.5,1.5-62.3c-0.5-23.1-2.1-44.7-4.4-63.9
			c-2.2-19.2-5.1-36-7.7-50c-2.6-14-5-25.1-6.4-32.9c-1.5-7.8-2-12.2-1.1-12.8c0.9-0.6,3.2,2.7,6.4,9.7c3.2,6.9,7.3,17.5,11.4,31.3
			c4.2,13.8,8.4,30.9,11.8,50.8c3.4,19.8,6.1,42.4,7.2,66.8c0.9,20.8,0.7,42.9-0.8,65.5c-0.2,2.9-0.4,5.7-0.6,8.6L111.5,638.4
			L111.5,638.4z"/>
		<path class="st0" d="M149.9,638.4c3.6-15.2,7.3-29.7,10.8-43.2c3.7-14.6,7-28.2,9.8-40.7c1.6-7.3,3-14.2,4.1-20.6
			c1.1-6.4,2-12.4,2.6-17.8c0.6-5.4,1-10.3,1.3-14.5c0.3-4.3,0.4-7.9,0.5-10.9c0.1-3,0.2-5.4,0.3-7s0.3-2.5,0.7-2.7
			c0.4-0.1,0.9,0.6,1.5,2.1c0.6,1.5,1.2,3.8,1.9,6.9c0.6,3.1,1.2,6.9,1.5,11.5c0.4,4.6,0.5,9.8,0.4,15.6c-0.1,5.9-0.5,12.3-1.1,19.2
			c-0.7,6.9-1.7,14.3-2.9,22c-2.1,13.2-5,27.4-8.3,42.3c-2.7,12.1-5.8,24.8-8.8,37.8L149.9,638.4L149.9,638.4z"/>
		<path class="st0" d="M209,638.4c0.1-2.7,0.2-5.4,0.3-8.2c0-0.3,0-0.6,0-0.8c0.6-23.2,0.8-45.4,1.2-65.7
			c0.3-20.3,0.7-38.7,1.3-54.1c0.6-15.4,1.3-27.9,2.3-36.5c0.9-8.6,2-13.4,3.1-13.4s2.2,4.8,3.2,13.3c1,8.6,2,21,2.8,36.4
			c0.9,15.4,1.7,33.7,2.2,54.1c0.5,20.4,0.7,42.9,0.1,66.6c0,0.3,0,0.6,0,0.8c-0.1,2.5-0.2,4.9-0.3,7.4L209,638.4L209,638.4
			L209,638.4z"/>
		<path class="st0" d="M251.4,638.4c0.3-11.6,1.1-22.8,2.2-33C255,593,256.9,582,259,573c2.1-9,4.4-16,6.3-20.6
			c1.9-4.6,3.4-6.9,4.1-6.5c0.7,0.4,0.6,3.4-0.1,8.5c-0.6,5.1-1.7,12.2-2.8,21.1c-1.1,8.9-2.1,19.5-2.8,31.5
			c-0.6,9.7-1,20.3-1.2,31.4L251.4,638.4L251.4,638.4z"/>
		<path class="st0" d="M393.2,450.3c-0.4,0-1.1,0.7-2,2.2c-1,1.7-2.3,4.4-3.7,8c-1.4,3.6-2.9,8.2-4.4,13.7c-1.5,5.5-2.8,12-3.9,19.4
			c-1,6.7-1.7,14.1-2,22.1c-0.4,8-0.4,16.5,0,25.4c0.6,13.2,2,27.1,4.2,41.6c2.2,14.5,5.2,29.4,8.6,44.5c0.7,3.1,1.4,6.1,2.1,9.1
			c0.3,1.2,0.6,2.3,0.8,3.5h14.1c-0.7-3-1.4-6-2.1-9c-0.7-3-1.3-6-2-9c-3.3-14.8-6.3-29.2-8.7-43c-2.4-13.7-4.2-26.8-5.2-39.1
			c-0.7-8.3-1.2-16.3-1.3-23.7c-0.1-7.4,0.1-14.3,0.5-20.6c0.8-13.8,2.6-24.8,3.9-32.4c0.6-3.8,1.1-6.8,1.4-8.9
			c0.2-2.1,0.2-3.3-0.2-3.6C393.3,450.3,393.3,450.3,393.2,450.3L393.2,450.3L393.2,450.3z"/>
		<path class="st0" d="M324.9,451.6c-0.2,0-0.4,0-0.5,0.3c-0.1,0.3-0.2,0.9-0.3,1.3c-0.1,0.7-0.1,1.7,0,2.8c0.2,2.2,0.6,5,1.3,8.5
			c1.4,6.9,3.6,16.3,6.4,27.8c5.4,22.6,12.8,53.7,18.5,90.4c2.8,17.8,5.1,37,6.7,57h16.3c-1.7-21.9-4.7-42.7-8.2-61.8
			c-3.5-18.9-7.6-36.1-11.8-51.4c-4.2-15.2-8.5-28.5-12.5-39.4c-4-11.1-7.6-19.7-10.3-25.7c-1.4-3.1-2.5-5.4-3.4-7
			c-0.5-0.9-0.8-1.5-1.2-1.9c-0.2-0.4-0.4-0.5-0.6-0.6C325.1,451.8,325,451.7,324.9,451.6L324.9,451.6z"/>
		<path class="st0" d="M295.2,488.2c-0.9,0.4-0.6,5.2,0.5,13.4s3,20.1,5.2,34.7c2.2,14.6,4.8,31.9,6.7,51.3
			c1.6,16.2,2.8,33.8,3,52.2H324c-0.4-19.6-2-38.1-4.3-54.8c-2.7-19.9-6.2-37.5-9.7-52c-3.5-14.5-6.8-25.8-9.5-33.5
			C297.9,491.8,296,487.8,295.2,488.2L295.2,488.2z"/>
		<path class="st0" d="M430.7,491.9c-1,0-1.9,3.8-2.9,10.6c-0.9,6.8-1.8,16.6-2.7,28.7c-0.9,12.1-1.7,26.6-2.4,42.8
			c-0.7,16.2-1.1,34-0.9,52.9c0,0.6,0,1.2,0,1.9c0,3.2,0.1,6.5,0.2,9.7h14.5c-0.1-3.3-0.2-6.7-0.2-10.1c0-0.6,0-1.2,0-1.8
			c-0.3-18.4-0.2-36-0.3-52.1c-0.1-16.1-0.2-30.6-0.6-42.9c-0.4-12.2-1.1-22.2-1.9-29C432.7,495.7,431.7,491.9,430.7,491.9
			L430.7,491.9z"/>
		<path class="st0" d="M444,507.1c-0.9,0.4-0.8,4.5-0.2,11.6c0.6,7.1,1.8,17.2,3,29.7c1.2,12.5,2.4,27.4,3.4,44
			c0.9,14.6,1.5,30.6,2,47.4h13.5c-0.6-17.4-1.6-34.1-3.1-49.3c-1.7-17-4-32.1-6.4-44.7c-2.5-12.5-5.1-22.4-7.3-29
			C446.6,510.2,444.9,506.7,444,507.1L444,507.1z"/>
		<path class="st0" d="M93.9,644c0-3.1,0-6.3,0-9.4c0-2.2-0.1-4.5-0.2-6.8c-0.4-13.9-1.6-27.2-3.7-39.4c-2.1-12.2-5-23.3-8.5-32.9
			c-3.2-9-7-16.7-10.8-23.1c-3.8-6.4-7.6-11.4-11-15.3c-7.6-7-12-11.7-11.6-13.1c0.4-1.3,5.7,0.9,14.7,6.3
			c4.2,3.3,8.9,8.1,13.7,14.5c4.8,6.4,9.6,14.6,13.7,24.3c4.4,10.4,8,22.4,10.6,35.7c2.6,13.2,4.1,27.6,4.6,42.4
			c0.1,2.4,0.1,4.8,0.1,7.2c0,3.3,0,6.4-0.1,9.6L93.9,644L93.9,644L93.9,644z"/>
		<path class="st0" d="M131.9,644c0.2-3.1,0.5-6.2,0.7-9.3c1.2-18.6,1.6-36.7,1.3-53.7c-0.4-19.9-1.8-38.5-3.8-55.1
			s-4.4-31.1-6.6-43.1c-2.2-12-4.3-21.6-5.5-28.3c-1.3-6.7-1.7-10.5-0.9-11.1c0.8-0.5,2.8,2.4,5.5,8.3c2.7,6,6.3,15.1,9.9,27
			s7.2,26.7,10.2,43.8c3,17.1,5.3,36.6,6.2,57.6c0.8,17.9,0.6,37-0.7,56.5c-0.2,2.5-0.3,4.9-0.5,7.4L131.9,644L131.9,644z"/>
		<path class="st0" d="M165,644c3.1-13.1,6.3-25.6,9.3-37.2c3.2-12.6,6.1-24.3,8.4-35.1c1.4-6.3,2.6-12.2,3.5-17.8
			c1-5.5,1.7-10.7,2.3-15.3c0.5-4.6,0.9-8.8,1.1-12.5c0.2-3.7,0.3-6.8,0.4-9.4c0.1-2.6,0.1-4.6,0.3-6.1c0.1-1.4,0.3-2.2,0.6-2.3
			c0.3-0.1,0.8,0.5,1.3,1.8c0.5,1.3,1.1,3.3,1.6,6c0.5,2.7,1,6,1.3,9.9c0.3,3.9,0.5,8.5,0.4,13.5c-0.1,5.1-0.4,10.6-1,16.6
			s-1.4,12.3-2.5,19c-1.8,11.3-4.3,23.6-7.2,36.5c-2.3,10.5-5,21.4-7.6,32.6L165,644L165,644z"/>
		<path class="st0" d="M215.9,644c0.1-2.3,0.2-4.7,0.2-7c0-0.2,0-0.5,0-0.7c0.5-20,0.7-39.1,1-56.6c0.3-17.5,0.6-33.3,1.1-46.6
			c0.5-13.3,1.2-24,2-31.5c0.8-7.4,1.7-11.6,2.7-11.6c1,0,1.9,4.1,2.8,11.5c0.9,7.4,1.7,18.1,2.4,31.3c0.8,13.2,1.5,29.1,1.9,46.7
			c0.4,17.6,0.6,37,0.1,57.4c0,0.2,0,0.5,0,0.7c-0.1,2.1-0.2,4.2-0.2,6.4L215.9,644L215.9,644z"/>
		<path class="st0" d="M252.5,644c0.3-10,0.9-19.6,1.9-28.5c1.2-10.7,2.8-20.2,4.6-27.9c1.8-7.8,3.8-13.8,5.5-17.7
			c1.6-4,2.9-5.9,3.5-5.6c0.6,0.3,0.5,2.9-0.1,7.3c-0.5,4.4-1.5,10.5-2.4,18.2c-0.9,7.7-1.8,16.8-2.4,27.1c-0.5,8.4-0.8,17.5-1,27.1
			L252.5,644L252.5,644z"/>
		<path class="st0" d="M374.7,481.9c-0.4,0-0.9,0.6-1.7,1.9c-0.9,1.5-2,3.8-3.2,6.9c-1.2,3.1-2.5,7.1-3.8,11.8
			c-1.3,4.8-2.4,10.4-3.3,16.7c-0.8,5.8-1.4,12.2-1.7,19c-0.3,6.9-0.3,14.2,0,21.9c0.5,11.3,1.7,23.4,3.6,35.9s4.5,25.3,7.4,38.3
			c0.6,2.7,1.2,5.2,1.8,7.8c0.2,1,0.5,2,0.7,3h12.2c-0.6-2.6-1.2-5.2-1.8-7.8c-0.6-2.6-1.2-5.1-1.7-7.7c-2.9-12.8-5.5-25.2-7.5-37
			c-2.1-11.8-3.6-23.1-4.5-33.7c-0.6-7.2-1-14-1.1-20.4c-0.1-6.4,0.1-12.3,0.4-17.8c0.7-11.9,2.3-21.4,3.4-28c0.6-3.3,1-5.9,1.2-7.7
			c0.2-1.8,0.2-2.9-0.1-3.1C374.8,481.9,374.7,481.9,374.7,481.9L374.7,481.9L374.7,481.9z"/>
		<path class="st0" d="M315.8,483c-0.1,0-0.3,0-0.4,0.3c-0.1,0.3-0.2,0.8-0.2,1.1c-0.1,0.6-0.1,1.4,0,2.4c0.1,1.9,0.5,4.3,1.1,7.3
			c1.2,5.9,3.1,14,5.5,23.9c4.7,19.5,11,46.3,15.9,78c2.4,15.4,4.4,31.9,5.8,49.2h14.1c-1.5-18.8-4-36.8-7.1-53.3
			c-3-16.3-6.6-31.1-10.2-44.3c-3.6-13.1-7.3-24.5-10.7-33.9c-3.4-9.5-6.5-17-8.9-22.1c-1.2-2.6-2.2-4.6-3-6.1
			c-0.4-0.7-0.7-1.3-1-1.7c-0.2-0.4-0.4-0.4-0.5-0.5C316,483.2,315.9,483,315.8,483L315.8,483z"/>
		<path class="st0" d="M290.2,514.5c-0.7,0.3-0.5,4.4,0.5,11.6s2.6,17.3,4.5,29.9s4.1,27.5,5.8,44.2c1.4,13.9,2.4,29.1,2.5,45H315
			c-0.3-16.9-1.7-32.8-3.7-47.3c-2.3-17.2-5.4-32.3-8.3-44.8c-3-12.5-5.9-22.2-8.2-28.9C292.6,517.6,290.9,514.1,290.2,514.5
			L290.2,514.5z"/>
		<path class="st0" d="M407,517.7c-0.9,0-1.7,3.3-2.5,9.2c-0.8,5.9-1.6,14.3-2.3,24.7c-0.8,10.5-1.5,23-2.1,36.9
			c-0.6,13.9-1,29.3-0.7,45.6c0,0.5,0,1.1,0,1.6c0,2.8,0.1,5.6,0.2,8.4h12.5c-0.1-2.9-0.1-5.8-0.2-8.7c0-0.5,0-1,0-1.5
			c-0.2-15.8-0.2-31-0.3-44.9c-0.1-13.9-0.2-26.4-0.5-36.9c-0.4-10.6-0.9-19.1-1.6-25C408.7,521,407.9,517.7,407,517.7L407,517.7z"
			/>
		<path class="st0" d="M418.5,530.8c-0.8,0.3-0.7,3.9-0.2,10c0.5,6.1,1.5,14.8,2.5,25.6s2.1,23.6,2.9,37.9
			c0.7,12.6,1.3,26.4,1.7,40.9h11.7c-0.5-15-1.4-29.4-2.7-42.5c-1.5-14.6-3.4-27.7-5.5-38.5c-2.1-10.8-4.4-19.3-6.3-25
			C420.7,533.4,419.2,530.5,418.5,530.8L418.5,530.8z"/>
		<path class="st0" d="M282.2,644c-0.2-3.1-0.5-6.2-0.7-9.3c-1.2-18.6-1.6-36.7-1.3-53.7c0.4-19.9,1.8-38.5,3.8-55.1
			s4.4-31.1,6.6-43.1c2.2-12,4.3-21.6,5.5-28.3c1.3-6.7,1.7-10.5,0.9-11.1c-0.8-0.5-2.8,2.4-5.5,8.3c-2.7,6-6.3,15.1-9.9,27
			c-3.6,11.9-7.2,26.7-10.2,43.8c-3,17.1-5.3,36.6-6.2,57.6c-0.8,17.9-0.6,37,0.7,56.5c0.2,2.5,0.3,4.9,0.5,7.4L282.2,644L282.2,644
			z"/>
		<path class="st0" d="M235.5,481.9c0.4,0,0.9,0.6,1.7,1.9c0.9,1.5,2,3.8,3.2,6.9c1.2,3.1,2.5,7.1,3.8,11.8
			c1.3,4.8,2.4,10.4,3.3,16.7c0.8,5.8,1.4,12.2,1.7,19c0.3,6.9,0.3,14.2,0,21.9c-0.5,11.3-1.7,23.4-3.6,35.9s-4.5,25.3-7.4,38.3
			c-0.6,2.7-1.2,5.2-1.8,7.8c-0.2,1-0.5,2-0.7,3h-12.2c0.6-2.6,1.2-5.2,1.8-7.8c0.6-2.6,1.2-5.1,1.7-7.7c2.9-12.8,5.5-25.2,7.5-37
			c2.1-11.8,3.6-23.1,4.5-33.7c0.6-7.2,1-14,1.1-20.4c0.1-6.4-0.1-12.3-0.4-17.8c-0.7-11.9-2.3-21.4-3.4-28c-0.6-3.3-1-5.9-1.2-7.7
			c-0.2-1.8-0.2-2.9,0.1-3.1C235.4,481.9,235.5,481.9,235.5,481.9L235.5,481.9L235.5,481.9z"/>
		<path class="st0" d="M406.3,492c0.1,0,0.3,0,0.4,0.3c0.1,0.3,0.2,0.8,0.2,1.1c0.1,0.6,0.1,1.4,0,2.4c-0.1,1.9-0.5,4.3-1.1,7.3
			c-1.2,5.9-3.1,14-5.5,23.9c-4.7,19.5-11,46.3-15.9,78c-2.4,15.4-4.4,31.9-5.8,49.2h-14.1c1.5-18.8,4-36.8,7.1-53.3
			c3-16.3,6.6-31.1,10.2-44.3c3.6-13.1,7.3-24.5,10.7-33.9c3.4-9.5,6.5-17,8.9-22.1c1.2-2.6,2.2-4.6,3-6.1c0.4-0.7,0.7-1.3,1-1.7
			c0.2-0.4,0.4-0.4,0.5-0.5C406.1,492.1,406.2,492,406.3,492L406.3,492z"/>
		<path class="st0" d="M466.1,514.5c0.7,0.3,0.5,4.4-0.5,11.6s-2.6,17.3-4.5,29.9s-4.1,27.5-5.8,44.2c-1.4,13.9-2.4,29.1-2.5,45
			h-11.5c0.3-16.9,1.7-32.8,3.7-47.3c2.3-17.2,5.4-32.3,8.3-44.8s5.9-22.2,8.2-28.9C463.8,517.6,465.4,514.1,466.1,514.5
			L466.1,514.5z"/>
		<path class="st0" d="M175.6,512.3c0.9,0,1.7,3.3,2.5,9.2c0.8,5.9,1.6,14.3,2.3,24.7c0.8,10.5,1.5,23,2.1,36.9
			c0.6,13.9,1,29.3,0.7,45.6c0,0.5,0,1.1,0,1.6c0,2.8-0.1,5.6-0.2,8.4h-12.5c0.1-2.9,0.1-5.8,0.2-8.7c0-0.5,0-1,0-1.5
			c0.2-15.8,0.2-31,0.3-44.9c0.1-13.9,0.2-26.4,0.5-36.9c0.4-10.6,0.9-19.1,1.6-25C173.9,515.6,174.7,512.3,175.6,512.3L175.6,512.3
			z"/>
		<path class="st0" d="M261.5,523.6c0.8,0.3,0.7,3.9,0.2,10c-0.5,6.1-1.5,14.8-2.5,25.6s-2.1,23.6-2.9,37.9
			c-0.7,12.6-1.3,26.4-1.7,40.9h-11.7c0.5-15,1.4-29.4,2.7-42.5c1.5-14.6,3.4-27.7,5.5-38.5c2.1-10.8,4.4-19.3,6.3-25
			C259.3,526.2,260.8,523.3,261.5,523.6L261.5,523.6z"/>
		<path class="st0" d="M451.7,656.4c0-3.5,0-7.1,0-10.7c0-2.5-0.1-5.1-0.2-7.6c-0.5-15.7-1.9-30.7-4.2-44.5s-5.6-26.3-9.6-37.2
			c-3.7-10.1-7.9-18.9-12.2-26.1c-4.3-7.2-8.6-12.9-12.4-17.3c-8.6-7.9-13.6-13.2-13.1-14.8c0.5-1.5,6.4,1.1,16.6,7.1
			c4.7,3.7,10.1,9.1,15.5,16.4c5.4,7.3,10.8,16.5,15.5,27.5c4.9,11.7,9.1,25.3,12,40.3c2.9,14.9,4.7,31.2,5.1,47.9
			c0.1,2.7,0.1,5.5,0.1,8.1c0,3.7,0,7.3-0.1,10.9L451.7,656.4L451.7,656.4L451.7,656.4z"/>
		<path class="st0" d="M494.6,656.4c0.3-3.5,0.6-7,0.8-10.5c1.4-21,1.8-41.4,1.4-60.7c-0.5-22.5-2.1-43.5-4.3-62.2
			c-2.2-18.7-4.9-35.1-7.5-48.7s-4.8-24.4-6.3-32c-1.4-7.6-1.9-11.9-1-12.5c0.9-0.6,3.2,2.7,6.3,9.4c3.1,6.8,7.1,17.1,11.1,30.5
			c4.1,13.5,8.2,30.1,11.5,49.4c3.4,19.3,5.9,41.3,7,65.1c0.9,20.3,0.7,41.8-0.8,63.8c-0.2,2.8-0.4,5.6-0.6,8.4L494.6,656.4
			L494.6,656.4z"/>
		<path class="st0" d="M532,656.4c3.5-14.8,7.1-28.9,10.5-42.1c3.6-14.2,6.9-27.5,9.5-39.7c1.5-7.1,2.9-13.8,4-20.1
			c1.1-6.3,1.9-12,2.6-17.3c0.6-5.2,1-10,1.3-14.1c0.3-4.1,0.4-7.7,0.5-10.6c0.1-2.9,0.2-5.3,0.3-6.8c0.1-1.6,0.3-2.5,0.7-2.6
			c0.4-0.1,0.9,0.6,1.4,2c0.6,1.5,1.2,3.7,1.8,6.7c0.6,3,1.1,6.7,1.5,11.2c0.4,4.4,0.5,9.5,0.4,15.2c-0.1,5.7-0.4,12-1.1,18.7
			c-0.7,6.7-1.6,13.9-2.8,21.4c-2.1,12.8-4.8,26.7-8.1,41.2c-2.6,11.8-5.6,24.2-8.6,36.8L532,656.4L532,656.4z"/>
		<path class="st0" d="M725.3,656.4c-0.1-2.6-0.2-5.3-0.2-7.9c0-0.3,0-0.5,0-0.8c-0.6-22.6-0.8-44.2-1.1-64
			c-0.3-19.7-0.7-37.6-1.3-52.6c-0.6-15-1.3-27.1-2.2-35.5c-0.9-8.4-2-13.1-3.1-13.1c-1.1,0-2.1,4.6-3.1,13
			c-1,8.4-1.9,20.4-2.8,35.4c-0.9,15-1.6,32.8-2.1,52.7c-0.5,19.9-0.7,41.8-0.1,64.8c0,0.3,0,0.5,0,0.8c0.1,2.4,0.2,4.8,0.2,7.2
			L725.3,656.4L725.3,656.4z"/>
		<path class="st0" d="M684,656.4c-0.3-11.3-1-22.2-2.1-32.1c-1.3-12.1-3.2-22.8-5.2-31.5c-2.1-8.8-4.3-15.5-6.2-20
			c-1.9-4.5-3.3-6.7-4-6.3c-0.7,0.4-0.5,3.3,0.1,8.3c0.6,4.9,1.7,11.9,2.7,20.6c1,8.7,2,19,2.7,30.7c0.6,9.4,0.9,19.8,1.2,30.6
			L684,656.4L684,656.4z"/>
		<path class="st0" d="M768.9,473.2c-0.4,0-1.1,0.7-1.9,2.1c-1,1.6-2.2,4.3-3.6,7.8c-1.4,3.5-2.9,8-4.3,13.4
			c-1.4,5.4-2.7,11.7-3.8,18.8c-0.9,6.5-1.6,13.7-2,21.5c-0.4,7.8-0.4,16.1,0,24.7c0.6,12.8,2,26.4,4.1,40.5
			c2.1,14.1,5.1,28.6,8.4,43.3c0.7,3,1.4,5.9,2.1,8.9c0.3,1.2,0.6,2.3,0.8,3.4h13.7c-0.7-2.9-1.4-5.8-2.1-8.8
			c-0.7-2.9-1.3-5.8-2-8.8c-3.2-14.4-6.2-28.5-8.5-41.9c-2.3-13.4-4.1-26.1-5.1-38.1c-0.7-8.1-1.1-15.8-1.2-23.1
			c-0.1-7.2,0.1-13.9,0.5-20.1c0.8-13.4,2.6-24.1,3.8-31.6c0.6-3.7,1.1-6.6,1.4-8.7c0.2-2.1,0.2-3.2-0.2-3.5
			C769,473.3,769,473.2,768.9,473.2L768.9,473.2L768.9,473.2z"/>
		<path class="st0" d="M612.5,474.5c0.1,0,0.3,0,0.5,0.3c0.1,0.3,0.2,0.9,0.2,1.3c0.1,0.7,0.1,1.6,0,2.7c-0.2,2.1-0.6,4.9-1.3,8.3
			c-1.3,6.7-3.5,15.8-6.2,27c-5.3,22.1-12.4,52.3-18,88.1c-2.7,17.4-5,36-6.5,55.5h-15.9c1.7-21.3,4.5-41.6,8-60.2
			c3.4-18.4,7.4-35.2,11.5-50c4.1-14.8,8.3-27.7,12.1-38.3c3.9-10.8,7.4-19.1,10.1-25c1.4-3,2.5-5.2,3.4-6.9
			c0.4-0.8,0.8-1.4,1.1-1.9c0.2-0.4,0.4-0.5,0.6-0.6C612.3,474.7,612.4,474.6,612.5,474.5L612.5,474.5z"/>
		<path class="st0" d="M641.4,510.1c0.8,0.4,0.5,5-0.5,13.1c-1.1,8.1-2.9,19.6-5.1,33.8c-2.2,14.2-4.6,31.1-6.5,49.9
			c-1.6,15.7-2.7,32.9-2.9,50.8h-13c0.4-19.1,1.9-37.1,4.2-53.4c2.6-19.4,6.1-36.5,9.4-50.6c3.4-14.1,6.6-25.1,9.2-32.6
			C638.7,513.6,640.6,509.7,641.4,510.1L641.4,510.1z"/>
		<path class="st0" d="M805.4,513.7c-1,0-1.9,3.7-2.8,10.3c-0.9,6.6-1.8,16.1-2.6,28s-1.7,25.9-2.3,41.7
			c-0.6,15.7-1.1,33.1-0.8,51.5c0,0.6,0,1.2,0,1.8c0,3.2,0.1,6.3,0.2,9.4h14.1c-0.1-3.3-0.2-6.5-0.2-9.9c0-0.6,0-1.1,0-1.7
			c-0.3-17.9-0.2-35-0.3-50.7c-0.1-15.7-0.2-29.8-0.6-41.7c-0.4-11.9-1.1-21.6-1.9-28.3C807.3,517.4,806.4,513.7,805.4,513.7
			L805.4,513.7z"/>
		<path class="st0" d="M818.3,528.6c-0.9,0.4-0.8,4.4-0.2,11.3c0.6,6.9,1.7,16.7,2.9,28.9s2.3,26.6,3.3,42.8
			c0.8,14.2,1.5,29.8,1.9,46.2h13.2c-0.5-16.9-1.6-33.2-3-48c-1.7-16.5-3.9-31.3-6.3-43.5c-2.4-12.2-4.9-21.8-7.1-28.3
			C820.9,531.5,819.2,528.2,818.3,528.6L818.3,528.6z"/>
		<path class="st0" d="M451.7,656.4c0-3.5,0-7.1,0-10.7c0-2.5-0.1-5.1-0.2-7.6c-0.5-15.7-1.9-30.7-4.2-44.5s-5.6-26.3-9.6-37.2
			c-3.7-10.1-7.9-18.9-12.2-26.1c-4.3-7.2-8.6-12.9-12.4-17.3c-8.6-7.9-13.6-13.2-13.1-14.8c0.5-1.5,6.4,1.1,16.6,7.1
			c4.7,3.7,10.1,9.1,15.5,16.4c5.4,7.3,10.8,16.5,15.5,27.5c4.9,11.7,9.1,25.3,12,40.3c2.9,14.9,4.7,31.2,5.1,47.9
			c0.1,2.7,0.1,5.5,0.1,8.1c0,3.7,0,7.3-0.1,10.9L451.7,656.4L451.7,656.4L451.7,656.4z"/>
		<path class="st0" d="M494.6,656.4c0.3-3.5,0.6-7,0.8-10.5c1.4-21,1.8-41.4,1.4-60.7c-0.5-22.5-2.1-43.5-4.3-62.2
			c-2.2-18.7-4.9-35.1-7.5-48.7s-4.8-24.4-6.3-32c-1.4-7.6-1.9-11.9-1-12.5c0.9-0.6,3.2,2.7,6.3,9.4c3.1,6.8,7.1,17.1,11.1,30.5
			c4.1,13.5,8.2,30.1,11.5,49.4c3.4,19.3,5.9,41.3,7,65.1c0.9,20.3,0.7,41.8-0.8,63.8c-0.2,2.8-0.4,5.6-0.6,8.4L494.6,656.4
			L494.6,656.4z"/>
		<path class="st0" d="M532,656.4c3.5-14.8,7.1-28.9,10.5-42.1c3.6-14.2,6.9-27.5,9.5-39.7c1.5-7.1,2.9-13.8,4-20.1
			c1.1-6.3,1.9-12,2.6-17.3c0.6-5.2,1-10,1.3-14.1c0.3-4.1,0.4-7.7,0.5-10.6c0.1-2.9,0.2-5.3,0.3-6.8c0.1-1.6,0.3-2.5,0.7-2.6
			c0.4-0.1,0.9,0.6,1.4,2c0.6,1.5,1.2,3.7,1.8,6.7c0.6,3,1.1,6.7,1.5,11.2c0.4,4.4,0.5,9.5,0.4,15.2c-0.1,5.7-0.4,12-1.1,18.7
			c-0.7,6.7-1.6,13.9-2.8,21.4c-2.1,12.8-4.8,26.7-8.1,41.2c-2.6,11.8-5.6,24.2-8.6,36.8L532,656.4L532,656.4z"/>
		<path class="st0" d="M725.3,656.4c-0.1-2.6-0.2-5.3-0.2-7.9c0-0.3,0-0.5,0-0.8c-0.6-22.6-0.8-44.2-1.1-64
			c-0.3-19.7-0.7-37.6-1.3-52.6c-0.6-15-1.3-27.1-2.2-35.5c-0.9-8.4-2-13.1-3.1-13.1c-1.1,0-2.1,4.6-3.1,13
			c-1,8.4-1.9,20.4-2.8,35.4c-0.9,15-1.6,32.8-2.1,52.7c-0.5,19.9-0.7,41.8-0.1,64.8c0,0.3,0,0.5,0,0.8c0.1,2.4,0.2,4.8,0.2,7.2
			L725.3,656.4L725.3,656.4z"/>
		<path class="st0" d="M684,656.4c-0.3-11.3-1-22.2-2.1-32.1c-1.3-12.1-3.2-22.8-5.2-31.5c-2.1-8.8-4.3-15.5-6.2-20
			c-1.9-4.5-3.3-6.7-4-6.3c-0.7,0.4-0.5,3.3,0.1,8.3c0.6,4.9,1.7,11.9,2.7,20.6c1,8.7,2,19,2.7,30.7c0.6,9.4,0.9,19.8,1.2,30.6
			L684,656.4L684,656.4z"/>
		<path class="st0" d="M768.9,473.2c-0.4,0-1.1,0.7-1.9,2.1c-1,1.6-2.2,4.3-3.6,7.8c-1.4,3.5-2.9,8-4.3,13.4
			c-1.4,5.4-2.7,11.7-3.8,18.8c-0.9,6.5-1.6,13.7-2,21.5c-0.4,7.8-0.4,16.1,0,24.7c0.6,12.8,2,26.4,4.1,40.5
			c2.1,14.1,5.1,28.6,8.4,43.3c0.7,3,1.4,5.9,2.1,8.9c0.3,1.2,0.6,2.3,0.8,3.4h13.7c-0.7-2.9-1.4-5.8-2.1-8.8
			c-0.7-2.9-1.3-5.8-2-8.8c-3.2-14.4-6.2-28.5-8.5-41.9c-2.3-13.4-4.1-26.1-5.1-38.1c-0.7-8.1-1.1-15.8-1.2-23.1
			c-0.1-7.2,0.1-13.9,0.5-20.1c0.8-13.4,2.6-24.1,3.8-31.6c0.6-3.7,1.1-6.6,1.4-8.7c0.2-2.1,0.2-3.2-0.2-3.5
			C769,473.3,769,473.2,768.9,473.2L768.9,473.2L768.9,473.2z"/>
		<path class="st0" d="M612.5,474.5c0.1,0,0.3,0,0.5,0.3c0.1,0.3,0.2,0.9,0.2,1.3c0.1,0.7,0.1,1.6,0,2.7c-0.2,2.1-0.6,4.9-1.3,8.3
			c-1.3,6.7-3.5,15.8-6.2,27c-5.3,22.1-12.4,52.3-18,88.1c-2.7,17.4-5,36-6.5,55.5h-15.9c1.7-21.3,4.5-41.6,8-60.2
			c3.4-18.4,7.4-35.2,11.5-50c4.1-14.8,8.3-27.7,12.1-38.3c3.9-10.8,7.4-19.1,10.1-25c1.4-3,2.5-5.2,3.4-6.9
			c0.4-0.8,0.8-1.4,1.1-1.9c0.2-0.4,0.4-0.5,0.6-0.6C612.3,474.7,612.4,474.6,612.5,474.5L612.5,474.5z"/>
		<path class="st0" d="M641.4,510.1c0.8,0.4,0.5,5-0.5,13.1c-1.1,8.1-2.9,19.6-5.1,33.8c-2.2,14.2-4.6,31.1-6.5,49.9
			c-1.6,15.7-2.7,32.9-2.9,50.8h-13c0.4-19.1,1.9-37.1,4.2-53.4c2.6-19.4,6.1-36.5,9.4-50.6c3.4-14.1,6.6-25.1,9.2-32.6
			C638.7,513.6,640.6,509.7,641.4,510.1L641.4,510.1z"/>
		<path class="st0" d="M805.4,513.7c-1,0-1.9,3.7-2.8,10.3c-0.9,6.6-1.8,16.1-2.6,28s-1.7,25.9-2.3,41.7
			c-0.6,15.7-1.1,33.1-0.8,51.5c0,0.6,0,1.2,0,1.8c0,3.2,0.1,6.3,0.2,9.4h14.1c-0.1-3.3-0.2-6.5-0.2-9.9c0-0.6,0-1.1,0-1.7
			c-0.3-17.9-0.2-35-0.3-50.7c-0.1-15.7-0.2-29.8-0.6-41.7c-0.4-11.9-1.1-21.6-1.9-28.3C807.3,517.4,806.4,513.7,805.4,513.7
			L805.4,513.7z"/>
		<path class="st0" d="M818.3,528.6c-0.9,0.4-0.8,4.4-0.2,11.3c0.6,6.9,1.7,16.7,2.9,28.9s2.3,26.6,3.3,42.8
			c0.8,14.2,1.5,29.8,1.9,46.2h13.2c-0.5-16.9-1.6-33.2-3-48c-1.7-16.5-3.9-31.3-6.3-43.5c-2.4-12.2-4.9-21.8-7.1-28.3
			C820.9,531.5,819.2,528.2,818.3,528.6L818.3,528.6z"/>
		<path class="st0" d="M462.4,638.4c0-3.6,0-7.3,0-10.9c0-2.6-0.1-5.2-0.2-7.8c-0.5-16.1-1.9-31.5-4.3-45.7
			c-2.4-14.1-5.8-27-9.9-38.2c-3.8-10.4-8.1-19.4-12.5-26.8c-4.4-7.4-8.8-13.2-12.8-17.8c-8.9-8.1-13.9-13.6-13.5-15.2
			c0.5-1.5,6.6,1.1,17.1,7.3c4.8,3.8,10.3,9.4,15.9,16.8c5.5,7.5,11.1,16.9,15.9,28.2c5.1,12,9.3,26,12.3,41.4
			c3,15.3,4.8,32,5.3,49.2c0.1,2.8,0.1,5.6,0.1,8.4c0,3.8,0,7.5-0.1,11.2L462.4,638.4L462.4,638.4L462.4,638.4z"/>
		<path class="st0" d="M502.2,638.4c0.3-4.1,0.7-8.2,1-12.3c1.7-24.6,2.3-48.4,1.8-70.9c-0.6-26.4-2.6-50.9-5.3-72.8
			c-2.7-21.9-6.1-41-9.3-56.9c-3.2-15.9-6-28.6-7.8-37.4c-1.8-8.9-2.4-13.9-1.3-14.6c1.1-0.7,3.9,3.1,7.8,11
			c3.8,7.9,8.8,20,13.8,35.7c5,15.7,10.1,35.2,14.3,57.8c4.2,22.6,7.4,48.3,8.6,76.1c1.1,23.7,0.8,48.8-1,74.6
			c-0.2,3.3-0.5,6.5-0.7,9.8L502.2,638.4L502.2,638.4z"/>
		<path class="st0" d="M544.8,638.4c3.6-15.2,7.3-29.7,10.8-43.2c3.7-14.6,7-28.2,9.8-40.7c1.6-7.3,3-14.2,4.1-20.6
			c1.1-6.4,2-12.4,2.6-17.8c0.6-5.4,1-10.3,1.3-14.5c0.3-4.3,0.4-7.9,0.5-10.9c0.1-3,0.2-5.4,0.3-7s0.3-2.5,0.7-2.7
			c0.4-0.1,0.9,0.6,1.5,2.1c0.6,1.5,1.2,3.8,1.9,6.9c0.6,3.1,1.2,6.9,1.5,11.5c0.4,4.6,0.5,9.8,0.4,15.6c-0.1,5.9-0.5,12.3-1.1,19.2
			c-0.7,6.9-1.7,14.3-2.9,22c-2.1,13.2-5,27.4-8.3,42.3c-2.7,12.1-5.8,24.8-8.8,37.8L544.8,638.4L544.8,638.4z"/>
		<path class="st0" d="M711,638.4c-0.1-2.7-0.2-5.4-0.3-8.2c0-0.3,0-0.6,0-0.8c-0.6-23.2-0.8-45.4-1.2-65.7
			c-0.3-20.3-0.7-38.7-1.3-54.1c-0.6-15.4-1.3-27.9-2.3-36.5c-0.9-8.6-2-13.4-3.1-13.4c-1.1,0-2.2,4.8-3.2,13.3
			c-1,8.6-2,21-2.8,36.4c-0.9,15.4-1.7,33.7-2.2,54.1c-0.5,20.4-0.7,42.9-0.1,66.6c0,0.3,0,0.6,0,0.8c0.1,2.5,0.2,4.9,0.3,7.4
			L711,638.4L711,638.4z"/>
		<path class="st0" d="M668.6,638.4c-0.3-11.6-1.1-22.8-2.2-33C665,593,663.1,582,661,573c-2.1-9-4.4-16-6.3-20.6
			c-1.9-4.6-3.4-6.9-4.1-6.5c-0.7,0.4-0.6,3.4,0.1,8.5c0.6,5.1,1.7,12.2,2.8,21.1c1.1,8.9,2.1,19.5,2.8,31.5
			c0.6,9.7,1,20.3,1.2,31.4L668.6,638.4L668.6,638.4z"/>
		<path class="st0" d="M788.1,450.3c-0.4,0-1.1,0.7-2,2.2c-1,1.7-2.3,4.4-3.7,8c-1.4,3.6-2.9,8.2-4.4,13.7c-1.5,5.5-2.8,12-3.9,19.4
			c-1,6.7-1.7,14.1-2,22.1c-0.4,8-0.4,16.5,0,25.4c0.6,13.2,2,27.1,4.2,41.6c2.2,14.5,5.2,29.4,8.6,44.5c0.7,3.1,1.4,6.1,2.1,9.1
			c0.3,1.2,0.6,2.3,0.8,3.5H802c-0.7-3-1.4-6-2.1-9c-0.7-3-1.3-6-2-9c-3.3-14.8-6.3-29.2-8.7-43c-2.4-13.7-4.2-26.8-5.2-39.1
			c-0.7-8.3-1.2-16.3-1.3-23.7c-0.1-7.4,0.1-14.3,0.5-20.6c0.8-13.8,2.6-24.8,3.9-32.4c0.6-3.8,1.1-6.8,1.4-8.9
			c0.2-2.1,0.2-3.3-0.2-3.6C788.2,450.3,788.1,450.3,788.1,450.3L788.1,450.3L788.1,450.3z"/>
		<path class="st0" d="M719.7,451.6c-0.2,0-0.4,0-0.5,0.3c-0.1,0.3-0.2,0.9-0.3,1.3c-0.1,0.7-0.1,1.7,0,2.8c0.2,2.2,0.6,5,1.3,8.5
			c1.4,6.9,3.6,16.3,6.4,27.8c5.4,22.6,12.8,53.7,18.5,90.4c2.8,17.8,5.1,37,6.7,57h16.3c-1.7-21.9-4.7-42.7-8.2-61.8
			c-3.5-18.9-7.6-36.1-11.8-51.4c-4.2-15.2-8.5-28.5-12.5-39.4c-4-11.1-7.6-19.7-10.3-25.7c-1.4-3.1-2.5-5.4-3.4-7
			c-0.5-0.9-0.8-1.5-1.2-1.9c-0.2-0.4-0.4-0.5-0.6-0.6C720,451.8,719.9,451.7,719.7,451.6L719.7,451.6z"/>
		<path class="st0" d="M624.8,488.2c0.9,0.4,0.6,5.2-0.5,13.4c-1.1,8.3-3,20.1-5.2,34.7c-2.2,14.6-4.8,31.9-6.7,51.3
			c-1.6,16.2-2.8,33.8-3,52.2H596c0.4-19.6,2-38.1,4.3-54.8c2.7-19.9,6.2-37.5,9.7-52c3.5-14.5,6.8-25.8,9.5-33.5
			C622.1,491.8,624,487.8,624.8,488.2L624.8,488.2z"/>
		<path class="st0" d="M825.5,491.9c-1,0-1.9,3.8-2.9,10.6c-0.9,6.8-1.8,16.6-2.7,28.7c-0.9,12.1-1.7,26.6-2.4,42.8
			c-0.7,16.2-1.1,34-0.9,52.9c0,0.6,0,1.2,0,1.9c0,3.2,0.1,6.5,0.2,9.7h14.5c-0.1-3.3-0.2-6.7-0.2-10.1c0-0.6,0-1.2,0-1.8
			c-0.3-18.4-0.2-36-0.3-52.1c-0.1-16.1-0.2-30.6-0.6-42.9c-0.4-12.2-1.1-22.2-1.9-29C827.5,495.7,826.5,491.9,825.5,491.9
			L825.5,491.9z"/>
		<path class="st0" d="M838.8,507.1c-0.9,0.4-0.8,4.5-0.2,11.6c0.6,7.1,1.8,17.2,3,29.7c1.2,12.5,2.4,27.4,3.4,44
			c0.9,14.6,1.5,30.6,2,47.4h13.5c-0.6-17.4-1.6-34.1-3.1-49.3c-1.7-17-4-32.1-6.4-44.7s-5.1-22.4-7.3-29
			C841.5,510.2,839.7,506.7,838.8,507.1L838.8,507.1z"/>
		<path class="st0" d="M488.8,644c0-3.1,0-6.3,0-9.4c0-2.2-0.1-4.5-0.2-6.8c-0.4-13.9-1.6-27.2-3.7-39.4c-2.1-12.2-5-23.3-8.5-32.9
			c-3.2-9-7-16.7-10.8-23.1c-3.8-6.4-7.6-11.4-11-15.3c-7.6-7-12-11.7-11.6-13.1c0.4-1.3,5.7,0.9,14.7,6.3
			c4.2,3.3,8.9,8.1,13.7,14.5c4.8,6.4,9.6,14.6,13.7,24.3c4.4,10.4,8,22.4,10.6,35.7c2.6,13.2,4.1,27.6,4.6,42.4
			c0.1,2.4,0.1,4.8,0.1,7.2c0,3.3,0,6.4-0.1,9.6L488.8,644L488.8,644L488.8,644z"/>
		<path class="st0" d="M528.1,644c0.2-3.1,0.5-6.2,0.7-9.3c1.2-18.6,1.6-36.7,1.3-53.7c-0.4-19.9-1.8-38.5-3.8-55.1
			s-4.4-31.1-6.6-43.1c-2.2-12-4.3-21.6-5.5-28.3c-1.3-6.7-1.7-10.5-0.9-11.1c0.8-0.5,2.8,2.4,5.5,8.3c2.7,6,6.3,15.1,9.9,27
			c3.6,11.9,7.2,26.7,10.2,43.8c3,17.1,5.3,36.6,6.2,57.6c0.8,17.9,0.6,37-0.7,56.5c-0.2,2.5-0.3,4.9-0.5,7.4L528.1,644L528.1,644z"
			/>
		<path class="st0" d="M559.9,644c3.1-13.1,6.3-25.6,9.3-37.2c3.2-12.6,6.1-24.3,8.4-35.1c1.4-6.3,2.6-12.2,3.5-17.8
			c1-5.5,1.7-10.7,2.3-15.3c0.5-4.6,0.9-8.8,1.1-12.5c0.2-3.7,0.3-6.8,0.4-9.4c0.1-2.6,0.1-4.6,0.3-6.1c0.1-1.4,0.3-2.2,0.6-2.3
			c0.3-0.1,0.8,0.5,1.3,1.8c0.5,1.3,1.1,3.3,1.6,6c0.5,2.7,1,6,1.3,9.9c0.3,3.9,0.5,8.5,0.4,13.5c-0.1,5.1-0.4,10.6-1,16.6
			s-1.4,12.3-2.5,19c-1.8,11.3-4.3,23.6-7.2,36.5c-2.3,10.5-5,21.4-7.6,32.6L559.9,644L559.9,644z"/>
		<path class="st0" d="M704.1,644c-0.1-2.3-0.2-4.7-0.2-7c0-0.2,0-0.5,0-0.7c-0.5-20-0.7-39.1-1-56.6c-0.3-17.5-0.6-33.3-1.1-46.6
			c-0.5-13.3-1.2-24-2-31.5c-0.8-7.4-1.7-11.6-2.7-11.6c-1,0-1.9,4.1-2.8,11.5c-0.9,7.4-1.7,18.1-2.4,31.3s-1.5,29.1-1.9,46.7
			c-0.4,17.6-0.6,37-0.1,57.4c0,0.2,0,0.5,0,0.7c0.1,2.1,0.2,4.2,0.2,6.4L704.1,644L704.1,644z"/>
		<path class="st0" d="M667.5,644c-0.3-10-0.9-19.6-1.9-28.5c-1.2-10.7-2.8-20.2-4.6-27.9c-1.8-7.8-3.8-13.8-5.5-17.7
			c-1.6-4-2.9-5.9-3.5-5.6c-0.6,0.3-0.5,2.9,0.1,7.3c0.5,4.4,1.5,10.5,2.4,18.2c0.9,7.7,1.8,16.8,2.4,27.1c0.5,8.4,0.8,17.5,1,27.1
			L667.5,644L667.5,644z"/>
		<path class="st0" d="M769.5,481.9c-0.4,0-0.9,0.6-1.7,1.9c-0.9,1.5-2,3.8-3.2,6.9c-1.2,3.1-2.5,7.1-3.8,11.8
			c-1.3,4.8-2.4,10.4-3.3,16.7c-0.8,5.8-1.4,12.2-1.7,19c-0.3,6.9-0.3,14.2,0,21.9c0.5,11.3,1.7,23.4,3.6,35.9s4.5,25.3,7.4,38.3
			c0.6,2.7,1.2,5.2,1.8,7.8c0.2,1,0.5,2,0.7,3h12.2c-0.6-2.6-1.2-5.2-1.8-7.8c-0.6-2.6-1.2-5.1-1.7-7.7c-2.9-12.8-5.5-25.2-7.5-37
			c-2.1-11.8-3.6-23.1-4.5-33.7c-0.6-7.2-1-14-1.1-20.4c-0.1-6.4,0.1-12.3,0.4-17.8c0.7-11.9,2.3-21.4,3.4-28c0.6-3.3,1-5.9,1.2-7.7
			c0.2-1.8,0.2-2.9-0.1-3.1C769.6,481.9,769.6,481.9,769.5,481.9L769.5,481.9L769.5,481.9z"/>
		<path class="st0" d="M710.6,483c-0.1,0-0.3,0-0.4,0.3c-0.1,0.3-0.2,0.8-0.2,1.1c-0.1,0.6-0.1,1.4,0,2.4c0.1,1.9,0.5,4.3,1.1,7.3
			c1.2,5.9,3.1,14,5.5,23.9c4.7,19.5,11,46.3,15.9,78c2.4,15.4,4.4,31.9,5.8,49.2h14.1c-1.5-18.8-4-36.8-7.1-53.3
			c-3-16.3-6.6-31.1-10.2-44.3c-3.6-13.1-7.3-24.5-10.7-33.9c-3.4-9.5-6.5-17-8.9-22.1c-1.2-2.6-2.2-4.6-3-6.1
			c-0.4-0.7-0.7-1.3-1-1.7c-0.2-0.4-0.4-0.4-0.5-0.5C710.9,483.2,710.8,483,710.6,483L710.6,483z"/>
		<path class="st0" d="M629.8,514.5c0.7,0.3,0.5,4.4-0.5,11.6c-1,7.1-2.6,17.3-4.5,29.9c-1.9,12.6-4.1,27.5-5.8,44.2
			c-1.4,13.9-2.4,29.1-2.5,45H605c0.3-16.9,1.7-32.8,3.7-47.3c2.3-17.2,5.4-32.3,8.3-44.8c3-12.5,5.9-22.2,8.2-28.9
			C627.5,517.6,629.1,514.1,629.8,514.5L629.8,514.5z"/>
		<path class="st0" d="M801.8,517.7c-0.9,0-1.7,3.3-2.5,9.2c-0.8,5.9-1.6,14.3-2.3,24.7c-0.8,10.5-1.5,23-2.1,36.9
			c-0.6,13.9-1,29.3-0.7,45.6c0,0.5,0,1.1,0,1.6c0,2.8,0.1,5.6,0.2,8.4H807c-0.1-2.9-0.1-5.8-0.2-8.7c0-0.5,0-1,0-1.5
			c-0.2-15.8-0.2-31-0.3-44.9c-0.1-13.9-0.2-26.4-0.5-36.9c-0.4-10.6-0.9-19.1-1.6-25C803.6,521,802.7,517.7,801.8,517.7
			L801.8,517.7z"/>
		<path class="st0" d="M813.3,530.8c-0.8,0.3-0.7,3.9-0.2,10c0.5,6.1,1.5,14.8,2.5,25.6s2.1,23.6,2.9,37.9
			c0.7,12.6,1.3,26.4,1.7,40.9H832c-0.5-15-1.4-29.4-2.7-42.5c-1.5-14.6-3.4-27.7-5.5-38.5s-4.4-19.3-6.3-25
			S814.1,530.5,813.3,530.8L813.3,530.8z"/>
		<path class="st0" d="M637.8,644c0.2-3.1,0.5-6.2,0.7-9.3c1.2-18.6,1.6-36.7,1.3-53.7c-0.4-19.9-1.8-38.5-3.8-55.1
			c-1.9-16.6-4.4-31.1-6.6-43.1c-2.2-12-4.3-21.6-5.5-28.3c-1.3-6.7-1.7-10.5-0.9-11.1c0.8-0.5,2.8,2.4,5.5,8.3
			c2.7,6,6.3,15.1,9.9,27c3.6,11.9,7.2,26.7,10.2,43.8c3,17.1,5.3,36.6,6.2,57.6c0.8,17.9,0.6,37-0.7,56.5c-0.2,2.5-0.3,4.9-0.5,7.4
			L637.8,644L637.8,644z"/>
		<path class="st0" d="M684.5,481.9c-0.4,0-0.9,0.6-1.7,1.9c-0.9,1.5-2,3.8-3.2,6.9c-1.2,3.1-2.5,7.1-3.8,11.8
			c-1.3,4.8-2.4,10.4-3.3,16.7c-0.8,5.8-1.4,12.2-1.7,19c-0.3,6.9-0.3,14.2,0,21.9c0.5,11.3,1.7,23.4,3.6,35.9
			c1.9,12.5,4.5,25.3,7.4,38.3c0.6,2.7,1.2,5.2,1.8,7.8c0.2,1,0.5,2,0.7,3h12.2c-0.6-2.6-1.2-5.2-1.8-7.8c-0.6-2.6-1.2-5.1-1.7-7.7
			c-2.9-12.8-5.5-25.2-7.5-37c-2.1-11.8-3.6-23.1-4.5-33.7c-0.6-7.2-1-14-1.1-20.4c-0.1-6.4,0.1-12.3,0.4-17.8
			c0.7-11.9,2.3-21.4,3.4-28c0.6-3.3,1-5.9,1.2-7.7c0.2-1.8,0.2-2.9-0.1-3.1C684.6,481.9,684.5,481.9,684.5,481.9L684.5,481.9
			L684.5,481.9z"/>
		<path class="st0" d="M801.2,492c0.1,0,0.3,0,0.4,0.3c0.1,0.3,0.2,0.8,0.2,1.1c0.1,0.6,0.1,1.4,0,2.4c-0.1,1.9-0.5,4.3-1.1,7.3
			c-1.2,5.9-3.1,14-5.5,23.9c-4.7,19.5-11,46.3-15.9,78c-2.4,15.4-4.4,31.9-5.8,49.2h-14.1c1.5-18.8,4-36.8,7.1-53.3
			c3-16.3,6.6-31.1,10.2-44.3c3.6-13.1,7.3-24.5,10.7-33.9c3.4-9.5,6.5-17,8.9-22.1c1.2-2.6,2.2-4.6,3-6.1c0.4-0.7,0.7-1.3,1-1.7
			c0.2-0.4,0.4-0.4,0.5-0.5C801,492.1,801,492,801.2,492L801.2,492z"/>
		<path class="st0" d="M861,514.5c0.7,0.3,0.5,4.4-0.5,11.6c-1,7.1-2.6,17.3-4.5,29.9c-1.9,12.6-4.1,27.5-5.8,44.2
			c-1.4,13.9-2.4,29.1-2.5,45h-11.5c0.3-16.9,1.7-32.8,3.7-47.3c2.3-17.2,5.4-32.3,8.3-44.8s5.9-22.2,8.2-28.9
			C858.6,517.6,860.3,514.1,861,514.5L861,514.5z"/>
		<path class="st0" d="M744.4,512.3c-0.9,0-1.7,3.3-2.5,9.2c-0.8,5.9-1.6,14.3-2.3,24.7c-0.8,10.5-1.5,23-2.1,36.9s-1,29.3-0.7,45.6
			c0,0.5,0,1.1,0,1.6c0,2.8,0.1,5.6,0.2,8.4h12.5c-0.1-2.9-0.1-5.8-0.2-8.7c0-0.5,0-1,0-1.5c-0.2-15.8-0.2-31-0.3-44.9
			c-0.1-13.9-0.2-26.4-0.5-36.9c-0.4-10.6-0.9-19.1-1.6-25C746.1,515.6,745.3,512.3,744.4,512.3L744.4,512.3z"/>
		<path class="st0" d="M658.5,523.6c-0.8,0.3-0.7,3.9-0.2,10c0.5,6.1,1.5,14.8,2.5,25.6s2.1,23.6,2.9,37.9
			c0.7,12.6,1.3,26.4,1.7,40.9h11.7c-0.5-15-1.4-29.4-2.7-42.5c-1.5-14.6-3.4-27.7-5.5-38.5s-4.4-19.3-6.3-25
			C660.7,526.2,659.2,523.3,658.5,523.6L658.5,523.6z"/>
		<path class="st0" d="M118.8,622.3c3.3,1.1,8.6,10.1,8.6-1.3c19.4-95.6,27.6-198.3,21.1-299c-2.8-67,2.9-137.9,26.1-194.1
			c9-22.9,19.7-43.7,30.7-63.9c-25.4,43.1-48.3,94.3-55.8,155.2c-7.1,50.4-4.7,102.6-3.3,153.8C146.4,458,136.5,543.1,118.8,622.3
			L118.8,622.3z"/>
		<path class="st0" d="M221.2,174.4c-28.9,35.1-55.8,77.8-67.3,132.1c-3.8,16.3-6.4,33-8.2,49.9c1,0.8,2,1.6,3,2.3
			c4.5-47.8,15.5-94.3,36.8-131.1C196.2,208.1,208.6,191,221.2,174.4L221.2,174.4z"/>
	</g>
	<g vector-effect="non-scaling-stroke" transform="matrix(1.155 -.46238 .339 1.5753 187.35 -278.39)">
		<path class="st0" d="M-110.8,159.4c-15.6,20.4-28.2,41.9-33.9,66.3c-10.2,37.7-6.8,76.6-4.8,114.9c0.5,63.5-13.7,127-39.2,186.3
			c4.7,0.8,12.3,7.5,12.3-1c27.8-71.4,39.7-148.2,30.3-223.4c-3.9-49.2,3.9-101.2,35.7-142.8C-110.7,159.4-110.5,159.8-110.8,159.4
			L-110.8,159.4z"/>
		<path class="st0" d="M-104.7,165.1c-5.1,2.3-10.3,4.8-15.4,7.3c0.1,0.1,0.3,0.3,0.4,0.4C-114.7,170.2-109.7,167.6-104.7,165.1
			L-104.7,165.1z"/>
	</g>
</g>
</svg>
