<?xml version="1.0" encoding="utf-8"?>
<!-- Generator: Adobe Illustrator 22.1.0, SVG Export Plug-In . SVG Version: 6.00 Build 0)  -->
<svg version="1.1" id="Layer_1" xmlns="http://www.w3.org/2000/svg" xmlns:xlink="http://www.w3.org/1999/xlink" x="0px" y="0px"
	 viewBox="0 0 412.2 135.3" style="enable-background:new 0 0 412.2 135.3;" xml:space="preserve">
<style type="text/css">
	.st0{fill:none;stroke:#000000;stroke-miterlimit:10;}
</style>
<g transform="translate(-51.525 -395.61)">
	<path class="st0" d="M249.3,395.6h13l201.4,135.3l-412.2-0.2L249.3,395.6z"/>
	<path class="st0" d="M240.2,526.5l4-38h12.1l-0.1,38H240.2z"/>
	<path class="st0" d="M247,466.7h9.3v-19.2h-7L247,466.7z"/>
	<path class="st0" d="M250.7,438.6h5.8v-9.9h-4.7L250.7,438.6z"/>
	<path class="st0" d="M252.6,423l4,0.1l0-5.5l-3.3,0.1L252.6,423z"/>
	<path class="st0" d="M253.4,414.6h3.1l0.1-3.2h-2.7L253.4,414.6z"/>
	<path class="st0" d="M254.1,409.5l2.4,0v-2.1h-2.2L254.1,409.5z"/>
	<path class="st0" d="M254.5,406.3h2l0-1.4h-1.9L254.5,406.3z"/>
	<path class="st0" d="M254.8,403.9h1.7l0-1h-1.6L254.8,403.9z"/>
	<path class="st0" d="M255,402.3h1.5v-0.8H255L255,402.3z"/>
	<path class="st0" d="M255.1,400.9h1.4l0-0.7h-1.3L255.1,400.9z"/>
	<path class="st0" d="M255.3,399.9h1.3l0-0.6h-1.2L255.3,399.9z"/>
	<path class="st0" d="M255.4,399.1h1.1l0-0.5h-1.1L255.4,399.1z"/>
	<path class="st0" d="M255.5,398.4h1V398h-1L255.5,398.4z"/>
	<path class="st0" d="M255.5,397.8h1l0-0.3h-0.9L255.5,397.8z"/>
	<path class="st0" d="M255.6,397.3h0.9v-0.2h-0.9L255.6,397.3z"/>
	<path class="st0" d="M255.6,397h0.8v-0.2h-0.8L255.6,397z"/>
	<path class="st0" d="M255.7,396.7h0.8l0-0.1h-0.8L255.7,396.7z"/>
	<path class="st0" d="M255.7,396.5h0.8l0-0.1h-0.7L255.7,396.5z"/>
</g>
</svg>
