<?xml version="1.0" encoding="UTF-8"?>
<svg viewBox="0 0 858.51831 629.90216" xmlns="http://www.w3.org/2000/svg" xmlns:xlink="http://www.w3.org/1999/xlink">
 <defs>
  <linearGradient id="a">
   <stop offset="0"/>
   <stop stop-opacity="0" offset="1"/>
  </linearGradient>
  <linearGradient id="b">
   <stop stop-color="#008080" offset="0"/>
   <stop stop-color="#008080" stop-opacity="0" offset="1"/>
  </linearGradient>
  <linearGradient id="k" x1="538.78" x2="511.84" y1="457.23" y2="751.38" gradientUnits="userSpaceOnUse">
   <stop stop-color="#ff0" offset="0"/>
   <stop stop-color="#ff0" stop-opacity="0" offset="1"/>
  </linearGradient>
  <linearGradient id="j" x1="479.07" x2="37.86" y1="285.41" y2="279.58" gradientUnits="userSpaceOnUse" xlink:href="#b"/>
  <linearGradient id="i" x1="559.16" x2="1041.1" y1="315.99" y2="294.14" gradientUnits="userSpaceOnUse" xlink:href="#b"/>
  <linearGradient id="h" x1="293.87" x2="262.88" y1="542.34" y2="569.7" gradientUnits="userSpaceOnUse" xlink:href="#a"/>
  <linearGradient id="g" x1="374.65" x2="338.96" y1="608.38" y2="640.23" gradientUnits="userSpaceOnUse" xlink:href="#a"/>
  <linearGradient id="f" x1="452.45" x2="454.37" y1="656.26" y2="705.2" gradientUnits="userSpaceOnUse" xlink:href="#a"/>
  <linearGradient id="e" x1="545.42" x2="585.38" y1="661.17" y2="693.44" gradientUnits="userSpaceOnUse" xlink:href="#a"/>
  <linearGradient id="d" x1="633.47" x2="683.48" y1="601.54" y2="634.46" gradientUnits="userSpaceOnUse" xlink:href="#a"/>
  <linearGradient id="c" x1="737.12" x2="766.19" y1="541.27" y2="567.56" gradientUnits="userSpaceOnUse" xlink:href="#a"/>
 </defs>
 <g transform="translate(-81.201 -110.32)" stroke="#000">
  <path d="m188.51 504.47 334.25-57.428 313.07 56.79-332 235.9-315.32-235.26z" fill="url(#k)" fill-rule="evenodd"/>
  <path d="m552.55 704.34-43.727-29.417 51.678-32.597 45.317 23.851-53.268 38.162z" fill="url(#e)" fill-rule="evenodd"/>
  <path d="m508.03 674.93-50.883-34.187-50.515 25.715 52.806 39.573 48.592-31.101z" fill="url(#f)" fill-rule="evenodd"/>
  <path d="m458.74 641.53 50.088-25.441-42.137-23.056-51.678 21.466 43.727 27.031z" fill-rule="evenodd"/>
  <path d="m505.65 616.09 47.703-22.261 51.678 22.261-42.932 26.236-56.448-26.236z" fill-rule="evenodd"/>
  <path d="m651.94 586.68-46.908 30.212 43.821 19.449 46.813-32.964-43.727-16.696z" fill="url(#d)" fill-rule="evenodd"/>
  <path d="m414.22 614.5-47.027 22.381-39.385-29.417 48.25-17.611 38.162 24.646z" fill="url(#g)" fill-rule="evenodd"/>
  <path d="m512.08 573.9-45.023 19.296-42.055-22.264 44.529-15.338 42.55 18.306z" fill-rule="evenodd"/>
  <path d="m512.08 573.9 50.466-21.77 42.55 17.811-50.466 23.749-42.55-19.79z" fill-rule="evenodd"/>
  <path d="m604.6 568.95 45.023-23.254 47.002 15.832-41.065 25.728-50.961-18.306z" fill-rule="evenodd"/>
  <path d="m279.05 525.9-41.516 15.025 47.149 35.318 45.823-16.699-51.455-33.644z" fill="url(#h)" fill-rule="evenodd"/>
  <path d="m331 560.04 46.508-14.348 47.002 25.728-48.487 17.317-45.023-28.696z" fill-rule="evenodd"/>
  <path d="m323.08 516.5 52.94 30.181 41.56-13.359-57.392-26.717-37.107 9.8952z" fill-rule="evenodd"/>
  <path d="m468.54 554.11 50.961-16.822-49.971-19.296-48.981 16.327 47.992 19.79z" fill-rule="evenodd"/>
  <path d="m408.18 495.23 44.034-8.9057 61.845 18.306-44.034 13.359-61.845-22.759z" fill-rule="evenodd"/>
  <path d="m520 537.28 42.055-16.822 46.013 13.359-44.034 18.801-44.034-15.338z" fill-rule="evenodd"/>
  <path d="m517.03 505.12 61.845-19.296 46.508 11.38-61.845 22.759-46.508-14.843z" fill-rule="evenodd"/>
  <path d="m609.55 533.82 61.351-26.222 40.076 10.39-60.361 28.696-41.065-12.864z" fill-rule="evenodd"/>
  <path d="m515.54 470.49-62.34 15.338-54.919-16.327 60.856-12.864 56.403 13.853z" fill-rule="evenodd"/>
  <path d="m517.03 470.49 60.856-13.359 62.835 10.39-60.361 18.801-63.33-15.832z" fill-rule="evenodd"/>
  <path d="m629.34 497.7 55.908-21.77 40.076 7.9162-52.445 23.254-43.539-9.4005z" fill-rule="evenodd"/>
  <path d="m789.15 536.29-36.612-8.411-53.434 33.149 37.107 12.864 52.94-37.602z" fill="url(#c)" fill-rule="evenodd"/>
  <path d="m711.47 517 50.961-25.728 38.097 7.4214-46.013 28.696-43.044-10.39z" fill-rule="evenodd"/>
  <path d="m406.69 495.72-46.013 10.885-48.981-21.77 44.034-8.9057 50.961 19.79z" fill-rule="evenodd"/>
  <path d="m235.51 498.69 38.591-7.4214 46.508 25.728-41.065 9.4005-44.034-27.707z" fill-rule="evenodd"/>
  <path d="m518.39 215.51-433.93-103.39-1.4562 2.9123 435.39 100.47 5.8246 230.07-318.9 58.246" fill="none" stroke-width="3.6"/>
  <path d="m83.001 112.12 433.93 103.39 4.3685 228.62-436.85 78.632" fill="url(#j)" fill-rule="evenodd"/>
  <path d="m519.85 215.51 2.9123 231.53" fill="none"/>
  <path d="m939.22 525.67-416.46-80.088-2.9123-230.07 410.64-103.39" fill="url(#i)" fill-rule="evenodd"/>
  <path d="m929.03 113.58-409.18 101.93 4.3685 231.53 313.07 59.702" fill="none" stroke-width="3.5"/>
  <path d="m629.06 246.09 1.4562 104.84 107.76 1.4562-2.9123-123.77-106.3 17.474z" fill="#008080" fill-rule="evenodd" stroke-width="3.7"/>
  <path d="m403.35 240.27v222.79l-90.282 20.386-2.9123-257.74 93.194 14.562z" fill="#2b0000" fill-rule="evenodd" stroke-width="3.7"/>
  <path d="m160.18 200.95v147.07l100.47-1.4562v-128.14l-100.47-17.474z" fill="#008080" fill-rule="evenodd" stroke-width="3.3"/>
  <path d="m385.66 355.25-0.40309 9.2412 8.0618-0.77009v-8.8561l-7.6587 0.38505z" fill="#fff" fill-rule="evenodd" stroke-width="2.152"/>
 </g>
</svg>
