<?xml version="1.0" encoding="utf-8"?>
<!-- Generator: Adobe Illustrator 22.1.0, SVG Export Plug-In . SVG Version: 6.00 Build 0)  -->
<svg version="1.1" id="Layer_1" xmlns="http://www.w3.org/2000/svg" xmlns:xlink="http://www.w3.org/1999/xlink" x="0px" y="0px"
	 viewBox="0 0 858.5 629.9" style="enable-background:new 0 0 858.5 629.9;" xml:space="preserve">
<style type="text/css">
	.st0{fill:none;stroke:#000000;stroke-width:3;stroke-miterlimit:10;}
</style>
<g transform="translate(-81.201 -110.32)">
	<path class="st0" d="M188.5,504.5L522.8,447l313.1,56.8l-332,235.9L188.5,504.5L188.5,504.5z"/>
	<path class="st0" d="M552.5,704.3l-43.7-29.4l51.7-32.6l45.3,23.9L552.5,704.3L552.5,704.3z"/>
	<path class="st0" d="M508,674.9l-50.9-34.2l-50.5,25.7l52.8,39.6L508,674.9L508,674.9z"/>
	<path class="st0" d="M458.7,641.5l50.1-25.4L466.7,593L415,614.5L458.7,641.5L458.7,641.5z"/>
	<path class="st0" d="M505.6,616.1l47.7-22.3l51.7,22.3l-42.9,26.2L505.6,616.1L505.6,616.1z"/>
	<path class="st0" d="M651.9,586.7L605,616.9l43.8,19.4l46.8-33L651.9,586.7L651.9,586.7z"/>
	<path class="st0" d="M414.2,614.5l-47,22.4l-39.4-29.4l48.3-17.6L414.2,614.5L414.2,614.5z"/>
	<path class="st0" d="M512.1,573.9l-45,19.3L425,570.9l44.5-15.3L512.1,573.9L512.1,573.9z"/>
	<path class="st0" d="M512.1,573.9l50.5-21.8l42.5,17.8l-50.5,23.7L512.1,573.9z"/>
	<path class="st0" d="M604.6,569l45-23.3l47,15.8l-41.1,25.7L604.6,569L604.6,569z"/>
	<path class="st0" d="M279,525.9l-41.5,15l47.1,35.3l45.8-16.7L279,525.9L279,525.9z"/>
	<path class="st0" d="M331,560l46.5-14.3l47,25.7L376,588.7L331,560L331,560z"/>
	<path class="st0" d="M323.1,516.5l52.9,30.2l41.6-13.4l-57.4-26.7L323.1,516.5L323.1,516.5z"/>
	<path class="st0" d="M468.5,554.1l51-16.8l-50-19.3l-49,16.3L468.5,554.1L468.5,554.1z"/>
	<path class="st0" d="M408.2,495.2l44-8.9l61.8,18.3L470,518L408.2,495.2L408.2,495.2z"/>
	<path class="st0" d="M520,537.3l42.1-16.8l46,13.4l-44,18.8L520,537.3z"/>
	<path class="st0" d="M517,505.1l61.8-19.3l46.5,11.4L563.5,520L517,505.1L517,505.1z"/>
	<path class="st0" d="M609.5,533.8l61.4-26.2L711,518l-60.4,28.7L609.5,533.8L609.5,533.8z"/>
	<path class="st0" d="M515.5,470.5l-62.3,15.3l-54.9-16.3l60.9-12.9L515.5,470.5z"/>
	<path class="st0" d="M517,470.5l60.9-13.4l62.8,10.4l-60.4,18.8L517,470.5z"/>
	<path class="st0" d="M629.3,497.7l55.9-21.8l40.1,7.9l-52.4,23.3L629.3,497.7L629.3,497.7z"/>
	<path class="st0" d="M789.2,536.3l-36.6-8.4L699.1,561l37.1,12.9L789.2,536.3L789.2,536.3z"/>
	<path class="st0" d="M711.5,517l51-25.7l38.1,7.4l-46,28.7L711.5,517L711.5,517z"/>
	<path class="st0" d="M406.7,495.7l-46,10.9l-49-21.8l44-8.9L406.7,495.7L406.7,495.7z"/>
	<path class="st0" d="M235.5,498.7l38.6-7.4l46.5,25.7l-41.1,9.4L235.5,498.7L235.5,498.7z"/>
	<path class="st0" d="M518.4,215.5L84.5,112.1L83,115L518.4,215.5l5.8,230.1l-318.9,58.2"/>
	<path class="st0" d="M83,112.1l433.9,103.4l4.4,228.6L84.4,522.8"/>
	<path class="st0" d="M519.8,215.5l2.9,231.5"/>
	<path class="st0" d="M939.2,525.7l-416.5-80.1l-2.9-230.1l410.6-103.4"/>
	<path class="st0" d="M929,113.6L519.9,215.5l4.4,231.5l313.1,59.7"/>
	<path class="st0" d="M629.1,246.1l1.5,104.8l107.8,1.5l-2.9-123.8L629.1,246.1L629.1,246.1z"/>
	<path class="st0" d="M403.4,240.3v222.8l-90.3,20.4l-2.9-257.7L403.4,240.3L403.4,240.3z"/>
	<path class="st0" d="M160.2,200.9V348l100.5-1.5V218.4L160.2,200.9L160.2,200.9z"/>
	<path class="st0" d="M385.7,355.3l-0.4,9.2l8.1-0.8v-8.9L385.7,355.3L385.7,355.3z"/>
</g>
</svg>
