<?xml version="1.0" encoding="utf-8"?>
<!-- Generator: Adobe Illustrator 22.1.0, SVG Export Plug-In . SVG Version: 6.00 Build 0)  -->
<svg version="1.1" id="Layer_1" xmlns="http://www.w3.org/2000/svg" xmlns:xlink="http://www.w3.org/1999/xlink" x="0px" y="0px"
	 viewBox="0 0 450 260" style="enable-background:new 0 0 450 260;" xml:space="preserve">
<style type="text/css">
	.st0{fill:none;stroke:#000000;stroke-miterlimit:10;}
	.st1{font-family:'Arial-Black';}
	.st2{font-size:24px;}
</style>
<g transform="translate(0 -792.36)">
	<g transform="translate(177.63 447.07)">
		<g>
			<g>
				<path class="st0" d="M-48.4,526.8c-24.5-0.9-49.2-2.4-73.9-4.6c0-0.4,0-0.8,0-1.3c0.3-16.7,1-55.7,1.3-71.2
					c23.6,2.5,47.1,4.5,70.5,5.8l2.1,70.1L-48.4,526.8z"/>
				<path class="st0" d="M76,526.5c-27.7,1-55.5,1.5-83.4,1.2c0-0.5,0-0.9,0-1.4c0.3-16.4,0.9-52.4,1.2-68.7
					c27.1,0.8,54.1,0.9,80.9,0.3c0.3,14.7,0.9,48.5,1.2,66.5C76,525.1,76,525.8,76,526.5z"/>
				<path class="st0" d="M190.9,520c-24.5,1.8-49.1,3.4-73.8,4.7l0.1-2.3l2-66.2c23.6-1.2,47.1-2.9,70.5-5.1
					c0.3,14.1,0.9,48.4,1.2,66.9C190.9,518.7,190.9,519.4,190.9,520z"/>
				<path class="st0" d="M243.4,548.4l-156,3.3l-20.2-8.3l-1.2,0l-1.1-0.8L25.7,544l-0.2,0l-23.1,0.4l-0.1-0.4l-0.5,0.4l-14.5,10.9
					l-0.4,0.3l-7.8,4.9l-153.8-9.7l0.6-0.7l11.3-13.8l0.1,4l26.9,1.5c0,0,13.4-7.5,13.4-13.4c0-0.8,0-3,0.1-6.2
					c24.8,2.3,49.4,3.8,73.9,4.6l0.6,21h26.9c0,0,13.4-7.5,13.4-13.4c0-0.9,0-3.2,0.1-6.7c27.9,0.2,55.7-0.2,83.4-1.2
					c0.1,4.9,0.1,8.3,0.1,9.4c0,6,13.4,13.4,13.4,13.4V549l0,0.3h26.9l0.7-24.6c24.6-1.3,49.2-2.9,73.8-4.7c0.1,5.2,0.1,8.8,0.1,9.9
					c0,6,13.4,13.4,13.4,13.4V543l0,0.3l26.9-1.5l0.2-7.4L243.4,548.4z"/>
				<path class="st0" d="M-48.4,526.8c-24.5-0.9-49.2-2.4-73.9-4.6c0-0.4,0-0.8,0-1.3c24.5,2.5,49.1,4,73.9,4.8L-48.4,526.8z"/>
				<polygon class="st0" points="25.4,544 3.7,544.8 2.6,545.6 -12.7,555.3 1.8,544.4 2.2,544.1 2.3,544.4 				"/>
				<path class="st0" d="M-7.4,527.7c0-0.5,0-0.9,0-1.4c27.7,0,55.5-0.8,83.3-1.9c0,0.7,0,1.4,0,2.1C48.3,527.5,20.5,528-7.4,527.7z
					"/>
				<path class="st0" d="M190.9,520c-24.5,1.8-49.1,3.4-73.8,4.7l0.1-2.3c24.5-1.3,49.1-2.9,73.7-4.4
					C190.9,518.7,190.9,519.4,190.9,520z"/>
				<polygon class="st0" points="244.8,550.1 85.1,556.8 73.8,548.8 73.7,548.8 67.8,544.6 66,543.4 67.2,543.3 87.3,551.6 
					243.4,548.4 				"/>
				<path class="st0" d="M156,356c-83.2,2.4-144.5,3.2-232.1,2.2c-26.3,24.4-58.8,48.8-97,73.1c3.9,0.4,7.8,0.8,11.7,1.2
					c61.1,6,122.7,8,184.7,7.2c23.3-0.3,46.6-1,70-1.9v-49h13.8v48.4c41.6-1.9,83.2-4.8,125-8.3c0.1,0,0.2,0,0.3,0
					c7.1-0.6,14.3-1.2,21.4-1.8c1-0.1,2-0.2,2.9-0.3C213.8,409.1,190.8,381.8,156,356z M-33.1,388.7h13.8V439h-13.8V388.7z"/>
				<path class="st0" d="M258.2,443.3c-8,1.1-16,2.1-24,3c-4.5,0.5-9,1.1-13.5,1.6c-5.4,0.6-10.8,1.2-16.3,1.8
					c-0.9,0.1-1.8,0.2-2.8,0.3c-4,0.4-8,0.8-12,1.2c-23.4,2.2-46.9,3.9-70.5,5.1c-9.9,0.5-19.7,0.9-29.7,1.2c-0.9,0-1.8,0.1-2.7,0.1
					c-4,0.1-8,0.2-12.1,0.3c-26.8,0.6-53.8,0.5-80.9-0.3c-4-0.1-8-0.3-12.1-0.4c-0.9,0-1.8-0.1-2.7-0.1c-9.8-0.4-19.7-0.9-29.6-1.4
					c-23.4-1.4-46.9-3.3-70.5-5.8c-4-0.4-8-0.9-12-1.3c-0.9-0.1-1.9-0.2-2.8-0.3c-5-0.6-9.9-1.2-14.9-1.8c-5-0.6-9.9-1.3-14.9-2
					c-2.5-0.3-5-0.7-7.6-1.1l-1.5-11.9c4.4,0.4,8.8,0.8,13.2,1.2c61.1,6,122.7,8,184.7,7.2c23.5-0.2,46.8-0.7,70-1.6v0.7h13.8v-1.2
					c42-1.8,83.6-4.8,125-8.6c0.1,0,0.2,0,0.3,0c7.1-0.6,14.3-1.2,21.4-1.8L258.2,443.3z"/>
				<path class="st0" d="M23.3,439.8c-62,0.8-123.7-1.2-184.7-7.2C-99,438-37.5,440.2,23.3,439.8z"/>
				<path class="st0" d="M107.1,437.6v1.2H93.3v-0.7c1.3,0,2.7-0.1,4-0.2c2.4-0.1,4.8-0.2,7.1-0.3
					C105.3,437.7,106.2,437.7,107.1,437.6z"/>
				<path class="st0" d="M253.8,427.2c-7.1,0.6-14.3,1.2-21.4,1.8c7.1-0.7,14.2-1.3,21.3-2.1L253.8,427.2z"/>
				<path class="st0" d="M-135.8,448.1v93.7l-26.9-1.5l-0.1-4l-2.8-92c5,0.7,9.9,1.3,14.9,2C-145.8,447-140.8,447.6-135.8,448.1z"/>
				<path class="st0" d="M-121,449.8c-0.3,15.4-1,54.4-1.3,71.2c0,0.4,0,0.9,0,1.3c0,3.2-0.1,5.4-0.1,6.2c0,6-13.4,13.4-13.4,13.4
					v-93.7c0.9,0.1,1.9,0.2,2.8,0.3C-129,448.9-125,449.4-121,449.8z"/>
				<g>
					<path class="st0" d="M-20.9,457.1v90.7h-26.9l-0.6-21l0-1.1l-2.1-70.1C-40.6,456.2-30.8,456.7-20.9,457.1z"/>
					<path class="st0" d="M-6.1,457.6c-0.3,16.3-1,52.3-1.2,68.7c0,0.5,0,0.9,0,1.4c0,3.4-0.1,5.8-0.1,6.7c0,6-13.4,13.4-13.4,13.4
						v-90.7c0.9,0,1.8,0.1,2.7,0.1C-14.2,457.3-10.2,457.5-6.1,457.6z"/>
					<path class="st0" d="M234.3,446.4l-2.7,88.1l-0.2,7.4l-26.9,1.5l0-0.3v-93.3c5.4-0.6,10.9-1.1,16.3-1.8
						C225.3,447.4,229.8,446.9,234.3,446.4z"/>
					<path class="st0" d="M204.5,449.7v93.7c0,0-13.4-7.5-13.4-13.4c0-1.1,0-4.7-0.1-9.9c0-0.6,0-1.3,0-2c-0.3-18.5-1-52.8-1.2-66.9
						c4-0.4,8-0.8,12-1.2C202.7,449.9,203.6,449.8,204.5,449.7z"/>
					<path class="st0" d="M119.2,456.2l-2,66.2l-0.1,2.3l-0.7,24.6H89.6l0-0.3v-91.5C99.5,457.1,109.3,456.7,119.2,456.2z"/>
					<path class="st0" d="M89.6,457.4v91.9c0,0-13.4-7.5-13.4-13.4c0-1.1,0-4.5-0.1-9.4c0-0.7,0-1.4,0-2.1
						c-0.3-18-0.9-51.9-1.2-66.5c4-0.1,8-0.2,12.1-0.3C87.7,457.5,88.7,457.5,89.6,457.4z"/>
				</g>
				<path class="st0" d="M3.7,544.8l21.7-0.8l-23.1,0.4l-0.5,0l-14.5,10.9l-0.4,0.3l-5.5,4.1l1.5,15.7L6,560.5l-3.4-14.9L3.7,544.8z
					 M244.8,550.1l-1.4-1.7l-156,3.3l-20.2-8.3l-1.2,0l1.8,1.3l-2.2,15.1l0,0H7.5l-22.4,16.4l39.7,0.6h0l60.3,0.9l-2.3-2.2
					l-11.2-10.8l12.8,10.8l-0.8-18.7l-9.8-8l11.3,8L244.8,550.1z"/>
				<path class="st0" d="M246.3,548.3l-1.5,26c-134.1,6.1-272,7.5-418-1.1l-4.5-23.3l3.6,0.1l-0.6,0.7l153.8,9.7l7.8-4.9l-5.5,4.1
					l1.5,15.7L6,560.5l-3.4-14.9l1.1-0.7l21.7-0.8l0.2,0l40.3-0.7l1.8,1.3l-2.2,15.1l0.8-15.7L6,546.3v13.4h59.7l0,0H7.5l-22.4,16.4
					l39.7,0.6h0l60.3,0.9l-2.3-2.2l-11.2-10.8l12.8,10.8l-0.8-18.7l-9.8-8l11.3,8l159.7-6.7l-1.4-1.7L246.3,548.3z"/>
			</g>
			<polygon class="st0" points="66.4,544.1 65.7,559.8 6,559.8 6,546.3 			"/>
			<g>
				<g>
					<polygon class="st0" points="6,560.5 -17.2,575.4 -18.7,559.8 -13.1,555.6 -12.7,555.3 1.8,544.4 2.2,544.1 2.3,544.4 
						2.6,545.6 					"/>
					<polygon class="st0" points="84.3,575.4 71.5,564.7 65.7,559.8 65.7,559.8 67.8,544.6 67.9,544.1 73.7,548.8 73.8,548.8 
						83.6,556.8 					"/>
				</g>
				<polygon class="st0" points="85.1,577.7 24.8,576.8 24.8,576.8 -14.9,576.2 7.5,559.8 66.4,559.8 71.5,564.7 82.8,575.4 				"/>
			</g>
			<g>
				<path class="st0" d="M-109.9,472.3c13.8,1.2,27.6,0.7,41.4,0v32.4c-13.8,2-27.6,0.2-41.4,0
					C-109.9,504.7-109.9,472.3-109.9,472.3z"/>
				<g>
					<rect x="-105.8" y="476.8" class="st0" width="14.3" height="23.4"/>
					<rect x="-87.3" y="477.6" class="st0" width="13.1" height="22.1"/>
				</g>
				<rect x="134.9" y="474.5" class="st0" width="41.4" height="32.4"/>
				<g>
					<rect x="139" y="479" class="st0" width="14.3" height="23.4"/>
					<rect x="157.5" y="479.9" class="st0" width="13.1" height="22.1"/>
				</g>
				<rect x="22.2" y="470.4" class="st0" width="31.1" height="54.6"/>
				<rect x="26.1" y="474.6" class="st0" width="23" height="46.2"/>
				<g>
					<rect x="-33.1" y="388.7" class="st0" width="13.8" height="50.4"/>
					<path class="st0" d="M107.1,388.8v48.4c-0.8,0-1.5,0.1-2.3,0.1c-2.6,0.1-5.2,0.2-7.8,0.3c-1.2,0.1-2.4,0.1-3.7,0.2v-49H107.1z"
						/>
					<path class="st0" d="M107.1,437.3v1.6H93.3v-1c1.2,0,2.4-0.1,3.7-0.2c2.6-0.1,5.2-0.2,7.8-0.3
						C105.5,437.3,106.3,437.3,107.1,437.3z"/>
				</g>
			</g>
			<g>
				<polygon class="st0" points="-26.3,438.5 -26.3,438.5 -26.3,438.5 				"/>
				<path class="st0" d="M-47.7,416.8c4.5-4.7,9.4-8.9,14.6-12.6v27.4L-47.7,416.8z"/>
				<path class="st0" d="M93.3,396.7v37.9c-20.7-16.5-72.7-40.3-112.7-3.2v-35.6C15.2,378.1,58.6,378.6,93.3,396.7z"/>
				<path class="st0" d="M104.8,437.4l-0.3,0.4l-0.9,1.1h-5.4c-0.3-0.3-0.5-0.5-0.8-0.8c-0.1-0.1-0.2-0.2-0.4-0.3
					C99.6,437.6,102.2,437.5,104.8,437.4z"/>
				<path class="st0" d="M120.9,416.8l-13.8,17.6v-29.3C112,408.6,116.6,412.5,120.9,416.8z"/>
			</g>
		</g>
		<g>
			<text transform="matrix(1 0 0 1 -19.5694 418.8066)" class="st0 st1 st2">S</text>
			<text transform="matrix(1 0 0 1 -3.196 413.0772)" class="st0 st1 st2">C</text>
			<text transform="matrix(1 0 0 1 14.9253 408.4605)" class="st0 st1 st2">H</text>
			<text transform="matrix(1 0 0 1 34.8222 406.0752)" class="st0 st1 st2">O</text>
			<text transform="matrix(1 0 0 1 54.8257 407.0596)" class="st0 st1 st2">O</text>
			<text transform="matrix(1 0 0 1 74.3633 411.3032)" class="st0 st1 st2">L</text>
			<path id="a" class="st0" d="M-19.5,419c59.8-23,86.7-8.9,118.7-0.6"/>
		</g>
	</g>
</g>
</svg>
