<?xml version="1.0" encoding="utf-8"?>
<!-- Generator: Adobe Illustrator 22.1.0, SVG Export Plug-In . SVG Version: 6.00 Build 0)  -->
<svg version="1.1" id="Layer_1" xmlns="http://www.w3.org/2000/svg" xmlns:xlink="http://www.w3.org/1999/xlink" x="0px" y="0px"
	 viewBox="0 0 256 256" style="enable-background:new 0 0 256 256;" xml:space="preserve">
<rect style="fill:#EBEBEB;" width="256" height="256"/>
<path style="opacity:0.7;fill:#FFFFFF;enable-background:new    ;" d="M230.2,98.7c0,12-9.8,21.8-21.8,21.8h-91.6
	c-1.2,0-2.4-0.1-3.6-0.3C102.9,118.5,95,109.5,95,98.7c0-1.8,0.2-3.5,0.6-5.2H68.2c-0.7,0-1.4-0.1-2.1-0.2c-6-1-10.7-6.3-10.7-12.6
	c0-7,5.7-12.8,12.8-12.8c3.4,0,6.5,1.3,8.7,3.5c0-0.4-0.1-0.8-0.1-1.2c0-7,5.7-12.8,12.8-12.8c3.1,0,6,1.1,8.2,3
	c3.2-4.8,8.6-8,14.8-8c9.8,0,17.8,8,17.8,17.8c0,0.3,0,0.7,0,1c0.9,0.8,1.7,1.7,2.4,2.8c2.8-8.7,11-15,20.7-15
	c5.3,0,10.2,1.9,14,5.1c5.4-8.2,14.7-13.6,25.3-13.6c16.7,0,30.3,13.6,30.3,30.3c0,0.6,0,1.1,0,1.7
	C227.3,86.5,230.2,92.3,230.2,98.7z"/>
<path style="opacity:0.9;fill:#FFFFFF;enable-background:new    ;" d="M99.1,162.3c0,7-5.7,12.8-12.8,12.8H32.7
	c-0.7,0-1.4-0.1-2.1-0.2c-6-1-10.7-6.3-10.7-12.6c0-7,5.7-12.8,12.8-12.8c3.4,0,6.5,1.3,8.7,3.5c0-0.4-0.1-0.8-0.1-1.2
	c0-7,5.7-12.8,12.8-12.8c3.1,0,6,1.1,8.2,3c3.2-4.8,8.6-8,14.8-8c9.8,0,17.8,8,17.8,17.8c0,0.3,0,0.7,0,1
	C97.4,155.1,99.1,158.5,99.1,162.3z"/>
<path style="fill:#FFFFFF;" d="M32.6,93.5h-2.1v-0.2C31.2,93.4,31.9,93.5,32.6,93.5z"/>
</svg>
