<?xml version="1.0" encoding="utf-8"?>
<!-- Generator: Adobe Illustrator 22.1.0, SVG Export Plug-In . SVG Version: 6.00 Build 0)  -->
<svg version="1.1" id="Layer_1" xmlns="http://www.w3.org/2000/svg" xmlns:xlink="http://www.w3.org/1999/xlink" x="0px" y="0px"
	 viewBox="0 0 420.8 194" style="enable-background:new 0 0 420.8 194;" xml:space="preserve">
<style type="text/css">
	.st0{fill:none;stroke:#000000;stroke-miterlimit:10;}
</style>
<path class="st0" d="M420.8,170.2c-8.3,3-21.1,1.5-30.7,3.2c-5.9,1.1-12,2.4-18.1,2.4c-10.5,0-21.2,0.5-31.9,0.5
	c-4.2,0-9-1.4-12.7-0.8c-1.8,0.3-4.4,2-7.1,2.4c-2.7,0.3-5.2,0.3-7.9-0.3c-1.2-0.3-4.4-2.3-5.5-1.9c-0.7,0.3-0.9,2.7-1.6,3.4
	c-3.6,4.1-13.9,6.6-19.3,7.7c-17.6,3.3-36.3,4.7-54.4,6.3c-43.6,3.9-83.9-7.5-124.5-20.1c-20.4-6.3-44-9.7-61.8-19.6
	c-3.9-2.1-9.7-5-12.2-8.2c-3.8-5,1.9-8.3,6.6-10.6c6.3-3,13.6-2.4,20.9-2.4c6.2,0,12.6-3,18.8-4.5c3.3-0.8,11.4-1.7,9.5-5.6
	c-1.5-3.2-8-2.6-11.6-3.2c-4.4-0.7-6.6-1.5-10-4c-11.6-8.3-19.7-17.5-24.2-30.8c-1-3,0.2-6.2-0.7-8.9c-0.7-2-3.3-3.2-5.3-4.8
	c-6.3-4.9-10.3-11-14.3-18c-3.5-6.1-7.3-10.2-9.8-16.1c-1.3-3.1-3.3-6.4-4.5-9.8c-0.9-2.7-0.1-5.6-0.8-7.1c-0.6-1.5-4.2-2.9-5.3-4.2
	C0.8,13.7,0,11.7,0,8.9c0-6.3,5-5.7,10.6-5.6c7.2,0.2,13-0.3,20-0.3c5.6,0,10.6-2.5,17-2.1c4.5,0.3,8.4,1.4,12.7,2.4
	c4.2,0.9,5.9-0.3,9.8-1.3c7.8-2.1,18.3-3,26.4-0.9c5.8,1.5,10.7,5.6,14.5,6.7c2.4,0.7,3.3-0.1,5.8-0.8c4.9-1.3,10.4-0.6,15.3-1.9
	c17.6-4.4,37-1.4,53.9,2.4c16.3,3.6,29,10.2,41.8,20.1c10.9,8.5,19.4,22.2,26.2,33c3.9,6.3,6.1,12.6,7.9,19.8
	c0.9,3.8,1.3,8.1,2.9,11.6c1.2,2.7,2.7,3,4.2,4.5c2.3,2.2,3.7,3.5,7.8,4.9c2.6,0.9,5.6,2.1,7.8,3.8c3.1,2.4,6.2,8.1,8.7,11.6
	c2.3,3.2,1.8,7.4,1.3,11.6c6.4,4,16.9,7.4,25.1,9.8c6.1,1.8,10.7,8,16.9,5.6c6.7-2.6,12.3-7.8,19.8-9.6c5.8-1.4,10.9-4.5,16.7-5.2
	c7.2-0.9,13.9,1.6,20.9,2.1c3.3,0.2,9.9,0.2,12.7,2.1c3.6,2.5,0.2,2.8-3.2,3.2c-9.9,0.9-17.1-1-26.9,2.9
	c-9.2,3.7-18.4,7.3-26.8,11.4c-4.3,2.1-5.7,2.7-6.3,6.9c-0.7,4.5,0.9,7.1,5.7,7.1c9.4,0,19.2,1.6,28.9,0.4c8-1,16-2.7,24.3-2.2
	c4.9,0.3,14.6,0.2,17.2,3.7C420.5,167.8,420.9,169.1,420.8,170.2"/>
<path class="st0" d="M374,171.3c-11.4,1.1-22.4,1.5-34.1,0.8c-1.9-0.1-6.2,0.2-7.7-0.8c-2.6-1.8,1.2-2.3,0.3-4.5
	c-1.8-4.4-6.2,4.1-8.2,5.3c-8.4,5.1-19-2.2-27.8-4.8c-4.9-1.4-31.6-3.8-31.5,2.1c0.1,4.3,15.3,0.1,18.5,0c6.3-0.1,16.4,2.4,20.1,5.8
	c-3,3.6-14.9,6.8-19.6,7.7c-6.2,1.2-11.4,2.4-16.9,3.2c-13.3,2-25.7,1.8-38.9,3.7c-16.3,2.4-35.7-0.1-51.8-2.6
	c-20.3-3.2-41.9-9-61.3-15.6c-23.2-7.8-56.7-12.4-75.1-26.7c-1.1-0.9-1.6-1.5-2.9-2.1c3.1-7.2,14.9-5.6,23.5-5.6
	c-1.4,8.9,2.3,14.4,10.3,16.4c10.9,2.6,26.8,5.1,38.6,2.9c5.6-1,7.8-2.9,12.4,0.5c3.8,2.9,6.1,4.9,10,7.1
	c9.7,5.6,19.9,8.8,32.5,11.9c14,3.4,28.5,6.4,43.3,6.9c11.8,0.3,25.4-3.7,34.1-7.7c12.5-5.7,25.3-14.3,35.7-23.5
	c4.3-3.8,8.5-8.5,11.6-13.2c3.3-5.1,3.1-5.5,9.3-3.2c4.9,1.8,10.1,4,15.6,5.8c4.4,1.4,9.2,2,11.6,5c1.2,1.6-0.7,3.1,2.6,3.7
	c1.6,0.3,4.7-0.6,6.6-1.1c5.2-1.3,8.9-5.2,14.3-7.7c4.8-2.2,24-10.5,27.8-6.9c-6.7,6.7-23.6,10.5-32.5,14.8
	c-5.2,2.5-3.9,3.1-4.5,8.2c-0.4,3.5-2.5,6.6-4,9.3c1.6,1.7,11.6,2.4,15.6,2.9C356.9,170,370.8,168.1,374,171.3"/>
<path class="st0" d="M281.8,175.5c-1.2,0.8-13.6,4.5-12.2,0.8C270.1,174.9,283.1,171.5,281.8,175.5"/>
<path class="st0" d="M290.2,126.6c-4.1,10.3-11,18.8-19.8,25.4c-11.2,8.3-27.2,19.3-39.6,23c-25.4,7.5-57.6,1.5-82.5-8.2
	c-10.7-4.1-17.3-8.3-25.6-14.5c-8-6-17.9-11.6-23.8-19.3c-1.9-2.5-5.7-8.5-5.8-12.2c-0.1-3.8,3.6-5.3,5.8-8.7
	c3.1-4.8,4.6-10.3,6.9-15.6c2.2-5.1,5.5-8.8,7.7-13.5c4.4-9.5,4.4-21.5,6.6-31.5c2.6-11.8-3.4-20.5-4.8-31.5c-0.7-5.8,0-8,5.3-8.7
	c5.9-0.8,12.6-1.7,18.8-2.4c13.5-1.6,26.9-1.1,39.6,1.9c24,5.6,42.9,13.3,56.7,31.7c7.5,10,16.7,21.3,20,31.2
	c1.6,4.7,2.2,9.7,3.4,15.3c1,4.9,4.5,8.8,5,13.7c0.7,6-1.6,11.7-1.6,17.7c3.3-2.1,5.3-11.1,6.6-16.1c0.9,0.9,1.9,3.5,2.9,3.7
	c1.7,0.4,1.5-1.9,3.2-2.4c2.8-0.8,7.4,2.5,8.7,4c2.1,2.3,2.6,6.2,4.5,8.5C290.6,120.7,292.2,121.8,290.2,126.6"/>
<path class="st0" d="M277.3,129.5c-0.9,1.2-3.1,2.8-3.7,0.8c-0.3-1,1.5-6.5,2.1-7.4C280,117.1,277.9,127.2,277.3,129.5"/>
<path class="st0" d="M259.8,175c-1.4,1.7-5.7,6.5-4.5,1.1C255.8,173.8,260.8,170.7,259.8,175"/>
<path class="st0" d="M269.3,130.3c-1.5,2.6-2.1,5.5-5,6.1c0.1-3.3,4.8-22.1,6.6-22.5C275.9,113,270,128,269.3,130.3"/>
<path class="st0" d="M251.4,148.5c-3,2.4-11,0.6-15.3,0c-7.3-1-14.4-4.1-21.4-6.3c-8.3-2.6-16.8-7.3-24.6-11.9
	c-17-10.2-29.3-23.3-47.3-29.9c-4.4-1.6-8-2.3-13-1.8c-4,0.4-10.8,3.4-14.3,2.6c-6.6-1.5,3.4-6.1,7-6.1c5.4,0,10.4-1.4,15.7-0.3
	c11.7,2.4,18.6,8.2,27.8,14.5c9,6.2,15,10.2,23.8,15.9c7.2,4.7,16.1,9.1,24.1,12.2c6.8,2.6,13.6,4.9,20.1,6.6
	C237.1,144.9,252.5,145.7,251.4,148.5"/>
<path class="st0" d="M251.4,134c-8,4.8-27.5-5.1-35.2-9c-9.6-4.8-17.2-10.8-25.9-19.8c-15.8-16.4-31-39.3-55-37.3
	c-2.9,0.3-14.6,4.2-9.5-1.6c2.4-2.8,10.4-2.8,14.3-2.6c11,0.6,19.4,6.7,26.2,11.9c8.6,6.5,17.2,17.8,26.4,26.7
	c8.3,8,12.9,11.9,21.4,16.7c5.2,2.9,11.3,5.6,17.7,7.9C235.2,128.1,252.5,131.1,251.4,134"/>
<path class="st0" d="M238.1,162.8c-3.1,2.9-9.8,2-14.8,1.9c-6.9-0.2-13.8-0.2-20.4-1.3c-13.1-2.3-24.8-9.6-35.7-14.3
	c-11.2-4.8-23-8.3-32-14c-8.7-5.6-15.9-12-26.7-13c-3.1-0.3-11.2-1.3-5.8-4.5c3.5-2.1,12.8,1.4,16.1,2.6c8.5,3.2,14.8,9.6,21.9,13.5
	c12.2,6.6,27.1,10.8,39.4,16.9c10.6,5.3,20.9,8.6,33.8,9.8c7.9,0.7,16.7,1.3,24.3,0C238.7,161.3,238.6,161.9,238.1,162.8"/>
<path class="st0" d="M248.5,89.8c-7.3,3-23.3-8.3-28-11.1c-3.2-1.9-7-4.1-9.8-6.1c-3.7-2.7-9.4-8.5-13.7-12.2
	c-6.9-5.8-16.1-11.5-24.1-14.3c-9.5-3.3-21.9-3.5-31.7-1.1c-3.2,0.8-12.3,6.2-14,4.5c-2.7-2.7,5.4-6,7.9-6.9
	c9.4-3.1,22-4.3,32.2-2.1c9.4,2,18.1,6.6,25.4,12.2c7.2,5.5,14.9,13.1,23,18c4.5,2.7,9,5.6,14,8.2c3.4,1.7,18,6.2,19.6,9.8
	C249,89.1,248.7,89.6,248.5,89.8"/>
<path class="st0" d="M217.5,46.2c-8.5-0.9-15.8-10.6-24.1-14.3c-11.1-5-20.7-8.6-33.3-10c-5.3-0.6-14.4-2.5-20-0.7
	c-3.7,1.2-14.7,5.2-17,4.4c-5.4-2,3.5-5.1,5.6-5.8c4.4-1.5,9.8-2.6,14.5-2.9c14-0.9,29.4,2.7,41.5,7.1c12.3,4.5,20.1,11,29.6,18.5
	C216.2,43.9,217.9,45.1,217.5,46.2"/>
<path class="st0" d="M166.5,158.3c-10.5,0.1-24.5-6-33.3-10.6c-4-2.1-7.1-3.6-10.6-6.1c-0.4-0.3-4.4-4.2-1.5-4.2
	c2.6,0,5.7,2,7.3,2.9c4.8,2.6,8.3,5,13.7,7.4C144.7,148.9,166.8,155.4,166.5,158.3"/>
<path class="st0" d="M112.1,151.2c-2.9,2.2-7.8,1.8-12.2,1.6c-9-0.5-18.9-1.2-27.5-3.2c-9.6-2.2-11.5-10.6-1.8-16.4
	c3.5-2.1,8.8-2.3,11.1-4.8c0.1,0.1-0.1,0.6,0,0.8c0.8-0.5,5.7-0.8,7.7-0.5c3.6,0.4,3.6,3.2,6.1,6.3c4.9,6.4,11.2,10.7,17.2,15.3
	C112.4,150.5,112.1,150.8,112.1,151.2"/>
<path class="st0" d="M109.7,81.4c-2.5,4.5-5.6,7.4-7.7,12.4c-2.4,5.8-3.9,12.2-7.1,16.9c-4.6,6.6-17.5,5.6-24.3,1.3
	c-8.9-5.7-18.2-14.3-21.7-23c-1.8-4.6-4-11.2-1.3-15.3c2.6-4.1,7.9-5.7,10.3-10C61,58,62,51.3,63.4,44.9c1.2-5.4,0.6-12,2.2-17.1
	c1.7-5.2-0.5-15.9,2.5-20C69.8,5.7,78,5.3,81.4,5c9-0.8,22.8,0.9,27.5,6.1c2.6,2.9,1.8,8,2.4,12.2c0.6,4.1,3.3,8.1,4.2,12.2
	c1.6,7.1,0.1,12.6-1.3,19c-0.7,3.4-0.8,8-0.8,11.5C113.4,71,110.9,76.4,109.7,81.4"/>
<path class="st0" d="M105.5,76.9c-4.2,0.8-7.6-4.3-9.8-6.1c-4.9-4.1-7.9-9.9-12.4-14.8c-3.7-4-6.4-4.4-10.6-5.3
	c-4.5-0.9-3.6-4.7,1.6-5c6.4-0.4,13.4,9,17.2,14.3C94,63.6,106.9,73.9,105.5,76.9"/>
<path class="st0" d="M113.1,49.1c-10.3,2.4-16.1-9.8-23.8-13.7c-4-2.1-6.8-2.3-11.6-1.3c-5.6,1.2-4.5-2.7-0.5-4.5
	c6.3-2.7,13,0.6,17.4,4c4.2,3.2,7.2,8.1,11.6,11.1C108.1,45.9,113.9,46.6,113.1,49.1"/>
<path class="st0" d="M93.3,101.2c-8,2.7-15.2-9.8-19-15.1c-3.6-5-8-11-10.8-14.8c-3-4.1,1.8-5.3,4.8-2.4c6.2,6.2,9.6,16.1,15.6,22.7
	C86,94.2,94.1,99.7,93.3,101.2"/>
<path class="st0" d="M78.8,100.2c-8.4,0.9-18.2-8.5-21.1-14.3c-1.5-3.1-2.8-11.7,1.6-6.1c3.4,4.4,4.3,8.2,8.2,11.6
	C69.9,93.6,78.9,98.3,78.8,100.2"/>
<path class="st0" d="M100.7,21.9c-4.4-0.1-9.7-4-14.5-4c-3.6,0-10.6,3.7-12.4,2.1c-3.9-3.4,4.2-5.4,7.4-5.8
	c5.1-0.6,8.4,0.2,12.7,1.9C96.7,17.2,101.1,18.8,100.7,21.9"/>
<path class="st0" d="M55.8,57.6c-2.5,7.5-9.2,15.2-17.7,9c-4.1-3-7.3-8.3-10-13.2c-3.9-7-1.1-8.5,2.6-14.5c2.5-4,4.7-10.6,5.5-16.4
	c0.7-4.3-1-10.2,0-13.5c1.7-5.3,23.7-4.3,26.7,0.5c1.7,2.8,0.1,9.4-0.3,12.7c-0.6,5.1-0.7,10-1.3,15.1
	C60.4,44.4,58.6,51.3,55.8,57.6"/>
<path class="st0" d="M50.2,57.3c-4.9-0.2-16.5-7.7-16.1-11.9c0.5-5.4,5.7,1.9,7.1,3.2C44.5,51.6,50.4,54.2,50.2,57.3"/>
<path class="st0" d="M53.4,46.2c-3-0.1-14.9-7.2-14-10.8c0.8-3.5,4.9,1,5.8,1.9C47.7,39.4,53.3,42.7,53.4,46.2"/>
<path class="st0" d="M56,32.5c-2.5,0-18.7-5.5-14.8-8.2C45,21.7,55.8,29,56,32.5"/>
<path class="st0" d="M57.1,19.3c-3.2,0.3-8.3-1.6-12.4-1.6c-3.6,0-8.3-0.8-3.7-4C44.3,11.4,59,15,57.1,19.3"/>
<path class="st0" d="M28.8,32.2c-0.9,2.2-4.2,10.2-6.9,10.3c-3.7,0.2-4.6-6.1-5.5-8.7c-1.6-4.4-4.6-7.3-3.2-12.2
	c1.1-3.8,4.2-9.9,6.9-12.2c1.6-1.3,3.3-2,6.3-2.1c4-0.1,4.6,2,5.3,6.3C32.6,19.7,31.1,27.6,28.8,32.2"/>
<path class="st0" d="M28,19.8c-4.3-0.5-11-3.1-9.3-7.1C22.2,13.6,29.9,16.6,28,19.8"/>
<path class="st0" d="M23.3,25.9c-2.7,0.1-10.1-2-5.8-4.5C19.9,19.9,24.1,23.1,23.3,25.9"/>
<path class="st0" d="M11.6,12.9c-0.7,4.1-5.9,2-6.3-1.3C4.6,6.4,10.2,7,13.5,8.4C12.9,9.8,12.3,11.6,11.6,12.9"/>
</svg>
