<?xml version="1.0" encoding="UTF-8"?>
<svg enable-background="new 0 0 420.805 193.972" viewBox="0 0 420.805 193.972" xmlns="http://www.w3.org/2000/svg">
 <path d="m420.786,170.205c-8.341,3.037-21.141,1.475-30.66,3.173-5.92,1.055-11.989,2.379-18.104,2.379-10.517,0-21.202.528-31.852.528-4.165,0-8.964-1.395-12.688-.793-1.845.298-4.442,2.049-7.136,2.379-2.679.329-5.249.344-7.929-.264-1.241-.281-4.414-2.297-5.55-1.851-.658.259-.927,2.692-1.587,3.437-3.594,4.054-13.888,6.636-19.295,7.667-17.56,3.347-36.278,4.733-54.448,6.345-43.556,3.86-83.873-7.469-124.492-20.092-20.392-6.337-44.033-9.737-61.849-19.563-3.892-2.146-9.714-5.027-12.158-8.195-3.821-4.952 1.866-8.319 6.608-10.574 6.254-2.975 13.597-2.395 20.88-2.379 6.179.014 12.558-2.986 18.766-4.493 3.329-.808 11.379-1.699 9.516-5.552-1.53-3.161-7.962-2.598-11.63-3.173-4.43-.694-6.551-1.472-10.044-3.965-11.59-8.273-19.739-17.452-24.185-30.797-.992-2.98.22-6.166-.661-8.856-.667-2.04-3.298-3.227-5.286-4.759-6.343-4.886-10.262-11.039-14.272-17.976-3.515-6.077-7.27-10.236-9.78-16.126-1.301-3.053-3.314-6.442-4.494-9.78-.938-2.658-.145-5.557-.792-7.138-.628-1.534-4.164-2.924-5.287-4.229-1.591-1.853-2.391-3.816-2.377-6.609 .031-6.317 4.979-5.724 10.572-5.552 7.169.222 12.98-.264 19.956-.264 5.557,0 10.608-2.485 17.048-2.115 4.548.261 8.356,1.443 12.687,2.379 4.161.9 5.875-.289 9.78-1.321 7.789-2.059 18.272-2.968 26.432-.925 5.802,1.453 10.701,5.616 14.537,6.741 2.365.694 3.304-.143 5.815-.793 4.896-1.267 10.362-.608 15.33-1.851 17.6-4.402 36.997-1.417 53.92,2.378 16.251,3.645 29.003,10.166 41.762,20.092 10.865,8.453 19.414,22.167 26.167,33.044 3.933,6.332 6.144,12.554 7.929,19.827 .939,3.828 1.32,8.072 2.907,11.631 1.217,2.728 2.669,3.045 4.229,4.494 2.324,2.159 3.657,3.507 7.798,4.891 2.562.856 5.61,2.126 7.797,3.832 3.121,2.434 6.21,8.083 8.723,11.633 2.287,3.232 1.837,7.403 1.321,11.631 6.358,3.962 16.9,7.377 25.109,9.781 6.132,1.798 10.673,7.96 16.916,5.552 6.712-2.589 12.346-7.784 19.824-9.649 5.786-1.443 10.927-4.454 16.651-5.154 7.222-.884 13.942,1.617 20.881,2.114 3.317.238 9.89.174 12.688,2.115 3.628,2.519.204,2.848-3.173,3.172-9.881.948-17.097-.986-26.853,2.918-9.175,3.673-18.364,7.283-26.804,11.357-4.254,2.055-5.658,2.714-6.343,6.874-.737,4.478.856,7.138 5.683,7.138 9.444,0 19.231,1.607 28.942.395 8.046-1.003 15.973-2.742 24.317-2.246 4.85.288 14.584.232 17.18,3.702 .739.985 1.172,2.301 1.058,3.435" fill-rule="evenodd"/>
 <path d="m374.003,171.263c-11.37,1.085-22.434,1.454-34.096.791-1.866-.106-6.176.244-7.665-.791-2.62-1.821 1.18-2.277.263-4.494-1.813-4.387-6.237,4.091-8.192,5.285-8.36,5.109-19.02-2.216-27.754-4.758-4.917-1.431-31.644-3.842-31.452,2.115 .139,4.334 15.316.074 18.501,0 6.325-.148 16.442,2.43 20.089,5.815-3.033,3.57-14.851,6.773-19.56,7.666-6.198,1.174-11.412,2.351-16.916,3.173-13.26,1.976-25.663,1.768-38.854,3.701-16.255,2.382-35.662-.073-51.806-2.644-20.267-3.225-41.852-9.031-61.321-15.597-23.205-7.825-56.719-12.425-75.064-26.7-1.112-.865-1.599-1.49-2.908-2.115 3.106-7.17 14.932-5.551 23.523-5.551-1.396,8.912 2.263,14.442 10.309,16.39 10.919,2.641 26.825,5.059 38.59,2.909 5.585-1.022 7.821-2.945 12.422.527 3.802,2.868 6.136,4.886 10.043,7.138 9.696,5.586 19.909,8.844 32.511,11.896 13.977,3.386 28.535,6.439 43.348,6.872 11.827.346 25.414-3.721 34.096-7.666 12.475-5.671 25.319-14.327 35.683-23.527 4.308-3.823 8.525-8.465 11.629-13.218 3.34-5.112 3.111-5.494 9.252-3.172 4.89,1.849 10.056,4.03 15.594,5.815 4.374,1.409 9.215,1.986 11.631,5.022 1.237,1.558-.746,3.063 2.643,3.702 1.574.298 4.66-.56 6.606-1.059 5.156-1.322 8.889-5.23 14.274-7.666 4.776-2.161 24.011-10.519 27.753-6.872-6.734,6.68-23.568,10.466-32.511,14.803-5.237,2.54-3.921,3.054-4.494,8.195-.395,3.538-2.528,6.642-3.964,9.252 1.633,1.724 11.642,2.418 15.595,2.908 5.064.633 19.011-1.298 22.202,1.855" fill="#a2b373" fill-rule="evenodd"/>
 <path d="m281.758,175.492c-1.232.849-13.553,4.487-12.159.793 .507-1.346 13.493-4.743 12.159-.793" fill-rule="evenodd"/>
 <path d="m290.216,126.587c-4.074,10.288-10.952,18.809-19.824,25.376-11.173,8.271-27.159,19.319-39.646,22.999-25.437,7.499-57.561,1.461-82.466-8.193-10.663-4.134-17.308-8.294-25.638-14.541-7.97-5.976-17.93-11.583-23.789-19.297-1.883-2.479-5.695-8.484-5.814-12.16-.124-3.818 3.639-5.314 5.814-8.725 3.075-4.815 4.571-10.274 6.873-15.597 2.192-5.069 5.485-8.773 7.665-13.482 4.383-9.465 4.398-21.545 6.608-31.458 2.625-11.771-3.436-20.471-4.758-31.458-.699-5.801-.023-8.033 5.286-8.723 5.871-.763 12.586-1.654 18.767-2.379 13.473-1.581 26.892-1.148 39.646,1.85 23.979,5.638 42.89,13.317 56.696,31.723 7.484,9.978 16.66,21.25 19.955,31.193 1.563,4.715 2.248,9.738 3.436,15.333 1.041,4.902 4.454,8.769 5.021,13.747 .682,5.964-1.584,11.676-1.584,17.711 3.32-2.111 5.335-11.063 6.606-16.125 .878.88 1.901,3.487 2.907,3.701 1.744.368 1.492-1.932 3.172-2.38 2.841-.757 7.398,2.514 8.723,3.966 2.12,2.324 2.566,6.189 4.493,8.459 2.21,2.604 3.828,3.697 1.851,8.46" fill="#c1b69f" fill-rule="evenodd"/>
 <path d="m277.265,129.496c-.872,1.233-3.066,2.834-3.7.791-.308-.989 1.466-6.538 2.114-7.401 4.341-5.785 2.219,4.273 1.586,6.61" fill-rule="evenodd"/>
 <path d="m259.82 174.96c-1.358 1.695-5.671 6.471-4.492 1.059 0.494-2.266 5.499-5.333 4.492-1.059" fill-rule="evenodd"/>
 <path d="m269.335,130.287c-1.455,2.584-2.097,5.545-5.022,6.08 .1-3.277 4.8-22.145 6.609-22.47 4.952-.887-.904,14.141-1.587,16.39" fill-rule="evenodd"/>
 <path d="m251.361,148.528c-3.043,2.37-10.974.58-15.329,0-7.254-.966-14.351-4.139-21.41-6.345-8.298-2.594-16.809-7.257-24.582-11.896-17.005-10.15-29.348-23.293-47.312-29.872-4.439-1.625-7.956-2.29-12.951-1.85-3.989.351-10.849,3.431-14.273,2.644-6.579-1.515 3.391-6.08 7.004-6.08 5.423,0 10.385-1.384 15.727-.265 11.669,2.445 18.593,8.196 27.752,14.54 8.982,6.221 15.046,10.158 23.788,15.86 7.166,4.674 16.08,9.053 24.053,12.161 6.793,2.649 13.606,4.93 20.088,6.608 3.168.821 18.612,1.674 17.445,4.495" fill-rule="evenodd"/>
 <path d="m251.361,133.988c-7.989,4.793-27.468-5.142-35.153-8.986-9.625-4.816-17.197-10.794-25.903-19.827-15.794-16.389-30.968-39.34-54.977-37.274-2.93.252-14.598,4.22-9.515-1.586 2.427-2.773 10.428-2.842 14.272-2.643 11.039.569 19.359,6.719 26.167,11.896 8.596,6.536 17.178,17.797 26.431,26.699 8.298,7.982 12.939,11.94 21.409,16.654 5.178,2.883 11.259,5.593 17.71,7.931 3.383,1.224 20.717,4.211 19.559,7.136" fill-rule="evenodd"/>
 <path d="m238.146,162.802c-3.06,2.915-9.772,1.998-14.801,1.851-6.942-.204-13.778-.171-20.353-1.321-13.094-2.291-24.842-9.598-35.682-14.275-11.212-4.839-23.012-8.255-31.982-14.011-8.671-5.563-15.94-11.963-26.696-12.953-3.101-.286-11.175-1.276-5.815-4.494 3.547-2.129 12.834,1.394 16.123,2.645 8.462,3.216 14.784,9.607 21.939,13.481 12.229,6.621 27.089,10.781 39.382,16.918 10.615,5.3 20.859,8.638 33.832,9.782 7.946.7 16.728,1.26 24.317,0 .263.872.185,1.462-.264,2.377" fill-rule="evenodd"/>
 <path d="m248.454,89.841c-7.315,2.989-23.285-8.342-28.018-11.103-3.226-1.882-7.007-4.063-9.779-6.08-3.732-2.716-9.372-8.513-13.744-12.161-6.949-5.797-16.085-11.509-24.053-14.274-9.454-3.282-21.902-3.515-31.717-1.058-3.157.791-12.276,6.226-14.009,4.494-2.749-2.747 5.367-6.019 7.929-6.873 9.37-3.124 21.985-4.313 32.247-2.115 9.436,2.022 18.102,6.633 25.374,12.161 7.241,5.503 14.875,13.103 22.996,17.976 4.518,2.71 8.978,5.584 14.009,8.195 3.358,1.744 18.008,6.215 19.559,9.781-.238.315-.506.776-.794,1.057" fill-rule="evenodd"/>
 <path d="m217.529,46.223c-8.48-.942-15.808-10.58-24.052-14.275-11.052-4.955-20.714-8.61-33.305-10.046-5.339-.609-14.395-2.517-19.956-.661-3.694,1.233-14.727,5.215-17.048,4.362-5.366-1.971 3.527-5.113 5.551-5.816 4.353-1.509 9.811-2.607 14.538-2.908 14.047-.893 29.432,2.73 41.497,7.138 12.258,4.48 20.066,11.035 29.604,18.505 1.801,1.411 3.546,2.56 3.171,3.701" fill-rule="evenodd"/>
 <path d="m166.517,158.308c-10.519.146-24.469-5.962-33.303-10.573-4.012-2.095-7.116-3.555-10.573-6.081-.395-.288-4.417-4.229-1.454-4.229 2.594,0 5.672,2.049 7.269,2.907 4.815,2.59 8.342,4.966 13.744,7.402 2.544,1.147 24.614,7.659 24.317,10.574" fill-rule="evenodd"/>
 <path d="m112.068,151.171c-2.94,2.174-7.777,1.83-12.159,1.587-9.048-.504-18.948-1.194-27.488-3.173-9.643-2.233-11.546-10.644-1.85-16.391 3.549-2.104 8.849-2.302 11.102-4.758 .123.112-.083.641 0,.793 .833-.496 5.657-.783 7.665-.529 3.551.447 3.648,3.207 6.079,6.345 4.944,6.379 11.172,10.698 17.181,15.332-.176.113-.452.449-.53.794" fill="#94944a" fill-rule="evenodd"/>
 <path d="m109.69,81.382c-2.494,4.539-5.56,7.405-7.666,12.425-2.421,5.769-3.872,12.209-7.136,16.918-4.579,6.603-17.509,5.639-24.317,1.321-8.927-5.659-18.162-14.257-21.673-22.999-1.85-4.605-4.003-11.207-1.322-15.333 2.647-4.072 7.927-5.676 10.309-10.045 3.083-5.658 4.159-12.403 5.55-18.77 1.175-5.378.552-11.964 2.247-17.051 1.741-5.227-.489-15.919 2.51-19.958 1.642-2.21 9.844-2.599 13.216-2.908 9.015-.827 22.782.859 27.489,6.08 2.631,2.918 1.8,7.96 2.379,12.161 .558,4.05 3.31,8.086 4.229,12.16 1.612,7.142.086,12.56-1.322,19.034-.743,3.413-.793,7.971-.793,11.499 0,5.11-2.49,10.464-3.7,15.466" fill="#a3916c" fill-rule="evenodd"/>
 <path d="m105.461,76.888c-4.158.833-7.581-4.251-9.78-6.081-4.886-4.063-7.916-9.926-12.422-14.803-3.665-3.967-6.358-4.415-10.573-5.287-4.528-.937-3.563-4.698 1.586-5.023 6.382-.403 13.443,9.002 17.18,14.275 2.561,3.613 15.43,13.973 14.009,16.919" fill-rule="evenodd"/>
 <path d="m113.125,49.13c-10.284,2.398-16.136-9.782-23.788-13.746-3.992-2.068-6.792-2.328-11.63-1.322-5.614,1.167-4.545-2.749-.528-4.494 6.26-2.72 12.983.581 17.444,3.964 4.183,3.173 7.227,8.083 11.63,11.104 1.81,1.242 7.604,1.931 6.872,4.494" fill-rule="evenodd"/>
 <path d="m93.302 101.21c-8.042 2.693-15.19-9.768-19.03-15.068-3.646-5.032-8.039-11.02-10.837-14.804-2.998-4.053 1.773-5.348 4.757-2.379 6.191 6.157 9.58 16.053 15.595 22.735 2.233 2.479 10.359 7.978 9.515 9.516" fill-rule="evenodd"/>
 <path d="m78.765,100.152c-8.372.879-18.248-8.5-21.145-14.276-1.534-3.058-2.792-11.671 1.585-6.081 3.43,4.381 4.263,8.206 8.193,11.631 2.476,2.157 11.541,6.9 11.367,8.726" fill-rule="evenodd"/>
 <path d="m100.703,21.902c-4.424-.054-9.714-3.955-14.537-3.965-3.602-.008-10.576,3.698-12.423,2.114-3.925-3.364 4.194-5.425 7.401-5.815 5.107-.622 8.408.227 12.687,1.851 2.905,1.101 7.235,2.753 6.872,5.815" fill-rule="evenodd"/>
 <path d="m55.77,57.59c-2.486,7.467-9.214,15.212-17.709,8.988-4.054-2.97-7.28-8.337-10.044-13.218-3.94-6.958-1.142-8.516 2.644-14.539 2.53-4.027 4.675-10.647 5.55-16.39 .657-4.305-1.042-10.179 0-13.482 1.667-5.284 23.687-4.312 26.695.528 1.744,2.805.113,9.404-.264,12.69-.584,5.096-.707,10.05-1.322,15.068-.881,7.186-2.702,14.085-5.55,20.355" fill="#c1b69f" fill-rule="evenodd"/>
 <path d="m50.22,57.325c-4.892-.212-16.536-7.695-16.124-11.896 .53-5.395 5.712,1.861 7.137,3.172 3.3,3.039 9.207,5.635 8.987,8.724" fill-rule="evenodd"/>
 <path d="m53.392,46.223c-3.024-.124-14.865-7.192-14.009-10.839 .812-3.458 4.864,1.024 5.815,1.851 2.487,2.16 8.059,5.46 8.194,8.988" fill-rule="evenodd"/>
 <path d="m56.034,32.476c-2.543-.049-18.681-5.533-14.801-8.195 3.805-2.611 14.576,4.743 14.801,8.195" fill-rule="evenodd"/>
 <path d="m57.091,19.259c-3.211.326-8.26-1.594-12.422-1.586-3.63.006-8.313-.765-3.701-3.965 3.376-2.343 18.023,1.286 16.123,5.551" fill-rule="evenodd"/>
 <path d="m28.81,32.212c-.915,2.247-4.176,10.181-6.872,10.31-3.728.178-4.61-6.084-5.55-8.723-1.581-4.438-4.561-7.339-3.172-12.161 1.102-3.828 4.152-9.852 6.872-12.161 1.582-1.342 3.267-2.008 6.344-2.114 3.997-.138 4.629,1.995 5.287,6.344 .899,5.959-.649,13.865-2.909,18.505" fill="#a3916c" fill-rule="evenodd"/>
 <path d="m28.017,19.787c-4.279-.494-11.033-3.09-9.25-7.138 3.394.916 11.093,3.969 9.25,7.138" fill-rule="evenodd"/>
 <path d="m23.259,25.867c-2.676.136-10.098-1.972-5.814-4.494 2.439-1.435 6.638,1.731 5.814,4.494" fill-rule="evenodd"/>
 <path d="m11.629,12.915c-.708,4.11-5.923,2.022-6.343-1.322-.647-5.159 4.92-4.618 8.194-3.172-.611,1.335-1.216,3.184-1.851,4.494" fill="#c1b69f" fill-rule="evenodd"/>
</svg>
