<?xml version="1.0" encoding="UTF-8"?>
<svg width="9300px" height="4200px" clip-rule="evenodd" fill-rule="evenodd" image-rendering="optimizeQuality" shape-rendering="geometricPrecision" text-rendering="geometricPrecision" viewBox="0 0 9300 4068.75" xmlns="http://www.w3.org/2000/svg">
 <defs>
  <style type="text/css">.fil0 {fill:#1F1A17}</style>
 </defs>
 <path class="fil0" d="m912.62 425.16h7340.5c122.52 0 222.76 100.75 222.76 223.89v2543.2c0 123.14-100.24 223.89-222.76 223.89h-7340.5c-122.52 0-222.76-100.75-222.76-223.89v-2543.2c0-123.14 100.24-223.89 222.76-223.89zm0-81.375h7340.5c167.28 0 304.14 137.37 304.14 305.26v2543.2c0 167.9-136.86 305.26-304.14 305.26h-7340.5c-167.28 0-304.14-137.37-304.14-305.26v-2543.2c0-167.9 136.86-305.26 304.14-305.26z"/>
 <polygon class="fil0" points="7451.7 1669.4 7873.5 1514 8224.2 1643.2 8224.2 2478.3 8224.2 2650.9 8224.2 3212.1 941.6 3212.1 941.6 2634.4 941.6 2478.3 941.6 2171.3 1639.9 1647.5 2338.2 2171.3 2338.2 2478.3 2430.8 2478.3 2430.8 2298.2 2991.1 1146.9 3551.5 2298.2 3551.5 2478.3 3626.6 2478.3 3626.6 2227.2 3798.5 1882.2 4478.4 1882.2 4483.1 1703.5 4600.3 1703.5 4700.3 1703.5 4817.4 1703.5 4822.1 1882.2 5502 1882.2 5674 2227.2 5674 2478.3 5756.9 2478.3 5756.9 2037.1 6543.8 1667.9 6544.3 1667.6 6544.9 1667.9 7331.7 2037.1 7331.7 2478.3 7451.7 2478.3"/>
</svg>
