<?xml version="1.0" encoding="utf-8"?>
<!-- Generator: Adobe Illustrator 22.1.0, SVG Export Plug-In . SVG Version: 6.00 Build 0)  -->
<svg version="1.1" id="Layer_1" xmlns="http://www.w3.org/2000/svg" xmlns:xlink="http://www.w3.org/1999/xlink" x="0px" y="0px"
	 viewBox="0 0 640 480" style="enable-background:new 0 0 640 480;" xml:space="preserve">
<style type="text/css">
	.st0{fill:none;stroke:#000000;stroke-width:1.629;stroke-miterlimit:3.864;}
	.st1{fill:#FFFFFF;}
</style>
<circle class="st0" cx="208.1" cy="241.4" r="30.7"/>
<circle class="st0" cx="210.1" cy="240.6" r="20.4"/>
<circle class="st0" cx="210.1" cy="240.6" r="16.3"/>
<polygon class="st0" points="188.7,279 196.7,259.4 206.8,262.5 198.8,282.1 "/>
<path class="st0" d="M277.5,53.3c0,0,8.4,0.5,10,10.3c1.6,9.9-0.8,9.6-0.8,9.6s-9.4,4.5-24.5,6.4c-3.7,0.5-7.3-6.3-8.4-8.9
	c-1.1-2.7-2.6-6.6,1.3-8.7C259.1,59.9,268.1,55.6,277.5,53.3L277.5,53.3z"/>
<path class="st0" d="M250.6,70c1.8,0-21.8,6.4-29.7,24.8c-6.5,15.1,21.1,65.9,96,134.6l6.4-8.8c-74.8-68.7-101.3-111.4-92.9-125.8
	c8.4-14.4,26.2-16.7,24.4-16.7c0,0,1.7-2.6,0.7-5.1C254.6,70.4,250.7,70,250.6,70L250.6,70z"/>
<path class="st1" d="M179.1,332.5c0,0,15.9,10.2,40.3,7.8c0,0-1.4-2.4-12.6-2.9c-11.2-0.4-16.4-3.3-18.7-4.1
	C185.6,332.5,179.1,332.5,179.1,332.5"/>
<path class="st0" d="M449.6,172.4l-10.8,3.7c-35-103.7-72.3-126.7-77.9-128.8c-5.5-2.1-38.8,4.5-38.8,4.5l-5.1-8.6
	c0,0,27-5.3,34.6-4.6c7.6,0.7,13.9,0,20.7,6.6c6.8,6.6,36.3,27.2,63.8,92C443.1,153.7,447.7,165.7,449.6,172.4L449.6,172.4z"/>
<path class="st0" d="M321.7,58c-2.4,2.8-17,10.8-22.6,12c-5.6,1.2-8.1-1.9-9.7-4.4c-1.6-2.5-4.1-12.1,1.9-15.3
	c10.8-5.8,22.9-7.6,22.9-7.6S324.6,45,321.7,58L321.7,58z"/>
<path class="st0" d="M201.4,284.6c-0.3,0.7-13.1,35.1-13.1,46.9c0,17.4,9,42.3,29.6,53.1c35.6,18.6,55.6-45.5,135.3,13.1
	c11.6,8.5,27,21.6,40.7,27c23.9,9.4,53.9,0.4,62.8-13.7c18.2-28.7,10.2-53.1,5.6-63.4c-4-9-32.3-55.2-41.8-70.6
	c-18.2,4.3-41.2-0.8-66.5-16.9c-13.3-8.5-26.3-18.7-37.1-29.6c0,0,2.3-6,5.7-8.3c2.8-1.8,8.5-2.5,8.5-2.5
	c3.1,3.2,57.5,55.7,89.3,39.6c32.9-16.7,17.9-78.9,17.1-81.9c0,0,5.2-3.6,9.2-4.3c3.5-0.6,9.2,0.6,9.2,0.6s4.9,18.5,4.6,39.7
	c-0.5,26.4-9.1,45.5-23.3,55.9c3.8,6.2,10.6,17.2,17.6,28.8c24.5,40.5,48.7,73.2,18.4,120.8c-14.5,22.8-55.8,33-87,20.7
	c-34.1-13.5-66.1-60.4-106.3-49.1c-23.8,6.7-45.4,21.8-71.6,8.1c-28.7-15-38.8-47-38.8-67.2c0-13,9.1-39,14-52.1
	c0,0,6.6-0.7,10.3,0.5C197.2,281,201.4,284.6,201.4,284.6L201.4,284.6z"/>
</svg>
