<?xml version="1.0" encoding="UTF-8"?>
<svg viewBox="0 0 640 480" xmlns="http://www.w3.org/2000/svg" xmlns:xlink="http://www.w3.org/1999/xlink">
 <defs>
  <clipPath id="d">
   <use xlink:href="#c"/>
  </clipPath>
  <path id="c" d="m159.91 201.46c46.575 34.697 81.758 46.493 113.89 40.593 32.136-5.896 43.344-20.908 51.146-43.534 7.796-22.623-3.806-55.9-3.806-55.9l3.648 1.54c0.02002 0.054001 8.407 20.434 8.079 43.782-0.328 23.455-13.369 56.591-48.773 68.401-29.503 9.84-60.632-2.016-84.554-14.339-23.979-12.357-40.692-27.127-40.738-27.167l1.105-13.376"/>
 </defs>
 <rect x="186.58" y="278.1" width="13.1" height="25.783" clip-path="url(#d)" fill="#fff"/>
 <g fill="none" stroke="#000" stroke-miterlimit="3.864" stroke-width="1.629">
  <circle cx="208.09" cy="241.45" r="30.652"/>
  <circle cx="210.11" cy="240.58" r="20.377"/>
  <circle cx="210.11" cy="240.58" r="16.302"/>
  <rect transform="matrix(.2762 -.68099 .77917 .2414 -246.37 325.83)" x="236.94" y="474.37" width="28.837" height="13.024"/>
  <path d="m277.55 53.275s8.3827 0.46315 9.9733 10.337c1.5898 9.8741-0.79529 9.6414-0.79529 9.6414s-9.4459 4.5267-24.45 6.3994c-3.7094 0.46388-7.3212-6.2549-8.3802-8.9471-1.0606-2.6921-2.5529-6.6306 1.3244-8.7152 3.8756-2.0852 12.887-6.3995 22.328-8.7159z"/>
  <path d="m250.65 69.978c1.7559 0-21.798 6.3987-29.652 24.757-6.4788 15.149 21.142 65.943 95.981 134.59l6.3896-8.7867c-74.839-68.653-101.31-111.39-92.928-125.81 8.3811-14.42 26.205-16.738 24.45-16.738 0 0 1.6558-2.6344 0.69525-5.0938-0.9606-2.4609-4.9354-2.9241-4.9354-2.9241z"/>
 </g>
 <path d="m179.08 332.52s15.93 10.227 40.265 7.7802c0 0-1.3979-2.4241-12.63-2.8576-11.235-0.43207-16.402-3.2889-18.734-4.1047-2.3338-0.81793-8.9011-0.81793-8.9011-0.81793" fill="#fff"/>
 <path d="m449.62 172.36l-10.803 3.7377c-34.95-103.74-72.346-126.7-77.877-128.77-5.5364-2.0737-38.841 4.5129-38.841 4.5129l-5.1412-8.6277s27.046-5.2644 34.65-4.5736c7.6048 0.69074 13.929 0 20.744 6.6473 6.8153 6.6466 36.348 27.246 63.81 92.03 6.9303 16.346 11.494 28.377 13.457 35.047z" fill="none" stroke="#000" stroke-miterlimit="3.864" stroke-width="1.629"/>
 <path d="m175.38 120.69s14.371 7.4334 24.308 21.688c9.9345 14.257 20.978 34.53 20.978 34.53s-21.562-32.958-28.697-41.275c-4.1583-4.8453-16.589-14.943-16.589-14.943" fill="#fff"/>
 <g fill="none" stroke="#000" stroke-miterlimit="3.864" stroke-width="1.629">
  <path d="m321.69 57.991c-2.3859 2.7803-17.027 10.801-22.595 11.958-5.5646 1.1589-8.1157-1.8533-9.708-4.4002-1.5898-2.5491-4.1476-12.117 1.8575-15.346 10.766-5.7918 22.858-7.6451 22.858-7.6451s10.5 2.4038 7.5867 15.433z"/>
  <path d="m201.39 284.6c-0.28274 0.74854-13.094 35.056-13.094 46.92 0 17.431 9.0069 42.331 29.577 53.063 35.57 18.56 55.616-45.514 135.28 13.11 11.585 8.523 26.989 21.57 40.701 26.978 23.852 9.403 53.867 0.35977 62.79-13.681 18.226-28.677 10.185-53.081 5.5629-63.382-4.0476-9.0259-32.339-55.18-41.826-70.585-18.157 4.3359-41.222-0.82657-66.473-16.888-13.303-8.4652-26.304-18.669-37.068-29.609 0 0 2.2701-6.018 5.7373-8.2571 2.8224-1.8237 8.5365-2.4949 8.5365-2.4949 3.1481 3.1929 57.46 55.735 89.262 39.571 32.887-16.716 17.873-78.922 17.091-81.856 0 0 5.1884-3.6322 9.178-4.3113 3.5234-0.599 9.1772 0.58525 9.1772 0.58525s4.937 18.522 4.5642 39.738c-0.4646 26.403-9.0862 45.472-23.312 55.88 3.8211 6.2051 10.577 17.206 17.606 28.825 24.507 40.491 48.695 73.163 18.437 120.78-14.478 22.781-55.804 33.001-87.011 20.696-34.143-13.464-66.066-60.363-106.27-49.096-23.811 6.6747-45.419 21.812-71.626 8.1372-28.714-14.979-38.762-46.992-38.762-67.201 0-12.951 9.0912-38.962 14.042-52.08 0 0 6.5541-0.7023 10.349 0.51587 3.3779 1.0831 7.5453 4.643 7.5453 4.643z"/>
 </g>
</svg>
