<?xml version="1.0" encoding="UTF-8"?>
<svg viewBox="0 0 1024 768" xmlns="http://www.w3.org/2000/svg">
 <g fill="#bfbfbf" fill-rule="evenodd" stroke="#000">
  <g stroke-width=".713">
   <path d="m219.04 298.05v410.1l26.625 21.945v-423.82l-26.625-8.2295z"/>
   <path d="m246.2 309.53l-0.4084 420.59 34.923-7.4016v-418.67l-34.514 5.4863z"/>
  </g>
  <g stroke-width=".65">
   <path d="m697.12 53.21l0.247 385.42 23.398 19.541v-397.25l-23.645-7.7137z"/>
   <path d="m721.51 63.994l-0.362 394.23 31.013-6.658v-392.71l-30.651 5.1424z"/>
  </g>
  <g stroke-width=".666">
   <path d="m937.14 189.88v394.6l24.241 20.032v-406.74l-24.241-7.898z"/>
   <path d="m962.14 200.92l-0.3719 403.64 31.795-6.9236v-401.98l-31.423 5.2652z"/>
  </g>
  <g stroke-width="0">
   <path d="m698.43 252.6l-0.4869 37.165s-1.9476-6.2895 5.8428-13.151c7.7905-6.8613-0.97388 46.885-0.97388 46.885s9.2512-41.168 12.173-28.017c2.9214 13.151 5.356 60.608 5.356 60.608s11.686-44.598 17.042-29.16 14.607 57.177 14.607 57.177l0.4869-136.08-54.046 4.5741z" opacity=".8"/>
   <path d="m937.01 214.29l0.4869 186.4c0.48688 0 1.9477-30.304 7.7905-29.732 6.3298-1.7153 14.607 5.1459 14.607 5.7177 0 0-19.476-54.89-9.2513-50.888 9.7382 4.0024 19.476 15.438 18.502 14.866 0.48688 0-14.12-73.187-4.3821-65.754 9.7382 7.433 11.686 22.299 13.146 24.014 1.9476-1.7153-6.3298-36.022-0.48688-39.452 6.8166-3.4306 15.094 33.163 15.094 33.163l1.4606-87.481-56.968 9.1483z" opacity=".498"/>
   <path d="m219.8 319.49l-0.4869 25.158s0.48694-9.7202 7.7905-5.7177c7.3036 4.0024 18.989 34.306 18.989 34.306s1.9476-24.014 7.3036-14.294c5.3559 9.7201 5.8428 37.165 5.8428 37.165s8.2774-44.598 13.146-20.584c4.869 24.014 8.2774 66.326 8.2774 66.326v-110.35l-34.57 6.2895-26.293-18.297z" opacity=".6"/>
  </g>
  <path d="m242.35 326.48v17.942l764.23-135.29v-17.457l-764.07 134.63" stroke-width=".713"/>
  <path d="m36.369 152.7l0.2465 394.95 23.994 19.69v-406.74l-24.241-7.898z" stroke-width=".255"/>
  <path d="m61.368 163.39l-0.3719 403.64 31.548-7.2667 0.2465-401.64-31.423 5.2652z" stroke-width=".666"/>
  <path d="m36.338 165.59v24.662s4.8201-6.8732 9.6402-1.6172 2.5037 26.129 2.5037 26.129 5.4318-12.268 10.009-10.876c4.772 1.4515 8.7534 16.572 8.6318 21.081-0.10602 4.4609-4.2741 45.335-4.2741 45.335s6.8614-19.61 11.337-17.993c4.4758 1.6172-9.2022 50.088-9.5465 50.492 0.37-0.12927 9.6891-22.347 13.821-11.026 4.1315 11.32-8.8234 42.591-8.6808 42.591 0.48694 0.4043 10.176-19.337 13.275-12.868 3.0986 6.4689 8.2875 68.603 8.2875 68.603l1.4607-176-56.464-48.516z" opacity=".5" stroke-width="0"/>
  <path d="m242.15 344.16l-217.21-179.43-0.1743-14.886 217.41 176.65-0.0299 17.671z" stroke-width=".713"/>
  <path d="m24.985 150.08l217.44 175.56 765.23-134.41-276.11-164.59-706.56 123.44z" stroke-linejoin="round" stroke-width=".6"/>
  <path d="m186.79 277.99c0.68857 0.80862-161.82-128.57-161.82-128.57s52.333-6.4689 77.122-12.938c24.789-6.4689 240.32-51.751 249.96-43.665 9.6402 8.086-59.218 41.239-59.218 41.239s-24.789-8.086-41.315 4.8516-13.772 35.579-13.772 35.579-19.28-25.875-44.07-21.024c-24.789 4.8516 16.526 38.813 16.526 38.813s-48.201-33.962-71.613-16.172c-23.412 17.789 48.89 100.27 48.201 101.88z" opacity=".235" stroke-width="0"/>
 </g>
</svg>
