<?xml version="1.0" encoding="utf-8"?>
<!-- Generator: Adobe Illustrator 22.1.0, SVG Export Plug-In . SVG Version: 6.00 Build 0)  -->
<svg version="1.1" id="Layer_1" xmlns="http://www.w3.org/2000/svg" xmlns:xlink="http://www.w3.org/1999/xlink" x="0px" y="0px"
	 viewBox="0 0 1024 768" style="enable-background:new 0 0 1024 768;" xml:space="preserve">
<style type="text/css">
	.st0{fill:none;stroke:#000000;stroke-miterlimit:10;}
</style>
<g>
	<g>
		<polygon class="st0" points="280.7,318.9 280.7,319.6 246.2,325.7 246.2,325 		"/>
		<polygon class="st0" points="280.7,337.6 280.7,722.7 245.8,730.1 246.2,343.7 		"/>
	</g>
	<g>
		<polygon class="st0" points="720.8,241.6 720.8,242 697.3,246.2 697.2,245.8 		"/>
		<polygon class="st0" points="720.8,259.7 720.8,458.2 697.4,438.6 697.3,263.9 		"/>
		<polygon class="st0" points="752.2,236.1 752.2,236.5 721.3,241.9 721.3,241.5 		"/>
		<polygon class="st0" points="752.2,254.2 752.2,451.6 721.2,458.2 721.3,259.6 		"/>
	</g>
	<g>
		<polygon class="st0" points="961.4,199.4 961.4,199.6 937.1,203.9 937.1,203.6 		"/>
		<polygon class="st0" points="937.1,221.4 961.4,217.1 961.4,604.5 937.1,584.5 		"/>
		<polygon class="st0" points="993.6,211.4 993.6,597.6 961.8,604.6 962.1,217 		"/>
	</g>
	<line class="st0" x1="245.7" y1="325.8" x2="242.5" y2="326.3"/>
	<polygon class="st0" points="1006.6,191.7 1006.6,209.1 993.6,211.4 962.1,217 961.4,217.1 937.1,221.4 752.2,254.2 721.3,259.6 
		720.8,259.7 697.3,263.9 280.7,337.6 246.2,343.7 245.7,343.8 245.7,730.1 219,708.2 219,325.1 242.2,344.2 242.2,326.5 219,307.7 
		219,306.8 242.4,325.6 245.7,325.1 245.7,325.8 246.2,325.7 280.7,319.6 697.3,246.2 720.8,242 721.3,241.9 752.2,236.5 
		937.1,203.9 961.4,199.6 	"/>
	<polyline class="st0" points="242.4,326.5 242.4,344.4 245.7,343.8 	"/>
	<polygon class="st0" points="60.6,178.8 60.6,179 36.9,159.7 	"/>
	<polygon class="st0" points="60.6,194.2 60.6,567.3 36.6,547.7 36.4,174.2 	"/>
	<polygon class="st0" points="92.8,220.8 92.5,559.8 61,567 61.3,194.8 	"/>
	<polygon class="st0" points="92.8,204.8 92.8,205.1 61.4,179.6 61.4,179.4 	"/>
	<polygon class="st0" points="36.4,159.3 25,150.1 25,150.1 	"/>
	<polygon class="st0" points="242.2,326.5 242.2,344.2 219,325.1 92.8,220.8 61.3,194.8 60.6,194.2 36.4,174.2 24.9,164.7 
		24.8,149.8 25,150.1 25,150.1 36.4,159.3 36.9,159.7 60.6,179 61.4,179.6 92.8,205.1 219,307.7 	"/>
	<polygon class="st0" points="1007.7,191.2 961.4,199.4 937.1,203.6 752.2,236.1 721.3,241.5 720.8,241.6 697.2,245.8 280.7,318.9 
		246.2,325 245.7,325.1 242.4,325.6 219,306.8 92.8,204.8 61.4,179.4 60.6,178.8 36.9,159.7 36.4,159.3 25,150.1 731.5,26.6 	"/>
	<polygon class="st0" points="36.4,159.3 25,150.1 25,150.1 	"/>
</g>
</svg>
