<?xml version="1.0" encoding="utf-8"?>
<!-- Generator: Adobe Illustrator 22.1.0, SVG Export Plug-In . SVG Version: 6.00 Build 0)  -->
<svg version="1.1" id="Layer_1" xmlns="http://www.w3.org/2000/svg" xmlns:xlink="http://www.w3.org/1999/xlink" x="0px" y="0px"
	 viewBox="0 0 952.5 841.9" style="enable-background:new 0 0 952.5 841.9;" xml:space="preserve">
<style type="text/css">
	.st0{fill:none;stroke:#000000;stroke-width:3;stroke-miterlimit:10;}
</style>
<path class="st0" d="M897.6,752.6c-2.2,0.1-4.3,0.2-6.5,0.4l0-0.4L897.6,752.6z"/>
<path class="st0" d="M906.5,758.7l-3,83.2h-15.7l3.2-82.3C896.1,759.3,901.3,759,906.5,758.7z"/>
<path class="st0" d="M182.1,93.1h593.7v357.7H182.1V93.1z"/>
<path class="st0" d="M190.6,106.4h575.5v344.4H190.6L190.6,106.4z"/>
<path class="st0" d="M211,476.5v44.8c-2.8,0-5.6,0-8.5,0v-44.8H211z"/>
<path class="st0" d="M211,656.3v17.3c-2.8-0.2-5.7-0.4-8.5-0.6v-16.6C205,656.3,207.5,656.2,211,656.3z"/>
<path class="st0" d="M756.7,476.5L756.7,476.5l-0.1,51.8c-3.1,0-6.3,0.1-9.4,0.1l-0.1-51.9v-0.6L756.7,476.5z"/>
<path class="st0" d="M160.4,468.3l18.8-16.9l596.6,0.6l25,15.1L160.4,468.3z"/>
<path class="st0" d="M655.6,427.9h93.9v15.7h-93.9V427.9z"/>
<path class="st0" d="M655.6,436.2h93.9v20.7h-93.9V436.2z"/>
<path class="st0" d="M243.2,448.5h39.2v7.8h-39.2L243.2,448.5z"/>
<path class="st0" d="M305.3,448.5h24v7.8h-24V448.5z"/>
<path class="st0" d="M418.5,627.2h-0.3c-0.1-2.5-0.2-5.1-0.3-7.6h0.2C418.2,622.1,418.3,624.6,418.5,627.2z"/>
<path class="st0" d="M160.4,468.3h640.4v8.2H160.4L160.4,468.3z"/>
<path class="st0" d="M307.5,686c-2.2-17.2-20.3-26-42.7-27.3c-31.3-1.9-45.3-2.4-53.8-2.4c-3.5,0-6,0.1-8.5,0.2
	c-9.4,0.4-16.9,1.3-68.9-0.5c-30.1-1-42.5-15.6-41-35.1c1.6,16.1,14.4,27.5,40.9,28.4c52.1,1.8,59.6,0.9,69,0.5
	c2.4-0.1,5-0.2,8.5-0.2c8.5,0,22.6,0.6,53.8,2.4C289.8,653.5,309.6,664.3,307.5,686z"/>
<path class="st0" d="M425.3,725.8c0,11-36.3,12.2-44.2,12.3h-0.2c-0.8,0-1.3,0-1.3,0c-4.1,0.1-8.9,0.2-14,0.1
	c-11.2,0-24.2-0.3-36.3-0.4c0.8-2.2,1.5-4.4,2.3-6.7c17,0.2,35.4,0.6,47.9,0.3c0,0,40.6,0,45.3-10.3
	C425,722.8,425.1,724.3,425.3,725.8z"/>
<path class="st0" d="M424.8,721.2c-4.7,10.3-45.3,10.3-45.3,10.3c-12.5,0.4-31-0.1-47.9-0.3c1.6-4.6,3.2-9.3,4.7-13.9
	c3.5-10.4-14-24.9-25.5-27.8c-1.1-0.3-2.1-0.5-3.2-0.8c0-1-0.1-1.9-0.2-2.8c2.1-21.6-17.6-32.5-42.7-34c-31.2-1.9-45.3-2.4-53.8-2.4
	c-3.5,0-6,0.1-8.5,0.2c-9.4,0.4-16.9,1.3-69-0.5c-26.6-0.9-39.3-12.3-40.9-28.4c-0.3-2.9-0.2-5.9,0.2-9.1
	c19.3-36.1,27.4-50.9,46.9-77.8c9.3-12.6,30-12.9,30-12.9c11.3,0.1,22.2,0.1,32.9,0.2c2.8,0,5.7,0,8.5,0c57,0.1,107.8-0.5,168.6-0.1
	c30-1.9,35.9,11.2,35.9,11.2c0.6,33.6,1.3,60.8,2.6,87.1h-0.2c0.1,2.5,0.2,5.1,0.3,7.6c0.9,17.7,2,35,3.5,53.5
	C422.5,689.8,423.4,707.2,424.8,721.2z"/>
<path class="st0" d="M307.7,688.8c-0.2,0-0.4-0.1-0.6-0.1c0.2-0.9,0.3-1.8,0.4-2.7C307.6,686.9,307.7,687.8,307.7,688.8z"/>
<path class="st0" d="M597.3,619.5c-0.8,1.9-1.7,3.9-2.7,5.8c-0.1,0.6-0.3,1.2-0.4,1.8H418.5c-0.1-2.5-0.3-5.1-0.4-7.6H597.3z"/>
<path class="st0" d="M425.2,719.2c0,0.7-0.1,1.4-0.4,2c-1.4-14-2.3-31.4-3.1-40.5c-1.5-18.5-2.6-35.8-3.5-53.5
	c-0.1-2.5-0.2-5.1-0.3-7.6h0.2c0.1,2.5,0.3,5.1,0.4,7.6c0.8,15.4,1.8,30.6,3.2,46.8C422.5,684.2,423.5,704.6,425.2,719.2z"/>
<path class="st0" d="M336.3,717.3c-1.6,4.6-3.1,9.3-4.7,13.9c-0.8,2.2-1.5,4.4-2.3,6.7c-7.5,22-15,44-22.5,65.9
	c-7.2,17.9-31.8,15.1-46.8,11.8c-1.4-0.3-2.8-0.6-4.3-0.9c6.3-26.3,15.7-65.6,21.9-89.8c3.9-15.2-2.7-29.6-14.9-31.7
	c-57.1-8.9-113.2-10.5-170.7-4.9c-12.4,1.4-21.2,15.6-19.5,31.2c2.4,23,7.1,64.1,10.3,92.2c-4.4,0.7-8.7,1.4-13.1,2.3
	c-8.9,2-29.3-1.2-32-11.6c-7.7-29-15.5-58-23.4-87c-0.4-14.9,14.7-26.7,27.6-30.9c54-10.8,107.4-14.7,160.8-11.4
	c2.8,0.2,5.6,0.4,8.5,0.6c32,2.4,64,7.4,96.1,15.1c0.2,0,0.4,0.1,0.6,0.1c1.1,0.2,2.1,0.5,3.2,0.8
	C322.3,692.4,339.8,706.9,336.3,717.3z"/>
<path class="st0" d="M277.6,725c-6.2,24.2-15.6,63.6-21.9,89.8c-7.1-1.4-14.1-2.7-21.1-3.8c-44.1-6.8-87.4-7.5-131.5-2.2
	c-6.8,0.8-13.6,1.8-20.4,2.9c-3.2-28.2-7.8-69.2-10.3-92.2c-1.6-15.6,7.2-29.8,19.5-31.2c57.5-5.5,113.6-3.9,170.7,4.9
	C274.9,695.4,281.5,709.8,277.6,725z"/>
<path class="st0" d="M363.5,841.9h18.9V738.2l-16.8,0L363.5,841.9z"/>
<path class="st0" d="M277.6,725c-6.2,24.2-15.6,63.6-21.9,89.8c-3.8,16-6.4,27.1-6.4,27.1h-20.6c0,0,2.5-13,5.9-30.8
	c4.7-24.6,11.2-58.3,15.6-79.6c2.5-11.8,4.3-21.7-14.3-24.2c-39.6-4.5-78.5-5.6-118.4-3.4c-18.8,1.4-21.8,11.8-21,23.9
	c1.7,25.6,4.5,57.5,6.5,81.1c1.7,19.3,3,33,3,33H86.1c0,0-1.4-12.6-3.4-30.1c-3.2-28.2-7.8-69.2-10.3-92.2
	c-1.6-15.6,7.2-29.8,19.5-31.2c57.5-5.5,113.6-3.9,170.7,4.9C274.9,695.4,281.5,709.8,277.6,725z"/>
<path class="st0" d="M93.2,751.6c0.1,2.9-2.4,5.4-5.5,5.6s-5.8-2-5.8-4.9s2.4-5.4,5.5-5.6S93.1,748.7,93.2,751.6z"/>
<path class="st0" d="M264.5,754.3c0.1,2.9-2.4,5.4-5.5,5.6s-5.8-2-5.9-4.9c-0.1-2.9,2.4-5.4,5.5-5.6
	C261.8,749.3,264.4,751.5,264.5,754.3L264.5,754.3z"/>
<path class="st0" d="M655,677.5c-13,0.7-26,1.8-39,3.3c-13.3-5.6-20.4-17.8-21.6-32c3.5,15.4,14.8,27.3,34.2,28.6
	C637.4,677.9,646.2,677.9,655,677.5z"/>
<path class="st0" d="M811.7,689.8c-6.2-1.3-12.5-2.5-18.7-3.6c-12.1-4.8-24.4-7.3-36.8-8.3c-2.9-0.2-5.7-0.4-8.6-0.5
	c-7.6-0.3-15.3,0-23.1,0.5c-22.1-1.4-44.3-1.6-66.4-0.6c30.3-1.7,60.4-7.4,89.5-6.3c2.9,0.1,5.8,0.3,8.6,0.5
	c17.9,1.6,35.5,6.2,52.5,16.5C809.6,688.5,810.6,689.2,811.7,689.8z"/>
<path class="st0" d="M935.8,757.4c-9.8,0.4-19.5,0.8-29.3,1.4c-5.2,0.3-10.4,0.6-15.5,0.9c-1.2,0.1-2.5,0.1-3.7,0.2
	c-10.5,0.8-50.8-1.4-47-18.1c6.5,10.7,37.1,12.2,46,11.5c1.6-0.1,3.3-0.2,4.9-0.3c2.2-0.1,4.3-0.3,6.5-0.4
	c12.4-0.7,24.7-1.3,37.1-1.8c0,0,8.8-1.7,11.2-5.8c0.3,0.7,0.7,1.5,1.1,2.5h0C950.3,754.7,935.8,757.4,935.8,757.4z"/>
<path class="st0" d="M897.6,752.6c-2.2,0.1-4.3,0.2-6.5,0.4l0-0.4L897.6,752.6z"/>
<path class="st0" d="M946,745.1c-2.4,4.1-11.2,5.7-11.2,5.8c-12.4,0.5-24.8,1.1-37.1,1.8l-6.4,0l0,0.4c-1.6,0.1-3.3,0.2-4.9,0.3
	c-8.9,0.7-39.5-0.8-46-11.5c0.1-0.6,0.3-1.2,0.6-1.8c1-2.5,1.5-5,1.6-7.5c1.3-4.6,2.6-9.2,3.9-13.8c2.9-10.5-15.4-24.6-27-27.2
	c-2.5-0.6-5.1-1.1-7.6-1.6c-1-0.7-2-1.3-3-1.8c-17-10.3-34.6-14.9-52.5-16.5c-2.9-0.3-5.7-0.4-8.6-0.5c-29.1-1.1-59.1,4.7-89.5,6.3
	c-1,0-2.1,0.1-3.1,0.2c-8.8,0.4-17.6,0.4-26.4-0.2c-19.4-1.3-30.7-13.2-34.2-28.6c-1.5-6.7-1.6-14.1-0.1-21.6
	c0.1-0.6,0.2-1.2,0.4-1.8c0.9-1.9,1.8-3.9,2.7-5.8c11.2-25.2,16.9-50,23.5-77c3.4-13.1,21.9-13.5,21.9-13.5
	c34.8,0,69.6-0.4,104.4-0.7c3.1,0,6.3-0.1,9.4-0.1c28.9-0.3,57.9-0.5,86.8-0.5c17.8,0,22.7,13.7,22.7,13.7
	c18.4,50.5,37.7,100.4,57.9,150.3c4.7,11.5,7.3,17.6,10.7,25.5c9.3,21.4,5.4,10.4,11.4,23.8h0C946.8,742.6,946.6,744,946,745.1z"/>
<path class="st0" d="M842.4,732.5c-0.1,2.4-0.5,4.9-1.6,7.5c-0.3,0.6-0.4,1.2-0.6,1.8c-0.1-0.2-0.2-0.4-0.3-0.6
	C840.8,738.3,841.6,735.4,842.4,732.5z"/>
<path class="st0" d="M897.6,752.6c-2.2,0.1-4.3,0.2-6.5,0.4l0-0.4L897.6,752.6z"/>
<path class="st0" d="M846.3,718.7c-1.3,4.6-2.6,9.2-3.9,13.8c-0.8,2.9-1.6,5.8-2.4,8.7c-6.1,21.5-12.2,43.1-18.4,64.6
	c-6.2,17.9-30.6,15.8-45.5,12.9c4.9-25.8,12.7-67.1,17.4-92.1c2.9-15.4-5.2-29.9-18.1-31.8h0c-6.4-0.9-12.8-1.6-19.3-2.3
	c-2.8-0.3-5.7-0.6-8.5-0.9c-50.7-4.7-100.9-3.7-151.9,3.1c-12.9,1.9-21,16.4-18.1,31.8l17.4,92.3c-3.3,0.6-6.6,1.3-9.9,2
	c-8.8,2.2-29.3-0.6-32.7-11c-9.3-28.9-18.7-57.7-28.2-86.5c-1.3-14.7,13.2-27,25.8-31.5c22-4.9,44-8.7,65.9-11.2
	c13-1.5,26-2.6,39-3.3c1-0.1,2.1-0.1,3.1-0.2c22.1-1,44.3-0.8,66.4,0.6c7.8-0.5,15.5-0.7,23.1-0.5c2.9,0.1,5.7,0.2,8.6,0.5
	c12.5,1,24.8,3.5,36.8,8.3c6.2,1.1,12.4,2.3,18.7,3.6c2.5,0.5,5.1,1.1,7.6,1.6C830.8,694,849.2,708.2,846.3,718.7z"/>
<path class="st0" d="M600.8,757.6c0.3,2.9-2.1,5.4-5.2,5.7c-3.1,0.3-5.9-1.9-6.1-4.7c-0.3-2.9,2.1-5.4,5.2-5.7
	C597.8,752.6,600.5,754.7,600.8,757.6z"/>
<path class="st0" d="M765.3,733.4c-3.1,22-8.1,57.3-11.5,81.6c-46.5-6.6-92-6.5-138.3,0.4c-3.5-24.3-8.7-59.7-11.9-81.8
	c-1.7-11.9,0.5-22.4,20.2-24.5c41.8-3.7,82.8-3.7,124.5,0.1C768.2,711.4,767,721.5,765.3,733.4z"/>
<path class="st0" d="M774.4,763.3c-3.1,0.3-5.9-1.9-6.1-4.7c-0.3-2.9,2.1-5.4,5.2-5.7c3.1-0.3,5.9,1.8,6.1,4.7
	C779.9,760.5,777.5,763.1,774.4,763.3z"/>
<path class="st0" d="M775.4,694.8L775.4,694.8c-6.4-0.9-12.8-1.6-19.3-2.3c-2.8-0.3-5.7-0.6-8.5-0.9c-50.7-4.7-100.9-3.7-151.9,3.1
	c-12.9,1.9-21,16.4-18.1,31.8l17.4,92.3c6.8-1.3,13.7-2.5,20.5-3.5c-3.5-24.3-8.7-59.7-11.9-81.8c-1.7-11.9,0.5-22.4,20.2-24.5
	c41.8-3.7,82.8-3.7,124.5,0.1c19.7,2.1,18.5,12.1,16.9,24.1c-3.1,22-8.1,57.3-11.5,81.6c7.2,1,14.4,2.2,21.7,3.5
	c0.2,0,0.4,0.1,0.6,0.1c4.9-25.8,12.7-67.1,17.4-92.1C796.4,711.2,788.3,696.7,775.4,694.8z M595.5,763.3c-3.1,0.3-5.9-1.9-6.1-4.7
	c-0.3-2.9,2.1-5.4,5.2-5.7c3.1-0.3,5.9,1.8,6.1,4.7C601,760.5,598.7,763.1,595.5,763.3z M774.4,763.3c-3.1,0.3-5.9-1.9-6.1-4.7
	c-0.3-2.9,2.1-5.4,5.2-5.7c3.1-0.3,5.9,1.8,6.1,4.7C779.9,760.5,777.5,763.1,774.4,763.3z"/>
<path class="st0" d="M595.5,763.3c-3.1,0.3-5.9-1.9-6.1-4.7c-0.3-2.9,2.1-5.4,5.2-5.7c3.1-0.3,5.9,1.8,6.1,4.7
	C601,760.5,598.7,763.1,595.5,763.3z"/>
<path class="st0" d="M615.5,815.5c2.2,15.5,3.8,26.4,3.8,26.4h-20l-4.3-23C601.9,817.6,608.7,816.5,615.5,815.5z"/>
<path class="st0" d="M775.5,818.6c0.2,0,0.4,0.1,0.6,0.1c-2.6,13.8-4.4,23.2-4.4,23.2H750c0,0,1.6-11.1,3.8-26.8
	C761,816.1,768.2,817.2,775.5,818.6z"/>
<path class="st0" d="M774.4,763.3c-3.1,0.3-5.9-1.9-6.1-4.7c-0.3-2.9,2.1-5.4,5.2-5.7c3.1-0.3,5.9,1.8,6.1,4.7
	C779.9,760.5,777.5,763.1,774.4,763.3z"/>
<path class="st0" d="M745.1,876.2"/>
<path class="st0" d="M595.5,763.3c-3.1,0.3-5.9-1.9-6.1-4.7c-0.3-2.9,2.1-5.4,5.2-5.7c3.1-0.3,5.9,1.8,6.1,4.7
	C601,760.5,598.7,763.1,595.5,763.3z"/>
<path class="st0" d="M774.4,763.3c-3.1,0.3-5.9-1.9-6.1-4.7c-0.3-2.9,2.1-5.4,5.2-5.7c3.1-0.3,5.9,1.8,6.1,4.7
	C779.9,760.5,777.5,763.1,774.4,763.3z"/>
</svg>
