<?xml version="1.0" encoding="utf-8"?>
<!-- Generator: Adobe Illustrator 22.1.0, SVG Export Plug-In . SVG Version: 6.00 Build 0)  -->
<svg version="1.1"
	 id="svg2" xmlns:cc="http://creativecommons.org/ns#" xmlns:dc="http://purl.org/dc/elements/1.1/" xmlns:rdf="http://www.w3.org/1999/02/22-rdf-syntax-ns#" xmlns:svg="http://www.w3.org/2000/svg"
	 xmlns="http://www.w3.org/2000/svg" xmlns:xlink="http://www.w3.org/1999/xlink" x="0px" y="0px" viewBox="0 0 362.4 296.1"
	 style="enable-background:new 0 0 362.4 296.1;" xml:space="preserve">
<style type="text/css">
	.st0{fill:none;stroke:#000000;stroke-width:3;stroke-miterlimit:10;}
</style>
<g id="layer2" transform="translate(-8.3351 -167.79)">
	<path id="path2679" class="st0" d="M57,375.6c-0.8-6.2-0.8-14.6-1-16.3c-0.9-8.1-22.2-60-24.9-71.6c-2.9,8.5-2.9,14.3-2.2,24.1
		c1.5,21.4,4.7,52.8,4.1,64s-1.3,43.9-15.3,39.7c-7.5-2.3-4.6-17-0.7-27.4c3.9-10.5-5.7-55.6-4.5-92.9c1.3-37.5,23.2-58.7,39.3-66.6
		c26.3-13,50-11.8,88.2-5.3c28.8,4.9,39.1,8.3,63.3,9.3c35.6,1.6,56.1-18.6,67.3-28.5c6.4-5.7,10.5-6.5,15.5-10.2
		c-4.6-4.3-9.9-10.5-1.9-18.3c8.1-7.7,18.3-1.6,20.5,4.3c5.9-1.2,12.6-1.6,19.1-1c6.5,0.6,11.9,2.5,15.9,4.1
		c3.7-3.1,14.6-9.3,18-6.8c3.4,2.5,15.1,8.4-0.7,20.5c2.5,2.2,9.3,12,9.7,23c0.5,12-3.8,19-5.6,24.3c-1.8,5-9,12.4-11.8,13.6
		s-2.6,5.4-5.1,8.8c-1.5,2-11.1,7.3-22.9,3.4c-6.7-2.2-19.8,30.9-18.9,41.1c1.1,13-2.3,30.4-8.8,38.4c-6.5,8-5.6,67.3-5,77.8
		c0.6,10.5,10.5,12.2,12.2,16.5c3.8,7.1-2.4,14.2-8.8,11.7c-1,1.3-3.7,5.3-14.6,2.8c-6.9-1.6-15.9-17-18-24.8
		c-1.9-6.9-6.2-55-11.5-68.5c-4.7-12.2-37.6-11-43.1-9.4s-30.4,6.6-38.9,5.6c-12.4-1.6-16.6-2.8-31.6-14.2c-7.9-5.9-15.5-12-21.7-18
		c-3.4,8.4-11.2,27.9-14.9,37.5c-3.7,9.6-19.8,29.4-19.8,35.3s-1.4,32.5,4.3,38c4.2,3.9,13,8.6,7.5,11.4c-1.1,0.5-2.8,6.4-6.3,4.9
		c-2.8,3.9-6.2,3.8-7.1,3.9c-13.8,1.5-20.6-10.8-22.9-17.8c-2.4-7.2-3.7-38.7-2.8-46.5c0.9-7.7,10.2-24.2,10.2-33.8
		c0-9.6,1.2-21.1-4-31.9c-5.3-10.9-5.3-15.2-5.3-15.2 M247.9,364.8c-6.5,1.9-10.5,11.6-19.8,40.1s-4.6,31-2.8,33.8s1.6,5.9-1.6,7.1
		s-5.6,5.6-9.9,4c-4.3-1.5-10.2,2.5-13.6-1.5s-11.2-19.2-10.2-27.6s7.1-10.9,7.8-17s5.5-38.1,5.5-45.5 M88.7,443
		c7.5,2.8,9.6-1.9,10-5.7c0.6-5.4-6-10.6-6-16.5s-3.5-33.3,1.6-46.3"/>
	<g id="g3255">
		<path id="path2393" class="st0" d="M48.9,260.9c-10.2,5.6-15.4,19.8-15.2,28.1"/>
		<path id="path2397" class="st0" d="M305.3,210.4c5.1-0.6,8.4,0.2,10.4,1.9c2.1,1.8,2,6.1,1.4,10.2"/>
		<path id="path2399" class="st0" d="M348,208c-4.3,1.3-5.9,3.3-6.8,5.7c-1,2.5-0.2,5.7,1,9.7"/>
		<path id="path3187" class="st0" d="M314.3,257.5c2.8,1.6,12.2,0.1,14.2-0.5c4.3-1.3,3.5-3.9,3.7-6.9c0.1,0.9,0,5.8,0.6,6
			c4,1.3,14.9,1.2,17.4-0.2"/>
		<path id="path3190" class="st0" d="M304.4,266.4l-8.8,1.8l0.5-10.6l-8.8,1.9l0.1-9.1l-8.2,2l2-10.6l-7.8-0.1l2.3-6.8l-3.4-6.6
			l5.5-13.4"/>
	</g>
	<g id="g3280">
		<path id="path3171" class="st0" d="M313.6,219.1c-1,1.1-3,1-4.4-0.4s-1.7-3.3-0.7-4.5c1-1.1,3-1,4.4,0.4
			C314.3,216,314.6,218,313.6,219.1L313.6,219.1z"/>
		<path id="path3173" class="st0" d="M343.5,217.5c1,1,2.8,0.9,4.2-0.3c1.3-1.2,1.6-3.1,0.7-4.1c-1-1-2.8-0.9-4.2,0.3
			C342.8,214.6,342.5,216.5,343.5,217.5L343.5,217.5z"/>
		<path id="path3262" class="st0" d="M320.8,242.5c-1.1,2.9,7.6,6.9,11.6,8.5c2.9-1.8,10.9-6.1,10.6-8.9c-0.2-2.1-8-0.7-10.5-0.5
			C328.9,241.9,322.1,239,320.8,242.5L320.8,242.5z"/>
		<path id="path3228" class="st0" d="M297,191.6l3.5-3.5c-1.2-4.7-3.9-7.8-5.7-8.1c-2.8-0.4-6,2.8-4.8,5.9
			C291.2,189,297,191.6,297,191.6z"/>
		<path id="path3230" class="st0" d="M348.4,193.5l-4-3.8c0.9-4.1,6.1-5.1,7.6-5.3c2.2-0.4,3.8,1.8,2.8,4.5S348.4,193.5,348.4,193.5
			z"/>
	</g>
</g>
<g id="layer3" transform="translate(-8.3351 -167.79)">
	<path id="path3004" class="st0" d="M19.8,389.8c0.7,7.4,8.7,2.5,10.4,2.3c7.3-0.8-5.3,20.5-10.3,21.9
		C14.4,415.4,11.9,387.4,19.8,389.8L19.8,389.8z"/>
	<path id="path3002" class="st0" d="M281.1,376.2c-10.3-11.7-25.1-31.7-21.3-41.4c1.6-4.1,10,21.9,18.8,26.6
		C282.4,363.5,288.9,385.1,281.1,376.2L281.1,376.2z"/>
	<path id="path3000" class="st0" d="M222.8,373.3c-5.3,0-12.5-4.7-7.6-3.9c14,2.3,28.9-9.5,29.5-6
		C245.9,369.9,227.6,373.3,222.8,373.3L222.8,373.3z"/>
	<path id="path2998" class="st0" d="M20.5,366.8c3.9-2.3,10.3-1.8,1-7.2c-3.4-2-6.2-6.9-3.1-7.6c0.9-0.2,3.8,5,10.6-0.4
		c3.7-2.9,5.7,17.8,2.4,21.4c-1.4,1.5-4,3.3-10.3,2.2L20.5,366.8L20.5,366.8z"/>
	<path id="path2996" class="st0" d="M94.1,365.9c-4.4-6.9-8.3-15.5-14-22.9c-4-5.1-18.1-12.2-13.6-12.8c4.9-0.6,12,2.2,17.5,8.3
		c5.3,5.9,9,14.9,13.2,19.6C97.7,358.7,95.2,367.7,94.1,365.9z"/>
	<path id="path2994" class="st0" d="M248.5,356c-4.5,0.3-1.1-35.5-6.7-14.5c-1.6,6.1-10.1,13.9-6.6,1.9
		c5.6-19.3,14.4-38.5,14.6-58.7c0.1-6.8,1.8-27.1,2.9-24.9c1.8,3.4,3.6,26.5,3,27.6c-1.1,1.8-5.4,25-5.7,36.4
		C249.8,333.3,253.2,355.7,248.5,356L248.5,356z"/>
	<path id="path2992" class="st0" d="M158.6,353.4c-5.3-8.5,2.2-25.8,4.7-36.8c2.1-9.3,8.8-37.8,12.1-30.9
		c4.8,10.1-7.8,30.5-8.2,46.1c-0.1,4.6,1.7,22.7-5.8,21.9C161.3,353.7,159.4,353.4,158.6,353.4L158.6,353.4z"/>
	<path id="path2990" class="st0" d="M198.3,349.2c0.1-13.8-1.8-29.2,3.8-42.3c2.8-6.5,10.3-19.3,8.3-3.3c-1.7,14.2,0.6,29.4-5.9,42
		C203.4,348,198.3,352.7,198.3,349.2L198.3,349.2z"/>
	<path id="path2988" class="st0" d="M206.2,316.6c0.6-21.7-5.6,15.8-3,15.2C205.5,331.3,206.1,319.9,206.2,316.6z"/>
	<path id="path2986" class="st0" d="M226.4,308.8c-0.7-14.6-1.2-30.9,4.5-42.3c3.6-7.3,1.9,12.9,1.4,14c-2.3,5.2,0.4,26.1-0.9,36.8
		c-1.3,10.4-1.3,30.9-13.6,31.1C216.9,350.6,227.3,322.9,226.4,308.8z"/>
	<path id="path2984" class="st0" d="M93.3,335.7c-6.2-15.7,0.8-29.5,1.3-42.9c0.5-11.8-1.7-40.6-2.3-39.4
		c-3.4,7.8-2.6,35.5-4.3,42.1c-0.9,3.5,0.2,15-5.1,4c-2.7-24,5.8-48.5,4.1-72.9c-2.6-12.5,10.9-14,9.6-3.5
		c-1.8,14.5,1.8,40.7,3,52.1c1.1,11,2.2,23.7-1.1,32.9c-3,8.3-2.9,23.8-0.8,29.2C100.3,343.9,95.5,341.2,93.3,335.7L93.3,335.7z"/>
	<path id="path2982" class="st0" d="M287.9,341.5c-5.8-9.9-9.7-20-13.3-31.2c-3.7-11.5,2.8-15.8,4.5-2.8
		c1.8,12.9,17.7,47.4,10.7,37.5c0,0-0.5-0.7-0.7-1C288.8,343.2,287.9,341.5,287.9,341.5L287.9,341.5z"/>
	<path id="path2980" class="st0" d="M16.6,335.6c2.4-3.7,6.4-5,10.3-2.6c4.7,2.8,5.4-7.3-2-7.8c0,0-6.8-0.4-8.4,1.3
		C16.1,326.9,16.6,335.6,16.6,335.6z"/>
	<path id="path2978" class="st0" d="M127,334.5c-6.7-3.8,1.9-13.2,3.3-20c2.4-11,4.6-23.6,6.6-33.6c2.4-11.7,0.2-25.7,3.9-35
		c1-2.5,3.2,21.2,2,28.6c-3.2,19.8-4.9,40.5-13.8,58.5C128.6,333.9,128.8,335.6,127,334.5z"/>
	<path id="path2976" class="st0" d="M145.2,334.9c-9.3-12.7,10.7-38.3,11-58.6c0.2-15.1-9.5-40.8-4.8-51l7.1,1.9
		c-4.2,7.5,0.4,28.7,1,33.1c1.9,14.7,6.3-21.3,6.3-33c12-7.7,4.3,28.9,0.8,37.6c-5.8,14.2-6.8,30.3-12.8,44.6
		C150.5,317,148.5,339.3,145.2,334.9L145.2,334.9z"/>
	<path id="path2974" class="st0" d="M268.4,334.9c-5.7-9.7-6.3-24.4-7.4-36.8c-0.7-7.3,0-28.3,2-9.8c1.5,14,3.5,28,7.3,41.7
		C270.7,331.3,270.2,337.9,268.4,334.9L268.4,334.9z"/>
	<path id="path2972" class="st0" d="M46.3,300.1c0.1-1.2,9.9-5.1,14.8-30.2c2.6-13.6-1-29.8,1.9-42c3-12.6,4.9,12.5,5,19.8
		c0.4,19.6-5.6,39.4-10.3,46.9C56.8,296.1,45.5,308.2,46.3,300.1z"/>
	<path id="path2970" class="st0" d="M109.9,307.4c-2.2-10.7,1.3-19.4,2.3-30.2c0.8-8.9,4.4-22.8,7.2-26.5
		c5.4-7.1,15.4-38.2,18.4-27.4c3.4,11.9-17.8,32.7-19.7,49c-0.7,6.3,0.2,10.1-1.1,18.3C116.8,293,111.9,316.6,109.9,307.4
		L109.9,307.4z"/>
	<path id="path2968" class="st0" d="M180.5,307.3c4.1-18.8,7.2-38.3,4.4-57.4c-1.4-9.8,11-24.3,12.4-17.4c0.6,2.9-4.1,6.8-5.1,13.7
		c-1.4,9.7,0.3,23.3-1.4,30.5c-2,8.8-2.3,20.8-7.5,30.3C182.7,308.2,179.8,310.2,180.5,307.3z"/>
	<path id="path2966" class="st0" d="M296.8,302.9c-14-12-17.5-21-0.3-10.4C302.5,296.3,305.4,311.5,296.8,302.9z"/>
	<path id="path2964" class="st0" d="M199.9,297.5c0.4-13.3,5.4-28.4,2.4-42.8c-1.5-7.1-4.3-26.2,7.2-21.4c0.4,4.9-1.7,21.4,0.2,22
		c1.9,0.6,4.6-20.3,9.5-21c4-0.6,6.1-3.1,4.2,1c-5.6,11.7-12.1,29.5-14.1,42.4C208.4,282.5,199.7,304.9,199.9,297.5L199.9,297.5z"/>
	<path id="path2962" class="st0" d="M235.8,288.2c-3.2-9.9,4-34.8,0.2-48.1c-2.7-9.5,1.9-23.2,3.9-6.9c1.6,13.7,4.4,34.8-0.9,47.2
		C238,282.5,236.7,290.8,235.8,288.2z"/>
	<path id="path2960" class="st0" d="M276.7,283.6c-9.6-3.5-12.5-20.3-14.7-31.8c-1.8-9.6-15.1-39.5-6.6-36
		c8.5,3.5,10.9,31.5,14.9,44.3C272.3,266.9,281.3,285.4,276.7,283.6z"/>
	<path id="path2950" class="st0" d="M16.6,278.6c6.2-2.6,10.8,0.7,15.3,4.4l-3.1,9.3c-6.7-3.8-11-9.9-15.1-0.9L16.6,278.6z"/>
	<path id="path2948" class="st0" d="M26.1,257.9c4.9,1.4,11.4,10,12.4,13.6c0.8,2.9-2,4.4-3.6,6.1c-3-7.9-9.8-14.6-14.5-11.6
		C20.4,266,26.1,257.9,26.1,257.9z"/>
	<path id="path2669" class="st0" d="M14.2,302.6c5.5-1.2,10.4,1.4,15.3,4.2l-1.4,6c-7.1-3.1-12.2-7.5-14.5-1.9L14.2,302.6z"/>
	<path id="path3006" class="st0" d="M303,236.7c-3.4-2.2-9.6-8.5-10.5-11.9c-0.6-2.4,0.7-0.7,1.7,0.8c1,1.6,1.5,3,3,4.8
		C299.1,232.5,305.1,238.1,303,236.7L303,236.7z"/>
	<path id="path3008" class="st0" d="M293.2,237.5c1.1-1.3,7.1,5.8,10.9,6.9c3.6,1.1,5.4-2.2,6.3-2c-1.5,2.1-4.1,3.6-7.8,1.8
		C299.9,243,292.6,238.4,293.2,237.5L293.2,237.5z"/>
	<path id="path3010" class="st0" d="M304.1,250.5c2.7,1.6,5.5-1.1,6.3-1.1c-1.6,1.7-5.7,4.3-7.8,1.9
		C302.5,251.3,303.4,250.2,304.1,250.5z"/>
	<path id="path3012" class="st0" d="M353.6,233.9c-0.6-0.3,6.1-10.1,6.3-13.6c0.1-2.4-0.6-0.6-1.2,1.1c-0.5,1.7-0.7,3.3-1.6,5.3
		C356,229.1,354.6,234.4,353.6,233.9L353.6,233.9z"/>
	<path id="path3014" class="st0" d="M363.2,232.5c-1-1.1-4.6,7-7.3,8.8c-2.6,1.7-4.5-1.6-5.1-0.8c-1,1.4,3.6,2.8,6.2,0.3
		C358.8,239.1,363.8,233.2,363.2,232.5L363.2,232.5z"/>
	<path id="path3016" class="st0" d="M355.7,248.4c-1.9,2-5.2-0.3-5,0.1c0.6,1.2,4.9,3.2,6.2,0.5
		C357.1,248.9,356.2,247.9,355.7,248.4L355.7,248.4z"/>
	<path id="path3026" class="st0" d="M326.3,197.1c1.3,0.1,1.6,1.3,2.7,2.1c0.7,0.5,6.8,1.8,5.9,2.6c-1.2,1.2-4.6-1.3-9-1.3
		c-4.3,0-11,3.8-12,2.4c-0.4-0.5,5.8-2.4,8.2-3.5C323.8,198.7,325.2,196.9,326.3,197.1L326.3,197.1z"/>
	<path id="path3028" class="st0" d="M325.4,186.7c4-0.1,4,3.1,7.2,4.3c4.6,1.7,9.8,2.3,9,3.3c-1.1,1.4-10.7-3-18.1-2.7
		c-6.9,0.3-18.4,5.9-19.3,4.2c-0.5-1,6.2-1.1,11.6-4.5C319.1,189.3,321.4,186.8,325.4,186.7L325.4,186.7z"/>
	<path id="path3265" class="st0" d="M55.6,429.8c4.2-1.3,5.9,2.6,7.8,11.5c1.9,8.5,11.4,8.9,8.9,13.6c-5.2,9.9-12.1-4.2-15-9.4
		C51.9,435.3,53,430.6,55.6,429.8z"/>
	<path id="path3267" class="st0" d="M200,430.6c4.4-1.2,4.4,2.6,5.9,5.8c2.9,6.2,6.2,5.7,3.8,9.7l-8.1,1.7c-0.8-0.6-4-8.3-5.1-12.1
		S198.9,431,200,430.6L200,430.6z"/>
	<path id="path3084" class="st0" d="M289.4,445.4c4,2.7,7.5,9,7.5,11.2"/>
	<path id="path3086" class="st0" d="M279.3,449.2c2.3,2.9,2.2,6.7-0.2,8.6c-2.4,1.8-6.1,1-8.4-1.9s-2.2-6.7,0.2-8.6
		C273.3,445.5,277,446.3,279.3,449.2z"/>
</g>
</svg>
