<?xml version="1.0" encoding="utf-8"?>
<!-- Generator: Adobe Illustrator 22.1.0, SVG Export Plug-In . SVG Version: 6.00 Build 0)  -->
<svg version="1.1" id="Layer_1" xmlns="http://www.w3.org/2000/svg" xmlns:xlink="http://www.w3.org/1999/xlink" x="0px" y="0px"
	 viewBox="0 0 256 256" style="enable-background:new 0 0 256 256;" xml:space="preserve">
<path style="fill:#FFFFFF;" d="M32.6,93.5h-2.1v-0.2C31.2,93.4,31.9,93.5,32.6,93.5z"/>
<rect style="fill:#EFEFEF;" width="256" height="256"/>
<rect y="172.5" style="fill:#D8D8D8;" width="256" height="83.5"/>
<circle style="fill:#D3D3D3;" cx="211" cy="51" r="24"/>
<line style="fill:none;stroke:#848484;stroke-width:3;stroke-miterlimit:10;" x1="0" y1="191.5" x2="256" y2="191.5"/>
<line style="fill:none;stroke:#848484;stroke-width:3;stroke-miterlimit:10;" x1="0" y1="220.7" x2="256" y2="220.7"/>
<g>
	<g>
		<line style="fill:none;" x1="245.3" y1="191.5" x2="241" y2="220.7"/>
		<line style="fill:none;stroke:#848484;stroke-width:3;stroke-miterlimit:10;" x1="245.3" y1="191.5" x2="241" y2="220.7"/>
	</g>
	<g>
		<line style="fill:none;" x1="222.3" y1="220.7" x2="218" y2="191.5"/>
		<line style="fill:none;stroke:#848484;stroke-width:3;stroke-miterlimit:10;" x1="222.3" y1="220.7" x2="218" y2="191.5"/>
	</g>
	<g>
		<line style="fill:none;" x1="199.3" y1="191.5" x2="195" y2="220.7"/>
		<line style="fill:none;stroke:#848484;stroke-width:3;stroke-miterlimit:10;" x1="199.3" y1="191.5" x2="195" y2="220.7"/>
	</g>
	<g>
		<line style="fill:none;" x1="176.3" y1="220.7" x2="172" y2="191.5"/>
		<line style="fill:none;stroke:#848484;stroke-width:3;stroke-miterlimit:10;" x1="176.3" y1="220.7" x2="172" y2="191.5"/>
	</g>
	<g>
		<line style="fill:none;" x1="153.3" y1="191.5" x2="149" y2="220.7"/>
		<line style="fill:none;stroke:#848484;stroke-width:3;stroke-miterlimit:10;" x1="153.3" y1="191.5" x2="149" y2="220.7"/>
	</g>
	<g>
		<line style="fill:none;" x1="130.3" y1="220.7" x2="126" y2="191.5"/>
		<line style="fill:none;stroke:#848484;stroke-width:3;stroke-miterlimit:10;" x1="130.3" y1="220.7" x2="126" y2="191.5"/>
	</g>
	<g>
		<line style="fill:none;" x1="107.3" y1="191.5" x2="103" y2="220.7"/>
		<line style="fill:none;stroke:#848484;stroke-width:3;stroke-miterlimit:10;" x1="107.3" y1="191.5" x2="103" y2="220.7"/>
	</g>
	<g>
		<line style="fill:none;" x1="84.3" y1="220.7" x2="80" y2="191.5"/>
		<line style="fill:none;stroke:#848484;stroke-width:3;stroke-miterlimit:10;" x1="84.3" y1="220.7" x2="80" y2="191.5"/>
	</g>
	<g>
		<line style="fill:none;" x1="61.3" y1="191.5" x2="57" y2="220.7"/>
		<line style="fill:none;stroke:#848484;stroke-width:3;stroke-miterlimit:10;" x1="61.3" y1="191.5" x2="57" y2="220.7"/>
	</g>
	<g>
		<line style="fill:none;" x1="38.3" y1="220.7" x2="34" y2="191.5"/>
		<line style="fill:none;stroke:#848484;stroke-width:3;stroke-miterlimit:10;" x1="38.3" y1="220.7" x2="34" y2="191.5"/>
	</g>
	<g>
		<line style="fill:none;" x1="15.3" y1="191.5" x2="11" y2="220.7"/>
		<line style="fill:none;stroke:#848484;stroke-width:3;stroke-miterlimit:10;" x1="15.3" y1="191.5" x2="11" y2="220.7"/>
	</g>
</g>
</svg>
