<?xml version="1.0" encoding="utf-8"?>
<!-- Generator: Adobe Illustrator 22.1.0, SVG Export Plug-In . SVG Version: 6.00 Build 0)  -->
<svg version="1.1" id="Layer_1" xmlns="http://www.w3.org/2000/svg" xmlns:xlink="http://www.w3.org/1999/xlink" x="0px" y="0px"
	 viewBox="0 0 512 512" style="enable-background:new 0 0 512 512;" xml:space="preserve">
<style type="text/css">
	.st0{fill:none;stroke:#000000;stroke-width:3;stroke-miterlimit:10;}
</style>
<rect y="387" class="st0" width="512" height="111"/>
<rect y="401" class="st0" width="512" height="111"/>
<line class="st0" x1="26" y1="456" x2="469" y2="456"/>
<g>
	<path class="st0" d="M449,215.5v160.2h-34.6c-4.9-17.1-9.5-30.1-40.5-30.1h-0.5c-31,0.2-35.8,30.1-35.8,30.1H180.9V215.5H449z"/>
	<path class="st0" d="M159.1,260.3v115.4h-12.2c-5.4-21.8-16.9-28.4-25.6-30.1c-5.9-1.3-10.6-0.2-10.6-0.2c-1.1,0-2.2,0-3.2,0h-0.2
		c-31.1,1.8-33.1,30.2-33.1,30.2H62.3v-64.2l32.6-51.1L159.1,260.3L159.1,260.3z"/>
	<path class="st0" d="M180.9,345.4l192.6,0.2c-31,0.2-35.8,30.1-35.8,30.1H180.9V345.4z"/>
	<path class="st0" d="M449.7,345.6l-0.7,5l-3.6,25h-31c-4.9-17.1-9.5-30.1-40.5-30.1h75h0.8V345.6z"/>
	<path class="st0" d="M62.5,345.4h45c-31.1,1.8-33.1,30.2-33.1,30.2H62.5C62.5,375.7,62.5,345.4,62.5,345.4z"/>
	<path class="st0" d="M159.1,345.6l-1.6,30.1h-10.6c-5.4-21.8-16.9-28.4-25.6-30.1H159.1z"/>
	<path class="st0" d="M449,215.5v160.2h-34.6c-4.9-17.1-9.5-30.1-40.5-30.1h-0.5c-31,0.2-35.8,30.1-35.8,30.1H180.9V215.5H449z"/>
	<path class="st0" d="M159.1,260.3v115.4h-12.2c-5.4-21.8-16.9-28.4-25.6-30.1c-5.9-1.3-10.6-0.2-10.6-0.2c-1.1,0-2.2,0-3.2,0h-0.2
		c-31.1,1.8-33.1,30.2-33.1,30.2H62.3v-64.2l32.6-51.1L159.1,260.3L159.1,260.3z"/>
</g>
</svg>
