<?xml version="1.0" standalone="no"?>
<!DOCTYPE svg PUBLIC "-//W3C//DTD SVG 20010904//EN"
 "http://www.w3.org/TR/2001/REC-SVG-20010904/DTD/svg10.dtd">
<svg version="1.0" xmlns="http://www.w3.org/2000/svg"
 width="1257.000000pt" height="1280.000000pt" viewBox="0 0 1257.000000 1280.000000"
 preserveAspectRatio="xMidYMid meet">
<g transform="translate(0.000000,1280.000000) scale(0.100000,-0.100000)"
fill="#000000" stroke="none">
<path d="M1891 12774 c-16 -20 -18 -31 -10 -51 5 -15 8 -32 5 -39 -3 -8 34
-40 89 -79 285 -203 479 -501 574 -887 30 -119 61 -322 61 -394 l0 -35 -29 22
c-24 18 -32 19 -51 9 l-22 -12 35 -36 c65 -68 105 -130 117 -182 13 -56 7 -75
-14 -44 -8 10 -41 52 -75 92 -69 82 -87 112 -100 171 -8 39 -8 41 10 36 52
-17 5 19 -128 97 -232 135 -324 176 -450 199 -67 13 -83 2 -83 -52 0 -21 -4
-40 -9 -44 -12 -6 -250 188 -304 248 -53 60 -111 150 -212 327 -48 85 -110
188 -138 228 l-50 72 -42 -37 c-24 -21 -44 -43 -44 -48 -2 -22 129 -267 202
-378 42 -63 167 -236 277 -384 110 -147 200 -271 200 -275 0 -12 -27 -10 -87
8 -33 10 -68 13 -89 10 l-34 -7 0 -82 c0 -147 38 -390 84 -542 22 -72 21 -75
-23 -75 -29 0 -75 -18 -173 -67 -154 -79 -170 -81 -279 -34 -243 102 -513 330
-857 724 l-156 179 -38 -40 c-20 -22 -40 -52 -44 -66 -14 -56 31 -106 108
-123 29 -7 48 -25 110 -108 217 -288 549 -565 892 -746 87 -46 115 -64 106
-73 -13 -13 -102 -13 -206 -1 -49 5 -73 4 -78 -3 -16 -26 65 -123 131 -156 59
-30 156 -44 343 -51 190 -6 250 -14 307 -42 41 -19 42 -29 4 -36 -16 -3 -89
-32 -162 -64 -139 -59 -182 -67 -267 -48 -56 13 -108 -41 -69 -73 6 -6 29 -13
50 -17 43 -8 57 -29 35 -51 -13 -13 -25 -12 -99 12 -286 90 -571 254 -771 443
l-96 91 -26 -31 c-33 -39 -33 -63 0 -86 14 -10 69 -58 122 -106 117 -108 263
-205 492 -327 96 -51 207 -113 245 -137 75 -49 158 -113 153 -119 -2 -2 -28 3
-58 11 -61 16 -118 19 -138 6 -10 -6 3 -23 46 -62 232 -215 494 -325 754 -317
143 4 104 -15 -45 -23 -157 -8 -225 -36 -139 -58 72 -18 118 -21 241 -13 115
8 191 4 234 -13 13 -6 17 -2 17 18 0 20 16 39 70 83 42 34 70 64 70 75 0 28
19 23 31 -7 9 -25 12 -26 57 -20 323 44 597 47 747 7 96 -25 221 -84 292 -137
51 -37 53 -41 53 -87 0 -26 13 -85 29 -132 16 -46 31 -97 32 -112 5 -62 1 -69
-43 -82 -24 -7 -101 -40 -173 -74 -71 -33 -165 -72 -209 -87 -83 -29 -88 -47
-10 -35 24 3 44 4 44 1 0 -10 -86 -55 -150 -80 -36 -13 -130 -38 -210 -56
-155 -34 -214 -51 -262 -76 -16 -8 -33 -12 -36 -8 -4 4 -2 9 4 11 6 2 19 10
29 17 16 12 15 14 -15 36 -32 23 -36 23 -102 12 -57 -10 -82 -9 -146 4 -247
50 -391 128 -437 236 -8 21 -15 40 -15 44 0 4 38 4 85 2 98 -7 165 -34 332
-137 92 -56 188 -101 216 -101 7 0 -10 20 -36 45 -81 74 -73 79 133 86 195 7
232 12 510 68 262 53 316 72 398 139 30 23 40 37 32 42 -7 5 -9 13 -5 20 13
21 -86 5 -290 -44 -99 -25 -227 -49 -285 -56 -247 -26 -288 -32 -345 -46 -82
-21 -94 -36 -26 -33 34 2 56 -1 58 -8 6 -18 -79 -27 -178 -19 -170 13 -308 64
-405 149 l-44 39 -39 -34 c-21 -19 -70 -47 -109 -62 -40 -15 -82 -36 -94 -45
-20 -17 -20 -21 -9 -49 15 -36 69 -87 165 -155 37 -26 64 -52 61 -57 -9 -14
-74 -30 -126 -30 -59 0 -82 -17 -81 -61 0 -19 -6 -45 -15 -58 -13 -21 -20 -23
-59 -17 -75 10 -121 43 -272 194 -128 128 -164 158 -276 227 -156 97 -205 139
-250 213 -53 87 -78 107 -137 106 -27 0 -52 -3 -55 -7 -12 -11 62 -133 118
-192 62 -67 99 -97 308 -252 79 -59 196 -157 260 -218 63 -61 134 -125 157
-143 60 -47 144 -83 210 -89 55 -6 56 -6 35 -23 -12 -10 -38 -21 -59 -25 -88
-16 -84 -47 14 -112 165 -111 300 -156 468 -157 138 0 226 23 393 104 l119 58
32 -25 c57 -44 39 -71 -77 -113 -60 -22 -89 -47 -105 -92 -5 -14 -18 -18 -50
-18 -42 0 -182 -32 -195 -44 -8 -9 84 -101 137 -136 24 -16 59 -32 77 -36 19
-3 34 -10 34 -14 0 -4 -22 -19 -48 -33 -27 -14 -55 -38 -62 -53 -13 -24 -13
-28 8 -44 12 -10 27 -20 34 -22 8 -3 8 -9 0 -25 -10 -17 -18 -20 -49 -16 -26
3 -59 -4 -106 -21 -124 -48 -223 -30 -372 66 -208 134 -308 177 -378 164 -42
-8 -52 -23 -43 -60 7 -27 39 -40 120 -50 66 -8 202 -97 211 -137 9 -40 24 -48
122 -68 96 -19 130 -33 153 -63 13 -16 20 -17 44 -9 15 6 54 11 86 11 70 0 98
10 166 56 36 25 60 35 80 32 l29 -3 -35 -36 c-27 -27 -58 -44 -130 -68 -52
-17 -103 -38 -113 -45 -17 -13 -13 -16 40 -31 242 -71 414 -70 630 1 56 19
109 34 118 34 23 0 115 -41 115 -51 0 -4 -42 -32 -93 -63 -106 -62 -128 -82
-103 -92 27 -11 89 4 175 41 131 56 155 60 192 33 26 -19 43 -23 107 -23 42 0
106 3 142 8 39 4 71 3 80 -2 27 -18 -6 -35 -78 -39 -70 -4 -102 -21 -102 -53
0 -27 39 -48 108 -57 34 -5 65 -11 68 -15 4 -3 -3 -18 -15 -33 -18 -23 -20
-35 -15 -89 7 -70 -3 -98 -44 -119 -40 -21 -113 -29 -144 -17 -36 14 -35 26 2
41 17 7 49 26 71 42 l40 29 -59 39 c-71 48 -141 57 -97 14 22 -23 19 -31 -35
-88 -27 -29 -50 -56 -50 -59 0 -4 14 -22 31 -42 28 -32 29 -36 12 -42 -10 -5
-56 -8 -103 -7 -66 1 -112 9 -205 37 -220 65 -311 82 -430 82 -103 0 -113 -2
-163 -29 -51 -28 -79 -52 -71 -60 2 -3 105 -7 229 -9 293 -7 306 -10 494 -137
60 -41 120 -74 149 -81 47 -11 131 -8 145 6 4 3 -5 29 -21 56 -44 80 -38 87
73 95 106 8 119 -24 25 -61 -48 -18 -62 -40 -19 -29 27 7 104 -13 104 -27 0
-4 -28 -9 -61 -11 -69 -3 -94 -22 -73 -55 9 -14 27 -18 85 -19 105 -2 108 -3
77 -19 -15 -9 -62 -18 -105 -21 -54 -4 -95 -14 -133 -32 l-55 -26 58 -18 c131
-40 211 -51 357 -51 130 0 154 3 235 28 50 15 102 30 117 32 34 6 133 -39 206
-94 52 -40 235 -214 230 -218 -5 -5 -255 33 -300 45 -24 6 -67 25 -95 41 -54
30 -135 40 -148 19 -13 -21 32 -85 108 -153 123 -111 137 -124 137 -140 0 -24
-105 -51 -200 -51 -107 0 -186 21 -298 79 -234 122 -269 137 -331 142 -66 6
-155 -18 -148 -41 8 -24 86 -55 190 -74 143 -28 181 -50 233 -135 58 -98 71
-108 145 -117 35 -4 102 -24 149 -43 96 -40 177 -54 231 -39 33 9 36 8 32 -8
-4 -15 2 -19 28 -22 l34 -3 -23 -21 c-40 -37 -93 -46 -226 -38 -112 6 -125 5
-174 -16 -29 -12 -52 -27 -52 -32 0 -18 70 -38 134 -38 59 0 69 -3 101 -31 32
-28 45 -33 126 -41 50 -5 134 -18 188 -28 182 -37 282 -45 384 -32 132 17 228
54 349 135 58 39 68 42 130 42 51 0 72 -4 85 -18 14 -13 15 -21 7 -35 -23 -36
-99 -72 -199 -93 -55 -11 -104 -24 -108 -28 -19 -18 184 -57 358 -69 l100 -7
-105 -82 c-194 -152 -326 -216 -445 -216 -91 -1 -132 20 -199 104 -66 82 -106
109 -162 109 -24 0 -45 -4 -48 -8 -7 -11 74 -113 138 -174 93 -89 228 -168
403 -238 46 -18 81 -36 78 -40 -15 -25 -79 -40 -157 -39 -90 2 -128 -10 -128
-41 0 -26 15 -33 83 -41 32 -4 61 -9 63 -12 5 -5 12 -31 13 -53 1 -19 26 -23
71 -13 36 8 69 4 204 -27 225 -52 304 -51 441 1 55 21 120 40 145 43 39 3 50
0 84 -27 21 -17 47 -31 57 -31 11 0 42 16 69 35 l50 35 71 -10 c130 -19 230 1
564 110 254 83 323 100 440 107 103 6 176 -6 251 -42 l50 -25 -4 -113 c-7
-177 33 -296 135 -407 l52 -57 -87 -66 c-359 -271 -686 -350 -1031 -251 -154
45 -547 252 -523 276 4 4 46 16 93 25 107 20 214 9 420 -43 236 -60 408 -58
552 6 41 18 46 24 36 36 -18 22 4 38 76 59 69 19 145 56 164 79 8 9 12 16 10
17 -2 0 -46 6 -97 13 -89 11 -94 11 -107 -7 -7 -11 -11 -25 -9 -32 5 -13 -24
-25 -63 -25 -12 0 -28 9 -36 20 -14 20 -14 20 -33 -1 -30 -34 -78 -49 -158
-49 -87 0 -159 -23 -154 -49 3 -12 13 -15 38 -13 26 2 32 0 23 -9 -16 -16
-146 -15 -218 1 -81 19 -210 85 -398 205 l-157 100 6 33 c8 40 -1 40 -50 -2
-38 -32 -38 -34 -18 -45 11 -6 49 -50 85 -98 74 -102 94 -121 133 -132 27 -7
25 -9 -29 -20 -48 -11 -75 -10 -158 3 -166 27 -274 15 -274 -29 0 -17 10 -21
60 -29 33 -5 63 -14 67 -20 17 -26 -62 -76 -170 -107 -36 -10 -75 -25 -87 -33
-21 -14 -24 -13 -40 4 -21 24 -48 26 -64 6 -16 -20 -2 -45 49 -89 55 -47 118
-65 295 -82 156 -16 185 -21 185 -34 0 -9 -136 -73 -195 -92 -58 -18 -163 -16
-208 6 -20 9 -65 48 -98 87 -70 78 -102 98 -156 98 -72 0 -70 -10 15 -111 157
-188 240 -242 380 -248 78 -3 82 -4 82 -26 0 -37 19 -44 79 -33 67 12 170 -1
301 -38 52 -15 96 -28 98 -30 2 -1 -16 -20 -39 -41 l-42 -40 -41 23 c-23 13
-58 24 -79 24 -40 0 -104 -28 -126 -54 -11 -13 -9 -17 15 -27 43 -18 168 -23
237 -9 149 29 386 130 565 239 l83 51 38 -20 c21 -10 71 -27 111 -36 97 -22
134 -38 159 -70 21 -27 20 -44 -3 -44 -8 0 -42 -19 -77 -42 -63 -43 -65 -43
-149 -42 -47 0 -119 3 -160 5 -59 3 -84 0 -118 -15 -57 -26 -52 -38 31 -70 45
-18 49 -44 10 -81 -36 -33 -92 -49 -127 -35 -15 5 -54 28 -87 51 -60 41 -139
64 -139 41 0 -6 7 -55 16 -109 11 -73 13 -110 5 -143 -5 -24 -7 -47 -5 -50 15
-15 177 -1 266 22 l96 25 78 -34 c43 -19 99 -37 125 -40 l47 -5 42 53 c53 67
70 79 70 46 0 -17 10 -28 35 -40 19 -9 35 -23 35 -31 0 -21 -90 -52 -242 -82
-153 -30 -219 -53 -276 -94 -41 -29 -111 -120 -93 -120 5 0 36 23 68 50 l58
51 65 -6 c36 -4 162 -10 280 -14 255 -9 224 -18 426 131 143 106 193 134 217
125 31 -12 60 -108 37 -122 -8 -5 -202 -34 -229 -35 -2 0 2 -7 9 -15 6 -8 37
-24 68 -35 63 -24 102 -54 102 -81 0 -26 11 -29 60 -17 76 20 174 -4 424 -101
14 -5 -16 -22 -125 -70 -147 -65 -160 -68 -240 -56 -42 7 -49 5 -78 -21 -30
-28 -31 -30 -16 -52 15 -21 22 -22 112 -20 l95 3 32 -35 31 -35 70 6 c39 4
138 7 220 8 282 3 419 28 580 105 179 87 318 202 561 467 86 93 165 174 176
180 55 30 282 -49 333 -115 14 -18 25 -35 25 -39 0 -16 -107 -39 -205 -43 -60
-3 -125 -7 -144 -10 -32 -5 -33 -7 -28 -39 23 -139 175 -296 335 -345 100 -31
175 -27 278 16 47 19 98 34 112 32 27 -3 27 -4 37 -116 8 -87 14 -116 26 -123
9 -4 43 -41 75 -80 76 -93 125 -129 176 -129 38 0 98 23 98 38 0 4 -23 15 -50
25 -117 42 -224 125 -255 199 -17 42 -20 104 -5 113 21 13 96 -33 140 -86 104
-128 153 -169 205 -169 30 0 31 -7 5 -40 -20 -26 -27 -60 -12 -60 16 0 39 34
57 83 10 27 24 51 31 54 17 6 74 -34 74 -52 0 -8 -26 -32 -57 -53 -128 -87
-124 -110 25 -138 26 -5 30 -39 6 -48 -34 -13 -103 -5 -203 24 -67 19 -126 30
-167 30 l-64 0 0 -33 c0 -94 72 -218 172 -295 29 -22 94 -64 143 -92 l90 -52
45 16 c120 42 215 39 288 -9 44 -29 86 -99 97 -160 6 -39 8 -41 98 -82 51 -23
111 -49 135 -57 41 -15 42 -15 32 4 -35 66 14 50 98 -32 l74 -72 -26 -19 c-14
-10 -26 -24 -26 -30 0 -6 67 -79 148 -162 81 -82 178 -183 214 -223 l66 -74
43 27 c76 47 139 117 139 154 0 6 -60 49 -132 97 -190 125 -285 201 -335 267
-41 56 -73 131 -60 143 8 8 44 -12 122 -72 78 -58 111 -74 158 -74 32 0 31 1
-55 84 -83 79 -88 87 -88 125 0 23 2 41 5 41 14 0 419 -389 453 -434 46 -62
76 -70 130 -32 21 14 43 35 50 47 32 51 -23 121 -145 183 -102 51 -148 89
-173 140 -21 44 -24 46 -54 40 -32 -5 -40 2 -270 239 l-237 245 -82 -5 c-151
-9 -228 40 -406 261 -95 118 -202 226 -223 226 -6 0 -8 9 -4 23 49 167 5 330
-135 496 -33 39 -62 71 -64 71 -10 0 -47 -75 -70 -145 -15 -44 -38 -99 -51
-122 -24 -42 -25 -43 -49 -27 -23 15 -30 14 -99 -6 -62 -19 -78 -20 -91 -10
-12 10 -13 15 -3 28 19 23 72 42 115 42 21 0 48 7 60 15 22 15 22 15 4 68 -44
126 -126 248 -206 306 -25 18 -77 43 -116 56 -90 31 -129 55 -179 112 -46 53
-52 95 -20 136 30 38 123 96 191 119 43 15 58 23 50 31 -20 20 -11 45 37 99
162 179 273 379 318 573 25 110 19 283 -15 390 -46 148 -168 303 -316 401 -67
45 -89 40 -117 -24 -12 -26 -26 -50 -32 -54 -16 -11 -36 -9 -36 3 0 19 -50
112 -73 137 -36 39 -91 62 -149 62 l-53 0 0 187 c0 177 -1 191 -23 231 -19 37
-25 41 -42 32 -29 -15 -50 -51 -50 -85 0 -16 -9 -43 -19 -59 l-19 -28 -10 33
c-6 19 -16 69 -21 112 -14 98 -32 141 -78 184 l-37 35 13 89 c13 92 9 140 -13
158 -19 16 -68 -41 -105 -120 -17 -36 -41 -75 -55 -88 l-24 -22 -21 27 c-31
39 -27 99 14 225 19 60 35 122 35 137 0 35 -23 57 -68 65 -38 8 -42 1 -68
-115 -22 -97 -38 -131 -74 -162 -31 -26 -80 -36 -80 -16 0 6 14 86 31 178 59
323 38 510 -74 646 l-24 30 -25 -26 c-16 -15 -29 -42 -33 -69 -9 -55 -39 -114
-61 -123 -21 -8 -44 11 -44 35 0 33 -20 21 -40 -23 -16 -35 -20 -66 -20 -160
0 -64 -5 -129 -11 -145 -10 -27 -12 -25 -30 46 -10 40 -45 139 -78 220 -32 80
-66 169 -74 198 -24 80 -30 179 -14 250 l13 61 -42 64 c-24 34 -70 92 -104
127 l-61 65 -51 -51 -51 -51 27 -32 c14 -18 38 -56 52 -85 l26 -52 -21 -41
c-26 -51 -38 -104 -51 -229 -6 -54 -18 -123 -26 -153 -19 -66 -68 -160 -97
-189 l-22 -20 0 167 c0 137 -4 188 -24 282 -13 63 -27 121 -31 129 -10 18 -47
-32 -75 -101 -11 -28 -30 -57 -43 -66 -22 -14 -22 -14 -22 39 0 29 -5 78 -12
110 -10 49 -9 71 12 176 27 141 24 164 -31 258 -50 85 -59 139 -33 197 l18 40
11 -33 c13 -39 52 -50 47 -14 -1 11 -6 73 -11 138 -9 127 -21 156 -74 187 -22
12 -29 12 -52 0 -34 -18 -63 -66 -71 -120 -10 -65 -29 -97 -77 -126 -56 -35
-93 -70 -129 -122 l-29 -43 -52 43 c-150 125 -236 224 -252 291 -4 15 -12 27
-19 27 -6 0 -70 -9 -142 -21 -72 -12 -142 -19 -157 -15 l-26 6 26 62 c30 75
53 190 53 266 0 120 -29 220 -167 580 -46 118 -35 120 -131 -24 -54 -81 -112
-145 -130 -144 -13 1 -206 314 -259 420 -71 140 -95 239 -91 370 3 108 6 103
-48 83 -21 -8 -42 27 -54 85 -13 71 -29 132 -35 132 -2 0 -26 -13 -52 -30 -26
-16 -52 -30 -57 -30 -6 0 -35 -11 -63 -25 l-53 -24 2 -76 c1 -57 -3 -80 -14
-92 -14 -14 -17 -11 -28 21 -17 52 -100 138 -167 173 -75 40 -130 54 -209 54
-35 0 -64 2 -64 4 0 3 14 39 31 82 17 42 42 124 57 182 25 99 27 120 27 316
-1 180 -4 224 -23 305 -26 113 -93 330 -101 330 -9 0 -58 -80 -80 -133 -11
-26 -35 -96 -52 -155 -30 -104 -69 -195 -89 -207 -15 -9 -24 42 -24 150 -1 87
2 107 25 155 24 51 25 57 11 90 -22 54 -16 161 17 305 40 177 45 217 31 259
-10 32 -51 76 -70 76 -8 0 -34 -91 -44 -150 -3 -19 -13 -109 -21 -199 -26
-273 -50 -352 -131 -431 -85 -83 -172 -199 -273 -364 -50 -82 -103 -162 -116
-178 l-25 -30 0 92 c0 123 16 190 122 505 82 244 91 278 92 350 1 51 11 112
26 168 28 97 23 120 -24 125 -34 4 -38 -6 -81 -236 -19 -103 -41 -210 -49
-238 -15 -58 -66 -174 -75 -174 -4 0 -55 115 -113 255 l-107 255 16 61 c14 55
14 62 -1 77 -14 14 -17 14 -35 -2 -22 -20 -63 -113 -87 -200 l-17 -60 -18 23
c-11 13 -29 55 -40 95 -40 138 -50 164 -68 180 -16 15 -18 31 -13 184 12 426
-56 825 -193 1129 l-27 61 -36 -25 c-68 -46 -69 -75 -6 -143 42 -45 48 -58 70
-149 82 -349 97 -820 38 -1195 -7 -49 -15 -91 -18 -93 -2 -2 -18 14 -36 37
-37 47 -65 52 -75 13 -8 -35 -23 -53 -43 -53 -12 0 -14 15 -10 98 4 78 13 119
45 213 38 110 39 117 26 155 -21 59 -41 168 -52 278 -6 54 -14 102 -18 107 -4
4 -21 9 -38 11 -29 3 -30 5 -25 43 15 124 -2 275 -32 275 -17 0 -47 -85 -58
-169 -15 -111 -52 -185 -64 -129 -3 13 -15 63 -26 111 -23 102 -25 205 -5 260
13 37 12 42 -19 107 -18 38 -45 115 -60 172 -69 258 -81 297 -111 365 -22 46
-52 91 -89 130 l-57 58 -20 -25 c-50 -66 -49 -140 6 -217 98 -138 106 -153
120 -229 16 -80 19 -88 44 -117 13 -15 15 -45 12 -180 -3 -185 -18 -249 -77
-335 -34 -52 -36 -53 -55 -36 -13 11 -19 31 -19 58 0 23 -5 48 -10 56 -14 23
-64 -31 -90 -99 -11 -31 -35 -73 -53 -94 l-32 -39 -27 27 c-15 15 -32 42 -38
61 -8 25 -19 36 -38 40 -86 18 -187 94 -212 160 -6 14 -10 60 -10 102 0 55 -9
107 -31 187 -114 403 -323 698 -637 899 -40 25 -74 46 -76 46 -3 0 -14 -12
-25 -26z m1549 -1114 c0 -15 -7 -49 -15 -76 -23 -77 -19 -136 20 -255 21 -66
35 -129 35 -160 0 -69 -37 -172 -119 -337 -73 -145 -111 -246 -111 -293 0 -33
-13 -44 -29 -25 -15 17 -16 45 -7 140 9 88 1 93 -33 20 -15 -31 -25 -80 -31
-149 -11 -122 -29 -175 -60 -175 -26 0 -78 52 -86 86 -8 31 -20 31 -28 0 -9
-38 8 -70 66 -117 102 -85 142 -133 198 -239 30 -58 74 -124 98 -148 40 -40
42 -45 28 -61 -9 -10 -16 -33 -16 -53 0 -24 -8 -42 -25 -58 -23 -22 -25 -22
-31 -4 -41 130 -145 242 -240 260 -31 6 -33 8 -44 72 -25 148 -69 270 -110
307 -16 15 -18 10 -25 -67 -4 -46 -10 -76 -13 -68 -3 8 -11 19 -19 24 -8 4
-23 27 -34 50 -15 35 -17 57 -13 146 5 95 4 103 -10 86 -24 -30 -29 -112 -12
-211 9 -49 16 -110 16 -135 -1 -43 -1 -44 -16 -25 -33 41 -63 122 -69 185 -18
178 69 468 214 712 57 95 179 264 186 256 1 -2 -17 -95 -41 -208 -56 -267 -74
-388 -74 -511 0 -110 8 -118 42 -42 17 39 19 58 13 132 -11 142 31 272 210
646 60 126 131 287 149 340 7 20 8 20 22 1 8 -11 14 -32 14 -46z m-1405 -131
c22 -6 76 -32 120 -57 l80 -47 -48 -3 c-57 -4 -131 28 -192 82 -45 39 -35 45
40 25z m-249 -39 c118 -31 272 -92 449 -182 208 -104 363 -267 451 -475 26
-61 27 -67 14 -111 -7 -26 -19 -69 -26 -97 -8 -27 -20 -112 -26 -188 -11 -131
-13 -140 -35 -148 -71 -27 -140 82 -109 172 l13 38 -44 32 c-39 27 -50 31 -87
26 -39 -6 -46 -3 -73 26 -41 44 -100 126 -159 221 l-48 79 -8 -31 c-22 -84 29
-171 175 -301 115 -103 141 -131 172 -190 18 -35 25 -124 11 -138 -16 -16
-174 -5 -291 21 -76 17 -149 27 -202 27 -45 0 -84 3 -87 7 -2 4 2 18 9 32 12
23 9 28 -50 93 -89 98 -155 214 -203 359 -69 208 -85 326 -61 437 10 50 11 50
34 35 13 -8 52 -18 87 -22 47 -6 62 -11 60 -22 -11 -47 -1 -213 17 -283 36
-139 163 -347 246 -401 l26 -17 -7 38 c-11 62 -41 123 -103 203 -104 134 -119
182 -131 420 -11 229 -19 258 -82 315 -59 53 -51 55 68 25z m1868 -227 c93
-245 100 -503 21 -748 -46 -142 -154 -335 -264 -475 l-20 -25 -41 40 c-54 53
-88 125 -96 205 -12 125 30 265 210 705 36 88 75 198 87 245 37 140 64 154
103 53z m430 -738 c83 -271 93 -543 31 -802 -25 -104 -81 -263 -93 -263 -4 0
-32 25 -63 56 l-57 56 -26 -39 c-32 -48 -43 -110 -35 -188 9 -79 11 -175 3
-175 -20 0 -124 83 -179 142 -77 84 -124 172 -132 252 l-6 58 -34 -5 c-18 -3
-33 -4 -33 -1 0 2 17 23 39 47 32 35 39 51 44 97 7 76 43 180 122 351 37 79
78 173 92 209 33 83 38 88 64 64 68 -61 66 -133 -7 -352 -37 -110 -58 -190
-61 -236 -6 -67 -5 -68 15 -57 13 7 27 31 36 59 18 61 31 35 23 -45 -6 -60 0
-113 14 -113 4 0 17 30 29 66 15 51 20 94 20 183 0 106 11 177 36 236 8 19 7
19 -18 3 l-26 -17 33 102 c43 132 65 282 65 448 l1 134 35 -80 c19 -44 50
-129 68 -190z m-2448 28 c18 -61 47 -106 80 -125 l37 -22 -23 -18 c-13 -11
-36 -17 -59 -16 -21 0 -43 -2 -50 -7 -25 -15 8 -28 89 -35 68 -6 86 -11 107
-32 l25 -25 -44 -11 c-133 -34 -319 -23 -465 27 -82 28 -213 102 -247 140 -18
20 -18 20 18 10 44 -12 124 1 223 36 37 13 113 40 168 59 114 41 133 43 141
19z m2664 -162 c5 -11 10 -38 10 -61 0 -32 14 -66 67 -158 96 -169 153 -291
153 -326 0 -50 -38 -263 -65 -364 -14 -51 -42 -135 -63 -186 -39 -96 -128
-256 -141 -256 -5 0 -16 9 -27 21 -30 33 -22 99 26 224 64 166 81 226 78 265
l-4 35 -26 -55 c-15 -30 -43 -111 -63 -180 -20 -69 -39 -127 -41 -129 -8 -8
-42 31 -48 55 -4 16 9 71 39 160 46 138 61 242 29 199 -8 -11 -22 -45 -30 -75
-30 -111 -46 -156 -66 -188 -11 -18 -22 -32 -24 -30 -2 2 15 109 36 238 43
255 82 531 100 705 10 99 19 124 42 125 4 0 12 -9 18 -19z m-2893 -242 c19 -7
65 -8 148 -1 66 5 126 6 133 3 17 -10 -108 -40 -216 -52 -105 -12 -216 2 -314
38 -68 25 -69 27 -46 39 13 7 71 18 128 24 58 6 107 14 109 16 3 2 10 -9 17
-26 8 -17 25 -35 41 -41z m928 9 c-13 -34 -93 -50 -114 -24 -16 19 1 29 64 36
59 7 57 7 50 -12z m351 -19 c83 -25 229 -100 306 -157 235 -173 376 -396 412
-650 l6 -43 -50 7 c-38 5 -56 3 -76 -11 -25 -16 -29 -16 -88 5 -262 95 -446
271 -486 467 -7 32 -10 99 -8 152 l5 96 -54 57 c-47 50 -69 98 -44 98 5 0 40
-9 77 -21z m2446 -41 c3 -45 -3 -74 -33 -162 -31 -91 -32 -114 -8 -174 12 -30
11 -39 -10 -95 -13 -34 -26 -77 -28 -94 -5 -28 -2 -33 16 -33 12 0 21 5 21 10
0 6 5 10 11 10 8 0 10 -22 6 -72 -15 -181 -20 -208 -34 -208 -46 0 -81 53
-109 164 -32 128 -79 141 -79 23 1 -68 28 -139 84 -221 l31 -44 -30 -57 c-17
-31 -30 -63 -30 -71 0 -15 -34 -37 -44 -27 -3 3 -6 17 -6 30 0 12 -4 23 -8 23
-5 0 -41 -56 -81 -125 -41 -69 -86 -142 -102 -161 -27 -34 -30 -54 -8 -54 5 0
27 16 49 36 22 20 43 34 47 31 7 -8 -44 -84 -69 -101 -21 -15 -14 -27 10 -19
10 4 41 27 71 52 60 50 57 32 -7 -48 -23 -28 -28 -40 -16 -33 46 25 116 110
179 217 80 134 116 181 133 171 7 -4 24 -31 38 -59 15 -29 37 -63 49 -77 l24
-25 -112 -145 c-62 -79 -145 -177 -185 -217 -41 -40 -69 -73 -64 -73 25 0 136
97 227 198 55 60 104 111 108 111 18 2 -82 -128 -168 -217 -93 -98 -219 -212
-234 -212 -5 0 -12 11 -15 24 -3 14 -62 84 -131 156 -121 127 -175 204 -175
251 0 21 -1 22 -20 4 -13 -12 -20 -31 -20 -55 0 -22 -7 -43 -16 -51 -15 -12
-16 -9 -9 41 44 344 209 711 489 1092 94 128 108 129 61 4 -27 -71 -32 -101
-15 -91 25 16 65 97 100 203 50 149 107 236 112 170z m-2720 -137 c140 -37
216 -90 257 -181 11 -25 21 -64 21 -86 0 -36 -6 -47 -43 -81 -23 -22 -66 -53
-95 -69 -56 -31 -61 -38 -35 -48 10 -4 29 2 46 14 l29 22 -12 -21 c-16 -31
-96 -87 -160 -112 -67 -27 -170 -78 -170 -84 0 -5 93 22 153 46 55 22 177 87
255 137 30 18 57 31 60 27 12 -12 -83 -89 -173 -139 -49 -28 -107 -64 -130
-81 -22 -18 -58 -34 -79 -38 -21 -3 -83 -28 -139 -54 l-102 -48 -200 0 c-182
0 -207 2 -275 23 -109 35 -199 85 -260 147 -64 65 -72 63 135 34 190 -27 436
-29 543 -5 166 36 317 102 469 203 46 31 80 59 77 64 -13 21 -56 5 -118 -44
-115 -92 -341 -165 -576 -188 -108 -10 -138 -9 -219 5 -98 17 -116 25 -296
120 -147 78 -255 145 -255 158 0 14 56 0 111 -27 l45 -23 56 49 56 49 94 -25
c51 -13 136 -28 188 -33 107 -10 313 0 410 19 l65 13 -30 13 c-23 10 -70 12
-200 7 -141 -4 -194 -2 -313 15 -78 12 -163 21 -188 21 -91 0 -24 54 85 69 66
9 78 14 106 44 36 39 118 65 295 92 58 9 112 18 120 20 8 2 83 2 165 0 108 -2
171 -9 227 -24z m2979 -63 c21 -83 23 -116 23 -303 0 -156 -5 -230 -17 -290
-9 -44 -17 -106 -17 -138 0 -64 -17 -112 -49 -141 -21 -19 -21 -19 -21 1 0 11
11 46 25 77 14 31 25 68 25 83 0 24 -1 25 -22 11 -13 -9 -32 -40 -43 -69 -14
-36 -30 -59 -48 -69 -27 -15 -29 -14 -60 21 -79 90 -95 115 -85 132 24 44 51
146 79 297 17 91 44 206 60 255 29 88 101 225 119 225 4 0 19 -42 31 -92z
m-1415 -520 c98 -109 168 -240 198 -372 23 -96 21 -114 -10 -122 -30 -8 -39 3
-49 55 -10 56 -30 78 -92 101 -120 44 -133 66 -143 235 -5 98 -4 123 8 138 23
27 36 21 88 -35z m-506 -140 c34 -23 114 -154 104 -170 -3 -4 -19 -8 -36 -8
-39 0 -78 41 -105 112 -12 29 -24 61 -28 71 -10 25 24 22 65 -5z m420 -215
c174 -150 303 -291 350 -385 32 -63 40 -91 40 -133 0 -78 -7 -91 -32 -60 -11
14 -34 33 -51 41 -18 9 -45 28 -61 43 l-29 26 7 -49 c3 -27 13 -63 21 -79 19
-38 19 -37 -3 -37 -35 0 -51 31 -54 105 -3 70 -3 70 -33 73 -33 4 -45 16 -45
48 0 12 -6 27 -14 33 -11 10 -16 8 -21 -8 -3 -11 -1 -29 4 -40 16 -28 13 -57
-5 -72 -15 -12 -24 -6 -75 51 l-59 65 0 -33 c0 -47 13 -67 98 -154 87 -88 80
-100 -26 -47 -149 74 -246 271 -274 559 -7 69 -8 151 -4 204 l8 89 77 -75 c42
-41 123 -115 181 -165z m1136 64 c-17 -45 -116 -201 -123 -194 -7 7 45 136 84
208 33 59 39 66 47 49 6 -13 3 -34 -8 -63z m522 -179 c25 -11 81 -55 126 -97
45 -42 98 -89 119 -105 21 -16 36 -34 33 -40 -35 -75 -87 -218 -105 -284 -48
-181 -66 -449 -35 -551 15 -52 12 -105 -7 -117 -15 -9 -85 53 -123 110 -88
133 -105 224 -116 621 -9 324 -16 382 -55 439 -28 41 -24 43 64 45 37 1 69 -6
99 -21z m484 -67 c31 -25 85 -142 97 -212 16 -93 24 -476 12 -569 -26 -193
-107 -370 -235 -508 l-39 -43 -24 23 c-61 57 -80 132 -94 378 -13 217 -7 371
17 463 8 34 44 127 78 207 35 80 71 170 79 201 12 38 24 59 39 67 33 15 42 14
70 -7z m-657 -100 c-10 -10 -36 -15 -77 -16 -56 0 -64 -3 -73 -22 -5 -13 -15
-23 -22 -23 -25 0 -12 36 38 104 l51 68 49 -48 c44 -43 47 -50 34 -63z m-35
-108 c40 -51 43 -93 25 -293 -18 -184 -18 -185 3 -245 22 -64 21 -75 -6 -59
-11 7 -19 30 -23 66 -7 61 -14 78 -33 78 -17 0 -26 -31 -26 -87 0 -32 17 -74
75 -188 70 -137 75 -150 74 -208 -1 -108 -9 -112 -61 -31 -63 97 -90 117 -151
111 -41 -4 -47 -2 -41 12 20 45 15 78 -21 146 -21 39 -44 82 -51 96 -12 23
-12 32 2 64 20 49 20 119 0 150 -15 23 -15 28 -1 62 9 21 24 76 35 124 20 94
46 152 92 211 27 34 31 36 58 26 17 -5 39 -21 50 -35z m-712 -240 c48 -65 107
-146 130 -179 42 -63 122 -214 122 -232 0 -6 -26 -5 -67 3 -193 38 -330 130
-390 263 -44 94 -34 230 24 345 l14 28 39 -55 c22 -31 79 -109 128 -173z
m-763 -93 c129 -14 229 -38 267 -63 18 -12 44 -44 57 -70 22 -45 24 -60 26
-235 2 -200 8 -229 60 -298 l25 -32 -50 -36 c-348 -250 -703 -359 -979 -301
-171 36 -347 133 -474 263 l-69 69 26 21 c14 11 54 25 88 31 l63 11 100 -50
c126 -63 229 -90 372 -97 104 -5 279 9 326 26 20 7 19 8 -3 24 -20 14 -42 16
-144 11 -91 -5 -118 -4 -110 5 12 14 86 26 253 41 145 13 251 42 251 68 0 9
14 29 31 43 l32 26 -84 -4 c-171 -8 -269 -32 -269 -65 0 -7 14 -8 39 -4 43 7
65 -7 28 -19 -12 -4 -83 -9 -157 -12 -127 -5 -196 2 -342 33 -25 6 -28 3 -28
-19 0 -28 16 -37 65 -37 19 0 37 -4 40 -10 4 -6 -17 -10 -57 -10 -235 1 -448
154 -533 383 -10 26 -16 50 -13 53 11 11 59 -9 124 -52 43 -28 78 -44 98 -44
52 0 60 11 58 84 l-1 67 80 39 c275 139 532 190 804 160z m-1645 -65 c0 -2
-11 -12 -24 -20 -34 -23 -120 -33 -206 -26 l-75 7 65 21 c46 15 91 22 153 22
48 1 87 -1 87 -4z m2100 -69 c29 -77 121 -135 293 -185 204 -60 253 -91 380
-245 48 -57 101 -116 119 -131 31 -26 31 -28 13 -41 -32 -24 -76 -17 -130 21
-28 19 -62 36 -75 37 -21 3 -25 -2 -28 -28 -4 -39 15 -56 108 -94 83 -34 110
-54 110 -82 0 -40 -169 -15 -338 50 -10 3 -13 -2 -10 -19 2 -19 14 -27 61 -42
83 -27 64 -41 -47 -34 -103 5 -162 26 -239 85 -100 76 -193 229 -241 393 -46
160 -62 313 -35 330 25 16 49 10 59 -15z m1934 -11 c13 -14 31 -55 40 -92 9
-36 23 -78 31 -93 13 -24 13 -30 0 -40 -12 -10 -22 -10 -46 1 -28 11 -33 10
-45 -6 -8 -11 -14 -44 -14 -78 0 -56 -20 -120 -42 -133 -12 -8 -5 407 7 444
10 29 40 28 69 -3z m-4084 -3 c0 -19 -27 -32 -67 -32 -24 0 -59 -7 -78 -14
-45 -19 -47 -38 -3 -25 39 11 108 12 108 2 -1 -5 -24 -19 -53 -33 -45 -22 -52
-29 -50 -52 3 -50 -55 -48 -124 4 l-32 25 29 22 c42 30 39 45 -7 37 -65 -11
-78 -11 -82 -1 -8 22 93 58 179 65 126 10 180 11 180 2z m4305 -208 c14 -19
38 -60 53 -92 26 -55 27 -64 27 -222 0 -154 -3 -178 -43 -372 -23 -114 -46
-248 -51 -297 -10 -92 -4 -231 9 -231 13 0 39 109 65 275 22 137 52 284 60
293 6 7 93 -31 122 -54 65 -49 84 -123 58 -223 -21 -81 -75 -202 -87 -195 -11
7 -5 26 43 140 38 89 49 147 29 159 -12 8 -40 -48 -85 -175 -53 -148 -78 -202
-131 -281 l-45 -69 -52 26 c-29 15 -112 64 -185 110 -74 46 -135 84 -137 84
-9 0 -12 -46 -4 -67 12 -32 -7 -27 -35 10 -19 26 -19 28 -2 144 11 76 14 127
8 142 -8 24 -9 24 -31 -12 -12 -20 -27 -51 -32 -69 -15 -50 -12 -193 5 -282 9
-44 15 -80 13 -81 -1 -1 -16 2 -34 7 -86 23 -104 149 -59 416 18 111 31 160
46 179 11 14 20 30 20 35 0 6 11 32 25 60 18 35 25 66 25 105 0 51 3 59 44
105 44 50 68 93 142 256 25 55 42 81 51 78 23 -9 43 5 69 50 26 44 28 73 9
118 -12 28 55 -24 90 -70z m345 -79 c97 -242 104 -271 104 -435 0 -111 -4
-154 -16 -185 -16 -40 -17 -39 -17 112 -1 87 -6 164 -12 180 l-12 28 -18 -41
c-17 -37 -17 -50 -7 -120 6 -44 8 -92 4 -108 -6 -26 -10 -28 -42 -23 -53 9
-102 44 -126 90 -23 46 -24 78 -15 376 l6 184 42 43 c24 24 46 41 50 36 4 -4
31 -65 59 -137z m-4530 5 c20 -14 6 -23 -89 -55 -40 -13 -89 -36 -108 -51 -44
-33 -55 -23 -18 16 16 17 23 30 16 30 -23 0 10 31 54 51 43 20 121 25 145 9z
m3290 -160 c77 -55 166 -176 231 -314 34 -73 79 -211 79 -243 0 -25 -40 -12
-67 22 -15 19 -31 35 -35 35 -17 0 -7 -64 18 -111 14 -28 24 -53 21 -55 -9 -9
-147 98 -190 147 -54 61 -109 167 -132 254 -9 33 -19 113 -22 179 l-6 119 39
-7 c21 -4 50 -16 64 -26z m-2810 -235 c7 -9 11 -16 9 -18 -22 -12 -171 -57
-191 -57 -32 0 -58 9 -58 21 0 4 28 22 63 38 71 35 155 42 177 16z m2570 -64
c80 -61 150 -140 287 -323 58 -79 126 -167 150 -196 l45 -52 -17 -43 c-11 -30
-15 -67 -13 -132 l3 -90 55 -17 c30 -9 86 -23 123 -32 79 -18 160 -56 201 -94
15 -15 54 -66 86 -113 67 -99 96 -120 273 -203 65 -31 138 -69 162 -86 50 -34
89 -95 99 -153 6 -32 3 -44 -19 -73 -14 -19 -35 -34 -46 -34 -29 0 -33 -24
-16 -85 26 -93 -21 -87 -82 10 -22 36 -44 65 -49 65 -16 0 -34 -57 -27 -82 4
-13 44 -61 89 -107 l81 -84 -53 5 c-41 4 -60 12 -83 34 -49 47 -98 125 -137
220 -61 147 -78 161 -108 88 -19 -46 -7 -73 76 -161 70 -73 81 -98 58 -122
-11 -10 -9 -15 6 -27 11 -8 30 -14 42 -14 24 0 49 -24 40 -39 -4 -5 -28 -13
-54 -16 -26 -4 -59 -10 -74 -15 -32 -10 -56 12 -85 80 -22 51 -47 77 -58 60
-12 -19 6 -71 38 -107 l31 -36 -34 8 c-85 18 -141 65 -171 144 -18 48 -23 88
-29 271 -4 118 -13 230 -18 248 -18 54 -57 114 -122 186 -68 75 -101 124 -120
178 -12 31 -18 36 -36 32 -64 -16 -167 54 -214 147 -17 32 -24 39 -31 28 -26
-41 -2 -78 114 -176 20 -17 37 -36 37 -42 0 -17 -77 -13 -116 5 -43 21 -132
116 -180 194 -29 48 -40 58 -50 49 -19 -15 -18 -49 2 -77 9 -13 13 -30 10 -38
-9 -22 -46 -13 -67 16 -23 31 -49 181 -49 280 0 75 27 264 56 393 l16 69 -53
54 c-29 30 -49 54 -44 54 6 0 39 -22 75 -49z m-2556 -10 c11 -17 -74 -71 -112
-71 -33 0 -44 24 -19 40 55 36 119 51 131 31z m2231 -121 c43 -11 98 -31 123
-45 l45 -25 34 21 c55 34 58 20 28 -147 -31 -168 -32 -295 -2 -351 l17 -33
-57 -45 c-128 -102 -237 -148 -458 -195 -83 -17 -172 -39 -198 -47 -46 -15
-49 -15 -70 5 -48 44 -86 55 -167 49 l-77 -6 -49 50 c-92 95 -209 160 -287
159 -18 -1 -50 -7 -72 -15 -48 -18 -45 -17 -45 -4 0 6 32 44 70 83 39 40 70
76 70 81 0 4 -44 5 -97 1 -54 -3 -143 -9 -199 -12 -119 -8 -181 4 -245 47 -51
34 -50 34 58 15 150 -27 174 -25 318 29 156 57 231 66 374 41 180 -31 383 -12
550 51 39 15 42 18 25 30 -25 18 -74 16 -174 -7 -136 -31 -231 -28 -520 20
-192 31 -197 31 -203 16 -8 -19 1 -26 35 -26 53 0 29 -32 -56 -74 -90 -45
-194 -59 -254 -35 l-33 14 38 39 c40 40 69 56 108 56 17 0 26 8 34 30 12 35
18 36 50 14 22 -16 24 -16 33 0 18 32 52 56 87 61 49 8 117 43 144 74 21 25
26 26 142 28 76 1 193 12 320 32 264 40 244 38 371 40 82 1 131 -4 189 -19z
m-1441 -129 c-35 -22 -66 -60 -58 -73 3 -4 15 -8 26 -8 42 0 6 -14 -54 -21
-33 -4 -64 -13 -69 -21 -5 -7 -5 -14 -1 -15 4 -1 19 -4 35 -7 46 -10 32 -34
-30 -52 -47 -14 -65 -15 -110 -4 -29 6 -53 15 -53 20 0 16 136 111 224 155 88
45 150 63 90 26z m3295 -68 c-23 -120 -63 -207 -148 -319 -61 -82 -178 -201
-187 -191 -11 11 27 66 58 85 79 49 127 120 193 287 41 104 80 185 90 185 1 0
-2 -21 -6 -47z m321 19 c22 -11 57 -48 96 -102 33 -47 74 -94 91 -105 65 -43
68 -45 56 -51 -7 -3 -24 -14 -38 -26 l-25 -20 39 -28 c22 -16 52 -50 66 -75
42 -71 43 -133 5 -319 -23 -114 -31 -174 -27 -212 4 -38 2 -54 -8 -58 -18 -7
-25 3 -25 35 0 15 -4 31 -10 34 -15 9 -23 -41 -18 -115 4 -55 13 -82 46 -143
l40 -75 -29 -12 c-43 -18 -71 -6 -136 58 -167 164 -202 440 -117 910 23 126
24 145 11 160 -8 9 -29 45 -47 80 -18 34 -37 62 -41 62 -5 0 -9 5 -9 10 0 16
41 12 80 -8z m-163 -31 c45 -21 107 -80 136 -130 18 -31 18 -31 -3 -31 -27 0
-78 26 -111 57 l-26 24 -28 -33 c-36 -42 -50 -78 -65 -158 -11 -61 -40 -133
-58 -144 -5 -3 -12 50 -15 117 -9 155 11 287 46 309 21 14 81 8 124 -11z m848
-113 c1 -109 5 -154 28 -247 27 -115 27 -115 7 -136 -20 -21 -20 -21 7 -146
23 -110 26 -144 25 -300 -1 -123 3 -192 12 -230 l14 -54 -33 -28 c-24 -19 -40
-46 -55 -93 -16 -46 -35 -79 -62 -106 l-40 -40 -66 65 c-37 35 -77 67 -90 71
-18 6 -21 12 -15 29 16 44 7 86 -30 141 -47 70 -56 114 -57 256 0 165 48 377
134 597 20 52 23 71 17 117 l-8 55 89 66 c49 37 96 77 104 91 9 13 17 24 18
24 0 0 1 -60 1 -132z m-4600 -34 c39 -23 44 -29 30 -36 -23 -13 -60 -2 -113
34 -30 21 -40 33 -32 38 17 11 58 -2 115 -36z m3831 -99 l42 -52 -45 -189
c-38 -161 -45 -206 -46 -304 -2 -140 9 -177 95 -292 73 -98 108 -170 108 -220
0 -26 4 -38 14 -38 20 0 30 35 17 58 -13 24 -5 32 32 32 21 0 37 -9 56 -31 60
-72 102 -107 201 -169 57 -36 137 -96 177 -134 93 -87 124 -148 131 -254 l5
-76 -24 15 c-13 9 -43 51 -66 95 -45 83 -55 77 -27 -17 23 -79 51 -119 98
-140 l40 -18 -27 -10 c-66 -25 -137 -4 -137 41 0 23 -18 14 -29 -14 -6 -17
-15 -13 -96 47 -111 82 -214 182 -262 254 -41 61 -73 154 -73 211 l0 38 -72
16 c-183 41 -296 162 -348 371 -32 128 -25 329 18 495 28 111 96 288 127 337
19 29 34 21 91 -52z m-1815 -222 c5 -26 2 -33 -18 -42 -27 -12 -66 -14 -77 -4
-8 9 65 84 78 80 6 -2 13 -17 17 -34z m1104 -15 c122 -62 274 -246 325 -392
35 -103 33 -105 -67 -51 -249 135 -354 259 -388 457 l-6 37 38 -11 c21 -6 65
-24 98 -40z m-905 -80 l23 -21 -23 -19 c-23 -19 -23 -18 -51 8 -22 21 -26 31
-18 41 17 19 42 16 69 -9z m-68 -52 c28 -29 59 -68 56 -70 -71 -53 -128 -47
-128 13 0 23 34 71 51 71 4 0 14 -6 21 -14z m-447 -7 c4 -5 -1 -19 -12 -31
-23 -26 -185 -148 -196 -148 -14 0 100 141 134 166 35 26 64 31 74 13z m3531
-86 c17 -34 19 -61 20 -248 0 -179 3 -216 18 -252 21 -50 36 -53 65 -17 l21
26 35 -74 c113 -237 81 -604 -80 -916 -34 -66 -40 -66 -35 3 2 29 28 96 103
270 38 90 57 164 57 230 0 51 -24 170 -43 217 l-14 33 -11 -40 c-7 -22 -12
-101 -12 -175 0 -162 -11 -234 -45 -303 l-25 -52 5 55 c3 30 9 73 12 95 6 36
5 39 -10 26 -34 -28 -56 -79 -77 -181 -23 -110 -45 -167 -82 -212 l-23 -26
-90 22 c-222 55 -315 140 -315 292 0 121 61 260 237 544 100 160 171 296 198
378 14 43 16 72 10 145 -5 68 -3 100 7 122 17 37 41 75 49 75 3 0 14 -17 25
-37z m-4867 -64 c40 -14 39 -25 -1 -37 -96 -30 -152 -21 -101 15 15 12 37 23
48 26 11 2 20 5 21 6 1 0 15 -4 33 -10z m2109 -14 c34 -8 85 -27 114 -41 89
-45 208 -173 195 -209 -10 -24 -187 -105 -267 -121 -68 -14 -91 -14 -259 1
l-183 17 -76 -22 c-66 -20 -89 -22 -177 -16 -195 12 -370 53 -500 116 -94 45
-126 75 -134 127 -6 35 -9 38 -38 39 -18 0 -35 2 -38 5 -2 3 13 23 35 44 22
22 40 44 40 51 0 15 28 26 51 19 9 -3 29 -21 42 -39 23 -29 33 -34 84 -39 80
-8 256 7 491 43 344 53 476 58 620 25z m-1300 -274 c135 -78 367 -150 562
-172 60 -7 106 -17 103 -22 -3 -5 -20 -6 -38 -3 -37 7 -53 -5 -30 -24 20 -17
131 -24 184 -12 24 6 39 7 35 3 -17 -15 -175 -82 -267 -113 -84 -30 -103 -32
-217 -33 -122 0 -127 1 -190 32 -44 22 -104 69 -188 147 -68 63 -153 134 -190
157 -37 24 -69 45 -72 47 -7 5 23 22 41 22 9 0 36 -13 60 -30 66 -44 110 -40
123 13 3 15 9 27 12 27 3 0 36 -17 72 -39z m4624 -191 c30 -77 36 -247 13
-361 -23 -117 -74 -264 -157 -454 -34 -77 -44 -88 -69 -74 -10 5 -20 9 -22 9
-3 0 -31 -39 -63 -86 -51 -76 -125 -154 -145 -154 -4 0 -11 9 -14 21 -5 14 6
47 34 102 61 125 160 510 226 886 l25 144 52 48 53 47 23 -36 c12 -21 32 -62
44 -92z m-3053 13 c-51 -76 -227 -243 -319 -304 -201 -133 -428 -220 -648
-249 -77 -10 -84 -10 -109 9 -30 25 -72 26 -130 6 -63 -22 -146 -3 -322 75
-48 20 -101 41 -118 44 -40 9 -42 24 -8 56 23 22 33 24 103 22 99 -4 212 25
432 111 259 102 310 115 498 132 188 18 191 18 397 85 174 56 179 57 223 59
l33 1 -32 -47z m845 -72 c7 -34 6 -45 -5 -52 -22 -14 -31 -6 -45 39 -10 37
-10 43 5 52 26 15 35 7 45 -39z m20 -212 c15 -12 39 -47 52 -78 44 -99 85
-126 294 -195 164 -54 246 -101 340 -195 96 -96 234 -277 226 -297 -9 -24 -35
-28 -56 -9 -19 18 -20 17 -20 -9 0 -32 14 -61 43 -94 25 -27 16 -36 -40 -47
-62 -11 -92 17 -142 133 -24 56 -48 99 -53 96 -20 -13 -48 -90 -48 -134 0 -25
9 -77 20 -115 11 -38 20 -80 20 -92 0 -43 -67 -42 -162 2 -61 28 -86 31 -113
11 -17 -13 -23 -11 -56 15 -52 41 -138 150 -200 254 -29 50 -55 92 -57 95 -10
14 -22 -31 -19 -71 6 -73 44 -136 142 -235 75 -76 105 -98 175 -132 47 -22
135 -52 195 -67 111 -28 195 -61 195 -75 0 -13 -69 -22 -179 -21 -299 1 -512
158 -603 445 -14 42 -21 103 -25 193 -6 140 1 201 39 331 l21 72 -21 23 c-11
12 -26 45 -32 72 -6 28 -18 61 -26 74 -17 25 -13 34 28 56 32 18 32 18 62 -6z
m-809 -160 c44 -5 84 -9 90 -9 5 -1 -15 -11 -47 -24 -178 -75 -344 -73 -412 2
-23 27 -16 30 81 41 71 9 153 6 288 -10z m3211 -125 l-27 -84 26 -73 c120
-332 120 -632 -1 -920 -48 -115 -126 -252 -200 -351 -36 -47 -69 -98 -73 -114
-4 -15 -6 -59 -3 -99 l4 -71 42 29 c62 43 89 46 115 13 30 -38 27 -92 -8 -162
l-29 -57 14 -115 c16 -136 53 -271 97 -354 41 -77 123 -166 211 -227 59 -42
76 -49 115 -49 79 0 77 11 -11 76 -103 74 -211 182 -265 262 -63 94 -85 161
-91 272 -4 85 -1 103 23 170 30 83 30 90 20 172 -10 75 10 129 70 188 25 24
45 39 45 33 0 -7 -4 -15 -10 -18 -24 -15 -7 -32 43 -44 79 -18 205 -83 274
-143 89 -75 156 -164 213 -282 74 -153 95 -248 95 -433 l0 -153 -72 -72 -72
-72 -41 19 c-41 18 -44 18 -131 1 -49 -10 -100 -15 -114 -12 -20 5 -25 3 -25
-13 0 -14 13 -24 48 -36 93 -33 96 -35 83 -48 -8 -8 -46 -12 -104 -12 -98 0
-136 13 -242 85 -22 14 -56 36 -76 48 l-36 22 -42 -31 -41 -31 -83 12 c-101
14 -203 3 -379 -41 -212 -53 -181 -60 87 -19 117 18 169 23 231 21 l30 -1 -6
-53 c-4 -28 -9 -59 -11 -67 -6 -22 27 -23 116 -2 44 11 82 18 84 16 10 -9 -23
-33 -67 -49 -114 -43 -142 -57 -142 -76 0 -30 -74 -95 -152 -135 -84 -42 -201
-84 -235 -84 -13 0 -23 -4 -23 -10 0 -19 91 -10 168 16 110 36 214 95 307 174
98 83 142 110 178 110 48 0 39 -10 -121 -129 -101 -76 -161 -111 -261 -155
-151 -67 -216 -80 -396 -80 -177 -1 -189 1 -470 76 -177 47 -235 68 -191 68
63 0 1146 277 1146 293 0 17 -57 28 -110 22 -72 -8 -241 -65 -349 -116 -67
-32 -96 -41 -134 -40 -26 1 -105 -8 -175 -20 -215 -38 -304 -28 -346 35 -15
24 -15 26 5 37 12 6 36 8 56 4 46 -8 140 23 399 134 312 133 399 155 525 131
65 -12 74 -12 118 7 l48 20 21 -24 c20 -22 27 -24 79 -17 32 3 59 7 60 9 2 1
-5 33 -15 71 -33 130 -99 209 -169 201 -25 -2 -30 0 -21 10 6 7 16 13 23 13
22 0 27 68 14 224 -11 132 -11 163 3 227 8 41 18 81 22 90 6 13 2 16 -17 12
-22 -4 -24 -2 -19 22 4 24 3 26 -14 17 -11 -6 -44 -36 -74 -66 -30 -31 -60
-56 -67 -56 -26 0 -12 43 32 97 25 31 44 58 41 60 -3 3 -21 -5 -41 -17 -42
-26 -79 -86 -96 -155 -6 -27 -16 -57 -20 -66 -18 -35 -296 -234 -449 -321
-122 -69 -319 -138 -395 -138 -19 0 -35 -5 -35 -11 0 -18 125 -5 200 21 132
45 411 188 493 252 82 65 28 12 -133 -131 -145 -130 -174 -151 -202 -151 -18
0 -107 -21 -198 -46 -165 -46 -313 -66 -374 -50 -13 3 -45 24 -70 45 -43 38
-48 39 -98 34 -52 -5 -53 -5 -86 36 -57 71 -169 121 -274 121 -54 0 -61 12
-20 36 84 51 134 90 148 114 14 23 31 30 113 50 53 12 195 56 316 97 121 41
261 88 310 104 155 52 329 97 429 110 126 17 103 34 -44 33 -117 -1 -247 -29
-379 -83 -41 -17 -77 -29 -79 -27 -8 8 138 87 224 122 173 70 240 87 354 88
109 1 168 -15 242 -66 36 -25 42 -23 83 17 47 47 46 76 -5 126 -45 45 -72 118
-96 269 -28 168 -1 339 75 475 16 28 31 67 35 89 12 61 48 135 157 318 65 109
112 200 130 252 23 69 32 84 60 100 55 32 116 84 146 126 38 53 41 28 9 -76z
m-2619 10 c94 -31 131 -95 118 -199 -8 -65 5 -58 -193 -116 -145 -43 -192 -63
-264 -116 l-47 -34 -146 10 c-80 6 -150 13 -156 17 -7 4 -9 -3 -7 -17 2 -14
17 -31 38 -43 78 -46 362 -10 567 70 119 47 153 53 173 29 7 -9 11 -17 9 -18
-2 -1 -28 -22 -58 -46 -154 -126 -311 -191 -486 -198 -113 -5 -431 26 -504 49
-53 17 -117 83 -201 208 -120 180 -148 199 -318 218 -45 5 -89 15 -98 23 -14
11 -13 14 8 25 13 6 66 17 118 23 60 8 115 21 150 37 51 24 67 26 230 28 106
2 266 13 405 29 127 15 246 28 265 30 19 2 106 5 192 5 121 2 168 -2 205 -14z
m-2340 -40 c39 -9 87 -13 113 -10 l45 5 -35 -18 c-71 -37 -211 -34 -296 6 -30
15 -32 18 -17 24 32 13 119 10 190 -7z m397 -75 c-38 -41 -84 -63 -166 -82
-114 -25 -74 16 46 48 37 10 82 29 100 41 45 32 54 29 20 -7z m4776 -43 c0
-40 12 -84 45 -171 70 -181 89 -262 89 -390 1 -125 -20 -212 -80 -325 -39 -74
-42 -96 -14 -103 11 -3 20 -10 20 -15 0 -5 -56 -58 -125 -116 -118 -101 -177
-164 -190 -206 -3 -10 -26 -26 -51 -36 -25 -10 -63 -30 -85 -46 -21 -15 -39
-25 -39 -22 0 3 24 47 54 97 164 280 276 569 311 801 25 170 18 293 -26 440
l-20 69 42 38 c59 53 69 51 69 -15z m-1640 -111 c11 -14 16 -182 5 -193 -2 -2
-11 -2 -20 1 -11 5 -15 22 -15 71 0 36 -5 77 -10 92 -8 21 -8 29 2 36 18 11
24 10 38 -7z m-3237 -34 c-1 -37 -27 -71 -55 -71 -22 0 -23 18 -2 48 8 12 12
27 8 33 -8 13 15 30 36 26 10 -2 14 -13 13 -36z m3537 -132 c41 -11 121 -42
178 -70 127 -61 226 -152 269 -245 38 -84 43 -186 13 -288 -13 -42 -26 -76
-30 -76 -8 0 -25 55 -36 113 -4 27 -9 35 -15 25 -13 -20 -10 -123 6 -223 8
-49 15 -100 15 -112 0 -66 -59 18 -100 142 -45 134 -81 192 -135 215 -53 23
-61 38 -121 212 -49 142 -85 205 -138 237 -35 22 -96 85 -96 100 0 10 95 -4
190 -30z m-1371 -155 c5 -32 12 -66 16 -75 9 -24 -111 -112 -240 -174 -60 -30
-122 -57 -137 -60 -49 -12 -31 -28 26 -23 90 7 250 94 354 191 34 32 39 27 21
-20 -35 -93 -258 -236 -443 -283 -104 -26 -243 -27 -351 -1 -89 22 -164 49
-398 145 -87 35 -176 67 -198 71 -21 4 -39 10 -39 14 0 4 22 18 49 31 53 24
81 58 39 46 -51 -15 -88 -18 -88 -8 0 6 22 15 49 21 103 22 207 23 409 6 230
-20 433 -16 526 9 92 26 214 82 301 140 54 36 82 49 87 41 4 -6 11 -38 17 -71z
m1219 -93 c15 -15 49 -52 75 -84 27 -31 55 -57 63 -57 8 0 14 -5 14 -10 0 -11
-39 -7 -111 11 -98 25 -198 160 -126 171 34 6 55 -2 85 -31z m-313 -23 c459
-201 680 -386 798 -671 16 -36 15 -38 -8 -53 -29 -19 -51 -13 -100 26 -33 26
-85 41 -85 25 0 -29 38 -67 99 -99 64 -33 111 -75 111 -97 0 -21 -211 29 -285
67 -27 15 -69 41 -91 60 -45 36 -54 35 -54 -6 0 -36 20 -52 113 -90 42 -17 77
-33 77 -35 0 -2 3 -11 7 -21 6 -15 1 -17 -43 -11 -27 3 -83 20 -124 36 -41 16
-78 27 -82 25 -5 -3 -8 -22 -8 -43 0 -21 -5 -52 -11 -69 -10 -30 -13 -32 -52
-26 -177 25 -267 114 -318 311 -31 124 -22 357 19 464 9 22 3 36 -39 105 -27
44 -52 98 -56 118 -6 37 -5 38 18 31 13 -4 65 -25 114 -47z m2272 -199 c46
-22 79 -60 138 -158 36 -60 37 -66 26 -95 -68 -164 -91 -260 -116 -471 -22
-187 -45 -316 -56 -309 -17 10 -66 117 -92 199 -68 219 -60 548 20 802 9 29
21 53 27 53 5 0 29 -9 53 -21z m-4747 -26 c33 -9 60 -19 60 -23 0 -4 -9 -15
-19 -24 -18 -16 -21 -16 -68 8 -27 13 -66 27 -86 31 -20 4 -34 11 -31 16 8 14
79 10 144 -8z m5075 -118 c233 -166 325 -435 251 -728 -41 -160 -46 -152 -39
58 4 134 2 211 -6 257 -13 68 -65 173 -81 163 -22 -14 -29 -77 -13 -119 55
-148 55 -148 55 -271 0 -89 -6 -141 -21 -200 -21 -78 -98 -255 -111 -255 -8 0
1 71 30 220 25 129 23 215 -5 270 -18 34 -18 34 -27 11 -5 -14 -13 -110 -18
-215 -9 -186 -17 -255 -41 -343 -13 -49 -21 -52 -43 -21 -12 16 -16 47 -16
106 0 62 -3 83 -12 80 -8 -3 -14 -29 -16 -71 -2 -37 -7 -67 -12 -67 -23 0 -39
50 -46 138 -4 50 -10 92 -15 92 -13 0 -24 -89 -24 -197 0 -70 -4 -103 -11
-103 -19 0 -37 29 -35 58 0 15 2 144 4 287 3 243 15 369 37 405 7 12 12 11 30
-5 36 -33 50 -70 65 -179 19 -136 25 -150 41 -105 22 59 16 170 -17 332 -37
180 -36 292 1 390 12 31 24 57 27 57 3 0 34 -20 68 -45z m-4911 29 c9 -3 16
-10 16 -15 0 -13 -56 -39 -83 -39 -14 0 -35 -9 -48 -20 l-24 -19 38 -1 c21 0
69 5 108 11 52 8 78 8 106 -2 l36 -12 -29 -15 c-20 -11 -75 -17 -179 -22 -82
-4 -151 -6 -153 -4 -9 7 79 90 123 115 52 30 63 33 89 23z m4406 -99 c0 -8
-21 -39 -47 -68 -27 -30 -56 -64 -65 -75 -10 -12 -22 -22 -28 -22 -17 0 -29
36 -27 76 3 44 29 64 85 64 25 0 35 5 39 20 6 23 43 27 43 5z m-36 -171 c22
-9 39 -79 31 -133 -9 -64 -36 -161 -45 -161 -12 0 -57 111 -65 158 -4 23 -4
65 0 92 6 47 9 50 35 50 16 0 35 -3 44 -6z m-3688 -509 c16 -13 17 -16 4 -25
-43 -29 -126 -38 -154 -17 -17 12 -13 15 35 35 65 25 89 27 115 7z m2844 -54
c16 -31 13 -81 -5 -81 -26 0 -96 40 -89 51 7 12 65 49 76 49 4 0 12 -9 18 -19z
m-1760 -246 c0 -37 -63 -95 -103 -95 l-31 0 59 60 c33 33 63 60 67 60 4 0 8
-11 8 -25z m-980 -64 c0 -5 -15 -20 -32 -33 -26 -18 -47 -23 -105 -24 -76 -1
-82 5 -30 33 52 27 167 44 167 24z m3977 -146 l22 -15 -22 -36 c-12 -19 -32
-47 -44 -62 l-22 -27 -1 24 c0 20 7 51 26 119 4 16 15 15 41 -3z m-1337 -91
c74 -17 200 -72 200 -87 0 -6 -40 -7 -112 -3 -108 7 -115 6 -161 -18 -38 -20
-52 -24 -73 -16 -14 6 -39 10 -55 10 -29 0 -79 -25 -79 -40 0 -14 28 -19 59
-10 19 5 31 5 31 0 0 -16 -77 -50 -148 -65 -76 -16 -113 -29 -155 -58 -22 -15
-40 -18 -79 -15 -48 5 -52 4 -84 -32 -61 -68 -208 -130 -306 -130 -89 0 -117
36 -50 63 20 8 102 35 182 61 80 25 150 49 156 53 6 5 21 28 34 53 80 160 93
172 238 209 171 45 288 52 402 25z m-1320 -163 c0 -22 -35 -46 -97 -65 -55
-17 -8 40 50 61 41 15 47 15 47 4z m2702 -337 c59 -20 153 -105 197 -178 19
-31 31 -59 28 -62 -10 -10 -74 16 -134 55 -71 46 -215 180 -207 192 8 14 66
11 116 -7z m-804 -89 c11 -10 8 -20 -18 -59 -17 -25 -33 -46 -34 -46 -2 0 -1
11 2 25 6 36 -16 32 -66 -11 -23 -19 -42 -33 -42 -29 0 14 24 52 53 83 49 51
10 38 -48 -17 -29 -28 -51 -52 -48 -55 10 -10 -28 -64 -64 -92 -63 -47 -134
-117 -148 -145 -20 -38 -104 -62 -245 -68 l-115 -6 -83 -59 c-83 -58 -84 -59
-122 -46 -23 8 -62 10 -101 7 -35 -3 -97 -9 -138 -13 -61 -6 -80 -4 -108 11
-18 10 -33 22 -33 26 0 18 84 30 255 39 187 10 235 16 235 31 0 12 -96 11
-180 -2 -74 -11 -155 2 -147 24 2 6 30 22 62 34 33 13 65 29 73 36 10 11 22
12 52 3 50 -13 159 4 284 46 109 36 422 188 526 255 71 46 78 49 130 45 30 -2
61 -10 68 -17z m776 -109 c73 -25 206 -100 206 -117 0 -17 -87 -80 -123 -90
-47 -12 -85 -5 -157 31 -77 38 -109 45 -117 24 -4 -11 2 -23 20 -36 36 -26 34
-36 -9 -44 -78 -14 -167 37 -232 136 -23 34 -42 66 -42 71 0 7 77 33 155 53
11 3 65 3 120 2 75 -3 120 -10 179 -30z m654 -78 c31 -29 54 -80 85 -190 19
-69 22 -88 11 -92 -19 -7 -44 21 -44 48 0 13 -7 30 -16 37 -16 13 -16 8 -10
-61 4 -41 9 -95 12 -120 7 -67 -4 -77 -60 -56 -107 41 -149 172 -112 346 8 36
19 78 25 94 10 26 15 28 48 23 20 -4 47 -17 61 -29z m-2163 -329 c-59 -22 -89
-29 -114 -24 -19 4 -30 10 -25 15 12 11 140 38 184 39 30 0 23 -5 -45 -30z
m2185 -518 c80 -16 156 -31 170 -33 36 -4 31 -31 -9 -42 -26 -7 -38 -19 -50
-48 -23 -54 -57 -66 -125 -45 -63 20 -86 21 -122 5 -24 -11 -29 -10 -50 15
-22 26 -46 91 -60 161 l-6 33 54 -8 c29 -4 118 -21 198 -38z m305 7 c37 -19
75 -61 75 -84 0 -12 -10 -33 -21 -48 -33 -42 -10 -52 36 -16 47 38 73 26 34
-16 -32 -35 -99 -84 -114 -84 -17 0 -31 38 -50 135 -8 44 -24 92 -35 107 -11
15 -20 29 -20 32 0 6 69 -13 95 -26z m460 -138 c21 -17 45 -40 52 -50 13 -18
12 -21 -12 -30 -14 -6 -32 -10 -39 -10 -8 0 -19 -7 -26 -15 -12 -14 -17 -12
-46 16 -89 86 -25 166 71 89z m-226 -146 c28 -36 28 -90 0 -97 -35 -9 -65 9
-94 58 -31 54 -25 65 37 65 28 0 42 -6 57 -26z m154 -109 c-32 -36 -69 -73
-83 -82 -22 -15 -21 -12 7 24 33 41 118 123 128 123 4 0 -20 -29 -52 -65z"/>
<path d="M2871 10565 c-12 -69 -9 -85 15 -85 11 0 14 16 14 75 0 41 -4 75 -8
75 -5 0 -14 -29 -21 -65z"/>
<path d="M2380 11072 c0 -5 12 -19 26 -33 14 -13 42 -51 62 -84 55 -93 80
-122 118 -140 20 -9 37 -15 39 -13 7 6 -80 175 -110 213 -28 37 -77 65 -115
65 -11 0 -20 -4 -20 -8z"/>
<path d="M2090 10472 c-8 -2 -23 -11 -32 -20 -22 -19 -7 -42 28 -42 15 0 24
-6 24 -16 0 -16 -11 -16 -67 1 -44 14 -23 -15 39 -56 103 -66 195 -83 281 -50
32 12 36 45 8 61 -11 5 -47 14 -81 18 -54 8 -67 14 -108 54 -50 48 -68 58 -92
50z"/>
<path d="M3630 10748 c-1 -44 -35 -123 -103 -237 -61 -102 -65 -111 -43 -111
7 0 19 -7 26 -15 11 -13 8 -26 -15 -75 -16 -33 -26 -63 -22 -66 3 -3 21 16 39
42 18 27 45 61 61 77 15 16 27 36 27 46 0 9 18 77 40 150 43 143 50 205 24
215 -28 11 -34 6 -34 -26z"/>
<path d="M3050 8095 c-10 -11 -9 -18 3 -30 14 -14 14 -20 1 -56 -23 -66 -21
-68 39 -56 35 6 108 6 222 -2 115 -8 191 -8 235 -1 36 5 69 10 74 10 5 0 2 7
-5 17 -29 34 -82 46 -244 54 -168 8 -209 17 -262 55 -37 28 -46 29 -63 9z"/>
<path d="M4021 7573 c-13 -3 -79 -27 -145 -55 -143 -59 -210 -84 -251 -93 -28
-7 -29 -8 -9 -17 16 -7 44 -4 103 11 44 12 93 21 108 21 43 0 14 -18 -47 -30
-75 -14 -87 -30 -24 -30 68 0 138 22 273 86 97 46 112 56 101 69 -7 8 -10 22
-6 30 4 12 -3 15 -37 14 -23 -1 -53 -4 -66 -6z"/>
<path d="M5015 6755 c-27 -7 -109 -38 -181 -68 -72 -30 -145 -58 -162 -62 -45
-10 -48 -23 -7 -31 39 -7 81 2 228 47 126 39 189 36 72 -3 -211 -72 -421 -99
-621 -81 -66 6 -121 10 -122 8 -2 -2 27 -13 65 -25 191 -59 392 -43 668 55
177 63 261 115 186 115 -37 0 -38 6 -9 37 l21 23 -44 -1 c-24 0 -66 -6 -94
-14z"/>
<path d="M7860 6405 c-12 -11 -14 -30 -10 -78 7 -88 -6 -324 -24 -440 -21
-128 -21 -149 1 -145 24 4 40 40 60 134 24 111 26 537 3 542 -8 1 -22 -4 -30
-13z"/>
<path d="M7772 5950 c-24 -38 -28 -89 -12 -121 13 -23 35 -26 26 -3 -4 9 -1
43 5 75 15 76 8 93 -19 49z"/>
<path d="M8241 5665 c-40 -87 -100 -277 -116 -369 -17 -98 -20 -226 -6 -226
17 0 69 90 76 130 4 22 1 73 -6 114 -15 96 -10 126 41 236 31 67 40 99 38 127
l-4 38 -23 -50z"/>
<path d="M5929 6055 c-3 -2 -74 -11 -159 -20 -85 -9 -171 -20 -190 -24 l-35
-8 50 -9 c88 -15 205 -8 266 15 56 21 103 50 83 51 -6 0 -13 -2 -15 -5z"/>
<path d="M8998 5454 c-10 -27 -33 -114 -53 -194 -20 -80 -47 -170 -61 -200
-38 -85 5 -24 56 79 53 107 82 219 78 302 l-3 63 -17 -50z"/>
<path d="M5655 5599 c-205 -127 -219 -133 -408 -163 -57 -9 -103 -24 -133 -41
-25 -15 -44 -29 -41 -31 5 -6 341 82 407 107 99 37 189 90 252 150 35 32 61
58 58 58 -3 1 -63 -36 -135 -80z"/>
<path d="M7172 4961 c-20 -12 22 -96 75 -148 36 -36 49 -43 83 -43 22 0 40 5
40 10 0 21 -43 96 -74 128 -49 53 -94 72 -124 53z"/>
<path d="M9246 4530 c-9 -29 -23 -112 -32 -183 -18 -152 -44 -243 -87 -309
-17 -26 -33 -46 -35 -43 -2 2 8 35 22 75 26 71 34 140 17 140 -5 0 -27 -42
-50 -93 -73 -168 -76 -242 -8 -235 29 3 35 10 79 98 92 186 145 384 136 512
-7 93 -22 106 -42 38z"/>
<path d="M8635 3464 c-11 -8 -46 -29 -78 -46 -32 -17 -77 -48 -100 -68 -33
-29 -98 -57 -317 -140 -243 -91 -282 -103 -332 -101 -58 2 -102 -13 -127 -43
-11 -14 -11 -16 6 -16 33 0 418 99 510 131 156 54 340 155 416 228 58 55 74
95 22 55z"/>
<path d="M9302 3370 c-18 -8 -21 -14 -16 -37 34 -142 132 -320 209 -378 17
-14 35 -25 38 -25 13 0 7 22 -12 47 -11 13 -17 31 -14 39 5 12 10 11 32 -9 14
-13 38 -32 52 -41 29 -18 89 -38 89 -29 0 3 -26 39 -57 80 -74 97 -151 167
-208 188 l-45 18 0 56 c0 35 -6 65 -16 79 -17 24 -19 25 -52 12z"/>
<path d="M8576 3304 c-59 -51 -196 -143 -358 -239 -78 -46 -138 -85 -131 -85
23 0 171 68 249 114 95 56 208 148 253 205 18 22 31 41 29 41 -1 -1 -21 -16
-42 -36z"/>
<path d="M8723 2366 c-50 -16 -113 -54 -113 -68 0 -7 4 -7 13 0 6 6 41 15 76
22 58 10 141 43 141 55 0 10 -76 3 -117 -9z"/>
<path d="M8630 2238 c-134 -30 -263 -79 -227 -86 24 -5 208 35 274 59 41 16
115 61 93 57 -3 0 -66 -14 -140 -30z"/>
<path d="M9486 4268 c-19 -30 -58 -129 -53 -135 8 -7 65 92 72 125 8 38 1 41
-19 10z"/>
<path d="M7812 3877 c-17 -20 17 -78 59 -102 20 -11 48 -28 63 -39 39 -27 47
-9 9 22 -17 15 -43 51 -57 80 -27 53 -52 66 -74 39z"/>
<path d="M9015 2075 c-53 -16 -98 -40 -116 -61 -13 -16 -12 -17 6 -9 11 4 42
14 70 21 45 13 96 47 84 58 -2 2 -22 -2 -44 -9z"/>
<path d="M538 9673 c-10 -2 -18 -7 -18 -9 0 -3 22 -37 49 -77 27 -40 58 -91
70 -114 14 -28 28 -43 40 -43 37 0 179 -82 321 -186 116 -85 184 -125 336
-200 238 -117 292 -152 409 -264 100 -94 153 -123 196 -103 21 9 19 12 -35 59
-58 49 -92 97 -81 113 9 16 43 0 89 -40 l44 -39 108 34 c369 116 645 154 803
110 58 -16 151 -13 151 5 0 27 -146 61 -260 61 -96 0 -509 -24 -480 -28 47 -7
41 -19 -17 -40 -100 -37 -174 -52 -259 -52 -70 0 -89 4 -142 30 -33 17 -75 47
-92 66 -33 38 -43 37 -65 -7 -9 -17 -24 -29 -35 -29 -16 0 -19 8 -22 62 l-3
63 -185 77 c-226 94 -497 228 -605 298 -157 102 -212 149 -234 200 -11 26 -28
50 -37 54 -17 6 -19 6 -46 -1z"/>
<path d="M7267 3607 c-42 -26 -40 -37 8 -37 39 0 94 38 73 51 -21 14 -41 10
-81 -14z"/>
<path d="M7420 3512 c-74 -32 -164 -74 -200 -94 -67 -39 -127 -83 -100 -75
150 45 234 74 275 94 59 30 151 98 159 119 3 7 4 14 3 13 -1 0 -63 -26 -137
-57z"/>
</g>
</svg>
