<?xml version="1.0" encoding="utf-8"?>
<!-- Generator: Adobe Illustrator 22.1.0, SVG Export Plug-In . SVG Version: 6.00 Build 0)  -->
<svg version="1.1"
	 id="svg2" inkscape:output_extension="org.inkscape.output.svg.inkscape" inkscape:version="0.47 r22583" sodipodi:docname="wing variable sweep.svg" sodipodi:version="0.32" xmlns:cc="http://creativecommons.org/ns#" xmlns:dc="http://purl.org/dc/elements/1.1/" xmlns:inkscape="http://www.inkscape.org/namespaces/inkscape" xmlns:rdf="http://www.w3.org/1999/02/22-rdf-syntax-ns#" xmlns:sodipodi="http://sodipodi.sourceforge.net/DTD/sodipodi-0.dtd" xmlns:svg="http://www.w3.org/2000/svg"
	 xmlns="http://www.w3.org/2000/svg" xmlns:xlink="http://www.w3.org/1999/xlink" x="0px" y="0px" viewBox="0 0 260 220"
	 style="enable-background:new 0 0 260 220;" xml:space="preserve">
<style type="text/css">
	.st0{fill:none;stroke:#1F1A17;stroke-width:6.8182;}
	.st1{fill:none;stroke:#1F1A17;stroke-width:6.8182;stroke-dasharray:13.6364,13.6364;}
	.st2{fill:none;stroke:#000000;stroke-width:4.0909;}
	.st3{fill:none;stroke:#000000;stroke-width:6.8182;}
	.st4{fill:none;stroke:#1F1A17;stroke-width:4.0909;}
	.st5{fill:none;}
</style>
<sodipodi:namedview  bordercolor="#666666" borderopacity="1.0" gridtolerance="10.0" guidetolerance="10.0" id="base" inkscape:current-layer="svg2" inkscape:cx="86.95471" inkscape:cy="79.107138" inkscape:document-units="pt" inkscape:guide-bbox="true" inkscape:pageopacity="0.0" inkscape:pageshadow="2" inkscape:window-height="945" inkscape:window-maximized="0" inkscape:window-width="1272" inkscape:window-x="0" inkscape:window-y="51" inkscape:zoom="2" objecttolerance="10.0" pagecolor="#ffffff" showgrid="false" showguides="true">
	<sodipodi:guide  id="guide2385" orientation="1,0" position="376.16936,610.63108"></sodipodi:guide>
	<sodipodi:guide  id="guide3176" orientation="1,0" position="130.5,244.5"></sodipodi:guide>
</sodipodi:namedview>
<defs>
	
	
		<inkscape:perspective  id="perspective19" inkscape:persp3d-origin="300 : 200 : 1" inkscape:vp_x="0 : 300 : 1" inkscape:vp_y="0 : 1000 : 0" inkscape:vp_z="600 : 300 : 1" sodipodi:type="inkscape:persp3d">
		</inkscape:perspective>
</defs>
<g id="g3221" transform="translate(0.2767813,32.727271)">
	<path class="st0" d="M106.9,51.7c4.7,24.4,7.4,39.2,8.9,48.1l-52.7,46.6l-15.6-12.9L106.9,51.7z"/>
	<polygon class="st0" points="118.3,91.5 118.3,97.6 118.2,97.6 	"/>
	<polygon class="st0" points="118.7,61.1 118.3,91.5 118.5,60.9 	"/>
	<polygon class="st0" points="142.7,94.6 142.3,61.1 142.6,60.8 	"/>
	<polygon class="st0" points="142.7,94.7 142.8,97.6 142.7,97.6 142.7,97.6 	"/>
	<path class="st0" d="M213.5,133.5l-15.6,12.9l-52.7-46.6c1.6-8.9,4.3-23.6,8.9-48.1L213.5,133.5z"/>
</g>
<path id="path3211" sodipodi:nodetypes="ccccccc" class="st1" d="M17.7,88.6l113-6.5l113.2,6.5v20.2l-113.2,18.7l-113-18.7V88.6z"/>
<g id="g3738" transform="translate(0,32.727271)">
	<path class="st2" d="M118.9,32l-0.1,28.9l-0.1,30.6l-0.1,6.1l-2.4,2.1c-1.6-8.9-4.3-23.6-8.9-48.1c-0.2-0.9-0.3-1.8-0.5-2.8
		l12.2-21.6C118.8,28.9,118.8,30.4,118.9,32z"/>
	<path class="st2" d="M116.1,99.8l2.4-2.1l-0.2,15.6C118.3,113,118.2,111.3,116.1,99.8z"/>
	<path class="st2" d="M119.5,26.3L119,61.1l-0.4,30.4l0.1-30.6l0.1-28.9c0-1.6,0-3.2,0-4.7L119.5,26.3z"/>
	<path class="st2" d="M154.9,48.9c-0.2,0.9-0.3,1.9-0.5,2.8c-4.7,24.4-7.4,39.2-8.9,48.1l-2.4-2.1l0-2.9v-0.1l-0.1-33.8l-0.1-27.5
		c0-2,0-3.9,0-5.8L154.9,48.9z"/>
	<path class="st2" d="M142.9,60.8l0.1,33.8l-0.5-33.5l-0.5-34.8l0.7,1.3v0c0,1.9,0,3.8,0,5.8L142.9,60.8z"/>
	<path class="st2" d="M145.5,99.8c-2,11.5-2.2,13.2-2.2,13.5L143,97.6L145.5,99.8z"/>
</g>
<path class="st3" d="M119.2,163.4c0.9,15.5,2.6,32.2,4,43.1H78.5v-14.4l0.6-0.2L119.2,163.4z"/>
<path class="st3" d="M183.1,192.1v14.4h-44.9c1.4-10.7,3.1-27.3,4.1-42.8l40.2,28.2L183.1,192.1z"/>
<path class="st4" d="M143,143.1c0,6.1-0.3,13.2-0.7,20.5c-1,15.5-2.8,32.1-4.1,42.8h-15c-1.4-10.8-3.1-27.5-4-43.1
	c-0.4-7.2-0.7-14.1-0.6-20.1l0.1-13l0-6.1l0.4-30.4l0.5-34.8l-0.6,1.1c0.4-36.4,8.4-52,11.9-52c3.6,0,11.4,15.6,12,52.2l-0.7-1.3
	l0.5,34.8l0.5,33.5v0.1l0,2.9v0L143,143.1z"/>
<path class="st4" d="M138.2,206.5c-0.4,3-0.7,5.6-1,7.5h-13c-0.3-2-0.7-4.5-1-7.5H138.2z"/>
<path class="st4" d="M119.5,59L119,93.9l-0.4,30.4l0.1-30.6l0.1-28.9c0-1.6,0-3.2,0-4.7L119.5,59z"/>
<path class="st4" d="M143,127.3l-0.5-33.5L142.1,59l0.7,1.3v0c0,1.9,0,3.8,0,5.8l0.1,27.5L143,127.3z"/>
<path id="path2404" sodipodi:nodetypes="cscscccc" class="st4" d="M128.1,175.1c-0.1-10.3,1.8-14.6,2.7-14.6c0.8,0,2.7,4.5,2.7,15
	l0,19.9c0,5.9-0.9,15.2-1.3,18.3h-2.9c-0.4-3.2-1.3-12.4-1.3-18.3L128.1,175.1z"/>
<g id="g5582" transform="translate(2.5479901,0)">
	<path class="st5" d=""/>
	<path id="path3780" d="M25.4,129.3l6.3-11.5l2.6,12.8C32,128.4,28.3,127.8,25.4,129.3z"/>
	<path id="path3742" sodipodi:nodetypes="cs" d="M30.7,142.7"/>
	<path class="st5" d=""/>
	<path id="path3780_1_" d="M222.2,130.7l2.6-12.8l6.3,11.5C228.2,127.8,224.6,128.4,222.2,130.7z"/>
	<path id="path5574" sodipodi:nodetypes="cs" d="M102,142.7"/>
</g>
</svg>
