<?xml version="1.0" encoding="utf-8"?>
<!-- Generator: Adobe Illustrator 22.1.0, SVG Export Plug-In . SVG Version: 6.00 Build 0)  -->
<svg version="1.1" id="Layer_1" xmlns="http://www.w3.org/2000/svg" xmlns:xlink="http://www.w3.org/1999/xlink" x="0px" y="0px"
	 viewBox="0 0 841.9 595.3" style="enable-background:new 0 0 841.9 595.3;" xml:space="preserve">
<style type="text/css">
	.st0{fill:none;stroke:#000000;stroke-miterlimit:10;}
</style>
<path class="st0" d="M582.9,270.7c0,0-9.9,13.9-12.1,16.1c-5,5-14.6,7.4-14.6,7.4s-5.8,22.3-8.8,43.3c-1.7,12.1-1.9,23.4-2.2,28.9
	c-0.9,15,2.4,21.4,1.9,27c-0.6,5.6-1,29.6-1,36.6s0.9,21.7,1.3,27c0.4,5.3,2,19.1,4.6,24.4c2.6,5.3,5.6,12.3,5.9,13.6
	c0.3,1.3-0.1,5.1,0.7,6.4c0.9,1.3,4.7,4.3,4.7,5.3s-7.4,7.6-14.3,7.1c-6.9-0.4-10.7,1.4-14.3,0.4c-3.6-1-3.4-1.1-5.7-2.7
	c-2.3-1.6-6.4-8-6.1-8.6c0.3-0.6,0.7-12.3,0.6-18.3s-1-21.6-1.9-27.6c-0.9-6-3.6-16.9-3.7-23c-0.1-6.1-4.7-16.3-6-19.6
	c-1.3-3.3-3-23.7-4.3-33c-1.3-9.3-5.7-29-6.9-38.3c-1.1-9.3-6.7-28.4-8.6-30.7c-1.9-2.3-3.1-5-4.3-4.1c-1.1,0.9-25.6,38.9-27.7,42.4
	c-2.1,3.6-9.3,16.9-11.7,22.9c-2.4,6-11.4,28.6-13.9,32.3c-2.4,3.7-11.3,15-13.4,18.4c-2.1,3.4-10,20.1-11.4,22.7
	c-1.4,2.6-9.6,25.7-10.3,28.4c-0.7,2.7-2,7.4-1.4,8.6c0.6,1.1,6.7,13.3,7,15.7c0.3,2.4,0.4,7.3-1.3,8c-1.7,0.7-2.4,1.4-2.4,1.4
	s15.6,2-7.3,1.6c-22.9-0.4-25.1,1.7-28.6-3c-3.4-4.7-1.4-7.4,0.1-8.3c1.6-0.9,2.6-0.9,2.4-3.9c-0.1-3-2.6-4.4,6.1-21.7
	c8.7-17.3,17.4-37.4,18.6-41.3c1.1-3.9,4.7-16.1,5.9-20.7c1.1-4.6,0.1-11.7,4.7-25.9c4.6-14.1,9.7-27.9,14.9-44
	c5.1-16.1,11.6-38.4,10.7-38.4s-29.1,8.9-45.1,8c-16-0.9-41-1.3-43.1-1.7c-2.1-0.4-1.1,1.1-25-7.1c-23.9-8.3-32.4-9.6-38-14.4
	c-5.6-4.9-22.4-20.9-23.3-20.9c-0.9,0-3,1.4-5,2.6s-9.3,7.9-10,9.4c-0.7,1.6-5.1,12.3-12.1,21.9c-7,9.6-15.7,24.6-17.4,27.1
	c-1.7,2.6-9.4,18.4-9.9,20.7c-0.4,2.3-4.9,13.6-5.3,20.1c-0.4,6.6-0.1,12.4,0.7,17.1c0.9,4.7,4,19.4,3.3,22.3
	c-0.7,2.9-2.7,10-3.3,11.9c-0.6,1.9-1.7,7.9-2.4,12.6c-0.7,4.7,0.4,17,1.4,23.3c1,6.3,2.9,14,4.1,18.1c1.3,4.1,5.6,24.4,8.1,29.6
	c2.6,5.1,2.9,9.4,5,12.3c2.1,2.9,11.9,16.4,12.4,17.4c0.6,1,0.9,4.9-0.7,5.3c-1.6,0.4-6.4,2.3-16,2.1c-9.6-0.1-21.7-0.7-22.6-2.3
	c-0.9-1.6,3.1-4.6,0.7-7.7c-2.4-3.1-6.4-8.4-6.4-10.7c0-2.3-0.4-16.6-1.7-22.4c-1.3-5.9-3.9-20.3-6.9-31.4s-2.9-14.9-5-22.3
	c-2.1-7.4-4.3-12.3-4.3-12.3s-2.4,3.7-3.6,11.4c-1.1,7.7,0.6,25,0.9,27.3c0.3,2.3,1.7,21.1,1.6,28c-0.1,6.9,0.3,15.3,0.6,17.6
	c0.3,2.3,1.6,8.6,2.6,9.4c1,0.9,7.3,11.6,7.7,14.3c0.4,2.7-1.6,9.3-4.9,10c-3.3,0.7-23.4,2.6-29.1,0.9c-5.7-1.7-6.6-2.7-7.1-7.4
	s1.9-6.3,0.7-7.4c-1.1-1.1-3.6-4.1-3.6-4.1s3-7.4,0.9-21.6c-2.1-14.1-5.3-48.3-7.1-59.9s-3.4-27.1-5.6-32.9
	c-2.1-5.7-5.4-10.1-5.3-14.7c0.1-4.6-0.6-10,2.7-15.6c3.3-5.6,7.7-9.7,10.4-14.7s22.1-41.4,23-49.6c0.9-8.1-0.4-26-3.6-35.7
	c-3.1-9.7-8-21.6-16.6-39.9s-22.6-45.1-24.7-50.4c-2.1-5.3-5.3-20.9-5.3-20.9s-2.9,39.9,2.1,71.1c5,31.3,6.3,43.6,6.9,49.4
	c0.6,5.9,1.6,8.6,1.3,20.9c-0.3,12.3-1.9,19.3-0.3,27.4c1.6,8.1,5,25,6.7,27.6c1.7,2.6,3,5.9,1.3,4c-1.7-1.9-3.6-1.1-3.6,0.6
	c0,1.7,0.4,5.3-1.6,1.4c-2-3.9-10.1-19.4-10.4-20.1c-0.3-0.7-1.3-6.6-1-0.1c0.3,6.4,1.7,12.1,1.4,11.4c-0.3-0.7-8.9-21.9-8.9-17
	c0,4.9,1.3,11.9-0.4,5.9s-4.1-30.7-3.7-17.6c0.4,13.1,2,28.4-0.6,14.1c-2.6-14.3-5.7-20.6-5.4-37.6s1.3-26.1,1.3-26.1s1.6-2.1,0-0.9
	c-1.6,1.3-7.9,9.6-5.7,6.1c2.1-3.4,4.3-15.9,1.7-10.3c-2.6,5.6-16.6,23-11.1,17.4c5.4-5.6,10.3-22.1,8.4-19.3
	c-1.9,2.9-11.1,13.6-6.4,6.4c4.7-7.1,9.1-16.9,10.6-21.1c1.4-4.3,2-18.4,3.3-20.1c1.3-1.7,6.9-8.9,1-1.4c-5.9,7.4-8.7,17-6.7,10.3
	c2-6.7,4-13.1,4-14.6c0-1.4,2.9-8,0.3-4.4c-2.6,3.6-5.9,7.6-4.3,3c1.6-4.6-0.1-9.3-1.4-8.1c-1.3,1.1-3.6,4.3-1.7-1.3
	c1.9-5.6,12.7-19.9,10.1-18.4c-2.6,1.4-8.7,8.9-8.9,8.3c-0.1-0.6,4.9-9.7,3.6-8.3c-1.3,1.4-6.9,7.7-5.7,5.4c1.1-2.3,0.1-5,3.7-8.7
	c3.6-3.7,5.9-8,0.6-2.6c-5.3,5.4-8.9,11.4-5.4,5.9c3.4-5.6,7.9-11,4.3-7.4c-3.6,3.6-9.3,8.4-6.1,4.4c3.1-4,9.4-12,8.3-11.3
	c-1.1,0.7,2.6-5.6-0.4-2.9s-8.3,5-8.3,5s0-1.9,1.6-3.6c1.6-1.7,3.9-7.3,3.3-6.9c-0.6,0.4-9.6,4.6-8.6,3.1c1-1.4,8.7-11.7,8.7-11.7
	s1.6-0.4-2.1,1.9c-3.7,2.3-6.3,2.9-4.1,0.6c2.1-2.3,5.7-8.6,8.3-12.3c2.6-3.7,9.6-8.6,9.6-8.6s-3.6,1.1-6.4,2
	c-2.9,0.9,1-1.7,1.7-2.1c0.7-0.4-0.3-0.7-2.3-0.7s-1.9,1.4,2.6-3c4.4-4.4,10.6-8.9,4.4-5.6c-6.1,3.3-9.6,5.9-7.4,4.1
	c2.1-1.7,2.1-4,0.7-3.3c-1.4,0.7-2.4,0.1-0.1-0.7c2.3-0.9,3.4-3.9,3.4-3.9s3-0.9,0-0.4c-3,0.4-4.9,0-3.1-0.4c1.7-0.4,4.7-2.3,4-2.1
	c-0.7,0.1-3.3,0.3-2-0.7c1.3-1,8.3-3.1,9-4.6c0.7-1.4,9-26.1,18.1-37.1s19.3-21.3,30.6-27.4c11.3-6.1,29.6-13,38.7-15.3
	c9.1-2.3,31.7-6.7,40.3-6.7c8.6,0,18.7-0.6,34.7,1.7c16,2.3,26.9,5.3,31.7,5.3c4.9,0,6.7-0.9,21.1,2c14.4,2.9,19.3,4.1,37.7,6.6
	c18.4,2.4,26.9,3,30.7,3.9c3.9,0.9,5.7,2.7,14.7,3.1c9,0.4,24.7,0.1,32.7,0c8-0.1,15.6-0.7,23.4-1.1c7.9-0.4,20-1,26.4-1.1
	c6.4-0.1,8.6-0.7,15.6-0.6c7,0.1,18.3,3.6,22,4.9c3.7,1.3,6.1,2.4,5.4,1.6c-0.7-0.9-0.7-5.3,1.1-3.4c1.9,1.9,2.9,2.4,2.9,0.6
	c0-1.9-1.6-4.6,1.6-0.7c3.1,3.9,1.6,2.4,3.7,2.6c2.1,0.1,0.7-1.7,2.3-0.3c1.6,1.4,3.1,3.3,3.7,6.7c0.6,3.4-0.9,5.6,0.9,4.1
	s1.1-2,2.1-0.7c1,1.3,1.1,1.6,2.3,2.7s10,8.4,10,8.4s9.4-8.9,11.3-9.1c1.9-0.3,11.4-4.4,11.4-4.4s-0.4,1.7,1.6,1.9
	c2,0.1,4.4-0.1,4.3,1.1c-0.1,1.3-2.1,1.9-0.3,1.7c1.9-0.1,8-0.7,8-0.7s2.9-3.4,4-2.3c1.1,1.1,2.7,1.1,4.1,0.6s1.9-1.4,3.3-0.1
	c1.4,1.3,3.1,4.1,3.1,4.1s1.3-3,1.7-2s3.3,14.6,3.6,15.4c0.3,0.9-3.3,16.6-3.3,16.6s3.7-2.1,4.3-5.1c0.6-3,2.3-11.4,1.9-6
	c-0.4,5.4-4.9,16.9-4.1,16.1c0.7-0.7,4.7,0.7,5.9-5.9c1.1-6.6,5.6-22.6,6.3-23.1c0.7-0.6,1.3-2.9,2.6,3.6c1.3,6.4,3.3,8.7,4,11.1
	c0.7,2.4,1,9.1,2,6.3c1-2.9,1.4-4.4,2.7-7.1c1.3-2.7,6-4.3,6-1.9c0,2.4-3.7,18.7-2.6,15.6c1.1-3.1,6.9-11.4,7.7-10.6
	c0.9,0.9,1.6,1.9,0.7,5.3c-0.9,3.4,2.6-2.7,3.4-3c0.9-0.3,3.6-1.3,3.4-0.6c-0.1,0.7-1.9,8.3-1.4,7.6c0.4-0.7,6-7.9,7-6.6
	c1,1.3-2.1,8.3-2.1,8.3l1.7,0.7c0,0,0.1,8,0.7,6.9c0.6-1.1,1.4-5.1,1.4-1.6s0.7,7.9,0.7,10.6c0,2.7-0.3,9.9-0.1,7.6
	c0.1-2.3,2.1-6,2.1-1.7c0,4.3-1.3,9.1,0.4,5.4c1.7-3.7,2.6-7.7,3-6.9c0.4,0.9,2.1,8,2.3,9.7c0.1,1.7-1.7,4.3-0.1,2.3
	c1.6-2,4.7-7.6,4.7-6.3s-1.6,8.7,0.1,6.3c1.7-2.4,0.9-4.6,3-5.3c2.1-0.7,3.7-2.6,3.4-1.1c-0.3,1.4-0.9,2.7,0,1.9
	c0.9-0.9,2.1,0.7,2,1.4c-0.1,0.7-1,2.7-0.1,1.6c0.9-1.1,2.7-2.3,3,2.3c0.3,4.6-0.9,9.7,0.6,8.6c1.4-1.1,1.6-3.4,3-2
	c1.4,1.4,3.7,0.7,5-0.4c1.3-1.1,4.9-0.9,3,2.3c-1.9,3.1-2,4,0.3,6.9c2.3,2.9,2.7,3.4,3.7,1.3c1-2.1,5-2.7,4.4-1.4
	c-0.6,1.3-2.1,4.6-0.7,2.9c1.4-1.7,3.7-1.6,3.3-0.3c-0.4,1.3-4,0.3-0.4,1.4c3.6,1.1,5.1,2,3.6,5c-1.6,3-4.3,4-1.6,3.1
	c2.7-0.9,4-3.6,3.6,2.4c-0.4,6,0.3,9.3,0.6,10.9c0.3,1.6,2.3,2.7,4,3.9c1.7,1.1,5,4.6,6.1,6.1s2.4,4.3,4.1,6.3
	c1.7,2,3.9,3.6,3.6,4.4c-0.3,0.9-0.9,3.9,0.1,3.7s3.3-1.4,2.4-0.4s-2.6,2.9-0.9,2.3s3.4,0,3,0.7c-0.4,0.7-1.7,1.3-1.1,2.7
	c0.6,1.4,3.4,5.7,3.7,4.9c0.3-0.9,3.7-2.4,2.7-0.9c-1,1.6-2.1,2-0.9,1.9c1.3-0.1,3.4-0.9,3.1,1c-0.3,1.9-1.4,3.7,0.3,2.3
	c1.7-1.4,3.3-2,3.3-0.6c0,1.4,1.9,1.6,3,4c1.1,2.4,2.9,5,3.9,6.3c1,1.3,2.1,2.4,3.6,3.1c1.4,0.7,4.7,2.6,5.1,4.9
	c0.6,2.6-0.2,6.6,0.6,8.3c0.7,1.4,1.9,11.1,2.6,7.7c0.7-3.4,5.9-14.7,6.9-16.6s5.4-7.1,8-6.6c2.6,0.6,3.6-0.4,6.6,5.6s5,12.4,5,14.4
	s-0.7,7-2.7,10.6c-1.1,2-3.5,6.1-5.9,9.7c-2,3-3,5.7-4.6,6.4c-1.6,0.7,0.6,4.2-1,4.4c-4.1,0.3,3.7,1.6,4,2.1
	c0.3,0.4-1.9,1.9-1.9,1.9s2.3,1,1.3,2.1c-1.7,1.9-3.6,0.2-1.7,1.9c2.5,2.3,1.4,2.1,1.2,2.9c-0.1,0.9-1.4,2.1,0.1,3
	c1.4,0.9,3.5,2.5,1.8,3.4c-0.9,0.5-3-2-2.2,1.7c0.8,3.8,2,7.4,3,9.4c1,2,1.7,7.6,4.1,11c2.4,3.4,5.3,11.6,7.7,14.7
	c2.4,3.1,2.7,6.3,2,10.1c-0.7,3.9-1.4,7.3-2.4,9.9c-1,2.6-1,12.9-1.7,17.6c-0.7,4.7-2.4,6.6,0,12.3c2.4,5.7,12,39.4,12.9,43.1
	c0.9,3.7,2.7,12.9,2.9,15c0.1,2.1-0.7,2.6-0.7,6.1c0,3.6-1.3,10-2,12.9c-0.7,2.9-1.4,8.3-3.7,11.4c-2.3,3.1-4.9,7.9-10.4,7.4
	c-5.6-0.4-11.6-3.9-11.6-3.9s3,2,0,1.4s-9.4-5.1-10.4-7.6s-3.1-5.7-5.9-8.6c-2.7-2.9-8.7-7.7-11.9-11.1c-3.1-3.4-3.3-6.7-6.3-9.4
	c-3-2.7-4.3-2.9-8.7-7c-4.4-4.1-11.9-14.3-13.9-17.6c-2-3.3-2.1-6.1-5-6.7s-5.4-0.7-9.6-3.9s-9.1-4.6-15.7-21
	c-6.6-16.4-3.3-19.7-4.1-31.4c-0.9-11.7-2.6-20.7-5-26.3c-3.5-8.1-14.2-20.2-23.3-29.4c-6.2-6.2-14.7-16.9-17.9-20
	c-3.1-3.1-10.3-8.9-13.9-11.9c-3.3-2.8-10.1-8.7-15.4-12c-5.3-3.3-9.9-5-12.6-6C586.1,271.7,582.9,270.7,582.9,270.7L582.9,270.7z"
	/>
<path d="M119.7,93c0,0-7.4,9.6-12.1,21.6c0,0,1.4-7.1,3.7-11S116.9,94.8,119.7,93L119.7,93z"/>
<path d="M120.1,121.8c-0.4,1.1-6.7,17.5-7.3,20.3c-3,14.1-1.4,37.2,1.1,50.7c2.4,13.6,2.7,14.6,2.4,13.6s-7.1-21.9-7.6-27.6
	c-0.4-5.7-3.8-24-3.8-24s-6.4,11.4-6.9,15c-0.4,3.6-3.1,12.4-2.9,21.3c0.3,8.9-1,9.7-1,21.6s3,35.3,3,35.3s3.1,23.4,3.7,27.7
	c0.6,4.3,3,17.4,3.3,26.1c-1.4-9.4-5.8-32.6-7.4-42.7c-1.6-10-5.2-29.6-5.6-45.7c-0.4-16.4-1.1-26.8,2.4-41.1
	c2.6-10.8,7.1-18.6,9.7-22.6c2.6-4,7-13.1,9.4-15.4C115.3,132,120.1,121.8,120.1,121.8L120.1,121.8z"/>
<path d="M117.3,111.6c0.4,0.7,1.3,2.6,1,4c-0.3,1.4-0.9,2.7-0.7,4.9c0.1,2.1,0.7,3.7,0.7,3.7s-3.4-3.4-3.3-5.6
	c0.1-2.1,1.1-4.6,1.7-5.7C117.3,111.7,117.3,111.6,117.3,111.6L117.3,111.6z"/>
<path d="M112.1,132.8c-2.4,0.3-3.6-6.4-3.6-6.4c-1,0.1-2.1,0.4-2,1.3c0.1,0.9,1.4,4.1,2.7,5.4c1.3,1.3,2.3,1.6,2.3,1.6L112.1,132.8z
	"/>
<path d="M97.4,141.8c0,0,2.4-2.1,3-1.7c0.6,0.4,2.7,2.1,2.6,3s1,4.6,0,3.6S99.1,145.4,97.4,141.8z"/>
<path d="M91.4,153.3c1.1,0.9,4.9,3.4,4.9,3.4s0.1,0.1-0.6,1c-0.7,0.9-2.1,2.9-3.4,1.9c-1.3-1-3.3-3.3-2.9-4.3
	C89.9,154.3,91.4,153.3,91.4,153.3L91.4,153.3z"/>
<path d="M91.9,168.3c-1.7,1-4.9,4.6-6.3,5.6s-3.4,2-1.9,1.9c1.6-0.1,6.1-2.1,7.1-3.9C91.9,170.1,91.9,168.3,91.9,168.3L91.9,168.3z"
	/>
<path d="M89.9,181.8c-0.9-0.6-9.6,2.6-9.6,4.1c0,1.6,2,4,2.6,2.9C83.4,187.7,89.9,181.8,89.9,181.8L89.9,181.8z"/>
<path d="M88.1,192.3c-2,2.1-6.6,5.1-6.7,6.3c-0.1,1.1,1.3,2,3.4-0.4c2.1-2.4,4.6-4,4.3-4.6C88.9,193,88.1,192.3,88.1,192.3
	L88.1,192.3z"/>
<path d="M88.6,202.8c1.9,3,4.7,2.9,2,4.1c-2.7,1.3-9,6.7-8.6,5.4C82.4,211.1,88.6,202.8,88.6,202.8L88.6,202.8z"/>
<path d="M90.4,216.8c-0.3,1.1-2,4.7-2,4.7s2.4-1.3,2.3-2.7C90.6,217.4,90.4,216.8,90.4,216.8L90.4,216.8z"/>
<path d="M87.9,215c-1,1.7-7.9,9.3-7.3,9.4c0.6,0.1,6.9-4.4,7.1-6.1C88,216.6,87.9,215,87.9,215L87.9,215z"/>
<path d="M89.1,223.6c-1.3,1.9-5.3,7.4-5.3,7.9c0,0.4-1.7,0.3-1.1-1.6C83.3,228,89.1,223.6,89.1,223.6L89.1,223.6z"/>
<path d="M88.7,228.1c0.4,1.3,1.7,4.1,0.6,6s-5.7,5-4.9,1.7c0.9-3.3,1.9-4.3,2.9-5.6C88.3,229,88.7,228.1,88.7,228.1L88.7,228.1z"/>
<path d="M90,239.6c-1,3-2.1,8.9-1.4,11.4c0.7,2.6,1.7,10.1,1.7,12.9c0,2.7,1.1,0.9-0.4,7.7c-1.6,6.9-2.6,16.1-1.3,12.1
	c1.3-4,3.4-14,3.6-16s-0.9-11.3-1-15.7c-0.1-4.4-1.6-3.3-0.7-7.3C91.3,240.7,90,239.6,90,239.6L90,239.6z"/>
<path d="M93.6,273.6c1,4.4,4.3,17.6,4.3,17.6s-0.7,4.7-2.6-1.6C93.4,283.3,93.6,273.6,93.6,273.6L93.6,273.6z"/>
<path d="M92.7,256.6c0.4,2.6,0.3,5.9,0.9,8.9c0.6,3,4.1,7.7,3.4,3.6c-0.7-4.1-1.7-8-2-10.9c-0.3-2.9-1.1-5.1-1.3-3.7
	C93.6,255.8,92.7,256.6,92.7,256.6L92.7,256.6z"/>
<path d="M87,285.6c-0.7,2-1.9,6.6-2,8.6s0,4-0.1,6.1c-0.1,2.1,0.3,10.4,0.3,11.4s0.9,0.9,0.7-3.1c-0.1-4,0.1-9.4,1-11.1
	c0.9-1.7,1.1-4.9,1-7l-0.3-4.3L87,285.6z"/>
<path d="M81.1,292.6c-0.7,3.7-0.9,17.6-1,19.9c-0.1,2.3,0.7,6,0.9,0.1c0.1-5.9,1.1-17,1.1-18.9C82.1,291.8,81.1,292.6,81.1,292.6
	L81.1,292.6z"/>
<path d="M87.1,303.8c0.3,4.9,1.1,10.9,1.9,15c0.7,4.1,1.3,7,1.6,1.3c0.3-5.7-1-10.1-1.4-14.4c-0.4-4.3-0.9-7.9-1.1-6.7
	C87.7,300.1,87.1,303.8,87.1,303.8L87.1,303.8z"/>
<path d="M91,283.6c0.9,2.1-0.4,2.9,0.4,4.3C92.3,289.3,91,283.6,91,283.6z"/>
<path d="M93.9,290.1c0.1,3,2.7,10.3,3,14.3s2.3,8.7,2.3,9.7s-1.9-11.9-2.4-16.1C96.1,293.7,93.9,290.1,93.9,290.1L93.9,290.1z"/>
<path d="M91,290.8c-0.6,3.9,0.7,13,2.3,15.9c1.6,2.9,2.7,7.4,2.6,7.9c-0.1,0.4-0.1,4,0-0.1s-1.4-6.1-2.1-12.6
	C93,295.4,91,290.8,91,290.8L91,290.8z"/>
<path d="M100.1,294.7c0.6,2.4,1,6,1.1,11.4s0.3,10.7,1,5.9C103,307.1,100.1,294.7,100.1,294.7L100.1,294.7z"/>
<path d="M99.1,317.7c0,1.3,0.7,9.4,2,11.7c1.3,2.3,2.1,5.3,1.3,8.6c-0.9,3.3,0,7.9,0.1,6.7c0.1-1.1,1.3-14.4,0.3-18.9
	c-1-4.4-4.9-9.4-4.9-9.4s-2.4,1.1-2.4,5.7c0,4.6,2.9,10.9,2.9,10.9s-0.7-4.9-0.9-6.4C97.4,325,99.1,317.7,99.1,317.7L99.1,317.7z"/>
<path d="M88.4,329.8c1.1,2.7,1.1,8.7,3,14.4c1.9,5.7,3,12.1,0.7,8.3c-2.3-3.9-4.3-17.9-3.9-19.6C88.7,331.3,88.4,329.8,88.4,329.8
	L88.4,329.8z"/>
<path d="M83.1,309.1c-0.4,5-2,15.4-2,16.3c0,0.9,2,1.7,1.7-3.1S83.1,309.1,83.1,309.1L83.1,309.1z"/>
<path d="M91,325.8c0.9,5.4,5.1,15.3,4.1,11.9c-1-3.4-3.4-14.7-3.4-13.4C91.7,325.6,91,325.8,91,325.8L91,325.8z"/>
<path d="M97.1,344c3.3,6.4,9,19.6,9.3,21.3c0.3,1.7,1.3,5.6-2.9-2.7C99.4,354.3,97.1,344,97.1,344L97.1,344z"/>
<path d="M93,139.1c0.3-0.7,20.4-33.1,34-46.7c18.9-18.9,43.9-24.3,54.6-28c10.7-3.7,27.4-5,34.4-5.6c7-0.6,11-1.1,11-1.1
	s-16.7,2.1-25,3.6c-8.3,1.4-15,3.7-19.3,4.7c-4.3,1-38.7,11.9-53,26c-4.3,4.3-17,18.9-23.6,29c-3,4.7-7.3,11.9-9.7,14.4
	C94,138,93,139.1,93,139.1L93,139.1z"/>
<path d="M119.4,128.1c0,0,15.1-8,22.9-7.4c7.7,0.6,14.9,3.7,24,2.6c9.1-1.1,12.3-1.1,23.7,2.3c11.4,3.4,4.6,0.6,22.3,4.6
	c17.7,4,32,14,36.3,16c4.3,2,6.9,1.7,15.1,10.3c8.3,8.6,12.6,13.7,17.7,23.1c5.1,9.4,14.3,24.6,16.6,30c2.3,5.4,1.1,4.6,5.7,8.6
	c4.6,4,9.7,8,10.9,12.9c1.1,4.9,1.4,6.9-0.9,13.1c-2.3,6.3-4.9,14-6.3,18.3c-1.4,4.3-2,6.6-2.6,10c-0.6,3.4-3.1,8.9-6.3,10
	c-3.1,1.1-9,3.7-9,3.7s9-6,10.7-10.9c1.7-4.9,2-15.4,3.1-17.1c1.1-1.7,3.1,0.3,2-5.1c-1.1-5.4,1.4-6.9,2.3-10.9
	c0.9-4,5.7-8.3-2.6-16c-8.3-7.7-12.3-9.1-15.4-16.3c-3.1-7.1-14.6-21.1-22.6-30s-29.4-24.9-39.4-30c-10-5.1-19.4-7.7-29.4-10.9
	c-10-3.1-12.6-4.9-19.7-6.3c-7.1-1.4-8.3-1.7-14-1.7c-5.7,0-9.1,2.3-16-1.4c-6.9-3.7-13.1-5.4-17.1-5.1c-4,0.3-6.3,2.6-9.1,3.4
	C119.4,128.7,119.4,128.1,119.4,128.1L119.4,128.1z"/>
<path d="M294.3,228.7c-1.7,0-5.7,1.4-5.7,3.1s0.9,5.4-0.6,7.1c-1.4,1.7-6.6,2.9-8.9,4.3c-2.3,1.4-9.4,9.1-9.4,9.1s-3.7,1.4,0.9,0.3
	c4.6-1.1,12-2.3,13.4-5.4c1.4-3.1,0.3-3.1,4.6-5.4c4.3-2.3,6.6-1.4,6-4.6C294,234.1,294.3,228.7,294.3,228.7L294.3,228.7z"/>
<path d="M292.6,257.8c-1.1,0.3-7.1,0.6-13.7,0.9c-6.6,0.3-10.6-0.6-10.6-0.6s12.6,4,15.7,3.7C287.1,261.6,292.6,257.8,292.6,257.8
	L292.6,257.8z"/>
<path d="M257.7,265.8l-3.4,1.7c0,0,0-0.9,2.3,1.7c2.3,2.6,13.6,14.1,23.1,20c8.8,5.4,45.3,17.8,52.7,18.4c7.4,0.6,18.4,1.4,18.4,1.4
	s0.3-0.1-4.3-1.6c-4.6-1.4-12.7,0.3-19.3-2c-6.6-2.3-21.1-6.7-26-7.9c-4.9-1.1-12.7-7.7-16.4-10.1
	C268.7,277.1,257.7,265.8,257.7,265.8L257.7,265.8z"/>
<path d="M271.1,247.6c2-1.7,6-8,6.9-10.9s3.4-6.9,4.6-10.6c1.1-3.7-0.3-17.1-5.7-22.9c-5.4-5.7-18-17.4-31.7-24.3
	c-13.7-6.9-43.1-19.1-52.9-20.9c-9.7-1.7-34.6-8-40.9-10c-6.3-2-16.6-4.3-22.6-6c-6-1.7-13.4-1.7-13.4-1.7s0-2.9-0.3,0
	c5.1,9,17.1,6.6,27.1,13.1c11.1,4,37.1,13.7,45.4,16.9c8.3,3.1,32,10.6,36.9,14.9c4.9,4.3,22,9.7,27.7,13.4
	c14,10.4,23.1,23.2,23.7,37.4C276.1,239,271.1,247.6,271.1,247.6L271.1,247.6z"/>
<path d="M113.1,171.6c2-1.1,7.4-2.9,11.7-4.3c4.3-1.4,6-1.4,9.7,2.3c3.7,3.7,10.6,3.1,15.4,4.9s14.6,4,20.3,4.6
	c5.7,0.6,12.6,4.9,20.3,5.4c7.7,0.6,12,2.3,16.3,4.3s12.9,7.4,20.6,8.3c7.7,0.9,14,3.7,18,6.6s18.3,11.7,21.1,15.1
	c2.9,3.4,6.9,6.9,7.1,10.6c0.3,3.7-1.4,13.7-1.4,13.7s0.6-6.6-1.1-10.9c-1.7-4.3-6.6-10.6-13.4-14.3c-6.9-3.7-19.1-10.6-29.4-12.3
	c-10.3-1.7-24-7.1-27.1-8.9c-3.1-1.7-6.9-0.9-12.3-3.1c-5.4-2.3-14-4.6-19.7-6.6c-5.7-2-23.1-7.7-27.4-10.3
	c-4.3-2.6-15.7-4.9-18-4.9C121.4,171.8,113.1,171.6,113.1,171.6L113.1,171.6z"/>
<path d="M118,195.8c1.4-1.1,16.9-5.4,21.4-5.1c4.6,0.3,18.3,2.9,24.6,4.6c6.3,1.7,17.4,0.3,22,2.9c4.6,2.6,14,6.6,21.7,7.7
	c7.7,1.1,15.8,5.3,9.4,3.1c-9.4-3.1-19.7-2.3-27.4-4.3c-7.7-2-28.6-7.7-31.1-8.3c-2.6-0.6-13.1-2-20.9-2
	C130,194.4,118,195.8,118,195.8L118,195.8z"/>
<path d="M244.6,272.1c4.1-2.6,8.8-5,11.3-9.3c0.7-4.5-0.5-11-6.5-10.1c-4.9,0.3-9.3-3.3-13.9-3.2c-2.8,2.9-3.6-5.2-3.6-7
	c5.2,1.6,10.6,3.5,16.1,4.1c4.4,0.9,10.6,1,12.5,6c0.5,2.7-3.9,8.8,0.5,4.4c3.9-5.1-2.1-11.2-5.8-14.4c-5.5-4.1-13.1-2.9-18.9-6.7
	c-4.2-0.7-9,1.2-13.3-1c-6.7-2.6-13.9-4.2-21.2-3.2c-6.4,0.2-12.7,1.3-19.1,1.5c-6.3-0.5-12.3-2.8-18.6-2.8
	c-3.4-2.8-7.4-4.9-11.4-6.7c-3.4-2.1-7.8-0.4-11.9-1.2c-3.5,0.3-9.8-1.1-11.6,0.2c2.7,4.8,9,1.1,13.3,2.5c5.2,0.3,10.7,0.8,15,4.2
	c9.2,8.7,21.1,10.4,33.6,10.3c5.7,0.3,11.8-0.7,17.1,1.9c4.7,1.4,10.1,4,14.8,1.2c4.2-2.7,8.4,8.6,3.8,9.1
	c-12.2,0.8-24.5,0.3-36.8,0.5c-5.4,0.2-10.6-1.1-15.8-1.8c-8.6-0.4-17.1,1.7-25.7,0.6c-3.2,0.9-8.2-2.5-9.9-1
	c-2.6,3.7,6,3.9,8.4,4.6c11,1.1,22.2,0,33.1,2.7c7.5,1.5,15.1,2.3,22.7,3.2c6.2,1.6,12.8,2.1,18.9,0c5.9-2.1,12.2-2.1,18.2-0.2
	c3.3,1.2,12.5,0.7,9.7,6.1C248.2,268.6,246.4,270.4,244.6,272.1L244.6,272.1z"/>
<path d="M119.4,206.4c3.1-0.9,6.6-2,13.1-2c6.6,0,12-1.1,24.3,2s37.4,5.1,42.9,6.3c5.4,1.1,28.3,1.1,35.4,4.3
	c7.1,3.1,13.4,6,17.1,7.4c3.7,1.4,12.6,6.3,14.6,9.4c2,3.1,4.6,9.1,3.4,11.4c-1.1,2.3-7.4,12-7.4,12s3.7-6.6,4-9.1
	c0.3-2.6-6-10.3-8.3-11.4c-2.3-1.1-16.3-5.4-22.9-7.7c-6.6-2.3-13.4-4.9-20.9-5.4c-7.4-0.6-30.6-3.1-37.1-5.1
	c-6.6-2-31.7-8.9-34-9.1c-2.3-0.3-14.6-1.1-17.7-0.9c-3.1,0.3-5.7,0.9-5.7,0.9L119.4,206.4z"/>
<path d="M122,118.7c0,0,6.3-8.9,9.4-12.3c3.1-3.4,12-7.1,20-6s18.6,1.1,21.1,1.7c2.6,0.6,20.6,1.4,27.1,5.4
	c6.6,4,24.6,8.3,33.1,13.4c8.6,5.1,22,10.6,27.4,16c5.4,5.4,4.3,4.9,8.6,7.4s15.7,20.9,18.3,26c2.6,5.1,6.9,13.7,8.3,18.6
	c1.4,4.9,12.9,16,15.4,20c2.6,4,16.9,10.3,20.9,23.7c4,13.4,2.9,37.4,2,40.9c-0.9,3.4-10,16.9-11.4,18.9c-1.4,2-6.6,9.9-6.6,9.9
	s6.3,3.1,6.9,2c0.6-1.1,14.9-27,16.6-31.6c1.7-4.6,8.3-10.3,9.1-20.9c0.9-10.6,2.6-19.7,1.4-25.7c-1.1-6-3.4-12.9-2.9-16.9
	c0.6-4,5.1-8.6,4-11.4c-1.1-2.9-12-27.4-18.9-38c-6.9-10.6-18.3-18.9-22.3-24.6c-4-5.7-18.3-27.7-23.7-32.9
	c-5.4-5.1-16.9-7.4-22-10.6c-5.1-3.1-17.4-7.4-22.3-7.7c-4.9-0.3-15.7-2.6-22-2.9c-6.3-0.3-16.6-2.6-20.9-2.6c-4.3,0-9.1,0-15.4,0.6
	c-6.3,0.6-8.6,2.3-8.6,2.3s8.6,0,16-0.3c7.4-0.3,19.7-0.9,26.3,2.3c6.6,3.1,17.4,5.1,26,8.6c8.6,3.4,17.4,6.3,22,9.1
	c4.6,2.9,14.6,7.1,19.7,13.4c5.1,6.3,12.9,22.3,17.1,27.4c4.3,5.1,14.3,13.4,18.3,20.9c4,7.4,10.9,26,15.1,31.4
	c4.3,5.4,8.3,10.3,8,12.6c-0.3,2.3-3.4,8.6-4.6,8.3c-1.1-0.3-14.3-11.1-19.1-16c-4.9-4.9-12.6-13.4-13.4-20
	c-0.9-6.6-11.7-32.3-18.3-40.3c-6.6-8-13.7-18.9-20.6-23.4c-6.9-4.6-16.9-9.1-31.1-15.1C222,94.4,196.9,89,192.6,89
	c-4.3,0-26.3-0.3-29.1,0.9c-2.9,1.1-15.1,8-17.4,7.7c-2.3-0.3-9.4-4-0.3-8c9.1-4,15.1-7.4,19.7-9.1c4.6-1.7,14-4.3,18.3-5.4
	c4.3-1.1,8.9-4.6,15.7-2.6c6.9,2,13.7,4.3,22,4.3c8.3,0,12.6-2,21.1,0c8.6,2,26.6,7.7,29.1,9.1c2.6,1.4,12.9,3.7,18.9,9.4
	c6,5.7,11.4,12,17.4,20.3s22.3,18.6,26.6,22.6c4.3,4,13.4,15.7,15.7,20.3c2.3,4.6,5.4,11.7,8.9,18.3c3.4,6.6,4.9,21.4,8.6,26.6
	c3.7,5.1,9.1,30.3,6.9,44.6c-2.3,14.3-6.6,29.1-10.6,34.6c-4,5.4-14.6,21.4-15.4,23.4c-0.9,2-0.9,3.1,1.7,3.1c2.6,0,2.3,0.6,6.9-6.3
	c4.6-6.9,26.9-44.6,28.9-50.6c2-6,4.9-40,0.9-48.3s-6.9-26.3-12.9-37.4s-16.3-23.7-25.7-35.7c-7.8-9.9-15.1-8.6-24-16.9
	S306,91.3,294,85c-12-6.3-34.6-16.9-38.9-17.4s-20-2.6-22.3-1.7c-2.3,0.9-18,2.3-20.3,1.7c-2.3-0.6-1.1-5.4-5.4-5.4
	s-11.7,3.4-13.4,4.3c-1.7,0.9-24.3,7.4-29.1,9.4c-4.9,2-22,14.3-24.6,16c-2.6,1.7-10.6,14.9-12.3,16.6
	C126,110.1,122,118.7,122,118.7L122,118.7z"/>
<path d="M354,179c1.1,2,6.9,9.1,7.1,17.7c0.3,8.6,2.9,14.3,4.6,28c1.7,13.7,0.3,30.9-3.1,36.9c-3.4,6-13.4,19.4-13.4,19.4
	s1.7-5.7,5.7-14.3c4-8.6,4.3-26.6,4.9-30.9c0.6-4.3,2.6-18.9,0.6-22.9s-6.9-8-6-10.6c0.9-2.6,2.3-12.6,1.7-15.1
	C355.4,184.7,354,179,354,179L354,179z"/>
<path d="M145.7,310.6l0.4,3.2c3.7-1.3,6.1,2.3,9.3,2.6c4,0.4,7.3,0.2,10.9,1.6c3.6,1.4,17,4.2,20.8,5.5c3.8,1.2,6.7,1.4,11.9,3
	c5.3,1.6,6.7,2,7.9,3.4c1.2,1.4,0.8,2.4,0.8,2.4l1.6-3.6c0,0-2.4-3.8-4.4-5.5c-2-1.6-9.9-5.1-15-5.9c-5.1-0.8-16.4-4.2-20.8-4.4
	s-11.1-1-15.8-2c-4.6-1-7.9-2.6-7.9-2.6L145.7,310.6z"/>
<path d="M141.4,336.1l-2.4,6.1c0,0,2.8,2.4,5.5,2.6c2.6,0.2,5.1,0.2,8.7,0.8c3.6,0.6,14.1,1.8,18,3.4c3.8,1.6,15,6.1,18,5.9
	c3-0.2,8.5-1.4,8.5-1.4l2.8-4.8c0,0-4-2-6.5-2.8s-1.2-0.8-6.7-1c-5.5-0.2-10.1-1.6-12.3-2.8c-2.2-1.2-1.4,0-6.3-1.4
	c-4.8-1.4-8.5-1.4-13.7-2.8c-5.3-1.4-5.1-1.8-7.7-1.8S141.4,336.1,141.4,336.1L141.4,336.1z"/>
<path d="M160.4,296.9c0,0,5.7,1,10.1,1.8c4.4,0.8,11.1,1,14.3,2.6s9.5,4.2,12.1,4.6c2.6,0.4,9.3-0.4,11.3,0c2,0.4,4.4,0.8,6.5,2.8
	c2,2,4.8,4.8,4.8,4.8l-2.2,3.4c0,0-5.3-5.5-7.1-6.3c-1.8-0.8-2.2-0.8-4-0.8c-1.8,0-6.1-2.4-6.7-0.8c-0.6,1.6-4.4,0.8-5.9,0
	c-1.4-0.8-8.5-2.2-11.3-3.8c-2.8-1.6-8.7-5.3-12.9-5.3C165.3,300.1,160.4,296.9,160.4,296.9L160.4,296.9z"/>
<path d="M142.8,281.5c0,0-1.2,0.6,3,0c4.2-0.6,6.7-2.2,11.5-1.4c4.8,0.8,20.2,4.6,26.1,6.5c5.9,1.8,18,4.4,23,5.5
	c5.1,1,10.5-0.2,13.7,2.4c3.2,2.6,6.1,6.3,6.1,6.3l-1.6,2.8c0,0-3.2-3.4-6.1-4.2c-2.8-0.8-10.5-0.8-14.7-1
	c-4.2-0.2-19.6-5.3-21.6-5.9c-2-0.6-15.8-4.4-16.8-4.8c-1-0.4-10.3-4.2-12.3-4.2s-3.4,1.8-4.6,2.4c-1.2,0.6-5.7-1-5.7-1L142.8,281.5
	z"/>
<path d="M189.7,262.1c2.8,1.2,12.9,3,18.6,3c5.7,0,12.5-1.4,15.4,0c2.8,1.4,7.1,2.6,9.3,2.6c2.2,0,7.9,1.4,7.9-0.2
	c0-1.6-2.2-6.3-2.2-6.3s3.4,3.6,4.8,4.4c1.4,0.8,3.4,1.8,2.6,3c-0.8,1.2-3.6,4.6-4.4,6.1c-0.8,1.4-2.2,3.4-2.2,0.8
	c0-2.6,1.2-5.3,0.4-5.7c-0.8-0.4-2.2-1.2-2.6,0.8c-0.4,2,0.2,4-0.6,5.1c-0.8,1-1.2-0.2-1.2,2.6s0.8,5.1,0.4,5.9
	c-0.4,0.8-4.4,7.7-4.4,7.7s0.2-1.4-0.2-3.4c-0.4-2,0.2-5.5-1.2-6.7c-1.4-1.2-2-2.2-5.3-1.4c-3.2,0.8-11.7,1-10.5,2.6
	c1.2,1.6-0.6,3.4,5.1,2c5.7-1.4,7.5-1.4,7.7,1.2c0.2,2.6-1.4,5.7-3.4,3.8c-2-1.8-6.1-2.4-8.3-3.8c-2.2-1.4-1-3-3.6-3.6
	c-2.6-0.6-14.7-4.6-15.6-5.5c-0.8-0.8-1.4-2.4-5.3-2.4c-3.8,0-14.7-5.3-17.8-5.7c-3-0.4-11.3-1.6-17.6-1.6c-6.3,0-11.7-1.2-11.7-1.2
	s11.7-1.2,17.4-1.2c5.7,0,14.3,0.8,20,1.6s8.9,2.8,13.5,4c4.6,1.2,8.5,4.8,13.3,4.8c4.8,0,18.6,1.2,20.4,0.8
	c1.8-0.4,6.3-0.4,6.5-1.8c0.2-1.4,0.8-3.2-1.2-3.2c-2,0-10.5-0.6-11.7-1.2c-1.2-0.6-6.9-2.8-8.1-2.8c-1.2,0-10.1-1.4-12.7-1.8
	C198.4,265.2,189.7,262.1,189.7,262.1L189.7,262.1z"/>
<path d="M132.7,368.4l-6.1-2l4.8-6.3c0,0,11.5-1,12.3-1c0.8,0,0.2,2.4,6.3,3.2c6.1,0.8,11.1,2,13.9,3.8c2.8,1.8,13.7,6.3,17,6.5
	c3.2,0.2,6.1-1.2,6.1-1.2l-3.8,6.3c-5.3,3-9-0.7-13.3-2.6c-3.8-1.6-6.1-2.2-8.9-3c-2.8-0.8-32-8.5-27.1-0.4l3.2,5.3
	c0,0,11.9,4.8,13.9,4.2c2-0.6,9.3,2.4,13.5,4.2c4.2,1.8,11.1,3.8,11.1,3.8l-1,3.4c0,0-2,1.6-4.4,0.6s-8.3-4.8-12.3-5.9
	c-4-1-7.3-1.4-10.9-1.2c-3.6,0.2-8.9,1.6-12.9,4.6c-4,3-8.7,5.5-11.3,5.5s-9.9,0.8-10.9,0.8s-1.8-0.4-1.8-0.4l0.6-2.8
	c0,0-0.4,0.6,2.2,0.8c2.6,0.2,3-1.6,5.5-2.6c2.4-1,0.8-1.2,5.3-0.8c4.4,0.4,7.3-3.4,11.5-4.2c4.2-0.8,6.3-2.8,6.3-2.8s-1-1-4.4-1
	c-3.4,0-7.5,0.4-9.9,0.4h-7.3c-2,0-4.8-0.4-4.8-0.4l5.5-7.9c0,2.2,0.4,4.2,3,3.8c2.6-0.4,5.9-2.6,9.3-1.6c3.4,1,5.7-1.2,9.9,1
	C141.9,371,139.8,371.4,132.7,368.4L132.7,368.4z"/>
<path d="M194.2,377.3c0.4,0.8,0.2,4,0.2,4l-2,0.4c-1,0.2-3.8-1.6-5.9,0.2c-2,1.8-2.6,2.6-4.6,2.6c-2,0-2.4,0.2-2.4,0.2l2.4-3.4
	c0,0,0.6-1,1.8-1.2c1.2-0.2,2.8-2.4,4.8-2.4S194.2,377.3,194.2,377.3L194.2,377.3z"/>
<path d="M173.3,396.5l-1.6,4.4c0,0,1.6-1.6,3.6-2.6s4-2,6.9-2c2.8,0,4.4-0.4,6.5,0c2,0.4,7.7,0.8,7.7,0.8l-0.8-3.6
	c0,0-1.8-0.8-5.1-0.6c-3.2,0.2-6.3-0.6-9.1,0.2C178.6,393.8,173.3,396.5,173.3,396.5L173.3,396.5z"/>
<path d="M168.7,410.6c0.8,0,6.1-2,7.5-2.4c1.4-0.4,4.8-1.6,8.3-2c3.4-0.4,6.1-0.6,8.1-0.8c2-0.2,5.1-2.2,5.1-2.2l0.2,3v1.6
	c-0.9-2.2-2.9-0.1-4.8,0.4c-1.8,0.4-3.4-1-6.1-0.2c-2.6,0.8-11.3,3.6-12.7,4.4c-1.4,0.8-8.1,4.8-7.7,4
	C166.9,415.7,168.7,410.6,168.7,410.6L168.7,410.6z"/>
<path d="M180.8,416.5c-1.4,0.8-5.1,4.4-7.7,5.5c-2.6,1-7.9,3-3.8,2s9.9-3.2,10.5-4.2C180.4,418.7,180.8,416.5,180.8,416.5
	L180.8,416.5z"/>
<path d="M184.5,418.5c0.8,0.6,1,2.6,3,2.4c2-0.2,3.6-0.8,5.1-0.8h3l1.2-2.4c0,0-1.4-0.4-3.8,0c-2.4,0.4-4,0.4-5.3,0.6
	S184.5,418.5,184.5,418.5L184.5,418.5z"/>
<path d="M162.6,435.9l1,3.8c2.8,0.6,3.5-2.2,5.1-3.2c1.6-1,5.5-3,5.5-3s-0.8-1.2-3.4-0.2C166.8,434.6,166.9,434.8,162.6,435.9
	L162.6,435.9z"/>
<path d="M168.3,409l1.2-2.4c0,0-2.6-6.5-5.9-8.7c-3.2-2.2-11.1-3.8-13.9-3.4c-2.8,0.4-9.9,1.4-12.9,2.6s-15.4,6.1-17.6,6.9
	c-2.2,0.8-9.1,2.2-9.1,2.2s-1.2,0,3.4,0.6c4.6,0.6,6.5,1,8.9,0.4c2.4-0.6,3-2.6,7.7-3.8c4.6-1.2,9.1-6.1,10.5-4.4
	c1.4,1.6,3.4,1.8-1.4,4.2c-4.8,2.4-7.3,5.1-11.3,6.1c-4,1-9.7,1.6-10.7,2.4s-2.8,2.4-2.8,2.4l0.8,2.2c0,0-1.6-2,4-2s12.9-1,18.4-5.9
	c5.5-4.8,13.1-7.5,17.2-7.7c4-0.2,10.9,3.8,11.7,4.6C167.3,406.2,168.3,409,168.3,409L168.3,409z"/>
<path d="M118,431.6l-0.8-2.8c0,0,2.4-0.8,3.8-0.2c1.4,0.6,2,1.4,5.1,1.6s7.3-1.2,7.3-1.2s-2.8,2.2-4.6,2.6c-1.8,0.4-3.8,0.6-5.7,0.2
	C121.2,431.4,118,431.6,118,431.6L118,431.6z"/>
<path d="M164.7,419.3l1.4-5.5c0,0-2.4-6.5-5.9-6.9c-3.4-0.4-11.3,1.8-14.5,3.6c-3.2,1.8-8.7,7.1-15.6,7.9
	c-6.9,0.8-14.5,2.8-14.5,2.8s3.6,4.8,8.7,2.4c6.2-3,17.8-5.3,20.4-7.1s9.3-7.1,15-4.4C162.7,413.8,163.5,416.3,164.7,419.3
	L164.7,419.3z"/>
<path d="M192.9,428.8c-0.2,0.8-0.4,4.8-0.4,4.8s-1.8-1-4.4-1.2c-2.6-0.2-5.3-1.2-7.9-0.2c-2.6,1-5.7,0.4-3.2-0.8
	c2.4-1.2,3.2-2,6.9-2C187.5,429.4,192.9,428.8,192.9,428.8L192.9,428.8z"/>
<path d="M192.1,445.8l0.4,4.2c0.1,0.9-6.1-3-8.1-3s-7.7-0.6-9.7,0c-2,0.6-5.5,0.6-5.5,0.6s-0.2-1,2.6-1.6c2.8-0.6,8.7-2,13.5-1
	C190.3,446,192.1,445.8,192.1,445.8L192.1,445.8z"/>
<path d="M166.5,452.4c0,0,2.2,0,4.2-0.2s5.1-1.4,5.1-1.4l0.4,2.8c0,0-1.8,0.8-4.8,0.8S166.5,452.4,166.5,452.4L166.5,452.4z"/>
<path d="M156.2,445.1c-0.4,0.8-0.5,7.5-0.5,9.3c0,1.8,0.4,7.4,0.4,7.4s-2.3-2.8-2.5-5.7c-0.2-2.8,1-7.7-0.4-10.9
	c-1.4-3.2-1.6-3.2-2.6-4.6c-1-1.4-1.2-2.8-1.6-0.8c-0.4,2,1.6,3.4-3.4,4.6s-11.9,3.2-10.1,1.4c1.8-1.8,4-1.8,8.3-4.4
	c4.2-2.6,6.3-5.1,7.7-5.7c1.4-0.6,3.2-0.2,3.8,1c0.6,1.2,2.4,4.7,2.4,4.7L156.2,445.1z"/>
<path d="M163.1,423.4l-2.6,6.5c0,0,0.2-1.8,0.2-3c0-1.2,0.2-2.6-2.8-0.8c-3,1.8-12.2,8.4-14.8,10.6c-2.6,2.2-8.1,5.9-11.5,6.1
	c-3.4,0.2-11.5,0.6-11.5,0.6s1.6-4.4,3.2-4.4c1.6,0,12.9,1.8,13.7-0.8c0.8-2.6,0.4-3.6,6.1-6.9c5.7-3.2,15.4-10.1,16.2-10.1
	C160,421.1,163.1,423.4,163.1,423.4L163.1,423.4z"/>
<path d="M195.4,464.8l0.6,5.1c0,0-6.3-3.8-8.9-4.6c-2.6-0.8-8.7-2.2-8.7-2.2s3.8-1.4,6.9-1.2C187.5,461,190.6,462.9,195.4,464.8
	L195.4,464.8z"/>
<path d="M180.2,466.6c0,0-2.1,0.8-4,1.3c-2,0.5-5.2,0.5-5.2,0.5l0.6,2.8c0,0,2,0.1,4.8-0.9C179.2,469.1,180.2,466.6,180.2,466.6
	L180.2,466.6z"/>
<path d="M157,466.3l0.7,5.1l-2.4,0.4c0,0-3.6-5.6-5.7-3.8s-6.2,5.2-7.3,5.9c-1.1,0.7-5.5,4.7-8.4,3.8c-2.9-0.9-10.6-3.2-10.6-3.2
	s-0.5-3.6-0.2-3.2c0.3,0.4,3.5,2.7,5.1,2.4c1.5-0.3-0.3-3.3,2.2-2.7c2.5,0.6,4.7,2.2,8.4,1s11.9-5.2,11.1-7.9
	c-0.8-2.7-3.3-9-6.7-8.5c-3.3,0.5-4.3,2-5.5,1.8c-1.1-0.2-2.5-0.3-3.8,0.1c-1.3,0.4-3.7,0.8-4.9,0.5c-1.2-0.3-7.2,0.7-7.2,0.7
	l-0.4-3.2c0,0,1.4,0.9,4.4,0.2c3-0.7,2.9-1,5.8-1.5c2.8-0.5,5.2-0.7,7.1-1.8c1.9-1.1,8.3-3.8,8.6-3c0.3,0.8,1.2,7,2.4,9.7
	c1.2,2.7,3.5,6.4,4.5,7.1C155.3,466.7,157,466.3,157,466.3L157,466.3z"/>
<path d="M179.1,471.8c0.4,0,5.5,0.3,7.1,1.5c1.6,1.2,3.8,3.2,5.7,4.4c1.8,1.2,7.1,1.8,7.1,1.8l0.7,3.9c0,0-4.3-0.7-5.6-1.5
	c-1.2-0.8-6.2-6.8-8.4-7.8C183.4,473.2,179.1,471.8,179.1,471.8L179.1,471.8z"/>
<path d="M157.9,474.7c0,0.4,0.1,2.5,0.1,2.5s-2.3-0.3-1.6,1.3c0.7,1.6,2.1,2.6,2.1,2.6l0.2,3.3c0,0-1.2-2.1-2.7-2.5
	c-1.5-0.4-1.9-0.7-3.3-0.5s-2.6-0.3-3.2-0.8c-0.6-0.5-0.5-0.6-2.6-0.6c-2.1,0-6.6-0.5-3.7-1.6c2.8-1.1,7-2.4,9-1.7s3.4-0.6,4-1.2
	C156.7,474.9,157.9,474.7,157.9,474.7L157.9,474.7z"/>
<path d="M133.1,493.7c1.7-0.6,5.2-1.4,6.4-2.7c1.2-1.3,5.7-3.8,7-3.3c4.6,1.3,6.4,0.2,7.7,1.5c0.9,1.1,0.2,0.7,1.9,1.6
	s2.9,1.1,2.9,1.1l0.1,4.1c0,0-2.4-0.9-3-2.2c-0.6-1.3,0.6-1.8-1.3-1.4c-4.7,1.1-9.3-2.3-14.4-0.6C138,492.4,135.3,494.2,133.1,493.7
	L133.1,493.7z"/>
<path d="M125.9,498.2c0,0,4.5-1.7,5.8-1.5c1.2,0.2,4.1,2.2,6.4,3.6c2.2,1.4,4.6,2.2,7.1,1.9c2.4-0.3,7.6-0.7,9.3-0.7
	c1.7,0,4.9-0.5,4.9-0.5v2.7c0,0-0.9-0.1-2.6-0.2c-1.7-0.1-8.7,0.5-9.9,0.7c-1.2,0.2-2.9,2.1-6,1.3c-3-0.8-6.8-6.6-8.1-6.7
	c-1.3-0.1-6.6,0.9-6.6,0.9L125.9,498.2z"/>
<path d="M127.4,512.8c0.4,0,1.2,0.4,3.9,0.7c2.7,0.3,6.9,0.2,10.5,0.3c3.6,0.1,14.7-3.1,15.7-3.8c0.9-0.7,1.4-1.3,1.2-0.9
	c-0.2,0.4-4.1,5.1-7.1,5.5s-5.8,1.8-9.2,1.8c-3.4,0-6.3-0.3-9.2-0.3s-5.5-0.1-5.5-0.1L127.4,512.8z"/>
<path d="M127.7,533.2c0,0,2.5,0.3,2.6-0.6c0.1-0.9,0.6-3.3,3.8-3.9c3.2-0.6,20.4-6.3,22.5-7.8c2.1-1.5,4-3.2,4-3.2l-0.1-1.5
	c0,0-10.9,7.9-21.6,10S128.1,528.5,127.7,533.2L127.7,533.2z"/>
<path d="M188.3,487.2c-1.8,0.1-1.4,0.6-3.9,0.4s-3.2-0.7-4.9-0.4c-1.7,0.3-3.9,0.9-3.9,0.9l0.6,3.4c0,0,1-0.8,2.6-1.6
	c1.6-0.8,1.8-0.5,4.7-0.6C186.4,489.2,188.3,487.2,188.3,487.2L188.3,487.2z"/>
<path d="M201.4,491.5l1,3.8c-2.4,0.5-3.1,2.1-5.5,2.2c-1.3,0-3.6-0.9-6.3-1.1s-6.3-0.4-8-0.3c-1.7,0.1-4.4,0.6-1.6-0.2
	c2.8-0.8,7.8-1.2,11.5-1.1C196.4,495,201.4,491.5,201.4,491.5L201.4,491.5z"/>
<path d="M204.4,501.6l0.8,2.7c0,0,0.2,0.6-1.5,1.5c-1.7,0.9-0.5,1.1-3,1.7c-2.5,0.6-6.7,0.9-8.4,0.7c-1.7-0.2-6.4-0.6-7.2-0.5
	c-0.8,0.1-2.3,0.7-0.6-0.1c1.7-0.8,6-3,7.7-2.4c1.7,0.6,4,1,6.5,0.1C201,504.5,204.4,501.6,204.4,501.6L204.4,501.6z"/>
<path d="M165.9,532c0,0,10,16.2-2.7,17.4c-12.6,1.2-26.1,1.2-28.9,0c-2.9-1.2-5.7-7.3-1.9-8.9c3.8-1.7,13.7-3.2,17.5-8.7
	c3.8-5.5,7.6-5.4,10.2-6C163.6,525.1,165.9,532,165.9,532L165.9,532z"/>
<path d="M218.1,526.5c0.7,1.9,11.2,12.6-1,13.3c-12.1,0.7-28.8,0-29.5-0.7c-0.7-0.7-2.1-6.2-0.5-6.7c1.7-0.5,6.9-2.4,10.7-9.1
	c3.8-6.7,11.7-6.7,12.6-6.2C211.4,517.7,218.1,526.5,218.1,526.5L218.1,526.5z"/>
<path d="M207.4,508.6l1.4,2.5c0,0-3.7,5.1-5.6,5.1s-2.9-0.6-4-0.6c-1.1,0-0.8-1-1.8,0.7c-1,1.7-2.8,3.2-2.8,4.1s-0.9,3-1.8,3.6
	c-0.9,0.6-2.4,1.6-3.2,2.2c-0.8,0.6-2.5,1.7-2.5,1.7s0.5-1.6-1.1-1.2c-1.6,0.4-1.8,0.6-3.1-0.6c-1.3-1.2-3.6-3-2.4-2.9
	c1.2,0.1,1,1.1,3,1.3s4.6,0.1,6.7-0.8s3.2-3.1,4-4.5c0.8-1.4,2.5-1.2,1-1.6c-21.8,2.6-3.1,0.8,0.7-2.5c0.5-1.2,2.6-0.8,5.2-1.3
	C203.4,513.3,207.4,508.6,207.4,508.6L207.4,508.6z"/>
<path d="M180,517.1c1.6,0.9,4.1,1.5,4.5,1.5c0.4,0,0.9-0.2,0.6,0.9c-0.3,1.1-1.7,3.6-1.7,3.6s-0.5-3.3-1.7-3.4c-1.2-0.1-2,0.5-2,0.1
	s-0.1-2.8-0.1-2.8L180,517.1z"/>
<path d="M187.7,510.2c-1,0.7-2.2,1.3-3.6,1.2s-4.9-3-4.9-3l0.2,3.4c0,0-0.1-1.8,1.6,0.2c1.7,2,1.3,2.9,2.7,2.3
	c1.4-0.6,3.2-2.6,4.3-3.3c1.1-0.7,2.3-1,3-1.1c0.7-0.1-0.3-0.7,0.8-0.1s3,2.6,3.4,3.1c0.4,0.5,0.5,0.6,1.3,0.6
	c0.8,0,2.2,0.6,0.3-1.2c-1.9-1.8-5.5-3.2-6.3-2.9S187.7,510.2,187.7,510.2L187.7,510.2z"/>
<path d="M146.7,523.9c0,0-4.3,1.2-4.7,1.2s-7.8-0.2-9.4-0.4s-4.4-1.5-4.4-1.5s-1.4-3.2,0-2.1s4.8,1.9,7.4,1.9
	S146.7,523.9,146.7,523.9L146.7,523.9z"/>
<path d="M142.3,111c1.1,0,8.1-1.2,13.7-1.3s17.5,0.3,24,1.8c6.6,1.5,23.4,5.9,25.6,7.1c2.1,1.2,7.5,3.3,7.5,3.3s-5.1-1-8.1-1.8
	s-19.2-4.9-22-5.5c-2.8-0.5-6.9-1.7-12.4-1.5c-5.6,0.2-13.8,0.5-17.2,0.6C150.1,113.8,142.3,111,142.3,111L142.3,111z"/>
<path d="M390,187.9c0,0,4.4-10.4-2.1-20.7c-6.6-10.3-16.4-21.6-19.9-30.3c-3.5-8.7-9.3-11.4-11.2-18.2c-1.9-6.8-9.2-16.7-19.3-19.7
	c-10.1-3-24.4-16.6-41.8-22c-17.4-5.5-17.7-5.6-17.7-5.6s8.2,3.9,15.5,7.9c7.3,3.9,20.5,12.3,26.2,16.4c5.7,4,11.1,12.5,12.6,13.5
	c1.5,1,2.1,1.9,2.6-1c0.5-2.9,1.5-5.8,3.3-3.8c1.8,1.9,9,14.2,14.8,20.4c5.9,6.2,8.6,10.9,12.5,17.2
	C369.5,148.2,381,160.6,390,187.9L390,187.9z"/>
<path d="M364.3,310.6c0,0,30.7-49.3,30.9-72.3c0.1-23-0.3-39.4,1-48.7c1.3-9.3,2.3-16.9-1.9-25.1c-4.1-8.3-11.9-9.3-15.4-19.4
	c-3.6-10.1-13.3-34-18.3-40.3c-5-6.3-18.3-10.6-23.6-12.1c-5.3-1.6-7.6-4.4-13.3-7.3c-5.7-2.9-22.6-10.6-30.4-12.1
	c-7.9-1.6-14.1-5.1-22.1-6c-8-0.9-15.9-1.7-19.3-2.6c-3.4-0.9-12.3-3.6-14.4-3.6c-2.1,0,1.6,0-3.7,1.7c-5.3,1.7-16.7-0.3-16.7-0.3
	s0.4-2.9,4.7-3.3c4.3-0.4,12.9-1.6,21,0c8.1,1.6,12.6,2.9,16.9,2.9c4.3,0,10.4,0.3,13.6,1.7c3.1,1.4,11.4,3.4,17.1,4.1
	c5.7,0.7,11.7,2,16.1,3c4.4,1,11.7,2.1,19.9,5.9c8.1,3.7,17.1,9.9,21.6,9.6c4.4-0.3,13.1-1.1,16.9,3.1c3.7,4.3,20.4,43.4,24.6,48.1
	c4.1,4.7,19.3,18,18.6,29.9c-0.7,11.9,0,15-2,23.9c-2,8.9-1.7,25.3-2.6,32.3c-0.9,7-8.3,38.3-10.9,42.6
	c-2.4,3.9-20.9,35.6-25.6,44.1L364.3,310.6z"/>
<path d="M374.9,310.8c0,0,8.7,0.7,9.3,0.1c0.6-0.6,27.1-44.6,33-67.1c5.9-22.6,7.3-30.4,9.1-48.4c1.8-18,6.5-51.3,6.9-72.1
	c0.4-20.8-0.4-30.5-5.7-34.5c-5.3-4-10.7-6.3-15-7.3c-4.2-1-11.9-0.2-15.2-0.4s-10.9-0.8-7.7-0.4c3.2,0.4,19.2,1.4,25.3,12.5
	c6.1,11.1,6.7,24.6,6.3,35.4c-0.4,10.7,0.2,35.2-2.6,47.7c-2.8,12.5-4,5.7-5.7,22c-1.6,16.4-4.4,26.5-5.3,35.2
	c-0.8,8.7-3.4,21-6.1,30.3C399,273,391.5,288.6,374.9,310.8L374.9,310.8z"/>
<path d="M392.3,82.1c4.2,2,16.2,3,19.2,17c3,13.9,4,30.1,4,35c0,4.8-0.2,5.1-0.2,5.1s-0.4-22-7.9-37C400,87.2,392.3,82.1,392.3,82.1
	L392.3,82.1z"/>
<path d="M301,66.6c6.1,1,21.2,4,34.7,6.3c13.7,2.2,45.3,4.6,50.9,9.7c5.7,5.1,16,15.2,17.8,26.1s5.1,28.5,5.7,32.5
	c0.6,4,4.2,14.5,4.2,14.5s-4.6-1.6-7.5-8.5c-2.8-6.9-10.7-14.5-11.5-28.9c-0.8-14.3-7.1-27.1-16.4-32.7c-9.3-5.7-27.1-8.3-29.3-8.3
	s-8.1,1.2-14.3-1C329.1,74,306.9,70.2,301,66.6L301,66.6z"/>
<path d="M335.4,79.1c3.6,0.8,9.1,1,15.4,2.4c6.3,1.4,14.3,1.2,21.8,11.3c11.4,15.4,8.7,19.4,13.1,27.9c4.4,8.5,8.7,13.7,8.7,13.7
	s-2-2.2-5.5-17.8c-3.4-15.6-12.3-27.3-17.2-29.9c-4.8-2.6-16-6.5-21-6.7C345.7,79.9,335.4,79.1,335.4,79.1L335.4,79.1z"/>
<path d="M416.2,81.1c5.1,0,10.7-0.2,12.1,0.2c1.4,0.4,6.3,0.6,8.5,1.4c2.2,0.8,4-0.4,10.7,5.1c6.7,5.5,5.7,8.1,5.7,8.1
	s-4.2-3.6-5.9-4.2c-1.6-0.6-4.8-1-2.6,2c2.2,3,4.2,28.7,1.4,43.4c-2.8,14.7-2.4,12.1-3,19.8c-0.6,7.7-4.1,33.2-8.9,54.6
	s-13.9,49.1-14.8,54.6c-1.9,10.9-4.8,8.3-3.4,4.4c1.4-3.8,5.9-17.4,6.5-21.8c0.6-4.4,5.7-41.1,8-50s5.9-27.1,5.9-31.9
	c0-4.8,1.4-14.5,2.8-19.8c1.4-5.3,4.6-28.9,2.4-37.8s-5.9-14.5-4.2-15.2c1.6-0.6,3.6,0.6,3-1.4c-0.6-2-4.4-5.7-9.3-7.5
	C426.1,83.3,429.1,83.9,416.2,81.1L416.2,81.1z"/>
<path d="M434.8,80.3c0,0,14.7,0.8,16.6,2.2c1.8,1.4,4.8,3.2,4.6,6.7c-0.2,3.4-2.4,1.2-1.8,6.1c0.6,4.8,1.4,32.3-2.2,56.2
	s-6.5,38.4-10.1,49.7c-3.6,11.3-6.9,32.3-9.9,40.2c-3,7.9-8.9,30.5-11.1,37.6c-2.2,7.1-13.5,22.8-15.2,25.9c-1.6,3-4.2,5.1-4.2,5.1
	l10.5-2.2c0,0,25.1-41.4,36.2-87.5c11.1-46.1,12.7-76.2,17.8-93.7c5.1-17.6,7.5-31.9,6.3-37.4c-1.2-5.5-5.1-5.5-4.4-6.5
	c0.6-1,8.1-4,6.7-4C462.6,79.4,444.6,79.3,434.8,80.3L434.8,80.3z"/>
<path d="M476.4,82.3c2.8,0.6,7.9-3.2,8.9,1.2c1,4.4,3.8,16.2-1.4,31.3c-5.3,15.2-10.1,31.1-14.5,47.9c-4.4,16.8-7.7,30.9-7.7,30.1
	s8.9-47.5,12.3-57.8c3.4-10.3,7.5-24.8,8.3-35.2C483.1,89.6,476.4,82.3,476.4,82.3L476.4,82.3z"/>
<path d="M479.6,78.1c0,0,14.5,0,19,1.6c2.4,0.9,9.3,3.4,11.7,4.6c2.4,1.2,13.3,7.5,15,17.8c1.6,10.3,3.4,53.7-2.6,67.5
	s-19,29.5-22.6,33.7c-3.6,4.2-22,35.8-23.2,39.2c-1.2,3.4-6.5,24.8-6.5,24.8s-2.2-16.4,2-26.3c4.2-9.9,8.5-32.1,19.8-47.1
	c11.3-14.9,20.4-36.4,20.8-60.8s0.6-30.9,0.6-34.1c0-3.2-8.7-12.7-9.5-3c-0.8,9.7-3.4,25.9-4.8,32.5c-1.4,6.7-2.6,27.5-9.5,42
	c-6.9,14.5-16.6,33.5-17.6,43.2c-1,9.7-8.5,21.8-11.9,29.9c-3.4,8.1-6.3,13.7-7.5,19.2s-9.9,27.5-10.1,28.9
	c-0.2,1.4-0.2,8.7-0.2,8.7l-13.5,3c0,0,8.1-13.9,13.3-29.7c5.3-15.8,16.6-44,18-49.7c1.4-5.7,3.8-6.5,4.8-16.4s4.2-17.4,8.7-32.7
	c4.4-15.4,7.1-26.9,7.3-31.9s1.8-7.3,6.1-19.8c4.2-12.5,9.5-28.7,7.5-33.9C491.7,81.2,487,80.6,479.6,78.1L479.6,78.1z"/>
<path d="M508.9,111.2c0,1-0.2,27.1-4,40.4c-3.8,13.3-3.8,13.5-3.8,13.5S507.3,120.3,508.9,111.2L508.9,111.2z"/>
<path d="M525.9,92.4c1.4,1.4,11.7,6.9,11.7,9.7c0,2.8,2.4,15,1.8,20.6c-0.6,5.7-2.4,18-2.6,26.5c-0.2,8.5-2.4,20.8-8.1,28.7
	s-11.9,17.8-7.7,9.1c4.2-8.7,11.1-20,12.9-38.8c1.8-18.8-1.8-26.7-1-33.9c0.8-7.3,0.4-8.9-0.6-11.9
	C531.3,99.3,525.9,92.4,525.9,92.4L525.9,92.4z"/>
<path d="M545.5,106c2,1.8,11.7,10.7,11.7,10.7s5.5,13.7,4,19.2c-1.4,5.5-7.7,16.4-11.3,27.1c-3.6,10.7-6.7,20.8-8.7,24.2
	c-2,3.4-11.7,13.9-14.3,17.8c-2.6,3.8-5.7,9.9-13.9,15.6c-8.3,5.7-10.7,7.7-14.5,11.5c-3.8,3.8-16,17.8-17.2,22.2
	c-1.2,4.4-1.6,10.5-1.6,5.1c0-5.5,4-21.6,20-36.8c16-15.2,40.2-48.1,42.2-63.4C543.9,143.7,544.1,117.5,545.5,106L545.5,106z"/>
<path d="M562.7,143.9c0,0.8-2.2,7.5-1.2,13.1c1,5.7,0.8,8.3-1.2,12.1c-2,3.8-2.4,9.7-0.2,20.2c2.2,10.5,12.3,46.1,12.7,58.8
	c0.4,12.7-1.2,28.9-7.5,37.2s2.4-6.3,3.2-15.4c0.8-9.1,1.6-20.6-5.5-42.6s-13.9-36.4-14.3-40.2c-0.4-3.8,1.8-12.9,4.2-14.7
	c2.4-1.8,1-7.3,3-11.9S560.2,148.8,562.7,143.9L562.7,143.9z"/>
<path d="M568.6,127.9l8.2,6.8c0,0,3.8,12.3,3.2,17.2c-0.6,4.8-4,19.6-0.8,38s7.7,54.8,6.5,59.4c-1.2,4.6-3.6,11.9-5.3,16.4
	c-1.6,4.4-3,7.9-3.2,10.3c-0.2,2.4-7.9,10.5-7.9,10.5s2.8-3.6,3.4-9.3c0.6-5.7,4.4-6.1,5.5-14.5c1-8.5-0.2-22.6-2-38
	s-4.6-28.1-7.3-40.4s-1.8-14.1-1.2-26.1c0.6-11.9,3.2-16.2,2.2-21.6C568.9,131,568.6,127.9,568.6,127.9L568.6,127.9z"/>
<path d="M605.9,155.9l13.9,12.1c0,0,1.2-3.2,5.5-8.9s4.2-14.3,8.1-18.4c3.8-4,9.7-8.3,9.9-11.1c0.2-2.8,5.3-9.9,0.6-5.7
	s-6.3,10.3-5.7,6.1c0.6-4.2,3.4-12.9-1-6.7c-4.4,6.3-11.3,16.6-8.1,10.9c3.2-5.7,5.3-15.8,2.8-12.7s-11.5,17.4-11.5,17.4
	s-2.2,2.6,0.8-3.2c3-5.9,4.4-10.9,0.2-3.8c-4.2,7.1-7.7,14.1-10.7,18.4C607.7,154.4,605.9,155.9,605.9,155.9L605.9,155.9z"/>
<path d="M647.5,144.3c-0.2,2-2,17.6-3.4,20.2s-11.9,13.7-11.9,13.7l15.4,17.2c0,0,2-7.3,5.3-10.7c3.2-3.4,4.4-9.5,9.5-12.1
	c5.1-2.6,6.5-6.1,7.3-3.6c0.8,2.4,3.2,5.9,3.2,3c0-2.8-0.4-13.1-1.6-11.3c-1.2,1.8-3,3.8-2.2,1.6c0.8-2.2,0.4-5.7-1.4-2
	c-1.8,3.6-4.6,6.7-2,2.8c2.6-3.8,1.8-7.3-1-3.4c-2.8,3.8-7.3,10.9-5.7,6.9c1.6-4,2.8-11.1,1.2-6.9c-1.6,4.2-5.9,11.3-4.6,6.1
	c1.2-5.3-1.2-16.4-1.4-11.7c-0.2,4.6-4.6,12.5-4.6,9.5s1-11.7,0.6-10.9c-0.4,0.8-2.2,12.7-2,7.5
	C648.1,154.9,647.5,144.3,647.5,144.3L647.5,144.3z"/>
<path d="M657.2,208l12.9,12.1c0,0-0.2-2.4,3.2-6.1c3.4-3.6,7.5-10.5,10.1-13.1c2.6-2.6,4-6.3,4.4-4.2c0.4,2-0.6,2.8,1,1.6
	c1.6-1.2,3-2.6,3.2-0.6c0.2,2,2,2,3.6,4.4s3,8.9,2.2,2.8c-0.8-6.1,2-13.9,0-12.3c-2,1.6-2,6.5-2,1.6c0-4.8,0.4-8.1,0.2-8.9
	c-0.2-0.8-1.8-3.2-2.6,0c-0.8,3.2-3.6,2.6-1.4,0.2c2.2-2.4,1.2-4.4-0.6-1.4s-4,5.5-2,0.8c2-4.6,2-7.7,0.4-4.2
	c-1.6,3.4-5.5,7.9-4.4,5.7c1-2.2,0.8-4-0.4-2.2c-1.2,1.8-1.6,2.4-1.4,0.8c0.2-1.6-1.8-2.6-1.8-1.6c0,1,1.4,0.2,0,1.6
	c-1.4,1.4-3.6,2.2-2.8,2.8s6.3,0.8,2.6,2.6s-18,11.1-21.4,14.3C656.8,208,657.2,208,657.2,208L657.2,208z"/>
<path d="M678,229.4l9.7,9.9c0,0,8.3-11.9,10.1-13.7c1.8-1.8,6.3-5.3,5.9-3.2c-0.4,2,0.2,2.8,2,2.4c1.8-0.4,4.2-0.2,2.6,1.2
	c-1.6,1.4-4.6,4-2.2,3c2.4-1,3.8-1.6,5.3,0.4c1.4,2,2.2,3.8,2.2,3.8s-4.6,4.2-7.5,5.3c-2.8,1-11.9,7.5-11.9,7.5l-1.4,1
	c0,0,6.3,9.1,6.3,8.3c0-0.8,7.7-8.9,10.5-10.7c2.8-1.8,5.5-4.8,7.5-4.8s4.2,0.4,4.6,1c0.4,0.6,0.6,0.8,0.6,0.8s3.6-2.2,2.8-2.6
	c-0.8-0.4-2.2-1.6-2.4-2.4c-0.2-0.8-1.2-1.8-1.8-2.6s-0.6-1.8-1.8-2.8c-1.2-1-1-2.4-2.8-3.2c-1.8-0.8-1.6-2.4-3-2.8
	c-1.4-0.4-2.2-0.6-1-2.6c1.2-2,2.6-1.4-0.6-5.3s-6.1-7.9-8.3-8.1c-2.2-0.2-2.2,1.2-3.4-0.6c-1.2-1.8-1.8-6.3-2.4-3.6
	c-0.6,2.6-1,7.5-2.4,9.1c-1.4,1.6-3.4,3.8-5.3,5.7c-1.8,1.8-0.4,1.2-5.3,5.3S678,229.4,678,229.4L678,229.4z"/>
<path d="M689.3,310.1c-1.6-1.4-10.1-12.3-11.3-21.9c-1.1-9.6,0.4-11.6,2-11.4c1.6,0.1,5.6,0.9,6.4,1c0.9,0.1,4.9,0.9,8.1,4.4
	c3.3,3.6,8.1,11.6,7.7,12.3c-0.4,0.7-0.4,2.9-2.1-0.1c-1.7-3-5.6-8.4-7.9-10.6c-2.3-2.1-3.6-3-3.7-1.9c-0.1,1.1,3,5,2,5.1
	s-5.1-2.1-3.9,0.1c1.3,2.3,2.4,6,4,6.9c1.6,0.9,4,2.3,3.4,2.6c-0.6,0.3-3.6,0.3-3.6,0.3s2.7,3,1.9,3.4c-0.9,0.4-0.7,0.6-2.6-0.1
	c-1.9-0.7-2-0.9-2.1-0.3c-0.1,0.6,0.6,1.7,1.1,2.7c0.6,1,2,2.4,1.9,4.3C690.6,308.9,689.3,310.1,689.3,310.1L689.3,310.1z"/>
<path d="M718.6,298.6c-1.6,1-4.5,1.7-6.6,2.4c-2.1,0.7-3.7,0.9-3.4,4c0.3,3.1,1,9.7,5.7,7.6c4.7-2.1,13-6.4,12.1-7.4
	c0,0-0.2-2.7-0.8-3.7C724.5,299.5,718.6,298.6,718.6,298.6L718.6,298.6z"/>
<path d="M702.6,286.7c0,0,2.1,0.4,5.3,2.6l3.1,2.1c0,0,5-7.6,7.4-11.1c2.4-3.6,6-9,8.1-10.7c2.1-1.7,1.6-2.6,3.9-4.3
	c2.3-1.7,3.1-6.9,3.1-6.9s-3.3,1.9-4.7,3.3c-1.4,1.4-5.1,5.3-7.3,6.1c-2.1,0.9-7.9,7.9-9.4,8.9c-1.6,1-6,5.3-6.9,6.4
	C704.4,284.3,702.6,286.7,702.6,286.7L702.6,286.7z"/>
<path d="M747.7,298c0,0-4.6,2.2-7,3c-0.1,0-0.4,0-0.4,0c-0.1,0.1-0.1,0.2-0.1,0.3c-0.1,0.1-0.3,0.1-0.4,0.1c-0.1,0-0.1,0.1-0.1,0.1
	c-0.1,0.3-0.3,0.1-0.4,0.1c-0.1,0-0.1,0.1-0.1,0.1c-0.2,0.1-0.5,0.1-0.7,0.1c-0.1,0-0.2,0.1-0.3,0.1c0,0-0.1,0-0.1,0
	c-0.1,0.1-3,2.4-3.1,2.4l-4.7,4.6c0-0.4,4.7-4.9,5.1-6.1c0.4-1.3,3.7-5.3,4.6-5.4s6.4-2.6,8.1-3c1.7-0.4,3-1.3,3-2.1
	c0-0.9-0.9-1.6-2.7-1c-1.9,0.6-6,1.9-7.6,2.6c-1.6,0.7-3,1-1.4-0.6c1.6-1.6,6.6-3.6,8-4.3c1.4-0.7,3-1.6,3.4-2.1
	c0.4-0.6,1-2-1.3-1.4c-2.3,0.6-3.4-0.4-2-1.3c1.4-0.9,3.3-3.1,1.4-2.3c-1.9,0.9-6.3,5.3-8.6,6.6c-2.3,1.3-2.3-0.1,0.4-2
	c2.7-1.9,6.9-6.9,6.9-6.9s0.9-3.9-0.6-2.3c-1.4,1.6-10.7,6.4-8.4,4.9c2.3-1.6,6.6-4.9,6.7-6.4c0.1-1.6,2.4-4.4,0.7-3
	c-1.7,1.4-7.3,5.3-9,7.1c-1.7,1.9-2.9,2,0.1-0.6s5.9-5.4,6.9-6.6s1.6-3.1,0-3c-1.6,0.1-4.1-0.4-2.1-1.6c2-1.1,3.3-0.7,2.1-1.6
	c-1.1-0.9,0.4-2.7-1.9-1.4c-2.3,1.3-4,7.3-5.1,9.3c-1.1,2-3,1.9-5.7,5.4c-2.7,3.6,0.3,8.3-4.9,10.9c-5.1,2.6-10.9,3.6-11,3
	c-0.1-0.6-4.3,1.7,1.4-2.6c5.7-4.3,7-8.6,9-11.3c2-2.7,2.7-3.1,3.1-4c0.4-0.9,2.3-2.9,3.4-4.6c1.1-1.7,4.3-4.7,5.7-5.7
	c1.4-1,2.6-1.3,2.9-2.4c0.3-1.1-1.4-4-2.4-3.4s-2.4,2.7-3.1,3.6c-0.7,0.9-1,2.6-0.9,1s1.1-4.1,1.3-5.1c0.1-1-0.6-4.1-1.7-4.7
	c-1.1-0.6-2.1-1.4-4-0.7c-1.9,0.7-4.3,1.4-4.3,0.9c0-0.6-0.4-1.6-1.3,0c-0.9,1.6-3.4,4.4-6,6.4s-6.7,7.9-9,9.3
	c-11.1,4.3-9.9,13.4-11.7,12.2l-2.7-3.2l-4.7-3.2c3.9-3.1,0-4,2.7-6.7c2.7-2.7,7.1-7,9.9-8.4c2.7-1.4,10.3-6.1,12.4-7.1
	s7.4-4.1,8.3-5.6c0.9-1.4,1.7-2.4-0.1-1.7c-1.9,0.7-4.1,0.6-2.7-0.4s1.4-3.9,1.4-3.9s3.6-3.1,3.7-2.6c0.1,0.6,4.3,2.1,3.7,3.6
	c-0.6,1.4-2.3,2.3-0.3,3c2,0.7,6.9-0.6,7.1,0.4c0.3,1,1.9,1.9,1.9,2.9s1.1,1.7,1.3,2.3c0.1,0.6,1,1,2,2.3c1,1.3,1.6,1.9,2.7,2.6
	c1.1,0.7,0.9-0.9,3.1,1.7c2.3,2.6,2.3,4.6,2.1,6.9c-0.1,2.3-0.6,1.6,0.4,4.7c1,3.1,1,4,1.1,5c0.1,1,1.1,4.4,1.9,4s3.6-3.6,3.1-1.3
	c-0.4,2.3-0.3,3.1,0.3,2.9c0.6-0.3,2.1-1.4,1.3,0.7s-0.9,3.4,0,3.3c0.9-0.1,1.4,0.1,1.6,1.7c0.1,1.6,2.7,0.7,2.6,1.9
	c-0.1,1.1,2.6,0.9,2.6,0.9s-0.3,1,2.6,0.4c2.9-0.6,7.6-4.3,7.6-1.9c0,2.4-3.9,5.3-5.4,8.9c-1.6,3.6-3.6,4.1-3.7,4.7
	c-0.1,0.6,0,2.3,0,3c0,0.7-2.7,1.6-0.9,2.1s4.7,0.7,3.9,1.3c-0.9,0.6-1.7,1.7-0.7,2.1s1.1,1.7-0.4,1.7s-3.4-0.1-1.7,0.9
	c1.7,1,3,3,2.6,3s-2.4,0.6-1.3,1s-0.7,1-0.1,1.4c0.6,0.4-2.3,0.1,0.1,1.1c2.4,1,4.7,3,2.7,2.4s-5.1-1.1-6.4-2.3
	c-1.3-1.1-4.1-5-7.6-5.9c-3.4-0.9-8.9-0.7-8.9-0.7s4.7-2.1,9.3-0.4c4.6,1.7,5.9,0.4,2.1-0.7c-3.7-1.1-4.1-2.1-2.7-3.6
	c1.4-1.4,2.9-3.6-1.1-1.3s-6.1-0.6-1.3-1.9c4.9-1.3,1.1-3.3-1.7-2.4c-2.9,0.9-7.7,1.5-4.3,0.7c3.4-0.9,10.3-1.8,10.6-2.8
	c0.3-1-1-2.4-2.1-2.6c-1.1-0.1-0.9-0.4-2.9,0.6s-1.7-0.4-1.7-0.4s1.4-1.6-0.7-0.3C748,298.6,747,298.1,747.7,298"/>
<path d="M756.9,269.8c0.4-0.7,3-9,7.3-13.3c1.2-1.3,5.9-4.1,9,1c3.1,5.1,6.1,14.4,5.9,17.6c-0.3,3.1-2.3,9.7-2.6,9
	c-0.3-0.7,0.4-9.1-1-10.9c-1.4-1.7-1.7-2.9-2.4-2.4c-0.7,0.4-1.4,0.6-1.6-0.7c-0.1-1.3-0.6-1.7-1.4-1.1s-2.9,0.1-2.4-0.7
	c0,0-2-0.4-3.1,0.1s-0.3-1.3-0.6-3.1c-0.3-1.9-2,0.6-3.6-0.9C758.7,263,757.7,269.8,756.9,269.8L756.9,269.8z"/>
<path d="M699.6,308.8c0,0-5.6,1.4-6.9,3.1c-1.3,1.7,1.7,2.6,1.7,2.6s0.6-2.9,1.9-3.3C697.6,310.8,700.1,309.1,699.6,308.8
	L699.6,308.8z"/>
<path d="M584.6,142.2l10.2,8.5c0,0-0.4,5.9,0.6,13.1c1,7.3,2.1,21.7,6.1,38.4s4.3,31,0.4,40.7c-3.9,9.7-7.4,16.4-9.7,20.3
	c-2.3,3.9-7.1,6.7-7.7,7c-0.6,0.3-1.4,0.3-1.1-0.4s8.3-11.6,8.7-19.7c0.4-8.1-0.6-12.9-0.6-17.7c0-4.9,0.7-5.6-0.9-14.6
	c-1.6-9-3.3-10.7-2.7-13.9c0.6-3.1-0.7-9-0.9-19.4c-0.1-10.4-1.4-28-2.3-31.1s-1.4-6.9-1.6-8.4C583.1,143.4,584.6,142.2,584.6,142.2
	L584.6,142.2z"/>
<path d="M617.1,197.7c0.7-1.3,5.1-7.4,3.4-14.3c-1.7-6.9-2.7-9.4-1.9-11.1s0.2-3.4,0.2-3.4s-11.9-9.7-13.9-10.6
	c-2-0.9-5.6-3.2-4.5-0.5c1.1,2.7,2.9,4.9,2,7.4c-0.9,2.6-2.7,5.7-0.7,14.4c2,8.7,5.9,15.7,6.1,23c0.3,7.3-2.1,9.7-1,14.7
	s2.9,25.6-3.7,33.3c-6.6,7.7-7.1,8.4-7.6,11.7c-0.4,3.3-1.4,7-4.6,7.7c-3.1,0.7-7.6,1.4-5,1.6c2.6,0.1,6.1,1.3,6.6,1.6
	c0.4,0.3,0.1,1.1,0.9,0.7c0.7-0.4,5.7-6,5.7-6c1.4-2.9,5-5.1,8.7-7.3c3.9-2,12.9-9.6,14.9-12.3s7.3-8.4,9.4-10.4
	s11.1-22.4,13.3-32.3c0.5-2.3,3.7-8.1,1.8-10.1c-6.5-7.3-15.2-15.6-15.2-15.6s-3.1,0.9-4.1,5.3c-1,4.4,1.7,9.4-0.7,12.6
	c-2.4,3.1-3.3,10.9-3.3,12.3c0,1.4-1.1,0.9-2.3,3.6c-1.1,2.7-1,12.7-2.1,15.7s-8.4,9-4.9-0.6c3.6-9.6,5-13.9,5-16.9
	s-2.1-14.6-2.1-14.6"/>
<path d="M546,187.3c0,0.7-6.1,7.4-2.1,19.4s8.7,17.1,10.3,23.7c1.6,6.6,5.3,9.4,6.3,13.6c1,4.1,3.4,21,3.4,24.9c0,3.9-5,14.3-5,14.3
	s6.6-13.1-1.6-30.7c-8.1-17.6-6.4-19.3-11.4-22.7c-5-3.4-12-9.3-10.9-16.1c1.1-6.9,0.7-8.1,4.3-15.3
	C542.9,191.1,546,187.3,546,187.3L546,187.3z"/>
<path d="M531,210c-0.6,1.3-8.9,9.7-8.9,9.7s4.6,2.7,0.9,8.3c-3.7,5.6-9.5,10.6-18.3,15.3c-10,5.3-14.9,7.9-20,14.9
	c-6.4,8.8-4.3,10.1-4.3,10.1s-0.7,0.1,0,0c0.7-0.1,1.9-4,7-7.1c5.1-3.1,18.4-13.9,25.9-15.7c7.4-1.9,7.4-7.1,14.3-3.9
	c6.9,3.3,12.6,7.3,16.4,12.9c3.9,5.6,9.9,13.7,11,18.9c1.1,5.1,0.6,7.9,1.1,4.3c0.6-3.6-1-12.2-2.9-16.7c-3.2-7.6-9.1-16.7-14-20.6
	c-7.8-6.2-12-4.3-12.9-7.1c-0.9-2.9,0.7-3.1,2.9-6.4C531.3,223.6,532.4,218.6,531,210L531,210z"/>
<path d="M641.8,262.7c0.2,0.8-2.8,7.5-5.1,11.5c-2.2,4-10.7,14.5-12.5,15.6c-1.8,1-3.8,2.6-3.8,2.6s3.6,2.2,5.9,4.4l2.4,2.4
	c0,0-1.2,0.4,0.6-0.8c1.8-1.2,4,1,7.3-2.6c3.2-3.6,17.2-28.1,24.6-50.1c7.5-22,7.8-23,7.8-23l-12.1-14c0,0-8.5,15.2-8.9,21
	s-4.8,12.1-8.7,15.4c-3.8,3.2-16,19.6-20.2,23.2c-4.2,3.6-7.9,8.3-7.9,11.3v5.5l6.9,5.3c0,0,0-2.8,3.4-5.3
	c3.4-2.4,10.5-9.3,11.7-11.1c1.2-1.8,3-7.5,4.4-8.7C639.2,264.2,641.8,262.7,641.8,262.7L641.8,262.7z"/>
<path d="M676.6,230.4l10.3,10.7c0,0-1.2,2.8-3.8,5.5c-2.6,2.6-2.2,6.1-6.9,13.5s-5.7,9.7-5.7,11.5c0,1.8-0.2,5.5,2.6-0.2
	c2.8-5.7,9.1-16.4,11.1-18.8c2-2.4,7.5-5.1,7.5-5.1l8.2,6.6c0,0-0.7,1.9-3.8,3.9s-7.7,8.3-8.9,10.3c-1.2,2-3,5.3-4.2,5.5
	c-1.2,0.2-7.1,2.2-7.3,4.2c-0.2,2-0.4,3.8-1.6,5.5c-1.2,1.6-9.1,17.2-11.1,21.6c-2,4.4-2.6,9.7-3.2,12.5c-0.6,2.8-5.6,9.6-5.6,9.6
	s-5.1-5.1-10.7-11.4l-5.7-6.3c0,0,1-0.8,2.8-4.6c1.8-3.8,4.2-8.9,7.9-12.7c3.6-3.8,5.7-7.4,8.5-13.7c6.9-15.6,5.9-13.5,8.7-23
	C668.3,246.5,670.5,241.5,676.6,230.4L676.6,230.4z"/>
<path d="M721,296.9c0,0,9.7-3.4,9.9,1c0.2,4.4-2.2,6.7-2.2,6.7S730.5,299.3,721,296.9L721,296.9z"/>
<path d="M744.5,303.6c-3.8,1.8-10.2,4.1-11.7,8.3c1.3,6.6-7.7,4.3-9.5,8.9c2.6,4.6,1,10-2.9,13.2c-3.3,5.1-6.7,10.3-8.7,16.1
	c-0.6,6.1-1.3,12.1-4.4,17.9c-1.6,6.5-1.6,11.6-7.3,14.6c-3.9,4.7-7,5.9-12.6,7c0,0-9.9-0.1-10.2,5.3c0,0,1.4,10,3.1,10.1
	c1.7-5,4.3-9.2,9.7-9.9c7.1-2.6,13.3-7.7,17.8-13.7c4.3-6.4,4.6-14.2,5.8-21.5c1.5,1,2.4,8.1,3.6,11.3c2.4,4.6-0.4,9.7-3.7,13
	c-6.8,7-15.2,12.7-19.7,21.7c-3.4,5.5-5.5,11-5.2,17.5c1.7,1.7,7.6,8.3,5.7,2.3c-1.4-4.8-0.3-9.9,2.8-13.8
	c4.4-5.7,10-10.4,14.3-16.2c3.3-4.4,7.3-8.6,9.3-13.8c0.2-5.3-0.3-10.8-1.9-15.9c-3-3.8-4.2-8.6-3.7-13.3
	c0.2-9.5,7.3-17.1,14.7-22.3c4.4-3.3,1.9-9.4,3.4-13.9C731,309.2,743.4,308,744.5,303.6L744.5,303.6z"/>
<path d="M704.5,322.7c0.2,1.2,1.2,4.4,2.8,4.6c1.6,0.2,4.2-0.6,5.5-1.4c1.2-0.8,3.6-3.4,5.5-3c1.8,0.4,3.2,2.4,2.8,3.4
	c-0.4,1-1,4-2.6,5.3s-2.4,3.4-2.6,4.2c-0.2,0.8-2.4,0.4-3.4,1.8c-1,1.4-2.6,5.5-4,9.5c-1.4,4-1.4,3.6-2.4,9.1c-1,5.5,0,9.7-1.8,9.1
	c-1.8-0.6-0.4-16.2,1.2-20.4c1.6-4.2,3-5.7,3.6-6.7c0.6-1,0.2-2.2,1.6-2.8c1.4-0.6,5.9-4.6,6.5-5.9c0.6-1.2,1.8-3.6-0.6-1.8
	c-2.4,1.8-6.7,3.2-9.5,2.4C704.1,329.4,701.2,324.8,704.5,322.7L704.5,322.7z"/>
<path d="M689.7,312c0,0,4.8,5.1,6.3,5.5c1.4,0.4,1.8,0.4,1.8,0.4s-6.5,12.5-8.1,15c-1.6,2.4-1.4,6.3-4,11.9
	c-2.6,5.7-3.4,11.1-6.1,10.5c-2.6-0.6-2,0.2-2.4,2.4c-0.4,2.2-1,8.9-1.6,4.6c-0.6-4.2-1.8-9.7-4.4-13.7c-2.6-4-4.7-6.8-4.9-7.8
	c-0.2-1,1.1-2.9-0.5-6c-1.6-3-2.8-0.4-1-4.6c1.8-4.2,0.8-3.6,1.8-8.7c1-5.1,1-8.1,2.8-11.5c1.8-3.4,9.1-16,9.1-15s2,7.3,4.4,9.9
	c2.4,2.6,2,2.6,2,2.6s-0.4,3.2-2.2,5.9c-1.8,2.6-2.6,5.1-5.1,7.9c-2.4,2.8-5.1,10.1-5.9,15s0,9.5,1.6,9.3c1.6-0.2,2.8-5.5,5.7-9.9
	c2.8-4.4,8.5-11.1,8.9-14.1C688.3,318.5,689.7,312,689.7,312L689.7,312z"/>
<path d="M701,319.5c0,0-2.2,4-3.6,8.7c-1.4,4.6,0.2,7.1-1.4,10.5c-1.6,3.4-4.4,11.1-5.9,15.4c-1.4,4.2-1,6.7-3.2,8.7
	s-6.8,6.3-6.8,6.3s-3-0.1-3,1.5s-0.1,6.7,0.9,5.7c1-1,5.7-1.4,8.7-5.9c3-4.4,4.8-13.9,6.9-19.2c2-5.3,4.4-10.3,5.1-16
	c0.6-5.7,3-11.5,2.8-12.9L701,319.5z"/>
<path d="M707.7,332.6c-1.6,0-6.3,3.2-7.3,6.5c-1,3.2-2.4,11.7-2.4,15.6c0,3.8-0.4,13.3-2.8,17.6c-2.4,4.2-6.9,8.9-6.9,8.9
	s-1.2,1.4,1.8-0.2c3-1.6,10.5-8.3,10.5-12.5s0.2-22.4,1.6-25.7s3.4-6.7,4.4-7.3C707.7,334.9,708.1,333.4,707.7,332.6L707.7,332.6z"
	/>
<path d="M731.6,333c-1,0.6-7.3,4-7.9,8.1c-0.6,4-0.8,9.7-0.8,12.9s-2.6,8.3-1.8,10.5s1.6,2,2.4,7.7c0.8,5.7-0.8,7.7,0.6,13.5
	s1.6,5.9,1.6,5.9s2.4-0.4-0.2,0c-2.6,0.4-5.3,5.7-8.7,8.7c-3.4,3-12.7,11.7-14.3,14.5c-1.6,2.8-3.4,7.5-3.6,8.5
	c-0.2,1-2.3,6.5-2.3,6.5l1.8,1.3l2.2,1.2c0,0-2.1,2.2,2.7-6.2c4.8-8.5,6.7-7.3,7.3-11.1c0.6-3.8,6.9-9.3,8.3-10.5
	c1.4-1.2,4.8-7.7,5.7-8.7c0.8-1-0.8-2.8,2.2-1.6c3,1.2,4.8,4,8.5,3.8c3.6-0.2,5.1-1.2,6.9,1.6c1.8,2.8,3.8,3,6.3,6.5
	c2.4,3.4,8.5,11.5,10.7,14.3c2.2,2.8,6.5,11.7,7.5,15.6c1,3.8,3.2,15.4,3.2,15.4h0.2c0,0,0.1-2.3,0.1-3.1s-0.7-7.4-1.9-13
	c-1.2-5.7-3.2-9.5-5.7-14.3c-2.4-4.8-5.7-10.7-7.3-13.7c-1.6-3-3.8-7.7-3.8-7.7v-0.4c0-2-1.6-6.3-1.2-11.5
	c0.4-5.3-1.8-12.5-6.9-14.7c-5.1-2.2-9.3-1.6-11.1-1.2c-1.8,0.4-4.8,1.2-4.8,0s1.2-5.5,0.4-3.8c-0.8,1.6-1.7,4.6-0.7,6.6
	c6.2,11.5,6.8,10.3,14.4,11.6c0,0-1,1.1-2.6,1c-8.8-0.6-10.5-7.5-10.5-7.5c-0.7,5.1,4.3,9.2,7.5,9.7c1.8,0.2,7.9,0.8,8.9,0.4
	c1-0.4,2-2,2.6-1.2c0.6,0.8,1.6,1.2,1.8,3.6c0.2,2.4,1,8.7,0.2,7.3c-0.8-1.4-3.2-6.1-5.3-6.3c-2-0.2-4.3,1.8-10.5-0.2
	c-8.3-2.7-5.1-8.1-7.1-12.1c-1.5-3-1.2-13.3-1.2-15.2c0-1.8,0.6-9.3,0.6-12.7c0-3.4,3-11.5,3.6-14.1c0.6-2.6,2.8-5.3,2.8-5.3
	L731.6,333z"/>
<path d="M749.3,305.5c-0.8,0.5-2.7,1.1-4.4,1.7c-1.7,0.6-6.5,3.3-7.1,5.8c-0.6,2.4-1.3,7.4-0.6,8.6c0.7,1.2,1.7,1.1,0.8,2.9
	c-0.9,1.8-4.9,10.6-5.9,17.6c-0.9,7-0.5,9.4-1.8,12c-1.3,2.6-1.6,10.6-0.8,11.7s2.8,2.6,3.7,2.1c0.9-0.5,1.6-8.9,1.3-12
	c-0.3-3.1,1.6-3.6,2-7.5s-1.4-7.7,0-10.6c1.4-2.9,5.9-10.9,5.3-13.8c-0.6-2.9-1.4-6.1-0.1-9.2C743,311.8,744.3,309.6,749.3,305.5
	L749.3,305.5z"/>
<path d="M459.4,277.3c0,0-1.7,3.7-2.9,6s0.9,11.7,0.9,11.7S458,288.1,459.4,277.3z"/>
<path d="M512.3,251c1.1-0.3,13.4-4.3,15.1-3.4c1.7,0.9,15.1,11.4,16,12.3c0.9,0.9-1.4,0-6.3-2S523.7,251.8,512.3,251L512.3,251z"/>
<path d="M480,282.4c0-2.3,2.9-8.3,4.9-9.7c2-1.4,14.6-4.3,19.7-6.3c5.1-2,13.1-8.3,19.7-6.3c6.6,2,14.6,6.9,18.9,10.3
	c4.3,3.4,7.7,5.1,8.3,6.6c0.6,1.4,6.9,13.1,5.1,10.9c-1.7-2.3-5.1-5.7-10-9.7c-4.9-4-16-11.7-24-10.3c-8,1.4-16.9,4.6-21.4,4.6
	c-4.6,0-9.7,0.6-13.7,4S480,282.4,480,282.4L480,282.4z"/>
<path d="M526.9,281.3c-4,0-6.9,0.6-12.9,0.9c-6,0.3-10.3-0.6-14,0.3c-3.7,0.9-11.1,5.7-12.6,7.4c-1.4,1.7-4.6,8-3.1,5.1
	c1.4-2.9,10.6-7.7,19.4-8c8.9-0.3,16.6-0.3,20.6-0.3s10.6,0.3,14,1.7c3.4,1.4,11.7,2,13.7,4.6s4.3,6.9,2.9,3.7
	c-1.4-3.1-3.4-9.1-9.4-10.3C539.4,285.3,526.9,281.3,526.9,281.3L526.9,281.3z"/>
<path d="M553.1,299c-2,0.6-5.4,2.6-18.9,0.9c-13.4-1.7-22.9-3.4-26-2.6c-3.1,0.9-20,9.4-20,9.4s-3.1,1.1,3.1,0
	c6.3-1.1,21.1-8,28.6-5.1s25.7,4.6,28.6,2.9C550.1,302.9,555.8,301,553.1,299L553.1,299z"/>
<path d="M767.3,322.3c-0.1,3.5,1.2,5.4,1.5,7.7c0.7,2.2-6.9-6.3-9.4-7.6c-2.1-1.2-1.3,5.7-2.2,2.2c-0.1-1.1-0.6-3.9-1.1-1.4
	c-1.6,2.9,0-2.5-1.3-2.7c-1.1,2.8-1.8-2.4-3.8-1.7c-1.7,1.7,0.4,3.9,0.7,5.7c-0.6,1.6-2.9,1.8-3.1,3.6c-1.3,2.8,1.1,6-0.6,8.7
	c-1.1,2.4-0.5,5-0.9,7.5c-0.8,1.8-1.2,3.7-1.1,5.7c-0.1,2.3,0.3,4.7-0.2,6.9c-1.5,4-4.5,7.5-5,11.8c-1.6,1.1-4.5-0.4-3.5-2.7
	c-0.3-2.2-0.6-4.5,0.3-6.6c1.1-2.2,2.1-4.5,1.5-7c0-2-2-4.3-0.5-6.1c2.2,0.5,1.9-2.8,2.6-4.3c1.7-6.6,3.7-13.4,3.4-20.3
	c-0.1-2,0.6-4.5,2.8-5.1c2.3-0.9,5.2-1.8,7.4-0.2C760.3,322.6,765.7,322.2,767.3,322.3L767.3,322.3z"/>
<path d="M756.1,326.8c-1.1,0.4-2.8,1.8-2.9,3c-0.1,1.2-0.6,2.2-1.2,3.3s-1,2-1.2,5.6s0,7.6-0.5,11.5c-0.5,3.9-0.8,5.4-1.3,7.1
	c-0.5,1.7-0.8,4.6-1.2,6.2c-0.4,1.5-1.5,3.7-1.6,4.3c-0.1,0.6,0,1.2,0.6,2.4c0.6,1.2,1.5,2.5,2.8,5.3s1.5,6.2,1.5,5.1
	s-0.6-3.9,1.4-6.1c2-2.1,2.1-4.3,2.4-10.1c0.3-5.8,1.4-13,1.6-15.2c0.2-2.1-0.1-5.4,0.5-8.8c0.6-3.4,0-7.9-0.2-6.6
	c-0.2,1.3-1.7,3.9-1.8,6.5c-0.1,2.5-0.1,5.9-0.4,8s-0.2,4.1-1,2.7c-0.8-1.4-0.9-4.5-0.7-6.7c0.2-2.1,1.2-5.4,1.3-7.2
	s-0.4-5.1,0.2-6.3C755,329.7,756.1,326.8,756.1,326.8L756.1,326.8z"/>
<path d="M784.5,367.9c0,0,1-3.9-2.3-8.7c-1-1.5-1.5-3.8-5.4-10.3c-1.1-1.8-4.2-7.2-4.7-9.4c-0.5-1.8-1-3.8-2-6.7
	c-0.2-0.5-1.2,1.2-0.8,2.6c0.4,1.4-0.2,2.6-0.5,0.8c-0.3-1.8-2.2-4-2.2-2.4c0,1.6,0,3.3-0.7,1.2c-0.7-2.1-2.2-2.7-2.4-0.9
	c-0.2,1.8-0.5,4.6,0.5,6.5c1,1.8,3.5,6,3.6,4.3s0-3.5,0.3-2.2s0.6,3,1.1,3.6c0.5,0.6,1.8,1.1,2.3,3.5c0.5,2.4-0.1,3.4-0.1,6.6
	c0,3.1,1,5.1,1.7,8.1c0.7,3,2.3,9.2,3.6,13.9c1.3,4.7,1.8,10.6,2.1,12.3c0.3,1.7,0.9,7.1,1,6.7c0.1-0.4,0.6-8.9,0.7-11.2
	c0.1-2.3-2-12.7-2.8-14.2c-0.8-1.5-3.1-7.1-3.3-9c-0.2-1.9-0.9-5.2-0.1-4.1s1.6,5.4,3.1,7.9s3.7,7.2,4,8.6c0.3,1.4-0.2,4.8,0.3,3.8
	s1.8-3,0.9-6.9c-0.9-3.8-3.9-10.7-5.5-13c-1.5-2.3-3.3-6-3.8-9.7c-0.5-3.7-2.6-9.5-0.9-5.2c1.7,4.3,5.5,10.5,6.7,12.2
	c1.2,1.7,3.4,5.7,4.2,7.7C784.1,366.4,784.5,367.9,784.5,367.9L784.5,367.9z"/>
<path d="M759.2,326.1c-0.4,1-1.2,1.4-1.1,3.6c0.1,2.2,1.9,4.6,1.6,6.7c-0.3,2-1.4,6.3-1.2,5.2s2.7-5.8,2.1-7.9
	c-0.6-2.1-1.8-2.9-1.6-4.6c0.1-1.1,0.5-2.2,0.4-3.3L759.2,326.1z"/>
<path d="M448.1,329c-2.2,0.1-5.7-0.4-9.3,1.5c-3.6,1.9-8,8.3-8.5,10.2c-0.5,1.9-1.6,6.7-1.5,9.8c0.1,3.1,0.2,6.5,2.3,7
	s3,0.2,6.5-2.3c3.4-2.5,5.6-6.6,7.5-8.9c1.9-2.3,4.5-3.6,3.5-6.5c-1-2.8-1.4-6.1-0.9-6.9c0.5-0.8,1.8-2.7,1.5-3.1
	C448.9,329.4,448.1,329,448.1,329L448.1,329z"/>
<path d="M412,357.5c0.5-0.2,3.5-2.8,4.4-2.6c0.9,0.2,2.8,2.5,4.1,4.1c1.3,1.6,3.1,3.5,5.3,4.6c2.1,1.1,7.4,3.7,9.1,5.2
	c1.7,1.4,9.2,6.5,9.3,7.3c0.1,0.8,0.5,6,0.5,6l-1.9,2.9c0,0,0.1-0.4,0.3-2.8c0.2-2.4-1.4-4.1-3.2-5.6c-1.8-1.4-3.8-3.6-6.1-5.6
	c-2.2-1.9-4.4-4.4-8.8-6.8s-7.3-2.8-7.6-4.5c-0.3-1.7-4.3-0.4-6.3,0.7L412,357.5z"/>
<path d="M481.3,316.6l-1.7,2.6c0,0,1.1,1.3,0,0s-2.4-1.9-3.7-1.9c-1.3,0-4.5,2.3-6.1,2.4c-1.5,0.1-2.5-1.8-4.3-2.2
	c-1.8-0.4-3.5,0-6.9,0.3c-3.3,0.3-8.4-0.2-7.5-0.3c0.9-0.1,8.8-0.7,11.5-1.1c2.7-0.4,4.5,0.1,6.1,0.9c1.5,0.8,2.4,1.1,4-0.1
	c1.6-1.2,2.7-2.3,4.6-2.3C479.3,314.9,481.3,316.6,481.3,316.6L481.3,316.6z"/>
<path d="M428.2,305.5c1.1,0.5,3,2.2,5.3,3.2s5.2,2.3,8.3,2.7c3.1,0.4,7.3,0,8.2,0.4c0.9,0.4,1,2,3.2,2.1s4.8-0.8,7.7-1.2
	c2.8-0.4,6-0.5,7.1-0.2c1.1,0.3,1.4,1.2,1.4,1.2s-4.9-0.1-7.3-0.1c-2.3,0-6,0.8-8,0.9c-2,0.1-2.8-0.7-4-1.2c-1.2-0.5-2.5-0.5-7.1-1
	c-4.5-0.5-6.4-0.6-9.5-2.2c-3.1-1.6-5.6-3.7-5.6-3.7L428.2,305.5z"/>
<path d="M450.7,299.2c0.7-0.2,9-1.3,11.9-0.9c2.9,0.4,7.7,2.1,11.1,2.9c3.4,0.8,11.8,1.3,11.8,1.9s0.9,3,0.7,3.9
	c-0.2,0.9,2.3,1.3-1,1.2c-3.3-0.1-9.9-0.3-13.2-0.1c-3.3,0.2-3.8,0-8.3-2.2c-4.4-2.2-7.4-3.2-9.3-4
	C452.5,301.1,450.7,299.2,450.7,299.2L450.7,299.2z"/>
<path d="M470.3,332l2.5-2.9h-2.4c-2.4,0-10.4,1.2-11.6,1.6c-1.2,0.4-1.5,1-2,0.6c-0.5-0.4-1.1-2.1-0.8-3.8c0.3-1.7-1.1-4.4-4.4-4.9
	c-3.3-0.5-9.6-0.6-13.8-1.3c-4.2-0.7-7.4-1.4-3.8-0.4c3.5,1,17.7,2.3,18.5,2.7c0.8,0.4,1.7,1.5,2.5,4.5c0.8,3,1.5,5.4,2.9,5.1
	c1.4-0.3,5.5-2.9,7.5-2.9c2,0,2.8-0.2,3.6,0.1C469.7,330.6,470.3,332,470.3,332L470.3,332z"/>
<path d="M467,339.2c-0.4,0.2-2.2,3.4-2.2,3.4s-0.1,0.4-0.8-0.8c-0.7-1.2-1.9-2-2.4-2c-0.5,0-2-0.3,0.1-0.5S467,339.2,467,339.2z"/>
<path d="M455,347.5c0,0.4,1,3.7,1.3,4.8c0.3,1.1,1.1,2.4,0.7,3c-0.4,0.6-2,3.3-2.8,4.4s-1.9,3.9-1.9,3.9s-0.2,0.1-0.3-1.2
	c-0.1-1.3,0.1-2.4-1.2-1.7c-1.3,0.7-3.3,0.4-1.7-0.5c1.6-0.9,2.9-1.2,3.3-1.4c0.4-0.2,0.6-0.5,0.6,0.1c0,0.6,1,0,1.6-1.2
	s0.6-2.4,0.4-4.9C454.8,350.3,455,347.5,455,347.5L455,347.5z"/>
<path d="M446.1,361.9c0.3,2.4-0.6,11.1-0.6,11.1l1.9-6.7l-0.2,9.5c0.5-3.4,1.9-5.9,3.2-9.2c0,0,1.6-0.9,0,0c-1.6,0.9-1.9,3.6-2,1
	c-0.1-2.6,0.2-4.3-0.6-4.2c-0.8,0.1-0.9-0.1-1.1-0.5C446.5,362.5,446.1,361.9,446.1,361.9L446.1,361.9z"/>
<path d="M422.8,349.5c0.9,2,1.5,3.2,4.1,6.3c2.6,3,2.1,3.3,5.6,5.5c3.4,2.1,10.1,3.8,8.2,3.4c-1.9-0.4-11.1-2.9-12.6-4.4
	c-1.5-1.5-2.5-6.3-3.5-4.7c-1,1.5-4.4,2.5-2.9,1.4c1.5-1.1,3-1.4,1.8-3.2C422.1,351.8,422.8,349.5,422.8,349.5L422.8,349.5z"/>
<path d="M408.6,370.8l-1,3.8c0,0-0.8-0.1,0.9-0.7s2.8-1.4,4.7-1.4c1.9,0,5.5,0.8,6.4,0.8c0.9,0,2.1-0.4,1.2-1.1
	c-0.9-0.7-3.1-2.9-3.4-4.1c-0.3-1.2-1.4-4.8,0.3-3.1s2.3,2.3,3.6,3.2c1.3,0.9,1.3,0.4,2,2.9c0.7,2.5,1,2.6,2.9,4.4
	c1.9,1.8,2.4,5.7,2.4,5.7s1-2.1,1.7-3s3-2.3,0-3.3c-3-1-5.5-0.8-5.1-3.1c0.4-2.3,0.1-3.7-2.1-4.8c-2.2-1.1-5.4-6.3-6.9-5.1
	c-1.5,1.2-1.4,5.2-0.2,7.2c1.2,2,4.8,4,2.8,3.6c-2-0.4-5.9-0.5-7.1-1.2S408.6,370.8,408.6,370.8L408.6,370.8z"/>
<path d="M431.8,384.7c0.4-0.1,5.8-1,6.5-0.9c0.7,0.1,2.5,4.3,2.5,4.3l0.8,1.4c0,0-1.6,2.6-2.7,5.1c-1.1,2.4-1.9,6.6-2.1,4.4
	s-0.8-5.5-2-5.6c-1.2-0.1-3.5-1.8-5.5-1.8s-4,0.2-6.7,0.2c-2.6,0-6.2,0-6.9-0.9c-0.7-0.9-0.8-1.5-3.6-1.6c-2.8-0.1-9-1.8-9-1.8
	s1-3.4,1.8-2.4c0.8,1,1.2,2.8,4.4,2.3c3.2-0.5,4.1,0.2,8.7-0.1c4.5-0.3,7,0.4,10.2,1.1c3.2,0.7,6.3,0.9,7.4,2.6
	c1.1,1.7,2.1,4.5,2.1,4.5s3.1-4.5,2.8-5.3c-0.3-0.7-1.2-2.4-2.4-3.4c-1.2-1-0.8-2.6-2.8-1.5c-2,1.1-4.1,1.1-6.1,0.5
	c-1.9-0.6-7.3-2.5-10.5-1.6c-3.2,0.9-7,1.3-9.4,0.9c-2.4-0.4-4.6-2-4.6-2l0.7-2.2c0,0,5.5,0,8.4,1c2.9,1,5.3,1.3,5.2,0.9
	c-0.1-0.4-6.1-2.1-7.7-2.3c-1.6-0.2-5.5-2.2-5.5-2.2l5.5,0.1c-1,0,10.4,3,12.9,4.1c2.4,1,4,1.8,5.1,1.8s2.8,0.6,2.8,0.6L431.8,384.7
	z"/>
<path d="M431.5,409.7c0-0.4,2.3-4.9,2.4-5.4c0.1-0.4,1.6-1.7-1-2.8c-2.6-1.1,0-2-6.9-1.1c-6.9,0.9-10.6,1.4-13,0.9
	c-2.4-0.5-3.1-1-4-0.7c-0.9,0.3-1.7,1.2-2.2,0.1c-0.5-1.1,0-1.4-1.8-1.7c-1.8-0.3-4.2-3.1-4.2-3.1l-0.8,3.5c0,0,2.4,0.8,3.4,1.2
	c1,0.4,3.3,0.3,4.1,0.8c0.8,0.5,0.4,0.7,3.5,1.5c3.1,0.8,10.4,1.6,11.2,1.5c0.8-0.1,4-0.3,4.6-0.8c0.6-0.5,4.6-1.3,5.1-0.4
	S432.3,406.9,431.5,409.7L431.5,409.7z"/>
<path d="M399.2,405c0.1,0.4,0.1,5.2,0.1,5.2s-1.2-0.3,0.7,1.3c1.9,1.6,3.1,1.7,4.4,1.7c1.3,0,1.2,0.9,3.2,1.3c2,0.4,3,0.1,4.4-0.2
	c1.4-0.3,3,1.1,5.4,1.3c2.3,0.2,5.3-0.6,6.6-1.2c1.3-0.6,3.4-1.1,3.4-1.1s-0.8-1.4-2.1-1.4c-1.3,0-2,0-4.1,0.8
	c-2.1,0.8-3.3,0.9-4.9,0.3c-1.6-0.6-1.1-0.8-3.7-0.7c-2.6,0.1-5.6,0.4-7.5,0.3c-1.9-0.1-4.6-3.7-4-3.4c0.6,0.3,6.1,1.8,6.9,1.6
	c0.8-0.2,4.4,0-0.2-1.2c-4.6-1.2-6.8-2.3-7.5-2.9C399.5,406,399.2,405,399.2,405L399.2,405z"/>
<path d="M397.1,420l-0.9,3.4c0,0-0.6,0.3,0.8,0.8c1.4,0.5,1.4,0.2,3.3,0c1.9-0.2,5.9-0.8,7.2-0.1c1.3,0.7,3.4,1.9,6.1,3
	c2.6,1.1,5.9,0.1,5.9,0.1s1.2-0.7,0,0c-1.2,0.7-4.5,1.6-6.3,1.6c-1.7,0-3.6-1.4-6.1-2.2c-2.4-0.8-2.5-0.1-4.7-1.7
	C400.1,423.3,397.1,420,397.1,420L397.1,420z"/>
<path d="M412.8,439.4l1.4-3c0,0,1.7-0.1-0.7-0.9c-2.4-0.8-6.6-1-7.6-0.8c-1,0.2-1.5,0.5-2.4,0.9s-12.8,1.1-12.8,1.1
	s9.3-1.1,11.4-0.8c2.1,0.3,4,0.1,5.5,0.1s5.4-0.1,5.6,0.3C413.5,436.7,412.8,439.4,412.8,439.4L412.8,439.4z"/>
<path d="M400,420.6c1.4,0.1,4.6,0.4,5.9,0.2s7.6,1.3,6,1.2c-1.6-0.1-4.7,0-7.4-0.1C401.8,421.8,400,420.6,400,420.6L400,420.6z"/>
<path d="M395.2,443.9c0.8-0.2,3.8-1.1,5.1-1.1s3.5-1.1,4.3-0.1c0.8,1,1.1,1.5,2,1.5c0.9,0.1,3.1,0.2,3.1,0.2l0.4,0.2l-1,2
	c0,0,0.2,0.7-0.6,0.2c-0.8-0.5-1.5-1.2-2.2-1.1c-0.7,0.2-1.4,0.7-2.1-0.2c-0.7-0.9-1.1-1.1-2.6-1.1c-1.5-0.1-2.5-0.2-4.2-0.3
	C395.6,444,395.2,443.9,395.2,443.9L395.2,443.9z"/>
<path d="M385.4,451.2c1-0.2,7.5-1,11.7-0.6c1.4,0.1,9.6,2.1,9.6,2.1l-0.4,1.2c0,0-7-1.4-8.9-1.5c-1.9-0.1-9.5-0.4-11.1-0.3
	c-1.6,0.1-2.3,0.1-2-0.3C384.8,451.4,385.4,451.2,385.4,451.2L385.4,451.2z"/>
<path d="M394.5,459.3c3.4,0.7,3.2,0.9,6.1,0.8c2.9-0.1,3.7-0.5,3.6-0.2c-0.1,0.3-1,2.1-1,2.1s-1.1-1.6-1.6-1.2
	c-0.5,0.4-2.3,1.5-3.6,0.8s-3.5-1.7-3.5-1.7L394.5,459.3z"/>
<path d="M391,467.6c0.4,0.5-0.1,1,1.8,1.1s2.8,0.1,2.7,0.3c-0.1,0.2-3.6,1.9-4.2,0.9C390.6,468.9,391,467.6,391,467.6z"/>
<path d="M397.2,469c0.8,0.4,1.7,0.7,2.2,1.2c0.5,0.6,0.8,0.8,0.8,0.8l-0.5,1.7c0,0-0.5,0.2-1.1-0.5c-0.6-0.7-1.2-0.8-1.4-1.3
	C396.8,470.4,397.2,469,397.2,469L397.2,469z"/>
<path d="M398.4,477c-1,0-2.6,0.1-3.4-0.5c-0.8-0.5-1.9-0.8-2.8-0.9c-1-0.2-1.7-0.7-3.3-0.8c-1.6-0.1-2.8,0.2-4.1-0.4
	c-1.3-0.6-2.8-1.4-3.8-1.1c-1,0.4-3.5,1-4.4,1.1c-0.9,0.1-1.9,0.3-1,0.4c0.9,0.1,3.8-0.2,5.2-0.3c1.3-0.1,1.4-0.4,2.9,0.6
	c1.5,1,2.9,1.7,3.8,1.5c0.9-0.2,1.1-0.6,2.7-0.2s3.2-0.1,3.7,0.3c0.6,0.3,1.1,0.6,2.2,0.6C397.2,477.3,398.4,477,398.4,477
	L398.4,477z"/>
<path d="M391.2,482c2,0.4,2.4-0.2,4.1-0.4s2.1-0.5,2.1,0.3c-0.1,0.7,0.2,1-1.1,1.3s-0.6,2.1-2.7,1.8c-2.1-0.3-8.2-2.8-9-2.7
	c-0.8,0.2-2.2,0.2-2.5,1c-0.4,0.8-1.1,2.2-0.6,2.6c0.5,0.4,0.3,0.2,2.1,1.1c1.9,0.9,3.4-0.6,5.3,1.1c1.8,1.6,2.4-0.1,3.8,0.1
	s1.5,0.9,1.7,0.8c0.2-0.1,2.2-1,2.2-1c-2.3,4.9-6.9,6.3-8,1.5c-0.1-0.9-0.1-2.4-0.7-0.9c-0.7,1.5,0.1,2-2.3,1.8s-2.3-0.1-3.7,0.5
	c-1.5,0.6-3.6,2-4.7,2.1c-1.1,0.1-1.4,0.6-0.6,1.3c0.8,0.7,1.3,1.8-1.1,1.9c-2.4,0.2-4.6-0.3-4-0.9c0.6-0.7,1.1-2.4-0.2-1.8
	s-3.1,0.5-1.7-0.4c1.4-0.9,1.2-1.9,0.2-2c-1-0.1-1.9-0.8-1.7-1.6c0.3-0.8,1.7-6.4,1.7-5.9c0.1,0.5-0.6,1.9,0.9,2
	c1.4,0.1,1.7-1.3,4.1-0.3c2.4,1,5.6,1.1,5.3,0.4c-0.3-0.8,0.4-1.5-2.9-1.7c-3.2-0.2-6.8-1.2-6.8-1.2s1.3-1.2,1.1-2.2
	c-0.2-1.1-0.5-2.9,0.7-1.9c1.2,1,3.1,2.6,5.8,2.5c2.7-0.1,5.9-0.6,7.9-0.1C388.1,481.4,391.2,482,391.2,482L391.2,482z"/>
<path d="M400.2,491.5c0,0,10,16.2-2.7,17.4c-12.6,1.2-26.1,1.2-28.9,0c-2.9-1.2-5.7-7.3-1.9-8.9c3.8-1.7,13.7-3.2,17.5-8.7
	c3.8-5.5,7.6-5.4,10.2-6C397.9,484.5,400.2,491.5,400.2,491.5L400.2,491.5z"/>
<path d="M495.9,317.4c0.6-0.3,6.9-3.6,9.9-3.7c3-0.1,8-0.7,11.3-0.1c3.3,0.6,5.4,1.7,9,1.4c3.6-0.3,14.1-2.9,16.4-3.7
	c2.3-0.9,10.3-3.1,10.3-3.1l-1,3.1c0,0-8.7,4.7-11.1,4.7c-2.4,0-11.7,1.6-11.9,2.4c-0.1,0.9-0.3,2.1,5.7,2c6-0.1,16.3-3.6,16.3-3.6
	l-1,4.1c0,0,0.6-0.1-2.6,1.1c-3.1,1.3-6.6,6.7-14.7,2.6c-8.1-4.1-15.1-6.1-18.6-6.6c-3.4-0.4-8.3-1.1-11.4-1.3
	C501.2,316.3,494.6,318.4,495.9,317.4L495.9,317.4z"/>
<path d="M548.6,326.8l-0.7,3.9c0,0,3.1-0.3-0.3,0.3c-3.4,0.6-2.6-0.1-5.9,1.1c-3.3,1.3-14.1,4.7-19,4.9c-4.9,0.1-7-1.7-10.9-2.1
	c-3.9-0.4-12-3-11.4-3c0.6,0,0.3-1.1,6-1.1c5.7,0,3.7-0.6,13.7,0.1c10,0.7,17.7-0.9,21.3-1.4C545,328.8,548.6,326.8,548.6,326.8
	L548.6,326.8z"/>
<path d="M546.7,335.7c-1.1-0.7-4.7-1.9-6-0.1c-1.3,1.7-3.4,4.3-7.1,5c-3.7,0.7-10.9,1.1-12.1,1c-1.3-0.1-5.1-3.1-1.9-0.3
	c3.3,2.9,7.7,6.6,11.1,4.6c3.4-2,8.1-6.6,10.9-6.9c2.7-0.3,5-0.3,5-0.3L546.7,335.7z"/>
<path d="M502.3,343.7c1.4,0.4,8.1,2.4,12.3,3c4.1,0.6,9.4,1.9,10.7,1.9c1.3,0,3.6-1.9,1.3,0.3s-9.9-0.1-15.1-0.3
	c-5.3-0.1-8.4-1.3-8.9-2.4C502.1,345,502.3,343.7,502.3,343.7z"/>
<path d="M545.9,341.1c-1.4,0.6-5.3,3.3-8.6,5.6c-3.3,2.3-8.4,3.6-9.4,4.6s-0.4,4.3-4.3,4.9c-3.9,0.6-12.6,0.9-15.3,0.9
	c-2.7,0-6.4-1.3-6.4-1.3s0.7,3.4,4,4.7c3.3,1.3,12.9,1,14,2.1c1.1,1.1,6,4.7,11.9,1.7s7.3-3,8-4.3c0.7-1.3,4.9-4.9,4.9-4.9l0.9-3.9
	c0,0-0.7-2.1-2.3-0.6c-1.6,1.6-1.9,3.4-1.9,3.4s-2.4,1-2.9,2.1c-0.4,1.1-3,0.6-4.4,1.7c-1.4,1.1-8.4,3.4-10.1,3.4
	c-1.7,0-5.9-2.1-3.4-2.4c2.4-0.3,8.6-2.3,10.3-3.9c1.7-1.6,5.7-3.6,7.9-4.6s3.3-4,4.3-4.7c1-0.7,2.6-1.4,2.6-1.4L545.9,341.1z"/>
<path d="M545,361.4l-0.4,4c0,0-1.9-0.7-2.7-0.6c-0.9,0.1-2-0.4-0.9-2.1c1.1-1.7,1.9-3.1,2.3-2.4C543.7,361,545,361.4,545,361.4z"/>
<path d="M543.9,374c-0.1-0.6,0-4.3,0-4.3s0.1-1.3-2-0.6c-2.1,0.7-2.6,1.1-4.6,0.4c-2-0.7-2.3-1.3-6.3-1.1c-4,0.1-4.1,1.4-9.6-0.7
	c-5.4-2.1-11-5.9-8.7-2.7c2.3,3.1,4.4,4.7,11.1,5.7s10.4,0,12.9,1.3c2.4,1.3,2.9,1.6,4.6,1.9C543,374.1,543.9,374,543.9,374
	L543.9,374z"/>
<path d="M544.4,378.3l0.4,3.9c0.2,1.7-7-1-10-1.3c-3-0.3-1,0-7.7-0.1c-6.7-0.1-12.1-2.1-14.3-2.3s-8.9-3.9-8-3.6
	c0.9,0.3,2.9-1,5.6-1.1c2.7-0.1-1.3-3.1,6.1-0.3c7.4,2.9,15.1,3.4,17.9,3.6c2.7,0.1,4.4,0.1,5.1,0.3
	C540.3,377.4,544.4,378.3,544.4,378.3L544.4,378.3z"/>
<path d="M546.4,389.4L546,386c0,0-2.3-1.3-3.7-1.3s-1.3,2-5.7,1.9c-4.4-0.1-7-2.1-11.7-0.9c-4.7,1.3-16.1,3.4-16.7,3.7
	c-0.6,0.3-0.6,1.9-0.6,1.9s4.7,1.9,8.4,1.4c3.7-0.4,9,0,9.7-0.3c0.7-0.3,3.4-3.6,5.6-3c2.1,0.6,5,1.6,8,3.6s6.9,4.3,6.9,4.3L546,393
	c0,0-2.9-2-4.1-2.1c-1.3-0.1-5.3-1.6-5.4-2.1c-0.1-0.6,1.9-1,3.6-1S546.4,389.4,546.4,389.4L546.4,389.4z"/>
<path d="M528.4,395.1c1.6,0.4,6.7,0.4,8.9,0.6c2.1,0.1,0.7-1,4,1.9c3.3,2.9,5.1,5.3,5.1,5.3s-0.3,4.1-0.4,3.6s-4.6-5.6-6.4-6.4
	c-1.9-0.9-4.6-0.6-7-1.4C530.1,397.7,528.4,395.1,528.4,395.1L528.4,395.1z"/>
<path d="M509.6,402.4c0,0-0.1,4.7,0.4,4.6c0.6-0.1,10.1-2.1,13-2.1c2.9,0,10.7,0.1,12.3,0.9c1.6,0.7,3.3,2.6,4.6,3.1
	c1.3,0.6,2.3,0.4,3.1,1.6s2.9,5.1,2.9,5.1l0.1-3.9c0,0-2.3-4.9-3.9-6.6c-1.6-1.7-4.1-3.6-5.6-3.1s-2.1,0.7-3.9-0.1
	c-1.7-0.9-1-1.3-4.9-1.6c-3.9-0.3-6-1.1-9.1,0.1C515.6,401.7,509.6,402.4,509.6,402.4L509.6,402.4z"/>
<path d="M511.4,414.7c5.1,0.3,12.3-1.7,12.3-1.7s2.4,0.3,3.9-0.1c1.4-0.4,7.4-2.4,9.4-1.6c2,0.9,8,4.4,8.3,6.3
	c0.3,1.9,0.3,8.3,0.3,8.3s0-0.6-0.3-2.1c-0.3-1.6-2-5-4.1-6s-7.6-3.6-9.1-2.7c-1.6,0.9-10,4-13,3.3S511.4,414.7,511.4,414.7
	L511.4,414.7z"/>
<path d="M515.7,423.4c0.7-1,2.4-3.1,2.4-3.1l0.3,2.9l-1.7,3.3L515.7,423.4z"/>
<path d="M517.7,435.6c1.4-2,3.7-9.1,6.4-9c2.7,0.1,9.7-2.9,11.6-3.4c1.9-0.6,3.7-2.6,5.4-0.6c1.7,2,2.1,6.4,2.9,8
	c0.7,1.6,1.3,4.9,1.3,4.9s-2.1-5.3-3-6.9c-0.9-1.6-0.3-3.6-2.7-2.1s-1.3,3-4.1,3.1c-2.9,0.1-3.9,0.4-6.4,1.4c-2.6,1-2.9-0.7-4.7,1.4
	s-5.9,6.4-5.9,6.4L517.7,435.6z"/>
<path d="M535.7,441.7c-1.7,0.1-4.7,2-7.3,2c-2.6,0-4.6-1.1-3-1.9c1.6-0.7,5.9-2.4,9.4-3.1c3.6-0.7,7.4-2.4,7.7-3
	c0.3-0.6-0.7-2,0.4-1c1.1,1,2.4,6.1,2.4,6.1s-0.4-3.4-2.9-2.9s-4.1,0.7-4.6,1.9C537.6,441,535.7,441.7,535.7,441.7L535.7,441.7z"/>
<path d="M521.6,456.6l-0.3-2.4c0,0,2.3-3.4,4.3-3.4s7.9,0,10.3-0.7c2.4-0.7,5.7-3.9,7.1-4.3c1.4-0.4,2.7-0.4,2.9,0.4
	c0.1,0.9,0.9,5.7,0.9,5.7s-1,2.6-0.9,1.3c0.1-1.3,0.3-6-1.3-5.7s-1.3,1-3.3,2.1c-2,1.1-3.4,3.9-8.1,3.7s-6.9-0.9-8.1,0
	C523.7,454.1,521.6,456.6,521.6,456.6L521.6,456.6z"/>
<path d="M546.6,454.8c0,0.6,0.3,4.1,0.3,4.1s-1.3-0.9-2.1,0s-3.7,4-6.7,3.9c-3-0.1-8.3,0.7-9.3,1.1s-6.3,4.1-6.3,4.1
	s-2.4-0.3-0.1-1.7s7.9-4.7,10.4-4.9c2.6-0.1,7.7-0.7,9.4-1.9S546.6,454.8,546.6,454.8L546.6,454.8z"/>
<path d="M534.7,470.6c-1.4,0.9-2.9,1.9-4.1,1.9s-1.3,1.1-2.9,1.7c-1.6,0.6-5.4,2-4.7,2c0.7,0,6,0.1,7-0.3c1-0.4,3.9-3.9,4.4-4.3
	C535,471.1,534.7,470.6,534.7,470.6z"/>
<path d="M534.3,476c6,0.3,9.7-0.4,8.4-0.1c-1.3,0.3-4.3,1.3-6.1,1.1C534.7,476.8,534.3,476,534.3,476L534.3,476z"/>
<path d="M526,483.6c1.7-0.7,4.4-1.4,8.3-1.1c3.9,0.3,5.7-0.6,7.3-2s4.3-1,4.3-1s0.4,0-1.3,1.1c-1.7,1.1-7,3.6-9.3,3.6
	c-2.3,0-5-0.6-6.3-0.6H526L526,483.6z"/>
<path d="M525.6,492.3c3-1.7,9.9-2.9,11.4-3c1.6-0.1,8-4.9,8.7-5.4c0.7-0.6,5.6-2.4,2.3,0.4c-3.3,2.9-5.6,5.3-10.1,6
	C533.3,491,525.6,492.3,525.6,492.3L525.6,492.3z"/>
<path d="M551.9,485.4c-1.6,2.7-6.9,8.4-10.4,9.3c-3.6,0.9-8.3,1.1-5.4,1.3c2.9,0.1,12.9-4.1,14.3-6
	C551.7,488.1,552.4,486,551.9,485.4L551.9,485.4z"/>
<path d="M533.3,497c-2.6,0.3-9.1-1-9,2c0.1,3-2,4.6,0,3.3c2-1.3,4.6-2.6,5.7-2.9S533.3,497,533.3,497z"/>
<path d="M555.6,492.4c-1.6,0.3-4.7,2.6-7,4.3c-2.3,1.7-2.7,3.6-6.3,3.3c-3.6-0.3-8.7-1.6-6.4-0.6c2.3,1,8.3,1,6.3,2.3
	c-2,1.3-3.1,3.1-5.4,4.4c-2.3,1.3-9.9,6-9.9,6s1.1,2.6,3.1,0.6s8.1-5.4,10.6-7.7c2.4-2.3,6.7-5,8.6-5s8.7-0.3,8.7-0.3l-1-3
	c0,0-4.6,1.9-6.3,2c-1.7,0.1-2.8,1.2,0.7-1.4l4.6-3.4L555.6,492.4z"/>
<path d="M535.6,501.4c-3.6,1.7-11,4.3-10.9,4.9c0.1,0.6,0,2.7,0.6,2.4c0.6-0.3,5.3-3.3,7.1-3.7S535.6,501.4,535.6,501.4L535.6,501.4
	z"/>
<path d="M708.6,434.4c0.9,1.4,1.3,3.7,2.7,5.9c1.4,2.1,2.3,4.1,2.3,3.6c0-0.6,2.7-10.7,3.1-13.1c0.4-2.4,2.4-10.4,3.9-11
	c1.4-0.6,4.9-1.9,6.3-3c1.4-1.1,5.3-4.4,7.3-4c2,0.4,9.3,3.6,11.7,6.1c2.4,2.6,9.3,7.9,9.9,8.7c0.6,0.9,1.4,2.3,0,2
	c-1.4-0.3-9.7-5-12.3-5.3c-2.6-0.3-6.7-1-9.9-0.3c-3.1,0.7-10.3,5.1-11.6,8c-1.3,2.9-3.1,9.9-3.9,11.6c-0.7,1.7-1.1,4.9-1.1,4.9
	s4,6.4,3.4,3.4s-1.4-13,3.1-15.3c4.6-2.3,8.7-1.6,12.1-3.1c3.4-1.6,7.6-3.1,10.7-1.4c3.1,1.7,4.4,0.3,7.3,0.3s6.1,1.1,7.9,3.7
	s4.6,11.6,4.9,13c0.3,1.4,2,8,2,5.9c0-2.1-1.6-11.4-3-15.3c-1.4-3.9-3.9-9.7-10.3-17.1c-6.4-7.4-10.3-8.9-13.3-13.7
	c-3-4.9-9.4-6.4-14.3-3.6c-4.9,2.9-9.3,9-11.9,13.3c-2.6,4.3-2.7,9.3-4.4,12C709.6,433.1,708.6,434.4,708.6,434.4L708.6,434.4z"/>
<path d="M726.1,458.8c0,0-4-2.7-3.9-4.7s0.1-5.3,1.7-6.9c1.6-1.6,4-5.6,6.7-5.6s8.7,0.1,14.4,0c5.7-0.1,9-3.7,13.3-0.7
	s6.4,7.3,6.6,10.1c0.1,2.9,2.3,8.6,2.3,8.6s0.4,3.7-0.6,0.7s0.6-7-3.9-9.4c-4.4-2.4-7.6-3.6-11.4-3.7c-3.9-0.1-4.6,0.6-9.9,0
	c-5.3-0.6-8.6-2-10.7-0.1c-2.1,1.9-3.7,7-3.9,7.7C726.9,455.6,728.6,457,726.1,458.8L726.1,458.8z"/>
<path d="M752.9,385.7c0.6,1,1.1,4.4,2,6.4s2.4,4.4,3.9,6.7c1.4,2.3,3.7,5.7,5.3,10.9c1.6,5.1,5.1,10,6.3,12.6
	c1.1,2.6,2.7,10.3,3.3,11.7c0.7,1.6,3.4,14.1,3.7,14.7c0.3,0.6-1.3,0.4-1.3,0.4s-1.7-8-3-10.7c-1.3-2.7-4.4-11.4-5.3-14.3
	c-0.9-2.9-1.7-9-6.4-15.1c-4.7-6.1-7.4-10.9-7.7-12.7c-0.3-1.9-0.4-6.3-0.4-7.4C753.1,387.7,752.9,385.7,752.9,385.7L752.9,385.7z"
	/>
<path d="M786.4,449.6c-0.7-0.7-5.6-11.6-6.4-16.7c-0.8-5-6.6-15.4-9.3-21.3c-2.7-5.9-5.9-18.9-8-22.4c-2.1-3.6-2.4-6.7-2.1-8.9
	c0.3-2.1,0.4-8.1,0.3-10.9s-0.4-5.9-0.1-9.3c0.3-3.4,0.3-6.9,0.4-4.6c0.1,2.3-0.4,8.3,0.9,12.7c1.3,4.4,0.9,7,2.3,11.1
	c1.4,4.1,5,20,5.6,22.1c0.6,2.1,6.9,15.4,9.4,22c2.6,6.6,8.6,22.6,9.1,24c0.6,1.4,1.6,6.9,1.7,7.3c0.1,0.4,0.9,1.9,0.9,0.1
	c0-1.7-4-13.6-5.3-17.6s-3.6-10.4-6-16.3c-2.4-5.9-1.1-2.7-3.4-10.4c-2.3-7.7-5.9-22.3-7.3-25.3c-1.4-3-3.3-10-4.3-14.1
	c-1-4.1-2-12.7-1.4-13.3c0.6-0.6,1-0.9,1,0s2.1,8.4,2.7,12.1c0.6,3.7,5,17.1,5.6,19.9c0.6,2.7,5.3,21.1,6,23.3
	c0.7,2.1,6.6,19.9,8.3,23.3c1.7,3.4,4,10,4,10s-2.7-10.9-3.9-14.3c-1.1-3.4-9-24.7-9.9-28.7c-0.9-4-4.3-20.9-5.1-23s-4-9-4-13.3
	c0-4.3-1.7-12.9-0.9-10.6c0.9,2.3,1.4,3.9,2.1,7.7c0.7,3.9,2.3,8.4,3,9.9c0.7,1.4,2.4,6,2.6,8.3c0.1,2.3,2.9,17.1,3,19.1
	c0.1,2,3.1,10.6,3,9.7c-0.1-0.9-1.6-15.4-2-18.1c-0.4-2.7-1.6-12.7-3.1-15.7c-1.6-3-4.7-7.3-4.9-12s-0.6-8-1.4-10s-0.6-3.7-2.3-3.6
	c-1.7,0.1-2.3-0.7-2.1-1.7c0.1-1,1,0,1.7-1.4c0.7-1.4,2-0.1-1-3s-7-7.3-7.1-4.6s0.1,7.7,0.3,9.9s-1.4,7.3-1.4,11.3
	c0,4,1.9,7,0.1,11.1c-1.7,4.1-3.7,7.9-1.6,11.7c2.1,3.9,9.9,17.9,12,23.9c2.1,6,5.9,12.6,6.6,14.6c0.7,2,2.3,7.9,5,14.1
	C782.1,443.7,786.4,449.6,786.4,449.6L786.4,449.6z"/>
<path d="M556.8,493.5c0,1.6,0,6.1,1.2,8.1c1.2,2,7.3,4,2.4,7.7c-4.8,3.6-11.3,4.4-22.2,4.4c-10.9,0-14.8-11.1-14.8-11.1"/>
<path d="M667,174.8c1.7-0.5,3.7-2.1,3.7-2.1s0.5,1.6,1,1.6c0.5,0,0.6,0.4,0.6,0.4s0.6,0.7,1.4,0.9c0.8,0.2,0.8-0.3,1.1,0.4
	c0.3,0.7,0.2,2.8-0.2,3.5c-0.4,0.7-1.8,2.4-2.5,3.1c-0.7,0.7-1.8,4.6-2.6,5.4c-0.8,0.7-3.1,2.3-5.3,4.5c-2.1,2.2-2.5,2.5-0.2-0.3
	s5.1-5.4,5.6-6.3s2.3-3.1,0.2-1.9s-4.1,2.3-1-0.8c3.1-3.1,5.1-4.9,5.3-5.6c0.2-0.6-0.2-1.6-0.7-1.6c-0.5,0-1.6-2.1-2.5-1.9
	C669.9,174.3,668.1,175,667,174.8L667,174.8z"/>
<path d="M674.3,181.7c2.4-1.2,4.2-4.8,4-3.6s-2.6,3.6-0.8,2.4c1.8-1.2,3.1-2.5,2.7-1.3c-0.4,1.2-1.9,2.4-0.7,2.4s2.5-0.9,1.7-0.1
	c-0.8,0.8-0.8,2.5-2.3,3.6c-1.5,1.1-2.7,1.7-3,2.1c-0.3,0.4-4.6,2.7-3.4,1.4c1.2-1.3,4.1-3.5,4.9-4.3s1.1-2.3-0.3-1.3
	s-1.9,0.6-1.3,0.2c0.6-0.4,2.2-1.6-0.5-0.4c-2.7,1.2-3.6,1.1-2.7,0.5C673.5,182.7,674.3,181.7,674.3,181.7L674.3,181.7z"/>
<path d="M641.5,134.1c2-0.9,3.9-4,3.9-4s-0.1-0.7,0,0c0.1,0.7-0.2,1.5-0.1,2.4c0.1,0.9,0.4,1.9,0.4,4.1c0,2.2,1.6,9.6,0.6,5.2
	c-1-4.4-1.7-9.5-2.5-6.7c-0.8,2.8-1.8,7.3-4.4,9.5c-2.6,2.2-4.1,6.4-2.8,1.4c1.3-4.9,4.3-9.3,4.7-9.9c0.4-0.6,0.1-1.6,0.1-1.6
	L641.5,134.1z"/>
<path d="M728.5,461.1l3.8,2.6c0,0,0.5-2.8,1.2-3.8c0.7-1,0.4-3.9,3.9-1.1c3.5,2.8,7.8,3.9,12.5,5.5c4.7,1.5,10.3,4.5,11.8,5.9
	s6.8,1.3,6.8,1.3s-0.7-3.5-2.6-5.4c-1.9-1.8-3-8.2-14.2-9c-11.2-0.8-12.7-1.9-14.2-2.4c-1.5-0.5-4-1-5.1-0.2
	C731.4,455.3,728.5,461.1,728.5,461.1L728.5,461.1z"/>
<path d="M736.9,468.7c0,0,2.7,5.4,2.7,4.4s-1.6-8.9,1-6.9c2.5,2,9.5,10.7,12,12.6c2.5,1.9,3.6,2.7,3.6,2.7s2.6-1.2,1.6-2.2
	s-10.3-4.4-12.7-9c-2.4-4.5-6.6-8.9-7.3-8.7c-0.7,0.2-0.9,3.4-1,4.5C736.7,467.3,736.9,468.7,736.9,468.7L736.9,468.7z"/>
<path d="M768.3,473.5c0-2.2-1.1-6.9-0.4-6.2s1.7-0.4,0.8-1.8s-1.6-5.5-0.4-5.4s1.3-0.6,1.8-1.5c0.5-0.9-0.3-3.7,0.8-2.6
	c1.1,1.1,0.2,2.9,1.4,1.1c1.2-1.8,0.3-2.1,2.1-1.2c1.8,0.9,1.4-2.9,3-1.1s3.1,4.3,4.2,2.8c1.1-1.5-1.8-7.7,0.8-5.1s4.5,5.3,5.8,7.4
	c1.2,2.1,0.8,2.2,1.9,2.2c1.1,0,2.8-4.5,3.9-2.4c1.1,2,1.6,12.1-0.7,23.5c-2.3,11.4-3.5,12.1-4.4,14.3c-0.9,2.1-4,5.5-5.4,5.6
	c-1.4,0.1-4,1-7.3,0.5c-3.3-0.5-6.5-1.4-7.8-3.8s-2.6-5.1-1.7-2.3c0.9,2.7,3.1,5.9-0.3,3.7c-6.4-4.1-6.3-5-8.4-8.1
	c-2.3-3.4-3.3-5.7-5.5-7.7c-3.9-3.7-5.7-4.1-7.5-5.9s-2.1-2.5-0.6-2.5c1.5,0,4.8,2,6.5,4.2s7.7-4.4,9.2-2.2
	c3.2,4.9,8.9,10.6,10.7,8.5c0,0-2.3-2-3.8-5.3C754.1,472.9,767.6,477.5,768.3,473.5L768.3,473.5z"/>
<path d="M582.6,140.4c2.6-0.6,6.6-3.1,8-8.3c1.4-5.1,6.3-19.4,6.3-19.4l-2,16.9c0,0,4.6-3.1,6-7.4c1.4-4.3,1.7-11.4,0-1.1
	c-1.7,10.3-6.3,15.7-1.1,9.4c5.1-6.3,4.3-2,6.3-10.3s4.3-20.9,5.7-17.4c1.4,3.4,2.6,7.7,3.1,10c0.6,2.3,2.6,3.4,2.6,5.7
	c0,2.3-0.6,6.3-1.1,8.3c-0.6,2-5.1,11.4-3.7,6.6c1.4-4.9,5.1-10.3,4.3-13.4c-0.9-3.1-0.3-8.6-3.4-4.6c-3.1,4-6.9,11.1-4,5.1
	c2.9-6,3.4-15.1,0.9-8.6c-2.6,6.6-6,25.4-8,27.7c-2,2.3-4.3,7.7-6,8c-1.7,0.3-2.9,0.9-2.9,0.9L582.6,140.4z"/>
<path d="M575.7,133.8c0,0,3.4-5.4,6.9-9.7c3.4-4.3,7.4-18,8.3-19.7c0.9-1.7,2.9-2.6,2.9-1.4s-1.1,2.6,0.6,2.3c1.7-0.3,4-2.6,2.9,1.4
	s-7.1,11.4-3.7,9.1c3.4-2.3,6.3-2.3,6-4.9c-0.3-2.6-2-5.7-2-8.6c0-2.9-0.6-9.1-1.1-8c-0.6,1.1-1.1,4.3-1.7,3.1
	c-0.6-1.1-3.1-8-3.4-3.7s-0.3,8-0.6,4s-0.3-6.9-1.7-6s-4,1.7-4,1.7s-2.3-4-3.7,1.4c-1.4,5.4-2.9,8.6-2.9,8.6s-1.1-10-2-8.6
	c-0.9,1.4-3.1-0.9-4,2.3c-0.9,3.1-2.6,13.1-2.6,16c0,2.9-1.4,14.6-1.4,14.6C568.9,129.2,579.6,133.8,575.7,133.8L575.7,133.8z"/>
<path d="M556.3,116.1c0-2,4.6-7.4,7.4-9.7c2.9-2.3,8.3-13.4,8.3-13.4s0.3-2-2.9,0.9s-4,7.4-8.6,9.1c-4.6,1.7-8.6,4.9-7.4,2.6
	c1.1-2.3,4.3-3.4,7.7-6.9c3.4-3.4,7.1-10.9,2.6-7.4c-4.6,3.4-9.7,6.6-11.4,8.9c-1.7,2.3-5.4,6.9-2.3,2.6c3.1-4.3,4-8.3,1.1-5.7
	c-2.9,2.6-7.4,6.9-7.4,6.9s6.3,4.9,7.4,6.3C552,111.6,556.3,116.1,556.3,116.1L556.3,116.1z"/>
</svg>
