<?xml version="1.0" encoding="utf-8"?>
<!-- Generator: Adobe Illustrator 22.1.0, SVG Export Plug-In . SVG Version: 6.00 Build 0)  -->
<svg version="1.1"
	 id="svg3036" xmlns:cc="http://creativecommons.org/ns#" xmlns:dc="http://purl.org/dc/elements/1.1/" xmlns:rdf="http://www.w3.org/1999/02/22-rdf-syntax-ns#" xmlns:svg="http://www.w3.org/2000/svg"
	 xmlns="http://www.w3.org/2000/svg" xmlns:xlink="http://www.w3.org/1999/xlink" x="0px" y="0px" viewBox="0 0 490.4 355.7"
	 style="enable-background:new 0 0 490.4 355.7;" xml:space="preserve">
<style type="text/css">
	.st0{fill:none;stroke:#000000;stroke-width:2;stroke-miterlimit:10;}
</style>
<g id="layer1" transform="translate(-304.11 -272.73)">
	<path id="path5603" class="st0" d="M688.7,273.7c-1.6,0-3.5,0.1-5.7,0.2c-15,0.9-33.2,4.7-40.7,8.5c-7,3-12.3,5.2-18.9,8.8
		c-6.8,3.7-12,7-16.5,10.5c-7.6,4.7-6.8,5.2-13.7,10.8c-6.1,5.1-12.4,9.7-19.2,13.8c-6.9,4.2-11,5.9-24.3,16.2
		c-7,5.4-19.4,8.5-29.9,12.2c-17.4,2.8-25.8,1.4-42.4-0.5c-6.8-0.8-28.1-5.1-41.4-8.8c-14.7-4-33.9-0.8-55,9.4
		c-9.2,4.4-19.6,17.7-23.5,30c-3.7,11.8-3.6,21.4,0.4,37.8c3.2,12.8,12.6,31.2,20.3,39.5c2,2.2,3.7,4.3,3.7,4.7
		c0,0.4-1.6,0.8-3.5,0.8c-3.3,0-4.9-0.5-12.3-3.7c-1.8-0.8-5.7-1.6-8.7-1.9c-5-0.5-5.8-0.3-8.1,2c-3.4,3.4-3.2,5.6,1,13.1
		c1.9,3.4,3.5,6.8,3.5,7.5c0,2.5,5.3,8.1,9.6,10.1c4.5,2.2,7,5,14,15.3c8.3,12.2,8.4,12.5,6.8,17c-1.8,5.2-1.8,11.2,0.1,12.7
		c0.8,0.7,1.5,2.1,1.5,3.1c0,1.4-0.6,1.7-2.6,1.3c-3.3-0.6-10.1,4.7-12.1,9.3c-1.8,4.2-1.8,15.5,0,19.6c2.1,5.1,6.8,9.4,11.7,10.8
		c5,1.3,4,2,10.6-8c3-4.6,3.7-6.8,4.4-13.3c0.7-6.6,1.4-8.8,5.1-15c3.4-5.8,4.3-8.2,4.3-11.8c-0.1-5.7-2.9-12.1-7.1-16
		c-2.4-2.2-12.5-15.6-14-18.5c-0.6-1.1-1.2-3.8-1.4-6c-0.3-3.7-0.2-4,2.2-3.9c1.4,0.1,5.5,1.3,9.3,2.8c7.9,3,16.7,3.4,24.3,1.1
		c3-0.9,6.5-1.3,9.1-0.9c8.9,1.3,20.4-7.5,21.9-16.9c0.6-3.9,0.6-3.9,4.2-3.2c4.9,0.9,5.1,1.2,4.5,4.4c-0.3,1.6,0,5.4,0.6,8.6
		c1.2,5.6,1.1,5.9-2.1,11.9c-1.8,3.4-6.4,9.7-10.1,14.1c-3.8,4.4-6.7,8.5-6.4,9.3c0.3,0.7,0.1,1.3-0.4,1.3
		c-3.7,0,6.5,15.6,12.5,19.2c3.2,1.9,5.4,4.6,15.9,19.8c3.8,5.5,5.9,10.6,7,17.2c0.7,4.4,4.2,7.9,8.1,8.1c4.3,0.3,10.7,4.7,9.8,6.7
		c-0.4,0.9-1.2,3-1.8,4.8l-1.1,3.2l3.2,6.2c4.1,5.8,8.7,7.3,21.6,6.8c8.5-0.3,10.9-0.7,12.6-2.3c2.9-2.6,2.6-4.7-0.9-8.1
		c-1.7-1.6-4.3-5.3-5.9-8.1c-2.2-3.8-4.1-5.7-7.3-7.3c-2.4-1.2-5-2.1-5.8-2.1c-0.8,0-2.5-1.5-3.7-3.3c-7-10-11.2-15-15-17.7
		c-2.5-1.8-6.5-6.4-9.6-11.3c-10.4-16-11.7-19.8-9.5-27.5c1.6-5.5,1.6-5.6,1.8-8.1c0.1-1,2.6-3.8,5.6-6c3-2.3,5.5-4.9,5.5-5.7
		c0-0.9,0.5-1.3,1.2-0.8c0.7,0.4,0.9,0.4,0.5-0.1c-0.4-0.5,0.2-1.3,1.4-1.9c1.2-0.6,4.2-5.1,6.8-10.1l4.8-9L516,486
		c9,0,19.8-0.6,23.9-1.2c9.2-1.3,21.5-4.6,23.5-6.3c0.8-0.7,1.5-0.9,1.5-0.5c0,0.4,1.5-0.2,3.3-1.4c5.3-3.3,6.6-2.7,10.3,4.6
		c0.9,1.8,3,4.5,4.8,6.1c22.3,20.6,26.4,25.5,33.3,39.7c2.5,5,5.9,10,9.6,13.8c3.6,3.7,7.4,9.2,10.2,14.6c2.4,4.7,6,11.8,8,15.6
		c2.3,4.4,3.8,9.1,4.1,12.6c0.8,7.2,5.9,13.9,10.6,13.9c3.7,0,8.4,2.3,9.3,4.6c0.4,1.1-0.5,3.1-2.6,5.7c-2.8,3.5-3,4.3-2.1,6.8
		c1,2.7,1,2.8-1.4,2.2c-6.8-1.7-7.2,0.3-0.6,2.8c2.5,0.9,5.5,2.7,6.8,3.9c1.5,1.4,4.8,2.7,8.6,3.4c6.5,1.2,21.7,1,23-0.4
		c0.4-0.4-4.1-0.8-10-0.8c-11.8,0-16.9-1.2-20-4.6c-2.2-2.4-4.6-6.7-4.1-7.2c0.2-0.2,2.9-0.5,6-0.9c5.8-0.6,16.4-4.1,17.4-5.7
		c0.3-0.5,1.3-0.4,2.4,0.3c1,0.7,1.7,1.5,1.4,2c-0.3,0.4,2.1,3.5,5.2,6.8c4.8,5.2,5.4,6.3,4.3,7.7c-1.1,1.3-1,1.5,0.7,1.2
		c2.6-0.5,3.1-5.1,0.8-7.4c-1.7-1.7-1.6-1.7,2.2-0.9c9.2,2,20,0.4,24.2-3.5c2.8-2.9,0.3-0.8,3.3-3.2c0-0.8-0.8-5.5-3.6-5.5
		c-2.7,0-0.9-1.4-5.8-6.7c-4.2-4.6-9.7-9.4-12.2-10.8c-2.5-1.3-4.5-2.7-4.5-3.1c0-0.4-1.3-2.2-2.9-4c-1.6-1.8-3.3-5-3.9-7.1
		c-0.7-2.5-3.1-5.8-7.4-10c-4.1-4-8.1-9.3-11.2-15c-2.7-4.8-5.5-9.4-6.3-10.2c-1.1-1.1-2.6-14.7-2.3-21l-1.7-1l-1.3-4.2
		c-0.8-2.6-2.7-5.3-5-7.1c-2-1.6-4.4-4.7-5.3-6.8c-5.2-12.5-7.8-20.5-8.4-25.8c-0.4-3.5-2.2-9.7-4.4-15c-4.9-11.5-5.1-13.9-1.7-19.6
		c1.5-2.5,2.2-3.3,2.7-5.8c1.3-3.5,3.6-6.1,6-11c1.5-1.5-0.5-14.4,0.8-18.5c0-2,0.1-5.4-2.2-9.4c-0.8-2-1.3-5-1.6-6.1
		c-2.5-3.3-0.9-3.5-2.3-7.9c5.8-7.5,8.3-10.6,14.2-19.4c3.6-5.4,7.6-11.7,8.9-13.1c4.7-5.1,9.2-6.5,14.1-7c1.5-0.2,2.6-1.8,3.1-2.1
		c0.4-0.2,2.4-1.8,3.6-3.2c3.4-4.2,7.6-8.3,9.6-8.3c1.4,0-1.3,1.4-3.7,3c-2.3,1.5-6,5.6-6.1,6.1c-1,3.5,3.7-1.1,5.8-2.8
		c5.3-4.3,8.2-5.4,15.3-7.5c2.3-0.6,5.6-0.9,8.8-0.8c3.1,0.1,4.9,0.1,7.3,0.8c0.8,0.3,1.2,0.3,1.2,0.8c0,0.7,0.5-0.1-7.3-0.3
		c-9.7-0.3-13.1,0.5-17.7,2.8c-5.6,2.8-11,8.9-13.4,13.5c-0.6,1.2-0.9,2.3-0.9,3.8c0,1.7-0.2,2.3-1,3.1l-0.9,1l1.1-0.3
		c0.6-0.1,1.5-0.4,1.9-0.5c0.4-0.2,1.8-0.4,2.9-0.6c2-0.2,2.2-0.2,2,0.4c-0.1,0.7-1.2,1.1-6.3,2.3l-2.8,0.7l0,3.5
		c0,3.1,0.2,3.9,1.2,6.4c1.1,2.8,1.5,5.6,0.8,5.6c-0.2,0-0.7-0.5-1.2-1l-0.8-1l0.3,1.3c0.2,0.7,0.3,2.2,0.3,3.3
		c0,1.9-0.2,2.5-2.6,6.5c-1.5,2.5-3.5,6.5-4.7,9c-1.5,3.3-4.4,8.1-6.8,11.5c-1,0.8,1.7-5.6-0.7-3.3c-3,2.8-3.8,3.8-5.3,7.8
		c0,0.1-4.2,4.1-4.1,4.3c-3.9,1.3-3.5,2.8-3.9,6.6c-0.6,4.3-3,5.2,0.3,12.4c0.3,0.7,0.5,1.3,0.5,1.7c0,0.9,0.8,2.3,1.8,3.2
		c2.4,2.1,8.4,4.5,10,4c0.7-0.3,2.9,0.5,4.9,1.7c7,4.2,14.3,2.6,19.4-4.2c1.8-2.4,5-5.4,7.1-6.7c2.1-1.3,3.8-2.9,3.8-3.4
		c0-1.4,11.9-13.6,19.4-19.8c3.3-2.8,8-6.9,10.4-9.1c2.4-2.2,5-4.5,6-5c0.9-0.5,2.7-1.8,4-3c2.2-2,2.3-2,3.7-0.1
		c1.9,2.6,2.9,1.4,1.6-2c-0.7-1.7,1.6-5.1,2.9-6.7c0,0.9-0.1,1.9-0.1,2.9c-0.1,6.2,1.2,9.3,3.7,9.3c2.1,0,4.7,3.7,4.4,6.2
		c-0.3,1.9-0.9,2.3-3.1,2.1c-1.8-0.1-2.7,0.3-2.7,1.3c0,2.3,3.8,1.7,6.5-1c1.4-1.3,2.5-2.9,2.5-3.5c0-0.6-1.6-2.9-3.6-5.1
		c-4-4.4-4.1-5.9-0.8-13.5c1-2.2,1.7-4.3,1.6-4.7c-0.1-0.4,1.4-1.9,3.3-3.3c1.9-1.5,3.2-3.1,2.9-3.7c-0.4-0.6-1.1-0.3-1.9,0.8
		c-0.7,1-3.4,3.3-5.9,5.1c-4.5,3.3-4.6,3.3-3.4,0.8c0.7-1.4,1.5-2.6,1.9-2.6c0.4,0,2.8-1.8,5.4-4.1c4.2-3.7,4.6-4.4,4.1-7.3
		c-0.4-2.3-0.1-3.7,1-4.9c2.5-2.5,4-2,5.3,1.7c2.2,6.1-1.4,16.8-7.2,21.2c-3.1,2.4-3.4,2.9-2.1,4.2c1.3,1.3,1.9,1.3,4.7-0.4
		c6-3.5,9.7-11.3,9.8-20.4c0-3.4-1.3-5.3,1.1-6.4c1.6-0.7,2.5-1.7,4.1-4c2.2-3,2.9-3.6,2.9-6.2c-3.6,0.7-7.5,1.9-12.5,4.4
		c6.8-4.6,8.5-6.9,11.2-9.9c-2.1-1.4-5.4-1.8-10.5-0.3c-4.2,1.2-2.6,0.5-6.4,2.2c-4.4-5-6.7-4.4-10.8-10.8c-3.4-5.2-8-13.3-13.1-18
		c-1.4-1.3-3-3.1-5.4-5.6c-2.1-2.1-2.9-2.7-8.2-7.6c-7.9-7.3-22.5-14.9-34-17.7C696.8,274.2,693.6,273.7,688.7,273.7L688.7,273.7z
		 M690.7,276.5c3.4,0,4.1,0.1,9.8,1.6c5.5,1.4,13.7,4.4,18.3,6.7c7.4,3.6,19.5,12.2,24,17.2c4,3.3,15.9,18.3,28.2,36.7
		c-8.6-9.1-11.4-14.6-16-19.7c-7.5-8.1-14.3-16.7-16.8-18.9c-1.7-1.5-5.8-5.1-11-8.6c-7.9-5.3-16-9.1-27.2-12.1
		c-5.6-1.5-4.3-1.1-11.3-1.5c-14,1.3-21.5,1.6-34.8,5.7c-3.9,1.2-18,6.8-32,15.1c-11.2,6.6-18.2,9.8-23.6,13.9
		c7.6-6.5,25.5-18.2,41.9-25.3c16.4-7.1,31.3-9.5,40.9-10.7C684.3,276.2,688.7,276.5,690.7,276.5L690.7,276.5z M687.4,284.6
		c0.1,0,0.2,0,0.3,0c0.2,0,0.4,0,0.6,0.1c3,0.6,9.6,3.5,15.5,6.8c1.3,0.7,4.5,2.1,7.2,3c11.4,3.9,20.8,9.5,28.3,16.9
		c3.1,3,3.4,3.4,3.4,4.7c0,0.8-0.1,1.4-0.1,1.4s-1.3-1.3-2.9-2.8c-5.4-5.5-12.7-10.7-20.7-14.6c-2.7-1.3-5.7-2.6-6.7-2.8
		c-3.8-0.8-5.7-1.6-9.2-3.8c-4.6-2.8-11-5.8-13.5-6.4c-2.3-0.5-3.1-1.1-2.8-2C687,284.8,687.1,284.6,687.4,284.6z M743.7,323.8
		c1.5-0.1,3.2,0.2,4.2,0.8c1,0.7,1,0.7,0.3,1.2c-0.7,0.5-6.2,0.7-7.8,0.3c-1-0.2-0.6-0.9,0.9-1.7C741.9,324,742.8,323.8,743.7,323.8
		z M769.7,357.3c-1.3-3.3,0.2,0.1,0.1,0.3c-0.2,0.8-2.7,3-5.4,4.8c-1.6,1.1-2.8,2-3.7,3c0.8-0.9,1.7-1.7,2.8-2.6
		c2.2-1.6,2.4-2.3,0.4-1.1c-0.5,0.3-1,0.4-1.6,0.6c1.4-0.3,0.7-2.6,2.5-4.3C766.3,356.6,766.3,352.8,769.7,357.3z M755.4,359.9
		c0.1,0,0.2,0,0.3,0c-0.4,0-0.6,0.2-0.6,0.6C755.1,360.2,755.1,360,755.4,359.9z M756.5,360c0.3,0,0.5,0,0.9,0.1l2.4,0.3
		c-0.3,0.2-1.3,0.2-2.5-0.1C757.1,360.1,756.8,360,756.5,360z M735.9,360.1c0.1,0,0.2,0,0.3,0.1c1.1,0.4,3.9,2.8,4.7,4
		c0.5,0.9,0.7,1.9,0.7,4.3v3.1l1.7,1.7c2.2,2.2,2.2,3.3-0.1,3.3c-2.9-0.1-4.4-2.6-3.9-7c0.3-2.7-0.4-2.6-1.2,0.3
		c-0.9,3.1-1.8,3.8-5,4c-1.3,0.1-1.3,0.1-1.3,1.8c0,1-0.1,1.9-0.2,2c-0.2,0.2-0.9-0.3-1.6-1c-2.3-2.3-2.8-6.2-1.2-9.6
		C730.5,363.3,734,360,735.9,360.1z M759.8,360.1c0,0,0.1,0,0.2,0.1c0,0,0,0.1-0.1,0.1L759.8,360.1z M756.3,361.7
		c0.2,0.1,0.4,0.2,0.7,0.3c0.7,0.2,1.5,0.4,2.4,0.4c0.9,0.1,1.6,0.1,2.2,0c-1.6,0.2-3.3,0-4.6-0.5
		C756.8,361.9,756.5,361.8,756.3,361.7z M759.4,367.4c-0.1,0.2-0.2,0.3-0.3,0.5c-0.7,1.5-1,3.4-1.2,5.9c-0.9,0.6-2.2,2.3-3,2.3
		c-1.3,0.3-1.4,1.8-2.7,1.8c-1.2-1.8,5.4-4,5.6-6c0.2-1.6,0.6-2.9,1.2-4.1C759.2,367.7,759.3,367.5,759.4,367.4z M692.9,367.9
		c0.3-0.1,0.5,0.1,0.9,0.6c1,1.2,1,6.7,0,7.6c-0.4,0.3-0.8,0.6-0.9,0.6c-0.3,0-0.7-3.5-0.7-6.2C692.3,368.8,692.5,368,692.9,367.9z
		 M714.7,374.5c0.4-0.1,0.3,0.4-0.5,1.6c-1.2,1.8-0.7,1.7,1.7-0.1c2.1-1.7,2.7-1.8,2.7-0.8c0,1.5-5.4,5.6-10.2,7.9
		c-2.9,1.4-3.9,1.4-4.2,0.2c-0.3-1.1,0-1.7,0.9-1.7c1,0,2.6-1.1,5.6-3.8C712.7,375.7,714.1,374.6,714.7,374.5z M752.9,376.5
		c-0.6,0.5,0,1.6-0.6,2.4c-1.4,1.9-3.9,3.4-8.4,5c-2.5,0.4-3.6,2.4-4.8,3.9c-0.8,0.8-2.5,3.9-6.9,7.5c-2.1,1.7-4.7,5.2-10.1,7.8
		c3-4.4,9.1-11.8,13.5-15.8c3-2.9,9.8-6.5,7.5-4.1C749.4,380.6,750.4,379.1,752.9,376.5C753.7,375.9,752.3,376.9,752.9,376.5z
		 M692.4,396.9c0.2,0,0.3,0,0.4,0c-0.2,0-0.4,0-0.6,0C692.3,396.9,692.4,396.9,692.4,396.9z M684.5,399.8c6.8-6.1,12.5-0.6,11.4,0.8
		c-0.4,0.5,0.3,1.1-0.5,1.5C697.6,400.9,695.9,395.8,684.5,399.8z M680.2,397.3c3.1,0,3.2,0.9,6.4,1.8c-2.5,1-10.2-0.6-10-2.3
		C676.7,395.1,679.3,397.6,680.2,397.3z M692.4,402.5c-0.9,0.4-2.6,0.2-4.6,0.9c-3.6,1.3-4.3,1.8-4.7,3.9c-0.4,2.1-1.5,3.9-4.5,7.3
		c-2.8,3.1-3.4,3.5-7.6,5.3c-3.6,1.5-4.4,2.4-4.5,4.6c0,1.8,0.5,2.7,2.1,4c1.7,1.3,4.6,2,8,2c1.6,0,3.4,0.2,4.4,0.4
		c-0.8-0.1-1.3-2-2.7-2c-7.2,0.3-13.1-1.2-12-5.6c0.4-1.6,1.8-2.7,4.4-3.5c2.1-0.6,4.6-1.9,5.5-2.9c5-5.3,6.7-7.8,6.7-9.8
		c0-2.2-0.1,0,7.3-2.3C690.4,404.8,692.2,402.6,692.4,402.5L692.4,402.5z M704.8,405.5c0.7,0,0,1.2-1.4,2.4
		c-2.1,1.8-5.2,3.5-10.8,5.7c-2.6,1-5.6,2.4-6.7,3c-1.1,0.6-2.3,1.1-2.6,1.1c-1.7-0.1-2-1.1-0.7-2c0.5-0.3,2.5-1.1,4.6-1.8
		c5.8-2,9.8-3.9,13.6-6.3C702.9,406.5,704.7,405.5,704.8,405.5z M724.2,401.5c-0.8,3.2-8.2,7.5-9.6,8.9
		c-21.4,22.2-28.7,27.6-31.7,22.2c-0.3-0.5-1.6-1.3-2-1.6c0.5,0.3,1.9,1.1,2.3,1.6c0.6,0.7,1.4,1.5,1.8,1.6c1.1,0.4,2.3,0.1,4.7-1.2
		c3.5-1.8,8.9-7.5,20.3-19.7C713.4,409.8,721.2,402.5,724.2,401.5L724.2,401.5z M691.4,417c1.4,0,2.1,0.4,2.9,1.2
		c0.8,0.9,1.1,1.4,1.1,2.6c0,0.8-0.1,1.5-0.3,1.5c-0.1,0-0.8-0.5-1.5-1.1l-1.2-1.2l0.2,2.2c0.2,2.6-0.1,2.9-2.3,2.1
		c-2.5-0.9-3.1-1-3.9-0.3c-1.1,1-0.9,1.6,1,2.4c1.2,0.6,1.7,0.9,1.6,1.4c-0.1,0.5-0.5,0.7-1.8,0.8c-3,0.1-5-1-6-3.2
		c-0.5-1.3-0.1-2.3,1.7-4.4c1.4-1.6,5.2-3.8,6.9-3.9C690.4,417,690.9,417,691.4,417z"/>
	<path id="path5599" class="st0" d="M697,601.6c0-0.5,1.5-1,3.3-1s6.1-1.5,9.6-3.4c7.6-4.1,7.7-2.4,0.1,2.1
		C704.6,602.5,697,603.8,697,601.6z"/>
	<path id="path5597" class="st0" d="M654.2,516.4c-1.5-1.5-1.6-9.2-0.2-8.3c0.5,0.3,1,2.1,1.1,3.8l0.1,3.2l0.8-3
		c0.7-2.8,0.8-2.7,0.9,1.3C657,517.7,656.3,518.5,654.2,516.4z"/>
	<path id="path5595" class="st0" d="M651.5,496c-2.1-3.3-4.7-10.4-3.7-10.4c0.4,0,2.2,2.9,4,6.5C654.9,498.5,654.8,501,651.5,496
		L651.5,496z"/>
	<path id="path5593" class="st0" d="M631.7,488.4c-5.2-4.2-12.8-19.8-9.7-19.8c0.6,0,1,0.7,1,1.5c0,3.5,5.6,12.9,9.7,16.3
		c4.1,3.4,5.3,5.3,3.6,5.2C635.8,491.6,633.8,490.2,631.7,488.4L631.7,488.4z"/>
	<path id="path5589" class="st0" d="M498.5,601c3.9-3.1,12-6.3,15.8-6.3c2.3,0,3.6,0.4,3.2,1c-0.3,0.5-2.2,1-4.1,1
		c-1.9,0-6.1,1.3-9.4,3C497.5,602.9,495.4,603.4,498.5,601z"/>
	<path id="path5587" class="st0" d="M454.7,532.8c-3-1.8-5.2-6.1-4.5-8.9c0.4-1.7,0.5-1.7,1.2,0.2c2.1,5.6,2.7,6.6,5.1,7.5
		c2.6,1,3,1.6,1.7,2.4C457.8,534.2,456.2,533.7,454.7,532.8L454.7,532.8z"/>
	<path id="path5585" class="st0" d="M464.2,525.7c-0.1-3.8,0.1-7.2,0.5-7.4c0.4-0.3,0.9,2.8,1,6.9c0.1,4.1-0.1,7.4-0.5,7.4
		C464.8,532.6,464.3,529.5,464.2,525.7z"/>
	<path id="path5583" class="st0" d="M455,516.1c1.3-1.4,2.6-2.3,2.8-2c0.7,0.7-2.9,4.5-4.2,4.5C453.1,518.6,453.7,517.5,455,516.1
		L455,516.1z"/>
	<path id="path5581" class="st0" d="M471,484.1c-1.3-1.4-1.9-2.5-1.3-2.5c1.3,0,4.8,3.8,4.2,4.5C473.5,486.4,472.3,485.5,471,484.1
		L471,484.1z"/>
	<path id="path5577" class="st0" d="M644.4,557.4c-1.6-3.4-4.6-8.2-6.7-10.7c-5.2-6.3-4.7-7.7,0.6-1.9c4,4.4,11.5,18.8,9.8,18.8
		C647.7,563.6,646,560.8,644.4,557.4L644.4,557.4z"/>
	<path id="path5575" class="st0" d="M636.5,531.2c0.3-1.4,0.1-4-0.5-5.8c-1.2-3.4-0.6-5.2,0.9-2.8c1.3,2,1.2,9.7-0.1,10.5
		C636.3,533.5,636.1,532.9,636.5,531.2z"/>
	<path id="path5573" class="st0" d="M630,521.5c0.6-1.2,1.3-1.9,1.6-1.7c0.7,0.7-0.7,3.7-1.8,3.7C629.3,523.6,629.4,522.7,630,521.5
		L630,521.5z"/>
	<path id="path5571" class="st0" d="M627.4,519.1c2-1.5,3.2-1.3,2.1,0.5c-0.4,0.6-1.4,1-2.3,1C625.7,520.6,625.7,520.4,627.4,519.1
		L627.4,519.1z"/>
	<path id="path5569" class="st0" d="M609.2,505.9c-3.4-3.5-6-6.3-5.6-6.3c1.2,0,9.4,7.2,11,9.6C617.4,513.5,615.7,512.4,609.2,505.9
		L609.2,505.9z"/>
	<path id="path5567" class="st0" d="M558.8,471.6c-2-1.1-3.9-2.7-4.3-3.6c-0.6-1.6-0.5-1.6,1.2,0c1,0.9,3.3,2.2,5,2.8
		c1.8,0.6,3.2,1.5,3.2,2C564,474,563,473.8,558.8,471.6L558.8,471.6z"/>
	<path id="path5565" class="st0" d="M561.5,468.6c-1-1.1-1.3-2-0.8-2c1.3,0,3.8,2.9,3.1,3.5C563.5,470.4,562.5,469.7,561.5,468.6
		L561.5,468.6z"/>
	<path id="path5563" class="st0" d="M584.5,456.7c-3.3-1.9-7.2-7.8-6-8.9c0.4-0.4,1-0.1,1.2,0.6c1,2.7,6.5,8.1,8.4,8.1
		c1,0,1.9,0.5,1.9,1C590,459.1,587.9,458.7,584.5,456.7z"/>
	<path id="path5561" class="st0" d="M618.5,456.5c0.4-0.6,1.3-0.8,2.1-0.5c1.1,0.4,1.3,0,0.9-1.4c-0.7-2,0.8-3.6,2.5-2.6
		c1.5,0.9-1.5,4.8-4,5.2C618.7,457.5,618.1,457.2,618.5,456.5L618.5,456.5z"/>
	<path id="path5559" class="st0" d="M597.5,455.6c0.3-0.5,1.2-1,2-1c1.5,0,7.5-6.5,7.5-8c0-0.5,0.5-1,1-1c1.9,0,1,1.6-3.5,6.3
		c-2.5,2.6-5.2,4.7-6.1,4.7S597.1,456.2,597.5,455.6z"/>
	<path id="path5557" class="st0" d="M576.4,454.5c-0.4-0.6-0.4-1.3-0.2-1.5c0.3-0.3,0.7,0.2,1.1,1.1
		C578,455.8,577.4,456.1,576.4,454.5L576.4,454.5z"/>
	<path id="path5555" class="st0" d="M625,450.9c0-0.4,0.5-1.5,1-2.3c0.8-1.3,1-1.3,1,0.2c0,0.9-0.4,2-1,2.3S625,451.4,625,450.9z"/>
	<path id="path5553" class="st0" d="M574.6,438.8c-0.9-1-1.7-2.7-1.7-3.7c0-1-2.9-4.6-6.5-8c-3.6-3.4-6.5-7.1-6.5-8.1
		c0-2,0.1-2,4,3.6c0.8,1.2,3,3.1,4.8,4.2c1.9,1.2,4.1,3.9,5.3,6.4c1.1,2.4,2.4,4.6,3,5c1.2,0.8,1.3,2.5,0.2,2.5
		C576.7,440.6,575.5,439.8,574.6,438.8z"/>
	<path id="path5551" class="st0" d="M556.8,431.1c-1.2-2-3.1-11.6-2.5-13.1c0.3-0.9,0.2-1.3-0.3-1c-1,0.6-2.1-2.9-2-6.4
		c0.1-2,0.3-1.8,1.5,1.5l1.4,4l-0.6-4c-0.9-6.1-0.5-17.5,0.7-21.5c1.3-4.2,3.5-6.8,2.5-3c-2,7.5-2.6,15.8-1.5,22.2
		c0.6,3.7,0.8,7.2,0.4,7.8c-0.4,0.6-0.2,3,0.5,5.4C558.1,427.2,558.1,433.1,556.8,431.1L556.8,431.1z"/>
	<path id="path5549" class="st0" d="M573,373.7c0-0.6,0.5-1.1,1-1.1s1,0.2,1,0.4c0,0.3-0.5,0.7-1,1.1S573,374.3,573,373.7z"/>
	<path id="path5547" class="st0" d="M567.9,365.7c2.5-2.2,4.2-2.3,4.9-0.2c0.2,0.6-0.5,1.2-1.6,1.2s-2.8,0.3-3.8,0.6
		C565.9,367.6,566,367.3,567.9,365.7L567.9,365.7z"/>
	<path id="path5545" class="st0" d="M562,361.6c0-0.9,2.5-2,4.6-2c0.8,0,1.2,0.4,0.9,0.9C566.8,361.6,562,362.6,562,361.6z"/>
	<path id="path5543" class="st0" d="M560.5,353.1c3-2.4,6.2-3.4,5-1.5c-0.3,0.5-1.2,1-1.9,1c-0.7,0-1.9,0.7-2.6,1.5
		c-0.7,0.8-1.8,1.5-2.4,1.5S558.8,354.4,560.5,353.1z"/>
	<path id="path5541" class="st0" d="M578.6,349.8c-1.4-2.3-2.5-11.2-1.6-13.4c0.8-1.9,0.9-1.7,1,1.7c0,2.2,0.5,5.7,1.1,7.9
		C580.1,349.7,579.8,351.8,578.6,349.8z"/>
	<path id="path5539" class="st0" d="M696.5,592.7c-1.2-3.8-5.7-6.8-10.7-7c-2.4-0.1-7.5-8.1-8.3-13.2c-0.4-2.4-1.7-5.9-2.9-7.8
		c-1.2-2-2.5-4.4-2.9-5.4c-2.1,0.5-2.3-4.8-4.6-8.6c-0.9-1.4-3.4-5.9-5.5-10c-2.1-4.1-4.6-8-5.6-8.7c-2.2-1.6-8-10.5-8-12.4
		c0-0.8-0.9-2-2-2.7c-1.1-0.7-2-1.8-2-2.6c0-0.7-0.9-2.2-2.1-3.2s-2.7-3.1-3.5-4.6c-0.8-1.5-2.4-3.8-3.6-5c-1.2-1.3-4.4-4.8-7-7.8
		c-2.8-3.3-4.8-4.8-4.8-3.9c0,3.3,6.3,14.4,10.4,18.3c4.7,4.5,7.4,10.9,8.7,20.3c1.7,12.5,16.1,39.2,24.9,46.2c4.4,3.5,7,7.6,7,11.2
		c0,3,8.8,12.4,13.3,14.3c1.9,0.8,3.8,2,4.2,2.6C692.6,604.4,697.2,595,696.5,592.7L696.5,592.7z"/>
	<path id="path5533" class="st0" d="M422.2,488.5c-1.8-0.5-3.3-1.4-3.3-1.9c0-1.3,1.7-1.3,2.5,0c0.3,0.5,1.6,1,2.8,1
		c2,0,2-0.1,0.4-1c-1-0.6-1.8-1.5-1.8-2.1c0-0.7,0.4-0.8,1.3-0.1c0.7,0.6,3.2,1.3,5.7,1.6c5.6,0.8,6.1,1.3,1.9,2.1
		c-1.8,0.4-4,0.8-4.8,1C426.1,489.3,424,489,422.2,488.5z"/>
	<path id="path5531" class="st0" d="M362.5,486.7c-1-1.6,1.2-2.1,2.5-0.6c1,1.2,0.9,1.5-0.3,1.5
		C363.8,487.6,362.8,487.2,362.5,486.7z"/>
	<path id="path5529" class="st0" d="M376.5,484.6c-0.7-1.2,0.3-1.2,3,0c1.9,0.8,1.9,0.9-0.2,0.9
		C378.1,485.6,376.8,485.2,376.5,484.6z"/>
	<path id="path5527" class="st0" d="M358.9,480.5c-3.4-3.6-3.6-5.9-1.1-8.2c2-1.8,6.2-2.3,6.2-0.7c0,0.5-0.9,1-2,1
		c-1.2,0-2.4,0.9-2.9,2.3c-0.7,1.8-0.3,2.7,2,4.6c1.6,1.3,2.9,2.7,2.9,3.3C364,484.5,361.7,483.6,358.9,480.5L358.9,480.5z"/>
	<path id="path5525" class="st0" d="M366.4,473.2c-1.1-0.8-1.7-1.7-1.4-2c0.6-0.6,7.5,1.6,8.6,2.7
		C375,475.3,368.3,474.6,366.4,473.2z"/>
	<path id="path5523" class="st0" d="M441.3,465c-4.5-4.5-12.3-15.3-12.8-17.9c-0.1-0.6-0.7-2.9-1.3-5c-2.1-7.9-3.4-18.4-2.5-20.1
		c0.7-1.2,1.1,0,1.5,4.7c0.3,3.6,1.9,9.9,3.6,14.4c3.1,8,11.6,21.6,15.4,24.6c1.1,0.9,1.8,2.2,1.6,2.9
		C446.5,469.5,444.6,468.3,441.3,465L441.3,465z"/>
	<path id="path5521" class="st0" d="M397,462c-5.9-3.5-7.9-5.3-9.7-8.7c-2-3.9-1-4.4,2.6-1.4c1.7,1.4,3.6,2.7,4.3,3
		c0.7,0.3,1,0.8,0.6,1.2c-0.4,0.4-1.7,0.2-2.9-0.5c-1.3-0.7-2-0.8-1.6-0.1c0.4,0.6,3.3,2.5,6.6,4.3c3.3,1.8,6,3.6,6,4
		C403,465.1,401.7,464.7,397,462L397,462z"/>
	<path id="path5519" class="st0" d="M385.1,443.6c-2.3-1.6-4.4-3-4.6-3c-0.6,0-5.1-3.8-7.5-6.3c-2.5-2.6-7.3-12.4-6.8-13.9
		c0.2-0.7,1.5,1,2.8,3.7c3,6.3,8.9,12.6,16.2,17.6c3.2,2.1,5.8,4.1,5.8,4.4C391,447.3,389,446.4,385.1,443.6L385.1,443.6z"/>
	<path id="path5517" class="st0" d="M373.4,428.3c-2-3-3.5-6.1-3.2-6.9c0.3-0.8,1.2,0.2,2.3,2.2c1,1.9,2.7,4.7,3.8,6.2
		c1.1,1.5,1.8,3,1.4,3.4C377.4,433.5,375.5,431.3,373.4,428.3z"/>
	<path id="path5515" class="st0" d="M364.1,412.3c-1.4-7.4-1.5-13.6-0.3-15.5c0.5-0.8,1.1,2.6,1.4,8.5c0.3,5.4,0.9,10.6,1.3,11.6
		c0.4,1,0.3,1.8-0.2,1.8C365.7,418.6,364.8,415.8,364.1,412.3L364.1,412.3z"/>
	<path id="path5513" class="st0" d="M368.6,418c-0.4-0.4-0.7-1.1-0.7-1.7c0-0.6,0.5-0.6,1.2,0.1c0.7,0.6,1,1.4,0.7,1.7
		C369.5,418.4,369,418.3,368.6,418z"/>
	<path id="path5509" class="st0" d="M515.8,477.6c-1.7-1.7-2.7-3.4-2.3-3.8c0.4-0.4,1.8,0.5,3.1,2c1.3,1.5,2.8,2.8,3.4,2.8
		c0.6,0,1,0.5,1,1C521,481.5,518.8,480.6,515.8,477.6L515.8,477.6z"/>
	<path id="path5507" class="st0" d="M525,479.6c-1.2-0.8-0.9-1,1.3-1c1.5,0,2.8,0.4,2.8,1C529,480.9,526.9,480.9,525,479.6z"/>
	<path id="path5495" class="st0" d="M668.2,418.3c0.7-0.7,2.2-1.8,3.3-2.5c1.9-1.1,1.9-1.2-0.3-1.2c-1.3,0-3.5,1.1-5,2.5
		c-2.1,1.9-2.3,2.5-1,2.5C666.1,419.6,667.4,419,668.2,418.3z"/>
	<path id="path5489" class="st0" d="M678.1,411c1-0.9,1.8-2.3,1.8-3.1c0-0.9-0.8-0.5-2.1,1.2c-1.1,1.5-3,2.6-4.3,2.6
		c-2.1,0-2-0.1,0.6-2.1c3-2.2,3.6-5.6,1.2-6.5c-2-0.8-4.6,1.5-4.3,3.5c0.1,0.9-0.1,2.2-0.5,2.8C668.6,412.6,674.9,413.9,678.1,411z"
		/>
	<path id="path5487" class="st0" d="M672,406.6c0-0.5,0.7-1,1.6-1s1.3,0.5,0.9,1s-1,1-1.6,1S672,407.2,672,406.6z"/>
	<path id="path5481" class="st0" d="M691,400.4c1.4-0.5,2-1.2,1.4-1.4c-0.6-0.2-3.1,0.5-5.5,1.6c-3.4,1.5-3.7,1.9-1.4,1.4
		C687.1,401.6,689.6,400.9,691,400.4z"/>
	<path id="path5477" class="st0" d="M763.5,369.8c-0.5-0.5-3.6,5.3-3.6,6.9c0,0.7,0.9-0.5,2-2.6C763.1,372,763.8,370.1,763.5,369.8z
		"/>
	<path id="path5475" class="st0" d="M779,368.3c1-2.3,2.1-5.5,2.5-7.2c0.4-1.8-0.2-1-1.4,1.9c-1.1,2.7-3.7,6.7-5.8,8.9l-3.8,3.9
		l3.3-1.7C776,373.1,777.8,371,779,368.3z"/>
	<path id="path5465" class="st0" d="M768.2,352.2c0.4-2-0.2-2.6-3.4-3.9c-5.2-2-5.4-5.2-0.3-4.2c2.7,0.5,3.7,0.3,4.1-0.9
		c0.7-1.8,8.4-6.1,8.4-4.7c0,0.5-1.9,2.1-4.2,3.7s-3.7,3-3.1,3.2c1.9,0.6,7.5-2.3,13.7-7.1l5.9-4.6l-3.9,0c-2.1,0-5.3,0.9-7.1,2
		c-2.5,1.5-4.8,2-10.5,1.8c-12.5-0.3-14.4,1.7-8.4,8.7c1.8,2.2,4,5.4,4.7,7.1C765.6,356.8,767.4,356.3,768.2,352.2L768.2,352.2z"/>
	<path id="path5463" class="st0" d="M787,345c2.2-2,3.8-3.9,3.5-4.1c-0.3-0.3-2.5,0.5-5,1.6s-5,2.1-5.5,2.1c-1.1,0-1.4,2.3-0.3,3.3
		C781,349.3,783.1,348.5,787,345L787,345z"/>
	<path id="path5425" class="st0" d="M310.8,478.9c0.7-0.3,2.8-2.6,4.8-5.1c1.9-2.5,3.5-4,3.5-3.3c0,2.1-6.1,9-7.8,9
		C310.1,479.5,309.9,479.3,310.8,478.9L310.8,478.9z"/>
	<path id="path5421" class="st0" d="M322,464.7c0-0.5,1.4-3.9,3.1-7.5l3.1-6.6l-1.5-8.1c-0.8-4.5-2.4-9.6-3.5-11.3
		c-8-12.6-11.7-24-12.6-39.1c-0.5-7.9-0.4-9.2,1-9.2c1.6,0,3.1,3,2.3,4.4c-0.2,0.4-0.1,1.7,0.3,2.8c0.4,1.1,0.8-5.1,0.8-13.7
		s0.6-18.5,1.2-21.9c0.6-3.4,0.9-6.4,0.6-6.6c-1.1-1.1-3.6,16.9-3.6,26.4c0,5.6-0.3,7.3-1.5,7.3c-2.8,0-3.2-15.4-0.9-27.3
		c0.4-2,0.2-2.8-0.4-2.4c-1.5,0.9-3.6,15.7-3.6,25.2c0,9.9,0.8,16.5,3.4,26.1c1.1,4.1,2,8.2,2,9.1c0,2.6-1.5,0.4-3.1-4.7l-1.4-4.5
		l-0.3,3.7c-0.2,2,0.1,6.3,0.7,9.4c1,5.5,0.8,7.5-0.6,6c-1.4-1.4-2.3-11.2-2.9-33.2c-0.6-22.6-0.6-23.2,2.1-34
		c5-20.3,12-31,25.4-38.7c4.7-2.7,6.6-3.2,12.1-3.2c12.4,0,18.6,5.3,22.1,18.7c1,4,3.7,11,6,15.5c4,8.1,4.5,10.8,1.4,8.2
		c-2.4-2-7.5-13.6-9.5-21.7c-2.6-10.4-4.9-13.6-11.8-16.4c-6.4-2.6-8.6-2.6-12.1,0.2c-1.3,1-3,1.9-3.6,1.9
		c-1.9,0-12.2,11.3-13.9,15.3c-2.2,5.3-5.7,22.9-5.6,28.4c0,2.6,0.3,4.2,0.6,3.5c1.4-3.6,2.3-0.2,2.3,8.5c0,6.4-0.4,9.1-0.9,7.8
		c-1.6-3.8-1.1,16.6,0.6,22.5c0.9,3,1.7,6.6,1.9,8c0.3,2.5,1.2,6.1,3.6,15c0.7,2.5,1.8,5.4,2.5,6.4c0.7,1,1,3.1,0.8,4.6
		c-0.3,1.5-0.1,3,0.6,3.4c0.7,0.5,1.1-0.3,1-2.1c0-1.6,0.1-4.4,0.4-6.3c0.3-2.4-0.6-6.4-2.9-12.5c-4.9-13.5-9.7-35.5-7.8-35.5
		c0.5,0,1.4,3.3,2,7.3c1.4,8.3,7.5,29.7,8,28c0.4-1.1-0.2-4.5-3.7-21.6c-2.1-10-2.7-24.1-1.2-25.1c0.5-0.3,1.1,4.1,1.4,9.7
		c0.5,9.7,3.8,27.6,5.8,32.1c0.8,1.8,0.9,1.7,0.4-0.6c-0.7-3.8-2.5-21-2.9-28.8c-0.4-6.8,0.9-22.8,1.8-23.8
		c1.2-1.2,1.3,0.7,0.4,10.9c-0.6,6.6-0.5,11.5,0,13c0.8,2,1,1.6,1-2.6c0-2.8,0.7-7.9,1.4-11.3c0.8-4,1-7.9,0.6-10.5
		c-0.9-5.1,0.3-12.3,3.1-17.6c1.9-3.7,4-5.3,4-3c0,0.5-0.4,1-0.9,1c-1.3,0-4.1,11-4.1,15.8c0,3.4,0.3,4,1.6,3.5
		c1.4-0.5,1.4-0.3,0.5,1.5c-0.9,1.6-4.1,14.8-4.1,16.8c0,0.2,0.4,0.4,0.9,0.4c0.5,0,1.9-3,3.1-6.7c1.2-3.7,3.1-8.5,4.2-10.8
		c3-6,9.7-14.6,11.3-14.6c2.2,0,1.8,1.8-0.5,2.5c-2.7,0.9-10.6,14.5-13,22.5c-3.3,11.2-4.4,24.1-2.5,29.9c0.4,1.1,0.2,2.1-0.3,2.1
		c-1.5,0-2.2-3.9-2.2-12.9c0-4.6-0.3-8.1-0.6-7.8c-0.3,0.4-0.6,6.5-0.5,13.8c0.1,9.9,0.5,14.3,1.8,17.8c2.7,7.3,9.8,17.7,16.1,23.7
		c3.1,3,5.2,5.5,4.6,5.5c-1.9,0-10-7.8-14-13.3c-2-2.9-4.6-6.1-5.6-7.2s-2.5-2.9-3.3-4c-1.3-1.8-1.3-1.7-0.3,1.4
		c2.2,6.7,6.3,12.7,13,19.2c7.4,7.2,9,9.8,3.1,5.4c-5.3-4-10.3-9.1-10.3-10.4c0-0.6-0.4-1.1-0.8-1.1s-2.3-2.8-4.1-6.3l-3.3-6.3
		l0.6,4.3c0.7,4.8,3,8.4,9.5,14.8c2.4,2.4,4.1,4.7,3.7,5.1c-1,1-12.8-11.6-12.1-12.8c0.3-0.5,0.1-0.9-0.5-0.9s-1.1,1.5-1.1,3.3
		c-0.1,5.6-2.4,14-5.8,21C323.1,465.2,322,466.8,322,464.7L322,464.7z"/>
	<path id="path5419" class="st0" d="M320,418.4c-1-3.4-2.8-8.9-3.9-12.1s-2.1-6.7-2.1-7.8c0-1-0.4-1.9-0.9-1.9
		c-0.5,0-0.6,1.4-0.1,3.3c0.4,1.8,1.4,5.7,2.1,8.7c1.2,5,5.7,16.1,6.5,16.1C321.7,424.6,321,421.8,320,418.4L320,418.4z"/>
	<path id="path5417" class="st0" d="M313,393.6c0-0.5-0.5-1-1.1-1s-0.8,0.5-0.4,1s0.8,1,1.1,1S313,394.2,313,393.6z"/>
	<path id="path5415" class="st0" d="M311.6,362.9c-0.3-0.3-0.6,0.3-0.5,1.3c0,1.2,0.3,1.4,0.6,0.6
		C311.9,364.1,311.9,363.2,311.6,362.9z"/>
	<path id="path5413" class="st0" d="M317.3,341c3.5-9.1,8.7-15.8,16.5-21.1c3.5-2.4,6-4.3,5.6-4.3c-2,0-8.5,3.9-12,7.2
		c-2.2,2.1-5.1,4.5-6.3,5.4s-2.7,2.8-3.2,4.2c-1.6,4.2-5.9,21.2-5.8,23c0,0.9,0.7-0.4,1.4-3C314.1,349.9,315.9,344.8,317.3,341
		L317.3,341z"/>
	<path id="path5401" class="st0" d="M682.5,427c-2.2-2.2-2-3.8,1-6.7c4.3-4.3,10.8-4.6,12-0.6c0.9,2.8-0.3,3.5-2.1,1.3
		c-1.4-1.8-1.5-1.8-0.9,0.8c0.7,3-0.4,3.5-3.5,1.8c-1.3-0.7-2.2-0.6-3.1,0.6c-1.1,1.3-0.9,1.6,0.9,2.1c1.2,0.3,2.2,1,2.2,1.5
		C689,429.2,684.2,428.7,682.5,427L682.5,427z"/>
	<path id="path5399" class="st0" d="M689.2,419.9c-0.7-0.3-1.6-0.3-1.9,0.1s0.3,0.6,1.3,0.5C689.7,420.5,690,420.2,689.2,419.9
		L689.2,419.9z"/>
	<path id="path5397" class="st0" d="M682,416.7c0-0.5,0.8-1.1,1.8-1.4c6.7-2,14.2-5.2,16.8-7.1c4.2-3.1,5.5-3.8,5.5-2.9
		c-0.1,1.8-6.3,5.6-12.7,7.9c-3.7,1.3-7.1,2.9-7.7,3.4C684.3,417.9,682,417.9,682,416.7z"/>
	<path id="path5395" class="st0" d="M626,411.6c0-0.5,0.5-1,1-1s1,0.5,1,1s-0.5,1-1,1S626,412.2,626,411.6z"/>
	<path id="path5391" class="st0" d="M654.7,408.2c-0.7-0.6-0.7-2.6,0-5.7c0.8-4,0.7-5.5-1.2-9.6c-1.2-2.7-2.1-5.7-2.1-6.7
		s-0.5-2.1-1-2.4s-1-0.2-1,0.2s-2.7,3.8-5.9,7.5c-3.2,3.7-6.1,7.2-6.3,7.9c-0.2,0.7-1,0.9-1.6,0.5c-1.8-1.1,2-7.7,10.9-18.8
		c7.8-9.7,12.2-16,19.2-27c6.6-10.5,14.3-16.8,20.7-16.8c3.1,0,4.1-0.5,6.1-3.5c2.8-4.1,10.4-9.9,12.2-9.2c0.7,0.3,0.1,0.9-1.3,1.5
		c-2.3,0.9-8.9,7.5-8.9,8.8c0,0.3,2.3-1.5,5.1-3.9c3.5-3.1,7.2-5.1,11.8-6.6c7.6-2.4,10.9-2.6,19.7-0.9c8.1,1.5,8.6,3.4,0.6,2.3
		c-10.9-1.5-18.4-0.9-23.8,1.8c-8.4,4.3-16.5,13.6-15,17.4c0.3,0.9-0.2,2.2-1.2,3c-1.7,1.4-1.7,1.4,0.2,0.8c4.4-1.4,7.8-1.8,7.2-0.8
		c-0.3,0.6-2.7,1.3-5.2,1.7c-4.4,0.7-4.5,0.8-4.5,4.4c0,2,0.7,4.8,1.5,6.2c0.8,1.4,1.4,3.4,1.4,4.5c0,2,0,2-1.6,0s-1.6-2-0.9,0
		c1.6,4.4,1.5,5.2-1.9,10.4c-1.9,3-4.2,7.5-5.1,10c-1.6,4.7-6.1,10.8-7.2,9.7c-0.3-0.3,0.3-1.9,1.4-3.4c1.1-1.5,2.8-5,3.8-7.7
		s3.2-6.7,4.8-8.9l3-3.9l-1.3-6.8c-1.4-7.6-0.9-15.5,1.5-20.2c1.2-2.5,1.3-3.3,0.3-3.9c-1.8-1.1-2.8-1-7.5,1.1
		c-4.5,2.1-9.3,8-22.8,28.1l-7.3,10.9l3,7.8c3.6,9.2,4.7,18.2,2.6,20C656.1,408.8,655.3,408.9,654.7,408.2L654.7,408.2z"/>
	<path id="path5389" class="st0" d="M342.8,404c-0.4-0.6-1.2-4.9-1.8-9.6c-0.9-7-0.8-9.3,0.5-12.8c2.5-7,7.1-14.2,12.5-19.5
		c4.9-4.8,5.1-4.9,6.5-3c1.7,2.3,1.9,3.5,0.6,3.5c-0.5,0-1.9,1.8-3,3.9c-2.1,4.1-1.1,5,2.4,2.2c2.9-2.4,2.5-0.7-1.5,6.2
		c-2.3,4-4.1,8.8-4.5,11.8c-0.5,4.1-1,5-2.6,5c-1.6,0-1.9-0.5-1.5-3c0.3-2,0-3-0.8-3c-1.8,0-2.7-3.5-2-7.8l0.6-3.7l-1.6,4
		c-0.9,2.3-1.9,8.9-2.2,15.5C343.8,399.9,343.2,404.6,342.8,404L342.8,404z"/>
	<path id="path5387" class="st0" d="M351.3,379.1c0.6-4,3.9-11.4,7-15.8c2.7-3.9,1.1-4.9-1.9-1.2c-3.8,4.7-6.4,10.8-7.1,16.5
		C348.6,384.7,350.3,385,351.3,379.1L351.3,379.1z"/>
	<path id="path5381" class="st0" d="M704.6,383.9c-1.1-1.1-0.6-2.3,0.9-2.3c0.8,0,3-1.6,4.9-3.5c3.3-3.4,6-4.9,3.6-2
		c-1.9,2.3,0.1,1.8,2.7-0.7c1.9-1.8,2.3-1.9,2.3-0.6C719,377.1,706,385.3,704.6,383.9L704.6,383.9z"/>
	<path id="path5379" class="st0" d="M729.2,375.6c-2.3-3.7-1.5-8.3,2.2-12.4c2.8-3,3.8-3.6,5.3-2.8c3.8,2,5.5,4.9,4.8,8
		c-0.5,2.4-0.2,3.3,1.9,5c3.2,2.5,3.2,3.2,0.1,3.2c-3.2,0-4.9-3.1-4-7.3c0.5-2.2,0.3-2.9-0.3-2.2c-0.6,0.5-1.2,1.9-1.4,3
		c-0.4,2.5-1.7,3.5-4.7,3.5c-1.9,0-2.2,0.4-1.7,2C732.3,378.2,730.8,378.2,729.2,375.6L729.2,375.6z"/>
	<path id="path5377" class="st0" d="M735,368.7c0-0.5,0.3-1.8,0.6-2.8c0.5-1.7,0.5-1.7-0.9-0.1c-0.8,1-2,1.8-2.6,1.8s-1.1,0.5-1.1,1
		s0.9,1,2,1S735,369.2,735,368.7z"/>
	<path id="path5371" class="st0" d="M358,369c0-1.4,2.7-5.1,3.3-4.4c0.3,0.3-0.3,1.6-1.4,3S358,369.6,358,369L358,369z"/>
	<path id="path5369" class="st0" d="M363.5,365c-0.7-1.9,0.1-3.4,2-3.4c1.9,0,1.9,3.6,0,4.3C364.8,366.2,363.9,365.8,363.5,365
		L363.5,365z"/>
	<path id="path5365" class="st0" d="M340.4,357.9c2.3-4.5,7.5-11.3,8.6-11.3c0.6,0-1.1,3.1-3.8,7C340.4,360.6,337.7,363,340.4,357.9
		z"/>
	<path id="path5359" class="st0" d="M623,343.1c0-0.3,1.6-2,3.5-3.6c5.5-4.9,4.8-10.8-2-15.4c-5.7-3.8-8.8-8.1-8.9-12.1
		c-0.1-4.7-1.6-3-1.6,1.8c0,4.2,0.5,4.9,9.9,13.2l3.2,2.9l-2.2,2.3c-1.2,1.3-2.6,2.1-3.1,1.8c-0.5-0.3-0.1-1.2,0.9-1.9
		c1.7-1.3,1.6-1.5-1.6-4.9c-1.9-2-3.9-3.6-4.5-3.6c-1.7,0-4.5-5.5-4.5-8.9c0-3.3,1.8-8.1,3.1-8.1c0.4,0,1.4-0.3,2.3-0.6
		c1.2-0.5,1.4-0.1,0.7,2.3c-1.2,4.4,0.5,7.6,7.3,13.7c3.6,3.2,6.5,6.6,6.8,8c0.6,2.9-1.5,8.4-4,10.3
		C625.6,342.3,623,343.8,623,343.1z"/>
	<path id="path5353" class="st0" d="M740,325.5c0-1.2,4-2.1,6.6-1.5c3.9,1,2.8,2.2-2.1,2.2C742,326.3,740,325.9,740,325.5z"/>
	<path id="path5349" class="st0" d="M699.2,322.4c0.5-1.5,2.8-2.3,2.8-1c0,0.5-0.7,1.3-1.6,1.6C699.4,323.4,699,323.2,699.2,322.4z"
		/>
	<path id="path5345" class="st0" d="M696.6,320.6c1.2-1.2,2.7-2.1,3.3-1.9c0.6,0.2-0.3,1.2-2.1,2.3l-3.3,1.9L696.6,320.6
		L696.6,320.6z"/>
	<path id="path5333" class="st0" d="M623.7,312.5c-2.2-1.7-2.8-2.8-2.8-6.3c0-2.3,0.7-5.1,1.5-6.2c1.4-1.8,1.5-1.7,0.9,1.8
		c-0.8,4.9,1.1,9.6,4.2,10.4c1.3,0.3,2.4,1,2.4,1.5C630,315.3,626.6,314.6,623.7,312.5L623.7,312.5z"/>
	<path id="path5331" class="st0" d="M637.6,307.1c-1.6-4.2,1-13.9,4.6-17.1c2-1.8,2-1.6-0.2,2.6c-1.3,2.6-2.4,6.7-2.5,9.8
		C639.1,308.2,638.6,309.6,637.6,307.1L637.6,307.1z"/>
	<path id="path3687" class="st0" d="M671.5,607.5c0.1-0.5,1.7-0.7,3.4-0.3c1.7,0.4,6.3-0.2,10.1-1.3c8.3-2.3,8.1-0.7-0.3,2.1
		C678.8,610,671.1,609.7,671.5,607.5L671.5,607.5z"/>
	<path id="path5335" class="st0" d="M740,314.7c-5.8-6.9-23.9-18.1-29.4-18.1c-1.3,0-4.1-1.2-6.3-2.6c-5-3.4-13.4-7.3-15.6-7.3
		c-1,0-1.8-0.5-1.8-1s0.2-1,0.5-1c1.9,0,10.8,3.7,14.5,6c2.5,1.6,5.8,3.1,7.5,3.5c4.6,1,12.3,4.5,19.5,8.9c7,4.3,16,12.8,16,15.2
		C745,320.4,744.5,320,740,314.7L740,314.7z"/>
	<path id="path2932" class="st0" d="M671.1,310.1c-5.5-10.6-8.5-18.2-8-28C659.5,293.9,667.6,306.5,671.1,310.1z"/>
	<path id="path3514" class="st0" d="M654.4,315.8c-3-11.6-4.2-19.6-1.4-29.1C646.9,297.3,651.9,311.4,654.4,315.8z"/>
	<path id="path3516" class="st0" d="M614.5,337.5c-7.5-9.3-11.9-16.1-13.3-25.9C600,323.8,610.4,334.6,614.5,337.5z"/>
	<path id="path3520" class="st0" d="M681.8,304c-3.6-8.9-5.5-15.3-4.1-23.7C673.6,290.5,679.2,301,681.8,304z"/>
	<g id="g3526">
		<path id="path3518" class="st0" d="M604.5,348.1c-6-10.4-9.6-18-10.7-29C592.9,332.9,601.2,344.9,604.5,348.1z"/>
		<path id="path3522" class="st0" d="M603.5,348.5c-4.4-0.8-11.4-8.1-12.2-12.8c-0.5-2.6-0.4-2.5,2.2,1.6c1.5,2.5,4.5,5.5,7.1,7.3
			C605.3,347.8,606.2,349,603.5,348.5L603.5,348.5z"/>
		<path id="path3524" class="st0" d="M597.9,356.2c-3.6-2.6-7.7-13.7-7.1-19.5c0.3-3.2,0.4-3.1,1.4,2.6c0.7,3.5,2.3,8.1,4.1,11.1
			C599.7,356.1,600.1,357.8,597.9,356.2L597.9,356.2z"/>
	</g>
	<g id="g3531">
		<path id="path3533" class="st0" d="M604.5,348.1c-6-10.4-9.6-18-10.7-29C592.9,332.9,601.2,344.9,604.5,348.1z"/>
		<path id="path3535" class="st0" d="M603.5,348.5c-4.4-0.8-11.4-8.1-12.2-12.8c-0.5-2.6-0.4-2.5,2.2,1.6c1.5,2.5,4.5,5.5,7.1,7.3
			C605.3,347.8,606.2,349,603.5,348.5L603.5,348.5z"/>
		<path id="path3537" class="st0" d="M597.9,356.2c-3.6-2.6-7.7-13.7-7.1-19.5c0.3-3.2,0.4-3.1,1.4,2.6c0.7,3.5,2.3,8.1,4.1,11.1
			C599.7,356.1,600.1,357.8,597.9,356.2L597.9,356.2z"/>
	</g>
	<g id="g3547" transform="matrix(.659 .17492 -.13974 .82492 300.01 -77.203)">
		<path id="path3549" class="st0" d="M604.5,348.1c-6-10.4-9.6-18-10.7-29C592.9,332.9,601.2,344.9,604.5,348.1z"/>
		<path id="path3551" class="st0" d="M603.5,348.5c-4.4-0.8-11.4-8.1-12.2-12.8c-0.5-2.6-0.4-2.5,2.2,1.6c1.5,2.5,4.5,5.5,7.1,7.3
			C605.3,347.8,606.2,349,603.5,348.5L603.5,348.5z"/>
		<path id="path3553" class="st0" d="M597.9,356.2c-3.6-2.6-7.7-13.7-7.1-19.5c0.3-3.2,0.4-3.1,1.4,2.6c0.7,3.5,2.3,8.1,4.1,11.1
			C599.7,356.1,600.1,357.8,597.9,356.2L597.9,356.2z"/>
	</g>
	<g id="g3555" transform="matrix(.78069 .43516 -.44067 .85539 377.75 -253.74)">
		<path id="path3557" class="st0" d="M604.5,348.1c-6-10.4-9.6-18-10.7-29C592.9,332.9,601.2,344.9,604.5,348.1z"/>
		<path id="path3559" class="st0" d="M603.5,348.5c-4.4-0.8-11.4-8.1-12.2-12.8c-0.5-2.6-0.4-2.5,2.2,1.6c1.5,2.5,4.5,5.5,7.1,7.3
			C605.3,347.8,606.2,349,603.5,348.5L603.5,348.5z"/>
		<path id="path3561" class="st0" d="M597.9,356.2c-3.6-2.6-7.7-13.7-7.1-19.5c0.3-3.2,0.4-3.1,1.4,2.6c0.7,3.5,2.3,8.1,4.1,11.1
			C599.7,356.1,600.1,357.8,597.9,356.2L597.9,356.2z"/>
	</g>
	<g id="g3563" transform="matrix(.54064 .53066 -.71469 .47141 642.22 -174.23)">
		<path id="path3565" class="st0" d="M604.5,348.1c-6-10.4-9.6-18-10.7-29C592.9,332.9,601.2,344.9,604.5,348.1z"/>
		<path id="path3567" class="st0" d="M603.5,348.5c-4.4-0.8-11.4-8.1-12.2-12.8c-0.5-2.6-0.4-2.5,2.2,1.6c1.5,2.5,4.5,5.5,7.1,7.3
			C605.3,347.8,606.2,349,603.5,348.5L603.5,348.5z"/>
		<path id="path3569" class="st0" d="M597.9,356.2c-3.6-2.6-7.7-13.7-7.1-19.5c0.3-3.2,0.4-3.1,1.4,2.6c0.7,3.5,2.3,8.1,4.1,11.1
			C599.7,356.1,600.1,357.8,597.9,356.2L597.9,356.2z"/>
	</g>
	<path id="path3571" class="st0" d="M702.7,311.1c3.6-11.4,6.8-18.9,14.2-25.4C706.1,291.4,702.8,306,702.7,311.1z"/>
	<path id="path3573" class="st0" d="M671,284.5c-5.5,15.4,18.4,20.3-0.6,33.8c4.1-4.9,8-10.3,4.8-14.5
		C670.8,298,667.1,291.4,671,284.5z"/>
	<path id="path3575" class="st0" d="M585.9,331.3c-5.5,15.4,18.4,20.3-0.6,33.8c4.1-4.9,8-10.3,4.8-14.5
		C585.7,344.7,582,338.1,585.9,331.3z"/>
	<path id="path3577" class="st0" d="M633,293.9c-5.5,15.3,18.4,20.3-0.6,33.8c4.1-4.9,8-10.3,4.8-14.5
		C632.7,307.3,629.1,300.7,633,293.9L633,293.9z"/>
	<path id="path3579" class="st0" d="M657.1,294.7c-4.9,13,12.5,18.5-2.4,29.2c3.3-4,6.5-8.5,4.4-12.3
		C656.2,306.3,653.8,300.4,657.1,294.7z"/>
	<path id="path3581" class="st0" d="M661.9,297.4c-6.8,11.4,12.3,18.6-6.7,26.9c3.9-3.3,9-6.4,7.5-10.2
		C660.6,308.7,657.8,302.3,661.9,297.4L661.9,297.4z"/>
	<path id="path3583" class="st0" d="M671,284.5c-5.5,15.4,18.4,20.3-0.6,33.8c4.1-4.9,8-10.3,4.8-14.5
		C670.8,298,667.1,291.4,671,284.5z"/>
	<path id="path3585" class="st0" d="M689.3,282.8c-9.5,9.3,3.8,21.2-9.9,26c5.7-5.3,5.9-2.6,5.5-9.6
		C684.2,293.4,684.1,286.4,689.3,282.8L689.3,282.8z"/>
	<path id="path3587" class="st0" d="M739.6,296.8c-12.7,4-4.7,23.9-22.6,17.1c5.1,0.4,10.6,0.4,11.8-4
		C730.6,303.6,733.3,297.5,739.6,296.8z"/>
	<path id="path3589" class="st0" d="M723.3,287.7c-10.3,3.1-3.8,18.5-18.4,13.3c4.2,0.3,8.6,0.3,9.7-3.1
		C716,293,718.2,288.2,723.3,287.7L723.3,287.7z"/>
</g>
</svg>
