<?xml version="1.0"?>
<svg xmlns:rdf="http://www.w3.org/1999/02/22-rdf-syntax-ns#" xmlns="http://www.w3.org/2000/svg" xmlns:cc="http://creativecommons.org/ns#" xmlns:xlink="http://www.w3.org/1999/xlink" xmlns:dc="http://purl.org/dc/elements/1.1/" xmlns:svg="http://www.w3.org/2000/svg" id="svg3036" viewBox="0 0 490.37 355.67" version="1.0">
  <defs id="defs3038">
    <linearGradient id="linearGradient3672" x1="347.15" gradientUnits="userSpaceOnUse" y1="450.81" gradientTransform="translate(-304.11 -272.73)" x2="793.97" y2="450.81">
      <stop id="stop3634" offset="0"/>
      <stop id="stop3636" stop-opacity="0" offset="1"/>
    </linearGradient>
  </defs>
  <g id="layer1" transform="translate(-304.11 -272.73)">
    <path id="path5603" stroke="url(#linearGradient3672)" transform="translate(304.11 272.73)" d="m384.59 1c-1.65 0.0196-3.49 0.0899-5.71 0.2188-14.99 0.8691-33.15 4.6598-40.72 8.5-6.96 3.0022-12.26 5.1552-18.91 8.8132-6.78 3.728-11.95 6.957-16.47 10.499-7.58 4.691-6.81 5.186-13.66 10.75-6.09 5.122-12.39 9.723-19.21 13.844-6.86 4.174-11.02 5.884-24.29 16.219-6.95 5.418-19.41 8.494-29.9 12.187-17.44 2.754-25.81 1.435-42.41-0.5-6.76-0.788-28.1-5.083-41.43-8.75-14.69-4.04-33.932-0.757-55.005 9.375-9.236 4.441-19.592 17.656-23.5 29.964-3.727 11.75-3.615 21.45 0.437 37.76 3.176 12.77 12.648 31.17 20.344 39.5 2.035 2.2 3.716 4.33 3.719 4.74 0.003 0.42-1.57 0.76-3.469 0.76-3.285 0-4.856-0.47-12.25-3.66-1.76-0.76-5.656-1.63-8.687-1.94-4.958-0.5-5.778-0.31-8.063 1.97-3.372 3.37-3.199 5.61 0.969 13.06 1.925 3.44 3.5 6.8 3.5 7.47 0 2.46 5.282 8.05 9.563 10.13 4.481 2.17 7.041 4.99 14 15.28 8.262 12.21 8.411 12.52 6.843 16.97-1.84 5.21-1.797 11.15 0.094 12.72 0.825 0.68 1.5 2.06 1.5 3.06 0 1.4-0.581 1.7-2.563 1.34-3.298-0.6-10.139 4.65-12.062 9.25-1.758 4.21-1.781 15.46-0.031 19.63 2.15 5.11 6.837 9.44 11.687 10.75 4.959 1.33 4.045 2.02 10.563-8 2.964-4.56 3.726-6.82 4.375-13.25 0.663-6.59 1.419-8.82 5.094-15 3.432-5.79 4.292-8.21 4.252-11.78-0.07-5.71-2.9-12.1-7.096-16-2.373-2.22-12.481-15.57-14-18.5-0.569-1.1-1.181-3.8-1.375-6-0.329-3.73-0.172-3.98 2.156-3.85 1.375 0.08 5.544 1.32 9.281 2.75 7.914 3.04 16.694 3.42 24.314 1.1 3.05-0.94 6.51-1.26 9.15-0.88 8.94 1.29 20.42-7.55 21.91-16.88 0.62-3.87 0.65-3.91 4.22-3.24 4.89 0.91 5.12 1.16 4.47 4.4-0.31 1.56-0.03 5.41 0.62 8.56 1.16 5.59 1.13 5.86-2.06 11.85-1.8 3.37-6.35 9.72-10.12 14.09-3.78 4.37-6.66 8.55-6.38 9.28s0.1 1.32-0.44 1.32c-3.72 0 6.47 15.57 12.54 19.15 3.16 1.87 5.35 4.59 15.93 19.75 3.8 5.45 5.91 10.6 7 17.19 0.73 4.38 4.18 7.85 8.13 8.12 4.25 0.3 10.69 4.68 9.81 6.69-0.38 0.87-1.16 3.03-1.75 4.78l-1.09 3.19 3.18 6.16c4.12 5.83 8.73 7.29 21.63 6.81 8.49-0.32 10.87-0.72 12.56-2.25 2.86-2.59 2.62-4.69-0.94-8.09-1.66-1.6-4.33-5.25-5.93-8.1-2.17-3.84-4.07-5.71-7.32-7.28-2.4-1.16-4.99-2.12-5.78-2.12-0.79-0.01-2.45-1.47-3.69-3.26-6.95-9.99-11.2-15.01-15-17.71-2.5-1.79-6.45-6.41-9.62-11.29-10.39-15.95-11.73-19.81-9.53-27.53 1.58-5.53 1.62-5.65 1.78-8.09 0.07-1.03 2.6-3.75 5.63-6.03 3.02-2.29 5.5-4.85 5.5-5.69 0-0.94 0.48-1.25 1.24-0.81 0.69 0.39 0.91 0.36 0.5-0.09-0.4-0.46 0.2-1.31 1.35-1.91s4.21-5.15 6.81-10.09l4.75-9 16.41-0.07c9.03-0.04 19.81-0.58 23.94-1.19 9.17-1.33 21.55-4.64 23.53-6.28 0.8-0.66 1.47-0.88 1.47-0.5 0 0.39 1.49-0.23 3.34-1.37 5.28-3.27 6.64-2.69 10.25 4.59 0.87 1.76 3.01 4.52 4.75 6.13 22.28 20.58 26.39 25.48 33.31 39.69 2.45 5.01 5.92 10.03 9.56 13.81 3.57 3.69 7.41 9.19 10.16 14.56 2.43 4.74 6.04 11.77 8 15.63 2.25 4.41 3.75 9.09 4.13 12.65 0.75 7.2 5.87 13.85 10.62 13.85 3.68 0 8.41 2.35 9.28 4.62 0.43 1.11-0.48 3.09-2.56 5.69-2.84 3.53-3.05 4.31-2.1 6.84 1.03 2.72 0.96 2.8-1.37 2.22-6.77-1.7-7.2 0.34-0.59 2.84 2.47 0.94 5.54 2.69 6.84 3.91 1.45 1.36 4.79 2.66 8.62 3.38 6.54 1.21 21.66 0.96 23-0.38 0.43-0.43-4.07-0.77-10-0.78-11.75-0.02-16.88-1.21-20-4.63-2.17-2.39-4.63-6.71-4.09-7.18 0.18-0.16 2.87-0.55 5.97-0.88 5.81-0.61 16.41-4.07 17.41-5.69 0.32-0.52 1.34-0.43 2.43 0.25 1.04 0.65 1.67 1.55 1.41 1.97s2.07 3.49 5.16 6.85c4.77 5.18 5.4 6.33 4.31 7.65-1.1 1.32-0.99 1.51 0.69 1.19 2.64-0.5 3.11-5.07 0.78-7.41-1.71-1.7-1.59-1.74 2.22-0.93 9.18 1.95 20.02 0.41 24.18-3.47 2.78-2.88 0.27-0.84 3.28-3.19 0-0.78-0.75-5.5-3.59-5.51-2.68-0.01-0.85-1.36-5.75-6.71-4.21-4.6-9.68-9.43-12.15-10.75-2.48-1.31-4.5-2.73-4.5-3.12 0-0.4-1.33-2.2-2.91-4-1.59-1.81-3.33-4.99-3.91-7.07-0.69-2.52-3.15-5.84-7.37-10-4.07-4-8.06-9.34-11.19-15-2.68-4.83-5.49-9.43-6.25-10.18-1.12-1.12-2.63-14.66-2.34-21.03l-1.66-1-1.34-4.19c-0.84-2.63-2.69-5.29-4.97-7.13-2.01-1.61-4.4-4.68-5.28-6.81-5.22-12.49-7.84-20.55-8.38-25.84-0.36-3.52-2.19-9.71-4.44-15-4.86-11.48-5.07-13.88-1.68-19.63 1.48-2.52 2.24-3.26 2.72-5.84 1.32-3.46 3.63-6.1 6.02-11.03 1.55-1.49-0.54-14.45 0.85-18.46 0-2.03 0.1-5.37-2.23-9.36-0.77-1.98-1.34-4.97-1.59-6.13-2.52-3.34-0.94-3.51-2.34-7.93 5.78-7.488 8.34-10.584 14.22-19.405 3.63-5.443 7.63-11.732 8.91-13.125 4.71-5.128 9.19-6.485 14.06-7.031 1.53-0.172 2.65-1.826 3.1-2.063 0.44-0.236 2.44-1.802 3.59-3.218 3.39-4.194 7.6-8.312 9.65-8.313 1.37 0-1.27 1.396-3.74 3-2.35 1.52-5.99 5.569-6.13 6.094-0.95 3.534 3.72-1.069 5.84-2.781 5.31-4.285 8.16-5.43 15.32-7.469 2.25-0.642 5.63-0.93 8.78-0.844 3.14 0.086 4.91 0.075 7.34 0.844 0.82 0.258 1.22 0.267 1.22 0.75 0 0.694 0.53-0.098-7.31-0.313-9.74-0.266-13.06 0.47-17.72 2.813-5.57 2.804-11.01 8.911-13.41 13.531-0.6 1.155-0.86 2.304-0.87 3.781-0.01 1.748-0.21 2.31-0.97 3.125l-0.91 1 1.1-0.281c0.61-0.149 1.48-0.375 1.9-0.531 0.43-0.156 1.75-0.414 2.94-0.563 1.97-0.246 2.15-0.216 2.03 0.407-0.14 0.72-1.24 1.123-6.31 2.312l-2.78 0.656 0.03 3.532c0.03 3.091 0.19 3.911 1.22 6.406 1.14 2.754 1.53 5.562 0.81 5.562-0.19 0-0.71-0.466-1.16-1.031l-0.81-1.031 0.31 1.312c0.18 0.719 0.32 2.214 0.32 3.344-0.01 1.864-0.24 2.464-2.63 6.53-1.45 2.47-3.55 6.51-4.65 8.97-1.5 3.33-4.44 8.07-6.85 11.53-1.03 0.84 1.67-5.56-0.7-3.33-2.95 2.79-3.78 3.78-5.28 7.81-0.05 0.13-4.17 4.14-4.14 4.27-3.93 1.27-3.45 2.84-3.9 6.58-0.62 4.33-3.05 5.22 0.33 12.42 0.3 0.66 0.5 1.27 0.5 1.69 0.02 0.88 0.83 2.33 1.82 3.22 2.37 2.15 8.38 4.54 9.96 3.97 0.7-0.26 2.93 0.5 4.94 1.68 7.05 4.16 14.31 2.59 19.44-4.22 1.81-2.39 5.01-5.43 7.09-6.74 2.08-1.32 3.78-2.87 3.79-3.44 0-1.43 11.93-13.61 19.4-19.82 3.34-2.77 8.02-6.88 10.38-9.12 2.35-2.24 5.05-4.47 6-4.97 0.94-0.5 2.72-1.84 3.96-2.97 2.23-2.01 2.27-2.02 3.66-0.12 1.91 2.61 2.89 1.37 1.6-2.03-0.65-1.7 1.65-5.1 2.87-6.72-0.04 0.89-0.08 1.86-0.09 2.93-0.06 6.16 1.19 9.26 3.68 9.26 2.09 0 4.7 3.73 4.35 6.18-0.27 1.86-0.88 2.28-3.07 2.13-1.81-0.13-2.74 0.3-2.74 1.25 0 2.27 3.83 1.69 6.53-1 1.35-1.35 2.47-2.93 2.47-3.5 0-0.58-1.64-2.86-3.63-5.06-3.98-4.41-4.06-5.95-0.75-13.5 0.96-2.205 1.68-4.301 1.59-4.661-0.08-0.361 1.4-1.85 3.32-3.313 1.91-1.463 3.21-3.101 2.87-3.656-0.36-0.591-1.15-0.257-1.9 0.812-0.71 1.003-3.37 3.3-5.91 5.126-4.55 3.262-4.59 3.275-3.44 0.75 0.65-1.414 1.46-2.563 1.85-2.563 0.38 0 2.8-1.835 5.37-4.094 4.21-3.703 4.61-4.423 4.06-7.343-0.43-2.303-0.14-3.731 1.03-4.907 2.49-2.487 3.98-2.013 5.32 1.688 2.19 6.068-1.44 16.768-7.19 21.156-3.15 2.405-3.38 2.875-2.06 4.185 1.31 1.32 1.85 1.27 4.71-0.4 6.02-3.518 9.74-11.276 9.76-20.41 0-3.381-1.34-5.329 1.12-6.438 1.63-0.732 2.46-1.746 4.09-3.968 2.19-2.97 2.89-3.614 2.94-6.156-3.62 0.747-7.55 1.921-12.5 4.437 6.76-4.62 8.54-6.888 11.19-9.906-2.12-1.392-5.39-1.824-10.47-0.344-4.18 1.22-2.6 0.455-6.44 2.187-4.36-5.029-6.69-4.388-10.78-10.75-3.36-5.23-8.05-13.27-13.09-18.031-1.37-1.287-2.95-3.139-5.41-5.625-2.12-2.146-2.88-2.723-8.19-7.594-7.93-7.277-22.49-14.876-33.96-17.718-5.72-1.4146-8.84-1.9028-13.79-1.844zm2 2.7531c3.41 0.0239 4.06 0.1474 9.75 1.5907 5.47 1.3854 13.7 4.4017 18.32 6.6872 7.35 3.641 19.54 12.235 23.98 17.216 4.03 3.338 15.92 18.252 28.24 36.735-8.64-9.057-11.35-14.58-16.05-19.669-7.47-8.086-14.29-16.727-16.78-18.924-1.68-1.476-5.81-5.074-11.03-8.581-7.92-5.32-15.96-9.1279-27.24-12.111-5.63-1.4901-4.28-1.0651-11.27-1.5314-13.98 1.2545-21.46 1.6332-34.83 5.6904-3.86 1.172-18.02 6.843-31.95 15.078-11.19 6.62-18.24 9.819-23.64 13.873 7.56-6.467 25.47-18.183 41.89-25.255 16.41-7.073 31.33-9.5017 40.9-10.74 3.27-0.3327 7.67-0.0732 9.71-0.0589zm-3.28 8.0909c0.1-0.015 0.19-0.008 0.31 0 0.17 0.011 0.36 0.046 0.6 0.094 3 0.602 9.62 3.481 15.47 6.75 1.28 0.718 4.52 2.052 7.22 2.968 11.36 3.87 20.77 9.473 28.34 16.875 3.07 3 3.41 3.447 3.41 4.688 0 0.756-0.07 1.375-0.13 1.375s-1.34-1.254-2.87-2.813c-5.38-5.46-12.74-10.659-20.72-14.593-2.67-1.316-5.69-2.562-6.72-2.782-3.75-0.802-5.67-1.59-9.19-3.75-4.56-2.804-10.96-5.821-13.5-6.375-2.26-0.492-3.12-1.083-2.78-1.969 0.1-0.268 0.28-0.425 0.56-0.468zm56.25 39.187c1.53-0.079 3.22 0.228 4.16 0.844 0.99 0.652 1.01 0.702 0.34 1.187-0.67 0.494-6.16 0.671-7.78 0.25-0.96-0.249-0.58-0.936 0.91-1.718 0.61-0.32 1.46-0.515 2.37-0.563zm26.03 33.531c-1.29-3.291 0.16 0.107 0.1 0.313-0.24 0.825-2.66 3.009-5.38 4.844-1.56 1.057-2.76 1.977-3.69 2.969 0.76-0.861 1.66-1.716 2.85-2.594 2.17-1.604 2.44-2.303 0.41-1.063-0.45 0.272-1.02 0.434-1.63 0.563 1.39-0.325 0.67-2.594 2.49-4.322 1.44-1.369 1.41-5.226 4.85-0.71zm-14.31 2.657c0.07-0.013 0.22 0.003 0.31 0-0.41 0.041-0.59 0.215-0.56 0.562-0.06-0.329-0.06-0.501 0.25-0.562zm1.16 0.031c0.28 0.021 0.49 0.017 0.94 0.062l2.4 0.25c-0.28 0.223-1.29 0.179-2.5-0.124-0.32-0.08-0.6-0.146-0.84-0.188zm-20.63 0.094c0.13 0.008 0.23 0.022 0.35 0.062 1.14 0.41 3.9 2.804 4.65 4.032 0.54 0.887 0.72 1.881 0.72 4.281v3.125l1.69 1.656c2.24 2.21 2.19 3.3-0.13 3.25-2.94-0.06-4.36-2.64-3.9-7.031 0.28-2.748-0.38-2.574-1.22 0.312-0.89 3.059-1.81 3.779-5.03 4.029-1.29 0.1-1.32 0.13-1.32 1.85 0 0.95-0.1 1.88-0.24 2.03-0.15 0.15-0.86-0.33-1.57-1.03-2.28-2.28-2.75-6.197-1.15-9.629 1.72-3.712 5.25-7.058 7.15-6.937zm23.91 0c0.05 0.025 0.1 0.037 0.16 0.062 0 0.038-0.05 0.064-0.07 0.094l-0.09-0.156zm-3.5 1.656c0.2 0.086 0.42 0.177 0.66 0.25 0.7 0.218 1.55 0.363 2.43 0.438 0.86 0.071 1.58 0.095 2.22 0.031-1.57 0.19-3.35-0.007-4.65-0.469-0.24-0.082-0.46-0.15-0.66-0.25zm3.03 5.625c-0.09 0.173-0.2 0.349-0.28 0.531-0.7 1.525-1.04 3.368-1.19 5.934-0.89 0.63-2.22 2.26-2.98 2.26-1.31 0.29-1.36 1.81-2.66 1.82-1.17-1.79 5.39-4.05 5.64-5.951 0.21-1.584 0.61-2.885 1.19-4.063 0.09-0.179 0.18-0.357 0.28-0.531zm-66.41 0.5c0.25-0.067 0.55 0.144 0.94 0.625 1 1.229 1 6.73 0 7.63-0.37 0.33-0.76 0.59-0.87 0.59-0.29 0-0.69-3.53-0.69-6.22 0-1.636 0.22-2.513 0.62-2.625zm21.72 6.655c0.41-0.09 0.28 0.42-0.5 1.56-1.21 1.79-0.7 1.74 1.66-0.12 2.1-1.66 2.66-1.81 2.66-0.78 0 1.46-5.39 5.62-10.22 7.9-2.88 1.36-3.88 1.42-4.19 0.19-0.28-1.1 0.02-1.68 0.87-1.69 0.98 0 2.64-1.15 5.57-3.84 2.19-2.01 3.63-3.11 4.15-3.22zm38.28 1.94c-0.65 0.52 0 1.57-0.57 2.36-1.38 1.94-3.9 3.37-8.43 5.04-2.53 0.44-3.58 2.37-4.75 3.85-0.75 0.76-2.47 3.92-6.91 7.55-2.12 1.73-4.74 5.22-10.09 7.82 3.02-4.41 9.12-11.79 13.54-15.76 3.04-2.93 9.79-6.52 7.46-4.08 6.22-2.67 7.25-4.09 9.82-6.7 0.64-0.66-0.68 0.41-0.07-0.08zm-60.56 20.44c0.15 0 0.27 0.02 0.41 0.03-0.18 0-0.37 0-0.6 0.03 0.06-0.02 0.16-0.06 0.19-0.06zm-7.87 2.87c6.83-6.07 12.45-0.61 11.37 0.77-0.37 0.47 0.34 1.08-0.54 1.51 2.3-1.17 0.51-6.25-10.83-2.28zm-4.32-2.5c3.09-0.03 3.2 0.89 6.41 1.81-2.52 0.97-10.17-0.59-10.04-2.26 0.14-1.75 2.71 0.76 3.63 0.45zm12.16 5.27c-0.93 0.42-2.63 0.2-4.59 0.89-3.65 1.27-4.31 1.81-4.69 3.9-0.38 2.06-1.51 3.88-4.53 7.29-2.77 3.11-3.36 3.53-7.56 5.28-3.6 1.49-4.44 2.36-4.47 4.59-0.03 1.78 0.47 2.73 2.09 3.97 1.69 1.29 4.59 2.02 8.03 2.03 1.64 0 3.43 0.18 4.37 0.4-0.8-0.13-1.26-2.04-2.7-1.99-7.19 0.26-13.1-1.16-11.98-5.6 0.41-1.64 1.76-2.7 4.44-3.5 2.1-0.63 4.58-1.93 5.5-2.9 4.98-5.27 6.72-7.81 6.72-9.82 0-2.22-0.15 0 7.3-2.25 0.15-0.05 1.93-2.23 2.07-2.29zm12.44 2.95c0.72 0 0.03 1.23-1.35 2.41-2.13 1.83-5.21 3.46-10.75 5.72-2.56 1.04-5.59 2.4-6.71 3.03-1.13 0.62-2.29 1.13-2.6 1.12-1.66-0.07-2-1.12-0.66-2 0.47-0.3 2.51-1.13 4.57-1.84 5.83-2.03 9.76-3.85 13.65-6.25 1.98-1.22 3.71-2.19 3.85-2.19zm19.36-3.99c-0.82 3.17-8.2 7.51-9.56 8.92-21.35 22.21-28.74 27.63-31.65 22.2-0.27-0.51-1.63-1.32-2.03-1.61 0.47 0.3 1.92 1.1 2.28 1.57 0.56 0.73 1.38 1.46 1.82 1.63 1.07 0.42 2.25 0.13 4.71-1.16 3.51-1.84 8.93-7.46 20.34-19.71 3.32-3.55 11.15-10.83 14.09-11.84zm-32.8 15.49c1.38 0.04 2.08 0.36 2.87 1.16 0.85 0.85 1.1 1.44 1.1 2.62 0 0.84-0.11 1.5-0.25 1.5-0.15 0-0.81-0.52-1.47-1.15l-1.22-1.16 0.22 2.22c0.24 2.62-0.1 2.93-2.34 2.09-2.55-0.95-3.13-1.01-3.91-0.31-1.12 1.01-0.9 1.58 0.97 2.4 1.24 0.55 1.68 0.93 1.59 1.41-0.09 0.5-0.53 0.7-1.81 0.75-2.98 0.13-5.05-0.99-5.97-3.22-0.53-1.28-0.13-2.34 1.66-4.4 1.4-1.63 5.23-3.77 6.93-3.88 0.65-0.04 1.17-0.04 1.63-0.03z"/>
    <path id="path5579" transform="translate(304.11 272.73)" fill="#fff" d="m385.23 3.672c-8.62 0.5968-9.46 0.3013-13.83 0.7812-13.96 1.5337-23.25 4.4447-33.82 8.7638-9.54 3.902-27.7 14.15-35.88 20.162-12.06 21.131 7.52 37.861 25.81 44.968 6.87 0.404 13.97-33.41 18.71-33.409 1.89 0 3.44 0.418 3.44 0.937 0 1.302-9.62 1.193-13.63-0.156-5.57-1.876-10.34-5.505-12.31-9.407-1.04-2.053-2.07-3.199-2.28-2.562-0.24 0.692-0.91 0.83-1.66 0.375-0.87-0.524-1.12-2.179-0.81-5.344 0.25-2.527 0.19-4.601-0.13-4.593-4.6 0.114-3.43 12.795 1.38 14.937 2.81 1.252 3.16 3 0.59 3-5.09 0-9.06-7.155-6.97-12.531 0.56-1.422 0.73-2.594 0.41-2.594-0.72 0-9.92 5.023-15.87 8.656-2.25 1.369-3.6 2.472-5 4.594-1.17 0.92-2.43 1.942-3.82 3.125-4.19 3.579-7.95 6.5-8.34 6.5s-1.41 0.626-2.28 1.375-3.61 2.02-6.1 2.844c-2.48 0.824-7.59 3.829-11.37 6.656s-7.31 4.871-7.59 5.125c-3.79 3.361-8.75 7.318-15.26 10.813-6.5 3.494-14.55 6.526-24.56 8-9.04 1.92-11.52 1.485-19.15 1.281-6.78-0.181-23.95-2.198-30.41-3.688-3.9-0.898-11.35-1.351-25.59-5.031-11.93-3.082-14.78-3.447-24.03-3.219-10.87 0.269-14.65 1.114-26.505 6.031-9.6 3.982-16.742 8.433-19.063 11.907-1.07 1.602-2.653 3.155-3.531 3.437-2.053 0.66-9.472 15.594-10.656 21.474-1.675 8.3-1.415 17.08 0.813 27.4 1.2 5.56 2.806 11.33 3.562 12.81 0.756 1.49 1.419 3.51 1.469 4.5 0.049 0.99 3.087 6.96 6.75 13.29 5.89 10.16 7.466 12.09 13.656 16.78 3.85 2.91 8.913 5.82 11.25 6.46 2.338 0.65 4.25 1.54 4.25 1.97 0 1.35-3.297 0.84-7.75-1.18-4.494-2.04-5.752-1.18-2.063 1.4 1.205 0.85 1.894 1.83 1.532 2.19-0.831 0.83-5.39-2.12-6.813-4.41-0.838-1.34-2.209-1.65-6.25-1.4-3.773 0.23-7.64-0.49-14.375-2.75-10.184-3.42-13.776-3.29-15.531 0.56-0.886 1.94-0.628 3 1.469 6.12 1.394 2.08 3.34 5.9 4.312 8.54 1.972 5.34 5.72 8.99 12.532 12.15 2.515 1.17 4.394 2.63 4.187 3.25s0.18 1.47 0.844 1.88c0.767 0.47 0.953 0.32 0.5-0.41-1.622-2.62 0.775-0.77 7.25 5.59 5.778 5.69 9.218 10.26 7.719 10.26-0.205-0.01-3.154-2.82-6.532-6.26-5.404-5.5-5.863-5.78-3.844-2.4 1.262 2.11 2.988 4.83 3.813 6.06 6.735 10.01 6.323 8.25 4.5 19.1-0.582 3.46-0.268 4.57 2.406 8.24 1.699 2.34 3.094 4.45 3.094 4.69s-1.013 0.58-2.25 0.75c-2.278 0.33-2.546 1.39-1.656 6.72 0.716 4.29-1.681 3.28-2.657-1.12-0.599-2.71-1.486-4.28-2.437-4.28-1.182-0.01-1.5 1.39-1.5 6.59 0 8.04 1.583 11.33 6.625 13.65 3.986 1.84 4.991 3.26 2.281 3.26-5.345-0.01-11.406-8.14-11.406-15.32 0-2.91-0.39-3.68-1.844-3.68-1.276-0.01-2.281 1.31-3.25 4.24-0.768 2.33-1.314 4.92-1.219 5.76 0.096 0.83 0.469 4.07 0.813 7.18 0.632 5.74 1.981 8.05 6.469 11.13 3.914 2.68 6.576 2.13 9.031-1.85 1.199-1.94 2.897-4.24 3.781-5.12 0.978-0.98 1.916-4.36 2.375-8.66 0.691-6.46 3.128-13.08 8.407-22.84 3.122-5.77 1.062-11.82-7.032-20.72-8.05-8.85-10.609-12.23-10-13.22 0.311-0.5 0.102-0.9-0.5-0.9-1.267-0.01-5.031-8.25-5.031-11.04 0-1.34-0.47-1.7-1.656-1.25-1.289 0.5-1.563 0.18-1.157-1.37 0.43-1.64 0.122-1.95-1.718-1.6-1.236 0.24-2.55-0.06-2.938-0.68-0.489-0.79 0.614-1.1 3.625-1.03 2.386 0.05 5.758-0.2 7.5-0.57 2.281-0.47 5.067 0.09 9.938 2.04 7.959 3.18 23.451 4.36 25.471 1.93 0.69-0.83 3.08-1.33 6.28-1.28 9.53 0.17 11.24-0.12 15.44-2.84 6.11-3.97 9.34-12.97 5.46-15.22-0.97-0.57-1.19-1.05-0.5-1.06 0.69-0.02 1.26-0.71 1.26-1.53-0.01-2.04 0.93-1.9 7.15 1 4.85 2.25 4.77 0.4 6.53 0.87 17.38 4.59 27.02 9.01 37.63 9.5 0.71 1.46 12.65 2.73 21.69 2.19 9.3-0.56 21.25-1.79 26.37-2.85 8.73-1.8 14.65-3.46 19.53-7.53 3.73-3.11 4.91-3.32 1.03-5.44-6.65-3.63-8.69-6.01-9.43-11-0.56-3.73-1.42-5.34-4.1-7.56-1.87-1.55-3.39-3.58-3.37-4.5 0.02-1.23 0.7-0.88 2.5 1.32 1.35 1.64 2.46 2.49 2.47 1.87 0-0.62-0.68-1.69-1.5-2.37-0.83-0.69-1.5-1.72-1.5-2.29-0.01-0.56 0.8-0.28 1.81 0.63 1 0.91 2.36 1.66 3 1.66 1.13-0.01 1.48 1.07 2.62 7.9 0.4 2.39 2.61 5.5 7.5 10.66 3.82 4.01 8.91 10.27 11.35 13.9 2.47 3.69 9.45 11.29 15.81 17.19 11.12 10.32 15.79 16.34 24.41 31.56 1.65 2.92 5.31 7.53 8.12 10.29 2.81 2.74 6.07 7.02 7.25 9.5 1.18 2.47 3.91 7.42 6.09 11 2.18 3.57 4.23 7.73 4.57 9.24 0.33 1.52 0.99 2.76 1.43 2.76 1.44-0.01 4.03 7.91 4.04 12.28 0 4.88 2.92 10.33 6.24 11.68 1.24 0.51 3.83 1.18 5.76 1.54 2.21 0.4 4.47 1.81 6.15 3.84 2.47 2.98 2.56 3.42 1.28 6.19-0.75 1.63-2.12 3.98-3.03 5.21-2.04 5.18-3.09 6.6 4.35 12.65 10.24 3.72 20.98 5.61 30.13 1.97 0.89-0.87 2.09-3.23 0.83-5.8-1.61-3.31-1.59-3.3 0.57-2.88 10.58 2.1 19.96 0.95 26.78-3.22 5.07-4.04-3.85-8-7.13-14-4.86-4.57-9.9-9.67-12.4-11.34-4.66-3.1-9.08-8.6-11.32-14.06-0.68-1.68-3.86-5.93-7.06-9.44-5.58-6.12-14.02-17.96-17.56-24.66-0.96-1.8-2.1-7.29-2.66-12.75-0.54-5.26-1.28-9.77-1.69-10.03-0.4-0.26-1.23-1.95-1.84-3.78-0.61-1.82-3.11-5.54-5.53-8.25-5.22-5.83-10.08-17.02-13.44-30.91-1.25-5.19-3.83-13.78-5.75-19.09-2.44-6.77-3.29-10.41-2.84-12.25 0.21-0.86 1.28-3.28 2.69-6.19 1.93-2.47 2.53-3.75 2.59-5.15 0.21-0.41 0.41-0.79 0.62-1.19 1.93-3.63 3.15-5.99 3.94-8.13 1.5-4.04 1.39-7.31 0.97-16.9-0.33-7.54-2.68-17.53-4.59-19.6-0.37-0.4-3.6 2.89-7.19 7.32-6.59 8.12-8.31 9.44-8.31 6.34 0-2.25 4.39-8.93 13.47-20.47 4.08-5.19 11.01-14.562 15.37-20.841 4.37-6.279 9.09-12.52 10.53-13.844 3.5-3.207 9.8-6.375 12.66-6.375 1.51 0 4.53-2.05 8.78-5.969 6.44-5.933 11.41-8.7 10.22-5.656-0.43 1.096-0.13 1.306 1.15 0.781 5.82-2.374 13.6-4.234 17.47-4.156 5.88 0.118 14.23 2.027 13.66 3.125-0.25 0.474-5.54 0.778-11.75 0.656-13.2-0.258-17.1 0.921-24.44 7.531-4.98 4.486-6.23 6.428-7.31 11.094l-0.75 3.156 3.41-0.624c4.79-0.88 3.78 1.508-1.22 2.874-4.52 1.234-5.09 3.101-3.22 10.719 0.97 3.968 0.99 5.208 0.09 5.5-0.64 0.208-1.15 1.424-1.15 2.688 0 2.237-7.57 17.711-11.57 23.621l-9.31 12.85c-4 1.85-6.42 12.19-4.21 14.04 23.35-10.27 15.3-16.44 16.92-16.76 4.1-0.8 13.98-5.36 13.98-3.38 0 1.64-2.99 3.28-7.97 4.38-1.45 0.32-3.36 1.74-4.25 3.16-0.89 1.41-2.52 3.97-3.62 5.68-1.11 1.71-4.53 4.62-7.57 6.44s-5.75 3.65-6.03 4.09c-1.78 2.81 3.95 6.66 9.94 6.66 2.38 0 4.75 0.72 6.37 1.97 2.26 1.73 5.76 3.25 8.21 2.26 1.55-0.63 8.05-6.05 16.44-14.07s11.48-11.42 15.53-14.54c4.08-3.15 7.61-6.65 12.25-11.4 6.48-6.63 7.43-10.05 10.39-10.84 2.4-0.63 6.47-3.19 9.91-6.33l4.12-6.238c3.04-3.328 2.09-3.116 3.37-5.084 0.93-2.395 5.92-5.263 7.18-7.907l-3.15-1.915-5.31-7.812c-6.19-9.105-5.99-9.871 2.75-10.594l8.08 0.003-12.5-17.462c-23.45-28.779-28.9-31.831-48.18-38.707-8.09-2.8849-13.1-5.4552-20.95-4.912zm-74.85 29.172c0.62 0.041 0.73 0.771 0.62 2.75-0.32 5.653-0.08 6.186 5.38 11.344 2.95 2.791 6.27 6.488 7.37 8.218 1.76 2.769 1.87 3.582 0.87 6.813-0.67 2.212-2.38 4.625-4.31 6.062-5.46 4.076-5.86 3.235-1.09-2.343 5.07-5.927 4.49-7.93-4.6-16-3.05-2.718-5.8-5.978-6.12-7.219-0.32-1.242-1.03-2.25-1.56-2.25s-0.7 0.679-0.38 1.5 0.6 1.964 0.6 2.562 2.94 3.779 6.53 7.063l6.5 5.968-2.75 2.376c-2.97 2.521-4.67 2.369-2.47-0.219 1.18-1.388 0.76-2.089-3.59-5.938-5.81-5.131-7.13-7.302-7.13-11.781 0-3.46 1.73-8.125 3-8.125 0.4 0 1.46-0.292 2.34-0.625 0.34-0.125 0.58-0.17 0.79-0.156zm83.59 13.062c1.12 0.016 0.88 0.532-0.88 1.875-3.15 2.409-4.63 2.409-2.4 0 0.96-1.038 2.43-1.886 3.28-1.875zm-16.63 0.5c0.59 0.079 0.17 0.793-1.37 1.938-1.96 1.453-3.16 1.659-3.16 0.531 0-0.436 1.11-1.284 2.44-1.875 1.05-0.465 1.74-0.641 2.09-0.594zm8.04 0.438c0.53 0 0.96 0.418 0.96 0.937s-0.43 0.938-0.96 0.938c-0.54 0-0.97-0.419-0.97-0.938s0.43-0.937 0.97-0.937zm9.5 1.156c0.59-0.083 1.12 0.292 1.12 1.125 0 0.822-0.69 1.469-1.53 1.469s-1.37-0.509-1.16-1.125c0.3-0.875 0.97-1.386 1.57-1.469zm-12.97 1.969c0.34-0.066 0.56 0.142 0.56 0.531 0 0.519-0.41 1.21-0.94 1.531s-0.97 0.144-0.97-0.375 0.44-1.21 0.97-1.531c0.13-0.08 0.26-0.134 0.38-0.156zm-15.47 3.593c0.05 0.003 0.09-0.003 0.12 0.032 0.32 0.314-0.65 2.008-2.18 3.75-1.54 1.741-4.42 5.818-6.41 9.062-3.73 6.069-4.47 6.816-4.47 4.625 0-2.548 11.2-17.543 12.94-17.469zm-91.03 6.344c0.54-0.053 1.41 1.42 2.25 4.094 0.62 1.992 1.98 4.84 3.22 6.844-0.29 0.785-0.53 1.409-0.76 1.937-2.42-3.352-5.24-9.045-5.24-11.062 0-1.2 0.2-1.781 0.53-1.813zm76.87 13.782c0.47 0.06 0.13 1.048-1.09 2.624-0.71 0.909-1.54 1.657-1.88 1.657-1.22 0-0.58-1.64 1.31-3.313 0.82-0.72 1.38-1.005 1.66-0.968zm-6.72 10.374c0.13-0.009 0.19 0.064 0.19 0.219 0.02 0.62-1.03 2.325-2.34 3.781-3.11 3.449-3.16 1.63-0.07-2.062 0.98-1.168 1.85-1.91 2.22-1.938zm-5.06 7.438c0.07-0.025 0.12-0.004 0.16 0.031 0.29 0.285-0.62 2.454-2.04 4.813-2.33 3.896-4.43 5.516-4.43 3.468 0-1.222 5.19-7.942 6.31-8.312zm46.75 3.656c0.09-0.015 0.2-0.004 0.31 0.032 0.72 0.233 1.19 2.067 1.19 4.5 0 2.432-0.47 4.232-1.19 4.472-0.86 0.28-1.22-0.99-1.22-4.472 0-3.047 0.27-4.427 0.91-4.532zm-97.19 5.224c1.02-0.23 11.42 14.07 16.13 22.24 3.41 5.94 3.79 8.53 1.93 12.91-1.42 3.35-2.88 3.71-2.93 0.72-0.04-2-0.11-1.98-1.47 0.47-1.59 2.85-1.94 3.05-2.84 1.62-0.34-0.52 0.33-2.42 1.46-4.22 1.91-3.02 1.94-3.41 0.54-5.37-0.84-1.16-1.51-3.03-1.5-4.13 0-1.95-1-3.98-8.16-16.71-1.98-3.52-3.42-6.87-3.22-7.47 0.01-0.04 0.03-0.06 0.06-0.06zm29.66 37.06c0.53 0 0.97 0.63 0.97 1.4 0 0.78-0.44 1.41-0.97 1.41s-0.97-0.63-0.97-1.41c0-0.77 0.44-1.4 0.97-1.4zm13.69 36.44c0.54-0.09 0.89 0.6 1.28 2.31 0.37 1.64 1.76 5.35 3.09 8.28s3.67 10.17 5.22 16.06c3.6 13.71 8.71 25.73 13.47 31.78 5.45 6.93 7.87 13.01 8.69 21.75 0.45 4.83 1.49 9.16 2.84 11.78 4.45 8.64 11.66 19.49 16.88 25.41 2.97 3.37 6.94 8.99 8.84 12.47 3.48 6.39 10.02 13.1 15.53 15.97 4.16 2.17 14.94 15.6 14.56 18.15-0.47 3.23-6.01 5.33-13.81 5.22-10.69-0.14-15.92-1.68-18.53-5.47-2.72-3.94-2.78-6.17-0.25-11.75 1.77-3.91 1.82-4.61 0.56-6.96-2.07-3.9-5.88-7.01-9.47-7.72-3.9-0.78-6.98-4.94-9.15-12.32-0.85-2.88-4.98-11.29-9.16-18.68-4.18-7.4-7.59-13.84-7.59-14.32 0-0.47 0.55-1.07 1.21-1.31 0.75-0.27 0.39-0.74-0.9-1.25-1.15-0.45-4.75-4.22-8.03-8.37-7.16-9.07-6.75-8.63-6.75-6.97 0 0.74 2.47 4.52 5.5 8.4 3.03 3.89 8.07 11.9 11.18 17.82 3.12 5.91 6.71 12.35 7.97 14.31 1.27 1.96 3.23 6.28 4.35 9.56 3.31 9.71 6.16 13.77 10.47 14.91 4.38 1.15 8.44 4.05 9.28 6.62 0.69 2.15-2.75 10.38-4.35 10.38-2.38 0-9.85-5.13-13.96-9.6-2.44-2.64-4.8-6.39-5.38-8.5-0.2-0.74-0.6-1.57-1.12-2.5-0.04-1.62-0.86-2.8-2.6-3.75-1.06-1.33-2.32-2.77-3.81-4.34-4.73-4.98-9.63-11.88-13.81-19.09-1.09-2.06-2.17-4.21-3.25-6.44-0.96-1.97-1.9-3.75-2.79-5.34-1.71-3.88-3.06-7.61-3.9-10.91-0.32-1.26-0.62-2.32-0.91-3.41-0.15-3.39-0.67-6.35-1.43-7.81-0.83-1.58-1.5-3.67-1.5-4.66-0.01-0.98-2-3.92-4.44-6.53-3.99-4.26-10.39-15.82-11.41-20.28 2.6 1.1 13.03 13.12 22.38 25.91 0.98 1.34 1.98 2.22 2.25 1.97 0.71-0.7-4.71-8.16-15.22-20.94-4.49-5.45-8.92-11.29-10.69-14.06-0.01-0.01-0.02-0.02-0.03-0.04-1.09-4.35-2.73-9.7-3.97-12.43-0.69-1.54-1.35-3.21-1.91-4.88l-0.03-0.09c-0.18-1.05-0.27-1.87-0.12-2.1 0.82-1.3 2.34-0.9 2.34 0.63 0 0.78 0.24 1.41 0.56 1.41 1.45 0 12.84-5.8 13.94-7.1 0.16-0.19 0.26-0.33 0.38-0.5 2.67-1.77 5.2-4.26 6.56-6.87 1.44-2.76 1.69-3.55 0.72-3.75 0.07-0.04 0.15-0.05 0.22-0.06zm-25.38 1.9c0.66-0.06 1.19 1.54 0.88 4.47-0.11 1.02 0.09 2.97 0.43 4.34 0.48 1.9 1.1 2.37 2.63 1.97 1.49-0.39 1.72-0.24 1.03 0.66-1.32 0.16-2.43 0.4-2.81 0.62-0.61 0.37-1.1 0.24-1.1-0.25 0-0.47-0.84-1.06-1.87-1.34-0.61-2.89-0.87-5.47-0.63-7.13 0.34-2.23 0.93-3.29 1.44-3.34zm8.25 10.53c0.4 0.01 0.81 0.16 1.25 0.41 0.03 0.01 0.07 0.02 0.09 0.03-0.69 0.13-1.38 0.22-2.09 0.25-0.34 0.01-0.66 0.04-1 0.06 0.59-0.51 1.17-0.76 1.75-0.75z"/>
    <path id="path5601" d="m726.72 613.43c3.77-2.3 3.69-2.58-3.39-11.89-4.66-6.14-8.8-9.93-10.84-9.93-0.67 0-3.74-2.52-6.82-5.6-3.84-3.84-6.12-7.14-7.22-10.46-1.07-3.23-3.41-6.68-7-10.32-2.96-3.01-6.78-7.87-8.5-10.8-1.71-2.92-4.35-7.34-5.87-9.82-4.31-7.03-6.43-13.45-5.72-17.26 0.94-5.02-3.62-17.4-7.87-21.36-3.16-2.94-5.53-7.25-8.47-15.38-0.69-1.92-1.88-4.85-2.64-6.5-0.75-1.65-2.01-6.6-2.79-11-0.81-4.57-2.96-11.24-5.02-15.58-1.98-4.17-3.6-8.67-3.61-10-0.01-1.9-0.67-1.24-3.12 3.08-4.35 7.68-5.55 8.84-12.47 12.12-7.23 3.42-7.72 3.49-6.9 0.89 0.48-1.53 0.27-1.85-0.93-1.4-1.79 0.69-1.58 2.01 2.19 13.67 2.14 6.6 3.56 8.93 9.45 15.5 6.92 7.7 18.1 22.98 21.08 28.79 0.86 1.68 3.63 5.35 6.14 8.14 2.51 2.8 4.57 5.57 4.57 6.16s0.59 0.84 1.31 0.57c0.73-0.28 2 0.3 2.84 1.28 1.69 1.96 10.12 15.9 11.07 18.28 0.33 0.83 1.32 3.19 2.2 5.25 0.94 2.19 1.18 3.75 0.58 3.75-0.56 0-2.15-2.55-3.54-5.68-1.38-3.12-4.3-8.51-6.48-11.97-2.19-3.47-3.98-6.76-3.98-7.32 0-0.57-0.45-1.03-1-1.03-1.63 0-1.21 1.18 3.03 8.43 2.22 3.8 4.79 8.51 5.72 10.49 0.93 1.97 2.65 5.02 3.83 6.77s2.45 5.11 2.83 7.45c0.66 4.13 3.89 10.6 6.04 12.1 0.58 0.4 2.25 0.74 3.72 0.75 1.89 0.01 3.72 1.24 6.25 4.19 3.92 4.58 4.41 7.19 2.01 10.63-0.87 1.24-1.76 3.67-1.98 5.4-0.52 4.1 2.89 9.79 5.88 9.81 1.2 0.01 4.42 0.66 7.17 1.44 6.14 1.75 13.81 1.06 18.25-1.64z" fill="#fff"/>
    <path id="path5599" d="m696.97 601.61c0-0.55 1.46-1.01 3.25-1.02s6.09-1.55 9.56-3.42c7.64-4.12 7.73-2.42 0.12 2.13-5.32 3.17-12.93 4.54-12.93 2.31z"/>
    <path id="path5597" d="m654.17 516.41c-1.46-1.46-1.64-9.19-0.2-8.3 0.55 0.34 1.05 2.06 1.12 3.81l0.12 3.19 0.76-3c0.72-2.81 0.77-2.73 0.88 1.25 0.12 4.36-0.57 5.16-2.68 3.05z"/>
    <path id="path5595" d="m651.52 496.04c-2.14-3.26-4.7-10.43-3.72-10.43 0.41 0 2.18 2.93 3.95 6.5 3.17 6.43 3.02 8.9-0.23 3.93z"/>
    <path id="path5593" d="m631.66 488.44c-5.18-4.23-12.81-19.83-9.71-19.83 0.56 0 1.02 0.67 1.02 1.48 0 3.5 5.56 12.89 9.66 16.32 4.06 3.39 5.35 5.25 3.59 5.17-0.41-0.02-2.46-1.43-4.56-3.14z"/>
    <path id="path5591" fill="#fff" d="m527.22 611.71c1.51-0.57 2.75-1.27 2.75-1.54s-1.91-2.69-4.25-5.38c-2.34-2.68-4.97-6.22-5.85-7.85-1.18-2.2-3.21-3.57-7.77-5.28-6.72-2.51-9.78-5.45-13.67-13.13-1.34-2.65-3.66-5.62-5.15-6.61-5.3-3.52-12.85-12.02-15.81-17.8-1.65-3.22-4.69-8.43-6.75-11.56-3.76-5.71-4.67-9.63-2.69-11.6 0.58-0.58 1.45-3.93 1.93-7.45 0.84-6.1 1.12-6.6 6.19-10.9 7.25-6.13 13.82-13.02 13.82-14.49 0-0.66 1.11-3.3 2.47-5.86 1.41-2.65 1.99-4.65 1.35-4.65-0.62 0-0.34-0.87 0.62-1.93 1.7-1.88 1.64-1.96-2.09-2.61-2.12-0.36-5.65-1.26-7.85-1.98s-4.3-1.01-4.68-0.64c0.26-1.7-1.82-2.92-4.96-3.84-3.46 0.92-8.61-8.89-12.68 21-0.67 3.15-5.47 10.22-10.7 15.75-7.32 7.74-8.38 10.42-5.92 14.99 3.21 5.96 8.78 11.44 13.47 13.25 3.51 1.35 6.03 3.63 11.72 10.57 3.99 4.87 7.25 9.21 7.25 9.65 0 1.79-1.74 0.38-6-4.87-2.47-3.05-6.02-7.19-7.87-9.19-3.12-3.37-3.24-3.42-1.6-0.65 0.98 1.65 3.13 4.73 4.78 6.85 7.64 9.77 10.04 14.23 11.59 21.57 1.24 5.85 5.82 11.51 8.49 10.49 3.03-1.16 10.61 4.59 10.61 8.05 0 1.15-0.72 3.12-1.59 4.38-3.23 4.6 1.37 11.13 9.53 13.53 5.01 1.48 17.15 1.32 21.31-0.27z"/>
    <path id="path5589" d="m498.47 600.97c3.88-3.06 12.05-6.34 15.81-6.35 2.29 0 3.56 0.39 3.19 0.99-0.34 0.55-2.18 1-4.09 1-1.9 0-6.14 1.35-9.41 3-6.52 3.29-8.6 3.81-5.5 1.36z"/>
    <path id="path5587" d="m454.73 532.82c-3-1.82-5.16-6.09-4.5-8.88 0.4-1.7 0.48-1.69 1.17 0.17 2.06 5.61 2.74 6.62 5.06 7.5 2.62 1 3.04 1.56 1.73 2.37-0.42 0.26-1.98-0.26-3.46-1.16z"/>
    <path id="path5585" d="m464.21 525.68c-0.14-3.81 0.1-7.16 0.53-7.43 0.44-0.27 0.9 2.85 1.02 6.94 0.12 4.08-0.12 7.42-0.53 7.42-0.42 0-0.88-3.12-1.02-6.93z"/>
    <path id="path5583" d="m454.97 516.12c1.29-1.38 2.56-2.28 2.83-2.01 0.67 0.67-2.88 4.5-4.16 4.5-0.56 0 0.04-1.12 1.33-2.49z"/>
    <path id="path5581" d="m470.97 484.11c-1.29-1.37-1.89-2.5-1.33-2.5 1.28 0 4.83 3.84 4.16 4.51-0.27 0.27-1.54-0.64-2.83-2.01z"/>
    <path id="path5577" d="m644.41 557.44c-1.62-3.4-4.63-8.23-6.69-10.73-5.16-6.27-4.69-7.68 0.61-1.87 4 4.38 11.49 18.77 9.77 18.77-0.42 0-2.08-2.78-3.69-6.17z"/>
    <path id="path5575" d="m636.54 531.22c0.35-1.42 0.14-4-0.47-5.75-1.19-3.42-0.59-5.24 0.94-2.83 1.27 2.01 1.21 9.7-0.08 10.5-0.67 0.41-0.81-0.26-0.39-1.92z"/>
    <path id="path5573" d="m630.02 521.53c0.61-1.15 1.31-1.89 1.56-1.65 0.7 0.7-0.72 3.73-1.75 3.73-0.51 0-0.43-0.93 0.19-2.08z"/>
    <path id="path5571" d="m627.4 519.09c2.05-1.55 3.2-1.31 2.11 0.46-0.36 0.58-1.42 1.05-2.35 1.03-1.48-0.03-1.45-0.21 0.24-1.49z"/>
    <path id="path5569" d="m609.24 505.9c-3.43-3.46-5.95-6.29-5.6-6.29 1.18 0 9.42 7.21 11.01 9.64 2.76 4.21 1.02 3.14-5.41-3.35z"/>
    <path id="path5567" d="m558.84 471.61c-1.99-1.06-3.92-2.7-4.29-3.65-0.62-1.63-0.55-1.63 1.19-0.05 1.03 0.92 3.29 2.18 5.05 2.79 1.75 0.61 3.18 1.52 3.18 2.01 0 1.29-1.01 1.07-5.13-1.1z"/>
    <path id="path5565" d="m561.48 468.62c-1-1.1-1.35-2.01-0.79-2.01 1.26 0 3.76 2.86 3.08 3.53-0.26 0.27-1.29-0.42-2.29-1.52z"/>
    <path id="path5563" d="m584.48 456.72c-3.25-1.91-7.2-7.78-5.99-8.9 0.41-0.39 0.97-0.1 1.23 0.64 0.98 2.74 6.52 8.15 8.36 8.15 1.04 0 1.89 0.45 1.89 1 0 1.45-2.06 1.11-5.49-0.89z"/>
    <path id="path5561" d="m618.51 456.55c0.37-0.59 1.32-0.82 2.13-0.51 1.07 0.41 1.3 0.05 0.86-1.35-0.66-2.05 0.83-3.59 2.48-2.57 1.49 0.92-1.54 4.8-4.04 5.18-1.29 0.2-1.84-0.09-1.43-0.75z"/>
    <path id="path5559" d="m597.47 455.61c0.34-0.55 1.22-1 1.96-1 1.46 0 7.54-6.47 7.54-8.03 0-0.53 0.45-0.97 1-0.97 1.87 0 1.01 1.57-3.45 6.29-2.45 2.59-5.18 4.71-6.06 4.71s-1.33-0.45-0.99-1z"/>
    <path id="path5557" d="m576.43 454.55c-0.36-0.59-0.44-1.28-0.18-1.55 0.26-0.26 0.74 0.22 1.07 1.07 0.67 1.76 0.1 2.07-0.89 0.48z"/>
    <path id="path5555" d="m624.99 450.92c0.01-0.44 0.45-1.48 0.98-2.31 0.84-1.29 0.97-1.26 0.99 0.19 0 0.93-0.44 1.97-0.99 2.31s-0.99 0.26-0.98-0.19z"/>
    <path id="path5553" d="m574.63 438.79c-0.91-1.01-1.66-2.66-1.66-3.66 0-1.01-2.92-4.63-6.5-8.05-3.57-3.42-6.48-7.06-6.47-8.09 0.04-2.04 0.1-1.99 3.97 3.59 0.83 1.19 2.97 3.07 4.77 4.19 1.87 1.16 4.11 3.89 5.25 6.38 1.08 2.39 2.43 4.62 2.98 4.96 1.22 0.76 1.33 2.5 0.16 2.5-0.47 0-1.59-0.82-2.5-1.82z"/>
    <path id="path5551" d="m556.85 431.11c-1.24-2.01-3.07-11.57-2.49-13.06 0.32-0.85 0.19-1.3-0.29-1-1.03 0.64-2.11-2.88-1.98-6.44 0.07-2.04 0.35-1.76 1.49 1.5l1.4 4-0.61-4c-0.91-6.1-0.53-17.55 0.72-21.48 1.34-4.19 3.51-6.84 2.47-3.02-2.03 7.5-2.61 15.83-1.54 22.21 0.61 3.69 0.81 7.22 0.43 7.83-0.38 0.62-0.16 3.05 0.5 5.4 1.18 4.2 1.11 10.02-0.1 8.06z"/>
    <path id="path5549" d="m572.97 373.67c0-0.58 0.45-1.06 1-1.06s1 0.2 1 0.44c0 0.25-0.45 0.72-1 1.06s-1 0.15-1-0.44z"/>
    <path id="path5547" d="m567.87 365.66c2.5-2.19 4.19-2.28 4.87-0.23 0.22 0.65-0.5 1.18-1.6 1.18s-2.83 0.27-3.84 0.59c-1.4 0.45-1.27 0.09 0.57-1.54z"/>
    <path id="path5545" d="m561.97 361.58c0-0.89 2.55-1.97 4.64-1.97 0.81 0 1.23 0.4 0.94 0.88-0.7 1.14-5.58 2.09-5.58 1.09z"/>
    <path id="path5543" d="m560.47 353.08c2.98-2.44 6.18-3.38 5-1.47-0.34 0.55-1.21 1-1.94 1-0.72 0-1.87 0.68-2.56 1.5-0.68 0.83-1.75 1.49-2.37 1.47s0.22-1.14 1.87-2.5z"/>
    <path id="path5541" d="m578.56 349.76c-1.4-2.27-2.49-11.23-1.62-13.38 0.77-1.94 0.91-1.69 0.97 1.73 0.04 2.2 0.55 5.73 1.14 7.85 1.03 3.72 0.76 5.82-0.49 3.8z"/>
    <path id="path5539" fill="#fefdff" d="m696.5 592.71c-1.22-3.85-5.71-6.79-10.71-7.02-2.42-0.11-7.48-8.12-8.34-13.19-0.4-2.37-1.72-5.91-2.93-7.85-1.21-1.95-2.51-4.39-2.9-5.43-2.12 0.47-2.27-4.82-4.62-8.61-0.91-1.37-3.39-5.87-5.51-10-2.12-4.12-4.63-8.05-5.57-8.72-2.2-1.57-7.95-10.52-7.95-12.37 0-0.79-0.9-1.99-2-2.67-1.1-0.69-2-1.85-2-2.59 0-0.73-0.94-2.19-2.1-3.24s-2.73-3.12-3.51-4.61c-0.77-1.49-2.41-3.75-3.64-5.01-1.24-1.26-4.39-4.75-7-7.77-2.81-3.25-4.75-4.82-4.75-3.85 0 3.26 6.31 14.43 10.36 18.33 4.68 4.53 7.39 10.85 8.71 20.34 1.74 12.55 16.11 39.18 24.92 46.15 4.43 3.52 7 7.61 7.03 11.21 0.02 3.02 8.77 12.4 13.33 14.31 1.93 0.8 3.84 1.99 4.24 2.63 1.01 1.64 5.66-7.79 4.94-10.04z"/>
    <path id="path5533" d="m422.22 488.48c-1.79-0.51-3.25-1.36-3.25-1.89 0-1.28 1.71-1.26 2.5 0.02 0.34 0.55 1.61 0.99 2.81 0.97 1.97-0.02 2.01-0.13 0.44-1.05-0.96-0.56-1.75-1.5-1.75-2.09 0-0.73 0.4-0.75 1.25-0.06 0.69 0.56 3.24 1.29 5.66 1.62 5.61 0.76 6.06 1.26 1.91 2.09-1.82 0.37-3.99 0.82-4.82 1-0.82 0.18-2.96-0.09-4.75-0.61z"/>
    <path id="path5531" d="m362.51 486.68c-1-1.62 1.18-2.11 2.47-0.56 1.01 1.22 0.94 1.49-0.33 1.49-0.86 0-1.82-0.42-2.14-0.93z"/>
    <path id="path5529" d="m376.47 484.61c-0.73-1.18 0.25-1.18 3 0 1.93 0.83 1.92 0.87-0.19 0.93-1.2 0.04-2.47-0.38-2.81-0.93z"/>
    <path id="path5527" d="m358.87 480.51c-3.35-3.59-3.65-5.91-1.07-8.24 2-1.81 6.17-2.25 6.17-0.66 0 0.55-0.91 1-2.03 1-1.19 0-2.39 0.94-2.9 2.25-0.7 1.84-0.33 2.68 2.04 4.58 1.59 1.27 2.89 2.74 2.89 3.25 0 1.83-2.25 0.87-5.1-2.18z"/>
    <path id="path5525" d="m366.41 473.2c-1.06-0.78-1.69-1.66-1.4-1.96 0.58-0.58 7.5 1.57 8.61 2.69 1.34 1.34-5.3 0.66-7.21-0.73z"/>
    <path id="path5523" d="m441.34 465.04c-4.54-4.46-12.29-15.27-12.82-17.88-0.12-0.58-0.7-2.85-1.3-5.05-2.14-7.87-3.43-18.35-2.48-20.06 0.69-1.22 1.08 0.04 1.46 4.7 0.3 3.57 1.88 9.87 3.62 14.36 3.12 8.04 11.61 21.61 15.39 24.61 1.11 0.88 1.83 2.2 1.58 2.93-0.28 0.86-2.2-0.4-5.45-3.61z"/>
    <path id="path5521" d="m396.97 461.96c-5.92-3.48-7.9-5.25-9.67-8.69-2.01-3.88-1.01-4.41 2.59-1.38 1.66 1.39 3.59 2.74 4.29 2.99 0.71 0.25 0.99 0.78 0.63 1.18-0.37 0.39-1.66 0.18-2.87-0.46-1.33-0.72-1.95-0.77-1.56-0.14 0.35 0.58 3.33 2.52 6.62 4.33 3.28 1.81 5.97 3.63 5.97 4.05 0 1.28-1.29 0.88-6-1.88z"/>
    <path id="path5519" d="m385.13 443.61c-2.28-1.65-4.37-3-4.64-3-0.6 0-5.09-3.76-7.51-6.27-2.46-2.56-7.28-12.42-6.79-13.88 0.23-0.68 1.49 0.99 2.81 3.71 3.04 6.28 8.89 12.63 16.22 17.61 3.16 2.15 5.75 4.12 5.75 4.37 0 1.12-1.99 0.25-5.84-2.54z"/>
    <path id="path5517" d="m373.44 428.27c-2.02-3.05-3.48-6.13-3.23-6.85 0.25-0.75 1.21 0.17 2.26 2.19 0.99 1.93 2.72 4.74 3.84 6.24 1.11 1.51 1.75 3.01 1.41 3.35-0.33 0.33-2.26-1.89-4.28-4.93z"/>
    <path id="path5515" d="m364.14 412.25c-1.36-7.42-1.49-13.59-0.3-15.45 0.5-0.79 1.06 2.65 1.39 8.5 0.31 5.4 0.88 10.6 1.26 11.56 0.38 0.97 0.28 1.75-0.24 1.75-0.51 0-1.46-2.86-2.11-6.36z"/>
    <path id="path5513" d="m368.64 417.95c-0.37-0.37-0.67-1.13-0.67-1.7 0-0.63 0.47-0.57 1.18 0.15 0.66 0.65 0.96 1.41 0.67 1.7-0.28 0.28-0.82 0.21-1.18-0.15z"/>
    <path id="path5509" d="m515.77 477.57c-1.67-1.68-2.72-3.36-2.34-3.75 0.39-0.39 1.78 0.53 3.08 2.04 1.3 1.52 2.84 2.75 3.41 2.75 0.58 0 1.05 0.45 1.05 1 0 1.86-2.14 1.02-5.2-2.04z"/>
    <path id="path5507" d="m524.97 479.61c-1.17-0.75-0.89-0.97 1.25-0.98 1.51-0.01 2.75 0.43 2.75 0.98 0 1.27-2.04 1.27-4 0z"/>
    <path id="path5495" d="m668.15 418.3c0.73-0.72 2.22-1.84 3.32-2.47 1.94-1.12 1.93-1.16-0.29-1.19-1.26-0.01-3.51 1.1-4.99 2.47-2.08 1.93-2.31 2.5-1.03 2.5 0.92 0 2.26-0.59 2.99-1.31z"/>
    <path id="path5489" d="m678.14 410.96c1.01-0.91 1.83-2.32 1.83-3.14 0-0.93-0.76-0.51-2.07 1.16-1.14 1.45-3.05 2.62-4.25 2.6-2.06-0.03-2.03-0.14 0.57-2.08 3-2.24 3.64-5.61 1.24-6.53-1.95-0.75-4.64 1.48-4.3 3.55 0.14 0.88-0.09 2.16-0.52 2.84-2.04 3.25 4.21 4.58 7.5 1.6z"/>
    <path id="path5487" d="m671.97 406.61c0-0.55 0.7-1 1.56-1s1.28 0.45 0.94 1-1.04 1-1.56 1-0.94-0.45-0.94-1z"/>
    <path id="path5481" d="m690.97 400.35c1.38-0.54 2.01-1.16 1.42-1.38-0.6-0.23-3.08 0.49-5.5 1.59-3.38 1.52-3.71 1.85-1.42 1.38 1.65-0.34 4.13-1.06 5.5-1.59z"/>
    <path id="path5477" d="m763.53 369.84c-0.55-0.55-3.56 5.33-3.56 6.94 0 0.69 0.89-0.5 1.99-2.64 1.09-2.14 1.8-4.07 1.57-4.3z"/>
    <path id="path5475" d="m778.99 368.29c1.01-2.3 2.11-5.53 2.45-7.18 0.36-1.79-0.2-1.01-1.4 1.93-1.11 2.71-3.71 6.7-5.79 8.87l-3.78 3.93 3.34-1.68c2.18-1.11 3.97-3.13 5.18-5.87z"/>
    <path id="path5465" d="m768.2 352.17c0.39-1.99-0.16-2.62-3.38-3.89-5.19-2.03-5.44-5.19-0.34-4.23 2.71 0.51 3.66 0.29 4.13-0.93 0.68-1.78 8.36-6.06 8.36-4.66 0 0.49-1.91 2.15-4.24 3.69s-3.72 2.98-3.09 3.19c1.93 0.64 7.54-2.27 13.7-7.11l5.87-4.62-3.87 0.01c-2.13 0-5.33 0.89-7.12 1.98-2.54 1.55-4.85 1.96-10.5 1.84-12.53-0.25-14.4 1.69-8.42 8.74 1.83 2.17 3.96 5.37 4.72 7.13 1.54 3.53 3.39 3.03 4.18-1.14z"/>
    <path id="path5463" d="m786.99 344.97c2.22-2 3.81-3.86 3.55-4.12-0.27-0.27-2.53 0.47-5.02 1.64s-4.98 2.12-5.54 2.12c-1.13 0-1.37 2.31-0.34 3.34 1.39 1.38 3.45 0.55 7.35-2.98z"/>
    <path id="path5425" d="m310.75 478.94c0.7-0.28 2.83-2.56 4.75-5.06 1.91-2.51 3.47-3.99 3.47-3.3 0 2.1-6.06 9.04-7.83 8.95-1.08-0.05-1.22-0.26-0.39-0.59z"/>
    <path id="path5421" d="m321.97 464.73c0-0.49 1.38-3.85 3.07-7.46l3.08-6.56-1.54-8.14c-0.84-4.48-2.43-9.56-3.54-11.3-8.02-12.65-11.68-23.98-12.64-39.12-0.5-7.93-0.37-9.2 0.98-9.2 1.56 0 3.11 2.98 2.28 4.4-0.24 0.42-0.11 1.66 0.28 2.76 0.4 1.09 0.77-5.06 0.82-13.68s0.6-18.45 1.22-21.85c0.61-3.4 0.91-6.38 0.65-6.64-1.14-1.14-3.61 16.86-3.64 26.42-0.01 5.64-0.34 7.25-1.46 7.25-2.75 0-3.23-15.38-0.85-27.3 0.39-1.95 0.24-2.78-0.43-2.37-1.47 0.91-3.62 15.74-3.65 25.17-0.03 9.9 0.82 16.5 3.39 26.06 1.09 4.07 1.98 8.18 1.98 9.13 0 2.64-1.49 0.36-3.06-4.69l-1.4-4.5-0.33 3.71c-0.18 2.04 0.15 6.28 0.73 9.42 1.01 5.47 0.82 7.46-0.6 6.05-1.43-1.44-2.28-11.22-2.88-33.21-0.61-22.65-0.58-23.21 2.06-34 4.98-20.31 11.99-31.01 25.38-38.71 4.72-2.72 6.62-3.23 12.1-3.24 12.37-0.03 18.64 5.27 22.14 18.73 1.04 3.99 3.74 10.98 6.01 15.53 4.03 8.08 4.48 10.82 1.35 8.22-2.36-1.96-7.46-13.63-9.49-21.71-2.6-10.41-4.89-13.6-11.77-16.4-6.39-2.61-8.56-2.57-12.09 0.21-1.33 1.05-2.96 1.9-3.63 1.9-1.94 0-12.21 11.34-13.87 15.3-2.22 5.32-5.66 22.85-5.57 28.4 0.04 2.64 0.31 4.24 0.58 3.55 1.44-3.56 2.33-0.21 2.27 8.5-0.04 6.38-0.37 9.06-0.93 7.75-1.63-3.79-1.08 16.65 0.61 22.5 0.87 3.03 1.73 6.63 1.9 8 0.31 2.46 1.17 6.07 3.59 15 0.67 2.48 1.8 5.36 2.5 6.4 0.71 1.04 1.05 3.12 0.75 4.63-0.31 1.53-0.06 3.04 0.57 3.42 0.74 0.46 1.1-0.28 1.05-2.12-0.05-1.56 0.12-4.4 0.37-6.33 0.31-2.37-0.62-6.41-2.86-12.54-4.92-13.45-9.74-35.46-7.77-35.46 0.46 0 1.37 3.27 2.02 7.25 1.35 8.34 7.47 29.67 8.02 28 0.39-1.15-0.19-4.47-3.72-21.59-2.07-10.03-2.72-24.11-1.17-25.07 0.47-0.29 1.12 4.07 1.43 9.69 0.55 9.67 3.79 27.57 5.83 32.13 0.79 1.79 0.85 1.7 0.4-0.6-0.74-3.75-2.46-20.98-2.88-28.81-0.36-6.77 0.86-22.83 1.81-23.78 1.21-1.21 1.29 0.73 0.42 10.9-0.57 6.64-0.55 11.5 0.05 13 0.81 2.01 0.97 1.6 1.04-2.62 0.05-2.75 0.68-7.85 1.41-11.34 0.83-3.95 1.04-7.9 0.56-10.5-0.93-5.06 0.31-12.25 3.06-17.64 1.91-3.74 4.01-5.32 4.01-3.02 0 0.55-0.39 1-0.87 1-1.26 0-4.13 10.95-4.13 15.79 0 3.41 0.29 4.04 1.62 3.53 1.36-0.52 1.44-0.29 0.5 1.47-0.88 1.64-4.12 14.84-4.12 16.78 0 0.24 0.41 0.43 0.91 0.43 0.51 0 1.89-3 3.08-6.68 1.18-3.67 3.07-8.51 4.2-10.75 3.03-6.04 9.67-14.57 11.34-14.57 2.17 0 1.79 1.77-0.55 2.51-2.74 0.87-10.58 14.5-12.95 22.49-3.3 11.18-4.4 24.1-2.55 29.94 0.36 1.14 0.23 2.06-0.29 2.06-1.51 0-2.16-3.85-2.17-12.91-0.01-4.63-0.3-8.14-0.64-7.8-0.34 0.35-0.59 6.54-0.55 13.76 0.06 9.93 0.5 14.27 1.83 17.79 2.73 7.27 9.83 17.72 16.11 23.71 3.15 3 5.23 5.45 4.62 5.45-1.87 0-10.05-7.76-14-13.27-2.05-2.88-4.58-6.13-5.61-7.23s-2.52-2.9-3.31-4c-1.3-1.8-1.33-1.66-0.31 1.38 2.22 6.66 6.34 12.73 13.04 19.2 7.41 7.17 8.95 9.8 3.14 5.37-5.26-4.01-10.34-9.1-10.34-10.36 0-0.6-0.37-1.09-0.83-1.09s-2.31-2.81-4.12-6.25l-3.28-6.25 0.64 4.33c0.72 4.84 3.02 8.42 9.52 14.8 2.44 2.39 4.11 4.66 3.72 5.06-0.95 0.95-12.83-11.58-12.1-12.77 0.31-0.5 0.09-0.92-0.49-0.92s-1.09 1.47-1.12 3.25c-0.11 5.56-2.43 13.96-5.8 21-3.03 6.36-4.14 7.93-4.14 5.87z"/>
    <path id="path5419" d="m319.99 418.36c-1.01-3.43-2.78-8.9-3.93-12.15s-2.09-6.74-2.09-7.75c0-1.02-0.41-1.85-0.92-1.85-0.53 0-0.59 1.38-0.14 3.25 0.43 1.79 1.36 5.7 2.06 8.69 1.17 4.97 5.66 16.06 6.5 16.06 0.2 0-0.47-2.81-1.48-6.25z"/>
    <path id="path5417" d="m312.97 393.61c0-0.55-0.48-1-1.06-1s-0.78 0.45-0.44 1 0.82 1 1.06 1 0.44-0.45 0.44-1z"/>
    <path id="path5415" d="m311.58 362.88c-0.34-0.33-0.57 0.26-0.53 1.32 0.05 1.16 0.29 1.4 0.6 0.6 0.29-0.72 0.26-1.58-0.07-1.92z"/>
    <path id="path5413" d="m317.34 340.99c3.47-9.07 8.71-15.78 16.45-21.06 3.47-2.37 6.01-4.32 5.65-4.32-2.01 0-8.5 3.9-12.05 7.24-2.24 2.11-5.08 4.54-6.31 5.4s-2.69 2.75-3.24 4.2c-1.61 4.24-5.88 21.23-5.78 23.02 0.05 0.91 0.66-0.44 1.36-2.98 0.71-2.54 2.47-7.72 3.92-11.5z"/>
    <path id="path5401" d="m682.54 427.04c-2.19-2.19-1.97-3.76 0.95-6.67 4.26-4.27 10.77-4.59 12.03-0.59 0.9 2.82-0.3 3.54-2.07 1.26-1.43-1.82-1.48-1.78-0.89 0.82 0.68 2.97-0.36 3.48-3.55 1.77-1.34-0.71-2.17-0.56-3.1 0.56-1.06 1.28-0.92 1.62 0.9 2.09 1.19 0.31 2.16 0.96 2.16 1.45 0 1.49-4.76 0.98-6.43-0.69z"/>
    <path id="path5399" d="m689.16 419.93c-0.72-0.29-1.59-0.25-1.92 0.08s0.26 0.57 1.31 0.52c1.17-0.04 1.41-0.28 0.61-0.6z"/>
    <path id="path5397" d="m681.97 416.73c0-0.49 0.79-1.12 1.75-1.41 6.67-2.02 14.21-5.22 16.75-7.11 4.23-3.15 5.51-3.84 5.45-2.91-0.12 1.75-6.33 5.63-12.71 7.94-3.68 1.34-7.14 2.87-7.67 3.4-1.21 1.22-3.57 1.27-3.57 0.09z"/>
    <path id="path5395" d="m625.97 411.61c0-0.55 0.45-1 1-1s1 0.45 1 1-0.45 1-1 1-1-0.45-1-1z"/>
    <path id="path5391" d="m654.66 408.23c-0.66-0.65-0.67-2.61-0.03-5.74 0.83-4.04 0.66-5.47-1.18-9.6-1.18-2.68-2.14-5.68-2.14-6.68s-0.45-2.09-1-2.43-1-0.24-1 0.23-2.66 3.83-5.9 7.48c-3.24 3.66-6.08 7.21-6.31 7.89-0.23 0.69-0.95 0.93-1.6 0.52-1.83-1.13 1.96-7.67 10.92-18.82 7.78-9.69 12.24-15.95 19.23-27.04 6.61-10.49 14.34-16.76 20.67-16.76 3.14 0 4.1-0.55 6.11-3.5 2.79-4.11 10.38-9.85 12.15-9.2 0.69 0.26 0.1 0.91-1.34 1.48-2.3 0.92-8.93 7.48-8.93 8.83 0 0.3 2.3-1.47 5.11-3.93 3.54-3.09 7.17-5.12 11.78-6.58 7.64-2.41 10.87-2.56 19.74-0.93 8.07 1.49 8.59 3.42 0.62 2.32-10.92-1.51-18.44-0.94-23.82 1.79-8.39 4.27-16.45 13.64-14.99 17.44 0.33 0.85-0.2 2.18-1.18 2.99-1.66 1.37-1.65 1.41 0.24 0.8 4.43-1.44 7.8-1.81 7.16-0.78-0.35 0.57-2.67 1.34-5.15 1.72-4.42 0.66-4.51 0.75-4.48 4.36 0.02 2.03 0.68 4.82 1.47 6.19 0.78 1.38 1.43 3.4 1.43 4.5 0 2 0 2-1.6 0s-1.6-2-0.86 0c1.63 4.36 1.48 5.19-1.92 10.44-1.94 2.99-4.22 7.49-5.07 10-1.6 4.72-6.11 10.76-7.22 9.66-0.34-0.34 0.28-1.86 1.39-3.36 1.1-1.51 2.83-4.99 3.83-7.74s3.16-6.74 4.8-8.86l2.99-3.87-1.28-6.82c-1.44-7.61-0.86-15.51 1.48-20.2 1.23-2.47 1.29-3.28 0.29-3.92-1.82-1.15-2.77-1.01-7.45 1.11-4.52 2.06-9.3 7.95-22.81 28.12l-7.3 10.91 3.01 7.76c3.59 9.23 4.74 18.23 2.58 20.03-0.96 0.79-1.78 0.86-2.44 0.19z"/>
    <path id="path5389" d="m342.77 404.04c-0.38-0.59-1.18-4.91-1.76-9.6-0.87-7.04-0.79-9.27 0.45-12.81 2.48-7 7.07-14.2 12.45-19.47 4.86-4.77 5.1-4.88 6.52-3 1.74 2.29 1.92 3.45 0.56 3.45-0.54 0-1.88 1.76-2.97 3.91-2.09 4.1-1.08 5.02 2.37 2.16 2.86-2.37 2.47-0.74-1.49 6.22-2.31 4.04-4.13 8.79-4.53 11.75-0.54 4.06-1.02 4.96-2.64 4.96-1.64 0-1.91-0.52-1.55-3 0.3-1.97 0.02-3-0.81-3-1.78 0-2.69-3.53-2.02-7.83l0.57-3.67-1.58 4c-0.92 2.32-1.86 8.85-2.23 15.5-0.35 6.33-0.95 11.02-1.34 10.43z"/>
    <path id="path5387" d="m351.29 379.06c0.64-3.95 3.91-11.35 6.96-15.75 2.68-3.88 1.1-4.89-1.88-1.2-3.8 4.7-6.41 10.8-7.09 16.55-0.71 6.01 1.04 6.36 2.01 0.4z"/>
    <path id="path5381" d="m704.57 383.88c-1.09-1.1-0.62-2.27 0.92-2.27 0.83 0 3.05-1.57 4.92-3.5 3.34-3.44 6-4.93 3.56-2-1.89 2.28 0.06 1.79 2.69-0.67 1.87-1.76 2.31-1.87 2.31-0.59 0 2.28-13 10.43-14.4 9.03z"/>
    <path id="path5379" d="m729.21 375.63c-2.33-3.73-1.51-8.33 2.21-12.39 2.77-3.03 3.79-3.57 5.26-2.78 3.77 2.01 5.51 4.89 4.83 7.97-0.53 2.41-0.18 3.32 1.91 4.96 3.19 2.52 3.21 3.22 0.09 3.22-3.16 0-4.88-3.13-4-7.3 0.46-2.17 0.34-2.88-0.35-2.2-0.56 0.55-1.17 1.9-1.36 3-0.41 2.51-1.69 3.47-4.65 3.49-1.86 0.01-2.19 0.41-1.68 2.01 0.82 2.58-0.65 2.59-2.26 0.02z"/>
    <path id="path5377" d="m734.97 368.7c0-0.51 0.26-1.75 0.58-2.75 0.55-1.74 0.51-1.74-0.86-0.09-0.79 0.97-1.95 1.75-2.58 1.75s-1.14 0.45-1.14 1 0.9 1 2 1 2-0.41 2-0.91z"/>
    <path id="path5371" d="m357.99 369.05c-0.03-1.44 2.69-5.06 3.33-4.42 0.28 0.28-0.34 1.63-1.39 3s-1.92 2.01-1.94 1.42z"/>
    <path id="path5369" d="m363.55 364.96c-0.74-1.92 0.11-3.35 1.98-3.35 1.86 0 1.88 3.62 0.02 4.33-0.78 0.3-1.68-0.14-2-0.98z"/>
    <path id="path5365" d="m340.36 357.86c2.32-4.45 7.54-11.25 8.63-11.25 0.56 0-1.13 3.13-3.75 6.96-4.79 6.99-7.57 9.43-4.88 4.29z"/>
    <path id="path5359" d="m622.97 343.12c0-0.31 1.58-1.95 3.5-3.64 5.55-4.88 4.77-10.83-2.03-15.4-5.69-3.83-8.82-8.07-8.9-12.07-0.1-4.67-1.57-3.01-1.57 1.76 0 4.19 0.53 4.9 9.87 13.23l3.23 2.88-2.19 2.34c-1.21 1.28-2.61 2.08-3.11 1.77-0.51-0.31-0.1-1.17 0.89-1.9 1.7-1.26 1.6-1.55-1.63-4.91-1.9-1.96-3.94-3.57-4.54-3.57-1.71 0-4.52-5.5-4.52-8.85 0-3.28 1.84-8.15 3.08-8.15 0.42 0 1.44-0.26 2.28-0.58 1.23-0.47 1.37-0.06 0.74 2.25-1.22 4.43 0.5 7.62 7.33 13.66 3.59 3.17 6.52 6.64 6.79 8.04 0.56 2.93-1.55 8.39-3.98 10.3-2.61 2.05-5.24 3.48-5.24 2.84z"/>
    <path id="path5353" d="m739.97 325.51c0-1.24 3.95-2.13 6.57-1.47 3.94 0.99 2.78 2.24-2.07 2.24-2.47 0-4.5-0.34-4.5-0.77z"/>
    <path id="path5349" d="m699.2 322.43c0.5-1.5 2.77-2.32 2.77-1.01 0 0.54-0.71 1.25-1.58 1.59-0.98 0.37-1.43 0.15-1.19-0.58z"/>
    <path id="path5345" d="m696.62 320.63c1.18-1.24 2.66-2.08 3.28-1.87 0.63 0.21-0.33 1.22-2.14 2.25l-3.29 1.87 2.15-2.25z"/>
    <path id="path5333" d="m623.72 312.5c-2.24-1.67-2.75-2.83-2.75-6.28 0-2.32 0.69-5.1 1.52-6.17 1.42-1.8 1.48-1.68 0.89 1.83-0.82 4.85 1.1 9.57 4.22 10.35 1.3 0.33 2.37 1 2.37 1.49 0 1.57-3.41 0.9-6.25-1.22z"/>
    <path id="path5331" d="m637.59 307.08c-1.59-4.16 1.02-13.94 4.57-17.12 1.99-1.77 1.98-1.65-0.22 2.65-1.34 2.65-2.4 6.71-2.55 9.84-0.28 5.79-0.82 7.17-1.8 4.63z"/>
    <path id="path3687" d="m671.55 607.52c0.12-0.54 1.65-0.67 3.4-0.29 1.74 0.38 6.28-0.18 10.07-1.25 8.35-2.34 8.07-0.66-0.35 2.11-5.89 1.93-13.61 1.6-13.12-0.57z"/>
    <path id="path5335" d="m740.03 314.68c-5.81-6.94-23.91-18.07-29.39-18.07-1.31 0-4.14-1.19-6.28-2.65-4.95-3.38-13.37-7.32-15.64-7.34-0.96 0-1.75-0.46-1.75-1.01s0.21-1 0.47-1c1.91 0 10.85 3.71 14.53 6.03 2.48 1.56 5.85 3.12 7.5 3.47 4.57 0.97 12.29 4.51 19.5 8.94 6.95 4.27 16 12.84 16 15.16 0 2.14-0.48 1.8-4.94-3.53z"/>
    <path id="path2932" d="m367 37.375c-5.52-10.596-8.55-18.157-8-28.031-3.57 11.801 4.5 24.388 8 28.031z" fill-rule="evenodd" transform="translate(304.11 272.73)" stroke="#000" stroke-width="1px"/>
    <path id="path3514" stroke-width="1px" stroke="#000" fill-rule="evenodd" d="m654.43 315.76c-2.95-11.58-4.16-19.63-1.36-29.12-6.18 10.67-1.21 24.77 1.36 29.12z"/>
    <path id="path3516" stroke-width="1px" stroke="#000" fill-rule="evenodd" d="m614.5 337.45c-7.48-9.32-11.92-16.15-13.3-25.94-1.2 12.27 9.15 23.05 13.3 25.94z"/>
    <path id="path3520" stroke-width=".84279px" stroke="#000" fill-rule="evenodd" d="m681.8 303.99c-3.64-8.9-5.47-15.28-4.11-23.74-4.05 10.2 1.52 20.73 4.11 23.74z"/>
    <g id="g3526">
      <path id="path3518" stroke-width=".9483px" stroke="#000" fill-rule="evenodd" d="m604.51 348.15c-6.01-10.42-9.58-18.05-10.69-28.99-0.97 13.71 7.36 25.76 10.69 28.99z"/>
      <path id="path3522" d="m603.55 348.47c-4.38-0.79-11.38-8.11-12.24-12.8-0.48-2.61-0.39-2.54 2.15 1.57 1.55 2.53 4.47 5.54 7.07 7.3 4.8 3.25 5.7 4.42 3.02 3.93z"/>
      <path id="path3524" d="m597.88 356.17c-3.63-2.59-7.69-13.72-7.1-19.49 0.33-3.21 0.39-3.1 1.44 2.63 0.65 3.52 2.35 8.12 4.14 11.15 3.29 5.59 3.75 7.29 1.52 5.71z"/>
    </g>
    <g id="g3531">
      <path id="path3533" stroke-width=".9483px" stroke="#000" fill-rule="evenodd" d="m604.51 348.15c-6.01-10.42-9.58-18.05-10.69-28.99-0.97 13.71 7.36 25.76 10.69 28.99z"/>
      <path id="path3535" d="m603.55 348.47c-4.38-0.79-11.38-8.11-12.24-12.8-0.48-2.61-0.39-2.54 2.15 1.57 1.55 2.53 4.47 5.54 7.07 7.3 4.8 3.25 5.7 4.42 3.02 3.93z"/>
      <path id="path3537" d="m597.88 356.17c-3.63-2.59-7.69-13.72-7.1-19.49 0.33-3.21 0.39-3.1 1.44 2.63 0.65 3.52 2.35 8.12 4.14 11.15 3.29 5.59 3.75 7.29 1.52 5.71z"/>
    </g>
    <g id="g3547" transform="matrix(.659 .17492 -.13974 .82492 300.01 -77.203)">
      <path id="path3549" stroke-width=".9483px" stroke="#000" fill-rule="evenodd" d="m604.51 348.15c-6.01-10.42-9.58-18.05-10.69-28.99-0.97 13.71 7.36 25.76 10.69 28.99z"/>
      <path id="path3551" d="m603.55 348.47c-4.38-0.79-11.38-8.11-12.24-12.8-0.48-2.61-0.39-2.54 2.15 1.57 1.55 2.53 4.47 5.54 7.07 7.3 4.8 3.25 5.7 4.42 3.02 3.93z"/>
      <path id="path3553" d="m597.88 356.17c-3.63-2.59-7.69-13.72-7.1-19.49 0.33-3.21 0.39-3.1 1.44 2.63 0.65 3.52 2.35 8.12 4.14 11.15 3.29 5.59 3.75 7.29 1.52 5.71z"/>
    </g>
    <g id="g3555" transform="matrix(.78069 .43516 -.44067 .85539 377.75 -253.74)">
      <path id="path3557" stroke-width=".9483px" stroke="#000" fill-rule="evenodd" d="m604.51 348.15c-6.01-10.42-9.58-18.05-10.69-28.99-0.97 13.71 7.36 25.76 10.69 28.99z"/>
      <path id="path3559" d="m603.55 348.47c-4.38-0.79-11.38-8.11-12.24-12.8-0.48-2.61-0.39-2.54 2.15 1.57 1.55 2.53 4.47 5.54 7.07 7.3 4.8 3.25 5.7 4.42 3.02 3.93z"/>
      <path id="path3561" d="m597.88 356.17c-3.63-2.59-7.69-13.72-7.1-19.49 0.33-3.21 0.39-3.1 1.44 2.63 0.65 3.52 2.35 8.12 4.14 11.15 3.29 5.59 3.75 7.29 1.52 5.71z"/>
    </g>
    <g id="g3563" transform="matrix(.54064 .53066 -.71469 .47141 642.22 -174.23)">
      <path id="path3565" stroke-width=".9483px" stroke="#000" fill-rule="evenodd" d="m604.51 348.15c-6.01-10.42-9.58-18.05-10.69-28.99-0.97 13.71 7.36 25.76 10.69 28.99z"/>
      <path id="path3567" d="m603.55 348.47c-4.38-0.79-11.38-8.11-12.24-12.8-0.48-2.61-0.39-2.54 2.15 1.57 1.55 2.53 4.47 5.54 7.07 7.3 4.8 3.25 5.7 4.42 3.02 3.93z"/>
      <path id="path3569" d="m597.88 356.17c-3.63-2.59-7.69-13.72-7.1-19.49 0.33-3.21 0.39-3.1 1.44 2.63 0.65 3.52 2.35 8.12 4.14 11.15 3.29 5.59 3.75 7.29 1.52 5.71z"/>
    </g>
    <path id="path3571" stroke-width="1px" stroke="#000" fill-rule="evenodd" d="m702.71 311.09c3.62-11.39 6.85-18.86 14.24-25.44-10.88 5.79-14.13 20.39-14.24 25.44z"/>
    <path id="path3573" stroke-width=".8244px" stroke="#000" fill-rule="evenodd" d="m670.99 284.55c-5.45 15.35 18.37 20.33-0.62 33.79 4.09-4.87 7.97-10.34 4.85-14.47-4.45-5.91-8.12-12.52-4.23-19.32z"/>
    <path id="path3575" stroke-width=".8244px" stroke="#000" fill-rule="evenodd" d="m585.91 331.26c-5.45 15.35 18.37 20.33-0.62 33.79 4.09-4.87 7.96-10.34 4.85-14.47-4.45-5.91-8.12-12.52-4.23-19.32z"/>
    <path id="path3577" stroke-width=".8244px" stroke="#000" fill-rule="evenodd" d="m632.95 293.9c-5.45 15.34 18.38 20.32-0.61 33.78 4.08-4.87 7.96-10.34 4.84-14.47-4.45-5.9-8.12-12.51-4.23-19.31z"/>
    <path id="path3579" stroke-width=".66219px" stroke="#000" fill-rule="evenodd" d="m657.12 294.72c-4.93 12.99 12.48 18.49-2.41 29.17 3.32-4 6.51-8.53 4.44-12.26-2.97-5.33-5.31-11.23-2.03-16.91z"/>
    <path id="path3581" stroke-width=".64345px" stroke="#000" fill-rule="evenodd" d="m661.93 297.44c-6.79 11.43 12.34 18.63-6.65 26.86 3.87-3.28 9.04-6.43 7.53-10.19-2.17-5.38-4.97-11.82-0.88-16.67z"/>
    <path id="path3583" stroke-width=".8244px" stroke="#000" fill-rule="evenodd" d="m670.99 284.55c-5.45 15.35 18.37 20.33-0.62 33.79 4.09-4.87 7.97-10.34 4.85-14.47-4.45-5.91-8.12-12.52-4.23-19.32z"/>
    <path id="path3585" stroke-width=".64345px" stroke="#000" fill-rule="evenodd" d="m689.3 282.79c-9.48 9.32 3.85 21.16-9.94 25.95 5.68-5.25 5.9-2.58 5.54-9.61-0.73-5.75-0.79-12.7 4.4-16.34z"/>
    <path id="path3587" stroke-width=".70233px" stroke="#000" fill-rule="evenodd" d="m739.58 296.76c-12.71 4.03-4.72 23.92-22.59 17.14 5.14 0.43 10.59 0.4 11.84-4.01 1.79-6.31 4.42-12.41 10.75-13.13z"/>
    <path id="path3589" stroke-width=".55756px" stroke="#000" fill-rule="evenodd" d="m723.31 287.68c-10.35 3.12-3.85 18.51-18.41 13.26 4.2 0.33 8.63 0.31 9.65-3.1 1.46-4.88 3.6-9.61 8.76-10.16z"/>
  </g>
  <metadata>
    <rdf:RDF>
      <cc:Work>
        <dc:format>image/svg+xml</dc:format>
        <dc:type rdf:resource="http://purl.org/dc/dcmitype/StillImage"/>
        <cc:license rdf:resource="http://creativecommons.org/licenses/publicdomain/"/>
        <dc:publisher>
          <cc:Agent rdf:about="http://openclipart.org/">
            <dc:title>Openclipart</dc:title>
          </cc:Agent>
        </dc:publisher>
        <dc:title>Prancing horse outline</dc:title>
        <dc:date>2008-01-24T21:38:23</dc:date>
        <dc:description>A prancing or kicking horse.</dc:description>
        <dc:source>http://openclipart.org/detail/11650/prancing-horse-outline-by-warszawianka</dc:source>
        <dc:creator>
          <cc:Agent>
            <dc:title>warszawianka</dc:title>
          </cc:Agent>
        </dc:creator>
        <dc:subject>
          <rdf:Bag>
            <rdf:li>animal</rdf:li>
            <rdf:li>black &amp; white</rdf:li>
            <rdf:li>clip art</rdf:li>
            <rdf:li>clipart</rdf:li>
            <rdf:li>coloring book</rdf:li>
            <rdf:li>contour</rdf:li>
            <rdf:li>horse</rdf:li>
            <rdf:li>mammal</rdf:li>
            <rdf:li>outline</rdf:li>
          </rdf:Bag>
        </dc:subject>
      </cc:Work>
      <cc:License rdf:about="http://creativecommons.org/licenses/publicdomain/">
        <cc:permits rdf:resource="http://creativecommons.org/ns#Reproduction"/>
        <cc:permits rdf:resource="http://creativecommons.org/ns#Distribution"/>
        <cc:permits rdf:resource="http://creativecommons.org/ns#DerivativeWorks"/>
      </cc:License>
    </rdf:RDF>
  </metadata>
</svg>
