<?xml version="1.0" encoding="utf-8"?>
<!-- Generator: Adobe Illustrator 22.1.0, SVG Export Plug-In . SVG Version: 6.00 Build 0)  -->
<svg version="1.1" id="Layer_1" xmlns="http://www.w3.org/2000/svg" xmlns:xlink="http://www.w3.org/1999/xlink" x="0px" y="0px"
	 viewBox="0 0 90.2 78.5" style="enable-background:new 0 0 90.2 78.5;" xml:space="preserve">
<style type="text/css">
	.st0{fill:none;stroke:#000000;stroke-miterlimit:10;}
</style>
<polygon class="st0" points="28.9,52.9 21.3,52.9 13,68.4 21.6,68.4 "/>
<path class="st0" d="M37.2,61.2c-0.4,1.1-0.7,1.9-0.7,1.9L35,68.2l-9,0l5.8-15.5c0,0,2.6-0.1,2.2,0l0,0c0.1,0,0.3,0,0.7,0l-1.9,6.9
	l0.5,1l1.3,0.8l1.9,0L37.2,61.2z"/>
<polygon class="st0" points="40.7,53.6 40.2,57.3 39.2,68.4 48.3,68.4 48,59.1 47.3,53.6 "/>
<path class="st0" d="M61.8,68.5l-8.9,0l-1-6.4c0,0-0.6-2.5-0.8-4.6l2.6,3.1c0,0,0.6,0.2,1.5-0.5c0.9-0.8,1.7-1.1,1.1-2.3
	c-0.4-0.7-1.9-3-3.1-4.9c1.1,0,2.3,0.1,2.3,0.1l1.6,0L61.8,68.5z"/>
<polygon class="st0" points="59.9,53.2 66.6,68.4 75.1,68.3 66.8,53.2 "/>
<path class="st0" d="M55.3,60.1c-0.9,0.8-1.5,0.5-1.5,0.5l-2.6-3.1l-3-3.6l-2.6-6.5l-0.8,0.3l-4.6,4.3L37.7,61l-0.5,0.2l-0.9,0.4
	l-1.9,0l-1.3-0.8l-0.5-1l1.9-6.9l0.7-2.4c0,0,5-5.2,7.4-7.4c0.6-0.6,0.1-3.3,0.2-4.2c0.1-1-0.6-2.2-1.2-1.1
	c-1.1,2.1-4.4,3.5-4.4,3.5S36,42,33.8,41.8c-0.9-0.1-1.5-0.4-1.5-0.4s-1.2-1.1-0.1-2.3c0.4-0.5,2.5-0.4,3.9-1.2c1.4-0.8,2.1-3.5,3-5
	c3.1-4.9,5.6-5,5.6-5s2.6-0.4,4.3-0.3c3.1,0.1,6.8,7.7,6.8,7.7v7.4c0,0-0.4,0.7-2,0.7c-1.8,0-1.7-1.6-1.7-1.6v-5.3l-1.3-1.7
	l0.7,15.7c0,0,0.8,1.2,1.7,2.6c1.3,1.9,2.8,4.2,3.1,4.9C57,59,56.2,59.4,55.3,60.1z"/>
<ellipse class="st0" cx="44.3" cy="23.9" rx="4.1" ry="3.8"/>
</svg>
